{
    "header": {
        "PPQ": 480,
        "timeSignature": [
            6,
            8
        ],
        "bpm": 156.5999029080602,
        "name": "Grieg: Lyrische Stücke, Norwegischer Bauernmarsch, Opus 54 Nr. 2"
    },
    "startTime": 0,
    "duration": 181.99245000000067,
    "tracks": [
        {
            "startTime": 0,
            "duration": 0,
            "length": 0,
            "notes": [],
            "controlChanges": {},
            "id": 0,
            "name": "Grieg: Lyrische Stücke, Norwegischer Bauernmarsch, Opus 54 Nr. 2"
        },
        {
            "startTime": 0.7662840000000001,
            "duration": 181.99245000000067,
            "length": 1059,
            "notes": [
                {
                    "name": "C5",
                    "midi": 72,
                    "time": 0.7662840000000001,
                    "velocity": 0.31496062992125984,
                    "duration": 0.19157100000000005
                },
                {
                    "name": "D5",
                    "midi": 74,
                    "time": 0.9578550000000001,
                    "velocity": 0.29133858267716534,
                    "duration": 0.19157099999999994
                },
                {
                    "name": "F4",
                    "midi": 65,
                    "time": 1.149426,
                    "velocity": 0.2677165354330709,
                    "duration": 0.5747129999999998
                },
                {
                    "name": "E5",
                    "midi": 76,
                    "time": 1.149426,
                    "velocity": 0.3543307086614173,
                    "duration": 0.19157099999999994
                },
                {
                    "name": "C5",
                    "midi": 72,
                    "time": 1.340997,
                    "velocity": 0.2992125984251969,
                    "duration": 0.19157099999999994
                },
                {
                    "name": "E5",
                    "midi": 76,
                    "time": 1.532568,
                    "velocity": 0.2992125984251969,
                    "duration": 0.2873565
                },
                {
                    "name": "G4",
                    "midi": 67,
                    "time": 1.7241389999999999,
                    "velocity": 0.2677165354330709,
                    "duration": 0.5747130000000003
                },
                {
                    "name": "D5",
                    "midi": 74,
                    "time": 1.8199245,
                    "velocity": 0.2677165354330709,
                    "duration": 0.04789274999999993
                },
                {
                    "name": "E5",
                    "midi": 76,
                    "time": 1.8678172499999999,
                    "velocity": 0.2677165354330709,
                    "duration": 0.04789274999999993
                },
                {
                    "name": "D5",
                    "midi": 74,
                    "time": 1.9157099999999998,
                    "velocity": 0.33858267716535434,
                    "duration": 0.19157100000000016
                },
                {
                    "name": "B4",
                    "midi": 71,
                    "time": 2.107281,
                    "velocity": 0.2992125984251969,
                    "duration": 0.19157100000000016
                },
                {
                    "name": "E4",
                    "midi": 64,
                    "time": 2.298852,
                    "velocity": 0.2677165354330709,
                    "duration": 0.574713
                },
                {
                    "name": "D5",
                    "midi": 74,
                    "time": 2.298852,
                    "velocity": 0.31496062992125984,
                    "duration": 0.09578549999999986
                },
                {
                    "name": "D5",
                    "midi": 74,
                    "time": 2.681994,
                    "velocity": 0.3858267716535433,
                    "duration": 0.3831420000000003
                },
                {
                    "name": "F4",
                    "midi": 65,
                    "time": 2.873565,
                    "velocity": 0.2677165354330709,
                    "duration": 0.5747130000000005
                },
                {
                    "name": "C5",
                    "midi": 72,
                    "time": 3.0651360000000003,
                    "velocity": 0.31496062992125984,
                    "duration": 0.19157100000000016
                },
                {
                    "name": "A4",
                    "midi": 69,
                    "time": 3.2567070000000005,
                    "velocity": 0.29133858267716534,
                    "duration": 0.19157100000000016
                },
                {
                    "name": "D4",
                    "midi": 62,
                    "time": 3.4482780000000006,
                    "velocity": 0.2677165354330709,
                    "duration": 0.5747130000000005
                },
                {
                    "name": "C5",
                    "midi": 72,
                    "time": 3.4482780000000006,
                    "velocity": 0.3543307086614173,
                    "duration": 0.19157100000000016
                },
                {
                    "name": "A4",
                    "midi": 69,
                    "time": 3.639849000000001,
                    "velocity": 0.2992125984251969,
                    "duration": 0.19157100000000016
                },
                {
                    "name": "C5",
                    "midi": 72,
                    "time": 3.831420000000001,
                    "velocity": 0.2992125984251969,
                    "duration": 0.19157100000000016
                },
                {
                    "name": "B4",
                    "midi": 71,
                    "time": 4.022991000000001,
                    "velocity": 0.3543307086614173,
                    "duration": 0.1915709999999997
                },
                {
                    "name": "C4",
                    "midi": 60,
                    "time": 4.022991000000001,
                    "velocity": 0.2677165354330709,
                    "duration": 0.5747129999999991
                },
                {
                    "name": "G4",
                    "midi": 67,
                    "time": 4.214562000000001,
                    "velocity": 0.33858267716535434,
                    "duration": 0.1915709999999997
                },
                {
                    "name": "B4",
                    "midi": 71,
                    "time": 4.4061330000000005,
                    "velocity": 0.2992125984251969,
                    "duration": 0.1915709999999997
                },
                {
                    "name": "B3",
                    "midi": 59,
                    "time": 4.597704,
                    "velocity": 0.2677165354330709,
                    "duration": 0.5747129999999991
                },
                {
                    "name": "A4",
                    "midi": 69,
                    "time": 4.597704,
                    "velocity": 0.31496062992125984,
                    "duration": 0.09578549999999986
                },
                {
                    "name": "A4",
                    "midi": 69,
                    "time": 4.980846,
                    "velocity": 0.36220472440944884,
                    "duration": 0.3831419999999994
                },
                {
                    "name": "C4",
                    "midi": 60,
                    "time": 5.172416999999999,
                    "velocity": 0.2677165354330709,
                    "duration": 0.5747129999999991
                },
                {
                    "name": "G4",
                    "midi": 67,
                    "time": 5.363987999999999,
                    "velocity": 0.31496062992125984,
                    "duration": 0.1915709999999997
                },
                {
                    "name": "E4",
                    "midi": 64,
                    "time": 5.555558999999999,
                    "velocity": 0.29133858267716534,
                    "duration": 0.1915709999999997
                },
                {
                    "name": "B3",
                    "midi": 59,
                    "time": 5.7471299999999985,
                    "velocity": 0.2677165354330709,
                    "duration": 0.5747129999999991
                },
                {
                    "name": "G4",
                    "midi": 67,
                    "time": 5.7471299999999985,
                    "velocity": 0.3543307086614173,
                    "duration": 0.1915709999999997
                },
                {
                    "name": "D4",
                    "midi": 62,
                    "time": 5.938700999999998,
                    "velocity": 0.2992125984251969,
                    "duration": 0.1915709999999997
                },
                {
                    "name": "G4",
                    "midi": 67,
                    "time": 6.130271999999998,
                    "velocity": 0.2992125984251969,
                    "duration": 0.28735649999999957
                },
                {
                    "name": "A3",
                    "midi": 57,
                    "time": 6.321842999999998,
                    "velocity": 0.2677165354330709,
                    "duration": 0.5747129999999991
                },
                {
                    "name": "E4",
                    "midi": 64,
                    "time": 6.4176284999999975,
                    "velocity": 0.2677165354330709,
                    "duration": 0.04789274999999993
                },
                {
                    "name": "F#4",
                    "midi": 66,
                    "time": 6.465521249999997,
                    "velocity": 0.2677165354330709,
                    "duration": 0.04789274999999993
                },
                {
                    "name": "E4",
                    "midi": 64,
                    "time": 6.513413999999997,
                    "velocity": 0.33858267716535434,
                    "duration": 0.1915709999999997
                },
                {
                    "name": "D4",
                    "midi": 62,
                    "time": 6.704984999999997,
                    "velocity": 0.2992125984251969,
                    "duration": 0.1915709999999997
                },
                {
                    "name": "B3",
                    "midi": 59,
                    "time": 6.896555999999997,
                    "velocity": 0.23622047244094488,
                    "duration": 0.5747129999999991
                },
                {
                    "name": "G4",
                    "midi": 67,
                    "time": 6.896555999999997,
                    "velocity": 0.31496062992125984,
                    "duration": 0.1915709999999997
                },
                {
                    "name": "D4",
                    "midi": 62,
                    "time": 7.0881269999999965,
                    "velocity": 0.25984251968503935,
                    "duration": 0.1915709999999997
                },
                {
                    "name": "G4",
                    "midi": 67,
                    "time": 7.279697999999996,
                    "velocity": 0.25196850393700787,
                    "duration": 0.28735649999999957
                },
                {
                    "name": "A3",
                    "midi": 57,
                    "time": 7.471268999999996,
                    "velocity": 0.2204724409448819,
                    "duration": 0.5747129999999991
                },
                {
                    "name": "E4",
                    "midi": 64,
                    "time": 7.567054499999996,
                    "velocity": 0.2125984251968504,
                    "duration": 0.04789274999999993
                },
                {
                    "name": "F#4",
                    "midi": 66,
                    "time": 7.614947249999996,
                    "velocity": 0.2125984251968504,
                    "duration": 0.04789274999999993
                },
                {
                    "name": "E4",
                    "midi": 64,
                    "time": 7.662839999999996,
                    "velocity": 0.2677165354330709,
                    "duration": 0.1915709999999997
                },
                {
                    "name": "D4",
                    "midi": 62,
                    "time": 7.854410999999995,
                    "velocity": 0.2283464566929134,
                    "duration": 0.1915709999999997
                },
                {
                    "name": "B3",
                    "midi": 59,
                    "time": 8.045981999999995,
                    "velocity": 0.1968503937007874,
                    "duration": 0.09578549999999986
                },
                {
                    "name": "G4",
                    "midi": 67,
                    "time": 8.045981999999995,
                    "velocity": 0.23622047244094488,
                    "duration": 0.09578549999999986
                },
                {
                    "name": "B3",
                    "midi": 59,
                    "time": 8.429123999999995,
                    "velocity": 0.1889763779527559,
                    "duration": 0.7662840000000006
                },
                {
                    "name": "G4",
                    "midi": 67,
                    "time": 8.429123999999995,
                    "velocity": 0.2283464566929134,
                    "duration": 0.7662840000000006
                },
                {
                    "name": "C5",
                    "midi": 72,
                    "time": 9.961691999999996,
                    "velocity": 0.31496062992125984,
                    "duration": 0.1915709999999997
                },
                {
                    "name": "D5",
                    "midi": 74,
                    "time": 10.153262999999995,
                    "velocity": 0.29133858267716534,
                    "duration": 0.1915709999999997
                },
                {
                    "name": "F4",
                    "midi": 65,
                    "time": 10.344833999999995,
                    "velocity": 0.2677165354330709,
                    "duration": 0.5747129999999991
                },
                {
                    "name": "E5",
                    "midi": 76,
                    "time": 10.344833999999995,
                    "velocity": 0.3543307086614173,
                    "duration": 0.1915709999999997
                },
                {
                    "name": "C5",
                    "midi": 72,
                    "time": 10.536404999999995,
                    "velocity": 0.2992125984251969,
                    "duration": 0.1915709999999997
                },
                {
                    "name": "E5",
                    "midi": 76,
                    "time": 10.727975999999995,
                    "velocity": 0.2992125984251969,
                    "duration": 0.28735649999999957
                },
                {
                    "name": "G4",
                    "midi": 67,
                    "time": 10.919546999999994,
                    "velocity": 0.2677165354330709,
                    "duration": 0.5747130000000009
                },
                {
                    "name": "D5",
                    "midi": 74,
                    "time": 11.015332499999994,
                    "velocity": 0.2677165354330709,
                    "duration": 0.04789275000000082
                },
                {
                    "name": "E5",
                    "midi": 76,
                    "time": 11.063225249999995,
                    "velocity": 0.2677165354330709,
                    "duration": 0.04789275000000082
                },
                {
                    "name": "D5",
                    "midi": 74,
                    "time": 11.111117999999996,
                    "velocity": 0.33858267716535434,
                    "duration": 0.1915709999999997
                },
                {
                    "name": "B4",
                    "midi": 71,
                    "time": 11.302688999999996,
                    "velocity": 0.2992125984251969,
                    "duration": 0.1915709999999997
                },
                {
                    "name": "E4",
                    "midi": 64,
                    "time": 11.494259999999995,
                    "velocity": 0.2677165354330709,
                    "duration": 0.5747129999999991
                },
                {
                    "name": "D5",
                    "midi": 74,
                    "time": 11.494259999999995,
                    "velocity": 0.31496062992125984,
                    "duration": 0.09578549999999986
                },
                {
                    "name": "D5",
                    "midi": 74,
                    "time": 11.877401999999995,
                    "velocity": 0.3858267716535433,
                    "duration": 0.3831419999999994
                },
                {
                    "name": "F4",
                    "midi": 65,
                    "time": 12.068972999999994,
                    "velocity": 0.2677165354330709,
                    "duration": 0.5747129999999991
                },
                {
                    "name": "C5",
                    "midi": 72,
                    "time": 12.260543999999994,
                    "velocity": 0.31496062992125984,
                    "duration": 0.1915709999999997
                },
                {
                    "name": "A4",
                    "midi": 69,
                    "time": 12.452114999999994,
                    "velocity": 0.29133858267716534,
                    "duration": 0.1915709999999997
                },
                {
                    "name": "D4",
                    "midi": 62,
                    "time": 12.643685999999994,
                    "velocity": 0.2677165354330709,
                    "duration": 0.5747129999999991
                },
                {
                    "name": "C5",
                    "midi": 72,
                    "time": 12.643685999999994,
                    "velocity": 0.3543307086614173,
                    "duration": 0.1915709999999997
                },
                {
                    "name": "A4",
                    "midi": 69,
                    "time": 12.835256999999993,
                    "velocity": 0.2992125984251969,
                    "duration": 0.1915709999999997
                },
                {
                    "name": "C5",
                    "midi": 72,
                    "time": 13.026827999999993,
                    "velocity": 0.2992125984251969,
                    "duration": 0.1915709999999997
                },
                {
                    "name": "B4",
                    "midi": 71,
                    "time": 13.218398999999993,
                    "velocity": 0.3543307086614173,
                    "duration": 0.1915709999999997
                },
                {
                    "name": "C4",
                    "midi": 60,
                    "time": 13.218398999999993,
                    "velocity": 0.2677165354330709,
                    "duration": 0.5747129999999991
                },
                {
                    "name": "G4",
                    "midi": 67,
                    "time": 13.409969999999992,
                    "velocity": 0.33858267716535434,
                    "duration": 0.1915709999999997
                },
                {
                    "name": "B4",
                    "midi": 71,
                    "time": 13.601540999999992,
                    "velocity": 0.2992125984251969,
                    "duration": 0.1915709999999997
                },
                {
                    "name": "B3",
                    "midi": 59,
                    "time": 13.793111999999992,
                    "velocity": 0.2677165354330709,
                    "duration": 0.5747129999999991
                },
                {
                    "name": "A4",
                    "midi": 69,
                    "time": 13.793111999999992,
                    "velocity": 0.31496062992125984,
                    "duration": 0.09578549999999986
                },
                {
                    "name": "A4",
                    "midi": 69,
                    "time": 14.176253999999991,
                    "velocity": 0.36220472440944884,
                    "duration": 0.3831419999999994
                },
                {
                    "name": "C4",
                    "midi": 60,
                    "time": 14.367824999999991,
                    "velocity": 0.2677165354330709,
                    "duration": 0.5747129999999991
                },
                {
                    "name": "G4",
                    "midi": 67,
                    "time": 14.55939599999999,
                    "velocity": 0.31496062992125984,
                    "duration": 0.1915709999999997
                },
                {
                    "name": "E4",
                    "midi": 64,
                    "time": 14.75096699999999,
                    "velocity": 0.29133858267716534,
                    "duration": 0.1915709999999997
                },
                {
                    "name": "B3",
                    "midi": 59,
                    "time": 14.94253799999999,
                    "velocity": 0.2677165354330709,
                    "duration": 0.5747129999999991
                },
                {
                    "name": "G4",
                    "midi": 67,
                    "time": 14.94253799999999,
                    "velocity": 0.3543307086614173,
                    "duration": 0.1915709999999997
                },
                {
                    "name": "D4",
                    "midi": 62,
                    "time": 15.13410899999999,
                    "velocity": 0.2992125984251969,
                    "duration": 0.1915709999999997
                },
                {
                    "name": "G4",
                    "midi": 67,
                    "time": 15.32567999999999,
                    "velocity": 0.2992125984251969,
                    "duration": 0.28735649999999957
                },
                {
                    "name": "A3",
                    "midi": 57,
                    "time": 15.51725099999999,
                    "velocity": 0.2677165354330709,
                    "duration": 0.5747130000000009
                },
                {
                    "name": "E4",
                    "midi": 64,
                    "time": 15.613036499999989,
                    "velocity": 0.2677165354330709,
                    "duration": 0.04789275000000082
                },
                {
                    "name": "F#4",
                    "midi": 66,
                    "time": 15.66092924999999,
                    "velocity": 0.2677165354330709,
                    "duration": 0.04789275000000082
                },
                {
                    "name": "E4",
                    "midi": 64,
                    "time": 15.70882199999999,
                    "velocity": 0.33858267716535434,
                    "duration": 0.1915709999999997
                },
                {
                    "name": "D4",
                    "midi": 62,
                    "time": 15.90039299999999,
                    "velocity": 0.2992125984251969,
                    "duration": 0.1915709999999997
                },
                {
                    "name": "B3",
                    "midi": 59,
                    "time": 16.09196399999999,
                    "velocity": 0.23622047244094488,
                    "duration": 0.5747129999999991
                },
                {
                    "name": "G4",
                    "midi": 67,
                    "time": 16.09196399999999,
                    "velocity": 0.31496062992125984,
                    "duration": 0.1915709999999997
                },
                {
                    "name": "D4",
                    "midi": 62,
                    "time": 16.28353499999999,
                    "velocity": 0.25984251968503935,
                    "duration": 0.1915709999999997
                },
                {
                    "name": "G4",
                    "midi": 67,
                    "time": 16.47510599999999,
                    "velocity": 0.25196850393700787,
                    "duration": 0.28735650000000135
                },
                {
                    "name": "A3",
                    "midi": 57,
                    "time": 16.66667699999999,
                    "velocity": 0.2204724409448819,
                    "duration": 0.5747129999999991
                },
                {
                    "name": "E4",
                    "midi": 64,
                    "time": 16.76246249999999,
                    "velocity": 0.2125984251968504,
                    "duration": 0.04789274999999904
                },
                {
                    "name": "F#4",
                    "midi": 66,
                    "time": 16.81035524999999,
                    "velocity": 0.2125984251968504,
                    "duration": 0.04789274999999904
                },
                {
                    "name": "E4",
                    "midi": 64,
                    "time": 16.85824799999999,
                    "velocity": 0.2677165354330709,
                    "duration": 0.1915709999999997
                },
                {
                    "name": "D4",
                    "midi": 62,
                    "time": 17.04981899999999,
                    "velocity": 0.2283464566929134,
                    "duration": 0.1915709999999997
                },
                {
                    "name": "B3",
                    "midi": 59,
                    "time": 17.24138999999999,
                    "velocity": 0.1968503937007874,
                    "duration": 0.09578550000000163
                },
                {
                    "name": "G4",
                    "midi": 67,
                    "time": 17.24138999999999,
                    "velocity": 0.23622047244094488,
                    "duration": 0.09578550000000163
                },
                {
                    "name": "B3",
                    "midi": 59,
                    "time": 17.62453199999999,
                    "velocity": 0.1889763779527559,
                    "duration": 1.1494260000000018
                },
                {
                    "name": "G4",
                    "midi": 67,
                    "time": 17.62453199999999,
                    "velocity": 0.2283464566929134,
                    "duration": 1.1494260000000018
                },
                {
                    "name": "B3",
                    "midi": 59,
                    "time": 18.773957999999993,
                    "velocity": 0.13385826771653545,
                    "duration": 0.3831419999999994
                },
                {
                    "name": "G4",
                    "midi": 67,
                    "time": 18.773957999999993,
                    "velocity": 0.15748031496062992,
                    "duration": 0.3831419999999994
                },
                {
                    "name": "G#4",
                    "midi": 68,
                    "time": 19.540241999999992,
                    "velocity": 0.5748031496062992,
                    "duration": 0.5747129999999991
                },
                {
                    "name": "B4",
                    "midi": 71,
                    "time": 19.540241999999992,
                    "velocity": 0.5905511811023622,
                    "duration": 0.5747129999999991
                },
                {
                    "name": "A4",
                    "midi": 69,
                    "time": 20.11495499999999,
                    "velocity": 0.4881889763779528,
                    "duration": 0.5747129999999991
                },
                {
                    "name": "C5",
                    "midi": 72,
                    "time": 20.11495499999999,
                    "velocity": 0.5905511811023622,
                    "duration": 0.5747129999999991
                },
                {
                    "name": "G#4",
                    "midi": 68,
                    "time": 20.68966799999999,
                    "velocity": 0.5669291338582677,
                    "duration": 0.09578550000000163
                },
                {
                    "name": "B4",
                    "midi": 71,
                    "time": 20.68966799999999,
                    "velocity": 0.5905511811023622,
                    "duration": 0.09578550000000163
                },
                {
                    "name": "G#4",
                    "midi": 68,
                    "time": 21.072809999999993,
                    "velocity": 0.3779527559055118,
                    "duration": 0.3831419999999994
                },
                {
                    "name": "B4",
                    "midi": 71,
                    "time": 21.072809999999993,
                    "velocity": 0.5905511811023622,
                    "duration": 0.3831419999999994
                },
                {
                    "name": "B4",
                    "midi": 71,
                    "time": 21.455951999999993,
                    "velocity": 0.31496062992125984,
                    "duration": 0.1915709999999997
                },
                {
                    "name": "C#5",
                    "midi": 73,
                    "time": 21.647522999999993,
                    "velocity": 0.29133858267716534,
                    "duration": 0.1915709999999997
                },
                {
                    "name": "E4",
                    "midi": 64,
                    "time": 21.839093999999992,
                    "velocity": 0.2677165354330709,
                    "duration": 0.5747129999999991
                },
                {
                    "name": "D#5",
                    "midi": 75,
                    "time": 21.839093999999992,
                    "velocity": 0.3543307086614173,
                    "duration": 0.1915709999999997
                },
                {
                    "name": "B4",
                    "midi": 71,
                    "time": 22.030664999999992,
                    "velocity": 0.2992125984251969,
                    "duration": 0.1915709999999997
                },
                {
                    "name": "D#5",
                    "midi": 75,
                    "time": 22.22223599999999,
                    "velocity": 0.2992125984251969,
                    "duration": 0.28735650000000135
                },
                {
                    "name": "D#4",
                    "midi": 63,
                    "time": 22.41380699999999,
                    "velocity": 0.2677165354330709,
                    "duration": 0.5747129999999991
                },
                {
                    "name": "C#5",
                    "midi": 73,
                    "time": 22.509592499999993,
                    "velocity": 0.2677165354330709,
                    "duration": 0.04789274999999904
                },
                {
                    "name": "D#5",
                    "midi": 75,
                    "time": 22.557485249999992,
                    "velocity": 0.2677165354330709,
                    "duration": 0.04789274999999904
                },
                {
                    "name": "C#5",
                    "midi": 73,
                    "time": 22.60537799999999,
                    "velocity": 0.33858267716535434,
                    "duration": 0.1915709999999997
                },
                {
                    "name": "A4",
                    "midi": 69,
                    "time": 22.79694899999999,
                    "velocity": 0.2992125984251969,
                    "duration": 0.1915709999999997
                },
                {
                    "name": "E4",
                    "midi": 64,
                    "time": 22.98851999999999,
                    "velocity": 0.2125984251968504,
                    "duration": 0.09578550000000163
                },
                {
                    "name": "G#4",
                    "midi": 68,
                    "time": 22.98851999999999,
                    "velocity": 0.2125984251968504,
                    "duration": 0.09578550000000163
                },
                {
                    "name": "B4",
                    "midi": 71,
                    "time": 22.98851999999999,
                    "velocity": 0.2677165354330709,
                    "duration": 0.09578550000000163
                },
                {
                    "name": "E4",
                    "midi": 64,
                    "time": 23.371661999999993,
                    "velocity": 0.25984251968503935,
                    "duration": 0.3831419999999994
                },
                {
                    "name": "G#4",
                    "midi": 68,
                    "time": 23.371661999999993,
                    "velocity": 0.25984251968503935,
                    "duration": 0.3831419999999994
                },
                {
                    "name": "B4",
                    "midi": 71,
                    "time": 23.371661999999993,
                    "velocity": 0.3228346456692913,
                    "duration": 0.3831419999999994
                },
                {
                    "name": "B4",
                    "midi": 71,
                    "time": 24.137945999999992,
                    "velocity": 0.5748031496062992,
                    "duration": 0.5747129999999991
                },
                {
                    "name": "D5",
                    "midi": 74,
                    "time": 24.137945999999992,
                    "velocity": 0.5905511811023622,
                    "duration": 0.5747129999999991
                },
                {
                    "name": "C5",
                    "midi": 72,
                    "time": 24.71265899999999,
                    "velocity": 0.4881889763779528,
                    "duration": 0.5747129999999991
                },
                {
                    "name": "D#5",
                    "midi": 75,
                    "time": 24.71265899999999,
                    "velocity": 0.5905511811023622,
                    "duration": 0.5747129999999991
                },
                {
                    "name": "B4",
                    "midi": 71,
                    "time": 25.28737199999999,
                    "velocity": 0.5669291338582677,
                    "duration": 0.09578550000000163
                },
                {
                    "name": "D5",
                    "midi": 74,
                    "time": 25.28737199999999,
                    "velocity": 0.5905511811023622,
                    "duration": 0.09578550000000163
                },
                {
                    "name": "B4",
                    "midi": 71,
                    "time": 25.670513999999994,
                    "velocity": 0.3779527559055118,
                    "duration": 0.3831419999999994
                },
                {
                    "name": "D5",
                    "midi": 74,
                    "time": 25.670513999999994,
                    "velocity": 0.5905511811023622,
                    "duration": 0.3831419999999994
                },
                {
                    "name": "D5",
                    "midi": 74,
                    "time": 26.053655999999993,
                    "velocity": 0.31496062992125984,
                    "duration": 0.1915709999999997
                },
                {
                    "name": "E5",
                    "midi": 76,
                    "time": 26.245226999999993,
                    "velocity": 0.29133858267716534,
                    "duration": 0.1915709999999997
                },
                {
                    "name": "G4",
                    "midi": 67,
                    "time": 26.436797999999992,
                    "velocity": 0.2677165354330709,
                    "duration": 0.5747129999999991
                },
                {
                    "name": "F#5",
                    "midi": 78,
                    "time": 26.436797999999992,
                    "velocity": 0.3543307086614173,
                    "duration": 0.1915709999999997
                },
                {
                    "name": "D5",
                    "midi": 74,
                    "time": 26.628368999999992,
                    "velocity": 0.2992125984251969,
                    "duration": 0.1915709999999997
                },
                {
                    "name": "F#5",
                    "midi": 78,
                    "time": 26.819939999999992,
                    "velocity": 0.2992125984251969,
                    "duration": 0.28735650000000135
                },
                {
                    "name": "F#4",
                    "midi": 66,
                    "time": 27.01151099999999,
                    "velocity": 0.2677165354330709,
                    "duration": 0.5747129999999991
                },
                {
                    "name": "E5",
                    "midi": 76,
                    "time": 27.107296499999993,
                    "velocity": 0.2677165354330709,
                    "duration": 0.04789274999999904
                },
                {
                    "name": "F#5",
                    "midi": 78,
                    "time": 27.155189249999992,
                    "velocity": 0.2677165354330709,
                    "duration": 0.04789274999999904
                },
                {
                    "name": "E5",
                    "midi": 76,
                    "time": 27.20308199999999,
                    "velocity": 0.33858267716535434,
                    "duration": 0.1915709999999997
                },
                {
                    "name": "C5",
                    "midi": 72,
                    "time": 27.39465299999999,
                    "velocity": 0.2992125984251969,
                    "duration": 0.1915709999999997
                },
                {
                    "name": "G4",
                    "midi": 67,
                    "time": 27.58622399999999,
                    "velocity": 0.2125984251968504,
                    "duration": 0.09578550000000163
                },
                {
                    "name": "B4",
                    "midi": 71,
                    "time": 27.58622399999999,
                    "velocity": 0.2125984251968504,
                    "duration": 0.09578550000000163
                },
                {
                    "name": "D5",
                    "midi": 74,
                    "time": 27.58622399999999,
                    "velocity": 0.2677165354330709,
                    "duration": 0.09578550000000163
                },
                {
                    "name": "G4",
                    "midi": 67,
                    "time": 27.969365999999994,
                    "velocity": 0.25984251968503935,
                    "duration": 0.3831419999999994
                },
                {
                    "name": "B4",
                    "midi": 71,
                    "time": 27.969365999999994,
                    "velocity": 0.25984251968503935,
                    "duration": 0.3831419999999994
                },
                {
                    "name": "D5",
                    "midi": 74,
                    "time": 27.969365999999994,
                    "velocity": 0.3228346456692913,
                    "duration": 0.3831419999999994
                },
                {
                    "name": "D5",
                    "midi": 74,
                    "time": 28.352507999999993,
                    "velocity": 0.33858267716535434,
                    "duration": 0.09578550000000163
                },
                {
                    "name": "E5",
                    "midi": 76,
                    "time": 28.448293499999995,
                    "velocity": 0.33858267716535434,
                    "duration": 0.09578550000000163
                },
                {
                    "name": "A4",
                    "midi": 69,
                    "time": 28.544078999999996,
                    "velocity": 0.23622047244094488,
                    "duration": 0.1915709999999997
                },
                {
                    "name": "C5",
                    "midi": 72,
                    "time": 28.544078999999996,
                    "velocity": 0.23622047244094488,
                    "duration": 0.1915709999999997
                },
                {
                    "name": "F#5",
                    "midi": 78,
                    "time": 28.544078999999996,
                    "velocity": 0.2992125984251969,
                    "duration": 0.1915709999999997
                },
                {
                    "name": "G4",
                    "midi": 67,
                    "time": 28.746824974999996,
                    "velocity": 0.2125984251968504,
                    "duration": 0.09578550000000163
                },
                {
                    "name": "B4",
                    "midi": 71,
                    "time": 28.746824974999996,
                    "velocity": 0.2125984251968504,
                    "duration": 0.09578550000000163
                },
                {
                    "name": "D5",
                    "midi": 74,
                    "time": 28.746824974999996,
                    "velocity": 0.2677165354330709,
                    "duration": 0.09578550000000163
                },
                {
                    "name": "G4",
                    "midi": 67,
                    "time": 29.118791999999996,
                    "velocity": 0.25984251968503935,
                    "duration": 0.3831419999999994
                },
                {
                    "name": "B4",
                    "midi": 71,
                    "time": 29.118791999999996,
                    "velocity": 0.25984251968503935,
                    "duration": 0.3831419999999994
                },
                {
                    "name": "D5",
                    "midi": 74,
                    "time": 29.118791999999996,
                    "velocity": 0.3228346456692913,
                    "duration": 0.3831419999999994
                },
                {
                    "name": "D5",
                    "midi": 74,
                    "time": 29.501933999999995,
                    "velocity": 0.33858267716535434,
                    "duration": 0.09578550000000163
                },
                {
                    "name": "E5",
                    "midi": 76,
                    "time": 29.597719499999997,
                    "velocity": 0.33858267716535434,
                    "duration": 0.09578550000000163
                },
                {
                    "name": "A4",
                    "midi": 69,
                    "time": 29.693505,
                    "velocity": 0.23622047244094488,
                    "duration": 0.1915709999999997
                },
                {
                    "name": "C5",
                    "midi": 72,
                    "time": 29.693505,
                    "velocity": 0.23622047244094488,
                    "duration": 0.1915709999999997
                },
                {
                    "name": "F5",
                    "midi": 77,
                    "time": 29.693505,
                    "velocity": 0.2992125984251969,
                    "duration": 0.1915709999999997
                },
                {
                    "name": "D5",
                    "midi": 74,
                    "time": 30.076646999999998,
                    "velocity": 0.33858267716535434,
                    "duration": 0.09578550000000163
                },
                {
                    "name": "E5",
                    "midi": 76,
                    "time": 30.1724325,
                    "velocity": 0.33858267716535434,
                    "duration": 0.09578550000000163
                },
                {
                    "name": "A4",
                    "midi": 69,
                    "time": 30.268218,
                    "velocity": 0.23622047244094488,
                    "duration": 0.09578550000000163
                },
                {
                    "name": "C5",
                    "midi": 72,
                    "time": 30.268218,
                    "velocity": 0.23622047244094488,
                    "duration": 0.09578550000000163
                },
                {
                    "name": "F#5",
                    "midi": 78,
                    "time": 30.268218,
                    "velocity": 0.2992125984251969,
                    "duration": 0.09578550000000163
                },
                {
                    "name": "D5",
                    "midi": 74,
                    "time": 30.651360000000004,
                    "velocity": 0.33858267716535434,
                    "duration": 0.09578550000000163
                },
                {
                    "name": "E5",
                    "midi": 76,
                    "time": 30.747145500000006,
                    "velocity": 0.33858267716535434,
                    "duration": 0.09578550000000163
                },
                {
                    "name": "A4",
                    "midi": 69,
                    "time": 30.842931000000007,
                    "velocity": 0.23622047244094488,
                    "duration": 0.09578550000000163
                },
                {
                    "name": "C5",
                    "midi": 72,
                    "time": 30.842931000000007,
                    "velocity": 0.23622047244094488,
                    "duration": 0.09578550000000163
                },
                {
                    "name": "F5",
                    "midi": 77,
                    "time": 30.842931000000007,
                    "velocity": 0.2992125984251969,
                    "duration": 0.09578550000000163
                },
                {
                    "name": "D5",
                    "midi": 74,
                    "time": 31.22607300000001,
                    "velocity": 0.33858267716535434,
                    "duration": 0.09578550000000163
                },
                {
                    "name": "E5",
                    "midi": 76,
                    "time": 31.321858500000012,
                    "velocity": 0.33858267716535434,
                    "duration": 0.09578550000000163
                },
                {
                    "name": "A4",
                    "midi": 69,
                    "time": 31.417644000000013,
                    "velocity": 0.23622047244094488,
                    "duration": 0.09578550000000163
                },
                {
                    "name": "C5",
                    "midi": 72,
                    "time": 31.417644000000013,
                    "velocity": 0.23622047244094488,
                    "duration": 0.09578550000000163
                },
                {
                    "name": "F#5",
                    "midi": 78,
                    "time": 31.417644000000013,
                    "velocity": 0.2992125984251969,
                    "duration": 0.09578550000000163
                },
                {
                    "name": "D5",
                    "midi": 74,
                    "time": 31.800786000000016,
                    "velocity": 0.33858267716535434,
                    "duration": 0.09578550000000163
                },
                {
                    "name": "E5",
                    "midi": 76,
                    "time": 31.896571500000018,
                    "velocity": 0.33858267716535434,
                    "duration": 0.09578550000000163
                },
                {
                    "name": "A4",
                    "midi": 69,
                    "time": 31.99235700000002,
                    "velocity": 0.23622047244094488,
                    "duration": 0.09578549999999808
                },
                {
                    "name": "C5",
                    "midi": 72,
                    "time": 31.99235700000002,
                    "velocity": 0.23622047244094488,
                    "duration": 0.09578549999999808
                },
                {
                    "name": "F5",
                    "midi": 77,
                    "time": 31.99235700000002,
                    "velocity": 0.2992125984251969,
                    "duration": 0.09578549999999808
                },
                {
                    "name": "F5",
                    "midi": 77,
                    "time": 32.37549900000002,
                    "velocity": 0.33858267716535434,
                    "duration": 0.09578549999999808
                },
                {
                    "name": "G5",
                    "midi": 79,
                    "time": 32.47128450000002,
                    "velocity": 0.33858267716535434,
                    "duration": 0.09578549999999808
                },
                {
                    "name": "C5",
                    "midi": 72,
                    "time": 32.567070000000015,
                    "velocity": 0.23622047244094488,
                    "duration": 0.09578549999999808
                },
                {
                    "name": "D5",
                    "midi": 74,
                    "time": 32.567070000000015,
                    "velocity": 0.23622047244094488,
                    "duration": 0.09578549999999808
                },
                {
                    "name": "A5",
                    "midi": 81,
                    "time": 32.567070000000015,
                    "velocity": 0.2992125984251969,
                    "duration": 0.09578549999999808
                },
                {
                    "name": "F5",
                    "midi": 77,
                    "time": 32.950212000000015,
                    "velocity": 0.33858267716535434,
                    "duration": 0.09578549999999808
                },
                {
                    "name": "G5",
                    "midi": 79,
                    "time": 33.04599750000001,
                    "velocity": 0.33858267716535434,
                    "duration": 0.09578549999999808
                },
                {
                    "name": "B4",
                    "midi": 71,
                    "time": 33.14178300000001,
                    "velocity": 0.23622047244094488,
                    "duration": 0.09578549999999808
                },
                {
                    "name": "D5",
                    "midi": 74,
                    "time": 33.14178300000001,
                    "velocity": 0.23622047244094488,
                    "duration": 0.09578549999999808
                },
                {
                    "name": "A5",
                    "midi": 81,
                    "time": 33.14178300000001,
                    "velocity": 0.2992125984251969,
                    "duration": 0.09578549999999808
                },
                {
                    "name": "E5",
                    "midi": 76,
                    "time": 33.52492500000001,
                    "velocity": 0.33858267716535434,
                    "duration": 0.09578549999999808
                },
                {
                    "name": "F5",
                    "midi": 77,
                    "time": 33.62071050000001,
                    "velocity": 0.33858267716535434,
                    "duration": 0.09578549999999808
                },
                {
                    "name": "B4",
                    "midi": 71,
                    "time": 33.71649600000001,
                    "velocity": 0.23622047244094488,
                    "duration": 0.09578549999999808
                },
                {
                    "name": "C5",
                    "midi": 72,
                    "time": 33.71649600000001,
                    "velocity": 0.23622047244094488,
                    "duration": 0.09578549999999808
                },
                {
                    "name": "G5",
                    "midi": 79,
                    "time": 33.71649600000001,
                    "velocity": 0.2992125984251969,
                    "duration": 0.09578549999999808
                },
                {
                    "name": "E5",
                    "midi": 76,
                    "time": 34.099638000000006,
                    "velocity": 0.33858267716535434,
                    "duration": 0.09578549999999808
                },
                {
                    "name": "F5",
                    "midi": 77,
                    "time": 34.195423500000004,
                    "velocity": 0.33858267716535434,
                    "duration": 0.09578549999999808
                },
                {
                    "name": "B4",
                    "midi": 71,
                    "time": 34.291209,
                    "velocity": 0.2283464566929134,
                    "duration": 0.09578549999999808
                },
                {
                    "name": "C5",
                    "midi": 72,
                    "time": 34.291209,
                    "velocity": 0.2283464566929134,
                    "duration": 0.09578549999999808
                },
                {
                    "name": "G5",
                    "midi": 79,
                    "time": 34.291209,
                    "velocity": 0.29133858267716534,
                    "duration": 0.09578549999999808
                },
                {
                    "name": "E5",
                    "midi": 76,
                    "time": 34.674351,
                    "velocity": 0.3228346456692913,
                    "duration": 0.09578549999999808
                },
                {
                    "name": "F5",
                    "midi": 77,
                    "time": 34.7701365,
                    "velocity": 0.3228346456692913,
                    "duration": 0.09578549999999808
                },
                {
                    "name": "A4",
                    "midi": 69,
                    "time": 34.865922,
                    "velocity": 0.2204724409448819,
                    "duration": 0.09578549999999808
                },
                {
                    "name": "C5",
                    "midi": 72,
                    "time": 34.865922,
                    "velocity": 0.2204724409448819,
                    "duration": 0.09578549999999808
                },
                {
                    "name": "G5",
                    "midi": 79,
                    "time": 34.865922,
                    "velocity": 0.28346456692913385,
                    "duration": 0.09578549999999808
                },
                {
                    "name": "E5",
                    "midi": 76,
                    "time": 35.249064,
                    "velocity": 0.30708661417322836,
                    "duration": 0.09578549999999808
                },
                {
                    "name": "F5",
                    "midi": 77,
                    "time": 35.344849499999995,
                    "velocity": 0.30708661417322836,
                    "duration": 0.09578549999999808
                },
                {
                    "name": "A4",
                    "midi": 69,
                    "time": 35.44063499999999,
                    "velocity": 0.2125984251968504,
                    "duration": 0.09578549999999808
                },
                {
                    "name": "C5",
                    "midi": 72,
                    "time": 35.44063499999999,
                    "velocity": 0.2125984251968504,
                    "duration": 0.09578549999999808
                },
                {
                    "name": "G5",
                    "midi": 79,
                    "time": 35.44063499999999,
                    "velocity": 0.2677165354330709,
                    "duration": 0.09578549999999808
                },
                {
                    "name": "D5",
                    "midi": 74,
                    "time": 35.82377699999999,
                    "velocity": 0.29133858267716534,
                    "duration": 0.09578549999999808
                },
                {
                    "name": "E5",
                    "midi": 76,
                    "time": 35.91956249999999,
                    "velocity": 0.29133858267716534,
                    "duration": 0.09578549999999808
                },
                {
                    "name": "A4",
                    "midi": 69,
                    "time": 36.01534799999999,
                    "velocity": 0.2047244094488189,
                    "duration": 0.09578549999999808
                },
                {
                    "name": "B4",
                    "midi": 71,
                    "time": 36.01534799999999,
                    "velocity": 0.2047244094488189,
                    "duration": 0.09578549999999808
                },
                {
                    "name": "F5",
                    "midi": 77,
                    "time": 36.01534799999999,
                    "velocity": 0.25984251968503935,
                    "duration": 0.09578549999999808
                },
                {
                    "name": "D5",
                    "midi": 74,
                    "time": 36.39848999999999,
                    "velocity": 0.28346456692913385,
                    "duration": 0.09578549999999808
                },
                {
                    "name": "E5",
                    "midi": 76,
                    "time": 36.494275499999986,
                    "velocity": 0.28346456692913385,
                    "duration": 0.09578549999999808
                },
                {
                    "name": "A4",
                    "midi": 69,
                    "time": 36.590060999999984,
                    "velocity": 0.1889763779527559,
                    "duration": 0.09578549999999808
                },
                {
                    "name": "B4",
                    "midi": 71,
                    "time": 36.590060999999984,
                    "velocity": 0.1889763779527559,
                    "duration": 0.09578549999999808
                },
                {
                    "name": "F5",
                    "midi": 77,
                    "time": 36.590060999999984,
                    "velocity": 0.2440944881889764,
                    "duration": 0.09578549999999808
                },
                {
                    "name": "D5",
                    "midi": 74,
                    "time": 36.973202999999984,
                    "velocity": 0.2677165354330709,
                    "duration": 0.09578549999999808
                },
                {
                    "name": "E5",
                    "midi": 76,
                    "time": 37.06898849999998,
                    "velocity": 0.2677165354330709,
                    "duration": 0.09578549999999808
                },
                {
                    "name": "G4",
                    "midi": 67,
                    "time": 37.16477399999998,
                    "velocity": 0.18110236220472442,
                    "duration": 0.09578549999999808
                },
                {
                    "name": "B4",
                    "midi": 71,
                    "time": 37.16477399999998,
                    "velocity": 0.18110236220472442,
                    "duration": 0.09578549999999808
                },
                {
                    "name": "F5",
                    "midi": 77,
                    "time": 37.16477399999998,
                    "velocity": 0.23622047244094488,
                    "duration": 0.09578549999999808
                },
                {
                    "name": "D5",
                    "midi": 74,
                    "time": 37.54791599999998,
                    "velocity": 0.25196850393700787,
                    "duration": 0.09578549999999808
                },
                {
                    "name": "E5",
                    "midi": 76,
                    "time": 37.64370149999998,
                    "velocity": 0.25196850393700787,
                    "duration": 0.09578549999999808
                },
                {
                    "name": "G4",
                    "midi": 67,
                    "time": 37.739486999999976,
                    "velocity": 0.1732283464566929,
                    "duration": 0.09578549999999808
                },
                {
                    "name": "B4",
                    "midi": 71,
                    "time": 37.739486999999976,
                    "velocity": 0.1732283464566929,
                    "duration": 0.09578549999999808
                },
                {
                    "name": "F5",
                    "midi": 77,
                    "time": 37.739486999999976,
                    "velocity": 0.2204724409448819,
                    "duration": 0.09578549999999808
                },
                {
                    "name": "C5",
                    "midi": 72,
                    "time": 38.122628999999975,
                    "velocity": 0.23622047244094488,
                    "duration": 0.09578549999999808
                },
                {
                    "name": "D5",
                    "midi": 74,
                    "time": 38.21841449999997,
                    "velocity": 0.23622047244094488,
                    "duration": 0.09578549999999808
                },
                {
                    "name": "G4",
                    "midi": 67,
                    "time": 38.31419999999997,
                    "velocity": 0.16535433070866143,
                    "duration": 0.09578549999999808
                },
                {
                    "name": "A4",
                    "midi": 69,
                    "time": 38.31419999999997,
                    "velocity": 0.16535433070866143,
                    "duration": 0.09578549999999808
                },
                {
                    "name": "E5",
                    "midi": 76,
                    "time": 38.31419999999997,
                    "velocity": 0.2047244094488189,
                    "duration": 0.09578549999999808
                },
                {
                    "name": "C5",
                    "midi": 72,
                    "time": 38.69734199999997,
                    "velocity": 0.2283464566929134,
                    "duration": 0.09578549999999808
                },
                {
                    "name": "D5",
                    "midi": 74,
                    "time": 38.79312749999997,
                    "velocity": 0.2283464566929134,
                    "duration": 0.09578549999999808
                },
                {
                    "name": "G4",
                    "midi": 67,
                    "time": 38.88891299999997,
                    "velocity": 0.15748031496062992,
                    "duration": 0.09578549999999808
                },
                {
                    "name": "A4",
                    "midi": 69,
                    "time": 38.88891299999997,
                    "velocity": 0.15748031496062992,
                    "duration": 0.09578549999999808
                },
                {
                    "name": "E5",
                    "midi": 76,
                    "time": 38.88891299999997,
                    "velocity": 0.1968503937007874,
                    "duration": 0.09578549999999808
                },
                {
                    "name": "C5",
                    "midi": 72,
                    "time": 39.272054999999966,
                    "velocity": 0.2125984251968504,
                    "duration": 0.09578549999999808
                },
                {
                    "name": "D5",
                    "midi": 74,
                    "time": 39.367840499999964,
                    "velocity": 0.2125984251968504,
                    "duration": 0.09578549999999808
                },
                {
                    "name": "F4",
                    "midi": 65,
                    "time": 39.46362599999996,
                    "velocity": 0.14960629921259844,
                    "duration": 0.09578549999999808
                },
                {
                    "name": "A4",
                    "midi": 69,
                    "time": 39.46362599999996,
                    "velocity": 0.14960629921259844,
                    "duration": 0.09578549999999808
                },
                {
                    "name": "E5",
                    "midi": 76,
                    "time": 39.46362599999996,
                    "velocity": 0.1889763779527559,
                    "duration": 0.09578549999999808
                },
                {
                    "name": "B4",
                    "midi": 71,
                    "time": 41.57090699999996,
                    "velocity": 0.2125984251968504,
                    "duration": 0.09578549999999808
                },
                {
                    "name": "C5",
                    "midi": 72,
                    "time": 41.66669249999996,
                    "velocity": 0.2125984251968504,
                    "duration": 0.09578549999999808
                },
                {
                    "name": "F4",
                    "midi": 65,
                    "time": 41.76247799999996,
                    "velocity": 0.14960629921259844,
                    "duration": 0.09578549999999808
                },
                {
                    "name": "A4",
                    "midi": 69,
                    "time": 41.76247799999996,
                    "velocity": 0.14960629921259844,
                    "duration": 0.09578549999999808
                },
                {
                    "name": "D5",
                    "midi": 74,
                    "time": 41.76247799999996,
                    "velocity": 0.1889763779527559,
                    "duration": 0.09578549999999808
                },
                {
                    "name": "G4",
                    "midi": 67,
                    "time": 44.827613999999954,
                    "velocity": 0.11023622047244094,
                    "duration": 0.19157100000000327
                },
                {
                    "name": "D5",
                    "midi": 74,
                    "time": 44.827613999999954,
                    "velocity": 0.12598425196850394,
                    "duration": 0.19157100000000327
                },
                {
                    "name": "C6",
                    "midi": 84,
                    "time": 45.59389799999996,
                    "velocity": 0.25196850393700787,
                    "duration": 0.19157100000000327
                },
                {
                    "name": "D6",
                    "midi": 86,
                    "time": 45.785468999999964,
                    "velocity": 0.2283464566929134,
                    "duration": 0.19157100000000327
                },
                {
                    "name": "E6",
                    "midi": 88,
                    "time": 45.97703999999997,
                    "velocity": 0.28346456692913385,
                    "duration": 0.19157100000000327
                },
                {
                    "name": "C6",
                    "midi": 84,
                    "time": 46.16861099999997,
                    "velocity": 0.23622047244094488,
                    "duration": 0.19157100000000327
                },
                {
                    "name": "E6",
                    "midi": 88,
                    "time": 46.36018199999997,
                    "velocity": 0.23622047244094488,
                    "duration": 0.28735650000000135
                },
                {
                    "name": "D6",
                    "midi": 86,
                    "time": 46.647538499999975,
                    "velocity": 0.2125984251968504,
                    "duration": 0.04789275000000259
                },
                {
                    "name": "E6",
                    "midi": 88,
                    "time": 46.69543124999998,
                    "velocity": 0.2125984251968504,
                    "duration": 0.04789275000000259
                },
                {
                    "name": "D6",
                    "midi": 86,
                    "time": 46.74332399999998,
                    "velocity": 0.2677165354330709,
                    "duration": 0.19157100000000327
                },
                {
                    "name": "C6",
                    "midi": 84,
                    "time": 46.93489499999998,
                    "velocity": 0.23622047244094488,
                    "duration": 0.19157100000000327
                },
                {
                    "name": "E6",
                    "midi": 88,
                    "time": 47.126465999999986,
                    "velocity": 0.25196850393700787,
                    "duration": 0.09578549999999808
                },
                {
                    "name": "E6",
                    "midi": 88,
                    "time": 47.509607999999986,
                    "velocity": 0.30708661417322836,
                    "duration": 0.3831419999999994
                },
                {
                    "name": "C6",
                    "midi": 84,
                    "time": 47.892749999999985,
                    "velocity": 0.25196850393700787,
                    "duration": 0.19157100000000327
                },
                {
                    "name": "D6",
                    "midi": 86,
                    "time": 48.08432099999999,
                    "velocity": 0.2283464566929134,
                    "duration": 0.19157100000000327
                },
                {
                    "name": "E6",
                    "midi": 88,
                    "time": 48.27589199999999,
                    "velocity": 0.28346456692913385,
                    "duration": 0.19157100000000327
                },
                {
                    "name": "C6",
                    "midi": 84,
                    "time": 48.467462999999995,
                    "velocity": 0.23622047244094488,
                    "duration": 0.19157100000000327
                },
                {
                    "name": "E6",
                    "midi": 88,
                    "time": 48.659034,
                    "velocity": 0.23622047244094488,
                    "duration": 0.28735650000000135
                },
                {
                    "name": "D6",
                    "midi": 86,
                    "time": 48.9463905,
                    "velocity": 0.2125984251968504,
                    "duration": 0.04789275000000259
                },
                {
                    "name": "E6",
                    "midi": 88,
                    "time": 48.99428325,
                    "velocity": 0.2125984251968504,
                    "duration": 0.04789275000000259
                },
                {
                    "name": "D6",
                    "midi": 86,
                    "time": 49.042176000000005,
                    "velocity": 0.2677165354330709,
                    "duration": 0.19157100000000327
                },
                {
                    "name": "C6",
                    "midi": 84,
                    "time": 49.23374700000001,
                    "velocity": 0.23622047244094488,
                    "duration": 0.19157100000000327
                },
                {
                    "name": "E6",
                    "midi": 88,
                    "time": 49.42531800000001,
                    "velocity": 0.25196850393700787,
                    "duration": 0.09578549999999808
                },
                {
                    "name": "E6",
                    "midi": 88,
                    "time": 49.80846000000001,
                    "velocity": 0.30708661417322836,
                    "duration": 0.3831419999999994
                },
                {
                    "name": "C7",
                    "midi": 96,
                    "time": 50.57474400000001,
                    "velocity": 0.2204724409448819,
                    "duration": 0.19157100000000327
                },
                {
                    "name": "A6",
                    "midi": 93,
                    "time": 50.57474400000001,
                    "velocity": 0.1889763779527559,
                    "duration": 0.19157100000000327
                },
                {
                    "name": "F6",
                    "midi": 89,
                    "time": 50.57474400000001,
                    "velocity": 0.1889763779527559,
                    "duration": 0.19157100000000327
                },
                {
                    "name": "F6",
                    "midi": 89,
                    "time": 51.14945700000001,
                    "velocity": 0.1889763779527559,
                    "duration": 0.19157100000000327
                },
                {
                    "name": "B6",
                    "midi": 95,
                    "time": 51.14945700000001,
                    "velocity": 0.2204724409448819,
                    "duration": 0.19157100000000327
                },
                {
                    "name": "G6",
                    "midi": 91,
                    "time": 51.14945700000001,
                    "velocity": 0.1889763779527559,
                    "duration": 0.19157100000000327
                },
                {
                    "name": "B6",
                    "midi": 95,
                    "time": 51.724170000000015,
                    "velocity": 0.2204724409448819,
                    "duration": 0.19157100000000327
                },
                {
                    "name": "G6",
                    "midi": 91,
                    "time": 51.724170000000015,
                    "velocity": 0.1889763779527559,
                    "duration": 0.19157100000000327
                },
                {
                    "name": "E6",
                    "midi": 88,
                    "time": 51.724170000000015,
                    "velocity": 0.1889763779527559,
                    "duration": 0.19157100000000327
                },
                {
                    "name": "A6",
                    "midi": 93,
                    "time": 52.29888300000002,
                    "velocity": 0.2204724409448819,
                    "duration": 0.19157100000000327
                },
                {
                    "name": "F6",
                    "midi": 89,
                    "time": 52.29888300000002,
                    "velocity": 0.1889763779527559,
                    "duration": 0.19157100000000327
                },
                {
                    "name": "E6",
                    "midi": 88,
                    "time": 52.29888300000002,
                    "velocity": 0.1889763779527559,
                    "duration": 0.19157100000000327
                },
                {
                    "name": "A6",
                    "midi": 93,
                    "time": 52.87359600000002,
                    "velocity": 0.2204724409448819,
                    "duration": 0.19157100000000327
                },
                {
                    "name": "F6",
                    "midi": 89,
                    "time": 52.87359600000002,
                    "velocity": 0.1889763779527559,
                    "duration": 0.19157100000000327
                },
                {
                    "name": "D6",
                    "midi": 86,
                    "time": 52.87359600000002,
                    "velocity": 0.1889763779527559,
                    "duration": 0.19157100000000327
                },
                {
                    "name": "D6",
                    "midi": 86,
                    "time": 53.44830900000002,
                    "velocity": 0.1889763779527559,
                    "duration": 0.19157100000000327
                },
                {
                    "name": "G6",
                    "midi": 91,
                    "time": 53.44830900000002,
                    "velocity": 0.2204724409448819,
                    "duration": 0.19157100000000327
                },
                {
                    "name": "E6",
                    "midi": 88,
                    "time": 53.44830900000002,
                    "velocity": 0.1889763779527559,
                    "duration": 0.19157100000000327
                },
                {
                    "name": "G6",
                    "midi": 91,
                    "time": 54.023022000000026,
                    "velocity": 0.2204724409448819,
                    "duration": 0.19157100000000327
                },
                {
                    "name": "E6",
                    "midi": 88,
                    "time": 54.023022000000026,
                    "velocity": 0.1889763779527559,
                    "duration": 0.19157100000000327
                },
                {
                    "name": "C6",
                    "midi": 84,
                    "time": 54.023022000000026,
                    "velocity": 0.1889763779527559,
                    "duration": 0.19157100000000327
                },
                {
                    "name": "F6",
                    "midi": 89,
                    "time": 54.59773500000003,
                    "velocity": 0.2204724409448819,
                    "duration": 0.19157100000000327
                },
                {
                    "name": "D6",
                    "midi": 86,
                    "time": 54.59773500000003,
                    "velocity": 0.1889763779527559,
                    "duration": 0.19157100000000327
                },
                {
                    "name": "C6",
                    "midi": 84,
                    "time": 54.59773500000003,
                    "velocity": 0.1889763779527559,
                    "duration": 0.19157100000000327
                },
                {
                    "name": "F6",
                    "midi": 89,
                    "time": 55.17244800000003,
                    "velocity": 0.2204724409448819,
                    "duration": 0.19157100000000327
                },
                {
                    "name": "D6",
                    "midi": 86,
                    "time": 55.17244800000003,
                    "velocity": 0.1889763779527559,
                    "duration": 0.19157100000000327
                },
                {
                    "name": "B5",
                    "midi": 83,
                    "time": 55.17244800000003,
                    "velocity": 0.1889763779527559,
                    "duration": 0.19157100000000327
                },
                {
                    "name": "B5",
                    "midi": 83,
                    "time": 55.747161000000034,
                    "velocity": 0.1889763779527559,
                    "duration": 0.19157100000000327
                },
                {
                    "name": "E6",
                    "midi": 88,
                    "time": 55.747161000000034,
                    "velocity": 0.2204724409448819,
                    "duration": 0.19157100000000327
                },
                {
                    "name": "C6",
                    "midi": 84,
                    "time": 55.747161000000034,
                    "velocity": 0.1889763779527559,
                    "duration": 0.19157100000000327
                },
                {
                    "name": "E6",
                    "midi": 88,
                    "time": 56.32187400000004,
                    "velocity": 0.2204724409448819,
                    "duration": 0.19157100000000327
                },
                {
                    "name": "C6",
                    "midi": 84,
                    "time": 56.32187400000004,
                    "velocity": 0.1889763779527559,
                    "duration": 0.19157100000000327
                },
                {
                    "name": "A5",
                    "midi": 81,
                    "time": 56.32187400000004,
                    "velocity": 0.1889763779527559,
                    "duration": 0.19157100000000327
                },
                {
                    "name": "A5",
                    "midi": 81,
                    "time": 56.89658700000004,
                    "velocity": 0.1889763779527559,
                    "duration": 0.19157100000000327
                },
                {
                    "name": "D6",
                    "midi": 86,
                    "time": 56.89658700000004,
                    "velocity": 0.2204724409448819,
                    "duration": 0.19157100000000327
                },
                {
                    "name": "B5",
                    "midi": 83,
                    "time": 56.89658700000004,
                    "velocity": 0.1889763779527559,
                    "duration": 0.19157100000000327
                },
                {
                    "name": "D6",
                    "midi": 86,
                    "time": 57.47130000000004,
                    "velocity": 0.2204724409448819,
                    "duration": 0.19157100000000327
                },
                {
                    "name": "B5",
                    "midi": 83,
                    "time": 57.47130000000004,
                    "velocity": 0.1889763779527559,
                    "duration": 0.19157100000000327
                },
                {
                    "name": "G5",
                    "midi": 79,
                    "time": 57.47130000000004,
                    "velocity": 0.1889763779527559,
                    "duration": 0.19157100000000327
                },
                {
                    "name": "G5",
                    "midi": 79,
                    "time": 58.046013000000045,
                    "velocity": 0.1889763779527559,
                    "duration": 0.19157100000000327
                },
                {
                    "name": "C6",
                    "midi": 84,
                    "time": 58.046013000000045,
                    "velocity": 0.2204724409448819,
                    "duration": 0.19157100000000327
                },
                {
                    "name": "A5",
                    "midi": 81,
                    "time": 58.046013000000045,
                    "velocity": 0.1889763779527559,
                    "duration": 0.19157100000000327
                },
                {
                    "name": "C6",
                    "midi": 84,
                    "time": 58.62072600000005,
                    "velocity": 0.2204724409448819,
                    "duration": 0.19157100000000327
                },
                {
                    "name": "A5",
                    "midi": 81,
                    "time": 58.62072600000005,
                    "velocity": 0.1889763779527559,
                    "duration": 0.19157100000000327
                },
                {
                    "name": "F5",
                    "midi": 77,
                    "time": 58.62072600000005,
                    "velocity": 0.1889763779527559,
                    "duration": 0.19157100000000327
                },
                {
                    "name": "F5",
                    "midi": 77,
                    "time": 59.19543900000005,
                    "velocity": 0.1889763779527559,
                    "duration": 0.19157100000000327
                },
                {
                    "name": "B5",
                    "midi": 83,
                    "time": 59.19543900000005,
                    "velocity": 0.2204724409448819,
                    "duration": 0.19157100000000327
                },
                {
                    "name": "G5",
                    "midi": 79,
                    "time": 59.19543900000005,
                    "velocity": 0.1889763779527559,
                    "duration": 0.19157100000000327
                },
                {
                    "name": "C6",
                    "midi": 84,
                    "time": 59.77015200000005,
                    "velocity": 0.2283464566929134,
                    "duration": 0.19157100000000327
                },
                {
                    "name": "A5",
                    "midi": 81,
                    "time": 59.77015200000005,
                    "velocity": 0.1968503937007874,
                    "duration": 0.19157100000000327
                },
                {
                    "name": "F5",
                    "midi": 77,
                    "time": 59.77015200000005,
                    "velocity": 0.1968503937007874,
                    "duration": 0.19157100000000327
                },
                {
                    "name": "F5",
                    "midi": 77,
                    "time": 60.344865000000055,
                    "velocity": 0.1968503937007874,
                    "duration": 0.19157100000000327
                },
                {
                    "name": "B5",
                    "midi": 83,
                    "time": 60.344865000000055,
                    "velocity": 0.23622047244094488,
                    "duration": 0.19157100000000327
                },
                {
                    "name": "G5",
                    "midi": 79,
                    "time": 60.344865000000055,
                    "velocity": 0.1968503937007874,
                    "duration": 0.19157100000000327
                },
                {
                    "name": "B5",
                    "midi": 83,
                    "time": 60.91957800000006,
                    "velocity": 0.23622047244094488,
                    "duration": 0.19157100000000327
                },
                {
                    "name": "G5",
                    "midi": 79,
                    "time": 60.91957800000006,
                    "velocity": 0.1968503937007874,
                    "duration": 0.19157100000000327
                },
                {
                    "name": "E5",
                    "midi": 76,
                    "time": 60.91957800000006,
                    "velocity": 0.1968503937007874,
                    "duration": 0.19157100000000327
                },
                {
                    "name": "E5",
                    "midi": 76,
                    "time": 61.49429100000006,
                    "velocity": 0.2047244094488189,
                    "duration": 0.19157100000000327
                },
                {
                    "name": "A5",
                    "midi": 81,
                    "time": 61.49429100000006,
                    "velocity": 0.2440944881889764,
                    "duration": 0.19157100000000327
                },
                {
                    "name": "F5",
                    "midi": 77,
                    "time": 61.49429100000006,
                    "velocity": 0.2047244094488189,
                    "duration": 0.19157100000000327
                },
                {
                    "name": "A5",
                    "midi": 81,
                    "time": 62.069004000000064,
                    "velocity": 0.2440944881889764,
                    "duration": 0.19157100000000327
                },
                {
                    "name": "F5",
                    "midi": 77,
                    "time": 62.069004000000064,
                    "velocity": 0.2125984251968504,
                    "duration": 0.19157100000000327
                },
                {
                    "name": "D5",
                    "midi": 74,
                    "time": 62.069004000000064,
                    "velocity": 0.2125984251968504,
                    "duration": 0.19157100000000327
                },
                {
                    "name": "D5",
                    "midi": 74,
                    "time": 62.643717000000066,
                    "velocity": 0.2204724409448819,
                    "duration": 0.19157100000000327
                },
                {
                    "name": "G5",
                    "midi": 79,
                    "time": 62.643717000000066,
                    "velocity": 0.25984251968503935,
                    "duration": 0.19157100000000327
                },
                {
                    "name": "E5",
                    "midi": 76,
                    "time": 62.643717000000066,
                    "velocity": 0.2204724409448819,
                    "duration": 0.19157100000000327
                },
                {
                    "name": "G5",
                    "midi": 79,
                    "time": 63.21843000000007,
                    "velocity": 0.25984251968503935,
                    "duration": 0.19157100000000327
                },
                {
                    "name": "E5",
                    "midi": 76,
                    "time": 63.21843000000007,
                    "velocity": 0.2204724409448819,
                    "duration": 0.19157100000000327
                },
                {
                    "name": "C5",
                    "midi": 72,
                    "time": 63.21843000000007,
                    "velocity": 0.2204724409448819,
                    "duration": 0.19157100000000327
                },
                {
                    "name": "C5",
                    "midi": 72,
                    "time": 63.79314300000007,
                    "velocity": 0.2204724409448819,
                    "duration": 0.19157100000000327
                },
                {
                    "name": "F5",
                    "midi": 77,
                    "time": 63.79314300000007,
                    "velocity": 0.2677165354330709,
                    "duration": 0.19157100000000327
                },
                {
                    "name": "D5",
                    "midi": 74,
                    "time": 63.79314300000007,
                    "velocity": 0.2204724409448819,
                    "duration": 0.19157100000000327
                },
                {
                    "name": "F5",
                    "midi": 77,
                    "time": 64.36785600000007,
                    "velocity": 0.2755905511811024,
                    "duration": 0.19157099999999616
                },
                {
                    "name": "D5",
                    "midi": 74,
                    "time": 64.36785600000007,
                    "velocity": 0.23622047244094488,
                    "duration": 0.19157099999999616
                },
                {
                    "name": "B4",
                    "midi": 71,
                    "time": 64.36785600000007,
                    "velocity": 0.23622047244094488,
                    "duration": 0.19157099999999616
                },
                {
                    "name": "B4",
                    "midi": 71,
                    "time": 64.94256900000008,
                    "velocity": 0.23622047244094488,
                    "duration": 0.19157099999999616
                },
                {
                    "name": "E5",
                    "midi": 76,
                    "time": 64.94256900000008,
                    "velocity": 0.28346456692913385,
                    "duration": 0.19157099999999616
                },
                {
                    "name": "C5",
                    "midi": 72,
                    "time": 64.94256900000008,
                    "velocity": 0.23622047244094488,
                    "duration": 0.19157099999999616
                },
                {
                    "name": "E5",
                    "midi": 76,
                    "time": 65.51728200000008,
                    "velocity": 0.29133858267716534,
                    "duration": 0.19157099999999616
                },
                {
                    "name": "C5",
                    "midi": 72,
                    "time": 65.51728200000008,
                    "velocity": 0.2440944881889764,
                    "duration": 0.19157099999999616
                },
                {
                    "name": "A4",
                    "midi": 69,
                    "time": 65.51728200000008,
                    "velocity": 0.2440944881889764,
                    "duration": 0.19157099999999616
                },
                {
                    "name": "A4",
                    "midi": 69,
                    "time": 66.09199500000008,
                    "velocity": 0.25984251968503935,
                    "duration": 0.19157099999999616
                },
                {
                    "name": "D5",
                    "midi": 74,
                    "time": 66.09199500000008,
                    "velocity": 0.31496062992125984,
                    "duration": 0.19157099999999616
                },
                {
                    "name": "B4",
                    "midi": 71,
                    "time": 66.09199500000008,
                    "velocity": 0.25984251968503935,
                    "duration": 0.19157099999999616
                },
                {
                    "name": "E5",
                    "midi": 76,
                    "time": 66.66670800000009,
                    "velocity": 0.3228346456692913,
                    "duration": 0.19157099999999616
                },
                {
                    "name": "C5",
                    "midi": 72,
                    "time": 66.66670800000009,
                    "velocity": 0.2755905511811024,
                    "duration": 0.19157099999999616
                },
                {
                    "name": "A4",
                    "midi": 69,
                    "time": 66.66670800000009,
                    "velocity": 0.2755905511811024,
                    "duration": 0.19157099999999616
                },
                {
                    "name": "A4",
                    "midi": 69,
                    "time": 67.24142100000009,
                    "velocity": 0.29133858267716534,
                    "duration": 0.19157099999999616
                },
                {
                    "name": "D5",
                    "midi": 74,
                    "time": 67.24142100000009,
                    "velocity": 0.3464566929133858,
                    "duration": 0.19157099999999616
                },
                {
                    "name": "B4",
                    "midi": 71,
                    "time": 67.24142100000009,
                    "velocity": 0.29133858267716534,
                    "duration": 0.19157099999999616
                },
                {
                    "name": "C5",
                    "midi": 72,
                    "time": 67.81613400000009,
                    "velocity": 0.3700787401574803,
                    "duration": 0.19157099999999616
                },
                {
                    "name": "A4",
                    "midi": 69,
                    "time": 67.81613400000009,
                    "velocity": 0.31496062992125984,
                    "duration": 0.19157099999999616
                },
                {
                    "name": "F4",
                    "midi": 65,
                    "time": 67.81613400000009,
                    "velocity": 0.31496062992125984,
                    "duration": 0.19157099999999616
                },
                {
                    "name": "F4",
                    "midi": 65,
                    "time": 68.3908470000001,
                    "velocity": 0.33070866141732286,
                    "duration": 0.19157099999999616
                },
                {
                    "name": "B4",
                    "midi": 71,
                    "time": 68.3908470000001,
                    "velocity": 0.3937007874015748,
                    "duration": 0.19157099999999616
                },
                {
                    "name": "G4",
                    "midi": 67,
                    "time": 68.3908470000001,
                    "velocity": 0.33070866141732286,
                    "duration": 0.19157099999999616
                },
                {
                    "name": "C5",
                    "midi": 72,
                    "time": 68.9655600000001,
                    "velocity": 0.4094488188976378,
                    "duration": 0.19157099999999616
                },
                {
                    "name": "A4",
                    "midi": 69,
                    "time": 68.9655600000001,
                    "velocity": 0.3464566929133858,
                    "duration": 0.19157099999999616
                },
                {
                    "name": "F4",
                    "midi": 65,
                    "time": 68.9655600000001,
                    "velocity": 0.3464566929133858,
                    "duration": 0.19157099999999616
                },
                {
                    "name": "F4",
                    "midi": 65,
                    "time": 69.5402730000001,
                    "velocity": 0.3464566929133858,
                    "duration": 0.19157099999999616
                },
                {
                    "name": "B4",
                    "midi": 71,
                    "time": 69.5402730000001,
                    "velocity": 0.4094488188976378,
                    "duration": 0.19157099999999616
                },
                {
                    "name": "G4",
                    "midi": 67,
                    "time": 69.5402730000001,
                    "velocity": 0.3464566929133858,
                    "duration": 0.19157099999999616
                },
                {
                    "name": "B4",
                    "midi": 71,
                    "time": 70.1149860000001,
                    "velocity": 0.4094488188976378,
                    "duration": 0.19157099999999616
                },
                {
                    "name": "G4",
                    "midi": 67,
                    "time": 70.1149860000001,
                    "velocity": 0.3464566929133858,
                    "duration": 0.19157099999999616
                },
                {
                    "name": "E4",
                    "midi": 64,
                    "time": 70.1149860000001,
                    "velocity": 0.3464566929133858,
                    "duration": 0.19157099999999616
                },
                {
                    "name": "E4",
                    "midi": 64,
                    "time": 70.6896990000001,
                    "velocity": 0.3464566929133858,
                    "duration": 0.19157099999999616
                },
                {
                    "name": "A4",
                    "midi": 69,
                    "time": 70.6896990000001,
                    "velocity": 0.4094488188976378,
                    "duration": 0.19157099999999616
                },
                {
                    "name": "F4",
                    "midi": 65,
                    "time": 70.6896990000001,
                    "velocity": 0.3464566929133858,
                    "duration": 0.19157099999999616
                },
                {
                    "name": "A4",
                    "midi": 69,
                    "time": 71.2644120000001,
                    "velocity": 0.4094488188976378,
                    "duration": 0.19157099999999616
                },
                {
                    "name": "F4",
                    "midi": 65,
                    "time": 71.2644120000001,
                    "velocity": 0.3464566929133858,
                    "duration": 0.19157099999999616
                },
                {
                    "name": "D4",
                    "midi": 62,
                    "time": 71.2644120000001,
                    "velocity": 0.3464566929133858,
                    "duration": 0.19157099999999616
                },
                {
                    "name": "D4",
                    "midi": 62,
                    "time": 71.83912500000011,
                    "velocity": 0.3464566929133858,
                    "duration": 0.19157099999999616
                },
                {
                    "name": "G4",
                    "midi": 67,
                    "time": 71.83912500000011,
                    "velocity": 0.4094488188976378,
                    "duration": 0.19157099999999616
                },
                {
                    "name": "E4",
                    "midi": 64,
                    "time": 71.83912500000011,
                    "velocity": 0.3464566929133858,
                    "duration": 0.19157099999999616
                },
                {
                    "name": "G4",
                    "midi": 67,
                    "time": 72.41383800000011,
                    "velocity": 0.4094488188976378,
                    "duration": 0.19157099999999616
                },
                {
                    "name": "E4",
                    "midi": 64,
                    "time": 72.41383800000011,
                    "velocity": 0.3464566929133858,
                    "duration": 0.19157099999999616
                },
                {
                    "name": "C4",
                    "midi": 60,
                    "time": 72.41383800000011,
                    "velocity": 0.3464566929133858,
                    "duration": 0.19157099999999616
                },
                {
                    "name": "C4",
                    "midi": 60,
                    "time": 72.98855100000011,
                    "velocity": 0.3464566929133858,
                    "duration": 0.19157099999999616
                },
                {
                    "name": "F4",
                    "midi": 65,
                    "time": 72.98855100000011,
                    "velocity": 0.4094488188976378,
                    "duration": 0.19157099999999616
                },
                {
                    "name": "D4",
                    "midi": 62,
                    "time": 72.98855100000011,
                    "velocity": 0.3464566929133858,
                    "duration": 0.19157099999999616
                },
                {
                    "name": "F4",
                    "midi": 65,
                    "time": 73.56326400000012,
                    "velocity": 0.4094488188976378,
                    "duration": 0.19157099999999616
                },
                {
                    "name": "D4",
                    "midi": 62,
                    "time": 73.56326400000012,
                    "velocity": 0.3464566929133858,
                    "duration": 0.19157099999999616
                },
                {
                    "name": "B3",
                    "midi": 59,
                    "time": 73.56326400000012,
                    "velocity": 0.3464566929133858,
                    "duration": 0.19157099999999616
                },
                {
                    "name": "B3",
                    "midi": 59,
                    "time": 74.13797700000012,
                    "velocity": 0.3464566929133858,
                    "duration": 0.19157099999999616
                },
                {
                    "name": "E4",
                    "midi": 64,
                    "time": 74.13797700000012,
                    "velocity": 0.4094488188976378,
                    "duration": 0.19157099999999616
                },
                {
                    "name": "C4",
                    "midi": 60,
                    "time": 74.13797700000012,
                    "velocity": 0.3464566929133858,
                    "duration": 0.19157099999999616
                },
                {
                    "name": "E4",
                    "midi": 64,
                    "time": 74.71269000000012,
                    "velocity": 0.4094488188976378,
                    "duration": 0.19157099999999616
                },
                {
                    "name": "C4",
                    "midi": 60,
                    "time": 74.71269000000012,
                    "velocity": 0.3464566929133858,
                    "duration": 0.19157099999999616
                },
                {
                    "name": "A3",
                    "midi": 57,
                    "time": 74.71269000000012,
                    "velocity": 0.3464566929133858,
                    "duration": 0.19157099999999616
                },
                {
                    "name": "A3",
                    "midi": 57,
                    "time": 75.28740300000013,
                    "velocity": 0.3464566929133858,
                    "duration": 0.19157099999999616
                },
                {
                    "name": "D4",
                    "midi": 62,
                    "time": 75.28740300000013,
                    "velocity": 0.4094488188976378,
                    "duration": 0.19157099999999616
                },
                {
                    "name": "B3",
                    "midi": 59,
                    "time": 75.28740300000013,
                    "velocity": 0.3464566929133858,
                    "duration": 0.19157099999999616
                },
                {
                    "name": "D4",
                    "midi": 62,
                    "time": 75.86211600000013,
                    "velocity": 0.4094488188976378,
                    "duration": 0.19157099999999616
                },
                {
                    "name": "B3",
                    "midi": 59,
                    "time": 75.86211600000013,
                    "velocity": 0.3464566929133858,
                    "duration": 0.19157099999999616
                },
                {
                    "name": "G3",
                    "midi": 55,
                    "time": 75.86211600000013,
                    "velocity": 0.3464566929133858,
                    "duration": 0.19157099999999616
                },
                {
                    "name": "G3",
                    "midi": 55,
                    "time": 76.43682900000013,
                    "velocity": 0.3464566929133858,
                    "duration": 0.19157099999999616
                },
                {
                    "name": "C4",
                    "midi": 60,
                    "time": 76.43682900000013,
                    "velocity": 0.4094488188976378,
                    "duration": 0.19157099999999616
                },
                {
                    "name": "A3",
                    "midi": 57,
                    "time": 76.43682900000013,
                    "velocity": 0.3464566929133858,
                    "duration": 0.19157099999999616
                },
                {
                    "name": "E4",
                    "midi": 64,
                    "time": 77.01154200000013,
                    "velocity": 0.4094488188976378,
                    "duration": 0.19157099999999616
                },
                {
                    "name": "C4",
                    "midi": 60,
                    "time": 77.01154200000013,
                    "velocity": 0.3464566929133858,
                    "duration": 0.19157099999999616
                },
                {
                    "name": "A3",
                    "midi": 57,
                    "time": 77.01154200000013,
                    "velocity": 0.3464566929133858,
                    "duration": 0.19157099999999616
                },
                {
                    "name": "A3",
                    "midi": 57,
                    "time": 77.58625500000014,
                    "velocity": 0.3464566929133858,
                    "duration": 0.19157099999999616
                },
                {
                    "name": "D4",
                    "midi": 62,
                    "time": 77.58625500000014,
                    "velocity": 0.4094488188976378,
                    "duration": 0.19157099999999616
                },
                {
                    "name": "B3",
                    "midi": 59,
                    "time": 77.58625500000014,
                    "velocity": 0.3464566929133858,
                    "duration": 0.19157099999999616
                },
                {
                    "name": "C3",
                    "midi": 48,
                    "time": 77.77782600000013,
                    "velocity": 0.5354330708661418,
                    "duration": 0.06704985000000363
                },
                {
                    "name": "C4",
                    "midi": 60,
                    "time": 77.77782600000013,
                    "velocity": 0.6377952755905512,
                    "duration": 0.06704985000000363
                },
                {
                    "name": "C#3",
                    "midi": 49,
                    "time": 77.96939700000014,
                    "velocity": 0.48031496062992124,
                    "duration": 0.06704985000000363
                },
                {
                    "name": "C#4",
                    "midi": 61,
                    "time": 77.96939700000014,
                    "velocity": 0.5669291338582677,
                    "duration": 0.06704985000000363
                },
                {
                    "name": "C4",
                    "midi": 60,
                    "time": 78.16096800000015,
                    "velocity": 0.5748031496062992,
                    "duration": 0.04789275000000259
                },
                {
                    "name": "G#3",
                    "midi": 56,
                    "time": 78.16096800000015,
                    "velocity": 0.5748031496062992,
                    "duration": 0.04789275000000259
                },
                {
                    "name": "D#3",
                    "midi": 51,
                    "time": 78.16096800000015,
                    "velocity": 0.5748031496062992,
                    "duration": 0.06704985000000363
                },
                {
                    "name": "D#4",
                    "midi": 63,
                    "time": 78.16096800000015,
                    "velocity": 0.6771653543307087,
                    "duration": 0.06704985000000363
                },
                {
                    "name": "C3",
                    "midi": 48,
                    "time": 78.35253900000016,
                    "velocity": 0.5275590551181102,
                    "duration": 0.06704985000000363
                },
                {
                    "name": "C4",
                    "midi": 60,
                    "time": 78.35253900000016,
                    "velocity": 0.6220472440944882,
                    "duration": 0.06704985000000363
                },
                {
                    "name": "D#3",
                    "midi": 51,
                    "time": 78.54411000000017,
                    "velocity": 0.49606299212598426,
                    "duration": 0.3831419999999923
                },
                {
                    "name": "D#4",
                    "midi": 63,
                    "time": 78.54411000000017,
                    "velocity": 0.5984251968503937,
                    "duration": 0.3831419999999923
                },
                {
                    "name": "F3",
                    "midi": 53,
                    "time": 78.73568100000017,
                    "velocity": 0.48031496062992124,
                    "duration": 0.19157099999999616
                },
                {
                    "name": "G#3",
                    "midi": 56,
                    "time": 78.73568100000017,
                    "velocity": 0.48031496062992124,
                    "duration": 0.19157099999999616
                },
                {
                    "name": "C#3",
                    "midi": 49,
                    "time": 78.92725200000017,
                    "velocity": 0.5354330708661418,
                    "duration": 0.06704985000000363
                },
                {
                    "name": "C#4",
                    "midi": 61,
                    "time": 78.92725200000017,
                    "velocity": 0.6377952755905512,
                    "duration": 0.06704985000000363
                },
                {
                    "name": "C3",
                    "midi": 48,
                    "time": 79.11882300000018,
                    "velocity": 0.48031496062992124,
                    "duration": 0.06704985000000363
                },
                {
                    "name": "C4",
                    "midi": 60,
                    "time": 79.11882300000018,
                    "velocity": 0.5669291338582677,
                    "duration": 0.06704985000000363
                },
                {
                    "name": "C4",
                    "midi": 60,
                    "time": 79.31039400000019,
                    "velocity": 0.5039370078740157,
                    "duration": 0.09578550000000519
                },
                {
                    "name": "G#3",
                    "midi": 56,
                    "time": 79.31039400000019,
                    "velocity": 0.5039370078740157,
                    "duration": 0.09578550000000519
                },
                {
                    "name": "D#3",
                    "midi": 51,
                    "time": 79.31039400000019,
                    "velocity": 0.5039370078740157,
                    "duration": 0.09578550000000519
                },
                {
                    "name": "D#4",
                    "midi": 63,
                    "time": 79.31039400000019,
                    "velocity": 0.6062992125984252,
                    "duration": 0.09578550000000519
                },
                {
                    "name": "D#3",
                    "midi": 51,
                    "time": 79.6935360000002,
                    "velocity": 0.6220472440944882,
                    "duration": 0.3831419999999923
                },
                {
                    "name": "D#4",
                    "midi": 63,
                    "time": 79.6935360000002,
                    "velocity": 0.7322834645669292,
                    "duration": 0.3831419999999923
                },
                {
                    "name": "F3",
                    "midi": 53,
                    "time": 79.88510700000019,
                    "velocity": 0.48031496062992124,
                    "duration": 0.19157099999999616
                },
                {
                    "name": "G#3",
                    "midi": 56,
                    "time": 79.88510700000019,
                    "velocity": 0.48031496062992124,
                    "duration": 0.19157099999999616
                },
                {
                    "name": "C3",
                    "midi": 48,
                    "time": 80.07667800000019,
                    "velocity": 0.5354330708661418,
                    "duration": 0.06704985000000363
                },
                {
                    "name": "C4",
                    "midi": 60,
                    "time": 80.07667800000019,
                    "velocity": 0.6377952755905512,
                    "duration": 0.06704985000000363
                },
                {
                    "name": "C#3",
                    "midi": 49,
                    "time": 80.2682490000002,
                    "velocity": 0.48031496062992124,
                    "duration": 0.06704985000000363
                },
                {
                    "name": "C#4",
                    "midi": 61,
                    "time": 80.2682490000002,
                    "velocity": 0.5669291338582677,
                    "duration": 0.06704985000000363
                },
                {
                    "name": "C4",
                    "midi": 60,
                    "time": 80.4598200000002,
                    "velocity": 0.5748031496062992,
                    "duration": 0.04789275000000259
                },
                {
                    "name": "G#3",
                    "midi": 56,
                    "time": 80.4598200000002,
                    "velocity": 0.5748031496062992,
                    "duration": 0.04789275000000259
                },
                {
                    "name": "D#3",
                    "midi": 51,
                    "time": 80.4598200000002,
                    "velocity": 0.5748031496062992,
                    "duration": 0.06704985000000363
                },
                {
                    "name": "D#4",
                    "midi": 63,
                    "time": 80.4598200000002,
                    "velocity": 0.6771653543307087,
                    "duration": 0.06704985000000363
                },
                {
                    "name": "C3",
                    "midi": 48,
                    "time": 80.65139100000022,
                    "velocity": 0.5275590551181102,
                    "duration": 0.06704985000000363
                },
                {
                    "name": "C4",
                    "midi": 60,
                    "time": 80.65139100000022,
                    "velocity": 0.6220472440944882,
                    "duration": 0.06704985000000363
                },
                {
                    "name": "D#3",
                    "midi": 51,
                    "time": 80.84296200000023,
                    "velocity": 0.49606299212598426,
                    "duration": 0.3831419999999923
                },
                {
                    "name": "D#4",
                    "midi": 63,
                    "time": 80.84296200000023,
                    "velocity": 0.5984251968503937,
                    "duration": 0.3831419999999923
                },
                {
                    "name": "F3",
                    "midi": 53,
                    "time": 81.03453300000022,
                    "velocity": 0.48031496062992124,
                    "duration": 0.19157099999999616
                },
                {
                    "name": "G#3",
                    "midi": 56,
                    "time": 81.03453300000022,
                    "velocity": 0.48031496062992124,
                    "duration": 0.19157099999999616
                },
                {
                    "name": "C#3",
                    "midi": 49,
                    "time": 81.22610400000022,
                    "velocity": 0.5354330708661418,
                    "duration": 0.06704985000000363
                },
                {
                    "name": "C#4",
                    "midi": 61,
                    "time": 81.22610400000022,
                    "velocity": 0.6377952755905512,
                    "duration": 0.06704985000000363
                },
                {
                    "name": "C3",
                    "midi": 48,
                    "time": 81.41767500000023,
                    "velocity": 0.48031496062992124,
                    "duration": 0.06704985000000363
                },
                {
                    "name": "C4",
                    "midi": 60,
                    "time": 81.41767500000023,
                    "velocity": 0.5669291338582677,
                    "duration": 0.06704985000000363
                },
                {
                    "name": "C4",
                    "midi": 60,
                    "time": 81.60924600000024,
                    "velocity": 0.5039370078740157,
                    "duration": 0.09578550000000519
                },
                {
                    "name": "G#3",
                    "midi": 56,
                    "time": 81.60924600000024,
                    "velocity": 0.5039370078740157,
                    "duration": 0.09578550000000519
                },
                {
                    "name": "D#3",
                    "midi": 51,
                    "time": 81.60924600000024,
                    "velocity": 0.5039370078740157,
                    "duration": 0.09578550000000519
                },
                {
                    "name": "D#4",
                    "midi": 63,
                    "time": 81.60924600000024,
                    "velocity": 0.6062992125984252,
                    "duration": 0.09578550000000519
                },
                {
                    "name": "D#3",
                    "midi": 51,
                    "time": 81.99238800000025,
                    "velocity": 0.6220472440944882,
                    "duration": 0.3831419999999923
                },
                {
                    "name": "D#4",
                    "midi": 63,
                    "time": 81.99238800000025,
                    "velocity": 0.7322834645669292,
                    "duration": 0.3831419999999923
                },
                {
                    "name": "F3",
                    "midi": 53,
                    "time": 82.18395900000024,
                    "velocity": 0.48031496062992124,
                    "duration": 0.19157099999999616
                },
                {
                    "name": "G#3",
                    "midi": 56,
                    "time": 82.18395900000024,
                    "velocity": 0.48031496062992124,
                    "duration": 0.19157099999999616
                },
                {
                    "name": "C3",
                    "midi": 48,
                    "time": 82.37553000000024,
                    "velocity": 0.5826771653543307,
                    "duration": 0.06704985000000363
                },
                {
                    "name": "C4",
                    "midi": 60,
                    "time": 82.37553000000024,
                    "velocity": 0.7007874015748031,
                    "duration": 0.06704985000000363
                },
                {
                    "name": "D3",
                    "midi": 50,
                    "time": 82.56710100000025,
                    "velocity": 0.5275590551181102,
                    "duration": 0.06704985000000363
                },
                {
                    "name": "D4",
                    "midi": 62,
                    "time": 82.56710100000025,
                    "velocity": 0.6220472440944882,
                    "duration": 0.06704985000000363
                },
                {
                    "name": "C4",
                    "midi": 60,
                    "time": 82.75867200000026,
                    "velocity": 0.6299212598425197,
                    "duration": 0.04789275000000259
                },
                {
                    "name": "G3",
                    "midi": 55,
                    "time": 82.75867200000026,
                    "velocity": 0.5354330708661418,
                    "duration": 0.04789275000000259
                },
                {
                    "name": "E3",
                    "midi": 52,
                    "time": 82.75867200000026,
                    "velocity": 0.5354330708661418,
                    "duration": 0.06704985000000363
                },
                {
                    "name": "E4",
                    "midi": 64,
                    "time": 82.75867200000026,
                    "velocity": 0.7401574803149606,
                    "duration": 0.06704985000000363
                },
                {
                    "name": "C3",
                    "midi": 48,
                    "time": 82.95024300000027,
                    "velocity": 0.5748031496062992,
                    "duration": 0.06704985000000363
                },
                {
                    "name": "C4",
                    "midi": 60,
                    "time": 82.95024300000027,
                    "velocity": 0.6771653543307087,
                    "duration": 0.06704985000000363
                },
                {
                    "name": "E3",
                    "midi": 52,
                    "time": 83.14181400000028,
                    "velocity": 0.5433070866141733,
                    "duration": 0.3831419999999923
                },
                {
                    "name": "E4",
                    "midi": 64,
                    "time": 83.14181400000028,
                    "velocity": 0.6535433070866141,
                    "duration": 0.3831419999999923
                },
                {
                    "name": "F3",
                    "midi": 53,
                    "time": 83.33338500000028,
                    "velocity": 0.5275590551181102,
                    "duration": 0.19157099999999616
                },
                {
                    "name": "A3",
                    "midi": 57,
                    "time": 83.33338500000028,
                    "velocity": 0.5275590551181102,
                    "duration": 0.19157099999999616
                },
                {
                    "name": "D3",
                    "midi": 50,
                    "time": 83.52495600000027,
                    "velocity": 0.5826771653543307,
                    "duration": 0.06704985000000363
                },
                {
                    "name": "D4",
                    "midi": 62,
                    "time": 83.52495600000027,
                    "velocity": 0.7007874015748031,
                    "duration": 0.06704985000000363
                },
                {
                    "name": "C3",
                    "midi": 48,
                    "time": 83.71652700000028,
                    "velocity": 0.5275590551181102,
                    "duration": 0.06704985000000363
                },
                {
                    "name": "C4",
                    "midi": 60,
                    "time": 83.71652700000028,
                    "velocity": 0.6220472440944882,
                    "duration": 0.06704985000000363
                },
                {
                    "name": "C4",
                    "midi": 60,
                    "time": 83.9080980000003,
                    "velocity": 0.5511811023622047,
                    "duration": 0.09578550000000519
                },
                {
                    "name": "G3",
                    "midi": 55,
                    "time": 83.9080980000003,
                    "velocity": 0.5511811023622047,
                    "duration": 0.09578550000000519
                },
                {
                    "name": "E3",
                    "midi": 52,
                    "time": 83.9080980000003,
                    "velocity": 0.5511811023622047,
                    "duration": 0.09578550000000519
                },
                {
                    "name": "E4",
                    "midi": 64,
                    "time": 83.9080980000003,
                    "velocity": 0.6614173228346457,
                    "duration": 0.09578550000000519
                },
                {
                    "name": "E3",
                    "midi": 52,
                    "time": 84.2912400000003,
                    "velocity": 0.6535433070866141,
                    "duration": 0.3831419999999923
                },
                {
                    "name": "E4",
                    "midi": 64,
                    "time": 84.2912400000003,
                    "velocity": 0.7716535433070866,
                    "duration": 0.3831419999999923
                },
                {
                    "name": "F3",
                    "midi": 53,
                    "time": 84.4828110000003,
                    "velocity": 0.5275590551181102,
                    "duration": 0.19157099999999616
                },
                {
                    "name": "A3",
                    "midi": 57,
                    "time": 84.4828110000003,
                    "velocity": 0.5275590551181102,
                    "duration": 0.19157099999999616
                },
                {
                    "name": "C3",
                    "midi": 48,
                    "time": 84.67438200000029,
                    "velocity": 0.5826771653543307,
                    "duration": 0.06704985000000363
                },
                {
                    "name": "C4",
                    "midi": 60,
                    "time": 84.67438200000029,
                    "velocity": 0.7007874015748031,
                    "duration": 0.06704985000000363
                },
                {
                    "name": "D3",
                    "midi": 50,
                    "time": 84.8659530000003,
                    "velocity": 0.5275590551181102,
                    "duration": 0.06704985000000363
                },
                {
                    "name": "D4",
                    "midi": 62,
                    "time": 84.8659530000003,
                    "velocity": 0.6220472440944882,
                    "duration": 0.06704985000000363
                },
                {
                    "name": "C4",
                    "midi": 60,
                    "time": 85.05752400000031,
                    "velocity": 0.6299212598425197,
                    "duration": 0.04789275000000259
                },
                {
                    "name": "G3",
                    "midi": 55,
                    "time": 85.05752400000031,
                    "velocity": 0.6299212598425197,
                    "duration": 0.04789275000000259
                },
                {
                    "name": "E3",
                    "midi": 52,
                    "time": 85.05752400000031,
                    "velocity": 0.6299212598425197,
                    "duration": 0.06704985000000363
                },
                {
                    "name": "E4",
                    "midi": 64,
                    "time": 85.05752400000031,
                    "velocity": 0.7401574803149606,
                    "duration": 0.06704985000000363
                },
                {
                    "name": "C3",
                    "midi": 48,
                    "time": 85.24909500000032,
                    "velocity": 0.5748031496062992,
                    "duration": 0.06704985000000363
                },
                {
                    "name": "C4",
                    "midi": 60,
                    "time": 85.24909500000032,
                    "velocity": 0.6771653543307087,
                    "duration": 0.06704985000000363
                },
                {
                    "name": "E3",
                    "midi": 52,
                    "time": 85.44066600000033,
                    "velocity": 0.5433070866141733,
                    "duration": 0.3831419999999923
                },
                {
                    "name": "E4",
                    "midi": 64,
                    "time": 85.44066600000033,
                    "velocity": 0.6535433070866141,
                    "duration": 0.3831419999999923
                },
                {
                    "name": "F3",
                    "midi": 53,
                    "time": 85.63223700000033,
                    "velocity": 0.5275590551181102,
                    "duration": 0.19157099999999616
                },
                {
                    "name": "A3",
                    "midi": 57,
                    "time": 85.63223700000033,
                    "velocity": 0.5275590551181102,
                    "duration": 0.19157099999999616
                },
                {
                    "name": "D3",
                    "midi": 50,
                    "time": 85.82380800000033,
                    "velocity": 0.5826771653543307,
                    "duration": 0.06704985000000363
                },
                {
                    "name": "D4",
                    "midi": 62,
                    "time": 85.82380800000033,
                    "velocity": 0.7007874015748031,
                    "duration": 0.06704985000000363
                },
                {
                    "name": "C3",
                    "midi": 48,
                    "time": 86.01537900000034,
                    "velocity": 0.5275590551181102,
                    "duration": 0.06704985000000363
                },
                {
                    "name": "C4",
                    "midi": 60,
                    "time": 86.01537900000034,
                    "velocity": 0.6220472440944882,
                    "duration": 0.06704985000000363
                },
                {
                    "name": "C4",
                    "midi": 60,
                    "time": 86.20695000000035,
                    "velocity": 0.5511811023622047,
                    "duration": 0.09578550000000519
                },
                {
                    "name": "G3",
                    "midi": 55,
                    "time": 86.20695000000035,
                    "velocity": 0.5511811023622047,
                    "duration": 0.09578550000000519
                },
                {
                    "name": "E3",
                    "midi": 52,
                    "time": 86.20695000000035,
                    "velocity": 0.5511811023622047,
                    "duration": 0.09578550000000519
                },
                {
                    "name": "E4",
                    "midi": 64,
                    "time": 86.20695000000035,
                    "velocity": 0.6614173228346457,
                    "duration": 0.09578550000000519
                },
                {
                    "name": "E3",
                    "midi": 52,
                    "time": 86.59009200000035,
                    "velocity": 0.6535433070866141,
                    "duration": 0.3831419999999923
                },
                {
                    "name": "E4",
                    "midi": 64,
                    "time": 86.59009200000035,
                    "velocity": 0.7716535433070866,
                    "duration": 0.3831419999999923
                },
                {
                    "name": "F3",
                    "midi": 53,
                    "time": 86.78166300000035,
                    "velocity": 0.5275590551181102,
                    "duration": 0.19157099999999616
                },
                {
                    "name": "A3",
                    "midi": 57,
                    "time": 86.78166300000035,
                    "velocity": 0.5275590551181102,
                    "duration": 0.19157099999999616
                },
                {
                    "name": "C3",
                    "midi": 48,
                    "time": 86.97323400000035,
                    "velocity": 0.5511811023622047,
                    "duration": 0.04789274999998838
                },
                {
                    "name": "C4",
                    "midi": 60,
                    "time": 86.97882148750034,
                    "velocity": 0.5511811023622047,
                    "duration": 0.04789274999998838
                },
                {
                    "name": "D3",
                    "midi": 50,
                    "time": 87.16480500000033,
                    "velocity": 0.5511811023622047,
                    "duration": 0.04789275000000259
                },
                {
                    "name": "D4",
                    "midi": 62,
                    "time": 87.16480500000033,
                    "velocity": 0.5511811023622047,
                    "duration": 0.04789275000000259
                },
                {
                    "name": "E3",
                    "midi": 52,
                    "time": 88.88894400000034,
                    "velocity": 0.4566929133858268,
                    "duration": 0.38314200000000653
                },
                {
                    "name": "C3",
                    "midi": 48,
                    "time": 89.27208600000034,
                    "velocity": 0.4881889763779528,
                    "duration": 0.06704985000000363
                },
                {
                    "name": "D3",
                    "midi": 50,
                    "time": 89.46365700000035,
                    "velocity": 0.4330708661417323,
                    "duration": 0.06704985000000363
                },
                {
                    "name": "C4",
                    "midi": 60,
                    "time": 91.57093800000035,
                    "velocity": 0.31496062992125984,
                    "duration": 0.19157099999999616
                },
                {
                    "name": "D4",
                    "midi": 62,
                    "time": 91.76250900000035,
                    "velocity": 0.29133858267716534,
                    "duration": 0.19157099999999616
                },
                {
                    "name": "F3",
                    "midi": 53,
                    "time": 91.95408000000035,
                    "velocity": 0.2677165354330709,
                    "duration": 0.5747129999999885
                },
                {
                    "name": "E4",
                    "midi": 64,
                    "time": 91.95408000000035,
                    "velocity": 0.3543307086614173,
                    "duration": 0.19157099999999616
                },
                {
                    "name": "C4",
                    "midi": 60,
                    "time": 92.14565100000034,
                    "velocity": 0.2992125984251969,
                    "duration": 0.19157099999999616
                },
                {
                    "name": "E4",
                    "midi": 64,
                    "time": 92.33722200000034,
                    "velocity": 0.2992125984251969,
                    "duration": 0.28735650000000135
                },
                {
                    "name": "G3",
                    "midi": 55,
                    "time": 92.52879300000033,
                    "velocity": 0.2677165354330709,
                    "duration": 0.5747130000000027
                },
                {
                    "name": "D4",
                    "midi": 62,
                    "time": 92.62457850000034,
                    "velocity": 0.2677165354330709,
                    "duration": 0.04789275000000259
                },
                {
                    "name": "E4",
                    "midi": 64,
                    "time": 92.67247125000034,
                    "velocity": 0.2677165354330709,
                    "duration": 0.04789275000000259
                },
                {
                    "name": "D4",
                    "midi": 62,
                    "time": 92.72036400000034,
                    "velocity": 0.33858267716535434,
                    "duration": 0.19157099999999616
                },
                {
                    "name": "B3",
                    "midi": 59,
                    "time": 92.91193500000034,
                    "velocity": 0.33070866141732286,
                    "duration": 0.19157099999999616
                },
                {
                    "name": "C4",
                    "midi": 60,
                    "time": 93.10350600000034,
                    "velocity": 0.3700787401574803,
                    "duration": 0.09578550000000519
                },
                {
                    "name": "C4",
                    "midi": 60,
                    "time": 93.48664800000034,
                    "velocity": 0.3858267716535433,
                    "duration": 0.33524925000000394
                },
                {
                    "name": "C4",
                    "midi": 60,
                    "time": 93.86979000000035,
                    "velocity": 0.31496062992125984,
                    "duration": 0.19157099999999616
                },
                {
                    "name": "D4",
                    "midi": 62,
                    "time": 94.06136100000035,
                    "velocity": 0.29133858267716534,
                    "duration": 0.19157099999999616
                },
                {
                    "name": "F3",
                    "midi": 53,
                    "time": 94.25293200000034,
                    "velocity": 0.2677165354330709,
                    "duration": 0.5747129999999885
                },
                {
                    "name": "E4",
                    "midi": 64,
                    "time": 94.25293200000034,
                    "velocity": 0.3543307086614173,
                    "duration": 0.19157099999999616
                },
                {
                    "name": "C4",
                    "midi": 60,
                    "time": 94.44450300000034,
                    "velocity": 0.2992125984251969,
                    "duration": 0.19157099999999616
                },
                {
                    "name": "E4",
                    "midi": 64,
                    "time": 94.63607400000033,
                    "velocity": 0.2992125984251969,
                    "duration": 0.28735650000000135
                },
                {
                    "name": "G3",
                    "midi": 55,
                    "time": 94.82764500000033,
                    "velocity": 0.2677165354330709,
                    "duration": 0.5747130000000027
                },
                {
                    "name": "D4",
                    "midi": 62,
                    "time": 94.92343050000034,
                    "velocity": 0.2677165354330709,
                    "duration": 0.04789275000000259
                },
                {
                    "name": "E4",
                    "midi": 64,
                    "time": 94.97132325000034,
                    "velocity": 0.2677165354330709,
                    "duration": 0.04789275000000259
                },
                {
                    "name": "D4",
                    "midi": 62,
                    "time": 95.01921600000034,
                    "velocity": 0.33858267716535434,
                    "duration": 0.19157099999999616
                },
                {
                    "name": "B3",
                    "midi": 59,
                    "time": 95.21078700000034,
                    "velocity": 0.33070866141732286,
                    "duration": 0.19157099999999616
                },
                {
                    "name": "C4",
                    "midi": 60,
                    "time": 95.40235800000033,
                    "velocity": 0.3700787401574803,
                    "duration": 0.09578550000000519
                },
                {
                    "name": "C4",
                    "midi": 60,
                    "time": 95.78550000000034,
                    "velocity": 0.3858267716535433,
                    "duration": 0.38314200000000653
                },
                {
                    "name": "G#4",
                    "midi": 68,
                    "time": 96.55178400000035,
                    "velocity": 0.5748031496062992,
                    "duration": 0.5747130000000027
                },
                {
                    "name": "B4",
                    "midi": 71,
                    "time": 96.55178400000035,
                    "velocity": 0.5905511811023622,
                    "duration": 0.5747130000000027
                },
                {
                    "name": "A4",
                    "midi": 69,
                    "time": 97.12649700000036,
                    "velocity": 0.4881889763779528,
                    "duration": 0.5747130000000027
                },
                {
                    "name": "C5",
                    "midi": 72,
                    "time": 97.12649700000036,
                    "velocity": 0.5905511811023622,
                    "duration": 0.5747130000000027
                },
                {
                    "name": "G#4",
                    "midi": 68,
                    "time": 97.70121000000036,
                    "velocity": 0.5669291338582677,
                    "duration": 0.09578550000000519
                },
                {
                    "name": "B4",
                    "midi": 71,
                    "time": 97.70121000000036,
                    "velocity": 0.5905511811023622,
                    "duration": 0.09578550000000519
                },
                {
                    "name": "G#4",
                    "midi": 68,
                    "time": 98.08435200000037,
                    "velocity": 0.3779527559055118,
                    "duration": 0.38314200000000653
                },
                {
                    "name": "B4",
                    "midi": 71,
                    "time": 98.08435200000037,
                    "velocity": 0.5905511811023622,
                    "duration": 0.38314200000000653
                },
                {
                    "name": "B4",
                    "midi": 71,
                    "time": 98.46749400000037,
                    "velocity": 0.31496062992125984,
                    "duration": 0.19157099999999616
                },
                {
                    "name": "C#5",
                    "midi": 73,
                    "time": 98.65906500000037,
                    "velocity": 0.29133858267716534,
                    "duration": 0.19157099999999616
                },
                {
                    "name": "E4",
                    "midi": 64,
                    "time": 98.85063600000036,
                    "velocity": 0.2677165354330709,
                    "duration": 0.5747129999999885
                },
                {
                    "name": "D#5",
                    "midi": 75,
                    "time": 98.85063600000036,
                    "velocity": 0.3543307086614173,
                    "duration": 0.19157099999999616
                },
                {
                    "name": "B4",
                    "midi": 71,
                    "time": 99.04220700000036,
                    "velocity": 0.2992125984251969,
                    "duration": 0.19157099999999616
                },
                {
                    "name": "D#5",
                    "midi": 75,
                    "time": 99.23377800000036,
                    "velocity": 0.2992125984251969,
                    "duration": 0.28735650000000135
                },
                {
                    "name": "D#4",
                    "midi": 63,
                    "time": 99.42534900000035,
                    "velocity": 0.2677165354330709,
                    "duration": 0.5747130000000027
                },
                {
                    "name": "C#5",
                    "midi": 73,
                    "time": 99.52113450000036,
                    "velocity": 0.2677165354330709,
                    "duration": 0.04789275000000259
                },
                {
                    "name": "D#5",
                    "midi": 75,
                    "time": 99.56902725000036,
                    "velocity": 0.2677165354330709,
                    "duration": 0.04789275000000259
                },
                {
                    "name": "C#5",
                    "midi": 73,
                    "time": 99.61692000000036,
                    "velocity": 0.33858267716535434,
                    "duration": 0.19157099999999616
                },
                {
                    "name": "A4",
                    "midi": 69,
                    "time": 99.80849100000036,
                    "velocity": 0.2992125984251969,
                    "duration": 0.19157099999999616
                },
                {
                    "name": "E4",
                    "midi": 64,
                    "time": 100.00006200000036,
                    "velocity": 0.2125984251968504,
                    "duration": 0.09578550000000519
                },
                {
                    "name": "G#4",
                    "midi": 68,
                    "time": 100.00006200000036,
                    "velocity": 0.2125984251968504,
                    "duration": 0.09578550000000519
                },
                {
                    "name": "B4",
                    "midi": 71,
                    "time": 100.00006200000036,
                    "velocity": 0.2677165354330709,
                    "duration": 0.09578550000000519
                },
                {
                    "name": "E4",
                    "midi": 64,
                    "time": 100.38320400000036,
                    "velocity": 0.25984251968503935,
                    "duration": 0.38314200000000653
                },
                {
                    "name": "G#4",
                    "midi": 68,
                    "time": 100.38320400000036,
                    "velocity": 0.25984251968503935,
                    "duration": 0.38314200000000653
                },
                {
                    "name": "B4",
                    "midi": 71,
                    "time": 100.38320400000036,
                    "velocity": 0.3228346456692913,
                    "duration": 0.38314200000000653
                },
                {
                    "name": "B4",
                    "midi": 71,
                    "time": 101.14948800000037,
                    "velocity": 0.5748031496062992,
                    "duration": 0.5747130000000027
                },
                {
                    "name": "D5",
                    "midi": 74,
                    "time": 101.14948800000037,
                    "velocity": 0.5905511811023622,
                    "duration": 0.5747130000000027
                },
                {
                    "name": "C5",
                    "midi": 72,
                    "time": 101.72420100000038,
                    "velocity": 0.4881889763779528,
                    "duration": 0.5747130000000027
                },
                {
                    "name": "D#5",
                    "midi": 75,
                    "time": 101.72420100000038,
                    "velocity": 0.5905511811023622,
                    "duration": 0.5747130000000027
                },
                {
                    "name": "B4",
                    "midi": 71,
                    "time": 102.29891400000038,
                    "velocity": 0.5669291338582677,
                    "duration": 0.09578550000000519
                },
                {
                    "name": "D5",
                    "midi": 74,
                    "time": 102.29891400000038,
                    "velocity": 0.5905511811023622,
                    "duration": 0.09578550000000519
                },
                {
                    "name": "B4",
                    "midi": 71,
                    "time": 102.68205600000039,
                    "velocity": 0.3779527559055118,
                    "duration": 0.38314200000000653
                },
                {
                    "name": "D5",
                    "midi": 74,
                    "time": 102.68205600000039,
                    "velocity": 0.5905511811023622,
                    "duration": 0.38314200000000653
                },
                {
                    "name": "D5",
                    "midi": 74,
                    "time": 103.0651980000004,
                    "velocity": 0.31496062992125984,
                    "duration": 0.19157099999999616
                },
                {
                    "name": "E5",
                    "midi": 76,
                    "time": 103.25676900000039,
                    "velocity": 0.29133858267716534,
                    "duration": 0.19157099999999616
                },
                {
                    "name": "G4",
                    "midi": 67,
                    "time": 103.44834000000039,
                    "velocity": 0.2677165354330709,
                    "duration": 0.5747129999999885
                },
                {
                    "name": "F#5",
                    "midi": 78,
                    "time": 103.44834000000039,
                    "velocity": 0.3543307086614173,
                    "duration": 0.19157099999999616
                },
                {
                    "name": "D5",
                    "midi": 74,
                    "time": 103.63991100000038,
                    "velocity": 0.2992125984251969,
                    "duration": 0.19157099999999616
                },
                {
                    "name": "F#5",
                    "midi": 78,
                    "time": 103.83148200000038,
                    "velocity": 0.2992125984251969,
                    "duration": 0.28735650000000135
                },
                {
                    "name": "F#4",
                    "midi": 66,
                    "time": 104.02305300000037,
                    "velocity": 0.2677165354330709,
                    "duration": 0.5747130000000027
                },
                {
                    "name": "E5",
                    "midi": 76,
                    "time": 104.11883850000038,
                    "velocity": 0.2677165354330709,
                    "duration": 0.04789275000000259
                },
                {
                    "name": "F#5",
                    "midi": 78,
                    "time": 104.16673125000038,
                    "velocity": 0.2677165354330709,
                    "duration": 0.04789275000000259
                },
                {
                    "name": "E5",
                    "midi": 76,
                    "time": 104.21462400000038,
                    "velocity": 0.33858267716535434,
                    "duration": 0.19157099999999616
                },
                {
                    "name": "C5",
                    "midi": 72,
                    "time": 104.40619500000038,
                    "velocity": 0.2992125984251969,
                    "duration": 0.19157099999999616
                },
                {
                    "name": "G4",
                    "midi": 67,
                    "time": 104.59776600000038,
                    "velocity": 0.2125984251968504,
                    "duration": 0.09578550000000519
                },
                {
                    "name": "B4",
                    "midi": 71,
                    "time": 104.59776600000038,
                    "velocity": 0.2125984251968504,
                    "duration": 0.09578550000000519
                },
                {
                    "name": "D5",
                    "midi": 74,
                    "time": 104.59776600000038,
                    "velocity": 0.2677165354330709,
                    "duration": 0.09578550000000519
                },
                {
                    "name": "G4",
                    "midi": 67,
                    "time": 104.98090800000038,
                    "velocity": 0.25984251968503935,
                    "duration": 0.38314200000000653
                },
                {
                    "name": "B4",
                    "midi": 71,
                    "time": 104.98090800000038,
                    "velocity": 0.25984251968503935,
                    "duration": 0.38314200000000653
                },
                {
                    "name": "D5",
                    "midi": 74,
                    "time": 104.98090800000038,
                    "velocity": 0.3228346456692913,
                    "duration": 0.38314200000000653
                },
                {
                    "name": "D5",
                    "midi": 74,
                    "time": 105.36405000000039,
                    "velocity": 0.33858267716535434,
                    "duration": 0.09578550000000519
                },
                {
                    "name": "E5",
                    "midi": 76,
                    "time": 105.4598355000004,
                    "velocity": 0.33858267716535434,
                    "duration": 0.09578550000000519
                },
                {
                    "name": "A4",
                    "midi": 69,
                    "time": 105.5556210000004,
                    "velocity": 0.23622047244094488,
                    "duration": 0.19157099999999616
                },
                {
                    "name": "C5",
                    "midi": 72,
                    "time": 105.5556210000004,
                    "velocity": 0.23622047244094488,
                    "duration": 0.19157099999999616
                },
                {
                    "name": "F#5",
                    "midi": 78,
                    "time": 105.5556210000004,
                    "velocity": 0.2992125984251969,
                    "duration": 0.19157099999999616
                },
                {
                    "name": "G4",
                    "midi": 67,
                    "time": 105.7583669750004,
                    "velocity": 0.2125984251968504,
                    "duration": 0.09578550000000519
                },
                {
                    "name": "B4",
                    "midi": 71,
                    "time": 105.7583669750004,
                    "velocity": 0.2125984251968504,
                    "duration": 0.09578550000000519
                },
                {
                    "name": "D5",
                    "midi": 74,
                    "time": 105.7583669750004,
                    "velocity": 0.2677165354330709,
                    "duration": 0.09578550000000519
                },
                {
                    "name": "D5",
                    "midi": 74,
                    "time": 106.1303340000004,
                    "velocity": 0.3228346456692913,
                    "duration": 0.38314200000000653
                },
                {
                    "name": "G4",
                    "midi": 67,
                    "time": 106.1303340000004,
                    "velocity": 0.25984251968503935,
                    "duration": 0.38314200000000653
                },
                {
                    "name": "B4",
                    "midi": 71,
                    "time": 106.1303340000004,
                    "velocity": 0.25984251968503935,
                    "duration": 0.38314200000000653
                },
                {
                    "name": "D5",
                    "midi": 74,
                    "time": 106.51347600000041,
                    "velocity": 0.33858267716535434,
                    "duration": 0.09578550000000519
                },
                {
                    "name": "E5",
                    "midi": 76,
                    "time": 106.60926150000041,
                    "velocity": 0.33858267716535434,
                    "duration": 0.09578550000000519
                },
                {
                    "name": "A4",
                    "midi": 69,
                    "time": 106.70504700000042,
                    "velocity": 0.23622047244094488,
                    "duration": 0.19157099999999616
                },
                {
                    "name": "C5",
                    "midi": 72,
                    "time": 106.70504700000042,
                    "velocity": 0.23622047244094488,
                    "duration": 0.19157099999999616
                },
                {
                    "name": "F5",
                    "midi": 77,
                    "time": 106.70504700000042,
                    "velocity": 0.2992125984251969,
                    "duration": 0.19157099999999616
                },
                {
                    "name": "D5",
                    "midi": 74,
                    "time": 107.08818900000041,
                    "velocity": 0.33858267716535434,
                    "duration": 0.09578550000000519
                },
                {
                    "name": "E5",
                    "midi": 76,
                    "time": 107.18397450000042,
                    "velocity": 0.33858267716535434,
                    "duration": 0.09578550000000519
                },
                {
                    "name": "A4",
                    "midi": 69,
                    "time": 107.27976000000042,
                    "velocity": 0.23622047244094488,
                    "duration": 0.09578550000000519
                },
                {
                    "name": "C5",
                    "midi": 72,
                    "time": 107.27976000000042,
                    "velocity": 0.23622047244094488,
                    "duration": 0.09578550000000519
                },
                {
                    "name": "F#5",
                    "midi": 78,
                    "time": 107.27976000000042,
                    "velocity": 0.2992125984251969,
                    "duration": 0.09578550000000519
                },
                {
                    "name": "D5",
                    "midi": 74,
                    "time": 107.66290200000043,
                    "velocity": 0.33858267716535434,
                    "duration": 0.09578550000000519
                },
                {
                    "name": "E5",
                    "midi": 76,
                    "time": 107.75868750000043,
                    "velocity": 0.33858267716535434,
                    "duration": 0.09578550000000519
                },
                {
                    "name": "A4",
                    "midi": 69,
                    "time": 107.85447300000044,
                    "velocity": 0.23622047244094488,
                    "duration": 0.09578550000000519
                },
                {
                    "name": "C5",
                    "midi": 72,
                    "time": 107.85447300000044,
                    "velocity": 0.23622047244094488,
                    "duration": 0.09578550000000519
                },
                {
                    "name": "F5",
                    "midi": 77,
                    "time": 107.85447300000044,
                    "velocity": 0.2992125984251969,
                    "duration": 0.09578550000000519
                },
                {
                    "name": "D5",
                    "midi": 74,
                    "time": 108.23761500000045,
                    "velocity": 0.33858267716535434,
                    "duration": 0.09578550000000519
                },
                {
                    "name": "E5",
                    "midi": 76,
                    "time": 108.33340050000045,
                    "velocity": 0.33858267716535434,
                    "duration": 0.09578550000000519
                },
                {
                    "name": "A4",
                    "midi": 69,
                    "time": 108.42918600000046,
                    "velocity": 0.23622047244094488,
                    "duration": 0.09578550000000519
                },
                {
                    "name": "C5",
                    "midi": 72,
                    "time": 108.42918600000046,
                    "velocity": 0.23622047244094488,
                    "duration": 0.09578550000000519
                },
                {
                    "name": "F#5",
                    "midi": 78,
                    "time": 108.42918600000046,
                    "velocity": 0.2992125984251969,
                    "duration": 0.09578550000000519
                },
                {
                    "name": "D5",
                    "midi": 74,
                    "time": 108.81232800000046,
                    "velocity": 0.33858267716535434,
                    "duration": 0.09578550000000519
                },
                {
                    "name": "E5",
                    "midi": 76,
                    "time": 108.90811350000047,
                    "velocity": 0.33858267716535434,
                    "duration": 0.09578550000000519
                },
                {
                    "name": "A4",
                    "midi": 69,
                    "time": 109.00389900000047,
                    "velocity": 0.23622047244094488,
                    "duration": 0.09578550000000519
                },
                {
                    "name": "C5",
                    "midi": 72,
                    "time": 109.00389900000047,
                    "velocity": 0.23622047244094488,
                    "duration": 0.09578550000000519
                },
                {
                    "name": "F5",
                    "midi": 77,
                    "time": 109.00389900000047,
                    "velocity": 0.2992125984251969,
                    "duration": 0.09578550000000519
                },
                {
                    "name": "F5",
                    "midi": 77,
                    "time": 109.38704100000048,
                    "velocity": 0.33858267716535434,
                    "duration": 0.09578550000000519
                },
                {
                    "name": "G5",
                    "midi": 79,
                    "time": 109.48282650000048,
                    "velocity": 0.33858267716535434,
                    "duration": 0.09578550000000519
                },
                {
                    "name": "C5",
                    "midi": 72,
                    "time": 109.57861200000049,
                    "velocity": 0.23622047244094488,
                    "duration": 0.09578550000000519
                },
                {
                    "name": "D5",
                    "midi": 74,
                    "time": 109.57861200000049,
                    "velocity": 0.23622047244094488,
                    "duration": 0.09578550000000519
                },
                {
                    "name": "A5",
                    "midi": 81,
                    "time": 109.57861200000049,
                    "velocity": 0.2992125984251969,
                    "duration": 0.09578550000000519
                },
                {
                    "name": "F5",
                    "midi": 77,
                    "time": 109.9617540000005,
                    "velocity": 0.33858267716535434,
                    "duration": 0.09578550000000519
                },
                {
                    "name": "G5",
                    "midi": 79,
                    "time": 110.0575395000005,
                    "velocity": 0.33858267716535434,
                    "duration": 0.09578550000000519
                },
                {
                    "name": "B4",
                    "midi": 71,
                    "time": 110.1533250000005,
                    "velocity": 0.23622047244094488,
                    "duration": 0.09578550000000519
                },
                {
                    "name": "D5",
                    "midi": 74,
                    "time": 110.1533250000005,
                    "velocity": 0.23622047244094488,
                    "duration": 0.09578550000000519
                },
                {
                    "name": "A5",
                    "midi": 81,
                    "time": 110.1533250000005,
                    "velocity": 0.2992125984251969,
                    "duration": 0.09578550000000519
                },
                {
                    "name": "E5",
                    "midi": 76,
                    "time": 110.53646700000051,
                    "velocity": 0.33858267716535434,
                    "duration": 0.09578550000000519
                },
                {
                    "name": "F5",
                    "midi": 77,
                    "time": 110.63225250000052,
                    "velocity": 0.33858267716535434,
                    "duration": 0.09578550000000519
                },
                {
                    "name": "B4",
                    "midi": 71,
                    "time": 110.72803800000052,
                    "velocity": 0.23622047244094488,
                    "duration": 0.09578550000000519
                },
                {
                    "name": "C5",
                    "midi": 72,
                    "time": 110.72803800000052,
                    "velocity": 0.23622047244094488,
                    "duration": 0.09578550000000519
                },
                {
                    "name": "G5",
                    "midi": 79,
                    "time": 110.72803800000052,
                    "velocity": 0.2992125984251969,
                    "duration": 0.09578550000000519
                },
                {
                    "name": "E5",
                    "midi": 76,
                    "time": 111.11118000000053,
                    "velocity": 0.33858267716535434,
                    "duration": 0.09578550000000519
                },
                {
                    "name": "F5",
                    "midi": 77,
                    "time": 111.20696550000054,
                    "velocity": 0.33858267716535434,
                    "duration": 0.09578550000000519
                },
                {
                    "name": "B4",
                    "midi": 71,
                    "time": 111.30275100000054,
                    "velocity": 0.2283464566929134,
                    "duration": 0.09578550000000519
                },
                {
                    "name": "C5",
                    "midi": 72,
                    "time": 111.30275100000054,
                    "velocity": 0.2283464566929134,
                    "duration": 0.09578550000000519
                },
                {
                    "name": "G5",
                    "midi": 79,
                    "time": 111.30275100000054,
                    "velocity": 0.29133858267716534,
                    "duration": 0.09578550000000519
                },
                {
                    "name": "E5",
                    "midi": 76,
                    "time": 111.68589300000055,
                    "velocity": 0.3228346456692913,
                    "duration": 0.09578550000000519
                },
                {
                    "name": "F5",
                    "midi": 77,
                    "time": 111.78167850000055,
                    "velocity": 0.3228346456692913,
                    "duration": 0.09578550000000519
                },
                {
                    "name": "A4",
                    "midi": 69,
                    "time": 111.87746400000056,
                    "velocity": 0.2204724409448819,
                    "duration": 0.09578550000000519
                },
                {
                    "name": "C5",
                    "midi": 72,
                    "time": 111.87746400000056,
                    "velocity": 0.2204724409448819,
                    "duration": 0.09578550000000519
                },
                {
                    "name": "G5",
                    "midi": 79,
                    "time": 111.87746400000056,
                    "velocity": 0.28346456692913385,
                    "duration": 0.09578550000000519
                },
                {
                    "name": "E5",
                    "midi": 76,
                    "time": 112.26060600000056,
                    "velocity": 0.30708661417322836,
                    "duration": 0.09578550000000519
                },
                {
                    "name": "F5",
                    "midi": 77,
                    "time": 112.35639150000057,
                    "velocity": 0.30708661417322836,
                    "duration": 0.09578550000000519
                },
                {
                    "name": "A4",
                    "midi": 69,
                    "time": 112.45217700000057,
                    "velocity": 0.2125984251968504,
                    "duration": 0.09578550000000519
                },
                {
                    "name": "C5",
                    "midi": 72,
                    "time": 112.45217700000057,
                    "velocity": 0.2125984251968504,
                    "duration": 0.09578550000000519
                },
                {
                    "name": "G5",
                    "midi": 79,
                    "time": 112.45217700000057,
                    "velocity": 0.2677165354330709,
                    "duration": 0.09578550000000519
                },
                {
                    "name": "D5",
                    "midi": 74,
                    "time": 112.83531900000058,
                    "velocity": 0.29133858267716534,
                    "duration": 0.09578550000000519
                },
                {
                    "name": "E5",
                    "midi": 76,
                    "time": 112.93110450000059,
                    "velocity": 0.29133858267716534,
                    "duration": 0.09578550000000519
                },
                {
                    "name": "A4",
                    "midi": 69,
                    "time": 113.02689000000059,
                    "velocity": 0.2047244094488189,
                    "duration": 0.09578550000000519
                },
                {
                    "name": "B4",
                    "midi": 71,
                    "time": 113.02689000000059,
                    "velocity": 0.2047244094488189,
                    "duration": 0.09578550000000519
                },
                {
                    "name": "F5",
                    "midi": 77,
                    "time": 113.02689000000059,
                    "velocity": 0.25984251968503935,
                    "duration": 0.09578550000000519
                },
                {
                    "name": "D5",
                    "midi": 74,
                    "time": 113.4100320000006,
                    "velocity": 0.28346456692913385,
                    "duration": 0.09578550000000519
                },
                {
                    "name": "E5",
                    "midi": 76,
                    "time": 113.5058175000006,
                    "velocity": 0.28346456692913385,
                    "duration": 0.09578550000000519
                },
                {
                    "name": "A4",
                    "midi": 69,
                    "time": 113.60160300000061,
                    "velocity": 0.1889763779527559,
                    "duration": 0.09578550000000519
                },
                {
                    "name": "B4",
                    "midi": 71,
                    "time": 113.60160300000061,
                    "velocity": 0.1889763779527559,
                    "duration": 0.09578550000000519
                },
                {
                    "name": "F5",
                    "midi": 77,
                    "time": 113.60160300000061,
                    "velocity": 0.2440944881889764,
                    "duration": 0.09578550000000519
                },
                {
                    "name": "D5",
                    "midi": 74,
                    "time": 113.98474500000061,
                    "velocity": 0.2677165354330709,
                    "duration": 0.09578550000000519
                },
                {
                    "name": "E5",
                    "midi": 76,
                    "time": 114.08053050000062,
                    "velocity": 0.2677165354330709,
                    "duration": 0.09578550000000519
                },
                {
                    "name": "G4",
                    "midi": 67,
                    "time": 114.17631600000063,
                    "velocity": 0.18110236220472442,
                    "duration": 0.09578550000000519
                },
                {
                    "name": "B4",
                    "midi": 71,
                    "time": 114.17631600000063,
                    "velocity": 0.18110236220472442,
                    "duration": 0.09578550000000519
                },
                {
                    "name": "F5",
                    "midi": 77,
                    "time": 114.17631600000063,
                    "velocity": 0.23622047244094488,
                    "duration": 0.09578550000000519
                },
                {
                    "name": "D5",
                    "midi": 74,
                    "time": 114.55945800000063,
                    "velocity": 0.25196850393700787,
                    "duration": 0.09578550000000519
                },
                {
                    "name": "E5",
                    "midi": 76,
                    "time": 114.65524350000064,
                    "velocity": 0.25196850393700787,
                    "duration": 0.09578550000000519
                },
                {
                    "name": "G4",
                    "midi": 67,
                    "time": 114.75102900000064,
                    "velocity": 0.1732283464566929,
                    "duration": 0.09578550000000519
                },
                {
                    "name": "B4",
                    "midi": 71,
                    "time": 114.75102900000064,
                    "velocity": 0.1732283464566929,
                    "duration": 0.09578550000000519
                },
                {
                    "name": "F5",
                    "midi": 77,
                    "time": 114.75102900000064,
                    "velocity": 0.2204724409448819,
                    "duration": 0.09578550000000519
                },
                {
                    "name": "C5",
                    "midi": 72,
                    "time": 115.13417100000065,
                    "velocity": 0.23622047244094488,
                    "duration": 0.09578550000000519
                },
                {
                    "name": "D5",
                    "midi": 74,
                    "time": 115.22995650000065,
                    "velocity": 0.23622047244094488,
                    "duration": 0.09578550000000519
                },
                {
                    "name": "G4",
                    "midi": 67,
                    "time": 115.32574200000066,
                    "velocity": 0.16535433070866143,
                    "duration": 0.09578550000000519
                },
                {
                    "name": "A4",
                    "midi": 69,
                    "time": 115.32574200000066,
                    "velocity": 0.16535433070866143,
                    "duration": 0.09578550000000519
                },
                {
                    "name": "E5",
                    "midi": 76,
                    "time": 115.32574200000066,
                    "velocity": 0.2047244094488189,
                    "duration": 0.09578550000000519
                },
                {
                    "name": "C5",
                    "midi": 72,
                    "time": 115.70888400000067,
                    "velocity": 0.2283464566929134,
                    "duration": 0.09578550000000519
                },
                {
                    "name": "D5",
                    "midi": 74,
                    "time": 115.80466950000067,
                    "velocity": 0.2283464566929134,
                    "duration": 0.09578550000000519
                },
                {
                    "name": "G4",
                    "midi": 67,
                    "time": 115.90045500000068,
                    "velocity": 0.15748031496062992,
                    "duration": 0.09578550000000519
                },
                {
                    "name": "A4",
                    "midi": 69,
                    "time": 115.90045500000068,
                    "velocity": 0.15748031496062992,
                    "duration": 0.09578550000000519
                },
                {
                    "name": "E5",
                    "midi": 76,
                    "time": 115.90045500000068,
                    "velocity": 0.1968503937007874,
                    "duration": 0.09578550000000519
                },
                {
                    "name": "C5",
                    "midi": 72,
                    "time": 116.28359700000068,
                    "velocity": 0.2125984251968504,
                    "duration": 0.09578550000000519
                },
                {
                    "name": "D5",
                    "midi": 74,
                    "time": 116.37938250000069,
                    "velocity": 0.2125984251968504,
                    "duration": 0.09578550000000519
                },
                {
                    "name": "F4",
                    "midi": 65,
                    "time": 116.47516800000069,
                    "velocity": 0.14960629921259844,
                    "duration": 0.09578550000000519
                },
                {
                    "name": "A4",
                    "midi": 69,
                    "time": 116.47516800000069,
                    "velocity": 0.14960629921259844,
                    "duration": 0.09578550000000519
                },
                {
                    "name": "E5",
                    "midi": 76,
                    "time": 116.47516800000069,
                    "velocity": 0.1889763779527559,
                    "duration": 0.09578550000000519
                },
                {
                    "name": "B4",
                    "midi": 71,
                    "time": 118.5824490000007,
                    "velocity": 0.2125984251968504,
                    "duration": 0.09578550000000519
                },
                {
                    "name": "C5",
                    "midi": 72,
                    "time": 118.6782345000007,
                    "velocity": 0.2125984251968504,
                    "duration": 0.09578550000000519
                },
                {
                    "name": "F4",
                    "midi": 65,
                    "time": 118.7740200000007,
                    "velocity": 0.14960629921259844,
                    "duration": 0.09578550000000519
                },
                {
                    "name": "A4",
                    "midi": 69,
                    "time": 118.7740200000007,
                    "velocity": 0.14960629921259844,
                    "duration": 0.09578550000000519
                },
                {
                    "name": "D5",
                    "midi": 74,
                    "time": 118.7740200000007,
                    "velocity": 0.1889763779527559,
                    "duration": 0.09578550000000519
                },
                {
                    "name": "G4",
                    "midi": 67,
                    "time": 121.83915600000071,
                    "velocity": 0.11023622047244094,
                    "duration": 0.19157099999999616
                },
                {
                    "name": "D5",
                    "midi": 74,
                    "time": 121.83915600000071,
                    "velocity": 0.12598425196850394,
                    "duration": 0.19157099999999616
                },
                {
                    "name": "C6",
                    "midi": 84,
                    "time": 122.60544000000071,
                    "velocity": 0.25196850393700787,
                    "duration": 0.19157099999999616
                },
                {
                    "name": "D6",
                    "midi": 86,
                    "time": 122.79701100000071,
                    "velocity": 0.2283464566929134,
                    "duration": 0.19157099999999616
                },
                {
                    "name": "E6",
                    "midi": 88,
                    "time": 122.9885820000007,
                    "velocity": 0.28346456692913385,
                    "duration": 0.19157099999999616
                },
                {
                    "name": "C6",
                    "midi": 84,
                    "time": 123.1801530000007,
                    "velocity": 0.23622047244094488,
                    "duration": 0.19157099999999616
                },
                {
                    "name": "E6",
                    "midi": 88,
                    "time": 123.3717240000007,
                    "velocity": 0.23622047244094488,
                    "duration": 0.28735650000000135
                },
                {
                    "name": "D6",
                    "midi": 86,
                    "time": 123.6590805000007,
                    "velocity": 0.2125984251968504,
                    "duration": 0.04789275000000259
                },
                {
                    "name": "E6",
                    "midi": 88,
                    "time": 123.7069732500007,
                    "velocity": 0.2125984251968504,
                    "duration": 0.04789275000000259
                },
                {
                    "name": "D6",
                    "midi": 86,
                    "time": 123.7548660000007,
                    "velocity": 0.2677165354330709,
                    "duration": 0.19157099999999616
                },
                {
                    "name": "C6",
                    "midi": 84,
                    "time": 123.9464370000007,
                    "velocity": 0.23622047244094488,
                    "duration": 0.19157099999999616
                },
                {
                    "name": "E6",
                    "midi": 88,
                    "time": 124.1380080000007,
                    "velocity": 0.25196850393700787,
                    "duration": 0.09578550000000519
                },
                {
                    "name": "E6",
                    "midi": 88,
                    "time": 124.5211500000007,
                    "velocity": 0.30708661417322836,
                    "duration": 0.38314200000000653
                },
                {
                    "name": "C6",
                    "midi": 84,
                    "time": 124.90429200000071,
                    "velocity": 0.25196850393700787,
                    "duration": 0.19157099999999616
                },
                {
                    "name": "D6",
                    "midi": 86,
                    "time": 125.0958630000007,
                    "velocity": 0.2283464566929134,
                    "duration": 0.19157099999999616
                },
                {
                    "name": "E6",
                    "midi": 88,
                    "time": 125.2874340000007,
                    "velocity": 0.28346456692913385,
                    "duration": 0.19157099999999616
                },
                {
                    "name": "C6",
                    "midi": 84,
                    "time": 125.4790050000007,
                    "velocity": 0.23622047244094488,
                    "duration": 0.19157099999999616
                },
                {
                    "name": "E6",
                    "midi": 88,
                    "time": 125.6705760000007,
                    "velocity": 0.23622047244094488,
                    "duration": 0.28735650000000135
                },
                {
                    "name": "D6",
                    "midi": 86,
                    "time": 125.9579325000007,
                    "velocity": 0.2125984251968504,
                    "duration": 0.04789275000000259
                },
                {
                    "name": "E6",
                    "midi": 88,
                    "time": 126.0058252500007,
                    "velocity": 0.2125984251968504,
                    "duration": 0.04789275000000259
                },
                {
                    "name": "D6",
                    "midi": 86,
                    "time": 126.0537180000007,
                    "velocity": 0.2677165354330709,
                    "duration": 0.19157099999999616
                },
                {
                    "name": "C6",
                    "midi": 84,
                    "time": 126.2452890000007,
                    "velocity": 0.23622047244094488,
                    "duration": 0.19157099999999616
                },
                {
                    "name": "E6",
                    "midi": 88,
                    "time": 126.43686000000069,
                    "velocity": 0.25196850393700787,
                    "duration": 0.09578550000000519
                },
                {
                    "name": "E6",
                    "midi": 88,
                    "time": 126.8200020000007,
                    "velocity": 0.30708661417322836,
                    "duration": 0.38314200000000653
                },
                {
                    "name": "C7",
                    "midi": 96,
                    "time": 127.58628600000071,
                    "velocity": 0.2204724409448819,
                    "duration": 0.19157099999999616
                },
                {
                    "name": "A6",
                    "midi": 93,
                    "time": 127.58628600000071,
                    "velocity": 0.1889763779527559,
                    "duration": 0.19157099999999616
                },
                {
                    "name": "F6",
                    "midi": 89,
                    "time": 127.58628600000071,
                    "velocity": 0.1889763779527559,
                    "duration": 0.19157099999999616
                },
                {
                    "name": "F6",
                    "midi": 89,
                    "time": 128.16099900000071,
                    "velocity": 0.1889763779527559,
                    "duration": 0.19157100000001037
                },
                {
                    "name": "B6",
                    "midi": 95,
                    "time": 128.16099900000071,
                    "velocity": 0.2204724409448819,
                    "duration": 0.19157100000001037
                },
                {
                    "name": "G6",
                    "midi": 91,
                    "time": 128.16099900000071,
                    "velocity": 0.1889763779527559,
                    "duration": 0.19157100000001037
                },
                {
                    "name": "B6",
                    "midi": 95,
                    "time": 128.73571200000072,
                    "velocity": 0.2204724409448819,
                    "duration": 0.19157100000001037
                },
                {
                    "name": "G6",
                    "midi": 91,
                    "time": 128.73571200000072,
                    "velocity": 0.1889763779527559,
                    "duration": 0.19157100000001037
                },
                {
                    "name": "E6",
                    "midi": 88,
                    "time": 128.73571200000072,
                    "velocity": 0.1889763779527559,
                    "duration": 0.19157100000001037
                },
                {
                    "name": "A6",
                    "midi": 93,
                    "time": 129.31042500000072,
                    "velocity": 0.2204724409448819,
                    "duration": 0.19157100000001037
                },
                {
                    "name": "F6",
                    "midi": 89,
                    "time": 129.31042500000072,
                    "velocity": 0.1889763779527559,
                    "duration": 0.19157100000001037
                },
                {
                    "name": "E6",
                    "midi": 88,
                    "time": 129.31042500000072,
                    "velocity": 0.1889763779527559,
                    "duration": 0.19157100000001037
                },
                {
                    "name": "A6",
                    "midi": 93,
                    "time": 129.88513800000072,
                    "velocity": 0.2204724409448819,
                    "duration": 0.19157100000001037
                },
                {
                    "name": "F6",
                    "midi": 89,
                    "time": 129.88513800000072,
                    "velocity": 0.1889763779527559,
                    "duration": 0.19157100000001037
                },
                {
                    "name": "D6",
                    "midi": 86,
                    "time": 129.88513800000072,
                    "velocity": 0.1889763779527559,
                    "duration": 0.19157100000001037
                },
                {
                    "name": "D6",
                    "midi": 86,
                    "time": 130.45985100000073,
                    "velocity": 0.1889763779527559,
                    "duration": 0.19157100000001037
                },
                {
                    "name": "G6",
                    "midi": 91,
                    "time": 130.45985100000073,
                    "velocity": 0.2204724409448819,
                    "duration": 0.19157100000001037
                },
                {
                    "name": "E6",
                    "midi": 88,
                    "time": 130.45985100000073,
                    "velocity": 0.1889763779527559,
                    "duration": 0.19157100000001037
                },
                {
                    "name": "G6",
                    "midi": 91,
                    "time": 131.03456400000073,
                    "velocity": 0.2204724409448819,
                    "duration": 0.19157100000001037
                },
                {
                    "name": "E6",
                    "midi": 88,
                    "time": 131.03456400000073,
                    "velocity": 0.1889763779527559,
                    "duration": 0.19157100000001037
                },
                {
                    "name": "C6",
                    "midi": 84,
                    "time": 131.03456400000073,
                    "velocity": 0.1889763779527559,
                    "duration": 0.19157100000001037
                },
                {
                    "name": "F6",
                    "midi": 89,
                    "time": 131.60927700000073,
                    "velocity": 0.2204724409448819,
                    "duration": 0.19157100000001037
                },
                {
                    "name": "D6",
                    "midi": 86,
                    "time": 131.60927700000073,
                    "velocity": 0.1889763779527559,
                    "duration": 0.19157100000001037
                },
                {
                    "name": "C6",
                    "midi": 84,
                    "time": 131.60927700000073,
                    "velocity": 0.1889763779527559,
                    "duration": 0.19157100000001037
                },
                {
                    "name": "F6",
                    "midi": 89,
                    "time": 132.18399000000073,
                    "velocity": 0.2204724409448819,
                    "duration": 0.19157100000001037
                },
                {
                    "name": "D6",
                    "midi": 86,
                    "time": 132.18399000000073,
                    "velocity": 0.1889763779527559,
                    "duration": 0.19157100000001037
                },
                {
                    "name": "B5",
                    "midi": 83,
                    "time": 132.18399000000073,
                    "velocity": 0.1889763779527559,
                    "duration": 0.19157100000001037
                },
                {
                    "name": "B5",
                    "midi": 83,
                    "time": 132.75870300000074,
                    "velocity": 0.1889763779527559,
                    "duration": 0.19157100000001037
                },
                {
                    "name": "E6",
                    "midi": 88,
                    "time": 132.75870300000074,
                    "velocity": 0.2204724409448819,
                    "duration": 0.19157100000001037
                },
                {
                    "name": "C6",
                    "midi": 84,
                    "time": 132.75870300000074,
                    "velocity": 0.1889763779527559,
                    "duration": 0.19157100000001037
                },
                {
                    "name": "E6",
                    "midi": 88,
                    "time": 133.33341600000074,
                    "velocity": 0.2204724409448819,
                    "duration": 0.19157100000001037
                },
                {
                    "name": "C6",
                    "midi": 84,
                    "time": 133.33341600000074,
                    "velocity": 0.1889763779527559,
                    "duration": 0.19157100000001037
                },
                {
                    "name": "A5",
                    "midi": 81,
                    "time": 133.33341600000074,
                    "velocity": 0.1889763779527559,
                    "duration": 0.19157100000001037
                },
                {
                    "name": "A5",
                    "midi": 81,
                    "time": 133.90812900000074,
                    "velocity": 0.1889763779527559,
                    "duration": 0.19157100000001037
                },
                {
                    "name": "D6",
                    "midi": 86,
                    "time": 133.90812900000074,
                    "velocity": 0.2204724409448819,
                    "duration": 0.19157100000001037
                },
                {
                    "name": "B5",
                    "midi": 83,
                    "time": 133.90812900000074,
                    "velocity": 0.1889763779527559,
                    "duration": 0.19157100000001037
                },
                {
                    "name": "D6",
                    "midi": 86,
                    "time": 134.48284200000074,
                    "velocity": 0.2204724409448819,
                    "duration": 0.19157100000001037
                },
                {
                    "name": "B5",
                    "midi": 83,
                    "time": 134.48284200000074,
                    "velocity": 0.1889763779527559,
                    "duration": 0.19157100000001037
                },
                {
                    "name": "G5",
                    "midi": 79,
                    "time": 134.48284200000074,
                    "velocity": 0.1889763779527559,
                    "duration": 0.19157100000001037
                },
                {
                    "name": "G5",
                    "midi": 79,
                    "time": 135.05755500000075,
                    "velocity": 0.1889763779527559,
                    "duration": 0.19157100000001037
                },
                {
                    "name": "C6",
                    "midi": 84,
                    "time": 135.05755500000075,
                    "velocity": 0.2204724409448819,
                    "duration": 0.19157100000001037
                },
                {
                    "name": "A5",
                    "midi": 81,
                    "time": 135.05755500000075,
                    "velocity": 0.1889763779527559,
                    "duration": 0.19157100000001037
                },
                {
                    "name": "C6",
                    "midi": 84,
                    "time": 135.63226800000075,
                    "velocity": 0.2204724409448819,
                    "duration": 0.19157100000001037
                },
                {
                    "name": "A5",
                    "midi": 81,
                    "time": 135.63226800000075,
                    "velocity": 0.1889763779527559,
                    "duration": 0.19157100000001037
                },
                {
                    "name": "F5",
                    "midi": 77,
                    "time": 135.63226800000075,
                    "velocity": 0.1889763779527559,
                    "duration": 0.19157100000001037
                },
                {
                    "name": "F5",
                    "midi": 77,
                    "time": 136.20698100000075,
                    "velocity": 0.1889763779527559,
                    "duration": 0.19157100000001037
                },
                {
                    "name": "B5",
                    "midi": 83,
                    "time": 136.20698100000075,
                    "velocity": 0.2204724409448819,
                    "duration": 0.19157100000001037
                },
                {
                    "name": "G5",
                    "midi": 79,
                    "time": 136.20698100000075,
                    "velocity": 0.1889763779527559,
                    "duration": 0.19157100000001037
                },
                {
                    "name": "C6",
                    "midi": 84,
                    "time": 136.78169400000075,
                    "velocity": 0.2283464566929134,
                    "duration": 0.19157100000001037
                },
                {
                    "name": "A5",
                    "midi": 81,
                    "time": 136.78169400000075,
                    "velocity": 0.1968503937007874,
                    "duration": 0.19157100000001037
                },
                {
                    "name": "F5",
                    "midi": 77,
                    "time": 136.78169400000075,
                    "velocity": 0.1968503937007874,
                    "duration": 0.19157100000001037
                },
                {
                    "name": "F5",
                    "midi": 77,
                    "time": 137.35640700000076,
                    "velocity": 0.1968503937007874,
                    "duration": 0.19157100000001037
                },
                {
                    "name": "B5",
                    "midi": 83,
                    "time": 137.35640700000076,
                    "velocity": 0.23622047244094488,
                    "duration": 0.19157100000001037
                },
                {
                    "name": "G5",
                    "midi": 79,
                    "time": 137.35640700000076,
                    "velocity": 0.1968503937007874,
                    "duration": 0.19157100000001037
                },
                {
                    "name": "B5",
                    "midi": 83,
                    "time": 137.93112000000076,
                    "velocity": 0.23622047244094488,
                    "duration": 0.19157100000001037
                },
                {
                    "name": "G5",
                    "midi": 79,
                    "time": 137.93112000000076,
                    "velocity": 0.1968503937007874,
                    "duration": 0.19157100000001037
                },
                {
                    "name": "E5",
                    "midi": 76,
                    "time": 137.93112000000076,
                    "velocity": 0.1968503937007874,
                    "duration": 0.19157100000001037
                },
                {
                    "name": "E5",
                    "midi": 76,
                    "time": 138.50583300000076,
                    "velocity": 0.2047244094488189,
                    "duration": 0.19157100000001037
                },
                {
                    "name": "A5",
                    "midi": 81,
                    "time": 138.50583300000076,
                    "velocity": 0.2440944881889764,
                    "duration": 0.19157100000001037
                },
                {
                    "name": "F5",
                    "midi": 77,
                    "time": 138.50583300000076,
                    "velocity": 0.2047244094488189,
                    "duration": 0.19157100000001037
                },
                {
                    "name": "A5",
                    "midi": 81,
                    "time": 139.08054600000077,
                    "velocity": 0.2440944881889764,
                    "duration": 0.19157100000001037
                },
                {
                    "name": "F5",
                    "midi": 77,
                    "time": 139.08054600000077,
                    "velocity": 0.2125984251968504,
                    "duration": 0.19157100000001037
                },
                {
                    "name": "D5",
                    "midi": 74,
                    "time": 139.08054600000077,
                    "velocity": 0.2125984251968504,
                    "duration": 0.19157100000001037
                },
                {
                    "name": "D5",
                    "midi": 74,
                    "time": 139.65525900000077,
                    "velocity": 0.2204724409448819,
                    "duration": 0.19157100000001037
                },
                {
                    "name": "G5",
                    "midi": 79,
                    "time": 139.65525900000077,
                    "velocity": 0.25984251968503935,
                    "duration": 0.19157100000001037
                },
                {
                    "name": "E5",
                    "midi": 76,
                    "time": 139.65525900000077,
                    "velocity": 0.2204724409448819,
                    "duration": 0.19157100000001037
                },
                {
                    "name": "G5",
                    "midi": 79,
                    "time": 140.22997200000077,
                    "velocity": 0.25984251968503935,
                    "duration": 0.19157100000001037
                },
                {
                    "name": "E5",
                    "midi": 76,
                    "time": 140.22997200000077,
                    "velocity": 0.2204724409448819,
                    "duration": 0.19157100000001037
                },
                {
                    "name": "C5",
                    "midi": 72,
                    "time": 140.22997200000077,
                    "velocity": 0.2204724409448819,
                    "duration": 0.19157100000001037
                },
                {
                    "name": "C5",
                    "midi": 72,
                    "time": 140.80468500000077,
                    "velocity": 0.2204724409448819,
                    "duration": 0.19157100000001037
                },
                {
                    "name": "F5",
                    "midi": 77,
                    "time": 140.80468500000077,
                    "velocity": 0.2677165354330709,
                    "duration": 0.19157100000001037
                },
                {
                    "name": "D5",
                    "midi": 74,
                    "time": 140.80468500000077,
                    "velocity": 0.2204724409448819,
                    "duration": 0.19157100000001037
                },
                {
                    "name": "F5",
                    "midi": 77,
                    "time": 141.37939800000078,
                    "velocity": 0.2755905511811024,
                    "duration": 0.19157100000001037
                },
                {
                    "name": "D5",
                    "midi": 74,
                    "time": 141.37939800000078,
                    "velocity": 0.23622047244094488,
                    "duration": 0.19157100000001037
                },
                {
                    "name": "B4",
                    "midi": 71,
                    "time": 141.37939800000078,
                    "velocity": 0.23622047244094488,
                    "duration": 0.19157100000001037
                },
                {
                    "name": "B4",
                    "midi": 71,
                    "time": 141.95411100000078,
                    "velocity": 0.23622047244094488,
                    "duration": 0.19157100000001037
                },
                {
                    "name": "E5",
                    "midi": 76,
                    "time": 141.95411100000078,
                    "velocity": 0.28346456692913385,
                    "duration": 0.19157100000001037
                },
                {
                    "name": "C5",
                    "midi": 72,
                    "time": 141.95411100000078,
                    "velocity": 0.23622047244094488,
                    "duration": 0.19157100000001037
                },
                {
                    "name": "E5",
                    "midi": 76,
                    "time": 142.52882400000078,
                    "velocity": 0.29133858267716534,
                    "duration": 0.19157100000001037
                },
                {
                    "name": "C5",
                    "midi": 72,
                    "time": 142.52882400000078,
                    "velocity": 0.2440944881889764,
                    "duration": 0.19157100000001037
                },
                {
                    "name": "A4",
                    "midi": 69,
                    "time": 142.52882400000078,
                    "velocity": 0.2440944881889764,
                    "duration": 0.19157100000001037
                },
                {
                    "name": "A4",
                    "midi": 69,
                    "time": 143.10353700000078,
                    "velocity": 0.25984251968503935,
                    "duration": 0.19157100000001037
                },
                {
                    "name": "D5",
                    "midi": 74,
                    "time": 143.10353700000078,
                    "velocity": 0.31496062992125984,
                    "duration": 0.19157100000001037
                },
                {
                    "name": "B4",
                    "midi": 71,
                    "time": 143.10353700000078,
                    "velocity": 0.25984251968503935,
                    "duration": 0.19157100000001037
                },
                {
                    "name": "E5",
                    "midi": 76,
                    "time": 143.6782500000008,
                    "velocity": 0.3228346456692913,
                    "duration": 0.19157100000001037
                },
                {
                    "name": "C5",
                    "midi": 72,
                    "time": 143.6782500000008,
                    "velocity": 0.2755905511811024,
                    "duration": 0.19157100000001037
                },
                {
                    "name": "A4",
                    "midi": 69,
                    "time": 143.6782500000008,
                    "velocity": 0.2755905511811024,
                    "duration": 0.19157100000001037
                },
                {
                    "name": "A4",
                    "midi": 69,
                    "time": 144.2529630000008,
                    "velocity": 0.29133858267716534,
                    "duration": 0.19157100000001037
                },
                {
                    "name": "D5",
                    "midi": 74,
                    "time": 144.2529630000008,
                    "velocity": 0.3464566929133858,
                    "duration": 0.19157100000001037
                },
                {
                    "name": "B4",
                    "midi": 71,
                    "time": 144.2529630000008,
                    "velocity": 0.29133858267716534,
                    "duration": 0.19157100000001037
                },
                {
                    "name": "C5",
                    "midi": 72,
                    "time": 144.8276760000008,
                    "velocity": 0.3700787401574803,
                    "duration": 0.19157100000001037
                },
                {
                    "name": "A4",
                    "midi": 69,
                    "time": 144.8276760000008,
                    "velocity": 0.31496062992125984,
                    "duration": 0.19157100000001037
                },
                {
                    "name": "F4",
                    "midi": 65,
                    "time": 144.8276760000008,
                    "velocity": 0.31496062992125984,
                    "duration": 0.19157100000001037
                },
                {
                    "name": "F4",
                    "midi": 65,
                    "time": 145.4023890000008,
                    "velocity": 0.33070866141732286,
                    "duration": 0.19157100000001037
                },
                {
                    "name": "B4",
                    "midi": 71,
                    "time": 145.4023890000008,
                    "velocity": 0.3937007874015748,
                    "duration": 0.19157100000001037
                },
                {
                    "name": "G4",
                    "midi": 67,
                    "time": 145.4023890000008,
                    "velocity": 0.33070866141732286,
                    "duration": 0.19157100000001037
                },
                {
                    "name": "C5",
                    "midi": 72,
                    "time": 145.9771020000008,
                    "velocity": 0.4094488188976378,
                    "duration": 0.19157100000001037
                },
                {
                    "name": "A4",
                    "midi": 69,
                    "time": 145.9771020000008,
                    "velocity": 0.3464566929133858,
                    "duration": 0.19157100000001037
                },
                {
                    "name": "F4",
                    "midi": 65,
                    "time": 145.9771020000008,
                    "velocity": 0.3464566929133858,
                    "duration": 0.19157100000001037
                },
                {
                    "name": "F4",
                    "midi": 65,
                    "time": 146.5518150000008,
                    "velocity": 0.3464566929133858,
                    "duration": 0.19157100000001037
                },
                {
                    "name": "B4",
                    "midi": 71,
                    "time": 146.5518150000008,
                    "velocity": 0.4094488188976378,
                    "duration": 0.19157100000001037
                },
                {
                    "name": "G4",
                    "midi": 67,
                    "time": 146.5518150000008,
                    "velocity": 0.3464566929133858,
                    "duration": 0.19157100000001037
                },
                {
                    "name": "B4",
                    "midi": 71,
                    "time": 147.1265280000008,
                    "velocity": 0.4094488188976378,
                    "duration": 0.19157100000001037
                },
                {
                    "name": "G4",
                    "midi": 67,
                    "time": 147.1265280000008,
                    "velocity": 0.3464566929133858,
                    "duration": 0.19157100000001037
                },
                {
                    "name": "E4",
                    "midi": 64,
                    "time": 147.1265280000008,
                    "velocity": 0.3464566929133858,
                    "duration": 0.19157100000001037
                },
                {
                    "name": "E4",
                    "midi": 64,
                    "time": 147.7012410000008,
                    "velocity": 0.3464566929133858,
                    "duration": 0.19157100000001037
                },
                {
                    "name": "A4",
                    "midi": 69,
                    "time": 147.7012410000008,
                    "velocity": 0.4094488188976378,
                    "duration": 0.19157100000001037
                },
                {
                    "name": "F4",
                    "midi": 65,
                    "time": 147.7012410000008,
                    "velocity": 0.3464566929133858,
                    "duration": 0.19157100000001037
                },
                {
                    "name": "A4",
                    "midi": 69,
                    "time": 148.2759540000008,
                    "velocity": 0.4094488188976378,
                    "duration": 0.19157100000001037
                },
                {
                    "name": "F4",
                    "midi": 65,
                    "time": 148.2759540000008,
                    "velocity": 0.3464566929133858,
                    "duration": 0.19157100000001037
                },
                {
                    "name": "D4",
                    "midi": 62,
                    "time": 148.2759540000008,
                    "velocity": 0.3464566929133858,
                    "duration": 0.19157100000001037
                },
                {
                    "name": "D4",
                    "midi": 62,
                    "time": 148.8506670000008,
                    "velocity": 0.3464566929133858,
                    "duration": 0.19157100000001037
                },
                {
                    "name": "G4",
                    "midi": 67,
                    "time": 148.8506670000008,
                    "velocity": 0.4094488188976378,
                    "duration": 0.19157100000001037
                },
                {
                    "name": "E4",
                    "midi": 64,
                    "time": 148.8506670000008,
                    "velocity": 0.3464566929133858,
                    "duration": 0.19157100000001037
                },
                {
                    "name": "G4",
                    "midi": 67,
                    "time": 149.4253800000008,
                    "velocity": 0.4094488188976378,
                    "duration": 0.19157100000001037
                },
                {
                    "name": "E4",
                    "midi": 64,
                    "time": 149.4253800000008,
                    "velocity": 0.3464566929133858,
                    "duration": 0.19157100000001037
                },
                {
                    "name": "C4",
                    "midi": 60,
                    "time": 149.4253800000008,
                    "velocity": 0.3464566929133858,
                    "duration": 0.19157100000001037
                },
                {
                    "name": "C4",
                    "midi": 60,
                    "time": 150.00009300000082,
                    "velocity": 0.3464566929133858,
                    "duration": 0.19157100000001037
                },
                {
                    "name": "F4",
                    "midi": 65,
                    "time": 150.00009300000082,
                    "velocity": 0.4094488188976378,
                    "duration": 0.19157100000001037
                },
                {
                    "name": "D4",
                    "midi": 62,
                    "time": 150.00009300000082,
                    "velocity": 0.3464566929133858,
                    "duration": 0.19157100000001037
                },
                {
                    "name": "F4",
                    "midi": 65,
                    "time": 150.57480600000082,
                    "velocity": 0.4094488188976378,
                    "duration": 0.19157100000001037
                },
                {
                    "name": "D4",
                    "midi": 62,
                    "time": 150.57480600000082,
                    "velocity": 0.3464566929133858,
                    "duration": 0.19157100000001037
                },
                {
                    "name": "B3",
                    "midi": 59,
                    "time": 150.57480600000082,
                    "velocity": 0.3464566929133858,
                    "duration": 0.19157100000001037
                },
                {
                    "name": "B3",
                    "midi": 59,
                    "time": 151.14951900000082,
                    "velocity": 0.3464566929133858,
                    "duration": 0.19157100000001037
                },
                {
                    "name": "E4",
                    "midi": 64,
                    "time": 151.14951900000082,
                    "velocity": 0.4094488188976378,
                    "duration": 0.19157100000001037
                },
                {
                    "name": "C4",
                    "midi": 60,
                    "time": 151.14951900000082,
                    "velocity": 0.3464566929133858,
                    "duration": 0.19157100000001037
                },
                {
                    "name": "E4",
                    "midi": 64,
                    "time": 151.72423200000082,
                    "velocity": 0.4094488188976378,
                    "duration": 0.19157100000001037
                },
                {
                    "name": "C4",
                    "midi": 60,
                    "time": 151.72423200000082,
                    "velocity": 0.3464566929133858,
                    "duration": 0.19157100000001037
                },
                {
                    "name": "A3",
                    "midi": 57,
                    "time": 151.72423200000082,
                    "velocity": 0.3464566929133858,
                    "duration": 0.19157100000001037
                },
                {
                    "name": "A3",
                    "midi": 57,
                    "time": 152.29894500000083,
                    "velocity": 0.3464566929133858,
                    "duration": 0.19157100000001037
                },
                {
                    "name": "D4",
                    "midi": 62,
                    "time": 152.29894500000083,
                    "velocity": 0.4094488188976378,
                    "duration": 0.19157100000001037
                },
                {
                    "name": "B3",
                    "midi": 59,
                    "time": 152.29894500000083,
                    "velocity": 0.3464566929133858,
                    "duration": 0.19157100000001037
                },
                {
                    "name": "D4",
                    "midi": 62,
                    "time": 152.87365800000083,
                    "velocity": 0.4094488188976378,
                    "duration": 0.19157100000001037
                },
                {
                    "name": "B3",
                    "midi": 59,
                    "time": 152.87365800000083,
                    "velocity": 0.3464566929133858,
                    "duration": 0.19157100000001037
                },
                {
                    "name": "G3",
                    "midi": 55,
                    "time": 152.87365800000083,
                    "velocity": 0.3464566929133858,
                    "duration": 0.19157100000001037
                },
                {
                    "name": "G3",
                    "midi": 55,
                    "time": 153.44837100000083,
                    "velocity": 0.3464566929133858,
                    "duration": 0.19157100000001037
                },
                {
                    "name": "C4",
                    "midi": 60,
                    "time": 153.44837100000083,
                    "velocity": 0.4094488188976378,
                    "duration": 0.19157100000001037
                },
                {
                    "name": "A3",
                    "midi": 57,
                    "time": 153.44837100000083,
                    "velocity": 0.3464566929133858,
                    "duration": 0.19157100000001037
                },
                {
                    "name": "E4",
                    "midi": 64,
                    "time": 154.02308400000084,
                    "velocity": 0.4094488188976378,
                    "duration": 0.19157100000001037
                },
                {
                    "name": "C4",
                    "midi": 60,
                    "time": 154.02308400000084,
                    "velocity": 0.3464566929133858,
                    "duration": 0.19157100000001037
                },
                {
                    "name": "A3",
                    "midi": 57,
                    "time": 154.02308400000084,
                    "velocity": 0.3464566929133858,
                    "duration": 0.19157100000001037
                },
                {
                    "name": "A3",
                    "midi": 57,
                    "time": 154.59779700000084,
                    "velocity": 0.3464566929133858,
                    "duration": 0.19157100000001037
                },
                {
                    "name": "D4",
                    "midi": 62,
                    "time": 154.59779700000084,
                    "velocity": 0.4094488188976378,
                    "duration": 0.19157100000001037
                },
                {
                    "name": "B3",
                    "midi": 59,
                    "time": 154.59779700000084,
                    "velocity": 0.3464566929133858,
                    "duration": 0.19157100000001037
                },
                {
                    "name": "C3",
                    "midi": 48,
                    "time": 154.78936800000085,
                    "velocity": 0.5354330708661418,
                    "duration": 0.06704984999998942
                },
                {
                    "name": "C4",
                    "midi": 60,
                    "time": 154.78936800000085,
                    "velocity": 0.6377952755905512,
                    "duration": 0.06704984999998942
                },
                {
                    "name": "C#3",
                    "midi": 49,
                    "time": 154.98093900000083,
                    "velocity": 0.48031496062992124,
                    "duration": 0.06704984999998942
                },
                {
                    "name": "C#4",
                    "midi": 61,
                    "time": 154.98093900000083,
                    "velocity": 0.5669291338582677,
                    "duration": 0.06704984999998942
                },
                {
                    "name": "C4",
                    "midi": 60,
                    "time": 155.1725100000008,
                    "velocity": 0.5748031496062992,
                    "duration": 0.04789274999998838
                },
                {
                    "name": "G#3",
                    "midi": 56,
                    "time": 155.1725100000008,
                    "velocity": 0.5748031496062992,
                    "duration": 0.04789274999998838
                },
                {
                    "name": "D#3",
                    "midi": 51,
                    "time": 155.1725100000008,
                    "velocity": 0.5748031496062992,
                    "duration": 0.06704984999998942
                },
                {
                    "name": "D#4",
                    "midi": 63,
                    "time": 155.1725100000008,
                    "velocity": 0.6771653543307087,
                    "duration": 0.06704984999998942
                },
                {
                    "name": "C3",
                    "midi": 48,
                    "time": 155.3640810000008,
                    "velocity": 0.5275590551181102,
                    "duration": 0.06704984999998942
                },
                {
                    "name": "C4",
                    "midi": 60,
                    "time": 155.3640810000008,
                    "velocity": 0.6220472440944882,
                    "duration": 0.06704984999998942
                },
                {
                    "name": "D#3",
                    "midi": 51,
                    "time": 155.55565200000078,
                    "velocity": 0.49606299212598426,
                    "duration": 0.38314200000002074
                },
                {
                    "name": "D#4",
                    "midi": 63,
                    "time": 155.55565200000078,
                    "velocity": 0.5984251968503937,
                    "duration": 0.38314200000002074
                },
                {
                    "name": "F3",
                    "midi": 53,
                    "time": 155.7472230000008,
                    "velocity": 0.48031496062992124,
                    "duration": 0.19157100000001037
                },
                {
                    "name": "G#3",
                    "midi": 56,
                    "time": 155.7472230000008,
                    "velocity": 0.48031496062992124,
                    "duration": 0.19157100000001037
                },
                {
                    "name": "C#3",
                    "midi": 49,
                    "time": 155.9387940000008,
                    "velocity": 0.5354330708661418,
                    "duration": 0.06704984999998942
                },
                {
                    "name": "C#4",
                    "midi": 61,
                    "time": 155.9387940000008,
                    "velocity": 0.6377952755905512,
                    "duration": 0.06704984999998942
                },
                {
                    "name": "C3",
                    "midi": 48,
                    "time": 156.13036500000078,
                    "velocity": 0.48031496062992124,
                    "duration": 0.06704984999998942
                },
                {
                    "name": "C4",
                    "midi": 60,
                    "time": 156.13036500000078,
                    "velocity": 0.5669291338582677,
                    "duration": 0.06704984999998942
                },
                {
                    "name": "C4",
                    "midi": 60,
                    "time": 156.32193600000076,
                    "velocity": 0.5039370078740157,
                    "duration": 0.09578550000000519
                },
                {
                    "name": "G#3",
                    "midi": 56,
                    "time": 156.32193600000076,
                    "velocity": 0.5039370078740157,
                    "duration": 0.09578550000000519
                },
                {
                    "name": "D#3",
                    "midi": 51,
                    "time": 156.32193600000076,
                    "velocity": 0.5039370078740157,
                    "duration": 0.09578550000000519
                },
                {
                    "name": "D#4",
                    "midi": 63,
                    "time": 156.32193600000076,
                    "velocity": 0.6062992125984252,
                    "duration": 0.09578550000000519
                },
                {
                    "name": "D#3",
                    "midi": 51,
                    "time": 156.70507800000075,
                    "velocity": 0.6220472440944882,
                    "duration": 0.38314200000002074
                },
                {
                    "name": "D#4",
                    "midi": 63,
                    "time": 156.70507800000075,
                    "velocity": 0.7322834645669292,
                    "duration": 0.38314200000002074
                },
                {
                    "name": "F3",
                    "midi": 53,
                    "time": 156.89664900000076,
                    "velocity": 0.48031496062992124,
                    "duration": 0.19157100000001037
                },
                {
                    "name": "G#3",
                    "midi": 56,
                    "time": 156.89664900000076,
                    "velocity": 0.48031496062992124,
                    "duration": 0.19157100000001037
                },
                {
                    "name": "C3",
                    "midi": 48,
                    "time": 157.08822000000077,
                    "velocity": 0.5354330708661418,
                    "duration": 0.06704984999998942
                },
                {
                    "name": "C4",
                    "midi": 60,
                    "time": 157.08822000000077,
                    "velocity": 0.6377952755905512,
                    "duration": 0.06704984999998942
                },
                {
                    "name": "C#3",
                    "midi": 49,
                    "time": 157.27979100000076,
                    "velocity": 0.48031496062992124,
                    "duration": 0.06704984999998942
                },
                {
                    "name": "C#4",
                    "midi": 61,
                    "time": 157.27979100000076,
                    "velocity": 0.5669291338582677,
                    "duration": 0.06704984999998942
                },
                {
                    "name": "C4",
                    "midi": 60,
                    "time": 157.47136200000074,
                    "velocity": 0.5748031496062992,
                    "duration": 0.04789274999998838
                },
                {
                    "name": "G#3",
                    "midi": 56,
                    "time": 157.47136200000074,
                    "velocity": 0.5748031496062992,
                    "duration": 0.04789274999998838
                },
                {
                    "name": "D#3",
                    "midi": 51,
                    "time": 157.47136200000074,
                    "velocity": 0.5748031496062992,
                    "duration": 0.06704984999998942
                },
                {
                    "name": "D#4",
                    "midi": 63,
                    "time": 157.47136200000074,
                    "velocity": 0.6771653543307087,
                    "duration": 0.06704984999998942
                },
                {
                    "name": "C3",
                    "midi": 48,
                    "time": 157.66293300000072,
                    "velocity": 0.5275590551181102,
                    "duration": 0.06704984999998942
                },
                {
                    "name": "C4",
                    "midi": 60,
                    "time": 157.66293300000072,
                    "velocity": 0.6220472440944882,
                    "duration": 0.06704984999998942
                },
                {
                    "name": "D#3",
                    "midi": 51,
                    "time": 157.8545040000007,
                    "velocity": 0.49606299212598426,
                    "duration": 0.38314200000002074
                },
                {
                    "name": "D#4",
                    "midi": 63,
                    "time": 157.8545040000007,
                    "velocity": 0.5984251968503937,
                    "duration": 0.38314200000002074
                },
                {
                    "name": "F3",
                    "midi": 53,
                    "time": 158.0460750000007,
                    "velocity": 0.48031496062992124,
                    "duration": 0.19157100000001037
                },
                {
                    "name": "G#3",
                    "midi": 56,
                    "time": 158.0460750000007,
                    "velocity": 0.48031496062992124,
                    "duration": 0.19157100000001037
                },
                {
                    "name": "C#3",
                    "midi": 49,
                    "time": 158.23764600000072,
                    "velocity": 0.5354330708661418,
                    "duration": 0.06704984999998942
                },
                {
                    "name": "C#4",
                    "midi": 61,
                    "time": 158.23764600000072,
                    "velocity": 0.6377952755905512,
                    "duration": 0.06704984999998942
                },
                {
                    "name": "C3",
                    "midi": 48,
                    "time": 158.4292170000007,
                    "velocity": 0.48031496062992124,
                    "duration": 0.06704984999998942
                },
                {
                    "name": "C4",
                    "midi": 60,
                    "time": 158.4292170000007,
                    "velocity": 0.5669291338582677,
                    "duration": 0.06704984999998942
                },
                {
                    "name": "C4",
                    "midi": 60,
                    "time": 158.6207880000007,
                    "velocity": 0.5039370078740157,
                    "duration": 0.09578550000000519
                },
                {
                    "name": "G#3",
                    "midi": 56,
                    "time": 158.6207880000007,
                    "velocity": 0.5039370078740157,
                    "duration": 0.09578550000000519
                },
                {
                    "name": "D#3",
                    "midi": 51,
                    "time": 158.6207880000007,
                    "velocity": 0.5039370078740157,
                    "duration": 0.09578550000000519
                },
                {
                    "name": "D#4",
                    "midi": 63,
                    "time": 158.6207880000007,
                    "velocity": 0.6062992125984252,
                    "duration": 0.09578550000000519
                },
                {
                    "name": "D#3",
                    "midi": 51,
                    "time": 159.00393000000068,
                    "velocity": 0.6220472440944882,
                    "duration": 0.38314200000002074
                },
                {
                    "name": "D#4",
                    "midi": 63,
                    "time": 159.00393000000068,
                    "velocity": 0.7322834645669292,
                    "duration": 0.38314200000002074
                },
                {
                    "name": "F3",
                    "midi": 53,
                    "time": 159.1955010000007,
                    "velocity": 0.48031496062992124,
                    "duration": 0.19157100000001037
                },
                {
                    "name": "G#3",
                    "midi": 56,
                    "time": 159.1955010000007,
                    "velocity": 0.48031496062992124,
                    "duration": 0.19157100000001037
                },
                {
                    "name": "C3",
                    "midi": 48,
                    "time": 159.3870720000007,
                    "velocity": 0.5826771653543307,
                    "duration": 0.06704984999998942
                },
                {
                    "name": "C4",
                    "midi": 60,
                    "time": 159.3870720000007,
                    "velocity": 0.7007874015748031,
                    "duration": 0.06704984999998942
                },
                {
                    "name": "D3",
                    "midi": 50,
                    "time": 159.57864300000068,
                    "velocity": 0.5275590551181102,
                    "duration": 0.06704984999998942
                },
                {
                    "name": "D4",
                    "midi": 62,
                    "time": 159.57864300000068,
                    "velocity": 0.6220472440944882,
                    "duration": 0.06704984999998942
                },
                {
                    "name": "C4",
                    "midi": 60,
                    "time": 159.77021400000066,
                    "velocity": 0.6299212598425197,
                    "duration": 0.04789274999998838
                },
                {
                    "name": "G3",
                    "midi": 55,
                    "time": 159.77021400000066,
                    "velocity": 0.5354330708661418,
                    "duration": 0.04789274999998838
                },
                {
                    "name": "E3",
                    "midi": 52,
                    "time": 159.77021400000066,
                    "velocity": 0.5354330708661418,
                    "duration": 0.06704984999998942
                },
                {
                    "name": "E4",
                    "midi": 64,
                    "time": 159.77021400000066,
                    "velocity": 0.7401574803149606,
                    "duration": 0.06704984999998942
                },
                {
                    "name": "C3",
                    "midi": 48,
                    "time": 159.96178500000065,
                    "velocity": 0.5748031496062992,
                    "duration": 0.06704984999998942
                },
                {
                    "name": "C4",
                    "midi": 60,
                    "time": 159.96178500000065,
                    "velocity": 0.6771653543307087,
                    "duration": 0.06704984999998942
                },
                {
                    "name": "E3",
                    "midi": 52,
                    "time": 160.15335600000063,
                    "velocity": 0.5433070866141733,
                    "duration": 0.38314200000002074
                },
                {
                    "name": "E4",
                    "midi": 64,
                    "time": 160.15335600000063,
                    "velocity": 0.6535433070866141,
                    "duration": 0.38314200000002074
                },
                {
                    "name": "F3",
                    "midi": 53,
                    "time": 160.34492700000064,
                    "velocity": 0.5275590551181102,
                    "duration": 0.19157100000001037
                },
                {
                    "name": "A3",
                    "midi": 57,
                    "time": 160.34492700000064,
                    "velocity": 0.5275590551181102,
                    "duration": 0.19157100000001037
                },
                {
                    "name": "D3",
                    "midi": 50,
                    "time": 160.53649800000065,
                    "velocity": 0.5826771653543307,
                    "duration": 0.06704984999998942
                },
                {
                    "name": "D4",
                    "midi": 62,
                    "time": 160.53649800000065,
                    "velocity": 0.7007874015748031,
                    "duration": 0.06704984999998942
                },
                {
                    "name": "C3",
                    "midi": 48,
                    "time": 160.72806900000063,
                    "velocity": 0.5275590551181102,
                    "duration": 0.06704984999998942
                },
                {
                    "name": "C4",
                    "midi": 60,
                    "time": 160.72806900000063,
                    "velocity": 0.6220472440944882,
                    "duration": 0.06704984999998942
                },
                {
                    "name": "C4",
                    "midi": 60,
                    "time": 160.9196400000006,
                    "velocity": 0.5511811023622047,
                    "duration": 0.09578550000000519
                },
                {
                    "name": "G3",
                    "midi": 55,
                    "time": 160.9196400000006,
                    "velocity": 0.5511811023622047,
                    "duration": 0.09578550000000519
                },
                {
                    "name": "E3",
                    "midi": 52,
                    "time": 160.9196400000006,
                    "velocity": 0.5511811023622047,
                    "duration": 0.09578550000000519
                },
                {
                    "name": "E4",
                    "midi": 64,
                    "time": 160.9196400000006,
                    "velocity": 0.6614173228346457,
                    "duration": 0.09578550000000519
                },
                {
                    "name": "E3",
                    "midi": 52,
                    "time": 161.3027820000006,
                    "velocity": 0.6535433070866141,
                    "duration": 0.38314200000002074
                },
                {
                    "name": "E4",
                    "midi": 64,
                    "time": 161.3027820000006,
                    "velocity": 0.7716535433070866,
                    "duration": 0.38314200000002074
                },
                {
                    "name": "F3",
                    "midi": 53,
                    "time": 161.49435300000061,
                    "velocity": 0.5275590551181102,
                    "duration": 0.19157100000001037
                },
                {
                    "name": "A3",
                    "midi": 57,
                    "time": 161.49435300000061,
                    "velocity": 0.5275590551181102,
                    "duration": 0.19157100000001037
                },
                {
                    "name": "C3",
                    "midi": 48,
                    "time": 161.68592400000063,
                    "velocity": 0.5826771653543307,
                    "duration": 0.06704984999998942
                },
                {
                    "name": "C4",
                    "midi": 60,
                    "time": 161.68592400000063,
                    "velocity": 0.7007874015748031,
                    "duration": 0.06704984999998942
                },
                {
                    "name": "D3",
                    "midi": 50,
                    "time": 161.8774950000006,
                    "velocity": 0.5275590551181102,
                    "duration": 0.06704984999998942
                },
                {
                    "name": "D4",
                    "midi": 62,
                    "time": 161.8774950000006,
                    "velocity": 0.6220472440944882,
                    "duration": 0.06704984999998942
                },
                {
                    "name": "C4",
                    "midi": 60,
                    "time": 162.0690660000006,
                    "velocity": 0.6299212598425197,
                    "duration": 0.04789274999998838
                },
                {
                    "name": "G3",
                    "midi": 55,
                    "time": 162.0690660000006,
                    "velocity": 0.6299212598425197,
                    "duration": 0.04789274999998838
                },
                {
                    "name": "E3",
                    "midi": 52,
                    "time": 162.0690660000006,
                    "velocity": 0.6299212598425197,
                    "duration": 0.06704984999998942
                },
                {
                    "name": "E4",
                    "midi": 64,
                    "time": 162.0690660000006,
                    "velocity": 0.7401574803149606,
                    "duration": 0.06704984999998942
                },
                {
                    "name": "C3",
                    "midi": 48,
                    "time": 162.26063700000057,
                    "velocity": 0.5748031496062992,
                    "duration": 0.06704984999998942
                },
                {
                    "name": "C4",
                    "midi": 60,
                    "time": 162.26063700000057,
                    "velocity": 0.6771653543307087,
                    "duration": 0.06704984999998942
                },
                {
                    "name": "E3",
                    "midi": 52,
                    "time": 162.45220800000055,
                    "velocity": 0.5433070866141733,
                    "duration": 0.38314200000002074
                },
                {
                    "name": "E4",
                    "midi": 64,
                    "time": 162.45220800000055,
                    "velocity": 0.6535433070866141,
                    "duration": 0.38314200000002074
                },
                {
                    "name": "F3",
                    "midi": 53,
                    "time": 162.64377900000056,
                    "velocity": 0.5275590551181102,
                    "duration": 0.19157100000001037
                },
                {
                    "name": "A3",
                    "midi": 57,
                    "time": 162.64377900000056,
                    "velocity": 0.5275590551181102,
                    "duration": 0.19157100000001037
                },
                {
                    "name": "D3",
                    "midi": 50,
                    "time": 162.83535000000057,
                    "velocity": 0.5826771653543307,
                    "duration": 0.06704984999998942
                },
                {
                    "name": "D4",
                    "midi": 62,
                    "time": 162.83535000000057,
                    "velocity": 0.7007874015748031,
                    "duration": 0.06704984999998942
                },
                {
                    "name": "C3",
                    "midi": 48,
                    "time": 163.02692100000056,
                    "velocity": 0.5275590551181102,
                    "duration": 0.06704984999998942
                },
                {
                    "name": "C4",
                    "midi": 60,
                    "time": 163.02692100000056,
                    "velocity": 0.6220472440944882,
                    "duration": 0.06704984999998942
                },
                {
                    "name": "C4",
                    "midi": 60,
                    "time": 163.21849200000054,
                    "velocity": 0.5511811023622047,
                    "duration": 0.09578550000000519
                },
                {
                    "name": "G3",
                    "midi": 55,
                    "time": 163.21849200000054,
                    "velocity": 0.5511811023622047,
                    "duration": 0.09578550000000519
                },
                {
                    "name": "E3",
                    "midi": 52,
                    "time": 163.21849200000054,
                    "velocity": 0.5511811023622047,
                    "duration": 0.09578550000000519
                },
                {
                    "name": "E4",
                    "midi": 64,
                    "time": 163.21849200000054,
                    "velocity": 0.6614173228346457,
                    "duration": 0.09578550000000519
                },
                {
                    "name": "E3",
                    "midi": 52,
                    "time": 163.60163400000053,
                    "velocity": 0.6535433070866141,
                    "duration": 0.38314200000002074
                },
                {
                    "name": "E4",
                    "midi": 64,
                    "time": 163.60163400000053,
                    "velocity": 0.7716535433070866,
                    "duration": 0.38314200000002074
                },
                {
                    "name": "F3",
                    "midi": 53,
                    "time": 163.79320500000054,
                    "velocity": 0.5275590551181102,
                    "duration": 0.19157100000001037
                },
                {
                    "name": "A3",
                    "midi": 57,
                    "time": 163.79320500000054,
                    "velocity": 0.5275590551181102,
                    "duration": 0.19157100000001037
                },
                {
                    "name": "C3",
                    "midi": 48,
                    "time": 163.98477600000055,
                    "velocity": 0.5511811023622047,
                    "duration": 0.04789274999998838
                },
                {
                    "name": "C4",
                    "midi": 60,
                    "time": 163.98477600000055,
                    "velocity": 0.5511811023622047,
                    "duration": 0.04789274999998838
                },
                {
                    "name": "D3",
                    "midi": 50,
                    "time": 164.17634700000053,
                    "velocity": 0.5511811023622047,
                    "duration": 0.04789274999998838
                },
                {
                    "name": "D4",
                    "midi": 62,
                    "time": 164.17634700000053,
                    "velocity": 0.5511811023622047,
                    "duration": 0.04789274999998838
                },
                {
                    "name": "E3",
                    "midi": 52,
                    "time": 165.9004860000005,
                    "velocity": 0.4566929133858268,
                    "duration": 0.3831419999999923
                },
                {
                    "name": "C3",
                    "midi": 48,
                    "time": 166.2836280000005,
                    "velocity": 0.4881889763779528,
                    "duration": 0.06704984999998942
                },
                {
                    "name": "D3",
                    "midi": 50,
                    "time": 166.4751990000005,
                    "velocity": 0.4330708661417323,
                    "duration": 0.06704984999998942
                },
                {
                    "name": "C4",
                    "midi": 60,
                    "time": 168.5824800000005,
                    "velocity": 0.31496062992125984,
                    "duration": 0.19157100000001037
                },
                {
                    "name": "D4",
                    "midi": 62,
                    "time": 168.7740510000005,
                    "velocity": 0.29133858267716534,
                    "duration": 0.19157100000001037
                },
                {
                    "name": "F3",
                    "midi": 53,
                    "time": 168.9656220000005,
                    "velocity": 0.2677165354330709,
                    "duration": 0.5747130000000311
                },
                {
                    "name": "E4",
                    "midi": 64,
                    "time": 168.9656220000005,
                    "velocity": 0.3543307086614173,
                    "duration": 0.19157100000001037
                },
                {
                    "name": "C4",
                    "midi": 60,
                    "time": 169.15719300000052,
                    "velocity": 0.2992125984251969,
                    "duration": 0.19157100000001037
                },
                {
                    "name": "E4",
                    "midi": 64,
                    "time": 169.34876400000053,
                    "velocity": 0.2992125984251969,
                    "duration": 0.28735650000001556
                },
                {
                    "name": "G3",
                    "midi": 55,
                    "time": 169.54033500000054,
                    "velocity": 0.2677165354330709,
                    "duration": 0.5747130000000027
                },
                {
                    "name": "D4",
                    "midi": 62,
                    "time": 169.63612050000054,
                    "velocity": 0.2677165354330709,
                    "duration": 0.04789274999998838
                },
                {
                    "name": "E4",
                    "midi": 64,
                    "time": 169.68401325000053,
                    "velocity": 0.2677165354330709,
                    "duration": 0.04789274999998838
                },
                {
                    "name": "D4",
                    "midi": 62,
                    "time": 169.73190600000052,
                    "velocity": 0.33858267716535434,
                    "duration": 0.19157100000001037
                },
                {
                    "name": "B3",
                    "midi": 59,
                    "time": 169.92347700000053,
                    "velocity": 0.33070866141732286,
                    "duration": 0.19157100000001037
                },
                {
                    "name": "C4",
                    "midi": 60,
                    "time": 170.11504800000054,
                    "velocity": 0.3700787401574803,
                    "duration": 0.09578550000000519
                },
                {
                    "name": "C4",
                    "midi": 60,
                    "time": 170.49819000000053,
                    "velocity": 0.3858267716535433,
                    "duration": 0.33524925000000394
                },
                {
                    "name": "C4",
                    "midi": 60,
                    "time": 170.88133200000053,
                    "velocity": 0.31496062992125984,
                    "duration": 0.19157100000001037
                },
                {
                    "name": "D4",
                    "midi": 62,
                    "time": 171.07290300000054,
                    "velocity": 0.29133858267716534,
                    "duration": 0.19157100000001037
                },
                {
                    "name": "F3",
                    "midi": 53,
                    "time": 171.26447400000055,
                    "velocity": 0.2677165354330709,
                    "duration": 0.5747130000000311
                },
                {
                    "name": "E4",
                    "midi": 64,
                    "time": 171.26447400000055,
                    "velocity": 0.3543307086614173,
                    "duration": 0.19157100000001037
                },
                {
                    "name": "C4",
                    "midi": 60,
                    "time": 171.45604500000056,
                    "velocity": 0.2992125984251969,
                    "duration": 0.19157100000001037
                },
                {
                    "name": "E4",
                    "midi": 64,
                    "time": 171.64761600000057,
                    "velocity": 0.2992125984251969,
                    "duration": 0.28735650000001556
                },
                {
                    "name": "G3",
                    "midi": 55,
                    "time": 171.83918700000058,
                    "velocity": 0.2677165354330709,
                    "duration": 0.5747130000000027
                },
                {
                    "name": "D4",
                    "midi": 62,
                    "time": 171.93497250000058,
                    "velocity": 0.2677165354330709,
                    "duration": 0.04789274999998838
                },
                {
                    "name": "E4",
                    "midi": 64,
                    "time": 171.98286525000057,
                    "velocity": 0.2677165354330709,
                    "duration": 0.04789274999998838
                },
                {
                    "name": "D4",
                    "midi": 62,
                    "time": 172.03075800000056,
                    "velocity": 0.33858267716535434,
                    "duration": 0.19157100000001037
                },
                {
                    "name": "B3",
                    "midi": 59,
                    "time": 172.22232900000057,
                    "velocity": 0.33070866141732286,
                    "duration": 0.19157100000001037
                },
                {
                    "name": "C4",
                    "midi": 60,
                    "time": 172.41390000000058,
                    "velocity": 0.3700787401574803,
                    "duration": 0.09578550000000519
                },
                {
                    "name": "C4",
                    "midi": 60,
                    "time": 172.79704200000057,
                    "velocity": 0.3858267716535433,
                    "duration": 0.3831419999999923
                },
                {
                    "name": "D4",
                    "midi": 62,
                    "time": 173.18018400000057,
                    "velocity": 0.33858267716535434,
                    "duration": 0.19157100000001037
                },
                {
                    "name": "E4",
                    "midi": 64,
                    "time": 173.37175500000058,
                    "velocity": 0.33070866141732286,
                    "duration": 0.19157100000001037
                },
                {
                    "name": "C4",
                    "midi": 60,
                    "time": 173.5633260000006,
                    "velocity": 0.3700787401574803,
                    "duration": 0.09578550000000519
                },
                {
                    "name": "C4",
                    "midi": 60,
                    "time": 173.94646800000058,
                    "velocity": 0.3858267716535433,
                    "duration": 0.3831419999999923
                },
                {
                    "name": "B3",
                    "midi": 59,
                    "time": 174.32961000000057,
                    "velocity": 0.33858267716535434,
                    "duration": 0.19157100000001037
                },
                {
                    "name": "G3",
                    "midi": 55,
                    "time": 174.52118100000058,
                    "velocity": 0.33070866141732286,
                    "duration": 0.19157100000001037
                },
                {
                    "name": "C4",
                    "midi": 60,
                    "time": 174.7127520000006,
                    "velocity": 0.3700787401574803,
                    "duration": 0.09578550000000519
                },
                {
                    "name": "C4",
                    "midi": 60,
                    "time": 175.09589400000058,
                    "velocity": 0.3228346456692913,
                    "duration": 0.38314200000002074
                },
                {
                    "name": "F3",
                    "midi": 53,
                    "time": 175.2874650000006,
                    "velocity": 0.2677165354330709,
                    "duration": 0.5747130000000311
                },
                {
                    "name": "D4",
                    "midi": 62,
                    "time": 175.4790360000006,
                    "velocity": 0.28346456692913385,
                    "duration": 0.19157100000001037
                },
                {
                    "name": "E4",
                    "midi": 64,
                    "time": 175.67060700000062,
                    "velocity": 0.2755905511811024,
                    "duration": 0.19157100000001037
                },
                {
                    "name": "E3",
                    "midi": 52,
                    "time": 175.86217800000063,
                    "velocity": 0.2677165354330709,
                    "duration": 0.5747130000000027
                },
                {
                    "name": "C4",
                    "midi": 60,
                    "time": 175.86217800000063,
                    "velocity": 0.30708661417322836,
                    "duration": 0.09578550000000519
                },
                {
                    "name": "C4",
                    "midi": 60,
                    "time": 176.24532000000062,
                    "velocity": 0.2677165354330709,
                    "duration": 0.38314200000002074
                },
                {
                    "name": "D3",
                    "midi": 50,
                    "time": 176.43689100000063,
                    "velocity": 0.2204724409448819,
                    "duration": 0.5747130000000311
                },
                {
                    "name": "B3",
                    "midi": 59,
                    "time": 176.62846200000064,
                    "velocity": 0.23622047244094488,
                    "duration": 0.19157100000001037
                },
                {
                    "name": "G3",
                    "midi": 55,
                    "time": 176.82003300000065,
                    "velocity": 0.2283464566929134,
                    "duration": 0.19157100000001037
                },
                {
                    "name": "E3",
                    "midi": 52,
                    "time": 177.01160400000066,
                    "velocity": 0.2204724409448819,
                    "duration": 0.09578550000000519
                },
                {
                    "name": "C4",
                    "midi": 60,
                    "time": 177.01160400000066,
                    "velocity": 0.25984251968503935,
                    "duration": 0.09578550000000519
                },
                {
                    "name": "E3",
                    "midi": 52,
                    "time": 177.39474600000065,
                    "velocity": 0.2204724409448819,
                    "duration": 0.7662840000000131
                },
                {
                    "name": "C4",
                    "midi": 60,
                    "time": 177.39474600000065,
                    "velocity": 0.25984251968503935,
                    "duration": 0.7662840000000131
                },
                {
                    "name": "C5",
                    "midi": 72,
                    "time": 178.16103000000066,
                    "velocity": 0.2204724409448819,
                    "duration": 0.09578550000000519
                },
                {
                    "name": "E4",
                    "midi": 64,
                    "time": 178.16103000000066,
                    "velocity": 0.18110236220472442,
                    "duration": 0.09578550000000519
                },
                {
                    "name": "C5",
                    "midi": 72,
                    "time": 178.54417200000066,
                    "velocity": 0.2204724409448819,
                    "duration": 0.7662840000000131
                },
                {
                    "name": "E4",
                    "midi": 64,
                    "time": 178.54417200000066,
                    "velocity": 0.18110236220472442,
                    "duration": 0.7662840000000131
                },
                {
                    "name": "E5",
                    "midi": 76,
                    "time": 179.31045600000067,
                    "velocity": 0.14960629921259844,
                    "duration": 0.09578550000000519
                },
                {
                    "name": "C6",
                    "midi": 84,
                    "time": 179.31045600000067,
                    "velocity": 0.18110236220472442,
                    "duration": 0.09578550000000519
                },
                {
                    "name": "E5",
                    "midi": 76,
                    "time": 179.69359800000066,
                    "velocity": 0.14960629921259844,
                    "duration": 2.2988520000000108
                },
                {
                    "name": "C6",
                    "midi": 84,
                    "time": 179.69359800000066,
                    "velocity": 0.18110236220472442,
                    "duration": 2.2988520000000108
                }
            ],
            "controlChanges": {},
            "id": 1,
            "name": "Piano right",
            "instrumentNumber": 0,
            "instrument": "acoustic grand piano",
            "instrumentFamily": "piano",
            "channelNumber": 0,
            "isPercussion": false
        },
        {
            "startTime": 0,
            "duration": 181.99245000000047,
            "length": 764,
            "notes": [
                {
                    "name": "C3",
                    "midi": 48,
                    "time": 0,
                    "velocity": 0.31496062992125984,
                    "duration": 5.74713
                },
                {
                    "name": "C4",
                    "midi": 60,
                    "time": 0,
                    "velocity": 0.7559055118110236,
                    "duration": 0.574713
                },
                {
                    "name": "B3",
                    "midi": 59,
                    "time": 0.574713,
                    "velocity": 0.25196850393700787,
                    "duration": 0.574713
                },
                {
                    "name": "A3",
                    "midi": 57,
                    "time": 1.149426,
                    "velocity": 0.25984251968503935,
                    "duration": 0.574713
                },
                {
                    "name": "B3",
                    "midi": 59,
                    "time": 1.724139,
                    "velocity": 0.2125984251968504,
                    "duration": 0.574713
                },
                {
                    "name": "G3",
                    "midi": 55,
                    "time": 2.298852,
                    "velocity": 0.2440944881889764,
                    "duration": 0.574713
                },
                {
                    "name": "A3",
                    "midi": 57,
                    "time": 2.873565,
                    "velocity": 0.2283464566929134,
                    "duration": 0.574713
                },
                {
                    "name": "F3",
                    "midi": 53,
                    "time": 3.448278,
                    "velocity": 0.25984251968503935,
                    "duration": 0.574713
                },
                {
                    "name": "E3",
                    "midi": 52,
                    "time": 4.022991,
                    "velocity": 0.2125984251968504,
                    "duration": 0.574713
                },
                {
                    "name": "D3",
                    "midi": 50,
                    "time": 4.597704,
                    "velocity": 0.2440944881889764,
                    "duration": 0.574713
                },
                {
                    "name": "E3",
                    "midi": 52,
                    "time": 5.172417,
                    "velocity": 0.2125984251968504,
                    "duration": 0.574713
                },
                {
                    "name": "G2",
                    "midi": 43,
                    "time": 5.74713,
                    "velocity": 0.2204724409448819,
                    "duration": 2.298852
                },
                {
                    "name": "D3",
                    "midi": 50,
                    "time": 5.74713,
                    "velocity": 0.25984251968503935,
                    "duration": 0.574713
                },
                {
                    "name": "C3",
                    "midi": 48,
                    "time": 6.321843,
                    "velocity": 0.2125984251968504,
                    "duration": 0.574713
                },
                {
                    "name": "D3",
                    "midi": 50,
                    "time": 6.896556,
                    "velocity": 0.2283464566929134,
                    "duration": 0.574713
                },
                {
                    "name": "C3",
                    "midi": 48,
                    "time": 7.471269,
                    "velocity": 0.1732283464566929,
                    "duration": 0.574713
                },
                {
                    "name": "G2",
                    "midi": 43,
                    "time": 8.045982,
                    "velocity": 0.14960629921259844,
                    "duration": 0.5747130000000009
                },
                {
                    "name": "D3",
                    "midi": 50,
                    "time": 8.045982,
                    "velocity": 0.18110236220472442,
                    "duration": 0.5747130000000009
                },
                {
                    "name": "G1",
                    "midi": 31,
                    "time": 8.620695000000001,
                    "velocity": 0.14960629921259844,
                    "duration": 0.5747129999999991
                },
                {
                    "name": "D2",
                    "midi": 38,
                    "time": 8.620695000000001,
                    "velocity": 0.18110236220472442,
                    "duration": 0.5747129999999991
                },
                {
                    "name": "C3",
                    "midi": 48,
                    "time": 9.195408,
                    "velocity": 0.31496062992125984,
                    "duration": 5.747129999999991
                },
                {
                    "name": "C4",
                    "midi": 60,
                    "time": 9.195408,
                    "velocity": 0.7559055118110236,
                    "duration": 0.5747129999999991
                },
                {
                    "name": "B3",
                    "midi": 59,
                    "time": 9.770121,
                    "velocity": 0.25196850393700787,
                    "duration": 0.5747129999999991
                },
                {
                    "name": "A3",
                    "midi": 57,
                    "time": 10.344833999999999,
                    "velocity": 0.25984251968503935,
                    "duration": 0.5747129999999991
                },
                {
                    "name": "B3",
                    "midi": 59,
                    "time": 10.919546999999998,
                    "velocity": 0.2125984251968504,
                    "duration": 0.5747129999999991
                },
                {
                    "name": "G3",
                    "midi": 55,
                    "time": 11.494259999999997,
                    "velocity": 0.2440944881889764,
                    "duration": 0.5747129999999991
                },
                {
                    "name": "A3",
                    "midi": 57,
                    "time": 12.068972999999996,
                    "velocity": 0.2283464566929134,
                    "duration": 0.5747129999999991
                },
                {
                    "name": "F3",
                    "midi": 53,
                    "time": 12.643685999999995,
                    "velocity": 0.25984251968503935,
                    "duration": 0.5747129999999991
                },
                {
                    "name": "E3",
                    "midi": 52,
                    "time": 13.218398999999994,
                    "velocity": 0.2125984251968504,
                    "duration": 0.5747129999999991
                },
                {
                    "name": "D3",
                    "midi": 50,
                    "time": 13.793111999999994,
                    "velocity": 0.2440944881889764,
                    "duration": 0.5747129999999991
                },
                {
                    "name": "E3",
                    "midi": 52,
                    "time": 14.367824999999993,
                    "velocity": 0.2125984251968504,
                    "duration": 0.5747129999999991
                },
                {
                    "name": "G2",
                    "midi": 43,
                    "time": 14.942537999999992,
                    "velocity": 0.2204724409448819,
                    "duration": 2.2988519999999966
                },
                {
                    "name": "D3",
                    "midi": 50,
                    "time": 14.942537999999992,
                    "velocity": 0.25984251968503935,
                    "duration": 0.5747129999999991
                },
                {
                    "name": "C3",
                    "midi": 48,
                    "time": 15.517250999999991,
                    "velocity": 0.2125984251968504,
                    "duration": 0.5747129999999991
                },
                {
                    "name": "D3",
                    "midi": 50,
                    "time": 16.09196399999999,
                    "velocity": 0.2283464566929134,
                    "duration": 0.5747129999999991
                },
                {
                    "name": "C3",
                    "midi": 48,
                    "time": 16.66667699999999,
                    "velocity": 0.1732283464566929,
                    "duration": 0.5747129999999991
                },
                {
                    "name": "G2",
                    "midi": 43,
                    "time": 17.24138999999999,
                    "velocity": 0.14960629921259844,
                    "duration": 0.5747129999999991
                },
                {
                    "name": "D3",
                    "midi": 50,
                    "time": 17.24138999999999,
                    "velocity": 0.18110236220472442,
                    "duration": 0.5747129999999991
                },
                {
                    "name": "G1",
                    "midi": 31,
                    "time": 17.816102999999988,
                    "velocity": 0.14960629921259844,
                    "duration": 0.5747129999999991
                },
                {
                    "name": "D2",
                    "midi": 38,
                    "time": 17.816102999999988,
                    "velocity": 0.18110236220472442,
                    "duration": 0.5747129999999991
                },
                {
                    "name": "G2",
                    "midi": 43,
                    "time": 18.390815999999987,
                    "velocity": 0.1732283464566929,
                    "duration": 0.7662839999999989
                },
                {
                    "name": "D3",
                    "midi": 50,
                    "time": 18.390815999999987,
                    "velocity": 0.2047244094488189,
                    "duration": 0.7662839999999989
                },
                {
                    "name": "D4",
                    "midi": 62,
                    "time": 19.157099999999986,
                    "velocity": 0.6220472440944882,
                    "duration": 0.09578550000000163
                },
                {
                    "name": "E4",
                    "midi": 64,
                    "time": 19.34867099999999,
                    "velocity": 0.5748031496062992,
                    "duration": 0.09578550000000163
                },
                {
                    "name": "F4",
                    "midi": 65,
                    "time": 19.540241999999992,
                    "velocity": 0.7007874015748031,
                    "duration": 0.09578550000000163
                },
                {
                    "name": "D4",
                    "midi": 62,
                    "time": 19.731812999999995,
                    "velocity": 0.5826771653543307,
                    "duration": 0.09578550000000163
                },
                {
                    "name": "F4",
                    "midi": 65,
                    "time": 19.923384,
                    "velocity": 0.5826771653543307,
                    "duration": 0.28735650000000135
                },
                {
                    "name": "E4",
                    "midi": 64,
                    "time": 20.2107405,
                    "velocity": 0.5275590551181102,
                    "duration": 0.04789274999999904
                },
                {
                    "name": "F4",
                    "midi": 65,
                    "time": 20.25863325,
                    "velocity": 0.5275590551181102,
                    "duration": 0.04789274999999904
                },
                {
                    "name": "E4",
                    "midi": 64,
                    "time": 20.306525999999998,
                    "velocity": 0.6614173228346457,
                    "duration": 0.09578550000000163
                },
                {
                    "name": "D#4",
                    "midi": 63,
                    "time": 20.498097,
                    "velocity": 0.5826771653543307,
                    "duration": 0.09578550000000163
                },
                {
                    "name": "E4",
                    "midi": 64,
                    "time": 20.689668000000005,
                    "velocity": 0.5826771653543307,
                    "duration": 0.5747129999999991
                },
                {
                    "name": "B3",
                    "midi": 59,
                    "time": 21.264381000000004,
                    "velocity": 0.4251968503937008,
                    "duration": 0.1915709999999997
                },
                {
                    "name": "E3",
                    "midi": 52,
                    "time": 21.264381000000004,
                    "velocity": 0.3937007874015748,
                    "duration": 0.1915709999999997
                },
                {
                    "name": "B2",
                    "midi": 47,
                    "time": 21.839094000000003,
                    "velocity": 0.2204724409448819,
                    "duration": 1.1494259999999983
                },
                {
                    "name": "G#3",
                    "midi": 56,
                    "time": 21.839094000000003,
                    "velocity": 0.25984251968503935,
                    "duration": 0.5747129999999991
                },
                {
                    "name": "A3",
                    "midi": 57,
                    "time": 22.413807000000002,
                    "velocity": 0.2125984251968504,
                    "duration": 0.5747129999999991
                },
                {
                    "name": "E3",
                    "midi": 52,
                    "time": 22.98852,
                    "velocity": 0.1732283464566929,
                    "duration": 0.5747129999999991
                },
                {
                    "name": "B3",
                    "midi": 59,
                    "time": 22.98852,
                    "velocity": 0.2047244094488189,
                    "duration": 0.5747129999999991
                },
                {
                    "name": "E2",
                    "midi": 40,
                    "time": 23.563233,
                    "velocity": 0.1732283464566929,
                    "duration": 0.1915709999999997
                },
                {
                    "name": "B2",
                    "midi": 47,
                    "time": 23.563233,
                    "velocity": 0.2047244094488189,
                    "duration": 0.1915709999999997
                },
                {
                    "name": "F4",
                    "midi": 65,
                    "time": 23.754804,
                    "velocity": 0.6220472440944882,
                    "duration": 0.09578550000000163
                },
                {
                    "name": "G4",
                    "midi": 67,
                    "time": 23.946375000000003,
                    "velocity": 0.5748031496062992,
                    "duration": 0.09578550000000163
                },
                {
                    "name": "G#4",
                    "midi": 68,
                    "time": 24.137946000000007,
                    "velocity": 0.7007874015748031,
                    "duration": 0.09578550000000163
                },
                {
                    "name": "F4",
                    "midi": 65,
                    "time": 24.32951700000001,
                    "velocity": 0.5826771653543307,
                    "duration": 0.09578550000000163
                },
                {
                    "name": "G#4",
                    "midi": 68,
                    "time": 24.521088000000013,
                    "velocity": 0.5826771653543307,
                    "duration": 0.28735650000000135
                },
                {
                    "name": "G4",
                    "midi": 67,
                    "time": 24.808444500000014,
                    "velocity": 0.5275590551181102,
                    "duration": 0.04789274999999904
                },
                {
                    "name": "G#4",
                    "midi": 68,
                    "time": 24.856337250000013,
                    "velocity": 0.5275590551181102,
                    "duration": 0.04789274999999904
                },
                {
                    "name": "G4",
                    "midi": 67,
                    "time": 24.904230000000013,
                    "velocity": 0.6614173228346457,
                    "duration": 0.09578550000000163
                },
                {
                    "name": "F#4",
                    "midi": 66,
                    "time": 25.095801000000016,
                    "velocity": 0.5826771653543307,
                    "duration": 0.09578550000000163
                },
                {
                    "name": "G4",
                    "midi": 67,
                    "time": 25.28737200000002,
                    "velocity": 0.5826771653543307,
                    "duration": 0.5747129999999991
                },
                {
                    "name": "D4",
                    "midi": 62,
                    "time": 25.862085000000018,
                    "velocity": 0.4251968503937008,
                    "duration": 0.1915709999999997
                },
                {
                    "name": "G3",
                    "midi": 55,
                    "time": 25.862085000000018,
                    "velocity": 0.3937007874015748,
                    "duration": 0.1915709999999997
                },
                {
                    "name": "D3",
                    "midi": 50,
                    "time": 26.436798000000017,
                    "velocity": 0.2204724409448819,
                    "duration": 1.1494259999999983
                },
                {
                    "name": "B3",
                    "midi": 59,
                    "time": 26.436798000000017,
                    "velocity": 0.25984251968503935,
                    "duration": 0.5747129999999991
                },
                {
                    "name": "C4",
                    "midi": 60,
                    "time": 27.011511000000016,
                    "velocity": 0.2125984251968504,
                    "duration": 0.5747129999999991
                },
                {
                    "name": "G3",
                    "midi": 55,
                    "time": 27.586224000000016,
                    "velocity": 0.1732283464566929,
                    "duration": 0.5747129999999991
                },
                {
                    "name": "D4",
                    "midi": 62,
                    "time": 27.586224000000016,
                    "velocity": 0.2047244094488189,
                    "duration": 0.5747129999999991
                },
                {
                    "name": "G2",
                    "midi": 43,
                    "time": 28.160937000000015,
                    "velocity": 0.1732283464566929,
                    "duration": 0.3831419999999994
                },
                {
                    "name": "D3",
                    "midi": 50,
                    "time": 28.160937000000015,
                    "velocity": 0.2047244094488189,
                    "duration": 0.3831419999999994
                },
                {
                    "name": "G3",
                    "midi": 55,
                    "time": 28.746824975000013,
                    "velocity": 0.1732283464566929,
                    "duration": 0.5747129999999991
                },
                {
                    "name": "D4",
                    "midi": 62,
                    "time": 28.746824975000013,
                    "velocity": 0.2047244094488189,
                    "duration": 0.5747129999999991
                },
                {
                    "name": "G2",
                    "midi": 43,
                    "time": 29.321537975000012,
                    "velocity": 0.1732283464566929,
                    "duration": 0.3831419999999994
                },
                {
                    "name": "D3",
                    "midi": 50,
                    "time": 29.321537975000012,
                    "velocity": 0.2047244094488189,
                    "duration": 0.3831419999999994
                },
                {
                    "name": "G3",
                    "midi": 55,
                    "time": 29.89625097500001,
                    "velocity": 0.1732283464566929,
                    "duration": 0.3831419999999994
                },
                {
                    "name": "D4",
                    "midi": 62,
                    "time": 29.89625097500001,
                    "velocity": 0.2047244094488189,
                    "duration": 0.3831419999999994
                },
                {
                    "name": "G2",
                    "midi": 43,
                    "time": 30.47096397500001,
                    "velocity": 0.1732283464566929,
                    "duration": 0.3831419999999994
                },
                {
                    "name": "D3",
                    "midi": 50,
                    "time": 30.47096397500001,
                    "velocity": 0.2047244094488189,
                    "duration": 0.3831419999999994
                },
                {
                    "name": "G3",
                    "midi": 55,
                    "time": 31.04567697500001,
                    "velocity": 0.1732283464566929,
                    "duration": 0.3831419999999994
                },
                {
                    "name": "D4",
                    "midi": 62,
                    "time": 31.04567697500001,
                    "velocity": 0.2047244094488189,
                    "duration": 0.3831419999999994
                },
                {
                    "name": "G2",
                    "midi": 43,
                    "time": 31.62038997500001,
                    "velocity": 0.1732283464566929,
                    "duration": 0.3831419999999994
                },
                {
                    "name": "D3",
                    "midi": 50,
                    "time": 31.62038997500001,
                    "velocity": 0.2047244094488189,
                    "duration": 0.3831419999999994
                },
                {
                    "name": "G3",
                    "midi": 55,
                    "time": 32.19510297500001,
                    "velocity": 0.1732283464566929,
                    "duration": 0.3831419999999994
                },
                {
                    "name": "D4",
                    "midi": 62,
                    "time": 32.19510297500001,
                    "velocity": 0.2047244094488189,
                    "duration": 0.3831419999999994
                },
                {
                    "name": "G2",
                    "midi": 43,
                    "time": 32.769815975000014,
                    "velocity": 0.1732283464566929,
                    "duration": 0.3831419999999994
                },
                {
                    "name": "D3",
                    "midi": 50,
                    "time": 32.769815975000014,
                    "velocity": 0.2047244094488189,
                    "duration": 0.3831419999999994
                },
                {
                    "name": "G3",
                    "midi": 55,
                    "time": 33.333354000000014,
                    "velocity": 0.2047244094488189,
                    "duration": 0.3831419999999994
                },
                {
                    "name": "C3",
                    "midi": 48,
                    "time": 33.333354000000014,
                    "velocity": 0.1732283464566929,
                    "duration": 0.3831419999999994
                },
                {
                    "name": "G2",
                    "midi": 43,
                    "time": 33.90806700000002,
                    "velocity": 0.2047244094488189,
                    "duration": 0.3831419999999994
                },
                {
                    "name": "C2",
                    "midi": 36,
                    "time": 33.90806700000002,
                    "velocity": 0.1732283464566929,
                    "duration": 0.3831419999999994
                },
                {
                    "name": "C4",
                    "midi": 60,
                    "time": 34.48278000000002,
                    "velocity": 0.1968503937007874,
                    "duration": 0.3831419999999994
                },
                {
                    "name": "F3",
                    "midi": 53,
                    "time": 34.48278000000002,
                    "velocity": 0.16535433070866143,
                    "duration": 0.3831419999999994
                },
                {
                    "name": "C3",
                    "midi": 48,
                    "time": 35.05749300000002,
                    "velocity": 0.1889763779527559,
                    "duration": 0.3831419999999994
                },
                {
                    "name": "F2",
                    "midi": 41,
                    "time": 35.05749300000002,
                    "velocity": 0.15748031496062992,
                    "duration": 0.3831419999999994
                },
                {
                    "name": "F3",
                    "midi": 53,
                    "time": 35.632206000000025,
                    "velocity": 0.18110236220472442,
                    "duration": 0.3831419999999994
                },
                {
                    "name": "B2",
                    "midi": 47,
                    "time": 35.632206000000025,
                    "velocity": 0.14960629921259844,
                    "duration": 0.3831419999999994
                },
                {
                    "name": "F2",
                    "midi": 41,
                    "time": 36.20691900000003,
                    "velocity": 0.1732283464566929,
                    "duration": 0.3831419999999994
                },
                {
                    "name": "B1",
                    "midi": 35,
                    "time": 36.20691900000003,
                    "velocity": 0.14173228346456693,
                    "duration": 0.3831419999999994
                },
                {
                    "name": "B3",
                    "midi": 59,
                    "time": 36.78163200000003,
                    "velocity": 0.16535433070866143,
                    "duration": 0.3831419999999994
                },
                {
                    "name": "E3",
                    "midi": 52,
                    "time": 36.78163200000003,
                    "velocity": 0.14173228346456693,
                    "duration": 0.3831419999999994
                },
                {
                    "name": "B2",
                    "midi": 47,
                    "time": 37.35634500000003,
                    "velocity": 0.15748031496062992,
                    "duration": 0.3831419999999994
                },
                {
                    "name": "E2",
                    "midi": 40,
                    "time": 37.35634500000003,
                    "velocity": 0.13385826771653545,
                    "duration": 0.3831419999999994
                },
                {
                    "name": "E3",
                    "midi": 52,
                    "time": 37.931058000000036,
                    "velocity": 0.14960629921259844,
                    "duration": 0.3831419999999994
                },
                {
                    "name": "A2",
                    "midi": 45,
                    "time": 37.931058000000036,
                    "velocity": 0.12598425196850394,
                    "duration": 0.3831419999999994
                },
                {
                    "name": "E2",
                    "midi": 40,
                    "time": 38.50577100000004,
                    "velocity": 0.14173228346456693,
                    "duration": 0.3831419999999994
                },
                {
                    "name": "A1",
                    "midi": 33,
                    "time": 38.50577100000004,
                    "velocity": 0.11811023622047244,
                    "duration": 0.3831419999999994
                },
                {
                    "name": "A3",
                    "midi": 57,
                    "time": 39.08048400000004,
                    "velocity": 0.12598425196850394,
                    "duration": 0.3831419999999994
                },
                {
                    "name": "D3",
                    "midi": 50,
                    "time": 39.08048400000004,
                    "velocity": 0.11023622047244094,
                    "duration": 0.3831419999999994
                },
                {
                    "name": "A2",
                    "midi": 45,
                    "time": 39.655197000000044,
                    "velocity": 0.12598425196850394,
                    "duration": 0.3831419999999994
                },
                {
                    "name": "D2",
                    "midi": 38,
                    "time": 39.655197000000044,
                    "velocity": 0.11023622047244094,
                    "duration": 0.3831419999999994
                },
                {
                    "name": "A3",
                    "midi": 57,
                    "time": 40.22991000000005,
                    "velocity": 0.12598425196850394,
                    "duration": 0.3831419999999994
                },
                {
                    "name": "D3",
                    "midi": 50,
                    "time": 40.22991000000005,
                    "velocity": 0.11023622047244094,
                    "duration": 0.3831419999999994
                },
                {
                    "name": "A2",
                    "midi": 45,
                    "time": 40.80462300000005,
                    "velocity": 0.12598425196850394,
                    "duration": 0.3831419999999994
                },
                {
                    "name": "D2",
                    "midi": 38,
                    "time": 40.80462300000005,
                    "velocity": 0.11023622047244094,
                    "duration": 0.3831419999999994
                },
                {
                    "name": "D3",
                    "midi": 50,
                    "time": 41.37933600000005,
                    "velocity": 0.12598425196850394,
                    "duration": 0.3831419999999994
                },
                {
                    "name": "G2",
                    "midi": 43,
                    "time": 41.37933600000005,
                    "velocity": 0.11023622047244094,
                    "duration": 0.3831419999999994
                },
                {
                    "name": "D2",
                    "midi": 38,
                    "time": 41.954049000000055,
                    "velocity": 0.12598425196850394,
                    "duration": 0.19157100000000327
                },
                {
                    "name": "G1",
                    "midi": 31,
                    "time": 41.954049000000055,
                    "velocity": 0.11023622047244094,
                    "duration": 0.19157100000000327
                },
                {
                    "name": "D3",
                    "midi": 50,
                    "time": 42.52876200000006,
                    "velocity": 0.12598425196850394,
                    "duration": 0.19157100000000327
                },
                {
                    "name": "G2",
                    "midi": 43,
                    "time": 42.52876200000006,
                    "velocity": 0.11023622047244094,
                    "duration": 0.19157100000000327
                },
                {
                    "name": "D2",
                    "midi": 38,
                    "time": 43.10347500000006,
                    "velocity": 0.12598425196850394,
                    "duration": 0.19157100000000327
                },
                {
                    "name": "G1",
                    "midi": 31,
                    "time": 43.10347500000006,
                    "velocity": 0.11023622047244094,
                    "duration": 0.19157100000000327
                },
                {
                    "name": "D3",
                    "midi": 50,
                    "time": 43.67818800000006,
                    "velocity": 0.12598425196850394,
                    "duration": 0.19157100000000327
                },
                {
                    "name": "G2",
                    "midi": 43,
                    "time": 43.67818800000006,
                    "velocity": 0.11023622047244094,
                    "duration": 0.19157100000000327
                },
                {
                    "name": "D4",
                    "midi": 62,
                    "time": 44.252901000000065,
                    "velocity": 0.12598425196850394,
                    "duration": 0.19157100000000327
                },
                {
                    "name": "G3",
                    "midi": 55,
                    "time": 44.252901000000065,
                    "velocity": 0.11023622047244094,
                    "duration": 0.19157100000000327
                },
                {
                    "name": "D6",
                    "midi": 86,
                    "time": 45.40232700000007,
                    "velocity": 0.12598425196850394,
                    "duration": 0.19157100000000327
                },
                {
                    "name": "G5",
                    "midi": 79,
                    "time": 45.40232700000007,
                    "velocity": 0.11023622047244094,
                    "duration": 0.19157100000000327
                },
                {
                    "name": "G5",
                    "midi": 79,
                    "time": 45.97704000000007,
                    "velocity": 0.2047244094488189,
                    "duration": 0.09578549999999808
                },
                {
                    "name": "G5",
                    "midi": 79,
                    "time": 46.55175300000007,
                    "velocity": 0.16535433070866143,
                    "duration": 0.09578549999999808
                },
                {
                    "name": "G5",
                    "midi": 79,
                    "time": 47.126466000000065,
                    "velocity": 0.1889763779527559,
                    "duration": 0.09578549999999808
                },
                {
                    "name": "G5",
                    "midi": 79,
                    "time": 47.70117900000006,
                    "velocity": 0.1889763779527559,
                    "duration": 0.09578549999999808
                },
                {
                    "name": "G6",
                    "midi": 91,
                    "time": 48.275892000000056,
                    "velocity": 0.2047244094488189,
                    "duration": 0.09578549999999808
                },
                {
                    "name": "G6",
                    "midi": 91,
                    "time": 48.85060500000005,
                    "velocity": 0.16535433070866143,
                    "duration": 0.09578549999999808
                },
                {
                    "name": "G6",
                    "midi": 91,
                    "time": 49.42531800000005,
                    "velocity": 0.1889763779527559,
                    "duration": 0.09578549999999808
                },
                {
                    "name": "G6",
                    "midi": 91,
                    "time": 50.00003100000004,
                    "velocity": 0.1889763779527559,
                    "duration": 0.09578549999999808
                },
                {
                    "name": "C6",
                    "midi": 84,
                    "time": 50.19160200000004,
                    "velocity": 0.2755905511811024,
                    "duration": 0.19157100000000327
                },
                {
                    "name": "D6",
                    "midi": 86,
                    "time": 50.38317300000004,
                    "velocity": 0.2440944881889764,
                    "duration": 0.19157100000000327
                },
                {
                    "name": "E6",
                    "midi": 88,
                    "time": 50.574744000000045,
                    "velocity": 0.30708661417322836,
                    "duration": 0.19157100000000327
                },
                {
                    "name": "C6",
                    "midi": 84,
                    "time": 50.76631500000005,
                    "velocity": 0.25984251968503935,
                    "duration": 0.19157100000000327
                },
                {
                    "name": "E6",
                    "midi": 88,
                    "time": 50.95788600000005,
                    "velocity": 0.25984251968503935,
                    "duration": 0.28735650000000135
                },
                {
                    "name": "D6",
                    "midi": 86,
                    "time": 51.24524250000005,
                    "velocity": 0.2283464566929134,
                    "duration": 0.04789275000000259
                },
                {
                    "name": "E6",
                    "midi": 88,
                    "time": 51.293135250000056,
                    "velocity": 0.2283464566929134,
                    "duration": 0.04789275000000259
                },
                {
                    "name": "D6",
                    "midi": 86,
                    "time": 51.34102800000006,
                    "velocity": 0.29133858267716534,
                    "duration": 0.19157100000000327
                },
                {
                    "name": "B5",
                    "midi": 83,
                    "time": 51.53259900000006,
                    "velocity": 0.25984251968503935,
                    "duration": 0.19157100000000327
                },
                {
                    "name": "D6",
                    "midi": 86,
                    "time": 51.724170000000065,
                    "velocity": 0.2755905511811024,
                    "duration": 0.09578549999999808
                },
                {
                    "name": "C6",
                    "midi": 84,
                    "time": 52.107312000000064,
                    "velocity": 0.33070866141732286,
                    "duration": 0.3831419999999994
                },
                {
                    "name": "A5",
                    "midi": 81,
                    "time": 52.490454000000064,
                    "velocity": 0.2755905511811024,
                    "duration": 0.19157100000000327
                },
                {
                    "name": "B5",
                    "midi": 83,
                    "time": 52.68202500000007,
                    "velocity": 0.2440944881889764,
                    "duration": 0.19157100000000327
                },
                {
                    "name": "C6",
                    "midi": 84,
                    "time": 52.87359600000007,
                    "velocity": 0.30708661417322836,
                    "duration": 0.19157100000000327
                },
                {
                    "name": "A5",
                    "midi": 81,
                    "time": 53.06516700000007,
                    "velocity": 0.25984251968503935,
                    "duration": 0.19157100000000327
                },
                {
                    "name": "C6",
                    "midi": 84,
                    "time": 53.25673800000008,
                    "velocity": 0.25984251968503935,
                    "duration": 0.28735650000000135
                },
                {
                    "name": "B5",
                    "midi": 83,
                    "time": 53.54409450000008,
                    "velocity": 0.2283464566929134,
                    "duration": 0.04789275000000259
                },
                {
                    "name": "C6",
                    "midi": 84,
                    "time": 53.59198725000008,
                    "velocity": 0.2283464566929134,
                    "duration": 0.04789275000000259
                },
                {
                    "name": "B5",
                    "midi": 83,
                    "time": 53.63988000000008,
                    "velocity": 0.29133858267716534,
                    "duration": 0.19157100000000327
                },
                {
                    "name": "G5",
                    "midi": 79,
                    "time": 53.83145100000009,
                    "velocity": 0.25984251968503935,
                    "duration": 0.19157100000000327
                },
                {
                    "name": "B5",
                    "midi": 83,
                    "time": 54.02302200000009,
                    "velocity": 0.2755905511811024,
                    "duration": 0.09578549999999808
                },
                {
                    "name": "A5",
                    "midi": 81,
                    "time": 54.40616400000009,
                    "velocity": 0.33070866141732286,
                    "duration": 0.3831419999999994
                },
                {
                    "name": "F5",
                    "midi": 77,
                    "time": 54.78930600000009,
                    "velocity": 0.2755905511811024,
                    "duration": 0.19157100000000327
                },
                {
                    "name": "G5",
                    "midi": 79,
                    "time": 54.98087700000009,
                    "velocity": 0.2440944881889764,
                    "duration": 0.19157100000000327
                },
                {
                    "name": "A5",
                    "midi": 81,
                    "time": 55.172448000000095,
                    "velocity": 0.30708661417322836,
                    "duration": 0.19157100000000327
                },
                {
                    "name": "F5",
                    "midi": 77,
                    "time": 55.3640190000001,
                    "velocity": 0.25984251968503935,
                    "duration": 0.19157100000000327
                },
                {
                    "name": "A5",
                    "midi": 81,
                    "time": 55.5555900000001,
                    "velocity": 0.25984251968503935,
                    "duration": 0.28735650000000135
                },
                {
                    "name": "G5",
                    "midi": 79,
                    "time": 55.8429465000001,
                    "velocity": 0.2283464566929134,
                    "duration": 0.04789275000000259
                },
                {
                    "name": "A5",
                    "midi": 81,
                    "time": 55.890839250000106,
                    "velocity": 0.2283464566929134,
                    "duration": 0.04789275000000259
                },
                {
                    "name": "G5",
                    "midi": 79,
                    "time": 55.93873200000011,
                    "velocity": 0.29133858267716534,
                    "duration": 0.19157100000000327
                },
                {
                    "name": "E5",
                    "midi": 76,
                    "time": 56.13030300000011,
                    "velocity": 0.25984251968503935,
                    "duration": 0.19157100000000327
                },
                {
                    "name": "G5",
                    "midi": 79,
                    "time": 56.321874000000115,
                    "velocity": 0.30708661417322836,
                    "duration": 0.19157100000000327
                },
                {
                    "name": "E5",
                    "midi": 76,
                    "time": 56.51344500000012,
                    "velocity": 0.25984251968503935,
                    "duration": 0.19157100000000327
                },
                {
                    "name": "G5",
                    "midi": 79,
                    "time": 56.70501600000012,
                    "velocity": 0.25984251968503935,
                    "duration": 0.28735650000000135
                },
                {
                    "name": "F5",
                    "midi": 77,
                    "time": 56.99237250000012,
                    "velocity": 0.2283464566929134,
                    "duration": 0.04789275000000259
                },
                {
                    "name": "G5",
                    "midi": 79,
                    "time": 57.040265250000125,
                    "velocity": 0.2283464566929134,
                    "duration": 0.04789275000000259
                },
                {
                    "name": "F5",
                    "midi": 77,
                    "time": 57.08815800000013,
                    "velocity": 0.29133858267716534,
                    "duration": 0.19157100000000327
                },
                {
                    "name": "D5",
                    "midi": 74,
                    "time": 57.27972900000013,
                    "velocity": 0.25984251968503935,
                    "duration": 0.19157100000000327
                },
                {
                    "name": "F5",
                    "midi": 77,
                    "time": 57.471300000000134,
                    "velocity": 0.30708661417322836,
                    "duration": 0.19157100000000327
                },
                {
                    "name": "D5",
                    "midi": 74,
                    "time": 57.66287100000014,
                    "velocity": 0.25984251968503935,
                    "duration": 0.19157100000000327
                },
                {
                    "name": "F5",
                    "midi": 77,
                    "time": 57.85444200000014,
                    "velocity": 0.25984251968503935,
                    "duration": 0.28735650000000135
                },
                {
                    "name": "E5",
                    "midi": 76,
                    "time": 58.14179850000014,
                    "velocity": 0.2283464566929134,
                    "duration": 0.04789275000000259
                },
                {
                    "name": "F5",
                    "midi": 77,
                    "time": 58.189691250000145,
                    "velocity": 0.2283464566929134,
                    "duration": 0.04789275000000259
                },
                {
                    "name": "E5",
                    "midi": 76,
                    "time": 58.23758400000015,
                    "velocity": 0.29133858267716534,
                    "duration": 0.19157100000000327
                },
                {
                    "name": "C5",
                    "midi": 72,
                    "time": 58.42915500000015,
                    "velocity": 0.25984251968503935,
                    "duration": 0.19157100000000327
                },
                {
                    "name": "E5",
                    "midi": 76,
                    "time": 58.620726000000154,
                    "velocity": 0.2755905511811024,
                    "duration": 0.09578549999999808
                },
                {
                    "name": "D5",
                    "midi": 74,
                    "time": 59.00386800000015,
                    "velocity": 0.33070866141732286,
                    "duration": 0.3831419999999994
                },
                {
                    "name": "C5",
                    "midi": 72,
                    "time": 59.38701000000015,
                    "velocity": 0.29133858267716534,
                    "duration": 0.19157100000000327
                },
                {
                    "name": "D5",
                    "midi": 74,
                    "time": 59.578581000000156,
                    "velocity": 0.25984251968503935,
                    "duration": 0.19157100000000327
                },
                {
                    "name": "E5",
                    "midi": 76,
                    "time": 59.77015200000016,
                    "velocity": 0.3228346456692913,
                    "duration": 0.19157100000000327
                },
                {
                    "name": "C5",
                    "midi": 72,
                    "time": 59.96172300000016,
                    "velocity": 0.2677165354330709,
                    "duration": 0.19157100000000327
                },
                {
                    "name": "E5",
                    "midi": 76,
                    "time": 60.153294000000166,
                    "velocity": 0.2677165354330709,
                    "duration": 0.28735650000000135
                },
                {
                    "name": "D5",
                    "midi": 74,
                    "time": 60.44065050000017,
                    "velocity": 0.2440944881889764,
                    "duration": 0.04789275000000259
                },
                {
                    "name": "E5",
                    "midi": 76,
                    "time": 60.48854325000017,
                    "velocity": 0.2440944881889764,
                    "duration": 0.04789275000000259
                },
                {
                    "name": "D5",
                    "midi": 74,
                    "time": 60.53643600000017,
                    "velocity": 0.30708661417322836,
                    "duration": 0.19157100000000327
                },
                {
                    "name": "B4",
                    "midi": 71,
                    "time": 60.728007000000176,
                    "velocity": 0.2677165354330709,
                    "duration": 0.19157100000000327
                },
                {
                    "name": "D5",
                    "midi": 74,
                    "time": 60.91957800000018,
                    "velocity": 0.2992125984251969,
                    "duration": 0.09578549999999808
                },
                {
                    "name": "C5",
                    "midi": 72,
                    "time": 61.30272000000018,
                    "velocity": 0.36220472440944884,
                    "duration": 0.3831419999999994
                },
                {
                    "name": "A4",
                    "midi": 69,
                    "time": 61.68586200000018,
                    "velocity": 0.33070866141732286,
                    "duration": 0.19157100000000327
                },
                {
                    "name": "B4",
                    "midi": 71,
                    "time": 61.87743300000018,
                    "velocity": 0.29133858267716534,
                    "duration": 0.19157100000000327
                },
                {
                    "name": "C5",
                    "midi": 72,
                    "time": 62.069004000000184,
                    "velocity": 0.3464566929133858,
                    "duration": 0.19157100000000327
                },
                {
                    "name": "A4",
                    "midi": 69,
                    "time": 62.26057500000019,
                    "velocity": 0.29133858267716534,
                    "duration": 0.19157100000000327
                },
                {
                    "name": "C5",
                    "midi": 72,
                    "time": 62.45214600000019,
                    "velocity": 0.29133858267716534,
                    "duration": 0.28735650000000135
                },
                {
                    "name": "B4",
                    "midi": 71,
                    "time": 62.73950250000019,
                    "velocity": 0.2677165354330709,
                    "duration": 0.04789275000000259
                },
                {
                    "name": "C5",
                    "midi": 72,
                    "time": 62.787395250000195,
                    "velocity": 0.2677165354330709,
                    "duration": 0.04789275000000259
                },
                {
                    "name": "B4",
                    "midi": 71,
                    "time": 62.8352880000002,
                    "velocity": 0.33858267716535434,
                    "duration": 0.19157100000000327
                },
                {
                    "name": "G4",
                    "midi": 67,
                    "time": 63.0268590000002,
                    "velocity": 0.30708661417322836,
                    "duration": 0.19157100000000327
                },
                {
                    "name": "B4",
                    "midi": 71,
                    "time": 63.218430000000204,
                    "velocity": 0.3228346456692913,
                    "duration": 0.09578549999999808
                },
                {
                    "name": "A4",
                    "midi": 69,
                    "time": 63.6015720000002,
                    "velocity": 0.4015748031496063,
                    "duration": 0.3831419999999994
                },
                {
                    "name": "F4",
                    "midi": 65,
                    "time": 63.9847140000002,
                    "velocity": 0.3543307086614173,
                    "duration": 0.19157100000000327
                },
                {
                    "name": "G4",
                    "midi": 67,
                    "time": 64.1762850000002,
                    "velocity": 0.31496062992125984,
                    "duration": 0.19157099999999616
                },
                {
                    "name": "A4",
                    "midi": 69,
                    "time": 64.3678560000002,
                    "velocity": 0.3858267716535433,
                    "duration": 0.19157099999999616
                },
                {
                    "name": "F4",
                    "midi": 65,
                    "time": 64.5594270000002,
                    "velocity": 0.31496062992125984,
                    "duration": 0.19157099999999616
                },
                {
                    "name": "A4",
                    "midi": 69,
                    "time": 64.7509980000002,
                    "velocity": 0.3228346456692913,
                    "duration": 0.28735650000000135
                },
                {
                    "name": "G4",
                    "midi": 67,
                    "time": 65.0383545000002,
                    "velocity": 0.29133858267716534,
                    "duration": 0.04789275000000259
                },
                {
                    "name": "A4",
                    "midi": 69,
                    "time": 65.0862472500002,
                    "velocity": 0.29133858267716534,
                    "duration": 0.04789275000000259
                },
                {
                    "name": "G4",
                    "midi": 67,
                    "time": 65.1341400000002,
                    "velocity": 0.3779527559055118,
                    "duration": 0.19157099999999616
                },
                {
                    "name": "E4",
                    "midi": 64,
                    "time": 65.3257110000002,
                    "velocity": 0.33070866141732286,
                    "duration": 0.19157099999999616
                },
                {
                    "name": "G4",
                    "midi": 67,
                    "time": 65.5172820000002,
                    "velocity": 0.4094488188976378,
                    "duration": 0.19157099999999616
                },
                {
                    "name": "E4",
                    "midi": 64,
                    "time": 65.70885300000019,
                    "velocity": 0.3464566929133858,
                    "duration": 0.19157099999999616
                },
                {
                    "name": "G4",
                    "midi": 67,
                    "time": 65.90042400000019,
                    "velocity": 0.3464566929133858,
                    "duration": 0.28735650000000135
                },
                {
                    "name": "F4",
                    "midi": 65,
                    "time": 66.18778050000019,
                    "velocity": 0.3228346456692913,
                    "duration": 0.04789275000000259
                },
                {
                    "name": "G4",
                    "midi": 67,
                    "time": 66.23567325000019,
                    "velocity": 0.3228346456692913,
                    "duration": 0.04789275000000259
                },
                {
                    "name": "F4",
                    "midi": 65,
                    "time": 66.28356600000019,
                    "velocity": 0.41732283464566927,
                    "duration": 0.19157099999999616
                },
                {
                    "name": "D4",
                    "midi": 62,
                    "time": 66.47513700000019,
                    "velocity": 0.3700787401574803,
                    "duration": 0.19157099999999616
                },
                {
                    "name": "F4",
                    "midi": 65,
                    "time": 66.66670800000018,
                    "velocity": 0.4566929133858268,
                    "duration": 0.19157099999999616
                },
                {
                    "name": "D4",
                    "midi": 62,
                    "time": 66.85827900000018,
                    "velocity": 0.3937007874015748,
                    "duration": 0.19157099999999616
                },
                {
                    "name": "F4",
                    "midi": 65,
                    "time": 67.04985000000018,
                    "velocity": 0.3937007874015748,
                    "duration": 0.28735650000000135
                },
                {
                    "name": "E4",
                    "midi": 64,
                    "time": 67.33720650000018,
                    "velocity": 0.3700787401574803,
                    "duration": 0.04789275000000259
                },
                {
                    "name": "F4",
                    "midi": 65,
                    "time": 67.38509925000018,
                    "velocity": 0.3700787401574803,
                    "duration": 0.04789275000000259
                },
                {
                    "name": "E4",
                    "midi": 64,
                    "time": 67.43299200000018,
                    "velocity": 0.4645669291338583,
                    "duration": 0.19157099999999616
                },
                {
                    "name": "C4",
                    "midi": 60,
                    "time": 67.62456300000018,
                    "velocity": 0.4251968503937008,
                    "duration": 0.19157099999999616
                },
                {
                    "name": "E4",
                    "midi": 64,
                    "time": 67.81613400000018,
                    "velocity": 0.4566929133858268,
                    "duration": 0.09578550000000519
                },
                {
                    "name": "D4",
                    "midi": 62,
                    "time": 68.19927600000018,
                    "velocity": 0.5905511811023622,
                    "duration": 0.38314200000000653
                },
                {
                    "name": "C3",
                    "midi": 48,
                    "time": 68.58241800000019,
                    "velocity": 0.4881889763779528,
                    "duration": 0.06704985000000363
                },
                {
                    "name": "C4",
                    "midi": 60,
                    "time": 68.58241800000019,
                    "velocity": 0.5826771653543307,
                    "duration": 0.06704985000000363
                },
                {
                    "name": "D3",
                    "midi": 50,
                    "time": 68.7739890000002,
                    "velocity": 0.4409448818897638,
                    "duration": 0.06704985000000363
                },
                {
                    "name": "D4",
                    "midi": 62,
                    "time": 68.7739890000002,
                    "velocity": 0.5196850393700787,
                    "duration": 0.06704985000000363
                },
                {
                    "name": "E3",
                    "midi": 52,
                    "time": 68.96556000000021,
                    "velocity": 0.5275590551181102,
                    "duration": 0.06704985000000363
                },
                {
                    "name": "E4",
                    "midi": 64,
                    "time": 68.96556000000021,
                    "velocity": 0.6220472440944882,
                    "duration": 0.06704985000000363
                },
                {
                    "name": "C3",
                    "midi": 48,
                    "time": 69.15713100000022,
                    "velocity": 0.4409448818897638,
                    "duration": 0.06704985000000363
                },
                {
                    "name": "C4",
                    "midi": 60,
                    "time": 69.15713100000022,
                    "velocity": 0.5196850393700787,
                    "duration": 0.06704985000000363
                },
                {
                    "name": "E3",
                    "midi": 52,
                    "time": 69.34870200000023,
                    "velocity": 0.4409448818897638,
                    "duration": 0.38314200000000653
                },
                {
                    "name": "E4",
                    "midi": 64,
                    "time": 69.34870200000023,
                    "velocity": 0.5196850393700787,
                    "duration": 0.38314200000000653
                },
                {
                    "name": "D3",
                    "midi": 50,
                    "time": 69.73184400000024,
                    "velocity": 0.4881889763779528,
                    "duration": 0.06704985000000363
                },
                {
                    "name": "D4",
                    "midi": 62,
                    "time": 69.73184400000024,
                    "velocity": 0.5826771653543307,
                    "duration": 0.06704985000000363
                },
                {
                    "name": "B2",
                    "midi": 47,
                    "time": 69.92341500000025,
                    "velocity": 0.4409448818897638,
                    "duration": 0.06704985000000363
                },
                {
                    "name": "B3",
                    "midi": 59,
                    "time": 69.92341500000025,
                    "velocity": 0.5196850393700787,
                    "duration": 0.06704985000000363
                },
                {
                    "name": "D3",
                    "midi": 50,
                    "time": 70.11498600000026,
                    "velocity": 0.4645669291338583,
                    "duration": 0.09578550000000519
                },
                {
                    "name": "D4",
                    "midi": 62,
                    "time": 70.11498600000026,
                    "velocity": 0.5511811023622047,
                    "duration": 0.09578550000000519
                },
                {
                    "name": "C3",
                    "midi": 48,
                    "time": 70.49812800000026,
                    "velocity": 0.5669291338582677,
                    "duration": 0.38314200000000653
                },
                {
                    "name": "C4",
                    "midi": 60,
                    "time": 70.49812800000026,
                    "velocity": 0.6692913385826772,
                    "duration": 0.38314200000000653
                },
                {
                    "name": "A2",
                    "midi": 45,
                    "time": 70.88127000000027,
                    "velocity": 0.4881889763779528,
                    "duration": 0.06704985000000363
                },
                {
                    "name": "A3",
                    "midi": 57,
                    "time": 70.88127000000027,
                    "velocity": 0.5826771653543307,
                    "duration": 0.06704985000000363
                },
                {
                    "name": "B2",
                    "midi": 47,
                    "time": 71.07284100000028,
                    "velocity": 0.4409448818897638,
                    "duration": 0.06704985000000363
                },
                {
                    "name": "B3",
                    "midi": 59,
                    "time": 71.07284100000028,
                    "velocity": 0.5196850393700787,
                    "duration": 0.06704985000000363
                },
                {
                    "name": "C3",
                    "midi": 48,
                    "time": 71.26441200000029,
                    "velocity": 0.5275590551181102,
                    "duration": 0.06704985000000363
                },
                {
                    "name": "C4",
                    "midi": 60,
                    "time": 71.26441200000029,
                    "velocity": 0.6220472440944882,
                    "duration": 0.06704985000000363
                },
                {
                    "name": "A2",
                    "midi": 45,
                    "time": 71.4559830000003,
                    "velocity": 0.4409448818897638,
                    "duration": 0.06704985000000363
                },
                {
                    "name": "A3",
                    "midi": 57,
                    "time": 71.4559830000003,
                    "velocity": 0.5196850393700787,
                    "duration": 0.06704985000000363
                },
                {
                    "name": "C3",
                    "midi": 48,
                    "time": 71.64755400000031,
                    "velocity": 0.4409448818897638,
                    "duration": 0.38314200000000653
                },
                {
                    "name": "C4",
                    "midi": 60,
                    "time": 71.64755400000031,
                    "velocity": 0.5196850393700787,
                    "duration": 0.38314200000000653
                },
                {
                    "name": "B2",
                    "midi": 47,
                    "time": 72.03069600000032,
                    "velocity": 0.4881889763779528,
                    "duration": 0.06704985000000363
                },
                {
                    "name": "B3",
                    "midi": 59,
                    "time": 72.03069600000032,
                    "velocity": 0.5826771653543307,
                    "duration": 0.06704985000000363
                },
                {
                    "name": "G2",
                    "midi": 43,
                    "time": 72.22226700000033,
                    "velocity": 0.4409448818897638,
                    "duration": 0.06704985000000363
                },
                {
                    "name": "G3",
                    "midi": 55,
                    "time": 72.22226700000033,
                    "velocity": 0.5196850393700787,
                    "duration": 0.06704985000000363
                },
                {
                    "name": "B2",
                    "midi": 47,
                    "time": 72.41383800000034,
                    "velocity": 0.4645669291338583,
                    "duration": 0.09578550000000519
                },
                {
                    "name": "B3",
                    "midi": 59,
                    "time": 72.41383800000034,
                    "velocity": 0.5511811023622047,
                    "duration": 0.09578550000000519
                },
                {
                    "name": "A2",
                    "midi": 45,
                    "time": 72.79698000000035,
                    "velocity": 0.5433070866141733,
                    "duration": 0.38314200000000653
                },
                {
                    "name": "A3",
                    "midi": 57,
                    "time": 72.79698000000035,
                    "velocity": 0.6456692913385826,
                    "duration": 0.38314200000000653
                },
                {
                    "name": "F2",
                    "midi": 41,
                    "time": 73.18012200000035,
                    "velocity": 0.4881889763779528,
                    "duration": 0.06704985000000363
                },
                {
                    "name": "F3",
                    "midi": 53,
                    "time": 73.18012200000035,
                    "velocity": 0.5826771653543307,
                    "duration": 0.06704985000000363
                },
                {
                    "name": "G2",
                    "midi": 43,
                    "time": 73.37169300000036,
                    "velocity": 0.4409448818897638,
                    "duration": 0.06704985000000363
                },
                {
                    "name": "G3",
                    "midi": 55,
                    "time": 73.37169300000036,
                    "velocity": 0.5196850393700787,
                    "duration": 0.06704985000000363
                },
                {
                    "name": "A2",
                    "midi": 45,
                    "time": 73.56326400000037,
                    "velocity": 0.5275590551181102,
                    "duration": 0.06704985000000363
                },
                {
                    "name": "A3",
                    "midi": 57,
                    "time": 73.56326400000037,
                    "velocity": 0.6220472440944882,
                    "duration": 0.06704985000000363
                },
                {
                    "name": "F2",
                    "midi": 41,
                    "time": 73.75483500000038,
                    "velocity": 0.4409448818897638,
                    "duration": 0.06704985000000363
                },
                {
                    "name": "F3",
                    "midi": 53,
                    "time": 73.75483500000038,
                    "velocity": 0.5196850393700787,
                    "duration": 0.06704985000000363
                },
                {
                    "name": "A2",
                    "midi": 45,
                    "time": 73.9464060000004,
                    "velocity": 0.4409448818897638,
                    "duration": 0.38314200000000653
                },
                {
                    "name": "A3",
                    "midi": 57,
                    "time": 73.9464060000004,
                    "velocity": 0.5196850393700787,
                    "duration": 0.38314200000000653
                },
                {
                    "name": "G2",
                    "midi": 43,
                    "time": 74.3295480000004,
                    "velocity": 0.4881889763779528,
                    "duration": 0.06704985000000363
                },
                {
                    "name": "G3",
                    "midi": 55,
                    "time": 74.3295480000004,
                    "velocity": 0.5826771653543307,
                    "duration": 0.06704985000000363
                },
                {
                    "name": "E2",
                    "midi": 40,
                    "time": 74.52111900000041,
                    "velocity": 0.4409448818897638,
                    "duration": 0.06704985000000363
                },
                {
                    "name": "E3",
                    "midi": 52,
                    "time": 74.52111900000041,
                    "velocity": 0.5196850393700787,
                    "duration": 0.06704985000000363
                },
                {
                    "name": "G2",
                    "midi": 43,
                    "time": 74.71269000000042,
                    "velocity": 0.5275590551181102,
                    "duration": 0.06704985000000363
                },
                {
                    "name": "G3",
                    "midi": 55,
                    "time": 74.71269000000042,
                    "velocity": 0.6220472440944882,
                    "duration": 0.06704985000000363
                },
                {
                    "name": "E2",
                    "midi": 40,
                    "time": 74.90426100000043,
                    "velocity": 0.4409448818897638,
                    "duration": 0.06704985000000363
                },
                {
                    "name": "E3",
                    "midi": 52,
                    "time": 74.90426100000043,
                    "velocity": 0.5196850393700787,
                    "duration": 0.06704985000000363
                },
                {
                    "name": "G2",
                    "midi": 43,
                    "time": 75.09583200000044,
                    "velocity": 0.4409448818897638,
                    "duration": 0.38314200000000653
                },
                {
                    "name": "G3",
                    "midi": 55,
                    "time": 75.09583200000044,
                    "velocity": 0.5196850393700787,
                    "duration": 0.38314200000000653
                },
                {
                    "name": "F2",
                    "midi": 41,
                    "time": 75.47897400000045,
                    "velocity": 0.4881889763779528,
                    "duration": 0.06704985000000363
                },
                {
                    "name": "F3",
                    "midi": 53,
                    "time": 75.47897400000045,
                    "velocity": 0.5826771653543307,
                    "duration": 0.06704985000000363
                },
                {
                    "name": "D2",
                    "midi": 38,
                    "time": 75.67054500000046,
                    "velocity": 0.4409448818897638,
                    "duration": 0.06704985000000363
                },
                {
                    "name": "D3",
                    "midi": 50,
                    "time": 75.67054500000046,
                    "velocity": 0.5196850393700787,
                    "duration": 0.06704985000000363
                },
                {
                    "name": "F2",
                    "midi": 41,
                    "time": 75.86211600000047,
                    "velocity": 0.5275590551181102,
                    "duration": 0.06704985000000363
                },
                {
                    "name": "F3",
                    "midi": 53,
                    "time": 75.86211600000047,
                    "velocity": 0.6220472440944882,
                    "duration": 0.06704985000000363
                },
                {
                    "name": "D2",
                    "midi": 38,
                    "time": 76.05368700000048,
                    "velocity": 0.4409448818897638,
                    "duration": 0.06704985000000363
                },
                {
                    "name": "D3",
                    "midi": 50,
                    "time": 76.05368700000048,
                    "velocity": 0.5196850393700787,
                    "duration": 0.06704985000000363
                },
                {
                    "name": "F2",
                    "midi": 41,
                    "time": 76.24525800000049,
                    "velocity": 0.4409448818897638,
                    "duration": 0.38314200000000653
                },
                {
                    "name": "F3",
                    "midi": 53,
                    "time": 76.24525800000049,
                    "velocity": 0.5196850393700787,
                    "duration": 0.38314200000000653
                },
                {
                    "name": "E2",
                    "midi": 40,
                    "time": 76.6284000000005,
                    "velocity": 0.4881889763779528,
                    "duration": 0.06704985000000363
                },
                {
                    "name": "E3",
                    "midi": 52,
                    "time": 76.6284000000005,
                    "velocity": 0.5826771653543307,
                    "duration": 0.06704985000000363
                },
                {
                    "name": "C2",
                    "midi": 36,
                    "time": 76.8199710000005,
                    "velocity": 0.4409448818897638,
                    "duration": 0.06704985000000363
                },
                {
                    "name": "C3",
                    "midi": 48,
                    "time": 76.8199710000005,
                    "velocity": 0.5196850393700787,
                    "duration": 0.06704985000000363
                },
                {
                    "name": "E2",
                    "midi": 40,
                    "time": 77.01154200000052,
                    "velocity": 0.4645669291338583,
                    "duration": 0.09578550000000519
                },
                {
                    "name": "E3",
                    "midi": 52,
                    "time": 77.01154200000052,
                    "velocity": 0.5511811023622047,
                    "duration": 0.09578550000000519
                },
                {
                    "name": "D2",
                    "midi": 38,
                    "time": 77.39468400000052,
                    "velocity": 0.5669291338582677,
                    "duration": 0.38314200000000653
                },
                {
                    "name": "D3",
                    "midi": 50,
                    "time": 77.39468400000052,
                    "velocity": 0.6692913385826772,
                    "duration": 0.38314200000000653
                },
                {
                    "name": "G#1",
                    "midi": 32,
                    "time": 78.16096800000054,
                    "velocity": 0.3858267716535433,
                    "duration": 0.19157099999999616
                },
                {
                    "name": "D#2",
                    "midi": 39,
                    "time": 78.16096800000054,
                    "velocity": 0.3858267716535433,
                    "duration": 0.19157099999999616
                },
                {
                    "name": "G#2",
                    "midi": 44,
                    "time": 78.16096800000054,
                    "velocity": 0.4881889763779528,
                    "duration": 0.19157099999999616
                },
                {
                    "name": "F2",
                    "midi": 41,
                    "time": 78.73568100000054,
                    "velocity": 0.4330708661417323,
                    "duration": 0.19157099999999616
                },
                {
                    "name": "G#1",
                    "midi": 32,
                    "time": 78.73568100000054,
                    "velocity": 0.3464566929133858,
                    "duration": 0.19157099999999616
                },
                {
                    "name": "F1",
                    "midi": 29,
                    "time": 78.73568100000054,
                    "velocity": 0.3464566929133858,
                    "duration": 0.19157099999999616
                },
                {
                    "name": "G#1",
                    "midi": 32,
                    "time": 79.31039400000054,
                    "velocity": 0.3858267716535433,
                    "duration": 0.19157099999999616
                },
                {
                    "name": "D#2",
                    "midi": 39,
                    "time": 79.31039400000054,
                    "velocity": 0.3858267716535433,
                    "duration": 0.19157099999999616
                },
                {
                    "name": "G#2",
                    "midi": 44,
                    "time": 79.31039400000054,
                    "velocity": 0.4881889763779528,
                    "duration": 0.19157099999999616
                },
                {
                    "name": "F2",
                    "midi": 41,
                    "time": 79.88510700000054,
                    "velocity": 0.44881889763779526,
                    "duration": 0.19157099999999616
                },
                {
                    "name": "G#1",
                    "midi": 32,
                    "time": 79.88510700000054,
                    "velocity": 0.3543307086614173,
                    "duration": 0.19157099999999616
                },
                {
                    "name": "F1",
                    "midi": 29,
                    "time": 79.88510700000054,
                    "velocity": 0.3543307086614173,
                    "duration": 0.19157099999999616
                },
                {
                    "name": "G#1",
                    "midi": 32,
                    "time": 80.45982000000055,
                    "velocity": 0.3858267716535433,
                    "duration": 0.19157099999999616
                },
                {
                    "name": "D#2",
                    "midi": 39,
                    "time": 80.45982000000055,
                    "velocity": 0.3858267716535433,
                    "duration": 0.19157099999999616
                },
                {
                    "name": "G#2",
                    "midi": 44,
                    "time": 80.45982000000055,
                    "velocity": 0.4881889763779528,
                    "duration": 0.19157099999999616
                },
                {
                    "name": "F2",
                    "midi": 41,
                    "time": 81.03453300000055,
                    "velocity": 0.4330708661417323,
                    "duration": 0.19157099999999616
                },
                {
                    "name": "G#1",
                    "midi": 32,
                    "time": 81.03453300000055,
                    "velocity": 0.3464566929133858,
                    "duration": 0.19157099999999616
                },
                {
                    "name": "F1",
                    "midi": 29,
                    "time": 81.03453300000055,
                    "velocity": 0.3464566929133858,
                    "duration": 0.19157099999999616
                },
                {
                    "name": "G#1",
                    "midi": 32,
                    "time": 81.60924600000055,
                    "velocity": 0.3858267716535433,
                    "duration": 0.19157099999999616
                },
                {
                    "name": "D#2",
                    "midi": 39,
                    "time": 81.60924600000055,
                    "velocity": 0.3858267716535433,
                    "duration": 0.19157099999999616
                },
                {
                    "name": "G#2",
                    "midi": 44,
                    "time": 81.60924600000055,
                    "velocity": 0.4881889763779528,
                    "duration": 0.19157099999999616
                },
                {
                    "name": "F2",
                    "midi": 41,
                    "time": 82.18395900000056,
                    "velocity": 0.44881889763779526,
                    "duration": 0.19157099999999616
                },
                {
                    "name": "G#1",
                    "midi": 32,
                    "time": 82.18395900000056,
                    "velocity": 0.3543307086614173,
                    "duration": 0.19157099999999616
                },
                {
                    "name": "F1",
                    "midi": 29,
                    "time": 82.18395900000056,
                    "velocity": 0.3543307086614173,
                    "duration": 0.19157099999999616
                },
                {
                    "name": "C2",
                    "midi": 36,
                    "time": 82.75867200000056,
                    "velocity": 0.41732283464566927,
                    "duration": 0.19157099999999616
                },
                {
                    "name": "G2",
                    "midi": 43,
                    "time": 82.75867200000056,
                    "velocity": 0.41732283464566927,
                    "duration": 0.19157099999999616
                },
                {
                    "name": "C3",
                    "midi": 48,
                    "time": 82.75867200000056,
                    "velocity": 0.5354330708661418,
                    "duration": 0.19157099999999616
                },
                {
                    "name": "F2",
                    "midi": 41,
                    "time": 83.33338500000056,
                    "velocity": 0.47244094488188976,
                    "duration": 0.19157099999999616
                },
                {
                    "name": "C2",
                    "midi": 36,
                    "time": 83.33338500000056,
                    "velocity": 0.3779527559055118,
                    "duration": 0.19157099999999616
                },
                {
                    "name": "F1",
                    "midi": 29,
                    "time": 83.33338500000056,
                    "velocity": 0.3779527559055118,
                    "duration": 0.19157099999999616
                },
                {
                    "name": "C2",
                    "midi": 36,
                    "time": 83.90809800000056,
                    "velocity": 0.41732283464566927,
                    "duration": 0.19157099999999616
                },
                {
                    "name": "G2",
                    "midi": 43,
                    "time": 83.90809800000056,
                    "velocity": 0.41732283464566927,
                    "duration": 0.19157099999999616
                },
                {
                    "name": "C3",
                    "midi": 48,
                    "time": 83.90809800000056,
                    "velocity": 0.5354330708661418,
                    "duration": 0.19157099999999616
                },
                {
                    "name": "F2",
                    "midi": 41,
                    "time": 84.48281100000057,
                    "velocity": 0.4881889763779528,
                    "duration": 0.19157099999999616
                },
                {
                    "name": "C2",
                    "midi": 36,
                    "time": 84.48281100000057,
                    "velocity": 0.3858267716535433,
                    "duration": 0.19157099999999616
                },
                {
                    "name": "F1",
                    "midi": 29,
                    "time": 84.48281100000057,
                    "velocity": 0.3858267716535433,
                    "duration": 0.19157099999999616
                },
                {
                    "name": "C2",
                    "midi": 36,
                    "time": 85.05752400000057,
                    "velocity": 0.41732283464566927,
                    "duration": 0.19157099999999616
                },
                {
                    "name": "G2",
                    "midi": 43,
                    "time": 85.05752400000057,
                    "velocity": 0.41732283464566927,
                    "duration": 0.19157099999999616
                },
                {
                    "name": "C3",
                    "midi": 48,
                    "time": 85.05752400000057,
                    "velocity": 0.5354330708661418,
                    "duration": 0.19157099999999616
                },
                {
                    "name": "F2",
                    "midi": 41,
                    "time": 85.63223700000057,
                    "velocity": 0.47244094488188976,
                    "duration": 0.19157099999999616
                },
                {
                    "name": "C2",
                    "midi": 36,
                    "time": 85.63223700000057,
                    "velocity": 0.3779527559055118,
                    "duration": 0.19157099999999616
                },
                {
                    "name": "F1",
                    "midi": 29,
                    "time": 85.63223700000057,
                    "velocity": 0.3779527559055118,
                    "duration": 0.19157099999999616
                },
                {
                    "name": "C2",
                    "midi": 36,
                    "time": 86.20695000000057,
                    "velocity": 0.41732283464566927,
                    "duration": 0.19157099999999616
                },
                {
                    "name": "G2",
                    "midi": 43,
                    "time": 86.20695000000057,
                    "velocity": 0.41732283464566927,
                    "duration": 0.19157099999999616
                },
                {
                    "name": "C3",
                    "midi": 48,
                    "time": 86.20695000000057,
                    "velocity": 0.5354330708661418,
                    "duration": 0.19157099999999616
                },
                {
                    "name": "F2",
                    "midi": 41,
                    "time": 86.78166300000058,
                    "velocity": 0.4881889763779528,
                    "duration": 0.19157099999999616
                },
                {
                    "name": "C2",
                    "midi": 36,
                    "time": 86.78166300000058,
                    "velocity": 0.3858267716535433,
                    "duration": 0.19157099999999616
                },
                {
                    "name": "F1",
                    "midi": 29,
                    "time": 86.78166300000058,
                    "velocity": 0.3858267716535433,
                    "duration": 0.19157099999999616
                },
                {
                    "name": "C2",
                    "midi": 36,
                    "time": 87.35637600000058,
                    "velocity": 0.3543307086614173,
                    "duration": 0.19157099999999616
                },
                {
                    "name": "G2",
                    "midi": 43,
                    "time": 87.35637600000058,
                    "velocity": 0.3543307086614173,
                    "duration": 0.19157099999999616
                },
                {
                    "name": "C3",
                    "midi": 48,
                    "time": 87.35637600000058,
                    "velocity": 0.44881889763779526,
                    "duration": 0.19157099999999616
                },
                {
                    "name": "F2",
                    "midi": 41,
                    "time": 87.93108900000058,
                    "velocity": 0.4094488188976378,
                    "duration": 0.19157099999999616
                },
                {
                    "name": "C2",
                    "midi": 36,
                    "time": 87.93108900000058,
                    "velocity": 0.3228346456692913,
                    "duration": 0.19157099999999616
                },
                {
                    "name": "F1",
                    "midi": 29,
                    "time": 87.93108900000058,
                    "velocity": 0.3228346456692913,
                    "duration": 0.19157099999999616
                },
                {
                    "name": "C2",
                    "midi": 36,
                    "time": 88.50580200000059,
                    "velocity": 0.29133858267716534,
                    "duration": 0.19157099999999616
                },
                {
                    "name": "G2",
                    "midi": 43,
                    "time": 88.50580200000059,
                    "velocity": 0.29133858267716534,
                    "duration": 0.19157099999999616
                },
                {
                    "name": "C3",
                    "midi": 48,
                    "time": 88.50580200000059,
                    "velocity": 0.3700787401574803,
                    "duration": 0.19157099999999616
                },
                {
                    "name": "F2",
                    "midi": 41,
                    "time": 89.08051500000059,
                    "velocity": 0.33858267716535434,
                    "duration": 0.19157099999999616
                },
                {
                    "name": "C2",
                    "midi": 36,
                    "time": 89.08051500000059,
                    "velocity": 0.2677165354330709,
                    "duration": 0.19157099999999616
                },
                {
                    "name": "F1",
                    "midi": 29,
                    "time": 89.08051500000059,
                    "velocity": 0.2677165354330709,
                    "duration": 0.19157099999999616
                },
                {
                    "name": "C2",
                    "midi": 36,
                    "time": 89.65522800000059,
                    "velocity": 0.2047244094488189,
                    "duration": 0.19157099999999616
                },
                {
                    "name": "G2",
                    "midi": 43,
                    "time": 89.65522800000059,
                    "velocity": 0.2047244094488189,
                    "duration": 0.19157099999999616
                },
                {
                    "name": "C3",
                    "midi": 48,
                    "time": 89.65522800000059,
                    "velocity": 0.2677165354330709,
                    "duration": 0.19157099999999616
                },
                {
                    "name": "F2",
                    "midi": 41,
                    "time": 90.2299410000006,
                    "velocity": 0.2440944881889764,
                    "duration": 0.19157099999999616
                },
                {
                    "name": "C2",
                    "midi": 36,
                    "time": 90.2299410000006,
                    "velocity": 0.1889763779527559,
                    "duration": 0.19157099999999616
                },
                {
                    "name": "F1",
                    "midi": 29,
                    "time": 90.2299410000006,
                    "velocity": 0.1889763779527559,
                    "duration": 0.19157099999999616
                },
                {
                    "name": "C2",
                    "midi": 36,
                    "time": 90.8046540000006,
                    "velocity": 0.31496062992125984,
                    "duration": 2.2988520000000108
                },
                {
                    "name": "C3",
                    "midi": 48,
                    "time": 90.8046540000006,
                    "velocity": 0.2755905511811024,
                    "duration": 0.5747130000000027
                },
                {
                    "name": "B2",
                    "midi": 47,
                    "time": 91.3793670000006,
                    "velocity": 0.25196850393700787,
                    "duration": 0.5747130000000027
                },
                {
                    "name": "A2",
                    "midi": 45,
                    "time": 91.9540800000006,
                    "velocity": 0.25984251968503935,
                    "duration": 0.5747130000000027
                },
                {
                    "name": "B2",
                    "midi": 47,
                    "time": 92.5287930000006,
                    "velocity": 0.2125984251968504,
                    "duration": 0.5747130000000027
                },
                {
                    "name": "C2",
                    "midi": 36,
                    "time": 93.1035060000006,
                    "velocity": 0.31496062992125984,
                    "duration": 2.2988520000000108
                },
                {
                    "name": "C3",
                    "midi": 48,
                    "time": 93.1035060000006,
                    "velocity": 0.2440944881889764,
                    "duration": 0.5747130000000027
                },
                {
                    "name": "B2",
                    "midi": 47,
                    "time": 93.67821900000061,
                    "velocity": 0.2125984251968504,
                    "duration": 0.5747130000000027
                },
                {
                    "name": "A2",
                    "midi": 45,
                    "time": 94.25293200000061,
                    "velocity": 0.25984251968503935,
                    "duration": 0.5747130000000027
                },
                {
                    "name": "B2",
                    "midi": 47,
                    "time": 94.82764500000062,
                    "velocity": 0.2125984251968504,
                    "duration": 0.5747130000000027
                },
                {
                    "name": "C2",
                    "midi": 36,
                    "time": 95.40235800000062,
                    "velocity": 0.31496062992125984,
                    "duration": 0.7662839999999989
                },
                {
                    "name": "C3",
                    "midi": 48,
                    "time": 95.40235800000062,
                    "velocity": 0.2440944881889764,
                    "duration": 0.7662839999999989
                },
                {
                    "name": "D4",
                    "midi": 62,
                    "time": 96.16864200000062,
                    "velocity": 0.6220472440944882,
                    "duration": 0.09578550000000519
                },
                {
                    "name": "E4",
                    "midi": 64,
                    "time": 96.36021300000063,
                    "velocity": 0.5748031496062992,
                    "duration": 0.09578550000000519
                },
                {
                    "name": "F4",
                    "midi": 65,
                    "time": 96.55178400000064,
                    "velocity": 0.7007874015748031,
                    "duration": 0.09578550000000519
                },
                {
                    "name": "D4",
                    "midi": 62,
                    "time": 96.74335500000065,
                    "velocity": 0.5826771653543307,
                    "duration": 0.09578550000000519
                },
                {
                    "name": "F4",
                    "midi": 65,
                    "time": 96.93492600000066,
                    "velocity": 0.5826771653543307,
                    "duration": 0.28735650000000135
                },
                {
                    "name": "E4",
                    "midi": 64,
                    "time": 97.22228250000066,
                    "velocity": 0.5275590551181102,
                    "duration": 0.04789275000000259
                },
                {
                    "name": "F4",
                    "midi": 65,
                    "time": 97.27017525000066,
                    "velocity": 0.5275590551181102,
                    "duration": 0.04789275000000259
                },
                {
                    "name": "E4",
                    "midi": 64,
                    "time": 97.31806800000066,
                    "velocity": 0.6614173228346457,
                    "duration": 0.09578550000000519
                },
                {
                    "name": "D#4",
                    "midi": 63,
                    "time": 97.50963900000067,
                    "velocity": 0.5826771653543307,
                    "duration": 0.09578550000000519
                },
                {
                    "name": "E4",
                    "midi": 64,
                    "time": 97.70121000000069,
                    "velocity": 0.5826771653543307,
                    "duration": 0.5747130000000027
                },
                {
                    "name": "B3",
                    "midi": 59,
                    "time": 98.27592300000069,
                    "velocity": 0.4251968503937008,
                    "duration": 0.19157099999999616
                },
                {
                    "name": "E3",
                    "midi": 52,
                    "time": 98.27592300000069,
                    "velocity": 0.3937007874015748,
                    "duration": 0.19157099999999616
                },
                {
                    "name": "B2",
                    "midi": 47,
                    "time": 98.85063600000069,
                    "velocity": 0.2204724409448819,
                    "duration": 1.1494260000000054
                },
                {
                    "name": "G#3",
                    "midi": 56,
                    "time": 98.85063600000069,
                    "velocity": 0.25984251968503935,
                    "duration": 0.5747130000000027
                },
                {
                    "name": "A3",
                    "midi": 57,
                    "time": 99.4253490000007,
                    "velocity": 0.2125984251968504,
                    "duration": 0.5747130000000027
                },
                {
                    "name": "E3",
                    "midi": 52,
                    "time": 100.0000620000007,
                    "velocity": 0.1732283464566929,
                    "duration": 0.5747130000000027
                },
                {
                    "name": "B3",
                    "midi": 59,
                    "time": 100.0000620000007,
                    "velocity": 0.2047244094488189,
                    "duration": 0.5747130000000027
                },
                {
                    "name": "E2",
                    "midi": 40,
                    "time": 100.5747750000007,
                    "velocity": 0.1732283464566929,
                    "duration": 0.19157099999999616
                },
                {
                    "name": "B2",
                    "midi": 47,
                    "time": 100.5747750000007,
                    "velocity": 0.2047244094488189,
                    "duration": 0.19157099999999616
                },
                {
                    "name": "F4",
                    "midi": 65,
                    "time": 100.7663460000007,
                    "velocity": 0.6220472440944882,
                    "duration": 0.09578550000000519
                },
                {
                    "name": "G4",
                    "midi": 67,
                    "time": 100.9579170000007,
                    "velocity": 0.5748031496062992,
                    "duration": 0.09578550000000519
                },
                {
                    "name": "G#4",
                    "midi": 68,
                    "time": 101.14948800000072,
                    "velocity": 0.7007874015748031,
                    "duration": 0.09578550000000519
                },
                {
                    "name": "F4",
                    "midi": 65,
                    "time": 101.34105900000073,
                    "velocity": 0.5826771653543307,
                    "duration": 0.09578550000000519
                },
                {
                    "name": "G#4",
                    "midi": 68,
                    "time": 101.53263000000074,
                    "velocity": 0.5826771653543307,
                    "duration": 0.28735650000000135
                },
                {
                    "name": "G4",
                    "midi": 67,
                    "time": 101.81998650000074,
                    "velocity": 0.5275590551181102,
                    "duration": 0.04789275000000259
                },
                {
                    "name": "G#4",
                    "midi": 68,
                    "time": 101.86787925000074,
                    "velocity": 0.5275590551181102,
                    "duration": 0.04789275000000259
                },
                {
                    "name": "G4",
                    "midi": 67,
                    "time": 101.91577200000074,
                    "velocity": 0.6614173228346457,
                    "duration": 0.09578550000000519
                },
                {
                    "name": "F#4",
                    "midi": 66,
                    "time": 102.10734300000075,
                    "velocity": 0.5826771653543307,
                    "duration": 0.09578550000000519
                },
                {
                    "name": "G4",
                    "midi": 67,
                    "time": 102.29891400000076,
                    "velocity": 0.5826771653543307,
                    "duration": 0.5747130000000027
                },
                {
                    "name": "D4",
                    "midi": 62,
                    "time": 102.87362700000077,
                    "velocity": 0.4251968503937008,
                    "duration": 0.19157099999999616
                },
                {
                    "name": "G3",
                    "midi": 55,
                    "time": 102.87362700000077,
                    "velocity": 0.3937007874015748,
                    "duration": 0.19157099999999616
                },
                {
                    "name": "D3",
                    "midi": 50,
                    "time": 103.44834000000077,
                    "velocity": 0.2204724409448819,
                    "duration": 1.1494260000000054
                },
                {
                    "name": "B3",
                    "midi": 59,
                    "time": 103.44834000000077,
                    "velocity": 0.25984251968503935,
                    "duration": 0.5747130000000027
                },
                {
                    "name": "C4",
                    "midi": 60,
                    "time": 104.02305300000077,
                    "velocity": 0.2125984251968504,
                    "duration": 0.5747130000000027
                },
                {
                    "name": "G3",
                    "midi": 55,
                    "time": 104.59776600000077,
                    "velocity": 0.1732283464566929,
                    "duration": 0.5747130000000027
                },
                {
                    "name": "D4",
                    "midi": 62,
                    "time": 104.59776600000077,
                    "velocity": 0.2047244094488189,
                    "duration": 0.5747130000000027
                },
                {
                    "name": "G2",
                    "midi": 43,
                    "time": 105.17247900000078,
                    "velocity": 0.1732283464566929,
                    "duration": 0.38314200000000653
                },
                {
                    "name": "D3",
                    "midi": 50,
                    "time": 105.17247900000078,
                    "velocity": 0.2047244094488189,
                    "duration": 0.38314200000000653
                },
                {
                    "name": "G3",
                    "midi": 55,
                    "time": 105.75836697500078,
                    "velocity": 0.1732283464566929,
                    "duration": 0.5747130000000027
                },
                {
                    "name": "D4",
                    "midi": 62,
                    "time": 105.75836697500078,
                    "velocity": 0.2047244094488189,
                    "duration": 0.5747130000000027
                },
                {
                    "name": "G2",
                    "midi": 43,
                    "time": 106.33307997500079,
                    "velocity": 0.1732283464566929,
                    "duration": 0.38314200000000653
                },
                {
                    "name": "D3",
                    "midi": 50,
                    "time": 106.33307997500079,
                    "velocity": 0.2047244094488189,
                    "duration": 0.38314200000000653
                },
                {
                    "name": "G3",
                    "midi": 55,
                    "time": 106.90779297500079,
                    "velocity": 0.1732283464566929,
                    "duration": 0.38314200000000653
                },
                {
                    "name": "D4",
                    "midi": 62,
                    "time": 106.90779297500079,
                    "velocity": 0.2047244094488189,
                    "duration": 0.38314200000000653
                },
                {
                    "name": "G2",
                    "midi": 43,
                    "time": 107.48250597500079,
                    "velocity": 0.1732283464566929,
                    "duration": 0.38314200000000653
                },
                {
                    "name": "D3",
                    "midi": 50,
                    "time": 107.48250597500079,
                    "velocity": 0.2047244094488189,
                    "duration": 0.38314200000000653
                },
                {
                    "name": "G3",
                    "midi": 55,
                    "time": 108.0572189750008,
                    "velocity": 0.1732283464566929,
                    "duration": 0.38314200000000653
                },
                {
                    "name": "D4",
                    "midi": 62,
                    "time": 108.0572189750008,
                    "velocity": 0.2047244094488189,
                    "duration": 0.38314200000000653
                },
                {
                    "name": "G2",
                    "midi": 43,
                    "time": 108.6319319750008,
                    "velocity": 0.1732283464566929,
                    "duration": 0.38314200000000653
                },
                {
                    "name": "D3",
                    "midi": 50,
                    "time": 108.6319319750008,
                    "velocity": 0.2047244094488189,
                    "duration": 0.38314200000000653
                },
                {
                    "name": "G3",
                    "midi": 55,
                    "time": 109.2066449750008,
                    "velocity": 0.1732283464566929,
                    "duration": 0.38314200000000653
                },
                {
                    "name": "D4",
                    "midi": 62,
                    "time": 109.2066449750008,
                    "velocity": 0.2047244094488189,
                    "duration": 0.38314200000000653
                },
                {
                    "name": "G2",
                    "midi": 43,
                    "time": 109.7813579750008,
                    "velocity": 0.1732283464566929,
                    "duration": 0.38314200000000653
                },
                {
                    "name": "D3",
                    "midi": 50,
                    "time": 109.7813579750008,
                    "velocity": 0.2047244094488189,
                    "duration": 0.38314200000000653
                },
                {
                    "name": "G3",
                    "midi": 55,
                    "time": 110.3448960000008,
                    "velocity": 0.2047244094488189,
                    "duration": 0.38314200000000653
                },
                {
                    "name": "C3",
                    "midi": 48,
                    "time": 110.3448960000008,
                    "velocity": 0.1732283464566929,
                    "duration": 0.38314200000000653
                },
                {
                    "name": "G2",
                    "midi": 43,
                    "time": 110.9196090000008,
                    "velocity": 0.2047244094488189,
                    "duration": 0.38314200000000653
                },
                {
                    "name": "C2",
                    "midi": 36,
                    "time": 110.9196090000008,
                    "velocity": 0.1732283464566929,
                    "duration": 0.38314200000000653
                },
                {
                    "name": "C4",
                    "midi": 60,
                    "time": 111.4943220000008,
                    "velocity": 0.1968503937007874,
                    "duration": 0.38314200000000653
                },
                {
                    "name": "F3",
                    "midi": 53,
                    "time": 111.4943220000008,
                    "velocity": 0.16535433070866143,
                    "duration": 0.38314200000000653
                },
                {
                    "name": "C3",
                    "midi": 48,
                    "time": 112.06903500000081,
                    "velocity": 0.1889763779527559,
                    "duration": 0.38314200000000653
                },
                {
                    "name": "F2",
                    "midi": 41,
                    "time": 112.06903500000081,
                    "velocity": 0.15748031496062992,
                    "duration": 0.38314200000000653
                },
                {
                    "name": "F3",
                    "midi": 53,
                    "time": 112.64374800000081,
                    "velocity": 0.18110236220472442,
                    "duration": 0.38314200000000653
                },
                {
                    "name": "B2",
                    "midi": 47,
                    "time": 112.64374800000081,
                    "velocity": 0.14960629921259844,
                    "duration": 0.38314200000000653
                },
                {
                    "name": "F2",
                    "midi": 41,
                    "time": 113.21846100000081,
                    "velocity": 0.1732283464566929,
                    "duration": 0.38314200000000653
                },
                {
                    "name": "B1",
                    "midi": 35,
                    "time": 113.21846100000081,
                    "velocity": 0.14173228346456693,
                    "duration": 0.38314200000000653
                },
                {
                    "name": "B3",
                    "midi": 59,
                    "time": 113.79317400000082,
                    "velocity": 0.16535433070866143,
                    "duration": 0.38314200000000653
                },
                {
                    "name": "E3",
                    "midi": 52,
                    "time": 113.79317400000082,
                    "velocity": 0.14173228346456693,
                    "duration": 0.38314200000000653
                },
                {
                    "name": "B2",
                    "midi": 47,
                    "time": 114.36788700000082,
                    "velocity": 0.15748031496062992,
                    "duration": 0.38314200000000653
                },
                {
                    "name": "E2",
                    "midi": 40,
                    "time": 114.36788700000082,
                    "velocity": 0.13385826771653545,
                    "duration": 0.38314200000000653
                },
                {
                    "name": "E3",
                    "midi": 52,
                    "time": 114.94260000000082,
                    "velocity": 0.14960629921259844,
                    "duration": 0.38314200000000653
                },
                {
                    "name": "A2",
                    "midi": 45,
                    "time": 114.94260000000082,
                    "velocity": 0.12598425196850394,
                    "duration": 0.38314200000000653
                },
                {
                    "name": "E2",
                    "midi": 40,
                    "time": 115.51731300000083,
                    "velocity": 0.14173228346456693,
                    "duration": 0.38314200000000653
                },
                {
                    "name": "A1",
                    "midi": 33,
                    "time": 115.51731300000083,
                    "velocity": 0.11811023622047244,
                    "duration": 0.38314200000000653
                },
                {
                    "name": "A3",
                    "midi": 57,
                    "time": 116.09202600000083,
                    "velocity": 0.12598425196850394,
                    "duration": 0.38314200000000653
                },
                {
                    "name": "D3",
                    "midi": 50,
                    "time": 116.09202600000083,
                    "velocity": 0.11023622047244094,
                    "duration": 0.38314200000000653
                },
                {
                    "name": "A2",
                    "midi": 45,
                    "time": 116.66673900000083,
                    "velocity": 0.12598425196850394,
                    "duration": 0.38314200000000653
                },
                {
                    "name": "D2",
                    "midi": 38,
                    "time": 116.66673900000083,
                    "velocity": 0.11023622047244094,
                    "duration": 0.38314200000000653
                },
                {
                    "name": "A3",
                    "midi": 57,
                    "time": 117.24145200000083,
                    "velocity": 0.12598425196850394,
                    "duration": 0.38314200000000653
                },
                {
                    "name": "D3",
                    "midi": 50,
                    "time": 117.24145200000083,
                    "velocity": 0.11023622047244094,
                    "duration": 0.38314200000000653
                },
                {
                    "name": "A2",
                    "midi": 45,
                    "time": 117.81616500000084,
                    "velocity": 0.12598425196850394,
                    "duration": 0.38314200000000653
                },
                {
                    "name": "D2",
                    "midi": 38,
                    "time": 117.81616500000084,
                    "velocity": 0.11023622047244094,
                    "duration": 0.38314200000000653
                },
                {
                    "name": "D3",
                    "midi": 50,
                    "time": 118.39087800000084,
                    "velocity": 0.12598425196850394,
                    "duration": 0.38314200000000653
                },
                {
                    "name": "G2",
                    "midi": 43,
                    "time": 118.39087800000084,
                    "velocity": 0.11023622047244094,
                    "duration": 0.38314200000000653
                },
                {
                    "name": "D2",
                    "midi": 38,
                    "time": 118.96559100000084,
                    "velocity": 0.12598425196850394,
                    "duration": 0.19157099999999616
                },
                {
                    "name": "G1",
                    "midi": 31,
                    "time": 118.96559100000084,
                    "velocity": 0.11023622047244094,
                    "duration": 0.19157099999999616
                },
                {
                    "name": "D3",
                    "midi": 50,
                    "time": 119.54030400000084,
                    "velocity": 0.12598425196850394,
                    "duration": 0.19157099999999616
                },
                {
                    "name": "G2",
                    "midi": 43,
                    "time": 119.54030400000084,
                    "velocity": 0.11023622047244094,
                    "duration": 0.19157099999999616
                },
                {
                    "name": "D2",
                    "midi": 38,
                    "time": 120.11501700000085,
                    "velocity": 0.12598425196850394,
                    "duration": 0.19157099999999616
                },
                {
                    "name": "G1",
                    "midi": 31,
                    "time": 120.11501700000085,
                    "velocity": 0.11023622047244094,
                    "duration": 0.19157099999999616
                },
                {
                    "name": "D3",
                    "midi": 50,
                    "time": 120.68973000000085,
                    "velocity": 0.12598425196850394,
                    "duration": 0.19157099999999616
                },
                {
                    "name": "G2",
                    "midi": 43,
                    "time": 120.68973000000085,
                    "velocity": 0.11023622047244094,
                    "duration": 0.19157099999999616
                },
                {
                    "name": "D4",
                    "midi": 62,
                    "time": 121.26444300000085,
                    "velocity": 0.12598425196850394,
                    "duration": 0.19157099999999616
                },
                {
                    "name": "G3",
                    "midi": 55,
                    "time": 121.26444300000085,
                    "velocity": 0.11023622047244094,
                    "duration": 0.19157099999999616
                },
                {
                    "name": "D6",
                    "midi": 86,
                    "time": 122.41386900000084,
                    "velocity": 0.12598425196850394,
                    "duration": 0.19157099999999616
                },
                {
                    "name": "G5",
                    "midi": 79,
                    "time": 122.41386900000084,
                    "velocity": 0.11023622047244094,
                    "duration": 0.19157099999999616
                },
                {
                    "name": "G5",
                    "midi": 79,
                    "time": 122.98858200000085,
                    "velocity": 0.2047244094488189,
                    "duration": 0.09578550000000519
                },
                {
                    "name": "G5",
                    "midi": 79,
                    "time": 123.56329500000085,
                    "velocity": 0.16535433070866143,
                    "duration": 0.09578550000000519
                },
                {
                    "name": "G5",
                    "midi": 79,
                    "time": 124.13800800000085,
                    "velocity": 0.1889763779527559,
                    "duration": 0.09578550000000519
                },
                {
                    "name": "G5",
                    "midi": 79,
                    "time": 124.71272100000085,
                    "velocity": 0.1889763779527559,
                    "duration": 0.09578550000000519
                },
                {
                    "name": "G6",
                    "midi": 91,
                    "time": 125.28743400000086,
                    "velocity": 0.2047244094488189,
                    "duration": 0.09578550000000519
                },
                {
                    "name": "G6",
                    "midi": 91,
                    "time": 125.86214700000086,
                    "velocity": 0.16535433070866143,
                    "duration": 0.09578550000000519
                },
                {
                    "name": "G6",
                    "midi": 91,
                    "time": 126.43686000000086,
                    "velocity": 0.1889763779527559,
                    "duration": 0.09578550000000519
                },
                {
                    "name": "G6",
                    "midi": 91,
                    "time": 127.01157300000087,
                    "velocity": 0.1889763779527559,
                    "duration": 0.09578550000000519
                },
                {
                    "name": "C6",
                    "midi": 84,
                    "time": 127.20314400000088,
                    "velocity": 0.2755905511811024,
                    "duration": 0.19157099999999616
                },
                {
                    "name": "D6",
                    "midi": 86,
                    "time": 127.39471500000087,
                    "velocity": 0.2440944881889764,
                    "duration": 0.19157099999999616
                },
                {
                    "name": "E6",
                    "midi": 88,
                    "time": 127.58628600000087,
                    "velocity": 0.30708661417322836,
                    "duration": 0.19157099999999616
                },
                {
                    "name": "C6",
                    "midi": 84,
                    "time": 127.77785700000086,
                    "velocity": 0.25984251968503935,
                    "duration": 0.19157099999999616
                },
                {
                    "name": "E6",
                    "midi": 88,
                    "time": 127.96942800000086,
                    "velocity": 0.25984251968503935,
                    "duration": 0.28735650000000135
                },
                {
                    "name": "D6",
                    "midi": 86,
                    "time": 128.25678450000086,
                    "velocity": 0.2283464566929134,
                    "duration": 0.04789274999998838
                },
                {
                    "name": "E6",
                    "midi": 88,
                    "time": 128.30467725000085,
                    "velocity": 0.2283464566929134,
                    "duration": 0.04789274999998838
                },
                {
                    "name": "D6",
                    "midi": 86,
                    "time": 128.35257000000084,
                    "velocity": 0.29133858267716534,
                    "duration": 0.19157100000001037
                },
                {
                    "name": "B5",
                    "midi": 83,
                    "time": 128.54414100000085,
                    "velocity": 0.25984251968503935,
                    "duration": 0.19157100000001037
                },
                {
                    "name": "D6",
                    "midi": 86,
                    "time": 128.73571200000086,
                    "velocity": 0.2755905511811024,
                    "duration": 0.09578550000000519
                },
                {
                    "name": "C6",
                    "midi": 84,
                    "time": 129.11885400000085,
                    "velocity": 0.33070866141732286,
                    "duration": 0.3831419999999923
                },
                {
                    "name": "A5",
                    "midi": 81,
                    "time": 129.50199600000084,
                    "velocity": 0.2755905511811024,
                    "duration": 0.19157100000001037
                },
                {
                    "name": "B5",
                    "midi": 83,
                    "time": 129.69356700000085,
                    "velocity": 0.2440944881889764,
                    "duration": 0.19157100000001037
                },
                {
                    "name": "C6",
                    "midi": 84,
                    "time": 129.88513800000086,
                    "velocity": 0.30708661417322836,
                    "duration": 0.19157100000001037
                },
                {
                    "name": "A5",
                    "midi": 81,
                    "time": 130.07670900000087,
                    "velocity": 0.25984251968503935,
                    "duration": 0.19157100000001037
                },
                {
                    "name": "C6",
                    "midi": 84,
                    "time": 130.26828000000089,
                    "velocity": 0.25984251968503935,
                    "duration": 0.28735649999998714
                },
                {
                    "name": "B5",
                    "midi": 83,
                    "time": 130.55563650000087,
                    "velocity": 0.2283464566929134,
                    "duration": 0.04789274999998838
                },
                {
                    "name": "C6",
                    "midi": 84,
                    "time": 130.60352925000086,
                    "velocity": 0.2283464566929134,
                    "duration": 0.04789274999998838
                },
                {
                    "name": "B5",
                    "midi": 83,
                    "time": 130.65142200000085,
                    "velocity": 0.29133858267716534,
                    "duration": 0.19157100000001037
                },
                {
                    "name": "G5",
                    "midi": 79,
                    "time": 130.84299300000086,
                    "velocity": 0.25984251968503935,
                    "duration": 0.19157100000001037
                },
                {
                    "name": "B5",
                    "midi": 83,
                    "time": 131.03456400000087,
                    "velocity": 0.2755905511811024,
                    "duration": 0.09578550000000519
                },
                {
                    "name": "A5",
                    "midi": 81,
                    "time": 131.41770600000086,
                    "velocity": 0.33070866141732286,
                    "duration": 0.3831419999999923
                },
                {
                    "name": "F5",
                    "midi": 77,
                    "time": 131.80084800000085,
                    "velocity": 0.2755905511811024,
                    "duration": 0.19157100000001037
                },
                {
                    "name": "G5",
                    "midi": 79,
                    "time": 131.99241900000087,
                    "velocity": 0.2440944881889764,
                    "duration": 0.19157100000001037
                },
                {
                    "name": "A5",
                    "midi": 81,
                    "time": 132.18399000000088,
                    "velocity": 0.30708661417322836,
                    "duration": 0.19157100000001037
                },
                {
                    "name": "F5",
                    "midi": 77,
                    "time": 132.37556100000089,
                    "velocity": 0.25984251968503935,
                    "duration": 0.19157100000001037
                },
                {
                    "name": "A5",
                    "midi": 81,
                    "time": 132.5671320000009,
                    "velocity": 0.25984251968503935,
                    "duration": 0.28735649999998714
                },
                {
                    "name": "G5",
                    "midi": 79,
                    "time": 132.85448850000088,
                    "velocity": 0.2283464566929134,
                    "duration": 0.04789274999998838
                },
                {
                    "name": "A5",
                    "midi": 81,
                    "time": 132.90238125000087,
                    "velocity": 0.2283464566929134,
                    "duration": 0.04789274999998838
                },
                {
                    "name": "G5",
                    "midi": 79,
                    "time": 132.95027400000086,
                    "velocity": 0.29133858267716534,
                    "duration": 0.19157100000001037
                },
                {
                    "name": "E5",
                    "midi": 76,
                    "time": 133.14184500000087,
                    "velocity": 0.25984251968503935,
                    "duration": 0.19157100000001037
                },
                {
                    "name": "G5",
                    "midi": 79,
                    "time": 133.33341600000088,
                    "velocity": 0.30708661417322836,
                    "duration": 0.19157100000001037
                },
                {
                    "name": "E5",
                    "midi": 76,
                    "time": 133.5249870000009,
                    "velocity": 0.25984251968503935,
                    "duration": 0.19157100000001037
                },
                {
                    "name": "G5",
                    "midi": 79,
                    "time": 133.7165580000009,
                    "velocity": 0.25984251968503935,
                    "duration": 0.28735649999998714
                },
                {
                    "name": "F5",
                    "midi": 77,
                    "time": 134.0039145000009,
                    "velocity": 0.2283464566929134,
                    "duration": 0.04789274999998838
                },
                {
                    "name": "G5",
                    "midi": 79,
                    "time": 134.05180725000088,
                    "velocity": 0.2283464566929134,
                    "duration": 0.04789274999998838
                },
                {
                    "name": "F5",
                    "midi": 77,
                    "time": 134.09970000000087,
                    "velocity": 0.29133858267716534,
                    "duration": 0.19157100000001037
                },
                {
                    "name": "D5",
                    "midi": 74,
                    "time": 134.29127100000088,
                    "velocity": 0.25984251968503935,
                    "duration": 0.19157100000001037
                },
                {
                    "name": "F5",
                    "midi": 77,
                    "time": 134.4828420000009,
                    "velocity": 0.30708661417322836,
                    "duration": 0.19157100000001037
                },
                {
                    "name": "D5",
                    "midi": 74,
                    "time": 134.6744130000009,
                    "velocity": 0.25984251968503935,
                    "duration": 0.19157100000001037
                },
                {
                    "name": "F5",
                    "midi": 77,
                    "time": 134.8659840000009,
                    "velocity": 0.25984251968503935,
                    "duration": 0.28735649999998714
                },
                {
                    "name": "E5",
                    "midi": 76,
                    "time": 135.1533405000009,
                    "velocity": 0.2283464566929134,
                    "duration": 0.04789274999998838
                },
                {
                    "name": "F5",
                    "midi": 77,
                    "time": 135.20123325000088,
                    "velocity": 0.2283464566929134,
                    "duration": 0.04789274999998838
                },
                {
                    "name": "E5",
                    "midi": 76,
                    "time": 135.24912600000087,
                    "velocity": 0.29133858267716534,
                    "duration": 0.19157100000001037
                },
                {
                    "name": "C5",
                    "midi": 72,
                    "time": 135.44069700000088,
                    "velocity": 0.25984251968503935,
                    "duration": 0.19157100000001037
                },
                {
                    "name": "E5",
                    "midi": 76,
                    "time": 135.6322680000009,
                    "velocity": 0.2755905511811024,
                    "duration": 0.09578550000000519
                },
                {
                    "name": "D5",
                    "midi": 74,
                    "time": 136.01541000000088,
                    "velocity": 0.33070866141732286,
                    "duration": 0.3831419999999923
                },
                {
                    "name": "C5",
                    "midi": 72,
                    "time": 136.39855200000088,
                    "velocity": 0.29133858267716534,
                    "duration": 0.19157100000001037
                },
                {
                    "name": "D5",
                    "midi": 74,
                    "time": 136.5901230000009,
                    "velocity": 0.25984251968503935,
                    "duration": 0.19157100000001037
                },
                {
                    "name": "E5",
                    "midi": 76,
                    "time": 136.7816940000009,
                    "velocity": 0.3228346456692913,
                    "duration": 0.19157100000001037
                },
                {
                    "name": "C5",
                    "midi": 72,
                    "time": 136.9732650000009,
                    "velocity": 0.2677165354330709,
                    "duration": 0.19157100000001037
                },
                {
                    "name": "E5",
                    "midi": 76,
                    "time": 137.16483600000092,
                    "velocity": 0.2677165354330709,
                    "duration": 0.28735649999998714
                },
                {
                    "name": "D5",
                    "midi": 74,
                    "time": 137.4521925000009,
                    "velocity": 0.2440944881889764,
                    "duration": 0.04789274999998838
                },
                {
                    "name": "E5",
                    "midi": 76,
                    "time": 137.5000852500009,
                    "velocity": 0.2440944881889764,
                    "duration": 0.04789274999998838
                },
                {
                    "name": "D5",
                    "midi": 74,
                    "time": 137.54797800000088,
                    "velocity": 0.30708661417322836,
                    "duration": 0.19157100000001037
                },
                {
                    "name": "B4",
                    "midi": 71,
                    "time": 137.7395490000009,
                    "velocity": 0.2677165354330709,
                    "duration": 0.19157100000001037
                },
                {
                    "name": "D5",
                    "midi": 74,
                    "time": 137.9311200000009,
                    "velocity": 0.2992125984251969,
                    "duration": 0.09578550000000519
                },
                {
                    "name": "C5",
                    "midi": 72,
                    "time": 138.3142620000009,
                    "velocity": 0.36220472440944884,
                    "duration": 0.3831419999999923
                },
                {
                    "name": "A4",
                    "midi": 69,
                    "time": 138.6974040000009,
                    "velocity": 0.33070866141732286,
                    "duration": 0.19157100000001037
                },
                {
                    "name": "B4",
                    "midi": 71,
                    "time": 138.8889750000009,
                    "velocity": 0.29133858267716534,
                    "duration": 0.19157100000001037
                },
                {
                    "name": "C5",
                    "midi": 72,
                    "time": 139.0805460000009,
                    "velocity": 0.3464566929133858,
                    "duration": 0.19157100000001037
                },
                {
                    "name": "A4",
                    "midi": 69,
                    "time": 139.27211700000092,
                    "velocity": 0.29133858267716534,
                    "duration": 0.19157100000001037
                },
                {
                    "name": "C5",
                    "midi": 72,
                    "time": 139.46368800000093,
                    "velocity": 0.29133858267716534,
                    "duration": 0.28735649999998714
                },
                {
                    "name": "B4",
                    "midi": 71,
                    "time": 139.75104450000092,
                    "velocity": 0.2677165354330709,
                    "duration": 0.04789274999998838
                },
                {
                    "name": "C5",
                    "midi": 72,
                    "time": 139.7989372500009,
                    "velocity": 0.2677165354330709,
                    "duration": 0.04789274999998838
                },
                {
                    "name": "B4",
                    "midi": 71,
                    "time": 139.8468300000009,
                    "velocity": 0.33858267716535434,
                    "duration": 0.19157100000001037
                },
                {
                    "name": "G4",
                    "midi": 67,
                    "time": 140.0384010000009,
                    "velocity": 0.30708661417322836,
                    "duration": 0.19157100000001037
                },
                {
                    "name": "B4",
                    "midi": 71,
                    "time": 140.2299720000009,
                    "velocity": 0.3228346456692913,
                    "duration": 0.09578550000000519
                },
                {
                    "name": "A4",
                    "midi": 69,
                    "time": 140.6131140000009,
                    "velocity": 0.4015748031496063,
                    "duration": 0.3831419999999923
                },
                {
                    "name": "F4",
                    "midi": 65,
                    "time": 140.9962560000009,
                    "velocity": 0.3543307086614173,
                    "duration": 0.19157100000001037
                },
                {
                    "name": "G4",
                    "midi": 67,
                    "time": 141.1878270000009,
                    "velocity": 0.31496062992125984,
                    "duration": 0.19157100000001037
                },
                {
                    "name": "A4",
                    "midi": 69,
                    "time": 141.37939800000092,
                    "velocity": 0.3858267716535433,
                    "duration": 0.19157100000001037
                },
                {
                    "name": "F4",
                    "midi": 65,
                    "time": 141.57096900000093,
                    "velocity": 0.31496062992125984,
                    "duration": 0.19157100000001037
                },
                {
                    "name": "A4",
                    "midi": 69,
                    "time": 141.76254000000094,
                    "velocity": 0.3228346456692913,
                    "duration": 0.28735649999998714
                },
                {
                    "name": "G4",
                    "midi": 67,
                    "time": 142.04989650000093,
                    "velocity": 0.29133858267716534,
                    "duration": 0.04789274999998838
                },
                {
                    "name": "A4",
                    "midi": 69,
                    "time": 142.09778925000091,
                    "velocity": 0.29133858267716534,
                    "duration": 0.04789274999998838
                },
                {
                    "name": "G4",
                    "midi": 67,
                    "time": 142.1456820000009,
                    "velocity": 0.3779527559055118,
                    "duration": 0.19157100000001037
                },
                {
                    "name": "E4",
                    "midi": 64,
                    "time": 142.3372530000009,
                    "velocity": 0.33070866141732286,
                    "duration": 0.19157100000001037
                },
                {
                    "name": "G4",
                    "midi": 67,
                    "time": 142.52882400000092,
                    "velocity": 0.4094488188976378,
                    "duration": 0.19157100000001037
                },
                {
                    "name": "E4",
                    "midi": 64,
                    "time": 142.72039500000093,
                    "velocity": 0.3464566929133858,
                    "duration": 0.19157100000001037
                },
                {
                    "name": "G4",
                    "midi": 67,
                    "time": 142.91196600000094,
                    "velocity": 0.3464566929133858,
                    "duration": 0.28735649999998714
                },
                {
                    "name": "F4",
                    "midi": 65,
                    "time": 143.19932250000093,
                    "velocity": 0.3228346456692913,
                    "duration": 0.04789274999998838
                },
                {
                    "name": "G4",
                    "midi": 67,
                    "time": 143.24721525000092,
                    "velocity": 0.3228346456692913,
                    "duration": 0.04789274999998838
                },
                {
                    "name": "F4",
                    "midi": 65,
                    "time": 143.2951080000009,
                    "velocity": 0.41732283464566927,
                    "duration": 0.19157100000001037
                },
                {
                    "name": "D4",
                    "midi": 62,
                    "time": 143.48667900000092,
                    "velocity": 0.3700787401574803,
                    "duration": 0.19157100000001037
                },
                {
                    "name": "F4",
                    "midi": 65,
                    "time": 143.67825000000093,
                    "velocity": 0.4566929133858268,
                    "duration": 0.19157100000001037
                },
                {
                    "name": "D4",
                    "midi": 62,
                    "time": 143.86982100000094,
                    "velocity": 0.3937007874015748,
                    "duration": 0.19157100000001037
                },
                {
                    "name": "F4",
                    "midi": 65,
                    "time": 144.06139200000095,
                    "velocity": 0.3937007874015748,
                    "duration": 0.28735649999998714
                },
                {
                    "name": "E4",
                    "midi": 64,
                    "time": 144.34874850000094,
                    "velocity": 0.3700787401574803,
                    "duration": 0.04789274999998838
                },
                {
                    "name": "F4",
                    "midi": 65,
                    "time": 144.39664125000093,
                    "velocity": 0.3700787401574803,
                    "duration": 0.04789274999998838
                },
                {
                    "name": "E4",
                    "midi": 64,
                    "time": 144.4445340000009,
                    "velocity": 0.4645669291338583,
                    "duration": 0.19157100000001037
                },
                {
                    "name": "C4",
                    "midi": 60,
                    "time": 144.63610500000092,
                    "velocity": 0.4251968503937008,
                    "duration": 0.19157100000001037
                },
                {
                    "name": "E4",
                    "midi": 64,
                    "time": 144.82767600000093,
                    "velocity": 0.4566929133858268,
                    "duration": 0.09578550000000519
                },
                {
                    "name": "D4",
                    "midi": 62,
                    "time": 145.21081800000093,
                    "velocity": 0.5905511811023622,
                    "duration": 0.3831419999999923
                },
                {
                    "name": "C3",
                    "midi": 48,
                    "time": 145.59396000000092,
                    "velocity": 0.4881889763779528,
                    "duration": 0.06704984999998942
                },
                {
                    "name": "C4",
                    "midi": 60,
                    "time": 145.59396000000092,
                    "velocity": 0.5826771653543307,
                    "duration": 0.06704984999998942
                },
                {
                    "name": "D3",
                    "midi": 50,
                    "time": 145.7855310000009,
                    "velocity": 0.4409448818897638,
                    "duration": 0.06704984999998942
                },
                {
                    "name": "D4",
                    "midi": 62,
                    "time": 145.7855310000009,
                    "velocity": 0.5196850393700787,
                    "duration": 0.06704984999998942
                },
                {
                    "name": "E3",
                    "midi": 52,
                    "time": 145.97710200000088,
                    "velocity": 0.5275590551181102,
                    "duration": 0.06704984999998942
                },
                {
                    "name": "E4",
                    "midi": 64,
                    "time": 145.97710200000088,
                    "velocity": 0.6220472440944882,
                    "duration": 0.06704984999998942
                },
                {
                    "name": "C3",
                    "midi": 48,
                    "time": 146.16867300000087,
                    "velocity": 0.4409448818897638,
                    "duration": 0.06704984999998942
                },
                {
                    "name": "C4",
                    "midi": 60,
                    "time": 146.16867300000087,
                    "velocity": 0.5196850393700787,
                    "duration": 0.06704984999998942
                },
                {
                    "name": "E3",
                    "midi": 52,
                    "time": 146.36024400000085,
                    "velocity": 0.4409448818897638,
                    "duration": 0.3831419999999923
                },
                {
                    "name": "E4",
                    "midi": 64,
                    "time": 146.36024400000085,
                    "velocity": 0.5196850393700787,
                    "duration": 0.3831419999999923
                },
                {
                    "name": "D3",
                    "midi": 50,
                    "time": 146.74338600000084,
                    "velocity": 0.4881889763779528,
                    "duration": 0.06704984999998942
                },
                {
                    "name": "D4",
                    "midi": 62,
                    "time": 146.74338600000084,
                    "velocity": 0.5826771653543307,
                    "duration": 0.06704984999998942
                },
                {
                    "name": "B2",
                    "midi": 47,
                    "time": 146.93495700000082,
                    "velocity": 0.4409448818897638,
                    "duration": 0.06704984999998942
                },
                {
                    "name": "B3",
                    "midi": 59,
                    "time": 146.93495700000082,
                    "velocity": 0.5196850393700787,
                    "duration": 0.06704984999998942
                },
                {
                    "name": "D3",
                    "midi": 50,
                    "time": 147.1265280000008,
                    "velocity": 0.4645669291338583,
                    "duration": 0.09578550000000519
                },
                {
                    "name": "D4",
                    "midi": 62,
                    "time": 147.1265280000008,
                    "velocity": 0.5511811023622047,
                    "duration": 0.09578550000000519
                },
                {
                    "name": "C3",
                    "midi": 48,
                    "time": 147.5096700000008,
                    "velocity": 0.5669291338582677,
                    "duration": 0.3831419999999923
                },
                {
                    "name": "C4",
                    "midi": 60,
                    "time": 147.5096700000008,
                    "velocity": 0.6692913385826772,
                    "duration": 0.3831419999999923
                },
                {
                    "name": "A2",
                    "midi": 45,
                    "time": 147.8928120000008,
                    "velocity": 0.4881889763779528,
                    "duration": 0.06704984999998942
                },
                {
                    "name": "A3",
                    "midi": 57,
                    "time": 147.8928120000008,
                    "velocity": 0.5826771653543307,
                    "duration": 0.06704984999998942
                },
                {
                    "name": "B2",
                    "midi": 47,
                    "time": 148.08438300000077,
                    "velocity": 0.4409448818897638,
                    "duration": 0.06704984999998942
                },
                {
                    "name": "B3",
                    "midi": 59,
                    "time": 148.08438300000077,
                    "velocity": 0.5196850393700787,
                    "duration": 0.06704984999998942
                },
                {
                    "name": "C3",
                    "midi": 48,
                    "time": 148.27595400000075,
                    "velocity": 0.5275590551181102,
                    "duration": 0.06704984999998942
                },
                {
                    "name": "C4",
                    "midi": 60,
                    "time": 148.27595400000075,
                    "velocity": 0.6220472440944882,
                    "duration": 0.06704984999998942
                },
                {
                    "name": "A2",
                    "midi": 45,
                    "time": 148.46752500000073,
                    "velocity": 0.4409448818897638,
                    "duration": 0.06704984999998942
                },
                {
                    "name": "A3",
                    "midi": 57,
                    "time": 148.46752500000073,
                    "velocity": 0.5196850393700787,
                    "duration": 0.06704984999998942
                },
                {
                    "name": "C3",
                    "midi": 48,
                    "time": 148.65909600000072,
                    "velocity": 0.4409448818897638,
                    "duration": 0.3831419999999923
                },
                {
                    "name": "C4",
                    "midi": 60,
                    "time": 148.65909600000072,
                    "velocity": 0.5196850393700787,
                    "duration": 0.3831419999999923
                },
                {
                    "name": "B2",
                    "midi": 47,
                    "time": 149.0422380000007,
                    "velocity": 0.4881889763779528,
                    "duration": 0.06704984999998942
                },
                {
                    "name": "B3",
                    "midi": 59,
                    "time": 149.0422380000007,
                    "velocity": 0.5826771653543307,
                    "duration": 0.06704984999998942
                },
                {
                    "name": "G2",
                    "midi": 43,
                    "time": 149.2338090000007,
                    "velocity": 0.4409448818897638,
                    "duration": 0.06704984999998942
                },
                {
                    "name": "G3",
                    "midi": 55,
                    "time": 149.2338090000007,
                    "velocity": 0.5196850393700787,
                    "duration": 0.06704984999998942
                },
                {
                    "name": "B2",
                    "midi": 47,
                    "time": 149.42538000000067,
                    "velocity": 0.4645669291338583,
                    "duration": 0.09578550000000519
                },
                {
                    "name": "B3",
                    "midi": 59,
                    "time": 149.42538000000067,
                    "velocity": 0.5511811023622047,
                    "duration": 0.09578550000000519
                },
                {
                    "name": "A2",
                    "midi": 45,
                    "time": 149.80852200000066,
                    "velocity": 0.5433070866141733,
                    "duration": 0.3831419999999923
                },
                {
                    "name": "A3",
                    "midi": 57,
                    "time": 149.80852200000066,
                    "velocity": 0.6456692913385826,
                    "duration": 0.3831419999999923
                },
                {
                    "name": "F2",
                    "midi": 41,
                    "time": 150.19166400000066,
                    "velocity": 0.4881889763779528,
                    "duration": 0.06704984999998942
                },
                {
                    "name": "F3",
                    "midi": 53,
                    "time": 150.19166400000066,
                    "velocity": 0.5826771653543307,
                    "duration": 0.06704984999998942
                },
                {
                    "name": "G2",
                    "midi": 43,
                    "time": 150.38323500000064,
                    "velocity": 0.4409448818897638,
                    "duration": 0.06704984999998942
                },
                {
                    "name": "G3",
                    "midi": 55,
                    "time": 150.38323500000064,
                    "velocity": 0.5196850393700787,
                    "duration": 0.06704984999998942
                },
                {
                    "name": "A2",
                    "midi": 45,
                    "time": 150.57480600000062,
                    "velocity": 0.5275590551181102,
                    "duration": 0.06704984999998942
                },
                {
                    "name": "A3",
                    "midi": 57,
                    "time": 150.57480600000062,
                    "velocity": 0.6220472440944882,
                    "duration": 0.06704984999998942
                },
                {
                    "name": "F2",
                    "midi": 41,
                    "time": 150.7663770000006,
                    "velocity": 0.4409448818897638,
                    "duration": 0.06704984999998942
                },
                {
                    "name": "F3",
                    "midi": 53,
                    "time": 150.7663770000006,
                    "velocity": 0.5196850393700787,
                    "duration": 0.06704984999998942
                },
                {
                    "name": "A2",
                    "midi": 45,
                    "time": 150.95794800000058,
                    "velocity": 0.4409448818897638,
                    "duration": 0.3831419999999923
                },
                {
                    "name": "A3",
                    "midi": 57,
                    "time": 150.95794800000058,
                    "velocity": 0.5196850393700787,
                    "duration": 0.3831419999999923
                },
                {
                    "name": "G2",
                    "midi": 43,
                    "time": 151.34109000000058,
                    "velocity": 0.4881889763779528,
                    "duration": 0.06704984999998942
                },
                {
                    "name": "G3",
                    "midi": 55,
                    "time": 151.34109000000058,
                    "velocity": 0.5826771653543307,
                    "duration": 0.06704984999998942
                },
                {
                    "name": "E2",
                    "midi": 40,
                    "time": 151.53266100000056,
                    "velocity": 0.4409448818897638,
                    "duration": 0.06704984999998942
                },
                {
                    "name": "E3",
                    "midi": 52,
                    "time": 151.53266100000056,
                    "velocity": 0.5196850393700787,
                    "duration": 0.06704984999998942
                },
                {
                    "name": "G2",
                    "midi": 43,
                    "time": 151.72423200000054,
                    "velocity": 0.5275590551181102,
                    "duration": 0.06704984999998942
                },
                {
                    "name": "G3",
                    "midi": 55,
                    "time": 151.72423200000054,
                    "velocity": 0.6220472440944882,
                    "duration": 0.06704984999998942
                },
                {
                    "name": "E2",
                    "midi": 40,
                    "time": 151.91580300000052,
                    "velocity": 0.4409448818897638,
                    "duration": 0.06704984999998942
                },
                {
                    "name": "E3",
                    "midi": 52,
                    "time": 151.91580300000052,
                    "velocity": 0.5196850393700787,
                    "duration": 0.06704984999998942
                },
                {
                    "name": "G2",
                    "midi": 43,
                    "time": 152.1073740000005,
                    "velocity": 0.4409448818897638,
                    "duration": 0.3831419999999923
                },
                {
                    "name": "G3",
                    "midi": 55,
                    "time": 152.1073740000005,
                    "velocity": 0.5196850393700787,
                    "duration": 0.3831419999999923
                },
                {
                    "name": "F2",
                    "midi": 41,
                    "time": 152.4905160000005,
                    "velocity": 0.4881889763779528,
                    "duration": 0.06704984999998942
                },
                {
                    "name": "F3",
                    "midi": 53,
                    "time": 152.4905160000005,
                    "velocity": 0.5826771653543307,
                    "duration": 0.06704984999998942
                },
                {
                    "name": "D2",
                    "midi": 38,
                    "time": 152.68208700000048,
                    "velocity": 0.4409448818897638,
                    "duration": 0.06704984999998942
                },
                {
                    "name": "D3",
                    "midi": 50,
                    "time": 152.68208700000048,
                    "velocity": 0.5196850393700787,
                    "duration": 0.06704984999998942
                },
                {
                    "name": "F2",
                    "midi": 41,
                    "time": 152.87365800000046,
                    "velocity": 0.5275590551181102,
                    "duration": 0.06704984999998942
                },
                {
                    "name": "F3",
                    "midi": 53,
                    "time": 152.87365800000046,
                    "velocity": 0.6220472440944882,
                    "duration": 0.06704984999998942
                },
                {
                    "name": "D2",
                    "midi": 38,
                    "time": 153.06522900000044,
                    "velocity": 0.4409448818897638,
                    "duration": 0.06704984999998942
                },
                {
                    "name": "D3",
                    "midi": 50,
                    "time": 153.06522900000044,
                    "velocity": 0.5196850393700787,
                    "duration": 0.06704984999998942
                },
                {
                    "name": "F2",
                    "midi": 41,
                    "time": 153.25680000000042,
                    "velocity": 0.4409448818897638,
                    "duration": 0.3831419999999923
                },
                {
                    "name": "F3",
                    "midi": 53,
                    "time": 153.25680000000042,
                    "velocity": 0.5196850393700787,
                    "duration": 0.3831419999999923
                },
                {
                    "name": "E2",
                    "midi": 40,
                    "time": 153.63994200000042,
                    "velocity": 0.4881889763779528,
                    "duration": 0.06704984999998942
                },
                {
                    "name": "E3",
                    "midi": 52,
                    "time": 153.63994200000042,
                    "velocity": 0.5826771653543307,
                    "duration": 0.06704984999998942
                },
                {
                    "name": "C2",
                    "midi": 36,
                    "time": 153.8315130000004,
                    "velocity": 0.4409448818897638,
                    "duration": 0.06704984999998942
                },
                {
                    "name": "C3",
                    "midi": 48,
                    "time": 153.8315130000004,
                    "velocity": 0.5196850393700787,
                    "duration": 0.06704984999998942
                },
                {
                    "name": "E2",
                    "midi": 40,
                    "time": 154.02308400000038,
                    "velocity": 0.4645669291338583,
                    "duration": 0.09578550000000519
                },
                {
                    "name": "E3",
                    "midi": 52,
                    "time": 154.02308400000038,
                    "velocity": 0.5511811023622047,
                    "duration": 0.09578550000000519
                },
                {
                    "name": "D2",
                    "midi": 38,
                    "time": 154.40622600000037,
                    "velocity": 0.5669291338582677,
                    "duration": 0.3831419999999923
                },
                {
                    "name": "D3",
                    "midi": 50,
                    "time": 154.40622600000037,
                    "velocity": 0.6692913385826772,
                    "duration": 0.3831419999999923
                },
                {
                    "name": "G#1",
                    "midi": 32,
                    "time": 155.17251000000036,
                    "velocity": 0.3858267716535433,
                    "duration": 0.19157100000001037
                },
                {
                    "name": "D#2",
                    "midi": 39,
                    "time": 155.17251000000036,
                    "velocity": 0.3858267716535433,
                    "duration": 0.19157100000001037
                },
                {
                    "name": "G#2",
                    "midi": 44,
                    "time": 155.17251000000036,
                    "velocity": 0.4881889763779528,
                    "duration": 0.19157100000001037
                },
                {
                    "name": "F2",
                    "midi": 41,
                    "time": 155.74722300000036,
                    "velocity": 0.4330708661417323,
                    "duration": 0.19157100000001037
                },
                {
                    "name": "G#1",
                    "midi": 32,
                    "time": 155.74722300000036,
                    "velocity": 0.3464566929133858,
                    "duration": 0.19157100000001037
                },
                {
                    "name": "F1",
                    "midi": 29,
                    "time": 155.74722300000036,
                    "velocity": 0.3464566929133858,
                    "duration": 0.19157100000001037
                },
                {
                    "name": "G#1",
                    "midi": 32,
                    "time": 156.32193600000036,
                    "velocity": 0.3858267716535433,
                    "duration": 0.19157100000001037
                },
                {
                    "name": "D#2",
                    "midi": 39,
                    "time": 156.32193600000036,
                    "velocity": 0.3858267716535433,
                    "duration": 0.19157100000001037
                },
                {
                    "name": "G#2",
                    "midi": 44,
                    "time": 156.32193600000036,
                    "velocity": 0.4881889763779528,
                    "duration": 0.19157100000001037
                },
                {
                    "name": "F2",
                    "midi": 41,
                    "time": 156.89664900000037,
                    "velocity": 0.44881889763779526,
                    "duration": 0.19157100000001037
                },
                {
                    "name": "G#1",
                    "midi": 32,
                    "time": 156.89664900000037,
                    "velocity": 0.3543307086614173,
                    "duration": 0.19157100000001037
                },
                {
                    "name": "F1",
                    "midi": 29,
                    "time": 156.89664900000037,
                    "velocity": 0.3543307086614173,
                    "duration": 0.19157100000001037
                },
                {
                    "name": "G#1",
                    "midi": 32,
                    "time": 157.47136200000037,
                    "velocity": 0.3858267716535433,
                    "duration": 0.19157100000001037
                },
                {
                    "name": "D#2",
                    "midi": 39,
                    "time": 157.47136200000037,
                    "velocity": 0.3858267716535433,
                    "duration": 0.19157100000001037
                },
                {
                    "name": "G#2",
                    "midi": 44,
                    "time": 157.47136200000037,
                    "velocity": 0.4881889763779528,
                    "duration": 0.19157100000001037
                },
                {
                    "name": "F2",
                    "midi": 41,
                    "time": 158.04607500000037,
                    "velocity": 0.4330708661417323,
                    "duration": 0.19157100000001037
                },
                {
                    "name": "G#1",
                    "midi": 32,
                    "time": 158.04607500000037,
                    "velocity": 0.3464566929133858,
                    "duration": 0.19157100000001037
                },
                {
                    "name": "F1",
                    "midi": 29,
                    "time": 158.04607500000037,
                    "velocity": 0.3464566929133858,
                    "duration": 0.19157100000001037
                },
                {
                    "name": "G#1",
                    "midi": 32,
                    "time": 158.62078800000037,
                    "velocity": 0.3858267716535433,
                    "duration": 0.19157100000001037
                },
                {
                    "name": "D#2",
                    "midi": 39,
                    "time": 158.62078800000037,
                    "velocity": 0.3858267716535433,
                    "duration": 0.19157100000001037
                },
                {
                    "name": "G#2",
                    "midi": 44,
                    "time": 158.62078800000037,
                    "velocity": 0.4881889763779528,
                    "duration": 0.19157100000001037
                },
                {
                    "name": "F2",
                    "midi": 41,
                    "time": 159.19550100000038,
                    "velocity": 0.44881889763779526,
                    "duration": 0.19157100000001037
                },
                {
                    "name": "G#1",
                    "midi": 32,
                    "time": 159.19550100000038,
                    "velocity": 0.3543307086614173,
                    "duration": 0.19157100000001037
                },
                {
                    "name": "F1",
                    "midi": 29,
                    "time": 159.19550100000038,
                    "velocity": 0.3543307086614173,
                    "duration": 0.19157100000001037
                },
                {
                    "name": "C2",
                    "midi": 36,
                    "time": 159.77021400000038,
                    "velocity": 0.41732283464566927,
                    "duration": 0.19157100000001037
                },
                {
                    "name": "G2",
                    "midi": 43,
                    "time": 159.77021400000038,
                    "velocity": 0.41732283464566927,
                    "duration": 0.19157100000001037
                },
                {
                    "name": "C3",
                    "midi": 48,
                    "time": 159.77021400000038,
                    "velocity": 0.5354330708661418,
                    "duration": 0.19157100000001037
                },
                {
                    "name": "F2",
                    "midi": 41,
                    "time": 160.34492700000038,
                    "velocity": 0.47244094488188976,
                    "duration": 0.19157100000001037
                },
                {
                    "name": "C2",
                    "midi": 36,
                    "time": 160.34492700000038,
                    "velocity": 0.3779527559055118,
                    "duration": 0.19157100000001037
                },
                {
                    "name": "F1",
                    "midi": 29,
                    "time": 160.34492700000038,
                    "velocity": 0.3779527559055118,
                    "duration": 0.19157100000001037
                },
                {
                    "name": "C2",
                    "midi": 36,
                    "time": 160.91964000000038,
                    "velocity": 0.41732283464566927,
                    "duration": 0.19157100000001037
                },
                {
                    "name": "G2",
                    "midi": 43,
                    "time": 160.91964000000038,
                    "velocity": 0.41732283464566927,
                    "duration": 0.19157100000001037
                },
                {
                    "name": "C3",
                    "midi": 48,
                    "time": 160.91964000000038,
                    "velocity": 0.5354330708661418,
                    "duration": 0.19157100000001037
                },
                {
                    "name": "F2",
                    "midi": 41,
                    "time": 161.4943530000004,
                    "velocity": 0.4881889763779528,
                    "duration": 0.19157100000001037
                },
                {
                    "name": "C2",
                    "midi": 36,
                    "time": 161.4943530000004,
                    "velocity": 0.3858267716535433,
                    "duration": 0.19157100000001037
                },
                {
                    "name": "F1",
                    "midi": 29,
                    "time": 161.4943530000004,
                    "velocity": 0.3858267716535433,
                    "duration": 0.19157100000001037
                },
                {
                    "name": "C2",
                    "midi": 36,
                    "time": 162.0690660000004,
                    "velocity": 0.41732283464566927,
                    "duration": 0.19157100000001037
                },
                {
                    "name": "G2",
                    "midi": 43,
                    "time": 162.0690660000004,
                    "velocity": 0.41732283464566927,
                    "duration": 0.19157100000001037
                },
                {
                    "name": "C3",
                    "midi": 48,
                    "time": 162.0690660000004,
                    "velocity": 0.5354330708661418,
                    "duration": 0.19157100000001037
                },
                {
                    "name": "F2",
                    "midi": 41,
                    "time": 162.6437790000004,
                    "velocity": 0.47244094488188976,
                    "duration": 0.19157100000001037
                },
                {
                    "name": "C2",
                    "midi": 36,
                    "time": 162.6437790000004,
                    "velocity": 0.3779527559055118,
                    "duration": 0.19157100000001037
                },
                {
                    "name": "F1",
                    "midi": 29,
                    "time": 162.6437790000004,
                    "velocity": 0.3779527559055118,
                    "duration": 0.19157100000001037
                },
                {
                    "name": "C2",
                    "midi": 36,
                    "time": 163.2184920000004,
                    "velocity": 0.41732283464566927,
                    "duration": 0.19157100000001037
                },
                {
                    "name": "G2",
                    "midi": 43,
                    "time": 163.2184920000004,
                    "velocity": 0.41732283464566927,
                    "duration": 0.19157100000001037
                },
                {
                    "name": "C3",
                    "midi": 48,
                    "time": 163.2184920000004,
                    "velocity": 0.5354330708661418,
                    "duration": 0.19157100000001037
                },
                {
                    "name": "F2",
                    "midi": 41,
                    "time": 163.7932050000004,
                    "velocity": 0.4881889763779528,
                    "duration": 0.19157100000001037
                },
                {
                    "name": "C2",
                    "midi": 36,
                    "time": 163.7932050000004,
                    "velocity": 0.3858267716535433,
                    "duration": 0.19157100000001037
                },
                {
                    "name": "F1",
                    "midi": 29,
                    "time": 163.7932050000004,
                    "velocity": 0.3858267716535433,
                    "duration": 0.19157100000001037
                },
                {
                    "name": "C2",
                    "midi": 36,
                    "time": 164.3679180000004,
                    "velocity": 0.3543307086614173,
                    "duration": 0.19157100000001037
                },
                {
                    "name": "G2",
                    "midi": 43,
                    "time": 164.3679180000004,
                    "velocity": 0.3543307086614173,
                    "duration": 0.19157100000001037
                },
                {
                    "name": "C3",
                    "midi": 48,
                    "time": 164.3679180000004,
                    "velocity": 0.44881889763779526,
                    "duration": 0.19157100000001037
                },
                {
                    "name": "F2",
                    "midi": 41,
                    "time": 164.9426310000004,
                    "velocity": 0.4094488188976378,
                    "duration": 0.19157100000001037
                },
                {
                    "name": "C2",
                    "midi": 36,
                    "time": 164.9426310000004,
                    "velocity": 0.3228346456692913,
                    "duration": 0.19157100000001037
                },
                {
                    "name": "F1",
                    "midi": 29,
                    "time": 164.9426310000004,
                    "velocity": 0.3228346456692913,
                    "duration": 0.19157100000001037
                },
                {
                    "name": "C2",
                    "midi": 36,
                    "time": 165.5173440000004,
                    "velocity": 0.29133858267716534,
                    "duration": 0.19157100000001037
                },
                {
                    "name": "G2",
                    "midi": 43,
                    "time": 165.5173440000004,
                    "velocity": 0.29133858267716534,
                    "duration": 0.19157100000001037
                },
                {
                    "name": "C3",
                    "midi": 48,
                    "time": 165.5173440000004,
                    "velocity": 0.3700787401574803,
                    "duration": 0.19157100000001037
                },
                {
                    "name": "F2",
                    "midi": 41,
                    "time": 166.0920570000004,
                    "velocity": 0.33858267716535434,
                    "duration": 0.19157100000001037
                },
                {
                    "name": "C2",
                    "midi": 36,
                    "time": 166.0920570000004,
                    "velocity": 0.2677165354330709,
                    "duration": 0.19157100000001037
                },
                {
                    "name": "F1",
                    "midi": 29,
                    "time": 166.0920570000004,
                    "velocity": 0.2677165354330709,
                    "duration": 0.19157100000001037
                },
                {
                    "name": "C2",
                    "midi": 36,
                    "time": 166.6667700000004,
                    "velocity": 0.2047244094488189,
                    "duration": 0.19157100000001037
                },
                {
                    "name": "G2",
                    "midi": 43,
                    "time": 166.6667700000004,
                    "velocity": 0.2047244094488189,
                    "duration": 0.19157100000001037
                },
                {
                    "name": "C3",
                    "midi": 48,
                    "time": 166.6667700000004,
                    "velocity": 0.2677165354330709,
                    "duration": 0.19157100000001037
                },
                {
                    "name": "F2",
                    "midi": 41,
                    "time": 167.24148300000041,
                    "velocity": 0.2440944881889764,
                    "duration": 0.19157100000001037
                },
                {
                    "name": "C2",
                    "midi": 36,
                    "time": 167.24148300000041,
                    "velocity": 0.1889763779527559,
                    "duration": 0.19157100000001037
                },
                {
                    "name": "F1",
                    "midi": 29,
                    "time": 167.24148300000041,
                    "velocity": 0.1889763779527559,
                    "duration": 0.19157100000001037
                },
                {
                    "name": "C2",
                    "midi": 36,
                    "time": 167.81619600000042,
                    "velocity": 0.31496062992125984,
                    "duration": 2.2988520000000108
                },
                {
                    "name": "C3",
                    "midi": 48,
                    "time": 167.81619600000042,
                    "velocity": 0.2755905511811024,
                    "duration": 0.5747130000000027
                },
                {
                    "name": "B2",
                    "midi": 47,
                    "time": 168.39090900000042,
                    "velocity": 0.25196850393700787,
                    "duration": 0.5747130000000027
                },
                {
                    "name": "A2",
                    "midi": 45,
                    "time": 168.96562200000042,
                    "velocity": 0.25984251968503935,
                    "duration": 0.5747130000000027
                },
                {
                    "name": "B2",
                    "midi": 47,
                    "time": 169.54033500000043,
                    "velocity": 0.2125984251968504,
                    "duration": 0.5747130000000027
                },
                {
                    "name": "C2",
                    "midi": 36,
                    "time": 170.11504800000043,
                    "velocity": 0.31496062992125984,
                    "duration": 2.2988520000000108
                },
                {
                    "name": "C3",
                    "midi": 48,
                    "time": 170.11504800000043,
                    "velocity": 0.2440944881889764,
                    "duration": 0.5747130000000027
                },
                {
                    "name": "B2",
                    "midi": 47,
                    "time": 170.68976100000043,
                    "velocity": 0.2125984251968504,
                    "duration": 0.5747130000000027
                },
                {
                    "name": "A2",
                    "midi": 45,
                    "time": 171.26447400000043,
                    "velocity": 0.25984251968503935,
                    "duration": 0.5747130000000027
                },
                {
                    "name": "B2",
                    "midi": 47,
                    "time": 171.83918700000044,
                    "velocity": 0.2125984251968504,
                    "duration": 0.5747130000000027
                },
                {
                    "name": "C2",
                    "midi": 36,
                    "time": 172.41390000000044,
                    "velocity": 0.31496062992125984,
                    "duration": 0.5747130000000027
                },
                {
                    "name": "C3",
                    "midi": 48,
                    "time": 172.41390000000044,
                    "velocity": 0.2440944881889764,
                    "duration": 0.5747130000000027
                },
                {
                    "name": "A4",
                    "midi": 69,
                    "time": 172.98861300000044,
                    "velocity": 0.2125984251968504,
                    "duration": 0.5747130000000027
                },
                {
                    "name": "C5",
                    "midi": 72,
                    "time": 172.98861300000044,
                    "velocity": 0.2125984251968504,
                    "duration": 0.5747130000000027
                },
                {
                    "name": "F5",
                    "midi": 77,
                    "time": 172.98861300000044,
                    "velocity": 0.28346456692913385,
                    "duration": 0.5747130000000027
                },
                {
                    "name": "G4",
                    "midi": 67,
                    "time": 173.56332600000044,
                    "velocity": 0.2440944881889764,
                    "duration": 0.5747130000000027
                },
                {
                    "name": "C5",
                    "midi": 72,
                    "time": 173.56332600000044,
                    "velocity": 0.2440944881889764,
                    "duration": 0.5747130000000027
                },
                {
                    "name": "E5",
                    "midi": 76,
                    "time": 173.56332600000044,
                    "velocity": 0.31496062992125984,
                    "duration": 0.5747130000000027
                },
                {
                    "name": "F4",
                    "midi": 65,
                    "time": 174.13803900000045,
                    "velocity": 0.2125984251968504,
                    "duration": 0.5747130000000027
                },
                {
                    "name": "C5",
                    "midi": 72,
                    "time": 174.13803900000045,
                    "velocity": 0.2125984251968504,
                    "duration": 0.5747130000000027
                },
                {
                    "name": "D5",
                    "midi": 74,
                    "time": 174.13803900000045,
                    "velocity": 0.28346456692913385,
                    "duration": 0.5747130000000027
                },
                {
                    "name": "E4",
                    "midi": 64,
                    "time": 174.71275200000045,
                    "velocity": 0.2440944881889764,
                    "duration": 0.5747130000000027
                },
                {
                    "name": "C5",
                    "midi": 72,
                    "time": 174.71275200000045,
                    "velocity": 0.31496062992125984,
                    "duration": 0.5747130000000027
                },
                {
                    "name": "C2",
                    "midi": 36,
                    "time": 175.28746500000045,
                    "velocity": 0.1732283464566929,
                    "duration": 2.2988520000000108
                },
                {
                    "name": "A2",
                    "midi": 45,
                    "time": 175.28746500000045,
                    "velocity": 0.23622047244094488,
                    "duration": 0.5747130000000027
                },
                {
                    "name": "G2",
                    "midi": 43,
                    "time": 175.86217800000045,
                    "velocity": 0.2677165354330709,
                    "duration": 0.5747130000000027
                },
                {
                    "name": "F2",
                    "midi": 41,
                    "time": 176.43689100000046,
                    "velocity": 0.1968503937007874,
                    "duration": 0.5747130000000027
                },
                {
                    "name": "G2",
                    "midi": 43,
                    "time": 177.01160400000046,
                    "velocity": 0.2204724409448819,
                    "duration": 0.5747130000000027
                },
                {
                    "name": "C2",
                    "midi": 36,
                    "time": 177.58631700000046,
                    "velocity": 0.1732283464566929,
                    "duration": 1.1494260000000054
                },
                {
                    "name": "G2",
                    "midi": 43,
                    "time": 177.58631700000046,
                    "velocity": 0.1732283464566929,
                    "duration": 1.1494260000000054
                },
                {
                    "name": "C3",
                    "midi": 48,
                    "time": 178.73574300000047,
                    "velocity": 0.14173228346456693,
                    "duration": 1.1494260000000054
                },
                {
                    "name": "G3",
                    "midi": 55,
                    "time": 178.73574300000047,
                    "velocity": 0.14173228346456693,
                    "duration": 1.1494260000000054
                },
                {
                    "name": "C4",
                    "midi": 60,
                    "time": 179.88516900000047,
                    "velocity": 0.11811023622047244,
                    "duration": 2.1072810000000004
                },
                {
                    "name": "G4",
                    "midi": 67,
                    "time": 179.88516900000047,
                    "velocity": 0.11811023622047244,
                    "duration": 2.1072810000000004
                }
            ],
            "controlChanges": {},
            "id": 2,
            "name": "Piano left",
            "instrumentNumber": 0,
            "instrument": "acoustic grand piano",
            "instrumentFamily": "piano",
            "channelNumber": 0,
            "isPercussion": false
        },
        {
            "startTime": 0,
            "duration": 0,
            "length": 0,
            "notes": [],
            "controlChanges": {
                "64": [
                    {
                        "number": 64,
                        "time": 8.3788366125,
                        "value": 1
                    },
                    {
                        "number": 64,
                        "time": 9.2089776125,
                        "value": 0
                    },
                    {
                        "number": 64,
                        "time": 17.574244612500003,
                        "value": 1
                    },
                    {
                        "number": 64,
                        "time": 19.157100000000003,
                        "value": 0
                    },
                    {
                        "number": 64,
                        "time": 21.018531550000002,
                        "value": 1
                    },
                    {
                        "number": 64,
                        "time": 21.460741275000004,
                        "value": 0
                    },
                    {
                        "number": 64,
                        "time": 23.248737275000003,
                        "value": 1
                    },
                    {
                        "number": 64,
                        "time": 23.754804000000004,
                        "value": 0
                    },
                    {
                        "number": 64,
                        "time": 23.754804000000004,
                        "value": 0
                    },
                    {
                        "number": 64,
                        "time": 25.616235550000003,
                        "value": 1
                    },
                    {
                        "number": 64,
                        "time": 26.058445275000004,
                        "value": 0
                    },
                    {
                        "number": 64,
                        "time": 27.846441275000004,
                        "value": 1
                    },
                    {
                        "number": 64,
                        "time": 28.368472250000003,
                        "value": 0
                    },
                    {
                        "number": 64,
                        "time": 29.007042250000005,
                        "value": 1
                    },
                    {
                        "number": 64,
                        "time": 29.517898250000005,
                        "value": 0
                    },
                    {
                        "number": 64,
                        "time": 29.980861500000007,
                        "value": 1
                    },
                    {
                        "number": 64,
                        "time": 30.273805487500006,
                        "value": 0
                    },
                    {
                        "number": 64,
                        "time": 30.332075000000007,
                        "value": 1
                    },
                    {
                        "number": 64,
                        "time": 30.473358612500007,
                        "value": 0
                    },
                    {
                        "number": 64,
                        "time": 30.533224550000007,
                        "value": 1
                    },
                    {
                        "number": 64,
                        "time": 30.857298825000008,
                        "value": 0
                    },
                    {
                        "number": 64,
                        "time": 30.90678800000001,
                        "value": 1
                    },
                    {
                        "number": 64,
                        "time": 31.05206267500001,
                        "value": 0
                    },
                    {
                        "number": 64,
                        "time": 31.13028750000001,
                        "value": 1
                    },
                    {
                        "number": 64,
                        "time": 31.423231487500008,
                        "value": 0
                    },
                    {
                        "number": 64,
                        "time": 31.48150100000001,
                        "value": 1
                    },
                    {
                        "number": 64,
                        "time": 31.62278461250001,
                        "value": 0
                    },
                    {
                        "number": 64,
                        "time": 31.68265055000001,
                        "value": 1
                    },
                    {
                        "number": 64,
                        "time": 32.006724825000006,
                        "value": 0
                    },
                    {
                        "number": 64,
                        "time": 32.056214000000004,
                        "value": 1
                    },
                    {
                        "number": 64,
                        "time": 32.19350655,
                        "value": 0
                    },
                    {
                        "number": 64,
                        "time": 32.2797135,
                        "value": 1
                    },
                    {
                        "number": 64,
                        "time": 32.5726574875,
                        "value": 0
                    },
                    {
                        "number": 64,
                        "time": 32.630927,
                        "value": 1
                    },
                    {
                        "number": 64,
                        "time": 32.7722106125,
                        "value": 0
                    },
                    {
                        "number": 64,
                        "time": 32.83207655,
                        "value": 1
                    },
                    {
                        "number": 64,
                        "time": 33.156150825,
                        "value": 0
                    },
                    {
                        "number": 64,
                        "time": 33.205639999999995,
                        "value": 1
                    },
                    {
                        "number": 64,
                        "time": 33.34293254999999,
                        "value": 0
                    },
                    {
                        "number": 64,
                        "time": 33.42913949999999,
                        "value": 1
                    },
                    {
                        "number": 64,
                        "time": 33.722083487499994,
                        "value": 0
                    },
                    {
                        "number": 64,
                        "time": 33.78035299999999,
                        "value": 1
                    },
                    {
                        "number": 64,
                        "time": 33.92163661249999,
                        "value": 0
                    },
                    {
                        "number": 64,
                        "time": 33.98150254999999,
                        "value": 1
                    },
                    {
                        "number": 64,
                        "time": 34.30557682499999,
                        "value": 0
                    },
                    {
                        "number": 64,
                        "time": 34.35506599999999,
                        "value": 1
                    },
                    {
                        "number": 64,
                        "time": 34.49555139999999,
                        "value": 0
                    },
                    {
                        "number": 64,
                        "time": 34.57856549999999,
                        "value": 1
                    },
                    {
                        "number": 64,
                        "time": 34.87150948749999,
                        "value": 0
                    },
                    {
                        "number": 64,
                        "time": 34.92977899999999,
                        "value": 1
                    },
                    {
                        "number": 64,
                        "time": 35.071062612499986,
                        "value": 0
                    },
                    {
                        "number": 64,
                        "time": 35.130928549999986,
                        "value": 1
                    },
                    {
                        "number": 64,
                        "time": 35.45500282499999,
                        "value": 0
                    },
                    {
                        "number": 64,
                        "time": 35.504491999999985,
                        "value": 1
                    },
                    {
                        "number": 64,
                        "time": 35.64497739999999,
                        "value": 0
                    },
                    {
                        "number": 64,
                        "time": 35.72799149999999,
                        "value": 1
                    },
                    {
                        "number": 64,
                        "time": 36.02093548749999,
                        "value": 0
                    },
                    {
                        "number": 64,
                        "time": 36.07920499999999,
                        "value": 1
                    },
                    {
                        "number": 64,
                        "time": 36.220488612499985,
                        "value": 0
                    },
                    {
                        "number": 64,
                        "time": 36.280354549999984,
                        "value": 1
                    },
                    {
                        "number": 64,
                        "time": 36.604428824999985,
                        "value": 0
                    },
                    {
                        "number": 64,
                        "time": 36.65391799999998,
                        "value": 1
                    },
                    {
                        "number": 64,
                        "time": 36.794403399999986,
                        "value": 0
                    },
                    {
                        "number": 64,
                        "time": 36.877417499999986,
                        "value": 1
                    },
                    {
                        "number": 64,
                        "time": 37.17036148749999,
                        "value": 0
                    },
                    {
                        "number": 64,
                        "time": 37.228630999999986,
                        "value": 1
                    },
                    {
                        "number": 64,
                        "time": 37.36991461249998,
                        "value": 0
                    },
                    {
                        "number": 64,
                        "time": 37.42978054999998,
                        "value": 1
                    },
                    {
                        "number": 64,
                        "time": 37.75385482499998,
                        "value": 0
                    },
                    {
                        "number": 64,
                        "time": 37.80334399999998,
                        "value": 1
                    },
                    {
                        "number": 64,
                        "time": 37.943829399999984,
                        "value": 0
                    },
                    {
                        "number": 64,
                        "time": 38.026843499999984,
                        "value": 1
                    },
                    {
                        "number": 64,
                        "time": 38.31978748749999,
                        "value": 0
                    },
                    {
                        "number": 64,
                        "time": 38.378056999999984,
                        "value": 1
                    },
                    {
                        "number": 64,
                        "time": 38.51934061249998,
                        "value": 0
                    },
                    {
                        "number": 64,
                        "time": 38.57920654999998,
                        "value": 1
                    },
                    {
                        "number": 64,
                        "time": 38.90328082499998,
                        "value": 0
                    },
                    {
                        "number": 64,
                        "time": 38.95276999999998,
                        "value": 1
                    },
                    {
                        "number": 64,
                        "time": 39.09325539999998,
                        "value": 0
                    },
                    {
                        "number": 64,
                        "time": 39.17626949999998,
                        "value": 1
                    },
                    {
                        "number": 64,
                        "time": 39.469213487499985,
                        "value": 0
                    },
                    {
                        "number": 64,
                        "time": 39.52748299999998,
                        "value": 1
                    },
                    {
                        "number": 64,
                        "time": 39.66876661249998,
                        "value": 0
                    },
                    {
                        "number": 64,
                        "time": 39.72863254999998,
                        "value": 1
                    },
                    {
                        "number": 64,
                        "time": 41.39210739999998,
                        "value": 0
                    },
                    {
                        "number": 64,
                        "time": 41.47512149999998,
                        "value": 1
                    },
                    {
                        "number": 64,
                        "time": 41.76806548749998,
                        "value": 0
                    },
                    {
                        "number": 64,
                        "time": 41.82633499999998,
                        "value": 1
                    },
                    {
                        "number": 64,
                        "time": 41.967618612499976,
                        "value": 0
                    },
                    {
                        "number": 64,
                        "time": 42.027484549999976,
                        "value": 1
                    },
                    {
                        "number": 64,
                        "time": 45.593897999999975,
                        "value": 0
                    },
                    {
                        "number": 64,
                        "time": 47.89274999999998,
                        "value": 0
                    },
                    {
                        "number": 64,
                        "time": 96.16864199999998,
                        "value": 0
                    },
                    {
                        "number": 64,
                        "time": 98.03007354999998,
                        "value": 1
                    },
                    {
                        "number": 64,
                        "time": 98.47228327499998,
                        "value": 0
                    },
                    {
                        "number": 64,
                        "time": 100.26027927499999,
                        "value": 1
                    },
                    {
                        "number": 64,
                        "time": 100.76634599999998,
                        "value": 0
                    },
                    {
                        "number": 64,
                        "time": 100.76634599999998,
                        "value": 0
                    },
                    {
                        "number": 64,
                        "time": 102.62777754999999,
                        "value": 1
                    },
                    {
                        "number": 64,
                        "time": 103.06998727499999,
                        "value": 0
                    },
                    {
                        "number": 64,
                        "time": 104.857983275,
                        "value": 1
                    },
                    {
                        "number": 64,
                        "time": 105.38001425,
                        "value": 0
                    },
                    {
                        "number": 64,
                        "time": 106.01858425,
                        "value": 1
                    },
                    {
                        "number": 64,
                        "time": 106.52944025000001,
                        "value": 0
                    },
                    {
                        "number": 64,
                        "time": 106.99240350000001,
                        "value": 1
                    },
                    {
                        "number": 64,
                        "time": 107.2853474875,
                        "value": 0
                    },
                    {
                        "number": 64,
                        "time": 107.34361700000001,
                        "value": 1
                    },
                    {
                        "number": 64,
                        "time": 107.48490061250001,
                        "value": 0
                    },
                    {
                        "number": 64,
                        "time": 107.54476655000002,
                        "value": 1
                    },
                    {
                        "number": 64,
                        "time": 107.86884082500002,
                        "value": 0
                    },
                    {
                        "number": 64,
                        "time": 107.91833000000003,
                        "value": 1
                    },
                    {
                        "number": 64,
                        "time": 108.06360467500002,
                        "value": 0
                    },
                    {
                        "number": 64,
                        "time": 108.14182950000003,
                        "value": 1
                    },
                    {
                        "number": 64,
                        "time": 108.43477348750002,
                        "value": 0
                    },
                    {
                        "number": 64,
                        "time": 108.49304300000003,
                        "value": 1
                    },
                    {
                        "number": 64,
                        "time": 108.63432661250003,
                        "value": 0
                    },
                    {
                        "number": 64,
                        "time": 108.69419255000004,
                        "value": 1
                    },
                    {
                        "number": 64,
                        "time": 109.01826682500004,
                        "value": 0
                    },
                    {
                        "number": 64,
                        "time": 109.06775600000005,
                        "value": 1
                    },
                    {
                        "number": 64,
                        "time": 109.20504855000004,
                        "value": 0
                    },
                    {
                        "number": 64,
                        "time": 109.29125550000005,
                        "value": 1
                    },
                    {
                        "number": 64,
                        "time": 109.58419948750004,
                        "value": 0
                    },
                    {
                        "number": 64,
                        "time": 109.64246900000005,
                        "value": 1
                    },
                    {
                        "number": 64,
                        "time": 109.78375261250005,
                        "value": 0
                    },
                    {
                        "number": 64,
                        "time": 109.84361855000006,
                        "value": 1
                    },
                    {
                        "number": 64,
                        "time": 110.16769282500006,
                        "value": 0
                    },
                    {
                        "number": 64,
                        "time": 110.21718200000007,
                        "value": 1
                    },
                    {
                        "number": 64,
                        "time": 110.35447455000006,
                        "value": 0
                    },
                    {
                        "number": 64,
                        "time": 110.44068150000007,
                        "value": 1
                    },
                    {
                        "number": 64,
                        "time": 110.73362548750006,
                        "value": 0
                    },
                    {
                        "number": 64,
                        "time": 110.79189500000007,
                        "value": 1
                    },
                    {
                        "number": 64,
                        "time": 110.93317861250007,
                        "value": 0
                    },
                    {
                        "number": 64,
                        "time": 110.99304455000008,
                        "value": 1
                    },
                    {
                        "number": 64,
                        "time": 111.31711882500008,
                        "value": 0
                    },
                    {
                        "number": 64,
                        "time": 111.36660800000008,
                        "value": 1
                    },
                    {
                        "number": 64,
                        "time": 111.50709340000009,
                        "value": 0
                    },
                    {
                        "number": 64,
                        "time": 111.59010750000009,
                        "value": 1
                    },
                    {
                        "number": 64,
                        "time": 111.88305148750008,
                        "value": 0
                    },
                    {
                        "number": 64,
                        "time": 111.94132100000009,
                        "value": 1
                    },
                    {
                        "number": 64,
                        "time": 112.08260461250009,
                        "value": 0
                    },
                    {
                        "number": 64,
                        "time": 112.1424705500001,
                        "value": 1
                    },
                    {
                        "number": 64,
                        "time": 112.4665448250001,
                        "value": 0
                    },
                    {
                        "number": 64,
                        "time": 112.5160340000001,
                        "value": 1
                    },
                    {
                        "number": 64,
                        "time": 112.65651940000011,
                        "value": 0
                    },
                    {
                        "number": 64,
                        "time": 112.7395335000001,
                        "value": 1
                    },
                    {
                        "number": 64,
                        "time": 113.0324774875001,
                        "value": 0
                    },
                    {
                        "number": 64,
                        "time": 113.0907470000001,
                        "value": 1
                    },
                    {
                        "number": 64,
                        "time": 113.23203061250011,
                        "value": 0
                    },
                    {
                        "number": 64,
                        "time": 113.29189655000012,
                        "value": 1
                    },
                    {
                        "number": 64,
                        "time": 113.61597082500012,
                        "value": 0
                    },
                    {
                        "number": 64,
                        "time": 113.66546000000012,
                        "value": 1
                    },
                    {
                        "number": 64,
                        "time": 113.80594540000013,
                        "value": 0
                    },
                    {
                        "number": 64,
                        "time": 113.88895950000013,
                        "value": 1
                    },
                    {
                        "number": 64,
                        "time": 114.18190348750012,
                        "value": 0
                    },
                    {
                        "number": 64,
                        "time": 114.24017300000013,
                        "value": 1
                    },
                    {
                        "number": 64,
                        "time": 114.38145661250013,
                        "value": 0
                    },
                    {
                        "number": 64,
                        "time": 114.44132255000014,
                        "value": 1
                    },
                    {
                        "number": 64,
                        "time": 114.76539682500014,
                        "value": 0
                    },
                    {
                        "number": 64,
                        "time": 114.81488600000014,
                        "value": 1
                    },
                    {
                        "number": 64,
                        "time": 114.95537140000015,
                        "value": 0
                    },
                    {
                        "number": 64,
                        "time": 115.03838550000015,
                        "value": 1
                    },
                    {
                        "number": 64,
                        "time": 115.33132948750014,
                        "value": 0
                    },
                    {
                        "number": 64,
                        "time": 115.38959900000015,
                        "value": 1
                    },
                    {
                        "number": 64,
                        "time": 115.53088261250015,
                        "value": 0
                    },
                    {
                        "number": 64,
                        "time": 115.59074855000016,
                        "value": 1
                    },
                    {
                        "number": 64,
                        "time": 115.91482282500016,
                        "value": 0
                    },
                    {
                        "number": 64,
                        "time": 115.96431200000016,
                        "value": 1
                    },
                    {
                        "number": 64,
                        "time": 116.10479740000017,
                        "value": 0
                    },
                    {
                        "number": 64,
                        "time": 116.18781150000017,
                        "value": 1
                    },
                    {
                        "number": 64,
                        "time": 116.48075548750016,
                        "value": 0
                    },
                    {
                        "number": 64,
                        "time": 116.53902500000017,
                        "value": 1
                    },
                    {
                        "number": 64,
                        "time": 116.68030861250017,
                        "value": 0
                    },
                    {
                        "number": 64,
                        "time": 116.74017455000018,
                        "value": 1
                    },
                    {
                        "number": 64,
                        "time": 118.40364940000018,
                        "value": 0
                    },
                    {
                        "number": 64,
                        "time": 118.48666350000018,
                        "value": 1
                    },
                    {
                        "number": 64,
                        "time": 118.77960748750017,
                        "value": 0
                    },
                    {
                        "number": 64,
                        "time": 118.83787700000018,
                        "value": 1
                    },
                    {
                        "number": 64,
                        "time": 118.97916061250018,
                        "value": 0
                    },
                    {
                        "number": 64,
                        "time": 119.03902655000019,
                        "value": 1
                    },
                    {
                        "number": 64,
                        "time": 122.60544000000019,
                        "value": 0
                    },
                    {
                        "number": 64,
                        "time": 124.90429200000018,
                        "value": 0
                    },
                    {
                        "number": 64,
                        "time": 177.6541650625002,
                        "value": 1
                    },
                    {
                        "number": 64,
                        "time": 182.7587340000002,
                        "value": 0
                    }
                ]
            },
            "id": 3,
            "name": "Pedale",
            "instrumentNumber": 0,
            "instrument": "acoustic grand piano",
            "instrumentFamily": "piano",
            "channelNumber": 0,
            "isPercussion": false
        },
        {
            "startTime": 0,
            "duration": 0,
            "length": 0,
            "notes": [],
            "controlChanges": {},
            "id": 4,
            "name": "Grieg: Lyric Pieces - Norwegian March"
        },
        {
            "startTime": 0,
            "duration": 0,
            "length": 0,
            "notes": [],
            "controlChanges": {},
            "id": 5,
            "name": "Copyright © 2010 by Bernd Krueger"
        },
        {
            "startTime": 0,
            "duration": 0,
            "length": 0,
            "notes": [],
            "controlChanges": {},
            "id": 6,
            "name": "http://www.piano-midi.de/"
        },
        {
            "startTime": 0,
            "duration": 0,
            "length": 0,
            "notes": [],
            "controlChanges": {},
            "id": 7,
            "name": "Edition:  2012-10-04"
        },
        {
            "startTime": 0,
            "duration": 0,
            "length": 0,
            "notes": [],
            "controlChanges": {},
            "id": 8,
            "name": "Spur 8"
        },
        {
            "startTime": 0,
            "duration": 0,
            "length": 0,
            "notes": [],
            "controlChanges": {},
            "id": 9,
            "name": "Spur 9"
        },
        {
            "startTime": 0,
            "duration": 0,
            "length": 0,
            "notes": [],
            "controlChanges": {},
            "id": 10,
            "name": "Spur 10"
        },
        {
            "startTime": 0,
            "duration": 0,
            "length": 0,
            "notes": [],
            "controlChanges": {},
            "id": 11,
            "name": "Spur 11"
        },
        {
            "startTime": 0,
            "duration": 0,
            "length": 0,
            "notes": [],
            "controlChanges": {},
            "id": 12,
            "name": "Spur 12"
        },
        {
            "startTime": 0,
            "duration": 0,
            "length": 0,
            "notes": [],
            "controlChanges": {},
            "id": 13,
            "name": "Spur 13"
        },
        {
            "startTime": 0,
            "duration": 0,
            "length": 0,
            "notes": [],
            "controlChanges": {},
            "id": 14,
            "name": "Spur 14"
        },
        {
            "startTime": 0,
            "duration": 0,
            "length": 0,
            "notes": [],
            "controlChanges": {},
            "id": 15,
            "name": "Spur 15"
        },
        {
            "startTime": 0,
            "duration": 0,
            "length": 0,
            "notes": [],
            "controlChanges": {},
            "id": 16,
            "name": "Spur 16"
        }
    ]
}