{
    "header": {
        "PPQ": 480,
        "timeSignature": [
            2,
            4
        ],
        "bpm": 192.99989385005838,
        "name": "Kobold Op 71, No. 3"
    },
    "startTime": 0,
    "duration": 85.33683449999936,
    "tracks": [
        {
            "startTime": 0,
            "duration": 0,
            "length": 0,
            "notes": [],
            "controlChanges": {},
            "id": 0,
            "name": "Kobold Op 71, No. 3"
        },
        {
            "startTime": 1.0880835,
            "duration": 85.3368344999993,
            "length": 902,
            "notes": [
                {
                    "name": "D#4",
                    "midi": 63,
                    "time": 1.0880835,
                    "velocity": 0.28346456692913385,
                    "duration": 0.07772025000000005
                },
                {
                    "name": "F4",
                    "midi": 65,
                    "time": 1.16580375,
                    "velocity": 0.28346456692913385,
                    "duration": 0.07772025000000005
                },
                {
                    "name": "F#4",
                    "midi": 66,
                    "time": 1.243524,
                    "velocity": 0.30708661417322836,
                    "duration": 0.07772025000000005
                },
                {
                    "name": "A#4",
                    "midi": 70,
                    "time": 1.243524,
                    "velocity": 0.30708661417322836,
                    "duration": 0.07772025000000005
                },
                {
                    "name": "F4",
                    "midi": 65,
                    "time": 1.3212442500000001,
                    "velocity": 0.28346456692913385,
                    "duration": 0.07772025000000005
                },
                {
                    "name": "D#4",
                    "midi": 63,
                    "time": 1.3989645000000002,
                    "velocity": 0.28346456692913385,
                    "duration": 0.07772025000000005
                },
                {
                    "name": "F4",
                    "midi": 65,
                    "time": 1.4766847500000002,
                    "velocity": 0.28346456692913385,
                    "duration": 0.07772025000000005
                },
                {
                    "name": "F#4",
                    "midi": 66,
                    "time": 1.5544050000000003,
                    "velocity": 0.29133858267716534,
                    "duration": 0.07772025000000005
                },
                {
                    "name": "A#4",
                    "midi": 70,
                    "time": 1.5544050000000003,
                    "velocity": 0.29133858267716534,
                    "duration": 0.07772025000000005
                },
                {
                    "name": "F4",
                    "midi": 65,
                    "time": 1.6321252500000003,
                    "velocity": 0.28346456692913385,
                    "duration": 0.07772025000000005
                },
                {
                    "name": "D#4",
                    "midi": 63,
                    "time": 1.7098455000000004,
                    "velocity": 0.28346456692913385,
                    "duration": 0.07772025000000005
                },
                {
                    "name": "F4",
                    "midi": 65,
                    "time": 1.7875657500000004,
                    "velocity": 0.28346456692913385,
                    "duration": 0.07772025000000005
                },
                {
                    "name": "A#4",
                    "midi": 70,
                    "time": 1.8652860000000004,
                    "velocity": 0.30708661417322836,
                    "duration": 0.07772025000000005
                },
                {
                    "name": "F#4",
                    "midi": 66,
                    "time": 1.8652860000000004,
                    "velocity": 0.30708661417322836,
                    "duration": 0.07772025000000005
                },
                {
                    "name": "F#4",
                    "midi": 66,
                    "time": 2.0207265000000003,
                    "velocity": 0.28346456692913385,
                    "duration": 0.07772025000000005
                },
                {
                    "name": "D#4",
                    "midi": 63,
                    "time": 2.0207265000000003,
                    "velocity": 0.28346456692913385,
                    "duration": 0.07772025000000005
                },
                {
                    "name": "F#4",
                    "midi": 66,
                    "time": 2.1761670000000004,
                    "velocity": 0.28346456692913385,
                    "duration": 0.07772025000000005
                },
                {
                    "name": "D#4",
                    "midi": 63,
                    "time": 2.1761670000000004,
                    "velocity": 0.28346456692913385,
                    "duration": 0.07772025000000005
                },
                {
                    "name": "F#4",
                    "midi": 66,
                    "time": 2.3316075000000005,
                    "velocity": 0.28346456692913385,
                    "duration": 0.07772025000000005
                },
                {
                    "name": "A#4",
                    "midi": 70,
                    "time": 2.3316075000000005,
                    "velocity": 0.28346456692913385,
                    "duration": 0.07772025000000005
                },
                {
                    "name": "F4",
                    "midi": 65,
                    "time": 2.4870480000000006,
                    "velocity": 0.31496062992125984,
                    "duration": 0.07772025000000005
                },
                {
                    "name": "A4",
                    "midi": 69,
                    "time": 2.4870480000000006,
                    "velocity": 0.31496062992125984,
                    "duration": 0.07772025000000005
                },
                {
                    "name": "C4",
                    "midi": 60,
                    "time": 2.6424885000000007,
                    "velocity": 0.28346456692913385,
                    "duration": 0.07772025000000005
                },
                {
                    "name": "F4",
                    "midi": 65,
                    "time": 2.6424885000000007,
                    "velocity": 0.28346456692913385,
                    "duration": 0.07772025000000005
                },
                {
                    "name": "F4",
                    "midi": 65,
                    "time": 2.7979290000000008,
                    "velocity": 0.28346456692913385,
                    "duration": 0.07772025000000005
                },
                {
                    "name": "C4",
                    "midi": 60,
                    "time": 2.7979290000000008,
                    "velocity": 0.28346456692913385,
                    "duration": 0.07772025000000005
                },
                {
                    "name": "F4",
                    "midi": 65,
                    "time": 2.953369500000001,
                    "velocity": 0.28346456692913385,
                    "duration": 0.07772025000000005
                },
                {
                    "name": "A4",
                    "midi": 69,
                    "time": 2.953369500000001,
                    "velocity": 0.28346456692913385,
                    "duration": 0.07772025000000005
                },
                {
                    "name": "A4",
                    "midi": 69,
                    "time": 3.108810000000001,
                    "velocity": 0.33858267716535434,
                    "duration": 0.4663215000000003
                },
                {
                    "name": "F4",
                    "midi": 65,
                    "time": 3.108810000000001,
                    "velocity": 0.33858267716535434,
                    "duration": 0.4663215000000003
                },
                {
                    "name": "G#4",
                    "midi": 68,
                    "time": 3.5751315000000012,
                    "velocity": 0.28346456692913385,
                    "duration": 0.07772025000000005
                },
                {
                    "name": "A#4",
                    "midi": 70,
                    "time": 3.6528517500000013,
                    "velocity": 0.30708661417322836,
                    "duration": 0.07772025000000005
                },
                {
                    "name": "B4",
                    "midi": 71,
                    "time": 3.7305720000000013,
                    "velocity": 0.33858267716535434,
                    "duration": 0.07772025000000005
                },
                {
                    "name": "D#5",
                    "midi": 75,
                    "time": 3.7305720000000013,
                    "velocity": 0.33858267716535434,
                    "duration": 0.07772025000000005
                },
                {
                    "name": "A#4",
                    "midi": 70,
                    "time": 3.8082922500000014,
                    "velocity": 0.31496062992125984,
                    "duration": 0.07772025000000005
                },
                {
                    "name": "G#4",
                    "midi": 68,
                    "time": 3.8860125000000014,
                    "velocity": 0.31496062992125984,
                    "duration": 0.07772025000000005
                },
                {
                    "name": "A#4",
                    "midi": 70,
                    "time": 3.9637327500000015,
                    "velocity": 0.31496062992125984,
                    "duration": 0.07772025000000005
                },
                {
                    "name": "D#5",
                    "midi": 75,
                    "time": 4.0414530000000015,
                    "velocity": 0.33858267716535434,
                    "duration": 0.0777202499999996
                },
                {
                    "name": "B4",
                    "midi": 71,
                    "time": 4.0414530000000015,
                    "velocity": 0.33858267716535434,
                    "duration": 0.0777202499999996
                },
                {
                    "name": "A#4",
                    "midi": 70,
                    "time": 4.119173250000001,
                    "velocity": 0.31496062992125984,
                    "duration": 0.0777202499999996
                },
                {
                    "name": "G#4",
                    "midi": 68,
                    "time": 4.196893500000001,
                    "velocity": 0.31496062992125984,
                    "duration": 0.0777202499999996
                },
                {
                    "name": "A#4",
                    "midi": 70,
                    "time": 4.27461375,
                    "velocity": 0.31496062992125984,
                    "duration": 0.0777202499999996
                },
                {
                    "name": "B4",
                    "midi": 71,
                    "time": 4.352334,
                    "velocity": 0.33858267716535434,
                    "duration": 0.0777202499999996
                },
                {
                    "name": "D#5",
                    "midi": 75,
                    "time": 4.352334,
                    "velocity": 0.33858267716535434,
                    "duration": 0.0777202499999996
                },
                {
                    "name": "B4",
                    "midi": 71,
                    "time": 4.507774499999999,
                    "velocity": 0.31496062992125984,
                    "duration": 0.0777202499999996
                },
                {
                    "name": "G#4",
                    "midi": 68,
                    "time": 4.507774499999999,
                    "velocity": 0.31496062992125984,
                    "duration": 0.0777202499999996
                },
                {
                    "name": "G#4",
                    "midi": 68,
                    "time": 4.663214999999998,
                    "velocity": 0.31496062992125984,
                    "duration": 0.0777202499999996
                },
                {
                    "name": "B4",
                    "midi": 71,
                    "time": 4.663214999999998,
                    "velocity": 0.31496062992125984,
                    "duration": 0.0777202499999996
                },
                {
                    "name": "D#5",
                    "midi": 75,
                    "time": 4.8186554999999975,
                    "velocity": 0.31496062992125984,
                    "duration": 0.0777202499999996
                },
                {
                    "name": "B4",
                    "midi": 71,
                    "time": 4.8186554999999975,
                    "velocity": 0.31496062992125984,
                    "duration": 0.0777202499999996
                },
                {
                    "name": "A#4",
                    "midi": 70,
                    "time": 4.974095999999997,
                    "velocity": 0.33858267716535434,
                    "duration": 0.0777202499999996
                },
                {
                    "name": "D5",
                    "midi": 74,
                    "time": 4.974095999999997,
                    "velocity": 0.33858267716535434,
                    "duration": 0.0777202499999996
                },
                {
                    "name": "A#4",
                    "midi": 70,
                    "time": 5.129536499999996,
                    "velocity": 0.31496062992125984,
                    "duration": 0.0777202499999996
                },
                {
                    "name": "F4",
                    "midi": 65,
                    "time": 5.129536499999996,
                    "velocity": 0.31496062992125984,
                    "duration": 0.0777202499999996
                },
                {
                    "name": "A#4",
                    "midi": 70,
                    "time": 5.284976999999995,
                    "velocity": 0.31496062992125984,
                    "duration": 0.0777202499999996
                },
                {
                    "name": "F4",
                    "midi": 65,
                    "time": 5.284976999999995,
                    "velocity": 0.31496062992125984,
                    "duration": 0.0777202499999996
                },
                {
                    "name": "D5",
                    "midi": 74,
                    "time": 5.440417499999994,
                    "velocity": 0.31496062992125984,
                    "duration": 0.0777202499999996
                },
                {
                    "name": "A#4",
                    "midi": 70,
                    "time": 5.440417499999994,
                    "velocity": 0.31496062992125984,
                    "duration": 0.0777202499999996
                },
                {
                    "name": "A#4",
                    "midi": 70,
                    "time": 5.595857999999994,
                    "velocity": 0.36220472440944884,
                    "duration": 0.2331607499999997
                },
                {
                    "name": "D5",
                    "midi": 74,
                    "time": 5.595857999999994,
                    "velocity": 0.36220472440944884,
                    "duration": 0.2331607499999997
                },
                {
                    "name": "F#5",
                    "midi": 78,
                    "time": 6.062179499999993,
                    "velocity": 0.5826771653543307,
                    "duration": 0.0777202499999996
                },
                {
                    "name": "G#5",
                    "midi": 80,
                    "time": 6.1398997499999926,
                    "velocity": 0.5826771653543307,
                    "duration": 0.0777202499999996
                },
                {
                    "name": "A#5",
                    "midi": 82,
                    "time": 6.217619999999992,
                    "velocity": 0.6771653543307087,
                    "duration": 0.0777202499999996
                },
                {
                    "name": "C#6",
                    "midi": 85,
                    "time": 6.217619999999992,
                    "velocity": 0.6771653543307087,
                    "duration": 0.0777202499999996
                },
                {
                    "name": "G#5",
                    "midi": 80,
                    "time": 6.295340249999992,
                    "velocity": 0.5748031496062992,
                    "duration": 0.0777202499999996
                },
                {
                    "name": "F#5",
                    "midi": 78,
                    "time": 6.373060499999991,
                    "velocity": 0.5748031496062992,
                    "duration": 0.0777202499999996
                },
                {
                    "name": "G#5",
                    "midi": 80,
                    "time": 6.450780749999991,
                    "velocity": 0.5748031496062992,
                    "duration": 0.0777202499999996
                },
                {
                    "name": "C#6",
                    "midi": 85,
                    "time": 6.528500999999991,
                    "velocity": 0.6220472440944882,
                    "duration": 0.14248712499999971
                },
                {
                    "name": "A#5",
                    "midi": 82,
                    "time": 6.528500999999991,
                    "velocity": 0.6220472440944882,
                    "duration": 0.14248712499999971
                },
                {
                    "name": "C#5",
                    "midi": 73,
                    "time": 6.683941499999991,
                    "velocity": 0.5748031496062992,
                    "duration": 0.0777202499999996
                },
                {
                    "name": "D#5",
                    "midi": 75,
                    "time": 6.76166174999999,
                    "velocity": 0.5748031496062992,
                    "duration": 0.0777202499999996
                },
                {
                    "name": "F5",
                    "midi": 77,
                    "time": 6.83938199999999,
                    "velocity": 0.6692913385826772,
                    "duration": 0.0777202499999996
                },
                {
                    "name": "G#5",
                    "midi": 80,
                    "time": 6.83938199999999,
                    "velocity": 0.6692913385826772,
                    "duration": 0.0777202499999996
                },
                {
                    "name": "D#5",
                    "midi": 75,
                    "time": 6.9171022499999895,
                    "velocity": 0.5748031496062992,
                    "duration": 0.0777202499999996
                },
                {
                    "name": "C#5",
                    "midi": 73,
                    "time": 6.994822499999989,
                    "velocity": 0.5590551181102362,
                    "duration": 0.0777202499999996
                },
                {
                    "name": "D#5",
                    "midi": 75,
                    "time": 7.072542749999989,
                    "velocity": 0.5590551181102362,
                    "duration": 0.0777202499999996
                },
                {
                    "name": "F5",
                    "midi": 77,
                    "time": 7.150262999999988,
                    "velocity": 0.6299212598425197,
                    "duration": 0.14248712499999971
                },
                {
                    "name": "G#5",
                    "midi": 80,
                    "time": 7.150262999999988,
                    "velocity": 0.6299212598425197,
                    "duration": 0.14248712499999971
                },
                {
                    "name": "B4",
                    "midi": 71,
                    "time": 7.305703499999988,
                    "velocity": 0.5748031496062992,
                    "duration": 0.0777202499999996
                },
                {
                    "name": "C#5",
                    "midi": 73,
                    "time": 7.383423749999988,
                    "velocity": 0.5748031496062992,
                    "duration": 0.0777202499999996
                },
                {
                    "name": "F#5",
                    "midi": 78,
                    "time": 7.461143999999988,
                    "velocity": 0.6771653543307087,
                    "duration": 0.0777202499999996
                },
                {
                    "name": "D#5",
                    "midi": 75,
                    "time": 7.461143999999988,
                    "velocity": 0.6771653543307087,
                    "duration": 0.0777202499999996
                },
                {
                    "name": "C#5",
                    "midi": 73,
                    "time": 7.538864249999987,
                    "velocity": 0.5590551181102362,
                    "duration": 0.0777202499999996
                },
                {
                    "name": "B4",
                    "midi": 71,
                    "time": 7.616584499999987,
                    "velocity": 0.5590551181102362,
                    "duration": 0.0777202499999996
                },
                {
                    "name": "C#5",
                    "midi": 73,
                    "time": 7.694304749999986,
                    "velocity": 0.5590551181102362,
                    "duration": 0.0777202499999996
                },
                {
                    "name": "F#5",
                    "midi": 78,
                    "time": 7.772024999999986,
                    "velocity": 0.6299212598425197,
                    "duration": 0.14248712499999971
                },
                {
                    "name": "D#5",
                    "midi": 75,
                    "time": 7.772024999999986,
                    "velocity": 0.6299212598425197,
                    "duration": 0.14248712499999971
                },
                {
                    "name": "F#4",
                    "midi": 66,
                    "time": 7.927465499999986,
                    "velocity": 0.5826771653543307,
                    "duration": 0.07772025000000049
                },
                {
                    "name": "G#4",
                    "midi": 68,
                    "time": 8.005185749999987,
                    "velocity": 0.5826771653543307,
                    "duration": 0.07772025000000049
                },
                {
                    "name": "C#5",
                    "midi": 73,
                    "time": 8.082905999999987,
                    "velocity": 0.7007874015748031,
                    "duration": 0.07772025000000049
                },
                {
                    "name": "A#4",
                    "midi": 70,
                    "time": 8.082905999999987,
                    "velocity": 0.7007874015748031,
                    "duration": 0.07772025000000049
                },
                {
                    "name": "G#4",
                    "midi": 68,
                    "time": 8.160626249999988,
                    "velocity": 0.5590551181102362,
                    "duration": 0.07772025000000049
                },
                {
                    "name": "F#4",
                    "midi": 66,
                    "time": 8.238346499999988,
                    "velocity": 0.5590551181102362,
                    "duration": 0.07772025000000049
                },
                {
                    "name": "G#4",
                    "midi": 68,
                    "time": 8.316066749999989,
                    "velocity": 0.5590551181102362,
                    "duration": 0.07772025000000049
                },
                {
                    "name": "C#5",
                    "midi": 73,
                    "time": 8.393786999999989,
                    "velocity": 0.6220472440944882,
                    "duration": 0.1424871250000006
                },
                {
                    "name": "A#4",
                    "midi": 70,
                    "time": 8.393786999999989,
                    "velocity": 0.6220472440944882,
                    "duration": 0.1424871250000006
                },
                {
                    "name": "F3",
                    "midi": 53,
                    "time": 8.54922749999999,
                    "velocity": 0.5433070866141733,
                    "duration": 0.07772025000000049
                },
                {
                    "name": "F#3",
                    "midi": 54,
                    "time": 8.62694774999999,
                    "velocity": 0.5433070866141733,
                    "duration": 0.07772025000000049
                },
                {
                    "name": "G#3",
                    "midi": 56,
                    "time": 8.704667999999991,
                    "velocity": 0.6220472440944882,
                    "duration": 0.07772025000000049
                },
                {
                    "name": "F#3",
                    "midi": 54,
                    "time": 8.782388249999991,
                    "velocity": 0.5275590551181102,
                    "duration": 0.07772025000000049
                },
                {
                    "name": "F3",
                    "midi": 53,
                    "time": 8.860108499999992,
                    "velocity": 0.5275590551181102,
                    "duration": 0.07772025000000049
                },
                {
                    "name": "F#3",
                    "midi": 54,
                    "time": 9.015548999999993,
                    "velocity": 0.5748031496062992,
                    "duration": 0.07772025000000049
                },
                {
                    "name": "F3",
                    "midi": 53,
                    "time": 9.093269249999993,
                    "velocity": 0.49606299212598426,
                    "duration": 0.07772025000000049
                },
                {
                    "name": "D#3",
                    "midi": 51,
                    "time": 9.170989499999994,
                    "velocity": 0.49606299212598426,
                    "duration": 0.07772025000000049
                },
                {
                    "name": "F3",
                    "midi": 53,
                    "time": 9.326429999999995,
                    "velocity": 0.5433070866141733,
                    "duration": 0.07772025000000049
                },
                {
                    "name": "D#3",
                    "midi": 51,
                    "time": 9.404150249999995,
                    "velocity": 0.48031496062992124,
                    "duration": 0.07772025000000049
                },
                {
                    "name": "C#3",
                    "midi": 49,
                    "time": 9.481870499999996,
                    "velocity": 0.48031496062992124,
                    "duration": 0.07772025000000049
                },
                {
                    "name": "D#3",
                    "midi": 51,
                    "time": 9.637310999999997,
                    "velocity": 0.5196850393700787,
                    "duration": 0.07772025000000049
                },
                {
                    "name": "C#3",
                    "midi": 49,
                    "time": 9.715031249999997,
                    "velocity": 0.4645669291338583,
                    "duration": 0.07772025000000049
                },
                {
                    "name": "C3",
                    "midi": 48,
                    "time": 9.792751499999998,
                    "velocity": 0.4645669291338583,
                    "duration": 0.07772025000000049
                },
                {
                    "name": "D#3",
                    "midi": 51,
                    "time": 10.569954,
                    "velocity": 0.3543307086614173,
                    "duration": 0.07772025000000049
                },
                {
                    "name": "C#3",
                    "midi": 49,
                    "time": 10.64767425,
                    "velocity": 0.31496062992125984,
                    "duration": 0.07772025000000049
                },
                {
                    "name": "B2",
                    "midi": 47,
                    "time": 10.7253945,
                    "velocity": 0.31496062992125984,
                    "duration": 0.07772025000000049
                },
                {
                    "name": "A#2",
                    "midi": 46,
                    "time": 11.191716000000001,
                    "velocity": 0.5748031496062992,
                    "duration": 0.07772025000000049
                },
                {
                    "name": "F3",
                    "midi": 53,
                    "time": 11.269436250000002,
                    "velocity": 0.5275590551181102,
                    "duration": 0.07772025000000049
                },
                {
                    "name": "A#3",
                    "midi": 58,
                    "time": 11.347156500000002,
                    "velocity": 0.5275590551181102,
                    "duration": 0.05829018750000081
                },
                {
                    "name": "A#3",
                    "midi": 58,
                    "time": 11.424876750000003,
                    "velocity": 0.5275590551181102,
                    "duration": 0.07772025000000049
                },
                {
                    "name": "F4",
                    "midi": 65,
                    "time": 11.502597000000003,
                    "velocity": 0.5669291338582677,
                    "duration": 0.07772025000000049
                },
                {
                    "name": "A#4",
                    "midi": 70,
                    "time": 11.580317250000004,
                    "velocity": 0.5826771653543307,
                    "duration": 0.05829018750000081
                },
                {
                    "name": "A#4",
                    "midi": 70,
                    "time": 11.658037500000004,
                    "velocity": 0.6141732283464567,
                    "duration": 0.07772025000000049
                },
                {
                    "name": "F5",
                    "midi": 77,
                    "time": 11.735757750000005,
                    "velocity": 0.6377952755905512,
                    "duration": 0.05829018750000081
                },
                {
                    "name": "F5",
                    "midi": 77,
                    "time": 11.813478000000005,
                    "velocity": 0.6692913385826772,
                    "duration": 0.1554404999999992
                },
                {
                    "name": "A#4",
                    "midi": 70,
                    "time": 11.813478000000005,
                    "velocity": 0.6692913385826772,
                    "duration": 0.1554404999999992
                },
                {
                    "name": "A#5",
                    "midi": 82,
                    "time": 11.813478000000005,
                    "velocity": 0.6692913385826772,
                    "duration": 0.1554404999999992
                },
                {
                    "name": "B2",
                    "midi": 47,
                    "time": 12.435240000000004,
                    "velocity": 0.28346456692913385,
                    "duration": 0.7772024999999996
                },
                {
                    "name": "D3",
                    "midi": 50,
                    "time": 12.435240000000004,
                    "velocity": 0.28346456692913385,
                    "duration": 0.7772024999999996
                },
                {
                    "name": "F3",
                    "midi": 53,
                    "time": 12.435240000000004,
                    "velocity": 0.28346456692913385,
                    "duration": 0.7772024999999996
                },
                {
                    "name": "D3",
                    "midi": 50,
                    "time": 13.523323500000004,
                    "velocity": 0.33070866141732286,
                    "duration": 0.07772025000000049
                },
                {
                    "name": "F3",
                    "midi": 53,
                    "time": 13.523323500000004,
                    "velocity": 0.33070866141732286,
                    "duration": 0.07772025000000049
                },
                {
                    "name": "B3",
                    "midi": 59,
                    "time": 13.523323500000004,
                    "velocity": 0.4015748031496063,
                    "duration": 0.07772025000000049
                },
                {
                    "name": "D3",
                    "midi": 50,
                    "time": 13.678764000000005,
                    "velocity": 0.36220472440944884,
                    "duration": 0.07772025000000049
                },
                {
                    "name": "F3",
                    "midi": 53,
                    "time": 13.678764000000005,
                    "velocity": 0.36220472440944884,
                    "duration": 0.07772025000000049
                },
                {
                    "name": "B3",
                    "midi": 59,
                    "time": 13.678764000000005,
                    "velocity": 0.4330708661417323,
                    "duration": 0.07772025000000049
                },
                {
                    "name": "D3",
                    "midi": 50,
                    "time": 13.834204500000006,
                    "velocity": 0.33070866141732286,
                    "duration": 0.07772025000000049
                },
                {
                    "name": "F3",
                    "midi": 53,
                    "time": 13.834204500000006,
                    "velocity": 0.33070866141732286,
                    "duration": 0.07772025000000049
                },
                {
                    "name": "A#3",
                    "midi": 58,
                    "time": 13.834204500000006,
                    "velocity": 0.4015748031496063,
                    "duration": 0.07772025000000049
                },
                {
                    "name": "D3",
                    "midi": 50,
                    "time": 13.989645000000007,
                    "velocity": 0.33070866141732286,
                    "duration": 0.07772025000000049
                },
                {
                    "name": "F3",
                    "midi": 53,
                    "time": 13.989645000000007,
                    "velocity": 0.33070866141732286,
                    "duration": 0.07772025000000049
                },
                {
                    "name": "A#3",
                    "midi": 58,
                    "time": 13.989645000000007,
                    "velocity": 0.4015748031496063,
                    "duration": 0.07772025000000049
                },
                {
                    "name": "D3",
                    "midi": 50,
                    "time": 14.145085500000008,
                    "velocity": 0.36220472440944884,
                    "duration": 0.07772025000000049
                },
                {
                    "name": "F3",
                    "midi": 53,
                    "time": 14.145085500000008,
                    "velocity": 0.36220472440944884,
                    "duration": 0.07772025000000049
                },
                {
                    "name": "A3",
                    "midi": 57,
                    "time": 14.145085500000008,
                    "velocity": 0.4330708661417323,
                    "duration": 0.07772025000000049
                },
                {
                    "name": "D3",
                    "midi": 50,
                    "time": 14.300526000000009,
                    "velocity": 0.3858267716535433,
                    "duration": 0.07772025000000049
                },
                {
                    "name": "F3",
                    "midi": 53,
                    "time": 14.300526000000009,
                    "velocity": 0.3858267716535433,
                    "duration": 0.07772025000000049
                },
                {
                    "name": "A3",
                    "midi": 57,
                    "time": 14.300526000000009,
                    "velocity": 0.4645669291338583,
                    "duration": 0.07772025000000049
                },
                {
                    "name": "D3",
                    "midi": 50,
                    "time": 14.45596650000001,
                    "velocity": 0.3779527559055118,
                    "duration": 0.07772025000000049
                },
                {
                    "name": "F3",
                    "midi": 53,
                    "time": 14.45596650000001,
                    "velocity": 0.3779527559055118,
                    "duration": 0.07772025000000049
                },
                {
                    "name": "G#3",
                    "midi": 56,
                    "time": 14.45596650000001,
                    "velocity": 0.44881889763779526,
                    "duration": 0.07772025000000049
                },
                {
                    "name": "D3",
                    "midi": 50,
                    "time": 14.61140700000001,
                    "velocity": 0.36220472440944884,
                    "duration": 0.07772025000000049
                },
                {
                    "name": "F3",
                    "midi": 53,
                    "time": 14.61140700000001,
                    "velocity": 0.36220472440944884,
                    "duration": 0.07772025000000049
                },
                {
                    "name": "G#3",
                    "midi": 56,
                    "time": 14.61140700000001,
                    "velocity": 0.4330708661417323,
                    "duration": 0.07772025000000049
                },
                {
                    "name": "D3",
                    "midi": 50,
                    "time": 14.92228800000001,
                    "velocity": 0.3228346456692913,
                    "duration": 0.7772024999999996
                },
                {
                    "name": "F3",
                    "midi": 53,
                    "time": 14.92228800000001,
                    "velocity": 0.3228346456692913,
                    "duration": 0.7772024999999996
                },
                {
                    "name": "G#3",
                    "midi": 56,
                    "time": 14.92228800000001,
                    "velocity": 0.3228346456692913,
                    "duration": 0.7772024999999996
                },
                {
                    "name": "F3",
                    "midi": 53,
                    "time": 16.01037150000001,
                    "velocity": 0.2755905511811024,
                    "duration": 0.07772024999999871
                },
                {
                    "name": "G#3",
                    "midi": 56,
                    "time": 16.01037150000001,
                    "velocity": 0.2755905511811024,
                    "duration": 0.07772024999999871
                },
                {
                    "name": "D4",
                    "midi": 62,
                    "time": 16.01037150000001,
                    "velocity": 0.4645669291338583,
                    "duration": 0.07772024999999871
                },
                {
                    "name": "F3",
                    "midi": 53,
                    "time": 16.165812000000006,
                    "velocity": 0.28346456692913385,
                    "duration": 0.07772024999999871
                },
                {
                    "name": "G#3",
                    "midi": 56,
                    "time": 16.165812000000006,
                    "velocity": 0.28346456692913385,
                    "duration": 0.07772024999999871
                },
                {
                    "name": "D4",
                    "midi": 62,
                    "time": 16.165812000000006,
                    "velocity": 0.47244094488188976,
                    "duration": 0.07772024999999871
                },
                {
                    "name": "F3",
                    "midi": 53,
                    "time": 16.321252500000003,
                    "velocity": 0.2755905511811024,
                    "duration": 0.07772024999999871
                },
                {
                    "name": "G#3",
                    "midi": 56,
                    "time": 16.321252500000003,
                    "velocity": 0.2755905511811024,
                    "duration": 0.07772024999999871
                },
                {
                    "name": "C#4",
                    "midi": 61,
                    "time": 16.321252500000003,
                    "velocity": 0.4645669291338583,
                    "duration": 0.07772024999999871
                },
                {
                    "name": "F3",
                    "midi": 53,
                    "time": 16.476693,
                    "velocity": 0.2755905511811024,
                    "duration": 0.07772024999999871
                },
                {
                    "name": "G#3",
                    "midi": 56,
                    "time": 16.476693,
                    "velocity": 0.2755905511811024,
                    "duration": 0.07772024999999871
                },
                {
                    "name": "C#4",
                    "midi": 61,
                    "time": 16.476693,
                    "velocity": 0.4645669291338583,
                    "duration": 0.07772024999999871
                },
                {
                    "name": "F3",
                    "midi": 53,
                    "time": 16.6321335,
                    "velocity": 0.29133858267716534,
                    "duration": 0.07772024999999871
                },
                {
                    "name": "G#3",
                    "midi": 56,
                    "time": 16.6321335,
                    "velocity": 0.29133858267716534,
                    "duration": 0.07772024999999871
                },
                {
                    "name": "C4",
                    "midi": 60,
                    "time": 16.6321335,
                    "velocity": 0.49606299212598426,
                    "duration": 0.07772024999999871
                },
                {
                    "name": "F3",
                    "midi": 53,
                    "time": 16.787573999999996,
                    "velocity": 0.3228346456692913,
                    "duration": 0.07772024999999871
                },
                {
                    "name": "G#3",
                    "midi": 56,
                    "time": 16.787573999999996,
                    "velocity": 0.3228346456692913,
                    "duration": 0.07772024999999871
                },
                {
                    "name": "C4",
                    "midi": 60,
                    "time": 16.787573999999996,
                    "velocity": 0.5511811023622047,
                    "duration": 0.07772024999999871
                },
                {
                    "name": "F3",
                    "midi": 53,
                    "time": 16.943014499999993,
                    "velocity": 0.30708661417322836,
                    "duration": 0.07772024999999871
                },
                {
                    "name": "G#3",
                    "midi": 56,
                    "time": 16.943014499999993,
                    "velocity": 0.30708661417322836,
                    "duration": 0.07772024999999871
                },
                {
                    "name": "B3",
                    "midi": 59,
                    "time": 16.943014499999993,
                    "velocity": 0.5275590551181102,
                    "duration": 0.07772024999999871
                },
                {
                    "name": "F3",
                    "midi": 53,
                    "time": 17.09845499999999,
                    "velocity": 0.2992125984251969,
                    "duration": 0.07772024999999871
                },
                {
                    "name": "G#3",
                    "midi": 56,
                    "time": 17.09845499999999,
                    "velocity": 0.2992125984251969,
                    "duration": 0.07772024999999871
                },
                {
                    "name": "B3",
                    "midi": 59,
                    "time": 17.09845499999999,
                    "velocity": 0.5039370078740157,
                    "duration": 0.07772024999999871
                },
                {
                    "name": "G#3",
                    "midi": 56,
                    "time": 17.253895499999988,
                    "velocity": 0.2755905511811024,
                    "duration": 0.07772024999999871
                },
                {
                    "name": "B3",
                    "midi": 59,
                    "time": 17.253895499999988,
                    "velocity": 0.2755905511811024,
                    "duration": 0.07772024999999871
                },
                {
                    "name": "F4",
                    "midi": 65,
                    "time": 17.253895499999988,
                    "velocity": 0.47244094488188976,
                    "duration": 0.07772024999999871
                },
                {
                    "name": "G#3",
                    "midi": 56,
                    "time": 17.409335999999985,
                    "velocity": 0.29133858267716534,
                    "duration": 0.07772024999999871
                },
                {
                    "name": "B3",
                    "midi": 59,
                    "time": 17.409335999999985,
                    "velocity": 0.29133858267716534,
                    "duration": 0.07772024999999871
                },
                {
                    "name": "F4",
                    "midi": 65,
                    "time": 17.409335999999985,
                    "velocity": 0.5039370078740157,
                    "duration": 0.07772024999999871
                },
                {
                    "name": "G#3",
                    "midi": 56,
                    "time": 17.564776499999983,
                    "velocity": 0.2755905511811024,
                    "duration": 0.07772024999999871
                },
                {
                    "name": "B3",
                    "midi": 59,
                    "time": 17.564776499999983,
                    "velocity": 0.2755905511811024,
                    "duration": 0.07772024999999871
                },
                {
                    "name": "E4",
                    "midi": 64,
                    "time": 17.564776499999983,
                    "velocity": 0.47244094488188976,
                    "duration": 0.07772024999999871
                },
                {
                    "name": "G#3",
                    "midi": 56,
                    "time": 17.72021699999998,
                    "velocity": 0.2755905511811024,
                    "duration": 0.07772024999999871
                },
                {
                    "name": "B3",
                    "midi": 59,
                    "time": 17.72021699999998,
                    "velocity": 0.2755905511811024,
                    "duration": 0.07772024999999871
                },
                {
                    "name": "E4",
                    "midi": 64,
                    "time": 17.72021699999998,
                    "velocity": 0.47244094488188976,
                    "duration": 0.07772024999999871
                },
                {
                    "name": "G#3",
                    "midi": 56,
                    "time": 17.875657499999978,
                    "velocity": 0.30708661417322836,
                    "duration": 0.07772024999999871
                },
                {
                    "name": "C4",
                    "midi": 60,
                    "time": 17.875657499999978,
                    "velocity": 0.30708661417322836,
                    "duration": 0.07772024999999871
                },
                {
                    "name": "D#4",
                    "midi": 63,
                    "time": 17.875657499999978,
                    "velocity": 0.5196850393700787,
                    "duration": 0.07772024999999871
                },
                {
                    "name": "G#3",
                    "midi": 56,
                    "time": 18.031097999999975,
                    "velocity": 0.3464566929133858,
                    "duration": 0.07772024999999871
                },
                {
                    "name": "B3",
                    "midi": 59,
                    "time": 18.031097999999975,
                    "velocity": 0.3464566929133858,
                    "duration": 0.07772024999999871
                },
                {
                    "name": "D#4",
                    "midi": 63,
                    "time": 18.031097999999975,
                    "velocity": 0.5748031496062992,
                    "duration": 0.07772024999999871
                },
                {
                    "name": "G#3",
                    "midi": 56,
                    "time": 18.186538499999973,
                    "velocity": 0.31496062992125984,
                    "duration": 0.07772024999999871
                },
                {
                    "name": "B3",
                    "midi": 59,
                    "time": 18.186538499999973,
                    "velocity": 0.31496062992125984,
                    "duration": 0.07772024999999871
                },
                {
                    "name": "D4",
                    "midi": 62,
                    "time": 18.186538499999973,
                    "velocity": 0.5511811023622047,
                    "duration": 0.07772024999999871
                },
                {
                    "name": "G#3",
                    "midi": 56,
                    "time": 18.34197899999997,
                    "velocity": 0.30708661417322836,
                    "duration": 0.07772024999999871
                },
                {
                    "name": "B3",
                    "midi": 59,
                    "time": 18.34197899999997,
                    "velocity": 0.30708661417322836,
                    "duration": 0.07772024999999871
                },
                {
                    "name": "D4",
                    "midi": 62,
                    "time": 18.34197899999997,
                    "velocity": 0.5275590551181102,
                    "duration": 0.07772024999999871
                },
                {
                    "name": "B3",
                    "midi": 59,
                    "time": 18.497419499999967,
                    "velocity": 0.3700787401574803,
                    "duration": 0.07772024999999871
                },
                {
                    "name": "D4",
                    "midi": 62,
                    "time": 18.497419499999967,
                    "velocity": 0.3700787401574803,
                    "duration": 0.07772024999999871
                },
                {
                    "name": "G#4",
                    "midi": 68,
                    "time": 18.497419499999967,
                    "velocity": 0.5196850393700787,
                    "duration": 0.07772024999999871
                },
                {
                    "name": "B3",
                    "midi": 59,
                    "time": 18.652859999999965,
                    "velocity": 0.3858267716535433,
                    "duration": 0.07772024999999871
                },
                {
                    "name": "D4",
                    "midi": 62,
                    "time": 18.652859999999965,
                    "velocity": 0.3858267716535433,
                    "duration": 0.07772024999999871
                },
                {
                    "name": "G#4",
                    "midi": 68,
                    "time": 18.652859999999965,
                    "velocity": 0.5511811023622047,
                    "duration": 0.07772024999999871
                },
                {
                    "name": "B3",
                    "midi": 59,
                    "time": 18.808300499999962,
                    "velocity": 0.3700787401574803,
                    "duration": 0.07772024999999871
                },
                {
                    "name": "D4",
                    "midi": 62,
                    "time": 18.808300499999962,
                    "velocity": 0.3700787401574803,
                    "duration": 0.07772024999999871
                },
                {
                    "name": "G4",
                    "midi": 67,
                    "time": 18.808300499999962,
                    "velocity": 0.5196850393700787,
                    "duration": 0.07772024999999871
                },
                {
                    "name": "B3",
                    "midi": 59,
                    "time": 18.96374099999996,
                    "velocity": 0.3700787401574803,
                    "duration": 0.07772024999999871
                },
                {
                    "name": "D4",
                    "midi": 62,
                    "time": 18.96374099999996,
                    "velocity": 0.3700787401574803,
                    "duration": 0.07772024999999871
                },
                {
                    "name": "G4",
                    "midi": 67,
                    "time": 18.96374099999996,
                    "velocity": 0.5196850393700787,
                    "duration": 0.07772024999999871
                },
                {
                    "name": "B3",
                    "midi": 59,
                    "time": 19.119181499999957,
                    "velocity": 0.4015748031496063,
                    "duration": 0.07772024999999871
                },
                {
                    "name": "D4",
                    "midi": 62,
                    "time": 19.119181499999957,
                    "velocity": 0.4015748031496063,
                    "duration": 0.07772024999999871
                },
                {
                    "name": "F#4",
                    "midi": 66,
                    "time": 19.119181499999957,
                    "velocity": 0.5669291338582677,
                    "duration": 0.07772024999999871
                },
                {
                    "name": "B3",
                    "midi": 59,
                    "time": 19.274621999999955,
                    "velocity": 0.4251968503937008,
                    "duration": 0.07772024999999871
                },
                {
                    "name": "D4",
                    "midi": 62,
                    "time": 19.274621999999955,
                    "velocity": 0.4251968503937008,
                    "duration": 0.07772024999999871
                },
                {
                    "name": "F#4",
                    "midi": 66,
                    "time": 19.274621999999955,
                    "velocity": 0.5984251968503937,
                    "duration": 0.07772024999999871
                },
                {
                    "name": "B3",
                    "midi": 59,
                    "time": 19.430062499999952,
                    "velocity": 0.4015748031496063,
                    "duration": 0.07772024999999871
                },
                {
                    "name": "D4",
                    "midi": 62,
                    "time": 19.430062499999952,
                    "velocity": 0.4015748031496063,
                    "duration": 0.07772024999999871
                },
                {
                    "name": "F4",
                    "midi": 65,
                    "time": 19.430062499999952,
                    "velocity": 0.5669291338582677,
                    "duration": 0.07772024999999871
                },
                {
                    "name": "B3",
                    "midi": 59,
                    "time": 19.58550299999995,
                    "velocity": 0.3858267716535433,
                    "duration": 0.07772024999999871
                },
                {
                    "name": "D4",
                    "midi": 62,
                    "time": 19.58550299999995,
                    "velocity": 0.3858267716535433,
                    "duration": 0.07772024999999871
                },
                {
                    "name": "F4",
                    "midi": 65,
                    "time": 19.58550299999995,
                    "velocity": 0.5433070866141733,
                    "duration": 0.07772024999999871
                },
                {
                    "name": "D4",
                    "midi": 62,
                    "time": 19.740943499999947,
                    "velocity": 0.41732283464566927,
                    "duration": 0.07772024999999871
                },
                {
                    "name": "F4",
                    "midi": 65,
                    "time": 19.740943499999947,
                    "velocity": 0.41732283464566927,
                    "duration": 0.07772024999999871
                },
                {
                    "name": "B4",
                    "midi": 71,
                    "time": 19.740943499999947,
                    "velocity": 0.5905511811023622,
                    "duration": 0.07772024999999871
                },
                {
                    "name": "D4",
                    "midi": 62,
                    "time": 19.896383999999944,
                    "velocity": 0.4566929133858268,
                    "duration": 0.07772024999999871
                },
                {
                    "name": "F4",
                    "midi": 65,
                    "time": 19.896383999999944,
                    "velocity": 0.4566929133858268,
                    "duration": 0.07772024999999871
                },
                {
                    "name": "B4",
                    "midi": 71,
                    "time": 19.896383999999944,
                    "velocity": 0.6377952755905512,
                    "duration": 0.07772024999999871
                },
                {
                    "name": "D4",
                    "midi": 62,
                    "time": 20.05182449999994,
                    "velocity": 0.4409448818897638,
                    "duration": 0.07772024999999871
                },
                {
                    "name": "F4",
                    "midi": 65,
                    "time": 20.05182449999994,
                    "velocity": 0.4409448818897638,
                    "duration": 0.07772024999999871
                },
                {
                    "name": "A#4",
                    "midi": 70,
                    "time": 20.05182449999994,
                    "velocity": 0.6220472440944882,
                    "duration": 0.07772024999999871
                },
                {
                    "name": "D4",
                    "midi": 62,
                    "time": 20.20726499999994,
                    "velocity": 0.4251968503937008,
                    "duration": 0.07772024999999871
                },
                {
                    "name": "F4",
                    "midi": 65,
                    "time": 20.20726499999994,
                    "velocity": 0.4251968503937008,
                    "duration": 0.07772024999999871
                },
                {
                    "name": "A#4",
                    "midi": 70,
                    "time": 20.20726499999994,
                    "velocity": 0.5984251968503937,
                    "duration": 0.07772024999999871
                },
                {
                    "name": "F4",
                    "midi": 65,
                    "time": 20.362705499999937,
                    "velocity": 0.4330708661417323,
                    "duration": 0.07772024999999871
                },
                {
                    "name": "G#4",
                    "midi": 68,
                    "time": 20.362705499999937,
                    "velocity": 0.4330708661417323,
                    "duration": 0.07772024999999871
                },
                {
                    "name": "D5",
                    "midi": 74,
                    "time": 20.362705499999937,
                    "velocity": 0.6141732283464567,
                    "duration": 0.07772024999999871
                },
                {
                    "name": "F4",
                    "midi": 65,
                    "time": 20.518145999999934,
                    "velocity": 0.47244094488188976,
                    "duration": 0.07772024999999871
                },
                {
                    "name": "G#4",
                    "midi": 68,
                    "time": 20.518145999999934,
                    "velocity": 0.47244094488188976,
                    "duration": 0.07772024999999871
                },
                {
                    "name": "D5",
                    "midi": 74,
                    "time": 20.518145999999934,
                    "velocity": 0.6771653543307087,
                    "duration": 0.07772024999999871
                },
                {
                    "name": "F4",
                    "midi": 65,
                    "time": 20.67358649999993,
                    "velocity": 0.4566929133858268,
                    "duration": 0.07772024999999871
                },
                {
                    "name": "G#4",
                    "midi": 68,
                    "time": 20.67358649999993,
                    "velocity": 0.4566929133858268,
                    "duration": 0.07772024999999871
                },
                {
                    "name": "C#5",
                    "midi": 73,
                    "time": 20.67358649999993,
                    "velocity": 0.6377952755905512,
                    "duration": 0.07772024999999871
                },
                {
                    "name": "F4",
                    "midi": 65,
                    "time": 20.82902699999993,
                    "velocity": 0.4409448818897638,
                    "duration": 0.07772024999999871
                },
                {
                    "name": "G#4",
                    "midi": 68,
                    "time": 20.82902699999993,
                    "velocity": 0.4409448818897638,
                    "duration": 0.07772024999999871
                },
                {
                    "name": "C#5",
                    "midi": 73,
                    "time": 20.82902699999993,
                    "velocity": 0.6220472440944882,
                    "duration": 0.07772024999999871
                },
                {
                    "name": "G#4",
                    "midi": 68,
                    "time": 20.984467499999926,
                    "velocity": 0.44881889763779526,
                    "duration": 0.07772024999999871
                },
                {
                    "name": "B4",
                    "midi": 71,
                    "time": 20.984467499999926,
                    "velocity": 0.44881889763779526,
                    "duration": 0.07772024999999871
                },
                {
                    "name": "F5",
                    "midi": 77,
                    "time": 20.984467499999926,
                    "velocity": 0.6299212598425197,
                    "duration": 0.07772024999999871
                },
                {
                    "name": "G#4",
                    "midi": 68,
                    "time": 21.139907999999924,
                    "velocity": 0.4881889763779528,
                    "duration": 0.07772024999999871
                },
                {
                    "name": "B4",
                    "midi": 71,
                    "time": 21.139907999999924,
                    "velocity": 0.6771653543307087,
                    "duration": 0.07772024999999871
                },
                {
                    "name": "F5",
                    "midi": 77,
                    "time": 21.139907999999924,
                    "velocity": 0.6771653543307087,
                    "duration": 0.07772024999999871
                },
                {
                    "name": "G#4",
                    "midi": 68,
                    "time": 21.29534849999992,
                    "velocity": 0.47244094488188976,
                    "duration": 0.07772024999999871
                },
                {
                    "name": "B4",
                    "midi": 71,
                    "time": 21.29534849999992,
                    "velocity": 0.47244094488188976,
                    "duration": 0.07772024999999871
                },
                {
                    "name": "E5",
                    "midi": 76,
                    "time": 21.29534849999992,
                    "velocity": 0.6771653543307087,
                    "duration": 0.07772024999999871
                },
                {
                    "name": "G#4",
                    "midi": 68,
                    "time": 21.45078899999992,
                    "velocity": 0.4566929133858268,
                    "duration": 0.07772024999999871
                },
                {
                    "name": "B4",
                    "midi": 71,
                    "time": 21.45078899999992,
                    "velocity": 0.4566929133858268,
                    "duration": 0.07772024999999871
                },
                {
                    "name": "E5",
                    "midi": 76,
                    "time": 21.45078899999992,
                    "velocity": 0.6377952755905512,
                    "duration": 0.07772024999999871
                },
                {
                    "name": "B4",
                    "midi": 71,
                    "time": 21.606229499999916,
                    "velocity": 0.5590551181102362,
                    "duration": 0.07772024999999871
                },
                {
                    "name": "D5",
                    "midi": 74,
                    "time": 21.606229499999916,
                    "velocity": 0.5590551181102362,
                    "duration": 0.07772024999999871
                },
                {
                    "name": "G#5",
                    "midi": 80,
                    "time": 21.606229499999916,
                    "velocity": 0.6692913385826772,
                    "duration": 0.07772024999999871
                },
                {
                    "name": "B4",
                    "midi": 71,
                    "time": 21.761669999999913,
                    "velocity": 0.6220472440944882,
                    "duration": 0.07772024999999871
                },
                {
                    "name": "D5",
                    "midi": 74,
                    "time": 21.761669999999913,
                    "velocity": 0.6220472440944882,
                    "duration": 0.07772024999999871
                },
                {
                    "name": "G#5",
                    "midi": 80,
                    "time": 21.761669999999913,
                    "velocity": 0.7401574803149606,
                    "duration": 0.07772024999999871
                },
                {
                    "name": "B4",
                    "midi": 71,
                    "time": 21.91711049999991,
                    "velocity": 0.5905511811023622,
                    "duration": 0.07772024999999871
                },
                {
                    "name": "D5",
                    "midi": 74,
                    "time": 21.91711049999991,
                    "velocity": 0.5905511811023622,
                    "duration": 0.07772024999999871
                },
                {
                    "name": "G5",
                    "midi": 79,
                    "time": 21.91711049999991,
                    "velocity": 0.7007874015748031,
                    "duration": 0.07772024999999871
                },
                {
                    "name": "B4",
                    "midi": 71,
                    "time": 22.07255099999991,
                    "velocity": 0.5669291338582677,
                    "duration": 0.07772024999999871
                },
                {
                    "name": "D5",
                    "midi": 74,
                    "time": 22.07255099999991,
                    "velocity": 0.5669291338582677,
                    "duration": 0.07772024999999871
                },
                {
                    "name": "G5",
                    "midi": 79,
                    "time": 22.07255099999991,
                    "velocity": 0.6771653543307087,
                    "duration": 0.07772024999999871
                },
                {
                    "name": "C5",
                    "midi": 72,
                    "time": 22.227991499999906,
                    "velocity": 0.29133858267716534,
                    "duration": 0.07772024999999871
                },
                {
                    "name": "D5",
                    "midi": 74,
                    "time": 22.305711749999904,
                    "velocity": 0.28346456692913385,
                    "duration": 0.07772024999999871
                },
                {
                    "name": "G5",
                    "midi": 79,
                    "time": 22.383431999999903,
                    "velocity": 0.30708661417322836,
                    "duration": 0.07772024999999871
                },
                {
                    "name": "E5",
                    "midi": 76,
                    "time": 22.383431999999903,
                    "velocity": 0.30708661417322836,
                    "duration": 0.07772024999999871
                },
                {
                    "name": "D5",
                    "midi": 74,
                    "time": 22.461152249999902,
                    "velocity": 0.28346456692913385,
                    "duration": 0.07772024999999871
                },
                {
                    "name": "C5",
                    "midi": 72,
                    "time": 22.5388724999999,
                    "velocity": 0.28346456692913385,
                    "duration": 0.07772024999999871
                },
                {
                    "name": "D5",
                    "midi": 74,
                    "time": 22.6165927499999,
                    "velocity": 0.28346456692913385,
                    "duration": 0.07772024999999871
                },
                {
                    "name": "E5",
                    "midi": 76,
                    "time": 22.694312999999898,
                    "velocity": 0.29133858267716534,
                    "duration": 0.07772024999999871
                },
                {
                    "name": "G5",
                    "midi": 79,
                    "time": 22.694312999999898,
                    "velocity": 0.29133858267716534,
                    "duration": 0.07772024999999871
                },
                {
                    "name": "D5",
                    "midi": 74,
                    "time": 22.772033249999897,
                    "velocity": 0.28346456692913385,
                    "duration": 0.07772024999999871
                },
                {
                    "name": "C5",
                    "midi": 72,
                    "time": 22.849753499999895,
                    "velocity": 0.28346456692913385,
                    "duration": 0.07772024999999871
                },
                {
                    "name": "D5",
                    "midi": 74,
                    "time": 22.927473749999894,
                    "velocity": 0.28346456692913385,
                    "duration": 0.07772024999999871
                },
                {
                    "name": "G5",
                    "midi": 79,
                    "time": 23.005193999999893,
                    "velocity": 0.30708661417322836,
                    "duration": 0.07772024999999871
                },
                {
                    "name": "E5",
                    "midi": 76,
                    "time": 23.005193999999893,
                    "velocity": 0.30708661417322836,
                    "duration": 0.07772024999999871
                },
                {
                    "name": "E5",
                    "midi": 76,
                    "time": 23.16063449999989,
                    "velocity": 0.28346456692913385,
                    "duration": 0.07772024999999871
                },
                {
                    "name": "C5",
                    "midi": 72,
                    "time": 23.16063449999989,
                    "velocity": 0.28346456692913385,
                    "duration": 0.07772024999999871
                },
                {
                    "name": "E5",
                    "midi": 76,
                    "time": 23.316074999999888,
                    "velocity": 0.28346456692913385,
                    "duration": 0.07772024999999871
                },
                {
                    "name": "C5",
                    "midi": 72,
                    "time": 23.316074999999888,
                    "velocity": 0.28346456692913385,
                    "duration": 0.07772024999999871
                },
                {
                    "name": "G5",
                    "midi": 79,
                    "time": 23.471515499999885,
                    "velocity": 0.28346456692913385,
                    "duration": 0.07772024999999871
                },
                {
                    "name": "E5",
                    "midi": 76,
                    "time": 23.471515499999885,
                    "velocity": 0.28346456692913385,
                    "duration": 0.07772024999999871
                },
                {
                    "name": "F5",
                    "midi": 77,
                    "time": 23.626955999999883,
                    "velocity": 0.31496062992125984,
                    "duration": 0.07772024999999871
                },
                {
                    "name": "A5",
                    "midi": 81,
                    "time": 23.626955999999883,
                    "velocity": 0.31496062992125984,
                    "duration": 0.07772024999999871
                },
                {
                    "name": "B4",
                    "midi": 71,
                    "time": 23.78239649999988,
                    "velocity": 0.28346456692913385,
                    "duration": 0.07772024999999871
                },
                {
                    "name": "D5",
                    "midi": 74,
                    "time": 23.78239649999988,
                    "velocity": 0.28346456692913385,
                    "duration": 0.07772024999999871
                },
                {
                    "name": "B4",
                    "midi": 71,
                    "time": 23.937836999999877,
                    "velocity": 0.28346456692913385,
                    "duration": 0.07772024999999871
                },
                {
                    "name": "D5",
                    "midi": 74,
                    "time": 23.937836999999877,
                    "velocity": 0.28346456692913385,
                    "duration": 0.07772024999999871
                },
                {
                    "name": "F5",
                    "midi": 77,
                    "time": 24.093277499999875,
                    "velocity": 0.31496062992125984,
                    "duration": 0.07772024999999871
                },
                {
                    "name": "A5",
                    "midi": 81,
                    "time": 24.093277499999875,
                    "velocity": 0.31496062992125984,
                    "duration": 0.07772024999999871
                },
                {
                    "name": "F5",
                    "midi": 77,
                    "time": 24.248717999999872,
                    "velocity": 0.3464566929133858,
                    "duration": 0.4663214999999994
                },
                {
                    "name": "A5",
                    "midi": 81,
                    "time": 24.248717999999872,
                    "velocity": 0.3464566929133858,
                    "duration": 0.4663214999999994
                },
                {
                    "name": "C5",
                    "midi": 72,
                    "time": 24.71503949999987,
                    "velocity": 0.2992125984251969,
                    "duration": 0.07772024999999871
                },
                {
                    "name": "D5",
                    "midi": 74,
                    "time": 24.79275974999987,
                    "velocity": 0.2992125984251969,
                    "duration": 0.07772024999999871
                },
                {
                    "name": "G5",
                    "midi": 79,
                    "time": 24.87047999999987,
                    "velocity": 0.3228346456692913,
                    "duration": 0.07772024999999871
                },
                {
                    "name": "E5",
                    "midi": 76,
                    "time": 24.87047999999987,
                    "velocity": 0.3228346456692913,
                    "duration": 0.07772024999999871
                },
                {
                    "name": "E5",
                    "midi": 76,
                    "time": 25.025920499999867,
                    "velocity": 0.2992125984251969,
                    "duration": 0.07772024999999871
                },
                {
                    "name": "C5",
                    "midi": 72,
                    "time": 25.025920499999867,
                    "velocity": 0.2992125984251969,
                    "duration": 0.07772024999999871
                },
                {
                    "name": "E5",
                    "midi": 76,
                    "time": 25.181360999999864,
                    "velocity": 0.30708661417322836,
                    "duration": 0.07772024999999871
                },
                {
                    "name": "C5",
                    "midi": 72,
                    "time": 25.181360999999864,
                    "velocity": 0.30708661417322836,
                    "duration": 0.07772024999999871
                },
                {
                    "name": "G5",
                    "midi": 79,
                    "time": 25.33680149999986,
                    "velocity": 0.2992125984251969,
                    "duration": 0.07772024999999871
                },
                {
                    "name": "E5",
                    "midi": 76,
                    "time": 25.33680149999986,
                    "velocity": 0.2992125984251969,
                    "duration": 0.07772024999999871
                },
                {
                    "name": "F5",
                    "midi": 77,
                    "time": 25.49224199999986,
                    "velocity": 0.33070866141732286,
                    "duration": 0.07772024999999871
                },
                {
                    "name": "A5",
                    "midi": 81,
                    "time": 25.49224199999986,
                    "velocity": 0.33070866141732286,
                    "duration": 0.07772024999999871
                },
                {
                    "name": "B4",
                    "midi": 71,
                    "time": 25.647682499999856,
                    "velocity": 0.2992125984251969,
                    "duration": 0.07772024999999871
                },
                {
                    "name": "D5",
                    "midi": 74,
                    "time": 25.647682499999856,
                    "velocity": 0.2992125984251969,
                    "duration": 0.07772024999999871
                },
                {
                    "name": "B4",
                    "midi": 71,
                    "time": 25.803122999999854,
                    "velocity": 0.30708661417322836,
                    "duration": 0.07772024999999871
                },
                {
                    "name": "D5",
                    "midi": 74,
                    "time": 25.803122999999854,
                    "velocity": 0.30708661417322836,
                    "duration": 0.07772024999999871
                },
                {
                    "name": "F5",
                    "midi": 77,
                    "time": 25.95856349999985,
                    "velocity": 0.4015748031496063,
                    "duration": 0.07772024999999871
                },
                {
                    "name": "A5",
                    "midi": 81,
                    "time": 25.95856349999985,
                    "velocity": 0.4015748031496063,
                    "duration": 0.07772024999999871
                },
                {
                    "name": "E5",
                    "midi": 76,
                    "time": 26.11400399999985,
                    "velocity": 0.4330708661417323,
                    "duration": 0.07772024999999871
                },
                {
                    "name": "G5",
                    "midi": 79,
                    "time": 26.11400399999985,
                    "velocity": 0.4330708661417323,
                    "duration": 0.07772024999999871
                },
                {
                    "name": "C5",
                    "midi": 72,
                    "time": 26.269444499999846,
                    "velocity": 0.3937007874015748,
                    "duration": 0.07772024999999871
                },
                {
                    "name": "E5",
                    "midi": 76,
                    "time": 26.269444499999846,
                    "velocity": 0.3937007874015748,
                    "duration": 0.07772024999999871
                },
                {
                    "name": "F5",
                    "midi": 77,
                    "time": 26.424884999999843,
                    "velocity": 0.4566929133858268,
                    "duration": 0.07772024999999871
                },
                {
                    "name": "A5",
                    "midi": 81,
                    "time": 26.424884999999843,
                    "velocity": 0.4566929133858268,
                    "duration": 0.07772024999999871
                },
                {
                    "name": "B4",
                    "midi": 71,
                    "time": 26.58032549999984,
                    "velocity": 0.4094488188976378,
                    "duration": 0.07772024999999871
                },
                {
                    "name": "D5",
                    "midi": 74,
                    "time": 26.58032549999984,
                    "velocity": 0.4094488188976378,
                    "duration": 0.07772024999999871
                },
                {
                    "name": "E5",
                    "midi": 76,
                    "time": 26.73576599999984,
                    "velocity": 0.47244094488188976,
                    "duration": 0.07772024999999871
                },
                {
                    "name": "G5",
                    "midi": 79,
                    "time": 26.73576599999984,
                    "velocity": 0.47244094488188976,
                    "duration": 0.07772024999999871
                },
                {
                    "name": "C5",
                    "midi": 72,
                    "time": 26.891206499999836,
                    "velocity": 0.4251968503937008,
                    "duration": 0.07772024999999871
                },
                {
                    "name": "E5",
                    "midi": 76,
                    "time": 26.891206499999836,
                    "velocity": 0.4251968503937008,
                    "duration": 0.07772024999999871
                },
                {
                    "name": "F5",
                    "midi": 77,
                    "time": 27.046646999999833,
                    "velocity": 0.49606299212598426,
                    "duration": 0.07772024999999871
                },
                {
                    "name": "A5",
                    "midi": 81,
                    "time": 27.046646999999833,
                    "velocity": 0.49606299212598426,
                    "duration": 0.07772024999999871
                },
                {
                    "name": "B4",
                    "midi": 71,
                    "time": 27.20208749999983,
                    "velocity": 0.4409448818897638,
                    "duration": 0.07772024999999871
                },
                {
                    "name": "D5",
                    "midi": 74,
                    "time": 27.20208749999983,
                    "velocity": 0.4409448818897638,
                    "duration": 0.07772024999999871
                },
                {
                    "name": "E5",
                    "midi": 76,
                    "time": 27.357527999999828,
                    "velocity": 0.5039370078740157,
                    "duration": 0.07772024999999871
                },
                {
                    "name": "G5",
                    "midi": 79,
                    "time": 27.357527999999828,
                    "velocity": 0.5039370078740157,
                    "duration": 0.07772024999999871
                },
                {
                    "name": "C5",
                    "midi": 72,
                    "time": 27.512968499999825,
                    "velocity": 0.4645669291338583,
                    "duration": 0.07772024999999871
                },
                {
                    "name": "E5",
                    "midi": 76,
                    "time": 27.512968499999825,
                    "velocity": 0.4645669291338583,
                    "duration": 0.07772024999999871
                },
                {
                    "name": "C#6",
                    "midi": 85,
                    "time": 27.668408999999823,
                    "velocity": 0.6141732283464567,
                    "duration": 0.07772024999999871
                },
                {
                    "name": "A5",
                    "midi": 81,
                    "time": 27.668408999999823,
                    "velocity": 0.6141732283464567,
                    "duration": 0.07772024999999871
                },
                {
                    "name": "D#5",
                    "midi": 75,
                    "time": 27.82384949999982,
                    "velocity": 0.5669291338582677,
                    "duration": 0.07772024999999871
                },
                {
                    "name": "F#5",
                    "midi": 78,
                    "time": 27.82384949999982,
                    "velocity": 0.5669291338582677,
                    "duration": 0.07772024999999871
                },
                {
                    "name": "B5",
                    "midi": 83,
                    "time": 27.979289999999818,
                    "velocity": 0.6220472440944882,
                    "duration": 0.07772024999999871
                },
                {
                    "name": "G#5",
                    "midi": 80,
                    "time": 27.979289999999818,
                    "velocity": 0.6220472440944882,
                    "duration": 0.07772024999999871
                },
                {
                    "name": "E5",
                    "midi": 76,
                    "time": 28.134730499999815,
                    "velocity": 0.5748031496062992,
                    "duration": 0.07772024999999871
                },
                {
                    "name": "G#5",
                    "midi": 80,
                    "time": 28.134730499999815,
                    "velocity": 0.5748031496062992,
                    "duration": 0.07772024999999871
                },
                {
                    "name": "C#6",
                    "midi": 85,
                    "time": 28.290170999999813,
                    "velocity": 0.6220472440944882,
                    "duration": 0.07772024999999871
                },
                {
                    "name": "A5",
                    "midi": 81,
                    "time": 28.290170999999813,
                    "velocity": 0.6220472440944882,
                    "duration": 0.07772024999999871
                },
                {
                    "name": "D#5",
                    "midi": 75,
                    "time": 28.44561149999981,
                    "velocity": 0.5669291338582677,
                    "duration": 0.07772024999999871
                },
                {
                    "name": "F#5",
                    "midi": 78,
                    "time": 28.44561149999981,
                    "velocity": 0.5669291338582677,
                    "duration": 0.07772024999999871
                },
                {
                    "name": "B5",
                    "midi": 83,
                    "time": 28.601051999999807,
                    "velocity": 0.6220472440944882,
                    "duration": 0.07772024999999871
                },
                {
                    "name": "G#5",
                    "midi": 80,
                    "time": 28.601051999999807,
                    "velocity": 0.6220472440944882,
                    "duration": 0.07772024999999871
                },
                {
                    "name": "E5",
                    "midi": 76,
                    "time": 28.756492499999805,
                    "velocity": 0.5984251968503937,
                    "duration": 0.07772024999999871
                },
                {
                    "name": "G#5",
                    "midi": 80,
                    "time": 28.756492499999805,
                    "velocity": 0.5984251968503937,
                    "duration": 0.07772024999999871
                },
                {
                    "name": "G#5",
                    "midi": 80,
                    "time": 28.911932999999802,
                    "velocity": 0.6456692913385826,
                    "duration": 0.07772024999999871
                },
                {
                    "name": "B5",
                    "midi": 83,
                    "time": 28.911932999999802,
                    "velocity": 0.6456692913385826,
                    "duration": 0.07772024999999871
                },
                {
                    "name": "E5",
                    "midi": 76,
                    "time": 29.0673734999998,
                    "velocity": 0.6220472440944882,
                    "duration": 0.07772024999999871
                },
                {
                    "name": "G#5",
                    "midi": 80,
                    "time": 29.0673734999998,
                    "velocity": 0.6220472440944882,
                    "duration": 0.07772024999999871
                },
                {
                    "name": "B5",
                    "midi": 83,
                    "time": 29.222813999999797,
                    "velocity": 0.6850393700787402,
                    "duration": 0.07772024999999871
                },
                {
                    "name": "G#5",
                    "midi": 80,
                    "time": 29.222813999999797,
                    "velocity": 0.6850393700787402,
                    "duration": 0.07772024999999871
                },
                {
                    "name": "E5",
                    "midi": 76,
                    "time": 29.378254499999795,
                    "velocity": 0.6535433070866141,
                    "duration": 0.07772024999999871
                },
                {
                    "name": "G#5",
                    "midi": 80,
                    "time": 29.378254499999795,
                    "velocity": 0.6535433070866141,
                    "duration": 0.07772024999999871
                },
                {
                    "name": "G#5",
                    "midi": 80,
                    "time": 29.533694999999792,
                    "velocity": 0.7086614173228346,
                    "duration": 0.07772024999999871
                },
                {
                    "name": "B5",
                    "midi": 83,
                    "time": 29.533694999999792,
                    "velocity": 0.7086614173228346,
                    "duration": 0.07772024999999871
                },
                {
                    "name": "E5",
                    "midi": 76,
                    "time": 29.68913549999979,
                    "velocity": 0.6850393700787402,
                    "duration": 0.07772024999999871
                },
                {
                    "name": "G#5",
                    "midi": 80,
                    "time": 29.68913549999979,
                    "velocity": 0.6850393700787402,
                    "duration": 0.07772024999999871
                },
                {
                    "name": "A#3",
                    "midi": 58,
                    "time": 29.844575999999787,
                    "velocity": 0.6220472440944882,
                    "duration": 0.6217620000000004
                },
                {
                    "name": "B5",
                    "midi": 83,
                    "time": 30.466337999999787,
                    "velocity": 0.6850393700787402,
                    "duration": 0.07772024999999871
                },
                {
                    "name": "G#5",
                    "midi": 80,
                    "time": 30.466337999999787,
                    "velocity": 0.6850393700787402,
                    "duration": 0.07772024999999871
                },
                {
                    "name": "E5",
                    "midi": 76,
                    "time": 30.621778499999785,
                    "velocity": 0.6535433070866141,
                    "duration": 0.07772024999999871
                },
                {
                    "name": "G#5",
                    "midi": 80,
                    "time": 30.621778499999785,
                    "velocity": 0.6535433070866141,
                    "duration": 0.07772024999999871
                },
                {
                    "name": "G#5",
                    "midi": 80,
                    "time": 30.777218999999782,
                    "velocity": 0.7086614173228346,
                    "duration": 0.07772024999999871
                },
                {
                    "name": "B5",
                    "midi": 83,
                    "time": 30.777218999999782,
                    "velocity": 0.7086614173228346,
                    "duration": 0.07772024999999871
                },
                {
                    "name": "E5",
                    "midi": 76,
                    "time": 30.93265949999978,
                    "velocity": 0.6850393700787402,
                    "duration": 0.07772024999999871
                },
                {
                    "name": "G#5",
                    "midi": 80,
                    "time": 30.93265949999978,
                    "velocity": 0.6850393700787402,
                    "duration": 0.07772024999999871
                },
                {
                    "name": "A#3",
                    "midi": 58,
                    "time": 31.088099999999777,
                    "velocity": 0.5984251968503937,
                    "duration": 0.6217620000000004
                },
                {
                    "name": "B5",
                    "midi": 83,
                    "time": 31.709861999999777,
                    "velocity": 0.6692913385826772,
                    "duration": 0.07772024999999871
                },
                {
                    "name": "G#5",
                    "midi": 80,
                    "time": 31.709861999999777,
                    "velocity": 0.6692913385826772,
                    "duration": 0.07772024999999871
                },
                {
                    "name": "E5",
                    "midi": 76,
                    "time": 31.865302499999775,
                    "velocity": 0.6220472440944882,
                    "duration": 0.07772024999999871
                },
                {
                    "name": "G#5",
                    "midi": 80,
                    "time": 31.865302499999775,
                    "velocity": 0.6220472440944882,
                    "duration": 0.07772024999999871
                },
                {
                    "name": "G#5",
                    "midi": 80,
                    "time": 32.020742999999776,
                    "velocity": 0.6692913385826772,
                    "duration": 0.07772024999999871
                },
                {
                    "name": "B5",
                    "midi": 83,
                    "time": 32.020742999999776,
                    "velocity": 0.6692913385826772,
                    "duration": 0.07772024999999871
                },
                {
                    "name": "E5",
                    "midi": 76,
                    "time": 32.17618349999977,
                    "velocity": 0.6377952755905512,
                    "duration": 0.07772024999999871
                },
                {
                    "name": "G#5",
                    "midi": 80,
                    "time": 32.17618349999977,
                    "velocity": 0.6377952755905512,
                    "duration": 0.07772024999999871
                },
                {
                    "name": "A#3",
                    "midi": 58,
                    "time": 32.33162399999977,
                    "velocity": 0.5669291338582677,
                    "duration": 5.284976999999998
                },
                {
                    "name": "D#4",
                    "midi": 63,
                    "time": 37.772041499999766,
                    "velocity": 0.28346456692913385,
                    "duration": 0.07772024999999871
                },
                {
                    "name": "F4",
                    "midi": 65,
                    "time": 37.849761749999765,
                    "velocity": 0.28346456692913385,
                    "duration": 0.07772024999999871
                },
                {
                    "name": "A#4",
                    "midi": 70,
                    "time": 37.92748199999976,
                    "velocity": 0.30708661417322836,
                    "duration": 0.07772024999999871
                },
                {
                    "name": "F#4",
                    "midi": 66,
                    "time": 37.92748199999976,
                    "velocity": 0.30708661417322836,
                    "duration": 0.07772024999999871
                },
                {
                    "name": "F4",
                    "midi": 65,
                    "time": 38.00520224999976,
                    "velocity": 0.28346456692913385,
                    "duration": 0.07772024999999871
                },
                {
                    "name": "D#4",
                    "midi": 63,
                    "time": 38.08292249999976,
                    "velocity": 0.28346456692913385,
                    "duration": 0.07772024999999871
                },
                {
                    "name": "F4",
                    "midi": 65,
                    "time": 38.16064274999976,
                    "velocity": 0.28346456692913385,
                    "duration": 0.07772024999999871
                },
                {
                    "name": "F#4",
                    "midi": 66,
                    "time": 38.23836299999976,
                    "velocity": 0.29133858267716534,
                    "duration": 0.07772024999999871
                },
                {
                    "name": "A#4",
                    "midi": 70,
                    "time": 38.23836299999976,
                    "velocity": 0.29133858267716534,
                    "duration": 0.07772024999999871
                },
                {
                    "name": "F4",
                    "midi": 65,
                    "time": 38.31608324999976,
                    "velocity": 0.28346456692913385,
                    "duration": 0.07772024999999871
                },
                {
                    "name": "D#4",
                    "midi": 63,
                    "time": 38.393803499999756,
                    "velocity": 0.28346456692913385,
                    "duration": 0.07772024999999871
                },
                {
                    "name": "F4",
                    "midi": 65,
                    "time": 38.471523749999754,
                    "velocity": 0.28346456692913385,
                    "duration": 0.07772024999999871
                },
                {
                    "name": "A#4",
                    "midi": 70,
                    "time": 38.54924399999975,
                    "velocity": 0.30708661417322836,
                    "duration": 0.07772024999999871
                },
                {
                    "name": "F#4",
                    "midi": 66,
                    "time": 38.54924399999975,
                    "velocity": 0.30708661417322836,
                    "duration": 0.07772024999999871
                },
                {
                    "name": "F#4",
                    "midi": 66,
                    "time": 38.70468449999975,
                    "velocity": 0.28346456692913385,
                    "duration": 0.07772024999999871
                },
                {
                    "name": "D#4",
                    "midi": 63,
                    "time": 38.70468449999975,
                    "velocity": 0.28346456692913385,
                    "duration": 0.07772024999999871
                },
                {
                    "name": "F#4",
                    "midi": 66,
                    "time": 38.86012499999975,
                    "velocity": 0.28346456692913385,
                    "duration": 0.07772024999999871
                },
                {
                    "name": "D#4",
                    "midi": 63,
                    "time": 38.86012499999975,
                    "velocity": 0.28346456692913385,
                    "duration": 0.07772024999999871
                },
                {
                    "name": "A#4",
                    "midi": 70,
                    "time": 39.015565499999745,
                    "velocity": 0.28346456692913385,
                    "duration": 0.07772024999999871
                },
                {
                    "name": "F#4",
                    "midi": 66,
                    "time": 39.015565499999745,
                    "velocity": 0.28346456692913385,
                    "duration": 0.07772024999999871
                },
                {
                    "name": "F4",
                    "midi": 65,
                    "time": 39.17100599999974,
                    "velocity": 0.31496062992125984,
                    "duration": 0.07772024999999871
                },
                {
                    "name": "A4",
                    "midi": 69,
                    "time": 39.17100599999974,
                    "velocity": 0.31496062992125984,
                    "duration": 0.07772024999999871
                },
                {
                    "name": "C4",
                    "midi": 60,
                    "time": 39.32644649999974,
                    "velocity": 0.28346456692913385,
                    "duration": 0.07772024999999871
                },
                {
                    "name": "F4",
                    "midi": 65,
                    "time": 39.32644649999974,
                    "velocity": 0.28346456692913385,
                    "duration": 0.07772024999999871
                },
                {
                    "name": "C4",
                    "midi": 60,
                    "time": 39.48188699999974,
                    "velocity": 0.28346456692913385,
                    "duration": 0.07772024999999871
                },
                {
                    "name": "F4",
                    "midi": 65,
                    "time": 39.48188699999974,
                    "velocity": 0.28346456692913385,
                    "duration": 0.07772024999999871
                },
                {
                    "name": "F4",
                    "midi": 65,
                    "time": 39.637327499999735,
                    "velocity": 0.28346456692913385,
                    "duration": 0.07772024999999871
                },
                {
                    "name": "A4",
                    "midi": 69,
                    "time": 39.637327499999735,
                    "velocity": 0.28346456692913385,
                    "duration": 0.07772024999999871
                },
                {
                    "name": "F4",
                    "midi": 65,
                    "time": 39.79276799999973,
                    "velocity": 0.33858267716535434,
                    "duration": 0.4663214999999994
                },
                {
                    "name": "A4",
                    "midi": 69,
                    "time": 39.79276799999973,
                    "velocity": 0.33858267716535434,
                    "duration": 0.4663214999999994
                },
                {
                    "name": "G#4",
                    "midi": 68,
                    "time": 40.25908949999973,
                    "velocity": 0.28346456692913385,
                    "duration": 0.07772024999999871
                },
                {
                    "name": "A#4",
                    "midi": 70,
                    "time": 40.33680974999973,
                    "velocity": 0.30708661417322836,
                    "duration": 0.07772024999999871
                },
                {
                    "name": "B4",
                    "midi": 71,
                    "time": 40.41452999999973,
                    "velocity": 0.33858267716535434,
                    "duration": 0.07772024999999871
                },
                {
                    "name": "D#5",
                    "midi": 75,
                    "time": 40.41452999999973,
                    "velocity": 0.33858267716535434,
                    "duration": 0.07772024999999871
                },
                {
                    "name": "A#4",
                    "midi": 70,
                    "time": 40.49225024999973,
                    "velocity": 0.31496062992125984,
                    "duration": 0.07772024999999871
                },
                {
                    "name": "G#4",
                    "midi": 68,
                    "time": 40.56997049999973,
                    "velocity": 0.31496062992125984,
                    "duration": 0.07772024999999871
                },
                {
                    "name": "A#4",
                    "midi": 70,
                    "time": 40.647690749999725,
                    "velocity": 0.31496062992125984,
                    "duration": 0.07772024999999871
                },
                {
                    "name": "B4",
                    "midi": 71,
                    "time": 40.725410999999724,
                    "velocity": 0.33858267716535434,
                    "duration": 0.07772024999999871
                },
                {
                    "name": "D#5",
                    "midi": 75,
                    "time": 40.725410999999724,
                    "velocity": 0.33858267716535434,
                    "duration": 0.07772024999999871
                },
                {
                    "name": "A#4",
                    "midi": 70,
                    "time": 40.80313124999972,
                    "velocity": 0.31496062992125984,
                    "duration": 0.07772024999999871
                },
                {
                    "name": "G#4",
                    "midi": 68,
                    "time": 40.88085149999972,
                    "velocity": 0.31496062992125984,
                    "duration": 0.07772024999999871
                },
                {
                    "name": "A#4",
                    "midi": 70,
                    "time": 40.95857174999972,
                    "velocity": 0.31496062992125984,
                    "duration": 0.07772024999999871
                },
                {
                    "name": "B4",
                    "midi": 71,
                    "time": 41.03629199999972,
                    "velocity": 0.33858267716535434,
                    "duration": 0.07772024999999871
                },
                {
                    "name": "D#5",
                    "midi": 75,
                    "time": 41.03629199999972,
                    "velocity": 0.33858267716535434,
                    "duration": 0.07772024999999871
                },
                {
                    "name": "G#4",
                    "midi": 68,
                    "time": 41.191732499999716,
                    "velocity": 0.31496062992125984,
                    "duration": 0.07772024999999871
                },
                {
                    "name": "B4",
                    "midi": 71,
                    "time": 41.191732499999716,
                    "velocity": 0.31496062992125984,
                    "duration": 0.07772024999999871
                },
                {
                    "name": "B4",
                    "midi": 71,
                    "time": 41.347172999999714,
                    "velocity": 0.31496062992125984,
                    "duration": 0.07772024999999871
                },
                {
                    "name": "G#4",
                    "midi": 68,
                    "time": 41.347172999999714,
                    "velocity": 0.31496062992125984,
                    "duration": 0.07772024999999871
                },
                {
                    "name": "B4",
                    "midi": 71,
                    "time": 41.50261349999971,
                    "velocity": 0.31496062992125984,
                    "duration": 0.07772024999999871
                },
                {
                    "name": "D#5",
                    "midi": 75,
                    "time": 41.50261349999971,
                    "velocity": 0.31496062992125984,
                    "duration": 0.07772024999999871
                },
                {
                    "name": "A#4",
                    "midi": 70,
                    "time": 41.65805399999971,
                    "velocity": 0.33858267716535434,
                    "duration": 0.07772024999999871
                },
                {
                    "name": "D5",
                    "midi": 74,
                    "time": 41.65805399999971,
                    "velocity": 0.33858267716535434,
                    "duration": 0.07772024999999871
                },
                {
                    "name": "F4",
                    "midi": 65,
                    "time": 41.813494499999706,
                    "velocity": 0.31496062992125984,
                    "duration": 0.07772024999999871
                },
                {
                    "name": "A#4",
                    "midi": 70,
                    "time": 41.813494499999706,
                    "velocity": 0.31496062992125984,
                    "duration": 0.07772024999999871
                },
                {
                    "name": "F4",
                    "midi": 65,
                    "time": 41.9689349999997,
                    "velocity": 0.31496062992125984,
                    "duration": 0.07772024999999871
                },
                {
                    "name": "A#4",
                    "midi": 70,
                    "time": 41.9689349999997,
                    "velocity": 0.31496062992125984,
                    "duration": 0.07772024999999871
                },
                {
                    "name": "A#4",
                    "midi": 70,
                    "time": 42.1243754999997,
                    "velocity": 0.31496062992125984,
                    "duration": 0.07772024999999871
                },
                {
                    "name": "D5",
                    "midi": 74,
                    "time": 42.1243754999997,
                    "velocity": 0.31496062992125984,
                    "duration": 0.07772024999999871
                },
                {
                    "name": "A#4",
                    "midi": 70,
                    "time": 42.2798159999997,
                    "velocity": 0.36220472440944884,
                    "duration": 0.23316075000000325
                },
                {
                    "name": "D5",
                    "midi": 74,
                    "time": 42.2798159999997,
                    "velocity": 0.36220472440944884,
                    "duration": 0.23316075000000325
                },
                {
                    "name": "B5",
                    "midi": 83,
                    "time": 42.746137499999705,
                    "velocity": 0.6141732283464567,
                    "duration": 0.07772024999999871
                },
                {
                    "name": "C#6",
                    "midi": 85,
                    "time": 42.8238577499997,
                    "velocity": 0.6141732283464567,
                    "duration": 0.07772024999999871
                },
                {
                    "name": "D#6",
                    "midi": 87,
                    "time": 42.9015779999997,
                    "velocity": 0.7086614173228346,
                    "duration": 0.07772024999999871
                },
                {
                    "name": "F#6",
                    "midi": 90,
                    "time": 42.9015779999997,
                    "velocity": 0.7086614173228346,
                    "duration": 0.07772024999999871
                },
                {
                    "name": "C#6",
                    "midi": 85,
                    "time": 42.9792982499997,
                    "velocity": 0.6062992125984252,
                    "duration": 0.07772024999999871
                },
                {
                    "name": "B5",
                    "midi": 83,
                    "time": 43.0570184999997,
                    "velocity": 0.6062992125984252,
                    "duration": 0.07772024999999871
                },
                {
                    "name": "C#6",
                    "midi": 85,
                    "time": 43.1347387499997,
                    "velocity": 0.6062992125984252,
                    "duration": 0.07772024999999871
                },
                {
                    "name": "F#6",
                    "midi": 90,
                    "time": 43.2124589999997,
                    "velocity": 0.6377952755905512,
                    "duration": 0.14248712500000238
                },
                {
                    "name": "D#6",
                    "midi": 87,
                    "time": 43.2124589999997,
                    "velocity": 0.6377952755905512,
                    "duration": 0.14248712500000238
                },
                {
                    "name": "F#5",
                    "midi": 78,
                    "time": 43.3678994999997,
                    "velocity": 0.6062992125984252,
                    "duration": 0.07772024999999871
                },
                {
                    "name": "G#5",
                    "midi": 80,
                    "time": 43.4456197499997,
                    "velocity": 0.6062992125984252,
                    "duration": 0.07772024999999871
                },
                {
                    "name": "C#6",
                    "midi": 85,
                    "time": 43.5233399999997,
                    "velocity": 0.7086614173228346,
                    "duration": 0.07772024999999871
                },
                {
                    "name": "A#5",
                    "midi": 82,
                    "time": 43.5233399999997,
                    "velocity": 0.7086614173228346,
                    "duration": 0.07772024999999871
                },
                {
                    "name": "G#5",
                    "midi": 80,
                    "time": 43.6010602499997,
                    "velocity": 0.6062992125984252,
                    "duration": 0.07772024999999871
                },
                {
                    "name": "F#5",
                    "midi": 78,
                    "time": 43.6787804999997,
                    "velocity": 0.5826771653543307,
                    "duration": 0.07772024999999871
                },
                {
                    "name": "G#5",
                    "midi": 80,
                    "time": 43.756500749999695,
                    "velocity": 0.5826771653543307,
                    "duration": 0.07772024999999871
                },
                {
                    "name": "C#6",
                    "midi": 85,
                    "time": 43.834220999999694,
                    "velocity": 0.6535433070866141,
                    "duration": 0.14248712500000238
                },
                {
                    "name": "A#5",
                    "midi": 82,
                    "time": 43.834220999999694,
                    "velocity": 0.6535433070866141,
                    "duration": 0.14248712500000238
                },
                {
                    "name": "E5",
                    "midi": 76,
                    "time": 43.9896614999997,
                    "velocity": 0.6062992125984252,
                    "duration": 0.07772024999999871
                },
                {
                    "name": "F#5",
                    "midi": 78,
                    "time": 44.0673817499997,
                    "velocity": 0.6062992125984252,
                    "duration": 0.07772024999999871
                },
                {
                    "name": "G#5",
                    "midi": 80,
                    "time": 44.145101999999696,
                    "velocity": 0.7086614173228346,
                    "duration": 0.07772024999999871
                },
                {
                    "name": "B5",
                    "midi": 83,
                    "time": 44.145101999999696,
                    "velocity": 0.7086614173228346,
                    "duration": 0.07772024999999871
                },
                {
                    "name": "F#5",
                    "midi": 78,
                    "time": 44.222822249999695,
                    "velocity": 0.5826771653543307,
                    "duration": 0.07772024999999871
                },
                {
                    "name": "E5",
                    "midi": 76,
                    "time": 44.30054249999969,
                    "velocity": 0.5826771653543307,
                    "duration": 0.07772024999999871
                },
                {
                    "name": "F#5",
                    "midi": 78,
                    "time": 44.37826274999969,
                    "velocity": 0.5826771653543307,
                    "duration": 0.07772024999999871
                },
                {
                    "name": "B5",
                    "midi": 83,
                    "time": 44.45598299999969,
                    "velocity": 0.6535433070866141,
                    "duration": 0.14248712500000238
                },
                {
                    "name": "G#5",
                    "midi": 80,
                    "time": 44.45598299999969,
                    "velocity": 0.6535433070866141,
                    "duration": 0.14248712500000238
                },
                {
                    "name": "B4",
                    "midi": 71,
                    "time": 44.611423499999695,
                    "velocity": 0.6141732283464567,
                    "duration": 0.07772024999999871
                },
                {
                    "name": "C#5",
                    "midi": 73,
                    "time": 44.689143749999694,
                    "velocity": 0.6141732283464567,
                    "duration": 0.07772024999999871
                },
                {
                    "name": "F#5",
                    "midi": 78,
                    "time": 44.76686399999969,
                    "velocity": 0.7165354330708661,
                    "duration": 0.07772024999999871
                },
                {
                    "name": "D#5",
                    "midi": 75,
                    "time": 44.76686399999969,
                    "velocity": 0.7165354330708661,
                    "duration": 0.07772024999999871
                },
                {
                    "name": "C#5",
                    "midi": 73,
                    "time": 44.84458424999969,
                    "velocity": 0.5826771653543307,
                    "duration": 0.07772024999999871
                },
                {
                    "name": "B4",
                    "midi": 71,
                    "time": 44.92230449999969,
                    "velocity": 0.5826771653543307,
                    "duration": 0.07772024999999871
                },
                {
                    "name": "C#5",
                    "midi": 73,
                    "time": 45.00002474999969,
                    "velocity": 0.5826771653543307,
                    "duration": 0.07772024999999871
                },
                {
                    "name": "F#5",
                    "midi": 78,
                    "time": 45.07774499999969,
                    "velocity": 0.6377952755905512,
                    "duration": 0.14248712500000238
                },
                {
                    "name": "D#5",
                    "midi": 75,
                    "time": 45.07774499999969,
                    "velocity": 0.6377952755905512,
                    "duration": 0.14248712500000238
                },
                {
                    "name": "A#3",
                    "midi": 58,
                    "time": 45.23318549999969,
                    "velocity": 0.5669291338582677,
                    "duration": 0.07772024999999871
                },
                {
                    "name": "B3",
                    "midi": 59,
                    "time": 45.31090574999969,
                    "velocity": 0.5669291338582677,
                    "duration": 0.07772024999999871
                },
                {
                    "name": "C#4",
                    "midi": 61,
                    "time": 45.38862599999969,
                    "velocity": 0.6377952755905512,
                    "duration": 0.07772024999999871
                },
                {
                    "name": "B3",
                    "midi": 59,
                    "time": 45.46634624999969,
                    "velocity": 0.5511811023622047,
                    "duration": 0.07772024999999871
                },
                {
                    "name": "A#3",
                    "midi": 58,
                    "time": 45.54406649999969,
                    "velocity": 0.5511811023622047,
                    "duration": 0.07772024999999871
                },
                {
                    "name": "B3",
                    "midi": 59,
                    "time": 45.699506999999684,
                    "velocity": 0.6062992125984252,
                    "duration": 0.07772024999999871
                },
                {
                    "name": "A#3",
                    "midi": 58,
                    "time": 45.77722724999968,
                    "velocity": 0.5118110236220472,
                    "duration": 0.07772024999999871
                },
                {
                    "name": "G#3",
                    "midi": 56,
                    "time": 45.85494749999968,
                    "velocity": 0.5118110236220472,
                    "duration": 0.07772024999999871
                },
                {
                    "name": "A#3",
                    "midi": 58,
                    "time": 46.01038799999968,
                    "velocity": 0.5669291338582677,
                    "duration": 0.07772024999999871
                },
                {
                    "name": "G#3",
                    "midi": 56,
                    "time": 46.08810824999968,
                    "velocity": 0.5039370078740157,
                    "duration": 0.07772024999999871
                },
                {
                    "name": "F#3",
                    "midi": 54,
                    "time": 46.16582849999968,
                    "velocity": 0.5039370078740157,
                    "duration": 0.07772024999999871
                },
                {
                    "name": "G#3",
                    "midi": 56,
                    "time": 46.321268999999674,
                    "velocity": 0.5433070866141733,
                    "duration": 0.07772024999999871
                },
                {
                    "name": "F#3",
                    "midi": 54,
                    "time": 46.39898924999967,
                    "velocity": 0.49606299212598426,
                    "duration": 0.07772024999999871
                },
                {
                    "name": "F3",
                    "midi": 53,
                    "time": 46.47670949999967,
                    "velocity": 0.49606299212598426,
                    "duration": 0.07772024999999871
                },
                {
                    "name": "G#3",
                    "midi": 56,
                    "time": 47.25391199999967,
                    "velocity": 0.3543307086614173,
                    "duration": 0.07772024999999871
                },
                {
                    "name": "F#3",
                    "midi": 54,
                    "time": 47.33163224999967,
                    "velocity": 0.33070866141732286,
                    "duration": 0.07772024999999871
                },
                {
                    "name": "E3",
                    "midi": 52,
                    "time": 47.40935249999967,
                    "velocity": 0.33070866141732286,
                    "duration": 0.07772024999999871
                },
                {
                    "name": "D#3",
                    "midi": 51,
                    "time": 47.87567399999967,
                    "velocity": 0.6141732283464567,
                    "duration": 0.07772024999999871
                },
                {
                    "name": "A#3",
                    "midi": 58,
                    "time": 47.95339424999967,
                    "velocity": 0.5748031496062992,
                    "duration": 0.07772024999999871
                },
                {
                    "name": "D#4",
                    "midi": 63,
                    "time": 48.03111449999967,
                    "velocity": 0.5748031496062992,
                    "duration": 0.058290187499999035
                },
                {
                    "name": "D#4",
                    "midi": 63,
                    "time": 48.108834749999666,
                    "velocity": 0.5748031496062992,
                    "duration": 0.07772024999999871
                },
                {
                    "name": "A#4",
                    "midi": 70,
                    "time": 48.186554999999665,
                    "velocity": 0.5984251968503937,
                    "duration": 0.07772024999999871
                },
                {
                    "name": "D#5",
                    "midi": 75,
                    "time": 48.26427524999966,
                    "velocity": 0.6377952755905512,
                    "duration": 0.058290187499999035
                },
                {
                    "name": "D#5",
                    "midi": 75,
                    "time": 48.34199549999966,
                    "velocity": 0.6692913385826772,
                    "duration": 0.07772024999999871
                },
                {
                    "name": "A#5",
                    "midi": 82,
                    "time": 48.41971574999966,
                    "velocity": 0.6850393700787402,
                    "duration": 0.058290187499999035
                },
                {
                    "name": "D#5",
                    "midi": 75,
                    "time": 48.49743599999966,
                    "velocity": 0.7244094488188977,
                    "duration": 0.15544049999999743
                },
                {
                    "name": "D#6",
                    "midi": 87,
                    "time": 48.49743599999966,
                    "velocity": 0.7244094488188977,
                    "duration": 0.15544049999999743
                },
                {
                    "name": "A#5",
                    "midi": 82,
                    "time": 48.49743599999966,
                    "velocity": 0.7244094488188977,
                    "duration": 0.15544049999999743
                },
                {
                    "name": "B2",
                    "midi": 47,
                    "time": 49.119197999999656,
                    "velocity": 0.28346456692913385,
                    "duration": 0.7772025000000014
                },
                {
                    "name": "D3",
                    "midi": 50,
                    "time": 49.119197999999656,
                    "velocity": 0.28346456692913385,
                    "duration": 0.7772025000000014
                },
                {
                    "name": "F3",
                    "midi": 53,
                    "time": 49.119197999999656,
                    "velocity": 0.28346456692913385,
                    "duration": 0.7772025000000014
                },
                {
                    "name": "D3",
                    "midi": 50,
                    "time": 50.20728149999966,
                    "velocity": 0.28346456692913385,
                    "duration": 0.07772024999999871
                },
                {
                    "name": "F3",
                    "midi": 53,
                    "time": 50.20728149999966,
                    "velocity": 0.28346456692913385,
                    "duration": 0.07772024999999871
                },
                {
                    "name": "B3",
                    "midi": 59,
                    "time": 50.20728149999966,
                    "velocity": 0.4015748031496063,
                    "duration": 0.07772024999999871
                },
                {
                    "name": "D3",
                    "midi": 50,
                    "time": 50.36272199999966,
                    "velocity": 0.2992125984251969,
                    "duration": 0.07772024999999871
                },
                {
                    "name": "F3",
                    "midi": 53,
                    "time": 50.36272199999966,
                    "velocity": 0.2992125984251969,
                    "duration": 0.07772024999999871
                },
                {
                    "name": "B3",
                    "midi": 59,
                    "time": 50.36272199999966,
                    "velocity": 0.4330708661417323,
                    "duration": 0.07772024999999871
                },
                {
                    "name": "D3",
                    "midi": 50,
                    "time": 50.518162499999654,
                    "velocity": 0.28346456692913385,
                    "duration": 0.07772024999999871
                },
                {
                    "name": "F3",
                    "midi": 53,
                    "time": 50.518162499999654,
                    "velocity": 0.28346456692913385,
                    "duration": 0.07772024999999871
                },
                {
                    "name": "A#3",
                    "midi": 58,
                    "time": 50.518162499999654,
                    "velocity": 0.4015748031496063,
                    "duration": 0.07772024999999871
                },
                {
                    "name": "D3",
                    "midi": 50,
                    "time": 50.67360299999965,
                    "velocity": 0.28346456692913385,
                    "duration": 0.07772024999999871
                },
                {
                    "name": "F3",
                    "midi": 53,
                    "time": 50.67360299999965,
                    "velocity": 0.28346456692913385,
                    "duration": 0.07772024999999871
                },
                {
                    "name": "A#3",
                    "midi": 58,
                    "time": 50.67360299999965,
                    "velocity": 0.4015748031496063,
                    "duration": 0.07772024999999871
                },
                {
                    "name": "D3",
                    "midi": 50,
                    "time": 50.82904349999965,
                    "velocity": 0.2992125984251969,
                    "duration": 0.07772024999999871
                },
                {
                    "name": "F3",
                    "midi": 53,
                    "time": 50.82904349999965,
                    "velocity": 0.2992125984251969,
                    "duration": 0.07772024999999871
                },
                {
                    "name": "A3",
                    "midi": 57,
                    "time": 50.82904349999965,
                    "velocity": 0.4330708661417323,
                    "duration": 0.07772024999999871
                },
                {
                    "name": "D3",
                    "midi": 50,
                    "time": 50.98448399999965,
                    "velocity": 0.3228346456692913,
                    "duration": 0.07772024999999871
                },
                {
                    "name": "F3",
                    "midi": 53,
                    "time": 50.98448399999965,
                    "velocity": 0.3228346456692913,
                    "duration": 0.07772024999999871
                },
                {
                    "name": "A3",
                    "midi": 57,
                    "time": 50.98448399999965,
                    "velocity": 0.4645669291338583,
                    "duration": 0.07772024999999871
                },
                {
                    "name": "D3",
                    "midi": 50,
                    "time": 51.139924499999644,
                    "velocity": 0.31496062992125984,
                    "duration": 0.07772024999999871
                },
                {
                    "name": "F3",
                    "midi": 53,
                    "time": 51.139924499999644,
                    "velocity": 0.31496062992125984,
                    "duration": 0.07772024999999871
                },
                {
                    "name": "G#3",
                    "midi": 56,
                    "time": 51.139924499999644,
                    "velocity": 0.44881889763779526,
                    "duration": 0.07772024999999871
                },
                {
                    "name": "D3",
                    "midi": 50,
                    "time": 51.29536499999964,
                    "velocity": 0.2992125984251969,
                    "duration": 0.07772024999999871
                },
                {
                    "name": "F3",
                    "midi": 53,
                    "time": 51.29536499999964,
                    "velocity": 0.2992125984251969,
                    "duration": 0.07772024999999871
                },
                {
                    "name": "G#3",
                    "midi": 56,
                    "time": 51.29536499999964,
                    "velocity": 0.4330708661417323,
                    "duration": 0.07772024999999871
                },
                {
                    "name": "D3",
                    "midi": 50,
                    "time": 51.60624599999964,
                    "velocity": 0.3228346456692913,
                    "duration": 0.7772025000000014
                },
                {
                    "name": "F3",
                    "midi": 53,
                    "time": 51.60624599999964,
                    "velocity": 0.3228346456692913,
                    "duration": 0.7772025000000014
                },
                {
                    "name": "G#3",
                    "midi": 56,
                    "time": 51.60624599999964,
                    "velocity": 0.3228346456692913,
                    "duration": 0.7772025000000014
                },
                {
                    "name": "F3",
                    "midi": 53,
                    "time": 52.69432949999965,
                    "velocity": 0.3858267716535433,
                    "duration": 0.07772024999999871
                },
                {
                    "name": "G#3",
                    "midi": 56,
                    "time": 52.69432949999965,
                    "velocity": 0.3858267716535433,
                    "duration": 0.07772024999999871
                },
                {
                    "name": "D4",
                    "midi": 62,
                    "time": 52.69432949999965,
                    "velocity": 0.4645669291338583,
                    "duration": 0.07772024999999871
                },
                {
                    "name": "F3",
                    "midi": 53,
                    "time": 52.849769999999644,
                    "velocity": 0.3937007874015748,
                    "duration": 0.07772024999999871
                },
                {
                    "name": "G#3",
                    "midi": 56,
                    "time": 52.849769999999644,
                    "velocity": 0.3937007874015748,
                    "duration": 0.07772024999999871
                },
                {
                    "name": "D4",
                    "midi": 62,
                    "time": 52.849769999999644,
                    "velocity": 0.47244094488188976,
                    "duration": 0.07772024999999871
                },
                {
                    "name": "F3",
                    "midi": 53,
                    "time": 53.00521049999964,
                    "velocity": 0.3858267716535433,
                    "duration": 0.07772024999999871
                },
                {
                    "name": "G#3",
                    "midi": 56,
                    "time": 53.00521049999964,
                    "velocity": 0.3858267716535433,
                    "duration": 0.07772024999999871
                },
                {
                    "name": "C#4",
                    "midi": 61,
                    "time": 53.00521049999964,
                    "velocity": 0.4645669291338583,
                    "duration": 0.07772024999999871
                },
                {
                    "name": "F3",
                    "midi": 53,
                    "time": 53.16065099999964,
                    "velocity": 0.3858267716535433,
                    "duration": 0.07772024999999871
                },
                {
                    "name": "G#3",
                    "midi": 56,
                    "time": 53.16065099999964,
                    "velocity": 0.3858267716535433,
                    "duration": 0.07772024999999871
                },
                {
                    "name": "C#4",
                    "midi": 61,
                    "time": 53.16065099999964,
                    "velocity": 0.4645669291338583,
                    "duration": 0.07772024999999871
                },
                {
                    "name": "F3",
                    "midi": 53,
                    "time": 53.31609149999964,
                    "velocity": 0.41732283464566927,
                    "duration": 0.07772024999999871
                },
                {
                    "name": "G#3",
                    "midi": 56,
                    "time": 53.31609149999964,
                    "velocity": 0.41732283464566927,
                    "duration": 0.07772024999999871
                },
                {
                    "name": "C4",
                    "midi": 60,
                    "time": 53.31609149999964,
                    "velocity": 0.49606299212598426,
                    "duration": 0.07772024999999871
                },
                {
                    "name": "F3",
                    "midi": 53,
                    "time": 53.471531999999634,
                    "velocity": 0.4645669291338583,
                    "duration": 0.07772024999999871
                },
                {
                    "name": "G#3",
                    "midi": 56,
                    "time": 53.471531999999634,
                    "velocity": 0.4645669291338583,
                    "duration": 0.07772024999999871
                },
                {
                    "name": "C4",
                    "midi": 60,
                    "time": 53.471531999999634,
                    "velocity": 0.5511811023622047,
                    "duration": 0.07772024999999871
                },
                {
                    "name": "F3",
                    "midi": 53,
                    "time": 53.62697249999963,
                    "velocity": 0.4409448818897638,
                    "duration": 0.07772024999999871
                },
                {
                    "name": "G#3",
                    "midi": 56,
                    "time": 53.62697249999963,
                    "velocity": 0.4409448818897638,
                    "duration": 0.07772024999999871
                },
                {
                    "name": "B3",
                    "midi": 59,
                    "time": 53.62697249999963,
                    "velocity": 0.5275590551181102,
                    "duration": 0.07772024999999871
                },
                {
                    "name": "F3",
                    "midi": 53,
                    "time": 53.78241299999963,
                    "velocity": 0.4330708661417323,
                    "duration": 0.07772024999999871
                },
                {
                    "name": "G#3",
                    "midi": 56,
                    "time": 53.78241299999963,
                    "velocity": 0.4330708661417323,
                    "duration": 0.07772024999999871
                },
                {
                    "name": "B3",
                    "midi": 59,
                    "time": 53.78241299999963,
                    "velocity": 0.5039370078740157,
                    "duration": 0.07772024999999871
                },
                {
                    "name": "G#3",
                    "midi": 56,
                    "time": 53.937853499999626,
                    "velocity": 0.4015748031496063,
                    "duration": 0.07772024999999871
                },
                {
                    "name": "B3",
                    "midi": 59,
                    "time": 53.937853499999626,
                    "velocity": 0.4015748031496063,
                    "duration": 0.07772024999999871
                },
                {
                    "name": "F4",
                    "midi": 65,
                    "time": 53.937853499999626,
                    "velocity": 0.47244094488188976,
                    "duration": 0.07772024999999871
                },
                {
                    "name": "G#3",
                    "midi": 56,
                    "time": 54.093293999999624,
                    "velocity": 0.41732283464566927,
                    "duration": 0.07772024999999871
                },
                {
                    "name": "B3",
                    "midi": 59,
                    "time": 54.093293999999624,
                    "velocity": 0.41732283464566927,
                    "duration": 0.07772024999999871
                },
                {
                    "name": "F4",
                    "midi": 65,
                    "time": 54.093293999999624,
                    "velocity": 0.5039370078740157,
                    "duration": 0.07772024999999871
                },
                {
                    "name": "G#3",
                    "midi": 56,
                    "time": 54.24873449999962,
                    "velocity": 0.4015748031496063,
                    "duration": 0.07772024999999871
                },
                {
                    "name": "B3",
                    "midi": 59,
                    "time": 54.24873449999962,
                    "velocity": 0.4015748031496063,
                    "duration": 0.07772024999999871
                },
                {
                    "name": "E4",
                    "midi": 64,
                    "time": 54.24873449999962,
                    "velocity": 0.47244094488188976,
                    "duration": 0.07772024999999871
                },
                {
                    "name": "G#3",
                    "midi": 56,
                    "time": 54.40417499999962,
                    "velocity": 0.4015748031496063,
                    "duration": 0.07772024999999871
                },
                {
                    "name": "B3",
                    "midi": 59,
                    "time": 54.40417499999962,
                    "velocity": 0.4015748031496063,
                    "duration": 0.07772024999999871
                },
                {
                    "name": "E4",
                    "midi": 64,
                    "time": 54.40417499999962,
                    "velocity": 0.47244094488188976,
                    "duration": 0.07772024999999871
                },
                {
                    "name": "G#3",
                    "midi": 56,
                    "time": 54.559615499999616,
                    "velocity": 0.4330708661417323,
                    "duration": 0.07772024999999871
                },
                {
                    "name": "C4",
                    "midi": 60,
                    "time": 54.559615499999616,
                    "velocity": 0.4330708661417323,
                    "duration": 0.07772024999999871
                },
                {
                    "name": "D#4",
                    "midi": 63,
                    "time": 54.559615499999616,
                    "velocity": 0.5196850393700787,
                    "duration": 0.07772024999999871
                },
                {
                    "name": "G#3",
                    "midi": 56,
                    "time": 54.71505599999961,
                    "velocity": 0.48031496062992124,
                    "duration": 0.07772024999999871
                },
                {
                    "name": "B3",
                    "midi": 59,
                    "time": 54.71505599999961,
                    "velocity": 0.48031496062992124,
                    "duration": 0.07772024999999871
                },
                {
                    "name": "D#4",
                    "midi": 63,
                    "time": 54.71505599999961,
                    "velocity": 0.5748031496062992,
                    "duration": 0.07772024999999871
                },
                {
                    "name": "G#3",
                    "midi": 56,
                    "time": 54.87049649999961,
                    "velocity": 0.4566929133858268,
                    "duration": 0.07772024999999871
                },
                {
                    "name": "B3",
                    "midi": 59,
                    "time": 54.87049649999961,
                    "velocity": 0.4566929133858268,
                    "duration": 0.07772024999999871
                },
                {
                    "name": "D4",
                    "midi": 62,
                    "time": 54.87049649999961,
                    "velocity": 0.5511811023622047,
                    "duration": 0.07772024999999871
                },
                {
                    "name": "G#3",
                    "midi": 56,
                    "time": 55.02593699999961,
                    "velocity": 0.4409448818897638,
                    "duration": 0.07772024999999871
                },
                {
                    "name": "B3",
                    "midi": 59,
                    "time": 55.02593699999961,
                    "velocity": 0.4409448818897638,
                    "duration": 0.07772024999999871
                },
                {
                    "name": "D4",
                    "midi": 62,
                    "time": 55.02593699999961,
                    "velocity": 0.5275590551181102,
                    "duration": 0.07772024999999871
                },
                {
                    "name": "B3",
                    "midi": 59,
                    "time": 55.181377499999606,
                    "velocity": 0.4330708661417323,
                    "duration": 0.07772024999999871
                },
                {
                    "name": "D4",
                    "midi": 62,
                    "time": 55.181377499999606,
                    "velocity": 0.5196850393700787,
                    "duration": 0.07772024999999871
                },
                {
                    "name": "G#4",
                    "midi": 68,
                    "time": 55.181377499999606,
                    "velocity": 0.5196850393700787,
                    "duration": 0.07772024999999871
                },
                {
                    "name": "B3",
                    "midi": 59,
                    "time": 55.3368179999996,
                    "velocity": 0.4566929133858268,
                    "duration": 0.07772024999999871
                },
                {
                    "name": "D4",
                    "midi": 62,
                    "time": 55.3368179999996,
                    "velocity": 0.4566929133858268,
                    "duration": 0.07772024999999871
                },
                {
                    "name": "G#4",
                    "midi": 68,
                    "time": 55.3368179999996,
                    "velocity": 0.5511811023622047,
                    "duration": 0.07772024999999871
                },
                {
                    "name": "B3",
                    "midi": 59,
                    "time": 55.4922584999996,
                    "velocity": 0.4330708661417323,
                    "duration": 0.07772024999999871
                },
                {
                    "name": "D4",
                    "midi": 62,
                    "time": 55.4922584999996,
                    "velocity": 0.4330708661417323,
                    "duration": 0.07772024999999871
                },
                {
                    "name": "G4",
                    "midi": 67,
                    "time": 55.4922584999996,
                    "velocity": 0.5196850393700787,
                    "duration": 0.07772024999999871
                },
                {
                    "name": "B3",
                    "midi": 59,
                    "time": 55.6476989999996,
                    "velocity": 0.4330708661417323,
                    "duration": 0.07772024999999871
                },
                {
                    "name": "D4",
                    "midi": 62,
                    "time": 55.6476989999996,
                    "velocity": 0.4330708661417323,
                    "duration": 0.07772024999999871
                },
                {
                    "name": "G4",
                    "midi": 67,
                    "time": 55.6476989999996,
                    "velocity": 0.5196850393700787,
                    "duration": 0.07772024999999871
                },
                {
                    "name": "B3",
                    "midi": 59,
                    "time": 55.803139499999595,
                    "velocity": 0.47244094488188976,
                    "duration": 0.07772024999999871
                },
                {
                    "name": "D4",
                    "midi": 62,
                    "time": 55.803139499999595,
                    "velocity": 0.47244094488188976,
                    "duration": 0.07772024999999871
                },
                {
                    "name": "F#4",
                    "midi": 66,
                    "time": 55.803139499999595,
                    "velocity": 0.5669291338582677,
                    "duration": 0.07772024999999871
                },
                {
                    "name": "B3",
                    "midi": 59,
                    "time": 55.95857999999959,
                    "velocity": 0.5118110236220472,
                    "duration": 0.07772024999999871
                },
                {
                    "name": "D4",
                    "midi": 62,
                    "time": 55.95857999999959,
                    "velocity": 0.5118110236220472,
                    "duration": 0.07772024999999871
                },
                {
                    "name": "F#4",
                    "midi": 66,
                    "time": 55.95857999999959,
                    "velocity": 0.5984251968503937,
                    "duration": 0.07772024999999871
                },
                {
                    "name": "B3",
                    "midi": 59,
                    "time": 56.11402049999959,
                    "velocity": 0.47244094488188976,
                    "duration": 0.07772024999999871
                },
                {
                    "name": "D4",
                    "midi": 62,
                    "time": 56.11402049999959,
                    "velocity": 0.47244094488188976,
                    "duration": 0.07772024999999871
                },
                {
                    "name": "F4",
                    "midi": 65,
                    "time": 56.11402049999959,
                    "velocity": 0.5669291338582677,
                    "duration": 0.07772024999999871
                },
                {
                    "name": "B3",
                    "midi": 59,
                    "time": 56.26946099999959,
                    "velocity": 0.4566929133858268,
                    "duration": 0.07772024999999871
                },
                {
                    "name": "D4",
                    "midi": 62,
                    "time": 56.26946099999959,
                    "velocity": 0.4566929133858268,
                    "duration": 0.07772024999999871
                },
                {
                    "name": "F4",
                    "midi": 65,
                    "time": 56.26946099999959,
                    "velocity": 0.5433070866141733,
                    "duration": 0.07772024999999871
                },
                {
                    "name": "D4",
                    "midi": 62,
                    "time": 56.424901499999585,
                    "velocity": 0.41732283464566927,
                    "duration": 0.07772024999999871
                },
                {
                    "name": "F4",
                    "midi": 65,
                    "time": 56.424901499999585,
                    "velocity": 0.41732283464566927,
                    "duration": 0.07772024999999871
                },
                {
                    "name": "B4",
                    "midi": 71,
                    "time": 56.424901499999585,
                    "velocity": 0.5905511811023622,
                    "duration": 0.07772024999999871
                },
                {
                    "name": "D4",
                    "midi": 62,
                    "time": 56.58034199999958,
                    "velocity": 0.4566929133858268,
                    "duration": 0.07772024999999871
                },
                {
                    "name": "F4",
                    "midi": 65,
                    "time": 56.58034199999958,
                    "velocity": 0.4566929133858268,
                    "duration": 0.07772024999999871
                },
                {
                    "name": "B4",
                    "midi": 71,
                    "time": 56.58034199999958,
                    "velocity": 0.6377952755905512,
                    "duration": 0.07772024999999871
                },
                {
                    "name": "D4",
                    "midi": 62,
                    "time": 56.73578249999958,
                    "velocity": 0.4409448818897638,
                    "duration": 0.07772024999999871
                },
                {
                    "name": "F4",
                    "midi": 65,
                    "time": 56.73578249999958,
                    "velocity": 0.4409448818897638,
                    "duration": 0.07772024999999871
                },
                {
                    "name": "A#4",
                    "midi": 70,
                    "time": 56.73578249999958,
                    "velocity": 0.6220472440944882,
                    "duration": 0.07772024999999871
                },
                {
                    "name": "D4",
                    "midi": 62,
                    "time": 56.89122299999958,
                    "velocity": 0.4251968503937008,
                    "duration": 0.07772024999999871
                },
                {
                    "name": "F4",
                    "midi": 65,
                    "time": 56.89122299999958,
                    "velocity": 0.4251968503937008,
                    "duration": 0.07772024999999871
                },
                {
                    "name": "A#4",
                    "midi": 70,
                    "time": 56.89122299999958,
                    "velocity": 0.5984251968503937,
                    "duration": 0.07772024999999871
                },
                {
                    "name": "F4",
                    "midi": 65,
                    "time": 57.046663499999575,
                    "velocity": 0.4330708661417323,
                    "duration": 0.07772024999999871
                },
                {
                    "name": "G#4",
                    "midi": 68,
                    "time": 57.046663499999575,
                    "velocity": 0.4330708661417323,
                    "duration": 0.07772024999999871
                },
                {
                    "name": "D5",
                    "midi": 74,
                    "time": 57.046663499999575,
                    "velocity": 0.6141732283464567,
                    "duration": 0.07772024999999871
                },
                {
                    "name": "F4",
                    "midi": 65,
                    "time": 57.20210399999957,
                    "velocity": 0.47244094488188976,
                    "duration": 0.07772024999999871
                },
                {
                    "name": "G#4",
                    "midi": 68,
                    "time": 57.20210399999957,
                    "velocity": 0.47244094488188976,
                    "duration": 0.07772024999999871
                },
                {
                    "name": "D5",
                    "midi": 74,
                    "time": 57.20210399999957,
                    "velocity": 0.6771653543307087,
                    "duration": 0.07772024999999871
                },
                {
                    "name": "F4",
                    "midi": 65,
                    "time": 57.35754449999957,
                    "velocity": 0.4566929133858268,
                    "duration": 0.07772024999999871
                },
                {
                    "name": "G#4",
                    "midi": 68,
                    "time": 57.35754449999957,
                    "velocity": 0.4566929133858268,
                    "duration": 0.07772024999999871
                },
                {
                    "name": "C#5",
                    "midi": 73,
                    "time": 57.35754449999957,
                    "velocity": 0.6377952755905512,
                    "duration": 0.07772024999999871
                },
                {
                    "name": "F4",
                    "midi": 65,
                    "time": 57.51298499999957,
                    "velocity": 0.4409448818897638,
                    "duration": 0.07772024999999871
                },
                {
                    "name": "G#4",
                    "midi": 68,
                    "time": 57.51298499999957,
                    "velocity": 0.4409448818897638,
                    "duration": 0.07772024999999871
                },
                {
                    "name": "C#5",
                    "midi": 73,
                    "time": 57.51298499999957,
                    "velocity": 0.6220472440944882,
                    "duration": 0.07772024999999871
                },
                {
                    "name": "G#4",
                    "midi": 68,
                    "time": 57.668425499999564,
                    "velocity": 0.44881889763779526,
                    "duration": 0.07772024999999871
                },
                {
                    "name": "B4",
                    "midi": 71,
                    "time": 57.668425499999564,
                    "velocity": 0.44881889763779526,
                    "duration": 0.07772024999999871
                },
                {
                    "name": "F5",
                    "midi": 77,
                    "time": 57.668425499999564,
                    "velocity": 0.6299212598425197,
                    "duration": 0.07772024999999871
                },
                {
                    "name": "G#4",
                    "midi": 68,
                    "time": 57.82386599999956,
                    "velocity": 0.4881889763779528,
                    "duration": 0.07772024999999871
                },
                {
                    "name": "B4",
                    "midi": 71,
                    "time": 57.82386599999956,
                    "velocity": 0.4881889763779528,
                    "duration": 0.07772024999999871
                },
                {
                    "name": "F5",
                    "midi": 77,
                    "time": 57.82386599999956,
                    "velocity": 0.6771653543307087,
                    "duration": 0.07772024999999871
                },
                {
                    "name": "G#4",
                    "midi": 68,
                    "time": 57.97930649999956,
                    "velocity": 0.47244094488188976,
                    "duration": 0.07772024999999871
                },
                {
                    "name": "B4",
                    "midi": 71,
                    "time": 57.97930649999956,
                    "velocity": 0.47244094488188976,
                    "duration": 0.07772024999999871
                },
                {
                    "name": "E5",
                    "midi": 76,
                    "time": 57.97930649999956,
                    "velocity": 0.6771653543307087,
                    "duration": 0.07772024999999871
                },
                {
                    "name": "G#4",
                    "midi": 68,
                    "time": 58.13474699999956,
                    "velocity": 0.4566929133858268,
                    "duration": 0.07772024999999871
                },
                {
                    "name": "B4",
                    "midi": 71,
                    "time": 58.13474699999956,
                    "velocity": 0.4566929133858268,
                    "duration": 0.07772024999999871
                },
                {
                    "name": "E5",
                    "midi": 76,
                    "time": 58.13474699999956,
                    "velocity": 0.6377952755905512,
                    "duration": 0.07772024999999871
                },
                {
                    "name": "B4",
                    "midi": 71,
                    "time": 58.290187499999554,
                    "velocity": 0.5590551181102362,
                    "duration": 0.07772024999999871
                },
                {
                    "name": "D5",
                    "midi": 74,
                    "time": 58.290187499999554,
                    "velocity": 0.5590551181102362,
                    "duration": 0.07772024999999871
                },
                {
                    "name": "G#5",
                    "midi": 80,
                    "time": 58.290187499999554,
                    "velocity": 0.6692913385826772,
                    "duration": 0.07772024999999871
                },
                {
                    "name": "B4",
                    "midi": 71,
                    "time": 58.44562799999955,
                    "velocity": 0.6220472440944882,
                    "duration": 0.07772024999999871
                },
                {
                    "name": "D5",
                    "midi": 74,
                    "time": 58.44562799999955,
                    "velocity": 0.6220472440944882,
                    "duration": 0.07772024999999871
                },
                {
                    "name": "G#5",
                    "midi": 80,
                    "time": 58.44562799999955,
                    "velocity": 0.7401574803149606,
                    "duration": 0.07772024999999871
                },
                {
                    "name": "B4",
                    "midi": 71,
                    "time": 58.60106849999955,
                    "velocity": 0.5905511811023622,
                    "duration": 0.07772024999999871
                },
                {
                    "name": "D5",
                    "midi": 74,
                    "time": 58.60106849999955,
                    "velocity": 0.5905511811023622,
                    "duration": 0.07772024999999871
                },
                {
                    "name": "G5",
                    "midi": 79,
                    "time": 58.60106849999955,
                    "velocity": 0.7007874015748031,
                    "duration": 0.07772024999999871
                },
                {
                    "name": "B4",
                    "midi": 71,
                    "time": 58.75650899999955,
                    "velocity": 0.5669291338582677,
                    "duration": 0.07772024999999871
                },
                {
                    "name": "D5",
                    "midi": 74,
                    "time": 58.75650899999955,
                    "velocity": 0.5669291338582677,
                    "duration": 0.07772024999999871
                },
                {
                    "name": "G5",
                    "midi": 79,
                    "time": 58.75650899999955,
                    "velocity": 0.6771653543307087,
                    "duration": 0.07772024999999871
                },
                {
                    "name": "C5",
                    "midi": 72,
                    "time": 58.911949499999544,
                    "velocity": 0.28346456692913385,
                    "duration": 0.07772024999999871
                },
                {
                    "name": "D5",
                    "midi": 74,
                    "time": 58.98966974999954,
                    "velocity": 0.28346456692913385,
                    "duration": 0.07772024999999871
                },
                {
                    "name": "G5",
                    "midi": 79,
                    "time": 59.06738999999954,
                    "velocity": 0.30708661417322836,
                    "duration": 0.07772024999999871
                },
                {
                    "name": "E5",
                    "midi": 76,
                    "time": 59.06738999999954,
                    "velocity": 0.30708661417322836,
                    "duration": 0.07772024999999871
                },
                {
                    "name": "D5",
                    "midi": 74,
                    "time": 59.14511024999954,
                    "velocity": 0.28346456692913385,
                    "duration": 0.07772024999999871
                },
                {
                    "name": "C5",
                    "midi": 72,
                    "time": 59.22283049999954,
                    "velocity": 0.28346456692913385,
                    "duration": 0.07772024999999871
                },
                {
                    "name": "D5",
                    "midi": 74,
                    "time": 59.30055074999954,
                    "velocity": 0.28346456692913385,
                    "duration": 0.07772024999999871
                },
                {
                    "name": "E5",
                    "midi": 76,
                    "time": 59.378270999999536,
                    "velocity": 0.29133858267716534,
                    "duration": 0.07772024999999871
                },
                {
                    "name": "G5",
                    "midi": 79,
                    "time": 59.378270999999536,
                    "velocity": 0.29133858267716534,
                    "duration": 0.07772024999999871
                },
                {
                    "name": "D5",
                    "midi": 74,
                    "time": 59.455991249999535,
                    "velocity": 0.28346456692913385,
                    "duration": 0.07772024999999871
                },
                {
                    "name": "C5",
                    "midi": 72,
                    "time": 59.533711499999534,
                    "velocity": 0.28346456692913385,
                    "duration": 0.07772024999999871
                },
                {
                    "name": "D5",
                    "midi": 74,
                    "time": 59.61143174999953,
                    "velocity": 0.28346456692913385,
                    "duration": 0.07772024999999871
                },
                {
                    "name": "G5",
                    "midi": 79,
                    "time": 59.68915199999953,
                    "velocity": 0.30708661417322836,
                    "duration": 0.07772024999999871
                },
                {
                    "name": "E5",
                    "midi": 76,
                    "time": 59.68915199999953,
                    "velocity": 0.30708661417322836,
                    "duration": 0.07772024999999871
                },
                {
                    "name": "E5",
                    "midi": 76,
                    "time": 59.84459249999953,
                    "velocity": 0.28346456692913385,
                    "duration": 0.07772024999999871
                },
                {
                    "name": "C5",
                    "midi": 72,
                    "time": 59.84459249999953,
                    "velocity": 0.28346456692913385,
                    "duration": 0.07772024999999871
                },
                {
                    "name": "E5",
                    "midi": 76,
                    "time": 60.000032999999526,
                    "velocity": 0.28346456692913385,
                    "duration": 0.07772024999999871
                },
                {
                    "name": "C5",
                    "midi": 72,
                    "time": 60.000032999999526,
                    "velocity": 0.28346456692913385,
                    "duration": 0.07772024999999871
                },
                {
                    "name": "G5",
                    "midi": 79,
                    "time": 60.15547349999952,
                    "velocity": 0.28346456692913385,
                    "duration": 0.07772024999999871
                },
                {
                    "name": "E5",
                    "midi": 76,
                    "time": 60.15547349999952,
                    "velocity": 0.28346456692913385,
                    "duration": 0.07772024999999871
                },
                {
                    "name": "F5",
                    "midi": 77,
                    "time": 60.31091399999952,
                    "velocity": 0.31496062992125984,
                    "duration": 0.07772024999999871
                },
                {
                    "name": "A5",
                    "midi": 81,
                    "time": 60.31091399999952,
                    "velocity": 0.31496062992125984,
                    "duration": 0.07772024999999871
                },
                {
                    "name": "B4",
                    "midi": 71,
                    "time": 60.46635449999952,
                    "velocity": 0.28346456692913385,
                    "duration": 0.07772024999999871
                },
                {
                    "name": "D5",
                    "midi": 74,
                    "time": 60.46635449999952,
                    "velocity": 0.28346456692913385,
                    "duration": 0.07772024999999871
                },
                {
                    "name": "B4",
                    "midi": 71,
                    "time": 60.621794999999516,
                    "velocity": 0.28346456692913385,
                    "duration": 0.07772024999999871
                },
                {
                    "name": "D5",
                    "midi": 74,
                    "time": 60.621794999999516,
                    "velocity": 0.28346456692913385,
                    "duration": 0.07772024999999871
                },
                {
                    "name": "F5",
                    "midi": 77,
                    "time": 60.77723549999951,
                    "velocity": 0.31496062992125984,
                    "duration": 0.07772024999999871
                },
                {
                    "name": "A5",
                    "midi": 81,
                    "time": 60.77723549999951,
                    "velocity": 0.31496062992125984,
                    "duration": 0.07772024999999871
                },
                {
                    "name": "F5",
                    "midi": 77,
                    "time": 60.93267599999951,
                    "velocity": 0.3464566929133858,
                    "duration": 0.4663214999999994
                },
                {
                    "name": "A5",
                    "midi": 81,
                    "time": 60.93267599999951,
                    "velocity": 0.3464566929133858,
                    "duration": 0.4663214999999994
                },
                {
                    "name": "C5",
                    "midi": 72,
                    "time": 61.39899749999951,
                    "velocity": 0.2992125984251969,
                    "duration": 0.07772024999999871
                },
                {
                    "name": "D5",
                    "midi": 74,
                    "time": 61.47671774999951,
                    "velocity": 0.2992125984251969,
                    "duration": 0.07772024999999871
                },
                {
                    "name": "G5",
                    "midi": 79,
                    "time": 61.55443799999951,
                    "velocity": 0.3228346456692913,
                    "duration": 0.07772024999999871
                },
                {
                    "name": "E5",
                    "midi": 76,
                    "time": 61.55443799999951,
                    "velocity": 0.3228346456692913,
                    "duration": 0.07772024999999871
                },
                {
                    "name": "E5",
                    "midi": 76,
                    "time": 61.709878499999505,
                    "velocity": 0.2992125984251969,
                    "duration": 0.07772024999999871
                },
                {
                    "name": "C5",
                    "midi": 72,
                    "time": 61.709878499999505,
                    "velocity": 0.2992125984251969,
                    "duration": 0.07772024999999871
                },
                {
                    "name": "E5",
                    "midi": 76,
                    "time": 61.8653189999995,
                    "velocity": 0.30708661417322836,
                    "duration": 0.07772024999999871
                },
                {
                    "name": "C5",
                    "midi": 72,
                    "time": 61.8653189999995,
                    "velocity": 0.30708661417322836,
                    "duration": 0.07772024999999871
                },
                {
                    "name": "G5",
                    "midi": 79,
                    "time": 62.0207594999995,
                    "velocity": 0.2992125984251969,
                    "duration": 0.07772024999999871
                },
                {
                    "name": "E5",
                    "midi": 76,
                    "time": 62.0207594999995,
                    "velocity": 0.2992125984251969,
                    "duration": 0.07772024999999871
                },
                {
                    "name": "F5",
                    "midi": 77,
                    "time": 62.1761999999995,
                    "velocity": 0.33070866141732286,
                    "duration": 0.07772024999999871
                },
                {
                    "name": "A5",
                    "midi": 81,
                    "time": 62.1761999999995,
                    "velocity": 0.33070866141732286,
                    "duration": 0.07772024999999871
                },
                {
                    "name": "B4",
                    "midi": 71,
                    "time": 62.331640499999494,
                    "velocity": 0.2992125984251969,
                    "duration": 0.07772024999999871
                },
                {
                    "name": "D5",
                    "midi": 74,
                    "time": 62.331640499999494,
                    "velocity": 0.2992125984251969,
                    "duration": 0.07772024999999871
                },
                {
                    "name": "B4",
                    "midi": 71,
                    "time": 62.48708099999949,
                    "velocity": 0.30708661417322836,
                    "duration": 0.07772024999999871
                },
                {
                    "name": "D5",
                    "midi": 74,
                    "time": 62.48708099999949,
                    "velocity": 0.30708661417322836,
                    "duration": 0.07772024999999871
                },
                {
                    "name": "F5",
                    "midi": 77,
                    "time": 62.64252149999949,
                    "velocity": 0.4015748031496063,
                    "duration": 0.07772024999999871
                },
                {
                    "name": "A5",
                    "midi": 81,
                    "time": 62.64252149999949,
                    "velocity": 0.4015748031496063,
                    "duration": 0.07772024999999871
                },
                {
                    "name": "E5",
                    "midi": 76,
                    "time": 62.79796199999949,
                    "velocity": 0.4330708661417323,
                    "duration": 0.07772024999999871
                },
                {
                    "name": "G5",
                    "midi": 79,
                    "time": 62.79796199999949,
                    "velocity": 0.4330708661417323,
                    "duration": 0.07772024999999871
                },
                {
                    "name": "C5",
                    "midi": 72,
                    "time": 62.953402499999484,
                    "velocity": 0.3937007874015748,
                    "duration": 0.07772024999999871
                },
                {
                    "name": "E5",
                    "midi": 76,
                    "time": 62.953402499999484,
                    "velocity": 0.3937007874015748,
                    "duration": 0.07772024999999871
                },
                {
                    "name": "F5",
                    "midi": 77,
                    "time": 63.10884299999948,
                    "velocity": 0.4566929133858268,
                    "duration": 0.07772024999999871
                },
                {
                    "name": "A5",
                    "midi": 81,
                    "time": 63.10884299999948,
                    "velocity": 0.4566929133858268,
                    "duration": 0.07772024999999871
                },
                {
                    "name": "B4",
                    "midi": 71,
                    "time": 63.26428349999948,
                    "velocity": 0.4094488188976378,
                    "duration": 0.07772024999999871
                },
                {
                    "name": "D5",
                    "midi": 74,
                    "time": 63.26428349999948,
                    "velocity": 0.4094488188976378,
                    "duration": 0.07772024999999871
                },
                {
                    "name": "E5",
                    "midi": 76,
                    "time": 63.419723999999476,
                    "velocity": 0.47244094488188976,
                    "duration": 0.07772024999999871
                },
                {
                    "name": "G5",
                    "midi": 79,
                    "time": 63.419723999999476,
                    "velocity": 0.47244094488188976,
                    "duration": 0.07772024999999871
                },
                {
                    "name": "C5",
                    "midi": 72,
                    "time": 63.575164499999474,
                    "velocity": 0.4251968503937008,
                    "duration": 0.07772024999999871
                },
                {
                    "name": "E5",
                    "midi": 76,
                    "time": 63.575164499999474,
                    "velocity": 0.4251968503937008,
                    "duration": 0.07772024999999871
                },
                {
                    "name": "F5",
                    "midi": 77,
                    "time": 63.73060499999947,
                    "velocity": 0.49606299212598426,
                    "duration": 0.07772024999999871
                },
                {
                    "name": "A5",
                    "midi": 81,
                    "time": 63.73060499999947,
                    "velocity": 0.49606299212598426,
                    "duration": 0.07772024999999871
                },
                {
                    "name": "B4",
                    "midi": 71,
                    "time": 63.88604549999947,
                    "velocity": 0.4409448818897638,
                    "duration": 0.07772024999999871
                },
                {
                    "name": "D5",
                    "midi": 74,
                    "time": 63.88604549999947,
                    "velocity": 0.4409448818897638,
                    "duration": 0.07772024999999871
                },
                {
                    "name": "E5",
                    "midi": 76,
                    "time": 64.04148599999947,
                    "velocity": 0.5039370078740157,
                    "duration": 0.07772024999999871
                },
                {
                    "name": "G5",
                    "midi": 79,
                    "time": 64.04148599999947,
                    "velocity": 0.5039370078740157,
                    "duration": 0.07772024999999871
                },
                {
                    "name": "C5",
                    "midi": 72,
                    "time": 64.19692649999946,
                    "velocity": 0.4645669291338583,
                    "duration": 0.07772024999999871
                },
                {
                    "name": "E5",
                    "midi": 76,
                    "time": 64.19692649999946,
                    "velocity": 0.4645669291338583,
                    "duration": 0.07772024999999871
                },
                {
                    "name": "C#6",
                    "midi": 85,
                    "time": 64.35236699999946,
                    "velocity": 0.6141732283464567,
                    "duration": 0.07772024999999871
                },
                {
                    "name": "A5",
                    "midi": 81,
                    "time": 64.35236699999946,
                    "velocity": 0.6141732283464567,
                    "duration": 0.07772024999999871
                },
                {
                    "name": "D#5",
                    "midi": 75,
                    "time": 64.50780749999946,
                    "velocity": 0.5669291338582677,
                    "duration": 0.07772024999999871
                },
                {
                    "name": "F#5",
                    "midi": 78,
                    "time": 64.50780749999946,
                    "velocity": 0.5669291338582677,
                    "duration": 0.07772024999999871
                },
                {
                    "name": "B5",
                    "midi": 83,
                    "time": 64.66324799999946,
                    "velocity": 0.6220472440944882,
                    "duration": 0.07772024999999871
                },
                {
                    "name": "G#5",
                    "midi": 80,
                    "time": 64.66324799999946,
                    "velocity": 0.6220472440944882,
                    "duration": 0.07772024999999871
                },
                {
                    "name": "E5",
                    "midi": 76,
                    "time": 64.81868849999945,
                    "velocity": 0.5748031496062992,
                    "duration": 0.07772024999999871
                },
                {
                    "name": "G#5",
                    "midi": 80,
                    "time": 64.81868849999945,
                    "velocity": 0.5748031496062992,
                    "duration": 0.07772024999999871
                },
                {
                    "name": "C#6",
                    "midi": 85,
                    "time": 64.97412899999945,
                    "velocity": 0.6220472440944882,
                    "duration": 0.07772024999999871
                },
                {
                    "name": "A5",
                    "midi": 81,
                    "time": 64.97412899999945,
                    "velocity": 0.6220472440944882,
                    "duration": 0.07772024999999871
                },
                {
                    "name": "D#5",
                    "midi": 75,
                    "time": 65.12956949999945,
                    "velocity": 0.5669291338582677,
                    "duration": 0.07772024999999871
                },
                {
                    "name": "F#5",
                    "midi": 78,
                    "time": 65.12956949999945,
                    "velocity": 0.5669291338582677,
                    "duration": 0.07772024999999871
                },
                {
                    "name": "B5",
                    "midi": 83,
                    "time": 65.28500999999945,
                    "velocity": 0.6220472440944882,
                    "duration": 0.07772024999999871
                },
                {
                    "name": "G#5",
                    "midi": 80,
                    "time": 65.28500999999945,
                    "velocity": 0.6220472440944882,
                    "duration": 0.07772024999999871
                },
                {
                    "name": "E5",
                    "midi": 76,
                    "time": 65.44045049999944,
                    "velocity": 0.5984251968503937,
                    "duration": 0.07772024999999871
                },
                {
                    "name": "G#5",
                    "midi": 80,
                    "time": 65.44045049999944,
                    "velocity": 0.5984251968503937,
                    "duration": 0.07772024999999871
                },
                {
                    "name": "G#5",
                    "midi": 80,
                    "time": 65.59589099999944,
                    "velocity": 0.6456692913385826,
                    "duration": 0.07772024999999871
                },
                {
                    "name": "B5",
                    "midi": 83,
                    "time": 65.59589099999944,
                    "velocity": 0.6456692913385826,
                    "duration": 0.07772024999999871
                },
                {
                    "name": "E5",
                    "midi": 76,
                    "time": 65.75133149999944,
                    "velocity": 0.6220472440944882,
                    "duration": 0.07772024999999871
                },
                {
                    "name": "G#5",
                    "midi": 80,
                    "time": 65.75133149999944,
                    "velocity": 0.6220472440944882,
                    "duration": 0.07772024999999871
                },
                {
                    "name": "B5",
                    "midi": 83,
                    "time": 65.90677199999944,
                    "velocity": 0.6850393700787402,
                    "duration": 0.07772024999999871
                },
                {
                    "name": "G#5",
                    "midi": 80,
                    "time": 65.90677199999944,
                    "velocity": 0.6850393700787402,
                    "duration": 0.07772024999999871
                },
                {
                    "name": "E5",
                    "midi": 76,
                    "time": 66.06221249999943,
                    "velocity": 0.6535433070866141,
                    "duration": 0.07772024999999871
                },
                {
                    "name": "G#5",
                    "midi": 80,
                    "time": 66.06221249999943,
                    "velocity": 0.6535433070866141,
                    "duration": 0.07772024999999871
                },
                {
                    "name": "G#5",
                    "midi": 80,
                    "time": 66.21765299999943,
                    "velocity": 0.7086614173228346,
                    "duration": 0.07772024999999871
                },
                {
                    "name": "B5",
                    "midi": 83,
                    "time": 66.21765299999943,
                    "velocity": 0.7086614173228346,
                    "duration": 0.07772024999999871
                },
                {
                    "name": "E5",
                    "midi": 76,
                    "time": 66.37309349999943,
                    "velocity": 0.6850393700787402,
                    "duration": 0.07772024999999871
                },
                {
                    "name": "G#5",
                    "midi": 80,
                    "time": 66.37309349999943,
                    "velocity": 0.6850393700787402,
                    "duration": 0.07772024999999871
                },
                {
                    "name": "A#3",
                    "midi": 58,
                    "time": 66.52853399999942,
                    "velocity": 0.6220472440944882,
                    "duration": 0.6217620000000039
                },
                {
                    "name": "B5",
                    "midi": 83,
                    "time": 67.15029599999943,
                    "velocity": 0.6850393700787402,
                    "duration": 0.07772024999999871
                },
                {
                    "name": "G#5",
                    "midi": 80,
                    "time": 67.15029599999943,
                    "velocity": 0.6850393700787402,
                    "duration": 0.07772024999999871
                },
                {
                    "name": "E5",
                    "midi": 76,
                    "time": 67.30573649999943,
                    "velocity": 0.6535433070866141,
                    "duration": 0.07772024999999871
                },
                {
                    "name": "G#5",
                    "midi": 80,
                    "time": 67.30573649999943,
                    "velocity": 0.6535433070866141,
                    "duration": 0.07772024999999871
                },
                {
                    "name": "G#5",
                    "midi": 80,
                    "time": 67.46117699999942,
                    "velocity": 0.7086614173228346,
                    "duration": 0.07772024999999871
                },
                {
                    "name": "B5",
                    "midi": 83,
                    "time": 67.46117699999942,
                    "velocity": 0.7086614173228346,
                    "duration": 0.07772024999999871
                },
                {
                    "name": "E5",
                    "midi": 76,
                    "time": 67.61661749999942,
                    "velocity": 0.6850393700787402,
                    "duration": 0.07772024999999871
                },
                {
                    "name": "G#5",
                    "midi": 80,
                    "time": 67.61661749999942,
                    "velocity": 0.6850393700787402,
                    "duration": 0.07772024999999871
                },
                {
                    "name": "A#3",
                    "midi": 58,
                    "time": 67.77205799999942,
                    "velocity": 0.5984251968503937,
                    "duration": 0.6217620000000039
                },
                {
                    "name": "B5",
                    "midi": 83,
                    "time": 68.39381999999942,
                    "velocity": 0.6692913385826772,
                    "duration": 0.07772024999999871
                },
                {
                    "name": "G#5",
                    "midi": 80,
                    "time": 68.39381999999942,
                    "velocity": 0.6692913385826772,
                    "duration": 0.07772024999999871
                },
                {
                    "name": "E5",
                    "midi": 76,
                    "time": 68.54926049999942,
                    "velocity": 0.6220472440944882,
                    "duration": 0.07772024999999871
                },
                {
                    "name": "G#5",
                    "midi": 80,
                    "time": 68.54926049999942,
                    "velocity": 0.6220472440944882,
                    "duration": 0.07772024999999871
                },
                {
                    "name": "G#5",
                    "midi": 80,
                    "time": 68.70470099999942,
                    "velocity": 0.6692913385826772,
                    "duration": 0.07772024999999871
                },
                {
                    "name": "B5",
                    "midi": 83,
                    "time": 68.70470099999942,
                    "velocity": 0.6692913385826772,
                    "duration": 0.07772024999999871
                },
                {
                    "name": "E5",
                    "midi": 76,
                    "time": 68.86014149999941,
                    "velocity": 0.6377952755905512,
                    "duration": 0.07772024999999871
                },
                {
                    "name": "G#5",
                    "midi": 80,
                    "time": 68.86014149999941,
                    "velocity": 0.6377952755905512,
                    "duration": 0.07772024999999871
                },
                {
                    "name": "A#3",
                    "midi": 58,
                    "time": 69.01558199999941,
                    "velocity": 0.5669291338582677,
                    "duration": 5.284976999999998
                },
                {
                    "name": "D#4",
                    "midi": 63,
                    "time": 74.45599949999941,
                    "velocity": 0.28346456692913385,
                    "duration": 0.07772024999999871
                },
                {
                    "name": "F4",
                    "midi": 65,
                    "time": 74.5337197499994,
                    "velocity": 0.28346456692913385,
                    "duration": 0.07772024999999871
                },
                {
                    "name": "A#4",
                    "midi": 70,
                    "time": 74.6114399999994,
                    "velocity": 0.30708661417322836,
                    "duration": 0.07772024999999871
                },
                {
                    "name": "F#4",
                    "midi": 66,
                    "time": 74.6114399999994,
                    "velocity": 0.30708661417322836,
                    "duration": 0.07772024999999871
                },
                {
                    "name": "F4",
                    "midi": 65,
                    "time": 74.6891602499994,
                    "velocity": 0.28346456692913385,
                    "duration": 0.07772024999999871
                },
                {
                    "name": "D#4",
                    "midi": 63,
                    "time": 74.7668804999994,
                    "velocity": 0.28346456692913385,
                    "duration": 0.07772024999999871
                },
                {
                    "name": "F4",
                    "midi": 65,
                    "time": 74.8446007499994,
                    "velocity": 0.28346456692913385,
                    "duration": 0.07772024999999871
                },
                {
                    "name": "F#4",
                    "midi": 66,
                    "time": 74.9223209999994,
                    "velocity": 0.29133858267716534,
                    "duration": 0.07772024999999871
                },
                {
                    "name": "A#4",
                    "midi": 70,
                    "time": 74.9223209999994,
                    "velocity": 0.29133858267716534,
                    "duration": 0.07772024999999871
                },
                {
                    "name": "F4",
                    "midi": 65,
                    "time": 75.0000412499994,
                    "velocity": 0.28346456692913385,
                    "duration": 0.07772024999999871
                },
                {
                    "name": "D#4",
                    "midi": 63,
                    "time": 75.0777614999994,
                    "velocity": 0.28346456692913385,
                    "duration": 0.07772024999999871
                },
                {
                    "name": "F4",
                    "midi": 65,
                    "time": 75.1554817499994,
                    "velocity": 0.28346456692913385,
                    "duration": 0.07772024999999871
                },
                {
                    "name": "A#4",
                    "midi": 70,
                    "time": 75.2332019999994,
                    "velocity": 0.30708661417322836,
                    "duration": 0.07772024999999871
                },
                {
                    "name": "F#4",
                    "midi": 66,
                    "time": 75.2332019999994,
                    "velocity": 0.30708661417322836,
                    "duration": 0.07772024999999871
                },
                {
                    "name": "F#4",
                    "midi": 66,
                    "time": 75.38864249999939,
                    "velocity": 0.28346456692913385,
                    "duration": 0.07772024999999871
                },
                {
                    "name": "D#4",
                    "midi": 63,
                    "time": 75.38864249999939,
                    "velocity": 0.28346456692913385,
                    "duration": 0.07772024999999871
                },
                {
                    "name": "F#4",
                    "midi": 66,
                    "time": 75.54408299999939,
                    "velocity": 0.28346456692913385,
                    "duration": 0.07772024999999871
                },
                {
                    "name": "D#4",
                    "midi": 63,
                    "time": 75.54408299999939,
                    "velocity": 0.28346456692913385,
                    "duration": 0.07772024999999871
                },
                {
                    "name": "A#4",
                    "midi": 70,
                    "time": 75.69952349999939,
                    "velocity": 0.28346456692913385,
                    "duration": 0.07772024999999871
                },
                {
                    "name": "F#4",
                    "midi": 66,
                    "time": 75.69952349999939,
                    "velocity": 0.28346456692913385,
                    "duration": 0.07772024999999871
                },
                {
                    "name": "F4",
                    "midi": 65,
                    "time": 75.85496399999938,
                    "velocity": 0.31496062992125984,
                    "duration": 0.07772024999999871
                },
                {
                    "name": "A4",
                    "midi": 69,
                    "time": 75.85496399999938,
                    "velocity": 0.31496062992125984,
                    "duration": 0.07772024999999871
                },
                {
                    "name": "C4",
                    "midi": 60,
                    "time": 76.01040449999938,
                    "velocity": 0.28346456692913385,
                    "duration": 0.07772024999999871
                },
                {
                    "name": "F4",
                    "midi": 65,
                    "time": 76.01040449999938,
                    "velocity": 0.28346456692913385,
                    "duration": 0.07772024999999871
                },
                {
                    "name": "C4",
                    "midi": 60,
                    "time": 76.16584499999938,
                    "velocity": 0.28346456692913385,
                    "duration": 0.07772024999999871
                },
                {
                    "name": "F4",
                    "midi": 65,
                    "time": 76.16584499999938,
                    "velocity": 0.28346456692913385,
                    "duration": 0.07772024999999871
                },
                {
                    "name": "F4",
                    "midi": 65,
                    "time": 76.32128549999938,
                    "velocity": 0.28346456692913385,
                    "duration": 0.07772024999999871
                },
                {
                    "name": "A4",
                    "midi": 69,
                    "time": 76.32128549999938,
                    "velocity": 0.28346456692913385,
                    "duration": 0.07772024999999871
                },
                {
                    "name": "F4",
                    "midi": 65,
                    "time": 76.47672599999937,
                    "velocity": 0.33858267716535434,
                    "duration": 0.4663215000000065
                },
                {
                    "name": "A4",
                    "midi": 69,
                    "time": 76.47672599999937,
                    "velocity": 0.33858267716535434,
                    "duration": 0.4663215000000065
                },
                {
                    "name": "G#4",
                    "midi": 68,
                    "time": 76.94304749999938,
                    "velocity": 0.28346456692913385,
                    "duration": 0.07772024999999871
                },
                {
                    "name": "A#4",
                    "midi": 70,
                    "time": 77.02076774999938,
                    "velocity": 0.30708661417322836,
                    "duration": 0.07772024999999871
                },
                {
                    "name": "B4",
                    "midi": 71,
                    "time": 77.09848799999938,
                    "velocity": 0.33858267716535434,
                    "duration": 0.07772024999999871
                },
                {
                    "name": "D#5",
                    "midi": 75,
                    "time": 77.09848799999938,
                    "velocity": 0.33858267716535434,
                    "duration": 0.07772024999999871
                },
                {
                    "name": "A#4",
                    "midi": 70,
                    "time": 77.17620824999938,
                    "velocity": 0.31496062992125984,
                    "duration": 0.07772024999999871
                },
                {
                    "name": "G#4",
                    "midi": 68,
                    "time": 77.25392849999938,
                    "velocity": 0.31496062992125984,
                    "duration": 0.07772024999999871
                },
                {
                    "name": "A#4",
                    "midi": 70,
                    "time": 77.33164874999937,
                    "velocity": 0.31496062992125984,
                    "duration": 0.07772024999999871
                },
                {
                    "name": "B4",
                    "midi": 71,
                    "time": 77.40936899999937,
                    "velocity": 0.33858267716535434,
                    "duration": 0.07772024999999871
                },
                {
                    "name": "D#5",
                    "midi": 75,
                    "time": 77.40936899999937,
                    "velocity": 0.33858267716535434,
                    "duration": 0.07772024999999871
                },
                {
                    "name": "A#4",
                    "midi": 70,
                    "time": 77.48708924999937,
                    "velocity": 0.31496062992125984,
                    "duration": 0.07772024999999871
                },
                {
                    "name": "G#4",
                    "midi": 68,
                    "time": 77.56480949999937,
                    "velocity": 0.31496062992125984,
                    "duration": 0.07772024999999871
                },
                {
                    "name": "A#4",
                    "midi": 70,
                    "time": 77.64252974999937,
                    "velocity": 0.31496062992125984,
                    "duration": 0.07772024999999871
                },
                {
                    "name": "B4",
                    "midi": 71,
                    "time": 77.72024999999937,
                    "velocity": 0.33858267716535434,
                    "duration": 0.07772024999999871
                },
                {
                    "name": "D#5",
                    "midi": 75,
                    "time": 77.72024999999937,
                    "velocity": 0.33858267716535434,
                    "duration": 0.07772024999999871
                },
                {
                    "name": "G#4",
                    "midi": 68,
                    "time": 77.87569049999937,
                    "velocity": 0.31496062992125984,
                    "duration": 0.07772024999999871
                },
                {
                    "name": "B4",
                    "midi": 71,
                    "time": 77.87569049999937,
                    "velocity": 0.31496062992125984,
                    "duration": 0.07772024999999871
                },
                {
                    "name": "B4",
                    "midi": 71,
                    "time": 78.03113099999936,
                    "velocity": 0.31496062992125984,
                    "duration": 0.07772024999999871
                },
                {
                    "name": "G#4",
                    "midi": 68,
                    "time": 78.03113099999936,
                    "velocity": 0.31496062992125984,
                    "duration": 0.07772024999999871
                },
                {
                    "name": "B4",
                    "midi": 71,
                    "time": 78.18657149999936,
                    "velocity": 0.31496062992125984,
                    "duration": 0.07772024999999871
                },
                {
                    "name": "D#5",
                    "midi": 75,
                    "time": 78.18657149999936,
                    "velocity": 0.31496062992125984,
                    "duration": 0.07772024999999871
                },
                {
                    "name": "A#4",
                    "midi": 70,
                    "time": 78.34201199999936,
                    "velocity": 0.33858267716535434,
                    "duration": 0.07772024999999871
                },
                {
                    "name": "D5",
                    "midi": 74,
                    "time": 78.34201199999936,
                    "velocity": 0.33858267716535434,
                    "duration": 0.07772024999999871
                },
                {
                    "name": "F4",
                    "midi": 65,
                    "time": 78.49745249999935,
                    "velocity": 0.31496062992125984,
                    "duration": 0.07772024999999871
                },
                {
                    "name": "A#4",
                    "midi": 70,
                    "time": 78.49745249999935,
                    "velocity": 0.31496062992125984,
                    "duration": 0.07772024999999871
                },
                {
                    "name": "F4",
                    "midi": 65,
                    "time": 78.65289299999935,
                    "velocity": 0.31496062992125984,
                    "duration": 0.07772024999999871
                },
                {
                    "name": "A#4",
                    "midi": 70,
                    "time": 78.65289299999935,
                    "velocity": 0.31496062992125984,
                    "duration": 0.07772024999999871
                },
                {
                    "name": "A#4",
                    "midi": 70,
                    "time": 78.80833349999935,
                    "velocity": 0.31496062992125984,
                    "duration": 0.07772024999999871
                },
                {
                    "name": "D5",
                    "midi": 74,
                    "time": 78.80833349999935,
                    "velocity": 0.31496062992125984,
                    "duration": 0.07772024999999871
                },
                {
                    "name": "A#4",
                    "midi": 70,
                    "time": 78.96377399999935,
                    "velocity": 0.36220472440944884,
                    "duration": 0.23316074999999614
                },
                {
                    "name": "D5",
                    "midi": 74,
                    "time": 78.96377399999935,
                    "velocity": 0.36220472440944884,
                    "duration": 0.23316074999999614
                },
                {
                    "name": "B5",
                    "midi": 83,
                    "time": 79.43009549999934,
                    "velocity": 0.6141732283464567,
                    "duration": 0.07772024999999871
                },
                {
                    "name": "C#6",
                    "midi": 85,
                    "time": 79.50781574999934,
                    "velocity": 0.6141732283464567,
                    "duration": 0.07772024999999871
                },
                {
                    "name": "D#6",
                    "midi": 87,
                    "time": 79.58553599999934,
                    "velocity": 0.7086614173228346,
                    "duration": 0.07772024999999871
                },
                {
                    "name": "F#6",
                    "midi": 90,
                    "time": 79.58553599999934,
                    "velocity": 0.7086614173228346,
                    "duration": 0.07772024999999871
                },
                {
                    "name": "C#6",
                    "midi": 85,
                    "time": 79.66325624999934,
                    "velocity": 0.6062992125984252,
                    "duration": 0.07772024999999871
                },
                {
                    "name": "B5",
                    "midi": 83,
                    "time": 79.74097649999933,
                    "velocity": 0.6062992125984252,
                    "duration": 0.07772024999999871
                },
                {
                    "name": "C#6",
                    "midi": 85,
                    "time": 79.81869674999933,
                    "velocity": 0.6062992125984252,
                    "duration": 0.07772024999999871
                },
                {
                    "name": "F#6",
                    "midi": 90,
                    "time": 79.89641699999933,
                    "velocity": 0.6377952755905512,
                    "duration": 0.14248712500000238
                },
                {
                    "name": "D#6",
                    "midi": 87,
                    "time": 79.89641699999933,
                    "velocity": 0.6377952755905512,
                    "duration": 0.14248712500000238
                },
                {
                    "name": "F#5",
                    "midi": 78,
                    "time": 80.05185749999933,
                    "velocity": 0.6062992125984252,
                    "duration": 0.07772024999999871
                },
                {
                    "name": "G#5",
                    "midi": 80,
                    "time": 80.12957774999933,
                    "velocity": 0.6062992125984252,
                    "duration": 0.07772024999999871
                },
                {
                    "name": "C#6",
                    "midi": 85,
                    "time": 80.20729799999933,
                    "velocity": 0.7086614173228346,
                    "duration": 0.07772024999999871
                },
                {
                    "name": "A#5",
                    "midi": 82,
                    "time": 80.20729799999933,
                    "velocity": 0.7086614173228346,
                    "duration": 0.07772024999999871
                },
                {
                    "name": "G#5",
                    "midi": 80,
                    "time": 80.28501824999933,
                    "velocity": 0.6062992125984252,
                    "duration": 0.07772024999999871
                },
                {
                    "name": "F#5",
                    "midi": 78,
                    "time": 80.36273849999932,
                    "velocity": 0.5826771653543307,
                    "duration": 0.07772024999999871
                },
                {
                    "name": "G#5",
                    "midi": 80,
                    "time": 80.44045874999932,
                    "velocity": 0.5826771653543307,
                    "duration": 0.07772024999999871
                },
                {
                    "name": "C#6",
                    "midi": 85,
                    "time": 80.51817899999932,
                    "velocity": 0.6535433070866141,
                    "duration": 0.14248712500000238
                },
                {
                    "name": "A#5",
                    "midi": 82,
                    "time": 80.51817899999932,
                    "velocity": 0.6535433070866141,
                    "duration": 0.14248712500000238
                },
                {
                    "name": "E5",
                    "midi": 76,
                    "time": 80.67361949999932,
                    "velocity": 0.6062992125984252,
                    "duration": 0.07772024999999871
                },
                {
                    "name": "F#5",
                    "midi": 78,
                    "time": 80.75133974999932,
                    "velocity": 0.6062992125984252,
                    "duration": 0.07772024999999871
                },
                {
                    "name": "G#5",
                    "midi": 80,
                    "time": 80.82905999999932,
                    "velocity": 0.7086614173228346,
                    "duration": 0.07772024999999871
                },
                {
                    "name": "B5",
                    "midi": 83,
                    "time": 80.82905999999932,
                    "velocity": 0.7086614173228346,
                    "duration": 0.07772024999999871
                },
                {
                    "name": "F#5",
                    "midi": 78,
                    "time": 80.90678024999931,
                    "velocity": 0.5826771653543307,
                    "duration": 0.07772024999999871
                },
                {
                    "name": "E5",
                    "midi": 76,
                    "time": 80.98450049999931,
                    "velocity": 0.5826771653543307,
                    "duration": 0.07772024999999871
                },
                {
                    "name": "F#5",
                    "midi": 78,
                    "time": 81.06222074999931,
                    "velocity": 0.5826771653543307,
                    "duration": 0.07772024999999871
                },
                {
                    "name": "B5",
                    "midi": 83,
                    "time": 81.13994099999931,
                    "velocity": 0.6535433070866141,
                    "duration": 0.14248712500000238
                },
                {
                    "name": "G#5",
                    "midi": 80,
                    "time": 81.13994099999931,
                    "velocity": 0.6535433070866141,
                    "duration": 0.14248712500000238
                },
                {
                    "name": "B4",
                    "midi": 71,
                    "time": 81.29538149999931,
                    "velocity": 0.6141732283464567,
                    "duration": 0.07772024999999871
                },
                {
                    "name": "C#5",
                    "midi": 73,
                    "time": 81.37310174999931,
                    "velocity": 0.6141732283464567,
                    "duration": 0.07772024999999871
                },
                {
                    "name": "F#5",
                    "midi": 78,
                    "time": 81.4508219999993,
                    "velocity": 0.7165354330708661,
                    "duration": 0.07772024999999871
                },
                {
                    "name": "D#5",
                    "midi": 75,
                    "time": 81.4508219999993,
                    "velocity": 0.7165354330708661,
                    "duration": 0.07772024999999871
                },
                {
                    "name": "C#5",
                    "midi": 73,
                    "time": 81.5285422499993,
                    "velocity": 0.5826771653543307,
                    "duration": 0.07772024999999871
                },
                {
                    "name": "B4",
                    "midi": 71,
                    "time": 81.6062624999993,
                    "velocity": 0.5826771653543307,
                    "duration": 0.07772024999999871
                },
                {
                    "name": "C#5",
                    "midi": 73,
                    "time": 81.6839827499993,
                    "velocity": 0.5826771653543307,
                    "duration": 0.07772024999999871
                },
                {
                    "name": "F#5",
                    "midi": 78,
                    "time": 81.7617029999993,
                    "velocity": 0.6377952755905512,
                    "duration": 0.14248712500000238
                },
                {
                    "name": "D#5",
                    "midi": 75,
                    "time": 81.7617029999993,
                    "velocity": 0.6377952755905512,
                    "duration": 0.14248712500000238
                },
                {
                    "name": "A#3",
                    "midi": 58,
                    "time": 81.9171434999993,
                    "velocity": 0.5669291338582677,
                    "duration": 0.07772024999999871
                },
                {
                    "name": "B3",
                    "midi": 59,
                    "time": 81.9948637499993,
                    "velocity": 0.5669291338582677,
                    "duration": 0.07772024999999871
                },
                {
                    "name": "C#4",
                    "midi": 61,
                    "time": 82.0725839999993,
                    "velocity": 0.6377952755905512,
                    "duration": 0.07772024999999871
                },
                {
                    "name": "B3",
                    "midi": 59,
                    "time": 82.1503042499993,
                    "velocity": 0.5511811023622047,
                    "duration": 0.07772024999999871
                },
                {
                    "name": "A#3",
                    "midi": 58,
                    "time": 82.2280244999993,
                    "velocity": 0.5511811023622047,
                    "duration": 0.07772024999999871
                },
                {
                    "name": "B3",
                    "midi": 59,
                    "time": 82.38346499999929,
                    "velocity": 0.6062992125984252,
                    "duration": 0.07772024999999871
                },
                {
                    "name": "A#3",
                    "midi": 58,
                    "time": 82.46118524999929,
                    "velocity": 0.5118110236220472,
                    "duration": 0.07772024999999871
                },
                {
                    "name": "G#3",
                    "midi": 56,
                    "time": 82.53890549999929,
                    "velocity": 0.5118110236220472,
                    "duration": 0.07772024999999871
                },
                {
                    "name": "A#3",
                    "midi": 58,
                    "time": 82.69434599999929,
                    "velocity": 0.5669291338582677,
                    "duration": 0.07772024999999871
                },
                {
                    "name": "G#3",
                    "midi": 56,
                    "time": 82.77206624999928,
                    "velocity": 0.5039370078740157,
                    "duration": 0.07772024999999871
                },
                {
                    "name": "F#3",
                    "midi": 54,
                    "time": 82.84978649999928,
                    "velocity": 0.5039370078740157,
                    "duration": 0.07772024999999871
                },
                {
                    "name": "G#3",
                    "midi": 56,
                    "time": 83.00522699999928,
                    "velocity": 0.5433070866141733,
                    "duration": 0.07772024999999871
                },
                {
                    "name": "F#3",
                    "midi": 54,
                    "time": 83.08294724999928,
                    "velocity": 0.49606299212598426,
                    "duration": 0.07772024999999871
                },
                {
                    "name": "F3",
                    "midi": 53,
                    "time": 83.16066749999928,
                    "velocity": 0.49606299212598426,
                    "duration": 0.07772024999999871
                },
                {
                    "name": "G#3",
                    "midi": 56,
                    "time": 83.93786999999928,
                    "velocity": 0.3543307086614173,
                    "duration": 0.07772024999999871
                },
                {
                    "name": "F#3",
                    "midi": 54,
                    "time": 84.01559024999928,
                    "velocity": 0.33070866141732286,
                    "duration": 0.07772024999999871
                },
                {
                    "name": "E3",
                    "midi": 52,
                    "time": 84.09331049999928,
                    "velocity": 0.33070866141732286,
                    "duration": 0.07772024999999871
                },
                {
                    "name": "D#3",
                    "midi": 51,
                    "time": 84.55963199999927,
                    "velocity": 0.6456692913385826,
                    "duration": 0.07772024999999871
                },
                {
                    "name": "A#3",
                    "midi": 58,
                    "time": 84.63735224999927,
                    "velocity": 0.5984251968503937,
                    "duration": 0.07772024999999871
                },
                {
                    "name": "D#4",
                    "midi": 63,
                    "time": 84.71507249999927,
                    "velocity": 0.5984251968503937,
                    "duration": 0.05829018750000614
                },
                {
                    "name": "D#4",
                    "midi": 63,
                    "time": 84.79279274999928,
                    "velocity": 0.5984251968503937,
                    "duration": 0.07772024999999871
                },
                {
                    "name": "A#4",
                    "midi": 70,
                    "time": 84.87051299999928,
                    "velocity": 0.6299212598425197,
                    "duration": 0.07772024999999871
                },
                {
                    "name": "D#5",
                    "midi": 75,
                    "time": 84.94823324999928,
                    "velocity": 0.6692913385826772,
                    "duration": 0.05829018750000614
                },
                {
                    "name": "D#5",
                    "midi": 75,
                    "time": 85.02595349999929,
                    "velocity": 0.7007874015748031,
                    "duration": 0.07772024999999871
                },
                {
                    "name": "A#5",
                    "midi": 82,
                    "time": 85.10367374999929,
                    "velocity": 0.7244094488188977,
                    "duration": 0.05829018750000614
                },
                {
                    "name": "D#5",
                    "midi": 75,
                    "time": 85.1813939999993,
                    "velocity": 0.7480314960629921,
                    "duration": 0.15544049999999743
                },
                {
                    "name": "D#6",
                    "midi": 87,
                    "time": 85.1813939999993,
                    "velocity": 0.7480314960629921,
                    "duration": 0.15544049999999743
                },
                {
                    "name": "A#5",
                    "midi": 82,
                    "time": 85.1813939999993,
                    "velocity": 0.7480314960629921,
                    "duration": 0.15544049999999743
                }
            ],
            "controlChanges": {
                "7": [
                    {
                        "number": 7,
                        "time": 0,
                        "value": 0.7874015748031497
                    }
                ],
                "10": [
                    {
                        "number": 10,
                        "time": 0,
                        "value": 0.5039370078740157
                    }
                ],
                "91": [
                    {
                        "number": 91,
                        "time": 0,
                        "value": 1
                    },
                    {
                        "number": 91,
                        "time": 0,
                        "value": 1
                    }
                ]
            },
            "id": 1,
            "name": "Piano right",
            "instrumentNumber": 0,
            "instrument": "acoustic grand piano",
            "instrumentFamily": "piano",
            "channelNumber": 0,
            "isPercussion": false
        },
        {
            "startTime": 0.00064766875,
            "duration": 85.33683449999936,
            "length": 548,
            "notes": [
                {
                    "name": "D#2",
                    "midi": 39,
                    "time": 0.00064766875,
                    "velocity": 0.28346456692913385,
                    "duration": 0.07772025
                },
                {
                    "name": "A#2",
                    "midi": 46,
                    "time": 0.1554405,
                    "velocity": 0.25196850393700787,
                    "duration": 0.07772025000000002
                },
                {
                    "name": "D#2",
                    "midi": 39,
                    "time": 0.310881,
                    "velocity": 0.25196850393700787,
                    "duration": 0.07772024999999999
                },
                {
                    "name": "A#1",
                    "midi": 34,
                    "time": 0.4663215,
                    "velocity": 0.25196850393700787,
                    "duration": 0.07772024999999999
                },
                {
                    "name": "D#2",
                    "midi": 39,
                    "time": 0.621762,
                    "velocity": 0.28346456692913385,
                    "duration": 0.07772025000000005
                },
                {
                    "name": "A#2",
                    "midi": 46,
                    "time": 0.7772025000000001,
                    "velocity": 0.25196850393700787,
                    "duration": 0.07772025000000005
                },
                {
                    "name": "D#2",
                    "midi": 39,
                    "time": 0.9326430000000002,
                    "velocity": 0.25196850393700787,
                    "duration": 0.07772024999999994
                },
                {
                    "name": "A#1",
                    "midi": 34,
                    "time": 1.0880835000000002,
                    "velocity": 0.25196850393700787,
                    "duration": 0.07772025000000005
                },
                {
                    "name": "D#2",
                    "midi": 39,
                    "time": 1.2435240000000003,
                    "velocity": 0.28346456692913385,
                    "duration": 0.07772025000000005
                },
                {
                    "name": "A#2",
                    "midi": 46,
                    "time": 1.3989645000000004,
                    "velocity": 0.25984251968503935,
                    "duration": 0.07772025000000005
                },
                {
                    "name": "D#2",
                    "midi": 39,
                    "time": 1.5544050000000005,
                    "velocity": 0.25984251968503935,
                    "duration": 0.07772025000000005
                },
                {
                    "name": "A#1",
                    "midi": 34,
                    "time": 1.7098455000000006,
                    "velocity": 0.25984251968503935,
                    "duration": 0.07772025000000005
                },
                {
                    "name": "D#2",
                    "midi": 39,
                    "time": 1.8652860000000007,
                    "velocity": 0.28346456692913385,
                    "duration": 0.07772025000000005
                },
                {
                    "name": "A#2",
                    "midi": 46,
                    "time": 2.0207265000000008,
                    "velocity": 0.25984251968503935,
                    "duration": 0.07772025000000005
                },
                {
                    "name": "D#2",
                    "midi": 39,
                    "time": 2.176167000000001,
                    "velocity": 0.25984251968503935,
                    "duration": 0.07772025000000005
                },
                {
                    "name": "A#1",
                    "midi": 34,
                    "time": 2.331607500000001,
                    "velocity": 0.25984251968503935,
                    "duration": 0.07772025000000005
                },
                {
                    "name": "D#2",
                    "midi": 39,
                    "time": 2.487048000000001,
                    "velocity": 0.28346456692913385,
                    "duration": 0.07772025000000005
                },
                {
                    "name": "A#2",
                    "midi": 46,
                    "time": 2.642488500000001,
                    "velocity": 0.25984251968503935,
                    "duration": 0.07772025000000005
                },
                {
                    "name": "D#2",
                    "midi": 39,
                    "time": 2.797929000000001,
                    "velocity": 0.25984251968503935,
                    "duration": 0.07772025000000005
                },
                {
                    "name": "A#1",
                    "midi": 34,
                    "time": 2.9533695000000013,
                    "velocity": 0.25984251968503935,
                    "duration": 0.07772025000000005
                },
                {
                    "name": "D#2",
                    "midi": 39,
                    "time": 3.1088100000000014,
                    "velocity": 0.28346456692913385,
                    "duration": 0.07772025000000005
                },
                {
                    "name": "A#2",
                    "midi": 46,
                    "time": 3.2642505000000015,
                    "velocity": 0.25196850393700787,
                    "duration": 0.07772025000000005
                },
                {
                    "name": "D#2",
                    "midi": 39,
                    "time": 3.4196910000000016,
                    "velocity": 0.25196850393700787,
                    "duration": 0.07772025000000005
                },
                {
                    "name": "A#1",
                    "midi": 34,
                    "time": 3.5751315000000017,
                    "velocity": 0.25196850393700787,
                    "duration": 0.07772025000000005
                },
                {
                    "name": "D#2",
                    "midi": 39,
                    "time": 3.7305720000000018,
                    "velocity": 0.30708661417322836,
                    "duration": 0.07772025000000005
                },
                {
                    "name": "A#2",
                    "midi": 46,
                    "time": 3.886012500000002,
                    "velocity": 0.28346456692913385,
                    "duration": 0.07772025000000005
                },
                {
                    "name": "D#2",
                    "midi": 39,
                    "time": 4.0414530000000015,
                    "velocity": 0.28346456692913385,
                    "duration": 0.0777202499999996
                },
                {
                    "name": "A#1",
                    "midi": 34,
                    "time": 4.196893500000001,
                    "velocity": 0.28346456692913385,
                    "duration": 0.0777202499999996
                },
                {
                    "name": "D#2",
                    "midi": 39,
                    "time": 4.352334,
                    "velocity": 0.30708661417322836,
                    "duration": 0.0777202499999996
                },
                {
                    "name": "A#2",
                    "midi": 46,
                    "time": 4.507774499999999,
                    "velocity": 0.28346456692913385,
                    "duration": 0.0777202499999996
                },
                {
                    "name": "D#2",
                    "midi": 39,
                    "time": 4.663214999999998,
                    "velocity": 0.28346456692913385,
                    "duration": 0.0777202499999996
                },
                {
                    "name": "A#1",
                    "midi": 34,
                    "time": 4.8186554999999975,
                    "velocity": 0.28346456692913385,
                    "duration": 0.0777202499999996
                },
                {
                    "name": "D#2",
                    "midi": 39,
                    "time": 4.974095999999997,
                    "velocity": 0.30708661417322836,
                    "duration": 0.0777202499999996
                },
                {
                    "name": "A#2",
                    "midi": 46,
                    "time": 5.129536499999996,
                    "velocity": 0.28346456692913385,
                    "duration": 0.0777202499999996
                },
                {
                    "name": "D#2",
                    "midi": 39,
                    "time": 5.284976999999995,
                    "velocity": 0.28346456692913385,
                    "duration": 0.0777202499999996
                },
                {
                    "name": "A#1",
                    "midi": 34,
                    "time": 5.440417499999994,
                    "velocity": 0.28346456692913385,
                    "duration": 0.0777202499999996
                },
                {
                    "name": "D#2",
                    "midi": 39,
                    "time": 5.595857999999994,
                    "velocity": 0.30708661417322836,
                    "duration": 0.0777202499999996
                },
                {
                    "name": "A#2",
                    "midi": 46,
                    "time": 5.751298499999993,
                    "velocity": 0.28346456692913385,
                    "duration": 0.0777202499999996
                },
                {
                    "name": "D#2",
                    "midi": 39,
                    "time": 5.906738999999992,
                    "velocity": 0.28346456692913385,
                    "duration": 0.0777202499999996
                },
                {
                    "name": "F#4",
                    "midi": 66,
                    "time": 6.217619999999991,
                    "velocity": 0.5275590551181102,
                    "duration": 0.4663215000000003
                },
                {
                    "name": "C#5",
                    "midi": 73,
                    "time": 6.217619999999991,
                    "velocity": 0.5275590551181102,
                    "duration": 0.4663215000000003
                },
                {
                    "name": "G#4",
                    "midi": 68,
                    "time": 6.839381999999992,
                    "velocity": 0.5275590551181102,
                    "duration": 0.4663215000000003
                },
                {
                    "name": "C#4",
                    "midi": 61,
                    "time": 6.839381999999992,
                    "velocity": 0.5275590551181102,
                    "duration": 0.4663215000000003
                },
                {
                    "name": "F#4",
                    "midi": 66,
                    "time": 7.461143999999992,
                    "velocity": 0.5275590551181102,
                    "duration": 0.4663215000000003
                },
                {
                    "name": "B3",
                    "midi": 59,
                    "time": 7.461143999999992,
                    "velocity": 0.5275590551181102,
                    "duration": 0.4663215000000003
                },
                {
                    "name": "C#4",
                    "midi": 61,
                    "time": 8.082905999999992,
                    "velocity": 0.5275590551181102,
                    "duration": 0.4663214999999994
                },
                {
                    "name": "F#3",
                    "midi": 54,
                    "time": 8.082905999999992,
                    "velocity": 0.5275590551181102,
                    "duration": 0.4663214999999994
                },
                {
                    "name": "F2",
                    "midi": 41,
                    "time": 8.549227499999992,
                    "velocity": 0.5275590551181102,
                    "duration": 0.07772025000000049
                },
                {
                    "name": "F#2",
                    "midi": 42,
                    "time": 8.626947749999992,
                    "velocity": 0.5275590551181102,
                    "duration": 0.07772025000000049
                },
                {
                    "name": "G#2",
                    "midi": 44,
                    "time": 8.704667999999993,
                    "velocity": 0.6220472440944882,
                    "duration": 0.07772025000000049
                },
                {
                    "name": "F#2",
                    "midi": 42,
                    "time": 8.782388249999993,
                    "velocity": 0.5275590551181102,
                    "duration": 0.07772025000000049
                },
                {
                    "name": "F2",
                    "midi": 41,
                    "time": 8.860108499999994,
                    "velocity": 0.5275590551181102,
                    "duration": 0.07772025000000049
                },
                {
                    "name": "F#2",
                    "midi": 42,
                    "time": 9.015548999999995,
                    "velocity": 0.5511811023622047,
                    "duration": 0.07772025000000049
                },
                {
                    "name": "F2",
                    "midi": 41,
                    "time": 9.093269249999995,
                    "velocity": 0.5039370078740157,
                    "duration": 0.07772025000000049
                },
                {
                    "name": "D#2",
                    "midi": 39,
                    "time": 9.170989499999996,
                    "velocity": 0.5039370078740157,
                    "duration": 0.07772025000000049
                },
                {
                    "name": "F2",
                    "midi": 41,
                    "time": 9.326429999999997,
                    "velocity": 0.5433070866141733,
                    "duration": 0.07772025000000049
                },
                {
                    "name": "D#2",
                    "midi": 39,
                    "time": 9.404150249999997,
                    "velocity": 0.47244094488188976,
                    "duration": 0.07772025000000049
                },
                {
                    "name": "C#2",
                    "midi": 37,
                    "time": 9.481870499999998,
                    "velocity": 0.47244094488188976,
                    "duration": 0.07772025000000049
                },
                {
                    "name": "D#2",
                    "midi": 39,
                    "time": 9.637310999999999,
                    "velocity": 0.5275590551181102,
                    "duration": 0.07772025000000049
                },
                {
                    "name": "C#2",
                    "midi": 37,
                    "time": 9.71503125,
                    "velocity": 0.4645669291338583,
                    "duration": 0.07772025000000049
                },
                {
                    "name": "C2",
                    "midi": 36,
                    "time": 9.7927515,
                    "velocity": 0.4645669291338583,
                    "duration": 0.07772025000000049
                },
                {
                    "name": "D#2",
                    "midi": 39,
                    "time": 10.569954000000001,
                    "velocity": 0.3543307086614173,
                    "duration": 0.07772025000000049
                },
                {
                    "name": "C#2",
                    "midi": 37,
                    "time": 10.647674250000001,
                    "velocity": 0.3228346456692913,
                    "duration": 0.07772025000000049
                },
                {
                    "name": "B1",
                    "midi": 35,
                    "time": 10.725394500000002,
                    "velocity": 0.3228346456692913,
                    "duration": 0.07772025000000049
                },
                {
                    "name": "A#1",
                    "midi": 34,
                    "time": 11.191716000000003,
                    "velocity": 0.5275590551181102,
                    "duration": 0.6217620000000004
                },
                {
                    "name": "F2",
                    "midi": 41,
                    "time": 11.191716000000003,
                    "velocity": 0.5275590551181102,
                    "duration": 0.6217620000000004
                },
                {
                    "name": "F4",
                    "midi": 65,
                    "time": 11.813478000000003,
                    "velocity": 0.6377952755905512,
                    "duration": 0.1554404999999992
                },
                {
                    "name": "A#3",
                    "midi": 58,
                    "time": 11.813478000000003,
                    "velocity": 0.6377952755905512,
                    "duration": 0.1554404999999992
                },
                {
                    "name": "G#1",
                    "midi": 32,
                    "time": 12.279799500000003,
                    "velocity": 0.3779527559055118,
                    "duration": 0.07772025000000049
                },
                {
                    "name": "A#1",
                    "midi": 34,
                    "time": 12.357519750000003,
                    "velocity": 0.3779527559055118,
                    "duration": 0.07772025000000049
                },
                {
                    "name": "B1",
                    "midi": 35,
                    "time": 12.435240000000004,
                    "velocity": 0.4251968503937008,
                    "duration": 0.07772025000000049
                },
                {
                    "name": "A#1",
                    "midi": 34,
                    "time": 12.512960250000004,
                    "velocity": 0.3779527559055118,
                    "duration": 0.07772025000000049
                },
                {
                    "name": "G#1",
                    "midi": 32,
                    "time": 12.590680500000005,
                    "velocity": 0.3779527559055118,
                    "duration": 0.07772025000000049
                },
                {
                    "name": "A#1",
                    "midi": 34,
                    "time": 12.668400750000005,
                    "velocity": 0.3779527559055118,
                    "duration": 0.07772025000000049
                },
                {
                    "name": "B1",
                    "midi": 35,
                    "time": 12.746121000000006,
                    "velocity": 0.4015748031496063,
                    "duration": 0.07772025000000049
                },
                {
                    "name": "A#1",
                    "midi": 34,
                    "time": 12.823841250000006,
                    "velocity": 0.3779527559055118,
                    "duration": 0.07772025000000049
                },
                {
                    "name": "G#1",
                    "midi": 32,
                    "time": 12.901561500000007,
                    "velocity": 0.3779527559055118,
                    "duration": 0.07772025000000049
                },
                {
                    "name": "A#1",
                    "midi": 34,
                    "time": 12.979281750000007,
                    "velocity": 0.3779527559055118,
                    "duration": 0.07772025000000049
                },
                {
                    "name": "B1",
                    "midi": 35,
                    "time": 13.057002000000008,
                    "velocity": 0.4566929133858268,
                    "duration": 0.07772025000000049
                },
                {
                    "name": "G#1",
                    "midi": 32,
                    "time": 13.212442500000009,
                    "velocity": 0.41732283464566927,
                    "duration": 0.07772025000000049
                },
                {
                    "name": "G#1",
                    "midi": 32,
                    "time": 13.36788300000001,
                    "velocity": 0.41732283464566927,
                    "duration": 0.07772025000000049
                },
                {
                    "name": "A#2",
                    "midi": 46,
                    "time": 13.834204500000011,
                    "velocity": 0.4094488188976378,
                    "duration": 0.07772025000000049
                },
                {
                    "name": "A#2",
                    "midi": 46,
                    "time": 13.989645000000012,
                    "velocity": 0.4094488188976378,
                    "duration": 0.07772025000000049
                },
                {
                    "name": "B2",
                    "midi": 47,
                    "time": 14.145085500000013,
                    "velocity": 0.4251968503937008,
                    "duration": 0.07772025000000049
                },
                {
                    "name": "B2",
                    "midi": 47,
                    "time": 14.300526000000014,
                    "velocity": 0.4409448818897638,
                    "duration": 0.07772025000000049
                },
                {
                    "name": "B1",
                    "midi": 35,
                    "time": 14.766847500000015,
                    "velocity": 0.4251968503937008,
                    "duration": 0.07772025000000049
                },
                {
                    "name": "C#2",
                    "midi": 37,
                    "time": 14.844567750000015,
                    "velocity": 0.4251968503937008,
                    "duration": 0.07772025000000049
                },
                {
                    "name": "D2",
                    "midi": 38,
                    "time": 14.922288000000016,
                    "velocity": 0.48031496062992124,
                    "duration": 0.07772025000000049
                },
                {
                    "name": "C#2",
                    "midi": 37,
                    "time": 15.000008250000016,
                    "velocity": 0.4251968503937008,
                    "duration": 0.07772025000000049
                },
                {
                    "name": "B1",
                    "midi": 35,
                    "time": 15.077728500000017,
                    "velocity": 0.4251968503937008,
                    "duration": 0.07772025000000049
                },
                {
                    "name": "C#2",
                    "midi": 37,
                    "time": 15.155448750000017,
                    "velocity": 0.4251968503937008,
                    "duration": 0.07772025000000049
                },
                {
                    "name": "D2",
                    "midi": 38,
                    "time": 15.233169000000018,
                    "velocity": 0.44881889763779526,
                    "duration": 0.07772025000000049
                },
                {
                    "name": "C#2",
                    "midi": 37,
                    "time": 15.310889250000018,
                    "velocity": 0.4251968503937008,
                    "duration": 0.07772025000000049
                },
                {
                    "name": "B1",
                    "midi": 35,
                    "time": 15.388609500000019,
                    "velocity": 0.4251968503937008,
                    "duration": 0.07772025000000049
                },
                {
                    "name": "C#2",
                    "midi": 37,
                    "time": 15.46632975000002,
                    "velocity": 0.4251968503937008,
                    "duration": 0.07772025000000049
                },
                {
                    "name": "D2",
                    "midi": 38,
                    "time": 15.54405000000002,
                    "velocity": 0.5118110236220472,
                    "duration": 0.07772025000000049
                },
                {
                    "name": "B1",
                    "midi": 35,
                    "time": 15.69949050000002,
                    "velocity": 0.47244094488188976,
                    "duration": 0.07772025000000049
                },
                {
                    "name": "B1",
                    "midi": 35,
                    "time": 15.854931000000022,
                    "velocity": 0.47244094488188976,
                    "duration": 0.07772025000000049
                },
                {
                    "name": "C#3",
                    "midi": 49,
                    "time": 16.32125250000002,
                    "velocity": 0.4251968503937008,
                    "duration": 0.07772024999999871
                },
                {
                    "name": "C#3",
                    "midi": 49,
                    "time": 16.47669300000002,
                    "velocity": 0.4251968503937008,
                    "duration": 0.07772024999999871
                },
                {
                    "name": "D3",
                    "midi": 50,
                    "time": 16.632133500000016,
                    "velocity": 0.4409448818897638,
                    "duration": 0.07772024999999871
                },
                {
                    "name": "D3",
                    "midi": 50,
                    "time": 16.787574000000014,
                    "velocity": 0.48031496062992124,
                    "duration": 0.07772024999999871
                },
                {
                    "name": "E3",
                    "midi": 52,
                    "time": 17.56477650000001,
                    "velocity": 0.4566929133858268,
                    "duration": 0.07772024999999871
                },
                {
                    "name": "E3",
                    "midi": 52,
                    "time": 17.72021700000001,
                    "velocity": 0.4566929133858268,
                    "duration": 0.07772024999999871
                },
                {
                    "name": "F3",
                    "midi": 53,
                    "time": 17.875657500000006,
                    "velocity": 0.49606299212598426,
                    "duration": 0.07772024999999871
                },
                {
                    "name": "F3",
                    "midi": 53,
                    "time": 18.031098000000004,
                    "velocity": 0.5275590551181102,
                    "duration": 0.07772024999999871
                },
                {
                    "name": "G3",
                    "midi": 55,
                    "time": 18.8083005,
                    "velocity": 0.49606299212598426,
                    "duration": 0.07772024999999871
                },
                {
                    "name": "G3",
                    "midi": 55,
                    "time": 18.963741,
                    "velocity": 0.49606299212598426,
                    "duration": 0.07772024999999871
                },
                {
                    "name": "G#3",
                    "midi": 56,
                    "time": 19.119181499999996,
                    "velocity": 0.5354330708661418,
                    "duration": 0.07772024999999871
                },
                {
                    "name": "G#3",
                    "midi": 56,
                    "time": 19.274621999999994,
                    "velocity": 0.5433070866141733,
                    "duration": 0.07772024999999871
                },
                {
                    "name": "A#3",
                    "midi": 58,
                    "time": 20.05182449999999,
                    "velocity": 0.5511811023622047,
                    "duration": 0.07772024999999871
                },
                {
                    "name": "A#3",
                    "midi": 58,
                    "time": 20.20726499999999,
                    "velocity": 0.5984251968503937,
                    "duration": 0.07772024999999871
                },
                {
                    "name": "C#4",
                    "midi": 61,
                    "time": 20.67358649999999,
                    "velocity": 0.5826771653543307,
                    "duration": 0.07772024999999871
                },
                {
                    "name": "C#4",
                    "midi": 61,
                    "time": 20.829026999999986,
                    "velocity": 0.6141732283464567,
                    "duration": 0.07772024999999871
                },
                {
                    "name": "E4",
                    "midi": 64,
                    "time": 21.295348499999985,
                    "velocity": 0.5984251968503937,
                    "duration": 0.07772024999999871
                },
                {
                    "name": "E4",
                    "midi": 64,
                    "time": 21.450788999999983,
                    "velocity": 0.6456692913385826,
                    "duration": 0.07772024999999871
                },
                {
                    "name": "G4",
                    "midi": 67,
                    "time": 21.917110499999982,
                    "velocity": 0.6299212598425197,
                    "duration": 0.07772024999999871
                },
                {
                    "name": "G4",
                    "midi": 67,
                    "time": 22.07255099999998,
                    "velocity": 0.6692913385826772,
                    "duration": 0.07772024999999871
                },
                {
                    "name": "G4",
                    "midi": 67,
                    "time": 22.383431999999978,
                    "velocity": 0.28346456692913385,
                    "duration": 0.07772024999999871
                },
                {
                    "name": "C4",
                    "midi": 60,
                    "time": 22.383431999999978,
                    "velocity": 0.28346456692913385,
                    "duration": 0.07772024999999871
                },
                {
                    "name": "G4",
                    "midi": 67,
                    "time": 22.538872499999975,
                    "velocity": 0.25196850393700787,
                    "duration": 0.07772024999999871
                },
                {
                    "name": "C4",
                    "midi": 60,
                    "time": 22.538872499999975,
                    "velocity": 0.25196850393700787,
                    "duration": 0.07772024999999871
                },
                {
                    "name": "G4",
                    "midi": 67,
                    "time": 22.694312999999973,
                    "velocity": 0.25196850393700787,
                    "duration": 0.07772024999999871
                },
                {
                    "name": "C4",
                    "midi": 60,
                    "time": 22.694312999999973,
                    "velocity": 0.25196850393700787,
                    "duration": 0.07772024999999871
                },
                {
                    "name": "G4",
                    "midi": 67,
                    "time": 22.84975349999997,
                    "velocity": 0.25196850393700787,
                    "duration": 0.07772024999999871
                },
                {
                    "name": "C4",
                    "midi": 60,
                    "time": 22.84975349999997,
                    "velocity": 0.25196850393700787,
                    "duration": 0.07772024999999871
                },
                {
                    "name": "G4",
                    "midi": 67,
                    "time": 23.005193999999968,
                    "velocity": 0.28346456692913385,
                    "duration": 0.07772024999999871
                },
                {
                    "name": "C4",
                    "midi": 60,
                    "time": 23.005193999999968,
                    "velocity": 0.28346456692913385,
                    "duration": 0.07772024999999871
                },
                {
                    "name": "G4",
                    "midi": 67,
                    "time": 23.160634499999965,
                    "velocity": 0.25196850393700787,
                    "duration": 0.07772024999999871
                },
                {
                    "name": "C4",
                    "midi": 60,
                    "time": 23.160634499999965,
                    "velocity": 0.25196850393700787,
                    "duration": 0.07772024999999871
                },
                {
                    "name": "G4",
                    "midi": 67,
                    "time": 23.316074999999962,
                    "velocity": 0.25196850393700787,
                    "duration": 0.07772024999999871
                },
                {
                    "name": "C4",
                    "midi": 60,
                    "time": 23.316074999999962,
                    "velocity": 0.25196850393700787,
                    "duration": 0.07772024999999871
                },
                {
                    "name": "G4",
                    "midi": 67,
                    "time": 23.47151549999996,
                    "velocity": 0.25196850393700787,
                    "duration": 0.07772024999999871
                },
                {
                    "name": "C4",
                    "midi": 60,
                    "time": 23.47151549999996,
                    "velocity": 0.25196850393700787,
                    "duration": 0.07772024999999871
                },
                {
                    "name": "G4",
                    "midi": 67,
                    "time": 23.626955999999957,
                    "velocity": 0.28346456692913385,
                    "duration": 0.07772024999999871
                },
                {
                    "name": "C4",
                    "midi": 60,
                    "time": 23.626955999999957,
                    "velocity": 0.28346456692913385,
                    "duration": 0.07772024999999871
                },
                {
                    "name": "G4",
                    "midi": 67,
                    "time": 23.782396499999955,
                    "velocity": 0.25196850393700787,
                    "duration": 0.07772024999999871
                },
                {
                    "name": "C4",
                    "midi": 60,
                    "time": 23.782396499999955,
                    "velocity": 0.25196850393700787,
                    "duration": 0.07772024999999871
                },
                {
                    "name": "G4",
                    "midi": 67,
                    "time": 23.937836999999952,
                    "velocity": 0.25196850393700787,
                    "duration": 0.07772024999999871
                },
                {
                    "name": "C4",
                    "midi": 60,
                    "time": 23.937836999999952,
                    "velocity": 0.25196850393700787,
                    "duration": 0.07772024999999871
                },
                {
                    "name": "G4",
                    "midi": 67,
                    "time": 24.09327749999995,
                    "velocity": 0.25196850393700787,
                    "duration": 0.07772024999999871
                },
                {
                    "name": "C4",
                    "midi": 60,
                    "time": 24.09327749999995,
                    "velocity": 0.25196850393700787,
                    "duration": 0.07772024999999871
                },
                {
                    "name": "G4",
                    "midi": 67,
                    "time": 24.248717999999947,
                    "velocity": 0.28346456692913385,
                    "duration": 0.07772024999999871
                },
                {
                    "name": "C4",
                    "midi": 60,
                    "time": 24.248717999999947,
                    "velocity": 0.28346456692913385,
                    "duration": 0.07772024999999871
                },
                {
                    "name": "G4",
                    "midi": 67,
                    "time": 24.404158499999944,
                    "velocity": 0.25196850393700787,
                    "duration": 0.07772024999999871
                },
                {
                    "name": "C4",
                    "midi": 60,
                    "time": 24.404158499999944,
                    "velocity": 0.25196850393700787,
                    "duration": 0.07772024999999871
                },
                {
                    "name": "G4",
                    "midi": 67,
                    "time": 24.559598999999942,
                    "velocity": 0.25196850393700787,
                    "duration": 0.07772024999999871
                },
                {
                    "name": "C4",
                    "midi": 60,
                    "time": 24.559598999999942,
                    "velocity": 0.25196850393700787,
                    "duration": 0.07772024999999871
                },
                {
                    "name": "C4",
                    "midi": 60,
                    "time": 24.71503949999994,
                    "velocity": 0.2677165354330709,
                    "duration": 0.07772024999999871
                },
                {
                    "name": "G4",
                    "midi": 67,
                    "time": 24.71503949999994,
                    "velocity": 0.2677165354330709,
                    "duration": 0.07772024999999871
                },
                {
                    "name": "G4",
                    "midi": 67,
                    "time": 24.870479999999937,
                    "velocity": 0.2992125984251969,
                    "duration": 0.07772024999999871
                },
                {
                    "name": "C4",
                    "midi": 60,
                    "time": 24.870479999999937,
                    "velocity": 0.2992125984251969,
                    "duration": 0.07772024999999871
                },
                {
                    "name": "G4",
                    "midi": 67,
                    "time": 25.025920499999934,
                    "velocity": 0.2677165354330709,
                    "duration": 0.07772024999999871
                },
                {
                    "name": "C4",
                    "midi": 60,
                    "time": 25.025920499999934,
                    "velocity": 0.2677165354330709,
                    "duration": 0.07772024999999871
                },
                {
                    "name": "C4",
                    "midi": 60,
                    "time": 25.18136099999993,
                    "velocity": 0.2677165354330709,
                    "duration": 0.07772024999999871
                },
                {
                    "name": "G4",
                    "midi": 67,
                    "time": 25.18136099999993,
                    "velocity": 0.2677165354330709,
                    "duration": 0.07772024999999871
                },
                {
                    "name": "G4",
                    "midi": 67,
                    "time": 25.33680149999993,
                    "velocity": 0.2677165354330709,
                    "duration": 0.07772024999999871
                },
                {
                    "name": "C4",
                    "midi": 60,
                    "time": 25.33680149999993,
                    "velocity": 0.2677165354330709,
                    "duration": 0.07772024999999871
                },
                {
                    "name": "C4",
                    "midi": 60,
                    "time": 25.492241999999926,
                    "velocity": 0.2992125984251969,
                    "duration": 0.07772024999999871
                },
                {
                    "name": "G4",
                    "midi": 67,
                    "time": 25.492241999999926,
                    "velocity": 0.2992125984251969,
                    "duration": 0.07772024999999871
                },
                {
                    "name": "G4",
                    "midi": 67,
                    "time": 25.647682499999924,
                    "velocity": 0.2677165354330709,
                    "duration": 0.07772024999999871
                },
                {
                    "name": "C4",
                    "midi": 60,
                    "time": 25.647682499999924,
                    "velocity": 0.2677165354330709,
                    "duration": 0.07772024999999871
                },
                {
                    "name": "G4",
                    "midi": 67,
                    "time": 25.80312299999992,
                    "velocity": 0.2677165354330709,
                    "duration": 0.07772024999999871
                },
                {
                    "name": "C4",
                    "midi": 60,
                    "time": 25.80312299999992,
                    "velocity": 0.2677165354330709,
                    "duration": 0.07772024999999871
                },
                {
                    "name": "C4",
                    "midi": 60,
                    "time": 25.95856349999992,
                    "velocity": 0.31496062992125984,
                    "duration": 0.07772024999999871
                },
                {
                    "name": "G4",
                    "midi": 67,
                    "time": 25.95856349999992,
                    "velocity": 0.31496062992125984,
                    "duration": 0.07772024999999871
                },
                {
                    "name": "G4",
                    "midi": 67,
                    "time": 26.114003999999916,
                    "velocity": 0.3543307086614173,
                    "duration": 0.07772024999999871
                },
                {
                    "name": "C4",
                    "midi": 60,
                    "time": 26.114003999999916,
                    "velocity": 0.3543307086614173,
                    "duration": 0.07772024999999871
                },
                {
                    "name": "G4",
                    "midi": 67,
                    "time": 26.269444499999913,
                    "velocity": 0.31496062992125984,
                    "duration": 0.07772024999999871
                },
                {
                    "name": "C4",
                    "midi": 60,
                    "time": 26.269444499999913,
                    "velocity": 0.31496062992125984,
                    "duration": 0.07772024999999871
                },
                {
                    "name": "C4",
                    "midi": 60,
                    "time": 26.42488499999991,
                    "velocity": 0.3228346456692913,
                    "duration": 0.07772024999999871
                },
                {
                    "name": "G4",
                    "midi": 67,
                    "time": 26.42488499999991,
                    "velocity": 0.3228346456692913,
                    "duration": 0.07772024999999871
                },
                {
                    "name": "G4",
                    "midi": 67,
                    "time": 26.58032549999991,
                    "velocity": 0.33070866141732286,
                    "duration": 0.07772024999999871
                },
                {
                    "name": "C4",
                    "midi": 60,
                    "time": 26.58032549999991,
                    "velocity": 0.33070866141732286,
                    "duration": 0.07772024999999871
                },
                {
                    "name": "G4",
                    "midi": 67,
                    "time": 26.735765999999906,
                    "velocity": 0.3700787401574803,
                    "duration": 0.07772024999999871
                },
                {
                    "name": "C4",
                    "midi": 60,
                    "time": 26.735765999999906,
                    "velocity": 0.3700787401574803,
                    "duration": 0.07772024999999871
                },
                {
                    "name": "G4",
                    "midi": 67,
                    "time": 26.891206499999903,
                    "velocity": 0.33858267716535434,
                    "duration": 0.07772024999999871
                },
                {
                    "name": "C4",
                    "midi": 60,
                    "time": 26.891206499999903,
                    "velocity": 0.33858267716535434,
                    "duration": 0.07772024999999871
                },
                {
                    "name": "C4",
                    "midi": 60,
                    "time": 27.0466469999999,
                    "velocity": 0.3543307086614173,
                    "duration": 0.07772024999999871
                },
                {
                    "name": "G4",
                    "midi": 67,
                    "time": 27.0466469999999,
                    "velocity": 0.3543307086614173,
                    "duration": 0.07772024999999871
                },
                {
                    "name": "G4",
                    "midi": 67,
                    "time": 27.202087499999898,
                    "velocity": 0.3543307086614173,
                    "duration": 0.07772024999999871
                },
                {
                    "name": "C4",
                    "midi": 60,
                    "time": 27.202087499999898,
                    "velocity": 0.3543307086614173,
                    "duration": 0.07772024999999871
                },
                {
                    "name": "G4",
                    "midi": 67,
                    "time": 27.357527999999895,
                    "velocity": 0.4015748031496063,
                    "duration": 0.07772024999999871
                },
                {
                    "name": "C4",
                    "midi": 60,
                    "time": 27.357527999999895,
                    "velocity": 0.4015748031496063,
                    "duration": 0.07772024999999871
                },
                {
                    "name": "G4",
                    "midi": 67,
                    "time": 27.512968499999893,
                    "velocity": 0.36220472440944884,
                    "duration": 0.07772024999999871
                },
                {
                    "name": "C4",
                    "midi": 60,
                    "time": 27.512968499999893,
                    "velocity": 0.36220472440944884,
                    "duration": 0.07772024999999871
                },
                {
                    "name": "B4",
                    "midi": 71,
                    "time": 27.66840899999989,
                    "velocity": 0.49606299212598426,
                    "duration": 0.07772024999999871
                },
                {
                    "name": "E4",
                    "midi": 64,
                    "time": 27.66840899999989,
                    "velocity": 0.49606299212598426,
                    "duration": 0.07772024999999871
                },
                {
                    "name": "B4",
                    "midi": 71,
                    "time": 27.823849499999888,
                    "velocity": 0.4566929133858268,
                    "duration": 0.07772024999999871
                },
                {
                    "name": "E4",
                    "midi": 64,
                    "time": 27.823849499999888,
                    "velocity": 0.4566929133858268,
                    "duration": 0.07772024999999871
                },
                {
                    "name": "E4",
                    "midi": 64,
                    "time": 27.979289999999885,
                    "velocity": 0.49606299212598426,
                    "duration": 0.07772024999999871
                },
                {
                    "name": "B4",
                    "midi": 71,
                    "time": 27.979289999999885,
                    "velocity": 0.49606299212598426,
                    "duration": 0.07772024999999871
                },
                {
                    "name": "E4",
                    "midi": 64,
                    "time": 28.134730499999883,
                    "velocity": 0.4566929133858268,
                    "duration": 0.07772024999999871
                },
                {
                    "name": "B4",
                    "midi": 71,
                    "time": 28.134730499999883,
                    "velocity": 0.4566929133858268,
                    "duration": 0.07772024999999871
                },
                {
                    "name": "E4",
                    "midi": 64,
                    "time": 28.29017099999988,
                    "velocity": 0.49606299212598426,
                    "duration": 0.07772024999999871
                },
                {
                    "name": "B4",
                    "midi": 71,
                    "time": 28.29017099999988,
                    "velocity": 0.49606299212598426,
                    "duration": 0.07772024999999871
                },
                {
                    "name": "E4",
                    "midi": 64,
                    "time": 28.445611499999877,
                    "velocity": 0.4566929133858268,
                    "duration": 0.07772024999999871
                },
                {
                    "name": "B4",
                    "midi": 71,
                    "time": 28.445611499999877,
                    "velocity": 0.4566929133858268,
                    "duration": 0.07772024999999871
                },
                {
                    "name": "E4",
                    "midi": 64,
                    "time": 28.601051999999875,
                    "velocity": 0.49606299212598426,
                    "duration": 0.07772024999999871
                },
                {
                    "name": "B4",
                    "midi": 71,
                    "time": 28.601051999999875,
                    "velocity": 0.49606299212598426,
                    "duration": 0.07772024999999871
                },
                {
                    "name": "E4",
                    "midi": 64,
                    "time": 28.756492499999872,
                    "velocity": 0.4645669291338583,
                    "duration": 0.07772024999999871
                },
                {
                    "name": "B4",
                    "midi": 71,
                    "time": 28.756492499999872,
                    "velocity": 0.4645669291338583,
                    "duration": 0.07772024999999871
                },
                {
                    "name": "E4",
                    "midi": 64,
                    "time": 28.91193299999987,
                    "velocity": 0.5039370078740157,
                    "duration": 0.07772024999999871
                },
                {
                    "name": "B4",
                    "midi": 71,
                    "time": 28.91193299999987,
                    "velocity": 0.5039370078740157,
                    "duration": 0.07772024999999871
                },
                {
                    "name": "E4",
                    "midi": 64,
                    "time": 29.067373499999867,
                    "velocity": 0.48031496062992124,
                    "duration": 0.07772024999999871
                },
                {
                    "name": "B4",
                    "midi": 71,
                    "time": 29.067373499999867,
                    "velocity": 0.48031496062992124,
                    "duration": 0.07772024999999871
                },
                {
                    "name": "E4",
                    "midi": 64,
                    "time": 29.222813999999865,
                    "velocity": 0.5354330708661418,
                    "duration": 0.07772024999999871
                },
                {
                    "name": "B4",
                    "midi": 71,
                    "time": 29.222813999999865,
                    "velocity": 0.5354330708661418,
                    "duration": 0.07772024999999871
                },
                {
                    "name": "E4",
                    "midi": 64,
                    "time": 29.378254499999862,
                    "velocity": 0.5039370078740157,
                    "duration": 0.07772024999999871
                },
                {
                    "name": "B4",
                    "midi": 71,
                    "time": 29.378254499999862,
                    "velocity": 0.5039370078740157,
                    "duration": 0.07772024999999871
                },
                {
                    "name": "E4",
                    "midi": 64,
                    "time": 29.53369499999986,
                    "velocity": 0.5669291338582677,
                    "duration": 0.07772024999999871
                },
                {
                    "name": "B4",
                    "midi": 71,
                    "time": 29.53369499999986,
                    "velocity": 0.5669291338582677,
                    "duration": 0.07772024999999871
                },
                {
                    "name": "E4",
                    "midi": 64,
                    "time": 29.689135499999857,
                    "velocity": 0.5275590551181102,
                    "duration": 0.07772024999999871
                },
                {
                    "name": "B4",
                    "midi": 71,
                    "time": 29.689135499999857,
                    "velocity": 0.5275590551181102,
                    "duration": 0.07772024999999871
                },
                {
                    "name": "E4",
                    "midi": 64,
                    "time": 30.466337999999855,
                    "velocity": 0.5354330708661418,
                    "duration": 0.07772024999999871
                },
                {
                    "name": "B4",
                    "midi": 71,
                    "time": 30.466337999999855,
                    "velocity": 0.5354330708661418,
                    "duration": 0.07772024999999871
                },
                {
                    "name": "E4",
                    "midi": 64,
                    "time": 30.621778499999852,
                    "velocity": 0.5039370078740157,
                    "duration": 0.07772024999999871
                },
                {
                    "name": "B4",
                    "midi": 71,
                    "time": 30.621778499999852,
                    "velocity": 0.5039370078740157,
                    "duration": 0.07772024999999871
                },
                {
                    "name": "E4",
                    "midi": 64,
                    "time": 30.77721899999985,
                    "velocity": 0.5669291338582677,
                    "duration": 0.07772024999999871
                },
                {
                    "name": "B4",
                    "midi": 71,
                    "time": 30.77721899999985,
                    "velocity": 0.5669291338582677,
                    "duration": 0.07772024999999871
                },
                {
                    "name": "E4",
                    "midi": 64,
                    "time": 30.932659499999847,
                    "velocity": 0.5275590551181102,
                    "duration": 0.07772024999999871
                },
                {
                    "name": "B4",
                    "midi": 71,
                    "time": 30.932659499999847,
                    "velocity": 0.5275590551181102,
                    "duration": 0.07772024999999871
                },
                {
                    "name": "E4",
                    "midi": 64,
                    "time": 31.709861999999845,
                    "velocity": 0.5039370078740157,
                    "duration": 0.07772024999999871
                },
                {
                    "name": "B4",
                    "midi": 71,
                    "time": 31.709861999999845,
                    "velocity": 0.5039370078740157,
                    "duration": 0.07772024999999871
                },
                {
                    "name": "E4",
                    "midi": 64,
                    "time": 31.865302499999842,
                    "velocity": 0.48031496062992124,
                    "duration": 0.07772024999999871
                },
                {
                    "name": "B4",
                    "midi": 71,
                    "time": 31.865302499999842,
                    "velocity": 0.48031496062992124,
                    "duration": 0.07772024999999871
                },
                {
                    "name": "E4",
                    "midi": 64,
                    "time": 32.02074299999984,
                    "velocity": 0.5039370078740157,
                    "duration": 0.07772024999999871
                },
                {
                    "name": "B4",
                    "midi": 71,
                    "time": 32.02074299999984,
                    "velocity": 0.5039370078740157,
                    "duration": 0.07772024999999871
                },
                {
                    "name": "E4",
                    "midi": 64,
                    "time": 32.17618349999984,
                    "velocity": 0.4645669291338583,
                    "duration": 0.07772024999999871
                },
                {
                    "name": "B4",
                    "midi": 71,
                    "time": 32.17618349999984,
                    "velocity": 0.4645669291338583,
                    "duration": 0.07772024999999871
                },
                {
                    "name": "A3",
                    "midi": 57,
                    "time": 32.48706449999984,
                    "velocity": 0.3543307086614173,
                    "duration": 0.07772024999999871
                },
                {
                    "name": "G#3",
                    "midi": 56,
                    "time": 32.64250499999984,
                    "velocity": 0.3543307086614173,
                    "duration": 0.07772024999999871
                },
                {
                    "name": "G3",
                    "midi": 55,
                    "time": 32.797945499999834,
                    "velocity": 0.3543307086614173,
                    "duration": 0.07772024999999871
                },
                {
                    "name": "F#3",
                    "midi": 54,
                    "time": 32.95338599999983,
                    "velocity": 0.3543307086614173,
                    "duration": 0.07772024999999871
                },
                {
                    "name": "F3",
                    "midi": 53,
                    "time": 33.10882649999983,
                    "velocity": 0.3543307086614173,
                    "duration": 0.07772024999999871
                },
                {
                    "name": "E3",
                    "midi": 52,
                    "time": 33.264266999999826,
                    "velocity": 0.3543307086614173,
                    "duration": 0.07772024999999871
                },
                {
                    "name": "D#3",
                    "midi": 51,
                    "time": 33.419707499999824,
                    "velocity": 0.3543307086614173,
                    "duration": 0.07772024999999871
                },
                {
                    "name": "D3",
                    "midi": 50,
                    "time": 33.730588499999826,
                    "velocity": 0.3543307086614173,
                    "duration": 0.07772024999999871
                },
                {
                    "name": "C#3",
                    "midi": 49,
                    "time": 33.88602899999982,
                    "velocity": 0.3543307086614173,
                    "duration": 0.07772024999999871
                },
                {
                    "name": "C3",
                    "midi": 48,
                    "time": 34.04146949999982,
                    "velocity": 0.3543307086614173,
                    "duration": 0.07772024999999871
                },
                {
                    "name": "B2",
                    "midi": 47,
                    "time": 34.19690999999982,
                    "velocity": 0.3543307086614173,
                    "duration": 0.07772024999999871
                },
                {
                    "name": "A#2",
                    "midi": 46,
                    "time": 34.352350499999815,
                    "velocity": 0.3543307086614173,
                    "duration": 0.07772024999999871
                },
                {
                    "name": "A2",
                    "midi": 45,
                    "time": 34.50779099999981,
                    "velocity": 0.3543307086614173,
                    "duration": 0.07772024999999871
                },
                {
                    "name": "G#2",
                    "midi": 44,
                    "time": 34.66323149999981,
                    "velocity": 0.3543307086614173,
                    "duration": 0.07772024999999871
                },
                {
                    "name": "G2",
                    "midi": 43,
                    "time": 35.12955299999981,
                    "velocity": 0.3228346456692913,
                    "duration": 0.15544049999999743
                },
                {
                    "name": "F#2",
                    "midi": 42,
                    "time": 35.751314999999806,
                    "velocity": 0.31496062992125984,
                    "duration": 0.15544049999999743
                },
                {
                    "name": "F2",
                    "midi": 41,
                    "time": 36.3730769999998,
                    "velocity": 0.29133858267716534,
                    "duration": 0.15544049999999743
                },
                {
                    "name": "E2",
                    "midi": 40,
                    "time": 36.9948389999998,
                    "velocity": 0.28346456692913385,
                    "duration": 0.15544049999999743
                },
                {
                    "name": "D#2",
                    "midi": 39,
                    "time": 37.9274819999998,
                    "velocity": 0.28346456692913385,
                    "duration": 0.07772024999999871
                },
                {
                    "name": "A#2",
                    "midi": 46,
                    "time": 38.082922499999796,
                    "velocity": 0.25984251968503935,
                    "duration": 0.07772024999999871
                },
                {
                    "name": "D#2",
                    "midi": 39,
                    "time": 38.238362999999794,
                    "velocity": 0.25984251968503935,
                    "duration": 0.07772024999999871
                },
                {
                    "name": "A#1",
                    "midi": 34,
                    "time": 38.39380349999979,
                    "velocity": 0.25984251968503935,
                    "duration": 0.07772024999999871
                },
                {
                    "name": "D#2",
                    "midi": 39,
                    "time": 38.54924399999979,
                    "velocity": 0.28346456692913385,
                    "duration": 0.07772024999999871
                },
                {
                    "name": "A#2",
                    "midi": 46,
                    "time": 38.704684499999786,
                    "velocity": 0.25984251968503935,
                    "duration": 0.07772024999999871
                },
                {
                    "name": "D#2",
                    "midi": 39,
                    "time": 38.86012499999978,
                    "velocity": 0.25984251968503935,
                    "duration": 0.07772024999999871
                },
                {
                    "name": "A#1",
                    "midi": 34,
                    "time": 39.01556549999978,
                    "velocity": 0.25984251968503935,
                    "duration": 0.07772024999999871
                },
                {
                    "name": "D#2",
                    "midi": 39,
                    "time": 39.17100599999978,
                    "velocity": 0.28346456692913385,
                    "duration": 0.07772024999999871
                },
                {
                    "name": "A#2",
                    "midi": 46,
                    "time": 39.326446499999776,
                    "velocity": 0.25984251968503935,
                    "duration": 0.07772024999999871
                },
                {
                    "name": "D#2",
                    "midi": 39,
                    "time": 39.48188699999977,
                    "velocity": 0.25984251968503935,
                    "duration": 0.07772024999999871
                },
                {
                    "name": "A#1",
                    "midi": 34,
                    "time": 39.63732749999977,
                    "velocity": 0.25984251968503935,
                    "duration": 0.07772024999999871
                },
                {
                    "name": "D#2",
                    "midi": 39,
                    "time": 39.79276799999977,
                    "velocity": 0.28346456692913385,
                    "duration": 0.07772024999999871
                },
                {
                    "name": "A#2",
                    "midi": 46,
                    "time": 39.948208499999765,
                    "velocity": 0.25196850393700787,
                    "duration": 0.07772024999999871
                },
                {
                    "name": "D#2",
                    "midi": 39,
                    "time": 40.10364899999976,
                    "velocity": 0.25196850393700787,
                    "duration": 0.07772024999999871
                },
                {
                    "name": "A#1",
                    "midi": 34,
                    "time": 40.25908949999976,
                    "velocity": 0.25196850393700787,
                    "duration": 0.07772024999999871
                },
                {
                    "name": "D#2",
                    "midi": 39,
                    "time": 40.41452999999976,
                    "velocity": 0.30708661417322836,
                    "duration": 0.07772024999999871
                },
                {
                    "name": "A#2",
                    "midi": 46,
                    "time": 40.569970499999755,
                    "velocity": 0.28346456692913385,
                    "duration": 0.07772024999999871
                },
                {
                    "name": "D#2",
                    "midi": 39,
                    "time": 40.72541099999975,
                    "velocity": 0.28346456692913385,
                    "duration": 0.07772024999999871
                },
                {
                    "name": "A#1",
                    "midi": 34,
                    "time": 40.88085149999975,
                    "velocity": 0.28346456692913385,
                    "duration": 0.07772024999999871
                },
                {
                    "name": "D#2",
                    "midi": 39,
                    "time": 41.03629199999975,
                    "velocity": 0.30708661417322836,
                    "duration": 0.07772024999999871
                },
                {
                    "name": "A#2",
                    "midi": 46,
                    "time": 41.191732499999745,
                    "velocity": 0.28346456692913385,
                    "duration": 0.07772024999999871
                },
                {
                    "name": "D#2",
                    "midi": 39,
                    "time": 41.34717299999974,
                    "velocity": 0.28346456692913385,
                    "duration": 0.07772024999999871
                },
                {
                    "name": "A#1",
                    "midi": 34,
                    "time": 41.50261349999974,
                    "velocity": 0.28346456692913385,
                    "duration": 0.07772024999999871
                },
                {
                    "name": "D#2",
                    "midi": 39,
                    "time": 41.65805399999974,
                    "velocity": 0.30708661417322836,
                    "duration": 0.07772024999999871
                },
                {
                    "name": "A#2",
                    "midi": 46,
                    "time": 41.813494499999734,
                    "velocity": 0.28346456692913385,
                    "duration": 0.07772024999999871
                },
                {
                    "name": "D#2",
                    "midi": 39,
                    "time": 41.96893499999973,
                    "velocity": 0.28346456692913385,
                    "duration": 0.07772024999999871
                },
                {
                    "name": "A#1",
                    "midi": 34,
                    "time": 42.12437549999973,
                    "velocity": 0.28346456692913385,
                    "duration": 0.07772024999999871
                },
                {
                    "name": "D#2",
                    "midi": 39,
                    "time": 42.27981599999973,
                    "velocity": 0.30708661417322836,
                    "duration": 0.07772024999999871
                },
                {
                    "name": "A#2",
                    "midi": 46,
                    "time": 42.435256499999724,
                    "velocity": 0.28346456692913385,
                    "duration": 0.07772024999999871
                },
                {
                    "name": "D#2",
                    "midi": 39,
                    "time": 42.59069699999972,
                    "velocity": 0.28346456692913385,
                    "duration": 0.07772024999999871
                },
                {
                    "name": "F#5",
                    "midi": 78,
                    "time": 42.90157799999972,
                    "velocity": 0.5511811023622047,
                    "duration": 0.4663214999999994
                },
                {
                    "name": "B4",
                    "midi": 71,
                    "time": 42.90157799999972,
                    "velocity": 0.5511811023622047,
                    "duration": 0.4663214999999994
                },
                {
                    "name": "F#4",
                    "midi": 66,
                    "time": 43.52333999999972,
                    "velocity": 0.5511811023622047,
                    "duration": 0.4663214999999994
                },
                {
                    "name": "C#5",
                    "midi": 73,
                    "time": 43.52333999999972,
                    "velocity": 0.5511811023622047,
                    "duration": 0.4663214999999994
                },
                {
                    "name": "E4",
                    "midi": 64,
                    "time": 44.14510199999972,
                    "velocity": 0.5511811023622047,
                    "duration": 0.4663214999999994
                },
                {
                    "name": "B4",
                    "midi": 71,
                    "time": 44.14510199999972,
                    "velocity": 0.5511811023622047,
                    "duration": 0.4663214999999994
                },
                {
                    "name": "B3",
                    "midi": 59,
                    "time": 44.766863999999714,
                    "velocity": 0.5511811023622047,
                    "duration": 0.4663214999999994
                },
                {
                    "name": "F#4",
                    "midi": 66,
                    "time": 44.766863999999714,
                    "velocity": 0.5511811023622047,
                    "duration": 0.4663214999999994
                },
                {
                    "name": "A#2",
                    "midi": 46,
                    "time": 45.23318549999971,
                    "velocity": 0.5511811023622047,
                    "duration": 0.07772024999999871
                },
                {
                    "name": "B2",
                    "midi": 47,
                    "time": 45.31090574999971,
                    "velocity": 0.5511811023622047,
                    "duration": 0.07772024999999871
                },
                {
                    "name": "C#3",
                    "midi": 49,
                    "time": 45.38862599999971,
                    "velocity": 0.6377952755905512,
                    "duration": 0.07772024999999871
                },
                {
                    "name": "B2",
                    "midi": 47,
                    "time": 45.46634624999971,
                    "velocity": 0.5511811023622047,
                    "duration": 0.07772024999999871
                },
                {
                    "name": "A#2",
                    "midi": 46,
                    "time": 45.54406649999971,
                    "velocity": 0.5511811023622047,
                    "duration": 0.07772024999999871
                },
                {
                    "name": "B2",
                    "midi": 47,
                    "time": 45.699506999999706,
                    "velocity": 0.5748031496062992,
                    "duration": 0.07772024999999871
                },
                {
                    "name": "A#2",
                    "midi": 46,
                    "time": 45.777227249999704,
                    "velocity": 0.5275590551181102,
                    "duration": 0.07772024999999871
                },
                {
                    "name": "G#2",
                    "midi": 44,
                    "time": 45.8549474999997,
                    "velocity": 0.5275590551181102,
                    "duration": 0.07772024999999871
                },
                {
                    "name": "A#2",
                    "midi": 46,
                    "time": 46.0103879999997,
                    "velocity": 0.5669291338582677,
                    "duration": 0.07772024999999871
                },
                {
                    "name": "G#2",
                    "midi": 44,
                    "time": 46.0881082499997,
                    "velocity": 0.49606299212598426,
                    "duration": 0.07772024999999871
                },
                {
                    "name": "F#2",
                    "midi": 42,
                    "time": 46.1658284999997,
                    "velocity": 0.49606299212598426,
                    "duration": 0.07772024999999871
                },
                {
                    "name": "G#2",
                    "midi": 44,
                    "time": 46.321268999999695,
                    "velocity": 0.5511811023622047,
                    "duration": 0.07772024999999871
                },
                {
                    "name": "F#2",
                    "midi": 42,
                    "time": 46.398989249999694,
                    "velocity": 0.49606299212598426,
                    "duration": 0.07772024999999871
                },
                {
                    "name": "F2",
                    "midi": 41,
                    "time": 46.47670949999969,
                    "velocity": 0.49606299212598426,
                    "duration": 0.07772024999999871
                },
                {
                    "name": "G#2",
                    "midi": 44,
                    "time": 47.253911999999694,
                    "velocity": 0.3543307086614173,
                    "duration": 0.07772024999999871
                },
                {
                    "name": "F#2",
                    "midi": 42,
                    "time": 47.33163224999969,
                    "velocity": 0.3228346456692913,
                    "duration": 0.07772024999999871
                },
                {
                    "name": "E2",
                    "midi": 40,
                    "time": 47.40935249999969,
                    "velocity": 0.3228346456692913,
                    "duration": 0.07772024999999871
                },
                {
                    "name": "D#2",
                    "midi": 39,
                    "time": 47.87567399999969,
                    "velocity": 0.6062992125984252,
                    "duration": 0.6217619999999968
                },
                {
                    "name": "A#2",
                    "midi": 46,
                    "time": 47.87567399999969,
                    "velocity": 0.6062992125984252,
                    "duration": 0.6217619999999968
                },
                {
                    "name": "A#4",
                    "midi": 70,
                    "time": 48.49743599999969,
                    "velocity": 0.7244094488188977,
                    "duration": 0.15544049999999743
                },
                {
                    "name": "D#4",
                    "midi": 63,
                    "time": 48.49743599999969,
                    "velocity": 0.7244094488188977,
                    "duration": 0.15544049999999743
                },
                {
                    "name": "G#1",
                    "midi": 32,
                    "time": 48.96375749999969,
                    "velocity": 0.3779527559055118,
                    "duration": 0.07772024999999871
                },
                {
                    "name": "A#1",
                    "midi": 34,
                    "time": 49.041477749999686,
                    "velocity": 0.3779527559055118,
                    "duration": 0.07772024999999871
                },
                {
                    "name": "B1",
                    "midi": 35,
                    "time": 49.119197999999685,
                    "velocity": 0.4251968503937008,
                    "duration": 0.07772024999999871
                },
                {
                    "name": "A#1",
                    "midi": 34,
                    "time": 49.19691824999968,
                    "velocity": 0.3779527559055118,
                    "duration": 0.07772024999999871
                },
                {
                    "name": "G#1",
                    "midi": 32,
                    "time": 49.27463849999968,
                    "velocity": 0.3779527559055118,
                    "duration": 0.07772024999999871
                },
                {
                    "name": "A#1",
                    "midi": 34,
                    "time": 49.35235874999968,
                    "velocity": 0.3779527559055118,
                    "duration": 0.07772024999999871
                },
                {
                    "name": "B1",
                    "midi": 35,
                    "time": 49.43007899999968,
                    "velocity": 0.4015748031496063,
                    "duration": 0.07772024999999871
                },
                {
                    "name": "A#1",
                    "midi": 34,
                    "time": 49.50779924999968,
                    "velocity": 0.3779527559055118,
                    "duration": 0.07772024999999871
                },
                {
                    "name": "G#1",
                    "midi": 32,
                    "time": 49.58551949999968,
                    "velocity": 0.3779527559055118,
                    "duration": 0.07772024999999871
                },
                {
                    "name": "A#1",
                    "midi": 34,
                    "time": 49.663239749999676,
                    "velocity": 0.3779527559055118,
                    "duration": 0.07772024999999871
                },
                {
                    "name": "B1",
                    "midi": 35,
                    "time": 49.740959999999674,
                    "velocity": 0.4566929133858268,
                    "duration": 0.07772024999999871
                },
                {
                    "name": "G#1",
                    "midi": 32,
                    "time": 49.89640049999967,
                    "velocity": 0.41732283464566927,
                    "duration": 0.07772024999999871
                },
                {
                    "name": "G#1",
                    "midi": 32,
                    "time": 50.05184099999967,
                    "velocity": 0.41732283464566927,
                    "duration": 0.07772024999999871
                },
                {
                    "name": "A#2",
                    "midi": 46,
                    "time": 50.51816249999967,
                    "velocity": 0.4094488188976378,
                    "duration": 0.07772024999999871
                },
                {
                    "name": "A#2",
                    "midi": 46,
                    "time": 50.673602999999666,
                    "velocity": 0.4094488188976378,
                    "duration": 0.07772024999999871
                },
                {
                    "name": "B2",
                    "midi": 47,
                    "time": 50.82904349999966,
                    "velocity": 0.4251968503937008,
                    "duration": 0.07772024999999871
                },
                {
                    "name": "B2",
                    "midi": 47,
                    "time": 50.98448399999966,
                    "velocity": 0.4409448818897638,
                    "duration": 0.07772024999999871
                },
                {
                    "name": "B1",
                    "midi": 35,
                    "time": 51.45080549999966,
                    "velocity": 0.4251968503937008,
                    "duration": 0.07772024999999871
                },
                {
                    "name": "C#2",
                    "midi": 37,
                    "time": 51.52852574999966,
                    "velocity": 0.4251968503937008,
                    "duration": 0.07772024999999871
                },
                {
                    "name": "D2",
                    "midi": 38,
                    "time": 51.60624599999966,
                    "velocity": 0.48031496062992124,
                    "duration": 0.07772024999999871
                },
                {
                    "name": "C#2",
                    "midi": 37,
                    "time": 51.683966249999656,
                    "velocity": 0.4251968503937008,
                    "duration": 0.07772024999999871
                },
                {
                    "name": "B1",
                    "midi": 35,
                    "time": 51.761686499999655,
                    "velocity": 0.4251968503937008,
                    "duration": 0.07772024999999871
                },
                {
                    "name": "C#2",
                    "midi": 37,
                    "time": 51.839406749999654,
                    "velocity": 0.4251968503937008,
                    "duration": 0.07772024999999871
                },
                {
                    "name": "D2",
                    "midi": 38,
                    "time": 51.91712699999965,
                    "velocity": 0.44881889763779526,
                    "duration": 0.07772024999999871
                },
                {
                    "name": "C#2",
                    "midi": 37,
                    "time": 51.99484724999965,
                    "velocity": 0.4251968503937008,
                    "duration": 0.07772024999999871
                },
                {
                    "name": "B1",
                    "midi": 35,
                    "time": 52.07256749999965,
                    "velocity": 0.4251968503937008,
                    "duration": 0.07772024999999871
                },
                {
                    "name": "C#2",
                    "midi": 37,
                    "time": 52.15028774999965,
                    "velocity": 0.4251968503937008,
                    "duration": 0.07772024999999871
                },
                {
                    "name": "D2",
                    "midi": 38,
                    "time": 52.22800799999965,
                    "velocity": 0.5118110236220472,
                    "duration": 0.07772024999999871
                },
                {
                    "name": "B1",
                    "midi": 35,
                    "time": 52.383448499999645,
                    "velocity": 0.47244094488188976,
                    "duration": 0.07772024999999871
                },
                {
                    "name": "B1",
                    "midi": 35,
                    "time": 52.53888899999964,
                    "velocity": 0.47244094488188976,
                    "duration": 0.07772024999999871
                },
                {
                    "name": "C#3",
                    "midi": 49,
                    "time": 53.00521049999964,
                    "velocity": 0.4251968503937008,
                    "duration": 0.07772024999999871
                },
                {
                    "name": "C#3",
                    "midi": 49,
                    "time": 53.16065099999964,
                    "velocity": 0.4251968503937008,
                    "duration": 0.07772024999999871
                },
                {
                    "name": "D3",
                    "midi": 50,
                    "time": 53.31609149999964,
                    "velocity": 0.4409448818897638,
                    "duration": 0.07772024999999871
                },
                {
                    "name": "D3",
                    "midi": 50,
                    "time": 53.471531999999634,
                    "velocity": 0.48031496062992124,
                    "duration": 0.07772024999999871
                },
                {
                    "name": "E3",
                    "midi": 52,
                    "time": 54.248734499999635,
                    "velocity": 0.4566929133858268,
                    "duration": 0.07772024999999871
                },
                {
                    "name": "E3",
                    "midi": 52,
                    "time": 54.40417499999963,
                    "velocity": 0.4566929133858268,
                    "duration": 0.07772024999999871
                },
                {
                    "name": "F3",
                    "midi": 53,
                    "time": 54.55961549999963,
                    "velocity": 0.49606299212598426,
                    "duration": 0.07772024999999871
                },
                {
                    "name": "F3",
                    "midi": 53,
                    "time": 54.71505599999963,
                    "velocity": 0.5275590551181102,
                    "duration": 0.07772024999999871
                },
                {
                    "name": "G3",
                    "midi": 55,
                    "time": 55.49225849999963,
                    "velocity": 0.49606299212598426,
                    "duration": 0.07772024999999871
                },
                {
                    "name": "G3",
                    "midi": 55,
                    "time": 55.647698999999626,
                    "velocity": 0.49606299212598426,
                    "duration": 0.07772024999999871
                },
                {
                    "name": "G#3",
                    "midi": 56,
                    "time": 55.803139499999624,
                    "velocity": 0.5354330708661418,
                    "duration": 0.07772024999999871
                },
                {
                    "name": "G#3",
                    "midi": 56,
                    "time": 55.95857999999962,
                    "velocity": 0.5433070866141733,
                    "duration": 0.07772024999999871
                },
                {
                    "name": "A#3",
                    "midi": 58,
                    "time": 56.73578249999962,
                    "velocity": 0.5511811023622047,
                    "duration": 0.07772024999999871
                },
                {
                    "name": "A#3",
                    "midi": 58,
                    "time": 56.89122299999962,
                    "velocity": 0.5984251968503937,
                    "duration": 0.07772024999999871
                },
                {
                    "name": "C#4",
                    "midi": 61,
                    "time": 57.35754449999962,
                    "velocity": 0.5826771653543307,
                    "duration": 0.07772024999999871
                },
                {
                    "name": "C#4",
                    "midi": 61,
                    "time": 57.51298499999962,
                    "velocity": 0.6141732283464567,
                    "duration": 0.07772024999999871
                },
                {
                    "name": "E4",
                    "midi": 64,
                    "time": 57.979306499999616,
                    "velocity": 0.5984251968503937,
                    "duration": 0.07772024999999871
                },
                {
                    "name": "E4",
                    "midi": 64,
                    "time": 58.134746999999614,
                    "velocity": 0.6456692913385826,
                    "duration": 0.07772024999999871
                },
                {
                    "name": "G4",
                    "midi": 67,
                    "time": 58.60106849999961,
                    "velocity": 0.6299212598425197,
                    "duration": 0.07772024999999871
                },
                {
                    "name": "G4",
                    "midi": 67,
                    "time": 58.75650899999961,
                    "velocity": 0.6692913385826772,
                    "duration": 0.07772024999999871
                },
                {
                    "name": "G4",
                    "midi": 67,
                    "time": 59.06738999999961,
                    "velocity": 0.28346456692913385,
                    "duration": 0.07772024999999871
                },
                {
                    "name": "C4",
                    "midi": 60,
                    "time": 59.06738999999961,
                    "velocity": 0.28346456692913385,
                    "duration": 0.07772024999999871
                },
                {
                    "name": "G4",
                    "midi": 67,
                    "time": 59.22283049999961,
                    "velocity": 0.25196850393700787,
                    "duration": 0.07772024999999871
                },
                {
                    "name": "C4",
                    "midi": 60,
                    "time": 59.22283049999961,
                    "velocity": 0.25196850393700787,
                    "duration": 0.07772024999999871
                },
                {
                    "name": "G4",
                    "midi": 67,
                    "time": 59.37827099999961,
                    "velocity": 0.25196850393700787,
                    "duration": 0.07772024999999871
                },
                {
                    "name": "C4",
                    "midi": 60,
                    "time": 59.37827099999961,
                    "velocity": 0.25196850393700787,
                    "duration": 0.07772024999999871
                },
                {
                    "name": "G4",
                    "midi": 67,
                    "time": 59.533711499999605,
                    "velocity": 0.25196850393700787,
                    "duration": 0.07772024999999871
                },
                {
                    "name": "C4",
                    "midi": 60,
                    "time": 59.533711499999605,
                    "velocity": 0.25196850393700787,
                    "duration": 0.07772024999999871
                },
                {
                    "name": "G4",
                    "midi": 67,
                    "time": 59.6891519999996,
                    "velocity": 0.28346456692913385,
                    "duration": 0.07772024999999871
                },
                {
                    "name": "C4",
                    "midi": 60,
                    "time": 59.6891519999996,
                    "velocity": 0.28346456692913385,
                    "duration": 0.07772024999999871
                },
                {
                    "name": "G4",
                    "midi": 67,
                    "time": 59.8445924999996,
                    "velocity": 0.25196850393700787,
                    "duration": 0.07772024999999871
                },
                {
                    "name": "C4",
                    "midi": 60,
                    "time": 59.8445924999996,
                    "velocity": 0.25196850393700787,
                    "duration": 0.07772024999999871
                },
                {
                    "name": "G4",
                    "midi": 67,
                    "time": 60.0000329999996,
                    "velocity": 0.25196850393700787,
                    "duration": 0.07772024999999871
                },
                {
                    "name": "C4",
                    "midi": 60,
                    "time": 60.0000329999996,
                    "velocity": 0.25196850393700787,
                    "duration": 0.07772024999999871
                },
                {
                    "name": "G4",
                    "midi": 67,
                    "time": 60.155473499999594,
                    "velocity": 0.25196850393700787,
                    "duration": 0.07772024999999871
                },
                {
                    "name": "C4",
                    "midi": 60,
                    "time": 60.155473499999594,
                    "velocity": 0.25196850393700787,
                    "duration": 0.07772024999999871
                },
                {
                    "name": "G4",
                    "midi": 67,
                    "time": 60.31091399999959,
                    "velocity": 0.28346456692913385,
                    "duration": 0.07772024999999871
                },
                {
                    "name": "C4",
                    "midi": 60,
                    "time": 60.31091399999959,
                    "velocity": 0.28346456692913385,
                    "duration": 0.07772024999999871
                },
                {
                    "name": "G4",
                    "midi": 67,
                    "time": 60.46635449999959,
                    "velocity": 0.25196850393700787,
                    "duration": 0.07772024999999871
                },
                {
                    "name": "C4",
                    "midi": 60,
                    "time": 60.46635449999959,
                    "velocity": 0.25196850393700787,
                    "duration": 0.07772024999999871
                },
                {
                    "name": "G4",
                    "midi": 67,
                    "time": 60.62179499999959,
                    "velocity": 0.25196850393700787,
                    "duration": 0.07772024999999871
                },
                {
                    "name": "C4",
                    "midi": 60,
                    "time": 60.62179499999959,
                    "velocity": 0.25196850393700787,
                    "duration": 0.07772024999999871
                },
                {
                    "name": "G4",
                    "midi": 67,
                    "time": 60.777235499999584,
                    "velocity": 0.25196850393700787,
                    "duration": 0.07772024999999871
                },
                {
                    "name": "C4",
                    "midi": 60,
                    "time": 60.777235499999584,
                    "velocity": 0.25196850393700787,
                    "duration": 0.07772024999999871
                },
                {
                    "name": "G4",
                    "midi": 67,
                    "time": 60.93267599999958,
                    "velocity": 0.28346456692913385,
                    "duration": 0.07772024999999871
                },
                {
                    "name": "C4",
                    "midi": 60,
                    "time": 60.93267599999958,
                    "velocity": 0.28346456692913385,
                    "duration": 0.07772024999999871
                },
                {
                    "name": "G4",
                    "midi": 67,
                    "time": 61.08811649999958,
                    "velocity": 0.25196850393700787,
                    "duration": 0.07772024999999871
                },
                {
                    "name": "C4",
                    "midi": 60,
                    "time": 61.08811649999958,
                    "velocity": 0.25196850393700787,
                    "duration": 0.07772024999999871
                },
                {
                    "name": "G4",
                    "midi": 67,
                    "time": 61.243556999999576,
                    "velocity": 0.25196850393700787,
                    "duration": 0.07772024999999871
                },
                {
                    "name": "C4",
                    "midi": 60,
                    "time": 61.243556999999576,
                    "velocity": 0.25196850393700787,
                    "duration": 0.07772024999999871
                },
                {
                    "name": "C4",
                    "midi": 60,
                    "time": 61.398997499999574,
                    "velocity": 0.2677165354330709,
                    "duration": 0.07772024999999871
                },
                {
                    "name": "G4",
                    "midi": 67,
                    "time": 61.398997499999574,
                    "velocity": 0.2677165354330709,
                    "duration": 0.07772024999999871
                },
                {
                    "name": "G4",
                    "midi": 67,
                    "time": 61.55443799999957,
                    "velocity": 0.2992125984251969,
                    "duration": 0.07772024999999871
                },
                {
                    "name": "C4",
                    "midi": 60,
                    "time": 61.55443799999957,
                    "velocity": 0.2992125984251969,
                    "duration": 0.07772024999999871
                },
                {
                    "name": "G4",
                    "midi": 67,
                    "time": 61.70987849999957,
                    "velocity": 0.2677165354330709,
                    "duration": 0.07772024999999871
                },
                {
                    "name": "C4",
                    "midi": 60,
                    "time": 61.70987849999957,
                    "velocity": 0.2677165354330709,
                    "duration": 0.07772024999999871
                },
                {
                    "name": "C4",
                    "midi": 60,
                    "time": 61.865318999999566,
                    "velocity": 0.2677165354330709,
                    "duration": 0.07772024999999871
                },
                {
                    "name": "G4",
                    "midi": 67,
                    "time": 61.865318999999566,
                    "velocity": 0.2677165354330709,
                    "duration": 0.07772024999999871
                },
                {
                    "name": "G4",
                    "midi": 67,
                    "time": 62.02075949999956,
                    "velocity": 0.2677165354330709,
                    "duration": 0.07772024999999871
                },
                {
                    "name": "C4",
                    "midi": 60,
                    "time": 62.02075949999956,
                    "velocity": 0.2677165354330709,
                    "duration": 0.07772024999999871
                },
                {
                    "name": "C4",
                    "midi": 60,
                    "time": 62.17619999999956,
                    "velocity": 0.2992125984251969,
                    "duration": 0.07772024999999871
                },
                {
                    "name": "G4",
                    "midi": 67,
                    "time": 62.17619999999956,
                    "velocity": 0.2992125984251969,
                    "duration": 0.07772024999999871
                },
                {
                    "name": "G4",
                    "midi": 67,
                    "time": 62.33164049999956,
                    "velocity": 0.2677165354330709,
                    "duration": 0.07772024999999871
                },
                {
                    "name": "C4",
                    "midi": 60,
                    "time": 62.33164049999956,
                    "velocity": 0.2677165354330709,
                    "duration": 0.07772024999999871
                },
                {
                    "name": "G4",
                    "midi": 67,
                    "time": 62.487080999999556,
                    "velocity": 0.2677165354330709,
                    "duration": 0.07772024999999871
                },
                {
                    "name": "C4",
                    "midi": 60,
                    "time": 62.487080999999556,
                    "velocity": 0.2677165354330709,
                    "duration": 0.07772024999999871
                },
                {
                    "name": "C4",
                    "midi": 60,
                    "time": 62.64252149999955,
                    "velocity": 0.31496062992125984,
                    "duration": 0.07772024999999871
                },
                {
                    "name": "G4",
                    "midi": 67,
                    "time": 62.64252149999955,
                    "velocity": 0.31496062992125984,
                    "duration": 0.07772024999999871
                },
                {
                    "name": "G4",
                    "midi": 67,
                    "time": 62.79796199999955,
                    "velocity": 0.3543307086614173,
                    "duration": 0.07772024999999871
                },
                {
                    "name": "C4",
                    "midi": 60,
                    "time": 62.79796199999955,
                    "velocity": 0.3543307086614173,
                    "duration": 0.07772024999999871
                },
                {
                    "name": "G4",
                    "midi": 67,
                    "time": 62.95340249999955,
                    "velocity": 0.31496062992125984,
                    "duration": 0.07772024999999871
                },
                {
                    "name": "C4",
                    "midi": 60,
                    "time": 62.95340249999955,
                    "velocity": 0.31496062992125984,
                    "duration": 0.07772024999999871
                },
                {
                    "name": "C4",
                    "midi": 60,
                    "time": 63.108842999999545,
                    "velocity": 0.3228346456692913,
                    "duration": 0.07772024999999871
                },
                {
                    "name": "G4",
                    "midi": 67,
                    "time": 63.108842999999545,
                    "velocity": 0.3228346456692913,
                    "duration": 0.07772024999999871
                },
                {
                    "name": "G4",
                    "midi": 67,
                    "time": 63.26428349999954,
                    "velocity": 0.33070866141732286,
                    "duration": 0.07772024999999871
                },
                {
                    "name": "C4",
                    "midi": 60,
                    "time": 63.26428349999954,
                    "velocity": 0.33070866141732286,
                    "duration": 0.07772024999999871
                },
                {
                    "name": "G4",
                    "midi": 67,
                    "time": 63.41972399999954,
                    "velocity": 0.3700787401574803,
                    "duration": 0.07772024999999871
                },
                {
                    "name": "C4",
                    "midi": 60,
                    "time": 63.41972399999954,
                    "velocity": 0.3700787401574803,
                    "duration": 0.07772024999999871
                },
                {
                    "name": "G4",
                    "midi": 67,
                    "time": 63.57516449999954,
                    "velocity": 0.33858267716535434,
                    "duration": 0.07772024999999871
                },
                {
                    "name": "C4",
                    "midi": 60,
                    "time": 63.57516449999954,
                    "velocity": 0.33858267716535434,
                    "duration": 0.07772024999999871
                },
                {
                    "name": "C4",
                    "midi": 60,
                    "time": 63.730604999999535,
                    "velocity": 0.3543307086614173,
                    "duration": 0.07772024999999871
                },
                {
                    "name": "G4",
                    "midi": 67,
                    "time": 63.730604999999535,
                    "velocity": 0.3543307086614173,
                    "duration": 0.07772024999999871
                },
                {
                    "name": "G4",
                    "midi": 67,
                    "time": 63.88604549999953,
                    "velocity": 0.3543307086614173,
                    "duration": 0.07772024999999871
                },
                {
                    "name": "C4",
                    "midi": 60,
                    "time": 63.88604549999953,
                    "velocity": 0.3543307086614173,
                    "duration": 0.07772024999999871
                },
                {
                    "name": "G4",
                    "midi": 67,
                    "time": 64.04148599999954,
                    "velocity": 0.4015748031496063,
                    "duration": 0.07772024999999871
                },
                {
                    "name": "C4",
                    "midi": 60,
                    "time": 64.04148599999954,
                    "velocity": 0.4015748031496063,
                    "duration": 0.07772024999999871
                },
                {
                    "name": "G4",
                    "midi": 67,
                    "time": 64.19692649999953,
                    "velocity": 0.36220472440944884,
                    "duration": 0.07772024999999871
                },
                {
                    "name": "C4",
                    "midi": 60,
                    "time": 64.19692649999953,
                    "velocity": 0.36220472440944884,
                    "duration": 0.07772024999999871
                },
                {
                    "name": "B4",
                    "midi": 71,
                    "time": 64.35236699999953,
                    "velocity": 0.49606299212598426,
                    "duration": 0.07772024999999871
                },
                {
                    "name": "E4",
                    "midi": 64,
                    "time": 64.35236699999953,
                    "velocity": 0.49606299212598426,
                    "duration": 0.07772024999999871
                },
                {
                    "name": "B4",
                    "midi": 71,
                    "time": 64.50780749999953,
                    "velocity": 0.4566929133858268,
                    "duration": 0.07772024999999871
                },
                {
                    "name": "E4",
                    "midi": 64,
                    "time": 64.50780749999953,
                    "velocity": 0.4566929133858268,
                    "duration": 0.07772024999999871
                },
                {
                    "name": "E4",
                    "midi": 64,
                    "time": 64.66324799999953,
                    "velocity": 0.49606299212598426,
                    "duration": 0.07772024999999871
                },
                {
                    "name": "B4",
                    "midi": 71,
                    "time": 64.66324799999953,
                    "velocity": 0.49606299212598426,
                    "duration": 0.07772024999999871
                },
                {
                    "name": "E4",
                    "midi": 64,
                    "time": 64.81868849999952,
                    "velocity": 0.4566929133858268,
                    "duration": 0.07772024999999871
                },
                {
                    "name": "B4",
                    "midi": 71,
                    "time": 64.81868849999952,
                    "velocity": 0.4566929133858268,
                    "duration": 0.07772024999999871
                },
                {
                    "name": "E4",
                    "midi": 64,
                    "time": 64.97412899999952,
                    "velocity": 0.49606299212598426,
                    "duration": 0.07772024999999871
                },
                {
                    "name": "B4",
                    "midi": 71,
                    "time": 64.97412899999952,
                    "velocity": 0.49606299212598426,
                    "duration": 0.07772024999999871
                },
                {
                    "name": "E4",
                    "midi": 64,
                    "time": 65.12956949999952,
                    "velocity": 0.4566929133858268,
                    "duration": 0.07772024999999871
                },
                {
                    "name": "B4",
                    "midi": 71,
                    "time": 65.12956949999952,
                    "velocity": 0.4566929133858268,
                    "duration": 0.07772024999999871
                },
                {
                    "name": "E4",
                    "midi": 64,
                    "time": 65.28500999999952,
                    "velocity": 0.49606299212598426,
                    "duration": 0.07772024999999871
                },
                {
                    "name": "B4",
                    "midi": 71,
                    "time": 65.28500999999952,
                    "velocity": 0.49606299212598426,
                    "duration": 0.07772024999999871
                },
                {
                    "name": "E4",
                    "midi": 64,
                    "time": 65.44045049999951,
                    "velocity": 0.4645669291338583,
                    "duration": 0.07772024999999871
                },
                {
                    "name": "B4",
                    "midi": 71,
                    "time": 65.44045049999951,
                    "velocity": 0.4645669291338583,
                    "duration": 0.07772024999999871
                },
                {
                    "name": "E4",
                    "midi": 64,
                    "time": 65.59589099999951,
                    "velocity": 0.5039370078740157,
                    "duration": 0.07772024999999871
                },
                {
                    "name": "B4",
                    "midi": 71,
                    "time": 65.59589099999951,
                    "velocity": 0.5039370078740157,
                    "duration": 0.07772024999999871
                },
                {
                    "name": "E4",
                    "midi": 64,
                    "time": 65.75133149999951,
                    "velocity": 0.48031496062992124,
                    "duration": 0.07772024999999871
                },
                {
                    "name": "B4",
                    "midi": 71,
                    "time": 65.75133149999951,
                    "velocity": 0.48031496062992124,
                    "duration": 0.07772024999999871
                },
                {
                    "name": "E4",
                    "midi": 64,
                    "time": 65.9067719999995,
                    "velocity": 0.5354330708661418,
                    "duration": 0.07772024999999871
                },
                {
                    "name": "B4",
                    "midi": 71,
                    "time": 65.9067719999995,
                    "velocity": 0.5354330708661418,
                    "duration": 0.07772024999999871
                },
                {
                    "name": "E4",
                    "midi": 64,
                    "time": 66.0622124999995,
                    "velocity": 0.5039370078740157,
                    "duration": 0.07772024999999871
                },
                {
                    "name": "B4",
                    "midi": 71,
                    "time": 66.0622124999995,
                    "velocity": 0.5039370078740157,
                    "duration": 0.07772024999999871
                },
                {
                    "name": "E4",
                    "midi": 64,
                    "time": 66.2176529999995,
                    "velocity": 0.5669291338582677,
                    "duration": 0.07772024999999871
                },
                {
                    "name": "B4",
                    "midi": 71,
                    "time": 66.2176529999995,
                    "velocity": 0.5669291338582677,
                    "duration": 0.07772024999999871
                },
                {
                    "name": "E4",
                    "midi": 64,
                    "time": 66.3730934999995,
                    "velocity": 0.5275590551181102,
                    "duration": 0.07772024999999871
                },
                {
                    "name": "B4",
                    "midi": 71,
                    "time": 66.3730934999995,
                    "velocity": 0.5275590551181102,
                    "duration": 0.07772024999999871
                },
                {
                    "name": "E4",
                    "midi": 64,
                    "time": 67.1502959999995,
                    "velocity": 0.5354330708661418,
                    "duration": 0.07772024999999871
                },
                {
                    "name": "B4",
                    "midi": 71,
                    "time": 67.1502959999995,
                    "velocity": 0.5354330708661418,
                    "duration": 0.07772024999999871
                },
                {
                    "name": "E4",
                    "midi": 64,
                    "time": 67.3057364999995,
                    "velocity": 0.5039370078740157,
                    "duration": 0.07772024999999871
                },
                {
                    "name": "B4",
                    "midi": 71,
                    "time": 67.3057364999995,
                    "velocity": 0.5039370078740157,
                    "duration": 0.07772024999999871
                },
                {
                    "name": "E4",
                    "midi": 64,
                    "time": 67.4611769999995,
                    "velocity": 0.5669291338582677,
                    "duration": 0.07772024999999871
                },
                {
                    "name": "B4",
                    "midi": 71,
                    "time": 67.4611769999995,
                    "velocity": 0.5669291338582677,
                    "duration": 0.07772024999999871
                },
                {
                    "name": "E4",
                    "midi": 64,
                    "time": 67.61661749999949,
                    "velocity": 0.5275590551181102,
                    "duration": 0.07772024999999871
                },
                {
                    "name": "B4",
                    "midi": 71,
                    "time": 67.61661749999949,
                    "velocity": 0.5275590551181102,
                    "duration": 0.07772024999999871
                },
                {
                    "name": "E4",
                    "midi": 64,
                    "time": 68.3938199999995,
                    "velocity": 0.5039370078740157,
                    "duration": 0.07772024999999871
                },
                {
                    "name": "B4",
                    "midi": 71,
                    "time": 68.3938199999995,
                    "velocity": 0.5039370078740157,
                    "duration": 0.07772024999999871
                },
                {
                    "name": "E4",
                    "midi": 64,
                    "time": 68.54926049999949,
                    "velocity": 0.48031496062992124,
                    "duration": 0.07772024999999871
                },
                {
                    "name": "B4",
                    "midi": 71,
                    "time": 68.54926049999949,
                    "velocity": 0.48031496062992124,
                    "duration": 0.07772024999999871
                },
                {
                    "name": "E4",
                    "midi": 64,
                    "time": 68.70470099999949,
                    "velocity": 0.5039370078740157,
                    "duration": 0.07772024999999871
                },
                {
                    "name": "B4",
                    "midi": 71,
                    "time": 68.70470099999949,
                    "velocity": 0.5039370078740157,
                    "duration": 0.07772024999999871
                },
                {
                    "name": "E4",
                    "midi": 64,
                    "time": 68.86014149999949,
                    "velocity": 0.4645669291338583,
                    "duration": 0.07772024999999871
                },
                {
                    "name": "B4",
                    "midi": 71,
                    "time": 68.86014149999949,
                    "velocity": 0.4645669291338583,
                    "duration": 0.07772024999999871
                },
                {
                    "name": "A3",
                    "midi": 57,
                    "time": 69.17102249999948,
                    "velocity": 0.3543307086614173,
                    "duration": 0.07772024999999871
                },
                {
                    "name": "G#3",
                    "midi": 56,
                    "time": 69.32646299999948,
                    "velocity": 0.3543307086614173,
                    "duration": 0.07772024999999871
                },
                {
                    "name": "G3",
                    "midi": 55,
                    "time": 69.48190349999948,
                    "velocity": 0.3543307086614173,
                    "duration": 0.07772024999999871
                },
                {
                    "name": "F#3",
                    "midi": 54,
                    "time": 69.63734399999947,
                    "velocity": 0.3543307086614173,
                    "duration": 0.07772024999999871
                },
                {
                    "name": "F3",
                    "midi": 53,
                    "time": 69.79278449999947,
                    "velocity": 0.3543307086614173,
                    "duration": 0.07772024999999871
                },
                {
                    "name": "E3",
                    "midi": 52,
                    "time": 69.94822499999947,
                    "velocity": 0.3543307086614173,
                    "duration": 0.07772024999999871
                },
                {
                    "name": "D#3",
                    "midi": 51,
                    "time": 70.10366549999947,
                    "velocity": 0.3543307086614173,
                    "duration": 0.07772024999999871
                },
                {
                    "name": "D3",
                    "midi": 50,
                    "time": 70.41454649999946,
                    "velocity": 0.3543307086614173,
                    "duration": 0.07772024999999871
                },
                {
                    "name": "C#3",
                    "midi": 49,
                    "time": 70.56998699999946,
                    "velocity": 0.3543307086614173,
                    "duration": 0.07772024999999871
                },
                {
                    "name": "C3",
                    "midi": 48,
                    "time": 70.72542749999945,
                    "velocity": 0.3543307086614173,
                    "duration": 0.07772024999999871
                },
                {
                    "name": "B2",
                    "midi": 47,
                    "time": 70.88086799999945,
                    "velocity": 0.3543307086614173,
                    "duration": 0.07772024999999871
                },
                {
                    "name": "A#2",
                    "midi": 46,
                    "time": 71.03630849999945,
                    "velocity": 0.3543307086614173,
                    "duration": 0.07772024999999871
                },
                {
                    "name": "A2",
                    "midi": 45,
                    "time": 71.19174899999945,
                    "velocity": 0.3543307086614173,
                    "duration": 0.07772024999999871
                },
                {
                    "name": "G#2",
                    "midi": 44,
                    "time": 71.34718949999944,
                    "velocity": 0.3543307086614173,
                    "duration": 0.07772024999999871
                },
                {
                    "name": "G2",
                    "midi": 43,
                    "time": 71.81351099999944,
                    "velocity": 0.3228346456692913,
                    "duration": 0.15544049999999743
                },
                {
                    "name": "F#2",
                    "midi": 42,
                    "time": 72.43527299999944,
                    "velocity": 0.31496062992125984,
                    "duration": 0.15544049999999743
                },
                {
                    "name": "F2",
                    "midi": 41,
                    "time": 73.05703499999944,
                    "velocity": 0.29133858267716534,
                    "duration": 0.15544049999999743
                },
                {
                    "name": "E2",
                    "midi": 40,
                    "time": 73.67879699999945,
                    "velocity": 0.28346456692913385,
                    "duration": 0.15544049999999743
                },
                {
                    "name": "D#2",
                    "midi": 39,
                    "time": 74.61143999999945,
                    "velocity": 0.28346456692913385,
                    "duration": 0.07772024999999871
                },
                {
                    "name": "A#2",
                    "midi": 46,
                    "time": 74.76688049999944,
                    "velocity": 0.25984251968503935,
                    "duration": 0.07772024999999871
                },
                {
                    "name": "D#2",
                    "midi": 39,
                    "time": 74.92232099999944,
                    "velocity": 0.25984251968503935,
                    "duration": 0.07772024999999871
                },
                {
                    "name": "A#1",
                    "midi": 34,
                    "time": 75.07776149999944,
                    "velocity": 0.25984251968503935,
                    "duration": 0.07772024999999871
                },
                {
                    "name": "D#2",
                    "midi": 39,
                    "time": 75.23320199999944,
                    "velocity": 0.28346456692913385,
                    "duration": 0.07772024999999871
                },
                {
                    "name": "A#2",
                    "midi": 46,
                    "time": 75.38864249999943,
                    "velocity": 0.25984251968503935,
                    "duration": 0.07772024999999871
                },
                {
                    "name": "D#2",
                    "midi": 39,
                    "time": 75.54408299999943,
                    "velocity": 0.25984251968503935,
                    "duration": 0.07772024999999871
                },
                {
                    "name": "A#1",
                    "midi": 34,
                    "time": 75.69952349999943,
                    "velocity": 0.25984251968503935,
                    "duration": 0.07772024999999871
                },
                {
                    "name": "D#2",
                    "midi": 39,
                    "time": 75.85496399999943,
                    "velocity": 0.28346456692913385,
                    "duration": 0.07772024999999871
                },
                {
                    "name": "A#2",
                    "midi": 46,
                    "time": 76.01040449999942,
                    "velocity": 0.25984251968503935,
                    "duration": 0.07772024999999871
                },
                {
                    "name": "D#2",
                    "midi": 39,
                    "time": 76.16584499999942,
                    "velocity": 0.25984251968503935,
                    "duration": 0.07772024999999871
                },
                {
                    "name": "A#1",
                    "midi": 34,
                    "time": 76.32128549999942,
                    "velocity": 0.25984251968503935,
                    "duration": 0.07772024999999871
                },
                {
                    "name": "D#2",
                    "midi": 39,
                    "time": 76.47672599999942,
                    "velocity": 0.28346456692913385,
                    "duration": 0.07772024999999871
                },
                {
                    "name": "A#2",
                    "midi": 46,
                    "time": 76.63216649999941,
                    "velocity": 0.25196850393700787,
                    "duration": 0.07772024999999871
                },
                {
                    "name": "D#2",
                    "midi": 39,
                    "time": 76.78760699999941,
                    "velocity": 0.25196850393700787,
                    "duration": 0.07772024999999871
                },
                {
                    "name": "A#1",
                    "midi": 34,
                    "time": 76.94304749999941,
                    "velocity": 0.25196850393700787,
                    "duration": 0.07772024999999871
                },
                {
                    "name": "D#2",
                    "midi": 39,
                    "time": 77.0984879999994,
                    "velocity": 0.30708661417322836,
                    "duration": 0.07772024999999871
                },
                {
                    "name": "A#2",
                    "midi": 46,
                    "time": 77.2539284999994,
                    "velocity": 0.28346456692913385,
                    "duration": 0.07772024999999871
                },
                {
                    "name": "D#2",
                    "midi": 39,
                    "time": 77.4093689999994,
                    "velocity": 0.28346456692913385,
                    "duration": 0.07772024999999871
                },
                {
                    "name": "A#1",
                    "midi": 34,
                    "time": 77.5648094999994,
                    "velocity": 0.28346456692913385,
                    "duration": 0.07772024999999871
                },
                {
                    "name": "D#2",
                    "midi": 39,
                    "time": 77.7202499999994,
                    "velocity": 0.30708661417322836,
                    "duration": 0.07772024999999871
                },
                {
                    "name": "A#2",
                    "midi": 46,
                    "time": 77.8756904999994,
                    "velocity": 0.28346456692913385,
                    "duration": 0.07772024999999871
                },
                {
                    "name": "D#2",
                    "midi": 39,
                    "time": 78.03113099999939,
                    "velocity": 0.28346456692913385,
                    "duration": 0.07772024999999871
                },
                {
                    "name": "A#1",
                    "midi": 34,
                    "time": 78.18657149999939,
                    "velocity": 0.28346456692913385,
                    "duration": 0.07772024999999871
                },
                {
                    "name": "D#2",
                    "midi": 39,
                    "time": 78.34201199999939,
                    "velocity": 0.30708661417322836,
                    "duration": 0.07772024999999871
                },
                {
                    "name": "A#2",
                    "midi": 46,
                    "time": 78.49745249999938,
                    "velocity": 0.28346456692913385,
                    "duration": 0.07772024999999871
                },
                {
                    "name": "D#2",
                    "midi": 39,
                    "time": 78.65289299999938,
                    "velocity": 0.28346456692913385,
                    "duration": 0.07772024999999871
                },
                {
                    "name": "A#1",
                    "midi": 34,
                    "time": 78.80833349999938,
                    "velocity": 0.28346456692913385,
                    "duration": 0.07772024999999871
                },
                {
                    "name": "D#2",
                    "midi": 39,
                    "time": 78.96377399999938,
                    "velocity": 0.30708661417322836,
                    "duration": 0.07772024999999871
                },
                {
                    "name": "A#2",
                    "midi": 46,
                    "time": 79.11921449999937,
                    "velocity": 0.28346456692913385,
                    "duration": 0.07772024999999871
                },
                {
                    "name": "D#2",
                    "midi": 39,
                    "time": 79.27465499999937,
                    "velocity": 0.28346456692913385,
                    "duration": 0.07772024999999871
                },
                {
                    "name": "F#5",
                    "midi": 78,
                    "time": 79.58553599999937,
                    "velocity": 0.5511811023622047,
                    "duration": 0.4663215000000065
                },
                {
                    "name": "B4",
                    "midi": 71,
                    "time": 79.58553599999937,
                    "velocity": 0.5511811023622047,
                    "duration": 0.4663215000000065
                },
                {
                    "name": "F#4",
                    "midi": 66,
                    "time": 80.20729799999937,
                    "velocity": 0.5511811023622047,
                    "duration": 0.4663215000000065
                },
                {
                    "name": "C#5",
                    "midi": 73,
                    "time": 80.20729799999937,
                    "velocity": 0.5511811023622047,
                    "duration": 0.4663215000000065
                },
                {
                    "name": "E4",
                    "midi": 64,
                    "time": 80.82905999999937,
                    "velocity": 0.5511811023622047,
                    "duration": 0.4663215000000065
                },
                {
                    "name": "B4",
                    "midi": 71,
                    "time": 80.82905999999937,
                    "velocity": 0.5511811023622047,
                    "duration": 0.4663215000000065
                },
                {
                    "name": "B3",
                    "midi": 59,
                    "time": 81.45082199999938,
                    "velocity": 0.5511811023622047,
                    "duration": 0.4663215000000065
                },
                {
                    "name": "F#4",
                    "midi": 66,
                    "time": 81.45082199999938,
                    "velocity": 0.5511811023622047,
                    "duration": 0.4663215000000065
                },
                {
                    "name": "A#2",
                    "midi": 46,
                    "time": 81.91714349999938,
                    "velocity": 0.5511811023622047,
                    "duration": 0.07772024999999871
                },
                {
                    "name": "B2",
                    "midi": 47,
                    "time": 81.99486374999938,
                    "velocity": 0.5511811023622047,
                    "duration": 0.07772024999999871
                },
                {
                    "name": "C#3",
                    "midi": 49,
                    "time": 82.07258399999938,
                    "velocity": 0.6377952755905512,
                    "duration": 0.07772024999999871
                },
                {
                    "name": "B2",
                    "midi": 47,
                    "time": 82.15030424999938,
                    "velocity": 0.5511811023622047,
                    "duration": 0.07772024999999871
                },
                {
                    "name": "A#2",
                    "midi": 46,
                    "time": 82.22802449999938,
                    "velocity": 0.5511811023622047,
                    "duration": 0.07772024999999871
                },
                {
                    "name": "B2",
                    "midi": 47,
                    "time": 82.38346499999938,
                    "velocity": 0.5748031496062992,
                    "duration": 0.07772024999999871
                },
                {
                    "name": "A#2",
                    "midi": 46,
                    "time": 82.46118524999937,
                    "velocity": 0.5275590551181102,
                    "duration": 0.07772024999999871
                },
                {
                    "name": "G#2",
                    "midi": 44,
                    "time": 82.53890549999937,
                    "velocity": 0.5275590551181102,
                    "duration": 0.07772024999999871
                },
                {
                    "name": "A#2",
                    "midi": 46,
                    "time": 82.69434599999937,
                    "velocity": 0.5669291338582677,
                    "duration": 0.07772024999999871
                },
                {
                    "name": "G#2",
                    "midi": 44,
                    "time": 82.77206624999937,
                    "velocity": 0.49606299212598426,
                    "duration": 0.07772024999999871
                },
                {
                    "name": "F#2",
                    "midi": 42,
                    "time": 82.84978649999937,
                    "velocity": 0.49606299212598426,
                    "duration": 0.07772024999999871
                },
                {
                    "name": "G#2",
                    "midi": 44,
                    "time": 83.00522699999937,
                    "velocity": 0.5511811023622047,
                    "duration": 0.07772024999999871
                },
                {
                    "name": "F#2",
                    "midi": 42,
                    "time": 83.08294724999936,
                    "velocity": 0.49606299212598426,
                    "duration": 0.07772024999999871
                },
                {
                    "name": "F2",
                    "midi": 41,
                    "time": 83.16066749999936,
                    "velocity": 0.49606299212598426,
                    "duration": 0.07772024999999871
                },
                {
                    "name": "G#2",
                    "midi": 44,
                    "time": 83.93786999999936,
                    "velocity": 0.3543307086614173,
                    "duration": 0.07772024999999871
                },
                {
                    "name": "F#2",
                    "midi": 42,
                    "time": 84.01559024999936,
                    "velocity": 0.3228346456692913,
                    "duration": 0.07772024999999871
                },
                {
                    "name": "E2",
                    "midi": 40,
                    "time": 84.09331049999936,
                    "velocity": 0.3228346456692913,
                    "duration": 0.07772024999999871
                },
                {
                    "name": "D#2",
                    "midi": 39,
                    "time": 84.55963199999935,
                    "velocity": 0.6377952755905512,
                    "duration": 0.6217620000000039
                },
                {
                    "name": "A#2",
                    "midi": 46,
                    "time": 84.55963199999935,
                    "velocity": 0.6377952755905512,
                    "duration": 0.6217620000000039
                },
                {
                    "name": "A#4",
                    "midi": 70,
                    "time": 85.18139399999936,
                    "velocity": 0.7637795275590551,
                    "duration": 0.15544049999999743
                },
                {
                    "name": "D#4",
                    "midi": 63,
                    "time": 85.18139399999936,
                    "velocity": 0.7637795275590551,
                    "duration": 0.15544049999999743
                }
            ],
            "controlChanges": {
                "7": [
                    {
                        "number": 7,
                        "time": 0,
                        "value": 0.7874015748031497
                    }
                ],
                "10": [
                    {
                        "number": 10,
                        "time": 0,
                        "value": 0.5039370078740157
                    }
                ],
                "64": [
                    {
                        "number": 64,
                        "time": 0,
                        "value": 0
                    },
                    {
                        "number": 64,
                        "time": 11.191716000000003,
                        "value": 1
                    },
                    {
                        "number": 64,
                        "time": 12.005187950000003,
                        "value": 0
                    },
                    {
                        "number": 64,
                        "time": 47.87567399999969,
                        "value": 1
                    },
                    {
                        "number": 64,
                        "time": 48.689145949999684,
                        "value": 0
                    },
                    {
                        "number": 64,
                        "time": 84.55963199999935,
                        "value": 1
                    },
                    {
                        "number": 64,
                        "time": 85.37310394999936,
                        "value": 0
                    }
                ],
                "91": [
                    {
                        "number": 91,
                        "time": 0,
                        "value": 1
                    }
                ]
            },
            "id": 2,
            "name": "Piano left",
            "instrumentNumber": 0,
            "instrument": "acoustic grand piano",
            "instrumentFamily": "piano",
            "channelNumber": 0,
            "isPercussion": false
        },
        {
            "startTime": 0,
            "duration": 0,
            "length": 0,
            "notes": [],
            "controlChanges": {},
            "id": 3,
            "name": "Grieg: Kobold, Op. 12 No. 3"
        },
        {
            "startTime": 0,
            "duration": 0,
            "length": 0,
            "notes": [],
            "controlChanges": {},
            "id": 4,
            "name": "Copyright  1998 by Bernd Krueger"
        },
        {
            "startTime": 0,
            "duration": 0,
            "length": 0,
            "notes": [],
            "controlChanges": {},
            "id": 5,
            "name": "http://www.piano-midi.de"
        },
        {
            "startTime": 0,
            "duration": 0,
            "length": 0,
            "notes": [],
            "controlChanges": {},
            "id": 6,
            "name": "Edition: 2012-11-19"
        }
    ]
}