{
    "header": {
        "PPQ": 480,
        "timeSignature": [
            4,
            4
        ],
        "bpm": 170.50007672503452,
        "name": "Rhapsodie Nr. 15"
    },
    "startTime": 0,
    "duration": 351.0262349999984,
    "tracks": [
        {
            "startTime": 0,
            "duration": 0,
            "length": 0,
            "notes": [],
            "controlChanges": {},
            "id": 0,
            "name": "Rhapsodie Nr. 15"
        },
        {
            "startTime": 14.868028500000001,
            "duration": 351.0262349999984,
            "length": 3145,
            "notes": [
                {
                    "name": "F4",
                    "midi": 65,
                    "time": 14.868028500000001,
                    "velocity": 0.5039370078740157,
                    "duration": 0.0879764999999999
                },
                {
                    "name": "F5",
                    "midi": 77,
                    "time": 14.868028500000001,
                    "velocity": 0.5039370078740157,
                    "duration": 0.0879764999999999
                },
                {
                    "name": "G#4",
                    "midi": 68,
                    "time": 15.043981500000001,
                    "velocity": 0.5118110236220472,
                    "duration": 0.0879764999999999
                },
                {
                    "name": "G#5",
                    "midi": 80,
                    "time": 15.043981500000001,
                    "velocity": 0.5118110236220472,
                    "duration": 0.0879764999999999
                },
                {
                    "name": "A5",
                    "midi": 81,
                    "time": 15.2199345,
                    "velocity": 0.5196850393700787,
                    "duration": 0.0879764999999999
                },
                {
                    "name": "A4",
                    "midi": 69,
                    "time": 15.2199345,
                    "velocity": 0.5196850393700787,
                    "duration": 0.0879764999999999
                },
                {
                    "name": "A#5",
                    "midi": 82,
                    "time": 15.3958875,
                    "velocity": 0.5275590551181102,
                    "duration": 0.0879764999999999
                },
                {
                    "name": "A#4",
                    "midi": 70,
                    "time": 15.3958875,
                    "velocity": 0.5275590551181102,
                    "duration": 0.0879764999999999
                },
                {
                    "name": "C#6",
                    "midi": 85,
                    "time": 15.5718405,
                    "velocity": 0.5354330708661418,
                    "duration": 0.0879764999999999
                },
                {
                    "name": "C#5",
                    "midi": 73,
                    "time": 15.5718405,
                    "velocity": 0.5354330708661418,
                    "duration": 0.0879764999999999
                },
                {
                    "name": "D5",
                    "midi": 74,
                    "time": 15.7477935,
                    "velocity": 0.5433070866141733,
                    "duration": 0.0879764999999999
                },
                {
                    "name": "D6",
                    "midi": 86,
                    "time": 15.7477935,
                    "velocity": 0.5433070866141733,
                    "duration": 0.0879764999999999
                },
                {
                    "name": "D#6",
                    "midi": 87,
                    "time": 15.9237465,
                    "velocity": 0.5590551181102362,
                    "duration": 0.0879764999999999
                },
                {
                    "name": "D#5",
                    "midi": 75,
                    "time": 15.9237465,
                    "velocity": 0.5590551181102362,
                    "duration": 0.0879764999999999
                },
                {
                    "name": "E6",
                    "midi": 88,
                    "time": 16.0996995,
                    "velocity": 0.5669291338582677,
                    "duration": 0.0879764999999999
                },
                {
                    "name": "E5",
                    "midi": 76,
                    "time": 16.0996995,
                    "velocity": 0.5669291338582677,
                    "duration": 0.0879764999999999
                },
                {
                    "name": "F6",
                    "midi": 89,
                    "time": 16.2756525,
                    "velocity": 0.5748031496062992,
                    "duration": 0.0879764999999999
                },
                {
                    "name": "F5",
                    "midi": 77,
                    "time": 16.2756525,
                    "velocity": 0.5748031496062992,
                    "duration": 0.0879764999999999
                },
                {
                    "name": "G#6",
                    "midi": 92,
                    "time": 16.4516055,
                    "velocity": 0.5826771653543307,
                    "duration": 0.0879764999999999
                },
                {
                    "name": "G#5",
                    "midi": 80,
                    "time": 16.4516055,
                    "velocity": 0.5826771653543307,
                    "duration": 0.0879764999999999
                },
                {
                    "name": "A6",
                    "midi": 93,
                    "time": 16.6275585,
                    "velocity": 0.5905511811023622,
                    "duration": 0.0879764999999999
                },
                {
                    "name": "A5",
                    "midi": 81,
                    "time": 16.6275585,
                    "velocity": 0.5905511811023622,
                    "duration": 0.0879764999999999
                },
                {
                    "name": "A#6",
                    "midi": 94,
                    "time": 16.8035115,
                    "velocity": 0.5984251968503937,
                    "duration": 0.0879764999999999
                },
                {
                    "name": "A#5",
                    "midi": 82,
                    "time": 16.8035115,
                    "velocity": 0.5984251968503937,
                    "duration": 0.0879764999999999
                },
                {
                    "name": "C#7",
                    "midi": 97,
                    "time": 16.9794645,
                    "velocity": 0.6062992125984252,
                    "duration": 0.0879764999999999
                },
                {
                    "name": "C#6",
                    "midi": 85,
                    "time": 16.9794645,
                    "velocity": 0.6062992125984252,
                    "duration": 0.0879764999999999
                },
                {
                    "name": "D6",
                    "midi": 86,
                    "time": 17.1554175,
                    "velocity": 0.6141732283464567,
                    "duration": 0.0879764999999999
                },
                {
                    "name": "D7",
                    "midi": 98,
                    "time": 17.1554175,
                    "velocity": 0.6141732283464567,
                    "duration": 0.0879764999999999
                },
                {
                    "name": "D#6",
                    "midi": 87,
                    "time": 17.3313705,
                    "velocity": 0.6299212598425197,
                    "duration": 0.0879764999999999
                },
                {
                    "name": "D#7",
                    "midi": 99,
                    "time": 17.3313705,
                    "velocity": 0.6299212598425197,
                    "duration": 0.0879764999999999
                },
                {
                    "name": "E6",
                    "midi": 88,
                    "time": 17.5073235,
                    "velocity": 0.6377952755905512,
                    "duration": 0.0879764999999999
                },
                {
                    "name": "E7",
                    "midi": 100,
                    "time": 17.5073235,
                    "velocity": 0.6377952755905512,
                    "duration": 0.0879764999999999
                },
                {
                    "name": "F6",
                    "midi": 89,
                    "time": 17.683276499999998,
                    "velocity": 0.6456692913385826,
                    "duration": 0.0879764999999999
                },
                {
                    "name": "F7",
                    "midi": 101,
                    "time": 17.683276499999998,
                    "velocity": 0.6456692913385826,
                    "duration": 0.0879764999999999
                },
                {
                    "name": "G#4",
                    "midi": 68,
                    "time": 19.35483,
                    "velocity": 0.6456692913385826,
                    "duration": 0.1759529999999998
                },
                {
                    "name": "G#3",
                    "midi": 56,
                    "time": 19.35483,
                    "velocity": 0.5433070866141733,
                    "duration": 0.1759529999999998
                },
                {
                    "name": "B3",
                    "midi": 59,
                    "time": 19.35483,
                    "velocity": 0.5433070866141733,
                    "duration": 0.1759529999999998
                },
                {
                    "name": "D4",
                    "midi": 62,
                    "time": 19.35483,
                    "velocity": 0.5433070866141733,
                    "duration": 0.1759529999999998
                },
                {
                    "name": "A4",
                    "midi": 69,
                    "time": 19.706736,
                    "velocity": 0.7086614173228346,
                    "duration": 0.1759529999999998
                },
                {
                    "name": "A3",
                    "midi": 57,
                    "time": 19.706736,
                    "velocity": 0.5984251968503937,
                    "duration": 0.1759529999999998
                },
                {
                    "name": "C4",
                    "midi": 60,
                    "time": 19.706736,
                    "velocity": 0.5984251968503937,
                    "duration": 0.1759529999999998
                },
                {
                    "name": "G#4",
                    "midi": 68,
                    "time": 20.058642,
                    "velocity": 0.6535433070866141,
                    "duration": 0.0879764999999999
                },
                {
                    "name": "G#3",
                    "midi": 56,
                    "time": 20.058642,
                    "velocity": 0.5511811023622047,
                    "duration": 0.0879764999999999
                },
                {
                    "name": "B4",
                    "midi": 71,
                    "time": 20.234595,
                    "velocity": 0.5984251968503937,
                    "duration": 0.0879764999999999
                },
                {
                    "name": "B3",
                    "midi": 59,
                    "time": 20.234595,
                    "velocity": 0.5039370078740157,
                    "duration": 0.0879764999999999
                },
                {
                    "name": "A4",
                    "midi": 69,
                    "time": 20.410548,
                    "velocity": 0.6614173228346457,
                    "duration": 0.1759529999999998
                },
                {
                    "name": "A3",
                    "midi": 57,
                    "time": 20.410548,
                    "velocity": 0.5590551181102362,
                    "duration": 0.1759529999999998
                },
                {
                    "name": "C#4",
                    "midi": 61,
                    "time": 20.410548,
                    "velocity": 0.5590551181102362,
                    "duration": 0.1759529999999998
                },
                {
                    "name": "G#4",
                    "midi": 68,
                    "time": 20.762453999999998,
                    "velocity": 0.6377952755905512,
                    "duration": 0.1759529999999998
                },
                {
                    "name": "G#3",
                    "midi": 56,
                    "time": 20.762453999999998,
                    "velocity": 0.5354330708661418,
                    "duration": 0.1759529999999998
                },
                {
                    "name": "B4",
                    "midi": 71,
                    "time": 20.938406999999998,
                    "velocity": 0.5905511811023622,
                    "duration": 0.0879764999999999
                },
                {
                    "name": "B3",
                    "midi": 59,
                    "time": 20.938406999999998,
                    "velocity": 0.49606299212598426,
                    "duration": 0.0879764999999999
                },
                {
                    "name": "D#4",
                    "midi": 63,
                    "time": 21.114359999999998,
                    "velocity": 0.5590551181102362,
                    "duration": 0.0879764999999999
                },
                {
                    "name": "A4",
                    "midi": 69,
                    "time": 21.114359999999998,
                    "velocity": 0.6614173228346457,
                    "duration": 0.0879764999999999
                },
                {
                    "name": "A3",
                    "midi": 57,
                    "time": 21.114359999999998,
                    "velocity": 0.5590551181102362,
                    "duration": 0.0879764999999999
                },
                {
                    "name": "G#4",
                    "midi": 68,
                    "time": 21.466265999999997,
                    "velocity": 0.5905511811023622,
                    "duration": 0.0879764999999999
                },
                {
                    "name": "G#3",
                    "midi": 56,
                    "time": 21.466265999999997,
                    "velocity": 0.49606299212598426,
                    "duration": 0.0879764999999999
                },
                {
                    "name": "D#4",
                    "midi": 63,
                    "time": 21.818171999999997,
                    "velocity": 0.5511811023622047,
                    "duration": 0.7038119999999992
                },
                {
                    "name": "A4",
                    "midi": 69,
                    "time": 21.818171999999997,
                    "velocity": 0.6535433070866141,
                    "duration": 0.7038119999999992
                },
                {
                    "name": "A3",
                    "midi": 57,
                    "time": 21.818171999999997,
                    "velocity": 0.5511811023622047,
                    "duration": 0.7038119999999992
                },
                {
                    "name": "F#4",
                    "midi": 66,
                    "time": 22.521983999999996,
                    "velocity": 0.5511811023622047,
                    "duration": 0.1759529999999998
                },
                {
                    "name": "A4",
                    "midi": 69,
                    "time": 22.521983999999996,
                    "velocity": 0.5511811023622047,
                    "duration": 0.1759529999999998
                },
                {
                    "name": "A3",
                    "midi": 57,
                    "time": 22.521983999999996,
                    "velocity": 0.4645669291338583,
                    "duration": 0.1759529999999998
                },
                {
                    "name": "C#4",
                    "midi": 61,
                    "time": 22.521983999999996,
                    "velocity": 0.4645669291338583,
                    "duration": 0.1759529999999998
                },
                {
                    "name": "G#4",
                    "midi": 68,
                    "time": 22.697936999999996,
                    "velocity": 0.5118110236220472,
                    "duration": 0.1759529999999998
                },
                {
                    "name": "G#3",
                    "midi": 56,
                    "time": 22.697936999999996,
                    "velocity": 0.4330708661417323,
                    "duration": 0.1759529999999998
                },
                {
                    "name": "A4",
                    "midi": 69,
                    "time": 22.873889999999996,
                    "velocity": 0.5590551181102362,
                    "duration": 0.1759529999999998
                },
                {
                    "name": "A3",
                    "midi": 57,
                    "time": 22.873889999999996,
                    "velocity": 0.47244094488188976,
                    "duration": 0.1759529999999998
                },
                {
                    "name": "B4",
                    "midi": 71,
                    "time": 23.049842999999996,
                    "velocity": 0.6062992125984252,
                    "duration": 0.1759529999999998
                },
                {
                    "name": "B3",
                    "midi": 59,
                    "time": 23.049842999999996,
                    "velocity": 0.5118110236220472,
                    "duration": 0.1759529999999998
                },
                {
                    "name": "C5",
                    "midi": 72,
                    "time": 23.225795999999995,
                    "velocity": 0.6377952755905512,
                    "duration": 0.7038119999999992
                },
                {
                    "name": "C4",
                    "midi": 60,
                    "time": 23.225795999999995,
                    "velocity": 0.5354330708661418,
                    "duration": 0.7038119999999992
                },
                {
                    "name": "D#4",
                    "midi": 63,
                    "time": 23.225795999999995,
                    "velocity": 0.5354330708661418,
                    "duration": 0.7038119999999992
                },
                {
                    "name": "F#4",
                    "midi": 66,
                    "time": 23.225795999999995,
                    "velocity": 0.5354330708661418,
                    "duration": 0.7038119999999992
                },
                {
                    "name": "C5",
                    "midi": 72,
                    "time": 23.929607999999995,
                    "velocity": 0.5905511811023622,
                    "duration": 0.1759529999999998
                },
                {
                    "name": "C4",
                    "midi": 60,
                    "time": 23.929607999999995,
                    "velocity": 0.49606299212598426,
                    "duration": 0.1759529999999998
                },
                {
                    "name": "D#4",
                    "midi": 63,
                    "time": 23.929607999999995,
                    "velocity": 0.49606299212598426,
                    "duration": 0.1759529999999998
                },
                {
                    "name": "B4",
                    "midi": 71,
                    "time": 24.105560999999994,
                    "velocity": 0.5669291338582677,
                    "duration": 0.1759529999999998
                },
                {
                    "name": "B3",
                    "midi": 59,
                    "time": 24.105560999999994,
                    "velocity": 0.48031496062992124,
                    "duration": 0.1759529999999998
                },
                {
                    "name": "A4",
                    "midi": 69,
                    "time": 24.281513999999994,
                    "velocity": 0.5748031496062992,
                    "duration": 0.1759529999999998
                },
                {
                    "name": "A3",
                    "midi": 57,
                    "time": 24.281513999999994,
                    "velocity": 0.4881889763779528,
                    "duration": 0.1759529999999998
                },
                {
                    "name": "G#4",
                    "midi": 68,
                    "time": 24.457466999999994,
                    "velocity": 0.5905511811023622,
                    "duration": 0.1759529999999998
                },
                {
                    "name": "G#3",
                    "midi": 56,
                    "time": 24.457466999999994,
                    "velocity": 0.49606299212598426,
                    "duration": 0.1759529999999998
                },
                {
                    "name": "A4",
                    "midi": 69,
                    "time": 24.633419999999994,
                    "velocity": 0.6535433070866141,
                    "duration": 0.5278589999999994
                },
                {
                    "name": "D#4",
                    "midi": 63,
                    "time": 24.633419999999994,
                    "velocity": 0.5511811023622047,
                    "duration": 0.5278589999999994
                },
                {
                    "name": "A3",
                    "midi": 57,
                    "time": 24.633419999999994,
                    "velocity": 0.5511811023622047,
                    "duration": 0.5278589999999994
                },
                {
                    "name": "C5",
                    "midi": 72,
                    "time": 25.161278999999993,
                    "velocity": 0.5590551181102362,
                    "duration": 0.0879764999999999
                },
                {
                    "name": "C4",
                    "midi": 60,
                    "time": 25.161278999999993,
                    "velocity": 0.4645669291338583,
                    "duration": 0.0879764999999999
                },
                {
                    "name": "B4",
                    "midi": 71,
                    "time": 25.337231999999993,
                    "velocity": 0.6692913385826772,
                    "duration": 0.1759529999999998
                },
                {
                    "name": "B3",
                    "midi": 59,
                    "time": 25.337231999999993,
                    "velocity": 0.5590551181102362,
                    "duration": 0.1759529999999998
                },
                {
                    "name": "A4",
                    "midi": 69,
                    "time": 25.513184999999993,
                    "velocity": 0.5590551181102362,
                    "duration": 0.14076239999999984
                },
                {
                    "name": "A3",
                    "midi": 57,
                    "time": 25.513184999999993,
                    "velocity": 0.4645669291338583,
                    "duration": 0.14076239999999984
                },
                {
                    "name": "G4",
                    "midi": 67,
                    "time": 25.689137999999993,
                    "velocity": 0.5590551181102362,
                    "duration": 0.0879764999999999
                },
                {
                    "name": "G3",
                    "midi": 55,
                    "time": 25.689137999999993,
                    "velocity": 0.4645669291338583,
                    "duration": 0.0879764999999999
                },
                {
                    "name": "B4",
                    "midi": 71,
                    "time": 25.865090999999993,
                    "velocity": 0.5590551181102362,
                    "duration": 0.0879764999999999
                },
                {
                    "name": "B3",
                    "midi": 59,
                    "time": 25.865090999999993,
                    "velocity": 0.4645669291338583,
                    "duration": 0.0879764999999999
                },
                {
                    "name": "A4",
                    "midi": 69,
                    "time": 26.041043999999992,
                    "velocity": 0.6692913385826772,
                    "duration": 0.1759529999999998
                },
                {
                    "name": "A3",
                    "midi": 57,
                    "time": 26.041043999999992,
                    "velocity": 0.5590551181102362,
                    "duration": 0.1759529999999998
                },
                {
                    "name": "G4",
                    "midi": 67,
                    "time": 26.216996999999992,
                    "velocity": 0.5669291338582677,
                    "duration": 0.14076239999999984
                },
                {
                    "name": "G3",
                    "midi": 55,
                    "time": 26.216996999999992,
                    "velocity": 0.47244094488188976,
                    "duration": 0.14076239999999984
                },
                {
                    "name": "F4",
                    "midi": 65,
                    "time": 26.392949999999992,
                    "velocity": 0.5669291338582677,
                    "duration": 0.0879764999999999
                },
                {
                    "name": "F3",
                    "midi": 53,
                    "time": 26.392949999999992,
                    "velocity": 0.47244094488188976,
                    "duration": 0.0879764999999999
                },
                {
                    "name": "A4",
                    "midi": 69,
                    "time": 26.56890299999999,
                    "velocity": 0.5748031496062992,
                    "duration": 0.0879764999999999
                },
                {
                    "name": "A3",
                    "midi": 57,
                    "time": 26.56890299999999,
                    "velocity": 0.48031496062992124,
                    "duration": 0.0879764999999999
                },
                {
                    "name": "G4",
                    "midi": 67,
                    "time": 26.74485599999999,
                    "velocity": 0.7007874015748031,
                    "duration": 0.1759529999999998
                },
                {
                    "name": "G3",
                    "midi": 55,
                    "time": 26.74485599999999,
                    "velocity": 0.5905511811023622,
                    "duration": 0.1759529999999998
                },
                {
                    "name": "F4",
                    "midi": 65,
                    "time": 26.92080899999999,
                    "velocity": 0.5748031496062992,
                    "duration": 0.14076239999999984
                },
                {
                    "name": "F3",
                    "midi": 53,
                    "time": 26.92080899999999,
                    "velocity": 0.48031496062992124,
                    "duration": 0.14076239999999984
                },
                {
                    "name": "E4",
                    "midi": 64,
                    "time": 27.09676199999999,
                    "velocity": 0.5748031496062992,
                    "duration": 0.0879764999999999
                },
                {
                    "name": "E3",
                    "midi": 52,
                    "time": 27.09676199999999,
                    "velocity": 0.48031496062992124,
                    "duration": 0.0879764999999999
                },
                {
                    "name": "G4",
                    "midi": 67,
                    "time": 27.27271499999999,
                    "velocity": 0.5748031496062992,
                    "duration": 0.0879764999999999
                },
                {
                    "name": "G3",
                    "midi": 55,
                    "time": 27.27271499999999,
                    "velocity": 0.48031496062992124,
                    "duration": 0.0879764999999999
                },
                {
                    "name": "F4",
                    "midi": 65,
                    "time": 27.44866799999999,
                    "velocity": 0.7086614173228346,
                    "duration": 0.1759529999999998
                },
                {
                    "name": "F3",
                    "midi": 53,
                    "time": 27.44866799999999,
                    "velocity": 0.5984251968503937,
                    "duration": 0.1759529999999998
                },
                {
                    "name": "E4",
                    "midi": 64,
                    "time": 27.62462099999999,
                    "velocity": 0.5748031496062992,
                    "duration": 0.14076239999999984
                },
                {
                    "name": "E3",
                    "midi": 52,
                    "time": 27.62462099999999,
                    "velocity": 0.48031496062992124,
                    "duration": 0.14076239999999984
                },
                {
                    "name": "D#4",
                    "midi": 63,
                    "time": 27.80057399999999,
                    "velocity": 0.5748031496062992,
                    "duration": 0.0879764999999999
                },
                {
                    "name": "D#3",
                    "midi": 51,
                    "time": 27.80057399999999,
                    "velocity": 0.48031496062992124,
                    "duration": 0.0879764999999999
                },
                {
                    "name": "F4",
                    "midi": 65,
                    "time": 27.97652699999999,
                    "velocity": 0.5748031496062992,
                    "duration": 0.0879764999999999
                },
                {
                    "name": "F3",
                    "midi": 53,
                    "time": 27.97652699999999,
                    "velocity": 0.48031496062992124,
                    "duration": 0.0879764999999999
                },
                {
                    "name": "F4",
                    "midi": 65,
                    "time": 28.15247999999999,
                    "velocity": 0.7007874015748031,
                    "duration": 0.1759529999999998
                },
                {
                    "name": "F3",
                    "midi": 53,
                    "time": 28.15247999999999,
                    "velocity": 0.5905511811023622,
                    "duration": 0.1759529999999998
                },
                {
                    "name": "E4",
                    "midi": 64,
                    "time": 28.32843299999999,
                    "velocity": 0.5748031496062992,
                    "duration": 0.14076239999999984
                },
                {
                    "name": "E3",
                    "midi": 52,
                    "time": 28.32843299999999,
                    "velocity": 0.48031496062992124,
                    "duration": 0.14076239999999984
                },
                {
                    "name": "E4",
                    "midi": 64,
                    "time": 28.50438599999999,
                    "velocity": 0.5748031496062992,
                    "duration": 0.0879764999999999
                },
                {
                    "name": "E3",
                    "midi": 52,
                    "time": 28.50438599999999,
                    "velocity": 0.48031496062992124,
                    "duration": 0.0879764999999999
                },
                {
                    "name": "D#4",
                    "midi": 63,
                    "time": 28.68033899999999,
                    "velocity": 0.5748031496062992,
                    "duration": 0.0879764999999999
                },
                {
                    "name": "D#3",
                    "midi": 51,
                    "time": 28.68033899999999,
                    "velocity": 0.48031496062992124,
                    "duration": 0.0879764999999999
                },
                {
                    "name": "F4",
                    "midi": 65,
                    "time": 28.85629199999999,
                    "velocity": 0.7244094488188977,
                    "duration": 0.1759529999999998
                },
                {
                    "name": "F3",
                    "midi": 53,
                    "time": 28.85629199999999,
                    "velocity": 0.6062992125984252,
                    "duration": 0.1759529999999998
                },
                {
                    "name": "E4",
                    "midi": 64,
                    "time": 29.03224499999999,
                    "velocity": 0.5748031496062992,
                    "duration": 0.14076239999999984
                },
                {
                    "name": "E3",
                    "midi": 52,
                    "time": 29.03224499999999,
                    "velocity": 0.48031496062992124,
                    "duration": 0.14076239999999984
                },
                {
                    "name": "E4",
                    "midi": 64,
                    "time": 29.20819799999999,
                    "velocity": 0.5748031496062992,
                    "duration": 0.0879764999999999
                },
                {
                    "name": "E3",
                    "midi": 52,
                    "time": 29.20819799999999,
                    "velocity": 0.48031496062992124,
                    "duration": 0.0879764999999999
                },
                {
                    "name": "D#4",
                    "midi": 63,
                    "time": 29.38415099999999,
                    "velocity": 0.5748031496062992,
                    "duration": 0.0879764999999999
                },
                {
                    "name": "D#3",
                    "midi": 51,
                    "time": 29.38415099999999,
                    "velocity": 0.48031496062992124,
                    "duration": 0.0879764999999999
                },
                {
                    "name": "E4",
                    "midi": 64,
                    "time": 29.56010399999999,
                    "velocity": 0.7007874015748031,
                    "duration": 0.7038119999999992
                },
                {
                    "name": "E3",
                    "midi": 52,
                    "time": 29.56010399999999,
                    "velocity": 0.5905511811023622,
                    "duration": 0.7038119999999992
                },
                {
                    "name": "E5",
                    "midi": 76,
                    "time": 30.263915999999988,
                    "velocity": 0.6771653543307087,
                    "duration": 0.1759529999999998
                },
                {
                    "name": "B4",
                    "midi": 71,
                    "time": 30.263915999999988,
                    "velocity": 0.5669291338582677,
                    "duration": 0.1759529999999998
                },
                {
                    "name": "G#4",
                    "midi": 68,
                    "time": 30.263915999999988,
                    "velocity": 0.5669291338582677,
                    "duration": 0.1759529999999998
                },
                {
                    "name": "E4",
                    "midi": 64,
                    "time": 30.263915999999988,
                    "velocity": 0.5669291338582677,
                    "duration": 0.1759529999999998
                },
                {
                    "name": "E5",
                    "midi": 76,
                    "time": 30.615821999999987,
                    "velocity": 0.6141732283464567,
                    "duration": 0.11730199999999869
                },
                {
                    "name": "F#5",
                    "midi": 78,
                    "time": 30.733123999999986,
                    "velocity": 0.6377952755905512,
                    "duration": 0.11730199999999869
                },
                {
                    "name": "G#5",
                    "midi": 80,
                    "time": 30.850425999999985,
                    "velocity": 0.6614173228346457,
                    "duration": 0.11730199999999869
                },
                {
                    "name": "A5",
                    "midi": 81,
                    "time": 30.967727999999983,
                    "velocity": 0.7401574803149606,
                    "duration": 0.1759529999999998
                },
                {
                    "name": "A4",
                    "midi": 69,
                    "time": 30.967727999999983,
                    "velocity": 0.6220472440944882,
                    "duration": 0.1759529999999998
                },
                {
                    "name": "B4",
                    "midi": 71,
                    "time": 31.319633999999983,
                    "velocity": 0.5196850393700787,
                    "duration": 0.0879764999999999
                },
                {
                    "name": "G#5",
                    "midi": 80,
                    "time": 31.319633999999983,
                    "velocity": 0.6062992125984252,
                    "duration": 0.0879764999999999
                },
                {
                    "name": "G#4",
                    "midi": 68,
                    "time": 31.319633999999983,
                    "velocity": 0.5196850393700787,
                    "duration": 0.0879764999999999
                },
                {
                    "name": "D5",
                    "midi": 74,
                    "time": 31.495586999999983,
                    "velocity": 0.4645669291338583,
                    "duration": 0.0879764999999999
                },
                {
                    "name": "B5",
                    "midi": 83,
                    "time": 31.495586999999983,
                    "velocity": 0.5590551181102362,
                    "duration": 0.0879764999999999
                },
                {
                    "name": "B4",
                    "midi": 71,
                    "time": 31.495586999999983,
                    "velocity": 0.4645669291338583,
                    "duration": 0.0879764999999999
                },
                {
                    "name": "A5",
                    "midi": 81,
                    "time": 31.671539999999982,
                    "velocity": 0.6929133858267716,
                    "duration": 0.1759529999999998
                },
                {
                    "name": "A4",
                    "midi": 69,
                    "time": 31.671539999999982,
                    "velocity": 0.5826771653543307,
                    "duration": 0.1759529999999998
                },
                {
                    "name": "C5",
                    "midi": 72,
                    "time": 31.671539999999982,
                    "velocity": 0.5826771653543307,
                    "duration": 0.1759529999999998
                },
                {
                    "name": "B4",
                    "midi": 71,
                    "time": 32.023445999999986,
                    "velocity": 0.5039370078740157,
                    "duration": 0.08797650000000345
                },
                {
                    "name": "G#5",
                    "midi": 80,
                    "time": 32.023445999999986,
                    "velocity": 0.5905511811023622,
                    "duration": 0.08797650000000345
                },
                {
                    "name": "G#4",
                    "midi": 68,
                    "time": 32.023445999999986,
                    "velocity": 0.5039370078740157,
                    "duration": 0.08797650000000345
                },
                {
                    "name": "D5",
                    "midi": 74,
                    "time": 32.19939899999999,
                    "velocity": 0.4566929133858268,
                    "duration": 0.08797650000000345
                },
                {
                    "name": "B5",
                    "midi": 83,
                    "time": 32.19939899999999,
                    "velocity": 0.5511811023622047,
                    "duration": 0.08797650000000345
                },
                {
                    "name": "B4",
                    "midi": 71,
                    "time": 32.19939899999999,
                    "velocity": 0.4566929133858268,
                    "duration": 0.08797650000000345
                },
                {
                    "name": "C5",
                    "midi": 72,
                    "time": 32.375352,
                    "velocity": 0.5826771653543307,
                    "duration": 0.08797650000000345
                },
                {
                    "name": "A5",
                    "midi": 81,
                    "time": 32.375352,
                    "velocity": 0.6929133858267716,
                    "duration": 0.08797650000000345
                },
                {
                    "name": "A4",
                    "midi": 69,
                    "time": 32.375352,
                    "velocity": 0.5826771653543307,
                    "duration": 0.08797650000000345
                },
                {
                    "name": "B4",
                    "midi": 71,
                    "time": 32.727258000000006,
                    "velocity": 0.47244094488188976,
                    "duration": 0.08797650000000345
                },
                {
                    "name": "G#5",
                    "midi": 80,
                    "time": 32.727258000000006,
                    "velocity": 0.5748031496062992,
                    "duration": 0.08797650000000345
                },
                {
                    "name": "G#4",
                    "midi": 68,
                    "time": 32.727258000000006,
                    "velocity": 0.47244094488188976,
                    "duration": 0.08797650000000345
                },
                {
                    "name": "C5",
                    "midi": 72,
                    "time": 33.07916400000001,
                    "velocity": 0.5748031496062992,
                    "duration": 0.7038119999999992
                },
                {
                    "name": "A5",
                    "midi": 81,
                    "time": 33.07916400000001,
                    "velocity": 0.6850393700787402,
                    "duration": 0.7038119999999992
                },
                {
                    "name": "A4",
                    "midi": 69,
                    "time": 33.07916400000001,
                    "velocity": 0.5748031496062992,
                    "duration": 0.7038119999999992
                },
                {
                    "name": "F6",
                    "midi": 89,
                    "time": 33.78297600000001,
                    "velocity": 0.5511811023622047,
                    "duration": 0.1759529999999998
                },
                {
                    "name": "A6",
                    "midi": 93,
                    "time": 33.78297600000001,
                    "velocity": 0.5511811023622047,
                    "duration": 0.1759529999999998
                },
                {
                    "name": "A5",
                    "midi": 81,
                    "time": 33.78297600000001,
                    "velocity": 0.4645669291338583,
                    "duration": 0.1759529999999998
                },
                {
                    "name": "C6",
                    "midi": 84,
                    "time": 33.78297600000001,
                    "velocity": 0.4645669291338583,
                    "duration": 0.1759529999999998
                },
                {
                    "name": "G#6",
                    "midi": 92,
                    "time": 33.95892900000001,
                    "velocity": 0.5118110236220472,
                    "duration": 0.1759529999999998
                },
                {
                    "name": "G#5",
                    "midi": 80,
                    "time": 33.95892900000001,
                    "velocity": 0.4330708661417323,
                    "duration": 0.1759529999999998
                },
                {
                    "name": "A6",
                    "midi": 93,
                    "time": 34.13488200000001,
                    "velocity": 0.5669291338582677,
                    "duration": 0.1759529999999998
                },
                {
                    "name": "A5",
                    "midi": 81,
                    "time": 34.13488200000001,
                    "velocity": 0.47244094488188976,
                    "duration": 0.1759529999999998
                },
                {
                    "name": "B6",
                    "midi": 95,
                    "time": 34.31083500000001,
                    "velocity": 0.6062992125984252,
                    "duration": 0.1759529999999998
                },
                {
                    "name": "B5",
                    "midi": 83,
                    "time": 34.31083500000001,
                    "velocity": 0.5118110236220472,
                    "duration": 0.1759529999999998
                },
                {
                    "name": "C7",
                    "midi": 96,
                    "time": 34.48678800000001,
                    "velocity": 0.6456692913385826,
                    "duration": 0.7038119999999992
                },
                {
                    "name": "C6",
                    "midi": 84,
                    "time": 34.48678800000001,
                    "velocity": 0.5433070866141733,
                    "duration": 0.7038119999999992
                },
                {
                    "name": "E6",
                    "midi": 88,
                    "time": 34.48678800000001,
                    "velocity": 0.5433070866141733,
                    "duration": 0.7038119999999992
                },
                {
                    "name": "C7",
                    "midi": 96,
                    "time": 35.19060000000001,
                    "velocity": 0.5905511811023622,
                    "duration": 0.1759529999999998
                },
                {
                    "name": "C6",
                    "midi": 84,
                    "time": 35.19060000000001,
                    "velocity": 0.49606299212598426,
                    "duration": 0.1759529999999998
                },
                {
                    "name": "F6",
                    "midi": 89,
                    "time": 35.19060000000001,
                    "velocity": 0.49606299212598426,
                    "duration": 0.1759529999999998
                },
                {
                    "name": "B6",
                    "midi": 95,
                    "time": 35.36655300000001,
                    "velocity": 0.5669291338582677,
                    "duration": 0.1759529999999998
                },
                {
                    "name": "B5",
                    "midi": 83,
                    "time": 35.36655300000001,
                    "velocity": 0.48031496062992124,
                    "duration": 0.1759529999999998
                },
                {
                    "name": "A6",
                    "midi": 93,
                    "time": 35.54250600000001,
                    "velocity": 0.5826771653543307,
                    "duration": 0.1759529999999998
                },
                {
                    "name": "A5",
                    "midi": 81,
                    "time": 35.54250600000001,
                    "velocity": 0.49606299212598426,
                    "duration": 0.1759529999999998
                },
                {
                    "name": "G#6",
                    "midi": 92,
                    "time": 35.71845900000001,
                    "velocity": 0.5905511811023622,
                    "duration": 0.1759529999999998
                },
                {
                    "name": "G#5",
                    "midi": 80,
                    "time": 35.71845900000001,
                    "velocity": 0.5039370078740157,
                    "duration": 0.1759529999999998
                },
                {
                    "name": "C6",
                    "midi": 84,
                    "time": 35.89441200000001,
                    "velocity": 0.5590551181102362,
                    "duration": 0.5278589999999994
                },
                {
                    "name": "A6",
                    "midi": 93,
                    "time": 35.89441200000001,
                    "velocity": 0.6614173228346457,
                    "duration": 0.5278589999999994
                },
                {
                    "name": "E6",
                    "midi": 88,
                    "time": 35.89441200000001,
                    "velocity": 0.5590551181102362,
                    "duration": 0.5278589999999994
                },
                {
                    "name": "A5",
                    "midi": 81,
                    "time": 35.89441200000001,
                    "velocity": 0.5590551181102362,
                    "duration": 0.5278589999999994
                },
                {
                    "name": "C7",
                    "midi": 96,
                    "time": 36.42227100000001,
                    "velocity": 0.5590551181102362,
                    "duration": 0.1759529999999998
                },
                {
                    "name": "C6",
                    "midi": 84,
                    "time": 36.42227100000001,
                    "velocity": 0.4645669291338583,
                    "duration": 0.1759529999999998
                },
                {
                    "name": "B6",
                    "midi": 95,
                    "time": 36.59822400000001,
                    "velocity": 0.6062992125984252,
                    "duration": 0.1759529999999998
                },
                {
                    "name": "B5",
                    "midi": 83,
                    "time": 36.59822400000001,
                    "velocity": 0.5118110236220472,
                    "duration": 0.1759529999999998
                },
                {
                    "name": "A6",
                    "midi": 93,
                    "time": 36.77417700000001,
                    "velocity": 0.5590551181102362,
                    "duration": 0.14076239999999984
                },
                {
                    "name": "A5",
                    "midi": 81,
                    "time": 36.77417700000001,
                    "velocity": 0.4645669291338583,
                    "duration": 0.14076239999999984
                },
                {
                    "name": "G#6",
                    "midi": 92,
                    "time": 36.95013000000001,
                    "velocity": 0.5590551181102362,
                    "duration": 0.08797650000000345
                },
                {
                    "name": "G#5",
                    "midi": 80,
                    "time": 36.95013000000001,
                    "velocity": 0.4645669291338583,
                    "duration": 0.08797650000000345
                },
                {
                    "name": "B6",
                    "midi": 95,
                    "time": 37.126083000000015,
                    "velocity": 0.5590551181102362,
                    "duration": 0.08797650000000345
                },
                {
                    "name": "B5",
                    "midi": 83,
                    "time": 37.126083000000015,
                    "velocity": 0.4645669291338583,
                    "duration": 0.08797650000000345
                },
                {
                    "name": "A6",
                    "midi": 93,
                    "time": 37.30203600000002,
                    "velocity": 0.6062992125984252,
                    "duration": 0.1759529999999998
                },
                {
                    "name": "A5",
                    "midi": 81,
                    "time": 37.30203600000002,
                    "velocity": 0.5118110236220472,
                    "duration": 0.1759529999999998
                },
                {
                    "name": "C#6",
                    "midi": 85,
                    "time": 37.47798900000002,
                    "velocity": 0.5669291338582677,
                    "duration": 0.14076239999999984
                },
                {
                    "name": "C#5",
                    "midi": 73,
                    "time": 37.47798900000002,
                    "velocity": 0.47244094488188976,
                    "duration": 0.14076239999999984
                },
                {
                    "name": "F#6",
                    "midi": 90,
                    "time": 37.65394200000002,
                    "velocity": 0.5669291338582677,
                    "duration": 0.08797650000000345
                },
                {
                    "name": "F#5",
                    "midi": 78,
                    "time": 37.65394200000002,
                    "velocity": 0.47244094488188976,
                    "duration": 0.08797650000000345
                },
                {
                    "name": "A6",
                    "midi": 93,
                    "time": 37.82989500000003,
                    "velocity": 0.5748031496062992,
                    "duration": 0.08797650000000345
                },
                {
                    "name": "A5",
                    "midi": 81,
                    "time": 37.82989500000003,
                    "velocity": 0.48031496062992124,
                    "duration": 0.08797650000000345
                },
                {
                    "name": "G#6",
                    "midi": 92,
                    "time": 38.005848000000036,
                    "velocity": 0.6377952755905512,
                    "duration": 0.1759529999999998
                },
                {
                    "name": "G#5",
                    "midi": 80,
                    "time": 38.005848000000036,
                    "velocity": 0.5433070866141733,
                    "duration": 0.1759529999999998
                },
                {
                    "name": "F#6",
                    "midi": 90,
                    "time": 38.181801000000036,
                    "velocity": 0.5748031496062992,
                    "duration": 0.14076239999999984
                },
                {
                    "name": "F#5",
                    "midi": 78,
                    "time": 38.181801000000036,
                    "velocity": 0.48031496062992124,
                    "duration": 0.14076239999999984
                },
                {
                    "name": "E6",
                    "midi": 88,
                    "time": 38.357754000000035,
                    "velocity": 0.5748031496062992,
                    "duration": 0.08797650000000345
                },
                {
                    "name": "E5",
                    "midi": 76,
                    "time": 38.357754000000035,
                    "velocity": 0.48031496062992124,
                    "duration": 0.08797650000000345
                },
                {
                    "name": "G#6",
                    "midi": 92,
                    "time": 38.53370700000004,
                    "velocity": 0.5748031496062992,
                    "duration": 0.08797650000000345
                },
                {
                    "name": "G#5",
                    "midi": 80,
                    "time": 38.53370700000004,
                    "velocity": 0.48031496062992124,
                    "duration": 0.08797650000000345
                },
                {
                    "name": "F#6",
                    "midi": 90,
                    "time": 38.70966000000005,
                    "velocity": 0.6456692913385826,
                    "duration": 0.1759529999999998
                },
                {
                    "name": "F#5",
                    "midi": 78,
                    "time": 38.70966000000005,
                    "velocity": 0.5511811023622047,
                    "duration": 0.1759529999999998
                },
                {
                    "name": "E6",
                    "midi": 88,
                    "time": 38.88561300000005,
                    "velocity": 0.5748031496062992,
                    "duration": 0.14076239999999984
                },
                {
                    "name": "E5",
                    "midi": 76,
                    "time": 38.88561300000005,
                    "velocity": 0.48031496062992124,
                    "duration": 0.14076239999999984
                },
                {
                    "name": "D#6",
                    "midi": 87,
                    "time": 39.06156600000005,
                    "velocity": 0.5748031496062992,
                    "duration": 0.08797650000000345
                },
                {
                    "name": "D#5",
                    "midi": 75,
                    "time": 39.06156600000005,
                    "velocity": 0.48031496062992124,
                    "duration": 0.08797650000000345
                },
                {
                    "name": "F#6",
                    "midi": 90,
                    "time": 39.237519000000056,
                    "velocity": 0.5748031496062992,
                    "duration": 0.08797650000000345
                },
                {
                    "name": "F#5",
                    "midi": 78,
                    "time": 39.237519000000056,
                    "velocity": 0.48031496062992124,
                    "duration": 0.08797650000000345
                },
                {
                    "name": "F#6",
                    "midi": 90,
                    "time": 39.41347200000006,
                    "velocity": 0.6377952755905512,
                    "duration": 0.1759529999999998
                },
                {
                    "name": "F#5",
                    "midi": 78,
                    "time": 39.41347200000006,
                    "velocity": 0.5433070866141733,
                    "duration": 0.1759529999999998
                },
                {
                    "name": "E6",
                    "midi": 88,
                    "time": 39.58942500000006,
                    "velocity": 0.5748031496062992,
                    "duration": 0.14076239999999984
                },
                {
                    "name": "E5",
                    "midi": 76,
                    "time": 39.58942500000006,
                    "velocity": 0.48031496062992124,
                    "duration": 0.14076239999999984
                },
                {
                    "name": "E6",
                    "midi": 88,
                    "time": 39.76537800000006,
                    "velocity": 0.5748031496062992,
                    "duration": 0.08797650000000345
                },
                {
                    "name": "E5",
                    "midi": 76,
                    "time": 39.76537800000006,
                    "velocity": 0.48031496062992124,
                    "duration": 0.08797650000000345
                },
                {
                    "name": "D#6",
                    "midi": 87,
                    "time": 39.94133100000007,
                    "velocity": 0.5748031496062992,
                    "duration": 0.08797650000000345
                },
                {
                    "name": "D#5",
                    "midi": 75,
                    "time": 39.94133100000007,
                    "velocity": 0.48031496062992124,
                    "duration": 0.08797650000000345
                },
                {
                    "name": "F#6",
                    "midi": 90,
                    "time": 40.117284000000076,
                    "velocity": 0.6614173228346457,
                    "duration": 0.1759529999999998
                },
                {
                    "name": "F#5",
                    "midi": 78,
                    "time": 40.117284000000076,
                    "velocity": 0.5590551181102362,
                    "duration": 0.1759529999999998
                },
                {
                    "name": "E6",
                    "midi": 88,
                    "time": 40.293237000000076,
                    "velocity": 0.5748031496062992,
                    "duration": 0.14076239999999984
                },
                {
                    "name": "E5",
                    "midi": 76,
                    "time": 40.293237000000076,
                    "velocity": 0.48031496062992124,
                    "duration": 0.14076239999999984
                },
                {
                    "name": "E6",
                    "midi": 88,
                    "time": 40.469190000000076,
                    "velocity": 0.5748031496062992,
                    "duration": 0.08797650000000345
                },
                {
                    "name": "E5",
                    "midi": 76,
                    "time": 40.469190000000076,
                    "velocity": 0.48031496062992124,
                    "duration": 0.08797650000000345
                },
                {
                    "name": "D#6",
                    "midi": 87,
                    "time": 40.64514300000008,
                    "velocity": 0.5748031496062992,
                    "duration": 0.08797650000000345
                },
                {
                    "name": "D#5",
                    "midi": 75,
                    "time": 40.64514300000008,
                    "velocity": 0.48031496062992124,
                    "duration": 0.08797650000000345
                },
                {
                    "name": "B5",
                    "midi": 83,
                    "time": 40.82109600000009,
                    "velocity": 0.5905511811023622,
                    "duration": 0.7038119999999992
                },
                {
                    "name": "G#5",
                    "midi": 80,
                    "time": 40.82109600000009,
                    "velocity": 0.5905511811023622,
                    "duration": 0.7038119999999992
                },
                {
                    "name": "E6",
                    "midi": 88,
                    "time": 40.82109600000009,
                    "velocity": 0.7007874015748031,
                    "duration": 0.7038119999999992
                },
                {
                    "name": "E5",
                    "midi": 76,
                    "time": 40.82109600000009,
                    "velocity": 0.5905511811023622,
                    "duration": 0.7038119999999992
                },
                {
                    "name": "E7",
                    "midi": 100,
                    "time": 41.52490800000009,
                    "velocity": 0.6771653543307087,
                    "duration": 0.1759529999999998
                },
                {
                    "name": "B6",
                    "midi": 95,
                    "time": 41.52490800000009,
                    "velocity": 0.5669291338582677,
                    "duration": 0.1759529999999998
                },
                {
                    "name": "G#6",
                    "midi": 92,
                    "time": 41.52490800000009,
                    "velocity": 0.5669291338582677,
                    "duration": 0.1759529999999998
                },
                {
                    "name": "E6",
                    "midi": 88,
                    "time": 41.52490800000009,
                    "velocity": 0.5669291338582677,
                    "duration": 0.1759529999999998
                },
                {
                    "name": "E4",
                    "midi": 64,
                    "time": 42.14074350000009,
                    "velocity": 0.6377952755905512,
                    "duration": 0.08797650000000345
                },
                {
                    "name": "E4",
                    "midi": 64,
                    "time": 42.228720000000095,
                    "velocity": 0.6929133858267716,
                    "duration": 0.1759529999999998
                },
                {
                    "name": "G#4",
                    "midi": 68,
                    "time": 42.932532000000094,
                    "velocity": 0.6377952755905512,
                    "duration": 0.1759529999999998
                },
                {
                    "name": "E4",
                    "midi": 64,
                    "time": 42.932532000000094,
                    "velocity": 0.5354330708661418,
                    "duration": 0.1759529999999998
                },
                {
                    "name": "B4",
                    "midi": 71,
                    "time": 43.63634400000009,
                    "velocity": 0.6929133858267716,
                    "duration": 1.319647500000002
                },
                {
                    "name": "D#4",
                    "midi": 63,
                    "time": 43.63634400000009,
                    "velocity": 0.5826771653543307,
                    "duration": 1.319647500000002
                },
                {
                    "name": "G#4",
                    "midi": 68,
                    "time": 43.63634400000009,
                    "velocity": 0.5826771653543307,
                    "duration": 1.319647500000002
                },
                {
                    "name": "E5",
                    "midi": 76,
                    "time": 44.955991500000096,
                    "velocity": 0.6377952755905512,
                    "duration": 0.08797650000000345
                },
                {
                    "name": "E4",
                    "midi": 64,
                    "time": 44.955991500000096,
                    "velocity": 0.5354330708661418,
                    "duration": 0.08797650000000345
                },
                {
                    "name": "G#4",
                    "midi": 68,
                    "time": 44.955991500000096,
                    "velocity": 0.5354330708661418,
                    "duration": 0.08797650000000345
                },
                {
                    "name": "G#4",
                    "midi": 68,
                    "time": 45.0439680000001,
                    "velocity": 0.5826771653543307,
                    "duration": 0.6158355000000029
                },
                {
                    "name": "B4",
                    "midi": 71,
                    "time": 45.0439680000001,
                    "velocity": 0.6929133858267716,
                    "duration": 0.6158355000000029
                },
                {
                    "name": "D#4",
                    "midi": 63,
                    "time": 45.0439680000001,
                    "velocity": 0.5826771653543307,
                    "duration": 0.6158355000000029
                },
                {
                    "name": "E5",
                    "midi": 76,
                    "time": 45.6598035000001,
                    "velocity": 0.6456692913385826,
                    "duration": 0.08797650000000345
                },
                {
                    "name": "E4",
                    "midi": 64,
                    "time": 45.6598035000001,
                    "velocity": 0.5433070866141733,
                    "duration": 0.08797650000000345
                },
                {
                    "name": "G#4",
                    "midi": 68,
                    "time": 45.6598035000001,
                    "velocity": 0.5433070866141733,
                    "duration": 0.08797650000000345
                },
                {
                    "name": "B4",
                    "midi": 71,
                    "time": 45.747780000000105,
                    "velocity": 0.6929133858267716,
                    "duration": 0.6158355000000029
                },
                {
                    "name": "D#4",
                    "midi": 63,
                    "time": 45.747780000000105,
                    "velocity": 0.5826771653543307,
                    "duration": 0.6158355000000029
                },
                {
                    "name": "G#4",
                    "midi": 68,
                    "time": 45.747780000000105,
                    "velocity": 0.5826771653543307,
                    "duration": 0.6158355000000029
                },
                {
                    "name": "E5",
                    "midi": 76,
                    "time": 46.36361550000011,
                    "velocity": 0.6377952755905512,
                    "duration": 0.08797650000000345
                },
                {
                    "name": "E4",
                    "midi": 64,
                    "time": 46.36361550000011,
                    "velocity": 0.5354330708661418,
                    "duration": 0.08797650000000345
                },
                {
                    "name": "G#4",
                    "midi": 68,
                    "time": 46.36361550000011,
                    "velocity": 0.5354330708661418,
                    "duration": 0.08797650000000345
                },
                {
                    "name": "B4",
                    "midi": 71,
                    "time": 46.45159200000011,
                    "velocity": 0.6929133858267716,
                    "duration": 1.4076239999999984
                },
                {
                    "name": "D#4",
                    "midi": 63,
                    "time": 46.45159200000011,
                    "velocity": 0.5826771653543307,
                    "duration": 1.4076239999999984
                },
                {
                    "name": "G#4",
                    "midi": 68,
                    "time": 46.45159200000011,
                    "velocity": 0.5826771653543307,
                    "duration": 1.4076239999999984
                },
                {
                    "name": "E5",
                    "midi": 76,
                    "time": 47.85921600000011,
                    "velocity": 0.7086614173228346,
                    "duration": 0.13196475000000163
                },
                {
                    "name": "D4",
                    "midi": 62,
                    "time": 47.85921600000011,
                    "velocity": 0.5826771653543307,
                    "duration": 0.13196475000000163
                },
                {
                    "name": "E4",
                    "midi": 64,
                    "time": 47.85921600000011,
                    "velocity": 0.5826771653543307,
                    "duration": 0.13196475000000163
                },
                {
                    "name": "G#4",
                    "midi": 68,
                    "time": 47.85921600000011,
                    "velocity": 0.5826771653543307,
                    "duration": 0.13196475000000163
                },
                {
                    "name": "B4",
                    "midi": 71,
                    "time": 47.85921600000011,
                    "velocity": 0.5826771653543307,
                    "duration": 0.13196475000000163
                },
                {
                    "name": "E5",
                    "midi": 76,
                    "time": 48.91493400000011,
                    "velocity": 0.3937007874015748,
                    "duration": 0.3519059999999996
                },
                {
                    "name": "C6",
                    "midi": 84,
                    "time": 49.26684000000011,
                    "velocity": 0.44881889763779526,
                    "duration": 0.1759529999999998
                },
                {
                    "name": "E6",
                    "midi": 88,
                    "time": 49.44279300000011,
                    "velocity": 0.3937007874015748,
                    "duration": 0.1759529999999998
                },
                {
                    "name": "C6",
                    "midi": 84,
                    "time": 49.61874600000011,
                    "velocity": 0.4330708661417323,
                    "duration": 0.1759529999999998
                },
                {
                    "name": "E5",
                    "midi": 76,
                    "time": 49.61874600000011,
                    "velocity": 0.31496062992125984,
                    "duration": 0.1759529999999998
                },
                {
                    "name": "F5",
                    "midi": 77,
                    "time": 49.79469900000011,
                    "velocity": 0.31496062992125984,
                    "duration": 0.08797650000000345
                },
                {
                    "name": "B5",
                    "midi": 83,
                    "time": 49.970652000000115,
                    "velocity": 0.4330708661417323,
                    "duration": 0.1759529999999998
                },
                {
                    "name": "E5",
                    "midi": 76,
                    "time": 49.970652000000115,
                    "velocity": 0.31496062992125984,
                    "duration": 0.3519059999999996
                },
                {
                    "name": "D6",
                    "midi": 86,
                    "time": 50.146605000000115,
                    "velocity": 0.3937007874015748,
                    "duration": 0.1759529999999998
                },
                {
                    "name": "B5",
                    "midi": 83,
                    "time": 50.322558000000114,
                    "velocity": 0.41732283464566927,
                    "duration": 0.1759529999999998
                },
                {
                    "name": "D5",
                    "midi": 74,
                    "time": 50.322558000000114,
                    "velocity": 0.31496062992125984,
                    "duration": 0.1759529999999998
                },
                {
                    "name": "E5",
                    "midi": 76,
                    "time": 50.498511000000114,
                    "velocity": 0.31496062992125984,
                    "duration": 0.08797650000000345
                },
                {
                    "name": "A5",
                    "midi": 81,
                    "time": 50.67446400000012,
                    "velocity": 0.4251968503937008,
                    "duration": 0.1759529999999998
                },
                {
                    "name": "D5",
                    "midi": 74,
                    "time": 50.67446400000012,
                    "velocity": 0.31496062992125984,
                    "duration": 0.3519059999999996
                },
                {
                    "name": "C6",
                    "midi": 84,
                    "time": 50.85041700000012,
                    "velocity": 0.3937007874015748,
                    "duration": 0.1759529999999998
                },
                {
                    "name": "A5",
                    "midi": 81,
                    "time": 51.02637000000012,
                    "velocity": 0.44881889763779526,
                    "duration": 0.1759529999999998
                },
                {
                    "name": "C5",
                    "midi": 72,
                    "time": 51.02637000000012,
                    "velocity": 0.31496062992125984,
                    "duration": 0.1759529999999998
                },
                {
                    "name": "D5",
                    "midi": 74,
                    "time": 51.20232300000012,
                    "velocity": 0.31496062992125984,
                    "duration": 0.08797650000000345
                },
                {
                    "name": "G#5",
                    "midi": 80,
                    "time": 51.37827600000013,
                    "velocity": 0.4330708661417323,
                    "duration": 0.1759529999999998
                },
                {
                    "name": "C5",
                    "midi": 72,
                    "time": 51.37827600000013,
                    "velocity": 0.31496062992125984,
                    "duration": 0.3519059999999996
                },
                {
                    "name": "B5",
                    "midi": 83,
                    "time": 51.55422900000013,
                    "velocity": 0.3937007874015748,
                    "duration": 0.1759529999999998
                },
                {
                    "name": "G#5",
                    "midi": 80,
                    "time": 51.73018200000013,
                    "velocity": 0.4330708661417323,
                    "duration": 0.1759529999999998
                },
                {
                    "name": "B4",
                    "midi": 71,
                    "time": 51.73018200000013,
                    "velocity": 0.31496062992125984,
                    "duration": 0.1759529999999998
                },
                {
                    "name": "C5",
                    "midi": 72,
                    "time": 51.90613500000013,
                    "velocity": 0.31496062992125984,
                    "duration": 0.08797650000000345
                },
                {
                    "name": "F5",
                    "midi": 77,
                    "time": 52.082088000000134,
                    "velocity": 0.4251968503937008,
                    "duration": 0.1759529999999998
                },
                {
                    "name": "B4",
                    "midi": 71,
                    "time": 52.082088000000134,
                    "velocity": 0.31496062992125984,
                    "duration": 0.3519059999999996
                },
                {
                    "name": "A5",
                    "midi": 81,
                    "time": 52.258041000000134,
                    "velocity": 0.3937007874015748,
                    "duration": 0.1759529999999998
                },
                {
                    "name": "F5",
                    "midi": 77,
                    "time": 52.43399400000013,
                    "velocity": 0.4251968503937008,
                    "duration": 0.1759529999999998
                },
                {
                    "name": "A4",
                    "midi": 69,
                    "time": 52.43399400000013,
                    "velocity": 0.31496062992125984,
                    "duration": 0.1759529999999998
                },
                {
                    "name": "B4",
                    "midi": 71,
                    "time": 52.60994700000013,
                    "velocity": 0.31496062992125984,
                    "duration": 0.08797650000000345
                },
                {
                    "name": "E5",
                    "midi": 76,
                    "time": 52.78590000000014,
                    "velocity": 0.49606299212598426,
                    "duration": 0.5278589999999994
                },
                {
                    "name": "G#4",
                    "midi": 68,
                    "time": 52.78590000000014,
                    "velocity": 0.3779527559055118,
                    "duration": 0.1759529999999998
                },
                {
                    "name": "B4",
                    "midi": 71,
                    "time": 52.96185300000014,
                    "velocity": 0.3543307086614173,
                    "duration": 0.1759529999999998
                },
                {
                    "name": "G#4",
                    "midi": 68,
                    "time": 53.13780600000014,
                    "velocity": 0.3937007874015748,
                    "duration": 0.1759529999999998
                },
                {
                    "name": "B4",
                    "midi": 71,
                    "time": 53.31375900000014,
                    "velocity": 0.3543307086614173,
                    "duration": 0.1759529999999998
                },
                {
                    "name": "G#5",
                    "midi": 80,
                    "time": 53.31375900000014,
                    "velocity": 0.47244094488188976,
                    "duration": 0.1759529999999998
                },
                {
                    "name": "E5",
                    "midi": 76,
                    "time": 53.48971200000014,
                    "velocity": 0.5196850393700787,
                    "duration": 0.5278589999999994
                },
                {
                    "name": "G#4",
                    "midi": 68,
                    "time": 53.48971200000014,
                    "velocity": 0.3779527559055118,
                    "duration": 0.1759529999999998
                },
                {
                    "name": "B4",
                    "midi": 71,
                    "time": 53.66566500000014,
                    "velocity": 0.3543307086614173,
                    "duration": 0.1759529999999998
                },
                {
                    "name": "G#4",
                    "midi": 68,
                    "time": 53.84161800000014,
                    "velocity": 0.3937007874015748,
                    "duration": 0.1759529999999998
                },
                {
                    "name": "B4",
                    "midi": 71,
                    "time": 54.01757100000014,
                    "velocity": 0.3543307086614173,
                    "duration": 0.1759529999999998
                },
                {
                    "name": "G#5",
                    "midi": 80,
                    "time": 54.01757100000014,
                    "velocity": 0.44881889763779526,
                    "duration": 0.1759529999999998
                },
                {
                    "name": "E5",
                    "midi": 76,
                    "time": 54.19352400000014,
                    "velocity": 0.5275590551181102,
                    "duration": 0.1759529999999998
                },
                {
                    "name": "G#4",
                    "midi": 68,
                    "time": 54.19352400000014,
                    "velocity": 0.4409448818897638,
                    "duration": 0.1759529999999998
                },
                {
                    "name": "B4",
                    "midi": 71,
                    "time": 54.36947700000014,
                    "velocity": 0.47244094488188976,
                    "duration": 0.08797650000000345
                },
                {
                    "name": "G#5",
                    "midi": 80,
                    "time": 54.36947700000014,
                    "velocity": 0.47244094488188976,
                    "duration": 0.08797650000000345
                },
                {
                    "name": "E5",
                    "midi": 76,
                    "time": 54.545430000000145,
                    "velocity": 0.5354330708661418,
                    "duration": 0.1759529999999998
                },
                {
                    "name": "G#4",
                    "midi": 68,
                    "time": 54.545430000000145,
                    "velocity": 0.44881889763779526,
                    "duration": 0.1759529999999998
                },
                {
                    "name": "G#5",
                    "midi": 80,
                    "time": 54.721383000000145,
                    "velocity": 0.4881889763779528,
                    "duration": 0.08797650000000345
                },
                {
                    "name": "B4",
                    "midi": 71,
                    "time": 54.721383000000145,
                    "velocity": 0.4094488188976378,
                    "duration": 0.08797650000000345
                },
                {
                    "name": "E5",
                    "midi": 76,
                    "time": 54.89733600000015,
                    "velocity": 0.5590551181102362,
                    "duration": 0.08797650000000345
                },
                {
                    "name": "G#4",
                    "midi": 68,
                    "time": 54.89733600000015,
                    "velocity": 0.47244094488188976,
                    "duration": 0.3519060000000138
                },
                {
                    "name": "B4",
                    "midi": 71,
                    "time": 55.07328900000016,
                    "velocity": 0.4881889763779528,
                    "duration": 0.08797650000000345
                },
                {
                    "name": "G#4",
                    "midi": 68,
                    "time": 55.249242000000166,
                    "velocity": 0.49606299212598426,
                    "duration": 0.3519060000000067
                },
                {
                    "name": "B4",
                    "midi": 71,
                    "time": 55.425195000000166,
                    "velocity": 0.5039370078740157,
                    "duration": 0.08797650000000345
                },
                {
                    "name": "E5",
                    "midi": 76,
                    "time": 55.60114800000017,
                    "velocity": 0.5275590551181102,
                    "duration": 0.08797650000000345
                },
                {
                    "name": "E4",
                    "midi": 64,
                    "time": 55.60114800000017,
                    "velocity": 0.49606299212598426,
                    "duration": 0.3519060000000138
                },
                {
                    "name": "B4",
                    "midi": 71,
                    "time": 55.77710100000018,
                    "velocity": 0.5669291338582677,
                    "duration": 0.08797650000000345
                },
                {
                    "name": "E5",
                    "midi": 76,
                    "time": 55.953054000000186,
                    "velocity": 0.6220472440944882,
                    "duration": 0.08797650000000345
                },
                {
                    "name": "E4",
                    "midi": 64,
                    "time": 55.953054000000186,
                    "velocity": 0.5275590551181102,
                    "duration": 0.08797650000000345
                },
                {
                    "name": "G#5",
                    "midi": 80,
                    "time": 56.12900700000019,
                    "velocity": 0.6299212598425197,
                    "duration": 0.08797650000000345
                },
                {
                    "name": "G#4",
                    "midi": 68,
                    "time": 56.12900700000019,
                    "velocity": 0.5354330708661418,
                    "duration": 0.08797650000000345
                },
                {
                    "name": "B4",
                    "midi": 71,
                    "time": 56.3049600000002,
                    "velocity": 0.6220472440944882,
                    "duration": 0.7038119999999992
                },
                {
                    "name": "E5",
                    "midi": 76,
                    "time": 56.3049600000002,
                    "velocity": 0.6220472440944882,
                    "duration": 0.7038119999999992
                },
                {
                    "name": "B5",
                    "midi": 83,
                    "time": 56.3049600000002,
                    "velocity": 0.7322834645669292,
                    "duration": 0.7038119999999992
                },
                {
                    "name": "G#5",
                    "midi": 80,
                    "time": 56.3049600000002,
                    "velocity": 0.6220472440944882,
                    "duration": 0.7038119999999992
                },
                {
                    "name": "E6",
                    "midi": 88,
                    "time": 57.0087720000002,
                    "velocity": 0.7795275590551181,
                    "duration": 0.1759529999999998
                },
                {
                    "name": "E5",
                    "midi": 76,
                    "time": 57.0087720000002,
                    "velocity": 0.6456692913385826,
                    "duration": 0.1759529999999998
                },
                {
                    "name": "G#5",
                    "midi": 80,
                    "time": 57.0087720000002,
                    "velocity": 0.6456692913385826,
                    "duration": 0.1759529999999998
                },
                {
                    "name": "B5",
                    "midi": 83,
                    "time": 57.0087720000002,
                    "velocity": 0.6456692913385826,
                    "duration": 0.1759529999999998
                },
                {
                    "name": "E5",
                    "midi": 76,
                    "time": 57.3606780000002,
                    "velocity": 0.5905511811023622,
                    "duration": 0.11730200000000224
                },
                {
                    "name": "F#5",
                    "midi": 78,
                    "time": 57.4779800000002,
                    "velocity": 0.6141732283464567,
                    "duration": 0.11730200000000224
                },
                {
                    "name": "G#5",
                    "midi": 80,
                    "time": 57.5952820000002,
                    "velocity": 0.6299212598425197,
                    "duration": 0.11730200000000224
                },
                {
                    "name": "C5",
                    "midi": 72,
                    "time": 57.712584000000206,
                    "velocity": 0.5984251968503937,
                    "duration": 0.1759529999999998
                },
                {
                    "name": "A4",
                    "midi": 69,
                    "time": 57.712584000000206,
                    "velocity": 0.5984251968503937,
                    "duration": 0.1759529999999998
                },
                {
                    "name": "A5",
                    "midi": 81,
                    "time": 57.712584000000206,
                    "velocity": 0.7086614173228346,
                    "duration": 0.1759529999999998
                },
                {
                    "name": "B4",
                    "midi": 71,
                    "time": 58.064490000000205,
                    "velocity": 0.49606299212598426,
                    "duration": 0.08797650000000345
                },
                {
                    "name": "G#4",
                    "midi": 68,
                    "time": 58.064490000000205,
                    "velocity": 0.49606299212598426,
                    "duration": 0.08797650000000345
                },
                {
                    "name": "G#5",
                    "midi": 80,
                    "time": 58.064490000000205,
                    "velocity": 0.5826771653543307,
                    "duration": 0.08797650000000345
                },
                {
                    "name": "B4",
                    "midi": 71,
                    "time": 58.24044300000021,
                    "velocity": 0.44881889763779526,
                    "duration": 0.08797650000000345
                },
                {
                    "name": "B5",
                    "midi": 83,
                    "time": 58.24044300000021,
                    "velocity": 0.5354330708661418,
                    "duration": 0.08797650000000345
                },
                {
                    "name": "D5",
                    "midi": 74,
                    "time": 58.24044300000021,
                    "velocity": 0.44881889763779526,
                    "duration": 0.08797650000000345
                },
                {
                    "name": "A4",
                    "midi": 69,
                    "time": 58.41639600000022,
                    "velocity": 0.5590551181102362,
                    "duration": 0.1759529999999998
                },
                {
                    "name": "A5",
                    "midi": 81,
                    "time": 58.41639600000022,
                    "velocity": 0.6614173228346457,
                    "duration": 0.1759529999999998
                },
                {
                    "name": "C5",
                    "midi": 72,
                    "time": 58.41639600000022,
                    "velocity": 0.5590551181102362,
                    "duration": 0.1759529999999998
                },
                {
                    "name": "B4",
                    "midi": 71,
                    "time": 58.76830200000022,
                    "velocity": 0.48031496062992124,
                    "duration": 0.08797650000000345
                },
                {
                    "name": "G#4",
                    "midi": 68,
                    "time": 58.76830200000022,
                    "velocity": 0.48031496062992124,
                    "duration": 0.08797650000000345
                },
                {
                    "name": "G#5",
                    "midi": 80,
                    "time": 58.76830200000022,
                    "velocity": 0.5669291338582677,
                    "duration": 0.08797650000000345
                },
                {
                    "name": "D5",
                    "midi": 74,
                    "time": 58.944255000000226,
                    "velocity": 0.4409448818897638,
                    "duration": 0.08797650000000345
                },
                {
                    "name": "B5",
                    "midi": 83,
                    "time": 58.944255000000226,
                    "velocity": 0.5275590551181102,
                    "duration": 0.08797650000000345
                },
                {
                    "name": "B4",
                    "midi": 71,
                    "time": 58.944255000000226,
                    "velocity": 0.4409448818897638,
                    "duration": 0.08797650000000345
                },
                {
                    "name": "A4",
                    "midi": 69,
                    "time": 59.12020800000023,
                    "velocity": 0.5590551181102362,
                    "duration": 0.08797650000000345
                },
                {
                    "name": "A5",
                    "midi": 81,
                    "time": 59.12020800000023,
                    "velocity": 0.6614173228346457,
                    "duration": 0.08797650000000345
                },
                {
                    "name": "C5",
                    "midi": 72,
                    "time": 59.12020800000023,
                    "velocity": 0.5590551181102362,
                    "duration": 0.08797650000000345
                },
                {
                    "name": "B4",
                    "midi": 71,
                    "time": 59.47211400000024,
                    "velocity": 0.48031496062992124,
                    "duration": 0.08797650000000345
                },
                {
                    "name": "G#4",
                    "midi": 68,
                    "time": 59.47211400000024,
                    "velocity": 0.48031496062992124,
                    "duration": 0.08797650000000345
                },
                {
                    "name": "G#5",
                    "midi": 80,
                    "time": 59.47211400000024,
                    "velocity": 0.5748031496062992,
                    "duration": 0.08797650000000345
                },
                {
                    "name": "A4",
                    "midi": 69,
                    "time": 59.824020000000246,
                    "velocity": 0.5511811023622047,
                    "duration": 0.7038119999999992
                },
                {
                    "name": "C5",
                    "midi": 72,
                    "time": 59.824020000000246,
                    "velocity": 0.5511811023622047,
                    "duration": 0.7038119999999992
                },
                {
                    "name": "A5",
                    "midi": 81,
                    "time": 59.824020000000246,
                    "velocity": 0.6535433070866141,
                    "duration": 0.7038119999999992
                },
                {
                    "name": "A6",
                    "midi": 93,
                    "time": 60.527832000000245,
                    "velocity": 0.5905511811023622,
                    "duration": 0.08797650000000345
                },
                {
                    "name": "A5",
                    "midi": 81,
                    "time": 60.527832000000245,
                    "velocity": 0.49606299212598426,
                    "duration": 0.08797650000000345
                },
                {
                    "name": "B6",
                    "midi": 95,
                    "time": 60.70378500000025,
                    "velocity": 0.6220472440944882,
                    "duration": 0.08797650000000345
                },
                {
                    "name": "B5",
                    "midi": 83,
                    "time": 60.70378500000025,
                    "velocity": 0.5275590551181102,
                    "duration": 0.08797650000000345
                },
                {
                    "name": "C7",
                    "midi": 96,
                    "time": 60.87973800000026,
                    "velocity": 0.6771653543307087,
                    "duration": 0.5278589999999994
                },
                {
                    "name": "C6",
                    "midi": 84,
                    "time": 60.87973800000026,
                    "velocity": 0.5669291338582677,
                    "duration": 0.5278589999999994
                },
                {
                    "name": "B6",
                    "midi": 95,
                    "time": 61.40759700000026,
                    "velocity": 0.5826771653543307,
                    "duration": 0.08797650000000345
                },
                {
                    "name": "B5",
                    "midi": 83,
                    "time": 61.40759700000026,
                    "velocity": 0.4881889763779528,
                    "duration": 0.08797650000000345
                },
                {
                    "name": "A6",
                    "midi": 93,
                    "time": 61.583550000000265,
                    "velocity": 0.6850393700787402,
                    "duration": 0.5278589999999994
                },
                {
                    "name": "A5",
                    "midi": 81,
                    "time": 61.583550000000265,
                    "velocity": 0.5748031496062992,
                    "duration": 0.5278589999999994
                },
                {
                    "name": "G6",
                    "midi": 91,
                    "time": 62.111409000000265,
                    "velocity": 0.5905511811023622,
                    "duration": 0.08797650000000345
                },
                {
                    "name": "G5",
                    "midi": 79,
                    "time": 62.111409000000265,
                    "velocity": 0.49606299212598426,
                    "duration": 0.08797650000000345
                },
                {
                    "name": "F6",
                    "midi": 89,
                    "time": 62.28736200000027,
                    "velocity": 0.6929133858267716,
                    "duration": 0.5278589999999994
                },
                {
                    "name": "F5",
                    "midi": 77,
                    "time": 62.28736200000027,
                    "velocity": 0.5826771653543307,
                    "duration": 0.5278589999999994
                },
                {
                    "name": "E6",
                    "midi": 88,
                    "time": 62.81522100000027,
                    "velocity": 0.6377952755905512,
                    "duration": 0.08797650000000345
                },
                {
                    "name": "E5",
                    "midi": 76,
                    "time": 62.81522100000027,
                    "velocity": 0.5354330708661418,
                    "duration": 0.08797650000000345
                },
                {
                    "name": "D6",
                    "midi": 86,
                    "time": 62.99117400000028,
                    "velocity": 0.6377952755905512,
                    "duration": 0.08797650000000345
                },
                {
                    "name": "D5",
                    "midi": 74,
                    "time": 62.99117400000028,
                    "velocity": 0.5354330708661418,
                    "duration": 0.08797650000000345
                },
                {
                    "name": "C#6",
                    "midi": 85,
                    "time": 63.167127000000285,
                    "velocity": 0.6377952755905512,
                    "duration": 0.08797650000000345
                },
                {
                    "name": "C#5",
                    "midi": 73,
                    "time": 63.167127000000285,
                    "velocity": 0.5354330708661418,
                    "duration": 0.08797650000000345
                },
                {
                    "name": "F5",
                    "midi": 77,
                    "time": 63.34308000000029,
                    "velocity": 0.5984251968503937,
                    "duration": 0.1759529999999998
                },
                {
                    "name": "D5",
                    "midi": 74,
                    "time": 63.34308000000029,
                    "velocity": 0.5984251968503937,
                    "duration": 0.1759529999999998
                },
                {
                    "name": "D6",
                    "midi": 86,
                    "time": 63.34308000000029,
                    "velocity": 0.7086614173228346,
                    "duration": 0.1759529999999998
                },
                {
                    "name": "E5",
                    "midi": 76,
                    "time": 63.69498600000029,
                    "velocity": 0.49606299212598426,
                    "duration": 0.08797650000000345
                },
                {
                    "name": "C#5",
                    "midi": 73,
                    "time": 63.69498600000029,
                    "velocity": 0.49606299212598426,
                    "duration": 0.08797650000000345
                },
                {
                    "name": "C#6",
                    "midi": 85,
                    "time": 63.69498600000029,
                    "velocity": 0.5826771653543307,
                    "duration": 0.08797650000000345
                },
                {
                    "name": "E5",
                    "midi": 76,
                    "time": 63.8709390000003,
                    "velocity": 0.44881889763779526,
                    "duration": 0.08797650000000345
                },
                {
                    "name": "E6",
                    "midi": 88,
                    "time": 63.8709390000003,
                    "velocity": 0.5354330708661418,
                    "duration": 0.08797650000000345
                },
                {
                    "name": "G5",
                    "midi": 79,
                    "time": 63.8709390000003,
                    "velocity": 0.44881889763779526,
                    "duration": 0.08797650000000345
                },
                {
                    "name": "D5",
                    "midi": 74,
                    "time": 64.0468920000003,
                    "velocity": 0.5590551181102362,
                    "duration": 0.1759530000000069
                },
                {
                    "name": "D6",
                    "midi": 86,
                    "time": 64.0468920000003,
                    "velocity": 0.6614173228346457,
                    "duration": 0.1759530000000069
                },
                {
                    "name": "F5",
                    "midi": 77,
                    "time": 64.0468920000003,
                    "velocity": 0.5590551181102362,
                    "duration": 0.1759530000000069
                },
                {
                    "name": "E5",
                    "midi": 76,
                    "time": 64.39879800000031,
                    "velocity": 0.48031496062992124,
                    "duration": 0.08797649999999635
                },
                {
                    "name": "C#5",
                    "midi": 73,
                    "time": 64.39879800000031,
                    "velocity": 0.48031496062992124,
                    "duration": 0.08797649999999635
                },
                {
                    "name": "C#6",
                    "midi": 85,
                    "time": 64.39879800000031,
                    "velocity": 0.5669291338582677,
                    "duration": 0.08797649999999635
                },
                {
                    "name": "G5",
                    "midi": 79,
                    "time": 64.5747510000003,
                    "velocity": 0.4409448818897638,
                    "duration": 0.08797649999999635
                },
                {
                    "name": "E6",
                    "midi": 88,
                    "time": 64.5747510000003,
                    "velocity": 0.5275590551181102,
                    "duration": 0.08797649999999635
                },
                {
                    "name": "E5",
                    "midi": 76,
                    "time": 64.5747510000003,
                    "velocity": 0.4409448818897638,
                    "duration": 0.08797649999999635
                },
                {
                    "name": "D5",
                    "midi": 74,
                    "time": 64.7507040000003,
                    "velocity": 0.5590551181102362,
                    "duration": 0.08797649999999635
                },
                {
                    "name": "D6",
                    "midi": 86,
                    "time": 64.7507040000003,
                    "velocity": 0.6614173228346457,
                    "duration": 0.08797649999999635
                },
                {
                    "name": "F5",
                    "midi": 77,
                    "time": 64.7507040000003,
                    "velocity": 0.5590551181102362,
                    "duration": 0.08797649999999635
                },
                {
                    "name": "E5",
                    "midi": 76,
                    "time": 65.1026100000003,
                    "velocity": 0.48031496062992124,
                    "duration": 0.08797649999999635
                },
                {
                    "name": "C#5",
                    "midi": 73,
                    "time": 65.1026100000003,
                    "velocity": 0.48031496062992124,
                    "duration": 0.08797649999999635
                },
                {
                    "name": "C#6",
                    "midi": 85,
                    "time": 65.1026100000003,
                    "velocity": 0.5748031496062992,
                    "duration": 0.08797649999999635
                },
                {
                    "name": "D5",
                    "midi": 74,
                    "time": 65.4545160000003,
                    "velocity": 0.5748031496062992,
                    "duration": 0.7038119999999992
                },
                {
                    "name": "F5",
                    "midi": 77,
                    "time": 65.4545160000003,
                    "velocity": 0.5748031496062992,
                    "duration": 0.7038119999999992
                },
                {
                    "name": "D6",
                    "midi": 86,
                    "time": 65.4545160000003,
                    "velocity": 0.6850393700787402,
                    "duration": 0.7038119999999992
                },
                {
                    "name": "D7",
                    "midi": 98,
                    "time": 66.1583280000003,
                    "velocity": 0.5905511811023622,
                    "duration": 0.08797649999999635
                },
                {
                    "name": "D6",
                    "midi": 86,
                    "time": 66.1583280000003,
                    "velocity": 0.49606299212598426,
                    "duration": 0.08797649999999635
                },
                {
                    "name": "E7",
                    "midi": 100,
                    "time": 66.33428100000029,
                    "velocity": 0.6220472440944882,
                    "duration": 0.08797649999999635
                },
                {
                    "name": "E6",
                    "midi": 88,
                    "time": 66.33428100000029,
                    "velocity": 0.5275590551181102,
                    "duration": 0.08797649999999635
                },
                {
                    "name": "F7",
                    "midi": 101,
                    "time": 66.51023400000028,
                    "velocity": 0.6456692913385826,
                    "duration": 0.5278590000000065
                },
                {
                    "name": "F6",
                    "midi": 89,
                    "time": 66.51023400000028,
                    "velocity": 0.5433070866141733,
                    "duration": 0.5278590000000065
                },
                {
                    "name": "E7",
                    "midi": 100,
                    "time": 67.03809300000029,
                    "velocity": 0.5826771653543307,
                    "duration": 0.08797649999999635
                },
                {
                    "name": "E6",
                    "midi": 88,
                    "time": 67.03809300000029,
                    "velocity": 0.4881889763779528,
                    "duration": 0.08797649999999635
                },
                {
                    "name": "D7",
                    "midi": 98,
                    "time": 67.21404600000028,
                    "velocity": 0.6535433070866141,
                    "duration": 0.5278590000000065
                },
                {
                    "name": "D6",
                    "midi": 86,
                    "time": 67.21404600000028,
                    "velocity": 0.5511811023622047,
                    "duration": 0.5278590000000065
                },
                {
                    "name": "C7",
                    "midi": 96,
                    "time": 67.74190500000029,
                    "velocity": 0.5905511811023622,
                    "duration": 0.08797649999999635
                },
                {
                    "name": "C6",
                    "midi": 84,
                    "time": 67.74190500000029,
                    "velocity": 0.49606299212598426,
                    "duration": 0.08797649999999635
                },
                {
                    "name": "B6",
                    "midi": 95,
                    "time": 67.91785800000028,
                    "velocity": 0.6614173228346457,
                    "duration": 0.5278590000000065
                },
                {
                    "name": "B5",
                    "midi": 83,
                    "time": 67.91785800000028,
                    "velocity": 0.5590551181102362,
                    "duration": 0.5278590000000065
                },
                {
                    "name": "A6",
                    "midi": 93,
                    "time": 68.44571700000029,
                    "velocity": 0.6062992125984252,
                    "duration": 0.08797649999999635
                },
                {
                    "name": "A5",
                    "midi": 81,
                    "time": 68.44571700000029,
                    "velocity": 0.5118110236220472,
                    "duration": 0.08797649999999635
                },
                {
                    "name": "G#6",
                    "midi": 92,
                    "time": 68.62167000000028,
                    "velocity": 0.6062992125984252,
                    "duration": 0.08797649999999635
                },
                {
                    "name": "G#5",
                    "midi": 80,
                    "time": 68.62167000000028,
                    "velocity": 0.5118110236220472,
                    "duration": 0.08797649999999635
                },
                {
                    "name": "A6",
                    "midi": 93,
                    "time": 68.79762300000027,
                    "velocity": 0.6062992125984252,
                    "duration": 0.08797649999999635
                },
                {
                    "name": "A5",
                    "midi": 81,
                    "time": 68.79762300000027,
                    "velocity": 0.5118110236220472,
                    "duration": 0.08797649999999635
                },
                {
                    "name": "G#6",
                    "midi": 92,
                    "time": 68.97357600000026,
                    "velocity": 0.6220472440944882,
                    "duration": 0.08797649999999635
                },
                {
                    "name": "G#5",
                    "midi": 80,
                    "time": 68.97357600000026,
                    "velocity": 0.5275590551181102,
                    "duration": 0.08797649999999635
                },
                {
                    "name": "B6",
                    "midi": 95,
                    "time": 69.14952900000026,
                    "velocity": 0.6614173228346457,
                    "duration": 0.08797649999999635
                },
                {
                    "name": "B5",
                    "midi": 83,
                    "time": 69.14952900000026,
                    "velocity": 0.5590551181102362,
                    "duration": 0.08797649999999635
                },
                {
                    "name": "E7",
                    "midi": 100,
                    "time": 69.32548200000025,
                    "velocity": 0.6929133858267716,
                    "duration": 0.1759530000000069
                },
                {
                    "name": "E6",
                    "midi": 88,
                    "time": 69.32548200000025,
                    "velocity": 0.5826771653543307,
                    "duration": 0.1759530000000069
                },
                {
                    "name": "E4",
                    "midi": 64,
                    "time": 69.67738800000026,
                    "velocity": 0.6771653543307087,
                    "duration": 0.7038119999999992
                },
                {
                    "name": "G#3",
                    "midi": 56,
                    "time": 69.67738800000026,
                    "velocity": 0.5748031496062992,
                    "duration": 0.7038119999999992
                },
                {
                    "name": "B3",
                    "midi": 59,
                    "time": 69.67738800000026,
                    "velocity": 0.5748031496062992,
                    "duration": 0.7038119999999992
                },
                {
                    "name": "A6",
                    "midi": 93,
                    "time": 70.38120000000026,
                    "velocity": 0.6456692913385826,
                    "duration": 0.08797649999999635
                },
                {
                    "name": "A5",
                    "midi": 81,
                    "time": 70.38120000000026,
                    "velocity": 0.5511811023622047,
                    "duration": 0.08797649999999635
                },
                {
                    "name": "C7",
                    "midi": 96,
                    "time": 70.55715300000026,
                    "velocity": 0.6929133858267716,
                    "duration": 0.08797649999999635
                },
                {
                    "name": "C6",
                    "midi": 84,
                    "time": 70.55715300000026,
                    "velocity": 0.5826771653543307,
                    "duration": 0.08797649999999635
                },
                {
                    "name": "E7",
                    "midi": 100,
                    "time": 70.73310600000025,
                    "velocity": 0.7244094488188977,
                    "duration": 0.1759530000000069
                },
                {
                    "name": "E6",
                    "midi": 88,
                    "time": 70.73310600000025,
                    "velocity": 0.6062992125984252,
                    "duration": 0.1759530000000069
                },
                {
                    "name": "E4",
                    "midi": 64,
                    "time": 71.08501200000026,
                    "velocity": 0.6771653543307087,
                    "duration": 0.7038119999999992
                },
                {
                    "name": "A3",
                    "midi": 57,
                    "time": 71.08501200000026,
                    "velocity": 0.5748031496062992,
                    "duration": 0.7038119999999992
                },
                {
                    "name": "C4",
                    "midi": 60,
                    "time": 71.08501200000026,
                    "velocity": 0.5748031496062992,
                    "duration": 0.7038119999999992
                },
                {
                    "name": "G#5",
                    "midi": 80,
                    "time": 71.78882400000026,
                    "velocity": 0.5748031496062992,
                    "duration": 0.08797649999999635
                },
                {
                    "name": "B4",
                    "midi": 71,
                    "time": 71.78882400000026,
                    "velocity": 0.4881889763779528,
                    "duration": 0.08797649999999635
                },
                {
                    "name": "B5",
                    "midi": 83,
                    "time": 71.96477700000025,
                    "velocity": 0.5118110236220472,
                    "duration": 0.08797649999999635
                },
                {
                    "name": "D5",
                    "midi": 74,
                    "time": 71.96477700000025,
                    "velocity": 0.4330708661417323,
                    "duration": 0.08797649999999635
                },
                {
                    "name": "G#5",
                    "midi": 80,
                    "time": 72.14073000000025,
                    "velocity": 0.5748031496062992,
                    "duration": 0.08797649999999635
                },
                {
                    "name": "B4",
                    "midi": 71,
                    "time": 72.14073000000025,
                    "velocity": 0.4881889763779528,
                    "duration": 0.08797649999999635
                },
                {
                    "name": "B5",
                    "midi": 83,
                    "time": 72.31668300000024,
                    "velocity": 0.5275590551181102,
                    "duration": 0.08797649999999635
                },
                {
                    "name": "D5",
                    "midi": 74,
                    "time": 72.31668300000024,
                    "velocity": 0.4409448818897638,
                    "duration": 0.08797649999999635
                },
                {
                    "name": "F3",
                    "midi": 53,
                    "time": 72.49263600000023,
                    "velocity": 0.6614173228346457,
                    "duration": 0.3519059999999996
                },
                {
                    "name": "E3",
                    "midi": 52,
                    "time": 72.84454200000023,
                    "velocity": 0.5826771653543307,
                    "duration": 0.08797649999999635
                },
                {
                    "name": "A5",
                    "midi": 81,
                    "time": 73.19644800000023,
                    "velocity": 0.5748031496062992,
                    "duration": 0.08797649999999635
                },
                {
                    "name": "C5",
                    "midi": 72,
                    "time": 73.19644800000023,
                    "velocity": 0.4881889763779528,
                    "duration": 0.08797649999999635
                },
                {
                    "name": "C6",
                    "midi": 84,
                    "time": 73.37240100000022,
                    "velocity": 0.5118110236220472,
                    "duration": 0.08797649999999635
                },
                {
                    "name": "E5",
                    "midi": 76,
                    "time": 73.37240100000022,
                    "velocity": 0.4330708661417323,
                    "duration": 0.08797649999999635
                },
                {
                    "name": "A5",
                    "midi": 81,
                    "time": 73.54835400000022,
                    "velocity": 0.5748031496062992,
                    "duration": 0.08797649999999635
                },
                {
                    "name": "C5",
                    "midi": 72,
                    "time": 73.54835400000022,
                    "velocity": 0.4881889763779528,
                    "duration": 0.08797649999999635
                },
                {
                    "name": "C6",
                    "midi": 84,
                    "time": 73.72430700000021,
                    "velocity": 0.5275590551181102,
                    "duration": 0.08797649999999635
                },
                {
                    "name": "E5",
                    "midi": 76,
                    "time": 73.72430700000021,
                    "velocity": 0.4409448818897638,
                    "duration": 0.08797649999999635
                },
                {
                    "name": "F3",
                    "midi": 53,
                    "time": 73.9002600000002,
                    "velocity": 0.6614173228346457,
                    "duration": 0.3519059999999996
                },
                {
                    "name": "E3",
                    "midi": 52,
                    "time": 74.2521660000002,
                    "velocity": 0.5826771653543307,
                    "duration": 0.08797649999999635
                },
                {
                    "name": "B6",
                    "midi": 95,
                    "time": 74.6040720000002,
                    "velocity": 0.6850393700787402,
                    "duration": 0.19354830000000334
                },
                {
                    "name": "F7",
                    "midi": 101,
                    "time": 74.6040720000002,
                    "velocity": 0.6850393700787402,
                    "duration": 0.19354830000000334
                },
                {
                    "name": "F6",
                    "midi": 89,
                    "time": 74.6040720000002,
                    "velocity": 0.5748031496062992,
                    "duration": 0.19354830000000334
                },
                {
                    "name": "G#6",
                    "midi": 92,
                    "time": 74.6040720000002,
                    "velocity": 0.5748031496062992,
                    "duration": 0.19354830000000334
                },
                {
                    "name": "E7",
                    "midi": 100,
                    "time": 74.78002500000021,
                    "velocity": 0.6771653543307087,
                    "duration": 0.19354829999998913
                },
                {
                    "name": "E6",
                    "midi": 88,
                    "time": 74.78002500000021,
                    "velocity": 0.5748031496062992,
                    "duration": 0.19354829999998913
                },
                {
                    "name": "D7",
                    "midi": 98,
                    "time": 74.9559780000002,
                    "velocity": 0.6614173228346457,
                    "duration": 0.19354829999998913
                },
                {
                    "name": "D6",
                    "midi": 86,
                    "time": 74.9559780000002,
                    "velocity": 0.5590551181102362,
                    "duration": 0.19354829999998913
                },
                {
                    "name": "C7",
                    "midi": 96,
                    "time": 75.1319310000002,
                    "velocity": 0.6535433070866141,
                    "duration": 0.19354829999998913
                },
                {
                    "name": "C6",
                    "midi": 84,
                    "time": 75.1319310000002,
                    "velocity": 0.5511811023622047,
                    "duration": 0.19354829999998913
                },
                {
                    "name": "B6",
                    "midi": 95,
                    "time": 75.30788400000019,
                    "velocity": 0.6377952755905512,
                    "duration": 0.19354829999998913
                },
                {
                    "name": "B5",
                    "midi": 83,
                    "time": 75.30788400000019,
                    "velocity": 0.5354330708661418,
                    "duration": 0.19354829999998913
                },
                {
                    "name": "A6",
                    "midi": 93,
                    "time": 75.48383700000018,
                    "velocity": 0.6299212598425197,
                    "duration": 0.19354829999998913
                },
                {
                    "name": "A5",
                    "midi": 81,
                    "time": 75.48383700000018,
                    "velocity": 0.5354330708661418,
                    "duration": 0.19354829999998913
                },
                {
                    "name": "G#6",
                    "midi": 92,
                    "time": 75.65979000000017,
                    "velocity": 0.6220472440944882,
                    "duration": 0.19354829999998913
                },
                {
                    "name": "G#5",
                    "midi": 80,
                    "time": 75.65979000000017,
                    "velocity": 0.5275590551181102,
                    "duration": 0.19354829999998913
                },
                {
                    "name": "E6",
                    "midi": 88,
                    "time": 75.83574300000016,
                    "velocity": 0.6062992125984252,
                    "duration": 0.19354829999998913
                },
                {
                    "name": "E5",
                    "midi": 76,
                    "time": 75.83574300000016,
                    "velocity": 0.5118110236220472,
                    "duration": 0.19354829999998913
                },
                {
                    "name": "F6",
                    "midi": 89,
                    "time": 76.01169600000016,
                    "velocity": 0.6299212598425197,
                    "duration": 0.19354829999998913
                },
                {
                    "name": "F5",
                    "midi": 77,
                    "time": 76.01169600000016,
                    "velocity": 0.5354330708661418,
                    "duration": 0.19354829999998913
                },
                {
                    "name": "G#5",
                    "midi": 80,
                    "time": 76.01169600000016,
                    "velocity": 0.5354330708661418,
                    "duration": 0.19354829999998913
                },
                {
                    "name": "B5",
                    "midi": 83,
                    "time": 76.01169600000016,
                    "velocity": 0.5354330708661418,
                    "duration": 0.19354829999998913
                },
                {
                    "name": "E6",
                    "midi": 88,
                    "time": 76.18764900000015,
                    "velocity": 0.6062992125984252,
                    "duration": 0.19354829999998913
                },
                {
                    "name": "E5",
                    "midi": 76,
                    "time": 76.18764900000015,
                    "velocity": 0.5118110236220472,
                    "duration": 0.19354829999998913
                },
                {
                    "name": "D6",
                    "midi": 86,
                    "time": 76.36360200000014,
                    "velocity": 0.5905511811023622,
                    "duration": 0.19354829999998913
                },
                {
                    "name": "D5",
                    "midi": 74,
                    "time": 76.36360200000014,
                    "velocity": 0.49606299212598426,
                    "duration": 0.19354829999998913
                },
                {
                    "name": "C6",
                    "midi": 84,
                    "time": 76.53955500000014,
                    "velocity": 0.5748031496062992,
                    "duration": 0.19354829999998913
                },
                {
                    "name": "C5",
                    "midi": 72,
                    "time": 76.53955500000014,
                    "velocity": 0.4881889763779528,
                    "duration": 0.19354829999998913
                },
                {
                    "name": "B5",
                    "midi": 83,
                    "time": 76.71550800000013,
                    "velocity": 0.5669291338582677,
                    "duration": 0.19354829999998913
                },
                {
                    "name": "B4",
                    "midi": 71,
                    "time": 76.71550800000013,
                    "velocity": 0.48031496062992124,
                    "duration": 0.19354829999998913
                },
                {
                    "name": "A5",
                    "midi": 81,
                    "time": 76.89146100000012,
                    "velocity": 0.5511811023622047,
                    "duration": 0.19354829999998913
                },
                {
                    "name": "A4",
                    "midi": 69,
                    "time": 76.89146100000012,
                    "velocity": 0.4645669291338583,
                    "duration": 0.19354829999998913
                },
                {
                    "name": "G#5",
                    "midi": 80,
                    "time": 77.06741400000011,
                    "velocity": 0.5354330708661418,
                    "duration": 0.19354829999998913
                },
                {
                    "name": "G#4",
                    "midi": 68,
                    "time": 77.06741400000011,
                    "velocity": 0.44881889763779526,
                    "duration": 0.19354829999998913
                },
                {
                    "name": "E5",
                    "midi": 76,
                    "time": 77.2433670000001,
                    "velocity": 0.5275590551181102,
                    "duration": 0.1759529999999927
                },
                {
                    "name": "E4",
                    "midi": 64,
                    "time": 77.2433670000001,
                    "velocity": 0.4409448818897638,
                    "duration": 0.1759529999999927
                },
                {
                    "name": "E4",
                    "midi": 64,
                    "time": 77.4193200000001,
                    "velocity": 0.5275590551181102,
                    "duration": 0.1759530000000069
                },
                {
                    "name": "E5",
                    "midi": 76,
                    "time": 77.4193200000001,
                    "velocity": 0.5275590551181102,
                    "duration": 0.1759530000000069
                },
                {
                    "name": "A4",
                    "midi": 69,
                    "time": 77.4193200000001,
                    "velocity": 0.5669291338582677,
                    "duration": 0.1759530000000069
                },
                {
                    "name": "C5",
                    "midi": 72,
                    "time": 77.5952730000001,
                    "velocity": 0.5196850393700787,
                    "duration": 0.08797649999999635
                },
                {
                    "name": "E4",
                    "midi": 64,
                    "time": 77.7712260000001,
                    "velocity": 0.5275590551181102,
                    "duration": 0.1759530000000069
                },
                {
                    "name": "E5",
                    "midi": 76,
                    "time": 77.7712260000001,
                    "velocity": 0.5275590551181102,
                    "duration": 0.1759530000000069
                },
                {
                    "name": "G#4",
                    "midi": 68,
                    "time": 77.7712260000001,
                    "velocity": 0.5748031496062992,
                    "duration": 0.1759530000000069
                },
                {
                    "name": "B4",
                    "midi": 71,
                    "time": 77.9471790000001,
                    "velocity": 0.5669291338582677,
                    "duration": 0.08797649999999635
                },
                {
                    "name": "A5",
                    "midi": 81,
                    "time": 78.1231320000001,
                    "velocity": 0.5669291338582677,
                    "duration": 0.1759530000000069
                },
                {
                    "name": "A4",
                    "midi": 69,
                    "time": 78.1231320000001,
                    "velocity": 0.48031496062992124,
                    "duration": 0.1759530000000069
                },
                {
                    "name": "C5",
                    "midi": 72,
                    "time": 78.1231320000001,
                    "velocity": 0.48031496062992124,
                    "duration": 0.1759530000000069
                },
                {
                    "name": "C6",
                    "midi": 84,
                    "time": 78.2990850000001,
                    "velocity": 0.5196850393700787,
                    "duration": 0.08797649999999635
                },
                {
                    "name": "C5",
                    "midi": 72,
                    "time": 78.2990850000001,
                    "velocity": 0.4409448818897638,
                    "duration": 0.08797649999999635
                },
                {
                    "name": "E5",
                    "midi": 76,
                    "time": 78.2990850000001,
                    "velocity": 0.4409448818897638,
                    "duration": 0.08797649999999635
                },
                {
                    "name": "G#5",
                    "midi": 80,
                    "time": 78.4750380000001,
                    "velocity": 0.5748031496062992,
                    "duration": 0.1759530000000069
                },
                {
                    "name": "G#4",
                    "midi": 68,
                    "time": 78.4750380000001,
                    "velocity": 0.4881889763779528,
                    "duration": 0.1759530000000069
                },
                {
                    "name": "B4",
                    "midi": 71,
                    "time": 78.4750380000001,
                    "velocity": 0.4881889763779528,
                    "duration": 0.1759530000000069
                },
                {
                    "name": "B5",
                    "midi": 83,
                    "time": 78.6509910000001,
                    "velocity": 0.5669291338582677,
                    "duration": 0.08797649999999635
                },
                {
                    "name": "B4",
                    "midi": 71,
                    "time": 78.6509910000001,
                    "velocity": 0.48031496062992124,
                    "duration": 0.08797649999999635
                },
                {
                    "name": "D5",
                    "midi": 74,
                    "time": 78.6509910000001,
                    "velocity": 0.48031496062992124,
                    "duration": 0.08797649999999635
                },
                {
                    "name": "A5",
                    "midi": 81,
                    "time": 78.8269440000001,
                    "velocity": 0.6692913385826772,
                    "duration": 0.1759530000000069
                },
                {
                    "name": "A4",
                    "midi": 69,
                    "time": 78.8269440000001,
                    "velocity": 0.5590551181102362,
                    "duration": 0.1759530000000069
                },
                {
                    "name": "C5",
                    "midi": 72,
                    "time": 78.8269440000001,
                    "velocity": 0.5590551181102362,
                    "duration": 0.1759530000000069
                },
                {
                    "name": "F6",
                    "midi": 89,
                    "time": 79.53075600000011,
                    "velocity": 0.7165354330708661,
                    "duration": 0.1759530000000069
                },
                {
                    "name": "F5",
                    "midi": 77,
                    "time": 79.53075600000011,
                    "velocity": 0.5984251968503937,
                    "duration": 0.1759530000000069
                },
                {
                    "name": "A5",
                    "midi": 81,
                    "time": 79.53075600000011,
                    "velocity": 0.5984251968503937,
                    "duration": 0.1759530000000069
                },
                {
                    "name": "D6",
                    "midi": 86,
                    "time": 79.53075600000011,
                    "velocity": 0.5984251968503937,
                    "duration": 0.1759530000000069
                },
                {
                    "name": "A6",
                    "midi": 93,
                    "time": 80.23456800000012,
                    "velocity": 0.7716535433070866,
                    "duration": 0.7038119999999992
                },
                {
                    "name": "A5",
                    "midi": 81,
                    "time": 80.23456800000012,
                    "velocity": 0.6456692913385826,
                    "duration": 0.7038119999999992
                },
                {
                    "name": "C6",
                    "midi": 84,
                    "time": 80.23456800000012,
                    "velocity": 0.6456692913385826,
                    "duration": 0.7038119999999992
                },
                {
                    "name": "E6",
                    "midi": 88,
                    "time": 80.23456800000012,
                    "velocity": 0.6456692913385826,
                    "duration": 0.7038119999999992
                },
                {
                    "name": "E4",
                    "midi": 64,
                    "time": 81.55421550000013,
                    "velocity": 0.6299212598425197,
                    "duration": 0.08797649999999635
                },
                {
                    "name": "E4",
                    "midi": 64,
                    "time": 81.64219200000012,
                    "velocity": 0.6929133858267716,
                    "duration": 0.1759530000000069
                },
                {
                    "name": "G#4",
                    "midi": 68,
                    "time": 82.34600400000014,
                    "velocity": 0.6299212598425197,
                    "duration": 0.1759530000000069
                },
                {
                    "name": "E4",
                    "midi": 64,
                    "time": 82.34600400000014,
                    "velocity": 0.5354330708661418,
                    "duration": 0.1759530000000069
                },
                {
                    "name": "B4",
                    "midi": 71,
                    "time": 83.04981600000015,
                    "velocity": 0.6929133858267716,
                    "duration": 1.319647500000002
                },
                {
                    "name": "D#4",
                    "midi": 63,
                    "time": 83.04981600000015,
                    "velocity": 0.5826771653543307,
                    "duration": 1.319647500000002
                },
                {
                    "name": "G#4",
                    "midi": 68,
                    "time": 83.04981600000015,
                    "velocity": 0.5826771653543307,
                    "duration": 1.319647500000002
                },
                {
                    "name": "E5",
                    "midi": 76,
                    "time": 84.36946350000015,
                    "velocity": 0.6299212598425197,
                    "duration": 0.08797649999999635
                },
                {
                    "name": "E4",
                    "midi": 64,
                    "time": 84.36946350000015,
                    "velocity": 0.5354330708661418,
                    "duration": 0.08797649999999635
                },
                {
                    "name": "G#4",
                    "midi": 68,
                    "time": 84.36946350000015,
                    "velocity": 0.5354330708661418,
                    "duration": 0.08797649999999635
                },
                {
                    "name": "G#4",
                    "midi": 68,
                    "time": 84.45744000000015,
                    "velocity": 0.5826771653543307,
                    "duration": 0.6158355000000029
                },
                {
                    "name": "B4",
                    "midi": 71,
                    "time": 84.45744000000015,
                    "velocity": 0.6929133858267716,
                    "duration": 0.6158355000000029
                },
                {
                    "name": "D#4",
                    "midi": 63,
                    "time": 84.45744000000015,
                    "velocity": 0.5826771653543307,
                    "duration": 0.6158355000000029
                },
                {
                    "name": "E5",
                    "midi": 76,
                    "time": 85.07327550000015,
                    "velocity": 0.6456692913385826,
                    "duration": 0.08797649999999635
                },
                {
                    "name": "E4",
                    "midi": 64,
                    "time": 85.07327550000015,
                    "velocity": 0.5433070866141733,
                    "duration": 0.08797649999999635
                },
                {
                    "name": "G#4",
                    "midi": 68,
                    "time": 85.07327550000015,
                    "velocity": 0.5433070866141733,
                    "duration": 0.08797649999999635
                },
                {
                    "name": "B4",
                    "midi": 71,
                    "time": 85.16125200000015,
                    "velocity": 0.6929133858267716,
                    "duration": 0.6158355000000029
                },
                {
                    "name": "D#4",
                    "midi": 63,
                    "time": 85.16125200000015,
                    "velocity": 0.5826771653543307,
                    "duration": 0.6158355000000029
                },
                {
                    "name": "G#4",
                    "midi": 68,
                    "time": 85.16125200000015,
                    "velocity": 0.5826771653543307,
                    "duration": 0.6158355000000029
                },
                {
                    "name": "E5",
                    "midi": 76,
                    "time": 85.77708750000015,
                    "velocity": 0.6377952755905512,
                    "duration": 0.08797649999999635
                },
                {
                    "name": "E4",
                    "midi": 64,
                    "time": 85.77708750000015,
                    "velocity": 0.5354330708661418,
                    "duration": 0.08797649999999635
                },
                {
                    "name": "G#4",
                    "midi": 68,
                    "time": 85.77708750000015,
                    "velocity": 0.5354330708661418,
                    "duration": 0.08797649999999635
                },
                {
                    "name": "B4",
                    "midi": 71,
                    "time": 85.86506400000015,
                    "velocity": 0.6929133858267716,
                    "duration": 1.4076239999999984
                },
                {
                    "name": "D#4",
                    "midi": 63,
                    "time": 85.86506400000015,
                    "velocity": 0.5826771653543307,
                    "duration": 1.4076239999999984
                },
                {
                    "name": "G#4",
                    "midi": 68,
                    "time": 85.86506400000015,
                    "velocity": 0.5826771653543307,
                    "duration": 1.4076239999999984
                },
                {
                    "name": "E5",
                    "midi": 76,
                    "time": 87.27268800000014,
                    "velocity": 0.7007874015748031,
                    "duration": 0.13196474999999452
                },
                {
                    "name": "D4",
                    "midi": 62,
                    "time": 87.27268800000014,
                    "velocity": 0.5826771653543307,
                    "duration": 0.13196474999999452
                },
                {
                    "name": "E4",
                    "midi": 64,
                    "time": 87.27268800000014,
                    "velocity": 0.5826771653543307,
                    "duration": 0.13196474999999452
                },
                {
                    "name": "G#4",
                    "midi": 68,
                    "time": 87.27268800000014,
                    "velocity": 0.5826771653543307,
                    "duration": 0.13196474999999452
                },
                {
                    "name": "B4",
                    "midi": 71,
                    "time": 87.27268800000014,
                    "velocity": 0.5826771653543307,
                    "duration": 0.13196474999999452
                },
                {
                    "name": "E5",
                    "midi": 76,
                    "time": 88.32840600000014,
                    "velocity": 0.3937007874015748,
                    "duration": 0.3519059999999996
                },
                {
                    "name": "C6",
                    "midi": 84,
                    "time": 88.68031200000014,
                    "velocity": 0.44881889763779526,
                    "duration": 0.1759530000000069
                },
                {
                    "name": "E6",
                    "midi": 88,
                    "time": 88.85626500000015,
                    "velocity": 0.3937007874015748,
                    "duration": 0.1759530000000069
                },
                {
                    "name": "C6",
                    "midi": 84,
                    "time": 89.03221800000016,
                    "velocity": 0.4330708661417323,
                    "duration": 0.1759530000000069
                },
                {
                    "name": "E5",
                    "midi": 76,
                    "time": 89.03221800000016,
                    "velocity": 0.31496062992125984,
                    "duration": 0.1759530000000069
                },
                {
                    "name": "F5",
                    "midi": 77,
                    "time": 89.20817100000016,
                    "velocity": 0.31496062992125984,
                    "duration": 0.08797649999999635
                },
                {
                    "name": "B5",
                    "midi": 83,
                    "time": 89.38412400000016,
                    "velocity": 0.4330708661417323,
                    "duration": 0.1759530000000069
                },
                {
                    "name": "E5",
                    "midi": 76,
                    "time": 89.38412400000016,
                    "velocity": 0.31496062992125984,
                    "duration": 0.3519060000000138
                },
                {
                    "name": "D6",
                    "midi": 86,
                    "time": 89.56007700000016,
                    "velocity": 0.3937007874015748,
                    "duration": 0.1759530000000069
                },
                {
                    "name": "B5",
                    "midi": 83,
                    "time": 89.73603000000017,
                    "velocity": 0.41732283464566927,
                    "duration": 0.1759530000000069
                },
                {
                    "name": "D5",
                    "midi": 74,
                    "time": 89.73603000000017,
                    "velocity": 0.31496062992125984,
                    "duration": 0.1759530000000069
                },
                {
                    "name": "E5",
                    "midi": 76,
                    "time": 89.91198300000018,
                    "velocity": 0.31496062992125984,
                    "duration": 0.08797649999999635
                },
                {
                    "name": "A5",
                    "midi": 81,
                    "time": 90.08793600000017,
                    "velocity": 0.4251968503937008,
                    "duration": 0.1759530000000069
                },
                {
                    "name": "D5",
                    "midi": 74,
                    "time": 90.08793600000017,
                    "velocity": 0.31496062992125984,
                    "duration": 0.3519060000000138
                },
                {
                    "name": "C6",
                    "midi": 84,
                    "time": 90.26388900000018,
                    "velocity": 0.3937007874015748,
                    "duration": 0.1759530000000069
                },
                {
                    "name": "A5",
                    "midi": 81,
                    "time": 90.43984200000018,
                    "velocity": 0.44881889763779526,
                    "duration": 0.1759530000000069
                },
                {
                    "name": "C5",
                    "midi": 72,
                    "time": 90.43984200000018,
                    "velocity": 0.31496062992125984,
                    "duration": 0.1759530000000069
                },
                {
                    "name": "D5",
                    "midi": 74,
                    "time": 90.61579500000019,
                    "velocity": 0.31496062992125984,
                    "duration": 0.08797649999999635
                },
                {
                    "name": "G#5",
                    "midi": 80,
                    "time": 90.79174800000018,
                    "velocity": 0.4330708661417323,
                    "duration": 0.1759530000000069
                },
                {
                    "name": "C5",
                    "midi": 72,
                    "time": 90.79174800000018,
                    "velocity": 0.31496062992125984,
                    "duration": 0.3519060000000138
                },
                {
                    "name": "B5",
                    "midi": 83,
                    "time": 90.96770100000019,
                    "velocity": 0.3937007874015748,
                    "duration": 0.1759530000000069
                },
                {
                    "name": "G#5",
                    "midi": 80,
                    "time": 91.1436540000002,
                    "velocity": 0.4330708661417323,
                    "duration": 0.1759530000000069
                },
                {
                    "name": "B4",
                    "midi": 71,
                    "time": 91.1436540000002,
                    "velocity": 0.31496062992125984,
                    "duration": 0.1759530000000069
                },
                {
                    "name": "C5",
                    "midi": 72,
                    "time": 91.3196070000002,
                    "velocity": 0.31496062992125984,
                    "duration": 0.08797649999999635
                },
                {
                    "name": "F5",
                    "midi": 77,
                    "time": 91.4955600000002,
                    "velocity": 0.4251968503937008,
                    "duration": 0.1759530000000069
                },
                {
                    "name": "B4",
                    "midi": 71,
                    "time": 91.4955600000002,
                    "velocity": 0.31496062992125984,
                    "duration": 0.3519060000000138
                },
                {
                    "name": "A5",
                    "midi": 81,
                    "time": 91.6715130000002,
                    "velocity": 0.3937007874015748,
                    "duration": 0.1759530000000069
                },
                {
                    "name": "F5",
                    "midi": 77,
                    "time": 91.84746600000021,
                    "velocity": 0.4251968503937008,
                    "duration": 0.1759530000000069
                },
                {
                    "name": "A4",
                    "midi": 69,
                    "time": 91.84746600000021,
                    "velocity": 0.31496062992125984,
                    "duration": 0.1759530000000069
                },
                {
                    "name": "B4",
                    "midi": 71,
                    "time": 92.02341900000022,
                    "velocity": 0.31496062992125984,
                    "duration": 0.08797649999999635
                },
                {
                    "name": "E5",
                    "midi": 76,
                    "time": 92.19937200000021,
                    "velocity": 0.49606299212598426,
                    "duration": 0.5278590000000207
                },
                {
                    "name": "G#4",
                    "midi": 68,
                    "time": 92.19937200000021,
                    "velocity": 0.3779527559055118,
                    "duration": 0.1759530000000069
                },
                {
                    "name": "B4",
                    "midi": 71,
                    "time": 92.37532500000022,
                    "velocity": 0.3543307086614173,
                    "duration": 0.1759530000000069
                },
                {
                    "name": "G#4",
                    "midi": 68,
                    "time": 92.55127800000022,
                    "velocity": 0.3937007874015748,
                    "duration": 0.1759530000000069
                },
                {
                    "name": "B4",
                    "midi": 71,
                    "time": 92.72723100000023,
                    "velocity": 0.3543307086614173,
                    "duration": 0.1759530000000069
                },
                {
                    "name": "G#5",
                    "midi": 80,
                    "time": 92.72723100000023,
                    "velocity": 0.47244094488188976,
                    "duration": 0.1759530000000069
                },
                {
                    "name": "E5",
                    "midi": 76,
                    "time": 92.90318400000024,
                    "velocity": 0.5196850393700787,
                    "duration": 0.5278590000000207
                },
                {
                    "name": "G#4",
                    "midi": 68,
                    "time": 92.90318400000024,
                    "velocity": 0.3779527559055118,
                    "duration": 0.1759530000000069
                },
                {
                    "name": "B4",
                    "midi": 71,
                    "time": 93.07913700000024,
                    "velocity": 0.3543307086614173,
                    "duration": 0.1759530000000069
                },
                {
                    "name": "G#4",
                    "midi": 68,
                    "time": 93.25509000000025,
                    "velocity": 0.3937007874015748,
                    "duration": 0.1759530000000069
                },
                {
                    "name": "B4",
                    "midi": 71,
                    "time": 93.43104300000026,
                    "velocity": 0.3543307086614173,
                    "duration": 0.1759530000000069
                },
                {
                    "name": "G#5",
                    "midi": 80,
                    "time": 93.43104300000026,
                    "velocity": 0.44881889763779526,
                    "duration": 0.1759530000000069
                },
                {
                    "name": "E5",
                    "midi": 76,
                    "time": 93.60699600000027,
                    "velocity": 0.5275590551181102,
                    "duration": 0.1759530000000069
                },
                {
                    "name": "G#4",
                    "midi": 68,
                    "time": 93.60699600000027,
                    "velocity": 0.4409448818897638,
                    "duration": 0.1759530000000069
                },
                {
                    "name": "B4",
                    "midi": 71,
                    "time": 93.78294900000027,
                    "velocity": 0.47244094488188976,
                    "duration": 0.08797649999999635
                },
                {
                    "name": "G#5",
                    "midi": 80,
                    "time": 93.78294900000027,
                    "velocity": 0.47244094488188976,
                    "duration": 0.08797649999999635
                },
                {
                    "name": "E5",
                    "midi": 76,
                    "time": 93.95890200000026,
                    "velocity": 0.5354330708661418,
                    "duration": 0.1759530000000069
                },
                {
                    "name": "G#4",
                    "midi": 68,
                    "time": 93.95890200000026,
                    "velocity": 0.44881889763779526,
                    "duration": 0.1759530000000069
                },
                {
                    "name": "G#5",
                    "midi": 80,
                    "time": 94.13485500000027,
                    "velocity": 0.4881889763779528,
                    "duration": 0.08797649999999635
                },
                {
                    "name": "B4",
                    "midi": 71,
                    "time": 94.13485500000027,
                    "velocity": 0.4094488188976378,
                    "duration": 0.08797649999999635
                },
                {
                    "name": "E5",
                    "midi": 76,
                    "time": 94.31080800000026,
                    "velocity": 0.5590551181102362,
                    "duration": 0.08797649999999635
                },
                {
                    "name": "G#4",
                    "midi": 68,
                    "time": 94.31080800000026,
                    "velocity": 0.47244094488188976,
                    "duration": 0.3519059999999854
                },
                {
                    "name": "B4",
                    "midi": 71,
                    "time": 94.48676100000026,
                    "velocity": 0.4881889763779528,
                    "duration": 0.08797649999999635
                },
                {
                    "name": "G#4",
                    "midi": 68,
                    "time": 94.66271400000025,
                    "velocity": 0.49606299212598426,
                    "duration": 0.3519059999999996
                },
                {
                    "name": "B4",
                    "midi": 71,
                    "time": 94.83866700000026,
                    "velocity": 0.5039370078740157,
                    "duration": 0.08797649999999635
                },
                {
                    "name": "E5",
                    "midi": 76,
                    "time": 95.01462000000025,
                    "velocity": 0.5275590551181102,
                    "duration": 0.08797649999999635
                },
                {
                    "name": "E4",
                    "midi": 64,
                    "time": 95.01462000000025,
                    "velocity": 0.49606299212598426,
                    "duration": 0.3519059999999854
                },
                {
                    "name": "B4",
                    "midi": 71,
                    "time": 95.19057300000024,
                    "velocity": 0.5669291338582677,
                    "duration": 0.08797649999999635
                },
                {
                    "name": "E5",
                    "midi": 76,
                    "time": 95.36652600000023,
                    "velocity": 0.6220472440944882,
                    "duration": 0.08797649999999635
                },
                {
                    "name": "E4",
                    "midi": 64,
                    "time": 95.36652600000023,
                    "velocity": 0.5275590551181102,
                    "duration": 0.08797649999999635
                },
                {
                    "name": "G#5",
                    "midi": 80,
                    "time": 95.54247900000023,
                    "velocity": 0.6299212598425197,
                    "duration": 0.08797649999999635
                },
                {
                    "name": "G#4",
                    "midi": 68,
                    "time": 95.54247900000023,
                    "velocity": 0.5354330708661418,
                    "duration": 0.08797649999999635
                },
                {
                    "name": "B4",
                    "midi": 71,
                    "time": 95.71843200000022,
                    "velocity": 0.6220472440944882,
                    "duration": 0.7038119999999992
                },
                {
                    "name": "E5",
                    "midi": 76,
                    "time": 95.71843200000022,
                    "velocity": 0.6220472440944882,
                    "duration": 0.7038119999999992
                },
                {
                    "name": "B5",
                    "midi": 83,
                    "time": 95.71843200000022,
                    "velocity": 0.7322834645669292,
                    "duration": 0.7038119999999992
                },
                {
                    "name": "G#5",
                    "midi": 80,
                    "time": 95.71843200000022,
                    "velocity": 0.6220472440944882,
                    "duration": 0.7038119999999992
                },
                {
                    "name": "E6",
                    "midi": 88,
                    "time": 96.42224400000022,
                    "velocity": 0.7795275590551181,
                    "duration": 0.1759530000000069
                },
                {
                    "name": "E5",
                    "midi": 76,
                    "time": 96.42224400000022,
                    "velocity": 0.6456692913385826,
                    "duration": 0.1759530000000069
                },
                {
                    "name": "G#5",
                    "midi": 80,
                    "time": 96.42224400000022,
                    "velocity": 0.6456692913385826,
                    "duration": 0.1759530000000069
                },
                {
                    "name": "B5",
                    "midi": 83,
                    "time": 96.42224400000022,
                    "velocity": 0.6456692913385826,
                    "duration": 0.1759530000000069
                },
                {
                    "name": "E5",
                    "midi": 76,
                    "time": 96.77415000000023,
                    "velocity": 0.5905511811023622,
                    "duration": 0.11730199999999513
                },
                {
                    "name": "F#5",
                    "midi": 78,
                    "time": 96.89145200000023,
                    "velocity": 0.6141732283464567,
                    "duration": 0.11730199999999513
                },
                {
                    "name": "G#5",
                    "midi": 80,
                    "time": 97.00875400000022,
                    "velocity": 0.6299212598425197,
                    "duration": 0.11730199999999513
                },
                {
                    "name": "A4",
                    "midi": 69,
                    "time": 97.12605600000022,
                    "velocity": 0.5984251968503937,
                    "duration": 0.1759529999999927
                },
                {
                    "name": "A5",
                    "midi": 81,
                    "time": 97.12605600000022,
                    "velocity": 0.7086614173228346,
                    "duration": 0.1759529999999927
                },
                {
                    "name": "C5",
                    "midi": 72,
                    "time": 97.13045482500021,
                    "velocity": 0.5984251968503937,
                    "duration": 0.1759529999999927
                },
                {
                    "name": "B4",
                    "midi": 71,
                    "time": 97.4779620000002,
                    "velocity": 0.49606299212598426,
                    "duration": 0.08797649999999635
                },
                {
                    "name": "G#4",
                    "midi": 68,
                    "time": 97.4779620000002,
                    "velocity": 0.49606299212598426,
                    "duration": 0.08797649999999635
                },
                {
                    "name": "G#5",
                    "midi": 80,
                    "time": 97.4779620000002,
                    "velocity": 0.5826771653543307,
                    "duration": 0.08797649999999635
                },
                {
                    "name": "B4",
                    "midi": 71,
                    "time": 97.6539150000002,
                    "velocity": 0.44881889763779526,
                    "duration": 0.08797649999999635
                },
                {
                    "name": "B5",
                    "midi": 83,
                    "time": 97.6539150000002,
                    "velocity": 0.5354330708661418,
                    "duration": 0.08797649999999635
                },
                {
                    "name": "D5",
                    "midi": 74,
                    "time": 97.6539150000002,
                    "velocity": 0.44881889763779526,
                    "duration": 0.08797649999999635
                },
                {
                    "name": "A4",
                    "midi": 69,
                    "time": 97.82986800000019,
                    "velocity": 0.5590551181102362,
                    "duration": 0.1759530000000069
                },
                {
                    "name": "A5",
                    "midi": 81,
                    "time": 97.82986800000019,
                    "velocity": 0.6614173228346457,
                    "duration": 0.1759530000000069
                },
                {
                    "name": "C5",
                    "midi": 72,
                    "time": 97.82986800000019,
                    "velocity": 0.5590551181102362,
                    "duration": 0.1759530000000069
                },
                {
                    "name": "B4",
                    "midi": 71,
                    "time": 98.1817740000002,
                    "velocity": 0.48031496062992124,
                    "duration": 0.08797649999999635
                },
                {
                    "name": "G#4",
                    "midi": 68,
                    "time": 98.1817740000002,
                    "velocity": 0.48031496062992124,
                    "duration": 0.08797649999999635
                },
                {
                    "name": "G#5",
                    "midi": 80,
                    "time": 98.1817740000002,
                    "velocity": 0.5669291338582677,
                    "duration": 0.08797649999999635
                },
                {
                    "name": "D5",
                    "midi": 74,
                    "time": 98.3577270000002,
                    "velocity": 0.4409448818897638,
                    "duration": 0.08797649999999635
                },
                {
                    "name": "B5",
                    "midi": 83,
                    "time": 98.3577270000002,
                    "velocity": 0.5275590551181102,
                    "duration": 0.08797649999999635
                },
                {
                    "name": "B4",
                    "midi": 71,
                    "time": 98.3577270000002,
                    "velocity": 0.4409448818897638,
                    "duration": 0.08797649999999635
                },
                {
                    "name": "A4",
                    "midi": 69,
                    "time": 98.53368000000019,
                    "velocity": 0.5590551181102362,
                    "duration": 0.08797649999999635
                },
                {
                    "name": "A5",
                    "midi": 81,
                    "time": 98.53368000000019,
                    "velocity": 0.6614173228346457,
                    "duration": 0.08797649999999635
                },
                {
                    "name": "C5",
                    "midi": 72,
                    "time": 98.53368000000019,
                    "velocity": 0.5590551181102362,
                    "duration": 0.08797649999999635
                },
                {
                    "name": "B4",
                    "midi": 71,
                    "time": 98.88558600000019,
                    "velocity": 0.48031496062992124,
                    "duration": 0.08797649999999635
                },
                {
                    "name": "G#4",
                    "midi": 68,
                    "time": 98.88558600000019,
                    "velocity": 0.48031496062992124,
                    "duration": 0.08797649999999635
                },
                {
                    "name": "G#5",
                    "midi": 80,
                    "time": 98.88558600000019,
                    "velocity": 0.5748031496062992,
                    "duration": 0.08797649999999635
                },
                {
                    "name": "A4",
                    "midi": 69,
                    "time": 99.23749200000019,
                    "velocity": 0.5511811023622047,
                    "duration": 0.7038119999999992
                },
                {
                    "name": "C5",
                    "midi": 72,
                    "time": 99.23749200000019,
                    "velocity": 0.5511811023622047,
                    "duration": 0.7038119999999992
                },
                {
                    "name": "A5",
                    "midi": 81,
                    "time": 99.23749200000019,
                    "velocity": 0.6535433070866141,
                    "duration": 0.7038119999999992
                },
                {
                    "name": "A6",
                    "midi": 93,
                    "time": 99.94130400000019,
                    "velocity": 0.5905511811023622,
                    "duration": 0.08797649999999635
                },
                {
                    "name": "A5",
                    "midi": 81,
                    "time": 99.94130400000019,
                    "velocity": 0.49606299212598426,
                    "duration": 0.08797649999999635
                },
                {
                    "name": "B6",
                    "midi": 95,
                    "time": 100.11725700000018,
                    "velocity": 0.6220472440944882,
                    "duration": 0.08797649999999635
                },
                {
                    "name": "B5",
                    "midi": 83,
                    "time": 100.11725700000018,
                    "velocity": 0.5275590551181102,
                    "duration": 0.08797649999999635
                },
                {
                    "name": "C7",
                    "midi": 96,
                    "time": 100.29321000000017,
                    "velocity": 0.6771653543307087,
                    "duration": 0.5278590000000065
                },
                {
                    "name": "C6",
                    "midi": 84,
                    "time": 100.29321000000017,
                    "velocity": 0.5669291338582677,
                    "duration": 0.5278590000000065
                },
                {
                    "name": "B6",
                    "midi": 95,
                    "time": 100.82106900000018,
                    "velocity": 0.5826771653543307,
                    "duration": 0.08797649999999635
                },
                {
                    "name": "B5",
                    "midi": 83,
                    "time": 100.82106900000018,
                    "velocity": 0.4881889763779528,
                    "duration": 0.08797649999999635
                },
                {
                    "name": "A6",
                    "midi": 93,
                    "time": 100.99702200000017,
                    "velocity": 0.6850393700787402,
                    "duration": 0.5278590000000065
                },
                {
                    "name": "A5",
                    "midi": 81,
                    "time": 100.99702200000017,
                    "velocity": 0.5748031496062992,
                    "duration": 0.5278590000000065
                },
                {
                    "name": "G6",
                    "midi": 91,
                    "time": 101.52488100000018,
                    "velocity": 0.5905511811023622,
                    "duration": 0.08797649999999635
                },
                {
                    "name": "G5",
                    "midi": 79,
                    "time": 101.52488100000018,
                    "velocity": 0.49606299212598426,
                    "duration": 0.08797649999999635
                },
                {
                    "name": "F6",
                    "midi": 89,
                    "time": 101.70083400000017,
                    "velocity": 0.6929133858267716,
                    "duration": 0.5278590000000065
                },
                {
                    "name": "F5",
                    "midi": 77,
                    "time": 101.70083400000017,
                    "velocity": 0.5826771653543307,
                    "duration": 0.5278590000000065
                },
                {
                    "name": "E6",
                    "midi": 88,
                    "time": 102.22869300000018,
                    "velocity": 0.6377952755905512,
                    "duration": 0.08797649999999635
                },
                {
                    "name": "E5",
                    "midi": 76,
                    "time": 102.22869300000018,
                    "velocity": 0.5354330708661418,
                    "duration": 0.08797649999999635
                },
                {
                    "name": "D6",
                    "midi": 86,
                    "time": 102.40464600000017,
                    "velocity": 0.6377952755905512,
                    "duration": 0.08797649999999635
                },
                {
                    "name": "D5",
                    "midi": 74,
                    "time": 102.40464600000017,
                    "velocity": 0.5354330708661418,
                    "duration": 0.08797649999999635
                },
                {
                    "name": "C#6",
                    "midi": 85,
                    "time": 102.58059900000016,
                    "velocity": 0.6377952755905512,
                    "duration": 0.08797649999999635
                },
                {
                    "name": "C#5",
                    "midi": 73,
                    "time": 102.58059900000016,
                    "velocity": 0.5354330708661418,
                    "duration": 0.08797649999999635
                },
                {
                    "name": "F5",
                    "midi": 77,
                    "time": 102.75655200000016,
                    "velocity": 0.5984251968503937,
                    "duration": 0.1759530000000069
                },
                {
                    "name": "D5",
                    "midi": 74,
                    "time": 102.75655200000016,
                    "velocity": 0.5984251968503937,
                    "duration": 0.1759530000000069
                },
                {
                    "name": "D6",
                    "midi": 86,
                    "time": 102.75655200000016,
                    "velocity": 0.7086614173228346,
                    "duration": 0.1759530000000069
                },
                {
                    "name": "E5",
                    "midi": 76,
                    "time": 103.10845800000017,
                    "velocity": 0.49606299212598426,
                    "duration": 0.08797649999999635
                },
                {
                    "name": "C#5",
                    "midi": 73,
                    "time": 103.10845800000017,
                    "velocity": 0.49606299212598426,
                    "duration": 0.08797649999999635
                },
                {
                    "name": "C#6",
                    "midi": 85,
                    "time": 103.10845800000017,
                    "velocity": 0.5826771653543307,
                    "duration": 0.08797649999999635
                },
                {
                    "name": "E5",
                    "midi": 76,
                    "time": 103.28441100000016,
                    "velocity": 0.44881889763779526,
                    "duration": 0.08797649999999635
                },
                {
                    "name": "E6",
                    "midi": 88,
                    "time": 103.28441100000016,
                    "velocity": 0.5354330708661418,
                    "duration": 0.08797649999999635
                },
                {
                    "name": "G5",
                    "midi": 79,
                    "time": 103.28441100000016,
                    "velocity": 0.44881889763779526,
                    "duration": 0.08797649999999635
                },
                {
                    "name": "D5",
                    "midi": 74,
                    "time": 103.46036400000015,
                    "velocity": 0.5590551181102362,
                    "duration": 0.1759530000000069
                },
                {
                    "name": "D6",
                    "midi": 86,
                    "time": 103.46036400000015,
                    "velocity": 0.6614173228346457,
                    "duration": 0.1759530000000069
                },
                {
                    "name": "F5",
                    "midi": 77,
                    "time": 103.46036400000015,
                    "velocity": 0.5590551181102362,
                    "duration": 0.1759530000000069
                },
                {
                    "name": "E5",
                    "midi": 76,
                    "time": 103.81227000000017,
                    "velocity": 0.48031496062992124,
                    "duration": 0.08797649999999635
                },
                {
                    "name": "C#5",
                    "midi": 73,
                    "time": 103.81227000000017,
                    "velocity": 0.48031496062992124,
                    "duration": 0.08797649999999635
                },
                {
                    "name": "C#6",
                    "midi": 85,
                    "time": 103.81227000000017,
                    "velocity": 0.5669291338582677,
                    "duration": 0.08797649999999635
                },
                {
                    "name": "G5",
                    "midi": 79,
                    "time": 103.98822300000016,
                    "velocity": 0.4409448818897638,
                    "duration": 0.08797649999999635
                },
                {
                    "name": "E6",
                    "midi": 88,
                    "time": 103.98822300000016,
                    "velocity": 0.5275590551181102,
                    "duration": 0.08797649999999635
                },
                {
                    "name": "E5",
                    "midi": 76,
                    "time": 103.98822300000016,
                    "velocity": 0.4409448818897638,
                    "duration": 0.08797649999999635
                },
                {
                    "name": "D5",
                    "midi": 74,
                    "time": 104.16417600000015,
                    "velocity": 0.5590551181102362,
                    "duration": 0.08797649999999635
                },
                {
                    "name": "D6",
                    "midi": 86,
                    "time": 104.16417600000015,
                    "velocity": 0.6614173228346457,
                    "duration": 0.08797649999999635
                },
                {
                    "name": "F5",
                    "midi": 77,
                    "time": 104.16417600000015,
                    "velocity": 0.5590551181102362,
                    "duration": 0.08797649999999635
                },
                {
                    "name": "E5",
                    "midi": 76,
                    "time": 104.51608200000015,
                    "velocity": 0.4409448818897638,
                    "duration": 0.08797649999999635
                },
                {
                    "name": "C#5",
                    "midi": 73,
                    "time": 104.51608200000015,
                    "velocity": 0.4409448818897638,
                    "duration": 0.08797649999999635
                },
                {
                    "name": "C#6",
                    "midi": 85,
                    "time": 104.51608200000015,
                    "velocity": 0.5275590551181102,
                    "duration": 0.08797649999999635
                },
                {
                    "name": "D5",
                    "midi": 74,
                    "time": 104.86798800000015,
                    "velocity": 0.5748031496062992,
                    "duration": 0.7038119999999992
                },
                {
                    "name": "F5",
                    "midi": 77,
                    "time": 104.86798800000015,
                    "velocity": 0.5748031496062992,
                    "duration": 0.7038119999999992
                },
                {
                    "name": "D6",
                    "midi": 86,
                    "time": 104.86798800000015,
                    "velocity": 0.6850393700787402,
                    "duration": 0.7038119999999992
                },
                {
                    "name": "D7",
                    "midi": 98,
                    "time": 105.57180000000015,
                    "velocity": 0.5905511811023622,
                    "duration": 0.08797649999999635
                },
                {
                    "name": "D6",
                    "midi": 86,
                    "time": 105.57180000000015,
                    "velocity": 0.49606299212598426,
                    "duration": 0.08797649999999635
                },
                {
                    "name": "E7",
                    "midi": 100,
                    "time": 105.74775300000015,
                    "velocity": 0.6220472440944882,
                    "duration": 0.08797649999999635
                },
                {
                    "name": "E6",
                    "midi": 88,
                    "time": 105.74775300000015,
                    "velocity": 0.5275590551181102,
                    "duration": 0.08797649999999635
                },
                {
                    "name": "F7",
                    "midi": 101,
                    "time": 105.92370600000014,
                    "velocity": 0.6456692913385826,
                    "duration": 0.5278590000000065
                },
                {
                    "name": "F6",
                    "midi": 89,
                    "time": 105.92370600000014,
                    "velocity": 0.5433070866141733,
                    "duration": 0.5278590000000065
                },
                {
                    "name": "E7",
                    "midi": 100,
                    "time": 106.45156500000014,
                    "velocity": 0.5826771653543307,
                    "duration": 0.08797649999999635
                },
                {
                    "name": "E6",
                    "midi": 88,
                    "time": 106.45156500000014,
                    "velocity": 0.4881889763779528,
                    "duration": 0.08797649999999635
                },
                {
                    "name": "D7",
                    "midi": 98,
                    "time": 106.62751800000014,
                    "velocity": 0.6535433070866141,
                    "duration": 0.5278590000000065
                },
                {
                    "name": "D6",
                    "midi": 86,
                    "time": 106.62751800000014,
                    "velocity": 0.5511811023622047,
                    "duration": 0.5278590000000065
                },
                {
                    "name": "C7",
                    "midi": 96,
                    "time": 107.15537700000014,
                    "velocity": 0.5905511811023622,
                    "duration": 0.08797649999999635
                },
                {
                    "name": "C6",
                    "midi": 84,
                    "time": 107.15537700000014,
                    "velocity": 0.49606299212598426,
                    "duration": 0.08797649999999635
                },
                {
                    "name": "B6",
                    "midi": 95,
                    "time": 107.33133000000014,
                    "velocity": 0.6614173228346457,
                    "duration": 0.5278590000000065
                },
                {
                    "name": "B5",
                    "midi": 83,
                    "time": 107.33133000000014,
                    "velocity": 0.5590551181102362,
                    "duration": 0.5278590000000065
                },
                {
                    "name": "A6",
                    "midi": 93,
                    "time": 107.85918900000014,
                    "velocity": 0.6062992125984252,
                    "duration": 0.08797649999999635
                },
                {
                    "name": "A5",
                    "midi": 81,
                    "time": 107.85918900000014,
                    "velocity": 0.5118110236220472,
                    "duration": 0.08797649999999635
                },
                {
                    "name": "G#6",
                    "midi": 92,
                    "time": 108.03514200000014,
                    "velocity": 0.6062992125984252,
                    "duration": 0.08797649999999635
                },
                {
                    "name": "G#5",
                    "midi": 80,
                    "time": 108.03514200000014,
                    "velocity": 0.5118110236220472,
                    "duration": 0.08797649999999635
                },
                {
                    "name": "A6",
                    "midi": 93,
                    "time": 108.21109500000013,
                    "velocity": 0.6062992125984252,
                    "duration": 0.08797649999999635
                },
                {
                    "name": "A5",
                    "midi": 81,
                    "time": 108.21109500000013,
                    "velocity": 0.5118110236220472,
                    "duration": 0.08797649999999635
                },
                {
                    "name": "G#6",
                    "midi": 92,
                    "time": 108.38704800000012,
                    "velocity": 0.6220472440944882,
                    "duration": 0.08797649999999635
                },
                {
                    "name": "G#5",
                    "midi": 80,
                    "time": 108.38704800000012,
                    "velocity": 0.5275590551181102,
                    "duration": 0.08797649999999635
                },
                {
                    "name": "B6",
                    "midi": 95,
                    "time": 108.56300100000011,
                    "velocity": 0.6614173228346457,
                    "duration": 0.08797649999999635
                },
                {
                    "name": "B5",
                    "midi": 83,
                    "time": 108.56300100000011,
                    "velocity": 0.5590551181102362,
                    "duration": 0.08797649999999635
                },
                {
                    "name": "E7",
                    "midi": 100,
                    "time": 108.7389540000001,
                    "velocity": 0.6929133858267716,
                    "duration": 0.1759530000000069
                },
                {
                    "name": "E6",
                    "midi": 88,
                    "time": 108.7389540000001,
                    "velocity": 0.5826771653543307,
                    "duration": 0.1759530000000069
                },
                {
                    "name": "E4",
                    "midi": 64,
                    "time": 109.09086000000012,
                    "velocity": 0.6771653543307087,
                    "duration": 0.7038119999999992
                },
                {
                    "name": "G#3",
                    "midi": 56,
                    "time": 109.09086000000012,
                    "velocity": 0.5748031496062992,
                    "duration": 0.7038119999999992
                },
                {
                    "name": "B3",
                    "midi": 59,
                    "time": 109.09086000000012,
                    "velocity": 0.5748031496062992,
                    "duration": 0.7038119999999992
                },
                {
                    "name": "A6",
                    "midi": 93,
                    "time": 109.79467200000012,
                    "velocity": 0.6220472440944882,
                    "duration": 0.08797649999999635
                },
                {
                    "name": "A5",
                    "midi": 81,
                    "time": 109.79467200000012,
                    "velocity": 0.5275590551181102,
                    "duration": 0.08797649999999635
                },
                {
                    "name": "C7",
                    "midi": 96,
                    "time": 109.97062500000011,
                    "velocity": 0.6614173228346457,
                    "duration": 0.08797649999999635
                },
                {
                    "name": "C6",
                    "midi": 84,
                    "time": 109.97062500000011,
                    "velocity": 0.5590551181102362,
                    "duration": 0.08797649999999635
                },
                {
                    "name": "E7",
                    "midi": 100,
                    "time": 110.1465780000001,
                    "velocity": 0.6929133858267716,
                    "duration": 0.1759530000000069
                },
                {
                    "name": "E6",
                    "midi": 88,
                    "time": 110.1465780000001,
                    "velocity": 0.5826771653543307,
                    "duration": 0.1759530000000069
                },
                {
                    "name": "E4",
                    "midi": 64,
                    "time": 110.49848400000012,
                    "velocity": 0.6771653543307087,
                    "duration": 0.7038119999999992
                },
                {
                    "name": "A3",
                    "midi": 57,
                    "time": 110.49848400000012,
                    "velocity": 0.5748031496062992,
                    "duration": 0.7038119999999992
                },
                {
                    "name": "C4",
                    "midi": 60,
                    "time": 110.49848400000012,
                    "velocity": 0.5748031496062992,
                    "duration": 0.7038119999999992
                },
                {
                    "name": "G#5",
                    "midi": 80,
                    "time": 111.20229600000012,
                    "velocity": 0.5748031496062992,
                    "duration": 0.08797649999999635
                },
                {
                    "name": "B4",
                    "midi": 71,
                    "time": 111.20229600000012,
                    "velocity": 0.4881889763779528,
                    "duration": 0.08797649999999635
                },
                {
                    "name": "B5",
                    "midi": 83,
                    "time": 111.37824900000011,
                    "velocity": 0.5118110236220472,
                    "duration": 0.08797649999999635
                },
                {
                    "name": "D5",
                    "midi": 74,
                    "time": 111.37824900000011,
                    "velocity": 0.4330708661417323,
                    "duration": 0.08797649999999635
                },
                {
                    "name": "G#5",
                    "midi": 80,
                    "time": 111.5542020000001,
                    "velocity": 0.5748031496062992,
                    "duration": 0.08797649999999635
                },
                {
                    "name": "B4",
                    "midi": 71,
                    "time": 111.5542020000001,
                    "velocity": 0.4881889763779528,
                    "duration": 0.08797649999999635
                },
                {
                    "name": "B5",
                    "midi": 83,
                    "time": 111.7301550000001,
                    "velocity": 0.5275590551181102,
                    "duration": 0.08797649999999635
                },
                {
                    "name": "D5",
                    "midi": 74,
                    "time": 111.7301550000001,
                    "velocity": 0.4409448818897638,
                    "duration": 0.08797649999999635
                },
                {
                    "name": "F3",
                    "midi": 53,
                    "time": 111.90610800000009,
                    "velocity": 0.6614173228346457,
                    "duration": 0.3519059999999996
                },
                {
                    "name": "E3",
                    "midi": 52,
                    "time": 112.25801400000009,
                    "velocity": 0.5826771653543307,
                    "duration": 0.08797649999999635
                },
                {
                    "name": "A5",
                    "midi": 81,
                    "time": 112.60992000000009,
                    "velocity": 0.5748031496062992,
                    "duration": 0.08797649999999635
                },
                {
                    "name": "C5",
                    "midi": 72,
                    "time": 112.60992000000009,
                    "velocity": 0.4881889763779528,
                    "duration": 0.08797649999999635
                },
                {
                    "name": "C6",
                    "midi": 84,
                    "time": 112.78587300000008,
                    "velocity": 0.5118110236220472,
                    "duration": 0.08797649999999635
                },
                {
                    "name": "E5",
                    "midi": 76,
                    "time": 112.78587300000008,
                    "velocity": 0.4330708661417323,
                    "duration": 0.08797649999999635
                },
                {
                    "name": "A5",
                    "midi": 81,
                    "time": 112.96182600000007,
                    "velocity": 0.5748031496062992,
                    "duration": 0.08797649999999635
                },
                {
                    "name": "C5",
                    "midi": 72,
                    "time": 112.96182600000007,
                    "velocity": 0.4881889763779528,
                    "duration": 0.08797649999999635
                },
                {
                    "name": "C6",
                    "midi": 84,
                    "time": 113.13777900000007,
                    "velocity": 0.5275590551181102,
                    "duration": 0.08797649999999635
                },
                {
                    "name": "E5",
                    "midi": 76,
                    "time": 113.13777900000007,
                    "velocity": 0.4409448818897638,
                    "duration": 0.08797649999999635
                },
                {
                    "name": "F3",
                    "midi": 53,
                    "time": 113.31373200000006,
                    "velocity": 0.6614173228346457,
                    "duration": 0.3519059999999996
                },
                {
                    "name": "E3",
                    "midi": 52,
                    "time": 113.66563800000006,
                    "velocity": 0.5826771653543307,
                    "duration": 0.08797649999999635
                },
                {
                    "name": "B6",
                    "midi": 95,
                    "time": 114.01754400000006,
                    "velocity": 0.6850393700787402,
                    "duration": 0.19354830000000334
                },
                {
                    "name": "F7",
                    "midi": 101,
                    "time": 114.01754400000006,
                    "velocity": 0.6850393700787402,
                    "duration": 0.19354830000000334
                },
                {
                    "name": "F6",
                    "midi": 89,
                    "time": 114.01754400000006,
                    "velocity": 0.5748031496062992,
                    "duration": 0.19354830000000334
                },
                {
                    "name": "G#6",
                    "midi": 92,
                    "time": 114.01754400000006,
                    "velocity": 0.5748031496062992,
                    "duration": 0.19354830000000334
                },
                {
                    "name": "E7",
                    "midi": 100,
                    "time": 114.19349700000006,
                    "velocity": 0.6771653543307087,
                    "duration": 0.19354829999998913
                },
                {
                    "name": "E6",
                    "midi": 88,
                    "time": 114.19349700000006,
                    "velocity": 0.5748031496062992,
                    "duration": 0.19354829999998913
                },
                {
                    "name": "D7",
                    "midi": 98,
                    "time": 114.36945000000006,
                    "velocity": 0.6614173228346457,
                    "duration": 0.19354829999998913
                },
                {
                    "name": "D6",
                    "midi": 86,
                    "time": 114.36945000000006,
                    "velocity": 0.5590551181102362,
                    "duration": 0.19354829999998913
                },
                {
                    "name": "C7",
                    "midi": 96,
                    "time": 114.54540300000005,
                    "velocity": 0.6535433070866141,
                    "duration": 0.19354829999998913
                },
                {
                    "name": "C6",
                    "midi": 84,
                    "time": 114.54540300000005,
                    "velocity": 0.5511811023622047,
                    "duration": 0.19354829999998913
                },
                {
                    "name": "B6",
                    "midi": 95,
                    "time": 114.72135600000004,
                    "velocity": 0.6377952755905512,
                    "duration": 0.19354829999998913
                },
                {
                    "name": "B5",
                    "midi": 83,
                    "time": 114.72135600000004,
                    "velocity": 0.5354330708661418,
                    "duration": 0.19354829999998913
                },
                {
                    "name": "A6",
                    "midi": 93,
                    "time": 114.89730900000004,
                    "velocity": 0.6299212598425197,
                    "duration": 0.19354829999998913
                },
                {
                    "name": "A5",
                    "midi": 81,
                    "time": 114.89730900000004,
                    "velocity": 0.5354330708661418,
                    "duration": 0.19354829999998913
                },
                {
                    "name": "G#6",
                    "midi": 92,
                    "time": 115.07326200000003,
                    "velocity": 0.6220472440944882,
                    "duration": 0.19354829999998913
                },
                {
                    "name": "G#5",
                    "midi": 80,
                    "time": 115.07326200000003,
                    "velocity": 0.5275590551181102,
                    "duration": 0.19354829999998913
                },
                {
                    "name": "E6",
                    "midi": 88,
                    "time": 115.24921500000002,
                    "velocity": 0.6062992125984252,
                    "duration": 0.19354829999998913
                },
                {
                    "name": "E5",
                    "midi": 76,
                    "time": 115.24921500000002,
                    "velocity": 0.5118110236220472,
                    "duration": 0.19354829999998913
                },
                {
                    "name": "F6",
                    "midi": 89,
                    "time": 115.42516800000001,
                    "velocity": 0.6299212598425197,
                    "duration": 0.19354829999998913
                },
                {
                    "name": "F5",
                    "midi": 77,
                    "time": 115.42516800000001,
                    "velocity": 0.5354330708661418,
                    "duration": 0.19354829999998913
                },
                {
                    "name": "G#5",
                    "midi": 80,
                    "time": 115.42516800000001,
                    "velocity": 0.5354330708661418,
                    "duration": 0.19354829999998913
                },
                {
                    "name": "B5",
                    "midi": 83,
                    "time": 115.42516800000001,
                    "velocity": 0.5354330708661418,
                    "duration": 0.19354829999998913
                },
                {
                    "name": "E6",
                    "midi": 88,
                    "time": 115.601121,
                    "velocity": 0.6062992125984252,
                    "duration": 0.19354829999998913
                },
                {
                    "name": "E5",
                    "midi": 76,
                    "time": 115.601121,
                    "velocity": 0.5118110236220472,
                    "duration": 0.19354829999998913
                },
                {
                    "name": "D6",
                    "midi": 86,
                    "time": 115.777074,
                    "velocity": 0.5905511811023622,
                    "duration": 0.19354829999998913
                },
                {
                    "name": "D5",
                    "midi": 74,
                    "time": 115.777074,
                    "velocity": 0.49606299212598426,
                    "duration": 0.19354829999998913
                },
                {
                    "name": "C6",
                    "midi": 84,
                    "time": 115.95302699999999,
                    "velocity": 0.5748031496062992,
                    "duration": 0.19354829999998913
                },
                {
                    "name": "C5",
                    "midi": 72,
                    "time": 115.95302699999999,
                    "velocity": 0.4881889763779528,
                    "duration": 0.19354829999998913
                },
                {
                    "name": "B5",
                    "midi": 83,
                    "time": 116.12897999999998,
                    "velocity": 0.5669291338582677,
                    "duration": 0.19354829999998913
                },
                {
                    "name": "B4",
                    "midi": 71,
                    "time": 116.12897999999998,
                    "velocity": 0.48031496062992124,
                    "duration": 0.19354829999998913
                },
                {
                    "name": "A5",
                    "midi": 81,
                    "time": 116.30493299999998,
                    "velocity": 0.5511811023622047,
                    "duration": 0.19354829999998913
                },
                {
                    "name": "A4",
                    "midi": 69,
                    "time": 116.30493299999998,
                    "velocity": 0.4645669291338583,
                    "duration": 0.19354829999998913
                },
                {
                    "name": "G#5",
                    "midi": 80,
                    "time": 116.48088599999997,
                    "velocity": 0.5354330708661418,
                    "duration": 0.19354829999998913
                },
                {
                    "name": "G#4",
                    "midi": 68,
                    "time": 116.48088599999997,
                    "velocity": 0.44881889763779526,
                    "duration": 0.19354829999998913
                },
                {
                    "name": "E5",
                    "midi": 76,
                    "time": 116.65683899999996,
                    "velocity": 0.5275590551181102,
                    "duration": 0.1759529999999927
                },
                {
                    "name": "E4",
                    "midi": 64,
                    "time": 116.65683899999996,
                    "velocity": 0.4409448818897638,
                    "duration": 0.1759529999999927
                },
                {
                    "name": "E4",
                    "midi": 64,
                    "time": 116.83279199999996,
                    "velocity": 0.5275590551181102,
                    "duration": 0.1759530000000069
                },
                {
                    "name": "E5",
                    "midi": 76,
                    "time": 116.83279199999996,
                    "velocity": 0.5275590551181102,
                    "duration": 0.1759530000000069
                },
                {
                    "name": "A4",
                    "midi": 69,
                    "time": 116.83279199999996,
                    "velocity": 0.5669291338582677,
                    "duration": 0.1759530000000069
                },
                {
                    "name": "C5",
                    "midi": 72,
                    "time": 117.00874499999996,
                    "velocity": 0.5196850393700787,
                    "duration": 0.08797649999999635
                },
                {
                    "name": "E4",
                    "midi": 64,
                    "time": 117.18469799999995,
                    "velocity": 0.5275590551181102,
                    "duration": 0.1759530000000069
                },
                {
                    "name": "E5",
                    "midi": 76,
                    "time": 117.18469799999995,
                    "velocity": 0.5275590551181102,
                    "duration": 0.1759530000000069
                },
                {
                    "name": "G#4",
                    "midi": 68,
                    "time": 117.18469799999995,
                    "velocity": 0.5748031496062992,
                    "duration": 0.1759530000000069
                },
                {
                    "name": "B4",
                    "midi": 71,
                    "time": 117.36065099999996,
                    "velocity": 0.5669291338582677,
                    "duration": 0.08797649999999635
                },
                {
                    "name": "A5",
                    "midi": 81,
                    "time": 117.53660399999995,
                    "velocity": 0.5669291338582677,
                    "duration": 0.1759530000000069
                },
                {
                    "name": "A4",
                    "midi": 69,
                    "time": 117.53660399999995,
                    "velocity": 0.48031496062992124,
                    "duration": 0.1759530000000069
                },
                {
                    "name": "C5",
                    "midi": 72,
                    "time": 117.53660399999995,
                    "velocity": 0.48031496062992124,
                    "duration": 0.1759530000000069
                },
                {
                    "name": "C6",
                    "midi": 84,
                    "time": 117.71255699999996,
                    "velocity": 0.5196850393700787,
                    "duration": 0.08797649999999635
                },
                {
                    "name": "C5",
                    "midi": 72,
                    "time": 117.71255699999996,
                    "velocity": 0.4409448818897638,
                    "duration": 0.08797649999999635
                },
                {
                    "name": "E5",
                    "midi": 76,
                    "time": 117.71255699999996,
                    "velocity": 0.4409448818897638,
                    "duration": 0.08797649999999635
                },
                {
                    "name": "G#5",
                    "midi": 80,
                    "time": 117.88850999999995,
                    "velocity": 0.5748031496062992,
                    "duration": 0.1759530000000069
                },
                {
                    "name": "G#4",
                    "midi": 68,
                    "time": 117.88850999999995,
                    "velocity": 0.4881889763779528,
                    "duration": 0.1759530000000069
                },
                {
                    "name": "B4",
                    "midi": 71,
                    "time": 117.88850999999995,
                    "velocity": 0.4881889763779528,
                    "duration": 0.1759530000000069
                },
                {
                    "name": "B5",
                    "midi": 83,
                    "time": 118.06446299999996,
                    "velocity": 0.5669291338582677,
                    "duration": 0.08797649999999635
                },
                {
                    "name": "B4",
                    "midi": 71,
                    "time": 118.06446299999996,
                    "velocity": 0.48031496062992124,
                    "duration": 0.08797649999999635
                },
                {
                    "name": "D5",
                    "midi": 74,
                    "time": 118.06446299999996,
                    "velocity": 0.48031496062992124,
                    "duration": 0.08797649999999635
                },
                {
                    "name": "A5",
                    "midi": 81,
                    "time": 118.24041599999995,
                    "velocity": 0.6692913385826772,
                    "duration": 0.1759530000000069
                },
                {
                    "name": "A4",
                    "midi": 69,
                    "time": 118.24041599999995,
                    "velocity": 0.5590551181102362,
                    "duration": 0.1759530000000069
                },
                {
                    "name": "C5",
                    "midi": 72,
                    "time": 118.24041599999995,
                    "velocity": 0.5590551181102362,
                    "duration": 0.1759530000000069
                },
                {
                    "name": "F6",
                    "midi": 89,
                    "time": 118.94422799999997,
                    "velocity": 0.7165354330708661,
                    "duration": 0.1759530000000069
                },
                {
                    "name": "F5",
                    "midi": 77,
                    "time": 118.94422799999997,
                    "velocity": 0.5984251968503937,
                    "duration": 0.1759530000000069
                },
                {
                    "name": "A5",
                    "midi": 81,
                    "time": 118.94422799999997,
                    "velocity": 0.5984251968503937,
                    "duration": 0.1759530000000069
                },
                {
                    "name": "D6",
                    "midi": 86,
                    "time": 118.94422799999997,
                    "velocity": 0.5984251968503937,
                    "duration": 0.1759530000000069
                },
                {
                    "name": "A6",
                    "midi": 93,
                    "time": 119.64803999999998,
                    "velocity": 0.7716535433070866,
                    "duration": 0.7038119999999992
                },
                {
                    "name": "A5",
                    "midi": 81,
                    "time": 119.64803999999998,
                    "velocity": 0.6456692913385826,
                    "duration": 0.7038119999999992
                },
                {
                    "name": "C6",
                    "midi": 84,
                    "time": 119.64803999999998,
                    "velocity": 0.6456692913385826,
                    "duration": 0.7038119999999992
                },
                {
                    "name": "E6",
                    "midi": 88,
                    "time": 119.64803999999998,
                    "velocity": 0.6456692913385826,
                    "duration": 0.7038119999999992
                },
                {
                    "name": "C#5",
                    "midi": 73,
                    "time": 120.70375799999998,
                    "velocity": 0.33070866141732286,
                    "duration": 0.1759530000000069
                },
                {
                    "name": "E5",
                    "midi": 76,
                    "time": 120.87971099999999,
                    "velocity": 0.3228346456692913,
                    "duration": 0.1759530000000069
                },
                {
                    "name": "A4",
                    "midi": 69,
                    "time": 121.055664,
                    "velocity": 0.3700787401574803,
                    "duration": 0.7038119999999992
                },
                {
                    "name": "C#5",
                    "midi": 73,
                    "time": 122.11138199999999,
                    "velocity": 0.3937007874015748,
                    "duration": 0.1759530000000069
                },
                {
                    "name": "E5",
                    "midi": 76,
                    "time": 122.287335,
                    "velocity": 0.3858267716535433,
                    "duration": 0.1759530000000069
                },
                {
                    "name": "A4",
                    "midi": 69,
                    "time": 122.463288,
                    "velocity": 0.4409448818897638,
                    "duration": 0.7038119999999992
                },
                {
                    "name": "A5",
                    "midi": 81,
                    "time": 123.519006,
                    "velocity": 0.3937007874015748,
                    "duration": 0.1759530000000069
                },
                {
                    "name": "C#5",
                    "midi": 73,
                    "time": 123.519006,
                    "velocity": 0.33070866141732286,
                    "duration": 0.3519059999999996
                },
                {
                    "name": "G#5",
                    "midi": 80,
                    "time": 123.69495900000001,
                    "velocity": 0.3543307086614173,
                    "duration": 0.08797649999999635
                },
                {
                    "name": "G#5",
                    "midi": 80,
                    "time": 123.870912,
                    "velocity": 0.3937007874015748,
                    "duration": 0.1759530000000069
                },
                {
                    "name": "C#5",
                    "midi": 73,
                    "time": 123.870912,
                    "velocity": 0.33070866141732286,
                    "duration": 0.3519059999999996
                },
                {
                    "name": "F#5",
                    "midi": 78,
                    "time": 124.04686500000001,
                    "velocity": 0.3543307086614173,
                    "duration": 0.08797649999999635
                },
                {
                    "name": "F#5",
                    "midi": 78,
                    "time": 124.222818,
                    "velocity": 0.3937007874015748,
                    "duration": 0.1759530000000069
                },
                {
                    "name": "C#5",
                    "midi": 73,
                    "time": 124.222818,
                    "velocity": 0.33070866141732286,
                    "duration": 0.3519059999999996
                },
                {
                    "name": "F5",
                    "midi": 77,
                    "time": 124.39877100000001,
                    "velocity": 0.3700787401574803,
                    "duration": 0.08797649999999635
                },
                {
                    "name": "G#5",
                    "midi": 80,
                    "time": 124.574724,
                    "velocity": 0.3937007874015748,
                    "duration": 0.1759530000000069
                },
                {
                    "name": "C#5",
                    "midi": 73,
                    "time": 124.574724,
                    "velocity": 0.33070866141732286,
                    "duration": 0.3519059999999996
                },
                {
                    "name": "F#5",
                    "midi": 78,
                    "time": 124.75067700000001,
                    "velocity": 0.36220472440944884,
                    "duration": 0.08797649999999635
                },
                {
                    "name": "F#5",
                    "midi": 78,
                    "time": 124.92663,
                    "velocity": 0.3937007874015748,
                    "duration": 0.1759530000000069
                },
                {
                    "name": "C#5",
                    "midi": 73,
                    "time": 124.92663,
                    "velocity": 0.33070866141732286,
                    "duration": 0.3519059999999996
                },
                {
                    "name": "F5",
                    "midi": 77,
                    "time": 125.10258300000001,
                    "velocity": 0.36220472440944884,
                    "duration": 0.08797649999999635
                },
                {
                    "name": "F#5",
                    "midi": 78,
                    "time": 125.278536,
                    "velocity": 0.3937007874015748,
                    "duration": 0.1759530000000069
                },
                {
                    "name": "C#5",
                    "midi": 73,
                    "time": 125.278536,
                    "velocity": 0.33070866141732286,
                    "duration": 0.1759530000000069
                },
                {
                    "name": "F#6",
                    "midi": 90,
                    "time": 126.33425400000002,
                    "velocity": 0.3937007874015748,
                    "duration": 0.1759530000000069
                },
                {
                    "name": "A5",
                    "midi": 81,
                    "time": 126.33425400000002,
                    "velocity": 0.33070866141732286,
                    "duration": 0.3519059999999996
                },
                {
                    "name": "E6",
                    "midi": 88,
                    "time": 126.51020700000002,
                    "velocity": 0.3543307086614173,
                    "duration": 0.08797649999999635
                },
                {
                    "name": "E6",
                    "midi": 88,
                    "time": 126.68616000000002,
                    "velocity": 0.3937007874015748,
                    "duration": 0.1759530000000069
                },
                {
                    "name": "A5",
                    "midi": 81,
                    "time": 126.68616000000002,
                    "velocity": 0.33070866141732286,
                    "duration": 0.3519059999999996
                },
                {
                    "name": "D6",
                    "midi": 86,
                    "time": 126.86211300000002,
                    "velocity": 0.3543307086614173,
                    "duration": 0.08797649999999635
                },
                {
                    "name": "D6",
                    "midi": 86,
                    "time": 127.03806600000001,
                    "velocity": 0.3937007874015748,
                    "duration": 0.1759530000000069
                },
                {
                    "name": "A5",
                    "midi": 81,
                    "time": 127.03806600000001,
                    "velocity": 0.33070866141732286,
                    "duration": 0.3519059999999996
                },
                {
                    "name": "C#6",
                    "midi": 85,
                    "time": 127.21401900000002,
                    "velocity": 0.3700787401574803,
                    "duration": 0.08797649999999635
                },
                {
                    "name": "E6",
                    "midi": 88,
                    "time": 127.38997200000001,
                    "velocity": 0.3937007874015748,
                    "duration": 0.1759530000000069
                },
                {
                    "name": "A5",
                    "midi": 81,
                    "time": 127.38997200000001,
                    "velocity": 0.33070866141732286,
                    "duration": 0.3519059999999996
                },
                {
                    "name": "D6",
                    "midi": 86,
                    "time": 127.56592500000002,
                    "velocity": 0.36220472440944884,
                    "duration": 0.08797649999999635
                },
                {
                    "name": "D6",
                    "midi": 86,
                    "time": 127.74187800000001,
                    "velocity": 0.3937007874015748,
                    "duration": 0.1759530000000069
                },
                {
                    "name": "A5",
                    "midi": 81,
                    "time": 127.74187800000001,
                    "velocity": 0.33070866141732286,
                    "duration": 0.3519060000000138
                },
                {
                    "name": "C#6",
                    "midi": 85,
                    "time": 127.91783100000002,
                    "velocity": 0.36220472440944884,
                    "duration": 0.08797650000001056
                },
                {
                    "name": "D6",
                    "midi": 86,
                    "time": 128.09378400000003,
                    "velocity": 0.3937007874015748,
                    "duration": 0.1759529999999927
                },
                {
                    "name": "A5",
                    "midi": 81,
                    "time": 128.09378400000003,
                    "velocity": 0.33070866141732286,
                    "duration": 0.1759529999999927
                },
                {
                    "name": "D5",
                    "midi": 74,
                    "time": 129.149502,
                    "velocity": 0.33070866141732286,
                    "duration": 0.1759529999999927
                },
                {
                    "name": "F#5",
                    "midi": 78,
                    "time": 129.325455,
                    "velocity": 0.3228346456692913,
                    "duration": 0.1759529999999927
                },
                {
                    "name": "B4",
                    "midi": 71,
                    "time": 129.501408,
                    "velocity": 0.3700787401574803,
                    "duration": 0.7038119999999992
                },
                {
                    "name": "D5",
                    "midi": 74,
                    "time": 130.557126,
                    "velocity": 0.3937007874015748,
                    "duration": 0.1759529999999927
                },
                {
                    "name": "F#5",
                    "midi": 78,
                    "time": 130.733079,
                    "velocity": 0.3858267716535433,
                    "duration": 0.1759529999999927
                },
                {
                    "name": "B4",
                    "midi": 71,
                    "time": 130.909032,
                    "velocity": 0.4409448818897638,
                    "duration": 0.7038119999999992
                },
                {
                    "name": "B6",
                    "midi": 95,
                    "time": 131.96475,
                    "velocity": 0.4251968503937008,
                    "duration": 0.08797649999999635
                },
                {
                    "name": "D6",
                    "midi": 86,
                    "time": 131.96475,
                    "velocity": 0.3543307086614173,
                    "duration": 0.08797649999999635
                },
                {
                    "name": "D7",
                    "midi": 98,
                    "time": 132.140703,
                    "velocity": 0.3937007874015748,
                    "duration": 0.08797649999999635
                },
                {
                    "name": "F#6",
                    "midi": 90,
                    "time": 132.140703,
                    "velocity": 0.33070866141732286,
                    "duration": 0.08797649999999635
                },
                {
                    "name": "C#7",
                    "midi": 97,
                    "time": 132.316656,
                    "velocity": 0.4330708661417323,
                    "duration": 0.08797649999999635
                },
                {
                    "name": "E6",
                    "midi": 88,
                    "time": 132.316656,
                    "velocity": 0.36220472440944884,
                    "duration": 0.08797649999999635
                },
                {
                    "name": "B6",
                    "midi": 95,
                    "time": 132.492609,
                    "velocity": 0.4094488188976378,
                    "duration": 0.08797649999999635
                },
                {
                    "name": "D6",
                    "midi": 86,
                    "time": 132.492609,
                    "velocity": 0.3464566929133858,
                    "duration": 0.08797649999999635
                },
                {
                    "name": "A6",
                    "midi": 93,
                    "time": 132.66856199999998,
                    "velocity": 0.4409448818897638,
                    "duration": 0.08797649999999635
                },
                {
                    "name": "C#6",
                    "midi": 85,
                    "time": 132.66856199999998,
                    "velocity": 0.3700787401574803,
                    "duration": 0.08797649999999635
                },
                {
                    "name": "C#7",
                    "midi": 97,
                    "time": 132.84451499999997,
                    "velocity": 0.3937007874015748,
                    "duration": 0.08797649999999635
                },
                {
                    "name": "E6",
                    "midi": 88,
                    "time": 132.84451499999997,
                    "velocity": 0.33070866141732286,
                    "duration": 0.08797649999999635
                },
                {
                    "name": "B6",
                    "midi": 95,
                    "time": 133.02046799999997,
                    "velocity": 0.4566929133858268,
                    "duration": 0.08797649999999635
                },
                {
                    "name": "D6",
                    "midi": 86,
                    "time": 133.02046799999997,
                    "velocity": 0.3858267716535433,
                    "duration": 0.08797649999999635
                },
                {
                    "name": "A6",
                    "midi": 93,
                    "time": 133.19642099999996,
                    "velocity": 0.3937007874015748,
                    "duration": 0.08797649999999635
                },
                {
                    "name": "C#6",
                    "midi": 85,
                    "time": 133.19642099999996,
                    "velocity": 0.33070866141732286,
                    "duration": 0.08797649999999635
                },
                {
                    "name": "G#6",
                    "midi": 92,
                    "time": 133.37237399999995,
                    "velocity": 0.4251968503937008,
                    "duration": 0.08797649999999635
                },
                {
                    "name": "B5",
                    "midi": 83,
                    "time": 133.37237399999995,
                    "velocity": 0.3543307086614173,
                    "duration": 0.08797649999999635
                },
                {
                    "name": "B6",
                    "midi": 95,
                    "time": 133.54832699999994,
                    "velocity": 0.3937007874015748,
                    "duration": 0.08797649999999635
                },
                {
                    "name": "D6",
                    "midi": 86,
                    "time": 133.54832699999994,
                    "velocity": 0.33070866141732286,
                    "duration": 0.08797649999999635
                },
                {
                    "name": "A6",
                    "midi": 93,
                    "time": 133.72427999999994,
                    "velocity": 0.47244094488188976,
                    "duration": 0.08797649999999635
                },
                {
                    "name": "C#6",
                    "midi": 85,
                    "time": 133.72427999999994,
                    "velocity": 0.4015748031496063,
                    "duration": 0.08797649999999635
                },
                {
                    "name": "C#7",
                    "midi": 97,
                    "time": 133.90023299999993,
                    "velocity": 0.3937007874015748,
                    "duration": 0.08797649999999635
                },
                {
                    "name": "E6",
                    "midi": 88,
                    "time": 133.90023299999993,
                    "velocity": 0.33070866141732286,
                    "duration": 0.08797649999999635
                },
                {
                    "name": "G#6",
                    "midi": 92,
                    "time": 134.07618599999992,
                    "velocity": 0.4330708661417323,
                    "duration": 0.08797649999999635
                },
                {
                    "name": "B5",
                    "midi": 83,
                    "time": 134.07618599999992,
                    "velocity": 0.36220472440944884,
                    "duration": 0.08797649999999635
                },
                {
                    "name": "B6",
                    "midi": 95,
                    "time": 134.25213899999991,
                    "velocity": 0.3937007874015748,
                    "duration": 0.08797649999999635
                },
                {
                    "name": "D6",
                    "midi": 86,
                    "time": 134.25213899999991,
                    "velocity": 0.33070866141732286,
                    "duration": 0.08797649999999635
                },
                {
                    "name": "A6",
                    "midi": 93,
                    "time": 134.4280919999999,
                    "velocity": 0.4409448818897638,
                    "duration": 0.08797649999999635
                },
                {
                    "name": "C#6",
                    "midi": 85,
                    "time": 134.4280919999999,
                    "velocity": 0.3700787401574803,
                    "duration": 0.08797649999999635
                },
                {
                    "name": "C#5",
                    "midi": 73,
                    "time": 135.4838099999999,
                    "velocity": 0.3858267716535433,
                    "duration": 0.08797649999999635
                },
                {
                    "name": "E4",
                    "midi": 64,
                    "time": 135.4838099999999,
                    "velocity": 0.2755905511811024,
                    "duration": 0.1759529999999927
                },
                {
                    "name": "E5",
                    "midi": 76,
                    "time": 135.5717864999999,
                    "velocity": 0.33070866141732286,
                    "duration": 0.08797649999999635
                },
                {
                    "name": "A4",
                    "midi": 69,
                    "time": 135.65976299999988,
                    "velocity": 0.3858267716535433,
                    "duration": 0.08797649999999635
                },
                {
                    "name": "E5",
                    "midi": 76,
                    "time": 135.83571599999988,
                    "velocity": 0.2755905511811024,
                    "duration": 0.1759529999999927
                },
                {
                    "name": "C#6",
                    "midi": 85,
                    "time": 135.83571599999988,
                    "velocity": 0.3858267716535433,
                    "duration": 0.08797649999999635
                },
                {
                    "name": "E6",
                    "midi": 88,
                    "time": 135.92369249999987,
                    "velocity": 0.33858267716535434,
                    "duration": 0.08797649999999635
                },
                {
                    "name": "A5",
                    "midi": 81,
                    "time": 136.01166899999987,
                    "velocity": 0.3858267716535433,
                    "duration": 0.08797649999999635
                },
                {
                    "name": "E5",
                    "midi": 76,
                    "time": 136.89143399999986,
                    "velocity": 0.2755905511811024,
                    "duration": 0.1759529999999927
                },
                {
                    "name": "C#6",
                    "midi": 85,
                    "time": 136.89143399999986,
                    "velocity": 0.3858267716535433,
                    "duration": 0.08797649999999635
                },
                {
                    "name": "E6",
                    "midi": 88,
                    "time": 136.97941049999986,
                    "velocity": 0.33070866141732286,
                    "duration": 0.08797649999999635
                },
                {
                    "name": "A5",
                    "midi": 81,
                    "time": 137.06738699999985,
                    "velocity": 0.3858267716535433,
                    "duration": 0.08797649999999635
                },
                {
                    "name": "E6",
                    "midi": 88,
                    "time": 137.24333999999985,
                    "velocity": 0.2755905511811024,
                    "duration": 0.1759529999999927
                },
                {
                    "name": "C#7",
                    "midi": 97,
                    "time": 137.24333999999985,
                    "velocity": 0.3858267716535433,
                    "duration": 0.08797649999999635
                },
                {
                    "name": "E7",
                    "midi": 100,
                    "time": 137.33131649999984,
                    "velocity": 0.33858267716535434,
                    "duration": 0.08797649999999635
                },
                {
                    "name": "A6",
                    "midi": 93,
                    "time": 137.41929299999984,
                    "velocity": 0.3858267716535433,
                    "duration": 0.08797649999999635
                },
                {
                    "name": "A6",
                    "midi": 93,
                    "time": 137.59524599999983,
                    "velocity": 0.4251968503937008,
                    "duration": 0.11730199999999513
                },
                {
                    "name": "C#6",
                    "midi": 85,
                    "time": 137.59524599999983,
                    "velocity": 0.2677165354330709,
                    "duration": 0.3519059999999854
                },
                {
                    "name": "G#6",
                    "midi": 92,
                    "time": 137.71254799999983,
                    "velocity": 0.3700787401574803,
                    "duration": 0.11730199999999513
                },
                {
                    "name": "G#5",
                    "midi": 80,
                    "time": 137.82984999999982,
                    "velocity": 0.3700787401574803,
                    "duration": 0.058650999999997566
                },
                {
                    "name": "G#6",
                    "midi": 92,
                    "time": 137.94715199999982,
                    "velocity": 0.4094488188976378,
                    "duration": 0.11730199999999513
                },
                {
                    "name": "C#6",
                    "midi": 85,
                    "time": 137.94715199999982,
                    "velocity": 0.25196850393700787,
                    "duration": 0.3519059999999854
                },
                {
                    "name": "F#6",
                    "midi": 90,
                    "time": 138.0644539999998,
                    "velocity": 0.36220472440944884,
                    "duration": 0.11730199999999513
                },
                {
                    "name": "F#5",
                    "midi": 78,
                    "time": 138.1817559999998,
                    "velocity": 0.36220472440944884,
                    "duration": 0.058650999999997566
                },
                {
                    "name": "F#6",
                    "midi": 90,
                    "time": 138.2990579999998,
                    "velocity": 0.3937007874015748,
                    "duration": 0.11730199999999513
                },
                {
                    "name": "C#6",
                    "midi": 85,
                    "time": 138.2990579999998,
                    "velocity": 0.2047244094488189,
                    "duration": 0.3519059999999854
                },
                {
                    "name": "F6",
                    "midi": 89,
                    "time": 138.4163599999998,
                    "velocity": 0.36220472440944884,
                    "duration": 0.11730199999999513
                },
                {
                    "name": "F5",
                    "midi": 77,
                    "time": 138.5336619999998,
                    "velocity": 0.36220472440944884,
                    "duration": 0.058650999999997566
                },
                {
                    "name": "G#6",
                    "midi": 92,
                    "time": 138.6509639999998,
                    "velocity": 0.3937007874015748,
                    "duration": 0.11730199999999513
                },
                {
                    "name": "C#6",
                    "midi": 85,
                    "time": 138.6509639999998,
                    "velocity": 0.2047244094488189,
                    "duration": 0.3519059999999854
                },
                {
                    "name": "F#6",
                    "midi": 90,
                    "time": 138.76826599999978,
                    "velocity": 0.36220472440944884,
                    "duration": 0.11730199999999513
                },
                {
                    "name": "F#5",
                    "midi": 78,
                    "time": 138.88556799999978,
                    "velocity": 0.36220472440944884,
                    "duration": 0.058650999999997566
                },
                {
                    "name": "F#6",
                    "midi": 90,
                    "time": 139.00286999999977,
                    "velocity": 0.3937007874015748,
                    "duration": 0.11730199999999513
                },
                {
                    "name": "C#6",
                    "midi": 85,
                    "time": 139.00286999999977,
                    "velocity": 0.2047244094488189,
                    "duration": 0.3519059999999854
                },
                {
                    "name": "F6",
                    "midi": 89,
                    "time": 139.12017199999977,
                    "velocity": 0.3779527559055118,
                    "duration": 0.11730199999999513
                },
                {
                    "name": "F5",
                    "midi": 77,
                    "time": 139.23747399999976,
                    "velocity": 0.3779527559055118,
                    "duration": 0.058650999999997566
                },
                {
                    "name": "G#6",
                    "midi": 92,
                    "time": 139.35477599999976,
                    "velocity": 0.4409448818897638,
                    "duration": 0.08797649999999635
                },
                {
                    "name": "C#6",
                    "midi": 85,
                    "time": 139.35477599999976,
                    "velocity": 0.3464566929133858,
                    "duration": 0.1759529999999927
                },
                {
                    "name": "F#6",
                    "midi": 90,
                    "time": 139.44275249999976,
                    "velocity": 0.4330708661417323,
                    "duration": 0.08797649999999635
                },
                {
                    "name": "C#6",
                    "midi": 85,
                    "time": 139.53072899999975,
                    "velocity": 0.41732283464566927,
                    "duration": 0.08797649999999635
                },
                {
                    "name": "A5",
                    "midi": 81,
                    "time": 139.61870549999975,
                    "velocity": 0.4094488188976378,
                    "duration": 0.08797649999999635
                },
                {
                    "name": "G#5",
                    "midi": 80,
                    "time": 139.70668199999974,
                    "velocity": 0.4015748031496063,
                    "duration": 0.08797649999999635
                },
                {
                    "name": "F#5",
                    "midi": 78,
                    "time": 139.79465849999974,
                    "velocity": 0.3858267716535433,
                    "duration": 0.08797649999999635
                },
                {
                    "name": "C#5",
                    "midi": 73,
                    "time": 139.88263499999974,
                    "velocity": 0.3779527559055118,
                    "duration": 0.08797649999999635
                },
                {
                    "name": "A4",
                    "midi": 69,
                    "time": 139.97061149999973,
                    "velocity": 0.36220472440944884,
                    "duration": 0.08797649999999635
                },
                {
                    "name": "F#4",
                    "midi": 66,
                    "time": 140.05858799999973,
                    "velocity": 0.3543307086614173,
                    "duration": 0.08797649999999635
                },
                {
                    "name": "F#6",
                    "midi": 90,
                    "time": 140.41049399999972,
                    "velocity": 0.4251968503937008,
                    "duration": 0.11730199999999513
                },
                {
                    "name": "A6",
                    "midi": 93,
                    "time": 140.41049399999972,
                    "velocity": 0.33858267716535434,
                    "duration": 0.3519059999999854
                },
                {
                    "name": "E6",
                    "midi": 88,
                    "time": 140.5277959999997,
                    "velocity": 0.3700787401574803,
                    "duration": 0.11730199999999513
                },
                {
                    "name": "A5",
                    "midi": 81,
                    "time": 140.6450979999997,
                    "velocity": 0.3700787401574803,
                    "duration": 0.058650999999997566
                },
                {
                    "name": "E6",
                    "midi": 88,
                    "time": 140.7623999999997,
                    "velocity": 0.4094488188976378,
                    "duration": 0.11730199999999513
                },
                {
                    "name": "A6",
                    "midi": 93,
                    "time": 140.7623999999997,
                    "velocity": 0.3228346456692913,
                    "duration": 0.3519059999999854
                },
                {
                    "name": "D6",
                    "midi": 86,
                    "time": 140.8797019999997,
                    "velocity": 0.36220472440944884,
                    "duration": 0.11730199999999513
                },
                {
                    "name": "A5",
                    "midi": 81,
                    "time": 140.9970039999997,
                    "velocity": 0.36220472440944884,
                    "duration": 0.058650999999997566
                },
                {
                    "name": "D6",
                    "midi": 86,
                    "time": 141.1143059999997,
                    "velocity": 0.3937007874015748,
                    "duration": 0.11730199999999513
                },
                {
                    "name": "A6",
                    "midi": 93,
                    "time": 141.1143059999997,
                    "velocity": 0.25984251968503935,
                    "duration": 0.3519059999999854
                },
                {
                    "name": "C#6",
                    "midi": 85,
                    "time": 141.23160799999968,
                    "velocity": 0.36220472440944884,
                    "duration": 0.11730199999999513
                },
                {
                    "name": "A5",
                    "midi": 81,
                    "time": 141.34890999999968,
                    "velocity": 0.36220472440944884,
                    "duration": 0.058650999999997566
                },
                {
                    "name": "E6",
                    "midi": 88,
                    "time": 141.46621199999967,
                    "velocity": 0.3937007874015748,
                    "duration": 0.11730199999999513
                },
                {
                    "name": "A6",
                    "midi": 93,
                    "time": 141.46621199999967,
                    "velocity": 0.25984251968503935,
                    "duration": 0.3519059999999854
                },
                {
                    "name": "D6",
                    "midi": 86,
                    "time": 141.58351399999967,
                    "velocity": 0.36220472440944884,
                    "duration": 0.11730199999999513
                },
                {
                    "name": "A5",
                    "midi": 81,
                    "time": 141.70081599999966,
                    "velocity": 0.36220472440944884,
                    "duration": 0.058650999999997566
                },
                {
                    "name": "D6",
                    "midi": 86,
                    "time": 141.81811799999966,
                    "velocity": 0.3937007874015748,
                    "duration": 0.11730199999999513
                },
                {
                    "name": "A6",
                    "midi": 93,
                    "time": 141.81811799999966,
                    "velocity": 0.25984251968503935,
                    "duration": 0.3519059999999854
                },
                {
                    "name": "C#6",
                    "midi": 85,
                    "time": 141.93541999999965,
                    "velocity": 0.3779527559055118,
                    "duration": 0.11730199999999513
                },
                {
                    "name": "A5",
                    "midi": 81,
                    "time": 142.05272199999965,
                    "velocity": 0.3779527559055118,
                    "duration": 0.058650999999997566
                },
                {
                    "name": "E6",
                    "midi": 88,
                    "time": 142.17002399999964,
                    "velocity": 0.4409448818897638,
                    "duration": 0.11730199999999513
                },
                {
                    "name": "A6",
                    "midi": 93,
                    "time": 142.17002399999964,
                    "velocity": 0.3937007874015748,
                    "duration": 0.1759529999999927
                },
                {
                    "name": "D6",
                    "midi": 86,
                    "time": 142.28732599999964,
                    "velocity": 0.4330708661417323,
                    "duration": 0.11730199999999513
                },
                {
                    "name": "A5",
                    "midi": 81,
                    "time": 142.40462799999963,
                    "velocity": 0.41732283464566927,
                    "duration": 0.11730199999999513
                },
                {
                    "name": "F#5",
                    "midi": 78,
                    "time": 142.52192999999963,
                    "velocity": 0.4015748031496063,
                    "duration": 0.08797649999999635
                },
                {
                    "name": "D5",
                    "midi": 74,
                    "time": 142.60990649999962,
                    "velocity": 0.3858267716535433,
                    "duration": 0.08797649999999635
                },
                {
                    "name": "A4",
                    "midi": 69,
                    "time": 142.69788299999962,
                    "velocity": 0.3779527559055118,
                    "duration": 0.08797649999999635
                },
                {
                    "name": "F#4",
                    "midi": 66,
                    "time": 142.78585949999962,
                    "velocity": 0.36220472440944884,
                    "duration": 0.08797649999999635
                },
                {
                    "name": "D4",
                    "midi": 62,
                    "time": 142.8738359999996,
                    "velocity": 0.3543307086614173,
                    "duration": 0.08797649999999635
                },
                {
                    "name": "F#4",
                    "midi": 66,
                    "time": 143.9295539999996,
                    "velocity": 0.28346456692913385,
                    "duration": 0.1759529999999927
                },
                {
                    "name": "D5",
                    "midi": 74,
                    "time": 143.9295539999996,
                    "velocity": 0.3858267716535433,
                    "duration": 0.08797649999999635
                },
                {
                    "name": "F#5",
                    "midi": 78,
                    "time": 144.0175304999996,
                    "velocity": 0.33070866141732286,
                    "duration": 0.08797649999999635
                },
                {
                    "name": "B4",
                    "midi": 71,
                    "time": 144.1055069999996,
                    "velocity": 0.3858267716535433,
                    "duration": 0.08797649999999635
                },
                {
                    "name": "F#5",
                    "midi": 78,
                    "time": 144.28145999999958,
                    "velocity": 0.2755905511811024,
                    "duration": 0.1759529999999927
                },
                {
                    "name": "D6",
                    "midi": 86,
                    "time": 144.28145999999958,
                    "velocity": 0.3858267716535433,
                    "duration": 0.08797649999999635
                },
                {
                    "name": "F#6",
                    "midi": 90,
                    "time": 144.36943649999958,
                    "velocity": 0.33858267716535434,
                    "duration": 0.08797649999999635
                },
                {
                    "name": "B5",
                    "midi": 83,
                    "time": 144.45741299999958,
                    "velocity": 0.3858267716535433,
                    "duration": 0.08797649999999635
                },
                {
                    "name": "F#5",
                    "midi": 78,
                    "time": 145.33717799999957,
                    "velocity": 0.2677165354330709,
                    "duration": 0.1759529999999927
                },
                {
                    "name": "D6",
                    "midi": 86,
                    "time": 145.33717799999957,
                    "velocity": 0.3858267716535433,
                    "duration": 0.08797649999999635
                },
                {
                    "name": "F#6",
                    "midi": 90,
                    "time": 145.42515449999956,
                    "velocity": 0.33070866141732286,
                    "duration": 0.08797649999999635
                },
                {
                    "name": "B5",
                    "midi": 83,
                    "time": 145.51313099999956,
                    "velocity": 0.3858267716535433,
                    "duration": 0.08797649999999635
                },
                {
                    "name": "F#6",
                    "midi": 90,
                    "time": 145.68908399999955,
                    "velocity": 0.28346456692913385,
                    "duration": 0.1759529999999927
                },
                {
                    "name": "D7",
                    "midi": 98,
                    "time": 145.68908399999955,
                    "velocity": 0.3858267716535433,
                    "duration": 0.08797649999999635
                },
                {
                    "name": "F#7",
                    "midi": 102,
                    "time": 145.77706049999955,
                    "velocity": 0.33858267716535434,
                    "duration": 0.08797649999999635
                },
                {
                    "name": "B6",
                    "midi": 95,
                    "time": 145.86503699999955,
                    "velocity": 0.3858267716535433,
                    "duration": 0.08797649999999635
                },
                {
                    "name": "B5",
                    "midi": 83,
                    "time": 146.04098999999954,
                    "velocity": 0.3543307086614173,
                    "duration": 0.08797649999999635
                },
                {
                    "name": "B6",
                    "midi": 95,
                    "time": 146.04098999999954,
                    "velocity": 0.4251968503937008,
                    "duration": 0.08797649999999635
                },
                {
                    "name": "D6",
                    "midi": 86,
                    "time": 146.04098999999954,
                    "velocity": 0.3543307086614173,
                    "duration": 0.08797649999999635
                },
                {
                    "name": "D6",
                    "midi": 86,
                    "time": 146.21694299999953,
                    "velocity": 0.33070866141732286,
                    "duration": 0.08797649999999635
                },
                {
                    "name": "D7",
                    "midi": 98,
                    "time": 146.21694299999953,
                    "velocity": 0.3937007874015748,
                    "duration": 0.08797649999999635
                },
                {
                    "name": "F#6",
                    "midi": 90,
                    "time": 146.21694299999953,
                    "velocity": 0.33070866141732286,
                    "duration": 0.08797649999999635
                },
                {
                    "name": "C#6",
                    "midi": 85,
                    "time": 146.39289599999952,
                    "velocity": 0.36220472440944884,
                    "duration": 0.08797649999999635
                },
                {
                    "name": "C#7",
                    "midi": 97,
                    "time": 146.39289599999952,
                    "velocity": 0.4330708661417323,
                    "duration": 0.08797649999999635
                },
                {
                    "name": "E6",
                    "midi": 88,
                    "time": 146.39289599999952,
                    "velocity": 0.36220472440944884,
                    "duration": 0.08797649999999635
                },
                {
                    "name": "B5",
                    "midi": 83,
                    "time": 146.56884899999952,
                    "velocity": 0.3464566929133858,
                    "duration": 0.08797649999999635
                },
                {
                    "name": "B6",
                    "midi": 95,
                    "time": 146.56884899999952,
                    "velocity": 0.4094488188976378,
                    "duration": 0.08797649999999635
                },
                {
                    "name": "D6",
                    "midi": 86,
                    "time": 146.56884899999952,
                    "velocity": 0.3464566929133858,
                    "duration": 0.08797649999999635
                },
                {
                    "name": "A5",
                    "midi": 81,
                    "time": 146.7448019999995,
                    "velocity": 0.3700787401574803,
                    "duration": 0.08797649999999635
                },
                {
                    "name": "A6",
                    "midi": 93,
                    "time": 146.7448019999995,
                    "velocity": 0.4409448818897638,
                    "duration": 0.08797649999999635
                },
                {
                    "name": "C#6",
                    "midi": 85,
                    "time": 146.7448019999995,
                    "velocity": 0.3700787401574803,
                    "duration": 0.08797649999999635
                },
                {
                    "name": "C#6",
                    "midi": 85,
                    "time": 146.9207549999995,
                    "velocity": 0.33070866141732286,
                    "duration": 0.08797649999999635
                },
                {
                    "name": "C#7",
                    "midi": 97,
                    "time": 146.9207549999995,
                    "velocity": 0.3937007874015748,
                    "duration": 0.08797649999999635
                },
                {
                    "name": "E6",
                    "midi": 88,
                    "time": 146.9207549999995,
                    "velocity": 0.33070866141732286,
                    "duration": 0.08797649999999635
                },
                {
                    "name": "B5",
                    "midi": 83,
                    "time": 147.0967079999995,
                    "velocity": 0.3858267716535433,
                    "duration": 0.08797649999999635
                },
                {
                    "name": "B6",
                    "midi": 95,
                    "time": 147.0967079999995,
                    "velocity": 0.4566929133858268,
                    "duration": 0.08797649999999635
                },
                {
                    "name": "D6",
                    "midi": 86,
                    "time": 147.0967079999995,
                    "velocity": 0.3858267716535433,
                    "duration": 0.08797649999999635
                },
                {
                    "name": "A5",
                    "midi": 81,
                    "time": 147.2726609999995,
                    "velocity": 0.33070866141732286,
                    "duration": 0.08797649999999635
                },
                {
                    "name": "A6",
                    "midi": 93,
                    "time": 147.2726609999995,
                    "velocity": 0.3937007874015748,
                    "duration": 0.08797649999999635
                },
                {
                    "name": "C#6",
                    "midi": 85,
                    "time": 147.2726609999995,
                    "velocity": 0.33070866141732286,
                    "duration": 0.08797649999999635
                },
                {
                    "name": "G#5",
                    "midi": 80,
                    "time": 147.44861399999948,
                    "velocity": 0.3543307086614173,
                    "duration": 0.08797649999999635
                },
                {
                    "name": "G#6",
                    "midi": 92,
                    "time": 147.44861399999948,
                    "velocity": 0.4251968503937008,
                    "duration": 0.08797649999999635
                },
                {
                    "name": "B5",
                    "midi": 83,
                    "time": 147.44861399999948,
                    "velocity": 0.3543307086614173,
                    "duration": 0.08797649999999635
                },
                {
                    "name": "B5",
                    "midi": 83,
                    "time": 147.62456699999947,
                    "velocity": 0.33070866141732286,
                    "duration": 0.08797649999999635
                },
                {
                    "name": "B6",
                    "midi": 95,
                    "time": 147.62456699999947,
                    "velocity": 0.3937007874015748,
                    "duration": 0.08797649999999635
                },
                {
                    "name": "D6",
                    "midi": 86,
                    "time": 147.62456699999947,
                    "velocity": 0.33070866141732286,
                    "duration": 0.08797649999999635
                },
                {
                    "name": "A5",
                    "midi": 81,
                    "time": 147.80051999999947,
                    "velocity": 0.4015748031496063,
                    "duration": 0.08797649999999635
                },
                {
                    "name": "A6",
                    "midi": 93,
                    "time": 147.80051999999947,
                    "velocity": 0.47244094488188976,
                    "duration": 0.08797649999999635
                },
                {
                    "name": "C#6",
                    "midi": 85,
                    "time": 147.80051999999947,
                    "velocity": 0.4015748031496063,
                    "duration": 0.08797649999999635
                },
                {
                    "name": "C#6",
                    "midi": 85,
                    "time": 147.97647299999946,
                    "velocity": 0.33070866141732286,
                    "duration": 0.08797649999999635
                },
                {
                    "name": "C#7",
                    "midi": 97,
                    "time": 147.97647299999946,
                    "velocity": 0.3937007874015748,
                    "duration": 0.08797649999999635
                },
                {
                    "name": "E6",
                    "midi": 88,
                    "time": 147.97647299999946,
                    "velocity": 0.33070866141732286,
                    "duration": 0.08797649999999635
                },
                {
                    "name": "G#5",
                    "midi": 80,
                    "time": 148.15242599999945,
                    "velocity": 0.36220472440944884,
                    "duration": 0.08797649999999635
                },
                {
                    "name": "G#6",
                    "midi": 92,
                    "time": 148.15242599999945,
                    "velocity": 0.4330708661417323,
                    "duration": 0.08797649999999635
                },
                {
                    "name": "B5",
                    "midi": 83,
                    "time": 148.15242599999945,
                    "velocity": 0.36220472440944884,
                    "duration": 0.08797649999999635
                },
                {
                    "name": "B5",
                    "midi": 83,
                    "time": 148.32837899999944,
                    "velocity": 0.33070866141732286,
                    "duration": 0.08797649999999635
                },
                {
                    "name": "B6",
                    "midi": 95,
                    "time": 148.32837899999944,
                    "velocity": 0.3937007874015748,
                    "duration": 0.08797649999999635
                },
                {
                    "name": "D6",
                    "midi": 86,
                    "time": 148.32837899999944,
                    "velocity": 0.33070866141732286,
                    "duration": 0.08797649999999635
                },
                {
                    "name": "A5",
                    "midi": 81,
                    "time": 148.50433199999944,
                    "velocity": 0.3700787401574803,
                    "duration": 0.08797649999999635
                },
                {
                    "name": "A6",
                    "midi": 93,
                    "time": 148.50433199999944,
                    "velocity": 0.4409448818897638,
                    "duration": 0.08797649999999635
                },
                {
                    "name": "C#6",
                    "midi": 85,
                    "time": 148.50433199999944,
                    "velocity": 0.3700787401574803,
                    "duration": 0.08797649999999635
                },
                {
                    "name": "A4",
                    "midi": 69,
                    "time": 148.85623799999942,
                    "velocity": 0.8031496062992126,
                    "duration": 0.13196475000000873
                },
                {
                    "name": "A3",
                    "midi": 57,
                    "time": 148.85623799999942,
                    "velocity": 0.6692913385826772,
                    "duration": 0.13196475000000873
                },
                {
                    "name": "G#4",
                    "midi": 68,
                    "time": 149.20814399999944,
                    "velocity": 0.8503937007874016,
                    "duration": 0.13196475000000873
                },
                {
                    "name": "G#3",
                    "midi": 56,
                    "time": 149.20814399999944,
                    "velocity": 0.7086614173228346,
                    "duration": 0.13196475000000873
                },
                {
                    "name": "F4",
                    "midi": 65,
                    "time": 149.56004999999945,
                    "velocity": 0.8031496062992126,
                    "duration": 0.13196475000000873
                },
                {
                    "name": "F3",
                    "midi": 53,
                    "time": 149.56004999999945,
                    "velocity": 0.6692913385826772,
                    "duration": 0.13196475000000873
                },
                {
                    "name": "E4",
                    "midi": 64,
                    "time": 149.91195599999946,
                    "velocity": 0.8503937007874016,
                    "duration": 0.13196475000000873
                },
                {
                    "name": "E3",
                    "midi": 52,
                    "time": 149.91195599999946,
                    "velocity": 0.7086614173228346,
                    "duration": 0.13196475000000873
                },
                {
                    "name": "D4",
                    "midi": 62,
                    "time": 150.26386199999948,
                    "velocity": 0.8031496062992126,
                    "duration": 0.13196475000000873
                },
                {
                    "name": "D3",
                    "midi": 50,
                    "time": 150.26386199999948,
                    "velocity": 0.6692913385826772,
                    "duration": 0.13196475000000873
                },
                {
                    "name": "C#4",
                    "midi": 61,
                    "time": 150.6157679999995,
                    "velocity": 0.889763779527559,
                    "duration": 0.5278590000000065
                },
                {
                    "name": "C#3",
                    "midi": 49,
                    "time": 150.6157679999995,
                    "velocity": 0.7559055118110236,
                    "duration": 0.5278590000000065
                },
                {
                    "name": "D4",
                    "midi": 62,
                    "time": 151.1436269999995,
                    "velocity": 0.7952755905511811,
                    "duration": 0.1759529999999927
                },
                {
                    "name": "D3",
                    "midi": 50,
                    "time": 151.1436269999995,
                    "velocity": 0.6692913385826772,
                    "duration": 0.1759529999999927
                },
                {
                    "name": "E4",
                    "midi": 64,
                    "time": 151.3195799999995,
                    "velocity": 0.905511811023622,
                    "duration": 0.1759529999999927
                },
                {
                    "name": "E3",
                    "midi": 52,
                    "time": 151.3195799999995,
                    "velocity": 0.7637795275590551,
                    "duration": 0.1759529999999927
                },
                {
                    "name": "A4",
                    "midi": 69,
                    "time": 151.8474389999995,
                    "velocity": 0.8267716535433071,
                    "duration": 0.08797649999999635
                },
                {
                    "name": "A3",
                    "midi": 57,
                    "time": 151.8474389999995,
                    "velocity": 0.6929133858267716,
                    "duration": 0.08797649999999635
                },
                {
                    "name": "E4",
                    "midi": 64,
                    "time": 152.0233919999995,
                    "velocity": 0.905511811023622,
                    "duration": 0.5278590000000065
                },
                {
                    "name": "E3",
                    "midi": 52,
                    "time": 152.0233919999995,
                    "velocity": 0.7637795275590551,
                    "duration": 0.5278590000000065
                },
                {
                    "name": "A4",
                    "midi": 69,
                    "time": 152.5512509999995,
                    "velocity": 0.7874015748031497,
                    "duration": 0.08797649999999635
                },
                {
                    "name": "A3",
                    "midi": 57,
                    "time": 152.5512509999995,
                    "velocity": 0.6535433070866141,
                    "duration": 0.08797649999999635
                },
                {
                    "name": "E4",
                    "midi": 64,
                    "time": 152.7272039999995,
                    "velocity": 0.8740157480314961,
                    "duration": 0.5278590000000065
                },
                {
                    "name": "E3",
                    "midi": 52,
                    "time": 152.7272039999995,
                    "velocity": 0.7401574803149606,
                    "duration": 0.5278590000000065
                },
                {
                    "name": "A4",
                    "midi": 69,
                    "time": 153.2550629999995,
                    "velocity": 0.6377952755905512,
                    "duration": 0.08797649999999635
                },
                {
                    "name": "A3",
                    "midi": 57,
                    "time": 153.2550629999995,
                    "velocity": 0.5433070866141733,
                    "duration": 0.08797649999999635
                },
                {
                    "name": "E4",
                    "midi": 64,
                    "time": 153.4310159999995,
                    "velocity": 0.6850393700787402,
                    "duration": 0.08797649999999635
                },
                {
                    "name": "E3",
                    "midi": 52,
                    "time": 153.4310159999995,
                    "velocity": 0.5748031496062992,
                    "duration": 0.08797649999999635
                },
                {
                    "name": "C#4",
                    "midi": 61,
                    "time": 153.60696899999948,
                    "velocity": 0.5984251968503937,
                    "duration": 0.08797649999999635
                },
                {
                    "name": "C#3",
                    "midi": 49,
                    "time": 153.60696899999948,
                    "velocity": 0.5118110236220472,
                    "duration": 0.08797649999999635
                },
                {
                    "name": "A2",
                    "midi": 45,
                    "time": 153.78292199999947,
                    "velocity": 0.5118110236220472,
                    "duration": 0.08797649999999635
                },
                {
                    "name": "A3",
                    "midi": 57,
                    "time": 153.78292199999947,
                    "velocity": 0.5118110236220472,
                    "duration": 0.08797649999999635
                },
                {
                    "name": "C#4",
                    "midi": 61,
                    "time": 153.95887499999947,
                    "velocity": 0.5984251968503937,
                    "duration": 0.08797649999999635
                },
                {
                    "name": "C#3",
                    "midi": 49,
                    "time": 153.95887499999947,
                    "velocity": 0.5118110236220472,
                    "duration": 0.08797649999999635
                },
                {
                    "name": "E4",
                    "midi": 64,
                    "time": 154.13482799999946,
                    "velocity": 0.5669291338582677,
                    "duration": 0.08797649999999635
                },
                {
                    "name": "E3",
                    "midi": 52,
                    "time": 154.13482799999946,
                    "velocity": 0.47244094488188976,
                    "duration": 0.08797649999999635
                },
                {
                    "name": "C#4",
                    "midi": 61,
                    "time": 154.31078099999945,
                    "velocity": 0.5984251968503937,
                    "duration": 0.08797649999999635
                },
                {
                    "name": "C#3",
                    "midi": 49,
                    "time": 154.31078099999945,
                    "velocity": 0.5118110236220472,
                    "duration": 0.08797649999999635
                },
                {
                    "name": "E4",
                    "midi": 64,
                    "time": 154.48673399999944,
                    "velocity": 0.6377952755905512,
                    "duration": 0.08797649999999635
                },
                {
                    "name": "E3",
                    "midi": 52,
                    "time": 154.48673399999944,
                    "velocity": 0.5433070866141733,
                    "duration": 0.08797649999999635
                },
                {
                    "name": "A4",
                    "midi": 69,
                    "time": 154.66268699999944,
                    "velocity": 0.6771653543307087,
                    "duration": 0.08797649999999635
                },
                {
                    "name": "A3",
                    "midi": 57,
                    "time": 154.66268699999944,
                    "velocity": 0.5669291338582677,
                    "duration": 0.08797649999999635
                },
                {
                    "name": "E4",
                    "midi": 64,
                    "time": 154.83863999999943,
                    "velocity": 0.7086614173228346,
                    "duration": 0.7038119999999992
                },
                {
                    "name": "E3",
                    "midi": 52,
                    "time": 154.83863999999943,
                    "velocity": 0.5984251968503937,
                    "duration": 0.7038119999999992
                },
                {
                    "name": "A4",
                    "midi": 69,
                    "time": 155.54245199999943,
                    "velocity": 0.6614173228346457,
                    "duration": 0.08797649999999635
                },
                {
                    "name": "A3",
                    "midi": 57,
                    "time": 155.54245199999943,
                    "velocity": 0.5590551181102362,
                    "duration": 0.08797649999999635
                },
                {
                    "name": "A5",
                    "midi": 81,
                    "time": 155.89435799999941,
                    "velocity": 0.5905511811023622,
                    "duration": 0.1759529999999927
                },
                {
                    "name": "A4",
                    "midi": 69,
                    "time": 155.89435799999941,
                    "velocity": 0.4645669291338583,
                    "duration": 0.1759529999999927
                },
                {
                    "name": "C5",
                    "midi": 72,
                    "time": 155.89435799999941,
                    "velocity": 0.5039370078740157,
                    "duration": 0.1759529999999927
                },
                {
                    "name": "G5",
                    "midi": 79,
                    "time": 156.2462639999994,
                    "velocity": 0.5511811023622047,
                    "duration": 0.1759529999999927
                },
                {
                    "name": "G4",
                    "midi": 67,
                    "time": 156.2462639999994,
                    "velocity": 0.4645669291338583,
                    "duration": 0.3519059999999854
                },
                {
                    "name": "C5",
                    "midi": 72,
                    "time": 156.2462639999994,
                    "velocity": 0.4645669291338583,
                    "duration": 0.3519059999999854
                },
                {
                    "name": "E5",
                    "midi": 76,
                    "time": 156.4222169999994,
                    "velocity": 0.5118110236220472,
                    "duration": 0.1759529999999927
                },
                {
                    "name": "F5",
                    "midi": 77,
                    "time": 156.59816999999939,
                    "velocity": 0.5511811023622047,
                    "duration": 0.1759529999999927
                },
                {
                    "name": "F4",
                    "midi": 65,
                    "time": 156.59816999999939,
                    "velocity": 0.4645669291338583,
                    "duration": 0.3519059999999854
                },
                {
                    "name": "A4",
                    "midi": 69,
                    "time": 156.59816999999939,
                    "velocity": 0.4645669291338583,
                    "duration": 0.3519059999999854
                },
                {
                    "name": "D5",
                    "midi": 74,
                    "time": 156.77412299999938,
                    "velocity": 0.5039370078740157,
                    "duration": 0.1759529999999927
                },
                {
                    "name": "E5",
                    "midi": 76,
                    "time": 156.95007599999937,
                    "velocity": 0.5511811023622047,
                    "duration": 0.1759529999999927
                },
                {
                    "name": "E4",
                    "midi": 64,
                    "time": 156.95007599999937,
                    "velocity": 0.4645669291338583,
                    "duration": 0.3519059999999854
                },
                {
                    "name": "G4",
                    "midi": 67,
                    "time": 156.95007599999937,
                    "velocity": 0.4645669291338583,
                    "duration": 0.3519059999999854
                },
                {
                    "name": "C5",
                    "midi": 72,
                    "time": 157.12602899999936,
                    "velocity": 0.4881889763779528,
                    "duration": 0.1759529999999927
                },
                {
                    "name": "D5",
                    "midi": 74,
                    "time": 157.30198199999936,
                    "velocity": 0.5196850393700787,
                    "duration": 0.1759529999999927
                },
                {
                    "name": "D4",
                    "midi": 62,
                    "time": 157.30198199999936,
                    "velocity": 0.4409448818897638,
                    "duration": 0.3519059999999854
                },
                {
                    "name": "F4",
                    "midi": 65,
                    "time": 157.30198199999936,
                    "velocity": 0.4409448818897638,
                    "duration": 0.3519059999999854
                },
                {
                    "name": "B4",
                    "midi": 71,
                    "time": 157.47793499999935,
                    "velocity": 0.47244094488188976,
                    "duration": 0.1759529999999927
                },
                {
                    "name": "E4",
                    "midi": 64,
                    "time": 157.65388799999934,
                    "velocity": 0.31496062992125984,
                    "duration": 0.1759529999999927
                },
                {
                    "name": "C5",
                    "midi": 72,
                    "time": 157.65388799999934,
                    "velocity": 0.44881889763779526,
                    "duration": 0.08797649999999635
                },
                {
                    "name": "D5",
                    "midi": 74,
                    "time": 157.74186449999934,
                    "velocity": 0.41732283464566927,
                    "duration": 0.08797649999999635
                },
                {
                    "name": "C5",
                    "midi": 72,
                    "time": 157.82984099999933,
                    "velocity": 0.44881889763779526,
                    "duration": 0.08797649999999635
                },
                {
                    "name": "B4",
                    "midi": 71,
                    "time": 157.91781749999933,
                    "velocity": 0.41732283464566927,
                    "duration": 0.08797649999999635
                },
                {
                    "name": "C5",
                    "midi": 72,
                    "time": 158.00579399999933,
                    "velocity": 0.4251968503937008,
                    "duration": 0.08797649999999635
                },
                {
                    "name": "E5",
                    "midi": 76,
                    "time": 158.09377049999932,
                    "velocity": 0.4330708661417323,
                    "duration": 0.08797649999999635
                },
                {
                    "name": "G5",
                    "midi": 79,
                    "time": 158.18174699999932,
                    "velocity": 0.4409448818897638,
                    "duration": 0.08797649999999635
                },
                {
                    "name": "B5",
                    "midi": 83,
                    "time": 158.26972349999932,
                    "velocity": 0.4566929133858268,
                    "duration": 0.058650999999997566
                },
                {
                    "name": "D6",
                    "midi": 86,
                    "time": 158.3283744999993,
                    "velocity": 0.41732283464566927,
                    "duration": 0.029325499999998783
                },
                {
                    "name": "C6",
                    "midi": 84,
                    "time": 158.3576999999993,
                    "velocity": 0.48031496062992124,
                    "duration": 0.08797649999999635
                },
                {
                    "name": "B5",
                    "midi": 83,
                    "time": 158.4456764999993,
                    "velocity": 0.44881889763779526,
                    "duration": 0.08797649999999635
                },
                {
                    "name": "C6",
                    "midi": 84,
                    "time": 158.5336529999993,
                    "velocity": 0.44881889763779526,
                    "duration": 0.08797649999999635
                },
                {
                    "name": "D6",
                    "midi": 86,
                    "time": 158.6216294999993,
                    "velocity": 0.48031496062992124,
                    "duration": 0.08797649999999635
                },
                {
                    "name": "F5",
                    "midi": 77,
                    "time": 158.7096059999993,
                    "velocity": 0.31496062992125984,
                    "duration": 0.1759529999999927
                },
                {
                    "name": "E6",
                    "midi": 88,
                    "time": 158.7096059999993,
                    "velocity": 0.49606299212598426,
                    "duration": 0.08797649999999635
                },
                {
                    "name": "D6",
                    "midi": 86,
                    "time": 158.9735354999993,
                    "velocity": 0.47244094488188976,
                    "duration": 0.08797649999999635
                },
                {
                    "name": "E5",
                    "midi": 76,
                    "time": 159.06151199999928,
                    "velocity": 0.31496062992125984,
                    "duration": 0.1759529999999927
                },
                {
                    "name": "C6",
                    "midi": 84,
                    "time": 159.06151199999928,
                    "velocity": 0.44881889763779526,
                    "duration": 0.08797649999999635
                },
                {
                    "name": "D6",
                    "midi": 86,
                    "time": 159.14948849999928,
                    "velocity": 0.41732283464566927,
                    "duration": 0.08797649999999635
                },
                {
                    "name": "C6",
                    "midi": 84,
                    "time": 159.23746499999928,
                    "velocity": 0.44881889763779526,
                    "duration": 0.08797649999999635
                },
                {
                    "name": "B5",
                    "midi": 83,
                    "time": 159.32544149999927,
                    "velocity": 0.41732283464566927,
                    "duration": 0.08797649999999635
                },
                {
                    "name": "C6",
                    "midi": 84,
                    "time": 159.41341799999927,
                    "velocity": 0.4251968503937008,
                    "duration": 0.08797649999999635
                },
                {
                    "name": "E6",
                    "midi": 88,
                    "time": 159.50139449999926,
                    "velocity": 0.4330708661417323,
                    "duration": 0.08797649999999635
                },
                {
                    "name": "G6",
                    "midi": 91,
                    "time": 159.58937099999926,
                    "velocity": 0.4409448818897638,
                    "duration": 0.08797649999999635
                },
                {
                    "name": "B6",
                    "midi": 95,
                    "time": 159.67734749999926,
                    "velocity": 0.4566929133858268,
                    "duration": 0.058650999999997566
                },
                {
                    "name": "D7",
                    "midi": 98,
                    "time": 159.73599849999925,
                    "velocity": 0.41732283464566927,
                    "duration": 0.029325499999998783
                },
                {
                    "name": "C7",
                    "midi": 96,
                    "time": 159.76532399999925,
                    "velocity": 0.48031496062992124,
                    "duration": 0.08797649999999635
                },
                {
                    "name": "B6",
                    "midi": 95,
                    "time": 159.85330049999925,
                    "velocity": 0.44881889763779526,
                    "duration": 0.08797649999999635
                },
                {
                    "name": "C7",
                    "midi": 96,
                    "time": 159.94127699999925,
                    "velocity": 0.44881889763779526,
                    "duration": 0.08797649999999635
                },
                {
                    "name": "D7",
                    "midi": 98,
                    "time": 160.02925349999924,
                    "velocity": 0.48031496062992124,
                    "duration": 0.08797649999999635
                },
                {
                    "name": "F6",
                    "midi": 89,
                    "time": 160.11722999999924,
                    "velocity": 0.31496062992125984,
                    "duration": 0.1759529999999927
                },
                {
                    "name": "E7",
                    "midi": 100,
                    "time": 160.11722999999924,
                    "velocity": 0.49606299212598426,
                    "duration": 0.08797649999999635
                },
                {
                    "name": "D7",
                    "midi": 98,
                    "time": 160.38115949999923,
                    "velocity": 0.47244094488188976,
                    "duration": 0.08797649999999635
                },
                {
                    "name": "C7",
                    "midi": 96,
                    "time": 160.46913599999922,
                    "velocity": 0.48031496062992124,
                    "duration": 0.08797649999999635
                },
                {
                    "name": "E6",
                    "midi": 88,
                    "time": 160.55711249999922,
                    "velocity": 0.4566929133858268,
                    "duration": 0.08797649999999635
                },
                {
                    "name": "C7",
                    "midi": 96,
                    "time": 160.64508899999922,
                    "velocity": 0.4566929133858268,
                    "duration": 0.08797649999999635
                },
                {
                    "name": "E7",
                    "midi": 100,
                    "time": 160.7330654999992,
                    "velocity": 0.4566929133858268,
                    "duration": 0.08797649999999635
                },
                {
                    "name": "G7",
                    "midi": 103,
                    "time": 160.8210419999992,
                    "velocity": 0.5039370078740157,
                    "duration": 0.08797649999999635
                },
                {
                    "name": "G6",
                    "midi": 91,
                    "time": 160.9090184999992,
                    "velocity": 0.4566929133858268,
                    "duration": 0.08797649999999635
                },
                {
                    "name": "B6",
                    "midi": 95,
                    "time": 160.9969949999992,
                    "velocity": 0.4566929133858268,
                    "duration": 0.08797649999999635
                },
                {
                    "name": "G6",
                    "midi": 91,
                    "time": 161.0849714999992,
                    "velocity": 0.4566929133858268,
                    "duration": 0.08797649999999635
                },
                {
                    "name": "C7",
                    "midi": 96,
                    "time": 161.1729479999992,
                    "velocity": 0.5118110236220472,
                    "duration": 0.08797649999999635
                },
                {
                    "name": "E6",
                    "midi": 88,
                    "time": 161.2609244999992,
                    "velocity": 0.4645669291338583,
                    "duration": 0.08797649999999635
                },
                {
                    "name": "C7",
                    "midi": 96,
                    "time": 161.3489009999992,
                    "velocity": 0.4645669291338583,
                    "duration": 0.08797649999999635
                },
                {
                    "name": "E7",
                    "midi": 100,
                    "time": 161.43687749999918,
                    "velocity": 0.4645669291338583,
                    "duration": 0.08797649999999635
                },
                {
                    "name": "G7",
                    "midi": 103,
                    "time": 161.52485399999918,
                    "velocity": 0.5118110236220472,
                    "duration": 0.08797649999999635
                },
                {
                    "name": "G6",
                    "midi": 91,
                    "time": 161.61283049999918,
                    "velocity": 0.47244094488188976,
                    "duration": 0.08797649999999635
                },
                {
                    "name": "B6",
                    "midi": 95,
                    "time": 161.70080699999917,
                    "velocity": 0.47244094488188976,
                    "duration": 0.08797649999999635
                },
                {
                    "name": "G6",
                    "midi": 91,
                    "time": 161.78878349999917,
                    "velocity": 0.47244094488188976,
                    "duration": 0.08797649999999635
                },
                {
                    "name": "C7",
                    "midi": 96,
                    "time": 161.87675999999917,
                    "velocity": 0.48031496062992124,
                    "duration": 0.08797649999999635
                },
                {
                    "name": "E6",
                    "midi": 88,
                    "time": 161.96473649999916,
                    "velocity": 0.4566929133858268,
                    "duration": 0.08797649999999635
                },
                {
                    "name": "C7",
                    "midi": 96,
                    "time": 162.05271299999916,
                    "velocity": 0.4566929133858268,
                    "duration": 0.08797649999999635
                },
                {
                    "name": "E7",
                    "midi": 100,
                    "time": 162.14068949999916,
                    "velocity": 0.4566929133858268,
                    "duration": 0.08797649999999635
                },
                {
                    "name": "G7",
                    "midi": 103,
                    "time": 162.22866599999915,
                    "velocity": 0.5039370078740157,
                    "duration": 0.08797649999999635
                },
                {
                    "name": "G6",
                    "midi": 91,
                    "time": 162.31664249999915,
                    "velocity": 0.4566929133858268,
                    "duration": 0.08797649999999635
                },
                {
                    "name": "B6",
                    "midi": 95,
                    "time": 162.40461899999914,
                    "velocity": 0.4566929133858268,
                    "duration": 0.08797649999999635
                },
                {
                    "name": "G6",
                    "midi": 91,
                    "time": 162.49259549999914,
                    "velocity": 0.4566929133858268,
                    "duration": 0.08797649999999635
                },
                {
                    "name": "C7",
                    "midi": 96,
                    "time": 162.58057199999914,
                    "velocity": 0.5118110236220472,
                    "duration": 0.08797649999999635
                },
                {
                    "name": "E6",
                    "midi": 88,
                    "time": 162.66854849999913,
                    "velocity": 0.4645669291338583,
                    "duration": 0.08797649999999635
                },
                {
                    "name": "C7",
                    "midi": 96,
                    "time": 162.75652499999913,
                    "velocity": 0.4645669291338583,
                    "duration": 0.08797649999999635
                },
                {
                    "name": "E7",
                    "midi": 100,
                    "time": 162.84450149999913,
                    "velocity": 0.4645669291338583,
                    "duration": 0.08797649999999635
                },
                {
                    "name": "G7",
                    "midi": 103,
                    "time": 162.93247799999912,
                    "velocity": 0.5118110236220472,
                    "duration": 0.08797649999999635
                },
                {
                    "name": "G6",
                    "midi": 91,
                    "time": 163.02045449999912,
                    "velocity": 0.47244094488188976,
                    "duration": 0.08797649999999635
                },
                {
                    "name": "B6",
                    "midi": 95,
                    "time": 163.10843099999911,
                    "velocity": 0.47244094488188976,
                    "duration": 0.08797649999999635
                },
                {
                    "name": "G6",
                    "midi": 91,
                    "time": 163.1964074999991,
                    "velocity": 0.47244094488188976,
                    "duration": 0.08797649999999635
                },
                {
                    "name": "C7",
                    "midi": 96,
                    "time": 163.2843839999991,
                    "velocity": 0.5039370078740157,
                    "duration": 0.08797649999999635
                },
                {
                    "name": "C5",
                    "midi": 72,
                    "time": 163.6362899999991,
                    "velocity": 0.36220472440944884,
                    "duration": 0.08797649999999635
                },
                {
                    "name": "C#5",
                    "midi": 73,
                    "time": 163.7242664999991,
                    "velocity": 0.36220472440944884,
                    "duration": 0.08797649999999635
                },
                {
                    "name": "D5",
                    "midi": 74,
                    "time": 163.81224299999909,
                    "velocity": 0.3700787401574803,
                    "duration": 0.08797649999999635
                },
                {
                    "name": "D#5",
                    "midi": 75,
                    "time": 163.90021949999908,
                    "velocity": 0.3779527559055118,
                    "duration": 0.08797649999999635
                },
                {
                    "name": "E5",
                    "midi": 76,
                    "time": 163.98819599999908,
                    "velocity": 0.3858267716535433,
                    "duration": 0.08797649999999635
                },
                {
                    "name": "F5",
                    "midi": 77,
                    "time": 164.07617249999907,
                    "velocity": 0.3858267716535433,
                    "duration": 0.08797649999999635
                },
                {
                    "name": "F#5",
                    "midi": 78,
                    "time": 164.16414899999907,
                    "velocity": 0.3937007874015748,
                    "duration": 0.08797649999999635
                },
                {
                    "name": "G5",
                    "midi": 79,
                    "time": 164.25212549999907,
                    "velocity": 0.4015748031496063,
                    "duration": 0.08797649999999635
                },
                {
                    "name": "G#5",
                    "midi": 80,
                    "time": 164.34010199999906,
                    "velocity": 0.4094488188976378,
                    "duration": 0.08797649999999635
                },
                {
                    "name": "A5",
                    "midi": 81,
                    "time": 164.42807849999906,
                    "velocity": 0.4094488188976378,
                    "duration": 0.08797649999999635
                },
                {
                    "name": "A#5",
                    "midi": 82,
                    "time": 164.51605499999906,
                    "velocity": 0.41732283464566927,
                    "duration": 0.08797649999999635
                },
                {
                    "name": "B5",
                    "midi": 83,
                    "time": 164.60403149999905,
                    "velocity": 0.4251968503937008,
                    "duration": 0.08797649999999635
                },
                {
                    "name": "C6",
                    "midi": 84,
                    "time": 164.69200799999905,
                    "velocity": 0.4330708661417323,
                    "duration": 0.08797649999999635
                },
                {
                    "name": "C#6",
                    "midi": 85,
                    "time": 164.77998449999905,
                    "velocity": 0.4330708661417323,
                    "duration": 0.08797649999999635
                },
                {
                    "name": "D6",
                    "midi": 86,
                    "time": 164.86796099999904,
                    "velocity": 0.4409448818897638,
                    "duration": 0.08797649999999635
                },
                {
                    "name": "D#6",
                    "midi": 87,
                    "time": 164.95593749999904,
                    "velocity": 0.44881889763779526,
                    "duration": 0.08797649999999635
                },
                {
                    "name": "E6",
                    "midi": 88,
                    "time": 165.04391399999903,
                    "velocity": 0.44881889763779526,
                    "duration": 0.08797649999999635
                },
                {
                    "name": "F6",
                    "midi": 89,
                    "time": 165.13189049999903,
                    "velocity": 0.4566929133858268,
                    "duration": 0.08797649999999635
                },
                {
                    "name": "F#6",
                    "midi": 90,
                    "time": 165.21986699999903,
                    "velocity": 0.4645669291338583,
                    "duration": 0.08797649999999635
                },
                {
                    "name": "G6",
                    "midi": 91,
                    "time": 165.30784349999902,
                    "velocity": 0.47244094488188976,
                    "duration": 0.08797649999999635
                },
                {
                    "name": "G#6",
                    "midi": 92,
                    "time": 165.39581999999902,
                    "velocity": 0.47244094488188976,
                    "duration": 0.07038120000001413
                },
                {
                    "name": "A6",
                    "midi": 93,
                    "time": 165.46620119999903,
                    "velocity": 0.48031496062992124,
                    "duration": 0.07038120000001413
                },
                {
                    "name": "A#6",
                    "midi": 94,
                    "time": 165.53658239999905,
                    "velocity": 0.4881889763779528,
                    "duration": 0.07038120000001413
                },
                {
                    "name": "B6",
                    "midi": 95,
                    "time": 165.60696359999906,
                    "velocity": 0.4881889763779528,
                    "duration": 0.07038120000001413
                },
                {
                    "name": "C7",
                    "midi": 96,
                    "time": 165.67734479999908,
                    "velocity": 0.5196850393700787,
                    "duration": 0.07038120000001413
                },
                {
                    "name": "C#7",
                    "midi": 97,
                    "time": 165.7477259999991,
                    "velocity": 0.44881889763779526,
                    "duration": 0.08797649999999635
                },
                {
                    "name": "E7",
                    "midi": 100,
                    "time": 165.8357024999991,
                    "velocity": 0.31496062992125984,
                    "duration": 0.08797649999999635
                },
                {
                    "name": "C#7",
                    "midi": 97,
                    "time": 165.92367899999908,
                    "velocity": 0.3543307086614173,
                    "duration": 0.08797649999999635
                },
                {
                    "name": "E6",
                    "midi": 88,
                    "time": 166.01165549999908,
                    "velocity": 0.30708661417322836,
                    "duration": 0.08797649999999635
                },
                {
                    "name": "A5",
                    "midi": 81,
                    "time": 166.09963199999908,
                    "velocity": 0.3228346456692913,
                    "duration": 0.08797649999999635
                },
                {
                    "name": "C#6",
                    "midi": 85,
                    "time": 166.18760849999907,
                    "velocity": 0.2992125984251969,
                    "duration": 0.08797649999999635
                },
                {
                    "name": "A5",
                    "midi": 81,
                    "time": 166.27558499999907,
                    "velocity": 0.3228346456692913,
                    "duration": 0.08797649999999635
                },
                {
                    "name": "C#6",
                    "midi": 85,
                    "time": 166.36356149999907,
                    "velocity": 0.30708661417322836,
                    "duration": 0.08797649999999635
                },
                {
                    "name": "A5",
                    "midi": 81,
                    "time": 166.45153799999906,
                    "velocity": 0.3228346456692913,
                    "duration": 0.08797649999999635
                },
                {
                    "name": "C#6",
                    "midi": 85,
                    "time": 166.53951449999906,
                    "velocity": 0.30708661417322836,
                    "duration": 0.08797649999999635
                },
                {
                    "name": "A5",
                    "midi": 81,
                    "time": 166.62749099999905,
                    "velocity": 0.3228346456692913,
                    "duration": 0.08797649999999635
                },
                {
                    "name": "C#6",
                    "midi": 85,
                    "time": 166.71546749999905,
                    "velocity": 0.2992125984251969,
                    "duration": 0.08797649999999635
                },
                {
                    "name": "A5",
                    "midi": 81,
                    "time": 166.80344399999905,
                    "velocity": 0.28346456692913385,
                    "duration": 0.08797649999999635
                },
                {
                    "name": "C#6",
                    "midi": 85,
                    "time": 166.89142049999904,
                    "velocity": 0.2992125984251969,
                    "duration": 0.08797649999999635
                },
                {
                    "name": "E6",
                    "midi": 88,
                    "time": 166.97939699999904,
                    "velocity": 0.30708661417322836,
                    "duration": 0.08797649999999635
                },
                {
                    "name": "A6",
                    "midi": 93,
                    "time": 167.06737349999904,
                    "velocity": 0.33858267716535434,
                    "duration": 0.08797649999999635
                },
                {
                    "name": "C#7",
                    "midi": 97,
                    "time": 167.15534999999903,
                    "velocity": 0.3543307086614173,
                    "duration": 0.08797649999999635
                },
                {
                    "name": "E7",
                    "midi": 100,
                    "time": 167.24332649999903,
                    "velocity": 0.4015748031496063,
                    "duration": 0.08797649999999635
                },
                {
                    "name": "C#7",
                    "midi": 97,
                    "time": 167.33130299999902,
                    "velocity": 0.3858267716535433,
                    "duration": 0.08797649999999635
                },
                {
                    "name": "E6",
                    "midi": 88,
                    "time": 167.41927949999902,
                    "velocity": 0.3228346456692913,
                    "duration": 0.08797649999999635
                },
                {
                    "name": "A5",
                    "midi": 81,
                    "time": 167.50725599999902,
                    "velocity": 0.3228346456692913,
                    "duration": 0.08797649999999635
                },
                {
                    "name": "C#6",
                    "midi": 85,
                    "time": 167.595232499999,
                    "velocity": 0.2992125984251969,
                    "duration": 0.08797649999999635
                },
                {
                    "name": "A5",
                    "midi": 81,
                    "time": 167.683208999999,
                    "velocity": 0.3228346456692913,
                    "duration": 0.08797649999999635
                },
                {
                    "name": "C#6",
                    "midi": 85,
                    "time": 167.771185499999,
                    "velocity": 0.30708661417322836,
                    "duration": 0.08797649999999635
                },
                {
                    "name": "A5",
                    "midi": 81,
                    "time": 167.859161999999,
                    "velocity": 0.3228346456692913,
                    "duration": 0.08797649999999635
                },
                {
                    "name": "C#6",
                    "midi": 85,
                    "time": 167.947138499999,
                    "velocity": 0.30708661417322836,
                    "duration": 0.08797649999999635
                },
                {
                    "name": "A5",
                    "midi": 81,
                    "time": 168.035114999999,
                    "velocity": 0.3228346456692913,
                    "duration": 0.08797649999999635
                },
                {
                    "name": "C#6",
                    "midi": 85,
                    "time": 168.123091499999,
                    "velocity": 0.2992125984251969,
                    "duration": 0.08797649999999635
                },
                {
                    "name": "A5",
                    "midi": 81,
                    "time": 168.211067999999,
                    "velocity": 0.28346456692913385,
                    "duration": 0.08797649999999635
                },
                {
                    "name": "C#6",
                    "midi": 85,
                    "time": 168.29904449999898,
                    "velocity": 0.2992125984251969,
                    "duration": 0.08797649999999635
                },
                {
                    "name": "E6",
                    "midi": 88,
                    "time": 168.38702099999898,
                    "velocity": 0.31496062992125984,
                    "duration": 0.08797649999999635
                },
                {
                    "name": "A6",
                    "midi": 93,
                    "time": 168.47499749999898,
                    "velocity": 0.3464566929133858,
                    "duration": 0.08797649999999635
                },
                {
                    "name": "C#7",
                    "midi": 97,
                    "time": 168.56297399999897,
                    "velocity": 0.3779527559055118,
                    "duration": 0.08797649999999635
                },
                {
                    "name": "A6",
                    "midi": 93,
                    "time": 168.65095049999897,
                    "velocity": 0.4094488188976378,
                    "duration": 0.08797649999999635
                },
                {
                    "name": "G#6",
                    "midi": 92,
                    "time": 168.73892699999897,
                    "velocity": 0.3858267716535433,
                    "duration": 0.08797649999999635
                },
                {
                    "name": "C#6",
                    "midi": 85,
                    "time": 168.82690349999896,
                    "velocity": 0.3228346456692913,
                    "duration": 0.08797649999999635
                },
                {
                    "name": "C#7",
                    "midi": 97,
                    "time": 168.91487999999896,
                    "velocity": 0.36220472440944884,
                    "duration": 0.08797649999999635
                },
                {
                    "name": "G#6",
                    "midi": 92,
                    "time": 169.00285649999896,
                    "velocity": 0.31496062992125984,
                    "duration": 0.08797649999999635
                },
                {
                    "name": "F#6",
                    "midi": 90,
                    "time": 169.09083299999895,
                    "velocity": 0.31496062992125984,
                    "duration": 0.08797649999999635
                },
                {
                    "name": "C#6",
                    "midi": 85,
                    "time": 169.17880949999895,
                    "velocity": 0.31496062992125984,
                    "duration": 0.08797649999999635
                },
                {
                    "name": "C#7",
                    "midi": 97,
                    "time": 169.26678599999894,
                    "velocity": 0.3543307086614173,
                    "duration": 0.08797649999999635
                },
                {
                    "name": "F#6",
                    "midi": 90,
                    "time": 169.35476249999894,
                    "velocity": 0.30708661417322836,
                    "duration": 0.08797649999999635
                },
                {
                    "name": "F6",
                    "midi": 89,
                    "time": 169.44273899999894,
                    "velocity": 0.30708661417322836,
                    "duration": 0.08797649999999635
                },
                {
                    "name": "C#6",
                    "midi": 85,
                    "time": 169.53071549999893,
                    "velocity": 0.30708661417322836,
                    "duration": 0.08797649999999635
                },
                {
                    "name": "C#7",
                    "midi": 97,
                    "time": 169.61869199999893,
                    "velocity": 0.3543307086614173,
                    "duration": 0.08797649999999635
                },
                {
                    "name": "G#6",
                    "midi": 92,
                    "time": 169.70666849999893,
                    "velocity": 0.30708661417322836,
                    "duration": 0.08797649999999635
                },
                {
                    "name": "F#6",
                    "midi": 90,
                    "time": 169.79464499999892,
                    "velocity": 0.30708661417322836,
                    "duration": 0.08797649999999635
                },
                {
                    "name": "C#6",
                    "midi": 85,
                    "time": 169.88262149999892,
                    "velocity": 0.30708661417322836,
                    "duration": 0.08797649999999635
                },
                {
                    "name": "C#7",
                    "midi": 97,
                    "time": 169.97059799999892,
                    "velocity": 0.33070866141732286,
                    "duration": 0.08797649999999635
                },
                {
                    "name": "F#6",
                    "midi": 90,
                    "time": 170.0585744999989,
                    "velocity": 0.2992125984251969,
                    "duration": 0.08797649999999635
                },
                {
                    "name": "F6",
                    "midi": 89,
                    "time": 170.1465509999989,
                    "velocity": 0.2992125984251969,
                    "duration": 0.08797649999999635
                },
                {
                    "name": "C#6",
                    "midi": 85,
                    "time": 170.2345274999989,
                    "velocity": 0.2992125984251969,
                    "duration": 0.08797649999999635
                },
                {
                    "name": "C#7",
                    "midi": 97,
                    "time": 170.3225039999989,
                    "velocity": 0.4094488188976378,
                    "duration": 0.08797649999999635
                },
                {
                    "name": "G#6",
                    "midi": 92,
                    "time": 170.4104804999989,
                    "velocity": 0.3858267716535433,
                    "duration": 0.08797649999999635
                },
                {
                    "name": "F#6",
                    "midi": 90,
                    "time": 170.4984569999989,
                    "velocity": 0.3779527559055118,
                    "duration": 0.08797649999999635
                },
                {
                    "name": "C#6",
                    "midi": 85,
                    "time": 170.5864334999989,
                    "velocity": 0.36220472440944884,
                    "duration": 0.08797649999999635
                },
                {
                    "name": "A5",
                    "midi": 81,
                    "time": 170.6744099999989,
                    "velocity": 0.3464566929133858,
                    "duration": 0.08797649999999635
                },
                {
                    "name": "F#5",
                    "midi": 78,
                    "time": 170.76238649999888,
                    "velocity": 0.3464566929133858,
                    "duration": 0.08797649999999635
                },
                {
                    "name": "C#5",
                    "midi": 73,
                    "time": 170.85036299999888,
                    "velocity": 0.33070866141732286,
                    "duration": 0.08797649999999635
                },
                {
                    "name": "A4",
                    "midi": 69,
                    "time": 170.93833949999888,
                    "velocity": 0.31496062992125984,
                    "duration": 0.08797649999999635
                },
                {
                    "name": "F#4",
                    "midi": 66,
                    "time": 171.02631599999887,
                    "velocity": 0.29133858267716534,
                    "duration": 0.08797649999999635
                },
                {
                    "name": "F#7",
                    "midi": 102,
                    "time": 171.37822199999886,
                    "velocity": 0.33858267716535434,
                    "duration": 0.08797649999999635
                },
                {
                    "name": "A6",
                    "midi": 93,
                    "time": 171.46619849999885,
                    "velocity": 0.3543307086614173,
                    "duration": 0.08797649999999635
                },
                {
                    "name": "E6",
                    "midi": 88,
                    "time": 171.55417499999885,
                    "velocity": 0.3464566929133858,
                    "duration": 0.08797649999999635
                },
                {
                    "name": "C#7",
                    "midi": 97,
                    "time": 171.64215149999885,
                    "velocity": 0.3228346456692913,
                    "duration": 0.08797649999999635
                },
                {
                    "name": "E7",
                    "midi": 100,
                    "time": 171.73012799999884,
                    "velocity": 0.36220472440944884,
                    "duration": 0.08797649999999635
                },
                {
                    "name": "A6",
                    "midi": 93,
                    "time": 171.81810449999884,
                    "velocity": 0.31496062992125984,
                    "duration": 0.08797649999999635
                },
                {
                    "name": "D6",
                    "midi": 86,
                    "time": 171.90608099999884,
                    "velocity": 0.31496062992125984,
                    "duration": 0.08797649999999635
                },
                {
                    "name": "D7",
                    "midi": 98,
                    "time": 171.99405749999883,
                    "velocity": 0.31496062992125984,
                    "duration": 0.08797649999999635
                },
                {
                    "name": "A6",
                    "midi": 93,
                    "time": 172.08203399999883,
                    "velocity": 0.3543307086614173,
                    "duration": 0.08797649999999635
                },
                {
                    "name": "C#6",
                    "midi": 85,
                    "time": 172.17001049999882,
                    "velocity": 0.30708661417322836,
                    "duration": 0.08797649999999635
                },
                {
                    "name": "A6",
                    "midi": 93,
                    "time": 172.25798699999882,
                    "velocity": 0.30708661417322836,
                    "duration": 0.08797649999999635
                },
                {
                    "name": "C#7",
                    "midi": 97,
                    "time": 172.34596349999882,
                    "velocity": 0.30708661417322836,
                    "duration": 0.08797649999999635
                },
                {
                    "name": "E7",
                    "midi": 100,
                    "time": 172.4339399999988,
                    "velocity": 0.3543307086614173,
                    "duration": 0.08797649999999635
                },
                {
                    "name": "A6",
                    "midi": 93,
                    "time": 172.5219164999988,
                    "velocity": 0.30708661417322836,
                    "duration": 0.08797649999999635
                },
                {
                    "name": "D6",
                    "midi": 86,
                    "time": 172.6098929999988,
                    "velocity": 0.30708661417322836,
                    "duration": 0.08797649999999635
                },
                {
                    "name": "D7",
                    "midi": 98,
                    "time": 172.6978694999988,
                    "velocity": 0.30708661417322836,
                    "duration": 0.08797649999999635
                },
                {
                    "name": "A6",
                    "midi": 93,
                    "time": 172.7858459999988,
                    "velocity": 0.33070866141732286,
                    "duration": 0.08797649999999635
                },
                {
                    "name": "C#6",
                    "midi": 85,
                    "time": 172.8738224999988,
                    "velocity": 0.2992125984251969,
                    "duration": 0.08797649999999635
                },
                {
                    "name": "A6",
                    "midi": 93,
                    "time": 172.9617989999988,
                    "velocity": 0.2992125984251969,
                    "duration": 0.08797649999999635
                },
                {
                    "name": "C#7",
                    "midi": 97,
                    "time": 173.0497754999988,
                    "velocity": 0.2992125984251969,
                    "duration": 0.08797649999999635
                },
                {
                    "name": "E7",
                    "midi": 100,
                    "time": 173.13775199999878,
                    "velocity": 0.4094488188976378,
                    "duration": 0.08797649999999635
                },
                {
                    "name": "D7",
                    "midi": 98,
                    "time": 173.22572849999878,
                    "velocity": 0.3937007874015748,
                    "duration": 0.08797649999999635
                },
                {
                    "name": "A6",
                    "midi": 93,
                    "time": 173.31370499999878,
                    "velocity": 0.3779527559055118,
                    "duration": 0.08797649999999635
                },
                {
                    "name": "D6",
                    "midi": 86,
                    "time": 173.40168149999877,
                    "velocity": 0.3543307086614173,
                    "duration": 0.08797649999999635
                },
                {
                    "name": "A5",
                    "midi": 81,
                    "time": 173.48965799999877,
                    "velocity": 0.3464566929133858,
                    "duration": 0.08797649999999635
                },
                {
                    "name": "F#5",
                    "midi": 78,
                    "time": 173.57763449999877,
                    "velocity": 0.3464566929133858,
                    "duration": 0.08797649999999635
                },
                {
                    "name": "D5",
                    "midi": 74,
                    "time": 173.66561099999876,
                    "velocity": 0.33070866141732286,
                    "duration": 0.08797649999999635
                },
                {
                    "name": "A4",
                    "midi": 69,
                    "time": 173.75358749999876,
                    "velocity": 0.31496062992125984,
                    "duration": 0.08797649999999635
                },
                {
                    "name": "D4",
                    "midi": 62,
                    "time": 173.84156399999875,
                    "velocity": 0.29133858267716534,
                    "duration": 0.08797649999999635
                },
                {
                    "name": "D7",
                    "midi": 98,
                    "time": 174.19346999999874,
                    "velocity": 0.4015748031496063,
                    "duration": 0.08797649999999635
                },
                {
                    "name": "F#7",
                    "midi": 102,
                    "time": 174.28144649999874,
                    "velocity": 0.3543307086614173,
                    "duration": 0.08797649999999635
                },
                {
                    "name": "D7",
                    "midi": 98,
                    "time": 174.36942299999873,
                    "velocity": 0.4015748031496063,
                    "duration": 0.08797649999999635
                },
                {
                    "name": "F#6",
                    "midi": 90,
                    "time": 174.45739949999873,
                    "velocity": 0.3228346456692913,
                    "duration": 0.08797649999999635
                },
                {
                    "name": "B5",
                    "midi": 83,
                    "time": 174.54537599999873,
                    "velocity": 0.3858267716535433,
                    "duration": 0.08797649999999635
                },
                {
                    "name": "D6",
                    "midi": 86,
                    "time": 174.63335249999872,
                    "velocity": 0.33858267716535434,
                    "duration": 0.08797649999999635
                },
                {
                    "name": "B5",
                    "midi": 83,
                    "time": 174.72132899999872,
                    "velocity": 0.3228346456692913,
                    "duration": 0.08797649999999635
                },
                {
                    "name": "D6",
                    "midi": 86,
                    "time": 174.80930549999871,
                    "velocity": 0.30708661417322836,
                    "duration": 0.08797649999999635
                },
                {
                    "name": "B5",
                    "midi": 83,
                    "time": 174.8972819999987,
                    "velocity": 0.3228346456692913,
                    "duration": 0.08797649999999635
                },
                {
                    "name": "D6",
                    "midi": 86,
                    "time": 174.9852584999987,
                    "velocity": 0.30708661417322836,
                    "duration": 0.08797649999999635
                },
                {
                    "name": "B5",
                    "midi": 83,
                    "time": 175.0732349999987,
                    "velocity": 0.3228346456692913,
                    "duration": 0.08797649999999635
                },
                {
                    "name": "D6",
                    "midi": 86,
                    "time": 175.1612114999987,
                    "velocity": 0.2992125984251969,
                    "duration": 0.08797649999999635
                },
                {
                    "name": "B5",
                    "midi": 83,
                    "time": 175.2491879999987,
                    "velocity": 0.28346456692913385,
                    "duration": 0.08797649999999635
                },
                {
                    "name": "D6",
                    "midi": 86,
                    "time": 175.3371644999987,
                    "velocity": 0.2992125984251969,
                    "duration": 0.08797649999999635
                },
                {
                    "name": "F#6",
                    "midi": 90,
                    "time": 175.4251409999987,
                    "velocity": 0.3228346456692913,
                    "duration": 0.08797649999999635
                },
                {
                    "name": "B6",
                    "midi": 95,
                    "time": 175.51311749999869,
                    "velocity": 0.3464566929133858,
                    "duration": 0.08797649999999635
                },
                {
                    "name": "D7",
                    "midi": 98,
                    "time": 175.60109399999868,
                    "velocity": 0.3700787401574803,
                    "duration": 0.08797649999999635
                },
                {
                    "name": "F#7",
                    "midi": 102,
                    "time": 175.68907049999868,
                    "velocity": 0.3937007874015748,
                    "duration": 0.08797649999999635
                },
                {
                    "name": "D7",
                    "midi": 98,
                    "time": 175.77704699999867,
                    "velocity": 0.3858267716535433,
                    "duration": 0.08797649999999635
                },
                {
                    "name": "F#6",
                    "midi": 90,
                    "time": 175.86502349999867,
                    "velocity": 0.3543307086614173,
                    "duration": 0.08797649999999635
                },
                {
                    "name": "B5",
                    "midi": 83,
                    "time": 175.95299999999867,
                    "velocity": 0.3228346456692913,
                    "duration": 0.08797649999999635
                },
                {
                    "name": "D6",
                    "midi": 86,
                    "time": 176.04097649999866,
                    "velocity": 0.2992125984251969,
                    "duration": 0.08797649999999635
                },
                {
                    "name": "B5",
                    "midi": 83,
                    "time": 176.12895299999866,
                    "velocity": 0.3228346456692913,
                    "duration": 0.08797649999999635
                },
                {
                    "name": "D6",
                    "midi": 86,
                    "time": 176.21692949999866,
                    "velocity": 0.30708661417322836,
                    "duration": 0.08797649999999635
                },
                {
                    "name": "B5",
                    "midi": 83,
                    "time": 176.30490599999865,
                    "velocity": 0.3228346456692913,
                    "duration": 0.08797649999999635
                },
                {
                    "name": "D6",
                    "midi": 86,
                    "time": 176.39288249999865,
                    "velocity": 0.30708661417322836,
                    "duration": 0.08797649999999635
                },
                {
                    "name": "B5",
                    "midi": 83,
                    "time": 176.48085899999865,
                    "velocity": 0.3228346456692913,
                    "duration": 0.08797649999999635
                },
                {
                    "name": "D6",
                    "midi": 86,
                    "time": 176.56883549999864,
                    "velocity": 0.2992125984251969,
                    "duration": 0.08797649999999635
                },
                {
                    "name": "B5",
                    "midi": 83,
                    "time": 176.65681199999864,
                    "velocity": 0.28346456692913385,
                    "duration": 0.08797649999999635
                },
                {
                    "name": "D6",
                    "midi": 86,
                    "time": 176.74478849999863,
                    "velocity": 0.2992125984251969,
                    "duration": 0.08797649999999635
                },
                {
                    "name": "F#6",
                    "midi": 90,
                    "time": 176.83276499999863,
                    "velocity": 0.3228346456692913,
                    "duration": 0.08797649999999635
                },
                {
                    "name": "B6",
                    "midi": 95,
                    "time": 176.92074149999863,
                    "velocity": 0.3464566929133858,
                    "duration": 0.08797649999999635
                },
                {
                    "name": "D7",
                    "midi": 98,
                    "time": 177.00871799999862,
                    "velocity": 0.3700787401574803,
                    "duration": 0.08797649999999635
                },
                {
                    "name": "F#6",
                    "midi": 90,
                    "time": 177.09669449999862,
                    "velocity": 0.3937007874015748,
                    "duration": 0.08797649999999635
                },
                {
                    "name": "B6",
                    "midi": 95,
                    "time": 177.18467099999862,
                    "velocity": 0.3779527559055118,
                    "duration": 0.08797649999999635
                },
                {
                    "name": "D7",
                    "midi": 98,
                    "time": 177.2726474999986,
                    "velocity": 0.3543307086614173,
                    "duration": 0.08797649999999635
                },
                {
                    "name": "C#7",
                    "midi": 97,
                    "time": 177.3606239999986,
                    "velocity": 0.36220472440944884,
                    "duration": 0.08797649999999635
                },
                {
                    "name": "E6",
                    "midi": 88,
                    "time": 177.4486004999986,
                    "velocity": 0.31496062992125984,
                    "duration": 0.08797649999999635
                },
                {
                    "name": "B6",
                    "midi": 95,
                    "time": 177.5365769999986,
                    "velocity": 0.31496062992125984,
                    "duration": 0.08797649999999635
                },
                {
                    "name": "E7",
                    "midi": 100,
                    "time": 177.6245534999986,
                    "velocity": 0.31496062992125984,
                    "duration": 0.08797649999999635
                },
                {
                    "name": "A6",
                    "midi": 93,
                    "time": 177.7125299999986,
                    "velocity": 0.3543307086614173,
                    "duration": 0.08797649999999635
                },
                {
                    "name": "E6",
                    "midi": 88,
                    "time": 177.8005064999986,
                    "velocity": 0.30708661417322836,
                    "duration": 0.08797649999999635
                },
                {
                    "name": "C#7",
                    "midi": 97,
                    "time": 177.8884829999986,
                    "velocity": 0.30708661417322836,
                    "duration": 0.08797649999999635
                },
                {
                    "name": "E7",
                    "midi": 100,
                    "time": 177.97645949999858,
                    "velocity": 0.30708661417322836,
                    "duration": 0.08797649999999635
                },
                {
                    "name": "B6",
                    "midi": 95,
                    "time": 178.06443599999858,
                    "velocity": 0.3543307086614173,
                    "duration": 0.08797649999999635
                },
                {
                    "name": "E6",
                    "midi": 88,
                    "time": 178.15241249999858,
                    "velocity": 0.30708661417322836,
                    "duration": 0.08797649999999635
                },
                {
                    "name": "A6",
                    "midi": 93,
                    "time": 178.24038899999857,
                    "velocity": 0.30708661417322836,
                    "duration": 0.08797649999999635
                },
                {
                    "name": "E7",
                    "midi": 100,
                    "time": 178.32836549999857,
                    "velocity": 0.30708661417322836,
                    "duration": 0.08797649999999635
                },
                {
                    "name": "G#6",
                    "midi": 92,
                    "time": 178.41634199999856,
                    "velocity": 0.33070866141732286,
                    "duration": 0.08797649999999635
                },
                {
                    "name": "E6",
                    "midi": 88,
                    "time": 178.50431849999856,
                    "velocity": 0.2992125984251969,
                    "duration": 0.08797649999999635
                },
                {
                    "name": "B6",
                    "midi": 95,
                    "time": 178.59229499999856,
                    "velocity": 0.2992125984251969,
                    "duration": 0.08797649999999635
                },
                {
                    "name": "E7",
                    "midi": 100,
                    "time": 178.68027149999855,
                    "velocity": 0.2992125984251969,
                    "duration": 0.08797649999999635
                },
                {
                    "name": "A6",
                    "midi": 93,
                    "time": 178.76824799999855,
                    "velocity": 0.3464566929133858,
                    "duration": 0.08797649999999635
                },
                {
                    "name": "E6",
                    "midi": 88,
                    "time": 178.85622449999855,
                    "velocity": 0.33070866141732286,
                    "duration": 0.08797649999999635
                },
                {
                    "name": "C#7",
                    "midi": 97,
                    "time": 178.94420099999854,
                    "velocity": 0.33070866141732286,
                    "duration": 0.08797649999999635
                },
                {
                    "name": "E7",
                    "midi": 100,
                    "time": 179.03217749999854,
                    "velocity": 0.33070866141732286,
                    "duration": 0.08797649999999635
                },
                {
                    "name": "G#6",
                    "midi": 92,
                    "time": 179.12015399999854,
                    "velocity": 0.3464566929133858,
                    "duration": 0.08797649999999635
                },
                {
                    "name": "E6",
                    "midi": 88,
                    "time": 179.20813049999853,
                    "velocity": 0.3464566929133858,
                    "duration": 0.08797649999999635
                },
                {
                    "name": "B6",
                    "midi": 95,
                    "time": 179.29610699999853,
                    "velocity": 0.33070866141732286,
                    "duration": 0.08797649999999635
                },
                {
                    "name": "E7",
                    "midi": 100,
                    "time": 179.38408349999852,
                    "velocity": 0.31496062992125984,
                    "duration": 0.08797649999999635
                },
                {
                    "name": "A6",
                    "midi": 93,
                    "time": 179.47205999999852,
                    "velocity": 0.29133858267716534,
                    "duration": 0.08797649999999635
                },
                {
                    "name": "A4",
                    "midi": 69,
                    "time": 179.8239659999985,
                    "velocity": 0.8031496062992126,
                    "duration": 0.13196475000000873
                },
                {
                    "name": "A3",
                    "midi": 57,
                    "time": 179.8239659999985,
                    "velocity": 0.6692913385826772,
                    "duration": 0.13196475000000873
                },
                {
                    "name": "G#4",
                    "midi": 68,
                    "time": 180.17587199999852,
                    "velocity": 0.8503937007874016,
                    "duration": 0.13196475000000873
                },
                {
                    "name": "G#3",
                    "midi": 56,
                    "time": 180.17587199999852,
                    "velocity": 0.7086614173228346,
                    "duration": 0.13196475000000873
                },
                {
                    "name": "F4",
                    "midi": 65,
                    "time": 180.52777799999853,
                    "velocity": 0.8031496062992126,
                    "duration": 0.13196475000000873
                },
                {
                    "name": "F3",
                    "midi": 53,
                    "time": 180.52777799999853,
                    "velocity": 0.6692913385826772,
                    "duration": 0.13196475000000873
                },
                {
                    "name": "E4",
                    "midi": 64,
                    "time": 180.87968399999855,
                    "velocity": 0.8503937007874016,
                    "duration": 0.13196475000000873
                },
                {
                    "name": "E3",
                    "midi": 52,
                    "time": 180.87968399999855,
                    "velocity": 0.7086614173228346,
                    "duration": 0.13196475000000873
                },
                {
                    "name": "D4",
                    "midi": 62,
                    "time": 181.23158999999856,
                    "velocity": 0.8031496062992126,
                    "duration": 0.13196475000000873
                },
                {
                    "name": "D3",
                    "midi": 50,
                    "time": 181.23158999999856,
                    "velocity": 0.6692913385826772,
                    "duration": 0.13196475000000873
                },
                {
                    "name": "C#4",
                    "midi": 61,
                    "time": 181.58349599999858,
                    "velocity": 0.889763779527559,
                    "duration": 0.5278590000000065
                },
                {
                    "name": "C#3",
                    "midi": 49,
                    "time": 181.58349599999858,
                    "velocity": 0.7559055118110236,
                    "duration": 0.5278590000000065
                },
                {
                    "name": "D4",
                    "midi": 62,
                    "time": 182.11135499999858,
                    "velocity": 0.7952755905511811,
                    "duration": 0.1759529999999927
                },
                {
                    "name": "D3",
                    "midi": 50,
                    "time": 182.11135499999858,
                    "velocity": 0.6692913385826772,
                    "duration": 0.1759529999999927
                },
                {
                    "name": "E4",
                    "midi": 64,
                    "time": 182.28730799999857,
                    "velocity": 0.905511811023622,
                    "duration": 0.1759529999999927
                },
                {
                    "name": "E3",
                    "midi": 52,
                    "time": 182.28730799999857,
                    "velocity": 0.7637795275590551,
                    "duration": 0.1759529999999927
                },
                {
                    "name": "A4",
                    "midi": 69,
                    "time": 182.81516699999858,
                    "velocity": 0.8267716535433071,
                    "duration": 0.08797649999999635
                },
                {
                    "name": "A3",
                    "midi": 57,
                    "time": 182.81516699999858,
                    "velocity": 0.6929133858267716,
                    "duration": 0.08797649999999635
                },
                {
                    "name": "E4",
                    "midi": 64,
                    "time": 182.99111999999857,
                    "velocity": 0.905511811023622,
                    "duration": 0.5278590000000065
                },
                {
                    "name": "E3",
                    "midi": 52,
                    "time": 182.99111999999857,
                    "velocity": 0.7637795275590551,
                    "duration": 0.5278590000000065
                },
                {
                    "name": "A4",
                    "midi": 69,
                    "time": 183.51897899999858,
                    "velocity": 0.7874015748031497,
                    "duration": 0.08797649999999635
                },
                {
                    "name": "A3",
                    "midi": 57,
                    "time": 183.51897899999858,
                    "velocity": 0.6535433070866141,
                    "duration": 0.08797649999999635
                },
                {
                    "name": "E4",
                    "midi": 64,
                    "time": 183.69493199999857,
                    "velocity": 0.8740157480314961,
                    "duration": 0.5278590000000065
                },
                {
                    "name": "E3",
                    "midi": 52,
                    "time": 183.69493199999857,
                    "velocity": 0.7401574803149606,
                    "duration": 0.5278590000000065
                },
                {
                    "name": "A4",
                    "midi": 69,
                    "time": 184.22279099999858,
                    "velocity": 0.6377952755905512,
                    "duration": 0.08797649999999635
                },
                {
                    "name": "A3",
                    "midi": 57,
                    "time": 184.22279099999858,
                    "velocity": 0.5433070866141733,
                    "duration": 0.08797649999999635
                },
                {
                    "name": "E4",
                    "midi": 64,
                    "time": 184.39874399999857,
                    "velocity": 0.6850393700787402,
                    "duration": 0.08797649999999635
                },
                {
                    "name": "E3",
                    "midi": 52,
                    "time": 184.39874399999857,
                    "velocity": 0.5748031496062992,
                    "duration": 0.08797649999999635
                },
                {
                    "name": "C#4",
                    "midi": 61,
                    "time": 184.57469699999857,
                    "velocity": 0.5984251968503937,
                    "duration": 0.08797649999999635
                },
                {
                    "name": "C#3",
                    "midi": 49,
                    "time": 184.57469699999857,
                    "velocity": 0.5118110236220472,
                    "duration": 0.08797649999999635
                },
                {
                    "name": "A2",
                    "midi": 45,
                    "time": 184.75064999999856,
                    "velocity": 0.5118110236220472,
                    "duration": 0.08797649999999635
                },
                {
                    "name": "A3",
                    "midi": 57,
                    "time": 184.75064999999856,
                    "velocity": 0.5118110236220472,
                    "duration": 0.08797649999999635
                },
                {
                    "name": "C#4",
                    "midi": 61,
                    "time": 184.92660299999855,
                    "velocity": 0.5984251968503937,
                    "duration": 0.08797649999999635
                },
                {
                    "name": "C#3",
                    "midi": 49,
                    "time": 184.92660299999855,
                    "velocity": 0.5118110236220472,
                    "duration": 0.08797649999999635
                },
                {
                    "name": "E4",
                    "midi": 64,
                    "time": 185.10255599999854,
                    "velocity": 0.5669291338582677,
                    "duration": 0.08797649999999635
                },
                {
                    "name": "E3",
                    "midi": 52,
                    "time": 185.10255599999854,
                    "velocity": 0.47244094488188976,
                    "duration": 0.08797649999999635
                },
                {
                    "name": "C#4",
                    "midi": 61,
                    "time": 185.27850899999854,
                    "velocity": 0.5984251968503937,
                    "duration": 0.08797649999999635
                },
                {
                    "name": "C#3",
                    "midi": 49,
                    "time": 185.27850899999854,
                    "velocity": 0.5118110236220472,
                    "duration": 0.08797649999999635
                },
                {
                    "name": "E4",
                    "midi": 64,
                    "time": 185.45446199999853,
                    "velocity": 0.6377952755905512,
                    "duration": 0.08797649999999635
                },
                {
                    "name": "E3",
                    "midi": 52,
                    "time": 185.45446199999853,
                    "velocity": 0.5433070866141733,
                    "duration": 0.08797649999999635
                },
                {
                    "name": "A4",
                    "midi": 69,
                    "time": 185.63041499999852,
                    "velocity": 0.6771653543307087,
                    "duration": 0.08797649999999635
                },
                {
                    "name": "A3",
                    "midi": 57,
                    "time": 185.63041499999852,
                    "velocity": 0.5669291338582677,
                    "duration": 0.08797649999999635
                },
                {
                    "name": "E4",
                    "midi": 64,
                    "time": 185.8063679999985,
                    "velocity": 0.7086614173228346,
                    "duration": 0.7038119999999992
                },
                {
                    "name": "E3",
                    "midi": 52,
                    "time": 185.8063679999985,
                    "velocity": 0.5984251968503937,
                    "duration": 0.7038119999999992
                },
                {
                    "name": "A4",
                    "midi": 69,
                    "time": 186.5101799999985,
                    "velocity": 0.6614173228346457,
                    "duration": 0.08797649999999635
                },
                {
                    "name": "A3",
                    "midi": 57,
                    "time": 186.5101799999985,
                    "velocity": 0.5590551181102362,
                    "duration": 0.08797649999999635
                },
                {
                    "name": "A5",
                    "midi": 81,
                    "time": 186.8620859999985,
                    "velocity": 0.5905511811023622,
                    "duration": 0.1759529999999927
                },
                {
                    "name": "A4",
                    "midi": 69,
                    "time": 186.8620859999985,
                    "velocity": 0.4645669291338583,
                    "duration": 0.1759529999999927
                },
                {
                    "name": "C5",
                    "midi": 72,
                    "time": 186.8620859999985,
                    "velocity": 0.5039370078740157,
                    "duration": 0.1759529999999927
                },
                {
                    "name": "G5",
                    "midi": 79,
                    "time": 187.21399199999848,
                    "velocity": 0.5511811023622047,
                    "duration": 0.1759529999999927
                },
                {
                    "name": "G4",
                    "midi": 67,
                    "time": 187.21399199999848,
                    "velocity": 0.4645669291338583,
                    "duration": 0.3519059999999854
                },
                {
                    "name": "C5",
                    "midi": 72,
                    "time": 187.21399199999848,
                    "velocity": 0.4645669291338583,
                    "duration": 0.3519059999999854
                },
                {
                    "name": "E5",
                    "midi": 76,
                    "time": 187.38994499999848,
                    "velocity": 0.5118110236220472,
                    "duration": 0.1759529999999927
                },
                {
                    "name": "F5",
                    "midi": 77,
                    "time": 187.56589799999847,
                    "velocity": 0.5511811023622047,
                    "duration": 0.1759529999999927
                },
                {
                    "name": "F4",
                    "midi": 65,
                    "time": 187.56589799999847,
                    "velocity": 0.4645669291338583,
                    "duration": 0.3519059999999854
                },
                {
                    "name": "A4",
                    "midi": 69,
                    "time": 187.56589799999847,
                    "velocity": 0.4645669291338583,
                    "duration": 0.3519059999999854
                },
                {
                    "name": "D5",
                    "midi": 74,
                    "time": 187.74185099999846,
                    "velocity": 0.5039370078740157,
                    "duration": 0.1759529999999927
                },
                {
                    "name": "E5",
                    "midi": 76,
                    "time": 187.91780399999845,
                    "velocity": 0.5511811023622047,
                    "duration": 0.1759529999999927
                },
                {
                    "name": "E4",
                    "midi": 64,
                    "time": 187.91780399999845,
                    "velocity": 0.4645669291338583,
                    "duration": 0.3519059999999854
                },
                {
                    "name": "G4",
                    "midi": 67,
                    "time": 187.91780399999845,
                    "velocity": 0.4645669291338583,
                    "duration": 0.3519059999999854
                },
                {
                    "name": "C5",
                    "midi": 72,
                    "time": 188.09375699999845,
                    "velocity": 0.4881889763779528,
                    "duration": 0.1759529999999927
                },
                {
                    "name": "D5",
                    "midi": 74,
                    "time": 188.26970999999844,
                    "velocity": 0.5196850393700787,
                    "duration": 0.1759529999999927
                },
                {
                    "name": "D4",
                    "midi": 62,
                    "time": 188.26970999999844,
                    "velocity": 0.4409448818897638,
                    "duration": 0.3519059999999854
                },
                {
                    "name": "F4",
                    "midi": 65,
                    "time": 188.26970999999844,
                    "velocity": 0.4409448818897638,
                    "duration": 0.3519059999999854
                },
                {
                    "name": "B4",
                    "midi": 71,
                    "time": 188.44566299999843,
                    "velocity": 0.47244094488188976,
                    "duration": 0.1759529999999927
                },
                {
                    "name": "E4",
                    "midi": 64,
                    "time": 188.62161599999843,
                    "velocity": 0.31496062992125984,
                    "duration": 0.1759529999999927
                },
                {
                    "name": "C5",
                    "midi": 72,
                    "time": 188.62161599999843,
                    "velocity": 0.44881889763779526,
                    "duration": 0.08797649999999635
                },
                {
                    "name": "D5",
                    "midi": 74,
                    "time": 188.70959249999842,
                    "velocity": 0.41732283464566927,
                    "duration": 0.08797649999999635
                },
                {
                    "name": "C5",
                    "midi": 72,
                    "time": 188.79756899999842,
                    "velocity": 0.44881889763779526,
                    "duration": 0.08797649999999635
                },
                {
                    "name": "B4",
                    "midi": 71,
                    "time": 188.88554549999841,
                    "velocity": 0.41732283464566927,
                    "duration": 0.08797649999999635
                },
                {
                    "name": "C5",
                    "midi": 72,
                    "time": 188.9735219999984,
                    "velocity": 0.4251968503937008,
                    "duration": 0.08797649999999635
                },
                {
                    "name": "E5",
                    "midi": 76,
                    "time": 189.0614984999984,
                    "velocity": 0.4330708661417323,
                    "duration": 0.08797649999999635
                },
                {
                    "name": "G5",
                    "midi": 79,
                    "time": 189.1494749999984,
                    "velocity": 0.4409448818897638,
                    "duration": 0.08797649999999635
                },
                {
                    "name": "B5",
                    "midi": 83,
                    "time": 189.2374514999984,
                    "velocity": 0.4566929133858268,
                    "duration": 0.058650999999997566
                },
                {
                    "name": "D6",
                    "midi": 86,
                    "time": 189.2961024999984,
                    "velocity": 0.41732283464566927,
                    "duration": 0.029325499999998783
                },
                {
                    "name": "C6",
                    "midi": 84,
                    "time": 189.3254279999984,
                    "velocity": 0.48031496062992124,
                    "duration": 0.08797649999999635
                },
                {
                    "name": "B5",
                    "midi": 83,
                    "time": 189.4134044999984,
                    "velocity": 0.44881889763779526,
                    "duration": 0.08797649999999635
                },
                {
                    "name": "C6",
                    "midi": 84,
                    "time": 189.5013809999984,
                    "velocity": 0.44881889763779526,
                    "duration": 0.08797649999999635
                },
                {
                    "name": "D6",
                    "midi": 86,
                    "time": 189.58935749999839,
                    "velocity": 0.48031496062992124,
                    "duration": 0.08797649999999635
                },
                {
                    "name": "F5",
                    "midi": 77,
                    "time": 189.67733399999838,
                    "velocity": 0.31496062992125984,
                    "duration": 0.1759529999999927
                },
                {
                    "name": "E6",
                    "midi": 88,
                    "time": 189.67733399999838,
                    "velocity": 0.49606299212598426,
                    "duration": 0.08797649999999635
                },
                {
                    "name": "D6",
                    "midi": 86,
                    "time": 189.94126349999837,
                    "velocity": 0.47244094488188976,
                    "duration": 0.08797649999999635
                },
                {
                    "name": "E5",
                    "midi": 76,
                    "time": 190.02923999999837,
                    "velocity": 0.31496062992125984,
                    "duration": 0.1759529999999927
                },
                {
                    "name": "C6",
                    "midi": 84,
                    "time": 190.02923999999837,
                    "velocity": 0.44881889763779526,
                    "duration": 0.08797649999999635
                },
                {
                    "name": "D6",
                    "midi": 86,
                    "time": 190.11721649999836,
                    "velocity": 0.41732283464566927,
                    "duration": 0.08797649999999635
                },
                {
                    "name": "C6",
                    "midi": 84,
                    "time": 190.20519299999836,
                    "velocity": 0.44881889763779526,
                    "duration": 0.08797649999999635
                },
                {
                    "name": "B5",
                    "midi": 83,
                    "time": 190.29316949999836,
                    "velocity": 0.41732283464566927,
                    "duration": 0.08797649999999635
                },
                {
                    "name": "C6",
                    "midi": 84,
                    "time": 190.38114599999835,
                    "velocity": 0.4251968503937008,
                    "duration": 0.08797649999999635
                },
                {
                    "name": "E6",
                    "midi": 88,
                    "time": 190.46912249999835,
                    "velocity": 0.4330708661417323,
                    "duration": 0.08797649999999635
                },
                {
                    "name": "G6",
                    "midi": 91,
                    "time": 190.55709899999835,
                    "velocity": 0.4409448818897638,
                    "duration": 0.08797649999999635
                },
                {
                    "name": "B6",
                    "midi": 95,
                    "time": 190.64507549999834,
                    "velocity": 0.4566929133858268,
                    "duration": 0.058650999999997566
                },
                {
                    "name": "D7",
                    "midi": 98,
                    "time": 190.70372649999834,
                    "velocity": 0.41732283464566927,
                    "duration": 0.029325499999998783
                },
                {
                    "name": "C7",
                    "midi": 96,
                    "time": 190.73305199999834,
                    "velocity": 0.48031496062992124,
                    "duration": 0.08797649999999635
                },
                {
                    "name": "B6",
                    "midi": 95,
                    "time": 190.82102849999833,
                    "velocity": 0.44881889763779526,
                    "duration": 0.08797649999999635
                },
                {
                    "name": "C7",
                    "midi": 96,
                    "time": 190.90900499999833,
                    "velocity": 0.44881889763779526,
                    "duration": 0.08797649999999635
                },
                {
                    "name": "D7",
                    "midi": 98,
                    "time": 190.99698149999833,
                    "velocity": 0.48031496062992124,
                    "duration": 0.08797649999999635
                },
                {
                    "name": "F6",
                    "midi": 89,
                    "time": 191.08495799999832,
                    "velocity": 0.31496062992125984,
                    "duration": 0.1759529999999927
                },
                {
                    "name": "E7",
                    "midi": 100,
                    "time": 191.08495799999832,
                    "velocity": 0.49606299212598426,
                    "duration": 0.08797649999999635
                },
                {
                    "name": "D7",
                    "midi": 98,
                    "time": 191.3488874999983,
                    "velocity": 0.47244094488188976,
                    "duration": 0.08797649999999635
                },
                {
                    "name": "C7",
                    "midi": 96,
                    "time": 191.4368639999983,
                    "velocity": 0.48031496062992124,
                    "duration": 0.08797649999999635
                },
                {
                    "name": "E6",
                    "midi": 88,
                    "time": 191.5248404999983,
                    "velocity": 0.4566929133858268,
                    "duration": 0.08797649999999635
                },
                {
                    "name": "C7",
                    "midi": 96,
                    "time": 191.6128169999983,
                    "velocity": 0.4566929133858268,
                    "duration": 0.08797649999999635
                },
                {
                    "name": "E7",
                    "midi": 100,
                    "time": 191.7007934999983,
                    "velocity": 0.4566929133858268,
                    "duration": 0.08797649999999635
                },
                {
                    "name": "G7",
                    "midi": 103,
                    "time": 191.7887699999983,
                    "velocity": 0.5039370078740157,
                    "duration": 0.08797649999999635
                },
                {
                    "name": "G6",
                    "midi": 91,
                    "time": 191.8767464999983,
                    "velocity": 0.4566929133858268,
                    "duration": 0.08797649999999635
                },
                {
                    "name": "B6",
                    "midi": 95,
                    "time": 191.9647229999983,
                    "velocity": 0.4566929133858268,
                    "duration": 0.08797649999999635
                },
                {
                    "name": "G6",
                    "midi": 91,
                    "time": 192.05269949999828,
                    "velocity": 0.4566929133858268,
                    "duration": 0.08797649999999635
                },
                {
                    "name": "C7",
                    "midi": 96,
                    "time": 192.14067599999828,
                    "velocity": 0.5118110236220472,
                    "duration": 0.08797649999999635
                },
                {
                    "name": "E6",
                    "midi": 88,
                    "time": 192.22865249999828,
                    "velocity": 0.4645669291338583,
                    "duration": 0.08797649999999635
                },
                {
                    "name": "C7",
                    "midi": 96,
                    "time": 192.31662899999827,
                    "velocity": 0.4645669291338583,
                    "duration": 0.08797649999999635
                },
                {
                    "name": "E7",
                    "midi": 100,
                    "time": 192.40460549999827,
                    "velocity": 0.4645669291338583,
                    "duration": 0.08797649999999635
                },
                {
                    "name": "G7",
                    "midi": 103,
                    "time": 192.49258199999827,
                    "velocity": 0.5118110236220472,
                    "duration": 0.08797649999999635
                },
                {
                    "name": "G6",
                    "midi": 91,
                    "time": 192.58055849999826,
                    "velocity": 0.47244094488188976,
                    "duration": 0.08797649999999635
                },
                {
                    "name": "B6",
                    "midi": 95,
                    "time": 192.66853499999826,
                    "velocity": 0.47244094488188976,
                    "duration": 0.08797649999999635
                },
                {
                    "name": "G6",
                    "midi": 91,
                    "time": 192.75651149999825,
                    "velocity": 0.47244094488188976,
                    "duration": 0.08797649999999635
                },
                {
                    "name": "C7",
                    "midi": 96,
                    "time": 192.84448799999825,
                    "velocity": 0.48031496062992124,
                    "duration": 0.08797649999999635
                },
                {
                    "name": "E6",
                    "midi": 88,
                    "time": 192.93246449999825,
                    "velocity": 0.4566929133858268,
                    "duration": 0.08797649999999635
                },
                {
                    "name": "C7",
                    "midi": 96,
                    "time": 193.02044099999824,
                    "velocity": 0.4566929133858268,
                    "duration": 0.08797649999999635
                },
                {
                    "name": "E7",
                    "midi": 100,
                    "time": 193.10841749999824,
                    "velocity": 0.4566929133858268,
                    "duration": 0.08797649999999635
                },
                {
                    "name": "G7",
                    "midi": 103,
                    "time": 193.19639399999824,
                    "velocity": 0.5039370078740157,
                    "duration": 0.08797649999999635
                },
                {
                    "name": "G6",
                    "midi": 91,
                    "time": 193.28437049999823,
                    "velocity": 0.4566929133858268,
                    "duration": 0.08797649999999635
                },
                {
                    "name": "B6",
                    "midi": 95,
                    "time": 193.37234699999823,
                    "velocity": 0.4566929133858268,
                    "duration": 0.08797649999999635
                },
                {
                    "name": "G6",
                    "midi": 91,
                    "time": 193.46032349999822,
                    "velocity": 0.4566929133858268,
                    "duration": 0.08797649999999635
                },
                {
                    "name": "C7",
                    "midi": 96,
                    "time": 193.54829999999822,
                    "velocity": 0.5118110236220472,
                    "duration": 0.08797649999999635
                },
                {
                    "name": "E6",
                    "midi": 88,
                    "time": 193.63627649999822,
                    "velocity": 0.4645669291338583,
                    "duration": 0.08797649999999635
                },
                {
                    "name": "C7",
                    "midi": 96,
                    "time": 193.7242529999982,
                    "velocity": 0.4645669291338583,
                    "duration": 0.08797649999999635
                },
                {
                    "name": "E7",
                    "midi": 100,
                    "time": 193.8122294999982,
                    "velocity": 0.4645669291338583,
                    "duration": 0.08797649999999635
                },
                {
                    "name": "G7",
                    "midi": 103,
                    "time": 193.9002059999982,
                    "velocity": 0.5118110236220472,
                    "duration": 0.08797649999999635
                },
                {
                    "name": "G6",
                    "midi": 91,
                    "time": 193.9881824999982,
                    "velocity": 0.47244094488188976,
                    "duration": 0.08797649999999635
                },
                {
                    "name": "B6",
                    "midi": 95,
                    "time": 194.0761589999982,
                    "velocity": 0.47244094488188976,
                    "duration": 0.08797649999999635
                },
                {
                    "name": "G6",
                    "midi": 91,
                    "time": 194.1641354999982,
                    "velocity": 0.47244094488188976,
                    "duration": 0.08797649999999635
                },
                {
                    "name": "C7",
                    "midi": 96,
                    "time": 194.2521119999982,
                    "velocity": 0.5039370078740157,
                    "duration": 0.08797649999999635
                },
                {
                    "name": "C5",
                    "midi": 72,
                    "time": 194.60401799999818,
                    "velocity": 0.36220472440944884,
                    "duration": 0.08797649999999635
                },
                {
                    "name": "C#5",
                    "midi": 73,
                    "time": 194.69199449999817,
                    "velocity": 0.36220472440944884,
                    "duration": 0.08797649999999635
                },
                {
                    "name": "D5",
                    "midi": 74,
                    "time": 194.77997099999817,
                    "velocity": 0.3700787401574803,
                    "duration": 0.08797649999999635
                },
                {
                    "name": "D#5",
                    "midi": 75,
                    "time": 194.86794749999817,
                    "velocity": 0.3779527559055118,
                    "duration": 0.08797649999999635
                },
                {
                    "name": "E5",
                    "midi": 76,
                    "time": 194.95592399999816,
                    "velocity": 0.3858267716535433,
                    "duration": 0.08797649999999635
                },
                {
                    "name": "F5",
                    "midi": 77,
                    "time": 195.04390049999816,
                    "velocity": 0.3858267716535433,
                    "duration": 0.08797649999999635
                },
                {
                    "name": "F#5",
                    "midi": 78,
                    "time": 195.13187699999816,
                    "velocity": 0.3937007874015748,
                    "duration": 0.08797649999999635
                },
                {
                    "name": "G5",
                    "midi": 79,
                    "time": 195.21985349999815,
                    "velocity": 0.4015748031496063,
                    "duration": 0.08797649999999635
                },
                {
                    "name": "G#5",
                    "midi": 80,
                    "time": 195.30782999999815,
                    "velocity": 0.4094488188976378,
                    "duration": 0.08797649999999635
                },
                {
                    "name": "A5",
                    "midi": 81,
                    "time": 195.39580649999814,
                    "velocity": 0.4094488188976378,
                    "duration": 0.08797649999999635
                },
                {
                    "name": "A#5",
                    "midi": 82,
                    "time": 195.48378299999814,
                    "velocity": 0.41732283464566927,
                    "duration": 0.08797649999999635
                },
                {
                    "name": "B5",
                    "midi": 83,
                    "time": 195.57175949999814,
                    "velocity": 0.4251968503937008,
                    "duration": 0.08797649999999635
                },
                {
                    "name": "C6",
                    "midi": 84,
                    "time": 195.65973599999813,
                    "velocity": 0.4330708661417323,
                    "duration": 0.08797649999999635
                },
                {
                    "name": "C#6",
                    "midi": 85,
                    "time": 195.74771249999813,
                    "velocity": 0.4330708661417323,
                    "duration": 0.08797649999999635
                },
                {
                    "name": "D6",
                    "midi": 86,
                    "time": 195.83568899999813,
                    "velocity": 0.4409448818897638,
                    "duration": 0.08797649999999635
                },
                {
                    "name": "D#6",
                    "midi": 87,
                    "time": 195.92366549999812,
                    "velocity": 0.44881889763779526,
                    "duration": 0.08797649999999635
                },
                {
                    "name": "E6",
                    "midi": 88,
                    "time": 196.01164199999812,
                    "velocity": 0.44881889763779526,
                    "duration": 0.08797649999999635
                },
                {
                    "name": "F6",
                    "midi": 89,
                    "time": 196.09961849999812,
                    "velocity": 0.4566929133858268,
                    "duration": 0.08797649999999635
                },
                {
                    "name": "F#6",
                    "midi": 90,
                    "time": 196.1875949999981,
                    "velocity": 0.4645669291338583,
                    "duration": 0.08797649999999635
                },
                {
                    "name": "G6",
                    "midi": 91,
                    "time": 196.2755714999981,
                    "velocity": 0.47244094488188976,
                    "duration": 0.08797649999999635
                },
                {
                    "name": "G#6",
                    "midi": 92,
                    "time": 196.3635479999981,
                    "velocity": 0.47244094488188976,
                    "duration": 0.07038120000001413
                },
                {
                    "name": "A6",
                    "midi": 93,
                    "time": 196.43392919999812,
                    "velocity": 0.48031496062992124,
                    "duration": 0.07038120000001413
                },
                {
                    "name": "A#6",
                    "midi": 94,
                    "time": 196.50431039999813,
                    "velocity": 0.4881889763779528,
                    "duration": 0.07038120000001413
                },
                {
                    "name": "B6",
                    "midi": 95,
                    "time": 196.57469159999815,
                    "velocity": 0.4881889763779528,
                    "duration": 0.07038120000001413
                },
                {
                    "name": "C7",
                    "midi": 96,
                    "time": 196.64507279999816,
                    "velocity": 0.5196850393700787,
                    "duration": 0.07038120000001413
                },
                {
                    "name": "C#7",
                    "midi": 97,
                    "time": 196.71545399999818,
                    "velocity": 0.44881889763779526,
                    "duration": 0.08797649999999635
                },
                {
                    "name": "E7",
                    "midi": 100,
                    "time": 196.80343049999817,
                    "velocity": 0.31496062992125984,
                    "duration": 0.08797649999999635
                },
                {
                    "name": "C#7",
                    "midi": 97,
                    "time": 196.89140699999817,
                    "velocity": 0.3543307086614173,
                    "duration": 0.08797649999999635
                },
                {
                    "name": "E6",
                    "midi": 88,
                    "time": 196.97938349999816,
                    "velocity": 0.30708661417322836,
                    "duration": 0.08797649999999635
                },
                {
                    "name": "A5",
                    "midi": 81,
                    "time": 197.06735999999816,
                    "velocity": 0.3228346456692913,
                    "duration": 0.08797649999999635
                },
                {
                    "name": "C#6",
                    "midi": 85,
                    "time": 197.15533649999816,
                    "velocity": 0.2992125984251969,
                    "duration": 0.08797649999999635
                },
                {
                    "name": "A5",
                    "midi": 81,
                    "time": 197.24331299999815,
                    "velocity": 0.3228346456692913,
                    "duration": 0.08797649999999635
                },
                {
                    "name": "C#6",
                    "midi": 85,
                    "time": 197.33128949999815,
                    "velocity": 0.30708661417322836,
                    "duration": 0.08797649999999635
                },
                {
                    "name": "A5",
                    "midi": 81,
                    "time": 197.41926599999815,
                    "velocity": 0.3228346456692913,
                    "duration": 0.08797649999999635
                },
                {
                    "name": "C#6",
                    "midi": 85,
                    "time": 197.50724249999814,
                    "velocity": 0.30708661417322836,
                    "duration": 0.08797649999999635
                },
                {
                    "name": "A5",
                    "midi": 81,
                    "time": 197.59521899999814,
                    "velocity": 0.3228346456692913,
                    "duration": 0.08797649999999635
                },
                {
                    "name": "C#6",
                    "midi": 85,
                    "time": 197.68319549999813,
                    "velocity": 0.2992125984251969,
                    "duration": 0.08797649999999635
                },
                {
                    "name": "A5",
                    "midi": 81,
                    "time": 197.77117199999813,
                    "velocity": 0.28346456692913385,
                    "duration": 0.08797649999999635
                },
                {
                    "name": "C#6",
                    "midi": 85,
                    "time": 197.85914849999813,
                    "velocity": 0.2992125984251969,
                    "duration": 0.08797649999999635
                },
                {
                    "name": "E6",
                    "midi": 88,
                    "time": 197.94712499999812,
                    "velocity": 0.30708661417322836,
                    "duration": 0.08797649999999635
                },
                {
                    "name": "A6",
                    "midi": 93,
                    "time": 198.03510149999812,
                    "velocity": 0.33858267716535434,
                    "duration": 0.08797649999999635
                },
                {
                    "name": "C#7",
                    "midi": 97,
                    "time": 198.12307799999812,
                    "velocity": 0.3543307086614173,
                    "duration": 0.08797649999999635
                },
                {
                    "name": "E7",
                    "midi": 100,
                    "time": 198.2110544999981,
                    "velocity": 0.4015748031496063,
                    "duration": 0.08797649999999635
                },
                {
                    "name": "C#7",
                    "midi": 97,
                    "time": 198.2990309999981,
                    "velocity": 0.3858267716535433,
                    "duration": 0.08797649999999635
                },
                {
                    "name": "E6",
                    "midi": 88,
                    "time": 198.3870074999981,
                    "velocity": 0.3228346456692913,
                    "duration": 0.08797649999999635
                },
                {
                    "name": "A5",
                    "midi": 81,
                    "time": 198.4749839999981,
                    "velocity": 0.3228346456692913,
                    "duration": 0.08797649999999635
                },
                {
                    "name": "C#6",
                    "midi": 85,
                    "time": 198.5629604999981,
                    "velocity": 0.2992125984251969,
                    "duration": 0.08797649999999635
                },
                {
                    "name": "A5",
                    "midi": 81,
                    "time": 198.6509369999981,
                    "velocity": 0.3228346456692913,
                    "duration": 0.08797649999999635
                },
                {
                    "name": "C#6",
                    "midi": 85,
                    "time": 198.7389134999981,
                    "velocity": 0.30708661417322836,
                    "duration": 0.08797649999999635
                },
                {
                    "name": "A5",
                    "midi": 81,
                    "time": 198.8268899999981,
                    "velocity": 0.3228346456692913,
                    "duration": 0.08797649999999635
                },
                {
                    "name": "C#6",
                    "midi": 85,
                    "time": 198.91486649999808,
                    "velocity": 0.30708661417322836,
                    "duration": 0.08797649999999635
                },
                {
                    "name": "A5",
                    "midi": 81,
                    "time": 199.00284299999808,
                    "velocity": 0.3228346456692913,
                    "duration": 0.08797649999999635
                },
                {
                    "name": "C#6",
                    "midi": 85,
                    "time": 199.09081949999808,
                    "velocity": 0.2992125984251969,
                    "duration": 0.08797649999999635
                },
                {
                    "name": "A5",
                    "midi": 81,
                    "time": 199.17879599999807,
                    "velocity": 0.28346456692913385,
                    "duration": 0.08797649999999635
                },
                {
                    "name": "C#6",
                    "midi": 85,
                    "time": 199.26677249999807,
                    "velocity": 0.2992125984251969,
                    "duration": 0.08797649999999635
                },
                {
                    "name": "E6",
                    "midi": 88,
                    "time": 199.35474899999807,
                    "velocity": 0.31496062992125984,
                    "duration": 0.08797649999999635
                },
                {
                    "name": "A6",
                    "midi": 93,
                    "time": 199.44272549999806,
                    "velocity": 0.3464566929133858,
                    "duration": 0.08797649999999635
                },
                {
                    "name": "A6",
                    "midi": 93,
                    "time": 199.53070199999806,
                    "velocity": 0.3543307086614173,
                    "duration": 0.08797649999999635
                },
                {
                    "name": "C#7",
                    "midi": 97,
                    "time": 199.53070199999806,
                    "velocity": 0.3779527559055118,
                    "duration": 0.08797649999999635
                },
                {
                    "name": "D7",
                    "midi": 98,
                    "time": 199.61867849999805,
                    "velocity": 0.4094488188976378,
                    "duration": 0.08797649999999635
                },
                {
                    "name": "G#6",
                    "midi": 92,
                    "time": 199.70665499999805,
                    "velocity": 0.30708661417322836,
                    "duration": 0.08797649999999635
                },
                {
                    "name": "C#7",
                    "midi": 97,
                    "time": 199.70665499999805,
                    "velocity": 0.3858267716535433,
                    "duration": 0.08797649999999635
                },
                {
                    "name": "D7",
                    "midi": 98,
                    "time": 199.79463149999805,
                    "velocity": 0.3228346456692913,
                    "duration": 0.08797649999999635
                },
                {
                    "name": "G#6",
                    "midi": 92,
                    "time": 199.88260799999804,
                    "velocity": 0.3543307086614173,
                    "duration": 0.08797649999999635
                },
                {
                    "name": "C#7",
                    "midi": 97,
                    "time": 199.88260799999804,
                    "velocity": 0.36220472440944884,
                    "duration": 0.08797649999999635
                },
                {
                    "name": "D7",
                    "midi": 98,
                    "time": 199.97058449999804,
                    "velocity": 0.31496062992125984,
                    "duration": 0.08797649999999635
                },
                {
                    "name": "F#6",
                    "midi": 90,
                    "time": 200.05856099999804,
                    "velocity": 0.30708661417322836,
                    "duration": 0.08797649999999635
                },
                {
                    "name": "C#7",
                    "midi": 97,
                    "time": 200.05856099999804,
                    "velocity": 0.31496062992125984,
                    "duration": 0.08797649999999635
                },
                {
                    "name": "D7",
                    "midi": 98,
                    "time": 200.14653749999803,
                    "velocity": 0.31496062992125984,
                    "duration": 0.08797649999999635
                },
                {
                    "name": "F#6",
                    "midi": 90,
                    "time": 200.23451399999803,
                    "velocity": 0.3464566929133858,
                    "duration": 0.08797649999999635
                },
                {
                    "name": "C#7",
                    "midi": 97,
                    "time": 200.23451399999803,
                    "velocity": 0.3543307086614173,
                    "duration": 0.08797649999999635
                },
                {
                    "name": "D7",
                    "midi": 98,
                    "time": 200.32249049999803,
                    "velocity": 0.30708661417322836,
                    "duration": 0.08797649999999635
                },
                {
                    "name": "F6",
                    "midi": 89,
                    "time": 200.41046699999802,
                    "velocity": 0.30708661417322836,
                    "duration": 0.08797649999999635
                },
                {
                    "name": "C#7",
                    "midi": 97,
                    "time": 200.41046699999802,
                    "velocity": 0.30708661417322836,
                    "duration": 0.08797649999999635
                },
                {
                    "name": "D7",
                    "midi": 98,
                    "time": 200.49844349999802,
                    "velocity": 0.30708661417322836,
                    "duration": 0.08797649999999635
                },
                {
                    "name": "G#6",
                    "midi": 92,
                    "time": 200.58641999999801,
                    "velocity": 0.3464566929133858,
                    "duration": 0.08797649999999635
                },
                {
                    "name": "C#7",
                    "midi": 97,
                    "time": 200.58641999999801,
                    "velocity": 0.3543307086614173,
                    "duration": 0.08797649999999635
                },
                {
                    "name": "D7",
                    "midi": 98,
                    "time": 200.674396499998,
                    "velocity": 0.30708661417322836,
                    "duration": 0.08797649999999635
                },
                {
                    "name": "F#6",
                    "midi": 90,
                    "time": 200.762372999998,
                    "velocity": 0.30708661417322836,
                    "duration": 0.08797649999999635
                },
                {
                    "name": "C#7",
                    "midi": 97,
                    "time": 200.762372999998,
                    "velocity": 0.30708661417322836,
                    "duration": 0.08797649999999635
                },
                {
                    "name": "D7",
                    "midi": 98,
                    "time": 200.850349499998,
                    "velocity": 0.30708661417322836,
                    "duration": 0.08797649999999635
                },
                {
                    "name": "F#6",
                    "midi": 90,
                    "time": 200.938325999998,
                    "velocity": 0.3464566929133858,
                    "duration": 0.08797649999999635
                },
                {
                    "name": "C#7",
                    "midi": 97,
                    "time": 200.938325999998,
                    "velocity": 0.33070866141732286,
                    "duration": 0.08797649999999635
                },
                {
                    "name": "D7",
                    "midi": 98,
                    "time": 201.026302499998,
                    "velocity": 0.2992125984251969,
                    "duration": 0.08797649999999635
                },
                {
                    "name": "F6",
                    "midi": 89,
                    "time": 201.114278999998,
                    "velocity": 0.31496062992125984,
                    "duration": 0.08797649999999635
                },
                {
                    "name": "C#7",
                    "midi": 97,
                    "time": 201.114278999998,
                    "velocity": 0.2992125984251969,
                    "duration": 0.08797649999999635
                },
                {
                    "name": "D7",
                    "midi": 98,
                    "time": 201.202255499998,
                    "velocity": 0.2992125984251969,
                    "duration": 0.08797649999999635
                },
                {
                    "name": "C#7",
                    "midi": 97,
                    "time": 201.29023199999799,
                    "velocity": 0.4094488188976378,
                    "duration": 0.08797649999999635
                },
                {
                    "name": "G#6",
                    "midi": 92,
                    "time": 201.37820849999798,
                    "velocity": 0.3858267716535433,
                    "duration": 0.08797649999999635
                },
                {
                    "name": "F#6",
                    "midi": 90,
                    "time": 201.46618499999798,
                    "velocity": 0.3779527559055118,
                    "duration": 0.08797649999999635
                },
                {
                    "name": "C#6",
                    "midi": 85,
                    "time": 201.55416149999797,
                    "velocity": 0.36220472440944884,
                    "duration": 0.08797649999999635
                },
                {
                    "name": "A5",
                    "midi": 81,
                    "time": 201.64213799999797,
                    "velocity": 0.3464566929133858,
                    "duration": 0.08797649999999635
                },
                {
                    "name": "F#5",
                    "midi": 78,
                    "time": 201.73011449999797,
                    "velocity": 0.3464566929133858,
                    "duration": 0.08797649999999635
                },
                {
                    "name": "C#5",
                    "midi": 73,
                    "time": 201.81809099999796,
                    "velocity": 0.33070866141732286,
                    "duration": 0.08797649999999635
                },
                {
                    "name": "A4",
                    "midi": 69,
                    "time": 201.90606749999796,
                    "velocity": 0.31496062992125984,
                    "duration": 0.08797649999999635
                },
                {
                    "name": "F#4",
                    "midi": 66,
                    "time": 201.99404399999796,
                    "velocity": 0.29133858267716534,
                    "duration": 0.08797649999999635
                },
                {
                    "name": "F#7",
                    "midi": 102,
                    "time": 202.34594999999794,
                    "velocity": 0.33858267716535434,
                    "duration": 0.08797649999999635
                },
                {
                    "name": "A6",
                    "midi": 93,
                    "time": 202.43392649999794,
                    "velocity": 0.3543307086614173,
                    "duration": 0.08797649999999635
                },
                {
                    "name": "E7",
                    "midi": 100,
                    "time": 202.52190299999793,
                    "velocity": 0.3464566929133858,
                    "duration": 0.08797649999999635
                },
                {
                    "name": "A6",
                    "midi": 93,
                    "time": 202.60987949999793,
                    "velocity": 0.3228346456692913,
                    "duration": 0.08797649999999635
                },
                {
                    "name": "E7",
                    "midi": 100,
                    "time": 202.69785599999793,
                    "velocity": 0.36220472440944884,
                    "duration": 0.08797649999999635
                },
                {
                    "name": "A6",
                    "midi": 93,
                    "time": 202.78583249999792,
                    "velocity": 0.31496062992125984,
                    "duration": 0.08797649999999635
                },
                {
                    "name": "D7",
                    "midi": 98,
                    "time": 202.87380899999792,
                    "velocity": 0.31496062992125984,
                    "duration": 0.08797649999999635
                },
                {
                    "name": "A6",
                    "midi": 93,
                    "time": 202.96178549999792,
                    "velocity": 0.31496062992125984,
                    "duration": 0.08797649999999635
                },
                {
                    "name": "D7",
                    "midi": 98,
                    "time": 203.0497619999979,
                    "velocity": 0.3543307086614173,
                    "duration": 0.08797649999999635
                },
                {
                    "name": "A6",
                    "midi": 93,
                    "time": 203.1377384999979,
                    "velocity": 0.30708661417322836,
                    "duration": 0.08797649999999635
                },
                {
                    "name": "C#7",
                    "midi": 97,
                    "time": 203.2257149999979,
                    "velocity": 0.30708661417322836,
                    "duration": 0.08797649999999635
                },
                {
                    "name": "A6",
                    "midi": 93,
                    "time": 203.3136914999979,
                    "velocity": 0.30708661417322836,
                    "duration": 0.08797649999999635
                },
                {
                    "name": "E7",
                    "midi": 100,
                    "time": 203.4016679999979,
                    "velocity": 0.3543307086614173,
                    "duration": 0.08797649999999635
                },
                {
                    "name": "A6",
                    "midi": 93,
                    "time": 203.4896444999979,
                    "velocity": 0.30708661417322836,
                    "duration": 0.08797649999999635
                },
                {
                    "name": "D7",
                    "midi": 98,
                    "time": 203.5776209999979,
                    "velocity": 0.30708661417322836,
                    "duration": 0.08797649999999635
                },
                {
                    "name": "A6",
                    "midi": 93,
                    "time": 203.6655974999979,
                    "velocity": 0.30708661417322836,
                    "duration": 0.08797649999999635
                },
                {
                    "name": "D7",
                    "midi": 98,
                    "time": 203.75357399999788,
                    "velocity": 0.33070866141732286,
                    "duration": 0.08797649999999635
                },
                {
                    "name": "A6",
                    "midi": 93,
                    "time": 203.84155049999788,
                    "velocity": 0.2992125984251969,
                    "duration": 0.08797649999999635
                },
                {
                    "name": "C#7",
                    "midi": 97,
                    "time": 203.92952699999788,
                    "velocity": 0.2992125984251969,
                    "duration": 0.08797649999999635
                },
                {
                    "name": "A6",
                    "midi": 93,
                    "time": 204.01750349999787,
                    "velocity": 0.2992125984251969,
                    "duration": 0.08797649999999635
                },
                {
                    "name": "E7",
                    "midi": 100,
                    "time": 204.10547999999787,
                    "velocity": 0.4094488188976378,
                    "duration": 0.08797649999999635
                },
                {
                    "name": "D7",
                    "midi": 98,
                    "time": 204.19345649999786,
                    "velocity": 0.3937007874015748,
                    "duration": 0.08797649999999635
                },
                {
                    "name": "A6",
                    "midi": 93,
                    "time": 204.28143299999786,
                    "velocity": 0.3779527559055118,
                    "duration": 0.08797649999999635
                },
                {
                    "name": "D6",
                    "midi": 86,
                    "time": 204.36940949999786,
                    "velocity": 0.3543307086614173,
                    "duration": 0.08797649999999635
                },
                {
                    "name": "A5",
                    "midi": 81,
                    "time": 204.45738599999785,
                    "velocity": 0.3464566929133858,
                    "duration": 0.08797649999999635
                },
                {
                    "name": "F#5",
                    "midi": 78,
                    "time": 204.54536249999785,
                    "velocity": 0.3464566929133858,
                    "duration": 0.08797649999999635
                },
                {
                    "name": "D5",
                    "midi": 74,
                    "time": 204.63333899999785,
                    "velocity": 0.33070866141732286,
                    "duration": 0.08797649999999635
                },
                {
                    "name": "A4",
                    "midi": 69,
                    "time": 204.72131549999784,
                    "velocity": 0.31496062992125984,
                    "duration": 0.08797649999999635
                },
                {
                    "name": "D4",
                    "midi": 62,
                    "time": 204.80929199999784,
                    "velocity": 0.29133858267716534,
                    "duration": 0.08797649999999635
                },
                {
                    "name": "D7",
                    "midi": 98,
                    "time": 205.16119799999782,
                    "velocity": 0.4015748031496063,
                    "duration": 0.08797649999999635
                },
                {
                    "name": "F#7",
                    "midi": 102,
                    "time": 205.24917449999782,
                    "velocity": 0.3543307086614173,
                    "duration": 0.08797649999999635
                },
                {
                    "name": "D7",
                    "midi": 98,
                    "time": 205.33715099999782,
                    "velocity": 0.4015748031496063,
                    "duration": 0.08797649999999635
                },
                {
                    "name": "F#6",
                    "midi": 90,
                    "time": 205.4251274999978,
                    "velocity": 0.3228346456692913,
                    "duration": 0.08797649999999635
                },
                {
                    "name": "B5",
                    "midi": 83,
                    "time": 205.5131039999978,
                    "velocity": 0.3858267716535433,
                    "duration": 0.08797649999999635
                },
                {
                    "name": "D6",
                    "midi": 86,
                    "time": 205.6010804999978,
                    "velocity": 0.33858267716535434,
                    "duration": 0.08797649999999635
                },
                {
                    "name": "B5",
                    "midi": 83,
                    "time": 205.6890569999978,
                    "velocity": 0.3228346456692913,
                    "duration": 0.08797649999999635
                },
                {
                    "name": "D6",
                    "midi": 86,
                    "time": 205.7770334999978,
                    "velocity": 0.30708661417322836,
                    "duration": 0.08797649999999635
                },
                {
                    "name": "B5",
                    "midi": 83,
                    "time": 205.8650099999978,
                    "velocity": 0.3228346456692913,
                    "duration": 0.08797649999999635
                },
                {
                    "name": "D6",
                    "midi": 86,
                    "time": 205.9529864999978,
                    "velocity": 0.30708661417322836,
                    "duration": 0.08797649999999635
                },
                {
                    "name": "B5",
                    "midi": 83,
                    "time": 206.0409629999978,
                    "velocity": 0.3228346456692913,
                    "duration": 0.08797649999999635
                },
                {
                    "name": "D6",
                    "midi": 86,
                    "time": 206.12893949999778,
                    "velocity": 0.2992125984251969,
                    "duration": 0.08797649999999635
                },
                {
                    "name": "B5",
                    "midi": 83,
                    "time": 206.21691599999778,
                    "velocity": 0.28346456692913385,
                    "duration": 0.08797649999999635
                },
                {
                    "name": "D6",
                    "midi": 86,
                    "time": 206.30489249999778,
                    "velocity": 0.2992125984251969,
                    "duration": 0.08797649999999635
                },
                {
                    "name": "F#6",
                    "midi": 90,
                    "time": 206.39286899999777,
                    "velocity": 0.3228346456692913,
                    "duration": 0.08797649999999635
                },
                {
                    "name": "B6",
                    "midi": 95,
                    "time": 206.48084549999777,
                    "velocity": 0.3464566929133858,
                    "duration": 0.08797649999999635
                },
                {
                    "name": "D7",
                    "midi": 98,
                    "time": 206.56882199999777,
                    "velocity": 0.3700787401574803,
                    "duration": 0.08797649999999635
                },
                {
                    "name": "F#7",
                    "midi": 102,
                    "time": 206.65679849999776,
                    "velocity": 0.3937007874015748,
                    "duration": 0.08797649999999635
                },
                {
                    "name": "D7",
                    "midi": 98,
                    "time": 206.74477499999776,
                    "velocity": 0.3858267716535433,
                    "duration": 0.08797649999999635
                },
                {
                    "name": "F#6",
                    "midi": 90,
                    "time": 206.83275149999776,
                    "velocity": 0.3543307086614173,
                    "duration": 0.08797649999999635
                },
                {
                    "name": "B5",
                    "midi": 83,
                    "time": 206.92072799999775,
                    "velocity": 0.3228346456692913,
                    "duration": 0.08797649999999635
                },
                {
                    "name": "D6",
                    "midi": 86,
                    "time": 207.00870449999775,
                    "velocity": 0.2992125984251969,
                    "duration": 0.08797649999999635
                },
                {
                    "name": "B5",
                    "midi": 83,
                    "time": 207.09668099999774,
                    "velocity": 0.3228346456692913,
                    "duration": 0.08797649999999635
                },
                {
                    "name": "D6",
                    "midi": 86,
                    "time": 207.18465749999774,
                    "velocity": 0.30708661417322836,
                    "duration": 0.08797649999999635
                },
                {
                    "name": "B5",
                    "midi": 83,
                    "time": 207.27263399999774,
                    "velocity": 0.3228346456692913,
                    "duration": 0.08797649999999635
                },
                {
                    "name": "D6",
                    "midi": 86,
                    "time": 207.36061049999773,
                    "velocity": 0.30708661417322836,
                    "duration": 0.08797649999999635
                },
                {
                    "name": "B5",
                    "midi": 83,
                    "time": 207.44858699999773,
                    "velocity": 0.3228346456692913,
                    "duration": 0.08797649999999635
                },
                {
                    "name": "D6",
                    "midi": 86,
                    "time": 207.53656349999773,
                    "velocity": 0.2992125984251969,
                    "duration": 0.08797649999999635
                },
                {
                    "name": "B5",
                    "midi": 83,
                    "time": 207.62453999999772,
                    "velocity": 0.28346456692913385,
                    "duration": 0.08797649999999635
                },
                {
                    "name": "D7",
                    "midi": 98,
                    "time": 207.9764459999977,
                    "velocity": 0.3700787401574803,
                    "duration": 0.08797649999999635
                },
                {
                    "name": "F7",
                    "midi": 101,
                    "time": 208.0644224999977,
                    "velocity": 0.3937007874015748,
                    "duration": 0.08797649999999635
                },
                {
                    "name": "D7",
                    "midi": 98,
                    "time": 208.1523989999977,
                    "velocity": 0.3858267716535433,
                    "duration": 0.08797649999999635
                },
                {
                    "name": "F6",
                    "midi": 89,
                    "time": 208.2403754999977,
                    "velocity": 0.3543307086614173,
                    "duration": 0.08797649999999635
                },
                {
                    "name": "A#5",
                    "midi": 82,
                    "time": 208.3283519999977,
                    "velocity": 0.3228346456692913,
                    "duration": 0.08797649999999635
                },
                {
                    "name": "D6",
                    "midi": 86,
                    "time": 208.4163284999977,
                    "velocity": 0.2992125984251969,
                    "duration": 0.08797649999999635
                },
                {
                    "name": "A#5",
                    "midi": 82,
                    "time": 208.5043049999977,
                    "velocity": 0.3228346456692913,
                    "duration": 0.08797649999999635
                },
                {
                    "name": "D6",
                    "midi": 86,
                    "time": 208.59228149999768,
                    "velocity": 0.30708661417322836,
                    "duration": 0.08797649999999635
                },
                {
                    "name": "A#5",
                    "midi": 82,
                    "time": 208.68025799999768,
                    "velocity": 0.3228346456692913,
                    "duration": 0.08797649999999635
                },
                {
                    "name": "D6",
                    "midi": 86,
                    "time": 208.76823449999767,
                    "velocity": 0.30708661417322836,
                    "duration": 0.08797649999999635
                },
                {
                    "name": "A#5",
                    "midi": 82,
                    "time": 208.85621099999767,
                    "velocity": 0.3228346456692913,
                    "duration": 0.08797649999999635
                },
                {
                    "name": "D6",
                    "midi": 86,
                    "time": 208.94418749999767,
                    "velocity": 0.2992125984251969,
                    "duration": 0.08797649999999635
                },
                {
                    "name": "A#5",
                    "midi": 82,
                    "time": 209.03216399999766,
                    "velocity": 0.30708661417322836,
                    "duration": 0.08797649999999635
                },
                {
                    "name": "D6",
                    "midi": 86,
                    "time": 209.12014049999766,
                    "velocity": 0.33070866141732286,
                    "duration": 0.08797649999999635
                },
                {
                    "name": "F6",
                    "midi": 89,
                    "time": 209.20811699999766,
                    "velocity": 0.3543307086614173,
                    "duration": 0.08797649999999635
                },
                {
                    "name": "A#6",
                    "midi": 94,
                    "time": 209.29609349999765,
                    "velocity": 0.36220472440944884,
                    "duration": 0.08797649999999635
                },
                {
                    "name": "D7",
                    "midi": 98,
                    "time": 209.38406999999765,
                    "velocity": 0.3700787401574803,
                    "duration": 0.08797649999999635
                },
                {
                    "name": "F7",
                    "midi": 101,
                    "time": 209.47204649999765,
                    "velocity": 0.3937007874015748,
                    "duration": 0.08797649999999635
                },
                {
                    "name": "D7",
                    "midi": 98,
                    "time": 209.56002299999764,
                    "velocity": 0.3858267716535433,
                    "duration": 0.08797649999999635
                },
                {
                    "name": "F6",
                    "midi": 89,
                    "time": 209.64799949999764,
                    "velocity": 0.3543307086614173,
                    "duration": 0.08797649999999635
                },
                {
                    "name": "A#5",
                    "midi": 82,
                    "time": 209.73597599999763,
                    "velocity": 0.3228346456692913,
                    "duration": 0.08797649999999635
                },
                {
                    "name": "D6",
                    "midi": 86,
                    "time": 209.82395249999763,
                    "velocity": 0.2992125984251969,
                    "duration": 0.08797649999999635
                },
                {
                    "name": "A#5",
                    "midi": 82,
                    "time": 209.91192899999763,
                    "velocity": 0.3228346456692913,
                    "duration": 0.08797649999999635
                },
                {
                    "name": "D6",
                    "midi": 86,
                    "time": 209.99990549999762,
                    "velocity": 0.30708661417322836,
                    "duration": 0.08797649999999635
                },
                {
                    "name": "A#5",
                    "midi": 82,
                    "time": 210.08788199999762,
                    "velocity": 0.3228346456692913,
                    "duration": 0.08797649999999635
                },
                {
                    "name": "D6",
                    "midi": 86,
                    "time": 210.17585849999762,
                    "velocity": 0.30708661417322836,
                    "duration": 0.08797649999999635
                },
                {
                    "name": "A#5",
                    "midi": 82,
                    "time": 210.2638349999976,
                    "velocity": 0.3228346456692913,
                    "duration": 0.08797649999999635
                },
                {
                    "name": "D6",
                    "midi": 86,
                    "time": 210.3518114999976,
                    "velocity": 0.2992125984251969,
                    "duration": 0.08797649999999635
                },
                {
                    "name": "A#5",
                    "midi": 82,
                    "time": 210.4397879999976,
                    "velocity": 0.28346456692913385,
                    "duration": 0.08797649999999635
                },
                {
                    "name": "A#5",
                    "midi": 82,
                    "time": 210.7916939999976,
                    "velocity": 0.28346456692913385,
                    "duration": 0.06598237500000437
                },
                {
                    "name": "A#5",
                    "midi": 82,
                    "time": 210.8796704999976,
                    "velocity": 0.2755905511811024,
                    "duration": 0.06598237500000437
                },
                {
                    "name": "A#6",
                    "midi": 94,
                    "time": 210.96764699999758,
                    "velocity": 0.3228346456692913,
                    "duration": 0.06598237500000437
                },
                {
                    "name": "A#5",
                    "midi": 82,
                    "time": 211.05562349999758,
                    "velocity": 0.2755905511811024,
                    "duration": 0.06598237500000437
                },
                {
                    "name": "A5",
                    "midi": 81,
                    "time": 211.14359999999758,
                    "velocity": 0.28346456692913385,
                    "duration": 0.06598237500000437
                },
                {
                    "name": "A5",
                    "midi": 81,
                    "time": 211.23157649999757,
                    "velocity": 0.2677165354330709,
                    "duration": 0.06598237500000437
                },
                {
                    "name": "A6",
                    "midi": 93,
                    "time": 211.31955299999757,
                    "velocity": 0.3228346456692913,
                    "duration": 0.06598237500000437
                },
                {
                    "name": "A5",
                    "midi": 81,
                    "time": 211.40752949999757,
                    "velocity": 0.25984251968503935,
                    "duration": 0.06598237500000437
                },
                {
                    "name": "F#5",
                    "midi": 78,
                    "time": 211.49550599999756,
                    "velocity": 0.28346456692913385,
                    "duration": 0.06598237500000437
                },
                {
                    "name": "F#5",
                    "midi": 78,
                    "time": 211.58348249999756,
                    "velocity": 0.2677165354330709,
                    "duration": 0.06598237500000437
                },
                {
                    "name": "F#6",
                    "midi": 90,
                    "time": 211.67145899999755,
                    "velocity": 0.33070866141732286,
                    "duration": 0.06598237500000437
                },
                {
                    "name": "F#5",
                    "midi": 78,
                    "time": 211.75943549999755,
                    "velocity": 0.2677165354330709,
                    "duration": 0.06598237500000437
                },
                {
                    "name": "F5",
                    "midi": 77,
                    "time": 211.84741199999755,
                    "velocity": 0.28346456692913385,
                    "duration": 0.06598237500000437
                },
                {
                    "name": "F5",
                    "midi": 77,
                    "time": 211.93538849999754,
                    "velocity": 0.25196850393700787,
                    "duration": 0.06598237500000437
                },
                {
                    "name": "F6",
                    "midi": 89,
                    "time": 212.02336499999754,
                    "velocity": 0.3228346456692913,
                    "duration": 0.06598237500000437
                },
                {
                    "name": "F5",
                    "midi": 77,
                    "time": 212.11134149999754,
                    "velocity": 0.28346456692913385,
                    "duration": 0.06598237500000437
                },
                {
                    "name": "D#5",
                    "midi": 75,
                    "time": 212.19931799999753,
                    "velocity": 0.28346456692913385,
                    "duration": 0.06598237500000437
                },
                {
                    "name": "D#5",
                    "midi": 75,
                    "time": 212.28729449999753,
                    "velocity": 0.2677165354330709,
                    "duration": 0.06598237500000437
                },
                {
                    "name": "D#6",
                    "midi": 87,
                    "time": 212.37527099999753,
                    "velocity": 0.30708661417322836,
                    "duration": 0.06598237500000437
                },
                {
                    "name": "D#5",
                    "midi": 75,
                    "time": 212.46324749999752,
                    "velocity": 0.28346456692913385,
                    "duration": 0.06598237500000437
                },
                {
                    "name": "D5",
                    "midi": 74,
                    "time": 212.55122399999752,
                    "velocity": 0.28346456692913385,
                    "duration": 0.06598237500000437
                },
                {
                    "name": "D5",
                    "midi": 74,
                    "time": 212.63920049999751,
                    "velocity": 0.25196850393700787,
                    "duration": 0.06598237500000437
                },
                {
                    "name": "D6",
                    "midi": 86,
                    "time": 212.7271769999975,
                    "velocity": 0.33070866141732286,
                    "duration": 0.06598237500000437
                },
                {
                    "name": "D5",
                    "midi": 74,
                    "time": 212.8151534999975,
                    "velocity": 0.2755905511811024,
                    "duration": 0.06598237500000437
                },
                {
                    "name": "D6",
                    "midi": 86,
                    "time": 212.9031299999975,
                    "velocity": 0.33858267716535434,
                    "duration": 0.11730199999999513
                },
                {
                    "name": "D#5",
                    "midi": 75,
                    "time": 213.0204319999975,
                    "velocity": 0.29133858267716534,
                    "duration": 0.11730199999999513
                },
                {
                    "name": "D#6",
                    "midi": 87,
                    "time": 213.1377339999975,
                    "velocity": 0.3228346456692913,
                    "duration": 0.11730199999999513
                },
                {
                    "name": "F5",
                    "midi": 77,
                    "time": 213.2550359999975,
                    "velocity": 0.3228346456692913,
                    "duration": 0.08797649999999635
                },
                {
                    "name": "F5",
                    "midi": 77,
                    "time": 213.34301249999749,
                    "velocity": 0.28346456692913385,
                    "duration": 0.08797649999999635
                },
                {
                    "name": "F6",
                    "midi": 89,
                    "time": 213.43098899999748,
                    "velocity": 0.3543307086614173,
                    "duration": 0.08797649999999635
                },
                {
                    "name": "F5",
                    "midi": 77,
                    "time": 213.51896549999748,
                    "velocity": 0.28346456692913385,
                    "duration": 0.08797649999999635
                },
                {
                    "name": "F6",
                    "midi": 89,
                    "time": 213.60694199999747,
                    "velocity": 0.3464566929133858,
                    "duration": 0.11730199999999513
                },
                {
                    "name": "A#5",
                    "midi": 82,
                    "time": 213.72424399999747,
                    "velocity": 0.28346456692913385,
                    "duration": 0.11730199999999513
                },
                {
                    "name": "A#6",
                    "midi": 94,
                    "time": 213.84154599999746,
                    "velocity": 0.3464566929133858,
                    "duration": 0.11730199999999513
                },
                {
                    "name": "F6",
                    "midi": 89,
                    "time": 213.95884799999746,
                    "velocity": 0.28346456692913385,
                    "duration": 0.11730199999999513
                },
                {
                    "name": "F5",
                    "midi": 77,
                    "time": 214.07614999999745,
                    "velocity": 0.25196850393700787,
                    "duration": 0.11730199999999513
                },
                {
                    "name": "A#5",
                    "midi": 82,
                    "time": 214.19345199999745,
                    "velocity": 0.25196850393700787,
                    "duration": 0.11730199999999513
                },
                {
                    "name": "F6",
                    "midi": 89,
                    "time": 214.31075399999744,
                    "velocity": 0.28346456692913385,
                    "duration": 0.11730199999999513
                },
                {
                    "name": "A#5",
                    "midi": 82,
                    "time": 214.42805599999744,
                    "velocity": 0.28346456692913385,
                    "duration": 0.11730199999999513
                },
                {
                    "name": "A#6",
                    "midi": 94,
                    "time": 214.54535799999744,
                    "velocity": 0.30708661417322836,
                    "duration": 0.11730199999999513
                },
                {
                    "name": "F6",
                    "midi": 89,
                    "time": 214.66265999999743,
                    "velocity": 0.28346456692913385,
                    "duration": 0.11730199999999513
                },
                {
                    "name": "F5",
                    "midi": 77,
                    "time": 214.77996199999743,
                    "velocity": 0.25984251968503935,
                    "duration": 0.11730199999999513
                },
                {
                    "name": "A#5",
                    "midi": 82,
                    "time": 214.89726399999742,
                    "velocity": 0.28346456692913385,
                    "duration": 0.11730199999999513
                },
                {
                    "name": "F6",
                    "midi": 89,
                    "time": 215.01456599999742,
                    "velocity": 0.2992125984251969,
                    "duration": 0.11730199999999513
                },
                {
                    "name": "A#5",
                    "midi": 82,
                    "time": 215.1318679999974,
                    "velocity": 0.28346456692913385,
                    "duration": 0.11730199999999513
                },
                {
                    "name": "A#6",
                    "midi": 94,
                    "time": 215.2491699999974,
                    "velocity": 0.31496062992125984,
                    "duration": 0.11730199999999513
                },
                {
                    "name": "F6",
                    "midi": 89,
                    "time": 215.3664719999974,
                    "velocity": 0.31496062992125984,
                    "duration": 0.11730199999999513
                },
                {
                    "name": "A#5",
                    "midi": 82,
                    "time": 215.4837739999974,
                    "velocity": 0.28346456692913385,
                    "duration": 0.11730199999999513
                },
                {
                    "name": "A#6",
                    "midi": 94,
                    "time": 215.6010759999974,
                    "velocity": 0.28346456692913385,
                    "duration": 0.11730199999999513
                },
                {
                    "name": "F6",
                    "midi": 89,
                    "time": 215.7183779999974,
                    "velocity": 0.30708661417322836,
                    "duration": 0.11730199999999513
                },
                {
                    "name": "A#5",
                    "midi": 82,
                    "time": 215.83567999999738,
                    "velocity": 0.28346456692913385,
                    "duration": 0.11730199999999513
                },
                {
                    "name": "A#6",
                    "midi": 94,
                    "time": 215.95298199999738,
                    "velocity": 0.28346456692913385,
                    "duration": 0.11730199999999513
                },
                {
                    "name": "F6",
                    "midi": 89,
                    "time": 216.07028399999737,
                    "velocity": 0.30708661417322836,
                    "duration": 0.11730199999999513
                },
                {
                    "name": "A#5",
                    "midi": 82,
                    "time": 216.18758599999737,
                    "velocity": 0.28346456692913385,
                    "duration": 0.11730199999999513
                },
                {
                    "name": "A#6",
                    "midi": 94,
                    "time": 216.30488799999736,
                    "velocity": 0.28346456692913385,
                    "duration": 0.11730199999999513
                },
                {
                    "name": "F6",
                    "midi": 89,
                    "time": 216.42218999999736,
                    "velocity": 0.30708661417322836,
                    "duration": 0.11730199999999513
                },
                {
                    "name": "A#5",
                    "midi": 82,
                    "time": 216.53949199999735,
                    "velocity": 0.29133858267716534,
                    "duration": 0.11730199999999513
                },
                {
                    "name": "A#6",
                    "midi": 94,
                    "time": 216.65679399999735,
                    "velocity": 0.29133858267716534,
                    "duration": 0.11730199999999513
                },
                {
                    "name": "F6",
                    "midi": 89,
                    "time": 216.77409599999734,
                    "velocity": 0.33070866141732286,
                    "duration": 0.08797649999999635
                },
                {
                    "name": "D6",
                    "midi": 86,
                    "time": 217.12600199999733,
                    "velocity": 0.2992125984251969,
                    "duration": 0.08797649999999635
                },
                {
                    "name": "A#5",
                    "midi": 82,
                    "time": 217.12600199999733,
                    "velocity": 0.25196850393700787,
                    "duration": 0.08797649999999635
                },
                {
                    "name": "D#6",
                    "midi": 87,
                    "time": 217.21397849999732,
                    "velocity": 0.2992125984251969,
                    "duration": 0.08797649999999635
                },
                {
                    "name": "B5",
                    "midi": 83,
                    "time": 217.21397849999732,
                    "velocity": 0.25196850393700787,
                    "duration": 0.08797649999999635
                },
                {
                    "name": "E6",
                    "midi": 88,
                    "time": 217.30195499999732,
                    "velocity": 0.30708661417322836,
                    "duration": 0.08797649999999635
                },
                {
                    "name": "C6",
                    "midi": 84,
                    "time": 217.30195499999732,
                    "velocity": 0.25984251968503935,
                    "duration": 0.08797649999999635
                },
                {
                    "name": "F6",
                    "midi": 89,
                    "time": 217.38993149999732,
                    "velocity": 0.31496062992125984,
                    "duration": 0.08797649999999635
                },
                {
                    "name": "C#6",
                    "midi": 85,
                    "time": 217.38993149999732,
                    "velocity": 0.2677165354330709,
                    "duration": 0.08797649999999635
                },
                {
                    "name": "F#6",
                    "midi": 90,
                    "time": 217.4779079999973,
                    "velocity": 0.3228346456692913,
                    "duration": 0.08797649999999635
                },
                {
                    "name": "D6",
                    "midi": 86,
                    "time": 217.4779079999973,
                    "velocity": 0.2755905511811024,
                    "duration": 0.08797649999999635
                },
                {
                    "name": "G6",
                    "midi": 91,
                    "time": 217.5658844999973,
                    "velocity": 0.33070866141732286,
                    "duration": 0.08797649999999635
                },
                {
                    "name": "D#6",
                    "midi": 87,
                    "time": 217.5658844999973,
                    "velocity": 0.28346456692913385,
                    "duration": 0.08797649999999635
                },
                {
                    "name": "G#6",
                    "midi": 92,
                    "time": 217.6538609999973,
                    "velocity": 0.33858267716535434,
                    "duration": 0.08797649999999635
                },
                {
                    "name": "E6",
                    "midi": 88,
                    "time": 217.6538609999973,
                    "velocity": 0.29133858267716534,
                    "duration": 0.08797649999999635
                },
                {
                    "name": "F6",
                    "midi": 89,
                    "time": 217.7418374999973,
                    "velocity": 0.3464566929133858,
                    "duration": 0.08797649999999635
                },
                {
                    "name": "A6",
                    "midi": 93,
                    "time": 217.7418374999973,
                    "velocity": 0.3464566929133858,
                    "duration": 0.08797649999999635
                },
                {
                    "name": "A#6",
                    "midi": 94,
                    "time": 217.8298139999973,
                    "velocity": 0.3543307086614173,
                    "duration": 0.08797649999999635
                },
                {
                    "name": "F#6",
                    "midi": 90,
                    "time": 217.8298139999973,
                    "velocity": 0.2992125984251969,
                    "duration": 0.08797649999999635
                },
                {
                    "name": "B6",
                    "midi": 95,
                    "time": 217.9177904999973,
                    "velocity": 0.36220472440944884,
                    "duration": 0.08797649999999635
                },
                {
                    "name": "G6",
                    "midi": 91,
                    "time": 217.9177904999973,
                    "velocity": 0.2992125984251969,
                    "duration": 0.08797649999999635
                },
                {
                    "name": "C7",
                    "midi": 96,
                    "time": 218.0057669999973,
                    "velocity": 0.3700787401574803,
                    "duration": 0.08797649999999635
                },
                {
                    "name": "G#6",
                    "midi": 92,
                    "time": 218.0057669999973,
                    "velocity": 0.30708661417322836,
                    "duration": 0.08797649999999635
                },
                {
                    "name": "C#7",
                    "midi": 97,
                    "time": 218.0937434999973,
                    "velocity": 0.3779527559055118,
                    "duration": 0.08797649999999635
                },
                {
                    "name": "A6",
                    "midi": 93,
                    "time": 218.0937434999973,
                    "velocity": 0.31496062992125984,
                    "duration": 0.08797649999999635
                },
                {
                    "name": "D7",
                    "midi": 98,
                    "time": 218.18171999999728,
                    "velocity": 0.3858267716535433,
                    "duration": 0.08797649999999635
                },
                {
                    "name": "A#6",
                    "midi": 94,
                    "time": 218.18171999999728,
                    "velocity": 0.3228346456692913,
                    "duration": 0.08797649999999635
                },
                {
                    "name": "C#7",
                    "midi": 97,
                    "time": 218.26969649999728,
                    "velocity": 0.3858267716535433,
                    "duration": 0.08797649999999635
                },
                {
                    "name": "A6",
                    "midi": 93,
                    "time": 218.26969649999728,
                    "velocity": 0.3228346456692913,
                    "duration": 0.08797649999999635
                },
                {
                    "name": "C7",
                    "midi": 96,
                    "time": 218.35767299999728,
                    "velocity": 0.3779527559055118,
                    "duration": 0.08797649999999635
                },
                {
                    "name": "G#6",
                    "midi": 92,
                    "time": 218.35767299999728,
                    "velocity": 0.31496062992125984,
                    "duration": 0.08797649999999635
                },
                {
                    "name": "B6",
                    "midi": 95,
                    "time": 218.44564949999727,
                    "velocity": 0.3700787401574803,
                    "duration": 0.08797649999999635
                },
                {
                    "name": "G6",
                    "midi": 91,
                    "time": 218.44564949999727,
                    "velocity": 0.30708661417322836,
                    "duration": 0.08797649999999635
                },
                {
                    "name": "A#6",
                    "midi": 94,
                    "time": 218.53362599999727,
                    "velocity": 0.36220472440944884,
                    "duration": 0.08797649999999635
                },
                {
                    "name": "F#6",
                    "midi": 90,
                    "time": 218.53362599999727,
                    "velocity": 0.2992125984251969,
                    "duration": 0.08797649999999635
                },
                {
                    "name": "A6",
                    "midi": 93,
                    "time": 218.62160249999727,
                    "velocity": 0.36220472440944884,
                    "duration": 0.08797649999999635
                },
                {
                    "name": "F6",
                    "midi": 89,
                    "time": 218.62160249999727,
                    "velocity": 0.2992125984251969,
                    "duration": 0.08797649999999635
                },
                {
                    "name": "G#6",
                    "midi": 92,
                    "time": 218.70957899999726,
                    "velocity": 0.3543307086614173,
                    "duration": 0.08797649999999635
                },
                {
                    "name": "E6",
                    "midi": 88,
                    "time": 218.70957899999726,
                    "velocity": 0.2992125984251969,
                    "duration": 0.08797649999999635
                },
                {
                    "name": "G6",
                    "midi": 91,
                    "time": 218.79755549999726,
                    "velocity": 0.3464566929133858,
                    "duration": 0.08797649999999635
                },
                {
                    "name": "D#6",
                    "midi": 87,
                    "time": 218.79755549999726,
                    "velocity": 0.29133858267716534,
                    "duration": 0.08797649999999635
                },
                {
                    "name": "F#6",
                    "midi": 90,
                    "time": 218.88553199999726,
                    "velocity": 0.33858267716535434,
                    "duration": 0.08797649999999635
                },
                {
                    "name": "D6",
                    "midi": 86,
                    "time": 218.88553199999726,
                    "velocity": 0.29133858267716534,
                    "duration": 0.08797649999999635
                },
                {
                    "name": "F6",
                    "midi": 89,
                    "time": 218.97350849999725,
                    "velocity": 0.33858267716535434,
                    "duration": 0.08797649999999635
                },
                {
                    "name": "C#6",
                    "midi": 85,
                    "time": 218.97350849999725,
                    "velocity": 0.29133858267716534,
                    "duration": 0.08797649999999635
                },
                {
                    "name": "E6",
                    "midi": 88,
                    "time": 219.06148499999725,
                    "velocity": 0.33070866141732286,
                    "duration": 0.08797649999999635
                },
                {
                    "name": "C6",
                    "midi": 84,
                    "time": 219.06148499999725,
                    "velocity": 0.28346456692913385,
                    "duration": 0.08797649999999635
                },
                {
                    "name": "D#6",
                    "midi": 87,
                    "time": 219.14946149999724,
                    "velocity": 0.3228346456692913,
                    "duration": 0.08797649999999635
                },
                {
                    "name": "B5",
                    "midi": 83,
                    "time": 219.14946149999724,
                    "velocity": 0.2755905511811024,
                    "duration": 0.08797649999999635
                },
                {
                    "name": "D6",
                    "midi": 86,
                    "time": 219.23743799999724,
                    "velocity": 0.31496062992125984,
                    "duration": 0.08797649999999635
                },
                {
                    "name": "A#5",
                    "midi": 82,
                    "time": 219.23743799999724,
                    "velocity": 0.2677165354330709,
                    "duration": 0.08797649999999635
                },
                {
                    "name": "C#6",
                    "midi": 85,
                    "time": 219.32541449999724,
                    "velocity": 0.31496062992125984,
                    "duration": 0.08797649999999635
                },
                {
                    "name": "A5",
                    "midi": 81,
                    "time": 219.32541449999724,
                    "velocity": 0.2677165354330709,
                    "duration": 0.08797649999999635
                },
                {
                    "name": "C6",
                    "midi": 84,
                    "time": 219.41339099999723,
                    "velocity": 0.3228346456692913,
                    "duration": 0.08797649999999635
                },
                {
                    "name": "G#5",
                    "midi": 80,
                    "time": 219.41339099999723,
                    "velocity": 0.2755905511811024,
                    "duration": 0.08797649999999635
                },
                {
                    "name": "B5",
                    "midi": 83,
                    "time": 219.50136749999723,
                    "velocity": 0.3228346456692913,
                    "duration": 0.08797649999999635
                },
                {
                    "name": "G5",
                    "midi": 79,
                    "time": 219.50136749999723,
                    "velocity": 0.2755905511811024,
                    "duration": 0.08797649999999635
                },
                {
                    "name": "A#5",
                    "midi": 82,
                    "time": 219.58934399999723,
                    "velocity": 0.33070866141732286,
                    "duration": 0.08797649999999635
                },
                {
                    "name": "F#5",
                    "midi": 78,
                    "time": 219.58934399999723,
                    "velocity": 0.28346456692913385,
                    "duration": 0.08797649999999635
                },
                {
                    "name": "A5",
                    "midi": 81,
                    "time": 219.67732049999722,
                    "velocity": 0.33070866141732286,
                    "duration": 0.08797649999999635
                },
                {
                    "name": "F5",
                    "midi": 77,
                    "time": 219.67732049999722,
                    "velocity": 0.28346456692913385,
                    "duration": 0.08797649999999635
                },
                {
                    "name": "G#5",
                    "midi": 80,
                    "time": 219.76529699999722,
                    "velocity": 0.33858267716535434,
                    "duration": 0.08797649999999635
                },
                {
                    "name": "E5",
                    "midi": 76,
                    "time": 219.76529699999722,
                    "velocity": 0.29133858267716534,
                    "duration": 0.08797649999999635
                },
                {
                    "name": "G5",
                    "midi": 79,
                    "time": 219.85327349999721,
                    "velocity": 0.33858267716535434,
                    "duration": 0.08797649999999635
                },
                {
                    "name": "D#5",
                    "midi": 75,
                    "time": 219.85327349999721,
                    "velocity": 0.29133858267716534,
                    "duration": 0.08797649999999635
                },
                {
                    "name": "F#5",
                    "midi": 78,
                    "time": 219.9412499999972,
                    "velocity": 0.3464566929133858,
                    "duration": 0.08797649999999635
                },
                {
                    "name": "D5",
                    "midi": 74,
                    "time": 219.9412499999972,
                    "velocity": 0.29133858267716534,
                    "duration": 0.08797649999999635
                },
                {
                    "name": "F5",
                    "midi": 77,
                    "time": 220.0292264999972,
                    "velocity": 0.3464566929133858,
                    "duration": 0.08797649999999635
                },
                {
                    "name": "C#5",
                    "midi": 73,
                    "time": 220.0292264999972,
                    "velocity": 0.29133858267716534,
                    "duration": 0.08797649999999635
                },
                {
                    "name": "E5",
                    "midi": 76,
                    "time": 220.1172029999972,
                    "velocity": 0.3543307086614173,
                    "duration": 0.08797649999999635
                },
                {
                    "name": "C5",
                    "midi": 72,
                    "time": 220.1172029999972,
                    "velocity": 0.2992125984251969,
                    "duration": 0.08797649999999635
                },
                {
                    "name": "D#5",
                    "midi": 75,
                    "time": 220.2051794999972,
                    "velocity": 0.3543307086614173,
                    "duration": 0.08797649999999635
                },
                {
                    "name": "B4",
                    "midi": 71,
                    "time": 220.2051794999972,
                    "velocity": 0.2992125984251969,
                    "duration": 0.08797649999999635
                },
                {
                    "name": "D5",
                    "midi": 74,
                    "time": 220.2931559999972,
                    "velocity": 0.36220472440944884,
                    "duration": 0.08797649999999635
                },
                {
                    "name": "A#4",
                    "midi": 70,
                    "time": 220.2931559999972,
                    "velocity": 0.2992125984251969,
                    "duration": 0.08797649999999635
                },
                {
                    "name": "C#5",
                    "midi": 73,
                    "time": 220.3811324999972,
                    "velocity": 0.36220472440944884,
                    "duration": 0.08797649999999635
                },
                {
                    "name": "A4",
                    "midi": 69,
                    "time": 220.3811324999972,
                    "velocity": 0.2992125984251969,
                    "duration": 0.08797649999999635
                },
                {
                    "name": "C5",
                    "midi": 72,
                    "time": 220.4691089999972,
                    "velocity": 0.3700787401574803,
                    "duration": 0.08797649999999635
                },
                {
                    "name": "G#4",
                    "midi": 68,
                    "time": 220.4691089999972,
                    "velocity": 0.30708661417322836,
                    "duration": 0.08797649999999635
                },
                {
                    "name": "B4",
                    "midi": 71,
                    "time": 220.55708549999719,
                    "velocity": 0.3700787401574803,
                    "duration": 0.08797649999999635
                },
                {
                    "name": "G4",
                    "midi": 67,
                    "time": 220.55708549999719,
                    "velocity": 0.30708661417322836,
                    "duration": 0.08797649999999635
                },
                {
                    "name": "A#4",
                    "midi": 70,
                    "time": 220.64506199999718,
                    "velocity": 0.3779527559055118,
                    "duration": 0.08797649999999635
                },
                {
                    "name": "F#4",
                    "midi": 66,
                    "time": 220.64506199999718,
                    "velocity": 0.3779527559055118,
                    "duration": 0.08797649999999635
                },
                {
                    "name": "A4",
                    "midi": 69,
                    "time": 220.73303849999718,
                    "velocity": 0.3779527559055118,
                    "duration": 0.08797649999999635
                },
                {
                    "name": "F4",
                    "midi": 65,
                    "time": 220.73303849999718,
                    "velocity": 0.3779527559055118,
                    "duration": 0.08797649999999635
                },
                {
                    "name": "G#4",
                    "midi": 68,
                    "time": 220.82101499999717,
                    "velocity": 0.3858267716535433,
                    "duration": 0.08797649999999635
                },
                {
                    "name": "E4",
                    "midi": 64,
                    "time": 220.82101499999717,
                    "velocity": 0.3228346456692913,
                    "duration": 0.08797649999999635
                },
                {
                    "name": "G4",
                    "midi": 67,
                    "time": 220.90899149999717,
                    "velocity": 0.3858267716535433,
                    "duration": 0.08797649999999635
                },
                {
                    "name": "D#4",
                    "midi": 63,
                    "time": 220.90899149999717,
                    "velocity": 0.3228346456692913,
                    "duration": 0.08797649999999635
                },
                {
                    "name": "F#4",
                    "midi": 66,
                    "time": 220.99696799999717,
                    "velocity": 0.3937007874015748,
                    "duration": 0.08797649999999635
                },
                {
                    "name": "D4",
                    "midi": 62,
                    "time": 220.99696799999717,
                    "velocity": 0.33070866141732286,
                    "duration": 0.08797649999999635
                },
                {
                    "name": "F4",
                    "midi": 65,
                    "time": 221.08494449999716,
                    "velocity": 0.3937007874015748,
                    "duration": 0.08797649999999635
                },
                {
                    "name": "C#4",
                    "midi": 61,
                    "time": 221.08494449999716,
                    "velocity": 0.33070866141732286,
                    "duration": 0.08797649999999635
                },
                {
                    "name": "E4",
                    "midi": 64,
                    "time": 221.17292099999716,
                    "velocity": 0.4015748031496063,
                    "duration": 0.08797649999999635
                },
                {
                    "name": "C4",
                    "midi": 60,
                    "time": 221.17292099999716,
                    "velocity": 0.33070866141732286,
                    "duration": 0.08797649999999635
                },
                {
                    "name": "D#4",
                    "midi": 63,
                    "time": 221.26089749999716,
                    "velocity": 0.4015748031496063,
                    "duration": 0.08797649999999635
                },
                {
                    "name": "B3",
                    "midi": 59,
                    "time": 221.26089749999716,
                    "velocity": 0.33070866141732286,
                    "duration": 0.08797649999999635
                },
                {
                    "name": "F3",
                    "midi": 53,
                    "time": 223.81221599999716,
                    "velocity": 0.3464566929133858,
                    "duration": 0.11656886250000298
                },
                {
                    "name": "B2",
                    "midi": 47,
                    "time": 223.81221599999716,
                    "velocity": 0.28346456692913385,
                    "duration": 0.11656886250000298
                },
                {
                    "name": "D3",
                    "midi": 50,
                    "time": 223.81221599999716,
                    "velocity": 0.28346456692913385,
                    "duration": 0.11656886250000298
                },
                {
                    "name": "E3",
                    "midi": 52,
                    "time": 224.16412199999718,
                    "velocity": 0.28346456692913385,
                    "duration": 0.1759529999999927
                },
                {
                    "name": "B2",
                    "midi": 47,
                    "time": 224.16412199999718,
                    "velocity": 0.23622047244094488,
                    "duration": 0.3519059999999854
                },
                {
                    "name": "C#3",
                    "midi": 49,
                    "time": 224.16412199999718,
                    "velocity": 0.23622047244094488,
                    "duration": 0.1759529999999927
                },
                {
                    "name": "G3",
                    "midi": 55,
                    "time": 224.34007499999717,
                    "velocity": 0.28346456692913385,
                    "duration": 0.1759529999999927
                },
                {
                    "name": "F3",
                    "midi": 53,
                    "time": 224.51602799999716,
                    "velocity": 0.33070866141732286,
                    "duration": 0.11656886250000298
                },
                {
                    "name": "B2",
                    "midi": 47,
                    "time": 224.51602799999716,
                    "velocity": 0.2755905511811024,
                    "duration": 0.11656886250000298
                },
                {
                    "name": "D3",
                    "midi": 50,
                    "time": 224.51602799999716,
                    "velocity": 0.2755905511811024,
                    "duration": 0.11656886250000298
                },
                {
                    "name": "E3",
                    "midi": 52,
                    "time": 224.86793399999718,
                    "velocity": 0.31496062992125984,
                    "duration": 0.1759529999999927
                },
                {
                    "name": "B2",
                    "midi": 47,
                    "time": 224.86793399999718,
                    "velocity": 0.2677165354330709,
                    "duration": 0.3519059999999854
                },
                {
                    "name": "C#3",
                    "midi": 49,
                    "time": 224.86793399999718,
                    "velocity": 0.2677165354330709,
                    "duration": 0.1759529999999927
                },
                {
                    "name": "G3",
                    "midi": 55,
                    "time": 225.04388699999717,
                    "velocity": 0.28346456692913385,
                    "duration": 0.1759529999999927
                },
                {
                    "name": "F3",
                    "midi": 53,
                    "time": 225.21983999999716,
                    "velocity": 0.28346456692913385,
                    "duration": 0.11656886250000298
                },
                {
                    "name": "B2",
                    "midi": 47,
                    "time": 225.21983999999716,
                    "velocity": 0.23622047244094488,
                    "duration": 0.11656886250000298
                },
                {
                    "name": "D3",
                    "midi": 50,
                    "time": 225.21983999999716,
                    "velocity": 0.23622047244094488,
                    "duration": 0.11656886250000298
                },
                {
                    "name": "E3",
                    "midi": 52,
                    "time": 225.57174599999718,
                    "velocity": 0.2677165354330709,
                    "duration": 0.11656886250000298
                },
                {
                    "name": "B2",
                    "midi": 47,
                    "time": 225.57174599999718,
                    "velocity": 0.2204724409448819,
                    "duration": 0.11656886250000298
                },
                {
                    "name": "C#3",
                    "midi": 49,
                    "time": 225.57174599999718,
                    "velocity": 0.2204724409448819,
                    "duration": 0.11583572500001083
                },
                {
                    "name": "F3",
                    "midi": 53,
                    "time": 225.9236519999972,
                    "velocity": 0.28346456692913385,
                    "duration": 0.7038119999999992
                },
                {
                    "name": "B2",
                    "midi": 47,
                    "time": 225.9236519999972,
                    "velocity": 0.23622047244094488,
                    "duration": 0.7038119999999992
                },
                {
                    "name": "D3",
                    "midi": 50,
                    "time": 225.9236519999972,
                    "velocity": 0.23622047244094488,
                    "duration": 0.7038119999999992
                },
                {
                    "name": "F#3",
                    "midi": 54,
                    "time": 228.0350879999972,
                    "velocity": 0.3858267716535433,
                    "duration": 0.11583572500001083
                },
                {
                    "name": "C3",
                    "midi": 48,
                    "time": 228.0350879999972,
                    "velocity": 0.3228346456692913,
                    "duration": 0.11583572500001083
                },
                {
                    "name": "D#3",
                    "midi": 51,
                    "time": 228.0350879999972,
                    "velocity": 0.3228346456692913,
                    "duration": 0.11583572500001083
                },
                {
                    "name": "F3",
                    "midi": 53,
                    "time": 228.3869939999972,
                    "velocity": 0.31496062992125984,
                    "duration": 0.1759529999999927
                },
                {
                    "name": "D3",
                    "midi": 50,
                    "time": 228.3869939999972,
                    "velocity": 0.2677165354330709,
                    "duration": 0.3519059999999854
                },
                {
                    "name": "C3",
                    "midi": 48,
                    "time": 228.3869939999972,
                    "velocity": 0.2677165354330709,
                    "duration": 0.1759529999999927
                },
                {
                    "name": "G#3",
                    "midi": 56,
                    "time": 228.5629469999972,
                    "velocity": 0.31496062992125984,
                    "duration": 0.1759529999999927
                },
                {
                    "name": "F#3",
                    "midi": 54,
                    "time": 228.7388999999972,
                    "velocity": 0.3700787401574803,
                    "duration": 0.11583572500001083
                },
                {
                    "name": "C3",
                    "midi": 48,
                    "time": 228.7388999999972,
                    "velocity": 0.30708661417322836,
                    "duration": 0.11583572500001083
                },
                {
                    "name": "D#3",
                    "midi": 51,
                    "time": 228.7388999999972,
                    "velocity": 0.30708661417322836,
                    "duration": 0.11583572500001083
                },
                {
                    "name": "F3",
                    "midi": 53,
                    "time": 229.0908059999972,
                    "velocity": 0.3543307086614173,
                    "duration": 0.1759529999999927
                },
                {
                    "name": "D3",
                    "midi": 50,
                    "time": 229.0908059999972,
                    "velocity": 0.2992125984251969,
                    "duration": 0.3519059999999854
                },
                {
                    "name": "C3",
                    "midi": 48,
                    "time": 229.0908059999972,
                    "velocity": 0.2992125984251969,
                    "duration": 0.1759529999999927
                },
                {
                    "name": "G#3",
                    "midi": 56,
                    "time": 229.2667589999972,
                    "velocity": 0.31496062992125984,
                    "duration": 0.1759529999999927
                },
                {
                    "name": "F#3",
                    "midi": 54,
                    "time": 229.4427119999972,
                    "velocity": 0.31496062992125984,
                    "duration": 0.11583572500001083
                },
                {
                    "name": "C3",
                    "midi": 48,
                    "time": 229.4427119999972,
                    "velocity": 0.2677165354330709,
                    "duration": 0.11583572500001083
                },
                {
                    "name": "D#3",
                    "midi": 51,
                    "time": 229.4427119999972,
                    "velocity": 0.2677165354330709,
                    "duration": 0.11583572500001083
                },
                {
                    "name": "F3",
                    "midi": 53,
                    "time": 229.7946179999972,
                    "velocity": 0.2992125984251969,
                    "duration": 0.11583572500001083
                },
                {
                    "name": "D3",
                    "midi": 50,
                    "time": 229.7946179999972,
                    "velocity": 0.25196850393700787,
                    "duration": 0.11583572500001083
                },
                {
                    "name": "C3",
                    "midi": 48,
                    "time": 229.7946179999972,
                    "velocity": 0.25196850393700787,
                    "duration": 0.11583572500001083
                },
                {
                    "name": "F#3",
                    "midi": 54,
                    "time": 230.1465239999972,
                    "velocity": 0.31496062992125984,
                    "duration": 0.7038119999999992
                },
                {
                    "name": "C3",
                    "midi": 48,
                    "time": 230.1465239999972,
                    "velocity": 0.2677165354330709,
                    "duration": 0.7038119999999992
                },
                {
                    "name": "D#3",
                    "midi": 51,
                    "time": 230.1465239999972,
                    "velocity": 0.2677165354330709,
                    "duration": 0.7038119999999992
                },
                {
                    "name": "G3",
                    "midi": 55,
                    "time": 232.2579599999972,
                    "velocity": 0.4566929133858268,
                    "duration": 0.11583572500001083
                },
                {
                    "name": "C#3",
                    "midi": 49,
                    "time": 232.2579599999972,
                    "velocity": 0.3858267716535433,
                    "duration": 0.11583572500001083
                },
                {
                    "name": "E3",
                    "midi": 52,
                    "time": 232.2579599999972,
                    "velocity": 0.3858267716535433,
                    "duration": 0.11583572500001083
                },
                {
                    "name": "F#3",
                    "midi": 54,
                    "time": 232.60986599999723,
                    "velocity": 0.3779527559055118,
                    "duration": 0.1759529999999927
                },
                {
                    "name": "C#3",
                    "midi": 49,
                    "time": 232.60986599999723,
                    "velocity": 0.31496062992125984,
                    "duration": 0.3519059999999854
                },
                {
                    "name": "D#3",
                    "midi": 51,
                    "time": 232.60986599999723,
                    "velocity": 0.31496062992125984,
                    "duration": 0.1759529999999927
                },
                {
                    "name": "A3",
                    "midi": 57,
                    "time": 232.78581899999722,
                    "velocity": 0.3779527559055118,
                    "duration": 0.1759529999999927
                },
                {
                    "name": "G3",
                    "midi": 55,
                    "time": 232.9617719999972,
                    "velocity": 0.4409448818897638,
                    "duration": 0.11583572500001083
                },
                {
                    "name": "C#3",
                    "midi": 49,
                    "time": 232.9617719999972,
                    "velocity": 0.36220472440944884,
                    "duration": 0.11583572500001083
                },
                {
                    "name": "E3",
                    "midi": 52,
                    "time": 232.9617719999972,
                    "velocity": 0.36220472440944884,
                    "duration": 0.11583572500001083
                },
                {
                    "name": "G#3",
                    "midi": 56,
                    "time": 233.6655839999972,
                    "velocity": 0.48031496062992124,
                    "duration": 0.11583572500001083
                },
                {
                    "name": "D3",
                    "midi": 50,
                    "time": 233.6655839999972,
                    "velocity": 0.4015748031496063,
                    "duration": 0.11583572500001083
                },
                {
                    "name": "F3",
                    "midi": 53,
                    "time": 233.6655839999972,
                    "velocity": 0.4015748031496063,
                    "duration": 0.11583572500001083
                },
                {
                    "name": "G3",
                    "midi": 55,
                    "time": 234.01748999999722,
                    "velocity": 0.3937007874015748,
                    "duration": 0.1759529999999927
                },
                {
                    "name": "D3",
                    "midi": 50,
                    "time": 234.01748999999722,
                    "velocity": 0.33070866141732286,
                    "duration": 0.3519059999999854
                },
                {
                    "name": "E3",
                    "midi": 52,
                    "time": 234.01748999999722,
                    "velocity": 0.33070866141732286,
                    "duration": 0.1759529999999927
                },
                {
                    "name": "A#3",
                    "midi": 58,
                    "time": 234.19344299999722,
                    "velocity": 0.3937007874015748,
                    "duration": 0.1759529999999927
                },
                {
                    "name": "G#3",
                    "midi": 56,
                    "time": 234.3693959999972,
                    "velocity": 0.4566929133858268,
                    "duration": 0.11583572500001083
                },
                {
                    "name": "D3",
                    "midi": 50,
                    "time": 234.3693959999972,
                    "velocity": 0.3779527559055118,
                    "duration": 0.11583572500001083
                },
                {
                    "name": "F3",
                    "midi": 53,
                    "time": 234.3693959999972,
                    "velocity": 0.3779527559055118,
                    "duration": 0.11583572500001083
                },
                {
                    "name": "G#2",
                    "midi": 44,
                    "time": 235.0732079999972,
                    "velocity": 0.41732283464566927,
                    "duration": 0.08797649999999635
                },
                {
                    "name": "G2",
                    "midi": 43,
                    "time": 235.1611844999972,
                    "velocity": 0.4330708661417323,
                    "duration": 0.08797649999999635
                },
                {
                    "name": "G#2",
                    "midi": 44,
                    "time": 235.2491609999972,
                    "velocity": 0.4409448818897638,
                    "duration": 0.08797649999999635
                },
                {
                    "name": "A2",
                    "midi": 45,
                    "time": 235.3371374999972,
                    "velocity": 0.4566929133858268,
                    "duration": 0.08797649999999635
                },
                {
                    "name": "A#2",
                    "midi": 46,
                    "time": 235.4251139999972,
                    "velocity": 0.47244094488188976,
                    "duration": 0.08797649999999635
                },
                {
                    "name": "B2",
                    "midi": 47,
                    "time": 235.5130904999972,
                    "velocity": 0.48031496062992124,
                    "duration": 0.08797649999999635
                },
                {
                    "name": "C3",
                    "midi": 48,
                    "time": 235.6010669999972,
                    "velocity": 0.49606299212598426,
                    "duration": 0.08797649999999635
                },
                {
                    "name": "C#3",
                    "midi": 49,
                    "time": 235.68904349999718,
                    "velocity": 0.5118110236220472,
                    "duration": 0.08797649999999635
                },
                {
                    "name": "D3",
                    "midi": 50,
                    "time": 235.77701999999718,
                    "velocity": 0.5196850393700787,
                    "duration": 0.08797649999999635
                },
                {
                    "name": "D#3",
                    "midi": 51,
                    "time": 235.86499649999718,
                    "velocity": 0.5354330708661418,
                    "duration": 0.08797649999999635
                },
                {
                    "name": "E3",
                    "midi": 52,
                    "time": 235.95297299999717,
                    "velocity": 0.5511811023622047,
                    "duration": 0.08797649999999635
                },
                {
                    "name": "F3",
                    "midi": 53,
                    "time": 236.04094949999717,
                    "velocity": 0.5590551181102362,
                    "duration": 0.08797649999999635
                },
                {
                    "name": "E3",
                    "midi": 52,
                    "time": 236.12892599999716,
                    "velocity": 0.5748031496062992,
                    "duration": 0.08797649999999635
                },
                {
                    "name": "D#3",
                    "midi": 51,
                    "time": 236.21690249999716,
                    "velocity": 0.5590551181102362,
                    "duration": 0.08797649999999635
                },
                {
                    "name": "D3",
                    "midi": 50,
                    "time": 236.30487899999716,
                    "velocity": 0.5433070866141733,
                    "duration": 0.08797649999999635
                },
                {
                    "name": "C#3",
                    "midi": 49,
                    "time": 236.39285549999715,
                    "velocity": 0.5196850393700787,
                    "duration": 0.08797649999999635
                },
                {
                    "name": "C3",
                    "midi": 48,
                    "time": 236.48083199999715,
                    "velocity": 0.5039370078740157,
                    "duration": 0.08797649999999635
                },
                {
                    "name": "B2",
                    "midi": 47,
                    "time": 236.56880849999715,
                    "velocity": 0.4881889763779528,
                    "duration": 0.08797649999999635
                },
                {
                    "name": "C3",
                    "midi": 48,
                    "time": 236.65678499999714,
                    "velocity": 0.4645669291338583,
                    "duration": 0.08797649999999635
                },
                {
                    "name": "C#3",
                    "midi": 49,
                    "time": 236.74476149999714,
                    "velocity": 0.4566929133858268,
                    "duration": 0.08797649999999635
                },
                {
                    "name": "D3",
                    "midi": 50,
                    "time": 236.83273799999714,
                    "velocity": 0.47244094488188976,
                    "duration": 0.08797649999999635
                },
                {
                    "name": "D#3",
                    "midi": 51,
                    "time": 236.92071449999713,
                    "velocity": 0.49606299212598426,
                    "duration": 0.08797649999999635
                },
                {
                    "name": "E3",
                    "midi": 52,
                    "time": 237.00869099999713,
                    "velocity": 0.5118110236220472,
                    "duration": 0.08797649999999635
                },
                {
                    "name": "F3",
                    "midi": 53,
                    "time": 237.09666749999712,
                    "velocity": 0.5354330708661418,
                    "duration": 0.08797649999999635
                },
                {
                    "name": "F#3",
                    "midi": 54,
                    "time": 237.18464399999712,
                    "velocity": 0.5511811023622047,
                    "duration": 0.08797649999999635
                },
                {
                    "name": "G3",
                    "midi": 55,
                    "time": 237.27262049999712,
                    "velocity": 0.5748031496062992,
                    "duration": 0.08797649999999635
                },
                {
                    "name": "G#3",
                    "midi": 56,
                    "time": 237.3605969999971,
                    "velocity": 0.5984251968503937,
                    "duration": 0.08797649999999635
                },
                {
                    "name": "G3",
                    "midi": 55,
                    "time": 237.4485734999971,
                    "velocity": 0.5748031496062992,
                    "duration": 0.08797649999999635
                },
                {
                    "name": "F#3",
                    "midi": 54,
                    "time": 237.5365499999971,
                    "velocity": 0.5511811023622047,
                    "duration": 0.08797649999999635
                },
                {
                    "name": "F3",
                    "midi": 53,
                    "time": 237.6245264999971,
                    "velocity": 0.5275590551181102,
                    "duration": 0.08797649999999635
                },
                {
                    "name": "E3",
                    "midi": 52,
                    "time": 237.7125029999971,
                    "velocity": 0.5039370078740157,
                    "duration": 0.08797649999999635
                },
                {
                    "name": "D#3",
                    "midi": 51,
                    "time": 237.8004794999971,
                    "velocity": 0.47244094488188976,
                    "duration": 0.08797649999999635
                },
                {
                    "name": "D#4",
                    "midi": 63,
                    "time": 237.9764324999971,
                    "velocity": 0.5039370078740157,
                    "duration": 0.08797649999999635
                },
                {
                    "name": "D#3",
                    "midi": 51,
                    "time": 237.9764324999971,
                    "velocity": 0.5039370078740157,
                    "duration": 0.08797649999999635
                },
                {
                    "name": "F4",
                    "midi": 65,
                    "time": 238.15238549999708,
                    "velocity": 0.5275590551181102,
                    "duration": 0.08797649999999635
                },
                {
                    "name": "F3",
                    "midi": 53,
                    "time": 238.15238549999708,
                    "velocity": 0.5275590551181102,
                    "duration": 0.08797649999999635
                },
                {
                    "name": "G4",
                    "midi": 67,
                    "time": 238.32833849999707,
                    "velocity": 0.5511811023622047,
                    "duration": 0.08797649999999635
                },
                {
                    "name": "G3",
                    "midi": 55,
                    "time": 238.32833849999707,
                    "velocity": 0.5511811023622047,
                    "duration": 0.08797649999999635
                },
                {
                    "name": "A4",
                    "midi": 69,
                    "time": 238.50429149999707,
                    "velocity": 0.5826771653543307,
                    "duration": 0.08797649999999635
                },
                {
                    "name": "A3",
                    "midi": 57,
                    "time": 238.50429149999707,
                    "velocity": 0.5826771653543307,
                    "duration": 0.08797649999999635
                },
                {
                    "name": "B4",
                    "midi": 71,
                    "time": 238.68024449999706,
                    "velocity": 0.6062992125984252,
                    "duration": 0.08797649999999635
                },
                {
                    "name": "B3",
                    "midi": 59,
                    "time": 238.68024449999706,
                    "velocity": 0.6062992125984252,
                    "duration": 0.08504394999999931
                },
                {
                    "name": "A#4",
                    "midi": 70,
                    "time": 238.85619749999705,
                    "velocity": 0.5748031496062992,
                    "duration": 0.08797649999999635
                },
                {
                    "name": "A#3",
                    "midi": 58,
                    "time": 238.85619749999705,
                    "velocity": 0.5748031496062992,
                    "duration": 0.08797649999999635
                },
                {
                    "name": "G#4",
                    "midi": 68,
                    "time": 239.03215049999704,
                    "velocity": 0.5354330708661418,
                    "duration": 0.08797649999999635
                },
                {
                    "name": "G#3",
                    "midi": 56,
                    "time": 239.03215049999704,
                    "velocity": 0.5354330708661418,
                    "duration": 0.08797649999999635
                },
                {
                    "name": "F#4",
                    "midi": 66,
                    "time": 239.20810349999704,
                    "velocity": 0.5039370078740157,
                    "duration": 0.08797649999999635
                },
                {
                    "name": "F#3",
                    "midi": 54,
                    "time": 239.20810349999704,
                    "velocity": 0.5039370078740157,
                    "duration": 0.08797649999999635
                },
                {
                    "name": "F#4",
                    "midi": 66,
                    "time": 239.38405649999703,
                    "velocity": 0.47244094488188976,
                    "duration": 0.08797649999999635
                },
                {
                    "name": "F#3",
                    "midi": 54,
                    "time": 239.38405649999703,
                    "velocity": 0.3779527559055118,
                    "duration": 0.08797649999999635
                },
                {
                    "name": "G#4",
                    "midi": 68,
                    "time": 239.56000949999702,
                    "velocity": 0.5118110236220472,
                    "duration": 0.08797649999999635
                },
                {
                    "name": "G#3",
                    "midi": 56,
                    "time": 239.56000949999702,
                    "velocity": 0.5118110236220472,
                    "duration": 0.08797649999999635
                },
                {
                    "name": "A#4",
                    "midi": 70,
                    "time": 239.73596249999702,
                    "velocity": 0.5433070866141733,
                    "duration": 0.08797649999999635
                },
                {
                    "name": "A#3",
                    "midi": 58,
                    "time": 239.73596249999702,
                    "velocity": 0.5433070866141733,
                    "duration": 0.08797649999999635
                },
                {
                    "name": "C5",
                    "midi": 72,
                    "time": 239.911915499997,
                    "velocity": 0.5748031496062992,
                    "duration": 0.08797649999999635
                },
                {
                    "name": "C4",
                    "midi": 60,
                    "time": 239.911915499997,
                    "velocity": 0.5748031496062992,
                    "duration": 0.08797649999999635
                },
                {
                    "name": "D5",
                    "midi": 74,
                    "time": 240.087868499997,
                    "velocity": 0.6141732283464567,
                    "duration": 0.08797649999999635
                },
                {
                    "name": "D4",
                    "midi": 62,
                    "time": 240.087868499997,
                    "velocity": 0.6141732283464567,
                    "duration": 0.08504394999999931
                },
                {
                    "name": "C#5",
                    "midi": 73,
                    "time": 240.263821499997,
                    "velocity": 0.5826771653543307,
                    "duration": 0.08797649999999635
                },
                {
                    "name": "C#4",
                    "midi": 61,
                    "time": 240.263821499997,
                    "velocity": 0.5826771653543307,
                    "duration": 0.08797649999999635
                },
                {
                    "name": "B4",
                    "midi": 71,
                    "time": 240.439774499997,
                    "velocity": 0.5511811023622047,
                    "duration": 0.08797649999999635
                },
                {
                    "name": "B3",
                    "midi": 59,
                    "time": 240.439774499997,
                    "velocity": 0.5511811023622047,
                    "duration": 0.08797649999999635
                },
                {
                    "name": "A4",
                    "midi": 69,
                    "time": 240.61572749999698,
                    "velocity": 0.5118110236220472,
                    "duration": 0.08797649999999635
                },
                {
                    "name": "A3",
                    "midi": 57,
                    "time": 240.61572749999698,
                    "velocity": 0.5118110236220472,
                    "duration": 0.08797649999999635
                },
                {
                    "name": "A4",
                    "midi": 69,
                    "time": 240.79168049999697,
                    "velocity": 0.5196850393700787,
                    "duration": 0.08797649999999635
                },
                {
                    "name": "A3",
                    "midi": 57,
                    "time": 240.79168049999697,
                    "velocity": 0.5196850393700787,
                    "duration": 0.08797649999999635
                },
                {
                    "name": "B4",
                    "midi": 71,
                    "time": 240.96763349999696,
                    "velocity": 0.5511811023622047,
                    "duration": 0.08797649999999635
                },
                {
                    "name": "B3",
                    "midi": 59,
                    "time": 240.96763349999696,
                    "velocity": 0.5511811023622047,
                    "duration": 0.08797649999999635
                },
                {
                    "name": "C#5",
                    "midi": 73,
                    "time": 241.14358649999696,
                    "velocity": 0.5826771653543307,
                    "duration": 0.08797649999999635
                },
                {
                    "name": "C#4",
                    "midi": 61,
                    "time": 241.14358649999696,
                    "velocity": 0.5826771653543307,
                    "duration": 0.08797649999999635
                },
                {
                    "name": "D#5",
                    "midi": 75,
                    "time": 241.31953949999695,
                    "velocity": 0.6220472440944882,
                    "duration": 0.08797649999999635
                },
                {
                    "name": "D#4",
                    "midi": 63,
                    "time": 241.31953949999695,
                    "velocity": 0.6220472440944882,
                    "duration": 0.08797649999999635
                },
                {
                    "name": "F5",
                    "midi": 77,
                    "time": 241.49549249999694,
                    "velocity": 0.6535433070866141,
                    "duration": 0.08797649999999635
                },
                {
                    "name": "F4",
                    "midi": 65,
                    "time": 241.49549249999694,
                    "velocity": 0.6535433070866141,
                    "duration": 0.08797649999999635
                },
                {
                    "name": "D#5",
                    "midi": 75,
                    "time": 241.67144549999693,
                    "velocity": 0.6062992125984252,
                    "duration": 0.08797649999999635
                },
                {
                    "name": "D#4",
                    "midi": 63,
                    "time": 241.67144549999693,
                    "velocity": 0.6062992125984252,
                    "duration": 0.08797649999999635
                },
                {
                    "name": "C#5",
                    "midi": 73,
                    "time": 241.84739849999693,
                    "velocity": 0.5669291338582677,
                    "duration": 0.08797649999999635
                },
                {
                    "name": "C#4",
                    "midi": 61,
                    "time": 241.84739849999693,
                    "velocity": 0.5669291338582677,
                    "duration": 0.08797649999999635
                },
                {
                    "name": "B4",
                    "midi": 71,
                    "time": 242.02335149999692,
                    "velocity": 0.49606299212598426,
                    "duration": 0.08797649999999635
                },
                {
                    "name": "B3",
                    "midi": 59,
                    "time": 242.02335149999692,
                    "velocity": 0.3937007874015748,
                    "duration": 0.08797649999999635
                },
                {
                    "name": "A4",
                    "midi": 69,
                    "time": 242.1993044999969,
                    "velocity": 0.5433070866141733,
                    "duration": 0.08797649999999635
                },
                {
                    "name": "A3",
                    "midi": 57,
                    "time": 242.1993044999969,
                    "velocity": 0.5433070866141733,
                    "duration": 0.08797649999999635
                },
                {
                    "name": "A4",
                    "midi": 69,
                    "time": 242.3752574999969,
                    "velocity": 0.5748031496062992,
                    "duration": 0.08797649999999635
                },
                {
                    "name": "A3",
                    "midi": 57,
                    "time": 242.3752574999969,
                    "velocity": 0.5748031496062992,
                    "duration": 0.08797649999999635
                },
                {
                    "name": "B4",
                    "midi": 71,
                    "time": 242.5512104999969,
                    "velocity": 0.5984251968503937,
                    "duration": 0.08797649999999635
                },
                {
                    "name": "B3",
                    "midi": 59,
                    "time": 242.5512104999969,
                    "velocity": 0.5984251968503937,
                    "duration": 0.08797649999999635
                },
                {
                    "name": "C#5",
                    "midi": 73,
                    "time": 242.7271634999969,
                    "velocity": 0.6220472440944882,
                    "duration": 0.08797649999999635
                },
                {
                    "name": "C#4",
                    "midi": 61,
                    "time": 242.7271634999969,
                    "velocity": 0.6220472440944882,
                    "duration": 0.08797649999999635
                },
                {
                    "name": "D#5",
                    "midi": 75,
                    "time": 242.90311649999688,
                    "velocity": 0.6535433070866141,
                    "duration": 0.08797649999999635
                },
                {
                    "name": "D#4",
                    "midi": 63,
                    "time": 242.90311649999688,
                    "velocity": 0.6535433070866141,
                    "duration": 0.08797649999999635
                },
                {
                    "name": "F5",
                    "midi": 77,
                    "time": 243.07906949999688,
                    "velocity": 0.6614173228346457,
                    "duration": 0.08797649999999635
                },
                {
                    "name": "F4",
                    "midi": 65,
                    "time": 243.07906949999688,
                    "velocity": 0.6614173228346457,
                    "duration": 0.08797649999999635
                },
                {
                    "name": "D#5",
                    "midi": 75,
                    "time": 243.25502249999687,
                    "velocity": 0.6220472440944882,
                    "duration": 0.08797649999999635
                },
                {
                    "name": "D#4",
                    "midi": 63,
                    "time": 243.25502249999687,
                    "velocity": 0.6220472440944882,
                    "duration": 0.08797649999999635
                },
                {
                    "name": "C#5",
                    "midi": 73,
                    "time": 243.43097549999686,
                    "velocity": 0.5826771653543307,
                    "duration": 0.08797649999999635
                },
                {
                    "name": "C#4",
                    "midi": 61,
                    "time": 243.43097549999686,
                    "velocity": 0.5826771653543307,
                    "duration": 0.08797649999999635
                },
                {
                    "name": "B4",
                    "midi": 71,
                    "time": 243.60692849999685,
                    "velocity": 0.5275590551181102,
                    "duration": 0.08797649999999635
                },
                {
                    "name": "B3",
                    "midi": 59,
                    "time": 243.60692849999685,
                    "velocity": 0.5275590551181102,
                    "duration": 0.08797649999999635
                },
                {
                    "name": "A4",
                    "midi": 69,
                    "time": 243.78288149999685,
                    "velocity": 0.5433070866141733,
                    "duration": 0.08797649999999635
                },
                {
                    "name": "A3",
                    "midi": 57,
                    "time": 243.78288149999685,
                    "velocity": 0.5433070866141733,
                    "duration": 0.08797649999999635
                },
                {
                    "name": "A4",
                    "midi": 69,
                    "time": 243.95883449999684,
                    "velocity": 0.5590551181102362,
                    "duration": 0.08797649999999635
                },
                {
                    "name": "A3",
                    "midi": 57,
                    "time": 243.95883449999684,
                    "velocity": 0.5590551181102362,
                    "duration": 0.08797649999999635
                },
                {
                    "name": "B4",
                    "midi": 71,
                    "time": 244.13478749999683,
                    "velocity": 0.5748031496062992,
                    "duration": 0.08797649999999635
                },
                {
                    "name": "B3",
                    "midi": 59,
                    "time": 244.13478749999683,
                    "velocity": 0.5748031496062992,
                    "duration": 0.08797649999999635
                },
                {
                    "name": "C#5",
                    "midi": 73,
                    "time": 244.31074049999683,
                    "velocity": 0.5905511811023622,
                    "duration": 0.08797649999999635
                },
                {
                    "name": "C#4",
                    "midi": 61,
                    "time": 244.31074049999683,
                    "velocity": 0.5905511811023622,
                    "duration": 0.08797649999999635
                },
                {
                    "name": "D#5",
                    "midi": 75,
                    "time": 244.48669349999682,
                    "velocity": 0.6062992125984252,
                    "duration": 0.08797649999999635
                },
                {
                    "name": "D#4",
                    "midi": 63,
                    "time": 244.48669349999682,
                    "velocity": 0.6062992125984252,
                    "duration": 0.08797649999999635
                },
                {
                    "name": "F5",
                    "midi": 77,
                    "time": 244.6626464999968,
                    "velocity": 0.6220472440944882,
                    "duration": 0.08797649999999635
                },
                {
                    "name": "F4",
                    "midi": 65,
                    "time": 244.6626464999968,
                    "velocity": 0.6220472440944882,
                    "duration": 0.08504394999999931
                },
                {
                    "name": "G#5",
                    "midi": 80,
                    "time": 244.8385994999968,
                    "velocity": 0.6377952755905512,
                    "duration": 0.08797649999999635
                },
                {
                    "name": "G#4",
                    "midi": 68,
                    "time": 244.8385994999968,
                    "velocity": 0.6377952755905512,
                    "duration": 0.08797649999999635
                },
                {
                    "name": "B5",
                    "midi": 83,
                    "time": 245.0145524999968,
                    "velocity": 0.5433070866141733,
                    "duration": 0.08797649999999635
                },
                {
                    "name": "B4",
                    "midi": 71,
                    "time": 245.0145524999968,
                    "velocity": 0.5433070866141733,
                    "duration": 0.08797649999999635
                },
                {
                    "name": "D6",
                    "midi": 86,
                    "time": 245.1905054999968,
                    "velocity": 0.5905511811023622,
                    "duration": 0.08797649999999635
                },
                {
                    "name": "D5",
                    "midi": 74,
                    "time": 245.1905054999968,
                    "velocity": 0.5905511811023622,
                    "duration": 0.08797649999999635
                },
                {
                    "name": "F6",
                    "midi": 89,
                    "time": 245.36645849999678,
                    "velocity": 0.6141732283464567,
                    "duration": 0.08797649999999635
                },
                {
                    "name": "F5",
                    "midi": 77,
                    "time": 245.36645849999678,
                    "velocity": 0.6141732283464567,
                    "duration": 0.08797649999999635
                },
                {
                    "name": "G#6",
                    "midi": 92,
                    "time": 245.54241149999677,
                    "velocity": 0.6299212598425197,
                    "duration": 0.08797649999999635
                },
                {
                    "name": "G#5",
                    "midi": 80,
                    "time": 245.54241149999677,
                    "velocity": 0.6299212598425197,
                    "duration": 0.08797649999999635
                },
                {
                    "name": "B6",
                    "midi": 95,
                    "time": 245.71836449999677,
                    "velocity": 0.6535433070866141,
                    "duration": 0.08797649999999635
                },
                {
                    "name": "B5",
                    "midi": 83,
                    "time": 245.71836449999677,
                    "velocity": 0.6535433070866141,
                    "duration": 0.08797649999999635
                },
                {
                    "name": "D7",
                    "midi": 98,
                    "time": 245.89431749999676,
                    "velocity": 0.6771653543307087,
                    "duration": 0.08797649999999635
                },
                {
                    "name": "D6",
                    "midi": 86,
                    "time": 245.89431749999676,
                    "velocity": 0.6771653543307087,
                    "duration": 0.08797649999999635
                },
                {
                    "name": "F7",
                    "midi": 101,
                    "time": 246.07027049999675,
                    "velocity": 0.7007874015748031,
                    "duration": 0.08797649999999635
                },
                {
                    "name": "F6",
                    "midi": 89,
                    "time": 246.07027049999675,
                    "velocity": 0.7007874015748031,
                    "duration": 0.08797649999999635
                },
                {
                    "name": "G#4",
                    "midi": 68,
                    "time": 246.33419999999674,
                    "velocity": 0.7637795275590551,
                    "duration": 0.1759529999999927
                },
                {
                    "name": "B3",
                    "midi": 59,
                    "time": 246.33419999999674,
                    "velocity": 0.6614173228346457,
                    "duration": 0.1759529999999927
                },
                {
                    "name": "D4",
                    "midi": 62,
                    "time": 246.33419999999674,
                    "velocity": 0.6614173228346457,
                    "duration": 0.1759529999999927
                },
                {
                    "name": "A4",
                    "midi": 69,
                    "time": 246.68610599999673,
                    "velocity": 0.8110236220472441,
                    "duration": 0.1759529999999927
                },
                {
                    "name": "A3",
                    "midi": 57,
                    "time": 246.68610599999673,
                    "velocity": 0.6850393700787402,
                    "duration": 0.1759529999999927
                },
                {
                    "name": "C4",
                    "midi": 60,
                    "time": 246.68610599999673,
                    "velocity": 0.6771653543307087,
                    "duration": 0.1759529999999927
                },
                {
                    "name": "G#5",
                    "midi": 80,
                    "time": 247.0380119999967,
                    "velocity": 0.7480314960629921,
                    "duration": 0.08797649999999635
                },
                {
                    "name": "G#4",
                    "midi": 68,
                    "time": 247.0380119999967,
                    "velocity": 0.6299212598425197,
                    "duration": 0.08797649999999635
                },
                {
                    "name": "B5",
                    "midi": 83,
                    "time": 247.2139649999967,
                    "velocity": 0.6850393700787402,
                    "duration": 0.08797649999999635
                },
                {
                    "name": "B4",
                    "midi": 71,
                    "time": 247.2139649999967,
                    "velocity": 0.5748031496062992,
                    "duration": 0.08797649999999635
                },
                {
                    "name": "A5",
                    "midi": 81,
                    "time": 247.3899179999967,
                    "velocity": 0.7559055118110236,
                    "duration": 0.1759529999999927
                },
                {
                    "name": "A4",
                    "midi": 69,
                    "time": 247.3899179999967,
                    "velocity": 0.6377952755905512,
                    "duration": 0.1759529999999927
                },
                {
                    "name": "C#5",
                    "midi": 73,
                    "time": 247.3899179999967,
                    "velocity": 0.6377952755905512,
                    "duration": 0.1759529999999927
                },
                {
                    "name": "G#6",
                    "midi": 92,
                    "time": 247.74182399999668,
                    "velocity": 0.7322834645669292,
                    "duration": 0.08797649999999635
                },
                {
                    "name": "G#5",
                    "midi": 80,
                    "time": 247.74182399999668,
                    "velocity": 0.6062992125984252,
                    "duration": 0.08797649999999635
                },
                {
                    "name": "B6",
                    "midi": 95,
                    "time": 247.91777699999668,
                    "velocity": 0.6771653543307087,
                    "duration": 0.08797649999999635
                },
                {
                    "name": "B5",
                    "midi": 83,
                    "time": 247.91777699999668,
                    "velocity": 0.5669291338582677,
                    "duration": 0.08797649999999635
                },
                {
                    "name": "D#6",
                    "midi": 87,
                    "time": 248.09372999999667,
                    "velocity": 0.6377952755905512,
                    "duration": 0.1759529999999927
                },
                {
                    "name": "A6",
                    "midi": 93,
                    "time": 248.09372999999667,
                    "velocity": 0.7559055118110236,
                    "duration": 0.1759529999999927
                },
                {
                    "name": "A5",
                    "midi": 81,
                    "time": 248.09372999999667,
                    "velocity": 0.6377952755905512,
                    "duration": 0.1759529999999927
                },
                {
                    "name": "G#5",
                    "midi": 80,
                    "time": 248.44563599999665,
                    "velocity": 0.6771653543307087,
                    "duration": 0.1759529999999927
                },
                {
                    "name": "G#4",
                    "midi": 68,
                    "time": 248.44563599999665,
                    "velocity": 0.5669291338582677,
                    "duration": 0.1759529999999927
                },
                {
                    "name": "D#5",
                    "midi": 75,
                    "time": 248.79754199999664,
                    "velocity": 0.6299212598425197,
                    "duration": 0.7038119999999992
                },
                {
                    "name": "A5",
                    "midi": 81,
                    "time": 248.79754199999664,
                    "velocity": 0.7480314960629921,
                    "duration": 0.7038119999999992
                },
                {
                    "name": "A4",
                    "midi": 69,
                    "time": 248.79754199999664,
                    "velocity": 0.6299212598425197,
                    "duration": 0.7038119999999992
                },
                {
                    "name": "F#4",
                    "midi": 66,
                    "time": 249.50135399999664,
                    "velocity": 0.6299212598425197,
                    "duration": 0.1759529999999927
                },
                {
                    "name": "A4",
                    "midi": 69,
                    "time": 249.50135399999664,
                    "velocity": 0.6299212598425197,
                    "duration": 0.1759529999999927
                },
                {
                    "name": "A3",
                    "midi": 57,
                    "time": 249.50135399999664,
                    "velocity": 0.5275590551181102,
                    "duration": 0.1759529999999927
                },
                {
                    "name": "C#4",
                    "midi": 61,
                    "time": 249.50135399999664,
                    "velocity": 0.5275590551181102,
                    "duration": 0.1759529999999927
                },
                {
                    "name": "G#4",
                    "midi": 68,
                    "time": 249.67730699999663,
                    "velocity": 0.5748031496062992,
                    "duration": 0.1759529999999927
                },
                {
                    "name": "G#3",
                    "midi": 56,
                    "time": 249.67730699999663,
                    "velocity": 0.48031496062992124,
                    "duration": 0.1759529999999927
                },
                {
                    "name": "A4",
                    "midi": 69,
                    "time": 249.85325999999662,
                    "velocity": 0.6141732283464567,
                    "duration": 0.1759529999999927
                },
                {
                    "name": "A3",
                    "midi": 57,
                    "time": 249.85325999999662,
                    "velocity": 0.5196850393700787,
                    "duration": 0.1759529999999927
                },
                {
                    "name": "B4",
                    "midi": 71,
                    "time": 250.02921299999662,
                    "velocity": 0.6456692913385826,
                    "duration": 0.1759529999999927
                },
                {
                    "name": "B3",
                    "midi": 59,
                    "time": 250.02921299999662,
                    "velocity": 0.5511811023622047,
                    "duration": 0.1759529999999927
                },
                {
                    "name": "C5",
                    "midi": 72,
                    "time": 250.2051659999966,
                    "velocity": 0.6771653543307087,
                    "duration": 0.7038119999999992
                },
                {
                    "name": "C4",
                    "midi": 60,
                    "time": 250.2051659999966,
                    "velocity": 0.5669291338582677,
                    "duration": 0.7038119999999992
                },
                {
                    "name": "D#4",
                    "midi": 63,
                    "time": 250.2051659999966,
                    "velocity": 0.5669291338582677,
                    "duration": 0.7038119999999992
                },
                {
                    "name": "F#4",
                    "midi": 66,
                    "time": 250.2051659999966,
                    "velocity": 0.5669291338582677,
                    "duration": 0.7038119999999992
                },
                {
                    "name": "C7",
                    "midi": 96,
                    "time": 250.9089779999966,
                    "velocity": 0.7086614173228346,
                    "duration": 0.1759529999999927
                },
                {
                    "name": "C6",
                    "midi": 84,
                    "time": 250.9089779999966,
                    "velocity": 0.5905511811023622,
                    "duration": 0.1759529999999927
                },
                {
                    "name": "D#6",
                    "midi": 87,
                    "time": 250.9089779999966,
                    "velocity": 0.5905511811023622,
                    "duration": 0.1759529999999927
                },
                {
                    "name": "B6",
                    "midi": 95,
                    "time": 251.0849309999966,
                    "velocity": 0.6692913385826772,
                    "duration": 0.1759529999999927
                },
                {
                    "name": "B5",
                    "midi": 83,
                    "time": 251.0849309999966,
                    "velocity": 0.5669291338582677,
                    "duration": 0.1759529999999927
                },
                {
                    "name": "A6",
                    "midi": 93,
                    "time": 251.2608839999966,
                    "velocity": 0.6692913385826772,
                    "duration": 0.1759529999999927
                },
                {
                    "name": "A5",
                    "midi": 81,
                    "time": 251.2608839999966,
                    "velocity": 0.5669291338582677,
                    "duration": 0.1759529999999927
                },
                {
                    "name": "G#6",
                    "midi": 92,
                    "time": 251.4368369999966,
                    "velocity": 0.6692913385826772,
                    "duration": 0.1759529999999927
                },
                {
                    "name": "G#5",
                    "midi": 80,
                    "time": 251.4368369999966,
                    "velocity": 0.5669291338582677,
                    "duration": 0.1759529999999927
                },
                {
                    "name": "A6",
                    "midi": 93,
                    "time": 251.61278999999658,
                    "velocity": 0.7244094488188977,
                    "duration": 0.5278590000000065
                },
                {
                    "name": "D#6",
                    "midi": 87,
                    "time": 251.61278999999658,
                    "velocity": 0.6062992125984252,
                    "duration": 0.5278590000000065
                },
                {
                    "name": "A5",
                    "midi": 81,
                    "time": 251.61278999999658,
                    "velocity": 0.6062992125984252,
                    "duration": 0.5278590000000065
                },
                {
                    "name": "C5",
                    "midi": 72,
                    "time": 252.14064899999659,
                    "velocity": 0.6062992125984252,
                    "duration": 0.08797649999999635
                },
                {
                    "name": "C4",
                    "midi": 60,
                    "time": 252.14064899999659,
                    "velocity": 0.5118110236220472,
                    "duration": 0.08797649999999635
                },
                {
                    "name": "B4",
                    "midi": 71,
                    "time": 252.31660199999658,
                    "velocity": 0.6692913385826772,
                    "duration": 0.1759529999999927
                },
                {
                    "name": "B3",
                    "midi": 59,
                    "time": 252.31660199999658,
                    "velocity": 0.5590551181102362,
                    "duration": 0.1759529999999927
                },
                {
                    "name": "A4",
                    "midi": 69,
                    "time": 252.49255499999657,
                    "velocity": 0.6062992125984252,
                    "duration": 0.14076239999999984
                },
                {
                    "name": "A3",
                    "midi": 57,
                    "time": 252.49255499999657,
                    "velocity": 0.5118110236220472,
                    "duration": 0.14076239999999984
                },
                {
                    "name": "G4",
                    "midi": 67,
                    "time": 252.66850799999656,
                    "velocity": 0.6062992125984252,
                    "duration": 0.08797649999999635
                },
                {
                    "name": "G3",
                    "midi": 55,
                    "time": 252.66850799999656,
                    "velocity": 0.5118110236220472,
                    "duration": 0.08797649999999635
                },
                {
                    "name": "B4",
                    "midi": 71,
                    "time": 252.84446099999656,
                    "velocity": 0.6062992125984252,
                    "duration": 0.08797649999999635
                },
                {
                    "name": "B3",
                    "midi": 59,
                    "time": 252.84446099999656,
                    "velocity": 0.5118110236220472,
                    "duration": 0.08797649999999635
                },
                {
                    "name": "A4",
                    "midi": 69,
                    "time": 253.02041399999655,
                    "velocity": 0.6692913385826772,
                    "duration": 0.1759529999999927
                },
                {
                    "name": "A3",
                    "midi": 57,
                    "time": 253.02041399999655,
                    "velocity": 0.5590551181102362,
                    "duration": 0.1759529999999927
                },
                {
                    "name": "G4",
                    "midi": 67,
                    "time": 253.19636699999654,
                    "velocity": 0.6141732283464567,
                    "duration": 0.14076239999999984
                },
                {
                    "name": "G3",
                    "midi": 55,
                    "time": 253.19636699999654,
                    "velocity": 0.5196850393700787,
                    "duration": 0.14076239999999984
                },
                {
                    "name": "F4",
                    "midi": 65,
                    "time": 253.37231999999653,
                    "velocity": 0.6141732283464567,
                    "duration": 0.08797649999999635
                },
                {
                    "name": "F3",
                    "midi": 53,
                    "time": 253.37231999999653,
                    "velocity": 0.5196850393700787,
                    "duration": 0.08797649999999635
                },
                {
                    "name": "A4",
                    "midi": 69,
                    "time": 253.54827299999653,
                    "velocity": 0.6299212598425197,
                    "duration": 0.08797649999999635
                },
                {
                    "name": "A3",
                    "midi": 57,
                    "time": 253.54827299999653,
                    "velocity": 0.5275590551181102,
                    "duration": 0.08797649999999635
                },
                {
                    "name": "G4",
                    "midi": 67,
                    "time": 253.72422599999652,
                    "velocity": 0.7007874015748031,
                    "duration": 0.1759529999999927
                },
                {
                    "name": "G3",
                    "midi": 55,
                    "time": 253.72422599999652,
                    "velocity": 0.5905511811023622,
                    "duration": 0.1759529999999927
                },
                {
                    "name": "F4",
                    "midi": 65,
                    "time": 253.9001789999965,
                    "velocity": 0.6299212598425197,
                    "duration": 0.14076239999999984
                },
                {
                    "name": "F3",
                    "midi": 53,
                    "time": 253.9001789999965,
                    "velocity": 0.5275590551181102,
                    "duration": 0.14076239999999984
                },
                {
                    "name": "E4",
                    "midi": 64,
                    "time": 254.0761319999965,
                    "velocity": 0.6299212598425197,
                    "duration": 0.08797649999999635
                },
                {
                    "name": "E3",
                    "midi": 52,
                    "time": 254.0761319999965,
                    "velocity": 0.5275590551181102,
                    "duration": 0.08797649999999635
                },
                {
                    "name": "G4",
                    "midi": 67,
                    "time": 254.2520849999965,
                    "velocity": 0.6299212598425197,
                    "duration": 0.08797649999999635
                },
                {
                    "name": "G3",
                    "midi": 55,
                    "time": 254.2520849999965,
                    "velocity": 0.5275590551181102,
                    "duration": 0.08797649999999635
                },
                {
                    "name": "F4",
                    "midi": 65,
                    "time": 254.4280379999965,
                    "velocity": 0.7086614173228346,
                    "duration": 0.1759529999999927
                },
                {
                    "name": "F3",
                    "midi": 53,
                    "time": 254.4280379999965,
                    "velocity": 0.5984251968503937,
                    "duration": 0.1759529999999927
                },
                {
                    "name": "E4",
                    "midi": 64,
                    "time": 254.60399099999648,
                    "velocity": 0.6299212598425197,
                    "duration": 0.14076239999999984
                },
                {
                    "name": "E3",
                    "midi": 52,
                    "time": 254.60399099999648,
                    "velocity": 0.5275590551181102,
                    "duration": 0.14076239999999984
                },
                {
                    "name": "D#4",
                    "midi": 63,
                    "time": 254.77994399999648,
                    "velocity": 0.6299212598425197,
                    "duration": 0.08797649999999635
                },
                {
                    "name": "D#3",
                    "midi": 51,
                    "time": 254.77994399999648,
                    "velocity": 0.5275590551181102,
                    "duration": 0.08797649999999635
                },
                {
                    "name": "F4",
                    "midi": 65,
                    "time": 254.95589699999647,
                    "velocity": 0.6299212598425197,
                    "duration": 0.08797649999999635
                },
                {
                    "name": "F3",
                    "midi": 53,
                    "time": 254.95589699999647,
                    "velocity": 0.5275590551181102,
                    "duration": 0.08797649999999635
                },
                {
                    "name": "F4",
                    "midi": 65,
                    "time": 255.13184999999646,
                    "velocity": 0.7007874015748031,
                    "duration": 0.1759529999999927
                },
                {
                    "name": "F3",
                    "midi": 53,
                    "time": 255.13184999999646,
                    "velocity": 0.5905511811023622,
                    "duration": 0.1759529999999927
                },
                {
                    "name": "E4",
                    "midi": 64,
                    "time": 255.30780299999645,
                    "velocity": 0.6299212598425197,
                    "duration": 0.14076239999999984
                },
                {
                    "name": "E3",
                    "midi": 52,
                    "time": 255.30780299999645,
                    "velocity": 0.5275590551181102,
                    "duration": 0.14076239999999984
                },
                {
                    "name": "E4",
                    "midi": 64,
                    "time": 255.48375599999645,
                    "velocity": 0.6299212598425197,
                    "duration": 0.08797649999999635
                },
                {
                    "name": "E3",
                    "midi": 52,
                    "time": 255.48375599999645,
                    "velocity": 0.5275590551181102,
                    "duration": 0.08797649999999635
                },
                {
                    "name": "D#4",
                    "midi": 63,
                    "time": 255.65970899999644,
                    "velocity": 0.6299212598425197,
                    "duration": 0.08797649999999635
                },
                {
                    "name": "D#3",
                    "midi": 51,
                    "time": 255.65970899999644,
                    "velocity": 0.5275590551181102,
                    "duration": 0.08797649999999635
                },
                {
                    "name": "F4",
                    "midi": 65,
                    "time": 255.83566199999643,
                    "velocity": 0.7244094488188977,
                    "duration": 0.1759529999999927
                },
                {
                    "name": "F3",
                    "midi": 53,
                    "time": 255.83566199999643,
                    "velocity": 0.6062992125984252,
                    "duration": 0.1759529999999927
                },
                {
                    "name": "E4",
                    "midi": 64,
                    "time": 256.0116149999964,
                    "velocity": 0.6299212598425197,
                    "duration": 0.14076240000002826
                },
                {
                    "name": "E3",
                    "midi": 52,
                    "time": 256.0116149999964,
                    "velocity": 0.5275590551181102,
                    "duration": 0.14076240000002826
                },
                {
                    "name": "E4",
                    "midi": 64,
                    "time": 256.1875679999965,
                    "velocity": 0.6299212598425197,
                    "duration": 0.08797650000002477
                },
                {
                    "name": "E3",
                    "midi": 52,
                    "time": 256.1875679999965,
                    "velocity": 0.5275590551181102,
                    "duration": 0.08797650000002477
                },
                {
                    "name": "D#4",
                    "midi": 63,
                    "time": 256.3635209999965,
                    "velocity": 0.6299212598425197,
                    "duration": 0.08797650000002477
                },
                {
                    "name": "D#3",
                    "midi": 51,
                    "time": 256.3635209999965,
                    "velocity": 0.5275590551181102,
                    "duration": 0.08797650000002477
                },
                {
                    "name": "E4",
                    "midi": 64,
                    "time": 256.5394739999966,
                    "velocity": 0.7637795275590551,
                    "duration": 0.7038120000000276
                },
                {
                    "name": "E3",
                    "midi": 52,
                    "time": 256.5394739999966,
                    "velocity": 0.6456692913385826,
                    "duration": 0.7038120000000276
                },
                {
                    "name": "E5",
                    "midi": 76,
                    "time": 257.2432859999966,
                    "velocity": 0.7401574803149606,
                    "duration": 0.1759529999999927
                },
                {
                    "name": "B4",
                    "midi": 71,
                    "time": 257.2432859999966,
                    "velocity": 0.6141732283464567,
                    "duration": 0.1759529999999927
                },
                {
                    "name": "G#4",
                    "midi": 68,
                    "time": 257.2432859999966,
                    "velocity": 0.6141732283464567,
                    "duration": 0.1759529999999927
                },
                {
                    "name": "E4",
                    "midi": 64,
                    "time": 257.2432859999966,
                    "velocity": 0.6141732283464567,
                    "duration": 0.1759529999999927
                },
                {
                    "name": "E5",
                    "midi": 76,
                    "time": 257.5951919999966,
                    "velocity": 0.6062992125984252,
                    "duration": 0.11730199999999513
                },
                {
                    "name": "F#5",
                    "midi": 78,
                    "time": 257.7124939999966,
                    "velocity": 0.6299212598425197,
                    "duration": 0.11730199999999513
                },
                {
                    "name": "G#5",
                    "midi": 80,
                    "time": 257.8297959999966,
                    "velocity": 0.6456692913385826,
                    "duration": 0.11730199999999513
                },
                {
                    "name": "A5",
                    "midi": 81,
                    "time": 257.9470979999966,
                    "velocity": 0.7244094488188977,
                    "duration": 0.1759529999999927
                },
                {
                    "name": "A4",
                    "midi": 69,
                    "time": 257.9470979999966,
                    "velocity": 0.6141732283464567,
                    "duration": 0.1759529999999927
                },
                {
                    "name": "B4",
                    "midi": 71,
                    "time": 258.29900399999656,
                    "velocity": 0.5039370078740157,
                    "duration": 0.08797650000002477
                },
                {
                    "name": "G#5",
                    "midi": 80,
                    "time": 258.29900399999656,
                    "velocity": 0.5984251968503937,
                    "duration": 0.08797650000002477
                },
                {
                    "name": "G#4",
                    "midi": 68,
                    "time": 258.29900399999656,
                    "velocity": 0.5039370078740157,
                    "duration": 0.08797650000002477
                },
                {
                    "name": "D5",
                    "midi": 74,
                    "time": 258.4749569999966,
                    "velocity": 0.4566929133858268,
                    "duration": 0.08797650000002477
                },
                {
                    "name": "B5",
                    "midi": 83,
                    "time": 258.4749569999966,
                    "velocity": 0.5433070866141733,
                    "duration": 0.08797650000002477
                },
                {
                    "name": "B4",
                    "midi": 71,
                    "time": 258.4749569999966,
                    "velocity": 0.4566929133858268,
                    "duration": 0.08797650000002477
                },
                {
                    "name": "A5",
                    "midi": 81,
                    "time": 258.65090999999666,
                    "velocity": 0.6771653543307087,
                    "duration": 0.1759529999999927
                },
                {
                    "name": "A4",
                    "midi": 69,
                    "time": 258.65090999999666,
                    "velocity": 0.5669291338582677,
                    "duration": 0.1759529999999927
                },
                {
                    "name": "C5",
                    "midi": 72,
                    "time": 258.65090999999666,
                    "velocity": 0.5669291338582677,
                    "duration": 0.1759529999999927
                },
                {
                    "name": "B4",
                    "midi": 71,
                    "time": 259.00281599999664,
                    "velocity": 0.49606299212598426,
                    "duration": 0.08797650000002477
                },
                {
                    "name": "G#5",
                    "midi": 80,
                    "time": 259.00281599999664,
                    "velocity": 0.5748031496062992,
                    "duration": 0.08797650000002477
                },
                {
                    "name": "G#4",
                    "midi": 68,
                    "time": 259.00281599999664,
                    "velocity": 0.49606299212598426,
                    "duration": 0.08797650000002477
                },
                {
                    "name": "D5",
                    "midi": 74,
                    "time": 259.1787689999967,
                    "velocity": 0.44881889763779526,
                    "duration": 0.08797650000002477
                },
                {
                    "name": "B5",
                    "midi": 83,
                    "time": 259.1787689999967,
                    "velocity": 0.5354330708661418,
                    "duration": 0.08797650000002477
                },
                {
                    "name": "B4",
                    "midi": 71,
                    "time": 259.1787689999967,
                    "velocity": 0.44881889763779526,
                    "duration": 0.08797650000002477
                },
                {
                    "name": "C5",
                    "midi": 72,
                    "time": 259.35472199999674,
                    "velocity": 0.5669291338582677,
                    "duration": 0.08797650000002477
                },
                {
                    "name": "A5",
                    "midi": 81,
                    "time": 259.35472199999674,
                    "velocity": 0.6771653543307087,
                    "duration": 0.08797650000002477
                },
                {
                    "name": "A4",
                    "midi": 69,
                    "time": 259.35472199999674,
                    "velocity": 0.5669291338582677,
                    "duration": 0.08797650000002477
                },
                {
                    "name": "B4",
                    "midi": 71,
                    "time": 259.7066279999968,
                    "velocity": 0.44881889763779526,
                    "duration": 0.08797650000002477
                },
                {
                    "name": "G#5",
                    "midi": 80,
                    "time": 259.7066279999968,
                    "velocity": 0.5354330708661418,
                    "duration": 0.08797650000002477
                },
                {
                    "name": "G#4",
                    "midi": 68,
                    "time": 259.7066279999968,
                    "velocity": 0.44881889763779526,
                    "duration": 0.08797650000002477
                },
                {
                    "name": "C5",
                    "midi": 72,
                    "time": 260.0585339999968,
                    "velocity": 0.5669291338582677,
                    "duration": 0.7038120000000276
                },
                {
                    "name": "A5",
                    "midi": 81,
                    "time": 260.0585339999968,
                    "velocity": 0.6692913385826772,
                    "duration": 0.7038120000000276
                },
                {
                    "name": "A4",
                    "midi": 69,
                    "time": 260.0585339999968,
                    "velocity": 0.5669291338582677,
                    "duration": 0.7038120000000276
                },
                {
                    "name": "F6",
                    "midi": 89,
                    "time": 260.76234599999685,
                    "velocity": 0.5669291338582677,
                    "duration": 0.1759529999999927
                },
                {
                    "name": "A6",
                    "midi": 93,
                    "time": 260.76234599999685,
                    "velocity": 0.6062992125984252,
                    "duration": 0.1759529999999927
                },
                {
                    "name": "A5",
                    "midi": 81,
                    "time": 260.76234599999685,
                    "velocity": 0.47244094488188976,
                    "duration": 0.1759529999999927
                },
                {
                    "name": "C6",
                    "midi": 84,
                    "time": 260.76234599999685,
                    "velocity": 0.47244094488188976,
                    "duration": 0.1759529999999927
                },
                {
                    "name": "G#6",
                    "midi": 92,
                    "time": 260.93829899999685,
                    "velocity": 0.5118110236220472,
                    "duration": 0.1759529999999927
                },
                {
                    "name": "G#5",
                    "midi": 80,
                    "time": 260.93829899999685,
                    "velocity": 0.4251968503937008,
                    "duration": 0.1759529999999927
                },
                {
                    "name": "A6",
                    "midi": 93,
                    "time": 261.11425199999684,
                    "velocity": 0.5511811023622047,
                    "duration": 0.1759529999999927
                },
                {
                    "name": "A5",
                    "midi": 81,
                    "time": 261.11425199999684,
                    "velocity": 0.4645669291338583,
                    "duration": 0.1759529999999927
                },
                {
                    "name": "B6",
                    "midi": 95,
                    "time": 261.29020499999683,
                    "velocity": 0.5748031496062992,
                    "duration": 0.1759529999999927
                },
                {
                    "name": "B5",
                    "midi": 83,
                    "time": 261.29020499999683,
                    "velocity": 0.49606299212598426,
                    "duration": 0.1759529999999927
                },
                {
                    "name": "C7",
                    "midi": 96,
                    "time": 261.4661579999968,
                    "velocity": 0.6377952755905512,
                    "duration": 0.7038120000000276
                },
                {
                    "name": "C6",
                    "midi": 84,
                    "time": 261.4661579999968,
                    "velocity": 0.5039370078740157,
                    "duration": 0.7038120000000276
                },
                {
                    "name": "E6",
                    "midi": 88,
                    "time": 261.4661579999968,
                    "velocity": 0.5039370078740157,
                    "duration": 0.7038120000000276
                },
                {
                    "name": "C7",
                    "midi": 96,
                    "time": 262.16996999999685,
                    "velocity": 0.6377952755905512,
                    "duration": 0.1759529999999927
                },
                {
                    "name": "C6",
                    "midi": 84,
                    "time": 262.16996999999685,
                    "velocity": 0.5039370078740157,
                    "duration": 0.1759529999999927
                },
                {
                    "name": "F6",
                    "midi": 89,
                    "time": 262.16996999999685,
                    "velocity": 0.5039370078740157,
                    "duration": 0.1759529999999927
                },
                {
                    "name": "B6",
                    "midi": 95,
                    "time": 262.34592299999684,
                    "velocity": 0.5669291338582677,
                    "duration": 0.1759529999999927
                },
                {
                    "name": "B5",
                    "midi": 83,
                    "time": 262.34592299999684,
                    "velocity": 0.4881889763779528,
                    "duration": 0.1759529999999927
                },
                {
                    "name": "A6",
                    "midi": 93,
                    "time": 262.52187599999684,
                    "velocity": 0.5669291338582677,
                    "duration": 0.1759529999999927
                },
                {
                    "name": "A5",
                    "midi": 81,
                    "time": 262.52187599999684,
                    "velocity": 0.4881889763779528,
                    "duration": 0.1759529999999927
                },
                {
                    "name": "G#6",
                    "midi": 92,
                    "time": 262.69782899999683,
                    "velocity": 0.5669291338582677,
                    "duration": 0.1759529999999927
                },
                {
                    "name": "G#5",
                    "midi": 80,
                    "time": 262.69782899999683,
                    "velocity": 0.4881889763779528,
                    "duration": 0.1759529999999927
                },
                {
                    "name": "C6",
                    "midi": 84,
                    "time": 262.8737819999968,
                    "velocity": 0.5196850393700787,
                    "duration": 0.5278589999999781
                },
                {
                    "name": "A6",
                    "midi": 93,
                    "time": 262.8737819999968,
                    "velocity": 0.6535433070866141,
                    "duration": 0.5278589999999781
                },
                {
                    "name": "E6",
                    "midi": 88,
                    "time": 262.8737819999968,
                    "velocity": 0.5196850393700787,
                    "duration": 0.5278589999999781
                },
                {
                    "name": "A5",
                    "midi": 81,
                    "time": 262.8737819999968,
                    "velocity": 0.5196850393700787,
                    "duration": 0.5278589999999781
                },
                {
                    "name": "C7",
                    "midi": 96,
                    "time": 263.4016409999968,
                    "velocity": 0.5433070866141733,
                    "duration": 0.08797650000002477
                },
                {
                    "name": "C6",
                    "midi": 84,
                    "time": 263.4016409999968,
                    "velocity": 0.4566929133858268,
                    "duration": 0.08797650000002477
                },
                {
                    "name": "B6",
                    "midi": 95,
                    "time": 263.57759399999685,
                    "velocity": 0.5984251968503937,
                    "duration": 0.1759529999999927
                },
                {
                    "name": "B5",
                    "midi": 83,
                    "time": 263.57759399999685,
                    "velocity": 0.49606299212598426,
                    "duration": 0.1759529999999927
                },
                {
                    "name": "A6",
                    "midi": 93,
                    "time": 263.75354699999684,
                    "velocity": 0.5433070866141733,
                    "duration": 0.14076240000002826
                },
                {
                    "name": "A5",
                    "midi": 81,
                    "time": 263.75354699999684,
                    "velocity": 0.4566929133858268,
                    "duration": 0.14076240000002826
                },
                {
                    "name": "G#6",
                    "midi": 92,
                    "time": 263.9294999999969,
                    "velocity": 0.5433070866141733,
                    "duration": 0.08797650000002477
                },
                {
                    "name": "G#5",
                    "midi": 80,
                    "time": 263.9294999999969,
                    "velocity": 0.4566929133858268,
                    "duration": 0.08797650000002477
                },
                {
                    "name": "B6",
                    "midi": 95,
                    "time": 264.10545299999694,
                    "velocity": 0.5433070866141733,
                    "duration": 0.08797650000002477
                },
                {
                    "name": "B5",
                    "midi": 83,
                    "time": 264.10545299999694,
                    "velocity": 0.4566929133858268,
                    "duration": 0.08797650000002477
                },
                {
                    "name": "A6",
                    "midi": 93,
                    "time": 264.281405999997,
                    "velocity": 0.5984251968503937,
                    "duration": 0.1759529999999927
                },
                {
                    "name": "A5",
                    "midi": 81,
                    "time": 264.281405999997,
                    "velocity": 0.49606299212598426,
                    "duration": 0.1759529999999927
                },
                {
                    "name": "C#6",
                    "midi": 85,
                    "time": 264.457358999997,
                    "velocity": 0.5511811023622047,
                    "duration": 0.14076240000002826
                },
                {
                    "name": "C#5",
                    "midi": 73,
                    "time": 264.457358999997,
                    "velocity": 0.4645669291338583,
                    "duration": 0.14076240000002826
                },
                {
                    "name": "F#6",
                    "midi": 90,
                    "time": 264.63331199999703,
                    "velocity": 0.5511811023622047,
                    "duration": 0.08797650000002477
                },
                {
                    "name": "F#5",
                    "midi": 78,
                    "time": 264.63331199999703,
                    "velocity": 0.4645669291338583,
                    "duration": 0.08797650000002477
                },
                {
                    "name": "A6",
                    "midi": 93,
                    "time": 264.8092649999971,
                    "velocity": 0.5669291338582677,
                    "duration": 0.08797650000002477
                },
                {
                    "name": "A5",
                    "midi": 81,
                    "time": 264.8092649999971,
                    "velocity": 0.47244094488188976,
                    "duration": 0.08797650000002477
                },
                {
                    "name": "G#6",
                    "midi": 92,
                    "time": 264.98521799999713,
                    "velocity": 0.6299212598425197,
                    "duration": 0.1759529999999927
                },
                {
                    "name": "G#5",
                    "midi": 80,
                    "time": 264.98521799999713,
                    "velocity": 0.5275590551181102,
                    "duration": 0.1759529999999927
                },
                {
                    "name": "F#6",
                    "midi": 90,
                    "time": 265.1611709999971,
                    "velocity": 0.5669291338582677,
                    "duration": 0.14076240000002826
                },
                {
                    "name": "F#5",
                    "midi": 78,
                    "time": 265.1611709999971,
                    "velocity": 0.47244094488188976,
                    "duration": 0.14076240000002826
                },
                {
                    "name": "E6",
                    "midi": 88,
                    "time": 265.3371239999972,
                    "velocity": 0.5669291338582677,
                    "duration": 0.08797650000002477
                },
                {
                    "name": "E5",
                    "midi": 76,
                    "time": 265.3371239999972,
                    "velocity": 0.47244094488188976,
                    "duration": 0.08797650000002477
                },
                {
                    "name": "G#6",
                    "midi": 92,
                    "time": 265.5130769999972,
                    "velocity": 0.5669291338582677,
                    "duration": 0.08797650000002477
                },
                {
                    "name": "G#5",
                    "midi": 80,
                    "time": 265.5130769999972,
                    "velocity": 0.47244094488188976,
                    "duration": 0.08797650000002477
                },
                {
                    "name": "F#6",
                    "midi": 90,
                    "time": 265.6890299999973,
                    "velocity": 0.6377952755905512,
                    "duration": 0.1759529999999927
                },
                {
                    "name": "F#5",
                    "midi": 78,
                    "time": 265.6890299999973,
                    "velocity": 0.5354330708661418,
                    "duration": 0.1759529999999927
                },
                {
                    "name": "E6",
                    "midi": 88,
                    "time": 265.86498299999727,
                    "velocity": 0.5669291338582677,
                    "duration": 0.14076240000002826
                },
                {
                    "name": "E5",
                    "midi": 76,
                    "time": 265.86498299999727,
                    "velocity": 0.47244094488188976,
                    "duration": 0.14076240000002826
                },
                {
                    "name": "D#6",
                    "midi": 87,
                    "time": 266.0409359999973,
                    "velocity": 0.5669291338582677,
                    "duration": 0.08797650000002477
                },
                {
                    "name": "D#5",
                    "midi": 75,
                    "time": 266.0409359999973,
                    "velocity": 0.47244094488188976,
                    "duration": 0.08797650000002477
                },
                {
                    "name": "F#6",
                    "midi": 90,
                    "time": 266.21688899999737,
                    "velocity": 0.5669291338582677,
                    "duration": 0.08797650000002477
                },
                {
                    "name": "F#5",
                    "midi": 78,
                    "time": 266.21688899999737,
                    "velocity": 0.47244094488188976,
                    "duration": 0.08797650000002477
                },
                {
                    "name": "F#6",
                    "midi": 90,
                    "time": 266.3928419999974,
                    "velocity": 0.6299212598425197,
                    "duration": 0.1759529999999927
                },
                {
                    "name": "F#5",
                    "midi": 78,
                    "time": 266.3928419999974,
                    "velocity": 0.5275590551181102,
                    "duration": 0.1759529999999927
                },
                {
                    "name": "E6",
                    "midi": 88,
                    "time": 266.5687949999974,
                    "velocity": 0.5669291338582677,
                    "duration": 0.14076240000002826
                },
                {
                    "name": "E5",
                    "midi": 76,
                    "time": 266.5687949999974,
                    "velocity": 0.47244094488188976,
                    "duration": 0.14076240000002826
                },
                {
                    "name": "E6",
                    "midi": 88,
                    "time": 266.74474799999746,
                    "velocity": 0.5669291338582677,
                    "duration": 0.08797650000002477
                },
                {
                    "name": "E5",
                    "midi": 76,
                    "time": 266.74474799999746,
                    "velocity": 0.47244094488188976,
                    "duration": 0.08797650000002477
                },
                {
                    "name": "D#6",
                    "midi": 87,
                    "time": 266.9207009999975,
                    "velocity": 0.5669291338582677,
                    "duration": 0.08797650000002477
                },
                {
                    "name": "D#5",
                    "midi": 75,
                    "time": 266.9207009999975,
                    "velocity": 0.47244094488188976,
                    "duration": 0.08797650000002477
                },
                {
                    "name": "F#6",
                    "midi": 90,
                    "time": 267.09665399999756,
                    "velocity": 0.6456692913385826,
                    "duration": 0.1759529999999927
                },
                {
                    "name": "F#5",
                    "midi": 78,
                    "time": 267.09665399999756,
                    "velocity": 0.5433070866141733,
                    "duration": 0.1759529999999927
                },
                {
                    "name": "E6",
                    "midi": 88,
                    "time": 267.27260699999755,
                    "velocity": 0.5669291338582677,
                    "duration": 0.14076240000002826
                },
                {
                    "name": "E5",
                    "midi": 76,
                    "time": 267.27260699999755,
                    "velocity": 0.47244094488188976,
                    "duration": 0.14076240000002826
                },
                {
                    "name": "E6",
                    "midi": 88,
                    "time": 267.4485599999976,
                    "velocity": 0.5669291338582677,
                    "duration": 0.08797650000002477
                },
                {
                    "name": "E5",
                    "midi": 76,
                    "time": 267.4485599999976,
                    "velocity": 0.47244094488188976,
                    "duration": 0.08797650000002477
                },
                {
                    "name": "D#6",
                    "midi": 87,
                    "time": 267.62451299999765,
                    "velocity": 0.5669291338582677,
                    "duration": 0.08797650000002477
                },
                {
                    "name": "D#5",
                    "midi": 75,
                    "time": 267.62451299999765,
                    "velocity": 0.47244094488188976,
                    "duration": 0.08797650000002477
                },
                {
                    "name": "B5",
                    "midi": 83,
                    "time": 267.8004659999977,
                    "velocity": 0.5748031496062992,
                    "duration": 0.7038120000000276
                },
                {
                    "name": "G#5",
                    "midi": 80,
                    "time": 267.8004659999977,
                    "velocity": 0.5748031496062992,
                    "duration": 0.7038120000000276
                },
                {
                    "name": "E6",
                    "midi": 88,
                    "time": 267.8004659999977,
                    "velocity": 0.6850393700787402,
                    "duration": 0.7038120000000276
                },
                {
                    "name": "E5",
                    "midi": 76,
                    "time": 267.8004659999977,
                    "velocity": 0.5748031496062992,
                    "duration": 0.7038120000000276
                },
                {
                    "name": "E7",
                    "midi": 100,
                    "time": 268.5042779999977,
                    "velocity": 0.6614173228346457,
                    "duration": 0.1759529999999927
                },
                {
                    "name": "B6",
                    "midi": 95,
                    "time": 268.5042779999977,
                    "velocity": 0.5511811023622047,
                    "duration": 0.1759529999999927
                },
                {
                    "name": "G#6",
                    "midi": 92,
                    "time": 268.5042779999977,
                    "velocity": 0.5511811023622047,
                    "duration": 0.1759529999999927
                },
                {
                    "name": "E6",
                    "midi": 88,
                    "time": 268.5042779999977,
                    "velocity": 0.5511811023622047,
                    "duration": 0.1759529999999927
                },
                {
                    "name": "E5",
                    "midi": 76,
                    "time": 269.12011349999773,
                    "velocity": 0.6850393700787402,
                    "duration": 0.08797650000002477
                },
                {
                    "name": "E4",
                    "midi": 64,
                    "time": 269.12011349999773,
                    "velocity": 0.5748031496062992,
                    "duration": 0.08797650000002477
                },
                {
                    "name": "G#4",
                    "midi": 68,
                    "time": 269.12011349999773,
                    "velocity": 0.5748031496062992,
                    "duration": 0.08797650000002477
                },
                {
                    "name": "B4",
                    "midi": 71,
                    "time": 269.12011349999773,
                    "velocity": 0.5748031496062992,
                    "duration": 0.08797650000002477
                },
                {
                    "name": "E5",
                    "midi": 76,
                    "time": 269.20808999999775,
                    "velocity": 0.7480314960629921,
                    "duration": 0.1759529999999927
                },
                {
                    "name": "E4",
                    "midi": 64,
                    "time": 269.20808999999775,
                    "velocity": 0.6220472440944882,
                    "duration": 0.1759529999999927
                },
                {
                    "name": "G#4",
                    "midi": 68,
                    "time": 269.20808999999775,
                    "velocity": 0.6220472440944882,
                    "duration": 0.1759529999999927
                },
                {
                    "name": "B4",
                    "midi": 71,
                    "time": 269.20808999999775,
                    "velocity": 0.6220472440944882,
                    "duration": 0.1759529999999927
                },
                {
                    "name": "G#4",
                    "midi": 68,
                    "time": 269.9119019999977,
                    "velocity": 0.5748031496062992,
                    "duration": 0.1759529999999927
                },
                {
                    "name": "C#5",
                    "midi": 73,
                    "time": 269.9119019999977,
                    "velocity": 0.5748031496062992,
                    "duration": 0.1759529999999927
                },
                {
                    "name": "G#5",
                    "midi": 80,
                    "time": 269.9119019999977,
                    "velocity": 0.6850393700787402,
                    "duration": 0.1759529999999927
                },
                {
                    "name": "E5",
                    "midi": 76,
                    "time": 269.9119019999977,
                    "velocity": 0.5748031496062992,
                    "duration": 0.1759529999999927
                },
                {
                    "name": "B4",
                    "midi": 71,
                    "time": 270.6157139999977,
                    "velocity": 0.6220472440944882,
                    "duration": 1.055718000000013
                },
                {
                    "name": "B5",
                    "midi": 83,
                    "time": 270.6157139999977,
                    "velocity": 0.7480314960629921,
                    "duration": 1.055718000000013
                },
                {
                    "name": "D#5",
                    "midi": 75,
                    "time": 270.6157139999977,
                    "velocity": 0.6220472440944882,
                    "duration": 1.055718000000013
                },
                {
                    "name": "G#5",
                    "midi": 80,
                    "time": 270.6157139999977,
                    "velocity": 0.6220472440944882,
                    "duration": 1.055718000000013
                },
                {
                    "name": "B4",
                    "midi": 71,
                    "time": 271.6714319999977,
                    "velocity": 0.6220472440944882,
                    "duration": 0.26392950000001747
                },
                {
                    "name": "E5",
                    "midi": 76,
                    "time": 271.6714319999977,
                    "velocity": 0.6220472440944882,
                    "duration": 0.26392950000001747
                },
                {
                    "name": "G#5",
                    "midi": 80,
                    "time": 271.6714319999977,
                    "velocity": 0.6220472440944882,
                    "duration": 0.26392950000001747
                },
                {
                    "name": "B5",
                    "midi": 83,
                    "time": 271.6714319999977,
                    "velocity": 0.7480314960629921,
                    "duration": 0.26392950000001747
                },
                {
                    "name": "E6",
                    "midi": 88,
                    "time": 271.9353614999977,
                    "velocity": 0.6850393700787402,
                    "duration": 0.08797650000002477
                },
                {
                    "name": "E5",
                    "midi": 76,
                    "time": 271.9353614999977,
                    "velocity": 0.5748031496062992,
                    "duration": 0.08797650000002477
                },
                {
                    "name": "B4",
                    "midi": 71,
                    "time": 272.02333799999775,
                    "velocity": 0.6220472440944882,
                    "duration": 0.1759529999999927
                },
                {
                    "name": "G#5",
                    "midi": 80,
                    "time": 272.02333799999775,
                    "velocity": 0.7480314960629921,
                    "duration": 0.1759529999999927
                },
                {
                    "name": "B5",
                    "midi": 83,
                    "time": 272.02333799999775,
                    "velocity": 0.7480314960629921,
                    "duration": 0.1759529999999927
                },
                {
                    "name": "D#5",
                    "midi": 75,
                    "time": 272.02333799999775,
                    "velocity": 0.6220472440944882,
                    "duration": 0.1759529999999927
                },
                {
                    "name": "G#5",
                    "midi": 80,
                    "time": 272.37524399999774,
                    "velocity": 0.6220472440944882,
                    "duration": 0.26392950000001747
                },
                {
                    "name": "B4",
                    "midi": 71,
                    "time": 272.37524399999774,
                    "velocity": 0.6220472440944882,
                    "duration": 0.26392950000001747
                },
                {
                    "name": "E5",
                    "midi": 76,
                    "time": 272.37524399999774,
                    "velocity": 0.6220472440944882,
                    "duration": 0.26392950000001747
                },
                {
                    "name": "B5",
                    "midi": 83,
                    "time": 272.37524399999774,
                    "velocity": 0.7480314960629921,
                    "duration": 0.26392950000001747
                },
                {
                    "name": "E5",
                    "midi": 76,
                    "time": 272.63917349999775,
                    "velocity": 0.5748031496062992,
                    "duration": 0.08797650000002477
                },
                {
                    "name": "E6",
                    "midi": 88,
                    "time": 272.63917349999775,
                    "velocity": 0.6850393700787402,
                    "duration": 0.08797650000002477
                },
                {
                    "name": "B4",
                    "midi": 71,
                    "time": 272.7271499999978,
                    "velocity": 0.6220472440944882,
                    "duration": 0.1759529999999927
                },
                {
                    "name": "D#5",
                    "midi": 75,
                    "time": 272.7271499999978,
                    "velocity": 0.6220472440944882,
                    "duration": 0.1759529999999927
                },
                {
                    "name": "G#5",
                    "midi": 80,
                    "time": 272.7271499999978,
                    "velocity": 0.7480314960629921,
                    "duration": 0.1759529999999927
                },
                {
                    "name": "B5",
                    "midi": 83,
                    "time": 272.7271499999978,
                    "velocity": 0.7480314960629921,
                    "duration": 0.1759529999999927
                },
                {
                    "name": "E5",
                    "midi": 76,
                    "time": 273.07905599999776,
                    "velocity": 0.6220472440944882,
                    "duration": 0.26392950000001747
                },
                {
                    "name": "G#5",
                    "midi": 80,
                    "time": 273.07905599999776,
                    "velocity": 0.6220472440944882,
                    "duration": 0.26392950000001747
                },
                {
                    "name": "B4",
                    "midi": 71,
                    "time": 273.07905599999776,
                    "velocity": 0.6220472440944882,
                    "duration": 0.26392950000001747
                },
                {
                    "name": "B5",
                    "midi": 83,
                    "time": 273.07905599999776,
                    "velocity": 0.7480314960629921,
                    "duration": 0.26392950000001747
                },
                {
                    "name": "E6",
                    "midi": 88,
                    "time": 273.3429854999978,
                    "velocity": 0.6850393700787402,
                    "duration": 0.08797650000002477
                },
                {
                    "name": "E5",
                    "midi": 76,
                    "time": 273.3429854999978,
                    "velocity": 0.5748031496062992,
                    "duration": 0.08797650000002477
                },
                {
                    "name": "B4",
                    "midi": 71,
                    "time": 273.4309619999978,
                    "velocity": 0.6220472440944882,
                    "duration": 1.4076239999999984
                },
                {
                    "name": "B5",
                    "midi": 83,
                    "time": 273.4309619999978,
                    "velocity": 0.7480314960629921,
                    "duration": 1.4076239999999984
                },
                {
                    "name": "D#5",
                    "midi": 75,
                    "time": 273.4309619999978,
                    "velocity": 0.6220472440944882,
                    "duration": 1.4076239999999984
                },
                {
                    "name": "G#5",
                    "midi": 80,
                    "time": 273.4309619999978,
                    "velocity": 0.6220472440944882,
                    "duration": 1.4076239999999984
                },
                {
                    "name": "E6",
                    "midi": 88,
                    "time": 274.8385859999978,
                    "velocity": 0.7795275590551181,
                    "duration": 0.13196475000000873
                },
                {
                    "name": "D5",
                    "midi": 74,
                    "time": 274.8385859999978,
                    "velocity": 0.6614173228346457,
                    "duration": 0.13196475000000873
                },
                {
                    "name": "B5",
                    "midi": 83,
                    "time": 274.8385859999978,
                    "velocity": 0.6614173228346457,
                    "duration": 0.13196475000000873
                },
                {
                    "name": "E5",
                    "midi": 76,
                    "time": 274.8385859999978,
                    "velocity": 0.6614173228346457,
                    "duration": 0.13196475000000873
                },
                {
                    "name": "G#5",
                    "midi": 80,
                    "time": 274.8385859999978,
                    "velocity": 0.6614173228346457,
                    "duration": 0.13196475000000873
                },
                {
                    "name": "C7",
                    "midi": 96,
                    "time": 276.2462099999978,
                    "velocity": 0.6220472440944882,
                    "duration": 0.13196475000000873
                },
                {
                    "name": "A6",
                    "midi": 93,
                    "time": 276.2462099999978,
                    "velocity": 0.6220472440944882,
                    "duration": 0.13196475000000873
                },
                {
                    "name": "G6",
                    "midi": 91,
                    "time": 276.3781747499978,
                    "velocity": 0.47244094488188976,
                    "duration": 0.043988249999983964
                },
                {
                    "name": "B6",
                    "midi": 95,
                    "time": 276.3781747499978,
                    "velocity": 0.47244094488188976,
                    "duration": 0.043988249999983964
                },
                {
                    "name": "A6",
                    "midi": 93,
                    "time": 276.4221629999978,
                    "velocity": 0.4645669291338583,
                    "duration": 0.08797650000002477
                },
                {
                    "name": "F6",
                    "midi": 89,
                    "time": 276.4221629999978,
                    "velocity": 0.4645669291338583,
                    "duration": 0.08797650000002477
                },
                {
                    "name": "G6",
                    "midi": 91,
                    "time": 276.5101394999978,
                    "velocity": 0.4566929133858268,
                    "duration": 0.08797650000002477
                },
                {
                    "name": "E6",
                    "midi": 88,
                    "time": 276.5101394999978,
                    "velocity": 0.4566929133858268,
                    "duration": 0.08797650000002477
                },
                {
                    "name": "F6",
                    "midi": 89,
                    "time": 276.59811599999784,
                    "velocity": 0.44881889763779526,
                    "duration": 0.08797650000002477
                },
                {
                    "name": "D6",
                    "midi": 86,
                    "time": 276.59811599999784,
                    "velocity": 0.44881889763779526,
                    "duration": 0.08797650000002477
                },
                {
                    "name": "E6",
                    "midi": 88,
                    "time": 276.68609249999787,
                    "velocity": 0.4409448818897638,
                    "duration": 0.08797650000002477
                },
                {
                    "name": "C6",
                    "midi": 84,
                    "time": 276.68609249999787,
                    "velocity": 0.4409448818897638,
                    "duration": 0.08797650000002477
                },
                {
                    "name": "D6",
                    "midi": 86,
                    "time": 276.7740689999979,
                    "velocity": 0.4251968503937008,
                    "duration": 0.08797650000002477
                },
                {
                    "name": "B5",
                    "midi": 83,
                    "time": 276.7740689999979,
                    "velocity": 0.4251968503937008,
                    "duration": 0.08797650000002477
                },
                {
                    "name": "C6",
                    "midi": 84,
                    "time": 276.8620454999979,
                    "velocity": 0.41732283464566927,
                    "duration": 0.08797650000002477
                },
                {
                    "name": "A5",
                    "midi": 81,
                    "time": 276.8620454999979,
                    "velocity": 0.41732283464566927,
                    "duration": 0.08797650000002477
                },
                {
                    "name": "B5",
                    "midi": 83,
                    "time": 276.95002199999794,
                    "velocity": 0.4015748031496063,
                    "duration": 0.05058648750002703
                },
                {
                    "name": "G5",
                    "midi": 79,
                    "time": 276.95002199999794,
                    "velocity": 0.4015748031496063,
                    "duration": 0.05058648750002703
                },
                {
                    "name": "A5",
                    "midi": 81,
                    "time": 277.00060848749797,
                    "velocity": 0.4015748031496063,
                    "duration": 0.049853349999978036
                },
                {
                    "name": "F5",
                    "midi": 77,
                    "time": 277.00060848749797,
                    "velocity": 0.4015748031496063,
                    "duration": 0.049853349999978036
                },
                {
                    "name": "G5",
                    "midi": 79,
                    "time": 277.05046183749795,
                    "velocity": 0.3937007874015748,
                    "duration": 0.05058648749997019
                },
                {
                    "name": "E5",
                    "midi": 76,
                    "time": 277.05046183749795,
                    "velocity": 0.3937007874015748,
                    "duration": 0.05058648749997019
                },
                {
                    "name": "F5",
                    "midi": 77,
                    "time": 277.1003151874979,
                    "velocity": 0.3937007874015748,
                    "duration": 0.05058648749997019
                },
                {
                    "name": "D5",
                    "midi": 74,
                    "time": 277.1003151874979,
                    "velocity": 0.3937007874015748,
                    "duration": 0.05058648749997019
                },
                {
                    "name": "C5",
                    "midi": 72,
                    "time": 277.1509016749979,
                    "velocity": 0.3858267716535433,
                    "duration": 0.049853349999978036
                },
                {
                    "name": "E5",
                    "midi": 76,
                    "time": 277.1509016749979,
                    "velocity": 0.3858267716535433,
                    "duration": 0.049853349999978036
                },
                {
                    "name": "B4",
                    "midi": 71,
                    "time": 277.2007550249979,
                    "velocity": 0.3779527559055118,
                    "duration": 0.05058648750002703
                },
                {
                    "name": "D5",
                    "midi": 74,
                    "time": 277.2007550249979,
                    "velocity": 0.3779527559055118,
                    "duration": 0.05058648750002703
                },
                {
                    "name": "A4",
                    "midi": 69,
                    "time": 277.2513415124979,
                    "velocity": 0.3700787401574803,
                    "duration": 0.049853349999978036
                },
                {
                    "name": "C5",
                    "midi": 72,
                    "time": 277.2513415124979,
                    "velocity": 0.3700787401574803,
                    "duration": 0.049853349999978036
                },
                {
                    "name": "B4",
                    "midi": 71,
                    "time": 277.3019279999979,
                    "velocity": 0.3700787401574803,
                    "duration": 0.1759529999999927
                },
                {
                    "name": "G4",
                    "midi": 67,
                    "time": 277.3019279999979,
                    "velocity": 0.3700787401574803,
                    "duration": 0.1759529999999927
                },
                {
                    "name": "A6",
                    "midi": 93,
                    "time": 277.65383399999786,
                    "velocity": 0.6220472440944882,
                    "duration": 0.13196475000000873
                },
                {
                    "name": "F6",
                    "midi": 89,
                    "time": 277.65383399999786,
                    "velocity": 0.6220472440944882,
                    "duration": 0.13196475000000873
                },
                {
                    "name": "E6",
                    "midi": 88,
                    "time": 277.78579874999787,
                    "velocity": 0.47244094488188976,
                    "duration": 0.043988249999983964
                },
                {
                    "name": "G6",
                    "midi": 91,
                    "time": 277.78579874999787,
                    "velocity": 0.47244094488188976,
                    "duration": 0.043988249999983964
                },
                {
                    "name": "F6",
                    "midi": 89,
                    "time": 277.82978699999785,
                    "velocity": 0.4645669291338583,
                    "duration": 0.08797650000002477
                },
                {
                    "name": "D6",
                    "midi": 86,
                    "time": 277.82978699999785,
                    "velocity": 0.4645669291338583,
                    "duration": 0.08797650000002477
                },
                {
                    "name": "E6",
                    "midi": 88,
                    "time": 277.9177634999979,
                    "velocity": 0.4566929133858268,
                    "duration": 0.08797650000002477
                },
                {
                    "name": "C6",
                    "midi": 84,
                    "time": 277.9177634999979,
                    "velocity": 0.4566929133858268,
                    "duration": 0.08797650000002477
                },
                {
                    "name": "D6",
                    "midi": 86,
                    "time": 278.0057399999979,
                    "velocity": 0.44881889763779526,
                    "duration": 0.08797650000002477
                },
                {
                    "name": "B5",
                    "midi": 83,
                    "time": 278.0057399999979,
                    "velocity": 0.44881889763779526,
                    "duration": 0.08797650000002477
                },
                {
                    "name": "C6",
                    "midi": 84,
                    "time": 278.0937164999979,
                    "velocity": 0.4330708661417323,
                    "duration": 0.08797650000002477
                },
                {
                    "name": "A5",
                    "midi": 81,
                    "time": 278.0937164999979,
                    "velocity": 0.4330708661417323,
                    "duration": 0.08797650000002477
                },
                {
                    "name": "B5",
                    "midi": 83,
                    "time": 278.18169299999795,
                    "velocity": 0.4251968503937008,
                    "duration": 0.08797650000002477
                },
                {
                    "name": "G5",
                    "midi": 79,
                    "time": 278.18169299999795,
                    "velocity": 0.4251968503937008,
                    "duration": 0.08797650000002477
                },
                {
                    "name": "A5",
                    "midi": 81,
                    "time": 278.269669499998,
                    "velocity": 0.4094488188976378,
                    "duration": 0.08797650000002477
                },
                {
                    "name": "F5",
                    "midi": 77,
                    "time": 278.269669499998,
                    "velocity": 0.4094488188976378,
                    "duration": 0.08797650000002477
                },
                {
                    "name": "G5",
                    "midi": 79,
                    "time": 278.357645999998,
                    "velocity": 0.3937007874015748,
                    "duration": 0.05058648750002703
                },
                {
                    "name": "E5",
                    "midi": 76,
                    "time": 278.357645999998,
                    "velocity": 0.3937007874015748,
                    "duration": 0.05058648750002703
                },
                {
                    "name": "F5",
                    "midi": 77,
                    "time": 278.408232487498,
                    "velocity": 0.3858267716535433,
                    "duration": 0.049853349999978036
                },
                {
                    "name": "D5",
                    "midi": 74,
                    "time": 278.408232487498,
                    "velocity": 0.3858267716535433,
                    "duration": 0.049853349999978036
                },
                {
                    "name": "E5",
                    "midi": 76,
                    "time": 278.458085837498,
                    "velocity": 0.3779527559055118,
                    "duration": 0.05058648749997019
                },
                {
                    "name": "C5",
                    "midi": 72,
                    "time": 278.458085837498,
                    "velocity": 0.3779527559055118,
                    "duration": 0.05058648749997019
                },
                {
                    "name": "D5",
                    "midi": 74,
                    "time": 278.507939187498,
                    "velocity": 0.3700787401574803,
                    "duration": 0.05058648749997019
                },
                {
                    "name": "B4",
                    "midi": 71,
                    "time": 278.507939187498,
                    "velocity": 0.3700787401574803,
                    "duration": 0.05058648749997019
                },
                {
                    "name": "A4",
                    "midi": 69,
                    "time": 278.55852567499795,
                    "velocity": 0.36220472440944884,
                    "duration": 0.049853349999978036
                },
                {
                    "name": "C5",
                    "midi": 72,
                    "time": 278.55852567499795,
                    "velocity": 0.36220472440944884,
                    "duration": 0.049853349999978036
                },
                {
                    "name": "G4",
                    "midi": 67,
                    "time": 278.60837902499793,
                    "velocity": 0.3543307086614173,
                    "duration": 0.05058648750002703
                },
                {
                    "name": "B4",
                    "midi": 71,
                    "time": 278.60837902499793,
                    "velocity": 0.3543307086614173,
                    "duration": 0.05058648750002703
                },
                {
                    "name": "F4",
                    "midi": 65,
                    "time": 278.65896551249796,
                    "velocity": 0.33858267716535434,
                    "duration": 0.049853349999978036
                },
                {
                    "name": "A4",
                    "midi": 69,
                    "time": 278.65896551249796,
                    "velocity": 0.33858267716535434,
                    "duration": 0.049853349999978036
                },
                {
                    "name": "G4",
                    "midi": 67,
                    "time": 278.7095519999979,
                    "velocity": 0.33070866141732286,
                    "duration": 0.1759529999999927
                },
                {
                    "name": "E4",
                    "midi": 64,
                    "time": 278.7095519999979,
                    "velocity": 0.33070866141732286,
                    "duration": 0.1759529999999927
                },
                {
                    "name": "F6",
                    "midi": 89,
                    "time": 279.0614579999979,
                    "velocity": 0.6220472440944882,
                    "duration": 0.13196475000000873
                },
                {
                    "name": "D6",
                    "midi": 86,
                    "time": 279.0614579999979,
                    "velocity": 0.6220472440944882,
                    "duration": 0.13196475000000873
                },
                {
                    "name": "C6",
                    "midi": 84,
                    "time": 279.1934227499979,
                    "velocity": 0.48031496062992124,
                    "duration": 0.043988249999983964
                },
                {
                    "name": "E6",
                    "midi": 88,
                    "time": 279.1934227499979,
                    "velocity": 0.48031496062992124,
                    "duration": 0.043988249999983964
                },
                {
                    "name": "D6",
                    "midi": 86,
                    "time": 279.2374109999979,
                    "velocity": 0.47244094488188976,
                    "duration": 0.08797650000002477
                },
                {
                    "name": "B5",
                    "midi": 83,
                    "time": 279.2374109999979,
                    "velocity": 0.47244094488188976,
                    "duration": 0.08797650000002477
                },
                {
                    "name": "C6",
                    "midi": 84,
                    "time": 279.32538749999793,
                    "velocity": 0.4645669291338583,
                    "duration": 0.08797650000002477
                },
                {
                    "name": "A5",
                    "midi": 81,
                    "time": 279.32538749999793,
                    "velocity": 0.4645669291338583,
                    "duration": 0.08797650000002477
                },
                {
                    "name": "B5",
                    "midi": 83,
                    "time": 279.41336399999796,
                    "velocity": 0.4566929133858268,
                    "duration": 0.08797650000002477
                },
                {
                    "name": "G5",
                    "midi": 79,
                    "time": 279.41336399999796,
                    "velocity": 0.4566929133858268,
                    "duration": 0.08797650000002477
                },
                {
                    "name": "A5",
                    "midi": 81,
                    "time": 279.501340499998,
                    "velocity": 0.44881889763779526,
                    "duration": 0.08797650000002477
                },
                {
                    "name": "F5",
                    "midi": 77,
                    "time": 279.501340499998,
                    "velocity": 0.44881889763779526,
                    "duration": 0.08797650000002477
                },
                {
                    "name": "G5",
                    "midi": 79,
                    "time": 279.589316999998,
                    "velocity": 0.4330708661417323,
                    "duration": 0.08797650000002477
                },
                {
                    "name": "E5",
                    "midi": 76,
                    "time": 279.589316999998,
                    "velocity": 0.4330708661417323,
                    "duration": 0.08797650000002477
                },
                {
                    "name": "F5",
                    "midi": 77,
                    "time": 279.67729349999803,
                    "velocity": 0.4251968503937008,
                    "duration": 0.08797650000002477
                },
                {
                    "name": "D5",
                    "midi": 74,
                    "time": 279.67729349999803,
                    "velocity": 0.4251968503937008,
                    "duration": 0.08797650000002477
                },
                {
                    "name": "E5",
                    "midi": 76,
                    "time": 279.76526999999805,
                    "velocity": 0.41732283464566927,
                    "duration": 0.05058648750002703
                },
                {
                    "name": "C5",
                    "midi": 72,
                    "time": 279.76526999999805,
                    "velocity": 0.41732283464566927,
                    "duration": 0.05058648750002703
                },
                {
                    "name": "D5",
                    "midi": 74,
                    "time": 279.8158564874981,
                    "velocity": 0.4094488188976378,
                    "duration": 0.049853349999978036
                },
                {
                    "name": "B4",
                    "midi": 71,
                    "time": 279.8158564874981,
                    "velocity": 0.4094488188976378,
                    "duration": 0.049853349999978036
                },
                {
                    "name": "C5",
                    "midi": 72,
                    "time": 279.86570983749806,
                    "velocity": 0.4015748031496063,
                    "duration": 0.05058648749997019
                },
                {
                    "name": "A4",
                    "midi": 69,
                    "time": 279.86570983749806,
                    "velocity": 0.4015748031496063,
                    "duration": 0.05058648749997019
                },
                {
                    "name": "B4",
                    "midi": 71,
                    "time": 279.91556318749804,
                    "velocity": 0.3937007874015748,
                    "duration": 0.05058648749997019
                },
                {
                    "name": "G4",
                    "midi": 67,
                    "time": 279.91556318749804,
                    "velocity": 0.3937007874015748,
                    "duration": 0.05058648749997019
                },
                {
                    "name": "F4",
                    "midi": 65,
                    "time": 279.966149674998,
                    "velocity": 0.3858267716535433,
                    "duration": 0.049853349999978036
                },
                {
                    "name": "A4",
                    "midi": 69,
                    "time": 279.966149674998,
                    "velocity": 0.3858267716535433,
                    "duration": 0.049853349999978036
                },
                {
                    "name": "E4",
                    "midi": 64,
                    "time": 280.016003024998,
                    "velocity": 0.3700787401574803,
                    "duration": 0.05058648750002703
                },
                {
                    "name": "G4",
                    "midi": 67,
                    "time": 280.016003024998,
                    "velocity": 0.3700787401574803,
                    "duration": 0.05058648750002703
                },
                {
                    "name": "D4",
                    "midi": 62,
                    "time": 280.066589512498,
                    "velocity": 0.36220472440944884,
                    "duration": 0.049853349999978036
                },
                {
                    "name": "F4",
                    "midi": 65,
                    "time": 280.066589512498,
                    "velocity": 0.36220472440944884,
                    "duration": 0.049853349999978036
                },
                {
                    "name": "E4",
                    "midi": 64,
                    "time": 280.117175999998,
                    "velocity": 0.3543307086614173,
                    "duration": 0.1759529999999927
                },
                {
                    "name": "C4",
                    "midi": 60,
                    "time": 280.117175999998,
                    "velocity": 0.3543307086614173,
                    "duration": 0.1759529999999927
                },
                {
                    "name": "D6",
                    "midi": 86,
                    "time": 280.46908199999797,
                    "velocity": 0.6220472440944882,
                    "duration": 0.13196475000000873
                },
                {
                    "name": "B5",
                    "midi": 83,
                    "time": 280.46908199999797,
                    "velocity": 0.6220472440944882,
                    "duration": 0.13196475000000873
                },
                {
                    "name": "A5",
                    "midi": 81,
                    "time": 280.601046749998,
                    "velocity": 0.4645669291338583,
                    "duration": 0.043988249999983964
                },
                {
                    "name": "C6",
                    "midi": 84,
                    "time": 280.601046749998,
                    "velocity": 0.4645669291338583,
                    "duration": 0.043988249999983964
                },
                {
                    "name": "B5",
                    "midi": 83,
                    "time": 280.64503499999796,
                    "velocity": 0.4566929133858268,
                    "duration": 0.08797650000002477
                },
                {
                    "name": "G5",
                    "midi": 79,
                    "time": 280.64503499999796,
                    "velocity": 0.4566929133858268,
                    "duration": 0.08797650000002477
                },
                {
                    "name": "A5",
                    "midi": 81,
                    "time": 280.733011499998,
                    "velocity": 0.44881889763779526,
                    "duration": 0.08797650000002477
                },
                {
                    "name": "F5",
                    "midi": 77,
                    "time": 280.733011499998,
                    "velocity": 0.44881889763779526,
                    "duration": 0.08797650000002477
                },
                {
                    "name": "G5",
                    "midi": 79,
                    "time": 280.820987999998,
                    "velocity": 0.4409448818897638,
                    "duration": 0.08797650000002477
                },
                {
                    "name": "E5",
                    "midi": 76,
                    "time": 280.820987999998,
                    "velocity": 0.4409448818897638,
                    "duration": 0.08797650000002477
                },
                {
                    "name": "F5",
                    "midi": 77,
                    "time": 280.90896449999804,
                    "velocity": 0.4251968503937008,
                    "duration": 0.08797650000002477
                },
                {
                    "name": "D5",
                    "midi": 74,
                    "time": 280.90896449999804,
                    "velocity": 0.4251968503937008,
                    "duration": 0.08797650000002477
                },
                {
                    "name": "E5",
                    "midi": 76,
                    "time": 280.99694099999806,
                    "velocity": 0.41732283464566927,
                    "duration": 0.08797650000002477
                },
                {
                    "name": "C5",
                    "midi": 72,
                    "time": 280.99694099999806,
                    "velocity": 0.41732283464566927,
                    "duration": 0.08797650000002477
                },
                {
                    "name": "D5",
                    "midi": 74,
                    "time": 281.0849174999981,
                    "velocity": 0.4094488188976378,
                    "duration": 0.08797650000002477
                },
                {
                    "name": "B4",
                    "midi": 71,
                    "time": 281.0849174999981,
                    "velocity": 0.4094488188976378,
                    "duration": 0.08797650000002477
                },
                {
                    "name": "C5",
                    "midi": 72,
                    "time": 281.1728939999981,
                    "velocity": 0.4015748031496063,
                    "duration": 0.05058648750002703
                },
                {
                    "name": "A4",
                    "midi": 69,
                    "time": 281.1728939999981,
                    "velocity": 0.4015748031496063,
                    "duration": 0.05058648750002703
                },
                {
                    "name": "B4",
                    "midi": 71,
                    "time": 281.22348048749814,
                    "velocity": 0.3937007874015748,
                    "duration": 0.049853349999978036
                },
                {
                    "name": "G4",
                    "midi": 67,
                    "time": 281.22348048749814,
                    "velocity": 0.3937007874015748,
                    "duration": 0.049853349999978036
                },
                {
                    "name": "A4",
                    "midi": 69,
                    "time": 281.2733338374981,
                    "velocity": 0.3858267716535433,
                    "duration": 0.05058648749997019
                },
                {
                    "name": "F4",
                    "midi": 65,
                    "time": 281.2733338374981,
                    "velocity": 0.3858267716535433,
                    "duration": 0.05058648749997019
                },
                {
                    "name": "G4",
                    "midi": 67,
                    "time": 281.3231871874981,
                    "velocity": 0.3858267716535433,
                    "duration": 0.05058648749997019
                },
                {
                    "name": "E4",
                    "midi": 64,
                    "time": 281.3231871874981,
                    "velocity": 0.3858267716535433,
                    "duration": 0.05058648749997019
                },
                {
                    "name": "D4",
                    "midi": 62,
                    "time": 281.37377367499806,
                    "velocity": 0.3779527559055118,
                    "duration": 0.049853349999978036
                },
                {
                    "name": "F4",
                    "midi": 65,
                    "time": 281.37377367499806,
                    "velocity": 0.3779527559055118,
                    "duration": 0.049853349999978036
                },
                {
                    "name": "C4",
                    "midi": 60,
                    "time": 281.42362702499804,
                    "velocity": 0.3700787401574803,
                    "duration": 0.05058648750002703
                },
                {
                    "name": "E4",
                    "midi": 64,
                    "time": 281.42362702499804,
                    "velocity": 0.3700787401574803,
                    "duration": 0.05058648750002703
                },
                {
                    "name": "B3",
                    "midi": 59,
                    "time": 281.47421351249807,
                    "velocity": 0.3543307086614173,
                    "duration": 0.049853349999978036
                },
                {
                    "name": "D4",
                    "midi": 62,
                    "time": 281.47421351249807,
                    "velocity": 0.3543307086614173,
                    "duration": 0.049853349999978036
                },
                {
                    "name": "C4",
                    "midi": 60,
                    "time": 281.52479999999804,
                    "velocity": 0.3464566929133858,
                    "duration": 0.1759529999999927
                },
                {
                    "name": "A3",
                    "midi": 57,
                    "time": 281.52479999999804,
                    "velocity": 0.3464566929133858,
                    "duration": 0.1759529999999927
                },
                {
                    "name": "B5",
                    "midi": 83,
                    "time": 281.876705999998,
                    "velocity": 0.6220472440944882,
                    "duration": 0.13196475000000873
                },
                {
                    "name": "G5",
                    "midi": 79,
                    "time": 281.876705999998,
                    "velocity": 0.6220472440944882,
                    "duration": 0.13196475000000873
                },
                {
                    "name": "F5",
                    "midi": 77,
                    "time": 282.00867074999803,
                    "velocity": 0.4881889763779528,
                    "duration": 0.043988249999983964
                },
                {
                    "name": "A5",
                    "midi": 81,
                    "time": 282.00867074999803,
                    "velocity": 0.4881889763779528,
                    "duration": 0.043988249999983964
                },
                {
                    "name": "G5",
                    "midi": 79,
                    "time": 282.052658999998,
                    "velocity": 0.48031496062992124,
                    "duration": 0.08797650000002477
                },
                {
                    "name": "E5",
                    "midi": 76,
                    "time": 282.052658999998,
                    "velocity": 0.48031496062992124,
                    "duration": 0.08797650000002477
                },
                {
                    "name": "F5",
                    "midi": 77,
                    "time": 282.14063549999804,
                    "velocity": 0.4645669291338583,
                    "duration": 0.08797650000002477
                },
                {
                    "name": "D5",
                    "midi": 74,
                    "time": 282.14063549999804,
                    "velocity": 0.4645669291338583,
                    "duration": 0.08797650000002477
                },
                {
                    "name": "E5",
                    "midi": 76,
                    "time": 282.22861199999807,
                    "velocity": 0.44881889763779526,
                    "duration": 0.08797650000002477
                },
                {
                    "name": "C5",
                    "midi": 72,
                    "time": 282.22861199999807,
                    "velocity": 0.44881889763779526,
                    "duration": 0.08797650000002477
                },
                {
                    "name": "D5",
                    "midi": 74,
                    "time": 282.3165884999981,
                    "velocity": 0.4409448818897638,
                    "duration": 0.08797650000002477
                },
                {
                    "name": "B4",
                    "midi": 71,
                    "time": 282.3165884999981,
                    "velocity": 0.4409448818897638,
                    "duration": 0.08797650000002477
                },
                {
                    "name": "C5",
                    "midi": 72,
                    "time": 282.4045649999981,
                    "velocity": 0.4251968503937008,
                    "duration": 0.08797650000002477
                },
                {
                    "name": "A4",
                    "midi": 69,
                    "time": 282.4045649999981,
                    "velocity": 0.4251968503937008,
                    "duration": 0.08797650000002477
                },
                {
                    "name": "B4",
                    "midi": 71,
                    "time": 282.49254149999814,
                    "velocity": 0.41732283464566927,
                    "duration": 0.08797650000002477
                },
                {
                    "name": "G4",
                    "midi": 67,
                    "time": 282.49254149999814,
                    "velocity": 0.41732283464566927,
                    "duration": 0.08797650000002477
                },
                {
                    "name": "A4",
                    "midi": 69,
                    "time": 282.58051799999816,
                    "velocity": 0.3937007874015748,
                    "duration": 0.05058648750002703
                },
                {
                    "name": "F4",
                    "midi": 65,
                    "time": 282.58051799999816,
                    "velocity": 0.3937007874015748,
                    "duration": 0.05058648750002703
                },
                {
                    "name": "G4",
                    "midi": 67,
                    "time": 282.6311044874982,
                    "velocity": 0.3858267716535433,
                    "duration": 0.049853349999978036
                },
                {
                    "name": "E4",
                    "midi": 64,
                    "time": 282.6311044874982,
                    "velocity": 0.3858267716535433,
                    "duration": 0.049853349999978036
                },
                {
                    "name": "F4",
                    "midi": 65,
                    "time": 282.68095783749817,
                    "velocity": 0.3779527559055118,
                    "duration": 0.05058648749997019
                },
                {
                    "name": "D4",
                    "midi": 62,
                    "time": 282.68095783749817,
                    "velocity": 0.3779527559055118,
                    "duration": 0.05058648749997019
                },
                {
                    "name": "E4",
                    "midi": 64,
                    "time": 282.73081118749815,
                    "velocity": 0.3700787401574803,
                    "duration": 0.05058648749997019
                },
                {
                    "name": "C4",
                    "midi": 60,
                    "time": 282.73081118749815,
                    "velocity": 0.3700787401574803,
                    "duration": 0.05058648749997019
                },
                {
                    "name": "B3",
                    "midi": 59,
                    "time": 282.7813976749981,
                    "velocity": 0.36220472440944884,
                    "duration": 0.049853349999978036
                },
                {
                    "name": "D4",
                    "midi": 62,
                    "time": 282.7813976749981,
                    "velocity": 0.36220472440944884,
                    "duration": 0.049853349999978036
                },
                {
                    "name": "A3",
                    "midi": 57,
                    "time": 282.8312510249981,
                    "velocity": 0.3543307086614173,
                    "duration": 0.05058648750002703
                },
                {
                    "name": "C4",
                    "midi": 60,
                    "time": 282.8312510249981,
                    "velocity": 0.3543307086614173,
                    "duration": 0.05058648750002703
                },
                {
                    "name": "G3",
                    "midi": 55,
                    "time": 282.8818375124981,
                    "velocity": 0.3464566929133858,
                    "duration": 0.049853349999978036
                },
                {
                    "name": "B3",
                    "midi": 59,
                    "time": 282.8818375124981,
                    "velocity": 0.3464566929133858,
                    "duration": 0.049853349999978036
                },
                {
                    "name": "A3",
                    "midi": 57,
                    "time": 282.9324239999981,
                    "velocity": 0.33858267716535434,
                    "duration": 0.1759529999999927
                },
                {
                    "name": "F3",
                    "midi": 53,
                    "time": 282.9324239999981,
                    "velocity": 0.33858267716535434,
                    "duration": 0.1759529999999927
                },
                {
                    "name": "E3",
                    "midi": 52,
                    "time": 283.4016319999981,
                    "velocity": 0.5748031496062992,
                    "duration": 0.11730199999999513
                },
                {
                    "name": "G#3",
                    "midi": 56,
                    "time": 283.51893399999807,
                    "velocity": 0.5905511811023622,
                    "duration": 0.11730199999999513
                },
                {
                    "name": "E4",
                    "midi": 64,
                    "time": 283.63623599999806,
                    "velocity": 0.6062992125984252,
                    "duration": 0.10557180000000699
                },
                {
                    "name": "E4",
                    "midi": 64,
                    "time": 283.75353799999806,
                    "velocity": 0.5669291338582677,
                    "duration": 0.11730199999999513
                },
                {
                    "name": "G#4",
                    "midi": 68,
                    "time": 283.87083999999805,
                    "velocity": 0.5669291338582677,
                    "duration": 0.11730199999999513
                },
                {
                    "name": "E4",
                    "midi": 64,
                    "time": 283.98814199999805,
                    "velocity": 0.6062992125984252,
                    "duration": 0.10557180000000699
                },
                {
                    "name": "E4",
                    "midi": 64,
                    "time": 284.10544399999804,
                    "velocity": 0.5826771653543307,
                    "duration": 0.11730199999999513
                },
                {
                    "name": "G#4",
                    "midi": 68,
                    "time": 284.22274599999804,
                    "velocity": 0.5826771653543307,
                    "duration": 0.11730199999999513
                },
                {
                    "name": "E5",
                    "midi": 76,
                    "time": 284.34004799999803,
                    "velocity": 0.6062992125984252,
                    "duration": 0.10557180000000699
                },
                {
                    "name": "E5",
                    "midi": 76,
                    "time": 284.45734999999803,
                    "velocity": 0.5826771653543307,
                    "duration": 0.11730199999999513
                },
                {
                    "name": "G#5",
                    "midi": 80,
                    "time": 284.574651999998,
                    "velocity": 0.5826771653543307,
                    "duration": 0.11730199999999513
                },
                {
                    "name": "E5",
                    "midi": 76,
                    "time": 284.691953999998,
                    "velocity": 0.6062992125984252,
                    "duration": 0.10557180000000699
                },
                {
                    "name": "E5",
                    "midi": 76,
                    "time": 284.809255999998,
                    "velocity": 0.5748031496062992,
                    "duration": 0.11730199999999513
                },
                {
                    "name": "G#5",
                    "midi": 80,
                    "time": 284.926557999998,
                    "velocity": 0.5905511811023622,
                    "duration": 0.11730199999999513
                },
                {
                    "name": "E6",
                    "midi": 88,
                    "time": 285.043859999998,
                    "velocity": 0.6062992125984252,
                    "duration": 0.10557180000000699
                },
                {
                    "name": "E6",
                    "midi": 88,
                    "time": 285.161161999998,
                    "velocity": 0.5669291338582677,
                    "duration": 0.11730199999999513
                },
                {
                    "name": "G#6",
                    "midi": 92,
                    "time": 285.278463999998,
                    "velocity": 0.5669291338582677,
                    "duration": 0.11730199999999513
                },
                {
                    "name": "E6",
                    "midi": 88,
                    "time": 285.395765999998,
                    "velocity": 0.6062992125984252,
                    "duration": 0.10557180000000699
                },
                {
                    "name": "E6",
                    "midi": 88,
                    "time": 285.513067999998,
                    "velocity": 0.5826771653543307,
                    "duration": 0.11730199999999513
                },
                {
                    "name": "G#6",
                    "midi": 92,
                    "time": 285.630369999998,
                    "velocity": 0.5826771653543307,
                    "duration": 0.11730199999999513
                },
                {
                    "name": "E7",
                    "midi": 100,
                    "time": 285.747671999998,
                    "velocity": 0.6062992125984252,
                    "duration": 0.11730199999999513
                },
                {
                    "name": "G#6",
                    "midi": 92,
                    "time": 285.86497399999797,
                    "velocity": 0.5826771653543307,
                    "duration": 0.11730199999999513
                },
                {
                    "name": "G#7",
                    "midi": 104,
                    "time": 285.98227599999797,
                    "velocity": 0.5826771653543307,
                    "duration": 0.11730199999999513
                },
                {
                    "name": "E6",
                    "midi": 88,
                    "time": 286.09957799999796,
                    "velocity": 0.6062992125984252,
                    "duration": 0.11730199999999513
                },
                {
                    "name": "E7",
                    "midi": 100,
                    "time": 286.21687999999796,
                    "velocity": 0.5748031496062992,
                    "duration": 0.11730199999999513
                },
                {
                    "name": "G#6",
                    "midi": 92,
                    "time": 286.33418199999795,
                    "velocity": 0.5905511811023622,
                    "duration": 0.11730199999999513
                },
                {
                    "name": "G#7",
                    "midi": 104,
                    "time": 286.45148399999795,
                    "velocity": 0.6141732283464567,
                    "duration": 0.11730199999999513
                },
                {
                    "name": "E6",
                    "midi": 88,
                    "time": 286.56878599999794,
                    "velocity": 0.5826771653543307,
                    "duration": 0.11730199999999513
                },
                {
                    "name": "E7",
                    "midi": 100,
                    "time": 286.68608799999794,
                    "velocity": 0.5826771653543307,
                    "duration": 0.11730199999999513
                },
                {
                    "name": "G#6",
                    "midi": 92,
                    "time": 286.80338999999793,
                    "velocity": 0.6614173228346457,
                    "duration": 0.11730199999999513
                },
                {
                    "name": "G#7",
                    "midi": 104,
                    "time": 286.9206919999979,
                    "velocity": 0.6220472440944882,
                    "duration": 0.11730199999999513
                },
                {
                    "name": "E6",
                    "midi": 88,
                    "time": 287.0379939999979,
                    "velocity": 0.6220472440944882,
                    "duration": 0.11730199999999513
                },
                {
                    "name": "E7",
                    "midi": 100,
                    "time": 287.1552959999979,
                    "velocity": 0.6850393700787402,
                    "duration": 0.11730199999999513
                },
                {
                    "name": "G#6",
                    "midi": 92,
                    "time": 287.2725979999979,
                    "velocity": 0.6535433070866141,
                    "duration": 0.11730199999999513
                },
                {
                    "name": "G#7",
                    "midi": 104,
                    "time": 287.3898999999979,
                    "velocity": 0.6535433070866141,
                    "duration": 0.11730199999999513
                },
                {
                    "name": "E6",
                    "midi": 88,
                    "time": 287.5072019999979,
                    "velocity": 0.7165354330708661,
                    "duration": 0.3519059999999854
                },
                {
                    "name": "E7",
                    "midi": 100,
                    "time": 287.8591079999979,
                    "velocity": 0.7716535433070866,
                    "duration": 0.08797650000002477
                },
                {
                    "name": "G#6",
                    "midi": 92,
                    "time": 287.8591079999979,
                    "velocity": 0.6535433070866141,
                    "duration": 0.08797650000002477
                },
                {
                    "name": "B6",
                    "midi": 95,
                    "time": 287.8591079999979,
                    "velocity": 0.6535433070866141,
                    "duration": 0.08797650000002477
                },
                {
                    "name": "E5",
                    "midi": 76,
                    "time": 288.3869669999979,
                    "velocity": 0.6377952755905512,
                    "duration": 0.1759529999999927
                },
                {
                    "name": "E4",
                    "midi": 64,
                    "time": 288.3869669999979,
                    "velocity": 0.5354330708661418,
                    "duration": 0.1759529999999927
                },
                {
                    "name": "F#5",
                    "midi": 78,
                    "time": 288.5629199999979,
                    "velocity": 0.6771653543307087,
                    "duration": 0.1759529999999927
                },
                {
                    "name": "F#4",
                    "midi": 66,
                    "time": 288.5629199999979,
                    "velocity": 0.5748031496062992,
                    "duration": 0.1759529999999927
                },
                {
                    "name": "G#5",
                    "midi": 80,
                    "time": 288.7388729999979,
                    "velocity": 0.7086614173228346,
                    "duration": 0.1759529999999927
                },
                {
                    "name": "G#4",
                    "midi": 68,
                    "time": 288.7388729999979,
                    "velocity": 0.5984251968503937,
                    "duration": 0.1759529999999927
                },
                {
                    "name": "C5",
                    "midi": 72,
                    "time": 288.9148259999979,
                    "velocity": 0.6220472440944882,
                    "duration": 0.1759529999999927
                },
                {
                    "name": "A5",
                    "midi": 81,
                    "time": 288.9148259999979,
                    "velocity": 0.7322834645669292,
                    "duration": 0.1759529999999927
                },
                {
                    "name": "A4",
                    "midi": 69,
                    "time": 288.9148259999979,
                    "velocity": 0.6220472440944882,
                    "duration": 0.1759529999999927
                },
                {
                    "name": "B4",
                    "midi": 71,
                    "time": 289.2667319999979,
                    "velocity": 0.49606299212598426,
                    "duration": 0.08797650000002477
                },
                {
                    "name": "G#5",
                    "midi": 80,
                    "time": 289.2667319999979,
                    "velocity": 0.5826771653543307,
                    "duration": 0.08797650000002477
                },
                {
                    "name": "G#4",
                    "midi": 68,
                    "time": 289.2667319999979,
                    "velocity": 0.49606299212598426,
                    "duration": 0.08797650000002477
                },
                {
                    "name": "D5",
                    "midi": 74,
                    "time": 289.44268499999794,
                    "velocity": 0.44881889763779526,
                    "duration": 0.08797650000002477
                },
                {
                    "name": "B5",
                    "midi": 83,
                    "time": 289.44268499999794,
                    "velocity": 0.5354330708661418,
                    "duration": 0.08797650000002477
                },
                {
                    "name": "B4",
                    "midi": 71,
                    "time": 289.44268499999794,
                    "velocity": 0.44881889763779526,
                    "duration": 0.08797650000002477
                },
                {
                    "name": "A5",
                    "midi": 81,
                    "time": 289.618637999998,
                    "velocity": 0.6614173228346457,
                    "duration": 0.1759529999999927
                },
                {
                    "name": "A4",
                    "midi": 69,
                    "time": 289.618637999998,
                    "velocity": 0.5590551181102362,
                    "duration": 0.1759529999999927
                },
                {
                    "name": "C5",
                    "midi": 72,
                    "time": 289.618637999998,
                    "velocity": 0.5590551181102362,
                    "duration": 0.1759529999999927
                },
                {
                    "name": "B4",
                    "midi": 71,
                    "time": 289.970543999998,
                    "velocity": 0.48031496062992124,
                    "duration": 0.08797650000002477
                },
                {
                    "name": "G#5",
                    "midi": 80,
                    "time": 289.970543999998,
                    "velocity": 0.5669291338582677,
                    "duration": 0.08797650000002477
                },
                {
                    "name": "G#4",
                    "midi": 68,
                    "time": 289.970543999998,
                    "velocity": 0.48031496062992124,
                    "duration": 0.08797650000002477
                },
                {
                    "name": "D5",
                    "midi": 74,
                    "time": 290.146496999998,
                    "velocity": 0.4409448818897638,
                    "duration": 0.08797650000002477
                },
                {
                    "name": "B5",
                    "midi": 83,
                    "time": 290.146496999998,
                    "velocity": 0.5275590551181102,
                    "duration": 0.08797650000002477
                },
                {
                    "name": "B4",
                    "midi": 71,
                    "time": 290.146496999998,
                    "velocity": 0.4409448818897638,
                    "duration": 0.08797650000002477
                },
                {
                    "name": "C5",
                    "midi": 72,
                    "time": 290.32244999999807,
                    "velocity": 0.5590551181102362,
                    "duration": 0.08797650000002477
                },
                {
                    "name": "A5",
                    "midi": 81,
                    "time": 290.32244999999807,
                    "velocity": 0.6614173228346457,
                    "duration": 0.08797650000002477
                },
                {
                    "name": "A4",
                    "midi": 69,
                    "time": 290.32244999999807,
                    "velocity": 0.5590551181102362,
                    "duration": 0.08797650000002477
                },
                {
                    "name": "B4",
                    "midi": 71,
                    "time": 290.6743559999981,
                    "velocity": 0.4409448818897638,
                    "duration": 0.08797650000002477
                },
                {
                    "name": "G#5",
                    "midi": 80,
                    "time": 290.6743559999981,
                    "velocity": 0.5275590551181102,
                    "duration": 0.08797650000002477
                },
                {
                    "name": "G#4",
                    "midi": 68,
                    "time": 290.6743559999981,
                    "velocity": 0.4409448818897638,
                    "duration": 0.08797650000002477
                },
                {
                    "name": "C5",
                    "midi": 72,
                    "time": 291.02626199999816,
                    "velocity": 0.5511811023622047,
                    "duration": 0.7038120000000276
                },
                {
                    "name": "A5",
                    "midi": 81,
                    "time": 291.02626199999816,
                    "velocity": 0.6535433070866141,
                    "duration": 0.7038120000000276
                },
                {
                    "name": "A4",
                    "midi": 69,
                    "time": 291.02626199999816,
                    "velocity": 0.5511811023622047,
                    "duration": 0.7038120000000276
                },
                {
                    "name": "A6",
                    "midi": 93,
                    "time": 291.7300739999982,
                    "velocity": 0.5905511811023622,
                    "duration": 0.08797650000002477
                },
                {
                    "name": "A5",
                    "midi": 81,
                    "time": 291.7300739999982,
                    "velocity": 0.49606299212598426,
                    "duration": 0.08797650000002477
                },
                {
                    "name": "B6",
                    "midi": 95,
                    "time": 291.90602699999823,
                    "velocity": 0.6220472440944882,
                    "duration": 0.08797650000002477
                },
                {
                    "name": "B5",
                    "midi": 83,
                    "time": 291.90602699999823,
                    "velocity": 0.5275590551181102,
                    "duration": 0.08797650000002477
                },
                {
                    "name": "C7",
                    "midi": 96,
                    "time": 292.0819799999983,
                    "velocity": 0.6456692913385826,
                    "duration": 0.5278589999999781
                },
                {
                    "name": "C6",
                    "midi": 84,
                    "time": 292.0819799999983,
                    "velocity": 0.5433070866141733,
                    "duration": 0.5278589999999781
                },
                {
                    "name": "B6",
                    "midi": 95,
                    "time": 292.60983899999826,
                    "velocity": 0.5826771653543307,
                    "duration": 0.08797650000002477
                },
                {
                    "name": "B5",
                    "midi": 83,
                    "time": 292.60983899999826,
                    "velocity": 0.4881889763779528,
                    "duration": 0.08797650000002477
                },
                {
                    "name": "A6",
                    "midi": 93,
                    "time": 292.7857919999983,
                    "velocity": 0.6535433070866141,
                    "duration": 0.5278589999999781
                },
                {
                    "name": "A5",
                    "midi": 81,
                    "time": 292.7857919999983,
                    "velocity": 0.5511811023622047,
                    "duration": 0.5278589999999781
                },
                {
                    "name": "G6",
                    "midi": 91,
                    "time": 293.3136509999983,
                    "velocity": 0.5905511811023622,
                    "duration": 0.08797650000002477
                },
                {
                    "name": "G5",
                    "midi": 79,
                    "time": 293.3136509999983,
                    "velocity": 0.49606299212598426,
                    "duration": 0.08797650000002477
                },
                {
                    "name": "F6",
                    "midi": 89,
                    "time": 293.48960399999834,
                    "velocity": 0.6614173228346457,
                    "duration": 0.5278589999999781
                },
                {
                    "name": "F5",
                    "midi": 77,
                    "time": 293.48960399999834,
                    "velocity": 0.5590551181102362,
                    "duration": 0.5278589999999781
                },
                {
                    "name": "E6",
                    "midi": 88,
                    "time": 294.0174629999983,
                    "velocity": 0.6377952755905512,
                    "duration": 0.08797650000002477
                },
                {
                    "name": "E5",
                    "midi": 76,
                    "time": 294.0174629999983,
                    "velocity": 0.5354330708661418,
                    "duration": 0.08797650000002477
                },
                {
                    "name": "D6",
                    "midi": 86,
                    "time": 294.19341599999836,
                    "velocity": 0.6377952755905512,
                    "duration": 0.08797650000002477
                },
                {
                    "name": "D5",
                    "midi": 74,
                    "time": 294.19341599999836,
                    "velocity": 0.5354330708661418,
                    "duration": 0.08797650000002477
                },
                {
                    "name": "C#6",
                    "midi": 85,
                    "time": 294.3693689999984,
                    "velocity": 0.6377952755905512,
                    "duration": 0.08797650000002477
                },
                {
                    "name": "C#5",
                    "midi": 73,
                    "time": 294.3693689999984,
                    "velocity": 0.5354330708661418,
                    "duration": 0.08797650000002477
                },
                {
                    "name": "F5",
                    "midi": 77,
                    "time": 294.54532199999846,
                    "velocity": 0.5984251968503937,
                    "duration": 0.1759529999999927
                },
                {
                    "name": "D5",
                    "midi": 74,
                    "time": 294.54532199999846,
                    "velocity": 0.5984251968503937,
                    "duration": 0.1759529999999927
                },
                {
                    "name": "D6",
                    "midi": 86,
                    "time": 294.54532199999846,
                    "velocity": 0.7086614173228346,
                    "duration": 0.1759529999999927
                },
                {
                    "name": "E5",
                    "midi": 76,
                    "time": 294.89722799999845,
                    "velocity": 0.49606299212598426,
                    "duration": 0.08797650000002477
                },
                {
                    "name": "C#5",
                    "midi": 73,
                    "time": 294.89722799999845,
                    "velocity": 0.49606299212598426,
                    "duration": 0.08797650000002477
                },
                {
                    "name": "C#6",
                    "midi": 85,
                    "time": 294.89722799999845,
                    "velocity": 0.5826771653543307,
                    "duration": 0.08797650000002477
                },
                {
                    "name": "E5",
                    "midi": 76,
                    "time": 295.0731809999985,
                    "velocity": 0.44881889763779526,
                    "duration": 0.08797650000002477
                },
                {
                    "name": "E6",
                    "midi": 88,
                    "time": 295.0731809999985,
                    "velocity": 0.5354330708661418,
                    "duration": 0.08797650000002477
                },
                {
                    "name": "G5",
                    "midi": 79,
                    "time": 295.0731809999985,
                    "velocity": 0.44881889763779526,
                    "duration": 0.08797650000002477
                },
                {
                    "name": "D5",
                    "midi": 74,
                    "time": 295.24913399999855,
                    "velocity": 0.5590551181102362,
                    "duration": 0.1759529999999927
                },
                {
                    "name": "D6",
                    "midi": 86,
                    "time": 295.24913399999855,
                    "velocity": 0.6614173228346457,
                    "duration": 0.1759529999999927
                },
                {
                    "name": "F5",
                    "midi": 77,
                    "time": 295.24913399999855,
                    "velocity": 0.5590551181102362,
                    "duration": 0.1759529999999927
                },
                {
                    "name": "E5",
                    "midi": 76,
                    "time": 295.60103999999853,
                    "velocity": 0.48031496062992124,
                    "duration": 0.08797650000002477
                },
                {
                    "name": "C#5",
                    "midi": 73,
                    "time": 295.60103999999853,
                    "velocity": 0.48031496062992124,
                    "duration": 0.08797650000002477
                },
                {
                    "name": "C#6",
                    "midi": 85,
                    "time": 295.60103999999853,
                    "velocity": 0.5669291338582677,
                    "duration": 0.08797650000002477
                },
                {
                    "name": "G5",
                    "midi": 79,
                    "time": 295.7769929999986,
                    "velocity": 0.4409448818897638,
                    "duration": 0.08797650000002477
                },
                {
                    "name": "E6",
                    "midi": 88,
                    "time": 295.7769929999986,
                    "velocity": 0.5275590551181102,
                    "duration": 0.08797650000002477
                },
                {
                    "name": "E5",
                    "midi": 76,
                    "time": 295.7769929999986,
                    "velocity": 0.4409448818897638,
                    "duration": 0.08797650000002477
                },
                {
                    "name": "D5",
                    "midi": 74,
                    "time": 295.95294599999863,
                    "velocity": 0.5590551181102362,
                    "duration": 0.08797650000002477
                },
                {
                    "name": "D6",
                    "midi": 86,
                    "time": 295.95294599999863,
                    "velocity": 0.6614173228346457,
                    "duration": 0.08797650000002477
                },
                {
                    "name": "F5",
                    "midi": 77,
                    "time": 295.95294599999863,
                    "velocity": 0.5590551181102362,
                    "duration": 0.08797650000002477
                },
                {
                    "name": "E5",
                    "midi": 76,
                    "time": 296.3048519999987,
                    "velocity": 0.4409448818897638,
                    "duration": 0.08797650000002477
                },
                {
                    "name": "C#5",
                    "midi": 73,
                    "time": 296.3048519999987,
                    "velocity": 0.4409448818897638,
                    "duration": 0.08797650000002477
                },
                {
                    "name": "C#6",
                    "midi": 85,
                    "time": 296.3048519999987,
                    "velocity": 0.5275590551181102,
                    "duration": 0.08797650000002477
                },
                {
                    "name": "D5",
                    "midi": 74,
                    "time": 296.6567579999987,
                    "velocity": 0.5511811023622047,
                    "duration": 0.7038120000000276
                },
                {
                    "name": "F5",
                    "midi": 77,
                    "time": 296.6567579999987,
                    "velocity": 0.5511811023622047,
                    "duration": 0.7038120000000276
                },
                {
                    "name": "D6",
                    "midi": 86,
                    "time": 296.6567579999987,
                    "velocity": 0.6535433070866141,
                    "duration": 0.7038120000000276
                },
                {
                    "name": "D7",
                    "midi": 98,
                    "time": 297.36056999999875,
                    "velocity": 0.5905511811023622,
                    "duration": 0.08797650000002477
                },
                {
                    "name": "D6",
                    "midi": 86,
                    "time": 297.36056999999875,
                    "velocity": 0.49606299212598426,
                    "duration": 0.08797650000002477
                },
                {
                    "name": "E7",
                    "midi": 100,
                    "time": 297.5365229999988,
                    "velocity": 0.6220472440944882,
                    "duration": 0.08797650000002477
                },
                {
                    "name": "E6",
                    "midi": 88,
                    "time": 297.5365229999988,
                    "velocity": 0.5275590551181102,
                    "duration": 0.08797650000002477
                },
                {
                    "name": "F7",
                    "midi": 101,
                    "time": 297.71247599999884,
                    "velocity": 0.6456692913385826,
                    "duration": 0.5278589999999781
                },
                {
                    "name": "F6",
                    "midi": 89,
                    "time": 297.71247599999884,
                    "velocity": 0.5433070866141733,
                    "duration": 0.5278589999999781
                },
                {
                    "name": "E7",
                    "midi": 100,
                    "time": 298.2403349999988,
                    "velocity": 0.5826771653543307,
                    "duration": 0.08797650000002477
                },
                {
                    "name": "E6",
                    "midi": 88,
                    "time": 298.2403349999988,
                    "velocity": 0.4881889763779528,
                    "duration": 0.08797650000002477
                },
                {
                    "name": "D7",
                    "midi": 98,
                    "time": 298.4162879999989,
                    "velocity": 0.6535433070866141,
                    "duration": 0.5278589999999781
                },
                {
                    "name": "D6",
                    "midi": 86,
                    "time": 298.4162879999989,
                    "velocity": 0.5511811023622047,
                    "duration": 0.5278589999999781
                },
                {
                    "name": "C7",
                    "midi": 96,
                    "time": 298.94414699999885,
                    "velocity": 0.5905511811023622,
                    "duration": 0.08797650000002477
                },
                {
                    "name": "C6",
                    "midi": 84,
                    "time": 298.94414699999885,
                    "velocity": 0.49606299212598426,
                    "duration": 0.08797650000002477
                },
                {
                    "name": "B6",
                    "midi": 95,
                    "time": 299.1200999999989,
                    "velocity": 0.6614173228346457,
                    "duration": 0.5278589999999781
                },
                {
                    "name": "B5",
                    "midi": 83,
                    "time": 299.1200999999989,
                    "velocity": 0.5590551181102362,
                    "duration": 0.5278589999999781
                },
                {
                    "name": "A6",
                    "midi": 93,
                    "time": 299.6479589999989,
                    "velocity": 0.6062992125984252,
                    "duration": 0.08797650000002477
                },
                {
                    "name": "A5",
                    "midi": 81,
                    "time": 299.6479589999989,
                    "velocity": 0.5118110236220472,
                    "duration": 0.08797650000002477
                },
                {
                    "name": "G#6",
                    "midi": 92,
                    "time": 299.8239119999989,
                    "velocity": 0.6062992125984252,
                    "duration": 0.08797650000002477
                },
                {
                    "name": "G#5",
                    "midi": 80,
                    "time": 299.8239119999989,
                    "velocity": 0.5118110236220472,
                    "duration": 0.08797650000002477
                },
                {
                    "name": "A6",
                    "midi": 93,
                    "time": 299.999864999999,
                    "velocity": 0.6062992125984252,
                    "duration": 0.08797650000002477
                },
                {
                    "name": "A5",
                    "midi": 81,
                    "time": 299.999864999999,
                    "velocity": 0.5118110236220472,
                    "duration": 0.08797650000002477
                },
                {
                    "name": "G#6",
                    "midi": 92,
                    "time": 300.175817999999,
                    "velocity": 0.6220472440944882,
                    "duration": 0.08797650000002477
                },
                {
                    "name": "G#5",
                    "midi": 80,
                    "time": 300.175817999999,
                    "velocity": 0.5275590551181102,
                    "duration": 0.08797650000002477
                },
                {
                    "name": "B6",
                    "midi": 95,
                    "time": 300.3517709999991,
                    "velocity": 0.6614173228346457,
                    "duration": 0.08797650000002477
                },
                {
                    "name": "B5",
                    "midi": 83,
                    "time": 300.3517709999991,
                    "velocity": 0.5590551181102362,
                    "duration": 0.08797650000002477
                },
                {
                    "name": "E7",
                    "midi": 100,
                    "time": 300.5277239999991,
                    "velocity": 0.6929133858267716,
                    "duration": 0.1759529999999927
                },
                {
                    "name": "E6",
                    "midi": 88,
                    "time": 300.5277239999991,
                    "velocity": 0.5826771653543307,
                    "duration": 0.1759529999999927
                },
                {
                    "name": "E4",
                    "midi": 64,
                    "time": 300.8796299999991,
                    "velocity": 0.6771653543307087,
                    "duration": 0.7038120000000276
                },
                {
                    "name": "G#3",
                    "midi": 56,
                    "time": 300.8796299999991,
                    "velocity": 0.5748031496062992,
                    "duration": 0.7038120000000276
                },
                {
                    "name": "B3",
                    "midi": 59,
                    "time": 300.8796299999991,
                    "velocity": 0.5748031496062992,
                    "duration": 0.7038120000000276
                },
                {
                    "name": "A6",
                    "midi": 93,
                    "time": 301.58344199999914,
                    "velocity": 0.6220472440944882,
                    "duration": 0.08797650000002477
                },
                {
                    "name": "A5",
                    "midi": 81,
                    "time": 301.58344199999914,
                    "velocity": 0.5275590551181102,
                    "duration": 0.08797650000002477
                },
                {
                    "name": "C7",
                    "midi": 96,
                    "time": 301.7593949999992,
                    "velocity": 0.6614173228346457,
                    "duration": 0.08797650000002477
                },
                {
                    "name": "C6",
                    "midi": 84,
                    "time": 301.7593949999992,
                    "velocity": 0.5590551181102362,
                    "duration": 0.08797650000002477
                },
                {
                    "name": "E7",
                    "midi": 100,
                    "time": 301.93534799999924,
                    "velocity": 0.6929133858267716,
                    "duration": 0.1759529999999927
                },
                {
                    "name": "E6",
                    "midi": 88,
                    "time": 301.93534799999924,
                    "velocity": 0.5826771653543307,
                    "duration": 0.1759529999999927
                },
                {
                    "name": "E4",
                    "midi": 64,
                    "time": 302.2872539999992,
                    "velocity": 0.6771653543307087,
                    "duration": 0.7038120000000276
                },
                {
                    "name": "A3",
                    "midi": 57,
                    "time": 302.2872539999992,
                    "velocity": 0.5748031496062992,
                    "duration": 0.7038120000000276
                },
                {
                    "name": "C4",
                    "midi": 60,
                    "time": 302.2872539999992,
                    "velocity": 0.5748031496062992,
                    "duration": 0.7038120000000276
                },
                {
                    "name": "G#5",
                    "midi": 80,
                    "time": 302.99106599999925,
                    "velocity": 0.5748031496062992,
                    "duration": 0.08797650000002477
                },
                {
                    "name": "B4",
                    "midi": 71,
                    "time": 302.99106599999925,
                    "velocity": 0.4881889763779528,
                    "duration": 0.08797650000002477
                },
                {
                    "name": "B5",
                    "midi": 83,
                    "time": 303.1670189999993,
                    "velocity": 0.5118110236220472,
                    "duration": 0.08797650000002477
                },
                {
                    "name": "D5",
                    "midi": 74,
                    "time": 303.1670189999993,
                    "velocity": 0.4330708661417323,
                    "duration": 0.08797650000002477
                },
                {
                    "name": "G#5",
                    "midi": 80,
                    "time": 303.34297199999935,
                    "velocity": 0.5748031496062992,
                    "duration": 0.08797650000002477
                },
                {
                    "name": "B4",
                    "midi": 71,
                    "time": 303.34297199999935,
                    "velocity": 0.4881889763779528,
                    "duration": 0.08797650000002477
                },
                {
                    "name": "B5",
                    "midi": 83,
                    "time": 303.5189249999994,
                    "velocity": 0.5275590551181102,
                    "duration": 0.08797650000002477
                },
                {
                    "name": "D5",
                    "midi": 74,
                    "time": 303.5189249999994,
                    "velocity": 0.4409448818897638,
                    "duration": 0.08797650000002477
                },
                {
                    "name": "F3",
                    "midi": 53,
                    "time": 303.69487799999945,
                    "velocity": 0.6614173228346457,
                    "duration": 0.3519059999999854
                },
                {
                    "name": "E3",
                    "midi": 52,
                    "time": 304.04678399999943,
                    "velocity": 0.5826771653543307,
                    "duration": 0.08797650000002477
                },
                {
                    "name": "A5",
                    "midi": 81,
                    "time": 304.3986899999995,
                    "velocity": 0.5748031496062992,
                    "duration": 0.08797650000002477
                },
                {
                    "name": "C5",
                    "midi": 72,
                    "time": 304.3986899999995,
                    "velocity": 0.4881889763779528,
                    "duration": 0.08797650000002477
                },
                {
                    "name": "C6",
                    "midi": 84,
                    "time": 304.5746429999995,
                    "velocity": 0.5118110236220472,
                    "duration": 0.08797650000002477
                },
                {
                    "name": "E5",
                    "midi": 76,
                    "time": 304.5746429999995,
                    "velocity": 0.4330708661417323,
                    "duration": 0.08797650000002477
                },
                {
                    "name": "A5",
                    "midi": 81,
                    "time": 304.7505959999996,
                    "velocity": 0.5748031496062992,
                    "duration": 0.08797650000002477
                },
                {
                    "name": "C5",
                    "midi": 72,
                    "time": 304.7505959999996,
                    "velocity": 0.4881889763779528,
                    "duration": 0.08797650000002477
                },
                {
                    "name": "C6",
                    "midi": 84,
                    "time": 304.9265489999996,
                    "velocity": 0.5275590551181102,
                    "duration": 0.08797650000002477
                },
                {
                    "name": "E5",
                    "midi": 76,
                    "time": 304.9265489999996,
                    "velocity": 0.4409448818897638,
                    "duration": 0.08797650000002477
                },
                {
                    "name": "F3",
                    "midi": 53,
                    "time": 305.1025019999997,
                    "velocity": 0.6614173228346457,
                    "duration": 0.3519059999999854
                },
                {
                    "name": "E3",
                    "midi": 52,
                    "time": 305.45440799999966,
                    "velocity": 0.5826771653543307,
                    "duration": 0.08797650000002477
                },
                {
                    "name": "B6",
                    "midi": 95,
                    "time": 305.8063139999997,
                    "velocity": 0.6850393700787402,
                    "duration": 0.19354829999997492
                },
                {
                    "name": "F7",
                    "midi": 101,
                    "time": 305.8063139999997,
                    "velocity": 0.6850393700787402,
                    "duration": 0.19354829999997492
                },
                {
                    "name": "F6",
                    "midi": 89,
                    "time": 305.8063139999997,
                    "velocity": 0.5748031496062992,
                    "duration": 0.19354829999997492
                },
                {
                    "name": "G#6",
                    "midi": 92,
                    "time": 305.8063139999997,
                    "velocity": 0.5748031496062992,
                    "duration": 0.19354829999997492
                },
                {
                    "name": "E7",
                    "midi": 100,
                    "time": 305.9822669999997,
                    "velocity": 0.6771653543307087,
                    "duration": 0.19354829999997492
                },
                {
                    "name": "E6",
                    "midi": 88,
                    "time": 305.9822669999997,
                    "velocity": 0.5748031496062992,
                    "duration": 0.19354829999997492
                },
                {
                    "name": "D7",
                    "midi": 98,
                    "time": 306.1582199999997,
                    "velocity": 0.6614173228346457,
                    "duration": 0.19354829999997492
                },
                {
                    "name": "D6",
                    "midi": 86,
                    "time": 306.1582199999997,
                    "velocity": 0.5590551181102362,
                    "duration": 0.19354829999997492
                },
                {
                    "name": "C7",
                    "midi": 96,
                    "time": 306.3341729999997,
                    "velocity": 0.6535433070866141,
                    "duration": 0.19354829999997492
                },
                {
                    "name": "C6",
                    "midi": 84,
                    "time": 306.3341729999997,
                    "velocity": 0.5511811023622047,
                    "duration": 0.19354829999997492
                },
                {
                    "name": "B6",
                    "midi": 95,
                    "time": 306.5101259999997,
                    "velocity": 0.6377952755905512,
                    "duration": 0.19354829999997492
                },
                {
                    "name": "B5",
                    "midi": 83,
                    "time": 306.5101259999997,
                    "velocity": 0.5354330708661418,
                    "duration": 0.19354829999997492
                },
                {
                    "name": "A6",
                    "midi": 93,
                    "time": 306.68607899999967,
                    "velocity": 0.6299212598425197,
                    "duration": 0.19354829999997492
                },
                {
                    "name": "A5",
                    "midi": 81,
                    "time": 306.68607899999967,
                    "velocity": 0.5354330708661418,
                    "duration": 0.19354829999997492
                },
                {
                    "name": "G#6",
                    "midi": 92,
                    "time": 306.86203199999966,
                    "velocity": 0.6220472440944882,
                    "duration": 0.19354829999997492
                },
                {
                    "name": "G#5",
                    "midi": 80,
                    "time": 306.86203199999966,
                    "velocity": 0.5275590551181102,
                    "duration": 0.19354829999997492
                },
                {
                    "name": "E6",
                    "midi": 88,
                    "time": 307.03798499999965,
                    "velocity": 0.6062992125984252,
                    "duration": 0.19354829999997492
                },
                {
                    "name": "E5",
                    "midi": 76,
                    "time": 307.03798499999965,
                    "velocity": 0.5118110236220472,
                    "duration": 0.19354829999997492
                },
                {
                    "name": "F6",
                    "midi": 89,
                    "time": 307.21393799999964,
                    "velocity": 0.6299212598425197,
                    "duration": 0.19354829999997492
                },
                {
                    "name": "F5",
                    "midi": 77,
                    "time": 307.21393799999964,
                    "velocity": 0.5354330708661418,
                    "duration": 0.19354829999997492
                },
                {
                    "name": "G#5",
                    "midi": 80,
                    "time": 307.21393799999964,
                    "velocity": 0.5354330708661418,
                    "duration": 0.19354829999997492
                },
                {
                    "name": "B5",
                    "midi": 83,
                    "time": 307.21393799999964,
                    "velocity": 0.5354330708661418,
                    "duration": 0.19354829999997492
                },
                {
                    "name": "E6",
                    "midi": 88,
                    "time": 307.38989099999964,
                    "velocity": 0.6062992125984252,
                    "duration": 0.19354829999997492
                },
                {
                    "name": "E5",
                    "midi": 76,
                    "time": 307.38989099999964,
                    "velocity": 0.5118110236220472,
                    "duration": 0.19354829999997492
                },
                {
                    "name": "D6",
                    "midi": 86,
                    "time": 307.56584399999963,
                    "velocity": 0.5905511811023622,
                    "duration": 0.19354829999997492
                },
                {
                    "name": "D5",
                    "midi": 74,
                    "time": 307.56584399999963,
                    "velocity": 0.49606299212598426,
                    "duration": 0.19354829999997492
                },
                {
                    "name": "C6",
                    "midi": 84,
                    "time": 307.7417969999996,
                    "velocity": 0.5748031496062992,
                    "duration": 0.19354829999997492
                },
                {
                    "name": "C5",
                    "midi": 72,
                    "time": 307.7417969999996,
                    "velocity": 0.4881889763779528,
                    "duration": 0.19354829999997492
                },
                {
                    "name": "B5",
                    "midi": 83,
                    "time": 307.9177499999996,
                    "velocity": 0.5669291338582677,
                    "duration": 0.19354829999997492
                },
                {
                    "name": "B4",
                    "midi": 71,
                    "time": 307.9177499999996,
                    "velocity": 0.48031496062992124,
                    "duration": 0.19354829999997492
                },
                {
                    "name": "A5",
                    "midi": 81,
                    "time": 308.0937029999996,
                    "velocity": 0.5511811023622047,
                    "duration": 0.19354829999997492
                },
                {
                    "name": "A4",
                    "midi": 69,
                    "time": 308.0937029999996,
                    "velocity": 0.4645669291338583,
                    "duration": 0.19354829999997492
                },
                {
                    "name": "G#5",
                    "midi": 80,
                    "time": 308.2696559999996,
                    "velocity": 0.5354330708661418,
                    "duration": 0.19354829999997492
                },
                {
                    "name": "G#4",
                    "midi": 68,
                    "time": 308.2696559999996,
                    "velocity": 0.44881889763779526,
                    "duration": 0.19354829999997492
                },
                {
                    "name": "E5",
                    "midi": 76,
                    "time": 308.4456089999996,
                    "velocity": 0.5275590551181102,
                    "duration": 0.19354829999997492
                },
                {
                    "name": "E4",
                    "midi": 64,
                    "time": 308.4456089999996,
                    "velocity": 0.4409448818897638,
                    "duration": 0.19354829999997492
                },
                {
                    "name": "F5",
                    "midi": 77,
                    "time": 308.6215619999996,
                    "velocity": 0.5590551181102362,
                    "duration": 0.19354829999997492
                },
                {
                    "name": "F4",
                    "midi": 65,
                    "time": 308.6215619999996,
                    "velocity": 0.47244094488188976,
                    "duration": 0.19354829999997492
                },
                {
                    "name": "D#5",
                    "midi": 75,
                    "time": 308.7975149999996,
                    "velocity": 0.5039370078740157,
                    "duration": 0.19354829999997492
                },
                {
                    "name": "D#4",
                    "midi": 63,
                    "time": 308.7975149999996,
                    "velocity": 0.4251968503937008,
                    "duration": 0.19354829999997492
                },
                {
                    "name": "E5",
                    "midi": 76,
                    "time": 308.97346799999957,
                    "velocity": 0.5433070866141733,
                    "duration": 0.19354829999997492
                },
                {
                    "name": "E4",
                    "midi": 64,
                    "time": 308.97346799999957,
                    "velocity": 0.4566929133858268,
                    "duration": 0.19354829999997492
                },
                {
                    "name": "D5",
                    "midi": 74,
                    "time": 309.14942099999956,
                    "velocity": 0.5118110236220472,
                    "duration": 0.19354829999997492
                },
                {
                    "name": "D4",
                    "midi": 62,
                    "time": 309.14942099999956,
                    "velocity": 0.4330708661417323,
                    "duration": 0.19354829999997492
                },
                {
                    "name": "D#5",
                    "midi": 75,
                    "time": 309.32537399999956,
                    "velocity": 0.5433070866141733,
                    "duration": 0.19354829999997492
                },
                {
                    "name": "D#4",
                    "midi": 63,
                    "time": 309.32537399999956,
                    "velocity": 0.4566929133858268,
                    "duration": 0.19354829999997492
                },
                {
                    "name": "C#5",
                    "midi": 73,
                    "time": 309.50132699999955,
                    "velocity": 0.5196850393700787,
                    "duration": 0.19354829999997492
                },
                {
                    "name": "C#4",
                    "midi": 61,
                    "time": 309.50132699999955,
                    "velocity": 0.4409448818897638,
                    "duration": 0.19354829999997492
                },
                {
                    "name": "D5",
                    "midi": 74,
                    "time": 309.67727999999954,
                    "velocity": 0.5748031496062992,
                    "duration": 0.19354829999997492
                },
                {
                    "name": "D4",
                    "midi": 62,
                    "time": 309.67727999999954,
                    "velocity": 0.4881889763779528,
                    "duration": 0.19354829999997492
                },
                {
                    "name": "C5",
                    "midi": 72,
                    "time": 309.85323299999953,
                    "velocity": 0.5433070866141733,
                    "duration": 0.1759529999999927
                },
                {
                    "name": "C4",
                    "midi": 60,
                    "time": 309.85323299999953,
                    "velocity": 0.4566929133858268,
                    "duration": 0.1759529999999927
                },
                {
                    "name": "C#5",
                    "midi": 73,
                    "time": 310.0291859999995,
                    "velocity": 0.6062992125984252,
                    "duration": 0.1759529999999927
                },
                {
                    "name": "C#4",
                    "midi": 61,
                    "time": 310.0291859999995,
                    "velocity": 0.5039370078740157,
                    "duration": 0.1759529999999927
                },
                {
                    "name": "B4",
                    "midi": 71,
                    "time": 310.2051389999995,
                    "velocity": 0.5669291338582677,
                    "duration": 0.1759529999999927
                },
                {
                    "name": "B3",
                    "midi": 59,
                    "time": 310.2051389999995,
                    "velocity": 0.47244094488188976,
                    "duration": 0.1759529999999927
                },
                {
                    "name": "C5",
                    "midi": 72,
                    "time": 310.3810919999995,
                    "velocity": 0.6535433070866141,
                    "duration": 0.1759529999999927
                },
                {
                    "name": "C4",
                    "midi": 60,
                    "time": 310.3810919999995,
                    "velocity": 0.5590551181102362,
                    "duration": 0.1759529999999927
                },
                {
                    "name": "A#4",
                    "midi": 70,
                    "time": 310.5570449999995,
                    "velocity": 0.6141732283464567,
                    "duration": 0.1759529999999927
                },
                {
                    "name": "A#3",
                    "midi": 58,
                    "time": 310.5570449999995,
                    "velocity": 0.5275590551181102,
                    "duration": 0.1759529999999927
                },
                {
                    "name": "B4",
                    "midi": 71,
                    "time": 310.7329979999995,
                    "velocity": 0.7007874015748031,
                    "duration": 0.1759529999999927
                },
                {
                    "name": "B3",
                    "midi": 59,
                    "time": 310.7329979999995,
                    "velocity": 0.5826771653543307,
                    "duration": 0.1759529999999927
                },
                {
                    "name": "A4",
                    "midi": 69,
                    "time": 310.9089509999995,
                    "velocity": 0.6771653543307087,
                    "duration": 0.1759529999999927
                },
                {
                    "name": "A3",
                    "midi": 57,
                    "time": 310.9089509999995,
                    "velocity": 0.5748031496062992,
                    "duration": 0.1759529999999927
                },
                {
                    "name": "A#4",
                    "midi": 70,
                    "time": 311.0849039999995,
                    "velocity": 0.7559055118110236,
                    "duration": 0.1759529999999927
                },
                {
                    "name": "A#3",
                    "midi": 58,
                    "time": 311.0849039999995,
                    "velocity": 0.6377952755905512,
                    "duration": 0.1759529999999927
                },
                {
                    "name": "G#4",
                    "midi": 68,
                    "time": 311.2608569999995,
                    "velocity": 0.7401574803149606,
                    "duration": 0.1759529999999927
                },
                {
                    "name": "G#3",
                    "midi": 56,
                    "time": 311.2608569999995,
                    "velocity": 0.6220472440944882,
                    "duration": 0.1759529999999927
                },
                {
                    "name": "A6",
                    "midi": 93,
                    "time": 311.43680999999947,
                    "velocity": 0.8503937007874016,
                    "duration": 0.7038119999999708
                },
                {
                    "name": "A5",
                    "midi": 81,
                    "time": 311.43680999999947,
                    "velocity": 0.7165354330708661,
                    "duration": 0.7038119999999708
                },
                {
                    "name": "C#6",
                    "midi": 85,
                    "time": 311.43680999999947,
                    "velocity": 0.7165354330708661,
                    "duration": 0.7038119999999708
                },
                {
                    "name": "A4",
                    "midi": 69,
                    "time": 311.78871599999945,
                    "velocity": 0.6929133858267716,
                    "duration": 0.1759529999999927
                },
                {
                    "name": "C#4",
                    "midi": 61,
                    "time": 311.78871599999945,
                    "velocity": 0.5826771653543307,
                    "duration": 0.1759529999999927
                },
                {
                    "name": "E4",
                    "midi": 64,
                    "time": 311.78871599999945,
                    "velocity": 0.5826771653543307,
                    "duration": 0.1759529999999927
                },
                {
                    "name": "A4",
                    "midi": 69,
                    "time": 311.96466899999945,
                    "velocity": 0.6929133858267716,
                    "duration": 0.1759529999999927
                },
                {
                    "name": "C#4",
                    "midi": 61,
                    "time": 311.96466899999945,
                    "velocity": 0.5826771653543307,
                    "duration": 0.1759529999999927
                },
                {
                    "name": "E4",
                    "midi": 64,
                    "time": 311.96466899999945,
                    "velocity": 0.5826771653543307,
                    "duration": 0.1759529999999927
                },
                {
                    "name": "A4",
                    "midi": 69,
                    "time": 312.14062199999944,
                    "velocity": 0.7637795275590551,
                    "duration": 0.1759529999999927
                },
                {
                    "name": "C#4",
                    "midi": 61,
                    "time": 312.14062199999944,
                    "velocity": 0.6456692913385826,
                    "duration": 0.1759529999999927
                },
                {
                    "name": "E4",
                    "midi": 64,
                    "time": 312.14062199999944,
                    "velocity": 0.6456692913385826,
                    "duration": 0.1759529999999927
                },
                {
                    "name": "G#6",
                    "midi": 92,
                    "time": 312.4925279999994,
                    "velocity": 0.7952755905511811,
                    "duration": 0.1759529999999927
                },
                {
                    "name": "G#5",
                    "midi": 80,
                    "time": 312.4925279999994,
                    "velocity": 0.6614173228346457,
                    "duration": 0.1759529999999927
                },
                {
                    "name": "B5",
                    "midi": 83,
                    "time": 312.4925279999994,
                    "velocity": 0.6614173228346457,
                    "duration": 0.1759529999999927
                },
                {
                    "name": "B6",
                    "midi": 95,
                    "time": 312.6684809999994,
                    "velocity": 0.7952755905511811,
                    "duration": 0.1759529999999927
                },
                {
                    "name": "B5",
                    "midi": 83,
                    "time": 312.6684809999994,
                    "velocity": 0.6614173228346457,
                    "duration": 0.1759529999999927
                },
                {
                    "name": "D6",
                    "midi": 86,
                    "time": 312.6684809999994,
                    "velocity": 0.6614173228346457,
                    "duration": 0.1759529999999927
                },
                {
                    "name": "A6",
                    "midi": 93,
                    "time": 312.8444339999994,
                    "velocity": 0.8503937007874016,
                    "duration": 0.1759529999999927
                },
                {
                    "name": "A5",
                    "midi": 81,
                    "time": 312.8444339999994,
                    "velocity": 0.7244094488188977,
                    "duration": 0.1759529999999927
                },
                {
                    "name": "C#6",
                    "midi": 85,
                    "time": 312.8444339999994,
                    "velocity": 0.7244094488188977,
                    "duration": 0.1759529999999927
                },
                {
                    "name": "G#6",
                    "midi": 92,
                    "time": 313.1963399999994,
                    "velocity": 0.7952755905511811,
                    "duration": 0.1759529999999927
                },
                {
                    "name": "G#5",
                    "midi": 80,
                    "time": 313.1963399999994,
                    "velocity": 0.6614173228346457,
                    "duration": 0.1759529999999927
                },
                {
                    "name": "B5",
                    "midi": 83,
                    "time": 313.1963399999994,
                    "velocity": 0.6614173228346457,
                    "duration": 0.1759529999999927
                },
                {
                    "name": "B6",
                    "midi": 95,
                    "time": 313.3722929999994,
                    "velocity": 0.7952755905511811,
                    "duration": 0.1759529999999927
                },
                {
                    "name": "B5",
                    "midi": 83,
                    "time": 313.3722929999994,
                    "velocity": 0.6614173228346457,
                    "duration": 0.1759529999999927
                },
                {
                    "name": "D6",
                    "midi": 86,
                    "time": 313.3722929999994,
                    "velocity": 0.6614173228346457,
                    "duration": 0.1759529999999927
                },
                {
                    "name": "A6",
                    "midi": 93,
                    "time": 313.5482459999994,
                    "velocity": 0.8503937007874016,
                    "duration": 0.1759529999999927
                },
                {
                    "name": "A5",
                    "midi": 81,
                    "time": 313.5482459999994,
                    "velocity": 0.7244094488188977,
                    "duration": 0.1759529999999927
                },
                {
                    "name": "C#6",
                    "midi": 85,
                    "time": 313.5482459999994,
                    "velocity": 0.7244094488188977,
                    "duration": 0.1759529999999927
                },
                {
                    "name": "A6",
                    "midi": 93,
                    "time": 313.90015199999937,
                    "velocity": 0.8110236220472441,
                    "duration": 0.1759529999999927
                },
                {
                    "name": "A5",
                    "midi": 81,
                    "time": 313.90015199999937,
                    "velocity": 0.6771653543307087,
                    "duration": 0.1759529999999927
                },
                {
                    "name": "C#6",
                    "midi": 85,
                    "time": 313.90015199999937,
                    "velocity": 0.6771653543307087,
                    "duration": 0.1759529999999927
                },
                {
                    "name": "C#7",
                    "midi": 97,
                    "time": 314.25205799999935,
                    "velocity": 0.8267716535433071,
                    "duration": 0.7038119999999708
                },
                {
                    "name": "C#6",
                    "midi": 85,
                    "time": 314.25205799999935,
                    "velocity": 0.7007874015748031,
                    "duration": 0.7038119999999708
                },
                {
                    "name": "F6",
                    "midi": 89,
                    "time": 314.25205799999935,
                    "velocity": 0.7007874015748031,
                    "duration": 0.7038119999999708
                },
                {
                    "name": "C#5",
                    "midi": 73,
                    "time": 314.60396399999934,
                    "velocity": 0.6929133858267716,
                    "duration": 0.1759529999999927
                },
                {
                    "name": "F4",
                    "midi": 65,
                    "time": 314.60396399999934,
                    "velocity": 0.5826771653543307,
                    "duration": 0.1759529999999927
                },
                {
                    "name": "G#4",
                    "midi": 68,
                    "time": 314.60396399999934,
                    "velocity": 0.5826771653543307,
                    "duration": 0.1759529999999927
                },
                {
                    "name": "C#5",
                    "midi": 73,
                    "time": 314.77991699999933,
                    "velocity": 0.6929133858267716,
                    "duration": 0.1759529999999927
                },
                {
                    "name": "F4",
                    "midi": 65,
                    "time": 314.77991699999933,
                    "velocity": 0.5826771653543307,
                    "duration": 0.1759529999999927
                },
                {
                    "name": "G#4",
                    "midi": 68,
                    "time": 314.77991699999933,
                    "velocity": 0.5826771653543307,
                    "duration": 0.1759529999999927
                },
                {
                    "name": "C#5",
                    "midi": 73,
                    "time": 314.9558699999993,
                    "velocity": 0.7637795275590551,
                    "duration": 0.1759529999999927
                },
                {
                    "name": "F4",
                    "midi": 65,
                    "time": 314.9558699999993,
                    "velocity": 0.6456692913385826,
                    "duration": 0.1759529999999927
                },
                {
                    "name": "G#4",
                    "midi": 68,
                    "time": 314.9558699999993,
                    "velocity": 0.6456692913385826,
                    "duration": 0.1759529999999927
                },
                {
                    "name": "C7",
                    "midi": 96,
                    "time": 315.3077759999993,
                    "velocity": 0.7952755905511811,
                    "duration": 0.1759529999999927
                },
                {
                    "name": "C6",
                    "midi": 84,
                    "time": 315.3077759999993,
                    "velocity": 0.6614173228346457,
                    "duration": 0.1759529999999927
                },
                {
                    "name": "D#6",
                    "midi": 87,
                    "time": 315.3077759999993,
                    "velocity": 0.6614173228346457,
                    "duration": 0.1759529999999927
                },
                {
                    "name": "D#7",
                    "midi": 99,
                    "time": 315.4837289999993,
                    "velocity": 0.7952755905511811,
                    "duration": 0.1759529999999927
                },
                {
                    "name": "D#6",
                    "midi": 87,
                    "time": 315.4837289999993,
                    "velocity": 0.6614173228346457,
                    "duration": 0.1759529999999927
                },
                {
                    "name": "F#6",
                    "midi": 90,
                    "time": 315.4837289999993,
                    "velocity": 0.6614173228346457,
                    "duration": 0.1759529999999927
                },
                {
                    "name": "C#7",
                    "midi": 97,
                    "time": 315.6596819999993,
                    "velocity": 0.8503937007874016,
                    "duration": 0.1759529999999927
                },
                {
                    "name": "C#6",
                    "midi": 85,
                    "time": 315.6596819999993,
                    "velocity": 0.7244094488188977,
                    "duration": 0.1759529999999927
                },
                {
                    "name": "F6",
                    "midi": 89,
                    "time": 315.6596819999993,
                    "velocity": 0.7244094488188977,
                    "duration": 0.1759529999999927
                },
                {
                    "name": "C7",
                    "midi": 96,
                    "time": 316.0115879999993,
                    "velocity": 0.7952755905511811,
                    "duration": 0.1759529999999927
                },
                {
                    "name": "C6",
                    "midi": 84,
                    "time": 316.0115879999993,
                    "velocity": 0.6614173228346457,
                    "duration": 0.1759529999999927
                },
                {
                    "name": "D#6",
                    "midi": 87,
                    "time": 316.0115879999993,
                    "velocity": 0.6614173228346457,
                    "duration": 0.1759529999999927
                },
                {
                    "name": "D#7",
                    "midi": 99,
                    "time": 316.18754099999927,
                    "velocity": 0.7952755905511811,
                    "duration": 0.1759529999999927
                },
                {
                    "name": "D#6",
                    "midi": 87,
                    "time": 316.18754099999927,
                    "velocity": 0.6614173228346457,
                    "duration": 0.1759529999999927
                },
                {
                    "name": "F#6",
                    "midi": 90,
                    "time": 316.18754099999927,
                    "velocity": 0.6614173228346457,
                    "duration": 0.1759529999999927
                },
                {
                    "name": "C#7",
                    "midi": 97,
                    "time": 316.36349399999926,
                    "velocity": 0.8503937007874016,
                    "duration": 0.1759529999999927
                },
                {
                    "name": "C#6",
                    "midi": 85,
                    "time": 316.36349399999926,
                    "velocity": 0.7244094488188977,
                    "duration": 0.1759529999999927
                },
                {
                    "name": "F6",
                    "midi": 89,
                    "time": 316.36349399999926,
                    "velocity": 0.7244094488188977,
                    "duration": 0.1759529999999927
                },
                {
                    "name": "C#7",
                    "midi": 97,
                    "time": 316.71539999999925,
                    "velocity": 0.8110236220472441,
                    "duration": 0.1759529999999927
                },
                {
                    "name": "C#6",
                    "midi": 85,
                    "time": 316.71539999999925,
                    "velocity": 0.6771653543307087,
                    "duration": 0.1759529999999927
                },
                {
                    "name": "F6",
                    "midi": 89,
                    "time": 316.71539999999925,
                    "velocity": 0.6771653543307087,
                    "duration": 0.1759529999999927
                },
                {
                    "name": "F7",
                    "midi": 101,
                    "time": 317.06730599999923,
                    "velocity": 0.8267716535433071,
                    "duration": 0.7038119999999708
                },
                {
                    "name": "F6",
                    "midi": 89,
                    "time": 317.06730599999923,
                    "velocity": 0.7007874015748031,
                    "duration": 0.7038119999999708
                },
                {
                    "name": "A6",
                    "midi": 93,
                    "time": 317.06730599999923,
                    "velocity": 0.7007874015748031,
                    "duration": 0.7038119999999708
                },
                {
                    "name": "F5",
                    "midi": 77,
                    "time": 317.4192119999992,
                    "velocity": 0.6929133858267716,
                    "duration": 0.1759529999999927
                },
                {
                    "name": "A4",
                    "midi": 69,
                    "time": 317.4192119999992,
                    "velocity": 0.5826771653543307,
                    "duration": 0.1759529999999927
                },
                {
                    "name": "C5",
                    "midi": 72,
                    "time": 317.4192119999992,
                    "velocity": 0.5826771653543307,
                    "duration": 0.1759529999999927
                },
                {
                    "name": "F5",
                    "midi": 77,
                    "time": 317.5951649999992,
                    "velocity": 0.6929133858267716,
                    "duration": 0.1759529999999927
                },
                {
                    "name": "A4",
                    "midi": 69,
                    "time": 317.5951649999992,
                    "velocity": 0.5826771653543307,
                    "duration": 0.1759529999999927
                },
                {
                    "name": "C5",
                    "midi": 72,
                    "time": 317.5951649999992,
                    "velocity": 0.5826771653543307,
                    "duration": 0.1759529999999927
                },
                {
                    "name": "F5",
                    "midi": 77,
                    "time": 317.7711179999992,
                    "velocity": 0.7637795275590551,
                    "duration": 0.1759529999999927
                },
                {
                    "name": "A4",
                    "midi": 69,
                    "time": 317.7711179999992,
                    "velocity": 0.6456692913385826,
                    "duration": 0.1759529999999927
                },
                {
                    "name": "C5",
                    "midi": 72,
                    "time": 317.7711179999992,
                    "velocity": 0.6456692913385826,
                    "duration": 0.1759529999999927
                },
                {
                    "name": "E7",
                    "midi": 100,
                    "time": 318.1230239999992,
                    "velocity": 0.7244094488188977,
                    "duration": 0.1759529999999927
                },
                {
                    "name": "E6",
                    "midi": 88,
                    "time": 318.1230239999992,
                    "velocity": 0.6062992125984252,
                    "duration": 0.1759529999999927
                },
                {
                    "name": "G6",
                    "midi": 91,
                    "time": 318.1230239999992,
                    "velocity": 0.6062992125984252,
                    "duration": 0.1759529999999927
                },
                {
                    "name": "G7",
                    "midi": 103,
                    "time": 318.2989769999992,
                    "velocity": 0.7244094488188977,
                    "duration": 0.1759529999999927
                },
                {
                    "name": "G6",
                    "midi": 91,
                    "time": 318.2989769999992,
                    "velocity": 0.6062992125984252,
                    "duration": 0.1759529999999927
                },
                {
                    "name": "A#6",
                    "midi": 94,
                    "time": 318.2989769999992,
                    "velocity": 0.6062992125984252,
                    "duration": 0.1759529999999927
                },
                {
                    "name": "F7",
                    "midi": 101,
                    "time": 318.4749299999992,
                    "velocity": 0.7795275590551181,
                    "duration": 0.1759529999999927
                },
                {
                    "name": "F6",
                    "midi": 89,
                    "time": 318.4749299999992,
                    "velocity": 0.6614173228346457,
                    "duration": 0.1759529999999927
                },
                {
                    "name": "A6",
                    "midi": 93,
                    "time": 318.4749299999992,
                    "velocity": 0.6614173228346457,
                    "duration": 0.1759529999999927
                },
                {
                    "name": "E7",
                    "midi": 100,
                    "time": 318.82683599999916,
                    "velocity": 0.7244094488188977,
                    "duration": 0.1759529999999927
                },
                {
                    "name": "E6",
                    "midi": 88,
                    "time": 318.82683599999916,
                    "velocity": 0.6062992125984252,
                    "duration": 0.1759529999999927
                },
                {
                    "name": "G6",
                    "midi": 91,
                    "time": 318.82683599999916,
                    "velocity": 0.6062992125984252,
                    "duration": 0.1759529999999927
                },
                {
                    "name": "G7",
                    "midi": 103,
                    "time": 319.00278899999915,
                    "velocity": 0.7244094488188977,
                    "duration": 0.1759529999999927
                },
                {
                    "name": "G6",
                    "midi": 91,
                    "time": 319.00278899999915,
                    "velocity": 0.6062992125984252,
                    "duration": 0.1759529999999927
                },
                {
                    "name": "A#6",
                    "midi": 94,
                    "time": 319.00278899999915,
                    "velocity": 0.6062992125984252,
                    "duration": 0.1759529999999927
                },
                {
                    "name": "F7",
                    "midi": 101,
                    "time": 319.17874199999915,
                    "velocity": 0.7795275590551181,
                    "duration": 0.1759529999999927
                },
                {
                    "name": "F6",
                    "midi": 89,
                    "time": 319.17874199999915,
                    "velocity": 0.6614173228346457,
                    "duration": 0.1759529999999927
                },
                {
                    "name": "A6",
                    "midi": 93,
                    "time": 319.17874199999915,
                    "velocity": 0.6614173228346457,
                    "duration": 0.1759529999999927
                },
                {
                    "name": "F6",
                    "midi": 89,
                    "time": 319.53064799999913,
                    "velocity": 0.7401574803149606,
                    "duration": 0.1759529999999927
                },
                {
                    "name": "F5",
                    "midi": 77,
                    "time": 319.53064799999913,
                    "velocity": 0.6220472440944882,
                    "duration": 0.1759529999999927
                },
                {
                    "name": "A5",
                    "midi": 81,
                    "time": 319.53064799999913,
                    "velocity": 0.6220472440944882,
                    "duration": 0.1759529999999927
                },
                {
                    "name": "A6",
                    "midi": 93,
                    "time": 319.8825539999991,
                    "velocity": 0.6456692913385826,
                    "duration": 0.1759529999999927
                },
                {
                    "name": "A5",
                    "midi": 81,
                    "time": 319.8825539999991,
                    "velocity": 0.5511811023622047,
                    "duration": 0.1759529999999927
                },
                {
                    "name": "C#6",
                    "midi": 85,
                    "time": 319.8825539999991,
                    "velocity": 0.5511811023622047,
                    "duration": 0.1759529999999927
                },
                {
                    "name": "G#6",
                    "midi": 92,
                    "time": 320.0585069999991,
                    "velocity": 0.5984251968503937,
                    "duration": 0.1759529999999927
                },
                {
                    "name": "G#5",
                    "midi": 80,
                    "time": 320.0585069999991,
                    "velocity": 0.5118110236220472,
                    "duration": 0.1759529999999927
                },
                {
                    "name": "A6",
                    "midi": 93,
                    "time": 320.2344599999991,
                    "velocity": 0.6456692913385826,
                    "duration": 0.1759529999999927
                },
                {
                    "name": "A5",
                    "midi": 81,
                    "time": 320.2344599999991,
                    "velocity": 0.5511811023622047,
                    "duration": 0.1759529999999927
                },
                {
                    "name": "B6",
                    "midi": 95,
                    "time": 320.4104129999991,
                    "velocity": 0.5984251968503937,
                    "duration": 0.1759529999999927
                },
                {
                    "name": "B5",
                    "midi": 83,
                    "time": 320.4104129999991,
                    "velocity": 0.5118110236220472,
                    "duration": 0.1759529999999927
                },
                {
                    "name": "C#7",
                    "midi": 97,
                    "time": 320.5863659999991,
                    "velocity": 0.6456692913385826,
                    "duration": 0.5278589999999781
                },
                {
                    "name": "C#6",
                    "midi": 85,
                    "time": 320.5863659999991,
                    "velocity": 0.5511811023622047,
                    "duration": 0.5278589999999781
                },
                {
                    "name": "C#7",
                    "midi": 97,
                    "time": 321.11422499999907,
                    "velocity": 0.6299212598425197,
                    "duration": 0.1759529999999927
                },
                {
                    "name": "C#6",
                    "midi": 85,
                    "time": 321.11422499999907,
                    "velocity": 0.5354330708661418,
                    "duration": 0.1759529999999927
                },
                {
                    "name": "C#7",
                    "midi": 97,
                    "time": 321.29017799999906,
                    "velocity": 0.6456692913385826,
                    "duration": 0.1759529999999927
                },
                {
                    "name": "C#6",
                    "midi": 85,
                    "time": 321.29017799999906,
                    "velocity": 0.5511811023622047,
                    "duration": 0.1759529999999927
                },
                {
                    "name": "B6",
                    "midi": 95,
                    "time": 321.46613099999905,
                    "velocity": 0.5984251968503937,
                    "duration": 0.1759529999999927
                },
                {
                    "name": "B5",
                    "midi": 83,
                    "time": 321.46613099999905,
                    "velocity": 0.5118110236220472,
                    "duration": 0.1759529999999927
                },
                {
                    "name": "A6",
                    "midi": 93,
                    "time": 321.64208399999904,
                    "velocity": 0.6456692913385826,
                    "duration": 0.1759529999999927
                },
                {
                    "name": "A5",
                    "midi": 81,
                    "time": 321.64208399999904,
                    "velocity": 0.5511811023622047,
                    "duration": 0.1759529999999927
                },
                {
                    "name": "G#6",
                    "midi": 92,
                    "time": 321.81803699999904,
                    "velocity": 0.5984251968503937,
                    "duration": 0.1759529999999927
                },
                {
                    "name": "G#5",
                    "midi": 80,
                    "time": 321.81803699999904,
                    "velocity": 0.5118110236220472,
                    "duration": 0.1759529999999927
                },
                {
                    "name": "A6",
                    "midi": 93,
                    "time": 321.99398999999903,
                    "velocity": 0.6456692913385826,
                    "duration": 0.5278589999999781
                },
                {
                    "name": "A5",
                    "midi": 81,
                    "time": 321.99398999999903,
                    "velocity": 0.5511811023622047,
                    "duration": 0.5278589999999781
                },
                {
                    "name": "F#7",
                    "midi": 102,
                    "time": 322.521848999999,
                    "velocity": 0.6299212598425197,
                    "duration": 0.1759529999999927
                },
                {
                    "name": "F#6",
                    "midi": 90,
                    "time": 322.521848999999,
                    "velocity": 0.5354330708661418,
                    "duration": 0.1759529999999927
                },
                {
                    "name": "E7",
                    "midi": 100,
                    "time": 322.697801999999,
                    "velocity": 0.6456692913385826,
                    "duration": 0.1759529999999927
                },
                {
                    "name": "E6",
                    "midi": 88,
                    "time": 322.697801999999,
                    "velocity": 0.5511811023622047,
                    "duration": 0.1759529999999927
                },
                {
                    "name": "D7",
                    "midi": 98,
                    "time": 322.873754999999,
                    "velocity": 0.5984251968503937,
                    "duration": 0.1759529999999927
                },
                {
                    "name": "D6",
                    "midi": 86,
                    "time": 322.873754999999,
                    "velocity": 0.5118110236220472,
                    "duration": 0.1759529999999927
                },
                {
                    "name": "C#7",
                    "midi": 97,
                    "time": 323.049707999999,
                    "velocity": 0.6456692913385826,
                    "duration": 0.1759529999999927
                },
                {
                    "name": "C#6",
                    "midi": 85,
                    "time": 323.049707999999,
                    "velocity": 0.5511811023622047,
                    "duration": 0.1759529999999927
                },
                {
                    "name": "E7",
                    "midi": 100,
                    "time": 323.225660999999,
                    "velocity": 0.5984251968503937,
                    "duration": 0.1759529999999927
                },
                {
                    "name": "E6",
                    "midi": 88,
                    "time": 323.225660999999,
                    "velocity": 0.5118110236220472,
                    "duration": 0.1759529999999927
                },
                {
                    "name": "D7",
                    "midi": 98,
                    "time": 323.401613999999,
                    "velocity": 0.6456692913385826,
                    "duration": 0.1759529999999927
                },
                {
                    "name": "D6",
                    "midi": 86,
                    "time": 323.401613999999,
                    "velocity": 0.5511811023622047,
                    "duration": 0.1759529999999927
                },
                {
                    "name": "C#7",
                    "midi": 97,
                    "time": 323.57756699999896,
                    "velocity": 0.5984251968503937,
                    "duration": 0.1759529999999927
                },
                {
                    "name": "C#6",
                    "midi": 85,
                    "time": 323.57756699999896,
                    "velocity": 0.5118110236220472,
                    "duration": 0.1759529999999927
                },
                {
                    "name": "B6",
                    "midi": 95,
                    "time": 323.75351999999896,
                    "velocity": 0.6456692913385826,
                    "duration": 0.1759529999999927
                },
                {
                    "name": "B5",
                    "midi": 83,
                    "time": 323.75351999999896,
                    "velocity": 0.5511811023622047,
                    "duration": 0.1759529999999927
                },
                {
                    "name": "D7",
                    "midi": 98,
                    "time": 323.92947299999895,
                    "velocity": 0.5984251968503937,
                    "duration": 0.1759529999999927
                },
                {
                    "name": "D6",
                    "midi": 86,
                    "time": 323.92947299999895,
                    "velocity": 0.5118110236220472,
                    "duration": 0.1759529999999927
                },
                {
                    "name": "C#7",
                    "midi": 97,
                    "time": 324.10542599999894,
                    "velocity": 0.6456692913385826,
                    "duration": 0.1759529999999927
                },
                {
                    "name": "C#6",
                    "midi": 85,
                    "time": 324.10542599999894,
                    "velocity": 0.5511811023622047,
                    "duration": 0.1759529999999927
                },
                {
                    "name": "B6",
                    "midi": 95,
                    "time": 324.28137899999894,
                    "velocity": 0.5984251968503937,
                    "duration": 0.1759529999999927
                },
                {
                    "name": "B5",
                    "midi": 83,
                    "time": 324.28137899999894,
                    "velocity": 0.5118110236220472,
                    "duration": 0.1759529999999927
                },
                {
                    "name": "A6",
                    "midi": 93,
                    "time": 324.4573319999989,
                    "velocity": 0.6456692913385826,
                    "duration": 0.1759529999999927
                },
                {
                    "name": "A5",
                    "midi": 81,
                    "time": 324.4573319999989,
                    "velocity": 0.5511811023622047,
                    "duration": 0.1759529999999927
                },
                {
                    "name": "C#7",
                    "midi": 97,
                    "time": 324.6332849999989,
                    "velocity": 0.5984251968503937,
                    "duration": 0.1759529999999927
                },
                {
                    "name": "C#6",
                    "midi": 85,
                    "time": 324.6332849999989,
                    "velocity": 0.5118110236220472,
                    "duration": 0.1759529999999927
                },
                {
                    "name": "B6",
                    "midi": 95,
                    "time": 324.8092379999989,
                    "velocity": 0.6456692913385826,
                    "duration": 0.1759529999999927
                },
                {
                    "name": "B5",
                    "midi": 83,
                    "time": 324.8092379999989,
                    "velocity": 0.5511811023622047,
                    "duration": 0.1759529999999927
                },
                {
                    "name": "A6",
                    "midi": 93,
                    "time": 324.9851909999989,
                    "velocity": 0.5984251968503937,
                    "duration": 0.1759529999999927
                },
                {
                    "name": "A5",
                    "midi": 81,
                    "time": 324.9851909999989,
                    "velocity": 0.5118110236220472,
                    "duration": 0.1759529999999927
                },
                {
                    "name": "G#6",
                    "midi": 92,
                    "time": 325.1611439999989,
                    "velocity": 0.6456692913385826,
                    "duration": 0.3519059999999854
                },
                {
                    "name": "G#5",
                    "midi": 80,
                    "time": 325.1611439999989,
                    "velocity": 0.5511811023622047,
                    "duration": 0.3519059999999854
                },
                {
                    "name": "A6",
                    "midi": 93,
                    "time": 325.5130499999989,
                    "velocity": 0.6456692913385826,
                    "duration": 0.1759529999999927
                },
                {
                    "name": "A5",
                    "midi": 81,
                    "time": 325.5130499999989,
                    "velocity": 0.5511811023622047,
                    "duration": 0.1759529999999927
                },
                {
                    "name": "G#6",
                    "midi": 92,
                    "time": 325.6890029999989,
                    "velocity": 0.5984251968503937,
                    "duration": 0.1759529999999927
                },
                {
                    "name": "G#5",
                    "midi": 80,
                    "time": 325.6890029999989,
                    "velocity": 0.5118110236220472,
                    "duration": 0.1759529999999927
                },
                {
                    "name": "A6",
                    "midi": 93,
                    "time": 325.86495599999887,
                    "velocity": 0.6456692913385826,
                    "duration": 0.1759529999999927
                },
                {
                    "name": "A5",
                    "midi": 81,
                    "time": 325.86495599999887,
                    "velocity": 0.5511811023622047,
                    "duration": 0.1759529999999927
                },
                {
                    "name": "B6",
                    "midi": 95,
                    "time": 326.04090899999886,
                    "velocity": 0.5984251968503937,
                    "duration": 0.1759529999999927
                },
                {
                    "name": "B5",
                    "midi": 83,
                    "time": 326.04090899999886,
                    "velocity": 0.5118110236220472,
                    "duration": 0.1759529999999927
                },
                {
                    "name": "C#7",
                    "midi": 97,
                    "time": 326.21686199999886,
                    "velocity": 0.6456692913385826,
                    "duration": 0.5278589999999781
                },
                {
                    "name": "C#6",
                    "midi": 85,
                    "time": 326.21686199999886,
                    "velocity": 0.5511811023622047,
                    "duration": 0.5278589999999781
                },
                {
                    "name": "C#7",
                    "midi": 97,
                    "time": 326.74472099999883,
                    "velocity": 0.6299212598425197,
                    "duration": 0.1759529999999927
                },
                {
                    "name": "C#6",
                    "midi": 85,
                    "time": 326.74472099999883,
                    "velocity": 0.5354330708661418,
                    "duration": 0.1759529999999927
                },
                {
                    "name": "C#7",
                    "midi": 97,
                    "time": 326.9206739999988,
                    "velocity": 0.6456692913385826,
                    "duration": 0.1759529999999927
                },
                {
                    "name": "C#6",
                    "midi": 85,
                    "time": 326.9206739999988,
                    "velocity": 0.5511811023622047,
                    "duration": 0.1759529999999927
                },
                {
                    "name": "B6",
                    "midi": 95,
                    "time": 327.0966269999988,
                    "velocity": 0.5984251968503937,
                    "duration": 0.1759529999999927
                },
                {
                    "name": "B5",
                    "midi": 83,
                    "time": 327.0966269999988,
                    "velocity": 0.5118110236220472,
                    "duration": 0.1759529999999927
                },
                {
                    "name": "A6",
                    "midi": 93,
                    "time": 327.2725799999988,
                    "velocity": 0.6456692913385826,
                    "duration": 0.1759529999999927
                },
                {
                    "name": "A5",
                    "midi": 81,
                    "time": 327.2725799999988,
                    "velocity": 0.5511811023622047,
                    "duration": 0.1759529999999927
                },
                {
                    "name": "G#6",
                    "midi": 92,
                    "time": 327.4485329999988,
                    "velocity": 0.5984251968503937,
                    "duration": 0.1759529999999927
                },
                {
                    "name": "G#5",
                    "midi": 80,
                    "time": 327.4485329999988,
                    "velocity": 0.5118110236220472,
                    "duration": 0.1759529999999927
                },
                {
                    "name": "A6",
                    "midi": 93,
                    "time": 327.6244859999988,
                    "velocity": 0.6456692913385826,
                    "duration": 0.5278589999999781
                },
                {
                    "name": "A5",
                    "midi": 81,
                    "time": 327.6244859999988,
                    "velocity": 0.5511811023622047,
                    "duration": 0.5278589999999781
                },
                {
                    "name": "F#7",
                    "midi": 102,
                    "time": 328.1523449999988,
                    "velocity": 0.6299212598425197,
                    "duration": 0.1759529999999927
                },
                {
                    "name": "F#6",
                    "midi": 90,
                    "time": 328.1523449999988,
                    "velocity": 0.5354330708661418,
                    "duration": 0.1759529999999927
                },
                {
                    "name": "E7",
                    "midi": 100,
                    "time": 328.32829799999877,
                    "velocity": 0.6456692913385826,
                    "duration": 0.1759529999999927
                },
                {
                    "name": "E6",
                    "midi": 88,
                    "time": 328.32829799999877,
                    "velocity": 0.5511811023622047,
                    "duration": 0.1759529999999927
                },
                {
                    "name": "D7",
                    "midi": 98,
                    "time": 328.50425099999876,
                    "velocity": 0.5984251968503937,
                    "duration": 0.1759529999999927
                },
                {
                    "name": "D6",
                    "midi": 86,
                    "time": 328.50425099999876,
                    "velocity": 0.5118110236220472,
                    "duration": 0.1759529999999927
                },
                {
                    "name": "C#7",
                    "midi": 97,
                    "time": 328.68020399999875,
                    "velocity": 0.6456692913385826,
                    "duration": 0.1759529999999927
                },
                {
                    "name": "C#6",
                    "midi": 85,
                    "time": 328.68020399999875,
                    "velocity": 0.5511811023622047,
                    "duration": 0.1759529999999927
                },
                {
                    "name": "E7",
                    "midi": 100,
                    "time": 328.85615699999875,
                    "velocity": 0.5984251968503937,
                    "duration": 0.1759529999999927
                },
                {
                    "name": "E6",
                    "midi": 88,
                    "time": 328.85615699999875,
                    "velocity": 0.5118110236220472,
                    "duration": 0.1759529999999927
                },
                {
                    "name": "D7",
                    "midi": 98,
                    "time": 329.03210999999874,
                    "velocity": 0.6456692913385826,
                    "duration": 0.1759529999999927
                },
                {
                    "name": "D6",
                    "midi": 86,
                    "time": 329.03210999999874,
                    "velocity": 0.5511811023622047,
                    "duration": 0.1759529999999927
                },
                {
                    "name": "C#7",
                    "midi": 97,
                    "time": 329.20806299999873,
                    "velocity": 0.5984251968503937,
                    "duration": 0.1759529999999927
                },
                {
                    "name": "C#6",
                    "midi": 85,
                    "time": 329.20806299999873,
                    "velocity": 0.5118110236220472,
                    "duration": 0.1759529999999927
                },
                {
                    "name": "B6",
                    "midi": 95,
                    "time": 329.3840159999987,
                    "velocity": 0.6456692913385826,
                    "duration": 0.1759529999999927
                },
                {
                    "name": "B5",
                    "midi": 83,
                    "time": 329.3840159999987,
                    "velocity": 0.5511811023622047,
                    "duration": 0.1759529999999927
                },
                {
                    "name": "D7",
                    "midi": 98,
                    "time": 329.5599689999987,
                    "velocity": 0.5984251968503937,
                    "duration": 0.1759529999999927
                },
                {
                    "name": "D6",
                    "midi": 86,
                    "time": 329.5599689999987,
                    "velocity": 0.5118110236220472,
                    "duration": 0.1759529999999927
                },
                {
                    "name": "C#7",
                    "midi": 97,
                    "time": 329.7359219999987,
                    "velocity": 0.6456692913385826,
                    "duration": 0.1759529999999927
                },
                {
                    "name": "C#6",
                    "midi": 85,
                    "time": 329.7359219999987,
                    "velocity": 0.5511811023622047,
                    "duration": 0.1759529999999927
                },
                {
                    "name": "B6",
                    "midi": 95,
                    "time": 329.9118749999987,
                    "velocity": 0.5984251968503937,
                    "duration": 0.1759529999999927
                },
                {
                    "name": "B5",
                    "midi": 83,
                    "time": 329.9118749999987,
                    "velocity": 0.5118110236220472,
                    "duration": 0.1759529999999927
                },
                {
                    "name": "A6",
                    "midi": 93,
                    "time": 330.0878279999987,
                    "velocity": 0.6456692913385826,
                    "duration": 0.1759529999999927
                },
                {
                    "name": "A5",
                    "midi": 81,
                    "time": 330.0878279999987,
                    "velocity": 0.5511811023622047,
                    "duration": 0.1759529999999927
                },
                {
                    "name": "C#7",
                    "midi": 97,
                    "time": 330.2637809999987,
                    "velocity": 0.5984251968503937,
                    "duration": 0.1759529999999927
                },
                {
                    "name": "C#6",
                    "midi": 85,
                    "time": 330.2637809999987,
                    "velocity": 0.5118110236220472,
                    "duration": 0.1759529999999927
                },
                {
                    "name": "B6",
                    "midi": 95,
                    "time": 330.4397339999987,
                    "velocity": 0.6456692913385826,
                    "duration": 0.1759529999999927
                },
                {
                    "name": "B5",
                    "midi": 83,
                    "time": 330.4397339999987,
                    "velocity": 0.5511811023622047,
                    "duration": 0.1759529999999927
                },
                {
                    "name": "A6",
                    "midi": 93,
                    "time": 330.6156869999987,
                    "velocity": 0.5984251968503937,
                    "duration": 0.1759529999999927
                },
                {
                    "name": "A5",
                    "midi": 81,
                    "time": 330.6156869999987,
                    "velocity": 0.5118110236220472,
                    "duration": 0.1759529999999927
                },
                {
                    "name": "G#6",
                    "midi": 92,
                    "time": 330.79163999999867,
                    "velocity": 0.6456692913385826,
                    "duration": 0.3519059999999854
                },
                {
                    "name": "G#5",
                    "midi": 80,
                    "time": 330.79163999999867,
                    "velocity": 0.5511811023622047,
                    "duration": 0.3519059999999854
                },
                {
                    "name": "A5",
                    "midi": 81,
                    "time": 331.14354599999865,
                    "velocity": 0.5433070866141733,
                    "duration": 0.1759529999999927
                },
                {
                    "name": "A4",
                    "midi": 69,
                    "time": 331.14354599999865,
                    "velocity": 0.4566929133858268,
                    "duration": 0.1759529999999927
                },
                {
                    "name": "G#5",
                    "midi": 80,
                    "time": 331.31949899999864,
                    "velocity": 0.47244094488188976,
                    "duration": 0.1759529999999927
                },
                {
                    "name": "G#4",
                    "midi": 68,
                    "time": 331.31949899999864,
                    "velocity": 0.4015748031496063,
                    "duration": 0.1759529999999927
                },
                {
                    "name": "F5",
                    "midi": 77,
                    "time": 331.49545199999864,
                    "velocity": 0.5590551181102362,
                    "duration": 0.1759529999999927
                },
                {
                    "name": "F4",
                    "midi": 65,
                    "time": 331.49545199999864,
                    "velocity": 0.47244094488188976,
                    "duration": 0.1759529999999927
                },
                {
                    "name": "A5",
                    "midi": 81,
                    "time": 331.67140499999863,
                    "velocity": 0.5039370078740157,
                    "duration": 0.1759529999999927
                },
                {
                    "name": "A4",
                    "midi": 69,
                    "time": 331.67140499999863,
                    "velocity": 0.4251968503937008,
                    "duration": 0.1759529999999927
                },
                {
                    "name": "G#5",
                    "midi": 80,
                    "time": 331.8473579999986,
                    "velocity": 0.5905511811023622,
                    "duration": 0.1759529999999927
                },
                {
                    "name": "G#4",
                    "midi": 68,
                    "time": 331.8473579999986,
                    "velocity": 0.49606299212598426,
                    "duration": 0.1759529999999927
                },
                {
                    "name": "F5",
                    "midi": 77,
                    "time": 332.0233109999986,
                    "velocity": 0.5590551181102362,
                    "duration": 0.1759529999999927
                },
                {
                    "name": "F4",
                    "midi": 65,
                    "time": 332.0233109999986,
                    "velocity": 0.47244094488188976,
                    "duration": 0.1759529999999927
                },
                {
                    "name": "E5",
                    "midi": 76,
                    "time": 332.1992639999986,
                    "velocity": 0.6062992125984252,
                    "duration": 0.1759529999999927
                },
                {
                    "name": "E4",
                    "midi": 64,
                    "time": 332.1992639999986,
                    "velocity": 0.5118110236220472,
                    "duration": 0.1759529999999927
                },
                {
                    "name": "G#5",
                    "midi": 80,
                    "time": 332.3752169999986,
                    "velocity": 0.5748031496062992,
                    "duration": 0.1759529999999927
                },
                {
                    "name": "G#4",
                    "midi": 68,
                    "time": 332.3752169999986,
                    "velocity": 0.4881889763779528,
                    "duration": 0.1759529999999927
                },
                {
                    "name": "F5",
                    "midi": 77,
                    "time": 332.5511699999986,
                    "velocity": 0.6377952755905512,
                    "duration": 0.1759529999999927
                },
                {
                    "name": "F4",
                    "midi": 65,
                    "time": 332.5511699999986,
                    "velocity": 0.5433070866141733,
                    "duration": 0.1759529999999927
                },
                {
                    "name": "E5",
                    "midi": 76,
                    "time": 332.7271229999986,
                    "velocity": 0.5669291338582677,
                    "duration": 0.1759529999999927
                },
                {
                    "name": "E4",
                    "midi": 64,
                    "time": 332.7271229999986,
                    "velocity": 0.48031496062992124,
                    "duration": 0.1759529999999927
                },
                {
                    "name": "D5",
                    "midi": 74,
                    "time": 332.9030759999986,
                    "velocity": 0.6614173228346457,
                    "duration": 0.1759529999999927
                },
                {
                    "name": "D4",
                    "midi": 62,
                    "time": 332.9030759999986,
                    "velocity": 0.5590551181102362,
                    "duration": 0.1759529999999927
                },
                {
                    "name": "F5",
                    "midi": 77,
                    "time": 333.07902899999857,
                    "velocity": 0.5905511811023622,
                    "duration": 0.1759529999999927
                },
                {
                    "name": "F4",
                    "midi": 65,
                    "time": 333.07902899999857,
                    "velocity": 0.49606299212598426,
                    "duration": 0.1759529999999927
                },
                {
                    "name": "D5",
                    "midi": 74,
                    "time": 333.25498199999856,
                    "velocity": 0.6929133858267716,
                    "duration": 0.1759529999999927
                },
                {
                    "name": "D4",
                    "midi": 62,
                    "time": 333.25498199999856,
                    "velocity": 0.5826771653543307,
                    "duration": 0.1759529999999927
                },
                {
                    "name": "C#5",
                    "midi": 73,
                    "time": 333.43093499999856,
                    "velocity": 0.6535433070866141,
                    "duration": 0.1759529999999927
                },
                {
                    "name": "C#4",
                    "midi": 61,
                    "time": 333.43093499999856,
                    "velocity": 0.5511811023622047,
                    "duration": 0.1759529999999927
                },
                {
                    "name": "A#3",
                    "midi": 58,
                    "time": 333.60688799999855,
                    "velocity": 0.5984251968503937,
                    "duration": 0.1759529999999927
                },
                {
                    "name": "A#4",
                    "midi": 70,
                    "time": 333.60688799999855,
                    "velocity": 0.7086614173228346,
                    "duration": 0.1759529999999927
                },
                {
                    "name": "A5",
                    "midi": 81,
                    "time": 333.95879399999853,
                    "velocity": 0.5433070866141733,
                    "duration": 0.1759529999999927
                },
                {
                    "name": "A4",
                    "midi": 69,
                    "time": 333.95879399999853,
                    "velocity": 0.4566929133858268,
                    "duration": 0.1759529999999927
                },
                {
                    "name": "G#5",
                    "midi": 80,
                    "time": 334.1347469999985,
                    "velocity": 0.47244094488188976,
                    "duration": 0.1759529999999927
                },
                {
                    "name": "G#4",
                    "midi": 68,
                    "time": 334.1347469999985,
                    "velocity": 0.4015748031496063,
                    "duration": 0.1759529999999927
                },
                {
                    "name": "F5",
                    "midi": 77,
                    "time": 334.3106999999985,
                    "velocity": 0.5590551181102362,
                    "duration": 0.1759529999999927
                },
                {
                    "name": "F4",
                    "midi": 65,
                    "time": 334.3106999999985,
                    "velocity": 0.47244094488188976,
                    "duration": 0.1759529999999927
                },
                {
                    "name": "A5",
                    "midi": 81,
                    "time": 334.4866529999985,
                    "velocity": 0.5039370078740157,
                    "duration": 0.1759529999999927
                },
                {
                    "name": "A4",
                    "midi": 69,
                    "time": 334.4866529999985,
                    "velocity": 0.4251968503937008,
                    "duration": 0.1759529999999927
                },
                {
                    "name": "G#5",
                    "midi": 80,
                    "time": 334.6626059999985,
                    "velocity": 0.5905511811023622,
                    "duration": 0.1759529999999927
                },
                {
                    "name": "G#4",
                    "midi": 68,
                    "time": 334.6626059999985,
                    "velocity": 0.49606299212598426,
                    "duration": 0.1759529999999927
                },
                {
                    "name": "F5",
                    "midi": 77,
                    "time": 334.8385589999985,
                    "velocity": 0.5590551181102362,
                    "duration": 0.1759529999999927
                },
                {
                    "name": "F4",
                    "midi": 65,
                    "time": 334.8385589999985,
                    "velocity": 0.47244094488188976,
                    "duration": 0.1759529999999927
                },
                {
                    "name": "E5",
                    "midi": 76,
                    "time": 335.0145119999985,
                    "velocity": 0.6062992125984252,
                    "duration": 0.1759529999999927
                },
                {
                    "name": "E4",
                    "midi": 64,
                    "time": 335.0145119999985,
                    "velocity": 0.5118110236220472,
                    "duration": 0.1759529999999927
                },
                {
                    "name": "G#5",
                    "midi": 80,
                    "time": 335.1904649999985,
                    "velocity": 0.5748031496062992,
                    "duration": 0.1759529999999927
                },
                {
                    "name": "G#4",
                    "midi": 68,
                    "time": 335.1904649999985,
                    "velocity": 0.4881889763779528,
                    "duration": 0.1759529999999927
                },
                {
                    "name": "F5",
                    "midi": 77,
                    "time": 335.3664179999985,
                    "velocity": 0.6377952755905512,
                    "duration": 0.1759529999999927
                },
                {
                    "name": "F4",
                    "midi": 65,
                    "time": 335.3664179999985,
                    "velocity": 0.5433070866141733,
                    "duration": 0.1759529999999927
                },
                {
                    "name": "E5",
                    "midi": 76,
                    "time": 335.54237099999847,
                    "velocity": 0.5669291338582677,
                    "duration": 0.1759529999999927
                },
                {
                    "name": "E4",
                    "midi": 64,
                    "time": 335.54237099999847,
                    "velocity": 0.48031496062992124,
                    "duration": 0.1759529999999927
                },
                {
                    "name": "D5",
                    "midi": 74,
                    "time": 335.71832399999846,
                    "velocity": 0.6614173228346457,
                    "duration": 0.1759529999999927
                },
                {
                    "name": "D4",
                    "midi": 62,
                    "time": 335.71832399999846,
                    "velocity": 0.5590551181102362,
                    "duration": 0.1759529999999927
                },
                {
                    "name": "F5",
                    "midi": 77,
                    "time": 335.89427699999845,
                    "velocity": 0.5905511811023622,
                    "duration": 0.1759529999999927
                },
                {
                    "name": "F4",
                    "midi": 65,
                    "time": 335.89427699999845,
                    "velocity": 0.49606299212598426,
                    "duration": 0.1759529999999927
                },
                {
                    "name": "D5",
                    "midi": 74,
                    "time": 336.07022999999845,
                    "velocity": 0.6929133858267716,
                    "duration": 0.1759529999999927
                },
                {
                    "name": "D4",
                    "midi": 62,
                    "time": 336.07022999999845,
                    "velocity": 0.5826771653543307,
                    "duration": 0.1759529999999927
                },
                {
                    "name": "C#5",
                    "midi": 73,
                    "time": 336.24618299999844,
                    "velocity": 0.6535433070866141,
                    "duration": 0.1759529999999927
                },
                {
                    "name": "C#4",
                    "midi": 61,
                    "time": 336.24618299999844,
                    "velocity": 0.5511811023622047,
                    "duration": 0.1759529999999927
                },
                {
                    "name": "A#3",
                    "midi": 58,
                    "time": 336.42213599999843,
                    "velocity": 0.5984251968503937,
                    "duration": 0.1759529999999927
                },
                {
                    "name": "A#4",
                    "midi": 70,
                    "time": 336.42213599999843,
                    "velocity": 0.7086614173228346,
                    "duration": 0.1759529999999927
                },
                {
                    "name": "A4",
                    "midi": 69,
                    "time": 336.7740419999984,
                    "velocity": 0.5039370078740157,
                    "duration": 0.1759529999999927
                },
                {
                    "name": "A3",
                    "midi": 57,
                    "time": 336.7740419999984,
                    "velocity": 0.4251968503937008,
                    "duration": 0.1759529999999927
                },
                {
                    "name": "A#4",
                    "midi": 70,
                    "time": 336.9499949999984,
                    "velocity": 0.5039370078740157,
                    "duration": 0.1759529999999927
                },
                {
                    "name": "A#3",
                    "midi": 58,
                    "time": 336.9499949999984,
                    "velocity": 0.4251968503937008,
                    "duration": 0.1759529999999927
                },
                {
                    "name": "C#5",
                    "midi": 73,
                    "time": 337.1259479999984,
                    "velocity": 0.5118110236220472,
                    "duration": 0.1759529999999927
                },
                {
                    "name": "C#4",
                    "midi": 61,
                    "time": 337.1259479999984,
                    "velocity": 0.4330708661417323,
                    "duration": 0.1759529999999927
                },
                {
                    "name": "D5",
                    "midi": 74,
                    "time": 337.3019009999984,
                    "velocity": 0.5196850393700787,
                    "duration": 0.1759529999999927
                },
                {
                    "name": "D4",
                    "midi": 62,
                    "time": 337.3019009999984,
                    "velocity": 0.4409448818897638,
                    "duration": 0.1759529999999927
                },
                {
                    "name": "E5",
                    "midi": 76,
                    "time": 337.4778539999984,
                    "velocity": 0.5275590551181102,
                    "duration": 0.1759529999999927
                },
                {
                    "name": "E4",
                    "midi": 64,
                    "time": 337.4778539999984,
                    "velocity": 0.4409448818897638,
                    "duration": 0.1759529999999927
                },
                {
                    "name": "F5",
                    "midi": 77,
                    "time": 337.6538069999984,
                    "velocity": 0.5354330708661418,
                    "duration": 0.1759529999999927
                },
                {
                    "name": "F4",
                    "midi": 65,
                    "time": 337.6538069999984,
                    "velocity": 0.44881889763779526,
                    "duration": 0.1759529999999927
                },
                {
                    "name": "G#5",
                    "midi": 80,
                    "time": 337.8297599999984,
                    "velocity": 0.5433070866141733,
                    "duration": 0.1759529999999927
                },
                {
                    "name": "G#4",
                    "midi": 68,
                    "time": 337.8297599999984,
                    "velocity": 0.4566929133858268,
                    "duration": 0.1759529999999927
                },
                {
                    "name": "A5",
                    "midi": 81,
                    "time": 338.00571299999837,
                    "velocity": 0.5511811023622047,
                    "duration": 0.1759529999999927
                },
                {
                    "name": "A4",
                    "midi": 69,
                    "time": 338.00571299999837,
                    "velocity": 0.4645669291338583,
                    "duration": 0.1759529999999927
                },
                {
                    "name": "A#5",
                    "midi": 82,
                    "time": 338.18166599999836,
                    "velocity": 0.5590551181102362,
                    "duration": 0.1759529999999927
                },
                {
                    "name": "A#4",
                    "midi": 70,
                    "time": 338.18166599999836,
                    "velocity": 0.47244094488188976,
                    "duration": 0.1759529999999927
                },
                {
                    "name": "C#6",
                    "midi": 85,
                    "time": 338.35761899999835,
                    "velocity": 0.5669291338582677,
                    "duration": 0.1759529999999927
                },
                {
                    "name": "C#5",
                    "midi": 73,
                    "time": 338.35761899999835,
                    "velocity": 0.48031496062992124,
                    "duration": 0.1759529999999927
                },
                {
                    "name": "D6",
                    "midi": 86,
                    "time": 338.53357199999834,
                    "velocity": 0.5748031496062992,
                    "duration": 0.1759529999999927
                },
                {
                    "name": "D5",
                    "midi": 74,
                    "time": 338.53357199999834,
                    "velocity": 0.4881889763779528,
                    "duration": 0.1759529999999927
                },
                {
                    "name": "E6",
                    "midi": 88,
                    "time": 338.70952499999834,
                    "velocity": 0.5826771653543307,
                    "duration": 0.1759529999999927
                },
                {
                    "name": "E5",
                    "midi": 76,
                    "time": 338.70952499999834,
                    "velocity": 0.4881889763779528,
                    "duration": 0.1759529999999927
                },
                {
                    "name": "F6",
                    "midi": 89,
                    "time": 338.88547799999833,
                    "velocity": 0.5826771653543307,
                    "duration": 0.1759529999999927
                },
                {
                    "name": "F5",
                    "midi": 77,
                    "time": 338.88547799999833,
                    "velocity": 0.4881889763779528,
                    "duration": 0.1759529999999927
                },
                {
                    "name": "G#6",
                    "midi": 92,
                    "time": 339.0614309999983,
                    "velocity": 0.5905511811023622,
                    "duration": 0.1759529999999927
                },
                {
                    "name": "G#5",
                    "midi": 80,
                    "time": 339.0614309999983,
                    "velocity": 0.49606299212598426,
                    "duration": 0.1759529999999927
                },
                {
                    "name": "A6",
                    "midi": 93,
                    "time": 339.2373839999983,
                    "velocity": 0.5984251968503937,
                    "duration": 0.1759529999999927
                },
                {
                    "name": "A5",
                    "midi": 81,
                    "time": 339.2373839999983,
                    "velocity": 0.5039370078740157,
                    "duration": 0.1759529999999927
                },
                {
                    "name": "A#6",
                    "midi": 94,
                    "time": 339.4133369999983,
                    "velocity": 0.6062992125984252,
                    "duration": 0.1759529999999927
                },
                {
                    "name": "A#5",
                    "midi": 82,
                    "time": 339.4133369999983,
                    "velocity": 0.5118110236220472,
                    "duration": 0.1759529999999927
                },
                {
                    "name": "C#7",
                    "midi": 97,
                    "time": 339.5892899999983,
                    "velocity": 0.6141732283464567,
                    "duration": 0.1759529999999927
                },
                {
                    "name": "C#6",
                    "midi": 85,
                    "time": 339.5892899999983,
                    "velocity": 0.5196850393700787,
                    "duration": 0.1759529999999927
                },
                {
                    "name": "A#6",
                    "midi": 94,
                    "time": 339.7652429999983,
                    "velocity": 0.6062992125984252,
                    "duration": 0.1759529999999927
                },
                {
                    "name": "A#5",
                    "midi": 82,
                    "time": 339.7652429999983,
                    "velocity": 0.5118110236220472,
                    "duration": 0.1759529999999927
                },
                {
                    "name": "A6",
                    "midi": 93,
                    "time": 339.9411959999983,
                    "velocity": 0.5905511811023622,
                    "duration": 0.1759529999999927
                },
                {
                    "name": "A5",
                    "midi": 81,
                    "time": 339.9411959999983,
                    "velocity": 0.49606299212598426,
                    "duration": 0.1759529999999927
                },
                {
                    "name": "G#6",
                    "midi": 92,
                    "time": 340.1171489999983,
                    "velocity": 0.5826771653543307,
                    "duration": 0.1759529999999927
                },
                {
                    "name": "G#5",
                    "midi": 80,
                    "time": 340.1171489999983,
                    "velocity": 0.4881889763779528,
                    "duration": 0.1759529999999927
                },
                {
                    "name": "F6",
                    "midi": 89,
                    "time": 340.29310199999827,
                    "velocity": 0.5669291338582677,
                    "duration": 0.1759529999999927
                },
                {
                    "name": "F5",
                    "midi": 77,
                    "time": 340.29310199999827,
                    "velocity": 0.48031496062992124,
                    "duration": 0.1759529999999927
                },
                {
                    "name": "E6",
                    "midi": 88,
                    "time": 340.46905499999826,
                    "velocity": 0.5511811023622047,
                    "duration": 0.1759529999999927
                },
                {
                    "name": "E5",
                    "midi": 76,
                    "time": 340.46905499999826,
                    "velocity": 0.4645669291338583,
                    "duration": 0.1759529999999927
                },
                {
                    "name": "D6",
                    "midi": 86,
                    "time": 340.64500799999826,
                    "velocity": 0.5433070866141733,
                    "duration": 0.1759529999999927
                },
                {
                    "name": "D5",
                    "midi": 74,
                    "time": 340.64500799999826,
                    "velocity": 0.4566929133858268,
                    "duration": 0.1759529999999927
                },
                {
                    "name": "C#6",
                    "midi": 85,
                    "time": 340.82096099999825,
                    "velocity": 0.5275590551181102,
                    "duration": 0.1759529999999927
                },
                {
                    "name": "C#5",
                    "midi": 73,
                    "time": 340.82096099999825,
                    "velocity": 0.4409448818897638,
                    "duration": 0.1759529999999927
                },
                {
                    "name": "A#5",
                    "midi": 82,
                    "time": 340.99691399999824,
                    "velocity": 0.5275590551181102,
                    "duration": 0.1759529999999927
                },
                {
                    "name": "A#4",
                    "midi": 70,
                    "time": 340.99691399999824,
                    "velocity": 0.4409448818897638,
                    "duration": 0.1759529999999927
                },
                {
                    "name": "A5",
                    "midi": 81,
                    "time": 341.17286699999823,
                    "velocity": 0.5433070866141733,
                    "duration": 0.1759529999999927
                },
                {
                    "name": "A4",
                    "midi": 69,
                    "time": 341.17286699999823,
                    "velocity": 0.4566929133858268,
                    "duration": 0.1759529999999927
                },
                {
                    "name": "G#5",
                    "midi": 80,
                    "time": 341.3488199999982,
                    "velocity": 0.5590551181102362,
                    "duration": 0.1759529999999927
                },
                {
                    "name": "G#4",
                    "midi": 68,
                    "time": 341.3488199999982,
                    "velocity": 0.47244094488188976,
                    "duration": 0.1759529999999927
                },
                {
                    "name": "F5",
                    "midi": 77,
                    "time": 341.5247729999982,
                    "velocity": 0.5748031496062992,
                    "duration": 0.1759529999999927
                },
                {
                    "name": "F4",
                    "midi": 65,
                    "time": 341.5247729999982,
                    "velocity": 0.4881889763779528,
                    "duration": 0.1759529999999927
                },
                {
                    "name": "E5",
                    "midi": 76,
                    "time": 341.7007259999982,
                    "velocity": 0.5905511811023622,
                    "duration": 0.1759529999999927
                },
                {
                    "name": "E4",
                    "midi": 64,
                    "time": 341.7007259999982,
                    "velocity": 0.49606299212598426,
                    "duration": 0.1759529999999927
                },
                {
                    "name": "D5",
                    "midi": 74,
                    "time": 341.8766789999982,
                    "velocity": 0.6062992125984252,
                    "duration": 0.1759529999999927
                },
                {
                    "name": "D4",
                    "midi": 62,
                    "time": 341.8766789999982,
                    "velocity": 0.5118110236220472,
                    "duration": 0.1759529999999927
                },
                {
                    "name": "C#5",
                    "midi": 73,
                    "time": 342.0526319999982,
                    "velocity": 0.6220472440944882,
                    "duration": 0.1759529999999927
                },
                {
                    "name": "C#4",
                    "midi": 61,
                    "time": 342.0526319999982,
                    "velocity": 0.5275590551181102,
                    "duration": 0.1759529999999927
                },
                {
                    "name": "A#4",
                    "midi": 70,
                    "time": 342.2285849999982,
                    "velocity": 0.6377952755905512,
                    "duration": 0.1759529999999927
                },
                {
                    "name": "A#3",
                    "midi": 58,
                    "time": 342.2285849999982,
                    "velocity": 0.5354330708661418,
                    "duration": 0.1759529999999927
                },
                {
                    "name": "A4",
                    "midi": 69,
                    "time": 342.4045379999982,
                    "velocity": 0.5039370078740157,
                    "duration": 0.1759529999999927
                },
                {
                    "name": "A3",
                    "midi": 57,
                    "time": 342.4045379999982,
                    "velocity": 0.4251968503937008,
                    "duration": 0.1759529999999927
                },
                {
                    "name": "A#4",
                    "midi": 70,
                    "time": 342.5804909999982,
                    "velocity": 0.5039370078740157,
                    "duration": 0.1759529999999927
                },
                {
                    "name": "A#3",
                    "midi": 58,
                    "time": 342.5804909999982,
                    "velocity": 0.4251968503937008,
                    "duration": 0.1759529999999927
                },
                {
                    "name": "C#5",
                    "midi": 73,
                    "time": 342.75644399999817,
                    "velocity": 0.5118110236220472,
                    "duration": 0.1759529999999927
                },
                {
                    "name": "C#4",
                    "midi": 61,
                    "time": 342.75644399999817,
                    "velocity": 0.4330708661417323,
                    "duration": 0.1759529999999927
                },
                {
                    "name": "D5",
                    "midi": 74,
                    "time": 342.93239699999816,
                    "velocity": 0.5196850393700787,
                    "duration": 0.1759529999999927
                },
                {
                    "name": "D4",
                    "midi": 62,
                    "time": 342.93239699999816,
                    "velocity": 0.4409448818897638,
                    "duration": 0.1759529999999927
                },
                {
                    "name": "E5",
                    "midi": 76,
                    "time": 343.10834999999815,
                    "velocity": 0.5275590551181102,
                    "duration": 0.1759529999999927
                },
                {
                    "name": "E4",
                    "midi": 64,
                    "time": 343.10834999999815,
                    "velocity": 0.4409448818897638,
                    "duration": 0.1759529999999927
                },
                {
                    "name": "F5",
                    "midi": 77,
                    "time": 343.28430299999815,
                    "velocity": 0.5354330708661418,
                    "duration": 0.1759529999999927
                },
                {
                    "name": "F4",
                    "midi": 65,
                    "time": 343.28430299999815,
                    "velocity": 0.44881889763779526,
                    "duration": 0.1759529999999927
                },
                {
                    "name": "G#5",
                    "midi": 80,
                    "time": 343.46025599999814,
                    "velocity": 0.5433070866141733,
                    "duration": 0.1759529999999927
                },
                {
                    "name": "G#4",
                    "midi": 68,
                    "time": 343.46025599999814,
                    "velocity": 0.4566929133858268,
                    "duration": 0.1759529999999927
                },
                {
                    "name": "A5",
                    "midi": 81,
                    "time": 343.63620899999813,
                    "velocity": 0.5511811023622047,
                    "duration": 0.1759529999999927
                },
                {
                    "name": "A4",
                    "midi": 69,
                    "time": 343.63620899999813,
                    "velocity": 0.4645669291338583,
                    "duration": 0.1759529999999927
                },
                {
                    "name": "A#5",
                    "midi": 82,
                    "time": 343.8121619999981,
                    "velocity": 0.5748031496062992,
                    "duration": 0.1759529999999927
                },
                {
                    "name": "A#4",
                    "midi": 70,
                    "time": 343.8121619999981,
                    "velocity": 0.48031496062992124,
                    "duration": 0.1759529999999927
                },
                {
                    "name": "C#6",
                    "midi": 85,
                    "time": 343.9881149999981,
                    "velocity": 0.5826771653543307,
                    "duration": 0.1759529999999927
                },
                {
                    "name": "C#5",
                    "midi": 73,
                    "time": 343.9881149999981,
                    "velocity": 0.49606299212598426,
                    "duration": 0.1759529999999927
                },
                {
                    "name": "D6",
                    "midi": 86,
                    "time": 344.1640679999981,
                    "velocity": 0.5984251968503937,
                    "duration": 0.1759529999999927
                },
                {
                    "name": "D5",
                    "midi": 74,
                    "time": 344.1640679999981,
                    "velocity": 0.5118110236220472,
                    "duration": 0.1759529999999927
                },
                {
                    "name": "E6",
                    "midi": 88,
                    "time": 344.3400209999981,
                    "velocity": 0.6220472440944882,
                    "duration": 0.1759529999999927
                },
                {
                    "name": "E5",
                    "midi": 76,
                    "time": 344.3400209999981,
                    "velocity": 0.5196850393700787,
                    "duration": 0.1759529999999927
                },
                {
                    "name": "F6",
                    "midi": 89,
                    "time": 344.5159739999981,
                    "velocity": 0.6220472440944882,
                    "duration": 0.1759529999999927
                },
                {
                    "name": "F5",
                    "midi": 77,
                    "time": 344.5159739999981,
                    "velocity": 0.5196850393700787,
                    "duration": 0.1759529999999927
                },
                {
                    "name": "G#6",
                    "midi": 92,
                    "time": 344.6919269999981,
                    "velocity": 0.6377952755905512,
                    "duration": 0.1759529999999927
                },
                {
                    "name": "G#5",
                    "midi": 80,
                    "time": 344.6919269999981,
                    "velocity": 0.5354330708661418,
                    "duration": 0.1759529999999927
                },
                {
                    "name": "A6",
                    "midi": 93,
                    "time": 344.8678799999981,
                    "velocity": 0.6614173228346457,
                    "duration": 0.1759529999999927
                },
                {
                    "name": "A5",
                    "midi": 81,
                    "time": 344.8678799999981,
                    "velocity": 0.5590551181102362,
                    "duration": 0.1759529999999927
                },
                {
                    "name": "A#6",
                    "midi": 94,
                    "time": 345.0438329999981,
                    "velocity": 0.6771653543307087,
                    "duration": 0.1759529999999927
                },
                {
                    "name": "A#5",
                    "midi": 82,
                    "time": 345.0438329999981,
                    "velocity": 0.5669291338582677,
                    "duration": 0.1759529999999927
                },
                {
                    "name": "C#7",
                    "midi": 97,
                    "time": 345.21978599999807,
                    "velocity": 0.7637795275590551,
                    "duration": 0.1759529999999927
                },
                {
                    "name": "C#6",
                    "midi": 85,
                    "time": 345.21978599999807,
                    "velocity": 0.7637795275590551,
                    "duration": 0.1759529999999927
                },
                {
                    "name": "D7",
                    "midi": 98,
                    "time": 345.92359799999804,
                    "velocity": 0.7716535433070866,
                    "duration": 0.1759529999999927
                },
                {
                    "name": "D6",
                    "midi": 86,
                    "time": 345.92359799999804,
                    "velocity": 0.6535433070866141,
                    "duration": 0.1759529999999927
                },
                {
                    "name": "F6",
                    "midi": 89,
                    "time": 345.92359799999804,
                    "velocity": 0.6535433070866141,
                    "duration": 0.1759529999999927
                },
                {
                    "name": "A#6",
                    "midi": 94,
                    "time": 345.92359799999804,
                    "velocity": 0.6535433070866141,
                    "duration": 0.1759529999999927
                },
                {
                    "name": "E7",
                    "midi": 100,
                    "time": 346.627409999998,
                    "velocity": 0.8031496062992126,
                    "duration": 0.1759529999999927
                },
                {
                    "name": "C#7",
                    "midi": 97,
                    "time": 346.627409999998,
                    "velocity": 0.6771653543307087,
                    "duration": 0.1759529999999927
                },
                {
                    "name": "A6",
                    "midi": 93,
                    "time": 346.627409999998,
                    "velocity": 0.6771653543307087,
                    "duration": 0.1759529999999927
                },
                {
                    "name": "E6",
                    "midi": 88,
                    "time": 346.627409999998,
                    "velocity": 0.6771653543307087,
                    "duration": 0.1759529999999927
                },
                {
                    "name": "F7",
                    "midi": 101,
                    "time": 347.331221999998,
                    "velocity": 0.9133858267716536,
                    "duration": 0.1759529999999927
                },
                {
                    "name": "A#6",
                    "midi": 94,
                    "time": 347.331221999998,
                    "velocity": 0.7637795275590551,
                    "duration": 0.1759529999999927
                },
                {
                    "name": "F6",
                    "midi": 89,
                    "time": 347.331221999998,
                    "velocity": 0.7637795275590551,
                    "duration": 0.1759529999999927
                },
                {
                    "name": "A3",
                    "midi": 57,
                    "time": 348.03503399999795,
                    "velocity": 0.29133858267716534,
                    "duration": 0.08797650000002477
                },
                {
                    "name": "C#4",
                    "midi": 61,
                    "time": 348.04016596249795,
                    "velocity": 0.3464566929133858,
                    "duration": 0.08797650000002477
                },
                {
                    "name": "E3",
                    "midi": 52,
                    "time": 348.04016596249795,
                    "velocity": 0.29133858267716534,
                    "duration": 0.08797650000002477
                },
                {
                    "name": "E4",
                    "midi": 64,
                    "time": 348.123010499998,
                    "velocity": 0.3543307086614173,
                    "duration": 0.08797650000002477
                },
                {
                    "name": "C#4",
                    "midi": 61,
                    "time": 348.210986999998,
                    "velocity": 0.3700787401574803,
                    "duration": 0.08797650000002477
                },
                {
                    "name": "E3",
                    "midi": 52,
                    "time": 348.210986999998,
                    "velocity": 0.30708661417322836,
                    "duration": 0.08797650000002477
                },
                {
                    "name": "A3",
                    "midi": 57,
                    "time": 348.210986999998,
                    "velocity": 0.30708661417322836,
                    "duration": 0.08797650000002477
                },
                {
                    "name": "E4",
                    "midi": 64,
                    "time": 348.298963499998,
                    "velocity": 0.3779527559055118,
                    "duration": 0.08797650000002477
                },
                {
                    "name": "C#4",
                    "midi": 61,
                    "time": 348.38693999999805,
                    "velocity": 0.3858267716535433,
                    "duration": 0.08797650000002477
                },
                {
                    "name": "E3",
                    "midi": 52,
                    "time": 348.38693999999805,
                    "velocity": 0.3228346456692913,
                    "duration": 0.08797650000002477
                },
                {
                    "name": "A3",
                    "midi": 57,
                    "time": 348.38693999999805,
                    "velocity": 0.3228346456692913,
                    "duration": 0.08797650000002477
                },
                {
                    "name": "E4",
                    "midi": 64,
                    "time": 348.4749164999981,
                    "velocity": 0.3937007874015748,
                    "duration": 0.08797650000002477
                },
                {
                    "name": "C#4",
                    "midi": 61,
                    "time": 348.5628929999981,
                    "velocity": 0.4094488188976378,
                    "duration": 0.08797650000002477
                },
                {
                    "name": "E3",
                    "midi": 52,
                    "time": 348.5628929999981,
                    "velocity": 0.3464566929133858,
                    "duration": 0.08797650000002477
                },
                {
                    "name": "A3",
                    "midi": 57,
                    "time": 348.5628929999981,
                    "velocity": 0.3464566929133858,
                    "duration": 0.08797650000002477
                },
                {
                    "name": "E4",
                    "midi": 64,
                    "time": 348.6508694999981,
                    "velocity": 0.41732283464566927,
                    "duration": 0.08797650000002477
                },
                {
                    "name": "A3",
                    "midi": 57,
                    "time": 348.73884599999815,
                    "velocity": 0.3543307086614173,
                    "duration": 0.08797650000002477
                },
                {
                    "name": "C#4",
                    "midi": 61,
                    "time": 348.74397796249815,
                    "velocity": 0.4251968503937008,
                    "duration": 0.08797650000002477
                },
                {
                    "name": "E3",
                    "midi": 52,
                    "time": 348.74397796249815,
                    "velocity": 0.3543307086614173,
                    "duration": 0.08797650000002477
                },
                {
                    "name": "E4",
                    "midi": 64,
                    "time": 348.8268224999982,
                    "velocity": 0.4409448818897638,
                    "duration": 0.08797650000002477
                },
                {
                    "name": "C#4",
                    "midi": 61,
                    "time": 348.9147989999982,
                    "velocity": 0.4330708661417323,
                    "duration": 0.08797650000002477
                },
                {
                    "name": "E3",
                    "midi": 52,
                    "time": 348.9147989999982,
                    "velocity": 0.36220472440944884,
                    "duration": 0.08797650000002477
                },
                {
                    "name": "A3",
                    "midi": 57,
                    "time": 348.9147989999982,
                    "velocity": 0.36220472440944884,
                    "duration": 0.08797650000002477
                },
                {
                    "name": "E4",
                    "midi": 64,
                    "time": 349.0027754999982,
                    "velocity": 0.41732283464566927,
                    "duration": 0.08797650000002477
                },
                {
                    "name": "C#4",
                    "midi": 61,
                    "time": 349.09075199999825,
                    "velocity": 0.4094488188976378,
                    "duration": 0.08797650000002477
                },
                {
                    "name": "E3",
                    "midi": 52,
                    "time": 349.09075199999825,
                    "velocity": 0.3464566929133858,
                    "duration": 0.08797650000002477
                },
                {
                    "name": "A3",
                    "midi": 57,
                    "time": 349.09075199999825,
                    "velocity": 0.3464566929133858,
                    "duration": 0.08797650000002477
                },
                {
                    "name": "E4",
                    "midi": 64,
                    "time": 349.1787284999983,
                    "velocity": 0.3937007874015748,
                    "duration": 0.08797650000002477
                },
                {
                    "name": "C#4",
                    "midi": 61,
                    "time": 349.2667049999983,
                    "velocity": 0.3858267716535433,
                    "duration": 0.08797650000002477
                },
                {
                    "name": "E3",
                    "midi": 52,
                    "time": 349.2667049999983,
                    "velocity": 0.3228346456692913,
                    "duration": 0.08797650000002477
                },
                {
                    "name": "A3",
                    "midi": 57,
                    "time": 349.2667049999983,
                    "velocity": 0.3228346456692913,
                    "duration": 0.08797650000002477
                },
                {
                    "name": "E4",
                    "midi": 64,
                    "time": 349.3546814999983,
                    "velocity": 0.3700787401574803,
                    "duration": 0.08797650000002477
                },
                {
                    "name": "E3",
                    "midi": 52,
                    "time": 349.47564918749833,
                    "velocity": 0.6692913385826772,
                    "duration": 0.14296181250000473
                },
                {
                    "name": "A3",
                    "midi": 57,
                    "time": 349.47564918749833,
                    "velocity": 0.6692913385826772,
                    "duration": 0.14296181250000473
                },
                {
                    "name": "C#4",
                    "midi": 61,
                    "time": 349.47564918749833,
                    "velocity": 0.6692913385826772,
                    "duration": 0.14296181250000473
                },
                {
                    "name": "A5",
                    "midi": 81,
                    "time": 350.05849349999835,
                    "velocity": 0.7322834645669292,
                    "duration": 0.07917885000000524
                },
                {
                    "name": "A4",
                    "midi": 69,
                    "time": 350.05849349999835,
                    "velocity": 0.6220472440944882,
                    "duration": 0.07917885000000524
                },
                {
                    "name": "C#5",
                    "midi": 73,
                    "time": 350.05849349999835,
                    "velocity": 0.6220472440944882,
                    "duration": 0.07917885000000524
                },
                {
                    "name": "E5",
                    "midi": 76,
                    "time": 350.05849349999835,
                    "velocity": 0.6220472440944882,
                    "duration": 0.07917885000000524
                },
                {
                    "name": "A5",
                    "midi": 81,
                    "time": 350.1464699999984,
                    "velocity": 0.8740157480314961,
                    "duration": 0.1759529999999927
                },
                {
                    "name": "E5",
                    "midi": 76,
                    "time": 350.1464699999984,
                    "velocity": 0.7322834645669292,
                    "duration": 0.1759529999999927
                },
                {
                    "name": "C#5",
                    "midi": 73,
                    "time": 350.1464699999984,
                    "velocity": 0.7322834645669292,
                    "duration": 0.1759529999999927
                },
                {
                    "name": "A4",
                    "midi": 69,
                    "time": 350.1464699999984,
                    "velocity": 0.7322834645669292,
                    "duration": 0.1759529999999927
                },
                {
                    "name": "A6",
                    "midi": 93,
                    "time": 350.7623054999984,
                    "velocity": 0.7322834645669292,
                    "duration": 0.07917885000000524
                },
                {
                    "name": "A5",
                    "midi": 81,
                    "time": 350.7623054999984,
                    "velocity": 0.6220472440944882,
                    "duration": 0.07917885000000524
                },
                {
                    "name": "C#6",
                    "midi": 85,
                    "time": 350.7623054999984,
                    "velocity": 0.6220472440944882,
                    "duration": 0.07917885000000524
                },
                {
                    "name": "E6",
                    "midi": 88,
                    "time": 350.7623054999984,
                    "velocity": 0.6220472440944882,
                    "duration": 0.07917885000000524
                },
                {
                    "name": "A6",
                    "midi": 93,
                    "time": 350.8502819999984,
                    "velocity": 0.8740157480314961,
                    "duration": 0.1759529999999927
                },
                {
                    "name": "E6",
                    "midi": 88,
                    "time": 350.8502819999984,
                    "velocity": 0.7322834645669292,
                    "duration": 0.1759529999999927
                },
                {
                    "name": "C#6",
                    "midi": 85,
                    "time": 350.8502819999984,
                    "velocity": 0.7322834645669292,
                    "duration": 0.1759529999999927
                },
                {
                    "name": "A5",
                    "midi": 81,
                    "time": 350.8502819999984,
                    "velocity": 0.7322834645669292,
                    "duration": 0.1759529999999927
                }
            ],
            "controlChanges": {
                "7": [
                    {
                        "number": 7,
                        "time": 0,
                        "value": 0.7874015748031497
                    }
                ],
                "10": [
                    {
                        "number": 10,
                        "time": 0,
                        "value": 0.5039370078740157
                    }
                ],
                "91": [
                    {
                        "number": 91,
                        "time": 2.945746475,
                        "value": 1
                    }
                ]
            },
            "id": 1,
            "name": "Piano right",
            "instrumentNumber": 0,
            "instrument": "acoustic grand piano",
            "instrumentFamily": "piano",
            "channelNumber": 0,
            "isPercussion": false
        },
        {
            "startTime": 0.2639295,
            "duration": 351.02623499999737,
            "length": 2676,
            "notes": [
                {
                    "name": "E1",
                    "midi": 28,
                    "time": 0.2639295,
                    "velocity": 0.2125984251968504,
                    "duration": 0.08797650000000001
                },
                {
                    "name": "D#2",
                    "midi": 39,
                    "time": 0.351906,
                    "velocity": 0.2125984251968504,
                    "duration": 0.08797650000000001
                },
                {
                    "name": "E2",
                    "midi": 40,
                    "time": 0.4398825,
                    "velocity": 0.2125984251968504,
                    "duration": 0.08797649999999996
                },
                {
                    "name": "E3",
                    "midi": 52,
                    "time": 0.527859,
                    "velocity": 0.2755905511811024,
                    "duration": 0.04398824999999995
                },
                {
                    "name": "E1",
                    "midi": 28,
                    "time": 0.6158354999999999,
                    "velocity": 0.2204724409448819,
                    "duration": 0.08797650000000001
                },
                {
                    "name": "D#2",
                    "midi": 39,
                    "time": 0.7038119999999999,
                    "velocity": 0.2204724409448819,
                    "duration": 0.08797650000000001
                },
                {
                    "name": "E2",
                    "midi": 40,
                    "time": 0.7917884999999999,
                    "velocity": 0.2204724409448819,
                    "duration": 0.08797650000000001
                },
                {
                    "name": "E3",
                    "midi": 52,
                    "time": 0.8797649999999999,
                    "velocity": 0.2755905511811024,
                    "duration": 0.04398824999999995
                },
                {
                    "name": "E1",
                    "midi": 28,
                    "time": 0.9677414999999998,
                    "velocity": 0.2125984251968504,
                    "duration": 0.0879764999999999
                },
                {
                    "name": "D#2",
                    "midi": 39,
                    "time": 1.0557179999999997,
                    "velocity": 0.2125984251968504,
                    "duration": 0.0879764999999999
                },
                {
                    "name": "E2",
                    "midi": 40,
                    "time": 1.1436944999999996,
                    "velocity": 0.2125984251968504,
                    "duration": 0.0879764999999999
                },
                {
                    "name": "E3",
                    "midi": 52,
                    "time": 1.2316709999999995,
                    "velocity": 0.2755905511811024,
                    "duration": 0.04398824999999995
                },
                {
                    "name": "E1",
                    "midi": 28,
                    "time": 1.3196474999999994,
                    "velocity": 0.2125984251968504,
                    "duration": 0.0879764999999999
                },
                {
                    "name": "D#2",
                    "midi": 39,
                    "time": 1.4076239999999993,
                    "velocity": 0.2125984251968504,
                    "duration": 0.0879764999999999
                },
                {
                    "name": "E2",
                    "midi": 40,
                    "time": 1.4956004999999992,
                    "velocity": 0.2125984251968504,
                    "duration": 0.0879764999999999
                },
                {
                    "name": "E3",
                    "midi": 52,
                    "time": 1.5835769999999991,
                    "velocity": 0.2755905511811024,
                    "duration": 0.04398824999999995
                },
                {
                    "name": "E1",
                    "midi": 28,
                    "time": 1.671553499999999,
                    "velocity": 0.2204724409448819,
                    "duration": 0.0879764999999999
                },
                {
                    "name": "D#2",
                    "midi": 39,
                    "time": 1.759529999999999,
                    "velocity": 0.2204724409448819,
                    "duration": 0.0879764999999999
                },
                {
                    "name": "E2",
                    "midi": 40,
                    "time": 1.8475064999999988,
                    "velocity": 0.2204724409448819,
                    "duration": 0.0879764999999999
                },
                {
                    "name": "E3",
                    "midi": 52,
                    "time": 1.9354829999999987,
                    "velocity": 0.2755905511811024,
                    "duration": 0.04398824999999995
                },
                {
                    "name": "E1",
                    "midi": 28,
                    "time": 2.0234594999999986,
                    "velocity": 0.2125984251968504,
                    "duration": 0.0879764999999999
                },
                {
                    "name": "D#2",
                    "midi": 39,
                    "time": 2.1114359999999985,
                    "velocity": 0.2125984251968504,
                    "duration": 0.0879764999999999
                },
                {
                    "name": "E2",
                    "midi": 40,
                    "time": 2.1994124999999984,
                    "velocity": 0.2125984251968504,
                    "duration": 0.0879764999999999
                },
                {
                    "name": "E3",
                    "midi": 52,
                    "time": 2.2873889999999983,
                    "velocity": 0.2755905511811024,
                    "duration": 0.04398824999999995
                },
                {
                    "name": "E1",
                    "midi": 28,
                    "time": 2.3753654999999982,
                    "velocity": 0.2204724409448819,
                    "duration": 0.0879764999999999
                },
                {
                    "name": "D#2",
                    "midi": 39,
                    "time": 2.463341999999998,
                    "velocity": 0.2204724409448819,
                    "duration": 0.0879764999999999
                },
                {
                    "name": "E2",
                    "midi": 40,
                    "time": 2.551318499999998,
                    "velocity": 0.2204724409448819,
                    "duration": 0.0879764999999999
                },
                {
                    "name": "E3",
                    "midi": 52,
                    "time": 2.639294999999998,
                    "velocity": 0.2755905511811024,
                    "duration": 0.04398824999999995
                },
                {
                    "name": "E1",
                    "midi": 28,
                    "time": 2.727271499999998,
                    "velocity": 0.2125984251968504,
                    "duration": 0.0879764999999999
                },
                {
                    "name": "D#2",
                    "midi": 39,
                    "time": 2.8152479999999978,
                    "velocity": 0.2125984251968504,
                    "duration": 0.0879764999999999
                },
                {
                    "name": "E2",
                    "midi": 40,
                    "time": 2.9032244999999977,
                    "velocity": 0.2125984251968504,
                    "duration": 0.0879764999999999
                },
                {
                    "name": "E3",
                    "midi": 52,
                    "time": 2.9912009999999976,
                    "velocity": 0.2755905511811024,
                    "duration": 0.04398824999999995
                },
                {
                    "name": "F1",
                    "midi": 29,
                    "time": 3.0791774999999975,
                    "velocity": 0.2204724409448819,
                    "duration": 0.0879764999999999
                },
                {
                    "name": "E2",
                    "midi": 40,
                    "time": 3.1671539999999974,
                    "velocity": 0.2204724409448819,
                    "duration": 0.0879764999999999
                },
                {
                    "name": "F2",
                    "midi": 41,
                    "time": 3.2551304999999973,
                    "velocity": 0.2204724409448819,
                    "duration": 0.0879764999999999
                },
                {
                    "name": "F3",
                    "midi": 53,
                    "time": 3.343106999999997,
                    "velocity": 0.2755905511811024,
                    "duration": 0.04398824999999995
                },
                {
                    "name": "F1",
                    "midi": 29,
                    "time": 3.431083499999997,
                    "velocity": 0.2125984251968504,
                    "duration": 0.0879764999999999
                },
                {
                    "name": "E2",
                    "midi": 40,
                    "time": 3.519059999999997,
                    "velocity": 0.2125984251968504,
                    "duration": 0.0879764999999999
                },
                {
                    "name": "F2",
                    "midi": 41,
                    "time": 3.607036499999997,
                    "velocity": 0.2125984251968504,
                    "duration": 0.0879764999999999
                },
                {
                    "name": "F3",
                    "midi": 53,
                    "time": 3.6950129999999968,
                    "velocity": 0.2755905511811024,
                    "duration": 0.04398824999999995
                },
                {
                    "name": "F1",
                    "midi": 29,
                    "time": 3.7829894999999967,
                    "velocity": 0.2204724409448819,
                    "duration": 0.0879764999999999
                },
                {
                    "name": "E2",
                    "midi": 40,
                    "time": 3.8709659999999966,
                    "velocity": 0.2204724409448819,
                    "duration": 0.0879764999999999
                },
                {
                    "name": "F2",
                    "midi": 41,
                    "time": 3.9589424999999965,
                    "velocity": 0.2204724409448819,
                    "duration": 0.0879764999999999
                },
                {
                    "name": "F3",
                    "midi": 53,
                    "time": 4.046918999999996,
                    "velocity": 0.2755905511811024,
                    "duration": 0.04398824999999995
                },
                {
                    "name": "F1",
                    "midi": 29,
                    "time": 4.134895499999996,
                    "velocity": 0.2125984251968504,
                    "duration": 0.0879764999999999
                },
                {
                    "name": "E2",
                    "midi": 40,
                    "time": 4.222871999999996,
                    "velocity": 0.2204724409448819,
                    "duration": 0.0879764999999999
                },
                {
                    "name": "F2",
                    "midi": 41,
                    "time": 4.310848499999996,
                    "velocity": 0.2204724409448819,
                    "duration": 0.0879764999999999
                },
                {
                    "name": "F3",
                    "midi": 53,
                    "time": 4.398824999999996,
                    "velocity": 0.2755905511811024,
                    "duration": 0.04398824999999995
                },
                {
                    "name": "F1",
                    "midi": 29,
                    "time": 4.486801499999996,
                    "velocity": 0.2125984251968504,
                    "duration": 0.0879764999999999
                },
                {
                    "name": "E2",
                    "midi": 40,
                    "time": 4.574777999999996,
                    "velocity": 0.2125984251968504,
                    "duration": 0.0879764999999999
                },
                {
                    "name": "F2",
                    "midi": 41,
                    "time": 4.662754499999996,
                    "velocity": 0.2125984251968504,
                    "duration": 0.0879764999999999
                },
                {
                    "name": "F3",
                    "midi": 53,
                    "time": 4.750730999999996,
                    "velocity": 0.28346456692913385,
                    "duration": 0.04398824999999995
                },
                {
                    "name": "F1",
                    "midi": 29,
                    "time": 4.8387074999999955,
                    "velocity": 0.2283464566929134,
                    "duration": 0.0879764999999999
                },
                {
                    "name": "E2",
                    "midi": 40,
                    "time": 4.926683999999995,
                    "velocity": 0.2283464566929134,
                    "duration": 0.0879764999999999
                },
                {
                    "name": "F2",
                    "midi": 41,
                    "time": 5.014660499999995,
                    "velocity": 0.2283464566929134,
                    "duration": 0.0879764999999999
                },
                {
                    "name": "F3",
                    "midi": 53,
                    "time": 5.102636999999995,
                    "velocity": 0.2992125984251969,
                    "duration": 0.04398824999999995
                },
                {
                    "name": "F1",
                    "midi": 29,
                    "time": 5.190613499999995,
                    "velocity": 0.2283464566929134,
                    "duration": 0.0879764999999999
                },
                {
                    "name": "E2",
                    "midi": 40,
                    "time": 5.278589999999995,
                    "velocity": 0.23622047244094488,
                    "duration": 0.0879764999999999
                },
                {
                    "name": "F2",
                    "midi": 41,
                    "time": 5.366566499999995,
                    "velocity": 0.2440944881889764,
                    "duration": 0.0879764999999999
                },
                {
                    "name": "F3",
                    "midi": 53,
                    "time": 5.454542999999995,
                    "velocity": 0.30708661417322836,
                    "duration": 0.04398824999999995
                },
                {
                    "name": "F1",
                    "midi": 29,
                    "time": 5.542519499999995,
                    "velocity": 0.23622047244094488,
                    "duration": 0.0879764999999999
                },
                {
                    "name": "E2",
                    "midi": 40,
                    "time": 5.630495999999995,
                    "velocity": 0.25196850393700787,
                    "duration": 0.0879764999999999
                },
                {
                    "name": "F2",
                    "midi": 41,
                    "time": 5.7184724999999945,
                    "velocity": 0.25196850393700787,
                    "duration": 0.0879764999999999
                },
                {
                    "name": "F3",
                    "midi": 53,
                    "time": 5.806448999999994,
                    "velocity": 0.3228346456692913,
                    "duration": 0.04398824999999995
                },
                {
                    "name": "G#1",
                    "midi": 32,
                    "time": 5.894425499999994,
                    "velocity": 0.25196850393700787,
                    "duration": 0.0879764999999999
                },
                {
                    "name": "G2",
                    "midi": 43,
                    "time": 5.982401999999994,
                    "velocity": 0.25196850393700787,
                    "duration": 0.0879764999999999
                },
                {
                    "name": "G#2",
                    "midi": 44,
                    "time": 6.070378499999994,
                    "velocity": 0.25196850393700787,
                    "duration": 0.0879764999999999
                },
                {
                    "name": "G#3",
                    "midi": 56,
                    "time": 6.158354999999994,
                    "velocity": 0.33858267716535434,
                    "duration": 0.04398824999999995
                },
                {
                    "name": "G#1",
                    "midi": 32,
                    "time": 6.246331499999994,
                    "velocity": 0.2677165354330709,
                    "duration": 0.0879764999999999
                },
                {
                    "name": "G2",
                    "midi": 43,
                    "time": 6.334307999999994,
                    "velocity": 0.2677165354330709,
                    "duration": 0.0879764999999999
                },
                {
                    "name": "G#2",
                    "midi": 44,
                    "time": 6.422284499999994,
                    "velocity": 0.2677165354330709,
                    "duration": 0.0879764999999999
                },
                {
                    "name": "G#3",
                    "midi": 56,
                    "time": 6.510260999999994,
                    "velocity": 0.3464566929133858,
                    "duration": 0.04398824999999995
                },
                {
                    "name": "G#1",
                    "midi": 32,
                    "time": 6.5982374999999935,
                    "velocity": 0.2677165354330709,
                    "duration": 0.0879764999999999
                },
                {
                    "name": "G2",
                    "midi": 43,
                    "time": 6.686213999999993,
                    "velocity": 0.2755905511811024,
                    "duration": 0.0879764999999999
                },
                {
                    "name": "G#2",
                    "midi": 44,
                    "time": 6.774190499999993,
                    "velocity": 0.28346456692913385,
                    "duration": 0.0879764999999999
                },
                {
                    "name": "G#3",
                    "midi": 56,
                    "time": 6.862166999999993,
                    "velocity": 0.36220472440944884,
                    "duration": 0.04398824999999995
                },
                {
                    "name": "G#1",
                    "midi": 32,
                    "time": 6.950143499999993,
                    "velocity": 0.2755905511811024,
                    "duration": 0.0879764999999999
                },
                {
                    "name": "G2",
                    "midi": 43,
                    "time": 7.038119999999993,
                    "velocity": 0.29133858267716534,
                    "duration": 0.0879764999999999
                },
                {
                    "name": "G#2",
                    "midi": 44,
                    "time": 7.126096499999993,
                    "velocity": 0.29133858267716534,
                    "duration": 0.0879764999999999
                },
                {
                    "name": "G#3",
                    "midi": 56,
                    "time": 7.214072999999993,
                    "velocity": 0.3779527559055118,
                    "duration": 0.04398824999999995
                },
                {
                    "name": "A1",
                    "midi": 33,
                    "time": 7.302049499999993,
                    "velocity": 0.29133858267716534,
                    "duration": 0.0879764999999999
                },
                {
                    "name": "G#2",
                    "midi": 44,
                    "time": 7.390025999999993,
                    "velocity": 0.29133858267716534,
                    "duration": 0.0879764999999999
                },
                {
                    "name": "A2",
                    "midi": 45,
                    "time": 7.478002499999993,
                    "velocity": 0.29133858267716534,
                    "duration": 0.0879764999999999
                },
                {
                    "name": "A3",
                    "midi": 57,
                    "time": 7.5659789999999925,
                    "velocity": 0.3858267716535433,
                    "duration": 0.04398824999999995
                },
                {
                    "name": "A1",
                    "midi": 33,
                    "time": 7.653955499999992,
                    "velocity": 0.30708661417322836,
                    "duration": 0.0879764999999999
                },
                {
                    "name": "G#2",
                    "midi": 44,
                    "time": 7.741931999999992,
                    "velocity": 0.30708661417322836,
                    "duration": 0.0879764999999999
                },
                {
                    "name": "A2",
                    "midi": 45,
                    "time": 7.829908499999992,
                    "velocity": 0.31496062992125984,
                    "duration": 0.0879764999999999
                },
                {
                    "name": "A3",
                    "midi": 57,
                    "time": 7.917884999999992,
                    "velocity": 0.4015748031496063,
                    "duration": 0.04398824999999995
                },
                {
                    "name": "A1",
                    "midi": 33,
                    "time": 8.005861499999993,
                    "velocity": 0.30708661417322836,
                    "duration": 0.0879764999999999
                },
                {
                    "name": "G#2",
                    "midi": 44,
                    "time": 8.093837999999993,
                    "velocity": 0.3228346456692913,
                    "duration": 0.0879764999999999
                },
                {
                    "name": "A2",
                    "midi": 45,
                    "time": 8.181814499999993,
                    "velocity": 0.3228346456692913,
                    "duration": 0.0879764999999999
                },
                {
                    "name": "A3",
                    "midi": 57,
                    "time": 8.269790999999993,
                    "velocity": 0.41732283464566927,
                    "duration": 0.04398824999999995
                },
                {
                    "name": "A1",
                    "midi": 33,
                    "time": 8.357767499999992,
                    "velocity": 0.31496062992125984,
                    "duration": 0.0879764999999999
                },
                {
                    "name": "G#2",
                    "midi": 44,
                    "time": 8.445743999999992,
                    "velocity": 0.33070866141732286,
                    "duration": 0.0879764999999999
                },
                {
                    "name": "A2",
                    "midi": 45,
                    "time": 8.533720499999992,
                    "velocity": 0.33070866141732286,
                    "duration": 0.0879764999999999
                },
                {
                    "name": "A3",
                    "midi": 57,
                    "time": 8.621696999999992,
                    "velocity": 0.4330708661417323,
                    "duration": 0.04398824999999995
                },
                {
                    "name": "A#1",
                    "midi": 34,
                    "time": 8.709673499999992,
                    "velocity": 0.33070866141732286,
                    "duration": 0.0879764999999999
                },
                {
                    "name": "A2",
                    "midi": 45,
                    "time": 8.797649999999992,
                    "velocity": 0.33070866141732286,
                    "duration": 0.0879764999999999
                },
                {
                    "name": "A#2",
                    "midi": 46,
                    "time": 8.885626499999992,
                    "velocity": 0.33858267716535434,
                    "duration": 0.0879764999999999
                },
                {
                    "name": "A#3",
                    "midi": 58,
                    "time": 8.973602999999992,
                    "velocity": 0.44881889763779526,
                    "duration": 0.04398824999999995
                },
                {
                    "name": "A#1",
                    "midi": 34,
                    "time": 9.061579499999992,
                    "velocity": 0.3543307086614173,
                    "duration": 0.0879764999999999
                },
                {
                    "name": "A2",
                    "midi": 45,
                    "time": 9.149555999999992,
                    "velocity": 0.3543307086614173,
                    "duration": 0.0879764999999999
                },
                {
                    "name": "A#2",
                    "midi": 46,
                    "time": 9.237532499999991,
                    "velocity": 0.3543307086614173,
                    "duration": 0.0879764999999999
                },
                {
                    "name": "A#3",
                    "midi": 58,
                    "time": 9.325508999999991,
                    "velocity": 0.4566929133858268,
                    "duration": 0.04398824999999995
                },
                {
                    "name": "C#2",
                    "midi": 37,
                    "time": 9.413485499999991,
                    "velocity": 0.3543307086614173,
                    "duration": 0.0879764999999999
                },
                {
                    "name": "C3",
                    "midi": 48,
                    "time": 9.501461999999991,
                    "velocity": 0.36220472440944884,
                    "duration": 0.0879764999999999
                },
                {
                    "name": "C#3",
                    "midi": 49,
                    "time": 9.589438499999991,
                    "velocity": 0.3700787401574803,
                    "duration": 0.0879764999999999
                },
                {
                    "name": "C#4",
                    "midi": 61,
                    "time": 9.677414999999991,
                    "velocity": 0.47244094488188976,
                    "duration": 0.04398824999999995
                },
                {
                    "name": "C#2",
                    "midi": 37,
                    "time": 9.765391499999991,
                    "velocity": 0.36220472440944884,
                    "duration": 0.0879764999999999
                },
                {
                    "name": "C3",
                    "midi": 48,
                    "time": 9.85336799999999,
                    "velocity": 0.3779527559055118,
                    "duration": 0.0879764999999999
                },
                {
                    "name": "C#3",
                    "midi": 49,
                    "time": 9.94134449999999,
                    "velocity": 0.3779527559055118,
                    "duration": 0.0879764999999999
                },
                {
                    "name": "C#4",
                    "midi": 61,
                    "time": 10.02932099999999,
                    "velocity": 0.4881889763779528,
                    "duration": 0.04398824999999995
                },
                {
                    "name": "D2",
                    "midi": 38,
                    "time": 10.11729749999999,
                    "velocity": 0.3700787401574803,
                    "duration": 0.0879764999999999
                },
                {
                    "name": "C#3",
                    "midi": 49,
                    "time": 10.20527399999999,
                    "velocity": 0.3779527559055118,
                    "duration": 0.0879764999999999
                },
                {
                    "name": "D3",
                    "midi": 50,
                    "time": 10.29325049999999,
                    "velocity": 0.3779527559055118,
                    "duration": 0.0879764999999999
                },
                {
                    "name": "D4",
                    "midi": 62,
                    "time": 10.38122699999999,
                    "velocity": 0.49606299212598426,
                    "duration": 0.04398824999999995
                },
                {
                    "name": "D2",
                    "midi": 38,
                    "time": 10.46920349999999,
                    "velocity": 0.3937007874015748,
                    "duration": 0.0879764999999999
                },
                {
                    "name": "C#3",
                    "midi": 49,
                    "time": 10.55717999999999,
                    "velocity": 0.3937007874015748,
                    "duration": 0.0879764999999999
                },
                {
                    "name": "D3",
                    "midi": 50,
                    "time": 10.64515649999999,
                    "velocity": 0.4015748031496063,
                    "duration": 0.0879764999999999
                },
                {
                    "name": "D4",
                    "midi": 62,
                    "time": 10.73313299999999,
                    "velocity": 0.5118110236220472,
                    "duration": 0.04398824999999995
                },
                {
                    "name": "D#2",
                    "midi": 39,
                    "time": 10.82110949999999,
                    "velocity": 0.3937007874015748,
                    "duration": 0.0879764999999999
                },
                {
                    "name": "D3",
                    "midi": 50,
                    "time": 10.90908599999999,
                    "velocity": 0.4094488188976378,
                    "duration": 0.0879764999999999
                },
                {
                    "name": "D#3",
                    "midi": 51,
                    "time": 10.99706249999999,
                    "velocity": 0.4094488188976378,
                    "duration": 0.0879764999999999
                },
                {
                    "name": "D#4",
                    "midi": 63,
                    "time": 11.08503899999999,
                    "velocity": 0.5275590551181102,
                    "duration": 0.04398824999999995
                },
                {
                    "name": "D#2",
                    "midi": 39,
                    "time": 11.17301549999999,
                    "velocity": 0.4015748031496063,
                    "duration": 0.0879764999999999
                },
                {
                    "name": "D3",
                    "midi": 50,
                    "time": 11.26099199999999,
                    "velocity": 0.41732283464566927,
                    "duration": 0.0879764999999999
                },
                {
                    "name": "D#3",
                    "midi": 51,
                    "time": 11.34896849999999,
                    "velocity": 0.41732283464566927,
                    "duration": 0.0879764999999999
                },
                {
                    "name": "D#4",
                    "midi": 63,
                    "time": 11.436944999999989,
                    "velocity": 0.5354330708661418,
                    "duration": 0.04398824999999995
                },
                {
                    "name": "E2",
                    "midi": 40,
                    "time": 11.524921499999989,
                    "velocity": 0.4094488188976378,
                    "duration": 0.0879764999999999
                },
                {
                    "name": "D#3",
                    "midi": 51,
                    "time": 11.612897999999989,
                    "velocity": 0.41732283464566927,
                    "duration": 0.0879764999999999
                },
                {
                    "name": "E3",
                    "midi": 52,
                    "time": 11.700874499999989,
                    "velocity": 0.41732283464566927,
                    "duration": 0.0879764999999999
                },
                {
                    "name": "E4",
                    "midi": 64,
                    "time": 11.788850999999989,
                    "velocity": 0.5511811023622047,
                    "duration": 0.04398824999999995
                },
                {
                    "name": "F2",
                    "midi": 41,
                    "time": 11.876827499999989,
                    "velocity": 0.4330708661417323,
                    "duration": 0.0879764999999999
                },
                {
                    "name": "E3",
                    "midi": 52,
                    "time": 11.964803999999988,
                    "velocity": 0.4409448818897638,
                    "duration": 0.0879764999999999
                },
                {
                    "name": "F3",
                    "midi": 53,
                    "time": 12.052780499999988,
                    "velocity": 0.4409448818897638,
                    "duration": 0.0879764999999999
                },
                {
                    "name": "F4",
                    "midi": 65,
                    "time": 12.140756999999988,
                    "velocity": 0.5669291338582677,
                    "duration": 0.04398824999999995
                },
                {
                    "name": "G#2",
                    "midi": 44,
                    "time": 12.228733499999988,
                    "velocity": 0.4330708661417323,
                    "duration": 0.0879764999999999
                },
                {
                    "name": "G3",
                    "midi": 55,
                    "time": 12.316709999999988,
                    "velocity": 0.44881889763779526,
                    "duration": 0.0879764999999999
                },
                {
                    "name": "G#3",
                    "midi": 56,
                    "time": 12.404686499999988,
                    "velocity": 0.44881889763779526,
                    "duration": 0.0879764999999999
                },
                {
                    "name": "G#4",
                    "midi": 68,
                    "time": 12.492662999999988,
                    "velocity": 0.5748031496062992,
                    "duration": 0.04398824999999995
                },
                {
                    "name": "A2",
                    "midi": 45,
                    "time": 12.580639499999988,
                    "velocity": 0.4409448818897638,
                    "duration": 0.0879764999999999
                },
                {
                    "name": "G#3",
                    "midi": 56,
                    "time": 12.668615999999988,
                    "velocity": 0.4566929133858268,
                    "duration": 0.0879764999999999
                },
                {
                    "name": "A3",
                    "midi": 57,
                    "time": 12.756592499999988,
                    "velocity": 0.4645669291338583,
                    "duration": 0.0879764999999999
                },
                {
                    "name": "A4",
                    "midi": 69,
                    "time": 12.844568999999987,
                    "velocity": 0.5905511811023622,
                    "duration": 0.04398824999999995
                },
                {
                    "name": "A#2",
                    "midi": 46,
                    "time": 12.932545499999987,
                    "velocity": 0.4566929133858268,
                    "duration": 0.0879764999999999
                },
                {
                    "name": "A3",
                    "midi": 57,
                    "time": 13.020521999999987,
                    "velocity": 0.4566929133858268,
                    "duration": 0.0879764999999999
                },
                {
                    "name": "A#3",
                    "midi": 58,
                    "time": 13.108498499999987,
                    "velocity": 0.4566929133858268,
                    "duration": 0.0879764999999999
                },
                {
                    "name": "A#4",
                    "midi": 70,
                    "time": 13.196474999999987,
                    "velocity": 0.6062992125984252,
                    "duration": 0.04398824999999995
                },
                {
                    "name": "C#3",
                    "midi": 49,
                    "time": 13.284451499999987,
                    "velocity": 0.48031496062992124,
                    "duration": 0.0879764999999999
                },
                {
                    "name": "C4",
                    "midi": 60,
                    "time": 13.372427999999987,
                    "velocity": 0.48031496062992124,
                    "duration": 0.0879764999999999
                },
                {
                    "name": "C#4",
                    "midi": 61,
                    "time": 13.460404499999987,
                    "velocity": 0.4881889763779528,
                    "duration": 0.0879764999999999
                },
                {
                    "name": "C#5",
                    "midi": 73,
                    "time": 13.548380999999987,
                    "velocity": 0.6220472440944882,
                    "duration": 0.04398824999999995
                },
                {
                    "name": "D3",
                    "midi": 50,
                    "time": 13.636357499999987,
                    "velocity": 0.47244094488188976,
                    "duration": 0.0879764999999999
                },
                {
                    "name": "C#4",
                    "midi": 61,
                    "time": 13.724333999999986,
                    "velocity": 0.49606299212598426,
                    "duration": 0.0879764999999999
                },
                {
                    "name": "D4",
                    "midi": 62,
                    "time": 13.812310499999986,
                    "velocity": 0.49606299212598426,
                    "duration": 0.0879764999999999
                },
                {
                    "name": "D5",
                    "midi": 74,
                    "time": 13.900286999999986,
                    "velocity": 0.6377952755905512,
                    "duration": 0.04398824999999995
                },
                {
                    "name": "D#3",
                    "midi": 51,
                    "time": 13.988263499999986,
                    "velocity": 0.4881889763779528,
                    "duration": 0.0879764999999999
                },
                {
                    "name": "D4",
                    "midi": 62,
                    "time": 14.076239999999986,
                    "velocity": 0.5039370078740157,
                    "duration": 0.0879764999999999
                },
                {
                    "name": "D#4",
                    "midi": 63,
                    "time": 14.164216499999986,
                    "velocity": 0.5039370078740157,
                    "duration": 0.0879764999999999
                },
                {
                    "name": "D#5",
                    "midi": 75,
                    "time": 14.252192999999986,
                    "velocity": 0.6456692913385826,
                    "duration": 0.04398824999999995
                },
                {
                    "name": "E3",
                    "midi": 52,
                    "time": 14.340169499999986,
                    "velocity": 0.49606299212598426,
                    "duration": 0.0879764999999999
                },
                {
                    "name": "D#4",
                    "midi": 63,
                    "time": 14.428145999999986,
                    "velocity": 0.5118110236220472,
                    "duration": 0.0879764999999999
                },
                {
                    "name": "E4",
                    "midi": 64,
                    "time": 14.516122499999986,
                    "velocity": 0.5196850393700787,
                    "duration": 0.0879764999999999
                },
                {
                    "name": "E5",
                    "midi": 76,
                    "time": 14.604098999999986,
                    "velocity": 0.6614173228346457,
                    "duration": 0.04398824999999995
                },
                {
                    "name": "F2",
                    "midi": 41,
                    "time": 14.780051999999985,
                    "velocity": 0.4409448818897638,
                    "duration": 0.0879764999999999
                },
                {
                    "name": "F3",
                    "midi": 53,
                    "time": 14.780051999999985,
                    "velocity": 0.4409448818897638,
                    "duration": 0.0879764999999999
                },
                {
                    "name": "G#2",
                    "midi": 44,
                    "time": 14.956004999999985,
                    "velocity": 0.4566929133858268,
                    "duration": 0.0879764999999999
                },
                {
                    "name": "G#3",
                    "midi": 56,
                    "time": 14.956004999999985,
                    "velocity": 0.4566929133858268,
                    "duration": 0.0879764999999999
                },
                {
                    "name": "A2",
                    "midi": 45,
                    "time": 15.131957999999985,
                    "velocity": 0.4645669291338583,
                    "duration": 0.0879764999999999
                },
                {
                    "name": "A3",
                    "midi": 57,
                    "time": 15.131957999999985,
                    "velocity": 0.4645669291338583,
                    "duration": 0.0879764999999999
                },
                {
                    "name": "A#2",
                    "midi": 46,
                    "time": 15.307910999999985,
                    "velocity": 0.48031496062992124,
                    "duration": 0.0879764999999999
                },
                {
                    "name": "A#3",
                    "midi": 58,
                    "time": 15.307910999999985,
                    "velocity": 0.48031496062992124,
                    "duration": 0.0879764999999999
                },
                {
                    "name": "C#3",
                    "midi": 49,
                    "time": 15.483863999999985,
                    "velocity": 0.49606299212598426,
                    "duration": 0.0879764999999999
                },
                {
                    "name": "C#4",
                    "midi": 61,
                    "time": 15.483863999999985,
                    "velocity": 0.49606299212598426,
                    "duration": 0.0879764999999999
                },
                {
                    "name": "D3",
                    "midi": 50,
                    "time": 15.659816999999984,
                    "velocity": 0.5039370078740157,
                    "duration": 0.0879764999999999
                },
                {
                    "name": "D4",
                    "midi": 62,
                    "time": 15.659816999999984,
                    "velocity": 0.5039370078740157,
                    "duration": 0.0879764999999999
                },
                {
                    "name": "D#3",
                    "midi": 51,
                    "time": 15.835769999999984,
                    "velocity": 0.5196850393700787,
                    "duration": 0.0879764999999999
                },
                {
                    "name": "D#4",
                    "midi": 63,
                    "time": 15.835769999999984,
                    "velocity": 0.5196850393700787,
                    "duration": 0.0879764999999999
                },
                {
                    "name": "E3",
                    "midi": 52,
                    "time": 16.011722999999986,
                    "velocity": 0.5354330708661418,
                    "duration": 0.0879764999999999
                },
                {
                    "name": "E4",
                    "midi": 64,
                    "time": 16.011722999999986,
                    "velocity": 0.5354330708661418,
                    "duration": 0.0879764999999999
                },
                {
                    "name": "F3",
                    "midi": 53,
                    "time": 16.187675999999986,
                    "velocity": 0.5433070866141733,
                    "duration": 0.0879764999999999
                },
                {
                    "name": "F4",
                    "midi": 65,
                    "time": 16.187675999999986,
                    "velocity": 0.5433070866141733,
                    "duration": 0.0879764999999999
                },
                {
                    "name": "G#4",
                    "midi": 68,
                    "time": 16.363628999999985,
                    "velocity": 0.5590551181102362,
                    "duration": 0.0879764999999999
                },
                {
                    "name": "G#3",
                    "midi": 56,
                    "time": 16.363628999999985,
                    "velocity": 0.5590551181102362,
                    "duration": 0.0879764999999999
                },
                {
                    "name": "A3",
                    "midi": 57,
                    "time": 16.539581999999985,
                    "velocity": 0.5748031496062992,
                    "duration": 0.0879764999999999
                },
                {
                    "name": "A4",
                    "midi": 69,
                    "time": 16.539581999999985,
                    "velocity": 0.5748031496062992,
                    "duration": 0.0879764999999999
                },
                {
                    "name": "A#4",
                    "midi": 70,
                    "time": 16.715534999999985,
                    "velocity": 0.5826771653543307,
                    "duration": 0.0879764999999999
                },
                {
                    "name": "A#3",
                    "midi": 58,
                    "time": 16.715534999999985,
                    "velocity": 0.5826771653543307,
                    "duration": 0.0879764999999999
                },
                {
                    "name": "C#4",
                    "midi": 61,
                    "time": 16.891487999999985,
                    "velocity": 0.5984251968503937,
                    "duration": 0.0879764999999999
                },
                {
                    "name": "C#5",
                    "midi": 73,
                    "time": 16.891487999999985,
                    "velocity": 0.5984251968503937,
                    "duration": 0.0879764999999999
                },
                {
                    "name": "D4",
                    "midi": 62,
                    "time": 17.067440999999985,
                    "velocity": 0.6141732283464567,
                    "duration": 0.0879764999999999
                },
                {
                    "name": "D5",
                    "midi": 74,
                    "time": 17.067440999999985,
                    "velocity": 0.6141732283464567,
                    "duration": 0.0879764999999999
                },
                {
                    "name": "D#4",
                    "midi": 63,
                    "time": 17.243393999999984,
                    "velocity": 0.6220472440944882,
                    "duration": 0.0879764999999999
                },
                {
                    "name": "D#5",
                    "midi": 75,
                    "time": 17.243393999999984,
                    "velocity": 0.6220472440944882,
                    "duration": 0.0879764999999999
                },
                {
                    "name": "E4",
                    "midi": 64,
                    "time": 17.419346999999984,
                    "velocity": 0.6377952755905512,
                    "duration": 0.0879764999999999
                },
                {
                    "name": "E5",
                    "midi": 76,
                    "time": 17.419346999999984,
                    "velocity": 0.6377952755905512,
                    "duration": 0.0879764999999999
                },
                {
                    "name": "F4",
                    "midi": 65,
                    "time": 17.595299999999984,
                    "velocity": 0.6535433070866141,
                    "duration": 0.0879764999999999
                },
                {
                    "name": "F5",
                    "midi": 77,
                    "time": 17.595299999999984,
                    "velocity": 0.6535433070866141,
                    "duration": 0.0879764999999999
                },
                {
                    "name": "F3",
                    "midi": 53,
                    "time": 19.354829999999986,
                    "velocity": 0.5118110236220472,
                    "duration": 0.1759529999999998
                },
                {
                    "name": "F2",
                    "midi": 41,
                    "time": 19.354829999999986,
                    "velocity": 0.4330708661417323,
                    "duration": 0.1759529999999998
                },
                {
                    "name": "B2",
                    "midi": 47,
                    "time": 19.354829999999986,
                    "velocity": 0.4330708661417323,
                    "duration": 0.1759529999999998
                },
                {
                    "name": "D3",
                    "midi": 50,
                    "time": 19.354829999999986,
                    "velocity": 0.4330708661417323,
                    "duration": 0.1759529999999998
                },
                {
                    "name": "D#3",
                    "midi": 51,
                    "time": 19.706735999999985,
                    "velocity": 0.5511811023622047,
                    "duration": 0.1759529999999998
                },
                {
                    "name": "D#2",
                    "midi": 39,
                    "time": 19.706735999999985,
                    "velocity": 0.4645669291338583,
                    "duration": 0.1759529999999998
                },
                {
                    "name": "A2",
                    "midi": 45,
                    "time": 19.706735999999985,
                    "velocity": 0.4645669291338583,
                    "duration": 0.1759529999999998
                },
                {
                    "name": "C3",
                    "midi": 48,
                    "time": 19.706735999999985,
                    "velocity": 0.4645669291338583,
                    "duration": 0.1759529999999998
                },
                {
                    "name": "C#3",
                    "midi": 49,
                    "time": 20.410547999999984,
                    "velocity": 0.5433070866141733,
                    "duration": 0.1759529999999998
                },
                {
                    "name": "C#2",
                    "midi": 37,
                    "time": 20.410547999999984,
                    "velocity": 0.4566929133858268,
                    "duration": 0.1759529999999998
                },
                {
                    "name": "F#2",
                    "midi": 42,
                    "time": 20.410547999999984,
                    "velocity": 0.4566929133858268,
                    "duration": 0.1759529999999998
                },
                {
                    "name": "A2",
                    "midi": 45,
                    "time": 20.410547999999984,
                    "velocity": 0.4566929133858268,
                    "duration": 0.1759529999999998
                },
                {
                    "name": "C3",
                    "midi": 48,
                    "time": 21.114359999999984,
                    "velocity": 0.5433070866141733,
                    "duration": 0.0879764999999999
                },
                {
                    "name": "C2",
                    "midi": 36,
                    "time": 21.114359999999984,
                    "velocity": 0.4566929133858268,
                    "duration": 0.0879764999999999
                },
                {
                    "name": "F#2",
                    "midi": 42,
                    "time": 21.114359999999984,
                    "velocity": 0.4566929133858268,
                    "duration": 0.0879764999999999
                },
                {
                    "name": "A2",
                    "midi": 45,
                    "time": 21.114359999999984,
                    "velocity": 0.4566929133858268,
                    "duration": 0.0879764999999999
                },
                {
                    "name": "F#2",
                    "midi": 42,
                    "time": 21.818171999999983,
                    "velocity": 0.5433070866141733,
                    "duration": 0.1759529999999998
                },
                {
                    "name": "B2",
                    "midi": 47,
                    "time": 21.818171999999983,
                    "velocity": 0.5433070866141733,
                    "duration": 0.1759529999999998
                },
                {
                    "name": "B1",
                    "midi": 35,
                    "time": 21.818171999999983,
                    "velocity": 0.4566929133858268,
                    "duration": 0.1759529999999998
                },
                {
                    "name": "D#2",
                    "midi": 39,
                    "time": 21.818171999999983,
                    "velocity": 0.4566929133858268,
                    "duration": 0.1759529999999998
                },
                {
                    "name": "A2",
                    "midi": 45,
                    "time": 22.521983999999982,
                    "velocity": 0.4645669291338583,
                    "duration": 0.1759529999999998
                },
                {
                    "name": "A1",
                    "midi": 33,
                    "time": 22.521983999999982,
                    "velocity": 0.3937007874015748,
                    "duration": 0.1759529999999998
                },
                {
                    "name": "C#2",
                    "midi": 37,
                    "time": 22.521983999999982,
                    "velocity": 0.3937007874015748,
                    "duration": 0.1759529999999998
                },
                {
                    "name": "F#2",
                    "midi": 42,
                    "time": 22.521983999999982,
                    "velocity": 0.3937007874015748,
                    "duration": 0.1759529999999998
                },
                {
                    "name": "G#2",
                    "midi": 44,
                    "time": 23.22579599999998,
                    "velocity": 0.5039370078740157,
                    "duration": 0.1759529999999998
                },
                {
                    "name": "G#1",
                    "midi": 32,
                    "time": 23.22579599999998,
                    "velocity": 0.4251968503937008,
                    "duration": 0.1759529999999998
                },
                {
                    "name": "C2",
                    "midi": 36,
                    "time": 23.22579599999998,
                    "velocity": 0.4251968503937008,
                    "duration": 0.1759529999999998
                },
                {
                    "name": "D#2",
                    "midi": 39,
                    "time": 23.22579599999998,
                    "velocity": 0.4251968503937008,
                    "duration": 0.1759529999999998
                },
                {
                    "name": "G2",
                    "midi": 43,
                    "time": 23.92960799999998,
                    "velocity": 0.4881889763779528,
                    "duration": 0.1759529999999998
                },
                {
                    "name": "G1",
                    "midi": 31,
                    "time": 23.92960799999998,
                    "velocity": 0.4094488188976378,
                    "duration": 0.1759529999999998
                },
                {
                    "name": "C2",
                    "midi": 36,
                    "time": 23.92960799999998,
                    "velocity": 0.4094488188976378,
                    "duration": 0.1759529999999998
                },
                {
                    "name": "D#2",
                    "midi": 39,
                    "time": 23.92960799999998,
                    "velocity": 0.4094488188976378,
                    "duration": 0.1759529999999998
                },
                {
                    "name": "F#2",
                    "midi": 42,
                    "time": 24.63341999999998,
                    "velocity": 0.5196850393700787,
                    "duration": 0.5278589999999994
                },
                {
                    "name": "F#1",
                    "midi": 30,
                    "time": 24.63341999999998,
                    "velocity": 0.4330708661417323,
                    "duration": 0.5278589999999994
                },
                {
                    "name": "C2",
                    "midi": 36,
                    "time": 24.63341999999998,
                    "velocity": 0.4330708661417323,
                    "duration": 0.5278589999999994
                },
                {
                    "name": "D#2",
                    "midi": 39,
                    "time": 24.63341999999998,
                    "velocity": 0.4330708661417323,
                    "duration": 0.5278589999999994
                },
                {
                    "name": "C3",
                    "midi": 48,
                    "time": 25.16127899999998,
                    "velocity": 0.4015748031496063,
                    "duration": 0.0879764999999999
                },
                {
                    "name": "C2",
                    "midi": 36,
                    "time": 25.16127899999998,
                    "velocity": 0.36220472440944884,
                    "duration": 0.0879764999999999
                },
                {
                    "name": "B2",
                    "midi": 47,
                    "time": 25.33723199999998,
                    "velocity": 0.4566929133858268,
                    "duration": 0.1759529999999998
                },
                {
                    "name": "B1",
                    "midi": 35,
                    "time": 25.33723199999998,
                    "velocity": 0.3779527559055118,
                    "duration": 0.1759529999999998
                },
                {
                    "name": "A2",
                    "midi": 45,
                    "time": 25.51318499999998,
                    "velocity": 0.3858267716535433,
                    "duration": 0.14076239999999984
                },
                {
                    "name": "A1",
                    "midi": 33,
                    "time": 25.51318499999998,
                    "velocity": 0.31496062992125984,
                    "duration": 0.14076239999999984
                },
                {
                    "name": "G2",
                    "midi": 43,
                    "time": 25.68913799999998,
                    "velocity": 0.3858267716535433,
                    "duration": 0.0879764999999999
                },
                {
                    "name": "G1",
                    "midi": 31,
                    "time": 25.68913799999998,
                    "velocity": 0.31496062992125984,
                    "duration": 0.0879764999999999
                },
                {
                    "name": "B2",
                    "midi": 47,
                    "time": 25.86509099999998,
                    "velocity": 0.3858267716535433,
                    "duration": 0.0879764999999999
                },
                {
                    "name": "B1",
                    "midi": 35,
                    "time": 25.86509099999998,
                    "velocity": 0.31496062992125984,
                    "duration": 0.0879764999999999
                },
                {
                    "name": "A2",
                    "midi": 45,
                    "time": 26.041043999999978,
                    "velocity": 0.4566929133858268,
                    "duration": 0.1759529999999998
                },
                {
                    "name": "A1",
                    "midi": 33,
                    "time": 26.041043999999978,
                    "velocity": 0.3779527559055118,
                    "duration": 0.1759529999999998
                },
                {
                    "name": "G2",
                    "midi": 43,
                    "time": 26.216996999999978,
                    "velocity": 0.3937007874015748,
                    "duration": 0.14076239999999984
                },
                {
                    "name": "G1",
                    "midi": 31,
                    "time": 26.216996999999978,
                    "velocity": 0.33070866141732286,
                    "duration": 0.14076239999999984
                },
                {
                    "name": "F2",
                    "midi": 41,
                    "time": 26.392949999999978,
                    "velocity": 0.3937007874015748,
                    "duration": 0.0879764999999999
                },
                {
                    "name": "F1",
                    "midi": 29,
                    "time": 26.392949999999978,
                    "velocity": 0.33070866141732286,
                    "duration": 0.0879764999999999
                },
                {
                    "name": "A2",
                    "midi": 45,
                    "time": 26.568902999999978,
                    "velocity": 0.3937007874015748,
                    "duration": 0.0879764999999999
                },
                {
                    "name": "A1",
                    "midi": 33,
                    "time": 26.568902999999978,
                    "velocity": 0.33070866141732286,
                    "duration": 0.0879764999999999
                },
                {
                    "name": "G2",
                    "midi": 43,
                    "time": 26.744855999999977,
                    "velocity": 0.47244094488188976,
                    "duration": 0.1759529999999998
                },
                {
                    "name": "G1",
                    "midi": 31,
                    "time": 26.744855999999977,
                    "velocity": 0.4094488188976378,
                    "duration": 0.1759529999999998
                },
                {
                    "name": "F2",
                    "midi": 41,
                    "time": 26.920808999999977,
                    "velocity": 0.3937007874015748,
                    "duration": 0.14076239999999984
                },
                {
                    "name": "F1",
                    "midi": 29,
                    "time": 26.920808999999977,
                    "velocity": 0.33070866141732286,
                    "duration": 0.14076239999999984
                },
                {
                    "name": "E2",
                    "midi": 40,
                    "time": 27.096761999999977,
                    "velocity": 0.3937007874015748,
                    "duration": 0.0879764999999999
                },
                {
                    "name": "E1",
                    "midi": 28,
                    "time": 27.096761999999977,
                    "velocity": 0.33070866141732286,
                    "duration": 0.0879764999999999
                },
                {
                    "name": "G2",
                    "midi": 43,
                    "time": 27.272714999999977,
                    "velocity": 0.3937007874015748,
                    "duration": 0.0879764999999999
                },
                {
                    "name": "G1",
                    "midi": 31,
                    "time": 27.272714999999977,
                    "velocity": 0.33070866141732286,
                    "duration": 0.0879764999999999
                },
                {
                    "name": "F2",
                    "midi": 41,
                    "time": 27.448667999999977,
                    "velocity": 0.49606299212598426,
                    "duration": 0.1759529999999998
                },
                {
                    "name": "F1",
                    "midi": 29,
                    "time": 27.448667999999977,
                    "velocity": 0.4094488188976378,
                    "duration": 0.1759529999999998
                },
                {
                    "name": "E2",
                    "midi": 40,
                    "time": 27.624620999999976,
                    "velocity": 0.3937007874015748,
                    "duration": 0.14076239999999984
                },
                {
                    "name": "E1",
                    "midi": 28,
                    "time": 27.624620999999976,
                    "velocity": 0.33070866141732286,
                    "duration": 0.14076239999999984
                },
                {
                    "name": "D#2",
                    "midi": 39,
                    "time": 27.800573999999976,
                    "velocity": 0.3937007874015748,
                    "duration": 0.0879764999999999
                },
                {
                    "name": "D#1",
                    "midi": 27,
                    "time": 27.800573999999976,
                    "velocity": 0.33070866141732286,
                    "duration": 0.0879764999999999
                },
                {
                    "name": "F2",
                    "midi": 41,
                    "time": 27.976526999999976,
                    "velocity": 0.3937007874015748,
                    "duration": 0.0879764999999999
                },
                {
                    "name": "F1",
                    "midi": 29,
                    "time": 27.976526999999976,
                    "velocity": 0.33070866141732286,
                    "duration": 0.0879764999999999
                },
                {
                    "name": "F2",
                    "midi": 41,
                    "time": 28.152479999999976,
                    "velocity": 0.47244094488188976,
                    "duration": 0.1759529999999998
                },
                {
                    "name": "F1",
                    "midi": 29,
                    "time": 28.152479999999976,
                    "velocity": 0.4094488188976378,
                    "duration": 0.1759529999999998
                },
                {
                    "name": "E2",
                    "midi": 40,
                    "time": 28.328432999999976,
                    "velocity": 0.3937007874015748,
                    "duration": 0.14076239999999984
                },
                {
                    "name": "E1",
                    "midi": 28,
                    "time": 28.328432999999976,
                    "velocity": 0.33070866141732286,
                    "duration": 0.14076239999999984
                },
                {
                    "name": "E2",
                    "midi": 40,
                    "time": 28.504385999999975,
                    "velocity": 0.3937007874015748,
                    "duration": 0.0879764999999999
                },
                {
                    "name": "E1",
                    "midi": 28,
                    "time": 28.504385999999975,
                    "velocity": 0.33070866141732286,
                    "duration": 0.0879764999999999
                },
                {
                    "name": "D#2",
                    "midi": 39,
                    "time": 28.680338999999975,
                    "velocity": 0.3937007874015748,
                    "duration": 0.0879764999999999
                },
                {
                    "name": "D#1",
                    "midi": 27,
                    "time": 28.680338999999975,
                    "velocity": 0.33070866141732286,
                    "duration": 0.0879764999999999
                },
                {
                    "name": "F2",
                    "midi": 41,
                    "time": 28.856291999999975,
                    "velocity": 0.5039370078740157,
                    "duration": 0.1759529999999998
                },
                {
                    "name": "F1",
                    "midi": 29,
                    "time": 28.856291999999975,
                    "velocity": 0.41732283464566927,
                    "duration": 0.1759529999999998
                },
                {
                    "name": "E2",
                    "midi": 40,
                    "time": 29.032244999999975,
                    "velocity": 0.3937007874015748,
                    "duration": 0.14076239999999984
                },
                {
                    "name": "E1",
                    "midi": 28,
                    "time": 29.032244999999975,
                    "velocity": 0.33070866141732286,
                    "duration": 0.14076239999999984
                },
                {
                    "name": "E2",
                    "midi": 40,
                    "time": 29.208197999999975,
                    "velocity": 0.3937007874015748,
                    "duration": 0.0879764999999999
                },
                {
                    "name": "E1",
                    "midi": 28,
                    "time": 29.208197999999975,
                    "velocity": 0.33070866141732286,
                    "duration": 0.0879764999999999
                },
                {
                    "name": "D#2",
                    "midi": 39,
                    "time": 29.384150999999974,
                    "velocity": 0.3937007874015748,
                    "duration": 0.0879764999999999
                },
                {
                    "name": "D#1",
                    "midi": 27,
                    "time": 29.384150999999974,
                    "velocity": 0.33070866141732286,
                    "duration": 0.0879764999999999
                },
                {
                    "name": "E2",
                    "midi": 40,
                    "time": 29.560103999999974,
                    "velocity": 0.48031496062992124,
                    "duration": 0.7038119999999992
                },
                {
                    "name": "E1",
                    "midi": 28,
                    "time": 29.560103999999974,
                    "velocity": 0.4094488188976378,
                    "duration": 0.7038119999999992
                },
                {
                    "name": "E3",
                    "midi": 52,
                    "time": 30.263915999999973,
                    "velocity": 0.4645669291338583,
                    "duration": 0.1759529999999998
                },
                {
                    "name": "B2",
                    "midi": 47,
                    "time": 30.263915999999973,
                    "velocity": 0.3937007874015748,
                    "duration": 0.1759529999999998
                },
                {
                    "name": "G#2",
                    "midi": 44,
                    "time": 30.263915999999973,
                    "velocity": 0.3937007874015748,
                    "duration": 0.1759529999999998
                },
                {
                    "name": "E2",
                    "midi": 40,
                    "time": 30.263915999999973,
                    "velocity": 0.3937007874015748,
                    "duration": 0.1759529999999998
                },
                {
                    "name": "E3",
                    "midi": 52,
                    "time": 30.615821999999973,
                    "velocity": 0.5511811023622047,
                    "duration": 0.11730199999999869
                },
                {
                    "name": "F#3",
                    "midi": 54,
                    "time": 30.73312399999997,
                    "velocity": 0.5826771653543307,
                    "duration": 0.11730199999999869
                },
                {
                    "name": "G#3",
                    "midi": 56,
                    "time": 30.85042599999997,
                    "velocity": 0.6141732283464567,
                    "duration": 0.11730199999999869
                },
                {
                    "name": "A3",
                    "midi": 57,
                    "time": 30.96772799999997,
                    "velocity": 0.5748031496062992,
                    "duration": 0.1759529999999998
                },
                {
                    "name": "A2",
                    "midi": 45,
                    "time": 30.96772799999997,
                    "velocity": 0.48031496062992124,
                    "duration": 0.1759529999999998
                },
                {
                    "name": "F3",
                    "midi": 53,
                    "time": 31.31963399999997,
                    "velocity": 0.4566929133858268,
                    "duration": 0.0879764999999999
                },
                {
                    "name": "F2",
                    "midi": 41,
                    "time": 31.31963399999997,
                    "velocity": 0.3858267716535433,
                    "duration": 0.0879764999999999
                },
                {
                    "name": "A3",
                    "midi": 57,
                    "time": 31.67153999999997,
                    "velocity": 0.5748031496062992,
                    "duration": 0.1759529999999998
                },
                {
                    "name": "A2",
                    "midi": 45,
                    "time": 31.67153999999997,
                    "velocity": 0.48031496062992124,
                    "duration": 0.1759529999999998
                },
                {
                    "name": "E3",
                    "midi": 52,
                    "time": 32.02344599999997,
                    "velocity": 0.4566929133858268,
                    "duration": 0.08797650000000345
                },
                {
                    "name": "E2",
                    "midi": 40,
                    "time": 32.02344599999997,
                    "velocity": 0.3858267716535433,
                    "duration": 0.08797650000000345
                },
                {
                    "name": "A3",
                    "midi": 57,
                    "time": 32.37535199999998,
                    "velocity": 0.5748031496062992,
                    "duration": 0.08797650000000345
                },
                {
                    "name": "A2",
                    "midi": 45,
                    "time": 32.37535199999998,
                    "velocity": 0.48031496062992124,
                    "duration": 0.08797650000000345
                },
                {
                    "name": "D3",
                    "midi": 50,
                    "time": 32.727257999999985,
                    "velocity": 0.47244094488188976,
                    "duration": 0.08797650000000345
                },
                {
                    "name": "D2",
                    "midi": 38,
                    "time": 32.727257999999985,
                    "velocity": 0.4015748031496063,
                    "duration": 0.08797650000000345
                },
                {
                    "name": "F2",
                    "midi": 41,
                    "time": 32.727257999999985,
                    "velocity": 0.4015748031496063,
                    "duration": 0.08797650000000345
                },
                {
                    "name": "A3",
                    "midi": 57,
                    "time": 33.07916399999999,
                    "velocity": 0.5748031496062992,
                    "duration": 0.7038119999999992
                },
                {
                    "name": "A2",
                    "midi": 45,
                    "time": 33.07916399999999,
                    "velocity": 0.48031496062992124,
                    "duration": 0.7038119999999992
                },
                {
                    "name": "E3",
                    "midi": 52,
                    "time": 33.07916399999999,
                    "velocity": 0.48031496062992124,
                    "duration": 0.7038119999999992
                },
                {
                    "name": "C2",
                    "midi": 36,
                    "time": 33.694999499999994,
                    "velocity": 0.4330708661417323,
                    "duration": 0.043988249999998175
                },
                {
                    "name": "C3",
                    "midi": 48,
                    "time": 33.73898774999999,
                    "velocity": 0.5118110236220472,
                    "duration": 0.043988249999998175
                },
                {
                    "name": "A4",
                    "midi": 69,
                    "time": 33.78297599999999,
                    "velocity": 0.5118110236220472,
                    "duration": 0.6158355000000029
                },
                {
                    "name": "A3",
                    "midi": 57,
                    "time": 33.78297599999999,
                    "velocity": 0.4330708661417323,
                    "duration": 0.6158355000000029
                },
                {
                    "name": "C4",
                    "midi": 60,
                    "time": 33.78297599999999,
                    "velocity": 0.4330708661417323,
                    "duration": 0.6158355000000029
                },
                {
                    "name": "F4",
                    "midi": 65,
                    "time": 33.78297599999999,
                    "velocity": 0.4330708661417323,
                    "duration": 0.6158355000000029
                },
                {
                    "name": "C2",
                    "midi": 36,
                    "time": 34.398811499999994,
                    "velocity": 0.47244094488188976,
                    "duration": 0.043988249999998175
                },
                {
                    "name": "C3",
                    "midi": 48,
                    "time": 34.44279974999999,
                    "velocity": 0.48031496062992124,
                    "duration": 0.043988249999998175
                },
                {
                    "name": "C5",
                    "midi": 72,
                    "time": 34.48678799999999,
                    "velocity": 0.5905511811023622,
                    "duration": 0.6158355000000029
                },
                {
                    "name": "C4",
                    "midi": 60,
                    "time": 34.48678799999999,
                    "velocity": 0.49606299212598426,
                    "duration": 0.6158355000000029
                },
                {
                    "name": "E4",
                    "midi": 64,
                    "time": 34.48678799999999,
                    "velocity": 0.49606299212598426,
                    "duration": 0.6158355000000029
                },
                {
                    "name": "G4",
                    "midi": 67,
                    "time": 34.48678799999999,
                    "velocity": 0.49606299212598426,
                    "duration": 0.6158355000000029
                },
                {
                    "name": "A1",
                    "midi": 33,
                    "time": 35.10262349999999,
                    "velocity": 0.4566929133858268,
                    "duration": 0.043988249999998175
                },
                {
                    "name": "A2",
                    "midi": 45,
                    "time": 35.14661174999999,
                    "velocity": 0.4566929133858268,
                    "duration": 0.043988249999998175
                },
                {
                    "name": "F4",
                    "midi": 65,
                    "time": 35.19059999999999,
                    "velocity": 0.4881889763779528,
                    "duration": 0.6158355000000029
                },
                {
                    "name": "F3",
                    "midi": 53,
                    "time": 35.19059999999999,
                    "velocity": 0.4094488188976378,
                    "duration": 0.6158355000000029
                },
                {
                    "name": "D4",
                    "midi": 62,
                    "time": 35.19059999999999,
                    "velocity": 0.4094488188976378,
                    "duration": 0.6158355000000029
                },
                {
                    "name": "A3",
                    "midi": 57,
                    "time": 35.19059999999999,
                    "velocity": 0.4094488188976378,
                    "duration": 0.6158355000000029
                },
                {
                    "name": "A1",
                    "midi": 33,
                    "time": 35.80643549999999,
                    "velocity": 0.47244094488188976,
                    "duration": 0.043988249999998175
                },
                {
                    "name": "A2",
                    "midi": 45,
                    "time": 35.85042374999999,
                    "velocity": 0.48031496062992124,
                    "duration": 0.043988249999998175
                },
                {
                    "name": "A4",
                    "midi": 69,
                    "time": 35.89441199999999,
                    "velocity": 0.5354330708661418,
                    "duration": 0.7038119999999992
                },
                {
                    "name": "A3",
                    "midi": 57,
                    "time": 35.89441199999999,
                    "velocity": 0.44881889763779526,
                    "duration": 0.7038119999999992
                },
                {
                    "name": "C4",
                    "midi": 60,
                    "time": 35.89441199999999,
                    "velocity": 0.44881889763779526,
                    "duration": 0.7038119999999992
                },
                {
                    "name": "E4",
                    "midi": 64,
                    "time": 35.89441199999999,
                    "velocity": 0.44881889763779526,
                    "duration": 0.7038119999999992
                },
                {
                    "name": "B2",
                    "midi": 47,
                    "time": 36.59822399999999,
                    "velocity": 0.5433070866141733,
                    "duration": 0.1759529999999998
                },
                {
                    "name": "B1",
                    "midi": 35,
                    "time": 36.59822399999999,
                    "velocity": 0.4566929133858268,
                    "duration": 0.1759529999999998
                },
                {
                    "name": "G#4",
                    "midi": 68,
                    "time": 36.95012999999999,
                    "velocity": 0.4645669291338583,
                    "duration": 0.08797650000000345
                },
                {
                    "name": "B3",
                    "midi": 59,
                    "time": 36.95012999999999,
                    "velocity": 0.3937007874015748,
                    "duration": 0.08797650000000345
                },
                {
                    "name": "E4",
                    "midi": 64,
                    "time": 36.95012999999999,
                    "velocity": 0.3937007874015748,
                    "duration": 0.08797650000000345
                },
                {
                    "name": "B2",
                    "midi": 47,
                    "time": 37.302035999999994,
                    "velocity": 0.5196850393700787,
                    "duration": 0.1759529999999998
                },
                {
                    "name": "A4",
                    "midi": 69,
                    "time": 37.653941999999994,
                    "velocity": 0.48031496062992124,
                    "duration": 0.08797650000000345
                },
                {
                    "name": "F#4",
                    "midi": 66,
                    "time": 37.653941999999994,
                    "velocity": 0.4094488188976378,
                    "duration": 0.08797650000000345
                },
                {
                    "name": "C#4",
                    "midi": 61,
                    "time": 37.653941999999994,
                    "velocity": 0.4094488188976378,
                    "duration": 0.08797650000000345
                },
                {
                    "name": "B2",
                    "midi": 47,
                    "time": 38.005848,
                    "velocity": 0.5196850393700787,
                    "duration": 0.1759529999999998
                },
                {
                    "name": "G#4",
                    "midi": 68,
                    "time": 38.357754,
                    "velocity": 0.4566929133858268,
                    "duration": 0.08797650000000345
                },
                {
                    "name": "E4",
                    "midi": 64,
                    "time": 38.357754,
                    "velocity": 0.3858267716535433,
                    "duration": 0.08797650000000345
                },
                {
                    "name": "B3",
                    "midi": 59,
                    "time": 38.357754,
                    "velocity": 0.3858267716535433,
                    "duration": 0.08797650000000345
                },
                {
                    "name": "B2",
                    "midi": 47,
                    "time": 38.70966000000001,
                    "velocity": 0.5196850393700787,
                    "duration": 0.1759529999999998
                },
                {
                    "name": "F#4",
                    "midi": 66,
                    "time": 39.061566000000006,
                    "velocity": 0.4409448818897638,
                    "duration": 0.08797650000000345
                },
                {
                    "name": "D#4",
                    "midi": 63,
                    "time": 39.061566000000006,
                    "velocity": 0.3700787401574803,
                    "duration": 0.08797650000000345
                },
                {
                    "name": "A3",
                    "midi": 57,
                    "time": 39.061566000000006,
                    "velocity": 0.3700787401574803,
                    "duration": 0.08797650000000345
                },
                {
                    "name": "E4",
                    "midi": 64,
                    "time": 39.41347200000001,
                    "velocity": 0.5196850393700787,
                    "duration": 0.1759529999999998
                },
                {
                    "name": "B3",
                    "midi": 59,
                    "time": 39.41347200000001,
                    "velocity": 0.4330708661417323,
                    "duration": 0.1759529999999998
                },
                {
                    "name": "G#3",
                    "midi": 56,
                    "time": 39.41347200000001,
                    "velocity": 0.4330708661417323,
                    "duration": 0.1759529999999998
                },
                {
                    "name": "E3",
                    "midi": 52,
                    "time": 39.41347200000001,
                    "velocity": 0.4330708661417323,
                    "duration": 0.1759529999999998
                },
                {
                    "name": "F#4",
                    "midi": 66,
                    "time": 39.76537800000001,
                    "velocity": 0.4409448818897638,
                    "duration": 0.08797650000000345
                },
                {
                    "name": "C4",
                    "midi": 60,
                    "time": 39.76537800000001,
                    "velocity": 0.3700787401574803,
                    "duration": 0.08797650000000345
                },
                {
                    "name": "A3",
                    "midi": 57,
                    "time": 39.76537800000001,
                    "velocity": 0.3700787401574803,
                    "duration": 0.08797650000000345
                },
                {
                    "name": "E4",
                    "midi": 64,
                    "time": 40.11728400000002,
                    "velocity": 0.5118110236220472,
                    "duration": 0.1759529999999998
                },
                {
                    "name": "B3",
                    "midi": 59,
                    "time": 40.11728400000002,
                    "velocity": 0.4251968503937008,
                    "duration": 0.1759529999999998
                },
                {
                    "name": "G#3",
                    "midi": 56,
                    "time": 40.11728400000002,
                    "velocity": 0.4251968503937008,
                    "duration": 0.1759529999999998
                },
                {
                    "name": "E3",
                    "midi": 52,
                    "time": 40.11728400000002,
                    "velocity": 0.4251968503937008,
                    "duration": 0.1759529999999998
                },
                {
                    "name": "F#4",
                    "midi": 66,
                    "time": 40.46919000000002,
                    "velocity": 0.4566929133858268,
                    "duration": 0.08797650000000345
                },
                {
                    "name": "C4",
                    "midi": 60,
                    "time": 40.46919000000002,
                    "velocity": 0.3858267716535433,
                    "duration": 0.08797650000000345
                },
                {
                    "name": "A3",
                    "midi": 57,
                    "time": 40.46919000000002,
                    "velocity": 0.3858267716535433,
                    "duration": 0.08797650000000345
                },
                {
                    "name": "E4",
                    "midi": 64,
                    "time": 40.821096000000026,
                    "velocity": 0.5433070866141733,
                    "duration": 0.7038119999999992
                },
                {
                    "name": "B3",
                    "midi": 59,
                    "time": 40.821096000000026,
                    "velocity": 0.4566929133858268,
                    "duration": 0.7038119999999992
                },
                {
                    "name": "G#3",
                    "midi": 56,
                    "time": 40.821096000000026,
                    "velocity": 0.4566929133858268,
                    "duration": 0.7038119999999992
                },
                {
                    "name": "E3",
                    "midi": 52,
                    "time": 40.821096000000026,
                    "velocity": 0.4566929133858268,
                    "duration": 0.7038119999999992
                },
                {
                    "name": "E3",
                    "midi": 52,
                    "time": 41.524908000000025,
                    "velocity": 0.5275590551181102,
                    "duration": 0.1759529999999998
                },
                {
                    "name": "E2",
                    "midi": 40,
                    "time": 41.524908000000025,
                    "velocity": 0.4409448818897638,
                    "duration": 0.1759529999999998
                },
                {
                    "name": "G#2",
                    "midi": 44,
                    "time": 41.524908000000025,
                    "velocity": 0.4409448818897638,
                    "duration": 0.1759529999999998
                },
                {
                    "name": "B2",
                    "midi": 47,
                    "time": 41.524908000000025,
                    "velocity": 0.4409448818897638,
                    "duration": 0.1759529999999998
                },
                {
                    "name": "C#4",
                    "midi": 61,
                    "time": 42.93253200000002,
                    "velocity": 0.5433070866141733,
                    "duration": 0.1759529999999998
                },
                {
                    "name": "G#3",
                    "midi": 56,
                    "time": 43.63634400000002,
                    "velocity": 0.5433070866141733,
                    "duration": 1.319647500000002
                },
                {
                    "name": "C#4",
                    "midi": 61,
                    "time": 44.955991500000025,
                    "velocity": 0.47244094488188976,
                    "duration": 0.08797650000000345
                },
                {
                    "name": "C#3",
                    "midi": 49,
                    "time": 44.955991500000025,
                    "velocity": 0.3858267716535433,
                    "duration": 0.08797650000000345
                },
                {
                    "name": "G#3",
                    "midi": 56,
                    "time": 45.04396800000003,
                    "velocity": 0.5275590551181102,
                    "duration": 0.6158355000000029
                },
                {
                    "name": "C#4",
                    "midi": 61,
                    "time": 45.65980350000003,
                    "velocity": 0.48031496062992124,
                    "duration": 0.08797650000000345
                },
                {
                    "name": "C#3",
                    "midi": 49,
                    "time": 45.65980350000003,
                    "velocity": 0.3937007874015748,
                    "duration": 0.08797650000000345
                },
                {
                    "name": "G#3",
                    "midi": 56,
                    "time": 45.747780000000034,
                    "velocity": 0.5354330708661418,
                    "duration": 0.6158355000000029
                },
                {
                    "name": "C#4",
                    "midi": 61,
                    "time": 46.36361550000004,
                    "velocity": 0.48031496062992124,
                    "duration": 0.08797650000000345
                },
                {
                    "name": "C#3",
                    "midi": 49,
                    "time": 46.36361550000004,
                    "velocity": 0.4015748031496063,
                    "duration": 0.08797650000000345
                },
                {
                    "name": "G#3",
                    "midi": 56,
                    "time": 46.45159200000004,
                    "velocity": 0.6692913385826772,
                    "duration": 0.1759529999999998
                },
                {
                    "name": "G#2",
                    "midi": 44,
                    "time": 46.45159200000004,
                    "velocity": 0.5511811023622047,
                    "duration": 0.1759529999999998
                },
                {
                    "name": "G3",
                    "midi": 55,
                    "time": 46.80349800000004,
                    "velocity": 0.6692913385826772,
                    "duration": 0.1759529999999998
                },
                {
                    "name": "G2",
                    "midi": 43,
                    "time": 46.80349800000004,
                    "velocity": 0.5511811023622047,
                    "duration": 0.1759529999999998
                },
                {
                    "name": "F#3",
                    "midi": 54,
                    "time": 47.15540400000004,
                    "velocity": 0.6692913385826772,
                    "duration": 0.1759529999999998
                },
                {
                    "name": "F#2",
                    "midi": 42,
                    "time": 47.15540400000004,
                    "velocity": 0.5511811023622047,
                    "duration": 0.1759529999999998
                },
                {
                    "name": "F3",
                    "midi": 53,
                    "time": 47.50731000000004,
                    "velocity": 0.6692913385826772,
                    "duration": 0.1759529999999998
                },
                {
                    "name": "F2",
                    "midi": 41,
                    "time": 47.50731000000004,
                    "velocity": 0.5511811023622047,
                    "duration": 0.1759529999999998
                },
                {
                    "name": "E3",
                    "midi": 52,
                    "time": 47.85921600000004,
                    "velocity": 0.7007874015748031,
                    "duration": 0.13196475000000163
                },
                {
                    "name": "E2",
                    "midi": 40,
                    "time": 47.85921600000004,
                    "velocity": 0.5748031496062992,
                    "duration": 0.13196475000000163
                },
                {
                    "name": "A3",
                    "midi": 57,
                    "time": 49.26684000000004,
                    "velocity": 0.31496062992125984,
                    "duration": 0.1759529999999998
                },
                {
                    "name": "A4",
                    "midi": 69,
                    "time": 49.38414200000004,
                    "velocity": 0.2283464566929134,
                    "duration": 0.11730199999999513
                },
                {
                    "name": "B4",
                    "midi": 71,
                    "time": 49.501444000000035,
                    "velocity": 0.2440944881889764,
                    "duration": 0.11730200000000224
                },
                {
                    "name": "C5",
                    "midi": 72,
                    "time": 49.61874600000004,
                    "velocity": 0.25196850393700787,
                    "duration": 0.11730200000000224
                },
                {
                    "name": "B4",
                    "midi": 71,
                    "time": 49.73604800000004,
                    "velocity": 0.25984251968503935,
                    "duration": 0.11730200000000224
                },
                {
                    "name": "A4",
                    "midi": 69,
                    "time": 49.85335000000004,
                    "velocity": 0.25196850393700787,
                    "duration": 0.11730200000000224
                },
                {
                    "name": "G3",
                    "midi": 55,
                    "time": 49.970652000000044,
                    "velocity": 0.31496062992125984,
                    "duration": 0.1759529999999998
                },
                {
                    "name": "G4",
                    "midi": 67,
                    "time": 50.087954000000046,
                    "velocity": 0.25196850393700787,
                    "duration": 0.11730199999999513
                },
                {
                    "name": "A4",
                    "midi": 69,
                    "time": 50.20525600000004,
                    "velocity": 0.25984251968503935,
                    "duration": 0.11730200000000224
                },
                {
                    "name": "B4",
                    "midi": 71,
                    "time": 50.32255800000004,
                    "velocity": 0.2677165354330709,
                    "duration": 0.11730200000000224
                },
                {
                    "name": "A4",
                    "midi": 69,
                    "time": 50.439860000000046,
                    "velocity": 0.2677165354330709,
                    "duration": 0.11730200000000224
                },
                {
                    "name": "G4",
                    "midi": 67,
                    "time": 50.55716200000005,
                    "velocity": 0.2440944881889764,
                    "duration": 0.11730200000000224
                },
                {
                    "name": "F3",
                    "midi": 53,
                    "time": 50.67446400000005,
                    "velocity": 0.31496062992125984,
                    "duration": 0.1759529999999998
                },
                {
                    "name": "F4",
                    "midi": 65,
                    "time": 50.79176600000005,
                    "velocity": 0.2440944881889764,
                    "duration": 0.11730199999999513
                },
                {
                    "name": "G4",
                    "midi": 67,
                    "time": 50.90906800000005,
                    "velocity": 0.25984251968503935,
                    "duration": 0.11730200000000224
                },
                {
                    "name": "A4",
                    "midi": 69,
                    "time": 51.02637000000005,
                    "velocity": 0.2677165354330709,
                    "duration": 0.11730200000000224
                },
                {
                    "name": "G4",
                    "midi": 67,
                    "time": 51.14367200000005,
                    "velocity": 0.2677165354330709,
                    "duration": 0.11730200000000224
                },
                {
                    "name": "F4",
                    "midi": 65,
                    "time": 51.260974000000054,
                    "velocity": 0.25196850393700787,
                    "duration": 0.11730200000000224
                },
                {
                    "name": "E3",
                    "midi": 52,
                    "time": 51.37827600000006,
                    "velocity": 0.31496062992125984,
                    "duration": 0.1759529999999998
                },
                {
                    "name": "E4",
                    "midi": 64,
                    "time": 51.49557800000006,
                    "velocity": 0.2440944881889764,
                    "duration": 0.11730199999999513
                },
                {
                    "name": "F4",
                    "midi": 65,
                    "time": 51.612880000000054,
                    "velocity": 0.25196850393700787,
                    "duration": 0.11730200000000224
                },
                {
                    "name": "G#4",
                    "midi": 68,
                    "time": 51.730182000000056,
                    "velocity": 0.25984251968503935,
                    "duration": 0.11730200000000224
                },
                {
                    "name": "F4",
                    "midi": 65,
                    "time": 51.84748400000006,
                    "velocity": 0.25196850393700787,
                    "duration": 0.11730200000000224
                },
                {
                    "name": "E4",
                    "midi": 64,
                    "time": 51.96478600000006,
                    "velocity": 0.23622047244094488,
                    "duration": 0.11730200000000224
                },
                {
                    "name": "D3",
                    "midi": 50,
                    "time": 52.08208800000006,
                    "velocity": 0.31496062992125984,
                    "duration": 0.1759529999999998
                },
                {
                    "name": "D4",
                    "midi": 62,
                    "time": 52.199390000000065,
                    "velocity": 0.23622047244094488,
                    "duration": 0.11730199999999513
                },
                {
                    "name": "E4",
                    "midi": 64,
                    "time": 52.31669200000006,
                    "velocity": 0.2440944881889764,
                    "duration": 0.11730200000000224
                },
                {
                    "name": "F4",
                    "midi": 65,
                    "time": 52.43399400000006,
                    "velocity": 0.25196850393700787,
                    "duration": 0.11730200000000224
                },
                {
                    "name": "D4",
                    "midi": 62,
                    "time": 52.551296000000065,
                    "velocity": 0.25196850393700787,
                    "duration": 0.11730200000000224
                },
                {
                    "name": "C4",
                    "midi": 60,
                    "time": 52.66859800000007,
                    "velocity": 0.23622047244094488,
                    "duration": 0.11730200000000224
                },
                {
                    "name": "E3",
                    "midi": 52,
                    "time": 52.78590000000007,
                    "velocity": 0.33858267716535434,
                    "duration": 0.3519059999999996
                },
                {
                    "name": "B3",
                    "midi": 59,
                    "time": 52.78590000000007,
                    "velocity": 0.33858267716535434,
                    "duration": 0.1759529999999998
                },
                {
                    "name": "E4",
                    "midi": 64,
                    "time": 52.96185300000007,
                    "velocity": 0.31496062992125984,
                    "duration": 0.1759529999999998
                },
                {
                    "name": "B3",
                    "midi": 59,
                    "time": 53.13780600000007,
                    "velocity": 0.3543307086614173,
                    "duration": 0.1759529999999998
                },
                {
                    "name": "E4",
                    "midi": 64,
                    "time": 53.31375900000007,
                    "velocity": 0.31496062992125984,
                    "duration": 0.1759529999999998
                },
                {
                    "name": "E3",
                    "midi": 52,
                    "time": 53.48971200000007,
                    "velocity": 0.33858267716535434,
                    "duration": 0.3519059999999996
                },
                {
                    "name": "B3",
                    "midi": 59,
                    "time": 53.48971200000007,
                    "velocity": 0.33858267716535434,
                    "duration": 0.1759529999999998
                },
                {
                    "name": "E4",
                    "midi": 64,
                    "time": 53.66566500000007,
                    "velocity": 0.31496062992125984,
                    "duration": 0.1759529999999998
                },
                {
                    "name": "B3",
                    "midi": 59,
                    "time": 53.84161800000007,
                    "velocity": 0.3543307086614173,
                    "duration": 0.1759529999999998
                },
                {
                    "name": "E4",
                    "midi": 64,
                    "time": 54.01757100000007,
                    "velocity": 0.31496062992125984,
                    "duration": 0.1759529999999998
                },
                {
                    "name": "E3",
                    "midi": 52,
                    "time": 54.19352400000007,
                    "velocity": 0.33858267716535434,
                    "duration": 0.3519060000000067
                },
                {
                    "name": "B3",
                    "midi": 59,
                    "time": 54.19352400000007,
                    "velocity": 0.33858267716535434,
                    "duration": 0.1759529999999998
                },
                {
                    "name": "E4",
                    "midi": 64,
                    "time": 54.36947700000007,
                    "velocity": 0.31496062992125984,
                    "duration": 0.08797650000000345
                },
                {
                    "name": "E3",
                    "midi": 52,
                    "time": 54.545430000000074,
                    "velocity": 0.33858267716535434,
                    "duration": 0.3519060000000067
                },
                {
                    "name": "B3",
                    "midi": 59,
                    "time": 54.545430000000074,
                    "velocity": 0.3543307086614173,
                    "duration": 0.1759529999999998
                },
                {
                    "name": "E4",
                    "midi": 64,
                    "time": 54.721383000000074,
                    "velocity": 0.31496062992125984,
                    "duration": 0.08797650000000345
                },
                {
                    "name": "B3",
                    "midi": 59,
                    "time": 54.89733600000008,
                    "velocity": 0.4409448818897638,
                    "duration": 0.08797650000000345
                },
                {
                    "name": "E3",
                    "midi": 52,
                    "time": 54.89733600000008,
                    "velocity": 0.3700787401574803,
                    "duration": 0.08797650000000345
                },
                {
                    "name": "E4",
                    "midi": 64,
                    "time": 55.24924200000009,
                    "velocity": 0.47244094488188976,
                    "duration": 0.08797650000000345
                },
                {
                    "name": "E3",
                    "midi": 52,
                    "time": 55.24924200000009,
                    "velocity": 0.4015748031496063,
                    "duration": 0.08797650000000345
                },
                {
                    "name": "G#3",
                    "midi": 56,
                    "time": 55.24924200000009,
                    "velocity": 0.4015748031496063,
                    "duration": 0.08797650000000345
                },
                {
                    "name": "B3",
                    "midi": 59,
                    "time": 55.24924200000009,
                    "velocity": 0.4015748031496063,
                    "duration": 0.08797650000000345
                },
                {
                    "name": "G#3",
                    "midi": 56,
                    "time": 55.601148000000094,
                    "velocity": 0.5354330708661418,
                    "duration": 0.08797650000000345
                },
                {
                    "name": "B3",
                    "midi": 59,
                    "time": 55.601148000000094,
                    "velocity": 0.5354330708661418,
                    "duration": 0.08797650000000345
                },
                {
                    "name": "B2",
                    "midi": 47,
                    "time": 55.601148000000094,
                    "velocity": 0.44881889763779526,
                    "duration": 0.08797650000000345
                },
                {
                    "name": "E3",
                    "midi": 52,
                    "time": 55.601148000000094,
                    "velocity": 0.44881889763779526,
                    "duration": 0.08797650000000345
                },
                {
                    "name": "G#3",
                    "midi": 56,
                    "time": 55.9530540000001,
                    "velocity": 0.5905511811023622,
                    "duration": 0.08797650000000345
                },
                {
                    "name": "G#2",
                    "midi": 44,
                    "time": 55.9530540000001,
                    "velocity": 0.49606299212598426,
                    "duration": 0.08797650000000345
                },
                {
                    "name": "B2",
                    "midi": 47,
                    "time": 55.9530540000001,
                    "velocity": 0.49606299212598426,
                    "duration": 0.08797650000000345
                },
                {
                    "name": "E3",
                    "midi": 52,
                    "time": 55.9530540000001,
                    "velocity": 0.49606299212598426,
                    "duration": 0.08797650000000345
                },
                {
                    "name": "B2",
                    "midi": 47,
                    "time": 56.30496000000011,
                    "velocity": 0.47244094488188976,
                    "duration": 0.7038119999999992
                },
                {
                    "name": "G#2",
                    "midi": 44,
                    "time": 56.30496000000011,
                    "velocity": 0.47244094488188976,
                    "duration": 0.7038119999999992
                },
                {
                    "name": "E3",
                    "midi": 52,
                    "time": 56.30496000000011,
                    "velocity": 0.5511811023622047,
                    "duration": 0.7038119999999992
                },
                {
                    "name": "E2",
                    "midi": 40,
                    "time": 56.30496000000011,
                    "velocity": 0.47244094488188976,
                    "duration": 0.7038119999999992
                },
                {
                    "name": "E4",
                    "midi": 64,
                    "time": 57.00877200000011,
                    "velocity": 0.5826771653543307,
                    "duration": 0.1759529999999998
                },
                {
                    "name": "B3",
                    "midi": 59,
                    "time": 57.00877200000011,
                    "velocity": 0.4881889763779528,
                    "duration": 0.1759529999999998
                },
                {
                    "name": "G#3",
                    "midi": 56,
                    "time": 57.00877200000011,
                    "velocity": 0.4881889763779528,
                    "duration": 0.1759529999999998
                },
                {
                    "name": "E3",
                    "midi": 52,
                    "time": 57.00877200000011,
                    "velocity": 0.4881889763779528,
                    "duration": 0.1759529999999998
                },
                {
                    "name": "E3",
                    "midi": 52,
                    "time": 57.36067800000011,
                    "velocity": 0.5275590551181102,
                    "duration": 0.11730200000000224
                },
                {
                    "name": "F#3",
                    "midi": 54,
                    "time": 57.47798000000011,
                    "velocity": 0.5590551181102362,
                    "duration": 0.11730200000000224
                },
                {
                    "name": "G#3",
                    "midi": 56,
                    "time": 57.59528200000011,
                    "velocity": 0.5905511811023622,
                    "duration": 0.11730200000000224
                },
                {
                    "name": "A3",
                    "midi": 57,
                    "time": 57.71258400000011,
                    "velocity": 0.5511811023622047,
                    "duration": 0.1759529999999998
                },
                {
                    "name": "A2",
                    "midi": 45,
                    "time": 57.71258400000011,
                    "velocity": 0.4645669291338583,
                    "duration": 0.1759529999999998
                },
                {
                    "name": "F3",
                    "midi": 53,
                    "time": 58.06449000000011,
                    "velocity": 0.4409448818897638,
                    "duration": 0.08797650000000345
                },
                {
                    "name": "F2",
                    "midi": 41,
                    "time": 58.06449000000011,
                    "velocity": 0.3700787401574803,
                    "duration": 0.08797650000000345
                },
                {
                    "name": "A3",
                    "midi": 57,
                    "time": 58.41639600000012,
                    "velocity": 0.5511811023622047,
                    "duration": 0.1759529999999998
                },
                {
                    "name": "A2",
                    "midi": 45,
                    "time": 58.41639600000012,
                    "velocity": 0.4645669291338583,
                    "duration": 0.1759529999999998
                },
                {
                    "name": "E3",
                    "midi": 52,
                    "time": 58.76830200000012,
                    "velocity": 0.4409448818897638,
                    "duration": 0.08797650000000345
                },
                {
                    "name": "E2",
                    "midi": 40,
                    "time": 58.76830200000012,
                    "velocity": 0.3700787401574803,
                    "duration": 0.08797650000000345
                },
                {
                    "name": "A3",
                    "midi": 57,
                    "time": 59.120208000000126,
                    "velocity": 0.5511811023622047,
                    "duration": 0.08797650000000345
                },
                {
                    "name": "A2",
                    "midi": 45,
                    "time": 59.120208000000126,
                    "velocity": 0.4645669291338583,
                    "duration": 0.08797650000000345
                },
                {
                    "name": "D3",
                    "midi": 50,
                    "time": 59.47211400000013,
                    "velocity": 0.48031496062992124,
                    "duration": 0.08797650000000345
                },
                {
                    "name": "D2",
                    "midi": 38,
                    "time": 59.47211400000013,
                    "velocity": 0.4015748031496063,
                    "duration": 0.08797650000000345
                },
                {
                    "name": "F2",
                    "midi": 41,
                    "time": 59.47211400000013,
                    "velocity": 0.4015748031496063,
                    "duration": 0.08797650000000345
                },
                {
                    "name": "A3",
                    "midi": 57,
                    "time": 59.82402000000014,
                    "velocity": 0.5511811023622047,
                    "duration": 0.7038119999999992
                },
                {
                    "name": "A2",
                    "midi": 45,
                    "time": 59.82402000000014,
                    "velocity": 0.4645669291338583,
                    "duration": 0.7038119999999992
                },
                {
                    "name": "E3",
                    "midi": 52,
                    "time": 59.82402000000014,
                    "velocity": 0.4645669291338583,
                    "duration": 0.7038119999999992
                },
                {
                    "name": "A4",
                    "midi": 69,
                    "time": 60.87973800000014,
                    "velocity": 0.5905511811023622,
                    "duration": 0.08797650000000345
                },
                {
                    "name": "A3",
                    "midi": 57,
                    "time": 60.87973800000014,
                    "velocity": 0.49606299212598426,
                    "duration": 0.08797650000000345
                },
                {
                    "name": "B4",
                    "midi": 71,
                    "time": 61.055691000000145,
                    "velocity": 0.6220472440944882,
                    "duration": 0.08797650000000345
                },
                {
                    "name": "B3",
                    "midi": 59,
                    "time": 61.055691000000145,
                    "velocity": 0.5275590551181102,
                    "duration": 0.08797650000000345
                },
                {
                    "name": "C5",
                    "midi": 72,
                    "time": 61.23164400000015,
                    "velocity": 0.6771653543307087,
                    "duration": 0.5278589999999994
                },
                {
                    "name": "C4",
                    "midi": 60,
                    "time": 61.23164400000015,
                    "velocity": 0.5669291338582677,
                    "duration": 0.5278589999999994
                },
                {
                    "name": "B4",
                    "midi": 71,
                    "time": 61.75950300000015,
                    "velocity": 0.5826771653543307,
                    "duration": 0.08797650000000345
                },
                {
                    "name": "B3",
                    "midi": 59,
                    "time": 61.75950300000015,
                    "velocity": 0.4881889763779528,
                    "duration": 0.08797650000000345
                },
                {
                    "name": "A4",
                    "midi": 69,
                    "time": 61.93545600000016,
                    "velocity": 0.6850393700787402,
                    "duration": 0.5278589999999994
                },
                {
                    "name": "A3",
                    "midi": 57,
                    "time": 61.93545600000016,
                    "velocity": 0.5748031496062992,
                    "duration": 0.5278589999999994
                },
                {
                    "name": "G4",
                    "midi": 67,
                    "time": 62.46331500000016,
                    "velocity": 0.5905511811023622,
                    "duration": 0.08797650000000345
                },
                {
                    "name": "G3",
                    "midi": 55,
                    "time": 62.46331500000016,
                    "velocity": 0.49606299212598426,
                    "duration": 0.08797650000000345
                },
                {
                    "name": "F4",
                    "midi": 65,
                    "time": 62.639268000000165,
                    "velocity": 0.6929133858267716,
                    "duration": 0.5278589999999994
                },
                {
                    "name": "F3",
                    "midi": 53,
                    "time": 62.639268000000165,
                    "velocity": 0.5826771653543307,
                    "duration": 0.5278589999999994
                },
                {
                    "name": "E3",
                    "midi": 52,
                    "time": 63.167127000000164,
                    "velocity": 0.5905511811023622,
                    "duration": 0.08797650000000345
                },
                {
                    "name": "E4",
                    "midi": 64,
                    "time": 63.167127000000164,
                    "velocity": 0.5905511811023622,
                    "duration": 0.08797650000000345
                },
                {
                    "name": "D4",
                    "midi": 62,
                    "time": 63.34308000000017,
                    "velocity": 0.5511811023622047,
                    "duration": 0.1759529999999998
                },
                {
                    "name": "D3",
                    "midi": 50,
                    "time": 63.34308000000017,
                    "velocity": 0.4645669291338583,
                    "duration": 0.1759529999999998
                },
                {
                    "name": "A#3",
                    "midi": 58,
                    "time": 63.69498600000017,
                    "velocity": 0.4409448818897638,
                    "duration": 0.08797650000000345
                },
                {
                    "name": "A#2",
                    "midi": 46,
                    "time": 63.69498600000017,
                    "velocity": 0.3700787401574803,
                    "duration": 0.08797650000000345
                },
                {
                    "name": "D4",
                    "midi": 62,
                    "time": 64.04689200000017,
                    "velocity": 0.5511811023622047,
                    "duration": 0.1759530000000069
                },
                {
                    "name": "D3",
                    "midi": 50,
                    "time": 64.04689200000017,
                    "velocity": 0.4645669291338583,
                    "duration": 0.1759530000000069
                },
                {
                    "name": "A3",
                    "midi": 57,
                    "time": 64.39879800000018,
                    "velocity": 0.4409448818897638,
                    "duration": 0.08797649999999635
                },
                {
                    "name": "A2",
                    "midi": 45,
                    "time": 64.39879800000018,
                    "velocity": 0.3700787401574803,
                    "duration": 0.08797649999999635
                },
                {
                    "name": "D4",
                    "midi": 62,
                    "time": 64.75070400000018,
                    "velocity": 0.5511811023622047,
                    "duration": 0.08797649999999635
                },
                {
                    "name": "D3",
                    "midi": 50,
                    "time": 64.75070400000018,
                    "velocity": 0.4645669291338583,
                    "duration": 0.08797649999999635
                },
                {
                    "name": "G3",
                    "midi": 55,
                    "time": 65.10261000000018,
                    "velocity": 0.48031496062992124,
                    "duration": 0.08797649999999635
                },
                {
                    "name": "G2",
                    "midi": 43,
                    "time": 65.10261000000018,
                    "velocity": 0.4015748031496063,
                    "duration": 0.08797649999999635
                },
                {
                    "name": "A#2",
                    "midi": 46,
                    "time": 65.10261000000018,
                    "velocity": 0.4015748031496063,
                    "duration": 0.08797649999999635
                },
                {
                    "name": "D4",
                    "midi": 62,
                    "time": 65.45451600000018,
                    "velocity": 0.5748031496062992,
                    "duration": 0.7038119999999992
                },
                {
                    "name": "D3",
                    "midi": 50,
                    "time": 65.45451600000018,
                    "velocity": 0.48031496062992124,
                    "duration": 0.7038119999999992
                },
                {
                    "name": "A3",
                    "midi": 57,
                    "time": 65.45451600000018,
                    "velocity": 0.48031496062992124,
                    "duration": 0.7038119999999992
                },
                {
                    "name": "D5",
                    "midi": 74,
                    "time": 66.51023400000018,
                    "velocity": 0.5905511811023622,
                    "duration": 0.08797649999999635
                },
                {
                    "name": "D4",
                    "midi": 62,
                    "time": 66.51023400000018,
                    "velocity": 0.49606299212598426,
                    "duration": 0.08797649999999635
                },
                {
                    "name": "E5",
                    "midi": 76,
                    "time": 66.68618700000017,
                    "velocity": 0.6220472440944882,
                    "duration": 0.08797649999999635
                },
                {
                    "name": "E4",
                    "midi": 64,
                    "time": 66.68618700000017,
                    "velocity": 0.5275590551181102,
                    "duration": 0.08797649999999635
                },
                {
                    "name": "F5",
                    "midi": 77,
                    "time": 66.86214000000017,
                    "velocity": 0.6456692913385826,
                    "duration": 0.5278590000000065
                },
                {
                    "name": "F4",
                    "midi": 65,
                    "time": 66.86214000000017,
                    "velocity": 0.5433070866141733,
                    "duration": 0.5278590000000065
                },
                {
                    "name": "E5",
                    "midi": 76,
                    "time": 67.38999900000017,
                    "velocity": 0.5826771653543307,
                    "duration": 0.08797649999999635
                },
                {
                    "name": "E4",
                    "midi": 64,
                    "time": 67.38999900000017,
                    "velocity": 0.4881889763779528,
                    "duration": 0.08797649999999635
                },
                {
                    "name": "D5",
                    "midi": 74,
                    "time": 67.56595200000017,
                    "velocity": 0.6535433070866141,
                    "duration": 0.5278590000000065
                },
                {
                    "name": "D4",
                    "midi": 62,
                    "time": 67.56595200000017,
                    "velocity": 0.5511811023622047,
                    "duration": 0.5278590000000065
                },
                {
                    "name": "C5",
                    "midi": 72,
                    "time": 68.09381100000017,
                    "velocity": 0.5905511811023622,
                    "duration": 0.08797649999999635
                },
                {
                    "name": "C4",
                    "midi": 60,
                    "time": 68.09381100000017,
                    "velocity": 0.49606299212598426,
                    "duration": 0.08797649999999635
                },
                {
                    "name": "B4",
                    "midi": 71,
                    "time": 68.26976400000017,
                    "velocity": 0.6614173228346457,
                    "duration": 0.5278590000000065
                },
                {
                    "name": "B3",
                    "midi": 59,
                    "time": 68.26976400000017,
                    "velocity": 0.5590551181102362,
                    "duration": 0.5278590000000065
                },
                {
                    "name": "A4",
                    "midi": 69,
                    "time": 68.79762300000017,
                    "velocity": 0.5511811023622047,
                    "duration": 0.08797649999999635
                },
                {
                    "name": "A3",
                    "midi": 57,
                    "time": 68.79762300000017,
                    "velocity": 0.4645669291338583,
                    "duration": 0.08797649999999635
                },
                {
                    "name": "G#4",
                    "midi": 68,
                    "time": 68.97357600000016,
                    "velocity": 0.5669291338582677,
                    "duration": 0.08797649999999635
                },
                {
                    "name": "G#3",
                    "midi": 56,
                    "time": 68.97357600000016,
                    "velocity": 0.48031496062992124,
                    "duration": 0.08797649999999635
                },
                {
                    "name": "B4",
                    "midi": 71,
                    "time": 69.14952900000016,
                    "velocity": 0.6062992125984252,
                    "duration": 0.08797649999999635
                },
                {
                    "name": "B3",
                    "midi": 59,
                    "time": 69.14952900000016,
                    "velocity": 0.5118110236220472,
                    "duration": 0.08797649999999635
                },
                {
                    "name": "E5",
                    "midi": 76,
                    "time": 69.32548200000015,
                    "velocity": 0.6377952755905512,
                    "duration": 0.1759530000000069
                },
                {
                    "name": "E4",
                    "midi": 64,
                    "time": 69.32548200000015,
                    "velocity": 0.5354330708661418,
                    "duration": 0.1759530000000069
                },
                {
                    "name": "E3",
                    "midi": 52,
                    "time": 69.67738800000016,
                    "velocity": 0.5511811023622047,
                    "duration": 0.7038119999999992
                },
                {
                    "name": "E2",
                    "midi": 40,
                    "time": 69.67738800000016,
                    "velocity": 0.4645669291338583,
                    "duration": 0.7038119999999992
                },
                {
                    "name": "G#2",
                    "midi": 44,
                    "time": 69.67738800000016,
                    "velocity": 0.4645669291338583,
                    "duration": 0.7038119999999992
                },
                {
                    "name": "B2",
                    "midi": 47,
                    "time": 69.67738800000016,
                    "velocity": 0.4645669291338583,
                    "duration": 0.7038119999999992
                },
                {
                    "name": "A4",
                    "midi": 69,
                    "time": 70.38120000000016,
                    "velocity": 0.5905511811023622,
                    "duration": 0.08797649999999635
                },
                {
                    "name": "A3",
                    "midi": 57,
                    "time": 70.38120000000016,
                    "velocity": 0.5039370078740157,
                    "duration": 0.08797649999999635
                },
                {
                    "name": "C5",
                    "midi": 72,
                    "time": 70.55715300000016,
                    "velocity": 0.6299212598425197,
                    "duration": 0.08797649999999635
                },
                {
                    "name": "C4",
                    "midi": 60,
                    "time": 70.55715300000016,
                    "velocity": 0.5354330708661418,
                    "duration": 0.08797649999999635
                },
                {
                    "name": "E5",
                    "midi": 76,
                    "time": 70.73310600000015,
                    "velocity": 0.6692913385826772,
                    "duration": 0.1759530000000069
                },
                {
                    "name": "E4",
                    "midi": 64,
                    "time": 70.73310600000015,
                    "velocity": 0.5590551181102362,
                    "duration": 0.1759530000000069
                },
                {
                    "name": "E3",
                    "midi": 52,
                    "time": 71.08501200000016,
                    "velocity": 0.5511811023622047,
                    "duration": 0.7038119999999992
                },
                {
                    "name": "E2",
                    "midi": 40,
                    "time": 71.08501200000016,
                    "velocity": 0.4645669291338583,
                    "duration": 0.7038119999999992
                },
                {
                    "name": "A2",
                    "midi": 45,
                    "time": 71.08501200000016,
                    "velocity": 0.4645669291338583,
                    "duration": 0.7038119999999992
                },
                {
                    "name": "C3",
                    "midi": 48,
                    "time": 71.08501200000016,
                    "velocity": 0.4645669291338583,
                    "duration": 0.7038119999999992
                },
                {
                    "name": "F4",
                    "midi": 65,
                    "time": 71.78882400000016,
                    "velocity": 0.6692913385826772,
                    "duration": 0.3519059999999996
                },
                {
                    "name": "E4",
                    "midi": 64,
                    "time": 72.14073000000016,
                    "velocity": 0.5748031496062992,
                    "duration": 0.08797649999999635
                },
                {
                    "name": "B2",
                    "midi": 47,
                    "time": 72.49263600000016,
                    "velocity": 0.5748031496062992,
                    "duration": 0.08797649999999635
                },
                {
                    "name": "G#2",
                    "midi": 44,
                    "time": 72.49263600000016,
                    "velocity": 0.4881889763779528,
                    "duration": 0.08797649999999635
                },
                {
                    "name": "D3",
                    "midi": 50,
                    "time": 72.66858900000015,
                    "velocity": 0.5196850393700787,
                    "duration": 0.08797649999999635
                },
                {
                    "name": "B2",
                    "midi": 47,
                    "time": 72.84454200000015,
                    "velocity": 0.5748031496062992,
                    "duration": 0.08797649999999635
                },
                {
                    "name": "G#2",
                    "midi": 44,
                    "time": 72.84454200000015,
                    "velocity": 0.4881889763779528,
                    "duration": 0.08797649999999635
                },
                {
                    "name": "D3",
                    "midi": 50,
                    "time": 73.02049500000014,
                    "velocity": 0.5039370078740157,
                    "duration": 0.08797649999999635
                },
                {
                    "name": "F4",
                    "midi": 65,
                    "time": 73.19644800000013,
                    "velocity": 0.6692913385826772,
                    "duration": 0.3519059999999996
                },
                {
                    "name": "E4",
                    "midi": 64,
                    "time": 73.54835400000013,
                    "velocity": 0.5748031496062992,
                    "duration": 0.08797649999999635
                },
                {
                    "name": "A2",
                    "midi": 45,
                    "time": 73.90026000000013,
                    "velocity": 0.5748031496062992,
                    "duration": 0.08797649999999635
                },
                {
                    "name": "C3",
                    "midi": 48,
                    "time": 74.07621300000012,
                    "velocity": 0.5196850393700787,
                    "duration": 0.08797649999999635
                },
                {
                    "name": "A2",
                    "midi": 45,
                    "time": 74.25216600000012,
                    "velocity": 0.5748031496062992,
                    "duration": 0.08797649999999635
                },
                {
                    "name": "C3",
                    "midi": 48,
                    "time": 74.42811900000011,
                    "velocity": 0.5039370078740157,
                    "duration": 0.08797649999999635
                },
                {
                    "name": "F5",
                    "midi": 77,
                    "time": 74.6040720000001,
                    "velocity": 0.47244094488188976,
                    "duration": 0.19354830000000334
                },
                {
                    "name": "F4",
                    "midi": 65,
                    "time": 74.6040720000001,
                    "velocity": 0.4015748031496063,
                    "duration": 0.19354830000000334
                },
                {
                    "name": "G#4",
                    "midi": 68,
                    "time": 74.6040720000001,
                    "velocity": 0.4015748031496063,
                    "duration": 0.19354830000000334
                },
                {
                    "name": "B4",
                    "midi": 71,
                    "time": 74.6040720000001,
                    "velocity": 0.4015748031496063,
                    "duration": 0.19354830000000334
                },
                {
                    "name": "E5",
                    "midi": 76,
                    "time": 74.78002500000011,
                    "velocity": 0.47244094488188976,
                    "duration": 0.19354829999998913
                },
                {
                    "name": "E4",
                    "midi": 64,
                    "time": 74.78002500000011,
                    "velocity": 0.4015748031496063,
                    "duration": 0.19354829999998913
                },
                {
                    "name": "D5",
                    "midi": 74,
                    "time": 74.9559780000001,
                    "velocity": 0.4566929133858268,
                    "duration": 0.19354829999998913
                },
                {
                    "name": "D4",
                    "midi": 62,
                    "time": 74.9559780000001,
                    "velocity": 0.3858267716535433,
                    "duration": 0.19354829999998913
                },
                {
                    "name": "C5",
                    "midi": 72,
                    "time": 75.1319310000001,
                    "velocity": 0.4566929133858268,
                    "duration": 0.19354829999998913
                },
                {
                    "name": "C4",
                    "midi": 60,
                    "time": 75.1319310000001,
                    "velocity": 0.3858267716535433,
                    "duration": 0.19354829999998913
                },
                {
                    "name": "B4",
                    "midi": 71,
                    "time": 75.30788400000009,
                    "velocity": 0.4409448818897638,
                    "duration": 0.19354829999998913
                },
                {
                    "name": "B3",
                    "midi": 59,
                    "time": 75.30788400000009,
                    "velocity": 0.3700787401574803,
                    "duration": 0.19354829999998913
                },
                {
                    "name": "A4",
                    "midi": 69,
                    "time": 75.48383700000008,
                    "velocity": 0.4409448818897638,
                    "duration": 0.19354829999998913
                },
                {
                    "name": "A3",
                    "midi": 57,
                    "time": 75.48383700000008,
                    "velocity": 0.3700787401574803,
                    "duration": 0.19354829999998913
                },
                {
                    "name": "G#4",
                    "midi": 68,
                    "time": 75.65979000000007,
                    "velocity": 0.4330708661417323,
                    "duration": 0.19354829999998913
                },
                {
                    "name": "G#3",
                    "midi": 56,
                    "time": 75.65979000000007,
                    "velocity": 0.36220472440944884,
                    "duration": 0.19354829999998913
                },
                {
                    "name": "E4",
                    "midi": 64,
                    "time": 75.83574300000006,
                    "velocity": 0.41732283464566927,
                    "duration": 0.19354829999998913
                },
                {
                    "name": "E3",
                    "midi": 52,
                    "time": 75.83574300000006,
                    "velocity": 0.3543307086614173,
                    "duration": 0.19354829999998913
                },
                {
                    "name": "F4",
                    "midi": 65,
                    "time": 76.01169600000006,
                    "velocity": 0.4645669291338583,
                    "duration": 0.19354829999998913
                },
                {
                    "name": "F3",
                    "midi": 53,
                    "time": 76.01169600000006,
                    "velocity": 0.3937007874015748,
                    "duration": 0.19354829999998913
                },
                {
                    "name": "G#3",
                    "midi": 56,
                    "time": 76.01169600000006,
                    "velocity": 0.3937007874015748,
                    "duration": 0.19354829999998913
                },
                {
                    "name": "B3",
                    "midi": 59,
                    "time": 76.01169600000006,
                    "velocity": 0.3937007874015748,
                    "duration": 0.19354829999998913
                },
                {
                    "name": "E4",
                    "midi": 64,
                    "time": 76.18764900000005,
                    "velocity": 0.4566929133858268,
                    "duration": 0.19354829999998913
                },
                {
                    "name": "E3",
                    "midi": 52,
                    "time": 76.18764900000005,
                    "velocity": 0.3858267716535433,
                    "duration": 0.19354829999998913
                },
                {
                    "name": "D4",
                    "midi": 62,
                    "time": 76.36360200000004,
                    "velocity": 0.4409448818897638,
                    "duration": 0.19354829999998913
                },
                {
                    "name": "D3",
                    "midi": 50,
                    "time": 76.36360200000004,
                    "velocity": 0.3700787401574803,
                    "duration": 0.19354829999998913
                },
                {
                    "name": "C4",
                    "midi": 60,
                    "time": 76.53955500000004,
                    "velocity": 0.4330708661417323,
                    "duration": 0.19354829999998913
                },
                {
                    "name": "C3",
                    "midi": 48,
                    "time": 76.53955500000004,
                    "velocity": 0.36220472440944884,
                    "duration": 0.19354829999998913
                },
                {
                    "name": "B3",
                    "midi": 59,
                    "time": 76.71550800000003,
                    "velocity": 0.41732283464566927,
                    "duration": 0.19354829999998913
                },
                {
                    "name": "B2",
                    "midi": 47,
                    "time": 76.71550800000003,
                    "velocity": 0.3543307086614173,
                    "duration": 0.19354829999998913
                },
                {
                    "name": "A3",
                    "midi": 57,
                    "time": 76.89146100000002,
                    "velocity": 0.4015748031496063,
                    "duration": 0.19354829999998913
                },
                {
                    "name": "A2",
                    "midi": 45,
                    "time": 76.89146100000002,
                    "velocity": 0.33858267716535434,
                    "duration": 0.19354829999998913
                },
                {
                    "name": "G#3",
                    "midi": 56,
                    "time": 77.06741400000001,
                    "velocity": 0.3937007874015748,
                    "duration": 0.19354829999998913
                },
                {
                    "name": "G#2",
                    "midi": 44,
                    "time": 77.06741400000001,
                    "velocity": 0.33070866141732286,
                    "duration": 0.19354829999998913
                },
                {
                    "name": "E3",
                    "midi": 52,
                    "time": 77.243367,
                    "velocity": 0.3779527559055118,
                    "duration": 0.1759529999999927
                },
                {
                    "name": "E2",
                    "midi": 40,
                    "time": 77.243367,
                    "velocity": 0.31496062992125984,
                    "duration": 0.1759529999999927
                },
                {
                    "name": "A3",
                    "midi": 57,
                    "time": 77.41932,
                    "velocity": 0.5118110236220472,
                    "duration": 0.1759530000000069
                },
                {
                    "name": "A2",
                    "midi": 45,
                    "time": 77.41932,
                    "velocity": 0.4330708661417323,
                    "duration": 0.1759530000000069
                },
                {
                    "name": "C4",
                    "midi": 60,
                    "time": 77.595273,
                    "velocity": 0.4645669291338583,
                    "duration": 0.08797649999999635
                },
                {
                    "name": "C3",
                    "midi": 48,
                    "time": 77.595273,
                    "velocity": 0.3937007874015748,
                    "duration": 0.08797649999999635
                },
                {
                    "name": "G#3",
                    "midi": 56,
                    "time": 77.771226,
                    "velocity": 0.5196850393700787,
                    "duration": 0.1759530000000069
                },
                {
                    "name": "G#2",
                    "midi": 44,
                    "time": 77.771226,
                    "velocity": 0.4409448818897638,
                    "duration": 0.1759530000000069
                },
                {
                    "name": "B3",
                    "midi": 59,
                    "time": 77.947179,
                    "velocity": 0.47244094488188976,
                    "duration": 0.08797649999999635
                },
                {
                    "name": "B2",
                    "midi": 47,
                    "time": 77.947179,
                    "velocity": 0.4015748031496063,
                    "duration": 0.08797649999999635
                },
                {
                    "name": "A3",
                    "midi": 57,
                    "time": 78.123132,
                    "velocity": 0.5118110236220472,
                    "duration": 0.1759530000000069
                },
                {
                    "name": "A2",
                    "midi": 45,
                    "time": 78.123132,
                    "velocity": 0.4330708661417323,
                    "duration": 0.1759530000000069
                },
                {
                    "name": "C3",
                    "midi": 48,
                    "time": 78.123132,
                    "velocity": 0.4330708661417323,
                    "duration": 0.1759530000000069
                },
                {
                    "name": "E3",
                    "midi": 52,
                    "time": 78.123132,
                    "velocity": 0.4330708661417323,
                    "duration": 0.1759530000000069
                },
                {
                    "name": "E3",
                    "midi": 52,
                    "time": 78.47503800000001,
                    "velocity": 0.5118110236220472,
                    "duration": 0.1759530000000069
                },
                {
                    "name": "E2",
                    "midi": 40,
                    "time": 78.47503800000001,
                    "velocity": 0.4330708661417323,
                    "duration": 0.1759530000000069
                },
                {
                    "name": "G#2",
                    "midi": 44,
                    "time": 78.47503800000001,
                    "velocity": 0.4330708661417323,
                    "duration": 0.1759530000000069
                },
                {
                    "name": "B2",
                    "midi": 47,
                    "time": 78.47503800000001,
                    "velocity": 0.4330708661417323,
                    "duration": 0.1759530000000069
                },
                {
                    "name": "A3",
                    "midi": 57,
                    "time": 78.82694400000003,
                    "velocity": 0.5748031496062992,
                    "duration": 0.1759530000000069
                },
                {
                    "name": "A2",
                    "midi": 45,
                    "time": 78.82694400000003,
                    "velocity": 0.48031496062992124,
                    "duration": 0.1759530000000069
                },
                {
                    "name": "C3",
                    "midi": 48,
                    "time": 78.82694400000003,
                    "velocity": 0.48031496062992124,
                    "duration": 0.1759530000000069
                },
                {
                    "name": "E3",
                    "midi": 52,
                    "time": 78.82694400000003,
                    "velocity": 0.48031496062992124,
                    "duration": 0.1759530000000069
                },
                {
                    "name": "D3",
                    "midi": 50,
                    "time": 79.53075600000004,
                    "velocity": 0.5826771653543307,
                    "duration": 0.1759530000000069
                },
                {
                    "name": "D2",
                    "midi": 38,
                    "time": 79.53075600000004,
                    "velocity": 0.48031496062992124,
                    "duration": 0.1759530000000069
                },
                {
                    "name": "F2",
                    "midi": 41,
                    "time": 79.53075600000004,
                    "velocity": 0.48031496062992124,
                    "duration": 0.1759530000000069
                },
                {
                    "name": "A2",
                    "midi": 45,
                    "time": 79.53075600000004,
                    "velocity": 0.48031496062992124,
                    "duration": 0.1759530000000069
                },
                {
                    "name": "A2",
                    "midi": 45,
                    "time": 80.23456800000005,
                    "velocity": 0.5984251968503937,
                    "duration": 0.7038119999999992
                },
                {
                    "name": "A1",
                    "midi": 33,
                    "time": 80.23456800000005,
                    "velocity": 0.5039370078740157,
                    "duration": 0.7038119999999992
                },
                {
                    "name": "C2",
                    "midi": 36,
                    "time": 80.23456800000005,
                    "velocity": 0.5039370078740157,
                    "duration": 0.7038119999999992
                },
                {
                    "name": "E2",
                    "midi": 40,
                    "time": 80.23456800000005,
                    "velocity": 0.5039370078740157,
                    "duration": 0.7038119999999992
                },
                {
                    "name": "C#4",
                    "midi": 61,
                    "time": 82.34600400000005,
                    "velocity": 0.5433070866141733,
                    "duration": 0.1759530000000069
                },
                {
                    "name": "G#3",
                    "midi": 56,
                    "time": 83.04981600000006,
                    "velocity": 0.5433070866141733,
                    "duration": 1.319647500000002
                },
                {
                    "name": "C#4",
                    "midi": 61,
                    "time": 84.36946350000007,
                    "velocity": 0.4645669291338583,
                    "duration": 0.08797649999999635
                },
                {
                    "name": "C#3",
                    "midi": 49,
                    "time": 84.36946350000007,
                    "velocity": 0.3858267716535433,
                    "duration": 0.08797649999999635
                },
                {
                    "name": "G#3",
                    "midi": 56,
                    "time": 84.45744000000006,
                    "velocity": 0.5196850393700787,
                    "duration": 0.6158355000000029
                },
                {
                    "name": "C#4",
                    "midi": 61,
                    "time": 85.07327550000007,
                    "velocity": 0.47244094488188976,
                    "duration": 0.08797649999999635
                },
                {
                    "name": "C#3",
                    "midi": 49,
                    "time": 85.07327550000007,
                    "velocity": 0.3937007874015748,
                    "duration": 0.08797649999999635
                },
                {
                    "name": "G#3",
                    "midi": 56,
                    "time": 85.16125200000006,
                    "velocity": 0.5354330708661418,
                    "duration": 0.6158355000000029
                },
                {
                    "name": "C#4",
                    "midi": 61,
                    "time": 85.77708750000006,
                    "velocity": 0.48031496062992124,
                    "duration": 0.08797649999999635
                },
                {
                    "name": "C#3",
                    "midi": 49,
                    "time": 85.77708750000006,
                    "velocity": 0.4015748031496063,
                    "duration": 0.08797649999999635
                },
                {
                    "name": "G#3",
                    "midi": 56,
                    "time": 85.86506400000006,
                    "velocity": 0.6535433070866141,
                    "duration": 0.1759530000000069
                },
                {
                    "name": "G#2",
                    "midi": 44,
                    "time": 85.86506400000006,
                    "velocity": 0.5511811023622047,
                    "duration": 0.1759530000000069
                },
                {
                    "name": "G3",
                    "midi": 55,
                    "time": 86.21697000000007,
                    "velocity": 0.6535433070866141,
                    "duration": 0.1759530000000069
                },
                {
                    "name": "G2",
                    "midi": 43,
                    "time": 86.21697000000007,
                    "velocity": 0.5511811023622047,
                    "duration": 0.1759530000000069
                },
                {
                    "name": "F#3",
                    "midi": 54,
                    "time": 86.56887600000009,
                    "velocity": 0.6535433070866141,
                    "duration": 0.1759530000000069
                },
                {
                    "name": "F#2",
                    "midi": 42,
                    "time": 86.56887600000009,
                    "velocity": 0.5511811023622047,
                    "duration": 0.1759530000000069
                },
                {
                    "name": "F3",
                    "midi": 53,
                    "time": 86.9207820000001,
                    "velocity": 0.6535433070866141,
                    "duration": 0.1759530000000069
                },
                {
                    "name": "F2",
                    "midi": 41,
                    "time": 86.9207820000001,
                    "velocity": 0.5511811023622047,
                    "duration": 0.1759530000000069
                },
                {
                    "name": "E3",
                    "midi": 52,
                    "time": 87.27268800000012,
                    "velocity": 0.6062992125984252,
                    "duration": 0.13196474999999452
                },
                {
                    "name": "E2",
                    "midi": 40,
                    "time": 87.27268800000012,
                    "velocity": 0.5039370078740157,
                    "duration": 0.13196474999999452
                },
                {
                    "name": "A3",
                    "midi": 57,
                    "time": 88.68031200000011,
                    "velocity": 0.31496062992125984,
                    "duration": 0.1759529999999927
                },
                {
                    "name": "A4",
                    "midi": 69,
                    "time": 88.79761400000011,
                    "velocity": 0.2283464566929134,
                    "duration": 0.11730199999999513
                },
                {
                    "name": "B4",
                    "midi": 71,
                    "time": 88.9149160000001,
                    "velocity": 0.2440944881889764,
                    "duration": 0.11730199999999513
                },
                {
                    "name": "C5",
                    "midi": 72,
                    "time": 89.0322180000001,
                    "velocity": 0.25196850393700787,
                    "duration": 0.11730199999999513
                },
                {
                    "name": "B4",
                    "midi": 71,
                    "time": 89.1495200000001,
                    "velocity": 0.25984251968503935,
                    "duration": 0.11730199999999513
                },
                {
                    "name": "A4",
                    "midi": 69,
                    "time": 89.26682200000009,
                    "velocity": 0.25196850393700787,
                    "duration": 0.11730199999999513
                },
                {
                    "name": "G3",
                    "midi": 55,
                    "time": 89.38412400000009,
                    "velocity": 0.31496062992125984,
                    "duration": 0.1759529999999927
                },
                {
                    "name": "G4",
                    "midi": 67,
                    "time": 89.50142600000008,
                    "velocity": 0.25196850393700787,
                    "duration": 0.11730199999999513
                },
                {
                    "name": "A4",
                    "midi": 69,
                    "time": 89.61872800000008,
                    "velocity": 0.25984251968503935,
                    "duration": 0.11730199999999513
                },
                {
                    "name": "B4",
                    "midi": 71,
                    "time": 89.73603000000007,
                    "velocity": 0.2677165354330709,
                    "duration": 0.11730199999999513
                },
                {
                    "name": "A4",
                    "midi": 69,
                    "time": 89.85333200000007,
                    "velocity": 0.2677165354330709,
                    "duration": 0.11730199999999513
                },
                {
                    "name": "G4",
                    "midi": 67,
                    "time": 89.97063400000006,
                    "velocity": 0.2440944881889764,
                    "duration": 0.11730199999999513
                },
                {
                    "name": "F3",
                    "midi": 53,
                    "time": 90.08793600000006,
                    "velocity": 0.31496062992125984,
                    "duration": 0.1759529999999927
                },
                {
                    "name": "F4",
                    "midi": 65,
                    "time": 90.20523800000005,
                    "velocity": 0.2440944881889764,
                    "duration": 0.11730199999999513
                },
                {
                    "name": "G4",
                    "midi": 67,
                    "time": 90.32254000000005,
                    "velocity": 0.25984251968503935,
                    "duration": 0.11730199999999513
                },
                {
                    "name": "A4",
                    "midi": 69,
                    "time": 90.43984200000004,
                    "velocity": 0.2677165354330709,
                    "duration": 0.11730199999999513
                },
                {
                    "name": "G4",
                    "midi": 67,
                    "time": 90.55714400000004,
                    "velocity": 0.2677165354330709,
                    "duration": 0.11730199999999513
                },
                {
                    "name": "F4",
                    "midi": 65,
                    "time": 90.67444600000003,
                    "velocity": 0.25196850393700787,
                    "duration": 0.11730199999999513
                },
                {
                    "name": "E3",
                    "midi": 52,
                    "time": 90.79174800000003,
                    "velocity": 0.31496062992125984,
                    "duration": 0.1759529999999927
                },
                {
                    "name": "E4",
                    "midi": 64,
                    "time": 90.90905000000002,
                    "velocity": 0.2440944881889764,
                    "duration": 0.11730199999999513
                },
                {
                    "name": "F4",
                    "midi": 65,
                    "time": 91.02635200000002,
                    "velocity": 0.25196850393700787,
                    "duration": 0.11730199999999513
                },
                {
                    "name": "G#4",
                    "midi": 68,
                    "time": 91.14365400000001,
                    "velocity": 0.25984251968503935,
                    "duration": 0.11730199999999513
                },
                {
                    "name": "F4",
                    "midi": 65,
                    "time": 91.26095600000001,
                    "velocity": 0.25196850393700787,
                    "duration": 0.11730199999999513
                },
                {
                    "name": "E4",
                    "midi": 64,
                    "time": 91.378258,
                    "velocity": 0.23622047244094488,
                    "duration": 0.11730199999999513
                },
                {
                    "name": "D3",
                    "midi": 50,
                    "time": 91.49556,
                    "velocity": 0.31496062992125984,
                    "duration": 0.1759529999999927
                },
                {
                    "name": "D4",
                    "midi": 62,
                    "time": 91.61286199999999,
                    "velocity": 0.23622047244094488,
                    "duration": 0.11730199999999513
                },
                {
                    "name": "E4",
                    "midi": 64,
                    "time": 91.73016399999999,
                    "velocity": 0.2440944881889764,
                    "duration": 0.11730199999999513
                },
                {
                    "name": "F4",
                    "midi": 65,
                    "time": 91.84746599999998,
                    "velocity": 0.25196850393700787,
                    "duration": 0.11730199999999513
                },
                {
                    "name": "D4",
                    "midi": 62,
                    "time": 91.96476799999998,
                    "velocity": 0.25196850393700787,
                    "duration": 0.11730199999999513
                },
                {
                    "name": "C4",
                    "midi": 60,
                    "time": 92.08206999999997,
                    "velocity": 0.23622047244094488,
                    "duration": 0.11730199999999513
                },
                {
                    "name": "E3",
                    "midi": 52,
                    "time": 92.19937199999997,
                    "velocity": 0.33858267716535434,
                    "duration": 0.3519060000000138
                },
                {
                    "name": "B3",
                    "midi": 59,
                    "time": 92.19937199999997,
                    "velocity": 0.33858267716535434,
                    "duration": 0.1759530000000069
                },
                {
                    "name": "E4",
                    "midi": 64,
                    "time": 92.37532499999998,
                    "velocity": 0.31496062992125984,
                    "duration": 0.1759530000000069
                },
                {
                    "name": "B3",
                    "midi": 59,
                    "time": 92.55127799999998,
                    "velocity": 0.3543307086614173,
                    "duration": 0.1759530000000069
                },
                {
                    "name": "E4",
                    "midi": 64,
                    "time": 92.72723099999999,
                    "velocity": 0.31496062992125984,
                    "duration": 0.1759530000000069
                },
                {
                    "name": "E3",
                    "midi": 52,
                    "time": 92.903184,
                    "velocity": 0.33858267716535434,
                    "duration": 0.3519060000000138
                },
                {
                    "name": "B3",
                    "midi": 59,
                    "time": 92.903184,
                    "velocity": 0.33858267716535434,
                    "duration": 0.1759530000000069
                },
                {
                    "name": "E4",
                    "midi": 64,
                    "time": 93.079137,
                    "velocity": 0.31496062992125984,
                    "duration": 0.1759530000000069
                },
                {
                    "name": "B3",
                    "midi": 59,
                    "time": 93.25509000000001,
                    "velocity": 0.3543307086614173,
                    "duration": 0.1759530000000069
                },
                {
                    "name": "E4",
                    "midi": 64,
                    "time": 93.43104300000002,
                    "velocity": 0.31496062992125984,
                    "duration": 0.1759530000000069
                },
                {
                    "name": "E3",
                    "midi": 52,
                    "time": 93.60699600000002,
                    "velocity": 0.33858267716535434,
                    "duration": 0.3519059999999996
                },
                {
                    "name": "B3",
                    "midi": 59,
                    "time": 93.60699600000002,
                    "velocity": 0.33858267716535434,
                    "duration": 0.1759530000000069
                },
                {
                    "name": "E4",
                    "midi": 64,
                    "time": 93.78294900000003,
                    "velocity": 0.31496062992125984,
                    "duration": 0.08797649999999635
                },
                {
                    "name": "E3",
                    "midi": 52,
                    "time": 93.95890200000002,
                    "velocity": 0.33858267716535434,
                    "duration": 0.3519059999999996
                },
                {
                    "name": "B3",
                    "midi": 59,
                    "time": 93.95890200000002,
                    "velocity": 0.3543307086614173,
                    "duration": 0.1759530000000069
                },
                {
                    "name": "E4",
                    "midi": 64,
                    "time": 94.13485500000003,
                    "velocity": 0.31496062992125984,
                    "duration": 0.08797649999999635
                },
                {
                    "name": "B3",
                    "midi": 59,
                    "time": 94.31080800000002,
                    "velocity": 0.4409448818897638,
                    "duration": 0.08797649999999635
                },
                {
                    "name": "E3",
                    "midi": 52,
                    "time": 94.31080800000002,
                    "velocity": 0.3700787401574803,
                    "duration": 0.08797649999999635
                },
                {
                    "name": "E4",
                    "midi": 64,
                    "time": 94.66271400000002,
                    "velocity": 0.47244094488188976,
                    "duration": 0.08797649999999635
                },
                {
                    "name": "E3",
                    "midi": 52,
                    "time": 94.66271400000002,
                    "velocity": 0.4015748031496063,
                    "duration": 0.08797649999999635
                },
                {
                    "name": "G#3",
                    "midi": 56,
                    "time": 94.66271400000002,
                    "velocity": 0.4015748031496063,
                    "duration": 0.08797649999999635
                },
                {
                    "name": "B3",
                    "midi": 59,
                    "time": 94.66271400000002,
                    "velocity": 0.4015748031496063,
                    "duration": 0.08797649999999635
                },
                {
                    "name": "G#3",
                    "midi": 56,
                    "time": 95.01462000000002,
                    "velocity": 0.5354330708661418,
                    "duration": 0.08797649999999635
                },
                {
                    "name": "B3",
                    "midi": 59,
                    "time": 95.01462000000002,
                    "velocity": 0.5354330708661418,
                    "duration": 0.08797649999999635
                },
                {
                    "name": "B2",
                    "midi": 47,
                    "time": 95.01462000000002,
                    "velocity": 0.44881889763779526,
                    "duration": 0.08797649999999635
                },
                {
                    "name": "E3",
                    "midi": 52,
                    "time": 95.01462000000002,
                    "velocity": 0.44881889763779526,
                    "duration": 0.08797649999999635
                },
                {
                    "name": "G#3",
                    "midi": 56,
                    "time": 95.36652600000002,
                    "velocity": 0.5905511811023622,
                    "duration": 0.08797649999999635
                },
                {
                    "name": "G#2",
                    "midi": 44,
                    "time": 95.36652600000002,
                    "velocity": 0.49606299212598426,
                    "duration": 0.08797649999999635
                },
                {
                    "name": "B2",
                    "midi": 47,
                    "time": 95.36652600000002,
                    "velocity": 0.49606299212598426,
                    "duration": 0.08797649999999635
                },
                {
                    "name": "E3",
                    "midi": 52,
                    "time": 95.36652600000002,
                    "velocity": 0.49606299212598426,
                    "duration": 0.08797649999999635
                },
                {
                    "name": "B2",
                    "midi": 47,
                    "time": 95.71843200000002,
                    "velocity": 0.47244094488188976,
                    "duration": 0.7038119999999992
                },
                {
                    "name": "G#2",
                    "midi": 44,
                    "time": 95.71843200000002,
                    "velocity": 0.47244094488188976,
                    "duration": 0.7038119999999992
                },
                {
                    "name": "E3",
                    "midi": 52,
                    "time": 95.71843200000002,
                    "velocity": 0.5511811023622047,
                    "duration": 0.7038119999999992
                },
                {
                    "name": "E2",
                    "midi": 40,
                    "time": 95.71843200000002,
                    "velocity": 0.47244094488188976,
                    "duration": 0.7038119999999992
                },
                {
                    "name": "E4",
                    "midi": 64,
                    "time": 96.42224400000002,
                    "velocity": 0.5826771653543307,
                    "duration": 0.1759530000000069
                },
                {
                    "name": "B3",
                    "midi": 59,
                    "time": 96.42224400000002,
                    "velocity": 0.4881889763779528,
                    "duration": 0.1759530000000069
                },
                {
                    "name": "G#3",
                    "midi": 56,
                    "time": 96.42224400000002,
                    "velocity": 0.4881889763779528,
                    "duration": 0.1759530000000069
                },
                {
                    "name": "E3",
                    "midi": 52,
                    "time": 96.42224400000002,
                    "velocity": 0.4881889763779528,
                    "duration": 0.1759530000000069
                },
                {
                    "name": "E3",
                    "midi": 52,
                    "time": 96.77415000000003,
                    "velocity": 0.5275590551181102,
                    "duration": 0.11730199999999513
                },
                {
                    "name": "F#3",
                    "midi": 54,
                    "time": 96.89145200000003,
                    "velocity": 0.5590551181102362,
                    "duration": 0.11730199999999513
                },
                {
                    "name": "G#3",
                    "midi": 56,
                    "time": 97.00875400000002,
                    "velocity": 0.5905511811023622,
                    "duration": 0.11730199999999513
                },
                {
                    "name": "A3",
                    "midi": 57,
                    "time": 97.12605600000002,
                    "velocity": 0.5511811023622047,
                    "duration": 0.1759530000000069
                },
                {
                    "name": "A2",
                    "midi": 45,
                    "time": 97.12605600000002,
                    "velocity": 0.4645669291338583,
                    "duration": 0.1759530000000069
                },
                {
                    "name": "F3",
                    "midi": 53,
                    "time": 97.47796200000003,
                    "velocity": 0.4409448818897638,
                    "duration": 0.08797649999999635
                },
                {
                    "name": "F2",
                    "midi": 41,
                    "time": 97.47796200000003,
                    "velocity": 0.3700787401574803,
                    "duration": 0.08797649999999635
                },
                {
                    "name": "A3",
                    "midi": 57,
                    "time": 97.82986800000003,
                    "velocity": 0.5511811023622047,
                    "duration": 0.1759530000000069
                },
                {
                    "name": "A2",
                    "midi": 45,
                    "time": 97.82986800000003,
                    "velocity": 0.4645669291338583,
                    "duration": 0.1759530000000069
                },
                {
                    "name": "E3",
                    "midi": 52,
                    "time": 98.18177400000005,
                    "velocity": 0.4409448818897638,
                    "duration": 0.08797649999999635
                },
                {
                    "name": "E2",
                    "midi": 40,
                    "time": 98.18177400000005,
                    "velocity": 0.3700787401574803,
                    "duration": 0.08797649999999635
                },
                {
                    "name": "A3",
                    "midi": 57,
                    "time": 98.53368000000005,
                    "velocity": 0.5511811023622047,
                    "duration": 0.08797649999999635
                },
                {
                    "name": "A2",
                    "midi": 45,
                    "time": 98.53368000000005,
                    "velocity": 0.4645669291338583,
                    "duration": 0.08797649999999635
                },
                {
                    "name": "D3",
                    "midi": 50,
                    "time": 98.88558600000005,
                    "velocity": 0.48031496062992124,
                    "duration": 0.08797649999999635
                },
                {
                    "name": "D2",
                    "midi": 38,
                    "time": 98.88558600000005,
                    "velocity": 0.4015748031496063,
                    "duration": 0.08797649999999635
                },
                {
                    "name": "F2",
                    "midi": 41,
                    "time": 98.88558600000005,
                    "velocity": 0.4015748031496063,
                    "duration": 0.08797649999999635
                },
                {
                    "name": "A3",
                    "midi": 57,
                    "time": 99.23749200000005,
                    "velocity": 0.5511811023622047,
                    "duration": 0.7038119999999992
                },
                {
                    "name": "A2",
                    "midi": 45,
                    "time": 99.23749200000005,
                    "velocity": 0.4645669291338583,
                    "duration": 0.7038119999999992
                },
                {
                    "name": "E3",
                    "midi": 52,
                    "time": 99.23749200000005,
                    "velocity": 0.4645669291338583,
                    "duration": 0.7038119999999992
                },
                {
                    "name": "A4",
                    "midi": 69,
                    "time": 100.29321000000004,
                    "velocity": 0.5905511811023622,
                    "duration": 0.08797649999999635
                },
                {
                    "name": "A3",
                    "midi": 57,
                    "time": 100.29321000000004,
                    "velocity": 0.49606299212598426,
                    "duration": 0.08797649999999635
                },
                {
                    "name": "B4",
                    "midi": 71,
                    "time": 100.46916300000004,
                    "velocity": 0.6220472440944882,
                    "duration": 0.08797649999999635
                },
                {
                    "name": "B3",
                    "midi": 59,
                    "time": 100.46916300000004,
                    "velocity": 0.5275590551181102,
                    "duration": 0.08797649999999635
                },
                {
                    "name": "C5",
                    "midi": 72,
                    "time": 100.64511600000003,
                    "velocity": 0.6771653543307087,
                    "duration": 0.5278590000000065
                },
                {
                    "name": "C4",
                    "midi": 60,
                    "time": 100.64511600000003,
                    "velocity": 0.5669291338582677,
                    "duration": 0.5278590000000065
                },
                {
                    "name": "B4",
                    "midi": 71,
                    "time": 101.17297500000004,
                    "velocity": 0.5826771653543307,
                    "duration": 0.08797649999999635
                },
                {
                    "name": "B3",
                    "midi": 59,
                    "time": 101.17297500000004,
                    "velocity": 0.4881889763779528,
                    "duration": 0.08797649999999635
                },
                {
                    "name": "A4",
                    "midi": 69,
                    "time": 101.34892800000003,
                    "velocity": 0.6850393700787402,
                    "duration": 0.5278590000000065
                },
                {
                    "name": "A3",
                    "midi": 57,
                    "time": 101.34892800000003,
                    "velocity": 0.5748031496062992,
                    "duration": 0.5278590000000065
                },
                {
                    "name": "G4",
                    "midi": 67,
                    "time": 101.87678700000004,
                    "velocity": 0.5905511811023622,
                    "duration": 0.08797649999999635
                },
                {
                    "name": "G3",
                    "midi": 55,
                    "time": 101.87678700000004,
                    "velocity": 0.49606299212598426,
                    "duration": 0.08797649999999635
                },
                {
                    "name": "F4",
                    "midi": 65,
                    "time": 102.05274000000003,
                    "velocity": 0.6929133858267716,
                    "duration": 0.5278590000000065
                },
                {
                    "name": "F3",
                    "midi": 53,
                    "time": 102.05274000000003,
                    "velocity": 0.5826771653543307,
                    "duration": 0.5278590000000065
                },
                {
                    "name": "E3",
                    "midi": 52,
                    "time": 102.58059900000003,
                    "velocity": 0.5905511811023622,
                    "duration": 0.08797649999999635
                },
                {
                    "name": "E4",
                    "midi": 64,
                    "time": 102.58059900000003,
                    "velocity": 0.5905511811023622,
                    "duration": 0.08797649999999635
                },
                {
                    "name": "D4",
                    "midi": 62,
                    "time": 102.75655200000003,
                    "velocity": 0.5511811023622047,
                    "duration": 0.1759530000000069
                },
                {
                    "name": "D3",
                    "midi": 50,
                    "time": 102.75655200000003,
                    "velocity": 0.4645669291338583,
                    "duration": 0.1759530000000069
                },
                {
                    "name": "A#3",
                    "midi": 58,
                    "time": 103.10845800000004,
                    "velocity": 0.4409448818897638,
                    "duration": 0.08797649999999635
                },
                {
                    "name": "A#2",
                    "midi": 46,
                    "time": 103.10845800000004,
                    "velocity": 0.3700787401574803,
                    "duration": 0.08797649999999635
                },
                {
                    "name": "D4",
                    "midi": 62,
                    "time": 103.46036400000004,
                    "velocity": 0.5511811023622047,
                    "duration": 0.1759530000000069
                },
                {
                    "name": "D3",
                    "midi": 50,
                    "time": 103.46036400000004,
                    "velocity": 0.4645669291338583,
                    "duration": 0.1759530000000069
                },
                {
                    "name": "A3",
                    "midi": 57,
                    "time": 103.81227000000005,
                    "velocity": 0.4409448818897638,
                    "duration": 0.08797649999999635
                },
                {
                    "name": "A2",
                    "midi": 45,
                    "time": 103.81227000000005,
                    "velocity": 0.3700787401574803,
                    "duration": 0.08797649999999635
                },
                {
                    "name": "D4",
                    "midi": 62,
                    "time": 104.16417600000005,
                    "velocity": 0.5511811023622047,
                    "duration": 0.08797649999999635
                },
                {
                    "name": "D3",
                    "midi": 50,
                    "time": 104.16417600000005,
                    "velocity": 0.4645669291338583,
                    "duration": 0.08797649999999635
                },
                {
                    "name": "G3",
                    "midi": 55,
                    "time": 104.51608200000005,
                    "velocity": 0.4409448818897638,
                    "duration": 0.08797649999999635
                },
                {
                    "name": "G2",
                    "midi": 43,
                    "time": 104.51608200000005,
                    "velocity": 0.3700787401574803,
                    "duration": 0.08797649999999635
                },
                {
                    "name": "A#2",
                    "midi": 46,
                    "time": 104.51608200000005,
                    "velocity": 0.3700787401574803,
                    "duration": 0.08797649999999635
                },
                {
                    "name": "D4",
                    "midi": 62,
                    "time": 104.86798800000005,
                    "velocity": 0.5748031496062992,
                    "duration": 0.7038119999999992
                },
                {
                    "name": "D3",
                    "midi": 50,
                    "time": 104.86798800000005,
                    "velocity": 0.48031496062992124,
                    "duration": 0.7038119999999992
                },
                {
                    "name": "A3",
                    "midi": 57,
                    "time": 104.86798800000005,
                    "velocity": 0.48031496062992124,
                    "duration": 0.7038119999999992
                },
                {
                    "name": "D5",
                    "midi": 74,
                    "time": 105.92370600000005,
                    "velocity": 0.5905511811023622,
                    "duration": 0.08797649999999635
                },
                {
                    "name": "D4",
                    "midi": 62,
                    "time": 105.92370600000005,
                    "velocity": 0.49606299212598426,
                    "duration": 0.08797649999999635
                },
                {
                    "name": "E5",
                    "midi": 76,
                    "time": 106.09965900000005,
                    "velocity": 0.6220472440944882,
                    "duration": 0.08797649999999635
                },
                {
                    "name": "E4",
                    "midi": 64,
                    "time": 106.09965900000005,
                    "velocity": 0.5275590551181102,
                    "duration": 0.08797649999999635
                },
                {
                    "name": "F5",
                    "midi": 77,
                    "time": 106.27561200000004,
                    "velocity": 0.6456692913385826,
                    "duration": 0.5278590000000065
                },
                {
                    "name": "F4",
                    "midi": 65,
                    "time": 106.27561200000004,
                    "velocity": 0.5433070866141733,
                    "duration": 0.5278590000000065
                },
                {
                    "name": "E5",
                    "midi": 76,
                    "time": 106.80347100000004,
                    "velocity": 0.5826771653543307,
                    "duration": 0.08797649999999635
                },
                {
                    "name": "E4",
                    "midi": 64,
                    "time": 106.80347100000004,
                    "velocity": 0.4881889763779528,
                    "duration": 0.08797649999999635
                },
                {
                    "name": "D5",
                    "midi": 74,
                    "time": 106.97942400000004,
                    "velocity": 0.6535433070866141,
                    "duration": 0.5278590000000065
                },
                {
                    "name": "D4",
                    "midi": 62,
                    "time": 106.97942400000004,
                    "velocity": 0.5511811023622047,
                    "duration": 0.5278590000000065
                },
                {
                    "name": "C5",
                    "midi": 72,
                    "time": 107.50728300000004,
                    "velocity": 0.5905511811023622,
                    "duration": 0.08797649999999635
                },
                {
                    "name": "C4",
                    "midi": 60,
                    "time": 107.50728300000004,
                    "velocity": 0.49606299212598426,
                    "duration": 0.08797649999999635
                },
                {
                    "name": "B4",
                    "midi": 71,
                    "time": 107.68323600000004,
                    "velocity": 0.6614173228346457,
                    "duration": 0.5278590000000065
                },
                {
                    "name": "B3",
                    "midi": 59,
                    "time": 107.68323600000004,
                    "velocity": 0.5590551181102362,
                    "duration": 0.5278590000000065
                },
                {
                    "name": "A4",
                    "midi": 69,
                    "time": 108.21109500000004,
                    "velocity": 0.5511811023622047,
                    "duration": 0.08797649999999635
                },
                {
                    "name": "A3",
                    "midi": 57,
                    "time": 108.21109500000004,
                    "velocity": 0.4645669291338583,
                    "duration": 0.08797649999999635
                },
                {
                    "name": "G#4",
                    "midi": 68,
                    "time": 108.38704800000004,
                    "velocity": 0.5669291338582677,
                    "duration": 0.08797649999999635
                },
                {
                    "name": "G#3",
                    "midi": 56,
                    "time": 108.38704800000004,
                    "velocity": 0.48031496062992124,
                    "duration": 0.08797649999999635
                },
                {
                    "name": "B4",
                    "midi": 71,
                    "time": 108.56300100000003,
                    "velocity": 0.6062992125984252,
                    "duration": 0.08797649999999635
                },
                {
                    "name": "B3",
                    "midi": 59,
                    "time": 108.56300100000003,
                    "velocity": 0.5118110236220472,
                    "duration": 0.08797649999999635
                },
                {
                    "name": "E5",
                    "midi": 76,
                    "time": 108.73895400000002,
                    "velocity": 0.6377952755905512,
                    "duration": 0.1759530000000069
                },
                {
                    "name": "E4",
                    "midi": 64,
                    "time": 108.73895400000002,
                    "velocity": 0.5354330708661418,
                    "duration": 0.1759530000000069
                },
                {
                    "name": "E3",
                    "midi": 52,
                    "time": 109.09086000000003,
                    "velocity": 0.5511811023622047,
                    "duration": 0.7038119999999992
                },
                {
                    "name": "E2",
                    "midi": 40,
                    "time": 109.09086000000003,
                    "velocity": 0.4645669291338583,
                    "duration": 0.7038119999999992
                },
                {
                    "name": "G#2",
                    "midi": 44,
                    "time": 109.09086000000003,
                    "velocity": 0.4645669291338583,
                    "duration": 0.7038119999999992
                },
                {
                    "name": "B2",
                    "midi": 47,
                    "time": 109.09086000000003,
                    "velocity": 0.4645669291338583,
                    "duration": 0.7038119999999992
                },
                {
                    "name": "A4",
                    "midi": 69,
                    "time": 109.79467200000003,
                    "velocity": 0.5669291338582677,
                    "duration": 0.08797649999999635
                },
                {
                    "name": "A3",
                    "midi": 57,
                    "time": 109.79467200000003,
                    "velocity": 0.48031496062992124,
                    "duration": 0.08797649999999635
                },
                {
                    "name": "C5",
                    "midi": 72,
                    "time": 109.97062500000003,
                    "velocity": 0.6062992125984252,
                    "duration": 0.08797649999999635
                },
                {
                    "name": "C4",
                    "midi": 60,
                    "time": 109.97062500000003,
                    "velocity": 0.5118110236220472,
                    "duration": 0.08797649999999635
                },
                {
                    "name": "E5",
                    "midi": 76,
                    "time": 110.14657800000002,
                    "velocity": 0.6377952755905512,
                    "duration": 0.1759530000000069
                },
                {
                    "name": "E4",
                    "midi": 64,
                    "time": 110.14657800000002,
                    "velocity": 0.5354330708661418,
                    "duration": 0.1759530000000069
                },
                {
                    "name": "E3",
                    "midi": 52,
                    "time": 110.49848400000003,
                    "velocity": 0.5511811023622047,
                    "duration": 0.7038119999999992
                },
                {
                    "name": "E2",
                    "midi": 40,
                    "time": 110.49848400000003,
                    "velocity": 0.4645669291338583,
                    "duration": 0.7038119999999992
                },
                {
                    "name": "A2",
                    "midi": 45,
                    "time": 110.49848400000003,
                    "velocity": 0.4645669291338583,
                    "duration": 0.7038119999999992
                },
                {
                    "name": "C3",
                    "midi": 48,
                    "time": 110.49848400000003,
                    "velocity": 0.4645669291338583,
                    "duration": 0.7038119999999992
                },
                {
                    "name": "F4",
                    "midi": 65,
                    "time": 111.20229600000003,
                    "velocity": 0.6692913385826772,
                    "duration": 0.3519059999999996
                },
                {
                    "name": "E4",
                    "midi": 64,
                    "time": 111.55420200000003,
                    "velocity": 0.5748031496062992,
                    "duration": 0.08797649999999635
                },
                {
                    "name": "B2",
                    "midi": 47,
                    "time": 111.90610800000003,
                    "velocity": 0.5748031496062992,
                    "duration": 0.08797649999999635
                },
                {
                    "name": "G#2",
                    "midi": 44,
                    "time": 111.90610800000003,
                    "velocity": 0.4881889763779528,
                    "duration": 0.08797649999999635
                },
                {
                    "name": "D3",
                    "midi": 50,
                    "time": 112.08206100000002,
                    "velocity": 0.5196850393700787,
                    "duration": 0.08797649999999635
                },
                {
                    "name": "B2",
                    "midi": 47,
                    "time": 112.25801400000002,
                    "velocity": 0.5748031496062992,
                    "duration": 0.08797649999999635
                },
                {
                    "name": "G#2",
                    "midi": 44,
                    "time": 112.25801400000002,
                    "velocity": 0.4881889763779528,
                    "duration": 0.08797649999999635
                },
                {
                    "name": "D3",
                    "midi": 50,
                    "time": 112.43396700000001,
                    "velocity": 0.5039370078740157,
                    "duration": 0.08797649999999635
                },
                {
                    "name": "F4",
                    "midi": 65,
                    "time": 112.60992,
                    "velocity": 0.6692913385826772,
                    "duration": 0.3519059999999996
                },
                {
                    "name": "E4",
                    "midi": 64,
                    "time": 112.961826,
                    "velocity": 0.5748031496062992,
                    "duration": 0.08797649999999635
                },
                {
                    "name": "A2",
                    "midi": 45,
                    "time": 113.313732,
                    "velocity": 0.5748031496062992,
                    "duration": 0.08797649999999635
                },
                {
                    "name": "C3",
                    "midi": 48,
                    "time": 113.489685,
                    "velocity": 0.5196850393700787,
                    "duration": 0.08797649999999635
                },
                {
                    "name": "A2",
                    "midi": 45,
                    "time": 113.66563799999999,
                    "velocity": 0.5748031496062992,
                    "duration": 0.08797649999999635
                },
                {
                    "name": "C3",
                    "midi": 48,
                    "time": 113.84159099999998,
                    "velocity": 0.5039370078740157,
                    "duration": 0.08797649999999635
                },
                {
                    "name": "F5",
                    "midi": 77,
                    "time": 114.01754399999997,
                    "velocity": 0.47244094488188976,
                    "duration": 0.19354830000000334
                },
                {
                    "name": "F4",
                    "midi": 65,
                    "time": 114.01754399999997,
                    "velocity": 0.4015748031496063,
                    "duration": 0.19354830000000334
                },
                {
                    "name": "G#4",
                    "midi": 68,
                    "time": 114.01754399999997,
                    "velocity": 0.4015748031496063,
                    "duration": 0.19354830000000334
                },
                {
                    "name": "B4",
                    "midi": 71,
                    "time": 114.01754399999997,
                    "velocity": 0.4015748031496063,
                    "duration": 0.19354830000000334
                },
                {
                    "name": "E5",
                    "midi": 76,
                    "time": 114.19349699999998,
                    "velocity": 0.47244094488188976,
                    "duration": 0.19354829999998913
                },
                {
                    "name": "E4",
                    "midi": 64,
                    "time": 114.19349699999998,
                    "velocity": 0.4015748031496063,
                    "duration": 0.19354829999998913
                },
                {
                    "name": "D5",
                    "midi": 74,
                    "time": 114.36944999999997,
                    "velocity": 0.4566929133858268,
                    "duration": 0.19354829999998913
                },
                {
                    "name": "D4",
                    "midi": 62,
                    "time": 114.36944999999997,
                    "velocity": 0.3858267716535433,
                    "duration": 0.19354829999998913
                },
                {
                    "name": "C5",
                    "midi": 72,
                    "time": 114.54540299999996,
                    "velocity": 0.4566929133858268,
                    "duration": 0.19354829999998913
                },
                {
                    "name": "C4",
                    "midi": 60,
                    "time": 114.54540299999996,
                    "velocity": 0.3858267716535433,
                    "duration": 0.19354829999998913
                },
                {
                    "name": "B4",
                    "midi": 71,
                    "time": 114.72135599999996,
                    "velocity": 0.4409448818897638,
                    "duration": 0.19354829999998913
                },
                {
                    "name": "B3",
                    "midi": 59,
                    "time": 114.72135599999996,
                    "velocity": 0.3700787401574803,
                    "duration": 0.19354829999998913
                },
                {
                    "name": "A4",
                    "midi": 69,
                    "time": 114.89730899999995,
                    "velocity": 0.4409448818897638,
                    "duration": 0.19354829999998913
                },
                {
                    "name": "A3",
                    "midi": 57,
                    "time": 114.89730899999995,
                    "velocity": 0.3700787401574803,
                    "duration": 0.19354829999998913
                },
                {
                    "name": "G#4",
                    "midi": 68,
                    "time": 115.07326199999994,
                    "velocity": 0.4330708661417323,
                    "duration": 0.19354829999998913
                },
                {
                    "name": "G#3",
                    "midi": 56,
                    "time": 115.07326199999994,
                    "velocity": 0.36220472440944884,
                    "duration": 0.19354829999998913
                },
                {
                    "name": "E4",
                    "midi": 64,
                    "time": 115.24921499999994,
                    "velocity": 0.41732283464566927,
                    "duration": 0.19354829999998913
                },
                {
                    "name": "E3",
                    "midi": 52,
                    "time": 115.24921499999994,
                    "velocity": 0.3543307086614173,
                    "duration": 0.19354829999998913
                },
                {
                    "name": "F4",
                    "midi": 65,
                    "time": 115.42516799999993,
                    "velocity": 0.4645669291338583,
                    "duration": 0.19354829999998913
                },
                {
                    "name": "F3",
                    "midi": 53,
                    "time": 115.42516799999993,
                    "velocity": 0.3937007874015748,
                    "duration": 0.19354829999998913
                },
                {
                    "name": "G#3",
                    "midi": 56,
                    "time": 115.42516799999993,
                    "velocity": 0.3937007874015748,
                    "duration": 0.19354829999998913
                },
                {
                    "name": "B3",
                    "midi": 59,
                    "time": 115.42516799999993,
                    "velocity": 0.3937007874015748,
                    "duration": 0.19354829999998913
                },
                {
                    "name": "E4",
                    "midi": 64,
                    "time": 115.60112099999992,
                    "velocity": 0.4566929133858268,
                    "duration": 0.19354829999998913
                },
                {
                    "name": "E3",
                    "midi": 52,
                    "time": 115.60112099999992,
                    "velocity": 0.3858267716535433,
                    "duration": 0.19354829999998913
                },
                {
                    "name": "D4",
                    "midi": 62,
                    "time": 115.77707399999991,
                    "velocity": 0.4409448818897638,
                    "duration": 0.19354829999998913
                },
                {
                    "name": "D3",
                    "midi": 50,
                    "time": 115.77707399999991,
                    "velocity": 0.3700787401574803,
                    "duration": 0.19354829999998913
                },
                {
                    "name": "C4",
                    "midi": 60,
                    "time": 115.9530269999999,
                    "velocity": 0.4330708661417323,
                    "duration": 0.19354829999998913
                },
                {
                    "name": "C3",
                    "midi": 48,
                    "time": 115.9530269999999,
                    "velocity": 0.36220472440944884,
                    "duration": 0.19354829999998913
                },
                {
                    "name": "B3",
                    "midi": 59,
                    "time": 116.1289799999999,
                    "velocity": 0.41732283464566927,
                    "duration": 0.19354829999998913
                },
                {
                    "name": "B2",
                    "midi": 47,
                    "time": 116.1289799999999,
                    "velocity": 0.3543307086614173,
                    "duration": 0.19354829999998913
                },
                {
                    "name": "A3",
                    "midi": 57,
                    "time": 116.30493299999989,
                    "velocity": 0.4015748031496063,
                    "duration": 0.19354829999998913
                },
                {
                    "name": "A2",
                    "midi": 45,
                    "time": 116.30493299999989,
                    "velocity": 0.33858267716535434,
                    "duration": 0.19354829999998913
                },
                {
                    "name": "G#3",
                    "midi": 56,
                    "time": 116.48088599999988,
                    "velocity": 0.3937007874015748,
                    "duration": 0.19354829999998913
                },
                {
                    "name": "G#2",
                    "midi": 44,
                    "time": 116.48088599999988,
                    "velocity": 0.33070866141732286,
                    "duration": 0.19354829999998913
                },
                {
                    "name": "E3",
                    "midi": 52,
                    "time": 116.65683899999988,
                    "velocity": 0.3779527559055118,
                    "duration": 0.1759529999999927
                },
                {
                    "name": "E2",
                    "midi": 40,
                    "time": 116.65683899999988,
                    "velocity": 0.31496062992125984,
                    "duration": 0.1759529999999927
                },
                {
                    "name": "A3",
                    "midi": 57,
                    "time": 116.83279199999987,
                    "velocity": 0.5118110236220472,
                    "duration": 0.1759530000000069
                },
                {
                    "name": "A2",
                    "midi": 45,
                    "time": 116.83279199999987,
                    "velocity": 0.4330708661417323,
                    "duration": 0.1759530000000069
                },
                {
                    "name": "C4",
                    "midi": 60,
                    "time": 117.00874499999988,
                    "velocity": 0.4645669291338583,
                    "duration": 0.08797649999999635
                },
                {
                    "name": "C3",
                    "midi": 48,
                    "time": 117.00874499999988,
                    "velocity": 0.3937007874015748,
                    "duration": 0.08797649999999635
                },
                {
                    "name": "G#3",
                    "midi": 56,
                    "time": 117.18469799999987,
                    "velocity": 0.5196850393700787,
                    "duration": 0.1759530000000069
                },
                {
                    "name": "G#2",
                    "midi": 44,
                    "time": 117.18469799999987,
                    "velocity": 0.4409448818897638,
                    "duration": 0.1759530000000069
                },
                {
                    "name": "B3",
                    "midi": 59,
                    "time": 117.36065099999988,
                    "velocity": 0.47244094488188976,
                    "duration": 0.08797649999999635
                },
                {
                    "name": "B2",
                    "midi": 47,
                    "time": 117.36065099999988,
                    "velocity": 0.4015748031496063,
                    "duration": 0.08797649999999635
                },
                {
                    "name": "A3",
                    "midi": 57,
                    "time": 117.53660399999987,
                    "velocity": 0.5118110236220472,
                    "duration": 0.1759530000000069
                },
                {
                    "name": "A2",
                    "midi": 45,
                    "time": 117.53660399999987,
                    "velocity": 0.4330708661417323,
                    "duration": 0.1759530000000069
                },
                {
                    "name": "C3",
                    "midi": 48,
                    "time": 117.53660399999987,
                    "velocity": 0.4330708661417323,
                    "duration": 0.1759530000000069
                },
                {
                    "name": "E3",
                    "midi": 52,
                    "time": 117.53660399999987,
                    "velocity": 0.4330708661417323,
                    "duration": 0.1759530000000069
                },
                {
                    "name": "E3",
                    "midi": 52,
                    "time": 117.88850999999988,
                    "velocity": 0.5118110236220472,
                    "duration": 0.1759530000000069
                },
                {
                    "name": "E2",
                    "midi": 40,
                    "time": 117.88850999999988,
                    "velocity": 0.4330708661417323,
                    "duration": 0.1759530000000069
                },
                {
                    "name": "G#2",
                    "midi": 44,
                    "time": 117.88850999999988,
                    "velocity": 0.4330708661417323,
                    "duration": 0.1759530000000069
                },
                {
                    "name": "B2",
                    "midi": 47,
                    "time": 117.88850999999988,
                    "velocity": 0.4330708661417323,
                    "duration": 0.1759530000000069
                },
                {
                    "name": "A3",
                    "midi": 57,
                    "time": 118.2404159999999,
                    "velocity": 0.5748031496062992,
                    "duration": 0.1759530000000069
                },
                {
                    "name": "A2",
                    "midi": 45,
                    "time": 118.2404159999999,
                    "velocity": 0.48031496062992124,
                    "duration": 0.1759530000000069
                },
                {
                    "name": "C3",
                    "midi": 48,
                    "time": 118.2404159999999,
                    "velocity": 0.48031496062992124,
                    "duration": 0.1759530000000069
                },
                {
                    "name": "E3",
                    "midi": 52,
                    "time": 118.2404159999999,
                    "velocity": 0.48031496062992124,
                    "duration": 0.1759530000000069
                },
                {
                    "name": "D3",
                    "midi": 50,
                    "time": 118.94422799999991,
                    "velocity": 0.5826771653543307,
                    "duration": 0.1759530000000069
                },
                {
                    "name": "D2",
                    "midi": 38,
                    "time": 118.94422799999991,
                    "velocity": 0.48031496062992124,
                    "duration": 0.1759530000000069
                },
                {
                    "name": "F2",
                    "midi": 41,
                    "time": 118.94422799999991,
                    "velocity": 0.48031496062992124,
                    "duration": 0.1759530000000069
                },
                {
                    "name": "A2",
                    "midi": 45,
                    "time": 118.94422799999991,
                    "velocity": 0.48031496062992124,
                    "duration": 0.1759530000000069
                },
                {
                    "name": "A2",
                    "midi": 45,
                    "time": 119.64803999999992,
                    "velocity": 0.5984251968503937,
                    "duration": 0.7038119999999992
                },
                {
                    "name": "A1",
                    "midi": 33,
                    "time": 119.64803999999992,
                    "velocity": 0.5039370078740157,
                    "duration": 0.7038119999999992
                },
                {
                    "name": "C2",
                    "midi": 36,
                    "time": 119.64803999999992,
                    "velocity": 0.5039370078740157,
                    "duration": 0.7038119999999992
                },
                {
                    "name": "E2",
                    "midi": 40,
                    "time": 119.64803999999992,
                    "velocity": 0.5039370078740157,
                    "duration": 0.7038119999999992
                },
                {
                    "name": "C#4",
                    "midi": 61,
                    "time": 121.40756999999992,
                    "velocity": 0.2677165354330709,
                    "duration": 0.1759530000000069
                },
                {
                    "name": "E3",
                    "midi": 52,
                    "time": 121.40756999999992,
                    "velocity": 0.2677165354330709,
                    "duration": 0.3519060000000138
                },
                {
                    "name": "E4",
                    "midi": 64,
                    "time": 121.58352299999993,
                    "velocity": 0.2677165354330709,
                    "duration": 0.1759530000000069
                },
                {
                    "name": "A2",
                    "midi": 45,
                    "time": 121.75947599999994,
                    "velocity": 0.3228346456692913,
                    "duration": 0.08797649999999635
                },
                {
                    "name": "C#4",
                    "midi": 61,
                    "time": 122.81519399999993,
                    "velocity": 0.3228346456692913,
                    "duration": 0.1759530000000069
                },
                {
                    "name": "E3",
                    "midi": 52,
                    "time": 122.81519399999993,
                    "velocity": 0.3228346456692913,
                    "duration": 0.3519060000000138
                },
                {
                    "name": "E4",
                    "midi": 64,
                    "time": 122.99114699999994,
                    "velocity": 0.3228346456692913,
                    "duration": 0.1759530000000069
                },
                {
                    "name": "A2",
                    "midi": 45,
                    "time": 123.16709999999995,
                    "velocity": 0.3858267716535433,
                    "duration": 0.08797649999999635
                },
                {
                    "name": "B4",
                    "midi": 71,
                    "time": 123.51900599999995,
                    "velocity": 0.2677165354330709,
                    "duration": 0.1759530000000069
                },
                {
                    "name": "C#4",
                    "midi": 61,
                    "time": 123.51900599999995,
                    "velocity": 0.2204724409448819,
                    "duration": 0.1759530000000069
                },
                {
                    "name": "F4",
                    "midi": 65,
                    "time": 123.51900599999995,
                    "velocity": 0.2204724409448819,
                    "duration": 0.1759530000000069
                },
                {
                    "name": "A4",
                    "midi": 69,
                    "time": 123.87091199999996,
                    "velocity": 0.30708661417322836,
                    "duration": 0.1759530000000069
                },
                {
                    "name": "F#4",
                    "midi": 66,
                    "time": 123.87091199999996,
                    "velocity": 0.25984251968503935,
                    "duration": 0.1759530000000069
                },
                {
                    "name": "B4",
                    "midi": 71,
                    "time": 124.22281799999998,
                    "velocity": 0.28346456692913385,
                    "duration": 0.1759530000000069
                },
                {
                    "name": "C#4",
                    "midi": 61,
                    "time": 124.22281799999998,
                    "velocity": 0.23622047244094488,
                    "duration": 0.1759530000000069
                },
                {
                    "name": "G#4",
                    "midi": 68,
                    "time": 124.22281799999998,
                    "velocity": 0.23622047244094488,
                    "duration": 0.1759530000000069
                },
                {
                    "name": "A4",
                    "midi": 69,
                    "time": 124.57472399999999,
                    "velocity": 0.3228346456692913,
                    "duration": 0.1759530000000069
                },
                {
                    "name": "F#4",
                    "midi": 66,
                    "time": 124.57472399999999,
                    "velocity": 0.2677165354330709,
                    "duration": 0.1759530000000069
                },
                {
                    "name": "B4",
                    "midi": 71,
                    "time": 124.92663,
                    "velocity": 0.29133858267716534,
                    "duration": 0.1759530000000069
                },
                {
                    "name": "C#4",
                    "midi": 61,
                    "time": 124.92663,
                    "velocity": 0.2440944881889764,
                    "duration": 0.1759530000000069
                },
                {
                    "name": "G#4",
                    "midi": 68,
                    "time": 124.92663,
                    "velocity": 0.2440944881889764,
                    "duration": 0.1759530000000069
                },
                {
                    "name": "A4",
                    "midi": 69,
                    "time": 125.27853600000002,
                    "velocity": 0.31496062992125984,
                    "duration": 0.1759530000000069
                },
                {
                    "name": "F#4",
                    "midi": 66,
                    "time": 125.27853600000002,
                    "velocity": 0.2677165354330709,
                    "duration": 0.1759530000000069
                },
                {
                    "name": "A3",
                    "midi": 57,
                    "time": 125.63044200000003,
                    "velocity": 0.3228346456692913,
                    "duration": 0.1759530000000069
                },
                {
                    "name": "C#4",
                    "midi": 61,
                    "time": 125.80639500000004,
                    "velocity": 0.3228346456692913,
                    "duration": 0.1759530000000069
                },
                {
                    "name": "F#3",
                    "midi": 54,
                    "time": 125.98234800000004,
                    "velocity": 0.3858267716535433,
                    "duration": 0.08797649999999635
                },
                {
                    "name": "G5",
                    "midi": 79,
                    "time": 126.33425400000004,
                    "velocity": 0.2677165354330709,
                    "duration": 0.1759530000000069
                },
                {
                    "name": "A4",
                    "midi": 69,
                    "time": 126.33425400000004,
                    "velocity": 0.2204724409448819,
                    "duration": 0.1759530000000069
                },
                {
                    "name": "C#5",
                    "midi": 73,
                    "time": 126.33425400000004,
                    "velocity": 0.2204724409448819,
                    "duration": 0.1759530000000069
                },
                {
                    "name": "F#5",
                    "midi": 78,
                    "time": 126.68616000000006,
                    "velocity": 0.30708661417322836,
                    "duration": 0.1759530000000069
                },
                {
                    "name": "D5",
                    "midi": 74,
                    "time": 126.68616000000006,
                    "velocity": 0.25984251968503935,
                    "duration": 0.1759530000000069
                },
                {
                    "name": "G5",
                    "midi": 79,
                    "time": 127.03806600000007,
                    "velocity": 0.28346456692913385,
                    "duration": 0.1759530000000069
                },
                {
                    "name": "A4",
                    "midi": 69,
                    "time": 127.03806600000007,
                    "velocity": 0.23622047244094488,
                    "duration": 0.1759530000000069
                },
                {
                    "name": "E5",
                    "midi": 76,
                    "time": 127.03806600000007,
                    "velocity": 0.23622047244094488,
                    "duration": 0.1759530000000069
                },
                {
                    "name": "F#5",
                    "midi": 78,
                    "time": 127.38997200000009,
                    "velocity": 0.3228346456692913,
                    "duration": 0.1759530000000069
                },
                {
                    "name": "D5",
                    "midi": 74,
                    "time": 127.38997200000009,
                    "velocity": 0.2677165354330709,
                    "duration": 0.1759530000000069
                },
                {
                    "name": "G5",
                    "midi": 79,
                    "time": 127.7418780000001,
                    "velocity": 0.29133858267716534,
                    "duration": 0.1759530000000069
                },
                {
                    "name": "A4",
                    "midi": 69,
                    "time": 127.7418780000001,
                    "velocity": 0.2440944881889764,
                    "duration": 0.1759530000000069
                },
                {
                    "name": "E5",
                    "midi": 76,
                    "time": 127.7418780000001,
                    "velocity": 0.2440944881889764,
                    "duration": 0.1759530000000069
                },
                {
                    "name": "F#5",
                    "midi": 78,
                    "time": 128.0937840000001,
                    "velocity": 0.31496062992125984,
                    "duration": 0.1759529999999927
                },
                {
                    "name": "D5",
                    "midi": 74,
                    "time": 128.0937840000001,
                    "velocity": 0.2677165354330709,
                    "duration": 0.1759529999999927
                },
                {
                    "name": "F#4",
                    "midi": 66,
                    "time": 128.4456900000001,
                    "velocity": 0.3228346456692913,
                    "duration": 0.1759529999999927
                },
                {
                    "name": "A4",
                    "midi": 69,
                    "time": 128.6216430000001,
                    "velocity": 0.3228346456692913,
                    "duration": 0.1759529999999927
                },
                {
                    "name": "D4",
                    "midi": 62,
                    "time": 128.79759600000008,
                    "velocity": 0.3858267716535433,
                    "duration": 0.08797649999999635
                },
                {
                    "name": "D4",
                    "midi": 62,
                    "time": 129.85331400000007,
                    "velocity": 0.2677165354330709,
                    "duration": 0.1759529999999927
                },
                {
                    "name": "F#3",
                    "midi": 54,
                    "time": 129.85331400000007,
                    "velocity": 0.2677165354330709,
                    "duration": 0.3519059999999854
                },
                {
                    "name": "F#4",
                    "midi": 66,
                    "time": 130.02926700000006,
                    "velocity": 0.2677165354330709,
                    "duration": 0.1759529999999927
                },
                {
                    "name": "B2",
                    "midi": 47,
                    "time": 130.20522000000005,
                    "velocity": 0.3228346456692913,
                    "duration": 0.08797649999999635
                },
                {
                    "name": "D4",
                    "midi": 62,
                    "time": 131.26093800000004,
                    "velocity": 0.3228346456692913,
                    "duration": 0.1759529999999927
                },
                {
                    "name": "F#3",
                    "midi": 54,
                    "time": 131.26093800000004,
                    "velocity": 0.3228346456692913,
                    "duration": 0.3519059999999854
                },
                {
                    "name": "F#4",
                    "midi": 66,
                    "time": 131.43689100000003,
                    "velocity": 0.3228346456692913,
                    "duration": 0.1759529999999927
                },
                {
                    "name": "B2",
                    "midi": 47,
                    "time": 131.61284400000002,
                    "velocity": 0.3858267716535433,
                    "duration": 0.08797649999999635
                },
                {
                    "name": "E3",
                    "midi": 52,
                    "time": 132.31665600000002,
                    "velocity": 0.3228346456692913,
                    "duration": 0.3519060000000138
                },
                {
                    "name": "A4",
                    "midi": 69,
                    "time": 132.66856200000004,
                    "velocity": 0.28346456692913385,
                    "duration": 0.08797649999999635
                },
                {
                    "name": "E4",
                    "midi": 64,
                    "time": 132.66856200000004,
                    "velocity": 0.23622047244094488,
                    "duration": 0.08797649999999635
                },
                {
                    "name": "C#4",
                    "midi": 61,
                    "time": 132.66856200000004,
                    "velocity": 0.23622047244094488,
                    "duration": 0.08797649999999635
                },
                {
                    "name": "E4",
                    "midi": 64,
                    "time": 133.02046800000002,
                    "velocity": 0.3228346456692913,
                    "duration": 0.3519060000000138
                },
                {
                    "name": "G#5",
                    "midi": 80,
                    "time": 133.37237400000004,
                    "velocity": 0.28346456692913385,
                    "duration": 0.08797649999999635
                },
                {
                    "name": "E5",
                    "midi": 76,
                    "time": 133.37237400000004,
                    "velocity": 0.23622047244094488,
                    "duration": 0.08797649999999635
                },
                {
                    "name": "B4",
                    "midi": 71,
                    "time": 133.37237400000004,
                    "velocity": 0.23622047244094488,
                    "duration": 0.08797649999999635
                },
                {
                    "name": "A5",
                    "midi": 81,
                    "time": 133.72428000000002,
                    "velocity": 0.3228346456692913,
                    "duration": 0.08797649999999635
                },
                {
                    "name": "A4",
                    "midi": 69,
                    "time": 133.72428000000002,
                    "velocity": 0.2677165354330709,
                    "duration": 0.08797649999999635
                },
                {
                    "name": "E5",
                    "midi": 76,
                    "time": 133.72428000000002,
                    "velocity": 0.2677165354330709,
                    "duration": 0.08797649999999635
                },
                {
                    "name": "G#5",
                    "midi": 80,
                    "time": 134.076186,
                    "velocity": 0.29133858267716534,
                    "duration": 0.08797649999999635
                },
                {
                    "name": "E5",
                    "midi": 76,
                    "time": 134.076186,
                    "velocity": 0.2440944881889764,
                    "duration": 0.08797649999999635
                },
                {
                    "name": "A5",
                    "midi": 81,
                    "time": 134.428092,
                    "velocity": 0.3228346456692913,
                    "duration": 0.08797649999999635
                },
                {
                    "name": "A4",
                    "midi": 69,
                    "time": 134.428092,
                    "velocity": 0.2677165354330709,
                    "duration": 0.08797649999999635
                },
                {
                    "name": "E5",
                    "midi": 76,
                    "time": 134.428092,
                    "velocity": 0.2677165354330709,
                    "duration": 0.08797649999999635
                },
                {
                    "name": "C#4",
                    "midi": 61,
                    "time": 134.77999799999998,
                    "velocity": 0.3228346456692913,
                    "duration": 0.13196475000000873
                },
                {
                    "name": "E4",
                    "midi": 64,
                    "time": 134.955951,
                    "velocity": 0.3228346456692913,
                    "duration": 0.13196475000000873
                },
                {
                    "name": "A3",
                    "midi": 57,
                    "time": 135.13190400000002,
                    "velocity": 0.3228346456692913,
                    "duration": 0.7038119999999992
                },
                {
                    "name": "A2",
                    "midi": 45,
                    "time": 135.48381000000003,
                    "velocity": 0.1732283464566929,
                    "duration": 0.1759529999999927
                },
                {
                    "name": "E3",
                    "midi": 52,
                    "time": 135.48381000000003,
                    "velocity": 0.23622047244094488,
                    "duration": 0.1759529999999927
                },
                {
                    "name": "A2",
                    "midi": 45,
                    "time": 135.83571600000002,
                    "velocity": 0.1732283464566929,
                    "duration": 0.1759529999999927
                },
                {
                    "name": "E3",
                    "midi": 52,
                    "time": 135.83571600000002,
                    "velocity": 0.23622047244094488,
                    "duration": 0.1759529999999927
                },
                {
                    "name": "C#4",
                    "midi": 61,
                    "time": 136.187622,
                    "velocity": 0.3228346456692913,
                    "duration": 0.13196475000000873
                },
                {
                    "name": "E4",
                    "midi": 64,
                    "time": 136.36357500000003,
                    "velocity": 0.3228346456692913,
                    "duration": 0.13196475000000873
                },
                {
                    "name": "A3",
                    "midi": 57,
                    "time": 136.53952800000005,
                    "velocity": 0.3228346456692913,
                    "duration": 0.7038119999999992
                },
                {
                    "name": "A2",
                    "midi": 45,
                    "time": 136.89143400000006,
                    "velocity": 0.1732283464566929,
                    "duration": 0.1759529999999927
                },
                {
                    "name": "E3",
                    "midi": 52,
                    "time": 136.89143400000006,
                    "velocity": 0.23622047244094488,
                    "duration": 0.1759529999999927
                },
                {
                    "name": "A2",
                    "midi": 45,
                    "time": 137.24334000000005,
                    "velocity": 0.1732283464566929,
                    "duration": 0.1759529999999927
                },
                {
                    "name": "E3",
                    "midi": 52,
                    "time": 137.24334000000005,
                    "velocity": 0.23622047244094488,
                    "duration": 0.1759529999999927
                },
                {
                    "name": "B4",
                    "midi": 71,
                    "time": 137.59524600000003,
                    "velocity": 0.2677165354330709,
                    "duration": 0.1759529999999927
                },
                {
                    "name": "C#4",
                    "midi": 61,
                    "time": 137.59524600000003,
                    "velocity": 0.2204724409448819,
                    "duration": 0.1759529999999927
                },
                {
                    "name": "F4",
                    "midi": 65,
                    "time": 137.59524600000003,
                    "velocity": 0.2204724409448819,
                    "duration": 0.1759529999999927
                },
                {
                    "name": "A4",
                    "midi": 69,
                    "time": 137.94715200000002,
                    "velocity": 0.30708661417322836,
                    "duration": 0.1759529999999927
                },
                {
                    "name": "F#4",
                    "midi": 66,
                    "time": 137.94715200000002,
                    "velocity": 0.25984251968503935,
                    "duration": 0.1759529999999927
                },
                {
                    "name": "B4",
                    "midi": 71,
                    "time": 138.299058,
                    "velocity": 0.28346456692913385,
                    "duration": 0.1759529999999927
                },
                {
                    "name": "C#4",
                    "midi": 61,
                    "time": 138.299058,
                    "velocity": 0.23622047244094488,
                    "duration": 0.1759529999999927
                },
                {
                    "name": "G#4",
                    "midi": 68,
                    "time": 138.299058,
                    "velocity": 0.23622047244094488,
                    "duration": 0.1759529999999927
                },
                {
                    "name": "A4",
                    "midi": 69,
                    "time": 138.650964,
                    "velocity": 0.3228346456692913,
                    "duration": 0.1759529999999927
                },
                {
                    "name": "F#4",
                    "midi": 66,
                    "time": 138.650964,
                    "velocity": 0.2677165354330709,
                    "duration": 0.1759529999999927
                },
                {
                    "name": "B4",
                    "midi": 71,
                    "time": 139.00286999999997,
                    "velocity": 0.29133858267716534,
                    "duration": 0.1759529999999927
                },
                {
                    "name": "C#4",
                    "midi": 61,
                    "time": 139.00286999999997,
                    "velocity": 0.2440944881889764,
                    "duration": 0.1759529999999927
                },
                {
                    "name": "G#4",
                    "midi": 68,
                    "time": 139.00286999999997,
                    "velocity": 0.2440944881889764,
                    "duration": 0.1759529999999927
                },
                {
                    "name": "A4",
                    "midi": 69,
                    "time": 139.35477599999996,
                    "velocity": 0.31496062992125984,
                    "duration": 0.08797649999999635
                },
                {
                    "name": "F#4",
                    "midi": 66,
                    "time": 139.35477599999996,
                    "velocity": 0.2677165354330709,
                    "duration": 0.08797649999999635
                },
                {
                    "name": "G5",
                    "midi": 79,
                    "time": 140.41049399999994,
                    "velocity": 0.2677165354330709,
                    "duration": 0.1759529999999927
                },
                {
                    "name": "A4",
                    "midi": 69,
                    "time": 140.41049399999994,
                    "velocity": 0.2204724409448819,
                    "duration": 0.1759529999999927
                },
                {
                    "name": "C#5",
                    "midi": 73,
                    "time": 140.41049399999994,
                    "velocity": 0.2204724409448819,
                    "duration": 0.1759529999999927
                },
                {
                    "name": "F#5",
                    "midi": 78,
                    "time": 140.76239999999993,
                    "velocity": 0.30708661417322836,
                    "duration": 0.1759529999999927
                },
                {
                    "name": "D5",
                    "midi": 74,
                    "time": 140.76239999999993,
                    "velocity": 0.25984251968503935,
                    "duration": 0.1759529999999927
                },
                {
                    "name": "G5",
                    "midi": 79,
                    "time": 141.1143059999999,
                    "velocity": 0.28346456692913385,
                    "duration": 0.1759529999999927
                },
                {
                    "name": "A4",
                    "midi": 69,
                    "time": 141.1143059999999,
                    "velocity": 0.23622047244094488,
                    "duration": 0.1759529999999927
                },
                {
                    "name": "E5",
                    "midi": 76,
                    "time": 141.1143059999999,
                    "velocity": 0.23622047244094488,
                    "duration": 0.1759529999999927
                },
                {
                    "name": "F#5",
                    "midi": 78,
                    "time": 141.4662119999999,
                    "velocity": 0.3228346456692913,
                    "duration": 0.1759529999999927
                },
                {
                    "name": "D5",
                    "midi": 74,
                    "time": 141.4662119999999,
                    "velocity": 0.2677165354330709,
                    "duration": 0.1759529999999927
                },
                {
                    "name": "G5",
                    "midi": 79,
                    "time": 141.81811799999988,
                    "velocity": 0.29133858267716534,
                    "duration": 0.1759529999999927
                },
                {
                    "name": "A4",
                    "midi": 69,
                    "time": 141.81811799999988,
                    "velocity": 0.2440944881889764,
                    "duration": 0.1759529999999927
                },
                {
                    "name": "E5",
                    "midi": 76,
                    "time": 141.81811799999988,
                    "velocity": 0.2440944881889764,
                    "duration": 0.1759529999999927
                },
                {
                    "name": "F#5",
                    "midi": 78,
                    "time": 142.17002399999987,
                    "velocity": 0.31496062992125984,
                    "duration": 0.08797649999999635
                },
                {
                    "name": "D5",
                    "midi": 74,
                    "time": 142.17002399999987,
                    "velocity": 0.2677165354330709,
                    "duration": 0.08797649999999635
                },
                {
                    "name": "D4",
                    "midi": 62,
                    "time": 143.22574199999985,
                    "velocity": 0.3228346456692913,
                    "duration": 0.13196475000000873
                },
                {
                    "name": "F#4",
                    "midi": 66,
                    "time": 143.40169499999988,
                    "velocity": 0.3228346456692913,
                    "duration": 0.13196475000000873
                },
                {
                    "name": "B3",
                    "midi": 59,
                    "time": 143.5776479999999,
                    "velocity": 0.3228346456692913,
                    "duration": 0.7038119999999992
                },
                {
                    "name": "B2",
                    "midi": 47,
                    "time": 143.9295539999999,
                    "velocity": 0.1732283464566929,
                    "duration": 0.1759529999999927
                },
                {
                    "name": "F#3",
                    "midi": 54,
                    "time": 143.9295539999999,
                    "velocity": 0.23622047244094488,
                    "duration": 0.1759529999999927
                },
                {
                    "name": "B2",
                    "midi": 47,
                    "time": 144.2814599999999,
                    "velocity": 0.1732283464566929,
                    "duration": 0.1759529999999927
                },
                {
                    "name": "F#3",
                    "midi": 54,
                    "time": 144.2814599999999,
                    "velocity": 0.23622047244094488,
                    "duration": 0.1759529999999927
                },
                {
                    "name": "D4",
                    "midi": 62,
                    "time": 144.63336599999988,
                    "velocity": 0.3228346456692913,
                    "duration": 0.13196475000000873
                },
                {
                    "name": "F#4",
                    "midi": 66,
                    "time": 144.8093189999999,
                    "velocity": 0.3228346456692913,
                    "duration": 0.13196475000000873
                },
                {
                    "name": "B3",
                    "midi": 59,
                    "time": 144.98527199999992,
                    "velocity": 0.3228346456692913,
                    "duration": 0.7038119999999992
                },
                {
                    "name": "B2",
                    "midi": 47,
                    "time": 145.33717799999994,
                    "velocity": 0.1732283464566929,
                    "duration": 0.1759529999999927
                },
                {
                    "name": "F#3",
                    "midi": 54,
                    "time": 145.33717799999994,
                    "velocity": 0.23622047244094488,
                    "duration": 0.1759529999999927
                },
                {
                    "name": "B2",
                    "midi": 47,
                    "time": 145.68908399999992,
                    "velocity": 0.1732283464566929,
                    "duration": 0.1759529999999927
                },
                {
                    "name": "F#3",
                    "midi": 54,
                    "time": 145.68908399999992,
                    "velocity": 0.23622047244094488,
                    "duration": 0.1759529999999927
                },
                {
                    "name": "E2",
                    "midi": 40,
                    "time": 146.39289599999992,
                    "velocity": 0.28346456692913385,
                    "duration": 0.08797649999999635
                },
                {
                    "name": "E3",
                    "midi": 52,
                    "time": 146.39289599999992,
                    "velocity": 0.3228346456692913,
                    "duration": 0.08797649999999635
                },
                {
                    "name": "E4",
                    "midi": 64,
                    "time": 146.7448019999999,
                    "velocity": 0.28346456692913385,
                    "duration": 0.08797649999999635
                },
                {
                    "name": "C#4",
                    "midi": 61,
                    "time": 146.7448019999999,
                    "velocity": 0.23622047244094488,
                    "duration": 0.08797649999999635
                },
                {
                    "name": "A3",
                    "midi": 57,
                    "time": 146.7448019999999,
                    "velocity": 0.23622047244094488,
                    "duration": 0.08797649999999635
                },
                {
                    "name": "E3",
                    "midi": 52,
                    "time": 147.0967079999999,
                    "velocity": 0.3228346456692913,
                    "duration": 0.08797649999999635
                },
                {
                    "name": "G#4",
                    "midi": 68,
                    "time": 147.44861399999988,
                    "velocity": 0.28346456692913385,
                    "duration": 0.08797649999999635
                },
                {
                    "name": "E4",
                    "midi": 64,
                    "time": 147.44861399999988,
                    "velocity": 0.23622047244094488,
                    "duration": 0.08797649999999635
                },
                {
                    "name": "B3",
                    "midi": 59,
                    "time": 147.44861399999988,
                    "velocity": 0.23622047244094488,
                    "duration": 0.08797649999999635
                },
                {
                    "name": "C#4",
                    "midi": 61,
                    "time": 147.80051999999986,
                    "velocity": 0.2677165354330709,
                    "duration": 0.08797649999999635
                },
                {
                    "name": "A4",
                    "midi": 69,
                    "time": 147.80051999999986,
                    "velocity": 0.3228346456692913,
                    "duration": 0.08797649999999635
                },
                {
                    "name": "A3",
                    "midi": 57,
                    "time": 147.80051999999986,
                    "velocity": 0.2677165354330709,
                    "duration": 0.08797649999999635
                },
                {
                    "name": "E4",
                    "midi": 64,
                    "time": 147.80051999999986,
                    "velocity": 0.2677165354330709,
                    "duration": 0.08797649999999635
                },
                {
                    "name": "G#4",
                    "midi": 68,
                    "time": 148.15242599999985,
                    "velocity": 0.29133858267716534,
                    "duration": 0.08797649999999635
                },
                {
                    "name": "E4",
                    "midi": 64,
                    "time": 148.15242599999985,
                    "velocity": 0.2440944881889764,
                    "duration": 0.08797649999999635
                },
                {
                    "name": "C#4",
                    "midi": 61,
                    "time": 148.50433199999983,
                    "velocity": 0.2677165354330709,
                    "duration": 0.08797649999999635
                },
                {
                    "name": "A4",
                    "midi": 69,
                    "time": 148.50433199999983,
                    "velocity": 0.3228346456692913,
                    "duration": 0.08797649999999635
                },
                {
                    "name": "A3",
                    "midi": 57,
                    "time": 148.50433199999983,
                    "velocity": 0.2677165354330709,
                    "duration": 0.08797649999999635
                },
                {
                    "name": "E4",
                    "midi": 64,
                    "time": 148.50433199999983,
                    "velocity": 0.2677165354330709,
                    "duration": 0.08797649999999635
                },
                {
                    "name": "A2",
                    "midi": 45,
                    "time": 148.85623799999982,
                    "velocity": 0.5433070866141733,
                    "duration": 0.13196475000000873
                },
                {
                    "name": "A1",
                    "midi": 33,
                    "time": 148.85623799999982,
                    "velocity": 0.4566929133858268,
                    "duration": 0.13196475000000873
                },
                {
                    "name": "G#2",
                    "midi": 44,
                    "time": 149.20814399999983,
                    "velocity": 0.5826771653543307,
                    "duration": 0.13196475000000873
                },
                {
                    "name": "G#1",
                    "midi": 32,
                    "time": 149.20814399999983,
                    "velocity": 0.4881889763779528,
                    "duration": 0.13196475000000873
                },
                {
                    "name": "F2",
                    "midi": 41,
                    "time": 149.56004999999985,
                    "velocity": 0.5433070866141733,
                    "duration": 0.13196475000000873
                },
                {
                    "name": "F1",
                    "midi": 29,
                    "time": 149.56004999999985,
                    "velocity": 0.4566929133858268,
                    "duration": 0.13196475000000873
                },
                {
                    "name": "E2",
                    "midi": 40,
                    "time": 149.91195599999986,
                    "velocity": 0.5826771653543307,
                    "duration": 0.13196475000000873
                },
                {
                    "name": "E1",
                    "midi": 28,
                    "time": 149.91195599999986,
                    "velocity": 0.4881889763779528,
                    "duration": 0.13196475000000873
                },
                {
                    "name": "D2",
                    "midi": 38,
                    "time": 150.26386199999988,
                    "velocity": 0.5433070866141733,
                    "duration": 0.13196475000000873
                },
                {
                    "name": "D1",
                    "midi": 26,
                    "time": 150.26386199999988,
                    "velocity": 0.4566929133858268,
                    "duration": 0.13196475000000873
                },
                {
                    "name": "C#2",
                    "midi": 37,
                    "time": 150.6157679999999,
                    "velocity": 0.6220472440944882,
                    "duration": 0.5278590000000065
                },
                {
                    "name": "C#1",
                    "midi": 25,
                    "time": 150.6157679999999,
                    "velocity": 0.5118110236220472,
                    "duration": 0.5278590000000065
                },
                {
                    "name": "D2",
                    "midi": 38,
                    "time": 151.1436269999999,
                    "velocity": 0.5433070866141733,
                    "duration": 0.1759529999999927
                },
                {
                    "name": "D1",
                    "midi": 26,
                    "time": 151.1436269999999,
                    "velocity": 0.4566929133858268,
                    "duration": 0.1759529999999927
                },
                {
                    "name": "E2",
                    "midi": 40,
                    "time": 151.3195799999999,
                    "velocity": 0.6299212598425197,
                    "duration": 0.1759529999999927
                },
                {
                    "name": "E1",
                    "midi": 28,
                    "time": 151.3195799999999,
                    "velocity": 0.5196850393700787,
                    "duration": 0.1759529999999927
                },
                {
                    "name": "A2",
                    "midi": 45,
                    "time": 151.8474389999999,
                    "velocity": 0.5748031496062992,
                    "duration": 0.08797649999999635
                },
                {
                    "name": "A1",
                    "midi": 33,
                    "time": 151.8474389999999,
                    "velocity": 0.47244094488188976,
                    "duration": 0.08797649999999635
                },
                {
                    "name": "E2",
                    "midi": 40,
                    "time": 152.0233919999999,
                    "velocity": 0.6299212598425197,
                    "duration": 0.5278590000000065
                },
                {
                    "name": "E1",
                    "midi": 28,
                    "time": 152.0233919999999,
                    "velocity": 0.5196850393700787,
                    "duration": 0.5278590000000065
                },
                {
                    "name": "A2",
                    "midi": 45,
                    "time": 152.5512509999999,
                    "velocity": 0.5433070866141733,
                    "duration": 0.08797649999999635
                },
                {
                    "name": "A1",
                    "midi": 33,
                    "time": 152.5512509999999,
                    "velocity": 0.4566929133858268,
                    "duration": 0.08797649999999635
                },
                {
                    "name": "E2",
                    "midi": 40,
                    "time": 152.7272039999999,
                    "velocity": 0.6141732283464567,
                    "duration": 0.5278590000000065
                },
                {
                    "name": "E1",
                    "midi": 28,
                    "time": 152.7272039999999,
                    "velocity": 0.5118110236220472,
                    "duration": 0.5278590000000065
                },
                {
                    "name": "A2",
                    "midi": 45,
                    "time": 153.2550629999999,
                    "velocity": 0.4409448818897638,
                    "duration": 0.08797649999999635
                },
                {
                    "name": "A1",
                    "midi": 33,
                    "time": 153.2550629999999,
                    "velocity": 0.3700787401574803,
                    "duration": 0.08797649999999635
                },
                {
                    "name": "E2",
                    "midi": 40,
                    "time": 153.4310159999999,
                    "velocity": 0.47244094488188976,
                    "duration": 0.08797649999999635
                },
                {
                    "name": "E1",
                    "midi": 28,
                    "time": 153.4310159999999,
                    "velocity": 0.4015748031496063,
                    "duration": 0.08797649999999635
                },
                {
                    "name": "C#2",
                    "midi": 37,
                    "time": 153.60696899999988,
                    "velocity": 0.41732283464566927,
                    "duration": 0.08797649999999635
                },
                {
                    "name": "C#1",
                    "midi": 25,
                    "time": 153.60696899999988,
                    "velocity": 0.3543307086614173,
                    "duration": 0.08797649999999635
                },
                {
                    "name": "A0",
                    "midi": 21,
                    "time": 153.78292199999987,
                    "velocity": 0.3543307086614173,
                    "duration": 0.08797649999999635
                },
                {
                    "name": "A1",
                    "midi": 33,
                    "time": 153.78292199999987,
                    "velocity": 0.3543307086614173,
                    "duration": 0.08797649999999635
                },
                {
                    "name": "C#2",
                    "midi": 37,
                    "time": 153.95887499999986,
                    "velocity": 0.41732283464566927,
                    "duration": 0.08797649999999635
                },
                {
                    "name": "C#1",
                    "midi": 25,
                    "time": 153.95887499999986,
                    "velocity": 0.3543307086614173,
                    "duration": 0.08797649999999635
                },
                {
                    "name": "E2",
                    "midi": 40,
                    "time": 154.13482799999986,
                    "velocity": 0.3937007874015748,
                    "duration": 0.08797649999999635
                },
                {
                    "name": "E1",
                    "midi": 28,
                    "time": 154.13482799999986,
                    "velocity": 0.33070866141732286,
                    "duration": 0.08797649999999635
                },
                {
                    "name": "C#2",
                    "midi": 37,
                    "time": 154.31078099999985,
                    "velocity": 0.41732283464566927,
                    "duration": 0.08797649999999635
                },
                {
                    "name": "C#1",
                    "midi": 25,
                    "time": 154.31078099999985,
                    "velocity": 0.3543307086614173,
                    "duration": 0.08797649999999635
                },
                {
                    "name": "E2",
                    "midi": 40,
                    "time": 154.48673399999984,
                    "velocity": 0.4409448818897638,
                    "duration": 0.08797649999999635
                },
                {
                    "name": "E1",
                    "midi": 28,
                    "time": 154.48673399999984,
                    "velocity": 0.3700787401574803,
                    "duration": 0.08797649999999635
                },
                {
                    "name": "A2",
                    "midi": 45,
                    "time": 154.66268699999983,
                    "velocity": 0.4645669291338583,
                    "duration": 0.08797649999999635
                },
                {
                    "name": "A1",
                    "midi": 33,
                    "time": 154.66268699999983,
                    "velocity": 0.3937007874015748,
                    "duration": 0.08797649999999635
                },
                {
                    "name": "E2",
                    "midi": 40,
                    "time": 154.83863999999983,
                    "velocity": 0.49606299212598426,
                    "duration": 0.7038119999999992
                },
                {
                    "name": "E1",
                    "midi": 28,
                    "time": 154.83863999999983,
                    "velocity": 0.41732283464566927,
                    "duration": 0.7038119999999992
                },
                {
                    "name": "A2",
                    "midi": 45,
                    "time": 155.54245199999983,
                    "velocity": 0.4566929133858268,
                    "duration": 0.08797649999999635
                },
                {
                    "name": "A1",
                    "midi": 33,
                    "time": 155.54245199999983,
                    "velocity": 0.3858267716535433,
                    "duration": 0.08797649999999635
                },
                {
                    "name": "F2",
                    "midi": 41,
                    "time": 155.85036974999983,
                    "velocity": 0.3700787401574803,
                    "duration": 0.21994124999997666
                },
                {
                    "name": "C3",
                    "midi": 48,
                    "time": 155.87236387499982,
                    "velocity": 0.4015748031496063,
                    "duration": 0.19794712499998468
                },
                {
                    "name": "A3",
                    "midi": 57,
                    "time": 155.8943579999998,
                    "velocity": 0.4566929133858268,
                    "duration": 0.1759529999999927
                },
                {
                    "name": "E2",
                    "midi": 40,
                    "time": 156.2022757499998,
                    "velocity": 0.36220472440944884,
                    "duration": 0.21994124999997666
                },
                {
                    "name": "C3",
                    "midi": 48,
                    "time": 156.2242698749998,
                    "velocity": 0.3779527559055118,
                    "duration": 0.19794712499998468
                },
                {
                    "name": "G3",
                    "midi": 55,
                    "time": 156.2462639999998,
                    "velocity": 0.4566929133858268,
                    "duration": 0.1759529999999927
                },
                {
                    "name": "F2",
                    "midi": 41,
                    "time": 156.5541817499998,
                    "velocity": 0.3700787401574803,
                    "duration": 0.21994124999997666
                },
                {
                    "name": "C3",
                    "midi": 48,
                    "time": 156.5761758749998,
                    "velocity": 0.4015748031496063,
                    "duration": 0.19794712499998468
                },
                {
                    "name": "A3",
                    "midi": 57,
                    "time": 156.59816999999978,
                    "velocity": 0.4251968503937008,
                    "duration": 0.1759529999999927
                },
                {
                    "name": "G2",
                    "midi": 43,
                    "time": 156.90608774999978,
                    "velocity": 0.4094488188976378,
                    "duration": 0.21994124999997666
                },
                {
                    "name": "E3",
                    "midi": 52,
                    "time": 156.92808187499978,
                    "velocity": 0.4330708661417323,
                    "duration": 0.19794712499998468
                },
                {
                    "name": "C4",
                    "midi": 60,
                    "time": 156.95007599999977,
                    "velocity": 0.4409448818897638,
                    "duration": 0.1759529999999927
                },
                {
                    "name": "G2",
                    "midi": 43,
                    "time": 157.25799374999977,
                    "velocity": 0.3543307086614173,
                    "duration": 0.21994124999997666
                },
                {
                    "name": "F3",
                    "midi": 53,
                    "time": 157.27998787499976,
                    "velocity": 0.3700787401574803,
                    "duration": 0.19794712499998468
                },
                {
                    "name": "B3",
                    "midi": 59,
                    "time": 157.30198199999975,
                    "velocity": 0.4015748031496063,
                    "duration": 0.1759529999999927
                },
                {
                    "name": "C3",
                    "midi": 48,
                    "time": 157.60989974999976,
                    "velocity": 0.3543307086614173,
                    "duration": 0.21994124999997666
                },
                {
                    "name": "G3",
                    "midi": 55,
                    "time": 157.63189387499975,
                    "velocity": 0.007874015748031496,
                    "duration": 0.19794712499998468
                },
                {
                    "name": "C4",
                    "midi": 60,
                    "time": 157.65388799999974,
                    "velocity": 0.4645669291338583,
                    "duration": 0.1759529999999927
                },
                {
                    "name": "E4",
                    "midi": 64,
                    "time": 158.00579399999972,
                    "velocity": 0.3543307086614173,
                    "duration": 0.08797649999999635
                },
                {
                    "name": "G4",
                    "midi": 67,
                    "time": 158.09377049999972,
                    "velocity": 0.36220472440944884,
                    "duration": 0.08797649999999635
                },
                {
                    "name": "C5",
                    "midi": 72,
                    "time": 158.18174699999972,
                    "velocity": 0.3700787401574803,
                    "duration": 0.08797649999999635
                },
                {
                    "name": "D5",
                    "midi": 74,
                    "time": 158.2697234999997,
                    "velocity": 0.3858267716535433,
                    "duration": 0.08797649999999635
                },
                {
                    "name": "E5",
                    "midi": 76,
                    "time": 158.3576999999997,
                    "velocity": 0.3858267716535433,
                    "duration": 0.08797649999999635
                },
                {
                    "name": "G3",
                    "midi": 55,
                    "time": 158.6656177499997,
                    "velocity": 0.3700787401574803,
                    "duration": 0.21994124999997666
                },
                {
                    "name": "F4",
                    "midi": 65,
                    "time": 158.6876118749997,
                    "velocity": 0.4015748031496063,
                    "duration": 0.19794712499998468
                },
                {
                    "name": "B4",
                    "midi": 71,
                    "time": 158.7096059999997,
                    "velocity": 0.4645669291338583,
                    "duration": 0.1759529999999927
                },
                {
                    "name": "C4",
                    "midi": 60,
                    "time": 159.06151199999968,
                    "velocity": 0.3543307086614173,
                    "duration": 0.1759529999999927
                },
                {
                    "name": "G4",
                    "midi": 67,
                    "time": 159.06151199999968,
                    "velocity": 0.007874015748031496,
                    "duration": 0.1759529999999927
                },
                {
                    "name": "C5",
                    "midi": 72,
                    "time": 159.06151199999968,
                    "velocity": 0.4645669291338583,
                    "duration": 0.1759529999999927
                },
                {
                    "name": "E5",
                    "midi": 76,
                    "time": 159.41341799999967,
                    "velocity": 0.3543307086614173,
                    "duration": 0.08797649999999635
                },
                {
                    "name": "G5",
                    "midi": 79,
                    "time": 159.50139449999966,
                    "velocity": 0.36220472440944884,
                    "duration": 0.08797649999999635
                },
                {
                    "name": "C6",
                    "midi": 84,
                    "time": 159.58937099999966,
                    "velocity": 0.3700787401574803,
                    "duration": 0.08797649999999635
                },
                {
                    "name": "D6",
                    "midi": 86,
                    "time": 159.67734749999966,
                    "velocity": 0.3858267716535433,
                    "duration": 0.08797649999999635
                },
                {
                    "name": "E6",
                    "midi": 88,
                    "time": 159.76532399999965,
                    "velocity": 0.3858267716535433,
                    "duration": 0.08797649999999635
                },
                {
                    "name": "G4",
                    "midi": 67,
                    "time": 160.07324174999965,
                    "velocity": 0.3700787401574803,
                    "duration": 0.21994124999997666
                },
                {
                    "name": "F5",
                    "midi": 77,
                    "time": 160.09523587499964,
                    "velocity": 0.4015748031496063,
                    "duration": 0.19794712499998468
                },
                {
                    "name": "B5",
                    "midi": 83,
                    "time": 160.11722999999964,
                    "velocity": 0.4645669291338583,
                    "duration": 0.1759529999999927
                },
                {
                    "name": "C6",
                    "midi": 84,
                    "time": 160.46913599999962,
                    "velocity": 0.3937007874015748,
                    "duration": 0.08797649999999635
                },
                {
                    "name": "C5",
                    "midi": 72,
                    "time": 160.46913599999962,
                    "velocity": 0.33070866141732286,
                    "duration": 0.08797649999999635
                },
                {
                    "name": "E5",
                    "midi": 76,
                    "time": 160.46913599999962,
                    "velocity": 0.33070866141732286,
                    "duration": 0.08797649999999635
                },
                {
                    "name": "G4",
                    "midi": 67,
                    "time": 160.8210419999996,
                    "velocity": 0.3937007874015748,
                    "duration": 0.08797649999999635
                },
                {
                    "name": "B5",
                    "midi": 83,
                    "time": 160.9969949999996,
                    "velocity": 0.36220472440944884,
                    "duration": 0.08797649999999635
                },
                {
                    "name": "F5",
                    "midi": 77,
                    "time": 160.9969949999996,
                    "velocity": 0.30708661417322836,
                    "duration": 0.08797649999999635
                },
                {
                    "name": "D5",
                    "midi": 74,
                    "time": 160.9969949999996,
                    "velocity": 0.30708661417322836,
                    "duration": 0.08797649999999635
                },
                {
                    "name": "C5",
                    "midi": 72,
                    "time": 161.1729479999996,
                    "velocity": 0.3937007874015748,
                    "duration": 0.08797649999999635
                },
                {
                    "name": "C6",
                    "midi": 84,
                    "time": 161.3489009999996,
                    "velocity": 0.36220472440944884,
                    "duration": 0.08797649999999635
                },
                {
                    "name": "G5",
                    "midi": 79,
                    "time": 161.3489009999996,
                    "velocity": 0.30708661417322836,
                    "duration": 0.08797649999999635
                },
                {
                    "name": "E5",
                    "midi": 76,
                    "time": 161.3489009999996,
                    "velocity": 0.30708661417322836,
                    "duration": 0.08797649999999635
                },
                {
                    "name": "G4",
                    "midi": 67,
                    "time": 161.52485399999958,
                    "velocity": 0.3937007874015748,
                    "duration": 0.08797649999999635
                },
                {
                    "name": "B5",
                    "midi": 83,
                    "time": 161.70080699999957,
                    "velocity": 0.36220472440944884,
                    "duration": 0.08797649999999635
                },
                {
                    "name": "F5",
                    "midi": 77,
                    "time": 161.70080699999957,
                    "velocity": 0.30708661417322836,
                    "duration": 0.08797649999999635
                },
                {
                    "name": "D5",
                    "midi": 74,
                    "time": 161.70080699999957,
                    "velocity": 0.30708661417322836,
                    "duration": 0.08797649999999635
                },
                {
                    "name": "C5",
                    "midi": 72,
                    "time": 161.87675999999956,
                    "velocity": 0.3937007874015748,
                    "duration": 0.08797649999999635
                },
                {
                    "name": "C6",
                    "midi": 84,
                    "time": 162.05271299999956,
                    "velocity": 0.36220472440944884,
                    "duration": 0.08797649999999635
                },
                {
                    "name": "E5",
                    "midi": 76,
                    "time": 162.05271299999956,
                    "velocity": 0.30708661417322836,
                    "duration": 0.08797649999999635
                },
                {
                    "name": "G5",
                    "midi": 79,
                    "time": 162.05271299999956,
                    "velocity": 0.30708661417322836,
                    "duration": 0.08797649999999635
                },
                {
                    "name": "G4",
                    "midi": 67,
                    "time": 162.22866599999955,
                    "velocity": 0.3937007874015748,
                    "duration": 0.08797649999999635
                },
                {
                    "name": "B5",
                    "midi": 83,
                    "time": 162.40461899999954,
                    "velocity": 0.36220472440944884,
                    "duration": 0.08797649999999635
                },
                {
                    "name": "F5",
                    "midi": 77,
                    "time": 162.40461899999954,
                    "velocity": 0.30708661417322836,
                    "duration": 0.08797649999999635
                },
                {
                    "name": "D5",
                    "midi": 74,
                    "time": 162.40461899999954,
                    "velocity": 0.30708661417322836,
                    "duration": 0.08797649999999635
                },
                {
                    "name": "C5",
                    "midi": 72,
                    "time": 162.58057199999953,
                    "velocity": 0.3937007874015748,
                    "duration": 0.08797649999999635
                },
                {
                    "name": "C6",
                    "midi": 84,
                    "time": 162.75652499999953,
                    "velocity": 0.36220472440944884,
                    "duration": 0.08797649999999635
                },
                {
                    "name": "G5",
                    "midi": 79,
                    "time": 162.75652499999953,
                    "velocity": 0.30708661417322836,
                    "duration": 0.08797649999999635
                },
                {
                    "name": "E5",
                    "midi": 76,
                    "time": 162.75652499999953,
                    "velocity": 0.30708661417322836,
                    "duration": 0.08797649999999635
                },
                {
                    "name": "G4",
                    "midi": 67,
                    "time": 162.93247799999952,
                    "velocity": 0.3937007874015748,
                    "duration": 0.08797649999999635
                },
                {
                    "name": "B5",
                    "midi": 83,
                    "time": 163.1084309999995,
                    "velocity": 0.36220472440944884,
                    "duration": 0.08797649999999635
                },
                {
                    "name": "F5",
                    "midi": 77,
                    "time": 163.1084309999995,
                    "velocity": 0.30708661417322836,
                    "duration": 0.08797649999999635
                },
                {
                    "name": "D5",
                    "midi": 74,
                    "time": 163.1084309999995,
                    "velocity": 0.30708661417322836,
                    "duration": 0.08797649999999635
                },
                {
                    "name": "C5",
                    "midi": 72,
                    "time": 163.25139281249952,
                    "velocity": 0.3543307086614173,
                    "duration": 0.12096768749998432
                },
                {
                    "name": "E5",
                    "midi": 76,
                    "time": 163.2623898749995,
                    "velocity": 0.36220472440944884,
                    "duration": 0.10997062499998833
                },
                {
                    "name": "G5",
                    "midi": 79,
                    "time": 163.2733869374995,
                    "velocity": 0.3779527559055118,
                    "duration": 0.09897356249999234
                },
                {
                    "name": "C6",
                    "midi": 84,
                    "time": 163.2843839999995,
                    "velocity": 0.3937007874015748,
                    "duration": 0.08797649999999635
                },
                {
                    "name": "E4",
                    "midi": 64,
                    "time": 163.6362899999995,
                    "velocity": 0.2125984251968504,
                    "duration": 0.08797649999999635
                },
                {
                    "name": "F4",
                    "midi": 65,
                    "time": 163.7242664999995,
                    "velocity": 0.2204724409448819,
                    "duration": 0.08797649999999635
                },
                {
                    "name": "F#4",
                    "midi": 66,
                    "time": 163.81224299999948,
                    "velocity": 0.2283464566929134,
                    "duration": 0.08797649999999635
                },
                {
                    "name": "G4",
                    "midi": 67,
                    "time": 163.90021949999948,
                    "velocity": 0.23622047244094488,
                    "duration": 0.08797649999999635
                },
                {
                    "name": "G#4",
                    "midi": 68,
                    "time": 163.98819599999948,
                    "velocity": 0.2440944881889764,
                    "duration": 0.08797649999999635
                },
                {
                    "name": "A4",
                    "midi": 69,
                    "time": 164.07617249999947,
                    "velocity": 0.25196850393700787,
                    "duration": 0.08797649999999635
                },
                {
                    "name": "A#4",
                    "midi": 70,
                    "time": 164.16414899999947,
                    "velocity": 0.25984251968503935,
                    "duration": 0.08797649999999635
                },
                {
                    "name": "B4",
                    "midi": 71,
                    "time": 164.25212549999947,
                    "velocity": 0.2677165354330709,
                    "duration": 0.08797649999999635
                },
                {
                    "name": "C5",
                    "midi": 72,
                    "time": 164.34010199999946,
                    "velocity": 0.2755905511811024,
                    "duration": 0.08797649999999635
                },
                {
                    "name": "C#5",
                    "midi": 73,
                    "time": 164.42807849999946,
                    "velocity": 0.28346456692913385,
                    "duration": 0.08797649999999635
                },
                {
                    "name": "D5",
                    "midi": 74,
                    "time": 164.51605499999945,
                    "velocity": 0.29133858267716534,
                    "duration": 0.08797649999999635
                },
                {
                    "name": "D#5",
                    "midi": 75,
                    "time": 164.60403149999945,
                    "velocity": 0.2992125984251969,
                    "duration": 0.08797649999999635
                },
                {
                    "name": "E5",
                    "midi": 76,
                    "time": 164.69200799999945,
                    "velocity": 0.31496062992125984,
                    "duration": 0.08797649999999635
                },
                {
                    "name": "F5",
                    "midi": 77,
                    "time": 164.77998449999944,
                    "velocity": 0.3228346456692913,
                    "duration": 0.08797649999999635
                },
                {
                    "name": "F#5",
                    "midi": 78,
                    "time": 164.86796099999944,
                    "velocity": 0.33070866141732286,
                    "duration": 0.08797649999999635
                },
                {
                    "name": "G5",
                    "midi": 79,
                    "time": 164.95593749999944,
                    "velocity": 0.33858267716535434,
                    "duration": 0.08797649999999635
                },
                {
                    "name": "G#5",
                    "midi": 80,
                    "time": 165.04391399999943,
                    "velocity": 0.3464566929133858,
                    "duration": 0.08797649999999635
                },
                {
                    "name": "A5",
                    "midi": 81,
                    "time": 165.13189049999943,
                    "velocity": 0.3543307086614173,
                    "duration": 0.08797649999999635
                },
                {
                    "name": "A#5",
                    "midi": 82,
                    "time": 165.21986699999943,
                    "velocity": 0.36220472440944884,
                    "duration": 0.08797649999999635
                },
                {
                    "name": "B5",
                    "midi": 83,
                    "time": 165.30784349999942,
                    "velocity": 0.3700787401574803,
                    "duration": 0.08797649999999635
                },
                {
                    "name": "C6",
                    "midi": 84,
                    "time": 165.39581999999942,
                    "velocity": 0.3779527559055118,
                    "duration": 0.07038120000001413
                },
                {
                    "name": "C#6",
                    "midi": 85,
                    "time": 165.46620119999943,
                    "velocity": 0.3858267716535433,
                    "duration": 0.07038120000001413
                },
                {
                    "name": "D6",
                    "midi": 86,
                    "time": 165.53658239999945,
                    "velocity": 0.3937007874015748,
                    "duration": 0.07038120000001413
                },
                {
                    "name": "D#6",
                    "midi": 87,
                    "time": 165.60696359999946,
                    "velocity": 0.4015748031496063,
                    "duration": 0.07038120000001413
                },
                {
                    "name": "E6",
                    "midi": 88,
                    "time": 165.67734479999947,
                    "velocity": 0.4094488188976378,
                    "duration": 0.07038120000001413
                },
                {
                    "name": "C#5",
                    "midi": 73,
                    "time": 166.4515379999995,
                    "velocity": 0.3464566929133858,
                    "duration": 0.08797649999999635
                },
                {
                    "name": "E5",
                    "midi": 76,
                    "time": 166.62749099999948,
                    "velocity": 0.30708661417322836,
                    "duration": 0.08797649999999635
                },
                {
                    "name": "A4",
                    "midi": 69,
                    "time": 166.80344399999947,
                    "velocity": 0.3464566929133858,
                    "duration": 0.08797649999999635
                },
                {
                    "name": "A3",
                    "midi": 57,
                    "time": 166.80344399999947,
                    "velocity": 0.28346456692913385,
                    "duration": 0.08797649999999635
                },
                {
                    "name": "E4",
                    "midi": 64,
                    "time": 166.80344399999947,
                    "velocity": 0.28346456692913385,
                    "duration": 0.08797649999999635
                },
                {
                    "name": "C#5",
                    "midi": 73,
                    "time": 167.85916199999946,
                    "velocity": 0.3464566929133858,
                    "duration": 0.08797649999999635
                },
                {
                    "name": "E5",
                    "midi": 76,
                    "time": 168.03511499999945,
                    "velocity": 0.30708661417322836,
                    "duration": 0.08797649999999635
                },
                {
                    "name": "A4",
                    "midi": 69,
                    "time": 168.21106799999944,
                    "velocity": 0.3464566929133858,
                    "duration": 0.08797649999999635
                },
                {
                    "name": "A3",
                    "midi": 57,
                    "time": 168.21106799999944,
                    "velocity": 0.28346456692913385,
                    "duration": 0.08797649999999635
                },
                {
                    "name": "E4",
                    "midi": 64,
                    "time": 168.21106799999944,
                    "velocity": 0.28346456692913385,
                    "duration": 0.08797649999999635
                },
                {
                    "name": "C#5",
                    "midi": 73,
                    "time": 168.56297399999943,
                    "velocity": 0.3543307086614173,
                    "duration": 0.08797649999999635
                },
                {
                    "name": "B5",
                    "midi": 83,
                    "time": 168.73892699999942,
                    "velocity": 0.31496062992125984,
                    "duration": 0.08797649999999635
                },
                {
                    "name": "F5",
                    "midi": 77,
                    "time": 168.73892699999942,
                    "velocity": 0.2677165354330709,
                    "duration": 0.08797649999999635
                },
                {
                    "name": "F#5",
                    "midi": 78,
                    "time": 168.9148799999994,
                    "velocity": 0.3543307086614173,
                    "duration": 0.08797649999999635
                },
                {
                    "name": "A5",
                    "midi": 81,
                    "time": 169.0908329999994,
                    "velocity": 0.30708661417322836,
                    "duration": 0.08797649999999635
                },
                {
                    "name": "C#5",
                    "midi": 73,
                    "time": 169.2667859999994,
                    "velocity": 0.3464566929133858,
                    "duration": 0.08797649999999635
                },
                {
                    "name": "B5",
                    "midi": 83,
                    "time": 169.4427389999994,
                    "velocity": 0.30708661417322836,
                    "duration": 0.08797649999999635
                },
                {
                    "name": "G#5",
                    "midi": 80,
                    "time": 169.4427389999994,
                    "velocity": 0.30708661417322836,
                    "duration": 0.08797649999999635
                },
                {
                    "name": "F#5",
                    "midi": 78,
                    "time": 169.61869199999938,
                    "velocity": 0.3464566929133858,
                    "duration": 0.08797649999999635
                },
                {
                    "name": "A5",
                    "midi": 81,
                    "time": 169.79464499999938,
                    "velocity": 0.30708661417322836,
                    "duration": 0.08797649999999635
                },
                {
                    "name": "C#5",
                    "midi": 73,
                    "time": 169.97059799999937,
                    "velocity": 0.3464566929133858,
                    "duration": 0.08797649999999635
                },
                {
                    "name": "B5",
                    "midi": 83,
                    "time": 170.14655099999936,
                    "velocity": 0.31496062992125984,
                    "duration": 0.08797649999999635
                },
                {
                    "name": "G#5",
                    "midi": 80,
                    "time": 170.14655099999936,
                    "velocity": 0.31496062992125984,
                    "duration": 0.08797649999999635
                },
                {
                    "name": "A5",
                    "midi": 81,
                    "time": 170.32250399999936,
                    "velocity": 0.3464566929133858,
                    "duration": 0.08797649999999635
                },
                {
                    "name": "F#5",
                    "midi": 78,
                    "time": 170.32250399999936,
                    "velocity": 0.3464566929133858,
                    "duration": 0.08797649999999635
                },
                {
                    "name": "A4",
                    "midi": 69,
                    "time": 171.37822199999934,
                    "velocity": 0.3543307086614173,
                    "duration": 0.08797649999999635
                },
                {
                    "name": "G5",
                    "midi": 79,
                    "time": 171.55417499999933,
                    "velocity": 0.31496062992125984,
                    "duration": 0.08797649999999635
                },
                {
                    "name": "E5",
                    "midi": 76,
                    "time": 171.55417499999933,
                    "velocity": 0.2677165354330709,
                    "duration": 0.08797649999999635
                },
                {
                    "name": "D5",
                    "midi": 74,
                    "time": 171.73012799999933,
                    "velocity": 0.3543307086614173,
                    "duration": 0.08797649999999635
                },
                {
                    "name": "F#5",
                    "midi": 78,
                    "time": 171.90608099999932,
                    "velocity": 0.30708661417322836,
                    "duration": 0.08797649999999635
                },
                {
                    "name": "A5",
                    "midi": 81,
                    "time": 171.90608099999932,
                    "velocity": 0.30708661417322836,
                    "duration": 0.08797649999999635
                },
                {
                    "name": "A4",
                    "midi": 69,
                    "time": 172.0820339999993,
                    "velocity": 0.3464566929133858,
                    "duration": 0.08797649999999635
                },
                {
                    "name": "G5",
                    "midi": 79,
                    "time": 172.2579869999993,
                    "velocity": 0.30708661417322836,
                    "duration": 0.08797649999999635
                },
                {
                    "name": "E5",
                    "midi": 76,
                    "time": 172.2579869999993,
                    "velocity": 0.30708661417322836,
                    "duration": 0.08797649999999635
                },
                {
                    "name": "D5",
                    "midi": 74,
                    "time": 172.4339399999993,
                    "velocity": 0.3464566929133858,
                    "duration": 0.08797649999999635
                },
                {
                    "name": "F#5",
                    "midi": 78,
                    "time": 172.6098929999993,
                    "velocity": 0.30708661417322836,
                    "duration": 0.08797649999999635
                },
                {
                    "name": "A5",
                    "midi": 81,
                    "time": 172.6098929999993,
                    "velocity": 0.30708661417322836,
                    "duration": 0.08797649999999635
                },
                {
                    "name": "A4",
                    "midi": 69,
                    "time": 172.78584599999928,
                    "velocity": 0.3464566929133858,
                    "duration": 0.08797649999999635
                },
                {
                    "name": "G5",
                    "midi": 79,
                    "time": 172.96179899999927,
                    "velocity": 0.31496062992125984,
                    "duration": 0.08797649999999635
                },
                {
                    "name": "E5",
                    "midi": 76,
                    "time": 172.96179899999927,
                    "velocity": 0.31496062992125984,
                    "duration": 0.08797649999999635
                },
                {
                    "name": "F#5",
                    "midi": 78,
                    "time": 173.13775199999927,
                    "velocity": 0.3464566929133858,
                    "duration": 0.08797649999999635
                },
                {
                    "name": "D5",
                    "midi": 74,
                    "time": 173.13775199999927,
                    "velocity": 0.3464566929133858,
                    "duration": 0.08797649999999635
                },
                {
                    "name": "D5",
                    "midi": 74,
                    "time": 174.89728199999925,
                    "velocity": 0.3464566929133858,
                    "duration": 0.08797649999999635
                },
                {
                    "name": "F#5",
                    "midi": 78,
                    "time": 175.07323499999924,
                    "velocity": 0.30708661417322836,
                    "duration": 0.08797649999999635
                },
                {
                    "name": "B4",
                    "midi": 71,
                    "time": 175.24918799999924,
                    "velocity": 0.3464566929133858,
                    "duration": 0.08797649999999635
                },
                {
                    "name": "B3",
                    "midi": 59,
                    "time": 175.24918799999924,
                    "velocity": 0.28346456692913385,
                    "duration": 0.08797649999999635
                },
                {
                    "name": "F#4",
                    "midi": 66,
                    "time": 175.24918799999924,
                    "velocity": 0.28346456692913385,
                    "duration": 0.08797649999999635
                },
                {
                    "name": "D5",
                    "midi": 74,
                    "time": 176.30490599999922,
                    "velocity": 0.3464566929133858,
                    "duration": 0.08797649999999635
                },
                {
                    "name": "F#5",
                    "midi": 78,
                    "time": 176.4808589999992,
                    "velocity": 0.30708661417322836,
                    "duration": 0.08797649999999635
                },
                {
                    "name": "B4",
                    "midi": 71,
                    "time": 176.6568119999992,
                    "velocity": 0.3464566929133858,
                    "duration": 0.08797649999999635
                },
                {
                    "name": "B3",
                    "midi": 59,
                    "time": 176.6568119999992,
                    "velocity": 0.28346456692913385,
                    "duration": 0.08797649999999635
                },
                {
                    "name": "F#4",
                    "midi": 66,
                    "time": 176.6568119999992,
                    "velocity": 0.28346456692913385,
                    "duration": 0.08797649999999635
                },
                {
                    "name": "F#5",
                    "midi": 78,
                    "time": 177.0087179999992,
                    "velocity": 0.4094488188976378,
                    "duration": 0.3519060000000138
                },
                {
                    "name": "D6",
                    "midi": 86,
                    "time": 177.0087179999992,
                    "velocity": 0.4094488188976378,
                    "duration": 0.3519060000000138
                },
                {
                    "name": "E5",
                    "midi": 76,
                    "time": 177.3606239999992,
                    "velocity": 0.3937007874015748,
                    "duration": 0.08797649999999635
                },
                {
                    "name": "C#6",
                    "midi": 85,
                    "time": 177.3606239999992,
                    "velocity": 0.3937007874015748,
                    "duration": 0.08797649999999635
                },
                {
                    "name": "D5",
                    "midi": 74,
                    "time": 177.5365769999992,
                    "velocity": 0.3228346456692913,
                    "duration": 0.08797649999999635
                },
                {
                    "name": "B5",
                    "midi": 83,
                    "time": 177.5365769999992,
                    "velocity": 0.3228346456692913,
                    "duration": 0.08797649999999635
                },
                {
                    "name": "C#5",
                    "midi": 73,
                    "time": 177.7125299999992,
                    "velocity": 0.4015748031496063,
                    "duration": 0.3519060000000138
                },
                {
                    "name": "A5",
                    "midi": 81,
                    "time": 177.7125299999992,
                    "velocity": 0.4015748031496063,
                    "duration": 0.3519060000000138
                },
                {
                    "name": "D5",
                    "midi": 74,
                    "time": 178.0644359999992,
                    "velocity": 0.4094488188976378,
                    "duration": 0.08797649999999635
                },
                {
                    "name": "B5",
                    "midi": 83,
                    "time": 178.0644359999992,
                    "velocity": 0.4094488188976378,
                    "duration": 0.08797649999999635
                },
                {
                    "name": "C#5",
                    "midi": 73,
                    "time": 178.2403889999992,
                    "velocity": 0.3228346456692913,
                    "duration": 0.08797649999999635
                },
                {
                    "name": "A5",
                    "midi": 81,
                    "time": 178.2403889999992,
                    "velocity": 0.3228346456692913,
                    "duration": 0.08797649999999635
                },
                {
                    "name": "B4",
                    "midi": 71,
                    "time": 178.4163419999992,
                    "velocity": 0.3858267716535433,
                    "duration": 0.3519060000000138
                },
                {
                    "name": "G#5",
                    "midi": 80,
                    "time": 178.4163419999992,
                    "velocity": 0.3858267716535433,
                    "duration": 0.3519060000000138
                },
                {
                    "name": "A4",
                    "midi": 69,
                    "time": 178.7682479999992,
                    "velocity": 0.3700787401574803,
                    "duration": 0.08797649999999635
                },
                {
                    "name": "A5",
                    "midi": 81,
                    "time": 178.7682479999992,
                    "velocity": 0.3700787401574803,
                    "duration": 0.08797649999999635
                },
                {
                    "name": "C#5",
                    "midi": 73,
                    "time": 178.7682479999992,
                    "velocity": 0.3700787401574803,
                    "duration": 0.08797649999999635
                },
                {
                    "name": "E4",
                    "midi": 64,
                    "time": 179.1201539999992,
                    "velocity": 0.3543307086614173,
                    "duration": 0.08797649999999635
                },
                {
                    "name": "G#4",
                    "midi": 68,
                    "time": 179.1201539999992,
                    "velocity": 0.3543307086614173,
                    "duration": 0.08797649999999635
                },
                {
                    "name": "B4",
                    "midi": 71,
                    "time": 179.1201539999992,
                    "velocity": 0.3543307086614173,
                    "duration": 0.08797649999999635
                },
                {
                    "name": "E5",
                    "midi": 76,
                    "time": 179.1201539999992,
                    "velocity": 0.3543307086614173,
                    "duration": 0.08797649999999635
                },
                {
                    "name": "A3",
                    "midi": 57,
                    "time": 179.47205999999917,
                    "velocity": 0.36220472440944884,
                    "duration": 0.08797649999999635
                },
                {
                    "name": "C#4",
                    "midi": 61,
                    "time": 179.47205999999917,
                    "velocity": 0.36220472440944884,
                    "duration": 0.08797649999999635
                },
                {
                    "name": "E4",
                    "midi": 64,
                    "time": 179.47205999999917,
                    "velocity": 0.36220472440944884,
                    "duration": 0.08797649999999635
                },
                {
                    "name": "A4",
                    "midi": 69,
                    "time": 179.47205999999917,
                    "velocity": 0.36220472440944884,
                    "duration": 0.08797649999999635
                },
                {
                    "name": "A2",
                    "midi": 45,
                    "time": 179.82396599999916,
                    "velocity": 0.5433070866141733,
                    "duration": 0.13196475000000873
                },
                {
                    "name": "A1",
                    "midi": 33,
                    "time": 179.82396599999916,
                    "velocity": 0.4566929133858268,
                    "duration": 0.13196475000000873
                },
                {
                    "name": "G#2",
                    "midi": 44,
                    "time": 180.17587199999917,
                    "velocity": 0.5826771653543307,
                    "duration": 0.13196475000000873
                },
                {
                    "name": "G#1",
                    "midi": 32,
                    "time": 180.17587199999917,
                    "velocity": 0.4881889763779528,
                    "duration": 0.13196475000000873
                },
                {
                    "name": "F2",
                    "midi": 41,
                    "time": 180.5277779999992,
                    "velocity": 0.5433070866141733,
                    "duration": 0.13196475000000873
                },
                {
                    "name": "F1",
                    "midi": 29,
                    "time": 180.5277779999992,
                    "velocity": 0.4566929133858268,
                    "duration": 0.13196475000000873
                },
                {
                    "name": "E2",
                    "midi": 40,
                    "time": 180.8796839999992,
                    "velocity": 0.5826771653543307,
                    "duration": 0.13196475000000873
                },
                {
                    "name": "E1",
                    "midi": 28,
                    "time": 180.8796839999992,
                    "velocity": 0.4881889763779528,
                    "duration": 0.13196475000000873
                },
                {
                    "name": "D2",
                    "midi": 38,
                    "time": 181.23158999999922,
                    "velocity": 0.5433070866141733,
                    "duration": 0.13196475000000873
                },
                {
                    "name": "D1",
                    "midi": 26,
                    "time": 181.23158999999922,
                    "velocity": 0.4566929133858268,
                    "duration": 0.13196475000000873
                },
                {
                    "name": "C#2",
                    "midi": 37,
                    "time": 181.58349599999923,
                    "velocity": 0.6220472440944882,
                    "duration": 0.5278590000000065
                },
                {
                    "name": "C#1",
                    "midi": 25,
                    "time": 181.58349599999923,
                    "velocity": 0.5118110236220472,
                    "duration": 0.5278590000000065
                },
                {
                    "name": "D2",
                    "midi": 38,
                    "time": 182.11135499999924,
                    "velocity": 0.5433070866141733,
                    "duration": 0.1759529999999927
                },
                {
                    "name": "D1",
                    "midi": 26,
                    "time": 182.11135499999924,
                    "velocity": 0.4566929133858268,
                    "duration": 0.1759529999999927
                },
                {
                    "name": "E2",
                    "midi": 40,
                    "time": 182.28730799999923,
                    "velocity": 0.6299212598425197,
                    "duration": 0.1759529999999927
                },
                {
                    "name": "E1",
                    "midi": 28,
                    "time": 182.28730799999923,
                    "velocity": 0.5196850393700787,
                    "duration": 0.1759529999999927
                },
                {
                    "name": "A2",
                    "midi": 45,
                    "time": 182.81516699999924,
                    "velocity": 0.5748031496062992,
                    "duration": 0.08797649999999635
                },
                {
                    "name": "A1",
                    "midi": 33,
                    "time": 182.81516699999924,
                    "velocity": 0.47244094488188976,
                    "duration": 0.08797649999999635
                },
                {
                    "name": "E2",
                    "midi": 40,
                    "time": 182.99111999999923,
                    "velocity": 0.6299212598425197,
                    "duration": 0.5278590000000065
                },
                {
                    "name": "E1",
                    "midi": 28,
                    "time": 182.99111999999923,
                    "velocity": 0.5196850393700787,
                    "duration": 0.5278590000000065
                },
                {
                    "name": "A2",
                    "midi": 45,
                    "time": 183.51897899999923,
                    "velocity": 0.5433070866141733,
                    "duration": 0.08797649999999635
                },
                {
                    "name": "A1",
                    "midi": 33,
                    "time": 183.51897899999923,
                    "velocity": 0.4566929133858268,
                    "duration": 0.08797649999999635
                },
                {
                    "name": "E2",
                    "midi": 40,
                    "time": 183.69493199999923,
                    "velocity": 0.6141732283464567,
                    "duration": 0.5278590000000065
                },
                {
                    "name": "E1",
                    "midi": 28,
                    "time": 183.69493199999923,
                    "velocity": 0.5118110236220472,
                    "duration": 0.5278590000000065
                },
                {
                    "name": "A2",
                    "midi": 45,
                    "time": 184.22279099999923,
                    "velocity": 0.4409448818897638,
                    "duration": 0.08797649999999635
                },
                {
                    "name": "A1",
                    "midi": 33,
                    "time": 184.22279099999923,
                    "velocity": 0.3700787401574803,
                    "duration": 0.08797649999999635
                },
                {
                    "name": "E2",
                    "midi": 40,
                    "time": 184.39874399999923,
                    "velocity": 0.47244094488188976,
                    "duration": 0.08797649999999635
                },
                {
                    "name": "E1",
                    "midi": 28,
                    "time": 184.39874399999923,
                    "velocity": 0.4015748031496063,
                    "duration": 0.08797649999999635
                },
                {
                    "name": "C#2",
                    "midi": 37,
                    "time": 184.57469699999922,
                    "velocity": 0.41732283464566927,
                    "duration": 0.08797649999999635
                },
                {
                    "name": "C#1",
                    "midi": 25,
                    "time": 184.57469699999922,
                    "velocity": 0.3543307086614173,
                    "duration": 0.08797649999999635
                },
                {
                    "name": "A0",
                    "midi": 21,
                    "time": 184.7506499999992,
                    "velocity": 0.3543307086614173,
                    "duration": 0.08797649999999635
                },
                {
                    "name": "A1",
                    "midi": 33,
                    "time": 184.7506499999992,
                    "velocity": 0.3543307086614173,
                    "duration": 0.08797649999999635
                },
                {
                    "name": "C#2",
                    "midi": 37,
                    "time": 184.9266029999992,
                    "velocity": 0.41732283464566927,
                    "duration": 0.08797649999999635
                },
                {
                    "name": "C#1",
                    "midi": 25,
                    "time": 184.9266029999992,
                    "velocity": 0.3543307086614173,
                    "duration": 0.08797649999999635
                },
                {
                    "name": "E2",
                    "midi": 40,
                    "time": 185.1025559999992,
                    "velocity": 0.3937007874015748,
                    "duration": 0.08797649999999635
                },
                {
                    "name": "E1",
                    "midi": 28,
                    "time": 185.1025559999992,
                    "velocity": 0.33070866141732286,
                    "duration": 0.08797649999999635
                },
                {
                    "name": "C#2",
                    "midi": 37,
                    "time": 185.2785089999992,
                    "velocity": 0.41732283464566927,
                    "duration": 0.08797649999999635
                },
                {
                    "name": "C#1",
                    "midi": 25,
                    "time": 185.2785089999992,
                    "velocity": 0.3543307086614173,
                    "duration": 0.08797649999999635
                },
                {
                    "name": "E2",
                    "midi": 40,
                    "time": 185.45446199999918,
                    "velocity": 0.4409448818897638,
                    "duration": 0.08797649999999635
                },
                {
                    "name": "E1",
                    "midi": 28,
                    "time": 185.45446199999918,
                    "velocity": 0.3700787401574803,
                    "duration": 0.08797649999999635
                },
                {
                    "name": "A2",
                    "midi": 45,
                    "time": 185.63041499999918,
                    "velocity": 0.4645669291338583,
                    "duration": 0.08797649999999635
                },
                {
                    "name": "A1",
                    "midi": 33,
                    "time": 185.63041499999918,
                    "velocity": 0.3937007874015748,
                    "duration": 0.08797649999999635
                },
                {
                    "name": "E2",
                    "midi": 40,
                    "time": 185.80636799999917,
                    "velocity": 0.49606299212598426,
                    "duration": 0.7038119999999992
                },
                {
                    "name": "E1",
                    "midi": 28,
                    "time": 185.80636799999917,
                    "velocity": 0.41732283464566927,
                    "duration": 0.7038119999999992
                },
                {
                    "name": "A2",
                    "midi": 45,
                    "time": 186.51017999999917,
                    "velocity": 0.4566929133858268,
                    "duration": 0.08797649999999635
                },
                {
                    "name": "A1",
                    "midi": 33,
                    "time": 186.51017999999917,
                    "velocity": 0.3858267716535433,
                    "duration": 0.08797649999999635
                },
                {
                    "name": "F2",
                    "midi": 41,
                    "time": 186.81809774999917,
                    "velocity": 0.3700787401574803,
                    "duration": 0.21994124999997666
                },
                {
                    "name": "C3",
                    "midi": 48,
                    "time": 186.84009187499916,
                    "velocity": 0.4015748031496063,
                    "duration": 0.19794712499998468
                },
                {
                    "name": "A3",
                    "midi": 57,
                    "time": 186.86208599999915,
                    "velocity": 0.4566929133858268,
                    "duration": 0.1759529999999927
                },
                {
                    "name": "E2",
                    "midi": 40,
                    "time": 187.17000374999915,
                    "velocity": 0.36220472440944884,
                    "duration": 0.21994124999997666
                },
                {
                    "name": "C3",
                    "midi": 48,
                    "time": 187.19199787499915,
                    "velocity": 0.3779527559055118,
                    "duration": 0.19794712499998468
                },
                {
                    "name": "G3",
                    "midi": 55,
                    "time": 187.21399199999914,
                    "velocity": 0.4566929133858268,
                    "duration": 0.1759529999999927
                },
                {
                    "name": "F2",
                    "midi": 41,
                    "time": 187.52190974999914,
                    "velocity": 0.3700787401574803,
                    "duration": 0.21994124999997666
                },
                {
                    "name": "C3",
                    "midi": 48,
                    "time": 187.54390387499913,
                    "velocity": 0.4015748031496063,
                    "duration": 0.19794712499998468
                },
                {
                    "name": "A3",
                    "midi": 57,
                    "time": 187.56589799999912,
                    "velocity": 0.4251968503937008,
                    "duration": 0.1759529999999927
                },
                {
                    "name": "G2",
                    "midi": 43,
                    "time": 187.87381574999912,
                    "velocity": 0.4094488188976378,
                    "duration": 0.21994124999997666
                },
                {
                    "name": "E3",
                    "midi": 52,
                    "time": 187.89580987499912,
                    "velocity": 0.4330708661417323,
                    "duration": 0.19794712499998468
                },
                {
                    "name": "C4",
                    "midi": 60,
                    "time": 187.9178039999991,
                    "velocity": 0.4409448818897638,
                    "duration": 0.1759529999999927
                },
                {
                    "name": "G2",
                    "midi": 43,
                    "time": 188.2257217499991,
                    "velocity": 0.3543307086614173,
                    "duration": 0.21994124999997666
                },
                {
                    "name": "F3",
                    "midi": 53,
                    "time": 188.2477158749991,
                    "velocity": 0.3700787401574803,
                    "duration": 0.19794712499998468
                },
                {
                    "name": "B3",
                    "midi": 59,
                    "time": 188.2697099999991,
                    "velocity": 0.4015748031496063,
                    "duration": 0.1759529999999927
                },
                {
                    "name": "C3",
                    "midi": 48,
                    "time": 188.5776277499991,
                    "velocity": 0.3543307086614173,
                    "duration": 0.21994124999997666
                },
                {
                    "name": "G3",
                    "midi": 55,
                    "time": 188.5996218749991,
                    "velocity": 0.007874015748031496,
                    "duration": 0.19794712499998468
                },
                {
                    "name": "C4",
                    "midi": 60,
                    "time": 188.62161599999908,
                    "velocity": 0.4645669291338583,
                    "duration": 0.1759529999999927
                },
                {
                    "name": "E4",
                    "midi": 64,
                    "time": 188.97352199999906,
                    "velocity": 0.3543307086614173,
                    "duration": 0.08797649999999635
                },
                {
                    "name": "G4",
                    "midi": 67,
                    "time": 189.06149849999906,
                    "velocity": 0.36220472440944884,
                    "duration": 0.08797649999999635
                },
                {
                    "name": "C5",
                    "midi": 72,
                    "time": 189.14947499999906,
                    "velocity": 0.3700787401574803,
                    "duration": 0.08797649999999635
                },
                {
                    "name": "D5",
                    "midi": 74,
                    "time": 189.23745149999905,
                    "velocity": 0.3858267716535433,
                    "duration": 0.08797649999999635
                },
                {
                    "name": "E5",
                    "midi": 76,
                    "time": 189.32542799999905,
                    "velocity": 0.3858267716535433,
                    "duration": 0.08797649999999635
                },
                {
                    "name": "G3",
                    "midi": 55,
                    "time": 189.63334574999905,
                    "velocity": 0.3700787401574803,
                    "duration": 0.21994124999997666
                },
                {
                    "name": "F4",
                    "midi": 65,
                    "time": 189.65533987499904,
                    "velocity": 0.4015748031496063,
                    "duration": 0.19794712499998468
                },
                {
                    "name": "B4",
                    "midi": 71,
                    "time": 189.67733399999904,
                    "velocity": 0.4645669291338583,
                    "duration": 0.1759529999999927
                },
                {
                    "name": "C4",
                    "midi": 60,
                    "time": 190.02923999999902,
                    "velocity": 0.3543307086614173,
                    "duration": 0.1759529999999927
                },
                {
                    "name": "G4",
                    "midi": 67,
                    "time": 190.02923999999902,
                    "velocity": 0.007874015748031496,
                    "duration": 0.1759529999999927
                },
                {
                    "name": "C5",
                    "midi": 72,
                    "time": 190.02923999999902,
                    "velocity": 0.4645669291338583,
                    "duration": 0.1759529999999927
                },
                {
                    "name": "E5",
                    "midi": 76,
                    "time": 190.381145999999,
                    "velocity": 0.3543307086614173,
                    "duration": 0.08797649999999635
                },
                {
                    "name": "G5",
                    "midi": 79,
                    "time": 190.469122499999,
                    "velocity": 0.36220472440944884,
                    "duration": 0.08797649999999635
                },
                {
                    "name": "C6",
                    "midi": 84,
                    "time": 190.557098999999,
                    "velocity": 0.3700787401574803,
                    "duration": 0.08797649999999635
                },
                {
                    "name": "D6",
                    "midi": 86,
                    "time": 190.645075499999,
                    "velocity": 0.3858267716535433,
                    "duration": 0.08797649999999635
                },
                {
                    "name": "E6",
                    "midi": 88,
                    "time": 190.733051999999,
                    "velocity": 0.3858267716535433,
                    "duration": 0.08797649999999635
                },
                {
                    "name": "G4",
                    "midi": 67,
                    "time": 191.040969749999,
                    "velocity": 0.3700787401574803,
                    "duration": 0.21994124999997666
                },
                {
                    "name": "F5",
                    "midi": 77,
                    "time": 191.06296387499899,
                    "velocity": 0.4015748031496063,
                    "duration": 0.19794712499998468
                },
                {
                    "name": "B5",
                    "midi": 83,
                    "time": 191.08495799999898,
                    "velocity": 0.4645669291338583,
                    "duration": 0.1759529999999927
                },
                {
                    "name": "C6",
                    "midi": 84,
                    "time": 191.43686399999896,
                    "velocity": 0.3937007874015748,
                    "duration": 0.08797649999999635
                },
                {
                    "name": "C5",
                    "midi": 72,
                    "time": 191.43686399999896,
                    "velocity": 0.33070866141732286,
                    "duration": 0.08797649999999635
                },
                {
                    "name": "E5",
                    "midi": 76,
                    "time": 191.43686399999896,
                    "velocity": 0.33070866141732286,
                    "duration": 0.08797649999999635
                },
                {
                    "name": "G4",
                    "midi": 67,
                    "time": 191.78876999999895,
                    "velocity": 0.3937007874015748,
                    "duration": 0.08797649999999635
                },
                {
                    "name": "B5",
                    "midi": 83,
                    "time": 191.96472299999894,
                    "velocity": 0.36220472440944884,
                    "duration": 0.08797649999999635
                },
                {
                    "name": "F5",
                    "midi": 77,
                    "time": 191.96472299999894,
                    "velocity": 0.30708661417322836,
                    "duration": 0.08797649999999635
                },
                {
                    "name": "D5",
                    "midi": 74,
                    "time": 191.96472299999894,
                    "velocity": 0.30708661417322836,
                    "duration": 0.08797649999999635
                },
                {
                    "name": "C5",
                    "midi": 72,
                    "time": 192.14067599999893,
                    "velocity": 0.3937007874015748,
                    "duration": 0.08797649999999635
                },
                {
                    "name": "C6",
                    "midi": 84,
                    "time": 192.31662899999893,
                    "velocity": 0.36220472440944884,
                    "duration": 0.08797649999999635
                },
                {
                    "name": "G5",
                    "midi": 79,
                    "time": 192.31662899999893,
                    "velocity": 0.30708661417322836,
                    "duration": 0.08797649999999635
                },
                {
                    "name": "E5",
                    "midi": 76,
                    "time": 192.31662899999893,
                    "velocity": 0.30708661417322836,
                    "duration": 0.08797649999999635
                },
                {
                    "name": "G4",
                    "midi": 67,
                    "time": 192.49258199999892,
                    "velocity": 0.3937007874015748,
                    "duration": 0.08797649999999635
                },
                {
                    "name": "B5",
                    "midi": 83,
                    "time": 192.6685349999989,
                    "velocity": 0.36220472440944884,
                    "duration": 0.08797649999999635
                },
                {
                    "name": "F5",
                    "midi": 77,
                    "time": 192.6685349999989,
                    "velocity": 0.30708661417322836,
                    "duration": 0.08797649999999635
                },
                {
                    "name": "D5",
                    "midi": 74,
                    "time": 192.6685349999989,
                    "velocity": 0.30708661417322836,
                    "duration": 0.08797649999999635
                },
                {
                    "name": "C5",
                    "midi": 72,
                    "time": 192.8444879999989,
                    "velocity": 0.3937007874015748,
                    "duration": 0.08797649999999635
                },
                {
                    "name": "C6",
                    "midi": 84,
                    "time": 193.0204409999989,
                    "velocity": 0.36220472440944884,
                    "duration": 0.08797649999999635
                },
                {
                    "name": "G5",
                    "midi": 79,
                    "time": 193.0204409999989,
                    "velocity": 0.30708661417322836,
                    "duration": 0.08797649999999635
                },
                {
                    "name": "E5",
                    "midi": 76,
                    "time": 193.0204409999989,
                    "velocity": 0.30708661417322836,
                    "duration": 0.08797649999999635
                },
                {
                    "name": "G4",
                    "midi": 67,
                    "time": 193.1963939999989,
                    "velocity": 0.3937007874015748,
                    "duration": 0.08797649999999635
                },
                {
                    "name": "B5",
                    "midi": 83,
                    "time": 193.37234699999888,
                    "velocity": 0.36220472440944884,
                    "duration": 0.08797649999999635
                },
                {
                    "name": "F5",
                    "midi": 77,
                    "time": 193.37234699999888,
                    "velocity": 0.30708661417322836,
                    "duration": 0.08797649999999635
                },
                {
                    "name": "D5",
                    "midi": 74,
                    "time": 193.37234699999888,
                    "velocity": 0.30708661417322836,
                    "duration": 0.08797649999999635
                },
                {
                    "name": "C5",
                    "midi": 72,
                    "time": 193.54829999999887,
                    "velocity": 0.3937007874015748,
                    "duration": 0.08797649999999635
                },
                {
                    "name": "C6",
                    "midi": 84,
                    "time": 193.72425299999887,
                    "velocity": 0.36220472440944884,
                    "duration": 0.08797649999999635
                },
                {
                    "name": "G5",
                    "midi": 79,
                    "time": 193.72425299999887,
                    "velocity": 0.30708661417322836,
                    "duration": 0.08797649999999635
                },
                {
                    "name": "E5",
                    "midi": 76,
                    "time": 193.72425299999887,
                    "velocity": 0.30708661417322836,
                    "duration": 0.08797649999999635
                },
                {
                    "name": "G4",
                    "midi": 67,
                    "time": 193.90020599999886,
                    "velocity": 0.3937007874015748,
                    "duration": 0.08797649999999635
                },
                {
                    "name": "B5",
                    "midi": 83,
                    "time": 194.07615899999885,
                    "velocity": 0.36220472440944884,
                    "duration": 0.08797649999999635
                },
                {
                    "name": "F5",
                    "midi": 77,
                    "time": 194.07615899999885,
                    "velocity": 0.30708661417322836,
                    "duration": 0.08797649999999635
                },
                {
                    "name": "D5",
                    "midi": 74,
                    "time": 194.07615899999885,
                    "velocity": 0.30708661417322836,
                    "duration": 0.08797649999999635
                },
                {
                    "name": "C5",
                    "midi": 72,
                    "time": 194.21912081249886,
                    "velocity": 0.3543307086614173,
                    "duration": 0.12096768749998432
                },
                {
                    "name": "E5",
                    "midi": 76,
                    "time": 194.23011787499885,
                    "velocity": 0.36220472440944884,
                    "duration": 0.10997062499998833
                },
                {
                    "name": "G5",
                    "midi": 79,
                    "time": 194.24111493749885,
                    "velocity": 0.3779527559055118,
                    "duration": 0.09897356249999234
                },
                {
                    "name": "C6",
                    "midi": 84,
                    "time": 194.25211199999885,
                    "velocity": 0.3937007874015748,
                    "duration": 0.08797649999999635
                },
                {
                    "name": "E4",
                    "midi": 64,
                    "time": 194.60401799999883,
                    "velocity": 0.2125984251968504,
                    "duration": 0.08797649999999635
                },
                {
                    "name": "F4",
                    "midi": 65,
                    "time": 194.69199449999883,
                    "velocity": 0.2204724409448819,
                    "duration": 0.08797649999999635
                },
                {
                    "name": "F#4",
                    "midi": 66,
                    "time": 194.77997099999882,
                    "velocity": 0.2283464566929134,
                    "duration": 0.08797649999999635
                },
                {
                    "name": "G4",
                    "midi": 67,
                    "time": 194.86794749999882,
                    "velocity": 0.23622047244094488,
                    "duration": 0.08797649999999635
                },
                {
                    "name": "G#4",
                    "midi": 68,
                    "time": 194.95592399999882,
                    "velocity": 0.2440944881889764,
                    "duration": 0.08797649999999635
                },
                {
                    "name": "A4",
                    "midi": 69,
                    "time": 195.0439004999988,
                    "velocity": 0.25196850393700787,
                    "duration": 0.08797649999999635
                },
                {
                    "name": "A#4",
                    "midi": 70,
                    "time": 195.1318769999988,
                    "velocity": 0.25984251968503935,
                    "duration": 0.08797649999999635
                },
                {
                    "name": "B4",
                    "midi": 71,
                    "time": 195.2198534999988,
                    "velocity": 0.2677165354330709,
                    "duration": 0.08797649999999635
                },
                {
                    "name": "C5",
                    "midi": 72,
                    "time": 195.3078299999988,
                    "velocity": 0.2755905511811024,
                    "duration": 0.08797649999999635
                },
                {
                    "name": "C#5",
                    "midi": 73,
                    "time": 195.3958064999988,
                    "velocity": 0.28346456692913385,
                    "duration": 0.08797649999999635
                },
                {
                    "name": "D5",
                    "midi": 74,
                    "time": 195.4837829999988,
                    "velocity": 0.29133858267716534,
                    "duration": 0.08797649999999635
                },
                {
                    "name": "D#5",
                    "midi": 75,
                    "time": 195.5717594999988,
                    "velocity": 0.2992125984251969,
                    "duration": 0.08797649999999635
                },
                {
                    "name": "E5",
                    "midi": 76,
                    "time": 195.6597359999988,
                    "velocity": 0.31496062992125984,
                    "duration": 0.08797649999999635
                },
                {
                    "name": "F5",
                    "midi": 77,
                    "time": 195.74771249999878,
                    "velocity": 0.3228346456692913,
                    "duration": 0.08797649999999635
                },
                {
                    "name": "F#5",
                    "midi": 78,
                    "time": 195.83568899999878,
                    "velocity": 0.33070866141732286,
                    "duration": 0.08797649999999635
                },
                {
                    "name": "G5",
                    "midi": 79,
                    "time": 195.92366549999878,
                    "velocity": 0.33858267716535434,
                    "duration": 0.08797649999999635
                },
                {
                    "name": "G#5",
                    "midi": 80,
                    "time": 196.01164199999877,
                    "velocity": 0.3464566929133858,
                    "duration": 0.08797649999999635
                },
                {
                    "name": "A5",
                    "midi": 81,
                    "time": 196.09961849999877,
                    "velocity": 0.3543307086614173,
                    "duration": 0.08797649999999635
                },
                {
                    "name": "A#5",
                    "midi": 82,
                    "time": 196.18759499999877,
                    "velocity": 0.36220472440944884,
                    "duration": 0.08797649999999635
                },
                {
                    "name": "B5",
                    "midi": 83,
                    "time": 196.27557149999876,
                    "velocity": 0.3700787401574803,
                    "duration": 0.08797649999999635
                },
                {
                    "name": "C6",
                    "midi": 84,
                    "time": 196.36354799999876,
                    "velocity": 0.3779527559055118,
                    "duration": 0.07038120000001413
                },
                {
                    "name": "C#6",
                    "midi": 85,
                    "time": 196.43392919999877,
                    "velocity": 0.3858267716535433,
                    "duration": 0.07038120000001413
                },
                {
                    "name": "D6",
                    "midi": 86,
                    "time": 196.5043103999988,
                    "velocity": 0.3937007874015748,
                    "duration": 0.07038120000001413
                },
                {
                    "name": "D#6",
                    "midi": 87,
                    "time": 196.5746915999988,
                    "velocity": 0.4015748031496063,
                    "duration": 0.07038120000001413
                },
                {
                    "name": "E6",
                    "midi": 88,
                    "time": 196.64507279999881,
                    "velocity": 0.4094488188976378,
                    "duration": 0.07038120000001413
                },
                {
                    "name": "C#5",
                    "midi": 73,
                    "time": 197.41926599999883,
                    "velocity": 0.3464566929133858,
                    "duration": 0.08797649999999635
                },
                {
                    "name": "E5",
                    "midi": 76,
                    "time": 197.59521899999882,
                    "velocity": 0.30708661417322836,
                    "duration": 0.08797649999999635
                },
                {
                    "name": "A4",
                    "midi": 69,
                    "time": 197.7711719999988,
                    "velocity": 0.3464566929133858,
                    "duration": 0.08797649999999635
                },
                {
                    "name": "A3",
                    "midi": 57,
                    "time": 197.7711719999988,
                    "velocity": 0.28346456692913385,
                    "duration": 0.08797649999999635
                },
                {
                    "name": "E4",
                    "midi": 64,
                    "time": 197.7711719999988,
                    "velocity": 0.28346456692913385,
                    "duration": 0.08797649999999635
                },
                {
                    "name": "C#5",
                    "midi": 73,
                    "time": 198.8268899999988,
                    "velocity": 0.3464566929133858,
                    "duration": 0.08797649999999635
                },
                {
                    "name": "E5",
                    "midi": 76,
                    "time": 199.0028429999988,
                    "velocity": 0.30708661417322836,
                    "duration": 0.08797649999999635
                },
                {
                    "name": "A4",
                    "midi": 69,
                    "time": 199.17879599999878,
                    "velocity": 0.3464566929133858,
                    "duration": 0.08797649999999635
                },
                {
                    "name": "A3",
                    "midi": 57,
                    "time": 199.17879599999878,
                    "velocity": 0.28346456692913385,
                    "duration": 0.08797649999999635
                },
                {
                    "name": "E4",
                    "midi": 64,
                    "time": 199.17879599999878,
                    "velocity": 0.28346456692913385,
                    "duration": 0.08797649999999635
                },
                {
                    "name": "C#5",
                    "midi": 73,
                    "time": 199.53070199999877,
                    "velocity": 0.3543307086614173,
                    "duration": 0.08797649999999635
                },
                {
                    "name": "B5",
                    "midi": 83,
                    "time": 199.70665499999876,
                    "velocity": 0.31496062992125984,
                    "duration": 0.08797649999999635
                },
                {
                    "name": "F5",
                    "midi": 77,
                    "time": 199.70665499999876,
                    "velocity": 0.2677165354330709,
                    "duration": 0.08797649999999635
                },
                {
                    "name": "F#5",
                    "midi": 78,
                    "time": 199.88260799999875,
                    "velocity": 0.3543307086614173,
                    "duration": 0.08797649999999635
                },
                {
                    "name": "A5",
                    "midi": 81,
                    "time": 200.05856099999875,
                    "velocity": 0.30708661417322836,
                    "duration": 0.08797649999999635
                },
                {
                    "name": "C#5",
                    "midi": 73,
                    "time": 200.23451399999874,
                    "velocity": 0.3464566929133858,
                    "duration": 0.08797649999999635
                },
                {
                    "name": "B5",
                    "midi": 83,
                    "time": 200.41046699999873,
                    "velocity": 0.30708661417322836,
                    "duration": 0.08797649999999635
                },
                {
                    "name": "G#5",
                    "midi": 80,
                    "time": 200.41046699999873,
                    "velocity": 0.30708661417322836,
                    "duration": 0.08797649999999635
                },
                {
                    "name": "F#5",
                    "midi": 78,
                    "time": 200.58641999999872,
                    "velocity": 0.3464566929133858,
                    "duration": 0.08797649999999635
                },
                {
                    "name": "A5",
                    "midi": 81,
                    "time": 200.76237299999872,
                    "velocity": 0.30708661417322836,
                    "duration": 0.08797649999999635
                },
                {
                    "name": "C#5",
                    "midi": 73,
                    "time": 200.9383259999987,
                    "velocity": 0.3464566929133858,
                    "duration": 0.08797649999999635
                },
                {
                    "name": "B5",
                    "midi": 83,
                    "time": 201.1142789999987,
                    "velocity": 0.31496062992125984,
                    "duration": 0.08797649999999635
                },
                {
                    "name": "G#5",
                    "midi": 80,
                    "time": 201.1142789999987,
                    "velocity": 0.31496062992125984,
                    "duration": 0.08797649999999635
                },
                {
                    "name": "A5",
                    "midi": 81,
                    "time": 201.2902319999987,
                    "velocity": 0.3464566929133858,
                    "duration": 0.08797649999999635
                },
                {
                    "name": "F#5",
                    "midi": 78,
                    "time": 201.2902319999987,
                    "velocity": 0.3464566929133858,
                    "duration": 0.08797649999999635
                },
                {
                    "name": "A4",
                    "midi": 69,
                    "time": 202.34594999999868,
                    "velocity": 0.3543307086614173,
                    "duration": 0.08797649999999635
                },
                {
                    "name": "G5",
                    "midi": 79,
                    "time": 202.52190299999867,
                    "velocity": 0.31496062992125984,
                    "duration": 0.08797649999999635
                },
                {
                    "name": "C#5",
                    "midi": 73,
                    "time": 202.52190299999867,
                    "velocity": 0.2677165354330709,
                    "duration": 0.08797649999999635
                },
                {
                    "name": "D5",
                    "midi": 74,
                    "time": 202.69785599999867,
                    "velocity": 0.3543307086614173,
                    "duration": 0.08797649999999635
                },
                {
                    "name": "F#5",
                    "midi": 78,
                    "time": 202.87380899999866,
                    "velocity": 0.30708661417322836,
                    "duration": 0.08797649999999635
                },
                {
                    "name": "A5",
                    "midi": 81,
                    "time": 202.87380899999866,
                    "velocity": 0.30708661417322836,
                    "duration": 0.08797649999999635
                },
                {
                    "name": "A4",
                    "midi": 69,
                    "time": 203.04976199999865,
                    "velocity": 0.3464566929133858,
                    "duration": 0.08797649999999635
                },
                {
                    "name": "G5",
                    "midi": 79,
                    "time": 203.22571499999864,
                    "velocity": 0.30708661417322836,
                    "duration": 0.08797649999999635
                },
                {
                    "name": "E5",
                    "midi": 76,
                    "time": 203.22571499999864,
                    "velocity": 0.30708661417322836,
                    "duration": 0.08797649999999635
                },
                {
                    "name": "D5",
                    "midi": 74,
                    "time": 203.40166799999864,
                    "velocity": 0.3464566929133858,
                    "duration": 0.08797649999999635
                },
                {
                    "name": "F#5",
                    "midi": 78,
                    "time": 203.57762099999863,
                    "velocity": 0.30708661417322836,
                    "duration": 0.08797649999999635
                },
                {
                    "name": "A5",
                    "midi": 81,
                    "time": 203.57762099999863,
                    "velocity": 0.30708661417322836,
                    "duration": 0.08797649999999635
                },
                {
                    "name": "A4",
                    "midi": 69,
                    "time": 203.75357399999862,
                    "velocity": 0.3464566929133858,
                    "duration": 0.08797649999999635
                },
                {
                    "name": "G5",
                    "midi": 79,
                    "time": 203.92952699999861,
                    "velocity": 0.31496062992125984,
                    "duration": 0.08797649999999635
                },
                {
                    "name": "E5",
                    "midi": 76,
                    "time": 203.92952699999861,
                    "velocity": 0.31496062992125984,
                    "duration": 0.08797649999999635
                },
                {
                    "name": "F#5",
                    "midi": 78,
                    "time": 204.1054799999986,
                    "velocity": 0.3464566929133858,
                    "duration": 0.08797649999999635
                },
                {
                    "name": "D5",
                    "midi": 74,
                    "time": 204.1054799999986,
                    "velocity": 0.3464566929133858,
                    "duration": 0.08797649999999635
                },
                {
                    "name": "D5",
                    "midi": 74,
                    "time": 205.8650099999986,
                    "velocity": 0.3464566929133858,
                    "duration": 0.08797649999999635
                },
                {
                    "name": "F#5",
                    "midi": 78,
                    "time": 206.04096299999858,
                    "velocity": 0.30708661417322836,
                    "duration": 0.08797649999999635
                },
                {
                    "name": "B4",
                    "midi": 71,
                    "time": 206.21691599999858,
                    "velocity": 0.3464566929133858,
                    "duration": 0.08797649999999635
                },
                {
                    "name": "D4",
                    "midi": 62,
                    "time": 206.21691599999858,
                    "velocity": 0.28346456692913385,
                    "duration": 0.08797649999999635
                },
                {
                    "name": "F#4",
                    "midi": 66,
                    "time": 206.21691599999858,
                    "velocity": 0.28346456692913385,
                    "duration": 0.08797649999999635
                },
                {
                    "name": "D5",
                    "midi": 74,
                    "time": 207.27263399999856,
                    "velocity": 0.3464566929133858,
                    "duration": 0.08797649999999635
                },
                {
                    "name": "F#5",
                    "midi": 78,
                    "time": 207.44858699999855,
                    "velocity": 0.30708661417322836,
                    "duration": 0.08797649999999635
                },
                {
                    "name": "B4",
                    "midi": 71,
                    "time": 207.62453999999855,
                    "velocity": 0.3464566929133858,
                    "duration": 0.08797649999999635
                },
                {
                    "name": "D4",
                    "midi": 62,
                    "time": 207.62453999999855,
                    "velocity": 0.28346456692913385,
                    "duration": 0.08797649999999635
                },
                {
                    "name": "F#4",
                    "midi": 66,
                    "time": 207.62453999999855,
                    "velocity": 0.28346456692913385,
                    "duration": 0.08797649999999635
                },
                {
                    "name": "D5",
                    "midi": 74,
                    "time": 208.68025799999853,
                    "velocity": 0.3464566929133858,
                    "duration": 0.08797649999999635
                },
                {
                    "name": "F5",
                    "midi": 77,
                    "time": 208.85621099999852,
                    "velocity": 0.30708661417322836,
                    "duration": 0.08797649999999635
                },
                {
                    "name": "A#4",
                    "midi": 70,
                    "time": 209.03216399999852,
                    "velocity": 0.3464566929133858,
                    "duration": 0.08797649999999635
                },
                {
                    "name": "D4",
                    "midi": 62,
                    "time": 209.03216399999852,
                    "velocity": 0.28346456692913385,
                    "duration": 0.08797649999999635
                },
                {
                    "name": "F4",
                    "midi": 65,
                    "time": 209.03216399999852,
                    "velocity": 0.28346456692913385,
                    "duration": 0.08797649999999635
                },
                {
                    "name": "D5",
                    "midi": 74,
                    "time": 210.0878819999985,
                    "velocity": 0.3464566929133858,
                    "duration": 0.08797649999999635
                },
                {
                    "name": "F5",
                    "midi": 77,
                    "time": 210.2638349999985,
                    "velocity": 0.30708661417322836,
                    "duration": 0.08797649999999635
                },
                {
                    "name": "A#4",
                    "midi": 70,
                    "time": 210.4397879999985,
                    "velocity": 0.3464566929133858,
                    "duration": 0.08797649999999635
                },
                {
                    "name": "D4",
                    "midi": 62,
                    "time": 210.4397879999985,
                    "velocity": 0.28346456692913385,
                    "duration": 0.08797649999999635
                },
                {
                    "name": "F4",
                    "midi": 65,
                    "time": 210.4397879999985,
                    "velocity": 0.28346456692913385,
                    "duration": 0.08797649999999635
                },
                {
                    "name": "A#4",
                    "midi": 70,
                    "time": 213.7828949999985,
                    "velocity": 0.2677165354330709,
                    "duration": 0.1759529999999927
                },
                {
                    "name": "F4",
                    "midi": 65,
                    "time": 213.95884799999848,
                    "velocity": 0.28346456692913385,
                    "duration": 0.5278590000000065
                },
                {
                    "name": "F5",
                    "midi": 77,
                    "time": 213.95884799999848,
                    "velocity": 0.28346456692913385,
                    "duration": 0.5278590000000065
                },
                {
                    "name": "A#4",
                    "midi": 70,
                    "time": 214.4867069999985,
                    "velocity": 0.2677165354330709,
                    "duration": 0.1759529999999927
                },
                {
                    "name": "F4",
                    "midi": 65,
                    "time": 214.66265999999848,
                    "velocity": 0.28346456692913385,
                    "duration": 0.5278590000000065
                },
                {
                    "name": "F5",
                    "midi": 77,
                    "time": 214.66265999999848,
                    "velocity": 0.28346456692913385,
                    "duration": 0.5278590000000065
                },
                {
                    "name": "A#4",
                    "midi": 70,
                    "time": 215.1905189999985,
                    "velocity": 0.2755905511811024,
                    "duration": 0.1759529999999927
                },
                {
                    "name": "F4",
                    "midi": 65,
                    "time": 215.36647199999848,
                    "velocity": 0.28346456692913385,
                    "duration": 0.1759529999999927
                },
                {
                    "name": "F5",
                    "midi": 77,
                    "time": 215.36647199999848,
                    "velocity": 0.28346456692913385,
                    "duration": 0.1759529999999927
                },
                {
                    "name": "A#4",
                    "midi": 70,
                    "time": 215.54242499999847,
                    "velocity": 0.25984251968503935,
                    "duration": 0.1759529999999927
                },
                {
                    "name": "F4",
                    "midi": 65,
                    "time": 215.71837799999847,
                    "velocity": 0.28346456692913385,
                    "duration": 0.1759529999999927
                },
                {
                    "name": "F5",
                    "midi": 77,
                    "time": 215.71837799999847,
                    "velocity": 0.28346456692913385,
                    "duration": 0.1759529999999927
                },
                {
                    "name": "A#4",
                    "midi": 70,
                    "time": 215.89433099999846,
                    "velocity": 0.25196850393700787,
                    "duration": 0.1759529999999927
                },
                {
                    "name": "F4",
                    "midi": 65,
                    "time": 216.07028399999845,
                    "velocity": 0.28346456692913385,
                    "duration": 0.1759529999999927
                },
                {
                    "name": "F5",
                    "midi": 77,
                    "time": 216.07028399999845,
                    "velocity": 0.28346456692913385,
                    "duration": 0.1759529999999927
                },
                {
                    "name": "A#4",
                    "midi": 70,
                    "time": 216.24623699999844,
                    "velocity": 0.25984251968503935,
                    "duration": 0.1759529999999927
                },
                {
                    "name": "F4",
                    "midi": 65,
                    "time": 216.42218999999844,
                    "velocity": 0.28346456692913385,
                    "duration": 0.1759529999999927
                },
                {
                    "name": "F5",
                    "midi": 77,
                    "time": 216.42218999999844,
                    "velocity": 0.28346456692913385,
                    "duration": 0.1759529999999927
                },
                {
                    "name": "A#4",
                    "midi": 70,
                    "time": 216.59814299999843,
                    "velocity": 0.25984251968503935,
                    "duration": 0.1759529999999927
                },
                {
                    "name": "F4",
                    "midi": 65,
                    "time": 216.77409599999842,
                    "velocity": 0.28346456692913385,
                    "duration": 0.08797649999999635
                },
                {
                    "name": "F5",
                    "midi": 77,
                    "time": 216.77409599999842,
                    "velocity": 0.28346456692913385,
                    "duration": 0.08797649999999635
                },
                {
                    "name": "D4",
                    "midi": 62,
                    "time": 221.34887399999843,
                    "velocity": 0.3858267716535433,
                    "duration": 0.08797649999999635
                },
                {
                    "name": "A#3",
                    "midi": 58,
                    "time": 221.34887399999843,
                    "velocity": 0.2755905511811024,
                    "duration": 0.08797649999999635
                },
                {
                    "name": "C#4",
                    "midi": 61,
                    "time": 221.43685049999843,
                    "velocity": 0.4094488188976378,
                    "duration": 0.08797649999999635
                },
                {
                    "name": "A3",
                    "midi": 57,
                    "time": 221.43685049999843,
                    "velocity": 0.33858267716535434,
                    "duration": 0.08797649999999635
                },
                {
                    "name": "C4",
                    "midi": 60,
                    "time": 221.52482699999842,
                    "velocity": 0.4094488188976378,
                    "duration": 0.08797649999999635
                },
                {
                    "name": "G#3",
                    "midi": 56,
                    "time": 221.52482699999842,
                    "velocity": 0.33858267716535434,
                    "duration": 0.08797649999999635
                },
                {
                    "name": "B3",
                    "midi": 59,
                    "time": 221.61280349999842,
                    "velocity": 0.41732283464566927,
                    "duration": 0.08797649999999635
                },
                {
                    "name": "G3",
                    "midi": 55,
                    "time": 221.61280349999842,
                    "velocity": 0.3464566929133858,
                    "duration": 0.08797649999999635
                },
                {
                    "name": "A#3",
                    "midi": 58,
                    "time": 221.70077999999842,
                    "velocity": 0.41732283464566927,
                    "duration": 0.08797649999999635
                },
                {
                    "name": "F#3",
                    "midi": 54,
                    "time": 221.70077999999842,
                    "velocity": 0.3464566929133858,
                    "duration": 0.08797649999999635
                },
                {
                    "name": "A3",
                    "midi": 57,
                    "time": 221.7887564999984,
                    "velocity": 0.41732283464566927,
                    "duration": 0.08797649999999635
                },
                {
                    "name": "F3",
                    "midi": 53,
                    "time": 221.7887564999984,
                    "velocity": 0.3464566929133858,
                    "duration": 0.08797649999999635
                },
                {
                    "name": "G#3",
                    "midi": 56,
                    "time": 221.8767329999984,
                    "velocity": 0.4251968503937008,
                    "duration": 0.08797649999999635
                },
                {
                    "name": "E3",
                    "midi": 52,
                    "time": 221.8767329999984,
                    "velocity": 0.3543307086614173,
                    "duration": 0.08797649999999635
                },
                {
                    "name": "G3",
                    "midi": 55,
                    "time": 221.9647094999984,
                    "velocity": 0.4251968503937008,
                    "duration": 0.08797649999999635
                },
                {
                    "name": "D#3",
                    "midi": 51,
                    "time": 221.9647094999984,
                    "velocity": 0.3543307086614173,
                    "duration": 0.08797649999999635
                },
                {
                    "name": "F#3",
                    "midi": 54,
                    "time": 222.0526859999984,
                    "velocity": 0.4251968503937008,
                    "duration": 0.08797649999999635
                },
                {
                    "name": "D3",
                    "midi": 50,
                    "time": 222.0526859999984,
                    "velocity": 0.3543307086614173,
                    "duration": 0.08797649999999635
                },
                {
                    "name": "F3",
                    "midi": 53,
                    "time": 222.1406624999984,
                    "velocity": 0.4330708661417323,
                    "duration": 0.08797649999999635
                },
                {
                    "name": "C#3",
                    "midi": 49,
                    "time": 222.1406624999984,
                    "velocity": 0.36220472440944884,
                    "duration": 0.08797649999999635
                },
                {
                    "name": "E3",
                    "midi": 52,
                    "time": 222.2286389999984,
                    "velocity": 0.4330708661417323,
                    "duration": 0.08797649999999635
                },
                {
                    "name": "C3",
                    "midi": 48,
                    "time": 222.2286389999984,
                    "velocity": 0.36220472440944884,
                    "duration": 0.08797649999999635
                },
                {
                    "name": "D#3",
                    "midi": 51,
                    "time": 222.3166154999984,
                    "velocity": 0.4330708661417323,
                    "duration": 0.08797649999999635
                },
                {
                    "name": "B2",
                    "midi": 47,
                    "time": 222.3166154999984,
                    "velocity": 0.36220472440944884,
                    "duration": 0.08797649999999635
                },
                {
                    "name": "D3",
                    "midi": 50,
                    "time": 222.4045919999984,
                    "velocity": 0.4409448818897638,
                    "duration": 0.08797649999999635
                },
                {
                    "name": "A#2",
                    "midi": 46,
                    "time": 222.4045919999984,
                    "velocity": 0.3700787401574803,
                    "duration": 0.08797649999999635
                },
                {
                    "name": "C#3",
                    "midi": 49,
                    "time": 222.49256849999838,
                    "velocity": 0.4409448818897638,
                    "duration": 0.08797649999999635
                },
                {
                    "name": "A2",
                    "midi": 45,
                    "time": 222.49256849999838,
                    "velocity": 0.3700787401574803,
                    "duration": 0.08797649999999635
                },
                {
                    "name": "C3",
                    "midi": 48,
                    "time": 222.58054499999838,
                    "velocity": 0.44881889763779526,
                    "duration": 0.08797649999999635
                },
                {
                    "name": "G#2",
                    "midi": 44,
                    "time": 222.58054499999838,
                    "velocity": 0.3779527559055118,
                    "duration": 0.08797649999999635
                },
                {
                    "name": "B2",
                    "midi": 47,
                    "time": 222.66852149999838,
                    "velocity": 0.44881889763779526,
                    "duration": 0.08797649999999635
                },
                {
                    "name": "G2",
                    "midi": 43,
                    "time": 222.66852149999838,
                    "velocity": 0.3779527559055118,
                    "duration": 0.08797649999999635
                },
                {
                    "name": "A#2",
                    "midi": 46,
                    "time": 222.75649799999837,
                    "velocity": 0.4330708661417323,
                    "duration": 0.08797649999999635
                },
                {
                    "name": "F#2",
                    "midi": 42,
                    "time": 222.75649799999837,
                    "velocity": 0.36220472440944884,
                    "duration": 0.08797649999999635
                },
                {
                    "name": "A2",
                    "midi": 45,
                    "time": 222.84447449999837,
                    "velocity": 0.4094488188976378,
                    "duration": 0.08797649999999635
                },
                {
                    "name": "F2",
                    "midi": 41,
                    "time": 222.84447449999837,
                    "velocity": 0.33858267716535434,
                    "duration": 0.08797649999999635
                },
                {
                    "name": "G#2",
                    "midi": 44,
                    "time": 222.93245099999837,
                    "velocity": 0.3858267716535433,
                    "duration": 0.08797649999999635
                },
                {
                    "name": "E2",
                    "midi": 40,
                    "time": 222.93245099999837,
                    "velocity": 0.3228346456692913,
                    "duration": 0.08797649999999635
                },
                {
                    "name": "A2",
                    "midi": 45,
                    "time": 223.02042749999836,
                    "velocity": 0.3543307086614173,
                    "duration": 0.08797649999999635
                },
                {
                    "name": "D#2",
                    "midi": 39,
                    "time": 223.02042749999836,
                    "velocity": 0.2992125984251969,
                    "duration": 0.08797649999999635
                },
                {
                    "name": "A#2",
                    "midi": 46,
                    "time": 223.10840399999836,
                    "velocity": 0.33858267716535434,
                    "duration": 0.08797649999999635
                },
                {
                    "name": "D2",
                    "midi": 38,
                    "time": 223.10840399999836,
                    "velocity": 0.29133858267716534,
                    "duration": 0.1759529999999927
                },
                {
                    "name": "B2",
                    "midi": 47,
                    "time": 223.19638049999836,
                    "velocity": 0.33858267716535434,
                    "duration": 0.08797649999999635
                },
                {
                    "name": "C3",
                    "midi": 48,
                    "time": 223.28435699999835,
                    "velocity": 0.33070866141732286,
                    "duration": 0.08797649999999635
                },
                {
                    "name": "C#2",
                    "midi": 37,
                    "time": 223.28435699999835,
                    "velocity": 0.28346456692913385,
                    "duration": 0.08797649999999635
                },
                {
                    "name": "C#3",
                    "midi": 49,
                    "time": 223.37233349999835,
                    "velocity": 0.3228346456692913,
                    "duration": 0.08797649999999635
                },
                {
                    "name": "C2",
                    "midi": 36,
                    "time": 223.37233349999835,
                    "velocity": 0.2755905511811024,
                    "duration": 0.08797649999999635
                },
                {
                    "name": "D3",
                    "midi": 50,
                    "time": 223.46030999999834,
                    "velocity": 0.3228346456692913,
                    "duration": 0.11730199999999513
                },
                {
                    "name": "B1",
                    "midi": 35,
                    "time": 223.46030999999834,
                    "velocity": 0.2755905511811024,
                    "duration": 0.11730199999999513
                },
                {
                    "name": "D#3",
                    "midi": 51,
                    "time": 223.57761199999834,
                    "velocity": 0.31496062992125984,
                    "duration": 0.11730199999999513
                },
                {
                    "name": "A#1",
                    "midi": 34,
                    "time": 223.57761199999834,
                    "velocity": 0.2677165354330709,
                    "duration": 0.11730199999999513
                },
                {
                    "name": "E3",
                    "midi": 52,
                    "time": 223.69491399999833,
                    "velocity": 0.30708661417322836,
                    "duration": 0.11730199999999513
                },
                {
                    "name": "A1",
                    "midi": 33,
                    "time": 223.69491399999833,
                    "velocity": 0.25984251968503935,
                    "duration": 0.11730199999999513
                },
                {
                    "name": "G#1",
                    "midi": 32,
                    "time": 223.81221599999833,
                    "velocity": 0.2440944881889764,
                    "duration": 0.11730199999999513
                },
                {
                    "name": "D2",
                    "midi": 38,
                    "time": 223.92951799999832,
                    "velocity": 0.2125984251968504,
                    "duration": 0.11730199999999513
                },
                {
                    "name": "F2",
                    "midi": 41,
                    "time": 224.04681999999832,
                    "velocity": 0.2125984251968504,
                    "duration": 0.11730199999999513
                },
                {
                    "name": "G1",
                    "midi": 31,
                    "time": 224.16412199999832,
                    "velocity": 0.2440944881889764,
                    "duration": 0.11730199999999513
                },
                {
                    "name": "C#2",
                    "midi": 37,
                    "time": 224.2814239999983,
                    "velocity": 0.2204724409448819,
                    "duration": 0.11730199999999513
                },
                {
                    "name": "E2",
                    "midi": 40,
                    "time": 224.3987259999983,
                    "velocity": 0.2204724409448819,
                    "duration": 0.11730199999999513
                },
                {
                    "name": "G#1",
                    "midi": 32,
                    "time": 224.5160279999983,
                    "velocity": 0.2440944881889764,
                    "duration": 0.11730199999999513
                },
                {
                    "name": "D2",
                    "midi": 38,
                    "time": 224.6333299999983,
                    "velocity": 0.2125984251968504,
                    "duration": 0.11730199999999513
                },
                {
                    "name": "F2",
                    "midi": 41,
                    "time": 224.7506319999983,
                    "velocity": 0.2125984251968504,
                    "duration": 0.11730199999999513
                },
                {
                    "name": "G#1",
                    "midi": 32,
                    "time": 224.8679339999983,
                    "velocity": 0.2440944881889764,
                    "duration": 0.11730199999999513
                },
                {
                    "name": "C#2",
                    "midi": 37,
                    "time": 224.98523599999828,
                    "velocity": 0.2204724409448819,
                    "duration": 0.11730199999999513
                },
                {
                    "name": "E2",
                    "midi": 40,
                    "time": 225.10253799999828,
                    "velocity": 0.2204724409448819,
                    "duration": 0.11730199999999513
                },
                {
                    "name": "G#1",
                    "midi": 32,
                    "time": 225.21983999999827,
                    "velocity": 0.2440944881889764,
                    "duration": 0.11730199999999513
                },
                {
                    "name": "D2",
                    "midi": 38,
                    "time": 225.33714199999827,
                    "velocity": 0.2125984251968504,
                    "duration": 0.11730199999999513
                },
                {
                    "name": "F2",
                    "midi": 41,
                    "time": 225.45444399999826,
                    "velocity": 0.2125984251968504,
                    "duration": 0.11730199999999513
                },
                {
                    "name": "G#1",
                    "midi": 32,
                    "time": 225.57174599999826,
                    "velocity": 0.2440944881889764,
                    "duration": 0.11730199999999513
                },
                {
                    "name": "C#2",
                    "midi": 37,
                    "time": 225.68904799999825,
                    "velocity": 0.2204724409448819,
                    "duration": 0.11730199999999513
                },
                {
                    "name": "E2",
                    "midi": 40,
                    "time": 225.80634999999825,
                    "velocity": 0.2204724409448819,
                    "duration": 0.11730199999999513
                },
                {
                    "name": "G#1",
                    "midi": 32,
                    "time": 225.92365199999824,
                    "velocity": 0.2440944881889764,
                    "duration": 0.11730199999999513
                },
                {
                    "name": "D2",
                    "midi": 38,
                    "time": 226.04095399999824,
                    "velocity": 0.2125984251968504,
                    "duration": 0.11730199999999513
                },
                {
                    "name": "F2",
                    "midi": 41,
                    "time": 226.15825599999823,
                    "velocity": 0.2125984251968504,
                    "duration": 0.11730199999999513
                },
                {
                    "name": "D2",
                    "midi": 38,
                    "time": 226.27555799999823,
                    "velocity": 0.2440944881889764,
                    "duration": 0.11730199999999513
                },
                {
                    "name": "B1",
                    "midi": 35,
                    "time": 226.39285999999822,
                    "velocity": 0.2204724409448819,
                    "duration": 0.11730199999999513
                },
                {
                    "name": "G#1",
                    "midi": 32,
                    "time": 226.51016199999822,
                    "velocity": 0.2204724409448819,
                    "duration": 0.11730199999999513
                },
                {
                    "name": "F1",
                    "midi": 29,
                    "time": 226.6274639999982,
                    "velocity": 0.16535433070866143,
                    "duration": 0.06231668750001518
                },
                {
                    "name": "E1",
                    "midi": 28,
                    "time": 226.66925283749822,
                    "velocity": 0.1968503937007874,
                    "duration": 0.06231668750001518
                },
                {
                    "name": "F1",
                    "midi": 29,
                    "time": 226.71030853749824,
                    "velocity": 0.2125984251968504,
                    "duration": 0.062316687499986756
                },
                {
                    "name": "F#1",
                    "midi": 30,
                    "time": 226.75136423749822,
                    "velocity": 0.23622047244094488,
                    "duration": 0.06231668750001518
                },
                {
                    "name": "G1",
                    "midi": 31,
                    "time": 226.79315307499823,
                    "velocity": 0.25196850393700787,
                    "duration": 0.06231668750001518
                },
                {
                    "name": "G#1",
                    "midi": 32,
                    "time": 226.83420877499825,
                    "velocity": 0.2677165354330709,
                    "duration": 0.06231668750001518
                },
                {
                    "name": "A1",
                    "midi": 33,
                    "time": 226.87599761249825,
                    "velocity": 0.2992125984251969,
                    "duration": 0.06231668750001518
                },
                {
                    "name": "A#1",
                    "midi": 34,
                    "time": 226.91705331249827,
                    "velocity": 0.31496062992125984,
                    "duration": 0.062316687499986756
                },
                {
                    "name": "B1",
                    "midi": 35,
                    "time": 226.95810901249826,
                    "velocity": 0.33070866141732286,
                    "duration": 0.06231668750001518
                },
                {
                    "name": "C2",
                    "midi": 36,
                    "time": 226.99989784999826,
                    "velocity": 0.36220472440944884,
                    "duration": 0.06231668750001518
                },
                {
                    "name": "C#2",
                    "midi": 37,
                    "time": 227.04095354999828,
                    "velocity": 0.3779527559055118,
                    "duration": 0.06231668750001518
                },
                {
                    "name": "D2",
                    "midi": 38,
                    "time": 227.08274238749829,
                    "velocity": 0.3937007874015748,
                    "duration": 0.06231668750001518
                },
                {
                    "name": "C#2",
                    "midi": 37,
                    "time": 227.1237980874983,
                    "velocity": 0.3858267716535433,
                    "duration": 0.062316687499986756
                },
                {
                    "name": "C2",
                    "midi": 36,
                    "time": 227.1648537874983,
                    "velocity": 0.3700787401574803,
                    "duration": 0.06231668750001518
                },
                {
                    "name": "B1",
                    "midi": 35,
                    "time": 227.2066426249983,
                    "velocity": 0.3464566929133858,
                    "duration": 0.06231668750001518
                },
                {
                    "name": "A#1",
                    "midi": 34,
                    "time": 227.2476983249983,
                    "velocity": 0.33070866141732286,
                    "duration": 0.06231668750001518
                },
                {
                    "name": "A1",
                    "midi": 33,
                    "time": 227.28948716249832,
                    "velocity": 0.31496062992125984,
                    "duration": 0.06231668750001518
                },
                {
                    "name": "G#1",
                    "midi": 32,
                    "time": 227.33054286249833,
                    "velocity": 0.2992125984251969,
                    "duration": 0.062316687499986756
                },
                {
                    "name": "A1",
                    "midi": 33,
                    "time": 227.37159856249832,
                    "velocity": 0.2755905511811024,
                    "duration": 0.06231668750001518
                },
                {
                    "name": "A#1",
                    "midi": 34,
                    "time": 227.41338739999833,
                    "velocity": 0.25984251968503935,
                    "duration": 0.06231668750001518
                },
                {
                    "name": "B1",
                    "midi": 35,
                    "time": 227.45444309999834,
                    "velocity": 0.2755905511811024,
                    "duration": 0.06231668750001518
                },
                {
                    "name": "C2",
                    "midi": 36,
                    "time": 227.49623193749835,
                    "velocity": 0.29133858267716534,
                    "duration": 0.06231668750001518
                },
                {
                    "name": "C#2",
                    "midi": 37,
                    "time": 227.53728763749837,
                    "velocity": 0.31496062992125984,
                    "duration": 0.062316687499986756
                },
                {
                    "name": "D2",
                    "midi": 38,
                    "time": 227.57834333749835,
                    "velocity": 0.33070866141732286,
                    "duration": 0.06231668750001518
                },
                {
                    "name": "D#2",
                    "midi": 39,
                    "time": 227.62013217499836,
                    "velocity": 0.3464566929133858,
                    "duration": 0.06231668750001518
                },
                {
                    "name": "E2",
                    "midi": 40,
                    "time": 227.66118787499838,
                    "velocity": 0.3700787401574803,
                    "duration": 0.06231668750001518
                },
                {
                    "name": "F2",
                    "midi": 41,
                    "time": 227.70297671249838,
                    "velocity": 0.3700787401574803,
                    "duration": 0.06231668750001518
                },
                {
                    "name": "E2",
                    "midi": 40,
                    "time": 227.7440324124984,
                    "velocity": 0.3543307086614173,
                    "duration": 0.062316687499986756
                },
                {
                    "name": "D#2",
                    "midi": 39,
                    "time": 227.78508811249839,
                    "velocity": 0.33858267716535434,
                    "duration": 0.06231668750001518
                },
                {
                    "name": "D2",
                    "midi": 38,
                    "time": 227.8268769499984,
                    "velocity": 0.33070866141732286,
                    "duration": 0.06231668750001518
                },
                {
                    "name": "C#2",
                    "midi": 37,
                    "time": 227.8679326499984,
                    "velocity": 0.31496062992125984,
                    "duration": 0.06231668750001518
                },
                {
                    "name": "C2",
                    "midi": 36,
                    "time": 227.90972148749842,
                    "velocity": 0.2992125984251969,
                    "duration": 0.06231668750001518
                },
                {
                    "name": "B1",
                    "midi": 35,
                    "time": 227.95077718749843,
                    "velocity": 0.28346456692913385,
                    "duration": 0.062316687499986756
                },
                {
                    "name": "A#1",
                    "midi": 34,
                    "time": 227.99183288749842,
                    "velocity": 0.2755905511811024,
                    "duration": 0.0615835499999946
                },
                {
                    "name": "A1",
                    "midi": 33,
                    "time": 228.0350879999984,
                    "velocity": 0.2755905511811024,
                    "duration": 0.11730199999999513
                },
                {
                    "name": "D#2",
                    "midi": 39,
                    "time": 228.1523899999984,
                    "velocity": 0.2440944881889764,
                    "duration": 0.11730199999999513
                },
                {
                    "name": "F#2",
                    "midi": 42,
                    "time": 228.2696919999984,
                    "velocity": 0.2440944881889764,
                    "duration": 0.11730199999999513
                },
                {
                    "name": "A1",
                    "midi": 33,
                    "time": 228.3869939999984,
                    "velocity": 0.2755905511811024,
                    "duration": 0.11730199999999513
                },
                {
                    "name": "D2",
                    "midi": 38,
                    "time": 228.5042959999984,
                    "velocity": 0.25196850393700787,
                    "duration": 0.11730199999999513
                },
                {
                    "name": "F2",
                    "midi": 41,
                    "time": 228.6215979999984,
                    "velocity": 0.25196850393700787,
                    "duration": 0.11730199999999513
                },
                {
                    "name": "A1",
                    "midi": 33,
                    "time": 228.73889999999838,
                    "velocity": 0.2755905511811024,
                    "duration": 0.11730199999999513
                },
                {
                    "name": "D#2",
                    "midi": 39,
                    "time": 228.85620199999838,
                    "velocity": 0.2440944881889764,
                    "duration": 0.11730199999999513
                },
                {
                    "name": "F#2",
                    "midi": 42,
                    "time": 228.97350399999837,
                    "velocity": 0.2440944881889764,
                    "duration": 0.11730199999999513
                },
                {
                    "name": "A1",
                    "midi": 33,
                    "time": 229.09080599999837,
                    "velocity": 0.2755905511811024,
                    "duration": 0.11730199999999513
                },
                {
                    "name": "D2",
                    "midi": 38,
                    "time": 229.20810799999836,
                    "velocity": 0.25196850393700787,
                    "duration": 0.11730199999999513
                },
                {
                    "name": "F2",
                    "midi": 41,
                    "time": 229.32540999999836,
                    "velocity": 0.25196850393700787,
                    "duration": 0.11730199999999513
                },
                {
                    "name": "A1",
                    "midi": 33,
                    "time": 229.44271199999835,
                    "velocity": 0.2755905511811024,
                    "duration": 0.11730199999999513
                },
                {
                    "name": "D#2",
                    "midi": 39,
                    "time": 229.56001399999835,
                    "velocity": 0.2440944881889764,
                    "duration": 0.11730199999999513
                },
                {
                    "name": "F#2",
                    "midi": 42,
                    "time": 229.67731599999834,
                    "velocity": 0.2440944881889764,
                    "duration": 0.11730199999999513
                },
                {
                    "name": "A1",
                    "midi": 33,
                    "time": 229.79461799999834,
                    "velocity": 0.2755905511811024,
                    "duration": 0.11730199999999513
                },
                {
                    "name": "D2",
                    "midi": 38,
                    "time": 229.91191999999833,
                    "velocity": 0.25196850393700787,
                    "duration": 0.11730199999999513
                },
                {
                    "name": "F2",
                    "midi": 41,
                    "time": 230.02922199999833,
                    "velocity": 0.25196850393700787,
                    "duration": 0.11730199999999513
                },
                {
                    "name": "A1",
                    "midi": 33,
                    "time": 230.14652399999832,
                    "velocity": 0.2755905511811024,
                    "duration": 0.11730199999999513
                },
                {
                    "name": "D#2",
                    "midi": 39,
                    "time": 230.26382599999832,
                    "velocity": 0.2440944881889764,
                    "duration": 0.11730199999999513
                },
                {
                    "name": "F#2",
                    "midi": 42,
                    "time": 230.3811279999983,
                    "velocity": 0.2440944881889764,
                    "duration": 0.11730199999999513
                },
                {
                    "name": "D#2",
                    "midi": 39,
                    "time": 230.4984299999983,
                    "velocity": 0.2755905511811024,
                    "duration": 0.11730199999999513
                },
                {
                    "name": "C2",
                    "midi": 36,
                    "time": 230.6157319999983,
                    "velocity": 0.25196850393700787,
                    "duration": 0.11730199999999513
                },
                {
                    "name": "A1",
                    "midi": 33,
                    "time": 230.7330339999983,
                    "velocity": 0.25196850393700787,
                    "duration": 0.11730199999999513
                },
                {
                    "name": "F#1",
                    "midi": 30,
                    "time": 230.8503359999983,
                    "velocity": 0.23622047244094488,
                    "duration": 0.06231668750001518
                },
                {
                    "name": "F1",
                    "midi": 29,
                    "time": 230.8921248374983,
                    "velocity": 0.2755905511811024,
                    "duration": 0.06231668750001518
                },
                {
                    "name": "F#1",
                    "midi": 30,
                    "time": 230.93318053749832,
                    "velocity": 0.29133858267716534,
                    "duration": 0.062316687499986756
                },
                {
                    "name": "G1",
                    "midi": 31,
                    "time": 230.9742362374983,
                    "velocity": 0.2992125984251969,
                    "duration": 0.06231668750001518
                },
                {
                    "name": "G#1",
                    "midi": 32,
                    "time": 231.0160250749983,
                    "velocity": 0.31496062992125984,
                    "duration": 0.06231668750001518
                },
                {
                    "name": "A1",
                    "midi": 33,
                    "time": 231.05708077499833,
                    "velocity": 0.33070866141732286,
                    "duration": 0.06231668750001518
                },
                {
                    "name": "A#1",
                    "midi": 34,
                    "time": 231.09886961249833,
                    "velocity": 0.3464566929133858,
                    "duration": 0.06231668750001518
                },
                {
                    "name": "B1",
                    "midi": 35,
                    "time": 231.13992531249835,
                    "velocity": 0.3543307086614173,
                    "duration": 0.062316687499986756
                },
                {
                    "name": "C2",
                    "midi": 36,
                    "time": 231.18098101249834,
                    "velocity": 0.3700787401574803,
                    "duration": 0.06231668750001518
                },
                {
                    "name": "C#2",
                    "midi": 37,
                    "time": 231.22276984999834,
                    "velocity": 0.3779527559055118,
                    "duration": 0.06231668750001518
                },
                {
                    "name": "D2",
                    "midi": 38,
                    "time": 231.26382554999836,
                    "velocity": 0.3937007874015748,
                    "duration": 0.06231668750001518
                },
                {
                    "name": "D#2",
                    "midi": 39,
                    "time": 231.30561438749837,
                    "velocity": 0.4094488188976378,
                    "duration": 0.06231668750001518
                },
                {
                    "name": "D2",
                    "midi": 38,
                    "time": 231.34667008749838,
                    "velocity": 0.4251968503937008,
                    "duration": 0.062316687499986756
                },
                {
                    "name": "C#2",
                    "midi": 37,
                    "time": 231.38772578749837,
                    "velocity": 0.4094488188976378,
                    "duration": 0.06231668750001518
                },
                {
                    "name": "C2",
                    "midi": 36,
                    "time": 231.42951462499838,
                    "velocity": 0.3937007874015748,
                    "duration": 0.06231668750001518
                },
                {
                    "name": "B1",
                    "midi": 35,
                    "time": 231.4705703249984,
                    "velocity": 0.3779527559055118,
                    "duration": 0.06231668750001518
                },
                {
                    "name": "A#1",
                    "midi": 34,
                    "time": 231.5123591624984,
                    "velocity": 0.3700787401574803,
                    "duration": 0.06231668750001518
                },
                {
                    "name": "A1",
                    "midi": 33,
                    "time": 231.5534148624984,
                    "velocity": 0.3543307086614173,
                    "duration": 0.062316687499986756
                },
                {
                    "name": "A#1",
                    "midi": 34,
                    "time": 231.5944705624984,
                    "velocity": 0.33070866141732286,
                    "duration": 0.06231668750001518
                },
                {
                    "name": "B1",
                    "midi": 35,
                    "time": 231.6362593999984,
                    "velocity": 0.3464566929133858,
                    "duration": 0.06231668750001518
                },
                {
                    "name": "C2",
                    "midi": 36,
                    "time": 231.67731509999842,
                    "velocity": 0.36220472440944884,
                    "duration": 0.06231668750001518
                },
                {
                    "name": "C#2",
                    "midi": 37,
                    "time": 231.71910393749843,
                    "velocity": 0.3779527559055118,
                    "duration": 0.06231668750001518
                },
                {
                    "name": "D2",
                    "midi": 38,
                    "time": 231.76015963749845,
                    "velocity": 0.3937007874015748,
                    "duration": 0.062316687499986756
                },
                {
                    "name": "D#2",
                    "midi": 39,
                    "time": 231.80121533749843,
                    "velocity": 0.4094488188976378,
                    "duration": 0.06231668750001518
                },
                {
                    "name": "E2",
                    "midi": 40,
                    "time": 231.84300417499844,
                    "velocity": 0.4330708661417323,
                    "duration": 0.06231668750001518
                },
                {
                    "name": "F2",
                    "midi": 41,
                    "time": 231.88405987499846,
                    "velocity": 0.44881889763779526,
                    "duration": 0.06231668750001518
                },
                {
                    "name": "F#2",
                    "midi": 42,
                    "time": 231.92584871249846,
                    "velocity": 0.4645669291338583,
                    "duration": 0.06231668750001518
                },
                {
                    "name": "F2",
                    "midi": 41,
                    "time": 231.96690441249848,
                    "velocity": 0.4566929133858268,
                    "duration": 0.062316687499986756
                },
                {
                    "name": "E2",
                    "midi": 40,
                    "time": 232.00796011249847,
                    "velocity": 0.4409448818897638,
                    "duration": 0.06231668750001518
                },
                {
                    "name": "D#2",
                    "midi": 39,
                    "time": 232.04974894999847,
                    "velocity": 0.41732283464566927,
                    "duration": 0.06231668750001518
                },
                {
                    "name": "D2",
                    "midi": 38,
                    "time": 232.0908046499985,
                    "velocity": 0.4015748031496063,
                    "duration": 0.06231668750001518
                },
                {
                    "name": "C#2",
                    "midi": 37,
                    "time": 232.1325934874985,
                    "velocity": 0.3779527559055118,
                    "duration": 0.06231668750001518
                },
                {
                    "name": "C2",
                    "midi": 36,
                    "time": 232.1736491874985,
                    "velocity": 0.36220472440944884,
                    "duration": 0.062316687499986756
                },
                {
                    "name": "B1",
                    "midi": 35,
                    "time": 232.2147048874985,
                    "velocity": 0.33858267716535434,
                    "duration": 0.0615835499999946
                },
                {
                    "name": "A#1",
                    "midi": 34,
                    "time": 232.2579599999985,
                    "velocity": 0.33070866141732286,
                    "duration": 0.11730199999999513
                },
                {
                    "name": "E2",
                    "midi": 40,
                    "time": 232.3752619999985,
                    "velocity": 0.29133858267716534,
                    "duration": 0.11730199999999513
                },
                {
                    "name": "G2",
                    "midi": 43,
                    "time": 232.49256399999848,
                    "velocity": 0.29133858267716534,
                    "duration": 0.11730199999999513
                },
                {
                    "name": "A#1",
                    "midi": 34,
                    "time": 232.60986599999848,
                    "velocity": 0.33070866141732286,
                    "duration": 0.11730199999999513
                },
                {
                    "name": "D#2",
                    "midi": 39,
                    "time": 232.72716799999847,
                    "velocity": 0.2992125984251969,
                    "duration": 0.11730199999999513
                },
                {
                    "name": "F#2",
                    "midi": 42,
                    "time": 232.84446999999847,
                    "velocity": 0.2992125984251969,
                    "duration": 0.11730199999999513
                },
                {
                    "name": "A#1",
                    "midi": 34,
                    "time": 232.96177199999846,
                    "velocity": 0.33070866141732286,
                    "duration": 0.11730199999999513
                },
                {
                    "name": "E2",
                    "midi": 40,
                    "time": 233.07907399999846,
                    "velocity": 0.29133858267716534,
                    "duration": 0.11730199999999513
                },
                {
                    "name": "G2",
                    "midi": 43,
                    "time": 233.19637599999845,
                    "velocity": 0.29133858267716534,
                    "duration": 0.11730199999999513
                },
                {
                    "name": "E2",
                    "midi": 40,
                    "time": 233.31367799999845,
                    "velocity": 0.33070866141732286,
                    "duration": 0.11730199999999513
                },
                {
                    "name": "C#2",
                    "midi": 37,
                    "time": 233.43097999999844,
                    "velocity": 0.2992125984251969,
                    "duration": 0.11730199999999513
                },
                {
                    "name": "A#1",
                    "midi": 34,
                    "time": 233.54828199999844,
                    "velocity": 0.2992125984251969,
                    "duration": 0.11730199999999513
                },
                {
                    "name": "B1",
                    "midi": 35,
                    "time": 233.66558399999843,
                    "velocity": 0.33858267716535434,
                    "duration": 0.11730199999999513
                },
                {
                    "name": "F2",
                    "midi": 41,
                    "time": 233.78288599999843,
                    "velocity": 0.2992125984251969,
                    "duration": 0.11730199999999513
                },
                {
                    "name": "G#2",
                    "midi": 44,
                    "time": 233.90018799999842,
                    "velocity": 0.2992125984251969,
                    "duration": 0.11730199999999513
                },
                {
                    "name": "B1",
                    "midi": 35,
                    "time": 234.01748999999842,
                    "velocity": 0.33858267716535434,
                    "duration": 0.11730199999999513
                },
                {
                    "name": "E2",
                    "midi": 40,
                    "time": 234.1347919999984,
                    "velocity": 0.31496062992125984,
                    "duration": 0.11730199999999513
                },
                {
                    "name": "G2",
                    "midi": 43,
                    "time": 234.2520939999984,
                    "velocity": 0.31496062992125984,
                    "duration": 0.11730199999999513
                },
                {
                    "name": "B1",
                    "midi": 35,
                    "time": 234.3693959999984,
                    "velocity": 0.33858267716535434,
                    "duration": 0.11730199999999513
                },
                {
                    "name": "F2",
                    "midi": 41,
                    "time": 234.4866979999984,
                    "velocity": 0.2992125984251969,
                    "duration": 0.11730199999999513
                },
                {
                    "name": "G#2",
                    "midi": 44,
                    "time": 234.6039999999984,
                    "velocity": 0.2992125984251969,
                    "duration": 0.11730199999999513
                },
                {
                    "name": "F2",
                    "midi": 41,
                    "time": 234.7213019999984,
                    "velocity": 0.33858267716535434,
                    "duration": 0.11730199999999513
                },
                {
                    "name": "D2",
                    "midi": 38,
                    "time": 234.83860399999838,
                    "velocity": 0.31496062992125984,
                    "duration": 0.11730199999999513
                },
                {
                    "name": "B1",
                    "midi": 35,
                    "time": 234.95590599999838,
                    "velocity": 0.31496062992125984,
                    "duration": 0.11730199999999513
                },
                {
                    "name": "G#1",
                    "midi": 32,
                    "time": 235.07320799999837,
                    "velocity": 0.3464566929133858,
                    "duration": 0.08797649999999635
                },
                {
                    "name": "G1",
                    "midi": 31,
                    "time": 235.16118449999837,
                    "velocity": 0.3543307086614173,
                    "duration": 0.08797649999999635
                },
                {
                    "name": "G#1",
                    "midi": 32,
                    "time": 235.24916099999837,
                    "velocity": 0.36220472440944884,
                    "duration": 0.08797649999999635
                },
                {
                    "name": "A1",
                    "midi": 33,
                    "time": 235.33713749999836,
                    "velocity": 0.3700787401574803,
                    "duration": 0.08797649999999635
                },
                {
                    "name": "A#1",
                    "midi": 34,
                    "time": 235.42511399999836,
                    "velocity": 0.3779527559055118,
                    "duration": 0.08797649999999635
                },
                {
                    "name": "B1",
                    "midi": 35,
                    "time": 235.51309049999836,
                    "velocity": 0.3858267716535433,
                    "duration": 0.08797649999999635
                },
                {
                    "name": "C2",
                    "midi": 36,
                    "time": 235.60106699999835,
                    "velocity": 0.4015748031496063,
                    "duration": 0.08797649999999635
                },
                {
                    "name": "C#2",
                    "midi": 37,
                    "time": 235.68904349999835,
                    "velocity": 0.4094488188976378,
                    "duration": 0.08797649999999635
                },
                {
                    "name": "D2",
                    "midi": 38,
                    "time": 235.77701999999834,
                    "velocity": 0.41732283464566927,
                    "duration": 0.08797649999999635
                },
                {
                    "name": "D#2",
                    "midi": 39,
                    "time": 235.86499649999834,
                    "velocity": 0.4251968503937008,
                    "duration": 0.08797649999999635
                },
                {
                    "name": "E2",
                    "midi": 40,
                    "time": 235.95297299999834,
                    "velocity": 0.4330708661417323,
                    "duration": 0.08797649999999635
                },
                {
                    "name": "F2",
                    "midi": 41,
                    "time": 236.04094949999833,
                    "velocity": 0.4409448818897638,
                    "duration": 0.08797649999999635
                },
                {
                    "name": "E2",
                    "midi": 40,
                    "time": 236.12892599999833,
                    "velocity": 0.4566929133858268,
                    "duration": 0.08797649999999635
                },
                {
                    "name": "D#2",
                    "midi": 39,
                    "time": 236.21690249999833,
                    "velocity": 0.44881889763779526,
                    "duration": 0.08797649999999635
                },
                {
                    "name": "D2",
                    "midi": 38,
                    "time": 236.30487899999832,
                    "velocity": 0.4409448818897638,
                    "duration": 0.08797649999999635
                },
                {
                    "name": "C#2",
                    "midi": 37,
                    "time": 236.39285549999832,
                    "velocity": 0.4330708661417323,
                    "duration": 0.08797649999999635
                },
                {
                    "name": "C2",
                    "midi": 36,
                    "time": 236.48083199999832,
                    "velocity": 0.4251968503937008,
                    "duration": 0.08797649999999635
                },
                {
                    "name": "B1",
                    "midi": 35,
                    "time": 236.5688084999983,
                    "velocity": 0.4094488188976378,
                    "duration": 0.08797649999999635
                },
                {
                    "name": "C2",
                    "midi": 36,
                    "time": 236.6567849999983,
                    "velocity": 0.3937007874015748,
                    "duration": 0.08797649999999635
                },
                {
                    "name": "C#2",
                    "midi": 37,
                    "time": 236.7447614999983,
                    "velocity": 0.3779527559055118,
                    "duration": 0.08797649999999635
                },
                {
                    "name": "D2",
                    "midi": 38,
                    "time": 236.8327379999983,
                    "velocity": 0.4015748031496063,
                    "duration": 0.08797649999999635
                },
                {
                    "name": "D#2",
                    "midi": 39,
                    "time": 236.9207144999983,
                    "velocity": 0.41732283464566927,
                    "duration": 0.08797649999999635
                },
                {
                    "name": "E2",
                    "midi": 40,
                    "time": 237.0086909999983,
                    "velocity": 0.4330708661417323,
                    "duration": 0.08797649999999635
                },
                {
                    "name": "F2",
                    "midi": 41,
                    "time": 237.0966674999983,
                    "velocity": 0.44881889763779526,
                    "duration": 0.08797649999999635
                },
                {
                    "name": "F#2",
                    "midi": 42,
                    "time": 237.1846439999983,
                    "velocity": 0.4645669291338583,
                    "duration": 0.08797649999999635
                },
                {
                    "name": "G2",
                    "midi": 43,
                    "time": 237.27262049999828,
                    "velocity": 0.47244094488188976,
                    "duration": 0.08797649999999635
                },
                {
                    "name": "G#2",
                    "midi": 44,
                    "time": 237.36059699999828,
                    "velocity": 0.4881889763779528,
                    "duration": 0.08797649999999635
                },
                {
                    "name": "G2",
                    "midi": 43,
                    "time": 237.44857349999828,
                    "velocity": 0.48031496062992124,
                    "duration": 0.08797649999999635
                },
                {
                    "name": "F#2",
                    "midi": 42,
                    "time": 237.53654999999827,
                    "velocity": 0.44881889763779526,
                    "duration": 0.08797649999999635
                },
                {
                    "name": "F2",
                    "midi": 41,
                    "time": 237.62452649999827,
                    "velocity": 0.4251968503937008,
                    "duration": 0.08797649999999635
                },
                {
                    "name": "E2",
                    "midi": 40,
                    "time": 237.71250299999826,
                    "velocity": 0.4015748031496063,
                    "duration": 0.08797649999999635
                },
                {
                    "name": "D#2",
                    "midi": 39,
                    "time": 237.80047949999826,
                    "velocity": 0.3700787401574803,
                    "duration": 0.08797649999999635
                },
                {
                    "name": "D3",
                    "midi": 50,
                    "time": 237.88845599999826,
                    "velocity": 0.4645669291338583,
                    "duration": 0.08797649999999635
                },
                {
                    "name": "D2",
                    "midi": 38,
                    "time": 237.88845599999826,
                    "velocity": 0.4645669291338583,
                    "duration": 0.08797649999999635
                },
                {
                    "name": "E3",
                    "midi": 52,
                    "time": 238.06440899999825,
                    "velocity": 0.48031496062992124,
                    "duration": 0.08797649999999635
                },
                {
                    "name": "E2",
                    "midi": 40,
                    "time": 238.06440899999825,
                    "velocity": 0.48031496062992124,
                    "duration": 0.08797649999999635
                },
                {
                    "name": "F#3",
                    "midi": 54,
                    "time": 238.24036199999824,
                    "velocity": 0.5039370078740157,
                    "duration": 0.08797649999999635
                },
                {
                    "name": "F#2",
                    "midi": 42,
                    "time": 238.24036199999824,
                    "velocity": 0.5039370078740157,
                    "duration": 0.08797649999999635
                },
                {
                    "name": "G#3",
                    "midi": 56,
                    "time": 238.41631499999824,
                    "velocity": 0.5275590551181102,
                    "duration": 0.08797649999999635
                },
                {
                    "name": "G#2",
                    "midi": 44,
                    "time": 238.41631499999824,
                    "velocity": 0.5275590551181102,
                    "duration": 0.08797649999999635
                },
                {
                    "name": "A#3",
                    "midi": 58,
                    "time": 238.59226799999823,
                    "velocity": 0.5511811023622047,
                    "duration": 0.08797649999999635
                },
                {
                    "name": "A#2",
                    "midi": 46,
                    "time": 238.59226799999823,
                    "velocity": 0.5511811023622047,
                    "duration": 0.08797649999999635
                },
                {
                    "name": "B3",
                    "midi": 59,
                    "time": 238.76822099999822,
                    "velocity": 0.5669291338582677,
                    "duration": 0.08797649999999635
                },
                {
                    "name": "B2",
                    "midi": 47,
                    "time": 238.76822099999822,
                    "velocity": 0.5669291338582677,
                    "duration": 0.08797649999999635
                },
                {
                    "name": "A3",
                    "midi": 57,
                    "time": 238.9441739999982,
                    "velocity": 0.5590551181102362,
                    "duration": 0.08797649999999635
                },
                {
                    "name": "A2",
                    "midi": 45,
                    "time": 238.9441739999982,
                    "velocity": 0.5590551181102362,
                    "duration": 0.08797649999999635
                },
                {
                    "name": "G3",
                    "midi": 55,
                    "time": 239.1201269999982,
                    "velocity": 0.5275590551181102,
                    "duration": 0.08797649999999635
                },
                {
                    "name": "G2",
                    "midi": 43,
                    "time": 239.1201269999982,
                    "velocity": 0.5275590551181102,
                    "duration": 0.08797649999999635
                },
                {
                    "name": "F3",
                    "midi": 53,
                    "time": 239.2960799999982,
                    "velocity": 0.5039370078740157,
                    "duration": 0.08797649999999635
                },
                {
                    "name": "F2",
                    "midi": 41,
                    "time": 239.2960799999982,
                    "velocity": 0.5039370078740157,
                    "duration": 0.08797649999999635
                },
                {
                    "name": "G3",
                    "midi": 55,
                    "time": 239.4720329999982,
                    "velocity": 0.49606299212598426,
                    "duration": 0.08797649999999635
                },
                {
                    "name": "G2",
                    "midi": 43,
                    "time": 239.4720329999982,
                    "velocity": 0.49606299212598426,
                    "duration": 0.08797649999999635
                },
                {
                    "name": "A3",
                    "midi": 57,
                    "time": 239.64798599999818,
                    "velocity": 0.5196850393700787,
                    "duration": 0.08797649999999635
                },
                {
                    "name": "A2",
                    "midi": 45,
                    "time": 239.64798599999818,
                    "velocity": 0.5196850393700787,
                    "duration": 0.08797649999999635
                },
                {
                    "name": "B3",
                    "midi": 59,
                    "time": 239.82393899999818,
                    "velocity": 0.5433070866141733,
                    "duration": 0.08797649999999635
                },
                {
                    "name": "B2",
                    "midi": 47,
                    "time": 239.82393899999818,
                    "velocity": 0.5433070866141733,
                    "duration": 0.08797649999999635
                },
                {
                    "name": "C#4",
                    "midi": 61,
                    "time": 239.99989199999817,
                    "velocity": 0.5984251968503937,
                    "duration": 0.08797649999999635
                },
                {
                    "name": "C#3",
                    "midi": 49,
                    "time": 239.99989199999817,
                    "velocity": 0.5984251968503937,
                    "duration": 0.08797649999999635
                },
                {
                    "name": "D4",
                    "midi": 62,
                    "time": 240.17584499999816,
                    "velocity": 0.5669291338582677,
                    "duration": 0.08797649999999635
                },
                {
                    "name": "D3",
                    "midi": 50,
                    "time": 240.17584499999816,
                    "velocity": 0.5669291338582677,
                    "duration": 0.08797649999999635
                },
                {
                    "name": "C4",
                    "midi": 60,
                    "time": 240.35179799999815,
                    "velocity": 0.5354330708661418,
                    "duration": 0.08797649999999635
                },
                {
                    "name": "C3",
                    "midi": 48,
                    "time": 240.35179799999815,
                    "velocity": 0.5354330708661418,
                    "duration": 0.08797649999999635
                },
                {
                    "name": "A#3",
                    "midi": 58,
                    "time": 240.52775099999815,
                    "velocity": 0.49606299212598426,
                    "duration": 0.08797649999999635
                },
                {
                    "name": "A#2",
                    "midi": 46,
                    "time": 240.52775099999815,
                    "velocity": 0.49606299212598426,
                    "duration": 0.08797649999999635
                },
                {
                    "name": "G#3",
                    "midi": 56,
                    "time": 240.70370399999814,
                    "velocity": 0.49606299212598426,
                    "duration": 0.08797649999999635
                },
                {
                    "name": "G#2",
                    "midi": 44,
                    "time": 240.70370399999814,
                    "velocity": 0.49606299212598426,
                    "duration": 0.08797649999999635
                },
                {
                    "name": "A#3",
                    "midi": 58,
                    "time": 240.87965699999813,
                    "velocity": 0.5275590551181102,
                    "duration": 0.08797649999999635
                },
                {
                    "name": "A#2",
                    "midi": 46,
                    "time": 240.87965699999813,
                    "velocity": 0.5275590551181102,
                    "duration": 0.08797649999999635
                },
                {
                    "name": "C4",
                    "midi": 60,
                    "time": 241.05560999999813,
                    "velocity": 0.5511811023622047,
                    "duration": 0.08797649999999635
                },
                {
                    "name": "C3",
                    "midi": 48,
                    "time": 241.05560999999813,
                    "velocity": 0.5511811023622047,
                    "duration": 0.08797649999999635
                },
                {
                    "name": "D4",
                    "midi": 62,
                    "time": 241.23156299999812,
                    "velocity": 0.5826771653543307,
                    "duration": 0.08797649999999635
                },
                {
                    "name": "D3",
                    "midi": 50,
                    "time": 241.23156299999812,
                    "velocity": 0.5826771653543307,
                    "duration": 0.08797649999999635
                },
                {
                    "name": "E4",
                    "midi": 64,
                    "time": 241.4075159999981,
                    "velocity": 0.6141732283464567,
                    "duration": 0.08797649999999635
                },
                {
                    "name": "E3",
                    "midi": 52,
                    "time": 241.4075159999981,
                    "velocity": 0.6141732283464567,
                    "duration": 0.08797649999999635
                },
                {
                    "name": "E4",
                    "midi": 64,
                    "time": 241.5834689999981,
                    "velocity": 0.5826771653543307,
                    "duration": 0.08797649999999635
                },
                {
                    "name": "E3",
                    "midi": 52,
                    "time": 241.5834689999981,
                    "velocity": 0.5826771653543307,
                    "duration": 0.08797649999999635
                },
                {
                    "name": "D4",
                    "midi": 62,
                    "time": 241.7594219999981,
                    "velocity": 0.5511811023622047,
                    "duration": 0.08797649999999635
                },
                {
                    "name": "D3",
                    "midi": 50,
                    "time": 241.7594219999981,
                    "velocity": 0.5511811023622047,
                    "duration": 0.08797649999999635
                },
                {
                    "name": "C4",
                    "midi": 60,
                    "time": 241.9353749999981,
                    "velocity": 0.5196850393700787,
                    "duration": 0.08797649999999635
                },
                {
                    "name": "C3",
                    "midi": 48,
                    "time": 241.9353749999981,
                    "velocity": 0.5196850393700787,
                    "duration": 0.08797649999999635
                },
                {
                    "name": "A#3",
                    "midi": 58,
                    "time": 242.11132799999808,
                    "velocity": 0.5039370078740157,
                    "duration": 0.08797649999999635
                },
                {
                    "name": "A#2",
                    "midi": 46,
                    "time": 242.11132799999808,
                    "velocity": 0.4015748031496063,
                    "duration": 0.08797649999999635
                },
                {
                    "name": "G#3",
                    "midi": 56,
                    "time": 242.28728099999807,
                    "velocity": 0.5433070866141733,
                    "duration": 0.08797649999999635
                },
                {
                    "name": "G#2",
                    "midi": 44,
                    "time": 242.28728099999807,
                    "velocity": 0.5433070866141733,
                    "duration": 0.08797649999999635
                },
                {
                    "name": "A#3",
                    "midi": 58,
                    "time": 242.46323399999807,
                    "velocity": 0.5669291338582677,
                    "duration": 0.08797649999999635
                },
                {
                    "name": "A#2",
                    "midi": 46,
                    "time": 242.46323399999807,
                    "velocity": 0.5669291338582677,
                    "duration": 0.08797649999999635
                },
                {
                    "name": "C4",
                    "midi": 60,
                    "time": 242.63918699999806,
                    "velocity": 0.5984251968503937,
                    "duration": 0.08797649999999635
                },
                {
                    "name": "C3",
                    "midi": 48,
                    "time": 242.63918699999806,
                    "velocity": 0.5984251968503937,
                    "duration": 0.08797649999999635
                },
                {
                    "name": "D4",
                    "midi": 62,
                    "time": 242.81513999999805,
                    "velocity": 0.6220472440944882,
                    "duration": 0.08797649999999635
                },
                {
                    "name": "D3",
                    "midi": 50,
                    "time": 242.81513999999805,
                    "velocity": 0.6220472440944882,
                    "duration": 0.08797649999999635
                },
                {
                    "name": "E4",
                    "midi": 64,
                    "time": 242.99109299999805,
                    "velocity": 0.6299212598425197,
                    "duration": 0.08797649999999635
                },
                {
                    "name": "E3",
                    "midi": 52,
                    "time": 242.99109299999805,
                    "velocity": 0.6299212598425197,
                    "duration": 0.08797649999999635
                },
                {
                    "name": "E4",
                    "midi": 64,
                    "time": 243.16704599999804,
                    "velocity": 0.5905511811023622,
                    "duration": 0.08797649999999635
                },
                {
                    "name": "E3",
                    "midi": 52,
                    "time": 243.16704599999804,
                    "velocity": 0.5905511811023622,
                    "duration": 0.08797649999999635
                },
                {
                    "name": "D4",
                    "midi": 62,
                    "time": 243.34299899999803,
                    "velocity": 0.5511811023622047,
                    "duration": 0.08797649999999635
                },
                {
                    "name": "D3",
                    "midi": 50,
                    "time": 243.34299899999803,
                    "velocity": 0.5511811023622047,
                    "duration": 0.08797649999999635
                },
                {
                    "name": "C4",
                    "midi": 60,
                    "time": 243.51895199999802,
                    "velocity": 0.5669291338582677,
                    "duration": 0.08797649999999635
                },
                {
                    "name": "C3",
                    "midi": 48,
                    "time": 243.51895199999802,
                    "velocity": 0.44881889763779526,
                    "duration": 0.08797649999999635
                },
                {
                    "name": "A#3",
                    "midi": 58,
                    "time": 243.69490499999802,
                    "velocity": 0.5354330708661418,
                    "duration": 0.08797649999999635
                },
                {
                    "name": "A#2",
                    "midi": 46,
                    "time": 243.69490499999802,
                    "velocity": 0.5354330708661418,
                    "duration": 0.08797649999999635
                },
                {
                    "name": "G#3",
                    "midi": 56,
                    "time": 243.870857999998,
                    "velocity": 0.5354330708661418,
                    "duration": 0.08797649999999635
                },
                {
                    "name": "G#2",
                    "midi": 44,
                    "time": 243.870857999998,
                    "velocity": 0.5354330708661418,
                    "duration": 0.08797649999999635
                },
                {
                    "name": "A#3",
                    "midi": 58,
                    "time": 244.046810999998,
                    "velocity": 0.5433070866141733,
                    "duration": 0.08797649999999635
                },
                {
                    "name": "A#2",
                    "midi": 46,
                    "time": 244.046810999998,
                    "velocity": 0.5433070866141733,
                    "duration": 0.08797649999999635
                },
                {
                    "name": "C4",
                    "midi": 60,
                    "time": 244.222763999998,
                    "velocity": 0.5511811023622047,
                    "duration": 0.08797649999999635
                },
                {
                    "name": "C3",
                    "midi": 48,
                    "time": 244.222763999998,
                    "velocity": 0.5511811023622047,
                    "duration": 0.08797649999999635
                },
                {
                    "name": "D4",
                    "midi": 62,
                    "time": 244.398716999998,
                    "velocity": 0.5590551181102362,
                    "duration": 0.08797649999999635
                },
                {
                    "name": "D3",
                    "midi": 50,
                    "time": 244.398716999998,
                    "velocity": 0.5590551181102362,
                    "duration": 0.08797649999999635
                },
                {
                    "name": "E4",
                    "midi": 64,
                    "time": 244.57466999999798,
                    "velocity": 0.5669291338582677,
                    "duration": 0.08797649999999635
                },
                {
                    "name": "E3",
                    "midi": 52,
                    "time": 244.57466999999798,
                    "velocity": 0.5669291338582677,
                    "duration": 0.08797649999999635
                },
                {
                    "name": "F4",
                    "midi": 65,
                    "time": 244.75062299999797,
                    "velocity": 0.5669291338582677,
                    "duration": 0.08797649999999635
                },
                {
                    "name": "F3",
                    "midi": 53,
                    "time": 244.75062299999797,
                    "velocity": 0.5669291338582677,
                    "duration": 0.08797649999999635
                },
                {
                    "name": "D4",
                    "midi": 62,
                    "time": 244.92657599999797,
                    "velocity": 0.5826771653543307,
                    "duration": 0.08797649999999635
                },
                {
                    "name": "D3",
                    "midi": 50,
                    "time": 244.92657599999797,
                    "velocity": 0.5826771653543307,
                    "duration": 0.08797649999999635
                },
                {
                    "name": "B3",
                    "midi": 59,
                    "time": 245.10252899999796,
                    "velocity": 0.5984251968503937,
                    "duration": 0.08797649999999635
                },
                {
                    "name": "B2",
                    "midi": 47,
                    "time": 245.10252899999796,
                    "velocity": 0.5984251968503937,
                    "duration": 0.08797649999999635
                },
                {
                    "name": "G#3",
                    "midi": 56,
                    "time": 245.27848199999795,
                    "velocity": 0.6220472440944882,
                    "duration": 0.08797649999999635
                },
                {
                    "name": "G#2",
                    "midi": 44,
                    "time": 245.27848199999795,
                    "velocity": 0.6220472440944882,
                    "duration": 0.08797649999999635
                },
                {
                    "name": "F3",
                    "midi": 53,
                    "time": 245.45443499999794,
                    "velocity": 0.6456692913385826,
                    "duration": 0.08797649999999635
                },
                {
                    "name": "F2",
                    "midi": 41,
                    "time": 245.45443499999794,
                    "velocity": 0.6456692913385826,
                    "duration": 0.08797649999999635
                },
                {
                    "name": "D3",
                    "midi": 50,
                    "time": 245.63038799999794,
                    "velocity": 0.6692913385826772,
                    "duration": 0.08797649999999635
                },
                {
                    "name": "D2",
                    "midi": 38,
                    "time": 245.63038799999794,
                    "velocity": 0.6692913385826772,
                    "duration": 0.08797649999999635
                },
                {
                    "name": "B2",
                    "midi": 47,
                    "time": 245.80634099999793,
                    "velocity": 0.6929133858267716,
                    "duration": 0.08797649999999635
                },
                {
                    "name": "B1",
                    "midi": 35,
                    "time": 245.80634099999793,
                    "velocity": 0.6929133858267716,
                    "duration": 0.08797649999999635
                },
                {
                    "name": "G#2",
                    "midi": 44,
                    "time": 245.98229399999792,
                    "velocity": 0.7165354330708661,
                    "duration": 0.08797649999999635
                },
                {
                    "name": "G#1",
                    "midi": 32,
                    "time": 245.98229399999792,
                    "velocity": 0.7165354330708661,
                    "duration": 0.08797649999999635
                },
                {
                    "name": "F3",
                    "midi": 53,
                    "time": 246.3341999999979,
                    "velocity": 0.5826771653543307,
                    "duration": 0.1759529999999927
                },
                {
                    "name": "F2",
                    "midi": 41,
                    "time": 246.3341999999979,
                    "velocity": 0.49606299212598426,
                    "duration": 0.1759529999999927
                },
                {
                    "name": "D#3",
                    "midi": 51,
                    "time": 246.6861059999979,
                    "velocity": 0.6299212598425197,
                    "duration": 0.1759529999999927
                },
                {
                    "name": "D#2",
                    "midi": 39,
                    "time": 246.6861059999979,
                    "velocity": 0.5275590551181102,
                    "duration": 0.1759529999999927
                },
                {
                    "name": "F#3",
                    "midi": 54,
                    "time": 246.86205899999788,
                    "velocity": 0.5905511811023622,
                    "duration": 0.1759529999999927
                },
                {
                    "name": "F#2",
                    "midi": 42,
                    "time": 246.86205899999788,
                    "velocity": 0.5039370078740157,
                    "duration": 0.1759529999999927
                },
                {
                    "name": "A3",
                    "midi": 57,
                    "time": 247.03801199999788,
                    "velocity": 0.5905511811023622,
                    "duration": 0.1759529999999927
                },
                {
                    "name": "A2",
                    "midi": 45,
                    "time": 247.03801199999788,
                    "velocity": 0.5039370078740157,
                    "duration": 0.1759529999999927
                },
                {
                    "name": "C#3",
                    "midi": 49,
                    "time": 247.38991799999786,
                    "velocity": 0.6141732283464567,
                    "duration": 0.1759529999999927
                },
                {
                    "name": "C#2",
                    "midi": 37,
                    "time": 247.38991799999786,
                    "velocity": 0.5196850393700787,
                    "duration": 0.1759529999999927
                },
                {
                    "name": "F#3",
                    "midi": 54,
                    "time": 247.56587099999786,
                    "velocity": 0.5748031496062992,
                    "duration": 0.1759529999999927
                },
                {
                    "name": "F#2",
                    "midi": 42,
                    "time": 247.56587099999786,
                    "velocity": 0.48031496062992124,
                    "duration": 0.1759529999999927
                },
                {
                    "name": "A3",
                    "midi": 57,
                    "time": 247.74182399999785,
                    "velocity": 0.5748031496062992,
                    "duration": 0.1759529999999927
                },
                {
                    "name": "A2",
                    "midi": 45,
                    "time": 247.74182399999785,
                    "velocity": 0.48031496062992124,
                    "duration": 0.1759529999999927
                },
                {
                    "name": "C3",
                    "midi": 48,
                    "time": 248.09372999999783,
                    "velocity": 0.6141732283464567,
                    "duration": 0.1759529999999927
                },
                {
                    "name": "C2",
                    "midi": 36,
                    "time": 248.09372999999783,
                    "velocity": 0.5196850393700787,
                    "duration": 0.1759529999999927
                },
                {
                    "name": "F#3",
                    "midi": 54,
                    "time": 248.26968299999783,
                    "velocity": 0.5748031496062992,
                    "duration": 0.1759529999999927
                },
                {
                    "name": "F#2",
                    "midi": 42,
                    "time": 248.26968299999783,
                    "velocity": 0.48031496062992124,
                    "duration": 0.1759529999999927
                },
                {
                    "name": "A3",
                    "midi": 57,
                    "time": 248.44563599999782,
                    "velocity": 0.5748031496062992,
                    "duration": 0.1759529999999927
                },
                {
                    "name": "A2",
                    "midi": 45,
                    "time": 248.44563599999782,
                    "velocity": 0.48031496062992124,
                    "duration": 0.1759529999999927
                },
                {
                    "name": "B2",
                    "midi": 47,
                    "time": 248.7975419999978,
                    "velocity": 0.6141732283464567,
                    "duration": 0.1759529999999927
                },
                {
                    "name": "B1",
                    "midi": 35,
                    "time": 248.7975419999978,
                    "velocity": 0.5196850393700787,
                    "duration": 0.1759529999999927
                },
                {
                    "name": "D#3",
                    "midi": 51,
                    "time": 248.9734949999978,
                    "velocity": 0.5984251968503937,
                    "duration": 0.1759529999999927
                },
                {
                    "name": "D#2",
                    "midi": 39,
                    "time": 248.9734949999978,
                    "velocity": 0.5118110236220472,
                    "duration": 0.1759529999999927
                },
                {
                    "name": "F#3",
                    "midi": 54,
                    "time": 249.1494479999978,
                    "velocity": 0.5984251968503937,
                    "duration": 0.1759529999999927
                },
                {
                    "name": "F#2",
                    "midi": 42,
                    "time": 249.1494479999978,
                    "velocity": 0.5118110236220472,
                    "duration": 0.1759529999999927
                },
                {
                    "name": "A2",
                    "midi": 45,
                    "time": 249.50135399999778,
                    "velocity": 0.5275590551181102,
                    "duration": 0.1759529999999927
                },
                {
                    "name": "A1",
                    "midi": 33,
                    "time": 249.50135399999778,
                    "velocity": 0.44881889763779526,
                    "duration": 0.1759529999999927
                },
                {
                    "name": "C#3",
                    "midi": 49,
                    "time": 249.67730699999777,
                    "velocity": 0.5039370078740157,
                    "duration": 0.1759529999999927
                },
                {
                    "name": "C#2",
                    "midi": 37,
                    "time": 249.67730699999777,
                    "velocity": 0.41732283464566927,
                    "duration": 0.1759529999999927
                },
                {
                    "name": "F#3",
                    "midi": 54,
                    "time": 249.85325999999776,
                    "velocity": 0.5039370078740157,
                    "duration": 0.1759529999999927
                },
                {
                    "name": "F#2",
                    "midi": 42,
                    "time": 249.85325999999776,
                    "velocity": 0.41732283464566927,
                    "duration": 0.1759529999999927
                },
                {
                    "name": "G#2",
                    "midi": 44,
                    "time": 250.20516599999775,
                    "velocity": 0.5275590551181102,
                    "duration": 0.1759529999999927
                },
                {
                    "name": "G#1",
                    "midi": 32,
                    "time": 250.20516599999775,
                    "velocity": 0.44881889763779526,
                    "duration": 0.1759529999999927
                },
                {
                    "name": "C3",
                    "midi": 48,
                    "time": 250.38111899999774,
                    "velocity": 0.5039370078740157,
                    "duration": 0.1759529999999927
                },
                {
                    "name": "C2",
                    "midi": 36,
                    "time": 250.38111899999774,
                    "velocity": 0.41732283464566927,
                    "duration": 0.1759529999999927
                },
                {
                    "name": "D#3",
                    "midi": 51,
                    "time": 250.55707199999773,
                    "velocity": 0.49606299212598426,
                    "duration": 0.1759529999999927
                },
                {
                    "name": "D#2",
                    "midi": 39,
                    "time": 250.55707199999773,
                    "velocity": 0.41732283464566927,
                    "duration": 0.1759529999999927
                },
                {
                    "name": "G2",
                    "midi": 43,
                    "time": 250.90897799999772,
                    "velocity": 0.5590551181102362,
                    "duration": 0.1759529999999927
                },
                {
                    "name": "G1",
                    "midi": 31,
                    "time": 250.90897799999772,
                    "velocity": 0.4645669291338583,
                    "duration": 0.1759529999999927
                },
                {
                    "name": "C3",
                    "midi": 48,
                    "time": 251.0849309999977,
                    "velocity": 0.5433070866141733,
                    "duration": 0.1759529999999927
                },
                {
                    "name": "C2",
                    "midi": 36,
                    "time": 251.0849309999977,
                    "velocity": 0.4566929133858268,
                    "duration": 0.1759529999999927
                },
                {
                    "name": "D#3",
                    "midi": 51,
                    "time": 251.2608839999977,
                    "velocity": 0.5354330708661418,
                    "duration": 0.1759529999999927
                },
                {
                    "name": "D#2",
                    "midi": 39,
                    "time": 251.2608839999977,
                    "velocity": 0.44881889763779526,
                    "duration": 0.1759529999999927
                },
                {
                    "name": "F#2",
                    "midi": 42,
                    "time": 251.6127899999977,
                    "velocity": 0.5511811023622047,
                    "duration": 0.1759529999999927
                },
                {
                    "name": "F#1",
                    "midi": 30,
                    "time": 251.6127899999977,
                    "velocity": 0.4566929133858268,
                    "duration": 0.1759529999999927
                },
                {
                    "name": "A2",
                    "midi": 45,
                    "time": 251.78874299999768,
                    "velocity": 0.48031496062992124,
                    "duration": 0.1759529999999927
                },
                {
                    "name": "A1",
                    "midi": 33,
                    "time": 251.78874299999768,
                    "velocity": 0.4094488188976378,
                    "duration": 0.1759529999999927
                },
                {
                    "name": "C2",
                    "midi": 36,
                    "time": 251.96469599999767,
                    "velocity": 0.3937007874015748,
                    "duration": 0.3519060000000138
                },
                {
                    "name": "C3",
                    "midi": 48,
                    "time": 251.96469599999767,
                    "velocity": 0.4330708661417323,
                    "duration": 0.3519060000000138
                },
                {
                    "name": "B2",
                    "midi": 47,
                    "time": 252.3166019999977,
                    "velocity": 0.4566929133858268,
                    "duration": 0.1759529999999927
                },
                {
                    "name": "B1",
                    "midi": 35,
                    "time": 252.3166019999977,
                    "velocity": 0.3779527559055118,
                    "duration": 0.1759529999999927
                },
                {
                    "name": "A2",
                    "midi": 45,
                    "time": 252.49255499999768,
                    "velocity": 0.41732283464566927,
                    "duration": 0.14076239999999984
                },
                {
                    "name": "A1",
                    "midi": 33,
                    "time": 252.49255499999768,
                    "velocity": 0.3464566929133858,
                    "duration": 0.14076239999999984
                },
                {
                    "name": "G2",
                    "midi": 43,
                    "time": 252.66850799999767,
                    "velocity": 0.41732283464566927,
                    "duration": 0.08797649999999635
                },
                {
                    "name": "G1",
                    "midi": 31,
                    "time": 252.66850799999767,
                    "velocity": 0.3464566929133858,
                    "duration": 0.08797649999999635
                },
                {
                    "name": "B2",
                    "midi": 47,
                    "time": 252.84446099999766,
                    "velocity": 0.41732283464566927,
                    "duration": 0.08797649999999635
                },
                {
                    "name": "B1",
                    "midi": 35,
                    "time": 252.84446099999766,
                    "velocity": 0.3464566929133858,
                    "duration": 0.08797649999999635
                },
                {
                    "name": "A2",
                    "midi": 45,
                    "time": 253.02041399999766,
                    "velocity": 0.4566929133858268,
                    "duration": 0.1759529999999927
                },
                {
                    "name": "A1",
                    "midi": 33,
                    "time": 253.02041399999766,
                    "velocity": 0.3779527559055118,
                    "duration": 0.1759529999999927
                },
                {
                    "name": "G2",
                    "midi": 43,
                    "time": 253.19636699999765,
                    "velocity": 0.4251968503937008,
                    "duration": 0.14076239999999984
                },
                {
                    "name": "G1",
                    "midi": 31,
                    "time": 253.19636699999765,
                    "velocity": 0.36220472440944884,
                    "duration": 0.14076239999999984
                },
                {
                    "name": "F2",
                    "midi": 41,
                    "time": 253.37231999999764,
                    "velocity": 0.4251968503937008,
                    "duration": 0.08797649999999635
                },
                {
                    "name": "F1",
                    "midi": 29,
                    "time": 253.37231999999764,
                    "velocity": 0.36220472440944884,
                    "duration": 0.08797649999999635
                },
                {
                    "name": "A2",
                    "midi": 45,
                    "time": 253.54827299999764,
                    "velocity": 0.4251968503937008,
                    "duration": 0.08797649999999635
                },
                {
                    "name": "A1",
                    "midi": 33,
                    "time": 253.54827299999764,
                    "velocity": 0.36220472440944884,
                    "duration": 0.08797649999999635
                },
                {
                    "name": "G2",
                    "midi": 43,
                    "time": 253.72422599999763,
                    "velocity": 0.47244094488188976,
                    "duration": 0.1759529999999927
                },
                {
                    "name": "G1",
                    "midi": 31,
                    "time": 253.72422599999763,
                    "velocity": 0.4094488188976378,
                    "duration": 0.1759529999999927
                },
                {
                    "name": "F2",
                    "midi": 41,
                    "time": 253.90017899999762,
                    "velocity": 0.4251968503937008,
                    "duration": 0.14076239999999984
                },
                {
                    "name": "F1",
                    "midi": 29,
                    "time": 253.90017899999762,
                    "velocity": 0.36220472440944884,
                    "duration": 0.14076239999999984
                },
                {
                    "name": "E2",
                    "midi": 40,
                    "time": 254.0761319999976,
                    "velocity": 0.4251968503937008,
                    "duration": 0.08797649999999635
                },
                {
                    "name": "E1",
                    "midi": 28,
                    "time": 254.0761319999976,
                    "velocity": 0.36220472440944884,
                    "duration": 0.08797649999999635
                },
                {
                    "name": "G2",
                    "midi": 43,
                    "time": 254.2520849999976,
                    "velocity": 0.4251968503937008,
                    "duration": 0.08797649999999635
                },
                {
                    "name": "G1",
                    "midi": 31,
                    "time": 254.2520849999976,
                    "velocity": 0.36220472440944884,
                    "duration": 0.08797649999999635
                },
                {
                    "name": "F2",
                    "midi": 41,
                    "time": 254.4280379999976,
                    "velocity": 0.49606299212598426,
                    "duration": 0.1759529999999927
                },
                {
                    "name": "F1",
                    "midi": 29,
                    "time": 254.4280379999976,
                    "velocity": 0.4094488188976378,
                    "duration": 0.1759529999999927
                },
                {
                    "name": "E2",
                    "midi": 40,
                    "time": 254.6039909999976,
                    "velocity": 0.4251968503937008,
                    "duration": 0.14076239999999984
                },
                {
                    "name": "E1",
                    "midi": 28,
                    "time": 254.6039909999976,
                    "velocity": 0.36220472440944884,
                    "duration": 0.14076239999999984
                },
                {
                    "name": "D#2",
                    "midi": 39,
                    "time": 254.77994399999758,
                    "velocity": 0.4251968503937008,
                    "duration": 0.08797649999999635
                },
                {
                    "name": "D#1",
                    "midi": 27,
                    "time": 254.77994399999758,
                    "velocity": 0.36220472440944884,
                    "duration": 0.08797649999999635
                },
                {
                    "name": "F2",
                    "midi": 41,
                    "time": 254.95589699999758,
                    "velocity": 0.4251968503937008,
                    "duration": 0.08797649999999635
                },
                {
                    "name": "F1",
                    "midi": 29,
                    "time": 254.95589699999758,
                    "velocity": 0.36220472440944884,
                    "duration": 0.08797649999999635
                },
                {
                    "name": "F2",
                    "midi": 41,
                    "time": 255.13184999999757,
                    "velocity": 0.47244094488188976,
                    "duration": 0.1759529999999927
                },
                {
                    "name": "F1",
                    "midi": 29,
                    "time": 255.13184999999757,
                    "velocity": 0.4094488188976378,
                    "duration": 0.1759529999999927
                },
                {
                    "name": "E2",
                    "midi": 40,
                    "time": 255.30780299999756,
                    "velocity": 0.4251968503937008,
                    "duration": 0.14076239999999984
                },
                {
                    "name": "E1",
                    "midi": 28,
                    "time": 255.30780299999756,
                    "velocity": 0.36220472440944884,
                    "duration": 0.14076239999999984
                },
                {
                    "name": "E2",
                    "midi": 40,
                    "time": 255.48375599999756,
                    "velocity": 0.4251968503937008,
                    "duration": 0.08797649999999635
                },
                {
                    "name": "E1",
                    "midi": 28,
                    "time": 255.48375599999756,
                    "velocity": 0.36220472440944884,
                    "duration": 0.08797649999999635
                },
                {
                    "name": "D#2",
                    "midi": 39,
                    "time": 255.65970899999755,
                    "velocity": 0.4251968503937008,
                    "duration": 0.08797649999999635
                },
                {
                    "name": "D#1",
                    "midi": 27,
                    "time": 255.65970899999755,
                    "velocity": 0.36220472440944884,
                    "duration": 0.08797649999999635
                },
                {
                    "name": "F2",
                    "midi": 41,
                    "time": 255.83566199999754,
                    "velocity": 0.5039370078740157,
                    "duration": 0.17595300000002112
                },
                {
                    "name": "F1",
                    "midi": 29,
                    "time": 255.83566199999754,
                    "velocity": 0.41732283464566927,
                    "duration": 0.17595300000002112
                },
                {
                    "name": "E2",
                    "midi": 40,
                    "time": 256.01161499999756,
                    "velocity": 0.4251968503937008,
                    "duration": 0.14076240000002826
                },
                {
                    "name": "E1",
                    "midi": 28,
                    "time": 256.01161499999756,
                    "velocity": 0.36220472440944884,
                    "duration": 0.14076240000002826
                },
                {
                    "name": "E2",
                    "midi": 40,
                    "time": 256.1875679999976,
                    "velocity": 0.4251968503937008,
                    "duration": 0.08797650000002477
                },
                {
                    "name": "E1",
                    "midi": 28,
                    "time": 256.1875679999976,
                    "velocity": 0.36220472440944884,
                    "duration": 0.08797650000002477
                },
                {
                    "name": "D#2",
                    "midi": 39,
                    "time": 256.36352099999766,
                    "velocity": 0.4251968503937008,
                    "duration": 0.08797650000002477
                },
                {
                    "name": "D#1",
                    "midi": 27,
                    "time": 256.36352099999766,
                    "velocity": 0.36220472440944884,
                    "duration": 0.08797650000002477
                },
                {
                    "name": "E2",
                    "midi": 40,
                    "time": 256.5394739999977,
                    "velocity": 0.5275590551181102,
                    "duration": 0.7038120000000276
                },
                {
                    "name": "E1",
                    "midi": 28,
                    "time": 256.5394739999977,
                    "velocity": 0.44881889763779526,
                    "duration": 0.7038120000000276
                },
                {
                    "name": "E3",
                    "midi": 52,
                    "time": 257.24328599999774,
                    "velocity": 0.5118110236220472,
                    "duration": 0.1759529999999927
                },
                {
                    "name": "B2",
                    "midi": 47,
                    "time": 257.24328599999774,
                    "velocity": 0.4251968503937008,
                    "duration": 0.1759529999999927
                },
                {
                    "name": "G#2",
                    "midi": 44,
                    "time": 257.24328599999774,
                    "velocity": 0.4251968503937008,
                    "duration": 0.1759529999999927
                },
                {
                    "name": "E2",
                    "midi": 40,
                    "time": 257.24328599999774,
                    "velocity": 0.4251968503937008,
                    "duration": 0.1759529999999927
                },
                {
                    "name": "E3",
                    "midi": 52,
                    "time": 257.5951919999977,
                    "velocity": 0.5354330708661418,
                    "duration": 0.11730199999999513
                },
                {
                    "name": "F#3",
                    "midi": 54,
                    "time": 257.7124939999977,
                    "velocity": 0.5669291338582677,
                    "duration": 0.11730199999999513
                },
                {
                    "name": "G#3",
                    "midi": 56,
                    "time": 257.8297959999977,
                    "velocity": 0.6062992125984252,
                    "duration": 0.11730199999999513
                },
                {
                    "name": "A3",
                    "midi": 57,
                    "time": 257.9470979999977,
                    "velocity": 0.5669291338582677,
                    "duration": 0.1759529999999927
                },
                {
                    "name": "A2",
                    "midi": 45,
                    "time": 257.9470979999977,
                    "velocity": 0.47244094488188976,
                    "duration": 0.1759529999999927
                },
                {
                    "name": "F3",
                    "midi": 53,
                    "time": 258.2990039999977,
                    "velocity": 0.44881889763779526,
                    "duration": 0.1759529999999927
                },
                {
                    "name": "F2",
                    "midi": 41,
                    "time": 258.2990039999977,
                    "velocity": 0.3700787401574803,
                    "duration": 0.1759529999999927
                },
                {
                    "name": "A3",
                    "midi": 57,
                    "time": 258.6509099999977,
                    "velocity": 0.5669291338582677,
                    "duration": 0.1759529999999927
                },
                {
                    "name": "A2",
                    "midi": 45,
                    "time": 258.6509099999977,
                    "velocity": 0.47244094488188976,
                    "duration": 0.1759529999999927
                },
                {
                    "name": "E3",
                    "midi": 52,
                    "time": 259.00281599999767,
                    "velocity": 0.44881889763779526,
                    "duration": 0.1759529999999927
                },
                {
                    "name": "E2",
                    "midi": 40,
                    "time": 259.00281599999767,
                    "velocity": 0.3700787401574803,
                    "duration": 0.1759529999999927
                },
                {
                    "name": "A3",
                    "midi": 57,
                    "time": 259.35472199999765,
                    "velocity": 0.5669291338582677,
                    "duration": 0.08797650000002477
                },
                {
                    "name": "A2",
                    "midi": 45,
                    "time": 259.35472199999765,
                    "velocity": 0.47244094488188976,
                    "duration": 0.08797650000002477
                },
                {
                    "name": "D3",
                    "midi": 50,
                    "time": 259.7066279999977,
                    "velocity": 0.44881889763779526,
                    "duration": 0.08797650000002477
                },
                {
                    "name": "D2",
                    "midi": 38,
                    "time": 259.7066279999977,
                    "velocity": 0.3700787401574803,
                    "duration": 0.08797650000002477
                },
                {
                    "name": "F2",
                    "midi": 41,
                    "time": 259.7066279999977,
                    "velocity": 0.3700787401574803,
                    "duration": 0.08797650000002477
                },
                {
                    "name": "A3",
                    "midi": 57,
                    "time": 260.05853399999774,
                    "velocity": 0.5669291338582677,
                    "duration": 0.7038119999999708
                },
                {
                    "name": "A2",
                    "midi": 45,
                    "time": 260.05853399999774,
                    "velocity": 0.47244094488188976,
                    "duration": 0.7038119999999708
                },
                {
                    "name": "E3",
                    "midi": 52,
                    "time": 260.05853399999774,
                    "velocity": 0.47244094488188976,
                    "duration": 0.7038119999999708
                },
                {
                    "name": "C2",
                    "midi": 36,
                    "time": 260.67436949999774,
                    "velocity": 0.4409448818897638,
                    "duration": 0.043988249999983964
                },
                {
                    "name": "C3",
                    "midi": 48,
                    "time": 260.7183577499977,
                    "velocity": 0.5196850393700787,
                    "duration": 0.043988249999983964
                },
                {
                    "name": "A4",
                    "midi": 69,
                    "time": 260.7623459999977,
                    "velocity": 0.5196850393700787,
                    "duration": 0.6158355000000029
                },
                {
                    "name": "A3",
                    "midi": 57,
                    "time": 260.7623459999977,
                    "velocity": 0.4409448818897638,
                    "duration": 0.6158355000000029
                },
                {
                    "name": "C4",
                    "midi": 60,
                    "time": 260.7623459999977,
                    "velocity": 0.4409448818897638,
                    "duration": 0.6158355000000029
                },
                {
                    "name": "F4",
                    "midi": 65,
                    "time": 260.7623459999977,
                    "velocity": 0.4409448818897638,
                    "duration": 0.6158355000000029
                },
                {
                    "name": "C2",
                    "midi": 36,
                    "time": 261.3781814999977,
                    "velocity": 0.44881889763779526,
                    "duration": 0.043988249999983964
                },
                {
                    "name": "C3",
                    "midi": 48,
                    "time": 261.4221697499977,
                    "velocity": 0.44881889763779526,
                    "duration": 0.043988249999983964
                },
                {
                    "name": "C5",
                    "midi": 72,
                    "time": 261.4661579999977,
                    "velocity": 0.5511811023622047,
                    "duration": 0.6158355000000029
                },
                {
                    "name": "C4",
                    "midi": 60,
                    "time": 261.4661579999977,
                    "velocity": 0.4645669291338583,
                    "duration": 0.6158355000000029
                },
                {
                    "name": "E4",
                    "midi": 64,
                    "time": 261.4661579999977,
                    "velocity": 0.4645669291338583,
                    "duration": 0.6158355000000029
                },
                {
                    "name": "G4",
                    "midi": 67,
                    "time": 261.4661579999977,
                    "velocity": 0.4645669291338583,
                    "duration": 0.6158355000000029
                },
                {
                    "name": "A1",
                    "midi": 33,
                    "time": 262.0819934999977,
                    "velocity": 0.4645669291338583,
                    "duration": 0.043988249999983964
                },
                {
                    "name": "A2",
                    "midi": 45,
                    "time": 262.12598174999766,
                    "velocity": 0.4645669291338583,
                    "duration": 0.043988249999983964
                },
                {
                    "name": "F4",
                    "midi": 65,
                    "time": 262.16996999999765,
                    "velocity": 0.49606299212598426,
                    "duration": 0.6158355000000029
                },
                {
                    "name": "F3",
                    "midi": 53,
                    "time": 262.16996999999765,
                    "velocity": 0.41732283464566927,
                    "duration": 0.6158355000000029
                },
                {
                    "name": "D4",
                    "midi": 62,
                    "time": 262.16996999999765,
                    "velocity": 0.41732283464566927,
                    "duration": 0.6158355000000029
                },
                {
                    "name": "A3",
                    "midi": 57,
                    "time": 262.16996999999765,
                    "velocity": 0.41732283464566927,
                    "duration": 0.6158355000000029
                },
                {
                    "name": "A1",
                    "midi": 33,
                    "time": 262.78580549999765,
                    "velocity": 0.44881889763779526,
                    "duration": 0.043988249999983964
                },
                {
                    "name": "A2",
                    "midi": 45,
                    "time": 262.82979374999763,
                    "velocity": 0.44881889763779526,
                    "duration": 0.043988249999983964
                },
                {
                    "name": "A4",
                    "midi": 69,
                    "time": 262.8737819999976,
                    "velocity": 0.49606299212598426,
                    "duration": 0.7038120000000276
                },
                {
                    "name": "A3",
                    "midi": 57,
                    "time": 262.8737819999976,
                    "velocity": 0.41732283464566927,
                    "duration": 0.7038120000000276
                },
                {
                    "name": "C4",
                    "midi": 60,
                    "time": 262.8737819999976,
                    "velocity": 0.41732283464566927,
                    "duration": 0.7038120000000276
                },
                {
                    "name": "E4",
                    "midi": 64,
                    "time": 262.8737819999976,
                    "velocity": 0.41732283464566927,
                    "duration": 0.7038120000000276
                },
                {
                    "name": "B2",
                    "midi": 47,
                    "time": 263.57759399999765,
                    "velocity": 0.5275590551181102,
                    "duration": 0.1759529999999927
                },
                {
                    "name": "B1",
                    "midi": 35,
                    "time": 263.57759399999765,
                    "velocity": 0.44881889763779526,
                    "duration": 0.1759529999999927
                },
                {
                    "name": "G#4",
                    "midi": 68,
                    "time": 263.92949999999763,
                    "velocity": 0.4566929133858268,
                    "duration": 0.1759529999999927
                },
                {
                    "name": "B3",
                    "midi": 59,
                    "time": 263.92949999999763,
                    "velocity": 0.3779527559055118,
                    "duration": 0.1759529999999927
                },
                {
                    "name": "E4",
                    "midi": 64,
                    "time": 263.92949999999763,
                    "velocity": 0.3779527559055118,
                    "duration": 0.1759529999999927
                },
                {
                    "name": "B2",
                    "midi": 47,
                    "time": 264.2814059999976,
                    "velocity": 0.5039370078740157,
                    "duration": 0.1759529999999927
                },
                {
                    "name": "A4",
                    "midi": 69,
                    "time": 264.6333119999976,
                    "velocity": 0.47244094488188976,
                    "duration": 0.1759529999999927
                },
                {
                    "name": "F#4",
                    "midi": 66,
                    "time": 264.6333119999976,
                    "velocity": 0.4015748031496063,
                    "duration": 0.1759529999999927
                },
                {
                    "name": "C#4",
                    "midi": 61,
                    "time": 264.6333119999976,
                    "velocity": 0.4015748031496063,
                    "duration": 0.1759529999999927
                },
                {
                    "name": "B2",
                    "midi": 47,
                    "time": 264.9852179999976,
                    "velocity": 0.5039370078740157,
                    "duration": 0.1759529999999927
                },
                {
                    "name": "G#4",
                    "midi": 68,
                    "time": 265.3371239999976,
                    "velocity": 0.44881889763779526,
                    "duration": 0.1759529999999927
                },
                {
                    "name": "E4",
                    "midi": 64,
                    "time": 265.3371239999976,
                    "velocity": 0.3700787401574803,
                    "duration": 0.1759529999999927
                },
                {
                    "name": "B3",
                    "midi": 59,
                    "time": 265.3371239999976,
                    "velocity": 0.3700787401574803,
                    "duration": 0.1759529999999927
                },
                {
                    "name": "B2",
                    "midi": 47,
                    "time": 265.68902999999756,
                    "velocity": 0.5039370078740157,
                    "duration": 0.1759529999999927
                },
                {
                    "name": "F#4",
                    "midi": 66,
                    "time": 266.04093599999754,
                    "velocity": 0.4251968503937008,
                    "duration": 0.1759529999999927
                },
                {
                    "name": "D#4",
                    "midi": 63,
                    "time": 266.04093599999754,
                    "velocity": 0.3543307086614173,
                    "duration": 0.1759529999999927
                },
                {
                    "name": "A3",
                    "midi": 57,
                    "time": 266.04093599999754,
                    "velocity": 0.3543307086614173,
                    "duration": 0.1759529999999927
                },
                {
                    "name": "E4",
                    "midi": 64,
                    "time": 266.39284199999753,
                    "velocity": 0.5039370078740157,
                    "duration": 0.1759529999999927
                },
                {
                    "name": "B3",
                    "midi": 59,
                    "time": 266.39284199999753,
                    "velocity": 0.4251968503937008,
                    "duration": 0.1759529999999927
                },
                {
                    "name": "G#3",
                    "midi": 56,
                    "time": 266.39284199999753,
                    "velocity": 0.4251968503937008,
                    "duration": 0.1759529999999927
                },
                {
                    "name": "E3",
                    "midi": 52,
                    "time": 266.39284199999753,
                    "velocity": 0.4251968503937008,
                    "duration": 0.1759529999999927
                },
                {
                    "name": "F#4",
                    "midi": 66,
                    "time": 266.7447479999975,
                    "velocity": 0.4251968503937008,
                    "duration": 0.1759529999999927
                },
                {
                    "name": "C4",
                    "midi": 60,
                    "time": 266.7447479999975,
                    "velocity": 0.3543307086614173,
                    "duration": 0.1759529999999927
                },
                {
                    "name": "A3",
                    "midi": 57,
                    "time": 266.7447479999975,
                    "velocity": 0.3543307086614173,
                    "duration": 0.1759529999999927
                },
                {
                    "name": "E4",
                    "midi": 64,
                    "time": 267.0966539999975,
                    "velocity": 0.49606299212598426,
                    "duration": 0.1759529999999927
                },
                {
                    "name": "B3",
                    "midi": 59,
                    "time": 267.0966539999975,
                    "velocity": 0.41732283464566927,
                    "duration": 0.1759529999999927
                },
                {
                    "name": "G#3",
                    "midi": 56,
                    "time": 267.0966539999975,
                    "velocity": 0.41732283464566927,
                    "duration": 0.1759529999999927
                },
                {
                    "name": "E3",
                    "midi": 52,
                    "time": 267.0966539999975,
                    "velocity": 0.41732283464566927,
                    "duration": 0.1759529999999927
                },
                {
                    "name": "F#4",
                    "midi": 66,
                    "time": 267.4485599999975,
                    "velocity": 0.44881889763779526,
                    "duration": 0.1759529999999927
                },
                {
                    "name": "C4",
                    "midi": 60,
                    "time": 267.4485599999975,
                    "velocity": 0.3700787401574803,
                    "duration": 0.1759529999999927
                },
                {
                    "name": "A3",
                    "midi": 57,
                    "time": 267.4485599999975,
                    "velocity": 0.3700787401574803,
                    "duration": 0.1759529999999927
                },
                {
                    "name": "E4",
                    "midi": 64,
                    "time": 267.80046599999747,
                    "velocity": 0.5275590551181102,
                    "duration": 0.7038120000000276
                },
                {
                    "name": "B3",
                    "midi": 59,
                    "time": 267.80046599999747,
                    "velocity": 0.44881889763779526,
                    "duration": 0.7038120000000276
                },
                {
                    "name": "G#3",
                    "midi": 56,
                    "time": 267.80046599999747,
                    "velocity": 0.44881889763779526,
                    "duration": 0.7038120000000276
                },
                {
                    "name": "E3",
                    "midi": 52,
                    "time": 267.80046599999747,
                    "velocity": 0.44881889763779526,
                    "duration": 0.7038120000000276
                },
                {
                    "name": "E3",
                    "midi": 52,
                    "time": 268.5042779999975,
                    "velocity": 0.5118110236220472,
                    "duration": 0.1759529999999927
                },
                {
                    "name": "E2",
                    "midi": 40,
                    "time": 268.5042779999975,
                    "velocity": 0.4251968503937008,
                    "duration": 0.1759529999999927
                },
                {
                    "name": "G#2",
                    "midi": 44,
                    "time": 268.5042779999975,
                    "velocity": 0.4251968503937008,
                    "duration": 0.1759529999999927
                },
                {
                    "name": "B2",
                    "midi": 47,
                    "time": 268.5042779999975,
                    "velocity": 0.4251968503937008,
                    "duration": 0.1759529999999927
                },
                {
                    "name": "E3",
                    "midi": 52,
                    "time": 269.1201134999975,
                    "velocity": 0.3937007874015748,
                    "duration": 0.08797650000002477
                },
                {
                    "name": "G#3",
                    "midi": 56,
                    "time": 269.1201134999975,
                    "velocity": 0.3937007874015748,
                    "duration": 0.08797650000002477
                },
                {
                    "name": "B3",
                    "midi": 59,
                    "time": 269.1201134999975,
                    "velocity": 0.4645669291338583,
                    "duration": 0.08797650000002477
                },
                {
                    "name": "E3",
                    "midi": 52,
                    "time": 269.2080899999975,
                    "velocity": 0.4330708661417323,
                    "duration": 0.1759529999999927
                },
                {
                    "name": "G#3",
                    "midi": 56,
                    "time": 269.2080899999975,
                    "velocity": 0.4330708661417323,
                    "duration": 0.1759529999999927
                },
                {
                    "name": "B3",
                    "midi": 59,
                    "time": 269.2080899999975,
                    "velocity": 0.5196850393700787,
                    "duration": 0.1759529999999927
                },
                {
                    "name": "C#3",
                    "midi": 49,
                    "time": 269.9119019999975,
                    "velocity": 0.5826771653543307,
                    "duration": 0.1759529999999927
                },
                {
                    "name": "E3",
                    "midi": 52,
                    "time": 269.9119019999975,
                    "velocity": 0.5826771653543307,
                    "duration": 0.1759529999999927
                },
                {
                    "name": "G#3",
                    "midi": 56,
                    "time": 269.9119019999975,
                    "velocity": 0.5826771653543307,
                    "duration": 0.1759529999999927
                },
                {
                    "name": "C#4",
                    "midi": 61,
                    "time": 269.9119019999975,
                    "velocity": 0.5826771653543307,
                    "duration": 0.1759529999999927
                },
                {
                    "name": "G#3",
                    "midi": 56,
                    "time": 270.61571399999747,
                    "velocity": 0.5826771653543307,
                    "duration": 1.055718000000013
                },
                {
                    "name": "G#2",
                    "midi": 44,
                    "time": 270.61571399999747,
                    "velocity": 0.48031496062992124,
                    "duration": 1.055718000000013
                },
                {
                    "name": "D#3",
                    "midi": 51,
                    "time": 270.61571399999747,
                    "velocity": 0.48031496062992124,
                    "duration": 1.055718000000013
                },
                {
                    "name": "C#3",
                    "midi": 49,
                    "time": 271.6714319999975,
                    "velocity": 0.49606299212598426,
                    "duration": 0.08797650000002477
                },
                {
                    "name": "C#2",
                    "midi": 37,
                    "time": 271.6714319999975,
                    "velocity": 0.4094488188976378,
                    "duration": 0.08797650000002477
                },
                {
                    "name": "G#2",
                    "midi": 44,
                    "time": 272.0233379999975,
                    "velocity": 0.5590551181102362,
                    "duration": 0.1759529999999927
                },
                {
                    "name": "G#3",
                    "midi": 56,
                    "time": 272.0233379999975,
                    "velocity": 0.5590551181102362,
                    "duration": 0.1759529999999927
                },
                {
                    "name": "C#4",
                    "midi": 61,
                    "time": 272.3752439999975,
                    "velocity": 0.49606299212598426,
                    "duration": 0.08797650000002477
                },
                {
                    "name": "C#3",
                    "midi": 49,
                    "time": 272.3752439999975,
                    "velocity": 0.4094488188976378,
                    "duration": 0.08797650000002477
                },
                {
                    "name": "G#3",
                    "midi": 56,
                    "time": 272.72714999999755,
                    "velocity": 0.5590551181102362,
                    "duration": 0.1759529999999927
                },
                {
                    "name": "G#4",
                    "midi": 68,
                    "time": 272.72714999999755,
                    "velocity": 0.5590551181102362,
                    "duration": 0.1759529999999927
                },
                {
                    "name": "C#4",
                    "midi": 61,
                    "time": 273.07905599999754,
                    "velocity": 0.49606299212598426,
                    "duration": 0.08797650000002477
                },
                {
                    "name": "C#3",
                    "midi": 49,
                    "time": 273.07905599999754,
                    "velocity": 0.4094488188976378,
                    "duration": 0.08797650000002477
                },
                {
                    "name": "G#3",
                    "midi": 56,
                    "time": 273.4309619999976,
                    "velocity": 0.7007874015748031,
                    "duration": 0.1759529999999927
                },
                {
                    "name": "G#2",
                    "midi": 44,
                    "time": 273.4309619999976,
                    "velocity": 0.5748031496062992,
                    "duration": 0.1759529999999927
                },
                {
                    "name": "G3",
                    "midi": 55,
                    "time": 273.78286799999756,
                    "velocity": 0.7007874015748031,
                    "duration": 0.1759529999999927
                },
                {
                    "name": "G2",
                    "midi": 43,
                    "time": 273.78286799999756,
                    "velocity": 0.5748031496062992,
                    "duration": 0.1759529999999927
                },
                {
                    "name": "F#3",
                    "midi": 54,
                    "time": 274.13477399999755,
                    "velocity": 0.7007874015748031,
                    "duration": 0.1759529999999927
                },
                {
                    "name": "F#2",
                    "midi": 42,
                    "time": 274.13477399999755,
                    "velocity": 0.5748031496062992,
                    "duration": 0.1759529999999927
                },
                {
                    "name": "F3",
                    "midi": 53,
                    "time": 274.48667999999753,
                    "velocity": 0.7007874015748031,
                    "duration": 0.1759529999999927
                },
                {
                    "name": "F2",
                    "midi": 41,
                    "time": 274.48667999999753,
                    "velocity": 0.5748031496062992,
                    "duration": 0.1759529999999927
                },
                {
                    "name": "B2",
                    "midi": 47,
                    "time": 274.8385859999975,
                    "velocity": 0.5984251968503937,
                    "duration": 0.13196475000000873
                },
                {
                    "name": "G#2",
                    "midi": 44,
                    "time": 274.8385859999975,
                    "velocity": 0.5984251968503937,
                    "duration": 0.13196475000000873
                },
                {
                    "name": "E3",
                    "midi": 52,
                    "time": 274.8385859999975,
                    "velocity": 0.7322834645669292,
                    "duration": 0.13196475000000873
                },
                {
                    "name": "E2",
                    "midi": 40,
                    "time": 274.8385859999975,
                    "velocity": 0.5984251968503937,
                    "duration": 0.13196475000000873
                },
                {
                    "name": "E5",
                    "midi": 76,
                    "time": 275.89430399999753,
                    "velocity": 0.4566929133858268,
                    "duration": 0.3519059999999854
                },
                {
                    "name": "E4",
                    "midi": 64,
                    "time": 275.89430399999753,
                    "velocity": 0.4566929133858268,
                    "duration": 0.3519059999999854
                },
                {
                    "name": "A4",
                    "midi": 69,
                    "time": 276.2462099999975,
                    "velocity": 0.5511811023622047,
                    "duration": 0.1759529999999927
                },
                {
                    "name": "C5",
                    "midi": 72,
                    "time": 276.2462099999975,
                    "velocity": 0.5511811023622047,
                    "duration": 0.1759529999999927
                },
                {
                    "name": "E5",
                    "midi": 76,
                    "time": 276.4221629999975,
                    "velocity": 0.48031496062992124,
                    "duration": 0.1759529999999927
                },
                {
                    "name": "A4",
                    "midi": 69,
                    "time": 276.5981159999975,
                    "velocity": 0.5118110236220472,
                    "duration": 0.1759529999999927
                },
                {
                    "name": "C5",
                    "midi": 72,
                    "time": 276.5981159999975,
                    "velocity": 0.5118110236220472,
                    "duration": 0.1759529999999927
                },
                {
                    "name": "B3",
                    "midi": 59,
                    "time": 276.9500219999975,
                    "velocity": 0.5118110236220472,
                    "duration": 0.1759529999999927
                },
                {
                    "name": "D4",
                    "midi": 62,
                    "time": 276.9500219999975,
                    "velocity": 0.5118110236220472,
                    "duration": 0.1759529999999927
                },
                {
                    "name": "G4",
                    "midi": 67,
                    "time": 277.1259749999975,
                    "velocity": 0.4645669291338583,
                    "duration": 0.1759529999999927
                },
                {
                    "name": "B3",
                    "midi": 59,
                    "time": 277.3019279999975,
                    "velocity": 0.4330708661417323,
                    "duration": 0.1759529999999927
                },
                {
                    "name": "D4",
                    "midi": 62,
                    "time": 277.3019279999975,
                    "velocity": 0.4330708661417323,
                    "duration": 0.1759529999999927
                },
                {
                    "name": "A4",
                    "midi": 69,
                    "time": 277.65383399999746,
                    "velocity": 0.5511811023622047,
                    "duration": 0.1759529999999927
                },
                {
                    "name": "F4",
                    "midi": 65,
                    "time": 277.65383399999746,
                    "velocity": 0.5511811023622047,
                    "duration": 0.1759529999999927
                },
                {
                    "name": "C5",
                    "midi": 72,
                    "time": 277.82978699999745,
                    "velocity": 0.48031496062992124,
                    "duration": 0.1759529999999927
                },
                {
                    "name": "A4",
                    "midi": 69,
                    "time": 278.00573999999745,
                    "velocity": 0.5118110236220472,
                    "duration": 0.1759529999999927
                },
                {
                    "name": "F4",
                    "midi": 65,
                    "time": 278.00573999999745,
                    "velocity": 0.5118110236220472,
                    "duration": 0.1759529999999927
                },
                {
                    "name": "B3",
                    "midi": 59,
                    "time": 278.35764599999743,
                    "velocity": 0.5118110236220472,
                    "duration": 0.1759529999999927
                },
                {
                    "name": "G3",
                    "midi": 55,
                    "time": 278.35764599999743,
                    "velocity": 0.5118110236220472,
                    "duration": 0.1759529999999927
                },
                {
                    "name": "E4",
                    "midi": 64,
                    "time": 278.5335989999974,
                    "velocity": 0.4645669291338583,
                    "duration": 0.1759529999999927
                },
                {
                    "name": "B3",
                    "midi": 59,
                    "time": 278.7095519999974,
                    "velocity": 0.4330708661417323,
                    "duration": 0.1759529999999927
                },
                {
                    "name": "G3",
                    "midi": 55,
                    "time": 278.7095519999974,
                    "velocity": 0.4330708661417323,
                    "duration": 0.1759529999999927
                },
                {
                    "name": "D4",
                    "midi": 62,
                    "time": 279.0614579999974,
                    "velocity": 0.5511811023622047,
                    "duration": 0.1759529999999927
                },
                {
                    "name": "F4",
                    "midi": 65,
                    "time": 279.0614579999974,
                    "velocity": 0.5511811023622047,
                    "duration": 0.1759529999999927
                },
                {
                    "name": "A4",
                    "midi": 69,
                    "time": 279.2374109999974,
                    "velocity": 0.48031496062992124,
                    "duration": 0.1759529999999927
                },
                {
                    "name": "D4",
                    "midi": 62,
                    "time": 279.4133639999974,
                    "velocity": 0.5118110236220472,
                    "duration": 0.1759529999999927
                },
                {
                    "name": "F4",
                    "midi": 65,
                    "time": 279.4133639999974,
                    "velocity": 0.5118110236220472,
                    "duration": 0.1759529999999927
                },
                {
                    "name": "G3",
                    "midi": 55,
                    "time": 279.7652699999974,
                    "velocity": 0.5118110236220472,
                    "duration": 0.1759529999999927
                },
                {
                    "name": "E3",
                    "midi": 52,
                    "time": 279.7652699999974,
                    "velocity": 0.5118110236220472,
                    "duration": 0.1759529999999927
                },
                {
                    "name": "C4",
                    "midi": 60,
                    "time": 279.94122299999736,
                    "velocity": 0.4645669291338583,
                    "duration": 0.1759529999999927
                },
                {
                    "name": "G3",
                    "midi": 55,
                    "time": 280.11717599999736,
                    "velocity": 0.4330708661417323,
                    "duration": 0.1759529999999927
                },
                {
                    "name": "E3",
                    "midi": 52,
                    "time": 280.11717599999736,
                    "velocity": 0.4330708661417323,
                    "duration": 0.1759529999999927
                },
                {
                    "name": "B3",
                    "midi": 59,
                    "time": 280.46908199999734,
                    "velocity": 0.5511811023622047,
                    "duration": 0.1759529999999927
                },
                {
                    "name": "D4",
                    "midi": 62,
                    "time": 280.46908199999734,
                    "velocity": 0.5511811023622047,
                    "duration": 0.1759529999999927
                },
                {
                    "name": "F4",
                    "midi": 65,
                    "time": 280.64503499999734,
                    "velocity": 0.48031496062992124,
                    "duration": 0.1759529999999927
                },
                {
                    "name": "D4",
                    "midi": 62,
                    "time": 280.8209879999973,
                    "velocity": 0.5118110236220472,
                    "duration": 0.1759529999999927
                },
                {
                    "name": "B3",
                    "midi": 59,
                    "time": 280.8209879999973,
                    "velocity": 0.5118110236220472,
                    "duration": 0.1759529999999927
                },
                {
                    "name": "C3",
                    "midi": 48,
                    "time": 281.1728939999973,
                    "velocity": 0.5118110236220472,
                    "duration": 0.1759529999999927
                },
                {
                    "name": "E3",
                    "midi": 52,
                    "time": 281.1728939999973,
                    "velocity": 0.5118110236220472,
                    "duration": 0.1759529999999927
                },
                {
                    "name": "A3",
                    "midi": 57,
                    "time": 281.3488469999973,
                    "velocity": 0.4645669291338583,
                    "duration": 0.1759529999999927
                },
                {
                    "name": "C3",
                    "midi": 48,
                    "time": 281.5247999999973,
                    "velocity": 0.4330708661417323,
                    "duration": 0.1759529999999927
                },
                {
                    "name": "E3",
                    "midi": 52,
                    "time": 281.5247999999973,
                    "velocity": 0.4330708661417323,
                    "duration": 0.1759529999999927
                },
                {
                    "name": "B3",
                    "midi": 59,
                    "time": 281.8767059999973,
                    "velocity": 0.5511811023622047,
                    "duration": 0.1759529999999927
                },
                {
                    "name": "G3",
                    "midi": 55,
                    "time": 281.8767059999973,
                    "velocity": 0.5511811023622047,
                    "duration": 0.1759529999999927
                },
                {
                    "name": "D4",
                    "midi": 62,
                    "time": 282.0526589999973,
                    "velocity": 0.48031496062992124,
                    "duration": 0.1759529999999927
                },
                {
                    "name": "B3",
                    "midi": 59,
                    "time": 282.22861199999727,
                    "velocity": 0.5118110236220472,
                    "duration": 0.1759529999999927
                },
                {
                    "name": "G3",
                    "midi": 55,
                    "time": 282.22861199999727,
                    "velocity": 0.5118110236220472,
                    "duration": 0.1759529999999927
                },
                {
                    "name": "A2",
                    "midi": 45,
                    "time": 282.58051799999726,
                    "velocity": 0.5118110236220472,
                    "duration": 0.1759529999999927
                },
                {
                    "name": "C3",
                    "midi": 48,
                    "time": 282.58051799999726,
                    "velocity": 0.5118110236220472,
                    "duration": 0.1759529999999927
                },
                {
                    "name": "F3",
                    "midi": 53,
                    "time": 282.75647099999725,
                    "velocity": 0.4645669291338583,
                    "duration": 0.1759529999999927
                },
                {
                    "name": "C3",
                    "midi": 48,
                    "time": 282.93242399999724,
                    "velocity": 0.4330708661417323,
                    "duration": 0.1759529999999927
                },
                {
                    "name": "A2",
                    "midi": 45,
                    "time": 282.93242399999724,
                    "velocity": 0.4330708661417323,
                    "duration": 0.1759529999999927
                },
                {
                    "name": "E3",
                    "midi": 52,
                    "time": 283.2843299999972,
                    "velocity": 0.6062992125984252,
                    "duration": 0.3519059999999854
                },
                {
                    "name": "G#2",
                    "midi": 44,
                    "time": 283.2843299999972,
                    "velocity": 0.5118110236220472,
                    "duration": 0.3519059999999854
                },
                {
                    "name": "E2",
                    "midi": 40,
                    "time": 283.2843299999972,
                    "velocity": 0.5118110236220472,
                    "duration": 0.3519059999999854
                },
                {
                    "name": "B2",
                    "midi": 47,
                    "time": 283.2843299999972,
                    "velocity": 0.5118110236220472,
                    "duration": 0.3519059999999854
                },
                {
                    "name": "D3",
                    "midi": 50,
                    "time": 283.8121889999972,
                    "velocity": 0.4409448818897638,
                    "duration": 0.1759529999999927
                },
                {
                    "name": "E3",
                    "midi": 52,
                    "time": 283.8121889999972,
                    "velocity": 0.4409448818897638,
                    "duration": 0.1759529999999927
                },
                {
                    "name": "B3",
                    "midi": 59,
                    "time": 283.8121889999972,
                    "velocity": 0.5275590551181102,
                    "duration": 0.1759529999999927
                },
                {
                    "name": "A#3",
                    "midi": 58,
                    "time": 283.9881419999972,
                    "velocity": 0.5590551181102362,
                    "duration": 0.08797650000002477
                },
                {
                    "name": "E3",
                    "midi": 52,
                    "time": 283.9881419999972,
                    "velocity": 0.47244094488188976,
                    "duration": 0.08797650000002477
                },
                {
                    "name": "C#3",
                    "midi": 49,
                    "time": 283.9881419999972,
                    "velocity": 0.47244094488188976,
                    "duration": 0.08797650000002477
                },
                {
                    "name": "C3",
                    "midi": 48,
                    "time": 284.34004799999724,
                    "velocity": 0.4409448818897638,
                    "duration": 0.08797650000002477
                },
                {
                    "name": "A3",
                    "midi": 57,
                    "time": 284.34004799999724,
                    "velocity": 0.5275590551181102,
                    "duration": 0.08797650000002477
                },
                {
                    "name": "E3",
                    "midi": 52,
                    "time": 284.34004799999724,
                    "velocity": 0.4409448818897638,
                    "duration": 0.08797650000002477
                },
                {
                    "name": "E3",
                    "midi": 52,
                    "time": 284.6919539999973,
                    "velocity": 0.5118110236220472,
                    "duration": 0.3519059999999854
                },
                {
                    "name": "B2",
                    "midi": 47,
                    "time": 284.6919539999973,
                    "velocity": 0.5118110236220472,
                    "duration": 0.3519059999999854
                },
                {
                    "name": "G#3",
                    "midi": 56,
                    "time": 284.6919539999973,
                    "velocity": 0.6062992125984252,
                    "duration": 0.3519059999999854
                },
                {
                    "name": "E4",
                    "midi": 64,
                    "time": 285.21981299999726,
                    "velocity": 0.4409448818897638,
                    "duration": 0.1759529999999927
                },
                {
                    "name": "D4",
                    "midi": 62,
                    "time": 285.21981299999726,
                    "velocity": 0.4409448818897638,
                    "duration": 0.1759529999999927
                },
                {
                    "name": "B4",
                    "midi": 71,
                    "time": 285.21981299999726,
                    "velocity": 0.5275590551181102,
                    "duration": 0.1759529999999927
                },
                {
                    "name": "C#4",
                    "midi": 61,
                    "time": 285.39576599999725,
                    "velocity": 0.47244094488188976,
                    "duration": 0.08797650000002477
                },
                {
                    "name": "E4",
                    "midi": 64,
                    "time": 285.39576599999725,
                    "velocity": 0.47244094488188976,
                    "duration": 0.08797650000002477
                },
                {
                    "name": "A#4",
                    "midi": 70,
                    "time": 285.39576599999725,
                    "velocity": 0.5590551181102362,
                    "duration": 0.08797650000002477
                },
                {
                    "name": "C4",
                    "midi": 60,
                    "time": 285.7476719999973,
                    "velocity": 0.4409448818897638,
                    "duration": 0.08797650000002477
                },
                {
                    "name": "E4",
                    "midi": 64,
                    "time": 285.7476719999973,
                    "velocity": 0.4409448818897638,
                    "duration": 0.08797650000002477
                },
                {
                    "name": "A4",
                    "midi": 69,
                    "time": 285.7476719999973,
                    "velocity": 0.5275590551181102,
                    "duration": 0.08797650000002477
                },
                {
                    "name": "B3",
                    "midi": 59,
                    "time": 286.09957799999734,
                    "velocity": 0.5118110236220472,
                    "duration": 0.3519059999999854
                },
                {
                    "name": "E4",
                    "midi": 64,
                    "time": 286.09957799999734,
                    "velocity": 0.5118110236220472,
                    "duration": 0.3519059999999854
                },
                {
                    "name": "G#4",
                    "midi": 68,
                    "time": 286.09957799999734,
                    "velocity": 0.6062992125984252,
                    "duration": 0.3519059999999854
                },
                {
                    "name": "E5",
                    "midi": 76,
                    "time": 286.4514839999973,
                    "velocity": 0.5433070866141733,
                    "duration": 0.08797650000002477
                },
                {
                    "name": "B4",
                    "midi": 71,
                    "time": 286.4514839999973,
                    "velocity": 0.4566929133858268,
                    "duration": 0.08797650000002477
                },
                {
                    "name": "D5",
                    "midi": 74,
                    "time": 286.4514839999973,
                    "velocity": 0.4566929133858268,
                    "duration": 0.08797650000002477
                },
                {
                    "name": "E4",
                    "midi": 64,
                    "time": 286.4514839999973,
                    "velocity": 0.4566929133858268,
                    "duration": 0.08797650000002477
                },
                {
                    "name": "E5",
                    "midi": 76,
                    "time": 286.80338999999736,
                    "velocity": 0.5826771653543307,
                    "duration": 0.08797650000002477
                },
                {
                    "name": "E4",
                    "midi": 64,
                    "time": 286.80338999999736,
                    "velocity": 0.4881889763779528,
                    "duration": 0.08797650000002477
                },
                {
                    "name": "C#5",
                    "midi": 73,
                    "time": 286.80338999999736,
                    "velocity": 0.4881889763779528,
                    "duration": 0.08797650000002477
                },
                {
                    "name": "A#4",
                    "midi": 70,
                    "time": 286.80338999999736,
                    "velocity": 0.4881889763779528,
                    "duration": 0.08797650000002477
                },
                {
                    "name": "A4",
                    "midi": 69,
                    "time": 287.1552959999974,
                    "velocity": 0.48031496062992124,
                    "duration": 0.08797650000002477
                },
                {
                    "name": "E5",
                    "midi": 76,
                    "time": 287.1552959999974,
                    "velocity": 0.5669291338582677,
                    "duration": 0.08797650000002477
                },
                {
                    "name": "C5",
                    "midi": 72,
                    "time": 287.1552959999974,
                    "velocity": 0.48031496062992124,
                    "duration": 0.08797650000002477
                },
                {
                    "name": "E4",
                    "midi": 64,
                    "time": 287.1552959999974,
                    "velocity": 0.48031496062992124,
                    "duration": 0.08797650000002477
                },
                {
                    "name": "E4",
                    "midi": 64,
                    "time": 287.50720199999745,
                    "velocity": 0.4881889763779528,
                    "duration": 0.3519059999999854
                },
                {
                    "name": "E5",
                    "midi": 76,
                    "time": 287.50720199999745,
                    "velocity": 0.5748031496062992,
                    "duration": 0.3519059999999854
                },
                {
                    "name": "B4",
                    "midi": 71,
                    "time": 287.50720199999745,
                    "velocity": 0.4881889763779528,
                    "duration": 0.3519059999999854
                },
                {
                    "name": "G#4",
                    "midi": 68,
                    "time": 287.50720199999745,
                    "velocity": 0.4881889763779528,
                    "duration": 0.3519059999999854
                },
                {
                    "name": "G#5",
                    "midi": 80,
                    "time": 287.85910799999743,
                    "velocity": 0.5748031496062992,
                    "duration": 0.08797650000002477
                },
                {
                    "name": "B4",
                    "midi": 71,
                    "time": 287.85910799999743,
                    "velocity": 0.4881889763779528,
                    "duration": 0.08797650000002477
                },
                {
                    "name": "B5",
                    "midi": 83,
                    "time": 287.85910799999743,
                    "velocity": 0.5748031496062992,
                    "duration": 0.08797650000002477
                },
                {
                    "name": "E5",
                    "midi": 76,
                    "time": 287.85910799999743,
                    "velocity": 0.4881889763779528,
                    "duration": 0.08797650000002477
                },
                {
                    "name": "E3",
                    "midi": 52,
                    "time": 288.38696699999747,
                    "velocity": 0.5511811023622047,
                    "duration": 0.1759529999999927
                },
                {
                    "name": "E2",
                    "midi": 40,
                    "time": 288.38696699999747,
                    "velocity": 0.4645669291338583,
                    "duration": 0.1759529999999927
                },
                {
                    "name": "F#3",
                    "midi": 54,
                    "time": 288.56291999999746,
                    "velocity": 0.5826771653543307,
                    "duration": 0.1759529999999927
                },
                {
                    "name": "F#2",
                    "midi": 42,
                    "time": 288.56291999999746,
                    "velocity": 0.4881889763779528,
                    "duration": 0.1759529999999927
                },
                {
                    "name": "G#3",
                    "midi": 56,
                    "time": 288.73887299999745,
                    "velocity": 0.6220472440944882,
                    "duration": 0.1759529999999927
                },
                {
                    "name": "G#2",
                    "midi": 44,
                    "time": 288.73887299999745,
                    "velocity": 0.5275590551181102,
                    "duration": 0.1759529999999927
                },
                {
                    "name": "A3",
                    "midi": 57,
                    "time": 288.91482599999745,
                    "velocity": 0.6535433070866141,
                    "duration": 0.1759529999999927
                },
                {
                    "name": "A2",
                    "midi": 45,
                    "time": 288.91482599999745,
                    "velocity": 0.5511811023622047,
                    "duration": 0.1759529999999927
                },
                {
                    "name": "F3",
                    "midi": 53,
                    "time": 289.26673199999743,
                    "velocity": 0.4409448818897638,
                    "duration": 0.1759529999999927
                },
                {
                    "name": "F2",
                    "midi": 41,
                    "time": 289.26673199999743,
                    "velocity": 0.3700787401574803,
                    "duration": 0.1759529999999927
                },
                {
                    "name": "A3",
                    "midi": 57,
                    "time": 289.6186379999974,
                    "velocity": 0.5511811023622047,
                    "duration": 0.1759529999999927
                },
                {
                    "name": "A2",
                    "midi": 45,
                    "time": 289.6186379999974,
                    "velocity": 0.4645669291338583,
                    "duration": 0.1759529999999927
                },
                {
                    "name": "E2",
                    "midi": 40,
                    "time": 289.9705439999974,
                    "velocity": 0.3700787401574803,
                    "duration": 0.1759529999999927
                },
                {
                    "name": "E3",
                    "midi": 52,
                    "time": 289.9705439999974,
                    "velocity": 0.4409448818897638,
                    "duration": 0.1759529999999927
                },
                {
                    "name": "A2",
                    "midi": 45,
                    "time": 290.3224499999974,
                    "velocity": 0.4645669291338583,
                    "duration": 0.08797650000002477
                },
                {
                    "name": "A3",
                    "midi": 57,
                    "time": 290.3224499999974,
                    "velocity": 0.5511811023622047,
                    "duration": 0.08797650000002477
                },
                {
                    "name": "D2",
                    "midi": 38,
                    "time": 290.67435599999743,
                    "velocity": 0.3700787401574803,
                    "duration": 0.08797650000002477
                },
                {
                    "name": "D3",
                    "midi": 50,
                    "time": 290.67435599999743,
                    "velocity": 0.4409448818897638,
                    "duration": 0.08797650000002477
                },
                {
                    "name": "F2",
                    "midi": 41,
                    "time": 290.67435599999743,
                    "velocity": 0.3700787401574803,
                    "duration": 0.08797650000002477
                },
                {
                    "name": "A3",
                    "midi": 57,
                    "time": 291.0262619999975,
                    "velocity": 0.5511811023622047,
                    "duration": 0.7038120000000276
                },
                {
                    "name": "E3",
                    "midi": 52,
                    "time": 291.0262619999975,
                    "velocity": 0.4645669291338583,
                    "duration": 0.7038120000000276
                },
                {
                    "name": "A2",
                    "midi": 45,
                    "time": 291.0262619999975,
                    "velocity": 0.4645669291338583,
                    "duration": 0.7038120000000276
                },
                {
                    "name": "A3",
                    "midi": 57,
                    "time": 292.0819799999975,
                    "velocity": 0.49606299212598426,
                    "duration": 0.08797650000002477
                },
                {
                    "name": "A4",
                    "midi": 69,
                    "time": 292.0819799999975,
                    "velocity": 0.5905511811023622,
                    "duration": 0.08797650000002477
                },
                {
                    "name": "B4",
                    "midi": 71,
                    "time": 292.25793299999754,
                    "velocity": 0.6220472440944882,
                    "duration": 0.08797650000002477
                },
                {
                    "name": "B3",
                    "midi": 59,
                    "time": 292.25793299999754,
                    "velocity": 0.5275590551181102,
                    "duration": 0.08797650000002477
                },
                {
                    "name": "C5",
                    "midi": 72,
                    "time": 292.4338859999976,
                    "velocity": 0.6456692913385826,
                    "duration": 0.5278589999999781
                },
                {
                    "name": "C4",
                    "midi": 60,
                    "time": 292.4338859999976,
                    "velocity": 0.5433070866141733,
                    "duration": 0.5278589999999781
                },
                {
                    "name": "B4",
                    "midi": 71,
                    "time": 292.96174499999756,
                    "velocity": 0.5826771653543307,
                    "duration": 0.08797650000002477
                },
                {
                    "name": "B3",
                    "midi": 59,
                    "time": 292.96174499999756,
                    "velocity": 0.4881889763779528,
                    "duration": 0.08797650000002477
                },
                {
                    "name": "A4",
                    "midi": 69,
                    "time": 293.1376979999976,
                    "velocity": 0.6535433070866141,
                    "duration": 0.5278589999999781
                },
                {
                    "name": "A3",
                    "midi": 57,
                    "time": 293.1376979999976,
                    "velocity": 0.5511811023622047,
                    "duration": 0.5278589999999781
                },
                {
                    "name": "G3",
                    "midi": 55,
                    "time": 293.6655569999976,
                    "velocity": 0.49606299212598426,
                    "duration": 0.08797650000002477
                },
                {
                    "name": "G4",
                    "midi": 67,
                    "time": 293.6655569999976,
                    "velocity": 0.5905511811023622,
                    "duration": 0.08797650000002477
                },
                {
                    "name": "F3",
                    "midi": 53,
                    "time": 293.84150999999764,
                    "velocity": 0.5590551181102362,
                    "duration": 0.5278589999999781
                },
                {
                    "name": "F4",
                    "midi": 65,
                    "time": 293.84150999999764,
                    "velocity": 0.6614173228346457,
                    "duration": 0.5278589999999781
                },
                {
                    "name": "E4",
                    "midi": 64,
                    "time": 294.3693689999976,
                    "velocity": 0.5905511811023622,
                    "duration": 0.08797650000002477
                },
                {
                    "name": "E3",
                    "midi": 52,
                    "time": 294.3693689999976,
                    "velocity": 0.5905511811023622,
                    "duration": 0.08797650000002477
                },
                {
                    "name": "D3",
                    "midi": 50,
                    "time": 294.54532199999767,
                    "velocity": 0.4645669291338583,
                    "duration": 0.1759529999999927
                },
                {
                    "name": "D4",
                    "midi": 62,
                    "time": 294.54532199999767,
                    "velocity": 0.5511811023622047,
                    "duration": 0.1759529999999927
                },
                {
                    "name": "A#2",
                    "midi": 46,
                    "time": 294.89722799999765,
                    "velocity": 0.3700787401574803,
                    "duration": 0.08797650000002477
                },
                {
                    "name": "A#3",
                    "midi": 58,
                    "time": 294.89722799999765,
                    "velocity": 0.4409448818897638,
                    "duration": 0.08797650000002477
                },
                {
                    "name": "D3",
                    "midi": 50,
                    "time": 295.2491339999977,
                    "velocity": 0.4645669291338583,
                    "duration": 0.1759529999999927
                },
                {
                    "name": "D4",
                    "midi": 62,
                    "time": 295.2491339999977,
                    "velocity": 0.5511811023622047,
                    "duration": 0.1759529999999927
                },
                {
                    "name": "A2",
                    "midi": 45,
                    "time": 295.6010399999977,
                    "velocity": 0.3700787401574803,
                    "duration": 0.08797650000002477
                },
                {
                    "name": "A3",
                    "midi": 57,
                    "time": 295.6010399999977,
                    "velocity": 0.4409448818897638,
                    "duration": 0.08797650000002477
                },
                {
                    "name": "D3",
                    "midi": 50,
                    "time": 295.9529459999977,
                    "velocity": 0.4645669291338583,
                    "duration": 0.08797650000002477
                },
                {
                    "name": "D4",
                    "midi": 62,
                    "time": 295.9529459999977,
                    "velocity": 0.5511811023622047,
                    "duration": 0.08797650000002477
                },
                {
                    "name": "A#2",
                    "midi": 46,
                    "time": 296.30485199999777,
                    "velocity": 0.3700787401574803,
                    "duration": 0.08797650000002477
                },
                {
                    "name": "G3",
                    "midi": 55,
                    "time": 296.30485199999777,
                    "velocity": 0.4409448818897638,
                    "duration": 0.08797650000002477
                },
                {
                    "name": "G2",
                    "midi": 43,
                    "time": 296.30485199999777,
                    "velocity": 0.3700787401574803,
                    "duration": 0.08797650000002477
                },
                {
                    "name": "D3",
                    "midi": 50,
                    "time": 296.6567579999978,
                    "velocity": 0.4645669291338583,
                    "duration": 0.7038120000000276
                },
                {
                    "name": "A3",
                    "midi": 57,
                    "time": 296.6567579999978,
                    "velocity": 0.4645669291338583,
                    "duration": 0.7038120000000276
                },
                {
                    "name": "D4",
                    "midi": 62,
                    "time": 296.6567579999978,
                    "velocity": 0.5511811023622047,
                    "duration": 0.7038120000000276
                },
                {
                    "name": "D4",
                    "midi": 62,
                    "time": 297.7124759999978,
                    "velocity": 0.49606299212598426,
                    "duration": 0.08797650000002477
                },
                {
                    "name": "D5",
                    "midi": 74,
                    "time": 297.7124759999978,
                    "velocity": 0.5905511811023622,
                    "duration": 0.08797650000002477
                },
                {
                    "name": "E4",
                    "midi": 64,
                    "time": 297.88842899999787,
                    "velocity": 0.5275590551181102,
                    "duration": 0.08797650000002477
                },
                {
                    "name": "E5",
                    "midi": 76,
                    "time": 297.88842899999787,
                    "velocity": 0.6220472440944882,
                    "duration": 0.08797650000002477
                },
                {
                    "name": "F4",
                    "midi": 65,
                    "time": 298.0643819999979,
                    "velocity": 0.5433070866141733,
                    "duration": 0.5278589999999781
                },
                {
                    "name": "F5",
                    "midi": 77,
                    "time": 298.0643819999979,
                    "velocity": 0.6456692913385826,
                    "duration": 0.5278589999999781
                },
                {
                    "name": "E4",
                    "midi": 64,
                    "time": 298.5922409999979,
                    "velocity": 0.4881889763779528,
                    "duration": 0.08797650000002477
                },
                {
                    "name": "E5",
                    "midi": 76,
                    "time": 298.5922409999979,
                    "velocity": 0.5826771653543307,
                    "duration": 0.08797650000002477
                },
                {
                    "name": "D5",
                    "midi": 74,
                    "time": 298.76819399999795,
                    "velocity": 0.6535433070866141,
                    "duration": 0.5278589999999781
                },
                {
                    "name": "D4",
                    "midi": 62,
                    "time": 298.76819399999795,
                    "velocity": 0.5511811023622047,
                    "duration": 0.5278589999999781
                },
                {
                    "name": "C5",
                    "midi": 72,
                    "time": 299.2960529999979,
                    "velocity": 0.5905511811023622,
                    "duration": 0.08797650000002477
                },
                {
                    "name": "C4",
                    "midi": 60,
                    "time": 299.2960529999979,
                    "velocity": 0.49606299212598426,
                    "duration": 0.08797650000002477
                },
                {
                    "name": "B4",
                    "midi": 71,
                    "time": 299.472005999998,
                    "velocity": 0.6614173228346457,
                    "duration": 0.5278589999999781
                },
                {
                    "name": "B3",
                    "midi": 59,
                    "time": 299.472005999998,
                    "velocity": 0.5590551181102362,
                    "duration": 0.5278589999999781
                },
                {
                    "name": "A4",
                    "midi": 69,
                    "time": 299.99986499999795,
                    "velocity": 0.5511811023622047,
                    "duration": 0.08797650000002477
                },
                {
                    "name": "A3",
                    "midi": 57,
                    "time": 299.99986499999795,
                    "velocity": 0.4645669291338583,
                    "duration": 0.08797650000002477
                },
                {
                    "name": "G#3",
                    "midi": 56,
                    "time": 300.175817999998,
                    "velocity": 0.48031496062992124,
                    "duration": 0.08797650000002477
                },
                {
                    "name": "G#4",
                    "midi": 68,
                    "time": 300.175817999998,
                    "velocity": 0.5669291338582677,
                    "duration": 0.08797650000002477
                },
                {
                    "name": "B3",
                    "midi": 59,
                    "time": 300.35177099999805,
                    "velocity": 0.5118110236220472,
                    "duration": 0.08797650000002477
                },
                {
                    "name": "B4",
                    "midi": 71,
                    "time": 300.35177099999805,
                    "velocity": 0.6062992125984252,
                    "duration": 0.08797650000002477
                },
                {
                    "name": "E4",
                    "midi": 64,
                    "time": 300.5277239999981,
                    "velocity": 0.5354330708661418,
                    "duration": 0.1759529999999927
                },
                {
                    "name": "E5",
                    "midi": 76,
                    "time": 300.5277239999981,
                    "velocity": 0.6377952755905512,
                    "duration": 0.1759529999999927
                },
                {
                    "name": "E2",
                    "midi": 40,
                    "time": 300.8796299999981,
                    "velocity": 0.4645669291338583,
                    "duration": 0.7038120000000276
                },
                {
                    "name": "E3",
                    "midi": 52,
                    "time": 300.8796299999981,
                    "velocity": 0.5511811023622047,
                    "duration": 0.7038120000000276
                },
                {
                    "name": "G#2",
                    "midi": 44,
                    "time": 300.8796299999981,
                    "velocity": 0.4645669291338583,
                    "duration": 0.7038120000000276
                },
                {
                    "name": "B2",
                    "midi": 47,
                    "time": 300.8796299999981,
                    "velocity": 0.4645669291338583,
                    "duration": 0.7038120000000276
                },
                {
                    "name": "A4",
                    "midi": 69,
                    "time": 301.5834419999981,
                    "velocity": 0.5669291338582677,
                    "duration": 0.08797650000002477
                },
                {
                    "name": "A3",
                    "midi": 57,
                    "time": 301.5834419999981,
                    "velocity": 0.48031496062992124,
                    "duration": 0.08797650000002477
                },
                {
                    "name": "C5",
                    "midi": 72,
                    "time": 301.75939499999816,
                    "velocity": 0.6062992125984252,
                    "duration": 0.08797650000002477
                },
                {
                    "name": "C4",
                    "midi": 60,
                    "time": 301.75939499999816,
                    "velocity": 0.5118110236220472,
                    "duration": 0.08797650000002477
                },
                {
                    "name": "E5",
                    "midi": 76,
                    "time": 301.9353479999982,
                    "velocity": 0.6377952755905512,
                    "duration": 0.1759529999999927
                },
                {
                    "name": "E4",
                    "midi": 64,
                    "time": 301.9353479999982,
                    "velocity": 0.5354330708661418,
                    "duration": 0.1759529999999927
                },
                {
                    "name": "E3",
                    "midi": 52,
                    "time": 302.2872539999982,
                    "velocity": 0.5511811023622047,
                    "duration": 0.7038120000000276
                },
                {
                    "name": "A2",
                    "midi": 45,
                    "time": 302.2872539999982,
                    "velocity": 0.4645669291338583,
                    "duration": 0.7038120000000276
                },
                {
                    "name": "C3",
                    "midi": 48,
                    "time": 302.2872539999982,
                    "velocity": 0.4645669291338583,
                    "duration": 0.7038120000000276
                },
                {
                    "name": "E2",
                    "midi": 40,
                    "time": 302.2872539999982,
                    "velocity": 0.4645669291338583,
                    "duration": 0.7038120000000276
                },
                {
                    "name": "F4",
                    "midi": 65,
                    "time": 302.9910659999982,
                    "velocity": 0.6692913385826772,
                    "duration": 0.3519059999999854
                },
                {
                    "name": "E4",
                    "midi": 64,
                    "time": 303.3429719999982,
                    "velocity": 0.5748031496062992,
                    "duration": 0.08797650000002477
                },
                {
                    "name": "B2",
                    "midi": 47,
                    "time": 303.69487799999825,
                    "velocity": 0.5748031496062992,
                    "duration": 0.08797650000002477
                },
                {
                    "name": "G#2",
                    "midi": 44,
                    "time": 303.69487799999825,
                    "velocity": 0.4881889763779528,
                    "duration": 0.08797650000002477
                },
                {
                    "name": "D3",
                    "midi": 50,
                    "time": 303.8708309999983,
                    "velocity": 0.5196850393700787,
                    "duration": 0.08797650000002477
                },
                {
                    "name": "G#2",
                    "midi": 44,
                    "time": 304.04678399999835,
                    "velocity": 0.4881889763779528,
                    "duration": 0.08797650000002477
                },
                {
                    "name": "B2",
                    "midi": 47,
                    "time": 304.04678399999835,
                    "velocity": 0.5748031496062992,
                    "duration": 0.08797650000002477
                },
                {
                    "name": "D3",
                    "midi": 50,
                    "time": 304.2227369999984,
                    "velocity": 0.5039370078740157,
                    "duration": 0.08797650000002477
                },
                {
                    "name": "F4",
                    "midi": 65,
                    "time": 304.39868999999845,
                    "velocity": 0.6692913385826772,
                    "duration": 0.3519059999999854
                },
                {
                    "name": "E4",
                    "midi": 64,
                    "time": 304.75059599999844,
                    "velocity": 0.5748031496062992,
                    "duration": 0.08797650000002477
                },
                {
                    "name": "A2",
                    "midi": 45,
                    "time": 305.1025019999985,
                    "velocity": 0.5748031496062992,
                    "duration": 0.08797650000002477
                },
                {
                    "name": "C3",
                    "midi": 48,
                    "time": 305.27845499999853,
                    "velocity": 0.5196850393700787,
                    "duration": 0.08797650000002477
                },
                {
                    "name": "A2",
                    "midi": 45,
                    "time": 305.4544079999986,
                    "velocity": 0.5748031496062992,
                    "duration": 0.08797650000002477
                },
                {
                    "name": "C3",
                    "midi": 48,
                    "time": 305.63036099999863,
                    "velocity": 0.5039370078740157,
                    "duration": 0.08797650000002477
                },
                {
                    "name": "F4",
                    "midi": 65,
                    "time": 305.8063139999987,
                    "velocity": 0.4015748031496063,
                    "duration": 0.19354829999997492
                },
                {
                    "name": "F5",
                    "midi": 77,
                    "time": 305.8063139999987,
                    "velocity": 0.47244094488188976,
                    "duration": 0.19354829999997492
                },
                {
                    "name": "B4",
                    "midi": 71,
                    "time": 305.8063139999987,
                    "velocity": 0.4015748031496063,
                    "duration": 0.19354829999997492
                },
                {
                    "name": "G#4",
                    "midi": 68,
                    "time": 305.8063139999987,
                    "velocity": 0.4015748031496063,
                    "duration": 0.19354829999997492
                },
                {
                    "name": "E5",
                    "midi": 76,
                    "time": 305.98226699999867,
                    "velocity": 0.47244094488188976,
                    "duration": 0.19354829999997492
                },
                {
                    "name": "E4",
                    "midi": 64,
                    "time": 305.98226699999867,
                    "velocity": 0.4015748031496063,
                    "duration": 0.19354829999997492
                },
                {
                    "name": "D5",
                    "midi": 74,
                    "time": 306.15821999999866,
                    "velocity": 0.4566929133858268,
                    "duration": 0.19354829999997492
                },
                {
                    "name": "D4",
                    "midi": 62,
                    "time": 306.15821999999866,
                    "velocity": 0.3858267716535433,
                    "duration": 0.19354829999997492
                },
                {
                    "name": "C5",
                    "midi": 72,
                    "time": 306.33417299999866,
                    "velocity": 0.4566929133858268,
                    "duration": 0.19354829999997492
                },
                {
                    "name": "C4",
                    "midi": 60,
                    "time": 306.33417299999866,
                    "velocity": 0.3858267716535433,
                    "duration": 0.19354829999997492
                },
                {
                    "name": "B4",
                    "midi": 71,
                    "time": 306.51012599999865,
                    "velocity": 0.4409448818897638,
                    "duration": 0.19354829999997492
                },
                {
                    "name": "B3",
                    "midi": 59,
                    "time": 306.51012599999865,
                    "velocity": 0.3700787401574803,
                    "duration": 0.19354829999997492
                },
                {
                    "name": "A4",
                    "midi": 69,
                    "time": 306.68607899999864,
                    "velocity": 0.4409448818897638,
                    "duration": 0.19354829999997492
                },
                {
                    "name": "A3",
                    "midi": 57,
                    "time": 306.68607899999864,
                    "velocity": 0.3700787401574803,
                    "duration": 0.19354829999997492
                },
                {
                    "name": "G#4",
                    "midi": 68,
                    "time": 306.86203199999864,
                    "velocity": 0.4330708661417323,
                    "duration": 0.19354829999997492
                },
                {
                    "name": "G#3",
                    "midi": 56,
                    "time": 306.86203199999864,
                    "velocity": 0.36220472440944884,
                    "duration": 0.19354829999997492
                },
                {
                    "name": "E4",
                    "midi": 64,
                    "time": 307.0379849999986,
                    "velocity": 0.41732283464566927,
                    "duration": 0.19354829999997492
                },
                {
                    "name": "E3",
                    "midi": 52,
                    "time": 307.0379849999986,
                    "velocity": 0.3543307086614173,
                    "duration": 0.19354829999997492
                },
                {
                    "name": "B3",
                    "midi": 59,
                    "time": 307.2139379999986,
                    "velocity": 0.3937007874015748,
                    "duration": 0.19354829999997492
                },
                {
                    "name": "F4",
                    "midi": 65,
                    "time": 307.2139379999986,
                    "velocity": 0.4645669291338583,
                    "duration": 0.19354829999997492
                },
                {
                    "name": "F3",
                    "midi": 53,
                    "time": 307.2139379999986,
                    "velocity": 0.3937007874015748,
                    "duration": 0.19354829999997492
                },
                {
                    "name": "G#3",
                    "midi": 56,
                    "time": 307.2139379999986,
                    "velocity": 0.3937007874015748,
                    "duration": 0.19354829999997492
                },
                {
                    "name": "E3",
                    "midi": 52,
                    "time": 307.3898909999986,
                    "velocity": 0.3858267716535433,
                    "duration": 0.19354829999997492
                },
                {
                    "name": "E4",
                    "midi": 64,
                    "time": 307.3898909999986,
                    "velocity": 0.4566929133858268,
                    "duration": 0.19354829999997492
                },
                {
                    "name": "D4",
                    "midi": 62,
                    "time": 307.5658439999986,
                    "velocity": 0.4409448818897638,
                    "duration": 0.19354829999997492
                },
                {
                    "name": "D3",
                    "midi": 50,
                    "time": 307.5658439999986,
                    "velocity": 0.3700787401574803,
                    "duration": 0.19354829999997492
                },
                {
                    "name": "C4",
                    "midi": 60,
                    "time": 307.7417969999986,
                    "velocity": 0.4330708661417323,
                    "duration": 0.19354829999997492
                },
                {
                    "name": "C3",
                    "midi": 48,
                    "time": 307.7417969999986,
                    "velocity": 0.36220472440944884,
                    "duration": 0.19354829999997492
                },
                {
                    "name": "B3",
                    "midi": 59,
                    "time": 307.9177499999986,
                    "velocity": 0.41732283464566927,
                    "duration": 0.19354829999997492
                },
                {
                    "name": "B2",
                    "midi": 47,
                    "time": 307.9177499999986,
                    "velocity": 0.3543307086614173,
                    "duration": 0.19354829999997492
                },
                {
                    "name": "A3",
                    "midi": 57,
                    "time": 308.0937029999986,
                    "velocity": 0.4015748031496063,
                    "duration": 0.19354829999997492
                },
                {
                    "name": "A2",
                    "midi": 45,
                    "time": 308.0937029999986,
                    "velocity": 0.33858267716535434,
                    "duration": 0.19354829999997492
                },
                {
                    "name": "G#2",
                    "midi": 44,
                    "time": 308.2696559999986,
                    "velocity": 0.33070866141732286,
                    "duration": 0.19354829999997492
                },
                {
                    "name": "G#3",
                    "midi": 56,
                    "time": 308.2696559999986,
                    "velocity": 0.3937007874015748,
                    "duration": 0.19354829999997492
                },
                {
                    "name": "E2",
                    "midi": 40,
                    "time": 308.44560899999857,
                    "velocity": 0.31496062992125984,
                    "duration": 0.19354829999997492
                },
                {
                    "name": "E3",
                    "midi": 52,
                    "time": 308.44560899999857,
                    "velocity": 0.3779527559055118,
                    "duration": 0.19354829999997492
                },
                {
                    "name": "F2",
                    "midi": 41,
                    "time": 308.62156199999856,
                    "velocity": 0.3543307086614173,
                    "duration": 0.19354829999997492
                },
                {
                    "name": "F3",
                    "midi": 53,
                    "time": 308.62156199999856,
                    "velocity": 0.41732283464566927,
                    "duration": 0.19354829999997492
                },
                {
                    "name": "D#2",
                    "midi": 39,
                    "time": 308.79751499999855,
                    "velocity": 0.31496062992125984,
                    "duration": 0.19354829999997492
                },
                {
                    "name": "D#3",
                    "midi": 51,
                    "time": 308.79751499999855,
                    "velocity": 0.3779527559055118,
                    "duration": 0.19354829999997492
                },
                {
                    "name": "E2",
                    "midi": 40,
                    "time": 308.97346799999855,
                    "velocity": 0.33858267716535434,
                    "duration": 0.19354829999997492
                },
                {
                    "name": "E3",
                    "midi": 52,
                    "time": 308.97346799999855,
                    "velocity": 0.4015748031496063,
                    "duration": 0.19354829999997492
                },
                {
                    "name": "D3",
                    "midi": 50,
                    "time": 309.14942099999854,
                    "velocity": 0.3779527559055118,
                    "duration": 0.19354829999997492
                },
                {
                    "name": "D2",
                    "midi": 38,
                    "time": 309.14942099999854,
                    "velocity": 0.3228346456692913,
                    "duration": 0.19354829999997492
                },
                {
                    "name": "D#3",
                    "midi": 51,
                    "time": 309.32537399999853,
                    "velocity": 0.4015748031496063,
                    "duration": 0.19354829999997492
                },
                {
                    "name": "D#2",
                    "midi": 39,
                    "time": 309.32537399999853,
                    "velocity": 0.33858267716535434,
                    "duration": 0.19354829999997492
                },
                {
                    "name": "C#3",
                    "midi": 49,
                    "time": 309.5013269999985,
                    "velocity": 0.3858267716535433,
                    "duration": 0.19354829999997492
                },
                {
                    "name": "C#2",
                    "midi": 37,
                    "time": 309.5013269999985,
                    "velocity": 0.33070866141732286,
                    "duration": 0.19354829999997492
                },
                {
                    "name": "D3",
                    "midi": 50,
                    "time": 309.6772799999985,
                    "velocity": 0.4330708661417323,
                    "duration": 0.19354829999997492
                },
                {
                    "name": "D2",
                    "midi": 38,
                    "time": 309.6772799999985,
                    "velocity": 0.3543307086614173,
                    "duration": 0.19354829999997492
                },
                {
                    "name": "C3",
                    "midi": 48,
                    "time": 309.8532329999985,
                    "velocity": 0.4094488188976378,
                    "duration": 0.1759529999999927
                },
                {
                    "name": "C2",
                    "midi": 36,
                    "time": 309.8532329999985,
                    "velocity": 0.33070866141732286,
                    "duration": 0.1759529999999927
                },
                {
                    "name": "C#3",
                    "midi": 49,
                    "time": 310.0291859999985,
                    "velocity": 0.44881889763779526,
                    "duration": 0.1759529999999927
                },
                {
                    "name": "C#2",
                    "midi": 37,
                    "time": 310.0291859999985,
                    "velocity": 0.3779527559055118,
                    "duration": 0.1759529999999927
                },
                {
                    "name": "B2",
                    "midi": 47,
                    "time": 310.2051389999985,
                    "velocity": 0.41732283464566927,
                    "duration": 0.1759529999999927
                },
                {
                    "name": "B1",
                    "midi": 35,
                    "time": 310.2051389999985,
                    "velocity": 0.3543307086614173,
                    "duration": 0.1759529999999927
                },
                {
                    "name": "C3",
                    "midi": 48,
                    "time": 310.3810919999985,
                    "velocity": 0.48031496062992124,
                    "duration": 0.1759529999999927
                },
                {
                    "name": "C2",
                    "midi": 36,
                    "time": 310.3810919999985,
                    "velocity": 0.4094488188976378,
                    "duration": 0.1759529999999927
                },
                {
                    "name": "A#1",
                    "midi": 34,
                    "time": 310.5570449999985,
                    "velocity": 0.3858267716535433,
                    "duration": 0.1759529999999927
                },
                {
                    "name": "A#2",
                    "midi": 46,
                    "time": 310.5570449999985,
                    "velocity": 0.4566929133858268,
                    "duration": 0.1759529999999927
                },
                {
                    "name": "B1",
                    "midi": 35,
                    "time": 310.7329979999985,
                    "velocity": 0.4409448818897638,
                    "duration": 0.1759529999999927
                },
                {
                    "name": "B2",
                    "midi": 47,
                    "time": 310.7329979999985,
                    "velocity": 0.5118110236220472,
                    "duration": 0.1759529999999927
                },
                {
                    "name": "A1",
                    "midi": 33,
                    "time": 310.90895099999847,
                    "velocity": 0.4251968503937008,
                    "duration": 0.1759529999999927
                },
                {
                    "name": "A2",
                    "midi": 45,
                    "time": 310.90895099999847,
                    "velocity": 0.49606299212598426,
                    "duration": 0.1759529999999927
                },
                {
                    "name": "A#1",
                    "midi": 34,
                    "time": 311.08490399999846,
                    "velocity": 0.47244094488188976,
                    "duration": 0.1759529999999927
                },
                {
                    "name": "A#2",
                    "midi": 46,
                    "time": 311.08490399999846,
                    "velocity": 0.5669291338582677,
                    "duration": 0.1759529999999927
                },
                {
                    "name": "G#1",
                    "midi": 32,
                    "time": 311.26085699999845,
                    "velocity": 0.4645669291338583,
                    "duration": 0.1759529999999927
                },
                {
                    "name": "G#2",
                    "midi": 44,
                    "time": 311.26085699999845,
                    "velocity": 0.5511811023622047,
                    "duration": 0.1759529999999927
                },
                {
                    "name": "A1",
                    "midi": 33,
                    "time": 311.43680999999845,
                    "velocity": 0.5196850393700787,
                    "duration": 0.7038119999999708
                },
                {
                    "name": "E2",
                    "midi": 40,
                    "time": 311.43680999999845,
                    "velocity": 0.5196850393700787,
                    "duration": 0.7038119999999708
                },
                {
                    "name": "A2",
                    "midi": 45,
                    "time": 311.43680999999845,
                    "velocity": 0.6299212598425197,
                    "duration": 0.7038119999999708
                },
                {
                    "name": "C#3",
                    "midi": 49,
                    "time": 311.78871599999843,
                    "velocity": 0.44881889763779526,
                    "duration": 0.1759529999999927
                },
                {
                    "name": "A3",
                    "midi": 57,
                    "time": 311.78871599999843,
                    "velocity": 0.5275590551181102,
                    "duration": 0.1759529999999927
                },
                {
                    "name": "E3",
                    "midi": 52,
                    "time": 311.78871599999843,
                    "velocity": 0.44881889763779526,
                    "duration": 0.1759529999999927
                },
                {
                    "name": "A3",
                    "midi": 57,
                    "time": 311.9646689999984,
                    "velocity": 0.5275590551181102,
                    "duration": 0.1759529999999927
                },
                {
                    "name": "E3",
                    "midi": 52,
                    "time": 311.9646689999984,
                    "velocity": 0.44881889763779526,
                    "duration": 0.1759529999999927
                },
                {
                    "name": "C#3",
                    "midi": 49,
                    "time": 311.9646689999984,
                    "velocity": 0.44881889763779526,
                    "duration": 0.1759529999999927
                },
                {
                    "name": "C#3",
                    "midi": 49,
                    "time": 312.1406219999984,
                    "velocity": 0.48031496062992124,
                    "duration": 0.1759529999999927
                },
                {
                    "name": "E3",
                    "midi": 52,
                    "time": 312.1406219999984,
                    "velocity": 0.48031496062992124,
                    "duration": 0.1759529999999927
                },
                {
                    "name": "A3",
                    "midi": 57,
                    "time": 312.1406219999984,
                    "velocity": 0.5748031496062992,
                    "duration": 0.1759529999999927
                },
                {
                    "name": "D3",
                    "midi": 50,
                    "time": 312.4925279999984,
                    "velocity": 0.4409448818897638,
                    "duration": 0.1759529999999927
                },
                {
                    "name": "D4",
                    "midi": 62,
                    "time": 312.4925279999984,
                    "velocity": 0.5196850393700787,
                    "duration": 0.1759529999999927
                },
                {
                    "name": "F3",
                    "midi": 53,
                    "time": 312.4925279999984,
                    "velocity": 0.4409448818897638,
                    "duration": 0.1759529999999927
                },
                {
                    "name": "A3",
                    "midi": 57,
                    "time": 312.8444339999984,
                    "velocity": 0.6299212598425197,
                    "duration": 0.1759529999999927
                },
                {
                    "name": "C#3",
                    "midi": 49,
                    "time": 312.8444339999984,
                    "velocity": 0.5275590551181102,
                    "duration": 0.1759529999999927
                },
                {
                    "name": "A2",
                    "midi": 45,
                    "time": 312.8444339999984,
                    "velocity": 0.5275590551181102,
                    "duration": 0.1759529999999927
                },
                {
                    "name": "E3",
                    "midi": 52,
                    "time": 312.8444339999984,
                    "velocity": 0.5275590551181102,
                    "duration": 0.1759529999999927
                },
                {
                    "name": "F2",
                    "midi": 41,
                    "time": 313.1963399999984,
                    "velocity": 0.4566929133858268,
                    "duration": 0.1759529999999927
                },
                {
                    "name": "D3",
                    "midi": 50,
                    "time": 313.1963399999984,
                    "velocity": 0.5433070866141733,
                    "duration": 0.1759529999999927
                },
                {
                    "name": "D2",
                    "midi": 38,
                    "time": 313.1963399999984,
                    "velocity": 0.4566929133858268,
                    "duration": 0.1759529999999927
                },
                {
                    "name": "E2",
                    "midi": 40,
                    "time": 313.54824599999836,
                    "velocity": 0.4566929133858268,
                    "duration": 0.1759529999999927
                },
                {
                    "name": "A2",
                    "midi": 45,
                    "time": 313.54824599999836,
                    "velocity": 0.5433070866141733,
                    "duration": 0.1759529999999927
                },
                {
                    "name": "A1",
                    "midi": 33,
                    "time": 313.54824599999836,
                    "velocity": 0.4566929133858268,
                    "duration": 0.1759529999999927
                },
                {
                    "name": "C#2",
                    "midi": 37,
                    "time": 313.54824599999836,
                    "velocity": 0.4566929133858268,
                    "duration": 0.1759529999999927
                },
                {
                    "name": "F#2",
                    "midi": 42,
                    "time": 313.90015199999834,
                    "velocity": 0.4645669291338583,
                    "duration": 0.1759529999999927
                },
                {
                    "name": "F#3",
                    "midi": 54,
                    "time": 313.90015199999834,
                    "velocity": 0.5590551181102362,
                    "duration": 0.1759529999999927
                },
                {
                    "name": "C#2",
                    "midi": 37,
                    "time": 314.2520579999983,
                    "velocity": 0.5039370078740157,
                    "duration": 0.7038119999999708
                },
                {
                    "name": "G#2",
                    "midi": 44,
                    "time": 314.2520579999983,
                    "velocity": 0.5039370078740157,
                    "duration": 0.7038119999999708
                },
                {
                    "name": "C#3",
                    "midi": 49,
                    "time": 314.2520579999983,
                    "velocity": 0.6141732283464567,
                    "duration": 0.7038119999999708
                },
                {
                    "name": "C#4",
                    "midi": 61,
                    "time": 314.6039639999983,
                    "velocity": 0.5275590551181102,
                    "duration": 0.1759529999999927
                },
                {
                    "name": "G#3",
                    "midi": 56,
                    "time": 314.6039639999983,
                    "velocity": 0.44881889763779526,
                    "duration": 0.1759529999999927
                },
                {
                    "name": "F3",
                    "midi": 53,
                    "time": 314.6039639999983,
                    "velocity": 0.44881889763779526,
                    "duration": 0.1759529999999927
                },
                {
                    "name": "F3",
                    "midi": 53,
                    "time": 314.7799169999983,
                    "velocity": 0.44881889763779526,
                    "duration": 0.1759529999999927
                },
                {
                    "name": "G#3",
                    "midi": 56,
                    "time": 314.7799169999983,
                    "velocity": 0.44881889763779526,
                    "duration": 0.1759529999999927
                },
                {
                    "name": "C#4",
                    "midi": 61,
                    "time": 314.7799169999983,
                    "velocity": 0.5275590551181102,
                    "duration": 0.1759529999999927
                },
                {
                    "name": "C#4",
                    "midi": 61,
                    "time": 314.9558699999983,
                    "velocity": 0.5748031496062992,
                    "duration": 0.1759529999999927
                },
                {
                    "name": "G#3",
                    "midi": 56,
                    "time": 314.9558699999983,
                    "velocity": 0.48031496062992124,
                    "duration": 0.1759529999999927
                },
                {
                    "name": "F3",
                    "midi": 53,
                    "time": 314.9558699999983,
                    "velocity": 0.48031496062992124,
                    "duration": 0.1759529999999927
                },
                {
                    "name": "F#4",
                    "midi": 66,
                    "time": 315.3077759999983,
                    "velocity": 0.5196850393700787,
                    "duration": 0.1759529999999927
                },
                {
                    "name": "A3",
                    "midi": 57,
                    "time": 315.3077759999983,
                    "velocity": 0.4409448818897638,
                    "duration": 0.1759529999999927
                },
                {
                    "name": "F#3",
                    "midi": 54,
                    "time": 315.3077759999983,
                    "velocity": 0.4409448818897638,
                    "duration": 0.1759529999999927
                },
                {
                    "name": "C#3",
                    "midi": 49,
                    "time": 315.65968199999827,
                    "velocity": 0.5275590551181102,
                    "duration": 0.1759529999999927
                },
                {
                    "name": "F3",
                    "midi": 53,
                    "time": 315.65968199999827,
                    "velocity": 0.5275590551181102,
                    "duration": 0.1759529999999927
                },
                {
                    "name": "G#3",
                    "midi": 56,
                    "time": 315.65968199999827,
                    "velocity": 0.5275590551181102,
                    "duration": 0.1759529999999927
                },
                {
                    "name": "C#4",
                    "midi": 61,
                    "time": 315.65968199999827,
                    "velocity": 0.6299212598425197,
                    "duration": 0.1759529999999927
                },
                {
                    "name": "F#2",
                    "midi": 42,
                    "time": 316.01158799999826,
                    "velocity": 0.4566929133858268,
                    "duration": 0.1759529999999927
                },
                {
                    "name": "A2",
                    "midi": 45,
                    "time": 316.01158799999826,
                    "velocity": 0.4566929133858268,
                    "duration": 0.1759529999999927
                },
                {
                    "name": "F#3",
                    "midi": 54,
                    "time": 316.01158799999826,
                    "velocity": 0.5433070866141733,
                    "duration": 0.1759529999999927
                },
                {
                    "name": "C#2",
                    "midi": 37,
                    "time": 316.36349399999824,
                    "velocity": 0.4566929133858268,
                    "duration": 0.1759529999999927
                },
                {
                    "name": "C#3",
                    "midi": 49,
                    "time": 316.36349399999824,
                    "velocity": 0.5433070866141733,
                    "duration": 0.1759529999999927
                },
                {
                    "name": "G#2",
                    "midi": 44,
                    "time": 316.36349399999824,
                    "velocity": 0.4566929133858268,
                    "duration": 0.1759529999999927
                },
                {
                    "name": "F2",
                    "midi": 41,
                    "time": 316.36349399999824,
                    "velocity": 0.4566929133858268,
                    "duration": 0.1759529999999927
                },
                {
                    "name": "A#2",
                    "midi": 46,
                    "time": 316.7153999999982,
                    "velocity": 0.4645669291338583,
                    "duration": 0.1759529999999927
                },
                {
                    "name": "A#3",
                    "midi": 58,
                    "time": 316.7153999999982,
                    "velocity": 0.5590551181102362,
                    "duration": 0.1759529999999927
                },
                {
                    "name": "A2",
                    "midi": 45,
                    "time": 317.0673059999982,
                    "velocity": 0.5039370078740157,
                    "duration": 0.7038119999999708
                },
                {
                    "name": "F3",
                    "midi": 53,
                    "time": 317.0673059999982,
                    "velocity": 0.6141732283464567,
                    "duration": 0.7038119999999708
                },
                {
                    "name": "F2",
                    "midi": 41,
                    "time": 317.0673059999982,
                    "velocity": 0.5039370078740157,
                    "duration": 0.7038119999999708
                },
                {
                    "name": "C3",
                    "midi": 48,
                    "time": 317.0673059999982,
                    "velocity": 0.5039370078740157,
                    "duration": 0.7038119999999708
                },
                {
                    "name": "F4",
                    "midi": 65,
                    "time": 317.4192119999982,
                    "velocity": 0.5275590551181102,
                    "duration": 0.1759529999999927
                },
                {
                    "name": "A3",
                    "midi": 57,
                    "time": 317.4192119999982,
                    "velocity": 0.44881889763779526,
                    "duration": 0.1759529999999927
                },
                {
                    "name": "C4",
                    "midi": 60,
                    "time": 317.4192119999982,
                    "velocity": 0.44881889763779526,
                    "duration": 0.1759529999999927
                },
                {
                    "name": "F4",
                    "midi": 65,
                    "time": 317.5951649999982,
                    "velocity": 0.5275590551181102,
                    "duration": 0.1759529999999927
                },
                {
                    "name": "A3",
                    "midi": 57,
                    "time": 317.5951649999982,
                    "velocity": 0.44881889763779526,
                    "duration": 0.1759529999999927
                },
                {
                    "name": "C4",
                    "midi": 60,
                    "time": 317.5951649999982,
                    "velocity": 0.44881889763779526,
                    "duration": 0.1759529999999927
                },
                {
                    "name": "A3",
                    "midi": 57,
                    "time": 317.7711179999982,
                    "velocity": 0.48031496062992124,
                    "duration": 0.1759529999999927
                },
                {
                    "name": "C4",
                    "midi": 60,
                    "time": 317.7711179999982,
                    "velocity": 0.48031496062992124,
                    "duration": 0.1759529999999927
                },
                {
                    "name": "F4",
                    "midi": 65,
                    "time": 317.7711179999982,
                    "velocity": 0.5748031496062992,
                    "duration": 0.1759529999999927
                },
                {
                    "name": "A#4",
                    "midi": 70,
                    "time": 318.12302399999817,
                    "velocity": 0.47244094488188976,
                    "duration": 0.1759529999999927
                },
                {
                    "name": "C#4",
                    "midi": 61,
                    "time": 318.12302399999817,
                    "velocity": 0.4015748031496063,
                    "duration": 0.1759529999999927
                },
                {
                    "name": "A#3",
                    "midi": 58,
                    "time": 318.12302399999817,
                    "velocity": 0.4015748031496063,
                    "duration": 0.1759529999999927
                },
                {
                    "name": "F3",
                    "midi": 53,
                    "time": 318.47492999999815,
                    "velocity": 0.48031496062992124,
                    "duration": 0.1759529999999927
                },
                {
                    "name": "A3",
                    "midi": 57,
                    "time": 318.47492999999815,
                    "velocity": 0.48031496062992124,
                    "duration": 0.1759529999999927
                },
                {
                    "name": "C4",
                    "midi": 60,
                    "time": 318.47492999999815,
                    "velocity": 0.48031496062992124,
                    "duration": 0.1759529999999927
                },
                {
                    "name": "F4",
                    "midi": 65,
                    "time": 318.47492999999815,
                    "velocity": 0.5748031496062992,
                    "duration": 0.1759529999999927
                },
                {
                    "name": "A#2",
                    "midi": 46,
                    "time": 318.82683599999814,
                    "velocity": 0.41732283464566927,
                    "duration": 0.1759529999999927
                },
                {
                    "name": "C#3",
                    "midi": 49,
                    "time": 318.82683599999814,
                    "velocity": 0.41732283464566927,
                    "duration": 0.1759529999999927
                },
                {
                    "name": "A#3",
                    "midi": 58,
                    "time": 318.82683599999814,
                    "velocity": 0.49606299212598426,
                    "duration": 0.1759529999999927
                },
                {
                    "name": "F2",
                    "midi": 41,
                    "time": 319.1787419999981,
                    "velocity": 0.41732283464566927,
                    "duration": 0.1759529999999927
                },
                {
                    "name": "F3",
                    "midi": 53,
                    "time": 319.1787419999981,
                    "velocity": 0.49606299212598426,
                    "duration": 0.1759529999999927
                },
                {
                    "name": "C3",
                    "midi": 48,
                    "time": 319.1787419999981,
                    "velocity": 0.41732283464566927,
                    "duration": 0.1759529999999927
                },
                {
                    "name": "A2",
                    "midi": 45,
                    "time": 319.1787419999981,
                    "velocity": 0.41732283464566927,
                    "duration": 0.1759529999999927
                },
                {
                    "name": "D2",
                    "midi": 38,
                    "time": 319.5306479999981,
                    "velocity": 0.4251968503937008,
                    "duration": 0.1759529999999927
                },
                {
                    "name": "D3",
                    "midi": 50,
                    "time": 319.5306479999981,
                    "velocity": 0.5118110236220472,
                    "duration": 0.1759529999999927
                },
                {
                    "name": "A1",
                    "midi": 33,
                    "time": 319.8825539999981,
                    "velocity": 0.5118110236220472,
                    "duration": 0.3519059999999854
                },
                {
                    "name": "A2",
                    "midi": 45,
                    "time": 319.8825539999981,
                    "velocity": 0.5984251968503937,
                    "duration": 0.3519059999999854
                },
                {
                    "name": "E4",
                    "midi": 64,
                    "time": 320.2344599999981,
                    "velocity": 0.5590551181102362,
                    "duration": 0.3519059999999854
                },
                {
                    "name": "A3",
                    "midi": 57,
                    "time": 320.2344599999981,
                    "velocity": 0.48031496062992124,
                    "duration": 0.3519059999999854
                },
                {
                    "name": "C#4",
                    "midi": 61,
                    "time": 320.2344599999981,
                    "velocity": 0.48031496062992124,
                    "duration": 0.3519059999999854
                },
                {
                    "name": "E3",
                    "midi": 52,
                    "time": 320.2344599999981,
                    "velocity": 0.48031496062992124,
                    "duration": 0.3519059999999854
                },
                {
                    "name": "A2",
                    "midi": 45,
                    "time": 320.58636599999807,
                    "velocity": 0.6141732283464567,
                    "duration": 0.3519059999999854
                },
                {
                    "name": "A1",
                    "midi": 33,
                    "time": 320.58636599999807,
                    "velocity": 0.5196850393700787,
                    "duration": 0.3519059999999854
                },
                {
                    "name": "F4",
                    "midi": 65,
                    "time": 320.93827199999805,
                    "velocity": 0.5826771653543307,
                    "duration": 0.3519059999999854
                },
                {
                    "name": "F3",
                    "midi": 53,
                    "time": 320.93827199999805,
                    "velocity": 0.4881889763779528,
                    "duration": 0.3519059999999854
                },
                {
                    "name": "A3",
                    "midi": 57,
                    "time": 320.93827199999805,
                    "velocity": 0.4881889763779528,
                    "duration": 0.3519059999999854
                },
                {
                    "name": "C#4",
                    "midi": 61,
                    "time": 320.93827199999805,
                    "velocity": 0.4881889763779528,
                    "duration": 0.3519059999999854
                },
                {
                    "name": "A2",
                    "midi": 45,
                    "time": 321.29017799999804,
                    "velocity": 0.5984251968503937,
                    "duration": 0.3519059999999854
                },
                {
                    "name": "A1",
                    "midi": 33,
                    "time": 321.29017799999804,
                    "velocity": 0.5118110236220472,
                    "duration": 0.3519059999999854
                },
                {
                    "name": "F#4",
                    "midi": 66,
                    "time": 321.642083999998,
                    "velocity": 0.5590551181102362,
                    "duration": 0.3519059999999854
                },
                {
                    "name": "F#3",
                    "midi": 54,
                    "time": 321.642083999998,
                    "velocity": 0.48031496062992124,
                    "duration": 0.3519059999999854
                },
                {
                    "name": "D4",
                    "midi": 62,
                    "time": 321.642083999998,
                    "velocity": 0.48031496062992124,
                    "duration": 0.3519059999999854
                },
                {
                    "name": "A2",
                    "midi": 45,
                    "time": 321.993989999998,
                    "velocity": 0.6141732283464567,
                    "duration": 0.3519059999999854
                },
                {
                    "name": "A1",
                    "midi": 33,
                    "time": 321.993989999998,
                    "velocity": 0.5196850393700787,
                    "duration": 0.3519059999999854
                },
                {
                    "name": "C4",
                    "midi": 60,
                    "time": 322.345895999998,
                    "velocity": 0.4881889763779528,
                    "duration": 0.3519059999999854
                },
                {
                    "name": "F#3",
                    "midi": 54,
                    "time": 322.345895999998,
                    "velocity": 0.4881889763779528,
                    "duration": 0.3519059999999854
                },
                {
                    "name": "D#4",
                    "midi": 63,
                    "time": 322.345895999998,
                    "velocity": 0.5826771653543307,
                    "duration": 0.3519059999999854
                },
                {
                    "name": "A1",
                    "midi": 33,
                    "time": 322.697801999998,
                    "velocity": 0.5118110236220472,
                    "duration": 0.3519059999999854
                },
                {
                    "name": "A2",
                    "midi": 45,
                    "time": 322.697801999998,
                    "velocity": 0.5984251968503937,
                    "duration": 0.3519059999999854
                },
                {
                    "name": "G#3",
                    "midi": 56,
                    "time": 323.04970799999796,
                    "velocity": 0.48031496062992124,
                    "duration": 0.3519059999999854
                },
                {
                    "name": "E4",
                    "midi": 64,
                    "time": 323.04970799999796,
                    "velocity": 0.5590551181102362,
                    "duration": 0.3519059999999854
                },
                {
                    "name": "E3",
                    "midi": 52,
                    "time": 323.04970799999796,
                    "velocity": 0.48031496062992124,
                    "duration": 0.3519059999999854
                },
                {
                    "name": "A2",
                    "midi": 45,
                    "time": 323.40161399999795,
                    "velocity": 0.5984251968503937,
                    "duration": 0.3519059999999854
                },
                {
                    "name": "A1",
                    "midi": 33,
                    "time": 323.40161399999795,
                    "velocity": 0.5118110236220472,
                    "duration": 0.3519059999999854
                },
                {
                    "name": "B3",
                    "midi": 59,
                    "time": 323.75351999999793,
                    "velocity": 0.48031496062992124,
                    "duration": 0.3519059999999854
                },
                {
                    "name": "G#3",
                    "midi": 56,
                    "time": 323.75351999999793,
                    "velocity": 0.48031496062992124,
                    "duration": 0.3519059999999854
                },
                {
                    "name": "E3",
                    "midi": 52,
                    "time": 323.75351999999793,
                    "velocity": 0.48031496062992124,
                    "duration": 0.3519059999999854
                },
                {
                    "name": "E4",
                    "midi": 64,
                    "time": 323.75351999999793,
                    "velocity": 0.5590551181102362,
                    "duration": 0.3519059999999854
                },
                {
                    "name": "A1",
                    "midi": 33,
                    "time": 324.1054259999979,
                    "velocity": 0.5118110236220472,
                    "duration": 0.3519059999999854
                },
                {
                    "name": "A2",
                    "midi": 45,
                    "time": 324.1054259999979,
                    "velocity": 0.5984251968503937,
                    "duration": 0.3519059999999854
                },
                {
                    "name": "E4",
                    "midi": 64,
                    "time": 324.4573319999979,
                    "velocity": 0.5590551181102362,
                    "duration": 0.3519059999999854
                },
                {
                    "name": "A3",
                    "midi": 57,
                    "time": 324.4573319999979,
                    "velocity": 0.48031496062992124,
                    "duration": 0.3519059999999854
                },
                {
                    "name": "E3",
                    "midi": 52,
                    "time": 324.4573319999979,
                    "velocity": 0.48031496062992124,
                    "duration": 0.3519059999999854
                },
                {
                    "name": "C#4",
                    "midi": 61,
                    "time": 324.4573319999979,
                    "velocity": 0.48031496062992124,
                    "duration": 0.3519059999999854
                },
                {
                    "name": "A1",
                    "midi": 33,
                    "time": 324.8092379999979,
                    "velocity": 0.5118110236220472,
                    "duration": 0.3519059999999854
                },
                {
                    "name": "A2",
                    "midi": 45,
                    "time": 324.8092379999979,
                    "velocity": 0.5984251968503937,
                    "duration": 0.3519059999999854
                },
                {
                    "name": "B3",
                    "midi": 59,
                    "time": 325.1611439999979,
                    "velocity": 0.48031496062992124,
                    "duration": 0.3519059999999854
                },
                {
                    "name": "E3",
                    "midi": 52,
                    "time": 325.1611439999979,
                    "velocity": 0.48031496062992124,
                    "duration": 0.3519059999999854
                },
                {
                    "name": "E4",
                    "midi": 64,
                    "time": 325.1611439999979,
                    "velocity": 0.5590551181102362,
                    "duration": 0.3519059999999854
                },
                {
                    "name": "A1",
                    "midi": 33,
                    "time": 325.51304999999786,
                    "velocity": 0.5118110236220472,
                    "duration": 0.3519059999999854
                },
                {
                    "name": "A2",
                    "midi": 45,
                    "time": 325.51304999999786,
                    "velocity": 0.5984251968503937,
                    "duration": 0.3519059999999854
                },
                {
                    "name": "C#4",
                    "midi": 61,
                    "time": 325.86495599999785,
                    "velocity": 0.48031496062992124,
                    "duration": 0.3519059999999854
                },
                {
                    "name": "E4",
                    "midi": 64,
                    "time": 325.86495599999785,
                    "velocity": 0.5590551181102362,
                    "duration": 0.3519059999999854
                },
                {
                    "name": "A3",
                    "midi": 57,
                    "time": 325.86495599999785,
                    "velocity": 0.48031496062992124,
                    "duration": 0.3519059999999854
                },
                {
                    "name": "E3",
                    "midi": 52,
                    "time": 325.86495599999785,
                    "velocity": 0.48031496062992124,
                    "duration": 0.3519059999999854
                },
                {
                    "name": "A2",
                    "midi": 45,
                    "time": 326.21686199999783,
                    "velocity": 0.6141732283464567,
                    "duration": 0.3519059999999854
                },
                {
                    "name": "A1",
                    "midi": 33,
                    "time": 326.21686199999783,
                    "velocity": 0.5196850393700787,
                    "duration": 0.3519059999999854
                },
                {
                    "name": "F4",
                    "midi": 65,
                    "time": 326.5687679999978,
                    "velocity": 0.5826771653543307,
                    "duration": 0.3519059999999854
                },
                {
                    "name": "C#4",
                    "midi": 61,
                    "time": 326.5687679999978,
                    "velocity": 0.4881889763779528,
                    "duration": 0.3519059999999854
                },
                {
                    "name": "A3",
                    "midi": 57,
                    "time": 326.5687679999978,
                    "velocity": 0.4881889763779528,
                    "duration": 0.3519059999999854
                },
                {
                    "name": "F3",
                    "midi": 53,
                    "time": 326.5687679999978,
                    "velocity": 0.4881889763779528,
                    "duration": 0.3519059999999854
                },
                {
                    "name": "A2",
                    "midi": 45,
                    "time": 326.9206739999978,
                    "velocity": 0.5984251968503937,
                    "duration": 0.3519059999999854
                },
                {
                    "name": "A1",
                    "midi": 33,
                    "time": 326.9206739999978,
                    "velocity": 0.5118110236220472,
                    "duration": 0.3519059999999854
                },
                {
                    "name": "D4",
                    "midi": 62,
                    "time": 327.2725799999978,
                    "velocity": 0.48031496062992124,
                    "duration": 0.3519059999999854
                },
                {
                    "name": "F#3",
                    "midi": 54,
                    "time": 327.2725799999978,
                    "velocity": 0.48031496062992124,
                    "duration": 0.3519059999999854
                },
                {
                    "name": "F#4",
                    "midi": 66,
                    "time": 327.2725799999978,
                    "velocity": 0.5590551181102362,
                    "duration": 0.3519059999999854
                },
                {
                    "name": "A1",
                    "midi": 33,
                    "time": 327.6244859999978,
                    "velocity": 0.5196850393700787,
                    "duration": 0.3519059999999854
                },
                {
                    "name": "A2",
                    "midi": 45,
                    "time": 327.6244859999978,
                    "velocity": 0.6141732283464567,
                    "duration": 0.3519059999999854
                },
                {
                    "name": "C4",
                    "midi": 60,
                    "time": 327.97639199999776,
                    "velocity": 0.4881889763779528,
                    "duration": 0.3519059999999854
                },
                {
                    "name": "F#3",
                    "midi": 54,
                    "time": 327.97639199999776,
                    "velocity": 0.4881889763779528,
                    "duration": 0.3519059999999854
                },
                {
                    "name": "D#4",
                    "midi": 63,
                    "time": 327.97639199999776,
                    "velocity": 0.5826771653543307,
                    "duration": 0.3519059999999854
                },
                {
                    "name": "A2",
                    "midi": 45,
                    "time": 328.32829799999774,
                    "velocity": 0.5984251968503937,
                    "duration": 0.3519059999999854
                },
                {
                    "name": "A1",
                    "midi": 33,
                    "time": 328.32829799999774,
                    "velocity": 0.5118110236220472,
                    "duration": 0.3519059999999854
                },
                {
                    "name": "G#3",
                    "midi": 56,
                    "time": 328.68020399999773,
                    "velocity": 0.48031496062992124,
                    "duration": 0.3519059999999854
                },
                {
                    "name": "E3",
                    "midi": 52,
                    "time": 328.68020399999773,
                    "velocity": 0.48031496062992124,
                    "duration": 0.3519059999999854
                },
                {
                    "name": "E4",
                    "midi": 64,
                    "time": 328.68020399999773,
                    "velocity": 0.5590551181102362,
                    "duration": 0.3519059999999854
                },
                {
                    "name": "A2",
                    "midi": 45,
                    "time": 329.0321099999977,
                    "velocity": 0.5984251968503937,
                    "duration": 0.3519059999999854
                },
                {
                    "name": "A1",
                    "midi": 33,
                    "time": 329.0321099999977,
                    "velocity": 0.5118110236220472,
                    "duration": 0.3519059999999854
                },
                {
                    "name": "B3",
                    "midi": 59,
                    "time": 329.3840159999977,
                    "velocity": 0.48031496062992124,
                    "duration": 0.3519059999999854
                },
                {
                    "name": "G#3",
                    "midi": 56,
                    "time": 329.3840159999977,
                    "velocity": 0.48031496062992124,
                    "duration": 0.3519059999999854
                },
                {
                    "name": "E4",
                    "midi": 64,
                    "time": 329.3840159999977,
                    "velocity": 0.5590551181102362,
                    "duration": 0.3519059999999854
                },
                {
                    "name": "E3",
                    "midi": 52,
                    "time": 329.3840159999977,
                    "velocity": 0.48031496062992124,
                    "duration": 0.3519059999999854
                },
                {
                    "name": "A1",
                    "midi": 33,
                    "time": 329.7359219999977,
                    "velocity": 0.5118110236220472,
                    "duration": 0.3519059999999854
                },
                {
                    "name": "A2",
                    "midi": 45,
                    "time": 329.7359219999977,
                    "velocity": 0.5984251968503937,
                    "duration": 0.3519059999999854
                },
                {
                    "name": "E4",
                    "midi": 64,
                    "time": 330.08782799999767,
                    "velocity": 0.5590551181102362,
                    "duration": 0.3519059999999854
                },
                {
                    "name": "C#4",
                    "midi": 61,
                    "time": 330.08782799999767,
                    "velocity": 0.48031496062992124,
                    "duration": 0.3519059999999854
                },
                {
                    "name": "E3",
                    "midi": 52,
                    "time": 330.08782799999767,
                    "velocity": 0.48031496062992124,
                    "duration": 0.3519059999999854
                },
                {
                    "name": "A3",
                    "midi": 57,
                    "time": 330.08782799999767,
                    "velocity": 0.48031496062992124,
                    "duration": 0.3519059999999854
                },
                {
                    "name": "A1",
                    "midi": 33,
                    "time": 330.43973399999766,
                    "velocity": 0.5118110236220472,
                    "duration": 0.3519059999999854
                },
                {
                    "name": "A2",
                    "midi": 45,
                    "time": 330.43973399999766,
                    "velocity": 0.5984251968503937,
                    "duration": 0.3519059999999854
                },
                {
                    "name": "E4",
                    "midi": 64,
                    "time": 330.79163999999764,
                    "velocity": 0.5590551181102362,
                    "duration": 0.3519059999999854
                },
                {
                    "name": "B3",
                    "midi": 59,
                    "time": 330.79163999999764,
                    "velocity": 0.48031496062992124,
                    "duration": 0.3519059999999854
                },
                {
                    "name": "E3",
                    "midi": 52,
                    "time": 330.79163999999764,
                    "velocity": 0.48031496062992124,
                    "duration": 0.3519059999999854
                },
                {
                    "name": "A3",
                    "midi": 57,
                    "time": 331.1435459999976,
                    "velocity": 0.3779527559055118,
                    "duration": 0.1759529999999927
                },
                {
                    "name": "A2",
                    "midi": 45,
                    "time": 331.1435459999976,
                    "velocity": 0.31496062992125984,
                    "duration": 0.1759529999999927
                },
                {
                    "name": "G#3",
                    "midi": 56,
                    "time": 331.3194989999976,
                    "velocity": 0.33070866141732286,
                    "duration": 0.1759529999999927
                },
                {
                    "name": "G#2",
                    "midi": 44,
                    "time": 331.3194989999976,
                    "velocity": 0.2755905511811024,
                    "duration": 0.1759529999999927
                },
                {
                    "name": "F2",
                    "midi": 41,
                    "time": 331.4954519999976,
                    "velocity": 0.33070866141732286,
                    "duration": 0.1759529999999927
                },
                {
                    "name": "F3",
                    "midi": 53,
                    "time": 331.4954519999976,
                    "velocity": 0.3858267716535433,
                    "duration": 0.1759529999999927
                },
                {
                    "name": "A2",
                    "midi": 45,
                    "time": 331.6714049999976,
                    "velocity": 0.29133858267716534,
                    "duration": 0.1759529999999927
                },
                {
                    "name": "A3",
                    "midi": 57,
                    "time": 331.6714049999976,
                    "velocity": 0.3464566929133858,
                    "duration": 0.1759529999999927
                },
                {
                    "name": "G#2",
                    "midi": 44,
                    "time": 331.8473579999976,
                    "velocity": 0.3464566929133858,
                    "duration": 0.1759529999999927
                },
                {
                    "name": "G#3",
                    "midi": 56,
                    "time": 331.8473579999976,
                    "velocity": 0.4094488188976378,
                    "duration": 0.1759529999999927
                },
                {
                    "name": "F3",
                    "midi": 53,
                    "time": 332.0233109999976,
                    "velocity": 0.3858267716535433,
                    "duration": 0.1759529999999927
                },
                {
                    "name": "F2",
                    "midi": 41,
                    "time": 332.0233109999976,
                    "velocity": 0.33070866141732286,
                    "duration": 0.1759529999999927
                },
                {
                    "name": "E3",
                    "midi": 52,
                    "time": 332.1992639999976,
                    "velocity": 0.41732283464566927,
                    "duration": 0.1759529999999927
                },
                {
                    "name": "E2",
                    "midi": 40,
                    "time": 332.1992639999976,
                    "velocity": 0.3543307086614173,
                    "duration": 0.1759529999999927
                },
                {
                    "name": "G#3",
                    "midi": 56,
                    "time": 332.3752169999976,
                    "velocity": 0.4015748031496063,
                    "duration": 0.1759529999999927
                },
                {
                    "name": "G#2",
                    "midi": 44,
                    "time": 332.3752169999976,
                    "velocity": 0.33858267716535434,
                    "duration": 0.1759529999999927
                },
                {
                    "name": "F3",
                    "midi": 53,
                    "time": 332.55116999999757,
                    "velocity": 0.4409448818897638,
                    "duration": 0.1759529999999927
                },
                {
                    "name": "F2",
                    "midi": 41,
                    "time": 332.55116999999757,
                    "velocity": 0.3779527559055118,
                    "duration": 0.1759529999999927
                },
                {
                    "name": "E2",
                    "midi": 40,
                    "time": 332.72712299999756,
                    "velocity": 0.33070866141732286,
                    "duration": 0.1759529999999927
                },
                {
                    "name": "E3",
                    "midi": 52,
                    "time": 332.72712299999756,
                    "velocity": 0.3937007874015748,
                    "duration": 0.1759529999999927
                },
                {
                    "name": "D2",
                    "midi": 38,
                    "time": 332.90307599999755,
                    "velocity": 0.3858267716535433,
                    "duration": 0.1759529999999927
                },
                {
                    "name": "D3",
                    "midi": 50,
                    "time": 332.90307599999755,
                    "velocity": 0.4566929133858268,
                    "duration": 0.1759529999999927
                },
                {
                    "name": "F2",
                    "midi": 41,
                    "time": 333.07902899999755,
                    "velocity": 0.3464566929133858,
                    "duration": 0.1759529999999927
                },
                {
                    "name": "F3",
                    "midi": 53,
                    "time": 333.07902899999755,
                    "velocity": 0.4094488188976378,
                    "duration": 0.1759529999999927
                },
                {
                    "name": "D2",
                    "midi": 38,
                    "time": 333.25498199999754,
                    "velocity": 0.4015748031496063,
                    "duration": 0.1759529999999927
                },
                {
                    "name": "D3",
                    "midi": 50,
                    "time": 333.25498199999754,
                    "velocity": 0.48031496062992124,
                    "duration": 0.1759529999999927
                },
                {
                    "name": "C#2",
                    "midi": 37,
                    "time": 333.43093499999753,
                    "velocity": 0.3858267716535433,
                    "duration": 0.1759529999999927
                },
                {
                    "name": "C#3",
                    "midi": 49,
                    "time": 333.43093499999753,
                    "velocity": 0.4566929133858268,
                    "duration": 0.1759529999999927
                },
                {
                    "name": "A#2",
                    "midi": 46,
                    "time": 333.6068879999975,
                    "velocity": 0.4881889763779528,
                    "duration": 0.1759529999999927
                },
                {
                    "name": "A#1",
                    "midi": 34,
                    "time": 333.6068879999975,
                    "velocity": 0.4094488188976378,
                    "duration": 0.1759529999999927
                },
                {
                    "name": "A3",
                    "midi": 57,
                    "time": 333.9587939999975,
                    "velocity": 0.3779527559055118,
                    "duration": 0.1759529999999927
                },
                {
                    "name": "A2",
                    "midi": 45,
                    "time": 333.9587939999975,
                    "velocity": 0.31496062992125984,
                    "duration": 0.1759529999999927
                },
                {
                    "name": "G#3",
                    "midi": 56,
                    "time": 334.1347469999975,
                    "velocity": 0.33070866141732286,
                    "duration": 0.1759529999999927
                },
                {
                    "name": "G#2",
                    "midi": 44,
                    "time": 334.1347469999975,
                    "velocity": 0.2755905511811024,
                    "duration": 0.1759529999999927
                },
                {
                    "name": "F3",
                    "midi": 53,
                    "time": 334.3106999999975,
                    "velocity": 0.3858267716535433,
                    "duration": 0.1759529999999927
                },
                {
                    "name": "F2",
                    "midi": 41,
                    "time": 334.3106999999975,
                    "velocity": 0.33070866141732286,
                    "duration": 0.1759529999999927
                },
                {
                    "name": "A3",
                    "midi": 57,
                    "time": 334.4866529999975,
                    "velocity": 0.3464566929133858,
                    "duration": 0.1759529999999927
                },
                {
                    "name": "A2",
                    "midi": 45,
                    "time": 334.4866529999975,
                    "velocity": 0.29133858267716534,
                    "duration": 0.1759529999999927
                },
                {
                    "name": "G#3",
                    "midi": 56,
                    "time": 334.6626059999975,
                    "velocity": 0.4094488188976378,
                    "duration": 0.1759529999999927
                },
                {
                    "name": "G#2",
                    "midi": 44,
                    "time": 334.6626059999975,
                    "velocity": 0.3464566929133858,
                    "duration": 0.1759529999999927
                },
                {
                    "name": "F3",
                    "midi": 53,
                    "time": 334.8385589999975,
                    "velocity": 0.3858267716535433,
                    "duration": 0.1759529999999927
                },
                {
                    "name": "F2",
                    "midi": 41,
                    "time": 334.8385589999975,
                    "velocity": 0.33070866141732286,
                    "duration": 0.1759529999999927
                },
                {
                    "name": "E3",
                    "midi": 52,
                    "time": 335.01451199999747,
                    "velocity": 0.41732283464566927,
                    "duration": 0.1759529999999927
                },
                {
                    "name": "E2",
                    "midi": 40,
                    "time": 335.01451199999747,
                    "velocity": 0.3543307086614173,
                    "duration": 0.1759529999999927
                },
                {
                    "name": "G#2",
                    "midi": 44,
                    "time": 335.19046499999746,
                    "velocity": 0.33858267716535434,
                    "duration": 0.1759529999999927
                },
                {
                    "name": "G#3",
                    "midi": 56,
                    "time": 335.19046499999746,
                    "velocity": 0.4015748031496063,
                    "duration": 0.1759529999999927
                },
                {
                    "name": "F2",
                    "midi": 41,
                    "time": 335.36641799999745,
                    "velocity": 0.3779527559055118,
                    "duration": 0.1759529999999927
                },
                {
                    "name": "F3",
                    "midi": 53,
                    "time": 335.36641799999745,
                    "velocity": 0.4409448818897638,
                    "duration": 0.1759529999999927
                },
                {
                    "name": "E2",
                    "midi": 40,
                    "time": 335.54237099999744,
                    "velocity": 0.33070866141732286,
                    "duration": 0.1759529999999927
                },
                {
                    "name": "E3",
                    "midi": 52,
                    "time": 335.54237099999744,
                    "velocity": 0.3937007874015748,
                    "duration": 0.1759529999999927
                },
                {
                    "name": "D2",
                    "midi": 38,
                    "time": 335.71832399999744,
                    "velocity": 0.3858267716535433,
                    "duration": 0.1759529999999927
                },
                {
                    "name": "D3",
                    "midi": 50,
                    "time": 335.71832399999744,
                    "velocity": 0.4566929133858268,
                    "duration": 0.1759529999999927
                },
                {
                    "name": "F2",
                    "midi": 41,
                    "time": 335.89427699999743,
                    "velocity": 0.3464566929133858,
                    "duration": 0.1759529999999927
                },
                {
                    "name": "F3",
                    "midi": 53,
                    "time": 335.89427699999743,
                    "velocity": 0.4094488188976378,
                    "duration": 0.1759529999999927
                },
                {
                    "name": "D2",
                    "midi": 38,
                    "time": 336.0702299999974,
                    "velocity": 0.4015748031496063,
                    "duration": 0.1759529999999927
                },
                {
                    "name": "D3",
                    "midi": 50,
                    "time": 336.0702299999974,
                    "velocity": 0.48031496062992124,
                    "duration": 0.1759529999999927
                },
                {
                    "name": "C#3",
                    "midi": 49,
                    "time": 336.2461829999974,
                    "velocity": 0.4566929133858268,
                    "duration": 0.1759529999999927
                },
                {
                    "name": "C#2",
                    "midi": 37,
                    "time": 336.2461829999974,
                    "velocity": 0.3858267716535433,
                    "duration": 0.1759529999999927
                },
                {
                    "name": "A#2",
                    "midi": 46,
                    "time": 336.4221359999974,
                    "velocity": 0.4881889763779528,
                    "duration": 0.1759529999999927
                },
                {
                    "name": "A#1",
                    "midi": 34,
                    "time": 336.4221359999974,
                    "velocity": 0.4094488188976378,
                    "duration": 0.1759529999999927
                },
                {
                    "name": "A2",
                    "midi": 45,
                    "time": 336.7740419999974,
                    "velocity": 0.3779527559055118,
                    "duration": 0.1759529999999927
                },
                {
                    "name": "A1",
                    "midi": 33,
                    "time": 336.7740419999974,
                    "velocity": 0.31496062992125984,
                    "duration": 0.1759529999999927
                },
                {
                    "name": "A#2",
                    "midi": 46,
                    "time": 336.9499949999974,
                    "velocity": 0.3779527559055118,
                    "duration": 0.1759529999999927
                },
                {
                    "name": "A#1",
                    "midi": 34,
                    "time": 336.9499949999974,
                    "velocity": 0.31496062992125984,
                    "duration": 0.1759529999999927
                },
                {
                    "name": "C#2",
                    "midi": 37,
                    "time": 337.1259479999974,
                    "velocity": 0.3228346456692913,
                    "duration": 0.1759529999999927
                },
                {
                    "name": "C#3",
                    "midi": 49,
                    "time": 337.1259479999974,
                    "velocity": 0.3779527559055118,
                    "duration": 0.1759529999999927
                },
                {
                    "name": "D2",
                    "midi": 38,
                    "time": 337.3019009999974,
                    "velocity": 0.33070866141732286,
                    "duration": 0.1759529999999927
                },
                {
                    "name": "D3",
                    "midi": 50,
                    "time": 337.3019009999974,
                    "velocity": 0.3858267716535433,
                    "duration": 0.1759529999999927
                },
                {
                    "name": "E2",
                    "midi": 40,
                    "time": 337.47785399999736,
                    "velocity": 0.33070866141732286,
                    "duration": 0.1759529999999927
                },
                {
                    "name": "E3",
                    "midi": 52,
                    "time": 337.47785399999736,
                    "velocity": 0.3937007874015748,
                    "duration": 0.1759529999999927
                },
                {
                    "name": "F2",
                    "midi": 41,
                    "time": 337.65380699999736,
                    "velocity": 0.33070866141732286,
                    "duration": 0.1759529999999927
                },
                {
                    "name": "F3",
                    "midi": 53,
                    "time": 337.65380699999736,
                    "velocity": 0.4015748031496063,
                    "duration": 0.1759529999999927
                },
                {
                    "name": "G#2",
                    "midi": 44,
                    "time": 337.82975999999735,
                    "velocity": 0.33858267716535434,
                    "duration": 0.1759529999999927
                },
                {
                    "name": "G#3",
                    "midi": 56,
                    "time": 337.82975999999735,
                    "velocity": 0.4015748031496063,
                    "duration": 0.1759529999999927
                },
                {
                    "name": "A2",
                    "midi": 45,
                    "time": 338.00571299999734,
                    "velocity": 0.3464566929133858,
                    "duration": 0.1759529999999927
                },
                {
                    "name": "A3",
                    "midi": 57,
                    "time": 338.00571299999734,
                    "velocity": 0.4094488188976378,
                    "duration": 0.1759529999999927
                },
                {
                    "name": "A#2",
                    "midi": 46,
                    "time": 338.18166599999734,
                    "velocity": 0.3543307086614173,
                    "duration": 0.1759529999999927
                },
                {
                    "name": "A#3",
                    "midi": 58,
                    "time": 338.18166599999734,
                    "velocity": 0.41732283464566927,
                    "duration": 0.1759529999999927
                },
                {
                    "name": "C#3",
                    "midi": 49,
                    "time": 338.3576189999973,
                    "velocity": 0.3543307086614173,
                    "duration": 0.1759529999999927
                },
                {
                    "name": "C#4",
                    "midi": 61,
                    "time": 338.3576189999973,
                    "velocity": 0.4251968503937008,
                    "duration": 0.1759529999999927
                },
                {
                    "name": "D3",
                    "midi": 50,
                    "time": 338.5335719999973,
                    "velocity": 0.36220472440944884,
                    "duration": 0.1759529999999927
                },
                {
                    "name": "D4",
                    "midi": 62,
                    "time": 338.5335719999973,
                    "velocity": 0.4251968503937008,
                    "duration": 0.1759529999999927
                },
                {
                    "name": "E3",
                    "midi": 52,
                    "time": 338.7095249999973,
                    "velocity": 0.36220472440944884,
                    "duration": 0.1759529999999927
                },
                {
                    "name": "E4",
                    "midi": 64,
                    "time": 338.7095249999973,
                    "velocity": 0.4330708661417323,
                    "duration": 0.1759529999999927
                },
                {
                    "name": "F3",
                    "midi": 53,
                    "time": 338.8854779999973,
                    "velocity": 0.36220472440944884,
                    "duration": 0.1759529999999927
                },
                {
                    "name": "F4",
                    "midi": 65,
                    "time": 338.8854779999973,
                    "velocity": 0.4330708661417323,
                    "duration": 0.1759529999999927
                },
                {
                    "name": "G#3",
                    "midi": 56,
                    "time": 339.0614309999973,
                    "velocity": 0.3700787401574803,
                    "duration": 0.1759529999999927
                },
                {
                    "name": "G#4",
                    "midi": 68,
                    "time": 339.0614309999973,
                    "velocity": 0.4409448818897638,
                    "duration": 0.1759529999999927
                },
                {
                    "name": "A3",
                    "midi": 57,
                    "time": 339.2373839999973,
                    "velocity": 0.3779527559055118,
                    "duration": 0.1759529999999927
                },
                {
                    "name": "A4",
                    "midi": 69,
                    "time": 339.2373839999973,
                    "velocity": 0.44881889763779526,
                    "duration": 0.1759529999999927
                },
                {
                    "name": "A#3",
                    "midi": 58,
                    "time": 339.4133369999973,
                    "velocity": 0.3779527559055118,
                    "duration": 0.1759529999999927
                },
                {
                    "name": "A#4",
                    "midi": 70,
                    "time": 339.4133369999973,
                    "velocity": 0.44881889763779526,
                    "duration": 0.1759529999999927
                },
                {
                    "name": "C#4",
                    "midi": 61,
                    "time": 339.5892899999973,
                    "velocity": 0.3858267716535433,
                    "duration": 0.1759529999999927
                },
                {
                    "name": "C#5",
                    "midi": 73,
                    "time": 339.5892899999973,
                    "velocity": 0.4566929133858268,
                    "duration": 0.1759529999999927
                },
                {
                    "name": "A#4",
                    "midi": 70,
                    "time": 339.76524299999727,
                    "velocity": 0.44881889763779526,
                    "duration": 0.1759529999999927
                },
                {
                    "name": "A#3",
                    "midi": 58,
                    "time": 339.76524299999727,
                    "velocity": 0.3779527559055118,
                    "duration": 0.1759529999999927
                },
                {
                    "name": "A4",
                    "midi": 69,
                    "time": 339.94119599999726,
                    "velocity": 0.4409448818897638,
                    "duration": 0.1759529999999927
                },
                {
                    "name": "A3",
                    "midi": 57,
                    "time": 339.94119599999726,
                    "velocity": 0.3700787401574803,
                    "duration": 0.1759529999999927
                },
                {
                    "name": "G#4",
                    "midi": 68,
                    "time": 340.11714899999726,
                    "velocity": 0.4330708661417323,
                    "duration": 0.1759529999999927
                },
                {
                    "name": "G#3",
                    "midi": 56,
                    "time": 340.11714899999726,
                    "velocity": 0.36220472440944884,
                    "duration": 0.1759529999999927
                },
                {
                    "name": "F4",
                    "midi": 65,
                    "time": 340.29310199999725,
                    "velocity": 0.4251968503937008,
                    "duration": 0.1759529999999927
                },
                {
                    "name": "F3",
                    "midi": 53,
                    "time": 340.29310199999725,
                    "velocity": 0.3543307086614173,
                    "duration": 0.1759529999999927
                },
                {
                    "name": "E3",
                    "midi": 52,
                    "time": 340.46905499999724,
                    "velocity": 0.3464566929133858,
                    "duration": 0.1759529999999927
                },
                {
                    "name": "E4",
                    "midi": 64,
                    "time": 340.46905499999724,
                    "velocity": 0.4094488188976378,
                    "duration": 0.1759529999999927
                },
                {
                    "name": "D3",
                    "midi": 50,
                    "time": 340.64500799999723,
                    "velocity": 0.33858267716535434,
                    "duration": 0.1759529999999927
                },
                {
                    "name": "D4",
                    "midi": 62,
                    "time": 340.64500799999723,
                    "velocity": 0.4015748031496063,
                    "duration": 0.1759529999999927
                },
                {
                    "name": "C#3",
                    "midi": 49,
                    "time": 340.8209609999972,
                    "velocity": 0.33070866141732286,
                    "duration": 0.1759529999999927
                },
                {
                    "name": "C#4",
                    "midi": 61,
                    "time": 340.8209609999972,
                    "velocity": 0.3937007874015748,
                    "duration": 0.1759529999999927
                },
                {
                    "name": "A#2",
                    "midi": 46,
                    "time": 340.9969139999972,
                    "velocity": 0.33070866141732286,
                    "duration": 0.1759529999999927
                },
                {
                    "name": "A#3",
                    "midi": 58,
                    "time": 340.9969139999972,
                    "velocity": 0.3937007874015748,
                    "duration": 0.1759529999999927
                },
                {
                    "name": "A3",
                    "midi": 57,
                    "time": 341.1728669999972,
                    "velocity": 0.4015748031496063,
                    "duration": 0.1759529999999927
                },
                {
                    "name": "A2",
                    "midi": 45,
                    "time": 341.1728669999972,
                    "velocity": 0.33858267716535434,
                    "duration": 0.1759529999999927
                },
                {
                    "name": "G#3",
                    "midi": 56,
                    "time": 341.3488199999972,
                    "velocity": 0.41732283464566927,
                    "duration": 0.1759529999999927
                },
                {
                    "name": "G#2",
                    "midi": 44,
                    "time": 341.3488199999972,
                    "velocity": 0.3543307086614173,
                    "duration": 0.1759529999999927
                },
                {
                    "name": "F3",
                    "midi": 53,
                    "time": 341.5247729999972,
                    "velocity": 0.4251968503937008,
                    "duration": 0.1759529999999927
                },
                {
                    "name": "F2",
                    "midi": 41,
                    "time": 341.5247729999972,
                    "velocity": 0.36220472440944884,
                    "duration": 0.1759529999999927
                },
                {
                    "name": "E3",
                    "midi": 52,
                    "time": 341.7007259999972,
                    "velocity": 0.4409448818897638,
                    "duration": 0.1759529999999927
                },
                {
                    "name": "E2",
                    "midi": 40,
                    "time": 341.7007259999972,
                    "velocity": 0.3700787401574803,
                    "duration": 0.1759529999999927
                },
                {
                    "name": "D3",
                    "midi": 50,
                    "time": 341.8766789999972,
                    "velocity": 0.44881889763779526,
                    "duration": 0.1759529999999927
                },
                {
                    "name": "D2",
                    "midi": 38,
                    "time": 341.8766789999972,
                    "velocity": 0.3779527559055118,
                    "duration": 0.1759529999999927
                },
                {
                    "name": "C#2",
                    "midi": 37,
                    "time": 342.0526319999972,
                    "velocity": 0.3937007874015748,
                    "duration": 0.1759529999999927
                },
                {
                    "name": "C#3",
                    "midi": 49,
                    "time": 342.0526319999972,
                    "velocity": 0.4645669291338583,
                    "duration": 0.1759529999999927
                },
                {
                    "name": "A#2",
                    "midi": 46,
                    "time": 342.22858499999717,
                    "velocity": 0.47244094488188976,
                    "duration": 0.1759529999999927
                },
                {
                    "name": "A#1",
                    "midi": 34,
                    "time": 342.22858499999717,
                    "velocity": 0.4015748031496063,
                    "duration": 0.1759529999999927
                },
                {
                    "name": "A2",
                    "midi": 45,
                    "time": 342.40453799999716,
                    "velocity": 0.3779527559055118,
                    "duration": 0.1759529999999927
                },
                {
                    "name": "A1",
                    "midi": 33,
                    "time": 342.40453799999716,
                    "velocity": 0.31496062992125984,
                    "duration": 0.1759529999999927
                },
                {
                    "name": "A#2",
                    "midi": 46,
                    "time": 342.58049099999715,
                    "velocity": 0.3779527559055118,
                    "duration": 0.1759529999999927
                },
                {
                    "name": "A#1",
                    "midi": 34,
                    "time": 342.58049099999715,
                    "velocity": 0.31496062992125984,
                    "duration": 0.1759529999999927
                },
                {
                    "name": "C#3",
                    "midi": 49,
                    "time": 342.75644399999715,
                    "velocity": 0.3779527559055118,
                    "duration": 0.1759529999999927
                },
                {
                    "name": "C#2",
                    "midi": 37,
                    "time": 342.75644399999715,
                    "velocity": 0.3228346456692913,
                    "duration": 0.1759529999999927
                },
                {
                    "name": "D2",
                    "midi": 38,
                    "time": 342.93239699999714,
                    "velocity": 0.33070866141732286,
                    "duration": 0.1759529999999927
                },
                {
                    "name": "D3",
                    "midi": 50,
                    "time": 342.93239699999714,
                    "velocity": 0.3858267716535433,
                    "duration": 0.1759529999999927
                },
                {
                    "name": "E2",
                    "midi": 40,
                    "time": 343.10834999999713,
                    "velocity": 0.33070866141732286,
                    "duration": 0.1759529999999927
                },
                {
                    "name": "E3",
                    "midi": 52,
                    "time": 343.10834999999713,
                    "velocity": 0.3937007874015748,
                    "duration": 0.1759529999999927
                },
                {
                    "name": "F2",
                    "midi": 41,
                    "time": 343.2843029999971,
                    "velocity": 0.33070866141732286,
                    "duration": 0.1759529999999927
                },
                {
                    "name": "F3",
                    "midi": 53,
                    "time": 343.2843029999971,
                    "velocity": 0.4015748031496063,
                    "duration": 0.1759529999999927
                },
                {
                    "name": "G#2",
                    "midi": 44,
                    "time": 343.4602559999971,
                    "velocity": 0.33858267716535434,
                    "duration": 0.1759529999999927
                },
                {
                    "name": "G#3",
                    "midi": 56,
                    "time": 343.4602559999971,
                    "velocity": 0.4015748031496063,
                    "duration": 0.1759529999999927
                },
                {
                    "name": "A2",
                    "midi": 45,
                    "time": 343.6362089999971,
                    "velocity": 0.3464566929133858,
                    "duration": 0.1759529999999927
                },
                {
                    "name": "A3",
                    "midi": 57,
                    "time": 343.6362089999971,
                    "velocity": 0.4094488188976378,
                    "duration": 0.1759529999999927
                },
                {
                    "name": "A#3",
                    "midi": 58,
                    "time": 343.8121619999971,
                    "velocity": 0.4251968503937008,
                    "duration": 0.1759529999999927
                },
                {
                    "name": "A#2",
                    "midi": 46,
                    "time": 343.8121619999971,
                    "velocity": 0.36220472440944884,
                    "duration": 0.1759529999999927
                },
                {
                    "name": "C#4",
                    "midi": 61,
                    "time": 343.9881149999971,
                    "velocity": 0.4409448818897638,
                    "duration": 0.1759529999999927
                },
                {
                    "name": "C#3",
                    "midi": 49,
                    "time": 343.9881149999971,
                    "velocity": 0.36220472440944884,
                    "duration": 0.1759529999999927
                },
                {
                    "name": "D4",
                    "midi": 62,
                    "time": 344.1640679999971,
                    "velocity": 0.4409448818897638,
                    "duration": 0.1759529999999927
                },
                {
                    "name": "D3",
                    "midi": 50,
                    "time": 344.1640679999971,
                    "velocity": 0.3779527559055118,
                    "duration": 0.1759529999999927
                },
                {
                    "name": "E4",
                    "midi": 64,
                    "time": 344.3400209999971,
                    "velocity": 0.4566929133858268,
                    "duration": 0.1759529999999927
                },
                {
                    "name": "E3",
                    "midi": 52,
                    "time": 344.3400209999971,
                    "velocity": 0.3858267716535433,
                    "duration": 0.1759529999999927
                },
                {
                    "name": "F4",
                    "midi": 65,
                    "time": 344.5159739999971,
                    "velocity": 0.4645669291338583,
                    "duration": 0.1759529999999927
                },
                {
                    "name": "F3",
                    "midi": 53,
                    "time": 344.5159739999971,
                    "velocity": 0.3858267716535433,
                    "duration": 0.1759529999999927
                },
                {
                    "name": "G#4",
                    "midi": 68,
                    "time": 344.69192699999707,
                    "velocity": 0.48031496062992124,
                    "duration": 0.1759529999999927
                },
                {
                    "name": "G#3",
                    "midi": 56,
                    "time": 344.69192699999707,
                    "velocity": 0.4015748031496063,
                    "duration": 0.1759529999999927
                },
                {
                    "name": "A4",
                    "midi": 69,
                    "time": 344.86787999999706,
                    "velocity": 0.49606299212598426,
                    "duration": 0.1759529999999927
                },
                {
                    "name": "A3",
                    "midi": 57,
                    "time": 344.86787999999706,
                    "velocity": 0.41732283464566927,
                    "duration": 0.1759529999999927
                },
                {
                    "name": "A#3",
                    "midi": 58,
                    "time": 345.04383299999705,
                    "velocity": 0.41732283464566927,
                    "duration": 0.1759529999999927
                },
                {
                    "name": "A#4",
                    "midi": 70,
                    "time": 345.04383299999705,
                    "velocity": 0.49606299212598426,
                    "duration": 0.1759529999999927
                },
                {
                    "name": "C#4",
                    "midi": 61,
                    "time": 345.21978599999704,
                    "velocity": 0.5748031496062992,
                    "duration": 0.1759529999999927
                },
                {
                    "name": "C#5",
                    "midi": 73,
                    "time": 345.21978599999704,
                    "velocity": 0.5748031496062992,
                    "duration": 0.1759529999999927
                },
                {
                    "name": "D3",
                    "midi": 50,
                    "time": 345.923597999997,
                    "velocity": 0.4566929133858268,
                    "duration": 0.1759529999999927
                },
                {
                    "name": "F3",
                    "midi": 53,
                    "time": 345.923597999997,
                    "velocity": 0.4566929133858268,
                    "duration": 0.1759529999999927
                },
                {
                    "name": "A#3",
                    "midi": 58,
                    "time": 345.923597999997,
                    "velocity": 0.4566929133858268,
                    "duration": 0.1759529999999927
                },
                {
                    "name": "D4",
                    "midi": 62,
                    "time": 345.923597999997,
                    "velocity": 0.5511811023622047,
                    "duration": 0.1759529999999927
                },
                {
                    "name": "A3",
                    "midi": 57,
                    "time": 346.627409999997,
                    "velocity": 0.5590551181102362,
                    "duration": 0.1759529999999927
                },
                {
                    "name": "C#3",
                    "midi": 49,
                    "time": 346.627409999997,
                    "velocity": 0.4645669291338583,
                    "duration": 0.1759529999999927
                },
                {
                    "name": "A2",
                    "midi": 45,
                    "time": 346.627409999997,
                    "velocity": 0.4645669291338583,
                    "duration": 0.1759529999999927
                },
                {
                    "name": "E3",
                    "midi": 52,
                    "time": 346.627409999997,
                    "velocity": 0.4645669291338583,
                    "duration": 0.1759529999999927
                },
                {
                    "name": "D3",
                    "midi": 50,
                    "time": 347.33122199999696,
                    "velocity": 0.6377952755905512,
                    "duration": 0.1759529999999927
                },
                {
                    "name": "F2",
                    "midi": 41,
                    "time": 347.33122199999696,
                    "velocity": 0.5433070866141733,
                    "duration": 0.1759529999999927
                },
                {
                    "name": "A#2",
                    "midi": 46,
                    "time": 347.33122199999696,
                    "velocity": 0.5433070866141733,
                    "duration": 0.1759529999999927
                },
                {
                    "name": "D2",
                    "midi": 38,
                    "time": 347.33122199999696,
                    "velocity": 0.5433070866141733,
                    "duration": 0.1759529999999927
                },
                {
                    "name": "A1",
                    "midi": 33,
                    "time": 348.0350339999969,
                    "velocity": 0.23622047244094488,
                    "duration": 0.08797650000002477
                },
                {
                    "name": "E2",
                    "midi": 40,
                    "time": 348.0350339999969,
                    "velocity": 0.28346456692913385,
                    "duration": 0.08797650000002477
                },
                {
                    "name": "C#2",
                    "midi": 37,
                    "time": 348.0350339999969,
                    "velocity": 0.23622047244094488,
                    "duration": 0.08797650000002477
                },
                {
                    "name": "A2",
                    "midi": 45,
                    "time": 348.12301049999695,
                    "velocity": 0.29133858267716534,
                    "duration": 0.08797650000002477
                },
                {
                    "name": "A1",
                    "midi": 33,
                    "time": 348.210986999997,
                    "velocity": 0.25196850393700787,
                    "duration": 0.08797650000002477
                },
                {
                    "name": "E2",
                    "midi": 40,
                    "time": 348.210986999997,
                    "velocity": 0.2992125984251969,
                    "duration": 0.08797650000002477
                },
                {
                    "name": "C#2",
                    "midi": 37,
                    "time": 348.210986999997,
                    "velocity": 0.25196850393700787,
                    "duration": 0.08797650000002477
                },
                {
                    "name": "A2",
                    "midi": 45,
                    "time": 348.298963499997,
                    "velocity": 0.30708661417322836,
                    "duration": 0.08797650000002477
                },
                {
                    "name": "E2",
                    "midi": 40,
                    "time": 348.386939999997,
                    "velocity": 0.3228346456692913,
                    "duration": 0.08797650000002477
                },
                {
                    "name": "C#2",
                    "midi": 37,
                    "time": 348.386939999997,
                    "velocity": 0.2677165354330709,
                    "duration": 0.08797650000002477
                },
                {
                    "name": "A1",
                    "midi": 33,
                    "time": 348.386939999997,
                    "velocity": 0.2677165354330709,
                    "duration": 0.08797650000002477
                },
                {
                    "name": "A2",
                    "midi": 45,
                    "time": 348.47491649999705,
                    "velocity": 0.33070866141732286,
                    "duration": 0.08797650000002477
                },
                {
                    "name": "E2",
                    "midi": 40,
                    "time": 348.5628929999971,
                    "velocity": 0.33858267716535434,
                    "duration": 0.08797650000002477
                },
                {
                    "name": "C#2",
                    "midi": 37,
                    "time": 348.5628929999971,
                    "velocity": 0.28346456692913385,
                    "duration": 0.08797650000002477
                },
                {
                    "name": "A1",
                    "midi": 33,
                    "time": 348.5628929999971,
                    "velocity": 0.28346456692913385,
                    "duration": 0.08797650000002477
                },
                {
                    "name": "A2",
                    "midi": 45,
                    "time": 348.6508694999971,
                    "velocity": 0.3464566929133858,
                    "duration": 0.08797650000002477
                },
                {
                    "name": "E2",
                    "midi": 40,
                    "time": 348.7388459999971,
                    "velocity": 0.3543307086614173,
                    "duration": 0.08797650000002477
                },
                {
                    "name": "A1",
                    "midi": 33,
                    "time": 348.7388459999971,
                    "velocity": 0.2992125984251969,
                    "duration": 0.08797650000002477
                },
                {
                    "name": "C#2",
                    "midi": 37,
                    "time": 348.7388459999971,
                    "velocity": 0.2992125984251969,
                    "duration": 0.08797650000002477
                },
                {
                    "name": "A2",
                    "midi": 45,
                    "time": 348.82682249999715,
                    "velocity": 0.36220472440944884,
                    "duration": 0.08797650000002477
                },
                {
                    "name": "E2",
                    "midi": 40,
                    "time": 348.9147989999972,
                    "velocity": 0.3464566929133858,
                    "duration": 0.08797650000002477
                },
                {
                    "name": "A1",
                    "midi": 33,
                    "time": 348.9147989999972,
                    "velocity": 0.29133858267716534,
                    "duration": 0.08797650000002477
                },
                {
                    "name": "C#2",
                    "midi": 37,
                    "time": 348.9147989999972,
                    "velocity": 0.29133858267716534,
                    "duration": 0.08797650000002477
                },
                {
                    "name": "A2",
                    "midi": 45,
                    "time": 349.0027754999972,
                    "velocity": 0.33858267716535434,
                    "duration": 0.08797650000002477
                },
                {
                    "name": "A1",
                    "midi": 33,
                    "time": 349.0907519999972,
                    "velocity": 0.2755905511811024,
                    "duration": 0.08797650000002477
                },
                {
                    "name": "C#2",
                    "midi": 37,
                    "time": 349.0907519999972,
                    "velocity": 0.2755905511811024,
                    "duration": 0.08797650000002477
                },
                {
                    "name": "E2",
                    "midi": 40,
                    "time": 349.0907519999972,
                    "velocity": 0.33070866141732286,
                    "duration": 0.08797650000002477
                },
                {
                    "name": "A2",
                    "midi": 45,
                    "time": 349.17872849999725,
                    "velocity": 0.31496062992125984,
                    "duration": 0.08797650000002477
                },
                {
                    "name": "A1",
                    "midi": 33,
                    "time": 349.2667049999973,
                    "velocity": 0.25984251968503935,
                    "duration": 0.08797650000002477
                },
                {
                    "name": "E2",
                    "midi": 40,
                    "time": 349.2667049999973,
                    "velocity": 0.30708661417322836,
                    "duration": 0.08797650000002477
                },
                {
                    "name": "C#2",
                    "midi": 37,
                    "time": 349.2667049999973,
                    "velocity": 0.25984251968503935,
                    "duration": 0.08797650000002477
                },
                {
                    "name": "A2",
                    "midi": 45,
                    "time": 349.3546814999973,
                    "velocity": 0.2992125984251969,
                    "duration": 0.08797650000002477
                },
                {
                    "name": "A1",
                    "midi": 33,
                    "time": 349.4426579999973,
                    "velocity": 0.4330708661417323,
                    "duration": 0.1759529999999927
                },
                {
                    "name": "C#2",
                    "midi": 37,
                    "time": 349.4536550624973,
                    "velocity": 0.4566929133858268,
                    "duration": 0.1649559374999967
                },
                {
                    "name": "E2",
                    "midi": 40,
                    "time": 349.4646521249973,
                    "velocity": 0.48031496062992124,
                    "duration": 0.15395887500000072
                },
                {
                    "name": "A2",
                    "midi": 45,
                    "time": 349.4756491874973,
                    "velocity": 0.5196850393700787,
                    "duration": 0.14296181250000473
                },
                {
                    "name": "A3",
                    "midi": 57,
                    "time": 350.0584934999973,
                    "velocity": 0.5826771653543307,
                    "duration": 0.07917885000000524
                },
                {
                    "name": "C#3",
                    "midi": 49,
                    "time": 350.0584934999973,
                    "velocity": 0.4881889763779528,
                    "duration": 0.07917885000000524
                },
                {
                    "name": "A2",
                    "midi": 45,
                    "time": 350.0584934999973,
                    "velocity": 0.4881889763779528,
                    "duration": 0.07917885000000524
                },
                {
                    "name": "E3",
                    "midi": 52,
                    "time": 350.0584934999973,
                    "velocity": 0.4881889763779528,
                    "duration": 0.07917885000000524
                },
                {
                    "name": "A3",
                    "midi": 57,
                    "time": 350.14646999999735,
                    "velocity": 0.6377952755905512,
                    "duration": 0.1759529999999927
                },
                {
                    "name": "C#3",
                    "midi": 49,
                    "time": 350.14646999999735,
                    "velocity": 0.5354330708661418,
                    "duration": 0.1759529999999927
                },
                {
                    "name": "A2",
                    "midi": 45,
                    "time": 350.14646999999735,
                    "velocity": 0.5354330708661418,
                    "duration": 0.1759529999999927
                },
                {
                    "name": "E3",
                    "midi": 52,
                    "time": 350.14646999999735,
                    "velocity": 0.5354330708661418,
                    "duration": 0.1759529999999927
                },
                {
                    "name": "A1",
                    "midi": 33,
                    "time": 350.76230549999735,
                    "velocity": 0.4881889763779528,
                    "duration": 0.07917885000000524
                },
                {
                    "name": "C#2",
                    "midi": 37,
                    "time": 350.76230549999735,
                    "velocity": 0.4881889763779528,
                    "duration": 0.07917885000000524
                },
                {
                    "name": "E2",
                    "midi": 40,
                    "time": 350.76230549999735,
                    "velocity": 0.4881889763779528,
                    "duration": 0.07917885000000524
                },
                {
                    "name": "A2",
                    "midi": 45,
                    "time": 350.76230549999735,
                    "velocity": 0.5826771653543307,
                    "duration": 0.07917885000000524
                },
                {
                    "name": "A1",
                    "midi": 33,
                    "time": 350.8502819999974,
                    "velocity": 0.5354330708661418,
                    "duration": 0.1759529999999927
                },
                {
                    "name": "C#2",
                    "midi": 37,
                    "time": 350.8502819999974,
                    "velocity": 0.5354330708661418,
                    "duration": 0.1759529999999927
                },
                {
                    "name": "E2",
                    "midi": 40,
                    "time": 350.8502819999974,
                    "velocity": 0.5354330708661418,
                    "duration": 0.1759529999999927
                },
                {
                    "name": "A2",
                    "midi": 45,
                    "time": 350.8502819999974,
                    "velocity": 0.6377952755905512,
                    "duration": 0.1759529999999927
                }
            ],
            "controlChanges": {
                "7": [
                    {
                        "number": 7,
                        "time": 0,
                        "value": 0.7874015748031497
                    }
                ],
                "10": [
                    {
                        "number": 10,
                        "time": 0,
                        "value": 0.5039370078740157
                    }
                ]
            },
            "id": 2,
            "name": "Piano left",
            "instrumentNumber": 0,
            "instrument": "acoustic grand piano",
            "instrumentFamily": "piano",
            "channelNumber": 0,
            "isPercussion": false
        },
        {
            "startTime": 0,
            "duration": 0,
            "length": 0,
            "notes": [],
            "controlChanges": {
                "64": [
                    {
                        "number": 64,
                        "time": 0.2639295,
                        "value": 1
                    },
                    {
                        "number": 64,
                        "time": 3.1796173375,
                        "value": 0
                    },
                    {
                        "number": 64,
                        "time": 3.21114225,
                        "value": 1
                    },
                    {
                        "number": 64,
                        "time": 6.00292985,
                        "value": 0
                    },
                    {
                        "number": 64,
                        "time": 6.041053,
                        "value": 1
                    },
                    {
                        "number": 64,
                        "time": 7.39882365,
                        "value": 0
                    },
                    {
                        "number": 64,
                        "time": 7.4259497375,
                        "value": 1
                    },
                    {
                        "number": 64,
                        "time": 8.8086470625,
                        "value": 0
                    },
                    {
                        "number": 64,
                        "time": 8.84163825,
                        "value": 1
                    },
                    {
                        "number": 64,
                        "time": 9.512459062500001,
                        "value": 0
                    },
                    {
                        "number": 64,
                        "time": 9.537385737500001,
                        "value": 1
                    },
                    {
                        "number": 64,
                        "time": 10.211872237500002,
                        "value": 0
                    },
                    {
                        "number": 64,
                        "time": 10.232400087500002,
                        "value": 1
                    },
                    {
                        "number": 64,
                        "time": 10.923748750000001,
                        "value": 0
                    },
                    {
                        "number": 64,
                        "time": 10.9596724875,
                        "value": 1
                    },
                    {
                        "number": 64,
                        "time": 11.626827612500001,
                        "value": 0
                    },
                    {
                        "number": 64,
                        "time": 11.653220562500001,
                        "value": 1
                    },
                    {
                        "number": 64,
                        "time": 13.032985337500001,
                        "value": 0
                    },
                    {
                        "number": 64,
                        "time": 13.0564457375,
                        "value": 1
                    },
                    {
                        "number": 64,
                        "time": 14.652486075,
                        "value": 0
                    },
                    {
                        "number": 64,
                        "time": 14.788849650000001,
                        "value": 1
                    },
                    {
                        "number": 64,
                        "time": 17.8555638125,
                        "value": 0
                    },
                    {
                        "number": 64,
                        "time": 19.354830000000003,
                        "value": 0
                    },
                    {
                        "number": 64,
                        "time": 23.234593650000004,
                        "value": 0
                    },
                    {
                        "number": 64,
                        "time": 23.343098000000005,
                        "value": 1
                    },
                    {
                        "number": 64,
                        "time": 23.931074275000004,
                        "value": 0
                    },
                    {
                        "number": 64,
                        "time": 24.647349612500005,
                        "value": 0
                    },
                    {
                        "number": 64,
                        "time": 24.767584162500004,
                        "value": 1
                    },
                    {
                        "number": 64,
                        "time": 25.104827412500004,
                        "value": 0
                    },
                    {
                        "number": 64,
                        "time": 25.342363962500006,
                        "value": 1
                    },
                    {
                        "number": 64,
                        "time": 25.546909325000005,
                        "value": 0
                    },
                    {
                        "number": 64,
                        "time": 26.049108512500005,
                        "value": 1
                    },
                    {
                        "number": 64,
                        "time": 26.258785837500007,
                        "value": 0
                    },
                    {
                        "number": 64,
                        "time": 26.75292051250001,
                        "value": 1
                    },
                    {
                        "number": 64,
                        "time": 26.983125687500007,
                        "value": 0
                    },
                    {
                        "number": 64,
                        "time": 27.458931925000005,
                        "value": 1
                    },
                    {
                        "number": 64,
                        "time": 27.666409837500005,
                        "value": 0
                    },
                    {
                        "number": 64,
                        "time": 28.165676475000005,
                        "value": 1
                    },
                    {
                        "number": 64,
                        "time": 28.370221837500004,
                        "value": 0
                    },
                    {
                        "number": 64,
                        "time": 28.874620437500006,
                        "value": 1
                    },
                    {
                        "number": 64,
                        "time": 29.084297762500007,
                        "value": 0
                    },
                    {
                        "number": 64,
                        "time": 29.669341487500006,
                        "value": 1
                    },
                    {
                        "number": 64,
                        "time": 30.507317650000005,
                        "value": 0
                    },
                    {
                        "number": 64,
                        "time": 33.803503850000006,
                        "value": 1
                    },
                    {
                        "number": 64,
                        "time": 34.50511643750001,
                        "value": 0
                    },
                    {
                        "number": 64,
                        "time": 34.55423665000001,
                        "value": 1
                    },
                    {
                        "number": 64,
                        "time": 35.202330200000006,
                        "value": 0
                    },
                    {
                        "number": 64,
                        "time": 35.247784725,
                        "value": 1
                    },
                    {
                        "number": 64,
                        "time": 35.905409062500006,
                        "value": 0
                    },
                    {
                        "number": 64,
                        "time": 35.9647932,
                        "value": 1
                    },
                    {
                        "number": 64,
                        "time": 36.3966111875,
                        "value": 0
                    },
                    {
                        "number": 64,
                        "time": 36.631948324999996,
                        "value": 1
                    },
                    {
                        "number": 64,
                        "time": 36.7925054375,
                        "value": 0
                    },
                    {
                        "number": 64,
                        "time": 37.3335609125,
                        "value": 1
                    },
                    {
                        "number": 64,
                        "time": 37.498516849999994,
                        "value": 0
                    },
                    {
                        "number": 64,
                        "time": 38.024176437499996,
                        "value": 1
                    },
                    {
                        "number": 64,
                        "time": 38.2411851375,
                        "value": 0
                    },
                    {
                        "number": 64,
                        "time": 38.714791962499994,
                        "value": 1
                    },
                    {
                        "number": 64,
                        "time": 38.937665762499996,
                        "value": 0
                    },
                    {
                        "number": 64,
                        "time": 39.4215365125,
                        "value": 1
                    },
                    {
                        "number": 64,
                        "time": 39.6180173625,
                        "value": 0
                    },
                    {
                        "number": 64,
                        "time": 40.120216549999995,
                        "value": 1
                    },
                    {
                        "number": 64,
                        "time": 40.303500924999994,
                        "value": 0
                    },
                    {
                        "number": 64,
                        "time": 40.898808575,
                        "value": 1
                    },
                    {
                        "number": 64,
                        "time": 41.734585325,
                        "value": 0
                    },
                    {
                        "number": 64,
                        "time": 49.33428865,
                        "value": 1
                    },
                    {
                        "number": 64,
                        "time": 49.6297430625,
                        "value": 0
                    },
                    {
                        "number": 64,
                        "time": 49.6913266125,
                        "value": 1
                    },
                    {
                        "number": 64,
                        "time": 49.8467517625,
                        "value": 0
                    },
                    {
                        "number": 64,
                        "time": 50.032968687499995,
                        "value": 1
                    },
                    {
                        "number": 64,
                        "time": 50.32988937499999,
                        "value": 0
                    },
                    {
                        "number": 64,
                        "time": 50.41566646249999,
                        "value": 1
                    },
                    {
                        "number": 64,
                        "time": 50.55056376249999,
                        "value": 0
                    },
                    {
                        "number": 64,
                        "time": 50.72505048749999,
                        "value": 1
                    },
                    {
                        "number": 64,
                        "time": 51.038833337499995,
                        "value": 0
                    },
                    {
                        "number": 64,
                        "time": 51.08941982499999,
                        "value": 1
                    },
                    {
                        "number": 64,
                        "time": 51.25290948749999,
                        "value": 0
                    },
                    {
                        "number": 64,
                        "time": 51.433261312499994,
                        "value": 1
                    },
                    {
                        "number": 64,
                        "time": 51.73824651249999,
                        "value": 0
                    },
                    {
                        "number": 64,
                        "time": 51.78883299999999,
                        "value": 1
                    },
                    {
                        "number": 64,
                        "time": 51.94792383749999,
                        "value": 0
                    },
                    {
                        "number": 64,
                        "time": 52.15466861249999,
                        "value": 1
                    },
                    {
                        "number": 64,
                        "time": 52.44205851249999,
                        "value": 0
                    },
                    {
                        "number": 64,
                        "time": 52.49631068749999,
                        "value": 1
                    },
                    {
                        "number": 64,
                        "time": 52.65686779999999,
                        "value": 0
                    },
                    {
                        "number": 64,
                        "time": 52.853348649999994,
                        "value": 1
                    },
                    {
                        "number": 64,
                        "time": 54.91419816249999,
                        "value": 0
                    },
                    {
                        "number": 64,
                        "time": 56.41419748749999,
                        "value": 1
                    },
                    {
                        "number": 64,
                        "time": 57.25217364999999,
                        "value": 0
                    },
                    {
                        "number": 64,
                        "time": 69.72357566249998,
                        "value": 1
                    },
                    {
                        "number": 64,
                        "time": 70.39073078749998,
                        "value": 0
                    },
                    {
                        "number": 64,
                        "time": 71.19938144999998,
                        "value": 1
                    },
                    {
                        "number": 64,
                        "time": 71.78882399999998,
                        "value": 0
                    },
                    {
                        "number": 64,
                        "time": 71.82694714999998,
                        "value": 1
                    },
                    {
                        "number": 64,
                        "time": 72.18251883749998,
                        "value": 0
                    },
                    {
                        "number": 64,
                        "time": 72.50949816249998,
                        "value": 1
                    },
                    {
                        "number": 64,
                        "time": 72.86140416249998,
                        "value": 0
                    },
                    {
                        "number": 64,
                        "time": 73.23457114999998,
                        "value": 1
                    },
                    {
                        "number": 64,
                        "time": 73.59014283749998,
                        "value": 0
                    },
                    {
                        "number": 64,
                        "time": 73.88339783749998,
                        "value": 1
                    },
                    {
                        "number": 64,
                        "time": 74.26902816249998,
                        "value": 0
                    },
                    {
                        "number": 64,
                        "time": 77.41931999999998,
                        "value": 0
                    },
                    {
                        "number": 64,
                        "time": 77.49043433749999,
                        "value": 1
                    },
                    {
                        "number": 64,
                        "time": 77.63339615,
                        "value": 0
                    },
                    {
                        "number": 64,
                        "time": 77.83427582499999,
                        "value": 1
                    },
                    {
                        "number": 64,
                        "time": 77.9347156625,
                        "value": 0
                    },
                    {
                        "number": 64,
                        "time": 78.1693196625,
                        "value": 1
                    },
                    {
                        "number": 64,
                        "time": 78.36653365000001,
                        "value": 0
                    },
                    {
                        "number": 64,
                        "time": 78.52562448750001,
                        "value": 1
                    },
                    {
                        "number": 64,
                        "time": 78.68471532500001,
                        "value": 0
                    },
                    {
                        "number": 64,
                        "time": 78.84747185000002,
                        "value": 1
                    },
                    {
                        "number": 64,
                        "time": 79.22063883750002,
                        "value": 0
                    },
                    {
                        "number": 64,
                        "time": 79.71697292500002,
                        "value": 1
                    },
                    {
                        "number": 64,
                        "time": 79.93471476250002,
                        "value": 0
                    },
                    {
                        "number": 64,
                        "time": 80.30714861250001,
                        "value": 1
                    },
                    {
                        "number": 64,
                        "time": 80.95817471250001,
                        "value": 0
                    },
                    {
                        "number": 64,
                        "time": 88.74776065,
                        "value": 1
                    },
                    {
                        "number": 64,
                        "time": 89.04321506250001,
                        "value": 0
                    },
                    {
                        "number": 64,
                        "time": 89.1047986125,
                        "value": 1
                    },
                    {
                        "number": 64,
                        "time": 89.2602237625,
                        "value": 0
                    },
                    {
                        "number": 64,
                        "time": 89.4464406875,
                        "value": 1
                    },
                    {
                        "number": 64,
                        "time": 89.743361375,
                        "value": 0
                    },
                    {
                        "number": 64,
                        "time": 89.82913846250001,
                        "value": 1
                    },
                    {
                        "number": 64,
                        "time": 89.96403576250002,
                        "value": 0
                    },
                    {
                        "number": 64,
                        "time": 90.13852248750001,
                        "value": 1
                    },
                    {
                        "number": 64,
                        "time": 90.45230533750001,
                        "value": 0
                    },
                    {
                        "number": 64,
                        "time": 90.502891825,
                        "value": 1
                    },
                    {
                        "number": 64,
                        "time": 90.6663814875,
                        "value": 0
                    },
                    {
                        "number": 64,
                        "time": 90.8467333125,
                        "value": 1
                    },
                    {
                        "number": 64,
                        "time": 91.15171851250001,
                        "value": 0
                    },
                    {
                        "number": 64,
                        "time": 91.20230500000001,
                        "value": 1
                    },
                    {
                        "number": 64,
                        "time": 91.36139583750001,
                        "value": 0
                    },
                    {
                        "number": 64,
                        "time": 91.56814061250002,
                        "value": 1
                    },
                    {
                        "number": 64,
                        "time": 91.85553051250001,
                        "value": 0
                    },
                    {
                        "number": 64,
                        "time": 91.90978268750001,
                        "value": 1
                    },
                    {
                        "number": 64,
                        "time": 92.07033980000001,
                        "value": 0
                    },
                    {
                        "number": 64,
                        "time": 92.26682065000001,
                        "value": 1
                    },
                    {
                        "number": 64,
                        "time": 94.32767016250001,
                        "value": 0
                    },
                    {
                        "number": 64,
                        "time": 95.82766948750002,
                        "value": 1
                    },
                    {
                        "number": 64,
                        "time": 96.66564565000002,
                        "value": 0
                    },
                    {
                        "number": 64,
                        "time": 109.13704766250001,
                        "value": 1
                    },
                    {
                        "number": 64,
                        "time": 109.80860161250001,
                        "value": 0
                    },
                    {
                        "number": 64,
                        "time": 110.54467166250001,
                        "value": 1
                    },
                    {
                        "number": 64,
                        "time": 111.202296,
                        "value": 0
                    },
                    {
                        "number": 64,
                        "time": 111.24041915000001,
                        "value": 1
                    },
                    {
                        "number": 64,
                        "time": 111.59599083750001,
                        "value": 0
                    },
                    {
                        "number": 64,
                        "time": 111.88924583750001,
                        "value": 1
                    },
                    {
                        "number": 64,
                        "time": 112.27487616250001,
                        "value": 0
                    },
                    {
                        "number": 64,
                        "time": 112.64804315,
                        "value": 1
                    },
                    {
                        "number": 64,
                        "time": 113.00361483750001,
                        "value": 0
                    },
                    {
                        "number": 64,
                        "time": 113.36065280000001,
                        "value": 1
                    },
                    {
                        "number": 64,
                        "time": 113.6825001625,
                        "value": 0
                    },
                    {
                        "number": 64,
                        "time": 116.83279200000001,
                        "value": 0
                    },
                    {
                        "number": 64,
                        "time": 116.90390633750002,
                        "value": 1
                    },
                    {
                        "number": 64,
                        "time": 117.04686815000002,
                        "value": 0
                    },
                    {
                        "number": 64,
                        "time": 117.24774782500002,
                        "value": 1
                    },
                    {
                        "number": 64,
                        "time": 117.34818766250002,
                        "value": 0
                    },
                    {
                        "number": 64,
                        "time": 117.58279166250003,
                        "value": 1
                    },
                    {
                        "number": 64,
                        "time": 117.78000565000004,
                        "value": 0
                    },
                    {
                        "number": 64,
                        "time": 117.93909648750004,
                        "value": 1
                    },
                    {
                        "number": 64,
                        "time": 118.09818732500004,
                        "value": 0
                    },
                    {
                        "number": 64,
                        "time": 118.26094385000005,
                        "value": 1
                    },
                    {
                        "number": 64,
                        "time": 118.63411083750005,
                        "value": 0
                    },
                    {
                        "number": 64,
                        "time": 119.13044492500005,
                        "value": 1
                    },
                    {
                        "number": 64,
                        "time": 119.34818676250005,
                        "value": 0
                    },
                    {
                        "number": 64,
                        "time": 119.73235081250004,
                        "value": 1
                    },
                    {
                        "number": 64,
                        "time": 120.37164671250004,
                        "value": 0
                    },
                    {
                        "number": 64,
                        "time": 120.78806881250004,
                        "value": 1
                    },
                    {
                        "number": 64,
                        "time": 121.14877246250005,
                        "value": 0
                    },
                    {
                        "number": 64,
                        "time": 121.38191018750005,
                        "value": 1
                    },
                    {
                        "number": 64,
                        "time": 121.86798035000005,
                        "value": 0
                    },
                    {
                        "number": 64,
                        "time": 122.15317083750006,
                        "value": 1
                    },
                    {
                        "number": 64,
                        "time": 122.64950492500006,
                        "value": 0
                    },
                    {
                        "number": 64,
                        "time": 122.86724676250006,
                        "value": 1
                    },
                    {
                        "number": 64,
                        "time": 123.33278907500006,
                        "value": 0
                    },
                    {
                        "number": 64,
                        "time": 123.51900600000006,
                        "value": 1
                    },
                    {
                        "number": 64,
                        "time": 123.73674783750006,
                        "value": 0
                    },
                    {
                        "number": 64,
                        "time": 123.87091200000006,
                        "value": 1
                    },
                    {
                        "number": 64,
                        "time": 124.08058932500006,
                        "value": 0
                    },
                    {
                        "number": 64,
                        "time": 124.34012000000006,
                        "value": 1
                    },
                    {
                        "number": 64,
                        "time": 124.46621965000006,
                        "value": 0
                    },
                    {
                        "number": 64,
                        "time": 124.65023716250006,
                        "value": 1
                    },
                    {
                        "number": 64,
                        "time": 124.80932800000006,
                        "value": 0
                    },
                    {
                        "number": 64,
                        "time": 125.05272965000006,
                        "value": 1
                    },
                    {
                        "number": 64,
                        "time": 125.17003165000006,
                        "value": 0
                    },
                    {
                        "number": 64,
                        "time": 125.34598465000006,
                        "value": 1
                    },
                    {
                        "number": 64,
                        "time": 126.07032450000007,
                        "value": 0
                    },
                    {
                        "number": 64,
                        "time": 126.33425400000007,
                        "value": 1
                    },
                    {
                        "number": 64,
                        "time": 126.55199583750007,
                        "value": 0
                    },
                    {
                        "number": 64,
                        "time": 126.68616000000007,
                        "value": 1
                    },
                    {
                        "number": 64,
                        "time": 126.89583732500007,
                        "value": 0
                    },
                    {
                        "number": 64,
                        "time": 127.15536800000007,
                        "value": 1
                    },
                    {
                        "number": 64,
                        "time": 127.28146765000007,
                        "value": 0
                    },
                    {
                        "number": 64,
                        "time": 127.46548516250007,
                        "value": 1
                    },
                    {
                        "number": 64,
                        "time": 127.62457600000008,
                        "value": 0
                    },
                    {
                        "number": 64,
                        "time": 127.86797765000007,
                        "value": 1
                    },
                    {
                        "number": 64,
                        "time": 127.98527965000007,
                        "value": 0
                    },
                    {
                        "number": 64,
                        "time": 128.09378400000006,
                        "value": 1
                    },
                    {
                        "number": 64,
                        "time": 128.88557250000005,
                        "value": 0
                    },
                    {
                        "number": 64,
                        "time": 129.23381281250005,
                        "value": 1
                    },
                    {
                        "number": 64,
                        "time": 129.59451646250005,
                        "value": 0
                    },
                    {
                        "number": 64,
                        "time": 129.82765418750006,
                        "value": 1
                    },
                    {
                        "number": 64,
                        "time": 130.31372435000006,
                        "value": 0
                    },
                    {
                        "number": 64,
                        "time": 130.59891483750005,
                        "value": 1
                    },
                    {
                        "number": 64,
                        "time": 131.09524892500005,
                        "value": 0
                    },
                    {
                        "number": 64,
                        "time": 131.31299076250005,
                        "value": 1
                    },
                    {
                        "number": 64,
                        "time": 131.77853307500004,
                        "value": 0
                    },
                    {
                        "number": 64,
                        "time": 135.51240236250004,
                        "value": 1
                    },
                    {
                        "number": 64,
                        "time": 136.08938157500003,
                        "value": 0
                    },
                    {
                        "number": 64,
                        "time": 136.92295891250004,
                        "value": 1
                    },
                    {
                        "number": 64,
                        "time": 137.49700557500003,
                        "value": 0
                    },
                    {
                        "number": 64,
                        "time": 137.59524600000003,
                        "value": 1
                    },
                    {
                        "number": 64,
                        "time": 137.84377961250004,
                        "value": 0
                    },
                    {
                        "number": 64,
                        "time": 137.94715200000005,
                        "value": 1
                    },
                    {
                        "number": 64,
                        "time": 138.21108150000003,
                        "value": 0
                    },
                    {
                        "number": 64,
                        "time": 138.41636000000003,
                        "value": 1
                    },
                    {
                        "number": 64,
                        "time": 138.56592005000002,
                        "value": 0
                    },
                    {
                        "number": 64,
                        "time": 138.7264771625,
                        "value": 1
                    },
                    {
                        "number": 64,
                        "time": 138.9332219375,
                        "value": 0
                    },
                    {
                        "number": 64,
                        "time": 139.12896965000002,
                        "value": 1
                    },
                    {
                        "number": 64,
                        "time": 139.28732735000003,
                        "value": 0
                    },
                    {
                        "number": 64,
                        "time": 139.38630091250002,
                        "value": 1
                    },
                    {
                        "number": 64,
                        "time": 140.28146180000002,
                        "value": 0
                    },
                    {
                        "number": 64,
                        "time": 140.43688695000003,
                        "value": 1
                    },
                    {
                        "number": 64,
                        "time": 140.62823583750003,
                        "value": 0
                    },
                    {
                        "number": 64,
                        "time": 140.76240000000004,
                        "value": 1
                    },
                    {
                        "number": 64,
                        "time": 140.99260517500005,
                        "value": 0
                    },
                    {
                        "number": 64,
                        "time": 141.23160800000005,
                        "value": 1
                    },
                    {
                        "number": 64,
                        "time": 141.37310353750004,
                        "value": 0
                    },
                    {
                        "number": 64,
                        "time": 141.54172516250003,
                        "value": 1
                    },
                    {
                        "number": 64,
                        "time": 141.74846993750003,
                        "value": 0
                    },
                    {
                        "number": 64,
                        "time": 141.94421765000004,
                        "value": 1
                    },
                    {
                        "number": 64,
                        "time": 142.10257535000005,
                        "value": 0
                    },
                    {
                        "number": 64,
                        "time": 142.19641695000004,
                        "value": 1
                    },
                    {
                        "number": 64,
                        "time": 142.88409992500004,
                        "value": 0
                    },
                    {
                        "number": 64,
                        "time": 143.96621087500003,
                        "value": 1
                    },
                    {
                        "number": 64,
                        "time": 144.53512557500002,
                        "value": 0
                    },
                    {
                        "number": 64,
                        "time": 145.33717800000002,
                        "value": 1
                    },
                    {
                        "number": 64,
                        "time": 145.94274957500002,
                        "value": 0
                    },
                    {
                        "number": 64,
                        "time": 152.03365592500003,
                        "value": 1
                    },
                    {
                        "number": 64,
                        "time": 152.58277591250004,
                        "value": 0
                    },
                    {
                        "number": 64,
                        "time": 152.77925676250004,
                        "value": 1
                    },
                    {
                        "number": 64,
                        "time": 153.27045888750004,
                        "value": 0
                    },
                    {
                        "number": 64,
                        "time": 154.87456373750004,
                        "value": 1
                    },
                    {
                        "number": 64,
                        "time": 155.54391827500004,
                        "value": 0
                    },
                    {
                        "number": 64,
                        "time": 155.83350758750004,
                        "value": 1
                    },
                    {
                        "number": 64,
                        "time": 156.05564825000005,
                        "value": 0
                    },
                    {
                        "number": 64,
                        "time": 156.24626400000005,
                        "value": 1
                    },
                    {
                        "number": 64,
                        "time": 156.44127857500004,
                        "value": 0
                    },
                    {
                        "number": 64,
                        "time": 156.63409373750005,
                        "value": 1
                    },
                    {
                        "number": 64,
                        "time": 156.78512006250006,
                        "value": 0
                    },
                    {
                        "number": 64,
                        "time": 156.97940150000005,
                        "value": 1
                    },
                    {
                        "number": 64,
                        "time": 157.15535450000004,
                        "value": 0
                    },
                    {
                        "number": 64,
                        "time": 157.32544240000004,
                        "value": 1
                    },
                    {
                        "number": 64,
                        "time": 157.51972383750004,
                        "value": 0
                    },
                    {
                        "number": 64,
                        "time": 157.65388800000005,
                        "value": 1
                    },
                    {
                        "number": 64,
                        "time": 158.75359425000005,
                        "value": 0
                    },
                    {
                        "number": 64,
                        "time": 159.09010436250006,
                        "value": 1
                    },
                    {
                        "number": 64,
                        "time": 160.16928276250005,
                        "value": 0
                    },
                    {
                        "number": 64,
                        "time": 163.64948647500006,
                        "value": 1
                    },
                    {
                        "number": 64,
                        "time": 165.79611307500005,
                        "value": 0
                    },
                    {
                        "number": 64,
                        "time": 166.14142083750005,
                        "value": 1
                    },
                    {
                        "number": 64,
                        "time": 166.89142050000004,
                        "value": 0
                    },
                    {
                        "number": 64,
                        "time": 167.54904483750005,
                        "value": 1
                    },
                    {
                        "number": 64,
                        "time": 168.29904450000004,
                        "value": 0
                    },
                    {
                        "number": 64,
                        "time": 170.38995265000003,
                        "value": 1
                    },
                    {
                        "number": 64,
                        "time": 171.12455642500004,
                        "value": 0
                    },
                    {
                        "number": 64,
                        "time": 173.16927691250004,
                        "value": 1
                    },
                    {
                        "number": 64,
                        "time": 173.93980442500003,
                        "value": 0
                    },
                    {
                        "number": 64,
                        "time": 174.58716483750004,
                        "value": 1
                    },
                    {
                        "number": 64,
                        "time": 175.33716450000003,
                        "value": 0
                    },
                    {
                        "number": 64,
                        "time": 175.99478883750004,
                        "value": 1
                    },
                    {
                        "number": 64,
                        "time": 176.74478850000003,
                        "value": 0
                    },
                    {
                        "number": 64,
                        "time": 183.00138392500003,
                        "value": 1
                    },
                    {
                        "number": 64,
                        "time": 183.55050391250003,
                        "value": 0
                    },
                    {
                        "number": 64,
                        "time": 183.74698476250003,
                        "value": 1
                    },
                    {
                        "number": 64,
                        "time": 184.23818688750004,
                        "value": 0
                    },
                    {
                        "number": 64,
                        "time": 185.80636800000005,
                        "value": 1
                    },
                    {
                        "number": 64,
                        "time": 186.51018000000005,
                        "value": 0
                    },
                    {
                        "number": 64,
                        "time": 186.80123558750006,
                        "value": 1
                    },
                    {
                        "number": 64,
                        "time": 187.02337625000007,
                        "value": 0
                    },
                    {
                        "number": 64,
                        "time": 187.21399200000008,
                        "value": 1
                    },
                    {
                        "number": 64,
                        "time": 187.40900657500006,
                        "value": 0
                    },
                    {
                        "number": 64,
                        "time": 187.60182173750007,
                        "value": 1
                    },
                    {
                        "number": 64,
                        "time": 187.75284806250008,
                        "value": 0
                    },
                    {
                        "number": 64,
                        "time": 187.94712950000007,
                        "value": 1
                    },
                    {
                        "number": 64,
                        "time": 188.12308250000007,
                        "value": 0
                    },
                    {
                        "number": 64,
                        "time": 188.29317040000007,
                        "value": 1
                    },
                    {
                        "number": 64,
                        "time": 188.48745183750006,
                        "value": 0
                    },
                    {
                        "number": 64,
                        "time": 188.62161600000007,
                        "value": 1
                    },
                    {
                        "number": 64,
                        "time": 189.72132225000007,
                        "value": 0
                    },
                    {
                        "number": 64,
                        "time": 190.07836021250006,
                        "value": 1
                    },
                    {
                        "number": 64,
                        "time": 191.13701076250007,
                        "value": 0
                    },
                    {
                        "number": 64,
                        "time": 194.61721447500008,
                        "value": 1
                    },
                    {
                        "number": 64,
                        "time": 196.76384107500007,
                        "value": 0
                    },
                    {
                        "number": 64,
                        "time": 197.10914883750007,
                        "value": 1
                    },
                    {
                        "number": 64,
                        "time": 197.85914850000006,
                        "value": 0
                    },
                    {
                        "number": 64,
                        "time": 198.51677283750007,
                        "value": 1
                    },
                    {
                        "number": 64,
                        "time": 199.26677250000006,
                        "value": 0
                    },
                    {
                        "number": 64,
                        "time": 201.32175691250006,
                        "value": 1
                    },
                    {
                        "number": 64,
                        "time": 202.09228442500006,
                        "value": 0
                    },
                    {
                        "number": 64,
                        "time": 204.13700491250006,
                        "value": 1
                    },
                    {
                        "number": 64,
                        "time": 204.90753242500006,
                        "value": 0
                    },
                    {
                        "number": 64,
                        "time": 205.20958507500006,
                        "value": 0
                    },
                    {
                        "number": 64,
                        "time": 205.55489283750006,
                        "value": 1
                    },
                    {
                        "number": 64,
                        "time": 206.30489250000005,
                        "value": 0
                    },
                    {
                        "number": 64,
                        "time": 206.96251683750006,
                        "value": 1
                    },
                    {
                        "number": 64,
                        "time": 207.71764846250005,
                        "value": 0
                    },
                    {
                        "number": 64,
                        "time": 208.37014083750006,
                        "value": 1
                    },
                    {
                        "number": 64,
                        "time": 209.12527246250005,
                        "value": 0
                    },
                    {
                        "number": 64,
                        "time": 209.77776483750006,
                        "value": 1
                    },
                    {
                        "number": 64,
                        "time": 210.48157683750006,
                        "value": 0
                    },
                    {
                        "number": 64,
                        "time": 213.71617948750006,
                        "value": 1
                    },
                    {
                        "number": 64,
                        "time": 216.78509306250007,
                        "value": 0
                    },
                    {
                        "number": 64,
                        "time": 217.09667650000006,
                        "value": 1
                    },
                    {
                        "number": 64,
                        "time": 218.19564961250006,
                        "value": 0
                    },
                    {
                        "number": 64,
                        "time": 218.21984315000006,
                        "value": 1
                    },
                    {
                        "number": 64,
                        "time": 219.25210075000007,
                        "value": 0
                    },
                    {
                        "number": 64,
                        "time": 219.29242331250006,
                        "value": 1
                    },
                    {
                        "number": 64,
                        "time": 222.41925475000005,
                        "value": 0
                    },
                    {
                        "number": 64,
                        "time": 222.44638083750004,
                        "value": 1
                    },
                    {
                        "number": 64,
                        "time": 223.82541247500004,
                        "value": 0
                    },
                    {
                        "number": 64,
                        "time": 228.04388565000005,
                        "value": 0
                    },
                    {
                        "number": 64,
                        "time": 232.37966082500006,
                        "value": 0
                    },
                    {
                        "number": 64,
                        "time": 235.07320800000005,
                        "value": 0
                    },
                    {
                        "number": 64,
                        "time": 235.11939566250004,
                        "value": 1
                    },
                    {
                        "number": 64,
                        "time": 237.89652051250005,
                        "value": 0
                    },
                    {
                        "number": 64,
                        "time": 237.93464366250004,
                        "value": 1
                    },
                    {
                        "number": 64,
                        "time": 240.70883596250005,
                        "value": 0
                    },
                    {
                        "number": 64,
                        "time": 240.75429048750004,
                        "value": 1
                    },
                    {
                        "number": 64,
                        "time": 243.52335082500005,
                        "value": 0
                    },
                    {
                        "number": 64,
                        "time": 243.57760300000004,
                        "value": 1
                    },
                    {
                        "number": 64,
                        "time": 246.18390681250003,
                        "value": 0
                    },
                    {
                        "number": 64,
                        "time": 246.68610600000002,
                        "value": 1
                    },
                    {
                        "number": 64,
                        "time": 246.87892116250003,
                        "value": 0
                    },
                    {
                        "number": 64,
                        "time": 247.36939015000004,
                        "value": 1
                    },
                    {
                        "number": 64,
                        "time": 247.58713198750004,
                        "value": 0
                    },
                    {
                        "number": 64,
                        "time": 248.09373000000005,
                        "value": 1
                    },
                    {
                        "number": 64,
                        "time": 248.32833400000004,
                        "value": 0
                    },
                    {
                        "number": 64,
                        "time": 248.88991732500003,
                        "value": 1
                    },
                    {
                        "number": 64,
                        "time": 249.05780581250002,
                        "value": 0
                    },
                    {
                        "number": 64,
                        "time": 249.50135400000002,
                        "value": 1
                    },
                    {
                        "number": 64,
                        "time": 249.86572333750001,
                        "value": 0
                    },
                    {
                        "number": 64,
                        "time": 249.9624974875,
                        "value": 1
                    },
                    {
                        "number": 64,
                        "time": 250.21396365,
                        "value": 0
                    },
                    {
                        "number": 64,
                        "time": 250.32246800000001,
                        "value": 1
                    },
                    {
                        "number": 64,
                        "time": 250.90897800000002,
                        "value": 0
                    },
                    {
                        "number": 64,
                        "time": 250.99328881250003,
                        "value": 1
                    },
                    {
                        "number": 64,
                        "time": 251.27114792500004,
                        "value": 0
                    },
                    {
                        "number": 64,
                        "time": 251.38625051250003,
                        "value": 1
                    },
                    {
                        "number": 64,
                        "time": 251.62671961250004,
                        "value": 0
                    },
                    {
                        "number": 64,
                        "time": 251.74695416250003,
                        "value": 1
                    },
                    {
                        "number": 64,
                        "time": 252.14944665000004,
                        "value": 0
                    },
                    {
                        "number": 64,
                        "time": 252.35032632500005,
                        "value": 1
                    },
                    {
                        "number": 64,
                        "time": 252.52627932500005,
                        "value": 0
                    },
                    {
                        "number": 64,
                        "time": 253.05927028750006,
                        "value": 1
                    },
                    {
                        "number": 64,
                        "time": 253.23815583750005,
                        "value": 0
                    },
                    {
                        "number": 64,
                        "time": 253.75795032500005,
                        "value": 1
                    },
                    {
                        "number": 64,
                        "time": 253.96249568750005,
                        "value": 0
                    },
                    {
                        "number": 64,
                        "time": 254.46689428750005,
                        "value": 1
                    },
                    {
                        "number": 64,
                        "time": 254.64577983750004,
                        "value": 0
                    },
                    {
                        "number": 64,
                        "time": 255.16850687500005,
                        "value": 1
                    },
                    {
                        "number": 64,
                        "time": 255.34959183750004,
                        "value": 0
                    },
                    {
                        "number": 64,
                        "time": 255.87965025000005,
                        "value": 1
                    },
                    {
                        "number": 64,
                        "time": 256.0636677625001,
                        "value": 0
                    },
                    {
                        "number": 64,
                        "time": 256.64871148750007,
                        "value": 1
                    },
                    {
                        "number": 64,
                        "time": 257.4866876500001,
                        "value": 0
                    },
                    {
                        "number": 64,
                        "time": 260.7828738500001,
                        "value": 1
                    },
                    {
                        "number": 64,
                        "time": 261.4844864375001,
                        "value": 0
                    },
                    {
                        "number": 64,
                        "time": 261.5336066500001,
                        "value": 1
                    },
                    {
                        "number": 64,
                        "time": 262.1846327500001,
                        "value": 0
                    },
                    {
                        "number": 64,
                        "time": 262.2271547250001,
                        "value": 1
                    },
                    {
                        "number": 64,
                        "time": 262.88844475000013,
                        "value": 0
                    },
                    {
                        "number": 64,
                        "time": 262.9441632000001,
                        "value": 1
                    },
                    {
                        "number": 64,
                        "time": 263.4016410000001,
                        "value": 0
                    },
                    {
                        "number": 64,
                        "time": 263.6142508750001,
                        "value": 1
                    },
                    {
                        "number": 64,
                        "time": 263.7718754375001,
                        "value": 0
                    },
                    {
                        "number": 64,
                        "time": 264.3253942500001,
                        "value": 1
                    },
                    {
                        "number": 64,
                        "time": 264.4778868500001,
                        "value": 0
                    },
                    {
                        "number": 64,
                        "time": 265.0189423250001,
                        "value": 1
                    },
                    {
                        "number": 64,
                        "time": 265.2205551375001,
                        "value": 0
                    },
                    {
                        "number": 64,
                        "time": 265.6941619625001,
                        "value": 1
                    },
                    {
                        "number": 64,
                        "time": 265.9170357625001,
                        "value": 0
                    },
                    {
                        "number": 64,
                        "time": 266.4214343625001,
                        "value": 1
                    },
                    {
                        "number": 64,
                        "time": 266.5973873625001,
                        "value": 0
                    },
                    {
                        "number": 64,
                        "time": 267.1333108750001,
                        "value": 1
                    },
                    {
                        "number": 64,
                        "time": 267.2828709250001,
                        "value": 0
                    },
                    {
                        "number": 64,
                        "time": 267.8004660000001,
                        "value": 1
                    },
                    {
                        "number": 64,
                        "time": 268.7139553250001,
                        "value": 0
                    },
                    {
                        "number": 64,
                        "time": 270.6743650000001,
                        "value": 1
                    },
                    {
                        "number": 64,
                        "time": 271.6465053250001,
                        "value": 0
                    },
                    {
                        "number": 64,
                        "time": 271.7300830000001,
                        "value": 1
                    },
                    {
                        "number": 64,
                        "time": 272.0233380000001,
                        "value": 0
                    },
                    {
                        "number": 64,
                        "time": 272.4089683250001,
                        "value": 1
                    },
                    {
                        "number": 64,
                        "time": 272.7315488250001,
                        "value": 0
                    },
                    {
                        "number": 64,
                        "time": 273.1047158125001,
                        "value": 1
                    },
                    {
                        "number": 64,
                        "time": 273.4309620000001,
                        "value": 0
                    },
                    {
                        "number": 64,
                        "time": 276.2777349125001,
                        "value": 1
                    },
                    {
                        "number": 64,
                        "time": 276.9551539625001,
                        "value": 0
                    },
                    {
                        "number": 64,
                        "time": 276.9888782875001,
                        "value": 1
                    },
                    {
                        "number": 64,
                        "time": 277.3488488000001,
                        "value": 0
                    },
                    {
                        "number": 64,
                        "time": 277.6853589125001,
                        "value": 1
                    },
                    {
                        "number": 64,
                        "time": 278.3627779625001,
                        "value": 0
                    },
                    {
                        "number": 64,
                        "time": 278.3965022875001,
                        "value": 1
                    },
                    {
                        "number": 64,
                        "time": 278.7564728000001,
                        "value": 0
                    },
                    {
                        "number": 64,
                        "time": 279.0929829125001,
                        "value": 1
                    },
                    {
                        "number": 64,
                        "time": 279.7704019625001,
                        "value": 0
                    },
                    {
                        "number": 64,
                        "time": 279.8041262875001,
                        "value": 1
                    },
                    {
                        "number": 64,
                        "time": 280.1640968000001,
                        "value": 0
                    },
                    {
                        "number": 64,
                        "time": 280.5006069125001,
                        "value": 1
                    },
                    {
                        "number": 64,
                        "time": 281.1780259625001,
                        "value": 0
                    },
                    {
                        "number": 64,
                        "time": 281.2117502875001,
                        "value": 1
                    },
                    {
                        "number": 64,
                        "time": 281.5717208000001,
                        "value": 0
                    },
                    {
                        "number": 64,
                        "time": 281.9082309125001,
                        "value": 1
                    },
                    {
                        "number": 64,
                        "time": 282.5856499625001,
                        "value": 0
                    },
                    {
                        "number": 64,
                        "time": 282.6193742875001,
                        "value": 1
                    },
                    {
                        "number": 64,
                        "time": 282.9793448000001,
                        "value": 0
                    },
                    {
                        "number": 64,
                        "time": 283.3224531500001,
                        "value": 1
                    },
                    {
                        "number": 64,
                        "time": 283.9881420000001,
                        "value": 0
                    },
                    {
                        "number": 64,
                        "time": 284.7718659875001,
                        "value": 1
                    },
                    {
                        "number": 64,
                        "time": 285.3957660000001,
                        "value": 0
                    },
                    {
                        "number": 64,
                        "time": 286.0995780000001,
                        "value": 1
                    },
                    {
                        "number": 64,
                        "time": 286.2242113750001,
                        "value": 0
                    },
                    {
                        "number": 64,
                        "time": 286.4771438125001,
                        "value": 1
                    },
                    {
                        "number": 64,
                        "time": 286.5849150250001,
                        "value": 0
                    },
                    {
                        "number": 64,
                        "time": 286.8121876500001,
                        "value": 1
                    },
                    {
                        "number": 64,
                        "time": 286.9280233750001,
                        "value": 0
                    },
                    {
                        "number": 64,
                        "time": 287.2102813125001,
                        "value": 1
                    },
                    {
                        "number": 64,
                        "time": 287.2799293750001,
                        "value": 0
                    },
                    {
                        "number": 64,
                        "time": 287.5196653375001,
                        "value": 1
                    },
                    {
                        "number": 64,
                        "time": 288.0563219875001,
                        "value": 0
                    },
                    {
                        "number": 64,
                        "time": 300.9258176625001,
                        "value": 1
                    },
                    {
                        "number": 64,
                        "time": 301.6296296625001,
                        "value": 0
                    },
                    {
                        "number": 64,
                        "time": 302.33344166250015,
                        "value": 1
                    },
                    {
                        "number": 64,
                        "time": 302.99106600000016,
                        "value": 0
                    },
                    {
                        "number": 64,
                        "time": 303.02918915000015,
                        "value": 1
                    },
                    {
                        "number": 64,
                        "time": 303.3554353375001,
                        "value": 0
                    },
                    {
                        "number": 64,
                        "time": 303.71613898750013,
                        "value": 1
                    },
                    {
                        "number": 64,
                        "time": 304.06071361250014,
                        "value": 0
                    },
                    {
                        "number": 64,
                        "time": 304.43681315000015,
                        "value": 1
                    },
                    {
                        "number": 64,
                        "time": 304.7630593375001,
                        "value": 0
                    },
                    {
                        "number": 64,
                        "time": 305.14429083750014,
                        "value": 1
                    },
                    {
                        "number": 64,
                        "time": 305.4690707500001,
                        "value": 0
                    },
                    {
                        "number": 64,
                        "time": 310.0379836500001,
                        "value": 0
                    },
                    {
                        "number": 64,
                        "time": 310.0966346500001,
                        "value": 1
                    },
                    {
                        "number": 64,
                        "time": 310.3884233750001,
                        "value": 0
                    },
                    {
                        "number": 64,
                        "time": 310.5152561625001,
                        "value": 1
                    },
                    {
                        "number": 64,
                        "time": 310.74252878750013,
                        "value": 0
                    },
                    {
                        "number": 64,
                        "time": 310.8085111625001,
                        "value": 1
                    },
                    {
                        "number": 64,
                        "time": 311.0893028250001,
                        "value": 0
                    },
                    {
                        "number": 64,
                        "time": 311.1692148125001,
                        "value": 1
                    },
                    {
                        "number": 64,
                        "time": 311.4368100000001,
                        "value": 0
                    },
                    {
                        "number": 64,
                        "time": 311.5585108250001,
                        "value": 1
                    },
                    {
                        "number": 64,
                        "time": 312.4074840500001,
                        "value": 0
                    },
                    {
                        "number": 64,
                        "time": 312.5108564375001,
                        "value": 1
                    },
                    {
                        "number": 64,
                        "time": 312.84663341250007,
                        "value": 0
                    },
                    {
                        "number": 64,
                        "time": 312.91114951250006,
                        "value": 1
                    },
                    {
                        "number": 64,
                        "time": 313.2007388250001,
                        "value": 0
                    },
                    {
                        "number": 64,
                        "time": 313.28724905000007,
                        "value": 1
                    },
                    {
                        "number": 64,
                        "time": 313.5629087500001,
                        "value": 0
                    },
                    {
                        "number": 64,
                        "time": 313.6633485875001,
                        "value": 1
                    },
                    {
                        "number": 64,
                        "time": 314.2520580000001,
                        "value": 0
                    },
                    {
                        "number": 64,
                        "time": 314.3737588250001,
                        "value": 1
                    },
                    {
                        "number": 64,
                        "time": 315.2227320500001,
                        "value": 0
                    },
                    {
                        "number": 64,
                        "time": 315.3664270000001,
                        "value": 1
                    },
                    {
                        "number": 64,
                        "time": 315.6618814125001,
                        "value": 0
                    },
                    {
                        "number": 64,
                        "time": 315.7263975125001,
                        "value": 1
                    },
                    {
                        "number": 64,
                        "time": 316.01598682500014,
                        "value": 0
                    },
                    {
                        "number": 64,
                        "time": 316.1024970500001,
                        "value": 1
                    },
                    {
                        "number": 64,
                        "time": 316.37669047500015,
                        "value": 0
                    },
                    {
                        "number": 64,
                        "time": 316.47859658750014,
                        "value": 1
                    },
                    {
                        "number": 64,
                        "time": 317.06730600000014,
                        "value": 0
                    },
                    {
                        "number": 64,
                        "time": 317.18900682500015,
                        "value": 1
                    },
                    {
                        "number": 64,
                        "time": 318.03798005000016,
                        "value": 0
                    },
                    {
                        "number": 64,
                        "time": 318.14135243750013,
                        "value": 1
                    },
                    {
                        "number": 64,
                        "time": 318.4771294125001,
                        "value": 0
                    },
                    {
                        "number": 64,
                        "time": 318.5416455125001,
                        "value": 1
                    },
                    {
                        "number": 64,
                        "time": 318.83123482500014,
                        "value": 0
                    },
                    {
                        "number": 64,
                        "time": 318.9177450500001,
                        "value": 1
                    },
                    {
                        "number": 64,
                        "time": 319.20293553750014,
                        "value": 0
                    },
                    {
                        "number": 64,
                        "time": 319.29384458750013,
                        "value": 1
                    },
                    {
                        "number": 64,
                        "time": 319.88255400000014,
                        "value": 0
                    },
                    {
                        "number": 64,
                        "time": 319.9859263875001,
                        "value": 1
                    },
                    {
                        "number": 64,
                        "time": 320.5988293375001,
                        "value": 0
                    },
                    {
                        "number": 64,
                        "time": 320.7315272250001,
                        "value": 1
                    },
                    {
                        "number": 64,
                        "time": 321.2901780000001,
                        "value": 0
                    },
                    {
                        "number": 64,
                        "time": 321.39355038750006,
                        "value": 1
                    },
                    {
                        "number": 64,
                        "time": 322.00645333750003,
                        "value": 0
                    },
                    {
                        "number": 64,
                        "time": 322.13915122500003,
                        "value": 1
                    },
                    {
                        "number": 64,
                        "time": 322.697802,
                        "value": 0
                    },
                    {
                        "number": 64,
                        "time": 322.8011743875,
                        "value": 1
                    },
                    {
                        "number": 64,
                        "time": 323.401614,
                        "value": 0
                    },
                    {
                        "number": 64,
                        "time": 323.50498638749997,
                        "value": 1
                    },
                    {
                        "number": 64,
                        "time": 324.10542599999997,
                        "value": 0
                    },
                    {
                        "number": 64,
                        "time": 324.20879838749994,
                        "value": 1
                    },
                    {
                        "number": 64,
                        "time": 324.80923799999994,
                        "value": 0
                    },
                    {
                        "number": 64,
                        "time": 324.9126103874999,
                        "value": 1
                    },
                    {
                        "number": 64,
                        "time": 325.5130499999999,
                        "value": 0
                    },
                    {
                        "number": 64,
                        "time": 325.6164223874999,
                        "value": 1
                    },
                    {
                        "number": 64,
                        "time": 326.22932533749986,
                        "value": 0
                    },
                    {
                        "number": 64,
                        "time": 326.36202322499986,
                        "value": 1
                    },
                    {
                        "number": 64,
                        "time": 326.92067399999985,
                        "value": 0
                    },
                    {
                        "number": 64,
                        "time": 327.0240463874998,
                        "value": 1
                    },
                    {
                        "number": 64,
                        "time": 327.6369493374998,
                        "value": 0
                    },
                    {
                        "number": 64,
                        "time": 327.7696472249998,
                        "value": 1
                    },
                    {
                        "number": 64,
                        "time": 328.3282979999998,
                        "value": 0
                    },
                    {
                        "number": 64,
                        "time": 328.43167038749976,
                        "value": 1
                    },
                    {
                        "number": 64,
                        "time": 329.03650882499977,
                        "value": 0
                    },
                    {
                        "number": 64,
                        "time": 329.1354823874998,
                        "value": 1
                    },
                    {
                        "number": 64,
                        "time": 329.7417870999998,
                        "value": 0
                    },
                    {
                        "number": 64,
                        "time": 329.83929438749976,
                        "value": 1
                    },
                    {
                        "number": 64,
                        "time": 330.44559909999975,
                        "value": 0
                    },
                    {
                        "number": 64,
                        "time": 330.54310638749973,
                        "value": 1
                    },
                    {
                        "number": 64,
                        "time": 331.15234364999975,
                        "value": 0
                    },
                    {
                        "number": 64,
                        "time": 331.24398583749974,
                        "value": 1
                    },
                    {
                        "number": 64,
                        "time": 331.8620207499997,
                        "value": 0
                    },
                    {
                        "number": 64,
                        "time": 331.99838432499973,
                        "value": 1
                    },
                    {
                        "number": 64,
                        "time": 332.55630196249973,
                        "value": 0
                    },
                    {
                        "number": 64,
                        "time": 332.65160983749973,
                        "value": 1
                    },
                    {
                        "number": 64,
                        "time": 333.2696447499997,
                        "value": 0
                    },
                    {
                        "number": 64,
                        "time": 333.40600832499973,
                        "value": 1
                    },
                    {
                        "number": 64,
                        "time": 333.7579143249997,
                        "value": 0
                    },
                    {
                        "number": 64,
                        "time": 333.9587939999997,
                        "value": 0
                    },
                    {
                        "number": 64,
                        "time": 334.05923383749973,
                        "value": 1
                    },
                    {
                        "number": 64,
                        "time": 334.6772687499997,
                        "value": 0
                    },
                    {
                        "number": 64,
                        "time": 334.81363232499973,
                        "value": 1
                    },
                    {
                        "number": 64,
                        "time": 335.37008368749974,
                        "value": 0
                    },
                    {
                        "number": 64,
                        "time": 335.46685783749973,
                        "value": 1
                    },
                    {
                        "number": 64,
                        "time": 336.0848927499997,
                        "value": 0
                    },
                    {
                        "number": 64,
                        "time": 336.22125632499973,
                        "value": 1
                    },
                    {
                        "number": 64,
                        "time": 336.5731623249997,
                        "value": 0
                    },
                    {
                        "number": 64,
                        "time": 336.7740419999997,
                        "value": 1
                    },
                    {
                        "number": 64,
                        "time": 339.59882078749973,
                        "value": 0
                    },
                    {
                        "number": 64,
                        "time": 339.7234541624997,
                        "value": 1
                    },
                    {
                        "number": 64,
                        "time": 342.41920074999973,
                        "value": 0
                    },
                    {
                        "number": 64,
                        "time": 342.5636288374997,
                        "value": 1
                    },
                    {
                        "number": 64,
                        "time": 345.2197859999997,
                        "value": 0
                    },
                    {
                        "number": 64,
                        "time": 345.3172932874997,
                        "value": 1
                    },
                    {
                        "number": 64,
                        "time": 345.9345950624997,
                        "value": 0
                    },
                    {
                        "number": 64,
                        "time": 346.0826888374997,
                        "value": 1
                    },
                    {
                        "number": 64,
                        "time": 346.63694078749967,
                        "value": 0
                    },
                    {
                        "number": 64,
                        "time": 346.7307823874997,
                        "value": 1
                    },
                    {
                        "number": 64,
                        "time": 347.3451516124997,
                        "value": 0
                    },
                    {
                        "number": 64,
                        "time": 347.4345943874997,
                        "value": 1
                    },
                    {
                        "number": 64,
                        "time": 348.0408990999997,
                        "value": 0
                    },
                    {
                        "number": 64,
                        "time": 348.1178785374997,
                        "value": 1
                    },
                    {
                        "number": 64,
                        "time": 351.3884049249997,
                        "value": 0
                    }
                ]
            },
            "id": 3,
            "name": "Pedal",
            "instrumentNumber": 0,
            "instrument": "acoustic grand piano",
            "instrumentFamily": "piano",
            "channelNumber": 0,
            "isPercussion": false
        },
        {
            "startTime": 0,
            "duration": 0,
            "length": 0,
            "notes": [],
            "controlChanges": {},
            "id": 4,
            "name": "Liszt: Rhapsodie No. 15"
        },
        {
            "startTime": 0,
            "duration": 0,
            "length": 0,
            "notes": [],
            "controlChanges": {},
            "id": 5,
            "name": "Copyright  2004 by Bernd Krger"
        },
        {
            "startTime": 0,
            "duration": 0,
            "length": 0,
            "notes": [],
            "controlChanges": {},
            "id": 6,
            "name": "http://www.piano-midi.de"
        },
        {
            "startTime": 0,
            "duration": 0,
            "length": 0,
            "notes": [],
            "controlChanges": {},
            "id": 7,
            "name": "Edition: 2014-03-10"
        },
        {
            "startTime": 0,
            "duration": 0,
            "length": 0,
            "notes": [],
            "controlChanges": {},
            "id": 8,
            "name": "Spur 8"
        },
        {
            "startTime": 0,
            "duration": 0,
            "length": 0,
            "notes": [],
            "controlChanges": {},
            "id": 9,
            "name": "Spur 9"
        }
    ]
}