{
    "header": {
        "PPQ": 480,
        "timeSignature": [
            2,
            4
        ],
        "bpm": 170.50007672503452,
        "name": "Rhapsodie Nr. 9 - Pesther Karneval"
    },
    "startTime": 0,
    "duration": 428.8854375000209,
    "tracks": [
        {
            "startTime": 0,
            "duration": 0,
            "length": 0,
            "notes": [],
            "controlChanges": {},
            "id": 0,
            "name": "Rhapsodie Nr. 9 - Pesther Karneval"
        },
        {
            "startTime": 1.3196475,
            "duration": 428.8854375000209,
            "length": 5200,
            "notes": [
                {
                    "name": "A#2",
                    "midi": 46,
                    "time": 1.3196475,
                    "velocity": 0.6062992125984252,
                    "duration": 0.0879764999999999
                },
                {
                    "name": "D#3",
                    "midi": 51,
                    "time": 1.407624,
                    "velocity": 0.7007874015748031,
                    "duration": 0.6158355
                },
                {
                    "name": "G3",
                    "midi": 55,
                    "time": 2.0234595,
                    "velocity": 0.6062992125984252,
                    "duration": 0.0879764999999999
                },
                {
                    "name": "G#3",
                    "midi": 56,
                    "time": 2.111436,
                    "velocity": 0.6535433070866141,
                    "duration": 0.0879764999999999
                },
                {
                    "name": "A3",
                    "midi": 57,
                    "time": 2.463342,
                    "velocity": 0.6377952755905512,
                    "duration": 0.0879764999999999
                },
                {
                    "name": "A#3",
                    "midi": 58,
                    "time": 2.815248,
                    "velocity": 0.7007874015748031,
                    "duration": 0.7038120000000001
                },
                {
                    "name": "D#6",
                    "midi": 87,
                    "time": 3.51906,
                    "velocity": 0.6614173228346457,
                    "duration": 0.0879764999999999
                },
                {
                    "name": "A#5",
                    "midi": 82,
                    "time": 3.51906,
                    "velocity": 0.5511811023622047,
                    "duration": 0.0879764999999999
                },
                {
                    "name": "G5",
                    "midi": 79,
                    "time": 3.51906,
                    "velocity": 0.5511811023622047,
                    "duration": 0.0879764999999999
                },
                {
                    "name": "D#5",
                    "midi": 75,
                    "time": 3.51906,
                    "velocity": 0.5511811023622047,
                    "duration": 0.0879764999999999
                },
                {
                    "name": "A#2",
                    "midi": 46,
                    "time": 4.1348955,
                    "velocity": 0.6062992125984252,
                    "duration": 0.0879764999999999
                },
                {
                    "name": "D#3",
                    "midi": 51,
                    "time": 4.222872,
                    "velocity": 0.7007874015748031,
                    "duration": 0.6158355000000002
                },
                {
                    "name": "G3",
                    "midi": 55,
                    "time": 4.8387075,
                    "velocity": 0.6062992125984252,
                    "duration": 0.0879764999999999
                },
                {
                    "name": "A#3",
                    "midi": 58,
                    "time": 4.926684,
                    "velocity": 0.6535433070866141,
                    "duration": 0.0879764999999999
                },
                {
                    "name": "C4",
                    "midi": 60,
                    "time": 5.2785899999999994,
                    "velocity": 0.6377952755905512,
                    "duration": 0.0879764999999999
                },
                {
                    "name": "C#4",
                    "midi": 61,
                    "time": 5.630495999999999,
                    "velocity": 0.7007874015748031,
                    "duration": 0.7038120000000001
                },
                {
                    "name": "G6",
                    "midi": 91,
                    "time": 6.334307999999999,
                    "velocity": 0.6692913385826772,
                    "duration": 0.0879764999999999
                },
                {
                    "name": "D#6",
                    "midi": 87,
                    "time": 6.334307999999999,
                    "velocity": 0.5511811023622047,
                    "duration": 0.0879764999999999
                },
                {
                    "name": "A#5",
                    "midi": 82,
                    "time": 6.334307999999999,
                    "velocity": 0.5511811023622047,
                    "duration": 0.0879764999999999
                },
                {
                    "name": "G5",
                    "midi": 79,
                    "time": 6.334307999999999,
                    "velocity": 0.5511811023622047,
                    "duration": 0.0879764999999999
                },
                {
                    "name": "C3",
                    "midi": 48,
                    "time": 6.950143499999999,
                    "velocity": 0.6062992125984252,
                    "duration": 0.0879764999999999
                },
                {
                    "name": "D#3",
                    "midi": 51,
                    "time": 7.038119999999999,
                    "velocity": 0.7007874015748031,
                    "duration": 0.6158355000000002
                },
                {
                    "name": "G#3",
                    "midi": 56,
                    "time": 7.6539554999999995,
                    "velocity": 0.5039370078740157,
                    "duration": 0.0879764999999999
                },
                {
                    "name": "C4",
                    "midi": 60,
                    "time": 7.741931999999999,
                    "velocity": 0.5669291338582677,
                    "duration": 0.23460400000000003
                },
                {
                    "name": "C#4",
                    "midi": 61,
                    "time": 7.976535999999999,
                    "velocity": 0.5905511811023622,
                    "duration": 0.23460399999999915
                },
                {
                    "name": "D4",
                    "midi": 62,
                    "time": 8.211139999999999,
                    "velocity": 0.6220472440944882,
                    "duration": 0.23460399999999915
                },
                {
                    "name": "D#4",
                    "midi": 63,
                    "time": 8.445743999999998,
                    "velocity": 0.7007874015748031,
                    "duration": 0.7038119999999992
                },
                {
                    "name": "G#6",
                    "midi": 92,
                    "time": 9.149555999999997,
                    "velocity": 0.6614173228346457,
                    "duration": 0.0879764999999999
                },
                {
                    "name": "D#6",
                    "midi": 87,
                    "time": 9.149555999999997,
                    "velocity": 0.5511811023622047,
                    "duration": 0.0879764999999999
                },
                {
                    "name": "C6",
                    "midi": 84,
                    "time": 9.149555999999997,
                    "velocity": 0.5511811023622047,
                    "duration": 0.0879764999999999
                },
                {
                    "name": "G#5",
                    "midi": 80,
                    "time": 9.149555999999997,
                    "velocity": 0.5511811023622047,
                    "duration": 0.0879764999999999
                },
                {
                    "name": "C3",
                    "midi": 48,
                    "time": 9.765391499999996,
                    "velocity": 0.6062992125984252,
                    "duration": 0.0879764999999999
                },
                {
                    "name": "D#3",
                    "midi": 51,
                    "time": 9.853367999999996,
                    "velocity": 0.7007874015748031,
                    "duration": 0.6158354999999993
                },
                {
                    "name": "G#3",
                    "midi": 56,
                    "time": 10.469203499999995,
                    "velocity": 0.5511811023622047,
                    "duration": 0.0879764999999999
                },
                {
                    "name": "C4",
                    "midi": 60,
                    "time": 10.557179999999995,
                    "velocity": 0.5354330708661418,
                    "duration": 0.1759529999999998
                },
                {
                    "name": "D#4",
                    "midi": 63,
                    "time": 10.733132999999995,
                    "velocity": 0.5511811023622047,
                    "duration": 0.1759529999999998
                },
                {
                    "name": "E4",
                    "midi": 64,
                    "time": 10.909085999999995,
                    "velocity": 0.5826771653543307,
                    "duration": 0.1759529999999998
                },
                {
                    "name": "F4",
                    "midi": 65,
                    "time": 11.085038999999995,
                    "velocity": 0.6220472440944882,
                    "duration": 0.1759529999999998
                },
                {
                    "name": "F#4",
                    "midi": 66,
                    "time": 11.260991999999995,
                    "velocity": 0.7007874015748031,
                    "duration": 0.7038119999999992
                },
                {
                    "name": "A6",
                    "midi": 93,
                    "time": 11.964803999999994,
                    "velocity": 0.6614173228346457,
                    "duration": 0.0879764999999999
                },
                {
                    "name": "F#6",
                    "midi": 90,
                    "time": 11.964803999999994,
                    "velocity": 0.5511811023622047,
                    "duration": 0.0879764999999999
                },
                {
                    "name": "C6",
                    "midi": 84,
                    "time": 11.964803999999994,
                    "velocity": 0.5511811023622047,
                    "duration": 0.0879764999999999
                },
                {
                    "name": "A5",
                    "midi": 81,
                    "time": 11.964803999999994,
                    "velocity": 0.5511811023622047,
                    "duration": 0.0879764999999999
                },
                {
                    "name": "D#4",
                    "midi": 63,
                    "time": 12.785917999999993,
                    "velocity": 0.28346456692913385,
                    "duration": 0.03519059999999996
                },
                {
                    "name": "G#4",
                    "midi": 68,
                    "time": 12.785917999999993,
                    "velocity": 0.28346456692913385,
                    "duration": 0.03519059999999996
                },
                {
                    "name": "F4",
                    "midi": 65,
                    "time": 12.903219999999994,
                    "velocity": 0.28346456692913385,
                    "duration": 0.03519059999999996
                },
                {
                    "name": "B4",
                    "midi": 71,
                    "time": 12.903219999999994,
                    "velocity": 0.28346456692913385,
                    "duration": 0.03519059999999996
                },
                {
                    "name": "F#4",
                    "midi": 66,
                    "time": 13.020521999999994,
                    "velocity": 0.31496062992125984,
                    "duration": 0.03519059999999996
                },
                {
                    "name": "C5",
                    "midi": 72,
                    "time": 13.020521999999994,
                    "velocity": 0.31496062992125984,
                    "duration": 0.03519059999999996
                },
                {
                    "name": "G#4",
                    "midi": 68,
                    "time": 13.137823999999995,
                    "velocity": 0.29133858267716534,
                    "duration": 0.03519059999999996
                },
                {
                    "name": "D5",
                    "midi": 74,
                    "time": 13.137823999999995,
                    "velocity": 0.29133858267716534,
                    "duration": 0.03519059999999996
                },
                {
                    "name": "A4",
                    "midi": 69,
                    "time": 13.255125999999995,
                    "velocity": 0.29133858267716534,
                    "duration": 0.03519059999999996
                },
                {
                    "name": "D#5",
                    "midi": 75,
                    "time": 13.255125999999995,
                    "velocity": 0.29133858267716534,
                    "duration": 0.03519059999999996
                },
                {
                    "name": "B4",
                    "midi": 71,
                    "time": 13.372427999999996,
                    "velocity": 0.3228346456692913,
                    "duration": 0.03519059999999996
                },
                {
                    "name": "F5",
                    "midi": 77,
                    "time": 13.372427999999996,
                    "velocity": 0.3228346456692913,
                    "duration": 0.03519059999999996
                },
                {
                    "name": "C5",
                    "midi": 72,
                    "time": 13.489729999999996,
                    "velocity": 0.29133858267716534,
                    "duration": 0.03519059999999996
                },
                {
                    "name": "F#5",
                    "midi": 78,
                    "time": 13.489729999999996,
                    "velocity": 0.29133858267716534,
                    "duration": 0.03519059999999996
                },
                {
                    "name": "D5",
                    "midi": 74,
                    "time": 13.607031999999997,
                    "velocity": 0.2992125984251969,
                    "duration": 0.03519059999999996
                },
                {
                    "name": "G#5",
                    "midi": 80,
                    "time": 13.607031999999997,
                    "velocity": 0.2992125984251969,
                    "duration": 0.03519059999999996
                },
                {
                    "name": "D#5",
                    "midi": 75,
                    "time": 13.724333999999997,
                    "velocity": 0.33070866141732286,
                    "duration": 0.03519059999999996
                },
                {
                    "name": "A5",
                    "midi": 81,
                    "time": 13.724333999999997,
                    "velocity": 0.33070866141732286,
                    "duration": 0.03519059999999996
                },
                {
                    "name": "F5",
                    "midi": 77,
                    "time": 13.841635999999998,
                    "velocity": 0.31496062992125984,
                    "duration": 0.03519059999999996
                },
                {
                    "name": "B5",
                    "midi": 83,
                    "time": 13.841635999999998,
                    "velocity": 0.31496062992125984,
                    "duration": 0.03519059999999996
                },
                {
                    "name": "F#5",
                    "midi": 78,
                    "time": 13.958937999999998,
                    "velocity": 0.31496062992125984,
                    "duration": 0.03519059999999996
                },
                {
                    "name": "C6",
                    "midi": 84,
                    "time": 13.958937999999998,
                    "velocity": 0.31496062992125984,
                    "duration": 0.03519059999999996
                },
                {
                    "name": "G#5",
                    "midi": 80,
                    "time": 14.076239999999999,
                    "velocity": 0.33070866141732286,
                    "duration": 0.03519059999999996
                },
                {
                    "name": "D6",
                    "midi": 86,
                    "time": 14.076239999999999,
                    "velocity": 0.33070866141732286,
                    "duration": 0.03519059999999996
                },
                {
                    "name": "A5",
                    "midi": 81,
                    "time": 14.193541999999999,
                    "velocity": 0.3464566929133858,
                    "duration": 0.03519059999999996
                },
                {
                    "name": "D#6",
                    "midi": 87,
                    "time": 14.193541999999999,
                    "velocity": 0.3464566929133858,
                    "duration": 0.03519059999999996
                },
                {
                    "name": "B5",
                    "midi": 83,
                    "time": 14.310844,
                    "velocity": 0.3543307086614173,
                    "duration": 0.03519059999999996
                },
                {
                    "name": "F6",
                    "midi": 89,
                    "time": 14.310844,
                    "velocity": 0.3543307086614173,
                    "duration": 0.03519059999999996
                },
                {
                    "name": "C6",
                    "midi": 84,
                    "time": 14.428146,
                    "velocity": 0.36220472440944884,
                    "duration": 0.03519059999999996
                },
                {
                    "name": "F#6",
                    "midi": 90,
                    "time": 14.428146,
                    "velocity": 0.36220472440944884,
                    "duration": 0.03519059999999996
                },
                {
                    "name": "D6",
                    "midi": 86,
                    "time": 14.545448,
                    "velocity": 0.3700787401574803,
                    "duration": 0.03519059999999996
                },
                {
                    "name": "G#6",
                    "midi": 92,
                    "time": 14.545448,
                    "velocity": 0.3700787401574803,
                    "duration": 0.03519059999999996
                },
                {
                    "name": "D#6",
                    "midi": 87,
                    "time": 14.66275,
                    "velocity": 0.3779527559055118,
                    "duration": 0.03519059999999996
                },
                {
                    "name": "A6",
                    "midi": 93,
                    "time": 14.66275,
                    "velocity": 0.3779527559055118,
                    "duration": 0.03519059999999996
                },
                {
                    "name": "F6",
                    "midi": 89,
                    "time": 14.780052000000001,
                    "velocity": 0.4015748031496063,
                    "duration": 0.03519059999999996
                },
                {
                    "name": "B6",
                    "midi": 95,
                    "time": 14.780052000000001,
                    "velocity": 0.4015748031496063,
                    "duration": 0.03519059999999996
                },
                {
                    "name": "F#6",
                    "midi": 90,
                    "time": 14.897354000000002,
                    "velocity": 0.41732283464566927,
                    "duration": 0.03519059999999996
                },
                {
                    "name": "C7",
                    "midi": 96,
                    "time": 14.897354000000002,
                    "velocity": 0.41732283464566927,
                    "duration": 0.03519059999999996
                },
                {
                    "name": "G6",
                    "midi": 91,
                    "time": 15.014656000000002,
                    "velocity": 0.4330708661417323,
                    "duration": 0.03519059999999996
                },
                {
                    "name": "C#7",
                    "midi": 97,
                    "time": 15.014656000000002,
                    "velocity": 0.4330708661417323,
                    "duration": 0.03519059999999996
                },
                {
                    "name": "G#6",
                    "midi": 92,
                    "time": 15.131958000000003,
                    "velocity": 0.4566929133858268,
                    "duration": 0.02639294999999997
                },
                {
                    "name": "D7",
                    "midi": 98,
                    "time": 15.131958000000003,
                    "velocity": 0.4566929133858268,
                    "duration": 0.02639294999999997
                },
                {
                    "name": "A6",
                    "midi": 93,
                    "time": 15.219934500000003,
                    "velocity": 0.48031496062992124,
                    "duration": 0.02639294999999997
                },
                {
                    "name": "D#7",
                    "midi": 99,
                    "time": 15.219934500000003,
                    "velocity": 0.48031496062992124,
                    "duration": 0.02639294999999997
                },
                {
                    "name": "A#6",
                    "midi": 94,
                    "time": 15.307911000000002,
                    "velocity": 0.4881889763779528,
                    "duration": 0.02639294999999997
                },
                {
                    "name": "E7",
                    "midi": 100,
                    "time": 15.307911000000002,
                    "velocity": 0.4881889763779528,
                    "duration": 0.02639294999999997
                },
                {
                    "name": "B6",
                    "midi": 95,
                    "time": 15.395887500000002,
                    "velocity": 0.5039370078740157,
                    "duration": 0.02639294999999997
                },
                {
                    "name": "F7",
                    "midi": 101,
                    "time": 15.395887500000002,
                    "velocity": 0.5039370078740157,
                    "duration": 0.02639294999999997
                },
                {
                    "name": "F#7",
                    "midi": 102,
                    "time": 15.483864000000002,
                    "velocity": 0.5275590551181102,
                    "duration": 0.02639294999999997
                },
                {
                    "name": "C7",
                    "midi": 96,
                    "time": 15.483864000000002,
                    "velocity": 0.5275590551181102,
                    "duration": 0.02639294999999997
                },
                {
                    "name": "D#5",
                    "midi": 75,
                    "time": 16.715535000000003,
                    "velocity": 0.3937007874015748,
                    "duration": 0.4398824999999995
                },
                {
                    "name": "A4",
                    "midi": 69,
                    "time": 16.891488000000003,
                    "velocity": 0.31496062992125984,
                    "duration": 0.7038120000000028
                },
                {
                    "name": "F5",
                    "midi": 77,
                    "time": 17.155417500000002,
                    "velocity": 0.36220472440944884,
                    "duration": 0.04398825000000173
                },
                {
                    "name": "D#5",
                    "midi": 75,
                    "time": 17.199405750000004,
                    "velocity": 0.3700787401574803,
                    "duration": 0.04398825000000173
                },
                {
                    "name": "D5",
                    "midi": 74,
                    "time": 17.243394000000006,
                    "velocity": 0.3937007874015748,
                    "duration": 0.1759529999999998
                },
                {
                    "name": "C5",
                    "midi": 72,
                    "time": 17.419347000000005,
                    "velocity": 0.3228346456692913,
                    "duration": 0.10997062499999899
                },
                {
                    "name": "C5",
                    "midi": 72,
                    "time": 17.573305875000006,
                    "velocity": 0.23622047244094488,
                    "duration": 0.1979471249999989
                },
                {
                    "name": "F5",
                    "midi": 77,
                    "time": 17.595300000000005,
                    "velocity": 0.3700787401574803,
                    "duration": 0.1759529999999998
                },
                {
                    "name": "A4",
                    "midi": 69,
                    "time": 17.771253000000005,
                    "velocity": 0.29133858267716534,
                    "duration": 0.1759529999999998
                },
                {
                    "name": "A#4",
                    "midi": 70,
                    "time": 17.947206000000005,
                    "velocity": 0.29133858267716534,
                    "duration": 0.1759529999999998
                },
                {
                    "name": "A#4",
                    "midi": 70,
                    "time": 18.651018000000004,
                    "velocity": 0.3937007874015748,
                    "duration": 0.6158354999999993
                },
                {
                    "name": "E4",
                    "midi": 64,
                    "time": 19.002924000000004,
                    "velocity": 0.31496062992125984,
                    "duration": 0.7038120000000028
                },
                {
                    "name": "C5",
                    "midi": 72,
                    "time": 19.266853500000003,
                    "velocity": 0.36220472440944884,
                    "duration": 0.04398825000000173
                },
                {
                    "name": "A#4",
                    "midi": 70,
                    "time": 19.310841750000005,
                    "velocity": 0.3700787401574803,
                    "duration": 0.04398825000000173
                },
                {
                    "name": "G#4",
                    "midi": 68,
                    "time": 19.354830000000007,
                    "velocity": 0.3937007874015748,
                    "duration": 0.1759529999999998
                },
                {
                    "name": "G4",
                    "midi": 67,
                    "time": 19.530783000000007,
                    "velocity": 0.3228346456692913,
                    "duration": 0.10997062499999899
                },
                {
                    "name": "G4",
                    "midi": 67,
                    "time": 19.684741875000007,
                    "velocity": 0.23622047244094488,
                    "duration": 0.1979471249999989
                },
                {
                    "name": "C5",
                    "midi": 72,
                    "time": 19.706736000000006,
                    "velocity": 0.3700787401574803,
                    "duration": 0.1759529999999998
                },
                {
                    "name": "E4",
                    "midi": 64,
                    "time": 19.882689000000006,
                    "velocity": 0.29133858267716534,
                    "duration": 0.1759529999999998
                },
                {
                    "name": "F4",
                    "midi": 65,
                    "time": 20.058642000000006,
                    "velocity": 0.29133858267716534,
                    "duration": 0.1759529999999998
                },
                {
                    "name": "F4",
                    "midi": 65,
                    "time": 20.762454000000005,
                    "velocity": 0.3937007874015748,
                    "duration": 0.6158354999999993
                },
                {
                    "name": "D#4",
                    "midi": 63,
                    "time": 21.114360000000005,
                    "velocity": 0.31496062992125984,
                    "duration": 0.7038119999999992
                },
                {
                    "name": "G4",
                    "midi": 67,
                    "time": 21.378289500000005,
                    "velocity": 0.36220472440944884,
                    "duration": 0.04398825000000173
                },
                {
                    "name": "F4",
                    "midi": 65,
                    "time": 21.422277750000006,
                    "velocity": 0.3700787401574803,
                    "duration": 0.04398825000000173
                },
                {
                    "name": "E4",
                    "midi": 64,
                    "time": 21.466266000000008,
                    "velocity": 0.3937007874015748,
                    "duration": 0.1759529999999998
                },
                {
                    "name": "F4",
                    "midi": 65,
                    "time": 21.642219000000008,
                    "velocity": 0.3228346456692913,
                    "duration": 0.10997062499999899
                },
                {
                    "name": "A#3",
                    "midi": 58,
                    "time": 21.774183750000006,
                    "velocity": 0.28346456692913385,
                    "duration": 0.3958942499999978
                },
                {
                    "name": "F4",
                    "midi": 65,
                    "time": 21.796177875000005,
                    "velocity": 0.3228346456692913,
                    "duration": 0.1979471249999989
                },
                {
                    "name": "A#4",
                    "midi": 70,
                    "time": 21.818172000000004,
                    "velocity": 0.3543307086614173,
                    "duration": 0.1759529999999998
                },
                {
                    "name": "D4",
                    "midi": 62,
                    "time": 21.994125000000004,
                    "velocity": 0.29133858267716534,
                    "duration": 0.1759529999999998
                },
                {
                    "name": "D#4",
                    "midi": 63,
                    "time": 22.170078000000004,
                    "velocity": 0.29133858267716534,
                    "duration": 0.1759529999999998
                },
                {
                    "name": "A#3",
                    "midi": 58,
                    "time": 22.477995750000005,
                    "velocity": 0.28346456692913385,
                    "duration": 0.3958942499999978
                },
                {
                    "name": "D#4",
                    "midi": 63,
                    "time": 22.499989875000004,
                    "velocity": 0.2755905511811024,
                    "duration": 0.1979471249999989
                },
                {
                    "name": "B4",
                    "midi": 71,
                    "time": 22.521984000000003,
                    "velocity": 0.3543307086614173,
                    "duration": 0.1759529999999998
                },
                {
                    "name": "D4",
                    "midi": 62,
                    "time": 22.697937000000003,
                    "velocity": 0.29133858267716534,
                    "duration": 0.1759529999999998
                },
                {
                    "name": "D#4",
                    "midi": 63,
                    "time": 22.873890000000003,
                    "velocity": 0.29133858267716534,
                    "duration": 0.1759529999999998
                },
                {
                    "name": "D#4",
                    "midi": 63,
                    "time": 23.181807750000004,
                    "velocity": 0.2440944881889764,
                    "duration": 0.03665687499999848
                },
                {
                    "name": "F3",
                    "midi": 53,
                    "time": 23.225796000000003,
                    "velocity": 0.29133858267716534,
                    "duration": 0.7038119999999992
                },
                {
                    "name": "G#3",
                    "midi": 56,
                    "time": 23.225796000000003,
                    "velocity": 0.29133858267716534,
                    "duration": 0.7038119999999992
                },
                {
                    "name": "D#4",
                    "midi": 63,
                    "time": 23.225796000000003,
                    "velocity": 0.29133858267716534,
                    "duration": 0.1759529999999998
                },
                {
                    "name": "B3",
                    "midi": 59,
                    "time": 23.401749000000002,
                    "velocity": 0.2440944881889764,
                    "duration": 0.1759529999999998
                },
                {
                    "name": "D#4",
                    "midi": 63,
                    "time": 23.577702000000002,
                    "velocity": 0.29133858267716534,
                    "duration": 0.1759529999999998
                },
                {
                    "name": "C4",
                    "midi": 60,
                    "time": 23.753655000000002,
                    "velocity": 0.2440944881889764,
                    "duration": 0.1759529999999998
                },
                {
                    "name": "D#4",
                    "midi": 63,
                    "time": 23.929608,
                    "velocity": 0.30708661417322836,
                    "duration": 0.23460400000000092
                },
                {
                    "name": "C#4",
                    "midi": 61,
                    "time": 24.164212000000003,
                    "velocity": 0.25984251968503935,
                    "duration": 0.23460400000000092
                },
                {
                    "name": "D#4",
                    "midi": 63,
                    "time": 24.398816000000004,
                    "velocity": 0.25984251968503935,
                    "duration": 0.23460400000000092
                },
                {
                    "name": "D4",
                    "midi": 62,
                    "time": 24.633420000000005,
                    "velocity": 0.2755905511811024,
                    "duration": 0.1759529999999998
                },
                {
                    "name": "D#4",
                    "midi": 63,
                    "time": 24.809373000000004,
                    "velocity": 0.2204724409448819,
                    "duration": 0.04398825000000173
                },
                {
                    "name": "D4",
                    "midi": 62,
                    "time": 24.853361250000006,
                    "velocity": 0.2204724409448819,
                    "duration": 0.04398825000000173
                },
                {
                    "name": "C#4",
                    "midi": 61,
                    "time": 24.897349500000008,
                    "velocity": 0.2204724409448819,
                    "duration": 0.04398825000000173
                },
                {
                    "name": "D4",
                    "midi": 62,
                    "time": 24.94133775000001,
                    "velocity": 0.2204724409448819,
                    "duration": 0.04398825000000173
                },
                {
                    "name": "A#3",
                    "midi": 58,
                    "time": 24.98532600000001,
                    "velocity": 0.25196850393700787,
                    "duration": 0.2639294999999997
                },
                {
                    "name": "D4",
                    "midi": 62,
                    "time": 25.00732012500001,
                    "velocity": 0.2755905511811024,
                    "duration": 0.24193537500000062
                },
                {
                    "name": "G4",
                    "midi": 67,
                    "time": 25.02931425000001,
                    "velocity": 0.2992125984251969,
                    "duration": 0.21994125000000153
                },
                {
                    "name": "G#3",
                    "midi": 56,
                    "time": 25.24925550000001,
                    "velocity": 0.2755905511811024,
                    "duration": 0.0879764999999999
                },
                {
                    "name": "F4",
                    "midi": 65,
                    "time": 25.24925550000001,
                    "velocity": 0.2755905511811024,
                    "duration": 0.0879764999999999
                },
                {
                    "name": "A#3",
                    "midi": 58,
                    "time": 28.06450350000001,
                    "velocity": 0.47244094488188976,
                    "duration": 0.0879764999999999
                },
                {
                    "name": "D#4",
                    "midi": 63,
                    "time": 28.15248000000001,
                    "velocity": 0.5354330708661418,
                    "duration": 0.6158354999999993
                },
                {
                    "name": "G4",
                    "midi": 67,
                    "time": 28.76831550000001,
                    "velocity": 0.44881889763779526,
                    "duration": 0.0879764999999999
                },
                {
                    "name": "G#4",
                    "midi": 68,
                    "time": 28.85629200000001,
                    "velocity": 0.44881889763779526,
                    "duration": 0.04398825000000173
                },
                {
                    "name": "A4",
                    "midi": 69,
                    "time": 29.208198000000014,
                    "velocity": 0.5196850393700787,
                    "duration": 0.04398825000000173
                },
                {
                    "name": "A#4",
                    "midi": 70,
                    "time": 29.560104000000017,
                    "velocity": 0.5590551181102362,
                    "duration": 0.7038119999999992
                },
                {
                    "name": "D#5",
                    "midi": 75,
                    "time": 30.263916000000016,
                    "velocity": 0.5354330708661418,
                    "duration": 0.04398825000000173
                },
                {
                    "name": "G4",
                    "midi": 67,
                    "time": 30.61582200000002,
                    "velocity": 0.3858267716535433,
                    "duration": 0.2639294999999997
                },
                {
                    "name": "A#4",
                    "midi": 70,
                    "time": 30.61582200000002,
                    "velocity": 0.49606299212598426,
                    "duration": 0.2639294999999997
                },
                {
                    "name": "F4",
                    "midi": 65,
                    "time": 30.87975150000002,
                    "velocity": 0.36220472440944884,
                    "duration": 0.04398825000000173
                },
                {
                    "name": "G#4",
                    "midi": 68,
                    "time": 30.87975150000002,
                    "velocity": 0.4645669291338583,
                    "duration": 0.04398825000000173
                },
                {
                    "name": "G4",
                    "midi": 67,
                    "time": 30.92373975000002,
                    "velocity": 0.3700787401574803,
                    "duration": 0.04398825000000173
                },
                {
                    "name": "A#4",
                    "midi": 70,
                    "time": 30.92373975000002,
                    "velocity": 0.4645669291338583,
                    "duration": 0.04398825000000173
                },
                {
                    "name": "F4",
                    "midi": 65,
                    "time": 30.967728000000022,
                    "velocity": 0.4251968503937008,
                    "duration": 0.1759529999999998
                },
                {
                    "name": "G#4",
                    "midi": 68,
                    "time": 30.967728000000022,
                    "velocity": 0.5433070866141733,
                    "duration": 0.1759529999999998
                },
                {
                    "name": "G4",
                    "midi": 67,
                    "time": 31.49558700000002,
                    "velocity": 0.47244094488188976,
                    "duration": 0.1759529999999998
                },
                {
                    "name": "E4",
                    "midi": 64,
                    "time": 31.49558700000002,
                    "velocity": 0.3937007874015748,
                    "duration": 0.1759529999999998
                },
                {
                    "name": "G#4",
                    "midi": 68,
                    "time": 31.67154000000002,
                    "velocity": 0.5196850393700787,
                    "duration": 0.04398825000000173
                },
                {
                    "name": "F4",
                    "midi": 65,
                    "time": 31.67154000000002,
                    "velocity": 0.4015748031496063,
                    "duration": 0.04398825000000173
                },
                {
                    "name": "G4",
                    "midi": 67,
                    "time": 32.02344600000002,
                    "velocity": 0.3937007874015748,
                    "duration": 0.043988249999998175
                },
                {
                    "name": "A#4",
                    "midi": 70,
                    "time": 32.02344600000002,
                    "velocity": 0.5039370078740157,
                    "duration": 0.043988249999998175
                },
                {
                    "name": "G4",
                    "midi": 67,
                    "time": 32.37535200000002,
                    "velocity": 0.5354330708661418,
                    "duration": 0.7038119999999992
                },
                {
                    "name": "D#4",
                    "midi": 63,
                    "time": 32.37535200000002,
                    "velocity": 0.4251968503937008,
                    "duration": 0.7038119999999992
                },
                {
                    "name": "A#3",
                    "midi": 58,
                    "time": 33.19646600000002,
                    "velocity": 0.4566929133858268,
                    "duration": 0.11730200000000224
                },
                {
                    "name": "B3",
                    "midi": 59,
                    "time": 33.313768000000024,
                    "velocity": 0.3937007874015748,
                    "duration": 0.11730200000000224
                },
                {
                    "name": "C4",
                    "midi": 60,
                    "time": 33.43107000000003,
                    "velocity": 0.4015748031496063,
                    "duration": 0.11730200000000224
                },
                {
                    "name": "C#4",
                    "midi": 61,
                    "time": 33.54837200000003,
                    "velocity": 0.4330708661417323,
                    "duration": 0.11730200000000224
                },
                {
                    "name": "D4",
                    "midi": 62,
                    "time": 33.66567400000003,
                    "velocity": 0.4566929133858268,
                    "duration": 0.11730200000000224
                },
                {
                    "name": "D#4",
                    "midi": 63,
                    "time": 33.78297600000003,
                    "velocity": 0.5354330708661418,
                    "duration": 0.6158355000000029
                },
                {
                    "name": "G4",
                    "midi": 67,
                    "time": 34.398811500000036,
                    "velocity": 0.44881889763779526,
                    "duration": 0.08797650000000345
                },
                {
                    "name": "G#4",
                    "midi": 68,
                    "time": 34.48678800000004,
                    "velocity": 0.44881889763779526,
                    "duration": 0.043988249999998175
                },
                {
                    "name": "A4",
                    "midi": 69,
                    "time": 34.83869400000004,
                    "velocity": 0.5196850393700787,
                    "duration": 0.043988249999998175
                },
                {
                    "name": "A4",
                    "midi": 69,
                    "time": 35.102623500000036,
                    "velocity": 0.3858267716535433,
                    "duration": 0.029325499999998783
                },
                {
                    "name": "A#4",
                    "midi": 70,
                    "time": 35.131949000000034,
                    "velocity": 0.3464566929133858,
                    "duration": 0.029325499999998783
                },
                {
                    "name": "C5",
                    "midi": 72,
                    "time": 35.16127450000003,
                    "velocity": 0.3700787401574803,
                    "duration": 0.029325499999998783
                },
                {
                    "name": "A#4",
                    "midi": 70,
                    "time": 35.19060000000003,
                    "velocity": 0.4251968503937008,
                    "duration": 0.03519059999999996
                },
                {
                    "name": "C5",
                    "midi": 72,
                    "time": 35.22579060000003,
                    "velocity": 0.3858267716535433,
                    "duration": 0.03519059999999996
                },
                {
                    "name": "A#4",
                    "midi": 70,
                    "time": 35.26098120000003,
                    "velocity": 0.3937007874015748,
                    "duration": 0.03519059999999996
                },
                {
                    "name": "C5",
                    "midi": 72,
                    "time": 35.29617180000003,
                    "velocity": 0.3700787401574803,
                    "duration": 0.03519059999999996
                },
                {
                    "name": "A#4",
                    "midi": 70,
                    "time": 35.33136240000003,
                    "velocity": 0.3937007874015748,
                    "duration": 0.03519059999999996
                },
                {
                    "name": "C5",
                    "midi": 72,
                    "time": 35.36655300000003,
                    "velocity": 0.3700787401574803,
                    "duration": 0.03519059999999996
                },
                {
                    "name": "A#4",
                    "midi": 70,
                    "time": 35.40174360000003,
                    "velocity": 0.3937007874015748,
                    "duration": 0.03519059999999996
                },
                {
                    "name": "C5",
                    "midi": 72,
                    "time": 35.43693420000003,
                    "velocity": 0.3700787401574803,
                    "duration": 0.03519059999999996
                },
                {
                    "name": "A#4",
                    "midi": 70,
                    "time": 35.47212480000003,
                    "velocity": 0.3937007874015748,
                    "duration": 0.03519059999999996
                },
                {
                    "name": "C5",
                    "midi": 72,
                    "time": 35.50731540000003,
                    "velocity": 0.3543307086614173,
                    "duration": 0.03519059999999996
                },
                {
                    "name": "A#4",
                    "midi": 70,
                    "time": 35.54250600000003,
                    "velocity": 0.3937007874015748,
                    "duration": 0.03519059999999996
                },
                {
                    "name": "C5",
                    "midi": 72,
                    "time": 35.57769660000003,
                    "velocity": 0.36220472440944884,
                    "duration": 0.03519059999999996
                },
                {
                    "name": "A#4",
                    "midi": 70,
                    "time": 35.61288720000003,
                    "velocity": 0.3937007874015748,
                    "duration": 0.03519059999999996
                },
                {
                    "name": "C5",
                    "midi": 72,
                    "time": 35.64807780000003,
                    "velocity": 0.3543307086614173,
                    "duration": 0.03519059999999996
                },
                {
                    "name": "A#4",
                    "midi": 70,
                    "time": 35.68326840000003,
                    "velocity": 0.3937007874015748,
                    "duration": 0.03519059999999996
                },
                {
                    "name": "C5",
                    "midi": 72,
                    "time": 35.71845900000003,
                    "velocity": 0.3700787401574803,
                    "duration": 0.043988249999998175
                },
                {
                    "name": "A#4",
                    "midi": 70,
                    "time": 35.76244725000003,
                    "velocity": 0.41732283464566927,
                    "duration": 0.043988249999998175
                },
                {
                    "name": "A4",
                    "midi": 69,
                    "time": 35.80643550000003,
                    "velocity": 0.3937007874015748,
                    "duration": 0.043988249999998175
                },
                {
                    "name": "A#4",
                    "midi": 70,
                    "time": 35.850423750000026,
                    "velocity": 0.3937007874015748,
                    "duration": 0.043988249999998175
                },
                {
                    "name": "G5",
                    "midi": 79,
                    "time": 35.894412000000024,
                    "velocity": 0.5354330708661418,
                    "duration": 0.043988249999998175
                },
                {
                    "name": "D#5",
                    "midi": 75,
                    "time": 35.894412000000024,
                    "velocity": 0.4566929133858268,
                    "duration": 0.043988249999998175
                },
                {
                    "name": "G4",
                    "midi": 67,
                    "time": 36.42227100000002,
                    "velocity": 0.3858267716535433,
                    "duration": 0.08797650000000345
                },
                {
                    "name": "A#4",
                    "midi": 70,
                    "time": 36.42227100000002,
                    "velocity": 0.49606299212598426,
                    "duration": 0.08797650000000345
                },
                {
                    "name": "F4",
                    "midi": 65,
                    "time": 36.51024750000003,
                    "velocity": 0.36220472440944884,
                    "duration": 0.043988249999998175
                },
                {
                    "name": "G#4",
                    "midi": 68,
                    "time": 36.51024750000003,
                    "velocity": 0.4645669291338583,
                    "duration": 0.043988249999998175
                },
                {
                    "name": "G4",
                    "midi": 67,
                    "time": 36.554235750000025,
                    "velocity": 0.3700787401574803,
                    "duration": 0.043988249999998175
                },
                {
                    "name": "A#4",
                    "midi": 70,
                    "time": 36.554235750000025,
                    "velocity": 0.4645669291338583,
                    "duration": 0.043988249999998175
                },
                {
                    "name": "F4",
                    "midi": 65,
                    "time": 36.59822400000002,
                    "velocity": 0.4251968503937008,
                    "duration": 0.1759529999999998
                },
                {
                    "name": "G#4",
                    "midi": 68,
                    "time": 36.59822400000002,
                    "velocity": 0.5433070866141733,
                    "duration": 0.1759529999999998
                },
                {
                    "name": "E4",
                    "midi": 64,
                    "time": 37.12608300000002,
                    "velocity": 0.3937007874015748,
                    "duration": 0.1759529999999998
                },
                {
                    "name": "G4",
                    "midi": 67,
                    "time": 37.12608300000002,
                    "velocity": 0.47244094488188976,
                    "duration": 0.1759529999999998
                },
                {
                    "name": "G#4",
                    "midi": 68,
                    "time": 37.30203600000002,
                    "velocity": 0.5196850393700787,
                    "duration": 0.043988249999998175
                },
                {
                    "name": "F4",
                    "midi": 65,
                    "time": 37.30203600000002,
                    "velocity": 0.4015748031496063,
                    "duration": 0.043988249999998175
                },
                {
                    "name": "D4",
                    "midi": 62,
                    "time": 37.65394200000002,
                    "velocity": 0.3937007874015748,
                    "duration": 0.043988249999998175
                },
                {
                    "name": "A#4",
                    "midi": 70,
                    "time": 37.65394200000002,
                    "velocity": 0.5039370078740157,
                    "duration": 0.043988249999998175
                },
                {
                    "name": "D#4",
                    "midi": 63,
                    "time": 38.00584800000002,
                    "velocity": 0.5354330708661418,
                    "duration": 0.7038119999999992
                },
                {
                    "name": "A#4",
                    "midi": 70,
                    "time": 40.73311950000002,
                    "velocity": 0.47244094488188976,
                    "duration": 0.08797650000000345
                },
                {
                    "name": "D#4",
                    "midi": 63,
                    "time": 40.821096000000026,
                    "velocity": 0.4881889763779528,
                    "duration": 0.6158355000000029
                },
                {
                    "name": "D#5",
                    "midi": 75,
                    "time": 40.821096000000026,
                    "velocity": 0.5826771653543307,
                    "duration": 0.6158355000000029
                },
                {
                    "name": "G4",
                    "midi": 67,
                    "time": 41.43693150000003,
                    "velocity": 0.4094488188976378,
                    "duration": 0.08797650000000345
                },
                {
                    "name": "G5",
                    "midi": 79,
                    "time": 41.43693150000003,
                    "velocity": 0.4881889763779528,
                    "duration": 0.08797650000000345
                },
                {
                    "name": "G#4",
                    "midi": 68,
                    "time": 41.52490800000003,
                    "velocity": 0.4094488188976378,
                    "duration": 0.043988249999998175
                },
                {
                    "name": "G#5",
                    "midi": 80,
                    "time": 41.52490800000003,
                    "velocity": 0.4881889763779528,
                    "duration": 0.043988249999998175
                },
                {
                    "name": "A4",
                    "midi": 69,
                    "time": 41.87681400000003,
                    "velocity": 0.4409448818897638,
                    "duration": 0.043988249999998175
                },
                {
                    "name": "A5",
                    "midi": 81,
                    "time": 41.87681400000003,
                    "velocity": 0.5275590551181102,
                    "duration": 0.043988249999998175
                },
                {
                    "name": "A#4",
                    "midi": 70,
                    "time": 42.14074350000003,
                    "velocity": 0.3464566929133858,
                    "duration": 0.043988249999998175
                },
                {
                    "name": "D#5",
                    "midi": 75,
                    "time": 42.184731750000026,
                    "velocity": 0.36220472440944884,
                    "duration": 0.043988249999998175
                },
                {
                    "name": "A#5",
                    "midi": 82,
                    "time": 42.228720000000024,
                    "velocity": 0.41732283464566927,
                    "duration": 0.05058648749999861
                },
                {
                    "name": "C6",
                    "midi": 84,
                    "time": 42.27930648750002,
                    "velocity": 0.3228346456692913,
                    "duration": 0.04985334999999935
                },
                {
                    "name": "A#5",
                    "midi": 82,
                    "time": 42.32915983750002,
                    "velocity": 0.3228346456692913,
                    "duration": 0.05058648749999861
                },
                {
                    "name": "A5",
                    "midi": 81,
                    "time": 42.37901318750002,
                    "velocity": 0.3228346456692913,
                    "duration": 0.05058648749999861
                },
                {
                    "name": "A#5",
                    "midi": 82,
                    "time": 42.42959967500002,
                    "velocity": 0.3228346456692913,
                    "duration": 0.04985334999999935
                },
                {
                    "name": "C6",
                    "midi": 84,
                    "time": 42.47945302500002,
                    "velocity": 0.3779527559055118,
                    "duration": 0.05058648749999861
                },
                {
                    "name": "A#5",
                    "midi": 82,
                    "time": 42.53003951250002,
                    "velocity": 0.3228346456692913,
                    "duration": 0.04985334999999935
                },
                {
                    "name": "D#5",
                    "midi": 75,
                    "time": 42.58062600000002,
                    "velocity": 0.3779527559055118,
                    "duration": 0.058650999999997566
                },
                {
                    "name": "A#4",
                    "midi": 70,
                    "time": 42.639277000000014,
                    "velocity": 0.33070866141732286,
                    "duration": 0.058650999999997566
                },
                {
                    "name": "D#4",
                    "midi": 63,
                    "time": 42.69792800000001,
                    "velocity": 0.36220472440944884,
                    "duration": 0.058650999999997566
                },
                {
                    "name": "A#4",
                    "midi": 70,
                    "time": 42.75657900000001,
                    "velocity": 0.4094488188976378,
                    "duration": 0.058650999999997566
                },
                {
                    "name": "D#5",
                    "midi": 75,
                    "time": 42.81523000000001,
                    "velocity": 0.49606299212598426,
                    "duration": 0.058650999999997566
                },
                {
                    "name": "A#5",
                    "midi": 82,
                    "time": 42.873881000000004,
                    "velocity": 0.5748031496062992,
                    "duration": 0.058650999999997566
                },
                {
                    "name": "D#6",
                    "midi": 87,
                    "time": 42.932532,
                    "velocity": 0.6377952755905512,
                    "duration": 0.043988249999998175
                },
                {
                    "name": "G4",
                    "midi": 67,
                    "time": 43.460391,
                    "velocity": 0.4251968503937008,
                    "duration": 0.08064512499999665
                },
                {
                    "name": "A#4",
                    "midi": 70,
                    "time": 43.460391,
                    "velocity": 0.4251968503937008,
                    "duration": 0.08064512499999665
                },
                {
                    "name": "G4",
                    "midi": 67,
                    "time": 43.5483675,
                    "velocity": 0.25984251968503935,
                    "duration": 0.043988249999998175
                },
                {
                    "name": "A#4",
                    "midi": 70,
                    "time": 43.5483675,
                    "velocity": 0.31496062992125984,
                    "duration": 0.043988249999998175
                },
                {
                    "name": "F#4",
                    "midi": 66,
                    "time": 43.592355749999996,
                    "velocity": 0.25984251968503935,
                    "duration": 0.043988249999998175
                },
                {
                    "name": "A4",
                    "midi": 69,
                    "time": 43.592355749999996,
                    "velocity": 0.31496062992125984,
                    "duration": 0.043988249999998175
                },
                {
                    "name": "F4",
                    "midi": 65,
                    "time": 43.636343999999994,
                    "velocity": 0.30708661417322836,
                    "duration": 0.043988249999998175
                },
                {
                    "name": "G#4",
                    "midi": 68,
                    "time": 43.636343999999994,
                    "velocity": 0.3858267716535433,
                    "duration": 0.043988249999998175
                },
                {
                    "name": "A#5",
                    "midi": 82,
                    "time": 43.90027349999999,
                    "velocity": 0.33070866141732286,
                    "duration": 0.043988249999998175
                },
                {
                    "name": "G5",
                    "midi": 79,
                    "time": 43.90027349999999,
                    "velocity": 0.28346456692913385,
                    "duration": 0.043988249999998175
                },
                {
                    "name": "A5",
                    "midi": 81,
                    "time": 43.94426174999999,
                    "velocity": 0.33858267716535434,
                    "duration": 0.043988249999998175
                },
                {
                    "name": "F#5",
                    "midi": 78,
                    "time": 43.94426174999999,
                    "velocity": 0.29133858267716534,
                    "duration": 0.043988249999998175
                },
                {
                    "name": "F5",
                    "midi": 77,
                    "time": 43.98824999999999,
                    "velocity": 0.3464566929133858,
                    "duration": 0.043988249999998175
                },
                {
                    "name": "G#5",
                    "midi": 80,
                    "time": 43.98824999999999,
                    "velocity": 0.3937007874015748,
                    "duration": 0.043988249999998175
                },
                {
                    "name": "A#6",
                    "midi": 94,
                    "time": 44.25217949999998,
                    "velocity": 0.3228346456692913,
                    "duration": 0.043988249999998175
                },
                {
                    "name": "G6",
                    "midi": 91,
                    "time": 44.25217949999998,
                    "velocity": 0.28346456692913385,
                    "duration": 0.043988249999998175
                },
                {
                    "name": "F#6",
                    "midi": 90,
                    "time": 44.29616774999998,
                    "velocity": 0.29133858267716534,
                    "duration": 0.043988249999998175
                },
                {
                    "name": "A6",
                    "midi": 93,
                    "time": 44.29616774999998,
                    "velocity": 0.3228346456692913,
                    "duration": 0.043988249999998175
                },
                {
                    "name": "G#6",
                    "midi": 92,
                    "time": 44.34015599999998,
                    "velocity": 0.3779527559055118,
                    "duration": 0.043988249999998175
                },
                {
                    "name": "F6",
                    "midi": 89,
                    "time": 44.34015599999998,
                    "velocity": 0.3464566929133858,
                    "duration": 0.043988249999998175
                },
                {
                    "name": "E4",
                    "midi": 64,
                    "time": 44.604085499999975,
                    "velocity": 0.28346456692913385,
                    "duration": 0.08797650000000345
                },
                {
                    "name": "G4",
                    "midi": 67,
                    "time": 44.604085499999975,
                    "velocity": 0.33070866141732286,
                    "duration": 0.08797650000000345
                },
                {
                    "name": "F4",
                    "midi": 65,
                    "time": 44.69206199999998,
                    "velocity": 0.33858267716535434,
                    "duration": 0.043988249999998175
                },
                {
                    "name": "G#4",
                    "midi": 68,
                    "time": 44.69206199999998,
                    "velocity": 0.3858267716535433,
                    "duration": 0.043988249999998175
                },
                {
                    "name": "G4",
                    "midi": 67,
                    "time": 44.86801499999998,
                    "velocity": 0.2992125984251969,
                    "duration": 0.043988249999998175
                },
                {
                    "name": "A#4",
                    "midi": 70,
                    "time": 44.86801499999998,
                    "velocity": 0.3464566929133858,
                    "duration": 0.043988249999998175
                },
                {
                    "name": "G4",
                    "midi": 67,
                    "time": 45.04396799999998,
                    "velocity": 0.4094488188976378,
                    "duration": 0.7038119999999992
                },
                {
                    "name": "D#4",
                    "midi": 63,
                    "time": 45.04396799999998,
                    "velocity": 0.3464566929133858,
                    "duration": 0.7038119999999992
                },
                {
                    "name": "A#4",
                    "midi": 70,
                    "time": 45.86508199999998,
                    "velocity": 0.4094488188976378,
                    "duration": 0.13196475000000163
                },
                {
                    "name": "A#3",
                    "midi": 58,
                    "time": 45.86508199999998,
                    "velocity": 0.4094488188976378,
                    "duration": 0.11730200000000224
                },
                {
                    "name": "B4",
                    "midi": 71,
                    "time": 45.98238399999998,
                    "velocity": 0.4094488188976378,
                    "duration": 0.13196475000000163
                },
                {
                    "name": "B3",
                    "midi": 59,
                    "time": 45.98238399999998,
                    "velocity": 0.4094488188976378,
                    "duration": 0.11730200000000224
                },
                {
                    "name": "C5",
                    "midi": 72,
                    "time": 46.099685999999984,
                    "velocity": 0.3937007874015748,
                    "duration": 0.13196475000000163
                },
                {
                    "name": "C4",
                    "midi": 60,
                    "time": 46.099685999999984,
                    "velocity": 0.3937007874015748,
                    "duration": 0.11730200000000224
                },
                {
                    "name": "C#5",
                    "midi": 73,
                    "time": 46.216987999999986,
                    "velocity": 0.4409448818897638,
                    "duration": 0.13196475000000163
                },
                {
                    "name": "C#4",
                    "midi": 61,
                    "time": 46.216987999999986,
                    "velocity": 0.4409448818897638,
                    "duration": 0.11730200000000224
                },
                {
                    "name": "D5",
                    "midi": 74,
                    "time": 46.33428999999999,
                    "velocity": 0.47244094488188976,
                    "duration": 0.13196475000000163
                },
                {
                    "name": "D4",
                    "midi": 62,
                    "time": 46.33428999999999,
                    "velocity": 0.47244094488188976,
                    "duration": 0.11730200000000224
                },
                {
                    "name": "D#5",
                    "midi": 75,
                    "time": 46.45159199999999,
                    "velocity": 0.6614173228346457,
                    "duration": 0.6158355000000029
                },
                {
                    "name": "D#4",
                    "midi": 63,
                    "time": 46.45159199999999,
                    "velocity": 0.5590551181102362,
                    "duration": 0.6158355000000029
                },
                {
                    "name": "G5",
                    "midi": 79,
                    "time": 47.067427499999994,
                    "velocity": 0.5196850393700787,
                    "duration": 0.08797650000000345
                },
                {
                    "name": "G4",
                    "midi": 67,
                    "time": 47.067427499999994,
                    "velocity": 0.4409448818897638,
                    "duration": 0.08797650000000345
                },
                {
                    "name": "G#5",
                    "midi": 80,
                    "time": 47.155404,
                    "velocity": 0.5748031496062992,
                    "duration": 0.043988249999998175
                },
                {
                    "name": "G#4",
                    "midi": 68,
                    "time": 47.155404,
                    "velocity": 0.48031496062992124,
                    "duration": 0.043988249999998175
                },
                {
                    "name": "A5",
                    "midi": 81,
                    "time": 47.50731,
                    "velocity": 0.6141732283464567,
                    "duration": 0.043988249999998175
                },
                {
                    "name": "A4",
                    "midi": 69,
                    "time": 47.50731,
                    "velocity": 0.5196850393700787,
                    "duration": 0.043988249999998175
                },
                {
                    "name": "A#4",
                    "midi": 70,
                    "time": 47.77123949999999,
                    "velocity": 0.3464566929133858,
                    "duration": 0.043988249999998175
                },
                {
                    "name": "D#5",
                    "midi": 75,
                    "time": 47.81522774999999,
                    "velocity": 0.36220472440944884,
                    "duration": 0.043988249999998175
                },
                {
                    "name": "A#5",
                    "midi": 82,
                    "time": 47.85921599999999,
                    "velocity": 0.47244094488188976,
                    "duration": 0.05058648749999861
                },
                {
                    "name": "C6",
                    "midi": 84,
                    "time": 47.90980248749999,
                    "velocity": 0.3543307086614173,
                    "duration": 0.04985334999999935
                },
                {
                    "name": "A#5",
                    "midi": 82,
                    "time": 47.95965583749999,
                    "velocity": 0.3543307086614173,
                    "duration": 0.05058648749999861
                },
                {
                    "name": "A5",
                    "midi": 81,
                    "time": 48.00950918749999,
                    "velocity": 0.3543307086614173,
                    "duration": 0.05058648749999861
                },
                {
                    "name": "A#5",
                    "midi": 82,
                    "time": 48.060095674999985,
                    "velocity": 0.3543307086614173,
                    "duration": 0.04985334999999935
                },
                {
                    "name": "C6",
                    "midi": 84,
                    "time": 48.109949024999985,
                    "velocity": 0.4094488188976378,
                    "duration": 0.05058648749999861
                },
                {
                    "name": "A#5",
                    "midi": 82,
                    "time": 48.16053551249998,
                    "velocity": 0.3543307086614173,
                    "duration": 0.04985334999999935
                },
                {
                    "name": "D#5",
                    "midi": 75,
                    "time": 48.21112199999998,
                    "velocity": 0.4094488188976378,
                    "duration": 0.05131962499999787
                },
                {
                    "name": "A#4",
                    "midi": 70,
                    "time": 48.26244162499998,
                    "velocity": 0.3700787401574803,
                    "duration": 0.05058648749999861
                },
                {
                    "name": "D#4",
                    "midi": 63,
                    "time": 48.31302811249998,
                    "velocity": 0.4015748031496063,
                    "duration": 0.05131962499999787
                },
                {
                    "name": "A#4",
                    "midi": 70,
                    "time": 48.364347737499976,
                    "velocity": 0.4566929133858268,
                    "duration": 0.05131962499999787
                },
                {
                    "name": "D#5",
                    "midi": 75,
                    "time": 48.415667362499974,
                    "velocity": 0.4881889763779528,
                    "duration": 0.05058648749999861
                },
                {
                    "name": "A#5",
                    "midi": 82,
                    "time": 48.46625384999997,
                    "velocity": 0.5354330708661418,
                    "duration": 0.043988249999998175
                },
                {
                    "name": "A#5",
                    "midi": 82,
                    "time": 48.51684033749997,
                    "velocity": 0.5826771653543307,
                    "duration": 0.04618766250000306
                },
                {
                    "name": "G6",
                    "midi": 91,
                    "time": 48.563027999999974,
                    "velocity": 0.6692913385826772,
                    "duration": 0.043988249999998175
                },
                {
                    "name": "D#6",
                    "midi": 87,
                    "time": 48.563027999999974,
                    "velocity": 0.5905511811023622,
                    "duration": 0.043988249999998175
                },
                {
                    "name": "G4",
                    "midi": 67,
                    "time": 49.090886999999974,
                    "velocity": 0.4251968503937008,
                    "duration": 0.08064512499999665
                },
                {
                    "name": "A#4",
                    "midi": 70,
                    "time": 49.090886999999974,
                    "velocity": 0.4251968503937008,
                    "duration": 0.08064512499999665
                },
                {
                    "name": "G4",
                    "midi": 67,
                    "time": 49.17886349999997,
                    "velocity": 0.25984251968503935,
                    "duration": 0.043988249999998175
                },
                {
                    "name": "A#4",
                    "midi": 70,
                    "time": 49.17886349999997,
                    "velocity": 0.31496062992125984,
                    "duration": 0.043988249999998175
                },
                {
                    "name": "F#4",
                    "midi": 66,
                    "time": 49.22285174999997,
                    "velocity": 0.25984251968503935,
                    "duration": 0.043988249999998175
                },
                {
                    "name": "A4",
                    "midi": 69,
                    "time": 49.22285174999997,
                    "velocity": 0.31496062992125984,
                    "duration": 0.043988249999998175
                },
                {
                    "name": "F4",
                    "midi": 65,
                    "time": 49.266839999999966,
                    "velocity": 0.30708661417322836,
                    "duration": 0.043988249999998175
                },
                {
                    "name": "G#4",
                    "midi": 68,
                    "time": 49.266839999999966,
                    "velocity": 0.3858267716535433,
                    "duration": 0.043988249999998175
                },
                {
                    "name": "A#5",
                    "midi": 82,
                    "time": 49.53076949999996,
                    "velocity": 0.33070866141732286,
                    "duration": 0.043988249999998175
                },
                {
                    "name": "G5",
                    "midi": 79,
                    "time": 49.53076949999996,
                    "velocity": 0.28346456692913385,
                    "duration": 0.043988249999998175
                },
                {
                    "name": "A5",
                    "midi": 81,
                    "time": 49.57475774999996,
                    "velocity": 0.33858267716535434,
                    "duration": 0.043988249999998175
                },
                {
                    "name": "F#5",
                    "midi": 78,
                    "time": 49.57475774999996,
                    "velocity": 0.29133858267716534,
                    "duration": 0.043988249999998175
                },
                {
                    "name": "F5",
                    "midi": 77,
                    "time": 49.61874599999996,
                    "velocity": 0.3464566929133858,
                    "duration": 0.043988249999998175
                },
                {
                    "name": "G#5",
                    "midi": 80,
                    "time": 49.61874599999996,
                    "velocity": 0.3937007874015748,
                    "duration": 0.043988249999998175
                },
                {
                    "name": "A#6",
                    "midi": 94,
                    "time": 49.882675499999955,
                    "velocity": 0.3228346456692913,
                    "duration": 0.043988249999998175
                },
                {
                    "name": "G6",
                    "midi": 91,
                    "time": 49.882675499999955,
                    "velocity": 0.28346456692913385,
                    "duration": 0.043988249999998175
                },
                {
                    "name": "F#6",
                    "midi": 90,
                    "time": 49.92666374999995,
                    "velocity": 0.29133858267716534,
                    "duration": 0.043988249999998175
                },
                {
                    "name": "A6",
                    "midi": 93,
                    "time": 49.92666374999995,
                    "velocity": 0.3228346456692913,
                    "duration": 0.043988249999998175
                },
                {
                    "name": "G#6",
                    "midi": 92,
                    "time": 49.97065199999995,
                    "velocity": 0.3779527559055118,
                    "duration": 0.043988249999998175
                },
                {
                    "name": "F6",
                    "midi": 89,
                    "time": 49.97065199999995,
                    "velocity": 0.3464566929133858,
                    "duration": 0.043988249999998175
                },
                {
                    "name": "E4",
                    "midi": 64,
                    "time": 50.23458149999995,
                    "velocity": 0.28346456692913385,
                    "duration": 0.08797650000000345
                },
                {
                    "name": "G4",
                    "midi": 67,
                    "time": 50.23458149999995,
                    "velocity": 0.33070866141732286,
                    "duration": 0.08797650000000345
                },
                {
                    "name": "F4",
                    "midi": 65,
                    "time": 50.32255799999995,
                    "velocity": 0.3228346456692913,
                    "duration": 0.11730200000000224
                },
                {
                    "name": "G#4",
                    "midi": 68,
                    "time": 50.32255799999995,
                    "velocity": 0.3858267716535433,
                    "duration": 0.11730200000000224
                },
                {
                    "name": "G#4",
                    "midi": 68,
                    "time": 50.43985999999995,
                    "velocity": 0.2992125984251969,
                    "duration": 0.1759529999999998
                },
                {
                    "name": "C5",
                    "midi": 72,
                    "time": 50.43985999999995,
                    "velocity": 0.3464566929133858,
                    "duration": 0.1759529999999998
                },
                {
                    "name": "G4",
                    "midi": 67,
                    "time": 50.61581299999995,
                    "velocity": 0.2992125984251969,
                    "duration": 0.058650999999997566
                },
                {
                    "name": "A#4",
                    "midi": 70,
                    "time": 50.61581299999995,
                    "velocity": 0.3464566929133858,
                    "duration": 0.058650999999997566
                },
                {
                    "name": "G4",
                    "midi": 67,
                    "time": 50.67446399999995,
                    "velocity": 0.4094488188976378,
                    "duration": 0.3519059999999996
                },
                {
                    "name": "D#4",
                    "midi": 63,
                    "time": 50.67446399999995,
                    "velocity": 0.3464566929133858,
                    "duration": 0.3519059999999996
                },
                {
                    "name": "C#6",
                    "midi": 85,
                    "time": 51.73018199999995,
                    "velocity": 0.5433070866141733,
                    "duration": 0.3519059999999996
                },
                {
                    "name": "A#5",
                    "midi": 82,
                    "time": 51.73018199999995,
                    "velocity": 0.4330708661417323,
                    "duration": 0.3519059999999996
                },
                {
                    "name": "C6",
                    "midi": 84,
                    "time": 52.08208799999995,
                    "velocity": 0.4566929133858268,
                    "duration": 0.26392950000000326
                },
                {
                    "name": "G#5",
                    "midi": 80,
                    "time": 52.08208799999995,
                    "velocity": 0.3779527559055118,
                    "duration": 0.26392950000000326
                },
                {
                    "name": "D6",
                    "midi": 86,
                    "time": 52.34601749999995,
                    "velocity": 0.33858267716535434,
                    "duration": 0.043988249999998175
                },
                {
                    "name": "C6",
                    "midi": 84,
                    "time": 52.39000574999995,
                    "velocity": 0.3858267716535433,
                    "duration": 0.043988249999998175
                },
                {
                    "name": "A#5",
                    "midi": 82,
                    "time": 52.43399399999995,
                    "velocity": 0.4251968503937008,
                    "duration": 0.043988249999998175
                },
                {
                    "name": "G5",
                    "midi": 79,
                    "time": 52.43399399999995,
                    "velocity": 0.36220472440944884,
                    "duration": 0.043988249999998175
                },
                {
                    "name": "G#5",
                    "midi": 80,
                    "time": 52.60994699999995,
                    "velocity": 0.3858267716535433,
                    "duration": 0.043988249999998175
                },
                {
                    "name": "F5",
                    "midi": 77,
                    "time": 52.60994699999995,
                    "velocity": 0.31496062992125984,
                    "duration": 0.043988249999998175
                },
                {
                    "name": "G5",
                    "midi": 79,
                    "time": 52.78589999999995,
                    "velocity": 0.4015748031496063,
                    "duration": 0.043988249999998175
                },
                {
                    "name": "D#5",
                    "midi": 75,
                    "time": 52.78589999999995,
                    "velocity": 0.33858267716535434,
                    "duration": 0.043988249999998175
                },
                {
                    "name": "F5",
                    "midi": 77,
                    "time": 52.96185299999995,
                    "velocity": 0.36220472440944884,
                    "duration": 0.043988249999998175
                },
                {
                    "name": "A#4",
                    "midi": 70,
                    "time": 52.96185299999995,
                    "velocity": 0.2992125984251969,
                    "duration": 0.043988249999998175
                },
                {
                    "name": "D#5",
                    "midi": 75,
                    "time": 53.13780599999995,
                    "velocity": 0.4251968503937008,
                    "duration": 0.043988249999998175
                },
                {
                    "name": "G4",
                    "midi": 67,
                    "time": 53.13780599999995,
                    "velocity": 0.36220472440944884,
                    "duration": 0.043988249999998175
                },
                {
                    "name": "G4",
                    "midi": 67,
                    "time": 53.401735499999944,
                    "velocity": 0.3779527559055118,
                    "duration": 0.08797650000000345
                },
                {
                    "name": "D#4",
                    "midi": 63,
                    "time": 53.401735499999944,
                    "velocity": 0.31496062992125984,
                    "duration": 0.08797650000000345
                },
                {
                    "name": "G#4",
                    "midi": 68,
                    "time": 53.48971199999995,
                    "velocity": 0.48031496062992124,
                    "duration": 0.1759529999999998
                },
                {
                    "name": "F4",
                    "midi": 65,
                    "time": 53.48971199999995,
                    "velocity": 0.4094488188976378,
                    "duration": 0.1759529999999998
                },
                {
                    "name": "A#4",
                    "midi": 70,
                    "time": 53.66566499999995,
                    "velocity": 0.3543307086614173,
                    "duration": 0.043988249999998175
                },
                {
                    "name": "G#4",
                    "midi": 68,
                    "time": 53.709653249999946,
                    "velocity": 0.3543307086614173,
                    "duration": 0.043988249999998175
                },
                {
                    "name": "G4",
                    "midi": 67,
                    "time": 53.753641499999944,
                    "velocity": 0.4015748031496063,
                    "duration": 0.08797650000000345
                },
                {
                    "name": "E4",
                    "midi": 64,
                    "time": 53.753641499999944,
                    "velocity": 0.33858267716535434,
                    "duration": 0.08797650000000345
                },
                {
                    "name": "G#4",
                    "midi": 68,
                    "time": 53.84161799999995,
                    "velocity": 0.4409448818897638,
                    "duration": 0.043988249999998175
                },
                {
                    "name": "F4",
                    "midi": 65,
                    "time": 53.84161799999995,
                    "velocity": 0.3700787401574803,
                    "duration": 0.043988249999998175
                },
                {
                    "name": "A4",
                    "midi": 69,
                    "time": 54.01757099999995,
                    "velocity": 0.4251968503937008,
                    "duration": 0.043988249999998175
                },
                {
                    "name": "F#4",
                    "midi": 66,
                    "time": 54.01757099999995,
                    "velocity": 0.36220472440944884,
                    "duration": 0.043988249999998175
                },
                {
                    "name": "A#4",
                    "midi": 70,
                    "time": 54.19352399999995,
                    "velocity": 0.4645669291338583,
                    "duration": 0.1759529999999998
                },
                {
                    "name": "G4",
                    "midi": 67,
                    "time": 54.19352399999995,
                    "velocity": 0.3937007874015748,
                    "duration": 0.1759529999999998
                },
                {
                    "name": "C#6",
                    "midi": 85,
                    "time": 54.545429999999946,
                    "velocity": 0.5433070866141733,
                    "duration": 0.3519059999999996
                },
                {
                    "name": "A#5",
                    "midi": 82,
                    "time": 54.545429999999946,
                    "velocity": 0.4330708661417323,
                    "duration": 0.3519059999999996
                },
                {
                    "name": "C6",
                    "midi": 84,
                    "time": 54.897335999999946,
                    "velocity": 0.4566929133858268,
                    "duration": 0.26392950000000326
                },
                {
                    "name": "G#5",
                    "midi": 80,
                    "time": 54.897335999999946,
                    "velocity": 0.3779527559055118,
                    "duration": 0.26392950000000326
                },
                {
                    "name": "D6",
                    "midi": 86,
                    "time": 55.16126549999995,
                    "velocity": 0.33858267716535434,
                    "duration": 0.043988249999998175
                },
                {
                    "name": "C6",
                    "midi": 84,
                    "time": 55.20525374999995,
                    "velocity": 0.3858267716535433,
                    "duration": 0.043988249999998175
                },
                {
                    "name": "A#5",
                    "midi": 82,
                    "time": 55.249241999999946,
                    "velocity": 0.4251968503937008,
                    "duration": 0.043988249999998175
                },
                {
                    "name": "G5",
                    "midi": 79,
                    "time": 55.249241999999946,
                    "velocity": 0.36220472440944884,
                    "duration": 0.043988249999998175
                },
                {
                    "name": "G#5",
                    "midi": 80,
                    "time": 55.425194999999945,
                    "velocity": 0.3858267716535433,
                    "duration": 0.043988249999998175
                },
                {
                    "name": "F5",
                    "midi": 77,
                    "time": 55.425194999999945,
                    "velocity": 0.31496062992125984,
                    "duration": 0.043988249999998175
                },
                {
                    "name": "G5",
                    "midi": 79,
                    "time": 55.601147999999945,
                    "velocity": 0.4015748031496063,
                    "duration": 0.043988249999998175
                },
                {
                    "name": "D#5",
                    "midi": 75,
                    "time": 55.601147999999945,
                    "velocity": 0.33858267716535434,
                    "duration": 0.043988249999998175
                },
                {
                    "name": "F5",
                    "midi": 77,
                    "time": 55.777100999999945,
                    "velocity": 0.36220472440944884,
                    "duration": 0.043988249999998175
                },
                {
                    "name": "A#4",
                    "midi": 70,
                    "time": 55.777100999999945,
                    "velocity": 0.2992125984251969,
                    "duration": 0.043988249999998175
                },
                {
                    "name": "D#5",
                    "midi": 75,
                    "time": 55.953053999999945,
                    "velocity": 0.4251968503937008,
                    "duration": 0.043988249999998175
                },
                {
                    "name": "G4",
                    "midi": 67,
                    "time": 55.953053999999945,
                    "velocity": 0.36220472440944884,
                    "duration": 0.043988249999998175
                },
                {
                    "name": "G4",
                    "midi": 67,
                    "time": 56.21698349999994,
                    "velocity": 0.3779527559055118,
                    "duration": 0.08797650000000345
                },
                {
                    "name": "D#4",
                    "midi": 63,
                    "time": 56.21698349999994,
                    "velocity": 0.31496062992125984,
                    "duration": 0.08797650000000345
                },
                {
                    "name": "G#4",
                    "midi": 68,
                    "time": 56.304959999999944,
                    "velocity": 0.48031496062992124,
                    "duration": 0.1759529999999998
                },
                {
                    "name": "F4",
                    "midi": 65,
                    "time": 56.304959999999944,
                    "velocity": 0.4094488188976378,
                    "duration": 0.1759529999999998
                },
                {
                    "name": "A#4",
                    "midi": 70,
                    "time": 56.480912999999944,
                    "velocity": 0.3543307086614173,
                    "duration": 0.043988249999998175
                },
                {
                    "name": "G#4",
                    "midi": 68,
                    "time": 56.52490124999994,
                    "velocity": 0.3543307086614173,
                    "duration": 0.043988249999998175
                },
                {
                    "name": "G4",
                    "midi": 67,
                    "time": 56.56888949999994,
                    "velocity": 0.4015748031496063,
                    "duration": 0.08797650000000345
                },
                {
                    "name": "E4",
                    "midi": 64,
                    "time": 56.56888949999994,
                    "velocity": 0.33858267716535434,
                    "duration": 0.08797650000000345
                },
                {
                    "name": "G#4",
                    "midi": 68,
                    "time": 56.656865999999944,
                    "velocity": 0.4409448818897638,
                    "duration": 0.043988249999998175
                },
                {
                    "name": "F4",
                    "midi": 65,
                    "time": 56.656865999999944,
                    "velocity": 0.3700787401574803,
                    "duration": 0.043988249999998175
                },
                {
                    "name": "A#4",
                    "midi": 70,
                    "time": 56.832818999999944,
                    "velocity": 0.4251968503937008,
                    "duration": 0.043988249999998175
                },
                {
                    "name": "D4",
                    "midi": 62,
                    "time": 56.832818999999944,
                    "velocity": 0.36220472440944884,
                    "duration": 0.043988249999998175
                },
                {
                    "name": "D#4",
                    "midi": 63,
                    "time": 57.008771999999944,
                    "velocity": 0.4645669291338583,
                    "duration": 0.1759529999999998
                },
                {
                    "name": "A#5",
                    "midi": 82,
                    "time": 57.36067799999994,
                    "velocity": 0.49606299212598426,
                    "duration": 0.30791775000000143
                },
                {
                    "name": "D#6",
                    "midi": 87,
                    "time": 57.38267212499994,
                    "velocity": 0.5275590551181102,
                    "duration": 0.28592362500000235
                },
                {
                    "name": "C#7",
                    "midi": 97,
                    "time": 57.40466624999994,
                    "velocity": 0.5590551181102362,
                    "duration": 0.26392950000000326
                },
                {
                    "name": "G#5",
                    "midi": 80,
                    "time": 57.668595749999945,
                    "velocity": 0.5039370078740157,
                    "duration": 0.30791775000000143
                },
                {
                    "name": "D#6",
                    "midi": 87,
                    "time": 57.690589874999944,
                    "velocity": 0.5196850393700787,
                    "duration": 0.28592362500000235
                },
                {
                    "name": "C7",
                    "midi": 96,
                    "time": 57.71258399999994,
                    "velocity": 0.5433070866141733,
                    "duration": 0.26392950000000326
                },
                {
                    "name": "A#6",
                    "midi": 94,
                    "time": 57.976513499999946,
                    "velocity": 0.31496062992125984,
                    "duration": 0.043988249999998175
                },
                {
                    "name": "D7",
                    "midi": 98,
                    "time": 57.976513499999946,
                    "velocity": 0.3779527559055118,
                    "duration": 0.043988249999998175
                },
                {
                    "name": "G#6",
                    "midi": 92,
                    "time": 58.020501749999944,
                    "velocity": 0.33070866141732286,
                    "duration": 0.043988249999998175
                },
                {
                    "name": "C7",
                    "midi": 96,
                    "time": 58.020501749999944,
                    "velocity": 0.4330708661417323,
                    "duration": 0.043988249999998175
                },
                {
                    "name": "A#6",
                    "midi": 94,
                    "time": 58.06448999999994,
                    "velocity": 0.48031496062992124,
                    "duration": 0.08797650000000345
                },
                {
                    "name": "G6",
                    "midi": 91,
                    "time": 58.06448999999994,
                    "velocity": 0.48031496062992124,
                    "duration": 0.08797650000000345
                },
                {
                    "name": "G#6",
                    "midi": 92,
                    "time": 58.24044299999995,
                    "velocity": 0.4015748031496063,
                    "duration": 0.043988249999998175
                },
                {
                    "name": "F6",
                    "midi": 89,
                    "time": 58.24044299999995,
                    "velocity": 0.4015748031496063,
                    "duration": 0.043988249999998175
                },
                {
                    "name": "G6",
                    "midi": 91,
                    "time": 58.41639599999995,
                    "velocity": 0.4409448818897638,
                    "duration": 0.043988249999998175
                },
                {
                    "name": "D#6",
                    "midi": 87,
                    "time": 58.41639599999995,
                    "velocity": 0.4409448818897638,
                    "duration": 0.043988249999998175
                },
                {
                    "name": "F6",
                    "midi": 89,
                    "time": 58.59234899999995,
                    "velocity": 0.3858267716535433,
                    "duration": 0.043988249999998175
                },
                {
                    "name": "A#5",
                    "midi": 82,
                    "time": 58.59234899999995,
                    "velocity": 0.3858267716535433,
                    "duration": 0.043988249999998175
                },
                {
                    "name": "D#6",
                    "midi": 87,
                    "time": 58.76830199999995,
                    "velocity": 0.4330708661417323,
                    "duration": 0.043988249999998175
                },
                {
                    "name": "G5",
                    "midi": 79,
                    "time": 58.76830199999995,
                    "velocity": 0.4330708661417323,
                    "duration": 0.043988249999998175
                },
                {
                    "name": "D#4",
                    "midi": 63,
                    "time": 59.07621974999995,
                    "velocity": 0.31496062992125984,
                    "duration": 0.043988249999998175
                },
                {
                    "name": "G4",
                    "midi": 67,
                    "time": 59.07621974999995,
                    "velocity": 0.3779527559055118,
                    "duration": 0.043988249999998175
                },
                {
                    "name": "G#4",
                    "midi": 68,
                    "time": 59.12020799999995,
                    "velocity": 0.48031496062992124,
                    "duration": 0.1759529999999998
                },
                {
                    "name": "F4",
                    "midi": 65,
                    "time": 59.12020799999995,
                    "velocity": 0.4094488188976378,
                    "duration": 0.1759529999999998
                },
                {
                    "name": "A#4",
                    "midi": 70,
                    "time": 59.29616099999995,
                    "velocity": 0.3543307086614173,
                    "duration": 0.043988249999998175
                },
                {
                    "name": "G#4",
                    "midi": 68,
                    "time": 59.340149249999946,
                    "velocity": 0.3543307086614173,
                    "duration": 0.043988249999998175
                },
                {
                    "name": "G4",
                    "midi": 67,
                    "time": 59.384137499999945,
                    "velocity": 0.4015748031496063,
                    "duration": 0.08797650000000345
                },
                {
                    "name": "E4",
                    "midi": 64,
                    "time": 59.384137499999945,
                    "velocity": 0.33858267716535434,
                    "duration": 0.08797650000000345
                },
                {
                    "name": "G#4",
                    "midi": 68,
                    "time": 59.47211399999995,
                    "velocity": 0.4409448818897638,
                    "duration": 0.043988249999998175
                },
                {
                    "name": "F4",
                    "midi": 65,
                    "time": 59.47211399999995,
                    "velocity": 0.3700787401574803,
                    "duration": 0.043988249999998175
                },
                {
                    "name": "A4",
                    "midi": 69,
                    "time": 59.64806699999995,
                    "velocity": 0.4251968503937008,
                    "duration": 0.043988249999998175
                },
                {
                    "name": "F#4",
                    "midi": 66,
                    "time": 59.64806699999995,
                    "velocity": 0.36220472440944884,
                    "duration": 0.043988249999998175
                },
                {
                    "name": "A#4",
                    "midi": 70,
                    "time": 59.82401999999995,
                    "velocity": 0.4645669291338583,
                    "duration": 0.1759529999999998
                },
                {
                    "name": "G4",
                    "midi": 67,
                    "time": 59.82401999999995,
                    "velocity": 0.3937007874015748,
                    "duration": 0.1759529999999998
                },
                {
                    "name": "A#5",
                    "midi": 82,
                    "time": 60.17592599999995,
                    "velocity": 0.48031496062992124,
                    "duration": 0.26392949999999615
                },
                {
                    "name": "D#6",
                    "midi": 87,
                    "time": 60.197920124999946,
                    "velocity": 0.5118110236220472,
                    "duration": 0.28592362499999524
                },
                {
                    "name": "C#7",
                    "midi": 97,
                    "time": 60.219914249999945,
                    "velocity": 0.5354330708661418,
                    "duration": 0.26392949999999615
                },
                {
                    "name": "G#5",
                    "midi": 80,
                    "time": 60.48384374999994,
                    "velocity": 0.48031496062992124,
                    "duration": 0.30791775000000143
                },
                {
                    "name": "D#6",
                    "midi": 87,
                    "time": 60.50583787499994,
                    "velocity": 0.5039370078740157,
                    "duration": 0.28592362500000235
                },
                {
                    "name": "C7",
                    "midi": 96,
                    "time": 60.52783199999994,
                    "velocity": 0.5275590551181102,
                    "duration": 0.26392950000000326
                },
                {
                    "name": "A#6",
                    "midi": 94,
                    "time": 60.79176149999994,
                    "velocity": 0.2440944881889764,
                    "duration": 0.043988249999998175
                },
                {
                    "name": "D7",
                    "midi": 98,
                    "time": 60.79176149999994,
                    "velocity": 0.4015748031496063,
                    "duration": 0.043988249999998175
                },
                {
                    "name": "G#6",
                    "midi": 92,
                    "time": 60.83574974999994,
                    "velocity": 0.33070866141732286,
                    "duration": 0.043988249999998175
                },
                {
                    "name": "C7",
                    "midi": 96,
                    "time": 60.83574974999994,
                    "velocity": 0.4330708661417323,
                    "duration": 0.043988249999998175
                },
                {
                    "name": "A#6",
                    "midi": 94,
                    "time": 60.87973799999994,
                    "velocity": 0.47244094488188976,
                    "duration": 0.08797650000000345
                },
                {
                    "name": "G6",
                    "midi": 91,
                    "time": 60.87973799999994,
                    "velocity": 0.47244094488188976,
                    "duration": 0.08797650000000345
                },
                {
                    "name": "G#6",
                    "midi": 92,
                    "time": 61.055690999999946,
                    "velocity": 0.4251968503937008,
                    "duration": 0.043988249999998175
                },
                {
                    "name": "F6",
                    "midi": 89,
                    "time": 61.055690999999946,
                    "velocity": 0.4251968503937008,
                    "duration": 0.043988249999998175
                },
                {
                    "name": "G6",
                    "midi": 91,
                    "time": 61.231643999999946,
                    "velocity": 0.4566929133858268,
                    "duration": 0.043988249999998175
                },
                {
                    "name": "D#6",
                    "midi": 87,
                    "time": 61.231643999999946,
                    "velocity": 0.4566929133858268,
                    "duration": 0.043988249999998175
                },
                {
                    "name": "F6",
                    "midi": 89,
                    "time": 61.407596999999946,
                    "velocity": 0.4251968503937008,
                    "duration": 0.043988249999998175
                },
                {
                    "name": "A#5",
                    "midi": 82,
                    "time": 61.407596999999946,
                    "velocity": 0.4251968503937008,
                    "duration": 0.043988249999998175
                },
                {
                    "name": "D#6",
                    "midi": 87,
                    "time": 61.583549999999946,
                    "velocity": 0.49606299212598426,
                    "duration": 0.043988249999998175
                },
                {
                    "name": "G5",
                    "midi": 79,
                    "time": 61.583549999999946,
                    "velocity": 0.49606299212598426,
                    "duration": 0.043988249999998175
                },
                {
                    "name": "G4",
                    "midi": 67,
                    "time": 61.84747949999994,
                    "velocity": 0.3779527559055118,
                    "duration": 0.08797650000000345
                },
                {
                    "name": "D#4",
                    "midi": 63,
                    "time": 61.84747949999994,
                    "velocity": 0.31496062992125984,
                    "duration": 0.08797650000000345
                },
                {
                    "name": "G#4",
                    "midi": 68,
                    "time": 61.935455999999945,
                    "velocity": 0.48031496062992124,
                    "duration": 0.5278589999999994
                },
                {
                    "name": "F4",
                    "midi": 65,
                    "time": 61.935455999999945,
                    "velocity": 0.4094488188976378,
                    "duration": 0.5278589999999994
                },
                {
                    "name": "E4",
                    "midi": 64,
                    "time": 62.463314999999945,
                    "velocity": 0.33858267716535434,
                    "duration": 0.1759529999999998
                },
                {
                    "name": "G4",
                    "midi": 67,
                    "time": 62.463314999999945,
                    "velocity": 0.4015748031496063,
                    "duration": 0.18255123750000024
                },
                {
                    "name": "F4",
                    "midi": 65,
                    "time": 62.639267999999944,
                    "velocity": 0.3700787401574803,
                    "duration": 0.043988249999998175
                },
                {
                    "name": "G#4",
                    "midi": 68,
                    "time": 62.639267999999944,
                    "velocity": 0.4409448818897638,
                    "duration": 0.043988249999998175
                },
                {
                    "name": "D4",
                    "midi": 62,
                    "time": 62.991173999999944,
                    "velocity": 0.36220472440944884,
                    "duration": 0.043988249999998175
                },
                {
                    "name": "A#4",
                    "midi": 70,
                    "time": 62.991173999999944,
                    "velocity": 0.4251968503937008,
                    "duration": 0.043988249999998175
                },
                {
                    "name": "A#3",
                    "midi": 58,
                    "time": 63.62900362499994,
                    "velocity": 0.31496062992125984,
                    "duration": 0.10997062499999544
                },
                {
                    "name": "D#4",
                    "midi": 63,
                    "time": 63.65099774999994,
                    "velocity": 0.33070866141732286,
                    "duration": 0.08797649999999635
                },
                {
                    "name": "G4",
                    "midi": 67,
                    "time": 63.67299187499994,
                    "velocity": 0.3464566929133858,
                    "duration": 0.06598237499999726
                },
                {
                    "name": "A#4",
                    "midi": 70,
                    "time": 63.694985999999936,
                    "velocity": 0.36220472440944884,
                    "duration": 0.043988249999998175
                },
                {
                    "name": "G4",
                    "midi": 67,
                    "time": 64.33281562499994,
                    "velocity": 0.31496062992125984,
                    "duration": 0.10997062500001675
                },
                {
                    "name": "A#4",
                    "midi": 70,
                    "time": 64.35480974999994,
                    "velocity": 0.33070866141732286,
                    "duration": 0.08797650000001056
                },
                {
                    "name": "D#5",
                    "midi": 75,
                    "time": 64.37680387499995,
                    "velocity": 0.3464566929133858,
                    "duration": 0.06598237500000437
                },
                {
                    "name": "G5",
                    "midi": 79,
                    "time": 64.39879799999996,
                    "velocity": 0.36220472440944884,
                    "duration": 0.043988249999998175
                },
                {
                    "name": "G5",
                    "midi": 79,
                    "time": 65.03662762499995,
                    "velocity": 0.33070866141732286,
                    "duration": 0.10997062500001675
                },
                {
                    "name": "A#5",
                    "midi": 82,
                    "time": 65.05862174999996,
                    "velocity": 0.3464566929133858,
                    "duration": 0.08797650000001056
                },
                {
                    "name": "D#6",
                    "midi": 87,
                    "time": 65.08061587499996,
                    "velocity": 0.3543307086614173,
                    "duration": 0.06598237500000437
                },
                {
                    "name": "G6",
                    "midi": 91,
                    "time": 65.10260999999997,
                    "velocity": 0.3700787401574803,
                    "duration": 0.043988249999998175
                },
                {
                    "name": "A#4",
                    "midi": 70,
                    "time": 66.07035149999997,
                    "velocity": 0.31496062992125984,
                    "duration": 0.08797649999999635
                },
                {
                    "name": "G4",
                    "midi": 67,
                    "time": 66.07035149999997,
                    "velocity": 0.2677165354330709,
                    "duration": 0.08797649999999635
                },
                {
                    "name": "G#4",
                    "midi": 68,
                    "time": 66.15832799999997,
                    "velocity": 0.3543307086614173,
                    "duration": 0.08797649999999635
                },
                {
                    "name": "F4",
                    "midi": 65,
                    "time": 66.15832799999997,
                    "velocity": 0.2992125984251969,
                    "duration": 0.08797649999999635
                },
                {
                    "name": "D#5",
                    "midi": 75,
                    "time": 66.24630449999997,
                    "velocity": 0.31496062992125984,
                    "duration": 0.08797649999999635
                },
                {
                    "name": "C5",
                    "midi": 72,
                    "time": 66.24630449999997,
                    "velocity": 0.2677165354330709,
                    "duration": 0.08797649999999635
                },
                {
                    "name": "D5",
                    "midi": 74,
                    "time": 66.33428099999996,
                    "velocity": 0.3543307086614173,
                    "duration": 0.08797649999999635
                },
                {
                    "name": "A#4",
                    "midi": 70,
                    "time": 66.33428099999996,
                    "velocity": 0.2992125984251969,
                    "duration": 0.08797649999999635
                },
                {
                    "name": "G5",
                    "midi": 79,
                    "time": 66.42225749999996,
                    "velocity": 0.3228346456692913,
                    "duration": 0.08797649999999635
                },
                {
                    "name": "D#5",
                    "midi": 75,
                    "time": 66.42225749999996,
                    "velocity": 0.2677165354330709,
                    "duration": 0.08797649999999635
                },
                {
                    "name": "F5",
                    "midi": 77,
                    "time": 66.51023399999995,
                    "velocity": 0.3779527559055118,
                    "duration": 0.08797649999999635
                },
                {
                    "name": "D5",
                    "midi": 74,
                    "time": 66.51023399999995,
                    "velocity": 0.31496062992125984,
                    "duration": 0.08797649999999635
                },
                {
                    "name": "C6",
                    "midi": 84,
                    "time": 66.59821049999995,
                    "velocity": 0.33858267716535434,
                    "duration": 0.08797649999999635
                },
                {
                    "name": "G#5",
                    "midi": 80,
                    "time": 66.59821049999995,
                    "velocity": 0.28346456692913385,
                    "duration": 0.08797649999999635
                },
                {
                    "name": "A#5",
                    "midi": 82,
                    "time": 66.68618699999995,
                    "velocity": 0.33858267716535434,
                    "duration": 0.08797649999999635
                },
                {
                    "name": "G5",
                    "midi": 79,
                    "time": 66.68618699999995,
                    "velocity": 0.28346456692913385,
                    "duration": 0.08797649999999635
                },
                {
                    "name": "G#5",
                    "midi": 80,
                    "time": 66.77416349999994,
                    "velocity": 0.33858267716535434,
                    "duration": 0.08797649999999635
                },
                {
                    "name": "F5",
                    "midi": 77,
                    "time": 66.77416349999994,
                    "velocity": 0.28346456692913385,
                    "duration": 0.08797649999999635
                },
                {
                    "name": "G5",
                    "midi": 79,
                    "time": 66.86213999999994,
                    "velocity": 0.3858267716535433,
                    "duration": 0.08797649999999635
                },
                {
                    "name": "D#5",
                    "midi": 75,
                    "time": 66.86213999999994,
                    "velocity": 0.3858267716535433,
                    "duration": 0.08797649999999635
                },
                {
                    "name": "F5",
                    "midi": 77,
                    "time": 66.95011649999994,
                    "velocity": 0.3464566929133858,
                    "duration": 0.08797649999999635
                },
                {
                    "name": "D5",
                    "midi": 74,
                    "time": 66.95011649999994,
                    "velocity": 0.29133858267716534,
                    "duration": 0.08797649999999635
                },
                {
                    "name": "D#5",
                    "midi": 75,
                    "time": 67.03809299999993,
                    "velocity": 0.3464566929133858,
                    "duration": 0.08797649999999635
                },
                {
                    "name": "C5",
                    "midi": 72,
                    "time": 67.03809299999993,
                    "velocity": 0.29133858267716534,
                    "duration": 0.08797649999999635
                },
                {
                    "name": "D5",
                    "midi": 74,
                    "time": 67.12606949999993,
                    "velocity": 0.3464566929133858,
                    "duration": 0.08797649999999635
                },
                {
                    "name": "A#4",
                    "midi": 70,
                    "time": 67.12606949999993,
                    "velocity": 0.29133858267716534,
                    "duration": 0.08797649999999635
                },
                {
                    "name": "C5",
                    "midi": 72,
                    "time": 67.21404599999993,
                    "velocity": 0.3700787401574803,
                    "duration": 0.08797649999999635
                },
                {
                    "name": "G#4",
                    "midi": 68,
                    "time": 67.21404599999993,
                    "velocity": 0.30708661417322836,
                    "duration": 0.08797649999999635
                },
                {
                    "name": "A#4",
                    "midi": 70,
                    "time": 67.30202249999992,
                    "velocity": 0.3543307086614173,
                    "duration": 0.08797649999999635
                },
                {
                    "name": "G4",
                    "midi": 67,
                    "time": 67.30202249999992,
                    "velocity": 0.2992125984251969,
                    "duration": 0.08797649999999635
                },
                {
                    "name": "A4",
                    "midi": 69,
                    "time": 67.38999899999992,
                    "velocity": 0.33858267716535434,
                    "duration": 0.043988249999998175
                },
                {
                    "name": "F#4",
                    "midi": 66,
                    "time": 67.38999899999992,
                    "velocity": 0.28346456692913385,
                    "duration": 0.043988249999998175
                },
                {
                    "name": "G#4",
                    "midi": 68,
                    "time": 67.52196374999991,
                    "velocity": 0.31496062992125984,
                    "duration": 0.043988249999998175
                },
                {
                    "name": "F4",
                    "midi": 65,
                    "time": 67.52196374999991,
                    "velocity": 0.2677165354330709,
                    "duration": 0.043988249999998175
                },
                {
                    "name": "G4",
                    "midi": 67,
                    "time": 67.56595199999991,
                    "velocity": 0.3543307086614173,
                    "duration": 0.3519059999999996
                },
                {
                    "name": "D#4",
                    "midi": 63,
                    "time": 67.56595199999991,
                    "velocity": 0.2992125984251969,
                    "duration": 0.3519059999999996
                },
                {
                    "name": "A#3",
                    "midi": 58,
                    "time": 69.2594996249999,
                    "velocity": 0.31496062992125984,
                    "duration": 0.10997062500001675
                },
                {
                    "name": "D#4",
                    "midi": 63,
                    "time": 69.28149374999991,
                    "velocity": 0.33070866141732286,
                    "duration": 0.08797650000001056
                },
                {
                    "name": "G4",
                    "midi": 67,
                    "time": 69.30348787499992,
                    "velocity": 0.3464566929133858,
                    "duration": 0.06598237500000437
                },
                {
                    "name": "A#4",
                    "midi": 70,
                    "time": 69.32548199999992,
                    "velocity": 0.36220472440944884,
                    "duration": 0.043988249999998175
                },
                {
                    "name": "G4",
                    "midi": 67,
                    "time": 69.96331162499992,
                    "velocity": 0.31496062992125984,
                    "duration": 0.10997062500001675
                },
                {
                    "name": "A#4",
                    "midi": 70,
                    "time": 69.98530574999992,
                    "velocity": 0.33070866141732286,
                    "duration": 0.08797650000001056
                },
                {
                    "name": "D#5",
                    "midi": 75,
                    "time": 70.00729987499993,
                    "velocity": 0.3464566929133858,
                    "duration": 0.06598237500000437
                },
                {
                    "name": "G5",
                    "midi": 79,
                    "time": 70.02929399999994,
                    "velocity": 0.36220472440944884,
                    "duration": 0.043988249999998175
                },
                {
                    "name": "G5",
                    "midi": 79,
                    "time": 70.66712362499993,
                    "velocity": 0.33070866141732286,
                    "duration": 0.10997062500001675
                },
                {
                    "name": "A#5",
                    "midi": 82,
                    "time": 70.68911774999994,
                    "velocity": 0.3464566929133858,
                    "duration": 0.08797650000001056
                },
                {
                    "name": "D#6",
                    "midi": 87,
                    "time": 70.71111187499994,
                    "velocity": 0.3543307086614173,
                    "duration": 0.06598237500000437
                },
                {
                    "name": "G6",
                    "midi": 91,
                    "time": 70.73310599999995,
                    "velocity": 0.3700787401574803,
                    "duration": 0.043988249999998175
                },
                {
                    "name": "A#4",
                    "midi": 70,
                    "time": 71.70084749999995,
                    "velocity": 0.31496062992125984,
                    "duration": 0.08797649999999635
                },
                {
                    "name": "G4",
                    "midi": 67,
                    "time": 71.70084749999995,
                    "velocity": 0.2677165354330709,
                    "duration": 0.08797649999999635
                },
                {
                    "name": "G4",
                    "midi": 67,
                    "time": 71.78882399999995,
                    "velocity": 0.31496062992125984,
                    "duration": 0.058650999999997566
                },
                {
                    "name": "A#4",
                    "midi": 70,
                    "time": 71.78882399999995,
                    "velocity": 0.3543307086614173,
                    "duration": 0.058650999999997566
                },
                {
                    "name": "F#4",
                    "midi": 66,
                    "time": 71.84747499999995,
                    "velocity": 0.28346456692913385,
                    "duration": 0.058650999999997566
                },
                {
                    "name": "A4",
                    "midi": 69,
                    "time": 71.84747499999995,
                    "velocity": 0.3228346456692913,
                    "duration": 0.058650999999997566
                },
                {
                    "name": "F4",
                    "midi": 65,
                    "time": 71.90612599999994,
                    "velocity": 0.28346456692913385,
                    "duration": 0.058650999999997566
                },
                {
                    "name": "G#4",
                    "midi": 68,
                    "time": 71.90612599999994,
                    "velocity": 0.3228346456692913,
                    "duration": 0.058650999999997566
                },
                {
                    "name": "C5",
                    "midi": 72,
                    "time": 71.96477699999994,
                    "velocity": 0.31496062992125984,
                    "duration": 0.058650999999997566
                },
                {
                    "name": "D#5",
                    "midi": 75,
                    "time": 71.96477699999994,
                    "velocity": 0.3543307086614173,
                    "duration": 0.11730199999999513
                },
                {
                    "name": "B4",
                    "midi": 71,
                    "time": 72.02342799999994,
                    "velocity": 0.31496062992125984,
                    "duration": 0.058650999999997566
                },
                {
                    "name": "A#4",
                    "midi": 70,
                    "time": 72.08207899999994,
                    "velocity": 0.2677165354330709,
                    "duration": 0.058650999999997566
                },
                {
                    "name": "D5",
                    "midi": 74,
                    "time": 72.08207899999994,
                    "velocity": 0.31496062992125984,
                    "duration": 0.058650999999997566
                },
                {
                    "name": "D#5",
                    "midi": 75,
                    "time": 72.14072999999993,
                    "velocity": 0.3464566929133858,
                    "duration": 0.11730199999999513
                },
                {
                    "name": "G5",
                    "midi": 79,
                    "time": 72.14072999999993,
                    "velocity": 0.4015748031496063,
                    "duration": 0.058650999999997566
                },
                {
                    "name": "F#5",
                    "midi": 78,
                    "time": 72.19938099999993,
                    "velocity": 0.3858267716535433,
                    "duration": 0.058650999999997566
                },
                {
                    "name": "D5",
                    "midi": 74,
                    "time": 72.25803199999993,
                    "velocity": 0.33070866141732286,
                    "duration": 0.058650999999997566
                },
                {
                    "name": "F5",
                    "midi": 77,
                    "time": 72.25803199999993,
                    "velocity": 0.3858267716535433,
                    "duration": 0.058650999999997566
                },
                {
                    "name": "C6",
                    "midi": 84,
                    "time": 72.31668299999993,
                    "velocity": 0.47244094488188976,
                    "duration": 0.043988249999998175
                },
                {
                    "name": "G#5",
                    "midi": 80,
                    "time": 72.31668299999993,
                    "velocity": 0.41732283464566927,
                    "duration": 0.043988249999998175
                },
                {
                    "name": "G5",
                    "midi": 79,
                    "time": 72.53662424999993,
                    "velocity": 0.3543307086614173,
                    "duration": 0.043988249999998175
                },
                {
                    "name": "E5",
                    "midi": 76,
                    "time": 72.53662424999993,
                    "velocity": 0.3543307086614173,
                    "duration": 0.043988249999998175
                },
                {
                    "name": "G#5",
                    "midi": 80,
                    "time": 72.58061249999993,
                    "velocity": 0.3543307086614173,
                    "duration": 0.043988249999998175
                },
                {
                    "name": "F5",
                    "midi": 77,
                    "time": 72.58061249999993,
                    "velocity": 0.3543307086614173,
                    "duration": 0.043988249999998175
                },
                {
                    "name": "E5",
                    "midi": 76,
                    "time": 72.62460074999993,
                    "velocity": 0.3543307086614173,
                    "duration": 0.043988249999998175
                },
                {
                    "name": "C#5",
                    "midi": 73,
                    "time": 72.62460074999993,
                    "velocity": 0.3543307086614173,
                    "duration": 0.043988249999998175
                },
                {
                    "name": "D5",
                    "midi": 74,
                    "time": 72.66858899999993,
                    "velocity": 0.3543307086614173,
                    "duration": 0.043988249999998175
                },
                {
                    "name": "F5",
                    "midi": 77,
                    "time": 72.66858899999993,
                    "velocity": 0.3543307086614173,
                    "duration": 0.043988249999998175
                },
                {
                    "name": "C#5",
                    "midi": 73,
                    "time": 72.71257724999992,
                    "velocity": 0.3543307086614173,
                    "duration": 0.043988249999998175
                },
                {
                    "name": "A4",
                    "midi": 69,
                    "time": 72.71257724999992,
                    "velocity": 0.3543307086614173,
                    "duration": 0.043988249999998175
                },
                {
                    "name": "A#4",
                    "midi": 70,
                    "time": 72.75656549999992,
                    "velocity": 0.3543307086614173,
                    "duration": 0.043988249999998175
                },
                {
                    "name": "D5",
                    "midi": 74,
                    "time": 72.75656549999992,
                    "velocity": 0.3543307086614173,
                    "duration": 0.043988249999998175
                },
                {
                    "name": "G4",
                    "midi": 67,
                    "time": 72.80055374999992,
                    "velocity": 0.3543307086614173,
                    "duration": 0.043988249999998175
                },
                {
                    "name": "B4",
                    "midi": 71,
                    "time": 72.80055374999992,
                    "velocity": 0.3543307086614173,
                    "duration": 0.043988249999998175
                },
                {
                    "name": "G#4",
                    "midi": 68,
                    "time": 72.84454199999992,
                    "velocity": 0.3543307086614173,
                    "duration": 0.043988249999998175
                },
                {
                    "name": "C5",
                    "midi": 72,
                    "time": 72.84454199999992,
                    "velocity": 0.3543307086614173,
                    "duration": 0.043988249999998175
                },
                {
                    "name": "E4",
                    "midi": 64,
                    "time": 72.93251849999992,
                    "velocity": 0.3543307086614173,
                    "duration": 0.043988249999998175
                },
                {
                    "name": "G4",
                    "midi": 67,
                    "time": 72.93251849999992,
                    "velocity": 0.3543307086614173,
                    "duration": 0.043988249999998175
                },
                {
                    "name": "G4",
                    "midi": 67,
                    "time": 73.02049499999991,
                    "velocity": 0.3543307086614173,
                    "duration": 0.043988249999998175
                },
                {
                    "name": "A#4",
                    "midi": 70,
                    "time": 73.02049499999991,
                    "velocity": 0.3543307086614173,
                    "duration": 0.043988249999998175
                },
                {
                    "name": "F4",
                    "midi": 65,
                    "time": 73.10847149999991,
                    "velocity": 0.3543307086614173,
                    "duration": 0.043988249999998175
                },
                {
                    "name": "G#4",
                    "midi": 68,
                    "time": 73.10847149999991,
                    "velocity": 0.3543307086614173,
                    "duration": 0.043988249999998175
                },
                {
                    "name": "G4",
                    "midi": 67,
                    "time": 73.1964479999999,
                    "velocity": 0.3543307086614173,
                    "duration": 0.3519059999999996
                },
                {
                    "name": "D#4",
                    "midi": 63,
                    "time": 73.1964479999999,
                    "velocity": 0.2992125984251969,
                    "duration": 0.3519059999999996
                },
                {
                    "name": "A#3",
                    "midi": 58,
                    "time": 74.5600837499999,
                    "velocity": 0.2992125984251969,
                    "duration": 0.043988249999998175
                },
                {
                    "name": "D#4",
                    "midi": 63,
                    "time": 74.6040719999999,
                    "velocity": 0.4094488188976378,
                    "duration": 0.26392950000000326
                },
                {
                    "name": "G4",
                    "midi": 67,
                    "time": 74.8680014999999,
                    "velocity": 0.30708661417322836,
                    "duration": 0.032991187500002184
                },
                {
                    "name": "G4",
                    "midi": 67,
                    "time": 74.9119897499999,
                    "velocity": 0.28346456692913385,
                    "duration": 0.032991187500002184
                },
                {
                    "name": "G#4",
                    "midi": 68,
                    "time": 74.9559779999999,
                    "velocity": 0.30708661417322836,
                    "duration": 0.032991187500002184
                },
                {
                    "name": "G#4",
                    "midi": 68,
                    "time": 74.9999662499999,
                    "velocity": 0.28346456692913385,
                    "duration": 0.032991187500002184
                },
                {
                    "name": "A4",
                    "midi": 69,
                    "time": 75.0439544999999,
                    "velocity": 0.30708661417322836,
                    "duration": 0.032991187500002184
                },
                {
                    "name": "A4",
                    "midi": 69,
                    "time": 75.0879427499999,
                    "velocity": 0.28346456692913385,
                    "duration": 0.032991187500002184
                },
                {
                    "name": "A#4",
                    "midi": 70,
                    "time": 75.1319309999999,
                    "velocity": 0.30708661417322836,
                    "duration": 0.032991187500002184
                },
                {
                    "name": "A#4",
                    "midi": 70,
                    "time": 75.1759192499999,
                    "velocity": 0.28346456692913385,
                    "duration": 0.032991187500002184
                },
                {
                    "name": "D#5",
                    "midi": 75,
                    "time": 75.21990749999989,
                    "velocity": 0.30708661417322836,
                    "duration": 0.032991187500002184
                },
                {
                    "name": "D#5",
                    "midi": 75,
                    "time": 75.26389574999989,
                    "velocity": 0.28346456692913385,
                    "duration": 0.032991187500002184
                },
                {
                    "name": "G5",
                    "midi": 79,
                    "time": 75.30788399999989,
                    "velocity": 0.30708661417322836,
                    "duration": 0.032991187500002184
                },
                {
                    "name": "G5",
                    "midi": 79,
                    "time": 75.35187224999989,
                    "velocity": 0.2755905511811024,
                    "duration": 0.032991187500002184
                },
                {
                    "name": "G#5",
                    "midi": 80,
                    "time": 75.39586049999988,
                    "velocity": 0.30708661417322836,
                    "duration": 0.032991187500002184
                },
                {
                    "name": "G#5",
                    "midi": 80,
                    "time": 75.43984874999988,
                    "velocity": 0.2755905511811024,
                    "duration": 0.032991187500002184
                },
                {
                    "name": "A5",
                    "midi": 81,
                    "time": 75.48383699999988,
                    "velocity": 0.30708661417322836,
                    "duration": 0.032991187500002184
                },
                {
                    "name": "A5",
                    "midi": 81,
                    "time": 75.52782524999988,
                    "velocity": 0.2677165354330709,
                    "duration": 0.032991187500002184
                },
                {
                    "name": "A#5",
                    "midi": 82,
                    "time": 75.57181349999988,
                    "velocity": 0.30708661417322836,
                    "duration": 0.032991187500002184
                },
                {
                    "name": "A#5",
                    "midi": 82,
                    "time": 75.61580174999987,
                    "velocity": 0.2677165354330709,
                    "duration": 0.032991187500002184
                },
                {
                    "name": "D#6",
                    "midi": 87,
                    "time": 75.65978999999987,
                    "velocity": 0.30708661417322836,
                    "duration": 0.032991187500002184
                },
                {
                    "name": "D#6",
                    "midi": 87,
                    "time": 75.70377824999987,
                    "velocity": 0.2677165354330709,
                    "duration": 0.032991187500002184
                },
                {
                    "name": "G6",
                    "midi": 91,
                    "time": 75.74776649999987,
                    "velocity": 0.30708661417322836,
                    "duration": 0.032991187500002184
                },
                {
                    "name": "G6",
                    "midi": 91,
                    "time": 75.79175474999987,
                    "velocity": 0.2755905511811024,
                    "duration": 0.032991187500002184
                },
                {
                    "name": "G#6",
                    "midi": 92,
                    "time": 75.83574299999987,
                    "velocity": 0.3228346456692913,
                    "duration": 0.032991187500002184
                },
                {
                    "name": "G#6",
                    "midi": 92,
                    "time": 75.87973124999986,
                    "velocity": 0.28346456692913385,
                    "duration": 0.032991187500002184
                },
                {
                    "name": "A6",
                    "midi": 93,
                    "time": 75.92371949999986,
                    "velocity": 0.33070866141732286,
                    "duration": 0.032991187500002184
                },
                {
                    "name": "A6",
                    "midi": 93,
                    "time": 75.96770774999986,
                    "velocity": 0.29133858267716534,
                    "duration": 0.032991187500002184
                },
                {
                    "name": "A6",
                    "midi": 93,
                    "time": 76.01169599999986,
                    "velocity": 0.33858267716535434,
                    "duration": 0.043988249999998175
                },
                {
                    "name": "A#6",
                    "midi": 94,
                    "time": 76.05568424999986,
                    "velocity": 0.2992125984251969,
                    "duration": 0.043988249999998175
                },
                {
                    "name": "C7",
                    "midi": 96,
                    "time": 76.09967249999985,
                    "velocity": 0.2992125984251969,
                    "duration": 0.043988249999998175
                },
                {
                    "name": "A#6",
                    "midi": 94,
                    "time": 76.14366074999985,
                    "velocity": 0.2677165354330709,
                    "duration": 0.043988249999998175
                },
                {
                    "name": "G6",
                    "midi": 91,
                    "time": 76.18764899999985,
                    "velocity": 0.33070866141732286,
                    "duration": 0.043988249999998175
                },
                {
                    "name": "D#6",
                    "midi": 87,
                    "time": 76.23163724999985,
                    "velocity": 0.2755905511811024,
                    "duration": 0.043988249999998175
                },
                {
                    "name": "C6",
                    "midi": 84,
                    "time": 76.27562549999985,
                    "velocity": 0.3228346456692913,
                    "duration": 0.043988249999998175
                },
                {
                    "name": "A#5",
                    "midi": 82,
                    "time": 76.31961374999985,
                    "velocity": 0.2677165354330709,
                    "duration": 0.043988249999998175
                },
                {
                    "name": "G5",
                    "midi": 79,
                    "time": 76.36360199999984,
                    "velocity": 0.31496062992125984,
                    "duration": 0.043988249999998175
                },
                {
                    "name": "D#5",
                    "midi": 75,
                    "time": 76.40759024999984,
                    "velocity": 0.25984251968503935,
                    "duration": 0.043988249999998175
                },
                {
                    "name": "C5",
                    "midi": 72,
                    "time": 76.45157849999984,
                    "velocity": 0.2992125984251969,
                    "duration": 0.043988249999998175
                },
                {
                    "name": "A#4",
                    "midi": 70,
                    "time": 76.49556674999984,
                    "velocity": 0.25196850393700787,
                    "duration": 0.043988249999998175
                },
                {
                    "name": "G4",
                    "midi": 67,
                    "time": 76.53955499999984,
                    "velocity": 0.2992125984251969,
                    "duration": 0.043988249999998175
                },
                {
                    "name": "D#4",
                    "midi": 63,
                    "time": 76.58354324999983,
                    "velocity": 0.25984251968503935,
                    "duration": 0.043988249999998175
                },
                {
                    "name": "D4",
                    "midi": 62,
                    "time": 76.62753149999983,
                    "velocity": 0.29133858267716534,
                    "duration": 0.043988249999998175
                },
                {
                    "name": "D#4",
                    "midi": 63,
                    "time": 76.67151974999983,
                    "velocity": 0.2677165354330709,
                    "duration": 0.043988249999998175
                },
                {
                    "name": "G4",
                    "midi": 67,
                    "time": 76.71550799999983,
                    "velocity": 0.25984251968503935,
                    "duration": 0.043988249999998175
                },
                {
                    "name": "A#4",
                    "midi": 70,
                    "time": 76.75949624999983,
                    "velocity": 0.2677165354330709,
                    "duration": 0.043988249999998175
                },
                {
                    "name": "D#5",
                    "midi": 75,
                    "time": 76.80348449999983,
                    "velocity": 0.2755905511811024,
                    "duration": 0.043988249999998175
                },
                {
                    "name": "G5",
                    "midi": 79,
                    "time": 76.84747274999982,
                    "velocity": 0.28346456692913385,
                    "duration": 0.043988249999998175
                },
                {
                    "name": "A#5",
                    "midi": 82,
                    "time": 76.89146099999982,
                    "velocity": 0.2992125984251969,
                    "duration": 0.043988249999998175
                },
                {
                    "name": "D#6",
                    "midi": 87,
                    "time": 76.93544924999982,
                    "velocity": 0.30708661417322836,
                    "duration": 0.043988249999998175
                },
                {
                    "name": "G6",
                    "midi": 91,
                    "time": 76.97943749999982,
                    "velocity": 0.31496062992125984,
                    "duration": 0.043988249999998175
                },
                {
                    "name": "A#6",
                    "midi": 94,
                    "time": 77.02342574999982,
                    "velocity": 0.3228346456692913,
                    "duration": 0.043988249999998175
                },
                {
                    "name": "D#7",
                    "midi": 99,
                    "time": 77.06741399999981,
                    "velocity": 0.3700787401574803,
                    "duration": 0.1759530000000069
                },
                {
                    "name": "A#4",
                    "midi": 70,
                    "time": 77.33134349999982,
                    "velocity": 0.30708661417322836,
                    "duration": 0.043988249999998175
                },
                {
                    "name": "G4",
                    "midi": 67,
                    "time": 77.33134349999982,
                    "velocity": 0.25984251968503935,
                    "duration": 0.043988249999998175
                },
                {
                    "name": "G#4",
                    "midi": 68,
                    "time": 77.41931999999981,
                    "velocity": 0.3700787401574803,
                    "duration": 0.058650999999997566
                },
                {
                    "name": "F4",
                    "midi": 65,
                    "time": 77.41931999999981,
                    "velocity": 0.30708661417322836,
                    "duration": 0.058650999999997566
                },
                {
                    "name": "A#5",
                    "midi": 82,
                    "time": 77.53662199999981,
                    "velocity": 0.30708661417322836,
                    "duration": 0.058650999999997566
                },
                {
                    "name": "G4",
                    "midi": 67,
                    "time": 77.6539239999998,
                    "velocity": 0.30708661417322836,
                    "duration": 0.058650999999997566
                },
                {
                    "name": "E4",
                    "midi": 64,
                    "time": 77.6539239999998,
                    "velocity": 0.25984251968503935,
                    "duration": 0.058650999999997566
                },
                {
                    "name": "G#4",
                    "midi": 68,
                    "time": 77.7712259999998,
                    "velocity": 0.36220472440944884,
                    "duration": 0.058650999999997566
                },
                {
                    "name": "F4",
                    "midi": 65,
                    "time": 77.7712259999998,
                    "velocity": 0.30708661417322836,
                    "duration": 0.058650999999997566
                },
                {
                    "name": "A#6",
                    "midi": 94,
                    "time": 77.8885279999998,
                    "velocity": 0.3228346456692913,
                    "duration": 0.058650999999997566
                },
                {
                    "name": "A#4",
                    "midi": 70,
                    "time": 78.00582999999979,
                    "velocity": 0.3228346456692913,
                    "duration": 0.058650999999997566
                },
                {
                    "name": "G4",
                    "midi": 67,
                    "time": 78.00582999999979,
                    "velocity": 0.2677165354330709,
                    "duration": 0.058650999999997566
                },
                {
                    "name": "C5",
                    "midi": 72,
                    "time": 78.12313199999979,
                    "velocity": 0.3700787401574803,
                    "duration": 0.058650999999997566
                },
                {
                    "name": "G#4",
                    "midi": 68,
                    "time": 78.12313199999979,
                    "velocity": 0.30708661417322836,
                    "duration": 0.058650999999997566
                },
                {
                    "name": "A#5",
                    "midi": 82,
                    "time": 78.24043399999978,
                    "velocity": 0.3228346456692913,
                    "duration": 0.058650999999997566
                },
                {
                    "name": "D5",
                    "midi": 74,
                    "time": 78.35773599999978,
                    "velocity": 0.3228346456692913,
                    "duration": 0.058650999999997566
                },
                {
                    "name": "A#4",
                    "midi": 70,
                    "time": 78.35773599999978,
                    "velocity": 0.2677165354330709,
                    "duration": 0.058650999999997566
                },
                {
                    "name": "D#5",
                    "midi": 75,
                    "time": 78.47503799999977,
                    "velocity": 0.3543307086614173,
                    "duration": 0.058650999999997566
                },
                {
                    "name": "C5",
                    "midi": 72,
                    "time": 78.47503799999977,
                    "velocity": 0.2992125984251969,
                    "duration": 0.058650999999997566
                },
                {
                    "name": "A#6",
                    "midi": 94,
                    "time": 78.59233999999977,
                    "velocity": 0.31496062992125984,
                    "duration": 0.058650999999997566
                },
                {
                    "name": "F5",
                    "midi": 77,
                    "time": 78.70964199999976,
                    "velocity": 0.31496062992125984,
                    "duration": 0.058650999999997566
                },
                {
                    "name": "D5",
                    "midi": 74,
                    "time": 78.70964199999976,
                    "velocity": 0.2677165354330709,
                    "duration": 0.058650999999997566
                },
                {
                    "name": "G5",
                    "midi": 79,
                    "time": 78.82694399999976,
                    "velocity": 0.36220472440944884,
                    "duration": 0.058650999999997566
                },
                {
                    "name": "D#5",
                    "midi": 75,
                    "time": 78.82694399999976,
                    "velocity": 0.30708661417322836,
                    "duration": 0.058650999999997566
                },
                {
                    "name": "F5",
                    "midi": 77,
                    "time": 78.88559499999975,
                    "velocity": 0.31496062992125984,
                    "duration": 0.058650999999997566
                },
                {
                    "name": "A#4",
                    "midi": 70,
                    "time": 78.88559499999975,
                    "velocity": 0.2677165354330709,
                    "duration": 0.058650999999997566
                },
                {
                    "name": "D#5",
                    "midi": 75,
                    "time": 78.94424599999975,
                    "velocity": 0.31496062992125984,
                    "duration": 0.058650999999997566
                },
                {
                    "name": "G4",
                    "midi": 67,
                    "time": 78.94424599999975,
                    "velocity": 0.2677165354330709,
                    "duration": 0.058650999999997566
                },
                {
                    "name": "F5",
                    "midi": 77,
                    "time": 79.00289699999975,
                    "velocity": 0.31496062992125984,
                    "duration": 0.058650999999997566
                },
                {
                    "name": "A#4",
                    "midi": 70,
                    "time": 79.00289699999975,
                    "velocity": 0.2677165354330709,
                    "duration": 0.058650999999997566
                },
                {
                    "name": "G5",
                    "midi": 79,
                    "time": 79.06154799999975,
                    "velocity": 0.31496062992125984,
                    "duration": 0.05865100000001178
                },
                {
                    "name": "D#5",
                    "midi": 75,
                    "time": 79.06154799999975,
                    "velocity": 0.2677165354330709,
                    "duration": 0.05865100000001178
                },
                {
                    "name": "F5",
                    "midi": 77,
                    "time": 79.11946586249975,
                    "velocity": 0.2677165354330709,
                    "duration": 0.05865100000001178
                },
                {
                    "name": "A#5",
                    "midi": 82,
                    "time": 79.12019899999976,
                    "velocity": 0.3228346456692913,
                    "duration": 0.05865100000001178
                },
                {
                    "name": "D#6",
                    "midi": 87,
                    "time": 79.17884999999977,
                    "velocity": 0.33858267716535434,
                    "duration": 0.058650999999997566
                },
                {
                    "name": "G5",
                    "midi": 79,
                    "time": 79.17884999999977,
                    "velocity": 0.28346456692913385,
                    "duration": 0.058650999999997566
                },
                {
                    "name": "F6",
                    "midi": 89,
                    "time": 79.23750099999977,
                    "velocity": 0.3464566929133858,
                    "duration": 0.058650999999997566
                },
                {
                    "name": "A#5",
                    "midi": 82,
                    "time": 79.23750099999977,
                    "velocity": 0.29133858267716534,
                    "duration": 0.058650999999997566
                },
                {
                    "name": "G6",
                    "midi": 91,
                    "time": 79.29615199999976,
                    "velocity": 0.3543307086614173,
                    "duration": 0.058650999999997566
                },
                {
                    "name": "D#6",
                    "midi": 87,
                    "time": 79.29615199999976,
                    "velocity": 0.2992125984251969,
                    "duration": 0.058650999999997566
                },
                {
                    "name": "A#6",
                    "midi": 94,
                    "time": 79.35480299999976,
                    "velocity": 0.3543307086614173,
                    "duration": 0.058650999999997566
                },
                {
                    "name": "F6",
                    "midi": 89,
                    "time": 79.35480299999976,
                    "velocity": 0.2992125984251969,
                    "duration": 0.058650999999997566
                },
                {
                    "name": "D#7",
                    "midi": 99,
                    "time": 79.41345399999976,
                    "velocity": 0.36220472440944884,
                    "duration": 0.058650999999997566
                },
                {
                    "name": "G6",
                    "midi": 91,
                    "time": 79.41345399999976,
                    "velocity": 0.30708661417322836,
                    "duration": 0.058650999999997566
                },
                {
                    "name": "F7",
                    "midi": 101,
                    "time": 79.47210499999976,
                    "velocity": 0.3700787401574803,
                    "duration": 0.058650999999997566
                },
                {
                    "name": "A#6",
                    "midi": 94,
                    "time": 79.47210499999976,
                    "velocity": 0.30708661417322836,
                    "duration": 0.058650999999997566
                },
                {
                    "name": "D#7",
                    "midi": 99,
                    "time": 79.53075599999976,
                    "velocity": 0.44881889763779526,
                    "duration": 0.08797649999999635
                },
                {
                    "name": "G7",
                    "midi": 103,
                    "time": 79.53075599999976,
                    "velocity": 0.44881889763779526,
                    "duration": 0.08797649999999635
                },
                {
                    "name": "A#3",
                    "midi": 58,
                    "time": 80.14659149999976,
                    "velocity": 0.2992125984251969,
                    "duration": 0.08797649999999635
                },
                {
                    "name": "D#4",
                    "midi": 63,
                    "time": 80.23456799999975,
                    "velocity": 0.4094488188976378,
                    "duration": 0.26392950000000326
                },
                {
                    "name": "G4",
                    "midi": 67,
                    "time": 80.49849749999976,
                    "velocity": 0.30708661417322836,
                    "duration": 0.032991187500002184
                },
                {
                    "name": "G4",
                    "midi": 67,
                    "time": 80.54248574999976,
                    "velocity": 0.28346456692913385,
                    "duration": 0.032991187500002184
                },
                {
                    "name": "G#4",
                    "midi": 68,
                    "time": 80.58647399999975,
                    "velocity": 0.30708661417322836,
                    "duration": 0.032991187500002184
                },
                {
                    "name": "G#4",
                    "midi": 68,
                    "time": 80.63046224999975,
                    "velocity": 0.28346456692913385,
                    "duration": 0.032991187500002184
                },
                {
                    "name": "A4",
                    "midi": 69,
                    "time": 80.67445049999975,
                    "velocity": 0.30708661417322836,
                    "duration": 0.032991187500002184
                },
                {
                    "name": "A4",
                    "midi": 69,
                    "time": 80.71843874999975,
                    "velocity": 0.28346456692913385,
                    "duration": 0.032991187500002184
                },
                {
                    "name": "A#4",
                    "midi": 70,
                    "time": 80.76242699999975,
                    "velocity": 0.30708661417322836,
                    "duration": 0.032991187500002184
                },
                {
                    "name": "A#4",
                    "midi": 70,
                    "time": 80.80641524999974,
                    "velocity": 0.28346456692913385,
                    "duration": 0.032991187500002184
                },
                {
                    "name": "D#5",
                    "midi": 75,
                    "time": 80.85040349999974,
                    "velocity": 0.30708661417322836,
                    "duration": 0.032991187500002184
                },
                {
                    "name": "D#5",
                    "midi": 75,
                    "time": 80.89439174999974,
                    "velocity": 0.28346456692913385,
                    "duration": 0.032991187500002184
                },
                {
                    "name": "G5",
                    "midi": 79,
                    "time": 80.93837999999974,
                    "velocity": 0.30708661417322836,
                    "duration": 0.032991187500002184
                },
                {
                    "name": "G5",
                    "midi": 79,
                    "time": 80.98236824999974,
                    "velocity": 0.2755905511811024,
                    "duration": 0.032991187500002184
                },
                {
                    "name": "G#5",
                    "midi": 80,
                    "time": 81.02635649999974,
                    "velocity": 0.30708661417322836,
                    "duration": 0.032991187500002184
                },
                {
                    "name": "G#5",
                    "midi": 80,
                    "time": 81.07034474999973,
                    "velocity": 0.2755905511811024,
                    "duration": 0.032991187500002184
                },
                {
                    "name": "A5",
                    "midi": 81,
                    "time": 81.11433299999973,
                    "velocity": 0.30708661417322836,
                    "duration": 0.032991187500002184
                },
                {
                    "name": "A5",
                    "midi": 81,
                    "time": 81.15832124999973,
                    "velocity": 0.2677165354330709,
                    "duration": 0.032991187500002184
                },
                {
                    "name": "A#5",
                    "midi": 82,
                    "time": 81.20230949999973,
                    "velocity": 0.30708661417322836,
                    "duration": 0.032991187500002184
                },
                {
                    "name": "A#5",
                    "midi": 82,
                    "time": 81.24629774999973,
                    "velocity": 0.2677165354330709,
                    "duration": 0.032991187500002184
                },
                {
                    "name": "D#6",
                    "midi": 87,
                    "time": 81.29028599999972,
                    "velocity": 0.30708661417322836,
                    "duration": 0.032991187500002184
                },
                {
                    "name": "D#6",
                    "midi": 87,
                    "time": 81.33427424999972,
                    "velocity": 0.2677165354330709,
                    "duration": 0.032991187500002184
                },
                {
                    "name": "G6",
                    "midi": 91,
                    "time": 81.37826249999972,
                    "velocity": 0.30708661417322836,
                    "duration": 0.032991187500002184
                },
                {
                    "name": "G6",
                    "midi": 91,
                    "time": 81.42225074999972,
                    "velocity": 0.2755905511811024,
                    "duration": 0.032991187500002184
                },
                {
                    "name": "G#6",
                    "midi": 92,
                    "time": 81.46623899999972,
                    "velocity": 0.3228346456692913,
                    "duration": 0.032991187500002184
                },
                {
                    "name": "G#6",
                    "midi": 92,
                    "time": 81.51022724999972,
                    "velocity": 0.28346456692913385,
                    "duration": 0.032991187500002184
                },
                {
                    "name": "A6",
                    "midi": 93,
                    "time": 81.55421549999971,
                    "velocity": 0.33070866141732286,
                    "duration": 0.032991187500002184
                },
                {
                    "name": "A6",
                    "midi": 93,
                    "time": 81.59820374999971,
                    "velocity": 0.29133858267716534,
                    "duration": 0.032991187500002184
                },
                {
                    "name": "A6",
                    "midi": 93,
                    "time": 81.64219199999971,
                    "velocity": 0.33858267716535434,
                    "duration": 0.043988249999998175
                },
                {
                    "name": "A#6",
                    "midi": 94,
                    "time": 81.68618024999971,
                    "velocity": 0.2992125984251969,
                    "duration": 0.043988249999998175
                },
                {
                    "name": "C7",
                    "midi": 96,
                    "time": 81.7301684999997,
                    "velocity": 0.2992125984251969,
                    "duration": 0.043988249999998175
                },
                {
                    "name": "A#6",
                    "midi": 94,
                    "time": 81.7741567499997,
                    "velocity": 0.2677165354330709,
                    "duration": 0.043988249999998175
                },
                {
                    "name": "G6",
                    "midi": 91,
                    "time": 81.8181449999997,
                    "velocity": 0.33070866141732286,
                    "duration": 0.043988249999998175
                },
                {
                    "name": "D#6",
                    "midi": 87,
                    "time": 81.8621332499997,
                    "velocity": 0.2755905511811024,
                    "duration": 0.043988249999998175
                },
                {
                    "name": "C6",
                    "midi": 84,
                    "time": 81.9061214999997,
                    "velocity": 0.3228346456692913,
                    "duration": 0.043988249999998175
                },
                {
                    "name": "A#5",
                    "midi": 82,
                    "time": 81.9501097499997,
                    "velocity": 0.2677165354330709,
                    "duration": 0.043988249999998175
                },
                {
                    "name": "G5",
                    "midi": 79,
                    "time": 81.9940979999997,
                    "velocity": 0.31496062992125984,
                    "duration": 0.043988249999998175
                },
                {
                    "name": "D#5",
                    "midi": 75,
                    "time": 82.0380862499997,
                    "velocity": 0.25984251968503935,
                    "duration": 0.043988249999998175
                },
                {
                    "name": "C5",
                    "midi": 72,
                    "time": 82.08207449999969,
                    "velocity": 0.2992125984251969,
                    "duration": 0.043988249999998175
                },
                {
                    "name": "A#4",
                    "midi": 70,
                    "time": 82.12606274999969,
                    "velocity": 0.25196850393700787,
                    "duration": 0.043988249999998175
                },
                {
                    "name": "G4",
                    "midi": 67,
                    "time": 82.17005099999969,
                    "velocity": 0.2992125984251969,
                    "duration": 0.043988249999998175
                },
                {
                    "name": "D#4",
                    "midi": 63,
                    "time": 82.21403924999969,
                    "velocity": 0.25984251968503935,
                    "duration": 0.043988249999998175
                },
                {
                    "name": "D4",
                    "midi": 62,
                    "time": 82.25802749999968,
                    "velocity": 0.29133858267716534,
                    "duration": 0.043988249999998175
                },
                {
                    "name": "D#4",
                    "midi": 63,
                    "time": 82.30201574999968,
                    "velocity": 0.2677165354330709,
                    "duration": 0.043988249999998175
                },
                {
                    "name": "G4",
                    "midi": 67,
                    "time": 82.34600399999968,
                    "velocity": 0.25984251968503935,
                    "duration": 0.043988249999998175
                },
                {
                    "name": "A#4",
                    "midi": 70,
                    "time": 82.38999224999968,
                    "velocity": 0.2677165354330709,
                    "duration": 0.043988249999998175
                },
                {
                    "name": "D#5",
                    "midi": 75,
                    "time": 82.43398049999968,
                    "velocity": 0.28346456692913385,
                    "duration": 0.043988249999998175
                },
                {
                    "name": "G5",
                    "midi": 79,
                    "time": 82.47796874999968,
                    "velocity": 0.2992125984251969,
                    "duration": 0.043988249999998175
                },
                {
                    "name": "A#5",
                    "midi": 82,
                    "time": 82.52195699999967,
                    "velocity": 0.3228346456692913,
                    "duration": 0.043988249999998175
                },
                {
                    "name": "D#6",
                    "midi": 87,
                    "time": 82.56594524999967,
                    "velocity": 0.33858267716535434,
                    "duration": 0.043988249999998175
                },
                {
                    "name": "G6",
                    "midi": 91,
                    "time": 82.60993349999967,
                    "velocity": 0.3543307086614173,
                    "duration": 0.043988249999998175
                },
                {
                    "name": "A#6",
                    "midi": 94,
                    "time": 82.65392174999967,
                    "velocity": 0.3700787401574803,
                    "duration": 0.043988249999998175
                },
                {
                    "name": "D#7",
                    "midi": 99,
                    "time": 82.69790999999967,
                    "velocity": 0.36220472440944884,
                    "duration": 0.1759530000000069
                },
                {
                    "name": "G7",
                    "midi": 103,
                    "time": 82.69790999999967,
                    "velocity": 0.4251968503937008,
                    "duration": 0.1759530000000069
                },
                {
                    "name": "G4",
                    "midi": 67,
                    "time": 83.00582774999967,
                    "velocity": 0.25984251968503935,
                    "duration": 0.032991187500002184
                },
                {
                    "name": "A#4",
                    "midi": 70,
                    "time": 83.00582774999967,
                    "velocity": 0.30708661417322836,
                    "duration": 0.032991187500002184
                },
                {
                    "name": "G#4",
                    "midi": 68,
                    "time": 83.04981599999967,
                    "velocity": 0.3700787401574803,
                    "duration": 0.058650999999997566
                },
                {
                    "name": "F4",
                    "midi": 65,
                    "time": 83.04981599999967,
                    "velocity": 0.30708661417322836,
                    "duration": 0.058650999999997566
                },
                {
                    "name": "A#5",
                    "midi": 82,
                    "time": 83.16711799999966,
                    "velocity": 0.30708661417322836,
                    "duration": 0.058650999999997566
                },
                {
                    "name": "G4",
                    "midi": 67,
                    "time": 83.28441999999966,
                    "velocity": 0.30708661417322836,
                    "duration": 0.058650999999997566
                },
                {
                    "name": "E4",
                    "midi": 64,
                    "time": 83.28441999999966,
                    "velocity": 0.25984251968503935,
                    "duration": 0.058650999999997566
                },
                {
                    "name": "G#4",
                    "midi": 68,
                    "time": 83.40172199999965,
                    "velocity": 0.36220472440944884,
                    "duration": 0.058650999999997566
                },
                {
                    "name": "F4",
                    "midi": 65,
                    "time": 83.40172199999965,
                    "velocity": 0.30708661417322836,
                    "duration": 0.058650999999997566
                },
                {
                    "name": "A#6",
                    "midi": 94,
                    "time": 83.51902399999965,
                    "velocity": 0.3228346456692913,
                    "duration": 0.058650999999997566
                },
                {
                    "name": "A#4",
                    "midi": 70,
                    "time": 83.63632599999964,
                    "velocity": 0.3228346456692913,
                    "duration": 0.058650999999997566
                },
                {
                    "name": "G4",
                    "midi": 67,
                    "time": 83.63632599999964,
                    "velocity": 0.2677165354330709,
                    "duration": 0.058650999999997566
                },
                {
                    "name": "C5",
                    "midi": 72,
                    "time": 83.75362799999964,
                    "velocity": 0.3700787401574803,
                    "duration": 0.058650999999997566
                },
                {
                    "name": "G#4",
                    "midi": 68,
                    "time": 83.75362799999964,
                    "velocity": 0.30708661417322836,
                    "duration": 0.058650999999997566
                },
                {
                    "name": "A#5",
                    "midi": 82,
                    "time": 83.87092999999963,
                    "velocity": 0.3228346456692913,
                    "duration": 0.058650999999997566
                },
                {
                    "name": "G4",
                    "midi": 67,
                    "time": 83.98823199999963,
                    "velocity": 0.2677165354330709,
                    "duration": 0.058650999999997566
                },
                {
                    "name": "A#4",
                    "midi": 70,
                    "time": 83.98823199999963,
                    "velocity": 0.3228346456692913,
                    "duration": 0.058650999999997566
                },
                {
                    "name": "G#4",
                    "midi": 68,
                    "time": 84.10553399999962,
                    "velocity": 0.3543307086614173,
                    "duration": 0.058650999999997566
                },
                {
                    "name": "F4",
                    "midi": 65,
                    "time": 84.10553399999962,
                    "velocity": 0.2992125984251969,
                    "duration": 0.058650999999997566
                },
                {
                    "name": "A#6",
                    "midi": 94,
                    "time": 84.22283599999962,
                    "velocity": 0.31496062992125984,
                    "duration": 0.058650999999997566
                },
                {
                    "name": "A#3",
                    "midi": 58,
                    "time": 84.34013799999961,
                    "velocity": 0.2677165354330709,
                    "duration": 0.058650999999997566
                },
                {
                    "name": "F4",
                    "midi": 65,
                    "time": 84.34013799999961,
                    "velocity": 0.31496062992125984,
                    "duration": 0.058650999999997566
                },
                {
                    "name": "G3",
                    "midi": 55,
                    "time": 84.45743999999961,
                    "velocity": 0.31496062992125984,
                    "duration": 0.3519059999999996
                },
                {
                    "name": "D#4",
                    "midi": 63,
                    "time": 84.45743999999961,
                    "velocity": 0.31496062992125984,
                    "duration": 0.3519059999999996
                },
                {
                    "name": "A#5",
                    "midi": 82,
                    "time": 85.5131579999996,
                    "velocity": 0.36220472440944884,
                    "duration": 0.058650999999997566
                },
                {
                    "name": "D#6",
                    "midi": 87,
                    "time": 85.5718089999996,
                    "velocity": 0.3543307086614173,
                    "duration": 0.058650999999997566
                },
                {
                    "name": "C#7",
                    "midi": 97,
                    "time": 85.6304599999996,
                    "velocity": 0.47244094488188976,
                    "duration": 0.058650999999997566
                },
                {
                    "name": "D#6",
                    "midi": 87,
                    "time": 85.6891109999996,
                    "velocity": 0.3543307086614173,
                    "duration": 0.058650999999997566
                },
                {
                    "name": "F6",
                    "midi": 89,
                    "time": 85.7477619999996,
                    "velocity": 0.3543307086614173,
                    "duration": 0.058650999999997566
                },
                {
                    "name": "D#6",
                    "midi": 87,
                    "time": 85.8064129999996,
                    "velocity": 0.3543307086614173,
                    "duration": 0.058650999999997566
                },
                {
                    "name": "G#5",
                    "midi": 80,
                    "time": 85.86506399999959,
                    "velocity": 0.41732283464566927,
                    "duration": 0.058650999999997566
                },
                {
                    "name": "D#6",
                    "midi": 87,
                    "time": 85.92371499999959,
                    "velocity": 0.36220472440944884,
                    "duration": 0.058650999999997566
                },
                {
                    "name": "C7",
                    "midi": 96,
                    "time": 85.98236599999959,
                    "velocity": 0.36220472440944884,
                    "duration": 0.058650999999997566
                },
                {
                    "name": "D#6",
                    "midi": 87,
                    "time": 86.04101699999958,
                    "velocity": 0.44881889763779526,
                    "duration": 0.058650999999997566
                },
                {
                    "name": "F6",
                    "midi": 89,
                    "time": 86.09966799999958,
                    "velocity": 0.36220472440944884,
                    "duration": 0.058650999999997566
                },
                {
                    "name": "D#6",
                    "midi": 87,
                    "time": 86.15831899999958,
                    "velocity": 0.36220472440944884,
                    "duration": 0.058650999999997566
                },
                {
                    "name": "G5",
                    "midi": 79,
                    "time": 86.21696999999958,
                    "velocity": 0.3779527559055118,
                    "duration": 0.06598237500000437
                },
                {
                    "name": "A#6",
                    "midi": 94,
                    "time": 86.30494649999959,
                    "velocity": 0.4094488188976378,
                    "duration": 0.06598237500000437
                },
                {
                    "name": "F5",
                    "midi": 77,
                    "time": 86.3929229999996,
                    "velocity": 0.3464566929133858,
                    "duration": 0.06598237500000437
                },
                {
                    "name": "G#6",
                    "midi": 92,
                    "time": 86.48089949999961,
                    "velocity": 0.4094488188976378,
                    "duration": 0.06598237500000437
                },
                {
                    "name": "D#5",
                    "midi": 75,
                    "time": 86.56887599999962,
                    "velocity": 0.3464566929133858,
                    "duration": 0.06598237500000437
                },
                {
                    "name": "G6",
                    "midi": 91,
                    "time": 86.65685249999963,
                    "velocity": 0.3700787401574803,
                    "duration": 0.06598237500000437
                },
                {
                    "name": "D5",
                    "midi": 74,
                    "time": 86.74482899999964,
                    "velocity": 0.3228346456692913,
                    "duration": 0.06598237500000437
                },
                {
                    "name": "F#6",
                    "midi": 90,
                    "time": 86.83280549999965,
                    "velocity": 0.3543307086614173,
                    "duration": 0.06598237500000437
                },
                {
                    "name": "D#5",
                    "midi": 75,
                    "time": 86.92078199999966,
                    "velocity": 0.31496062992125984,
                    "duration": 0.06598237500000437
                },
                {
                    "name": "G6",
                    "midi": 91,
                    "time": 87.00875849999967,
                    "velocity": 0.3543307086614173,
                    "duration": 0.06598237500000437
                },
                {
                    "name": "E5",
                    "midi": 76,
                    "time": 87.09673499999968,
                    "velocity": 0.3228346456692913,
                    "duration": 0.06598237500000437
                },
                {
                    "name": "G6",
                    "midi": 91,
                    "time": 87.1847114999997,
                    "velocity": 0.3543307086614173,
                    "duration": 0.06598237500000437
                },
                {
                    "name": "F5",
                    "midi": 77,
                    "time": 87.2726879999997,
                    "velocity": 0.33070866141732286,
                    "duration": 0.06598237500000437
                },
                {
                    "name": "G#6",
                    "midi": 92,
                    "time": 87.36066449999971,
                    "velocity": 0.3700787401574803,
                    "duration": 0.06598237500000437
                },
                {
                    "name": "E5",
                    "midi": 76,
                    "time": 87.44864099999972,
                    "velocity": 0.33858267716535434,
                    "duration": 0.06598237500000437
                },
                {
                    "name": "G6",
                    "midi": 91,
                    "time": 87.53661749999974,
                    "velocity": 0.3858267716535433,
                    "duration": 0.06598237500000437
                },
                {
                    "name": "F5",
                    "midi": 77,
                    "time": 87.62459399999975,
                    "velocity": 0.36220472440944884,
                    "duration": 0.06598237500000437
                },
                {
                    "name": "G#6",
                    "midi": 92,
                    "time": 87.71257049999976,
                    "velocity": 0.4094488188976378,
                    "duration": 0.06598237500000437
                },
                {
                    "name": "F#5",
                    "midi": 78,
                    "time": 87.80054699999977,
                    "velocity": 0.33858267716535434,
                    "duration": 0.06598237500000437
                },
                {
                    "name": "A6",
                    "midi": 93,
                    "time": 87.88852349999978,
                    "velocity": 0.36220472440944884,
                    "duration": 0.06598237500000437
                },
                {
                    "name": "G5",
                    "midi": 79,
                    "time": 87.97649999999979,
                    "velocity": 0.3700787401574803,
                    "duration": 0.06598237500000437
                },
                {
                    "name": "A#6",
                    "midi": 94,
                    "time": 88.0644764999998,
                    "velocity": 0.4330708661417323,
                    "duration": 0.06598237500000437
                },
                {
                    "name": "A#4",
                    "midi": 70,
                    "time": 88.3284059999998,
                    "velocity": 0.3543307086614173,
                    "duration": 0.058650999999997566
                },
                {
                    "name": "D#5",
                    "midi": 75,
                    "time": 88.3870569999998,
                    "velocity": 0.2992125984251969,
                    "duration": 0.058650999999997566
                },
                {
                    "name": "C#6",
                    "midi": 85,
                    "time": 88.4457079999998,
                    "velocity": 0.4566929133858268,
                    "duration": 0.058650999999997566
                },
                {
                    "name": "D#5",
                    "midi": 75,
                    "time": 88.5043589999998,
                    "velocity": 0.33070866141732286,
                    "duration": 0.058650999999997566
                },
                {
                    "name": "F5",
                    "midi": 77,
                    "time": 88.56300999999979,
                    "velocity": 0.2992125984251969,
                    "duration": 0.058650999999997566
                },
                {
                    "name": "D#5",
                    "midi": 75,
                    "time": 88.62166099999979,
                    "velocity": 0.31496062992125984,
                    "duration": 0.058650999999997566
                },
                {
                    "name": "G#4",
                    "midi": 68,
                    "time": 88.68031199999979,
                    "velocity": 0.3543307086614173,
                    "duration": 0.058650999999997566
                },
                {
                    "name": "D#5",
                    "midi": 75,
                    "time": 88.73896299999979,
                    "velocity": 0.2755905511811024,
                    "duration": 0.058650999999997566
                },
                {
                    "name": "C6",
                    "midi": 84,
                    "time": 88.79761399999978,
                    "velocity": 0.4015748031496063,
                    "duration": 0.058650999999997566
                },
                {
                    "name": "D#5",
                    "midi": 75,
                    "time": 88.85626499999978,
                    "velocity": 0.2755905511811024,
                    "duration": 0.058650999999997566
                },
                {
                    "name": "F5",
                    "midi": 77,
                    "time": 88.91491599999978,
                    "velocity": 0.2755905511811024,
                    "duration": 0.058650999999997566
                },
                {
                    "name": "D#5",
                    "midi": 75,
                    "time": 88.97356699999978,
                    "velocity": 0.2755905511811024,
                    "duration": 0.058650999999997566
                },
                {
                    "name": "G4",
                    "midi": 67,
                    "time": 89.03221799999977,
                    "velocity": 0.33070866141732286,
                    "duration": 0.06598237500000437
                },
                {
                    "name": "A#5",
                    "midi": 82,
                    "time": 89.12019449999978,
                    "velocity": 0.3779527559055118,
                    "duration": 0.06598237500000437
                },
                {
                    "name": "F4",
                    "midi": 65,
                    "time": 89.2081709999998,
                    "velocity": 0.3464566929133858,
                    "duration": 0.06598237500000437
                },
                {
                    "name": "G#5",
                    "midi": 80,
                    "time": 89.2961474999998,
                    "velocity": 0.3779527559055118,
                    "duration": 0.06598237500000437
                },
                {
                    "name": "D#4",
                    "midi": 63,
                    "time": 89.38412399999982,
                    "velocity": 0.31496062992125984,
                    "duration": 0.06598237500000437
                },
                {
                    "name": "G5",
                    "midi": 79,
                    "time": 89.47210049999983,
                    "velocity": 0.3700787401574803,
                    "duration": 0.06598237500000437
                },
                {
                    "name": "D4",
                    "midi": 62,
                    "time": 89.56007699999984,
                    "velocity": 0.30708661417322836,
                    "duration": 0.06598237500000437
                },
                {
                    "name": "F#5",
                    "midi": 78,
                    "time": 89.64805349999985,
                    "velocity": 0.36220472440944884,
                    "duration": 0.06598237500000437
                },
                {
                    "name": "D#4",
                    "midi": 63,
                    "time": 89.73602999999986,
                    "velocity": 0.2992125984251969,
                    "duration": 0.06598237500000437
                },
                {
                    "name": "G5",
                    "midi": 79,
                    "time": 89.82400649999987,
                    "velocity": 0.3543307086614173,
                    "duration": 0.06598237500000437
                },
                {
                    "name": "E4",
                    "midi": 64,
                    "time": 89.91198299999988,
                    "velocity": 0.2992125984251969,
                    "duration": 0.06598237500000437
                },
                {
                    "name": "G5",
                    "midi": 79,
                    "time": 89.99995949999989,
                    "velocity": 0.3700787401574803,
                    "duration": 0.06598237500000437
                },
                {
                    "name": "F4",
                    "midi": 65,
                    "time": 90.0879359999999,
                    "velocity": 0.3228346456692913,
                    "duration": 0.06598237500000437
                },
                {
                    "name": "G#5",
                    "midi": 80,
                    "time": 90.17591249999991,
                    "velocity": 0.3464566929133858,
                    "duration": 0.06598237500000437
                },
                {
                    "name": "E4",
                    "midi": 64,
                    "time": 90.26388899999992,
                    "velocity": 0.2992125984251969,
                    "duration": 0.06598237500000437
                },
                {
                    "name": "G5",
                    "midi": 79,
                    "time": 90.35186549999993,
                    "velocity": 0.36220472440944884,
                    "duration": 0.06598237500000437
                },
                {
                    "name": "F4",
                    "midi": 65,
                    "time": 90.43984199999994,
                    "velocity": 0.31496062992125984,
                    "duration": 0.06598237500000437
                },
                {
                    "name": "G#5",
                    "midi": 80,
                    "time": 90.52781849999995,
                    "velocity": 0.3543307086614173,
                    "duration": 0.06598237500000437
                },
                {
                    "name": "C#4",
                    "midi": 61,
                    "time": 90.61579499999996,
                    "velocity": 0.2992125984251969,
                    "duration": 0.06598237500000437
                },
                {
                    "name": "E5",
                    "midi": 76,
                    "time": 90.70377149999997,
                    "velocity": 0.3464566929133858,
                    "duration": 0.06598237500000437
                },
                {
                    "name": "D4",
                    "midi": 62,
                    "time": 90.79174799999998,
                    "velocity": 0.31496062992125984,
                    "duration": 0.06598237500000437
                },
                {
                    "name": "F5",
                    "midi": 77,
                    "time": 90.8797245,
                    "velocity": 0.36220472440944884,
                    "duration": 0.06598237500000437
                },
                {
                    "name": "A#5",
                    "midi": 82,
                    "time": 91.143654,
                    "velocity": 0.3937007874015748,
                    "duration": 0.058650999999997566
                },
                {
                    "name": "D#6",
                    "midi": 87,
                    "time": 91.202305,
                    "velocity": 0.3543307086614173,
                    "duration": 0.058650999999997566
                },
                {
                    "name": "C#7",
                    "midi": 97,
                    "time": 91.260956,
                    "velocity": 0.4251968503937008,
                    "duration": 0.058650999999997566
                },
                {
                    "name": "D#6",
                    "midi": 87,
                    "time": 91.31960699999999,
                    "velocity": 0.3543307086614173,
                    "duration": 0.058650999999997566
                },
                {
                    "name": "F6",
                    "midi": 89,
                    "time": 91.37825799999999,
                    "velocity": 0.3543307086614173,
                    "duration": 0.058650999999997566
                },
                {
                    "name": "D#6",
                    "midi": 87,
                    "time": 91.43690899999999,
                    "velocity": 0.3543307086614173,
                    "duration": 0.058650999999997566
                },
                {
                    "name": "G#5",
                    "midi": 80,
                    "time": 91.49555999999998,
                    "velocity": 0.3937007874015748,
                    "duration": 0.058650999999997566
                },
                {
                    "name": "D#6",
                    "midi": 87,
                    "time": 91.55421099999998,
                    "velocity": 0.36220472440944884,
                    "duration": 0.058650999999997566
                },
                {
                    "name": "C7",
                    "midi": 96,
                    "time": 91.61286199999998,
                    "velocity": 0.4251968503937008,
                    "duration": 0.058650999999997566
                },
                {
                    "name": "D#6",
                    "midi": 87,
                    "time": 91.67151299999998,
                    "velocity": 0.36220472440944884,
                    "duration": 0.058650999999997566
                },
                {
                    "name": "F6",
                    "midi": 89,
                    "time": 91.73016399999997,
                    "velocity": 0.36220472440944884,
                    "duration": 0.058650999999997566
                },
                {
                    "name": "D#6",
                    "midi": 87,
                    "time": 91.78881499999997,
                    "velocity": 0.36220472440944884,
                    "duration": 0.058650999999997566
                },
                {
                    "name": "G5",
                    "midi": 79,
                    "time": 91.84746599999997,
                    "velocity": 0.33070866141732286,
                    "duration": 0.06598237500000437
                },
                {
                    "name": "A#6",
                    "midi": 94,
                    "time": 91.93544249999998,
                    "velocity": 0.3858267716535433,
                    "duration": 0.06598237500000437
                },
                {
                    "name": "F5",
                    "midi": 77,
                    "time": 92.02341899999999,
                    "velocity": 0.3464566929133858,
                    "duration": 0.06598237500000437
                },
                {
                    "name": "G#6",
                    "midi": 92,
                    "time": 92.1113955,
                    "velocity": 0.3700787401574803,
                    "duration": 0.06598237500000437
                },
                {
                    "name": "D#5",
                    "midi": 75,
                    "time": 92.19937200000001,
                    "velocity": 0.3228346456692913,
                    "duration": 0.06598237500000437
                },
                {
                    "name": "G6",
                    "midi": 91,
                    "time": 92.28734850000002,
                    "velocity": 0.3779527559055118,
                    "duration": 0.06598237500000437
                },
                {
                    "name": "D5",
                    "midi": 74,
                    "time": 92.37532500000003,
                    "velocity": 0.3228346456692913,
                    "duration": 0.06598237500000437
                },
                {
                    "name": "F#6",
                    "midi": 90,
                    "time": 92.46330150000004,
                    "velocity": 0.36220472440944884,
                    "duration": 0.06598237500000437
                },
                {
                    "name": "D#5",
                    "midi": 75,
                    "time": 92.55127800000005,
                    "velocity": 0.3228346456692913,
                    "duration": 0.06598237500000437
                },
                {
                    "name": "G6",
                    "midi": 91,
                    "time": 92.63925450000006,
                    "velocity": 0.36220472440944884,
                    "duration": 0.06598237500000437
                },
                {
                    "name": "E5",
                    "midi": 76,
                    "time": 92.72723100000007,
                    "velocity": 0.31496062992125984,
                    "duration": 0.06598237500000437
                },
                {
                    "name": "G6",
                    "midi": 91,
                    "time": 92.81520750000008,
                    "velocity": 0.3543307086614173,
                    "duration": 0.06598237500000437
                },
                {
                    "name": "F5",
                    "midi": 77,
                    "time": 92.9031840000001,
                    "velocity": 0.30708661417322836,
                    "duration": 0.06598237500000437
                },
                {
                    "name": "G#6",
                    "midi": 92,
                    "time": 92.9911605000001,
                    "velocity": 0.3700787401574803,
                    "duration": 0.06598237500000437
                },
                {
                    "name": "E5",
                    "midi": 76,
                    "time": 93.07913700000012,
                    "velocity": 0.31496062992125984,
                    "duration": 0.06598237500000437
                },
                {
                    "name": "G6",
                    "midi": 91,
                    "time": 93.16711350000013,
                    "velocity": 0.36220472440944884,
                    "duration": 0.06598237500000437
                },
                {
                    "name": "F5",
                    "midi": 77,
                    "time": 93.25509000000014,
                    "velocity": 0.33858267716535434,
                    "duration": 0.06598237500000437
                },
                {
                    "name": "G#6",
                    "midi": 92,
                    "time": 93.34306650000015,
                    "velocity": 0.3779527559055118,
                    "duration": 0.06598237500000437
                },
                {
                    "name": "F#5",
                    "midi": 78,
                    "time": 93.43104300000016,
                    "velocity": 0.3543307086614173,
                    "duration": 0.06598237500000437
                },
                {
                    "name": "A6",
                    "midi": 93,
                    "time": 93.51901950000017,
                    "velocity": 0.4015748031496063,
                    "duration": 0.06598237500000437
                },
                {
                    "name": "G5",
                    "midi": 79,
                    "time": 93.60699600000018,
                    "velocity": 0.3700787401574803,
                    "duration": 0.06598237500000437
                },
                {
                    "name": "A#6",
                    "midi": 94,
                    "time": 93.69497250000019,
                    "velocity": 0.4094488188976378,
                    "duration": 0.06598237500000437
                },
                {
                    "name": "A#4",
                    "midi": 70,
                    "time": 93.9589020000002,
                    "velocity": 0.3543307086614173,
                    "duration": 0.058650999999997566
                },
                {
                    "name": "D#5",
                    "midi": 75,
                    "time": 94.01755300000019,
                    "velocity": 0.2992125984251969,
                    "duration": 0.058650999999997566
                },
                {
                    "name": "C#6",
                    "midi": 85,
                    "time": 94.07620400000019,
                    "velocity": 0.3937007874015748,
                    "duration": 0.058650999999997566
                },
                {
                    "name": "D#5",
                    "midi": 75,
                    "time": 94.13485500000019,
                    "velocity": 0.2992125984251969,
                    "duration": 0.058650999999997566
                },
                {
                    "name": "F5",
                    "midi": 77,
                    "time": 94.19350600000018,
                    "velocity": 0.2992125984251969,
                    "duration": 0.058650999999997566
                },
                {
                    "name": "D#5",
                    "midi": 75,
                    "time": 94.25215700000018,
                    "velocity": 0.31496062992125984,
                    "duration": 0.058650999999997566
                },
                {
                    "name": "G#4",
                    "midi": 68,
                    "time": 94.31080800000018,
                    "velocity": 0.3543307086614173,
                    "duration": 0.058650999999997566
                },
                {
                    "name": "D#5",
                    "midi": 75,
                    "time": 94.36945900000018,
                    "velocity": 0.2992125984251969,
                    "duration": 0.058650999999997566
                },
                {
                    "name": "C6",
                    "midi": 84,
                    "time": 94.42811000000017,
                    "velocity": 0.3779527559055118,
                    "duration": 0.058650999999997566
                },
                {
                    "name": "D#5",
                    "midi": 75,
                    "time": 94.48676100000017,
                    "velocity": 0.2992125984251969,
                    "duration": 0.058650999999997566
                },
                {
                    "name": "F5",
                    "midi": 77,
                    "time": 94.54541200000017,
                    "velocity": 0.2992125984251969,
                    "duration": 0.058650999999997566
                },
                {
                    "name": "D#5",
                    "midi": 75,
                    "time": 94.60406300000017,
                    "velocity": 0.2992125984251969,
                    "duration": 0.058650999999997566
                },
                {
                    "name": "G4",
                    "midi": 67,
                    "time": 94.66271400000016,
                    "velocity": 0.31496062992125984,
                    "duration": 0.06598237500000437
                },
                {
                    "name": "A#5",
                    "midi": 82,
                    "time": 94.75069050000018,
                    "velocity": 0.36220472440944884,
                    "duration": 0.06598237500000437
                },
                {
                    "name": "F4",
                    "midi": 65,
                    "time": 94.83866700000019,
                    "velocity": 0.30708661417322836,
                    "duration": 0.06598237500000437
                },
                {
                    "name": "G#5",
                    "midi": 80,
                    "time": 94.9266435000002,
                    "velocity": 0.3700787401574803,
                    "duration": 0.06598237500000437
                },
                {
                    "name": "D#4",
                    "midi": 63,
                    "time": 95.0146200000002,
                    "velocity": 0.30708661417322836,
                    "duration": 0.06598237500000437
                },
                {
                    "name": "G5",
                    "midi": 79,
                    "time": 95.10259650000022,
                    "velocity": 0.3543307086614173,
                    "duration": 0.06598237500000437
                },
                {
                    "name": "D4",
                    "midi": 62,
                    "time": 95.19057300000023,
                    "velocity": 0.31496062992125984,
                    "duration": 0.06598237500000437
                },
                {
                    "name": "F#5",
                    "midi": 78,
                    "time": 95.27854950000024,
                    "velocity": 0.3543307086614173,
                    "duration": 0.06598237500000437
                },
                {
                    "name": "D#4",
                    "midi": 63,
                    "time": 95.36652600000025,
                    "velocity": 0.30708661417322836,
                    "duration": 0.06598237500000437
                },
                {
                    "name": "G5",
                    "midi": 79,
                    "time": 95.45450250000026,
                    "velocity": 0.33858267716535434,
                    "duration": 0.06598237500000437
                },
                {
                    "name": "E4",
                    "midi": 64,
                    "time": 95.54247900000027,
                    "velocity": 0.2992125984251969,
                    "duration": 0.06598237500000437
                },
                {
                    "name": "G5",
                    "midi": 79,
                    "time": 95.63045550000028,
                    "velocity": 0.29133858267716534,
                    "duration": 0.06598237500000437
                },
                {
                    "name": "F4",
                    "midi": 65,
                    "time": 95.71843200000029,
                    "velocity": 0.3464566929133858,
                    "duration": 0.08797649999999635
                },
                {
                    "name": "G#5",
                    "midi": 80,
                    "time": 95.80640850000029,
                    "velocity": 0.29133858267716534,
                    "duration": 0.08797649999999635
                },
                {
                    "name": "G4",
                    "midi": 67,
                    "time": 95.89438500000028,
                    "velocity": 0.3700787401574803,
                    "duration": 0.08797649999999635
                },
                {
                    "name": "A#5",
                    "midi": 82,
                    "time": 95.98236150000028,
                    "velocity": 0.2992125984251969,
                    "duration": 0.08797649999999635
                },
                {
                    "name": "G#4",
                    "midi": 68,
                    "time": 96.07033800000028,
                    "velocity": 0.3700787401574803,
                    "duration": 0.08797649999999635
                },
                {
                    "name": "B5",
                    "midi": 83,
                    "time": 96.15831450000027,
                    "velocity": 0.2992125984251969,
                    "duration": 0.08797649999999635
                },
                {
                    "name": "B4",
                    "midi": 71,
                    "time": 96.24629100000027,
                    "velocity": 0.3543307086614173,
                    "duration": 0.08797649999999635
                },
                {
                    "name": "E6",
                    "midi": 88,
                    "time": 96.33426750000027,
                    "velocity": 0.25984251968503935,
                    "duration": 0.08797649999999635
                },
                {
                    "name": "D5",
                    "midi": 74,
                    "time": 96.42224400000026,
                    "velocity": 0.3700787401574803,
                    "duration": 0.08797649999999635
                },
                {
                    "name": "F6",
                    "midi": 89,
                    "time": 96.51022050000026,
                    "velocity": 0.29133858267716534,
                    "duration": 0.08797649999999635
                },
                {
                    "name": "E5",
                    "midi": 76,
                    "time": 96.59819700000025,
                    "velocity": 0.3543307086614173,
                    "duration": 0.08797649999999635
                },
                {
                    "name": "G6",
                    "midi": 91,
                    "time": 96.68617350000025,
                    "velocity": 0.25984251968503935,
                    "duration": 0.08797649999999635
                },
                {
                    "name": "F5",
                    "midi": 77,
                    "time": 96.77415000000025,
                    "velocity": 0.3543307086614173,
                    "duration": 0.08797649999999635
                },
                {
                    "name": "G#6",
                    "midi": 92,
                    "time": 96.86212650000024,
                    "velocity": 0.25984251968503935,
                    "duration": 0.08797649999999635
                },
                {
                    "name": "G5",
                    "midi": 79,
                    "time": 96.95010300000024,
                    "velocity": 0.3700787401574803,
                    "duration": 0.08797649999999635
                },
                {
                    "name": "A#6",
                    "midi": 94,
                    "time": 97.03807950000024,
                    "velocity": 0.2677165354330709,
                    "duration": 0.08797649999999635
                },
                {
                    "name": "G#5",
                    "midi": 80,
                    "time": 97.12605600000023,
                    "velocity": 0.4094488188976378,
                    "duration": 0.08797649999999635
                },
                {
                    "name": "B6",
                    "midi": 95,
                    "time": 97.21403250000023,
                    "velocity": 0.29133858267716534,
                    "duration": 0.08797649999999635
                },
                {
                    "name": "B5",
                    "midi": 83,
                    "time": 97.30200900000023,
                    "velocity": 0.3937007874015748,
                    "duration": 0.08797649999999635
                },
                {
                    "name": "E7",
                    "midi": 100,
                    "time": 97.38998550000022,
                    "velocity": 0.29133858267716534,
                    "duration": 0.08797649999999635
                },
                {
                    "name": "D6",
                    "midi": 86,
                    "time": 97.47796200000022,
                    "velocity": 0.44881889763779526,
                    "duration": 0.08797649999999635
                },
                {
                    "name": "F7",
                    "midi": 101,
                    "time": 97.56593850000021,
                    "velocity": 0.33858267716535434,
                    "duration": 0.08797649999999635
                },
                {
                    "name": "C#6",
                    "midi": 85,
                    "time": 97.65391500000021,
                    "velocity": 0.41732283464566927,
                    "duration": 0.08797649999999635
                },
                {
                    "name": "E7",
                    "midi": 100,
                    "time": 97.74189150000021,
                    "velocity": 0.3464566929133858,
                    "duration": 0.08797649999999635
                },
                {
                    "name": "D6",
                    "midi": 86,
                    "time": 97.8298680000002,
                    "velocity": 0.4566929133858268,
                    "duration": 0.08797649999999635
                },
                {
                    "name": "F7",
                    "midi": 101,
                    "time": 97.9178445000002,
                    "velocity": 0.3464566929133858,
                    "duration": 0.08797649999999635
                },
                {
                    "name": "C#6",
                    "midi": 85,
                    "time": 98.0058210000002,
                    "velocity": 0.41732283464566927,
                    "duration": 0.08797649999999635
                },
                {
                    "name": "E7",
                    "midi": 100,
                    "time": 98.09379750000019,
                    "velocity": 0.3464566929133858,
                    "duration": 0.08797649999999635
                },
                {
                    "name": "D6",
                    "midi": 86,
                    "time": 98.18177400000019,
                    "velocity": 0.4881889763779528,
                    "duration": 0.08797649999999635
                },
                {
                    "name": "F7",
                    "midi": 101,
                    "time": 98.26975050000019,
                    "velocity": 0.4015748031496063,
                    "duration": 0.08797649999999635
                },
                {
                    "name": "C#6",
                    "midi": 85,
                    "time": 98.35772700000018,
                    "velocity": 0.47244094488188976,
                    "duration": 0.08797649999999635
                },
                {
                    "name": "E7",
                    "midi": 100,
                    "time": 98.44570350000018,
                    "velocity": 0.44881889763779526,
                    "duration": 0.08797649999999635
                },
                {
                    "name": "D6",
                    "midi": 86,
                    "time": 98.53368000000017,
                    "velocity": 0.36220472440944884,
                    "duration": 0.043988249999998175
                },
                {
                    "name": "G#6",
                    "midi": 92,
                    "time": 98.57766825000017,
                    "velocity": 0.3937007874015748,
                    "duration": 0.043988249999998175
                },
                {
                    "name": "B6",
                    "midi": 95,
                    "time": 98.62165650000017,
                    "velocity": 0.4251968503937008,
                    "duration": 0.043988249999998175
                },
                {
                    "name": "D7",
                    "midi": 98,
                    "time": 98.66564475000017,
                    "velocity": 0.4645669291338583,
                    "duration": 0.043988249999998175
                },
                {
                    "name": "G7",
                    "midi": 103,
                    "time": 98.70963300000017,
                    "velocity": 0.5196850393700787,
                    "duration": 0.043988249999998175
                },
                {
                    "name": "F#7",
                    "midi": 102,
                    "time": 98.75362125000017,
                    "velocity": 0.3858267716535433,
                    "duration": 0.043988249999998175
                },
                {
                    "name": "D7",
                    "midi": 98,
                    "time": 98.79760950000016,
                    "velocity": 0.3858267716535433,
                    "duration": 0.043988249999998175
                },
                {
                    "name": "B6",
                    "midi": 95,
                    "time": 98.84159775000016,
                    "velocity": 0.3779527559055118,
                    "duration": 0.043988249999998175
                },
                {
                    "name": "F#7",
                    "midi": 102,
                    "time": 98.88558600000016,
                    "velocity": 0.4645669291338583,
                    "duration": 0.043988249999998175
                },
                {
                    "name": "F7",
                    "midi": 101,
                    "time": 98.92957425000016,
                    "velocity": 0.36220472440944884,
                    "duration": 0.043988249999998175
                },
                {
                    "name": "D7",
                    "midi": 98,
                    "time": 98.97356250000016,
                    "velocity": 0.3543307086614173,
                    "duration": 0.043988249999998175
                },
                {
                    "name": "B6",
                    "midi": 95,
                    "time": 99.01755075000015,
                    "velocity": 0.3543307086614173,
                    "duration": 0.043988249999998175
                },
                {
                    "name": "F7",
                    "midi": 101,
                    "time": 99.06153900000015,
                    "velocity": 0.44881889763779526,
                    "duration": 0.043988249999998175
                },
                {
                    "name": "E7",
                    "midi": 100,
                    "time": 99.10552725000015,
                    "velocity": 0.3228346456692913,
                    "duration": 0.043988249999998175
                },
                {
                    "name": "B6",
                    "midi": 95,
                    "time": 99.14951550000015,
                    "velocity": 0.3228346456692913,
                    "duration": 0.043988249999998175
                },
                {
                    "name": "G#6",
                    "midi": 92,
                    "time": 99.19350375000015,
                    "velocity": 0.3228346456692913,
                    "duration": 0.043988249999998175
                },
                {
                    "name": "E7",
                    "midi": 100,
                    "time": 99.23749200000015,
                    "velocity": 0.4330708661417323,
                    "duration": 0.043988249999998175
                },
                {
                    "name": "D#7",
                    "midi": 99,
                    "time": 99.28148025000014,
                    "velocity": 0.31496062992125984,
                    "duration": 0.043988249999998175
                },
                {
                    "name": "B6",
                    "midi": 95,
                    "time": 99.32546850000014,
                    "velocity": 0.31496062992125984,
                    "duration": 0.043988249999998175
                },
                {
                    "name": "G#6",
                    "midi": 92,
                    "time": 99.36945675000014,
                    "velocity": 0.31496062992125984,
                    "duration": 0.043988249999998175
                },
                {
                    "name": "D#7",
                    "midi": 99,
                    "time": 99.41344500000014,
                    "velocity": 0.41732283464566927,
                    "duration": 0.043988249999998175
                },
                {
                    "name": "D7",
                    "midi": 98,
                    "time": 99.45743325000014,
                    "velocity": 0.31496062992125984,
                    "duration": 0.043988249999998175
                },
                {
                    "name": "G#6",
                    "midi": 92,
                    "time": 99.50142150000013,
                    "velocity": 0.31496062992125984,
                    "duration": 0.043988249999998175
                },
                {
                    "name": "F6",
                    "midi": 89,
                    "time": 99.54540975000013,
                    "velocity": 0.31496062992125984,
                    "duration": 0.043988249999998175
                },
                {
                    "name": "D7",
                    "midi": 98,
                    "time": 99.58939800000013,
                    "velocity": 0.4094488188976378,
                    "duration": 0.043988249999998175
                },
                {
                    "name": "C#7",
                    "midi": 97,
                    "time": 99.63338625000013,
                    "velocity": 0.2992125984251969,
                    "duration": 0.043988249999998175
                },
                {
                    "name": "G#6",
                    "midi": 92,
                    "time": 99.67737450000013,
                    "velocity": 0.2992125984251969,
                    "duration": 0.043988249999998175
                },
                {
                    "name": "F6",
                    "midi": 89,
                    "time": 99.72136275000013,
                    "velocity": 0.2992125984251969,
                    "duration": 0.043988249999998175
                },
                {
                    "name": "C#7",
                    "midi": 97,
                    "time": 99.76535100000012,
                    "velocity": 0.3937007874015748,
                    "duration": 0.043988249999998175
                },
                {
                    "name": "C7",
                    "midi": 96,
                    "time": 99.80933925000012,
                    "velocity": 0.2992125984251969,
                    "duration": 0.043988249999998175
                },
                {
                    "name": "G#6",
                    "midi": 92,
                    "time": 99.85332750000012,
                    "velocity": 0.2992125984251969,
                    "duration": 0.043988249999998175
                },
                {
                    "name": "F6",
                    "midi": 89,
                    "time": 99.89731575000012,
                    "velocity": 0.2992125984251969,
                    "duration": 0.043988249999998175
                },
                {
                    "name": "C7",
                    "midi": 96,
                    "time": 99.94130400000012,
                    "velocity": 0.41732283464566927,
                    "duration": 0.043988249999998175
                },
                {
                    "name": "B6",
                    "midi": 95,
                    "time": 99.98529225000011,
                    "velocity": 0.2755905511811024,
                    "duration": 0.043988249999998175
                },
                {
                    "name": "G#6",
                    "midi": 92,
                    "time": 100.02928050000011,
                    "velocity": 0.2755905511811024,
                    "duration": 0.043988249999998175
                },
                {
                    "name": "F6",
                    "midi": 89,
                    "time": 100.07326875000011,
                    "velocity": 0.2755905511811024,
                    "duration": 0.043988249999998175
                },
                {
                    "name": "B6",
                    "midi": 95,
                    "time": 100.11725700000011,
                    "velocity": 0.4094488188976378,
                    "duration": 0.043988249999998175
                },
                {
                    "name": "A#6",
                    "midi": 94,
                    "time": 100.1612452500001,
                    "velocity": 0.2755905511811024,
                    "duration": 0.043988249999998175
                },
                {
                    "name": "F6",
                    "midi": 89,
                    "time": 100.2052335000001,
                    "velocity": 0.2755905511811024,
                    "duration": 0.043988249999998175
                },
                {
                    "name": "D6",
                    "midi": 86,
                    "time": 100.2492217500001,
                    "velocity": 0.2755905511811024,
                    "duration": 0.043988249999998175
                },
                {
                    "name": "A#6",
                    "midi": 94,
                    "time": 100.2932100000001,
                    "velocity": 0.4015748031496063,
                    "duration": 0.043988249999998175
                },
                {
                    "name": "A6",
                    "midi": 93,
                    "time": 100.3371982500001,
                    "velocity": 0.2755905511811024,
                    "duration": 0.043988249999998175
                },
                {
                    "name": "F6",
                    "midi": 89,
                    "time": 100.3811865000001,
                    "velocity": 0.2755905511811024,
                    "duration": 0.043988249999998175
                },
                {
                    "name": "D6",
                    "midi": 86,
                    "time": 100.4251747500001,
                    "velocity": 0.2755905511811024,
                    "duration": 0.043988249999998175
                },
                {
                    "name": "A6",
                    "midi": 93,
                    "time": 100.4691630000001,
                    "velocity": 0.4094488188976378,
                    "duration": 0.043988249999998175
                },
                {
                    "name": "G#6",
                    "midi": 92,
                    "time": 100.51315125000009,
                    "velocity": 0.2755905511811024,
                    "duration": 0.043988249999998175
                },
                {
                    "name": "F6",
                    "midi": 89,
                    "time": 100.55713950000009,
                    "velocity": 0.2755905511811024,
                    "duration": 0.043988249999998175
                },
                {
                    "name": "D6",
                    "midi": 86,
                    "time": 100.60112775000009,
                    "velocity": 0.2755905511811024,
                    "duration": 0.043988249999998175
                },
                {
                    "name": "G#6",
                    "midi": 92,
                    "time": 100.64511600000009,
                    "velocity": 0.4251968503937008,
                    "duration": 0.043988249999998175
                },
                {
                    "name": "G6",
                    "midi": 91,
                    "time": 100.68910425000009,
                    "velocity": 0.2992125984251969,
                    "duration": 0.043988249999998175
                },
                {
                    "name": "D6",
                    "midi": 86,
                    "time": 100.73309250000008,
                    "velocity": 0.2755905511811024,
                    "duration": 0.043988249999998175
                },
                {
                    "name": "B5",
                    "midi": 83,
                    "time": 100.77708075000008,
                    "velocity": 0.2755905511811024,
                    "duration": 0.043988249999998175
                },
                {
                    "name": "G6",
                    "midi": 91,
                    "time": 100.82106900000008,
                    "velocity": 0.41732283464566927,
                    "duration": 0.043988249999998175
                },
                {
                    "name": "F#6",
                    "midi": 90,
                    "time": 100.86505725000008,
                    "velocity": 0.2755905511811024,
                    "duration": 0.043988249999998175
                },
                {
                    "name": "D6",
                    "midi": 86,
                    "time": 100.90904550000008,
                    "velocity": 0.2755905511811024,
                    "duration": 0.043988249999998175
                },
                {
                    "name": "B5",
                    "midi": 83,
                    "time": 100.95303375000007,
                    "velocity": 0.2755905511811024,
                    "duration": 0.043988249999998175
                },
                {
                    "name": "F#6",
                    "midi": 90,
                    "time": 100.99702200000007,
                    "velocity": 0.4251968503937008,
                    "duration": 0.043988249999998175
                },
                {
                    "name": "F6",
                    "midi": 89,
                    "time": 101.04101025000007,
                    "velocity": 0.2755905511811024,
                    "duration": 0.043988249999998175
                },
                {
                    "name": "D6",
                    "midi": 86,
                    "time": 101.08499850000007,
                    "velocity": 0.2755905511811024,
                    "duration": 0.043988249999998175
                },
                {
                    "name": "B5",
                    "midi": 83,
                    "time": 101.12898675000007,
                    "velocity": 0.2755905511811024,
                    "duration": 0.043988249999998175
                },
                {
                    "name": "F6",
                    "midi": 89,
                    "time": 101.17297500000006,
                    "velocity": 0.41732283464566927,
                    "duration": 0.043988249999998175
                },
                {
                    "name": "E6",
                    "midi": 88,
                    "time": 101.21696325000006,
                    "velocity": 0.2755905511811024,
                    "duration": 0.043988249999998175
                },
                {
                    "name": "B5",
                    "midi": 83,
                    "time": 101.26095150000006,
                    "velocity": 0.2755905511811024,
                    "duration": 0.043988249999998175
                },
                {
                    "name": "G#5",
                    "midi": 80,
                    "time": 101.30493975000006,
                    "velocity": 0.2755905511811024,
                    "duration": 0.043988249999998175
                },
                {
                    "name": "E6",
                    "midi": 88,
                    "time": 101.34892800000006,
                    "velocity": 0.4330708661417323,
                    "duration": 0.043988249999998175
                },
                {
                    "name": "D#6",
                    "midi": 87,
                    "time": 101.39291625000006,
                    "velocity": 0.2755905511811024,
                    "duration": 0.043988249999998175
                },
                {
                    "name": "B5",
                    "midi": 83,
                    "time": 101.43690450000005,
                    "velocity": 0.2755905511811024,
                    "duration": 0.043988249999998175
                },
                {
                    "name": "G#5",
                    "midi": 80,
                    "time": 101.48089275000005,
                    "velocity": 0.2755905511811024,
                    "duration": 0.043988249999998175
                },
                {
                    "name": "D#6",
                    "midi": 87,
                    "time": 101.52488100000005,
                    "velocity": 0.4330708661417323,
                    "duration": 0.043988249999998175
                },
                {
                    "name": "D6",
                    "midi": 86,
                    "time": 101.56886925000005,
                    "velocity": 0.2755905511811024,
                    "duration": 0.043988249999998175
                },
                {
                    "name": "G#5",
                    "midi": 80,
                    "time": 101.61285750000005,
                    "velocity": 0.2755905511811024,
                    "duration": 0.043988249999998175
                },
                {
                    "name": "F5",
                    "midi": 77,
                    "time": 101.65684575000004,
                    "velocity": 0.2755905511811024,
                    "duration": 0.043988249999998175
                },
                {
                    "name": "D6",
                    "midi": 86,
                    "time": 101.70083400000004,
                    "velocity": 0.4409448818897638,
                    "duration": 0.043988249999998175
                },
                {
                    "name": "C#6",
                    "midi": 85,
                    "time": 101.74482225000004,
                    "velocity": 0.2755905511811024,
                    "duration": 0.043988249999998175
                },
                {
                    "name": "G#5",
                    "midi": 80,
                    "time": 101.78881050000004,
                    "velocity": 0.2755905511811024,
                    "duration": 0.043988249999998175
                },
                {
                    "name": "F5",
                    "midi": 77,
                    "time": 101.83279875000004,
                    "velocity": 0.2755905511811024,
                    "duration": 0.043988249999998175
                },
                {
                    "name": "C#6",
                    "midi": 85,
                    "time": 101.87678700000004,
                    "velocity": 0.4015748031496063,
                    "duration": 0.043988249999998175
                },
                {
                    "name": "C6",
                    "midi": 84,
                    "time": 101.92077525000003,
                    "velocity": 0.2755905511811024,
                    "duration": 0.043988249999998175
                },
                {
                    "name": "G#5",
                    "midi": 80,
                    "time": 101.96476350000003,
                    "velocity": 0.2755905511811024,
                    "duration": 0.043988249999998175
                },
                {
                    "name": "F5",
                    "midi": 77,
                    "time": 102.00875175000003,
                    "velocity": 0.2755905511811024,
                    "duration": 0.043988249999998175
                },
                {
                    "name": "C6",
                    "midi": 84,
                    "time": 102.05274000000003,
                    "velocity": 0.4330708661417323,
                    "duration": 0.043988249999998175
                },
                {
                    "name": "B5",
                    "midi": 83,
                    "time": 102.09672825000003,
                    "velocity": 0.2755905511811024,
                    "duration": 0.043988249999998175
                },
                {
                    "name": "G#5",
                    "midi": 80,
                    "time": 102.14071650000002,
                    "velocity": 0.2755905511811024,
                    "duration": 0.043988249999998175
                },
                {
                    "name": "F5",
                    "midi": 77,
                    "time": 102.18470475000002,
                    "velocity": 0.2755905511811024,
                    "duration": 0.043988249999998175
                },
                {
                    "name": "B5",
                    "midi": 83,
                    "time": 102.22869300000002,
                    "velocity": 0.41732283464566927,
                    "duration": 0.043988249999998175
                },
                {
                    "name": "A#5",
                    "midi": 82,
                    "time": 102.27268125000002,
                    "velocity": 0.2755905511811024,
                    "duration": 0.043988249999998175
                },
                {
                    "name": "F5",
                    "midi": 77,
                    "time": 102.31666950000002,
                    "velocity": 0.2755905511811024,
                    "duration": 0.043988249999998175
                },
                {
                    "name": "D5",
                    "midi": 74,
                    "time": 102.36065775000002,
                    "velocity": 0.2755905511811024,
                    "duration": 0.043988249999998175
                },
                {
                    "name": "A#5",
                    "midi": 82,
                    "time": 102.40464600000001,
                    "velocity": 0.4330708661417323,
                    "duration": 0.043988249999998175
                },
                {
                    "name": "A5",
                    "midi": 81,
                    "time": 102.44863425000001,
                    "velocity": 0.2755905511811024,
                    "duration": 0.043988249999998175
                },
                {
                    "name": "F5",
                    "midi": 77,
                    "time": 102.49262250000001,
                    "velocity": 0.2755905511811024,
                    "duration": 0.043988249999998175
                },
                {
                    "name": "D5",
                    "midi": 74,
                    "time": 102.53661075000001,
                    "velocity": 0.2755905511811024,
                    "duration": 0.043988249999998175
                },
                {
                    "name": "A5",
                    "midi": 81,
                    "time": 102.580599,
                    "velocity": 0.41732283464566927,
                    "duration": 0.043988249999998175
                },
                {
                    "name": "G#5",
                    "midi": 80,
                    "time": 102.62458725,
                    "velocity": 0.2755905511811024,
                    "duration": 0.043988249999998175
                },
                {
                    "name": "F5",
                    "midi": 77,
                    "time": 102.6685755,
                    "velocity": 0.2755905511811024,
                    "duration": 0.043988249999998175
                },
                {
                    "name": "D5",
                    "midi": 74,
                    "time": 102.71256375,
                    "velocity": 0.2755905511811024,
                    "duration": 0.043988249999998175
                },
                {
                    "name": "G#5",
                    "midi": 80,
                    "time": 102.756552,
                    "velocity": 0.4409448818897638,
                    "duration": 0.043988249999998175
                },
                {
                    "name": "G5",
                    "midi": 79,
                    "time": 102.80054025,
                    "velocity": 0.29133858267716534,
                    "duration": 0.043988249999998175
                },
                {
                    "name": "D5",
                    "midi": 74,
                    "time": 102.8445285,
                    "velocity": 0.2677165354330709,
                    "duration": 0.043988249999998175
                },
                {
                    "name": "B4",
                    "midi": 71,
                    "time": 102.88851675,
                    "velocity": 0.2755905511811024,
                    "duration": 0.043988249999998175
                },
                {
                    "name": "G5",
                    "midi": 79,
                    "time": 102.93250499999999,
                    "velocity": 0.4409448818897638,
                    "duration": 0.043988249999998175
                },
                {
                    "name": "F#5",
                    "midi": 78,
                    "time": 102.97649324999999,
                    "velocity": 0.2992125984251969,
                    "duration": 0.043988249999998175
                },
                {
                    "name": "D5",
                    "midi": 74,
                    "time": 103.02048149999999,
                    "velocity": 0.28346456692913385,
                    "duration": 0.043988249999998175
                },
                {
                    "name": "B4",
                    "midi": 71,
                    "time": 103.06446974999999,
                    "velocity": 0.28346456692913385,
                    "duration": 0.043988249999998175
                },
                {
                    "name": "F#5",
                    "midi": 78,
                    "time": 103.10845799999998,
                    "velocity": 0.44881889763779526,
                    "duration": 0.043988249999998175
                },
                {
                    "name": "F5",
                    "midi": 77,
                    "time": 103.15244624999998,
                    "velocity": 0.31496062992125984,
                    "duration": 0.043988249999998175
                },
                {
                    "name": "D5",
                    "midi": 74,
                    "time": 103.19643449999998,
                    "velocity": 0.2755905511811024,
                    "duration": 0.043988249999998175
                },
                {
                    "name": "B4",
                    "midi": 71,
                    "time": 103.24042274999998,
                    "velocity": 0.2755905511811024,
                    "duration": 0.043988249999998175
                },
                {
                    "name": "F5",
                    "midi": 77,
                    "time": 103.28441099999998,
                    "velocity": 0.4330708661417323,
                    "duration": 0.043988249999998175
                },
                {
                    "name": "E5",
                    "midi": 76,
                    "time": 103.32839924999998,
                    "velocity": 0.31496062992125984,
                    "duration": 0.043988249999998175
                },
                {
                    "name": "B4",
                    "midi": 71,
                    "time": 103.37238749999997,
                    "velocity": 0.28346456692913385,
                    "duration": 0.043988249999998175
                },
                {
                    "name": "G#4",
                    "midi": 68,
                    "time": 103.41637574999997,
                    "velocity": 0.28346456692913385,
                    "duration": 0.043988249999998175
                },
                {
                    "name": "E5",
                    "midi": 76,
                    "time": 103.46036399999997,
                    "velocity": 0.4566929133858268,
                    "duration": 0.043988249999998175
                },
                {
                    "name": "D#5",
                    "midi": 75,
                    "time": 103.50435224999997,
                    "velocity": 0.30708661417322836,
                    "duration": 0.043988249999998175
                },
                {
                    "name": "B4",
                    "midi": 71,
                    "time": 103.54834049999997,
                    "velocity": 0.2755905511811024,
                    "duration": 0.043988249999998175
                },
                {
                    "name": "G#4",
                    "midi": 68,
                    "time": 103.59232874999996,
                    "velocity": 0.28346456692913385,
                    "duration": 0.043988249999998175
                },
                {
                    "name": "D#5",
                    "midi": 75,
                    "time": 103.63631699999996,
                    "velocity": 0.4566929133858268,
                    "duration": 0.043988249999998175
                },
                {
                    "name": "D5",
                    "midi": 74,
                    "time": 103.68030524999996,
                    "velocity": 0.30708661417322836,
                    "duration": 0.043988249999998175
                },
                {
                    "name": "G#4",
                    "midi": 68,
                    "time": 103.72429349999996,
                    "velocity": 0.29133858267716534,
                    "duration": 0.043988249999998175
                },
                {
                    "name": "F4",
                    "midi": 65,
                    "time": 103.76828174999996,
                    "velocity": 0.29133858267716534,
                    "duration": 0.043988249999998175
                },
                {
                    "name": "D5",
                    "midi": 74,
                    "time": 103.81226999999996,
                    "velocity": 0.48031496062992124,
                    "duration": 0.043988249999998175
                },
                {
                    "name": "C#5",
                    "midi": 73,
                    "time": 103.85625824999995,
                    "velocity": 0.3543307086614173,
                    "duration": 0.043988249999998175
                },
                {
                    "name": "G#4",
                    "midi": 68,
                    "time": 103.90024649999995,
                    "velocity": 0.31496062992125984,
                    "duration": 0.043988249999998175
                },
                {
                    "name": "F4",
                    "midi": 65,
                    "time": 103.94423474999995,
                    "velocity": 0.31496062992125984,
                    "duration": 0.043988249999998175
                },
                {
                    "name": "C#5",
                    "midi": 73,
                    "time": 103.98822299999995,
                    "velocity": 0.48031496062992124,
                    "duration": 0.043988249999998175
                },
                {
                    "name": "C5",
                    "midi": 72,
                    "time": 104.03221124999995,
                    "velocity": 0.3543307086614173,
                    "duration": 0.043988249999998175
                },
                {
                    "name": "G#4",
                    "midi": 68,
                    "time": 104.07619949999994,
                    "velocity": 0.30708661417322836,
                    "duration": 0.043988249999998175
                },
                {
                    "name": "F4",
                    "midi": 65,
                    "time": 104.12018774999994,
                    "velocity": 0.30708661417322836,
                    "duration": 0.043988249999998175
                },
                {
                    "name": "C5",
                    "midi": 72,
                    "time": 104.16417599999994,
                    "velocity": 0.49606299212598426,
                    "duration": 0.043988249999998175
                },
                {
                    "name": "B4",
                    "midi": 71,
                    "time": 104.20816424999994,
                    "velocity": 0.3700787401574803,
                    "duration": 0.043988249999998175
                },
                {
                    "name": "G#4",
                    "midi": 68,
                    "time": 104.25215249999994,
                    "velocity": 0.33858267716535434,
                    "duration": 0.043988249999998175
                },
                {
                    "name": "F4",
                    "midi": 65,
                    "time": 104.29614074999994,
                    "velocity": 0.3464566929133858,
                    "duration": 0.043988249999998175
                },
                {
                    "name": "B4",
                    "midi": 71,
                    "time": 104.34012899999993,
                    "velocity": 0.49606299212598426,
                    "duration": 0.043988249999998175
                },
                {
                    "name": "A#4",
                    "midi": 70,
                    "time": 104.38411724999993,
                    "velocity": 0.3858267716535433,
                    "duration": 0.043988249999998175
                },
                {
                    "name": "F4",
                    "midi": 65,
                    "time": 104.42810549999993,
                    "velocity": 0.36220472440944884,
                    "duration": 0.043988249999998175
                },
                {
                    "name": "D4",
                    "midi": 62,
                    "time": 104.47209374999993,
                    "velocity": 0.30708661417322836,
                    "duration": 0.043988249999998175
                },
                {
                    "name": "C#4",
                    "midi": 61,
                    "time": 104.51608199999993,
                    "velocity": 0.5196850393700787,
                    "duration": 0.058650999999997566
                },
                {
                    "name": "D4",
                    "midi": 62,
                    "time": 104.57473299999992,
                    "velocity": 0.30708661417322836,
                    "duration": 0.058650999999997566
                },
                {
                    "name": "F4",
                    "midi": 65,
                    "time": 104.63338399999992,
                    "velocity": 0.30708661417322836,
                    "duration": 0.058650999999997566
                },
                {
                    "name": "G#4",
                    "midi": 68,
                    "time": 104.69203499999992,
                    "velocity": 0.31496062992125984,
                    "duration": 0.058650999999997566
                },
                {
                    "name": "A4",
                    "midi": 69,
                    "time": 104.75068599999992,
                    "velocity": 0.3228346456692913,
                    "duration": 0.058650999999997566
                },
                {
                    "name": "A#4",
                    "midi": 70,
                    "time": 104.80933699999991,
                    "velocity": 0.33070866141732286,
                    "duration": 0.058650999999997566
                },
                {
                    "name": "B4",
                    "midi": 71,
                    "time": 104.86798799999991,
                    "velocity": 0.33858267716535434,
                    "duration": 0.058650999999997566
                },
                {
                    "name": "D5",
                    "midi": 74,
                    "time": 104.92663899999991,
                    "velocity": 0.33858267716535434,
                    "duration": 0.058650999999997566
                },
                {
                    "name": "F5",
                    "midi": 77,
                    "time": 104.9852899999999,
                    "velocity": 0.3464566929133858,
                    "duration": 0.058650999999997566
                },
                {
                    "name": "G#5",
                    "midi": 80,
                    "time": 105.0439409999999,
                    "velocity": 0.3543307086614173,
                    "duration": 0.058650999999997566
                },
                {
                    "name": "A5",
                    "midi": 81,
                    "time": 105.1025919999999,
                    "velocity": 0.36220472440944884,
                    "duration": 0.058650999999997566
                },
                {
                    "name": "A#5",
                    "midi": 82,
                    "time": 105.1612429999999,
                    "velocity": 0.3700787401574803,
                    "duration": 0.058650999999997566
                },
                {
                    "name": "B5",
                    "midi": 83,
                    "time": 105.2198939999999,
                    "velocity": 0.3858267716535433,
                    "duration": 0.058650999999997566
                },
                {
                    "name": "D6",
                    "midi": 86,
                    "time": 105.2785449999999,
                    "velocity": 0.3937007874015748,
                    "duration": 0.058650999999997566
                },
                {
                    "name": "F6",
                    "midi": 89,
                    "time": 105.33719599999989,
                    "velocity": 0.4015748031496063,
                    "duration": 0.058650999999997566
                },
                {
                    "name": "G#6",
                    "midi": 92,
                    "time": 105.39584699999989,
                    "velocity": 0.41732283464566927,
                    "duration": 0.058650999999997566
                },
                {
                    "name": "A6",
                    "midi": 93,
                    "time": 105.45449799999989,
                    "velocity": 0.4251968503937008,
                    "duration": 0.058650999999997566
                },
                {
                    "name": "A#6",
                    "midi": 94,
                    "time": 105.51314899999988,
                    "velocity": 0.4409448818897638,
                    "duration": 0.058650999999997566
                },
                {
                    "name": "B6",
                    "midi": 95,
                    "time": 105.57179999999988,
                    "velocity": 0.49606299212598426,
                    "duration": 0.058650999999997566
                },
                {
                    "name": "D7",
                    "midi": 98,
                    "time": 105.63045099999988,
                    "velocity": 0.4015748031496063,
                    "duration": 0.058650999999997566
                },
                {
                    "name": "C7",
                    "midi": 96,
                    "time": 105.68910199999988,
                    "velocity": 0.4015748031496063,
                    "duration": 0.058650999999997566
                },
                {
                    "name": "A6",
                    "midi": 93,
                    "time": 105.74775299999988,
                    "velocity": 0.44881889763779526,
                    "duration": 0.058650999999997566
                },
                {
                    "name": "C7",
                    "midi": 96,
                    "time": 105.80640399999987,
                    "velocity": 0.3543307086614173,
                    "duration": 0.058650999999997566
                },
                {
                    "name": "A#6",
                    "midi": 94,
                    "time": 105.86505499999987,
                    "velocity": 0.3543307086614173,
                    "duration": 0.058650999999997566
                },
                {
                    "name": "G6",
                    "midi": 91,
                    "time": 105.92370599999987,
                    "velocity": 0.41732283464566927,
                    "duration": 0.058650999999997566
                },
                {
                    "name": "A#6",
                    "midi": 94,
                    "time": 105.98235699999987,
                    "velocity": 0.33858267716535434,
                    "duration": 0.058650999999997566
                },
                {
                    "name": "G#6",
                    "midi": 92,
                    "time": 106.04100799999986,
                    "velocity": 0.33858267716535434,
                    "duration": 0.058650999999997566
                },
                {
                    "name": "E6",
                    "midi": 88,
                    "time": 106.09965899999986,
                    "velocity": 0.3700787401574803,
                    "duration": 0.058650999999997566
                },
                {
                    "name": "G6",
                    "midi": 91,
                    "time": 106.15830999999986,
                    "velocity": 0.3228346456692913,
                    "duration": 0.058650999999997566
                },
                {
                    "name": "F6",
                    "midi": 89,
                    "time": 106.21696099999986,
                    "velocity": 0.3228346456692913,
                    "duration": 0.058650999999997566
                },
                {
                    "name": "C#6",
                    "midi": 85,
                    "time": 106.27561199999985,
                    "velocity": 0.3779527559055118,
                    "duration": 0.058650999999997566
                },
                {
                    "name": "D#6",
                    "midi": 87,
                    "time": 106.33426299999985,
                    "velocity": 0.2992125984251969,
                    "duration": 0.058650999999997566
                },
                {
                    "name": "D6",
                    "midi": 86,
                    "time": 106.39291399999985,
                    "velocity": 0.2992125984251969,
                    "duration": 0.058650999999997566
                },
                {
                    "name": "B5",
                    "midi": 83,
                    "time": 106.45156499999985,
                    "velocity": 0.3779527559055118,
                    "duration": 0.058650999999997566
                },
                {
                    "name": "D6",
                    "midi": 86,
                    "time": 106.51021599999984,
                    "velocity": 0.2755905511811024,
                    "duration": 0.058650999999997566
                },
                {
                    "name": "C6",
                    "midi": 84,
                    "time": 106.56886699999984,
                    "velocity": 0.2755905511811024,
                    "duration": 0.058650999999997566
                },
                {
                    "name": "A5",
                    "midi": 81,
                    "time": 106.62751799999984,
                    "velocity": 0.3700787401574803,
                    "duration": 0.058650999999997566
                },
                {
                    "name": "C6",
                    "midi": 84,
                    "time": 106.68616899999984,
                    "velocity": 0.2755905511811024,
                    "duration": 0.058650999999997566
                },
                {
                    "name": "A#5",
                    "midi": 82,
                    "time": 106.74481999999983,
                    "velocity": 0.2755905511811024,
                    "duration": 0.058650999999997566
                },
                {
                    "name": "G5",
                    "midi": 79,
                    "time": 106.80347099999983,
                    "velocity": 0.3464566929133858,
                    "duration": 0.058650999999997566
                },
                {
                    "name": "A#5",
                    "midi": 82,
                    "time": 106.86212199999983,
                    "velocity": 0.2755905511811024,
                    "duration": 0.058650999999997566
                },
                {
                    "name": "G#5",
                    "midi": 80,
                    "time": 106.92077299999983,
                    "velocity": 0.2755905511811024,
                    "duration": 0.058650999999997566
                },
                {
                    "name": "E5",
                    "midi": 76,
                    "time": 106.97942399999982,
                    "velocity": 0.3464566929133858,
                    "duration": 0.058650999999997566
                },
                {
                    "name": "G5",
                    "midi": 79,
                    "time": 107.03807499999982,
                    "velocity": 0.2755905511811024,
                    "duration": 0.058650999999997566
                },
                {
                    "name": "F5",
                    "midi": 77,
                    "time": 107.09672599999982,
                    "velocity": 0.2755905511811024,
                    "duration": 0.058650999999997566
                },
                {
                    "name": "C#5",
                    "midi": 73,
                    "time": 107.15537699999982,
                    "velocity": 0.3228346456692913,
                    "duration": 0.058650999999997566
                },
                {
                    "name": "D#5",
                    "midi": 75,
                    "time": 107.21402799999981,
                    "velocity": 0.2755905511811024,
                    "duration": 0.058650999999997566
                },
                {
                    "name": "D5",
                    "midi": 74,
                    "time": 107.27267899999981,
                    "velocity": 0.2755905511811024,
                    "duration": 0.058650999999997566
                },
                {
                    "name": "B4",
                    "midi": 71,
                    "time": 107.33132999999981,
                    "velocity": 0.3228346456692913,
                    "duration": 0.058650999999997566
                },
                {
                    "name": "D5",
                    "midi": 74,
                    "time": 107.3899809999998,
                    "velocity": 0.2677165354330709,
                    "duration": 0.058650999999997566
                },
                {
                    "name": "C5",
                    "midi": 72,
                    "time": 107.4486319999998,
                    "velocity": 0.2677165354330709,
                    "duration": 0.058650999999997566
                },
                {
                    "name": "G#4",
                    "midi": 68,
                    "time": 107.5072829999998,
                    "velocity": 0.3228346456692913,
                    "duration": 0.058650999999997566
                },
                {
                    "name": "C5",
                    "midi": 72,
                    "time": 107.5659339999998,
                    "velocity": 0.25984251968503935,
                    "duration": 0.058650999999997566
                },
                {
                    "name": "A#4",
                    "midi": 70,
                    "time": 107.6245849999998,
                    "velocity": 0.25984251968503935,
                    "duration": 0.058650999999997566
                },
                {
                    "name": "G4",
                    "midi": 67,
                    "time": 107.6832359999998,
                    "velocity": 0.31496062992125984,
                    "duration": 0.058650999999997566
                },
                {
                    "name": "A#4",
                    "midi": 70,
                    "time": 107.74188699999979,
                    "velocity": 0.2440944881889764,
                    "duration": 0.058650999999997566
                },
                {
                    "name": "G#4",
                    "midi": 68,
                    "time": 107.80053799999979,
                    "velocity": 0.2440944881889764,
                    "duration": 0.058650999999997566
                },
                {
                    "name": "E4",
                    "midi": 64,
                    "time": 107.85918899999979,
                    "velocity": 0.31496062992125984,
                    "duration": 0.058650999999997566
                },
                {
                    "name": "G4",
                    "midi": 67,
                    "time": 107.91783999999979,
                    "velocity": 0.2283464566929134,
                    "duration": 0.058650999999997566
                },
                {
                    "name": "F4",
                    "midi": 65,
                    "time": 107.97649099999978,
                    "velocity": 0.2283464566929134,
                    "duration": 0.058650999999997566
                },
                {
                    "name": "C#4",
                    "midi": 61,
                    "time": 108.03514199999978,
                    "velocity": 0.30708661417322836,
                    "duration": 0.058650999999997566
                },
                {
                    "name": "D#4",
                    "midi": 63,
                    "time": 108.09379299999978,
                    "velocity": 0.23622047244094488,
                    "duration": 0.058650999999997566
                },
                {
                    "name": "D4",
                    "midi": 62,
                    "time": 108.15244399999978,
                    "velocity": 0.23622047244094488,
                    "duration": 0.058650999999997566
                },
                {
                    "name": "B3",
                    "midi": 59,
                    "time": 108.21109499999977,
                    "velocity": 0.30708661417322836,
                    "duration": 0.058650999999997566
                },
                {
                    "name": "D4",
                    "midi": 62,
                    "time": 108.26974599999977,
                    "velocity": 0.23622047244094488,
                    "duration": 0.058650999999997566
                },
                {
                    "name": "C4",
                    "midi": 60,
                    "time": 108.32839699999977,
                    "velocity": 0.23622047244094488,
                    "duration": 0.058650999999997566
                },
                {
                    "name": "A3",
                    "midi": 57,
                    "time": 108.38704799999977,
                    "velocity": 0.2992125984251969,
                    "duration": 0.058650999999997566
                },
                {
                    "name": "A#3",
                    "midi": 58,
                    "time": 108.44569899999976,
                    "velocity": 0.2440944881889764,
                    "duration": 0.058650999999997566
                },
                {
                    "name": "C4",
                    "midi": 60,
                    "time": 108.50434999999976,
                    "velocity": 0.2440944881889764,
                    "duration": 0.058650999999997566
                },
                {
                    "name": "A#3",
                    "midi": 58,
                    "time": 108.56300099999976,
                    "velocity": 0.30708661417322836,
                    "duration": 0.058650999999997566
                },
                {
                    "name": "A3",
                    "midi": 57,
                    "time": 108.62165199999976,
                    "velocity": 0.25196850393700787,
                    "duration": 0.058650999999997566
                },
                {
                    "name": "A#3",
                    "midi": 58,
                    "time": 108.68030299999975,
                    "velocity": 0.3700787401574803,
                    "duration": 0.058650999999997566
                },
                {
                    "name": "D4",
                    "midi": 62,
                    "time": 108.73895399999975,
                    "velocity": 0.3858267716535433,
                    "duration": 0.021994125000006193
                },
                {
                    "name": "D4",
                    "midi": 62,
                    "time": 108.91490699999976,
                    "velocity": 0.4409448818897638,
                    "duration": 0.1759530000000069
                },
                {
                    "name": "C4",
                    "midi": 60,
                    "time": 109.09085999999976,
                    "velocity": 0.4094488188976378,
                    "duration": 0.043988249999998175
                },
                {
                    "name": "C4",
                    "midi": 60,
                    "time": 109.26681299999976,
                    "velocity": 0.4409448818897638,
                    "duration": 0.1759530000000069
                },
                {
                    "name": "G3",
                    "midi": 55,
                    "time": 109.44276599999976,
                    "velocity": 0.4094488188976378,
                    "duration": 0.043988249999998175
                },
                {
                    "name": "A#3",
                    "midi": 58,
                    "time": 109.61871899999976,
                    "velocity": 0.36220472440944884,
                    "duration": 0.06598237500000437
                },
                {
                    "name": "C4",
                    "midi": 60,
                    "time": 109.77267787499976,
                    "velocity": 0.3779527559055118,
                    "duration": 0.021994125000006193
                },
                {
                    "name": "A#3",
                    "midi": 58,
                    "time": 109.79467199999976,
                    "velocity": 0.3858267716535433,
                    "duration": 0.06598237500000437
                },
                {
                    "name": "A3",
                    "midi": 57,
                    "time": 109.92663674999977,
                    "velocity": 0.36220472440944884,
                    "duration": 0.043988249999998175
                },
                {
                    "name": "A#3",
                    "midi": 58,
                    "time": 109.97062499999977,
                    "velocity": 0.4094488188976378,
                    "duration": 0.043988249999998175
                },
                {
                    "name": "F3",
                    "midi": 53,
                    "time": 110.14657799999976,
                    "velocity": 0.4094488188976378,
                    "duration": 0.043988249999998175
                },
                {
                    "name": "G3",
                    "midi": 55,
                    "time": 110.23455449999976,
                    "velocity": 0.3858267716535433,
                    "duration": 0.043988249999998175
                },
                {
                    "name": "G#3",
                    "midi": 56,
                    "time": 110.32253099999976,
                    "velocity": 0.3937007874015748,
                    "duration": 0.043988249999998175
                },
                {
                    "name": "C4",
                    "midi": 60,
                    "time": 110.41050749999975,
                    "velocity": 0.3937007874015748,
                    "duration": 0.043988249999998175
                },
                {
                    "name": "A#3",
                    "midi": 58,
                    "time": 110.49848399999975,
                    "velocity": 0.4094488188976378,
                    "duration": 0.043988249999998175
                },
                {
                    "name": "G#3",
                    "midi": 56,
                    "time": 110.58646049999975,
                    "velocity": 0.3779527559055118,
                    "duration": 0.043988249999998175
                },
                {
                    "name": "G3",
                    "midi": 55,
                    "time": 110.67443699999974,
                    "velocity": 0.3858267716535433,
                    "duration": 0.043988249999998175
                },
                {
                    "name": "F3",
                    "midi": 53,
                    "time": 110.76241349999974,
                    "velocity": 0.3858267716535433,
                    "duration": 0.032991187500002184
                },
                {
                    "name": "A3",
                    "midi": 57,
                    "time": 110.82839587499974,
                    "velocity": 0.36220472440944884,
                    "duration": 0.021994125000006193
                },
                {
                    "name": "A#3",
                    "midi": 58,
                    "time": 110.85038999999975,
                    "velocity": 0.4094488188976378,
                    "duration": 0.043988249999998175
                },
                {
                    "name": "A#3",
                    "midi": 58,
                    "time": 111.02634299999974,
                    "velocity": 0.36220472440944884,
                    "duration": 0.06598237500000437
                },
                {
                    "name": "A#3",
                    "midi": 58,
                    "time": 111.11431949999975,
                    "velocity": 0.3779527559055118,
                    "duration": 0.043988249999998175
                },
                {
                    "name": "C4",
                    "midi": 60,
                    "time": 111.15830774999975,
                    "velocity": 0.3779527559055118,
                    "duration": 0.043988249999998175
                },
                {
                    "name": "A#3",
                    "midi": 58,
                    "time": 111.20229599999975,
                    "velocity": 0.3858267716535433,
                    "duration": 0.032991187500002184
                },
                {
                    "name": "A3",
                    "midi": 57,
                    "time": 111.33426074999976,
                    "velocity": 0.36220472440944884,
                    "duration": 0.043988249999998175
                },
                {
                    "name": "A#3",
                    "midi": 58,
                    "time": 111.37824899999976,
                    "velocity": 0.4094488188976378,
                    "duration": 0.1759530000000069
                },
                {
                    "name": "D4",
                    "midi": 62,
                    "time": 111.55420199999976,
                    "velocity": 0.3858267716535433,
                    "duration": 0.021994125000006193
                },
                {
                    "name": "D4",
                    "midi": 62,
                    "time": 111.73015499999977,
                    "velocity": 0.4330708661417323,
                    "duration": 0.1759530000000069
                },
                {
                    "name": "C4",
                    "midi": 60,
                    "time": 111.90610799999978,
                    "velocity": 0.4094488188976378,
                    "duration": 0.043988249999998175
                },
                {
                    "name": "C4",
                    "midi": 60,
                    "time": 112.08206099999977,
                    "velocity": 0.4409448818897638,
                    "duration": 0.1759530000000069
                },
                {
                    "name": "G3",
                    "midi": 55,
                    "time": 112.25801399999978,
                    "velocity": 0.3858267716535433,
                    "duration": 0.043988249999998175
                },
                {
                    "name": "A#3",
                    "midi": 58,
                    "time": 112.43396699999977,
                    "velocity": 0.4409448818897638,
                    "duration": 0.06598237500000437
                },
                {
                    "name": "C4",
                    "midi": 60,
                    "time": 112.58792587499977,
                    "velocity": 0.3779527559055118,
                    "duration": 0.021994125000006193
                },
                {
                    "name": "A#3",
                    "midi": 58,
                    "time": 112.60991999999978,
                    "velocity": 0.3858267716535433,
                    "duration": 0.06598237500000437
                },
                {
                    "name": "A3",
                    "midi": 57,
                    "time": 112.74188474999978,
                    "velocity": 0.36220472440944884,
                    "duration": 0.043988249999998175
                },
                {
                    "name": "A#3",
                    "midi": 58,
                    "time": 112.78587299999978,
                    "velocity": 0.4094488188976378,
                    "duration": 0.043988249999998175
                },
                {
                    "name": "F3",
                    "midi": 53,
                    "time": 112.96182599999977,
                    "velocity": 0.4094488188976378,
                    "duration": 0.043988249999998175
                },
                {
                    "name": "G3",
                    "midi": 55,
                    "time": 113.04980249999977,
                    "velocity": 0.3858267716535433,
                    "duration": 0.043988249999998175
                },
                {
                    "name": "G#3",
                    "midi": 56,
                    "time": 113.13777899999977,
                    "velocity": 0.3937007874015748,
                    "duration": 0.043988249999998175
                },
                {
                    "name": "C4",
                    "midi": 60,
                    "time": 113.22575549999976,
                    "velocity": 0.3937007874015748,
                    "duration": 0.043988249999998175
                },
                {
                    "name": "A#3",
                    "midi": 58,
                    "time": 113.31373199999976,
                    "velocity": 0.4094488188976378,
                    "duration": 0.043988249999998175
                },
                {
                    "name": "G#3",
                    "midi": 56,
                    "time": 113.40170849999976,
                    "velocity": 0.3779527559055118,
                    "duration": 0.043988249999998175
                },
                {
                    "name": "G3",
                    "midi": 55,
                    "time": 113.48968499999975,
                    "velocity": 0.3858267716535433,
                    "duration": 0.043988249999998175
                },
                {
                    "name": "F3",
                    "midi": 53,
                    "time": 113.57766149999975,
                    "velocity": 0.3858267716535433,
                    "duration": 0.043988249999998175
                },
                {
                    "name": "G3",
                    "midi": 55,
                    "time": 113.66563799999975,
                    "velocity": 0.41732283464566927,
                    "duration": 0.043988249999998175
                },
                {
                    "name": "D#3",
                    "midi": 51,
                    "time": 113.84159099999974,
                    "velocity": 0.4409448818897638,
                    "duration": 0.3519059999999996
                },
                {
                    "name": "F#3",
                    "midi": 54,
                    "time": 114.19349699999974,
                    "velocity": 0.3543307086614173,
                    "duration": 0.043988249999998175
                },
                {
                    "name": "G3",
                    "midi": 55,
                    "time": 114.23748524999974,
                    "velocity": 0.3700787401574803,
                    "duration": 0.043988249999998175
                },
                {
                    "name": "A3",
                    "midi": 57,
                    "time": 114.28147349999973,
                    "velocity": 0.3858267716535433,
                    "duration": 0.043988249999998175
                },
                {
                    "name": "A#3",
                    "midi": 58,
                    "time": 114.32546174999973,
                    "velocity": 0.4015748031496063,
                    "duration": 0.043988249999998175
                },
                {
                    "name": "D4",
                    "midi": 62,
                    "time": 114.36944999999973,
                    "velocity": 0.3858267716535433,
                    "duration": 0.021994125000006193
                },
                {
                    "name": "D4",
                    "midi": 62,
                    "time": 114.54540299999974,
                    "velocity": 0.4330708661417323,
                    "duration": 0.1759530000000069
                },
                {
                    "name": "C4",
                    "midi": 60,
                    "time": 114.72135599999974,
                    "velocity": 0.4015748031496063,
                    "duration": 0.043988249999998175
                },
                {
                    "name": "C4",
                    "midi": 60,
                    "time": 114.89730899999974,
                    "velocity": 0.4409448818897638,
                    "duration": 0.1759530000000069
                },
                {
                    "name": "G3",
                    "midi": 55,
                    "time": 115.07326199999974,
                    "velocity": 0.4094488188976378,
                    "duration": 0.043988249999998175
                },
                {
                    "name": "A#3",
                    "midi": 58,
                    "time": 115.24921499999974,
                    "velocity": 0.36220472440944884,
                    "duration": 0.06598237500000437
                },
                {
                    "name": "C4",
                    "midi": 60,
                    "time": 115.40317387499974,
                    "velocity": 0.3779527559055118,
                    "duration": 0.021994125000006193
                },
                {
                    "name": "A#3",
                    "midi": 58,
                    "time": 115.42516799999974,
                    "velocity": 0.3858267716535433,
                    "duration": 0.06598237500000437
                },
                {
                    "name": "A3",
                    "midi": 57,
                    "time": 115.55713274999975,
                    "velocity": 0.36220472440944884,
                    "duration": 0.043988249999998175
                },
                {
                    "name": "A#3",
                    "midi": 58,
                    "time": 115.60112099999975,
                    "velocity": 0.4094488188976378,
                    "duration": 0.043988249999998175
                },
                {
                    "name": "F3",
                    "midi": 53,
                    "time": 115.77707399999974,
                    "velocity": 0.4094488188976378,
                    "duration": 0.043988249999998175
                },
                {
                    "name": "G3",
                    "midi": 55,
                    "time": 115.86505049999974,
                    "velocity": 0.3858267716535433,
                    "duration": 0.043988249999998175
                },
                {
                    "name": "G#3",
                    "midi": 56,
                    "time": 115.95302699999974,
                    "velocity": 0.3937007874015748,
                    "duration": 0.043988249999998175
                },
                {
                    "name": "C4",
                    "midi": 60,
                    "time": 116.04100349999973,
                    "velocity": 0.3937007874015748,
                    "duration": 0.043988249999998175
                },
                {
                    "name": "A#3",
                    "midi": 58,
                    "time": 116.12897999999973,
                    "velocity": 0.4094488188976378,
                    "duration": 0.043988249999998175
                },
                {
                    "name": "G#3",
                    "midi": 56,
                    "time": 116.21695649999972,
                    "velocity": 0.3779527559055118,
                    "duration": 0.043988249999998175
                },
                {
                    "name": "G3",
                    "midi": 55,
                    "time": 116.30493299999972,
                    "velocity": 0.3858267716535433,
                    "duration": 0.043988249999998175
                },
                {
                    "name": "F3",
                    "midi": 53,
                    "time": 116.39290949999972,
                    "velocity": 0.3858267716535433,
                    "duration": 0.032991187500002184
                },
                {
                    "name": "A3",
                    "midi": 57,
                    "time": 116.45889187499972,
                    "velocity": 0.36220472440944884,
                    "duration": 0.021994125000006193
                },
                {
                    "name": "A#3",
                    "midi": 58,
                    "time": 116.48088599999973,
                    "velocity": 0.4094488188976378,
                    "duration": 0.043988249999998175
                },
                {
                    "name": "A#3",
                    "midi": 58,
                    "time": 116.65683899999972,
                    "velocity": 0.36220472440944884,
                    "duration": 0.06598237500000437
                },
                {
                    "name": "A#3",
                    "midi": 58,
                    "time": 116.74481549999973,
                    "velocity": 0.3779527559055118,
                    "duration": 0.043988249999998175
                },
                {
                    "name": "C4",
                    "midi": 60,
                    "time": 116.78880374999973,
                    "velocity": 0.3779527559055118,
                    "duration": 0.043988249999998175
                },
                {
                    "name": "A#3",
                    "midi": 58,
                    "time": 116.83279199999973,
                    "velocity": 0.3858267716535433,
                    "duration": 0.06598237500000437
                },
                {
                    "name": "A3",
                    "midi": 57,
                    "time": 116.96475674999974,
                    "velocity": 0.36220472440944884,
                    "duration": 0.043988249999998175
                },
                {
                    "name": "A#3",
                    "midi": 58,
                    "time": 117.00874499999973,
                    "velocity": 0.4094488188976378,
                    "duration": 0.1759530000000069
                },
                {
                    "name": "D4",
                    "midi": 62,
                    "time": 117.18469799999974,
                    "velocity": 0.3858267716535433,
                    "duration": 0.021994125000006193
                },
                {
                    "name": "D4",
                    "midi": 62,
                    "time": 117.36065099999975,
                    "velocity": 0.4251968503937008,
                    "duration": 0.1759530000000069
                },
                {
                    "name": "C4",
                    "midi": 60,
                    "time": 117.53660399999976,
                    "velocity": 0.3858267716535433,
                    "duration": 0.043988249999998175
                },
                {
                    "name": "C4",
                    "midi": 60,
                    "time": 117.71255699999975,
                    "velocity": 0.4330708661417323,
                    "duration": 0.1759530000000069
                },
                {
                    "name": "G3",
                    "midi": 55,
                    "time": 117.88850999999975,
                    "velocity": 0.4094488188976378,
                    "duration": 0.043988249999998175
                },
                {
                    "name": "A#3",
                    "midi": 58,
                    "time": 118.06446299999975,
                    "velocity": 0.36220472440944884,
                    "duration": 0.06598237500000437
                },
                {
                    "name": "C4",
                    "midi": 60,
                    "time": 118.21842187499975,
                    "velocity": 0.3779527559055118,
                    "duration": 0.021994125000006193
                },
                {
                    "name": "A#3",
                    "midi": 58,
                    "time": 118.24041599999975,
                    "velocity": 0.3858267716535433,
                    "duration": 0.06598237500000437
                },
                {
                    "name": "A3",
                    "midi": 57,
                    "time": 118.37238074999976,
                    "velocity": 0.36220472440944884,
                    "duration": 0.043988249999998175
                },
                {
                    "name": "A#3",
                    "midi": 58,
                    "time": 118.41636899999976,
                    "velocity": 0.4094488188976378,
                    "duration": 0.08797649999999635
                },
                {
                    "name": "F3",
                    "midi": 53,
                    "time": 118.59232199999975,
                    "velocity": 0.4094488188976378,
                    "duration": 0.043988249999998175
                },
                {
                    "name": "G3",
                    "midi": 55,
                    "time": 118.68029849999975,
                    "velocity": 0.3858267716535433,
                    "duration": 0.043988249999998175
                },
                {
                    "name": "G#3",
                    "midi": 56,
                    "time": 118.76827499999975,
                    "velocity": 0.3937007874015748,
                    "duration": 0.043988249999998175
                },
                {
                    "name": "C4",
                    "midi": 60,
                    "time": 118.85625149999974,
                    "velocity": 0.3937007874015748,
                    "duration": 0.043988249999998175
                },
                {
                    "name": "A#3",
                    "midi": 58,
                    "time": 118.94422799999974,
                    "velocity": 0.4094488188976378,
                    "duration": 0.043988249999998175
                },
                {
                    "name": "G#3",
                    "midi": 56,
                    "time": 119.03220449999974,
                    "velocity": 0.3779527559055118,
                    "duration": 0.043988249999998175
                },
                {
                    "name": "G3",
                    "midi": 55,
                    "time": 119.12018099999973,
                    "velocity": 0.3858267716535433,
                    "duration": 0.043988249999998175
                },
                {
                    "name": "F3",
                    "midi": 53,
                    "time": 119.20815749999973,
                    "velocity": 0.3858267716535433,
                    "duration": 0.043988249999998175
                },
                {
                    "name": "G3",
                    "midi": 55,
                    "time": 119.29613399999973,
                    "velocity": 0.4409448818897638,
                    "duration": 0.043988249999998175
                },
                {
                    "name": "D#3",
                    "midi": 51,
                    "time": 119.47208699999972,
                    "velocity": 0.4566929133858268,
                    "duration": 0.3519060000000138
                },
                {
                    "name": "F#4",
                    "midi": 66,
                    "time": 119.78000474999972,
                    "velocity": 0.3228346456692913,
                    "duration": 0.043988250000012385
                },
                {
                    "name": "A4",
                    "midi": 69,
                    "time": 119.80199887499973,
                    "velocity": 0.3858267716535433,
                    "duration": 0.021994125000006193
                },
                {
                    "name": "A#4",
                    "midi": 70,
                    "time": 119.82399299999973,
                    "velocity": 0.3858267716535433,
                    "duration": 0.1759530000000069
                },
                {
                    "name": "G4",
                    "midi": 67,
                    "time": 119.82399299999973,
                    "velocity": 0.3228346456692913,
                    "duration": 0.1759530000000069
                },
                {
                    "name": "D5",
                    "midi": 74,
                    "time": 119.99994599999974,
                    "velocity": 0.3858267716535433,
                    "duration": 0.043988249999998175
                },
                {
                    "name": "F4",
                    "midi": 65,
                    "time": 119.99994599999974,
                    "velocity": 0.3228346456692913,
                    "duration": 0.043988249999998175
                },
                {
                    "name": "A#4",
                    "midi": 70,
                    "time": 119.99994599999974,
                    "velocity": 0.3228346456692913,
                    "duration": 0.043988249999998175
                },
                {
                    "name": "D5",
                    "midi": 74,
                    "time": 120.17589899999973,
                    "velocity": 0.3858267716535433,
                    "duration": 0.1759530000000069
                },
                {
                    "name": "F4",
                    "midi": 65,
                    "time": 120.17589899999973,
                    "velocity": 0.3228346456692913,
                    "duration": 0.1759530000000069
                },
                {
                    "name": "A#4",
                    "midi": 70,
                    "time": 120.17589899999973,
                    "velocity": 0.3228346456692913,
                    "duration": 0.1759530000000069
                },
                {
                    "name": "C5",
                    "midi": 72,
                    "time": 120.35185199999974,
                    "velocity": 0.4094488188976378,
                    "duration": 0.06598237500000437
                },
                {
                    "name": "G#4",
                    "midi": 68,
                    "time": 120.35185199999974,
                    "velocity": 0.3464566929133858,
                    "duration": 0.06598237500000437
                },
                {
                    "name": "C5",
                    "midi": 72,
                    "time": 120.52780499999974,
                    "velocity": 0.3700787401574803,
                    "duration": 0.1759530000000069
                },
                {
                    "name": "D4",
                    "midi": 62,
                    "time": 120.52780499999974,
                    "velocity": 0.30708661417322836,
                    "duration": 0.1759530000000069
                },
                {
                    "name": "G#4",
                    "midi": 68,
                    "time": 120.52780499999974,
                    "velocity": 0.30708661417322836,
                    "duration": 0.1759530000000069
                },
                {
                    "name": "G4",
                    "midi": 67,
                    "time": 120.70375799999975,
                    "velocity": 0.4094488188976378,
                    "duration": 0.06598237500000437
                },
                {
                    "name": "D#4",
                    "midi": 63,
                    "time": 120.70375799999975,
                    "velocity": 0.3464566929133858,
                    "duration": 0.06598237500000437
                },
                {
                    "name": "G4",
                    "midi": 67,
                    "time": 120.87971099999976,
                    "velocity": 0.36220472440944884,
                    "duration": 0.06598237500000437
                },
                {
                    "name": "A#4",
                    "midi": 70,
                    "time": 120.87971099999976,
                    "velocity": 0.36220472440944884,
                    "duration": 0.06598237500000437
                },
                {
                    "name": "A#3",
                    "midi": 58,
                    "time": 120.87971099999976,
                    "velocity": 0.30708661417322836,
                    "duration": 0.06598237500000437
                },
                {
                    "name": "C5",
                    "midi": 72,
                    "time": 121.01167574999977,
                    "velocity": 0.3779527559055118,
                    "duration": 0.043988249999998175
                },
                {
                    "name": "A#4",
                    "midi": 70,
                    "time": 121.05566399999977,
                    "velocity": 0.3858267716535433,
                    "duration": 0.06598237500000437
                },
                {
                    "name": "G4",
                    "midi": 67,
                    "time": 121.05566399999977,
                    "velocity": 0.3228346456692913,
                    "duration": 0.06598237500000437
                },
                {
                    "name": "A4",
                    "midi": 69,
                    "time": 121.18762874999977,
                    "velocity": 0.36220472440944884,
                    "duration": 0.043988249999998175
                },
                {
                    "name": "F#4",
                    "midi": 66,
                    "time": 121.18762874999977,
                    "velocity": 0.30708661417322836,
                    "duration": 0.043988249999998175
                },
                {
                    "name": "A#4",
                    "midi": 70,
                    "time": 121.23161699999977,
                    "velocity": 0.4094488188976378,
                    "duration": 0.08797649999999635
                },
                {
                    "name": "G4",
                    "midi": 67,
                    "time": 121.23161699999977,
                    "velocity": 0.3464566929133858,
                    "duration": 0.08797649999999635
                },
                {
                    "name": "F4",
                    "midi": 65,
                    "time": 121.40756999999977,
                    "velocity": 0.4094488188976378,
                    "duration": 0.043988249999998175
                },
                {
                    "name": "A#3",
                    "midi": 58,
                    "time": 121.40756999999977,
                    "velocity": 0.3464566929133858,
                    "duration": 0.3519059999999854
                },
                {
                    "name": "G4",
                    "midi": 67,
                    "time": 121.49554649999976,
                    "velocity": 0.3858267716535433,
                    "duration": 0.043988249999998175
                },
                {
                    "name": "G#4",
                    "midi": 68,
                    "time": 121.58352299999976,
                    "velocity": 0.3937007874015748,
                    "duration": 0.043988249999998175
                },
                {
                    "name": "C5",
                    "midi": 72,
                    "time": 121.67149949999975,
                    "velocity": 0.3937007874015748,
                    "duration": 0.043988249999998175
                },
                {
                    "name": "A#4",
                    "midi": 70,
                    "time": 121.75947599999975,
                    "velocity": 0.4094488188976378,
                    "duration": 0.043988249999998175
                },
                {
                    "name": "G#4",
                    "midi": 68,
                    "time": 121.84745249999975,
                    "velocity": 0.3779527559055118,
                    "duration": 0.043988249999998175
                },
                {
                    "name": "G4",
                    "midi": 67,
                    "time": 121.93542899999974,
                    "velocity": 0.3858267716535433,
                    "duration": 0.043988249999998175
                },
                {
                    "name": "F4",
                    "midi": 65,
                    "time": 122.02340549999974,
                    "velocity": 0.3858267716535433,
                    "duration": 0.043988249999998175
                },
                {
                    "name": "G4",
                    "midi": 67,
                    "time": 122.11138199999974,
                    "velocity": 0.4094488188976378,
                    "duration": 0.06598237500000437
                },
                {
                    "name": "A#4",
                    "midi": 70,
                    "time": 122.11138199999974,
                    "velocity": 0.4094488188976378,
                    "duration": 0.06598237500000437
                },
                {
                    "name": "G4",
                    "midi": 67,
                    "time": 122.28733499999974,
                    "velocity": 0.36220472440944884,
                    "duration": 0.06598237500000437
                },
                {
                    "name": "A#4",
                    "midi": 70,
                    "time": 122.28733499999974,
                    "velocity": 0.36220472440944884,
                    "duration": 0.06598237500000437
                },
                {
                    "name": "A#3",
                    "midi": 58,
                    "time": 122.28733499999974,
                    "velocity": 0.30708661417322836,
                    "duration": 0.06598237500000437
                },
                {
                    "name": "C5",
                    "midi": 72,
                    "time": 122.44129387499974,
                    "velocity": 0.3779527559055118,
                    "duration": 0.021994125000006193
                },
                {
                    "name": "A#4",
                    "midi": 70,
                    "time": 122.46328799999975,
                    "velocity": 0.3858267716535433,
                    "duration": 0.06598237500000437
                },
                {
                    "name": "G4",
                    "midi": 67,
                    "time": 122.46328799999975,
                    "velocity": 0.3228346456692913,
                    "duration": 0.06598237500000437
                },
                {
                    "name": "A4",
                    "midi": 69,
                    "time": 122.59525274999976,
                    "velocity": 0.36220472440944884,
                    "duration": 0.043988249999998175
                },
                {
                    "name": "F#4",
                    "midi": 66,
                    "time": 122.59525274999976,
                    "velocity": 0.30708661417322836,
                    "duration": 0.043988249999998175
                },
                {
                    "name": "A#4",
                    "midi": 70,
                    "time": 122.63924099999976,
                    "velocity": 0.4094488188976378,
                    "duration": 0.08797649999999635
                },
                {
                    "name": "G4",
                    "midi": 67,
                    "time": 122.63924099999976,
                    "velocity": 0.3464566929133858,
                    "duration": 0.08797649999999635
                },
                {
                    "name": "D6",
                    "midi": 86,
                    "time": 122.81519399999975,
                    "velocity": 0.3858267716535433,
                    "duration": 0.043988249999998175
                },
                {
                    "name": "F5",
                    "midi": 77,
                    "time": 122.81519399999975,
                    "velocity": 0.3228346456692913,
                    "duration": 0.043988249999998175
                },
                {
                    "name": "A#5",
                    "midi": 82,
                    "time": 122.81519399999975,
                    "velocity": 0.3228346456692913,
                    "duration": 0.043988249999998175
                },
                {
                    "name": "D6",
                    "midi": 86,
                    "time": 122.99114699999974,
                    "velocity": 0.3858267716535433,
                    "duration": 0.1759530000000069
                },
                {
                    "name": "F5",
                    "midi": 77,
                    "time": 122.99114699999974,
                    "velocity": 0.3228346456692913,
                    "duration": 0.1759530000000069
                },
                {
                    "name": "A#5",
                    "midi": 82,
                    "time": 122.99114699999974,
                    "velocity": 0.3228346456692913,
                    "duration": 0.1759530000000069
                },
                {
                    "name": "C6",
                    "midi": 84,
                    "time": 123.16709999999975,
                    "velocity": 0.4094488188976378,
                    "duration": 0.06598237500000437
                },
                {
                    "name": "G#5",
                    "midi": 80,
                    "time": 123.16709999999975,
                    "velocity": 0.3464566929133858,
                    "duration": 0.06598237500000437
                },
                {
                    "name": "C6",
                    "midi": 84,
                    "time": 123.34305299999976,
                    "velocity": 0.3700787401574803,
                    "duration": 0.1759530000000069
                },
                {
                    "name": "D5",
                    "midi": 74,
                    "time": 123.34305299999976,
                    "velocity": 0.30708661417322836,
                    "duration": 0.1759530000000069
                },
                {
                    "name": "G#5",
                    "midi": 80,
                    "time": 123.34305299999976,
                    "velocity": 0.30708661417322836,
                    "duration": 0.1759530000000069
                },
                {
                    "name": "G5",
                    "midi": 79,
                    "time": 123.51900599999976,
                    "velocity": 0.4094488188976378,
                    "duration": 0.06598237500000437
                },
                {
                    "name": "D#5",
                    "midi": 75,
                    "time": 123.51900599999976,
                    "velocity": 0.3464566929133858,
                    "duration": 0.06598237500000437
                },
                {
                    "name": "G5",
                    "midi": 79,
                    "time": 123.69495899999977,
                    "velocity": 0.36220472440944884,
                    "duration": 0.06598237500000437
                },
                {
                    "name": "A#5",
                    "midi": 82,
                    "time": 123.69495899999977,
                    "velocity": 0.36220472440944884,
                    "duration": 0.06598237500000437
                },
                {
                    "name": "A#4",
                    "midi": 70,
                    "time": 123.69495899999977,
                    "velocity": 0.30708661417322836,
                    "duration": 0.06598237500000437
                },
                {
                    "name": "C6",
                    "midi": 84,
                    "time": 123.84891787499977,
                    "velocity": 0.3779527559055118,
                    "duration": 0.021994125000006193
                },
                {
                    "name": "A#5",
                    "midi": 82,
                    "time": 123.87091199999978,
                    "velocity": 0.3858267716535433,
                    "duration": 0.06598237500000437
                },
                {
                    "name": "G5",
                    "midi": 79,
                    "time": 123.87091199999978,
                    "velocity": 0.3228346456692913,
                    "duration": 0.06598237500000437
                },
                {
                    "name": "A5",
                    "midi": 81,
                    "time": 124.00287674999979,
                    "velocity": 0.36220472440944884,
                    "duration": 0.043988249999998175
                },
                {
                    "name": "F#5",
                    "midi": 78,
                    "time": 124.00287674999979,
                    "velocity": 0.30708661417322836,
                    "duration": 0.043988249999998175
                },
                {
                    "name": "A#5",
                    "midi": 82,
                    "time": 124.04686499999978,
                    "velocity": 0.4094488188976378,
                    "duration": 0.08797649999999635
                },
                {
                    "name": "G5",
                    "midi": 79,
                    "time": 124.04686499999978,
                    "velocity": 0.3464566929133858,
                    "duration": 0.08797649999999635
                },
                {
                    "name": "F5",
                    "midi": 77,
                    "time": 124.22281799999978,
                    "velocity": 0.4094488188976378,
                    "duration": 0.043988249999998175
                },
                {
                    "name": "A#4",
                    "midi": 70,
                    "time": 124.22281799999978,
                    "velocity": 0.3464566929133858,
                    "duration": 0.3519059999999854
                },
                {
                    "name": "G5",
                    "midi": 79,
                    "time": 124.31079449999977,
                    "velocity": 0.3858267716535433,
                    "duration": 0.043988249999998175
                },
                {
                    "name": "G#5",
                    "midi": 80,
                    "time": 124.39877099999977,
                    "velocity": 0.3937007874015748,
                    "duration": 0.043988249999998175
                },
                {
                    "name": "C6",
                    "midi": 84,
                    "time": 124.48674749999977,
                    "velocity": 0.3937007874015748,
                    "duration": 0.043988249999998175
                },
                {
                    "name": "A#4",
                    "midi": 70,
                    "time": 124.57472399999976,
                    "velocity": 0.3464566929133858,
                    "duration": 0.3519059999999854
                },
                {
                    "name": "A#5",
                    "midi": 82,
                    "time": 124.57472399999976,
                    "velocity": 0.4094488188976378,
                    "duration": 0.043988249999998175
                },
                {
                    "name": "G#5",
                    "midi": 80,
                    "time": 124.66270049999976,
                    "velocity": 0.3779527559055118,
                    "duration": 0.043988249999998175
                },
                {
                    "name": "G5",
                    "midi": 79,
                    "time": 124.75067699999975,
                    "velocity": 0.3858267716535433,
                    "duration": 0.043988249999998175
                },
                {
                    "name": "F5",
                    "midi": 77,
                    "time": 124.83865349999975,
                    "velocity": 0.3858267716535433,
                    "duration": 0.043988249999998175
                },
                {
                    "name": "A#4",
                    "midi": 70,
                    "time": 124.92662999999975,
                    "velocity": 0.4094488188976378,
                    "duration": 0.06598237500000437
                },
                {
                    "name": "G5",
                    "midi": 79,
                    "time": 124.92662999999975,
                    "velocity": 0.4094488188976378,
                    "duration": 0.06598237500000437
                },
                {
                    "name": "A#4",
                    "midi": 70,
                    "time": 125.10258299999975,
                    "velocity": 0.36220472440944884,
                    "duration": 0.30791775000000143
                },
                {
                    "name": "D#5",
                    "midi": 75,
                    "time": 125.10258299999975,
                    "velocity": 0.36220472440944884,
                    "duration": 0.30791775000000143
                },
                {
                    "name": "G4",
                    "midi": 67,
                    "time": 125.10258299999975,
                    "velocity": 0.30708661417322836,
                    "duration": 0.30791775000000143
                },
                {
                    "name": "D5",
                    "midi": 74,
                    "time": 125.43249487499976,
                    "velocity": 0.36220472440944884,
                    "duration": 0.021994125000006193
                },
                {
                    "name": "G4",
                    "midi": 67,
                    "time": 125.45448899999977,
                    "velocity": 0.28346456692913385,
                    "duration": 0.08797649999999635
                },
                {
                    "name": "A#4",
                    "midi": 70,
                    "time": 125.45448899999977,
                    "velocity": 0.29133858267716534,
                    "duration": 0.08797649999999635
                },
                {
                    "name": "D#5",
                    "midi": 75,
                    "time": 125.45448899999977,
                    "velocity": 0.33858267716535434,
                    "duration": 0.08797649999999635
                },
                {
                    "name": "F6",
                    "midi": 89,
                    "time": 125.63044199999976,
                    "velocity": 0.4094488188976378,
                    "duration": 0.043988249999998175
                },
                {
                    "name": "A#5",
                    "midi": 82,
                    "time": 125.63044199999976,
                    "velocity": 0.3464566929133858,
                    "duration": 0.3519059999999854
                },
                {
                    "name": "G6",
                    "midi": 91,
                    "time": 125.71841849999976,
                    "velocity": 0.3858267716535433,
                    "duration": 0.043988249999998175
                },
                {
                    "name": "G#6",
                    "midi": 92,
                    "time": 125.80639499999975,
                    "velocity": 0.3937007874015748,
                    "duration": 0.043988249999998175
                },
                {
                    "name": "C7",
                    "midi": 96,
                    "time": 125.89437149999975,
                    "velocity": 0.3937007874015748,
                    "duration": 0.043988249999998175
                },
                {
                    "name": "A#5",
                    "midi": 82,
                    "time": 125.98234799999975,
                    "velocity": 0.3464566929133858,
                    "duration": 0.3519059999999854
                },
                {
                    "name": "A#6",
                    "midi": 94,
                    "time": 125.98234799999975,
                    "velocity": 0.4094488188976378,
                    "duration": 0.043988249999998175
                },
                {
                    "name": "G#6",
                    "midi": 92,
                    "time": 126.07032449999974,
                    "velocity": 0.3779527559055118,
                    "duration": 0.043988249999998175
                },
                {
                    "name": "G6",
                    "midi": 91,
                    "time": 126.15830099999974,
                    "velocity": 0.3858267716535433,
                    "duration": 0.043988249999998175
                },
                {
                    "name": "F6",
                    "midi": 89,
                    "time": 126.24627749999974,
                    "velocity": 0.3858267716535433,
                    "duration": 0.043988249999998175
                },
                {
                    "name": "A#5",
                    "midi": 82,
                    "time": 126.33425399999973,
                    "velocity": 0.3464566929133858,
                    "duration": 0.06598237500000437
                },
                {
                    "name": "A#6",
                    "midi": 94,
                    "time": 126.33425399999973,
                    "velocity": 0.4094488188976378,
                    "duration": 0.06598237500000437
                },
                {
                    "name": "G6",
                    "midi": 91,
                    "time": 126.33425399999973,
                    "velocity": 0.3464566929133858,
                    "duration": 0.06598237500000437
                },
                {
                    "name": "A#5",
                    "midi": 82,
                    "time": 126.51020699999974,
                    "velocity": 0.3464566929133858,
                    "duration": 0.1759529999999927
                },
                {
                    "name": "A#6",
                    "midi": 94,
                    "time": 126.51020699999974,
                    "velocity": 0.3858267716535433,
                    "duration": 0.13196474999999452
                },
                {
                    "name": "G6",
                    "midi": 91,
                    "time": 126.51020699999974,
                    "velocity": 0.3228346456692913,
                    "duration": 0.13196474999999452
                },
                {
                    "name": "A6",
                    "midi": 93,
                    "time": 126.64217174999973,
                    "velocity": 0.36220472440944884,
                    "duration": 0.043988249999998175
                },
                {
                    "name": "F#6",
                    "midi": 90,
                    "time": 126.64217174999973,
                    "velocity": 0.30708661417322836,
                    "duration": 0.043988249999998175
                },
                {
                    "name": "A#5",
                    "midi": 82,
                    "time": 126.68615999999973,
                    "velocity": 0.3464566929133858,
                    "duration": 0.3519059999999996
                },
                {
                    "name": "A#6",
                    "midi": 94,
                    "time": 126.68615999999973,
                    "velocity": 0.4094488188976378,
                    "duration": 0.3519059999999996
                },
                {
                    "name": "G6",
                    "midi": 91,
                    "time": 126.68615999999973,
                    "velocity": 0.3464566929133858,
                    "duration": 0.3519059999999996
                },
                {
                    "name": "F5",
                    "midi": 77,
                    "time": 127.03806599999973,
                    "velocity": 0.4094488188976378,
                    "duration": 0.043988249999998175
                },
                {
                    "name": "A#4",
                    "midi": 70,
                    "time": 127.03806599999973,
                    "velocity": 0.3464566929133858,
                    "duration": 0.3519059999999854
                },
                {
                    "name": "G5",
                    "midi": 79,
                    "time": 127.12604249999973,
                    "velocity": 0.3858267716535433,
                    "duration": 0.043988249999998175
                },
                {
                    "name": "G#5",
                    "midi": 80,
                    "time": 127.21401899999972,
                    "velocity": 0.3937007874015748,
                    "duration": 0.043988249999998175
                },
                {
                    "name": "C6",
                    "midi": 84,
                    "time": 127.30199549999972,
                    "velocity": 0.3937007874015748,
                    "duration": 0.043988249999998175
                },
                {
                    "name": "A#4",
                    "midi": 70,
                    "time": 127.38997199999972,
                    "velocity": 0.3464566929133858,
                    "duration": 0.3519059999999854
                },
                {
                    "name": "A#5",
                    "midi": 82,
                    "time": 127.38997199999972,
                    "velocity": 0.4094488188976378,
                    "duration": 0.043988249999998175
                },
                {
                    "name": "G#5",
                    "midi": 80,
                    "time": 127.47794849999971,
                    "velocity": 0.3779527559055118,
                    "duration": 0.043988249999998175
                },
                {
                    "name": "G5",
                    "midi": 79,
                    "time": 127.56592499999971,
                    "velocity": 0.3858267716535433,
                    "duration": 0.043988249999998175
                },
                {
                    "name": "F5",
                    "midi": 77,
                    "time": 127.6539014999997,
                    "velocity": 0.3858267716535433,
                    "duration": 0.043988249999998175
                },
                {
                    "name": "A#4",
                    "midi": 70,
                    "time": 127.7418779999997,
                    "velocity": 0.4094488188976378,
                    "duration": 0.06598237500000437
                },
                {
                    "name": "G5",
                    "midi": 79,
                    "time": 127.7418779999997,
                    "velocity": 0.4094488188976378,
                    "duration": 0.06598237500000437
                },
                {
                    "name": "A#4",
                    "midi": 70,
                    "time": 127.91783099999971,
                    "velocity": 0.36220472440944884,
                    "duration": 0.3079177499999872
                },
                {
                    "name": "D#5",
                    "midi": 75,
                    "time": 127.91783099999971,
                    "velocity": 0.36220472440944884,
                    "duration": 0.3079177499999872
                },
                {
                    "name": "G4",
                    "midi": 67,
                    "time": 127.91783099999971,
                    "velocity": 0.30708661417322836,
                    "duration": 0.3079177499999872
                },
                {
                    "name": "D5",
                    "midi": 74,
                    "time": 128.2477428749997,
                    "velocity": 0.36220472440944884,
                    "duration": 0.021994124999991982
                },
                {
                    "name": "G4",
                    "midi": 67,
                    "time": 128.26973699999968,
                    "velocity": 0.28346456692913385,
                    "duration": 0.08797649999999635
                },
                {
                    "name": "A#4",
                    "midi": 70,
                    "time": 128.26973699999968,
                    "velocity": 0.29133858267716534,
                    "duration": 0.08797649999999635
                },
                {
                    "name": "D#5",
                    "midi": 75,
                    "time": 128.26973699999968,
                    "velocity": 0.33858267716535434,
                    "duration": 0.08797649999999635
                },
                {
                    "name": "F6",
                    "midi": 89,
                    "time": 128.44568999999967,
                    "velocity": 0.4094488188976378,
                    "duration": 0.043988250000012385
                },
                {
                    "name": "A#5",
                    "midi": 82,
                    "time": 128.44568999999967,
                    "velocity": 0.3464566929133858,
                    "duration": 0.3519060000000991
                },
                {
                    "name": "G6",
                    "midi": 91,
                    "time": 128.5336664999997,
                    "velocity": 0.3858267716535433,
                    "duration": 0.043988250000012385
                },
                {
                    "name": "G#6",
                    "midi": 92,
                    "time": 128.62164299999972,
                    "velocity": 0.3937007874015748,
                    "duration": 0.043988250000012385
                },
                {
                    "name": "C7",
                    "midi": 96,
                    "time": 128.70961949999975,
                    "velocity": 0.3937007874015748,
                    "duration": 0.043988250000012385
                },
                {
                    "name": "A#5",
                    "midi": 82,
                    "time": 128.79759599999977,
                    "velocity": 0.3464566929133858,
                    "duration": 0.3519060000000991
                },
                {
                    "name": "A#6",
                    "midi": 94,
                    "time": 128.79759599999977,
                    "velocity": 0.4094488188976378,
                    "duration": 0.043988250000012385
                },
                {
                    "name": "G#6",
                    "midi": 92,
                    "time": 128.8855724999998,
                    "velocity": 0.3779527559055118,
                    "duration": 0.043988250000012385
                },
                {
                    "name": "G6",
                    "midi": 91,
                    "time": 128.97354899999982,
                    "velocity": 0.3858267716535433,
                    "duration": 0.043988250000012385
                },
                {
                    "name": "F6",
                    "midi": 89,
                    "time": 129.06152549999985,
                    "velocity": 0.3858267716535433,
                    "duration": 0.043988250000012385
                },
                {
                    "name": "A#5",
                    "midi": 82,
                    "time": 129.14950199999987,
                    "velocity": 0.3464566929133858,
                    "duration": 0.06598237500000437
                },
                {
                    "name": "A#6",
                    "midi": 94,
                    "time": 129.14950199999987,
                    "velocity": 0.4094488188976378,
                    "duration": 0.06598237500000437
                },
                {
                    "name": "G6",
                    "midi": 91,
                    "time": 129.14950199999987,
                    "velocity": 0.3464566929133858,
                    "duration": 0.06598237500000437
                },
                {
                    "name": "A#5",
                    "midi": 82,
                    "time": 129.32545499999986,
                    "velocity": 0.3464566929133858,
                    "duration": 0.17595300000002112
                },
                {
                    "name": "A#6",
                    "midi": 94,
                    "time": 129.32545499999986,
                    "velocity": 0.3858267716535433,
                    "duration": 0.13196475000000873
                },
                {
                    "name": "G6",
                    "midi": 91,
                    "time": 129.32545499999986,
                    "velocity": 0.3228346456692913,
                    "duration": 0.13196475000000873
                },
                {
                    "name": "A6",
                    "midi": 93,
                    "time": 129.45741974999987,
                    "velocity": 0.36220472440944884,
                    "duration": 0.043988250000012385
                },
                {
                    "name": "F#6",
                    "midi": 90,
                    "time": 129.45741974999987,
                    "velocity": 0.30708661417322836,
                    "duration": 0.043988250000012385
                },
                {
                    "name": "A#5",
                    "midi": 82,
                    "time": 129.50140799999988,
                    "velocity": 0.3464566929133858,
                    "duration": 0.3519060000000138
                },
                {
                    "name": "A#6",
                    "midi": 94,
                    "time": 129.50140799999988,
                    "velocity": 0.4094488188976378,
                    "duration": 0.3519060000000138
                },
                {
                    "name": "G6",
                    "midi": 91,
                    "time": 129.50140799999988,
                    "velocity": 0.3464566929133858,
                    "duration": 0.3519060000000138
                },
                {
                    "name": "F5",
                    "midi": 77,
                    "time": 129.8533139999999,
                    "velocity": 0.4094488188976378,
                    "duration": 0.043988250000012385
                },
                {
                    "name": "A#4",
                    "midi": 70,
                    "time": 129.8533139999999,
                    "velocity": 0.3464566929133858,
                    "duration": 0.3519060000000991
                },
                {
                    "name": "G5",
                    "midi": 79,
                    "time": 129.94129049999992,
                    "velocity": 0.3858267716535433,
                    "duration": 0.043988250000012385
                },
                {
                    "name": "G#5",
                    "midi": 80,
                    "time": 130.02926699999995,
                    "velocity": 0.3937007874015748,
                    "duration": 0.043988250000012385
                },
                {
                    "name": "C6",
                    "midi": 84,
                    "time": 130.11724349999997,
                    "velocity": 0.3937007874015748,
                    "duration": 0.043988250000012385
                },
                {
                    "name": "A#4",
                    "midi": 70,
                    "time": 130.20522,
                    "velocity": 0.3464566929133858,
                    "duration": 0.35190600000007066
                },
                {
                    "name": "A#5",
                    "midi": 82,
                    "time": 130.20522,
                    "velocity": 0.4094488188976378,
                    "duration": 0.043988250000012385
                },
                {
                    "name": "G#5",
                    "midi": 80,
                    "time": 130.29319650000002,
                    "velocity": 0.3779527559055118,
                    "duration": 0.043988250000012385
                },
                {
                    "name": "G5",
                    "midi": 79,
                    "time": 130.38117300000005,
                    "velocity": 0.3858267716535433,
                    "duration": 0.043988250000012385
                },
                {
                    "name": "F5",
                    "midi": 77,
                    "time": 130.46914950000007,
                    "velocity": 0.3858267716535433,
                    "duration": 0.043988250000012385
                },
                {
                    "name": "F#5",
                    "midi": 78,
                    "time": 130.53513187500008,
                    "velocity": 0.3858267716535433,
                    "duration": 0.021994124999991982
                },
                {
                    "name": "G5",
                    "midi": 79,
                    "time": 130.55712600000007,
                    "velocity": 0.3858267716535433,
                    "duration": 0.043988250000012385
                },
                {
                    "name": "A#4",
                    "midi": 70,
                    "time": 130.7330790000001,
                    "velocity": 0.3464566929133858,
                    "duration": 0.08797649999999635
                },
                {
                    "name": "G4",
                    "midi": 67,
                    "time": 130.7330790000001,
                    "velocity": 0.29133858267716534,
                    "duration": 0.17595300000002112
                },
                {
                    "name": "D#5",
                    "midi": 75,
                    "time": 130.82105550000009,
                    "velocity": 0.3858267716535433,
                    "duration": 0.043988250000012385
                },
                {
                    "name": "D5",
                    "midi": 74,
                    "time": 130.9090320000001,
                    "velocity": 0.33070866141732286,
                    "duration": 0.08797649999999635
                },
                {
                    "name": "G#4",
                    "midi": 68,
                    "time": 130.9090320000001,
                    "velocity": 0.2755905511811024,
                    "duration": 0.17595300000002112
                },
                {
                    "name": "F5",
                    "midi": 77,
                    "time": 130.9970085000001,
                    "velocity": 0.3858267716535433,
                    "duration": 0.043988250000012385
                },
                {
                    "name": "F4",
                    "midi": 65,
                    "time": 131.08498500000013,
                    "velocity": 0.33070866141732286,
                    "duration": 0.08797649999999635
                },
                {
                    "name": "D4",
                    "midi": 62,
                    "time": 131.08498500000013,
                    "velocity": 0.2755905511811024,
                    "duration": 0.17595300000002112
                },
                {
                    "name": "B4",
                    "midi": 71,
                    "time": 131.17296150000013,
                    "velocity": 0.3858267716535433,
                    "duration": 0.043988250000012385
                },
                {
                    "name": "C5",
                    "midi": 72,
                    "time": 131.26093800000015,
                    "velocity": 0.36220472440944884,
                    "duration": 0.3519060000000138
                },
                {
                    "name": "G4",
                    "midi": 67,
                    "time": 131.26093800000015,
                    "velocity": 0.30708661417322836,
                    "duration": 0.3519060000000138
                },
                {
                    "name": "B4",
                    "midi": 71,
                    "time": 131.61284400000017,
                    "velocity": 0.3700787401574803,
                    "duration": 0.058650999999997566
                },
                {
                    "name": "C5",
                    "midi": 72,
                    "time": 131.67149500000016,
                    "velocity": 0.3228346456692913,
                    "duration": 0.058650999999997566
                },
                {
                    "name": "D5",
                    "midi": 74,
                    "time": 131.73014600000016,
                    "velocity": 0.3228346456692913,
                    "duration": 0.058650999999997566
                },
                {
                    "name": "C5",
                    "midi": 72,
                    "time": 131.78879700000016,
                    "velocity": 0.3543307086614173,
                    "duration": 0.058650999999997566
                },
                {
                    "name": "B4",
                    "midi": 71,
                    "time": 131.84744800000016,
                    "velocity": 0.31496062992125984,
                    "duration": 0.058650999999997566
                },
                {
                    "name": "C5",
                    "midi": 72,
                    "time": 131.90609900000015,
                    "velocity": 0.3543307086614173,
                    "duration": 0.058650999999997566
                },
                {
                    "name": "F4",
                    "midi": 65,
                    "time": 132.03073237500016,
                    "velocity": 0.3700787401574803,
                    "duration": 0.46187662499997373
                },
                {
                    "name": "C5",
                    "midi": 72,
                    "time": 132.05272650000015,
                    "velocity": 0.3858267716535433,
                    "duration": 0.43988249999998175
                },
                {
                    "name": "F5",
                    "midi": 77,
                    "time": 132.07472062500014,
                    "velocity": 0.4015748031496063,
                    "duration": 0.41788837499998976
                },
                {
                    "name": "D#5",
                    "midi": 75,
                    "time": 132.49260900000013,
                    "velocity": 0.3858267716535433,
                    "duration": 0.13196475000000873
                },
                {
                    "name": "D#5",
                    "midi": 75,
                    "time": 132.62457375000014,
                    "velocity": 0.33070866141732286,
                    "duration": 0.043988250000012385
                },
                {
                    "name": "D4",
                    "midi": 62,
                    "time": 132.73454437500016,
                    "velocity": 0.3700787401574803,
                    "duration": 0.46187662499997373
                },
                {
                    "name": "G#4",
                    "midi": 68,
                    "time": 132.75653850000015,
                    "velocity": 0.3858267716535433,
                    "duration": 0.43988249999998175
                },
                {
                    "name": "D5",
                    "midi": 74,
                    "time": 132.77853262500014,
                    "velocity": 0.4015748031496063,
                    "duration": 0.41788837499998976
                },
                {
                    "name": "D4",
                    "midi": 62,
                    "time": 133.19642100000013,
                    "velocity": 0.36220472440944884,
                    "duration": 0.06598237499997595
                },
                {
                    "name": "G#4",
                    "midi": 68,
                    "time": 133.21841512500012,
                    "velocity": 0.3937007874015748,
                    "duration": 0.043988249999983964
                },
                {
                    "name": "F5",
                    "midi": 77,
                    "time": 133.2404092500001,
                    "velocity": 0.4566929133858268,
                    "duration": 0.021994124999991982
                },
                {
                    "name": "D#5",
                    "midi": 75,
                    "time": 133.3723740000001,
                    "velocity": 0.4409448818897638,
                    "duration": 0.043988250000012385
                },
                {
                    "name": "G4",
                    "midi": 67,
                    "time": 133.3723740000001,
                    "velocity": 0.3700787401574803,
                    "duration": 0.043988250000012385
                },
                {
                    "name": "F5",
                    "midi": 77,
                    "time": 133.46035050000012,
                    "velocity": 0.3858267716535433,
                    "duration": 0.043988250000012385
                },
                {
                    "name": "A#4",
                    "midi": 70,
                    "time": 133.46035050000012,
                    "velocity": 0.3228346456692913,
                    "duration": 0.043988250000012385
                },
                {
                    "name": "G5",
                    "midi": 79,
                    "time": 133.54832700000014,
                    "velocity": 0.3937007874015748,
                    "duration": 0.043988250000012385
                },
                {
                    "name": "D#5",
                    "midi": 75,
                    "time": 133.54832700000014,
                    "velocity": 0.33070866141732286,
                    "duration": 0.043988250000012385
                },
                {
                    "name": "G#5",
                    "midi": 80,
                    "time": 133.63630350000017,
                    "velocity": 0.3464566929133858,
                    "duration": 0.043988250000012385
                },
                {
                    "name": "F5",
                    "midi": 77,
                    "time": 133.63630350000017,
                    "velocity": 0.29133858267716534,
                    "duration": 0.043988250000012385
                },
                {
                    "name": "C6",
                    "midi": 84,
                    "time": 133.70228587500017,
                    "velocity": 0.4409448818897638,
                    "duration": 0.021994124999991982
                },
                {
                    "name": "A#5",
                    "midi": 82,
                    "time": 133.72428000000016,
                    "velocity": 0.3937007874015748,
                    "duration": 0.043988250000012385
                },
                {
                    "name": "G5",
                    "midi": 79,
                    "time": 133.72428000000016,
                    "velocity": 0.33070866141732286,
                    "duration": 0.043988250000012385
                },
                {
                    "name": "A5",
                    "midi": 81,
                    "time": 133.85624475000017,
                    "velocity": 0.3543307086614173,
                    "duration": 0.043988250000012385
                },
                {
                    "name": "F#5",
                    "midi": 78,
                    "time": 133.85624475000017,
                    "velocity": 0.2992125984251969,
                    "duration": 0.043988250000012385
                },
                {
                    "name": "A#5",
                    "midi": 82,
                    "time": 133.90023300000018,
                    "velocity": 0.3937007874015748,
                    "duration": 0.043988250000012385
                },
                {
                    "name": "G5",
                    "midi": 79,
                    "time": 133.90023300000018,
                    "velocity": 0.3937007874015748,
                    "duration": 0.043988250000012385
                },
                {
                    "name": "G#3",
                    "midi": 56,
                    "time": 134.0761860000002,
                    "velocity": 0.7637795275590551,
                    "duration": 0.13196475000000873
                },
                {
                    "name": "C6",
                    "midi": 84,
                    "time": 134.25213900000023,
                    "velocity": 0.4409448818897638,
                    "duration": 0.043988250000012385
                },
                {
                    "name": "C5",
                    "midi": 72,
                    "time": 134.25213900000023,
                    "velocity": 0.3700787401574803,
                    "duration": 0.043988250000012385
                },
                {
                    "name": "D#5",
                    "midi": 75,
                    "time": 134.25213900000023,
                    "velocity": 0.3700787401574803,
                    "duration": 0.043988250000012385
                },
                {
                    "name": "C6",
                    "midi": 84,
                    "time": 134.42809200000025,
                    "velocity": 0.5196850393700787,
                    "duration": 0.043988250000012385
                },
                {
                    "name": "G#5",
                    "midi": 80,
                    "time": 134.42809200000025,
                    "velocity": 0.4409448818897638,
                    "duration": 0.043988250000012385
                },
                {
                    "name": "C5",
                    "midi": 72,
                    "time": 134.42809200000025,
                    "velocity": 0.4409448818897638,
                    "duration": 0.043988250000012385
                },
                {
                    "name": "B5",
                    "midi": 83,
                    "time": 134.56005675000026,
                    "velocity": 0.4015748031496063,
                    "duration": 0.043988250000012385
                },
                {
                    "name": "B4",
                    "midi": 71,
                    "time": 134.56005675000026,
                    "velocity": 0.33070866141732286,
                    "duration": 0.043988250000012385
                },
                {
                    "name": "G5",
                    "midi": 79,
                    "time": 134.56005675000026,
                    "velocity": 0.33070866141732286,
                    "duration": 0.043988250000012385
                },
                {
                    "name": "C6",
                    "midi": 84,
                    "time": 134.60404500000027,
                    "velocity": 0.4015748031496063,
                    "duration": 0.043988250000012385
                },
                {
                    "name": "G#5",
                    "midi": 80,
                    "time": 134.60404500000027,
                    "velocity": 0.33070866141732286,
                    "duration": 0.043988250000012385
                },
                {
                    "name": "C5",
                    "midi": 72,
                    "time": 134.60404500000027,
                    "velocity": 0.33070866141732286,
                    "duration": 0.043988250000012385
                },
                {
                    "name": "G3",
                    "midi": 55,
                    "time": 134.7799980000003,
                    "velocity": 0.7559055118110236,
                    "duration": 0.13196475000000873
                },
                {
                    "name": "A#5",
                    "midi": 82,
                    "time": 134.9559510000003,
                    "velocity": 0.4409448818897638,
                    "duration": 0.043988250000012385
                },
                {
                    "name": "A#4",
                    "midi": 70,
                    "time": 134.9559510000003,
                    "velocity": 0.3700787401574803,
                    "duration": 0.043988250000012385
                },
                {
                    "name": "D#5",
                    "midi": 75,
                    "time": 134.9559510000003,
                    "velocity": 0.3700787401574803,
                    "duration": 0.043988250000012385
                },
                {
                    "name": "A#5",
                    "midi": 82,
                    "time": 135.13190400000033,
                    "velocity": 0.5196850393700787,
                    "duration": 0.043988250000012385
                },
                {
                    "name": "G5",
                    "midi": 79,
                    "time": 135.13190400000033,
                    "velocity": 0.4409448818897638,
                    "duration": 0.043988250000012385
                },
                {
                    "name": "A#4",
                    "midi": 70,
                    "time": 135.13190400000033,
                    "velocity": 0.4409448818897638,
                    "duration": 0.043988250000012385
                },
                {
                    "name": "A5",
                    "midi": 81,
                    "time": 135.26386875000034,
                    "velocity": 0.4015748031496063,
                    "duration": 0.043988250000012385
                },
                {
                    "name": "A4",
                    "midi": 69,
                    "time": 135.26386875000034,
                    "velocity": 0.33070866141732286,
                    "duration": 0.043988250000012385
                },
                {
                    "name": "F#5",
                    "midi": 78,
                    "time": 135.26386875000034,
                    "velocity": 0.33070866141732286,
                    "duration": 0.043988250000012385
                },
                {
                    "name": "A#5",
                    "midi": 82,
                    "time": 135.30785700000035,
                    "velocity": 0.4015748031496063,
                    "duration": 0.043988250000012385
                },
                {
                    "name": "G5",
                    "midi": 79,
                    "time": 135.30785700000035,
                    "velocity": 0.33070866141732286,
                    "duration": 0.043988250000012385
                },
                {
                    "name": "A#4",
                    "midi": 70,
                    "time": 135.30785700000035,
                    "velocity": 0.33070866141732286,
                    "duration": 0.043988250000012385
                },
                {
                    "name": "F3",
                    "midi": 53,
                    "time": 135.48381000000037,
                    "velocity": 0.7480314960629921,
                    "duration": 0.13196475000000873
                },
                {
                    "name": "G#5",
                    "midi": 80,
                    "time": 135.6597630000004,
                    "velocity": 0.4409448818897638,
                    "duration": 0.043988250000012385
                },
                {
                    "name": "G#4",
                    "midi": 68,
                    "time": 135.6597630000004,
                    "velocity": 0.3700787401574803,
                    "duration": 0.043988250000012385
                },
                {
                    "name": "D5",
                    "midi": 74,
                    "time": 135.6597630000004,
                    "velocity": 0.3700787401574803,
                    "duration": 0.043988250000012385
                },
                {
                    "name": "G#5",
                    "midi": 80,
                    "time": 135.83571600000042,
                    "velocity": 0.5196850393700787,
                    "duration": 0.043988250000012385
                },
                {
                    "name": "F5",
                    "midi": 77,
                    "time": 135.83571600000042,
                    "velocity": 0.4409448818897638,
                    "duration": 0.043988250000012385
                },
                {
                    "name": "G#4",
                    "midi": 68,
                    "time": 135.83571600000042,
                    "velocity": 0.4409448818897638,
                    "duration": 0.043988250000012385
                },
                {
                    "name": "G5",
                    "midi": 79,
                    "time": 135.96768075000043,
                    "velocity": 0.4015748031496063,
                    "duration": 0.043988250000012385
                },
                {
                    "name": "G4",
                    "midi": 67,
                    "time": 135.96768075000043,
                    "velocity": 0.33070866141732286,
                    "duration": 0.043988250000012385
                },
                {
                    "name": "E5",
                    "midi": 76,
                    "time": 135.96768075000043,
                    "velocity": 0.33070866141732286,
                    "duration": 0.043988250000012385
                },
                {
                    "name": "G#5",
                    "midi": 80,
                    "time": 136.01166900000044,
                    "velocity": 0.4015748031496063,
                    "duration": 0.043988250000012385
                },
                {
                    "name": "F5",
                    "midi": 77,
                    "time": 136.01166900000044,
                    "velocity": 0.33070866141732286,
                    "duration": 0.043988250000012385
                },
                {
                    "name": "G#4",
                    "midi": 68,
                    "time": 136.01166900000044,
                    "velocity": 0.33070866141732286,
                    "duration": 0.043988250000012385
                },
                {
                    "name": "D#3",
                    "midi": 51,
                    "time": 136.18762200000046,
                    "velocity": 0.7795275590551181,
                    "duration": 0.13196475000000873
                },
                {
                    "name": "G5",
                    "midi": 79,
                    "time": 136.36357500000048,
                    "velocity": 0.4409448818897638,
                    "duration": 0.043988250000012385
                },
                {
                    "name": "G4",
                    "midi": 67,
                    "time": 136.36357500000048,
                    "velocity": 0.3700787401574803,
                    "duration": 0.043988250000012385
                },
                {
                    "name": "A#4",
                    "midi": 70,
                    "time": 136.36357500000048,
                    "velocity": 0.3700787401574803,
                    "duration": 0.043988250000012385
                },
                {
                    "name": "G5",
                    "midi": 79,
                    "time": 136.5395280000005,
                    "velocity": 0.5196850393700787,
                    "duration": 0.043988250000012385
                },
                {
                    "name": "D#5",
                    "midi": 75,
                    "time": 136.5395280000005,
                    "velocity": 0.4409448818897638,
                    "duration": 0.043988250000012385
                },
                {
                    "name": "G4",
                    "midi": 67,
                    "time": 136.5395280000005,
                    "velocity": 0.4409448818897638,
                    "duration": 0.043988250000012385
                },
                {
                    "name": "F#5",
                    "midi": 78,
                    "time": 136.6714927500005,
                    "velocity": 0.4015748031496063,
                    "duration": 0.043988250000012385
                },
                {
                    "name": "F#4",
                    "midi": 66,
                    "time": 136.6714927500005,
                    "velocity": 0.33070866141732286,
                    "duration": 0.043988250000012385
                },
                {
                    "name": "D5",
                    "midi": 74,
                    "time": 136.6714927500005,
                    "velocity": 0.33070866141732286,
                    "duration": 0.043988250000012385
                },
                {
                    "name": "G5",
                    "midi": 79,
                    "time": 136.71548100000052,
                    "velocity": 0.4015748031496063,
                    "duration": 0.043988250000012385
                },
                {
                    "name": "D#5",
                    "midi": 75,
                    "time": 136.71548100000052,
                    "velocity": 0.33070866141732286,
                    "duration": 0.043988250000012385
                },
                {
                    "name": "G4",
                    "midi": 67,
                    "time": 136.71548100000052,
                    "velocity": 0.33070866141732286,
                    "duration": 0.043988250000012385
                },
                {
                    "name": "G#5",
                    "midi": 80,
                    "time": 136.89143400000054,
                    "velocity": 0.4094488188976378,
                    "duration": 0.043988250000012385
                },
                {
                    "name": "C5",
                    "midi": 72,
                    "time": 136.89143400000054,
                    "velocity": 0.3464566929133858,
                    "duration": 0.043988250000012385
                },
                {
                    "name": "G5",
                    "midi": 79,
                    "time": 136.97941050000057,
                    "velocity": 0.3700787401574803,
                    "duration": 0.043988250000012385
                },
                {
                    "name": "A#4",
                    "midi": 70,
                    "time": 136.97941050000057,
                    "velocity": 0.30708661417322836,
                    "duration": 0.043988250000012385
                },
                {
                    "name": "F5",
                    "midi": 77,
                    "time": 137.0673870000006,
                    "velocity": 0.3700787401574803,
                    "duration": 0.043988250000012385
                },
                {
                    "name": "G#4",
                    "midi": 68,
                    "time": 137.0673870000006,
                    "velocity": 0.30708661417322836,
                    "duration": 0.043988250000012385
                },
                {
                    "name": "D#5",
                    "midi": 75,
                    "time": 137.15536350000062,
                    "velocity": 0.3700787401574803,
                    "duration": 0.043988250000012385
                },
                {
                    "name": "G4",
                    "midi": 67,
                    "time": 137.15536350000062,
                    "velocity": 0.30708661417322836,
                    "duration": 0.043988250000012385
                },
                {
                    "name": "D5",
                    "midi": 74,
                    "time": 137.24334000000064,
                    "velocity": 0.4094488188976378,
                    "duration": 0.043988250000012385
                },
                {
                    "name": "F4",
                    "midi": 65,
                    "time": 137.24334000000064,
                    "velocity": 0.3464566929133858,
                    "duration": 0.043988250000012385
                },
                {
                    "name": "A#4",
                    "midi": 70,
                    "time": 137.33131650000067,
                    "velocity": 0.3543307086614173,
                    "duration": 0.043988250000012385
                },
                {
                    "name": "D4",
                    "midi": 62,
                    "time": 137.33131650000067,
                    "velocity": 0.2992125984251969,
                    "duration": 0.043988250000012385
                },
                {
                    "name": "C5",
                    "midi": 72,
                    "time": 137.4192930000007,
                    "velocity": 0.3543307086614173,
                    "duration": 0.043988250000012385
                },
                {
                    "name": "D#4",
                    "midi": 63,
                    "time": 137.4192930000007,
                    "velocity": 0.2992125984251969,
                    "duration": 0.043988250000012385
                },
                {
                    "name": "D5",
                    "midi": 74,
                    "time": 137.50726950000072,
                    "velocity": 0.3543307086614173,
                    "duration": 0.043988250000012385
                },
                {
                    "name": "F4",
                    "midi": 65,
                    "time": 137.50726950000072,
                    "velocity": 0.2992125984251969,
                    "duration": 0.043988250000012385
                },
                {
                    "name": "D#5",
                    "midi": 75,
                    "time": 137.59524600000074,
                    "velocity": 0.4409448818897638,
                    "duration": 0.043988250000012385
                },
                {
                    "name": "G4",
                    "midi": 67,
                    "time": 137.59524600000074,
                    "velocity": 0.3700787401574803,
                    "duration": 0.043988250000012385
                },
                {
                    "name": "F5",
                    "midi": 77,
                    "time": 137.68322250000077,
                    "velocity": 0.3858267716535433,
                    "duration": 0.043988250000012385
                },
                {
                    "name": "A#4",
                    "midi": 70,
                    "time": 137.68322250000077,
                    "velocity": 0.3228346456692913,
                    "duration": 0.043988250000012385
                },
                {
                    "name": "G5",
                    "midi": 79,
                    "time": 137.7711990000008,
                    "velocity": 0.3937007874015748,
                    "duration": 0.043988250000012385
                },
                {
                    "name": "D#5",
                    "midi": 75,
                    "time": 137.7711990000008,
                    "velocity": 0.33070866141732286,
                    "duration": 0.043988250000012385
                },
                {
                    "name": "G#5",
                    "midi": 80,
                    "time": 137.85917550000082,
                    "velocity": 0.3464566929133858,
                    "duration": 0.043988250000012385
                },
                {
                    "name": "F5",
                    "midi": 77,
                    "time": 137.85917550000082,
                    "velocity": 0.29133858267716534,
                    "duration": 0.043988250000012385
                },
                {
                    "name": "C6",
                    "midi": 84,
                    "time": 137.92515787500082,
                    "velocity": 0.4409448818897638,
                    "duration": 0.021994124999991982
                },
                {
                    "name": "A#5",
                    "midi": 82,
                    "time": 137.9471520000008,
                    "velocity": 0.3937007874015748,
                    "duration": 0.043988250000012385
                },
                {
                    "name": "G5",
                    "midi": 79,
                    "time": 137.9471520000008,
                    "velocity": 0.33070866141732286,
                    "duration": 0.043988250000012385
                },
                {
                    "name": "A5",
                    "midi": 81,
                    "time": 138.07911675000082,
                    "velocity": 0.3543307086614173,
                    "duration": 0.043988250000012385
                },
                {
                    "name": "F#5",
                    "midi": 78,
                    "time": 138.07911675000082,
                    "velocity": 0.2992125984251969,
                    "duration": 0.043988250000012385
                },
                {
                    "name": "A#5",
                    "midi": 82,
                    "time": 138.12310500000083,
                    "velocity": 0.3937007874015748,
                    "duration": 0.043988250000012385
                },
                {
                    "name": "G5",
                    "midi": 79,
                    "time": 138.12310500000083,
                    "velocity": 0.3937007874015748,
                    "duration": 0.043988250000012385
                },
                {
                    "name": "G#6",
                    "midi": 92,
                    "time": 138.29905800000085,
                    "velocity": 0.4094488188976378,
                    "duration": 0.043988250000012385
                },
                {
                    "name": "C6",
                    "midi": 84,
                    "time": 138.29905800000085,
                    "velocity": 0.3464566929133858,
                    "duration": 0.043988250000012385
                },
                {
                    "name": "G6",
                    "midi": 91,
                    "time": 138.38703450000088,
                    "velocity": 0.3700787401574803,
                    "duration": 0.043988250000012385
                },
                {
                    "name": "A#5",
                    "midi": 82,
                    "time": 138.38703450000088,
                    "velocity": 0.30708661417322836,
                    "duration": 0.043988250000012385
                },
                {
                    "name": "F6",
                    "midi": 89,
                    "time": 138.4750110000009,
                    "velocity": 0.3700787401574803,
                    "duration": 0.043988250000012385
                },
                {
                    "name": "G#5",
                    "midi": 80,
                    "time": 138.4750110000009,
                    "velocity": 0.30708661417322836,
                    "duration": 0.043988250000012385
                },
                {
                    "name": "D#6",
                    "midi": 87,
                    "time": 138.56298750000093,
                    "velocity": 0.3700787401574803,
                    "duration": 0.043988250000012385
                },
                {
                    "name": "G5",
                    "midi": 79,
                    "time": 138.56298750000093,
                    "velocity": 0.30708661417322836,
                    "duration": 0.043988250000012385
                },
                {
                    "name": "D6",
                    "midi": 86,
                    "time": 138.65096400000095,
                    "velocity": 0.4094488188976378,
                    "duration": 0.043988250000012385
                },
                {
                    "name": "F5",
                    "midi": 77,
                    "time": 138.65096400000095,
                    "velocity": 0.3464566929133858,
                    "duration": 0.043988250000012385
                },
                {
                    "name": "A#5",
                    "midi": 82,
                    "time": 138.73894050000098,
                    "velocity": 0.3543307086614173,
                    "duration": 0.043988250000012385
                },
                {
                    "name": "D5",
                    "midi": 74,
                    "time": 138.73894050000098,
                    "velocity": 0.2992125984251969,
                    "duration": 0.043988250000012385
                },
                {
                    "name": "C6",
                    "midi": 84,
                    "time": 138.826917000001,
                    "velocity": 0.3543307086614173,
                    "duration": 0.043988250000012385
                },
                {
                    "name": "D#5",
                    "midi": 75,
                    "time": 138.826917000001,
                    "velocity": 0.2992125984251969,
                    "duration": 0.043988250000012385
                },
                {
                    "name": "D6",
                    "midi": 86,
                    "time": 138.91489350000103,
                    "velocity": 0.3543307086614173,
                    "duration": 0.043988250000012385
                },
                {
                    "name": "F5",
                    "midi": 77,
                    "time": 138.91489350000103,
                    "velocity": 0.2992125984251969,
                    "duration": 0.043988250000012385
                },
                {
                    "name": "D#6",
                    "midi": 87,
                    "time": 139.00287000000105,
                    "velocity": 0.4409448818897638,
                    "duration": 0.043988250000012385
                },
                {
                    "name": "G5",
                    "midi": 79,
                    "time": 139.00287000000105,
                    "velocity": 0.3700787401574803,
                    "duration": 0.043988250000012385
                },
                {
                    "name": "F6",
                    "midi": 89,
                    "time": 139.09084650000108,
                    "velocity": 0.3858267716535433,
                    "duration": 0.043988250000012385
                },
                {
                    "name": "A#5",
                    "midi": 82,
                    "time": 139.09084650000108,
                    "velocity": 0.3228346456692913,
                    "duration": 0.043988250000012385
                },
                {
                    "name": "G6",
                    "midi": 91,
                    "time": 139.1788230000011,
                    "velocity": 0.3937007874015748,
                    "duration": 0.043988250000012385
                },
                {
                    "name": "D#6",
                    "midi": 87,
                    "time": 139.1788230000011,
                    "velocity": 0.33070866141732286,
                    "duration": 0.043988250000012385
                },
                {
                    "name": "G#6",
                    "midi": 92,
                    "time": 139.26679950000113,
                    "velocity": 0.3464566929133858,
                    "duration": 0.043988250000012385
                },
                {
                    "name": "F6",
                    "midi": 89,
                    "time": 139.26679950000113,
                    "velocity": 0.29133858267716534,
                    "duration": 0.043988250000012385
                },
                {
                    "name": "C7",
                    "midi": 96,
                    "time": 139.33278187500113,
                    "velocity": 0.4409448818897638,
                    "duration": 0.021994124999991982
                },
                {
                    "name": "A#6",
                    "midi": 94,
                    "time": 139.35477600000112,
                    "velocity": 0.3937007874015748,
                    "duration": 0.043988250000012385
                },
                {
                    "name": "G6",
                    "midi": 91,
                    "time": 139.35477600000112,
                    "velocity": 0.33070866141732286,
                    "duration": 0.043988250000012385
                },
                {
                    "name": "A6",
                    "midi": 93,
                    "time": 139.48674075000113,
                    "velocity": 0.3543307086614173,
                    "duration": 0.043988250000012385
                },
                {
                    "name": "F#6",
                    "midi": 90,
                    "time": 139.48674075000113,
                    "velocity": 0.2992125984251969,
                    "duration": 0.043988250000012385
                },
                {
                    "name": "A#6",
                    "midi": 94,
                    "time": 139.53072900000114,
                    "velocity": 0.3937007874015748,
                    "duration": 0.043988250000012385
                },
                {
                    "name": "G6",
                    "midi": 91,
                    "time": 139.53072900000114,
                    "velocity": 0.3937007874015748,
                    "duration": 0.043988250000012385
                },
                {
                    "name": "G#3",
                    "midi": 56,
                    "time": 139.70668200000117,
                    "velocity": 0.7322834645669292,
                    "duration": 0.13196475000000873
                },
                {
                    "name": "C6",
                    "midi": 84,
                    "time": 139.8826350000012,
                    "velocity": 0.4409448818897638,
                    "duration": 0.043988250000012385
                },
                {
                    "name": "C5",
                    "midi": 72,
                    "time": 139.8826350000012,
                    "velocity": 0.3700787401574803,
                    "duration": 0.043988250000012385
                },
                {
                    "name": "D#5",
                    "midi": 75,
                    "time": 139.8826350000012,
                    "velocity": 0.3700787401574803,
                    "duration": 0.043988250000012385
                },
                {
                    "name": "C6",
                    "midi": 84,
                    "time": 140.0585880000012,
                    "velocity": 0.5196850393700787,
                    "duration": 0.043988250000012385
                },
                {
                    "name": "G#5",
                    "midi": 80,
                    "time": 140.0585880000012,
                    "velocity": 0.4409448818897638,
                    "duration": 0.043988250000012385
                },
                {
                    "name": "C5",
                    "midi": 72,
                    "time": 140.0585880000012,
                    "velocity": 0.4409448818897638,
                    "duration": 0.043988250000012385
                },
                {
                    "name": "B5",
                    "midi": 83,
                    "time": 140.19055275000122,
                    "velocity": 0.4015748031496063,
                    "duration": 0.043988250000012385
                },
                {
                    "name": "B4",
                    "midi": 71,
                    "time": 140.19055275000122,
                    "velocity": 0.33070866141732286,
                    "duration": 0.043988250000012385
                },
                {
                    "name": "G5",
                    "midi": 79,
                    "time": 140.19055275000122,
                    "velocity": 0.33070866141732286,
                    "duration": 0.043988250000012385
                },
                {
                    "name": "C6",
                    "midi": 84,
                    "time": 140.23454100000123,
                    "velocity": 0.4015748031496063,
                    "duration": 0.043988250000012385
                },
                {
                    "name": "G#5",
                    "midi": 80,
                    "time": 140.23454100000123,
                    "velocity": 0.33070866141732286,
                    "duration": 0.043988250000012385
                },
                {
                    "name": "C5",
                    "midi": 72,
                    "time": 140.23454100000123,
                    "velocity": 0.33070866141732286,
                    "duration": 0.043988250000012385
                },
                {
                    "name": "G3",
                    "midi": 55,
                    "time": 140.41049400000125,
                    "velocity": 0.7952755905511811,
                    "duration": 0.13196475000000873
                },
                {
                    "name": "A#5",
                    "midi": 82,
                    "time": 140.58644700000127,
                    "velocity": 0.4409448818897638,
                    "duration": 0.043988250000012385
                },
                {
                    "name": "A#4",
                    "midi": 70,
                    "time": 140.58644700000127,
                    "velocity": 0.3700787401574803,
                    "duration": 0.043988250000012385
                },
                {
                    "name": "D#5",
                    "midi": 75,
                    "time": 140.58644700000127,
                    "velocity": 0.3700787401574803,
                    "duration": 0.043988250000012385
                },
                {
                    "name": "A#5",
                    "midi": 82,
                    "time": 140.7624000000013,
                    "velocity": 0.5196850393700787,
                    "duration": 0.043988250000012385
                },
                {
                    "name": "G5",
                    "midi": 79,
                    "time": 140.7624000000013,
                    "velocity": 0.4409448818897638,
                    "duration": 0.043988250000012385
                },
                {
                    "name": "A#4",
                    "midi": 70,
                    "time": 140.7624000000013,
                    "velocity": 0.4409448818897638,
                    "duration": 0.043988250000012385
                },
                {
                    "name": "A5",
                    "midi": 81,
                    "time": 140.8943647500013,
                    "velocity": 0.4015748031496063,
                    "duration": 0.043988250000012385
                },
                {
                    "name": "A4",
                    "midi": 69,
                    "time": 140.8943647500013,
                    "velocity": 0.33070866141732286,
                    "duration": 0.043988250000012385
                },
                {
                    "name": "F#5",
                    "midi": 78,
                    "time": 140.8943647500013,
                    "velocity": 0.33070866141732286,
                    "duration": 0.043988250000012385
                },
                {
                    "name": "A#5",
                    "midi": 82,
                    "time": 140.9383530000013,
                    "velocity": 0.4015748031496063,
                    "duration": 0.043988250000012385
                },
                {
                    "name": "G5",
                    "midi": 79,
                    "time": 140.9383530000013,
                    "velocity": 0.33070866141732286,
                    "duration": 0.043988250000012385
                },
                {
                    "name": "A#4",
                    "midi": 70,
                    "time": 140.9383530000013,
                    "velocity": 0.33070866141732286,
                    "duration": 0.043988250000012385
                },
                {
                    "name": "F3",
                    "midi": 53,
                    "time": 141.11430600000133,
                    "velocity": 0.7559055118110236,
                    "duration": 0.13196475000000873
                },
                {
                    "name": "G#5",
                    "midi": 80,
                    "time": 141.29025900000136,
                    "velocity": 0.4409448818897638,
                    "duration": 0.043988250000012385
                },
                {
                    "name": "G#4",
                    "midi": 68,
                    "time": 141.29025900000136,
                    "velocity": 0.3700787401574803,
                    "duration": 0.043988250000012385
                },
                {
                    "name": "D5",
                    "midi": 74,
                    "time": 141.29025900000136,
                    "velocity": 0.3700787401574803,
                    "duration": 0.043988250000012385
                },
                {
                    "name": "G#5",
                    "midi": 80,
                    "time": 141.46621200000138,
                    "velocity": 0.5196850393700787,
                    "duration": 0.043988250000012385
                },
                {
                    "name": "F5",
                    "midi": 77,
                    "time": 141.46621200000138,
                    "velocity": 0.4409448818897638,
                    "duration": 0.043988250000012385
                },
                {
                    "name": "G#4",
                    "midi": 68,
                    "time": 141.46621200000138,
                    "velocity": 0.4409448818897638,
                    "duration": 0.043988250000012385
                },
                {
                    "name": "G5",
                    "midi": 79,
                    "time": 141.5981767500014,
                    "velocity": 0.4015748031496063,
                    "duration": 0.043988250000012385
                },
                {
                    "name": "G4",
                    "midi": 67,
                    "time": 141.5981767500014,
                    "velocity": 0.33070866141732286,
                    "duration": 0.043988250000012385
                },
                {
                    "name": "E5",
                    "midi": 76,
                    "time": 141.5981767500014,
                    "velocity": 0.33070866141732286,
                    "duration": 0.043988250000012385
                },
                {
                    "name": "G#5",
                    "midi": 80,
                    "time": 141.6421650000014,
                    "velocity": 0.4015748031496063,
                    "duration": 0.043988250000012385
                },
                {
                    "name": "F5",
                    "midi": 77,
                    "time": 141.6421650000014,
                    "velocity": 0.33070866141732286,
                    "duration": 0.043988250000012385
                },
                {
                    "name": "G#4",
                    "midi": 68,
                    "time": 141.6421650000014,
                    "velocity": 0.33070866141732286,
                    "duration": 0.043988250000012385
                },
                {
                    "name": "D#3",
                    "midi": 51,
                    "time": 141.81811800000142,
                    "velocity": 0.7244094488188977,
                    "duration": 0.13196475000000873
                },
                {
                    "name": "G5",
                    "midi": 79,
                    "time": 141.99407100000144,
                    "velocity": 0.4409448818897638,
                    "duration": 0.043988250000012385
                },
                {
                    "name": "G4",
                    "midi": 67,
                    "time": 141.99407100000144,
                    "velocity": 0.3700787401574803,
                    "duration": 0.043988250000012385
                },
                {
                    "name": "A#4",
                    "midi": 70,
                    "time": 141.99407100000144,
                    "velocity": 0.3700787401574803,
                    "duration": 0.043988250000012385
                },
                {
                    "name": "G5",
                    "midi": 79,
                    "time": 142.17002400000146,
                    "velocity": 0.5196850393700787,
                    "duration": 0.043988250000012385
                },
                {
                    "name": "D#5",
                    "midi": 75,
                    "time": 142.17002400000146,
                    "velocity": 0.4409448818897638,
                    "duration": 0.043988250000012385
                },
                {
                    "name": "G4",
                    "midi": 67,
                    "time": 142.17002400000146,
                    "velocity": 0.4409448818897638,
                    "duration": 0.043988250000012385
                },
                {
                    "name": "F#5",
                    "midi": 78,
                    "time": 142.30198875000147,
                    "velocity": 0.4015748031496063,
                    "duration": 0.043988250000012385
                },
                {
                    "name": "F#4",
                    "midi": 66,
                    "time": 142.30198875000147,
                    "velocity": 0.33070866141732286,
                    "duration": 0.043988250000012385
                },
                {
                    "name": "D5",
                    "midi": 74,
                    "time": 142.30198875000147,
                    "velocity": 0.33070866141732286,
                    "duration": 0.043988250000012385
                },
                {
                    "name": "G5",
                    "midi": 79,
                    "time": 142.34597700000148,
                    "velocity": 0.4015748031496063,
                    "duration": 0.043988250000012385
                },
                {
                    "name": "D#5",
                    "midi": 75,
                    "time": 142.34597700000148,
                    "velocity": 0.33070866141732286,
                    "duration": 0.043988250000012385
                },
                {
                    "name": "G4",
                    "midi": 67,
                    "time": 142.34597700000148,
                    "velocity": 0.33070866141732286,
                    "duration": 0.043988250000012385
                },
                {
                    "name": "G#6",
                    "midi": 92,
                    "time": 142.5219300000015,
                    "velocity": 0.4094488188976378,
                    "duration": 0.043988250000012385
                },
                {
                    "name": "C6",
                    "midi": 84,
                    "time": 142.5219300000015,
                    "velocity": 0.3464566929133858,
                    "duration": 0.043988250000012385
                },
                {
                    "name": "G6",
                    "midi": 91,
                    "time": 142.60990650000153,
                    "velocity": 0.3700787401574803,
                    "duration": 0.043988250000012385
                },
                {
                    "name": "A#5",
                    "midi": 82,
                    "time": 142.60990650000153,
                    "velocity": 0.30708661417322836,
                    "duration": 0.043988250000012385
                },
                {
                    "name": "F6",
                    "midi": 89,
                    "time": 142.69788300000155,
                    "velocity": 0.3700787401574803,
                    "duration": 0.043988250000012385
                },
                {
                    "name": "G#5",
                    "midi": 80,
                    "time": 142.69788300000155,
                    "velocity": 0.30708661417322836,
                    "duration": 0.043988250000012385
                },
                {
                    "name": "D#6",
                    "midi": 87,
                    "time": 142.78585950000158,
                    "velocity": 0.3700787401574803,
                    "duration": 0.043988250000012385
                },
                {
                    "name": "G5",
                    "midi": 79,
                    "time": 142.78585950000158,
                    "velocity": 0.30708661417322836,
                    "duration": 0.043988250000012385
                },
                {
                    "name": "D6",
                    "midi": 86,
                    "time": 142.8738360000016,
                    "velocity": 0.4094488188976378,
                    "duration": 0.043988250000012385
                },
                {
                    "name": "F5",
                    "midi": 77,
                    "time": 142.8738360000016,
                    "velocity": 0.3464566929133858,
                    "duration": 0.043988250000012385
                },
                {
                    "name": "A#5",
                    "midi": 82,
                    "time": 142.96181250000163,
                    "velocity": 0.3543307086614173,
                    "duration": 0.043988250000012385
                },
                {
                    "name": "D5",
                    "midi": 74,
                    "time": 142.96181250000163,
                    "velocity": 0.2992125984251969,
                    "duration": 0.043988250000012385
                },
                {
                    "name": "C6",
                    "midi": 84,
                    "time": 143.04978900000165,
                    "velocity": 0.3543307086614173,
                    "duration": 0.043988250000012385
                },
                {
                    "name": "D#5",
                    "midi": 75,
                    "time": 143.04978900000165,
                    "velocity": 0.2992125984251969,
                    "duration": 0.043988250000012385
                },
                {
                    "name": "D6",
                    "midi": 86,
                    "time": 143.13776550000168,
                    "velocity": 0.3543307086614173,
                    "duration": 0.043988250000012385
                },
                {
                    "name": "F5",
                    "midi": 77,
                    "time": 143.13776550000168,
                    "velocity": 0.2992125984251969,
                    "duration": 0.043988250000012385
                },
                {
                    "name": "D#6",
                    "midi": 87,
                    "time": 143.2257420000017,
                    "velocity": 0.4409448818897638,
                    "duration": 0.043988250000012385
                },
                {
                    "name": "G5",
                    "midi": 79,
                    "time": 143.2257420000017,
                    "velocity": 0.3700787401574803,
                    "duration": 0.043988250000012385
                },
                {
                    "name": "F6",
                    "midi": 89,
                    "time": 143.31371850000173,
                    "velocity": 0.3858267716535433,
                    "duration": 0.043988250000012385
                },
                {
                    "name": "A#5",
                    "midi": 82,
                    "time": 143.31371850000173,
                    "velocity": 0.3228346456692913,
                    "duration": 0.043988250000012385
                },
                {
                    "name": "G6",
                    "midi": 91,
                    "time": 143.40169500000175,
                    "velocity": 0.3937007874015748,
                    "duration": 0.043988250000012385
                },
                {
                    "name": "D#6",
                    "midi": 87,
                    "time": 143.40169500000175,
                    "velocity": 0.33070866141732286,
                    "duration": 0.043988250000012385
                },
                {
                    "name": "G#6",
                    "midi": 92,
                    "time": 143.48967150000178,
                    "velocity": 0.3464566929133858,
                    "duration": 0.043988250000012385
                },
                {
                    "name": "F6",
                    "midi": 89,
                    "time": 143.48967150000178,
                    "velocity": 0.29133858267716534,
                    "duration": 0.043988250000012385
                },
                {
                    "name": "C7",
                    "midi": 96,
                    "time": 143.55565387500178,
                    "velocity": 0.4409448818897638,
                    "duration": 0.021994124999991982
                },
                {
                    "name": "A#6",
                    "midi": 94,
                    "time": 143.57764800000177,
                    "velocity": 0.3937007874015748,
                    "duration": 0.043988250000012385
                },
                {
                    "name": "G6",
                    "midi": 91,
                    "time": 143.57764800000177,
                    "velocity": 0.33070866141732286,
                    "duration": 0.043988250000012385
                },
                {
                    "name": "F#6",
                    "midi": 90,
                    "time": 143.6656245000018,
                    "velocity": 0.2992125984251969,
                    "duration": 0.043988250000012385
                },
                {
                    "name": "A6",
                    "midi": 93,
                    "time": 143.6656245000018,
                    "velocity": 0.3543307086614173,
                    "duration": 0.043988250000012385
                },
                {
                    "name": "C7",
                    "midi": 96,
                    "time": 143.75360100000182,
                    "velocity": 0.3937007874015748,
                    "duration": 0.043988250000012385
                },
                {
                    "name": "G#6",
                    "midi": 92,
                    "time": 143.75360100000182,
                    "velocity": 0.3937007874015748,
                    "duration": 0.043988250000012385
                },
                {
                    "name": "A#6",
                    "midi": 94,
                    "time": 143.84157750000185,
                    "velocity": 0.3937007874015748,
                    "duration": 0.043988250000012385
                },
                {
                    "name": "G6",
                    "midi": 91,
                    "time": 143.84157750000185,
                    "velocity": 0.3937007874015748,
                    "duration": 0.043988250000012385
                },
                {
                    "name": "G#5",
                    "midi": 80,
                    "time": 143.92955400000187,
                    "velocity": 0.4094488188976378,
                    "duration": 0.043988250000012385
                },
                {
                    "name": "C5",
                    "midi": 72,
                    "time": 143.92955400000187,
                    "velocity": 0.3464566929133858,
                    "duration": 0.043988250000012385
                },
                {
                    "name": "G5",
                    "midi": 79,
                    "time": 144.0175305000019,
                    "velocity": 0.3700787401574803,
                    "duration": 0.043988250000012385
                },
                {
                    "name": "A#4",
                    "midi": 70,
                    "time": 144.0175305000019,
                    "velocity": 0.30708661417322836,
                    "duration": 0.043988250000012385
                },
                {
                    "name": "F5",
                    "midi": 77,
                    "time": 144.10550700000192,
                    "velocity": 0.3700787401574803,
                    "duration": 0.043988250000012385
                },
                {
                    "name": "G#4",
                    "midi": 68,
                    "time": 144.10550700000192,
                    "velocity": 0.30708661417322836,
                    "duration": 0.043988250000012385
                },
                {
                    "name": "D#5",
                    "midi": 75,
                    "time": 144.19348350000195,
                    "velocity": 0.3700787401574803,
                    "duration": 0.043988250000012385
                },
                {
                    "name": "G4",
                    "midi": 67,
                    "time": 144.19348350000195,
                    "velocity": 0.30708661417322836,
                    "duration": 0.043988250000012385
                },
                {
                    "name": "D5",
                    "midi": 74,
                    "time": 144.28146000000197,
                    "velocity": 0.4094488188976378,
                    "duration": 0.043988250000012385
                },
                {
                    "name": "F4",
                    "midi": 65,
                    "time": 144.28146000000197,
                    "velocity": 0.3464566929133858,
                    "duration": 0.043988250000012385
                },
                {
                    "name": "A#4",
                    "midi": 70,
                    "time": 144.369436500002,
                    "velocity": 0.3543307086614173,
                    "duration": 0.043988250000012385
                },
                {
                    "name": "D4",
                    "midi": 62,
                    "time": 144.369436500002,
                    "velocity": 0.2992125984251969,
                    "duration": 0.043988250000012385
                },
                {
                    "name": "C5",
                    "midi": 72,
                    "time": 144.45741300000202,
                    "velocity": 0.3543307086614173,
                    "duration": 0.043988250000012385
                },
                {
                    "name": "D#4",
                    "midi": 63,
                    "time": 144.45741300000202,
                    "velocity": 0.2992125984251969,
                    "duration": 0.043988250000012385
                },
                {
                    "name": "D5",
                    "midi": 74,
                    "time": 144.54538950000205,
                    "velocity": 0.3543307086614173,
                    "duration": 0.043988250000012385
                },
                {
                    "name": "F4",
                    "midi": 65,
                    "time": 144.54538950000205,
                    "velocity": 0.2992125984251969,
                    "duration": 0.043988250000012385
                },
                {
                    "name": "D#5",
                    "midi": 75,
                    "time": 144.63336600000207,
                    "velocity": 0.4409448818897638,
                    "duration": 0.043988250000012385
                },
                {
                    "name": "G4",
                    "midi": 67,
                    "time": 144.63336600000207,
                    "velocity": 0.3700787401574803,
                    "duration": 0.043988250000012385
                },
                {
                    "name": "F5",
                    "midi": 77,
                    "time": 144.7213425000021,
                    "velocity": 0.3858267716535433,
                    "duration": 0.043988250000012385
                },
                {
                    "name": "A#4",
                    "midi": 70,
                    "time": 144.7213425000021,
                    "velocity": 0.3228346456692913,
                    "duration": 0.043988250000012385
                },
                {
                    "name": "G5",
                    "midi": 79,
                    "time": 144.80931900000212,
                    "velocity": 0.3937007874015748,
                    "duration": 0.043988250000012385
                },
                {
                    "name": "D#5",
                    "midi": 75,
                    "time": 144.80931900000212,
                    "velocity": 0.33070866141732286,
                    "duration": 0.043988250000012385
                },
                {
                    "name": "G#5",
                    "midi": 80,
                    "time": 144.89729550000214,
                    "velocity": 0.3464566929133858,
                    "duration": 0.043988250000012385
                },
                {
                    "name": "F5",
                    "midi": 77,
                    "time": 144.89729550000214,
                    "velocity": 0.29133858267716534,
                    "duration": 0.043988250000012385
                },
                {
                    "name": "A#5",
                    "midi": 82,
                    "time": 144.98527200000217,
                    "velocity": 0.3937007874015748,
                    "duration": 0.043988250000012385
                },
                {
                    "name": "G5",
                    "midi": 79,
                    "time": 144.98527200000217,
                    "velocity": 0.33070866141732286,
                    "duration": 0.043988250000012385
                },
                {
                    "name": "F#5",
                    "midi": 78,
                    "time": 145.0732485000022,
                    "velocity": 0.2992125984251969,
                    "duration": 0.043988250000012385
                },
                {
                    "name": "A5",
                    "midi": 81,
                    "time": 145.0732485000022,
                    "velocity": 0.3543307086614173,
                    "duration": 0.043988250000012385
                },
                {
                    "name": "C6",
                    "midi": 84,
                    "time": 145.16122500000222,
                    "velocity": 0.3937007874015748,
                    "duration": 0.043988250000012385
                },
                {
                    "name": "G#5",
                    "midi": 80,
                    "time": 145.16122500000222,
                    "velocity": 0.3937007874015748,
                    "duration": 0.043988250000012385
                },
                {
                    "name": "A#5",
                    "midi": 82,
                    "time": 145.24920150000224,
                    "velocity": 0.3937007874015748,
                    "duration": 0.043988250000012385
                },
                {
                    "name": "G5",
                    "midi": 79,
                    "time": 145.24920150000224,
                    "velocity": 0.3937007874015748,
                    "duration": 0.043988250000012385
                },
                {
                    "name": "G#6",
                    "midi": 92,
                    "time": 145.33717800000227,
                    "velocity": 0.4094488188976378,
                    "duration": 0.043988250000012385
                },
                {
                    "name": "C6",
                    "midi": 84,
                    "time": 145.33717800000227,
                    "velocity": 0.3464566929133858,
                    "duration": 0.043988250000012385
                },
                {
                    "name": "G6",
                    "midi": 91,
                    "time": 145.4251545000023,
                    "velocity": 0.3700787401574803,
                    "duration": 0.043988250000012385
                },
                {
                    "name": "A#5",
                    "midi": 82,
                    "time": 145.4251545000023,
                    "velocity": 0.30708661417322836,
                    "duration": 0.043988250000012385
                },
                {
                    "name": "F6",
                    "midi": 89,
                    "time": 145.51313100000232,
                    "velocity": 0.3700787401574803,
                    "duration": 0.043988250000012385
                },
                {
                    "name": "G#5",
                    "midi": 80,
                    "time": 145.51313100000232,
                    "velocity": 0.30708661417322836,
                    "duration": 0.043988250000012385
                },
                {
                    "name": "D#6",
                    "midi": 87,
                    "time": 145.60110750000234,
                    "velocity": 0.3700787401574803,
                    "duration": 0.043988250000012385
                },
                {
                    "name": "G5",
                    "midi": 79,
                    "time": 145.60110750000234,
                    "velocity": 0.30708661417322836,
                    "duration": 0.043988250000012385
                },
                {
                    "name": "D6",
                    "midi": 86,
                    "time": 145.68908400000237,
                    "velocity": 0.4094488188976378,
                    "duration": 0.043988250000012385
                },
                {
                    "name": "F5",
                    "midi": 77,
                    "time": 145.68908400000237,
                    "velocity": 0.3464566929133858,
                    "duration": 0.043988250000012385
                },
                {
                    "name": "A#5",
                    "midi": 82,
                    "time": 145.7770605000024,
                    "velocity": 0.3543307086614173,
                    "duration": 0.043988250000012385
                },
                {
                    "name": "D5",
                    "midi": 74,
                    "time": 145.7770605000024,
                    "velocity": 0.2992125984251969,
                    "duration": 0.043988250000012385
                },
                {
                    "name": "C6",
                    "midi": 84,
                    "time": 145.86503700000242,
                    "velocity": 0.3543307086614173,
                    "duration": 0.043988250000012385
                },
                {
                    "name": "D#5",
                    "midi": 75,
                    "time": 145.86503700000242,
                    "velocity": 0.2992125984251969,
                    "duration": 0.043988250000012385
                },
                {
                    "name": "D6",
                    "midi": 86,
                    "time": 145.95301350000244,
                    "velocity": 0.3543307086614173,
                    "duration": 0.043988250000012385
                },
                {
                    "name": "F5",
                    "midi": 77,
                    "time": 145.95301350000244,
                    "velocity": 0.2992125984251969,
                    "duration": 0.043988250000012385
                },
                {
                    "name": "D#6",
                    "midi": 87,
                    "time": 146.04099000000247,
                    "velocity": 0.4409448818897638,
                    "duration": 0.043988250000012385
                },
                {
                    "name": "G5",
                    "midi": 79,
                    "time": 146.04099000000247,
                    "velocity": 0.3700787401574803,
                    "duration": 0.043988250000012385
                },
                {
                    "name": "F6",
                    "midi": 89,
                    "time": 146.1289665000025,
                    "velocity": 0.3858267716535433,
                    "duration": 0.043988250000012385
                },
                {
                    "name": "A#5",
                    "midi": 82,
                    "time": 146.1289665000025,
                    "velocity": 0.3228346456692913,
                    "duration": 0.043988250000012385
                },
                {
                    "name": "G6",
                    "midi": 91,
                    "time": 146.21694300000252,
                    "velocity": 0.3937007874015748,
                    "duration": 0.043988250000012385
                },
                {
                    "name": "D#6",
                    "midi": 87,
                    "time": 146.21694300000252,
                    "velocity": 0.33070866141732286,
                    "duration": 0.043988250000012385
                },
                {
                    "name": "G#6",
                    "midi": 92,
                    "time": 146.30491950000254,
                    "velocity": 0.3464566929133858,
                    "duration": 0.043988250000012385
                },
                {
                    "name": "F6",
                    "midi": 89,
                    "time": 146.30491950000254,
                    "velocity": 0.29133858267716534,
                    "duration": 0.043988250000012385
                },
                {
                    "name": "A#6",
                    "midi": 94,
                    "time": 146.39289600000257,
                    "velocity": 0.3937007874015748,
                    "duration": 0.043988250000012385
                },
                {
                    "name": "G6",
                    "midi": 91,
                    "time": 146.39289600000257,
                    "velocity": 0.33070866141732286,
                    "duration": 0.043988250000012385
                },
                {
                    "name": "F#6",
                    "midi": 90,
                    "time": 146.4808725000026,
                    "velocity": 0.2992125984251969,
                    "duration": 0.043988250000012385
                },
                {
                    "name": "A6",
                    "midi": 93,
                    "time": 146.4808725000026,
                    "velocity": 0.3543307086614173,
                    "duration": 0.043988250000012385
                },
                {
                    "name": "C7",
                    "midi": 96,
                    "time": 146.56884900000261,
                    "velocity": 0.3937007874015748,
                    "duration": 0.043988250000012385
                },
                {
                    "name": "G#6",
                    "midi": 92,
                    "time": 146.56884900000261,
                    "velocity": 0.33070866141732286,
                    "duration": 0.043988250000012385
                },
                {
                    "name": "A#6",
                    "midi": 94,
                    "time": 146.65682550000264,
                    "velocity": 0.3937007874015748,
                    "duration": 0.043988250000012385
                },
                {
                    "name": "G6",
                    "midi": 91,
                    "time": 146.65682550000264,
                    "velocity": 0.33070866141732286,
                    "duration": 0.043988250000012385
                },
                {
                    "name": "G#6",
                    "midi": 92,
                    "time": 146.74480200000266,
                    "velocity": 0.4409448818897638,
                    "duration": 0.043988250000012385
                },
                {
                    "name": "C6",
                    "midi": 84,
                    "time": 146.74480200000266,
                    "velocity": 0.3700787401574803,
                    "duration": 0.043988250000012385
                },
                {
                    "name": "G6",
                    "midi": 91,
                    "time": 146.8327785000027,
                    "velocity": 0.41732283464566927,
                    "duration": 0.043988250000012385
                },
                {
                    "name": "A#5",
                    "midi": 82,
                    "time": 146.8327785000027,
                    "velocity": 0.3543307086614173,
                    "duration": 0.043988250000012385
                },
                {
                    "name": "F6",
                    "midi": 89,
                    "time": 146.9207550000027,
                    "velocity": 0.41732283464566927,
                    "duration": 0.043988250000012385
                },
                {
                    "name": "G#5",
                    "midi": 80,
                    "time": 146.9207550000027,
                    "velocity": 0.3543307086614173,
                    "duration": 0.043988250000012385
                },
                {
                    "name": "D#6",
                    "midi": 87,
                    "time": 147.00873150000274,
                    "velocity": 0.41732283464566927,
                    "duration": 0.043988250000012385
                },
                {
                    "name": "G5",
                    "midi": 79,
                    "time": 147.00873150000274,
                    "velocity": 0.3543307086614173,
                    "duration": 0.043988250000012385
                },
                {
                    "name": "D6",
                    "midi": 86,
                    "time": 147.09670800000276,
                    "velocity": 0.4409448818897638,
                    "duration": 0.043988250000012385
                },
                {
                    "name": "F5",
                    "midi": 77,
                    "time": 147.09670800000276,
                    "velocity": 0.3700787401574803,
                    "duration": 0.043988250000012385
                },
                {
                    "name": "A#5",
                    "midi": 82,
                    "time": 147.1846845000028,
                    "velocity": 0.3937007874015748,
                    "duration": 0.043988250000012385
                },
                {
                    "name": "D5",
                    "midi": 74,
                    "time": 147.1846845000028,
                    "velocity": 0.33070866141732286,
                    "duration": 0.043988250000012385
                },
                {
                    "name": "A5",
                    "midi": 81,
                    "time": 147.2726610000028,
                    "velocity": 0.3937007874015748,
                    "duration": 0.043988250000012385
                },
                {
                    "name": "C#5",
                    "midi": 73,
                    "time": 147.2726610000028,
                    "velocity": 0.33070866141732286,
                    "duration": 0.043988250000012385
                },
                {
                    "name": "A#5",
                    "midi": 82,
                    "time": 147.36063750000284,
                    "velocity": 0.3937007874015748,
                    "duration": 0.043988250000012385
                },
                {
                    "name": "D5",
                    "midi": 74,
                    "time": 147.36063750000284,
                    "velocity": 0.33070866141732286,
                    "duration": 0.043988250000012385
                },
                {
                    "name": "B5",
                    "midi": 83,
                    "time": 147.44861400000286,
                    "velocity": 0.4015748031496063,
                    "duration": 0.043988250000012385
                },
                {
                    "name": "D#5",
                    "midi": 75,
                    "time": 147.44861400000286,
                    "velocity": 0.33858267716535434,
                    "duration": 0.043988250000012385
                },
                {
                    "name": "C6",
                    "midi": 84,
                    "time": 147.5365905000029,
                    "velocity": 0.33858267716535434,
                    "duration": 0.043988250000012385
                },
                {
                    "name": "E5",
                    "midi": 76,
                    "time": 147.5365905000029,
                    "velocity": 0.28346456692913385,
                    "duration": 0.043988250000012385
                },
                {
                    "name": "C#6",
                    "midi": 85,
                    "time": 147.6245670000029,
                    "velocity": 0.3543307086614173,
                    "duration": 0.043988250000012385
                },
                {
                    "name": "F5",
                    "midi": 77,
                    "time": 147.6245670000029,
                    "velocity": 0.2992125984251969,
                    "duration": 0.043988250000012385
                },
                {
                    "name": "D6",
                    "midi": 86,
                    "time": 147.71254350000294,
                    "velocity": 0.36220472440944884,
                    "duration": 0.043988250000012385
                },
                {
                    "name": "F#5",
                    "midi": 78,
                    "time": 147.71254350000294,
                    "velocity": 0.30708661417322836,
                    "duration": 0.043988250000012385
                },
                {
                    "name": "D#6",
                    "midi": 87,
                    "time": 147.80052000000296,
                    "velocity": 0.3779527559055118,
                    "duration": 0.043988250000012385
                },
                {
                    "name": "G5",
                    "midi": 79,
                    "time": 147.80052000000296,
                    "velocity": 0.31496062992125984,
                    "duration": 0.043988250000012385
                },
                {
                    "name": "E6",
                    "midi": 88,
                    "time": 147.888496500003,
                    "velocity": 0.3937007874015748,
                    "duration": 0.043988250000012385
                },
                {
                    "name": "G#5",
                    "midi": 80,
                    "time": 147.888496500003,
                    "velocity": 0.33070866141732286,
                    "duration": 0.043988250000012385
                },
                {
                    "name": "F6",
                    "midi": 89,
                    "time": 147.976473000003,
                    "velocity": 0.4015748031496063,
                    "duration": 0.043988250000012385
                },
                {
                    "name": "A5",
                    "midi": 81,
                    "time": 147.976473000003,
                    "velocity": 0.33858267716535434,
                    "duration": 0.043988250000012385
                },
                {
                    "name": "F#6",
                    "midi": 90,
                    "time": 148.06444950000304,
                    "velocity": 0.41732283464566927,
                    "duration": 0.043988250000012385
                },
                {
                    "name": "A#5",
                    "midi": 82,
                    "time": 148.06444950000304,
                    "velocity": 0.3543307086614173,
                    "duration": 0.043988250000012385
                },
                {
                    "name": "G6",
                    "midi": 91,
                    "time": 148.15242600000306,
                    "velocity": 0.4330708661417323,
                    "duration": 0.043988250000012385
                },
                {
                    "name": "B5",
                    "midi": 83,
                    "time": 148.15242600000306,
                    "velocity": 0.36220472440944884,
                    "duration": 0.043988250000012385
                },
                {
                    "name": "G#6",
                    "midi": 92,
                    "time": 148.24040250000309,
                    "velocity": 0.4409448818897638,
                    "duration": 0.043988250000012385
                },
                {
                    "name": "C6",
                    "midi": 84,
                    "time": 148.24040250000309,
                    "velocity": 0.3700787401574803,
                    "duration": 0.043988250000012385
                },
                {
                    "name": "A6",
                    "midi": 93,
                    "time": 148.3283790000031,
                    "velocity": 0.4566929133858268,
                    "duration": 0.043988250000012385
                },
                {
                    "name": "C#6",
                    "midi": 85,
                    "time": 148.3283790000031,
                    "velocity": 0.3858267716535433,
                    "duration": 0.043988250000012385
                },
                {
                    "name": "A#6",
                    "midi": 94,
                    "time": 148.41635550000314,
                    "velocity": 0.47244094488188976,
                    "duration": 0.043988250000012385
                },
                {
                    "name": "D6",
                    "midi": 86,
                    "time": 148.41635550000314,
                    "velocity": 0.4015748031496063,
                    "duration": 0.043988250000012385
                },
                {
                    "name": "A6",
                    "midi": 93,
                    "time": 148.50433200000316,
                    "velocity": 0.5354330708661418,
                    "duration": 0.043988250000012385
                },
                {
                    "name": "C#6",
                    "midi": 85,
                    "time": 148.50433200000316,
                    "velocity": 0.44881889763779526,
                    "duration": 0.043988250000012385
                },
                {
                    "name": "A#6",
                    "midi": 94,
                    "time": 148.59230850000318,
                    "velocity": 0.5433070866141733,
                    "duration": 0.043988250000012385
                },
                {
                    "name": "D6",
                    "midi": 86,
                    "time": 148.59230850000318,
                    "velocity": 0.4566929133858268,
                    "duration": 0.043988250000012385
                },
                {
                    "name": "A6",
                    "midi": 93,
                    "time": 148.6802850000032,
                    "velocity": 0.5748031496062992,
                    "duration": 0.043988250000012385
                },
                {
                    "name": "A5",
                    "midi": 81,
                    "time": 148.6802850000032,
                    "velocity": 0.4881889763779528,
                    "duration": 0.043988250000012385
                },
                {
                    "name": "A#6",
                    "midi": 94,
                    "time": 148.76826150000323,
                    "velocity": 0.5590551181102362,
                    "duration": 0.043988250000012385
                },
                {
                    "name": "A#5",
                    "midi": 82,
                    "time": 148.76826150000323,
                    "velocity": 0.47244094488188976,
                    "duration": 0.043988250000012385
                },
                {
                    "name": "D7",
                    "midi": 98,
                    "time": 148.85623800000326,
                    "velocity": 0.6692913385826772,
                    "duration": 0.08797649999999635
                },
                {
                    "name": "D6",
                    "midi": 86,
                    "time": 148.85623800000326,
                    "velocity": 0.5669291338582677,
                    "duration": 0.08797649999999635
                },
                {
                    "name": "A#6",
                    "midi": 94,
                    "time": 148.85623800000326,
                    "velocity": 0.5669291338582677,
                    "duration": 0.08797649999999635
                },
                {
                    "name": "D7",
                    "midi": 98,
                    "time": 149.03219100000325,
                    "velocity": 0.6141732283464567,
                    "duration": 0.1759529999999927
                },
                {
                    "name": "D6",
                    "midi": 86,
                    "time": 149.03219100000325,
                    "velocity": 0.5196850393700787,
                    "duration": 0.1759529999999927
                },
                {
                    "name": "A#6",
                    "midi": 94,
                    "time": 149.03219100000325,
                    "velocity": 0.5196850393700787,
                    "duration": 0.1759529999999927
                },
                {
                    "name": "C7",
                    "midi": 96,
                    "time": 149.20814400000324,
                    "velocity": 0.6692913385826772,
                    "duration": 0.08797649999999635
                },
                {
                    "name": "C6",
                    "midi": 84,
                    "time": 149.20814400000324,
                    "velocity": 0.5669291338582677,
                    "duration": 0.08797649999999635
                },
                {
                    "name": "G#6",
                    "midi": 92,
                    "time": 149.20814400000324,
                    "velocity": 0.5669291338582677,
                    "duration": 0.08797649999999635
                },
                {
                    "name": "C7",
                    "midi": 96,
                    "time": 149.38409700000324,
                    "velocity": 0.6299212598425197,
                    "duration": 0.1759529999999927
                },
                {
                    "name": "C6",
                    "midi": 84,
                    "time": 149.38409700000324,
                    "velocity": 0.5354330708661418,
                    "duration": 0.1759529999999927
                },
                {
                    "name": "G#6",
                    "midi": 92,
                    "time": 149.38409700000324,
                    "velocity": 0.5354330708661418,
                    "duration": 0.1759529999999927
                },
                {
                    "name": "G6",
                    "midi": 91,
                    "time": 149.56005000000323,
                    "velocity": 0.6614173228346457,
                    "duration": 0.08797649999999635
                },
                {
                    "name": "G5",
                    "midi": 79,
                    "time": 149.56005000000323,
                    "velocity": 0.5590551181102362,
                    "duration": 0.08797649999999635
                },
                {
                    "name": "D#6",
                    "midi": 87,
                    "time": 149.56005000000323,
                    "velocity": 0.5590551181102362,
                    "duration": 0.08797649999999635
                },
                {
                    "name": "A#6",
                    "midi": 94,
                    "time": 149.73600300000322,
                    "velocity": 0.5984251968503937,
                    "duration": 0.08797649999999635
                },
                {
                    "name": "A#5",
                    "midi": 82,
                    "time": 149.73600300000322,
                    "velocity": 0.5039370078740157,
                    "duration": 0.08797649999999635
                },
                {
                    "name": "G6",
                    "midi": 91,
                    "time": 149.73600300000322,
                    "velocity": 0.5039370078740157,
                    "duration": 0.08797649999999635
                },
                {
                    "name": "A#6",
                    "midi": 94,
                    "time": 149.91195600000322,
                    "velocity": 0.6377952755905512,
                    "duration": 0.043988250000012385
                },
                {
                    "name": "A#5",
                    "midi": 82,
                    "time": 149.91195600000322,
                    "velocity": 0.5354330708661418,
                    "duration": 0.043988250000012385
                },
                {
                    "name": "G6",
                    "midi": 91,
                    "time": 149.91195600000322,
                    "velocity": 0.5354330708661418,
                    "duration": 0.043988250000012385
                },
                {
                    "name": "A6",
                    "midi": 93,
                    "time": 150.04392075000322,
                    "velocity": 0.5669291338582677,
                    "duration": 0.043988250000012385
                },
                {
                    "name": "A5",
                    "midi": 81,
                    "time": 150.04392075000322,
                    "velocity": 0.48031496062992124,
                    "duration": 0.043988250000012385
                },
                {
                    "name": "F#6",
                    "midi": 90,
                    "time": 150.04392075000322,
                    "velocity": 0.48031496062992124,
                    "duration": 0.043988250000012385
                },
                {
                    "name": "A#6",
                    "midi": 94,
                    "time": 150.08790900000324,
                    "velocity": 0.6299212598425197,
                    "duration": 0.08797649999999635
                },
                {
                    "name": "A#5",
                    "midi": 82,
                    "time": 150.08790900000324,
                    "velocity": 0.5354330708661418,
                    "duration": 0.08797649999999635
                },
                {
                    "name": "G6",
                    "midi": 91,
                    "time": 150.08790900000324,
                    "velocity": 0.5354330708661418,
                    "duration": 0.08797649999999635
                },
                {
                    "name": "F6",
                    "midi": 89,
                    "time": 150.26386200000323,
                    "velocity": 0.5905511811023622,
                    "duration": 0.043988250000012385
                },
                {
                    "name": "F5",
                    "midi": 77,
                    "time": 150.26386200000323,
                    "velocity": 0.49606299212598426,
                    "duration": 0.043988250000012385
                },
                {
                    "name": "G#5",
                    "midi": 80,
                    "time": 150.26386200000323,
                    "velocity": 0.49606299212598426,
                    "duration": 0.043988250000012385
                },
                {
                    "name": "G6",
                    "midi": 91,
                    "time": 150.35183850000325,
                    "velocity": 0.5826771653543307,
                    "duration": 0.043988250000012385
                },
                {
                    "name": "G5",
                    "midi": 79,
                    "time": 150.35183850000325,
                    "velocity": 0.4881889763779528,
                    "duration": 0.043988250000012385
                },
                {
                    "name": "A#5",
                    "midi": 82,
                    "time": 150.35183850000325,
                    "velocity": 0.4881889763779528,
                    "duration": 0.043988250000012385
                },
                {
                    "name": "G#6",
                    "midi": 92,
                    "time": 150.43981500000328,
                    "velocity": 0.5826771653543307,
                    "duration": 0.043988250000012385
                },
                {
                    "name": "G#5",
                    "midi": 80,
                    "time": 150.43981500000328,
                    "velocity": 0.4881889763779528,
                    "duration": 0.043988250000012385
                },
                {
                    "name": "C6",
                    "midi": 84,
                    "time": 150.43981500000328,
                    "velocity": 0.4881889763779528,
                    "duration": 0.043988250000012385
                },
                {
                    "name": "D#6",
                    "midi": 87,
                    "time": 150.5277915000033,
                    "velocity": 0.5826771653543307,
                    "duration": 0.043988250000012385
                },
                {
                    "name": "C7",
                    "midi": 96,
                    "time": 150.5277915000033,
                    "velocity": 0.5826771653543307,
                    "duration": 0.043988250000012385
                },
                {
                    "name": "C6",
                    "midi": 84,
                    "time": 150.5277915000033,
                    "velocity": 0.4881889763779528,
                    "duration": 0.043988250000012385
                },
                {
                    "name": "D6",
                    "midi": 86,
                    "time": 150.61576800000333,
                    "velocity": 0.5984251968503937,
                    "duration": 0.043988250000012385
                },
                {
                    "name": "A#6",
                    "midi": 94,
                    "time": 150.61576800000333,
                    "velocity": 0.5984251968503937,
                    "duration": 0.043988250000012385
                },
                {
                    "name": "A#5",
                    "midi": 82,
                    "time": 150.61576800000333,
                    "velocity": 0.5039370078740157,
                    "duration": 0.043988250000012385
                },
                {
                    "name": "G#6",
                    "midi": 92,
                    "time": 150.70374450000335,
                    "velocity": 0.5748031496062992,
                    "duration": 0.043988250000012385
                },
                {
                    "name": "G#5",
                    "midi": 80,
                    "time": 150.70374450000335,
                    "velocity": 0.4881889763779528,
                    "duration": 0.043988250000012385
                },
                {
                    "name": "C6",
                    "midi": 84,
                    "time": 150.70374450000335,
                    "velocity": 0.4881889763779528,
                    "duration": 0.043988250000012385
                },
                {
                    "name": "G6",
                    "midi": 91,
                    "time": 150.79172100000338,
                    "velocity": 0.5826771653543307,
                    "duration": 0.043988250000012385
                },
                {
                    "name": "G5",
                    "midi": 79,
                    "time": 150.79172100000338,
                    "velocity": 0.4881889763779528,
                    "duration": 0.043988250000012385
                },
                {
                    "name": "A#5",
                    "midi": 82,
                    "time": 150.79172100000338,
                    "velocity": 0.4881889763779528,
                    "duration": 0.043988250000012385
                },
                {
                    "name": "F6",
                    "midi": 89,
                    "time": 150.8796975000034,
                    "velocity": 0.5826771653543307,
                    "duration": 0.043988250000012385
                },
                {
                    "name": "F5",
                    "midi": 77,
                    "time": 150.8796975000034,
                    "velocity": 0.4881889763779528,
                    "duration": 0.043988250000012385
                },
                {
                    "name": "G#5",
                    "midi": 80,
                    "time": 150.8796975000034,
                    "velocity": 0.4881889763779528,
                    "duration": 0.043988250000012385
                },
                {
                    "name": "A#6",
                    "midi": 94,
                    "time": 150.96767400000343,
                    "velocity": 0.6614173228346457,
                    "duration": 0.08797649999999635
                },
                {
                    "name": "G6",
                    "midi": 91,
                    "time": 150.96767400000343,
                    "velocity": 0.6614173228346457,
                    "duration": 0.08797649999999635
                },
                {
                    "name": "A#5",
                    "midi": 82,
                    "time": 150.96767400000343,
                    "velocity": 0.5590551181102362,
                    "duration": 0.08797649999999635
                },
                {
                    "name": "G6",
                    "midi": 91,
                    "time": 151.14362700000342,
                    "velocity": 0.5984251968503937,
                    "duration": 0.08797649999999635
                },
                {
                    "name": "A#6",
                    "midi": 94,
                    "time": 151.14362700000342,
                    "velocity": 0.5984251968503937,
                    "duration": 0.08797649999999635
                },
                {
                    "name": "A#5",
                    "midi": 82,
                    "time": 151.14362700000342,
                    "velocity": 0.5039370078740157,
                    "duration": 0.08797649999999635
                },
                {
                    "name": "A5",
                    "midi": 81,
                    "time": 151.27559175000343,
                    "velocity": 0.48031496062992124,
                    "duration": 0.043988250000012385
                },
                {
                    "name": "F#6",
                    "midi": 90,
                    "time": 151.27559175000343,
                    "velocity": 0.5669291338582677,
                    "duration": 0.043988250000012385
                },
                {
                    "name": "A6",
                    "midi": 93,
                    "time": 151.27559175000343,
                    "velocity": 0.5669291338582677,
                    "duration": 0.043988250000012385
                },
                {
                    "name": "A#6",
                    "midi": 94,
                    "time": 151.31958000000344,
                    "velocity": 0.6377952755905512,
                    "duration": 0.3519060000000138
                },
                {
                    "name": "G6",
                    "midi": 91,
                    "time": 151.31958000000344,
                    "velocity": 0.6377952755905512,
                    "duration": 0.3519060000000138
                },
                {
                    "name": "A#5",
                    "midi": 82,
                    "time": 151.31958000000344,
                    "velocity": 0.5354330708661418,
                    "duration": 0.3519060000000138
                },
                {
                    "name": "D7",
                    "midi": 98,
                    "time": 151.67148600000345,
                    "velocity": 0.6692913385826772,
                    "duration": 0.08797649999999635
                },
                {
                    "name": "D6",
                    "midi": 86,
                    "time": 151.67148600000345,
                    "velocity": 0.5669291338582677,
                    "duration": 0.08797649999999635
                },
                {
                    "name": "A#6",
                    "midi": 94,
                    "time": 151.67148600000345,
                    "velocity": 0.5669291338582677,
                    "duration": 0.08797649999999635
                },
                {
                    "name": "D7",
                    "midi": 98,
                    "time": 151.84743900000345,
                    "velocity": 0.6141732283464567,
                    "duration": 0.1759529999999927
                },
                {
                    "name": "D6",
                    "midi": 86,
                    "time": 151.84743900000345,
                    "velocity": 0.5196850393700787,
                    "duration": 0.1759529999999927
                },
                {
                    "name": "A#6",
                    "midi": 94,
                    "time": 151.84743900000345,
                    "velocity": 0.5196850393700787,
                    "duration": 0.1759529999999927
                },
                {
                    "name": "C7",
                    "midi": 96,
                    "time": 152.02339200000344,
                    "velocity": 0.6692913385826772,
                    "duration": 0.08797649999999635
                },
                {
                    "name": "C6",
                    "midi": 84,
                    "time": 152.02339200000344,
                    "velocity": 0.5669291338582677,
                    "duration": 0.08797649999999635
                },
                {
                    "name": "G#6",
                    "midi": 92,
                    "time": 152.02339200000344,
                    "velocity": 0.5669291338582677,
                    "duration": 0.08797649999999635
                },
                {
                    "name": "C7",
                    "midi": 96,
                    "time": 152.19934500000343,
                    "velocity": 0.6299212598425197,
                    "duration": 0.1759529999999927
                },
                {
                    "name": "C6",
                    "midi": 84,
                    "time": 152.19934500000343,
                    "velocity": 0.5354330708661418,
                    "duration": 0.1759529999999927
                },
                {
                    "name": "G#6",
                    "midi": 92,
                    "time": 152.19934500000343,
                    "velocity": 0.5354330708661418,
                    "duration": 0.1759529999999927
                },
                {
                    "name": "G6",
                    "midi": 91,
                    "time": 152.37529800000343,
                    "velocity": 0.6614173228346457,
                    "duration": 0.08797649999999635
                },
                {
                    "name": "G5",
                    "midi": 79,
                    "time": 152.37529800000343,
                    "velocity": 0.5590551181102362,
                    "duration": 0.08797649999999635
                },
                {
                    "name": "D#6",
                    "midi": 87,
                    "time": 152.37529800000343,
                    "velocity": 0.5590551181102362,
                    "duration": 0.08797649999999635
                },
                {
                    "name": "A#6",
                    "midi": 94,
                    "time": 152.55125100000342,
                    "velocity": 0.5984251968503937,
                    "duration": 0.08797649999999635
                },
                {
                    "name": "A#5",
                    "midi": 82,
                    "time": 152.55125100000342,
                    "velocity": 0.5039370078740157,
                    "duration": 0.08797649999999635
                },
                {
                    "name": "G6",
                    "midi": 91,
                    "time": 152.55125100000342,
                    "velocity": 0.5039370078740157,
                    "duration": 0.08797649999999635
                },
                {
                    "name": "A#6",
                    "midi": 94,
                    "time": 152.7272040000034,
                    "velocity": 0.6377952755905512,
                    "duration": 0.043988250000012385
                },
                {
                    "name": "A#5",
                    "midi": 82,
                    "time": 152.7272040000034,
                    "velocity": 0.5354330708661418,
                    "duration": 0.043988250000012385
                },
                {
                    "name": "G6",
                    "midi": 91,
                    "time": 152.7272040000034,
                    "velocity": 0.5354330708661418,
                    "duration": 0.043988250000012385
                },
                {
                    "name": "A6",
                    "midi": 93,
                    "time": 152.85916875000342,
                    "velocity": 0.5669291338582677,
                    "duration": 0.043988250000012385
                },
                {
                    "name": "A5",
                    "midi": 81,
                    "time": 152.85916875000342,
                    "velocity": 0.48031496062992124,
                    "duration": 0.043988250000012385
                },
                {
                    "name": "F#6",
                    "midi": 90,
                    "time": 152.85916875000342,
                    "velocity": 0.48031496062992124,
                    "duration": 0.043988250000012385
                },
                {
                    "name": "A#6",
                    "midi": 94,
                    "time": 152.90315700000343,
                    "velocity": 0.6299212598425197,
                    "duration": 0.08797649999999635
                },
                {
                    "name": "A#5",
                    "midi": 82,
                    "time": 152.90315700000343,
                    "velocity": 0.5354330708661418,
                    "duration": 0.08797649999999635
                },
                {
                    "name": "G6",
                    "midi": 91,
                    "time": 152.90315700000343,
                    "velocity": 0.5354330708661418,
                    "duration": 0.08797649999999635
                },
                {
                    "name": "F6",
                    "midi": 89,
                    "time": 153.07911000000342,
                    "velocity": 0.5196850393700787,
                    "duration": 0.043988250000012385
                },
                {
                    "name": "F5",
                    "midi": 77,
                    "time": 153.07911000000342,
                    "velocity": 0.4409448818897638,
                    "duration": 0.043988250000012385
                },
                {
                    "name": "G#5",
                    "midi": 80,
                    "time": 153.07911000000342,
                    "velocity": 0.4409448818897638,
                    "duration": 0.043988250000012385
                },
                {
                    "name": "G6",
                    "midi": 91,
                    "time": 153.16708650000345,
                    "velocity": 0.5354330708661418,
                    "duration": 0.043988250000012385
                },
                {
                    "name": "G5",
                    "midi": 79,
                    "time": 153.16708650000345,
                    "velocity": 0.44881889763779526,
                    "duration": 0.043988250000012385
                },
                {
                    "name": "A#5",
                    "midi": 82,
                    "time": 153.16708650000345,
                    "velocity": 0.44881889763779526,
                    "duration": 0.043988250000012385
                },
                {
                    "name": "G#6",
                    "midi": 92,
                    "time": 153.25506300000347,
                    "velocity": 0.5511811023622047,
                    "duration": 0.043988250000012385
                },
                {
                    "name": "G#5",
                    "midi": 80,
                    "time": 153.25506300000347,
                    "velocity": 0.4645669291338583,
                    "duration": 0.043988250000012385
                },
                {
                    "name": "B5",
                    "midi": 83,
                    "time": 153.25506300000347,
                    "velocity": 0.4645669291338583,
                    "duration": 0.043988250000012385
                },
                {
                    "name": "C6",
                    "midi": 84,
                    "time": 153.3430395000035,
                    "velocity": 0.48031496062992124,
                    "duration": 0.043988250000012385
                },
                {
                    "name": "A6",
                    "midi": 93,
                    "time": 153.3430395000035,
                    "velocity": 0.5669291338582677,
                    "duration": 0.043988250000012385
                },
                {
                    "name": "A5",
                    "midi": 81,
                    "time": 153.3430395000035,
                    "velocity": 0.48031496062992124,
                    "duration": 0.043988250000012385
                },
                {
                    "name": "A#6",
                    "midi": 94,
                    "time": 153.43101600000352,
                    "velocity": 0.5826771653543307,
                    "duration": 0.043988250000012385
                },
                {
                    "name": "C#6",
                    "midi": 85,
                    "time": 153.43101600000352,
                    "velocity": 0.4881889763779528,
                    "duration": 0.043988250000012385
                },
                {
                    "name": "A#5",
                    "midi": 82,
                    "time": 153.43101600000352,
                    "velocity": 0.4881889763779528,
                    "duration": 0.043988250000012385
                },
                {
                    "name": "B6",
                    "midi": 95,
                    "time": 153.51899250000355,
                    "velocity": 0.5984251968503937,
                    "duration": 0.043988250000012385
                },
                {
                    "name": "B5",
                    "midi": 83,
                    "time": 153.51899250000355,
                    "velocity": 0.5039370078740157,
                    "duration": 0.043988250000012385
                },
                {
                    "name": "D6",
                    "midi": 86,
                    "time": 153.51899250000355,
                    "velocity": 0.5039370078740157,
                    "duration": 0.043988250000012385
                },
                {
                    "name": "C7",
                    "midi": 96,
                    "time": 153.60696900000357,
                    "velocity": 0.6141732283464567,
                    "duration": 0.043988250000012385
                },
                {
                    "name": "C6",
                    "midi": 84,
                    "time": 153.60696900000357,
                    "velocity": 0.5196850393700787,
                    "duration": 0.043988250000012385
                },
                {
                    "name": "D#6",
                    "midi": 87,
                    "time": 153.60696900000357,
                    "velocity": 0.5196850393700787,
                    "duration": 0.043988250000012385
                },
                {
                    "name": "D7",
                    "midi": 98,
                    "time": 153.6949455000036,
                    "velocity": 0.6220472440944882,
                    "duration": 0.043988250000012385
                },
                {
                    "name": "D6",
                    "midi": 86,
                    "time": 153.6949455000036,
                    "velocity": 0.5275590551181102,
                    "duration": 0.043988250000012385
                },
                {
                    "name": "F6",
                    "midi": 89,
                    "time": 153.6949455000036,
                    "velocity": 0.5275590551181102,
                    "duration": 0.043988250000012385
                },
                {
                    "name": "D#7",
                    "midi": 99,
                    "time": 153.78292200000362,
                    "velocity": 0.6377952755905512,
                    "duration": 0.043988250000012385
                },
                {
                    "name": "D#6",
                    "midi": 87,
                    "time": 153.78292200000362,
                    "velocity": 0.5354330708661418,
                    "duration": 0.043988250000012385
                },
                {
                    "name": "G6",
                    "midi": 91,
                    "time": 153.78292200000362,
                    "velocity": 0.5354330708661418,
                    "duration": 0.043988250000012385
                },
                {
                    "name": "D#5",
                    "midi": 75,
                    "time": 154.13482800000364,
                    "velocity": 0.5354330708661418,
                    "duration": 0.043988250000012385
                },
                {
                    "name": "G5",
                    "midi": 79,
                    "time": 154.13482800000364,
                    "velocity": 0.5354330708661418,
                    "duration": 0.043988250000012385
                },
                {
                    "name": "A#5",
                    "midi": 82,
                    "time": 154.13482800000364,
                    "velocity": 0.5354330708661418,
                    "duration": 0.043988250000012385
                },
                {
                    "name": "D#6",
                    "midi": 87,
                    "time": 154.13482800000364,
                    "velocity": 0.6377952755905512,
                    "duration": 0.043988250000012385
                },
                {
                    "name": "A#3",
                    "midi": 58,
                    "time": 155.01459300000366,
                    "velocity": 0.44881889763779526,
                    "duration": 0.035190599999992855
                },
                {
                    "name": "C4",
                    "midi": 60,
                    "time": 155.04978360000365,
                    "velocity": 0.4251968503937008,
                    "duration": 0.035190599999992855
                },
                {
                    "name": "A#3",
                    "midi": 58,
                    "time": 155.08497420000364,
                    "velocity": 0.4330708661417323,
                    "duration": 0.035190599999992855
                },
                {
                    "name": "A3",
                    "midi": 57,
                    "time": 155.12016480000364,
                    "velocity": 0.4330708661417323,
                    "duration": 0.035190599999992855
                },
                {
                    "name": "A#3",
                    "midi": 58,
                    "time": 155.15535540000363,
                    "velocity": 0.4330708661417323,
                    "duration": 0.035190599999992855
                },
                {
                    "name": "D4",
                    "midi": 62,
                    "time": 155.19054600000362,
                    "velocity": 0.47244094488188976,
                    "duration": 0.03299118749998797
                },
                {
                    "name": "C#4",
                    "midi": 61,
                    "time": 155.27852250000362,
                    "velocity": 0.41732283464566927,
                    "duration": 0.043988250000012385
                },
                {
                    "name": "C4",
                    "midi": 60,
                    "time": 155.36649900000364,
                    "velocity": 0.41732283464566927,
                    "duration": 0.043988250000012385
                },
                {
                    "name": "B3",
                    "midi": 59,
                    "time": 155.45447550000367,
                    "velocity": 0.41732283464566927,
                    "duration": 0.043988250000012385
                },
                {
                    "name": "A#3",
                    "midi": 58,
                    "time": 155.5424520000037,
                    "velocity": 0.44881889763779526,
                    "duration": 0.043988250000012385
                },
                {
                    "name": "A3",
                    "midi": 57,
                    "time": 155.63042850000372,
                    "velocity": 0.4251968503937008,
                    "duration": 0.043988250000012385
                },
                {
                    "name": "G#3",
                    "midi": 56,
                    "time": 155.71840500000374,
                    "velocity": 0.4251968503937008,
                    "duration": 0.043988250000012385
                },
                {
                    "name": "C4",
                    "midi": 60,
                    "time": 155.80638150000377,
                    "velocity": 0.4251968503937008,
                    "duration": 0.043988250000012385
                },
                {
                    "name": "G3",
                    "midi": 55,
                    "time": 155.8943580000038,
                    "velocity": 0.44881889763779526,
                    "duration": 0.043988250000012385
                },
                {
                    "name": "G#3",
                    "midi": 56,
                    "time": 155.98233450000382,
                    "velocity": 0.4251968503937008,
                    "duration": 0.043988250000012385
                },
                {
                    "name": "A3",
                    "midi": 57,
                    "time": 156.07031100000384,
                    "velocity": 0.4251968503937008,
                    "duration": 0.043988250000012385
                },
                {
                    "name": "A#3",
                    "midi": 58,
                    "time": 156.15828750000387,
                    "velocity": 0.4251968503937008,
                    "duration": 0.021994124999991982
                },
                {
                    "name": "A3",
                    "midi": 57,
                    "time": 156.20227575000385,
                    "velocity": 0.3858267716535433,
                    "duration": 0.014662750000013602
                },
                {
                    "name": "A#3",
                    "midi": 58,
                    "time": 156.21693850000386,
                    "velocity": 0.3858267716535433,
                    "duration": 0.014662750000013602
                },
                {
                    "name": "C4",
                    "midi": 60,
                    "time": 156.23160125000388,
                    "velocity": 0.3858267716535433,
                    "duration": 0.014662750000013602
                },
                {
                    "name": "A#3",
                    "midi": 58,
                    "time": 156.2462640000039,
                    "velocity": 0.44881889763779526,
                    "duration": 0.043988250000012385
                },
                {
                    "name": "A3",
                    "midi": 57,
                    "time": 156.33424050000392,
                    "velocity": 0.41732283464566927,
                    "duration": 0.043988250000012385
                },
                {
                    "name": "A#3",
                    "midi": 58,
                    "time": 156.42221700000394,
                    "velocity": 0.44881889763779526,
                    "duration": 0.043988250000012385
                },
                {
                    "name": "G3",
                    "midi": 55,
                    "time": 156.51019350000396,
                    "velocity": 0.4251968503937008,
                    "duration": 0.043988250000012385
                },
                {
                    "name": "F3",
                    "midi": 53,
                    "time": 156.598170000004,
                    "velocity": 0.44881889763779526,
                    "duration": 0.043988250000012385
                },
                {
                    "name": "G3",
                    "midi": 55,
                    "time": 156.686146500004,
                    "velocity": 0.4015748031496063,
                    "duration": 0.043988250000012385
                },
                {
                    "name": "G#3",
                    "midi": 56,
                    "time": 156.77412300000404,
                    "velocity": 0.4015748031496063,
                    "duration": 0.043988250000012385
                },
                {
                    "name": "C4",
                    "midi": 60,
                    "time": 156.86209950000406,
                    "velocity": 0.4015748031496063,
                    "duration": 0.043988250000012385
                },
                {
                    "name": "A#3",
                    "midi": 58,
                    "time": 156.9500760000041,
                    "velocity": 0.4251968503937008,
                    "duration": 0.043988250000012385
                },
                {
                    "name": "G#3",
                    "midi": 56,
                    "time": 157.0380525000041,
                    "velocity": 0.4015748031496063,
                    "duration": 0.043988250000012385
                },
                {
                    "name": "G3",
                    "midi": 55,
                    "time": 157.12602900000414,
                    "velocity": 0.4015748031496063,
                    "duration": 0.043988250000012385
                },
                {
                    "name": "F3",
                    "midi": 53,
                    "time": 157.21400550000416,
                    "velocity": 0.4015748031496063,
                    "duration": 0.043988250000012385
                },
                {
                    "name": "A3",
                    "midi": 57,
                    "time": 157.3019820000042,
                    "velocity": 0.4251968503937008,
                    "duration": 0.043988250000012385
                },
                {
                    "name": "A#3",
                    "midi": 58,
                    "time": 157.3899585000042,
                    "velocity": 0.3543307086614173,
                    "duration": 0.043988250000012385
                },
                {
                    "name": "A#3",
                    "midi": 58,
                    "time": 157.47793500000424,
                    "velocity": 0.3700787401574803,
                    "duration": 0.043988250000012385
                },
                {
                    "name": "B3",
                    "midi": 59,
                    "time": 157.56591150000426,
                    "velocity": 0.3779527559055118,
                    "duration": 0.043988250000012385
                },
                {
                    "name": "B3",
                    "midi": 59,
                    "time": 157.6538880000043,
                    "velocity": 0.3937007874015748,
                    "duration": 0.043988250000012385
                },
                {
                    "name": "C4",
                    "midi": 60,
                    "time": 157.7418645000043,
                    "velocity": 0.4094488188976378,
                    "duration": 0.043988250000012385
                },
                {
                    "name": "C4",
                    "midi": 60,
                    "time": 157.82984100000434,
                    "velocity": 0.4251968503937008,
                    "duration": 0.043988250000012385
                },
                {
                    "name": "C#4",
                    "midi": 61,
                    "time": 157.91781750000436,
                    "velocity": 0.4330708661417323,
                    "duration": 0.043988250000012385
                },
                {
                    "name": "D4",
                    "midi": 62,
                    "time": 158.00579400000439,
                    "velocity": 0.4566929133858268,
                    "duration": 0.043988250000012385
                },
                {
                    "name": "C#4",
                    "midi": 61,
                    "time": 158.0937705000044,
                    "velocity": 0.41732283464566927,
                    "duration": 0.043988250000012385
                },
                {
                    "name": "C4",
                    "midi": 60,
                    "time": 158.18174700000444,
                    "velocity": 0.41732283464566927,
                    "duration": 0.043988250000012385
                },
                {
                    "name": "B3",
                    "midi": 59,
                    "time": 158.26972350000446,
                    "velocity": 0.41732283464566927,
                    "duration": 0.043988250000012385
                },
                {
                    "name": "A#3",
                    "midi": 58,
                    "time": 158.35770000000448,
                    "velocity": 0.44881889763779526,
                    "duration": 0.043988250000012385
                },
                {
                    "name": "A3",
                    "midi": 57,
                    "time": 158.4456765000045,
                    "velocity": 0.4251968503937008,
                    "duration": 0.043988250000012385
                },
                {
                    "name": "G#3",
                    "midi": 56,
                    "time": 158.53365300000453,
                    "velocity": 0.4251968503937008,
                    "duration": 0.043988250000012385
                },
                {
                    "name": "C4",
                    "midi": 60,
                    "time": 158.62162950000456,
                    "velocity": 0.4251968503937008,
                    "duration": 0.043988250000012385
                },
                {
                    "name": "G3",
                    "midi": 55,
                    "time": 158.70960600000458,
                    "velocity": 0.44881889763779526,
                    "duration": 0.043988250000012385
                },
                {
                    "name": "G#3",
                    "midi": 56,
                    "time": 158.7975825000046,
                    "velocity": 0.4251968503937008,
                    "duration": 0.043988250000012385
                },
                {
                    "name": "A3",
                    "midi": 57,
                    "time": 158.88555900000463,
                    "velocity": 0.4251968503937008,
                    "duration": 0.043988250000012385
                },
                {
                    "name": "A#3",
                    "midi": 58,
                    "time": 158.97353550000466,
                    "velocity": 0.4251968503937008,
                    "duration": 0.021994124999991982
                },
                {
                    "name": "A3",
                    "midi": 57,
                    "time": 159.01752375000464,
                    "velocity": 0.3858267716535433,
                    "duration": 0.014662750000013602
                },
                {
                    "name": "A#3",
                    "midi": 58,
                    "time": 159.03218650000466,
                    "velocity": 0.3858267716535433,
                    "duration": 0.014662750000013602
                },
                {
                    "name": "C4",
                    "midi": 60,
                    "time": 159.04684925000467,
                    "velocity": 0.3858267716535433,
                    "duration": 0.014662750000013602
                },
                {
                    "name": "A#3",
                    "midi": 58,
                    "time": 159.06151200000468,
                    "velocity": 0.44881889763779526,
                    "duration": 0.043988250000012385
                },
                {
                    "name": "A3",
                    "midi": 57,
                    "time": 159.1494885000047,
                    "velocity": 0.41732283464566927,
                    "duration": 0.043988250000012385
                },
                {
                    "name": "A#3",
                    "midi": 58,
                    "time": 159.23746500000473,
                    "velocity": 0.44881889763779526,
                    "duration": 0.043988250000012385
                },
                {
                    "name": "G3",
                    "midi": 55,
                    "time": 159.32544150000476,
                    "velocity": 0.4251968503937008,
                    "duration": 0.043988250000012385
                },
                {
                    "name": "F3",
                    "midi": 53,
                    "time": 159.41341800000478,
                    "velocity": 0.44881889763779526,
                    "duration": 0.043988250000012385
                },
                {
                    "name": "G3",
                    "midi": 55,
                    "time": 159.5013945000048,
                    "velocity": 0.4015748031496063,
                    "duration": 0.043988250000012385
                },
                {
                    "name": "G#3",
                    "midi": 56,
                    "time": 159.58937100000483,
                    "velocity": 0.4015748031496063,
                    "duration": 0.043988250000012385
                },
                {
                    "name": "C4",
                    "midi": 60,
                    "time": 159.67734750000486,
                    "velocity": 0.4015748031496063,
                    "duration": 0.043988250000012385
                },
                {
                    "name": "A#3",
                    "midi": 58,
                    "time": 159.76532400000488,
                    "velocity": 0.4251968503937008,
                    "duration": 0.043988250000012385
                },
                {
                    "name": "G#3",
                    "midi": 56,
                    "time": 159.8533005000049,
                    "velocity": 0.4015748031496063,
                    "duration": 0.043988250000012385
                },
                {
                    "name": "G3",
                    "midi": 55,
                    "time": 159.94127700000493,
                    "velocity": 0.4015748031496063,
                    "duration": 0.043988250000012385
                },
                {
                    "name": "F3",
                    "midi": 53,
                    "time": 160.02925350000496,
                    "velocity": 0.4015748031496063,
                    "duration": 0.043988250000012385
                },
                {
                    "name": "G3",
                    "midi": 55,
                    "time": 160.11723000000498,
                    "velocity": 0.4251968503937008,
                    "duration": 0.043988250000012385
                },
                {
                    "name": "D#3",
                    "midi": 51,
                    "time": 160.205206500005,
                    "velocity": 0.4015748031496063,
                    "duration": 0.043988250000012385
                },
                {
                    "name": "G3",
                    "midi": 55,
                    "time": 160.29318300000503,
                    "velocity": 0.41732283464566927,
                    "duration": 0.043988250000012385
                },
                {
                    "name": "A#3",
                    "midi": 58,
                    "time": 160.38115950000505,
                    "velocity": 0.4330708661417323,
                    "duration": 0.043988250000012385
                },
                {
                    "name": "D#4",
                    "midi": 63,
                    "time": 160.46913600000508,
                    "velocity": 0.44881889763779526,
                    "duration": 0.043988250000012385
                },
                {
                    "name": "F#4",
                    "midi": 66,
                    "time": 160.5571125000051,
                    "velocity": 0.4094488188976378,
                    "duration": 0.043988250000012385
                },
                {
                    "name": "G4",
                    "midi": 67,
                    "time": 160.64508900000513,
                    "velocity": 0.41732283464566927,
                    "duration": 0.043988250000012385
                },
                {
                    "name": "A#4",
                    "midi": 70,
                    "time": 160.73306550000515,
                    "velocity": 0.4330708661417323,
                    "duration": 0.043988250000012385
                },
                {
                    "name": "D5",
                    "midi": 74,
                    "time": 160.82104200000518,
                    "velocity": 0.49606299212598426,
                    "duration": 0.036656875000005584
                },
                {
                    "name": "F4",
                    "midi": 65,
                    "time": 160.90901850000517,
                    "velocity": 0.4330708661417323,
                    "duration": 0.043988250000012385
                },
                {
                    "name": "D5",
                    "midi": 74,
                    "time": 160.9969950000052,
                    "velocity": 0.5984251968503937,
                    "duration": 0.1759529999999927
                },
                {
                    "name": "A#5",
                    "midi": 82,
                    "time": 161.0849715000052,
                    "velocity": 0.4330708661417323,
                    "duration": 0.08797649999999635
                },
                {
                    "name": "C5",
                    "midi": 72,
                    "time": 161.1729480000052,
                    "velocity": 0.4645669291338583,
                    "duration": 0.043988250000012385
                },
                {
                    "name": "F4",
                    "midi": 65,
                    "time": 161.26092450000522,
                    "velocity": 0.4330708661417323,
                    "duration": 0.043988250000012385
                },
                {
                    "name": "C5",
                    "midi": 72,
                    "time": 161.34890100000524,
                    "velocity": 0.5984251968503937,
                    "duration": 0.1759529999999927
                },
                {
                    "name": "G#5",
                    "midi": 80,
                    "time": 161.43687750000524,
                    "velocity": 0.4330708661417323,
                    "duration": 0.08797649999999635
                },
                {
                    "name": "G4",
                    "midi": 67,
                    "time": 161.52485400000523,
                    "velocity": 0.49606299212598426,
                    "duration": 0.043988250000012385
                },
                {
                    "name": "A#3",
                    "midi": 58,
                    "time": 161.61283050000526,
                    "velocity": 0.4330708661417323,
                    "duration": 0.043988250000012385
                },
                {
                    "name": "G4",
                    "midi": 67,
                    "time": 161.70080700000528,
                    "velocity": 0.5905511811023622,
                    "duration": 0.1759529999999927
                },
                {
                    "name": "D#5",
                    "midi": 75,
                    "time": 161.78878350000528,
                    "velocity": 0.4330708661417323,
                    "duration": 0.08797649999999635
                },
                {
                    "name": "A#4",
                    "midi": 70,
                    "time": 161.87676000000528,
                    "velocity": 0.4645669291338583,
                    "duration": 0.043988250000012385
                },
                {
                    "name": "D#4",
                    "midi": 63,
                    "time": 161.9647365000053,
                    "velocity": 0.4330708661417323,
                    "duration": 0.043988250000012385
                },
                {
                    "name": "A#4",
                    "midi": 70,
                    "time": 162.05271300000533,
                    "velocity": 0.5669291338582677,
                    "duration": 0.1759529999999927
                },
                {
                    "name": "G5",
                    "midi": 79,
                    "time": 162.14068950000532,
                    "velocity": 0.4330708661417323,
                    "duration": 0.043988250000012385
                },
                {
                    "name": "C#5",
                    "midi": 73,
                    "time": 162.20667187500533,
                    "velocity": 0.4645669291338583,
                    "duration": 0.021994124999991982
                },
                {
                    "name": "D5",
                    "midi": 74,
                    "time": 162.22866600000532,
                    "velocity": 0.49606299212598426,
                    "duration": 0.043988250000012385
                },
                {
                    "name": "F4",
                    "midi": 65,
                    "time": 162.31664250000534,
                    "velocity": 0.4330708661417323,
                    "duration": 0.043988250000012385
                },
                {
                    "name": "D5",
                    "midi": 74,
                    "time": 162.40461900000537,
                    "velocity": 0.6062992125984252,
                    "duration": 0.17595299999996428
                },
                {
                    "name": "A#5",
                    "midi": 82,
                    "time": 162.51458962500536,
                    "velocity": 0.4330708661417323,
                    "duration": 0.021994124999991982
                },
                {
                    "name": "E5",
                    "midi": 76,
                    "time": 162.55857787500534,
                    "velocity": 0.4409448818897638,
                    "duration": 0.021994124999991982
                },
                {
                    "name": "F5",
                    "midi": 77,
                    "time": 162.58057200000533,
                    "velocity": 0.4645669291338583,
                    "duration": 0.043988250000012385
                },
                {
                    "name": "A#4",
                    "midi": 70,
                    "time": 162.66854850000536,
                    "velocity": 0.4330708661417323,
                    "duration": 0.043988250000012385
                },
                {
                    "name": "F5",
                    "midi": 77,
                    "time": 162.75652500000538,
                    "velocity": 0.6220472440944882,
                    "duration": 0.1759529999999927
                },
                {
                    "name": "D6",
                    "midi": 86,
                    "time": 162.84450150000538,
                    "velocity": 0.48031496062992124,
                    "duration": 0.043988250000012385
                },
                {
                    "name": "F#5",
                    "midi": 78,
                    "time": 162.91048387500538,
                    "velocity": 0.47244094488188976,
                    "duration": 0.021994124999991982
                },
                {
                    "name": "G5",
                    "midi": 79,
                    "time": 162.93247800000537,
                    "velocity": 0.5039370078740157,
                    "duration": 0.043988250000012385
                },
                {
                    "name": "A#4",
                    "midi": 70,
                    "time": 163.0204545000054,
                    "velocity": 0.4409448818897638,
                    "duration": 0.043988250000012385
                },
                {
                    "name": "G5",
                    "midi": 79,
                    "time": 163.10843100000542,
                    "velocity": 0.6220472440944882,
                    "duration": 0.1759529999999927
                },
                {
                    "name": "D#6",
                    "midi": 87,
                    "time": 163.19640750000542,
                    "velocity": 0.4566929133858268,
                    "duration": 0.043988250000012385
                },
                {
                    "name": "A5",
                    "midi": 81,
                    "time": 163.26238987500543,
                    "velocity": 0.44881889763779526,
                    "duration": 0.021994124999991982
                },
                {
                    "name": "A#5",
                    "midi": 82,
                    "time": 163.28438400000542,
                    "velocity": 0.48031496062992124,
                    "duration": 0.043988250000012385
                },
                {
                    "name": "D#5",
                    "midi": 75,
                    "time": 163.37236050000544,
                    "velocity": 0.44881889763779526,
                    "duration": 0.043988250000012385
                },
                {
                    "name": "A#5",
                    "midi": 82,
                    "time": 163.46033700000547,
                    "velocity": 0.6141732283464567,
                    "duration": 0.1759529999999927
                },
                {
                    "name": "G6",
                    "midi": 91,
                    "time": 163.54831350000546,
                    "velocity": 0.44881889763779526,
                    "duration": 0.08797649999999635
                },
                {
                    "name": "C#6",
                    "midi": 85,
                    "time": 163.61429587500547,
                    "velocity": 0.4881889763779528,
                    "duration": 0.021994124999991982
                },
                {
                    "name": "D6",
                    "midi": 86,
                    "time": 163.63629000000546,
                    "velocity": 0.5196850393700787,
                    "duration": 0.043988250000012385
                },
                {
                    "name": "F5",
                    "midi": 77,
                    "time": 163.72426650000548,
                    "velocity": 0.44881889763779526,
                    "duration": 0.043988250000012385
                },
                {
                    "name": "D6",
                    "midi": 86,
                    "time": 163.8122430000055,
                    "velocity": 0.6377952755905512,
                    "duration": 0.1759529999999927
                },
                {
                    "name": "A#6",
                    "midi": 94,
                    "time": 163.9002195000055,
                    "velocity": 0.4566929133858268,
                    "duration": 0.043988250000012385
                },
                {
                    "name": "B5",
                    "midi": 83,
                    "time": 163.9662018750055,
                    "velocity": 0.4566929133858268,
                    "duration": 0.021994124999991982
                },
                {
                    "name": "C6",
                    "midi": 84,
                    "time": 163.9881960000055,
                    "velocity": 0.4881889763779528,
                    "duration": 0.043988250000012385
                },
                {
                    "name": "F5",
                    "midi": 77,
                    "time": 164.07617250000553,
                    "velocity": 0.4566929133858268,
                    "duration": 0.043988250000012385
                },
                {
                    "name": "C6",
                    "midi": 84,
                    "time": 164.16414900000555,
                    "velocity": 0.6535433070866141,
                    "duration": 0.1759529999999927
                },
                {
                    "name": "G#6",
                    "midi": 92,
                    "time": 164.25212550000555,
                    "velocity": 0.4566929133858268,
                    "duration": 0.08797649999999635
                },
                {
                    "name": "F#5",
                    "midi": 78,
                    "time": 164.31810787500555,
                    "velocity": 0.49606299212598426,
                    "duration": 0.021994124999991982
                },
                {
                    "name": "G5",
                    "midi": 79,
                    "time": 164.34010200000554,
                    "velocity": 0.5354330708661418,
                    "duration": 0.043988250000012385
                },
                {
                    "name": "A#4",
                    "midi": 70,
                    "time": 164.42807850000557,
                    "velocity": 0.4645669291338583,
                    "duration": 0.043988250000012385
                },
                {
                    "name": "G5",
                    "midi": 79,
                    "time": 164.5160550000056,
                    "velocity": 0.6377952755905512,
                    "duration": 0.1759529999999927
                },
                {
                    "name": "D#6",
                    "midi": 87,
                    "time": 164.6040315000056,
                    "velocity": 0.4645669291338583,
                    "duration": 0.043988250000012385
                },
                {
                    "name": "A5",
                    "midi": 81,
                    "time": 164.6700138750056,
                    "velocity": 0.47244094488188976,
                    "duration": 0.021994124999991982
                },
                {
                    "name": "A#5",
                    "midi": 82,
                    "time": 164.6920080000056,
                    "velocity": 0.5039370078740157,
                    "duration": 0.043988250000012385
                },
                {
                    "name": "D#5",
                    "midi": 75,
                    "time": 164.7799845000056,
                    "velocity": 0.4645669291338583,
                    "duration": 0.043988250000012385
                },
                {
                    "name": "A#5",
                    "midi": 82,
                    "time": 164.86796100000564,
                    "velocity": 0.6377952755905512,
                    "duration": 0.1759529999999927
                },
                {
                    "name": "G6",
                    "midi": 91,
                    "time": 164.95593750000563,
                    "velocity": 0.47244094488188976,
                    "duration": 0.08797649999999635
                },
                {
                    "name": "C#6",
                    "midi": 85,
                    "time": 165.02191987500564,
                    "velocity": 0.5354330708661418,
                    "duration": 0.021994124999991982
                },
                {
                    "name": "D6",
                    "midi": 86,
                    "time": 165.04391400000563,
                    "velocity": 0.5433070866141733,
                    "duration": 0.043988250000012385
                },
                {
                    "name": "F5",
                    "midi": 77,
                    "time": 165.13189050000565,
                    "velocity": 0.48031496062992124,
                    "duration": 0.043988250000012385
                },
                {
                    "name": "D6",
                    "midi": 86,
                    "time": 165.21986700000568,
                    "velocity": 0.6850393700787402,
                    "duration": 0.1759529999999927
                },
                {
                    "name": "A#6",
                    "midi": 94,
                    "time": 165.30784350000567,
                    "velocity": 0.48031496062992124,
                    "duration": 0.043988250000012385
                },
                {
                    "name": "E6",
                    "midi": 88,
                    "time": 165.3518317500057,
                    "velocity": 0.5511811023622047,
                    "duration": 0.021994124999991982
                },
                {
                    "name": "F6",
                    "midi": 89,
                    "time": 165.39582000000567,
                    "velocity": 0.5196850393700787,
                    "duration": 0.043988250000012385
                },
                {
                    "name": "A#5",
                    "midi": 82,
                    "time": 165.4837965000057,
                    "velocity": 0.48031496062992124,
                    "duration": 0.043988250000012385
                },
                {
                    "name": "F6",
                    "midi": 89,
                    "time": 165.57177300000572,
                    "velocity": 0.6614173228346457,
                    "duration": 0.1759529999999927
                },
                {
                    "name": "D7",
                    "midi": 98,
                    "time": 165.65974950000572,
                    "velocity": 0.4881889763779528,
                    "duration": 0.08797649999999635
                },
                {
                    "name": "F#6",
                    "midi": 90,
                    "time": 165.72573187500572,
                    "velocity": 0.5039370078740157,
                    "duration": 0.021994124999991982
                },
                {
                    "name": "G6",
                    "midi": 91,
                    "time": 165.7477260000057,
                    "velocity": 0.6535433070866141,
                    "duration": 0.043988250000012385
                },
                {
                    "name": "A#5",
                    "midi": 82,
                    "time": 165.83570250000574,
                    "velocity": 0.4881889763779528,
                    "duration": 0.043988250000012385
                },
                {
                    "name": "G6",
                    "midi": 91,
                    "time": 165.92367900000576,
                    "velocity": 0.5511811023622047,
                    "duration": 0.17595300000002112
                },
                {
                    "name": "D#7",
                    "midi": 99,
                    "time": 166.01165550000576,
                    "velocity": 0.4881889763779528,
                    "duration": 0.043988250000012385
                },
                {
                    "name": "D#4",
                    "midi": 63,
                    "time": 166.09963200000578,
                    "velocity": 0.6220472440944882,
                    "duration": 0.30791775000000143
                },
                {
                    "name": "E4",
                    "midi": 64,
                    "time": 166.40754975000578,
                    "velocity": 0.3779527559055118,
                    "duration": 0.043988250000012385
                },
                {
                    "name": "F4",
                    "midi": 65,
                    "time": 166.4515380000058,
                    "velocity": 0.3779527559055118,
                    "duration": 0.058650999999997566
                },
                {
                    "name": "G4",
                    "midi": 67,
                    "time": 166.5101890000058,
                    "velocity": 0.3937007874015748,
                    "duration": 0.058650999999997566
                },
                {
                    "name": "G#4",
                    "midi": 68,
                    "time": 166.5688400000058,
                    "velocity": 0.4094488188976378,
                    "duration": 0.058650999999997566
                },
                {
                    "name": "C5",
                    "midi": 72,
                    "time": 166.6274910000058,
                    "velocity": 0.4251968503937008,
                    "duration": 0.058650999999997566
                },
                {
                    "name": "A#4",
                    "midi": 70,
                    "time": 166.6861420000058,
                    "velocity": 0.41732283464566927,
                    "duration": 0.058650999999997566
                },
                {
                    "name": "G#4",
                    "midi": 68,
                    "time": 166.74479300000579,
                    "velocity": 0.4094488188976378,
                    "duration": 0.058650999999997566
                },
                {
                    "name": "G4",
                    "midi": 67,
                    "time": 166.80344400000578,
                    "velocity": 0.4015748031496063,
                    "duration": 0.058650999999997566
                },
                {
                    "name": "F4",
                    "midi": 65,
                    "time": 166.86209500000578,
                    "velocity": 0.3937007874015748,
                    "duration": 0.058650999999997566
                },
                {
                    "name": "D#4",
                    "midi": 63,
                    "time": 166.92074600000578,
                    "velocity": 0.3858267716535433,
                    "duration": 0.058650999999997566
                },
                {
                    "name": "D4",
                    "midi": 62,
                    "time": 166.97939700000578,
                    "velocity": 0.3779527559055118,
                    "duration": 0.058650999999997566
                },
                {
                    "name": "C4",
                    "midi": 60,
                    "time": 167.03804800000577,
                    "velocity": 0.3779527559055118,
                    "duration": 0.058650999999997566
                },
                {
                    "name": "A#3",
                    "midi": 58,
                    "time": 167.09669900000577,
                    "velocity": 0.3700787401574803,
                    "duration": 0.058650999999997566
                },
                {
                    "name": "A3",
                    "midi": 57,
                    "time": 167.15535000000577,
                    "velocity": 0.3858267716535433,
                    "duration": 0.058650999999997566
                },
                {
                    "name": "A#3",
                    "midi": 58,
                    "time": 167.21400100000577,
                    "velocity": 0.3937007874015748,
                    "duration": 0.058650999999997566
                },
                {
                    "name": "C4",
                    "midi": 60,
                    "time": 167.27265200000576,
                    "velocity": 0.4015748031496063,
                    "duration": 0.058650999999997566
                },
                {
                    "name": "D4",
                    "midi": 62,
                    "time": 167.33130300000576,
                    "velocity": 0.4015748031496063,
                    "duration": 0.058650999999997566
                },
                {
                    "name": "D#4",
                    "midi": 63,
                    "time": 167.38995400000576,
                    "velocity": 0.4094488188976378,
                    "duration": 0.058650999999997566
                },
                {
                    "name": "F#4",
                    "midi": 66,
                    "time": 167.44860500000576,
                    "velocity": 0.41732283464566927,
                    "duration": 0.058650999999997566
                },
                {
                    "name": "G4",
                    "midi": 67,
                    "time": 167.50725600000575,
                    "velocity": 0.4251968503937008,
                    "duration": 0.058650999999997566
                },
                {
                    "name": "G#4",
                    "midi": 68,
                    "time": 167.56590700000575,
                    "velocity": 0.4251968503937008,
                    "duration": 0.058650999999997566
                },
                {
                    "name": "A#4",
                    "midi": 70,
                    "time": 167.62455800000575,
                    "velocity": 0.4330708661417323,
                    "duration": 0.058650999999997566
                },
                {
                    "name": "C5",
                    "midi": 72,
                    "time": 167.68320900000575,
                    "velocity": 0.4409448818897638,
                    "duration": 0.058650999999997566
                },
                {
                    "name": "D5",
                    "midi": 74,
                    "time": 167.74186000000574,
                    "velocity": 0.44881889763779526,
                    "duration": 0.058650999999997566
                },
                {
                    "name": "D#5",
                    "midi": 75,
                    "time": 167.80051100000574,
                    "velocity": 0.4566929133858268,
                    "duration": 0.036656875000005584
                },
                {
                    "name": "D5",
                    "midi": 74,
                    "time": 167.83716787500575,
                    "velocity": 0.4409448818897638,
                    "duration": 0.08064512499998955
                },
                {
                    "name": "F5",
                    "midi": 77,
                    "time": 167.85916200000574,
                    "velocity": 0.49606299212598426,
                    "duration": 0.058650999999997566
                },
                {
                    "name": "G5",
                    "midi": 79,
                    "time": 167.91781300000574,
                    "velocity": 0.4566929133858268,
                    "duration": 0.058650999999997566
                },
                {
                    "name": "G#5",
                    "midi": 80,
                    "time": 167.97646400000573,
                    "velocity": 0.4645669291338583,
                    "duration": 0.058650999999997566
                },
                {
                    "name": "C6",
                    "midi": 84,
                    "time": 168.03511500000573,
                    "velocity": 0.5039370078740157,
                    "duration": 0.058650999999997566
                },
                {
                    "name": "A#5",
                    "midi": 82,
                    "time": 168.09376600000573,
                    "velocity": 0.49606299212598426,
                    "duration": 0.058650999999997566
                },
                {
                    "name": "G#5",
                    "midi": 80,
                    "time": 168.15241700000573,
                    "velocity": 0.4881889763779528,
                    "duration": 0.058650999999997566
                },
                {
                    "name": "G5",
                    "midi": 79,
                    "time": 168.21106800000572,
                    "velocity": 0.47244094488188976,
                    "duration": 0.058650999999997566
                },
                {
                    "name": "F5",
                    "midi": 77,
                    "time": 168.26971900000572,
                    "velocity": 0.4645669291338583,
                    "duration": 0.058650999999997566
                },
                {
                    "name": "D#5",
                    "midi": 75,
                    "time": 168.32837000000572,
                    "velocity": 0.4566929133858268,
                    "duration": 0.058650999999997566
                },
                {
                    "name": "D5",
                    "midi": 74,
                    "time": 168.38702100000572,
                    "velocity": 0.44881889763779526,
                    "duration": 0.058650999999997566
                },
                {
                    "name": "C5",
                    "midi": 72,
                    "time": 168.44567200000571,
                    "velocity": 0.4330708661417323,
                    "duration": 0.058650999999997566
                },
                {
                    "name": "A#4",
                    "midi": 70,
                    "time": 168.5043230000057,
                    "velocity": 0.4251968503937008,
                    "duration": 0.058650999999997566
                },
                {
                    "name": "A4",
                    "midi": 69,
                    "time": 168.5629740000057,
                    "velocity": 0.4330708661417323,
                    "duration": 0.058650999999997566
                },
                {
                    "name": "A#4",
                    "midi": 70,
                    "time": 168.6216250000057,
                    "velocity": 0.4330708661417323,
                    "duration": 0.058650999999997566
                },
                {
                    "name": "C5",
                    "midi": 72,
                    "time": 168.6802760000057,
                    "velocity": 0.4409448818897638,
                    "duration": 0.058650999999997566
                },
                {
                    "name": "D5",
                    "midi": 74,
                    "time": 168.7389270000057,
                    "velocity": 0.4409448818897638,
                    "duration": 0.058650999999997566
                },
                {
                    "name": "D#5",
                    "midi": 75,
                    "time": 168.7975780000057,
                    "velocity": 0.44881889763779526,
                    "duration": 0.058650999999997566
                },
                {
                    "name": "F#5",
                    "midi": 78,
                    "time": 168.8562290000057,
                    "velocity": 0.4566929133858268,
                    "duration": 0.058650999999997566
                },
                {
                    "name": "G5",
                    "midi": 79,
                    "time": 168.9148800000057,
                    "velocity": 0.4566929133858268,
                    "duration": 0.058650999999997566
                },
                {
                    "name": "G#5",
                    "midi": 80,
                    "time": 168.9735310000057,
                    "velocity": 0.4645669291338583,
                    "duration": 0.058650999999997566
                },
                {
                    "name": "A#5",
                    "midi": 82,
                    "time": 169.0321820000057,
                    "velocity": 0.47244094488188976,
                    "duration": 0.058650999999997566
                },
                {
                    "name": "C6",
                    "midi": 84,
                    "time": 169.0908330000057,
                    "velocity": 0.47244094488188976,
                    "duration": 0.058650999999997566
                },
                {
                    "name": "D6",
                    "midi": 86,
                    "time": 169.14948400000569,
                    "velocity": 0.48031496062992124,
                    "duration": 0.058650999999997566
                },
                {
                    "name": "D#6",
                    "midi": 87,
                    "time": 169.20813500000568,
                    "velocity": 0.49606299212598426,
                    "duration": 0.036656875000005584
                },
                {
                    "name": "D6",
                    "midi": 86,
                    "time": 169.2447918750057,
                    "velocity": 0.4094488188976378,
                    "duration": 0.08064512499998955
                },
                {
                    "name": "F6",
                    "midi": 89,
                    "time": 169.26678600000568,
                    "velocity": 0.49606299212598426,
                    "duration": 0.058650999999997566
                },
                {
                    "name": "G6",
                    "midi": 91,
                    "time": 169.32543700000568,
                    "velocity": 0.4566929133858268,
                    "duration": 0.058650999999997566
                },
                {
                    "name": "G#6",
                    "midi": 92,
                    "time": 169.38408800000568,
                    "velocity": 0.4645669291338583,
                    "duration": 0.058650999999997566
                },
                {
                    "name": "C7",
                    "midi": 96,
                    "time": 169.44273900000567,
                    "velocity": 0.5039370078740157,
                    "duration": 0.058650999999997566
                },
                {
                    "name": "A#6",
                    "midi": 94,
                    "time": 169.50139000000567,
                    "velocity": 0.49606299212598426,
                    "duration": 0.058650999999997566
                },
                {
                    "name": "G#6",
                    "midi": 92,
                    "time": 169.56004100000567,
                    "velocity": 0.4881889763779528,
                    "duration": 0.058650999999997566
                },
                {
                    "name": "G6",
                    "midi": 91,
                    "time": 169.61869200000567,
                    "velocity": 0.47244094488188976,
                    "duration": 0.058650999999997566
                },
                {
                    "name": "F6",
                    "midi": 89,
                    "time": 169.67734300000566,
                    "velocity": 0.4645669291338583,
                    "duration": 0.058650999999997566
                },
                {
                    "name": "D#6",
                    "midi": 87,
                    "time": 169.73599400000566,
                    "velocity": 0.4566929133858268,
                    "duration": 0.058650999999997566
                },
                {
                    "name": "D6",
                    "midi": 86,
                    "time": 169.79464500000566,
                    "velocity": 0.44881889763779526,
                    "duration": 0.058650999999997566
                },
                {
                    "name": "C6",
                    "midi": 84,
                    "time": 169.85329600000566,
                    "velocity": 0.4330708661417323,
                    "duration": 0.058650999999997566
                },
                {
                    "name": "A#5",
                    "midi": 82,
                    "time": 169.91194700000565,
                    "velocity": 0.4251968503937008,
                    "duration": 0.058650999999997566
                },
                {
                    "name": "A5",
                    "midi": 81,
                    "time": 169.97059800000565,
                    "velocity": 0.4330708661417323,
                    "duration": 0.058650999999997566
                },
                {
                    "name": "A#5",
                    "midi": 82,
                    "time": 170.02924900000565,
                    "velocity": 0.4330708661417323,
                    "duration": 0.058650999999997566
                },
                {
                    "name": "C6",
                    "midi": 84,
                    "time": 170.08790000000565,
                    "velocity": 0.4409448818897638,
                    "duration": 0.058650999999997566
                },
                {
                    "name": "D6",
                    "midi": 86,
                    "time": 170.14655100000564,
                    "velocity": 0.4409448818897638,
                    "duration": 0.058650999999997566
                },
                {
                    "name": "D#6",
                    "midi": 87,
                    "time": 170.20520200000564,
                    "velocity": 0.44881889763779526,
                    "duration": 0.058650999999997566
                },
                {
                    "name": "F#6",
                    "midi": 90,
                    "time": 170.26385300000564,
                    "velocity": 0.4566929133858268,
                    "duration": 0.058650999999997566
                },
                {
                    "name": "G6",
                    "midi": 91,
                    "time": 170.32250400000564,
                    "velocity": 0.4566929133858268,
                    "duration": 0.058650999999997566
                },
                {
                    "name": "G#6",
                    "midi": 92,
                    "time": 170.38115500000563,
                    "velocity": 0.4566929133858268,
                    "duration": 0.058650999999997566
                },
                {
                    "name": "A#6",
                    "midi": 94,
                    "time": 170.43980600000563,
                    "velocity": 0.44881889763779526,
                    "duration": 0.058650999999997566
                },
                {
                    "name": "C7",
                    "midi": 96,
                    "time": 170.49845700000563,
                    "velocity": 0.4409448818897638,
                    "duration": 0.058650999999997566
                },
                {
                    "name": "D7",
                    "midi": 98,
                    "time": 170.55710800000563,
                    "velocity": 0.4409448818897638,
                    "duration": 0.058650999999997566
                },
                {
                    "name": "D#7",
                    "midi": 99,
                    "time": 170.61575900000562,
                    "velocity": 0.4330708661417323,
                    "duration": 0.058650999999997566
                },
                {
                    "name": "E7",
                    "midi": 100,
                    "time": 170.67441000000562,
                    "velocity": 0.4330708661417323,
                    "duration": 0.058650999999997566
                },
                {
                    "name": "F7",
                    "midi": 101,
                    "time": 170.73306100000562,
                    "velocity": 0.3937007874015748,
                    "duration": 0.058650999999997566
                },
                {
                    "name": "A#6",
                    "midi": 94,
                    "time": 170.79171200000562,
                    "velocity": 0.4251968503937008,
                    "duration": 0.058650999999997566
                },
                {
                    "name": "C#7",
                    "midi": 97,
                    "time": 170.85036300000561,
                    "velocity": 0.3937007874015748,
                    "duration": 0.058650999999997566
                },
                {
                    "name": "D7",
                    "midi": 98,
                    "time": 170.9090140000056,
                    "velocity": 0.4251968503937008,
                    "duration": 0.058650999999997566
                },
                {
                    "name": "F6",
                    "midi": 89,
                    "time": 170.9676650000056,
                    "velocity": 0.3937007874015748,
                    "duration": 0.058650999999997566
                },
                {
                    "name": "E7",
                    "midi": 100,
                    "time": 171.0263160000056,
                    "velocity": 0.4251968503937008,
                    "duration": 0.058650999999997566
                },
                {
                    "name": "F7",
                    "midi": 101,
                    "time": 171.0849670000056,
                    "velocity": 0.3937007874015748,
                    "duration": 0.058650999999997566
                },
                {
                    "name": "A#6",
                    "midi": 94,
                    "time": 171.1436180000056,
                    "velocity": 0.4251968503937008,
                    "duration": 0.058650999999997566
                },
                {
                    "name": "C#7",
                    "midi": 97,
                    "time": 171.2022690000056,
                    "velocity": 0.3937007874015748,
                    "duration": 0.058650999999997566
                },
                {
                    "name": "D7",
                    "midi": 98,
                    "time": 171.2609200000056,
                    "velocity": 0.4330708661417323,
                    "duration": 0.058650999999997566
                },
                {
                    "name": "F6",
                    "midi": 89,
                    "time": 171.3195710000056,
                    "velocity": 0.3937007874015748,
                    "duration": 0.058650999999997566
                },
                {
                    "name": "F#7",
                    "midi": 102,
                    "time": 171.3782220000056,
                    "velocity": 0.4330708661417323,
                    "duration": 0.058650999999997566
                },
                {
                    "name": "G7",
                    "midi": 103,
                    "time": 171.4368730000056,
                    "velocity": 0.3937007874015748,
                    "duration": 0.058650999999997566
                },
                {
                    "name": "A#6",
                    "midi": 94,
                    "time": 171.4955240000056,
                    "velocity": 0.4251968503937008,
                    "duration": 0.058650999999997566
                },
                {
                    "name": "D7",
                    "midi": 98,
                    "time": 171.55417500000559,
                    "velocity": 0.3937007874015748,
                    "duration": 0.058650999999997566
                },
                {
                    "name": "D#7",
                    "midi": 99,
                    "time": 171.61282600000558,
                    "velocity": 0.4251968503937008,
                    "duration": 0.058650999999997566
                },
                {
                    "name": "G6",
                    "midi": 91,
                    "time": 171.67147700000558,
                    "velocity": 0.3937007874015748,
                    "duration": 0.058650999999997566
                },
                {
                    "name": "F#7",
                    "midi": 102,
                    "time": 171.73012800000558,
                    "velocity": 0.4251968503937008,
                    "duration": 0.058650999999997566
                },
                {
                    "name": "G7",
                    "midi": 103,
                    "time": 171.78877900000558,
                    "velocity": 0.3937007874015748,
                    "duration": 0.058650999999997566
                },
                {
                    "name": "A#6",
                    "midi": 94,
                    "time": 171.84743000000557,
                    "velocity": 0.4251968503937008,
                    "duration": 0.058650999999997566
                },
                {
                    "name": "D7",
                    "midi": 98,
                    "time": 171.90608100000557,
                    "velocity": 0.3937007874015748,
                    "duration": 0.058650999999997566
                },
                {
                    "name": "D#7",
                    "midi": 99,
                    "time": 171.96473200000557,
                    "velocity": 0.4330708661417323,
                    "duration": 0.058650999999997566
                },
                {
                    "name": "G6",
                    "midi": 91,
                    "time": 172.02338300000557,
                    "velocity": 0.3937007874015748,
                    "duration": 0.058650999999997566
                },
                {
                    "name": "E7",
                    "midi": 100,
                    "time": 172.08203400000556,
                    "velocity": 0.4330708661417323,
                    "duration": 0.058650999999997566
                },
                {
                    "name": "F7",
                    "midi": 101,
                    "time": 172.14068500000556,
                    "velocity": 0.3937007874015748,
                    "duration": 0.058650999999997566
                },
                {
                    "name": "A#6",
                    "midi": 94,
                    "time": 172.19933600000556,
                    "velocity": 0.4251968503937008,
                    "duration": 0.058650999999997566
                },
                {
                    "name": "C#7",
                    "midi": 97,
                    "time": 172.25798700000556,
                    "velocity": 0.3937007874015748,
                    "duration": 0.058650999999997566
                },
                {
                    "name": "D7",
                    "midi": 98,
                    "time": 172.31663800000555,
                    "velocity": 0.4251968503937008,
                    "duration": 0.058650999999997566
                },
                {
                    "name": "F6",
                    "midi": 89,
                    "time": 172.37528900000555,
                    "velocity": 0.3937007874015748,
                    "duration": 0.058650999999997566
                },
                {
                    "name": "E7",
                    "midi": 100,
                    "time": 172.43394000000555,
                    "velocity": 0.4251968503937008,
                    "duration": 0.058650999999997566
                },
                {
                    "name": "F7",
                    "midi": 101,
                    "time": 172.49259100000555,
                    "velocity": 0.3937007874015748,
                    "duration": 0.058650999999997566
                },
                {
                    "name": "A#6",
                    "midi": 94,
                    "time": 172.55124200000554,
                    "velocity": 0.4251968503937008,
                    "duration": 0.058650999999997566
                },
                {
                    "name": "C#7",
                    "midi": 97,
                    "time": 172.60989300000554,
                    "velocity": 0.3937007874015748,
                    "duration": 0.058650999999997566
                },
                {
                    "name": "D7",
                    "midi": 98,
                    "time": 172.66854400000554,
                    "velocity": 0.4330708661417323,
                    "duration": 0.058650999999997566
                },
                {
                    "name": "F6",
                    "midi": 89,
                    "time": 172.72719500000554,
                    "velocity": 0.3937007874015748,
                    "duration": 0.058650999999997566
                },
                {
                    "name": "F#7",
                    "midi": 102,
                    "time": 172.78584600000553,
                    "velocity": 0.4330708661417323,
                    "duration": 0.058650999999997566
                },
                {
                    "name": "G7",
                    "midi": 103,
                    "time": 172.84449700000553,
                    "velocity": 0.3937007874015748,
                    "duration": 0.058650999999997566
                },
                {
                    "name": "A#6",
                    "midi": 94,
                    "time": 172.90314800000553,
                    "velocity": 0.4251968503937008,
                    "duration": 0.058650999999997566
                },
                {
                    "name": "D7",
                    "midi": 98,
                    "time": 172.96179900000553,
                    "velocity": 0.3937007874015748,
                    "duration": 0.058650999999997566
                },
                {
                    "name": "D#7",
                    "midi": 99,
                    "time": 173.02045000000552,
                    "velocity": 0.4251968503937008,
                    "duration": 0.058650999999997566
                },
                {
                    "name": "G6",
                    "midi": 91,
                    "time": 173.07910100000552,
                    "velocity": 0.3937007874015748,
                    "duration": 0.058650999999997566
                },
                {
                    "name": "F#7",
                    "midi": 102,
                    "time": 173.13775200000552,
                    "velocity": 0.4251968503937008,
                    "duration": 0.058650999999997566
                },
                {
                    "name": "G7",
                    "midi": 103,
                    "time": 173.19640300000552,
                    "velocity": 0.3937007874015748,
                    "duration": 0.058650999999997566
                },
                {
                    "name": "A#6",
                    "midi": 94,
                    "time": 173.25505400000552,
                    "velocity": 0.4251968503937008,
                    "duration": 0.058650999999997566
                },
                {
                    "name": "D7",
                    "midi": 98,
                    "time": 173.3137050000055,
                    "velocity": 0.3937007874015748,
                    "duration": 0.058650999999997566
                },
                {
                    "name": "D#7",
                    "midi": 99,
                    "time": 173.3723560000055,
                    "velocity": 0.4330708661417323,
                    "duration": 0.058650999999997566
                },
                {
                    "name": "G6",
                    "midi": 91,
                    "time": 173.4310070000055,
                    "velocity": 0.3937007874015748,
                    "duration": 0.058650999999997566
                },
                {
                    "name": "E7",
                    "midi": 100,
                    "time": 173.4896580000055,
                    "velocity": 0.4330708661417323,
                    "duration": 0.058650999999997566
                },
                {
                    "name": "F7",
                    "midi": 101,
                    "time": 173.5483090000055,
                    "velocity": 0.3937007874015748,
                    "duration": 0.058650999999997566
                },
                {
                    "name": "A#6",
                    "midi": 94,
                    "time": 173.6069600000055,
                    "velocity": 0.4251968503937008,
                    "duration": 0.058650999999997566
                },
                {
                    "name": "C#7",
                    "midi": 97,
                    "time": 173.6656110000055,
                    "velocity": 0.3937007874015748,
                    "duration": 0.058650999999997566
                },
                {
                    "name": "D7",
                    "midi": 98,
                    "time": 173.7242620000055,
                    "velocity": 0.4251968503937008,
                    "duration": 0.058650999999997566
                },
                {
                    "name": "F6",
                    "midi": 89,
                    "time": 173.7829130000055,
                    "velocity": 0.3937007874015748,
                    "duration": 0.058650999999997566
                },
                {
                    "name": "E7",
                    "midi": 100,
                    "time": 173.8415640000055,
                    "velocity": 0.4251968503937008,
                    "duration": 0.058650999999997566
                },
                {
                    "name": "F7",
                    "midi": 101,
                    "time": 173.9002150000055,
                    "velocity": 0.3937007874015748,
                    "duration": 0.058650999999997566
                },
                {
                    "name": "A#6",
                    "midi": 94,
                    "time": 173.9588660000055,
                    "velocity": 0.4251968503937008,
                    "duration": 0.058650999999997566
                },
                {
                    "name": "C#7",
                    "midi": 97,
                    "time": 174.01751700000548,
                    "velocity": 0.3937007874015748,
                    "duration": 0.058650999999997566
                },
                {
                    "name": "D7",
                    "midi": 98,
                    "time": 174.07616800000548,
                    "velocity": 0.4330708661417323,
                    "duration": 0.058650999999997566
                },
                {
                    "name": "F6",
                    "midi": 89,
                    "time": 174.13481900000548,
                    "velocity": 0.3937007874015748,
                    "duration": 0.058650999999997566
                },
                {
                    "name": "F#7",
                    "midi": 102,
                    "time": 174.19347000000548,
                    "velocity": 0.4330708661417323,
                    "duration": 0.058650999999997566
                },
                {
                    "name": "G7",
                    "midi": 103,
                    "time": 174.25212100000547,
                    "velocity": 0.3937007874015748,
                    "duration": 0.058650999999997566
                },
                {
                    "name": "A#6",
                    "midi": 94,
                    "time": 174.31077200000547,
                    "velocity": 0.4251968503937008,
                    "duration": 0.058650999999997566
                },
                {
                    "name": "D7",
                    "midi": 98,
                    "time": 174.36942300000547,
                    "velocity": 0.3937007874015748,
                    "duration": 0.058650999999997566
                },
                {
                    "name": "D#7",
                    "midi": 99,
                    "time": 174.42807400000547,
                    "velocity": 0.4251968503937008,
                    "duration": 0.058650999999997566
                },
                {
                    "name": "G6",
                    "midi": 91,
                    "time": 174.48672500000546,
                    "velocity": 0.3937007874015748,
                    "duration": 0.058650999999997566
                },
                {
                    "name": "F#7",
                    "midi": 102,
                    "time": 174.54537600000546,
                    "velocity": 0.4251968503937008,
                    "duration": 0.058650999999997566
                },
                {
                    "name": "G7",
                    "midi": 103,
                    "time": 174.60402700000546,
                    "velocity": 0.3937007874015748,
                    "duration": 0.058650999999997566
                },
                {
                    "name": "A#6",
                    "midi": 94,
                    "time": 174.66267800000546,
                    "velocity": 0.4251968503937008,
                    "duration": 0.058650999999997566
                },
                {
                    "name": "D7",
                    "midi": 98,
                    "time": 174.72132900000545,
                    "velocity": 0.3937007874015748,
                    "duration": 0.058650999999997566
                },
                {
                    "name": "D#7",
                    "midi": 99,
                    "time": 174.77998000000545,
                    "velocity": 0.4330708661417323,
                    "duration": 0.058650999999997566
                },
                {
                    "name": "G6",
                    "midi": 91,
                    "time": 174.83863100000545,
                    "velocity": 0.3937007874015748,
                    "duration": 0.058650999999997566
                },
                {
                    "name": "E7",
                    "midi": 100,
                    "time": 174.89728200000545,
                    "velocity": 0.4330708661417323,
                    "duration": 0.058650999999997566
                },
                {
                    "name": "F7",
                    "midi": 101,
                    "time": 174.95593300000544,
                    "velocity": 0.3937007874015748,
                    "duration": 0.058650999999997566
                },
                {
                    "name": "A#6",
                    "midi": 94,
                    "time": 175.01458400000544,
                    "velocity": 0.4251968503937008,
                    "duration": 0.058650999999997566
                },
                {
                    "name": "C#7",
                    "midi": 97,
                    "time": 175.07323500000544,
                    "velocity": 0.3937007874015748,
                    "duration": 0.058650999999997566
                },
                {
                    "name": "D7",
                    "midi": 98,
                    "time": 175.13188600000544,
                    "velocity": 0.4251968503937008,
                    "duration": 0.058650999999997566
                },
                {
                    "name": "F6",
                    "midi": 89,
                    "time": 175.19053700000543,
                    "velocity": 0.3937007874015748,
                    "duration": 0.058650999999997566
                },
                {
                    "name": "E7",
                    "midi": 100,
                    "time": 175.24918800000543,
                    "velocity": 0.4251968503937008,
                    "duration": 0.058650999999997566
                },
                {
                    "name": "F7",
                    "midi": 101,
                    "time": 175.30783900000543,
                    "velocity": 0.3937007874015748,
                    "duration": 0.058650999999997566
                },
                {
                    "name": "A#6",
                    "midi": 94,
                    "time": 175.36649000000543,
                    "velocity": 0.4251968503937008,
                    "duration": 0.058650999999997566
                },
                {
                    "name": "C#7",
                    "midi": 97,
                    "time": 175.42514100000542,
                    "velocity": 0.3937007874015748,
                    "duration": 0.058650999999997566
                },
                {
                    "name": "D7",
                    "midi": 98,
                    "time": 175.48379200000542,
                    "velocity": 0.4330708661417323,
                    "duration": 0.058650999999997566
                },
                {
                    "name": "F6",
                    "midi": 89,
                    "time": 175.54244300000542,
                    "velocity": 0.3937007874015748,
                    "duration": 0.058650999999997566
                },
                {
                    "name": "F#7",
                    "midi": 102,
                    "time": 175.60109400000542,
                    "velocity": 0.3937007874015748,
                    "duration": 0.043988250000012385
                },
                {
                    "name": "A6",
                    "midi": 93,
                    "time": 175.60109400000542,
                    "velocity": 0.3937007874015748,
                    "duration": 0.043988250000012385
                },
                {
                    "name": "A#6",
                    "midi": 94,
                    "time": 175.64508225000543,
                    "velocity": 0.4330708661417323,
                    "duration": 0.08797649999999635
                },
                {
                    "name": "G7",
                    "midi": 103,
                    "time": 175.64508225000543,
                    "velocity": 0.4330708661417323,
                    "duration": 0.08797649999999635
                },
                {
                    "name": "D5",
                    "midi": 74,
                    "time": 175.95300000000543,
                    "velocity": 0.3700787401574803,
                    "duration": 0.043988250000012385
                },
                {
                    "name": "F#4",
                    "midi": 66,
                    "time": 175.95300000000543,
                    "velocity": 0.3700787401574803,
                    "duration": 0.043988250000012385
                },
                {
                    "name": "G4",
                    "midi": 67,
                    "time": 175.99698825000544,
                    "velocity": 0.4094488188976378,
                    "duration": 0.08797649999999635
                },
                {
                    "name": "D#5",
                    "midi": 75,
                    "time": 175.99698825000544,
                    "velocity": 0.4094488188976378,
                    "duration": 0.08797649999999635
                },
                {
                    "name": "D6",
                    "midi": 86,
                    "time": 176.30490600000545,
                    "velocity": 0.3543307086614173,
                    "duration": 0.043988250000012385
                },
                {
                    "name": "F5",
                    "midi": 77,
                    "time": 176.30490600000545,
                    "velocity": 0.3543307086614173,
                    "duration": 0.043988250000012385
                },
                {
                    "name": "F6",
                    "midi": 89,
                    "time": 176.34889425000546,
                    "velocity": 0.4015748031496063,
                    "duration": 0.08797649999999635
                },
                {
                    "name": "G#5",
                    "midi": 80,
                    "time": 176.34889425000546,
                    "velocity": 0.4015748031496063,
                    "duration": 0.08797649999999635
                },
                {
                    "name": "D4",
                    "midi": 62,
                    "time": 176.65681200000546,
                    "velocity": 0.36220472440944884,
                    "duration": 0.043988250000012385
                },
                {
                    "name": "B4",
                    "midi": 71,
                    "time": 176.65681200000546,
                    "velocity": 0.36220472440944884,
                    "duration": 0.043988250000012385
                },
                {
                    "name": "F4",
                    "midi": 65,
                    "time": 176.70080025000547,
                    "velocity": 0.4094488188976378,
                    "duration": 0.08797649999999635
                },
                {
                    "name": "D5",
                    "midi": 74,
                    "time": 176.70080025000547,
                    "velocity": 0.4094488188976378,
                    "duration": 0.08797649999999635
                },
                {
                    "name": "C5",
                    "midi": 72,
                    "time": 177.00871800000547,
                    "velocity": 0.28346456692913385,
                    "duration": 0.043988250000012385
                },
                {
                    "name": "D5",
                    "midi": 74,
                    "time": 177.05270625000549,
                    "velocity": 0.25984251968503935,
                    "duration": 0.043988250000012385
                },
                {
                    "name": "C5",
                    "midi": 72,
                    "time": 177.0966945000055,
                    "velocity": 0.29133858267716534,
                    "duration": 0.043988250000012385
                },
                {
                    "name": "D5",
                    "midi": 74,
                    "time": 177.1406827500055,
                    "velocity": 0.25984251968503935,
                    "duration": 0.043988250000012385
                },
                {
                    "name": "C5",
                    "midi": 72,
                    "time": 177.18467100000552,
                    "velocity": 0.29133858267716534,
                    "duration": 0.043988250000012385
                },
                {
                    "name": "D5",
                    "midi": 74,
                    "time": 177.22865925000553,
                    "velocity": 0.25984251968503935,
                    "duration": 0.043988250000012385
                },
                {
                    "name": "C5",
                    "midi": 72,
                    "time": 177.27264750000555,
                    "velocity": 0.29133858267716534,
                    "duration": 0.043988250000012385
                },
                {
                    "name": "D5",
                    "midi": 74,
                    "time": 177.31663575000556,
                    "velocity": 0.25984251968503935,
                    "duration": 0.043988250000012385
                },
                {
                    "name": "C5",
                    "midi": 72,
                    "time": 177.36062400000557,
                    "velocity": 0.29133858267716534,
                    "duration": 0.043988250000012385
                },
                {
                    "name": "D5",
                    "midi": 74,
                    "time": 177.40461225000558,
                    "velocity": 0.25984251968503935,
                    "duration": 0.043988250000012385
                },
                {
                    "name": "C5",
                    "midi": 72,
                    "time": 177.4486005000056,
                    "velocity": 0.29133858267716534,
                    "duration": 0.043988250000012385
                },
                {
                    "name": "D5",
                    "midi": 74,
                    "time": 177.4925887500056,
                    "velocity": 0.25984251968503935,
                    "duration": 0.043988250000012385
                },
                {
                    "name": "C5",
                    "midi": 72,
                    "time": 177.53657700000562,
                    "velocity": 0.29133858267716534,
                    "duration": 0.043988250000012385
                },
                {
                    "name": "D5",
                    "midi": 74,
                    "time": 177.58056525000563,
                    "velocity": 0.25984251968503935,
                    "duration": 0.043988250000012385
                },
                {
                    "name": "C5",
                    "midi": 72,
                    "time": 177.62455350000565,
                    "velocity": 0.29133858267716534,
                    "duration": 0.043988250000012385
                },
                {
                    "name": "D5",
                    "midi": 74,
                    "time": 177.66854175000566,
                    "velocity": 0.25984251968503935,
                    "duration": 0.043988250000012385
                },
                {
                    "name": "B4",
                    "midi": 71,
                    "time": 177.71253000000567,
                    "velocity": 0.2992125984251969,
                    "duration": 0.043988250000012385
                },
                {
                    "name": "C5",
                    "midi": 72,
                    "time": 177.75651825000568,
                    "velocity": 0.25984251968503935,
                    "duration": 0.043988250000012385
                },
                {
                    "name": "D5",
                    "midi": 74,
                    "time": 177.8005065000057,
                    "velocity": 0.2677165354330709,
                    "duration": 0.043988250000012385
                },
                {
                    "name": "D#5",
                    "midi": 75,
                    "time": 177.8444947500057,
                    "velocity": 0.2677165354330709,
                    "duration": 0.043988250000012385
                },
                {
                    "name": "D5",
                    "midi": 74,
                    "time": 177.88848300000572,
                    "velocity": 0.3228346456692913,
                    "duration": 0.043988250000012385
                },
                {
                    "name": "D#5",
                    "midi": 75,
                    "time": 177.93247125000573,
                    "velocity": 0.28346456692913385,
                    "duration": 0.043988250000012385
                },
                {
                    "name": "F#5",
                    "midi": 78,
                    "time": 177.97645950000575,
                    "velocity": 0.29133858267716534,
                    "duration": 0.043988250000012385
                },
                {
                    "name": "G5",
                    "midi": 79,
                    "time": 178.02044775000576,
                    "velocity": 0.3464566929133858,
                    "duration": 0.043988250000012385
                },
                {
                    "name": "F#5",
                    "midi": 78,
                    "time": 178.06443600000577,
                    "velocity": 0.2992125984251969,
                    "duration": 0.043988250000012385
                },
                {
                    "name": "G5",
                    "midi": 79,
                    "time": 178.10842425000578,
                    "velocity": 0.30708661417322836,
                    "duration": 0.043988250000012385
                },
                {
                    "name": "B5",
                    "midi": 83,
                    "time": 178.1524125000058,
                    "velocity": 0.30708661417322836,
                    "duration": 0.043988250000012385
                },
                {
                    "name": "C6",
                    "midi": 84,
                    "time": 178.1964007500058,
                    "velocity": 0.31496062992125984,
                    "duration": 0.043988250000012385
                },
                {
                    "name": "B5",
                    "midi": 83,
                    "time": 178.24038900000582,
                    "velocity": 0.3700787401574803,
                    "duration": 0.043988250000012385
                },
                {
                    "name": "C6",
                    "midi": 84,
                    "time": 178.28437725000583,
                    "velocity": 0.33070866141732286,
                    "duration": 0.043988250000012385
                },
                {
                    "name": "D6",
                    "midi": 86,
                    "time": 178.32836550000584,
                    "velocity": 0.33070866141732286,
                    "duration": 0.043988250000012385
                },
                {
                    "name": "D#6",
                    "midi": 87,
                    "time": 178.37235375000586,
                    "velocity": 0.33858267716535434,
                    "duration": 0.043988250000012385
                },
                {
                    "name": "D6",
                    "midi": 86,
                    "time": 178.41634200000587,
                    "velocity": 0.4015748031496063,
                    "duration": 0.043988250000012385
                },
                {
                    "name": "D#6",
                    "midi": 87,
                    "time": 178.46033025000588,
                    "velocity": 0.3543307086614173,
                    "duration": 0.043988250000012385
                },
                {
                    "name": "F#6",
                    "midi": 90,
                    "time": 178.5043185000059,
                    "velocity": 0.3543307086614173,
                    "duration": 0.043988250000012385
                },
                {
                    "name": "G6",
                    "midi": 91,
                    "time": 178.5483067500059,
                    "velocity": 0.4251968503937008,
                    "duration": 0.043988250000012385
                },
                {
                    "name": "F#6",
                    "midi": 90,
                    "time": 178.59229500000592,
                    "velocity": 0.3700787401574803,
                    "duration": 0.043988250000012385
                },
                {
                    "name": "G6",
                    "midi": 91,
                    "time": 178.63628325000593,
                    "velocity": 0.3700787401574803,
                    "duration": 0.043988250000012385
                },
                {
                    "name": "B6",
                    "midi": 95,
                    "time": 178.68027150000594,
                    "velocity": 0.3779527559055118,
                    "duration": 0.043988250000012385
                },
                {
                    "name": "C7",
                    "midi": 96,
                    "time": 178.72425975000596,
                    "velocity": 0.3858267716535433,
                    "duration": 0.043988250000012385
                },
                {
                    "name": "B6",
                    "midi": 95,
                    "time": 178.76824800000597,
                    "velocity": 0.44881889763779526,
                    "duration": 0.043988250000012385
                },
                {
                    "name": "C7",
                    "midi": 96,
                    "time": 178.81223625000598,
                    "velocity": 0.3937007874015748,
                    "duration": 0.043988250000012385
                },
                {
                    "name": "D7",
                    "midi": 98,
                    "time": 178.856224500006,
                    "velocity": 0.4015748031496063,
                    "duration": 0.043988250000012385
                },
                {
                    "name": "D#7",
                    "midi": 99,
                    "time": 178.900212750006,
                    "velocity": 0.4094488188976378,
                    "duration": 0.043988250000012385
                },
                {
                    "name": "D7",
                    "midi": 98,
                    "time": 178.94420100000602,
                    "velocity": 0.48031496062992124,
                    "duration": 0.043988250000012385
                },
                {
                    "name": "D#7",
                    "midi": 99,
                    "time": 178.98818925000603,
                    "velocity": 0.41732283464566927,
                    "duration": 0.043988250000012385
                },
                {
                    "name": "F#7",
                    "midi": 102,
                    "time": 179.03217750000604,
                    "velocity": 0.4251968503937008,
                    "duration": 0.043988250000012385
                },
                {
                    "name": "G7",
                    "midi": 103,
                    "time": 179.07616575000606,
                    "velocity": 0.5118110236220472,
                    "duration": 0.043988250000012385
                },
                {
                    "name": "B6",
                    "midi": 95,
                    "time": 179.12015400000607,
                    "velocity": 0.48031496062992124,
                    "duration": 0.043988250000012385
                },
                {
                    "name": "C7",
                    "midi": 96,
                    "time": 179.16414225000608,
                    "velocity": 0.41732283464566927,
                    "duration": 0.043988250000012385
                },
                {
                    "name": "D7",
                    "midi": 98,
                    "time": 179.2081305000061,
                    "velocity": 0.41732283464566927,
                    "duration": 0.043988250000012385
                },
                {
                    "name": "D#7",
                    "midi": 99,
                    "time": 179.2521187500061,
                    "velocity": 0.41732283464566927,
                    "duration": 0.043988250000012385
                },
                {
                    "name": "F#6",
                    "midi": 90,
                    "time": 179.29610700000612,
                    "velocity": 0.4251968503937008,
                    "duration": 0.043988250000012385
                },
                {
                    "name": "G6",
                    "midi": 91,
                    "time": 179.34009525000613,
                    "velocity": 0.3779527559055118,
                    "duration": 0.043988250000012385
                },
                {
                    "name": "B6",
                    "midi": 95,
                    "time": 179.38408350000614,
                    "velocity": 0.3858267716535433,
                    "duration": 0.043988250000012385
                },
                {
                    "name": "C7",
                    "midi": 96,
                    "time": 179.42807175000615,
                    "velocity": 0.3858267716535433,
                    "duration": 0.043988250000012385
                },
                {
                    "name": "D6",
                    "midi": 86,
                    "time": 179.47206000000617,
                    "velocity": 0.4015748031496063,
                    "duration": 0.043988250000012385
                },
                {
                    "name": "D#6",
                    "midi": 87,
                    "time": 179.51604825000618,
                    "velocity": 0.3543307086614173,
                    "duration": 0.043988250000012385
                },
                {
                    "name": "F#6",
                    "midi": 90,
                    "time": 179.5600365000062,
                    "velocity": 0.3543307086614173,
                    "duration": 0.043988250000012385
                },
                {
                    "name": "G6",
                    "midi": 91,
                    "time": 179.6040247500062,
                    "velocity": 0.3543307086614173,
                    "duration": 0.043988250000012385
                },
                {
                    "name": "B5",
                    "midi": 83,
                    "time": 179.64801300000622,
                    "velocity": 0.3700787401574803,
                    "duration": 0.043988250000012385
                },
                {
                    "name": "C6",
                    "midi": 84,
                    "time": 179.69200125000623,
                    "velocity": 0.33070866141732286,
                    "duration": 0.043988250000012385
                },
                {
                    "name": "D6",
                    "midi": 86,
                    "time": 179.73598950000624,
                    "velocity": 0.33070866141732286,
                    "duration": 0.043988250000012385
                },
                {
                    "name": "D#6",
                    "midi": 87,
                    "time": 179.77997775000625,
                    "velocity": 0.33858267716535434,
                    "duration": 0.043988250000012385
                },
                {
                    "name": "F#5",
                    "midi": 78,
                    "time": 179.82396600000627,
                    "velocity": 0.3464566929133858,
                    "duration": 0.043988250000012385
                },
                {
                    "name": "G5",
                    "midi": 79,
                    "time": 179.86795425000628,
                    "velocity": 0.30708661417322836,
                    "duration": 0.043988250000012385
                },
                {
                    "name": "B5",
                    "midi": 83,
                    "time": 179.9119425000063,
                    "velocity": 0.31496062992125984,
                    "duration": 0.043988250000012385
                },
                {
                    "name": "C6",
                    "midi": 84,
                    "time": 179.9559307500063,
                    "velocity": 0.31496062992125984,
                    "duration": 0.043988250000012385
                },
                {
                    "name": "D5",
                    "midi": 74,
                    "time": 179.99991900000632,
                    "velocity": 0.31496062992125984,
                    "duration": 0.043988250000012385
                },
                {
                    "name": "D#5",
                    "midi": 75,
                    "time": 180.04390725000633,
                    "velocity": 0.28346456692913385,
                    "duration": 0.043988250000012385
                },
                {
                    "name": "F#5",
                    "midi": 78,
                    "time": 180.08789550000634,
                    "velocity": 0.29133858267716534,
                    "duration": 0.043988250000012385
                },
                {
                    "name": "G5",
                    "midi": 79,
                    "time": 180.13188375000635,
                    "velocity": 0.28346456692913385,
                    "duration": 0.043988250000012385
                },
                {
                    "name": "B4",
                    "midi": 71,
                    "time": 180.17587200000636,
                    "velocity": 0.3228346456692913,
                    "duration": 0.043988250000012385
                },
                {
                    "name": "C5",
                    "midi": 72,
                    "time": 180.21986025000638,
                    "velocity": 0.2992125984251969,
                    "duration": 0.043988250000012385
                },
                {
                    "name": "D5",
                    "midi": 74,
                    "time": 180.2638485000064,
                    "velocity": 0.31496062992125984,
                    "duration": 0.043988250000012385
                },
                {
                    "name": "D#5",
                    "midi": 75,
                    "time": 180.3078367500064,
                    "velocity": 0.3228346456692913,
                    "duration": 0.043988250000012385
                },
                {
                    "name": "F#4",
                    "midi": 66,
                    "time": 180.35182500000641,
                    "velocity": 0.33858267716535434,
                    "duration": 0.043988250000012385
                },
                {
                    "name": "G4",
                    "midi": 67,
                    "time": 180.39581325000643,
                    "velocity": 0.3464566929133858,
                    "duration": 0.043988250000012385
                },
                {
                    "name": "B4",
                    "midi": 71,
                    "time": 180.43980150000644,
                    "velocity": 0.36220472440944884,
                    "duration": 0.043988250000012385
                },
                {
                    "name": "C5",
                    "midi": 72,
                    "time": 180.48378975000645,
                    "velocity": 0.3700787401574803,
                    "duration": 0.043988250000012385
                },
                {
                    "name": "B4",
                    "midi": 71,
                    "time": 180.52777800000646,
                    "velocity": 0.3858267716535433,
                    "duration": 0.043988250000012385
                },
                {
                    "name": "C5",
                    "midi": 72,
                    "time": 180.57176625000648,
                    "velocity": 0.3858267716535433,
                    "duration": 0.043988250000012385
                },
                {
                    "name": "D5",
                    "midi": 74,
                    "time": 180.6157545000065,
                    "velocity": 0.4015748031496063,
                    "duration": 0.043988250000012385
                },
                {
                    "name": "D#5",
                    "midi": 75,
                    "time": 180.6597427500065,
                    "velocity": 0.41732283464566927,
                    "duration": 0.043988250000012385
                },
                {
                    "name": "D5",
                    "midi": 74,
                    "time": 180.7037310000065,
                    "velocity": 0.4330708661417323,
                    "duration": 0.043988250000012385
                },
                {
                    "name": "D#5",
                    "midi": 75,
                    "time": 180.74771925000653,
                    "velocity": 0.44881889763779526,
                    "duration": 0.043988250000012385
                },
                {
                    "name": "F#5",
                    "midi": 78,
                    "time": 180.79170750000654,
                    "velocity": 0.4645669291338583,
                    "duration": 0.043988250000012385
                },
                {
                    "name": "G5",
                    "midi": 79,
                    "time": 180.83569575000655,
                    "velocity": 0.48031496062992124,
                    "duration": 0.043988250000012385
                },
                {
                    "name": "B4",
                    "midi": 71,
                    "time": 180.87968400000656,
                    "velocity": 0.3228346456692913,
                    "duration": 0.043988250000012385
                },
                {
                    "name": "C5",
                    "midi": 72,
                    "time": 180.92367225000658,
                    "velocity": 0.2992125984251969,
                    "duration": 0.043988250000012385
                },
                {
                    "name": "D5",
                    "midi": 74,
                    "time": 180.9676605000066,
                    "velocity": 0.31496062992125984,
                    "duration": 0.043988250000012385
                },
                {
                    "name": "D#5",
                    "midi": 75,
                    "time": 181.0116487500066,
                    "velocity": 0.3228346456692913,
                    "duration": 0.043988250000012385
                },
                {
                    "name": "F#4",
                    "midi": 66,
                    "time": 181.0556370000066,
                    "velocity": 0.33858267716535434,
                    "duration": 0.043988250000012385
                },
                {
                    "name": "G4",
                    "midi": 67,
                    "time": 181.09962525000662,
                    "velocity": 0.3464566929133858,
                    "duration": 0.043988250000012385
                },
                {
                    "name": "B4",
                    "midi": 71,
                    "time": 181.14361350000664,
                    "velocity": 0.36220472440944884,
                    "duration": 0.043988250000012385
                },
                {
                    "name": "C5",
                    "midi": 72,
                    "time": 181.18760175000665,
                    "velocity": 0.3700787401574803,
                    "duration": 0.043988250000012385
                },
                {
                    "name": "B4",
                    "midi": 71,
                    "time": 181.23159000000666,
                    "velocity": 0.3858267716535433,
                    "duration": 0.043988250000012385
                },
                {
                    "name": "C5",
                    "midi": 72,
                    "time": 181.27557825000667,
                    "velocity": 0.3858267716535433,
                    "duration": 0.043988250000012385
                },
                {
                    "name": "D5",
                    "midi": 74,
                    "time": 181.3195665000067,
                    "velocity": 0.4015748031496063,
                    "duration": 0.043988250000012385
                },
                {
                    "name": "D#5",
                    "midi": 75,
                    "time": 181.3635547500067,
                    "velocity": 0.41732283464566927,
                    "duration": 0.043988250000012385
                },
                {
                    "name": "D5",
                    "midi": 74,
                    "time": 181.4075430000067,
                    "velocity": 0.4330708661417323,
                    "duration": 0.043988250000012385
                },
                {
                    "name": "D#5",
                    "midi": 75,
                    "time": 181.45153125000672,
                    "velocity": 0.44881889763779526,
                    "duration": 0.043988250000012385
                },
                {
                    "name": "F#5",
                    "midi": 78,
                    "time": 181.49551950000674,
                    "velocity": 0.4645669291338583,
                    "duration": 0.043988250000012385
                },
                {
                    "name": "G5",
                    "midi": 79,
                    "time": 181.53950775000675,
                    "velocity": 0.48031496062992124,
                    "duration": 0.043988250000012385
                },
                {
                    "name": "B4",
                    "midi": 71,
                    "time": 181.58349600000676,
                    "velocity": 0.4251968503937008,
                    "duration": 0.043988250000012385
                },
                {
                    "name": "C5",
                    "midi": 72,
                    "time": 181.62748425000677,
                    "velocity": 0.3858267716535433,
                    "duration": 0.043988250000012385
                },
                {
                    "name": "D5",
                    "midi": 74,
                    "time": 181.6714725000068,
                    "velocity": 0.3700787401574803,
                    "duration": 0.043988250000012385
                },
                {
                    "name": "D#5",
                    "midi": 75,
                    "time": 181.7154607500068,
                    "velocity": 0.3700787401574803,
                    "duration": 0.043988250000012385
                },
                {
                    "name": "F#4",
                    "midi": 66,
                    "time": 181.7594490000068,
                    "velocity": 0.3700787401574803,
                    "duration": 0.043988250000012385
                },
                {
                    "name": "G4",
                    "midi": 67,
                    "time": 181.80343725000682,
                    "velocity": 0.41732283464566927,
                    "duration": 0.043988250000012385
                },
                {
                    "name": "B4",
                    "midi": 71,
                    "time": 181.84742550000684,
                    "velocity": 0.3543307086614173,
                    "duration": 0.043988250000012385
                },
                {
                    "name": "C5",
                    "midi": 72,
                    "time": 181.89141375000685,
                    "velocity": 0.3543307086614173,
                    "duration": 0.043988250000012385
                },
                {
                    "name": "D4",
                    "midi": 62,
                    "time": 181.93540200000686,
                    "velocity": 0.3937007874015748,
                    "duration": 0.043988250000012385
                },
                {
                    "name": "D#4",
                    "midi": 63,
                    "time": 181.97939025000687,
                    "velocity": 0.3228346456692913,
                    "duration": 0.043988250000012385
                },
                {
                    "name": "F#4",
                    "midi": 66,
                    "time": 182.02337850000688,
                    "velocity": 0.3228346456692913,
                    "duration": 0.043988250000012385
                },
                {
                    "name": "G4",
                    "midi": 67,
                    "time": 182.0673667500069,
                    "velocity": 0.3228346456692913,
                    "duration": 0.043988250000012385
                },
                {
                    "name": "F#4",
                    "midi": 66,
                    "time": 182.1113550000069,
                    "velocity": 0.36220472440944884,
                    "duration": 0.043988250000012385
                },
                {
                    "name": "G4",
                    "midi": 67,
                    "time": 182.15534325000692,
                    "velocity": 0.33858267716535434,
                    "duration": 0.043988250000012385
                },
                {
                    "name": "B4",
                    "midi": 71,
                    "time": 182.19933150000693,
                    "velocity": 0.33858267716535434,
                    "duration": 0.043988250000012385
                },
                {
                    "name": "C5",
                    "midi": 72,
                    "time": 182.24331975000695,
                    "velocity": 0.33858267716535434,
                    "duration": 0.043988250000012385
                },
                {
                    "name": "F4",
                    "midi": 65,
                    "time": 182.35329037500696,
                    "velocity": 0.33858267716535434,
                    "duration": 0.28592362499998103
                },
                {
                    "name": "C5",
                    "midi": 72,
                    "time": 182.37528450000696,
                    "velocity": 0.33858267716535434,
                    "duration": 0.26392949999998905
                },
                {
                    "name": "F5",
                    "midi": 77,
                    "time": 182.39727862500695,
                    "velocity": 0.33858267716535434,
                    "duration": 0.06598237500000437
                },
                {
                    "name": "E5",
                    "midi": 76,
                    "time": 182.46326100000695,
                    "velocity": 0.33858267716535434,
                    "duration": 0.058650999999997566
                },
                {
                    "name": "F5",
                    "midi": 77,
                    "time": 182.52191200000695,
                    "velocity": 0.33070866141732286,
                    "duration": 0.058650999999997566
                },
                {
                    "name": "G5",
                    "midi": 79,
                    "time": 182.58056300000695,
                    "velocity": 0.33858267716535434,
                    "duration": 0.058650999999997566
                },
                {
                    "name": "F5",
                    "midi": 77,
                    "time": 182.63921400000694,
                    "velocity": 0.3779527559055118,
                    "duration": 0.043988250000012385
                },
                {
                    "name": "G5",
                    "midi": 79,
                    "time": 182.68320225000696,
                    "velocity": 0.33858267716535434,
                    "duration": 0.043988250000012385
                },
                {
                    "name": "F5",
                    "midi": 77,
                    "time": 182.72719050000697,
                    "velocity": 0.3700787401574803,
                    "duration": 0.043988250000012385
                },
                {
                    "name": "G5",
                    "midi": 79,
                    "time": 182.77117875000698,
                    "velocity": 0.33858267716535434,
                    "duration": 0.043988250000012385
                },
                {
                    "name": "F5",
                    "midi": 77,
                    "time": 182.815167000007,
                    "velocity": 0.3700787401574803,
                    "duration": 0.043988250000012385
                },
                {
                    "name": "G5",
                    "midi": 79,
                    "time": 182.859155250007,
                    "velocity": 0.33858267716535434,
                    "duration": 0.043988250000012385
                },
                {
                    "name": "F5",
                    "midi": 77,
                    "time": 182.90314350000702,
                    "velocity": 0.3937007874015748,
                    "duration": 0.043988250000012385
                },
                {
                    "name": "G5",
                    "midi": 79,
                    "time": 182.94713175000703,
                    "velocity": 0.33858267716535434,
                    "duration": 0.043988250000012385
                },
                {
                    "name": "F5",
                    "midi": 77,
                    "time": 182.99112000000704,
                    "velocity": 0.3858267716535433,
                    "duration": 0.043988250000012385
                },
                {
                    "name": "G5",
                    "midi": 79,
                    "time": 183.03510825000706,
                    "velocity": 0.33858267716535434,
                    "duration": 0.043988250000012385
                },
                {
                    "name": "F5",
                    "midi": 77,
                    "time": 183.07909650000707,
                    "velocity": 0.3779527559055118,
                    "duration": 0.043988250000012385
                },
                {
                    "name": "G5",
                    "midi": 79,
                    "time": 183.12308475000708,
                    "velocity": 0.33858267716535434,
                    "duration": 0.043988250000012385
                },
                {
                    "name": "F5",
                    "midi": 77,
                    "time": 183.1670730000071,
                    "velocity": 0.36220472440944884,
                    "duration": 0.043988250000012385
                },
                {
                    "name": "G5",
                    "midi": 79,
                    "time": 183.2110612500071,
                    "velocity": 0.33858267716535434,
                    "duration": 0.043988250000012385
                },
                {
                    "name": "F5",
                    "midi": 77,
                    "time": 183.25504950000712,
                    "velocity": 0.3858267716535433,
                    "duration": 0.043988250000012385
                },
                {
                    "name": "G5",
                    "midi": 79,
                    "time": 183.29903775000713,
                    "velocity": 0.33858267716535434,
                    "duration": 0.043988250000012385
                },
                {
                    "name": "E5",
                    "midi": 76,
                    "time": 183.34302600000714,
                    "velocity": 0.3700787401574803,
                    "duration": 0.1759529999999927
                },
                {
                    "name": "F5",
                    "midi": 77,
                    "time": 183.51897900000714,
                    "velocity": 0.3700787401574803,
                    "duration": 0.1759529999999927
                },
                {
                    "name": "D6",
                    "midi": 86,
                    "time": 183.69493200000713,
                    "velocity": 0.4566929133858268,
                    "duration": 0.05938413749998972
                },
                {
                    "name": "C#6",
                    "midi": 85,
                    "time": 183.75431613750712,
                    "velocity": 0.4409448818897638,
                    "duration": 0.058650999999997566
                },
                {
                    "name": "C6",
                    "midi": 84,
                    "time": 183.81223400000712,
                    "velocity": 0.4330708661417323,
                    "duration": 0.05938413749998972
                },
                {
                    "name": "B5",
                    "midi": 83,
                    "time": 183.87088500000712,
                    "velocity": 0.4251968503937008,
                    "duration": 0.058650999999997566
                },
                {
                    "name": "A#5",
                    "midi": 82,
                    "time": 183.92953600000712,
                    "velocity": 0.41732283464566927,
                    "duration": 0.058650999999997566
                },
                {
                    "name": "A5",
                    "midi": 81,
                    "time": 183.98818700000712,
                    "velocity": 0.4094488188976378,
                    "duration": 0.058650999999997566
                },
                {
                    "name": "G#5",
                    "midi": 80,
                    "time": 184.04830427500713,
                    "velocity": 0.4015748031496063,
                    "duration": 0.05865100000002599
                },
                {
                    "name": "G5",
                    "midi": 79,
                    "time": 184.10548900000714,
                    "velocity": 0.3937007874015748,
                    "duration": 0.05938413750001814
                },
                {
                    "name": "F#5",
                    "midi": 78,
                    "time": 184.16633941250717,
                    "velocity": 0.3858267716535433,
                    "duration": 0.058650999999997566
                },
                {
                    "name": "F5",
                    "midi": 77,
                    "time": 184.22279100000716,
                    "velocity": 0.3858267716535433,
                    "duration": 0.058650999999997566
                },
                {
                    "name": "B4",
                    "midi": 71,
                    "time": 184.28144200000716,
                    "velocity": 0.3779527559055118,
                    "duration": 0.058650999999997566
                },
                {
                    "name": "C5",
                    "midi": 72,
                    "time": 184.34009300000716,
                    "velocity": 0.36220472440944884,
                    "duration": 0.058650999999997566
                },
                {
                    "name": "F5",
                    "midi": 77,
                    "time": 184.39874400000716,
                    "velocity": 0.3543307086614173,
                    "duration": 0.058650999999997566
                },
                {
                    "name": "E5",
                    "midi": 76,
                    "time": 184.45739500000715,
                    "velocity": 0.3464566929133858,
                    "duration": 0.058650999999997566
                },
                {
                    "name": "D#5",
                    "midi": 75,
                    "time": 184.51604600000715,
                    "velocity": 0.33858267716535434,
                    "duration": 0.021994124999991982
                },
                {
                    "name": "D#5",
                    "midi": 75,
                    "time": 184.54537150000715,
                    "velocity": 0.33858267716535434,
                    "duration": 0.029325499999998783
                },
                {
                    "name": "D4",
                    "midi": 62,
                    "time": 184.64067937500715,
                    "velocity": 0.3700787401574803,
                    "duration": 0.46187662499997373
                },
                {
                    "name": "G#4",
                    "midi": 68,
                    "time": 184.66267350000714,
                    "velocity": 0.3858267716535433,
                    "duration": 0.43988249999998175
                },
                {
                    "name": "D5",
                    "midi": 74,
                    "time": 184.68466762500714,
                    "velocity": 0.4015748031496063,
                    "duration": 0.41788837499998976
                },
                {
                    "name": "D4",
                    "midi": 62,
                    "time": 185.10255600000713,
                    "velocity": 0.36220472440944884,
                    "duration": 0.06598237499997595
                },
                {
                    "name": "G#4",
                    "midi": 68,
                    "time": 185.12455012500712,
                    "velocity": 0.3937007874015748,
                    "duration": 0.043988249999983964
                },
                {
                    "name": "F5",
                    "midi": 77,
                    "time": 185.1465442500071,
                    "velocity": 0.4566929133858268,
                    "duration": 0.021994124999991982
                },
                {
                    "name": "D#5",
                    "midi": 75,
                    "time": 185.2785090000071,
                    "velocity": 0.4409448818897638,
                    "duration": 0.043988250000012385
                },
                {
                    "name": "G4",
                    "midi": 67,
                    "time": 185.2785090000071,
                    "velocity": 0.3700787401574803,
                    "duration": 0.043988250000012385
                },
                {
                    "name": "F5",
                    "midi": 77,
                    "time": 185.36648550000712,
                    "velocity": 0.3858267716535433,
                    "duration": 0.043988250000012385
                },
                {
                    "name": "A#4",
                    "midi": 70,
                    "time": 185.36648550000712,
                    "velocity": 0.3228346456692913,
                    "duration": 0.043988250000012385
                },
                {
                    "name": "G5",
                    "midi": 79,
                    "time": 185.45446200000714,
                    "velocity": 0.3937007874015748,
                    "duration": 0.043988250000012385
                },
                {
                    "name": "D#5",
                    "midi": 75,
                    "time": 185.45446200000714,
                    "velocity": 0.33070866141732286,
                    "duration": 0.043988250000012385
                },
                {
                    "name": "G#5",
                    "midi": 80,
                    "time": 185.54243850000717,
                    "velocity": 0.3464566929133858,
                    "duration": 0.043988250000012385
                },
                {
                    "name": "F5",
                    "midi": 77,
                    "time": 185.54243850000717,
                    "velocity": 0.29133858267716534,
                    "duration": 0.043988250000012385
                },
                {
                    "name": "C6",
                    "midi": 84,
                    "time": 185.60842087500717,
                    "velocity": 0.4409448818897638,
                    "duration": 0.021994124999991982
                },
                {
                    "name": "A#5",
                    "midi": 82,
                    "time": 185.63041500000716,
                    "velocity": 0.3937007874015748,
                    "duration": 0.043988250000012385
                },
                {
                    "name": "G5",
                    "midi": 79,
                    "time": 185.63041500000716,
                    "velocity": 0.33070866141732286,
                    "duration": 0.043988250000012385
                },
                {
                    "name": "A5",
                    "midi": 81,
                    "time": 185.76237975000717,
                    "velocity": 0.3543307086614173,
                    "duration": 0.043988250000012385
                },
                {
                    "name": "F#5",
                    "midi": 78,
                    "time": 185.76237975000717,
                    "velocity": 0.2992125984251969,
                    "duration": 0.043988250000012385
                },
                {
                    "name": "A#5",
                    "midi": 82,
                    "time": 185.80636800000718,
                    "velocity": 0.4645669291338583,
                    "duration": 0.043988250000012385
                },
                {
                    "name": "G5",
                    "midi": 79,
                    "time": 185.80636800000718,
                    "velocity": 0.3937007874015748,
                    "duration": 0.043988250000012385
                },
                {
                    "name": "D#4",
                    "midi": 63,
                    "time": 186.0702975000072,
                    "velocity": 0.4015748031496063,
                    "duration": 0.043988250000012385
                },
                {
                    "name": "C5",
                    "midi": 72,
                    "time": 186.0702975000072,
                    "velocity": 0.4015748031496063,
                    "duration": 0.043988250000012385
                },
                {
                    "name": "D#5",
                    "midi": 75,
                    "time": 186.24625050000722,
                    "velocity": 0.33858267716535434,
                    "duration": 0.043988250000012385
                },
                {
                    "name": "C6",
                    "midi": 84,
                    "time": 186.24625050000722,
                    "velocity": 0.4015748031496063,
                    "duration": 0.043988250000012385
                },
                {
                    "name": "C6",
                    "midi": 84,
                    "time": 186.33422700000725,
                    "velocity": 0.47244094488188976,
                    "duration": 0.043988250000012385
                },
                {
                    "name": "D#5",
                    "midi": 75,
                    "time": 186.33422700000725,
                    "velocity": 0.4015748031496063,
                    "duration": 0.043988250000012385
                },
                {
                    "name": "D#4",
                    "midi": 63,
                    "time": 186.77410950000726,
                    "velocity": 0.4015748031496063,
                    "duration": 0.043988250000012385
                },
                {
                    "name": "A#4",
                    "midi": 70,
                    "time": 186.77410950000726,
                    "velocity": 0.4015748031496063,
                    "duration": 0.043988250000012385
                },
                {
                    "name": "D#5",
                    "midi": 75,
                    "time": 186.95006250000728,
                    "velocity": 0.33858267716535434,
                    "duration": 0.043988250000012385
                },
                {
                    "name": "A#5",
                    "midi": 82,
                    "time": 186.95006250000728,
                    "velocity": 0.4015748031496063,
                    "duration": 0.043988250000012385
                },
                {
                    "name": "A#5",
                    "midi": 82,
                    "time": 187.0380390000073,
                    "velocity": 0.47244094488188976,
                    "duration": 0.043988250000012385
                },
                {
                    "name": "D#5",
                    "midi": 75,
                    "time": 187.0380390000073,
                    "velocity": 0.4015748031496063,
                    "duration": 0.043988250000012385
                },
                {
                    "name": "D4",
                    "midi": 62,
                    "time": 187.4779215000073,
                    "velocity": 0.4015748031496063,
                    "duration": 0.043988250000012385
                },
                {
                    "name": "G#4",
                    "midi": 68,
                    "time": 187.4779215000073,
                    "velocity": 0.4015748031496063,
                    "duration": 0.043988250000012385
                },
                {
                    "name": "D5",
                    "midi": 74,
                    "time": 187.65387450000733,
                    "velocity": 0.33858267716535434,
                    "duration": 0.043988250000012385
                },
                {
                    "name": "G#5",
                    "midi": 80,
                    "time": 187.65387450000733,
                    "velocity": 0.4015748031496063,
                    "duration": 0.043988250000012385
                },
                {
                    "name": "G#5",
                    "midi": 80,
                    "time": 187.74185100000736,
                    "velocity": 0.47244094488188976,
                    "duration": 0.043988250000012385
                },
                {
                    "name": "D5",
                    "midi": 74,
                    "time": 187.74185100000736,
                    "velocity": 0.4015748031496063,
                    "duration": 0.043988250000012385
                },
                {
                    "name": "D#4",
                    "midi": 63,
                    "time": 188.18173350000737,
                    "velocity": 0.4015748031496063,
                    "duration": 0.043988250000012385
                },
                {
                    "name": "G4",
                    "midi": 67,
                    "time": 188.18173350000737,
                    "velocity": 0.4015748031496063,
                    "duration": 0.043988250000012385
                },
                {
                    "name": "D#5",
                    "midi": 75,
                    "time": 188.3576865000074,
                    "velocity": 0.33858267716535434,
                    "duration": 0.043988250000012385
                },
                {
                    "name": "G5",
                    "midi": 79,
                    "time": 188.3576865000074,
                    "velocity": 0.4015748031496063,
                    "duration": 0.043988250000012385
                },
                {
                    "name": "G5",
                    "midi": 79,
                    "time": 188.44566300000741,
                    "velocity": 0.47244094488188976,
                    "duration": 0.043988250000012385
                },
                {
                    "name": "D#5",
                    "midi": 75,
                    "time": 188.44566300000741,
                    "velocity": 0.4015748031496063,
                    "duration": 0.043988250000012385
                },
                {
                    "name": "G#5",
                    "midi": 80,
                    "time": 188.79756900000743,
                    "velocity": 0.4094488188976378,
                    "duration": 0.043988250000012385
                },
                {
                    "name": "C5",
                    "midi": 72,
                    "time": 188.79756900000743,
                    "velocity": 0.3464566929133858,
                    "duration": 0.043988250000012385
                },
                {
                    "name": "G5",
                    "midi": 79,
                    "time": 188.88554550000745,
                    "velocity": 0.3700787401574803,
                    "duration": 0.043988250000012385
                },
                {
                    "name": "A#4",
                    "midi": 70,
                    "time": 188.88554550000745,
                    "velocity": 0.30708661417322836,
                    "duration": 0.043988250000012385
                },
                {
                    "name": "F5",
                    "midi": 77,
                    "time": 188.97352200000748,
                    "velocity": 0.3700787401574803,
                    "duration": 0.043988250000012385
                },
                {
                    "name": "G#4",
                    "midi": 68,
                    "time": 188.97352200000748,
                    "velocity": 0.30708661417322836,
                    "duration": 0.043988250000012385
                },
                {
                    "name": "D#5",
                    "midi": 75,
                    "time": 189.0614985000075,
                    "velocity": 0.3700787401574803,
                    "duration": 0.043988250000012385
                },
                {
                    "name": "G4",
                    "midi": 67,
                    "time": 189.0614985000075,
                    "velocity": 0.30708661417322836,
                    "duration": 0.043988250000012385
                },
                {
                    "name": "D5",
                    "midi": 74,
                    "time": 189.14947500000753,
                    "velocity": 0.4094488188976378,
                    "duration": 0.043988250000012385
                },
                {
                    "name": "F4",
                    "midi": 65,
                    "time": 189.14947500000753,
                    "velocity": 0.3464566929133858,
                    "duration": 0.043988250000012385
                },
                {
                    "name": "A#4",
                    "midi": 70,
                    "time": 189.23745150000755,
                    "velocity": 0.3543307086614173,
                    "duration": 0.043988250000012385
                },
                {
                    "name": "D4",
                    "midi": 62,
                    "time": 189.23745150000755,
                    "velocity": 0.2992125984251969,
                    "duration": 0.043988250000012385
                },
                {
                    "name": "C5",
                    "midi": 72,
                    "time": 189.32542800000758,
                    "velocity": 0.3543307086614173,
                    "duration": 0.043988250000012385
                },
                {
                    "name": "D#4",
                    "midi": 63,
                    "time": 189.32542800000758,
                    "velocity": 0.2992125984251969,
                    "duration": 0.043988250000012385
                },
                {
                    "name": "D5",
                    "midi": 74,
                    "time": 189.4134045000076,
                    "velocity": 0.3543307086614173,
                    "duration": 0.043988250000012385
                },
                {
                    "name": "F4",
                    "midi": 65,
                    "time": 189.4134045000076,
                    "velocity": 0.2992125984251969,
                    "duration": 0.043988250000012385
                },
                {
                    "name": "D#5",
                    "midi": 75,
                    "time": 189.50138100000763,
                    "velocity": 0.4409448818897638,
                    "duration": 0.043988250000012385
                },
                {
                    "name": "G4",
                    "midi": 67,
                    "time": 189.50138100000763,
                    "velocity": 0.3700787401574803,
                    "duration": 0.043988250000012385
                },
                {
                    "name": "F5",
                    "midi": 77,
                    "time": 189.58935750000765,
                    "velocity": 0.3858267716535433,
                    "duration": 0.043988250000012385
                },
                {
                    "name": "A#4",
                    "midi": 70,
                    "time": 189.58935750000765,
                    "velocity": 0.3228346456692913,
                    "duration": 0.043988250000012385
                },
                {
                    "name": "G5",
                    "midi": 79,
                    "time": 189.67733400000768,
                    "velocity": 0.3937007874015748,
                    "duration": 0.043988250000012385
                },
                {
                    "name": "D#5",
                    "midi": 75,
                    "time": 189.67733400000768,
                    "velocity": 0.33070866141732286,
                    "duration": 0.043988250000012385
                },
                {
                    "name": "G#5",
                    "midi": 80,
                    "time": 189.7653105000077,
                    "velocity": 0.3464566929133858,
                    "duration": 0.043988250000012385
                },
                {
                    "name": "F5",
                    "midi": 77,
                    "time": 189.7653105000077,
                    "velocity": 0.29133858267716534,
                    "duration": 0.043988250000012385
                },
                {
                    "name": "C6",
                    "midi": 84,
                    "time": 189.8312928750077,
                    "velocity": 0.4409448818897638,
                    "duration": 0.021994124999991982
                },
                {
                    "name": "A#5",
                    "midi": 82,
                    "time": 189.8532870000077,
                    "velocity": 0.3937007874015748,
                    "duration": 0.043988250000012385
                },
                {
                    "name": "G5",
                    "midi": 79,
                    "time": 189.8532870000077,
                    "velocity": 0.33070866141732286,
                    "duration": 0.043988250000012385
                },
                {
                    "name": "F#5",
                    "midi": 78,
                    "time": 189.94126350000772,
                    "velocity": 0.2992125984251969,
                    "duration": 0.043988250000012385
                },
                {
                    "name": "A5",
                    "midi": 81,
                    "time": 189.94126350000772,
                    "velocity": 0.3543307086614173,
                    "duration": 0.043988250000012385
                },
                {
                    "name": "A#5",
                    "midi": 82,
                    "time": 190.02924000000775,
                    "velocity": 0.4645669291338583,
                    "duration": 0.043988250000012385
                },
                {
                    "name": "G5",
                    "midi": 79,
                    "time": 190.02924000000775,
                    "velocity": 0.3937007874015748,
                    "duration": 0.043988250000012385
                },
                {
                    "name": "D#5",
                    "midi": 75,
                    "time": 190.29316950000776,
                    "velocity": 0.4015748031496063,
                    "duration": 0.043988250000012385
                },
                {
                    "name": "C6",
                    "midi": 84,
                    "time": 190.29316950000776,
                    "velocity": 0.4015748031496063,
                    "duration": 0.043988250000012385
                },
                {
                    "name": "D#6",
                    "midi": 87,
                    "time": 190.46912250000778,
                    "velocity": 0.33858267716535434,
                    "duration": 0.043988250000012385
                },
                {
                    "name": "C7",
                    "midi": 96,
                    "time": 190.46912250000778,
                    "velocity": 0.4015748031496063,
                    "duration": 0.043988250000012385
                },
                {
                    "name": "C7",
                    "midi": 96,
                    "time": 190.5570990000078,
                    "velocity": 0.47244094488188976,
                    "duration": 0.043988250000012385
                },
                {
                    "name": "D#6",
                    "midi": 87,
                    "time": 190.5570990000078,
                    "velocity": 0.4015748031496063,
                    "duration": 0.043988250000012385
                },
                {
                    "name": "D#5",
                    "midi": 75,
                    "time": 190.99698150000782,
                    "velocity": 0.4015748031496063,
                    "duration": 0.043988250000012385
                },
                {
                    "name": "A#5",
                    "midi": 82,
                    "time": 190.99698150000782,
                    "velocity": 0.4015748031496063,
                    "duration": 0.043988250000012385
                },
                {
                    "name": "D#6",
                    "midi": 87,
                    "time": 191.17293450000784,
                    "velocity": 0.33858267716535434,
                    "duration": 0.043988250000012385
                },
                {
                    "name": "A#6",
                    "midi": 94,
                    "time": 191.17293450000784,
                    "velocity": 0.4015748031496063,
                    "duration": 0.043988250000012385
                },
                {
                    "name": "A#6",
                    "midi": 94,
                    "time": 191.26091100000787,
                    "velocity": 0.47244094488188976,
                    "duration": 0.043988250000012385
                },
                {
                    "name": "D#6",
                    "midi": 87,
                    "time": 191.26091100000787,
                    "velocity": 0.4015748031496063,
                    "duration": 0.043988250000012385
                },
                {
                    "name": "D5",
                    "midi": 74,
                    "time": 191.70079350000788,
                    "velocity": 0.4015748031496063,
                    "duration": 0.043988250000012385
                },
                {
                    "name": "G#5",
                    "midi": 80,
                    "time": 191.70079350000788,
                    "velocity": 0.4015748031496063,
                    "duration": 0.043988250000012385
                },
                {
                    "name": "D6",
                    "midi": 86,
                    "time": 191.8767465000079,
                    "velocity": 0.33858267716535434,
                    "duration": 0.043988250000012385
                },
                {
                    "name": "G#6",
                    "midi": 92,
                    "time": 191.8767465000079,
                    "velocity": 0.4015748031496063,
                    "duration": 0.043988250000012385
                },
                {
                    "name": "G#6",
                    "midi": 92,
                    "time": 191.96472300000792,
                    "velocity": 0.47244094488188976,
                    "duration": 0.043988250000012385
                },
                {
                    "name": "D6",
                    "midi": 86,
                    "time": 191.96472300000792,
                    "velocity": 0.4015748031496063,
                    "duration": 0.043988250000012385
                },
                {
                    "name": "D#5",
                    "midi": 75,
                    "time": 192.40460550000793,
                    "velocity": 0.4015748031496063,
                    "duration": 0.043988250000012385
                },
                {
                    "name": "G5",
                    "midi": 79,
                    "time": 192.40460550000793,
                    "velocity": 0.4015748031496063,
                    "duration": 0.043988250000012385
                },
                {
                    "name": "D#6",
                    "midi": 87,
                    "time": 192.58055850000795,
                    "velocity": 0.33858267716535434,
                    "duration": 0.043988250000012385
                },
                {
                    "name": "G6",
                    "midi": 91,
                    "time": 192.58055850000795,
                    "velocity": 0.4015748031496063,
                    "duration": 0.043988250000012385
                },
                {
                    "name": "G6",
                    "midi": 91,
                    "time": 192.66853500000798,
                    "velocity": 0.47244094488188976,
                    "duration": 0.043988250000012385
                },
                {
                    "name": "D#6",
                    "midi": 87,
                    "time": 192.66853500000798,
                    "velocity": 0.4015748031496063,
                    "duration": 0.043988250000012385
                },
                {
                    "name": "G#6",
                    "midi": 92,
                    "time": 193.020441000008,
                    "velocity": 0.4094488188976378,
                    "duration": 0.043988250000012385
                },
                {
                    "name": "C6",
                    "midi": 84,
                    "time": 193.020441000008,
                    "velocity": 0.3464566929133858,
                    "duration": 0.043988250000012385
                },
                {
                    "name": "G6",
                    "midi": 91,
                    "time": 193.10841750000802,
                    "velocity": 0.3700787401574803,
                    "duration": 0.043988250000012385
                },
                {
                    "name": "A#5",
                    "midi": 82,
                    "time": 193.10841750000802,
                    "velocity": 0.30708661417322836,
                    "duration": 0.043988250000012385
                },
                {
                    "name": "F6",
                    "midi": 89,
                    "time": 193.19639400000804,
                    "velocity": 0.3700787401574803,
                    "duration": 0.043988250000012385
                },
                {
                    "name": "G#5",
                    "midi": 80,
                    "time": 193.19639400000804,
                    "velocity": 0.30708661417322836,
                    "duration": 0.043988250000012385
                },
                {
                    "name": "D#6",
                    "midi": 87,
                    "time": 193.28437050000807,
                    "velocity": 0.3700787401574803,
                    "duration": 0.043988250000012385
                },
                {
                    "name": "G5",
                    "midi": 79,
                    "time": 193.28437050000807,
                    "velocity": 0.30708661417322836,
                    "duration": 0.043988250000012385
                },
                {
                    "name": "D6",
                    "midi": 86,
                    "time": 193.3723470000081,
                    "velocity": 0.4094488188976378,
                    "duration": 0.043988250000012385
                },
                {
                    "name": "F5",
                    "midi": 77,
                    "time": 193.3723470000081,
                    "velocity": 0.3464566929133858,
                    "duration": 0.043988250000012385
                },
                {
                    "name": "A#5",
                    "midi": 82,
                    "time": 193.46032350000812,
                    "velocity": 0.3543307086614173,
                    "duration": 0.043988250000012385
                },
                {
                    "name": "D5",
                    "midi": 74,
                    "time": 193.46032350000812,
                    "velocity": 0.2992125984251969,
                    "duration": 0.043988250000012385
                },
                {
                    "name": "C6",
                    "midi": 84,
                    "time": 193.54830000000814,
                    "velocity": 0.3543307086614173,
                    "duration": 0.043988250000012385
                },
                {
                    "name": "D#5",
                    "midi": 75,
                    "time": 193.54830000000814,
                    "velocity": 0.2992125984251969,
                    "duration": 0.043988250000012385
                },
                {
                    "name": "D6",
                    "midi": 86,
                    "time": 193.63627650000817,
                    "velocity": 0.3543307086614173,
                    "duration": 0.043988250000012385
                },
                {
                    "name": "F5",
                    "midi": 77,
                    "time": 193.63627650000817,
                    "velocity": 0.2992125984251969,
                    "duration": 0.043988250000012385
                },
                {
                    "name": "D#6",
                    "midi": 87,
                    "time": 193.7242530000082,
                    "velocity": 0.4409448818897638,
                    "duration": 0.043988250000012385
                },
                {
                    "name": "G5",
                    "midi": 79,
                    "time": 193.7242530000082,
                    "velocity": 0.3700787401574803,
                    "duration": 0.043988250000012385
                },
                {
                    "name": "F6",
                    "midi": 89,
                    "time": 193.81222950000821,
                    "velocity": 0.3858267716535433,
                    "duration": 0.043988250000012385
                },
                {
                    "name": "A#5",
                    "midi": 82,
                    "time": 193.81222950000821,
                    "velocity": 0.3228346456692913,
                    "duration": 0.043988250000012385
                },
                {
                    "name": "G6",
                    "midi": 91,
                    "time": 193.90020600000824,
                    "velocity": 0.3937007874015748,
                    "duration": 0.043988250000012385
                },
                {
                    "name": "D#6",
                    "midi": 87,
                    "time": 193.90020600000824,
                    "velocity": 0.33070866141732286,
                    "duration": 0.043988250000012385
                },
                {
                    "name": "G#6",
                    "midi": 92,
                    "time": 193.98818250000826,
                    "velocity": 0.3464566929133858,
                    "duration": 0.043988250000012385
                },
                {
                    "name": "F6",
                    "midi": 89,
                    "time": 193.98818250000826,
                    "velocity": 0.29133858267716534,
                    "duration": 0.043988250000012385
                },
                {
                    "name": "A#6",
                    "midi": 94,
                    "time": 194.0761590000083,
                    "velocity": 0.3937007874015748,
                    "duration": 0.043988250000012385
                },
                {
                    "name": "G6",
                    "midi": 91,
                    "time": 194.0761590000083,
                    "velocity": 0.33070866141732286,
                    "duration": 0.043988250000012385
                },
                {
                    "name": "F#6",
                    "midi": 90,
                    "time": 194.1641355000083,
                    "velocity": 0.2992125984251969,
                    "duration": 0.043988250000012385
                },
                {
                    "name": "A6",
                    "midi": 93,
                    "time": 194.1641355000083,
                    "velocity": 0.3543307086614173,
                    "duration": 0.043988250000012385
                },
                {
                    "name": "C7",
                    "midi": 96,
                    "time": 194.25211200000834,
                    "velocity": 0.3937007874015748,
                    "duration": 0.043988250000012385
                },
                {
                    "name": "G#6",
                    "midi": 92,
                    "time": 194.25211200000834,
                    "velocity": 0.3937007874015748,
                    "duration": 0.043988250000012385
                },
                {
                    "name": "G6",
                    "midi": 91,
                    "time": 194.34008850000836,
                    "velocity": 0.2992125984251969,
                    "duration": 0.043988250000012385
                },
                {
                    "name": "A#6",
                    "midi": 94,
                    "time": 194.34008850000836,
                    "velocity": 0.3543307086614173,
                    "duration": 0.043988250000012385
                },
                {
                    "name": "G#6",
                    "midi": 92,
                    "time": 194.4280650000084,
                    "velocity": 0.4094488188976378,
                    "duration": 0.043988250000012385
                },
                {
                    "name": "C6",
                    "midi": 84,
                    "time": 194.4280650000084,
                    "velocity": 0.3464566929133858,
                    "duration": 0.043988250000012385
                },
                {
                    "name": "G6",
                    "midi": 91,
                    "time": 194.5160415000084,
                    "velocity": 0.3700787401574803,
                    "duration": 0.043988250000012385
                },
                {
                    "name": "A#5",
                    "midi": 82,
                    "time": 194.5160415000084,
                    "velocity": 0.30708661417322836,
                    "duration": 0.043988250000012385
                },
                {
                    "name": "F6",
                    "midi": 89,
                    "time": 194.60401800000844,
                    "velocity": 0.3700787401574803,
                    "duration": 0.043988250000012385
                },
                {
                    "name": "G#5",
                    "midi": 80,
                    "time": 194.60401800000844,
                    "velocity": 0.30708661417322836,
                    "duration": 0.043988250000012385
                },
                {
                    "name": "D#6",
                    "midi": 87,
                    "time": 194.69199450000846,
                    "velocity": 0.3779527559055118,
                    "duration": 0.043988250000012385
                },
                {
                    "name": "G5",
                    "midi": 79,
                    "time": 194.69199450000846,
                    "velocity": 0.31496062992125984,
                    "duration": 0.043988250000012385
                },
                {
                    "name": "D6",
                    "midi": 86,
                    "time": 194.7799710000085,
                    "velocity": 0.4251968503937008,
                    "duration": 0.043988250000012385
                },
                {
                    "name": "F5",
                    "midi": 77,
                    "time": 194.7799710000085,
                    "velocity": 0.3543307086614173,
                    "duration": 0.043988250000012385
                },
                {
                    "name": "A#5",
                    "midi": 82,
                    "time": 194.8679475000085,
                    "velocity": 0.3700787401574803,
                    "duration": 0.043988250000012385
                },
                {
                    "name": "D5",
                    "midi": 74,
                    "time": 194.8679475000085,
                    "velocity": 0.30708661417322836,
                    "duration": 0.043988250000012385
                },
                {
                    "name": "C6",
                    "midi": 84,
                    "time": 194.95592400000854,
                    "velocity": 0.3779527559055118,
                    "duration": 0.043988250000012385
                },
                {
                    "name": "D#5",
                    "midi": 75,
                    "time": 194.95592400000854,
                    "velocity": 0.31496062992125984,
                    "duration": 0.043988250000012385
                },
                {
                    "name": "D6",
                    "midi": 86,
                    "time": 195.04390050000856,
                    "velocity": 0.3779527559055118,
                    "duration": 0.043988250000012385
                },
                {
                    "name": "F5",
                    "midi": 77,
                    "time": 195.04390050000856,
                    "velocity": 0.3228346456692913,
                    "duration": 0.043988250000012385
                },
                {
                    "name": "D#6",
                    "midi": 87,
                    "time": 195.1318770000086,
                    "velocity": 0.48031496062992124,
                    "duration": 0.043988250000012385
                },
                {
                    "name": "G5",
                    "midi": 79,
                    "time": 195.1318770000086,
                    "velocity": 0.4015748031496063,
                    "duration": 0.043988250000012385
                },
                {
                    "name": "F6",
                    "midi": 89,
                    "time": 195.2198535000086,
                    "velocity": 0.41732283464566927,
                    "duration": 0.043988250000012385
                },
                {
                    "name": "A#5",
                    "midi": 82,
                    "time": 195.2198535000086,
                    "velocity": 0.3543307086614173,
                    "duration": 0.043988250000012385
                },
                {
                    "name": "G6",
                    "midi": 91,
                    "time": 195.30783000000864,
                    "velocity": 0.4330708661417323,
                    "duration": 0.043988250000012385
                },
                {
                    "name": "D#6",
                    "midi": 87,
                    "time": 195.30783000000864,
                    "velocity": 0.36220472440944884,
                    "duration": 0.043988250000012385
                },
                {
                    "name": "G#6",
                    "midi": 92,
                    "time": 195.39580650000866,
                    "velocity": 0.3858267716535433,
                    "duration": 0.043988250000012385
                },
                {
                    "name": "F6",
                    "midi": 89,
                    "time": 195.39580650000866,
                    "velocity": 0.3228346456692913,
                    "duration": 0.043988250000012385
                },
                {
                    "name": "A#6",
                    "midi": 94,
                    "time": 195.48378300000869,
                    "velocity": 0.44881889763779526,
                    "duration": 0.043988250000012385
                },
                {
                    "name": "G6",
                    "midi": 91,
                    "time": 195.48378300000869,
                    "velocity": 0.3700787401574803,
                    "duration": 0.043988250000012385
                },
                {
                    "name": "F#6",
                    "midi": 90,
                    "time": 195.5717595000087,
                    "velocity": 0.33858267716535434,
                    "duration": 0.043988250000012385
                },
                {
                    "name": "A6",
                    "midi": 93,
                    "time": 195.5717595000087,
                    "velocity": 0.4015748031496063,
                    "duration": 0.043988250000012385
                },
                {
                    "name": "C7",
                    "midi": 96,
                    "time": 195.65973600000873,
                    "velocity": 0.4566929133858268,
                    "duration": 0.043988250000012385
                },
                {
                    "name": "G#6",
                    "midi": 92,
                    "time": 195.65973600000873,
                    "velocity": 0.4566929133858268,
                    "duration": 0.043988250000012385
                },
                {
                    "name": "G6",
                    "midi": 91,
                    "time": 195.74771250000876,
                    "velocity": 0.3464566929133858,
                    "duration": 0.043988250000012385
                },
                {
                    "name": "A#6",
                    "midi": 94,
                    "time": 195.74771250000876,
                    "velocity": 0.4094488188976378,
                    "duration": 0.043988250000012385
                },
                {
                    "name": "G#6",
                    "midi": 92,
                    "time": 195.83568900000878,
                    "velocity": 0.48031496062992124,
                    "duration": 0.043988250000012385
                },
                {
                    "name": "C6",
                    "midi": 84,
                    "time": 195.83568900000878,
                    "velocity": 0.4094488188976378,
                    "duration": 0.043988250000012385
                },
                {
                    "name": "G6",
                    "midi": 91,
                    "time": 195.9236655000088,
                    "velocity": 0.4409448818897638,
                    "duration": 0.043988250000012385
                },
                {
                    "name": "A#5",
                    "midi": 82,
                    "time": 195.9236655000088,
                    "velocity": 0.36220472440944884,
                    "duration": 0.043988250000012385
                },
                {
                    "name": "F6",
                    "midi": 89,
                    "time": 196.01164200000883,
                    "velocity": 0.4409448818897638,
                    "duration": 0.043988250000012385
                },
                {
                    "name": "G#5",
                    "midi": 80,
                    "time": 196.01164200000883,
                    "velocity": 0.3700787401574803,
                    "duration": 0.043988250000012385
                },
                {
                    "name": "D#6",
                    "midi": 87,
                    "time": 196.09961850000886,
                    "velocity": 0.44881889763779526,
                    "duration": 0.043988250000012385
                },
                {
                    "name": "G5",
                    "midi": 79,
                    "time": 196.09961850000886,
                    "velocity": 0.3700787401574803,
                    "duration": 0.043988250000012385
                },
                {
                    "name": "D6",
                    "midi": 86,
                    "time": 196.18759500000888,
                    "velocity": 0.49606299212598426,
                    "duration": 0.043988250000012385
                },
                {
                    "name": "F5",
                    "midi": 77,
                    "time": 196.18759500000888,
                    "velocity": 0.4251968503937008,
                    "duration": 0.043988250000012385
                },
                {
                    "name": "A#4",
                    "midi": 70,
                    "time": 196.3635480000089,
                    "velocity": 0.4015748031496063,
                    "duration": 0.08797649999999635
                },
                {
                    "name": "A#5",
                    "midi": 82,
                    "time": 196.3635480000089,
                    "velocity": 0.47244094488188976,
                    "duration": 0.08797649999999635
                },
                {
                    "name": "B4",
                    "midi": 71,
                    "time": 196.4515245000089,
                    "velocity": 0.4015748031496063,
                    "duration": 0.08797649999999635
                },
                {
                    "name": "B5",
                    "midi": 83,
                    "time": 196.4515245000089,
                    "velocity": 0.47244094488188976,
                    "duration": 0.08797649999999635
                },
                {
                    "name": "C5",
                    "midi": 72,
                    "time": 196.5395010000089,
                    "velocity": 0.41732283464566927,
                    "duration": 0.08797649999999635
                },
                {
                    "name": "C6",
                    "midi": 84,
                    "time": 196.5395010000089,
                    "velocity": 0.49606299212598426,
                    "duration": 0.08797649999999635
                },
                {
                    "name": "C#5",
                    "midi": 73,
                    "time": 196.6274775000089,
                    "velocity": 0.3858267716535433,
                    "duration": 0.08797649999999635
                },
                {
                    "name": "C#6",
                    "midi": 85,
                    "time": 196.6274775000089,
                    "velocity": 0.4566929133858268,
                    "duration": 0.08797649999999635
                },
                {
                    "name": "D5",
                    "midi": 74,
                    "time": 196.7154540000089,
                    "velocity": 0.3858267716535433,
                    "duration": 0.08797649999999635
                },
                {
                    "name": "D6",
                    "midi": 86,
                    "time": 196.7154540000089,
                    "velocity": 0.4566929133858268,
                    "duration": 0.08797649999999635
                },
                {
                    "name": "D#5",
                    "midi": 75,
                    "time": 196.8034305000089,
                    "velocity": 0.3858267716535433,
                    "duration": 0.08797649999999635
                },
                {
                    "name": "D#6",
                    "midi": 87,
                    "time": 196.8034305000089,
                    "velocity": 0.4566929133858268,
                    "duration": 0.08797649999999635
                },
                {
                    "name": "D6",
                    "midi": 86,
                    "time": 196.89140700000888,
                    "velocity": 0.49606299212598426,
                    "duration": 0.08797649999999635
                },
                {
                    "name": "D5",
                    "midi": 74,
                    "time": 196.89140700000888,
                    "velocity": 0.41732283464566927,
                    "duration": 0.08797649999999635
                },
                {
                    "name": "D#6",
                    "midi": 87,
                    "time": 196.97938350000888,
                    "velocity": 0.4645669291338583,
                    "duration": 0.08797649999999635
                },
                {
                    "name": "D#5",
                    "midi": 75,
                    "time": 196.97938350000888,
                    "velocity": 0.3937007874015748,
                    "duration": 0.08797649999999635
                },
                {
                    "name": "E6",
                    "midi": 88,
                    "time": 197.06736000000888,
                    "velocity": 0.4645669291338583,
                    "duration": 0.08797649999999635
                },
                {
                    "name": "E5",
                    "midi": 76,
                    "time": 197.06736000000888,
                    "velocity": 0.3937007874015748,
                    "duration": 0.08797649999999635
                },
                {
                    "name": "F5",
                    "midi": 77,
                    "time": 197.15533650000887,
                    "velocity": 0.3937007874015748,
                    "duration": 0.08797649999999635
                },
                {
                    "name": "F6",
                    "midi": 89,
                    "time": 197.15533650000887,
                    "velocity": 0.4645669291338583,
                    "duration": 0.08797649999999635
                },
                {
                    "name": "E5",
                    "midi": 76,
                    "time": 197.24331300000887,
                    "velocity": 0.4566929133858268,
                    "duration": 0.08797649999999635
                },
                {
                    "name": "E6",
                    "midi": 88,
                    "time": 197.24331300000887,
                    "velocity": 0.5433070866141733,
                    "duration": 0.08797649999999635
                },
                {
                    "name": "F5",
                    "midi": 77,
                    "time": 197.33128950000886,
                    "velocity": 0.4094488188976378,
                    "duration": 0.08797649999999635
                },
                {
                    "name": "F6",
                    "midi": 89,
                    "time": 197.33128950000886,
                    "velocity": 0.4881889763779528,
                    "duration": 0.08797649999999635
                },
                {
                    "name": "F#5",
                    "midi": 78,
                    "time": 197.41926600000886,
                    "velocity": 0.4094488188976378,
                    "duration": 0.08797649999999635
                },
                {
                    "name": "F#6",
                    "midi": 90,
                    "time": 197.41926600000886,
                    "velocity": 0.4881889763779528,
                    "duration": 0.08797649999999635
                },
                {
                    "name": "G5",
                    "midi": 79,
                    "time": 197.50724250000886,
                    "velocity": 0.4094488188976378,
                    "duration": 0.08797649999999635
                },
                {
                    "name": "G6",
                    "midi": 91,
                    "time": 197.50724250000886,
                    "velocity": 0.4881889763779528,
                    "duration": 0.08797649999999635
                },
                {
                    "name": "F#5",
                    "midi": 78,
                    "time": 197.59521900000885,
                    "velocity": 0.4645669291338583,
                    "duration": 0.08797649999999635
                },
                {
                    "name": "F#6",
                    "midi": 90,
                    "time": 197.59521900000885,
                    "velocity": 0.5511811023622047,
                    "duration": 0.08797649999999635
                },
                {
                    "name": "G5",
                    "midi": 79,
                    "time": 197.68319550000885,
                    "velocity": 0.4251968503937008,
                    "duration": 0.08797649999999635
                },
                {
                    "name": "G6",
                    "midi": 91,
                    "time": 197.68319550000885,
                    "velocity": 0.5039370078740157,
                    "duration": 0.08797649999999635
                },
                {
                    "name": "G#5",
                    "midi": 80,
                    "time": 197.77117200000885,
                    "velocity": 0.4251968503937008,
                    "duration": 0.08797649999999635
                },
                {
                    "name": "G#6",
                    "midi": 92,
                    "time": 197.77117200000885,
                    "velocity": 0.5039370078740157,
                    "duration": 0.08797649999999635
                },
                {
                    "name": "A5",
                    "midi": 81,
                    "time": 197.85914850000884,
                    "velocity": 0.4251968503937008,
                    "duration": 0.08797649999999635
                },
                {
                    "name": "A6",
                    "midi": 93,
                    "time": 197.85914850000884,
                    "velocity": 0.5039370078740157,
                    "duration": 0.08797649999999635
                },
                {
                    "name": "G#5",
                    "midi": 80,
                    "time": 197.94712500000884,
                    "velocity": 0.4881889763779528,
                    "duration": 0.08797649999999635
                },
                {
                    "name": "G#6",
                    "midi": 92,
                    "time": 197.94712500000884,
                    "velocity": 0.5826771653543307,
                    "duration": 0.08797649999999635
                },
                {
                    "name": "A5",
                    "midi": 81,
                    "time": 198.03510150000884,
                    "velocity": 0.41732283464566927,
                    "duration": 0.08797649999999635
                },
                {
                    "name": "A6",
                    "midi": 93,
                    "time": 198.03510150000884,
                    "velocity": 0.49606299212598426,
                    "duration": 0.08797649999999635
                },
                {
                    "name": "A#5",
                    "midi": 82,
                    "time": 198.12307800000883,
                    "velocity": 0.4251968503937008,
                    "duration": 0.08797649999999635
                },
                {
                    "name": "A#6",
                    "midi": 94,
                    "time": 198.12307800000883,
                    "velocity": 0.5039370078740157,
                    "duration": 0.08797649999999635
                },
                {
                    "name": "B5",
                    "midi": 83,
                    "time": 198.21105450000883,
                    "velocity": 0.4251968503937008,
                    "duration": 0.08797649999999635
                },
                {
                    "name": "B6",
                    "midi": 95,
                    "time": 198.21105450000883,
                    "velocity": 0.5039370078740157,
                    "duration": 0.08797649999999635
                },
                {
                    "name": "A#5",
                    "midi": 82,
                    "time": 198.29903100000882,
                    "velocity": 0.5039370078740157,
                    "duration": 0.08797649999999635
                },
                {
                    "name": "A#6",
                    "midi": 94,
                    "time": 198.29903100000882,
                    "velocity": 0.5905511811023622,
                    "duration": 0.08797649999999635
                },
                {
                    "name": "B5",
                    "midi": 83,
                    "time": 198.38700750000882,
                    "velocity": 0.4645669291338583,
                    "duration": 0.08797649999999635
                },
                {
                    "name": "B6",
                    "midi": 95,
                    "time": 198.38700750000882,
                    "velocity": 0.5590551181102362,
                    "duration": 0.08797649999999635
                },
                {
                    "name": "C6",
                    "midi": 84,
                    "time": 198.47498400000882,
                    "velocity": 0.5039370078740157,
                    "duration": 0.08797649999999635
                },
                {
                    "name": "C7",
                    "midi": 96,
                    "time": 198.47498400000882,
                    "velocity": 0.6062992125984252,
                    "duration": 0.08797649999999635
                },
                {
                    "name": "C#6",
                    "midi": 85,
                    "time": 198.5629605000088,
                    "velocity": 0.5433070866141733,
                    "duration": 0.08797649999999635
                },
                {
                    "name": "C#7",
                    "midi": 97,
                    "time": 198.5629605000088,
                    "velocity": 0.6456692913385826,
                    "duration": 0.08797649999999635
                },
                {
                    "name": "D7",
                    "midi": 98,
                    "time": 198.6509370000088,
                    "velocity": 0.7322834645669292,
                    "duration": 0.1759529999999927
                },
                {
                    "name": "D6",
                    "midi": 86,
                    "time": 198.6509370000088,
                    "velocity": 0.6220472440944882,
                    "duration": 0.1759529999999927
                },
                {
                    "name": "A#6",
                    "midi": 94,
                    "time": 198.6509370000088,
                    "velocity": 0.6220472440944882,
                    "duration": 0.1759529999999927
                },
                {
                    "name": "D7",
                    "midi": 98,
                    "time": 198.8268900000088,
                    "velocity": 0.6692913385826772,
                    "duration": 0.1759529999999927
                },
                {
                    "name": "D6",
                    "midi": 86,
                    "time": 198.8268900000088,
                    "velocity": 0.5669291338582677,
                    "duration": 0.1759529999999927
                },
                {
                    "name": "A#6",
                    "midi": 94,
                    "time": 198.8268900000088,
                    "velocity": 0.5669291338582677,
                    "duration": 0.1759529999999927
                },
                {
                    "name": "C7",
                    "midi": 96,
                    "time": 199.0028430000088,
                    "velocity": 0.7322834645669292,
                    "duration": 0.1759529999999927
                },
                {
                    "name": "C6",
                    "midi": 84,
                    "time": 199.0028430000088,
                    "velocity": 0.6220472440944882,
                    "duration": 0.1759529999999927
                },
                {
                    "name": "G#6",
                    "midi": 92,
                    "time": 199.0028430000088,
                    "velocity": 0.6220472440944882,
                    "duration": 0.1759529999999927
                },
                {
                    "name": "C7",
                    "midi": 96,
                    "time": 199.1787960000088,
                    "velocity": 0.6929133858267716,
                    "duration": 0.1759529999999927
                },
                {
                    "name": "C6",
                    "midi": 84,
                    "time": 199.1787960000088,
                    "velocity": 0.5826771653543307,
                    "duration": 0.1759529999999927
                },
                {
                    "name": "G#6",
                    "midi": 92,
                    "time": 199.1787960000088,
                    "velocity": 0.5826771653543307,
                    "duration": 0.1759529999999927
                },
                {
                    "name": "G6",
                    "midi": 91,
                    "time": 199.35474900000878,
                    "velocity": 0.7244094488188977,
                    "duration": 0.1759529999999927
                },
                {
                    "name": "G5",
                    "midi": 79,
                    "time": 199.35474900000878,
                    "velocity": 0.6141732283464567,
                    "duration": 0.1759529999999927
                },
                {
                    "name": "D#6",
                    "midi": 87,
                    "time": 199.35474900000878,
                    "velocity": 0.6141732283464567,
                    "duration": 0.1759529999999927
                },
                {
                    "name": "A#6",
                    "midi": 94,
                    "time": 199.53070200000877,
                    "velocity": 0.6535433070866141,
                    "duration": 0.1759529999999927
                },
                {
                    "name": "A#5",
                    "midi": 82,
                    "time": 199.53070200000877,
                    "velocity": 0.5511811023622047,
                    "duration": 0.1759529999999927
                },
                {
                    "name": "G6",
                    "midi": 91,
                    "time": 199.53070200000877,
                    "velocity": 0.5511811023622047,
                    "duration": 0.1759529999999927
                },
                {
                    "name": "A#6",
                    "midi": 94,
                    "time": 199.70665500000877,
                    "velocity": 0.7007874015748031,
                    "duration": 0.08797649999999635
                },
                {
                    "name": "A#5",
                    "midi": 82,
                    "time": 199.70665500000877,
                    "velocity": 0.5826771653543307,
                    "duration": 0.08797649999999635
                },
                {
                    "name": "G6",
                    "midi": 91,
                    "time": 199.70665500000877,
                    "velocity": 0.5826771653543307,
                    "duration": 0.08797649999999635
                },
                {
                    "name": "A5",
                    "midi": 81,
                    "time": 199.79463150000876,
                    "velocity": 0.5275590551181102,
                    "duration": 0.08797649999999635
                },
                {
                    "name": "F#6",
                    "midi": 90,
                    "time": 199.79463150000876,
                    "velocity": 0.5275590551181102,
                    "duration": 0.08797649999999635
                },
                {
                    "name": "A6",
                    "midi": 93,
                    "time": 199.79463150000876,
                    "velocity": 0.6220472440944882,
                    "duration": 0.08797649999999635
                },
                {
                    "name": "A#6",
                    "midi": 94,
                    "time": 199.88260800000876,
                    "velocity": 0.6929133858267716,
                    "duration": 0.1759529999999927
                },
                {
                    "name": "A#5",
                    "midi": 82,
                    "time": 199.88260800000876,
                    "velocity": 0.5826771653543307,
                    "duration": 0.1759529999999927
                },
                {
                    "name": "G6",
                    "midi": 91,
                    "time": 199.88260800000876,
                    "velocity": 0.5826771653543307,
                    "duration": 0.1759529999999927
                },
                {
                    "name": "F6",
                    "midi": 89,
                    "time": 200.05856100000875,
                    "velocity": 0.6456692913385826,
                    "duration": 0.08797649999999635
                },
                {
                    "name": "F5",
                    "midi": 77,
                    "time": 200.05856100000875,
                    "velocity": 0.5433070866141733,
                    "duration": 0.08797649999999635
                },
                {
                    "name": "G6",
                    "midi": 91,
                    "time": 200.14653750000875,
                    "velocity": 0.6377952755905512,
                    "duration": 0.08797649999999635
                },
                {
                    "name": "G5",
                    "midi": 79,
                    "time": 200.14653750000875,
                    "velocity": 0.5354330708661418,
                    "duration": 0.08797649999999635
                },
                {
                    "name": "G#6",
                    "midi": 92,
                    "time": 200.23451400000874,
                    "velocity": 0.6377952755905512,
                    "duration": 0.08797649999999635
                },
                {
                    "name": "G#5",
                    "midi": 80,
                    "time": 200.23451400000874,
                    "velocity": 0.5354330708661418,
                    "duration": 0.08797649999999635
                },
                {
                    "name": "C7",
                    "midi": 96,
                    "time": 200.32249050000874,
                    "velocity": 0.6377952755905512,
                    "duration": 0.08797649999999635
                },
                {
                    "name": "C6",
                    "midi": 84,
                    "time": 200.32249050000874,
                    "velocity": 0.5354330708661418,
                    "duration": 0.08797649999999635
                },
                {
                    "name": "A#6",
                    "midi": 94,
                    "time": 200.41046700000874,
                    "velocity": 0.6535433070866141,
                    "duration": 0.08797649999999635
                },
                {
                    "name": "A#5",
                    "midi": 82,
                    "time": 200.41046700000874,
                    "velocity": 0.5511811023622047,
                    "duration": 0.08797649999999635
                },
                {
                    "name": "G#6",
                    "midi": 92,
                    "time": 200.49844350000873,
                    "velocity": 0.6299212598425197,
                    "duration": 0.08797649999999635
                },
                {
                    "name": "G#5",
                    "midi": 80,
                    "time": 200.49844350000873,
                    "velocity": 0.5354330708661418,
                    "duration": 0.08797649999999635
                },
                {
                    "name": "G6",
                    "midi": 91,
                    "time": 200.58642000000873,
                    "velocity": 0.6377952755905512,
                    "duration": 0.08797649999999635
                },
                {
                    "name": "G5",
                    "midi": 79,
                    "time": 200.58642000000873,
                    "velocity": 0.5354330708661418,
                    "duration": 0.08797649999999635
                },
                {
                    "name": "F6",
                    "midi": 89,
                    "time": 200.67439650000873,
                    "velocity": 0.6377952755905512,
                    "duration": 0.08797649999999635
                },
                {
                    "name": "F5",
                    "midi": 77,
                    "time": 200.67439650000873,
                    "velocity": 0.5354330708661418,
                    "duration": 0.08797649999999635
                },
                {
                    "name": "A#6",
                    "midi": 94,
                    "time": 200.76237300000872,
                    "velocity": 0.7244094488188977,
                    "duration": 0.1759529999999927
                },
                {
                    "name": "G6",
                    "midi": 91,
                    "time": 200.76237300000872,
                    "velocity": 0.7244094488188977,
                    "duration": 0.1759529999999927
                },
                {
                    "name": "A#5",
                    "midi": 82,
                    "time": 200.76237300000872,
                    "velocity": 0.6141732283464567,
                    "duration": 0.1759529999999927
                },
                {
                    "name": "G6",
                    "midi": 91,
                    "time": 200.93832600000871,
                    "velocity": 0.6535433070866141,
                    "duration": 0.13196475000000873
                },
                {
                    "name": "A#6",
                    "midi": 94,
                    "time": 200.93832600000871,
                    "velocity": 0.6535433070866141,
                    "duration": 0.13196475000000873
                },
                {
                    "name": "A#5",
                    "midi": 82,
                    "time": 200.93832600000871,
                    "velocity": 0.5511811023622047,
                    "duration": 0.13196475000000873
                },
                {
                    "name": "A5",
                    "midi": 81,
                    "time": 201.07029075000872,
                    "velocity": 0.5275590551181102,
                    "duration": 0.043988250000012385
                },
                {
                    "name": "F#6",
                    "midi": 90,
                    "time": 201.07029075000872,
                    "velocity": 0.6220472440944882,
                    "duration": 0.043988250000012385
                },
                {
                    "name": "A6",
                    "midi": 93,
                    "time": 201.07029075000872,
                    "velocity": 0.6220472440944882,
                    "duration": 0.043988250000012385
                },
                {
                    "name": "A#6",
                    "midi": 94,
                    "time": 201.11427900000874,
                    "velocity": 0.7007874015748031,
                    "duration": 0.3519060000000138
                },
                {
                    "name": "G6",
                    "midi": 91,
                    "time": 201.11427900000874,
                    "velocity": 0.7007874015748031,
                    "duration": 0.3519060000000138
                },
                {
                    "name": "A#5",
                    "midi": 82,
                    "time": 201.11427900000874,
                    "velocity": 0.5826771653543307,
                    "duration": 0.3519060000000138
                },
                {
                    "name": "D7",
                    "midi": 98,
                    "time": 201.46618500000875,
                    "velocity": 0.7322834645669292,
                    "duration": 0.1759529999999927
                },
                {
                    "name": "D6",
                    "midi": 86,
                    "time": 201.46618500000875,
                    "velocity": 0.6220472440944882,
                    "duration": 0.1759529999999927
                },
                {
                    "name": "A#6",
                    "midi": 94,
                    "time": 201.46618500000875,
                    "velocity": 0.6220472440944882,
                    "duration": 0.1759529999999927
                },
                {
                    "name": "D7",
                    "midi": 98,
                    "time": 201.64213800000874,
                    "velocity": 0.6692913385826772,
                    "duration": 0.1759529999999927
                },
                {
                    "name": "D6",
                    "midi": 86,
                    "time": 201.64213800000874,
                    "velocity": 0.5669291338582677,
                    "duration": 0.1759529999999927
                },
                {
                    "name": "A#6",
                    "midi": 94,
                    "time": 201.64213800000874,
                    "velocity": 0.5669291338582677,
                    "duration": 0.1759529999999927
                },
                {
                    "name": "C7",
                    "midi": 96,
                    "time": 201.81809100000874,
                    "velocity": 0.7322834645669292,
                    "duration": 0.1759529999999927
                },
                {
                    "name": "C6",
                    "midi": 84,
                    "time": 201.81809100000874,
                    "velocity": 0.6220472440944882,
                    "duration": 0.1759529999999927
                },
                {
                    "name": "G#6",
                    "midi": 92,
                    "time": 201.81809100000874,
                    "velocity": 0.6220472440944882,
                    "duration": 0.1759529999999927
                },
                {
                    "name": "C7",
                    "midi": 96,
                    "time": 201.99404400000873,
                    "velocity": 0.6929133858267716,
                    "duration": 0.1759529999999927
                },
                {
                    "name": "C6",
                    "midi": 84,
                    "time": 201.99404400000873,
                    "velocity": 0.5826771653543307,
                    "duration": 0.1759529999999927
                },
                {
                    "name": "G#6",
                    "midi": 92,
                    "time": 201.99404400000873,
                    "velocity": 0.5826771653543307,
                    "duration": 0.1759529999999927
                },
                {
                    "name": "G6",
                    "midi": 91,
                    "time": 202.16999700000872,
                    "velocity": 0.7244094488188977,
                    "duration": 0.1759529999999927
                },
                {
                    "name": "G5",
                    "midi": 79,
                    "time": 202.16999700000872,
                    "velocity": 0.6141732283464567,
                    "duration": 0.1759529999999927
                },
                {
                    "name": "D#6",
                    "midi": 87,
                    "time": 202.16999700000872,
                    "velocity": 0.6141732283464567,
                    "duration": 0.1759529999999927
                },
                {
                    "name": "A#6",
                    "midi": 94,
                    "time": 202.3459500000087,
                    "velocity": 0.6535433070866141,
                    "duration": 0.1759529999999927
                },
                {
                    "name": "A#5",
                    "midi": 82,
                    "time": 202.3459500000087,
                    "velocity": 0.5511811023622047,
                    "duration": 0.1759529999999927
                },
                {
                    "name": "G6",
                    "midi": 91,
                    "time": 202.3459500000087,
                    "velocity": 0.5511811023622047,
                    "duration": 0.1759529999999927
                },
                {
                    "name": "A#6",
                    "midi": 94,
                    "time": 202.5219030000087,
                    "velocity": 0.7007874015748031,
                    "duration": 0.08797649999999635
                },
                {
                    "name": "A#5",
                    "midi": 82,
                    "time": 202.5219030000087,
                    "velocity": 0.5826771653543307,
                    "duration": 0.08797649999999635
                },
                {
                    "name": "G6",
                    "midi": 91,
                    "time": 202.5219030000087,
                    "velocity": 0.5826771653543307,
                    "duration": 0.08797649999999635
                },
                {
                    "name": "A5",
                    "midi": 81,
                    "time": 202.6098795000087,
                    "velocity": 0.5275590551181102,
                    "duration": 0.08797649999999635
                },
                {
                    "name": "F#6",
                    "midi": 90,
                    "time": 202.6098795000087,
                    "velocity": 0.5275590551181102,
                    "duration": 0.08797649999999635
                },
                {
                    "name": "A6",
                    "midi": 93,
                    "time": 202.6098795000087,
                    "velocity": 0.6220472440944882,
                    "duration": 0.08797649999999635
                },
                {
                    "name": "A#6",
                    "midi": 94,
                    "time": 202.6978560000087,
                    "velocity": 0.6929133858267716,
                    "duration": 0.1759529999999927
                },
                {
                    "name": "A#5",
                    "midi": 82,
                    "time": 202.6978560000087,
                    "velocity": 0.5826771653543307,
                    "duration": 0.1759529999999927
                },
                {
                    "name": "G6",
                    "midi": 91,
                    "time": 202.6978560000087,
                    "velocity": 0.5826771653543307,
                    "duration": 0.1759529999999927
                },
                {
                    "name": "F6",
                    "midi": 89,
                    "time": 202.8738090000087,
                    "velocity": 0.5669291338582677,
                    "duration": 0.08797649999999635
                },
                {
                    "name": "F5",
                    "midi": 77,
                    "time": 202.8738090000087,
                    "velocity": 0.48031496062992124,
                    "duration": 0.08797649999999635
                },
                {
                    "name": "G#5",
                    "midi": 80,
                    "time": 202.8738090000087,
                    "velocity": 0.48031496062992124,
                    "duration": 0.08797649999999635
                },
                {
                    "name": "G6",
                    "midi": 91,
                    "time": 202.9617855000087,
                    "velocity": 0.5826771653543307,
                    "duration": 0.08797649999999635
                },
                {
                    "name": "G5",
                    "midi": 79,
                    "time": 202.9617855000087,
                    "velocity": 0.4881889763779528,
                    "duration": 0.08797649999999635
                },
                {
                    "name": "A#5",
                    "midi": 82,
                    "time": 202.9617855000087,
                    "velocity": 0.4881889763779528,
                    "duration": 0.08797649999999635
                },
                {
                    "name": "G#6",
                    "midi": 92,
                    "time": 203.04976200000868,
                    "velocity": 0.6062992125984252,
                    "duration": 0.08797649999999635
                },
                {
                    "name": "G#5",
                    "midi": 80,
                    "time": 203.04976200000868,
                    "velocity": 0.5039370078740157,
                    "duration": 0.08797649999999635
                },
                {
                    "name": "B5",
                    "midi": 83,
                    "time": 203.04976200000868,
                    "velocity": 0.5039370078740157,
                    "duration": 0.08797649999999635
                },
                {
                    "name": "C6",
                    "midi": 84,
                    "time": 203.13773850000868,
                    "velocity": 0.5275590551181102,
                    "duration": 0.08797649999999635
                },
                {
                    "name": "A6",
                    "midi": 93,
                    "time": 203.13773850000868,
                    "velocity": 0.6220472440944882,
                    "duration": 0.08797649999999635
                },
                {
                    "name": "A5",
                    "midi": 81,
                    "time": 203.13773850000868,
                    "velocity": 0.5275590551181102,
                    "duration": 0.08797649999999635
                },
                {
                    "name": "A#6",
                    "midi": 94,
                    "time": 203.22571500000868,
                    "velocity": 0.6377952755905512,
                    "duration": 0.08797649999999635
                },
                {
                    "name": "C#6",
                    "midi": 85,
                    "time": 203.22571500000868,
                    "velocity": 0.5354330708661418,
                    "duration": 0.08797649999999635
                },
                {
                    "name": "A#5",
                    "midi": 82,
                    "time": 203.22571500000868,
                    "velocity": 0.5354330708661418,
                    "duration": 0.08797649999999635
                },
                {
                    "name": "B6",
                    "midi": 95,
                    "time": 203.31369150000867,
                    "velocity": 0.6535433070866141,
                    "duration": 0.08797649999999635
                },
                {
                    "name": "B5",
                    "midi": 83,
                    "time": 203.31369150000867,
                    "velocity": 0.5511811023622047,
                    "duration": 0.08797649999999635
                },
                {
                    "name": "D6",
                    "midi": 86,
                    "time": 203.31369150000867,
                    "velocity": 0.5511811023622047,
                    "duration": 0.08797649999999635
                },
                {
                    "name": "C7",
                    "midi": 96,
                    "time": 203.40166800000867,
                    "velocity": 0.6692913385826772,
                    "duration": 0.08797649999999635
                },
                {
                    "name": "C6",
                    "midi": 84,
                    "time": 203.40166800000867,
                    "velocity": 0.5669291338582677,
                    "duration": 0.08797649999999635
                },
                {
                    "name": "D#6",
                    "midi": 87,
                    "time": 203.40166800000867,
                    "velocity": 0.5669291338582677,
                    "duration": 0.08797649999999635
                },
                {
                    "name": "D7",
                    "midi": 98,
                    "time": 203.48964450000867,
                    "velocity": 0.6771653543307087,
                    "duration": 0.08797649999999635
                },
                {
                    "name": "D6",
                    "midi": 86,
                    "time": 203.48964450000867,
                    "velocity": 0.5748031496062992,
                    "duration": 0.08797649999999635
                },
                {
                    "name": "F6",
                    "midi": 89,
                    "time": 203.48964450000867,
                    "velocity": 0.5748031496062992,
                    "duration": 0.08797649999999635
                },
                {
                    "name": "D#7",
                    "midi": 99,
                    "time": 203.57762100000866,
                    "velocity": 0.7007874015748031,
                    "duration": 0.043988250000012385
                },
                {
                    "name": "D#6",
                    "midi": 87,
                    "time": 203.57762100000866,
                    "velocity": 0.5826771653543307,
                    "duration": 0.043988250000012385
                },
                {
                    "name": "G6",
                    "midi": 91,
                    "time": 203.57762100000866,
                    "velocity": 0.5826771653543307,
                    "duration": 0.043988250000012385
                },
                {
                    "name": "D#5",
                    "midi": 75,
                    "time": 203.75357400000868,
                    "velocity": 0.5354330708661418,
                    "duration": 0.3519060000000138
                },
                {
                    "name": "G5",
                    "midi": 79,
                    "time": 203.75357400000868,
                    "velocity": 0.5354330708661418,
                    "duration": 0.3519060000000138
                },
                {
                    "name": "D#6",
                    "midi": 87,
                    "time": 203.75357400000868,
                    "velocity": 0.6377952755905512,
                    "duration": 0.3519060000000138
                },
                {
                    "name": "D#5",
                    "midi": 75,
                    "time": 204.1054800000087,
                    "velocity": 0.48031496062992124,
                    "duration": 0.08797649999999635
                },
                {
                    "name": "G5",
                    "midi": 79,
                    "time": 204.1054800000087,
                    "velocity": 0.48031496062992124,
                    "duration": 0.08797649999999635
                },
                {
                    "name": "D#6",
                    "midi": 87,
                    "time": 204.1054800000087,
                    "velocity": 0.5669291338582677,
                    "duration": 0.08797649999999635
                },
                {
                    "name": "D4",
                    "midi": 62,
                    "time": 204.2814330000087,
                    "velocity": 0.4015748031496063,
                    "duration": 0.08797650000002477
                },
                {
                    "name": "F4",
                    "midi": 65,
                    "time": 204.2814330000087,
                    "velocity": 0.49606299212598426,
                    "duration": 0.043988250000012385
                },
                {
                    "name": "G4",
                    "midi": 67,
                    "time": 204.36940950000871,
                    "velocity": 0.4645669291338583,
                    "duration": 0.043988250000012385
                },
                {
                    "name": "D4",
                    "midi": 62,
                    "time": 204.45738600000874,
                    "velocity": 0.4094488188976378,
                    "duration": 0.3519060000000991
                },
                {
                    "name": "G#4",
                    "midi": 68,
                    "time": 204.45738600000874,
                    "velocity": 0.4645669291338583,
                    "duration": 0.043988250000012385
                },
                {
                    "name": "C5",
                    "midi": 72,
                    "time": 204.54536250000876,
                    "velocity": 0.4645669291338583,
                    "duration": 0.043988250000012385
                },
                {
                    "name": "A#4",
                    "midi": 70,
                    "time": 204.6333390000088,
                    "velocity": 0.5039370078740157,
                    "duration": 0.043988250000012385
                },
                {
                    "name": "G#4",
                    "midi": 68,
                    "time": 204.7213155000088,
                    "velocity": 0.4330708661417323,
                    "duration": 0.043988250000012385
                },
                {
                    "name": "D4",
                    "midi": 62,
                    "time": 204.80929200000884,
                    "velocity": 0.3937007874015748,
                    "duration": 0.08797650000002477
                },
                {
                    "name": "G4",
                    "midi": 67,
                    "time": 204.80929200000884,
                    "velocity": 0.4409448818897638,
                    "duration": 0.043988250000012385
                },
                {
                    "name": "F4",
                    "midi": 65,
                    "time": 204.89726850000886,
                    "velocity": 0.44881889763779526,
                    "duration": 0.043988250000012385
                },
                {
                    "name": "A#4",
                    "midi": 70,
                    "time": 204.9852450000089,
                    "velocity": 0.49606299212598426,
                    "duration": 0.043988250000012385
                },
                {
                    "name": "G4",
                    "midi": 67,
                    "time": 204.9852450000089,
                    "velocity": 0.41732283464566927,
                    "duration": 0.043988250000012385
                },
                {
                    "name": "C5",
                    "midi": 72,
                    "time": 205.1392038750089,
                    "velocity": 0.44881889763779526,
                    "duration": 0.021994124999991982
                },
                {
                    "name": "G4",
                    "midi": 67,
                    "time": 205.16119800000888,
                    "velocity": 0.41732283464566927,
                    "duration": 0.043988250000012385
                },
                {
                    "name": "A#4",
                    "midi": 70,
                    "time": 205.16119800000888,
                    "velocity": 0.49606299212598426,
                    "duration": 0.043988250000012385
                },
                {
                    "name": "F#4",
                    "midi": 66,
                    "time": 205.2931627500089,
                    "velocity": 0.3700787401574803,
                    "duration": 0.043988250000012385
                },
                {
                    "name": "A4",
                    "midi": 69,
                    "time": 205.2931627500089,
                    "velocity": 0.4409448818897638,
                    "duration": 0.043988250000012385
                },
                {
                    "name": "G4",
                    "midi": 67,
                    "time": 205.3371510000089,
                    "velocity": 0.4094488188976378,
                    "duration": 0.3519060000000138
                },
                {
                    "name": "A#4",
                    "midi": 70,
                    "time": 205.3371510000089,
                    "velocity": 0.4881889763779528,
                    "duration": 0.3519060000000138
                },
                {
                    "name": "C4",
                    "midi": 60,
                    "time": 205.68905700000892,
                    "velocity": 0.4015748031496063,
                    "duration": 0.08797650000002477
                },
                {
                    "name": "F4",
                    "midi": 65,
                    "time": 205.68905700000892,
                    "velocity": 0.49606299212598426,
                    "duration": 0.043988250000012385
                },
                {
                    "name": "G4",
                    "midi": 67,
                    "time": 205.77703350000894,
                    "velocity": 0.4645669291338583,
                    "duration": 0.043988250000012385
                },
                {
                    "name": "C4",
                    "midi": 60,
                    "time": 205.86501000000897,
                    "velocity": 0.4094488188976378,
                    "duration": 0.3519060000000991
                },
                {
                    "name": "G#4",
                    "midi": 68,
                    "time": 205.86501000000897,
                    "velocity": 0.4645669291338583,
                    "duration": 0.043988250000012385
                },
                {
                    "name": "C5",
                    "midi": 72,
                    "time": 205.952986500009,
                    "velocity": 0.4645669291338583,
                    "duration": 0.043988250000012385
                },
                {
                    "name": "A#4",
                    "midi": 70,
                    "time": 206.04096300000901,
                    "velocity": 0.5039370078740157,
                    "duration": 0.043988250000012385
                },
                {
                    "name": "G#4",
                    "midi": 68,
                    "time": 206.12893950000904,
                    "velocity": 0.4330708661417323,
                    "duration": 0.043988250000012385
                },
                {
                    "name": "D4",
                    "midi": 62,
                    "time": 206.21691600000906,
                    "velocity": 0.3937007874015748,
                    "duration": 0.08797650000002477
                },
                {
                    "name": "G4",
                    "midi": 67,
                    "time": 206.21691600000906,
                    "velocity": 0.4409448818897638,
                    "duration": 0.043988250000012385
                },
                {
                    "name": "F4",
                    "midi": 65,
                    "time": 206.3048925000091,
                    "velocity": 0.44881889763779526,
                    "duration": 0.043988250000012385
                },
                {
                    "name": "G4",
                    "midi": 67,
                    "time": 206.3928690000091,
                    "velocity": 0.49606299212598426,
                    "duration": 0.043988250000012385
                },
                {
                    "name": "D#4",
                    "midi": 63,
                    "time": 206.3928690000091,
                    "velocity": 0.41732283464566927,
                    "duration": 0.043988250000012385
                },
                {
                    "name": "A#3",
                    "midi": 58,
                    "time": 206.56882200000913,
                    "velocity": 0.36220472440944884,
                    "duration": 0.3519059999999854
                },
                {
                    "name": "D#4",
                    "midi": 63,
                    "time": 206.56882200000913,
                    "velocity": 0.4094488188976378,
                    "duration": 0.3519059999999854
                },
                {
                    "name": "D4",
                    "midi": 62,
                    "time": 206.89873387500913,
                    "velocity": 0.36220472440944884,
                    "duration": 0.021994124999991982
                },
                {
                    "name": "A#3",
                    "midi": 58,
                    "time": 206.92072800000912,
                    "velocity": 0.41732283464566927,
                    "duration": 0.08797649999999635
                },
                {
                    "name": "D#4",
                    "midi": 63,
                    "time": 206.92072800000912,
                    "velocity": 0.49606299212598426,
                    "duration": 0.08797649999999635
                },
                {
                    "name": "F4",
                    "midi": 65,
                    "time": 207.0966810000091,
                    "velocity": 0.41732283464566927,
                    "duration": 0.043988250000012385
                },
                {
                    "name": "F5",
                    "midi": 77,
                    "time": 207.0966810000091,
                    "velocity": 0.49606299212598426,
                    "duration": 0.043988250000012385
                },
                {
                    "name": "G4",
                    "midi": 67,
                    "time": 207.18465750000914,
                    "velocity": 0.3937007874015748,
                    "duration": 0.043988250000012385
                },
                {
                    "name": "G5",
                    "midi": 79,
                    "time": 207.18465750000914,
                    "velocity": 0.4645669291338583,
                    "duration": 0.043988250000012385
                },
                {
                    "name": "G#4",
                    "midi": 68,
                    "time": 207.27263400000916,
                    "velocity": 0.3937007874015748,
                    "duration": 0.043988250000012385
                },
                {
                    "name": "G#5",
                    "midi": 80,
                    "time": 207.27263400000916,
                    "velocity": 0.4645669291338583,
                    "duration": 0.043988250000012385
                },
                {
                    "name": "C5",
                    "midi": 72,
                    "time": 207.3606105000092,
                    "velocity": 0.3937007874015748,
                    "duration": 0.043988250000012385
                },
                {
                    "name": "C6",
                    "midi": 84,
                    "time": 207.3606105000092,
                    "velocity": 0.4645669291338583,
                    "duration": 0.043988250000012385
                },
                {
                    "name": "A#4",
                    "midi": 70,
                    "time": 207.4485870000092,
                    "velocity": 0.4251968503937008,
                    "duration": 0.043988250000012385
                },
                {
                    "name": "A#5",
                    "midi": 82,
                    "time": 207.4485870000092,
                    "velocity": 0.5039370078740157,
                    "duration": 0.043988250000012385
                },
                {
                    "name": "G#4",
                    "midi": 68,
                    "time": 207.53656350000924,
                    "velocity": 0.36220472440944884,
                    "duration": 0.043988250000012385
                },
                {
                    "name": "G#5",
                    "midi": 80,
                    "time": 207.53656350000924,
                    "velocity": 0.4330708661417323,
                    "duration": 0.043988250000012385
                },
                {
                    "name": "G4",
                    "midi": 67,
                    "time": 207.62454000000926,
                    "velocity": 0.3700787401574803,
                    "duration": 0.043988250000012385
                },
                {
                    "name": "G5",
                    "midi": 79,
                    "time": 207.62454000000926,
                    "velocity": 0.4409448818897638,
                    "duration": 0.043988250000012385
                },
                {
                    "name": "F4",
                    "midi": 65,
                    "time": 207.7125165000093,
                    "velocity": 0.3779527559055118,
                    "duration": 0.043988250000012385
                },
                {
                    "name": "F5",
                    "midi": 77,
                    "time": 207.7125165000093,
                    "velocity": 0.44881889763779526,
                    "duration": 0.043988250000012385
                },
                {
                    "name": "A#5",
                    "midi": 82,
                    "time": 207.8004930000093,
                    "velocity": 0.49606299212598426,
                    "duration": 0.043988250000012385
                },
                {
                    "name": "A#4",
                    "midi": 70,
                    "time": 207.8004930000093,
                    "velocity": 0.41732283464566927,
                    "duration": 0.043988250000012385
                },
                {
                    "name": "C6",
                    "midi": 84,
                    "time": 207.9544518750093,
                    "velocity": 0.44881889763779526,
                    "duration": 0.021994124999991982
                },
                {
                    "name": "A#4",
                    "midi": 70,
                    "time": 207.9764460000093,
                    "velocity": 0.41732283464566927,
                    "duration": 0.043988250000012385
                },
                {
                    "name": "A#5",
                    "midi": 82,
                    "time": 207.9764460000093,
                    "velocity": 0.49606299212598426,
                    "duration": 0.043988250000012385
                },
                {
                    "name": "A4",
                    "midi": 69,
                    "time": 208.1084107500093,
                    "velocity": 0.3700787401574803,
                    "duration": 0.043988250000012385
                },
                {
                    "name": "A5",
                    "midi": 81,
                    "time": 208.1084107500093,
                    "velocity": 0.4409448818897638,
                    "duration": 0.043988250000012385
                },
                {
                    "name": "A#4",
                    "midi": 70,
                    "time": 208.15239900000932,
                    "velocity": 0.4094488188976378,
                    "duration": 0.3519060000000138
                },
                {
                    "name": "A#5",
                    "midi": 82,
                    "time": 208.15239900000932,
                    "velocity": 0.4881889763779528,
                    "duration": 0.3519060000000138
                },
                {
                    "name": "F4",
                    "midi": 65,
                    "time": 208.50430500000934,
                    "velocity": 0.41732283464566927,
                    "duration": 0.043988250000012385
                },
                {
                    "name": "F5",
                    "midi": 77,
                    "time": 208.50430500000934,
                    "velocity": 0.49606299212598426,
                    "duration": 0.043988250000012385
                },
                {
                    "name": "G4",
                    "midi": 67,
                    "time": 208.59228150000936,
                    "velocity": 0.3937007874015748,
                    "duration": 0.043988250000012385
                },
                {
                    "name": "G5",
                    "midi": 79,
                    "time": 208.59228150000936,
                    "velocity": 0.4645669291338583,
                    "duration": 0.043988250000012385
                },
                {
                    "name": "G#4",
                    "midi": 68,
                    "time": 208.6802580000094,
                    "velocity": 0.3937007874015748,
                    "duration": 0.043988250000012385
                },
                {
                    "name": "G#5",
                    "midi": 80,
                    "time": 208.6802580000094,
                    "velocity": 0.4645669291338583,
                    "duration": 0.043988250000012385
                },
                {
                    "name": "C5",
                    "midi": 72,
                    "time": 208.7682345000094,
                    "velocity": 0.3937007874015748,
                    "duration": 0.043988250000012385
                },
                {
                    "name": "C6",
                    "midi": 84,
                    "time": 208.7682345000094,
                    "velocity": 0.4645669291338583,
                    "duration": 0.043988250000012385
                },
                {
                    "name": "A#4",
                    "midi": 70,
                    "time": 208.85621100000944,
                    "velocity": 0.4251968503937008,
                    "duration": 0.043988250000012385
                },
                {
                    "name": "A#5",
                    "midi": 82,
                    "time": 208.85621100000944,
                    "velocity": 0.5039370078740157,
                    "duration": 0.043988250000012385
                },
                {
                    "name": "G#4",
                    "midi": 68,
                    "time": 208.94418750000946,
                    "velocity": 0.36220472440944884,
                    "duration": 0.043988250000012385
                },
                {
                    "name": "G#5",
                    "midi": 80,
                    "time": 208.94418750000946,
                    "velocity": 0.4330708661417323,
                    "duration": 0.043988250000012385
                },
                {
                    "name": "G4",
                    "midi": 67,
                    "time": 209.0321640000095,
                    "velocity": 0.3700787401574803,
                    "duration": 0.043988250000012385
                },
                {
                    "name": "G5",
                    "midi": 79,
                    "time": 209.0321640000095,
                    "velocity": 0.4409448818897638,
                    "duration": 0.043988250000012385
                },
                {
                    "name": "F4",
                    "midi": 65,
                    "time": 209.1201405000095,
                    "velocity": 0.3779527559055118,
                    "duration": 0.043988250000012385
                },
                {
                    "name": "F5",
                    "midi": 77,
                    "time": 209.1201405000095,
                    "velocity": 0.44881889763779526,
                    "duration": 0.043988250000012385
                },
                {
                    "name": "G5",
                    "midi": 79,
                    "time": 209.20811700000954,
                    "velocity": 0.49606299212598426,
                    "duration": 0.043988250000012385
                },
                {
                    "name": "G4",
                    "midi": 67,
                    "time": 209.20811700000954,
                    "velocity": 0.41732283464566927,
                    "duration": 0.043988250000012385
                },
                {
                    "name": "D#4",
                    "midi": 63,
                    "time": 209.38407000000956,
                    "velocity": 0.36220472440944884,
                    "duration": 0.3519059999999854
                },
                {
                    "name": "D#5",
                    "midi": 75,
                    "time": 209.38407000000956,
                    "velocity": 0.4094488188976378,
                    "duration": 0.3519059999999854
                },
                {
                    "name": "D5",
                    "midi": 74,
                    "time": 209.71398187500955,
                    "velocity": 0.36220472440944884,
                    "duration": 0.021994124999991982
                },
                {
                    "name": "D#4",
                    "midi": 63,
                    "time": 209.73597600000954,
                    "velocity": 0.41732283464566927,
                    "duration": 0.08797649999999635
                },
                {
                    "name": "D#5",
                    "midi": 75,
                    "time": 209.73597600000954,
                    "velocity": 0.49606299212598426,
                    "duration": 0.08797649999999635
                },
                {
                    "name": "F#4",
                    "midi": 66,
                    "time": 209.88993487500954,
                    "velocity": 0.28346456692913385,
                    "duration": 0.021994124999991982
                },
                {
                    "name": "G4",
                    "midi": 67,
                    "time": 209.91192900000954,
                    "velocity": 0.3937007874015748,
                    "duration": 0.043988250000012385
                },
                {
                    "name": "B3",
                    "midi": 59,
                    "time": 209.91192900000954,
                    "velocity": 0.33070866141732286,
                    "duration": 0.043988250000012385
                },
                {
                    "name": "C4",
                    "midi": 60,
                    "time": 210.08788200000956,
                    "velocity": 0.28346456692913385,
                    "duration": 0.3519059999999854
                },
                {
                    "name": "D#4",
                    "midi": 63,
                    "time": 210.08788200000956,
                    "velocity": 0.3228346456692913,
                    "duration": 0.3519059999999854
                },
                {
                    "name": "D4",
                    "midi": 62,
                    "time": 210.41779387500955,
                    "velocity": 0.28346456692913385,
                    "duration": 0.021994124999991982
                },
                {
                    "name": "B3",
                    "midi": 59,
                    "time": 210.43978800000954,
                    "velocity": 0.33070866141732286,
                    "duration": 0.08797649999999635
                },
                {
                    "name": "D#4",
                    "midi": 63,
                    "time": 210.43978800000954,
                    "velocity": 0.3937007874015748,
                    "duration": 0.08797649999999635
                },
                {
                    "name": "G6",
                    "midi": 91,
                    "time": 210.61574100000954,
                    "velocity": 0.3937007874015748,
                    "duration": 0.043988250000012385
                },
                {
                    "name": "G5",
                    "midi": 79,
                    "time": 210.61574100000954,
                    "velocity": 0.33070866141732286,
                    "duration": 0.043988250000012385
                },
                {
                    "name": "D#5",
                    "midi": 75,
                    "time": 210.79169400000956,
                    "velocity": 0.28346456692913385,
                    "duration": 0.3519059999999854
                },
                {
                    "name": "D#6",
                    "midi": 87,
                    "time": 210.79169400000956,
                    "velocity": 0.3228346456692913,
                    "duration": 0.3519059999999854
                },
                {
                    "name": "D6",
                    "midi": 86,
                    "time": 211.12160587500955,
                    "velocity": 0.28346456692913385,
                    "duration": 0.021994124999991982
                },
                {
                    "name": "D#5",
                    "midi": 75,
                    "time": 211.14360000000954,
                    "velocity": 0.33070866141732286,
                    "duration": 0.08797649999999635
                },
                {
                    "name": "D#6",
                    "midi": 87,
                    "time": 211.14360000000954,
                    "velocity": 0.3937007874015748,
                    "duration": 0.08797649999999635
                },
                {
                    "name": "F#4",
                    "midi": 66,
                    "time": 211.29755887500954,
                    "velocity": 0.28346456692913385,
                    "duration": 0.021994124999991982
                },
                {
                    "name": "G4",
                    "midi": 67,
                    "time": 211.31955300000953,
                    "velocity": 0.3937007874015748,
                    "duration": 0.043988250000012385
                },
                {
                    "name": "B3",
                    "midi": 59,
                    "time": 211.31955300000953,
                    "velocity": 0.33070866141732286,
                    "duration": 0.043988250000012385
                },
                {
                    "name": "C4",
                    "midi": 60,
                    "time": 211.49550600000956,
                    "velocity": 0.28346456692913385,
                    "duration": 0.3519059999999854
                },
                {
                    "name": "D#4",
                    "midi": 63,
                    "time": 211.49550600000956,
                    "velocity": 0.3228346456692913,
                    "duration": 0.3519059999999854
                },
                {
                    "name": "D4",
                    "midi": 62,
                    "time": 211.82541787500955,
                    "velocity": 0.28346456692913385,
                    "duration": 0.021994124999991982
                },
                {
                    "name": "B3",
                    "midi": 59,
                    "time": 211.84741200000954,
                    "velocity": 0.33070866141732286,
                    "duration": 0.08797649999999635
                },
                {
                    "name": "D#4",
                    "midi": 63,
                    "time": 211.84741200000954,
                    "velocity": 0.3937007874015748,
                    "duration": 0.08797649999999635
                },
                {
                    "name": "G3",
                    "midi": 55,
                    "time": 212.02336500000953,
                    "velocity": 0.33070866141732286,
                    "duration": 0.043988250000012385
                },
                {
                    "name": "G4",
                    "midi": 67,
                    "time": 212.02336500000953,
                    "velocity": 0.3937007874015748,
                    "duration": 0.043988250000012385
                },
                {
                    "name": "A#3",
                    "midi": 58,
                    "time": 212.02336500000953,
                    "velocity": 0.33070866141732286,
                    "duration": 0.043988250000012385
                },
                {
                    "name": "G3",
                    "midi": 55,
                    "time": 212.19931800000955,
                    "velocity": 0.28346456692913385,
                    "duration": 0.3519059999999854
                },
                {
                    "name": "C4",
                    "midi": 60,
                    "time": 212.19931800000955,
                    "velocity": 0.28346456692913385,
                    "duration": 0.3519059999999854
                },
                {
                    "name": "D#4",
                    "midi": 63,
                    "time": 212.19931800000955,
                    "velocity": 0.3228346456692913,
                    "duration": 0.3519059999999854
                },
                {
                    "name": "D4",
                    "midi": 62,
                    "time": 212.52922987500955,
                    "velocity": 0.28346456692913385,
                    "duration": 0.021994124999991982
                },
                {
                    "name": "G#3",
                    "midi": 56,
                    "time": 212.55122400000954,
                    "velocity": 0.33070866141732286,
                    "duration": 0.08797649999999635
                },
                {
                    "name": "B3",
                    "midi": 59,
                    "time": 212.55122400000954,
                    "velocity": 0.33070866141732286,
                    "duration": 0.08797649999999635
                },
                {
                    "name": "D#4",
                    "midi": 63,
                    "time": 212.55122400000954,
                    "velocity": 0.3937007874015748,
                    "duration": 0.08797649999999635
                },
                {
                    "name": "G3",
                    "midi": 55,
                    "time": 212.72717700000953,
                    "velocity": 0.33070866141732286,
                    "duration": 0.043988250000012385
                },
                {
                    "name": "G4",
                    "midi": 67,
                    "time": 212.72717700000953,
                    "velocity": 0.3937007874015748,
                    "duration": 0.043988250000012385
                },
                {
                    "name": "A#3",
                    "midi": 58,
                    "time": 212.72717700000953,
                    "velocity": 0.33070866141732286,
                    "duration": 0.043988250000012385
                },
                {
                    "name": "G3",
                    "midi": 55,
                    "time": 212.90313000000955,
                    "velocity": 0.28346456692913385,
                    "duration": 0.3519059999999854
                },
                {
                    "name": "C4",
                    "midi": 60,
                    "time": 212.90313000000955,
                    "velocity": 0.28346456692913385,
                    "duration": 0.3519059999999854
                },
                {
                    "name": "D#4",
                    "midi": 63,
                    "time": 212.90313000000955,
                    "velocity": 0.3228346456692913,
                    "duration": 0.3519059999999854
                },
                {
                    "name": "D4",
                    "midi": 62,
                    "time": 213.23304187500955,
                    "velocity": 0.28346456692913385,
                    "duration": 0.021994124999991982
                },
                {
                    "name": "G#3",
                    "midi": 56,
                    "time": 213.25503600000954,
                    "velocity": 0.33070866141732286,
                    "duration": 0.08797649999999635
                },
                {
                    "name": "B3",
                    "midi": 59,
                    "time": 213.25503600000954,
                    "velocity": 0.33070866141732286,
                    "duration": 0.08797649999999635
                },
                {
                    "name": "D#4",
                    "midi": 63,
                    "time": 213.25503600000954,
                    "velocity": 0.3937007874015748,
                    "duration": 0.08797649999999635
                },
                {
                    "name": "G3",
                    "midi": 55,
                    "time": 213.43098900000953,
                    "velocity": 0.30708661417322836,
                    "duration": 0.3519060000000138
                },
                {
                    "name": "G4",
                    "midi": 67,
                    "time": 213.43098900000953,
                    "velocity": 0.36220472440944884,
                    "duration": 0.3519060000000138
                },
                {
                    "name": "A#3",
                    "midi": 58,
                    "time": 213.43098900000953,
                    "velocity": 0.30708661417322836,
                    "duration": 0.3519060000000138
                },
                {
                    "name": "G3",
                    "midi": 55,
                    "time": 213.78289500000955,
                    "velocity": 0.25984251968503935,
                    "duration": 0.3519060000000138
                },
                {
                    "name": "C4",
                    "midi": 60,
                    "time": 213.78289500000955,
                    "velocity": 0.25984251968503935,
                    "duration": 0.3519060000000138
                },
                {
                    "name": "D#4",
                    "midi": 63,
                    "time": 213.78289500000955,
                    "velocity": 0.30708661417322836,
                    "duration": 0.3519060000000138
                },
                {
                    "name": "D4",
                    "midi": 62,
                    "time": 214.46471287500955,
                    "velocity": 0.28346456692913385,
                    "duration": 0.021994124999991982
                },
                {
                    "name": "G#3",
                    "midi": 56,
                    "time": 214.48670700000955,
                    "velocity": 0.25984251968503935,
                    "duration": 0.30791775000000143
                },
                {
                    "name": "B3",
                    "midi": 59,
                    "time": 214.48670700000955,
                    "velocity": 0.25984251968503935,
                    "duration": 0.30791775000000143
                },
                {
                    "name": "D#4",
                    "midi": 63,
                    "time": 214.48670700000955,
                    "velocity": 0.30708661417322836,
                    "duration": 0.30791775000000143
                },
                {
                    "name": "G3",
                    "midi": 55,
                    "time": 214.79462475000955,
                    "velocity": 0.29133858267716534,
                    "duration": 0.7478002499999832
                },
                {
                    "name": "D#4",
                    "midi": 63,
                    "time": 214.81661887500954,
                    "velocity": 0.30708661417322836,
                    "duration": 0.7258061249999912
                },
                {
                    "name": "A#4",
                    "midi": 70,
                    "time": 214.83861300000953,
                    "velocity": 0.31496062992125984,
                    "duration": 0.7038119999999992
                },
                {
                    "name": "D#4",
                    "midi": 63,
                    "time": 215.80635450000952,
                    "velocity": 0.2204724409448819,
                    "duration": 0.08797649999999635
                },
                {
                    "name": "G4",
                    "midi": 67,
                    "time": 215.89433100000952,
                    "velocity": 0.2204724409448819,
                    "duration": 0.08797649999999635
                },
                {
                    "name": "G#4",
                    "midi": 68,
                    "time": 215.9823075000095,
                    "velocity": 0.2125984251968504,
                    "duration": 0.08797649999999635
                },
                {
                    "name": "A4",
                    "midi": 69,
                    "time": 216.0702840000095,
                    "velocity": 0.2047244094488189,
                    "duration": 0.08797649999999635
                },
                {
                    "name": "A#4",
                    "midi": 70,
                    "time": 216.1582605000095,
                    "velocity": 0.1968503937007874,
                    "duration": 0.08797649999999635
                },
                {
                    "name": "D#5",
                    "midi": 75,
                    "time": 216.2462370000095,
                    "velocity": 0.2125984251968504,
                    "duration": 0.08797649999999635
                },
                {
                    "name": "G5",
                    "midi": 79,
                    "time": 216.3342135000095,
                    "velocity": 0.2125984251968504,
                    "duration": 0.08797649999999635
                },
                {
                    "name": "G#5",
                    "midi": 80,
                    "time": 216.4221900000095,
                    "velocity": 0.2125984251968504,
                    "duration": 0.08797649999999635
                },
                {
                    "name": "A5",
                    "midi": 81,
                    "time": 216.5101665000095,
                    "velocity": 0.2125984251968504,
                    "duration": 0.08797649999999635
                },
                {
                    "name": "A#5",
                    "midi": 82,
                    "time": 216.5981430000095,
                    "velocity": 0.2125984251968504,
                    "duration": 0.08797649999999635
                },
                {
                    "name": "D#6",
                    "midi": 87,
                    "time": 216.68611950000948,
                    "velocity": 0.2125984251968504,
                    "duration": 0.08797649999999635
                },
                {
                    "name": "G6",
                    "midi": 91,
                    "time": 216.77409600000948,
                    "velocity": 0.2125984251968504,
                    "duration": 0.08797649999999635
                },
                {
                    "name": "G#6",
                    "midi": 92,
                    "time": 216.86207250000948,
                    "velocity": 0.2125984251968504,
                    "duration": 0.08797649999999635
                },
                {
                    "name": "A6",
                    "midi": 93,
                    "time": 216.95004900000947,
                    "velocity": 0.2125984251968504,
                    "duration": 0.08797649999999635
                },
                {
                    "name": "A#6",
                    "midi": 94,
                    "time": 217.03802550000947,
                    "velocity": 0.2125984251968504,
                    "duration": 0.08797649999999635
                },
                {
                    "name": "D#7",
                    "midi": 99,
                    "time": 217.12600200000946,
                    "velocity": 0.25984251968503935,
                    "duration": 0.08797649999999635
                },
                {
                    "name": "A#4",
                    "midi": 70,
                    "time": 218.35767300000947,
                    "velocity": 0.6377952755905512,
                    "duration": 0.26392949999998905
                },
                {
                    "name": "A#5",
                    "midi": 82,
                    "time": 218.35767300000947,
                    "velocity": 0.7559055118110236,
                    "duration": 0.26392949999998905
                },
                {
                    "name": "A#4",
                    "midi": 70,
                    "time": 218.70957900000946,
                    "velocity": 0.6062992125984252,
                    "duration": 0.06598237500000437
                },
                {
                    "name": "A#5",
                    "midi": 82,
                    "time": 218.70957900000946,
                    "velocity": 0.7165354330708661,
                    "duration": 0.06598237500000437
                },
                {
                    "name": "A#4",
                    "midi": 70,
                    "time": 218.88553200000945,
                    "velocity": 0.6062992125984252,
                    "duration": 0.06598237500000437
                },
                {
                    "name": "A#5",
                    "midi": 82,
                    "time": 218.88553200000945,
                    "velocity": 0.7165354330708661,
                    "duration": 0.06598237500000437
                },
                {
                    "name": "D#5",
                    "midi": 75,
                    "time": 219.06148500000944,
                    "velocity": 0.6692913385826772,
                    "duration": 0.5278590000000065
                },
                {
                    "name": "D#6",
                    "midi": 87,
                    "time": 219.06148500000944,
                    "velocity": 0.7952755905511811,
                    "duration": 0.5278590000000065
                },
                {
                    "name": "D#5",
                    "midi": 75,
                    "time": 219.58934400000945,
                    "velocity": 0.5826771653543307,
                    "duration": 0.06598237500000437
                },
                {
                    "name": "D#6",
                    "midi": 87,
                    "time": 219.58934400000945,
                    "velocity": 0.7007874015748031,
                    "duration": 0.06598237500000437
                },
                {
                    "name": "C#5",
                    "midi": 73,
                    "time": 219.76529700000944,
                    "velocity": 0.6220472440944882,
                    "duration": 0.06598237500000437
                },
                {
                    "name": "C#6",
                    "midi": 85,
                    "time": 219.76529700000944,
                    "velocity": 0.7322834645669292,
                    "duration": 0.06598237500000437
                },
                {
                    "name": "B4",
                    "midi": 71,
                    "time": 219.94125000000943,
                    "velocity": 0.6220472440944882,
                    "duration": 0.06598237500000437
                },
                {
                    "name": "B5",
                    "midi": 83,
                    "time": 219.94125000000943,
                    "velocity": 0.7322834645669292,
                    "duration": 0.06598237500000437
                },
                {
                    "name": "A#4",
                    "midi": 70,
                    "time": 220.11720300000943,
                    "velocity": 0.6141732283464567,
                    "duration": 0.06598237500000437
                },
                {
                    "name": "A#5",
                    "midi": 82,
                    "time": 220.11720300000943,
                    "velocity": 0.7244094488188977,
                    "duration": 0.06598237500000437
                },
                {
                    "name": "G#4",
                    "midi": 68,
                    "time": 220.29315600000942,
                    "velocity": 0.6377952755905512,
                    "duration": 0.06598237500000437
                },
                {
                    "name": "G#5",
                    "midi": 80,
                    "time": 220.29315600000942,
                    "velocity": 0.7559055118110236,
                    "duration": 0.06598237500000437
                },
                {
                    "name": "A#4",
                    "midi": 70,
                    "time": 220.4691090000094,
                    "velocity": 0.6299212598425197,
                    "duration": 0.06598237500000437
                },
                {
                    "name": "A#5",
                    "midi": 82,
                    "time": 220.4691090000094,
                    "velocity": 0.7401574803149606,
                    "duration": 0.06598237500000437
                },
                {
                    "name": "D#4",
                    "midi": 63,
                    "time": 220.6450620000094,
                    "velocity": 0.5905511811023622,
                    "duration": 0.06598237500000437
                },
                {
                    "name": "D#5",
                    "midi": 75,
                    "time": 220.6450620000094,
                    "velocity": 0.7086614173228346,
                    "duration": 0.06598237500000437
                },
                {
                    "name": "D#4",
                    "midi": 63,
                    "time": 220.8210150000094,
                    "velocity": 0.5905511811023622,
                    "duration": 0.3519060000000138
                },
                {
                    "name": "D#5",
                    "midi": 75,
                    "time": 220.8210150000094,
                    "velocity": 0.7086614173228346,
                    "duration": 0.3519060000000138
                },
                {
                    "name": "G4",
                    "midi": 67,
                    "time": 221.1729210000094,
                    "velocity": 0.44881889763779526,
                    "duration": 0.26392949999998905
                },
                {
                    "name": "A#4",
                    "midi": 70,
                    "time": 221.1729210000094,
                    "velocity": 0.5354330708661418,
                    "duration": 0.26392949999998905
                },
                {
                    "name": "G4",
                    "midi": 67,
                    "time": 221.5248270000094,
                    "velocity": 0.4251968503937008,
                    "duration": 0.06598237500000437
                },
                {
                    "name": "A#4",
                    "midi": 70,
                    "time": 221.5248270000094,
                    "velocity": 0.5039370078740157,
                    "duration": 0.06598237500000437
                },
                {
                    "name": "A#4",
                    "midi": 70,
                    "time": 221.7007800000094,
                    "velocity": 0.5039370078740157,
                    "duration": 0.06598237500000437
                },
                {
                    "name": "G4",
                    "midi": 67,
                    "time": 221.7007800000094,
                    "velocity": 0.4251968503937008,
                    "duration": 0.06598237500000437
                },
                {
                    "name": "F#4",
                    "midi": 66,
                    "time": 221.87673300000938,
                    "velocity": 0.47244094488188976,
                    "duration": 0.5278590000000065
                },
                {
                    "name": "D#5",
                    "midi": 75,
                    "time": 221.87673300000938,
                    "velocity": 0.5590551181102362,
                    "duration": 0.5278590000000065
                },
                {
                    "name": "D#5",
                    "midi": 75,
                    "time": 222.4045920000094,
                    "velocity": 0.4881889763779528,
                    "duration": 0.06598237500000437
                },
                {
                    "name": "F#4",
                    "midi": 66,
                    "time": 222.4045920000094,
                    "velocity": 0.4094488188976378,
                    "duration": 0.06598237500000437
                },
                {
                    "name": "G4",
                    "midi": 67,
                    "time": 222.58054500000938,
                    "velocity": 0.4409448818897638,
                    "duration": 0.1759529999999927
                },
                {
                    "name": "C#5",
                    "midi": 73,
                    "time": 222.58054500000938,
                    "velocity": 0.5196850393700787,
                    "duration": 0.06598237500000437
                },
                {
                    "name": "A#4",
                    "midi": 70,
                    "time": 222.75649800000937,
                    "velocity": 0.5196850393700787,
                    "duration": 0.06598237500000437
                },
                {
                    "name": "D#4",
                    "midi": 63,
                    "time": 222.93245100000937,
                    "velocity": 0.4330708661417323,
                    "duration": 0.1759529999999927
                },
                {
                    "name": "B4",
                    "midi": 71,
                    "time": 222.93245100000937,
                    "velocity": 0.5118110236220472,
                    "duration": 0.06598237500000437
                },
                {
                    "name": "G#4",
                    "midi": 68,
                    "time": 223.10840400000936,
                    "velocity": 0.5354330708661418,
                    "duration": 0.06598237500000437
                },
                {
                    "name": "D#4",
                    "midi": 63,
                    "time": 223.28435700000935,
                    "velocity": 0.4409448818897638,
                    "duration": 0.1744867250000084
                },
                {
                    "name": "A#4",
                    "midi": 70,
                    "time": 223.28435700000935,
                    "velocity": 0.5275590551181102,
                    "duration": 0.06598237500000437
                },
                {
                    "name": "D#4",
                    "midi": 63,
                    "time": 223.46031000000937,
                    "velocity": 0.49606299212598426,
                    "duration": 0.06598237500000437
                },
                {
                    "name": "G4",
                    "midi": 67,
                    "time": 223.98816900000938,
                    "velocity": 0.44881889763779526,
                    "duration": 0.26392949999998905
                },
                {
                    "name": "A#4",
                    "midi": 70,
                    "time": 223.98816900000938,
                    "velocity": 0.5354330708661418,
                    "duration": 0.26392949999998905
                },
                {
                    "name": "G4",
                    "midi": 67,
                    "time": 224.34007500000936,
                    "velocity": 0.4251968503937008,
                    "duration": 0.06598237500000437
                },
                {
                    "name": "A#4",
                    "midi": 70,
                    "time": 224.34007500000936,
                    "velocity": 0.5039370078740157,
                    "duration": 0.06598237500000437
                },
                {
                    "name": "A#4",
                    "midi": 70,
                    "time": 224.51602800000936,
                    "velocity": 0.5039370078740157,
                    "duration": 0.06598237500000437
                },
                {
                    "name": "G4",
                    "midi": 67,
                    "time": 224.51602800000936,
                    "velocity": 0.4251968503937008,
                    "duration": 0.06598237500000437
                },
                {
                    "name": "F#4",
                    "midi": 66,
                    "time": 224.69198100000935,
                    "velocity": 0.47244094488188976,
                    "duration": 0.3519060000000138
                },
                {
                    "name": "D#5",
                    "midi": 75,
                    "time": 224.69198100000935,
                    "velocity": 0.5590551181102362,
                    "duration": 0.5278590000000065
                },
                {
                    "name": "G4",
                    "midi": 67,
                    "time": 225.03875503750936,
                    "velocity": 0.47244094488188976,
                    "duration": 0.1759529999999927
                },
                {
                    "name": "D#5",
                    "midi": 75,
                    "time": 225.21984000000936,
                    "velocity": 0.4881889763779528,
                    "duration": 0.06598237500000437
                },
                {
                    "name": "G#4",
                    "midi": 68,
                    "time": 225.21984000000936,
                    "velocity": 0.4094488188976378,
                    "duration": 0.06598237500000437
                },
                {
                    "name": "E4",
                    "midi": 64,
                    "time": 225.39579300000935,
                    "velocity": 0.4409448818897638,
                    "duration": 0.1759529999999927
                },
                {
                    "name": "G#4",
                    "midi": 68,
                    "time": 225.39579300000935,
                    "velocity": 0.4409448818897638,
                    "duration": 0.1759529999999927
                },
                {
                    "name": "C#5",
                    "midi": 73,
                    "time": 225.39579300000935,
                    "velocity": 0.5196850393700787,
                    "duration": 0.06598237500000437
                },
                {
                    "name": "B4",
                    "midi": 71,
                    "time": 225.57174600000934,
                    "velocity": 0.5196850393700787,
                    "duration": 0.06598237500000437
                },
                {
                    "name": "C#4",
                    "midi": 61,
                    "time": 225.74769900000933,
                    "velocity": 0.4330708661417323,
                    "duration": 0.1759529999999927
                },
                {
                    "name": "G4",
                    "midi": 67,
                    "time": 225.74769900000933,
                    "velocity": 0.4330708661417323,
                    "duration": 0.1759529999999927
                },
                {
                    "name": "A#4",
                    "midi": 70,
                    "time": 225.74769900000933,
                    "velocity": 0.5118110236220472,
                    "duration": 0.06598237500000437
                },
                {
                    "name": "D#4",
                    "midi": 63,
                    "time": 225.92365200000933,
                    "velocity": 0.5354330708661418,
                    "duration": 0.06598237500000437
                },
                {
                    "name": "D#4",
                    "midi": 63,
                    "time": 226.09960500000932,
                    "velocity": 0.4566929133858268,
                    "duration": 0.06598237500000437
                },
                {
                    "name": "G#4",
                    "midi": 68,
                    "time": 226.09960500000932,
                    "velocity": 0.5511811023622047,
                    "duration": 0.06598237500000437
                },
                {
                    "name": "D#4",
                    "midi": 63,
                    "time": 226.2755580000093,
                    "velocity": 0.5196850393700787,
                    "duration": 0.06598237500000437
                },
                {
                    "name": "D#4",
                    "midi": 63,
                    "time": 226.4515110000093,
                    "velocity": 0.47244094488188976,
                    "duration": 0.26392949999998905
                },
                {
                    "name": "G#4",
                    "midi": 68,
                    "time": 226.4515110000093,
                    "velocity": 0.5511811023622047,
                    "duration": 0.26392949999998905
                },
                {
                    "name": "A#4",
                    "midi": 70,
                    "time": 226.8034170000093,
                    "velocity": 0.6377952755905512,
                    "duration": 0.26392949999998905
                },
                {
                    "name": "A#5",
                    "midi": 82,
                    "time": 226.8034170000093,
                    "velocity": 0.7559055118110236,
                    "duration": 0.26392949999998905
                },
                {
                    "name": "A#4",
                    "midi": 70,
                    "time": 227.15532300000928,
                    "velocity": 0.6062992125984252,
                    "duration": 0.06598237500000437
                },
                {
                    "name": "A#5",
                    "midi": 82,
                    "time": 227.15532300000928,
                    "velocity": 0.7165354330708661,
                    "duration": 0.06598237500000437
                },
                {
                    "name": "A#4",
                    "midi": 70,
                    "time": 227.33127600000927,
                    "velocity": 0.6062992125984252,
                    "duration": 0.06598237500000437
                },
                {
                    "name": "A#5",
                    "midi": 82,
                    "time": 227.33127600000927,
                    "velocity": 0.7165354330708661,
                    "duration": 0.06598237500000437
                },
                {
                    "name": "D#5",
                    "midi": 75,
                    "time": 227.50722900000926,
                    "velocity": 0.6692913385826772,
                    "duration": 0.5278590000000065
                },
                {
                    "name": "D#6",
                    "midi": 87,
                    "time": 227.50722900000926,
                    "velocity": 0.7952755905511811,
                    "duration": 0.5278590000000065
                },
                {
                    "name": "D#5",
                    "midi": 75,
                    "time": 228.03508800000927,
                    "velocity": 0.5826771653543307,
                    "duration": 0.06598237500000437
                },
                {
                    "name": "D#6",
                    "midi": 87,
                    "time": 228.03508800000927,
                    "velocity": 0.7007874015748031,
                    "duration": 0.06598237500000437
                },
                {
                    "name": "C#5",
                    "midi": 73,
                    "time": 228.21104100000926,
                    "velocity": 0.6220472440944882,
                    "duration": 0.06598237500000437
                },
                {
                    "name": "C#6",
                    "midi": 85,
                    "time": 228.21104100000926,
                    "velocity": 0.7322834645669292,
                    "duration": 0.06598237500000437
                },
                {
                    "name": "B4",
                    "midi": 71,
                    "time": 228.38699400000925,
                    "velocity": 0.6220472440944882,
                    "duration": 0.06598237500000437
                },
                {
                    "name": "B5",
                    "midi": 83,
                    "time": 228.38699400000925,
                    "velocity": 0.7322834645669292,
                    "duration": 0.06598237500000437
                },
                {
                    "name": "A#4",
                    "midi": 70,
                    "time": 228.56294700000925,
                    "velocity": 0.6141732283464567,
                    "duration": 0.06598237500000437
                },
                {
                    "name": "A#5",
                    "midi": 82,
                    "time": 228.56294700000925,
                    "velocity": 0.7244094488188977,
                    "duration": 0.06598237500000437
                },
                {
                    "name": "G#4",
                    "midi": 68,
                    "time": 228.73890000000924,
                    "velocity": 0.6377952755905512,
                    "duration": 0.06598237500000437
                },
                {
                    "name": "G#5",
                    "midi": 80,
                    "time": 228.73890000000924,
                    "velocity": 0.7559055118110236,
                    "duration": 0.06598237500000437
                },
                {
                    "name": "A#4",
                    "midi": 70,
                    "time": 228.91485300000923,
                    "velocity": 0.6299212598425197,
                    "duration": 0.06598237500000437
                },
                {
                    "name": "A#5",
                    "midi": 82,
                    "time": 228.91485300000923,
                    "velocity": 0.7401574803149606,
                    "duration": 0.06598237500000437
                },
                {
                    "name": "D#4",
                    "midi": 63,
                    "time": 229.09080600000922,
                    "velocity": 0.5905511811023622,
                    "duration": 0.06598237500000437
                },
                {
                    "name": "D#5",
                    "midi": 75,
                    "time": 229.09080600000922,
                    "velocity": 0.7086614173228346,
                    "duration": 0.06598237500000437
                },
                {
                    "name": "D#4",
                    "midi": 63,
                    "time": 229.26675900000922,
                    "velocity": 0.5905511811023622,
                    "duration": 0.3519060000000138
                },
                {
                    "name": "D#5",
                    "midi": 75,
                    "time": 229.26675900000922,
                    "velocity": 0.7086614173228346,
                    "duration": 0.3519060000000138
                },
                {
                    "name": "G4",
                    "midi": 67,
                    "time": 229.61866500000923,
                    "velocity": 0.44881889763779526,
                    "duration": 0.26392949999998905
                },
                {
                    "name": "A#4",
                    "midi": 70,
                    "time": 229.61866500000923,
                    "velocity": 0.5354330708661418,
                    "duration": 0.26392949999998905
                },
                {
                    "name": "G4",
                    "midi": 67,
                    "time": 229.97057100000922,
                    "velocity": 0.4251968503937008,
                    "duration": 0.06598237500000437
                },
                {
                    "name": "A#4",
                    "midi": 70,
                    "time": 229.97057100000922,
                    "velocity": 0.5039370078740157,
                    "duration": 0.06598237500000437
                },
                {
                    "name": "A#4",
                    "midi": 70,
                    "time": 230.1465240000092,
                    "velocity": 0.5039370078740157,
                    "duration": 0.06598237500000437
                },
                {
                    "name": "G4",
                    "midi": 67,
                    "time": 230.1465240000092,
                    "velocity": 0.4251968503937008,
                    "duration": 0.06598237500000437
                },
                {
                    "name": "F#4",
                    "midi": 66,
                    "time": 230.3224770000092,
                    "velocity": 0.47244094488188976,
                    "duration": 0.5278590000000065
                },
                {
                    "name": "D#5",
                    "midi": 75,
                    "time": 230.3224770000092,
                    "velocity": 0.5590551181102362,
                    "duration": 0.5278590000000065
                },
                {
                    "name": "D#5",
                    "midi": 75,
                    "time": 230.8503360000092,
                    "velocity": 0.4881889763779528,
                    "duration": 0.06598237500000437
                },
                {
                    "name": "F#4",
                    "midi": 66,
                    "time": 230.8503360000092,
                    "velocity": 0.4094488188976378,
                    "duration": 0.06598237500000437
                },
                {
                    "name": "G4",
                    "midi": 67,
                    "time": 231.0262890000092,
                    "velocity": 0.4409448818897638,
                    "duration": 0.1759529999999927
                },
                {
                    "name": "C#5",
                    "midi": 73,
                    "time": 231.0262890000092,
                    "velocity": 0.5196850393700787,
                    "duration": 0.06598237500000437
                },
                {
                    "name": "A#4",
                    "midi": 70,
                    "time": 231.2022420000092,
                    "velocity": 0.5196850393700787,
                    "duration": 0.06598237500000437
                },
                {
                    "name": "D#4",
                    "midi": 63,
                    "time": 231.37819500000919,
                    "velocity": 0.4330708661417323,
                    "duration": 0.1759529999999927
                },
                {
                    "name": "B4",
                    "midi": 71,
                    "time": 231.37819500000919,
                    "velocity": 0.5118110236220472,
                    "duration": 0.06598237500000437
                },
                {
                    "name": "G#4",
                    "midi": 68,
                    "time": 231.55414800000918,
                    "velocity": 0.5354330708661418,
                    "duration": 0.06598237500000437
                },
                {
                    "name": "D#4",
                    "midi": 63,
                    "time": 231.73010100000917,
                    "velocity": 0.4409448818897638,
                    "duration": 0.1744867250000084
                },
                {
                    "name": "A#4",
                    "midi": 70,
                    "time": 231.73010100000917,
                    "velocity": 0.5275590551181102,
                    "duration": 0.06598237500000437
                },
                {
                    "name": "D#4",
                    "midi": 63,
                    "time": 231.9060540000092,
                    "velocity": 0.49606299212598426,
                    "duration": 0.06598237500000437
                },
                {
                    "name": "G4",
                    "midi": 67,
                    "time": 232.4339130000092,
                    "velocity": 0.44881889763779526,
                    "duration": 0.26392949999998905
                },
                {
                    "name": "A#4",
                    "midi": 70,
                    "time": 232.4339130000092,
                    "velocity": 0.5354330708661418,
                    "duration": 0.26392949999998905
                },
                {
                    "name": "G4",
                    "midi": 67,
                    "time": 232.78581900000918,
                    "velocity": 0.4251968503937008,
                    "duration": 0.06598237500000437
                },
                {
                    "name": "A#4",
                    "midi": 70,
                    "time": 232.78581900000918,
                    "velocity": 0.5039370078740157,
                    "duration": 0.06598237500000437
                },
                {
                    "name": "A#4",
                    "midi": 70,
                    "time": 232.96177200000918,
                    "velocity": 0.5039370078740157,
                    "duration": 0.06598237500000437
                },
                {
                    "name": "G4",
                    "midi": 67,
                    "time": 232.96177200000918,
                    "velocity": 0.4251968503937008,
                    "duration": 0.06598237500000437
                },
                {
                    "name": "F#4",
                    "midi": 66,
                    "time": 233.13772500000917,
                    "velocity": 0.47244094488188976,
                    "duration": 0.3519060000000138
                },
                {
                    "name": "D#5",
                    "midi": 75,
                    "time": 233.13772500000917,
                    "velocity": 0.5590551181102362,
                    "duration": 0.5278590000000065
                },
                {
                    "name": "G4",
                    "midi": 67,
                    "time": 233.48449903750918,
                    "velocity": 0.47244094488188976,
                    "duration": 0.1759529999999927
                },
                {
                    "name": "D#5",
                    "midi": 75,
                    "time": 233.66558400000918,
                    "velocity": 0.4881889763779528,
                    "duration": 0.06598237500000437
                },
                {
                    "name": "G#4",
                    "midi": 68,
                    "time": 233.66558400000918,
                    "velocity": 0.4094488188976378,
                    "duration": 0.06598237500000437
                },
                {
                    "name": "E4",
                    "midi": 64,
                    "time": 233.84153700000917,
                    "velocity": 0.4409448818897638,
                    "duration": 0.1759529999999927
                },
                {
                    "name": "G#4",
                    "midi": 68,
                    "time": 233.84153700000917,
                    "velocity": 0.4409448818897638,
                    "duration": 0.1759529999999927
                },
                {
                    "name": "C#5",
                    "midi": 73,
                    "time": 233.84153700000917,
                    "velocity": 0.5196850393700787,
                    "duration": 0.06598237500000437
                },
                {
                    "name": "B4",
                    "midi": 71,
                    "time": 234.01749000000916,
                    "velocity": 0.5196850393700787,
                    "duration": 0.06598237500000437
                },
                {
                    "name": "C#4",
                    "midi": 61,
                    "time": 234.19344300000915,
                    "velocity": 0.4330708661417323,
                    "duration": 0.1759529999999927
                },
                {
                    "name": "G4",
                    "midi": 67,
                    "time": 234.19344300000915,
                    "velocity": 0.4330708661417323,
                    "duration": 0.1759529999999927
                },
                {
                    "name": "A#4",
                    "midi": 70,
                    "time": 234.19344300000915,
                    "velocity": 0.5118110236220472,
                    "duration": 0.06598237500000437
                },
                {
                    "name": "D#4",
                    "midi": 63,
                    "time": 234.36939600000915,
                    "velocity": 0.5354330708661418,
                    "duration": 0.06598237500000437
                },
                {
                    "name": "D#4",
                    "midi": 63,
                    "time": 234.54534900000914,
                    "velocity": 0.4566929133858268,
                    "duration": 0.1744867250000084
                },
                {
                    "name": "G#4",
                    "midi": 68,
                    "time": 234.54534900000914,
                    "velocity": 0.5511811023622047,
                    "duration": 0.06598237500000437
                },
                {
                    "name": "D#4",
                    "midi": 63,
                    "time": 234.72130200000916,
                    "velocity": 0.5196850393700787,
                    "duration": 0.06598237500000437
                },
                {
                    "name": "D#4",
                    "midi": 63,
                    "time": 234.89725500000915,
                    "velocity": 0.47244094488188976,
                    "duration": 0.26392949999998905
                },
                {
                    "name": "G#4",
                    "midi": 68,
                    "time": 234.89725500000915,
                    "velocity": 0.5511811023622047,
                    "duration": 0.26392949999998905
                },
                {
                    "name": "D#4",
                    "midi": 63,
                    "time": 235.24916100000914,
                    "velocity": 0.4330708661417323,
                    "duration": 0.08797649999999635
                },
                {
                    "name": "F4",
                    "midi": 65,
                    "time": 235.42511400000913,
                    "velocity": 0.3858267716535433,
                    "duration": 0.08797649999999635
                },
                {
                    "name": "G4",
                    "midi": 67,
                    "time": 235.60106700000912,
                    "velocity": 0.3779527559055118,
                    "duration": 0.08797649999999635
                },
                {
                    "name": "G#4",
                    "midi": 68,
                    "time": 235.77702000000912,
                    "velocity": 0.3700787401574803,
                    "duration": 0.08797649999999635
                },
                {
                    "name": "C#4",
                    "midi": 61,
                    "time": 235.9529730000091,
                    "velocity": 0.4015748031496063,
                    "duration": 0.1759529999999927
                },
                {
                    "name": "D#4",
                    "midi": 63,
                    "time": 235.9529730000091,
                    "velocity": 0.4015748031496063,
                    "duration": 0.1759529999999927
                },
                {
                    "name": "A#4",
                    "midi": 70,
                    "time": 235.9529730000091,
                    "velocity": 0.47244094488188976,
                    "duration": 0.1759529999999927
                },
                {
                    "name": "C#4",
                    "midi": 61,
                    "time": 236.3048790000091,
                    "velocity": 0.3464566929133858,
                    "duration": 0.08797649999999635
                },
                {
                    "name": "A#4",
                    "midi": 70,
                    "time": 236.3048790000091,
                    "velocity": 0.4094488188976378,
                    "duration": 0.08797649999999635
                },
                {
                    "name": "D#4",
                    "midi": 63,
                    "time": 236.4808320000091,
                    "velocity": 0.3464566929133858,
                    "duration": 0.08797649999999635
                },
                {
                    "name": "C5",
                    "midi": 72,
                    "time": 236.4808320000091,
                    "velocity": 0.4094488188976378,
                    "duration": 0.08797649999999635
                },
                {
                    "name": "C4",
                    "midi": 60,
                    "time": 236.65678500000908,
                    "velocity": 0.3858267716535433,
                    "duration": 0.1759529999999927
                },
                {
                    "name": "D#4",
                    "midi": 63,
                    "time": 236.65678500000908,
                    "velocity": 0.3858267716535433,
                    "duration": 0.1759529999999927
                },
                {
                    "name": "G#4",
                    "midi": 68,
                    "time": 236.65678500000908,
                    "velocity": 0.4566929133858268,
                    "duration": 0.1759529999999927
                },
                {
                    "name": "C#4",
                    "midi": 61,
                    "time": 237.36059700000908,
                    "velocity": 0.4015748031496063,
                    "duration": 0.1759529999999927
                },
                {
                    "name": "D#4",
                    "midi": 63,
                    "time": 237.36059700000908,
                    "velocity": 0.4015748031496063,
                    "duration": 0.1759529999999927
                },
                {
                    "name": "A#4",
                    "midi": 70,
                    "time": 237.36059700000908,
                    "velocity": 0.47244094488188976,
                    "duration": 0.1759529999999927
                },
                {
                    "name": "C#4",
                    "midi": 61,
                    "time": 237.71250300000906,
                    "velocity": 0.3464566929133858,
                    "duration": 0.08797649999999635
                },
                {
                    "name": "A#4",
                    "midi": 70,
                    "time": 237.71250300000906,
                    "velocity": 0.4094488188976378,
                    "duration": 0.08797649999999635
                },
                {
                    "name": "D#4",
                    "midi": 63,
                    "time": 237.88845600000906,
                    "velocity": 0.3464566929133858,
                    "duration": 0.08797649999999635
                },
                {
                    "name": "C5",
                    "midi": 72,
                    "time": 237.88845600000906,
                    "velocity": 0.4094488188976378,
                    "duration": 0.08797649999999635
                },
                {
                    "name": "C4",
                    "midi": 60,
                    "time": 238.06440900000905,
                    "velocity": 0.3858267716535433,
                    "duration": 0.1759529999999927
                },
                {
                    "name": "D#4",
                    "midi": 63,
                    "time": 238.06440900000905,
                    "velocity": 0.3858267716535433,
                    "duration": 0.1759529999999927
                },
                {
                    "name": "G#4",
                    "midi": 68,
                    "time": 238.06440900000905,
                    "velocity": 0.4566929133858268,
                    "duration": 0.1759529999999927
                },
                {
                    "name": "D#4",
                    "midi": 63,
                    "time": 238.76822100000905,
                    "velocity": 0.4015748031496063,
                    "duration": 0.3519060000000138
                },
                {
                    "name": "G4",
                    "midi": 67,
                    "time": 238.76822100000905,
                    "velocity": 0.4015748031496063,
                    "duration": 0.3519060000000138
                },
                {
                    "name": "A#4",
                    "midi": 70,
                    "time": 238.76822100000905,
                    "velocity": 0.47244094488188976,
                    "duration": 0.3519060000000138
                },
                {
                    "name": "G4",
                    "midi": 67,
                    "time": 239.12012700000906,
                    "velocity": 0.3464566929133858,
                    "duration": 0.08797649999999635
                },
                {
                    "name": "D#4",
                    "midi": 63,
                    "time": 239.12012700000906,
                    "velocity": 0.3464566929133858,
                    "duration": 0.08797649999999635
                },
                {
                    "name": "A#4",
                    "midi": 70,
                    "time": 239.12012700000906,
                    "velocity": 0.4094488188976378,
                    "duration": 0.08797649999999635
                },
                {
                    "name": "G4",
                    "midi": 67,
                    "time": 239.29608000000906,
                    "velocity": 0.3464566929133858,
                    "duration": 0.08797649999999635
                },
                {
                    "name": "D#4",
                    "midi": 63,
                    "time": 239.29608000000906,
                    "velocity": 0.3464566929133858,
                    "duration": 0.08797649999999635
                },
                {
                    "name": "A#4",
                    "midi": 70,
                    "time": 239.29608000000906,
                    "velocity": 0.4094488188976378,
                    "duration": 0.08797649999999635
                },
                {
                    "name": "D#4",
                    "midi": 63,
                    "time": 239.47203300000905,
                    "velocity": 0.4015748031496063,
                    "duration": 0.3519060000000138
                },
                {
                    "name": "F#4",
                    "midi": 66,
                    "time": 239.47203300000905,
                    "velocity": 0.4015748031496063,
                    "duration": 0.3519060000000138
                },
                {
                    "name": "D#5",
                    "midi": 75,
                    "time": 239.47203300000905,
                    "velocity": 0.47244094488188976,
                    "duration": 0.3519060000000138
                },
                {
                    "name": "B4",
                    "midi": 71,
                    "time": 239.82393900000906,
                    "velocity": 0.3464566929133858,
                    "duration": 0.08797649999999635
                },
                {
                    "name": "D#4",
                    "midi": 63,
                    "time": 239.82393900000906,
                    "velocity": 0.3464566929133858,
                    "duration": 0.08797649999999635
                },
                {
                    "name": "D#5",
                    "midi": 75,
                    "time": 239.82393900000906,
                    "velocity": 0.4094488188976378,
                    "duration": 0.08797649999999635
                },
                {
                    "name": "B4",
                    "midi": 71,
                    "time": 239.99989200000905,
                    "velocity": 0.3464566929133858,
                    "duration": 0.08797649999999635
                },
                {
                    "name": "D#4",
                    "midi": 63,
                    "time": 239.99989200000905,
                    "velocity": 0.3464566929133858,
                    "duration": 0.08797649999999635
                },
                {
                    "name": "D#5",
                    "midi": 75,
                    "time": 239.99989200000905,
                    "velocity": 0.4094488188976378,
                    "duration": 0.08797649999999635
                },
                {
                    "name": "E4",
                    "midi": 64,
                    "time": 240.17584500000905,
                    "velocity": 0.3937007874015748,
                    "duration": 0.08797649999999635
                },
                {
                    "name": "C#5",
                    "midi": 73,
                    "time": 240.17584500000905,
                    "velocity": 0.4645669291338583,
                    "duration": 0.08797649999999635
                },
                {
                    "name": "D#4",
                    "midi": 63,
                    "time": 240.35179800000904,
                    "velocity": 0.33858267716535434,
                    "duration": 0.08797649999999635
                },
                {
                    "name": "B4",
                    "midi": 71,
                    "time": 240.35179800000904,
                    "velocity": 0.4015748031496063,
                    "duration": 0.08797649999999635
                },
                {
                    "name": "C#4",
                    "midi": 61,
                    "time": 240.52775100000903,
                    "velocity": 0.33858267716535434,
                    "duration": 0.08797649999999635
                },
                {
                    "name": "A#4",
                    "midi": 70,
                    "time": 240.52775100000903,
                    "velocity": 0.4015748031496063,
                    "duration": 0.08797649999999635
                },
                {
                    "name": "B3",
                    "midi": 59,
                    "time": 240.70370400000903,
                    "velocity": 0.33858267716535434,
                    "duration": 0.08797649999999635
                },
                {
                    "name": "G#4",
                    "midi": 68,
                    "time": 240.70370400000903,
                    "velocity": 0.4015748031496063,
                    "duration": 0.08797649999999635
                },
                {
                    "name": "A#3",
                    "midi": 58,
                    "time": 240.87965700000902,
                    "velocity": 0.4015748031496063,
                    "duration": 0.3519060000000138
                },
                {
                    "name": "D#4",
                    "midi": 63,
                    "time": 240.87965700000902,
                    "velocity": 0.4015748031496063,
                    "duration": 0.3519060000000138
                },
                {
                    "name": "A#4",
                    "midi": 70,
                    "time": 240.87965700000902,
                    "velocity": 0.47244094488188976,
                    "duration": 0.3519060000000138
                },
                {
                    "name": "D#4",
                    "midi": 63,
                    "time": 241.23156300000903,
                    "velocity": 0.3464566929133858,
                    "duration": 0.08797649999999635
                },
                {
                    "name": "A#3",
                    "midi": 58,
                    "time": 241.23156300000903,
                    "velocity": 0.3464566929133858,
                    "duration": 0.08797649999999635
                },
                {
                    "name": "A#4",
                    "midi": 70,
                    "time": 241.23156300000903,
                    "velocity": 0.4094488188976378,
                    "duration": 0.08797649999999635
                },
                {
                    "name": "D#4",
                    "midi": 63,
                    "time": 241.40751600000902,
                    "velocity": 0.3464566929133858,
                    "duration": 0.08797649999999635
                },
                {
                    "name": "A#3",
                    "midi": 58,
                    "time": 241.40751600000902,
                    "velocity": 0.3464566929133858,
                    "duration": 0.08797649999999635
                },
                {
                    "name": "A#4",
                    "midi": 70,
                    "time": 241.40751600000902,
                    "velocity": 0.4094488188976378,
                    "duration": 0.08797649999999635
                },
                {
                    "name": "G3",
                    "midi": 55,
                    "time": 241.58346900000902,
                    "velocity": 0.3937007874015748,
                    "duration": 0.08797649999999635
                },
                {
                    "name": "C#4",
                    "midi": 61,
                    "time": 241.58346900000902,
                    "velocity": 0.3937007874015748,
                    "duration": 0.08797649999999635
                },
                {
                    "name": "D#4",
                    "midi": 63,
                    "time": 241.58346900000902,
                    "velocity": 0.4645669291338583,
                    "duration": 0.08797649999999635
                },
                {
                    "name": "G#3",
                    "midi": 56,
                    "time": 241.759422000009,
                    "velocity": 0.33858267716535434,
                    "duration": 0.08797649999999635
                },
                {
                    "name": "F4",
                    "midi": 65,
                    "time": 241.759422000009,
                    "velocity": 0.4015748031496063,
                    "duration": 0.08797649999999635
                },
                {
                    "name": "A#3",
                    "midi": 58,
                    "time": 241.935375000009,
                    "velocity": 0.33858267716535434,
                    "duration": 0.08797649999999635
                },
                {
                    "name": "C#4",
                    "midi": 61,
                    "time": 241.935375000009,
                    "velocity": 0.33858267716535434,
                    "duration": 0.08797649999999635
                },
                {
                    "name": "G4",
                    "midi": 67,
                    "time": 241.935375000009,
                    "velocity": 0.4015748031496063,
                    "duration": 0.08797649999999635
                },
                {
                    "name": "G3",
                    "midi": 55,
                    "time": 242.111328000009,
                    "velocity": 0.33858267716535434,
                    "duration": 0.08797649999999635
                },
                {
                    "name": "D#4",
                    "midi": 63,
                    "time": 242.111328000009,
                    "velocity": 0.4015748031496063,
                    "duration": 0.08797649999999635
                },
                {
                    "name": "G#3",
                    "midi": 56,
                    "time": 242.287281000009,
                    "velocity": 0.4015748031496063,
                    "duration": 0.1759529999999927
                },
                {
                    "name": "C4",
                    "midi": 60,
                    "time": 242.287281000009,
                    "velocity": 0.4015748031496063,
                    "duration": 0.1759529999999927
                },
                {
                    "name": "G#4",
                    "midi": 68,
                    "time": 242.287281000009,
                    "velocity": 0.47244094488188976,
                    "duration": 0.1759529999999927
                },
                {
                    "name": "D#4",
                    "midi": 63,
                    "time": 242.991093000009,
                    "velocity": 0.4094488188976378,
                    "duration": 0.08797649999999635
                },
                {
                    "name": "D#5",
                    "midi": 75,
                    "time": 242.991093000009,
                    "velocity": 0.49606299212598426,
                    "duration": 0.08797649999999635
                },
                {
                    "name": "F4",
                    "midi": 65,
                    "time": 243.16704600000898,
                    "velocity": 0.3700787401574803,
                    "duration": 0.08797649999999635
                },
                {
                    "name": "F5",
                    "midi": 77,
                    "time": 243.16704600000898,
                    "velocity": 0.4409448818897638,
                    "duration": 0.08797649999999635
                },
                {
                    "name": "G4",
                    "midi": 67,
                    "time": 243.34299900000897,
                    "velocity": 0.36220472440944884,
                    "duration": 0.08797649999999635
                },
                {
                    "name": "G5",
                    "midi": 79,
                    "time": 243.34299900000897,
                    "velocity": 0.4330708661417323,
                    "duration": 0.08797649999999635
                },
                {
                    "name": "G#4",
                    "midi": 68,
                    "time": 243.51895200000897,
                    "velocity": 0.3464566929133858,
                    "duration": 0.08797649999999635
                },
                {
                    "name": "G#5",
                    "midi": 80,
                    "time": 243.51895200000897,
                    "velocity": 0.4251968503937008,
                    "duration": 0.08797649999999635
                },
                {
                    "name": "A#4",
                    "midi": 70,
                    "time": 243.69490500000896,
                    "velocity": 0.4566929133858268,
                    "duration": 0.1759529999999927
                },
                {
                    "name": "C#5",
                    "midi": 73,
                    "time": 243.69490500000896,
                    "velocity": 0.4566929133858268,
                    "duration": 0.1759529999999927
                },
                {
                    "name": "A#5",
                    "midi": 82,
                    "time": 243.69490500000896,
                    "velocity": 0.5433070866141733,
                    "duration": 0.1759529999999927
                },
                {
                    "name": "A#4",
                    "midi": 70,
                    "time": 244.04681100000894,
                    "velocity": 0.3937007874015748,
                    "duration": 0.08797649999999635
                },
                {
                    "name": "C#5",
                    "midi": 73,
                    "time": 244.04681100000894,
                    "velocity": 0.3937007874015748,
                    "duration": 0.08797649999999635
                },
                {
                    "name": "A#5",
                    "midi": 82,
                    "time": 244.04681100000894,
                    "velocity": 0.4645669291338583,
                    "duration": 0.08797649999999635
                },
                {
                    "name": "C5",
                    "midi": 72,
                    "time": 244.22276400000894,
                    "velocity": 0.3937007874015748,
                    "duration": 0.08797649999999635
                },
                {
                    "name": "D#5",
                    "midi": 75,
                    "time": 244.22276400000894,
                    "velocity": 0.3937007874015748,
                    "duration": 0.08797649999999635
                },
                {
                    "name": "C6",
                    "midi": 84,
                    "time": 244.22276400000894,
                    "velocity": 0.4645669291338583,
                    "duration": 0.08797649999999635
                },
                {
                    "name": "G#4",
                    "midi": 68,
                    "time": 244.39871700000893,
                    "velocity": 0.4409448818897638,
                    "duration": 0.1759529999999927
                },
                {
                    "name": "C5",
                    "midi": 72,
                    "time": 244.39871700000893,
                    "velocity": 0.4409448818897638,
                    "duration": 0.1759529999999927
                },
                {
                    "name": "G#5",
                    "midi": 80,
                    "time": 244.39871700000893,
                    "velocity": 0.5196850393700787,
                    "duration": 0.1759529999999927
                },
                {
                    "name": "A#4",
                    "midi": 70,
                    "time": 245.10252900000893,
                    "velocity": 0.4566929133858268,
                    "duration": 0.1759529999999927
                },
                {
                    "name": "C#5",
                    "midi": 73,
                    "time": 245.10252900000893,
                    "velocity": 0.4566929133858268,
                    "duration": 0.1759529999999927
                },
                {
                    "name": "A#5",
                    "midi": 82,
                    "time": 245.10252900000893,
                    "velocity": 0.5433070866141733,
                    "duration": 0.1759529999999927
                },
                {
                    "name": "A#4",
                    "midi": 70,
                    "time": 245.4544350000089,
                    "velocity": 0.3937007874015748,
                    "duration": 0.08797649999999635
                },
                {
                    "name": "C#5",
                    "midi": 73,
                    "time": 245.4544350000089,
                    "velocity": 0.3937007874015748,
                    "duration": 0.08797649999999635
                },
                {
                    "name": "A#5",
                    "midi": 82,
                    "time": 245.4544350000089,
                    "velocity": 0.4645669291338583,
                    "duration": 0.08797649999999635
                },
                {
                    "name": "C5",
                    "midi": 72,
                    "time": 245.6303880000089,
                    "velocity": 0.3937007874015748,
                    "duration": 0.08797649999999635
                },
                {
                    "name": "D#5",
                    "midi": 75,
                    "time": 245.6303880000089,
                    "velocity": 0.3937007874015748,
                    "duration": 0.08797649999999635
                },
                {
                    "name": "C6",
                    "midi": 84,
                    "time": 245.6303880000089,
                    "velocity": 0.4645669291338583,
                    "duration": 0.08797649999999635
                },
                {
                    "name": "G#4",
                    "midi": 68,
                    "time": 245.8063410000089,
                    "velocity": 0.4409448818897638,
                    "duration": 0.1759529999999927
                },
                {
                    "name": "C5",
                    "midi": 72,
                    "time": 245.8063410000089,
                    "velocity": 0.4409448818897638,
                    "duration": 0.1759529999999927
                },
                {
                    "name": "G#5",
                    "midi": 80,
                    "time": 245.8063410000089,
                    "velocity": 0.5196850393700787,
                    "duration": 0.1759529999999927
                },
                {
                    "name": "A#4",
                    "midi": 70,
                    "time": 246.5101530000089,
                    "velocity": 0.4566929133858268,
                    "duration": 0.3519060000000138
                },
                {
                    "name": "D#5",
                    "midi": 75,
                    "time": 246.5101530000089,
                    "velocity": 0.4566929133858268,
                    "duration": 0.3519060000000138
                },
                {
                    "name": "G5",
                    "midi": 79,
                    "time": 246.5101530000089,
                    "velocity": 0.4566929133858268,
                    "duration": 0.3519060000000138
                },
                {
                    "name": "A#5",
                    "midi": 82,
                    "time": 246.5101530000089,
                    "velocity": 0.5433070866141733,
                    "duration": 0.3519060000000138
                },
                {
                    "name": "A#4",
                    "midi": 70,
                    "time": 246.8620590000089,
                    "velocity": 0.3937007874015748,
                    "duration": 0.08797649999999635
                },
                {
                    "name": "G5",
                    "midi": 79,
                    "time": 246.8620590000089,
                    "velocity": 0.3937007874015748,
                    "duration": 0.08797649999999635
                },
                {
                    "name": "D#5",
                    "midi": 75,
                    "time": 246.8620590000089,
                    "velocity": 0.3937007874015748,
                    "duration": 0.08797649999999635
                },
                {
                    "name": "A#5",
                    "midi": 82,
                    "time": 246.8620590000089,
                    "velocity": 0.4645669291338583,
                    "duration": 0.08797649999999635
                },
                {
                    "name": "A#4",
                    "midi": 70,
                    "time": 247.0380120000089,
                    "velocity": 0.3937007874015748,
                    "duration": 0.08797649999999635
                },
                {
                    "name": "G5",
                    "midi": 79,
                    "time": 247.0380120000089,
                    "velocity": 0.3937007874015748,
                    "duration": 0.08797649999999635
                },
                {
                    "name": "D#5",
                    "midi": 75,
                    "time": 247.0380120000089,
                    "velocity": 0.3937007874015748,
                    "duration": 0.08797649999999635
                },
                {
                    "name": "A#5",
                    "midi": 82,
                    "time": 247.0380120000089,
                    "velocity": 0.4645669291338583,
                    "duration": 0.08797649999999635
                },
                {
                    "name": "D#5",
                    "midi": 75,
                    "time": 247.2139650000089,
                    "velocity": 0.4566929133858268,
                    "duration": 0.3519060000000138
                },
                {
                    "name": "F#5",
                    "midi": 78,
                    "time": 247.2139650000089,
                    "velocity": 0.4566929133858268,
                    "duration": 0.3519060000000138
                },
                {
                    "name": "D#6",
                    "midi": 87,
                    "time": 247.2139650000089,
                    "velocity": 0.5433070866141733,
                    "duration": 0.3519060000000138
                },
                {
                    "name": "B5",
                    "midi": 83,
                    "time": 247.5658710000089,
                    "velocity": 0.3937007874015748,
                    "duration": 0.08797649999999635
                },
                {
                    "name": "D#5",
                    "midi": 75,
                    "time": 247.5658710000089,
                    "velocity": 0.3937007874015748,
                    "duration": 0.08797649999999635
                },
                {
                    "name": "D#6",
                    "midi": 87,
                    "time": 247.5658710000089,
                    "velocity": 0.4645669291338583,
                    "duration": 0.08797649999999635
                },
                {
                    "name": "B5",
                    "midi": 83,
                    "time": 247.7418240000089,
                    "velocity": 0.3937007874015748,
                    "duration": 0.08797649999999635
                },
                {
                    "name": "D#5",
                    "midi": 75,
                    "time": 247.7418240000089,
                    "velocity": 0.3937007874015748,
                    "duration": 0.08797649999999635
                },
                {
                    "name": "D#6",
                    "midi": 87,
                    "time": 247.7418240000089,
                    "velocity": 0.4645669291338583,
                    "duration": 0.08797649999999635
                },
                {
                    "name": "C#5",
                    "midi": 73,
                    "time": 247.9177770000089,
                    "velocity": 0.44881889763779526,
                    "duration": 0.08797649999999635
                },
                {
                    "name": "E5",
                    "midi": 76,
                    "time": 247.9177770000089,
                    "velocity": 0.44881889763779526,
                    "duration": 0.08797649999999635
                },
                {
                    "name": "C#6",
                    "midi": 85,
                    "time": 247.9177770000089,
                    "velocity": 0.5275590551181102,
                    "duration": 0.08797649999999635
                },
                {
                    "name": "B4",
                    "midi": 71,
                    "time": 248.0937300000089,
                    "velocity": 0.3858267716535433,
                    "duration": 0.08797649999999635
                },
                {
                    "name": "D#5",
                    "midi": 75,
                    "time": 248.0937300000089,
                    "velocity": 0.3858267716535433,
                    "duration": 0.08797649999999635
                },
                {
                    "name": "B5",
                    "midi": 83,
                    "time": 248.0937300000089,
                    "velocity": 0.4566929133858268,
                    "duration": 0.08797649999999635
                },
                {
                    "name": "A#4",
                    "midi": 70,
                    "time": 248.26968300000888,
                    "velocity": 0.3858267716535433,
                    "duration": 0.08797649999999635
                },
                {
                    "name": "C#5",
                    "midi": 73,
                    "time": 248.26968300000888,
                    "velocity": 0.3858267716535433,
                    "duration": 0.08797649999999635
                },
                {
                    "name": "A#5",
                    "midi": 82,
                    "time": 248.26968300000888,
                    "velocity": 0.4566929133858268,
                    "duration": 0.08797649999999635
                },
                {
                    "name": "G#4",
                    "midi": 68,
                    "time": 248.44563600000888,
                    "velocity": 0.3858267716535433,
                    "duration": 0.08797649999999635
                },
                {
                    "name": "B4",
                    "midi": 71,
                    "time": 248.44563600000888,
                    "velocity": 0.3858267716535433,
                    "duration": 0.08797649999999635
                },
                {
                    "name": "G#5",
                    "midi": 80,
                    "time": 248.44563600000888,
                    "velocity": 0.4566929133858268,
                    "duration": 0.08797649999999635
                },
                {
                    "name": "A#4",
                    "midi": 70,
                    "time": 248.62158900000887,
                    "velocity": 0.4566929133858268,
                    "duration": 0.3519060000000138
                },
                {
                    "name": "D#5",
                    "midi": 75,
                    "time": 248.62158900000887,
                    "velocity": 0.4566929133858268,
                    "duration": 0.3519060000000138
                },
                {
                    "name": "A#5",
                    "midi": 82,
                    "time": 248.62158900000887,
                    "velocity": 0.5433070866141733,
                    "duration": 0.3519060000000138
                },
                {
                    "name": "D#5",
                    "midi": 75,
                    "time": 248.97349500000888,
                    "velocity": 0.3937007874015748,
                    "duration": 0.08797649999999635
                },
                {
                    "name": "A#4",
                    "midi": 70,
                    "time": 248.97349500000888,
                    "velocity": 0.3937007874015748,
                    "duration": 0.08797649999999635
                },
                {
                    "name": "A#5",
                    "midi": 82,
                    "time": 248.97349500000888,
                    "velocity": 0.4645669291338583,
                    "duration": 0.08797649999999635
                },
                {
                    "name": "D#5",
                    "midi": 75,
                    "time": 249.14944800000887,
                    "velocity": 0.3937007874015748,
                    "duration": 0.08797649999999635
                },
                {
                    "name": "A#4",
                    "midi": 70,
                    "time": 249.14944800000887,
                    "velocity": 0.3937007874015748,
                    "duration": 0.08797649999999635
                },
                {
                    "name": "A#5",
                    "midi": 82,
                    "time": 249.14944800000887,
                    "velocity": 0.4645669291338583,
                    "duration": 0.08797649999999635
                },
                {
                    "name": "G4",
                    "midi": 67,
                    "time": 249.32540100000887,
                    "velocity": 0.44881889763779526,
                    "duration": 0.08797649999999635
                },
                {
                    "name": "C#5",
                    "midi": 73,
                    "time": 249.32540100000887,
                    "velocity": 0.44881889763779526,
                    "duration": 0.08797649999999635
                },
                {
                    "name": "D#5",
                    "midi": 75,
                    "time": 249.32540100000887,
                    "velocity": 0.5275590551181102,
                    "duration": 0.08797649999999635
                },
                {
                    "name": "G#4",
                    "midi": 68,
                    "time": 249.50135400000886,
                    "velocity": 0.3858267716535433,
                    "duration": 0.08797649999999635
                },
                {
                    "name": "F5",
                    "midi": 77,
                    "time": 249.50135400000886,
                    "velocity": 0.4566929133858268,
                    "duration": 0.08797649999999635
                },
                {
                    "name": "A#4",
                    "midi": 70,
                    "time": 249.67730700000885,
                    "velocity": 0.3858267716535433,
                    "duration": 0.08797649999999635
                },
                {
                    "name": "C#5",
                    "midi": 73,
                    "time": 249.67730700000885,
                    "velocity": 0.3858267716535433,
                    "duration": 0.08797649999999635
                },
                {
                    "name": "G5",
                    "midi": 79,
                    "time": 249.67730700000885,
                    "velocity": 0.4566929133858268,
                    "duration": 0.08797649999999635
                },
                {
                    "name": "G4",
                    "midi": 67,
                    "time": 249.85326000000885,
                    "velocity": 0.3858267716535433,
                    "duration": 0.08797649999999635
                },
                {
                    "name": "D#5",
                    "midi": 75,
                    "time": 249.85326000000885,
                    "velocity": 0.4566929133858268,
                    "duration": 0.08797649999999635
                },
                {
                    "name": "G#4",
                    "midi": 68,
                    "time": 250.02921300000884,
                    "velocity": 0.4566929133858268,
                    "duration": 0.1759529999999927
                },
                {
                    "name": "D#5",
                    "midi": 75,
                    "time": 250.02921300000884,
                    "velocity": 0.4566929133858268,
                    "duration": 0.1759529999999927
                },
                {
                    "name": "G#5",
                    "midi": 80,
                    "time": 250.02921300000884,
                    "velocity": 0.5433070866141733,
                    "duration": 0.1759529999999927
                },
                {
                    "name": "A#4",
                    "midi": 70,
                    "time": 250.73302500000884,
                    "velocity": 0.5196850393700787,
                    "duration": 0.3519060000000138
                },
                {
                    "name": "D#5",
                    "midi": 75,
                    "time": 250.73302500000884,
                    "velocity": 0.5196850393700787,
                    "duration": 0.3519060000000138
                },
                {
                    "name": "G5",
                    "midi": 79,
                    "time": 250.73302500000884,
                    "velocity": 0.5196850393700787,
                    "duration": 0.3519060000000138
                },
                {
                    "name": "A#5",
                    "midi": 82,
                    "time": 250.73302500000884,
                    "velocity": 0.6220472440944882,
                    "duration": 0.3519060000000138
                },
                {
                    "name": "A#4",
                    "midi": 70,
                    "time": 251.08493100000885,
                    "velocity": 0.44881889763779526,
                    "duration": 0.08797649999999635
                },
                {
                    "name": "G5",
                    "midi": 79,
                    "time": 251.08493100000885,
                    "velocity": 0.44881889763779526,
                    "duration": 0.08797649999999635
                },
                {
                    "name": "D#5",
                    "midi": 75,
                    "time": 251.08493100000885,
                    "velocity": 0.44881889763779526,
                    "duration": 0.08797649999999635
                },
                {
                    "name": "A#5",
                    "midi": 82,
                    "time": 251.08493100000885,
                    "velocity": 0.5275590551181102,
                    "duration": 0.08797649999999635
                },
                {
                    "name": "A#4",
                    "midi": 70,
                    "time": 251.26088400000884,
                    "velocity": 0.44881889763779526,
                    "duration": 0.08797649999999635
                },
                {
                    "name": "G5",
                    "midi": 79,
                    "time": 251.26088400000884,
                    "velocity": 0.44881889763779526,
                    "duration": 0.08797649999999635
                },
                {
                    "name": "D#5",
                    "midi": 75,
                    "time": 251.26088400000884,
                    "velocity": 0.44881889763779526,
                    "duration": 0.08797649999999635
                },
                {
                    "name": "A#5",
                    "midi": 82,
                    "time": 251.26088400000884,
                    "velocity": 0.5275590551181102,
                    "duration": 0.08797649999999635
                },
                {
                    "name": "D#5",
                    "midi": 75,
                    "time": 251.43683700000884,
                    "velocity": 0.5196850393700787,
                    "duration": 0.3519060000000138
                },
                {
                    "name": "F#5",
                    "midi": 78,
                    "time": 251.43683700000884,
                    "velocity": 0.5196850393700787,
                    "duration": 0.3519060000000138
                },
                {
                    "name": "D#6",
                    "midi": 87,
                    "time": 251.43683700000884,
                    "velocity": 0.6220472440944882,
                    "duration": 0.3519060000000138
                },
                {
                    "name": "F#5",
                    "midi": 78,
                    "time": 251.78874300000885,
                    "velocity": 0.44881889763779526,
                    "duration": 0.08797649999999635
                },
                {
                    "name": "D#5",
                    "midi": 75,
                    "time": 251.78874300000885,
                    "velocity": 0.44881889763779526,
                    "duration": 0.08797649999999635
                },
                {
                    "name": "D#6",
                    "midi": 87,
                    "time": 251.78874300000885,
                    "velocity": 0.5275590551181102,
                    "duration": 0.08797649999999635
                },
                {
                    "name": "F#5",
                    "midi": 78,
                    "time": 251.96469600000884,
                    "velocity": 0.44881889763779526,
                    "duration": 0.08797649999999635
                },
                {
                    "name": "D#5",
                    "midi": 75,
                    "time": 251.96469600000884,
                    "velocity": 0.44881889763779526,
                    "duration": 0.08797649999999635
                },
                {
                    "name": "D#6",
                    "midi": 87,
                    "time": 251.96469600000884,
                    "velocity": 0.5275590551181102,
                    "duration": 0.08797649999999635
                },
                {
                    "name": "C#5",
                    "midi": 73,
                    "time": 252.14064900000884,
                    "velocity": 0.5118110236220472,
                    "duration": 0.08797649999999635
                },
                {
                    "name": "E5",
                    "midi": 76,
                    "time": 252.14064900000884,
                    "velocity": 0.5118110236220472,
                    "duration": 0.08797649999999635
                },
                {
                    "name": "C#6",
                    "midi": 85,
                    "time": 252.14064900000884,
                    "velocity": 0.6062992125984252,
                    "duration": 0.08797649999999635
                },
                {
                    "name": "B4",
                    "midi": 71,
                    "time": 252.31660200000883,
                    "velocity": 0.4409448818897638,
                    "duration": 0.08797649999999635
                },
                {
                    "name": "D#5",
                    "midi": 75,
                    "time": 252.31660200000883,
                    "velocity": 0.4409448818897638,
                    "duration": 0.08797649999999635
                },
                {
                    "name": "B5",
                    "midi": 83,
                    "time": 252.31660200000883,
                    "velocity": 0.5196850393700787,
                    "duration": 0.08797649999999635
                },
                {
                    "name": "A#4",
                    "midi": 70,
                    "time": 252.49255500000882,
                    "velocity": 0.4409448818897638,
                    "duration": 0.08797649999999635
                },
                {
                    "name": "C#5",
                    "midi": 73,
                    "time": 252.49255500000882,
                    "velocity": 0.4409448818897638,
                    "duration": 0.08797649999999635
                },
                {
                    "name": "A#5",
                    "midi": 82,
                    "time": 252.49255500000882,
                    "velocity": 0.5196850393700787,
                    "duration": 0.08797649999999635
                },
                {
                    "name": "G#4",
                    "midi": 68,
                    "time": 252.6685080000088,
                    "velocity": 0.4409448818897638,
                    "duration": 0.08797649999999635
                },
                {
                    "name": "B4",
                    "midi": 71,
                    "time": 252.6685080000088,
                    "velocity": 0.4409448818897638,
                    "duration": 0.08797649999999635
                },
                {
                    "name": "G#5",
                    "midi": 80,
                    "time": 252.6685080000088,
                    "velocity": 0.5196850393700787,
                    "duration": 0.08797649999999635
                },
                {
                    "name": "A#4",
                    "midi": 70,
                    "time": 252.8444610000088,
                    "velocity": 0.5196850393700787,
                    "duration": 0.3519060000000138
                },
                {
                    "name": "D#5",
                    "midi": 75,
                    "time": 252.8444610000088,
                    "velocity": 0.5196850393700787,
                    "duration": 0.3519060000000138
                },
                {
                    "name": "A#5",
                    "midi": 82,
                    "time": 252.8444610000088,
                    "velocity": 0.6220472440944882,
                    "duration": 0.3519060000000138
                },
                {
                    "name": "D#5",
                    "midi": 75,
                    "time": 253.19636700000882,
                    "velocity": 0.44881889763779526,
                    "duration": 0.08797649999999635
                },
                {
                    "name": "A#4",
                    "midi": 70,
                    "time": 253.19636700000882,
                    "velocity": 0.44881889763779526,
                    "duration": 0.08797649999999635
                },
                {
                    "name": "A#5",
                    "midi": 82,
                    "time": 253.19636700000882,
                    "velocity": 0.5275590551181102,
                    "duration": 0.08797649999999635
                },
                {
                    "name": "D#5",
                    "midi": 75,
                    "time": 253.3723200000088,
                    "velocity": 0.44881889763779526,
                    "duration": 0.08797649999999635
                },
                {
                    "name": "A#4",
                    "midi": 70,
                    "time": 253.3723200000088,
                    "velocity": 0.44881889763779526,
                    "duration": 0.08797649999999635
                },
                {
                    "name": "A#5",
                    "midi": 82,
                    "time": 253.3723200000088,
                    "velocity": 0.5275590551181102,
                    "duration": 0.08797649999999635
                },
                {
                    "name": "G4",
                    "midi": 67,
                    "time": 253.5482730000088,
                    "velocity": 0.5118110236220472,
                    "duration": 0.08797649999999635
                },
                {
                    "name": "C#5",
                    "midi": 73,
                    "time": 253.5482730000088,
                    "velocity": 0.5118110236220472,
                    "duration": 0.08797649999999635
                },
                {
                    "name": "D#5",
                    "midi": 75,
                    "time": 253.5482730000088,
                    "velocity": 0.6062992125984252,
                    "duration": 0.08797649999999635
                },
                {
                    "name": "G#4",
                    "midi": 68,
                    "time": 253.7242260000088,
                    "velocity": 0.4409448818897638,
                    "duration": 0.08797649999999635
                },
                {
                    "name": "F5",
                    "midi": 77,
                    "time": 253.7242260000088,
                    "velocity": 0.5196850393700787,
                    "duration": 0.08797649999999635
                },
                {
                    "name": "A#4",
                    "midi": 70,
                    "time": 253.9001790000088,
                    "velocity": 0.4409448818897638,
                    "duration": 0.08797649999999635
                },
                {
                    "name": "C#5",
                    "midi": 73,
                    "time": 253.9001790000088,
                    "velocity": 0.4409448818897638,
                    "duration": 0.08797649999999635
                },
                {
                    "name": "G5",
                    "midi": 79,
                    "time": 253.9001790000088,
                    "velocity": 0.5196850393700787,
                    "duration": 0.08797649999999635
                },
                {
                    "name": "G4",
                    "midi": 67,
                    "time": 254.07613200000878,
                    "velocity": 0.4409448818897638,
                    "duration": 0.08797649999999635
                },
                {
                    "name": "D#5",
                    "midi": 75,
                    "time": 254.07613200000878,
                    "velocity": 0.5196850393700787,
                    "duration": 0.08797649999999635
                },
                {
                    "name": "G#4",
                    "midi": 68,
                    "time": 254.25208500000878,
                    "velocity": 0.5196850393700787,
                    "duration": 0.1759529999999927
                },
                {
                    "name": "D#5",
                    "midi": 75,
                    "time": 254.25208500000878,
                    "velocity": 0.5196850393700787,
                    "duration": 0.1759529999999927
                },
                {
                    "name": "G#5",
                    "midi": 80,
                    "time": 254.25208500000878,
                    "velocity": 0.6220472440944882,
                    "duration": 0.1759529999999927
                },
                {
                    "name": "B4",
                    "midi": 71,
                    "time": 254.95589700000878,
                    "velocity": 0.2755905511811024,
                    "duration": 0.7038119999999992
                },
                {
                    "name": "A5",
                    "midi": 81,
                    "time": 254.95589700000878,
                    "velocity": 0.3937007874015748,
                    "duration": 0.26392949999998905
                },
                {
                    "name": "B5",
                    "midi": 83,
                    "time": 255.21982650000876,
                    "velocity": 0.28346456692913385,
                    "duration": 0.043988250000012385
                },
                {
                    "name": "A5",
                    "midi": 81,
                    "time": 255.26381475000878,
                    "velocity": 0.28346456692913385,
                    "duration": 0.043988250000012385
                },
                {
                    "name": "G#5",
                    "midi": 80,
                    "time": 255.3078030000088,
                    "velocity": 0.3937007874015748,
                    "duration": 0.1759529999999927
                },
                {
                    "name": "F#5",
                    "midi": 78,
                    "time": 255.48375600000878,
                    "velocity": 0.3228346456692913,
                    "duration": 0.1759529999999927
                },
                {
                    "name": "B4",
                    "midi": 71,
                    "time": 255.65970900000877,
                    "velocity": 0.2283464566929134,
                    "duration": 0.7038119999999708
                },
                {
                    "name": "B5",
                    "midi": 83,
                    "time": 255.65970900000877,
                    "velocity": 0.33858267716535434,
                    "duration": 0.1759529999999927
                },
                {
                    "name": "D#5",
                    "midi": 75,
                    "time": 255.83566200000877,
                    "velocity": 0.3543307086614173,
                    "duration": 0.13196475000000873
                },
                {
                    "name": "F#5",
                    "midi": 78,
                    "time": 255.96762675000878,
                    "velocity": 0.2755905511811024,
                    "duration": 0.043988249999983964
                },
                {
                    "name": "E5",
                    "midi": 76,
                    "time": 256.01161500000876,
                    "velocity": 0.33858267716535434,
                    "duration": 0.3519059999999854
                },
                {
                    "name": "B4",
                    "midi": 71,
                    "time": 256.36352100000875,
                    "velocity": 0.2755905511811024,
                    "duration": 0.7038119999999708
                },
                {
                    "name": "A5",
                    "midi": 81,
                    "time": 256.36352100000875,
                    "velocity": 0.3937007874015748,
                    "duration": 0.26392950000001747
                },
                {
                    "name": "B5",
                    "midi": 83,
                    "time": 256.62745050000876,
                    "velocity": 0.28346456692913385,
                    "duration": 0.043988249999983964
                },
                {
                    "name": "A5",
                    "midi": 81,
                    "time": 256.67143875000875,
                    "velocity": 0.28346456692913385,
                    "duration": 0.043988249999983964
                },
                {
                    "name": "G#5",
                    "midi": 80,
                    "time": 256.71542700000873,
                    "velocity": 0.3937007874015748,
                    "duration": 0.1759529999999927
                },
                {
                    "name": "F#5",
                    "midi": 78,
                    "time": 256.8913800000087,
                    "velocity": 0.3228346456692913,
                    "duration": 0.1759529999999927
                },
                {
                    "name": "B4",
                    "midi": 71,
                    "time": 257.0673330000087,
                    "velocity": 0.2283464566929134,
                    "duration": 0.7038119999999708
                },
                {
                    "name": "B5",
                    "midi": 83,
                    "time": 257.0673330000087,
                    "velocity": 0.3464566929133858,
                    "duration": 0.1759529999999927
                },
                {
                    "name": "D#5",
                    "midi": 75,
                    "time": 257.2432860000087,
                    "velocity": 0.3543307086614173,
                    "duration": 0.13196475000000873
                },
                {
                    "name": "F#5",
                    "midi": 78,
                    "time": 257.3752507500087,
                    "velocity": 0.2755905511811024,
                    "duration": 0.043988249999983964
                },
                {
                    "name": "E5",
                    "midi": 76,
                    "time": 257.4192390000087,
                    "velocity": 0.33858267716535434,
                    "duration": 0.3519059999999854
                },
                {
                    "name": "F#3",
                    "midi": 54,
                    "time": 257.8591215000087,
                    "velocity": 0.28346456692913385,
                    "duration": 0.08797650000002477
                },
                {
                    "name": "A#3",
                    "midi": 58,
                    "time": 257.94709800000874,
                    "velocity": 0.3228346456692913,
                    "duration": 0.08797650000002477
                },
                {
                    "name": "F#4",
                    "midi": 66,
                    "time": 258.03507450000876,
                    "velocity": 0.28346456692913385,
                    "duration": 0.08797650000002477
                },
                {
                    "name": "E4",
                    "midi": 64,
                    "time": 258.03507450000876,
                    "velocity": 0.2204724409448819,
                    "duration": 0.08797650000002477
                },
                {
                    "name": "F#3",
                    "midi": 54,
                    "time": 258.2110275000088,
                    "velocity": 0.1889763779527559,
                    "duration": 0.08797650000002477
                },
                {
                    "name": "B3",
                    "midi": 59,
                    "time": 258.29900400000884,
                    "velocity": 0.2125984251968504,
                    "duration": 0.08797650000002477
                },
                {
                    "name": "F#4",
                    "midi": 66,
                    "time": 258.38698050000886,
                    "velocity": 0.1889763779527559,
                    "duration": 0.08797650000002477
                },
                {
                    "name": "D#4",
                    "midi": 63,
                    "time": 258.38698050000886,
                    "velocity": 0.14960629921259844,
                    "duration": 0.08797650000002477
                },
                {
                    "name": "B4",
                    "midi": 71,
                    "time": 258.4749570000089,
                    "velocity": 0.2755905511811024,
                    "duration": 0.7038119999999708
                },
                {
                    "name": "A5",
                    "midi": 81,
                    "time": 258.4749570000089,
                    "velocity": 0.3937007874015748,
                    "duration": 0.26392950000001747
                },
                {
                    "name": "B5",
                    "midi": 83,
                    "time": 258.7388865000089,
                    "velocity": 0.28346456692913385,
                    "duration": 0.043988249999983964
                },
                {
                    "name": "A5",
                    "midi": 81,
                    "time": 258.7828747500089,
                    "velocity": 0.28346456692913385,
                    "duration": 0.043988249999983964
                },
                {
                    "name": "G#5",
                    "midi": 80,
                    "time": 258.82686300000887,
                    "velocity": 0.3937007874015748,
                    "duration": 0.1759529999999927
                },
                {
                    "name": "F#5",
                    "midi": 78,
                    "time": 259.00281600000886,
                    "velocity": 0.3228346456692913,
                    "duration": 0.1759529999999927
                },
                {
                    "name": "B4",
                    "midi": 71,
                    "time": 259.17876900000886,
                    "velocity": 0.2283464566929134,
                    "duration": 0.7038119999999708
                },
                {
                    "name": "B5",
                    "midi": 83,
                    "time": 259.17876900000886,
                    "velocity": 0.33858267716535434,
                    "duration": 0.1759529999999927
                },
                {
                    "name": "D#5",
                    "midi": 75,
                    "time": 259.35472200000885,
                    "velocity": 0.3543307086614173,
                    "duration": 0.13196475000000873
                },
                {
                    "name": "F#5",
                    "midi": 78,
                    "time": 259.48668675000886,
                    "velocity": 0.2755905511811024,
                    "duration": 0.043988249999983964
                },
                {
                    "name": "E5",
                    "midi": 76,
                    "time": 259.53067500000884,
                    "velocity": 0.33858267716535434,
                    "duration": 0.3519059999999854
                },
                {
                    "name": "B4",
                    "midi": 71,
                    "time": 259.8825810000088,
                    "velocity": 0.2755905511811024,
                    "duration": 0.7038119999999708
                },
                {
                    "name": "A5",
                    "midi": 81,
                    "time": 259.8825810000088,
                    "velocity": 0.3937007874015748,
                    "duration": 0.26392950000001747
                },
                {
                    "name": "B5",
                    "midi": 83,
                    "time": 260.14651050000884,
                    "velocity": 0.28346456692913385,
                    "duration": 0.043988249999983964
                },
                {
                    "name": "A5",
                    "midi": 81,
                    "time": 260.1904987500088,
                    "velocity": 0.28346456692913385,
                    "duration": 0.043988249999983964
                },
                {
                    "name": "G#5",
                    "midi": 80,
                    "time": 260.2344870000088,
                    "velocity": 0.3937007874015748,
                    "duration": 0.1759529999999927
                },
                {
                    "name": "F#5",
                    "midi": 78,
                    "time": 260.4104400000088,
                    "velocity": 0.3228346456692913,
                    "duration": 0.1759529999999927
                },
                {
                    "name": "B4",
                    "midi": 71,
                    "time": 260.5863930000088,
                    "velocity": 0.2283464566929134,
                    "duration": 0.7038119999999708
                },
                {
                    "name": "B5",
                    "midi": 83,
                    "time": 260.5863930000088,
                    "velocity": 0.3464566929133858,
                    "duration": 0.1759529999999927
                },
                {
                    "name": "D#5",
                    "midi": 75,
                    "time": 260.7623460000088,
                    "velocity": 0.3543307086614173,
                    "duration": 0.13196475000000873
                },
                {
                    "name": "F#5",
                    "midi": 78,
                    "time": 260.8943107500088,
                    "velocity": 0.2755905511811024,
                    "duration": 0.043988249999983964
                },
                {
                    "name": "E5",
                    "midi": 76,
                    "time": 260.9382990000088,
                    "velocity": 0.33858267716535434,
                    "duration": 0.3519059999999854
                },
                {
                    "name": "F#3",
                    "midi": 54,
                    "time": 261.3781815000088,
                    "velocity": 0.28346456692913385,
                    "duration": 0.08797650000002477
                },
                {
                    "name": "A#3",
                    "midi": 58,
                    "time": 261.4661580000088,
                    "velocity": 0.3228346456692913,
                    "duration": 0.08797650000002477
                },
                {
                    "name": "F#4",
                    "midi": 66,
                    "time": 261.55413450000884,
                    "velocity": 0.28346456692913385,
                    "duration": 0.08797650000002477
                },
                {
                    "name": "E4",
                    "midi": 64,
                    "time": 261.55413450000884,
                    "velocity": 0.2204724409448819,
                    "duration": 0.08797650000002477
                },
                {
                    "name": "F#3",
                    "midi": 54,
                    "time": 261.7300875000089,
                    "velocity": 0.1889763779527559,
                    "duration": 0.08797650000002477
                },
                {
                    "name": "B3",
                    "midi": 59,
                    "time": 261.8180640000089,
                    "velocity": 0.2125984251968504,
                    "duration": 0.08797650000002477
                },
                {
                    "name": "F#4",
                    "midi": 66,
                    "time": 261.90604050000894,
                    "velocity": 0.1889763779527559,
                    "duration": 0.08797650000002477
                },
                {
                    "name": "D#4",
                    "midi": 63,
                    "time": 261.90604050000894,
                    "velocity": 0.14960629921259844,
                    "duration": 0.08797650000002477
                },
                {
                    "name": "B4",
                    "midi": 71,
                    "time": 261.99401700000897,
                    "velocity": 0.2755905511811024,
                    "duration": 0.7038119999999708
                },
                {
                    "name": "F#5",
                    "midi": 78,
                    "time": 261.99401700000897,
                    "velocity": 0.3937007874015748,
                    "duration": 0.26392950000001747
                },
                {
                    "name": "G#5",
                    "midi": 80,
                    "time": 262.257946500009,
                    "velocity": 0.28346456692913385,
                    "duration": 0.043988249999983964
                },
                {
                    "name": "F#5",
                    "midi": 78,
                    "time": 262.30193475000897,
                    "velocity": 0.28346456692913385,
                    "duration": 0.043988249999983964
                },
                {
                    "name": "F5",
                    "midi": 77,
                    "time": 262.34592300000895,
                    "velocity": 0.3937007874015748,
                    "duration": 0.1759529999999927
                },
                {
                    "name": "F#5",
                    "midi": 78,
                    "time": 262.52187600000894,
                    "velocity": 0.3228346456692913,
                    "duration": 0.13196475000000873
                },
                {
                    "name": "A5",
                    "midi": 81,
                    "time": 262.65384075000895,
                    "velocity": 0.2755905511811024,
                    "duration": 0.043988249999983964
                },
                {
                    "name": "B4",
                    "midi": 71,
                    "time": 262.69782900000894,
                    "velocity": 0.2283464566929134,
                    "duration": 0.3519059999999854
                },
                {
                    "name": "G#5",
                    "midi": 80,
                    "time": 262.69782900000894,
                    "velocity": 0.33858267716535434,
                    "duration": 0.30791775000000143
                },
                {
                    "name": "G#5",
                    "midi": 80,
                    "time": 263.00574675000894,
                    "velocity": 0.2755905511811024,
                    "duration": 0.043988249999983964
                },
                {
                    "name": "B4",
                    "midi": 71,
                    "time": 263.0497350000089,
                    "velocity": 0.2283464566929134,
                    "duration": 0.3519059999999854
                },
                {
                    "name": "F#5",
                    "midi": 78,
                    "time": 263.0497350000089,
                    "velocity": 0.33858267716535434,
                    "duration": 0.3519059999999854
                },
                {
                    "name": "F#3",
                    "midi": 54,
                    "time": 263.48961750000893,
                    "velocity": 0.28346456692913385,
                    "duration": 0.08797650000002477
                },
                {
                    "name": "A#3",
                    "midi": 58,
                    "time": 263.57759400000896,
                    "velocity": 0.3228346456692913,
                    "duration": 0.08797650000002477
                },
                {
                    "name": "F#4",
                    "midi": 66,
                    "time": 263.665570500009,
                    "velocity": 0.28346456692913385,
                    "duration": 0.08797650000002477
                },
                {
                    "name": "E4",
                    "midi": 64,
                    "time": 263.665570500009,
                    "velocity": 0.2204724409448819,
                    "duration": 0.08797650000002477
                },
                {
                    "name": "F#3",
                    "midi": 54,
                    "time": 263.84152350000903,
                    "velocity": 0.1889763779527559,
                    "duration": 0.08797650000002477
                },
                {
                    "name": "B3",
                    "midi": 59,
                    "time": 263.92950000000906,
                    "velocity": 0.2125984251968504,
                    "duration": 0.08797650000002477
                },
                {
                    "name": "F#4",
                    "midi": 66,
                    "time": 264.0174765000091,
                    "velocity": 0.1889763779527559,
                    "duration": 0.043988249999983964
                },
                {
                    "name": "D#4",
                    "midi": 63,
                    "time": 264.0174765000091,
                    "velocity": 0.14960629921259844,
                    "duration": 0.043988249999983964
                },
                {
                    "name": "A5",
                    "midi": 81,
                    "time": 264.06146475000907,
                    "velocity": 0.29133858267716534,
                    "duration": 0.043988249999983964
                },
                {
                    "name": "G#5",
                    "midi": 80,
                    "time": 264.10545300000905,
                    "velocity": 0.3937007874015748,
                    "duration": 0.08797650000002477
                },
                {
                    "name": "G#5",
                    "midi": 80,
                    "time": 264.23741775000906,
                    "velocity": 0.29133858267716534,
                    "duration": 0.043988249999983964
                },
                {
                    "name": "F#5",
                    "midi": 78,
                    "time": 264.28140600000904,
                    "velocity": 0.3937007874015748,
                    "duration": 0.08797650000002477
                },
                {
                    "name": "F#5",
                    "midi": 78,
                    "time": 264.41337075000905,
                    "velocity": 0.29133858267716534,
                    "duration": 0.043988249999983964
                },
                {
                    "name": "F5",
                    "midi": 77,
                    "time": 264.45735900000903,
                    "velocity": 0.3937007874015748,
                    "duration": 0.08797650000002477
                },
                {
                    "name": "F5",
                    "midi": 77,
                    "time": 264.58932375000904,
                    "velocity": 0.29133858267716534,
                    "duration": 0.043988249999983964
                },
                {
                    "name": "D5",
                    "midi": 74,
                    "time": 264.633312000009,
                    "velocity": 0.3937007874015748,
                    "duration": 0.08797650000002477
                },
                {
                    "name": "C#5",
                    "midi": 73,
                    "time": 264.8092650000091,
                    "velocity": 0.3937007874015748,
                    "duration": 0.08797650000002477
                },
                {
                    "name": "C#6",
                    "midi": 85,
                    "time": 264.9852180000091,
                    "velocity": 0.3937007874015748,
                    "duration": 0.08797650000002477
                },
                {
                    "name": "C#6",
                    "midi": 85,
                    "time": 265.1611710000092,
                    "velocity": 0.3937007874015748,
                    "duration": 0.08797650000002477
                },
                {
                    "name": "C#7",
                    "midi": 97,
                    "time": 265.3371240000092,
                    "velocity": 0.3937007874015748,
                    "duration": 0.08797650000002477
                },
                {
                    "name": "F#3",
                    "midi": 54,
                    "time": 265.60105350000924,
                    "velocity": 0.25196850393700787,
                    "duration": 0.08797650000002477
                },
                {
                    "name": "A#3",
                    "midi": 58,
                    "time": 265.68903000000927,
                    "velocity": 0.28346456692913385,
                    "duration": 0.08797650000002477
                },
                {
                    "name": "F#4",
                    "midi": 66,
                    "time": 265.7770065000093,
                    "velocity": 0.25196850393700787,
                    "duration": 0.08797650000002477
                },
                {
                    "name": "E4",
                    "midi": 64,
                    "time": 265.7770065000093,
                    "velocity": 0.1968503937007874,
                    "duration": 0.08797650000002477
                },
                {
                    "name": "F#3",
                    "midi": 54,
                    "time": 265.95295950000934,
                    "velocity": 0.16535433070866143,
                    "duration": 0.08797650000002477
                },
                {
                    "name": "B3",
                    "midi": 59,
                    "time": 266.04093600000937,
                    "velocity": 0.1889763779527559,
                    "duration": 0.08797650000002477
                },
                {
                    "name": "F#4",
                    "midi": 66,
                    "time": 266.1289125000094,
                    "velocity": 0.16535433070866143,
                    "duration": 0.08797650000002477
                },
                {
                    "name": "D#4",
                    "midi": 63,
                    "time": 266.1289125000094,
                    "velocity": 0.13385826771653545,
                    "duration": 0.08797650000002477
                },
                {
                    "name": "B4",
                    "midi": 71,
                    "time": 266.2168890000094,
                    "velocity": 0.2755905511811024,
                    "duration": 0.7038119999999708
                },
                {
                    "name": "F#5",
                    "midi": 78,
                    "time": 266.2168890000094,
                    "velocity": 0.3937007874015748,
                    "duration": 0.26392950000001747
                },
                {
                    "name": "G#5",
                    "midi": 80,
                    "time": 266.48081850000943,
                    "velocity": 0.28346456692913385,
                    "duration": 0.043988249999983964
                },
                {
                    "name": "F#5",
                    "midi": 78,
                    "time": 266.5248067500094,
                    "velocity": 0.28346456692913385,
                    "duration": 0.043988249999983964
                },
                {
                    "name": "F5",
                    "midi": 77,
                    "time": 266.5687950000094,
                    "velocity": 0.3937007874015748,
                    "duration": 0.1759529999999927
                },
                {
                    "name": "F#5",
                    "midi": 78,
                    "time": 266.7447480000094,
                    "velocity": 0.3228346456692913,
                    "duration": 0.13196475000000873
                },
                {
                    "name": "A5",
                    "midi": 81,
                    "time": 266.8767127500094,
                    "velocity": 0.2755905511811024,
                    "duration": 0.043988249999983964
                },
                {
                    "name": "B4",
                    "midi": 71,
                    "time": 266.9207010000094,
                    "velocity": 0.2283464566929134,
                    "duration": 0.3519059999999854
                },
                {
                    "name": "G#5",
                    "midi": 80,
                    "time": 266.9207010000094,
                    "velocity": 0.33858267716535434,
                    "duration": 0.30791775000000143
                },
                {
                    "name": "G#5",
                    "midi": 80,
                    "time": 267.2286187500094,
                    "velocity": 0.2755905511811024,
                    "duration": 0.043988249999983964
                },
                {
                    "name": "B4",
                    "midi": 71,
                    "time": 267.2726070000094,
                    "velocity": 0.2283464566929134,
                    "duration": 0.3519059999999854
                },
                {
                    "name": "F#5",
                    "midi": 78,
                    "time": 267.2726070000094,
                    "velocity": 0.33858267716535434,
                    "duration": 0.3519059999999854
                },
                {
                    "name": "F#3",
                    "midi": 54,
                    "time": 267.7124895000094,
                    "velocity": 0.25196850393700787,
                    "duration": 0.08797650000002477
                },
                {
                    "name": "A#3",
                    "midi": 58,
                    "time": 267.8004660000094,
                    "velocity": 0.28346456692913385,
                    "duration": 0.08797650000002477
                },
                {
                    "name": "F#4",
                    "midi": 66,
                    "time": 267.88844250000943,
                    "velocity": 0.25196850393700787,
                    "duration": 0.08797650000002477
                },
                {
                    "name": "E4",
                    "midi": 64,
                    "time": 267.88844250000943,
                    "velocity": 0.1968503937007874,
                    "duration": 0.08797650000002477
                },
                {
                    "name": "F#3",
                    "midi": 54,
                    "time": 268.0643955000095,
                    "velocity": 0.16535433070866143,
                    "duration": 0.08797650000002477
                },
                {
                    "name": "B3",
                    "midi": 59,
                    "time": 268.1523720000095,
                    "velocity": 0.1889763779527559,
                    "duration": 0.08797650000002477
                },
                {
                    "name": "F#4",
                    "midi": 66,
                    "time": 268.24034850000953,
                    "velocity": 0.1889763779527559,
                    "duration": 0.043988249999983964
                },
                {
                    "name": "D#4",
                    "midi": 63,
                    "time": 268.24034850000953,
                    "velocity": 0.14960629921259844,
                    "duration": 0.043988249999983964
                },
                {
                    "name": "A5",
                    "midi": 81,
                    "time": 268.2843367500095,
                    "velocity": 0.29133858267716534,
                    "duration": 0.043988249999983964
                },
                {
                    "name": "G#5",
                    "midi": 80,
                    "time": 268.3283250000095,
                    "velocity": 0.3937007874015748,
                    "duration": 0.08797650000002477
                },
                {
                    "name": "G#5",
                    "midi": 80,
                    "time": 268.4602897500095,
                    "velocity": 0.29133858267716534,
                    "duration": 0.043988249999983964
                },
                {
                    "name": "F#5",
                    "midi": 78,
                    "time": 268.5042780000095,
                    "velocity": 0.3937007874015748,
                    "duration": 0.08797650000002477
                },
                {
                    "name": "F#5",
                    "midi": 78,
                    "time": 268.6362427500095,
                    "velocity": 0.29133858267716534,
                    "duration": 0.043988249999983964
                },
                {
                    "name": "F5",
                    "midi": 77,
                    "time": 268.6802310000095,
                    "velocity": 0.3937007874015748,
                    "duration": 0.08797650000002477
                },
                {
                    "name": "F5",
                    "midi": 77,
                    "time": 268.8121957500095,
                    "velocity": 0.29133858267716534,
                    "duration": 0.043988249999983964
                },
                {
                    "name": "D5",
                    "midi": 74,
                    "time": 268.8561840000095,
                    "velocity": 0.3937007874015748,
                    "duration": 0.08797650000002477
                },
                {
                    "name": "C#5",
                    "midi": 73,
                    "time": 269.0321370000095,
                    "velocity": 0.3937007874015748,
                    "duration": 0.08797650000002477
                },
                {
                    "name": "C#6",
                    "midi": 85,
                    "time": 269.2080900000096,
                    "velocity": 0.3937007874015748,
                    "duration": 0.08797650000002477
                },
                {
                    "name": "C#6",
                    "midi": 85,
                    "time": 269.3840430000096,
                    "velocity": 0.3937007874015748,
                    "duration": 0.08797650000002477
                },
                {
                    "name": "C#7",
                    "midi": 97,
                    "time": 269.5599960000097,
                    "velocity": 0.3937007874015748,
                    "duration": 0.08797650000002477
                },
                {
                    "name": "F#3",
                    "midi": 54,
                    "time": 269.8239255000097,
                    "velocity": 0.23622047244094488,
                    "duration": 0.08797650000002477
                },
                {
                    "name": "A#3",
                    "midi": 58,
                    "time": 269.9119020000097,
                    "velocity": 0.2677165354330709,
                    "duration": 0.08797650000002477
                },
                {
                    "name": "F#4",
                    "midi": 66,
                    "time": 269.99987850000974,
                    "velocity": 0.23622047244094488,
                    "duration": 0.08797650000002477
                },
                {
                    "name": "E4",
                    "midi": 64,
                    "time": 269.99987850000974,
                    "velocity": 0.18110236220472442,
                    "duration": 0.08797650000002477
                },
                {
                    "name": "F#3",
                    "midi": 54,
                    "time": 270.1758315000098,
                    "velocity": 0.15748031496062992,
                    "duration": 0.08797650000002477
                },
                {
                    "name": "B3",
                    "midi": 59,
                    "time": 270.2638080000098,
                    "velocity": 0.1732283464566929,
                    "duration": 0.08797650000002477
                },
                {
                    "name": "F#4",
                    "midi": 66,
                    "time": 270.35178450000984,
                    "velocity": 0.15748031496062992,
                    "duration": 0.08797650000002477
                },
                {
                    "name": "D#4",
                    "midi": 63,
                    "time": 270.35178450000984,
                    "velocity": 0.12598425196850394,
                    "duration": 0.08797650000002477
                },
                {
                    "name": "A5",
                    "midi": 81,
                    "time": 270.43976100000987,
                    "velocity": 0.33070866141732286,
                    "duration": 0.3519059999999854
                },
                {
                    "name": "A6",
                    "midi": 93,
                    "time": 270.43976100000987,
                    "velocity": 0.3937007874015748,
                    "duration": 0.26392950000001747
                },
                {
                    "name": "B6",
                    "midi": 95,
                    "time": 270.7036905000099,
                    "velocity": 0.28346456692913385,
                    "duration": 0.043988249999983964
                },
                {
                    "name": "A6",
                    "midi": 93,
                    "time": 270.74767875000987,
                    "velocity": 0.28346456692913385,
                    "duration": 0.043988249999983964
                },
                {
                    "name": "G#5",
                    "midi": 80,
                    "time": 270.79166700000985,
                    "velocity": 0.33070866141732286,
                    "duration": 0.1759529999999927
                },
                {
                    "name": "G#6",
                    "midi": 92,
                    "time": 270.79166700000985,
                    "velocity": 0.3937007874015748,
                    "duration": 0.1759529999999927
                },
                {
                    "name": "F#5",
                    "midi": 78,
                    "time": 270.96762000000984,
                    "velocity": 0.2677165354330709,
                    "duration": 0.1759529999999927
                },
                {
                    "name": "F#6",
                    "midi": 90,
                    "time": 270.96762000000984,
                    "velocity": 0.3228346456692913,
                    "duration": 0.1759529999999927
                },
                {
                    "name": "B5",
                    "midi": 83,
                    "time": 271.14357300000984,
                    "velocity": 0.28346456692913385,
                    "duration": 0.1759529999999927
                },
                {
                    "name": "B6",
                    "midi": 95,
                    "time": 271.14357300000984,
                    "velocity": 0.33858267716535434,
                    "duration": 0.1759529999999927
                },
                {
                    "name": "D#5",
                    "midi": 75,
                    "time": 271.31952600000983,
                    "velocity": 0.2992125984251969,
                    "duration": 0.1759529999999927
                },
                {
                    "name": "D#6",
                    "midi": 87,
                    "time": 271.31952600000983,
                    "velocity": 0.3543307086614173,
                    "duration": 0.13196475000000873
                },
                {
                    "name": "F#6",
                    "midi": 90,
                    "time": 271.45149075000984,
                    "velocity": 0.2755905511811024,
                    "duration": 0.043988249999983964
                },
                {
                    "name": "E5",
                    "midi": 76,
                    "time": 271.4954790000098,
                    "velocity": 0.28346456692913385,
                    "duration": 0.3519059999999854
                },
                {
                    "name": "E6",
                    "midi": 88,
                    "time": 271.4954790000098,
                    "velocity": 0.33858267716535434,
                    "duration": 0.3519059999999854
                },
                {
                    "name": "A5",
                    "midi": 81,
                    "time": 271.8473850000098,
                    "velocity": 0.33070866141732286,
                    "duration": 0.3519059999999854
                },
                {
                    "name": "A6",
                    "midi": 93,
                    "time": 271.8473850000098,
                    "velocity": 0.3937007874015748,
                    "duration": 0.26392950000001747
                },
                {
                    "name": "B6",
                    "midi": 95,
                    "time": 272.1113145000098,
                    "velocity": 0.28346456692913385,
                    "duration": 0.043988249999983964
                },
                {
                    "name": "A6",
                    "midi": 93,
                    "time": 272.1553027500098,
                    "velocity": 0.28346456692913385,
                    "duration": 0.043988249999983964
                },
                {
                    "name": "G#5",
                    "midi": 80,
                    "time": 272.1992910000098,
                    "velocity": 0.33070866141732286,
                    "duration": 0.1759529999999927
                },
                {
                    "name": "G#6",
                    "midi": 92,
                    "time": 272.1992910000098,
                    "velocity": 0.3937007874015748,
                    "duration": 0.1759529999999927
                },
                {
                    "name": "F#5",
                    "midi": 78,
                    "time": 272.3752440000098,
                    "velocity": 0.2677165354330709,
                    "duration": 0.1759529999999927
                },
                {
                    "name": "F#6",
                    "midi": 90,
                    "time": 272.3752440000098,
                    "velocity": 0.3228346456692913,
                    "duration": 0.1759529999999927
                },
                {
                    "name": "B5",
                    "midi": 83,
                    "time": 272.5511970000098,
                    "velocity": 0.29133858267716534,
                    "duration": 0.1759529999999927
                },
                {
                    "name": "B6",
                    "midi": 95,
                    "time": 272.5511970000098,
                    "velocity": 0.3464566929133858,
                    "duration": 0.1759529999999927
                },
                {
                    "name": "D#5",
                    "midi": 75,
                    "time": 272.7271500000098,
                    "velocity": 0.2992125984251969,
                    "duration": 0.1759529999999927
                },
                {
                    "name": "D#6",
                    "midi": 87,
                    "time": 272.7271500000098,
                    "velocity": 0.3543307086614173,
                    "duration": 0.13196475000000873
                },
                {
                    "name": "F#6",
                    "midi": 90,
                    "time": 272.8591147500098,
                    "velocity": 0.2755905511811024,
                    "duration": 0.043988249999983964
                },
                {
                    "name": "E5",
                    "midi": 76,
                    "time": 272.90310300000976,
                    "velocity": 0.28346456692913385,
                    "duration": 0.3519059999999854
                },
                {
                    "name": "E6",
                    "midi": 88,
                    "time": 272.90310300000976,
                    "velocity": 0.33858267716535434,
                    "duration": 0.3519059999999854
                },
                {
                    "name": "F#3",
                    "midi": 54,
                    "time": 273.3429855000098,
                    "velocity": 0.2677165354330709,
                    "duration": 0.08797650000002477
                },
                {
                    "name": "A#3",
                    "midi": 58,
                    "time": 273.4309620000098,
                    "velocity": 0.2992125984251969,
                    "duration": 0.08797650000002477
                },
                {
                    "name": "F#4",
                    "midi": 66,
                    "time": 273.5189385000098,
                    "velocity": 0.2677165354330709,
                    "duration": 0.08797650000002477
                },
                {
                    "name": "E4",
                    "midi": 64,
                    "time": 273.5189385000098,
                    "velocity": 0.2047244094488189,
                    "duration": 0.08797650000002477
                },
                {
                    "name": "F#3",
                    "midi": 54,
                    "time": 273.6948915000099,
                    "velocity": 0.1732283464566929,
                    "duration": 0.08797650000002477
                },
                {
                    "name": "B3",
                    "midi": 59,
                    "time": 273.7828680000099,
                    "velocity": 0.1968503937007874,
                    "duration": 0.08797650000002477
                },
                {
                    "name": "F#4",
                    "midi": 66,
                    "time": 273.8708445000099,
                    "velocity": 0.1732283464566929,
                    "duration": 0.08797650000002477
                },
                {
                    "name": "D#4",
                    "midi": 63,
                    "time": 273.8708445000099,
                    "velocity": 0.14173228346456693,
                    "duration": 0.08797650000002477
                },
                {
                    "name": "A5",
                    "midi": 81,
                    "time": 273.95882100000995,
                    "velocity": 0.33070866141732286,
                    "duration": 0.3519059999999854
                },
                {
                    "name": "A6",
                    "midi": 93,
                    "time": 273.95882100000995,
                    "velocity": 0.3937007874015748,
                    "duration": 0.26392950000001747
                },
                {
                    "name": "B6",
                    "midi": 95,
                    "time": 274.22275050000997,
                    "velocity": 0.28346456692913385,
                    "duration": 0.043988249999983964
                },
                {
                    "name": "A6",
                    "midi": 93,
                    "time": 274.26673875000995,
                    "velocity": 0.28346456692913385,
                    "duration": 0.043988249999983964
                },
                {
                    "name": "G#5",
                    "midi": 80,
                    "time": 274.31072700000993,
                    "velocity": 0.33070866141732286,
                    "duration": 0.1759529999999927
                },
                {
                    "name": "G#6",
                    "midi": 92,
                    "time": 274.31072700000993,
                    "velocity": 0.3937007874015748,
                    "duration": 0.1759529999999927
                },
                {
                    "name": "F#5",
                    "midi": 78,
                    "time": 274.4866800000099,
                    "velocity": 0.2677165354330709,
                    "duration": 0.1759529999999927
                },
                {
                    "name": "F#6",
                    "midi": 90,
                    "time": 274.4866800000099,
                    "velocity": 0.3228346456692913,
                    "duration": 0.1759529999999927
                },
                {
                    "name": "B5",
                    "midi": 83,
                    "time": 274.6626330000099,
                    "velocity": 0.28346456692913385,
                    "duration": 0.1759529999999927
                },
                {
                    "name": "B6",
                    "midi": 95,
                    "time": 274.6626330000099,
                    "velocity": 0.33858267716535434,
                    "duration": 0.1759529999999927
                },
                {
                    "name": "D#5",
                    "midi": 75,
                    "time": 274.8385860000099,
                    "velocity": 0.2992125984251969,
                    "duration": 0.1759529999999927
                },
                {
                    "name": "D#6",
                    "midi": 87,
                    "time": 274.8385860000099,
                    "velocity": 0.3543307086614173,
                    "duration": 0.13196475000000873
                },
                {
                    "name": "F#6",
                    "midi": 90,
                    "time": 274.9705507500099,
                    "velocity": 0.2755905511811024,
                    "duration": 0.043988249999983964
                },
                {
                    "name": "E5",
                    "midi": 76,
                    "time": 275.0145390000099,
                    "velocity": 0.28346456692913385,
                    "duration": 0.3519059999999854
                },
                {
                    "name": "E6",
                    "midi": 88,
                    "time": 275.0145390000099,
                    "velocity": 0.33858267716535434,
                    "duration": 0.3519059999999854
                },
                {
                    "name": "A5",
                    "midi": 81,
                    "time": 275.3664450000099,
                    "velocity": 0.33070866141732286,
                    "duration": 0.3519059999999854
                },
                {
                    "name": "A6",
                    "midi": 93,
                    "time": 275.3664450000099,
                    "velocity": 0.3937007874015748,
                    "duration": 0.26392950000001747
                },
                {
                    "name": "B6",
                    "midi": 95,
                    "time": 275.6303745000099,
                    "velocity": 0.28346456692913385,
                    "duration": 0.043988249999983964
                },
                {
                    "name": "A6",
                    "midi": 93,
                    "time": 275.6743627500099,
                    "velocity": 0.28346456692913385,
                    "duration": 0.043988249999983964
                },
                {
                    "name": "G#5",
                    "midi": 80,
                    "time": 275.7183510000099,
                    "velocity": 0.33070866141732286,
                    "duration": 0.1759529999999927
                },
                {
                    "name": "G#6",
                    "midi": 92,
                    "time": 275.7183510000099,
                    "velocity": 0.3937007874015748,
                    "duration": 0.1759529999999927
                },
                {
                    "name": "F#5",
                    "midi": 78,
                    "time": 275.89430400000987,
                    "velocity": 0.2677165354330709,
                    "duration": 0.1759529999999927
                },
                {
                    "name": "F#6",
                    "midi": 90,
                    "time": 275.89430400000987,
                    "velocity": 0.3228346456692913,
                    "duration": 0.1759529999999927
                },
                {
                    "name": "B5",
                    "midi": 83,
                    "time": 276.07025700000986,
                    "velocity": 0.29133858267716534,
                    "duration": 0.1759529999999927
                },
                {
                    "name": "B6",
                    "midi": 95,
                    "time": 276.07025700000986,
                    "velocity": 0.3464566929133858,
                    "duration": 0.1759529999999927
                },
                {
                    "name": "D#5",
                    "midi": 75,
                    "time": 276.24621000000985,
                    "velocity": 0.2992125984251969,
                    "duration": 0.1759529999999927
                },
                {
                    "name": "D#6",
                    "midi": 87,
                    "time": 276.24621000000985,
                    "velocity": 0.3543307086614173,
                    "duration": 0.13196475000000873
                },
                {
                    "name": "F#6",
                    "midi": 90,
                    "time": 276.37817475000986,
                    "velocity": 0.2755905511811024,
                    "duration": 0.043988249999983964
                },
                {
                    "name": "E5",
                    "midi": 76,
                    "time": 276.42216300000985,
                    "velocity": 0.28346456692913385,
                    "duration": 0.3519059999999854
                },
                {
                    "name": "E6",
                    "midi": 88,
                    "time": 276.42216300000985,
                    "velocity": 0.33858267716535434,
                    "duration": 0.3519059999999854
                },
                {
                    "name": "F#3",
                    "midi": 54,
                    "time": 276.86204550000986,
                    "velocity": 0.2677165354330709,
                    "duration": 0.08797650000002477
                },
                {
                    "name": "A#3",
                    "midi": 58,
                    "time": 276.9500220000099,
                    "velocity": 0.2992125984251969,
                    "duration": 0.08797650000002477
                },
                {
                    "name": "F#4",
                    "midi": 66,
                    "time": 277.0379985000099,
                    "velocity": 0.2677165354330709,
                    "duration": 0.08797650000002477
                },
                {
                    "name": "E4",
                    "midi": 64,
                    "time": 277.0379985000099,
                    "velocity": 0.2047244094488189,
                    "duration": 0.08797650000002477
                },
                {
                    "name": "F#3",
                    "midi": 54,
                    "time": 277.21395150000995,
                    "velocity": 0.1732283464566929,
                    "duration": 0.08797650000002477
                },
                {
                    "name": "B3",
                    "midi": 59,
                    "time": 277.30192800001,
                    "velocity": 0.1968503937007874,
                    "duration": 0.08797650000002477
                },
                {
                    "name": "F#4",
                    "midi": 66,
                    "time": 277.38990450001,
                    "velocity": 0.1732283464566929,
                    "duration": 0.08797650000002477
                },
                {
                    "name": "D#4",
                    "midi": 63,
                    "time": 277.38990450001,
                    "velocity": 0.14173228346456693,
                    "duration": 0.08797650000002477
                },
                {
                    "name": "F#5",
                    "midi": 78,
                    "time": 277.47788100001003,
                    "velocity": 0.33070866141732286,
                    "duration": 0.3519059999999854
                },
                {
                    "name": "F#6",
                    "midi": 90,
                    "time": 277.47788100001003,
                    "velocity": 0.3937007874015748,
                    "duration": 0.26392950000001747
                },
                {
                    "name": "G#6",
                    "midi": 92,
                    "time": 277.74181050001005,
                    "velocity": 0.28346456692913385,
                    "duration": 0.043988249999983964
                },
                {
                    "name": "F#6",
                    "midi": 90,
                    "time": 277.78579875001003,
                    "velocity": 0.28346456692913385,
                    "duration": 0.043988249999983964
                },
                {
                    "name": "F5",
                    "midi": 77,
                    "time": 277.82978700001,
                    "velocity": 0.33070866141732286,
                    "duration": 0.1759529999999927
                },
                {
                    "name": "F6",
                    "midi": 89,
                    "time": 277.82978700001,
                    "velocity": 0.3937007874015748,
                    "duration": 0.1759529999999927
                },
                {
                    "name": "F#5",
                    "midi": 78,
                    "time": 278.00574000001,
                    "velocity": 0.2677165354330709,
                    "duration": 0.1759529999999927
                },
                {
                    "name": "F#6",
                    "midi": 90,
                    "time": 278.00574000001,
                    "velocity": 0.3228346456692913,
                    "duration": 0.13196475000000873
                },
                {
                    "name": "A6",
                    "midi": 93,
                    "time": 278.13770475001,
                    "velocity": 0.2755905511811024,
                    "duration": 0.043988249999983964
                },
                {
                    "name": "G#5",
                    "midi": 80,
                    "time": 278.18169300001,
                    "velocity": 0.28346456692913385,
                    "duration": 0.3519059999999854
                },
                {
                    "name": "G#6",
                    "midi": 92,
                    "time": 278.18169300001,
                    "velocity": 0.33858267716535434,
                    "duration": 0.30791775000000143
                },
                {
                    "name": "G#6",
                    "midi": 92,
                    "time": 278.48961075001,
                    "velocity": 0.2755905511811024,
                    "duration": 0.043988249999983964
                },
                {
                    "name": "F#5",
                    "midi": 78,
                    "time": 278.53359900001,
                    "velocity": 0.1889763779527559,
                    "duration": 0.3519059999999854
                },
                {
                    "name": "F#6",
                    "midi": 90,
                    "time": 278.53359900001,
                    "velocity": 0.33858267716535434,
                    "duration": 0.3519059999999854
                },
                {
                    "name": "F#3",
                    "midi": 54,
                    "time": 278.97348150001,
                    "velocity": 0.28346456692913385,
                    "duration": 0.08797650000002477
                },
                {
                    "name": "A#3",
                    "midi": 58,
                    "time": 279.06145800001,
                    "velocity": 0.3228346456692913,
                    "duration": 0.08797650000002477
                },
                {
                    "name": "F#4",
                    "midi": 66,
                    "time": 279.14943450001005,
                    "velocity": 0.28346456692913385,
                    "duration": 0.08797650000002477
                },
                {
                    "name": "E4",
                    "midi": 64,
                    "time": 279.14943450001005,
                    "velocity": 0.2204724409448819,
                    "duration": 0.08797650000002477
                },
                {
                    "name": "F#3",
                    "midi": 54,
                    "time": 279.3253875000101,
                    "velocity": 0.1889763779527559,
                    "duration": 0.08797650000002477
                },
                {
                    "name": "B3",
                    "midi": 59,
                    "time": 279.4133640000101,
                    "velocity": 0.2125984251968504,
                    "duration": 0.08797650000002477
                },
                {
                    "name": "F#4",
                    "midi": 66,
                    "time": 279.50134050001014,
                    "velocity": 0.1889763779527559,
                    "duration": 0.043988249999983964
                },
                {
                    "name": "D#4",
                    "midi": 63,
                    "time": 279.50134050001014,
                    "velocity": 0.14960629921259844,
                    "duration": 0.043988249999983964
                },
                {
                    "name": "A6",
                    "midi": 93,
                    "time": 279.5453287500101,
                    "velocity": 0.29133858267716534,
                    "duration": 0.043988249999983964
                },
                {
                    "name": "G#5",
                    "midi": 80,
                    "time": 279.5893170000101,
                    "velocity": 0.33070866141732286,
                    "duration": 0.08797650000002477
                },
                {
                    "name": "G#6",
                    "midi": 92,
                    "time": 279.5893170000101,
                    "velocity": 0.3937007874015748,
                    "duration": 0.08797650000002477
                },
                {
                    "name": "G#6",
                    "midi": 92,
                    "time": 279.7212817500101,
                    "velocity": 0.29133858267716534,
                    "duration": 0.043988249999983964
                },
                {
                    "name": "F#5",
                    "midi": 78,
                    "time": 279.7652700000101,
                    "velocity": 0.33070866141732286,
                    "duration": 0.08797650000002477
                },
                {
                    "name": "F#6",
                    "midi": 90,
                    "time": 279.7652700000101,
                    "velocity": 0.3937007874015748,
                    "duration": 0.08797650000002477
                },
                {
                    "name": "F#6",
                    "midi": 90,
                    "time": 279.8972347500101,
                    "velocity": 0.29133858267716534,
                    "duration": 0.043988249999983964
                },
                {
                    "name": "E5",
                    "midi": 76,
                    "time": 279.9412230000101,
                    "velocity": 0.33070866141732286,
                    "duration": 0.08797650000002477
                },
                {
                    "name": "E6",
                    "midi": 88,
                    "time": 279.9412230000101,
                    "velocity": 0.3937007874015748,
                    "duration": 0.08797650000002477
                },
                {
                    "name": "E6",
                    "midi": 88,
                    "time": 280.0731877500101,
                    "velocity": 0.29133858267716534,
                    "duration": 0.043988249999983964
                },
                {
                    "name": "D5",
                    "midi": 74,
                    "time": 280.1171760000101,
                    "velocity": 0.33070866141732286,
                    "duration": 0.08797650000002477
                },
                {
                    "name": "D6",
                    "midi": 86,
                    "time": 280.1171760000101,
                    "velocity": 0.3937007874015748,
                    "duration": 0.08797650000002477
                },
                {
                    "name": "C#5",
                    "midi": 73,
                    "time": 280.29312900001014,
                    "velocity": 0.3937007874015748,
                    "duration": 0.08797650000002477
                },
                {
                    "name": "C#6",
                    "midi": 85,
                    "time": 280.4690820000102,
                    "velocity": 0.3937007874015748,
                    "duration": 0.08797650000002477
                },
                {
                    "name": "C#6",
                    "midi": 85,
                    "time": 280.64503500001024,
                    "velocity": 0.3937007874015748,
                    "duration": 0.08797650000002477
                },
                {
                    "name": "C#7",
                    "midi": 97,
                    "time": 280.8209880000103,
                    "velocity": 0.3937007874015748,
                    "duration": 0.08797650000002477
                },
                {
                    "name": "F#3",
                    "midi": 54,
                    "time": 281.0849175000103,
                    "velocity": 0.23622047244094488,
                    "duration": 0.08797650000002477
                },
                {
                    "name": "A#3",
                    "midi": 58,
                    "time": 281.17289400001033,
                    "velocity": 0.2677165354330709,
                    "duration": 0.08797650000002477
                },
                {
                    "name": "F#4",
                    "midi": 66,
                    "time": 281.26087050001036,
                    "velocity": 0.23622047244094488,
                    "duration": 0.08797650000002477
                },
                {
                    "name": "E4",
                    "midi": 64,
                    "time": 281.26087050001036,
                    "velocity": 0.18110236220472442,
                    "duration": 0.08797650000002477
                },
                {
                    "name": "F#3",
                    "midi": 54,
                    "time": 281.4368235000104,
                    "velocity": 0.15748031496062992,
                    "duration": 0.08797650000002477
                },
                {
                    "name": "B3",
                    "midi": 59,
                    "time": 281.52480000001043,
                    "velocity": 0.1732283464566929,
                    "duration": 0.08797650000002477
                },
                {
                    "name": "F#4",
                    "midi": 66,
                    "time": 281.61277650001045,
                    "velocity": 0.15748031496062992,
                    "duration": 0.08797650000002477
                },
                {
                    "name": "D#4",
                    "midi": 63,
                    "time": 281.61277650001045,
                    "velocity": 0.12598425196850394,
                    "duration": 0.08797650000002477
                },
                {
                    "name": "F#5",
                    "midi": 78,
                    "time": 281.7007530000105,
                    "velocity": 0.33070866141732286,
                    "duration": 0.3519059999999854
                },
                {
                    "name": "F#6",
                    "midi": 90,
                    "time": 281.7007530000105,
                    "velocity": 0.3937007874015748,
                    "duration": 0.26392950000001747
                },
                {
                    "name": "G#6",
                    "midi": 92,
                    "time": 281.9646825000105,
                    "velocity": 0.28346456692913385,
                    "duration": 0.043988249999983964
                },
                {
                    "name": "F#6",
                    "midi": 90,
                    "time": 282.0086707500105,
                    "velocity": 0.28346456692913385,
                    "duration": 0.043988249999983964
                },
                {
                    "name": "F5",
                    "midi": 77,
                    "time": 282.05265900001046,
                    "velocity": 0.33070866141732286,
                    "duration": 0.1759529999999927
                },
                {
                    "name": "F6",
                    "midi": 89,
                    "time": 282.05265900001046,
                    "velocity": 0.3937007874015748,
                    "duration": 0.1759529999999927
                },
                {
                    "name": "F#5",
                    "midi": 78,
                    "time": 282.22861200001046,
                    "velocity": 0.2677165354330709,
                    "duration": 0.1759529999999927
                },
                {
                    "name": "F#6",
                    "midi": 90,
                    "time": 282.22861200001046,
                    "velocity": 0.3228346456692913,
                    "duration": 0.13196475000000873
                },
                {
                    "name": "A6",
                    "midi": 93,
                    "time": 282.36057675001047,
                    "velocity": 0.2755905511811024,
                    "duration": 0.043988249999983964
                },
                {
                    "name": "G#5",
                    "midi": 80,
                    "time": 282.40456500001045,
                    "velocity": 0.28346456692913385,
                    "duration": 0.3519059999999854
                },
                {
                    "name": "G#6",
                    "midi": 92,
                    "time": 282.40456500001045,
                    "velocity": 0.33858267716535434,
                    "duration": 0.30791775000000143
                },
                {
                    "name": "G#6",
                    "midi": 92,
                    "time": 282.71248275001045,
                    "velocity": 0.2755905511811024,
                    "duration": 0.043988249999983964
                },
                {
                    "name": "F#5",
                    "midi": 78,
                    "time": 282.75647100001044,
                    "velocity": 0.1889763779527559,
                    "duration": 0.3519059999999854
                },
                {
                    "name": "F#6",
                    "midi": 90,
                    "time": 282.75647100001044,
                    "velocity": 0.33858267716535434,
                    "duration": 0.3519059999999854
                },
                {
                    "name": "F#3",
                    "midi": 54,
                    "time": 283.19635350001045,
                    "velocity": 0.28346456692913385,
                    "duration": 0.08797650000002477
                },
                {
                    "name": "A#3",
                    "midi": 58,
                    "time": 283.28433000001047,
                    "velocity": 0.3228346456692913,
                    "duration": 0.08797650000002477
                },
                {
                    "name": "F#4",
                    "midi": 66,
                    "time": 283.3723065000105,
                    "velocity": 0.28346456692913385,
                    "duration": 0.08797650000002477
                },
                {
                    "name": "E4",
                    "midi": 64,
                    "time": 283.3723065000105,
                    "velocity": 0.2204724409448819,
                    "duration": 0.08797650000002477
                },
                {
                    "name": "F#3",
                    "midi": 54,
                    "time": 283.54825950001054,
                    "velocity": 0.1889763779527559,
                    "duration": 0.08797650000002477
                },
                {
                    "name": "B3",
                    "midi": 59,
                    "time": 283.63623600001057,
                    "velocity": 0.2125984251968504,
                    "duration": 0.08797650000002477
                },
                {
                    "name": "D#4",
                    "midi": 63,
                    "time": 283.7242125000106,
                    "velocity": 0.14960629921259844,
                    "duration": 0.08797650000002477
                },
                {
                    "name": "F#4",
                    "midi": 66,
                    "time": 283.7242125000106,
                    "velocity": 0.1889763779527559,
                    "duration": 0.08797650000002477
                },
                {
                    "name": "A6",
                    "midi": 93,
                    "time": 283.8121890000106,
                    "velocity": 0.3543307086614173,
                    "duration": 0.05938413749998972
                },
                {
                    "name": "G#6",
                    "midi": 92,
                    "time": 283.8715731375106,
                    "velocity": 0.3464566929133858,
                    "duration": 0.058650999999997566
                },
                {
                    "name": "F#6",
                    "midi": 90,
                    "time": 283.9294910000106,
                    "velocity": 0.3464566929133858,
                    "duration": 0.058650999999997566
                },
                {
                    "name": "E6",
                    "midi": 88,
                    "time": 283.9881420000106,
                    "velocity": 0.33858267716535434,
                    "duration": 0.058650999999997566
                },
                {
                    "name": "D6",
                    "midi": 86,
                    "time": 284.0467930000106,
                    "velocity": 0.33858267716535434,
                    "duration": 0.058650999999997566
                },
                {
                    "name": "C#6",
                    "midi": 85,
                    "time": 284.1054440000106,
                    "velocity": 0.33070866141732286,
                    "duration": 0.058650999999997566
                },
                {
                    "name": "B5",
                    "midi": 83,
                    "time": 284.1640950000106,
                    "velocity": 0.33070866141732286,
                    "duration": 0.058650999999997566
                },
                {
                    "name": "A5",
                    "midi": 81,
                    "time": 284.2227460000106,
                    "velocity": 0.3228346456692913,
                    "duration": 0.058650999999997566
                },
                {
                    "name": "G#5",
                    "midi": 80,
                    "time": 284.2813970000106,
                    "velocity": 0.3228346456692913,
                    "duration": 0.058650999999997566
                },
                {
                    "name": "F#5",
                    "midi": 78,
                    "time": 284.3400480000106,
                    "velocity": 0.31496062992125984,
                    "duration": 0.058650999999997566
                },
                {
                    "name": "E5",
                    "midi": 76,
                    "time": 284.3986990000106,
                    "velocity": 0.30708661417322836,
                    "duration": 0.058650999999997566
                },
                {
                    "name": "D5",
                    "midi": 74,
                    "time": 284.4573500000106,
                    "velocity": 0.30708661417322836,
                    "duration": 0.058650999999997566
                },
                {
                    "name": "C#5",
                    "midi": 73,
                    "time": 284.5160010000106,
                    "velocity": 0.31496062992125984,
                    "duration": 0.043988249999983964
                },
                {
                    "name": "C#6",
                    "midi": 85,
                    "time": 284.60397750001056,
                    "velocity": 0.28346456692913385,
                    "duration": 0.043988249999983964
                },
                {
                    "name": "C#6",
                    "midi": 85,
                    "time": 284.6919540000105,
                    "velocity": 0.28346456692913385,
                    "duration": 0.043988249999983964
                },
                {
                    "name": "C#7",
                    "midi": 97,
                    "time": 284.7799305000105,
                    "velocity": 0.2992125984251969,
                    "duration": 0.043988249999983964
                },
                {
                    "name": "C#7",
                    "midi": 97,
                    "time": 284.86790700001046,
                    "velocity": 0.30708661417322836,
                    "duration": 0.043988249999983964
                },
                {
                    "name": "C#6",
                    "midi": 85,
                    "time": 284.95588350001043,
                    "velocity": 0.28346456692913385,
                    "duration": 0.043988249999983964
                },
                {
                    "name": "C#6",
                    "midi": 85,
                    "time": 285.0438600000104,
                    "velocity": 0.28346456692913385,
                    "duration": 0.043988249999983964
                },
                {
                    "name": "C#5",
                    "midi": 73,
                    "time": 285.13183650001037,
                    "velocity": 0.29133858267716534,
                    "duration": 0.043988249999983964
                },
                {
                    "name": "C#5",
                    "midi": 73,
                    "time": 285.21981300001033,
                    "velocity": 0.3464566929133858,
                    "duration": 0.043988249999983964
                },
                {
                    "name": "C#6",
                    "midi": 85,
                    "time": 285.3077895000103,
                    "velocity": 0.28346456692913385,
                    "duration": 0.043988249999983964
                },
                {
                    "name": "C#6",
                    "midi": 85,
                    "time": 285.39576600001027,
                    "velocity": 0.28346456692913385,
                    "duration": 0.043988249999983964
                },
                {
                    "name": "C#7",
                    "midi": 97,
                    "time": 285.48374250001024,
                    "velocity": 0.3228346456692913,
                    "duration": 0.043988249999983964
                },
                {
                    "name": "C#7",
                    "midi": 97,
                    "time": 285.5717190000102,
                    "velocity": 0.3228346456692913,
                    "duration": 0.043988249999983964
                },
                {
                    "name": "C#6",
                    "midi": 85,
                    "time": 285.6596955000102,
                    "velocity": 0.28346456692913385,
                    "duration": 0.043988249999983964
                },
                {
                    "name": "C#6",
                    "midi": 85,
                    "time": 285.74767200001014,
                    "velocity": 0.28346456692913385,
                    "duration": 0.043988249999983964
                },
                {
                    "name": "C#5",
                    "midi": 73,
                    "time": 285.8356485000101,
                    "velocity": 0.28346456692913385,
                    "duration": 0.043988249999983964
                },
                {
                    "name": "C#5",
                    "midi": 73,
                    "time": 285.9236250000101,
                    "velocity": 0.33070866141732286,
                    "duration": 0.043988249999983964
                },
                {
                    "name": "C#6",
                    "midi": 85,
                    "time": 286.01160150001004,
                    "velocity": 0.29133858267716534,
                    "duration": 0.043988249999983964
                },
                {
                    "name": "C#6",
                    "midi": 85,
                    "time": 286.09957800001,
                    "velocity": 0.29133858267716534,
                    "duration": 0.043988249999983964
                },
                {
                    "name": "C#7",
                    "midi": 97,
                    "time": 286.18755450001,
                    "velocity": 0.31496062992125984,
                    "duration": 0.043988249999983964
                },
                {
                    "name": "C#7",
                    "midi": 97,
                    "time": 286.27553100000995,
                    "velocity": 0.31496062992125984,
                    "duration": 0.043988249999983964
                },
                {
                    "name": "C#6",
                    "midi": 85,
                    "time": 286.3635075000099,
                    "velocity": 0.29133858267716534,
                    "duration": 0.043988249999983964
                },
                {
                    "name": "C#6",
                    "midi": 85,
                    "time": 286.4514840000099,
                    "velocity": 0.29133858267716534,
                    "duration": 0.043988249999983964
                },
                {
                    "name": "C#7",
                    "midi": 97,
                    "time": 286.53946050000985,
                    "velocity": 0.29133858267716534,
                    "duration": 0.043988249999983964
                },
                {
                    "name": "C#7",
                    "midi": 97,
                    "time": 286.6274370000098,
                    "velocity": 0.33070866141732286,
                    "duration": 0.043988249999983964
                },
                {
                    "name": "C#6",
                    "midi": 85,
                    "time": 286.7154135000098,
                    "velocity": 0.29133858267716534,
                    "duration": 0.043988249999983964
                },
                {
                    "name": "C#6",
                    "midi": 85,
                    "time": 286.80339000000976,
                    "velocity": 0.29133858267716534,
                    "duration": 0.043988249999983964
                },
                {
                    "name": "C#7",
                    "midi": 97,
                    "time": 286.8913665000097,
                    "velocity": 0.30708661417322836,
                    "duration": 0.043988249999983964
                },
                {
                    "name": "C#7",
                    "midi": 97,
                    "time": 286.9793430000097,
                    "velocity": 0.30708661417322836,
                    "duration": 0.043988249999983964
                },
                {
                    "name": "C#6",
                    "midi": 85,
                    "time": 287.06731950000966,
                    "velocity": 0.29133858267716534,
                    "duration": 0.043988249999983964
                },
                {
                    "name": "C#6",
                    "midi": 85,
                    "time": 287.1552960000096,
                    "velocity": 0.29133858267716534,
                    "duration": 0.043988249999983964
                },
                {
                    "name": "C#7",
                    "midi": 97,
                    "time": 287.2432725000096,
                    "velocity": 0.29133858267716534,
                    "duration": 0.043988249999983964
                },
                {
                    "name": "D7",
                    "midi": 98,
                    "time": 287.33124900000956,
                    "velocity": 0.30708661417322836,
                    "duration": 0.058650999999997566
                },
                {
                    "name": "E7",
                    "midi": 100,
                    "time": 287.38990000000956,
                    "velocity": 0.2992125984251969,
                    "duration": 0.058650999999997566
                },
                {
                    "name": "D7",
                    "midi": 98,
                    "time": 287.44855100000956,
                    "velocity": 0.29133858267716534,
                    "duration": 0.058650999999997566
                },
                {
                    "name": "C#7",
                    "midi": 97,
                    "time": 287.50720200000956,
                    "velocity": 0.28346456692913385,
                    "duration": 0.058650999999997566
                },
                {
                    "name": "B6",
                    "midi": 95,
                    "time": 287.56585300000955,
                    "velocity": 0.28346456692913385,
                    "duration": 0.058650999999997566
                },
                {
                    "name": "A6",
                    "midi": 93,
                    "time": 287.62450400000955,
                    "velocity": 0.28346456692913385,
                    "duration": 0.058650999999997566
                },
                {
                    "name": "G#6",
                    "midi": 92,
                    "time": 287.68315500000955,
                    "velocity": 0.2755905511811024,
                    "duration": 0.058650999999997566
                },
                {
                    "name": "F#6",
                    "midi": 90,
                    "time": 287.74180600000955,
                    "velocity": 0.2677165354330709,
                    "duration": 0.058650999999997566
                },
                {
                    "name": "E6",
                    "midi": 88,
                    "time": 287.80045700000954,
                    "velocity": 0.25984251968503935,
                    "duration": 0.058650999999997566
                },
                {
                    "name": "D6",
                    "midi": 86,
                    "time": 287.85910800000954,
                    "velocity": 0.25196850393700787,
                    "duration": 0.058650999999997566
                },
                {
                    "name": "C#6",
                    "midi": 85,
                    "time": 287.91775900000954,
                    "velocity": 0.2440944881889764,
                    "duration": 0.058650999999997566
                },
                {
                    "name": "B5",
                    "midi": 83,
                    "time": 287.97641000000954,
                    "velocity": 0.23622047244094488,
                    "duration": 0.058650999999997566
                },
                {
                    "name": "A5",
                    "midi": 81,
                    "time": 288.03506100000953,
                    "velocity": 0.2283464566929134,
                    "duration": 0.058650999999997566
                },
                {
                    "name": "G#5",
                    "midi": 80,
                    "time": 288.09371200000953,
                    "velocity": 0.2204724409448819,
                    "duration": 0.058650999999997566
                },
                {
                    "name": "A5",
                    "midi": 81,
                    "time": 288.15236300000953,
                    "velocity": 0.2283464566929134,
                    "duration": 0.058650999999997566
                },
                {
                    "name": "B5",
                    "midi": 83,
                    "time": 288.2110140000095,
                    "velocity": 0.2440944881889764,
                    "duration": 0.058650999999997566
                },
                {
                    "name": "C#6",
                    "midi": 85,
                    "time": 288.2696650000095,
                    "velocity": 0.25196850393700787,
                    "duration": 0.058650999999997566
                },
                {
                    "name": "D6",
                    "midi": 86,
                    "time": 288.3283160000095,
                    "velocity": 0.25984251968503935,
                    "duration": 0.058650999999997566
                },
                {
                    "name": "E6",
                    "midi": 88,
                    "time": 288.3869670000095,
                    "velocity": 0.2677165354330709,
                    "duration": 0.058650999999997566
                },
                {
                    "name": "F#6",
                    "midi": 90,
                    "time": 288.4456180000095,
                    "velocity": 0.2755905511811024,
                    "duration": 0.058650999999997566
                },
                {
                    "name": "G#6",
                    "midi": 92,
                    "time": 288.5042690000095,
                    "velocity": 0.28346456692913385,
                    "duration": 0.058650999999997566
                },
                {
                    "name": "A6",
                    "midi": 93,
                    "time": 288.5629200000095,
                    "velocity": 0.28346456692913385,
                    "duration": 0.058650999999997566
                },
                {
                    "name": "B6",
                    "midi": 95,
                    "time": 288.6215710000095,
                    "velocity": 0.29133858267716534,
                    "duration": 0.058650999999997566
                },
                {
                    "name": "C#7",
                    "midi": 97,
                    "time": 288.6802220000095,
                    "velocity": 0.2992125984251969,
                    "duration": 0.058650999999997566
                },
                {
                    "name": "D7",
                    "midi": 98,
                    "time": 288.7388730000095,
                    "velocity": 0.30708661417322836,
                    "duration": 0.058650999999997566
                },
                {
                    "name": "E7",
                    "midi": 100,
                    "time": 288.7975240000095,
                    "velocity": 0.2992125984251969,
                    "duration": 0.058650999999997566
                },
                {
                    "name": "D7",
                    "midi": 98,
                    "time": 288.8561750000095,
                    "velocity": 0.29133858267716534,
                    "duration": 0.058650999999997566
                },
                {
                    "name": "C#7",
                    "midi": 97,
                    "time": 288.9148260000095,
                    "velocity": 0.28346456692913385,
                    "duration": 0.058650999999997566
                },
                {
                    "name": "B6",
                    "midi": 95,
                    "time": 288.9734770000095,
                    "velocity": 0.28346456692913385,
                    "duration": 0.058650999999997566
                },
                {
                    "name": "A6",
                    "midi": 93,
                    "time": 289.0321280000095,
                    "velocity": 0.28346456692913385,
                    "duration": 0.058650999999997566
                },
                {
                    "name": "G#6",
                    "midi": 92,
                    "time": 289.0907790000095,
                    "velocity": 0.2755905511811024,
                    "duration": 0.058650999999997566
                },
                {
                    "name": "F#6",
                    "midi": 90,
                    "time": 289.1494300000095,
                    "velocity": 0.2677165354330709,
                    "duration": 0.058650999999997566
                },
                {
                    "name": "E6",
                    "midi": 88,
                    "time": 289.2080810000095,
                    "velocity": 0.25984251968503935,
                    "duration": 0.058650999999997566
                },
                {
                    "name": "D6",
                    "midi": 86,
                    "time": 289.2667320000095,
                    "velocity": 0.25196850393700787,
                    "duration": 0.058650999999997566
                },
                {
                    "name": "C#6",
                    "midi": 85,
                    "time": 289.3253830000095,
                    "velocity": 0.2440944881889764,
                    "duration": 0.058650999999997566
                },
                {
                    "name": "B5",
                    "midi": 83,
                    "time": 289.3840340000095,
                    "velocity": 0.23622047244094488,
                    "duration": 0.058650999999997566
                },
                {
                    "name": "A5",
                    "midi": 81,
                    "time": 289.4426850000095,
                    "velocity": 0.2283464566929134,
                    "duration": 0.058650999999997566
                },
                {
                    "name": "G#5",
                    "midi": 80,
                    "time": 289.5013360000095,
                    "velocity": 0.2204724409448819,
                    "duration": 0.058650999999997566
                },
                {
                    "name": "A5",
                    "midi": 81,
                    "time": 289.55998700000947,
                    "velocity": 0.2283464566929134,
                    "duration": 0.058650999999997566
                },
                {
                    "name": "B5",
                    "midi": 83,
                    "time": 289.61863800000947,
                    "velocity": 0.2440944881889764,
                    "duration": 0.058650999999997566
                },
                {
                    "name": "C#6",
                    "midi": 85,
                    "time": 289.67728900000947,
                    "velocity": 0.25196850393700787,
                    "duration": 0.058650999999997566
                },
                {
                    "name": "D6",
                    "midi": 86,
                    "time": 289.73594000000946,
                    "velocity": 0.25984251968503935,
                    "duration": 0.058650999999997566
                },
                {
                    "name": "E6",
                    "midi": 88,
                    "time": 289.79459100000946,
                    "velocity": 0.2677165354330709,
                    "duration": 0.058650999999997566
                },
                {
                    "name": "F#6",
                    "midi": 90,
                    "time": 289.85324200000946,
                    "velocity": 0.2755905511811024,
                    "duration": 0.058650999999997566
                },
                {
                    "name": "G#6",
                    "midi": 92,
                    "time": 289.91189300000946,
                    "velocity": 0.28346456692913385,
                    "duration": 0.058650999999997566
                },
                {
                    "name": "A6",
                    "midi": 93,
                    "time": 289.97054400000945,
                    "velocity": 0.28346456692913385,
                    "duration": 0.058650999999997566
                },
                {
                    "name": "B6",
                    "midi": 95,
                    "time": 290.02919500000945,
                    "velocity": 0.29133858267716534,
                    "duration": 0.058650999999997566
                },
                {
                    "name": "C#7",
                    "midi": 97,
                    "time": 290.08784600000945,
                    "velocity": 0.2992125984251969,
                    "duration": 0.058650999999997566
                },
                {
                    "name": "D7",
                    "midi": 98,
                    "time": 290.14649700000945,
                    "velocity": 0.30708661417322836,
                    "duration": 0.058650999999997566
                },
                {
                    "name": "E7",
                    "midi": 100,
                    "time": 290.20514800000944,
                    "velocity": 0.2992125984251969,
                    "duration": 0.058650999999997566
                },
                {
                    "name": "D7",
                    "midi": 98,
                    "time": 290.26379900000944,
                    "velocity": 0.29133858267716534,
                    "duration": 0.058650999999997566
                },
                {
                    "name": "C#7",
                    "midi": 97,
                    "time": 290.32245000000944,
                    "velocity": 0.28346456692913385,
                    "duration": 0.058650999999997566
                },
                {
                    "name": "B6",
                    "midi": 95,
                    "time": 290.38110100000944,
                    "velocity": 0.28346456692913385,
                    "duration": 0.058650999999997566
                },
                {
                    "name": "A6",
                    "midi": 93,
                    "time": 290.43975200000943,
                    "velocity": 0.28346456692913385,
                    "duration": 0.058650999999997566
                },
                {
                    "name": "G#6",
                    "midi": 92,
                    "time": 290.49840300000943,
                    "velocity": 0.2755905511811024,
                    "duration": 0.058650999999997566
                },
                {
                    "name": "F#6",
                    "midi": 90,
                    "time": 290.55705400000943,
                    "velocity": 0.2677165354330709,
                    "duration": 0.058650999999997566
                },
                {
                    "name": "E6",
                    "midi": 88,
                    "time": 290.6157050000094,
                    "velocity": 0.25984251968503935,
                    "duration": 0.058650999999997566
                },
                {
                    "name": "D6",
                    "midi": 86,
                    "time": 290.6743560000094,
                    "velocity": 0.25196850393700787,
                    "duration": 0.058650999999997566
                },
                {
                    "name": "C#6",
                    "midi": 85,
                    "time": 290.7330070000094,
                    "velocity": 0.2440944881889764,
                    "duration": 0.058650999999997566
                },
                {
                    "name": "B5",
                    "midi": 83,
                    "time": 290.7916580000094,
                    "velocity": 0.23622047244094488,
                    "duration": 0.058650999999997566
                },
                {
                    "name": "A5",
                    "midi": 81,
                    "time": 290.8503090000094,
                    "velocity": 0.2283464566929134,
                    "duration": 0.058650999999997566
                },
                {
                    "name": "G#5",
                    "midi": 80,
                    "time": 290.9089600000094,
                    "velocity": 0.2204724409448819,
                    "duration": 0.058650999999997566
                },
                {
                    "name": "A5",
                    "midi": 81,
                    "time": 290.9676110000094,
                    "velocity": 0.2283464566929134,
                    "duration": 0.058650999999997566
                },
                {
                    "name": "B5",
                    "midi": 83,
                    "time": 291.0262620000094,
                    "velocity": 0.2440944881889764,
                    "duration": 0.058650999999997566
                },
                {
                    "name": "C#6",
                    "midi": 85,
                    "time": 291.0849130000094,
                    "velocity": 0.25196850393700787,
                    "duration": 0.058650999999997566
                },
                {
                    "name": "D6",
                    "midi": 86,
                    "time": 291.1435640000094,
                    "velocity": 0.25984251968503935,
                    "duration": 0.058650999999997566
                },
                {
                    "name": "E6",
                    "midi": 88,
                    "time": 291.2022150000094,
                    "velocity": 0.2677165354330709,
                    "duration": 0.058650999999997566
                },
                {
                    "name": "F#6",
                    "midi": 90,
                    "time": 291.2608660000094,
                    "velocity": 0.2755905511811024,
                    "duration": 0.058650999999997566
                },
                {
                    "name": "G#6",
                    "midi": 92,
                    "time": 291.3195170000094,
                    "velocity": 0.28346456692913385,
                    "duration": 0.058650999999997566
                },
                {
                    "name": "A6",
                    "midi": 93,
                    "time": 291.3781680000094,
                    "velocity": 0.28346456692913385,
                    "duration": 0.058650999999997566
                },
                {
                    "name": "B6",
                    "midi": 95,
                    "time": 291.4368190000094,
                    "velocity": 0.29133858267716534,
                    "duration": 0.058650999999997566
                },
                {
                    "name": "C#7",
                    "midi": 97,
                    "time": 291.4954700000094,
                    "velocity": 0.2992125984251969,
                    "duration": 0.058650999999997566
                },
                {
                    "name": "D7",
                    "midi": 98,
                    "time": 291.5541210000094,
                    "velocity": 0.3228346456692913,
                    "duration": 0.058650999999997566
                },
                {
                    "name": "D#7",
                    "midi": 99,
                    "time": 291.6127720000094,
                    "velocity": 0.3464566929133858,
                    "duration": 0.058650999999997566
                },
                {
                    "name": "E7",
                    "midi": 100,
                    "time": 291.6714230000094,
                    "velocity": 0.36220472440944884,
                    "duration": 0.058650999999997566
                },
                {
                    "name": "F7",
                    "midi": 101,
                    "time": 291.7300740000094,
                    "velocity": 0.3858267716535433,
                    "duration": 0.058650999999997566
                },
                {
                    "name": "E7",
                    "midi": 100,
                    "time": 291.7887250000094,
                    "velocity": 0.3858267716535433,
                    "duration": 0.058650999999997566
                },
                {
                    "name": "D#7",
                    "midi": 99,
                    "time": 291.8473760000094,
                    "velocity": 0.3700787401574803,
                    "duration": 0.058650999999997566
                },
                {
                    "name": "D7",
                    "midi": 98,
                    "time": 291.9060270000094,
                    "velocity": 0.36220472440944884,
                    "duration": 0.058650999999997566
                },
                {
                    "name": "C#7",
                    "midi": 97,
                    "time": 291.96467800000937,
                    "velocity": 0.3543307086614173,
                    "duration": 0.058650999999997566
                },
                {
                    "name": "C7",
                    "midi": 96,
                    "time": 292.02332900000937,
                    "velocity": 0.3464566929133858,
                    "duration": 0.058650999999997566
                },
                {
                    "name": "B6",
                    "midi": 95,
                    "time": 292.08198000000937,
                    "velocity": 0.33858267716535434,
                    "duration": 0.058650999999997566
                },
                {
                    "name": "A#6",
                    "midi": 94,
                    "time": 292.14063100000936,
                    "velocity": 0.3228346456692913,
                    "duration": 0.058650999999997566
                },
                {
                    "name": "A6",
                    "midi": 93,
                    "time": 292.19928200000936,
                    "velocity": 0.31496062992125984,
                    "duration": 0.058650999999997566
                },
                {
                    "name": "G#6",
                    "midi": 92,
                    "time": 292.25793300000936,
                    "velocity": 0.30708661417322836,
                    "duration": 0.058650999999997566
                },
                {
                    "name": "A6",
                    "midi": 93,
                    "time": 292.31658400000936,
                    "velocity": 0.3464566929133858,
                    "duration": 0.058650999999997566
                },
                {
                    "name": "A#6",
                    "midi": 94,
                    "time": 292.37523500000935,
                    "velocity": 0.36220472440944884,
                    "duration": 0.058650999999997566
                },
                {
                    "name": "B6",
                    "midi": 95,
                    "time": 292.43388600000935,
                    "velocity": 0.3779527559055118,
                    "duration": 0.058650999999997566
                },
                {
                    "name": "A#6",
                    "midi": 94,
                    "time": 292.49253700000935,
                    "velocity": 0.3858267716535433,
                    "duration": 0.058650999999997566
                },
                {
                    "name": "A6",
                    "midi": 93,
                    "time": 292.55118800000935,
                    "velocity": 0.3779527559055118,
                    "duration": 0.058650999999997566
                },
                {
                    "name": "G#6",
                    "midi": 92,
                    "time": 292.60983900000934,
                    "velocity": 0.3700787401574803,
                    "duration": 0.058650999999997566
                },
                {
                    "name": "G6",
                    "midi": 91,
                    "time": 292.66849000000934,
                    "velocity": 0.36220472440944884,
                    "duration": 0.058650999999997566
                },
                {
                    "name": "F#6",
                    "midi": 90,
                    "time": 292.72714100000934,
                    "velocity": 0.3543307086614173,
                    "duration": 0.058650999999997566
                },
                {
                    "name": "F6",
                    "midi": 89,
                    "time": 292.78579200000934,
                    "velocity": 0.3543307086614173,
                    "duration": 0.058650999999997566
                },
                {
                    "name": "E6",
                    "midi": 88,
                    "time": 292.84444300000933,
                    "velocity": 0.3464566929133858,
                    "duration": 0.058650999999997566
                },
                {
                    "name": "D#6",
                    "midi": 87,
                    "time": 292.90309400000933,
                    "velocity": 0.33858267716535434,
                    "duration": 0.058650999999997566
                },
                {
                    "name": "D6",
                    "midi": 86,
                    "time": 292.96174500000933,
                    "velocity": 0.3228346456692913,
                    "duration": 0.058650999999997566
                },
                {
                    "name": "D#6",
                    "midi": 87,
                    "time": 293.0203960000093,
                    "velocity": 0.3464566929133858,
                    "duration": 0.058650999999997566
                },
                {
                    "name": "E6",
                    "midi": 88,
                    "time": 293.0790470000093,
                    "velocity": 0.36220472440944884,
                    "duration": 0.058650999999997566
                },
                {
                    "name": "F6",
                    "midi": 89,
                    "time": 293.1376980000093,
                    "velocity": 0.3858267716535433,
                    "duration": 0.058650999999997566
                },
                {
                    "name": "E6",
                    "midi": 88,
                    "time": 293.1963490000093,
                    "velocity": 0.3858267716535433,
                    "duration": 0.058650999999997566
                },
                {
                    "name": "D#6",
                    "midi": 87,
                    "time": 293.2550000000093,
                    "velocity": 0.3700787401574803,
                    "duration": 0.058650999999997566
                },
                {
                    "name": "D6",
                    "midi": 86,
                    "time": 293.3136510000093,
                    "velocity": 0.36220472440944884,
                    "duration": 0.058650999999997566
                },
                {
                    "name": "C#6",
                    "midi": 85,
                    "time": 293.3723020000093,
                    "velocity": 0.3543307086614173,
                    "duration": 0.058650999999997566
                },
                {
                    "name": "C6",
                    "midi": 84,
                    "time": 293.4309530000093,
                    "velocity": 0.3464566929133858,
                    "duration": 0.058650999999997566
                },
                {
                    "name": "B5",
                    "midi": 83,
                    "time": 293.4896040000093,
                    "velocity": 0.33858267716535434,
                    "duration": 0.058650999999997566
                },
                {
                    "name": "A#5",
                    "midi": 82,
                    "time": 293.5482550000093,
                    "velocity": 0.3228346456692913,
                    "duration": 0.058650999999997566
                },
                {
                    "name": "A5",
                    "midi": 81,
                    "time": 293.6069060000093,
                    "velocity": 0.31496062992125984,
                    "duration": 0.058650999999997566
                },
                {
                    "name": "G#5",
                    "midi": 80,
                    "time": 293.6655570000093,
                    "velocity": 0.30708661417322836,
                    "duration": 0.058650999999997566
                },
                {
                    "name": "A5",
                    "midi": 81,
                    "time": 293.7242080000093,
                    "velocity": 0.3464566929133858,
                    "duration": 0.058650999999997566
                },
                {
                    "name": "A#5",
                    "midi": 82,
                    "time": 293.7828590000093,
                    "velocity": 0.36220472440944884,
                    "duration": 0.058650999999997566
                },
                {
                    "name": "B5",
                    "midi": 83,
                    "time": 293.8415100000093,
                    "velocity": 0.3779527559055118,
                    "duration": 0.058650999999997566
                },
                {
                    "name": "A#5",
                    "midi": 82,
                    "time": 293.9001610000093,
                    "velocity": 0.3858267716535433,
                    "duration": 0.058650999999997566
                },
                {
                    "name": "A5",
                    "midi": 81,
                    "time": 293.9588120000093,
                    "velocity": 0.3779527559055118,
                    "duration": 0.058650999999997566
                },
                {
                    "name": "G#5",
                    "midi": 80,
                    "time": 294.0174630000093,
                    "velocity": 0.3700787401574803,
                    "duration": 0.058650999999997566
                },
                {
                    "name": "G5",
                    "midi": 79,
                    "time": 294.0761140000093,
                    "velocity": 0.36220472440944884,
                    "duration": 0.058650999999997566
                },
                {
                    "name": "F#5",
                    "midi": 78,
                    "time": 294.1347650000093,
                    "velocity": 0.3543307086614173,
                    "duration": 0.058650999999997566
                },
                {
                    "name": "F5",
                    "midi": 77,
                    "time": 294.1934160000093,
                    "velocity": 0.3543307086614173,
                    "duration": 0.058650999999997566
                },
                {
                    "name": "E5",
                    "midi": 76,
                    "time": 294.2520670000093,
                    "velocity": 0.3464566929133858,
                    "duration": 0.058650999999997566
                },
                {
                    "name": "D#5",
                    "midi": 75,
                    "time": 294.3107180000093,
                    "velocity": 0.33858267716535434,
                    "duration": 0.058650999999997566
                },
                {
                    "name": "D5",
                    "midi": 74,
                    "time": 294.36936900000927,
                    "velocity": 0.3228346456692913,
                    "duration": 0.058650999999997566
                },
                {
                    "name": "D#5",
                    "midi": 75,
                    "time": 294.42802000000927,
                    "velocity": 0.3464566929133858,
                    "duration": 0.058650999999997566
                },
                {
                    "name": "E5",
                    "midi": 76,
                    "time": 294.48667100000927,
                    "velocity": 0.36220472440944884,
                    "duration": 0.058650999999997566
                },
                {
                    "name": "F5",
                    "midi": 77,
                    "time": 294.54532200000926,
                    "velocity": 0.3858267716535433,
                    "duration": 0.058650999999997566
                },
                {
                    "name": "E5",
                    "midi": 76,
                    "time": 294.60397300000926,
                    "velocity": 0.3858267716535433,
                    "duration": 0.058650999999997566
                },
                {
                    "name": "D#5",
                    "midi": 75,
                    "time": 294.66262400000926,
                    "velocity": 0.3700787401574803,
                    "duration": 0.058650999999997566
                },
                {
                    "name": "D5",
                    "midi": 74,
                    "time": 294.72127500000926,
                    "velocity": 0.36220472440944884,
                    "duration": 0.058650999999997566
                },
                {
                    "name": "C#5",
                    "midi": 73,
                    "time": 294.77992600000925,
                    "velocity": 0.3543307086614173,
                    "duration": 0.058650999999997566
                },
                {
                    "name": "C5",
                    "midi": 72,
                    "time": 294.83857700000925,
                    "velocity": 0.3464566929133858,
                    "duration": 0.058650999999997566
                },
                {
                    "name": "B4",
                    "midi": 71,
                    "time": 294.89722800000925,
                    "velocity": 0.33858267716535434,
                    "duration": 0.058650999999997566
                },
                {
                    "name": "A#4",
                    "midi": 70,
                    "time": 294.95587900000925,
                    "velocity": 0.3228346456692913,
                    "duration": 0.058650999999997566
                },
                {
                    "name": "A4",
                    "midi": 69,
                    "time": 295.01453000000924,
                    "velocity": 0.31496062992125984,
                    "duration": 0.058650999999997566
                },
                {
                    "name": "G#4",
                    "midi": 68,
                    "time": 295.07318100000924,
                    "velocity": 0.30708661417322836,
                    "duration": 0.058650999999997566
                },
                {
                    "name": "A4",
                    "midi": 69,
                    "time": 295.13183200000924,
                    "velocity": 0.3464566929133858,
                    "duration": 0.058650999999997566
                },
                {
                    "name": "A#4",
                    "midi": 70,
                    "time": 295.19048300000924,
                    "velocity": 0.36220472440944884,
                    "duration": 0.058650999999997566
                },
                {
                    "name": "B4",
                    "midi": 71,
                    "time": 295.24913400000924,
                    "velocity": 0.3779527559055118,
                    "duration": 0.058650999999997566
                },
                {
                    "name": "A#4",
                    "midi": 70,
                    "time": 295.30778500000923,
                    "velocity": 0.3858267716535433,
                    "duration": 0.058650999999997566
                },
                {
                    "name": "A4",
                    "midi": 69,
                    "time": 295.36643600000923,
                    "velocity": 0.3779527559055118,
                    "duration": 0.058650999999997566
                },
                {
                    "name": "G#4",
                    "midi": 68,
                    "time": 295.4250870000092,
                    "velocity": 0.3543307086614173,
                    "duration": 0.043988249999983964
                },
                {
                    "name": "G4",
                    "midi": 67,
                    "time": 295.4690752500092,
                    "velocity": 0.3543307086614173,
                    "duration": 0.043988249999983964
                },
                {
                    "name": "F#4",
                    "midi": 66,
                    "time": 295.5130635000092,
                    "velocity": 0.3700787401574803,
                    "duration": 0.043988249999983964
                },
                {
                    "name": "F4",
                    "midi": 65,
                    "time": 295.5570517500092,
                    "velocity": 0.3858267716535433,
                    "duration": 0.043988249999983964
                },
                {
                    "name": "E4",
                    "midi": 64,
                    "time": 295.60104000000916,
                    "velocity": 0.3937007874015748,
                    "duration": 0.08797650000002477
                },
                {
                    "name": "G4",
                    "midi": 67,
                    "time": 295.7769930000092,
                    "velocity": 0.3543307086614173,
                    "duration": 0.26392950000001747
                },
                {
                    "name": "A#4",
                    "midi": 70,
                    "time": 295.7769930000092,
                    "velocity": 0.4251968503937008,
                    "duration": 0.26392950000001747
                },
                {
                    "name": "G4",
                    "midi": 67,
                    "time": 296.12889900000926,
                    "velocity": 0.33858267716535434,
                    "duration": 0.06598237499997595
                },
                {
                    "name": "A#4",
                    "midi": 70,
                    "time": 296.12889900000926,
                    "velocity": 0.4015748031496063,
                    "duration": 0.06598237499997595
                },
                {
                    "name": "G4",
                    "midi": 67,
                    "time": 296.30485200000925,
                    "velocity": 0.33858267716535434,
                    "duration": 0.06598237500003279
                },
                {
                    "name": "A#4",
                    "midi": 70,
                    "time": 296.3077845500093,
                    "velocity": 0.4015748031496063,
                    "duration": 0.06598237500003279
                },
                {
                    "name": "F#4",
                    "midi": 66,
                    "time": 296.4808050000093,
                    "velocity": 0.3779527559055118,
                    "duration": 0.5278589999999781
                },
                {
                    "name": "D#5",
                    "midi": 75,
                    "time": 296.4808050000093,
                    "velocity": 0.4409448818897638,
                    "duration": 0.5278589999999781
                },
                {
                    "name": "D#5",
                    "midi": 75,
                    "time": 297.0086640000093,
                    "velocity": 0.3858267716535433,
                    "duration": 0.06598237499997595
                },
                {
                    "name": "F#4",
                    "midi": 66,
                    "time": 297.0086640000093,
                    "velocity": 0.3228346456692913,
                    "duration": 0.06598237499997595
                },
                {
                    "name": "E4",
                    "midi": 64,
                    "time": 297.18461700000927,
                    "velocity": 0.3464566929133858,
                    "duration": 0.1759529999999927
                },
                {
                    "name": "C#5",
                    "midi": 73,
                    "time": 297.18461700000927,
                    "velocity": 0.4094488188976378,
                    "duration": 0.06598237499997595
                },
                {
                    "name": "A#4",
                    "midi": 70,
                    "time": 297.36057000000926,
                    "velocity": 0.4094488188976378,
                    "duration": 0.06598237499997595
                },
                {
                    "name": "D#4",
                    "midi": 63,
                    "time": 297.53652300000925,
                    "velocity": 0.3464566929133858,
                    "duration": 0.1759529999999927
                },
                {
                    "name": "B4",
                    "midi": 71,
                    "time": 297.53652300000925,
                    "velocity": 0.4094488188976378,
                    "duration": 0.06598237499997595
                },
                {
                    "name": "G#4",
                    "midi": 68,
                    "time": 297.71247600000925,
                    "velocity": 0.4251968503937008,
                    "duration": 0.06598237499997595
                },
                {
                    "name": "G4",
                    "midi": 67,
                    "time": 297.88842900000924,
                    "velocity": 0.3464566929133858,
                    "duration": 0.17448672499995155
                },
                {
                    "name": "A#4",
                    "midi": 70,
                    "time": 297.88842900000924,
                    "velocity": 0.41732283464566927,
                    "duration": 0.06598237499997595
                },
                {
                    "name": "D#4",
                    "midi": 63,
                    "time": 298.0643820000092,
                    "velocity": 0.3937007874015748,
                    "duration": 0.06598237499997595
                },
                {
                    "name": "G4",
                    "midi": 67,
                    "time": 298.59224100000915,
                    "velocity": 0.3858267716535433,
                    "duration": 0.26392950000001747
                },
                {
                    "name": "A#4",
                    "midi": 70,
                    "time": 298.59224100000915,
                    "velocity": 0.4645669291338583,
                    "duration": 0.26392950000001747
                },
                {
                    "name": "G4",
                    "midi": 67,
                    "time": 298.9441470000092,
                    "velocity": 0.3700787401574803,
                    "duration": 0.06598237499997595
                },
                {
                    "name": "A#4",
                    "midi": 70,
                    "time": 298.9441470000092,
                    "velocity": 0.4409448818897638,
                    "duration": 0.06598237499997595
                },
                {
                    "name": "A#4",
                    "midi": 70,
                    "time": 299.1201000000092,
                    "velocity": 0.4409448818897638,
                    "duration": 0.06598237499997595
                },
                {
                    "name": "G4",
                    "midi": 67,
                    "time": 299.1201000000092,
                    "velocity": 0.3700787401574803,
                    "duration": 0.06598237499997595
                },
                {
                    "name": "F#4",
                    "midi": 66,
                    "time": 299.2960530000092,
                    "velocity": 0.4094488188976378,
                    "duration": 0.5278589999999781
                },
                {
                    "name": "D#5",
                    "midi": 75,
                    "time": 299.2960530000092,
                    "velocity": 0.48031496062992124,
                    "duration": 0.5278589999999781
                },
                {
                    "name": "D#5",
                    "midi": 75,
                    "time": 299.82391200000916,
                    "velocity": 0.41732283464566927,
                    "duration": 0.06598237499997595
                },
                {
                    "name": "F#4",
                    "midi": 66,
                    "time": 299.82391200000916,
                    "velocity": 0.3543307086614173,
                    "duration": 0.06598237499997595
                },
                {
                    "name": "E4",
                    "midi": 64,
                    "time": 299.99986500000915,
                    "velocity": 0.3779527559055118,
                    "duration": 0.1759529999999927
                },
                {
                    "name": "C#5",
                    "midi": 73,
                    "time": 299.99986500000915,
                    "velocity": 0.44881889763779526,
                    "duration": 0.06598237499997595
                },
                {
                    "name": "B4",
                    "midi": 71,
                    "time": 300.17581800000914,
                    "velocity": 0.44881889763779526,
                    "duration": 0.06598237499997595
                },
                {
                    "name": "G4",
                    "midi": 67,
                    "time": 300.35177100000914,
                    "velocity": 0.3779527559055118,
                    "duration": 0.1759529999999927
                },
                {
                    "name": "A#4",
                    "midi": 70,
                    "time": 300.35177100000914,
                    "velocity": 0.4566929133858268,
                    "duration": 0.06598237499997595
                },
                {
                    "name": "D#4",
                    "midi": 63,
                    "time": 300.52772400000913,
                    "velocity": 0.48031496062992124,
                    "duration": 0.06598237499997595
                },
                {
                    "name": "G#4",
                    "midi": 68,
                    "time": 300.7036770000091,
                    "velocity": 0.47244094488188976,
                    "duration": 0.06598237499997595
                },
                {
                    "name": "D#4",
                    "midi": 63,
                    "time": 300.8796300000091,
                    "velocity": 0.4566929133858268,
                    "duration": 0.06598237499997595
                },
                {
                    "name": "D#4",
                    "midi": 63,
                    "time": 301.0555830000091,
                    "velocity": 0.4330708661417323,
                    "duration": 0.06598237499997595
                },
                {
                    "name": "G#4",
                    "midi": 68,
                    "time": 301.0555830000091,
                    "velocity": 0.4881889763779528,
                    "duration": 0.06598237499997595
                },
                {
                    "name": "A#4",
                    "midi": 70,
                    "time": 301.4074890000091,
                    "velocity": 0.4566929133858268,
                    "duration": 0.26392950000001747
                },
                {
                    "name": "D#5",
                    "midi": 75,
                    "time": 301.4074890000091,
                    "velocity": 0.4566929133858268,
                    "duration": 0.26392950000001747
                },
                {
                    "name": "G5",
                    "midi": 79,
                    "time": 301.4074890000091,
                    "velocity": 0.4566929133858268,
                    "duration": 0.26392950000001747
                },
                {
                    "name": "A#5",
                    "midi": 82,
                    "time": 301.4074890000091,
                    "velocity": 0.5511811023622047,
                    "duration": 0.26392950000001747
                },
                {
                    "name": "A#4",
                    "midi": 70,
                    "time": 301.75939500000914,
                    "velocity": 0.4330708661417323,
                    "duration": 0.06598237499997595
                },
                {
                    "name": "D#5",
                    "midi": 75,
                    "time": 301.75939500000914,
                    "velocity": 0.4330708661417323,
                    "duration": 0.06598237499997595
                },
                {
                    "name": "G5",
                    "midi": 79,
                    "time": 301.75939500000914,
                    "velocity": 0.4330708661417323,
                    "duration": 0.06598237499997595
                },
                {
                    "name": "A#5",
                    "midi": 82,
                    "time": 301.75939500000914,
                    "velocity": 0.5196850393700787,
                    "duration": 0.06598237499997595
                },
                {
                    "name": "A#5",
                    "midi": 82,
                    "time": 301.9353480000091,
                    "velocity": 0.5196850393700787,
                    "duration": 0.06598237499997595
                },
                {
                    "name": "A#4",
                    "midi": 70,
                    "time": 301.9353480000091,
                    "velocity": 0.4330708661417323,
                    "duration": 0.06598237499997595
                },
                {
                    "name": "D#5",
                    "midi": 75,
                    "time": 301.9353480000091,
                    "velocity": 0.4330708661417323,
                    "duration": 0.06598237499997595
                },
                {
                    "name": "G5",
                    "midi": 79,
                    "time": 301.9353480000091,
                    "velocity": 0.4330708661417323,
                    "duration": 0.06598237499997595
                },
                {
                    "name": "D#5",
                    "midi": 75,
                    "time": 302.1113010000091,
                    "velocity": 0.4881889763779528,
                    "duration": 0.5278589999999781
                },
                {
                    "name": "F#5",
                    "midi": 78,
                    "time": 302.1113010000091,
                    "velocity": 0.4881889763779528,
                    "duration": 0.5278589999999781
                },
                {
                    "name": "D#6",
                    "midi": 87,
                    "time": 302.1113010000091,
                    "velocity": 0.5669291338582677,
                    "duration": 0.5278589999999781
                },
                {
                    "name": "D#5",
                    "midi": 75,
                    "time": 302.6391600000091,
                    "velocity": 0.41732283464566927,
                    "duration": 0.06598237499997595
                },
                {
                    "name": "D#6",
                    "midi": 87,
                    "time": 302.6391600000091,
                    "velocity": 0.49606299212598426,
                    "duration": 0.06598237499997595
                },
                {
                    "name": "F#5",
                    "midi": 78,
                    "time": 302.6391600000091,
                    "velocity": 0.41732283464566927,
                    "duration": 0.06598237499997595
                },
                {
                    "name": "C#5",
                    "midi": 73,
                    "time": 302.8151130000091,
                    "velocity": 0.44881889763779526,
                    "duration": 0.06598237499997595
                },
                {
                    "name": "E5",
                    "midi": 76,
                    "time": 302.8151130000091,
                    "velocity": 0.44881889763779526,
                    "duration": 0.06598237499997595
                },
                {
                    "name": "C#6",
                    "midi": 85,
                    "time": 302.8151130000091,
                    "velocity": 0.5275590551181102,
                    "duration": 0.06598237499997595
                },
                {
                    "name": "A#4",
                    "midi": 70,
                    "time": 302.9910660000091,
                    "velocity": 0.5275590551181102,
                    "duration": 0.06598237499997595
                },
                {
                    "name": "A#5",
                    "midi": 82,
                    "time": 302.9910660000091,
                    "velocity": 0.5275590551181102,
                    "duration": 0.06598237499997595
                },
                {
                    "name": "B4",
                    "midi": 71,
                    "time": 303.1670190000091,
                    "velocity": 0.44881889763779526,
                    "duration": 0.06598237499997595
                },
                {
                    "name": "D#5",
                    "midi": 75,
                    "time": 303.1670190000091,
                    "velocity": 0.44881889763779526,
                    "duration": 0.06598237499997595
                },
                {
                    "name": "B5",
                    "midi": 83,
                    "time": 303.1670190000091,
                    "velocity": 0.5275590551181102,
                    "duration": 0.06598237499997595
                },
                {
                    "name": "G#4",
                    "midi": 68,
                    "time": 303.34297200000907,
                    "velocity": 0.5511811023622047,
                    "duration": 0.06598237499997595
                },
                {
                    "name": "G#5",
                    "midi": 80,
                    "time": 303.34297200000907,
                    "velocity": 0.5511811023622047,
                    "duration": 0.06598237499997595
                },
                {
                    "name": "A#4",
                    "midi": 70,
                    "time": 303.51892500000906,
                    "velocity": 0.44881889763779526,
                    "duration": 0.06598237499997595
                },
                {
                    "name": "D#5",
                    "midi": 75,
                    "time": 303.51892500000906,
                    "velocity": 0.44881889763779526,
                    "duration": 0.06598237499997595
                },
                {
                    "name": "A#5",
                    "midi": 82,
                    "time": 303.51892500000906,
                    "velocity": 0.5354330708661418,
                    "duration": 0.06598237499997595
                },
                {
                    "name": "D#4",
                    "midi": 63,
                    "time": 303.69487800000906,
                    "velocity": 0.44881889763779526,
                    "duration": 0.06598237499997595
                },
                {
                    "name": "D#5",
                    "midi": 75,
                    "time": 303.69487800000906,
                    "velocity": 0.5118110236220472,
                    "duration": 0.06598237499997595
                },
                {
                    "name": "D#4",
                    "midi": 63,
                    "time": 303.87083100000905,
                    "velocity": 0.44881889763779526,
                    "duration": 0.06598237499997595
                },
                {
                    "name": "D#5",
                    "midi": 75,
                    "time": 303.87083100000905,
                    "velocity": 0.5354330708661418,
                    "duration": 0.06598237499997595
                },
                {
                    "name": "A#4",
                    "midi": 70,
                    "time": 304.22273700000903,
                    "velocity": 0.47244094488188976,
                    "duration": 0.26392950000001747
                },
                {
                    "name": "D#5",
                    "midi": 75,
                    "time": 304.22273700000903,
                    "velocity": 0.47244094488188976,
                    "duration": 0.26392950000001747
                },
                {
                    "name": "G5",
                    "midi": 79,
                    "time": 304.22273700000903,
                    "velocity": 0.47244094488188976,
                    "duration": 0.26392950000001747
                },
                {
                    "name": "A#5",
                    "midi": 82,
                    "time": 304.22273700000903,
                    "velocity": 0.5748031496062992,
                    "duration": 0.26392950000001747
                },
                {
                    "name": "A#4",
                    "midi": 70,
                    "time": 304.5746430000091,
                    "velocity": 0.44881889763779526,
                    "duration": 0.06598237499997595
                },
                {
                    "name": "D#5",
                    "midi": 75,
                    "time": 304.5746430000091,
                    "velocity": 0.44881889763779526,
                    "duration": 0.06598237499997595
                },
                {
                    "name": "G5",
                    "midi": 79,
                    "time": 304.5746430000091,
                    "velocity": 0.44881889763779526,
                    "duration": 0.06598237499997595
                },
                {
                    "name": "A#5",
                    "midi": 82,
                    "time": 304.5746430000091,
                    "velocity": 0.5433070866141733,
                    "duration": 0.06598237499997595
                },
                {
                    "name": "A#5",
                    "midi": 82,
                    "time": 304.75059600000907,
                    "velocity": 0.5433070866141733,
                    "duration": 0.06598237499997595
                },
                {
                    "name": "A#4",
                    "midi": 70,
                    "time": 304.75059600000907,
                    "velocity": 0.44881889763779526,
                    "duration": 0.06598237499997595
                },
                {
                    "name": "D#5",
                    "midi": 75,
                    "time": 304.75059600000907,
                    "velocity": 0.44881889763779526,
                    "duration": 0.06598237499997595
                },
                {
                    "name": "G5",
                    "midi": 79,
                    "time": 304.75059600000907,
                    "velocity": 0.44881889763779526,
                    "duration": 0.06598237499997595
                },
                {
                    "name": "D#5",
                    "midi": 75,
                    "time": 304.92654900000906,
                    "velocity": 0.5118110236220472,
                    "duration": 0.7038120000000276
                },
                {
                    "name": "F#5",
                    "midi": 78,
                    "time": 304.92654900000906,
                    "velocity": 0.5118110236220472,
                    "duration": 0.7038120000000276
                },
                {
                    "name": "D#6",
                    "midi": 87,
                    "time": 304.92654900000906,
                    "velocity": 0.5905511811023622,
                    "duration": 0.7038120000000276
                },
                {
                    "name": "D5",
                    "midi": 74,
                    "time": 305.6303610000091,
                    "velocity": 0.49606299212598426,
                    "duration": 0.26392950000001747
                },
                {
                    "name": "G5",
                    "midi": 79,
                    "time": 305.6303610000091,
                    "velocity": 0.49606299212598426,
                    "duration": 0.26392950000001747
                },
                {
                    "name": "B5",
                    "midi": 83,
                    "time": 305.6303610000091,
                    "velocity": 0.49606299212598426,
                    "duration": 0.26392950000001747
                },
                {
                    "name": "D6",
                    "midi": 86,
                    "time": 305.6303610000091,
                    "velocity": 0.5984251968503937,
                    "duration": 0.26392950000001747
                },
                {
                    "name": "D5",
                    "midi": 74,
                    "time": 305.98226700000913,
                    "velocity": 0.4645669291338583,
                    "duration": 0.06598237499997595
                },
                {
                    "name": "G5",
                    "midi": 79,
                    "time": 305.98226700000913,
                    "velocity": 0.4645669291338583,
                    "duration": 0.06598237499997595
                },
                {
                    "name": "B5",
                    "midi": 83,
                    "time": 305.98226700000913,
                    "velocity": 0.4645669291338583,
                    "duration": 0.06598237499997595
                },
                {
                    "name": "D6",
                    "midi": 86,
                    "time": 305.98226700000913,
                    "velocity": 0.5669291338582677,
                    "duration": 0.06598237499997595
                },
                {
                    "name": "D6",
                    "midi": 86,
                    "time": 306.1582200000091,
                    "velocity": 0.5669291338582677,
                    "duration": 0.06598237499997595
                },
                {
                    "name": "D5",
                    "midi": 74,
                    "time": 306.1582200000091,
                    "velocity": 0.4645669291338583,
                    "duration": 0.06598237499997595
                },
                {
                    "name": "G5",
                    "midi": 79,
                    "time": 306.1582200000091,
                    "velocity": 0.4645669291338583,
                    "duration": 0.06598237499997595
                },
                {
                    "name": "B5",
                    "midi": 83,
                    "time": 306.1582200000091,
                    "velocity": 0.4645669291338583,
                    "duration": 0.06598237499997595
                },
                {
                    "name": "G5",
                    "midi": 79,
                    "time": 306.3341730000091,
                    "velocity": 0.5354330708661418,
                    "duration": 0.7038120000000276
                },
                {
                    "name": "A#5",
                    "midi": 82,
                    "time": 306.3341730000091,
                    "velocity": 0.5354330708661418,
                    "duration": 0.7038120000000276
                },
                {
                    "name": "D#6",
                    "midi": 87,
                    "time": 306.3341730000091,
                    "velocity": 0.5354330708661418,
                    "duration": 0.7038120000000276
                },
                {
                    "name": "G6",
                    "midi": 91,
                    "time": 306.3341730000091,
                    "velocity": 0.6141732283464567,
                    "duration": 0.7038120000000276
                },
                {
                    "name": "G5",
                    "midi": 79,
                    "time": 307.03798500000914,
                    "velocity": 0.5196850393700787,
                    "duration": 0.26392950000001747
                },
                {
                    "name": "C6",
                    "midi": 84,
                    "time": 307.03798500000914,
                    "velocity": 0.5196850393700787,
                    "duration": 0.26392950000001747
                },
                {
                    "name": "E6",
                    "midi": 88,
                    "time": 307.03798500000914,
                    "velocity": 0.5196850393700787,
                    "duration": 0.26392950000001747
                },
                {
                    "name": "G6",
                    "midi": 91,
                    "time": 307.03798500000914,
                    "velocity": 0.6220472440944882,
                    "duration": 0.26392950000001747
                },
                {
                    "name": "G5",
                    "midi": 79,
                    "time": 307.3898910000092,
                    "velocity": 0.48031496062992124,
                    "duration": 0.06598237499997595
                },
                {
                    "name": "C6",
                    "midi": 84,
                    "time": 307.3898910000092,
                    "velocity": 0.48031496062992124,
                    "duration": 0.06598237499997595
                },
                {
                    "name": "E6",
                    "midi": 88,
                    "time": 307.3898910000092,
                    "velocity": 0.48031496062992124,
                    "duration": 0.06598237499997595
                },
                {
                    "name": "G6",
                    "midi": 91,
                    "time": 307.3898910000092,
                    "velocity": 0.5905511811023622,
                    "duration": 0.06598237499997595
                },
                {
                    "name": "G6",
                    "midi": 91,
                    "time": 307.5658440000092,
                    "velocity": 0.5905511811023622,
                    "duration": 0.06598237499997595
                },
                {
                    "name": "G5",
                    "midi": 79,
                    "time": 307.5658440000092,
                    "velocity": 0.48031496062992124,
                    "duration": 0.06598237499997595
                },
                {
                    "name": "C6",
                    "midi": 84,
                    "time": 307.5658440000092,
                    "velocity": 0.48031496062992124,
                    "duration": 0.06598237499997595
                },
                {
                    "name": "E6",
                    "midi": 88,
                    "time": 307.5658440000092,
                    "velocity": 0.48031496062992124,
                    "duration": 0.06598237499997595
                },
                {
                    "name": "C6",
                    "midi": 84,
                    "time": 307.74179700000917,
                    "velocity": 0.5590551181102362,
                    "duration": 0.7038120000000276
                },
                {
                    "name": "E6",
                    "midi": 88,
                    "time": 307.74179700000917,
                    "velocity": 0.5590551181102362,
                    "duration": 0.7038120000000276
                },
                {
                    "name": "G6",
                    "midi": 91,
                    "time": 307.74179700000917,
                    "velocity": 0.5590551181102362,
                    "duration": 0.7038120000000276
                },
                {
                    "name": "C7",
                    "midi": 96,
                    "time": 307.74179700000917,
                    "velocity": 0.6377952755905512,
                    "duration": 0.7038120000000276
                },
                {
                    "name": "G4",
                    "midi": 67,
                    "time": 308.4456090000092,
                    "velocity": 0.5275590551181102,
                    "duration": 0.26392950000001747
                },
                {
                    "name": "C5",
                    "midi": 72,
                    "time": 308.4456090000092,
                    "velocity": 0.5275590551181102,
                    "duration": 0.26392950000001747
                },
                {
                    "name": "E5",
                    "midi": 76,
                    "time": 308.4456090000092,
                    "velocity": 0.5275590551181102,
                    "duration": 0.26392950000001747
                },
                {
                    "name": "G5",
                    "midi": 79,
                    "time": 308.4456090000092,
                    "velocity": 0.6299212598425197,
                    "duration": 0.26392950000001747
                },
                {
                    "name": "G4",
                    "midi": 67,
                    "time": 308.79751500000924,
                    "velocity": 0.4881889763779528,
                    "duration": 0.06598237499997595
                },
                {
                    "name": "C5",
                    "midi": 72,
                    "time": 308.79751500000924,
                    "velocity": 0.4881889763779528,
                    "duration": 0.06598237499997595
                },
                {
                    "name": "E5",
                    "midi": 76,
                    "time": 308.79751500000924,
                    "velocity": 0.4881889763779528,
                    "duration": 0.06598237499997595
                },
                {
                    "name": "G5",
                    "midi": 79,
                    "time": 308.79751500000924,
                    "velocity": 0.6062992125984252,
                    "duration": 0.06598237499997595
                },
                {
                    "name": "G5",
                    "midi": 79,
                    "time": 308.97346800000923,
                    "velocity": 0.6062992125984252,
                    "duration": 0.06598237499997595
                },
                {
                    "name": "G4",
                    "midi": 67,
                    "time": 308.97346800000923,
                    "velocity": 0.4881889763779528,
                    "duration": 0.06598237499997595
                },
                {
                    "name": "C5",
                    "midi": 72,
                    "time": 308.97346800000923,
                    "velocity": 0.4881889763779528,
                    "duration": 0.06598237499997595
                },
                {
                    "name": "E5",
                    "midi": 76,
                    "time": 308.97346800000923,
                    "velocity": 0.4881889763779528,
                    "duration": 0.06598237499997595
                },
                {
                    "name": "C5",
                    "midi": 72,
                    "time": 309.1494210000092,
                    "velocity": 0.5748031496062992,
                    "duration": 0.7038120000000276
                },
                {
                    "name": "E5",
                    "midi": 76,
                    "time": 309.1494210000092,
                    "velocity": 0.5748031496062992,
                    "duration": 0.7038120000000276
                },
                {
                    "name": "G5",
                    "midi": 79,
                    "time": 309.1494210000092,
                    "velocity": 0.5748031496062992,
                    "duration": 0.7038120000000276
                },
                {
                    "name": "C6",
                    "midi": 84,
                    "time": 309.1494210000092,
                    "velocity": 0.6535433070866141,
                    "duration": 0.7038120000000276
                },
                {
                    "name": "G5",
                    "midi": 79,
                    "time": 309.85323300000925,
                    "velocity": 0.5433070866141733,
                    "duration": 0.26392950000001747
                },
                {
                    "name": "C6",
                    "midi": 84,
                    "time": 309.85323300000925,
                    "velocity": 0.5433070866141733,
                    "duration": 0.26392950000001747
                },
                {
                    "name": "E6",
                    "midi": 88,
                    "time": 309.85323300000925,
                    "velocity": 0.5433070866141733,
                    "duration": 0.26392950000001747
                },
                {
                    "name": "G6",
                    "midi": 91,
                    "time": 309.85323300000925,
                    "velocity": 0.6456692913385826,
                    "duration": 0.26392950000001747
                },
                {
                    "name": "G5",
                    "midi": 79,
                    "time": 310.2051390000093,
                    "velocity": 0.5039370078740157,
                    "duration": 0.06598237499997595
                },
                {
                    "name": "C6",
                    "midi": 84,
                    "time": 310.2051390000093,
                    "velocity": 0.5039370078740157,
                    "duration": 0.06598237499997595
                },
                {
                    "name": "E6",
                    "midi": 88,
                    "time": 310.2051390000093,
                    "velocity": 0.5039370078740157,
                    "duration": 0.06598237499997595
                },
                {
                    "name": "G6",
                    "midi": 91,
                    "time": 310.2051390000093,
                    "velocity": 0.6141732283464567,
                    "duration": 0.06598237499997595
                },
                {
                    "name": "G6",
                    "midi": 91,
                    "time": 310.3810920000093,
                    "velocity": 0.6141732283464567,
                    "duration": 0.06598237499997595
                },
                {
                    "name": "G5",
                    "midi": 79,
                    "time": 310.3810920000093,
                    "velocity": 0.5039370078740157,
                    "duration": 0.06598237499997595
                },
                {
                    "name": "C6",
                    "midi": 84,
                    "time": 310.3810920000093,
                    "velocity": 0.5039370078740157,
                    "duration": 0.06598237499997595
                },
                {
                    "name": "E6",
                    "midi": 88,
                    "time": 310.3810920000093,
                    "velocity": 0.5039370078740157,
                    "duration": 0.06598237499997595
                },
                {
                    "name": "C6",
                    "midi": 84,
                    "time": 310.5570450000093,
                    "velocity": 0.5905511811023622,
                    "duration": 0.7038120000000276
                },
                {
                    "name": "E6",
                    "midi": 88,
                    "time": 310.5570450000093,
                    "velocity": 0.5905511811023622,
                    "duration": 0.7038120000000276
                },
                {
                    "name": "G6",
                    "midi": 91,
                    "time": 310.5570450000093,
                    "velocity": 0.5905511811023622,
                    "duration": 0.7038120000000276
                },
                {
                    "name": "C7",
                    "midi": 96,
                    "time": 310.5570450000093,
                    "velocity": 0.6692913385826772,
                    "duration": 0.7038120000000276
                },
                {
                    "name": "G4",
                    "midi": 67,
                    "time": 311.2608570000093,
                    "velocity": 0.5511811023622047,
                    "duration": 0.26392950000001747
                },
                {
                    "name": "C5",
                    "midi": 72,
                    "time": 311.2608570000093,
                    "velocity": 0.5511811023622047,
                    "duration": 0.26392950000001747
                },
                {
                    "name": "E5",
                    "midi": 76,
                    "time": 311.2608570000093,
                    "velocity": 0.5511811023622047,
                    "duration": 0.26392950000001747
                },
                {
                    "name": "G5",
                    "midi": 79,
                    "time": 311.2608570000093,
                    "velocity": 0.6614173228346457,
                    "duration": 0.26392950000001747
                },
                {
                    "name": "G4",
                    "midi": 67,
                    "time": 311.61276300000935,
                    "velocity": 0.5118110236220472,
                    "duration": 0.06598237499997595
                },
                {
                    "name": "C5",
                    "midi": 72,
                    "time": 311.61276300000935,
                    "velocity": 0.5118110236220472,
                    "duration": 0.06598237499997595
                },
                {
                    "name": "E5",
                    "midi": 76,
                    "time": 311.61276300000935,
                    "velocity": 0.5118110236220472,
                    "duration": 0.06598237499997595
                },
                {
                    "name": "G5",
                    "midi": 79,
                    "time": 311.61276300000935,
                    "velocity": 0.6377952755905512,
                    "duration": 0.06598237499997595
                },
                {
                    "name": "G5",
                    "midi": 79,
                    "time": 311.78871600000934,
                    "velocity": 0.6377952755905512,
                    "duration": 0.06598237499997595
                },
                {
                    "name": "G4",
                    "midi": 67,
                    "time": 311.78871600000934,
                    "velocity": 0.5118110236220472,
                    "duration": 0.06598237499997595
                },
                {
                    "name": "C5",
                    "midi": 72,
                    "time": 311.78871600000934,
                    "velocity": 0.5118110236220472,
                    "duration": 0.06598237499997595
                },
                {
                    "name": "E5",
                    "midi": 76,
                    "time": 311.78871600000934,
                    "velocity": 0.5118110236220472,
                    "duration": 0.06598237499997595
                },
                {
                    "name": "C5",
                    "midi": 72,
                    "time": 311.96466900000934,
                    "velocity": 0.5984251968503937,
                    "duration": 0.7038120000000276
                },
                {
                    "name": "E5",
                    "midi": 76,
                    "time": 311.96466900000934,
                    "velocity": 0.5984251968503937,
                    "duration": 0.7038120000000276
                },
                {
                    "name": "G5",
                    "midi": 79,
                    "time": 311.96466900000934,
                    "velocity": 0.5984251968503937,
                    "duration": 0.7038120000000276
                },
                {
                    "name": "C6",
                    "midi": 84,
                    "time": 311.96466900000934,
                    "velocity": 0.6850393700787402,
                    "duration": 0.7038120000000276
                },
                {
                    "name": "C#6",
                    "midi": 85,
                    "time": 312.66848100000936,
                    "velocity": 0.5669291338582677,
                    "duration": 0.26392950000001747
                },
                {
                    "name": "A6",
                    "midi": 93,
                    "time": 312.66848100000936,
                    "velocity": 0.5669291338582677,
                    "duration": 0.26392950000001747
                },
                {
                    "name": "C#7",
                    "midi": 97,
                    "time": 312.66848100000936,
                    "velocity": 0.6771653543307087,
                    "duration": 0.26392950000001747
                },
                {
                    "name": "C#6",
                    "midi": 85,
                    "time": 313.0203870000094,
                    "velocity": 0.5275590551181102,
                    "duration": 0.06598237499997595
                },
                {
                    "name": "A6",
                    "midi": 93,
                    "time": 313.0203870000094,
                    "velocity": 0.5275590551181102,
                    "duration": 0.06598237499997595
                },
                {
                    "name": "C#7",
                    "midi": 97,
                    "time": 313.0203870000094,
                    "velocity": 0.6456692913385826,
                    "duration": 0.06598237499997595
                },
                {
                    "name": "C#7",
                    "midi": 97,
                    "time": 313.1963400000094,
                    "velocity": 0.6456692913385826,
                    "duration": 0.06598237499997595
                },
                {
                    "name": "C#6",
                    "midi": 85,
                    "time": 313.1963400000094,
                    "velocity": 0.5275590551181102,
                    "duration": 0.06598237499997595
                },
                {
                    "name": "A6",
                    "midi": 93,
                    "time": 313.1963400000094,
                    "velocity": 0.5275590551181102,
                    "duration": 0.06598237499997595
                },
                {
                    "name": "C#7",
                    "midi": 97,
                    "time": 313.3722930000094,
                    "velocity": 0.6141732283464567,
                    "duration": 0.7038120000000276
                },
                {
                    "name": "E6",
                    "midi": 88,
                    "time": 313.3722930000094,
                    "velocity": 0.6141732283464567,
                    "duration": 0.7038120000000276
                },
                {
                    "name": "A6",
                    "midi": 93,
                    "time": 313.3722930000094,
                    "velocity": 0.6141732283464567,
                    "duration": 0.7038120000000276
                },
                {
                    "name": "E7",
                    "midi": 100,
                    "time": 313.3722930000094,
                    "velocity": 0.7007874015748031,
                    "duration": 0.7038120000000276
                },
                {
                    "name": "C#5",
                    "midi": 73,
                    "time": 314.0761050000094,
                    "velocity": 0.5669291338582677,
                    "duration": 0.26392950000001747
                },
                {
                    "name": "A5",
                    "midi": 81,
                    "time": 314.0761050000094,
                    "velocity": 0.5669291338582677,
                    "duration": 0.26392950000001747
                },
                {
                    "name": "C#6",
                    "midi": 85,
                    "time": 314.0761050000094,
                    "velocity": 0.6771653543307087,
                    "duration": 0.26392950000001747
                },
                {
                    "name": "C#5",
                    "midi": 73,
                    "time": 314.42801100000946,
                    "velocity": 0.5275590551181102,
                    "duration": 0.06598237499997595
                },
                {
                    "name": "A5",
                    "midi": 81,
                    "time": 314.42801100000946,
                    "velocity": 0.5275590551181102,
                    "duration": 0.06598237499997595
                },
                {
                    "name": "C#6",
                    "midi": 85,
                    "time": 314.42801100000946,
                    "velocity": 0.6456692913385826,
                    "duration": 0.06598237499997595
                },
                {
                    "name": "C#6",
                    "midi": 85,
                    "time": 314.60396400000946,
                    "velocity": 0.6456692913385826,
                    "duration": 0.06598237499997595
                },
                {
                    "name": "C#5",
                    "midi": 73,
                    "time": 314.60396400000946,
                    "velocity": 0.5275590551181102,
                    "duration": 0.06598237499997595
                },
                {
                    "name": "A5",
                    "midi": 81,
                    "time": 314.60396400000946,
                    "velocity": 0.5275590551181102,
                    "duration": 0.06598237499997595
                },
                {
                    "name": "C#6",
                    "midi": 85,
                    "time": 314.77991700000945,
                    "velocity": 0.6141732283464567,
                    "duration": 0.7038120000000276
                },
                {
                    "name": "E5",
                    "midi": 76,
                    "time": 314.77991700000945,
                    "velocity": 0.6141732283464567,
                    "duration": 0.7038120000000276
                },
                {
                    "name": "A5",
                    "midi": 81,
                    "time": 314.77991700000945,
                    "velocity": 0.6141732283464567,
                    "duration": 0.7038120000000276
                },
                {
                    "name": "E6",
                    "midi": 88,
                    "time": 314.77991700000945,
                    "velocity": 0.7007874015748031,
                    "duration": 0.7038120000000276
                },
                {
                    "name": "C#6",
                    "midi": 85,
                    "time": 315.4837290000095,
                    "velocity": 0.5669291338582677,
                    "duration": 0.26392950000001747
                },
                {
                    "name": "A6",
                    "midi": 93,
                    "time": 315.4837290000095,
                    "velocity": 0.5669291338582677,
                    "duration": 0.26392950000001747
                },
                {
                    "name": "C#7",
                    "midi": 97,
                    "time": 315.4837290000095,
                    "velocity": 0.6771653543307087,
                    "duration": 0.26392950000001747
                },
                {
                    "name": "C#6",
                    "midi": 85,
                    "time": 315.8356350000095,
                    "velocity": 0.5275590551181102,
                    "duration": 0.06598237499997595
                },
                {
                    "name": "A6",
                    "midi": 93,
                    "time": 315.8356350000095,
                    "velocity": 0.5275590551181102,
                    "duration": 0.06598237499997595
                },
                {
                    "name": "C#7",
                    "midi": 97,
                    "time": 315.8356350000095,
                    "velocity": 0.6456692913385826,
                    "duration": 0.06598237499997595
                },
                {
                    "name": "C#7",
                    "midi": 97,
                    "time": 316.0115880000095,
                    "velocity": 0.6456692913385826,
                    "duration": 0.06598237499997595
                },
                {
                    "name": "C#6",
                    "midi": 85,
                    "time": 316.0115880000095,
                    "velocity": 0.5275590551181102,
                    "duration": 0.06598237499997595
                },
                {
                    "name": "A6",
                    "midi": 93,
                    "time": 316.0115880000095,
                    "velocity": 0.5275590551181102,
                    "duration": 0.06598237499997595
                },
                {
                    "name": "C#7",
                    "midi": 97,
                    "time": 316.1875410000095,
                    "velocity": 0.6141732283464567,
                    "duration": 0.7038120000000276
                },
                {
                    "name": "E6",
                    "midi": 88,
                    "time": 316.1875410000095,
                    "velocity": 0.6141732283464567,
                    "duration": 0.7038120000000276
                },
                {
                    "name": "A6",
                    "midi": 93,
                    "time": 316.1875410000095,
                    "velocity": 0.6141732283464567,
                    "duration": 0.7038120000000276
                },
                {
                    "name": "E7",
                    "midi": 100,
                    "time": 316.1875410000095,
                    "velocity": 0.7007874015748031,
                    "duration": 0.7038120000000276
                },
                {
                    "name": "C#5",
                    "midi": 73,
                    "time": 316.89135300000953,
                    "velocity": 0.5669291338582677,
                    "duration": 0.26392950000001747
                },
                {
                    "name": "A5",
                    "midi": 81,
                    "time": 316.89135300000953,
                    "velocity": 0.5669291338582677,
                    "duration": 0.26392950000001747
                },
                {
                    "name": "C#6",
                    "midi": 85,
                    "time": 316.89135300000953,
                    "velocity": 0.6771653543307087,
                    "duration": 0.26392950000001747
                },
                {
                    "name": "C#5",
                    "midi": 73,
                    "time": 317.2432590000096,
                    "velocity": 0.5275590551181102,
                    "duration": 0.06598237499997595
                },
                {
                    "name": "A5",
                    "midi": 81,
                    "time": 317.2432590000096,
                    "velocity": 0.5275590551181102,
                    "duration": 0.06598237499997595
                },
                {
                    "name": "C#6",
                    "midi": 85,
                    "time": 317.2432590000096,
                    "velocity": 0.6456692913385826,
                    "duration": 0.06598237499997595
                },
                {
                    "name": "C#6",
                    "midi": 85,
                    "time": 317.41921200000957,
                    "velocity": 0.6456692913385826,
                    "duration": 0.06598237499997595
                },
                {
                    "name": "C#5",
                    "midi": 73,
                    "time": 317.41921200000957,
                    "velocity": 0.5275590551181102,
                    "duration": 0.06598237499997595
                },
                {
                    "name": "A5",
                    "midi": 81,
                    "time": 317.41921200000957,
                    "velocity": 0.5275590551181102,
                    "duration": 0.06598237499997595
                },
                {
                    "name": "C#6",
                    "midi": 85,
                    "time": 317.59516500000956,
                    "velocity": 0.6141732283464567,
                    "duration": 0.7038120000000276
                },
                {
                    "name": "E5",
                    "midi": 76,
                    "time": 317.59516500000956,
                    "velocity": 0.6141732283464567,
                    "duration": 0.7038120000000276
                },
                {
                    "name": "A5",
                    "midi": 81,
                    "time": 317.59516500000956,
                    "velocity": 0.6141732283464567,
                    "duration": 0.7038120000000276
                },
                {
                    "name": "E6",
                    "midi": 88,
                    "time": 317.59516500000956,
                    "velocity": 0.7007874015748031,
                    "duration": 0.7038120000000276
                },
                {
                    "name": "F#3",
                    "midi": 54,
                    "time": 318.2989770000096,
                    "velocity": 0.5748031496062992,
                    "duration": 0.3519059999999854
                },
                {
                    "name": "A#3",
                    "midi": 58,
                    "time": 318.2989770000096,
                    "velocity": 0.5748031496062992,
                    "duration": 0.3519059999999854
                },
                {
                    "name": "C#4",
                    "midi": 61,
                    "time": 318.2989770000096,
                    "velocity": 0.5748031496062992,
                    "duration": 0.3519059999999854
                },
                {
                    "name": "F#4",
                    "midi": 66,
                    "time": 318.2989770000096,
                    "velocity": 0.6850393700787402,
                    "duration": 0.3519059999999854
                },
                {
                    "name": "A#3",
                    "midi": 58,
                    "time": 318.65088300000957,
                    "velocity": 0.5354330708661418,
                    "duration": 0.3519059999999854
                },
                {
                    "name": "C#4",
                    "midi": 61,
                    "time": 318.65088300000957,
                    "velocity": 0.5354330708661418,
                    "duration": 0.3519059999999854
                },
                {
                    "name": "F4",
                    "midi": 65,
                    "time": 318.65088300000957,
                    "velocity": 0.6299212598425197,
                    "duration": 0.3519059999999854
                },
                {
                    "name": "F3",
                    "midi": 53,
                    "time": 318.65088300000957,
                    "velocity": 0.5354330708661418,
                    "duration": 0.3519059999999854
                },
                {
                    "name": "D#3",
                    "midi": 51,
                    "time": 319.00278900000956,
                    "velocity": 0.5669291338582677,
                    "duration": 0.3519059999999854
                },
                {
                    "name": "F#3",
                    "midi": 54,
                    "time": 319.00278900000956,
                    "velocity": 0.5669291338582677,
                    "duration": 0.3519059999999854
                },
                {
                    "name": "A#3",
                    "midi": 58,
                    "time": 319.00278900000956,
                    "velocity": 0.5669291338582677,
                    "duration": 0.3519059999999854
                },
                {
                    "name": "D#4",
                    "midi": 63,
                    "time": 319.00278900000956,
                    "velocity": 0.6692913385826772,
                    "duration": 0.3519059999999854
                },
                {
                    "name": "F#3",
                    "midi": 54,
                    "time": 319.35469500000954,
                    "velocity": 0.5354330708661418,
                    "duration": 0.3519059999999854
                },
                {
                    "name": "A#3",
                    "midi": 58,
                    "time": 319.35469500000954,
                    "velocity": 0.5354330708661418,
                    "duration": 0.3519059999999854
                },
                {
                    "name": "C#4",
                    "midi": 61,
                    "time": 319.35469500000954,
                    "velocity": 0.6299212598425197,
                    "duration": 0.3519059999999854
                },
                {
                    "name": "C#3",
                    "midi": 49,
                    "time": 319.35469500000954,
                    "velocity": 0.5354330708661418,
                    "duration": 0.3519059999999854
                },
                {
                    "name": "F#3",
                    "midi": 54,
                    "time": 319.7066010000095,
                    "velocity": 0.5748031496062992,
                    "duration": 0.15835770000001048
                },
                {
                    "name": "A#3",
                    "midi": 58,
                    "time": 319.7066010000095,
                    "velocity": 0.5748031496062992,
                    "duration": 0.15835770000001048
                },
                {
                    "name": "C#4",
                    "midi": 61,
                    "time": 319.7066010000095,
                    "velocity": 0.5748031496062992,
                    "duration": 0.15835770000001048
                },
                {
                    "name": "F#4",
                    "midi": 66,
                    "time": 319.7066010000095,
                    "velocity": 0.6771653543307087,
                    "duration": 0.15835770000001048
                },
                {
                    "name": "F#3",
                    "midi": 54,
                    "time": 319.8825540000095,
                    "velocity": 0.5354330708661418,
                    "duration": 0.15835770000001048
                },
                {
                    "name": "A#3",
                    "midi": 58,
                    "time": 319.8825540000095,
                    "velocity": 0.5354330708661418,
                    "duration": 0.15835770000001048
                },
                {
                    "name": "C#4",
                    "midi": 61,
                    "time": 319.8825540000095,
                    "velocity": 0.5354330708661418,
                    "duration": 0.15835770000001048
                },
                {
                    "name": "F#4",
                    "midi": 66,
                    "time": 319.8825540000095,
                    "velocity": 0.6299212598425197,
                    "duration": 0.15835770000001048
                },
                {
                    "name": "G#3",
                    "midi": 56,
                    "time": 320.0585070000095,
                    "velocity": 0.5748031496062992,
                    "duration": 0.3519059999999854
                },
                {
                    "name": "C#4",
                    "midi": 61,
                    "time": 320.0585070000095,
                    "velocity": 0.5748031496062992,
                    "duration": 0.3519059999999854
                },
                {
                    "name": "G#4",
                    "midi": 68,
                    "time": 320.0585070000095,
                    "velocity": 0.6771653543307087,
                    "duration": 0.3519059999999854
                },
                {
                    "name": "A#3",
                    "midi": 58,
                    "time": 320.4104130000095,
                    "velocity": 0.5905511811023622,
                    "duration": 0.3519059999999854
                },
                {
                    "name": "C#4",
                    "midi": 61,
                    "time": 320.4104130000095,
                    "velocity": 0.5905511811023622,
                    "duration": 0.3519059999999854
                },
                {
                    "name": "F#4",
                    "midi": 66,
                    "time": 320.4104130000095,
                    "velocity": 0.5905511811023622,
                    "duration": 0.3519059999999854
                },
                {
                    "name": "A#4",
                    "midi": 70,
                    "time": 320.4104130000095,
                    "velocity": 0.7007874015748031,
                    "duration": 0.3519059999999854
                },
                {
                    "name": "F#3",
                    "midi": 54,
                    "time": 321.11422500000947,
                    "velocity": 0.5748031496062992,
                    "duration": 0.3519059999999854
                },
                {
                    "name": "A#3",
                    "midi": 58,
                    "time": 321.11422500000947,
                    "velocity": 0.5748031496062992,
                    "duration": 0.3519059999999854
                },
                {
                    "name": "C#4",
                    "midi": 61,
                    "time": 321.11422500000947,
                    "velocity": 0.5748031496062992,
                    "duration": 0.3519059999999854
                },
                {
                    "name": "F#4",
                    "midi": 66,
                    "time": 321.11422500000947,
                    "velocity": 0.6850393700787402,
                    "duration": 0.3519059999999854
                },
                {
                    "name": "A#3",
                    "midi": 58,
                    "time": 321.46613100000945,
                    "velocity": 0.5354330708661418,
                    "duration": 0.3519059999999854
                },
                {
                    "name": "C#4",
                    "midi": 61,
                    "time": 321.46613100000945,
                    "velocity": 0.5354330708661418,
                    "duration": 0.3519059999999854
                },
                {
                    "name": "F4",
                    "midi": 65,
                    "time": 321.46613100000945,
                    "velocity": 0.6299212598425197,
                    "duration": 0.3519059999999854
                },
                {
                    "name": "F3",
                    "midi": 53,
                    "time": 321.46613100000945,
                    "velocity": 0.5354330708661418,
                    "duration": 0.3519059999999854
                },
                {
                    "name": "D#3",
                    "midi": 51,
                    "time": 321.81803700000944,
                    "velocity": 0.5669291338582677,
                    "duration": 0.3519059999999854
                },
                {
                    "name": "F#3",
                    "midi": 54,
                    "time": 321.81803700000944,
                    "velocity": 0.5669291338582677,
                    "duration": 0.3519059999999854
                },
                {
                    "name": "A#3",
                    "midi": 58,
                    "time": 321.81803700000944,
                    "velocity": 0.5669291338582677,
                    "duration": 0.3519059999999854
                },
                {
                    "name": "D#4",
                    "midi": 63,
                    "time": 321.81803700000944,
                    "velocity": 0.6692913385826772,
                    "duration": 0.3519059999999854
                },
                {
                    "name": "F#3",
                    "midi": 54,
                    "time": 322.1699430000094,
                    "velocity": 0.5354330708661418,
                    "duration": 0.3519059999999854
                },
                {
                    "name": "A#3",
                    "midi": 58,
                    "time": 322.1699430000094,
                    "velocity": 0.5354330708661418,
                    "duration": 0.3519059999999854
                },
                {
                    "name": "C#4",
                    "midi": 61,
                    "time": 322.1699430000094,
                    "velocity": 0.6299212598425197,
                    "duration": 0.3519059999999854
                },
                {
                    "name": "C#3",
                    "midi": 49,
                    "time": 322.1699430000094,
                    "velocity": 0.5354330708661418,
                    "duration": 0.3519059999999854
                },
                {
                    "name": "F#3",
                    "midi": 54,
                    "time": 322.5218490000094,
                    "velocity": 0.5748031496062992,
                    "duration": 0.15835770000001048
                },
                {
                    "name": "A#3",
                    "midi": 58,
                    "time": 322.5218490000094,
                    "velocity": 0.5748031496062992,
                    "duration": 0.15835770000001048
                },
                {
                    "name": "C#4",
                    "midi": 61,
                    "time": 322.5218490000094,
                    "velocity": 0.5748031496062992,
                    "duration": 0.15835770000001048
                },
                {
                    "name": "F#4",
                    "midi": 66,
                    "time": 322.5218490000094,
                    "velocity": 0.6771653543307087,
                    "duration": 0.15835770000001048
                },
                {
                    "name": "F#3",
                    "midi": 54,
                    "time": 322.6978020000094,
                    "velocity": 0.5354330708661418,
                    "duration": 0.15835770000001048
                },
                {
                    "name": "A#3",
                    "midi": 58,
                    "time": 322.6978020000094,
                    "velocity": 0.5354330708661418,
                    "duration": 0.15835770000001048
                },
                {
                    "name": "C#4",
                    "midi": 61,
                    "time": 322.6978020000094,
                    "velocity": 0.5354330708661418,
                    "duration": 0.15835770000001048
                },
                {
                    "name": "F#4",
                    "midi": 66,
                    "time": 322.6978020000094,
                    "velocity": 0.6299212598425197,
                    "duration": 0.15835770000001048
                },
                {
                    "name": "G#3",
                    "midi": 56,
                    "time": 322.8737550000094,
                    "velocity": 0.5748031496062992,
                    "duration": 0.3519059999999854
                },
                {
                    "name": "C#4",
                    "midi": 61,
                    "time": 322.8737550000094,
                    "velocity": 0.5748031496062992,
                    "duration": 0.3519059999999854
                },
                {
                    "name": "G#4",
                    "midi": 68,
                    "time": 322.8737550000094,
                    "velocity": 0.6771653543307087,
                    "duration": 0.3519059999999854
                },
                {
                    "name": "A#3",
                    "midi": 58,
                    "time": 323.2256610000094,
                    "velocity": 0.5905511811023622,
                    "duration": 0.3519059999999854
                },
                {
                    "name": "C#4",
                    "midi": 61,
                    "time": 323.2256610000094,
                    "velocity": 0.5905511811023622,
                    "duration": 0.3519059999999854
                },
                {
                    "name": "F#4",
                    "midi": 66,
                    "time": 323.2256610000094,
                    "velocity": 0.5905511811023622,
                    "duration": 0.3519059999999854
                },
                {
                    "name": "A#4",
                    "midi": 70,
                    "time": 323.2256610000094,
                    "velocity": 0.7007874015748031,
                    "duration": 0.3519059999999854
                },
                {
                    "name": "C#4",
                    "midi": 61,
                    "time": 323.92947300000935,
                    "velocity": 0.6062992125984252,
                    "duration": 0.5278589999999781
                },
                {
                    "name": "F#4",
                    "midi": 66,
                    "time": 323.92947300000935,
                    "velocity": 0.6062992125984252,
                    "duration": 0.5278589999999781
                },
                {
                    "name": "A#4",
                    "midi": 70,
                    "time": 323.92947300000935,
                    "velocity": 0.6062992125984252,
                    "duration": 0.5278589999999781
                },
                {
                    "name": "C#5",
                    "midi": 73,
                    "time": 323.92947300000935,
                    "velocity": 0.7165354330708661,
                    "duration": 0.5278589999999781
                },
                {
                    "name": "C#4",
                    "midi": 61,
                    "time": 324.45733200000933,
                    "velocity": 0.5669291338582677,
                    "duration": 0.1759529999999927
                },
                {
                    "name": "F#4",
                    "midi": 66,
                    "time": 324.45733200000933,
                    "velocity": 0.5669291338582677,
                    "duration": 0.1759529999999927
                },
                {
                    "name": "A#4",
                    "midi": 70,
                    "time": 324.45733200000933,
                    "velocity": 0.5669291338582677,
                    "duration": 0.1759529999999927
                },
                {
                    "name": "C#5",
                    "midi": 73,
                    "time": 324.45733200000933,
                    "velocity": 0.6692913385826772,
                    "duration": 0.1759529999999927
                },
                {
                    "name": "D#4",
                    "midi": 63,
                    "time": 324.6332850000093,
                    "velocity": 0.6141732283464567,
                    "duration": 0.3519059999999854
                },
                {
                    "name": "F#4",
                    "midi": 66,
                    "time": 324.6332850000093,
                    "velocity": 0.6141732283464567,
                    "duration": 0.3519059999999854
                },
                {
                    "name": "B4",
                    "midi": 71,
                    "time": 324.6332850000093,
                    "velocity": 0.6141732283464567,
                    "duration": 0.3519059999999854
                },
                {
                    "name": "D#5",
                    "midi": 75,
                    "time": 324.6332850000093,
                    "velocity": 0.7244094488188977,
                    "duration": 0.3519059999999854
                },
                {
                    "name": "C#4",
                    "midi": 61,
                    "time": 324.9851910000093,
                    "velocity": 0.5748031496062992,
                    "duration": 0.3519059999999854
                },
                {
                    "name": "F#4",
                    "midi": 66,
                    "time": 324.9851910000093,
                    "velocity": 0.5748031496062992,
                    "duration": 0.3519059999999854
                },
                {
                    "name": "A#4",
                    "midi": 70,
                    "time": 324.9851910000093,
                    "velocity": 0.5748031496062992,
                    "duration": 0.3519059999999854
                },
                {
                    "name": "C#5",
                    "midi": 73,
                    "time": 324.9851910000093,
                    "velocity": 0.6771653543307087,
                    "duration": 0.3519059999999854
                },
                {
                    "name": "A#3",
                    "midi": 58,
                    "time": 325.3370970000093,
                    "velocity": 0.6220472440944882,
                    "duration": 0.5278589999999781
                },
                {
                    "name": "A#4",
                    "midi": 70,
                    "time": 325.3370970000093,
                    "velocity": 0.7322834645669292,
                    "duration": 0.5278589999999781
                },
                {
                    "name": "A#3",
                    "midi": 58,
                    "time": 325.8649560000093,
                    "velocity": 0.5748031496062992,
                    "duration": 0.1759529999999927
                },
                {
                    "name": "G#4",
                    "midi": 68,
                    "time": 325.8649560000093,
                    "velocity": 0.6850393700787402,
                    "duration": 0.1759529999999927
                },
                {
                    "name": "A#3",
                    "midi": 58,
                    "time": 326.04090900000926,
                    "velocity": 0.6062992125984252,
                    "duration": 0.08797650000002477
                },
                {
                    "name": "F#4",
                    "midi": 66,
                    "time": 326.04090900000926,
                    "velocity": 0.7165354330708661,
                    "duration": 0.08797650000002477
                },
                {
                    "name": "A#3",
                    "midi": 58,
                    "time": 326.2168620000093,
                    "velocity": 0.5669291338582677,
                    "duration": 0.08797650000002477
                },
                {
                    "name": "F4",
                    "midi": 65,
                    "time": 326.2168620000093,
                    "velocity": 0.6692913385826772,
                    "duration": 0.08797650000002477
                },
                {
                    "name": "A#3",
                    "midi": 58,
                    "time": 326.39281500000936,
                    "velocity": 0.5590551181102362,
                    "duration": 0.1759529999999927
                },
                {
                    "name": "D#4",
                    "midi": 63,
                    "time": 326.39281500000936,
                    "velocity": 0.6614173228346457,
                    "duration": 0.1759529999999927
                },
                {
                    "name": "F#4",
                    "midi": 66,
                    "time": 326.74472100000935,
                    "velocity": 0.5196850393700787,
                    "duration": 0.35190599999992855
                },
                {
                    "name": "A#4",
                    "midi": 70,
                    "time": 326.74472100000935,
                    "velocity": 0.6141732283464567,
                    "duration": 0.07038119999998571
                },
                {
                    "name": "B4",
                    "midi": 71,
                    "time": 326.81510220000933,
                    "velocity": 0.5748031496062992,
                    "duration": 0.07038119999998571
                },
                {
                    "name": "A#4",
                    "midi": 70,
                    "time": 326.8854834000093,
                    "velocity": 0.5748031496062992,
                    "duration": 0.07038119999998571
                },
                {
                    "name": "A4",
                    "midi": 69,
                    "time": 326.9558646000093,
                    "velocity": 0.5748031496062992,
                    "duration": 0.07038119999998571
                },
                {
                    "name": "A#4",
                    "midi": 70,
                    "time": 327.0262458000093,
                    "velocity": 0.5748031496062992,
                    "duration": 0.07038119999998571
                },
                {
                    "name": "G#4",
                    "midi": 68,
                    "time": 327.0966270000093,
                    "velocity": 0.4881889763779528,
                    "duration": 0.08797650000002477
                },
                {
                    "name": "B4",
                    "midi": 71,
                    "time": 327.0966270000093,
                    "velocity": 0.5748031496062992,
                    "duration": 0.08797650000002477
                },
                {
                    "name": "F#4",
                    "midi": 66,
                    "time": 327.2725800000093,
                    "velocity": 0.4645669291338583,
                    "duration": 0.08797650000002477
                },
                {
                    "name": "A#4",
                    "midi": 70,
                    "time": 327.2725800000093,
                    "velocity": 0.5511811023622047,
                    "duration": 0.08797650000002477
                },
                {
                    "name": "F4",
                    "midi": 65,
                    "time": 327.4485330000094,
                    "velocity": 0.5354330708661418,
                    "duration": 0.08797650000002477
                },
                {
                    "name": "G#4",
                    "midi": 68,
                    "time": 327.4485330000094,
                    "velocity": 0.6299212598425197,
                    "duration": 0.08797650000002477
                },
                {
                    "name": "D#4",
                    "midi": 63,
                    "time": 327.6244860000094,
                    "velocity": 0.4881889763779528,
                    "duration": 0.08797650000002477
                },
                {
                    "name": "F#4",
                    "midi": 66,
                    "time": 327.6244860000094,
                    "velocity": 0.5748031496062992,
                    "duration": 0.08797650000002477
                },
                {
                    "name": "A#3",
                    "midi": 58,
                    "time": 327.8004390000095,
                    "velocity": 0.4881889763779528,
                    "duration": 0.1759529999999927
                },
                {
                    "name": "F4",
                    "midi": 65,
                    "time": 327.8004390000095,
                    "velocity": 0.5748031496062992,
                    "duration": 0.1759529999999927
                },
                {
                    "name": "F#3",
                    "midi": 54,
                    "time": 328.15234500000946,
                    "velocity": 0.5905511811023622,
                    "duration": 0.1759529999999927
                },
                {
                    "name": "A#3",
                    "midi": 58,
                    "time": 328.15234500000946,
                    "velocity": 0.5905511811023622,
                    "duration": 0.1759529999999927
                },
                {
                    "name": "D#4",
                    "midi": 63,
                    "time": 328.15234500000946,
                    "velocity": 0.7007874015748031,
                    "duration": 0.1759529999999927
                },
                {
                    "name": "C#5",
                    "midi": 73,
                    "time": 328.85615700000943,
                    "velocity": 0.6062992125984252,
                    "duration": 0.5278589999999781
                },
                {
                    "name": "F#5",
                    "midi": 78,
                    "time": 328.85615700000943,
                    "velocity": 0.6062992125984252,
                    "duration": 0.5278589999999781
                },
                {
                    "name": "A#5",
                    "midi": 82,
                    "time": 328.85615700000943,
                    "velocity": 0.6062992125984252,
                    "duration": 0.5278589999999781
                },
                {
                    "name": "C#6",
                    "midi": 85,
                    "time": 328.85615700000943,
                    "velocity": 0.7165354330708661,
                    "duration": 0.5278589999999781
                },
                {
                    "name": "C#5",
                    "midi": 73,
                    "time": 329.3840160000094,
                    "velocity": 0.5669291338582677,
                    "duration": 0.1759529999999927
                },
                {
                    "name": "F#5",
                    "midi": 78,
                    "time": 329.3840160000094,
                    "velocity": 0.5669291338582677,
                    "duration": 0.1759529999999927
                },
                {
                    "name": "A#5",
                    "midi": 82,
                    "time": 329.3840160000094,
                    "velocity": 0.5669291338582677,
                    "duration": 0.1759529999999927
                },
                {
                    "name": "C#6",
                    "midi": 85,
                    "time": 329.3840160000094,
                    "velocity": 0.6692913385826772,
                    "duration": 0.1759529999999927
                },
                {
                    "name": "D#5",
                    "midi": 75,
                    "time": 329.5599690000094,
                    "velocity": 0.6141732283464567,
                    "duration": 0.3519059999999854
                },
                {
                    "name": "F#5",
                    "midi": 78,
                    "time": 329.5599690000094,
                    "velocity": 0.6141732283464567,
                    "duration": 0.3519059999999854
                },
                {
                    "name": "B5",
                    "midi": 83,
                    "time": 329.5599690000094,
                    "velocity": 0.6141732283464567,
                    "duration": 0.3519059999999854
                },
                {
                    "name": "D#6",
                    "midi": 87,
                    "time": 329.5599690000094,
                    "velocity": 0.7244094488188977,
                    "duration": 0.3519059999999854
                },
                {
                    "name": "C#5",
                    "midi": 73,
                    "time": 329.9118750000094,
                    "velocity": 0.5748031496062992,
                    "duration": 0.3519059999999854
                },
                {
                    "name": "F#5",
                    "midi": 78,
                    "time": 329.9118750000094,
                    "velocity": 0.5748031496062992,
                    "duration": 0.3519059999999854
                },
                {
                    "name": "A#5",
                    "midi": 82,
                    "time": 329.9118750000094,
                    "velocity": 0.5748031496062992,
                    "duration": 0.3519059999999854
                },
                {
                    "name": "C#6",
                    "midi": 85,
                    "time": 329.9118750000094,
                    "velocity": 0.6771653543307087,
                    "duration": 0.3519059999999854
                },
                {
                    "name": "A#4",
                    "midi": 70,
                    "time": 330.2637810000094,
                    "velocity": 0.6220472440944882,
                    "duration": 0.5278589999999781
                },
                {
                    "name": "A#5",
                    "midi": 82,
                    "time": 330.2637810000094,
                    "velocity": 0.7322834645669292,
                    "duration": 0.5278589999999781
                },
                {
                    "name": "G#4",
                    "midi": 68,
                    "time": 330.79164000000935,
                    "velocity": 0.5748031496062992,
                    "duration": 0.1759529999999927
                },
                {
                    "name": "G#5",
                    "midi": 80,
                    "time": 330.79164000000935,
                    "velocity": 0.6850393700787402,
                    "duration": 0.1759529999999927
                },
                {
                    "name": "F#4",
                    "midi": 66,
                    "time": 330.96759300000934,
                    "velocity": 0.6062992125984252,
                    "duration": 0.08797650000002477
                },
                {
                    "name": "F#5",
                    "midi": 78,
                    "time": 330.96759300000934,
                    "velocity": 0.7165354330708661,
                    "duration": 0.08797650000002477
                },
                {
                    "name": "F4",
                    "midi": 65,
                    "time": 331.1435460000094,
                    "velocity": 0.5669291338582677,
                    "duration": 0.08797650000002477
                },
                {
                    "name": "F5",
                    "midi": 77,
                    "time": 331.1435460000094,
                    "velocity": 0.6692913385826772,
                    "duration": 0.08797650000002477
                },
                {
                    "name": "D#4",
                    "midi": 63,
                    "time": 331.31949900000944,
                    "velocity": 0.5590551181102362,
                    "duration": 0.1759529999999927
                },
                {
                    "name": "D#5",
                    "midi": 75,
                    "time": 331.31949900000944,
                    "velocity": 0.6614173228346457,
                    "duration": 0.1759529999999927
                },
                {
                    "name": "F#5",
                    "midi": 78,
                    "time": 331.67140500000943,
                    "velocity": 0.5196850393700787,
                    "duration": 0.35190599999992855
                },
                {
                    "name": "A#5",
                    "midi": 82,
                    "time": 331.67140500000943,
                    "velocity": 0.6141732283464567,
                    "duration": 0.07038119999998571
                },
                {
                    "name": "B5",
                    "midi": 83,
                    "time": 331.7417862000094,
                    "velocity": 0.5748031496062992,
                    "duration": 0.07038119999998571
                },
                {
                    "name": "A#5",
                    "midi": 82,
                    "time": 331.8121674000094,
                    "velocity": 0.5748031496062992,
                    "duration": 0.07038119999998571
                },
                {
                    "name": "A5",
                    "midi": 81,
                    "time": 331.8825486000094,
                    "velocity": 0.5748031496062992,
                    "duration": 0.07038119999998571
                },
                {
                    "name": "A#5",
                    "midi": 82,
                    "time": 331.9529298000094,
                    "velocity": 0.5748031496062992,
                    "duration": 0.07038119999998571
                },
                {
                    "name": "B4",
                    "midi": 71,
                    "time": 332.02331100000936,
                    "velocity": 0.4881889763779528,
                    "duration": 0.08797650000002477
                },
                {
                    "name": "B5",
                    "midi": 83,
                    "time": 332.02331100000936,
                    "velocity": 0.5748031496062992,
                    "duration": 0.08797650000002477
                },
                {
                    "name": "A#4",
                    "midi": 70,
                    "time": 332.1992640000094,
                    "velocity": 0.4645669291338583,
                    "duration": 0.08797650000002477
                },
                {
                    "name": "A#5",
                    "midi": 82,
                    "time": 332.1992640000094,
                    "velocity": 0.5511811023622047,
                    "duration": 0.08797650000002477
                },
                {
                    "name": "G#4",
                    "midi": 68,
                    "time": 332.37521700000946,
                    "velocity": 0.5354330708661418,
                    "duration": 0.08797650000002477
                },
                {
                    "name": "G#5",
                    "midi": 80,
                    "time": 332.37521700000946,
                    "velocity": 0.6299212598425197,
                    "duration": 0.08797650000002477
                },
                {
                    "name": "F#4",
                    "midi": 66,
                    "time": 332.5511700000095,
                    "velocity": 0.4881889763779528,
                    "duration": 0.08797650000002477
                },
                {
                    "name": "F#5",
                    "midi": 78,
                    "time": 332.5511700000095,
                    "velocity": 0.5748031496062992,
                    "duration": 0.08797650000002477
                },
                {
                    "name": "F4",
                    "midi": 65,
                    "time": 332.72712300000956,
                    "velocity": 0.4881889763779528,
                    "duration": 0.1759529999999927
                },
                {
                    "name": "F5",
                    "midi": 77,
                    "time": 332.72712300000956,
                    "velocity": 0.5748031496062992,
                    "duration": 0.1759529999999927
                },
                {
                    "name": "D#4",
                    "midi": 63,
                    "time": 333.07902900000954,
                    "velocity": 0.5905511811023622,
                    "duration": 0.1759529999999927
                },
                {
                    "name": "A#4",
                    "midi": 70,
                    "time": 333.07902900000954,
                    "velocity": 0.5905511811023622,
                    "duration": 0.1759529999999927
                },
                {
                    "name": "D#5",
                    "midi": 75,
                    "time": 333.07902900000954,
                    "velocity": 0.7007874015748031,
                    "duration": 0.1759529999999927
                },
                {
                    "name": "F#3",
                    "midi": 54,
                    "time": 333.7828410000095,
                    "velocity": 0.5118110236220472,
                    "duration": 0.13196475000000873
                },
                {
                    "name": "A#3",
                    "midi": 58,
                    "time": 333.7828410000095,
                    "velocity": 0.5118110236220472,
                    "duration": 0.13196475000000873
                },
                {
                    "name": "C#4",
                    "midi": 61,
                    "time": 333.7828410000095,
                    "velocity": 0.5118110236220472,
                    "duration": 0.13196475000000873
                },
                {
                    "name": "F#4",
                    "midi": 66,
                    "time": 333.7828410000095,
                    "velocity": 0.6141732283464567,
                    "duration": 0.13196475000000873
                },
                {
                    "name": "F#3",
                    "midi": 54,
                    "time": 333.9587940000095,
                    "velocity": 0.4330708661417323,
                    "duration": 0.13196475000000873
                },
                {
                    "name": "A#3",
                    "midi": 58,
                    "time": 333.9587940000095,
                    "velocity": 0.4330708661417323,
                    "duration": 0.13196475000000873
                },
                {
                    "name": "C#4",
                    "midi": 61,
                    "time": 333.9587940000095,
                    "velocity": 0.4330708661417323,
                    "duration": 0.13196475000000873
                },
                {
                    "name": "F#4",
                    "midi": 66,
                    "time": 333.9587940000095,
                    "velocity": 0.5118110236220472,
                    "duration": 0.13196475000000873
                },
                {
                    "name": "A#3",
                    "midi": 58,
                    "time": 334.3107000000095,
                    "velocity": 0.4251968503937008,
                    "duration": 0.13196475000000873
                },
                {
                    "name": "C#4",
                    "midi": 61,
                    "time": 334.3107000000095,
                    "velocity": 0.4251968503937008,
                    "duration": 0.13196475000000873
                },
                {
                    "name": "F4",
                    "midi": 65,
                    "time": 334.3107000000095,
                    "velocity": 0.5039370078740157,
                    "duration": 0.13196475000000873
                },
                {
                    "name": "F3",
                    "midi": 53,
                    "time": 334.3107000000095,
                    "velocity": 0.4251968503937008,
                    "duration": 0.13196475000000873
                },
                {
                    "name": "D#3",
                    "midi": 51,
                    "time": 334.6626060000095,
                    "velocity": 0.44881889763779526,
                    "duration": 0.13196475000000873
                },
                {
                    "name": "F#3",
                    "midi": 54,
                    "time": 334.6626060000095,
                    "velocity": 0.44881889763779526,
                    "duration": 0.13196475000000873
                },
                {
                    "name": "A#3",
                    "midi": 58,
                    "time": 334.6626060000095,
                    "velocity": 0.44881889763779526,
                    "duration": 0.13196475000000873
                },
                {
                    "name": "D#4",
                    "midi": 63,
                    "time": 334.6626060000095,
                    "velocity": 0.5354330708661418,
                    "duration": 0.13196475000000873
                },
                {
                    "name": "F#3",
                    "midi": 54,
                    "time": 335.01451200000946,
                    "velocity": 0.4251968503937008,
                    "duration": 0.13196475000000873
                },
                {
                    "name": "A#3",
                    "midi": 58,
                    "time": 335.01451200000946,
                    "velocity": 0.4251968503937008,
                    "duration": 0.13196475000000873
                },
                {
                    "name": "C#4",
                    "midi": 61,
                    "time": 335.01451200000946,
                    "velocity": 0.5039370078740157,
                    "duration": 0.13196475000000873
                },
                {
                    "name": "C#3",
                    "midi": 49,
                    "time": 335.01451200000946,
                    "velocity": 0.4251968503937008,
                    "duration": 0.13196475000000873
                },
                {
                    "name": "F#3",
                    "midi": 54,
                    "time": 335.36641800000945,
                    "velocity": 0.4251968503937008,
                    "duration": 0.11876827499997944
                },
                {
                    "name": "A#3",
                    "midi": 58,
                    "time": 335.36641800000945,
                    "velocity": 0.4251968503937008,
                    "duration": 0.11876827499997944
                },
                {
                    "name": "C#4",
                    "midi": 61,
                    "time": 335.36641800000945,
                    "velocity": 0.4251968503937008,
                    "duration": 0.11876827499997944
                },
                {
                    "name": "F#4",
                    "midi": 66,
                    "time": 335.36641800000945,
                    "velocity": 0.5039370078740157,
                    "duration": 0.11876827499997944
                },
                {
                    "name": "G#3",
                    "midi": 56,
                    "time": 335.71832400000943,
                    "velocity": 0.4566929133858268,
                    "duration": 0.13196475000000873
                },
                {
                    "name": "C#4",
                    "midi": 61,
                    "time": 335.71832400000943,
                    "velocity": 0.4566929133858268,
                    "duration": 0.13196475000000873
                },
                {
                    "name": "G#4",
                    "midi": 68,
                    "time": 335.71832400000943,
                    "velocity": 0.5433070866141733,
                    "duration": 0.13196475000000873
                },
                {
                    "name": "A#3",
                    "midi": 58,
                    "time": 336.0702300000094,
                    "velocity": 0.47244094488188976,
                    "duration": 0.13196475000000873
                },
                {
                    "name": "C#4",
                    "midi": 61,
                    "time": 336.0702300000094,
                    "velocity": 0.47244094488188976,
                    "duration": 0.13196475000000873
                },
                {
                    "name": "F#4",
                    "midi": 66,
                    "time": 336.0702300000094,
                    "velocity": 0.47244094488188976,
                    "duration": 0.13196475000000873
                },
                {
                    "name": "A#4",
                    "midi": 70,
                    "time": 336.0702300000094,
                    "velocity": 0.5669291338582677,
                    "duration": 0.13196475000000873
                },
                {
                    "name": "F#3",
                    "midi": 54,
                    "time": 336.59808900000945,
                    "velocity": 0.5118110236220472,
                    "duration": 0.13196475000000873
                },
                {
                    "name": "A#3",
                    "midi": 58,
                    "time": 336.59808900000945,
                    "velocity": 0.5118110236220472,
                    "duration": 0.13196475000000873
                },
                {
                    "name": "C#4",
                    "midi": 61,
                    "time": 336.59808900000945,
                    "velocity": 0.5118110236220472,
                    "duration": 0.13196475000000873
                },
                {
                    "name": "F#4",
                    "midi": 66,
                    "time": 336.59808900000945,
                    "velocity": 0.6141732283464567,
                    "duration": 0.13196475000000873
                },
                {
                    "name": "F#3",
                    "midi": 54,
                    "time": 336.77404200000944,
                    "velocity": 0.4330708661417323,
                    "duration": 0.13196475000000873
                },
                {
                    "name": "A#3",
                    "midi": 58,
                    "time": 336.77404200000944,
                    "velocity": 0.4330708661417323,
                    "duration": 0.13196475000000873
                },
                {
                    "name": "C#4",
                    "midi": 61,
                    "time": 336.77404200000944,
                    "velocity": 0.4330708661417323,
                    "duration": 0.13196475000000873
                },
                {
                    "name": "F#4",
                    "midi": 66,
                    "time": 336.77404200000944,
                    "velocity": 0.5118110236220472,
                    "duration": 0.13196475000000873
                },
                {
                    "name": "A#3",
                    "midi": 58,
                    "time": 337.12594800000943,
                    "velocity": 0.4251968503937008,
                    "duration": 0.13196475000000873
                },
                {
                    "name": "C#4",
                    "midi": 61,
                    "time": 337.12594800000943,
                    "velocity": 0.4251968503937008,
                    "duration": 0.13196475000000873
                },
                {
                    "name": "F4",
                    "midi": 65,
                    "time": 337.12594800000943,
                    "velocity": 0.5039370078740157,
                    "duration": 0.13196475000000873
                },
                {
                    "name": "F3",
                    "midi": 53,
                    "time": 337.12594800000943,
                    "velocity": 0.4251968503937008,
                    "duration": 0.13196475000000873
                },
                {
                    "name": "D#3",
                    "midi": 51,
                    "time": 337.4778540000094,
                    "velocity": 0.44881889763779526,
                    "duration": 0.13196475000000873
                },
                {
                    "name": "F#3",
                    "midi": 54,
                    "time": 337.4778540000094,
                    "velocity": 0.44881889763779526,
                    "duration": 0.13196475000000873
                },
                {
                    "name": "A#3",
                    "midi": 58,
                    "time": 337.4778540000094,
                    "velocity": 0.44881889763779526,
                    "duration": 0.13196475000000873
                },
                {
                    "name": "D#4",
                    "midi": 63,
                    "time": 337.4778540000094,
                    "velocity": 0.5354330708661418,
                    "duration": 0.13196475000000873
                },
                {
                    "name": "F#3",
                    "midi": 54,
                    "time": 337.8297600000094,
                    "velocity": 0.4251968503937008,
                    "duration": 0.13196475000000873
                },
                {
                    "name": "A#3",
                    "midi": 58,
                    "time": 337.8297600000094,
                    "velocity": 0.4251968503937008,
                    "duration": 0.13196475000000873
                },
                {
                    "name": "C#4",
                    "midi": 61,
                    "time": 337.8297600000094,
                    "velocity": 0.5039370078740157,
                    "duration": 0.13196475000000873
                },
                {
                    "name": "C#3",
                    "midi": 49,
                    "time": 337.8297600000094,
                    "velocity": 0.4251968503937008,
                    "duration": 0.13196475000000873
                },
                {
                    "name": "F#3",
                    "midi": 54,
                    "time": 338.1816660000094,
                    "velocity": 0.4251968503937008,
                    "duration": 0.11876827499997944
                },
                {
                    "name": "A#3",
                    "midi": 58,
                    "time": 338.1816660000094,
                    "velocity": 0.4251968503937008,
                    "duration": 0.11876827499997944
                },
                {
                    "name": "C#4",
                    "midi": 61,
                    "time": 338.1816660000094,
                    "velocity": 0.4251968503937008,
                    "duration": 0.11876827499997944
                },
                {
                    "name": "F#4",
                    "midi": 66,
                    "time": 338.1816660000094,
                    "velocity": 0.5039370078740157,
                    "duration": 0.11876827499997944
                },
                {
                    "name": "G#3",
                    "midi": 56,
                    "time": 338.53357200000937,
                    "velocity": 0.4566929133858268,
                    "duration": 0.13196475000000873
                },
                {
                    "name": "C#4",
                    "midi": 61,
                    "time": 338.53357200000937,
                    "velocity": 0.4566929133858268,
                    "duration": 0.13196475000000873
                },
                {
                    "name": "G#4",
                    "midi": 68,
                    "time": 338.53357200000937,
                    "velocity": 0.5433070866141733,
                    "duration": 0.13196475000000873
                },
                {
                    "name": "A#3",
                    "midi": 58,
                    "time": 338.88547800000936,
                    "velocity": 0.47244094488188976,
                    "duration": 0.13196475000000873
                },
                {
                    "name": "C#4",
                    "midi": 61,
                    "time": 338.88547800000936,
                    "velocity": 0.47244094488188976,
                    "duration": 0.13196475000000873
                },
                {
                    "name": "F#4",
                    "midi": 66,
                    "time": 338.88547800000936,
                    "velocity": 0.47244094488188976,
                    "duration": 0.13196475000000873
                },
                {
                    "name": "A#4",
                    "midi": 70,
                    "time": 338.88547800000936,
                    "velocity": 0.5669291338582677,
                    "duration": 0.13196475000000873
                },
                {
                    "name": "C#4",
                    "midi": 61,
                    "time": 339.4133370000094,
                    "velocity": 0.6062992125984252,
                    "duration": 0.5278589999999781
                },
                {
                    "name": "F#4",
                    "midi": 66,
                    "time": 339.4133370000094,
                    "velocity": 0.6062992125984252,
                    "duration": 0.5278589999999781
                },
                {
                    "name": "A#4",
                    "midi": 70,
                    "time": 339.4133370000094,
                    "velocity": 0.6062992125984252,
                    "duration": 0.5278589999999781
                },
                {
                    "name": "C#5",
                    "midi": 73,
                    "time": 339.4133370000094,
                    "velocity": 0.7165354330708661,
                    "duration": 0.5278589999999781
                },
                {
                    "name": "C#4",
                    "midi": 61,
                    "time": 339.94119600000937,
                    "velocity": 0.5669291338582677,
                    "duration": 0.1759529999999927
                },
                {
                    "name": "F#4",
                    "midi": 66,
                    "time": 339.94119600000937,
                    "velocity": 0.5669291338582677,
                    "duration": 0.1759529999999927
                },
                {
                    "name": "A#4",
                    "midi": 70,
                    "time": 339.94119600000937,
                    "velocity": 0.5669291338582677,
                    "duration": 0.1759529999999927
                },
                {
                    "name": "C#5",
                    "midi": 73,
                    "time": 339.94119600000937,
                    "velocity": 0.6692913385826772,
                    "duration": 0.1759529999999927
                },
                {
                    "name": "D#4",
                    "midi": 63,
                    "time": 340.11714900000936,
                    "velocity": 0.6141732283464567,
                    "duration": 0.3519059999999854
                },
                {
                    "name": "F#4",
                    "midi": 66,
                    "time": 340.11714900000936,
                    "velocity": 0.6141732283464567,
                    "duration": 0.3519059999999854
                },
                {
                    "name": "B4",
                    "midi": 71,
                    "time": 340.11714900000936,
                    "velocity": 0.6141732283464567,
                    "duration": 0.3519059999999854
                },
                {
                    "name": "D#5",
                    "midi": 75,
                    "time": 340.11714900000936,
                    "velocity": 0.7244094488188977,
                    "duration": 0.3519059999999854
                },
                {
                    "name": "C#4",
                    "midi": 61,
                    "time": 340.46905500000935,
                    "velocity": 0.5748031496062992,
                    "duration": 0.3519059999999854
                },
                {
                    "name": "F#4",
                    "midi": 66,
                    "time": 340.46905500000935,
                    "velocity": 0.5748031496062992,
                    "duration": 0.3519059999999854
                },
                {
                    "name": "A#4",
                    "midi": 70,
                    "time": 340.46905500000935,
                    "velocity": 0.5748031496062992,
                    "duration": 0.3519059999999854
                },
                {
                    "name": "C#5",
                    "midi": 73,
                    "time": 340.46905500000935,
                    "velocity": 0.6771653543307087,
                    "duration": 0.3519059999999854
                },
                {
                    "name": "A#3",
                    "midi": 58,
                    "time": 340.82096100000933,
                    "velocity": 0.6220472440944882,
                    "duration": 0.5278589999999781
                },
                {
                    "name": "A#4",
                    "midi": 70,
                    "time": 340.82096100000933,
                    "velocity": 0.7322834645669292,
                    "duration": 0.5278589999999781
                },
                {
                    "name": "A#3",
                    "midi": 58,
                    "time": 341.3488200000093,
                    "velocity": 0.5748031496062992,
                    "duration": 0.1759529999999927
                },
                {
                    "name": "G#4",
                    "midi": 68,
                    "time": 341.3488200000093,
                    "velocity": 0.6850393700787402,
                    "duration": 0.1759529999999927
                },
                {
                    "name": "A#3",
                    "midi": 58,
                    "time": 341.5247730000093,
                    "velocity": 0.6062992125984252,
                    "duration": 0.08797650000002477
                },
                {
                    "name": "F#4",
                    "midi": 66,
                    "time": 341.5247730000093,
                    "velocity": 0.7165354330708661,
                    "duration": 0.08797650000002477
                },
                {
                    "name": "A#3",
                    "midi": 58,
                    "time": 341.70072600000935,
                    "velocity": 0.5669291338582677,
                    "duration": 0.08797650000002477
                },
                {
                    "name": "F4",
                    "midi": 65,
                    "time": 341.70072600000935,
                    "velocity": 0.6692913385826772,
                    "duration": 0.08797650000002477
                },
                {
                    "name": "A#3",
                    "midi": 58,
                    "time": 341.8766790000094,
                    "velocity": 0.5590551181102362,
                    "duration": 0.1759529999999927
                },
                {
                    "name": "D#4",
                    "midi": 63,
                    "time": 341.8766790000094,
                    "velocity": 0.6614173228346457,
                    "duration": 0.1759529999999927
                },
                {
                    "name": "F#4",
                    "midi": 66,
                    "time": 342.2285850000094,
                    "velocity": 0.5196850393700787,
                    "duration": 0.35190599999992855
                },
                {
                    "name": "A#4",
                    "midi": 70,
                    "time": 342.2285850000094,
                    "velocity": 0.6141732283464567,
                    "duration": 0.07038119999998571
                },
                {
                    "name": "B4",
                    "midi": 71,
                    "time": 342.2989662000094,
                    "velocity": 0.5748031496062992,
                    "duration": 0.07038119999998571
                },
                {
                    "name": "A#4",
                    "midi": 70,
                    "time": 342.36934740000936,
                    "velocity": 0.5748031496062992,
                    "duration": 0.07038119999998571
                },
                {
                    "name": "A4",
                    "midi": 69,
                    "time": 342.43972860000935,
                    "velocity": 0.5748031496062992,
                    "duration": 0.07038119999998571
                },
                {
                    "name": "A#4",
                    "midi": 70,
                    "time": 342.51010980000933,
                    "velocity": 0.5748031496062992,
                    "duration": 0.07038119999998571
                },
                {
                    "name": "G#4",
                    "midi": 68,
                    "time": 342.5804910000093,
                    "velocity": 0.4881889763779528,
                    "duration": 0.08797650000002477
                },
                {
                    "name": "B4",
                    "midi": 71,
                    "time": 342.5804910000093,
                    "velocity": 0.5748031496062992,
                    "duration": 0.08797650000002477
                },
                {
                    "name": "F#4",
                    "midi": 66,
                    "time": 342.75644400000937,
                    "velocity": 0.4645669291338583,
                    "duration": 0.08797650000002477
                },
                {
                    "name": "A#4",
                    "midi": 70,
                    "time": 342.75644400000937,
                    "velocity": 0.5511811023622047,
                    "duration": 0.08797650000002477
                },
                {
                    "name": "F4",
                    "midi": 65,
                    "time": 342.9323970000094,
                    "velocity": 0.5354330708661418,
                    "duration": 0.08797650000002477
                },
                {
                    "name": "G#4",
                    "midi": 68,
                    "time": 342.9323970000094,
                    "velocity": 0.6299212598425197,
                    "duration": 0.08797650000002477
                },
                {
                    "name": "D#4",
                    "midi": 63,
                    "time": 343.10835000000947,
                    "velocity": 0.4881889763779528,
                    "duration": 0.08797650000002477
                },
                {
                    "name": "F#4",
                    "midi": 66,
                    "time": 343.10835000000947,
                    "velocity": 0.5748031496062992,
                    "duration": 0.08797650000002477
                },
                {
                    "name": "A#3",
                    "midi": 58,
                    "time": 343.2843030000095,
                    "velocity": 0.4881889763779528,
                    "duration": 0.1759529999999927
                },
                {
                    "name": "F4",
                    "midi": 65,
                    "time": 343.2843030000095,
                    "velocity": 0.5748031496062992,
                    "duration": 0.1759529999999927
                },
                {
                    "name": "F#3",
                    "midi": 54,
                    "time": 343.6362090000095,
                    "velocity": 0.5905511811023622,
                    "duration": 0.1759529999999927
                },
                {
                    "name": "A#3",
                    "midi": 58,
                    "time": 343.6362090000095,
                    "velocity": 0.5905511811023622,
                    "duration": 0.1759529999999927
                },
                {
                    "name": "D#4",
                    "midi": 63,
                    "time": 343.6362090000095,
                    "velocity": 0.7007874015748031,
                    "duration": 0.1759529999999927
                },
                {
                    "name": "C#5",
                    "midi": 73,
                    "time": 344.3400210000095,
                    "velocity": 0.6062992125984252,
                    "duration": 0.5278589999999781
                },
                {
                    "name": "F#5",
                    "midi": 78,
                    "time": 344.3400210000095,
                    "velocity": 0.6062992125984252,
                    "duration": 0.5278589999999781
                },
                {
                    "name": "A#5",
                    "midi": 82,
                    "time": 344.3400210000095,
                    "velocity": 0.6062992125984252,
                    "duration": 0.5278589999999781
                },
                {
                    "name": "C#6",
                    "midi": 85,
                    "time": 344.3400210000095,
                    "velocity": 0.7165354330708661,
                    "duration": 0.5278589999999781
                },
                {
                    "name": "C#5",
                    "midi": 73,
                    "time": 344.86788000000945,
                    "velocity": 0.5669291338582677,
                    "duration": 0.1759529999999927
                },
                {
                    "name": "F#5",
                    "midi": 78,
                    "time": 344.86788000000945,
                    "velocity": 0.5669291338582677,
                    "duration": 0.1759529999999927
                },
                {
                    "name": "A#5",
                    "midi": 82,
                    "time": 344.86788000000945,
                    "velocity": 0.5669291338582677,
                    "duration": 0.1759529999999927
                },
                {
                    "name": "C#6",
                    "midi": 85,
                    "time": 344.86788000000945,
                    "velocity": 0.6692913385826772,
                    "duration": 0.1759529999999927
                },
                {
                    "name": "D#5",
                    "midi": 75,
                    "time": 345.04383300000944,
                    "velocity": 0.6141732283464567,
                    "duration": 0.3519059999999854
                },
                {
                    "name": "F#5",
                    "midi": 78,
                    "time": 345.04383300000944,
                    "velocity": 0.6141732283464567,
                    "duration": 0.3519059999999854
                },
                {
                    "name": "B5",
                    "midi": 83,
                    "time": 345.04383300000944,
                    "velocity": 0.6141732283464567,
                    "duration": 0.3519059999999854
                },
                {
                    "name": "D#6",
                    "midi": 87,
                    "time": 345.04383300000944,
                    "velocity": 0.7244094488188977,
                    "duration": 0.3519059999999854
                },
                {
                    "name": "C#5",
                    "midi": 73,
                    "time": 345.3957390000094,
                    "velocity": 0.5748031496062992,
                    "duration": 0.3519059999999854
                },
                {
                    "name": "F#5",
                    "midi": 78,
                    "time": 345.3957390000094,
                    "velocity": 0.5748031496062992,
                    "duration": 0.3519059999999854
                },
                {
                    "name": "A#5",
                    "midi": 82,
                    "time": 345.3957390000094,
                    "velocity": 0.5748031496062992,
                    "duration": 0.3519059999999854
                },
                {
                    "name": "C#6",
                    "midi": 85,
                    "time": 345.3957390000094,
                    "velocity": 0.6771653543307087,
                    "duration": 0.3519059999999854
                },
                {
                    "name": "A#4",
                    "midi": 70,
                    "time": 345.7476450000094,
                    "velocity": 0.6220472440944882,
                    "duration": 0.5278589999999781
                },
                {
                    "name": "A#5",
                    "midi": 82,
                    "time": 345.7476450000094,
                    "velocity": 0.7322834645669292,
                    "duration": 0.5278589999999781
                },
                {
                    "name": "G#4",
                    "midi": 68,
                    "time": 346.2755040000094,
                    "velocity": 0.5748031496062992,
                    "duration": 0.1759529999999927
                },
                {
                    "name": "G#5",
                    "midi": 80,
                    "time": 346.2755040000094,
                    "velocity": 0.6850393700787402,
                    "duration": 0.1759529999999927
                },
                {
                    "name": "F#4",
                    "midi": 66,
                    "time": 346.4514570000094,
                    "velocity": 0.6062992125984252,
                    "duration": 0.08797650000002477
                },
                {
                    "name": "F#5",
                    "midi": 78,
                    "time": 346.4514570000094,
                    "velocity": 0.7165354330708661,
                    "duration": 0.08797650000002477
                },
                {
                    "name": "F4",
                    "midi": 65,
                    "time": 346.62741000000943,
                    "velocity": 0.5669291338582677,
                    "duration": 0.08797650000002477
                },
                {
                    "name": "F5",
                    "midi": 77,
                    "time": 346.62741000000943,
                    "velocity": 0.6692913385826772,
                    "duration": 0.08797650000002477
                },
                {
                    "name": "D#4",
                    "midi": 63,
                    "time": 346.8033630000095,
                    "velocity": 0.5590551181102362,
                    "duration": 0.1759529999999927
                },
                {
                    "name": "D#5",
                    "midi": 75,
                    "time": 346.8033630000095,
                    "velocity": 0.6614173228346457,
                    "duration": 0.1759529999999927
                },
                {
                    "name": "F#5",
                    "midi": 78,
                    "time": 347.15526900000947,
                    "velocity": 0.5196850393700787,
                    "duration": 0.35190599999992855
                },
                {
                    "name": "A#5",
                    "midi": 82,
                    "time": 347.15526900000947,
                    "velocity": 0.6141732283464567,
                    "duration": 0.07038119999998571
                },
                {
                    "name": "B5",
                    "midi": 83,
                    "time": 347.22565020000945,
                    "velocity": 0.5748031496062992,
                    "duration": 0.07038119999998571
                },
                {
                    "name": "A#5",
                    "midi": 82,
                    "time": 347.29603140000944,
                    "velocity": 0.5748031496062992,
                    "duration": 0.07038119999998571
                },
                {
                    "name": "A5",
                    "midi": 81,
                    "time": 347.3664126000094,
                    "velocity": 0.5748031496062992,
                    "duration": 0.07038119999998571
                },
                {
                    "name": "A#5",
                    "midi": 82,
                    "time": 347.4367938000094,
                    "velocity": 0.5748031496062992,
                    "duration": 0.07038119999998571
                },
                {
                    "name": "B4",
                    "midi": 71,
                    "time": 347.5071750000094,
                    "velocity": 0.4881889763779528,
                    "duration": 0.08797650000002477
                },
                {
                    "name": "B5",
                    "midi": 83,
                    "time": 347.5071750000094,
                    "velocity": 0.5748031496062992,
                    "duration": 0.08797650000002477
                },
                {
                    "name": "A#4",
                    "midi": 70,
                    "time": 347.68312800000945,
                    "velocity": 0.4645669291338583,
                    "duration": 0.08797650000002477
                },
                {
                    "name": "A#5",
                    "midi": 82,
                    "time": 347.68312800000945,
                    "velocity": 0.5511811023622047,
                    "duration": 0.08797650000002477
                },
                {
                    "name": "G#4",
                    "midi": 68,
                    "time": 347.8590810000095,
                    "velocity": 0.5354330708661418,
                    "duration": 0.08797650000002477
                },
                {
                    "name": "G#5",
                    "midi": 80,
                    "time": 347.8590810000095,
                    "velocity": 0.6299212598425197,
                    "duration": 0.08797650000002477
                },
                {
                    "name": "F#4",
                    "midi": 66,
                    "time": 348.03503400000955,
                    "velocity": 0.4881889763779528,
                    "duration": 0.08797650000002477
                },
                {
                    "name": "F#5",
                    "midi": 78,
                    "time": 348.03503400000955,
                    "velocity": 0.5748031496062992,
                    "duration": 0.08797650000002477
                },
                {
                    "name": "F4",
                    "midi": 65,
                    "time": 348.2109870000096,
                    "velocity": 0.4881889763779528,
                    "duration": 0.1759529999999927
                },
                {
                    "name": "F5",
                    "midi": 77,
                    "time": 348.2109870000096,
                    "velocity": 0.5748031496062992,
                    "duration": 0.1759529999999927
                },
                {
                    "name": "F#4",
                    "midi": 66,
                    "time": 348.5628930000096,
                    "velocity": 0.5196850393700787,
                    "duration": 0.35190599999992855
                },
                {
                    "name": "A#4",
                    "midi": 70,
                    "time": 348.5628930000096,
                    "velocity": 0.6141732283464567,
                    "duration": 0.07038119999998571
                },
                {
                    "name": "B4",
                    "midi": 71,
                    "time": 348.63327420000957,
                    "velocity": 0.5748031496062992,
                    "duration": 0.07038119999998571
                },
                {
                    "name": "A#4",
                    "midi": 70,
                    "time": 348.70365540000955,
                    "velocity": 0.5748031496062992,
                    "duration": 0.07038119999998571
                },
                {
                    "name": "A4",
                    "midi": 69,
                    "time": 348.77403660000954,
                    "velocity": 0.5748031496062992,
                    "duration": 0.07038119999998571
                },
                {
                    "name": "A#4",
                    "midi": 70,
                    "time": 348.8444178000095,
                    "velocity": 0.5748031496062992,
                    "duration": 0.07038119999998571
                },
                {
                    "name": "G#4",
                    "midi": 68,
                    "time": 348.9147990000095,
                    "velocity": 0.4881889763779528,
                    "duration": 0.08797650000002477
                },
                {
                    "name": "B4",
                    "midi": 71,
                    "time": 348.9147990000095,
                    "velocity": 0.5748031496062992,
                    "duration": 0.08797650000002477
                },
                {
                    "name": "F#4",
                    "midi": 66,
                    "time": 349.09075200000956,
                    "velocity": 0.4645669291338583,
                    "duration": 0.08797650000002477
                },
                {
                    "name": "A#4",
                    "midi": 70,
                    "time": 349.09075200000956,
                    "velocity": 0.5511811023622047,
                    "duration": 0.08797650000002477
                },
                {
                    "name": "F4",
                    "midi": 65,
                    "time": 349.2667050000096,
                    "velocity": 0.5354330708661418,
                    "duration": 0.08797650000002477
                },
                {
                    "name": "G#4",
                    "midi": 68,
                    "time": 349.2667050000096,
                    "velocity": 0.6299212598425197,
                    "duration": 0.08797650000002477
                },
                {
                    "name": "D#4",
                    "midi": 63,
                    "time": 349.44265800000966,
                    "velocity": 0.4881889763779528,
                    "duration": 0.08797650000002477
                },
                {
                    "name": "F#4",
                    "midi": 66,
                    "time": 349.44265800000966,
                    "velocity": 0.5748031496062992,
                    "duration": 0.08797650000002477
                },
                {
                    "name": "A#3",
                    "midi": 58,
                    "time": 349.6186110000097,
                    "velocity": 0.4881889763779528,
                    "duration": 0.1759529999999927
                },
                {
                    "name": "F4",
                    "midi": 65,
                    "time": 349.6186110000097,
                    "velocity": 0.5748031496062992,
                    "duration": 0.1759529999999927
                },
                {
                    "name": "F#3",
                    "midi": 54,
                    "time": 349.9705170000097,
                    "velocity": 0.5196850393700787,
                    "duration": 0.35190599999992855
                },
                {
                    "name": "A#3",
                    "midi": 58,
                    "time": 349.9705170000097,
                    "velocity": 0.6141732283464567,
                    "duration": 0.07038119999998571
                },
                {
                    "name": "B3",
                    "midi": 59,
                    "time": 350.0408982000097,
                    "velocity": 0.5748031496062992,
                    "duration": 0.07038119999998571
                },
                {
                    "name": "A#3",
                    "midi": 58,
                    "time": 350.11127940000966,
                    "velocity": 0.5748031496062992,
                    "duration": 0.07038119999998571
                },
                {
                    "name": "A3",
                    "midi": 57,
                    "time": 350.18166060000965,
                    "velocity": 0.5748031496062992,
                    "duration": 0.07038119999998571
                },
                {
                    "name": "A#3",
                    "midi": 58,
                    "time": 350.25204180000964,
                    "velocity": 0.5748031496062992,
                    "duration": 0.07038119999998571
                },
                {
                    "name": "G#3",
                    "midi": 56,
                    "time": 350.3224230000096,
                    "velocity": 0.4881889763779528,
                    "duration": 0.08797650000002477
                },
                {
                    "name": "B3",
                    "midi": 59,
                    "time": 350.3224230000096,
                    "velocity": 0.5748031496062992,
                    "duration": 0.08797650000002477
                },
                {
                    "name": "F#3",
                    "midi": 54,
                    "time": 350.49837600000967,
                    "velocity": 0.4645669291338583,
                    "duration": 0.08797650000002477
                },
                {
                    "name": "A#3",
                    "midi": 58,
                    "time": 350.49837600000967,
                    "velocity": 0.5511811023622047,
                    "duration": 0.08797650000002477
                },
                {
                    "name": "F3",
                    "midi": 53,
                    "time": 350.6743290000097,
                    "velocity": 0.5354330708661418,
                    "duration": 0.08797650000002477
                },
                {
                    "name": "G#3",
                    "midi": 56,
                    "time": 350.6743290000097,
                    "velocity": 0.6299212598425197,
                    "duration": 0.08797650000002477
                },
                {
                    "name": "D#3",
                    "midi": 51,
                    "time": 350.85028200000977,
                    "velocity": 0.4881889763779528,
                    "duration": 0.08797650000002477
                },
                {
                    "name": "F#3",
                    "midi": 54,
                    "time": 350.85028200000977,
                    "velocity": 0.5748031496062992,
                    "duration": 0.08797650000002477
                },
                {
                    "name": "A#2",
                    "midi": 46,
                    "time": 351.0262350000098,
                    "velocity": 0.4881889763779528,
                    "duration": 0.1759529999999927
                },
                {
                    "name": "F3",
                    "midi": 53,
                    "time": 351.0262350000098,
                    "velocity": 0.5748031496062992,
                    "duration": 0.1759529999999927
                },
                {
                    "name": "D#3",
                    "midi": 51,
                    "time": 351.3781410000098,
                    "velocity": 0.6771653543307087,
                    "duration": 0.3519059999999854
                },
                {
                    "name": "G3",
                    "midi": 55,
                    "time": 351.7300470000098,
                    "velocity": 0.4409448818897638,
                    "duration": 0.1759529999999927
                },
                {
                    "name": "A#3",
                    "midi": 58,
                    "time": 351.7300470000098,
                    "velocity": 0.4409448818897638,
                    "duration": 0.1759529999999927
                },
                {
                    "name": "D#4",
                    "midi": 63,
                    "time": 351.7300470000098,
                    "velocity": 0.4409448818897638,
                    "duration": 0.1759529999999927
                },
                {
                    "name": "G4",
                    "midi": 67,
                    "time": 351.7300470000098,
                    "velocity": 0.5196850393700787,
                    "duration": 0.1759529999999927
                },
                {
                    "name": "G5",
                    "midi": 79,
                    "time": 351.9060000000098,
                    "velocity": 0.5196850393700787,
                    "duration": 0.1759529999999927
                },
                {
                    "name": "D#5",
                    "midi": 75,
                    "time": 351.9060000000098,
                    "velocity": 0.4409448818897638,
                    "duration": 0.1759529999999927
                },
                {
                    "name": "A#4",
                    "midi": 70,
                    "time": 351.9060000000098,
                    "velocity": 0.4409448818897638,
                    "duration": 0.1759529999999927
                },
                {
                    "name": "G4",
                    "midi": 67,
                    "time": 351.9060000000098,
                    "velocity": 0.4409448818897638,
                    "duration": 0.1759529999999927
                },
                {
                    "name": "G6",
                    "midi": 91,
                    "time": 352.0819530000098,
                    "velocity": 0.5590551181102362,
                    "duration": 0.1759529999999927
                },
                {
                    "name": "D#6",
                    "midi": 87,
                    "time": 352.0819530000098,
                    "velocity": 0.5590551181102362,
                    "duration": 0.1759529999999927
                },
                {
                    "name": "A#5",
                    "midi": 82,
                    "time": 352.0819530000098,
                    "velocity": 0.47244094488188976,
                    "duration": 0.1759529999999927
                },
                {
                    "name": "G5",
                    "midi": 79,
                    "time": 352.0819530000098,
                    "velocity": 0.47244094488188976,
                    "duration": 0.1759529999999927
                },
                {
                    "name": "G7",
                    "midi": 103,
                    "time": 352.25790600000977,
                    "velocity": 0.6141732283464567,
                    "duration": 0.1759529999999927
                },
                {
                    "name": "D#7",
                    "midi": 99,
                    "time": 352.25790600000977,
                    "velocity": 0.6141732283464567,
                    "duration": 0.1759529999999927
                },
                {
                    "name": "A#6",
                    "midi": 94,
                    "time": 352.25790600000977,
                    "velocity": 0.5196850393700787,
                    "duration": 0.1759529999999927
                },
                {
                    "name": "G6",
                    "midi": 91,
                    "time": 352.25790600000977,
                    "velocity": 0.5196850393700787,
                    "duration": 0.1759529999999927
                },
                {
                    "name": "A#2",
                    "midi": 46,
                    "time": 352.78576500000975,
                    "velocity": 0.6456692913385826,
                    "duration": 0.1722873124999751
                },
                {
                    "name": "A#3",
                    "midi": 58,
                    "time": 352.78576500000975,
                    "velocity": 0.6771653543307087,
                    "duration": 0.3519059999999854
                },
                {
                    "name": "G3",
                    "midi": 55,
                    "time": 353.13767100000973,
                    "velocity": 0.4409448818897638,
                    "duration": 0.1759529999999927
                },
                {
                    "name": "A#3",
                    "midi": 58,
                    "time": 353.13767100000973,
                    "velocity": 0.4409448818897638,
                    "duration": 0.1759529999999927
                },
                {
                    "name": "D#4",
                    "midi": 63,
                    "time": 353.13767100000973,
                    "velocity": 0.4409448818897638,
                    "duration": 0.1759529999999927
                },
                {
                    "name": "G4",
                    "midi": 67,
                    "time": 353.13767100000973,
                    "velocity": 0.5196850393700787,
                    "duration": 0.1759529999999927
                },
                {
                    "name": "G5",
                    "midi": 79,
                    "time": 353.3136240000097,
                    "velocity": 0.5196850393700787,
                    "duration": 0.1759529999999927
                },
                {
                    "name": "D#5",
                    "midi": 75,
                    "time": 353.3136240000097,
                    "velocity": 0.4409448818897638,
                    "duration": 0.1759529999999927
                },
                {
                    "name": "A#4",
                    "midi": 70,
                    "time": 353.3136240000097,
                    "velocity": 0.4409448818897638,
                    "duration": 0.1759529999999927
                },
                {
                    "name": "G4",
                    "midi": 67,
                    "time": 353.3136240000097,
                    "velocity": 0.4409448818897638,
                    "duration": 0.1759529999999927
                },
                {
                    "name": "G6",
                    "midi": 91,
                    "time": 353.4895770000097,
                    "velocity": 0.5669291338582677,
                    "duration": 0.1759529999999927
                },
                {
                    "name": "D#6",
                    "midi": 87,
                    "time": 353.4895770000097,
                    "velocity": 0.5669291338582677,
                    "duration": 0.1759529999999927
                },
                {
                    "name": "A#5",
                    "midi": 82,
                    "time": 353.4895770000097,
                    "velocity": 0.48031496062992124,
                    "duration": 0.1759529999999927
                },
                {
                    "name": "G5",
                    "midi": 79,
                    "time": 353.4895770000097,
                    "velocity": 0.48031496062992124,
                    "duration": 0.1759529999999927
                },
                {
                    "name": "G7",
                    "midi": 103,
                    "time": 353.6655300000097,
                    "velocity": 0.6062992125984252,
                    "duration": 0.1759529999999927
                },
                {
                    "name": "D#7",
                    "midi": 99,
                    "time": 353.6655300000097,
                    "velocity": 0.6062992125984252,
                    "duration": 0.1759529999999927
                },
                {
                    "name": "A#6",
                    "midi": 94,
                    "time": 353.6655300000097,
                    "velocity": 0.5118110236220472,
                    "duration": 0.1759529999999927
                },
                {
                    "name": "G6",
                    "midi": 91,
                    "time": 353.6655300000097,
                    "velocity": 0.5118110236220472,
                    "duration": 0.1759529999999927
                },
                {
                    "name": "G2",
                    "midi": 43,
                    "time": 354.1054125000097,
                    "velocity": 0.6220472440944882,
                    "duration": 0.08797650000002477
                },
                {
                    "name": "G3",
                    "midi": 55,
                    "time": 354.1054125000097,
                    "velocity": 0.6220472440944882,
                    "duration": 0.08797650000002477
                },
                {
                    "name": "G#2",
                    "midi": 44,
                    "time": 354.19338900000974,
                    "velocity": 0.5905511811023622,
                    "duration": 0.3519059999999854
                },
                {
                    "name": "G#3",
                    "midi": 56,
                    "time": 354.19338900000974,
                    "velocity": 0.6771653543307087,
                    "duration": 0.3519059999999854
                },
                {
                    "name": "F3",
                    "midi": 53,
                    "time": 354.54529500000973,
                    "velocity": 0.4409448818897638,
                    "duration": 0.1759529999999927
                },
                {
                    "name": "A#3",
                    "midi": 58,
                    "time": 354.54529500000973,
                    "velocity": 0.4409448818897638,
                    "duration": 0.1759529999999927
                },
                {
                    "name": "D4",
                    "midi": 62,
                    "time": 354.54529500000973,
                    "velocity": 0.4409448818897638,
                    "duration": 0.1759529999999927
                },
                {
                    "name": "F4",
                    "midi": 65,
                    "time": 354.54529500000973,
                    "velocity": 0.5196850393700787,
                    "duration": 0.1759529999999927
                },
                {
                    "name": "F5",
                    "midi": 77,
                    "time": 354.7212480000097,
                    "velocity": 0.5196850393700787,
                    "duration": 0.1759529999999927
                },
                {
                    "name": "D5",
                    "midi": 74,
                    "time": 354.7212480000097,
                    "velocity": 0.4409448818897638,
                    "duration": 0.1759529999999927
                },
                {
                    "name": "A#4",
                    "midi": 70,
                    "time": 354.7212480000097,
                    "velocity": 0.4409448818897638,
                    "duration": 0.1759529999999927
                },
                {
                    "name": "F4",
                    "midi": 65,
                    "time": 354.7212480000097,
                    "velocity": 0.4409448818897638,
                    "duration": 0.1759529999999927
                },
                {
                    "name": "F6",
                    "midi": 89,
                    "time": 354.8972010000097,
                    "velocity": 0.5669291338582677,
                    "duration": 0.1759529999999927
                },
                {
                    "name": "D6",
                    "midi": 86,
                    "time": 354.8972010000097,
                    "velocity": 0.48031496062992124,
                    "duration": 0.1759529999999927
                },
                {
                    "name": "A#5",
                    "midi": 82,
                    "time": 354.8972010000097,
                    "velocity": 0.48031496062992124,
                    "duration": 0.1759529999999927
                },
                {
                    "name": "F5",
                    "midi": 77,
                    "time": 354.8972010000097,
                    "velocity": 0.48031496062992124,
                    "duration": 0.1759529999999927
                },
                {
                    "name": "F7",
                    "midi": 101,
                    "time": 355.0731540000097,
                    "velocity": 0.6377952755905512,
                    "duration": 0.1759529999999927
                },
                {
                    "name": "D7",
                    "midi": 98,
                    "time": 355.0731540000097,
                    "velocity": 0.6377952755905512,
                    "duration": 0.1759529999999927
                },
                {
                    "name": "A#6",
                    "midi": 94,
                    "time": 355.0731540000097,
                    "velocity": 0.5354330708661418,
                    "duration": 0.1759529999999927
                },
                {
                    "name": "F6",
                    "midi": 89,
                    "time": 355.0731540000097,
                    "velocity": 0.5354330708661418,
                    "duration": 0.1759529999999927
                },
                {
                    "name": "A#2",
                    "midi": 46,
                    "time": 355.6010130000097,
                    "velocity": 0.6771653543307087,
                    "duration": 0.3519059999999854
                },
                {
                    "name": "A#3",
                    "midi": 58,
                    "time": 355.6010130000097,
                    "velocity": 0.6771653543307087,
                    "duration": 0.3519059999999854
                },
                {
                    "name": "G3",
                    "midi": 55,
                    "time": 355.9529190000097,
                    "velocity": 0.4409448818897638,
                    "duration": 0.1759529999999927
                },
                {
                    "name": "A#3",
                    "midi": 58,
                    "time": 355.9529190000097,
                    "velocity": 0.4409448818897638,
                    "duration": 0.1759529999999927
                },
                {
                    "name": "D#4",
                    "midi": 63,
                    "time": 355.9529190000097,
                    "velocity": 0.4409448818897638,
                    "duration": 0.1759529999999927
                },
                {
                    "name": "G4",
                    "midi": 67,
                    "time": 355.9529190000097,
                    "velocity": 0.5196850393700787,
                    "duration": 0.1759529999999927
                },
                {
                    "name": "G5",
                    "midi": 79,
                    "time": 356.12887200000966,
                    "velocity": 0.5196850393700787,
                    "duration": 0.1759529999999927
                },
                {
                    "name": "D#5",
                    "midi": 75,
                    "time": 356.12887200000966,
                    "velocity": 0.4409448818897638,
                    "duration": 0.1759529999999927
                },
                {
                    "name": "A#4",
                    "midi": 70,
                    "time": 356.12887200000966,
                    "velocity": 0.4409448818897638,
                    "duration": 0.1759529999999927
                },
                {
                    "name": "G4",
                    "midi": 67,
                    "time": 356.12887200000966,
                    "velocity": 0.4409448818897638,
                    "duration": 0.1759529999999927
                },
                {
                    "name": "G6",
                    "midi": 91,
                    "time": 356.30482500000966,
                    "velocity": 0.5748031496062992,
                    "duration": 0.1759529999999927
                },
                {
                    "name": "D#6",
                    "midi": 87,
                    "time": 356.30482500000966,
                    "velocity": 0.5748031496062992,
                    "duration": 0.1759529999999927
                },
                {
                    "name": "A#5",
                    "midi": 82,
                    "time": 356.30482500000966,
                    "velocity": 0.4881889763779528,
                    "duration": 0.1759529999999927
                },
                {
                    "name": "G5",
                    "midi": 79,
                    "time": 356.30482500000966,
                    "velocity": 0.4881889763779528,
                    "duration": 0.1759529999999927
                },
                {
                    "name": "G7",
                    "midi": 103,
                    "time": 356.48077800000965,
                    "velocity": 0.6377952755905512,
                    "duration": 0.1759529999999927
                },
                {
                    "name": "D#7",
                    "midi": 99,
                    "time": 356.48077800000965,
                    "velocity": 0.6377952755905512,
                    "duration": 0.1759529999999927
                },
                {
                    "name": "A#6",
                    "midi": 94,
                    "time": 356.48077800000965,
                    "velocity": 0.5354330708661418,
                    "duration": 0.1759529999999927
                },
                {
                    "name": "G6",
                    "midi": 91,
                    "time": 356.48077800000965,
                    "velocity": 0.5354330708661418,
                    "duration": 0.1759529999999927
                },
                {
                    "name": "A#2",
                    "midi": 46,
                    "time": 356.83268400000964,
                    "velocity": 0.5590551181102362,
                    "duration": 0.058650999999997566
                },
                {
                    "name": "C3",
                    "midi": 48,
                    "time": 356.89133500000963,
                    "velocity": 0.5748031496062992,
                    "duration": 0.058650999999997566
                },
                {
                    "name": "D3",
                    "midi": 50,
                    "time": 356.94998600000963,
                    "velocity": 0.5905511811023622,
                    "duration": 0.036656875000005584
                },
                {
                    "name": "D#3",
                    "midi": 51,
                    "time": 357.0086370000096,
                    "velocity": 0.6771653543307087,
                    "duration": 0.3519059999999854
                },
                {
                    "name": "D#4",
                    "midi": 63,
                    "time": 357.3605430000096,
                    "velocity": 0.4409448818897638,
                    "duration": 0.1759529999999927
                },
                {
                    "name": "A#3",
                    "midi": 58,
                    "time": 357.3605430000096,
                    "velocity": 0.4409448818897638,
                    "duration": 0.1759529999999927
                },
                {
                    "name": "G3",
                    "midi": 55,
                    "time": 357.3605430000096,
                    "velocity": 0.4409448818897638,
                    "duration": 0.1759529999999927
                },
                {
                    "name": "G4",
                    "midi": 67,
                    "time": 357.3605430000096,
                    "velocity": 0.5196850393700787,
                    "duration": 0.1759529999999927
                },
                {
                    "name": "G4",
                    "midi": 67,
                    "time": 357.5364960000096,
                    "velocity": 0.4409448818897638,
                    "duration": 0.1759529999999927
                },
                {
                    "name": "A#4",
                    "midi": 70,
                    "time": 357.5364960000096,
                    "velocity": 0.4409448818897638,
                    "duration": 0.1759529999999927
                },
                {
                    "name": "G5",
                    "midi": 79,
                    "time": 357.5364960000096,
                    "velocity": 0.5196850393700787,
                    "duration": 0.1759529999999927
                },
                {
                    "name": "D#5",
                    "midi": 75,
                    "time": 357.5364960000096,
                    "velocity": 0.4409448818897638,
                    "duration": 0.1759529999999927
                },
                {
                    "name": "A#5",
                    "midi": 82,
                    "time": 357.7124490000096,
                    "velocity": 0.47244094488188976,
                    "duration": 0.1759529999999927
                },
                {
                    "name": "G5",
                    "midi": 79,
                    "time": 357.7124490000096,
                    "velocity": 0.47244094488188976,
                    "duration": 0.1759529999999927
                },
                {
                    "name": "G6",
                    "midi": 91,
                    "time": 357.7124490000096,
                    "velocity": 0.5590551181102362,
                    "duration": 0.1759529999999927
                },
                {
                    "name": "D#6",
                    "midi": 87,
                    "time": 357.7124490000096,
                    "velocity": 0.5590551181102362,
                    "duration": 0.1759529999999927
                },
                {
                    "name": "G6",
                    "midi": 91,
                    "time": 357.8884020000096,
                    "velocity": 0.5196850393700787,
                    "duration": 0.1759529999999927
                },
                {
                    "name": "D#7",
                    "midi": 99,
                    "time": 357.8884020000096,
                    "velocity": 0.6141732283464567,
                    "duration": 0.1759529999999927
                },
                {
                    "name": "G7",
                    "midi": 103,
                    "time": 357.8884020000096,
                    "velocity": 0.6141732283464567,
                    "duration": 0.1759529999999927
                },
                {
                    "name": "A#6",
                    "midi": 94,
                    "time": 357.8884020000096,
                    "velocity": 0.5196850393700787,
                    "duration": 0.1759529999999927
                },
                {
                    "name": "A#3",
                    "midi": 58,
                    "time": 358.41626100000957,
                    "velocity": 0.6771653543307087,
                    "duration": 0.3519059999999854
                },
                {
                    "name": "A#2",
                    "midi": 46,
                    "time": 358.41626100000957,
                    "velocity": 0.6771653543307087,
                    "duration": 0.1722873124999751
                },
                {
                    "name": "G4",
                    "midi": 67,
                    "time": 358.76816700000956,
                    "velocity": 0.5196850393700787,
                    "duration": 0.1759529999999927
                },
                {
                    "name": "G3",
                    "midi": 55,
                    "time": 358.76816700000956,
                    "velocity": 0.4409448818897638,
                    "duration": 0.1759529999999927
                },
                {
                    "name": "A#3",
                    "midi": 58,
                    "time": 358.76816700000956,
                    "velocity": 0.4409448818897638,
                    "duration": 0.1759529999999927
                },
                {
                    "name": "D#4",
                    "midi": 63,
                    "time": 358.76816700000956,
                    "velocity": 0.4409448818897638,
                    "duration": 0.1759529999999927
                },
                {
                    "name": "G4",
                    "midi": 67,
                    "time": 358.94412000000955,
                    "velocity": 0.4409448818897638,
                    "duration": 0.1759529999999927
                },
                {
                    "name": "G5",
                    "midi": 79,
                    "time": 358.94412000000955,
                    "velocity": 0.5196850393700787,
                    "duration": 0.1759529999999927
                },
                {
                    "name": "D#5",
                    "midi": 75,
                    "time": 358.94412000000955,
                    "velocity": 0.4409448818897638,
                    "duration": 0.1759529999999927
                },
                {
                    "name": "A#4",
                    "midi": 70,
                    "time": 358.94412000000955,
                    "velocity": 0.4409448818897638,
                    "duration": 0.1759529999999927
                },
                {
                    "name": "G6",
                    "midi": 91,
                    "time": 359.12007300000954,
                    "velocity": 0.5669291338582677,
                    "duration": 0.1759529999999927
                },
                {
                    "name": "A#5",
                    "midi": 82,
                    "time": 359.12007300000954,
                    "velocity": 0.48031496062992124,
                    "duration": 0.1759529999999927
                },
                {
                    "name": "D#6",
                    "midi": 87,
                    "time": 359.12007300000954,
                    "velocity": 0.5669291338582677,
                    "duration": 0.1759529999999927
                },
                {
                    "name": "G5",
                    "midi": 79,
                    "time": 359.12007300000954,
                    "velocity": 0.48031496062992124,
                    "duration": 0.1759529999999927
                },
                {
                    "name": "G7",
                    "midi": 103,
                    "time": 359.29602600000953,
                    "velocity": 0.6062992125984252,
                    "duration": 0.1759529999999927
                },
                {
                    "name": "A#6",
                    "midi": 94,
                    "time": 359.29602600000953,
                    "velocity": 0.5118110236220472,
                    "duration": 0.1759529999999927
                },
                {
                    "name": "D#7",
                    "midi": 99,
                    "time": 359.29602600000953,
                    "velocity": 0.6062992125984252,
                    "duration": 0.1759529999999927
                },
                {
                    "name": "G6",
                    "midi": 91,
                    "time": 359.29602600000953,
                    "velocity": 0.5118110236220472,
                    "duration": 0.1759529999999927
                },
                {
                    "name": "G3",
                    "midi": 55,
                    "time": 359.73590850000954,
                    "velocity": 0.6220472440944882,
                    "duration": 0.08797650000002477
                },
                {
                    "name": "G2",
                    "midi": 43,
                    "time": 359.73590850000954,
                    "velocity": 0.6220472440944882,
                    "duration": 0.08797650000002477
                },
                {
                    "name": "G#2",
                    "midi": 44,
                    "time": 359.82388500000957,
                    "velocity": 0.5905511811023622,
                    "duration": 0.3519059999999854
                },
                {
                    "name": "G#3",
                    "midi": 56,
                    "time": 359.82388500000957,
                    "velocity": 0.6771653543307087,
                    "duration": 0.3519059999999854
                },
                {
                    "name": "F3",
                    "midi": 53,
                    "time": 360.17579100000955,
                    "velocity": 0.4409448818897638,
                    "duration": 0.1759529999999927
                },
                {
                    "name": "A#3",
                    "midi": 58,
                    "time": 360.17579100000955,
                    "velocity": 0.4409448818897638,
                    "duration": 0.1759529999999927
                },
                {
                    "name": "D4",
                    "midi": 62,
                    "time": 360.17579100000955,
                    "velocity": 0.4409448818897638,
                    "duration": 0.1759529999999927
                },
                {
                    "name": "F4",
                    "midi": 65,
                    "time": 360.17579100000955,
                    "velocity": 0.5196850393700787,
                    "duration": 0.1759529999999927
                },
                {
                    "name": "F5",
                    "midi": 77,
                    "time": 360.35174400000955,
                    "velocity": 0.5196850393700787,
                    "duration": 0.1759529999999927
                },
                {
                    "name": "D5",
                    "midi": 74,
                    "time": 360.35174400000955,
                    "velocity": 0.4409448818897638,
                    "duration": 0.1759529999999927
                },
                {
                    "name": "A#4",
                    "midi": 70,
                    "time": 360.35174400000955,
                    "velocity": 0.4409448818897638,
                    "duration": 0.1759529999999927
                },
                {
                    "name": "F4",
                    "midi": 65,
                    "time": 360.35174400000955,
                    "velocity": 0.4409448818897638,
                    "duration": 0.1759529999999927
                },
                {
                    "name": "F6",
                    "midi": 89,
                    "time": 360.52769700000954,
                    "velocity": 0.5669291338582677,
                    "duration": 0.1759529999999927
                },
                {
                    "name": "D6",
                    "midi": 86,
                    "time": 360.52769700000954,
                    "velocity": 0.48031496062992124,
                    "duration": 0.1759529999999927
                },
                {
                    "name": "A#5",
                    "midi": 82,
                    "time": 360.52769700000954,
                    "velocity": 0.48031496062992124,
                    "duration": 0.1759529999999927
                },
                {
                    "name": "F5",
                    "midi": 77,
                    "time": 360.52769700000954,
                    "velocity": 0.48031496062992124,
                    "duration": 0.1759529999999927
                },
                {
                    "name": "F7",
                    "midi": 101,
                    "time": 360.70365000000953,
                    "velocity": 0.6377952755905512,
                    "duration": 0.1759529999999927
                },
                {
                    "name": "D7",
                    "midi": 98,
                    "time": 360.70365000000953,
                    "velocity": 0.6377952755905512,
                    "duration": 0.1759529999999927
                },
                {
                    "name": "A#6",
                    "midi": 94,
                    "time": 360.70365000000953,
                    "velocity": 0.5354330708661418,
                    "duration": 0.1759529999999927
                },
                {
                    "name": "F6",
                    "midi": 89,
                    "time": 360.70365000000953,
                    "velocity": 0.5354330708661418,
                    "duration": 0.1759529999999927
                },
                {
                    "name": "D#3",
                    "midi": 51,
                    "time": 361.2315090000095,
                    "velocity": 0.6771653543307087,
                    "duration": 0.7038119999999708
                },
                {
                    "name": "G3",
                    "midi": 55,
                    "time": 361.5834150000095,
                    "velocity": 0.4409448818897638,
                    "duration": 0.1759529999999927
                },
                {
                    "name": "A#3",
                    "midi": 58,
                    "time": 361.5834150000095,
                    "velocity": 0.4409448818897638,
                    "duration": 0.1759529999999927
                },
                {
                    "name": "D#4",
                    "midi": 63,
                    "time": 361.5834150000095,
                    "velocity": 0.5196850393700787,
                    "duration": 0.1759529999999927
                },
                {
                    "name": "D#5",
                    "midi": 75,
                    "time": 361.7593680000095,
                    "velocity": 0.5196850393700787,
                    "duration": 0.1759529999999927
                },
                {
                    "name": "A#4",
                    "midi": 70,
                    "time": 361.7593680000095,
                    "velocity": 0.4409448818897638,
                    "duration": 0.1759529999999927
                },
                {
                    "name": "G4",
                    "midi": 67,
                    "time": 361.7593680000095,
                    "velocity": 0.4409448818897638,
                    "duration": 0.1759529999999927
                },
                {
                    "name": "D#6",
                    "midi": 87,
                    "time": 361.9353210000095,
                    "velocity": 0.5748031496062992,
                    "duration": 0.1759529999999927
                },
                {
                    "name": "A#5",
                    "midi": 82,
                    "time": 361.9353210000095,
                    "velocity": 0.5748031496062992,
                    "duration": 0.1759529999999927
                },
                {
                    "name": "G5",
                    "midi": 79,
                    "time": 361.9353210000095,
                    "velocity": 0.4881889763779528,
                    "duration": 0.1759529999999927
                },
                {
                    "name": "D#7",
                    "midi": 99,
                    "time": 362.1112740000095,
                    "velocity": 0.6377952755905512,
                    "duration": 0.1759529999999927
                },
                {
                    "name": "A#6",
                    "midi": 94,
                    "time": 362.1112740000095,
                    "velocity": 0.6377952755905512,
                    "duration": 0.1759529999999927
                },
                {
                    "name": "G6",
                    "midi": 91,
                    "time": 362.1112740000095,
                    "velocity": 0.5354330708661418,
                    "duration": 0.1759529999999927
                },
                {
                    "name": "D#4",
                    "midi": 63,
                    "time": 362.63913300000945,
                    "velocity": 0.6456692913385826,
                    "duration": 0.3519059999999854
                },
                {
                    "name": "D#3",
                    "midi": 51,
                    "time": 362.63913300000945,
                    "velocity": 0.5905511811023622,
                    "duration": 0.1722873124999751
                },
                {
                    "name": "G3",
                    "midi": 55,
                    "time": 362.9030625000094,
                    "velocity": 0.4881889763779528,
                    "duration": 0.08797650000002477
                },
                {
                    "name": "A#3",
                    "midi": 58,
                    "time": 362.99103900000944,
                    "velocity": 0.41732283464566927,
                    "duration": 0.08797650000002477
                },
                {
                    "name": "D#4",
                    "midi": 63,
                    "time": 362.99103900000944,
                    "velocity": 0.41732283464566927,
                    "duration": 0.08797650000002477
                },
                {
                    "name": "G4",
                    "midi": 67,
                    "time": 362.99103900000944,
                    "velocity": 0.4881889763779528,
                    "duration": 0.08797650000002477
                },
                {
                    "name": "G4",
                    "midi": 67,
                    "time": 363.07901550000946,
                    "velocity": 0.44881889763779526,
                    "duration": 0.08797650000002477
                },
                {
                    "name": "G5",
                    "midi": 79,
                    "time": 363.1669920000095,
                    "velocity": 0.4881889763779528,
                    "duration": 0.08797650000002477
                },
                {
                    "name": "D#5",
                    "midi": 75,
                    "time": 363.1669920000095,
                    "velocity": 0.41732283464566927,
                    "duration": 0.08797650000002477
                },
                {
                    "name": "A#4",
                    "midi": 70,
                    "time": 363.1669920000095,
                    "velocity": 0.41732283464566927,
                    "duration": 0.08797650000002477
                },
                {
                    "name": "G5",
                    "midi": 79,
                    "time": 363.2549685000095,
                    "velocity": 0.4409448818897638,
                    "duration": 0.08797650000002477
                },
                {
                    "name": "G6",
                    "midi": 91,
                    "time": 363.34294500000954,
                    "velocity": 0.5275590551181102,
                    "duration": 0.08797650000002477
                },
                {
                    "name": "D#6",
                    "midi": 87,
                    "time": 363.34294500000954,
                    "velocity": 0.5275590551181102,
                    "duration": 0.08797650000002477
                },
                {
                    "name": "A#5",
                    "midi": 82,
                    "time": 363.34294500000954,
                    "velocity": 0.44881889763779526,
                    "duration": 0.08797650000002477
                },
                {
                    "name": "G5",
                    "midi": 79,
                    "time": 363.43092150000956,
                    "velocity": 0.47244094488188976,
                    "duration": 0.08797650000002477
                },
                {
                    "name": "G6",
                    "midi": 91,
                    "time": 363.5188980000096,
                    "velocity": 0.5511811023622047,
                    "duration": 0.08797650000002477
                },
                {
                    "name": "D#6",
                    "midi": 87,
                    "time": 363.5188980000096,
                    "velocity": 0.4566929133858268,
                    "duration": 0.08797650000002477
                },
                {
                    "name": "A#5",
                    "midi": 82,
                    "time": 363.5188980000096,
                    "velocity": 0.4566929133858268,
                    "duration": 0.08797650000002477
                },
                {
                    "name": "G6",
                    "midi": 91,
                    "time": 363.6068745000096,
                    "velocity": 0.4881889763779528,
                    "duration": 0.08797650000002477
                },
                {
                    "name": "G7",
                    "midi": 103,
                    "time": 363.69485100000963,
                    "velocity": 0.6377952755905512,
                    "duration": 0.1759529999999927
                },
                {
                    "name": "D#7",
                    "midi": 99,
                    "time": 363.69485100000963,
                    "velocity": 0.6141732283464567,
                    "duration": 0.1759529999999927
                },
                {
                    "name": "A#6",
                    "midi": 94,
                    "time": 363.69485100000963,
                    "velocity": 0.4881889763779528,
                    "duration": 0.1759529999999927
                },
                {
                    "name": "A#4",
                    "midi": 70,
                    "time": 364.0467570000096,
                    "velocity": 0.6456692913385826,
                    "duration": 0.5263927250000506
                },
                {
                    "name": "A#3",
                    "midi": 58,
                    "time": 364.0467570000096,
                    "velocity": 0.5748031496062992,
                    "duration": 0.439882500000067
                },
                {
                    "name": "G3",
                    "midi": 55,
                    "time": 364.31068650000964,
                    "velocity": 0.4881889763779528,
                    "duration": 0.08797650000002477
                },
                {
                    "name": "A#3",
                    "midi": 58,
                    "time": 364.39866300000966,
                    "velocity": 0.41732283464566927,
                    "duration": 0.1744867250000084
                },
                {
                    "name": "D#4",
                    "midi": 63,
                    "time": 364.39866300000966,
                    "velocity": 0.41732283464566927,
                    "duration": 0.08797650000002477
                },
                {
                    "name": "G4",
                    "midi": 67,
                    "time": 364.39866300000966,
                    "velocity": 0.4881889763779528,
                    "duration": 0.08797650000002477
                },
                {
                    "name": "G4",
                    "midi": 67,
                    "time": 364.4866395000097,
                    "velocity": 0.44881889763779526,
                    "duration": 0.08797649999996793
                },
                {
                    "name": "G5",
                    "midi": 79,
                    "time": 364.57461600000966,
                    "velocity": 0.4881889763779528,
                    "duration": 0.08797650000002477
                },
                {
                    "name": "D#5",
                    "midi": 75,
                    "time": 364.57461600000966,
                    "velocity": 0.41732283464566927,
                    "duration": 0.08797650000002477
                },
                {
                    "name": "A#4",
                    "midi": 70,
                    "time": 364.57461600000966,
                    "velocity": 0.41732283464566927,
                    "duration": 0.08797650000002477
                },
                {
                    "name": "G5",
                    "midi": 79,
                    "time": 364.6625925000097,
                    "velocity": 0.4409448818897638,
                    "duration": 0.08797650000002477
                },
                {
                    "name": "G6",
                    "midi": 91,
                    "time": 364.7505690000097,
                    "velocity": 0.5275590551181102,
                    "duration": 0.08797650000002477
                },
                {
                    "name": "D#6",
                    "midi": 87,
                    "time": 364.7505690000097,
                    "velocity": 0.5275590551181102,
                    "duration": 0.08797650000002477
                },
                {
                    "name": "A#5",
                    "midi": 82,
                    "time": 364.7505690000097,
                    "velocity": 0.44881889763779526,
                    "duration": 0.08797650000002477
                },
                {
                    "name": "G5",
                    "midi": 79,
                    "time": 364.83854550000973,
                    "velocity": 0.47244094488188976,
                    "duration": 0.08797650000002477
                },
                {
                    "name": "G6",
                    "midi": 91,
                    "time": 364.92652200000975,
                    "velocity": 0.5511811023622047,
                    "duration": 0.08797650000002477
                },
                {
                    "name": "D#6",
                    "midi": 87,
                    "time": 364.92652200000975,
                    "velocity": 0.4566929133858268,
                    "duration": 0.08797650000002477
                },
                {
                    "name": "A#5",
                    "midi": 82,
                    "time": 364.92652200000975,
                    "velocity": 0.4566929133858268,
                    "duration": 0.08797650000002477
                },
                {
                    "name": "G6",
                    "midi": 91,
                    "time": 365.0144985000098,
                    "velocity": 0.4881889763779528,
                    "duration": 0.08797650000002477
                },
                {
                    "name": "G7",
                    "midi": 103,
                    "time": 365.1024750000098,
                    "velocity": 0.6377952755905512,
                    "duration": 0.1759529999999927
                },
                {
                    "name": "D#7",
                    "midi": 99,
                    "time": 365.1024750000098,
                    "velocity": 0.6141732283464567,
                    "duration": 0.1759529999999927
                },
                {
                    "name": "A#6",
                    "midi": 94,
                    "time": 365.1024750000098,
                    "velocity": 0.4881889763779528,
                    "duration": 0.1759529999999927
                },
                {
                    "name": "G3",
                    "midi": 55,
                    "time": 365.3664045000098,
                    "velocity": 0.5984251968503937,
                    "duration": 0.08797650000002477
                },
                {
                    "name": "G4",
                    "midi": 67,
                    "time": 365.3664045000098,
                    "velocity": 0.5984251968503937,
                    "duration": 0.08797650000002477
                },
                {
                    "name": "G#4",
                    "midi": 68,
                    "time": 365.45438100000985,
                    "velocity": 0.6456692913385826,
                    "duration": 0.35190600000004224
                },
                {
                    "name": "G#3",
                    "midi": 56,
                    "time": 365.45438100000985,
                    "velocity": 0.5748031496062992,
                    "duration": 0.35190600000004224
                },
                {
                    "name": "F3",
                    "midi": 53,
                    "time": 365.71831050000986,
                    "velocity": 0.4881889763779528,
                    "duration": 0.08797650000002477
                },
                {
                    "name": "A#3",
                    "midi": 58,
                    "time": 365.8062870000099,
                    "velocity": 0.41732283464566927,
                    "duration": 0.08797650000002477
                },
                {
                    "name": "D4",
                    "midi": 62,
                    "time": 365.8062870000099,
                    "velocity": 0.41732283464566927,
                    "duration": 0.08797650000002477
                },
                {
                    "name": "F4",
                    "midi": 65,
                    "time": 365.8062870000099,
                    "velocity": 0.4881889763779528,
                    "duration": 0.08797650000002477
                },
                {
                    "name": "F4",
                    "midi": 65,
                    "time": 365.8942635000099,
                    "velocity": 0.44881889763779526,
                    "duration": 0.08797650000002477
                },
                {
                    "name": "F5",
                    "midi": 77,
                    "time": 365.98224000000994,
                    "velocity": 0.4881889763779528,
                    "duration": 0.08797650000002477
                },
                {
                    "name": "D5",
                    "midi": 74,
                    "time": 365.98224000000994,
                    "velocity": 0.41732283464566927,
                    "duration": 0.08797650000002477
                },
                {
                    "name": "A#4",
                    "midi": 70,
                    "time": 365.98224000000994,
                    "velocity": 0.41732283464566927,
                    "duration": 0.08797650000002477
                },
                {
                    "name": "F5",
                    "midi": 77,
                    "time": 366.07021650000996,
                    "velocity": 0.4409448818897638,
                    "duration": 0.08797650000002477
                },
                {
                    "name": "F6",
                    "midi": 89,
                    "time": 366.15819300001,
                    "velocity": 0.5275590551181102,
                    "duration": 0.08797650000002477
                },
                {
                    "name": "D6",
                    "midi": 86,
                    "time": 366.15819300001,
                    "velocity": 0.5275590551181102,
                    "duration": 0.08797650000002477
                },
                {
                    "name": "A#5",
                    "midi": 82,
                    "time": 366.15819300001,
                    "velocity": 0.44881889763779526,
                    "duration": 0.08797650000002477
                },
                {
                    "name": "F5",
                    "midi": 77,
                    "time": 366.24616950001,
                    "velocity": 0.47244094488188976,
                    "duration": 0.08797650000002477
                },
                {
                    "name": "F6",
                    "midi": 89,
                    "time": 366.33414600001004,
                    "velocity": 0.5511811023622047,
                    "duration": 0.08797650000002477
                },
                {
                    "name": "D6",
                    "midi": 86,
                    "time": 366.33414600001004,
                    "velocity": 0.4566929133858268,
                    "duration": 0.08797650000002477
                },
                {
                    "name": "A#5",
                    "midi": 82,
                    "time": 366.33414600001004,
                    "velocity": 0.4566929133858268,
                    "duration": 0.08797650000002477
                },
                {
                    "name": "F6",
                    "midi": 89,
                    "time": 366.42212250001006,
                    "velocity": 0.4881889763779528,
                    "duration": 0.08797650000002477
                },
                {
                    "name": "F7",
                    "midi": 101,
                    "time": 366.5100990000101,
                    "velocity": 0.6377952755905512,
                    "duration": 0.1759529999999927
                },
                {
                    "name": "D7",
                    "midi": 98,
                    "time": 366.5100990000101,
                    "velocity": 0.5826771653543307,
                    "duration": 0.1759529999999927
                },
                {
                    "name": "A#6",
                    "midi": 94,
                    "time": 366.5100990000101,
                    "velocity": 0.4881889763779528,
                    "duration": 0.1759529999999927
                },
                {
                    "name": "A#4",
                    "midi": 70,
                    "time": 366.8620050000101,
                    "velocity": 0.6456692913385826,
                    "duration": 0.5263927250000506
                },
                {
                    "name": "A#3",
                    "midi": 58,
                    "time": 366.8620050000101,
                    "velocity": 0.5748031496062992,
                    "duration": 0.439882500000067
                },
                {
                    "name": "G3",
                    "midi": 55,
                    "time": 367.1259345000101,
                    "velocity": 0.4881889763779528,
                    "duration": 0.08797650000002477
                },
                {
                    "name": "A#3",
                    "midi": 58,
                    "time": 367.2139110000101,
                    "velocity": 0.41732283464566927,
                    "duration": 0.1744867250000084
                },
                {
                    "name": "D#4",
                    "midi": 63,
                    "time": 367.2139110000101,
                    "velocity": 0.41732283464566927,
                    "duration": 0.08797650000002477
                },
                {
                    "name": "G4",
                    "midi": 67,
                    "time": 367.2139110000101,
                    "velocity": 0.4881889763779528,
                    "duration": 0.08797650000002477
                },
                {
                    "name": "G4",
                    "midi": 67,
                    "time": 367.30188750001014,
                    "velocity": 0.44881889763779526,
                    "duration": 0.08797649999996793
                },
                {
                    "name": "G5",
                    "midi": 79,
                    "time": 367.3898640000101,
                    "velocity": 0.4881889763779528,
                    "duration": 0.08797650000002477
                },
                {
                    "name": "D#5",
                    "midi": 75,
                    "time": 367.3898640000101,
                    "velocity": 0.41732283464566927,
                    "duration": 0.08797650000002477
                },
                {
                    "name": "A#4",
                    "midi": 70,
                    "time": 367.3898640000101,
                    "velocity": 0.41732283464566927,
                    "duration": 0.08797650000002477
                },
                {
                    "name": "G5",
                    "midi": 79,
                    "time": 367.47784050001013,
                    "velocity": 0.4409448818897638,
                    "duration": 0.08797650000002477
                },
                {
                    "name": "G6",
                    "midi": 91,
                    "time": 367.56581700001016,
                    "velocity": 0.5275590551181102,
                    "duration": 0.08797650000002477
                },
                {
                    "name": "D#6",
                    "midi": 87,
                    "time": 367.56581700001016,
                    "velocity": 0.5275590551181102,
                    "duration": 0.08797650000002477
                },
                {
                    "name": "A#5",
                    "midi": 82,
                    "time": 367.56581700001016,
                    "velocity": 0.44881889763779526,
                    "duration": 0.08797650000002477
                },
                {
                    "name": "G5",
                    "midi": 79,
                    "time": 367.6537935000102,
                    "velocity": 0.47244094488188976,
                    "duration": 0.08797650000002477
                },
                {
                    "name": "G6",
                    "midi": 91,
                    "time": 367.7417700000102,
                    "velocity": 0.5511811023622047,
                    "duration": 0.08797650000002477
                },
                {
                    "name": "D#6",
                    "midi": 87,
                    "time": 367.7417700000102,
                    "velocity": 0.4566929133858268,
                    "duration": 0.08797650000002477
                },
                {
                    "name": "A#5",
                    "midi": 82,
                    "time": 367.7417700000102,
                    "velocity": 0.4566929133858268,
                    "duration": 0.08797650000002477
                },
                {
                    "name": "G6",
                    "midi": 91,
                    "time": 367.82974650001023,
                    "velocity": 0.4881889763779528,
                    "duration": 0.08797650000002477
                },
                {
                    "name": "G7",
                    "midi": 103,
                    "time": 367.91772300001026,
                    "velocity": 0.6377952755905512,
                    "duration": 0.1759529999999927
                },
                {
                    "name": "D#7",
                    "midi": 99,
                    "time": 367.91772300001026,
                    "velocity": 0.6141732283464567,
                    "duration": 0.1759529999999927
                },
                {
                    "name": "A#6",
                    "midi": 94,
                    "time": 367.91772300001026,
                    "velocity": 0.4881889763779528,
                    "duration": 0.1759529999999927
                },
                {
                    "name": "A#2",
                    "midi": 46,
                    "time": 368.1816525000103,
                    "velocity": 0.5984251968503937,
                    "duration": 0.08797650000002477
                },
                {
                    "name": "A#3",
                    "midi": 58,
                    "time": 368.1816525000103,
                    "velocity": 0.5984251968503937,
                    "duration": 0.08797650000002477
                },
                {
                    "name": "D#4",
                    "midi": 63,
                    "time": 368.2696290000103,
                    "velocity": 0.6456692913385826,
                    "duration": 0.3519059999999854
                },
                {
                    "name": "D#3",
                    "midi": 51,
                    "time": 368.2696290000103,
                    "velocity": 0.5905511811023622,
                    "duration": 0.1722873124999751
                },
                {
                    "name": "G3",
                    "midi": 55,
                    "time": 368.53355850001026,
                    "velocity": 0.4881889763779528,
                    "duration": 0.08797650000002477
                },
                {
                    "name": "A#3",
                    "midi": 58,
                    "time": 368.6215350000103,
                    "velocity": 0.41732283464566927,
                    "duration": 0.08797650000002477
                },
                {
                    "name": "D#4",
                    "midi": 63,
                    "time": 368.6215350000103,
                    "velocity": 0.41732283464566927,
                    "duration": 0.08797650000002477
                },
                {
                    "name": "G4",
                    "midi": 67,
                    "time": 368.6215350000103,
                    "velocity": 0.4881889763779528,
                    "duration": 0.08797650000002477
                },
                {
                    "name": "G4",
                    "midi": 67,
                    "time": 368.7095115000103,
                    "velocity": 0.44881889763779526,
                    "duration": 0.08797650000002477
                },
                {
                    "name": "G5",
                    "midi": 79,
                    "time": 368.79748800001033,
                    "velocity": 0.4881889763779528,
                    "duration": 0.08797650000002477
                },
                {
                    "name": "D#5",
                    "midi": 75,
                    "time": 368.79748800001033,
                    "velocity": 0.41732283464566927,
                    "duration": 0.08797650000002477
                },
                {
                    "name": "A#4",
                    "midi": 70,
                    "time": 368.79748800001033,
                    "velocity": 0.41732283464566927,
                    "duration": 0.08797650000002477
                },
                {
                    "name": "G5",
                    "midi": 79,
                    "time": 368.88546450001036,
                    "velocity": 0.4409448818897638,
                    "duration": 0.08797650000002477
                },
                {
                    "name": "G6",
                    "midi": 91,
                    "time": 368.9734410000104,
                    "velocity": 0.5275590551181102,
                    "duration": 0.08797650000002477
                },
                {
                    "name": "D#6",
                    "midi": 87,
                    "time": 368.9734410000104,
                    "velocity": 0.5275590551181102,
                    "duration": 0.08797650000002477
                },
                {
                    "name": "A#5",
                    "midi": 82,
                    "time": 368.9734410000104,
                    "velocity": 0.44881889763779526,
                    "duration": 0.08797650000002477
                },
                {
                    "name": "G5",
                    "midi": 79,
                    "time": 369.0614175000104,
                    "velocity": 0.47244094488188976,
                    "duration": 0.08797650000002477
                },
                {
                    "name": "G6",
                    "midi": 91,
                    "time": 369.14939400001043,
                    "velocity": 0.5511811023622047,
                    "duration": 0.08797650000002477
                },
                {
                    "name": "D#6",
                    "midi": 87,
                    "time": 369.14939400001043,
                    "velocity": 0.4566929133858268,
                    "duration": 0.08797650000002477
                },
                {
                    "name": "A#5",
                    "midi": 82,
                    "time": 369.14939400001043,
                    "velocity": 0.4566929133858268,
                    "duration": 0.08797650000002477
                },
                {
                    "name": "G6",
                    "midi": 91,
                    "time": 369.23737050001046,
                    "velocity": 0.4881889763779528,
                    "duration": 0.08797650000002477
                },
                {
                    "name": "G7",
                    "midi": 103,
                    "time": 369.3253470000105,
                    "velocity": 0.6377952755905512,
                    "duration": 0.1759529999999927
                },
                {
                    "name": "D#7",
                    "midi": 99,
                    "time": 369.3253470000105,
                    "velocity": 0.6141732283464567,
                    "duration": 0.1759529999999927
                },
                {
                    "name": "A#6",
                    "midi": 94,
                    "time": 369.3253470000105,
                    "velocity": 0.4881889763779528,
                    "duration": 0.1759529999999927
                },
                {
                    "name": "A#4",
                    "midi": 70,
                    "time": 369.67725300001047,
                    "velocity": 0.6456692913385826,
                    "duration": 0.5263927250000506
                },
                {
                    "name": "A#3",
                    "midi": 58,
                    "time": 369.67725300001047,
                    "velocity": 0.5748031496062992,
                    "duration": 0.439882500000067
                },
                {
                    "name": "G3",
                    "midi": 55,
                    "time": 369.9411825000105,
                    "velocity": 0.4881889763779528,
                    "duration": 0.08797650000002477
                },
                {
                    "name": "A#3",
                    "midi": 58,
                    "time": 370.0291590000105,
                    "velocity": 0.41732283464566927,
                    "duration": 0.1744867250000084
                },
                {
                    "name": "D#4",
                    "midi": 63,
                    "time": 370.0291590000105,
                    "velocity": 0.41732283464566927,
                    "duration": 0.08797650000002477
                },
                {
                    "name": "G4",
                    "midi": 67,
                    "time": 370.0291590000105,
                    "velocity": 0.4881889763779528,
                    "duration": 0.08797650000002477
                },
                {
                    "name": "G4",
                    "midi": 67,
                    "time": 370.11713550001053,
                    "velocity": 0.44881889763779526,
                    "duration": 0.08797649999996793
                },
                {
                    "name": "G5",
                    "midi": 79,
                    "time": 370.2051120000105,
                    "velocity": 0.4881889763779528,
                    "duration": 0.08797650000002477
                },
                {
                    "name": "D#5",
                    "midi": 75,
                    "time": 370.2051120000105,
                    "velocity": 0.41732283464566927,
                    "duration": 0.08797650000002477
                },
                {
                    "name": "A#4",
                    "midi": 70,
                    "time": 370.2051120000105,
                    "velocity": 0.41732283464566927,
                    "duration": 0.08797650000002477
                },
                {
                    "name": "G5",
                    "midi": 79,
                    "time": 370.2930885000105,
                    "velocity": 0.4409448818897638,
                    "duration": 0.08797650000002477
                },
                {
                    "name": "G6",
                    "midi": 91,
                    "time": 370.38106500001055,
                    "velocity": 0.5275590551181102,
                    "duration": 0.08797650000002477
                },
                {
                    "name": "D#6",
                    "midi": 87,
                    "time": 370.38106500001055,
                    "velocity": 0.5275590551181102,
                    "duration": 0.08797650000002477
                },
                {
                    "name": "A#5",
                    "midi": 82,
                    "time": 370.38106500001055,
                    "velocity": 0.44881889763779526,
                    "duration": 0.08797650000002477
                },
                {
                    "name": "G5",
                    "midi": 79,
                    "time": 370.4690415000106,
                    "velocity": 0.47244094488188976,
                    "duration": 0.08797650000002477
                },
                {
                    "name": "G6",
                    "midi": 91,
                    "time": 370.5570180000106,
                    "velocity": 0.5511811023622047,
                    "duration": 0.08797650000002477
                },
                {
                    "name": "D#6",
                    "midi": 87,
                    "time": 370.5570180000106,
                    "velocity": 0.4566929133858268,
                    "duration": 0.08797650000002477
                },
                {
                    "name": "A#5",
                    "midi": 82,
                    "time": 370.5570180000106,
                    "velocity": 0.4566929133858268,
                    "duration": 0.08797650000002477
                },
                {
                    "name": "G6",
                    "midi": 91,
                    "time": 370.6449945000106,
                    "velocity": 0.4881889763779528,
                    "duration": 0.08797650000002477
                },
                {
                    "name": "G7",
                    "midi": 103,
                    "time": 370.73297100001065,
                    "velocity": 0.6377952755905512,
                    "duration": 0.1759529999999927
                },
                {
                    "name": "D#7",
                    "midi": 99,
                    "time": 370.73297100001065,
                    "velocity": 0.6141732283464567,
                    "duration": 0.1759529999999927
                },
                {
                    "name": "A#6",
                    "midi": 94,
                    "time": 370.73297100001065,
                    "velocity": 0.4881889763779528,
                    "duration": 0.1759529999999927
                },
                {
                    "name": "G3",
                    "midi": 55,
                    "time": 370.99690050001067,
                    "velocity": 0.5984251968503937,
                    "duration": 0.08797650000002477
                },
                {
                    "name": "G4",
                    "midi": 67,
                    "time": 370.99690050001067,
                    "velocity": 0.5984251968503937,
                    "duration": 0.08797650000002477
                },
                {
                    "name": "G#4",
                    "midi": 68,
                    "time": 371.0848770000107,
                    "velocity": 0.6456692913385826,
                    "duration": 0.35190600000004224
                },
                {
                    "name": "G#3",
                    "midi": 56,
                    "time": 371.0848770000107,
                    "velocity": 0.5748031496062992,
                    "duration": 0.35190600000004224
                },
                {
                    "name": "F3",
                    "midi": 53,
                    "time": 371.3488065000107,
                    "velocity": 0.4881889763779528,
                    "duration": 0.08797650000002477
                },
                {
                    "name": "A#3",
                    "midi": 58,
                    "time": 371.43678300001073,
                    "velocity": 0.41732283464566927,
                    "duration": 0.08797650000002477
                },
                {
                    "name": "D4",
                    "midi": 62,
                    "time": 371.43678300001073,
                    "velocity": 0.41732283464566927,
                    "duration": 0.08797650000002477
                },
                {
                    "name": "F4",
                    "midi": 65,
                    "time": 371.43678300001073,
                    "velocity": 0.4881889763779528,
                    "duration": 0.08797650000002477
                },
                {
                    "name": "F4",
                    "midi": 65,
                    "time": 371.52475950001076,
                    "velocity": 0.44881889763779526,
                    "duration": 0.08797650000002477
                },
                {
                    "name": "F5",
                    "midi": 77,
                    "time": 371.6127360000108,
                    "velocity": 0.4881889763779528,
                    "duration": 0.08797650000002477
                },
                {
                    "name": "D5",
                    "midi": 74,
                    "time": 371.6127360000108,
                    "velocity": 0.41732283464566927,
                    "duration": 0.08797650000002477
                },
                {
                    "name": "A#4",
                    "midi": 70,
                    "time": 371.6127360000108,
                    "velocity": 0.41732283464566927,
                    "duration": 0.08797650000002477
                },
                {
                    "name": "F5",
                    "midi": 77,
                    "time": 371.7007125000108,
                    "velocity": 0.4409448818897638,
                    "duration": 0.08797650000002477
                },
                {
                    "name": "F6",
                    "midi": 89,
                    "time": 371.78868900001083,
                    "velocity": 0.5275590551181102,
                    "duration": 0.08797650000002477
                },
                {
                    "name": "D6",
                    "midi": 86,
                    "time": 371.78868900001083,
                    "velocity": 0.5275590551181102,
                    "duration": 0.08797650000002477
                },
                {
                    "name": "A#5",
                    "midi": 82,
                    "time": 371.78868900001083,
                    "velocity": 0.44881889763779526,
                    "duration": 0.08797650000002477
                },
                {
                    "name": "F5",
                    "midi": 77,
                    "time": 371.87666550001086,
                    "velocity": 0.47244094488188976,
                    "duration": 0.08797650000002477
                },
                {
                    "name": "F6",
                    "midi": 89,
                    "time": 371.9646420000109,
                    "velocity": 0.5511811023622047,
                    "duration": 0.08797650000002477
                },
                {
                    "name": "D6",
                    "midi": 86,
                    "time": 371.9646420000109,
                    "velocity": 0.4566929133858268,
                    "duration": 0.08797650000002477
                },
                {
                    "name": "A#5",
                    "midi": 82,
                    "time": 371.9646420000109,
                    "velocity": 0.4566929133858268,
                    "duration": 0.08797650000002477
                },
                {
                    "name": "F6",
                    "midi": 89,
                    "time": 372.0526185000109,
                    "velocity": 0.4881889763779528,
                    "duration": 0.08797650000002477
                },
                {
                    "name": "F7",
                    "midi": 101,
                    "time": 372.14059500001093,
                    "velocity": 0.6377952755905512,
                    "duration": 0.1759529999999927
                },
                {
                    "name": "D7",
                    "midi": 98,
                    "time": 372.14059500001093,
                    "velocity": 0.5826771653543307,
                    "duration": 0.1759529999999927
                },
                {
                    "name": "A#6",
                    "midi": 94,
                    "time": 372.14059500001093,
                    "velocity": 0.4881889763779528,
                    "duration": 0.1759529999999927
                },
                {
                    "name": "D#4",
                    "midi": 63,
                    "time": 372.4925010000109,
                    "velocity": 0.6456692913385826,
                    "duration": 0.3519059999999854
                },
                {
                    "name": "D#3",
                    "midi": 51,
                    "time": 372.4925010000109,
                    "velocity": 0.5748031496062992,
                    "duration": 0.1722873124999751
                },
                {
                    "name": "G3",
                    "midi": 55,
                    "time": 372.7564305000109,
                    "velocity": 0.4881889763779528,
                    "duration": 0.08797650000002477
                },
                {
                    "name": "A#3",
                    "midi": 58,
                    "time": 372.8444070000109,
                    "velocity": 0.41732283464566927,
                    "duration": 0.08797650000002477
                },
                {
                    "name": "D#4",
                    "midi": 63,
                    "time": 372.8444070000109,
                    "velocity": 0.4881889763779528,
                    "duration": 0.08797650000002477
                },
                {
                    "name": "G4",
                    "midi": 67,
                    "time": 372.9323835000109,
                    "velocity": 0.44881889763779526,
                    "duration": 0.08797650000002477
                },
                {
                    "name": "D#5",
                    "midi": 75,
                    "time": 373.02036000001095,
                    "velocity": 0.4881889763779528,
                    "duration": 0.08797650000002477
                },
                {
                    "name": "A#4",
                    "midi": 70,
                    "time": 373.02036000001095,
                    "velocity": 0.41732283464566927,
                    "duration": 0.08797650000002477
                },
                {
                    "name": "G5",
                    "midi": 79,
                    "time": 373.108336500011,
                    "velocity": 0.4409448818897638,
                    "duration": 0.08797650000002477
                },
                {
                    "name": "D#6",
                    "midi": 87,
                    "time": 373.196313000011,
                    "velocity": 0.5511811023622047,
                    "duration": 0.08797650000002477
                },
                {
                    "name": "A#5",
                    "midi": 82,
                    "time": 373.196313000011,
                    "velocity": 0.4566929133858268,
                    "duration": 0.08797650000002477
                },
                {
                    "name": "G5",
                    "midi": 79,
                    "time": 373.284289500011,
                    "velocity": 0.47244094488188976,
                    "duration": 0.08797650000002477
                },
                {
                    "name": "D#6",
                    "midi": 87,
                    "time": 373.37226600001105,
                    "velocity": 0.5984251968503937,
                    "duration": 0.08797650000002477
                },
                {
                    "name": "A#5",
                    "midi": 82,
                    "time": 373.37226600001105,
                    "velocity": 0.5039370078740157,
                    "duration": 0.08797650000002477
                },
                {
                    "name": "G6",
                    "midi": 91,
                    "time": 373.4602425000111,
                    "velocity": 0.4881889763779528,
                    "duration": 0.08797650000002477
                },
                {
                    "name": "D#7",
                    "midi": 99,
                    "time": 373.5482190000111,
                    "velocity": 0.6771653543307087,
                    "duration": 0.1759529999999927
                },
                {
                    "name": "A#6",
                    "midi": 94,
                    "time": 373.5482190000111,
                    "velocity": 0.5433070866141733,
                    "duration": 0.1759529999999927
                },
                {
                    "name": "D#5",
                    "midi": 75,
                    "time": 373.9881015000111,
                    "velocity": 0.47244094488188976,
                    "duration": 0.08797650000002477
                },
                {
                    "name": "D#6",
                    "midi": 87,
                    "time": 374.07607800001114,
                    "velocity": 0.4881889763779528,
                    "duration": 0.08797650000002477
                },
                {
                    "name": "G#5",
                    "midi": 80,
                    "time": 374.07607800001114,
                    "velocity": 0.4094488188976378,
                    "duration": 0.08797650000002477
                },
                {
                    "name": "D#6",
                    "midi": 87,
                    "time": 374.16405450001116,
                    "velocity": 0.5039370078740157,
                    "duration": 0.08797650000002477
                },
                {
                    "name": "D#7",
                    "midi": 99,
                    "time": 374.2520310000112,
                    "velocity": 0.5118110236220472,
                    "duration": 0.08797650000002477
                },
                {
                    "name": "G#6",
                    "midi": 92,
                    "time": 374.2520310000112,
                    "velocity": 0.4330708661417323,
                    "duration": 0.08797650000002477
                },
                {
                    "name": "D#6",
                    "midi": 87,
                    "time": 374.3400075000112,
                    "velocity": 0.47244094488188976,
                    "duration": 0.08797650000002477
                },
                {
                    "name": "D#7",
                    "midi": 99,
                    "time": 374.42798400001124,
                    "velocity": 0.5039370078740157,
                    "duration": 0.08797650000002477
                },
                {
                    "name": "G#6",
                    "midi": 92,
                    "time": 374.42798400001124,
                    "velocity": 0.4251968503937008,
                    "duration": 0.08797650000002477
                },
                {
                    "name": "D#6",
                    "midi": 87,
                    "time": 374.51596050001126,
                    "velocity": 0.47244094488188976,
                    "duration": 0.08797650000002477
                },
                {
                    "name": "A#4",
                    "midi": 70,
                    "time": 374.6919135000113,
                    "velocity": 0.47244094488188976,
                    "duration": 0.08797650000002477
                },
                {
                    "name": "A#5",
                    "midi": 82,
                    "time": 374.77989000001133,
                    "velocity": 0.49606299212598426,
                    "duration": 0.08797650000002477
                },
                {
                    "name": "D#5",
                    "midi": 75,
                    "time": 374.77989000001133,
                    "velocity": 0.41732283464566927,
                    "duration": 0.08797650000002477
                },
                {
                    "name": "A#5",
                    "midi": 82,
                    "time": 374.86786650001136,
                    "velocity": 0.47244094488188976,
                    "duration": 0.08797650000002477
                },
                {
                    "name": "A#6",
                    "midi": 94,
                    "time": 374.9558430000114,
                    "velocity": 0.5039370078740157,
                    "duration": 0.08797650000002477
                },
                {
                    "name": "D#6",
                    "midi": 87,
                    "time": 374.9558430000114,
                    "velocity": 0.4251968503937008,
                    "duration": 0.08797650000002477
                },
                {
                    "name": "A#5",
                    "midi": 82,
                    "time": 375.0438195000114,
                    "velocity": 0.47244094488188976,
                    "duration": 0.08797650000002477
                },
                {
                    "name": "A#6",
                    "midi": 94,
                    "time": 375.13179600001143,
                    "velocity": 0.5039370078740157,
                    "duration": 0.08797650000002477
                },
                {
                    "name": "D#6",
                    "midi": 87,
                    "time": 375.13179600001143,
                    "velocity": 0.4251968503937008,
                    "duration": 0.08797650000002477
                },
                {
                    "name": "A#5",
                    "midi": 82,
                    "time": 375.21977250001146,
                    "velocity": 0.47244094488188976,
                    "duration": 0.08797650000002477
                },
                {
                    "name": "A#4",
                    "midi": 70,
                    "time": 375.3957255000115,
                    "velocity": 0.47244094488188976,
                    "duration": 0.08797650000002477
                },
                {
                    "name": "A#5",
                    "midi": 82,
                    "time": 375.48370200001153,
                    "velocity": 0.49606299212598426,
                    "duration": 0.08797650000002477
                },
                {
                    "name": "D5",
                    "midi": 74,
                    "time": 375.48370200001153,
                    "velocity": 0.41732283464566927,
                    "duration": 0.08797650000002477
                },
                {
                    "name": "A#5",
                    "midi": 82,
                    "time": 375.57167850001156,
                    "velocity": 0.47244094488188976,
                    "duration": 0.08797650000002477
                },
                {
                    "name": "A#6",
                    "midi": 94,
                    "time": 375.6596550000116,
                    "velocity": 0.5039370078740157,
                    "duration": 0.08797650000002477
                },
                {
                    "name": "D6",
                    "midi": 86,
                    "time": 375.6596550000116,
                    "velocity": 0.4251968503937008,
                    "duration": 0.08797650000002477
                },
                {
                    "name": "A#5",
                    "midi": 82,
                    "time": 375.7476315000116,
                    "velocity": 0.47244094488188976,
                    "duration": 0.08797650000002477
                },
                {
                    "name": "A#6",
                    "midi": 94,
                    "time": 375.83560800001163,
                    "velocity": 0.5039370078740157,
                    "duration": 0.08797650000002477
                },
                {
                    "name": "D6",
                    "midi": 86,
                    "time": 375.83560800001163,
                    "velocity": 0.4251968503937008,
                    "duration": 0.08797650000002477
                },
                {
                    "name": "A#5",
                    "midi": 82,
                    "time": 375.92358450001166,
                    "velocity": 0.47244094488188976,
                    "duration": 0.08797650000002477
                },
                {
                    "name": "A#4",
                    "midi": 70,
                    "time": 376.0995375000117,
                    "velocity": 0.47244094488188976,
                    "duration": 0.08797650000002477
                },
                {
                    "name": "A#5",
                    "midi": 82,
                    "time": 376.18751400001173,
                    "velocity": 0.49606299212598426,
                    "duration": 0.08797650000002477
                },
                {
                    "name": "D#5",
                    "midi": 75,
                    "time": 376.18751400001173,
                    "velocity": 0.41732283464566927,
                    "duration": 0.08797650000002477
                },
                {
                    "name": "A#5",
                    "midi": 82,
                    "time": 376.27549050001176,
                    "velocity": 0.47244094488188976,
                    "duration": 0.08797650000002477
                },
                {
                    "name": "A#6",
                    "midi": 94,
                    "time": 376.3634670000118,
                    "velocity": 0.5039370078740157,
                    "duration": 0.08797650000002477
                },
                {
                    "name": "D#6",
                    "midi": 87,
                    "time": 376.3634670000118,
                    "velocity": 0.4251968503937008,
                    "duration": 0.08797650000002477
                },
                {
                    "name": "A#5",
                    "midi": 82,
                    "time": 376.4514435000118,
                    "velocity": 0.47244094488188976,
                    "duration": 0.08797650000002477
                },
                {
                    "name": "A#6",
                    "midi": 94,
                    "time": 376.53942000001183,
                    "velocity": 0.5039370078740157,
                    "duration": 0.08797650000002477
                },
                {
                    "name": "D#6",
                    "midi": 87,
                    "time": 376.53942000001183,
                    "velocity": 0.4251968503937008,
                    "duration": 0.08797650000002477
                },
                {
                    "name": "A#5",
                    "midi": 82,
                    "time": 376.62739650001186,
                    "velocity": 0.47244094488188976,
                    "duration": 0.08797650000002477
                },
                {
                    "name": "D#5",
                    "midi": 75,
                    "time": 376.8033495000119,
                    "velocity": 0.47244094488188976,
                    "duration": 0.08797650000002477
                },
                {
                    "name": "D#6",
                    "midi": 87,
                    "time": 376.89132600001193,
                    "velocity": 0.4881889763779528,
                    "duration": 0.08797650000002477
                },
                {
                    "name": "G#5",
                    "midi": 80,
                    "time": 376.89132600001193,
                    "velocity": 0.4094488188976378,
                    "duration": 0.08797650000002477
                },
                {
                    "name": "D#6",
                    "midi": 87,
                    "time": 376.97930250001195,
                    "velocity": 0.5039370078740157,
                    "duration": 0.08797650000002477
                },
                {
                    "name": "D#7",
                    "midi": 99,
                    "time": 377.067279000012,
                    "velocity": 0.5118110236220472,
                    "duration": 0.08797650000002477
                },
                {
                    "name": "G#6",
                    "midi": 92,
                    "time": 377.067279000012,
                    "velocity": 0.4330708661417323,
                    "duration": 0.08797650000002477
                },
                {
                    "name": "D#6",
                    "midi": 87,
                    "time": 377.155255500012,
                    "velocity": 0.47244094488188976,
                    "duration": 0.08797650000002477
                },
                {
                    "name": "D#7",
                    "midi": 99,
                    "time": 377.24323200001203,
                    "velocity": 0.5039370078740157,
                    "duration": 0.08797650000002477
                },
                {
                    "name": "G#6",
                    "midi": 92,
                    "time": 377.24323200001203,
                    "velocity": 0.4251968503937008,
                    "duration": 0.08797650000002477
                },
                {
                    "name": "D#6",
                    "midi": 87,
                    "time": 377.33120850001205,
                    "velocity": 0.47244094488188976,
                    "duration": 0.08797650000002477
                },
                {
                    "name": "A#4",
                    "midi": 70,
                    "time": 377.5071615000121,
                    "velocity": 0.47244094488188976,
                    "duration": 0.08797650000002477
                },
                {
                    "name": "A#5",
                    "midi": 82,
                    "time": 377.5951380000121,
                    "velocity": 0.49606299212598426,
                    "duration": 0.08797650000002477
                },
                {
                    "name": "D#5",
                    "midi": 75,
                    "time": 377.5951380000121,
                    "velocity": 0.41732283464566927,
                    "duration": 0.08797650000002477
                },
                {
                    "name": "A#5",
                    "midi": 82,
                    "time": 377.68311450001215,
                    "velocity": 0.47244094488188976,
                    "duration": 0.08797650000002477
                },
                {
                    "name": "A#6",
                    "midi": 94,
                    "time": 377.7710910000122,
                    "velocity": 0.5039370078740157,
                    "duration": 0.08797650000002477
                },
                {
                    "name": "D#6",
                    "midi": 87,
                    "time": 377.7710910000122,
                    "velocity": 0.4251968503937008,
                    "duration": 0.08797650000002477
                },
                {
                    "name": "A#5",
                    "midi": 82,
                    "time": 377.8590675000122,
                    "velocity": 0.47244094488188976,
                    "duration": 0.08797650000002477
                },
                {
                    "name": "A#6",
                    "midi": 94,
                    "time": 377.9470440000122,
                    "velocity": 0.5039370078740157,
                    "duration": 0.08797650000002477
                },
                {
                    "name": "D#6",
                    "midi": 87,
                    "time": 377.9470440000122,
                    "velocity": 0.4251968503937008,
                    "duration": 0.08797650000002477
                },
                {
                    "name": "A#5",
                    "midi": 82,
                    "time": 378.03502050001225,
                    "velocity": 0.47244094488188976,
                    "duration": 0.08797650000002477
                },
                {
                    "name": "A#4",
                    "midi": 70,
                    "time": 378.2109735000123,
                    "velocity": 0.47244094488188976,
                    "duration": 0.08797650000002477
                },
                {
                    "name": "A#5",
                    "midi": 82,
                    "time": 378.2989500000123,
                    "velocity": 0.49606299212598426,
                    "duration": 0.08797650000002477
                },
                {
                    "name": "D5",
                    "midi": 74,
                    "time": 378.2989500000123,
                    "velocity": 0.41732283464566927,
                    "duration": 0.08797650000002477
                },
                {
                    "name": "A#5",
                    "midi": 82,
                    "time": 378.38692650001235,
                    "velocity": 0.47244094488188976,
                    "duration": 0.08797650000002477
                },
                {
                    "name": "A#6",
                    "midi": 94,
                    "time": 378.4749030000124,
                    "velocity": 0.5039370078740157,
                    "duration": 0.08797650000002477
                },
                {
                    "name": "D6",
                    "midi": 86,
                    "time": 378.4749030000124,
                    "velocity": 0.4251968503937008,
                    "duration": 0.08797650000002477
                },
                {
                    "name": "A#5",
                    "midi": 82,
                    "time": 378.5628795000124,
                    "velocity": 0.47244094488188976,
                    "duration": 0.08797650000002477
                },
                {
                    "name": "A#6",
                    "midi": 94,
                    "time": 378.6508560000124,
                    "velocity": 0.5039370078740157,
                    "duration": 0.08797650000002477
                },
                {
                    "name": "D6",
                    "midi": 86,
                    "time": 378.6508560000124,
                    "velocity": 0.4251968503937008,
                    "duration": 0.08797650000002477
                },
                {
                    "name": "A#5",
                    "midi": 82,
                    "time": 378.73883250001245,
                    "velocity": 0.47244094488188976,
                    "duration": 0.08797650000002477
                },
                {
                    "name": "D#6",
                    "midi": 87,
                    "time": 378.8268090000125,
                    "velocity": 0.41732283464566927,
                    "duration": 0.08797650000002477
                },
                {
                    "name": "A#6",
                    "midi": 94,
                    "time": 378.8268090000125,
                    "velocity": 0.49606299212598426,
                    "duration": 0.08797650000002477
                },
                {
                    "name": "A#5",
                    "midi": 82,
                    "time": 379.1787150000125,
                    "velocity": 0.5905511811023622,
                    "duration": 0.08797650000002477
                },
                {
                    "name": "C#7",
                    "midi": 97,
                    "time": 379.26669150001254,
                    "velocity": 0.47244094488188976,
                    "duration": 0.08797650000002477
                },
                {
                    "name": "D#6",
                    "midi": 87,
                    "time": 379.35466800001257,
                    "velocity": 0.5275590551181102,
                    "duration": 0.08797650000002477
                },
                {
                    "name": "C#7",
                    "midi": 97,
                    "time": 379.4426445000126,
                    "velocity": 0.47244094488188976,
                    "duration": 0.08797650000002477
                },
                {
                    "name": "G#5",
                    "midi": 80,
                    "time": 379.5306210000126,
                    "velocity": 0.5669291338582677,
                    "duration": 0.08797650000002477
                },
                {
                    "name": "C7",
                    "midi": 96,
                    "time": 379.61859750001264,
                    "velocity": 0.44881889763779526,
                    "duration": 0.08797650000002477
                },
                {
                    "name": "D#6",
                    "midi": 87,
                    "time": 379.70657400001267,
                    "velocity": 0.44881889763779526,
                    "duration": 0.08797650000002477
                },
                {
                    "name": "C7",
                    "midi": 96,
                    "time": 379.7945505000127,
                    "velocity": 0.44881889763779526,
                    "duration": 0.08797650000002477
                },
                {
                    "name": "G5",
                    "midi": 79,
                    "time": 379.8825270000127,
                    "velocity": 0.5433070866141733,
                    "duration": 0.08797650000002477
                },
                {
                    "name": "A#6",
                    "midi": 94,
                    "time": 379.97050350001274,
                    "velocity": 0.4409448818897638,
                    "duration": 0.08797650000002477
                },
                {
                    "name": "F5",
                    "midi": 77,
                    "time": 380.05848000001276,
                    "velocity": 0.5275590551181102,
                    "duration": 0.08797650000002477
                },
                {
                    "name": "G#6",
                    "midi": 92,
                    "time": 380.1464565000128,
                    "velocity": 0.4409448818897638,
                    "duration": 0.08797650000002477
                },
                {
                    "name": "D#5",
                    "midi": 75,
                    "time": 380.2344330000128,
                    "velocity": 0.5275590551181102,
                    "duration": 0.08797650000002477
                },
                {
                    "name": "G6",
                    "midi": 91,
                    "time": 380.32240950001284,
                    "velocity": 0.4409448818897638,
                    "duration": 0.08797650000002477
                },
                {
                    "name": "D5",
                    "midi": 74,
                    "time": 380.41038600001286,
                    "velocity": 0.5196850393700787,
                    "duration": 0.08797650000002477
                },
                {
                    "name": "F#6",
                    "midi": 90,
                    "time": 380.4983625000129,
                    "velocity": 0.4409448818897638,
                    "duration": 0.08797650000002477
                },
                {
                    "name": "D#5",
                    "midi": 75,
                    "time": 380.5863390000129,
                    "velocity": 0.5275590551181102,
                    "duration": 0.08797650000002477
                },
                {
                    "name": "G6",
                    "midi": 91,
                    "time": 380.67431550001294,
                    "velocity": 0.4409448818897638,
                    "duration": 0.08797650000002477
                },
                {
                    "name": "E5",
                    "midi": 76,
                    "time": 380.76229200001296,
                    "velocity": 0.5354330708661418,
                    "duration": 0.08797650000002477
                },
                {
                    "name": "G6",
                    "midi": 91,
                    "time": 380.850268500013,
                    "velocity": 0.44881889763779526,
                    "duration": 0.08797650000002477
                },
                {
                    "name": "F5",
                    "midi": 77,
                    "time": 380.938245000013,
                    "velocity": 0.5275590551181102,
                    "duration": 0.08797650000002477
                },
                {
                    "name": "G#6",
                    "midi": 92,
                    "time": 381.02622150001304,
                    "velocity": 0.47244094488188976,
                    "duration": 0.08797650000002477
                },
                {
                    "name": "E5",
                    "midi": 76,
                    "time": 381.11419800001306,
                    "velocity": 0.5196850393700787,
                    "duration": 0.08797650000002477
                },
                {
                    "name": "G6",
                    "midi": 91,
                    "time": 381.2021745000131,
                    "velocity": 0.47244094488188976,
                    "duration": 0.08797650000002477
                },
                {
                    "name": "F5",
                    "midi": 77,
                    "time": 381.2901510000131,
                    "velocity": 0.5275590551181102,
                    "duration": 0.08797650000002477
                },
                {
                    "name": "G#6",
                    "midi": 92,
                    "time": 381.37812750001314,
                    "velocity": 0.44881889763779526,
                    "duration": 0.08797650000002477
                },
                {
                    "name": "F#5",
                    "midi": 78,
                    "time": 381.46610400001316,
                    "velocity": 0.5118110236220472,
                    "duration": 0.08797650000002477
                },
                {
                    "name": "A6",
                    "midi": 93,
                    "time": 381.5540805000132,
                    "velocity": 0.44881889763779526,
                    "duration": 0.08797650000002477
                },
                {
                    "name": "G5",
                    "midi": 79,
                    "time": 381.6420570000132,
                    "velocity": 0.5511811023622047,
                    "duration": 0.08797650000002477
                },
                {
                    "name": "A#6",
                    "midi": 94,
                    "time": 381.73003350001323,
                    "velocity": 0.4566929133858268,
                    "duration": 0.08797650000002477
                },
                {
                    "name": "D#6",
                    "midi": 87,
                    "time": 381.81801000001326,
                    "velocity": 0.4566929133858268,
                    "duration": 0.08797650000002477
                },
                {
                    "name": "A#6",
                    "midi": 94,
                    "time": 381.9059865000133,
                    "velocity": 0.4566929133858268,
                    "duration": 0.08797650000002477
                },
                {
                    "name": "A#5",
                    "midi": 82,
                    "time": 381.9939630000133,
                    "velocity": 0.5905511811023622,
                    "duration": 0.08797650000002477
                },
                {
                    "name": "C#7",
                    "midi": 97,
                    "time": 382.08193950001333,
                    "velocity": 0.47244094488188976,
                    "duration": 0.08797650000002477
                },
                {
                    "name": "D#6",
                    "midi": 87,
                    "time": 382.16991600001336,
                    "velocity": 0.5275590551181102,
                    "duration": 0.08797650000002477
                },
                {
                    "name": "C#7",
                    "midi": 97,
                    "time": 382.2578925000134,
                    "velocity": 0.47244094488188976,
                    "duration": 0.08797650000002477
                },
                {
                    "name": "G#5",
                    "midi": 80,
                    "time": 382.3458690000134,
                    "velocity": 0.5669291338582677,
                    "duration": 0.08797650000002477
                },
                {
                    "name": "C7",
                    "midi": 96,
                    "time": 382.43384550001343,
                    "velocity": 0.44881889763779526,
                    "duration": 0.08797650000002477
                },
                {
                    "name": "D#6",
                    "midi": 87,
                    "time": 382.52182200001346,
                    "velocity": 0.44881889763779526,
                    "duration": 0.08797650000002477
                },
                {
                    "name": "C7",
                    "midi": 96,
                    "time": 382.6097985000135,
                    "velocity": 0.44881889763779526,
                    "duration": 0.08797650000002477
                },
                {
                    "name": "G5",
                    "midi": 79,
                    "time": 382.6977750000135,
                    "velocity": 0.5433070866141733,
                    "duration": 0.08797650000002477
                },
                {
                    "name": "A#6",
                    "midi": 94,
                    "time": 382.78575150001353,
                    "velocity": 0.4409448818897638,
                    "duration": 0.08797650000002477
                },
                {
                    "name": "F5",
                    "midi": 77,
                    "time": 382.87372800001356,
                    "velocity": 0.5275590551181102,
                    "duration": 0.08797650000002477
                },
                {
                    "name": "G#6",
                    "midi": 92,
                    "time": 382.9617045000136,
                    "velocity": 0.4409448818897638,
                    "duration": 0.08797650000002477
                },
                {
                    "name": "D#5",
                    "midi": 75,
                    "time": 383.0496810000136,
                    "velocity": 0.5275590551181102,
                    "duration": 0.08797650000002477
                },
                {
                    "name": "G6",
                    "midi": 91,
                    "time": 383.13765750001363,
                    "velocity": 0.4409448818897638,
                    "duration": 0.08797650000002477
                },
                {
                    "name": "D5",
                    "midi": 74,
                    "time": 383.22563400001366,
                    "velocity": 0.5196850393700787,
                    "duration": 0.08797650000002477
                },
                {
                    "name": "F#6",
                    "midi": 90,
                    "time": 383.3136105000137,
                    "velocity": 0.4409448818897638,
                    "duration": 0.08797650000002477
                },
                {
                    "name": "D#5",
                    "midi": 75,
                    "time": 383.4015870000137,
                    "velocity": 0.5275590551181102,
                    "duration": 0.08797650000002477
                },
                {
                    "name": "G6",
                    "midi": 91,
                    "time": 383.48956350001373,
                    "velocity": 0.4409448818897638,
                    "duration": 0.08797650000002477
                },
                {
                    "name": "E5",
                    "midi": 76,
                    "time": 383.57754000001376,
                    "velocity": 0.5354330708661418,
                    "duration": 0.08797650000002477
                },
                {
                    "name": "G6",
                    "midi": 91,
                    "time": 383.6655165000138,
                    "velocity": 0.44881889763779526,
                    "duration": 0.08797650000002477
                },
                {
                    "name": "F5",
                    "midi": 77,
                    "time": 383.7534930000138,
                    "velocity": 0.5275590551181102,
                    "duration": 0.08797650000002477
                },
                {
                    "name": "G#6",
                    "midi": 92,
                    "time": 383.84146950001383,
                    "velocity": 0.47244094488188976,
                    "duration": 0.08797650000002477
                },
                {
                    "name": "E5",
                    "midi": 76,
                    "time": 383.92944600001385,
                    "velocity": 0.5196850393700787,
                    "duration": 0.08797650000002477
                },
                {
                    "name": "G6",
                    "midi": 91,
                    "time": 384.0174225000139,
                    "velocity": 0.47244094488188976,
                    "duration": 0.08797650000002477
                },
                {
                    "name": "F5",
                    "midi": 77,
                    "time": 384.1053990000139,
                    "velocity": 0.5275590551181102,
                    "duration": 0.08797650000002477
                },
                {
                    "name": "G#6",
                    "midi": 92,
                    "time": 384.19337550001393,
                    "velocity": 0.44881889763779526,
                    "duration": 0.08797650000002477
                },
                {
                    "name": "F#5",
                    "midi": 78,
                    "time": 384.28135200001395,
                    "velocity": 0.5118110236220472,
                    "duration": 0.08797650000002477
                },
                {
                    "name": "A6",
                    "midi": 93,
                    "time": 384.369328500014,
                    "velocity": 0.44881889763779526,
                    "duration": 0.08797650000002477
                },
                {
                    "name": "G5",
                    "midi": 79,
                    "time": 384.457305000014,
                    "velocity": 0.5511811023622047,
                    "duration": 0.08797650000002477
                },
                {
                    "name": "A#6",
                    "midi": 94,
                    "time": 384.545281500014,
                    "velocity": 0.4566929133858268,
                    "duration": 0.08797650000002477
                },
                {
                    "name": "D#6",
                    "midi": 87,
                    "time": 384.63325800001405,
                    "velocity": 0.4566929133858268,
                    "duration": 0.08797650000002477
                },
                {
                    "name": "A#6",
                    "midi": 94,
                    "time": 384.7212345000141,
                    "velocity": 0.4566929133858268,
                    "duration": 0.08797650000002477
                },
                {
                    "name": "A#5",
                    "midi": 82,
                    "time": 384.8092110000141,
                    "velocity": 0.5905511811023622,
                    "duration": 0.08797650000002477
                },
                {
                    "name": "C#7",
                    "midi": 97,
                    "time": 384.8971875000141,
                    "velocity": 0.47244094488188976,
                    "duration": 0.08797650000002477
                },
                {
                    "name": "D#6",
                    "midi": 87,
                    "time": 384.98516400001415,
                    "velocity": 0.5275590551181102,
                    "duration": 0.08797650000002477
                },
                {
                    "name": "C#7",
                    "midi": 97,
                    "time": 385.0731405000142,
                    "velocity": 0.47244094488188976,
                    "duration": 0.08797650000002477
                },
                {
                    "name": "G#5",
                    "midi": 80,
                    "time": 385.1611170000142,
                    "velocity": 0.5669291338582677,
                    "duration": 0.08797650000002477
                },
                {
                    "name": "C7",
                    "midi": 96,
                    "time": 385.2490935000142,
                    "velocity": 0.44881889763779526,
                    "duration": 0.08797650000002477
                },
                {
                    "name": "D#6",
                    "midi": 87,
                    "time": 385.33707000001425,
                    "velocity": 0.44881889763779526,
                    "duration": 0.08797650000002477
                },
                {
                    "name": "C7",
                    "midi": 96,
                    "time": 385.4250465000143,
                    "velocity": 0.44881889763779526,
                    "duration": 0.08797650000002477
                },
                {
                    "name": "G5",
                    "midi": 79,
                    "time": 385.5130230000143,
                    "velocity": 0.5433070866141733,
                    "duration": 0.08797650000002477
                },
                {
                    "name": "A#6",
                    "midi": 94,
                    "time": 385.6009995000143,
                    "velocity": 0.4409448818897638,
                    "duration": 0.08797650000002477
                },
                {
                    "name": "F5",
                    "midi": 77,
                    "time": 385.68897600001435,
                    "velocity": 0.5275590551181102,
                    "duration": 0.08797650000002477
                },
                {
                    "name": "G#6",
                    "midi": 92,
                    "time": 385.7769525000144,
                    "velocity": 0.4409448818897638,
                    "duration": 0.08797650000002477
                },
                {
                    "name": "D#5",
                    "midi": 75,
                    "time": 385.8649290000144,
                    "velocity": 0.5275590551181102,
                    "duration": 0.08797650000002477
                },
                {
                    "name": "G6",
                    "midi": 91,
                    "time": 385.9529055000144,
                    "velocity": 0.4409448818897638,
                    "duration": 0.08797650000002477
                },
                {
                    "name": "D5",
                    "midi": 74,
                    "time": 386.04088200001445,
                    "velocity": 0.5196850393700787,
                    "duration": 0.08797650000002477
                },
                {
                    "name": "F#6",
                    "midi": 90,
                    "time": 386.1288585000145,
                    "velocity": 0.4409448818897638,
                    "duration": 0.08797650000002477
                },
                {
                    "name": "D#5",
                    "midi": 75,
                    "time": 386.2168350000145,
                    "velocity": 0.5275590551181102,
                    "duration": 0.08797650000002477
                },
                {
                    "name": "G6",
                    "midi": 91,
                    "time": 386.3048115000145,
                    "velocity": 0.4409448818897638,
                    "duration": 0.08797650000002477
                },
                {
                    "name": "G5",
                    "midi": 79,
                    "time": 386.4807645000146,
                    "velocity": 0.3779527559055118,
                    "duration": 0.08797650000002477
                },
                {
                    "name": "G6",
                    "midi": 91,
                    "time": 386.4807645000146,
                    "velocity": 0.44881889763779526,
                    "duration": 0.08797650000002477
                },
                {
                    "name": "G#5",
                    "midi": 80,
                    "time": 386.6567175000146,
                    "velocity": 0.4015748031496063,
                    "duration": 0.08797650000002477
                },
                {
                    "name": "G#6",
                    "midi": 92,
                    "time": 386.6567175000146,
                    "velocity": 0.48031496062992124,
                    "duration": 0.08797650000002477
                },
                {
                    "name": "G5",
                    "midi": 79,
                    "time": 386.8326705000147,
                    "velocity": 0.3858267716535433,
                    "duration": 0.08797650000002477
                },
                {
                    "name": "G6",
                    "midi": 91,
                    "time": 386.8326705000147,
                    "velocity": 0.4566929133858268,
                    "duration": 0.08797650000002477
                },
                {
                    "name": "G#5",
                    "midi": 80,
                    "time": 387.0086235000147,
                    "velocity": 0.3937007874015748,
                    "duration": 0.08797650000002477
                },
                {
                    "name": "G#6",
                    "midi": 92,
                    "time": 387.0086235000147,
                    "velocity": 0.4645669291338583,
                    "duration": 0.08797650000002477
                },
                {
                    "name": "G5",
                    "midi": 79,
                    "time": 387.18457650001477,
                    "velocity": 0.36220472440944884,
                    "duration": 0.08797650000002477
                },
                {
                    "name": "G6",
                    "midi": 91,
                    "time": 387.18457650001477,
                    "velocity": 0.4330708661417323,
                    "duration": 0.08797650000002477
                },
                {
                    "name": "G#5",
                    "midi": 80,
                    "time": 387.3605295000148,
                    "velocity": 0.3937007874015748,
                    "duration": 0.08797650000002477
                },
                {
                    "name": "G#6",
                    "midi": 92,
                    "time": 387.3605295000148,
                    "velocity": 0.4645669291338583,
                    "duration": 0.08797650000002477
                },
                {
                    "name": "G5",
                    "midi": 79,
                    "time": 387.53648250001487,
                    "velocity": 0.3700787401574803,
                    "duration": 0.08797650000002477
                },
                {
                    "name": "G6",
                    "midi": 91,
                    "time": 387.53648250001487,
                    "velocity": 0.4409448818897638,
                    "duration": 0.08797650000002477
                },
                {
                    "name": "G#5",
                    "midi": 80,
                    "time": 387.7124355000149,
                    "velocity": 0.3858267716535433,
                    "duration": 0.08797650000002477
                },
                {
                    "name": "G#6",
                    "midi": 92,
                    "time": 387.7124355000149,
                    "velocity": 0.4566929133858268,
                    "duration": 0.08797650000002477
                },
                {
                    "name": "A#5",
                    "midi": 82,
                    "time": 387.88838850001497,
                    "velocity": 0.3700787401574803,
                    "duration": 0.08797650000002477
                },
                {
                    "name": "G5",
                    "midi": 79,
                    "time": 387.88838850001497,
                    "velocity": 0.3700787401574803,
                    "duration": 0.08797650000002477
                },
                {
                    "name": "G6",
                    "midi": 91,
                    "time": 387.88838850001497,
                    "velocity": 0.4409448818897638,
                    "duration": 0.08797650000002477
                },
                {
                    "name": "B5",
                    "midi": 83,
                    "time": 388.064341500015,
                    "velocity": 0.3937007874015748,
                    "duration": 0.08797650000002477
                },
                {
                    "name": "G#5",
                    "midi": 80,
                    "time": 388.064341500015,
                    "velocity": 0.3937007874015748,
                    "duration": 0.08797650000002477
                },
                {
                    "name": "G#6",
                    "midi": 92,
                    "time": 388.064341500015,
                    "velocity": 0.4645669291338583,
                    "duration": 0.08797650000002477
                },
                {
                    "name": "A#5",
                    "midi": 82,
                    "time": 388.24029450001507,
                    "velocity": 0.3543307086614173,
                    "duration": 0.08797650000002477
                },
                {
                    "name": "G5",
                    "midi": 79,
                    "time": 388.24029450001507,
                    "velocity": 0.3543307086614173,
                    "duration": 0.08797650000002477
                },
                {
                    "name": "G6",
                    "midi": 91,
                    "time": 388.24029450001507,
                    "velocity": 0.4251968503937008,
                    "duration": 0.08797650000002477
                },
                {
                    "name": "B5",
                    "midi": 83,
                    "time": 388.4162475000151,
                    "velocity": 0.47244094488188976,
                    "duration": 0.08797650000002477
                },
                {
                    "name": "G#5",
                    "midi": 80,
                    "time": 388.4162475000151,
                    "velocity": 0.4015748031496063,
                    "duration": 0.08797650000002477
                },
                {
                    "name": "G#6",
                    "midi": 92,
                    "time": 388.4162475000151,
                    "velocity": 0.47244094488188976,
                    "duration": 0.08797650000002477
                },
                {
                    "name": "A#5",
                    "midi": 82,
                    "time": 388.59220050001517,
                    "velocity": 0.3779527559055118,
                    "duration": 0.08797650000002477
                },
                {
                    "name": "G5",
                    "midi": 79,
                    "time": 388.59220050001517,
                    "velocity": 0.3779527559055118,
                    "duration": 0.08797650000002477
                },
                {
                    "name": "G6",
                    "midi": 91,
                    "time": 388.59220050001517,
                    "velocity": 0.44881889763779526,
                    "duration": 0.08797650000002477
                },
                {
                    "name": "B5",
                    "midi": 83,
                    "time": 388.7681535000152,
                    "velocity": 0.49606299212598426,
                    "duration": 0.08797650000002477
                },
                {
                    "name": "G#5",
                    "midi": 80,
                    "time": 388.7681535000152,
                    "velocity": 0.41732283464566927,
                    "duration": 0.08797650000002477
                },
                {
                    "name": "G#6",
                    "midi": 92,
                    "time": 388.7681535000152,
                    "velocity": 0.49606299212598426,
                    "duration": 0.08797650000002477
                },
                {
                    "name": "A#5",
                    "midi": 82,
                    "time": 388.94410650001527,
                    "velocity": 0.4015748031496063,
                    "duration": 0.08797650000002477
                },
                {
                    "name": "G5",
                    "midi": 79,
                    "time": 388.94410650001527,
                    "velocity": 0.4015748031496063,
                    "duration": 0.08797650000002477
                },
                {
                    "name": "G6",
                    "midi": 91,
                    "time": 388.94410650001527,
                    "velocity": 0.47244094488188976,
                    "duration": 0.08797650000002477
                },
                {
                    "name": "B5",
                    "midi": 83,
                    "time": 389.1200595000153,
                    "velocity": 0.4251968503937008,
                    "duration": 0.08797650000002477
                },
                {
                    "name": "G#5",
                    "midi": 80,
                    "time": 389.1200595000153,
                    "velocity": 0.4251968503937008,
                    "duration": 0.08797650000002477
                },
                {
                    "name": "G#6",
                    "midi": 92,
                    "time": 389.1200595000153,
                    "velocity": 0.49606299212598426,
                    "duration": 0.08797650000002477
                },
                {
                    "name": "E6",
                    "midi": 88,
                    "time": 389.29601250001537,
                    "velocity": 0.4094488188976378,
                    "duration": 0.08797650000002477
                },
                {
                    "name": "G5",
                    "midi": 79,
                    "time": 389.29601250001537,
                    "velocity": 0.4094488188976378,
                    "duration": 0.08797650000002477
                },
                {
                    "name": "G6",
                    "midi": 91,
                    "time": 389.29601250001537,
                    "velocity": 0.4881889763779528,
                    "duration": 0.08797650000002477
                },
                {
                    "name": "F6",
                    "midi": 89,
                    "time": 389.4719655000154,
                    "velocity": 0.5118110236220472,
                    "duration": 0.08797650000002477
                },
                {
                    "name": "G#5",
                    "midi": 80,
                    "time": 389.4719655000154,
                    "velocity": 0.4330708661417323,
                    "duration": 0.08797650000002477
                },
                {
                    "name": "G#6",
                    "midi": 92,
                    "time": 389.4719655000154,
                    "velocity": 0.5118110236220472,
                    "duration": 0.08797650000002477
                },
                {
                    "name": "E6",
                    "midi": 88,
                    "time": 389.64791850001546,
                    "velocity": 0.41732283464566927,
                    "duration": 0.08797650000002477
                },
                {
                    "name": "G5",
                    "midi": 79,
                    "time": 389.64791850001546,
                    "velocity": 0.41732283464566927,
                    "duration": 0.08797650000002477
                },
                {
                    "name": "G6",
                    "midi": 91,
                    "time": 389.64791850001546,
                    "velocity": 0.49606299212598426,
                    "duration": 0.08797650000002477
                },
                {
                    "name": "F6",
                    "midi": 89,
                    "time": 389.8238715000155,
                    "velocity": 0.4409448818897638,
                    "duration": 0.08797650000002477
                },
                {
                    "name": "G#5",
                    "midi": 80,
                    "time": 389.8238715000155,
                    "velocity": 0.4409448818897638,
                    "duration": 0.08797650000002477
                },
                {
                    "name": "G#6",
                    "midi": 92,
                    "time": 389.8238715000155,
                    "velocity": 0.5196850393700787,
                    "duration": 0.08797650000002477
                },
                {
                    "name": "E6",
                    "midi": 88,
                    "time": 389.99982450001556,
                    "velocity": 0.4251968503937008,
                    "duration": 0.08797650000002477
                },
                {
                    "name": "G5",
                    "midi": 79,
                    "time": 389.99982450001556,
                    "velocity": 0.4251968503937008,
                    "duration": 0.08797650000002477
                },
                {
                    "name": "G6",
                    "midi": 91,
                    "time": 389.99982450001556,
                    "velocity": 0.5039370078740157,
                    "duration": 0.08797650000002477
                },
                {
                    "name": "F6",
                    "midi": 89,
                    "time": 390.1757775000156,
                    "velocity": 0.5354330708661418,
                    "duration": 0.08797650000002477
                },
                {
                    "name": "G#5",
                    "midi": 80,
                    "time": 390.1757775000156,
                    "velocity": 0.44881889763779526,
                    "duration": 0.08797650000002477
                },
                {
                    "name": "G#6",
                    "midi": 92,
                    "time": 390.1757775000156,
                    "velocity": 0.5354330708661418,
                    "duration": 0.08797650000002477
                },
                {
                    "name": "E6",
                    "midi": 88,
                    "time": 390.35173050001566,
                    "velocity": 0.4330708661417323,
                    "duration": 0.08797650000002477
                },
                {
                    "name": "G5",
                    "midi": 79,
                    "time": 390.35173050001566,
                    "velocity": 0.4330708661417323,
                    "duration": 0.08797650000002477
                },
                {
                    "name": "G6",
                    "midi": 91,
                    "time": 390.35173050001566,
                    "velocity": 0.5118110236220472,
                    "duration": 0.08797650000002477
                },
                {
                    "name": "F6",
                    "midi": 89,
                    "time": 390.5276835000157,
                    "velocity": 0.4566929133858268,
                    "duration": 0.08797650000002477
                },
                {
                    "name": "G#5",
                    "midi": 80,
                    "time": 390.5276835000157,
                    "velocity": 0.4566929133858268,
                    "duration": 0.08797650000002477
                },
                {
                    "name": "G#6",
                    "midi": 92,
                    "time": 390.5276835000157,
                    "velocity": 0.5354330708661418,
                    "duration": 0.08797650000002477
                },
                {
                    "name": "E6",
                    "midi": 88,
                    "time": 390.70363650001576,
                    "velocity": 0.4409448818897638,
                    "duration": 0.08797650000002477
                },
                {
                    "name": "G5",
                    "midi": 79,
                    "time": 390.70363650001576,
                    "velocity": 0.4409448818897638,
                    "duration": 0.08797650000002477
                },
                {
                    "name": "G6",
                    "midi": 91,
                    "time": 390.70363650001576,
                    "velocity": 0.5196850393700787,
                    "duration": 0.08797650000002477
                },
                {
                    "name": "F6",
                    "midi": 89,
                    "time": 390.8795895000158,
                    "velocity": 0.5511811023622047,
                    "duration": 0.08797650000002477
                },
                {
                    "name": "G#5",
                    "midi": 80,
                    "time": 390.8795895000158,
                    "velocity": 0.4645669291338583,
                    "duration": 0.08797650000002477
                },
                {
                    "name": "G#6",
                    "midi": 92,
                    "time": 390.8795895000158,
                    "velocity": 0.5511811023622047,
                    "duration": 0.08797650000002477
                },
                {
                    "name": "E6",
                    "midi": 88,
                    "time": 391.05554250001586,
                    "velocity": 0.44881889763779526,
                    "duration": 0.08797650000002477
                },
                {
                    "name": "G5",
                    "midi": 79,
                    "time": 391.05554250001586,
                    "velocity": 0.44881889763779526,
                    "duration": 0.08797650000002477
                },
                {
                    "name": "G6",
                    "midi": 91,
                    "time": 391.05554250001586,
                    "velocity": 0.5275590551181102,
                    "duration": 0.08797650000002477
                },
                {
                    "name": "F6",
                    "midi": 89,
                    "time": 391.2314955000159,
                    "velocity": 0.48031496062992124,
                    "duration": 0.08797650000002477
                },
                {
                    "name": "G#5",
                    "midi": 80,
                    "time": 391.2314955000159,
                    "velocity": 0.48031496062992124,
                    "duration": 0.08797650000002477
                },
                {
                    "name": "G#6",
                    "midi": 92,
                    "time": 391.2314955000159,
                    "velocity": 0.5669291338582677,
                    "duration": 0.08797650000002477
                },
                {
                    "name": "E6",
                    "midi": 88,
                    "time": 391.40744850001596,
                    "velocity": 0.47244094488188976,
                    "duration": 0.08797650000002477
                },
                {
                    "name": "G5",
                    "midi": 79,
                    "time": 391.40744850001596,
                    "velocity": 0.47244094488188976,
                    "duration": 0.08797650000002477
                },
                {
                    "name": "G6",
                    "midi": 91,
                    "time": 391.40744850001596,
                    "velocity": 0.5590551181102362,
                    "duration": 0.08797650000002477
                },
                {
                    "name": "F6",
                    "midi": 89,
                    "time": 391.583401500016,
                    "velocity": 0.5984251968503937,
                    "duration": 0.08797650000002477
                },
                {
                    "name": "G#5",
                    "midi": 80,
                    "time": 391.583401500016,
                    "velocity": 0.5039370078740157,
                    "duration": 0.08797650000002477
                },
                {
                    "name": "G#6",
                    "midi": 92,
                    "time": 391.583401500016,
                    "velocity": 0.5984251968503937,
                    "duration": 0.08797650000002477
                },
                {
                    "name": "E6",
                    "midi": 88,
                    "time": 391.75935450001606,
                    "velocity": 0.4881889763779528,
                    "duration": 0.08797650000002477
                },
                {
                    "name": "G5",
                    "midi": 79,
                    "time": 391.75935450001606,
                    "velocity": 0.4881889763779528,
                    "duration": 0.08797650000002477
                },
                {
                    "name": "G6",
                    "midi": 91,
                    "time": 391.75935450001606,
                    "velocity": 0.5826771653543307,
                    "duration": 0.08797650000002477
                },
                {
                    "name": "F6",
                    "midi": 89,
                    "time": 391.9353075000161,
                    "velocity": 0.5196850393700787,
                    "duration": 0.08797650000002477
                },
                {
                    "name": "G#5",
                    "midi": 80,
                    "time": 391.9353075000161,
                    "velocity": 0.5196850393700787,
                    "duration": 0.08797650000002477
                },
                {
                    "name": "G#6",
                    "midi": 92,
                    "time": 391.9353075000161,
                    "velocity": 0.6141732283464567,
                    "duration": 0.08797650000002477
                },
                {
                    "name": "D#6",
                    "midi": 87,
                    "time": 392.11126050001616,
                    "velocity": 0.5118110236220472,
                    "duration": 0.08797650000002477
                },
                {
                    "name": "G5",
                    "midi": 79,
                    "time": 392.11126050001616,
                    "velocity": 0.5118110236220472,
                    "duration": 0.08797650000002477
                },
                {
                    "name": "G6",
                    "midi": 91,
                    "time": 392.11126050001616,
                    "velocity": 0.6062992125984252,
                    "duration": 0.08797650000002477
                },
                {
                    "name": "G#5",
                    "midi": 80,
                    "time": 392.1992370000162,
                    "velocity": 0.6062992125984252,
                    "duration": 0.26392950000001747
                },
                {
                    "name": "D6",
                    "midi": 86,
                    "time": 392.1992370000162,
                    "velocity": 0.6062992125984252,
                    "duration": 0.26392950000001747
                },
                {
                    "name": "G#6",
                    "midi": 92,
                    "time": 392.1992370000162,
                    "velocity": 0.7165354330708661,
                    "duration": 0.26392950000001747
                },
                {
                    "name": "A#6",
                    "midi": 94,
                    "time": 392.4631665000162,
                    "velocity": 0.6141732283464567,
                    "duration": 0.043988249999983964
                },
                {
                    "name": "G#6",
                    "midi": 92,
                    "time": 392.5071547500162,
                    "velocity": 0.6141732283464567,
                    "duration": 0.043988249999983964
                },
                {
                    "name": "G5",
                    "midi": 79,
                    "time": 392.55114300001617,
                    "velocity": 0.5826771653543307,
                    "duration": 0.08797650000002477
                },
                {
                    "name": "G6",
                    "midi": 91,
                    "time": 392.55114300001617,
                    "velocity": 0.6929133858267716,
                    "duration": 0.08797650000002477
                },
                {
                    "name": "F5",
                    "midi": 77,
                    "time": 392.7270960000162,
                    "velocity": 0.5433070866141733,
                    "duration": 0.08797650000002477
                },
                {
                    "name": "F6",
                    "midi": 89,
                    "time": 392.7270960000162,
                    "velocity": 0.6456692913385826,
                    "duration": 0.08797650000002477
                },
                {
                    "name": "A#5",
                    "midi": 82,
                    "time": 392.90304900001627,
                    "velocity": 0.5905511811023622,
                    "duration": 0.08797650000002477
                },
                {
                    "name": "A#6",
                    "midi": 94,
                    "time": 392.90304900001627,
                    "velocity": 0.7086614173228346,
                    "duration": 0.08797650000002477
                },
                {
                    "name": "D5",
                    "midi": 74,
                    "time": 393.0790020000163,
                    "velocity": 0.5354330708661418,
                    "duration": 0.08797650000002477
                },
                {
                    "name": "D6",
                    "midi": 86,
                    "time": 393.0790020000163,
                    "velocity": 0.6377952755905512,
                    "duration": 0.08797650000002477
                },
                {
                    "name": "D#5",
                    "midi": 75,
                    "time": 393.25495500001637,
                    "velocity": 0.5826771653543307,
                    "duration": 0.3519059999999854
                },
                {
                    "name": "D#6",
                    "midi": 87,
                    "time": 393.25495500001637,
                    "velocity": 0.6929133858267716,
                    "duration": 0.3519059999999854
                },
                {
                    "name": "G#5",
                    "midi": 80,
                    "time": 393.60686100001635,
                    "velocity": 0.6062992125984252,
                    "duration": 0.26392950000001747
                },
                {
                    "name": "D6",
                    "midi": 86,
                    "time": 393.60686100001635,
                    "velocity": 0.6062992125984252,
                    "duration": 0.26392950000001747
                },
                {
                    "name": "G#6",
                    "midi": 92,
                    "time": 393.60686100001635,
                    "velocity": 0.7165354330708661,
                    "duration": 0.26392950000001747
                },
                {
                    "name": "A#6",
                    "midi": 94,
                    "time": 393.87079050001637,
                    "velocity": 0.6141732283464567,
                    "duration": 0.043988249999983964
                },
                {
                    "name": "G#6",
                    "midi": 92,
                    "time": 393.91477875001635,
                    "velocity": 0.6141732283464567,
                    "duration": 0.043988249999983964
                },
                {
                    "name": "G5",
                    "midi": 79,
                    "time": 393.95876700001634,
                    "velocity": 0.5826771653543307,
                    "duration": 0.08797650000002477
                },
                {
                    "name": "G6",
                    "midi": 91,
                    "time": 393.95876700001634,
                    "velocity": 0.6929133858267716,
                    "duration": 0.08797650000002477
                },
                {
                    "name": "F5",
                    "midi": 77,
                    "time": 394.1347200000164,
                    "velocity": 0.5433070866141733,
                    "duration": 0.08797650000002477
                },
                {
                    "name": "F6",
                    "midi": 89,
                    "time": 394.1347200000164,
                    "velocity": 0.6456692913385826,
                    "duration": 0.08797650000002477
                },
                {
                    "name": "A#5",
                    "midi": 82,
                    "time": 394.31067300001644,
                    "velocity": 0.5905511811023622,
                    "duration": 0.08797650000002477
                },
                {
                    "name": "A#6",
                    "midi": 94,
                    "time": 394.31067300001644,
                    "velocity": 0.7086614173228346,
                    "duration": 0.08797650000002477
                },
                {
                    "name": "D5",
                    "midi": 74,
                    "time": 394.4866260000165,
                    "velocity": 0.5354330708661418,
                    "duration": 0.08797650000002477
                },
                {
                    "name": "D6",
                    "midi": 86,
                    "time": 394.4866260000165,
                    "velocity": 0.6377952755905512,
                    "duration": 0.08797650000002477
                },
                {
                    "name": "D#5",
                    "midi": 75,
                    "time": 394.66257900001654,
                    "velocity": 0.5826771653543307,
                    "duration": 0.3519059999999854
                },
                {
                    "name": "D#6",
                    "midi": 87,
                    "time": 394.66257900001654,
                    "velocity": 0.6929133858267716,
                    "duration": 0.3519059999999854
                },
                {
                    "name": "F3",
                    "midi": 53,
                    "time": 395.1904380000165,
                    "velocity": 0.48031496062992124,
                    "duration": 0.08797650000002477
                },
                {
                    "name": "A3",
                    "midi": 57,
                    "time": 395.1904380000165,
                    "velocity": 0.48031496062992124,
                    "duration": 0.08797650000002477
                },
                {
                    "name": "D#4",
                    "midi": 63,
                    "time": 395.1904380000165,
                    "velocity": 0.5669291338582677,
                    "duration": 0.08797650000002477
                },
                {
                    "name": "F4",
                    "midi": 65,
                    "time": 395.1904380000165,
                    "velocity": 0.5669291338582677,
                    "duration": 0.08797650000002477
                },
                {
                    "name": "A#3",
                    "midi": 58,
                    "time": 395.36639100001656,
                    "velocity": 0.49606299212598426,
                    "duration": 0.08797650000002477
                },
                {
                    "name": "F3",
                    "midi": 53,
                    "time": 395.36639100001656,
                    "velocity": 0.49606299212598426,
                    "duration": 0.08797650000002477
                },
                {
                    "name": "D4",
                    "midi": 62,
                    "time": 395.36639100001656,
                    "velocity": 0.5905511811023622,
                    "duration": 0.08797650000002477
                },
                {
                    "name": "F4",
                    "midi": 65,
                    "time": 395.36639100001656,
                    "velocity": 0.5905511811023622,
                    "duration": 0.08797650000002477
                },
                {
                    "name": "D6",
                    "midi": 86,
                    "time": 395.8942500000166,
                    "velocity": 0.6062992125984252,
                    "duration": 0.1759529999999927
                },
                {
                    "name": "A#5",
                    "midi": 82,
                    "time": 395.8942500000166,
                    "velocity": 0.6062992125984252,
                    "duration": 0.1759529999999927
                },
                {
                    "name": "D5",
                    "midi": 74,
                    "time": 395.8942500000166,
                    "velocity": 0.5039370078740157,
                    "duration": 0.1759529999999927
                },
                {
                    "name": "F5",
                    "midi": 77,
                    "time": 395.8942500000166,
                    "velocity": 0.5039370078740157,
                    "duration": 0.1759529999999927
                },
                {
                    "name": "D7",
                    "midi": 98,
                    "time": 396.2461560000166,
                    "velocity": 0.6062992125984252,
                    "duration": 0.08797650000002477
                },
                {
                    "name": "A#6",
                    "midi": 94,
                    "time": 396.2461560000166,
                    "velocity": 0.6062992125984252,
                    "duration": 0.08797650000002477
                },
                {
                    "name": "F6",
                    "midi": 89,
                    "time": 396.2461560000166,
                    "velocity": 0.5039370078740157,
                    "duration": 0.08797650000002477
                },
                {
                    "name": "D6",
                    "midi": 86,
                    "time": 396.2461560000166,
                    "velocity": 0.5039370078740157,
                    "duration": 0.08797650000002477
                },
                {
                    "name": "G6",
                    "midi": 91,
                    "time": 396.5980620000166,
                    "velocity": 0.6062992125984252,
                    "duration": 0.08797650000002477
                },
                {
                    "name": "D#6",
                    "midi": 87,
                    "time": 396.5980620000166,
                    "velocity": 0.6062992125984252,
                    "duration": 0.08797650000002477
                },
                {
                    "name": "G5",
                    "midi": 79,
                    "time": 396.5980620000166,
                    "velocity": 0.5039370078740157,
                    "duration": 0.08797650000002477
                },
                {
                    "name": "A#5",
                    "midi": 82,
                    "time": 396.5980620000166,
                    "velocity": 0.5039370078740157,
                    "duration": 0.08797650000002477
                },
                {
                    "name": "G7",
                    "midi": 103,
                    "time": 396.94996800001667,
                    "velocity": 0.6062992125984252,
                    "duration": 0.1759529999999927
                },
                {
                    "name": "D#7",
                    "midi": 99,
                    "time": 396.94996800001667,
                    "velocity": 0.6062992125984252,
                    "duration": 0.1759529999999927
                },
                {
                    "name": "A#6",
                    "midi": 94,
                    "time": 396.94996800001667,
                    "velocity": 0.5039370078740157,
                    "duration": 0.1759529999999927
                },
                {
                    "name": "G6",
                    "midi": 91,
                    "time": 396.94996800001667,
                    "velocity": 0.5039370078740157,
                    "duration": 0.1759529999999927
                },
                {
                    "name": "D5",
                    "midi": 74,
                    "time": 397.30187400001665,
                    "velocity": 0.6062992125984252,
                    "duration": 0.1759529999999927
                },
                {
                    "name": "A#4",
                    "midi": 70,
                    "time": 397.30187400001665,
                    "velocity": 0.6062992125984252,
                    "duration": 0.1759529999999927
                },
                {
                    "name": "D4",
                    "midi": 62,
                    "time": 397.30187400001665,
                    "velocity": 0.5039370078740157,
                    "duration": 0.1759529999999927
                },
                {
                    "name": "F4",
                    "midi": 65,
                    "time": 397.30187400001665,
                    "velocity": 0.5039370078740157,
                    "duration": 0.1759529999999927
                },
                {
                    "name": "D6",
                    "midi": 86,
                    "time": 397.65378000001664,
                    "velocity": 0.6062992125984252,
                    "duration": 0.08797650000002477
                },
                {
                    "name": "A#5",
                    "midi": 82,
                    "time": 397.65378000001664,
                    "velocity": 0.6062992125984252,
                    "duration": 0.08797650000002477
                },
                {
                    "name": "F5",
                    "midi": 77,
                    "time": 397.65378000001664,
                    "velocity": 0.5039370078740157,
                    "duration": 0.08797650000002477
                },
                {
                    "name": "D5",
                    "midi": 74,
                    "time": 397.65378000001664,
                    "velocity": 0.5039370078740157,
                    "duration": 0.08797650000002477
                },
                {
                    "name": "G5",
                    "midi": 79,
                    "time": 398.0056860000167,
                    "velocity": 0.6062992125984252,
                    "duration": 0.08797650000002477
                },
                {
                    "name": "D#5",
                    "midi": 75,
                    "time": 398.0056860000167,
                    "velocity": 0.6062992125984252,
                    "duration": 0.08797650000002477
                },
                {
                    "name": "G4",
                    "midi": 67,
                    "time": 398.0056860000167,
                    "velocity": 0.5039370078740157,
                    "duration": 0.08797650000002477
                },
                {
                    "name": "A#4",
                    "midi": 70,
                    "time": 398.0056860000167,
                    "velocity": 0.5039370078740157,
                    "duration": 0.08797650000002477
                },
                {
                    "name": "G6",
                    "midi": 91,
                    "time": 398.3575920000167,
                    "velocity": 0.6062992125984252,
                    "duration": 0.1759529999999927
                },
                {
                    "name": "D#6",
                    "midi": 87,
                    "time": 398.3575920000167,
                    "velocity": 0.6062992125984252,
                    "duration": 0.1759529999999927
                },
                {
                    "name": "A#5",
                    "midi": 82,
                    "time": 398.3575920000167,
                    "velocity": 0.5039370078740157,
                    "duration": 0.1759529999999927
                },
                {
                    "name": "G5",
                    "midi": 79,
                    "time": 398.3575920000167,
                    "velocity": 0.5039370078740157,
                    "duration": 0.1759529999999927
                },
                {
                    "name": "F3",
                    "midi": 53,
                    "time": 398.7094980000167,
                    "velocity": 0.48031496062992124,
                    "duration": 0.08797650000002477
                },
                {
                    "name": "A3",
                    "midi": 57,
                    "time": 398.7094980000167,
                    "velocity": 0.48031496062992124,
                    "duration": 0.08797650000002477
                },
                {
                    "name": "D#4",
                    "midi": 63,
                    "time": 398.7094980000167,
                    "velocity": 0.5669291338582677,
                    "duration": 0.08797650000002477
                },
                {
                    "name": "F4",
                    "midi": 65,
                    "time": 398.7094980000167,
                    "velocity": 0.5669291338582677,
                    "duration": 0.08797650000002477
                },
                {
                    "name": "F3",
                    "midi": 53,
                    "time": 398.88545100001676,
                    "velocity": 0.49606299212598426,
                    "duration": 0.08797650000002477
                },
                {
                    "name": "D4",
                    "midi": 62,
                    "time": 398.88545100001676,
                    "velocity": 0.5905511811023622,
                    "duration": 0.08797650000002477
                },
                {
                    "name": "F4",
                    "midi": 65,
                    "time": 398.88545100001676,
                    "velocity": 0.5905511811023622,
                    "duration": 0.08797650000002477
                },
                {
                    "name": "A#3",
                    "midi": 58,
                    "time": 398.8883835500168,
                    "velocity": 0.49606299212598426,
                    "duration": 0.08797650000002477
                },
                {
                    "name": "C#6",
                    "midi": 85,
                    "time": 399.2373570000168,
                    "velocity": 0.6062992125984252,
                    "duration": 0.3519059999999854
                },
                {
                    "name": "F5",
                    "midi": 77,
                    "time": 399.2373570000168,
                    "velocity": 0.6062992125984252,
                    "duration": 0.3519059999999854
                },
                {
                    "name": "A#5",
                    "midi": 82,
                    "time": 399.2373570000168,
                    "velocity": 0.6062992125984252,
                    "duration": 0.3519059999999854
                },
                {
                    "name": "F6",
                    "midi": 89,
                    "time": 399.2395564125168,
                    "velocity": 0.7165354330708661,
                    "duration": 0.3519059999999854
                },
                {
                    "name": "E5",
                    "midi": 76,
                    "time": 399.5892630000168,
                    "velocity": 0.5826771653543307,
                    "duration": 0.08797649999996793
                },
                {
                    "name": "E6",
                    "midi": 88,
                    "time": 399.5892630000168,
                    "velocity": 0.6929133858267716,
                    "duration": 0.08797649999996793
                },
                {
                    "name": "F5",
                    "midi": 77,
                    "time": 399.7652160000168,
                    "velocity": 0.5433070866141733,
                    "duration": 0.08797650000002477
                },
                {
                    "name": "F6",
                    "midi": 89,
                    "time": 399.7652160000168,
                    "velocity": 0.6456692913385826,
                    "duration": 0.08797650000002477
                },
                {
                    "name": "G6",
                    "midi": 91,
                    "time": 399.9411690000168,
                    "velocity": 0.7165354330708661,
                    "duration": 0.3519059999999854
                },
                {
                    "name": "G5",
                    "midi": 79,
                    "time": 399.9411690000168,
                    "velocity": 0.6062992125984252,
                    "duration": 0.3519059999999854
                },
                {
                    "name": "A#5",
                    "midi": 82,
                    "time": 399.9411690000168,
                    "velocity": 0.6062992125984252,
                    "duration": 0.3519059999999854
                },
                {
                    "name": "A#5",
                    "midi": 82,
                    "time": 400.2930750000168,
                    "velocity": 0.5826771653543307,
                    "duration": 0.3519059999999854
                },
                {
                    "name": "F5",
                    "midi": 77,
                    "time": 400.2930750000168,
                    "velocity": 0.5826771653543307,
                    "duration": 0.3519059999999854
                },
                {
                    "name": "F6",
                    "midi": 89,
                    "time": 400.2930750000168,
                    "velocity": 0.6929133858267716,
                    "duration": 0.3519059999999854
                },
                {
                    "name": "F3",
                    "midi": 53,
                    "time": 400.8209340000168,
                    "velocity": 0.48031496062992124,
                    "duration": 0.08797650000002477
                },
                {
                    "name": "A3",
                    "midi": 57,
                    "time": 400.8209340000168,
                    "velocity": 0.48031496062992124,
                    "duration": 0.08797650000002477
                },
                {
                    "name": "D#4",
                    "midi": 63,
                    "time": 400.8209340000168,
                    "velocity": 0.5669291338582677,
                    "duration": 0.08797650000002477
                },
                {
                    "name": "F4",
                    "midi": 65,
                    "time": 400.8209340000168,
                    "velocity": 0.5669291338582677,
                    "duration": 0.08797650000002477
                },
                {
                    "name": "F3",
                    "midi": 53,
                    "time": 400.99688700001684,
                    "velocity": 0.49606299212598426,
                    "duration": 0.08797650000002477
                },
                {
                    "name": "D4",
                    "midi": 62,
                    "time": 400.99688700001684,
                    "velocity": 0.5905511811023622,
                    "duration": 0.08797650000002477
                },
                {
                    "name": "F4",
                    "midi": 65,
                    "time": 400.99688700001684,
                    "velocity": 0.5905511811023622,
                    "duration": 0.08797650000002477
                },
                {
                    "name": "A#3",
                    "midi": 58,
                    "time": 400.99981955001687,
                    "velocity": 0.49606299212598426,
                    "duration": 0.08797650000002477
                },
                {
                    "name": "A#5",
                    "midi": 82,
                    "time": 401.3487930000169,
                    "velocity": 0.5354330708661418,
                    "duration": 0.11730199999999513
                },
                {
                    "name": "G5",
                    "midi": 79,
                    "time": 401.3487930000169,
                    "velocity": 0.5354330708661418,
                    "duration": 0.11730199999999513
                },
                {
                    "name": "G6",
                    "midi": 91,
                    "time": 401.3487930000169,
                    "velocity": 0.6377952755905512,
                    "duration": 0.11730199999999513
                },
                {
                    "name": "F5",
                    "midi": 77,
                    "time": 401.4660950000169,
                    "velocity": 0.44881889763779526,
                    "duration": 0.11730199999999513
                },
                {
                    "name": "F6",
                    "midi": 89,
                    "time": 401.4660950000169,
                    "velocity": 0.5354330708661418,
                    "duration": 0.11730199999999513
                },
                {
                    "name": "E5",
                    "midi": 76,
                    "time": 401.5833970000169,
                    "velocity": 0.44881889763779526,
                    "duration": 0.11730199999999513
                },
                {
                    "name": "E6",
                    "midi": 88,
                    "time": 401.5833970000169,
                    "velocity": 0.5354330708661418,
                    "duration": 0.11730199999999513
                },
                {
                    "name": "D#5",
                    "midi": 75,
                    "time": 401.70069900001687,
                    "velocity": 0.49606299212598426,
                    "duration": 0.11730199999999513
                },
                {
                    "name": "D#6",
                    "midi": 87,
                    "time": 401.70069900001687,
                    "velocity": 0.5905511811023622,
                    "duration": 0.11730199999999513
                },
                {
                    "name": "D5",
                    "midi": 74,
                    "time": 401.81800100001686,
                    "velocity": 0.4645669291338583,
                    "duration": 0.11730199999999513
                },
                {
                    "name": "D6",
                    "midi": 86,
                    "time": 401.81800100001686,
                    "velocity": 0.5511811023622047,
                    "duration": 0.11730199999999513
                },
                {
                    "name": "C#5",
                    "midi": 73,
                    "time": 401.93530300001686,
                    "velocity": 0.4645669291338583,
                    "duration": 0.11730199999999513
                },
                {
                    "name": "C#6",
                    "midi": 85,
                    "time": 401.93530300001686,
                    "velocity": 0.5511811023622047,
                    "duration": 0.11730199999999513
                },
                {
                    "name": "C5",
                    "midi": 72,
                    "time": 402.05260500001685,
                    "velocity": 0.5590551181102362,
                    "duration": 0.08797650000002477
                },
                {
                    "name": "C6",
                    "midi": 84,
                    "time": 402.05260500001685,
                    "velocity": 0.6614173228346457,
                    "duration": 0.08797650000002477
                },
                {
                    "name": "C6",
                    "midi": 84,
                    "time": 402.2285580000169,
                    "velocity": 0.5039370078740157,
                    "duration": 0.08797650000002477
                },
                {
                    "name": "C7",
                    "midi": 96,
                    "time": 402.2285580000169,
                    "velocity": 0.6062992125984252,
                    "duration": 0.08797650000002477
                },
                {
                    "name": "C5",
                    "midi": 72,
                    "time": 402.40451100001695,
                    "velocity": 0.5511811023622047,
                    "duration": 0.08797650000002477
                },
                {
                    "name": "C6",
                    "midi": 84,
                    "time": 402.40451100001695,
                    "velocity": 0.6535433070866141,
                    "duration": 0.08797650000002477
                },
                {
                    "name": "C6",
                    "midi": 84,
                    "time": 402.580464000017,
                    "velocity": 0.5039370078740157,
                    "duration": 0.08797650000002477
                },
                {
                    "name": "C7",
                    "midi": 96,
                    "time": 402.580464000017,
                    "velocity": 0.6062992125984252,
                    "duration": 0.08797650000002477
                },
                {
                    "name": "F3",
                    "midi": 53,
                    "time": 402.93237000001704,
                    "velocity": 0.48031496062992124,
                    "duration": 0.08797650000002477
                },
                {
                    "name": "A3",
                    "midi": 57,
                    "time": 402.93237000001704,
                    "velocity": 0.48031496062992124,
                    "duration": 0.08797650000002477
                },
                {
                    "name": "D#4",
                    "midi": 63,
                    "time": 402.93237000001704,
                    "velocity": 0.5669291338582677,
                    "duration": 0.08797650000002477
                },
                {
                    "name": "F4",
                    "midi": 65,
                    "time": 402.93237000001704,
                    "velocity": 0.5669291338582677,
                    "duration": 0.08797650000002477
                },
                {
                    "name": "F3",
                    "midi": 53,
                    "time": 403.1083230000171,
                    "velocity": 0.49606299212598426,
                    "duration": 0.08797650000002477
                },
                {
                    "name": "D4",
                    "midi": 62,
                    "time": 403.1083230000171,
                    "velocity": 0.5905511811023622,
                    "duration": 0.08797650000002477
                },
                {
                    "name": "F4",
                    "midi": 65,
                    "time": 403.1083230000171,
                    "velocity": 0.5905511811023622,
                    "duration": 0.08797650000002477
                },
                {
                    "name": "A#3",
                    "midi": 58,
                    "time": 403.1112555500171,
                    "velocity": 0.49606299212598426,
                    "duration": 0.08797650000002477
                },
                {
                    "name": "A#5",
                    "midi": 82,
                    "time": 403.63618200001713,
                    "velocity": 0.6456692913385826,
                    "duration": 0.08797650000002477
                },
                {
                    "name": "C#5",
                    "midi": 73,
                    "time": 403.63618200001713,
                    "velocity": 0.5433070866141733,
                    "duration": 0.08797650000002477
                },
                {
                    "name": "A#4",
                    "midi": 70,
                    "time": 403.63618200001713,
                    "velocity": 0.5433070866141733,
                    "duration": 0.08797650000002477
                },
                {
                    "name": "A#6",
                    "midi": 94,
                    "time": 403.98808800001717,
                    "velocity": 0.6377952755905512,
                    "duration": 0.08797650000002477
                },
                {
                    "name": "C#6",
                    "midi": 85,
                    "time": 403.98808800001717,
                    "velocity": 0.5354330708661418,
                    "duration": 0.08797650000002477
                },
                {
                    "name": "A#5",
                    "midi": 82,
                    "time": 403.98808800001717,
                    "velocity": 0.5354330708661418,
                    "duration": 0.08797650000002477
                },
                {
                    "name": "A#5",
                    "midi": 82,
                    "time": 404.3399940000172,
                    "velocity": 0.6456692913385826,
                    "duration": 0.08797650000002477
                },
                {
                    "name": "D#5",
                    "midi": 75,
                    "time": 404.3399940000172,
                    "velocity": 0.5433070866141733,
                    "duration": 0.08797650000002477
                },
                {
                    "name": "A#4",
                    "midi": 70,
                    "time": 404.3399940000172,
                    "velocity": 0.5433070866141733,
                    "duration": 0.08797650000002477
                },
                {
                    "name": "A#6",
                    "midi": 94,
                    "time": 404.69190000001726,
                    "velocity": 0.6377952755905512,
                    "duration": 0.08797650000002477
                },
                {
                    "name": "C#6",
                    "midi": 85,
                    "time": 404.69190000001726,
                    "velocity": 0.5354330708661418,
                    "duration": 0.08797650000002477
                },
                {
                    "name": "A#5",
                    "midi": 82,
                    "time": 404.69190000001726,
                    "velocity": 0.5354330708661418,
                    "duration": 0.08797650000002477
                },
                {
                    "name": "F3",
                    "midi": 53,
                    "time": 405.0438060000173,
                    "velocity": 0.48031496062992124,
                    "duration": 0.08797650000002477
                },
                {
                    "name": "A3",
                    "midi": 57,
                    "time": 405.0438060000173,
                    "velocity": 0.48031496062992124,
                    "duration": 0.08797650000002477
                },
                {
                    "name": "D#4",
                    "midi": 63,
                    "time": 405.0438060000173,
                    "velocity": 0.5669291338582677,
                    "duration": 0.08797650000002477
                },
                {
                    "name": "F4",
                    "midi": 65,
                    "time": 405.0438060000173,
                    "velocity": 0.5669291338582677,
                    "duration": 0.08797650000002477
                },
                {
                    "name": "F3",
                    "midi": 53,
                    "time": 405.21975900001735,
                    "velocity": 0.49606299212598426,
                    "duration": 0.08797650000002477
                },
                {
                    "name": "D4",
                    "midi": 62,
                    "time": 405.21975900001735,
                    "velocity": 0.5905511811023622,
                    "duration": 0.08797650000002477
                },
                {
                    "name": "F4",
                    "midi": 65,
                    "time": 405.21975900001735,
                    "velocity": 0.5905511811023622,
                    "duration": 0.08797650000002477
                },
                {
                    "name": "A#3",
                    "midi": 58,
                    "time": 405.2226915500174,
                    "velocity": 0.49606299212598426,
                    "duration": 0.08797650000002477
                },
                {
                    "name": "C#5",
                    "midi": 73,
                    "time": 405.7476180000174,
                    "velocity": 0.5433070866141733,
                    "duration": 0.08797650000002477
                },
                {
                    "name": "A#4",
                    "midi": 70,
                    "time": 405.7476180000174,
                    "velocity": 0.5433070866141733,
                    "duration": 0.08797650000002477
                },
                {
                    "name": "F5",
                    "midi": 77,
                    "time": 405.7476180000174,
                    "velocity": 0.5433070866141733,
                    "duration": 0.08797650000002477
                },
                {
                    "name": "A#5",
                    "midi": 82,
                    "time": 405.7476180000174,
                    "velocity": 0.6456692913385826,
                    "duration": 0.08797650000002477
                },
                {
                    "name": "A#5",
                    "midi": 82,
                    "time": 406.0995240000174,
                    "velocity": 0.5354330708661418,
                    "duration": 0.08797650000002477
                },
                {
                    "name": "F6",
                    "midi": 89,
                    "time": 406.0995240000174,
                    "velocity": 0.5354330708661418,
                    "duration": 0.08797650000002477
                },
                {
                    "name": "C#6",
                    "midi": 85,
                    "time": 406.0995240000174,
                    "velocity": 0.5354330708661418,
                    "duration": 0.08797650000002477
                },
                {
                    "name": "A#6",
                    "midi": 94,
                    "time": 406.0995240000174,
                    "velocity": 0.6377952755905512,
                    "duration": 0.08797650000002477
                },
                {
                    "name": "G5",
                    "midi": 79,
                    "time": 406.45143000001747,
                    "velocity": 0.5433070866141733,
                    "duration": 0.08797650000002477
                },
                {
                    "name": "C6",
                    "midi": 84,
                    "time": 406.45143000001747,
                    "velocity": 0.6456692913385826,
                    "duration": 0.08797650000002477
                },
                {
                    "name": "E5",
                    "midi": 76,
                    "time": 406.45143000001747,
                    "velocity": 0.5433070866141733,
                    "duration": 0.08797650000002477
                },
                {
                    "name": "C5",
                    "midi": 72,
                    "time": 406.45143000001747,
                    "velocity": 0.5433070866141733,
                    "duration": 0.08797650000002477
                },
                {
                    "name": "C7",
                    "midi": 96,
                    "time": 406.8033360000175,
                    "velocity": 0.5354330708661418,
                    "duration": 0.08797650000002477
                },
                {
                    "name": "F7",
                    "midi": 101,
                    "time": 406.8033360000175,
                    "velocity": 0.6377952755905512,
                    "duration": 0.08797650000002477
                },
                {
                    "name": "A6",
                    "midi": 93,
                    "time": 406.8033360000175,
                    "velocity": 0.5354330708661418,
                    "duration": 0.08797650000002477
                },
                {
                    "name": "F6",
                    "midi": 89,
                    "time": 406.8033360000175,
                    "velocity": 0.5354330708661418,
                    "duration": 0.08797650000002477
                },
                {
                    "name": "F3",
                    "midi": 53,
                    "time": 407.15524200001755,
                    "velocity": 0.48031496062992124,
                    "duration": 0.08797650000002477
                },
                {
                    "name": "A3",
                    "midi": 57,
                    "time": 407.15524200001755,
                    "velocity": 0.48031496062992124,
                    "duration": 0.08797650000002477
                },
                {
                    "name": "D#4",
                    "midi": 63,
                    "time": 407.15524200001755,
                    "velocity": 0.5669291338582677,
                    "duration": 0.08797650000002477
                },
                {
                    "name": "F4",
                    "midi": 65,
                    "time": 407.15524200001755,
                    "velocity": 0.5669291338582677,
                    "duration": 0.08797650000002477
                },
                {
                    "name": "F3",
                    "midi": 53,
                    "time": 407.3311950000176,
                    "velocity": 0.49606299212598426,
                    "duration": 0.08797650000002477
                },
                {
                    "name": "D4",
                    "midi": 62,
                    "time": 407.3311950000176,
                    "velocity": 0.5905511811023622,
                    "duration": 0.08797650000002477
                },
                {
                    "name": "F4",
                    "midi": 65,
                    "time": 407.3311950000176,
                    "velocity": 0.5905511811023622,
                    "duration": 0.08797650000002477
                },
                {
                    "name": "A#3",
                    "midi": 58,
                    "time": 407.3341275500176,
                    "velocity": 0.49606299212598426,
                    "duration": 0.08797650000002477
                },
                {
                    "name": "D5",
                    "midi": 74,
                    "time": 407.85905400001764,
                    "velocity": 0.4094488188976378,
                    "duration": 0.058650999999997566
                },
                {
                    "name": "F5",
                    "midi": 77,
                    "time": 407.91770500001763,
                    "velocity": 0.4251968503937008,
                    "duration": 0.058650999999997566
                },
                {
                    "name": "A#5",
                    "midi": 82,
                    "time": 407.97635600001763,
                    "velocity": 0.4330708661417323,
                    "duration": 0.058650999999997566
                },
                {
                    "name": "D6",
                    "midi": 86,
                    "time": 408.03500700001763,
                    "velocity": 0.44881889763779526,
                    "duration": 0.058650999999997566
                },
                {
                    "name": "F6",
                    "midi": 89,
                    "time": 408.0936580000176,
                    "velocity": 0.4645669291338583,
                    "duration": 0.058650999999997566
                },
                {
                    "name": "A#6",
                    "midi": 94,
                    "time": 408.1523090000176,
                    "velocity": 0.47244094488188976,
                    "duration": 0.058650999999997566
                },
                {
                    "name": "D7",
                    "midi": 98,
                    "time": 408.2109600000176,
                    "velocity": 0.4881889763779528,
                    "duration": 0.08797650000002477
                },
                {
                    "name": "G5",
                    "midi": 79,
                    "time": 408.56286600001766,
                    "velocity": 0.41732283464566927,
                    "duration": 0.058650999999997566
                },
                {
                    "name": "A#5",
                    "midi": 82,
                    "time": 408.62151700001766,
                    "velocity": 0.4330708661417323,
                    "duration": 0.058650999999997566
                },
                {
                    "name": "D#6",
                    "midi": 87,
                    "time": 408.68016800001766,
                    "velocity": 0.44881889763779526,
                    "duration": 0.058650999999997566
                },
                {
                    "name": "G6",
                    "midi": 91,
                    "time": 408.73881900001766,
                    "velocity": 0.4645669291338583,
                    "duration": 0.058650999999997566
                },
                {
                    "name": "A#6",
                    "midi": 94,
                    "time": 408.79747000001765,
                    "velocity": 0.48031496062992124,
                    "duration": 0.058650999999997566
                },
                {
                    "name": "D#7",
                    "midi": 99,
                    "time": 408.85612100001765,
                    "velocity": 0.5039370078740157,
                    "duration": 0.058650999999997566
                },
                {
                    "name": "G7",
                    "midi": 103,
                    "time": 408.91477200001765,
                    "velocity": 0.5196850393700787,
                    "duration": 0.08797650000002477
                },
                {
                    "name": "A#4",
                    "midi": 70,
                    "time": 409.2666780000177,
                    "velocity": 0.4094488188976378,
                    "duration": 0.058650999999997566
                },
                {
                    "name": "C#5",
                    "midi": 73,
                    "time": 409.3253290000177,
                    "velocity": 0.4251968503937008,
                    "duration": 0.058650999999997566
                },
                {
                    "name": "F#5",
                    "midi": 78,
                    "time": 409.3839800000177,
                    "velocity": 0.4409448818897638,
                    "duration": 0.058650999999997566
                },
                {
                    "name": "A#5",
                    "midi": 82,
                    "time": 409.4426310000177,
                    "velocity": 0.4566929133858268,
                    "duration": 0.058650999999997566
                },
                {
                    "name": "C#6",
                    "midi": 85,
                    "time": 409.5012820000177,
                    "velocity": 0.47244094488188976,
                    "duration": 0.058650999999997566
                },
                {
                    "name": "F#6",
                    "midi": 90,
                    "time": 409.5599330000177,
                    "velocity": 0.48031496062992124,
                    "duration": 0.058650999999997566
                },
                {
                    "name": "A#6",
                    "midi": 94,
                    "time": 409.6185840000177,
                    "velocity": 0.49606299212598426,
                    "duration": 0.08797650000002477
                },
                {
                    "name": "B4",
                    "midi": 71,
                    "time": 409.9704900000177,
                    "velocity": 0.4251968503937008,
                    "duration": 0.058650999999997566
                },
                {
                    "name": "D#5",
                    "midi": 75,
                    "time": 410.0291410000177,
                    "velocity": 0.4330708661417323,
                    "duration": 0.058650999999997566
                },
                {
                    "name": "F#5",
                    "midi": 78,
                    "time": 410.0877920000177,
                    "velocity": 0.44881889763779526,
                    "duration": 0.058650999999997566
                },
                {
                    "name": "B5",
                    "midi": 83,
                    "time": 410.1464430000177,
                    "velocity": 0.4566929133858268,
                    "duration": 0.058650999999997566
                },
                {
                    "name": "D#6",
                    "midi": 87,
                    "time": 410.2050940000177,
                    "velocity": 0.47244094488188976,
                    "duration": 0.058650999999997566
                },
                {
                    "name": "F#6",
                    "midi": 90,
                    "time": 410.2637450000177,
                    "velocity": 0.48031496062992124,
                    "duration": 0.058650999999997566
                },
                {
                    "name": "B6",
                    "midi": 95,
                    "time": 410.3223960000177,
                    "velocity": 0.49606299212598426,
                    "duration": 0.08797650000002477
                },
                {
                    "name": "F#4",
                    "midi": 66,
                    "time": 410.67430200001775,
                    "velocity": 0.4251968503937008,
                    "duration": 0.058650999999997566
                },
                {
                    "name": "A4",
                    "midi": 69,
                    "time": 410.73295300001774,
                    "velocity": 0.4409448818897638,
                    "duration": 0.058650999999997566
                },
                {
                    "name": "D5",
                    "midi": 74,
                    "time": 410.79160400001774,
                    "velocity": 0.44881889763779526,
                    "duration": 0.058650999999997566
                },
                {
                    "name": "F#5",
                    "midi": 78,
                    "time": 410.85025500001774,
                    "velocity": 0.4566929133858268,
                    "duration": 0.058650999999997566
                },
                {
                    "name": "A5",
                    "midi": 81,
                    "time": 410.90890600001774,
                    "velocity": 0.4645669291338583,
                    "duration": 0.058650999999997566
                },
                {
                    "name": "D6",
                    "midi": 86,
                    "time": 410.96755700001773,
                    "velocity": 0.47244094488188976,
                    "duration": 0.058650999999997566
                },
                {
                    "name": "F#6",
                    "midi": 90,
                    "time": 411.02620800001773,
                    "velocity": 0.4881889763779528,
                    "duration": 0.08797650000002477
                },
                {
                    "name": "G4",
                    "midi": 67,
                    "time": 411.3781140000178,
                    "velocity": 0.4251968503937008,
                    "duration": 0.058650999999997566
                },
                {
                    "name": "B4",
                    "midi": 71,
                    "time": 411.4367650000178,
                    "velocity": 0.4330708661417323,
                    "duration": 0.058650999999997566
                },
                {
                    "name": "D5",
                    "midi": 74,
                    "time": 411.49541600001777,
                    "velocity": 0.44881889763779526,
                    "duration": 0.058650999999997566
                },
                {
                    "name": "G5",
                    "midi": 79,
                    "time": 411.55406700001777,
                    "velocity": 0.4566929133858268,
                    "duration": 0.058650999999997566
                },
                {
                    "name": "B5",
                    "midi": 83,
                    "time": 411.61271800001776,
                    "velocity": 0.4645669291338583,
                    "duration": 0.058650999999997566
                },
                {
                    "name": "D6",
                    "midi": 86,
                    "time": 411.67136900001776,
                    "velocity": 0.47244094488188976,
                    "duration": 0.058650999999997566
                },
                {
                    "name": "G6",
                    "midi": 91,
                    "time": 411.73002000001776,
                    "velocity": 0.4881889763779528,
                    "duration": 0.08797650000002477
                },
                {
                    "name": "B3",
                    "midi": 59,
                    "time": 411.9939495000178,
                    "velocity": 0.3543307086614173,
                    "duration": 0.08797650000002477
                },
                {
                    "name": "B4",
                    "midi": 71,
                    "time": 411.9939495000178,
                    "velocity": 0.4251968503937008,
                    "duration": 0.08797650000002477
                },
                {
                    "name": "F5",
                    "midi": 77,
                    "time": 412.1699025000178,
                    "velocity": 0.4330708661417323,
                    "duration": 0.08797650000002477
                },
                {
                    "name": "F4",
                    "midi": 65,
                    "time": 412.1699025000178,
                    "velocity": 0.36220472440944884,
                    "duration": 0.08797650000002477
                },
                {
                    "name": "C5",
                    "midi": 72,
                    "time": 412.3458555000179,
                    "velocity": 0.4409448818897638,
                    "duration": 0.08797650000002477
                },
                {
                    "name": "C4",
                    "midi": 60,
                    "time": 412.3458555000179,
                    "velocity": 0.3700787401574803,
                    "duration": 0.08797650000002477
                },
                {
                    "name": "F#5",
                    "midi": 78,
                    "time": 412.5218085000179,
                    "velocity": 0.4409448818897638,
                    "duration": 0.08797650000002477
                },
                {
                    "name": "F#4",
                    "midi": 66,
                    "time": 412.5218085000179,
                    "velocity": 0.3700787401574803,
                    "duration": 0.08797650000002477
                },
                {
                    "name": "D#5",
                    "midi": 75,
                    "time": 412.697761500018,
                    "velocity": 0.47244094488188976,
                    "duration": 0.08797650000002477
                },
                {
                    "name": "D#4",
                    "midi": 63,
                    "time": 412.697761500018,
                    "velocity": 0.4015748031496063,
                    "duration": 0.08797650000002477
                },
                {
                    "name": "A#5",
                    "midi": 82,
                    "time": 412.873714500018,
                    "velocity": 0.47244094488188976,
                    "duration": 0.08797650000002477
                },
                {
                    "name": "A#4",
                    "midi": 70,
                    "time": 412.873714500018,
                    "velocity": 0.4015748031496063,
                    "duration": 0.08797650000002477
                },
                {
                    "name": "G5",
                    "midi": 79,
                    "time": 413.0496675000181,
                    "velocity": 0.48031496062992124,
                    "duration": 0.08797650000002477
                },
                {
                    "name": "G4",
                    "midi": 67,
                    "time": 413.0496675000181,
                    "velocity": 0.4015748031496063,
                    "duration": 0.08797650000002477
                },
                {
                    "name": "D#6",
                    "midi": 87,
                    "time": 413.2256205000181,
                    "velocity": 0.48031496062992124,
                    "duration": 0.08797650000002477
                },
                {
                    "name": "D#5",
                    "midi": 75,
                    "time": 413.2256205000181,
                    "velocity": 0.4015748031496063,
                    "duration": 0.08797650000002477
                },
                {
                    "name": "A#5",
                    "midi": 82,
                    "time": 413.4015735000182,
                    "velocity": 0.4881889763779528,
                    "duration": 0.08797650000002477
                },
                {
                    "name": "A#4",
                    "midi": 70,
                    "time": 413.4015735000182,
                    "velocity": 0.4094488188976378,
                    "duration": 0.08797650000002477
                },
                {
                    "name": "F6",
                    "midi": 89,
                    "time": 413.5775265000182,
                    "velocity": 0.4881889763779528,
                    "duration": 0.08797650000002477
                },
                {
                    "name": "F5",
                    "midi": 77,
                    "time": 413.5775265000182,
                    "velocity": 0.4094488188976378,
                    "duration": 0.08797650000002477
                },
                {
                    "name": "D6",
                    "midi": 86,
                    "time": 413.7534795000183,
                    "velocity": 0.49606299212598426,
                    "duration": 0.08797650000002477
                },
                {
                    "name": "D5",
                    "midi": 74,
                    "time": 413.7534795000183,
                    "velocity": 0.41732283464566927,
                    "duration": 0.08797650000002477
                },
                {
                    "name": "A#6",
                    "midi": 94,
                    "time": 413.9294325000183,
                    "velocity": 0.49606299212598426,
                    "duration": 0.08797650000002477
                },
                {
                    "name": "A#5",
                    "midi": 82,
                    "time": 413.9294325000183,
                    "velocity": 0.41732283464566927,
                    "duration": 0.08797650000002477
                },
                {
                    "name": "D5",
                    "midi": 74,
                    "time": 414.19336200001834,
                    "velocity": 0.4094488188976378,
                    "duration": 0.058650999999997566
                },
                {
                    "name": "F5",
                    "midi": 77,
                    "time": 414.25201300001834,
                    "velocity": 0.4251968503937008,
                    "duration": 0.058650999999997566
                },
                {
                    "name": "A#5",
                    "midi": 82,
                    "time": 414.31066400001833,
                    "velocity": 0.4330708661417323,
                    "duration": 0.058650999999997566
                },
                {
                    "name": "D6",
                    "midi": 86,
                    "time": 414.36931500001833,
                    "velocity": 0.44881889763779526,
                    "duration": 0.058650999999997566
                },
                {
                    "name": "F6",
                    "midi": 89,
                    "time": 414.42796600001833,
                    "velocity": 0.4645669291338583,
                    "duration": 0.058650999999997566
                },
                {
                    "name": "A#6",
                    "midi": 94,
                    "time": 414.4866170000183,
                    "velocity": 0.47244094488188976,
                    "duration": 0.058650999999997566
                },
                {
                    "name": "D7",
                    "midi": 98,
                    "time": 414.5452680000183,
                    "velocity": 0.4881889763779528,
                    "duration": 0.08797650000002477
                },
                {
                    "name": "G5",
                    "midi": 79,
                    "time": 414.89717400001837,
                    "velocity": 0.41732283464566927,
                    "duration": 0.058650999999997566
                },
                {
                    "name": "A#5",
                    "midi": 82,
                    "time": 414.95582500001836,
                    "velocity": 0.4330708661417323,
                    "duration": 0.058650999999997566
                },
                {
                    "name": "D#6",
                    "midi": 87,
                    "time": 415.01447600001836,
                    "velocity": 0.44881889763779526,
                    "duration": 0.058650999999997566
                },
                {
                    "name": "G6",
                    "midi": 91,
                    "time": 415.07312700001836,
                    "velocity": 0.4645669291338583,
                    "duration": 0.058650999999997566
                },
                {
                    "name": "A#6",
                    "midi": 94,
                    "time": 415.13177800001836,
                    "velocity": 0.48031496062992124,
                    "duration": 0.058650999999997566
                },
                {
                    "name": "D#7",
                    "midi": 99,
                    "time": 415.19042900001836,
                    "velocity": 0.5039370078740157,
                    "duration": 0.058650999999997566
                },
                {
                    "name": "G7",
                    "midi": 103,
                    "time": 415.24908000001835,
                    "velocity": 0.5196850393700787,
                    "duration": 0.08797650000002477
                },
                {
                    "name": "A#4",
                    "midi": 70,
                    "time": 415.6009860000184,
                    "velocity": 0.4094488188976378,
                    "duration": 0.058650999999997566
                },
                {
                    "name": "C#5",
                    "midi": 73,
                    "time": 415.6596370000184,
                    "velocity": 0.4251968503937008,
                    "duration": 0.058650999999997566
                },
                {
                    "name": "F#5",
                    "midi": 78,
                    "time": 415.7182880000184,
                    "velocity": 0.4409448818897638,
                    "duration": 0.058650999999997566
                },
                {
                    "name": "A#5",
                    "midi": 82,
                    "time": 415.7769390000184,
                    "velocity": 0.4566929133858268,
                    "duration": 0.058650999999997566
                },
                {
                    "name": "C#6",
                    "midi": 85,
                    "time": 415.8355900000184,
                    "velocity": 0.47244094488188976,
                    "duration": 0.058650999999997566
                },
                {
                    "name": "F#6",
                    "midi": 90,
                    "time": 415.8942410000184,
                    "velocity": 0.48031496062992124,
                    "duration": 0.058650999999997566
                },
                {
                    "name": "A#6",
                    "midi": 94,
                    "time": 415.9528920000184,
                    "velocity": 0.49606299212598426,
                    "duration": 0.08797650000002477
                },
                {
                    "name": "B4",
                    "midi": 71,
                    "time": 416.3047980000184,
                    "velocity": 0.4251968503937008,
                    "duration": 0.058650999999997566
                },
                {
                    "name": "D#5",
                    "midi": 75,
                    "time": 416.3634490000184,
                    "velocity": 0.4330708661417323,
                    "duration": 0.058650999999997566
                },
                {
                    "name": "F#5",
                    "midi": 78,
                    "time": 416.4221000000184,
                    "velocity": 0.44881889763779526,
                    "duration": 0.058650999999997566
                },
                {
                    "name": "B5",
                    "midi": 83,
                    "time": 416.4807510000184,
                    "velocity": 0.4566929133858268,
                    "duration": 0.058650999999997566
                },
                {
                    "name": "D#6",
                    "midi": 87,
                    "time": 416.5394020000184,
                    "velocity": 0.47244094488188976,
                    "duration": 0.058650999999997566
                },
                {
                    "name": "F#6",
                    "midi": 90,
                    "time": 416.5980530000184,
                    "velocity": 0.48031496062992124,
                    "duration": 0.058650999999997566
                },
                {
                    "name": "B6",
                    "midi": 95,
                    "time": 416.6567040000184,
                    "velocity": 0.49606299212598426,
                    "duration": 0.08797650000002477
                },
                {
                    "name": "F#4",
                    "midi": 66,
                    "time": 417.00861000001845,
                    "velocity": 0.4251968503937008,
                    "duration": 0.058650999999997566
                },
                {
                    "name": "G#4",
                    "midi": 68,
                    "time": 417.06726100001845,
                    "velocity": 0.4409448818897638,
                    "duration": 0.058650999999997566
                },
                {
                    "name": "D5",
                    "midi": 74,
                    "time": 417.12591200001845,
                    "velocity": 0.44881889763779526,
                    "duration": 0.058650999999997566
                },
                {
                    "name": "F#5",
                    "midi": 78,
                    "time": 417.18456300001844,
                    "velocity": 0.4566929133858268,
                    "duration": 0.058650999999997566
                },
                {
                    "name": "G#5",
                    "midi": 80,
                    "time": 417.24321400001844,
                    "velocity": 0.4645669291338583,
                    "duration": 0.058650999999997566
                },
                {
                    "name": "D6",
                    "midi": 86,
                    "time": 417.30186500001844,
                    "velocity": 0.47244094488188976,
                    "duration": 0.058650999999997566
                },
                {
                    "name": "F#6",
                    "midi": 90,
                    "time": 417.36051600001844,
                    "velocity": 0.4881889763779528,
                    "duration": 0.08797650000002477
                },
                {
                    "name": "G4",
                    "midi": 67,
                    "time": 417.7124220000185,
                    "velocity": 0.4251968503937008,
                    "duration": 0.058650999999997566
                },
                {
                    "name": "B4",
                    "midi": 71,
                    "time": 417.7710730000185,
                    "velocity": 0.4330708661417323,
                    "duration": 0.058650999999997566
                },
                {
                    "name": "D5",
                    "midi": 74,
                    "time": 417.8297240000185,
                    "velocity": 0.44881889763779526,
                    "duration": 0.058650999999997566
                },
                {
                    "name": "G5",
                    "midi": 79,
                    "time": 417.88837500001847,
                    "velocity": 0.4566929133858268,
                    "duration": 0.058650999999997566
                },
                {
                    "name": "B5",
                    "midi": 83,
                    "time": 417.94702600001847,
                    "velocity": 0.4645669291338583,
                    "duration": 0.058650999999997566
                },
                {
                    "name": "D6",
                    "midi": 86,
                    "time": 418.00567700001847,
                    "velocity": 0.47244094488188976,
                    "duration": 0.058650999999997566
                },
                {
                    "name": "G6",
                    "midi": 91,
                    "time": 418.06432800001846,
                    "velocity": 0.4881889763779528,
                    "duration": 0.08797650000002477
                },
                {
                    "name": "B3",
                    "midi": 59,
                    "time": 418.3282575000185,
                    "velocity": 0.3543307086614173,
                    "duration": 0.08797650000002477
                },
                {
                    "name": "B4",
                    "midi": 71,
                    "time": 418.3282575000185,
                    "velocity": 0.4251968503937008,
                    "duration": 0.08797650000002477
                },
                {
                    "name": "F5",
                    "midi": 77,
                    "time": 418.50421050001853,
                    "velocity": 0.4330708661417323,
                    "duration": 0.08797650000002477
                },
                {
                    "name": "F4",
                    "midi": 65,
                    "time": 418.50421050001853,
                    "velocity": 0.36220472440944884,
                    "duration": 0.08797650000002477
                },
                {
                    "name": "C5",
                    "midi": 72,
                    "time": 418.6801635000186,
                    "velocity": 0.4409448818897638,
                    "duration": 0.08797650000002477
                },
                {
                    "name": "C4",
                    "midi": 60,
                    "time": 418.6801635000186,
                    "velocity": 0.3700787401574803,
                    "duration": 0.08797650000002477
                },
                {
                    "name": "F#5",
                    "midi": 78,
                    "time": 418.85611650001863,
                    "velocity": 0.4409448818897638,
                    "duration": 0.08797650000002477
                },
                {
                    "name": "F#4",
                    "midi": 66,
                    "time": 418.85611650001863,
                    "velocity": 0.3700787401574803,
                    "duration": 0.08797650000002477
                },
                {
                    "name": "D#5",
                    "midi": 75,
                    "time": 419.0320695000187,
                    "velocity": 0.44881889763779526,
                    "duration": 0.08797650000002477
                },
                {
                    "name": "D#4",
                    "midi": 63,
                    "time": 419.0320695000187,
                    "velocity": 0.3779527559055118,
                    "duration": 0.08797650000002477
                },
                {
                    "name": "A#5",
                    "midi": 82,
                    "time": 419.2080225000187,
                    "velocity": 0.44881889763779526,
                    "duration": 0.08797650000002477
                },
                {
                    "name": "A#4",
                    "midi": 70,
                    "time": 419.2080225000187,
                    "velocity": 0.3779527559055118,
                    "duration": 0.08797650000002477
                },
                {
                    "name": "G5",
                    "midi": 79,
                    "time": 419.3839755000188,
                    "velocity": 0.44881889763779526,
                    "duration": 0.08797650000002477
                },
                {
                    "name": "G4",
                    "midi": 67,
                    "time": 419.3839755000188,
                    "velocity": 0.3779527559055118,
                    "duration": 0.08797650000002477
                },
                {
                    "name": "D#6",
                    "midi": 87,
                    "time": 419.5599285000188,
                    "velocity": 0.4566929133858268,
                    "duration": 0.08797650000002477
                },
                {
                    "name": "D#5",
                    "midi": 75,
                    "time": 419.5599285000188,
                    "velocity": 0.3858267716535433,
                    "duration": 0.08797650000002477
                },
                {
                    "name": "A#5",
                    "midi": 82,
                    "time": 419.7358815000189,
                    "velocity": 0.4645669291338583,
                    "duration": 0.08797650000002477
                },
                {
                    "name": "A#4",
                    "midi": 70,
                    "time": 419.7358815000189,
                    "velocity": 0.3937007874015748,
                    "duration": 0.08797650000002477
                },
                {
                    "name": "G6",
                    "midi": 91,
                    "time": 419.9118345000189,
                    "velocity": 0.4645669291338583,
                    "duration": 0.08797650000002477
                },
                {
                    "name": "G5",
                    "midi": 79,
                    "time": 419.9118345000189,
                    "velocity": 0.3937007874015748,
                    "duration": 0.08797650000002477
                },
                {
                    "name": "D#6",
                    "midi": 87,
                    "time": 420.087787500019,
                    "velocity": 0.4330708661417323,
                    "duration": 0.08797650000002477
                },
                {
                    "name": "D#5",
                    "midi": 75,
                    "time": 420.087787500019,
                    "velocity": 0.4330708661417323,
                    "duration": 0.08797650000002477
                },
                {
                    "name": "A#6",
                    "midi": 94,
                    "time": 420.263740500019,
                    "velocity": 0.4330708661417323,
                    "duration": 0.08797650000002477
                },
                {
                    "name": "A#5",
                    "midi": 82,
                    "time": 420.263740500019,
                    "velocity": 0.4330708661417323,
                    "duration": 0.08797650000002477
                },
                {
                    "name": "G#6",
                    "midi": 92,
                    "time": 420.4396935000191,
                    "velocity": 0.3937007874015748,
                    "duration": 0.08797650000002477
                },
                {
                    "name": "G#5",
                    "midi": 80,
                    "time": 420.4396935000191,
                    "velocity": 0.3937007874015748,
                    "duration": 0.08797650000002477
                },
                {
                    "name": "F6",
                    "midi": 89,
                    "time": 420.6156465000191,
                    "velocity": 0.3937007874015748,
                    "duration": 0.08797650000002477
                },
                {
                    "name": "F5",
                    "midi": 77,
                    "time": 420.6156465000191,
                    "velocity": 0.3937007874015748,
                    "duration": 0.08797650000002477
                },
                {
                    "name": "D6",
                    "midi": 86,
                    "time": 420.7915995000192,
                    "velocity": 0.3937007874015748,
                    "duration": 0.08797650000002477
                },
                {
                    "name": "D5",
                    "midi": 74,
                    "time": 420.7915995000192,
                    "velocity": 0.3937007874015748,
                    "duration": 0.08797650000002477
                },
                {
                    "name": "A#5",
                    "midi": 82,
                    "time": 420.9675525000192,
                    "velocity": 0.3937007874015748,
                    "duration": 0.08797650000002477
                },
                {
                    "name": "A#4",
                    "midi": 70,
                    "time": 420.9675525000192,
                    "velocity": 0.3937007874015748,
                    "duration": 0.08797650000002477
                },
                {
                    "name": "G#5",
                    "midi": 80,
                    "time": 421.1435055000193,
                    "velocity": 0.3937007874015748,
                    "duration": 0.08797650000002477
                },
                {
                    "name": "G#4",
                    "midi": 68,
                    "time": 421.1435055000193,
                    "velocity": 0.3937007874015748,
                    "duration": 0.08797650000002477
                },
                {
                    "name": "F5",
                    "midi": 77,
                    "time": 421.3194585000193,
                    "velocity": 0.3937007874015748,
                    "duration": 0.08797650000002477
                },
                {
                    "name": "F4",
                    "midi": 65,
                    "time": 421.3194585000193,
                    "velocity": 0.3937007874015748,
                    "duration": 0.08797650000002477
                },
                {
                    "name": "D5",
                    "midi": 74,
                    "time": 421.4954115000194,
                    "velocity": 0.4015748031496063,
                    "duration": 0.08797650000002477
                },
                {
                    "name": "D4",
                    "midi": 62,
                    "time": 421.4954115000194,
                    "velocity": 0.4015748031496063,
                    "duration": 0.08797650000002477
                },
                {
                    "name": "F4",
                    "midi": 65,
                    "time": 421.6713645000194,
                    "velocity": 0.41732283464566927,
                    "duration": 0.08797650000002477
                },
                {
                    "name": "F5",
                    "midi": 77,
                    "time": 421.6713645000194,
                    "velocity": 0.41732283464566927,
                    "duration": 0.08797650000002477
                },
                {
                    "name": "G#5",
                    "midi": 80,
                    "time": 421.84731750001947,
                    "velocity": 0.4409448818897638,
                    "duration": 0.08797650000002477
                },
                {
                    "name": "G#4",
                    "midi": 68,
                    "time": 421.84731750001947,
                    "velocity": 0.4409448818897638,
                    "duration": 0.08797650000002477
                },
                {
                    "name": "A#5",
                    "midi": 82,
                    "time": 422.0232705000195,
                    "velocity": 0.4566929133858268,
                    "duration": 0.08797650000002477
                },
                {
                    "name": "A#4",
                    "midi": 70,
                    "time": 422.0232705000195,
                    "velocity": 0.4566929133858268,
                    "duration": 0.08797650000002477
                },
                {
                    "name": "D6",
                    "midi": 86,
                    "time": 422.19922350001957,
                    "velocity": 0.48031496062992124,
                    "duration": 0.08797650000002477
                },
                {
                    "name": "D5",
                    "midi": 74,
                    "time": 422.19922350001957,
                    "velocity": 0.48031496062992124,
                    "duration": 0.08797650000002477
                },
                {
                    "name": "F5",
                    "midi": 77,
                    "time": 422.3751765000196,
                    "velocity": 0.5039370078740157,
                    "duration": 0.08797650000002477
                },
                {
                    "name": "F6",
                    "midi": 89,
                    "time": 422.3751765000196,
                    "velocity": 0.5039370078740157,
                    "duration": 0.08797650000002477
                },
                {
                    "name": "G#6",
                    "midi": 92,
                    "time": 422.55112950001967,
                    "velocity": 0.5275590551181102,
                    "duration": 0.08797650000002477
                },
                {
                    "name": "G#5",
                    "midi": 80,
                    "time": 422.55112950001967,
                    "velocity": 0.5275590551181102,
                    "duration": 0.08797650000002477
                },
                {
                    "name": "A#6",
                    "midi": 94,
                    "time": 422.7270825000197,
                    "velocity": 0.5511811023622047,
                    "duration": 0.08797650000002477
                },
                {
                    "name": "A#5",
                    "midi": 82,
                    "time": 422.7270825000197,
                    "velocity": 0.5511811023622047,
                    "duration": 0.08797650000002477
                },
                {
                    "name": "C7",
                    "midi": 96,
                    "time": 422.90303550001977,
                    "velocity": 0.5748031496062992,
                    "duration": 0.08797650000002477
                },
                {
                    "name": "C6",
                    "midi": 84,
                    "time": 422.90303550001977,
                    "velocity": 0.5748031496062992,
                    "duration": 0.08797650000002477
                },
                {
                    "name": "D6",
                    "midi": 86,
                    "time": 423.0789885000198,
                    "velocity": 0.5905511811023622,
                    "duration": 0.08797650000002477
                },
                {
                    "name": "D7",
                    "midi": 98,
                    "time": 423.0789885000198,
                    "velocity": 0.5905511811023622,
                    "duration": 0.08797650000002477
                },
                {
                    "name": "D#7",
                    "midi": 99,
                    "time": 423.25494150001987,
                    "velocity": 0.6456692913385826,
                    "duration": 0.08797650000002477
                },
                {
                    "name": "D#6",
                    "midi": 87,
                    "time": 423.25494150001987,
                    "velocity": 0.5511811023622047,
                    "duration": 0.08797650000002477
                },
                {
                    "name": "F7",
                    "midi": 101,
                    "time": 423.4308945000199,
                    "velocity": 0.5748031496062992,
                    "duration": 0.08797650000002477
                },
                {
                    "name": "D7",
                    "midi": 98,
                    "time": 423.4308945000199,
                    "velocity": 0.5748031496062992,
                    "duration": 0.08797650000002477
                },
                {
                    "name": "A#6",
                    "midi": 94,
                    "time": 423.4308945000199,
                    "velocity": 0.4881889763779528,
                    "duration": 0.08797650000002477
                },
                {
                    "name": "F6",
                    "midi": 89,
                    "time": 423.4308945000199,
                    "velocity": 0.4881889763779528,
                    "duration": 0.08797650000002477
                },
                {
                    "name": "G7",
                    "midi": 103,
                    "time": 423.60684750001997,
                    "velocity": 0.6062992125984252,
                    "duration": 0.08797650000002477
                },
                {
                    "name": "D#7",
                    "midi": 99,
                    "time": 423.60684750001997,
                    "velocity": 0.6062992125984252,
                    "duration": 0.08797650000002477
                },
                {
                    "name": "A#6",
                    "midi": 94,
                    "time": 423.60684750001997,
                    "velocity": 0.5196850393700787,
                    "duration": 0.08797650000002477
                },
                {
                    "name": "G6",
                    "midi": 91,
                    "time": 423.60684750001997,
                    "velocity": 0.5196850393700787,
                    "duration": 0.08797650000002477
                },
                {
                    "name": "F7",
                    "midi": 101,
                    "time": 423.78280050002,
                    "velocity": 0.6062992125984252,
                    "duration": 0.08797650000002477
                },
                {
                    "name": "D7",
                    "midi": 98,
                    "time": 423.78280050002,
                    "velocity": 0.6062992125984252,
                    "duration": 0.08797650000002477
                },
                {
                    "name": "A#6",
                    "midi": 94,
                    "time": 423.78280050002,
                    "velocity": 0.5196850393700787,
                    "duration": 0.08797650000002477
                },
                {
                    "name": "F6",
                    "midi": 89,
                    "time": 423.78280050002,
                    "velocity": 0.5196850393700787,
                    "duration": 0.08797650000002477
                },
                {
                    "name": "G7",
                    "midi": 103,
                    "time": 423.95875350002007,
                    "velocity": 0.6062992125984252,
                    "duration": 0.08797650000002477
                },
                {
                    "name": "D#7",
                    "midi": 99,
                    "time": 423.95875350002007,
                    "velocity": 0.6062992125984252,
                    "duration": 0.08797650000002477
                },
                {
                    "name": "A#6",
                    "midi": 94,
                    "time": 423.95875350002007,
                    "velocity": 0.5196850393700787,
                    "duration": 0.08797650000002477
                },
                {
                    "name": "G6",
                    "midi": 91,
                    "time": 423.95875350002007,
                    "velocity": 0.5196850393700787,
                    "duration": 0.08797650000002477
                },
                {
                    "name": "F7",
                    "midi": 101,
                    "time": 424.1347065000201,
                    "velocity": 0.6062992125984252,
                    "duration": 0.08797650000002477
                },
                {
                    "name": "D7",
                    "midi": 98,
                    "time": 424.1347065000201,
                    "velocity": 0.6062992125984252,
                    "duration": 0.08797650000002477
                },
                {
                    "name": "A#6",
                    "midi": 94,
                    "time": 424.1347065000201,
                    "velocity": 0.5196850393700787,
                    "duration": 0.08797650000002477
                },
                {
                    "name": "F6",
                    "midi": 89,
                    "time": 424.1347065000201,
                    "velocity": 0.5196850393700787,
                    "duration": 0.08797650000002477
                },
                {
                    "name": "G7",
                    "midi": 103,
                    "time": 424.31065950002017,
                    "velocity": 0.6062992125984252,
                    "duration": 0.08797650000002477
                },
                {
                    "name": "D#7",
                    "midi": 99,
                    "time": 424.31065950002017,
                    "velocity": 0.6062992125984252,
                    "duration": 0.08797650000002477
                },
                {
                    "name": "G6",
                    "midi": 91,
                    "time": 424.31065950002017,
                    "velocity": 0.5196850393700787,
                    "duration": 0.08797650000002477
                },
                {
                    "name": "A#6",
                    "midi": 94,
                    "time": 424.31065950002017,
                    "velocity": 0.5196850393700787,
                    "duration": 0.08797650000002477
                },
                {
                    "name": "F7",
                    "midi": 101,
                    "time": 424.4866125000202,
                    "velocity": 0.6062992125984252,
                    "duration": 0.08797650000002477
                },
                {
                    "name": "D7",
                    "midi": 98,
                    "time": 424.4866125000202,
                    "velocity": 0.6062992125984252,
                    "duration": 0.08797650000002477
                },
                {
                    "name": "A#6",
                    "midi": 94,
                    "time": 424.4866125000202,
                    "velocity": 0.5196850393700787,
                    "duration": 0.08797650000002477
                },
                {
                    "name": "F6",
                    "midi": 89,
                    "time": 424.4866125000202,
                    "velocity": 0.5196850393700787,
                    "duration": 0.08797650000002477
                },
                {
                    "name": "G7",
                    "midi": 103,
                    "time": 424.66256550002026,
                    "velocity": 0.6062992125984252,
                    "duration": 0.08797650000002477
                },
                {
                    "name": "D#7",
                    "midi": 99,
                    "time": 424.66256550002026,
                    "velocity": 0.6062992125984252,
                    "duration": 0.08797650000002477
                },
                {
                    "name": "A#6",
                    "midi": 94,
                    "time": 424.66256550002026,
                    "velocity": 0.5196850393700787,
                    "duration": 0.08797650000002477
                },
                {
                    "name": "G6",
                    "midi": 91,
                    "time": 424.66256550002026,
                    "velocity": 0.5196850393700787,
                    "duration": 0.08797650000002477
                },
                {
                    "name": "F7",
                    "midi": 101,
                    "time": 424.8385185000203,
                    "velocity": 0.6062992125984252,
                    "duration": 0.08797650000002477
                },
                {
                    "name": "D7",
                    "midi": 98,
                    "time": 424.8385185000203,
                    "velocity": 0.6062992125984252,
                    "duration": 0.08797650000002477
                },
                {
                    "name": "A#6",
                    "midi": 94,
                    "time": 424.8385185000203,
                    "velocity": 0.5196850393700787,
                    "duration": 0.08797650000002477
                },
                {
                    "name": "F6",
                    "midi": 89,
                    "time": 424.8385185000203,
                    "velocity": 0.5196850393700787,
                    "duration": 0.08797650000002477
                },
                {
                    "name": "G7",
                    "midi": 103,
                    "time": 425.01447150002036,
                    "velocity": 0.6062992125984252,
                    "duration": 0.08797650000002477
                },
                {
                    "name": "D#7",
                    "midi": 99,
                    "time": 425.01447150002036,
                    "velocity": 0.6062992125984252,
                    "duration": 0.08797650000002477
                },
                {
                    "name": "G6",
                    "midi": 91,
                    "time": 425.01447150002036,
                    "velocity": 0.5196850393700787,
                    "duration": 0.08797650000002477
                },
                {
                    "name": "A#6",
                    "midi": 94,
                    "time": 425.01447150002036,
                    "velocity": 0.5196850393700787,
                    "duration": 0.08797650000002477
                },
                {
                    "name": "F7",
                    "midi": 101,
                    "time": 425.1904245000204,
                    "velocity": 0.6062992125984252,
                    "duration": 0.08797650000002477
                },
                {
                    "name": "D7",
                    "midi": 98,
                    "time": 425.1904245000204,
                    "velocity": 0.6062992125984252,
                    "duration": 0.08797650000002477
                },
                {
                    "name": "A#6",
                    "midi": 94,
                    "time": 425.1904245000204,
                    "velocity": 0.5196850393700787,
                    "duration": 0.08797650000002477
                },
                {
                    "name": "F6",
                    "midi": 89,
                    "time": 425.1904245000204,
                    "velocity": 0.5196850393700787,
                    "duration": 0.08797650000002477
                },
                {
                    "name": "G7",
                    "midi": 103,
                    "time": 425.36637750002046,
                    "velocity": 0.6062992125984252,
                    "duration": 0.08797650000002477
                },
                {
                    "name": "D#7",
                    "midi": 99,
                    "time": 425.36637750002046,
                    "velocity": 0.6062992125984252,
                    "duration": 0.08797650000002477
                },
                {
                    "name": "A#6",
                    "midi": 94,
                    "time": 425.36637750002046,
                    "velocity": 0.5196850393700787,
                    "duration": 0.08797650000002477
                },
                {
                    "name": "G6",
                    "midi": 91,
                    "time": 425.36637750002046,
                    "velocity": 0.5196850393700787,
                    "duration": 0.08797650000002477
                },
                {
                    "name": "F7",
                    "midi": 101,
                    "time": 425.5423305000205,
                    "velocity": 0.6062992125984252,
                    "duration": 0.08797650000002477
                },
                {
                    "name": "D7",
                    "midi": 98,
                    "time": 425.5423305000205,
                    "velocity": 0.6062992125984252,
                    "duration": 0.08797650000002477
                },
                {
                    "name": "A#6",
                    "midi": 94,
                    "time": 425.5423305000205,
                    "velocity": 0.5196850393700787,
                    "duration": 0.08797650000002477
                },
                {
                    "name": "F6",
                    "midi": 89,
                    "time": 425.5423305000205,
                    "velocity": 0.5196850393700787,
                    "duration": 0.08797650000002477
                },
                {
                    "name": "G7",
                    "midi": 103,
                    "time": 425.71828350002056,
                    "velocity": 0.6062992125984252,
                    "duration": 0.08797650000002477
                },
                {
                    "name": "D#7",
                    "midi": 99,
                    "time": 425.71828350002056,
                    "velocity": 0.6062992125984252,
                    "duration": 0.08797650000002477
                },
                {
                    "name": "G6",
                    "midi": 91,
                    "time": 425.71828350002056,
                    "velocity": 0.5196850393700787,
                    "duration": 0.08797650000002477
                },
                {
                    "name": "A#6",
                    "midi": 94,
                    "time": 425.71828350002056,
                    "velocity": 0.5196850393700787,
                    "duration": 0.08797650000002477
                },
                {
                    "name": "F7",
                    "midi": 101,
                    "time": 425.8942365000206,
                    "velocity": 0.6062992125984252,
                    "duration": 0.08797650000002477
                },
                {
                    "name": "D7",
                    "midi": 98,
                    "time": 425.8942365000206,
                    "velocity": 0.6062992125984252,
                    "duration": 0.08797650000002477
                },
                {
                    "name": "A#6",
                    "midi": 94,
                    "time": 425.8942365000206,
                    "velocity": 0.5196850393700787,
                    "duration": 0.08797650000002477
                },
                {
                    "name": "F6",
                    "midi": 89,
                    "time": 425.8942365000206,
                    "velocity": 0.5196850393700787,
                    "duration": 0.08797650000002477
                },
                {
                    "name": "G6",
                    "midi": 91,
                    "time": 425.98221300002064,
                    "velocity": 0.6062992125984252,
                    "duration": 0.1759529999999927
                },
                {
                    "name": "A#6",
                    "midi": 94,
                    "time": 425.98221300002064,
                    "velocity": 0.6062992125984252,
                    "duration": 0.1759529999999927
                },
                {
                    "name": "D#7",
                    "midi": 99,
                    "time": 425.98221300002064,
                    "velocity": 0.6062992125984252,
                    "duration": 0.1759529999999927
                },
                {
                    "name": "G7",
                    "midi": 103,
                    "time": 425.98221300002064,
                    "velocity": 0.7322834645669292,
                    "duration": 0.1759529999999927
                },
                {
                    "name": "A#4",
                    "midi": 70,
                    "time": 426.24614250002065,
                    "velocity": 0.5354330708661418,
                    "duration": 0.08797650000002477
                },
                {
                    "name": "G4",
                    "midi": 67,
                    "time": 426.24614250002065,
                    "velocity": 0.5354330708661418,
                    "duration": 0.08797650000002477
                },
                {
                    "name": "D#5",
                    "midi": 75,
                    "time": 426.24614250002065,
                    "velocity": 0.5354330708661418,
                    "duration": 0.08797650000002477
                },
                {
                    "name": "G5",
                    "midi": 79,
                    "time": 426.24614250002065,
                    "velocity": 0.6299212598425197,
                    "duration": 0.08797650000002477
                },
                {
                    "name": "G4",
                    "midi": 67,
                    "time": 426.3341190000207,
                    "velocity": 0.5905511811023622,
                    "duration": 0.08797650000002477
                },
                {
                    "name": "A#4",
                    "midi": 70,
                    "time": 426.3341190000207,
                    "velocity": 0.5905511811023622,
                    "duration": 0.08797650000002477
                },
                {
                    "name": "D#5",
                    "midi": 75,
                    "time": 426.3341190000207,
                    "velocity": 0.5905511811023622,
                    "duration": 0.08797650000002477
                },
                {
                    "name": "G5",
                    "midi": 79,
                    "time": 426.3341190000207,
                    "velocity": 0.7007874015748031,
                    "duration": 0.08797650000002477
                },
                {
                    "name": "G3",
                    "midi": 55,
                    "time": 426.5980485000207,
                    "velocity": 0.5511811023622047,
                    "duration": 0.08797650000002477
                },
                {
                    "name": "A#3",
                    "midi": 58,
                    "time": 426.5980485000207,
                    "velocity": 0.5511811023622047,
                    "duration": 0.08797650000002477
                },
                {
                    "name": "D#4",
                    "midi": 63,
                    "time": 426.5980485000207,
                    "velocity": 0.6456692913385826,
                    "duration": 0.08797650000002477
                },
                {
                    "name": "G3",
                    "midi": 55,
                    "time": 426.6860250000207,
                    "velocity": 0.5984251968503937,
                    "duration": 0.08797650000002477
                },
                {
                    "name": "A#3",
                    "midi": 58,
                    "time": 426.6860250000207,
                    "velocity": 0.5984251968503937,
                    "duration": 0.08797650000002477
                },
                {
                    "name": "D#4",
                    "midi": 63,
                    "time": 426.6860250000207,
                    "velocity": 0.7165354330708661,
                    "duration": 0.08797650000002477
                },
                {
                    "name": "A#4",
                    "midi": 70,
                    "time": 426.94995450002074,
                    "velocity": 0.5354330708661418,
                    "duration": 0.08797650000002477
                },
                {
                    "name": "D#5",
                    "midi": 75,
                    "time": 426.94995450002074,
                    "velocity": 0.5354330708661418,
                    "duration": 0.08797650000002477
                },
                {
                    "name": "A#5",
                    "midi": 82,
                    "time": 426.94995450002074,
                    "velocity": 0.6299212598425197,
                    "duration": 0.08797650000002477
                },
                {
                    "name": "A#4",
                    "midi": 70,
                    "time": 427.03793100002076,
                    "velocity": 0.5905511811023622,
                    "duration": 0.08797650000002477
                },
                {
                    "name": "D#5",
                    "midi": 75,
                    "time": 427.03793100002076,
                    "velocity": 0.5905511811023622,
                    "duration": 0.08797650000002477
                },
                {
                    "name": "A#5",
                    "midi": 82,
                    "time": 427.03793100002076,
                    "velocity": 0.7007874015748031,
                    "duration": 0.08797650000002477
                },
                {
                    "name": "G3",
                    "midi": 55,
                    "time": 427.3018605000208,
                    "velocity": 0.5511811023622047,
                    "duration": 0.08797650000002477
                },
                {
                    "name": "A#3",
                    "midi": 58,
                    "time": 427.3018605000208,
                    "velocity": 0.5511811023622047,
                    "duration": 0.08797650000002477
                },
                {
                    "name": "D#4",
                    "midi": 63,
                    "time": 427.3018605000208,
                    "velocity": 0.6456692913385826,
                    "duration": 0.08797650000002477
                },
                {
                    "name": "G3",
                    "midi": 55,
                    "time": 427.3898370000208,
                    "velocity": 0.5984251968503937,
                    "duration": 0.08797650000002477
                },
                {
                    "name": "A#3",
                    "midi": 58,
                    "time": 427.3898370000208,
                    "velocity": 0.5984251968503937,
                    "duration": 0.08797650000002477
                },
                {
                    "name": "D#4",
                    "midi": 63,
                    "time": 427.3898370000208,
                    "velocity": 0.7165354330708661,
                    "duration": 0.08797650000002477
                },
                {
                    "name": "D#5",
                    "midi": 75,
                    "time": 428.09364900002083,
                    "velocity": 0.6614173228346457,
                    "duration": 0.08797650000002477
                },
                {
                    "name": "G5",
                    "midi": 79,
                    "time": 428.09364900002083,
                    "velocity": 0.6614173228346457,
                    "duration": 0.08797650000002477
                },
                {
                    "name": "D#6",
                    "midi": 87,
                    "time": 428.09364900002083,
                    "velocity": 0.7795275590551181,
                    "duration": 0.08797650000002477
                },
                {
                    "name": "D#6",
                    "midi": 87,
                    "time": 428.79746100002086,
                    "velocity": 0.6614173228346457,
                    "duration": 0.08797650000002477
                },
                {
                    "name": "G6",
                    "midi": 91,
                    "time": 428.79746100002086,
                    "velocity": 0.6614173228346457,
                    "duration": 0.08797650000002477
                },
                {
                    "name": "D#7",
                    "midi": 99,
                    "time": 428.79746100002086,
                    "velocity": 0.7795275590551181,
                    "duration": 0.08797650000002477
                }
            ],
            "controlChanges": {
                "7": [
                    {
                        "number": 7,
                        "time": 0,
                        "value": 0.7874015748031497
                    }
                ],
                "10": [
                    {
                        "number": 10,
                        "time": 0,
                        "value": 0.5039370078740157
                    }
                ],
                "91": [
                    {
                        "number": 91,
                        "time": 0,
                        "value": 1
                    }
                ]
            },
            "id": 1,
            "name": "Piano right",
            "instrumentNumber": 0,
            "instrument": "acoustic grand piano",
            "instrumentFamily": "piano",
            "channelNumber": 0,
            "isPercussion": false
        },
        {
            "startTime": 1.3196475,
            "duration": 428.8854375000137,
            "length": 3356,
            "notes": [
                {
                    "name": "A#1",
                    "midi": 34,
                    "time": 1.3196475,
                    "velocity": 0.48031496062992124,
                    "duration": 0.0879764999999999
                },
                {
                    "name": "D#2",
                    "midi": 39,
                    "time": 1.407624,
                    "velocity": 0.5511811023622047,
                    "duration": 0.6158355
                },
                {
                    "name": "D#1",
                    "midi": 27,
                    "time": 1.407624,
                    "velocity": 0.4645669291338583,
                    "duration": 0.6158355
                },
                {
                    "name": "G2",
                    "midi": 43,
                    "time": 2.0234595,
                    "velocity": 0.48031496062992124,
                    "duration": 0.0879764999999999
                },
                {
                    "name": "G1",
                    "midi": 31,
                    "time": 2.0234595,
                    "velocity": 0.4015748031496063,
                    "duration": 0.0879764999999999
                },
                {
                    "name": "G#2",
                    "midi": 44,
                    "time": 2.111436,
                    "velocity": 0.5196850393700787,
                    "duration": 0.0879764999999999
                },
                {
                    "name": "G#1",
                    "midi": 32,
                    "time": 2.111436,
                    "velocity": 0.4409448818897638,
                    "duration": 0.0879764999999999
                },
                {
                    "name": "A2",
                    "midi": 45,
                    "time": 2.463342,
                    "velocity": 0.5039370078740157,
                    "duration": 0.0879764999999999
                },
                {
                    "name": "A1",
                    "midi": 33,
                    "time": 2.463342,
                    "velocity": 0.4330708661417323,
                    "duration": 0.0879764999999999
                },
                {
                    "name": "A#2",
                    "midi": 46,
                    "time": 2.815248,
                    "velocity": 0.5511811023622047,
                    "duration": 0.7038120000000001
                },
                {
                    "name": "A#1",
                    "midi": 34,
                    "time": 2.815248,
                    "velocity": 0.4645669291338583,
                    "duration": 0.7038120000000001
                },
                {
                    "name": "G4",
                    "midi": 67,
                    "time": 3.51906,
                    "velocity": 0.5275590551181102,
                    "duration": 0.0879764999999999
                },
                {
                    "name": "D#4",
                    "midi": 63,
                    "time": 3.51906,
                    "velocity": 0.4409448818897638,
                    "duration": 0.0879764999999999
                },
                {
                    "name": "A#3",
                    "midi": 58,
                    "time": 3.51906,
                    "velocity": 0.4409448818897638,
                    "duration": 0.0879764999999999
                },
                {
                    "name": "G3",
                    "midi": 55,
                    "time": 3.51906,
                    "velocity": 0.4409448818897638,
                    "duration": 0.0879764999999999
                },
                {
                    "name": "A#1",
                    "midi": 34,
                    "time": 4.1348955,
                    "velocity": 0.48031496062992124,
                    "duration": 0.0879764999999999
                },
                {
                    "name": "D#2",
                    "midi": 39,
                    "time": 4.222872,
                    "velocity": 0.5511811023622047,
                    "duration": 0.6158355000000002
                },
                {
                    "name": "D#1",
                    "midi": 27,
                    "time": 4.222872,
                    "velocity": 0.4645669291338583,
                    "duration": 0.6158355000000002
                },
                {
                    "name": "G2",
                    "midi": 43,
                    "time": 4.8387075,
                    "velocity": 0.48031496062992124,
                    "duration": 0.0879764999999999
                },
                {
                    "name": "G1",
                    "midi": 31,
                    "time": 4.8387075,
                    "velocity": 0.3937007874015748,
                    "duration": 0.0879764999999999
                },
                {
                    "name": "A#2",
                    "midi": 46,
                    "time": 4.926684,
                    "velocity": 0.5275590551181102,
                    "duration": 0.0879764999999999
                },
                {
                    "name": "A#1",
                    "midi": 34,
                    "time": 4.926684,
                    "velocity": 0.4409448818897638,
                    "duration": 0.0879764999999999
                },
                {
                    "name": "C3",
                    "midi": 48,
                    "time": 5.2785899999999994,
                    "velocity": 0.5196850393700787,
                    "duration": 0.0879764999999999
                },
                {
                    "name": "C2",
                    "midi": 36,
                    "time": 5.2785899999999994,
                    "velocity": 0.4330708661417323,
                    "duration": 0.0879764999999999
                },
                {
                    "name": "C#3",
                    "midi": 49,
                    "time": 5.630495999999999,
                    "velocity": 0.5511811023622047,
                    "duration": 0.7038120000000001
                },
                {
                    "name": "C#2",
                    "midi": 37,
                    "time": 5.630495999999999,
                    "velocity": 0.4645669291338583,
                    "duration": 0.7038120000000001
                },
                {
                    "name": "A#4",
                    "midi": 70,
                    "time": 6.334307999999999,
                    "velocity": 0.5275590551181102,
                    "duration": 0.0879764999999999
                },
                {
                    "name": "G4",
                    "midi": 67,
                    "time": 6.334307999999999,
                    "velocity": 0.4409448818897638,
                    "duration": 0.0879764999999999
                },
                {
                    "name": "D#4",
                    "midi": 63,
                    "time": 6.334307999999999,
                    "velocity": 0.4409448818897638,
                    "duration": 0.0879764999999999
                },
                {
                    "name": "A#3",
                    "midi": 58,
                    "time": 6.334307999999999,
                    "velocity": 0.4409448818897638,
                    "duration": 0.0879764999999999
                },
                {
                    "name": "C1",
                    "midi": 24,
                    "time": 6.950143499999999,
                    "velocity": 0.3858267716535433,
                    "duration": 0.0879764999999999
                },
                {
                    "name": "C2",
                    "midi": 36,
                    "time": 6.950143499999999,
                    "velocity": 0.48031496062992124,
                    "duration": 0.0879764999999999
                },
                {
                    "name": "D#2",
                    "midi": 39,
                    "time": 7.038119999999999,
                    "velocity": 0.5511811023622047,
                    "duration": 0.6158355000000002
                },
                {
                    "name": "D#1",
                    "midi": 27,
                    "time": 7.038119999999999,
                    "velocity": 0.4645669291338583,
                    "duration": 0.6158355000000002
                },
                {
                    "name": "G#2",
                    "midi": 44,
                    "time": 7.6539554999999995,
                    "velocity": 0.4094488188976378,
                    "duration": 0.0879764999999999
                },
                {
                    "name": "G#1",
                    "midi": 32,
                    "time": 7.6539554999999995,
                    "velocity": 0.3464566929133858,
                    "duration": 0.0879764999999999
                },
                {
                    "name": "C3",
                    "midi": 48,
                    "time": 7.741931999999999,
                    "velocity": 0.4409448818897638,
                    "duration": 0.23460400000000003
                },
                {
                    "name": "C2",
                    "midi": 36,
                    "time": 7.741931999999999,
                    "velocity": 0.3700787401574803,
                    "duration": 0.23460400000000003
                },
                {
                    "name": "C#3",
                    "midi": 49,
                    "time": 7.976535999999999,
                    "velocity": 0.4645669291338583,
                    "duration": 0.23460399999999915
                },
                {
                    "name": "C#2",
                    "midi": 37,
                    "time": 7.976535999999999,
                    "velocity": 0.3858267716535433,
                    "duration": 0.23460399999999915
                },
                {
                    "name": "D3",
                    "midi": 50,
                    "time": 8.211139999999999,
                    "velocity": 0.49606299212598426,
                    "duration": 0.23460399999999915
                },
                {
                    "name": "D2",
                    "midi": 38,
                    "time": 8.211139999999999,
                    "velocity": 0.41732283464566927,
                    "duration": 0.23460399999999915
                },
                {
                    "name": "D#3",
                    "midi": 51,
                    "time": 8.445743999999998,
                    "velocity": 0.5511811023622047,
                    "duration": 0.7038119999999992
                },
                {
                    "name": "D#2",
                    "midi": 39,
                    "time": 8.445743999999998,
                    "velocity": 0.4645669291338583,
                    "duration": 0.7038119999999992
                },
                {
                    "name": "C5",
                    "midi": 72,
                    "time": 9.149555999999997,
                    "velocity": 0.5275590551181102,
                    "duration": 0.0879764999999999
                },
                {
                    "name": "G#4",
                    "midi": 68,
                    "time": 9.149555999999997,
                    "velocity": 0.4409448818897638,
                    "duration": 0.0879764999999999
                },
                {
                    "name": "D#4",
                    "midi": 63,
                    "time": 9.149555999999997,
                    "velocity": 0.4409448818897638,
                    "duration": 0.0879764999999999
                },
                {
                    "name": "C4",
                    "midi": 60,
                    "time": 9.149555999999997,
                    "velocity": 0.4409448818897638,
                    "duration": 0.0879764999999999
                },
                {
                    "name": "C1",
                    "midi": 24,
                    "time": 9.765391499999996,
                    "velocity": 0.3858267716535433,
                    "duration": 0.0879764999999999
                },
                {
                    "name": "C2",
                    "midi": 36,
                    "time": 9.765391499999996,
                    "velocity": 0.48031496062992124,
                    "duration": 0.0879764999999999
                },
                {
                    "name": "D#2",
                    "midi": 39,
                    "time": 9.853367999999996,
                    "velocity": 0.5511811023622047,
                    "duration": 0.6158354999999993
                },
                {
                    "name": "D#1",
                    "midi": 27,
                    "time": 9.853367999999996,
                    "velocity": 0.4645669291338583,
                    "duration": 0.6158354999999993
                },
                {
                    "name": "G#2",
                    "midi": 44,
                    "time": 10.469203499999995,
                    "velocity": 0.4409448818897638,
                    "duration": 0.0879764999999999
                },
                {
                    "name": "G#1",
                    "midi": 32,
                    "time": 10.469203499999995,
                    "velocity": 0.4409448818897638,
                    "duration": 0.0879764999999999
                },
                {
                    "name": "C3",
                    "midi": 48,
                    "time": 10.557179999999995,
                    "velocity": 0.41732283464566927,
                    "duration": 0.1759529999999998
                },
                {
                    "name": "C2",
                    "midi": 36,
                    "time": 10.557179999999995,
                    "velocity": 0.3543307086614173,
                    "duration": 0.1759529999999998
                },
                {
                    "name": "D#3",
                    "midi": 51,
                    "time": 10.733132999999995,
                    "velocity": 0.4566929133858268,
                    "duration": 0.1759529999999998
                },
                {
                    "name": "D#2",
                    "midi": 39,
                    "time": 10.733132999999995,
                    "velocity": 0.3858267716535433,
                    "duration": 0.1759529999999998
                },
                {
                    "name": "E3",
                    "midi": 52,
                    "time": 10.909085999999995,
                    "velocity": 0.4881889763779528,
                    "duration": 0.1759529999999998
                },
                {
                    "name": "E2",
                    "midi": 40,
                    "time": 10.909085999999995,
                    "velocity": 0.4094488188976378,
                    "duration": 0.1759529999999998
                },
                {
                    "name": "F3",
                    "midi": 53,
                    "time": 11.085038999999995,
                    "velocity": 0.5354330708661418,
                    "duration": 0.1759529999999998
                },
                {
                    "name": "F2",
                    "midi": 41,
                    "time": 11.085038999999995,
                    "velocity": 0.44881889763779526,
                    "duration": 0.1759529999999998
                },
                {
                    "name": "F#3",
                    "midi": 54,
                    "time": 11.260991999999995,
                    "velocity": 0.5511811023622047,
                    "duration": 0.7038119999999992
                },
                {
                    "name": "F#2",
                    "midi": 42,
                    "time": 11.260991999999995,
                    "velocity": 0.4645669291338583,
                    "duration": 0.7038119999999992
                },
                {
                    "name": "D#5",
                    "midi": 75,
                    "time": 11.964803999999994,
                    "velocity": 0.5275590551181102,
                    "duration": 0.0879764999999999
                },
                {
                    "name": "C5",
                    "midi": 72,
                    "time": 11.964803999999994,
                    "velocity": 0.4409448818897638,
                    "duration": 0.0879764999999999
                },
                {
                    "name": "F#4",
                    "midi": 66,
                    "time": 11.964803999999994,
                    "velocity": 0.4409448818897638,
                    "duration": 0.0879764999999999
                },
                {
                    "name": "D#4",
                    "midi": 63,
                    "time": 11.964803999999994,
                    "velocity": 0.4409448818897638,
                    "duration": 0.0879764999999999
                },
                {
                    "name": "F#3",
                    "midi": 54,
                    "time": 12.785917999999993,
                    "velocity": 0.2204724409448819,
                    "duration": 0.03519059999999996
                },
                {
                    "name": "C4",
                    "midi": 60,
                    "time": 12.785917999999993,
                    "velocity": 0.2204724409448819,
                    "duration": 0.03519059999999996
                },
                {
                    "name": "G#3",
                    "midi": 56,
                    "time": 12.903219999999994,
                    "velocity": 0.2283464566929134,
                    "duration": 0.03519059999999996
                },
                {
                    "name": "D4",
                    "midi": 62,
                    "time": 12.903219999999994,
                    "velocity": 0.2283464566929134,
                    "duration": 0.03519059999999996
                },
                {
                    "name": "A3",
                    "midi": 57,
                    "time": 13.020521999999994,
                    "velocity": 0.25984251968503935,
                    "duration": 0.03519059999999996
                },
                {
                    "name": "D#4",
                    "midi": 63,
                    "time": 13.020521999999994,
                    "velocity": 0.25984251968503935,
                    "duration": 0.03519059999999996
                },
                {
                    "name": "B3",
                    "midi": 59,
                    "time": 13.137823999999995,
                    "velocity": 0.23622047244094488,
                    "duration": 0.03519059999999996
                },
                {
                    "name": "F4",
                    "midi": 65,
                    "time": 13.137823999999995,
                    "velocity": 0.23622047244094488,
                    "duration": 0.03519059999999996
                },
                {
                    "name": "C4",
                    "midi": 60,
                    "time": 13.255125999999995,
                    "velocity": 0.23622047244094488,
                    "duration": 0.03519059999999996
                },
                {
                    "name": "F#4",
                    "midi": 66,
                    "time": 13.255125999999995,
                    "velocity": 0.23622047244094488,
                    "duration": 0.03519059999999996
                },
                {
                    "name": "D4",
                    "midi": 62,
                    "time": 13.372427999999996,
                    "velocity": 0.2677165354330709,
                    "duration": 0.03519059999999996
                },
                {
                    "name": "G#4",
                    "midi": 68,
                    "time": 13.372427999999996,
                    "velocity": 0.2677165354330709,
                    "duration": 0.03519059999999996
                },
                {
                    "name": "D#4",
                    "midi": 63,
                    "time": 13.489729999999996,
                    "velocity": 0.2283464566929134,
                    "duration": 0.03519059999999996
                },
                {
                    "name": "A4",
                    "midi": 69,
                    "time": 13.489729999999996,
                    "velocity": 0.2283464566929134,
                    "duration": 0.03519059999999996
                },
                {
                    "name": "F4",
                    "midi": 65,
                    "time": 13.607031999999997,
                    "velocity": 0.23622047244094488,
                    "duration": 0.03519059999999996
                },
                {
                    "name": "B4",
                    "midi": 71,
                    "time": 13.607031999999997,
                    "velocity": 0.23622047244094488,
                    "duration": 0.03519059999999996
                },
                {
                    "name": "F#4",
                    "midi": 66,
                    "time": 13.724333999999997,
                    "velocity": 0.2755905511811024,
                    "duration": 0.03519059999999996
                },
                {
                    "name": "C5",
                    "midi": 72,
                    "time": 13.724333999999997,
                    "velocity": 0.2755905511811024,
                    "duration": 0.03519059999999996
                },
                {
                    "name": "G#4",
                    "midi": 68,
                    "time": 13.841635999999998,
                    "velocity": 0.25984251968503935,
                    "duration": 0.03519059999999996
                },
                {
                    "name": "D5",
                    "midi": 74,
                    "time": 13.841635999999998,
                    "velocity": 0.25984251968503935,
                    "duration": 0.03519059999999996
                },
                {
                    "name": "A4",
                    "midi": 69,
                    "time": 13.958937999999998,
                    "velocity": 0.25984251968503935,
                    "duration": 0.03519059999999996
                },
                {
                    "name": "D#5",
                    "midi": 75,
                    "time": 13.958937999999998,
                    "velocity": 0.25984251968503935,
                    "duration": 0.03519059999999996
                },
                {
                    "name": "B4",
                    "midi": 71,
                    "time": 14.076239999999999,
                    "velocity": 0.2992125984251969,
                    "duration": 0.03519059999999996
                },
                {
                    "name": "F5",
                    "midi": 77,
                    "time": 14.076239999999999,
                    "velocity": 0.2992125984251969,
                    "duration": 0.03519059999999996
                },
                {
                    "name": "C5",
                    "midi": 72,
                    "time": 14.193541999999999,
                    "velocity": 0.2992125984251969,
                    "duration": 0.03519059999999996
                },
                {
                    "name": "F#5",
                    "midi": 78,
                    "time": 14.193541999999999,
                    "velocity": 0.2992125984251969,
                    "duration": 0.03519059999999996
                },
                {
                    "name": "D5",
                    "midi": 74,
                    "time": 14.310844,
                    "velocity": 0.30708661417322836,
                    "duration": 0.03519059999999996
                },
                {
                    "name": "G#5",
                    "midi": 80,
                    "time": 14.310844,
                    "velocity": 0.30708661417322836,
                    "duration": 0.03519059999999996
                },
                {
                    "name": "D#5",
                    "midi": 75,
                    "time": 14.428146,
                    "velocity": 0.30708661417322836,
                    "duration": 0.03519059999999996
                },
                {
                    "name": "A5",
                    "midi": 81,
                    "time": 14.428146,
                    "velocity": 0.30708661417322836,
                    "duration": 0.03519059999999996
                },
                {
                    "name": "F5",
                    "midi": 77,
                    "time": 14.545448,
                    "velocity": 0.31496062992125984,
                    "duration": 0.03519059999999996
                },
                {
                    "name": "B5",
                    "midi": 83,
                    "time": 14.545448,
                    "velocity": 0.31496062992125984,
                    "duration": 0.03519059999999996
                },
                {
                    "name": "F#5",
                    "midi": 78,
                    "time": 14.66275,
                    "velocity": 0.3228346456692913,
                    "duration": 0.03519059999999996
                },
                {
                    "name": "C6",
                    "midi": 84,
                    "time": 14.66275,
                    "velocity": 0.3228346456692913,
                    "duration": 0.03519059999999996
                },
                {
                    "name": "G#5",
                    "midi": 80,
                    "time": 14.780052000000001,
                    "velocity": 0.33070866141732286,
                    "duration": 0.03519059999999996
                },
                {
                    "name": "D6",
                    "midi": 86,
                    "time": 14.780052000000001,
                    "velocity": 0.33070866141732286,
                    "duration": 0.03519059999999996
                },
                {
                    "name": "A5",
                    "midi": 81,
                    "time": 14.897354000000002,
                    "velocity": 0.33858267716535434,
                    "duration": 0.03519059999999996
                },
                {
                    "name": "D#6",
                    "midi": 87,
                    "time": 14.897354000000002,
                    "velocity": 0.33858267716535434,
                    "duration": 0.03519059999999996
                },
                {
                    "name": "A#5",
                    "midi": 82,
                    "time": 15.014656000000002,
                    "velocity": 0.3700787401574803,
                    "duration": 0.03519059999999996
                },
                {
                    "name": "E6",
                    "midi": 88,
                    "time": 15.014656000000002,
                    "velocity": 0.3700787401574803,
                    "duration": 0.03519059999999996
                },
                {
                    "name": "B5",
                    "midi": 83,
                    "time": 15.131958000000003,
                    "velocity": 0.3779527559055118,
                    "duration": 0.02639294999999997
                },
                {
                    "name": "F6",
                    "midi": 89,
                    "time": 15.131958000000003,
                    "velocity": 0.3779527559055118,
                    "duration": 0.02639294999999997
                },
                {
                    "name": "C6",
                    "midi": 84,
                    "time": 15.219934500000003,
                    "velocity": 0.3858267716535433,
                    "duration": 0.02639294999999997
                },
                {
                    "name": "F#6",
                    "midi": 90,
                    "time": 15.219934500000003,
                    "velocity": 0.3858267716535433,
                    "duration": 0.02639294999999997
                },
                {
                    "name": "C#6",
                    "midi": 85,
                    "time": 15.307911000000002,
                    "velocity": 0.4015748031496063,
                    "duration": 0.02639294999999997
                },
                {
                    "name": "G6",
                    "midi": 91,
                    "time": 15.307911000000002,
                    "velocity": 0.4015748031496063,
                    "duration": 0.02639294999999997
                },
                {
                    "name": "D6",
                    "midi": 86,
                    "time": 15.395887500000002,
                    "velocity": 0.4094488188976378,
                    "duration": 0.02639294999999997
                },
                {
                    "name": "G#6",
                    "midi": 92,
                    "time": 15.395887500000002,
                    "velocity": 0.4094488188976378,
                    "duration": 0.02639294999999997
                },
                {
                    "name": "A6",
                    "midi": 93,
                    "time": 15.483864000000002,
                    "velocity": 0.44881889763779526,
                    "duration": 0.02639294999999997
                },
                {
                    "name": "D#6",
                    "midi": 87,
                    "time": 15.483864000000002,
                    "velocity": 0.44881889763779526,
                    "duration": 0.02639294999999997
                },
                {
                    "name": "F#4",
                    "midi": 66,
                    "time": 16.891488000000003,
                    "velocity": 0.25984251968503935,
                    "duration": 0.3519059999999996
                },
                {
                    "name": "F4",
                    "midi": 65,
                    "time": 17.243394000000002,
                    "velocity": 0.2992125984251969,
                    "duration": 0.1759529999999998
                },
                {
                    "name": "D#4",
                    "midi": 63,
                    "time": 17.419347000000002,
                    "velocity": 0.2992125984251969,
                    "duration": 0.10997062499999899
                },
                {
                    "name": "D4",
                    "midi": 62,
                    "time": 17.529317625,
                    "velocity": 0.2047244094488189,
                    "duration": 0.24193537500000062
                },
                {
                    "name": "F4",
                    "midi": 65,
                    "time": 17.55131175,
                    "velocity": 0.2440944881889764,
                    "duration": 0.21994125000000153
                },
                {
                    "name": "C#4",
                    "midi": 61,
                    "time": 19.002924,
                    "velocity": 0.28346456692913385,
                    "duration": 0.3519059999999996
                },
                {
                    "name": "C4",
                    "midi": 60,
                    "time": 19.35483,
                    "velocity": 0.2992125984251969,
                    "duration": 0.1759529999999998
                },
                {
                    "name": "A#3",
                    "midi": 58,
                    "time": 19.530783,
                    "velocity": 0.2992125984251969,
                    "duration": 0.10997062499999899
                },
                {
                    "name": "A3",
                    "midi": 57,
                    "time": 19.640753625,
                    "velocity": 0.2047244094488189,
                    "duration": 0.24193537500000062
                },
                {
                    "name": "C4",
                    "midi": 60,
                    "time": 19.662747749999998,
                    "velocity": 0.2440944881889764,
                    "duration": 0.7478002500000009
                },
                {
                    "name": "G#3",
                    "midi": 56,
                    "time": 20.058642,
                    "velocity": 0.23622047244094488,
                    "duration": 0.1759529999999998
                },
                {
                    "name": "B3",
                    "midi": 59,
                    "time": 21.114359999999998,
                    "velocity": 0.28346456692913385,
                    "duration": 0.7038119999999992
                },
                {
                    "name": "G#2",
                    "midi": 44,
                    "time": 21.114359999999998,
                    "velocity": 0.23622047244094488,
                    "duration": 0.7038119999999992
                },
                {
                    "name": "G3",
                    "midi": 55,
                    "time": 21.818171999999997,
                    "velocity": 0.2440944881889764,
                    "duration": 0.7038119999999992
                },
                {
                    "name": "A#2",
                    "midi": 46,
                    "time": 21.818171999999997,
                    "velocity": 0.2047244094488189,
                    "duration": 0.7038119999999992
                },
                {
                    "name": "F#3",
                    "midi": 54,
                    "time": 22.521983999999996,
                    "velocity": 0.2440944881889764,
                    "duration": 0.7038119999999992
                },
                {
                    "name": "A#2",
                    "midi": 46,
                    "time": 22.521983999999996,
                    "velocity": 0.2047244094488189,
                    "duration": 0.7038119999999992
                },
                {
                    "name": "B2",
                    "midi": 47,
                    "time": 23.225795999999995,
                    "velocity": 0.2440944881889764,
                    "duration": 0.3519059999999996
                },
                {
                    "name": "A#1",
                    "midi": 34,
                    "time": 23.225795999999995,
                    "velocity": 0.2047244094488189,
                    "duration": 0.7038119999999992
                },
                {
                    "name": "A#2",
                    "midi": 46,
                    "time": 23.577701999999995,
                    "velocity": 0.2440944881889764,
                    "duration": 0.3519059999999996
                },
                {
                    "name": "D#2",
                    "midi": 39,
                    "time": 25.337231999999993,
                    "velocity": 0.2755905511811024,
                    "duration": 0.0879764999999999
                },
                {
                    "name": "A#2",
                    "midi": 46,
                    "time": 25.645149749999995,
                    "velocity": 0.25984251968503935,
                    "duration": 0.0879764999999999
                },
                {
                    "name": "G3",
                    "midi": 55,
                    "time": 25.667143874999994,
                    "velocity": 0.2677165354330709,
                    "duration": 0.06598237500000081
                },
                {
                    "name": "D#4",
                    "midi": 63,
                    "time": 25.689137999999993,
                    "velocity": 0.2755905511811024,
                    "duration": 0.04398825000000173
                },
                {
                    "name": "A#2",
                    "midi": 46,
                    "time": 26.348961749999994,
                    "velocity": 0.25984251968503935,
                    "duration": 0.0879764999999999
                },
                {
                    "name": "G3",
                    "midi": 55,
                    "time": 26.370955874999993,
                    "velocity": 0.2677165354330709,
                    "duration": 0.06598237500000081
                },
                {
                    "name": "D#4",
                    "midi": 63,
                    "time": 26.392949999999992,
                    "velocity": 0.28346456692913385,
                    "duration": 0.04398825000000173
                },
                {
                    "name": "D#2",
                    "midi": 39,
                    "time": 26.744855999999995,
                    "velocity": 0.2755905511811024,
                    "duration": 0.0879764999999999
                },
                {
                    "name": "A#2",
                    "midi": 46,
                    "time": 27.052773749999997,
                    "velocity": 0.25984251968503935,
                    "duration": 0.0879764999999999
                },
                {
                    "name": "G3",
                    "midi": 55,
                    "time": 27.074767874999996,
                    "velocity": 0.2677165354330709,
                    "duration": 0.06598237500000081
                },
                {
                    "name": "D#4",
                    "midi": 63,
                    "time": 27.096761999999995,
                    "velocity": 0.28346456692913385,
                    "duration": 0.04398825000000173
                },
                {
                    "name": "A#2",
                    "midi": 46,
                    "time": 27.756585749999996,
                    "velocity": 0.2755905511811024,
                    "duration": 0.0879764999999999
                },
                {
                    "name": "G3",
                    "midi": 55,
                    "time": 27.778579874999995,
                    "velocity": 0.29133858267716534,
                    "duration": 0.06598237500000081
                },
                {
                    "name": "D#4",
                    "midi": 63,
                    "time": 27.800573999999994,
                    "velocity": 0.2992125984251969,
                    "duration": 0.04398825000000173
                },
                {
                    "name": "D#2",
                    "midi": 39,
                    "time": 28.152479999999997,
                    "velocity": 0.2992125984251969,
                    "duration": 0.0879764999999999
                },
                {
                    "name": "A#2",
                    "midi": 46,
                    "time": 28.46039775,
                    "velocity": 0.29133858267716534,
                    "duration": 0.0879764999999999
                },
                {
                    "name": "G3",
                    "midi": 55,
                    "time": 28.482391874999998,
                    "velocity": 0.2992125984251969,
                    "duration": 0.06598237500000081
                },
                {
                    "name": "D#4",
                    "midi": 63,
                    "time": 28.504385999999997,
                    "velocity": 0.30708661417322836,
                    "duration": 0.04398825000000173
                },
                {
                    "name": "A#2",
                    "midi": 46,
                    "time": 29.164209749999998,
                    "velocity": 0.29133858267716534,
                    "duration": 0.0879764999999999
                },
                {
                    "name": "G3",
                    "midi": 55,
                    "time": 29.186203874999997,
                    "velocity": 0.2992125984251969,
                    "duration": 0.06598237500000081
                },
                {
                    "name": "D#4",
                    "midi": 63,
                    "time": 29.208197999999996,
                    "velocity": 0.30708661417322836,
                    "duration": 0.04398825000000173
                },
                {
                    "name": "D#2",
                    "midi": 39,
                    "time": 29.560104,
                    "velocity": 0.2992125984251969,
                    "duration": 0.0879764999999999
                },
                {
                    "name": "A#2",
                    "midi": 46,
                    "time": 29.86802175,
                    "velocity": 0.28346456692913385,
                    "duration": 0.0879764999999999
                },
                {
                    "name": "G3",
                    "midi": 55,
                    "time": 29.890015875,
                    "velocity": 0.2992125984251969,
                    "duration": 0.06598237500000081
                },
                {
                    "name": "D#4",
                    "midi": 63,
                    "time": 29.91201,
                    "velocity": 0.31496062992125984,
                    "duration": 0.04398825000000173
                },
                {
                    "name": "A#2",
                    "midi": 46,
                    "time": 30.57183375,
                    "velocity": 0.2992125984251969,
                    "duration": 0.0879764999999999
                },
                {
                    "name": "G3",
                    "midi": 55,
                    "time": 30.593827875,
                    "velocity": 0.30708661417322836,
                    "duration": 0.06598237500000081
                },
                {
                    "name": "D#4",
                    "midi": 63,
                    "time": 30.615821999999998,
                    "velocity": 0.3228346456692913,
                    "duration": 0.04398825000000173
                },
                {
                    "name": "D#2",
                    "midi": 39,
                    "time": 30.967728,
                    "velocity": 0.2992125984251969,
                    "duration": 0.0879764999999999
                },
                {
                    "name": "A#2",
                    "midi": 46,
                    "time": 31.253651625,
                    "velocity": 0.2755905511811024,
                    "duration": 0.10997062499999899
                },
                {
                    "name": "F3",
                    "midi": 53,
                    "time": 31.27564575,
                    "velocity": 0.29133858267716534,
                    "duration": 0.0879764999999999
                },
                {
                    "name": "G#3",
                    "midi": 56,
                    "time": 31.297639874999998,
                    "velocity": 0.30708661417322836,
                    "duration": 0.06598237500000081
                },
                {
                    "name": "D4",
                    "midi": 62,
                    "time": 31.319633999999997,
                    "velocity": 0.31496062992125984,
                    "duration": 0.04398825000000173
                },
                {
                    "name": "F3",
                    "midi": 53,
                    "time": 31.979457749999998,
                    "velocity": 0.2992125984251969,
                    "duration": 0.0879764999999999
                },
                {
                    "name": "A#2",
                    "midi": 46,
                    "time": 31.979457749999998,
                    "velocity": 0.2992125984251969,
                    "duration": 0.0879764999999999
                },
                {
                    "name": "G#3",
                    "midi": 56,
                    "time": 32.001451875,
                    "velocity": 0.30708661417322836,
                    "duration": 0.06598237499999726
                },
                {
                    "name": "D4",
                    "midi": 62,
                    "time": 32.023446,
                    "velocity": 0.31496062992125984,
                    "duration": 0.043988249999998175
                },
                {
                    "name": "D#2",
                    "midi": 39,
                    "time": 32.375352,
                    "velocity": 0.2992125984251969,
                    "duration": 0.08797650000000345
                },
                {
                    "name": "A#2",
                    "midi": 46,
                    "time": 32.68326975,
                    "velocity": 0.30708661417322836,
                    "duration": 0.08797649999999635
                },
                {
                    "name": "G3",
                    "midi": 55,
                    "time": 32.705263875,
                    "velocity": 0.3228346456692913,
                    "duration": 0.06598237499999726
                },
                {
                    "name": "D#4",
                    "midi": 63,
                    "time": 32.727258,
                    "velocity": 0.33070866141732286,
                    "duration": 0.043988249999998175
                },
                {
                    "name": "A#2",
                    "midi": 46,
                    "time": 33.38708175,
                    "velocity": 0.29133858267716534,
                    "duration": 0.08797649999999635
                },
                {
                    "name": "G3",
                    "midi": 55,
                    "time": 33.409075875,
                    "velocity": 0.30708661417322836,
                    "duration": 0.06598237499999726
                },
                {
                    "name": "D#4",
                    "midi": 63,
                    "time": 33.43107,
                    "velocity": 0.31496062992125984,
                    "duration": 0.043988249999998175
                },
                {
                    "name": "D#2",
                    "midi": 39,
                    "time": 33.782976,
                    "velocity": 0.2992125984251969,
                    "duration": 0.08797650000000345
                },
                {
                    "name": "A#2",
                    "midi": 46,
                    "time": 34.09089375,
                    "velocity": 0.2992125984251969,
                    "duration": 0.08797649999999635
                },
                {
                    "name": "G3",
                    "midi": 55,
                    "time": 34.112887875,
                    "velocity": 0.30708661417322836,
                    "duration": 0.06598237499999726
                },
                {
                    "name": "D#4",
                    "midi": 63,
                    "time": 34.134882,
                    "velocity": 0.3228346456692913,
                    "duration": 0.043988249999998175
                },
                {
                    "name": "A#2",
                    "midi": 46,
                    "time": 34.79470575,
                    "velocity": 0.2992125984251969,
                    "duration": 0.08797649999999635
                },
                {
                    "name": "G3",
                    "midi": 55,
                    "time": 34.816699875,
                    "velocity": 0.31496062992125984,
                    "duration": 0.06598237499999726
                },
                {
                    "name": "D#4",
                    "midi": 63,
                    "time": 34.838694,
                    "velocity": 0.3228346456692913,
                    "duration": 0.043988249999998175
                },
                {
                    "name": "D#2",
                    "midi": 39,
                    "time": 35.190599999999996,
                    "velocity": 0.2992125984251969,
                    "duration": 0.08797650000000345
                },
                {
                    "name": "A#2",
                    "midi": 46,
                    "time": 35.49851775,
                    "velocity": 0.2992125984251969,
                    "duration": 0.08797649999999635
                },
                {
                    "name": "G3",
                    "midi": 55,
                    "time": 35.520511875,
                    "velocity": 0.30708661417322836,
                    "duration": 0.06598237499999726
                },
                {
                    "name": "D#4",
                    "midi": 63,
                    "time": 35.542505999999996,
                    "velocity": 0.3228346456692913,
                    "duration": 0.043988249999998175
                },
                {
                    "name": "A#2",
                    "midi": 46,
                    "time": 36.20232975,
                    "velocity": 0.2992125984251969,
                    "duration": 0.08797649999999635
                },
                {
                    "name": "G3",
                    "midi": 55,
                    "time": 36.224323874999996,
                    "velocity": 0.31496062992125984,
                    "duration": 0.06598237499999726
                },
                {
                    "name": "D#4",
                    "midi": 63,
                    "time": 36.246317999999995,
                    "velocity": 0.33070866141732286,
                    "duration": 0.043988249999998175
                },
                {
                    "name": "D#2",
                    "midi": 39,
                    "time": 36.598223999999995,
                    "velocity": 0.2992125984251969,
                    "duration": 0.08797650000000345
                },
                {
                    "name": "A#2",
                    "midi": 46,
                    "time": 36.884147625,
                    "velocity": 0.29133858267716534,
                    "duration": 0.10997062499999544
                },
                {
                    "name": "F3",
                    "midi": 53,
                    "time": 36.906141749999996,
                    "velocity": 0.2992125984251969,
                    "duration": 0.08797649999999635
                },
                {
                    "name": "G#3",
                    "midi": 56,
                    "time": 36.928135874999995,
                    "velocity": 0.30708661417322836,
                    "duration": 0.06598237499999726
                },
                {
                    "name": "D4",
                    "midi": 62,
                    "time": 36.950129999999994,
                    "velocity": 0.3228346456692913,
                    "duration": 0.043988249999998175
                },
                {
                    "name": "A#2",
                    "midi": 46,
                    "time": 37.609953749999995,
                    "velocity": 0.28346456692913385,
                    "duration": 0.08797649999999635
                },
                {
                    "name": "F3",
                    "midi": 53,
                    "time": 37.631947874999994,
                    "velocity": 0.2992125984251969,
                    "duration": 0.06598237499999726
                },
                {
                    "name": "G#3",
                    "midi": 56,
                    "time": 37.653941999999994,
                    "velocity": 0.30708661417322836,
                    "duration": 0.043988249999998175
                },
                {
                    "name": "D#2",
                    "midi": 39,
                    "time": 38.00584799999999,
                    "velocity": 0.2992125984251969,
                    "duration": 0.08797650000000345
                },
                {
                    "name": "A#2",
                    "midi": 46,
                    "time": 38.313765749999995,
                    "velocity": 0.2755905511811024,
                    "duration": 0.08797649999999635
                },
                {
                    "name": "G3",
                    "midi": 55,
                    "time": 38.335759874999994,
                    "velocity": 0.2992125984251969,
                    "duration": 0.06598237499999726
                },
                {
                    "name": "D#4",
                    "midi": 63,
                    "time": 38.35775399999999,
                    "velocity": 0.3228346456692913,
                    "duration": 0.043988249999998175
                },
                {
                    "name": "A#2",
                    "midi": 46,
                    "time": 39.017577749999994,
                    "velocity": 0.2677165354330709,
                    "duration": 0.08797649999999635
                },
                {
                    "name": "G3",
                    "midi": 55,
                    "time": 39.03957187499999,
                    "velocity": 0.29133858267716534,
                    "duration": 0.06598237499999726
                },
                {
                    "name": "D#4",
                    "midi": 63,
                    "time": 39.06156599999999,
                    "velocity": 0.30708661417322836,
                    "duration": 0.043988249999998175
                },
                {
                    "name": "D#2",
                    "midi": 39,
                    "time": 39.41347199999999,
                    "velocity": 0.2992125984251969,
                    "duration": 0.08797650000000345
                },
                {
                    "name": "A#2",
                    "midi": 46,
                    "time": 39.72138974999999,
                    "velocity": 0.28346456692913385,
                    "duration": 0.08797649999999635
                },
                {
                    "name": "G3",
                    "midi": 55,
                    "time": 39.74338387499999,
                    "velocity": 0.30708661417322836,
                    "duration": 0.06598237499999726
                },
                {
                    "name": "D#4",
                    "midi": 63,
                    "time": 39.76537799999999,
                    "velocity": 0.33070866141732286,
                    "duration": 0.043988249999998175
                },
                {
                    "name": "A#2",
                    "midi": 46,
                    "time": 40.42520174999999,
                    "velocity": 0.28346456692913385,
                    "duration": 0.08797649999999635
                },
                {
                    "name": "G3",
                    "midi": 55,
                    "time": 40.44719587499999,
                    "velocity": 0.2992125984251969,
                    "duration": 0.06598237499999726
                },
                {
                    "name": "D#4",
                    "midi": 63,
                    "time": 40.46918999999999,
                    "velocity": 0.3228346456692913,
                    "duration": 0.043988249999998175
                },
                {
                    "name": "D#2",
                    "midi": 39,
                    "time": 40.82109599999999,
                    "velocity": 0.3779527559055118,
                    "duration": 0.08797650000000345
                },
                {
                    "name": "A#2",
                    "midi": 46,
                    "time": 41.12901374999999,
                    "velocity": 0.33070866141732286,
                    "duration": 0.08797649999999635
                },
                {
                    "name": "G3",
                    "midi": 55,
                    "time": 41.15100787499999,
                    "velocity": 0.36220472440944884,
                    "duration": 0.06598237499999726
                },
                {
                    "name": "D#4",
                    "midi": 63,
                    "time": 41.17300199999999,
                    "velocity": 0.3779527559055118,
                    "duration": 0.043988249999998175
                },
                {
                    "name": "A#2",
                    "midi": 46,
                    "time": 41.83282574999999,
                    "velocity": 0.30708661417322836,
                    "duration": 0.08797649999999635
                },
                {
                    "name": "G3",
                    "midi": 55,
                    "time": 41.85481987499999,
                    "velocity": 0.3228346456692913,
                    "duration": 0.06598237499999726
                },
                {
                    "name": "D#4",
                    "midi": 63,
                    "time": 41.87681399999999,
                    "velocity": 0.3464566929133858,
                    "duration": 0.043988249999998175
                },
                {
                    "name": "D#2",
                    "midi": 39,
                    "time": 42.22871999999999,
                    "velocity": 0.2992125984251969,
                    "duration": 0.08797650000000345
                },
                {
                    "name": "A#2",
                    "midi": 46,
                    "time": 42.53663774999999,
                    "velocity": 0.30708661417322836,
                    "duration": 0.08797649999999635
                },
                {
                    "name": "G3",
                    "midi": 55,
                    "time": 42.55863187499999,
                    "velocity": 0.33070866141732286,
                    "duration": 0.06598237499999726
                },
                {
                    "name": "D#4",
                    "midi": 63,
                    "time": 42.58062599999999,
                    "velocity": 0.36220472440944884,
                    "duration": 0.043988249999998175
                },
                {
                    "name": "A#2",
                    "midi": 46,
                    "time": 43.24044974999999,
                    "velocity": 0.2755905511811024,
                    "duration": 0.08797649999999635
                },
                {
                    "name": "G3",
                    "midi": 55,
                    "time": 43.26244387499999,
                    "velocity": 0.29133858267716534,
                    "duration": 0.06598237499999726
                },
                {
                    "name": "D#4",
                    "midi": 63,
                    "time": 43.28443799999999,
                    "velocity": 0.2992125984251969,
                    "duration": 0.043988249999998175
                },
                {
                    "name": "D#2",
                    "midi": 39,
                    "time": 43.63634399999999,
                    "velocity": 0.2755905511811024,
                    "duration": 0.08797650000000345
                },
                {
                    "name": "A#2",
                    "midi": 46,
                    "time": 43.92226762499999,
                    "velocity": 0.2440944881889764,
                    "duration": 0.10997062499999544
                },
                {
                    "name": "F3",
                    "midi": 53,
                    "time": 43.94426174999999,
                    "velocity": 0.25984251968503935,
                    "duration": 0.08797649999999635
                },
                {
                    "name": "G#3",
                    "midi": 56,
                    "time": 43.96625587499999,
                    "velocity": 0.2677165354330709,
                    "duration": 0.06598237499999726
                },
                {
                    "name": "D4",
                    "midi": 62,
                    "time": 43.98824999999999,
                    "velocity": 0.28346456692913385,
                    "duration": 0.043988249999998175
                },
                {
                    "name": "A#2",
                    "midi": 46,
                    "time": 44.64807374999999,
                    "velocity": 0.25196850393700787,
                    "duration": 0.08797649999999635
                },
                {
                    "name": "F3",
                    "midi": 53,
                    "time": 44.64807374999999,
                    "velocity": 0.25196850393700787,
                    "duration": 0.08797649999999635
                },
                {
                    "name": "G#3",
                    "midi": 56,
                    "time": 44.67006787499999,
                    "velocity": 0.2677165354330709,
                    "duration": 0.06598237499999726
                },
                {
                    "name": "D4",
                    "midi": 62,
                    "time": 44.692061999999986,
                    "velocity": 0.28346456692913385,
                    "duration": 0.043988249999998175
                },
                {
                    "name": "D#2",
                    "midi": 39,
                    "time": 45.043967999999985,
                    "velocity": 0.2755905511811024,
                    "duration": 0.08797650000000345
                },
                {
                    "name": "A#2",
                    "midi": 46,
                    "time": 45.35188574999999,
                    "velocity": 0.2755905511811024,
                    "duration": 0.08797649999999635
                },
                {
                    "name": "G3",
                    "midi": 55,
                    "time": 45.373879874999986,
                    "velocity": 0.29133858267716534,
                    "duration": 0.06598237499999726
                },
                {
                    "name": "D#4",
                    "midi": 63,
                    "time": 45.395873999999985,
                    "velocity": 0.30708661417322836,
                    "duration": 0.043988249999998175
                },
                {
                    "name": "A#2",
                    "midi": 46,
                    "time": 46.055697749999986,
                    "velocity": 0.29133858267716534,
                    "duration": 0.08797649999999635
                },
                {
                    "name": "G3",
                    "midi": 55,
                    "time": 46.077691874999985,
                    "velocity": 0.30708661417322836,
                    "duration": 0.06598237499999726
                },
                {
                    "name": "D#4",
                    "midi": 63,
                    "time": 46.099685999999984,
                    "velocity": 0.3228346456692913,
                    "duration": 0.043988249999998175
                },
                {
                    "name": "D#2",
                    "midi": 39,
                    "time": 46.451591999999984,
                    "velocity": 0.41732283464566927,
                    "duration": 0.08797650000000345
                },
                {
                    "name": "A#2",
                    "midi": 46,
                    "time": 46.759509749999985,
                    "velocity": 0.33070866141732286,
                    "duration": 0.08797649999999635
                },
                {
                    "name": "G3",
                    "midi": 55,
                    "time": 46.781503874999984,
                    "velocity": 0.3543307086614173,
                    "duration": 0.06598237499999726
                },
                {
                    "name": "D#4",
                    "midi": 63,
                    "time": 46.80349799999998,
                    "velocity": 0.3779527559055118,
                    "duration": 0.043988249999998175
                },
                {
                    "name": "A#2",
                    "midi": 46,
                    "time": 47.463321749999984,
                    "velocity": 0.3464566929133858,
                    "duration": 0.08797649999999635
                },
                {
                    "name": "G3",
                    "midi": 55,
                    "time": 47.48531587499998,
                    "velocity": 0.36220472440944884,
                    "duration": 0.06598237499999726
                },
                {
                    "name": "D#4",
                    "midi": 63,
                    "time": 47.50730999999998,
                    "velocity": 0.3700787401574803,
                    "duration": 0.043988249999998175
                },
                {
                    "name": "D#2",
                    "midi": 39,
                    "time": 47.85921599999998,
                    "velocity": 0.3779527559055118,
                    "duration": 0.08797650000000345
                },
                {
                    "name": "A#2",
                    "midi": 46,
                    "time": 48.167133749999984,
                    "velocity": 0.28346456692913385,
                    "duration": 0.08797649999999635
                },
                {
                    "name": "G3",
                    "midi": 55,
                    "time": 48.18912787499998,
                    "velocity": 0.2992125984251969,
                    "duration": 0.06598237499999726
                },
                {
                    "name": "D#4",
                    "midi": 63,
                    "time": 48.21112199999998,
                    "velocity": 0.31496062992125984,
                    "duration": 0.043988249999998175
                },
                {
                    "name": "A#2",
                    "midi": 46,
                    "time": 48.87094574999998,
                    "velocity": 0.2755905511811024,
                    "duration": 0.08797649999999635
                },
                {
                    "name": "G3",
                    "midi": 55,
                    "time": 48.89293987499998,
                    "velocity": 0.29133858267716534,
                    "duration": 0.06598237499999726
                },
                {
                    "name": "D#4",
                    "midi": 63,
                    "time": 48.91493399999998,
                    "velocity": 0.2992125984251969,
                    "duration": 0.043988249999998175
                },
                {
                    "name": "D#2",
                    "midi": 39,
                    "time": 49.26683999999998,
                    "velocity": 0.2755905511811024,
                    "duration": 0.08797650000000345
                },
                {
                    "name": "A#2",
                    "midi": 46,
                    "time": 49.55276362499998,
                    "velocity": 0.2440944881889764,
                    "duration": 0.10997062499999544
                },
                {
                    "name": "F3",
                    "midi": 53,
                    "time": 49.57475774999998,
                    "velocity": 0.25984251968503935,
                    "duration": 0.08797649999999635
                },
                {
                    "name": "G#3",
                    "midi": 56,
                    "time": 49.59675187499998,
                    "velocity": 0.2677165354330709,
                    "duration": 0.06598237499999726
                },
                {
                    "name": "D4",
                    "midi": 62,
                    "time": 49.61874599999998,
                    "velocity": 0.28346456692913385,
                    "duration": 0.043988249999998175
                },
                {
                    "name": "A#2",
                    "midi": 46,
                    "time": 50.27856974999998,
                    "velocity": 0.25196850393700787,
                    "duration": 0.08797649999999635
                },
                {
                    "name": "F3",
                    "midi": 53,
                    "time": 50.27856974999998,
                    "velocity": 0.25196850393700787,
                    "duration": 0.08797649999999635
                },
                {
                    "name": "G#3",
                    "midi": 56,
                    "time": 50.30056387499998,
                    "velocity": 0.2677165354330709,
                    "duration": 0.06598237499999726
                },
                {
                    "name": "D4",
                    "midi": 62,
                    "time": 50.32255799999998,
                    "velocity": 0.28346456692913385,
                    "duration": 0.043988249999998175
                },
                {
                    "name": "D#2",
                    "midi": 39,
                    "time": 50.67446399999998,
                    "velocity": 0.2755905511811024,
                    "duration": 0.08797650000000345
                },
                {
                    "name": "A#2",
                    "midi": 46,
                    "time": 50.98238174999998,
                    "velocity": 0.2755905511811024,
                    "duration": 0.08797649999999635
                },
                {
                    "name": "G3",
                    "midi": 55,
                    "time": 51.00437587499998,
                    "velocity": 0.29133858267716534,
                    "duration": 0.06598237499999726
                },
                {
                    "name": "D#4",
                    "midi": 63,
                    "time": 51.02636999999998,
                    "velocity": 0.30708661417322836,
                    "duration": 0.043988249999998175
                },
                {
                    "name": "A#2",
                    "midi": 46,
                    "time": 51.68619374999998,
                    "velocity": 0.2755905511811024,
                    "duration": 0.08797649999999635
                },
                {
                    "name": "G3",
                    "midi": 55,
                    "time": 51.70818787499998,
                    "velocity": 0.29133858267716534,
                    "duration": 0.06598237499999726
                },
                {
                    "name": "D#4",
                    "midi": 63,
                    "time": 51.73018199999998,
                    "velocity": 0.30708661417322836,
                    "duration": 0.043988249999998175
                },
                {
                    "name": "D#2",
                    "midi": 39,
                    "time": 52.08208799999998,
                    "velocity": 0.28346456692913385,
                    "duration": 0.08797650000000345
                },
                {
                    "name": "C3",
                    "midi": 48,
                    "time": 52.39000574999998,
                    "velocity": 0.28346456692913385,
                    "duration": 0.08797649999999635
                },
                {
                    "name": "G#3",
                    "midi": 56,
                    "time": 52.41199987499998,
                    "velocity": 0.2992125984251969,
                    "duration": 0.06598237499999726
                },
                {
                    "name": "D#4",
                    "midi": 63,
                    "time": 52.43399399999998,
                    "velocity": 0.31496062992125984,
                    "duration": 0.043988249999998175
                },
                {
                    "name": "D#3",
                    "midi": 51,
                    "time": 53.09381774999998,
                    "velocity": 0.2755905511811024,
                    "duration": 0.08797649999999635
                },
                {
                    "name": "A#3",
                    "midi": 58,
                    "time": 53.11581187499998,
                    "velocity": 0.29133858267716534,
                    "duration": 0.06598237499999726
                },
                {
                    "name": "D#4",
                    "midi": 63,
                    "time": 53.137805999999976,
                    "velocity": 0.30708661417322836,
                    "duration": 0.043988249999998175
                },
                {
                    "name": "D#2",
                    "midi": 39,
                    "time": 53.489711999999976,
                    "velocity": 0.28346456692913385,
                    "duration": 0.08797650000000345
                },
                {
                    "name": "A#2",
                    "midi": 46,
                    "time": 53.77563562499998,
                    "velocity": 0.28346456692913385,
                    "duration": 0.10997062499999544
                },
                {
                    "name": "F3",
                    "midi": 53,
                    "time": 53.79762974999998,
                    "velocity": 0.2992125984251969,
                    "duration": 0.08797649999999635
                },
                {
                    "name": "G#3",
                    "midi": 56,
                    "time": 53.81962387499998,
                    "velocity": 0.2992125984251969,
                    "duration": 0.06598237499999726
                },
                {
                    "name": "D4",
                    "midi": 62,
                    "time": 53.841617999999976,
                    "velocity": 0.31496062992125984,
                    "duration": 0.043988249999998175
                },
                {
                    "name": "D#3",
                    "midi": 51,
                    "time": 54.50144174999998,
                    "velocity": 0.2755905511811024,
                    "duration": 0.08797649999999635
                },
                {
                    "name": "G3",
                    "midi": 55,
                    "time": 54.523435874999976,
                    "velocity": 0.29133858267716534,
                    "duration": 0.06598237499999726
                },
                {
                    "name": "D#4",
                    "midi": 63,
                    "time": 54.545429999999975,
                    "velocity": 0.30708661417322836,
                    "duration": 0.043988249999998175
                },
                {
                    "name": "D#2",
                    "midi": 39,
                    "time": 54.897335999999974,
                    "velocity": 0.28346456692913385,
                    "duration": 0.08797650000000345
                },
                {
                    "name": "C3",
                    "midi": 48,
                    "time": 55.205253749999976,
                    "velocity": 0.28346456692913385,
                    "duration": 0.08797649999999635
                },
                {
                    "name": "G#3",
                    "midi": 56,
                    "time": 55.227247874999975,
                    "velocity": 0.2992125984251969,
                    "duration": 0.06598237499999726
                },
                {
                    "name": "D#4",
                    "midi": 63,
                    "time": 55.249241999999974,
                    "velocity": 0.31496062992125984,
                    "duration": 0.043988249999998175
                },
                {
                    "name": "D#3",
                    "midi": 51,
                    "time": 55.909065749999975,
                    "velocity": 0.2755905511811024,
                    "duration": 0.08797649999999635
                },
                {
                    "name": "A#3",
                    "midi": 58,
                    "time": 55.931059874999974,
                    "velocity": 0.29133858267716534,
                    "duration": 0.06598237499999726
                },
                {
                    "name": "D#4",
                    "midi": 63,
                    "time": 55.95305399999997,
                    "velocity": 0.30708661417322836,
                    "duration": 0.043988249999998175
                },
                {
                    "name": "D#2",
                    "midi": 39,
                    "time": 56.30495999999997,
                    "velocity": 0.28346456692913385,
                    "duration": 0.08797650000000345
                },
                {
                    "name": "A#2",
                    "midi": 46,
                    "time": 56.590883624999975,
                    "velocity": 0.28346456692913385,
                    "duration": 0.10997062499999544
                },
                {
                    "name": "F3",
                    "midi": 53,
                    "time": 56.612877749999974,
                    "velocity": 0.2992125984251969,
                    "duration": 0.08797649999999635
                },
                {
                    "name": "G#3",
                    "midi": 56,
                    "time": 56.63487187499997,
                    "velocity": 0.2992125984251969,
                    "duration": 0.06598237499999726
                },
                {
                    "name": "D4",
                    "midi": 62,
                    "time": 56.65686599999997,
                    "velocity": 0.31496062992125984,
                    "duration": 0.043988249999998175
                },
                {
                    "name": "D#3",
                    "midi": 51,
                    "time": 57.31668974999997,
                    "velocity": 0.2755905511811024,
                    "duration": 0.08797649999999635
                },
                {
                    "name": "G3",
                    "midi": 55,
                    "time": 57.33868387499997,
                    "velocity": 0.29133858267716534,
                    "duration": 0.06598237499999726
                },
                {
                    "name": "D#4",
                    "midi": 63,
                    "time": 57.36067799999997,
                    "velocity": 0.30708661417322836,
                    "duration": 0.043988249999998175
                },
                {
                    "name": "D#2",
                    "midi": 39,
                    "time": 57.71258399999997,
                    "velocity": 0.28346456692913385,
                    "duration": 0.08797650000000345
                },
                {
                    "name": "C3",
                    "midi": 48,
                    "time": 58.02050174999997,
                    "velocity": 0.28346456692913385,
                    "duration": 0.08797649999999635
                },
                {
                    "name": "G#3",
                    "midi": 56,
                    "time": 58.04249587499997,
                    "velocity": 0.2992125984251969,
                    "duration": 0.06598237499999726
                },
                {
                    "name": "D#4",
                    "midi": 63,
                    "time": 58.06448999999997,
                    "velocity": 0.31496062992125984,
                    "duration": 0.043988249999998175
                },
                {
                    "name": "D#3",
                    "midi": 51,
                    "time": 58.72431374999997,
                    "velocity": 0.2755905511811024,
                    "duration": 0.08797649999999635
                },
                {
                    "name": "A#3",
                    "midi": 58,
                    "time": 58.74630787499997,
                    "velocity": 0.29133858267716534,
                    "duration": 0.06598237499999726
                },
                {
                    "name": "D#4",
                    "midi": 63,
                    "time": 58.76830199999997,
                    "velocity": 0.30708661417322836,
                    "duration": 0.043988249999998175
                },
                {
                    "name": "D#2",
                    "midi": 39,
                    "time": 59.12020799999997,
                    "velocity": 0.28346456692913385,
                    "duration": 0.08797650000000345
                },
                {
                    "name": "A#2",
                    "midi": 46,
                    "time": 59.40613162499997,
                    "velocity": 0.28346456692913385,
                    "duration": 0.10997062499999544
                },
                {
                    "name": "F3",
                    "midi": 53,
                    "time": 59.42812574999997,
                    "velocity": 0.2992125984251969,
                    "duration": 0.08797649999999635
                },
                {
                    "name": "G#3",
                    "midi": 56,
                    "time": 59.45011987499997,
                    "velocity": 0.2992125984251969,
                    "duration": 0.06598237499999726
                },
                {
                    "name": "D4",
                    "midi": 62,
                    "time": 59.47211399999997,
                    "velocity": 0.31496062992125984,
                    "duration": 0.043988249999998175
                },
                {
                    "name": "D#3",
                    "midi": 51,
                    "time": 60.13193774999997,
                    "velocity": 0.2755905511811024,
                    "duration": 0.08797649999999635
                },
                {
                    "name": "G3",
                    "midi": 55,
                    "time": 60.15393187499997,
                    "velocity": 0.29133858267716534,
                    "duration": 0.06598237499999726
                },
                {
                    "name": "D#4",
                    "midi": 63,
                    "time": 60.17592599999997,
                    "velocity": 0.30708661417322836,
                    "duration": 0.043988249999998175
                },
                {
                    "name": "D#2",
                    "midi": 39,
                    "time": 60.52783199999997,
                    "velocity": 0.28346456692913385,
                    "duration": 0.08797650000000345
                },
                {
                    "name": "C3",
                    "midi": 48,
                    "time": 60.83574974999997,
                    "velocity": 0.28346456692913385,
                    "duration": 0.08797649999999635
                },
                {
                    "name": "G#3",
                    "midi": 56,
                    "time": 60.85774387499997,
                    "velocity": 0.2992125984251969,
                    "duration": 0.06598237499999726
                },
                {
                    "name": "D#4",
                    "midi": 63,
                    "time": 60.87973799999997,
                    "velocity": 0.31496062992125984,
                    "duration": 0.043988249999998175
                },
                {
                    "name": "D#3",
                    "midi": 51,
                    "time": 61.53956174999997,
                    "velocity": 0.2755905511811024,
                    "duration": 0.08797649999999635
                },
                {
                    "name": "A#3",
                    "midi": 58,
                    "time": 61.56155587499997,
                    "velocity": 0.29133858267716534,
                    "duration": 0.06598237499999726
                },
                {
                    "name": "D#4",
                    "midi": 63,
                    "time": 61.58354999999997,
                    "velocity": 0.30708661417322836,
                    "duration": 0.043988249999998175
                },
                {
                    "name": "D#2",
                    "midi": 39,
                    "time": 61.93545599999997,
                    "velocity": 0.28346456692913385,
                    "duration": 0.08797650000000345
                },
                {
                    "name": "A#2",
                    "midi": 46,
                    "time": 62.22137962499997,
                    "velocity": 0.28346456692913385,
                    "duration": 0.10997062499999544
                },
                {
                    "name": "F3",
                    "midi": 53,
                    "time": 62.24337374999997,
                    "velocity": 0.2992125984251969,
                    "duration": 0.08797649999999635
                },
                {
                    "name": "G#3",
                    "midi": 56,
                    "time": 62.26536787499997,
                    "velocity": 0.2992125984251969,
                    "duration": 0.06598237499999726
                },
                {
                    "name": "D4",
                    "midi": 62,
                    "time": 62.287361999999966,
                    "velocity": 0.31496062992125984,
                    "duration": 0.043988249999998175
                },
                {
                    "name": "A#1",
                    "midi": 34,
                    "time": 63.29909174999997,
                    "velocity": 0.48031496062992124,
                    "duration": 0.043988249999998175
                },
                {
                    "name": "D#2",
                    "midi": 39,
                    "time": 63.343079999999965,
                    "velocity": 0.5354330708661418,
                    "duration": 0.46920800000000185
                },
                {
                    "name": "G2",
                    "midi": 43,
                    "time": 63.81228799999997,
                    "velocity": 0.5039370078740157,
                    "duration": 0.058650999999997566
                },
                {
                    "name": "G#2",
                    "midi": 44,
                    "time": 63.92958999999996,
                    "velocity": 0.5039370078740157,
                    "duration": 0.058650999999997566
                },
                {
                    "name": "A2",
                    "midi": 45,
                    "time": 64.04689199999996,
                    "velocity": 0.5354330708661418,
                    "duration": 0.058650999999997566
                },
                {
                    "name": "A#2",
                    "midi": 46,
                    "time": 64.16419399999995,
                    "velocity": 0.5039370078740157,
                    "duration": 0.058650999999997566
                },
                {
                    "name": "D#3",
                    "midi": 51,
                    "time": 64.28149599999995,
                    "velocity": 0.5039370078740157,
                    "duration": 0.058650999999997566
                },
                {
                    "name": "G3",
                    "midi": 55,
                    "time": 64.39879799999994,
                    "velocity": 0.5354330708661418,
                    "duration": 0.058650999999997566
                },
                {
                    "name": "G#3",
                    "midi": 56,
                    "time": 64.51609999999994,
                    "velocity": 0.5039370078740157,
                    "duration": 0.058650999999997566
                },
                {
                    "name": "A3",
                    "midi": 57,
                    "time": 64.63340199999993,
                    "velocity": 0.5039370078740157,
                    "duration": 0.021994125000006193
                },
                {
                    "name": "A3",
                    "midi": 57,
                    "time": 64.66272749999995,
                    "velocity": 0.4409448818897638,
                    "duration": 0.029325499999998783
                },
                {
                    "name": "A#3",
                    "midi": 58,
                    "time": 64.69205299999994,
                    "velocity": 0.3937007874015748,
                    "duration": 0.029325499999998783
                },
                {
                    "name": "C4",
                    "midi": 60,
                    "time": 64.72137849999994,
                    "velocity": 0.36220472440944884,
                    "duration": 0.029325499999998783
                },
                {
                    "name": "A#3",
                    "midi": 58,
                    "time": 64.75070399999994,
                    "velocity": 0.4566929133858268,
                    "duration": 0.035190600000007066
                },
                {
                    "name": "C4",
                    "midi": 60,
                    "time": 64.78589459999995,
                    "velocity": 0.3937007874015748,
                    "duration": 0.035190600000007066
                },
                {
                    "name": "A#3",
                    "midi": 58,
                    "time": 64.82108519999996,
                    "velocity": 0.44881889763779526,
                    "duration": 0.035190600000007066
                },
                {
                    "name": "C4",
                    "midi": 60,
                    "time": 64.85627579999996,
                    "velocity": 0.3937007874015748,
                    "duration": 0.035190600000007066
                },
                {
                    "name": "A#3",
                    "midi": 58,
                    "time": 64.89146639999997,
                    "velocity": 0.4409448818897638,
                    "duration": 0.035190600000007066
                },
                {
                    "name": "C4",
                    "midi": 60,
                    "time": 64.92665699999998,
                    "velocity": 0.3858267716535433,
                    "duration": 0.035190600000007066
                },
                {
                    "name": "A#3",
                    "midi": 58,
                    "time": 64.96184759999998,
                    "velocity": 0.4330708661417323,
                    "duration": 0.035190600000007066
                },
                {
                    "name": "C4",
                    "midi": 60,
                    "time": 64.99703819999999,
                    "velocity": 0.3937007874015748,
                    "duration": 0.035190600000007066
                },
                {
                    "name": "A#3",
                    "midi": 58,
                    "time": 65.0322288,
                    "velocity": 0.4409448818897638,
                    "duration": 0.035190600000007066
                },
                {
                    "name": "C4",
                    "midi": 60,
                    "time": 65.0674194,
                    "velocity": 0.3779527559055118,
                    "duration": 0.035190600000007066
                },
                {
                    "name": "A#3",
                    "midi": 58,
                    "time": 65.10261000000001,
                    "velocity": 0.4330708661417323,
                    "duration": 0.035190600000007066
                },
                {
                    "name": "C4",
                    "midi": 60,
                    "time": 65.13780060000002,
                    "velocity": 0.3937007874015748,
                    "duration": 0.035190600000007066
                },
                {
                    "name": "A#3",
                    "midi": 58,
                    "time": 65.17299120000003,
                    "velocity": 0.4566929133858268,
                    "duration": 0.035190600000007066
                },
                {
                    "name": "C4",
                    "midi": 60,
                    "time": 65.20818180000003,
                    "velocity": 0.4015748031496063,
                    "duration": 0.035190600000007066
                },
                {
                    "name": "A#3",
                    "midi": 58,
                    "time": 65.24337240000004,
                    "velocity": 0.47244094488188976,
                    "duration": 0.035190600000007066
                },
                {
                    "name": "C4",
                    "midi": 60,
                    "time": 65.27856300000005,
                    "velocity": 0.4409448818897638,
                    "duration": 0.043988249999998175
                },
                {
                    "name": "A#3",
                    "midi": 58,
                    "time": 65.32255125000005,
                    "velocity": 0.49606299212598426,
                    "duration": 0.043988249999998175
                },
                {
                    "name": "A3",
                    "midi": 57,
                    "time": 65.36653950000004,
                    "velocity": 0.47244094488188976,
                    "duration": 0.043988249999998175
                },
                {
                    "name": "A#3",
                    "midi": 58,
                    "time": 65.41052775000004,
                    "velocity": 0.47244094488188976,
                    "duration": 0.043988249999998175
                },
                {
                    "name": "D#4",
                    "midi": 63,
                    "time": 65.45451600000004,
                    "velocity": 0.5826771653543307,
                    "duration": 0.08797649999999635
                },
                {
                    "name": "A#2",
                    "midi": 46,
                    "time": 65.76243375000004,
                    "velocity": 0.4094488188976378,
                    "duration": 0.08797650000001056
                },
                {
                    "name": "G3",
                    "midi": 55,
                    "time": 65.78442787500005,
                    "velocity": 0.4409448818897638,
                    "duration": 0.06598237500000437
                },
                {
                    "name": "D#4",
                    "midi": 63,
                    "time": 65.80642200000005,
                    "velocity": 0.4566929133858268,
                    "duration": 0.043988249999998175
                },
                {
                    "name": "D#2",
                    "midi": 39,
                    "time": 66.15832800000005,
                    "velocity": 0.2755905511811024,
                    "duration": 0.08797649999999635
                },
                {
                    "name": "A#2",
                    "midi": 46,
                    "time": 66.44425162500005,
                    "velocity": 0.2440944881889764,
                    "duration": 0.10997062500001675
                },
                {
                    "name": "F3",
                    "midi": 53,
                    "time": 66.46624575000006,
                    "velocity": 0.25984251968503935,
                    "duration": 0.08797650000001056
                },
                {
                    "name": "G#3",
                    "midi": 56,
                    "time": 66.48823987500006,
                    "velocity": 0.2677165354330709,
                    "duration": 0.06598237500000437
                },
                {
                    "name": "D4",
                    "midi": 62,
                    "time": 66.51023400000007,
                    "velocity": 0.28346456692913385,
                    "duration": 0.043988249999998175
                },
                {
                    "name": "A#2",
                    "midi": 46,
                    "time": 67.17005775000007,
                    "velocity": 0.25196850393700787,
                    "duration": 0.08797650000001056
                },
                {
                    "name": "F3",
                    "midi": 53,
                    "time": 67.17005775000007,
                    "velocity": 0.25196850393700787,
                    "duration": 0.08797650000001056
                },
                {
                    "name": "G#3",
                    "midi": 56,
                    "time": 67.19205187500008,
                    "velocity": 0.2677165354330709,
                    "duration": 0.06598237500000437
                },
                {
                    "name": "D4",
                    "midi": 62,
                    "time": 67.21404600000008,
                    "velocity": 0.28346456692913385,
                    "duration": 0.043988249999998175
                },
                {
                    "name": "D#2",
                    "midi": 39,
                    "time": 67.56595200000008,
                    "velocity": 0.2755905511811024,
                    "duration": 0.08797649999999635
                },
                {
                    "name": "A#2",
                    "midi": 46,
                    "time": 67.87386975000008,
                    "velocity": 0.25196850393700787,
                    "duration": 0.08797650000001056
                },
                {
                    "name": "G3",
                    "midi": 55,
                    "time": 67.89586387500009,
                    "velocity": 0.2755905511811024,
                    "duration": 0.06598237500000437
                },
                {
                    "name": "D#4",
                    "midi": 63,
                    "time": 67.9178580000001,
                    "velocity": 0.2992125984251969,
                    "duration": 0.043988249999998175
                },
                {
                    "name": "A#2",
                    "midi": 46,
                    "time": 68.5776817500001,
                    "velocity": 0.2440944881889764,
                    "duration": 0.08797650000001056
                },
                {
                    "name": "G3",
                    "midi": 55,
                    "time": 68.5996758750001,
                    "velocity": 0.2677165354330709,
                    "duration": 0.06598237500000437
                },
                {
                    "name": "D#4",
                    "midi": 63,
                    "time": 68.62167000000011,
                    "velocity": 0.28346456692913385,
                    "duration": 0.043988249999998175
                },
                {
                    "name": "A#1",
                    "midi": 34,
                    "time": 68.92958775000011,
                    "velocity": 0.48031496062992124,
                    "duration": 0.043988249999998175
                },
                {
                    "name": "D#2",
                    "midi": 39,
                    "time": 68.97357600000011,
                    "velocity": 0.5354330708661418,
                    "duration": 0.46920799999999474
                },
                {
                    "name": "G2",
                    "midi": 43,
                    "time": 69.4427840000001,
                    "velocity": 0.5039370078740157,
                    "duration": 0.058650999999997566
                },
                {
                    "name": "G#2",
                    "midi": 44,
                    "time": 69.5600860000001,
                    "velocity": 0.5039370078740157,
                    "duration": 0.058650999999997566
                },
                {
                    "name": "A2",
                    "midi": 45,
                    "time": 69.6773880000001,
                    "velocity": 0.5354330708661418,
                    "duration": 0.058650999999997566
                },
                {
                    "name": "A#2",
                    "midi": 46,
                    "time": 69.79469000000009,
                    "velocity": 0.5039370078740157,
                    "duration": 0.058650999999997566
                },
                {
                    "name": "D#3",
                    "midi": 51,
                    "time": 69.91199200000008,
                    "velocity": 0.5039370078740157,
                    "duration": 0.058650999999997566
                },
                {
                    "name": "G3",
                    "midi": 55,
                    "time": 70.02929400000008,
                    "velocity": 0.5354330708661418,
                    "duration": 0.058650999999997566
                },
                {
                    "name": "G#3",
                    "midi": 56,
                    "time": 70.14659600000007,
                    "velocity": 0.5039370078740157,
                    "duration": 0.058650999999997566
                },
                {
                    "name": "A3",
                    "midi": 57,
                    "time": 70.26389800000007,
                    "velocity": 0.5039370078740157,
                    "duration": 0.021994125000006193
                },
                {
                    "name": "A3",
                    "midi": 57,
                    "time": 70.29322350000008,
                    "velocity": 0.4409448818897638,
                    "duration": 0.029325499999998783
                },
                {
                    "name": "A#3",
                    "midi": 58,
                    "time": 70.32254900000008,
                    "velocity": 0.3937007874015748,
                    "duration": 0.029325499999998783
                },
                {
                    "name": "C4",
                    "midi": 60,
                    "time": 70.35187450000008,
                    "velocity": 0.36220472440944884,
                    "duration": 0.029325499999998783
                },
                {
                    "name": "A#3",
                    "midi": 58,
                    "time": 70.38120000000008,
                    "velocity": 0.4566929133858268,
                    "duration": 0.035190600000007066
                },
                {
                    "name": "C4",
                    "midi": 60,
                    "time": 70.41639060000008,
                    "velocity": 0.3937007874015748,
                    "duration": 0.035190600000007066
                },
                {
                    "name": "A#3",
                    "midi": 58,
                    "time": 70.45158120000009,
                    "velocity": 0.44881889763779526,
                    "duration": 0.035190600000007066
                },
                {
                    "name": "C4",
                    "midi": 60,
                    "time": 70.4867718000001,
                    "velocity": 0.3937007874015748,
                    "duration": 0.035190600000007066
                },
                {
                    "name": "A#3",
                    "midi": 58,
                    "time": 70.5219624000001,
                    "velocity": 0.4409448818897638,
                    "duration": 0.035190600000007066
                },
                {
                    "name": "C4",
                    "midi": 60,
                    "time": 70.55715300000011,
                    "velocity": 0.3858267716535433,
                    "duration": 0.035190600000007066
                },
                {
                    "name": "A#3",
                    "midi": 58,
                    "time": 70.59234360000012,
                    "velocity": 0.4330708661417323,
                    "duration": 0.035190600000007066
                },
                {
                    "name": "C4",
                    "midi": 60,
                    "time": 70.62753420000013,
                    "velocity": 0.3937007874015748,
                    "duration": 0.035190600000007066
                },
                {
                    "name": "A#3",
                    "midi": 58,
                    "time": 70.66272480000013,
                    "velocity": 0.4409448818897638,
                    "duration": 0.035190600000007066
                },
                {
                    "name": "C4",
                    "midi": 60,
                    "time": 70.69791540000014,
                    "velocity": 0.3779527559055118,
                    "duration": 0.035190600000007066
                },
                {
                    "name": "A#3",
                    "midi": 58,
                    "time": 70.73310600000015,
                    "velocity": 0.4330708661417323,
                    "duration": 0.035190600000007066
                },
                {
                    "name": "C4",
                    "midi": 60,
                    "time": 70.76829660000016,
                    "velocity": 0.3937007874015748,
                    "duration": 0.035190600000007066
                },
                {
                    "name": "A#3",
                    "midi": 58,
                    "time": 70.80348720000016,
                    "velocity": 0.4566929133858268,
                    "duration": 0.035190600000007066
                },
                {
                    "name": "C4",
                    "midi": 60,
                    "time": 70.83867780000017,
                    "velocity": 0.4015748031496063,
                    "duration": 0.035190600000007066
                },
                {
                    "name": "A#3",
                    "midi": 58,
                    "time": 70.87386840000018,
                    "velocity": 0.47244094488188976,
                    "duration": 0.035190600000007066
                },
                {
                    "name": "C4",
                    "midi": 60,
                    "time": 70.90905900000018,
                    "velocity": 0.4409448818897638,
                    "duration": 0.043988249999998175
                },
                {
                    "name": "A#3",
                    "midi": 58,
                    "time": 70.95304725000018,
                    "velocity": 0.49606299212598426,
                    "duration": 0.043988249999998175
                },
                {
                    "name": "A3",
                    "midi": 57,
                    "time": 70.99703550000018,
                    "velocity": 0.47244094488188976,
                    "duration": 0.043988249999998175
                },
                {
                    "name": "A#3",
                    "midi": 58,
                    "time": 71.04102375000018,
                    "velocity": 0.47244094488188976,
                    "duration": 0.043988249999998175
                },
                {
                    "name": "G4",
                    "midi": 67,
                    "time": 71.08501200000018,
                    "velocity": 0.5826771653543307,
                    "duration": 0.08797649999999635
                },
                {
                    "name": "D#4",
                    "midi": 63,
                    "time": 71.08501200000018,
                    "velocity": 0.5354330708661418,
                    "duration": 0.08797649999999635
                },
                {
                    "name": "A#2",
                    "midi": 46,
                    "time": 71.39292975000018,
                    "velocity": 0.44881889763779526,
                    "duration": 0.08797650000001056
                },
                {
                    "name": "G3",
                    "midi": 55,
                    "time": 71.41492387500018,
                    "velocity": 0.48031496062992124,
                    "duration": 0.06598237500000437
                },
                {
                    "name": "D#4",
                    "midi": 63,
                    "time": 71.43691800000019,
                    "velocity": 0.49606299212598426,
                    "duration": 0.043988249999998175
                },
                {
                    "name": "D#2",
                    "midi": 39,
                    "time": 71.78882400000019,
                    "velocity": 0.2755905511811024,
                    "duration": 0.08797649999999635
                },
                {
                    "name": "A#2",
                    "midi": 46,
                    "time": 72.07474762500019,
                    "velocity": 0.2440944881889764,
                    "duration": 0.10997062500001675
                },
                {
                    "name": "F3",
                    "midi": 53,
                    "time": 72.09674175000019,
                    "velocity": 0.25984251968503935,
                    "duration": 0.08797650000001056
                },
                {
                    "name": "G#3",
                    "midi": 56,
                    "time": 72.1187358750002,
                    "velocity": 0.2677165354330709,
                    "duration": 0.06598237500000437
                },
                {
                    "name": "D4",
                    "midi": 62,
                    "time": 72.1407300000002,
                    "velocity": 0.28346456692913385,
                    "duration": 0.043988249999998175
                },
                {
                    "name": "A#2",
                    "midi": 46,
                    "time": 72.8115508125002,
                    "velocity": 0.1968503937007874,
                    "duration": 0.07697943749998615
                },
                {
                    "name": "F3",
                    "midi": 53,
                    "time": 72.8225478750002,
                    "velocity": 0.2204724409448819,
                    "duration": 0.06598237499999016
                },
                {
                    "name": "G#3",
                    "midi": 56,
                    "time": 72.83354493750019,
                    "velocity": 0.2677165354330709,
                    "duration": 0.054985312499994166
                },
                {
                    "name": "D4",
                    "midi": 62,
                    "time": 72.84454200000019,
                    "velocity": 0.28346456692913385,
                    "duration": 0.043988249999998175
                },
                {
                    "name": "D#2",
                    "midi": 39,
                    "time": 73.19644800000019,
                    "velocity": 0.2755905511811024,
                    "duration": 0.08797649999999635
                },
                {
                    "name": "A#2",
                    "midi": 46,
                    "time": 73.50436575000019,
                    "velocity": 0.25196850393700787,
                    "duration": 0.08797650000001056
                },
                {
                    "name": "G3",
                    "midi": 55,
                    "time": 73.5263598750002,
                    "velocity": 0.2755905511811024,
                    "duration": 0.06598237500000437
                },
                {
                    "name": "D#4",
                    "midi": 63,
                    "time": 73.5483540000002,
                    "velocity": 0.2992125984251969,
                    "duration": 0.043988249999998175
                },
                {
                    "name": "A#2",
                    "midi": 46,
                    "time": 74.2081777500002,
                    "velocity": 0.2440944881889764,
                    "duration": 0.08797650000001056
                },
                {
                    "name": "G3",
                    "midi": 55,
                    "time": 74.23017187500021,
                    "velocity": 0.2677165354330709,
                    "duration": 0.06598237500000437
                },
                {
                    "name": "D#4",
                    "midi": 63,
                    "time": 74.25216600000022,
                    "velocity": 0.28346456692913385,
                    "duration": 0.043988249999998175
                },
                {
                    "name": "D#2",
                    "midi": 39,
                    "time": 74.60407200000022,
                    "velocity": 0.2755905511811024,
                    "duration": 0.08797649999999635
                },
                {
                    "name": "A#2",
                    "midi": 46,
                    "time": 74.91198975000022,
                    "velocity": 0.2677165354330709,
                    "duration": 0.08797650000001056
                },
                {
                    "name": "G3",
                    "midi": 55,
                    "time": 74.93398387500022,
                    "velocity": 0.2755905511811024,
                    "duration": 0.06598237500000437
                },
                {
                    "name": "D#4",
                    "midi": 63,
                    "time": 74.95597800000023,
                    "velocity": 0.28346456692913385,
                    "duration": 0.043988249999998175
                },
                {
                    "name": "A#2",
                    "midi": 46,
                    "time": 75.61580175000023,
                    "velocity": 0.2677165354330709,
                    "duration": 0.08797650000001056
                },
                {
                    "name": "G3",
                    "midi": 55,
                    "time": 75.63779587500024,
                    "velocity": 0.2755905511811024,
                    "duration": 0.06598237500000437
                },
                {
                    "name": "D#4",
                    "midi": 63,
                    "time": 75.65979000000024,
                    "velocity": 0.28346456692913385,
                    "duration": 0.043988249999998175
                },
                {
                    "name": "D#2",
                    "midi": 39,
                    "time": 76.01169600000024,
                    "velocity": 0.2755905511811024,
                    "duration": 0.08797649999999635
                },
                {
                    "name": "A#2",
                    "midi": 46,
                    "time": 76.31961375000024,
                    "velocity": 0.25984251968503935,
                    "duration": 0.08797650000001056
                },
                {
                    "name": "G3",
                    "midi": 55,
                    "time": 76.34160787500025,
                    "velocity": 0.29133858267716534,
                    "duration": 0.06598237500000437
                },
                {
                    "name": "D#4",
                    "midi": 63,
                    "time": 76.36360200000026,
                    "velocity": 0.2755905511811024,
                    "duration": 0.06598237500000437
                },
                {
                    "name": "A#2",
                    "midi": 46,
                    "time": 77.02342575000026,
                    "velocity": 0.2755905511811024,
                    "duration": 0.08797650000001056
                },
                {
                    "name": "G3",
                    "midi": 55,
                    "time": 77.04541987500026,
                    "velocity": 0.28346456692913385,
                    "duration": 0.06598237500000437
                },
                {
                    "name": "D#4",
                    "midi": 63,
                    "time": 77.06741400000027,
                    "velocity": 0.2992125984251969,
                    "duration": 0.043988249999998175
                },
                {
                    "name": "D#2",
                    "midi": 39,
                    "time": 77.41932000000027,
                    "velocity": 0.2755905511811024,
                    "duration": 0.08797649999999635
                },
                {
                    "name": "A#2",
                    "midi": 46,
                    "time": 77.70524362500026,
                    "velocity": 0.2440944881889764,
                    "duration": 0.10997062500001675
                },
                {
                    "name": "F3",
                    "midi": 53,
                    "time": 77.72723775000027,
                    "velocity": 0.25984251968503935,
                    "duration": 0.08797650000001056
                },
                {
                    "name": "G#3",
                    "midi": 56,
                    "time": 77.74923187500028,
                    "velocity": 0.2677165354330709,
                    "duration": 0.06598237500000437
                },
                {
                    "name": "D4",
                    "midi": 62,
                    "time": 77.77122600000028,
                    "velocity": 0.28346456692913385,
                    "duration": 0.043988249999998175
                },
                {
                    "name": "A#2",
                    "midi": 46,
                    "time": 78.44204681250028,
                    "velocity": 0.1968503937007874,
                    "duration": 0.07697943749998615
                },
                {
                    "name": "F3",
                    "midi": 53,
                    "time": 78.45304387500028,
                    "velocity": 0.2204724409448819,
                    "duration": 0.06598237499999016
                },
                {
                    "name": "G#3",
                    "midi": 56,
                    "time": 78.46404093750027,
                    "velocity": 0.2677165354330709,
                    "duration": 0.054985312499994166
                },
                {
                    "name": "D4",
                    "midi": 62,
                    "time": 78.47503800000027,
                    "velocity": 0.28346456692913385,
                    "duration": 0.043988249999998175
                },
                {
                    "name": "D#2",
                    "midi": 39,
                    "time": 78.82694400000027,
                    "velocity": 0.2755905511811024,
                    "duration": 0.08797649999999635
                },
                {
                    "name": "A#2",
                    "midi": 46,
                    "time": 79.13486175000027,
                    "velocity": 0.25984251968503935,
                    "duration": 0.08797650000001056
                },
                {
                    "name": "G3",
                    "midi": 55,
                    "time": 79.15685587500028,
                    "velocity": 0.29133858267716534,
                    "duration": 0.06598237500000437
                },
                {
                    "name": "D#4",
                    "midi": 63,
                    "time": 79.17885000000028,
                    "velocity": 0.2755905511811024,
                    "duration": 0.06598237500000437
                },
                {
                    "name": "A#2",
                    "midi": 46,
                    "time": 79.83867375000028,
                    "velocity": 0.2755905511811024,
                    "duration": 0.08797650000001056
                },
                {
                    "name": "G3",
                    "midi": 55,
                    "time": 79.86066787500029,
                    "velocity": 0.28346456692913385,
                    "duration": 0.06598237500000437
                },
                {
                    "name": "D#4",
                    "midi": 63,
                    "time": 79.8826620000003,
                    "velocity": 0.2992125984251969,
                    "duration": 0.043988249999998175
                },
                {
                    "name": "D#2",
                    "midi": 39,
                    "time": 80.2345680000003,
                    "velocity": 0.2755905511811024,
                    "duration": 0.08797649999999635
                },
                {
                    "name": "A#2",
                    "midi": 46,
                    "time": 80.5424857500003,
                    "velocity": 0.2677165354330709,
                    "duration": 0.08797650000001056
                },
                {
                    "name": "G3",
                    "midi": 55,
                    "time": 80.5644798750003,
                    "velocity": 0.2755905511811024,
                    "duration": 0.06598237500000437
                },
                {
                    "name": "D#4",
                    "midi": 63,
                    "time": 80.58647400000031,
                    "velocity": 0.28346456692913385,
                    "duration": 0.043988249999998175
                },
                {
                    "name": "A#2",
                    "midi": 46,
                    "time": 81.24629775000031,
                    "velocity": 0.2677165354330709,
                    "duration": 0.08797650000001056
                },
                {
                    "name": "G3",
                    "midi": 55,
                    "time": 81.26829187500032,
                    "velocity": 0.2755905511811024,
                    "duration": 0.06598237500000437
                },
                {
                    "name": "D#4",
                    "midi": 63,
                    "time": 81.29028600000032,
                    "velocity": 0.28346456692913385,
                    "duration": 0.043988249999998175
                },
                {
                    "name": "D#2",
                    "midi": 39,
                    "time": 81.64219200000032,
                    "velocity": 0.2755905511811024,
                    "duration": 0.08797649999999635
                },
                {
                    "name": "A#2",
                    "midi": 46,
                    "time": 81.95010975000032,
                    "velocity": 0.25984251968503935,
                    "duration": 0.08797650000001056
                },
                {
                    "name": "G3",
                    "midi": 55,
                    "time": 81.97210387500033,
                    "velocity": 0.29133858267716534,
                    "duration": 0.06598237500000437
                },
                {
                    "name": "D#4",
                    "midi": 63,
                    "time": 81.99409800000033,
                    "velocity": 0.2755905511811024,
                    "duration": 0.06598237500000437
                },
                {
                    "name": "A#2",
                    "midi": 46,
                    "time": 82.65392175000034,
                    "velocity": 0.2755905511811024,
                    "duration": 0.08797650000001056
                },
                {
                    "name": "G3",
                    "midi": 55,
                    "time": 82.67591587500034,
                    "velocity": 0.28346456692913385,
                    "duration": 0.06598237500000437
                },
                {
                    "name": "D#4",
                    "midi": 63,
                    "time": 82.69791000000035,
                    "velocity": 0.2992125984251969,
                    "duration": 0.043988249999998175
                },
                {
                    "name": "D#2",
                    "midi": 39,
                    "time": 83.04981600000035,
                    "velocity": 0.2755905511811024,
                    "duration": 0.08797649999999635
                },
                {
                    "name": "A#2",
                    "midi": 46,
                    "time": 83.33573962500034,
                    "velocity": 0.2440944881889764,
                    "duration": 0.10997062500001675
                },
                {
                    "name": "F3",
                    "midi": 53,
                    "time": 83.35773375000035,
                    "velocity": 0.25984251968503935,
                    "duration": 0.08797650000001056
                },
                {
                    "name": "G#3",
                    "midi": 56,
                    "time": 83.37972787500036,
                    "velocity": 0.2677165354330709,
                    "duration": 0.06598237500000437
                },
                {
                    "name": "D4",
                    "midi": 62,
                    "time": 83.40172200000036,
                    "velocity": 0.28346456692913385,
                    "duration": 0.043988249999998175
                },
                {
                    "name": "A#2",
                    "midi": 46,
                    "time": 84.07254281250036,
                    "velocity": 0.1968503937007874,
                    "duration": 0.07697943749998615
                },
                {
                    "name": "F3",
                    "midi": 53,
                    "time": 84.08353987500035,
                    "velocity": 0.2204724409448819,
                    "duration": 0.06598237499999016
                },
                {
                    "name": "G#3",
                    "midi": 56,
                    "time": 84.09453693750035,
                    "velocity": 0.2677165354330709,
                    "duration": 0.054985312499994166
                },
                {
                    "name": "D4",
                    "midi": 62,
                    "time": 84.10553400000035,
                    "velocity": 0.28346456692913385,
                    "duration": 0.043988249999998175
                },
                {
                    "name": "D#2",
                    "midi": 39,
                    "time": 84.45744000000035,
                    "velocity": 0.2755905511811024,
                    "duration": 0.08797649999999635
                },
                {
                    "name": "A#2",
                    "midi": 46,
                    "time": 84.76535775000035,
                    "velocity": 0.28346456692913385,
                    "duration": 0.08797650000001056
                },
                {
                    "name": "G3",
                    "midi": 55,
                    "time": 84.78735187500035,
                    "velocity": 0.2992125984251969,
                    "duration": 0.06598237500000437
                },
                {
                    "name": "D#4",
                    "midi": 63,
                    "time": 84.80934600000036,
                    "velocity": 0.30708661417322836,
                    "duration": 0.06598237500000437
                },
                {
                    "name": "D#3",
                    "midi": 51,
                    "time": 85.46916975000036,
                    "velocity": 0.2755905511811024,
                    "duration": 0.08797650000001056
                },
                {
                    "name": "A#3",
                    "midi": 58,
                    "time": 85.49116387500037,
                    "velocity": 0.28346456692913385,
                    "duration": 0.06598237500000437
                },
                {
                    "name": "G4",
                    "midi": 67,
                    "time": 85.51315800000037,
                    "velocity": 0.2992125984251969,
                    "duration": 0.043988249999998175
                },
                {
                    "name": "D#2",
                    "midi": 39,
                    "time": 85.86506400000037,
                    "velocity": 0.2755905511811024,
                    "duration": 0.08797649999999635
                },
                {
                    "name": "C3",
                    "midi": 48,
                    "time": 86.17298175000037,
                    "velocity": 0.2677165354330709,
                    "duration": 0.08797650000001056
                },
                {
                    "name": "G#3",
                    "midi": 56,
                    "time": 86.19497587500038,
                    "velocity": 0.28346456692913385,
                    "duration": 0.06598237500000437
                },
                {
                    "name": "D#4",
                    "midi": 63,
                    "time": 86.21697000000039,
                    "velocity": 0.2992125984251969,
                    "duration": 0.06598237500000437
                },
                {
                    "name": "D#3",
                    "midi": 51,
                    "time": 86.87679375000039,
                    "velocity": 0.2755905511811024,
                    "duration": 0.08797650000001056
                },
                {
                    "name": "A#3",
                    "midi": 58,
                    "time": 86.8987878750004,
                    "velocity": 0.28346456692913385,
                    "duration": 0.06598237500000437
                },
                {
                    "name": "G4",
                    "midi": 67,
                    "time": 86.9207820000004,
                    "velocity": 0.2992125984251969,
                    "duration": 0.043988249999998175
                },
                {
                    "name": "D#2",
                    "midi": 39,
                    "time": 87.2726880000004,
                    "velocity": 0.2755905511811024,
                    "duration": 0.08797649999999635
                },
                {
                    "name": "A#2",
                    "midi": 46,
                    "time": 87.5806057500004,
                    "velocity": 0.25984251968503935,
                    "duration": 0.08797650000001056
                },
                {
                    "name": "G#3",
                    "midi": 56,
                    "time": 87.60259987500041,
                    "velocity": 0.2755905511811024,
                    "duration": 0.06598237500000437
                },
                {
                    "name": "D4",
                    "midi": 62,
                    "time": 87.62459400000041,
                    "velocity": 0.28346456692913385,
                    "duration": 0.06598237500000437
                },
                {
                    "name": "D#3",
                    "midi": 51,
                    "time": 88.28441775000042,
                    "velocity": 0.2440944881889764,
                    "duration": 0.08797650000001056
                },
                {
                    "name": "A#3",
                    "midi": 58,
                    "time": 88.30641187500042,
                    "velocity": 0.2677165354330709,
                    "duration": 0.06598237500000437
                },
                {
                    "name": "G4",
                    "midi": 67,
                    "time": 88.32840600000043,
                    "velocity": 0.29133858267716534,
                    "duration": 0.043988249999998175
                },
                {
                    "name": "D#2",
                    "midi": 39,
                    "time": 88.68031200000043,
                    "velocity": 0.2755905511811024,
                    "duration": 0.08797649999999635
                },
                {
                    "name": "C3",
                    "midi": 48,
                    "time": 88.98822975000043,
                    "velocity": 0.25196850393700787,
                    "duration": 0.08797650000001056
                },
                {
                    "name": "G#3",
                    "midi": 56,
                    "time": 89.01022387500043,
                    "velocity": 0.2677165354330709,
                    "duration": 0.06598237500000437
                },
                {
                    "name": "D#4",
                    "midi": 63,
                    "time": 89.03221800000044,
                    "velocity": 0.2755905511811024,
                    "duration": 0.06598237500000437
                },
                {
                    "name": "D#3",
                    "midi": 51,
                    "time": 89.69204175000044,
                    "velocity": 0.25196850393700787,
                    "duration": 0.08797650000001056
                },
                {
                    "name": "A#3",
                    "midi": 58,
                    "time": 89.71403587500045,
                    "velocity": 0.2677165354330709,
                    "duration": 0.06598237500000437
                },
                {
                    "name": "G4",
                    "midi": 67,
                    "time": 89.73603000000045,
                    "velocity": 0.2755905511811024,
                    "duration": 0.032991187500002184
                },
                {
                    "name": "D#2",
                    "midi": 39,
                    "time": 90.08793600000045,
                    "velocity": 0.25984251968503935,
                    "duration": 0.08797649999999635
                },
                {
                    "name": "A#2",
                    "midi": 46,
                    "time": 90.39585375000046,
                    "velocity": 0.2125984251968504,
                    "duration": 0.08797650000001056
                },
                {
                    "name": "G#3",
                    "midi": 56,
                    "time": 90.41784787500046,
                    "velocity": 0.2204724409448819,
                    "duration": 0.06598237500000437
                },
                {
                    "name": "D4",
                    "midi": 62,
                    "time": 90.43984200000047,
                    "velocity": 0.2283464566929134,
                    "duration": 0.06598237500000437
                },
                {
                    "name": "D#3",
                    "midi": 51,
                    "time": 91.09966575000047,
                    "velocity": 0.2440944881889764,
                    "duration": 0.08797650000001056
                },
                {
                    "name": "A#3",
                    "midi": 58,
                    "time": 91.12165987500047,
                    "velocity": 0.25984251968503935,
                    "duration": 0.06598237500000437
                },
                {
                    "name": "G4",
                    "midi": 67,
                    "time": 91.14365400000048,
                    "velocity": 0.2755905511811024,
                    "duration": 0.043988249999998175
                },
                {
                    "name": "D#2",
                    "midi": 39,
                    "time": 91.49556000000048,
                    "velocity": 0.2755905511811024,
                    "duration": 0.08797649999999635
                },
                {
                    "name": "C3",
                    "midi": 48,
                    "time": 91.80347775000048,
                    "velocity": 0.2677165354330709,
                    "duration": 0.08797650000001056
                },
                {
                    "name": "G#3",
                    "midi": 56,
                    "time": 91.82547187500049,
                    "velocity": 0.28346456692913385,
                    "duration": 0.06598237500000437
                },
                {
                    "name": "D#4",
                    "midi": 63,
                    "time": 91.8474660000005,
                    "velocity": 0.2992125984251969,
                    "duration": 0.06598237500000437
                },
                {
                    "name": "D#3",
                    "midi": 51,
                    "time": 92.5072897500005,
                    "velocity": 0.2755905511811024,
                    "duration": 0.08797650000001056
                },
                {
                    "name": "A#3",
                    "midi": 58,
                    "time": 92.5292838750005,
                    "velocity": 0.28346456692913385,
                    "duration": 0.06598237500000437
                },
                {
                    "name": "G4",
                    "midi": 67,
                    "time": 92.55127800000051,
                    "velocity": 0.2992125984251969,
                    "duration": 0.043988249999998175
                },
                {
                    "name": "D#2",
                    "midi": 39,
                    "time": 92.90318400000051,
                    "velocity": 0.2755905511811024,
                    "duration": 0.08797649999999635
                },
                {
                    "name": "A#2",
                    "midi": 46,
                    "time": 93.21110175000051,
                    "velocity": 0.2677165354330709,
                    "duration": 0.08797650000001056
                },
                {
                    "name": "G#3",
                    "midi": 56,
                    "time": 93.23309587500052,
                    "velocity": 0.2755905511811024,
                    "duration": 0.06598237500000437
                },
                {
                    "name": "D4",
                    "midi": 62,
                    "time": 93.25509000000052,
                    "velocity": 0.2992125984251969,
                    "duration": 0.06598237500000437
                },
                {
                    "name": "D#3",
                    "midi": 51,
                    "time": 93.91491375000052,
                    "velocity": 0.23622047244094488,
                    "duration": 0.08797650000001056
                },
                {
                    "name": "A#3",
                    "midi": 58,
                    "time": 93.93690787500053,
                    "velocity": 0.25984251968503935,
                    "duration": 0.06598237500000437
                },
                {
                    "name": "G4",
                    "midi": 67,
                    "time": 93.95890200000053,
                    "velocity": 0.29133858267716534,
                    "duration": 0.043988249999998175
                },
                {
                    "name": "D#2",
                    "midi": 39,
                    "time": 94.31080800000053,
                    "velocity": 0.2755905511811024,
                    "duration": 0.08797649999999635
                },
                {
                    "name": "C3",
                    "midi": 48,
                    "time": 94.61872575000054,
                    "velocity": 0.2440944881889764,
                    "duration": 0.08797650000001056
                },
                {
                    "name": "G#3",
                    "midi": 56,
                    "time": 94.64071987500054,
                    "velocity": 0.2677165354330709,
                    "duration": 0.06598237500000437
                },
                {
                    "name": "D#4",
                    "midi": 63,
                    "time": 94.66271400000055,
                    "velocity": 0.28346456692913385,
                    "duration": 0.06598237500000437
                },
                {
                    "name": "D#3",
                    "midi": 51,
                    "time": 95.32253775000055,
                    "velocity": 0.25196850393700787,
                    "duration": 0.08797650000001056
                },
                {
                    "name": "A#3",
                    "midi": 58,
                    "time": 95.34453187500056,
                    "velocity": 0.2677165354330709,
                    "duration": 0.06598237500000437
                },
                {
                    "name": "G4",
                    "midi": 67,
                    "time": 95.36652600000056,
                    "velocity": 0.28346456692913385,
                    "duration": 0.043988249999998175
                },
                {
                    "name": "D#2",
                    "midi": 39,
                    "time": 95.71843200000056,
                    "velocity": 0.2755905511811024,
                    "duration": 0.08797649999999635
                },
                {
                    "name": "B3",
                    "midi": 59,
                    "time": 96.07033800000056,
                    "velocity": 0.23622047244094488,
                    "duration": 0.7038119999999992
                },
                {
                    "name": "G#3",
                    "midi": 56,
                    "time": 96.07033800000056,
                    "velocity": 0.1968503937007874,
                    "duration": 0.7038119999999992
                },
                {
                    "name": "B2",
                    "midi": 47,
                    "time": 96.07033800000056,
                    "velocity": 0.1968503937007874,
                    "duration": 0.7038119999999992
                },
                {
                    "name": "D#3",
                    "midi": 51,
                    "time": 96.07033800000056,
                    "velocity": 0.1968503937007874,
                    "duration": 0.7038119999999992
                },
                {
                    "name": "B3",
                    "midi": 59,
                    "time": 96.77415000000056,
                    "velocity": 0.23622047244094488,
                    "duration": 0.7038119999999992
                },
                {
                    "name": "B2",
                    "midi": 47,
                    "time": 96.77415000000056,
                    "velocity": 0.1968503937007874,
                    "duration": 0.7038119999999992
                },
                {
                    "name": "D#3",
                    "midi": 51,
                    "time": 96.77415000000056,
                    "velocity": 0.1968503937007874,
                    "duration": 0.7038119999999992
                },
                {
                    "name": "G#3",
                    "midi": 56,
                    "time": 96.77415000000056,
                    "velocity": 0.1968503937007874,
                    "duration": 0.7038119999999992
                },
                {
                    "name": "B3",
                    "midi": 59,
                    "time": 97.47796200000056,
                    "velocity": 0.23622047244094488,
                    "duration": 0.3519059999999996
                },
                {
                    "name": "B2",
                    "midi": 47,
                    "time": 97.47796200000056,
                    "velocity": 0.1968503937007874,
                    "duration": 0.3519059999999996
                },
                {
                    "name": "D#3",
                    "midi": 51,
                    "time": 97.47796200000056,
                    "velocity": 0.1968503937007874,
                    "duration": 0.3519059999999996
                },
                {
                    "name": "G#3",
                    "midi": 56,
                    "time": 97.47796200000056,
                    "velocity": 0.1968503937007874,
                    "duration": 0.3519059999999996
                },
                {
                    "name": "B3",
                    "midi": 59,
                    "time": 97.82986800000056,
                    "velocity": 0.23622047244094488,
                    "duration": 0.3519059999999996
                },
                {
                    "name": "B2",
                    "midi": 47,
                    "time": 97.82986800000056,
                    "velocity": 0.1968503937007874,
                    "duration": 0.3519059999999996
                },
                {
                    "name": "D#3",
                    "midi": 51,
                    "time": 97.82986800000056,
                    "velocity": 0.1968503937007874,
                    "duration": 0.3519059999999996
                },
                {
                    "name": "G#3",
                    "midi": 56,
                    "time": 97.82986800000056,
                    "velocity": 0.1968503937007874,
                    "duration": 0.3519059999999996
                },
                {
                    "name": "B3",
                    "midi": 59,
                    "time": 98.18177400000056,
                    "velocity": 0.23622047244094488,
                    "duration": 1.0557179999999988
                },
                {
                    "name": "B2",
                    "midi": 47,
                    "time": 98.18177400000056,
                    "velocity": 0.1968503937007874,
                    "duration": 1.0557179999999988
                },
                {
                    "name": "D#3",
                    "midi": 51,
                    "time": 98.18177400000056,
                    "velocity": 0.1968503937007874,
                    "duration": 1.0557179999999988
                },
                {
                    "name": "G#3",
                    "midi": 56,
                    "time": 98.18177400000056,
                    "velocity": 0.1968503937007874,
                    "duration": 1.0557179999999988
                },
                {
                    "name": "F3",
                    "midi": 53,
                    "time": 108.82693050000056,
                    "velocity": 0.30708661417322836,
                    "duration": 0.08797649999999635
                },
                {
                    "name": "A#2",
                    "midi": 46,
                    "time": 108.91490700000055,
                    "velocity": 0.3228346456692913,
                    "duration": 0.08797649999999635
                },
                {
                    "name": "D#2",
                    "midi": 39,
                    "time": 109.00288350000055,
                    "velocity": 0.2677165354330709,
                    "duration": 0.1759530000000069
                },
                {
                    "name": "F3",
                    "midi": 53,
                    "time": 109.17883650000056,
                    "velocity": 0.31496062992125984,
                    "duration": 0.08797649999999635
                },
                {
                    "name": "A#2",
                    "midi": 46,
                    "time": 109.26681300000055,
                    "velocity": 0.3228346456692913,
                    "duration": 0.08797649999999635
                },
                {
                    "name": "D#2",
                    "midi": 39,
                    "time": 109.35478950000055,
                    "velocity": 0.2755905511811024,
                    "duration": 0.1759530000000069
                },
                {
                    "name": "D#3",
                    "midi": 51,
                    "time": 109.53074250000056,
                    "velocity": 0.29133858267716534,
                    "duration": 0.08797649999999635
                },
                {
                    "name": "A#2",
                    "midi": 46,
                    "time": 109.61871900000055,
                    "velocity": 0.3228346456692913,
                    "duration": 0.08797649999999635
                },
                {
                    "name": "D#2",
                    "midi": 39,
                    "time": 109.70669550000055,
                    "velocity": 0.2677165354330709,
                    "duration": 0.1759530000000069
                },
                {
                    "name": "D#3",
                    "midi": 51,
                    "time": 109.88264850000056,
                    "velocity": 0.31496062992125984,
                    "duration": 0.08797649999999635
                },
                {
                    "name": "A#2",
                    "midi": 46,
                    "time": 109.97062500000055,
                    "velocity": 0.3228346456692913,
                    "duration": 0.08797649999999635
                },
                {
                    "name": "D#2",
                    "midi": 39,
                    "time": 110.05860150000055,
                    "velocity": 0.29133858267716534,
                    "duration": 0.1759530000000069
                },
                {
                    "name": "D3",
                    "midi": 50,
                    "time": 110.23455450000056,
                    "velocity": 0.30708661417322836,
                    "duration": 0.08797649999999635
                },
                {
                    "name": "A#2",
                    "midi": 46,
                    "time": 110.32253100000055,
                    "velocity": 0.3228346456692913,
                    "duration": 0.08797649999999635
                },
                {
                    "name": "D#2",
                    "midi": 39,
                    "time": 110.41050750000055,
                    "velocity": 0.28346456692913385,
                    "duration": 0.1759530000000069
                },
                {
                    "name": "D3",
                    "midi": 50,
                    "time": 110.58646050000056,
                    "velocity": 0.30708661417322836,
                    "duration": 0.08797649999999635
                },
                {
                    "name": "A#2",
                    "midi": 46,
                    "time": 110.67443700000055,
                    "velocity": 0.3228346456692913,
                    "duration": 0.08797649999999635
                },
                {
                    "name": "D#2",
                    "midi": 39,
                    "time": 110.76241350000055,
                    "velocity": 0.28346456692913385,
                    "duration": 0.1759530000000069
                },
                {
                    "name": "G3",
                    "midi": 55,
                    "time": 110.93836650000055,
                    "velocity": 0.30708661417322836,
                    "duration": 0.08797649999999635
                },
                {
                    "name": "A#2",
                    "midi": 46,
                    "time": 111.02634300000055,
                    "velocity": 0.3228346456692913,
                    "duration": 0.08797649999999635
                },
                {
                    "name": "D#2",
                    "midi": 39,
                    "time": 111.11431950000055,
                    "velocity": 0.2755905511811024,
                    "duration": 0.1759530000000069
                },
                {
                    "name": "G3",
                    "midi": 55,
                    "time": 111.29027250000055,
                    "velocity": 0.30708661417322836,
                    "duration": 0.08797649999999635
                },
                {
                    "name": "A#2",
                    "midi": 46,
                    "time": 111.37824900000055,
                    "velocity": 0.3228346456692913,
                    "duration": 0.08797649999999635
                },
                {
                    "name": "D#2",
                    "midi": 39,
                    "time": 111.46622550000055,
                    "velocity": 0.28346456692913385,
                    "duration": 0.1759530000000069
                },
                {
                    "name": "F3",
                    "midi": 53,
                    "time": 111.64217850000055,
                    "velocity": 0.30708661417322836,
                    "duration": 0.08797649999999635
                },
                {
                    "name": "A#2",
                    "midi": 46,
                    "time": 111.73015500000055,
                    "velocity": 0.3228346456692913,
                    "duration": 0.08797649999999635
                },
                {
                    "name": "D#2",
                    "midi": 39,
                    "time": 111.81813150000055,
                    "velocity": 0.2677165354330709,
                    "duration": 0.1759530000000069
                },
                {
                    "name": "F3",
                    "midi": 53,
                    "time": 111.99408450000055,
                    "velocity": 0.31496062992125984,
                    "duration": 0.08797649999999635
                },
                {
                    "name": "A#2",
                    "midi": 46,
                    "time": 112.08206100000055,
                    "velocity": 0.3228346456692913,
                    "duration": 0.08797649999999635
                },
                {
                    "name": "D#2",
                    "midi": 39,
                    "time": 112.17003750000055,
                    "velocity": 0.2755905511811024,
                    "duration": 0.1759530000000069
                },
                {
                    "name": "D#3",
                    "midi": 51,
                    "time": 112.34599050000055,
                    "velocity": 0.29133858267716534,
                    "duration": 0.08797649999999635
                },
                {
                    "name": "A#2",
                    "midi": 46,
                    "time": 112.43396700000055,
                    "velocity": 0.3228346456692913,
                    "duration": 0.08797649999999635
                },
                {
                    "name": "D#2",
                    "midi": 39,
                    "time": 112.52194350000055,
                    "velocity": 0.2677165354330709,
                    "duration": 0.1759530000000069
                },
                {
                    "name": "D#3",
                    "midi": 51,
                    "time": 112.69789650000055,
                    "velocity": 0.31496062992125984,
                    "duration": 0.08797649999999635
                },
                {
                    "name": "A#2",
                    "midi": 46,
                    "time": 112.78587300000055,
                    "velocity": 0.3228346456692913,
                    "duration": 0.08797649999999635
                },
                {
                    "name": "D#2",
                    "midi": 39,
                    "time": 112.87384950000055,
                    "velocity": 0.29133858267716534,
                    "duration": 0.1759530000000069
                },
                {
                    "name": "D3",
                    "midi": 50,
                    "time": 113.04980250000055,
                    "velocity": 0.30708661417322836,
                    "duration": 0.08797649999999635
                },
                {
                    "name": "A#2",
                    "midi": 46,
                    "time": 113.13777900000055,
                    "velocity": 0.3228346456692913,
                    "duration": 0.08797649999999635
                },
                {
                    "name": "D#2",
                    "midi": 39,
                    "time": 113.22575550000055,
                    "velocity": 0.28346456692913385,
                    "duration": 0.1759530000000069
                },
                {
                    "name": "D3",
                    "midi": 50,
                    "time": 113.40170850000055,
                    "velocity": 0.30708661417322836,
                    "duration": 0.08797649999999635
                },
                {
                    "name": "A#2",
                    "midi": 46,
                    "time": 113.48968500000055,
                    "velocity": 0.3228346456692913,
                    "duration": 0.08797649999999635
                },
                {
                    "name": "D#2",
                    "midi": 39,
                    "time": 113.57766150000054,
                    "velocity": 0.28346456692913385,
                    "duration": 0.1759530000000069
                },
                {
                    "name": "A#2",
                    "midi": 46,
                    "time": 113.75361450000055,
                    "velocity": 0.30708661417322836,
                    "duration": 0.08797649999999635
                },
                {
                    "name": "D#2",
                    "midi": 39,
                    "time": 113.84159100000055,
                    "velocity": 0.3228346456692913,
                    "duration": 0.08797649999999635
                },
                {
                    "name": "A#2",
                    "midi": 46,
                    "time": 113.92956750000054,
                    "velocity": 0.28346456692913385,
                    "duration": 0.1759530000000069
                },
                {
                    "name": "A#2",
                    "midi": 46,
                    "time": 114.10552050000055,
                    "velocity": 0.30708661417322836,
                    "duration": 0.08797649999999635
                },
                {
                    "name": "D#2",
                    "midi": 39,
                    "time": 114.19349700000055,
                    "velocity": 0.3228346456692913,
                    "duration": 0.08797649999999635
                },
                {
                    "name": "A#2",
                    "midi": 46,
                    "time": 114.28147350000054,
                    "velocity": 0.28346456692913385,
                    "duration": 0.08797649999999635
                },
                {
                    "name": "F3",
                    "midi": 53,
                    "time": 114.45742650000054,
                    "velocity": 0.30708661417322836,
                    "duration": 0.08797649999999635
                },
                {
                    "name": "A#2",
                    "midi": 46,
                    "time": 114.54540300000053,
                    "velocity": 0.3228346456692913,
                    "duration": 0.08797649999999635
                },
                {
                    "name": "D#2",
                    "midi": 39,
                    "time": 114.63337950000053,
                    "velocity": 0.2677165354330709,
                    "duration": 0.1759530000000069
                },
                {
                    "name": "F3",
                    "midi": 53,
                    "time": 114.80933250000054,
                    "velocity": 0.31496062992125984,
                    "duration": 0.08797649999999635
                },
                {
                    "name": "A#2",
                    "midi": 46,
                    "time": 114.89730900000053,
                    "velocity": 0.3228346456692913,
                    "duration": 0.08797649999999635
                },
                {
                    "name": "D#2",
                    "midi": 39,
                    "time": 114.98528550000053,
                    "velocity": 0.2755905511811024,
                    "duration": 0.1759530000000069
                },
                {
                    "name": "D#3",
                    "midi": 51,
                    "time": 115.16123850000054,
                    "velocity": 0.29133858267716534,
                    "duration": 0.08797649999999635
                },
                {
                    "name": "A#2",
                    "midi": 46,
                    "time": 115.24921500000053,
                    "velocity": 0.3228346456692913,
                    "duration": 0.08797649999999635
                },
                {
                    "name": "D#2",
                    "midi": 39,
                    "time": 115.33719150000053,
                    "velocity": 0.2677165354330709,
                    "duration": 0.1759530000000069
                },
                {
                    "name": "D#3",
                    "midi": 51,
                    "time": 115.51314450000054,
                    "velocity": 0.31496062992125984,
                    "duration": 0.08797649999999635
                },
                {
                    "name": "A#2",
                    "midi": 46,
                    "time": 115.60112100000053,
                    "velocity": 0.3228346456692913,
                    "duration": 0.08797649999999635
                },
                {
                    "name": "D#2",
                    "midi": 39,
                    "time": 115.68909750000053,
                    "velocity": 0.29133858267716534,
                    "duration": 0.1759530000000069
                },
                {
                    "name": "D3",
                    "midi": 50,
                    "time": 115.86505050000054,
                    "velocity": 0.30708661417322836,
                    "duration": 0.08797649999999635
                },
                {
                    "name": "A#2",
                    "midi": 46,
                    "time": 115.95302700000053,
                    "velocity": 0.3228346456692913,
                    "duration": 0.08797649999999635
                },
                {
                    "name": "D#2",
                    "midi": 39,
                    "time": 116.04100350000053,
                    "velocity": 0.28346456692913385,
                    "duration": 0.1759530000000069
                },
                {
                    "name": "D3",
                    "midi": 50,
                    "time": 116.21695650000053,
                    "velocity": 0.30708661417322836,
                    "duration": 0.08797649999999635
                },
                {
                    "name": "A#2",
                    "midi": 46,
                    "time": 116.30493300000053,
                    "velocity": 0.3228346456692913,
                    "duration": 0.08797649999999635
                },
                {
                    "name": "D#2",
                    "midi": 39,
                    "time": 116.39290950000053,
                    "velocity": 0.28346456692913385,
                    "duration": 0.1759530000000069
                },
                {
                    "name": "G3",
                    "midi": 55,
                    "time": 116.56886250000053,
                    "velocity": 0.30708661417322836,
                    "duration": 0.08797649999999635
                },
                {
                    "name": "A#2",
                    "midi": 46,
                    "time": 116.65683900000053,
                    "velocity": 0.3228346456692913,
                    "duration": 0.08797649999999635
                },
                {
                    "name": "D#2",
                    "midi": 39,
                    "time": 116.74481550000053,
                    "velocity": 0.2755905511811024,
                    "duration": 0.1759530000000069
                },
                {
                    "name": "G3",
                    "midi": 55,
                    "time": 116.92076850000053,
                    "velocity": 0.30708661417322836,
                    "duration": 0.08797649999999635
                },
                {
                    "name": "A#2",
                    "midi": 46,
                    "time": 117.00874500000053,
                    "velocity": 0.3228346456692913,
                    "duration": 0.08797649999999635
                },
                {
                    "name": "D#2",
                    "midi": 39,
                    "time": 117.09672150000053,
                    "velocity": 0.28346456692913385,
                    "duration": 0.1759530000000069
                },
                {
                    "name": "F3",
                    "midi": 53,
                    "time": 117.27267450000053,
                    "velocity": 0.30708661417322836,
                    "duration": 0.08797649999999635
                },
                {
                    "name": "A#2",
                    "midi": 46,
                    "time": 117.36065100000053,
                    "velocity": 0.3228346456692913,
                    "duration": 0.08797649999999635
                },
                {
                    "name": "D#2",
                    "midi": 39,
                    "time": 117.44862750000053,
                    "velocity": 0.2677165354330709,
                    "duration": 0.1759530000000069
                },
                {
                    "name": "F3",
                    "midi": 53,
                    "time": 117.62458050000053,
                    "velocity": 0.31496062992125984,
                    "duration": 0.08797649999999635
                },
                {
                    "name": "A#2",
                    "midi": 46,
                    "time": 117.71255700000053,
                    "velocity": 0.3228346456692913,
                    "duration": 0.08797649999999635
                },
                {
                    "name": "D#2",
                    "midi": 39,
                    "time": 117.80053350000053,
                    "velocity": 0.2755905511811024,
                    "duration": 0.1759530000000069
                },
                {
                    "name": "D#3",
                    "midi": 51,
                    "time": 117.97648650000053,
                    "velocity": 0.29133858267716534,
                    "duration": 0.08797649999999635
                },
                {
                    "name": "A#2",
                    "midi": 46,
                    "time": 118.06446300000053,
                    "velocity": 0.3228346456692913,
                    "duration": 0.08797649999999635
                },
                {
                    "name": "D#2",
                    "midi": 39,
                    "time": 118.15243950000053,
                    "velocity": 0.2677165354330709,
                    "duration": 0.1759530000000069
                },
                {
                    "name": "D#3",
                    "midi": 51,
                    "time": 118.32839250000053,
                    "velocity": 0.31496062992125984,
                    "duration": 0.08797649999999635
                },
                {
                    "name": "A#2",
                    "midi": 46,
                    "time": 118.41636900000053,
                    "velocity": 0.3228346456692913,
                    "duration": 0.08797649999999635
                },
                {
                    "name": "D#2",
                    "midi": 39,
                    "time": 118.50434550000053,
                    "velocity": 0.29133858267716534,
                    "duration": 0.1759530000000069
                },
                {
                    "name": "D3",
                    "midi": 50,
                    "time": 118.68029850000053,
                    "velocity": 0.30708661417322836,
                    "duration": 0.08797649999999635
                },
                {
                    "name": "A#2",
                    "midi": 46,
                    "time": 118.76827500000053,
                    "velocity": 0.3228346456692913,
                    "duration": 0.08797649999999635
                },
                {
                    "name": "D#2",
                    "midi": 39,
                    "time": 118.85625150000052,
                    "velocity": 0.28346456692913385,
                    "duration": 0.1759530000000069
                },
                {
                    "name": "D3",
                    "midi": 50,
                    "time": 119.03220450000053,
                    "velocity": 0.30708661417322836,
                    "duration": 0.08797649999999635
                },
                {
                    "name": "A#2",
                    "midi": 46,
                    "time": 119.12018100000053,
                    "velocity": 0.3228346456692913,
                    "duration": 0.08797649999999635
                },
                {
                    "name": "D#2",
                    "midi": 39,
                    "time": 119.20815750000052,
                    "velocity": 0.28346456692913385,
                    "duration": 0.1759530000000069
                },
                {
                    "name": "A#2",
                    "midi": 46,
                    "time": 119.38411050000053,
                    "velocity": 0.30708661417322836,
                    "duration": 0.08797649999999635
                },
                {
                    "name": "D#2",
                    "midi": 39,
                    "time": 119.47208700000053,
                    "velocity": 0.3228346456692913,
                    "duration": 0.08797649999999635
                },
                {
                    "name": "A#2",
                    "midi": 46,
                    "time": 119.56006350000052,
                    "velocity": 0.28346456692913385,
                    "duration": 0.1759530000000069
                },
                {
                    "name": "D#3",
                    "midi": 51,
                    "time": 119.73601650000053,
                    "velocity": 0.30708661417322836,
                    "duration": 0.08797649999999635
                },
                {
                    "name": "A#2",
                    "midi": 46,
                    "time": 119.82399300000053,
                    "velocity": 0.3228346456692913,
                    "duration": 0.08797649999999635
                },
                {
                    "name": "D#2",
                    "midi": 39,
                    "time": 119.91196950000052,
                    "velocity": 0.28346456692913385,
                    "duration": 0.1759530000000069
                },
                {
                    "name": "F3",
                    "midi": 53,
                    "time": 120.08792250000053,
                    "velocity": 0.30708661417322836,
                    "duration": 0.08797649999999635
                },
                {
                    "name": "A#2",
                    "midi": 46,
                    "time": 120.17589900000053,
                    "velocity": 0.3228346456692913,
                    "duration": 0.08797649999999635
                },
                {
                    "name": "D#2",
                    "midi": 39,
                    "time": 120.26387550000052,
                    "velocity": 0.2677165354330709,
                    "duration": 0.1759530000000069
                },
                {
                    "name": "F3",
                    "midi": 53,
                    "time": 120.43982850000053,
                    "velocity": 0.31496062992125984,
                    "duration": 0.08797649999999635
                },
                {
                    "name": "A#2",
                    "midi": 46,
                    "time": 120.52780500000053,
                    "velocity": 0.3228346456692913,
                    "duration": 0.08797649999999635
                },
                {
                    "name": "D#2",
                    "midi": 39,
                    "time": 120.61578150000052,
                    "velocity": 0.2755905511811024,
                    "duration": 0.1759530000000069
                },
                {
                    "name": "G3",
                    "midi": 55,
                    "time": 120.79173450000053,
                    "velocity": 0.29133858267716534,
                    "duration": 0.08797649999999635
                },
                {
                    "name": "A#2",
                    "midi": 46,
                    "time": 120.87971100000053,
                    "velocity": 0.3228346456692913,
                    "duration": 0.08797649999999635
                },
                {
                    "name": "D#2",
                    "midi": 39,
                    "time": 120.96768750000052,
                    "velocity": 0.2677165354330709,
                    "duration": 0.1759530000000069
                },
                {
                    "name": "G3",
                    "midi": 55,
                    "time": 121.14364050000053,
                    "velocity": 0.31496062992125984,
                    "duration": 0.08797649999999635
                },
                {
                    "name": "A#2",
                    "midi": 46,
                    "time": 121.23161700000053,
                    "velocity": 0.3228346456692913,
                    "duration": 0.08797649999999635
                },
                {
                    "name": "D#2",
                    "midi": 39,
                    "time": 121.31959350000052,
                    "velocity": 0.29133858267716534,
                    "duration": 0.1759530000000069
                },
                {
                    "name": "D3",
                    "midi": 50,
                    "time": 121.49554650000053,
                    "velocity": 0.30708661417322836,
                    "duration": 0.08797649999999635
                },
                {
                    "name": "A#2",
                    "midi": 46,
                    "time": 121.58352300000053,
                    "velocity": 0.3228346456692913,
                    "duration": 0.08797649999999635
                },
                {
                    "name": "D#2",
                    "midi": 39,
                    "time": 121.67149950000052,
                    "velocity": 0.28346456692913385,
                    "duration": 0.1759530000000069
                },
                {
                    "name": "D3",
                    "midi": 50,
                    "time": 121.84745250000053,
                    "velocity": 0.30708661417322836,
                    "duration": 0.08797649999999635
                },
                {
                    "name": "A#2",
                    "midi": 46,
                    "time": 121.93542900000052,
                    "velocity": 0.3228346456692913,
                    "duration": 0.08797649999999635
                },
                {
                    "name": "D#2",
                    "midi": 39,
                    "time": 122.02340550000052,
                    "velocity": 0.28346456692913385,
                    "duration": 0.1759530000000069
                },
                {
                    "name": "D#3",
                    "midi": 51,
                    "time": 122.19935850000053,
                    "velocity": 0.30708661417322836,
                    "duration": 0.08797649999999635
                },
                {
                    "name": "A#2",
                    "midi": 46,
                    "time": 122.28733500000052,
                    "velocity": 0.3228346456692913,
                    "duration": 0.08797649999999635
                },
                {
                    "name": "D#2",
                    "midi": 39,
                    "time": 122.37531150000052,
                    "velocity": 0.28346456692913385,
                    "duration": 0.1759530000000069
                },
                {
                    "name": "D#3",
                    "midi": 51,
                    "time": 122.55126450000053,
                    "velocity": 0.30708661417322836,
                    "duration": 0.08797649999999635
                },
                {
                    "name": "A#2",
                    "midi": 46,
                    "time": 122.63924100000052,
                    "velocity": 0.3228346456692913,
                    "duration": 0.08797649999999635
                },
                {
                    "name": "D#2",
                    "midi": 39,
                    "time": 122.72721750000052,
                    "velocity": 0.28346456692913385,
                    "duration": 0.1759530000000069
                },
                {
                    "name": "F3",
                    "midi": 53,
                    "time": 122.90317050000053,
                    "velocity": 0.30708661417322836,
                    "duration": 0.08797649999999635
                },
                {
                    "name": "A#2",
                    "midi": 46,
                    "time": 122.99114700000052,
                    "velocity": 0.3228346456692913,
                    "duration": 0.08797649999999635
                },
                {
                    "name": "D#2",
                    "midi": 39,
                    "time": 123.07912350000052,
                    "velocity": 0.2677165354330709,
                    "duration": 0.1759530000000069
                },
                {
                    "name": "F3",
                    "midi": 53,
                    "time": 123.25507650000053,
                    "velocity": 0.31496062992125984,
                    "duration": 0.08797649999999635
                },
                {
                    "name": "A#2",
                    "midi": 46,
                    "time": 123.34305300000052,
                    "velocity": 0.3228346456692913,
                    "duration": 0.08797649999999635
                },
                {
                    "name": "D#2",
                    "midi": 39,
                    "time": 123.43102950000052,
                    "velocity": 0.2755905511811024,
                    "duration": 0.1759530000000069
                },
                {
                    "name": "G3",
                    "midi": 55,
                    "time": 123.60698250000053,
                    "velocity": 0.29133858267716534,
                    "duration": 0.08797649999999635
                },
                {
                    "name": "A#2",
                    "midi": 46,
                    "time": 123.69495900000052,
                    "velocity": 0.3228346456692913,
                    "duration": 0.08797649999999635
                },
                {
                    "name": "D#2",
                    "midi": 39,
                    "time": 123.78293550000052,
                    "velocity": 0.2677165354330709,
                    "duration": 0.1759530000000069
                },
                {
                    "name": "G3",
                    "midi": 55,
                    "time": 123.95888850000053,
                    "velocity": 0.31496062992125984,
                    "duration": 0.08797649999999635
                },
                {
                    "name": "A#2",
                    "midi": 46,
                    "time": 124.04686500000052,
                    "velocity": 0.3228346456692913,
                    "duration": 0.08797649999999635
                },
                {
                    "name": "D#2",
                    "midi": 39,
                    "time": 124.13484150000052,
                    "velocity": 0.29133858267716534,
                    "duration": 0.1759530000000069
                },
                {
                    "name": "D3",
                    "midi": 50,
                    "time": 124.31079450000053,
                    "velocity": 0.30708661417322836,
                    "duration": 0.08797649999999635
                },
                {
                    "name": "A#2",
                    "midi": 46,
                    "time": 124.39877100000052,
                    "velocity": 0.3228346456692913,
                    "duration": 0.08797649999999635
                },
                {
                    "name": "D#2",
                    "midi": 39,
                    "time": 124.48674750000052,
                    "velocity": 0.28346456692913385,
                    "duration": 0.1759530000000069
                },
                {
                    "name": "D3",
                    "midi": 50,
                    "time": 124.66270050000053,
                    "velocity": 0.30708661417322836,
                    "duration": 0.08797649999999635
                },
                {
                    "name": "A#2",
                    "midi": 46,
                    "time": 124.75067700000052,
                    "velocity": 0.3228346456692913,
                    "duration": 0.08797649999999635
                },
                {
                    "name": "D#2",
                    "midi": 39,
                    "time": 124.83865350000052,
                    "velocity": 0.28346456692913385,
                    "duration": 0.1759530000000069
                },
                {
                    "name": "D#3",
                    "midi": 51,
                    "time": 125.01460650000053,
                    "velocity": 0.30708661417322836,
                    "duration": 0.08797649999999635
                },
                {
                    "name": "A#2",
                    "midi": 46,
                    "time": 125.10258300000052,
                    "velocity": 0.3228346456692913,
                    "duration": 0.08797649999999635
                },
                {
                    "name": "D#2",
                    "midi": 39,
                    "time": 125.19055950000052,
                    "velocity": 0.28346456692913385,
                    "duration": 0.1759530000000069
                },
                {
                    "name": "D#3",
                    "midi": 51,
                    "time": 125.36651250000052,
                    "velocity": 0.30708661417322836,
                    "duration": 0.08797649999999635
                },
                {
                    "name": "A#2",
                    "midi": 46,
                    "time": 125.45448900000052,
                    "velocity": 0.3228346456692913,
                    "duration": 0.08797649999999635
                },
                {
                    "name": "D#2",
                    "midi": 39,
                    "time": 125.54246550000052,
                    "velocity": 0.28346456692913385,
                    "duration": 0.08797649999999635
                },
                {
                    "name": "G#4",
                    "midi": 68,
                    "time": 125.71841850000051,
                    "velocity": 0.30708661417322836,
                    "duration": 0.08797649999999635
                },
                {
                    "name": "D4",
                    "midi": 62,
                    "time": 125.8063950000005,
                    "velocity": 0.3228346456692913,
                    "duration": 0.08797649999999635
                },
                {
                    "name": "A#3",
                    "midi": 58,
                    "time": 125.8943715000005,
                    "velocity": 0.28346456692913385,
                    "duration": 0.08797649999999635
                },
                {
                    "name": "D3",
                    "midi": 50,
                    "time": 126.0703245000005,
                    "velocity": 0.30708661417322836,
                    "duration": 0.08797649999999635
                },
                {
                    "name": "A#2",
                    "midi": 46,
                    "time": 126.15830100000049,
                    "velocity": 0.3228346456692913,
                    "duration": 0.08797649999999635
                },
                {
                    "name": "D#2",
                    "midi": 39,
                    "time": 126.24627750000049,
                    "velocity": 0.28346456692913385,
                    "duration": 0.08797649999999635
                },
                {
                    "name": "G4",
                    "midi": 67,
                    "time": 126.42223050000048,
                    "velocity": 0.29133858267716534,
                    "duration": 0.08797649999999635
                },
                {
                    "name": "D#4",
                    "midi": 63,
                    "time": 126.51020700000048,
                    "velocity": 0.3228346456692913,
                    "duration": 0.08797649999999635
                },
                {
                    "name": "A#3",
                    "midi": 58,
                    "time": 126.59818350000047,
                    "velocity": 0.2677165354330709,
                    "duration": 0.08797649999999635
                },
                {
                    "name": "D#3",
                    "midi": 51,
                    "time": 126.77413650000047,
                    "velocity": 0.31496062992125984,
                    "duration": 0.08797649999999635
                },
                {
                    "name": "A#2",
                    "midi": 46,
                    "time": 126.86211300000046,
                    "velocity": 0.3228346456692913,
                    "duration": 0.08797649999999635
                },
                {
                    "name": "D#2",
                    "midi": 39,
                    "time": 126.95008950000046,
                    "velocity": 0.29133858267716534,
                    "duration": 0.08797649999999635
                },
                {
                    "name": "G#4",
                    "midi": 68,
                    "time": 127.12604250000045,
                    "velocity": 0.30708661417322836,
                    "duration": 0.08797649999999635
                },
                {
                    "name": "D4",
                    "midi": 62,
                    "time": 127.21401900000045,
                    "velocity": 0.3228346456692913,
                    "duration": 0.08797649999999635
                },
                {
                    "name": "A#3",
                    "midi": 58,
                    "time": 127.30199550000044,
                    "velocity": 0.28346456692913385,
                    "duration": 0.08797649999999635
                },
                {
                    "name": "D3",
                    "midi": 50,
                    "time": 127.47794850000044,
                    "velocity": 0.30708661417322836,
                    "duration": 0.08797649999999635
                },
                {
                    "name": "A#2",
                    "midi": 46,
                    "time": 127.56592500000043,
                    "velocity": 0.3228346456692913,
                    "duration": 0.08797649999999635
                },
                {
                    "name": "D#2",
                    "midi": 39,
                    "time": 127.65390150000043,
                    "velocity": 0.28346456692913385,
                    "duration": 0.08797649999999635
                },
                {
                    "name": "D#4",
                    "midi": 63,
                    "time": 127.82985450000042,
                    "velocity": 0.30708661417322836,
                    "duration": 0.08797649999999635
                },
                {
                    "name": "A#3",
                    "midi": 58,
                    "time": 127.91783100000042,
                    "velocity": 0.3228346456692913,
                    "duration": 0.08797650000001056
                },
                {
                    "name": "D#3",
                    "midi": 51,
                    "time": 128.00580750000043,
                    "velocity": 0.28346456692913385,
                    "duration": 0.08797649999999635
                },
                {
                    "name": "D#3",
                    "midi": 51,
                    "time": 128.18176050000042,
                    "velocity": 0.30708661417322836,
                    "duration": 0.08797649999999635
                },
                {
                    "name": "A#2",
                    "midi": 46,
                    "time": 128.26973700000042,
                    "velocity": 0.3228346456692913,
                    "duration": 0.08797649999999635
                },
                {
                    "name": "D#2",
                    "midi": 39,
                    "time": 128.35771350000041,
                    "velocity": 0.28346456692913385,
                    "duration": 0.08797649999999635
                },
                {
                    "name": "G#4",
                    "midi": 68,
                    "time": 128.5336665000004,
                    "velocity": 0.30708661417322836,
                    "duration": 0.08797649999999635
                },
                {
                    "name": "D4",
                    "midi": 62,
                    "time": 128.6216430000004,
                    "velocity": 0.3228346456692913,
                    "duration": 0.08797649999999635
                },
                {
                    "name": "A#3",
                    "midi": 58,
                    "time": 128.7096195000004,
                    "velocity": 0.28346456692913385,
                    "duration": 0.08797649999999635
                },
                {
                    "name": "D3",
                    "midi": 50,
                    "time": 128.8855725000004,
                    "velocity": 0.30708661417322836,
                    "duration": 0.08797649999999635
                },
                {
                    "name": "A#2",
                    "midi": 46,
                    "time": 128.9735490000004,
                    "velocity": 0.3228346456692913,
                    "duration": 0.08797649999999635
                },
                {
                    "name": "D#2",
                    "midi": 39,
                    "time": 129.06152550000039,
                    "velocity": 0.28346456692913385,
                    "duration": 0.08797649999999635
                },
                {
                    "name": "G4",
                    "midi": 67,
                    "time": 129.23747850000038,
                    "velocity": 0.29133858267716534,
                    "duration": 0.08797649999999635
                },
                {
                    "name": "D#4",
                    "midi": 63,
                    "time": 129.32545500000037,
                    "velocity": 0.3228346456692913,
                    "duration": 0.08797649999999635
                },
                {
                    "name": "A#3",
                    "midi": 58,
                    "time": 129.41343150000037,
                    "velocity": 0.2677165354330709,
                    "duration": 0.08797649999999635
                },
                {
                    "name": "D#3",
                    "midi": 51,
                    "time": 129.58938450000036,
                    "velocity": 0.31496062992125984,
                    "duration": 0.08797649999999635
                },
                {
                    "name": "A#2",
                    "midi": 46,
                    "time": 129.67736100000036,
                    "velocity": 0.3228346456692913,
                    "duration": 0.08797649999999635
                },
                {
                    "name": "D#2",
                    "midi": 39,
                    "time": 129.76533750000036,
                    "velocity": 0.29133858267716534,
                    "duration": 0.08797649999999635
                },
                {
                    "name": "G#4",
                    "midi": 68,
                    "time": 129.94129050000035,
                    "velocity": 0.30708661417322836,
                    "duration": 0.08797649999999635
                },
                {
                    "name": "D4",
                    "midi": 62,
                    "time": 130.02926700000035,
                    "velocity": 0.3228346456692913,
                    "duration": 0.08797649999999635
                },
                {
                    "name": "A#3",
                    "midi": 58,
                    "time": 130.11724350000034,
                    "velocity": 0.28346456692913385,
                    "duration": 0.08797649999999635
                },
                {
                    "name": "D3",
                    "midi": 50,
                    "time": 130.29319650000033,
                    "velocity": 0.30708661417322836,
                    "duration": 0.08797649999999635
                },
                {
                    "name": "A#2",
                    "midi": 46,
                    "time": 130.38117300000033,
                    "velocity": 0.3228346456692913,
                    "duration": 0.08797649999999635
                },
                {
                    "name": "D#2",
                    "midi": 39,
                    "time": 130.46914950000033,
                    "velocity": 0.28346456692913385,
                    "duration": 0.08797649999999635
                },
                {
                    "name": "G3",
                    "midi": 55,
                    "time": 130.73307900000032,
                    "velocity": 0.2992125984251969,
                    "duration": 0.1759529999999927
                },
                {
                    "name": "D#2",
                    "midi": 39,
                    "time": 130.73307900000032,
                    "velocity": 0.25196850393700787,
                    "duration": 0.1759529999999927
                },
                {
                    "name": "G#3",
                    "midi": 56,
                    "time": 130.9090320000003,
                    "velocity": 0.2992125984251969,
                    "duration": 0.1759529999999927
                },
                {
                    "name": "F2",
                    "midi": 41,
                    "time": 130.9090320000003,
                    "velocity": 0.25196850393700787,
                    "duration": 0.1759529999999927
                },
                {
                    "name": "B3",
                    "midi": 59,
                    "time": 131.0849850000003,
                    "velocity": 0.2992125984251969,
                    "duration": 0.1759529999999927
                },
                {
                    "name": "G2",
                    "midi": 43,
                    "time": 131.0849850000003,
                    "velocity": 0.25196850393700787,
                    "duration": 0.1759529999999927
                },
                {
                    "name": "D#4",
                    "midi": 63,
                    "time": 131.2609380000003,
                    "velocity": 0.3700787401574803,
                    "duration": 0.7038119999999992
                },
                {
                    "name": "C3",
                    "midi": 48,
                    "time": 131.2609380000003,
                    "velocity": 0.30708661417322836,
                    "duration": 0.7038119999999992
                },
                {
                    "name": "G3",
                    "midi": 55,
                    "time": 131.2609380000003,
                    "velocity": 0.30708661417322836,
                    "duration": 0.7038119999999992
                },
                {
                    "name": "G#2",
                    "midi": 44,
                    "time": 131.9647500000003,
                    "velocity": 0.29133858267716534,
                    "duration": 0.5278589999999781
                },
                {
                    "name": "F3",
                    "midi": 53,
                    "time": 131.98674412500029,
                    "velocity": 0.2992125984251969,
                    "duration": 0.5058648749999861
                },
                {
                    "name": "C4",
                    "midi": 60,
                    "time": 132.00873825000028,
                    "velocity": 0.30708661417322836,
                    "duration": 0.48387074999999413
                },
                {
                    "name": "A#2",
                    "midi": 46,
                    "time": 132.66856200000026,
                    "velocity": 0.29133858267716534,
                    "duration": 0.5278589999999781
                },
                {
                    "name": "F3",
                    "midi": 53,
                    "time": 132.69055612500026,
                    "velocity": 0.2992125984251969,
                    "duration": 0.5058648749999861
                },
                {
                    "name": "A#3",
                    "midi": 58,
                    "time": 132.71255025000025,
                    "velocity": 0.30708661417322836,
                    "duration": 0.48387074999999413
                },
                {
                    "name": "A#1",
                    "midi": 34,
                    "time": 133.19642100000024,
                    "velocity": 0.2755905511811024,
                    "duration": 0.06598237500000437
                },
                {
                    "name": "D#2",
                    "midi": 39,
                    "time": 133.37237400000024,
                    "velocity": 0.33858267716535434,
                    "duration": 0.043988250000012385
                },
                {
                    "name": "G4",
                    "midi": 67,
                    "time": 133.54832700000026,
                    "velocity": 0.29133858267716534,
                    "duration": 0.043988250000012385
                },
                {
                    "name": "D#4",
                    "midi": 63,
                    "time": 133.54832700000026,
                    "velocity": 0.2440944881889764,
                    "duration": 0.043988250000012385
                },
                {
                    "name": "G3",
                    "midi": 55,
                    "time": 133.54832700000026,
                    "velocity": 0.2440944881889764,
                    "duration": 0.043988250000012385
                },
                {
                    "name": "G4",
                    "midi": 67,
                    "time": 133.90023300000027,
                    "velocity": 0.2755905511811024,
                    "duration": 0.043988250000012385
                },
                {
                    "name": "D#4",
                    "midi": 63,
                    "time": 133.90023300000027,
                    "velocity": 0.2283464566929134,
                    "duration": 0.043988250000012385
                },
                {
                    "name": "A#3",
                    "midi": 58,
                    "time": 133.90023300000027,
                    "velocity": 0.2283464566929134,
                    "duration": 0.043988250000012385
                },
                {
                    "name": "G#2",
                    "midi": 44,
                    "time": 134.0761860000003,
                    "velocity": 0.5826771653543307,
                    "duration": 0.13196475000000873
                },
                {
                    "name": "G#1",
                    "midi": 32,
                    "time": 134.0761860000003,
                    "velocity": 0.49606299212598426,
                    "duration": 0.13196475000000873
                },
                {
                    "name": "G#4",
                    "midi": 68,
                    "time": 134.2521390000003,
                    "velocity": 0.3779527559055118,
                    "duration": 0.043988250000012385
                },
                {
                    "name": "G#3",
                    "midi": 56,
                    "time": 134.2521390000003,
                    "velocity": 0.31496062992125984,
                    "duration": 0.043988250000012385
                },
                {
                    "name": "D#4",
                    "midi": 63,
                    "time": 134.2521390000003,
                    "velocity": 0.31496062992125984,
                    "duration": 0.043988250000012385
                },
                {
                    "name": "G4",
                    "midi": 67,
                    "time": 134.38410375000032,
                    "velocity": 0.3228346456692913,
                    "duration": 0.043988250000012385
                },
                {
                    "name": "G3",
                    "midi": 55,
                    "time": 134.38410375000032,
                    "velocity": 0.2755905511811024,
                    "duration": 0.043988250000012385
                },
                {
                    "name": "G#4",
                    "midi": 68,
                    "time": 134.42809200000033,
                    "velocity": 0.4330708661417323,
                    "duration": 0.043988250000012385
                },
                {
                    "name": "G#3",
                    "midi": 56,
                    "time": 134.42809200000033,
                    "velocity": 0.36220472440944884,
                    "duration": 0.043988250000012385
                },
                {
                    "name": "D#4",
                    "midi": 63,
                    "time": 134.42809200000033,
                    "velocity": 0.36220472440944884,
                    "duration": 0.043988250000012385
                },
                {
                    "name": "G2",
                    "midi": 43,
                    "time": 134.77999800000035,
                    "velocity": 0.5826771653543307,
                    "duration": 0.13196475000000873
                },
                {
                    "name": "G1",
                    "midi": 31,
                    "time": 134.77999800000035,
                    "velocity": 0.49606299212598426,
                    "duration": 0.13196475000000873
                },
                {
                    "name": "G4",
                    "midi": 67,
                    "time": 134.95595100000037,
                    "velocity": 0.3779527559055118,
                    "duration": 0.043988250000012385
                },
                {
                    "name": "G3",
                    "midi": 55,
                    "time": 134.95595100000037,
                    "velocity": 0.31496062992125984,
                    "duration": 0.043988250000012385
                },
                {
                    "name": "D#4",
                    "midi": 63,
                    "time": 134.95595100000037,
                    "velocity": 0.31496062992125984,
                    "duration": 0.043988250000012385
                },
                {
                    "name": "F#4",
                    "midi": 66,
                    "time": 135.08791575000038,
                    "velocity": 0.3228346456692913,
                    "duration": 0.043988250000012385
                },
                {
                    "name": "F#3",
                    "midi": 54,
                    "time": 135.08791575000038,
                    "velocity": 0.2755905511811024,
                    "duration": 0.043988250000012385
                },
                {
                    "name": "G4",
                    "midi": 67,
                    "time": 135.1319040000004,
                    "velocity": 0.4330708661417323,
                    "duration": 0.043988250000012385
                },
                {
                    "name": "G3",
                    "midi": 55,
                    "time": 135.1319040000004,
                    "velocity": 0.36220472440944884,
                    "duration": 0.043988250000012385
                },
                {
                    "name": "D#4",
                    "midi": 63,
                    "time": 135.1319040000004,
                    "velocity": 0.36220472440944884,
                    "duration": 0.043988250000012385
                },
                {
                    "name": "F2",
                    "midi": 41,
                    "time": 135.4838100000004,
                    "velocity": 0.5826771653543307,
                    "duration": 0.13196475000000873
                },
                {
                    "name": "F1",
                    "midi": 29,
                    "time": 135.4838100000004,
                    "velocity": 0.49606299212598426,
                    "duration": 0.13196475000000873
                },
                {
                    "name": "F4",
                    "midi": 65,
                    "time": 135.65976300000042,
                    "velocity": 0.3779527559055118,
                    "duration": 0.043988250000012385
                },
                {
                    "name": "F3",
                    "midi": 53,
                    "time": 135.65976300000042,
                    "velocity": 0.31496062992125984,
                    "duration": 0.043988250000012385
                },
                {
                    "name": "D4",
                    "midi": 62,
                    "time": 135.65976300000042,
                    "velocity": 0.31496062992125984,
                    "duration": 0.043988250000012385
                },
                {
                    "name": "E4",
                    "midi": 64,
                    "time": 135.79172775000043,
                    "velocity": 0.3228346456692913,
                    "duration": 0.043988250000012385
                },
                {
                    "name": "E3",
                    "midi": 52,
                    "time": 135.79172775000043,
                    "velocity": 0.2755905511811024,
                    "duration": 0.043988250000012385
                },
                {
                    "name": "F4",
                    "midi": 65,
                    "time": 135.83571600000045,
                    "velocity": 0.4330708661417323,
                    "duration": 0.043988250000012385
                },
                {
                    "name": "F3",
                    "midi": 53,
                    "time": 135.83571600000045,
                    "velocity": 0.36220472440944884,
                    "duration": 0.043988250000012385
                },
                {
                    "name": "D4",
                    "midi": 62,
                    "time": 135.83571600000045,
                    "velocity": 0.36220472440944884,
                    "duration": 0.043988250000012385
                },
                {
                    "name": "D#2",
                    "midi": 39,
                    "time": 136.18762200000046,
                    "velocity": 0.5826771653543307,
                    "duration": 0.13196475000000873
                },
                {
                    "name": "D#1",
                    "midi": 27,
                    "time": 136.18762200000046,
                    "velocity": 0.49606299212598426,
                    "duration": 0.13196475000000873
                },
                {
                    "name": "D#4",
                    "midi": 63,
                    "time": 136.36357500000048,
                    "velocity": 0.3779527559055118,
                    "duration": 0.043988250000012385
                },
                {
                    "name": "D#3",
                    "midi": 51,
                    "time": 136.36357500000048,
                    "velocity": 0.31496062992125984,
                    "duration": 0.043988250000012385
                },
                {
                    "name": "A#3",
                    "midi": 58,
                    "time": 136.36357500000048,
                    "velocity": 0.31496062992125984,
                    "duration": 0.043988250000012385
                },
                {
                    "name": "D4",
                    "midi": 62,
                    "time": 136.4955397500005,
                    "velocity": 0.3228346456692913,
                    "duration": 0.043988250000012385
                },
                {
                    "name": "D3",
                    "midi": 50,
                    "time": 136.4955397500005,
                    "velocity": 0.2755905511811024,
                    "duration": 0.043988250000012385
                },
                {
                    "name": "D#4",
                    "midi": 63,
                    "time": 136.5395280000005,
                    "velocity": 0.4330708661417323,
                    "duration": 0.043988250000012385
                },
                {
                    "name": "D#3",
                    "midi": 51,
                    "time": 136.5395280000005,
                    "velocity": 0.36220472440944884,
                    "duration": 0.043988250000012385
                },
                {
                    "name": "A#3",
                    "midi": 58,
                    "time": 136.5395280000005,
                    "velocity": 0.36220472440944884,
                    "duration": 0.043988250000012385
                },
                {
                    "name": "A#1",
                    "midi": 34,
                    "time": 136.89143400000052,
                    "velocity": 0.3779527559055118,
                    "duration": 0.043988250000012385
                },
                {
                    "name": "D4",
                    "midi": 62,
                    "time": 137.06738700000054,
                    "velocity": 0.33070866141732286,
                    "duration": 0.043988250000012385
                },
                {
                    "name": "G#3",
                    "midi": 56,
                    "time": 137.06738700000054,
                    "velocity": 0.2755905511811024,
                    "duration": 0.043988250000012385
                },
                {
                    "name": "F3",
                    "midi": 53,
                    "time": 137.06738700000054,
                    "velocity": 0.2755905511811024,
                    "duration": 0.043988250000012385
                },
                {
                    "name": "A#2",
                    "midi": 46,
                    "time": 137.24334000000056,
                    "velocity": 0.3700787401574803,
                    "duration": 0.043988250000012385
                },
                {
                    "name": "A#3",
                    "midi": 58,
                    "time": 137.41929300000058,
                    "velocity": 0.31496062992125984,
                    "duration": 0.043988250000012385
                },
                {
                    "name": "F3",
                    "midi": 53,
                    "time": 137.41929300000058,
                    "velocity": 0.2677165354330709,
                    "duration": 0.043988250000012385
                },
                {
                    "name": "G#3",
                    "midi": 56,
                    "time": 137.41929300000058,
                    "velocity": 0.2677165354330709,
                    "duration": 0.043988250000012385
                },
                {
                    "name": "D#2",
                    "midi": 39,
                    "time": 137.5952460000006,
                    "velocity": 0.33858267716535434,
                    "duration": 0.043988250000012385
                },
                {
                    "name": "D#4",
                    "midi": 63,
                    "time": 137.77119900000062,
                    "velocity": 0.29133858267716534,
                    "duration": 0.043988250000012385
                },
                {
                    "name": "A#3",
                    "midi": 58,
                    "time": 137.77119900000062,
                    "velocity": 0.2440944881889764,
                    "duration": 0.043988250000012385
                },
                {
                    "name": "G3",
                    "midi": 55,
                    "time": 137.77119900000062,
                    "velocity": 0.2440944881889764,
                    "duration": 0.043988250000012385
                },
                {
                    "name": "A#2",
                    "midi": 46,
                    "time": 137.94715200000064,
                    "velocity": 0.33858267716535434,
                    "duration": 0.043988250000012385
                },
                {
                    "name": "D#4",
                    "midi": 63,
                    "time": 138.12310500000066,
                    "velocity": 0.2755905511811024,
                    "duration": 0.043988250000012385
                },
                {
                    "name": "A#3",
                    "midi": 58,
                    "time": 138.12310500000066,
                    "velocity": 0.2283464566929134,
                    "duration": 0.043988250000012385
                },
                {
                    "name": "G3",
                    "midi": 55,
                    "time": 138.12310500000066,
                    "velocity": 0.2283464566929134,
                    "duration": 0.043988250000012385
                },
                {
                    "name": "A#1",
                    "midi": 34,
                    "time": 138.29905800000068,
                    "velocity": 0.3779527559055118,
                    "duration": 0.043988250000012385
                },
                {
                    "name": "D4",
                    "midi": 62,
                    "time": 138.4750110000007,
                    "velocity": 0.33070866141732286,
                    "duration": 0.043988250000012385
                },
                {
                    "name": "G#3",
                    "midi": 56,
                    "time": 138.4750110000007,
                    "velocity": 0.2755905511811024,
                    "duration": 0.043988250000012385
                },
                {
                    "name": "F3",
                    "midi": 53,
                    "time": 138.4750110000007,
                    "velocity": 0.2755905511811024,
                    "duration": 0.043988250000012385
                },
                {
                    "name": "A#2",
                    "midi": 46,
                    "time": 138.65096400000073,
                    "velocity": 0.3700787401574803,
                    "duration": 0.043988250000012385
                },
                {
                    "name": "A#3",
                    "midi": 58,
                    "time": 138.82691700000075,
                    "velocity": 0.31496062992125984,
                    "duration": 0.043988250000012385
                },
                {
                    "name": "F3",
                    "midi": 53,
                    "time": 138.82691700000075,
                    "velocity": 0.2677165354330709,
                    "duration": 0.043988250000012385
                },
                {
                    "name": "G#3",
                    "midi": 56,
                    "time": 138.82691700000075,
                    "velocity": 0.2677165354330709,
                    "duration": 0.043988250000012385
                },
                {
                    "name": "D#2",
                    "midi": 39,
                    "time": 139.00287000000077,
                    "velocity": 0.33858267716535434,
                    "duration": 0.043988250000012385
                },
                {
                    "name": "D#4",
                    "midi": 63,
                    "time": 139.1788230000008,
                    "velocity": 0.29133858267716534,
                    "duration": 0.043988250000012385
                },
                {
                    "name": "A#3",
                    "midi": 58,
                    "time": 139.1788230000008,
                    "velocity": 0.2440944881889764,
                    "duration": 0.043988250000012385
                },
                {
                    "name": "G3",
                    "midi": 55,
                    "time": 139.1788230000008,
                    "velocity": 0.2440944881889764,
                    "duration": 0.043988250000012385
                },
                {
                    "name": "A#2",
                    "midi": 46,
                    "time": 139.3547760000008,
                    "velocity": 0.33858267716535434,
                    "duration": 0.043988250000012385
                },
                {
                    "name": "D#4",
                    "midi": 63,
                    "time": 139.53072900000083,
                    "velocity": 0.2755905511811024,
                    "duration": 0.043988250000012385
                },
                {
                    "name": "A#3",
                    "midi": 58,
                    "time": 139.53072900000083,
                    "velocity": 0.2283464566929134,
                    "duration": 0.043988250000012385
                },
                {
                    "name": "G3",
                    "midi": 55,
                    "time": 139.53072900000083,
                    "velocity": 0.2283464566929134,
                    "duration": 0.043988250000012385
                },
                {
                    "name": "G#2",
                    "midi": 44,
                    "time": 139.70668200000085,
                    "velocity": 0.5826771653543307,
                    "duration": 0.13196475000000873
                },
                {
                    "name": "G#1",
                    "midi": 32,
                    "time": 139.70668200000085,
                    "velocity": 0.49606299212598426,
                    "duration": 0.13196475000000873
                },
                {
                    "name": "G#4",
                    "midi": 68,
                    "time": 139.88263500000087,
                    "velocity": 0.3779527559055118,
                    "duration": 0.043988250000012385
                },
                {
                    "name": "G#3",
                    "midi": 56,
                    "time": 139.88263500000087,
                    "velocity": 0.31496062992125984,
                    "duration": 0.043988250000012385
                },
                {
                    "name": "D#4",
                    "midi": 63,
                    "time": 139.88263500000087,
                    "velocity": 0.31496062992125984,
                    "duration": 0.043988250000012385
                },
                {
                    "name": "G4",
                    "midi": 67,
                    "time": 140.01459975000088,
                    "velocity": 0.3228346456692913,
                    "duration": 0.043988250000012385
                },
                {
                    "name": "G3",
                    "midi": 55,
                    "time": 140.01459975000088,
                    "velocity": 0.2755905511811024,
                    "duration": 0.043988250000012385
                },
                {
                    "name": "G#4",
                    "midi": 68,
                    "time": 140.0585880000009,
                    "velocity": 0.4330708661417323,
                    "duration": 0.043988250000012385
                },
                {
                    "name": "G#3",
                    "midi": 56,
                    "time": 140.0585880000009,
                    "velocity": 0.36220472440944884,
                    "duration": 0.043988250000012385
                },
                {
                    "name": "D#4",
                    "midi": 63,
                    "time": 140.0585880000009,
                    "velocity": 0.36220472440944884,
                    "duration": 0.043988250000012385
                },
                {
                    "name": "G2",
                    "midi": 43,
                    "time": 140.4104940000009,
                    "velocity": 0.5826771653543307,
                    "duration": 0.13196475000000873
                },
                {
                    "name": "G1",
                    "midi": 31,
                    "time": 140.4104940000009,
                    "velocity": 0.49606299212598426,
                    "duration": 0.13196475000000873
                },
                {
                    "name": "G4",
                    "midi": 67,
                    "time": 140.58644700000093,
                    "velocity": 0.3779527559055118,
                    "duration": 0.043988250000012385
                },
                {
                    "name": "G3",
                    "midi": 55,
                    "time": 140.58644700000093,
                    "velocity": 0.31496062992125984,
                    "duration": 0.043988250000012385
                },
                {
                    "name": "D#4",
                    "midi": 63,
                    "time": 140.58644700000093,
                    "velocity": 0.31496062992125984,
                    "duration": 0.043988250000012385
                },
                {
                    "name": "F#4",
                    "midi": 66,
                    "time": 140.71841175000094,
                    "velocity": 0.3228346456692913,
                    "duration": 0.043988250000012385
                },
                {
                    "name": "F#3",
                    "midi": 54,
                    "time": 140.71841175000094,
                    "velocity": 0.2755905511811024,
                    "duration": 0.043988250000012385
                },
                {
                    "name": "G4",
                    "midi": 67,
                    "time": 140.76240000000095,
                    "velocity": 0.4330708661417323,
                    "duration": 0.043988250000012385
                },
                {
                    "name": "G3",
                    "midi": 55,
                    "time": 140.76240000000095,
                    "velocity": 0.36220472440944884,
                    "duration": 0.043988250000012385
                },
                {
                    "name": "D#4",
                    "midi": 63,
                    "time": 140.76240000000095,
                    "velocity": 0.36220472440944884,
                    "duration": 0.043988250000012385
                },
                {
                    "name": "F2",
                    "midi": 41,
                    "time": 141.11430600000097,
                    "velocity": 0.5826771653543307,
                    "duration": 0.13196475000000873
                },
                {
                    "name": "F1",
                    "midi": 29,
                    "time": 141.11430600000097,
                    "velocity": 0.49606299212598426,
                    "duration": 0.13196475000000873
                },
                {
                    "name": "F4",
                    "midi": 65,
                    "time": 141.290259000001,
                    "velocity": 0.3779527559055118,
                    "duration": 0.043988250000012385
                },
                {
                    "name": "F3",
                    "midi": 53,
                    "time": 141.290259000001,
                    "velocity": 0.31496062992125984,
                    "duration": 0.043988250000012385
                },
                {
                    "name": "D4",
                    "midi": 62,
                    "time": 141.290259000001,
                    "velocity": 0.31496062992125984,
                    "duration": 0.043988250000012385
                },
                {
                    "name": "E4",
                    "midi": 64,
                    "time": 141.422223750001,
                    "velocity": 0.3228346456692913,
                    "duration": 0.043988250000012385
                },
                {
                    "name": "E3",
                    "midi": 52,
                    "time": 141.422223750001,
                    "velocity": 0.2755905511811024,
                    "duration": 0.043988250000012385
                },
                {
                    "name": "F4",
                    "midi": 65,
                    "time": 141.466212000001,
                    "velocity": 0.4330708661417323,
                    "duration": 0.043988250000012385
                },
                {
                    "name": "F3",
                    "midi": 53,
                    "time": 141.466212000001,
                    "velocity": 0.36220472440944884,
                    "duration": 0.043988250000012385
                },
                {
                    "name": "D4",
                    "midi": 62,
                    "time": 141.466212000001,
                    "velocity": 0.36220472440944884,
                    "duration": 0.043988250000012385
                },
                {
                    "name": "D#2",
                    "midi": 39,
                    "time": 141.81811800000102,
                    "velocity": 0.5826771653543307,
                    "duration": 0.13196475000000873
                },
                {
                    "name": "D#1",
                    "midi": 27,
                    "time": 141.81811800000102,
                    "velocity": 0.49606299212598426,
                    "duration": 0.13196475000000873
                },
                {
                    "name": "D#4",
                    "midi": 63,
                    "time": 141.99407100000104,
                    "velocity": 0.3779527559055118,
                    "duration": 0.043988250000012385
                },
                {
                    "name": "D#3",
                    "midi": 51,
                    "time": 141.99407100000104,
                    "velocity": 0.31496062992125984,
                    "duration": 0.043988250000012385
                },
                {
                    "name": "A#3",
                    "midi": 58,
                    "time": 141.99407100000104,
                    "velocity": 0.31496062992125984,
                    "duration": 0.043988250000012385
                },
                {
                    "name": "D4",
                    "midi": 62,
                    "time": 142.12603575000105,
                    "velocity": 0.3228346456692913,
                    "duration": 0.043988250000012385
                },
                {
                    "name": "D3",
                    "midi": 50,
                    "time": 142.12603575000105,
                    "velocity": 0.2755905511811024,
                    "duration": 0.043988250000012385
                },
                {
                    "name": "D#4",
                    "midi": 63,
                    "time": 142.17002400000106,
                    "velocity": 0.4330708661417323,
                    "duration": 0.043988250000012385
                },
                {
                    "name": "D#3",
                    "midi": 51,
                    "time": 142.17002400000106,
                    "velocity": 0.36220472440944884,
                    "duration": 0.043988250000012385
                },
                {
                    "name": "A#3",
                    "midi": 58,
                    "time": 142.17002400000106,
                    "velocity": 0.36220472440944884,
                    "duration": 0.043988250000012385
                },
                {
                    "name": "A#1",
                    "midi": 34,
                    "time": 142.52193000000108,
                    "velocity": 0.3779527559055118,
                    "duration": 0.043988250000012385
                },
                {
                    "name": "D4",
                    "midi": 62,
                    "time": 142.6978830000011,
                    "velocity": 0.33070866141732286,
                    "duration": 0.043988250000012385
                },
                {
                    "name": "G#3",
                    "midi": 56,
                    "time": 142.6978830000011,
                    "velocity": 0.2755905511811024,
                    "duration": 0.043988250000012385
                },
                {
                    "name": "F3",
                    "midi": 53,
                    "time": 142.6978830000011,
                    "velocity": 0.2755905511811024,
                    "duration": 0.043988250000012385
                },
                {
                    "name": "A#2",
                    "midi": 46,
                    "time": 142.87383600000112,
                    "velocity": 0.3700787401574803,
                    "duration": 0.043988250000012385
                },
                {
                    "name": "A#3",
                    "midi": 58,
                    "time": 143.04978900000114,
                    "velocity": 0.31496062992125984,
                    "duration": 0.043988250000012385
                },
                {
                    "name": "F3",
                    "midi": 53,
                    "time": 143.04978900000114,
                    "velocity": 0.2677165354330709,
                    "duration": 0.043988250000012385
                },
                {
                    "name": "G#3",
                    "midi": 56,
                    "time": 143.04978900000114,
                    "velocity": 0.2677165354330709,
                    "duration": 0.043988250000012385
                },
                {
                    "name": "D#2",
                    "midi": 39,
                    "time": 143.22574200000116,
                    "velocity": 0.33858267716535434,
                    "duration": 0.043988250000012385
                },
                {
                    "name": "D#4",
                    "midi": 63,
                    "time": 143.40169500000118,
                    "velocity": 0.29133858267716534,
                    "duration": 0.043988250000012385
                },
                {
                    "name": "A#3",
                    "midi": 58,
                    "time": 143.40169500000118,
                    "velocity": 0.2440944881889764,
                    "duration": 0.043988250000012385
                },
                {
                    "name": "G3",
                    "midi": 55,
                    "time": 143.40169500000118,
                    "velocity": 0.2440944881889764,
                    "duration": 0.043988250000012385
                },
                {
                    "name": "A#2",
                    "midi": 46,
                    "time": 143.5776480000012,
                    "velocity": 0.33858267716535434,
                    "duration": 0.043988250000012385
                },
                {
                    "name": "D#4",
                    "midi": 63,
                    "time": 143.75360100000123,
                    "velocity": 0.2755905511811024,
                    "duration": 0.043988250000012385
                },
                {
                    "name": "A#3",
                    "midi": 58,
                    "time": 143.75360100000123,
                    "velocity": 0.2283464566929134,
                    "duration": 0.043988250000012385
                },
                {
                    "name": "G3",
                    "midi": 55,
                    "time": 143.75360100000123,
                    "velocity": 0.2283464566929134,
                    "duration": 0.043988250000012385
                },
                {
                    "name": "A#1",
                    "midi": 34,
                    "time": 143.92955400000125,
                    "velocity": 0.3779527559055118,
                    "duration": 0.043988250000012385
                },
                {
                    "name": "D4",
                    "midi": 62,
                    "time": 144.10550700000127,
                    "velocity": 0.33070866141732286,
                    "duration": 0.043988250000012385
                },
                {
                    "name": "G#3",
                    "midi": 56,
                    "time": 144.10550700000127,
                    "velocity": 0.2755905511811024,
                    "duration": 0.043988250000012385
                },
                {
                    "name": "F3",
                    "midi": 53,
                    "time": 144.10550700000127,
                    "velocity": 0.2755905511811024,
                    "duration": 0.043988250000012385
                },
                {
                    "name": "A#2",
                    "midi": 46,
                    "time": 144.2814600000013,
                    "velocity": 0.3700787401574803,
                    "duration": 0.043988250000012385
                },
                {
                    "name": "A#3",
                    "midi": 58,
                    "time": 144.4574130000013,
                    "velocity": 0.31496062992125984,
                    "duration": 0.043988250000012385
                },
                {
                    "name": "F3",
                    "midi": 53,
                    "time": 144.4574130000013,
                    "velocity": 0.2677165354330709,
                    "duration": 0.043988250000012385
                },
                {
                    "name": "G#3",
                    "midi": 56,
                    "time": 144.4574130000013,
                    "velocity": 0.2677165354330709,
                    "duration": 0.043988250000012385
                },
                {
                    "name": "D#2",
                    "midi": 39,
                    "time": 144.63336600000133,
                    "velocity": 0.33858267716535434,
                    "duration": 0.043988250000012385
                },
                {
                    "name": "D#4",
                    "midi": 63,
                    "time": 144.80931900000135,
                    "velocity": 0.29133858267716534,
                    "duration": 0.043988250000012385
                },
                {
                    "name": "A#3",
                    "midi": 58,
                    "time": 144.80931900000135,
                    "velocity": 0.2440944881889764,
                    "duration": 0.043988250000012385
                },
                {
                    "name": "G3",
                    "midi": 55,
                    "time": 144.80931900000135,
                    "velocity": 0.2440944881889764,
                    "duration": 0.043988250000012385
                },
                {
                    "name": "A#2",
                    "midi": 46,
                    "time": 144.98527200000137,
                    "velocity": 0.33858267716535434,
                    "duration": 0.043988250000012385
                },
                {
                    "name": "D#4",
                    "midi": 63,
                    "time": 145.1612250000014,
                    "velocity": 0.2755905511811024,
                    "duration": 0.043988250000012385
                },
                {
                    "name": "A#3",
                    "midi": 58,
                    "time": 145.1612250000014,
                    "velocity": 0.2283464566929134,
                    "duration": 0.043988250000012385
                },
                {
                    "name": "G3",
                    "midi": 55,
                    "time": 145.1612250000014,
                    "velocity": 0.2283464566929134,
                    "duration": 0.043988250000012385
                },
                {
                    "name": "A#1",
                    "midi": 34,
                    "time": 145.33717800000142,
                    "velocity": 0.3779527559055118,
                    "duration": 0.043988250000012385
                },
                {
                    "name": "D4",
                    "midi": 62,
                    "time": 145.51313100000144,
                    "velocity": 0.33070866141732286,
                    "duration": 0.043988250000012385
                },
                {
                    "name": "G#3",
                    "midi": 56,
                    "time": 145.51313100000144,
                    "velocity": 0.2755905511811024,
                    "duration": 0.043988250000012385
                },
                {
                    "name": "F3",
                    "midi": 53,
                    "time": 145.51313100000144,
                    "velocity": 0.2755905511811024,
                    "duration": 0.043988250000012385
                },
                {
                    "name": "A#2",
                    "midi": 46,
                    "time": 145.68908400000146,
                    "velocity": 0.3700787401574803,
                    "duration": 0.043988250000012385
                },
                {
                    "name": "D4",
                    "midi": 62,
                    "time": 145.86503700000148,
                    "velocity": 0.31496062992125984,
                    "duration": 0.043988250000012385
                },
                {
                    "name": "F3",
                    "midi": 53,
                    "time": 145.86503700000148,
                    "velocity": 0.2677165354330709,
                    "duration": 0.043988250000012385
                },
                {
                    "name": "G#3",
                    "midi": 56,
                    "time": 145.86503700000148,
                    "velocity": 0.2677165354330709,
                    "duration": 0.043988250000012385
                },
                {
                    "name": "D#2",
                    "midi": 39,
                    "time": 146.0409900000015,
                    "velocity": 0.33858267716535434,
                    "duration": 0.043988250000012385
                },
                {
                    "name": "D#4",
                    "midi": 63,
                    "time": 146.21694300000152,
                    "velocity": 0.29133858267716534,
                    "duration": 0.043988250000012385
                },
                {
                    "name": "A#3",
                    "midi": 58,
                    "time": 146.21694300000152,
                    "velocity": 0.2440944881889764,
                    "duration": 0.043988250000012385
                },
                {
                    "name": "G3",
                    "midi": 55,
                    "time": 146.21694300000152,
                    "velocity": 0.2440944881889764,
                    "duration": 0.043988250000012385
                },
                {
                    "name": "A#2",
                    "midi": 46,
                    "time": 146.39289600000154,
                    "velocity": 0.33858267716535434,
                    "duration": 0.043988250000012385
                },
                {
                    "name": "D#4",
                    "midi": 63,
                    "time": 146.56884900000156,
                    "velocity": 0.2755905511811024,
                    "duration": 0.043988250000012385
                },
                {
                    "name": "A#3",
                    "midi": 58,
                    "time": 146.56884900000156,
                    "velocity": 0.2283464566929134,
                    "duration": 0.043988250000012385
                },
                {
                    "name": "G3",
                    "midi": 55,
                    "time": 146.56884900000156,
                    "velocity": 0.2283464566929134,
                    "duration": 0.043988250000012385
                },
                {
                    "name": "A#1",
                    "midi": 34,
                    "time": 146.74480200000158,
                    "velocity": 0.4645669291338583,
                    "duration": 0.043988250000012385
                },
                {
                    "name": "F3",
                    "midi": 53,
                    "time": 146.9207550000016,
                    "velocity": 0.2283464566929134,
                    "duration": 0.043988250000012385
                },
                {
                    "name": "G#3",
                    "midi": 56,
                    "time": 146.9207550000016,
                    "velocity": 0.2283464566929134,
                    "duration": 0.043988250000012385
                },
                {
                    "name": "D4",
                    "midi": 62,
                    "time": 146.9207550000016,
                    "velocity": 0.2755905511811024,
                    "duration": 0.043988250000012385
                },
                {
                    "name": "G4",
                    "midi": 67,
                    "time": 147.27266100000162,
                    "velocity": 0.3464566929133858,
                    "duration": 0.043988250000012385
                },
                {
                    "name": "E4",
                    "midi": 64,
                    "time": 147.27266100000162,
                    "velocity": 0.29133858267716534,
                    "duration": 0.043988250000012385
                },
                {
                    "name": "G#4",
                    "midi": 68,
                    "time": 147.36063750000164,
                    "velocity": 0.3464566929133858,
                    "duration": 0.043988250000012385
                },
                {
                    "name": "F4",
                    "midi": 65,
                    "time": 147.36063750000164,
                    "velocity": 0.29133858267716534,
                    "duration": 0.043988250000012385
                },
                {
                    "name": "A4",
                    "midi": 69,
                    "time": 147.44861400000167,
                    "velocity": 0.33070866141732286,
                    "duration": 0.043988250000012385
                },
                {
                    "name": "F#4",
                    "midi": 66,
                    "time": 147.44861400000167,
                    "velocity": 0.2755905511811024,
                    "duration": 0.043988250000012385
                },
                {
                    "name": "A#4",
                    "midi": 70,
                    "time": 147.5365905000017,
                    "velocity": 0.33858267716535434,
                    "duration": 0.043988250000012385
                },
                {
                    "name": "G4",
                    "midi": 67,
                    "time": 147.5365905000017,
                    "velocity": 0.28346456692913385,
                    "duration": 0.043988250000012385
                },
                {
                    "name": "B4",
                    "midi": 71,
                    "time": 147.62456700000172,
                    "velocity": 0.3464566929133858,
                    "duration": 0.043988250000012385
                },
                {
                    "name": "G#4",
                    "midi": 68,
                    "time": 147.62456700000172,
                    "velocity": 0.29133858267716534,
                    "duration": 0.043988250000012385
                },
                {
                    "name": "C5",
                    "midi": 72,
                    "time": 147.71254350000174,
                    "velocity": 0.3543307086614173,
                    "duration": 0.043988250000012385
                },
                {
                    "name": "A4",
                    "midi": 69,
                    "time": 147.71254350000174,
                    "velocity": 0.2992125984251969,
                    "duration": 0.043988250000012385
                },
                {
                    "name": "C#5",
                    "midi": 73,
                    "time": 147.80052000000177,
                    "velocity": 0.36220472440944884,
                    "duration": 0.043988250000012385
                },
                {
                    "name": "A#4",
                    "midi": 70,
                    "time": 147.80052000000177,
                    "velocity": 0.30708661417322836,
                    "duration": 0.043988250000012385
                },
                {
                    "name": "D5",
                    "midi": 74,
                    "time": 147.8884965000018,
                    "velocity": 0.3700787401574803,
                    "duration": 0.043988250000012385
                },
                {
                    "name": "B4",
                    "midi": 71,
                    "time": 147.8884965000018,
                    "velocity": 0.30708661417322836,
                    "duration": 0.043988250000012385
                },
                {
                    "name": "D#5",
                    "midi": 75,
                    "time": 147.97647300000182,
                    "velocity": 0.3779527559055118,
                    "duration": 0.043988250000012385
                },
                {
                    "name": "C5",
                    "midi": 72,
                    "time": 147.97647300000182,
                    "velocity": 0.31496062992125984,
                    "duration": 0.043988250000012385
                },
                {
                    "name": "E5",
                    "midi": 76,
                    "time": 148.06444950000184,
                    "velocity": 0.3858267716535433,
                    "duration": 0.043988250000012385
                },
                {
                    "name": "C#5",
                    "midi": 73,
                    "time": 148.06444950000184,
                    "velocity": 0.3228346456692913,
                    "duration": 0.043988250000012385
                },
                {
                    "name": "F5",
                    "midi": 77,
                    "time": 148.15242600000187,
                    "velocity": 0.3937007874015748,
                    "duration": 0.043988250000012385
                },
                {
                    "name": "D5",
                    "midi": 74,
                    "time": 148.15242600000187,
                    "velocity": 0.33070866141732286,
                    "duration": 0.043988250000012385
                },
                {
                    "name": "F#5",
                    "midi": 78,
                    "time": 148.2404025000019,
                    "velocity": 0.4015748031496063,
                    "duration": 0.043988250000012385
                },
                {
                    "name": "D#5",
                    "midi": 75,
                    "time": 148.2404025000019,
                    "velocity": 0.33858267716535434,
                    "duration": 0.043988250000012385
                },
                {
                    "name": "G5",
                    "midi": 79,
                    "time": 148.32837900000192,
                    "velocity": 0.41732283464566927,
                    "duration": 0.043988250000012385
                },
                {
                    "name": "E5",
                    "midi": 76,
                    "time": 148.32837900000192,
                    "velocity": 0.3543307086614173,
                    "duration": 0.043988250000012385
                },
                {
                    "name": "G#5",
                    "midi": 80,
                    "time": 148.41635550000194,
                    "velocity": 0.4251968503937008,
                    "duration": 0.043988250000012385
                },
                {
                    "name": "F5",
                    "midi": 77,
                    "time": 148.41635550000194,
                    "velocity": 0.3543307086614173,
                    "duration": 0.043988250000012385
                },
                {
                    "name": "G5",
                    "midi": 79,
                    "time": 148.50433200000197,
                    "velocity": 0.4330708661417323,
                    "duration": 0.043988250000012385
                },
                {
                    "name": "E5",
                    "midi": 76,
                    "time": 148.50433200000197,
                    "velocity": 0.36220472440944884,
                    "duration": 0.043988250000012385
                },
                {
                    "name": "G#5",
                    "midi": 80,
                    "time": 148.592308500002,
                    "velocity": 0.4409448818897638,
                    "duration": 0.043988250000012385
                },
                {
                    "name": "F5",
                    "midi": 77,
                    "time": 148.592308500002,
                    "velocity": 0.3700787401574803,
                    "duration": 0.043988250000012385
                },
                {
                    "name": "G#2",
                    "midi": 44,
                    "time": 148.856238000002,
                    "velocity": 0.5590551181102362,
                    "duration": 0.08797649999999635
                },
                {
                    "name": "G#1",
                    "midi": 32,
                    "time": 148.856238000002,
                    "velocity": 0.47244094488188976,
                    "duration": 0.08797649999999635
                },
                {
                    "name": "F4",
                    "midi": 65,
                    "time": 149.032191000002,
                    "velocity": 0.5039370078740157,
                    "duration": 0.1759529999999927
                },
                {
                    "name": "C4",
                    "midi": 60,
                    "time": 149.032191000002,
                    "velocity": 0.4251968503937008,
                    "duration": 0.1759529999999927
                },
                {
                    "name": "F3",
                    "midi": 53,
                    "time": 149.032191000002,
                    "velocity": 0.4251968503937008,
                    "duration": 0.1759529999999927
                },
                {
                    "name": "A#2",
                    "midi": 46,
                    "time": 149.208144000002,
                    "velocity": 0.5590551181102362,
                    "duration": 0.08797649999999635
                },
                {
                    "name": "A#1",
                    "midi": 34,
                    "time": 149.208144000002,
                    "velocity": 0.47244094488188976,
                    "duration": 0.08797649999999635
                },
                {
                    "name": "F4",
                    "midi": 65,
                    "time": 149.384097000002,
                    "velocity": 0.5118110236220472,
                    "duration": 0.1759529999999927
                },
                {
                    "name": "D4",
                    "midi": 62,
                    "time": 149.384097000002,
                    "velocity": 0.4330708661417323,
                    "duration": 0.1759529999999927
                },
                {
                    "name": "F3",
                    "midi": 53,
                    "time": 149.384097000002,
                    "velocity": 0.4330708661417323,
                    "duration": 0.1759529999999927
                },
                {
                    "name": "D#3",
                    "midi": 51,
                    "time": 149.56005000000198,
                    "velocity": 0.5590551181102362,
                    "duration": 0.08797649999999635
                },
                {
                    "name": "D#2",
                    "midi": 39,
                    "time": 149.56005000000198,
                    "velocity": 0.47244094488188976,
                    "duration": 0.08797649999999635
                },
                {
                    "name": "G4",
                    "midi": 67,
                    "time": 149.73600300000197,
                    "velocity": 0.5118110236220472,
                    "duration": 0.08797649999999635
                },
                {
                    "name": "D#4",
                    "midi": 63,
                    "time": 149.73600300000197,
                    "velocity": 0.4330708661417323,
                    "duration": 0.08797649999999635
                },
                {
                    "name": "G3",
                    "midi": 55,
                    "time": 149.73600300000197,
                    "velocity": 0.4330708661417323,
                    "duration": 0.08797649999999635
                },
                {
                    "name": "D#3",
                    "midi": 51,
                    "time": 149.91195600000196,
                    "velocity": 0.5590551181102362,
                    "duration": 0.08797649999999635
                },
                {
                    "name": "D#2",
                    "midi": 39,
                    "time": 149.91195600000196,
                    "velocity": 0.47244094488188976,
                    "duration": 0.08797649999999635
                },
                {
                    "name": "G4",
                    "midi": 67,
                    "time": 150.08790900000196,
                    "velocity": 0.5118110236220472,
                    "duration": 0.08797649999999635
                },
                {
                    "name": "D#4",
                    "midi": 63,
                    "time": 150.08790900000196,
                    "velocity": 0.4330708661417323,
                    "duration": 0.08797649999999635
                },
                {
                    "name": "G3",
                    "midi": 55,
                    "time": 150.08790900000196,
                    "velocity": 0.4330708661417323,
                    "duration": 0.08797649999999635
                },
                {
                    "name": "F3",
                    "midi": 53,
                    "time": 150.26386200000195,
                    "velocity": 0.5590551181102362,
                    "duration": 0.08797649999999635
                },
                {
                    "name": "F2",
                    "midi": 41,
                    "time": 150.26386200000195,
                    "velocity": 0.47244094488188976,
                    "duration": 0.08797649999999635
                },
                {
                    "name": "F4",
                    "midi": 65,
                    "time": 150.43981500000194,
                    "velocity": 0.5118110236220472,
                    "duration": 0.08797649999999635
                },
                {
                    "name": "C4",
                    "midi": 60,
                    "time": 150.43981500000194,
                    "velocity": 0.4330708661417323,
                    "duration": 0.08797649999999635
                },
                {
                    "name": "G#3",
                    "midi": 56,
                    "time": 150.43981500000194,
                    "velocity": 0.4330708661417323,
                    "duration": 0.08797649999999635
                },
                {
                    "name": "A#2",
                    "midi": 46,
                    "time": 150.61576800000194,
                    "velocity": 0.5590551181102362,
                    "duration": 0.08797649999999635
                },
                {
                    "name": "A#1",
                    "midi": 34,
                    "time": 150.61576800000194,
                    "velocity": 0.47244094488188976,
                    "duration": 0.08797649999999635
                },
                {
                    "name": "F4",
                    "midi": 65,
                    "time": 150.79172100000193,
                    "velocity": 0.5118110236220472,
                    "duration": 0.08797649999999635
                },
                {
                    "name": "D4",
                    "midi": 62,
                    "time": 150.79172100000193,
                    "velocity": 0.4330708661417323,
                    "duration": 0.08797649999999635
                },
                {
                    "name": "G#3",
                    "midi": 56,
                    "time": 150.79172100000193,
                    "velocity": 0.4330708661417323,
                    "duration": 0.08797649999999635
                },
                {
                    "name": "D#3",
                    "midi": 51,
                    "time": 150.96767400000192,
                    "velocity": 0.5590551181102362,
                    "duration": 0.08797649999999635
                },
                {
                    "name": "D#2",
                    "midi": 39,
                    "time": 150.96767400000192,
                    "velocity": 0.47244094488188976,
                    "duration": 0.08797649999999635
                },
                {
                    "name": "G4",
                    "midi": 67,
                    "time": 151.1436270000019,
                    "velocity": 0.5118110236220472,
                    "duration": 0.08797649999999635
                },
                {
                    "name": "D#4",
                    "midi": 63,
                    "time": 151.1436270000019,
                    "velocity": 0.4330708661417323,
                    "duration": 0.08797649999999635
                },
                {
                    "name": "G3",
                    "midi": 55,
                    "time": 151.1436270000019,
                    "velocity": 0.4330708661417323,
                    "duration": 0.08797649999999635
                },
                {
                    "name": "D#3",
                    "midi": 51,
                    "time": 151.3195800000019,
                    "velocity": 0.5590551181102362,
                    "duration": 0.08797649999999635
                },
                {
                    "name": "D#2",
                    "midi": 39,
                    "time": 151.3195800000019,
                    "velocity": 0.47244094488188976,
                    "duration": 0.08797649999999635
                },
                {
                    "name": "G4",
                    "midi": 67,
                    "time": 151.4955330000019,
                    "velocity": 0.5118110236220472,
                    "duration": 0.08797649999999635
                },
                {
                    "name": "D#4",
                    "midi": 63,
                    "time": 151.4955330000019,
                    "velocity": 0.4330708661417323,
                    "duration": 0.08797649999999635
                },
                {
                    "name": "G3",
                    "midi": 55,
                    "time": 151.4955330000019,
                    "velocity": 0.4330708661417323,
                    "duration": 0.08797649999999635
                },
                {
                    "name": "G#2",
                    "midi": 44,
                    "time": 151.6714860000019,
                    "velocity": 0.5590551181102362,
                    "duration": 0.08797649999999635
                },
                {
                    "name": "G#1",
                    "midi": 32,
                    "time": 151.6714860000019,
                    "velocity": 0.47244094488188976,
                    "duration": 0.08797649999999635
                },
                {
                    "name": "F4",
                    "midi": 65,
                    "time": 151.84743900000188,
                    "velocity": 0.5039370078740157,
                    "duration": 0.1759529999999927
                },
                {
                    "name": "C4",
                    "midi": 60,
                    "time": 151.84743900000188,
                    "velocity": 0.4251968503937008,
                    "duration": 0.1759529999999927
                },
                {
                    "name": "F3",
                    "midi": 53,
                    "time": 151.84743900000188,
                    "velocity": 0.4251968503937008,
                    "duration": 0.1759529999999927
                },
                {
                    "name": "A#2",
                    "midi": 46,
                    "time": 152.02339200000188,
                    "velocity": 0.5590551181102362,
                    "duration": 0.08797649999999635
                },
                {
                    "name": "A#1",
                    "midi": 34,
                    "time": 152.02339200000188,
                    "velocity": 0.47244094488188976,
                    "duration": 0.08797649999999635
                },
                {
                    "name": "F4",
                    "midi": 65,
                    "time": 152.19934500000187,
                    "velocity": 0.5118110236220472,
                    "duration": 0.1759529999999927
                },
                {
                    "name": "D4",
                    "midi": 62,
                    "time": 152.19934500000187,
                    "velocity": 0.4330708661417323,
                    "duration": 0.1759529999999927
                },
                {
                    "name": "F3",
                    "midi": 53,
                    "time": 152.19934500000187,
                    "velocity": 0.4330708661417323,
                    "duration": 0.1759529999999927
                },
                {
                    "name": "D#3",
                    "midi": 51,
                    "time": 152.37529800000186,
                    "velocity": 0.5590551181102362,
                    "duration": 0.08797649999999635
                },
                {
                    "name": "D#2",
                    "midi": 39,
                    "time": 152.37529800000186,
                    "velocity": 0.47244094488188976,
                    "duration": 0.08797649999999635
                },
                {
                    "name": "G4",
                    "midi": 67,
                    "time": 152.55125100000186,
                    "velocity": 0.5118110236220472,
                    "duration": 0.08797649999999635
                },
                {
                    "name": "D#4",
                    "midi": 63,
                    "time": 152.55125100000186,
                    "velocity": 0.4330708661417323,
                    "duration": 0.08797649999999635
                },
                {
                    "name": "G3",
                    "midi": 55,
                    "time": 152.55125100000186,
                    "velocity": 0.4330708661417323,
                    "duration": 0.08797649999999635
                },
                {
                    "name": "D#3",
                    "midi": 51,
                    "time": 152.72720400000185,
                    "velocity": 0.5590551181102362,
                    "duration": 0.08797649999999635
                },
                {
                    "name": "D#2",
                    "midi": 39,
                    "time": 152.72720400000185,
                    "velocity": 0.47244094488188976,
                    "duration": 0.08797649999999635
                },
                {
                    "name": "G4",
                    "midi": 67,
                    "time": 152.90315700000184,
                    "velocity": 0.5118110236220472,
                    "duration": 0.08797649999999635
                },
                {
                    "name": "D#4",
                    "midi": 63,
                    "time": 152.90315700000184,
                    "velocity": 0.4330708661417323,
                    "duration": 0.08797649999999635
                },
                {
                    "name": "G3",
                    "midi": 55,
                    "time": 152.90315700000184,
                    "velocity": 0.4330708661417323,
                    "duration": 0.08797649999999635
                },
                {
                    "name": "F3",
                    "midi": 53,
                    "time": 153.07911000000183,
                    "velocity": 0.5590551181102362,
                    "duration": 0.08797649999999635
                },
                {
                    "name": "F2",
                    "midi": 41,
                    "time": 153.07911000000183,
                    "velocity": 0.47244094488188976,
                    "duration": 0.08797649999999635
                },
                {
                    "name": "F4",
                    "midi": 65,
                    "time": 153.25506300000183,
                    "velocity": 0.5118110236220472,
                    "duration": 0.08797649999999635
                },
                {
                    "name": "C4",
                    "midi": 60,
                    "time": 153.25506300000183,
                    "velocity": 0.4330708661417323,
                    "duration": 0.08797649999999635
                },
                {
                    "name": "G#3",
                    "midi": 56,
                    "time": 153.25506300000183,
                    "velocity": 0.4330708661417323,
                    "duration": 0.08797649999999635
                },
                {
                    "name": "A#2",
                    "midi": 46,
                    "time": 153.43101600000182,
                    "velocity": 0.5590551181102362,
                    "duration": 0.08797649999999635
                },
                {
                    "name": "A#1",
                    "midi": 34,
                    "time": 153.43101600000182,
                    "velocity": 0.47244094488188976,
                    "duration": 0.08797649999999635
                },
                {
                    "name": "F4",
                    "midi": 65,
                    "time": 153.6069690000018,
                    "velocity": 0.5118110236220472,
                    "duration": 0.08797649999999635
                },
                {
                    "name": "D4",
                    "midi": 62,
                    "time": 153.6069690000018,
                    "velocity": 0.4330708661417323,
                    "duration": 0.08797649999999635
                },
                {
                    "name": "G#3",
                    "midi": 56,
                    "time": 153.6069690000018,
                    "velocity": 0.4330708661417323,
                    "duration": 0.08797649999999635
                },
                {
                    "name": "D#2",
                    "midi": 39,
                    "time": 153.7829220000018,
                    "velocity": 0.47244094488188976,
                    "duration": 0.08797649999999635
                },
                {
                    "name": "D#3",
                    "midi": 51,
                    "time": 153.7829220000018,
                    "velocity": 0.5590551181102362,
                    "duration": 0.08797649999999635
                },
                {
                    "name": "D#4",
                    "midi": 63,
                    "time": 154.1348280000018,
                    "velocity": 0.47244094488188976,
                    "duration": 0.08797649999999635
                },
                {
                    "name": "G4",
                    "midi": 67,
                    "time": 154.1348280000018,
                    "velocity": 0.5590551181102362,
                    "duration": 0.08797649999999635
                },
                {
                    "name": "G3",
                    "midi": 55,
                    "time": 154.1348280000018,
                    "velocity": 0.47244094488188976,
                    "duration": 0.08797649999999635
                },
                {
                    "name": "A#3",
                    "midi": 58,
                    "time": 154.1377605500018,
                    "velocity": 0.47244094488188976,
                    "duration": 0.08797649999999635
                },
                {
                    "name": "A#2",
                    "midi": 46,
                    "time": 155.3664990000018,
                    "velocity": 0.2677165354330709,
                    "duration": 0.043988250000012385
                },
                {
                    "name": "F3",
                    "midi": 53,
                    "time": 155.3664990000018,
                    "velocity": 0.3228346456692913,
                    "duration": 0.043988250000012385
                },
                {
                    "name": "D#2",
                    "midi": 39,
                    "time": 155.54245200000182,
                    "velocity": 0.3543307086614173,
                    "duration": 0.043988250000012385
                },
                {
                    "name": "A#2",
                    "midi": 46,
                    "time": 155.71840500000184,
                    "velocity": 0.29133858267716534,
                    "duration": 0.043988250000012385
                },
                {
                    "name": "F3",
                    "midi": 53,
                    "time": 155.71840500000184,
                    "velocity": 0.3464566929133858,
                    "duration": 0.043988250000012385
                },
                {
                    "name": "A#2",
                    "midi": 46,
                    "time": 156.07031100000185,
                    "velocity": 0.2677165354330709,
                    "duration": 0.043988250000012385
                },
                {
                    "name": "D#3",
                    "midi": 51,
                    "time": 156.07031100000185,
                    "velocity": 0.31496062992125984,
                    "duration": 0.043988250000012385
                },
                {
                    "name": "D#2",
                    "midi": 39,
                    "time": 156.24626400000187,
                    "velocity": 0.3543307086614173,
                    "duration": 0.043988250000012385
                },
                {
                    "name": "A#2",
                    "midi": 46,
                    "time": 156.4222170000019,
                    "velocity": 0.28346456692913385,
                    "duration": 0.043988250000012385
                },
                {
                    "name": "D#3",
                    "midi": 51,
                    "time": 156.4222170000019,
                    "velocity": 0.33858267716535434,
                    "duration": 0.043988250000012385
                },
                {
                    "name": "A#2",
                    "midi": 46,
                    "time": 156.7741230000019,
                    "velocity": 0.2755905511811024,
                    "duration": 0.043988250000012385
                },
                {
                    "name": "D3",
                    "midi": 50,
                    "time": 156.7741230000019,
                    "velocity": 0.33070866141732286,
                    "duration": 0.043988250000012385
                },
                {
                    "name": "D#2",
                    "midi": 39,
                    "time": 156.95007600000193,
                    "velocity": 0.3543307086614173,
                    "duration": 0.043988250000012385
                },
                {
                    "name": "A#2",
                    "midi": 46,
                    "time": 157.12602900000195,
                    "velocity": 0.28346456692913385,
                    "duration": 0.043988250000012385
                },
                {
                    "name": "D3",
                    "midi": 50,
                    "time": 157.12602900000195,
                    "velocity": 0.33858267716535434,
                    "duration": 0.043988250000012385
                },
                {
                    "name": "A#2",
                    "midi": 46,
                    "time": 157.47793500000196,
                    "velocity": 0.2677165354330709,
                    "duration": 0.043988250000012385
                },
                {
                    "name": "G3",
                    "midi": 55,
                    "time": 157.47793500000196,
                    "velocity": 0.3228346456692913,
                    "duration": 0.043988250000012385
                },
                {
                    "name": "D#2",
                    "midi": 39,
                    "time": 157.65388800000198,
                    "velocity": 0.3543307086614173,
                    "duration": 0.043988250000012385
                },
                {
                    "name": "A#2",
                    "midi": 46,
                    "time": 157.829841000002,
                    "velocity": 0.3228346456692913,
                    "duration": 0.043988250000012385
                },
                {
                    "name": "G3",
                    "midi": 55,
                    "time": 157.829841000002,
                    "velocity": 0.3858267716535433,
                    "duration": 0.043988250000012385
                },
                {
                    "name": "A#2",
                    "midi": 46,
                    "time": 158.18174700000202,
                    "velocity": 0.2677165354330709,
                    "duration": 0.043988250000012385
                },
                {
                    "name": "F3",
                    "midi": 53,
                    "time": 158.18174700000202,
                    "velocity": 0.3228346456692913,
                    "duration": 0.043988250000012385
                },
                {
                    "name": "D#2",
                    "midi": 39,
                    "time": 158.35770000000204,
                    "velocity": 0.3543307086614173,
                    "duration": 0.043988250000012385
                },
                {
                    "name": "A#2",
                    "midi": 46,
                    "time": 158.53365300000206,
                    "velocity": 0.29133858267716534,
                    "duration": 0.043988250000012385
                },
                {
                    "name": "F3",
                    "midi": 53,
                    "time": 158.53365300000206,
                    "velocity": 0.3464566929133858,
                    "duration": 0.043988250000012385
                },
                {
                    "name": "A#2",
                    "midi": 46,
                    "time": 158.88555900000208,
                    "velocity": 0.2677165354330709,
                    "duration": 0.043988250000012385
                },
                {
                    "name": "D#3",
                    "midi": 51,
                    "time": 158.88555900000208,
                    "velocity": 0.31496062992125984,
                    "duration": 0.043988250000012385
                },
                {
                    "name": "D#2",
                    "midi": 39,
                    "time": 159.0615120000021,
                    "velocity": 0.3543307086614173,
                    "duration": 0.043988250000012385
                },
                {
                    "name": "A#2",
                    "midi": 46,
                    "time": 159.23746500000212,
                    "velocity": 0.28346456692913385,
                    "duration": 0.043988250000012385
                },
                {
                    "name": "D#3",
                    "midi": 51,
                    "time": 159.23746500000212,
                    "velocity": 0.33858267716535434,
                    "duration": 0.043988250000012385
                },
                {
                    "name": "A#2",
                    "midi": 46,
                    "time": 159.58937100000213,
                    "velocity": 0.2755905511811024,
                    "duration": 0.043988250000012385
                },
                {
                    "name": "D3",
                    "midi": 50,
                    "time": 159.58937100000213,
                    "velocity": 0.33070866141732286,
                    "duration": 0.043988250000012385
                },
                {
                    "name": "D#2",
                    "midi": 39,
                    "time": 159.76532400000215,
                    "velocity": 0.3543307086614173,
                    "duration": 0.043988250000012385
                },
                {
                    "name": "A#2",
                    "midi": 46,
                    "time": 159.94127700000217,
                    "velocity": 0.28346456692913385,
                    "duration": 0.043988250000012385
                },
                {
                    "name": "D3",
                    "midi": 50,
                    "time": 159.94127700000217,
                    "velocity": 0.33858267716535434,
                    "duration": 0.043988250000012385
                },
                {
                    "name": "A#2",
                    "midi": 46,
                    "time": 160.2931830000022,
                    "velocity": 0.2677165354330709,
                    "duration": 0.043988250000012385
                },
                {
                    "name": "D#3",
                    "midi": 51,
                    "time": 160.2931830000022,
                    "velocity": 0.3228346456692913,
                    "duration": 0.043988250000012385
                },
                {
                    "name": "D#2",
                    "midi": 39,
                    "time": 160.4691360000022,
                    "velocity": 0.3543307086614173,
                    "duration": 0.043988250000012385
                },
                {
                    "name": "A#2",
                    "midi": 46,
                    "time": 160.99699500000222,
                    "velocity": 0.4251968503937008,
                    "duration": 0.1759529999999927
                },
                {
                    "name": "G#3",
                    "midi": 56,
                    "time": 160.99699500000222,
                    "velocity": 0.49606299212598426,
                    "duration": 0.1759529999999927
                },
                {
                    "name": "D#2",
                    "midi": 39,
                    "time": 161.1729480000022,
                    "velocity": 0.3700787401574803,
                    "duration": 0.1759529999999927
                },
                {
                    "name": "A#2",
                    "midi": 46,
                    "time": 161.3489010000022,
                    "velocity": 0.36220472440944884,
                    "duration": 0.1759529999999927
                },
                {
                    "name": "G#3",
                    "midi": 56,
                    "time": 161.3489010000022,
                    "velocity": 0.4409448818897638,
                    "duration": 0.1759529999999927
                },
                {
                    "name": "A#2",
                    "midi": 46,
                    "time": 161.7008070000022,
                    "velocity": 0.4251968503937008,
                    "duration": 0.1759529999999927
                },
                {
                    "name": "G3",
                    "midi": 55,
                    "time": 161.7008070000022,
                    "velocity": 0.49606299212598426,
                    "duration": 0.1759529999999927
                },
                {
                    "name": "D#2",
                    "midi": 39,
                    "time": 161.87676000000218,
                    "velocity": 0.3700787401574803,
                    "duration": 0.1759529999999927
                },
                {
                    "name": "A#2",
                    "midi": 46,
                    "time": 162.05271300000217,
                    "velocity": 0.36220472440944884,
                    "duration": 0.1759529999999927
                },
                {
                    "name": "G3",
                    "midi": 55,
                    "time": 162.05271300000217,
                    "velocity": 0.4409448818897638,
                    "duration": 0.1759529999999927
                },
                {
                    "name": "A#2",
                    "midi": 46,
                    "time": 162.40461900000216,
                    "velocity": 0.4251968503937008,
                    "duration": 0.1759529999999927
                },
                {
                    "name": "G#3",
                    "midi": 56,
                    "time": 162.40461900000216,
                    "velocity": 0.49606299212598426,
                    "duration": 0.1759529999999927
                },
                {
                    "name": "D#2",
                    "midi": 39,
                    "time": 162.58057200000215,
                    "velocity": 0.3700787401574803,
                    "duration": 0.1759529999999927
                },
                {
                    "name": "A#2",
                    "midi": 46,
                    "time": 162.75652500000214,
                    "velocity": 0.36220472440944884,
                    "duration": 0.1759529999999927
                },
                {
                    "name": "G#3",
                    "midi": 56,
                    "time": 162.75652500000214,
                    "velocity": 0.4409448818897638,
                    "duration": 0.1759529999999927
                },
                {
                    "name": "A#2",
                    "midi": 46,
                    "time": 163.10843100000213,
                    "velocity": 0.4330708661417323,
                    "duration": 0.1759529999999927
                },
                {
                    "name": "G3",
                    "midi": 55,
                    "time": 163.10843100000213,
                    "velocity": 0.5039370078740157,
                    "duration": 0.1759529999999927
                },
                {
                    "name": "D#2",
                    "midi": 39,
                    "time": 163.28438400000212,
                    "velocity": 0.3779527559055118,
                    "duration": 0.1759529999999927
                },
                {
                    "name": "A#2",
                    "midi": 46,
                    "time": 163.4603370000021,
                    "velocity": 0.3779527559055118,
                    "duration": 0.1759529999999927
                },
                {
                    "name": "G3",
                    "midi": 55,
                    "time": 163.4603370000021,
                    "velocity": 0.44881889763779526,
                    "duration": 0.1759529999999927
                },
                {
                    "name": "A#2",
                    "midi": 46,
                    "time": 163.8122430000021,
                    "velocity": 0.4409448818897638,
                    "duration": 0.1759529999999927
                },
                {
                    "name": "G#3",
                    "midi": 56,
                    "time": 163.8122430000021,
                    "velocity": 0.5275590551181102,
                    "duration": 0.1759529999999927
                },
                {
                    "name": "D#2",
                    "midi": 39,
                    "time": 163.9881960000021,
                    "velocity": 0.3858267716535433,
                    "duration": 0.1759529999999927
                },
                {
                    "name": "A#2",
                    "midi": 46,
                    "time": 164.16414900000208,
                    "velocity": 0.3858267716535433,
                    "duration": 0.1759529999999927
                },
                {
                    "name": "G#3",
                    "midi": 56,
                    "time": 164.16414900000208,
                    "velocity": 0.47244094488188976,
                    "duration": 0.1759529999999927
                },
                {
                    "name": "A#2",
                    "midi": 46,
                    "time": 164.51605500000207,
                    "velocity": 0.44881889763779526,
                    "duration": 0.1759529999999927
                },
                {
                    "name": "G3",
                    "midi": 55,
                    "time": 164.51605500000207,
                    "velocity": 0.5354330708661418,
                    "duration": 0.1759529999999927
                },
                {
                    "name": "D#2",
                    "midi": 39,
                    "time": 164.69200800000206,
                    "velocity": 0.4015748031496063,
                    "duration": 0.1759529999999927
                },
                {
                    "name": "A#2",
                    "midi": 46,
                    "time": 164.86796100000205,
                    "velocity": 0.3937007874015748,
                    "duration": 0.1759529999999927
                },
                {
                    "name": "G3",
                    "midi": 55,
                    "time": 164.86796100000205,
                    "velocity": 0.48031496062992124,
                    "duration": 0.1759529999999927
                },
                {
                    "name": "A#2",
                    "midi": 46,
                    "time": 165.21986700000204,
                    "velocity": 0.4566929133858268,
                    "duration": 0.1759529999999927
                },
                {
                    "name": "G#3",
                    "midi": 56,
                    "time": 165.21986700000204,
                    "velocity": 0.5433070866141733,
                    "duration": 0.1759529999999927
                },
                {
                    "name": "D#2",
                    "midi": 39,
                    "time": 165.39582000000203,
                    "velocity": 0.4094488188976378,
                    "duration": 0.1759529999999927
                },
                {
                    "name": "A#2",
                    "midi": 46,
                    "time": 165.57177300000203,
                    "velocity": 0.4015748031496063,
                    "duration": 0.1759529999999927
                },
                {
                    "name": "G#3",
                    "midi": 56,
                    "time": 165.57177300000203,
                    "velocity": 0.4881889763779528,
                    "duration": 0.1759529999999927
                },
                {
                    "name": "A#2",
                    "midi": 46,
                    "time": 165.923679000002,
                    "velocity": 0.4015748031496063,
                    "duration": 0.1759529999999927
                },
                {
                    "name": "G3",
                    "midi": 55,
                    "time": 165.923679000002,
                    "velocity": 0.47244094488188976,
                    "duration": 0.1759529999999927
                },
                {
                    "name": "D#2",
                    "midi": 39,
                    "time": 166.099632000002,
                    "velocity": 0.3700787401574803,
                    "duration": 0.1759529999999927
                },
                {
                    "name": "A#2",
                    "midi": 46,
                    "time": 166.275585000002,
                    "velocity": 0.30708661417322836,
                    "duration": 0.1759529999999927
                },
                {
                    "name": "G3",
                    "midi": 55,
                    "time": 166.275585000002,
                    "velocity": 0.3700787401574803,
                    "duration": 0.1759529999999927
                },
                {
                    "name": "A#2",
                    "midi": 46,
                    "time": 166.62749100000198,
                    "velocity": 0.33070866141732286,
                    "duration": 0.1759529999999927
                },
                {
                    "name": "G#3",
                    "midi": 56,
                    "time": 166.62749100000198,
                    "velocity": 0.33070866141732286,
                    "duration": 0.1759529999999927
                },
                {
                    "name": "D#2",
                    "midi": 39,
                    "time": 166.80344400000197,
                    "velocity": 0.3464566929133858,
                    "duration": 0.1759529999999927
                },
                {
                    "name": "A#2",
                    "midi": 46,
                    "time": 166.97939700000197,
                    "velocity": 0.31496062992125984,
                    "duration": 0.1759529999999927
                },
                {
                    "name": "G#3",
                    "midi": 56,
                    "time": 166.97939700000197,
                    "velocity": 0.31496062992125984,
                    "duration": 0.1759529999999927
                },
                {
                    "name": "A#2",
                    "midi": 46,
                    "time": 167.33130300000195,
                    "velocity": 0.31496062992125984,
                    "duration": 0.1759529999999927
                },
                {
                    "name": "G3",
                    "midi": 55,
                    "time": 167.33130300000195,
                    "velocity": 0.31496062992125984,
                    "duration": 0.1759529999999927
                },
                {
                    "name": "D#2",
                    "midi": 39,
                    "time": 167.50725600000195,
                    "velocity": 0.3464566929133858,
                    "duration": 0.1759529999999927
                },
                {
                    "name": "A#2",
                    "midi": 46,
                    "time": 167.68320900000194,
                    "velocity": 0.3228346456692913,
                    "duration": 0.1759529999999927
                },
                {
                    "name": "G3",
                    "midi": 55,
                    "time": 167.68320900000194,
                    "velocity": 0.3228346456692913,
                    "duration": 0.1759529999999927
                },
                {
                    "name": "F3",
                    "midi": 53,
                    "time": 168.03511500000192,
                    "velocity": 0.31496062992125984,
                    "duration": 0.1759529999999927
                },
                {
                    "name": "G#3",
                    "midi": 56,
                    "time": 168.03511500000192,
                    "velocity": 0.31496062992125984,
                    "duration": 0.1759529999999927
                },
                {
                    "name": "D4",
                    "midi": 62,
                    "time": 168.03511500000192,
                    "velocity": 0.31496062992125984,
                    "duration": 0.1759529999999927
                },
                {
                    "name": "D#2",
                    "midi": 39,
                    "time": 168.21106800000192,
                    "velocity": 0.3464566929133858,
                    "duration": 0.1759529999999927
                },
                {
                    "name": "D4",
                    "midi": 62,
                    "time": 168.3870210000019,
                    "velocity": 0.31496062992125984,
                    "duration": 0.1759529999999927
                },
                {
                    "name": "G#3",
                    "midi": 56,
                    "time": 168.3870210000019,
                    "velocity": 0.31496062992125984,
                    "duration": 0.1759529999999927
                },
                {
                    "name": "F3",
                    "midi": 53,
                    "time": 168.3870210000019,
                    "velocity": 0.31496062992125984,
                    "duration": 0.1759529999999927
                },
                {
                    "name": "G3",
                    "midi": 55,
                    "time": 168.7389270000019,
                    "velocity": 0.3228346456692913,
                    "duration": 0.1759529999999927
                },
                {
                    "name": "A#3",
                    "midi": 58,
                    "time": 168.7389270000019,
                    "velocity": 0.3228346456692913,
                    "duration": 0.1759529999999927
                },
                {
                    "name": "D#4",
                    "midi": 63,
                    "time": 168.7389270000019,
                    "velocity": 0.3228346456692913,
                    "duration": 0.1759529999999927
                },
                {
                    "name": "D#2",
                    "midi": 39,
                    "time": 168.9148800000019,
                    "velocity": 0.3464566929133858,
                    "duration": 0.1759529999999927
                },
                {
                    "name": "D#4",
                    "midi": 63,
                    "time": 169.09083300000188,
                    "velocity": 0.33070866141732286,
                    "duration": 0.1759529999999927
                },
                {
                    "name": "A#3",
                    "midi": 58,
                    "time": 169.09083300000188,
                    "velocity": 0.33070866141732286,
                    "duration": 0.1759529999999927
                },
                {
                    "name": "G3",
                    "midi": 55,
                    "time": 169.09083300000188,
                    "velocity": 0.33070866141732286,
                    "duration": 0.1759529999999927
                },
                {
                    "name": "G#3",
                    "midi": 56,
                    "time": 169.44273900000186,
                    "velocity": 0.31496062992125984,
                    "duration": 0.1759529999999927
                },
                {
                    "name": "D4",
                    "midi": 62,
                    "time": 169.44273900000186,
                    "velocity": 0.31496062992125984,
                    "duration": 0.1759529999999927
                },
                {
                    "name": "F4",
                    "midi": 65,
                    "time": 169.44273900000186,
                    "velocity": 0.31496062992125984,
                    "duration": 0.1759529999999927
                },
                {
                    "name": "D#2",
                    "midi": 39,
                    "time": 169.61869200000186,
                    "velocity": 0.3464566929133858,
                    "duration": 0.1759529999999927
                },
                {
                    "name": "F4",
                    "midi": 65,
                    "time": 169.79464500000185,
                    "velocity": 0.31496062992125984,
                    "duration": 0.1759529999999927
                },
                {
                    "name": "D4",
                    "midi": 62,
                    "time": 169.79464500000185,
                    "velocity": 0.31496062992125984,
                    "duration": 0.1759529999999927
                },
                {
                    "name": "G#3",
                    "midi": 56,
                    "time": 169.79464500000185,
                    "velocity": 0.31496062992125984,
                    "duration": 0.1759529999999927
                },
                {
                    "name": "A#3",
                    "midi": 58,
                    "time": 170.14655100000184,
                    "velocity": 0.3228346456692913,
                    "duration": 0.1759529999999927
                },
                {
                    "name": "D#4",
                    "midi": 63,
                    "time": 170.14655100000184,
                    "velocity": 0.3228346456692913,
                    "duration": 0.1759529999999927
                },
                {
                    "name": "G4",
                    "midi": 67,
                    "time": 170.14655100000184,
                    "velocity": 0.3228346456692913,
                    "duration": 0.1759529999999927
                },
                {
                    "name": "D#2",
                    "midi": 39,
                    "time": 170.32250400000183,
                    "velocity": 0.3464566929133858,
                    "duration": 0.1759529999999927
                },
                {
                    "name": "G4",
                    "midi": 67,
                    "time": 170.49845700000182,
                    "velocity": 0.33070866141732286,
                    "duration": 0.1759529999999927
                },
                {
                    "name": "D#4",
                    "midi": 63,
                    "time": 170.49845700000182,
                    "velocity": 0.33070866141732286,
                    "duration": 0.1759529999999927
                },
                {
                    "name": "A#3",
                    "midi": 58,
                    "time": 170.49845700000182,
                    "velocity": 0.33070866141732286,
                    "duration": 0.1759529999999927
                },
                {
                    "name": "G#4",
                    "midi": 68,
                    "time": 170.8503630000018,
                    "velocity": 0.25196850393700787,
                    "duration": 0.1759529999999927
                },
                {
                    "name": "A#3",
                    "midi": 58,
                    "time": 170.8503630000018,
                    "velocity": 0.25196850393700787,
                    "duration": 0.1759529999999927
                },
                {
                    "name": "D4",
                    "midi": 62,
                    "time": 170.8503630000018,
                    "velocity": 0.25196850393700787,
                    "duration": 0.1759529999999927
                },
                {
                    "name": "D#2",
                    "midi": 39,
                    "time": 171.0263160000018,
                    "velocity": 0.2755905511811024,
                    "duration": 0.1759529999999927
                },
                {
                    "name": "G#4",
                    "midi": 68,
                    "time": 171.2022690000018,
                    "velocity": 0.25984251968503935,
                    "duration": 0.1759529999999927
                },
                {
                    "name": "D4",
                    "midi": 62,
                    "time": 171.2022690000018,
                    "velocity": 0.25984251968503935,
                    "duration": 0.1759529999999927
                },
                {
                    "name": "A#3",
                    "midi": 58,
                    "time": 171.2022690000018,
                    "velocity": 0.25984251968503935,
                    "duration": 0.1759529999999927
                },
                {
                    "name": "A#3",
                    "midi": 58,
                    "time": 171.55417500000178,
                    "velocity": 0.25196850393700787,
                    "duration": 0.1759529999999927
                },
                {
                    "name": "D#4",
                    "midi": 63,
                    "time": 171.55417500000178,
                    "velocity": 0.25196850393700787,
                    "duration": 0.1759529999999927
                },
                {
                    "name": "G4",
                    "midi": 67,
                    "time": 171.55417500000178,
                    "velocity": 0.25196850393700787,
                    "duration": 0.1759529999999927
                },
                {
                    "name": "D#2",
                    "midi": 39,
                    "time": 171.73012800000177,
                    "velocity": 0.2755905511811024,
                    "duration": 0.1759529999999927
                },
                {
                    "name": "G4",
                    "midi": 67,
                    "time": 171.90608100000176,
                    "velocity": 0.25984251968503935,
                    "duration": 0.1759529999999927
                },
                {
                    "name": "D#4",
                    "midi": 63,
                    "time": 171.90608100000176,
                    "velocity": 0.25984251968503935,
                    "duration": 0.1759529999999927
                },
                {
                    "name": "A#3",
                    "midi": 58,
                    "time": 171.90608100000176,
                    "velocity": 0.25984251968503935,
                    "duration": 0.1759529999999927
                },
                {
                    "name": "G#4",
                    "midi": 68,
                    "time": 172.25798700000175,
                    "velocity": 0.25196850393700787,
                    "duration": 0.1759529999999927
                },
                {
                    "name": "A#3",
                    "midi": 58,
                    "time": 172.25798700000175,
                    "velocity": 0.25196850393700787,
                    "duration": 0.1759529999999927
                },
                {
                    "name": "D4",
                    "midi": 62,
                    "time": 172.25798700000175,
                    "velocity": 0.25196850393700787,
                    "duration": 0.1759529999999927
                },
                {
                    "name": "D#2",
                    "midi": 39,
                    "time": 172.43394000000174,
                    "velocity": 0.2755905511811024,
                    "duration": 0.1759529999999927
                },
                {
                    "name": "G#4",
                    "midi": 68,
                    "time": 172.60989300000173,
                    "velocity": 0.25984251968503935,
                    "duration": 0.1759529999999927
                },
                {
                    "name": "D4",
                    "midi": 62,
                    "time": 172.60989300000173,
                    "velocity": 0.25984251968503935,
                    "duration": 0.1759529999999927
                },
                {
                    "name": "A#3",
                    "midi": 58,
                    "time": 172.60989300000173,
                    "velocity": 0.25984251968503935,
                    "duration": 0.1759529999999927
                },
                {
                    "name": "A#3",
                    "midi": 58,
                    "time": 172.96179900000172,
                    "velocity": 0.25196850393700787,
                    "duration": 0.1759529999999927
                },
                {
                    "name": "D#4",
                    "midi": 63,
                    "time": 172.96179900000172,
                    "velocity": 0.25196850393700787,
                    "duration": 0.1759529999999927
                },
                {
                    "name": "G4",
                    "midi": 67,
                    "time": 172.96179900000172,
                    "velocity": 0.25196850393700787,
                    "duration": 0.1759529999999927
                },
                {
                    "name": "D#2",
                    "midi": 39,
                    "time": 173.1377520000017,
                    "velocity": 0.2755905511811024,
                    "duration": 0.1759529999999927
                },
                {
                    "name": "G4",
                    "midi": 67,
                    "time": 173.3137050000017,
                    "velocity": 0.25984251968503935,
                    "duration": 0.1759529999999927
                },
                {
                    "name": "D#4",
                    "midi": 63,
                    "time": 173.3137050000017,
                    "velocity": 0.25984251968503935,
                    "duration": 0.1759529999999927
                },
                {
                    "name": "A#3",
                    "midi": 58,
                    "time": 173.3137050000017,
                    "velocity": 0.25984251968503935,
                    "duration": 0.1759529999999927
                },
                {
                    "name": "G#4",
                    "midi": 68,
                    "time": 173.6656110000017,
                    "velocity": 0.25196850393700787,
                    "duration": 0.1759529999999927
                },
                {
                    "name": "A#3",
                    "midi": 58,
                    "time": 173.6656110000017,
                    "velocity": 0.25196850393700787,
                    "duration": 0.1759529999999927
                },
                {
                    "name": "D4",
                    "midi": 62,
                    "time": 173.6656110000017,
                    "velocity": 0.25196850393700787,
                    "duration": 0.1759529999999927
                },
                {
                    "name": "D#2",
                    "midi": 39,
                    "time": 173.84156400000168,
                    "velocity": 0.2755905511811024,
                    "duration": 0.1759529999999927
                },
                {
                    "name": "G#4",
                    "midi": 68,
                    "time": 174.01751700000167,
                    "velocity": 0.25984251968503935,
                    "duration": 0.1759529999999927
                },
                {
                    "name": "D4",
                    "midi": 62,
                    "time": 174.01751700000167,
                    "velocity": 0.25984251968503935,
                    "duration": 0.1759529999999927
                },
                {
                    "name": "A#3",
                    "midi": 58,
                    "time": 174.01751700000167,
                    "velocity": 0.25984251968503935,
                    "duration": 0.1759529999999927
                },
                {
                    "name": "A#3",
                    "midi": 58,
                    "time": 174.36942300000166,
                    "velocity": 0.25196850393700787,
                    "duration": 0.1759529999999927
                },
                {
                    "name": "D#4",
                    "midi": 63,
                    "time": 174.36942300000166,
                    "velocity": 0.25196850393700787,
                    "duration": 0.1759529999999927
                },
                {
                    "name": "G4",
                    "midi": 67,
                    "time": 174.36942300000166,
                    "velocity": 0.25196850393700787,
                    "duration": 0.1759529999999927
                },
                {
                    "name": "D#2",
                    "midi": 39,
                    "time": 174.54537600000165,
                    "velocity": 0.2755905511811024,
                    "duration": 0.1759529999999927
                },
                {
                    "name": "G4",
                    "midi": 67,
                    "time": 174.72132900000165,
                    "velocity": 0.25984251968503935,
                    "duration": 0.1759529999999927
                },
                {
                    "name": "D#4",
                    "midi": 63,
                    "time": 174.72132900000165,
                    "velocity": 0.25984251968503935,
                    "duration": 0.1759529999999927
                },
                {
                    "name": "A#3",
                    "midi": 58,
                    "time": 174.72132900000165,
                    "velocity": 0.25984251968503935,
                    "duration": 0.1759529999999927
                },
                {
                    "name": "G#4",
                    "midi": 68,
                    "time": 175.07323500000163,
                    "velocity": 0.25196850393700787,
                    "duration": 0.1759529999999927
                },
                {
                    "name": "A#3",
                    "midi": 58,
                    "time": 175.07323500000163,
                    "velocity": 0.25196850393700787,
                    "duration": 0.1759529999999927
                },
                {
                    "name": "D4",
                    "midi": 62,
                    "time": 175.07323500000163,
                    "velocity": 0.25196850393700787,
                    "duration": 0.1759529999999927
                },
                {
                    "name": "D#2",
                    "midi": 39,
                    "time": 175.24918800000162,
                    "velocity": 0.2755905511811024,
                    "duration": 0.1759529999999927
                },
                {
                    "name": "G#4",
                    "midi": 68,
                    "time": 175.42514100000162,
                    "velocity": 0.25984251968503935,
                    "duration": 0.1759529999999927
                },
                {
                    "name": "D4",
                    "midi": 62,
                    "time": 175.42514100000162,
                    "velocity": 0.25984251968503935,
                    "duration": 0.1759529999999927
                },
                {
                    "name": "A#3",
                    "midi": 58,
                    "time": 175.42514100000162,
                    "velocity": 0.25984251968503935,
                    "duration": 0.1759529999999927
                },
                {
                    "name": "A#3",
                    "midi": 58,
                    "time": 175.9310058750016,
                    "velocity": 0.25196850393700787,
                    "duration": 0.3739001249999774
                },
                {
                    "name": "D#2",
                    "midi": 39,
                    "time": 175.9530000000016,
                    "velocity": 0.25984251968503935,
                    "duration": 0.3519059999999854
                },
                {
                    "name": "F2",
                    "midi": 41,
                    "time": 176.2829118750016,
                    "velocity": 0.23622047244094488,
                    "duration": 0.3739001249999774
                },
                {
                    "name": "G#3",
                    "midi": 56,
                    "time": 176.30490600000158,
                    "velocity": 0.25984251968503935,
                    "duration": 0.3519059999999854
                },
                {
                    "name": "G2",
                    "midi": 43,
                    "time": 176.63481787500157,
                    "velocity": 0.23622047244094488,
                    "duration": 0.3299118749999934
                },
                {
                    "name": "B3",
                    "midi": 59,
                    "time": 176.65681200000157,
                    "velocity": 0.25984251968503935,
                    "duration": 0.30791775000000143
                },
                {
                    "name": "C3",
                    "midi": 48,
                    "time": 176.96472975000157,
                    "velocity": 0.25984251968503935,
                    "duration": 0.7478002499999832
                },
                {
                    "name": "G3",
                    "midi": 55,
                    "time": 176.98672387500156,
                    "velocity": 0.25984251968503935,
                    "duration": 0.7258061249999912
                },
                {
                    "name": "D#4",
                    "midi": 63,
                    "time": 177.00871800000155,
                    "velocity": 0.25984251968503935,
                    "duration": 0.7038119999999992
                },
                {
                    "name": "G#2",
                    "midi": 44,
                    "time": 182.28730800000156,
                    "velocity": 0.33858267716535434,
                    "duration": 0.3519059999999854
                },
                {
                    "name": "F3",
                    "midi": 53,
                    "time": 182.30930212500155,
                    "velocity": 0.33858267716535434,
                    "duration": 0.3299118749999934
                },
                {
                    "name": "C4",
                    "midi": 60,
                    "time": 182.33129625000154,
                    "velocity": 0.33858267716535434,
                    "duration": 0.30791775000000143
                },
                {
                    "name": "A#2",
                    "midi": 46,
                    "time": 184.57469700000155,
                    "velocity": 0.29133858267716534,
                    "duration": 0.5278589999999781
                },
                {
                    "name": "F3",
                    "midi": 53,
                    "time": 184.59669112500154,
                    "velocity": 0.2992125984251969,
                    "duration": 0.5058648749999861
                },
                {
                    "name": "A#3",
                    "midi": 58,
                    "time": 184.61868525000153,
                    "velocity": 0.30708661417322836,
                    "duration": 0.48387074999999413
                },
                {
                    "name": "A#1",
                    "midi": 34,
                    "time": 185.10255600000153,
                    "velocity": 0.2755905511811024,
                    "duration": 0.06598237500000437
                },
                {
                    "name": "D#2",
                    "midi": 39,
                    "time": 185.27850900000152,
                    "velocity": 0.33858267716535434,
                    "duration": 0.043988250000012385
                },
                {
                    "name": "A#2",
                    "midi": 46,
                    "time": 185.45446200000154,
                    "velocity": 0.36220472440944884,
                    "duration": 0.043988250000012385
                },
                {
                    "name": "G3",
                    "midi": 55,
                    "time": 185.63041500000156,
                    "velocity": 0.4015748031496063,
                    "duration": 0.043988250000012385
                },
                {
                    "name": "D#4",
                    "midi": 63,
                    "time": 185.80636800000158,
                    "velocity": 0.5354330708661418,
                    "duration": 0.043988250000012385
                },
                {
                    "name": "G#3",
                    "midi": 56,
                    "time": 185.9823210000016,
                    "velocity": 0.5354330708661418,
                    "duration": 0.043988250000012385
                },
                {
                    "name": "C5",
                    "midi": 72,
                    "time": 186.15827400000163,
                    "velocity": 0.3464566929133858,
                    "duration": 0.043988250000012385
                },
                {
                    "name": "G#4",
                    "midi": 68,
                    "time": 186.15827400000163,
                    "velocity": 0.29133858267716534,
                    "duration": 0.043988250000012385
                },
                {
                    "name": "G5",
                    "midi": 79,
                    "time": 186.42220350000164,
                    "velocity": 0.4330708661417323,
                    "duration": 0.043988250000012385
                },
                {
                    "name": "B5",
                    "midi": 83,
                    "time": 186.42220350000164,
                    "velocity": 0.4330708661417323,
                    "duration": 0.043988250000012385
                },
                {
                    "name": "G#5",
                    "midi": 80,
                    "time": 186.51018000000167,
                    "velocity": 0.4251968503937008,
                    "duration": 0.043988250000012385
                },
                {
                    "name": "C6",
                    "midi": 84,
                    "time": 186.51018000000167,
                    "velocity": 0.5039370078740157,
                    "duration": 0.043988250000012385
                },
                {
                    "name": "G3",
                    "midi": 55,
                    "time": 186.6861330000017,
                    "velocity": 0.5354330708661418,
                    "duration": 0.043988250000012385
                },
                {
                    "name": "A#4",
                    "midi": 70,
                    "time": 186.8620860000017,
                    "velocity": 0.3464566929133858,
                    "duration": 0.043988250000012385
                },
                {
                    "name": "G4",
                    "midi": 67,
                    "time": 186.8620860000017,
                    "velocity": 0.29133858267716534,
                    "duration": 0.043988250000012385
                },
                {
                    "name": "F#5",
                    "midi": 78,
                    "time": 187.12601550000173,
                    "velocity": 0.4330708661417323,
                    "duration": 0.043988250000012385
                },
                {
                    "name": "A5",
                    "midi": 81,
                    "time": 187.12601550000173,
                    "velocity": 0.4330708661417323,
                    "duration": 0.043988250000012385
                },
                {
                    "name": "G5",
                    "midi": 79,
                    "time": 187.21399200000175,
                    "velocity": 0.4251968503937008,
                    "duration": 0.043988250000012385
                },
                {
                    "name": "A#5",
                    "midi": 82,
                    "time": 187.21399200000175,
                    "velocity": 0.5039370078740157,
                    "duration": 0.043988250000012385
                },
                {
                    "name": "F3",
                    "midi": 53,
                    "time": 187.38994500000177,
                    "velocity": 0.5354330708661418,
                    "duration": 0.043988250000012385
                },
                {
                    "name": "G#4",
                    "midi": 68,
                    "time": 187.5658980000018,
                    "velocity": 0.3464566929133858,
                    "duration": 0.043988250000012385
                },
                {
                    "name": "F4",
                    "midi": 65,
                    "time": 187.5658980000018,
                    "velocity": 0.29133858267716534,
                    "duration": 0.043988250000012385
                },
                {
                    "name": "E5",
                    "midi": 76,
                    "time": 187.8298275000018,
                    "velocity": 0.4330708661417323,
                    "duration": 0.043988250000012385
                },
                {
                    "name": "G5",
                    "midi": 79,
                    "time": 187.8298275000018,
                    "velocity": 0.4330708661417323,
                    "duration": 0.043988250000012385
                },
                {
                    "name": "F5",
                    "midi": 77,
                    "time": 187.91780400000184,
                    "velocity": 0.4251968503937008,
                    "duration": 0.043988250000012385
                },
                {
                    "name": "G#5",
                    "midi": 80,
                    "time": 187.91780400000184,
                    "velocity": 0.5039370078740157,
                    "duration": 0.043988250000012385
                },
                {
                    "name": "D#3",
                    "midi": 51,
                    "time": 188.09375700000186,
                    "velocity": 0.5354330708661418,
                    "duration": 0.043988250000012385
                },
                {
                    "name": "G4",
                    "midi": 67,
                    "time": 188.26971000000188,
                    "velocity": 0.3464566929133858,
                    "duration": 0.043988250000012385
                },
                {
                    "name": "D#4",
                    "midi": 63,
                    "time": 188.26971000000188,
                    "velocity": 0.29133858267716534,
                    "duration": 0.043988250000012385
                },
                {
                    "name": "D5",
                    "midi": 74,
                    "time": 188.5336395000019,
                    "velocity": 0.4330708661417323,
                    "duration": 0.043988250000012385
                },
                {
                    "name": "F#5",
                    "midi": 78,
                    "time": 188.5336395000019,
                    "velocity": 0.4330708661417323,
                    "duration": 0.043988250000012385
                },
                {
                    "name": "D#5",
                    "midi": 75,
                    "time": 188.62161600000192,
                    "velocity": 0.4251968503937008,
                    "duration": 0.043988250000012385
                },
                {
                    "name": "G5",
                    "midi": 79,
                    "time": 188.62161600000192,
                    "velocity": 0.5039370078740157,
                    "duration": 0.043988250000012385
                },
                {
                    "name": "A#2",
                    "midi": 46,
                    "time": 188.79756900000194,
                    "velocity": 0.3779527559055118,
                    "duration": 0.043988250000012385
                },
                {
                    "name": "D4",
                    "midi": 62,
                    "time": 188.97352200000196,
                    "velocity": 0.33070866141732286,
                    "duration": 0.043988250000012385
                },
                {
                    "name": "A#2",
                    "midi": 46,
                    "time": 189.14947500000198,
                    "velocity": 0.3700787401574803,
                    "duration": 0.043988250000012385
                },
                {
                    "name": "G#3",
                    "midi": 56,
                    "time": 189.325428000002,
                    "velocity": 0.31496062992125984,
                    "duration": 0.043988250000012385
                },
                {
                    "name": "D#2",
                    "midi": 39,
                    "time": 189.50138100000203,
                    "velocity": 0.33858267716535434,
                    "duration": 0.043988250000012385
                },
                {
                    "name": "A#2",
                    "midi": 46,
                    "time": 189.67733400000205,
                    "velocity": 0.36220472440944884,
                    "duration": 0.043988250000012385
                },
                {
                    "name": "G3",
                    "midi": 55,
                    "time": 189.85328700000207,
                    "velocity": 0.4015748031496063,
                    "duration": 0.043988250000012385
                },
                {
                    "name": "D#4",
                    "midi": 63,
                    "time": 190.0292400000021,
                    "velocity": 0.5354330708661418,
                    "duration": 0.043988250000012385
                },
                {
                    "name": "G#4",
                    "midi": 68,
                    "time": 190.2051930000021,
                    "velocity": 0.5354330708661418,
                    "duration": 0.043988250000012385
                },
                {
                    "name": "C6",
                    "midi": 84,
                    "time": 190.38114600000213,
                    "velocity": 0.3464566929133858,
                    "duration": 0.043988250000012385
                },
                {
                    "name": "G#5",
                    "midi": 80,
                    "time": 190.38114600000213,
                    "velocity": 0.29133858267716534,
                    "duration": 0.043988250000012385
                },
                {
                    "name": "G6",
                    "midi": 91,
                    "time": 190.64507550000215,
                    "velocity": 0.4330708661417323,
                    "duration": 0.043988250000012385
                },
                {
                    "name": "B6",
                    "midi": 95,
                    "time": 190.64507550000215,
                    "velocity": 0.4330708661417323,
                    "duration": 0.043988250000012385
                },
                {
                    "name": "G#6",
                    "midi": 92,
                    "time": 190.73305200000217,
                    "velocity": 0.4251968503937008,
                    "duration": 0.043988250000012385
                },
                {
                    "name": "C7",
                    "midi": 96,
                    "time": 190.73305200000217,
                    "velocity": 0.5039370078740157,
                    "duration": 0.043988250000012385
                },
                {
                    "name": "G4",
                    "midi": 67,
                    "time": 190.9090050000022,
                    "velocity": 0.5354330708661418,
                    "duration": 0.043988250000012385
                },
                {
                    "name": "A#5",
                    "midi": 82,
                    "time": 191.08495800000222,
                    "velocity": 0.3464566929133858,
                    "duration": 0.043988250000012385
                },
                {
                    "name": "G5",
                    "midi": 79,
                    "time": 191.08495800000222,
                    "velocity": 0.29133858267716534,
                    "duration": 0.043988250000012385
                },
                {
                    "name": "F#6",
                    "midi": 90,
                    "time": 191.34888750000223,
                    "velocity": 0.4330708661417323,
                    "duration": 0.043988250000012385
                },
                {
                    "name": "A6",
                    "midi": 93,
                    "time": 191.34888750000223,
                    "velocity": 0.4330708661417323,
                    "duration": 0.043988250000012385
                },
                {
                    "name": "G6",
                    "midi": 91,
                    "time": 191.43686400000226,
                    "velocity": 0.4251968503937008,
                    "duration": 0.043988250000012385
                },
                {
                    "name": "A#6",
                    "midi": 94,
                    "time": 191.43686400000226,
                    "velocity": 0.5039370078740157,
                    "duration": 0.043988250000012385
                },
                {
                    "name": "F4",
                    "midi": 65,
                    "time": 191.61281700000228,
                    "velocity": 0.5354330708661418,
                    "duration": 0.043988250000012385
                },
                {
                    "name": "G#5",
                    "midi": 80,
                    "time": 191.7887700000023,
                    "velocity": 0.3464566929133858,
                    "duration": 0.043988250000012385
                },
                {
                    "name": "F5",
                    "midi": 77,
                    "time": 191.7887700000023,
                    "velocity": 0.29133858267716534,
                    "duration": 0.043988250000012385
                },
                {
                    "name": "E6",
                    "midi": 88,
                    "time": 192.05269950000232,
                    "velocity": 0.4330708661417323,
                    "duration": 0.043988250000012385
                },
                {
                    "name": "G6",
                    "midi": 91,
                    "time": 192.05269950000232,
                    "velocity": 0.4330708661417323,
                    "duration": 0.043988250000012385
                },
                {
                    "name": "F6",
                    "midi": 89,
                    "time": 192.14067600000234,
                    "velocity": 0.4251968503937008,
                    "duration": 0.043988250000012385
                },
                {
                    "name": "G#6",
                    "midi": 92,
                    "time": 192.14067600000234,
                    "velocity": 0.5039370078740157,
                    "duration": 0.043988250000012385
                },
                {
                    "name": "D#4",
                    "midi": 63,
                    "time": 192.31662900000237,
                    "velocity": 0.5354330708661418,
                    "duration": 0.043988250000012385
                },
                {
                    "name": "G5",
                    "midi": 79,
                    "time": 192.4925820000024,
                    "velocity": 0.3464566929133858,
                    "duration": 0.043988250000012385
                },
                {
                    "name": "D#5",
                    "midi": 75,
                    "time": 192.4925820000024,
                    "velocity": 0.29133858267716534,
                    "duration": 0.043988250000012385
                },
                {
                    "name": "D6",
                    "midi": 86,
                    "time": 192.7565115000024,
                    "velocity": 0.4330708661417323,
                    "duration": 0.043988250000012385
                },
                {
                    "name": "F#6",
                    "midi": 90,
                    "time": 192.7565115000024,
                    "velocity": 0.4330708661417323,
                    "duration": 0.043988250000012385
                },
                {
                    "name": "D#6",
                    "midi": 87,
                    "time": 192.84448800000243,
                    "velocity": 0.4251968503937008,
                    "duration": 0.043988250000012385
                },
                {
                    "name": "G6",
                    "midi": 91,
                    "time": 192.84448800000243,
                    "velocity": 0.5039370078740157,
                    "duration": 0.043988250000012385
                },
                {
                    "name": "A#3",
                    "midi": 58,
                    "time": 193.02044100000245,
                    "velocity": 0.3779527559055118,
                    "duration": 0.043988250000012385
                },
                {
                    "name": "D5",
                    "midi": 74,
                    "time": 193.19639400000247,
                    "velocity": 0.33070866141732286,
                    "duration": 0.043988250000012385
                },
                {
                    "name": "A#3",
                    "midi": 58,
                    "time": 193.3723470000025,
                    "velocity": 0.3700787401574803,
                    "duration": 0.043988250000012385
                },
                {
                    "name": "G#4",
                    "midi": 68,
                    "time": 193.5483000000025,
                    "velocity": 0.31496062992125984,
                    "duration": 0.043988250000012385
                },
                {
                    "name": "D#3",
                    "midi": 51,
                    "time": 193.72425300000253,
                    "velocity": 0.33858267716535434,
                    "duration": 0.043988250000012385
                },
                {
                    "name": "A#3",
                    "midi": 58,
                    "time": 193.90020600000256,
                    "velocity": 0.3228346456692913,
                    "duration": 0.043988250000012385
                },
                {
                    "name": "G4",
                    "midi": 67,
                    "time": 194.07615900000258,
                    "velocity": 0.3779527559055118,
                    "duration": 0.043988250000012385
                },
                {
                    "name": "D#5",
                    "midi": 75,
                    "time": 194.2521120000026,
                    "velocity": 0.4015748031496063,
                    "duration": 0.043988250000012385
                },
                {
                    "name": "A#3",
                    "midi": 58,
                    "time": 194.42806500000262,
                    "velocity": 0.3779527559055118,
                    "duration": 0.043988250000012385
                },
                {
                    "name": "D5",
                    "midi": 74,
                    "time": 194.60401800000264,
                    "velocity": 0.33070866141732286,
                    "duration": 0.043988250000012385
                },
                {
                    "name": "A#3",
                    "midi": 58,
                    "time": 194.77997100000266,
                    "velocity": 0.3779527559055118,
                    "duration": 0.043988250000012385
                },
                {
                    "name": "G#4",
                    "midi": 68,
                    "time": 194.95592400000268,
                    "velocity": 0.33070866141732286,
                    "duration": 0.043988250000012385
                },
                {
                    "name": "D#3",
                    "midi": 51,
                    "time": 195.1318770000027,
                    "velocity": 0.36220472440944884,
                    "duration": 0.043988250000012385
                },
                {
                    "name": "A#3",
                    "midi": 58,
                    "time": 195.30783000000272,
                    "velocity": 0.36220472440944884,
                    "duration": 0.043988250000012385
                },
                {
                    "name": "G4",
                    "midi": 67,
                    "time": 195.48378300000275,
                    "velocity": 0.4015748031496063,
                    "duration": 0.043988250000012385
                },
                {
                    "name": "D#5",
                    "midi": 75,
                    "time": 195.65973600000277,
                    "velocity": 0.44881889763779526,
                    "duration": 0.043988250000012385
                },
                {
                    "name": "A#3",
                    "midi": 58,
                    "time": 195.8356890000028,
                    "velocity": 0.44881889763779526,
                    "duration": 0.043988250000012385
                },
                {
                    "name": "F4",
                    "midi": 65,
                    "time": 196.0116420000028,
                    "velocity": 0.33858267716535434,
                    "duration": 0.043988250000012385
                },
                {
                    "name": "D5",
                    "midi": 74,
                    "time": 196.0116420000028,
                    "velocity": 0.3937007874015748,
                    "duration": 0.043988250000012385
                },
                {
                    "name": "G#3",
                    "midi": 56,
                    "time": 196.36354800000282,
                    "velocity": 0.3228346456692913,
                    "duration": 0.08797649999999635
                },
                {
                    "name": "G#4",
                    "midi": 68,
                    "time": 196.36354800000282,
                    "velocity": 0.3858267716535433,
                    "duration": 0.08797649999999635
                },
                {
                    "name": "G4",
                    "midi": 67,
                    "time": 196.45152450000282,
                    "velocity": 0.3858267716535433,
                    "duration": 0.08797649999999635
                },
                {
                    "name": "G3",
                    "midi": 55,
                    "time": 196.45152450000282,
                    "velocity": 0.3228346456692913,
                    "duration": 0.08797649999999635
                },
                {
                    "name": "F#4",
                    "midi": 66,
                    "time": 196.53950100000282,
                    "velocity": 0.44881889763779526,
                    "duration": 0.08797649999999635
                },
                {
                    "name": "F#3",
                    "midi": 54,
                    "time": 196.53950100000282,
                    "velocity": 0.3779527559055118,
                    "duration": 0.08797649999999635
                },
                {
                    "name": "F4",
                    "midi": 65,
                    "time": 196.6274775000028,
                    "velocity": 0.4094488188976378,
                    "duration": 0.08797649999999635
                },
                {
                    "name": "F3",
                    "midi": 53,
                    "time": 196.6274775000028,
                    "velocity": 0.3464566929133858,
                    "duration": 0.08797649999999635
                },
                {
                    "name": "E4",
                    "midi": 64,
                    "time": 196.7154540000028,
                    "velocity": 0.4094488188976378,
                    "duration": 0.08797649999999635
                },
                {
                    "name": "E3",
                    "midi": 52,
                    "time": 196.7154540000028,
                    "velocity": 0.3464566929133858,
                    "duration": 0.08797649999999635
                },
                {
                    "name": "D#4",
                    "midi": 63,
                    "time": 196.8034305000028,
                    "velocity": 0.4094488188976378,
                    "duration": 0.08797649999999635
                },
                {
                    "name": "D#3",
                    "midi": 51,
                    "time": 196.8034305000028,
                    "velocity": 0.3464566929133858,
                    "duration": 0.08797649999999635
                },
                {
                    "name": "D4",
                    "midi": 62,
                    "time": 196.8914070000028,
                    "velocity": 0.4566929133858268,
                    "duration": 0.08797649999999635
                },
                {
                    "name": "D3",
                    "midi": 50,
                    "time": 196.8914070000028,
                    "velocity": 0.3858267716535433,
                    "duration": 0.08797649999999635
                },
                {
                    "name": "C#4",
                    "midi": 61,
                    "time": 196.9793835000028,
                    "velocity": 0.41732283464566927,
                    "duration": 0.08797649999999635
                },
                {
                    "name": "C#3",
                    "midi": 49,
                    "time": 196.9793835000028,
                    "velocity": 0.3543307086614173,
                    "duration": 0.08797649999999635
                },
                {
                    "name": "C4",
                    "midi": 60,
                    "time": 197.0673600000028,
                    "velocity": 0.41732283464566927,
                    "duration": 0.08797649999999635
                },
                {
                    "name": "C3",
                    "midi": 48,
                    "time": 197.0673600000028,
                    "velocity": 0.3543307086614173,
                    "duration": 0.08797649999999635
                },
                {
                    "name": "B2",
                    "midi": 47,
                    "time": 197.1553365000028,
                    "velocity": 0.3543307086614173,
                    "duration": 0.08797649999999635
                },
                {
                    "name": "B3",
                    "midi": 59,
                    "time": 197.1553365000028,
                    "velocity": 0.41732283464566927,
                    "duration": 0.08797649999999635
                },
                {
                    "name": "A#3",
                    "midi": 58,
                    "time": 197.2433130000028,
                    "velocity": 0.4645669291338583,
                    "duration": 0.08797649999999635
                },
                {
                    "name": "A#2",
                    "midi": 46,
                    "time": 197.2433130000028,
                    "velocity": 0.3937007874015748,
                    "duration": 0.08797649999999635
                },
                {
                    "name": "A3",
                    "midi": 57,
                    "time": 197.33128950000278,
                    "velocity": 0.4251968503937008,
                    "duration": 0.08797649999999635
                },
                {
                    "name": "A2",
                    "midi": 45,
                    "time": 197.33128950000278,
                    "velocity": 0.3543307086614173,
                    "duration": 0.08797649999999635
                },
                {
                    "name": "G#2",
                    "midi": 44,
                    "time": 197.41926600000278,
                    "velocity": 0.36220472440944884,
                    "duration": 0.08797649999999635
                },
                {
                    "name": "G#3",
                    "midi": 56,
                    "time": 197.41926600000278,
                    "velocity": 0.4330708661417323,
                    "duration": 0.08797649999999635
                },
                {
                    "name": "G3",
                    "midi": 55,
                    "time": 197.50724250000277,
                    "velocity": 0.4330708661417323,
                    "duration": 0.08797649999999635
                },
                {
                    "name": "G2",
                    "midi": 43,
                    "time": 197.50724250000277,
                    "velocity": 0.36220472440944884,
                    "duration": 0.08797649999999635
                },
                {
                    "name": "F#2",
                    "midi": 42,
                    "time": 197.59521900000277,
                    "velocity": 0.36220472440944884,
                    "duration": 0.08797649999999635
                },
                {
                    "name": "F#3",
                    "midi": 54,
                    "time": 197.59521900000277,
                    "velocity": 0.4330708661417323,
                    "duration": 0.08797649999999635
                },
                {
                    "name": "F2",
                    "midi": 41,
                    "time": 197.68319550000277,
                    "velocity": 0.41732283464566927,
                    "duration": 0.08797649999999635
                },
                {
                    "name": "F3",
                    "midi": 53,
                    "time": 197.68319550000277,
                    "velocity": 0.49606299212598426,
                    "duration": 0.08797649999999635
                },
                {
                    "name": "E2",
                    "midi": 40,
                    "time": 197.77117200000276,
                    "velocity": 0.3779527559055118,
                    "duration": 0.08797649999999635
                },
                {
                    "name": "E3",
                    "midi": 52,
                    "time": 197.77117200000276,
                    "velocity": 0.44881889763779526,
                    "duration": 0.08797649999999635
                },
                {
                    "name": "D#2",
                    "midi": 39,
                    "time": 197.85914850000276,
                    "velocity": 0.3779527559055118,
                    "duration": 0.08797649999999635
                },
                {
                    "name": "D#3",
                    "midi": 51,
                    "time": 197.85914850000276,
                    "velocity": 0.44881889763779526,
                    "duration": 0.08797649999999635
                },
                {
                    "name": "D2",
                    "midi": 38,
                    "time": 197.94712500000276,
                    "velocity": 0.4409448818897638,
                    "duration": 0.08797649999999635
                },
                {
                    "name": "D3",
                    "midi": 50,
                    "time": 197.94712500000276,
                    "velocity": 0.5196850393700787,
                    "duration": 0.08797649999999635
                },
                {
                    "name": "C#2",
                    "midi": 37,
                    "time": 198.03510150000275,
                    "velocity": 0.3937007874015748,
                    "duration": 0.08797649999999635
                },
                {
                    "name": "C#3",
                    "midi": 49,
                    "time": 198.03510150000275,
                    "velocity": 0.4645669291338583,
                    "duration": 0.08797649999999635
                },
                {
                    "name": "C2",
                    "midi": 36,
                    "time": 198.12307800000275,
                    "velocity": 0.4015748031496063,
                    "duration": 0.08797649999999635
                },
                {
                    "name": "C3",
                    "midi": 48,
                    "time": 198.12307800000275,
                    "velocity": 0.47244094488188976,
                    "duration": 0.08797649999999635
                },
                {
                    "name": "B1",
                    "midi": 35,
                    "time": 198.21105450000275,
                    "velocity": 0.4015748031496063,
                    "duration": 0.08797649999999635
                },
                {
                    "name": "B2",
                    "midi": 47,
                    "time": 198.21105450000275,
                    "velocity": 0.47244094488188976,
                    "duration": 0.08797649999999635
                },
                {
                    "name": "A#1",
                    "midi": 34,
                    "time": 198.29903100000274,
                    "velocity": 0.4645669291338583,
                    "duration": 0.1759529999999927
                },
                {
                    "name": "A#2",
                    "midi": 46,
                    "time": 198.29903100000274,
                    "velocity": 0.5590551181102362,
                    "duration": 0.1759529999999927
                },
                {
                    "name": "A1",
                    "midi": 33,
                    "time": 198.47498400000273,
                    "velocity": 0.47244094488188976,
                    "duration": 0.1759529999999927
                },
                {
                    "name": "A2",
                    "midi": 45,
                    "time": 198.47498400000273,
                    "velocity": 0.5669291338582677,
                    "duration": 0.1759529999999927
                },
                {
                    "name": "G#2",
                    "midi": 44,
                    "time": 198.65093700000273,
                    "velocity": 0.6141732283464567,
                    "duration": 0.1759529999999927
                },
                {
                    "name": "G#1",
                    "midi": 32,
                    "time": 198.65093700000273,
                    "velocity": 0.5196850393700787,
                    "duration": 0.1759529999999927
                },
                {
                    "name": "F4",
                    "midi": 65,
                    "time": 198.82689000000272,
                    "velocity": 0.5511811023622047,
                    "duration": 0.1759529999999927
                },
                {
                    "name": "C4",
                    "midi": 60,
                    "time": 198.82689000000272,
                    "velocity": 0.4645669291338583,
                    "duration": 0.1759529999999927
                },
                {
                    "name": "F3",
                    "midi": 53,
                    "time": 198.82689000000272,
                    "velocity": 0.4645669291338583,
                    "duration": 0.1759529999999927
                },
                {
                    "name": "A#2",
                    "midi": 46,
                    "time": 199.0028430000027,
                    "velocity": 0.6141732283464567,
                    "duration": 0.1759529999999927
                },
                {
                    "name": "A#1",
                    "midi": 34,
                    "time": 199.0028430000027,
                    "velocity": 0.5196850393700787,
                    "duration": 0.1759529999999927
                },
                {
                    "name": "F4",
                    "midi": 65,
                    "time": 199.1787960000027,
                    "velocity": 0.5590551181102362,
                    "duration": 0.1759529999999927
                },
                {
                    "name": "D4",
                    "midi": 62,
                    "time": 199.1787960000027,
                    "velocity": 0.47244094488188976,
                    "duration": 0.1759529999999927
                },
                {
                    "name": "F3",
                    "midi": 53,
                    "time": 199.1787960000027,
                    "velocity": 0.47244094488188976,
                    "duration": 0.1759529999999927
                },
                {
                    "name": "D#3",
                    "midi": 51,
                    "time": 199.3547490000027,
                    "velocity": 0.6141732283464567,
                    "duration": 0.1759529999999927
                },
                {
                    "name": "D#2",
                    "midi": 39,
                    "time": 199.3547490000027,
                    "velocity": 0.5196850393700787,
                    "duration": 0.1759529999999927
                },
                {
                    "name": "G4",
                    "midi": 67,
                    "time": 199.5307020000027,
                    "velocity": 0.5590551181102362,
                    "duration": 0.1759529999999927
                },
                {
                    "name": "D#4",
                    "midi": 63,
                    "time": 199.5307020000027,
                    "velocity": 0.47244094488188976,
                    "duration": 0.1759529999999927
                },
                {
                    "name": "G3",
                    "midi": 55,
                    "time": 199.5307020000027,
                    "velocity": 0.47244094488188976,
                    "duration": 0.1759529999999927
                },
                {
                    "name": "D#3",
                    "midi": 51,
                    "time": 199.70665500000268,
                    "velocity": 0.6141732283464567,
                    "duration": 0.1759529999999927
                },
                {
                    "name": "D#2",
                    "midi": 39,
                    "time": 199.70665500000268,
                    "velocity": 0.5196850393700787,
                    "duration": 0.1759529999999927
                },
                {
                    "name": "G4",
                    "midi": 67,
                    "time": 199.88260800000268,
                    "velocity": 0.5590551181102362,
                    "duration": 0.1759529999999927
                },
                {
                    "name": "D#4",
                    "midi": 63,
                    "time": 199.88260800000268,
                    "velocity": 0.47244094488188976,
                    "duration": 0.1759529999999927
                },
                {
                    "name": "G3",
                    "midi": 55,
                    "time": 199.88260800000268,
                    "velocity": 0.47244094488188976,
                    "duration": 0.1759529999999927
                },
                {
                    "name": "F3",
                    "midi": 53,
                    "time": 200.05856100000267,
                    "velocity": 0.6141732283464567,
                    "duration": 0.1759529999999927
                },
                {
                    "name": "F2",
                    "midi": 41,
                    "time": 200.05856100000267,
                    "velocity": 0.5196850393700787,
                    "duration": 0.1759529999999927
                },
                {
                    "name": "F4",
                    "midi": 65,
                    "time": 200.23451400000266,
                    "velocity": 0.5590551181102362,
                    "duration": 0.1759529999999927
                },
                {
                    "name": "C4",
                    "midi": 60,
                    "time": 200.23451400000266,
                    "velocity": 0.47244094488188976,
                    "duration": 0.1759529999999927
                },
                {
                    "name": "G#3",
                    "midi": 56,
                    "time": 200.23451400000266,
                    "velocity": 0.47244094488188976,
                    "duration": 0.1759529999999927
                },
                {
                    "name": "A#2",
                    "midi": 46,
                    "time": 200.41046700000265,
                    "velocity": 0.6141732283464567,
                    "duration": 0.1759529999999927
                },
                {
                    "name": "A#1",
                    "midi": 34,
                    "time": 200.41046700000265,
                    "velocity": 0.5196850393700787,
                    "duration": 0.1759529999999927
                },
                {
                    "name": "F4",
                    "midi": 65,
                    "time": 200.58642000000265,
                    "velocity": 0.5590551181102362,
                    "duration": 0.1759529999999927
                },
                {
                    "name": "D4",
                    "midi": 62,
                    "time": 200.58642000000265,
                    "velocity": 0.47244094488188976,
                    "duration": 0.1759529999999927
                },
                {
                    "name": "G#3",
                    "midi": 56,
                    "time": 200.58642000000265,
                    "velocity": 0.47244094488188976,
                    "duration": 0.1759529999999927
                },
                {
                    "name": "D#3",
                    "midi": 51,
                    "time": 200.76237300000264,
                    "velocity": 0.6141732283464567,
                    "duration": 0.1759529999999927
                },
                {
                    "name": "D#2",
                    "midi": 39,
                    "time": 200.76237300000264,
                    "velocity": 0.5196850393700787,
                    "duration": 0.1759529999999927
                },
                {
                    "name": "G4",
                    "midi": 67,
                    "time": 200.93832600000263,
                    "velocity": 0.5590551181102362,
                    "duration": 0.1759529999999927
                },
                {
                    "name": "D#4",
                    "midi": 63,
                    "time": 200.93832600000263,
                    "velocity": 0.47244094488188976,
                    "duration": 0.1759529999999927
                },
                {
                    "name": "G3",
                    "midi": 55,
                    "time": 200.93832600000263,
                    "velocity": 0.47244094488188976,
                    "duration": 0.1759529999999927
                },
                {
                    "name": "D#3",
                    "midi": 51,
                    "time": 201.11427900000263,
                    "velocity": 0.6141732283464567,
                    "duration": 0.1759529999999927
                },
                {
                    "name": "D#2",
                    "midi": 39,
                    "time": 201.11427900000263,
                    "velocity": 0.5196850393700787,
                    "duration": 0.1759529999999927
                },
                {
                    "name": "G4",
                    "midi": 67,
                    "time": 201.29023200000262,
                    "velocity": 0.5590551181102362,
                    "duration": 0.1759529999999927
                },
                {
                    "name": "D#4",
                    "midi": 63,
                    "time": 201.29023200000262,
                    "velocity": 0.47244094488188976,
                    "duration": 0.1759529999999927
                },
                {
                    "name": "G3",
                    "midi": 55,
                    "time": 201.29023200000262,
                    "velocity": 0.47244094488188976,
                    "duration": 0.1759529999999927
                },
                {
                    "name": "G#2",
                    "midi": 44,
                    "time": 201.4661850000026,
                    "velocity": 0.6141732283464567,
                    "duration": 0.1759529999999927
                },
                {
                    "name": "G#1",
                    "midi": 32,
                    "time": 201.4661850000026,
                    "velocity": 0.5196850393700787,
                    "duration": 0.1759529999999927
                },
                {
                    "name": "F4",
                    "midi": 65,
                    "time": 201.6421380000026,
                    "velocity": 0.5511811023622047,
                    "duration": 0.1759529999999927
                },
                {
                    "name": "C4",
                    "midi": 60,
                    "time": 201.6421380000026,
                    "velocity": 0.4645669291338583,
                    "duration": 0.1759529999999927
                },
                {
                    "name": "F3",
                    "midi": 53,
                    "time": 201.6421380000026,
                    "velocity": 0.4645669291338583,
                    "duration": 0.1759529999999927
                },
                {
                    "name": "A#2",
                    "midi": 46,
                    "time": 201.8180910000026,
                    "velocity": 0.6141732283464567,
                    "duration": 0.1759529999999927
                },
                {
                    "name": "A#1",
                    "midi": 34,
                    "time": 201.8180910000026,
                    "velocity": 0.5196850393700787,
                    "duration": 0.1759529999999927
                },
                {
                    "name": "F4",
                    "midi": 65,
                    "time": 201.9940440000026,
                    "velocity": 0.5590551181102362,
                    "duration": 0.1759529999999927
                },
                {
                    "name": "D4",
                    "midi": 62,
                    "time": 201.9940440000026,
                    "velocity": 0.47244094488188976,
                    "duration": 0.1759529999999927
                },
                {
                    "name": "F3",
                    "midi": 53,
                    "time": 201.9940440000026,
                    "velocity": 0.47244094488188976,
                    "duration": 0.1759529999999927
                },
                {
                    "name": "D#3",
                    "midi": 51,
                    "time": 202.16999700000258,
                    "velocity": 0.6141732283464567,
                    "duration": 0.1759529999999927
                },
                {
                    "name": "D#2",
                    "midi": 39,
                    "time": 202.16999700000258,
                    "velocity": 0.5196850393700787,
                    "duration": 0.1759529999999927
                },
                {
                    "name": "G4",
                    "midi": 67,
                    "time": 202.34595000000257,
                    "velocity": 0.5590551181102362,
                    "duration": 0.1759529999999927
                },
                {
                    "name": "D#4",
                    "midi": 63,
                    "time": 202.34595000000257,
                    "velocity": 0.47244094488188976,
                    "duration": 0.1759529999999927
                },
                {
                    "name": "G3",
                    "midi": 55,
                    "time": 202.34595000000257,
                    "velocity": 0.47244094488188976,
                    "duration": 0.1759529999999927
                },
                {
                    "name": "D#3",
                    "midi": 51,
                    "time": 202.52190300000257,
                    "velocity": 0.6141732283464567,
                    "duration": 0.1759529999999927
                },
                {
                    "name": "D#2",
                    "midi": 39,
                    "time": 202.52190300000257,
                    "velocity": 0.5196850393700787,
                    "duration": 0.1759529999999927
                },
                {
                    "name": "G4",
                    "midi": 67,
                    "time": 202.69785600000256,
                    "velocity": 0.5590551181102362,
                    "duration": 0.1759529999999927
                },
                {
                    "name": "D#4",
                    "midi": 63,
                    "time": 202.69785600000256,
                    "velocity": 0.47244094488188976,
                    "duration": 0.1759529999999927
                },
                {
                    "name": "G3",
                    "midi": 55,
                    "time": 202.69785600000256,
                    "velocity": 0.47244094488188976,
                    "duration": 0.1759529999999927
                },
                {
                    "name": "F3",
                    "midi": 53,
                    "time": 202.87380900000255,
                    "velocity": 0.6141732283464567,
                    "duration": 0.1759529999999927
                },
                {
                    "name": "F2",
                    "midi": 41,
                    "time": 202.87380900000255,
                    "velocity": 0.5196850393700787,
                    "duration": 0.1759529999999927
                },
                {
                    "name": "F4",
                    "midi": 65,
                    "time": 203.04976200000254,
                    "velocity": 0.5590551181102362,
                    "duration": 0.1759529999999927
                },
                {
                    "name": "C4",
                    "midi": 60,
                    "time": 203.04976200000254,
                    "velocity": 0.47244094488188976,
                    "duration": 0.1759529999999927
                },
                {
                    "name": "G#3",
                    "midi": 56,
                    "time": 203.04976200000254,
                    "velocity": 0.47244094488188976,
                    "duration": 0.1759529999999927
                },
                {
                    "name": "A#2",
                    "midi": 46,
                    "time": 203.22571500000254,
                    "velocity": 0.6141732283464567,
                    "duration": 0.1759529999999927
                },
                {
                    "name": "A#1",
                    "midi": 34,
                    "time": 203.22571500000254,
                    "velocity": 0.5196850393700787,
                    "duration": 0.1759529999999927
                },
                {
                    "name": "F4",
                    "midi": 65,
                    "time": 203.40166800000253,
                    "velocity": 0.5590551181102362,
                    "duration": 0.1759529999999927
                },
                {
                    "name": "D4",
                    "midi": 62,
                    "time": 203.40166800000253,
                    "velocity": 0.47244094488188976,
                    "duration": 0.1759529999999927
                },
                {
                    "name": "G#3",
                    "midi": 56,
                    "time": 203.40166800000253,
                    "velocity": 0.47244094488188976,
                    "duration": 0.1759529999999927
                },
                {
                    "name": "D#2",
                    "midi": 39,
                    "time": 203.57762100000252,
                    "velocity": 0.5196850393700787,
                    "duration": 0.08797649999999635
                },
                {
                    "name": "D#3",
                    "midi": 51,
                    "time": 203.57762100000252,
                    "velocity": 0.6141732283464567,
                    "duration": 0.08797649999999635
                },
                {
                    "name": "G3",
                    "midi": 55,
                    "time": 203.75357400000252,
                    "velocity": 0.47244094488188976,
                    "duration": 0.3519060000000138
                },
                {
                    "name": "A#3",
                    "midi": 58,
                    "time": 203.75357400000252,
                    "velocity": 0.47244094488188976,
                    "duration": 0.3519060000000138
                },
                {
                    "name": "D#4",
                    "midi": 63,
                    "time": 203.75357400000252,
                    "velocity": 0.47244094488188976,
                    "duration": 0.3519060000000138
                },
                {
                    "name": "G4",
                    "midi": 67,
                    "time": 203.75357400000252,
                    "velocity": 0.5590551181102362,
                    "duration": 0.3519060000000138
                },
                {
                    "name": "G3",
                    "midi": 55,
                    "time": 204.10548000000253,
                    "velocity": 0.4251968503937008,
                    "duration": 0.043988250000012385
                },
                {
                    "name": "A#3",
                    "midi": 58,
                    "time": 204.10548000000253,
                    "velocity": 0.4251968503937008,
                    "duration": 0.043988250000012385
                },
                {
                    "name": "D#4",
                    "midi": 63,
                    "time": 204.10548000000253,
                    "velocity": 0.4251968503937008,
                    "duration": 0.043988250000012385
                },
                {
                    "name": "G4",
                    "midi": 67,
                    "time": 204.10548000000253,
                    "velocity": 0.49606299212598426,
                    "duration": 0.043988250000012385
                },
                {
                    "name": "G#3",
                    "midi": 56,
                    "time": 204.28143300000255,
                    "velocity": 0.28346456692913385,
                    "duration": 0.08797649999999635
                },
                {
                    "name": "A#3",
                    "midi": 58,
                    "time": 204.28143300000255,
                    "velocity": 0.33858267716535434,
                    "duration": 0.08797649999999635
                },
                {
                    "name": "D#3",
                    "midi": 51,
                    "time": 204.28143300000255,
                    "velocity": 0.28346456692913385,
                    "duration": 0.08797649999999635
                },
                {
                    "name": "A#3",
                    "midi": 58,
                    "time": 204.45738600000254,
                    "velocity": 0.30708661417322836,
                    "duration": 0.3519060000000138
                },
                {
                    "name": "G#3",
                    "midi": 56,
                    "time": 204.45738600000254,
                    "velocity": 0.25984251968503935,
                    "duration": 0.3519060000000138
                },
                {
                    "name": "D#3",
                    "midi": 51,
                    "time": 204.45738600000254,
                    "velocity": 0.25984251968503935,
                    "duration": 0.3519060000000138
                },
                {
                    "name": "A#3",
                    "midi": 58,
                    "time": 204.80929200000256,
                    "velocity": 0.30708661417322836,
                    "duration": 0.08797649999999635
                },
                {
                    "name": "G#3",
                    "midi": 56,
                    "time": 204.80929200000256,
                    "velocity": 0.25984251968503935,
                    "duration": 0.08797649999999635
                },
                {
                    "name": "D#3",
                    "midi": 51,
                    "time": 204.80929200000256,
                    "velocity": 0.25984251968503935,
                    "duration": 0.08797649999999635
                },
                {
                    "name": "C#4",
                    "midi": 61,
                    "time": 204.98524500000255,
                    "velocity": 0.4015748031496063,
                    "duration": 0.043988250000012385
                },
                {
                    "name": "D#3",
                    "midi": 51,
                    "time": 204.98524500000255,
                    "velocity": 0.4015748031496063,
                    "duration": 0.043988250000012385
                },
                {
                    "name": "C#4",
                    "midi": 61,
                    "time": 205.16119800000257,
                    "velocity": 0.30708661417322836,
                    "duration": 0.3519060000000138
                },
                {
                    "name": "D#3",
                    "midi": 51,
                    "time": 205.16119800000257,
                    "velocity": 0.25984251968503935,
                    "duration": 0.3519060000000138
                },
                {
                    "name": "C#4",
                    "midi": 61,
                    "time": 205.51310400000258,
                    "velocity": 0.33858267716535434,
                    "duration": 0.08797649999999635
                },
                {
                    "name": "D#3",
                    "midi": 51,
                    "time": 205.51310400000258,
                    "velocity": 0.31496062992125984,
                    "duration": 0.08797649999999635
                },
                {
                    "name": "G#3",
                    "midi": 56,
                    "time": 205.68905700000258,
                    "velocity": 0.33858267716535434,
                    "duration": 0.08797649999999635
                },
                {
                    "name": "D#3",
                    "midi": 51,
                    "time": 205.68905700000258,
                    "velocity": 0.28346456692913385,
                    "duration": 0.08797649999999635
                },
                {
                    "name": "G#3",
                    "midi": 56,
                    "time": 205.86501000000257,
                    "velocity": 0.30708661417322836,
                    "duration": 0.3519060000000138
                },
                {
                    "name": "D#3",
                    "midi": 51,
                    "time": 205.86501000000257,
                    "velocity": 0.25984251968503935,
                    "duration": 0.3519060000000138
                },
                {
                    "name": "B3",
                    "midi": 59,
                    "time": 206.21691600000258,
                    "velocity": 0.33858267716535434,
                    "duration": 0.08797649999999635
                },
                {
                    "name": "D#3",
                    "midi": 51,
                    "time": 206.21691600000258,
                    "velocity": 0.25984251968503935,
                    "duration": 0.08797649999999635
                },
                {
                    "name": "A#3",
                    "midi": 58,
                    "time": 206.39286900000258,
                    "velocity": 0.4015748031496063,
                    "duration": 0.043988250000012385
                },
                {
                    "name": "D#3",
                    "midi": 51,
                    "time": 206.39286900000258,
                    "velocity": 0.4015748031496063,
                    "duration": 0.043988250000012385
                },
                {
                    "name": "G3",
                    "midi": 55,
                    "time": 206.5688220000026,
                    "velocity": 0.30708661417322836,
                    "duration": 0.30791775000000143
                },
                {
                    "name": "D#3",
                    "midi": 51,
                    "time": 206.5688220000026,
                    "velocity": 0.25984251968503935,
                    "duration": 0.30791775000000143
                },
                {
                    "name": "F#3",
                    "midi": 54,
                    "time": 206.8987338750026,
                    "velocity": 0.29133858267716534,
                    "duration": 0.021994124999991982
                },
                {
                    "name": "G3",
                    "midi": 55,
                    "time": 206.92072800000258,
                    "velocity": 0.33858267716535434,
                    "duration": 0.08797649999999635
                },
                {
                    "name": "D#3",
                    "midi": 51,
                    "time": 206.92072800000258,
                    "velocity": 0.31496062992125984,
                    "duration": 0.08797649999999635
                },
                {
                    "name": "D#2",
                    "midi": 39,
                    "time": 207.09668100000258,
                    "velocity": 0.33858267716535434,
                    "duration": 0.08797649999999635
                },
                {
                    "name": "G#3",
                    "midi": 56,
                    "time": 207.27263400000257,
                    "velocity": 0.30708661417322836,
                    "duration": 0.3519060000000138
                },
                {
                    "name": "D3",
                    "midi": 50,
                    "time": 207.27263400000257,
                    "velocity": 0.25984251968503935,
                    "duration": 0.3519060000000138
                },
                {
                    "name": "A#2",
                    "midi": 46,
                    "time": 207.27263400000257,
                    "velocity": 0.25984251968503935,
                    "duration": 0.3519060000000138
                },
                {
                    "name": "G#3",
                    "midi": 56,
                    "time": 207.62454000000258,
                    "velocity": 0.30708661417322836,
                    "duration": 0.08797649999999635
                },
                {
                    "name": "D3",
                    "midi": 50,
                    "time": 207.62454000000258,
                    "velocity": 0.25984251968503935,
                    "duration": 0.08797649999999635
                },
                {
                    "name": "A#2",
                    "midi": 46,
                    "time": 207.62454000000258,
                    "velocity": 0.25984251968503935,
                    "duration": 0.08797649999999635
                },
                {
                    "name": "D#2",
                    "midi": 39,
                    "time": 207.80049300000258,
                    "velocity": 0.4015748031496063,
                    "duration": 0.043988250000012385
                },
                {
                    "name": "G3",
                    "midi": 55,
                    "time": 207.9764460000026,
                    "velocity": 0.25984251968503935,
                    "duration": 0.3519060000000138
                },
                {
                    "name": "A#3",
                    "midi": 58,
                    "time": 207.9764460000026,
                    "velocity": 0.30708661417322836,
                    "duration": 0.3519060000000138
                },
                {
                    "name": "C#3",
                    "midi": 49,
                    "time": 207.9764460000026,
                    "velocity": 0.25984251968503935,
                    "duration": 0.3519060000000138
                },
                {
                    "name": "G3",
                    "midi": 55,
                    "time": 208.3283520000026,
                    "velocity": 0.31496062992125984,
                    "duration": 0.08797649999999635
                },
                {
                    "name": "A#3",
                    "midi": 58,
                    "time": 208.3283520000026,
                    "velocity": 0.33858267716535434,
                    "duration": 0.08797649999999635
                },
                {
                    "name": "C#3",
                    "midi": 49,
                    "time": 208.3283520000026,
                    "velocity": 0.31496062992125984,
                    "duration": 0.08797649999999635
                },
                {
                    "name": "D#2",
                    "midi": 39,
                    "time": 208.5043050000026,
                    "velocity": 0.33858267716535434,
                    "duration": 0.08797649999999635
                },
                {
                    "name": "C3",
                    "midi": 48,
                    "time": 208.6802580000026,
                    "velocity": 0.25984251968503935,
                    "duration": 0.3519060000000138
                },
                {
                    "name": "G#3",
                    "midi": 56,
                    "time": 208.6802580000026,
                    "velocity": 0.30708661417322836,
                    "duration": 0.3519060000000138
                },
                {
                    "name": "D#3",
                    "midi": 51,
                    "time": 208.6802580000026,
                    "velocity": 0.25984251968503935,
                    "duration": 0.3519060000000138
                },
                {
                    "name": "B2",
                    "midi": 47,
                    "time": 209.0321640000026,
                    "velocity": 0.25984251968503935,
                    "duration": 0.08797649999999635
                },
                {
                    "name": "G#3",
                    "midi": 56,
                    "time": 209.0321640000026,
                    "velocity": 0.33858267716535434,
                    "duration": 0.08797649999999635
                },
                {
                    "name": "D#3",
                    "midi": 51,
                    "time": 209.0321640000026,
                    "velocity": 0.25984251968503935,
                    "duration": 0.08797649999999635
                },
                {
                    "name": "D#2",
                    "midi": 39,
                    "time": 209.2081170000026,
                    "velocity": 0.4015748031496063,
                    "duration": 0.043988250000012385
                },
                {
                    "name": "G3",
                    "midi": 55,
                    "time": 209.38407000000262,
                    "velocity": 0.30708661417322836,
                    "duration": 0.3519060000000138
                },
                {
                    "name": "A#2",
                    "midi": 46,
                    "time": 209.38407000000262,
                    "velocity": 0.25984251968503935,
                    "duration": 0.3519060000000138
                },
                {
                    "name": "G3",
                    "midi": 55,
                    "time": 209.73597600000264,
                    "velocity": 0.33858267716535434,
                    "duration": 0.08797649999999635
                },
                {
                    "name": "A#2",
                    "midi": 46,
                    "time": 209.73597600000264,
                    "velocity": 0.31496062992125984,
                    "duration": 0.08797649999999635
                },
                {
                    "name": "G2",
                    "midi": 43,
                    "time": 209.91192900000263,
                    "velocity": 0.25196850393700787,
                    "duration": 0.043988250000012385
                },
                {
                    "name": "D3",
                    "midi": 50,
                    "time": 209.91192900000263,
                    "velocity": 0.31496062992125984,
                    "duration": 0.043988250000012385
                },
                {
                    "name": "G3",
                    "midi": 55,
                    "time": 210.08788200000265,
                    "velocity": 0.2440944881889764,
                    "duration": 0.3519060000000138
                },
                {
                    "name": "C3",
                    "midi": 48,
                    "time": 210.08788200000265,
                    "velocity": 0.2047244094488189,
                    "duration": 0.3519060000000138
                },
                {
                    "name": "D#3",
                    "midi": 51,
                    "time": 210.43978800000266,
                    "velocity": 0.2677165354330709,
                    "duration": 0.08797649999999635
                },
                {
                    "name": "G#2",
                    "midi": 44,
                    "time": 210.43978800000266,
                    "velocity": 0.25196850393700787,
                    "duration": 0.08797649999999635
                },
                {
                    "name": "D#2",
                    "midi": 39,
                    "time": 210.61574100000266,
                    "velocity": 0.31496062992125984,
                    "duration": 0.043988250000012385
                },
                {
                    "name": "G3",
                    "midi": 55,
                    "time": 210.79169400000268,
                    "velocity": 0.2440944881889764,
                    "duration": 0.3519060000000138
                },
                {
                    "name": "A#2",
                    "midi": 46,
                    "time": 210.79169400000268,
                    "velocity": 0.2047244094488189,
                    "duration": 0.3519060000000138
                },
                {
                    "name": "G3",
                    "midi": 55,
                    "time": 211.1436000000027,
                    "velocity": 0.2677165354330709,
                    "duration": 0.08797649999999635
                },
                {
                    "name": "A#2",
                    "midi": 46,
                    "time": 211.1436000000027,
                    "velocity": 0.25196850393700787,
                    "duration": 0.08797649999999635
                },
                {
                    "name": "G2",
                    "midi": 43,
                    "time": 211.31955300000268,
                    "velocity": 0.25196850393700787,
                    "duration": 0.043988250000012385
                },
                {
                    "name": "D3",
                    "midi": 50,
                    "time": 211.31955300000268,
                    "velocity": 0.31496062992125984,
                    "duration": 0.043988250000012385
                },
                {
                    "name": "G3",
                    "midi": 55,
                    "time": 211.4955060000027,
                    "velocity": 0.2440944881889764,
                    "duration": 0.3519060000000138
                },
                {
                    "name": "C3",
                    "midi": 48,
                    "time": 211.4955060000027,
                    "velocity": 0.2047244094488189,
                    "duration": 0.3519060000000138
                },
                {
                    "name": "D#3",
                    "midi": 51,
                    "time": 211.84741200000272,
                    "velocity": 0.2677165354330709,
                    "duration": 0.08797649999999635
                },
                {
                    "name": "G#2",
                    "midi": 44,
                    "time": 211.84741200000272,
                    "velocity": 0.25196850393700787,
                    "duration": 0.08797649999999635
                },
                {
                    "name": "D#2",
                    "midi": 39,
                    "time": 212.0233650000027,
                    "velocity": 0.25196850393700787,
                    "duration": 0.043988250000012385
                },
                {
                    "name": "D#3",
                    "midi": 51,
                    "time": 212.0233650000027,
                    "velocity": 0.31496062992125984,
                    "duration": 0.043988250000012385
                },
                {
                    "name": "C3",
                    "midi": 48,
                    "time": 212.19931800000273,
                    "velocity": 0.2440944881889764,
                    "duration": 0.3519060000000138
                },
                {
                    "name": "C2",
                    "midi": 36,
                    "time": 212.19931800000273,
                    "velocity": 0.2047244094488189,
                    "duration": 0.3519060000000138
                },
                {
                    "name": "G#2",
                    "midi": 44,
                    "time": 212.55122400000275,
                    "velocity": 0.2677165354330709,
                    "duration": 0.08797649999999635
                },
                {
                    "name": "G#1",
                    "midi": 32,
                    "time": 212.55122400000275,
                    "velocity": 0.25196850393700787,
                    "duration": 0.08797649999999635
                },
                {
                    "name": "D#2",
                    "midi": 39,
                    "time": 212.72717700000274,
                    "velocity": 0.25196850393700787,
                    "duration": 0.043988250000012385
                },
                {
                    "name": "D#3",
                    "midi": 51,
                    "time": 212.72717700000274,
                    "velocity": 0.31496062992125984,
                    "duration": 0.043988250000012385
                },
                {
                    "name": "C3",
                    "midi": 48,
                    "time": 212.90313000000276,
                    "velocity": 0.2440944881889764,
                    "duration": 0.3519060000000138
                },
                {
                    "name": "C2",
                    "midi": 36,
                    "time": 212.90313000000276,
                    "velocity": 0.2047244094488189,
                    "duration": 0.3519060000000138
                },
                {
                    "name": "G#2",
                    "midi": 44,
                    "time": 213.25503600000278,
                    "velocity": 0.2677165354330709,
                    "duration": 0.08797649999999635
                },
                {
                    "name": "G#1",
                    "midi": 32,
                    "time": 213.25503600000278,
                    "velocity": 0.25196850393700787,
                    "duration": 0.08797649999999635
                },
                {
                    "name": "D#2",
                    "midi": 39,
                    "time": 213.43098900000277,
                    "velocity": 0.25984251968503935,
                    "duration": 0.3519060000000138
                },
                {
                    "name": "D#3",
                    "midi": 51,
                    "time": 213.43098900000277,
                    "velocity": 0.30708661417322836,
                    "duration": 0.3519060000000138
                },
                {
                    "name": "C2",
                    "midi": 36,
                    "time": 213.78289500000278,
                    "velocity": 0.1732283464566929,
                    "duration": 0.3519060000000138
                },
                {
                    "name": "C3",
                    "midi": 48,
                    "time": 213.78289500000278,
                    "velocity": 0.2440944881889764,
                    "duration": 0.3519060000000138
                },
                {
                    "name": "G#1",
                    "midi": 32,
                    "time": 214.4867070000028,
                    "velocity": 0.1732283464566929,
                    "duration": 0.3519060000000138
                },
                {
                    "name": "G#2",
                    "midi": 44,
                    "time": 214.4867070000028,
                    "velocity": 0.2440944881889764,
                    "duration": 0.3519060000000138
                },
                {
                    "name": "D#1",
                    "midi": 27,
                    "time": 214.83861300000282,
                    "velocity": 0.1732283464566929,
                    "duration": 0.3519059999999854
                },
                {
                    "name": "D#2",
                    "midi": 39,
                    "time": 214.83861300000282,
                    "velocity": 0.2440944881889764,
                    "duration": 0.1759529999999927
                },
                {
                    "name": "G2",
                    "midi": 43,
                    "time": 215.01456600000282,
                    "velocity": 0.2440944881889764,
                    "duration": 0.08797649999999635
                },
                {
                    "name": "G#2",
                    "midi": 44,
                    "time": 215.1025425000028,
                    "velocity": 0.23622047244094488,
                    "duration": 0.08797649999999635
                },
                {
                    "name": "A2",
                    "midi": 45,
                    "time": 215.1905190000028,
                    "velocity": 0.23622047244094488,
                    "duration": 0.08797649999999635
                },
                {
                    "name": "A#2",
                    "midi": 46,
                    "time": 215.2784955000028,
                    "velocity": 0.23622047244094488,
                    "duration": 0.08797649999999635
                },
                {
                    "name": "D#3",
                    "midi": 51,
                    "time": 215.3664720000028,
                    "velocity": 0.23622047244094488,
                    "duration": 0.08797649999999635
                },
                {
                    "name": "G3",
                    "midi": 55,
                    "time": 215.4544485000028,
                    "velocity": 0.23622047244094488,
                    "duration": 0.08797649999999635
                },
                {
                    "name": "G#3",
                    "midi": 56,
                    "time": 215.5424250000028,
                    "velocity": 0.23622047244094488,
                    "duration": 0.08797649999999635
                },
                {
                    "name": "A3",
                    "midi": 57,
                    "time": 215.6304015000028,
                    "velocity": 0.23622047244094488,
                    "duration": 0.08797649999999635
                },
                {
                    "name": "A#3",
                    "midi": 58,
                    "time": 215.7183780000028,
                    "velocity": 0.23622047244094488,
                    "duration": 0.08797649999999635
                },
                {
                    "name": "A#2",
                    "midi": 46,
                    "time": 218.3576730000028,
                    "velocity": 0.48031496062992124,
                    "duration": 0.26392949999998905
                },
                {
                    "name": "A#3",
                    "midi": 58,
                    "time": 218.3576730000028,
                    "velocity": 0.5669291338582677,
                    "duration": 0.26392949999998905
                },
                {
                    "name": "A#2",
                    "midi": 46,
                    "time": 218.70957900000278,
                    "velocity": 0.44881889763779526,
                    "duration": 0.06598237500000437
                },
                {
                    "name": "A#3",
                    "midi": 58,
                    "time": 218.70957900000278,
                    "velocity": 0.5354330708661418,
                    "duration": 0.06598237500000437
                },
                {
                    "name": "A#2",
                    "midi": 46,
                    "time": 218.88553200000277,
                    "velocity": 0.44881889763779526,
                    "duration": 0.06598237500000437
                },
                {
                    "name": "A#3",
                    "midi": 58,
                    "time": 218.88553200000277,
                    "velocity": 0.5354330708661418,
                    "duration": 0.06598237500000437
                },
                {
                    "name": "D#3",
                    "midi": 51,
                    "time": 219.06148500000276,
                    "velocity": 0.49606299212598426,
                    "duration": 0.5278590000000065
                },
                {
                    "name": "D#4",
                    "midi": 63,
                    "time": 219.06148500000276,
                    "velocity": 0.5905511811023622,
                    "duration": 0.5278590000000065
                },
                {
                    "name": "D#3",
                    "midi": 51,
                    "time": 219.58934400000277,
                    "velocity": 0.4330708661417323,
                    "duration": 0.06598237500000437
                },
                {
                    "name": "D#4",
                    "midi": 63,
                    "time": 219.58934400000277,
                    "velocity": 0.5196850393700787,
                    "duration": 0.06598237500000437
                },
                {
                    "name": "C#3",
                    "midi": 49,
                    "time": 219.76529700000276,
                    "velocity": 0.4566929133858268,
                    "duration": 0.06598237500000437
                },
                {
                    "name": "C#4",
                    "midi": 61,
                    "time": 219.76529700000276,
                    "velocity": 0.5433070866141733,
                    "duration": 0.06598237500000437
                },
                {
                    "name": "B2",
                    "midi": 47,
                    "time": 219.94125000000275,
                    "velocity": 0.4566929133858268,
                    "duration": 0.06598237500000437
                },
                {
                    "name": "B3",
                    "midi": 59,
                    "time": 219.94125000000275,
                    "velocity": 0.5433070866141733,
                    "duration": 0.06598237500000437
                },
                {
                    "name": "A#2",
                    "midi": 46,
                    "time": 220.11720300000275,
                    "velocity": 0.44881889763779526,
                    "duration": 0.06598237500000437
                },
                {
                    "name": "A#3",
                    "midi": 58,
                    "time": 220.11720300000275,
                    "velocity": 0.5354330708661418,
                    "duration": 0.06598237500000437
                },
                {
                    "name": "G#2",
                    "midi": 44,
                    "time": 220.29315600000274,
                    "velocity": 0.48031496062992124,
                    "duration": 0.06598237500000437
                },
                {
                    "name": "G#3",
                    "midi": 56,
                    "time": 220.29315600000274,
                    "velocity": 0.5669291338582677,
                    "duration": 0.06598237500000437
                },
                {
                    "name": "A#2",
                    "midi": 46,
                    "time": 220.46910900000273,
                    "velocity": 0.47244094488188976,
                    "duration": 0.06598237500000437
                },
                {
                    "name": "A#3",
                    "midi": 58,
                    "time": 220.46910900000273,
                    "velocity": 0.5511811023622047,
                    "duration": 0.06598237500000437
                },
                {
                    "name": "D#2",
                    "midi": 39,
                    "time": 220.64506200000272,
                    "velocity": 0.4409448818897638,
                    "duration": 0.06598237500000437
                },
                {
                    "name": "D#3",
                    "midi": 51,
                    "time": 220.64506200000272,
                    "velocity": 0.5275590551181102,
                    "duration": 0.06598237500000437
                },
                {
                    "name": "D#2",
                    "midi": 39,
                    "time": 220.82101500000272,
                    "velocity": 0.4409448818897638,
                    "duration": 0.3519060000000138
                },
                {
                    "name": "D#3",
                    "midi": 51,
                    "time": 220.82101500000272,
                    "velocity": 0.5275590551181102,
                    "duration": 0.3519060000000138
                },
                {
                    "name": "D#4",
                    "midi": 63,
                    "time": 221.17292100000273,
                    "velocity": 0.4015748031496063,
                    "duration": 0.26392949999998905
                },
                {
                    "name": "C#4",
                    "midi": 61,
                    "time": 221.52482700000272,
                    "velocity": 0.31496062992125984,
                    "duration": 0.06598237500000437
                },
                {
                    "name": "D#4",
                    "midi": 63,
                    "time": 221.5277595500027,
                    "velocity": 0.3779527559055118,
                    "duration": 0.06598237500000437
                },
                {
                    "name": "C#4",
                    "midi": 61,
                    "time": 221.7007800000027,
                    "velocity": 0.31496062992125984,
                    "duration": 0.06598237500000437
                },
                {
                    "name": "D#4",
                    "midi": 63,
                    "time": 221.7007800000027,
                    "velocity": 0.3779527559055118,
                    "duration": 0.06598237500000437
                },
                {
                    "name": "B3",
                    "midi": 59,
                    "time": 221.8767330000027,
                    "velocity": 0.3543307086614173,
                    "duration": 0.5278590000000065
                },
                {
                    "name": "D#4",
                    "midi": 63,
                    "time": 221.8767330000027,
                    "velocity": 0.41732283464566927,
                    "duration": 0.5278590000000065
                },
                {
                    "name": "B3",
                    "midi": 59,
                    "time": 222.4045920000027,
                    "velocity": 0.30708661417322836,
                    "duration": 0.06598237500000437
                },
                {
                    "name": "D#4",
                    "midi": 63,
                    "time": 222.4045920000027,
                    "velocity": 0.36220472440944884,
                    "duration": 0.06598237500000437
                },
                {
                    "name": "D#4",
                    "midi": 63,
                    "time": 222.5805450000027,
                    "velocity": 0.4330708661417323,
                    "duration": 0.1759529999999927
                },
                {
                    "name": "A#3",
                    "midi": 58,
                    "time": 222.5805450000027,
                    "velocity": 0.3858267716535433,
                    "duration": 0.06598237500000437
                },
                {
                    "name": "C#4",
                    "midi": 61,
                    "time": 222.7564980000027,
                    "velocity": 0.3858267716535433,
                    "duration": 0.06598237500000437
                },
                {
                    "name": "G#3",
                    "midi": 56,
                    "time": 222.9324510000027,
                    "velocity": 0.3779527559055118,
                    "duration": 0.06598237500000437
                },
                {
                    "name": "B3",
                    "midi": 59,
                    "time": 223.10840400000268,
                    "velocity": 0.4015748031496063,
                    "duration": 0.06598237500000437
                },
                {
                    "name": "G3",
                    "midi": 55,
                    "time": 223.28435700000267,
                    "velocity": 0.3937007874015748,
                    "duration": 0.06598237500000437
                },
                {
                    "name": "A#3",
                    "midi": 58,
                    "time": 223.46031000000266,
                    "velocity": 0.3700787401574803,
                    "duration": 0.06598237500000437
                },
                {
                    "name": "D#4",
                    "midi": 63,
                    "time": 223.63626300000266,
                    "velocity": 0.44881889763779526,
                    "duration": 0.3519060000000138
                },
                {
                    "name": "D#4",
                    "midi": 63,
                    "time": 223.98816900000267,
                    "velocity": 0.4015748031496063,
                    "duration": 0.26392949999998905
                },
                {
                    "name": "C#4",
                    "midi": 61,
                    "time": 224.34007500000266,
                    "velocity": 0.31496062992125984,
                    "duration": 0.06598237500000437
                },
                {
                    "name": "D#4",
                    "midi": 63,
                    "time": 224.34300755000265,
                    "velocity": 0.3779527559055118,
                    "duration": 0.06598237500000437
                },
                {
                    "name": "C#4",
                    "midi": 61,
                    "time": 224.51602800000265,
                    "velocity": 0.31496062992125984,
                    "duration": 0.06598237500000437
                },
                {
                    "name": "D#4",
                    "midi": 63,
                    "time": 224.51602800000265,
                    "velocity": 0.3779527559055118,
                    "duration": 0.06598237500000437
                },
                {
                    "name": "B3",
                    "midi": 59,
                    "time": 224.69198100000264,
                    "velocity": 0.3543307086614173,
                    "duration": 0.5278590000000065
                },
                {
                    "name": "D#4",
                    "midi": 63,
                    "time": 224.69198100000264,
                    "velocity": 0.41732283464566927,
                    "duration": 0.5278590000000065
                },
                {
                    "name": "B3",
                    "midi": 59,
                    "time": 225.21984000000265,
                    "velocity": 0.30708661417322836,
                    "duration": 0.06598237500000437
                },
                {
                    "name": "D#4",
                    "midi": 63,
                    "time": 225.21984000000265,
                    "velocity": 0.36220472440944884,
                    "duration": 0.06598237500000437
                },
                {
                    "name": "A#3",
                    "midi": 58,
                    "time": 225.39579300000264,
                    "velocity": 0.3858267716535433,
                    "duration": 0.06598237500000437
                },
                {
                    "name": "C#4",
                    "midi": 61,
                    "time": 225.57174600000263,
                    "velocity": 0.3858267716535433,
                    "duration": 0.06598237500000437
                },
                {
                    "name": "D#3",
                    "midi": 51,
                    "time": 225.74769900000263,
                    "velocity": 0.3779527559055118,
                    "duration": 0.06598237500000437
                },
                {
                    "name": "G3",
                    "midi": 55,
                    "time": 225.92365200000262,
                    "velocity": 0.4015748031496063,
                    "duration": 0.06598237500000437
                },
                {
                    "name": "G#3",
                    "midi": 56,
                    "time": 226.0996050000026,
                    "velocity": 0.33858267716535434,
                    "duration": 0.043988250000012385
                },
                {
                    "name": "B3",
                    "midi": 59,
                    "time": 226.0996050000026,
                    "velocity": 0.4094488188976378,
                    "duration": 0.06598237500000437
                },
                {
                    "name": "B3",
                    "midi": 59,
                    "time": 226.2755580000026,
                    "velocity": 0.3858267716535433,
                    "duration": 0.06598237500000437
                },
                {
                    "name": "G#3",
                    "midi": 56,
                    "time": 226.4515110000026,
                    "velocity": 0.3700787401574803,
                    "duration": 0.26392949999998905
                },
                {
                    "name": "B3",
                    "midi": 59,
                    "time": 226.4515110000026,
                    "velocity": 0.4409448818897638,
                    "duration": 0.26392949999998905
                },
                {
                    "name": "A#2",
                    "midi": 46,
                    "time": 226.80341700000258,
                    "velocity": 0.48031496062992124,
                    "duration": 0.26392949999998905
                },
                {
                    "name": "A#3",
                    "midi": 58,
                    "time": 226.80341700000258,
                    "velocity": 0.5669291338582677,
                    "duration": 0.26392949999998905
                },
                {
                    "name": "A#2",
                    "midi": 46,
                    "time": 227.15532300000257,
                    "velocity": 0.44881889763779526,
                    "duration": 0.06598237500000437
                },
                {
                    "name": "A#3",
                    "midi": 58,
                    "time": 227.15532300000257,
                    "velocity": 0.5354330708661418,
                    "duration": 0.06598237500000437
                },
                {
                    "name": "A#2",
                    "midi": 46,
                    "time": 227.33127600000256,
                    "velocity": 0.44881889763779526,
                    "duration": 0.06598237500000437
                },
                {
                    "name": "A#3",
                    "midi": 58,
                    "time": 227.33127600000256,
                    "velocity": 0.5354330708661418,
                    "duration": 0.06598237500000437
                },
                {
                    "name": "D#3",
                    "midi": 51,
                    "time": 227.50722900000255,
                    "velocity": 0.49606299212598426,
                    "duration": 0.5278590000000065
                },
                {
                    "name": "D#4",
                    "midi": 63,
                    "time": 227.50722900000255,
                    "velocity": 0.5905511811023622,
                    "duration": 0.5278590000000065
                },
                {
                    "name": "D#3",
                    "midi": 51,
                    "time": 228.03508800000256,
                    "velocity": 0.4330708661417323,
                    "duration": 0.06598237500000437
                },
                {
                    "name": "D#4",
                    "midi": 63,
                    "time": 228.03508800000256,
                    "velocity": 0.5196850393700787,
                    "duration": 0.06598237500000437
                },
                {
                    "name": "C#3",
                    "midi": 49,
                    "time": 228.21104100000255,
                    "velocity": 0.4566929133858268,
                    "duration": 0.06598237500000437
                },
                {
                    "name": "C#4",
                    "midi": 61,
                    "time": 228.21104100000255,
                    "velocity": 0.5433070866141733,
                    "duration": 0.06598237500000437
                },
                {
                    "name": "B2",
                    "midi": 47,
                    "time": 228.38699400000255,
                    "velocity": 0.4566929133858268,
                    "duration": 0.06598237500000437
                },
                {
                    "name": "B3",
                    "midi": 59,
                    "time": 228.38699400000255,
                    "velocity": 0.5433070866141733,
                    "duration": 0.06598237500000437
                },
                {
                    "name": "A#2",
                    "midi": 46,
                    "time": 228.56294700000254,
                    "velocity": 0.44881889763779526,
                    "duration": 0.06598237500000437
                },
                {
                    "name": "A#3",
                    "midi": 58,
                    "time": 228.56294700000254,
                    "velocity": 0.5354330708661418,
                    "duration": 0.06598237500000437
                },
                {
                    "name": "G#2",
                    "midi": 44,
                    "time": 228.73890000000253,
                    "velocity": 0.48031496062992124,
                    "duration": 0.06598237500000437
                },
                {
                    "name": "G#3",
                    "midi": 56,
                    "time": 228.73890000000253,
                    "velocity": 0.5669291338582677,
                    "duration": 0.06598237500000437
                },
                {
                    "name": "A#2",
                    "midi": 46,
                    "time": 228.91485300000252,
                    "velocity": 0.47244094488188976,
                    "duration": 0.06598237500000437
                },
                {
                    "name": "A#3",
                    "midi": 58,
                    "time": 228.91485300000252,
                    "velocity": 0.5511811023622047,
                    "duration": 0.06598237500000437
                },
                {
                    "name": "D#2",
                    "midi": 39,
                    "time": 229.09080600000252,
                    "velocity": 0.4409448818897638,
                    "duration": 0.06598237500000437
                },
                {
                    "name": "D#3",
                    "midi": 51,
                    "time": 229.09080600000252,
                    "velocity": 0.5275590551181102,
                    "duration": 0.06598237500000437
                },
                {
                    "name": "D#2",
                    "midi": 39,
                    "time": 229.2667590000025,
                    "velocity": 0.4409448818897638,
                    "duration": 0.3519060000000138
                },
                {
                    "name": "D#3",
                    "midi": 51,
                    "time": 229.2667590000025,
                    "velocity": 0.5275590551181102,
                    "duration": 0.3519060000000138
                },
                {
                    "name": "D#4",
                    "midi": 63,
                    "time": 229.61866500000252,
                    "velocity": 0.4015748031496063,
                    "duration": 0.26392949999998905
                },
                {
                    "name": "C#4",
                    "midi": 61,
                    "time": 229.9705710000025,
                    "velocity": 0.31496062992125984,
                    "duration": 0.06598237500000437
                },
                {
                    "name": "D#4",
                    "midi": 63,
                    "time": 229.9735035500025,
                    "velocity": 0.3779527559055118,
                    "duration": 0.06598237500000437
                },
                {
                    "name": "C#4",
                    "midi": 61,
                    "time": 230.1465240000025,
                    "velocity": 0.31496062992125984,
                    "duration": 0.06598237500000437
                },
                {
                    "name": "D#4",
                    "midi": 63,
                    "time": 230.1465240000025,
                    "velocity": 0.3779527559055118,
                    "duration": 0.06598237500000437
                },
                {
                    "name": "B3",
                    "midi": 59,
                    "time": 230.3224770000025,
                    "velocity": 0.3543307086614173,
                    "duration": 0.5278590000000065
                },
                {
                    "name": "D#4",
                    "midi": 63,
                    "time": 230.3224770000025,
                    "velocity": 0.41732283464566927,
                    "duration": 0.5278590000000065
                },
                {
                    "name": "B3",
                    "midi": 59,
                    "time": 230.8503360000025,
                    "velocity": 0.30708661417322836,
                    "duration": 0.06598237500000437
                },
                {
                    "name": "D#4",
                    "midi": 63,
                    "time": 230.8503360000025,
                    "velocity": 0.36220472440944884,
                    "duration": 0.06598237500000437
                },
                {
                    "name": "D#4",
                    "midi": 63,
                    "time": 231.0262890000025,
                    "velocity": 0.4330708661417323,
                    "duration": 0.1759529999999927
                },
                {
                    "name": "A#3",
                    "midi": 58,
                    "time": 231.0262890000025,
                    "velocity": 0.3858267716535433,
                    "duration": 0.06598237500000437
                },
                {
                    "name": "C#4",
                    "midi": 61,
                    "time": 231.20224200000249,
                    "velocity": 0.3858267716535433,
                    "duration": 0.06598237500000437
                },
                {
                    "name": "G#3",
                    "midi": 56,
                    "time": 231.37819500000248,
                    "velocity": 0.3779527559055118,
                    "duration": 0.06598237500000437
                },
                {
                    "name": "B3",
                    "midi": 59,
                    "time": 231.55414800000247,
                    "velocity": 0.4015748031496063,
                    "duration": 0.06598237500000437
                },
                {
                    "name": "G3",
                    "midi": 55,
                    "time": 231.73010100000246,
                    "velocity": 0.3937007874015748,
                    "duration": 0.06598237500000437
                },
                {
                    "name": "A#3",
                    "midi": 58,
                    "time": 231.90605400000246,
                    "velocity": 0.3700787401574803,
                    "duration": 0.06598237500000437
                },
                {
                    "name": "D#4",
                    "midi": 63,
                    "time": 232.08200700000245,
                    "velocity": 0.44881889763779526,
                    "duration": 0.3519060000000138
                },
                {
                    "name": "D#4",
                    "midi": 63,
                    "time": 232.43391300000246,
                    "velocity": 0.4015748031496063,
                    "duration": 0.26392949999998905
                },
                {
                    "name": "C#4",
                    "midi": 61,
                    "time": 232.78581900000245,
                    "velocity": 0.31496062992125984,
                    "duration": 0.06598237500000437
                },
                {
                    "name": "D#4",
                    "midi": 63,
                    "time": 232.78875155000244,
                    "velocity": 0.3779527559055118,
                    "duration": 0.06598237500000437
                },
                {
                    "name": "C#4",
                    "midi": 61,
                    "time": 232.96177200000244,
                    "velocity": 0.31496062992125984,
                    "duration": 0.06598237500000437
                },
                {
                    "name": "D#4",
                    "midi": 63,
                    "time": 232.96177200000244,
                    "velocity": 0.3779527559055118,
                    "duration": 0.06598237500000437
                },
                {
                    "name": "B3",
                    "midi": 59,
                    "time": 233.13772500000243,
                    "velocity": 0.3543307086614173,
                    "duration": 0.5278590000000065
                },
                {
                    "name": "D#4",
                    "midi": 63,
                    "time": 233.13772500000243,
                    "velocity": 0.41732283464566927,
                    "duration": 0.5278590000000065
                },
                {
                    "name": "B3",
                    "midi": 59,
                    "time": 233.66558400000244,
                    "velocity": 0.30708661417322836,
                    "duration": 0.06598237500000437
                },
                {
                    "name": "D#4",
                    "midi": 63,
                    "time": 233.66558400000244,
                    "velocity": 0.36220472440944884,
                    "duration": 0.06598237500000437
                },
                {
                    "name": "A#3",
                    "midi": 58,
                    "time": 233.84153700000243,
                    "velocity": 0.3858267716535433,
                    "duration": 0.06598237500000437
                },
                {
                    "name": "C#4",
                    "midi": 61,
                    "time": 234.01749000000243,
                    "velocity": 0.3858267716535433,
                    "duration": 0.06598237500000437
                },
                {
                    "name": "D#3",
                    "midi": 51,
                    "time": 234.19344300000242,
                    "velocity": 0.3779527559055118,
                    "duration": 0.06598237500000437
                },
                {
                    "name": "G3",
                    "midi": 55,
                    "time": 234.3693960000024,
                    "velocity": 0.4015748031496063,
                    "duration": 0.06598237500000437
                },
                {
                    "name": "G#3",
                    "midi": 56,
                    "time": 234.5453490000024,
                    "velocity": 0.33858267716535434,
                    "duration": 0.043988250000012385
                },
                {
                    "name": "B3",
                    "midi": 59,
                    "time": 234.5453490000024,
                    "velocity": 0.4094488188976378,
                    "duration": 0.06598237500000437
                },
                {
                    "name": "B3",
                    "midi": 59,
                    "time": 234.7213020000024,
                    "velocity": 0.3858267716535433,
                    "duration": 0.06598237500000437
                },
                {
                    "name": "G#3",
                    "midi": 56,
                    "time": 234.8972550000024,
                    "velocity": 0.3700787401574803,
                    "duration": 0.26392949999998905
                },
                {
                    "name": "B3",
                    "midi": 59,
                    "time": 234.8972550000024,
                    "velocity": 0.4409448818897638,
                    "duration": 0.26392949999998905
                },
                {
                    "name": "D#2",
                    "midi": 39,
                    "time": 235.93097887500238,
                    "velocity": 0.25984251968503935,
                    "duration": 0.3739001249999774
                },
                {
                    "name": "G3",
                    "midi": 55,
                    "time": 235.95297300000237,
                    "velocity": 0.3228346456692913,
                    "duration": 0.08797649999999635
                },
                {
                    "name": "D#3",
                    "midi": 51,
                    "time": 236.12892600000237,
                    "velocity": 0.29133858267716534,
                    "duration": 0.08797649999999635
                },
                {
                    "name": "G#2",
                    "midi": 44,
                    "time": 236.63479087500235,
                    "velocity": 0.25196850393700787,
                    "duration": 0.3739001249999774
                },
                {
                    "name": "G#3",
                    "midi": 56,
                    "time": 236.65678500000234,
                    "velocity": 0.33858267716535434,
                    "duration": 0.08797649999999635
                },
                {
                    "name": "D#3",
                    "midi": 51,
                    "time": 236.83273800000234,
                    "velocity": 0.2755905511811024,
                    "duration": 0.08797649999999635
                },
                {
                    "name": "D#4",
                    "midi": 63,
                    "time": 237.00869100000233,
                    "velocity": 0.33070866141732286,
                    "duration": 0.08797649999999635
                },
                {
                    "name": "G#3",
                    "midi": 56,
                    "time": 237.18464400000232,
                    "velocity": 0.28346456692913385,
                    "duration": 0.08797649999999635
                },
                {
                    "name": "D#2",
                    "midi": 39,
                    "time": 237.33860287500232,
                    "velocity": 0.25984251968503935,
                    "duration": 0.3739001249999774
                },
                {
                    "name": "G3",
                    "midi": 55,
                    "time": 237.36059700000231,
                    "velocity": 0.3228346456692913,
                    "duration": 0.08797649999999635
                },
                {
                    "name": "D#3",
                    "midi": 51,
                    "time": 237.5365500000023,
                    "velocity": 0.29133858267716534,
                    "duration": 0.08797649999999635
                },
                {
                    "name": "G#2",
                    "midi": 44,
                    "time": 238.0424148750023,
                    "velocity": 0.25196850393700787,
                    "duration": 0.3739001249999774
                },
                {
                    "name": "G#3",
                    "midi": 56,
                    "time": 238.06440900000229,
                    "velocity": 0.33858267716535434,
                    "duration": 0.08797649999999635
                },
                {
                    "name": "D#3",
                    "midi": 51,
                    "time": 238.24036200000228,
                    "velocity": 0.2755905511811024,
                    "duration": 0.08797649999999635
                },
                {
                    "name": "D#4",
                    "midi": 63,
                    "time": 238.41631500000227,
                    "velocity": 0.33070866141732286,
                    "duration": 0.08797649999999635
                },
                {
                    "name": "G#3",
                    "midi": 56,
                    "time": 238.59226800000226,
                    "velocity": 0.28346456692913385,
                    "duration": 0.08797649999999635
                },
                {
                    "name": "D#3",
                    "midi": 51,
                    "time": 238.76822100000226,
                    "velocity": 0.33858267716535434,
                    "duration": 0.08797649999999635
                },
                {
                    "name": "D#4",
                    "midi": 63,
                    "time": 238.94417400000225,
                    "velocity": 0.25984251968503935,
                    "duration": 0.08797649999999635
                },
                {
                    "name": "C#3",
                    "midi": 49,
                    "time": 239.12012700000224,
                    "velocity": 0.33858267716535434,
                    "duration": 0.08797649999999635
                },
                {
                    "name": "C#4",
                    "midi": 61,
                    "time": 239.29608000000223,
                    "velocity": 0.29133858267716534,
                    "duration": 0.08797649999999635
                },
                {
                    "name": "B2",
                    "midi": 47,
                    "time": 239.47203300000223,
                    "velocity": 0.33858267716535434,
                    "duration": 0.08797649999999635
                },
                {
                    "name": "B3",
                    "midi": 59,
                    "time": 239.64798600000222,
                    "velocity": 0.25984251968503935,
                    "duration": 0.08797649999999635
                },
                {
                    "name": "F#2",
                    "midi": 42,
                    "time": 239.8239390000022,
                    "velocity": 0.33858267716535434,
                    "duration": 0.08797649999999635
                },
                {
                    "name": "F#3",
                    "midi": 54,
                    "time": 239.9998920000022,
                    "velocity": 0.29133858267716534,
                    "duration": 0.08797649999999635
                },
                {
                    "name": "G2",
                    "midi": 43,
                    "time": 240.1758450000022,
                    "velocity": 0.33858267716535434,
                    "duration": 0.08797649999999635
                },
                {
                    "name": "D#3",
                    "midi": 51,
                    "time": 240.3517980000022,
                    "velocity": 0.2992125984251969,
                    "duration": 0.08797649999999635
                },
                {
                    "name": "G#2",
                    "midi": 44,
                    "time": 240.52775100000218,
                    "velocity": 0.33858267716535434,
                    "duration": 0.08797649999999635
                },
                {
                    "name": "D#3",
                    "midi": 51,
                    "time": 240.70370400000218,
                    "velocity": 0.31496062992125984,
                    "duration": 0.08797649999999635
                },
                {
                    "name": "D#2",
                    "midi": 39,
                    "time": 240.87965700000217,
                    "velocity": 0.33858267716535434,
                    "duration": 0.08797649999999635
                },
                {
                    "name": "A#2",
                    "midi": 46,
                    "time": 241.05561000000216,
                    "velocity": 0.25984251968503935,
                    "duration": 0.08797649999999635
                },
                {
                    "name": "D#3",
                    "midi": 51,
                    "time": 241.23156300000215,
                    "velocity": 0.33858267716535434,
                    "duration": 0.08797649999999635
                },
                {
                    "name": "A#2",
                    "midi": 46,
                    "time": 241.40751600000215,
                    "velocity": 0.29133858267716534,
                    "duration": 0.08797649999999635
                },
                {
                    "name": "D#2",
                    "midi": 39,
                    "time": 241.58346900000214,
                    "velocity": 0.33858267716535434,
                    "duration": 0.08797649999999635
                },
                {
                    "name": "A#2",
                    "midi": 46,
                    "time": 241.75942200000213,
                    "velocity": 0.2992125984251969,
                    "duration": 0.08797649999999635
                },
                {
                    "name": "D#3",
                    "midi": 51,
                    "time": 241.93537500000213,
                    "velocity": 0.33858267716535434,
                    "duration": 0.08797649999999635
                },
                {
                    "name": "A#2",
                    "midi": 46,
                    "time": 242.11132800000212,
                    "velocity": 0.31496062992125984,
                    "duration": 0.08797649999999635
                },
                {
                    "name": "G#2",
                    "midi": 44,
                    "time": 242.2872810000021,
                    "velocity": 0.3700787401574803,
                    "duration": 0.08797649999999635
                },
                {
                    "name": "D#3",
                    "midi": 51,
                    "time": 242.2872810000021,
                    "velocity": 0.3700787401574803,
                    "duration": 0.08797649999999635
                },
                {
                    "name": "D#2",
                    "midi": 39,
                    "time": 242.4632340000021,
                    "velocity": 0.2992125984251969,
                    "duration": 0.08797649999999635
                },
                {
                    "name": "G#1",
                    "midi": 32,
                    "time": 242.6391870000021,
                    "velocity": 0.33858267716535434,
                    "duration": 0.08797649999999635
                },
                {
                    "name": "D#2",
                    "midi": 39,
                    "time": 243.5189520000021,
                    "velocity": 0.29133858267716534,
                    "duration": 0.08797649999999635
                },
                {
                    "name": "G3",
                    "midi": 55,
                    "time": 243.69490500000208,
                    "velocity": 0.3700787401574803,
                    "duration": 0.08797649999999635
                },
                {
                    "name": "D#3",
                    "midi": 51,
                    "time": 243.87085800000207,
                    "velocity": 0.33070866141732286,
                    "duration": 0.08797649999999635
                },
                {
                    "name": "D#4",
                    "midi": 63,
                    "time": 244.04681100000207,
                    "velocity": 0.3700787401574803,
                    "duration": 0.08797649999999635
                },
                {
                    "name": "G#2",
                    "midi": 44,
                    "time": 244.22276400000206,
                    "velocity": 0.28346456692913385,
                    "duration": 0.08797649999999635
                },
                {
                    "name": "G#3",
                    "midi": 56,
                    "time": 244.39871700000205,
                    "velocity": 0.3858267716535433,
                    "duration": 0.08797649999999635
                },
                {
                    "name": "D#3",
                    "midi": 51,
                    "time": 244.57467000000204,
                    "velocity": 0.31496062992125984,
                    "duration": 0.08797649999999635
                },
                {
                    "name": "D#4",
                    "midi": 63,
                    "time": 244.75062300000204,
                    "velocity": 0.3779527559055118,
                    "duration": 0.08797649999999635
                },
                {
                    "name": "D#2",
                    "midi": 39,
                    "time": 244.92657600000203,
                    "velocity": 0.3228346456692913,
                    "duration": 0.08797649999999635
                },
                {
                    "name": "G3",
                    "midi": 55,
                    "time": 245.10252900000202,
                    "velocity": 0.3700787401574803,
                    "duration": 0.08797649999999635
                },
                {
                    "name": "D#3",
                    "midi": 51,
                    "time": 245.27848200000201,
                    "velocity": 0.33070866141732286,
                    "duration": 0.08797649999999635
                },
                {
                    "name": "D#4",
                    "midi": 63,
                    "time": 245.454435000002,
                    "velocity": 0.3700787401574803,
                    "duration": 0.08797649999999635
                },
                {
                    "name": "G#2",
                    "midi": 44,
                    "time": 245.630388000002,
                    "velocity": 0.28346456692913385,
                    "duration": 0.08797649999999635
                },
                {
                    "name": "G#3",
                    "midi": 56,
                    "time": 245.806341000002,
                    "velocity": 0.3858267716535433,
                    "duration": 0.08797649999999635
                },
                {
                    "name": "D#3",
                    "midi": 51,
                    "time": 245.98229400000199,
                    "velocity": 0.31496062992125984,
                    "duration": 0.08797649999999635
                },
                {
                    "name": "D#4",
                    "midi": 63,
                    "time": 246.15824700000198,
                    "velocity": 0.3779527559055118,
                    "duration": 0.08797649999999635
                },
                {
                    "name": "G#3",
                    "midi": 56,
                    "time": 246.33420000000197,
                    "velocity": 0.3228346456692913,
                    "duration": 0.08797649999999635
                },
                {
                    "name": "D#3",
                    "midi": 51,
                    "time": 246.51015300000196,
                    "velocity": 0.3858267716535433,
                    "duration": 0.08797649999999635
                },
                {
                    "name": "D#4",
                    "midi": 63,
                    "time": 246.68610600000196,
                    "velocity": 0.29133858267716534,
                    "duration": 0.08797649999999635
                },
                {
                    "name": "C#3",
                    "midi": 49,
                    "time": 246.86205900000195,
                    "velocity": 0.3858267716535433,
                    "duration": 0.08797649999999635
                },
                {
                    "name": "C#4",
                    "midi": 61,
                    "time": 247.03801200000194,
                    "velocity": 0.33070866141732286,
                    "duration": 0.08797649999999635
                },
                {
                    "name": "B2",
                    "midi": 47,
                    "time": 247.21396500000193,
                    "velocity": 0.3858267716535433,
                    "duration": 0.08797649999999635
                },
                {
                    "name": "B3",
                    "midi": 59,
                    "time": 247.38991800000193,
                    "velocity": 0.29133858267716534,
                    "duration": 0.08797649999999635
                },
                {
                    "name": "F#2",
                    "midi": 42,
                    "time": 247.56587100000192,
                    "velocity": 0.3858267716535433,
                    "duration": 0.08797649999999635
                },
                {
                    "name": "F#3",
                    "midi": 54,
                    "time": 247.7418240000019,
                    "velocity": 0.33070866141732286,
                    "duration": 0.08797649999999635
                },
                {
                    "name": "G2",
                    "midi": 43,
                    "time": 247.9177770000019,
                    "velocity": 0.3858267716535433,
                    "duration": 0.08797649999999635
                },
                {
                    "name": "D#3",
                    "midi": 51,
                    "time": 248.0937300000019,
                    "velocity": 0.28346456692913385,
                    "duration": 0.08797649999999635
                },
                {
                    "name": "G3",
                    "midi": 55,
                    "time": 248.0937300000019,
                    "velocity": 0.33858267716535434,
                    "duration": 0.08797649999999635
                },
                {
                    "name": "G#2",
                    "midi": 44,
                    "time": 248.2696830000019,
                    "velocity": 0.3858267716535433,
                    "duration": 0.08797649999999635
                },
                {
                    "name": "D#3",
                    "midi": 51,
                    "time": 248.44563600000188,
                    "velocity": 0.30708661417322836,
                    "duration": 0.08797649999999635
                },
                {
                    "name": "G#3",
                    "midi": 56,
                    "time": 248.44563600000188,
                    "velocity": 0.36220472440944884,
                    "duration": 0.08797649999999635
                },
                {
                    "name": "D#2",
                    "midi": 39,
                    "time": 248.62158900000188,
                    "velocity": 0.3858267716535433,
                    "duration": 0.08797649999999635
                },
                {
                    "name": "A#2",
                    "midi": 46,
                    "time": 248.79754200000187,
                    "velocity": 0.29133858267716534,
                    "duration": 0.08797649999999635
                },
                {
                    "name": "D#3",
                    "midi": 51,
                    "time": 248.97349500000186,
                    "velocity": 0.3858267716535433,
                    "duration": 0.08797649999999635
                },
                {
                    "name": "A#3",
                    "midi": 58,
                    "time": 249.14944800000185,
                    "velocity": 0.33070866141732286,
                    "duration": 0.08797649999999635
                },
                {
                    "name": "D#4",
                    "midi": 63,
                    "time": 249.32540100000185,
                    "velocity": 0.3858267716535433,
                    "duration": 0.08797649999999635
                },
                {
                    "name": "A#3",
                    "midi": 58,
                    "time": 249.50135400000184,
                    "velocity": 0.33858267716535434,
                    "duration": 0.08797649999999635
                },
                {
                    "name": "D#3",
                    "midi": 51,
                    "time": 249.67730700000183,
                    "velocity": 0.3858267716535433,
                    "duration": 0.08797649999999635
                },
                {
                    "name": "C#4",
                    "midi": 61,
                    "time": 249.85326000000182,
                    "velocity": 0.36220472440944884,
                    "duration": 0.08797649999999635
                },
                {
                    "name": "C4",
                    "midi": 60,
                    "time": 250.02921300000182,
                    "velocity": 0.4251968503937008,
                    "duration": 0.08797649999999635
                },
                {
                    "name": "D#3",
                    "midi": 51,
                    "time": 250.2051660000018,
                    "velocity": 0.33858267716535434,
                    "duration": 0.08797649999999635
                },
                {
                    "name": "G#2",
                    "midi": 44,
                    "time": 250.3811190000018,
                    "velocity": 0.3858267716535433,
                    "duration": 0.08797649999999635
                },
                {
                    "name": "D#2",
                    "midi": 39,
                    "time": 250.7330250000018,
                    "velocity": 0.4251968503937008,
                    "duration": 0.08797649999999635
                },
                {
                    "name": "D#3",
                    "midi": 51,
                    "time": 250.7330250000018,
                    "velocity": 0.5039370078740157,
                    "duration": 0.08797649999999635
                },
                {
                    "name": "E2",
                    "midi": 40,
                    "time": 250.90897800000178,
                    "velocity": 0.36220472440944884,
                    "duration": 0.08797649999999635
                },
                {
                    "name": "E3",
                    "midi": 52,
                    "time": 250.90897800000178,
                    "velocity": 0.4330708661417323,
                    "duration": 0.08797649999999635
                },
                {
                    "name": "C#2",
                    "midi": 37,
                    "time": 251.08493100000177,
                    "velocity": 0.4409448818897638,
                    "duration": 0.08797649999999635
                },
                {
                    "name": "C#3",
                    "midi": 49,
                    "time": 251.08493100000177,
                    "velocity": 0.5275590551181102,
                    "duration": 0.08797649999999635
                },
                {
                    "name": "D#2",
                    "midi": 39,
                    "time": 251.26088400000177,
                    "velocity": 0.3937007874015748,
                    "duration": 0.08797649999999635
                },
                {
                    "name": "D#3",
                    "midi": 51,
                    "time": 251.26088400000177,
                    "velocity": 0.4645669291338583,
                    "duration": 0.08797649999999635
                },
                {
                    "name": "B1",
                    "midi": 35,
                    "time": 251.43683700000176,
                    "velocity": 0.4566929133858268,
                    "duration": 0.08797649999999635
                },
                {
                    "name": "B2",
                    "midi": 47,
                    "time": 251.43683700000176,
                    "velocity": 0.5433070866141733,
                    "duration": 0.08797649999999635
                },
                {
                    "name": "C#2",
                    "midi": 37,
                    "time": 251.61279000000175,
                    "velocity": 0.4015748031496063,
                    "duration": 0.08797649999999635
                },
                {
                    "name": "C#3",
                    "midi": 49,
                    "time": 251.61279000000175,
                    "velocity": 0.47244094488188976,
                    "duration": 0.08797649999999635
                },
                {
                    "name": "A1",
                    "midi": 33,
                    "time": 251.78874300000174,
                    "velocity": 0.4409448818897638,
                    "duration": 0.08797649999999635
                },
                {
                    "name": "A2",
                    "midi": 45,
                    "time": 251.78874300000174,
                    "velocity": 0.5196850393700787,
                    "duration": 0.08797649999999635
                },
                {
                    "name": "B1",
                    "midi": 35,
                    "time": 251.96469600000174,
                    "velocity": 0.3937007874015748,
                    "duration": 0.08797649999999635
                },
                {
                    "name": "B2",
                    "midi": 47,
                    "time": 251.96469600000174,
                    "velocity": 0.4645669291338583,
                    "duration": 0.08797649999999635
                },
                {
                    "name": "G1",
                    "midi": 31,
                    "time": 252.14064900000173,
                    "velocity": 0.4645669291338583,
                    "duration": 0.3519060000000138
                },
                {
                    "name": "G2",
                    "midi": 43,
                    "time": 252.14064900000173,
                    "velocity": 0.5511811023622047,
                    "duration": 0.3519060000000138
                },
                {
                    "name": "G#1",
                    "midi": 32,
                    "time": 252.49255500000174,
                    "velocity": 0.47244094488188976,
                    "duration": 0.3519060000000138
                },
                {
                    "name": "G#2",
                    "midi": 44,
                    "time": 252.49255500000174,
                    "velocity": 0.5590551181102362,
                    "duration": 0.3519060000000138
                },
                {
                    "name": "D#2",
                    "midi": 39,
                    "time": 252.84446100000176,
                    "velocity": 0.5275590551181102,
                    "duration": 0.08797649999999635
                },
                {
                    "name": "A#2",
                    "midi": 46,
                    "time": 253.02041400000175,
                    "velocity": 0.4645669291338583,
                    "duration": 0.08797649999999635
                },
                {
                    "name": "D#3",
                    "midi": 51,
                    "time": 253.19636700000174,
                    "velocity": 0.5275590551181102,
                    "duration": 0.08797649999999635
                },
                {
                    "name": "A#3",
                    "midi": 58,
                    "time": 253.37232000000174,
                    "velocity": 0.48031496062992124,
                    "duration": 0.08797649999999635
                },
                {
                    "name": "D#4",
                    "midi": 63,
                    "time": 253.54827300000173,
                    "velocity": 0.5433070866141733,
                    "duration": 0.08797649999999635
                },
                {
                    "name": "A#3",
                    "midi": 58,
                    "time": 253.72422600000172,
                    "velocity": 0.44881889763779526,
                    "duration": 0.08797649999999635
                },
                {
                    "name": "D#3",
                    "midi": 51,
                    "time": 253.9001790000017,
                    "velocity": 0.5275590551181102,
                    "duration": 0.08797649999999635
                },
                {
                    "name": "C#4",
                    "midi": 61,
                    "time": 254.0761320000017,
                    "velocity": 0.48031496062992124,
                    "duration": 0.08797649999999635
                },
                {
                    "name": "C4",
                    "midi": 60,
                    "time": 254.2520850000017,
                    "velocity": 0.5984251968503937,
                    "duration": 0.08797649999999635
                },
                {
                    "name": "D#3",
                    "midi": 51,
                    "time": 254.4280380000017,
                    "velocity": 0.5039370078740157,
                    "duration": 0.08797649999999635
                },
                {
                    "name": "G#2",
                    "midi": 44,
                    "time": 254.60399100000168,
                    "velocity": 0.5590551181102362,
                    "duration": 0.08797649999999635
                },
                {
                    "name": "D#4",
                    "midi": 63,
                    "time": 254.95589700000167,
                    "velocity": 0.2677165354330709,
                    "duration": 0.08797649999999635
                },
                {
                    "name": "C#5",
                    "midi": 73,
                    "time": 255.04387350000167,
                    "velocity": 0.1968503937007874,
                    "duration": 0.08797649999999635
                },
                {
                    "name": "F#4",
                    "midi": 66,
                    "time": 255.13185000000166,
                    "velocity": 0.1968503937007874,
                    "duration": 0.08797649999999635
                },
                {
                    "name": "C#5",
                    "midi": 73,
                    "time": 255.21982650000166,
                    "velocity": 0.1968503937007874,
                    "duration": 0.08797649999999635
                },
                {
                    "name": "B3",
                    "midi": 59,
                    "time": 255.30780300000166,
                    "velocity": 0.2440944881889764,
                    "duration": 0.08797649999999635
                },
                {
                    "name": "C#5",
                    "midi": 73,
                    "time": 255.39577950000165,
                    "velocity": 0.1968503937007874,
                    "duration": 0.08797649999999635
                },
                {
                    "name": "F#4",
                    "midi": 66,
                    "time": 255.48375600000165,
                    "velocity": 0.1968503937007874,
                    "duration": 0.08797649999999635
                },
                {
                    "name": "C#5",
                    "midi": 73,
                    "time": 255.57173250000164,
                    "velocity": 0.1968503937007874,
                    "duration": 0.08797649999999635
                },
                {
                    "name": "E4",
                    "midi": 64,
                    "time": 255.65970900000164,
                    "velocity": 0.2677165354330709,
                    "duration": 0.08797649999999635
                },
                {
                    "name": "C#5",
                    "midi": 73,
                    "time": 255.74768550000164,
                    "velocity": 0.1968503937007874,
                    "duration": 0.08797649999999635
                },
                {
                    "name": "G#4",
                    "midi": 68,
                    "time": 255.83566200000163,
                    "velocity": 0.1968503937007874,
                    "duration": 0.08797649999999635
                },
                {
                    "name": "C#5",
                    "midi": 73,
                    "time": 255.92363850000163,
                    "velocity": 0.1968503937007874,
                    "duration": 0.08797650000002477
                },
                {
                    "name": "B3",
                    "midi": 59,
                    "time": 256.01161500000165,
                    "velocity": 0.2440944881889764,
                    "duration": 0.08797650000002477
                },
                {
                    "name": "C#5",
                    "midi": 73,
                    "time": 256.0995915000017,
                    "velocity": 0.1968503937007874,
                    "duration": 0.08797650000002477
                },
                {
                    "name": "G#4",
                    "midi": 68,
                    "time": 256.1875680000017,
                    "velocity": 0.1968503937007874,
                    "duration": 0.08797650000002477
                },
                {
                    "name": "C#5",
                    "midi": 73,
                    "time": 256.27554450000173,
                    "velocity": 0.1968503937007874,
                    "duration": 0.08797650000002477
                },
                {
                    "name": "D#4",
                    "midi": 63,
                    "time": 256.36352100000175,
                    "velocity": 0.2677165354330709,
                    "duration": 0.08797650000002477
                },
                {
                    "name": "C#5",
                    "midi": 73,
                    "time": 256.4514975000018,
                    "velocity": 0.1968503937007874,
                    "duration": 0.08797650000002477
                },
                {
                    "name": "F#4",
                    "midi": 66,
                    "time": 256.5394740000018,
                    "velocity": 0.1968503937007874,
                    "duration": 0.08797650000002477
                },
                {
                    "name": "C#5",
                    "midi": 73,
                    "time": 256.6274505000018,
                    "velocity": 0.1968503937007874,
                    "duration": 0.08797650000002477
                },
                {
                    "name": "B3",
                    "midi": 59,
                    "time": 256.71542700000185,
                    "velocity": 0.2440944881889764,
                    "duration": 0.08797650000002477
                },
                {
                    "name": "C#5",
                    "midi": 73,
                    "time": 256.8034035000019,
                    "velocity": 0.1968503937007874,
                    "duration": 0.08797650000002477
                },
                {
                    "name": "F#4",
                    "midi": 66,
                    "time": 256.8913800000019,
                    "velocity": 0.1968503937007874,
                    "duration": 0.08797650000002477
                },
                {
                    "name": "C#5",
                    "midi": 73,
                    "time": 256.9793565000019,
                    "velocity": 0.1968503937007874,
                    "duration": 0.08797650000002477
                },
                {
                    "name": "E4",
                    "midi": 64,
                    "time": 257.06733300000195,
                    "velocity": 0.2677165354330709,
                    "duration": 0.08797650000002477
                },
                {
                    "name": "C#5",
                    "midi": 73,
                    "time": 257.155309500002,
                    "velocity": 0.1968503937007874,
                    "duration": 0.08797650000002477
                },
                {
                    "name": "G#4",
                    "midi": 68,
                    "time": 257.243286000002,
                    "velocity": 0.1968503937007874,
                    "duration": 0.08797650000002477
                },
                {
                    "name": "C#5",
                    "midi": 73,
                    "time": 257.331262500002,
                    "velocity": 0.1968503937007874,
                    "duration": 0.08797650000002477
                },
                {
                    "name": "B3",
                    "midi": 59,
                    "time": 257.41923900000205,
                    "velocity": 0.2440944881889764,
                    "duration": 0.08797650000002477
                },
                {
                    "name": "C#5",
                    "midi": 73,
                    "time": 257.5072155000021,
                    "velocity": 0.1968503937007874,
                    "duration": 0.08797650000002477
                },
                {
                    "name": "G#4",
                    "midi": 68,
                    "time": 257.5951920000021,
                    "velocity": 0.1968503937007874,
                    "duration": 0.08797650000002477
                },
                {
                    "name": "E4",
                    "midi": 64,
                    "time": 257.6831685000021,
                    "velocity": 0.1968503937007874,
                    "duration": 0.08797650000002477
                },
                {
                    "name": "C#2",
                    "midi": 37,
                    "time": 257.77114500000215,
                    "velocity": 0.3464566929133858,
                    "duration": 0.35190600000004224
                },
                {
                    "name": "C#3",
                    "midi": 49,
                    "time": 257.77114500000215,
                    "velocity": 0.4094488188976378,
                    "duration": 0.08797650000002477
                },
                {
                    "name": "F#2",
                    "midi": 42,
                    "time": 257.8591215000022,
                    "velocity": 0.3700787401574803,
                    "duration": 0.26392950000001747
                },
                {
                    "name": "B1",
                    "midi": 35,
                    "time": 258.1230510000022,
                    "velocity": 0.25196850393700787,
                    "duration": 0.35190600000004224
                },
                {
                    "name": "B2",
                    "midi": 47,
                    "time": 258.1230510000022,
                    "velocity": 0.2992125984251969,
                    "duration": 0.08797650000002477
                },
                {
                    "name": "F#2",
                    "midi": 42,
                    "time": 258.2110275000022,
                    "velocity": 0.2755905511811024,
                    "duration": 0.26392950000001747
                },
                {
                    "name": "D#4",
                    "midi": 63,
                    "time": 258.47495700000223,
                    "velocity": 0.2677165354330709,
                    "duration": 0.08797650000002477
                },
                {
                    "name": "C#5",
                    "midi": 73,
                    "time": 258.56293350000226,
                    "velocity": 0.1968503937007874,
                    "duration": 0.08797650000002477
                },
                {
                    "name": "F#4",
                    "midi": 66,
                    "time": 258.6509100000023,
                    "velocity": 0.1968503937007874,
                    "duration": 0.08797650000002477
                },
                {
                    "name": "C#5",
                    "midi": 73,
                    "time": 258.7388865000023,
                    "velocity": 0.1968503937007874,
                    "duration": 0.08797650000002477
                },
                {
                    "name": "B3",
                    "midi": 59,
                    "time": 258.82686300000233,
                    "velocity": 0.2440944881889764,
                    "duration": 0.08797650000002477
                },
                {
                    "name": "C#5",
                    "midi": 73,
                    "time": 258.91483950000236,
                    "velocity": 0.1968503937007874,
                    "duration": 0.08797650000002477
                },
                {
                    "name": "F#4",
                    "midi": 66,
                    "time": 259.0028160000024,
                    "velocity": 0.1968503937007874,
                    "duration": 0.08797650000002477
                },
                {
                    "name": "C#5",
                    "midi": 73,
                    "time": 259.0907925000024,
                    "velocity": 0.1968503937007874,
                    "duration": 0.08797650000002477
                },
                {
                    "name": "E4",
                    "midi": 64,
                    "time": 259.17876900000243,
                    "velocity": 0.2677165354330709,
                    "duration": 0.08797650000002477
                },
                {
                    "name": "C#5",
                    "midi": 73,
                    "time": 259.26674550000246,
                    "velocity": 0.1968503937007874,
                    "duration": 0.08797650000002477
                },
                {
                    "name": "G#4",
                    "midi": 68,
                    "time": 259.3547220000025,
                    "velocity": 0.1968503937007874,
                    "duration": 0.08797650000002477
                },
                {
                    "name": "C#5",
                    "midi": 73,
                    "time": 259.4426985000025,
                    "velocity": 0.1968503937007874,
                    "duration": 0.08797650000002477
                },
                {
                    "name": "B3",
                    "midi": 59,
                    "time": 259.53067500000253,
                    "velocity": 0.2440944881889764,
                    "duration": 0.08797650000002477
                },
                {
                    "name": "C#5",
                    "midi": 73,
                    "time": 259.61865150000256,
                    "velocity": 0.1968503937007874,
                    "duration": 0.08797650000002477
                },
                {
                    "name": "G#4",
                    "midi": 68,
                    "time": 259.7066280000026,
                    "velocity": 0.1968503937007874,
                    "duration": 0.08797650000002477
                },
                {
                    "name": "C#5",
                    "midi": 73,
                    "time": 259.7946045000026,
                    "velocity": 0.1968503937007874,
                    "duration": 0.08797650000002477
                },
                {
                    "name": "D#4",
                    "midi": 63,
                    "time": 259.88258100000263,
                    "velocity": 0.2677165354330709,
                    "duration": 0.08797650000002477
                },
                {
                    "name": "C#5",
                    "midi": 73,
                    "time": 259.97055750000266,
                    "velocity": 0.1968503937007874,
                    "duration": 0.08797650000002477
                },
                {
                    "name": "F#4",
                    "midi": 66,
                    "time": 260.0585340000027,
                    "velocity": 0.1968503937007874,
                    "duration": 0.08797650000002477
                },
                {
                    "name": "C#5",
                    "midi": 73,
                    "time": 260.1465105000027,
                    "velocity": 0.1968503937007874,
                    "duration": 0.08797650000002477
                },
                {
                    "name": "B3",
                    "midi": 59,
                    "time": 260.23448700000273,
                    "velocity": 0.2440944881889764,
                    "duration": 0.08797650000002477
                },
                {
                    "name": "C#5",
                    "midi": 73,
                    "time": 260.32246350000275,
                    "velocity": 0.1968503937007874,
                    "duration": 0.08797650000002477
                },
                {
                    "name": "F#4",
                    "midi": 66,
                    "time": 260.4104400000028,
                    "velocity": 0.1968503937007874,
                    "duration": 0.08797650000002477
                },
                {
                    "name": "C#5",
                    "midi": 73,
                    "time": 260.4984165000028,
                    "velocity": 0.1968503937007874,
                    "duration": 0.08797650000002477
                },
                {
                    "name": "E4",
                    "midi": 64,
                    "time": 260.58639300000283,
                    "velocity": 0.2677165354330709,
                    "duration": 0.08797650000002477
                },
                {
                    "name": "C#5",
                    "midi": 73,
                    "time": 260.67436950000285,
                    "velocity": 0.1968503937007874,
                    "duration": 0.08797650000002477
                },
                {
                    "name": "G#4",
                    "midi": 68,
                    "time": 260.7623460000029,
                    "velocity": 0.1968503937007874,
                    "duration": 0.08797650000002477
                },
                {
                    "name": "C#5",
                    "midi": 73,
                    "time": 260.8503225000029,
                    "velocity": 0.1968503937007874,
                    "duration": 0.08797650000002477
                },
                {
                    "name": "B3",
                    "midi": 59,
                    "time": 260.9382990000029,
                    "velocity": 0.2440944881889764,
                    "duration": 0.08797650000002477
                },
                {
                    "name": "C#5",
                    "midi": 73,
                    "time": 261.02627550000295,
                    "velocity": 0.1968503937007874,
                    "duration": 0.08797650000002477
                },
                {
                    "name": "G#4",
                    "midi": 68,
                    "time": 261.114252000003,
                    "velocity": 0.1968503937007874,
                    "duration": 0.08797650000002477
                },
                {
                    "name": "E4",
                    "midi": 64,
                    "time": 261.202228500003,
                    "velocity": 0.1968503937007874,
                    "duration": 0.08797650000002477
                },
                {
                    "name": "C#2",
                    "midi": 37,
                    "time": 261.290205000003,
                    "velocity": 0.3464566929133858,
                    "duration": 0.35190600000004224
                },
                {
                    "name": "C#3",
                    "midi": 49,
                    "time": 261.290205000003,
                    "velocity": 0.4094488188976378,
                    "duration": 0.08797650000002477
                },
                {
                    "name": "F#2",
                    "midi": 42,
                    "time": 261.37818150000305,
                    "velocity": 0.3700787401574803,
                    "duration": 0.26392950000001747
                },
                {
                    "name": "B1",
                    "midi": 35,
                    "time": 261.64211100000307,
                    "velocity": 0.25196850393700787,
                    "duration": 0.35190600000004224
                },
                {
                    "name": "B2",
                    "midi": 47,
                    "time": 261.64211100000307,
                    "velocity": 0.2992125984251969,
                    "duration": 0.08797650000002477
                },
                {
                    "name": "F#2",
                    "midi": 42,
                    "time": 261.7300875000031,
                    "velocity": 0.2755905511811024,
                    "duration": 0.26392950000001747
                },
                {
                    "name": "D4",
                    "midi": 62,
                    "time": 261.9940170000031,
                    "velocity": 0.2677165354330709,
                    "duration": 0.08797650000002477
                },
                {
                    "name": "C#5",
                    "midi": 73,
                    "time": 262.08199350000314,
                    "velocity": 0.1968503937007874,
                    "duration": 0.08797650000002477
                },
                {
                    "name": "F#4",
                    "midi": 66,
                    "time": 262.16997000000316,
                    "velocity": 0.1968503937007874,
                    "duration": 0.08797650000002477
                },
                {
                    "name": "C#5",
                    "midi": 73,
                    "time": 262.2579465000032,
                    "velocity": 0.1968503937007874,
                    "duration": 0.08797650000002477
                },
                {
                    "name": "D4",
                    "midi": 62,
                    "time": 262.3459230000032,
                    "velocity": 0.2440944881889764,
                    "duration": 0.08797650000002477
                },
                {
                    "name": "C#5",
                    "midi": 73,
                    "time": 262.43389950000324,
                    "velocity": 0.1968503937007874,
                    "duration": 0.08797650000002477
                },
                {
                    "name": "F#4",
                    "midi": 66,
                    "time": 262.52187600000326,
                    "velocity": 0.1968503937007874,
                    "duration": 0.08797650000002477
                },
                {
                    "name": "C#5",
                    "midi": 73,
                    "time": 262.6098525000033,
                    "velocity": 0.1968503937007874,
                    "duration": 0.08797650000002477
                },
                {
                    "name": "E4",
                    "midi": 64,
                    "time": 262.6978290000033,
                    "velocity": 0.2677165354330709,
                    "duration": 0.08797650000002477
                },
                {
                    "name": "C#5",
                    "midi": 73,
                    "time": 262.78580550000333,
                    "velocity": 0.1968503937007874,
                    "duration": 0.08797650000002477
                },
                {
                    "name": "G#4",
                    "midi": 68,
                    "time": 262.87378200000336,
                    "velocity": 0.1968503937007874,
                    "duration": 0.08797650000002477
                },
                {
                    "name": "C#5",
                    "midi": 73,
                    "time": 262.9617585000034,
                    "velocity": 0.1968503937007874,
                    "duration": 0.08797650000002477
                },
                {
                    "name": "D4",
                    "midi": 62,
                    "time": 263.0497350000034,
                    "velocity": 0.2440944881889764,
                    "duration": 0.08797650000002477
                },
                {
                    "name": "C#5",
                    "midi": 73,
                    "time": 263.13771150000343,
                    "velocity": 0.1968503937007874,
                    "duration": 0.08797650000002477
                },
                {
                    "name": "F#4",
                    "midi": 66,
                    "time": 263.22568800000346,
                    "velocity": 0.1968503937007874,
                    "duration": 0.08797650000002477
                },
                {
                    "name": "C#5",
                    "midi": 73,
                    "time": 263.3136645000035,
                    "velocity": 0.1968503937007874,
                    "duration": 0.08797650000002477
                },
                {
                    "name": "C#2",
                    "midi": 37,
                    "time": 263.4016410000035,
                    "velocity": 0.3464566929133858,
                    "duration": 0.35190600000004224
                },
                {
                    "name": "C#3",
                    "midi": 49,
                    "time": 263.4016410000035,
                    "velocity": 0.4094488188976378,
                    "duration": 0.08797650000002477
                },
                {
                    "name": "F#2",
                    "midi": 42,
                    "time": 263.48961750000353,
                    "velocity": 0.3700787401574803,
                    "duration": 0.26392950000001747
                },
                {
                    "name": "B1",
                    "midi": 35,
                    "time": 263.75354700000355,
                    "velocity": 0.25196850393700787,
                    "duration": 0.35190600000004224
                },
                {
                    "name": "B2",
                    "midi": 47,
                    "time": 263.75354700000355,
                    "velocity": 0.2992125984251969,
                    "duration": 0.08797650000002477
                },
                {
                    "name": "F#2",
                    "midi": 42,
                    "time": 263.8415235000036,
                    "velocity": 0.2755905511811024,
                    "duration": 0.26392950000001747
                },
                {
                    "name": "D4",
                    "midi": 62,
                    "time": 264.1054530000036,
                    "velocity": 0.2677165354330709,
                    "duration": 0.08797650000002477
                },
                {
                    "name": "C#5",
                    "midi": 73,
                    "time": 264.1934295000036,
                    "velocity": 0.1968503937007874,
                    "duration": 0.08797650000002477
                },
                {
                    "name": "F#4",
                    "midi": 66,
                    "time": 264.28140600000364,
                    "velocity": 0.1968503937007874,
                    "duration": 0.08797650000002477
                },
                {
                    "name": "C#5",
                    "midi": 73,
                    "time": 264.36938250000367,
                    "velocity": 0.1968503937007874,
                    "duration": 0.08797650000002477
                },
                {
                    "name": "D4",
                    "midi": 62,
                    "time": 264.4573590000037,
                    "velocity": 0.2440944881889764,
                    "duration": 0.08797650000002477
                },
                {
                    "name": "B4",
                    "midi": 71,
                    "time": 264.5453355000037,
                    "velocity": 0.1968503937007874,
                    "duration": 0.08797650000002477
                },
                {
                    "name": "F#4",
                    "midi": 66,
                    "time": 264.63331200000374,
                    "velocity": 0.1968503937007874,
                    "duration": 0.08797650000002477
                },
                {
                    "name": "B4",
                    "midi": 71,
                    "time": 264.72128850000377,
                    "velocity": 0.1968503937007874,
                    "duration": 0.08797650000002477
                },
                {
                    "name": "F4",
                    "midi": 65,
                    "time": 264.8092650000038,
                    "velocity": 0.2677165354330709,
                    "duration": 0.08797650000002477
                },
                {
                    "name": "B4",
                    "midi": 71,
                    "time": 264.8972415000038,
                    "velocity": 0.1968503937007874,
                    "duration": 0.08797650000002477
                },
                {
                    "name": "G#4",
                    "midi": 68,
                    "time": 264.98521800000384,
                    "velocity": 0.1968503937007874,
                    "duration": 0.08797650000002477
                },
                {
                    "name": "B4",
                    "midi": 71,
                    "time": 265.07319450000386,
                    "velocity": 0.1968503937007874,
                    "duration": 0.08797650000002477
                },
                {
                    "name": "F#4",
                    "midi": 66,
                    "time": 265.1611710000039,
                    "velocity": 0.2440944881889764,
                    "duration": 0.08797650000002477
                },
                {
                    "name": "E5",
                    "midi": 76,
                    "time": 265.2491475000039,
                    "velocity": 0.1968503937007874,
                    "duration": 0.08797650000002477
                },
                {
                    "name": "A#4",
                    "midi": 70,
                    "time": 265.33712400000394,
                    "velocity": 0.1968503937007874,
                    "duration": 0.08797650000002477
                },
                {
                    "name": "E5",
                    "midi": 76,
                    "time": 265.42510050000396,
                    "velocity": 0.1968503937007874,
                    "duration": 0.08797650000002477
                },
                {
                    "name": "F#2",
                    "midi": 42,
                    "time": 265.513077000004,
                    "velocity": 0.36220472440944884,
                    "duration": 0.35190600000004224
                },
                {
                    "name": "C#3",
                    "midi": 49,
                    "time": 265.601053500004,
                    "velocity": 0.33070866141732286,
                    "duration": 0.26392950000001747
                },
                {
                    "name": "B1",
                    "midi": 35,
                    "time": 265.86498300000403,
                    "velocity": 0.2677165354330709,
                    "duration": 0.35190600000004224
                },
                {
                    "name": "B2",
                    "midi": 47,
                    "time": 265.95295950000406,
                    "velocity": 0.2440944881889764,
                    "duration": 0.26392950000001747
                },
                {
                    "name": "D4",
                    "midi": 62,
                    "time": 266.2168890000041,
                    "velocity": 0.2677165354330709,
                    "duration": 0.08797650000002477
                },
                {
                    "name": "C#5",
                    "midi": 73,
                    "time": 266.3048655000041,
                    "velocity": 0.1968503937007874,
                    "duration": 0.08797650000002477
                },
                {
                    "name": "F#4",
                    "midi": 66,
                    "time": 266.3928420000041,
                    "velocity": 0.1968503937007874,
                    "duration": 0.08797650000002477
                },
                {
                    "name": "C#5",
                    "midi": 73,
                    "time": 266.48081850000415,
                    "velocity": 0.1968503937007874,
                    "duration": 0.08797650000002477
                },
                {
                    "name": "D4",
                    "midi": 62,
                    "time": 266.5687950000042,
                    "velocity": 0.2440944881889764,
                    "duration": 0.08797650000002477
                },
                {
                    "name": "C#5",
                    "midi": 73,
                    "time": 266.6567715000042,
                    "velocity": 0.1968503937007874,
                    "duration": 0.08797650000002477
                },
                {
                    "name": "F#4",
                    "midi": 66,
                    "time": 266.7447480000042,
                    "velocity": 0.1968503937007874,
                    "duration": 0.08797650000002477
                },
                {
                    "name": "C#5",
                    "midi": 73,
                    "time": 266.83272450000425,
                    "velocity": 0.1968503937007874,
                    "duration": 0.08797650000002477
                },
                {
                    "name": "E4",
                    "midi": 64,
                    "time": 266.92070100000427,
                    "velocity": 0.2677165354330709,
                    "duration": 0.08797650000002477
                },
                {
                    "name": "C#5",
                    "midi": 73,
                    "time": 267.0086775000043,
                    "velocity": 0.1968503937007874,
                    "duration": 0.08797650000002477
                },
                {
                    "name": "G#4",
                    "midi": 68,
                    "time": 267.0966540000043,
                    "velocity": 0.1968503937007874,
                    "duration": 0.08797650000002477
                },
                {
                    "name": "C#5",
                    "midi": 73,
                    "time": 267.18463050000435,
                    "velocity": 0.1968503937007874,
                    "duration": 0.08797650000002477
                },
                {
                    "name": "D4",
                    "midi": 62,
                    "time": 267.27260700000437,
                    "velocity": 0.2440944881889764,
                    "duration": 0.08797650000002477
                },
                {
                    "name": "C#5",
                    "midi": 73,
                    "time": 267.3605835000044,
                    "velocity": 0.1968503937007874,
                    "duration": 0.08797650000002477
                },
                {
                    "name": "F#4",
                    "midi": 66,
                    "time": 267.4485600000044,
                    "velocity": 0.1968503937007874,
                    "duration": 0.08797650000002477
                },
                {
                    "name": "C#5",
                    "midi": 73,
                    "time": 267.53653650000444,
                    "velocity": 0.1968503937007874,
                    "duration": 0.08797650000002477
                },
                {
                    "name": "C#2",
                    "midi": 37,
                    "time": 267.62451300000447,
                    "velocity": 0.30708661417322836,
                    "duration": 0.35190600000004224
                },
                {
                    "name": "C#3",
                    "midi": 49,
                    "time": 267.62451300000447,
                    "velocity": 0.36220472440944884,
                    "duration": 0.08797650000002477
                },
                {
                    "name": "F#2",
                    "midi": 42,
                    "time": 267.7124895000045,
                    "velocity": 0.33070866141732286,
                    "duration": 0.26392950000001747
                },
                {
                    "name": "B1",
                    "midi": 35,
                    "time": 267.9764190000045,
                    "velocity": 0.2204724409448819,
                    "duration": 0.35190600000004224
                },
                {
                    "name": "B2",
                    "midi": 47,
                    "time": 267.9764190000045,
                    "velocity": 0.2677165354330709,
                    "duration": 0.08797650000002477
                },
                {
                    "name": "F#2",
                    "midi": 42,
                    "time": 268.06439550000454,
                    "velocity": 0.2440944881889764,
                    "duration": 0.26392950000001747
                },
                {
                    "name": "D4",
                    "midi": 62,
                    "time": 268.32832500000455,
                    "velocity": 0.2677165354330709,
                    "duration": 0.08797650000002477
                },
                {
                    "name": "C#5",
                    "midi": 73,
                    "time": 268.4163015000046,
                    "velocity": 0.1968503937007874,
                    "duration": 0.08797650000002477
                },
                {
                    "name": "F#4",
                    "midi": 66,
                    "time": 268.5042780000046,
                    "velocity": 0.1968503937007874,
                    "duration": 0.08797650000002477
                },
                {
                    "name": "C#5",
                    "midi": 73,
                    "time": 268.59225450000463,
                    "velocity": 0.1968503937007874,
                    "duration": 0.08797650000002477
                },
                {
                    "name": "D4",
                    "midi": 62,
                    "time": 268.68023100000465,
                    "velocity": 0.2440944881889764,
                    "duration": 0.08797650000002477
                },
                {
                    "name": "B4",
                    "midi": 71,
                    "time": 268.7682075000047,
                    "velocity": 0.1968503937007874,
                    "duration": 0.08797650000002477
                },
                {
                    "name": "F#4",
                    "midi": 66,
                    "time": 268.8561840000047,
                    "velocity": 0.1968503937007874,
                    "duration": 0.08797650000002477
                },
                {
                    "name": "B4",
                    "midi": 71,
                    "time": 268.9441605000047,
                    "velocity": 0.1968503937007874,
                    "duration": 0.08797650000002477
                },
                {
                    "name": "F4",
                    "midi": 65,
                    "time": 269.03213700000475,
                    "velocity": 0.2677165354330709,
                    "duration": 0.08797650000002477
                },
                {
                    "name": "B4",
                    "midi": 71,
                    "time": 269.1201135000048,
                    "velocity": 0.1968503937007874,
                    "duration": 0.08797650000002477
                },
                {
                    "name": "G#4",
                    "midi": 68,
                    "time": 269.2080900000048,
                    "velocity": 0.1968503937007874,
                    "duration": 0.08797650000002477
                },
                {
                    "name": "B4",
                    "midi": 71,
                    "time": 269.2960665000048,
                    "velocity": 0.1968503937007874,
                    "duration": 0.08797650000002477
                },
                {
                    "name": "F#4",
                    "midi": 66,
                    "time": 269.38404300000485,
                    "velocity": 0.2440944881889764,
                    "duration": 0.08797650000002477
                },
                {
                    "name": "E5",
                    "midi": 76,
                    "time": 269.4720195000049,
                    "velocity": 0.1968503937007874,
                    "duration": 0.08797650000002477
                },
                {
                    "name": "A#4",
                    "midi": 70,
                    "time": 269.5599960000049,
                    "velocity": 0.1968503937007874,
                    "duration": 0.08797650000002477
                },
                {
                    "name": "E5",
                    "midi": 76,
                    "time": 269.6479725000049,
                    "velocity": 0.1968503937007874,
                    "duration": 0.08797650000002477
                },
                {
                    "name": "F#2",
                    "midi": 42,
                    "time": 269.73594900000495,
                    "velocity": 0.3464566929133858,
                    "duration": 0.35190600000004224
                },
                {
                    "name": "C#3",
                    "midi": 49,
                    "time": 269.823925500005,
                    "velocity": 0.30708661417322836,
                    "duration": 0.26392950000001747
                },
                {
                    "name": "B1",
                    "midi": 35,
                    "time": 270.087855000005,
                    "velocity": 0.25196850393700787,
                    "duration": 0.35190600000004224
                },
                {
                    "name": "B2",
                    "midi": 47,
                    "time": 270.175831500005,
                    "velocity": 0.2283464566929134,
                    "duration": 0.26392950000001747
                },
                {
                    "name": "D#3",
                    "midi": 51,
                    "time": 270.43976100000503,
                    "velocity": 0.2677165354330709,
                    "duration": 0.11730199999999513
                },
                {
                    "name": "C#4",
                    "midi": 61,
                    "time": 270.55706300000503,
                    "velocity": 0.1968503937007874,
                    "duration": 0.11730199999999513
                },
                {
                    "name": "B3",
                    "midi": 59,
                    "time": 270.674365000005,
                    "velocity": 0.1968503937007874,
                    "duration": 0.11730199999999513
                },
                {
                    "name": "A4",
                    "midi": 69,
                    "time": 270.791667000005,
                    "velocity": 0.2440944881889764,
                    "duration": 0.08797650000002477
                },
                {
                    "name": "F#4",
                    "midi": 66,
                    "time": 270.87964350000505,
                    "velocity": 0.1968503937007874,
                    "duration": 0.08797650000002477
                },
                {
                    "name": "C#4",
                    "midi": 61,
                    "time": 270.96762000000507,
                    "velocity": 0.1968503937007874,
                    "duration": 0.08797650000002477
                },
                {
                    "name": "B3",
                    "midi": 59,
                    "time": 271.0555965000051,
                    "velocity": 0.1968503937007874,
                    "duration": 0.08797650000002477
                },
                {
                    "name": "E3",
                    "midi": 52,
                    "time": 271.1435730000051,
                    "velocity": 0.2677165354330709,
                    "duration": 0.11730199999999513
                },
                {
                    "name": "C#4",
                    "midi": 61,
                    "time": 271.2608750000051,
                    "velocity": 0.1968503937007874,
                    "duration": 0.11730199999999513
                },
                {
                    "name": "B3",
                    "midi": 59,
                    "time": 271.3781770000051,
                    "velocity": 0.1968503937007874,
                    "duration": 0.11730199999999513
                },
                {
                    "name": "G#4",
                    "midi": 68,
                    "time": 271.4954790000051,
                    "velocity": 0.2440944881889764,
                    "duration": 0.08797650000002477
                },
                {
                    "name": "E4",
                    "midi": 64,
                    "time": 271.58345550000513,
                    "velocity": 0.1968503937007874,
                    "duration": 0.08797650000002477
                },
                {
                    "name": "C#4",
                    "midi": 61,
                    "time": 271.67143200000515,
                    "velocity": 0.1968503937007874,
                    "duration": 0.08797650000002477
                },
                {
                    "name": "B3",
                    "midi": 59,
                    "time": 271.7594085000052,
                    "velocity": 0.1968503937007874,
                    "duration": 0.08797650000002477
                },
                {
                    "name": "D#3",
                    "midi": 51,
                    "time": 271.8473850000052,
                    "velocity": 0.2677165354330709,
                    "duration": 0.11730199999999513
                },
                {
                    "name": "C#4",
                    "midi": 61,
                    "time": 271.9646870000052,
                    "velocity": 0.1968503937007874,
                    "duration": 0.11730199999999513
                },
                {
                    "name": "B3",
                    "midi": 59,
                    "time": 272.0819890000052,
                    "velocity": 0.1968503937007874,
                    "duration": 0.11730199999999513
                },
                {
                    "name": "A4",
                    "midi": 69,
                    "time": 272.1992910000052,
                    "velocity": 0.2440944881889764,
                    "duration": 0.08797650000002477
                },
                {
                    "name": "F#4",
                    "midi": 66,
                    "time": 272.2872675000052,
                    "velocity": 0.1968503937007874,
                    "duration": 0.08797650000002477
                },
                {
                    "name": "C#4",
                    "midi": 61,
                    "time": 272.37524400000524,
                    "velocity": 0.1968503937007874,
                    "duration": 0.08797650000002477
                },
                {
                    "name": "B3",
                    "midi": 59,
                    "time": 272.46322050000526,
                    "velocity": 0.1968503937007874,
                    "duration": 0.08797650000002477
                },
                {
                    "name": "E3",
                    "midi": 52,
                    "time": 272.5511970000053,
                    "velocity": 0.2677165354330709,
                    "duration": 0.11730199999999513
                },
                {
                    "name": "C#4",
                    "midi": 61,
                    "time": 272.6684990000053,
                    "velocity": 0.1968503937007874,
                    "duration": 0.11730199999999513
                },
                {
                    "name": "B3",
                    "midi": 59,
                    "time": 272.7858010000053,
                    "velocity": 0.1968503937007874,
                    "duration": 0.11730199999999513
                },
                {
                    "name": "G#4",
                    "midi": 68,
                    "time": 272.9031030000053,
                    "velocity": 0.2440944881889764,
                    "duration": 0.08797650000002477
                },
                {
                    "name": "E4",
                    "midi": 64,
                    "time": 272.9910795000053,
                    "velocity": 0.1968503937007874,
                    "duration": 0.08797650000002477
                },
                {
                    "name": "C#4",
                    "midi": 61,
                    "time": 273.0790560000053,
                    "velocity": 0.1968503937007874,
                    "duration": 0.08797650000002477
                },
                {
                    "name": "B3",
                    "midi": 59,
                    "time": 273.16703250000535,
                    "velocity": 0.1968503937007874,
                    "duration": 0.08797650000002477
                },
                {
                    "name": "C#2",
                    "midi": 37,
                    "time": 273.2550090000054,
                    "velocity": 0.3228346456692913,
                    "duration": 0.35190600000004224
                },
                {
                    "name": "C#3",
                    "midi": 49,
                    "time": 273.2550090000054,
                    "velocity": 0.3858267716535433,
                    "duration": 0.08797650000002477
                },
                {
                    "name": "F#2",
                    "midi": 42,
                    "time": 273.3429855000054,
                    "velocity": 0.3464566929133858,
                    "duration": 0.26392950000001747
                },
                {
                    "name": "B1",
                    "midi": 35,
                    "time": 273.6069150000054,
                    "velocity": 0.23622047244094488,
                    "duration": 0.35190600000004224
                },
                {
                    "name": "B2",
                    "midi": 47,
                    "time": 273.6069150000054,
                    "velocity": 0.28346456692913385,
                    "duration": 0.08797650000002477
                },
                {
                    "name": "F#2",
                    "midi": 42,
                    "time": 273.69489150000544,
                    "velocity": 0.25984251968503935,
                    "duration": 0.26392950000001747
                },
                {
                    "name": "D#3",
                    "midi": 51,
                    "time": 273.95882100000546,
                    "velocity": 0.2677165354330709,
                    "duration": 0.11730199999999513
                },
                {
                    "name": "C#4",
                    "midi": 61,
                    "time": 274.07612300000545,
                    "velocity": 0.1968503937007874,
                    "duration": 0.11730199999999513
                },
                {
                    "name": "B3",
                    "midi": 59,
                    "time": 274.19342500000545,
                    "velocity": 0.1968503937007874,
                    "duration": 0.11730199999999513
                },
                {
                    "name": "A4",
                    "midi": 69,
                    "time": 274.31072700000544,
                    "velocity": 0.2440944881889764,
                    "duration": 0.08797650000002477
                },
                {
                    "name": "F#4",
                    "midi": 66,
                    "time": 274.39870350000547,
                    "velocity": 0.1968503937007874,
                    "duration": 0.08797650000002477
                },
                {
                    "name": "C#4",
                    "midi": 61,
                    "time": 274.4866800000055,
                    "velocity": 0.1968503937007874,
                    "duration": 0.08797650000002477
                },
                {
                    "name": "B3",
                    "midi": 59,
                    "time": 274.5746565000055,
                    "velocity": 0.1968503937007874,
                    "duration": 0.08797650000002477
                },
                {
                    "name": "E3",
                    "midi": 52,
                    "time": 274.66263300000554,
                    "velocity": 0.2677165354330709,
                    "duration": 0.11730199999999513
                },
                {
                    "name": "C#4",
                    "midi": 61,
                    "time": 274.77993500000554,
                    "velocity": 0.1968503937007874,
                    "duration": 0.11730199999999513
                },
                {
                    "name": "B3",
                    "midi": 59,
                    "time": 274.89723700000553,
                    "velocity": 0.1968503937007874,
                    "duration": 0.11730199999999513
                },
                {
                    "name": "G#4",
                    "midi": 68,
                    "time": 275.0145390000055,
                    "velocity": 0.2440944881889764,
                    "duration": 0.08797650000002477
                },
                {
                    "name": "E4",
                    "midi": 64,
                    "time": 275.10251550000555,
                    "velocity": 0.1968503937007874,
                    "duration": 0.08797650000002477
                },
                {
                    "name": "C#4",
                    "midi": 61,
                    "time": 275.1904920000056,
                    "velocity": 0.1968503937007874,
                    "duration": 0.08797650000002477
                },
                {
                    "name": "B3",
                    "midi": 59,
                    "time": 275.2784685000056,
                    "velocity": 0.1968503937007874,
                    "duration": 0.08797650000002477
                },
                {
                    "name": "D#3",
                    "midi": 51,
                    "time": 275.3664450000056,
                    "velocity": 0.2677165354330709,
                    "duration": 0.11730199999999513
                },
                {
                    "name": "C#4",
                    "midi": 61,
                    "time": 275.4837470000056,
                    "velocity": 0.1968503937007874,
                    "duration": 0.11730199999999513
                },
                {
                    "name": "B3",
                    "midi": 59,
                    "time": 275.6010490000056,
                    "velocity": 0.1968503937007874,
                    "duration": 0.11730199999999513
                },
                {
                    "name": "A4",
                    "midi": 69,
                    "time": 275.7183510000056,
                    "velocity": 0.2440944881889764,
                    "duration": 0.08797650000002477
                },
                {
                    "name": "F#4",
                    "midi": 66,
                    "time": 275.80632750000564,
                    "velocity": 0.1968503937007874,
                    "duration": 0.08797650000002477
                },
                {
                    "name": "C#4",
                    "midi": 61,
                    "time": 275.89430400000566,
                    "velocity": 0.1968503937007874,
                    "duration": 0.08797650000002477
                },
                {
                    "name": "B3",
                    "midi": 59,
                    "time": 275.9822805000057,
                    "velocity": 0.1968503937007874,
                    "duration": 0.08797650000002477
                },
                {
                    "name": "E3",
                    "midi": 52,
                    "time": 276.0702570000057,
                    "velocity": 0.2677165354330709,
                    "duration": 0.11730199999999513
                },
                {
                    "name": "C#4",
                    "midi": 61,
                    "time": 276.1875590000057,
                    "velocity": 0.1968503937007874,
                    "duration": 0.11730199999999513
                },
                {
                    "name": "B3",
                    "midi": 59,
                    "time": 276.3048610000057,
                    "velocity": 0.1968503937007874,
                    "duration": 0.11730199999999513
                },
                {
                    "name": "G#4",
                    "midi": 68,
                    "time": 276.4221630000057,
                    "velocity": 0.2440944881889764,
                    "duration": 0.08797650000002477
                },
                {
                    "name": "E4",
                    "midi": 64,
                    "time": 276.5101395000057,
                    "velocity": 0.1968503937007874,
                    "duration": 0.08797650000002477
                },
                {
                    "name": "C#4",
                    "midi": 61,
                    "time": 276.59811600000575,
                    "velocity": 0.1968503937007874,
                    "duration": 0.08797650000002477
                },
                {
                    "name": "B3",
                    "midi": 59,
                    "time": 276.68609250000577,
                    "velocity": 0.1968503937007874,
                    "duration": 0.08797650000002477
                },
                {
                    "name": "C#2",
                    "midi": 37,
                    "time": 276.7740690000058,
                    "velocity": 0.3228346456692913,
                    "duration": 0.35190600000004224
                },
                {
                    "name": "C#3",
                    "midi": 49,
                    "time": 276.7740690000058,
                    "velocity": 0.3858267716535433,
                    "duration": 0.08797650000002477
                },
                {
                    "name": "F#2",
                    "midi": 42,
                    "time": 276.8620455000058,
                    "velocity": 0.3464566929133858,
                    "duration": 0.26392950000001747
                },
                {
                    "name": "B1",
                    "midi": 35,
                    "time": 277.12597500000584,
                    "velocity": 0.23622047244094488,
                    "duration": 0.35190600000004224
                },
                {
                    "name": "B2",
                    "midi": 47,
                    "time": 277.12597500000584,
                    "velocity": 0.28346456692913385,
                    "duration": 0.08797650000002477
                },
                {
                    "name": "F#2",
                    "midi": 42,
                    "time": 277.21395150000586,
                    "velocity": 0.25984251968503935,
                    "duration": 0.26392950000001747
                },
                {
                    "name": "D3",
                    "midi": 50,
                    "time": 277.4778810000059,
                    "velocity": 0.2677165354330709,
                    "duration": 0.11730199999999513
                },
                {
                    "name": "C#4",
                    "midi": 61,
                    "time": 277.5951830000059,
                    "velocity": 0.1968503937007874,
                    "duration": 0.11730199999999513
                },
                {
                    "name": "B3",
                    "midi": 59,
                    "time": 277.71248500000587,
                    "velocity": 0.1968503937007874,
                    "duration": 0.11730199999999513
                },
                {
                    "name": "F#4",
                    "midi": 66,
                    "time": 277.82978700000587,
                    "velocity": 0.2677165354330709,
                    "duration": 0.11730199999999513
                },
                {
                    "name": "C#4",
                    "midi": 61,
                    "time": 277.94708900000586,
                    "velocity": 0.1968503937007874,
                    "duration": 0.11730199999999513
                },
                {
                    "name": "B3",
                    "midi": 59,
                    "time": 278.06439100000586,
                    "velocity": 0.1968503937007874,
                    "duration": 0.11730199999999513
                },
                {
                    "name": "E3",
                    "midi": 52,
                    "time": 278.18169300000585,
                    "velocity": 0.2677165354330709,
                    "duration": 0.11730199999999513
                },
                {
                    "name": "B3",
                    "midi": 59,
                    "time": 278.29899500000585,
                    "velocity": 0.2283464566929134,
                    "duration": 0.11730199999999513
                },
                {
                    "name": "G#4",
                    "midi": 68,
                    "time": 278.41629700000584,
                    "velocity": 0.2204724409448819,
                    "duration": 0.11730199999999513
                },
                {
                    "name": "D3",
                    "midi": 50,
                    "time": 278.53359900000584,
                    "velocity": 0.2677165354330709,
                    "duration": 0.11730199999999513
                },
                {
                    "name": "B3",
                    "midi": 59,
                    "time": 278.65090100000583,
                    "velocity": 0.2125984251968504,
                    "duration": 0.11730199999999513
                },
                {
                    "name": "F#4",
                    "midi": 66,
                    "time": 278.7682030000058,
                    "velocity": 0.2125984251968504,
                    "duration": 0.11730199999999513
                },
                {
                    "name": "C#2",
                    "midi": 37,
                    "time": 278.8855050000058,
                    "velocity": 0.3464566929133858,
                    "duration": 0.35190600000004224
                },
                {
                    "name": "C#3",
                    "midi": 49,
                    "time": 278.8855050000058,
                    "velocity": 0.4094488188976378,
                    "duration": 0.08797650000002477
                },
                {
                    "name": "F#2",
                    "midi": 42,
                    "time": 278.97348150000585,
                    "velocity": 0.3700787401574803,
                    "duration": 0.26392950000001747
                },
                {
                    "name": "B1",
                    "midi": 35,
                    "time": 279.23741100000586,
                    "velocity": 0.25196850393700787,
                    "duration": 0.35190600000004224
                },
                {
                    "name": "B2",
                    "midi": 47,
                    "time": 279.23741100000586,
                    "velocity": 0.2992125984251969,
                    "duration": 0.08797650000002477
                },
                {
                    "name": "F#2",
                    "midi": 42,
                    "time": 279.3253875000059,
                    "velocity": 0.2755905511811024,
                    "duration": 0.26392950000001747
                },
                {
                    "name": "D3",
                    "midi": 50,
                    "time": 279.5893170000059,
                    "velocity": 0.2677165354330709,
                    "duration": 0.11730199999999513
                },
                {
                    "name": "C#4",
                    "midi": 61,
                    "time": 279.7066190000059,
                    "velocity": 0.1968503937007874,
                    "duration": 0.11730199999999513
                },
                {
                    "name": "B3",
                    "midi": 59,
                    "time": 279.8239210000059,
                    "velocity": 0.1968503937007874,
                    "duration": 0.11730199999999513
                },
                {
                    "name": "F#4",
                    "midi": 66,
                    "time": 279.9412230000059,
                    "velocity": 0.2677165354330709,
                    "duration": 0.11730199999999513
                },
                {
                    "name": "C#4",
                    "midi": 61,
                    "time": 280.0585250000059,
                    "velocity": 0.1968503937007874,
                    "duration": 0.11730199999999513
                },
                {
                    "name": "B3",
                    "midi": 59,
                    "time": 280.1758270000059,
                    "velocity": 0.1968503937007874,
                    "duration": 0.11730199999999513
                },
                {
                    "name": "F3",
                    "midi": 53,
                    "time": 280.2931290000059,
                    "velocity": 0.2677165354330709,
                    "duration": 0.11730199999999513
                },
                {
                    "name": "B3",
                    "midi": 59,
                    "time": 280.4104310000059,
                    "velocity": 0.2283464566929134,
                    "duration": 0.11730199999999513
                },
                {
                    "name": "G#4",
                    "midi": 68,
                    "time": 280.52773300000587,
                    "velocity": 0.2204724409448819,
                    "duration": 0.11730199999999513
                },
                {
                    "name": "F#3",
                    "midi": 54,
                    "time": 280.64503500000586,
                    "velocity": 0.2677165354330709,
                    "duration": 0.11730199999999513
                },
                {
                    "name": "E4",
                    "midi": 64,
                    "time": 280.76233700000586,
                    "velocity": 0.2125984251968504,
                    "duration": 0.11730199999999513
                },
                {
                    "name": "A#4",
                    "midi": 70,
                    "time": 280.87963900000585,
                    "velocity": 0.2125984251968504,
                    "duration": 0.11730199999999513
                },
                {
                    "name": "F#2",
                    "midi": 42,
                    "time": 280.99694100000585,
                    "velocity": 0.3464566929133858,
                    "duration": 0.35190600000004224
                },
                {
                    "name": "C#3",
                    "midi": 49,
                    "time": 281.0849175000059,
                    "velocity": 0.30708661417322836,
                    "duration": 0.26392950000001747
                },
                {
                    "name": "B1",
                    "midi": 35,
                    "time": 281.3488470000059,
                    "velocity": 0.25196850393700787,
                    "duration": 0.35190600000004224
                },
                {
                    "name": "B2",
                    "midi": 47,
                    "time": 281.4368235000059,
                    "velocity": 0.2283464566929134,
                    "duration": 0.26392950000001747
                },
                {
                    "name": "D3",
                    "midi": 50,
                    "time": 281.70075300000593,
                    "velocity": 0.2677165354330709,
                    "duration": 0.11730199999999513
                },
                {
                    "name": "C#4",
                    "midi": 61,
                    "time": 281.8180550000059,
                    "velocity": 0.1968503937007874,
                    "duration": 0.11730199999999513
                },
                {
                    "name": "B3",
                    "midi": 59,
                    "time": 281.9353570000059,
                    "velocity": 0.1968503937007874,
                    "duration": 0.11730199999999513
                },
                {
                    "name": "F#4",
                    "midi": 66,
                    "time": 282.0526590000059,
                    "velocity": 0.2677165354330709,
                    "duration": 0.11730199999999513
                },
                {
                    "name": "C#4",
                    "midi": 61,
                    "time": 282.1699610000059,
                    "velocity": 0.1968503937007874,
                    "duration": 0.11730199999999513
                },
                {
                    "name": "B3",
                    "midi": 59,
                    "time": 282.2872630000059,
                    "velocity": 0.1968503937007874,
                    "duration": 0.11730199999999513
                },
                {
                    "name": "E3",
                    "midi": 52,
                    "time": 282.4045650000059,
                    "velocity": 0.2677165354330709,
                    "duration": 0.11730199999999513
                },
                {
                    "name": "B3",
                    "midi": 59,
                    "time": 282.5218670000059,
                    "velocity": 0.2283464566929134,
                    "duration": 0.11730199999999513
                },
                {
                    "name": "G#4",
                    "midi": 68,
                    "time": 282.6391690000059,
                    "velocity": 0.2204724409448819,
                    "duration": 0.11730199999999513
                },
                {
                    "name": "D3",
                    "midi": 50,
                    "time": 282.7564710000059,
                    "velocity": 0.2677165354330709,
                    "duration": 0.11730199999999513
                },
                {
                    "name": "B3",
                    "midi": 59,
                    "time": 282.8737730000059,
                    "velocity": 0.2125984251968504,
                    "duration": 0.11730199999999513
                },
                {
                    "name": "F#4",
                    "midi": 66,
                    "time": 282.9910750000059,
                    "velocity": 0.2125984251968504,
                    "duration": 0.11730199999999513
                },
                {
                    "name": "C#2",
                    "midi": 37,
                    "time": 283.1083770000059,
                    "velocity": 0.3464566929133858,
                    "duration": 0.35190600000004224
                },
                {
                    "name": "C#3",
                    "midi": 49,
                    "time": 283.1083770000059,
                    "velocity": 0.4094488188976378,
                    "duration": 0.08797650000002477
                },
                {
                    "name": "F#2",
                    "midi": 42,
                    "time": 283.1963535000059,
                    "velocity": 0.3700787401574803,
                    "duration": 0.26392950000001747
                },
                {
                    "name": "B1",
                    "midi": 35,
                    "time": 283.4602830000059,
                    "velocity": 0.25196850393700787,
                    "duration": 0.35190600000004224
                },
                {
                    "name": "B2",
                    "midi": 47,
                    "time": 283.4602830000059,
                    "velocity": 0.2992125984251969,
                    "duration": 0.08797650000002477
                },
                {
                    "name": "F#2",
                    "midi": 42,
                    "time": 283.54825950000594,
                    "velocity": 0.2755905511811024,
                    "duration": 0.26392950000001747
                },
                {
                    "name": "D3",
                    "midi": 50,
                    "time": 283.81218900000596,
                    "velocity": 0.2677165354330709,
                    "duration": 0.11730199999999513
                },
                {
                    "name": "C#4",
                    "midi": 61,
                    "time": 283.92949100000595,
                    "velocity": 0.1968503937007874,
                    "duration": 0.11730199999999513
                },
                {
                    "name": "B3",
                    "midi": 59,
                    "time": 284.04679300000595,
                    "velocity": 0.1968503937007874,
                    "duration": 0.11730199999999513
                },
                {
                    "name": "F#4",
                    "midi": 66,
                    "time": 284.16409500000594,
                    "velocity": 0.2677165354330709,
                    "duration": 0.11730199999999513
                },
                {
                    "name": "C#4",
                    "midi": 61,
                    "time": 284.28139700000594,
                    "velocity": 0.1968503937007874,
                    "duration": 0.11730199999999513
                },
                {
                    "name": "B3",
                    "midi": 59,
                    "time": 284.39869900000593,
                    "velocity": 0.1968503937007874,
                    "duration": 0.11730199999999513
                },
                {
                    "name": "F3",
                    "midi": 53,
                    "time": 284.51600100000593,
                    "velocity": 0.2677165354330709,
                    "duration": 0.11730199999999513
                },
                {
                    "name": "B3",
                    "midi": 59,
                    "time": 284.6333030000059,
                    "velocity": 0.2283464566929134,
                    "duration": 0.11730199999999513
                },
                {
                    "name": "G#4",
                    "midi": 68,
                    "time": 284.7506050000059,
                    "velocity": 0.2204724409448819,
                    "duration": 0.11730199999999513
                },
                {
                    "name": "E4",
                    "midi": 64,
                    "time": 287.28726075000594,
                    "velocity": 0.29133858267716534,
                    "duration": 0.7478002499999548
                },
                {
                    "name": "G#4",
                    "midi": 68,
                    "time": 287.30925487500593,
                    "velocity": 0.33070866141732286,
                    "duration": 0.7258061249999628
                },
                {
                    "name": "D5",
                    "midi": 74,
                    "time": 287.3312490000059,
                    "velocity": 0.3858267716535433,
                    "duration": 0.3519059999999854
                },
                {
                    "name": "C#5",
                    "midi": 73,
                    "time": 287.6831550000059,
                    "velocity": 0.3700787401574803,
                    "duration": 0.1759529999999927
                },
                {
                    "name": "B4",
                    "midi": 71,
                    "time": 287.8591080000059,
                    "velocity": 0.3228346456692913,
                    "duration": 0.1759529999999927
                },
                {
                    "name": "E4",
                    "midi": 64,
                    "time": 288.0350610000059,
                    "velocity": 0.2992125984251969,
                    "duration": 0.7038119999999708
                },
                {
                    "name": "C#5",
                    "midi": 73,
                    "time": 288.0350610000059,
                    "velocity": 0.2992125984251969,
                    "duration": 0.7038119999999708
                },
                {
                    "name": "E5",
                    "midi": 76,
                    "time": 288.0350610000059,
                    "velocity": 0.3543307086614173,
                    "duration": 0.1759529999999927
                },
                {
                    "name": "G#4",
                    "midi": 68,
                    "time": 288.2110140000059,
                    "velocity": 0.30708661417322836,
                    "duration": 0.1759529999999927
                },
                {
                    "name": "A4",
                    "midi": 69,
                    "time": 288.3869670000059,
                    "velocity": 0.3543307086614173,
                    "duration": 0.30791775000000143
                },
                {
                    "name": "E4",
                    "midi": 64,
                    "time": 288.6948847500059,
                    "velocity": 0.29133858267716534,
                    "duration": 0.7478002499999548
                },
                {
                    "name": "G#4",
                    "midi": 68,
                    "time": 288.7168788750059,
                    "velocity": 0.33070866141732286,
                    "duration": 0.7258061249999628
                },
                {
                    "name": "D5",
                    "midi": 74,
                    "time": 288.73887300000587,
                    "velocity": 0.3858267716535433,
                    "duration": 0.3519059999999854
                },
                {
                    "name": "C#5",
                    "midi": 73,
                    "time": 289.09077900000585,
                    "velocity": 0.3700787401574803,
                    "duration": 0.1759529999999927
                },
                {
                    "name": "B4",
                    "midi": 71,
                    "time": 289.26673200000585,
                    "velocity": 0.3228346456692913,
                    "duration": 0.1759529999999927
                },
                {
                    "name": "E4",
                    "midi": 64,
                    "time": 289.44268500000584,
                    "velocity": 0.2992125984251969,
                    "duration": 0.7038119999999708
                },
                {
                    "name": "C#5",
                    "midi": 73,
                    "time": 289.44268500000584,
                    "velocity": 0.2992125984251969,
                    "duration": 0.7038119999999708
                },
                {
                    "name": "E5",
                    "midi": 76,
                    "time": 289.44268500000584,
                    "velocity": 0.3543307086614173,
                    "duration": 0.1759529999999927
                },
                {
                    "name": "G#4",
                    "midi": 68,
                    "time": 289.61863800000583,
                    "velocity": 0.30708661417322836,
                    "duration": 0.1759529999999927
                },
                {
                    "name": "A4",
                    "midi": 69,
                    "time": 289.7945910000058,
                    "velocity": 0.3543307086614173,
                    "duration": 0.30791775000000143
                },
                {
                    "name": "E4",
                    "midi": 64,
                    "time": 290.1025087500058,
                    "velocity": 0.29133858267716534,
                    "duration": 0.7478002499999548
                },
                {
                    "name": "G#4",
                    "midi": 68,
                    "time": 290.1245028750058,
                    "velocity": 0.33070866141732286,
                    "duration": 0.7258061249999628
                },
                {
                    "name": "D5",
                    "midi": 74,
                    "time": 290.1464970000058,
                    "velocity": 0.3858267716535433,
                    "duration": 0.3519059999999854
                },
                {
                    "name": "C#5",
                    "midi": 73,
                    "time": 290.4984030000058,
                    "velocity": 0.3700787401574803,
                    "duration": 0.1759529999999927
                },
                {
                    "name": "B4",
                    "midi": 71,
                    "time": 290.6743560000058,
                    "velocity": 0.3228346456692913,
                    "duration": 0.1759529999999927
                },
                {
                    "name": "E4",
                    "midi": 64,
                    "time": 290.8503090000058,
                    "velocity": 0.2992125984251969,
                    "duration": 0.7038119999999708
                },
                {
                    "name": "C#5",
                    "midi": 73,
                    "time": 290.8503090000058,
                    "velocity": 0.2992125984251969,
                    "duration": 0.7038119999999708
                },
                {
                    "name": "E5",
                    "midi": 76,
                    "time": 290.8503090000058,
                    "velocity": 0.3543307086614173,
                    "duration": 0.1759529999999927
                },
                {
                    "name": "G#4",
                    "midi": 68,
                    "time": 291.0262620000058,
                    "velocity": 0.30708661417322836,
                    "duration": 0.1759529999999927
                },
                {
                    "name": "A4",
                    "midi": 69,
                    "time": 291.20221500000576,
                    "velocity": 0.3543307086614173,
                    "duration": 0.3519059999999854
                },
                {
                    "name": "E4",
                    "midi": 64,
                    "time": 291.55412100000575,
                    "velocity": 0.30708661417322836,
                    "duration": 1.7595299999999838
                },
                {
                    "name": "G#4",
                    "midi": 68,
                    "time": 291.55412100000575,
                    "velocity": 0.30708661417322836,
                    "duration": 1.7595299999999838
                },
                {
                    "name": "B4",
                    "midi": 71,
                    "time": 291.55412100000575,
                    "velocity": 0.30708661417322836,
                    "duration": 1.7595299999999838
                },
                {
                    "name": "D5",
                    "midi": 74,
                    "time": 291.55412100000575,
                    "velocity": 0.3858267716535433,
                    "duration": 1.7595299999999838
                },
                {
                    "name": "D#4",
                    "midi": 63,
                    "time": 295.77699300000575,
                    "velocity": 0.31496062992125984,
                    "duration": 0.06598237499997595
                },
                {
                    "name": "E4",
                    "midi": 64,
                    "time": 295.95294600000574,
                    "velocity": 0.2992125984251969,
                    "duration": 0.06598237499997595
                },
                {
                    "name": "C#4",
                    "midi": 61,
                    "time": 296.12889900000573,
                    "velocity": 0.2992125984251969,
                    "duration": 0.06598237499997595
                },
                {
                    "name": "D#4",
                    "midi": 63,
                    "time": 296.3048520000057,
                    "velocity": 0.2992125984251969,
                    "duration": 0.06598237499997595
                },
                {
                    "name": "B3",
                    "midi": 59,
                    "time": 296.4808050000057,
                    "velocity": 0.31496062992125984,
                    "duration": 0.06598237499997595
                },
                {
                    "name": "C#4",
                    "midi": 61,
                    "time": 296.6567580000057,
                    "velocity": 0.2992125984251969,
                    "duration": 0.06598237499997595
                },
                {
                    "name": "A3",
                    "midi": 57,
                    "time": 296.8327110000057,
                    "velocity": 0.2992125984251969,
                    "duration": 0.06598237499997595
                },
                {
                    "name": "B3",
                    "midi": 59,
                    "time": 297.0086640000057,
                    "velocity": 0.2992125984251969,
                    "duration": 0.06598237499997595
                },
                {
                    "name": "G3",
                    "midi": 55,
                    "time": 297.1846170000057,
                    "velocity": 0.3464566929133858,
                    "duration": 0.06598237499997595
                },
                {
                    "name": "C#4",
                    "midi": 61,
                    "time": 297.3605700000057,
                    "velocity": 0.30708661417322836,
                    "duration": 0.06598237499997595
                },
                {
                    "name": "G#3",
                    "midi": 56,
                    "time": 297.5365230000057,
                    "velocity": 0.2992125984251969,
                    "duration": 0.06598237499997595
                },
                {
                    "name": "B3",
                    "midi": 59,
                    "time": 297.71247600000567,
                    "velocity": 0.31496062992125984,
                    "duration": 0.06598237499997595
                },
                {
                    "name": "D#3",
                    "midi": 51,
                    "time": 297.88842900000566,
                    "velocity": 0.31496062992125984,
                    "duration": 0.06598237499997595
                },
                {
                    "name": "A#3",
                    "midi": 58,
                    "time": 298.06438200000565,
                    "velocity": 0.29133858267716534,
                    "duration": 0.06598237499997595
                },
                {
                    "name": "D#4",
                    "midi": 63,
                    "time": 298.24033500000564,
                    "velocity": 0.3543307086614173,
                    "duration": 0.3519059999999854
                },
                {
                    "name": "D#4",
                    "midi": 63,
                    "time": 298.59224100000563,
                    "velocity": 0.3464566929133858,
                    "duration": 0.06598237499997595
                },
                {
                    "name": "E4",
                    "midi": 64,
                    "time": 298.7681940000056,
                    "velocity": 0.3228346456692913,
                    "duration": 0.06598237499997595
                },
                {
                    "name": "C#4",
                    "midi": 61,
                    "time": 298.9441470000056,
                    "velocity": 0.3228346456692913,
                    "duration": 0.06598237499997595
                },
                {
                    "name": "D#4",
                    "midi": 63,
                    "time": 299.1201000000056,
                    "velocity": 0.3228346456692913,
                    "duration": 0.06598237499997595
                },
                {
                    "name": "B3",
                    "midi": 59,
                    "time": 299.2960530000056,
                    "velocity": 0.3464566929133858,
                    "duration": 0.06598237499997595
                },
                {
                    "name": "C#4",
                    "midi": 61,
                    "time": 299.4720060000056,
                    "velocity": 0.3228346456692913,
                    "duration": 0.06598237499997595
                },
                {
                    "name": "A3",
                    "midi": 57,
                    "time": 299.6479590000056,
                    "velocity": 0.3228346456692913,
                    "duration": 0.06598237499997595
                },
                {
                    "name": "B3",
                    "midi": 59,
                    "time": 299.8239120000056,
                    "velocity": 0.3228346456692913,
                    "duration": 0.06598237499997595
                },
                {
                    "name": "G#3",
                    "midi": 56,
                    "time": 299.99986500000557,
                    "velocity": 0.3779527559055118,
                    "duration": 0.06598237499997595
                },
                {
                    "name": "C#4",
                    "midi": 61,
                    "time": 300.17581800000556,
                    "velocity": 0.30708661417322836,
                    "duration": 0.06598237499997595
                },
                {
                    "name": "D#3",
                    "midi": 51,
                    "time": 300.35177100000556,
                    "velocity": 0.3228346456692913,
                    "duration": 0.06598237499997595
                },
                {
                    "name": "G3",
                    "midi": 55,
                    "time": 300.52772400000555,
                    "velocity": 0.30708661417322836,
                    "duration": 0.06598237499997595
                },
                {
                    "name": "C#4",
                    "midi": 61,
                    "time": 300.52772400000555,
                    "velocity": 0.3543307086614173,
                    "duration": 0.06598237499997595
                },
                {
                    "name": "G#3",
                    "midi": 56,
                    "time": 300.70367700000554,
                    "velocity": 0.36220472440944884,
                    "duration": 0.06598237499997595
                },
                {
                    "name": "B3",
                    "midi": 59,
                    "time": 300.87963000000553,
                    "velocity": 0.33070866141732286,
                    "duration": 0.06598237499997595
                },
                {
                    "name": "G#3",
                    "midi": 56,
                    "time": 301.0555830000055,
                    "velocity": 0.3779527559055118,
                    "duration": 0.06598237499997595
                },
                {
                    "name": "B3",
                    "midi": 59,
                    "time": 301.0555830000055,
                    "velocity": 0.4094488188976378,
                    "duration": 0.06598237499997595
                },
                {
                    "name": "D#3",
                    "midi": 51,
                    "time": 301.4074890000055,
                    "velocity": 0.3464566929133858,
                    "duration": 0.06598237499997595
                },
                {
                    "name": "D#4",
                    "midi": 63,
                    "time": 301.4074890000055,
                    "velocity": 0.4094488188976378,
                    "duration": 0.06598237499997595
                },
                {
                    "name": "E3",
                    "midi": 52,
                    "time": 301.5834420000055,
                    "velocity": 0.3228346456692913,
                    "duration": 0.06598237499997595
                },
                {
                    "name": "E4",
                    "midi": 64,
                    "time": 301.5834420000055,
                    "velocity": 0.3858267716535433,
                    "duration": 0.06598237499997595
                },
                {
                    "name": "C#3",
                    "midi": 49,
                    "time": 301.7593950000055,
                    "velocity": 0.3228346456692913,
                    "duration": 0.06598237499997595
                },
                {
                    "name": "C#4",
                    "midi": 61,
                    "time": 301.7593950000055,
                    "velocity": 0.3858267716535433,
                    "duration": 0.06598237499997595
                },
                {
                    "name": "D#3",
                    "midi": 51,
                    "time": 301.9353480000055,
                    "velocity": 0.3228346456692913,
                    "duration": 0.06598237499997595
                },
                {
                    "name": "D#4",
                    "midi": 63,
                    "time": 301.9353480000055,
                    "velocity": 0.3858267716535433,
                    "duration": 0.06598237499997595
                },
                {
                    "name": "B2",
                    "midi": 47,
                    "time": 302.1113010000055,
                    "velocity": 0.3464566929133858,
                    "duration": 0.06598237499997595
                },
                {
                    "name": "B3",
                    "midi": 59,
                    "time": 302.1113010000055,
                    "velocity": 0.4094488188976378,
                    "duration": 0.06598237499997595
                },
                {
                    "name": "C#3",
                    "midi": 49,
                    "time": 302.2872540000055,
                    "velocity": 0.3228346456692913,
                    "duration": 0.06598237499997595
                },
                {
                    "name": "C#4",
                    "midi": 61,
                    "time": 302.2872540000055,
                    "velocity": 0.3858267716535433,
                    "duration": 0.06598237499997595
                },
                {
                    "name": "A2",
                    "midi": 45,
                    "time": 302.46320700000547,
                    "velocity": 0.3228346456692913,
                    "duration": 0.06598237499997595
                },
                {
                    "name": "A3",
                    "midi": 57,
                    "time": 302.46320700000547,
                    "velocity": 0.3858267716535433,
                    "duration": 0.06598237499997595
                },
                {
                    "name": "B2",
                    "midi": 47,
                    "time": 302.63916000000546,
                    "velocity": 0.3228346456692913,
                    "duration": 0.06598237499997595
                },
                {
                    "name": "B3",
                    "midi": 59,
                    "time": 302.63916000000546,
                    "velocity": 0.3858267716535433,
                    "duration": 0.06598237499997595
                },
                {
                    "name": "G2",
                    "midi": 43,
                    "time": 302.81511300000545,
                    "velocity": 0.3779527559055118,
                    "duration": 0.3519059999999854
                },
                {
                    "name": "G3",
                    "midi": 55,
                    "time": 302.81511300000545,
                    "velocity": 0.44881889763779526,
                    "duration": 0.3519059999999854
                },
                {
                    "name": "G#2",
                    "midi": 44,
                    "time": 303.16701900000544,
                    "velocity": 0.3228346456692913,
                    "duration": 0.3519059999999854
                },
                {
                    "name": "G#3",
                    "midi": 56,
                    "time": 303.16701900000544,
                    "velocity": 0.3858267716535433,
                    "duration": 0.3519059999999854
                },
                {
                    "name": "D#2",
                    "midi": 39,
                    "time": 303.5189250000054,
                    "velocity": 0.3464566929133858,
                    "duration": 0.06598237499997595
                },
                {
                    "name": "D#3",
                    "midi": 51,
                    "time": 303.5189250000054,
                    "velocity": 0.4094488188976378,
                    "duration": 0.06598237499997595
                },
                {
                    "name": "G2",
                    "midi": 43,
                    "time": 303.6948780000054,
                    "velocity": 0.31496062992125984,
                    "duration": 0.06598237499997595
                },
                {
                    "name": "G3",
                    "midi": 55,
                    "time": 303.6948780000054,
                    "velocity": 0.3779527559055118,
                    "duration": 0.06598237499997595
                },
                {
                    "name": "A#2",
                    "midi": 46,
                    "time": 303.8708310000054,
                    "velocity": 0.31496062992125984,
                    "duration": 0.06598237499997595
                },
                {
                    "name": "A#3",
                    "midi": 58,
                    "time": 303.8708310000054,
                    "velocity": 0.3779527559055118,
                    "duration": 0.06598237499997595
                },
                {
                    "name": "D3",
                    "midi": 50,
                    "time": 304.0467840000054,
                    "velocity": 0.31496062992125984,
                    "duration": 0.06598237499997595
                },
                {
                    "name": "D4",
                    "midi": 62,
                    "time": 304.0467840000054,
                    "velocity": 0.3779527559055118,
                    "duration": 0.06598237499997595
                },
                {
                    "name": "D#3",
                    "midi": 51,
                    "time": 304.2227370000054,
                    "velocity": 0.36220472440944884,
                    "duration": 0.06598237499997595
                },
                {
                    "name": "D#4",
                    "midi": 63,
                    "time": 304.2227370000054,
                    "velocity": 0.4251968503937008,
                    "duration": 0.06598237499997595
                },
                {
                    "name": "E3",
                    "midi": 52,
                    "time": 304.3986900000054,
                    "velocity": 0.33858267716535434,
                    "duration": 0.06598237499997595
                },
                {
                    "name": "E4",
                    "midi": 64,
                    "time": 304.3986900000054,
                    "velocity": 0.4015748031496063,
                    "duration": 0.06598237499997595
                },
                {
                    "name": "C#3",
                    "midi": 49,
                    "time": 304.5746430000054,
                    "velocity": 0.33858267716535434,
                    "duration": 0.06598237499997595
                },
                {
                    "name": "C#4",
                    "midi": 61,
                    "time": 304.5746430000054,
                    "velocity": 0.4015748031496063,
                    "duration": 0.06598237499997595
                },
                {
                    "name": "D#3",
                    "midi": 51,
                    "time": 304.7505960000054,
                    "velocity": 0.33858267716535434,
                    "duration": 0.06598237499997595
                },
                {
                    "name": "D#4",
                    "midi": 63,
                    "time": 304.7505960000054,
                    "velocity": 0.4015748031496063,
                    "duration": 0.06598237499997595
                },
                {
                    "name": "B2",
                    "midi": 47,
                    "time": 304.92654900000537,
                    "velocity": 0.36220472440944884,
                    "duration": 0.06598237499997595
                },
                {
                    "name": "B3",
                    "midi": 59,
                    "time": 304.92654900000537,
                    "velocity": 0.4251968503937008,
                    "duration": 0.06598237499997595
                },
                {
                    "name": "C#3",
                    "midi": 49,
                    "time": 305.10250200000536,
                    "velocity": 0.33858267716535434,
                    "duration": 0.06598237499997595
                },
                {
                    "name": "C#4",
                    "midi": 61,
                    "time": 305.10250200000536,
                    "velocity": 0.4015748031496063,
                    "duration": 0.06598237499997595
                },
                {
                    "name": "A2",
                    "midi": 45,
                    "time": 305.27845500000535,
                    "velocity": 0.33858267716535434,
                    "duration": 0.06598237499997595
                },
                {
                    "name": "A3",
                    "midi": 57,
                    "time": 305.27845500000535,
                    "velocity": 0.4015748031496063,
                    "duration": 0.06598237499997595
                },
                {
                    "name": "B2",
                    "midi": 47,
                    "time": 305.45440800000534,
                    "velocity": 0.33858267716535434,
                    "duration": 0.06598237499997595
                },
                {
                    "name": "B3",
                    "midi": 59,
                    "time": 305.45440800000534,
                    "velocity": 0.4015748031496063,
                    "duration": 0.06598237499997595
                },
                {
                    "name": "G2",
                    "midi": 43,
                    "time": 305.63036100000534,
                    "velocity": 0.3779527559055118,
                    "duration": 0.06598237499997595
                },
                {
                    "name": "G3",
                    "midi": 55,
                    "time": 305.63036100000534,
                    "velocity": 0.4409448818897638,
                    "duration": 0.06598237499997595
                },
                {
                    "name": "A2",
                    "midi": 45,
                    "time": 305.80631400000533,
                    "velocity": 0.3543307086614173,
                    "duration": 0.06598237499997595
                },
                {
                    "name": "A3",
                    "midi": 57,
                    "time": 305.80631400000533,
                    "velocity": 0.41732283464566927,
                    "duration": 0.06598237499997595
                },
                {
                    "name": "F2",
                    "midi": 41,
                    "time": 305.9822670000053,
                    "velocity": 0.3543307086614173,
                    "duration": 0.06598237499997595
                },
                {
                    "name": "F3",
                    "midi": 53,
                    "time": 305.9822670000053,
                    "velocity": 0.41732283464566927,
                    "duration": 0.06598237499997595
                },
                {
                    "name": "G2",
                    "midi": 43,
                    "time": 306.1582200000053,
                    "velocity": 0.3543307086614173,
                    "duration": 0.06598237499997595
                },
                {
                    "name": "G3",
                    "midi": 55,
                    "time": 306.1582200000053,
                    "velocity": 0.41732283464566927,
                    "duration": 0.06598237499997595
                },
                {
                    "name": "D#2",
                    "midi": 39,
                    "time": 306.3341730000053,
                    "velocity": 0.3779527559055118,
                    "duration": 0.06598237499997595
                },
                {
                    "name": "D#3",
                    "midi": 51,
                    "time": 306.3341730000053,
                    "velocity": 0.4409448818897638,
                    "duration": 0.06598237499997595
                },
                {
                    "name": "F2",
                    "midi": 41,
                    "time": 306.5101260000053,
                    "velocity": 0.3543307086614173,
                    "duration": 0.06598237499997595
                },
                {
                    "name": "F3",
                    "midi": 53,
                    "time": 306.5101260000053,
                    "velocity": 0.41732283464566927,
                    "duration": 0.06598237499997595
                },
                {
                    "name": "C#2",
                    "midi": 37,
                    "time": 306.6860790000053,
                    "velocity": 0.3543307086614173,
                    "duration": 0.06598237499997595
                },
                {
                    "name": "C#3",
                    "midi": 49,
                    "time": 306.6860790000053,
                    "velocity": 0.41732283464566927,
                    "duration": 0.06598237499997595
                },
                {
                    "name": "D#2",
                    "midi": 39,
                    "time": 306.8620320000053,
                    "velocity": 0.3543307086614173,
                    "duration": 0.06598237499997595
                },
                {
                    "name": "D#3",
                    "midi": 51,
                    "time": 306.8620320000053,
                    "velocity": 0.41732283464566927,
                    "duration": 0.06598237499997595
                },
                {
                    "name": "C2",
                    "midi": 36,
                    "time": 307.0379850000053,
                    "velocity": 0.5275590551181102,
                    "duration": 0.3519059999999854
                },
                {
                    "name": "C3",
                    "midi": 48,
                    "time": 307.21393800000527,
                    "velocity": 0.4330708661417323,
                    "duration": 0.06598237499997595
                },
                {
                    "name": "B1",
                    "midi": 35,
                    "time": 307.38989100000526,
                    "velocity": 0.5039370078740157,
                    "duration": 0.3519059999999854
                },
                {
                    "name": "B2",
                    "midi": 47,
                    "time": 307.56584400000526,
                    "velocity": 0.4330708661417323,
                    "duration": 0.06598237499997595
                },
                {
                    "name": "A1",
                    "midi": 33,
                    "time": 307.74179700000525,
                    "velocity": 0.5511811023622047,
                    "duration": 0.3519059999999854
                },
                {
                    "name": "A2",
                    "midi": 45,
                    "time": 307.91775000000524,
                    "velocity": 0.4330708661417323,
                    "duration": 0.06598237499997595
                },
                {
                    "name": "G1",
                    "midi": 31,
                    "time": 308.09370300000523,
                    "velocity": 0.5275590551181102,
                    "duration": 0.3519059999999854
                },
                {
                    "name": "G2",
                    "midi": 43,
                    "time": 308.2696560000052,
                    "velocity": 0.4409448818897638,
                    "duration": 0.06598237499997595
                },
                {
                    "name": "C2",
                    "midi": 36,
                    "time": 308.4456090000052,
                    "velocity": 0.5354330708661418,
                    "duration": 0.3519059999999854
                },
                {
                    "name": "C3",
                    "midi": 48,
                    "time": 308.6215620000052,
                    "velocity": 0.4409448818897638,
                    "duration": 0.06598237499997595
                },
                {
                    "name": "D2",
                    "midi": 38,
                    "time": 308.7975150000052,
                    "velocity": 0.5118110236220472,
                    "duration": 0.3519059999999854
                },
                {
                    "name": "D3",
                    "midi": 50,
                    "time": 308.9734680000052,
                    "velocity": 0.4409448818897638,
                    "duration": 0.06598237499997595
                },
                {
                    "name": "E2",
                    "midi": 40,
                    "time": 309.1494210000052,
                    "velocity": 0.5669291338582677,
                    "duration": 0.7038119999999708
                },
                {
                    "name": "E3",
                    "midi": 52,
                    "time": 309.3253740000052,
                    "velocity": 0.5905511811023622,
                    "duration": 0.5278589999999781
                },
                {
                    "name": "C2",
                    "midi": 36,
                    "time": 309.85323300000516,
                    "velocity": 0.4566929133858268,
                    "duration": 0.06598237499997595
                },
                {
                    "name": "C3",
                    "midi": 48,
                    "time": 309.85323300000516,
                    "velocity": 0.5511811023622047,
                    "duration": 0.06598237499997595
                },
                {
                    "name": "C3",
                    "midi": 48,
                    "time": 310.02918600000515,
                    "velocity": 0.3779527559055118,
                    "duration": 0.06598237499997595
                },
                {
                    "name": "C4",
                    "midi": 60,
                    "time": 310.02918600000515,
                    "velocity": 0.44881889763779526,
                    "duration": 0.06598237499997595
                },
                {
                    "name": "B1",
                    "midi": 35,
                    "time": 310.20513900000515,
                    "velocity": 0.4409448818897638,
                    "duration": 0.06598237499997595
                },
                {
                    "name": "B2",
                    "midi": 47,
                    "time": 310.20513900000515,
                    "velocity": 0.5275590551181102,
                    "duration": 0.06598237499997595
                },
                {
                    "name": "B3",
                    "midi": 59,
                    "time": 310.38109200000514,
                    "velocity": 0.44881889763779526,
                    "duration": 0.06598237499997595
                },
                {
                    "name": "B2",
                    "midi": 47,
                    "time": 310.38109200000514,
                    "velocity": 0.3779527559055118,
                    "duration": 0.06598237499997595
                },
                {
                    "name": "A2",
                    "midi": 45,
                    "time": 310.55704500000513,
                    "velocity": 0.5826771653543307,
                    "duration": 0.06598237499997595
                },
                {
                    "name": "A1",
                    "midi": 33,
                    "time": 310.55704500000513,
                    "velocity": 0.4881889763779528,
                    "duration": 0.06598237499997595
                },
                {
                    "name": "A3",
                    "midi": 57,
                    "time": 310.7329980000051,
                    "velocity": 0.4566929133858268,
                    "duration": 0.06598237499997595
                },
                {
                    "name": "A2",
                    "midi": 45,
                    "time": 310.7329980000051,
                    "velocity": 0.3779527559055118,
                    "duration": 0.06598237499997595
                },
                {
                    "name": "G2",
                    "midi": 43,
                    "time": 310.9089510000051,
                    "velocity": 0.5590551181102362,
                    "duration": 0.06598237499997595
                },
                {
                    "name": "G1",
                    "midi": 31,
                    "time": 310.9089510000051,
                    "velocity": 0.4645669291338583,
                    "duration": 0.06598237499997595
                },
                {
                    "name": "G3",
                    "midi": 55,
                    "time": 311.0849040000051,
                    "velocity": 0.4566929133858268,
                    "duration": 0.06598237499997595
                },
                {
                    "name": "G2",
                    "midi": 43,
                    "time": 311.0849040000051,
                    "velocity": 0.3858267716535433,
                    "duration": 0.06598237499997595
                },
                {
                    "name": "C2",
                    "midi": 36,
                    "time": 311.2608570000051,
                    "velocity": 0.4645669291338583,
                    "duration": 0.06598237499997595
                },
                {
                    "name": "C3",
                    "midi": 48,
                    "time": 311.2608570000051,
                    "velocity": 0.5590551181102362,
                    "duration": 0.06598237499997595
                },
                {
                    "name": "C3",
                    "midi": 48,
                    "time": 311.4368100000051,
                    "velocity": 0.3858267716535433,
                    "duration": 0.06598237499997595
                },
                {
                    "name": "C4",
                    "midi": 60,
                    "time": 311.4368100000051,
                    "velocity": 0.4566929133858268,
                    "duration": 0.06598237499997595
                },
                {
                    "name": "D2",
                    "midi": 38,
                    "time": 311.6127630000051,
                    "velocity": 0.4566929133858268,
                    "duration": 0.06598237499997595
                },
                {
                    "name": "D3",
                    "midi": 50,
                    "time": 311.6127630000051,
                    "velocity": 0.5433070866141733,
                    "duration": 0.06598237499997595
                },
                {
                    "name": "D4",
                    "midi": 62,
                    "time": 311.7887160000051,
                    "velocity": 0.4645669291338583,
                    "duration": 0.06598237499997595
                },
                {
                    "name": "D3",
                    "midi": 50,
                    "time": 311.7887160000051,
                    "velocity": 0.3858267716535433,
                    "duration": 0.06598237499997595
                },
                {
                    "name": "E3",
                    "midi": 52,
                    "time": 311.9646690000051,
                    "velocity": 0.5905511811023622,
                    "duration": 0.06598237499997595
                },
                {
                    "name": "E2",
                    "midi": 40,
                    "time": 311.9646690000051,
                    "velocity": 0.49606299212598426,
                    "duration": 0.06598237499997595
                },
                {
                    "name": "E4",
                    "midi": 64,
                    "time": 312.14062200000507,
                    "velocity": 0.6299212598425197,
                    "duration": 0.5278589999999781
                },
                {
                    "name": "E3",
                    "midi": 52,
                    "time": 312.14062200000507,
                    "velocity": 0.5118110236220472,
                    "duration": 0.5278589999999781
                },
                {
                    "name": "A1",
                    "midi": 33,
                    "time": 312.66848100000504,
                    "velocity": 0.48031496062992124,
                    "duration": 0.06598237499997595
                },
                {
                    "name": "A2",
                    "midi": 45,
                    "time": 312.66848100000504,
                    "velocity": 0.5748031496062992,
                    "duration": 0.06598237499997595
                },
                {
                    "name": "A2",
                    "midi": 45,
                    "time": 312.84443400000504,
                    "velocity": 0.3937007874015748,
                    "duration": 0.06598237499997595
                },
                {
                    "name": "A3",
                    "midi": 57,
                    "time": 312.84443400000504,
                    "velocity": 0.47244094488188976,
                    "duration": 0.06598237499997595
                },
                {
                    "name": "G#1",
                    "midi": 32,
                    "time": 313.02038700000503,
                    "velocity": 0.4645669291338583,
                    "duration": 0.06598237499997595
                },
                {
                    "name": "G#2",
                    "midi": 44,
                    "time": 313.02038700000503,
                    "velocity": 0.5511811023622047,
                    "duration": 0.06598237499997595
                },
                {
                    "name": "G#3",
                    "midi": 56,
                    "time": 313.196340000005,
                    "velocity": 0.47244094488188976,
                    "duration": 0.06598237499997595
                },
                {
                    "name": "G#2",
                    "midi": 44,
                    "time": 313.196340000005,
                    "velocity": 0.3937007874015748,
                    "duration": 0.06598237499997595
                },
                {
                    "name": "F#2",
                    "midi": 42,
                    "time": 313.372293000005,
                    "velocity": 0.6062992125984252,
                    "duration": 0.06598237499997595
                },
                {
                    "name": "F#1",
                    "midi": 30,
                    "time": 313.372293000005,
                    "velocity": 0.5039370078740157,
                    "duration": 0.06598237499997595
                },
                {
                    "name": "F#3",
                    "midi": 54,
                    "time": 313.548246000005,
                    "velocity": 0.47244094488188976,
                    "duration": 0.06598237499997595
                },
                {
                    "name": "F#2",
                    "midi": 42,
                    "time": 313.548246000005,
                    "velocity": 0.3937007874015748,
                    "duration": 0.06598237499997595
                },
                {
                    "name": "E2",
                    "midi": 40,
                    "time": 313.724199000005,
                    "velocity": 0.5748031496062992,
                    "duration": 0.06598237499997595
                },
                {
                    "name": "E1",
                    "midi": 28,
                    "time": 313.724199000005,
                    "velocity": 0.48031496062992124,
                    "duration": 0.06598237499997595
                },
                {
                    "name": "E3",
                    "midi": 52,
                    "time": 313.900152000005,
                    "velocity": 0.47244094488188976,
                    "duration": 0.06598237499997595
                },
                {
                    "name": "E2",
                    "midi": 40,
                    "time": 313.900152000005,
                    "velocity": 0.3937007874015748,
                    "duration": 0.06598237499997595
                },
                {
                    "name": "A1",
                    "midi": 33,
                    "time": 314.076105000005,
                    "velocity": 0.48031496062992124,
                    "duration": 0.06598237499997595
                },
                {
                    "name": "A2",
                    "midi": 45,
                    "time": 314.076105000005,
                    "velocity": 0.5748031496062992,
                    "duration": 0.06598237499997595
                },
                {
                    "name": "A2",
                    "midi": 45,
                    "time": 314.252058000005,
                    "velocity": 0.3937007874015748,
                    "duration": 0.06598237499997595
                },
                {
                    "name": "A3",
                    "midi": 57,
                    "time": 314.252058000005,
                    "velocity": 0.47244094488188976,
                    "duration": 0.06598237499997595
                },
                {
                    "name": "B1",
                    "midi": 35,
                    "time": 314.428011000005,
                    "velocity": 0.4645669291338583,
                    "duration": 0.06598237499997595
                },
                {
                    "name": "B2",
                    "midi": 47,
                    "time": 314.428011000005,
                    "velocity": 0.5511811023622047,
                    "duration": 0.06598237499997595
                },
                {
                    "name": "B3",
                    "midi": 59,
                    "time": 314.60396400000496,
                    "velocity": 0.47244094488188976,
                    "duration": 0.06598237499997595
                },
                {
                    "name": "B2",
                    "midi": 47,
                    "time": 314.60396400000496,
                    "velocity": 0.3937007874015748,
                    "duration": 0.06598237499997595
                },
                {
                    "name": "C#3",
                    "midi": 49,
                    "time": 314.77991700000496,
                    "velocity": 0.6062992125984252,
                    "duration": 0.06598237499997595
                },
                {
                    "name": "C#2",
                    "midi": 37,
                    "time": 314.77991700000496,
                    "velocity": 0.5039370078740157,
                    "duration": 0.06598237499997595
                },
                {
                    "name": "C#4",
                    "midi": 61,
                    "time": 314.95587000000495,
                    "velocity": 0.6377952755905512,
                    "duration": 0.5278589999999781
                },
                {
                    "name": "C#3",
                    "midi": 49,
                    "time": 314.95587000000495,
                    "velocity": 0.5196850393700787,
                    "duration": 0.5278589999999781
                },
                {
                    "name": "A1",
                    "midi": 33,
                    "time": 315.4837290000049,
                    "velocity": 0.48031496062992124,
                    "duration": 0.06598237499997595
                },
                {
                    "name": "A2",
                    "midi": 45,
                    "time": 315.4837290000049,
                    "velocity": 0.5748031496062992,
                    "duration": 0.06598237499997595
                },
                {
                    "name": "A2",
                    "midi": 45,
                    "time": 315.6596820000049,
                    "velocity": 0.3937007874015748,
                    "duration": 0.06598237499997595
                },
                {
                    "name": "A3",
                    "midi": 57,
                    "time": 315.6596820000049,
                    "velocity": 0.47244094488188976,
                    "duration": 0.06598237499997595
                },
                {
                    "name": "G#1",
                    "midi": 32,
                    "time": 315.8356350000049,
                    "velocity": 0.4645669291338583,
                    "duration": 0.06598237499997595
                },
                {
                    "name": "G#2",
                    "midi": 44,
                    "time": 315.8356350000049,
                    "velocity": 0.5511811023622047,
                    "duration": 0.06598237499997595
                },
                {
                    "name": "G#3",
                    "midi": 56,
                    "time": 316.0115880000049,
                    "velocity": 0.47244094488188976,
                    "duration": 0.06598237499997595
                },
                {
                    "name": "G#2",
                    "midi": 44,
                    "time": 316.0115880000049,
                    "velocity": 0.3937007874015748,
                    "duration": 0.06598237499997595
                },
                {
                    "name": "F#2",
                    "midi": 42,
                    "time": 316.1875410000049,
                    "velocity": 0.6062992125984252,
                    "duration": 0.06598237499997595
                },
                {
                    "name": "F#1",
                    "midi": 30,
                    "time": 316.1875410000049,
                    "velocity": 0.5039370078740157,
                    "duration": 0.06598237499997595
                },
                {
                    "name": "F#3",
                    "midi": 54,
                    "time": 316.3634940000049,
                    "velocity": 0.47244094488188976,
                    "duration": 0.06598237499997595
                },
                {
                    "name": "F#2",
                    "midi": 42,
                    "time": 316.3634940000049,
                    "velocity": 0.3937007874015748,
                    "duration": 0.06598237499997595
                },
                {
                    "name": "E2",
                    "midi": 40,
                    "time": 316.5394470000049,
                    "velocity": 0.5748031496062992,
                    "duration": 0.06598237499997595
                },
                {
                    "name": "E1",
                    "midi": 28,
                    "time": 316.5394470000049,
                    "velocity": 0.48031496062992124,
                    "duration": 0.06598237499997595
                },
                {
                    "name": "E3",
                    "midi": 52,
                    "time": 316.7154000000049,
                    "velocity": 0.47244094488188976,
                    "duration": 0.06598237499997595
                },
                {
                    "name": "E2",
                    "midi": 40,
                    "time": 316.7154000000049,
                    "velocity": 0.3937007874015748,
                    "duration": 0.06598237499997595
                },
                {
                    "name": "A1",
                    "midi": 33,
                    "time": 316.89135300000487,
                    "velocity": 0.48031496062992124,
                    "duration": 0.06598237499997595
                },
                {
                    "name": "A2",
                    "midi": 45,
                    "time": 316.89135300000487,
                    "velocity": 0.5748031496062992,
                    "duration": 0.06598237499997595
                },
                {
                    "name": "A2",
                    "midi": 45,
                    "time": 317.06730600000486,
                    "velocity": 0.3937007874015748,
                    "duration": 0.06598237499997595
                },
                {
                    "name": "A3",
                    "midi": 57,
                    "time": 317.06730600000486,
                    "velocity": 0.47244094488188976,
                    "duration": 0.06598237499997595
                },
                {
                    "name": "B1",
                    "midi": 35,
                    "time": 317.24325900000485,
                    "velocity": 0.4645669291338583,
                    "duration": 0.06598237499997595
                },
                {
                    "name": "B2",
                    "midi": 47,
                    "time": 317.24325900000485,
                    "velocity": 0.5511811023622047,
                    "duration": 0.06598237499997595
                },
                {
                    "name": "B3",
                    "midi": 59,
                    "time": 317.41921200000485,
                    "velocity": 0.47244094488188976,
                    "duration": 0.06598237499997595
                },
                {
                    "name": "B2",
                    "midi": 47,
                    "time": 317.41921200000485,
                    "velocity": 0.3937007874015748,
                    "duration": 0.06598237499997595
                },
                {
                    "name": "C#3",
                    "midi": 49,
                    "time": 317.59516500000484,
                    "velocity": 0.6062992125984252,
                    "duration": 0.06598237499997595
                },
                {
                    "name": "C#2",
                    "midi": 37,
                    "time": 317.59516500000484,
                    "velocity": 0.5039370078740157,
                    "duration": 0.06598237499997595
                },
                {
                    "name": "C#4",
                    "midi": 61,
                    "time": 317.77111800000483,
                    "velocity": 0.6377952755905512,
                    "duration": 0.48387074999999413
                },
                {
                    "name": "C#3",
                    "midi": 49,
                    "time": 317.77111800000483,
                    "velocity": 0.5196850393700787,
                    "duration": 0.48387074999999413
                },
                {
                    "name": "F#1",
                    "midi": 30,
                    "time": 318.2989770000048,
                    "velocity": 0.4330708661417323,
                    "duration": 0.3519059999999854
                },
                {
                    "name": "A#1",
                    "midi": 34,
                    "time": 318.2989770000048,
                    "velocity": 0.4330708661417323,
                    "duration": 0.3519059999999854
                },
                {
                    "name": "C#2",
                    "midi": 37,
                    "time": 318.2989770000048,
                    "velocity": 0.4330708661417323,
                    "duration": 0.3519059999999854
                },
                {
                    "name": "F#2",
                    "midi": 42,
                    "time": 318.2989770000048,
                    "velocity": 0.5118110236220472,
                    "duration": 0.3519059999999854
                },
                {
                    "name": "F1",
                    "midi": 29,
                    "time": 318.6508830000048,
                    "velocity": 0.4015748031496063,
                    "duration": 0.3519059999999854
                },
                {
                    "name": "A#1",
                    "midi": 34,
                    "time": 318.6508830000048,
                    "velocity": 0.4015748031496063,
                    "duration": 0.3519059999999854
                },
                {
                    "name": "C#2",
                    "midi": 37,
                    "time": 318.6508830000048,
                    "velocity": 0.4015748031496063,
                    "duration": 0.3519059999999854
                },
                {
                    "name": "F2",
                    "midi": 41,
                    "time": 318.6508830000048,
                    "velocity": 0.47244094488188976,
                    "duration": 0.3519059999999854
                },
                {
                    "name": "D#1",
                    "midi": 27,
                    "time": 319.0027890000048,
                    "velocity": 0.4330708661417323,
                    "duration": 0.3519059999999854
                },
                {
                    "name": "F#1",
                    "midi": 30,
                    "time": 319.0027890000048,
                    "velocity": 0.4330708661417323,
                    "duration": 0.3519059999999854
                },
                {
                    "name": "A#1",
                    "midi": 34,
                    "time": 319.0027890000048,
                    "velocity": 0.4330708661417323,
                    "duration": 0.3519059999999854
                },
                {
                    "name": "D#2",
                    "midi": 39,
                    "time": 319.0027890000048,
                    "velocity": 0.5118110236220472,
                    "duration": 0.3519059999999854
                },
                {
                    "name": "C#1",
                    "midi": 25,
                    "time": 319.35469500000477,
                    "velocity": 0.4015748031496063,
                    "duration": 0.3519059999999854
                },
                {
                    "name": "F#1",
                    "midi": 30,
                    "time": 319.35469500000477,
                    "velocity": 0.4015748031496063,
                    "duration": 0.3519059999999854
                },
                {
                    "name": "A#1",
                    "midi": 34,
                    "time": 319.35469500000477,
                    "velocity": 0.4015748031496063,
                    "duration": 0.3519059999999854
                },
                {
                    "name": "C#2",
                    "midi": 37,
                    "time": 319.35469500000477,
                    "velocity": 0.4015748031496063,
                    "duration": 0.3519059999999854
                },
                {
                    "name": "F#1",
                    "midi": 30,
                    "time": 319.70660100000475,
                    "velocity": 0.4330708661417323,
                    "duration": 0.15835770000001048
                },
                {
                    "name": "A#1",
                    "midi": 34,
                    "time": 319.70660100000475,
                    "velocity": 0.4330708661417323,
                    "duration": 0.15835770000001048
                },
                {
                    "name": "C#2",
                    "midi": 37,
                    "time": 319.70660100000475,
                    "velocity": 0.4330708661417323,
                    "duration": 0.15835770000001048
                },
                {
                    "name": "F#2",
                    "midi": 42,
                    "time": 319.70660100000475,
                    "velocity": 0.5118110236220472,
                    "duration": 0.15835770000001048
                },
                {
                    "name": "F#1",
                    "midi": 30,
                    "time": 319.88255400000475,
                    "velocity": 0.4015748031496063,
                    "duration": 0.15835770000001048
                },
                {
                    "name": "A#1",
                    "midi": 34,
                    "time": 319.88255400000475,
                    "velocity": 0.4015748031496063,
                    "duration": 0.15835770000001048
                },
                {
                    "name": "C#2",
                    "midi": 37,
                    "time": 319.88255400000475,
                    "velocity": 0.4015748031496063,
                    "duration": 0.15835770000001048
                },
                {
                    "name": "F#2",
                    "midi": 42,
                    "time": 319.88255400000475,
                    "velocity": 0.47244094488188976,
                    "duration": 0.15835770000001048
                },
                {
                    "name": "G#1",
                    "midi": 32,
                    "time": 320.05850700000474,
                    "velocity": 0.4330708661417323,
                    "duration": 0.3519059999999854
                },
                {
                    "name": "C#2",
                    "midi": 37,
                    "time": 320.05850700000474,
                    "velocity": 0.4330708661417323,
                    "duration": 0.3519059999999854
                },
                {
                    "name": "G#2",
                    "midi": 44,
                    "time": 320.05850700000474,
                    "velocity": 0.5118110236220472,
                    "duration": 0.3519059999999854
                },
                {
                    "name": "A#1",
                    "midi": 34,
                    "time": 320.4104130000047,
                    "velocity": 0.44881889763779526,
                    "duration": 0.3519059999999854
                },
                {
                    "name": "C#2",
                    "midi": 37,
                    "time": 320.4104130000047,
                    "velocity": 0.44881889763779526,
                    "duration": 0.3519059999999854
                },
                {
                    "name": "F#2",
                    "midi": 42,
                    "time": 320.4104130000047,
                    "velocity": 0.44881889763779526,
                    "duration": 0.3519059999999854
                },
                {
                    "name": "A#2",
                    "midi": 46,
                    "time": 320.4104130000047,
                    "velocity": 0.5354330708661418,
                    "duration": 0.3519059999999854
                },
                {
                    "name": "F#1",
                    "midi": 30,
                    "time": 321.1142250000047,
                    "velocity": 0.4330708661417323,
                    "duration": 0.3519059999999854
                },
                {
                    "name": "A#1",
                    "midi": 34,
                    "time": 321.1142250000047,
                    "velocity": 0.4330708661417323,
                    "duration": 0.3519059999999854
                },
                {
                    "name": "C#2",
                    "midi": 37,
                    "time": 321.1142250000047,
                    "velocity": 0.4330708661417323,
                    "duration": 0.3519059999999854
                },
                {
                    "name": "F#2",
                    "midi": 42,
                    "time": 321.1142250000047,
                    "velocity": 0.5118110236220472,
                    "duration": 0.3519059999999854
                },
                {
                    "name": "F1",
                    "midi": 29,
                    "time": 321.4661310000047,
                    "velocity": 0.4015748031496063,
                    "duration": 0.3519059999999854
                },
                {
                    "name": "A#1",
                    "midi": 34,
                    "time": 321.4661310000047,
                    "velocity": 0.4015748031496063,
                    "duration": 0.3519059999999854
                },
                {
                    "name": "C#2",
                    "midi": 37,
                    "time": 321.4661310000047,
                    "velocity": 0.4015748031496063,
                    "duration": 0.3519059999999854
                },
                {
                    "name": "F2",
                    "midi": 41,
                    "time": 321.4661310000047,
                    "velocity": 0.47244094488188976,
                    "duration": 0.3519059999999854
                },
                {
                    "name": "D#1",
                    "midi": 27,
                    "time": 321.81803700000467,
                    "velocity": 0.4330708661417323,
                    "duration": 0.3519059999999854
                },
                {
                    "name": "F#1",
                    "midi": 30,
                    "time": 321.81803700000467,
                    "velocity": 0.4330708661417323,
                    "duration": 0.3519059999999854
                },
                {
                    "name": "A#1",
                    "midi": 34,
                    "time": 321.81803700000467,
                    "velocity": 0.4330708661417323,
                    "duration": 0.3519059999999854
                },
                {
                    "name": "D#2",
                    "midi": 39,
                    "time": 321.81803700000467,
                    "velocity": 0.5118110236220472,
                    "duration": 0.3519059999999854
                },
                {
                    "name": "C#1",
                    "midi": 25,
                    "time": 322.16994300000465,
                    "velocity": 0.4015748031496063,
                    "duration": 0.3519059999999854
                },
                {
                    "name": "F#1",
                    "midi": 30,
                    "time": 322.16994300000465,
                    "velocity": 0.4015748031496063,
                    "duration": 0.3519059999999854
                },
                {
                    "name": "A#1",
                    "midi": 34,
                    "time": 322.16994300000465,
                    "velocity": 0.4015748031496063,
                    "duration": 0.3519059999999854
                },
                {
                    "name": "C#2",
                    "midi": 37,
                    "time": 322.16994300000465,
                    "velocity": 0.4015748031496063,
                    "duration": 0.3519059999999854
                },
                {
                    "name": "F#1",
                    "midi": 30,
                    "time": 322.52184900000464,
                    "velocity": 0.4330708661417323,
                    "duration": 0.15835770000001048
                },
                {
                    "name": "A#1",
                    "midi": 34,
                    "time": 322.52184900000464,
                    "velocity": 0.4330708661417323,
                    "duration": 0.15835770000001048
                },
                {
                    "name": "C#2",
                    "midi": 37,
                    "time": 322.52184900000464,
                    "velocity": 0.4330708661417323,
                    "duration": 0.15835770000001048
                },
                {
                    "name": "F#2",
                    "midi": 42,
                    "time": 322.52184900000464,
                    "velocity": 0.5118110236220472,
                    "duration": 0.15835770000001048
                },
                {
                    "name": "F#1",
                    "midi": 30,
                    "time": 322.69780200000463,
                    "velocity": 0.4015748031496063,
                    "duration": 0.15835770000001048
                },
                {
                    "name": "A#1",
                    "midi": 34,
                    "time": 322.69780200000463,
                    "velocity": 0.4015748031496063,
                    "duration": 0.15835770000001048
                },
                {
                    "name": "C#2",
                    "midi": 37,
                    "time": 322.69780200000463,
                    "velocity": 0.4015748031496063,
                    "duration": 0.15835770000001048
                },
                {
                    "name": "F#2",
                    "midi": 42,
                    "time": 322.69780200000463,
                    "velocity": 0.47244094488188976,
                    "duration": 0.15835770000001048
                },
                {
                    "name": "G#1",
                    "midi": 32,
                    "time": 322.8737550000046,
                    "velocity": 0.4330708661417323,
                    "duration": 0.3519059999999854
                },
                {
                    "name": "C#2",
                    "midi": 37,
                    "time": 322.8737550000046,
                    "velocity": 0.4330708661417323,
                    "duration": 0.3519059999999854
                },
                {
                    "name": "G#2",
                    "midi": 44,
                    "time": 322.8737550000046,
                    "velocity": 0.5118110236220472,
                    "duration": 0.3519059999999854
                },
                {
                    "name": "A#1",
                    "midi": 34,
                    "time": 323.2256610000046,
                    "velocity": 0.44881889763779526,
                    "duration": 0.3519059999999854
                },
                {
                    "name": "C#2",
                    "midi": 37,
                    "time": 323.2256610000046,
                    "velocity": 0.44881889763779526,
                    "duration": 0.3519059999999854
                },
                {
                    "name": "F#2",
                    "midi": 42,
                    "time": 323.2256610000046,
                    "velocity": 0.44881889763779526,
                    "duration": 0.3519059999999854
                },
                {
                    "name": "A#2",
                    "midi": 46,
                    "time": 323.2256610000046,
                    "velocity": 0.5354330708661418,
                    "duration": 0.3519059999999854
                },
                {
                    "name": "F#2",
                    "midi": 42,
                    "time": 323.9294730000046,
                    "velocity": 0.4881889763779528,
                    "duration": 0.5278589999999781
                },
                {
                    "name": "A#2",
                    "midi": 46,
                    "time": 323.9294730000046,
                    "velocity": 0.4881889763779528,
                    "duration": 0.5278589999999781
                },
                {
                    "name": "C#3",
                    "midi": 49,
                    "time": 323.9294730000046,
                    "velocity": 0.4881889763779528,
                    "duration": 0.5278589999999781
                },
                {
                    "name": "F#3",
                    "midi": 54,
                    "time": 323.9294730000046,
                    "velocity": 0.5748031496062992,
                    "duration": 0.5278589999999781
                },
                {
                    "name": "F#2",
                    "midi": 42,
                    "time": 324.45733200000456,
                    "velocity": 0.44881889763779526,
                    "duration": 0.1759529999999927
                },
                {
                    "name": "A#2",
                    "midi": 46,
                    "time": 324.45733200000456,
                    "velocity": 0.44881889763779526,
                    "duration": 0.1759529999999927
                },
                {
                    "name": "C#3",
                    "midi": 49,
                    "time": 324.45733200000456,
                    "velocity": 0.44881889763779526,
                    "duration": 0.1759529999999927
                },
                {
                    "name": "F#3",
                    "midi": 54,
                    "time": 324.45733200000456,
                    "velocity": 0.5354330708661418,
                    "duration": 0.1759529999999927
                },
                {
                    "name": "B2",
                    "midi": 47,
                    "time": 324.63328500000455,
                    "velocity": 0.4881889763779528,
                    "duration": 0.3519059999999854
                },
                {
                    "name": "D#3",
                    "midi": 51,
                    "time": 324.63328500000455,
                    "velocity": 0.4881889763779528,
                    "duration": 0.3519059999999854
                },
                {
                    "name": "F#3",
                    "midi": 54,
                    "time": 324.63328500000455,
                    "velocity": 0.4881889763779528,
                    "duration": 0.3519059999999854
                },
                {
                    "name": "B3",
                    "midi": 59,
                    "time": 324.63328500000455,
                    "velocity": 0.5748031496062992,
                    "duration": 0.3519059999999854
                },
                {
                    "name": "F#2",
                    "midi": 42,
                    "time": 324.98519100000453,
                    "velocity": 0.4645669291338583,
                    "duration": 0.3519059999999854
                },
                {
                    "name": "A#2",
                    "midi": 46,
                    "time": 324.98519100000453,
                    "velocity": 0.4645669291338583,
                    "duration": 0.3519059999999854
                },
                {
                    "name": "C#3",
                    "midi": 49,
                    "time": 324.98519100000453,
                    "velocity": 0.4645669291338583,
                    "duration": 0.3519059999999854
                },
                {
                    "name": "F#3",
                    "midi": 54,
                    "time": 324.98519100000453,
                    "velocity": 0.5511811023622047,
                    "duration": 0.3519059999999854
                },
                {
                    "name": "A#1",
                    "midi": 34,
                    "time": 325.3370970000045,
                    "velocity": 0.4881889763779528,
                    "duration": 0.5278589999999781
                },
                {
                    "name": "A#2",
                    "midi": 46,
                    "time": 325.3370970000045,
                    "velocity": 0.5826771653543307,
                    "duration": 0.5278589999999781
                },
                {
                    "name": "D2",
                    "midi": 38,
                    "time": 325.8649560000045,
                    "velocity": 0.4409448818897638,
                    "duration": 0.1759529999999927
                },
                {
                    "name": "A#2",
                    "midi": 46,
                    "time": 325.8649560000045,
                    "velocity": 0.5275590551181102,
                    "duration": 0.1759529999999927
                },
                {
                    "name": "D#2",
                    "midi": 39,
                    "time": 326.0409090000045,
                    "velocity": 0.48031496062992124,
                    "duration": 0.08797650000002477
                },
                {
                    "name": "A#2",
                    "midi": 46,
                    "time": 326.0409090000045,
                    "velocity": 0.5669291338582677,
                    "duration": 0.08797650000002477
                },
                {
                    "name": "F2",
                    "midi": 41,
                    "time": 326.21686200000454,
                    "velocity": 0.4566929133858268,
                    "duration": 0.08797650000002477
                },
                {
                    "name": "A#2",
                    "midi": 46,
                    "time": 326.21686200000454,
                    "velocity": 0.5433070866141733,
                    "duration": 0.08797650000002477
                },
                {
                    "name": "F#2",
                    "midi": 42,
                    "time": 326.3928150000046,
                    "velocity": 0.4566929133858268,
                    "duration": 0.1759529999999927
                },
                {
                    "name": "A#2",
                    "midi": 46,
                    "time": 326.3928150000046,
                    "velocity": 0.5433070866141733,
                    "duration": 0.1759529999999927
                },
                {
                    "name": "F#3",
                    "midi": 54,
                    "time": 326.7447210000046,
                    "velocity": 0.5196850393700787,
                    "duration": 0.3519059999999854
                },
                {
                    "name": "A#3",
                    "midi": 58,
                    "time": 326.7447210000046,
                    "velocity": 0.6141732283464567,
                    "duration": 0.3519059999999854
                },
                {
                    "name": "G#3",
                    "midi": 56,
                    "time": 327.09662700000456,
                    "velocity": 0.4566929133858268,
                    "duration": 0.08797650000002477
                },
                {
                    "name": "B3",
                    "midi": 59,
                    "time": 327.09662700000456,
                    "velocity": 0.5433070866141733,
                    "duration": 0.08797650000002477
                },
                {
                    "name": "F#3",
                    "midi": 54,
                    "time": 327.2725800000046,
                    "velocity": 0.4566929133858268,
                    "duration": 0.08797650000002477
                },
                {
                    "name": "A#3",
                    "midi": 58,
                    "time": 327.2725800000046,
                    "velocity": 0.5433070866141733,
                    "duration": 0.08797650000002477
                },
                {
                    "name": "F3",
                    "midi": 53,
                    "time": 327.44853300000466,
                    "velocity": 0.4881889763779528,
                    "duration": 0.08797650000002477
                },
                {
                    "name": "G#3",
                    "midi": 56,
                    "time": 327.44853300000466,
                    "velocity": 0.5826771653543307,
                    "duration": 0.08797650000002477
                },
                {
                    "name": "D#3",
                    "midi": 51,
                    "time": 327.6244860000047,
                    "velocity": 0.4566929133858268,
                    "duration": 0.08797650000002477
                },
                {
                    "name": "F#3",
                    "midi": 54,
                    "time": 327.6244860000047,
                    "velocity": 0.5433070866141733,
                    "duration": 0.08797650000002477
                },
                {
                    "name": "A#2",
                    "midi": 46,
                    "time": 327.80043900000476,
                    "velocity": 0.4566929133858268,
                    "duration": 0.1759529999999927
                },
                {
                    "name": "F3",
                    "midi": 53,
                    "time": 327.80043900000476,
                    "velocity": 0.5433070866141733,
                    "duration": 0.1759529999999927
                },
                {
                    "name": "D#2",
                    "midi": 39,
                    "time": 328.15234500000474,
                    "velocity": 0.5039370078740157,
                    "duration": 0.1759529999999927
                },
                {
                    "name": "A#2",
                    "midi": 46,
                    "time": 328.15234500000474,
                    "velocity": 0.5039370078740157,
                    "duration": 0.1759529999999927
                },
                {
                    "name": "D#3",
                    "midi": 51,
                    "time": 328.15234500000474,
                    "velocity": 0.5984251968503937,
                    "duration": 0.1759529999999927
                },
                {
                    "name": "F#2",
                    "midi": 42,
                    "time": 328.8561570000047,
                    "velocity": 0.4881889763779528,
                    "duration": 0.5278589999999781
                },
                {
                    "name": "A#2",
                    "midi": 46,
                    "time": 328.8561570000047,
                    "velocity": 0.4881889763779528,
                    "duration": 0.5278589999999781
                },
                {
                    "name": "C#3",
                    "midi": 49,
                    "time": 328.8561570000047,
                    "velocity": 0.4881889763779528,
                    "duration": 0.5278589999999781
                },
                {
                    "name": "F#3",
                    "midi": 54,
                    "time": 328.8561570000047,
                    "velocity": 0.5748031496062992,
                    "duration": 0.5278589999999781
                },
                {
                    "name": "F#2",
                    "midi": 42,
                    "time": 329.3840160000047,
                    "velocity": 0.44881889763779526,
                    "duration": 0.1759529999999927
                },
                {
                    "name": "A#2",
                    "midi": 46,
                    "time": 329.3840160000047,
                    "velocity": 0.44881889763779526,
                    "duration": 0.1759529999999927
                },
                {
                    "name": "C#3",
                    "midi": 49,
                    "time": 329.3840160000047,
                    "velocity": 0.44881889763779526,
                    "duration": 0.1759529999999927
                },
                {
                    "name": "F#3",
                    "midi": 54,
                    "time": 329.3840160000047,
                    "velocity": 0.5354330708661418,
                    "duration": 0.1759529999999927
                },
                {
                    "name": "B2",
                    "midi": 47,
                    "time": 329.5599690000047,
                    "velocity": 0.4881889763779528,
                    "duration": 0.3519059999999854
                },
                {
                    "name": "D#3",
                    "midi": 51,
                    "time": 329.5599690000047,
                    "velocity": 0.4881889763779528,
                    "duration": 0.3519059999999854
                },
                {
                    "name": "F#3",
                    "midi": 54,
                    "time": 329.5599690000047,
                    "velocity": 0.4881889763779528,
                    "duration": 0.3519059999999854
                },
                {
                    "name": "B3",
                    "midi": 59,
                    "time": 329.5599690000047,
                    "velocity": 0.5748031496062992,
                    "duration": 0.3519059999999854
                },
                {
                    "name": "F#2",
                    "midi": 42,
                    "time": 329.91187500000467,
                    "velocity": 0.4645669291338583,
                    "duration": 0.3519059999999854
                },
                {
                    "name": "A#2",
                    "midi": 46,
                    "time": 329.91187500000467,
                    "velocity": 0.4645669291338583,
                    "duration": 0.3519059999999854
                },
                {
                    "name": "C#3",
                    "midi": 49,
                    "time": 329.91187500000467,
                    "velocity": 0.4645669291338583,
                    "duration": 0.3519059999999854
                },
                {
                    "name": "F#3",
                    "midi": 54,
                    "time": 329.91187500000467,
                    "velocity": 0.5511811023622047,
                    "duration": 0.3519059999999854
                },
                {
                    "name": "A#1",
                    "midi": 34,
                    "time": 330.26378100000466,
                    "velocity": 0.4881889763779528,
                    "duration": 0.5278589999999781
                },
                {
                    "name": "A#2",
                    "midi": 46,
                    "time": 330.26378100000466,
                    "velocity": 0.5826771653543307,
                    "duration": 0.5278589999999781
                },
                {
                    "name": "A#2",
                    "midi": 46,
                    "time": 330.79164000000463,
                    "velocity": 0.4409448818897638,
                    "duration": 0.1759529999999927
                },
                {
                    "name": "D2",
                    "midi": 38,
                    "time": 330.79164000000463,
                    "velocity": 0.4409448818897638,
                    "duration": 0.1759529999999927
                },
                {
                    "name": "D3",
                    "midi": 50,
                    "time": 330.79164000000463,
                    "velocity": 0.5275590551181102,
                    "duration": 0.1759529999999927
                },
                {
                    "name": "A#2",
                    "midi": 46,
                    "time": 330.9675930000046,
                    "velocity": 0.48031496062992124,
                    "duration": 0.08797650000002477
                },
                {
                    "name": "D#2",
                    "midi": 39,
                    "time": 330.9675930000046,
                    "velocity": 0.48031496062992124,
                    "duration": 0.08797650000002477
                },
                {
                    "name": "D#3",
                    "midi": 51,
                    "time": 330.9675930000046,
                    "velocity": 0.5669291338582677,
                    "duration": 0.08797650000002477
                },
                {
                    "name": "A#2",
                    "midi": 46,
                    "time": 331.1435460000047,
                    "velocity": 0.4566929133858268,
                    "duration": 0.08797650000002477
                },
                {
                    "name": "F2",
                    "midi": 41,
                    "time": 331.1435460000047,
                    "velocity": 0.4566929133858268,
                    "duration": 0.08797650000002477
                },
                {
                    "name": "F3",
                    "midi": 53,
                    "time": 331.1435460000047,
                    "velocity": 0.5433070866141733,
                    "duration": 0.08797650000002477
                },
                {
                    "name": "A#2",
                    "midi": 46,
                    "time": 331.3194990000047,
                    "velocity": 0.4566929133858268,
                    "duration": 0.1759529999999927
                },
                {
                    "name": "F#2",
                    "midi": 42,
                    "time": 331.3194990000047,
                    "velocity": 0.4566929133858268,
                    "duration": 0.1759529999999927
                },
                {
                    "name": "F#3",
                    "midi": 54,
                    "time": 331.3194990000047,
                    "velocity": 0.5433070866141733,
                    "duration": 0.1759529999999927
                },
                {
                    "name": "A#3",
                    "midi": 58,
                    "time": 331.6714050000047,
                    "velocity": 0.5196850393700787,
                    "duration": 0.3519059999999854
                },
                {
                    "name": "F#3",
                    "midi": 54,
                    "time": 331.6714050000047,
                    "velocity": 0.5196850393700787,
                    "duration": 0.3519059999999854
                },
                {
                    "name": "F#4",
                    "midi": 66,
                    "time": 331.6714050000047,
                    "velocity": 0.6141732283464567,
                    "duration": 0.3519059999999854
                },
                {
                    "name": "G#3",
                    "midi": 56,
                    "time": 332.0233110000047,
                    "velocity": 0.4566929133858268,
                    "duration": 0.08797650000002477
                },
                {
                    "name": "G#4",
                    "midi": 68,
                    "time": 332.0233110000047,
                    "velocity": 0.5433070866141733,
                    "duration": 0.08797650000002477
                },
                {
                    "name": "F#3",
                    "midi": 54,
                    "time": 332.19926400000475,
                    "velocity": 0.4566929133858268,
                    "duration": 0.08797650000002477
                },
                {
                    "name": "F#4",
                    "midi": 66,
                    "time": 332.19926400000475,
                    "velocity": 0.5433070866141733,
                    "duration": 0.08797650000002477
                },
                {
                    "name": "F3",
                    "midi": 53,
                    "time": 332.3752170000048,
                    "velocity": 0.4881889763779528,
                    "duration": 0.08797650000002477
                },
                {
                    "name": "F4",
                    "midi": 65,
                    "time": 332.3752170000048,
                    "velocity": 0.5826771653543307,
                    "duration": 0.08797650000002477
                },
                {
                    "name": "D#3",
                    "midi": 51,
                    "time": 332.55117000000484,
                    "velocity": 0.4566929133858268,
                    "duration": 0.08797650000002477
                },
                {
                    "name": "D#4",
                    "midi": 63,
                    "time": 332.55117000000484,
                    "velocity": 0.5433070866141733,
                    "duration": 0.08797650000002477
                },
                {
                    "name": "A#2",
                    "midi": 46,
                    "time": 332.7271230000049,
                    "velocity": 0.4566929133858268,
                    "duration": 0.1759529999999927
                },
                {
                    "name": "A#3",
                    "midi": 58,
                    "time": 332.7271230000049,
                    "velocity": 0.5433070866141733,
                    "duration": 0.1759529999999927
                },
                {
                    "name": "D#3",
                    "midi": 51,
                    "time": 333.0790290000049,
                    "velocity": 0.5039370078740157,
                    "duration": 0.1759529999999927
                },
                {
                    "name": "F#3",
                    "midi": 54,
                    "time": 333.0790290000049,
                    "velocity": 0.5039370078740157,
                    "duration": 0.1759529999999927
                },
                {
                    "name": "A#3",
                    "midi": 58,
                    "time": 333.0790290000049,
                    "velocity": 0.5984251968503937,
                    "duration": 0.1759529999999927
                },
                {
                    "name": "F#1",
                    "midi": 30,
                    "time": 333.78284100000485,
                    "velocity": 0.5196850393700787,
                    "duration": 0.3519059999999854
                },
                {
                    "name": "A#1",
                    "midi": 34,
                    "time": 333.78284100000485,
                    "velocity": 0.5196850393700787,
                    "duration": 0.3519059999999854
                },
                {
                    "name": "C#2",
                    "midi": 37,
                    "time": 333.78284100000485,
                    "velocity": 0.5196850393700787,
                    "duration": 0.3519059999999854
                },
                {
                    "name": "F#2",
                    "midi": 42,
                    "time": 333.78284100000485,
                    "velocity": 0.6141732283464567,
                    "duration": 0.3519059999999854
                },
                {
                    "name": "F1",
                    "midi": 29,
                    "time": 334.13474700000484,
                    "velocity": 0.48031496062992124,
                    "duration": 0.3519059999999854
                },
                {
                    "name": "A#1",
                    "midi": 34,
                    "time": 334.13474700000484,
                    "velocity": 0.48031496062992124,
                    "duration": 0.3519059999999854
                },
                {
                    "name": "C#2",
                    "midi": 37,
                    "time": 334.13474700000484,
                    "velocity": 0.48031496062992124,
                    "duration": 0.3519059999999854
                },
                {
                    "name": "F2",
                    "midi": 41,
                    "time": 334.13474700000484,
                    "velocity": 0.5669291338582677,
                    "duration": 0.3519059999999854
                },
                {
                    "name": "D#1",
                    "midi": 27,
                    "time": 334.4866530000048,
                    "velocity": 0.5196850393700787,
                    "duration": 0.3519059999999854
                },
                {
                    "name": "F#1",
                    "midi": 30,
                    "time": 334.4866530000048,
                    "velocity": 0.5196850393700787,
                    "duration": 0.3519059999999854
                },
                {
                    "name": "A#1",
                    "midi": 34,
                    "time": 334.4866530000048,
                    "velocity": 0.5196850393700787,
                    "duration": 0.3519059999999854
                },
                {
                    "name": "D#2",
                    "midi": 39,
                    "time": 334.4866530000048,
                    "velocity": 0.6141732283464567,
                    "duration": 0.3519059999999854
                },
                {
                    "name": "C#1",
                    "midi": 25,
                    "time": 334.8385590000048,
                    "velocity": 0.48031496062992124,
                    "duration": 0.3519059999999854
                },
                {
                    "name": "F#1",
                    "midi": 30,
                    "time": 334.8385590000048,
                    "velocity": 0.48031496062992124,
                    "duration": 0.3519059999999854
                },
                {
                    "name": "A#1",
                    "midi": 34,
                    "time": 334.8385590000048,
                    "velocity": 0.48031496062992124,
                    "duration": 0.3519059999999854
                },
                {
                    "name": "C#2",
                    "midi": 37,
                    "time": 334.8385590000048,
                    "velocity": 0.48031496062992124,
                    "duration": 0.3519059999999854
                },
                {
                    "name": "F#1",
                    "midi": 30,
                    "time": 335.1904650000048,
                    "velocity": 0.5196850393700787,
                    "duration": 0.3519059999999854
                },
                {
                    "name": "A#1",
                    "midi": 34,
                    "time": 335.1904650000048,
                    "velocity": 0.5196850393700787,
                    "duration": 0.3519059999999854
                },
                {
                    "name": "C#2",
                    "midi": 37,
                    "time": 335.1904650000048,
                    "velocity": 0.5196850393700787,
                    "duration": 0.3519059999999854
                },
                {
                    "name": "F#2",
                    "midi": 42,
                    "time": 335.1904650000048,
                    "velocity": 0.6141732283464567,
                    "duration": 0.3519059999999854
                },
                {
                    "name": "G#1",
                    "midi": 32,
                    "time": 335.5423710000048,
                    "velocity": 0.5196850393700787,
                    "duration": 0.3519059999999854
                },
                {
                    "name": "C#2",
                    "midi": 37,
                    "time": 335.5423710000048,
                    "velocity": 0.5196850393700787,
                    "duration": 0.3519059999999854
                },
                {
                    "name": "G#2",
                    "midi": 44,
                    "time": 335.5423710000048,
                    "velocity": 0.6141732283464567,
                    "duration": 0.3519059999999854
                },
                {
                    "name": "A#1",
                    "midi": 34,
                    "time": 335.89427700000476,
                    "velocity": 0.5354330708661418,
                    "duration": 0.3519059999999854
                },
                {
                    "name": "C#2",
                    "midi": 37,
                    "time": 335.89427700000476,
                    "velocity": 0.5354330708661418,
                    "duration": 0.3519059999999854
                },
                {
                    "name": "F#2",
                    "midi": 42,
                    "time": 335.89427700000476,
                    "velocity": 0.5354330708661418,
                    "duration": 0.3519059999999854
                },
                {
                    "name": "A#2",
                    "midi": 46,
                    "time": 335.89427700000476,
                    "velocity": 0.6377952755905512,
                    "duration": 0.3519059999999854
                },
                {
                    "name": "F#1",
                    "midi": 30,
                    "time": 336.59808900000473,
                    "velocity": 0.5196850393700787,
                    "duration": 0.3519059999999854
                },
                {
                    "name": "A#1",
                    "midi": 34,
                    "time": 336.59808900000473,
                    "velocity": 0.5196850393700787,
                    "duration": 0.3519059999999854
                },
                {
                    "name": "C#2",
                    "midi": 37,
                    "time": 336.59808900000473,
                    "velocity": 0.5196850393700787,
                    "duration": 0.3519059999999854
                },
                {
                    "name": "F#2",
                    "midi": 42,
                    "time": 336.59808900000473,
                    "velocity": 0.6141732283464567,
                    "duration": 0.3519059999999854
                },
                {
                    "name": "F1",
                    "midi": 29,
                    "time": 336.9499950000047,
                    "velocity": 0.48031496062992124,
                    "duration": 0.3519059999999854
                },
                {
                    "name": "A#1",
                    "midi": 34,
                    "time": 336.9499950000047,
                    "velocity": 0.48031496062992124,
                    "duration": 0.3519059999999854
                },
                {
                    "name": "C#2",
                    "midi": 37,
                    "time": 336.9499950000047,
                    "velocity": 0.48031496062992124,
                    "duration": 0.3519059999999854
                },
                {
                    "name": "F2",
                    "midi": 41,
                    "time": 336.9499950000047,
                    "velocity": 0.5669291338582677,
                    "duration": 0.3519059999999854
                },
                {
                    "name": "D#1",
                    "midi": 27,
                    "time": 337.3019010000047,
                    "velocity": 0.5196850393700787,
                    "duration": 0.3519059999999854
                },
                {
                    "name": "F#1",
                    "midi": 30,
                    "time": 337.3019010000047,
                    "velocity": 0.5196850393700787,
                    "duration": 0.3519059999999854
                },
                {
                    "name": "A#1",
                    "midi": 34,
                    "time": 337.3019010000047,
                    "velocity": 0.5196850393700787,
                    "duration": 0.3519059999999854
                },
                {
                    "name": "D#2",
                    "midi": 39,
                    "time": 337.3019010000047,
                    "velocity": 0.6141732283464567,
                    "duration": 0.3519059999999854
                },
                {
                    "name": "C#1",
                    "midi": 25,
                    "time": 337.6538070000047,
                    "velocity": 0.48031496062992124,
                    "duration": 0.3519059999999854
                },
                {
                    "name": "F#1",
                    "midi": 30,
                    "time": 337.6538070000047,
                    "velocity": 0.48031496062992124,
                    "duration": 0.3519059999999854
                },
                {
                    "name": "A#1",
                    "midi": 34,
                    "time": 337.6538070000047,
                    "velocity": 0.48031496062992124,
                    "duration": 0.3519059999999854
                },
                {
                    "name": "C#2",
                    "midi": 37,
                    "time": 337.6538070000047,
                    "velocity": 0.48031496062992124,
                    "duration": 0.3519059999999854
                },
                {
                    "name": "F#1",
                    "midi": 30,
                    "time": 338.0057130000047,
                    "velocity": 0.5196850393700787,
                    "duration": 0.3519059999999854
                },
                {
                    "name": "A#1",
                    "midi": 34,
                    "time": 338.0057130000047,
                    "velocity": 0.5196850393700787,
                    "duration": 0.3519059999999854
                },
                {
                    "name": "C#2",
                    "midi": 37,
                    "time": 338.0057130000047,
                    "velocity": 0.5196850393700787,
                    "duration": 0.3519059999999854
                },
                {
                    "name": "F#2",
                    "midi": 42,
                    "time": 338.0057130000047,
                    "velocity": 0.6141732283464567,
                    "duration": 0.3519059999999854
                },
                {
                    "name": "G#1",
                    "midi": 32,
                    "time": 338.35761900000466,
                    "velocity": 0.5196850393700787,
                    "duration": 0.3519059999999854
                },
                {
                    "name": "C#2",
                    "midi": 37,
                    "time": 338.35761900000466,
                    "velocity": 0.5196850393700787,
                    "duration": 0.3519059999999854
                },
                {
                    "name": "G#2",
                    "midi": 44,
                    "time": 338.35761900000466,
                    "velocity": 0.6141732283464567,
                    "duration": 0.3519059999999854
                },
                {
                    "name": "A#1",
                    "midi": 34,
                    "time": 338.70952500000465,
                    "velocity": 0.5354330708661418,
                    "duration": 0.3519059999999854
                },
                {
                    "name": "C#2",
                    "midi": 37,
                    "time": 338.70952500000465,
                    "velocity": 0.5354330708661418,
                    "duration": 0.3519059999999854
                },
                {
                    "name": "F#2",
                    "midi": 42,
                    "time": 338.70952500000465,
                    "velocity": 0.5354330708661418,
                    "duration": 0.3519059999999854
                },
                {
                    "name": "A#2",
                    "midi": 46,
                    "time": 338.70952500000465,
                    "velocity": 0.6377952755905512,
                    "duration": 0.3519059999999854
                },
                {
                    "name": "F#2",
                    "midi": 42,
                    "time": 339.4133370000046,
                    "velocity": 0.4881889763779528,
                    "duration": 0.5278589999999781
                },
                {
                    "name": "A#2",
                    "midi": 46,
                    "time": 339.4133370000046,
                    "velocity": 0.4881889763779528,
                    "duration": 0.5278589999999781
                },
                {
                    "name": "C#3",
                    "midi": 49,
                    "time": 339.4133370000046,
                    "velocity": 0.4881889763779528,
                    "duration": 0.5278589999999781
                },
                {
                    "name": "F#3",
                    "midi": 54,
                    "time": 339.4133370000046,
                    "velocity": 0.5748031496062992,
                    "duration": 0.5278589999999781
                },
                {
                    "name": "F#2",
                    "midi": 42,
                    "time": 339.9411960000046,
                    "velocity": 0.44881889763779526,
                    "duration": 0.1759529999999927
                },
                {
                    "name": "A#2",
                    "midi": 46,
                    "time": 339.9411960000046,
                    "velocity": 0.44881889763779526,
                    "duration": 0.1759529999999927
                },
                {
                    "name": "C#3",
                    "midi": 49,
                    "time": 339.9411960000046,
                    "velocity": 0.44881889763779526,
                    "duration": 0.1759529999999927
                },
                {
                    "name": "F#3",
                    "midi": 54,
                    "time": 339.9411960000046,
                    "velocity": 0.5354330708661418,
                    "duration": 0.1759529999999927
                },
                {
                    "name": "B2",
                    "midi": 47,
                    "time": 340.1171490000046,
                    "velocity": 0.4881889763779528,
                    "duration": 0.3519059999999854
                },
                {
                    "name": "D#3",
                    "midi": 51,
                    "time": 340.1171490000046,
                    "velocity": 0.4881889763779528,
                    "duration": 0.3519059999999854
                },
                {
                    "name": "F#3",
                    "midi": 54,
                    "time": 340.1171490000046,
                    "velocity": 0.4881889763779528,
                    "duration": 0.3519059999999854
                },
                {
                    "name": "B3",
                    "midi": 59,
                    "time": 340.1171490000046,
                    "velocity": 0.5748031496062992,
                    "duration": 0.3519059999999854
                },
                {
                    "name": "F#2",
                    "midi": 42,
                    "time": 340.4690550000046,
                    "velocity": 0.4645669291338583,
                    "duration": 0.3519059999999854
                },
                {
                    "name": "A#2",
                    "midi": 46,
                    "time": 340.4690550000046,
                    "velocity": 0.4645669291338583,
                    "duration": 0.3519059999999854
                },
                {
                    "name": "C#3",
                    "midi": 49,
                    "time": 340.4690550000046,
                    "velocity": 0.4645669291338583,
                    "duration": 0.3519059999999854
                },
                {
                    "name": "F#3",
                    "midi": 54,
                    "time": 340.4690550000046,
                    "velocity": 0.5511811023622047,
                    "duration": 0.3519059999999854
                },
                {
                    "name": "A#1",
                    "midi": 34,
                    "time": 340.82096100000456,
                    "velocity": 0.4881889763779528,
                    "duration": 0.5278589999999781
                },
                {
                    "name": "A#2",
                    "midi": 46,
                    "time": 340.82096100000456,
                    "velocity": 0.5826771653543307,
                    "duration": 0.5278589999999781
                },
                {
                    "name": "D2",
                    "midi": 38,
                    "time": 341.34882000000454,
                    "velocity": 0.4409448818897638,
                    "duration": 0.1759529999999927
                },
                {
                    "name": "A#2",
                    "midi": 46,
                    "time": 341.34882000000454,
                    "velocity": 0.5275590551181102,
                    "duration": 0.1759529999999927
                },
                {
                    "name": "D#2",
                    "midi": 39,
                    "time": 341.52477300000453,
                    "velocity": 0.48031496062992124,
                    "duration": 0.08797650000002477
                },
                {
                    "name": "A#2",
                    "midi": 46,
                    "time": 341.52477300000453,
                    "velocity": 0.5669291338582677,
                    "duration": 0.08797650000002477
                },
                {
                    "name": "F2",
                    "midi": 41,
                    "time": 341.7007260000046,
                    "velocity": 0.4566929133858268,
                    "duration": 0.08797650000002477
                },
                {
                    "name": "A#2",
                    "midi": 46,
                    "time": 341.7007260000046,
                    "velocity": 0.5433070866141733,
                    "duration": 0.08797650000002477
                },
                {
                    "name": "F#2",
                    "midi": 42,
                    "time": 341.87667900000463,
                    "velocity": 0.4566929133858268,
                    "duration": 0.1759529999999927
                },
                {
                    "name": "A#2",
                    "midi": 46,
                    "time": 341.87667900000463,
                    "velocity": 0.5433070866141733,
                    "duration": 0.1759529999999927
                },
                {
                    "name": "F#3",
                    "midi": 54,
                    "time": 342.2285850000046,
                    "velocity": 0.5196850393700787,
                    "duration": 0.3519059999999854
                },
                {
                    "name": "A#3",
                    "midi": 58,
                    "time": 342.2285850000046,
                    "velocity": 0.6141732283464567,
                    "duration": 0.3519059999999854
                },
                {
                    "name": "G#3",
                    "midi": 56,
                    "time": 342.5804910000046,
                    "velocity": 0.4566929133858268,
                    "duration": 0.08797650000002477
                },
                {
                    "name": "B3",
                    "midi": 59,
                    "time": 342.5804910000046,
                    "velocity": 0.5433070866141733,
                    "duration": 0.08797650000002477
                },
                {
                    "name": "F#3",
                    "midi": 54,
                    "time": 342.75644400000465,
                    "velocity": 0.4566929133858268,
                    "duration": 0.08797650000002477
                },
                {
                    "name": "A#3",
                    "midi": 58,
                    "time": 342.75644400000465,
                    "velocity": 0.5433070866141733,
                    "duration": 0.08797650000002477
                },
                {
                    "name": "F3",
                    "midi": 53,
                    "time": 342.9323970000047,
                    "velocity": 0.4881889763779528,
                    "duration": 0.08797650000002477
                },
                {
                    "name": "G#3",
                    "midi": 56,
                    "time": 342.9323970000047,
                    "velocity": 0.5826771653543307,
                    "duration": 0.08797650000002477
                },
                {
                    "name": "D#3",
                    "midi": 51,
                    "time": 343.10835000000475,
                    "velocity": 0.4566929133858268,
                    "duration": 0.08797650000002477
                },
                {
                    "name": "F#3",
                    "midi": 54,
                    "time": 343.10835000000475,
                    "velocity": 0.5433070866141733,
                    "duration": 0.08797650000002477
                },
                {
                    "name": "A#2",
                    "midi": 46,
                    "time": 343.2843030000048,
                    "velocity": 0.4566929133858268,
                    "duration": 0.1759529999999927
                },
                {
                    "name": "F3",
                    "midi": 53,
                    "time": 343.2843030000048,
                    "velocity": 0.5433070866141733,
                    "duration": 0.1759529999999927
                },
                {
                    "name": "D#2",
                    "midi": 39,
                    "time": 343.6362090000048,
                    "velocity": 0.5039370078740157,
                    "duration": 0.1759529999999927
                },
                {
                    "name": "A#2",
                    "midi": 46,
                    "time": 343.6362090000048,
                    "velocity": 0.5039370078740157,
                    "duration": 0.1759529999999927
                },
                {
                    "name": "D#3",
                    "midi": 51,
                    "time": 343.6362090000048,
                    "velocity": 0.5984251968503937,
                    "duration": 0.1759529999999927
                },
                {
                    "name": "F#2",
                    "midi": 42,
                    "time": 344.34002100000475,
                    "velocity": 0.4881889763779528,
                    "duration": 0.5278589999999781
                },
                {
                    "name": "A#2",
                    "midi": 46,
                    "time": 344.34002100000475,
                    "velocity": 0.4881889763779528,
                    "duration": 0.5278589999999781
                },
                {
                    "name": "C#3",
                    "midi": 49,
                    "time": 344.34002100000475,
                    "velocity": 0.4881889763779528,
                    "duration": 0.5278589999999781
                },
                {
                    "name": "F#3",
                    "midi": 54,
                    "time": 344.34002100000475,
                    "velocity": 0.5748031496062992,
                    "duration": 0.5278589999999781
                },
                {
                    "name": "F#2",
                    "midi": 42,
                    "time": 344.86788000000473,
                    "velocity": 0.44881889763779526,
                    "duration": 0.1759529999999927
                },
                {
                    "name": "A#2",
                    "midi": 46,
                    "time": 344.86788000000473,
                    "velocity": 0.44881889763779526,
                    "duration": 0.1759529999999927
                },
                {
                    "name": "C#3",
                    "midi": 49,
                    "time": 344.86788000000473,
                    "velocity": 0.44881889763779526,
                    "duration": 0.1759529999999927
                },
                {
                    "name": "F#3",
                    "midi": 54,
                    "time": 344.86788000000473,
                    "velocity": 0.5354330708661418,
                    "duration": 0.1759529999999927
                },
                {
                    "name": "B2",
                    "midi": 47,
                    "time": 345.0438330000047,
                    "velocity": 0.4881889763779528,
                    "duration": 0.3519059999999854
                },
                {
                    "name": "D#3",
                    "midi": 51,
                    "time": 345.0438330000047,
                    "velocity": 0.4881889763779528,
                    "duration": 0.3519059999999854
                },
                {
                    "name": "F#3",
                    "midi": 54,
                    "time": 345.0438330000047,
                    "velocity": 0.4881889763779528,
                    "duration": 0.3519059999999854
                },
                {
                    "name": "B3",
                    "midi": 59,
                    "time": 345.0438330000047,
                    "velocity": 0.5748031496062992,
                    "duration": 0.3519059999999854
                },
                {
                    "name": "F#2",
                    "midi": 42,
                    "time": 345.3957390000047,
                    "velocity": 0.4645669291338583,
                    "duration": 0.3519059999999854
                },
                {
                    "name": "A#2",
                    "midi": 46,
                    "time": 345.3957390000047,
                    "velocity": 0.4645669291338583,
                    "duration": 0.3519059999999854
                },
                {
                    "name": "C#3",
                    "midi": 49,
                    "time": 345.3957390000047,
                    "velocity": 0.4645669291338583,
                    "duration": 0.3519059999999854
                },
                {
                    "name": "F#3",
                    "midi": 54,
                    "time": 345.3957390000047,
                    "velocity": 0.5511811023622047,
                    "duration": 0.3519059999999854
                },
                {
                    "name": "A#1",
                    "midi": 34,
                    "time": 345.7476450000047,
                    "velocity": 0.4881889763779528,
                    "duration": 0.5278589999999781
                },
                {
                    "name": "A#2",
                    "midi": 46,
                    "time": 345.7476450000047,
                    "velocity": 0.5826771653543307,
                    "duration": 0.5278589999999781
                },
                {
                    "name": "A#2",
                    "midi": 46,
                    "time": 346.2755040000047,
                    "velocity": 0.4409448818897638,
                    "duration": 0.1759529999999927
                },
                {
                    "name": "D2",
                    "midi": 38,
                    "time": 346.2755040000047,
                    "velocity": 0.4409448818897638,
                    "duration": 0.1759529999999927
                },
                {
                    "name": "D3",
                    "midi": 50,
                    "time": 346.2755040000047,
                    "velocity": 0.5275590551181102,
                    "duration": 0.1759529999999927
                },
                {
                    "name": "A#2",
                    "midi": 46,
                    "time": 346.45145700000467,
                    "velocity": 0.48031496062992124,
                    "duration": 0.08797650000002477
                },
                {
                    "name": "D#2",
                    "midi": 39,
                    "time": 346.45145700000467,
                    "velocity": 0.48031496062992124,
                    "duration": 0.08797650000002477
                },
                {
                    "name": "D#3",
                    "midi": 51,
                    "time": 346.45145700000467,
                    "velocity": 0.5669291338582677,
                    "duration": 0.08797650000002477
                },
                {
                    "name": "A#2",
                    "midi": 46,
                    "time": 346.6274100000047,
                    "velocity": 0.4566929133858268,
                    "duration": 0.08797650000002477
                },
                {
                    "name": "F2",
                    "midi": 41,
                    "time": 346.6274100000047,
                    "velocity": 0.4566929133858268,
                    "duration": 0.08797650000002477
                },
                {
                    "name": "F3",
                    "midi": 53,
                    "time": 346.6274100000047,
                    "velocity": 0.5433070866141733,
                    "duration": 0.08797650000002477
                },
                {
                    "name": "A#2",
                    "midi": 46,
                    "time": 346.80336300000477,
                    "velocity": 0.4566929133858268,
                    "duration": 0.1759529999999927
                },
                {
                    "name": "F#2",
                    "midi": 42,
                    "time": 346.80336300000477,
                    "velocity": 0.4566929133858268,
                    "duration": 0.1759529999999927
                },
                {
                    "name": "F#3",
                    "midi": 54,
                    "time": 346.80336300000477,
                    "velocity": 0.5433070866141733,
                    "duration": 0.1759529999999927
                },
                {
                    "name": "A#3",
                    "midi": 58,
                    "time": 347.15526900000475,
                    "velocity": 0.5196850393700787,
                    "duration": 0.3519059999999854
                },
                {
                    "name": "F#3",
                    "midi": 54,
                    "time": 347.15526900000475,
                    "velocity": 0.5196850393700787,
                    "duration": 0.3519059999999854
                },
                {
                    "name": "F#4",
                    "midi": 66,
                    "time": 347.15526900000475,
                    "velocity": 0.6141732283464567,
                    "duration": 0.3519059999999854
                },
                {
                    "name": "G#3",
                    "midi": 56,
                    "time": 347.50717500000474,
                    "velocity": 0.4566929133858268,
                    "duration": 0.08797650000002477
                },
                {
                    "name": "G#4",
                    "midi": 68,
                    "time": 347.50717500000474,
                    "velocity": 0.5433070866141733,
                    "duration": 0.08797650000002477
                },
                {
                    "name": "F#3",
                    "midi": 54,
                    "time": 347.6831280000048,
                    "velocity": 0.4566929133858268,
                    "duration": 0.08797650000002477
                },
                {
                    "name": "F#4",
                    "midi": 66,
                    "time": 347.6831280000048,
                    "velocity": 0.5433070866141733,
                    "duration": 0.08797650000002477
                },
                {
                    "name": "F3",
                    "midi": 53,
                    "time": 347.85908100000484,
                    "velocity": 0.4881889763779528,
                    "duration": 0.08797650000002477
                },
                {
                    "name": "F4",
                    "midi": 65,
                    "time": 347.85908100000484,
                    "velocity": 0.5826771653543307,
                    "duration": 0.08797650000002477
                },
                {
                    "name": "D#3",
                    "midi": 51,
                    "time": 348.0350340000049,
                    "velocity": 0.4566929133858268,
                    "duration": 0.08797650000002477
                },
                {
                    "name": "D#4",
                    "midi": 63,
                    "time": 348.0350340000049,
                    "velocity": 0.5433070866141733,
                    "duration": 0.08797650000002477
                },
                {
                    "name": "A#2",
                    "midi": 46,
                    "time": 348.21098700000493,
                    "velocity": 0.4566929133858268,
                    "duration": 0.1759529999999927
                },
                {
                    "name": "A#3",
                    "midi": 58,
                    "time": 348.21098700000493,
                    "velocity": 0.5433070866141733,
                    "duration": 0.1759529999999927
                },
                {
                    "name": "F#3",
                    "midi": 54,
                    "time": 348.5628930000049,
                    "velocity": 0.5196850393700787,
                    "duration": 0.3519059999999854
                },
                {
                    "name": "A#3",
                    "midi": 58,
                    "time": 348.5628930000049,
                    "velocity": 0.6141732283464567,
                    "duration": 0.3519059999999854
                },
                {
                    "name": "G#3",
                    "midi": 56,
                    "time": 348.9147990000049,
                    "velocity": 0.4566929133858268,
                    "duration": 0.08797650000002477
                },
                {
                    "name": "B3",
                    "midi": 59,
                    "time": 348.9147990000049,
                    "velocity": 0.5433070866141733,
                    "duration": 0.08797650000002477
                },
                {
                    "name": "F#3",
                    "midi": 54,
                    "time": 349.09075200000495,
                    "velocity": 0.4566929133858268,
                    "duration": 0.08797650000002477
                },
                {
                    "name": "A#3",
                    "midi": 58,
                    "time": 349.09075200000495,
                    "velocity": 0.5433070866141733,
                    "duration": 0.08797650000002477
                },
                {
                    "name": "F3",
                    "midi": 53,
                    "time": 349.266705000005,
                    "velocity": 0.4881889763779528,
                    "duration": 0.08797650000002477
                },
                {
                    "name": "G#3",
                    "midi": 56,
                    "time": 349.266705000005,
                    "velocity": 0.5826771653543307,
                    "duration": 0.08797650000002477
                },
                {
                    "name": "D#3",
                    "midi": 51,
                    "time": 349.44265800000505,
                    "velocity": 0.4566929133858268,
                    "duration": 0.08797650000002477
                },
                {
                    "name": "F#3",
                    "midi": 54,
                    "time": 349.44265800000505,
                    "velocity": 0.5433070866141733,
                    "duration": 0.08797650000002477
                },
                {
                    "name": "A#2",
                    "midi": 46,
                    "time": 349.6186110000051,
                    "velocity": 0.4566929133858268,
                    "duration": 0.1759529999999927
                },
                {
                    "name": "F3",
                    "midi": 53,
                    "time": 349.6186110000051,
                    "velocity": 0.5433070866141733,
                    "duration": 0.1759529999999927
                },
                {
                    "name": "F#2",
                    "midi": 42,
                    "time": 349.9705170000051,
                    "velocity": 0.5196850393700787,
                    "duration": 0.3519059999999854
                },
                {
                    "name": "A#2",
                    "midi": 46,
                    "time": 349.9705170000051,
                    "velocity": 0.6141732283464567,
                    "duration": 0.3519059999999854
                },
                {
                    "name": "G#2",
                    "midi": 44,
                    "time": 350.3224230000051,
                    "velocity": 0.4566929133858268,
                    "duration": 0.08797650000002477
                },
                {
                    "name": "B2",
                    "midi": 47,
                    "time": 350.3224230000051,
                    "velocity": 0.5433070866141733,
                    "duration": 0.08797650000002477
                },
                {
                    "name": "F#2",
                    "midi": 42,
                    "time": 350.4983760000051,
                    "velocity": 0.4566929133858268,
                    "duration": 0.08797650000002477
                },
                {
                    "name": "A#2",
                    "midi": 46,
                    "time": 350.4983760000051,
                    "velocity": 0.5433070866141733,
                    "duration": 0.08797650000002477
                },
                {
                    "name": "F2",
                    "midi": 41,
                    "time": 350.6743290000052,
                    "velocity": 0.4881889763779528,
                    "duration": 0.08797650000002477
                },
                {
                    "name": "G#2",
                    "midi": 44,
                    "time": 350.6743290000052,
                    "velocity": 0.5826771653543307,
                    "duration": 0.08797650000002477
                },
                {
                    "name": "D#2",
                    "midi": 39,
                    "time": 350.8502820000052,
                    "velocity": 0.4566929133858268,
                    "duration": 0.08797650000002477
                },
                {
                    "name": "F#2",
                    "midi": 42,
                    "time": 350.8502820000052,
                    "velocity": 0.5433070866141733,
                    "duration": 0.08797650000002477
                },
                {
                    "name": "A#1",
                    "midi": 34,
                    "time": 351.0262350000053,
                    "velocity": 0.4566929133858268,
                    "duration": 0.1759529999999927
                },
                {
                    "name": "F2",
                    "midi": 41,
                    "time": 351.0262350000053,
                    "velocity": 0.5433070866141733,
                    "duration": 0.1759529999999927
                },
                {
                    "name": "D#1",
                    "midi": 27,
                    "time": 351.3341527500053,
                    "velocity": 0.4566929133858268,
                    "duration": 0.2199412500000335
                },
                {
                    "name": "G1",
                    "midi": 31,
                    "time": 351.3488155000053,
                    "velocity": 0.4566929133858268,
                    "duration": 0.2052785000000199
                },
                {
                    "name": "A#1",
                    "midi": 34,
                    "time": 351.3634782500053,
                    "velocity": 0.4566929133858268,
                    "duration": 0.1906157500000063
                },
                {
                    "name": "D#2",
                    "midi": 39,
                    "time": 351.3781410000053,
                    "velocity": 0.5433070866141733,
                    "duration": 0.1759529999999927
                },
                {
                    "name": "D#2",
                    "midi": 39,
                    "time": 351.5540940000053,
                    "velocity": 0.4566929133858268,
                    "duration": 0.1759529999999927
                },
                {
                    "name": "A#2",
                    "midi": 46,
                    "time": 351.5540940000053,
                    "velocity": 0.4566929133858268,
                    "duration": 0.1759529999999927
                },
                {
                    "name": "D#3",
                    "midi": 51,
                    "time": 351.5540940000053,
                    "velocity": 0.5433070866141733,
                    "duration": 0.1759529999999927
                },
                {
                    "name": "G2",
                    "midi": 43,
                    "time": 351.9939765000053,
                    "velocity": 0.6220472440944882,
                    "duration": 0.08797650000002477
                },
                {
                    "name": "G3",
                    "midi": 55,
                    "time": 351.9939765000053,
                    "velocity": 0.6220472440944882,
                    "duration": 0.08797650000002477
                },
                {
                    "name": "G#2",
                    "midi": 44,
                    "time": 352.08195300000534,
                    "velocity": 0.6692913385826772,
                    "duration": 0.3519059999999854
                },
                {
                    "name": "G#3",
                    "midi": 56,
                    "time": 352.08195300000534,
                    "velocity": 0.6692913385826772,
                    "duration": 0.3519059999999854
                },
                {
                    "name": "A2",
                    "midi": 45,
                    "time": 352.4338590000053,
                    "velocity": 0.6614173228346457,
                    "duration": 0.30791775000000143
                },
                {
                    "name": "A3",
                    "midi": 57,
                    "time": 352.4338590000053,
                    "velocity": 0.6614173228346457,
                    "duration": 0.30791775000000143
                },
                {
                    "name": "D#1",
                    "midi": 27,
                    "time": 352.74177675000533,
                    "velocity": 0.4566929133858268,
                    "duration": 0.2199412500000335
                },
                {
                    "name": "G1",
                    "midi": 31,
                    "time": 352.75643950000534,
                    "velocity": 0.4566929133858268,
                    "duration": 0.2052785000000199
                },
                {
                    "name": "A#1",
                    "midi": 34,
                    "time": 352.77110225000536,
                    "velocity": 0.4566929133858268,
                    "duration": 0.1906157500000063
                },
                {
                    "name": "D#2",
                    "midi": 39,
                    "time": 352.78576500000537,
                    "velocity": 0.5433070866141733,
                    "duration": 0.1759529999999927
                },
                {
                    "name": "D#2",
                    "midi": 39,
                    "time": 352.96171800000536,
                    "velocity": 0.4566929133858268,
                    "duration": 0.1759529999999927
                },
                {
                    "name": "A#2",
                    "midi": 46,
                    "time": 352.96171800000536,
                    "velocity": 0.4566929133858268,
                    "duration": 0.1759529999999927
                },
                {
                    "name": "D#3",
                    "midi": 51,
                    "time": 352.96171800000536,
                    "velocity": 0.5433070866141733,
                    "duration": 0.1759529999999927
                },
                {
                    "name": "D#3",
                    "midi": 51,
                    "time": 353.48957700000534,
                    "velocity": 0.5354330708661418,
                    "duration": 0.3519059999999854
                },
                {
                    "name": "D#4",
                    "midi": 63,
                    "time": 353.48957700000534,
                    "velocity": 0.6692913385826772,
                    "duration": 0.3519059999999854
                },
                {
                    "name": "D#1",
                    "midi": 27,
                    "time": 354.1494007500053,
                    "velocity": 0.4566929133858268,
                    "duration": 0.21994124999997666
                },
                {
                    "name": "A#1",
                    "midi": 34,
                    "time": 354.1713948750053,
                    "velocity": 0.4566929133858268,
                    "duration": 0.19794712499998468
                },
                {
                    "name": "D2",
                    "midi": 38,
                    "time": 354.1933890000053,
                    "velocity": 0.5433070866141733,
                    "duration": 0.1759529999999927
                },
                {
                    "name": "F2",
                    "midi": 41,
                    "time": 354.3693420000053,
                    "velocity": 0.4566929133858268,
                    "duration": 0.1759529999999927
                },
                {
                    "name": "A#2",
                    "midi": 46,
                    "time": 354.3693420000053,
                    "velocity": 0.4566929133858268,
                    "duration": 0.1759529999999927
                },
                {
                    "name": "D3",
                    "midi": 50,
                    "time": 354.3693420000053,
                    "velocity": 0.5433070866141733,
                    "duration": 0.1759529999999927
                },
                {
                    "name": "G#2",
                    "midi": 44,
                    "time": 354.5452950000053,
                    "velocity": 0.5669291338582677,
                    "duration": 0.26392950000001747
                },
                {
                    "name": "G#3",
                    "midi": 56,
                    "time": 354.5452950000053,
                    "velocity": 0.6456692913385826,
                    "duration": 0.26392950000001747
                },
                {
                    "name": "G2",
                    "midi": 43,
                    "time": 354.8092245000053,
                    "velocity": 0.6220472440944882,
                    "duration": 0.08797650000002477
                },
                {
                    "name": "G3",
                    "midi": 55,
                    "time": 354.8092245000053,
                    "velocity": 0.6220472440944882,
                    "duration": 0.08797650000002477
                },
                {
                    "name": "G#2",
                    "midi": 44,
                    "time": 354.89720100000534,
                    "velocity": 0.6692913385826772,
                    "duration": 0.3519059999999854
                },
                {
                    "name": "G#3",
                    "midi": 56,
                    "time": 354.89720100000534,
                    "velocity": 0.6692913385826772,
                    "duration": 0.3519059999999854
                },
                {
                    "name": "A2",
                    "midi": 45,
                    "time": 355.2491070000053,
                    "velocity": 0.6614173228346457,
                    "duration": 0.30791775000000143
                },
                {
                    "name": "A3",
                    "midi": 57,
                    "time": 355.2491070000053,
                    "velocity": 0.6614173228346457,
                    "duration": 0.30791775000000143
                },
                {
                    "name": "D#1",
                    "midi": 27,
                    "time": 355.5570247500053,
                    "velocity": 0.4566929133858268,
                    "duration": 0.21994124999997666
                },
                {
                    "name": "A#1",
                    "midi": 34,
                    "time": 355.5790188750053,
                    "velocity": 0.4566929133858268,
                    "duration": 0.19794712499998468
                },
                {
                    "name": "D#2",
                    "midi": 39,
                    "time": 355.6010130000053,
                    "velocity": 0.5433070866141733,
                    "duration": 0.1759529999999927
                },
                {
                    "name": "D#2",
                    "midi": 39,
                    "time": 355.7769660000053,
                    "velocity": 0.4566929133858268,
                    "duration": 0.1759529999999927
                },
                {
                    "name": "A#2",
                    "midi": 46,
                    "time": 355.7769660000053,
                    "velocity": 0.4566929133858268,
                    "duration": 0.1759529999999927
                },
                {
                    "name": "D#3",
                    "midi": 51,
                    "time": 355.7769660000053,
                    "velocity": 0.5433070866141733,
                    "duration": 0.1759529999999927
                },
                {
                    "name": "A#1",
                    "midi": 34,
                    "time": 356.8326840000053,
                    "velocity": 0.4881889763779528,
                    "duration": 0.058650999999997566
                },
                {
                    "name": "C2",
                    "midi": 36,
                    "time": 356.8913350000053,
                    "velocity": 0.5118110236220472,
                    "duration": 0.058650999999997566
                },
                {
                    "name": "D2",
                    "midi": 38,
                    "time": 356.9499860000053,
                    "velocity": 0.5354330708661418,
                    "duration": 0.036656875000005584
                },
                {
                    "name": "D#1",
                    "midi": 27,
                    "time": 356.9866428750053,
                    "velocity": 0.4566929133858268,
                    "duration": 0.19794712499992784
                },
                {
                    "name": "G1",
                    "midi": 31,
                    "time": 356.9939742500053,
                    "velocity": 0.4566929133858268,
                    "duration": 0.19061574999994946
                },
                {
                    "name": "A#1",
                    "midi": 34,
                    "time": 357.0013056250053,
                    "velocity": 0.4566929133858268,
                    "duration": 0.18328437499997108
                },
                {
                    "name": "D#2",
                    "midi": 39,
                    "time": 357.00863700000525,
                    "velocity": 0.5433070866141733,
                    "duration": 0.1759529999999927
                },
                {
                    "name": "D#2",
                    "midi": 39,
                    "time": 357.18459000000524,
                    "velocity": 0.4566929133858268,
                    "duration": 0.1759529999999927
                },
                {
                    "name": "A#2",
                    "midi": 46,
                    "time": 357.18459000000524,
                    "velocity": 0.4566929133858268,
                    "duration": 0.1759529999999927
                },
                {
                    "name": "D#3",
                    "midi": 51,
                    "time": 357.18459000000524,
                    "velocity": 0.5433070866141733,
                    "duration": 0.1759529999999927
                },
                {
                    "name": "G2",
                    "midi": 43,
                    "time": 357.62447250000525,
                    "velocity": 0.6220472440944882,
                    "duration": 0.08797650000002477
                },
                {
                    "name": "G3",
                    "midi": 55,
                    "time": 357.62447250000525,
                    "velocity": 0.6220472440944882,
                    "duration": 0.08797650000002477
                },
                {
                    "name": "G#2",
                    "midi": 44,
                    "time": 357.7124490000053,
                    "velocity": 0.6692913385826772,
                    "duration": 0.3519059999999854
                },
                {
                    "name": "G#3",
                    "midi": 56,
                    "time": 357.7124490000053,
                    "velocity": 0.6692913385826772,
                    "duration": 0.3519059999999854
                },
                {
                    "name": "A2",
                    "midi": 45,
                    "time": 358.06435500000526,
                    "velocity": 0.6614173228346457,
                    "duration": 0.30791775000000143
                },
                {
                    "name": "A3",
                    "midi": 57,
                    "time": 358.06435500000526,
                    "velocity": 0.6614173228346457,
                    "duration": 0.30791775000000143
                },
                {
                    "name": "D#1",
                    "midi": 27,
                    "time": 358.37227275000527,
                    "velocity": 0.4566929133858268,
                    "duration": 0.2199412500000335
                },
                {
                    "name": "G1",
                    "midi": 31,
                    "time": 358.3869355000053,
                    "velocity": 0.4566929133858268,
                    "duration": 0.2052785000000199
                },
                {
                    "name": "A#1",
                    "midi": 34,
                    "time": 358.4015982500053,
                    "velocity": 0.4566929133858268,
                    "duration": 0.1906157500000063
                },
                {
                    "name": "D#2",
                    "midi": 39,
                    "time": 358.4162610000053,
                    "velocity": 0.5433070866141733,
                    "duration": 0.1759529999999927
                },
                {
                    "name": "D#2",
                    "midi": 39,
                    "time": 358.5922140000053,
                    "velocity": 0.4566929133858268,
                    "duration": 0.1759529999999927
                },
                {
                    "name": "A#2",
                    "midi": 46,
                    "time": 358.5922140000053,
                    "velocity": 0.4566929133858268,
                    "duration": 0.1759529999999927
                },
                {
                    "name": "D#3",
                    "midi": 51,
                    "time": 358.5922140000053,
                    "velocity": 0.5433070866141733,
                    "duration": 0.1759529999999927
                },
                {
                    "name": "D#3",
                    "midi": 51,
                    "time": 359.1200730000053,
                    "velocity": 0.5590551181102362,
                    "duration": 0.3519059999999854
                },
                {
                    "name": "D#4",
                    "midi": 63,
                    "time": 359.1200730000053,
                    "velocity": 0.6692913385826772,
                    "duration": 0.3519059999999854
                },
                {
                    "name": "D#1",
                    "midi": 27,
                    "time": 359.77989675000526,
                    "velocity": 0.4566929133858268,
                    "duration": 0.21994124999997666
                },
                {
                    "name": "A#1",
                    "midi": 34,
                    "time": 359.80189087500526,
                    "velocity": 0.4566929133858268,
                    "duration": 0.19794712499998468
                },
                {
                    "name": "D2",
                    "midi": 38,
                    "time": 359.82388500000525,
                    "velocity": 0.5433070866141733,
                    "duration": 0.1759529999999927
                },
                {
                    "name": "F2",
                    "midi": 41,
                    "time": 359.99983800000524,
                    "velocity": 0.4566929133858268,
                    "duration": 0.1759529999999927
                },
                {
                    "name": "A#2",
                    "midi": 46,
                    "time": 359.99983800000524,
                    "velocity": 0.4566929133858268,
                    "duration": 0.1759529999999927
                },
                {
                    "name": "D3",
                    "midi": 50,
                    "time": 359.99983800000524,
                    "velocity": 0.5433070866141733,
                    "duration": 0.1759529999999927
                },
                {
                    "name": "G#2",
                    "midi": 44,
                    "time": 360.17579100000523,
                    "velocity": 0.5669291338582677,
                    "duration": 0.26392950000001747
                },
                {
                    "name": "G#3",
                    "midi": 56,
                    "time": 360.17579100000523,
                    "velocity": 0.6456692913385826,
                    "duration": 0.26392950000001747
                },
                {
                    "name": "G2",
                    "midi": 43,
                    "time": 360.43972050000525,
                    "velocity": 0.6220472440944882,
                    "duration": 0.08797650000002477
                },
                {
                    "name": "G3",
                    "midi": 55,
                    "time": 360.43972050000525,
                    "velocity": 0.6220472440944882,
                    "duration": 0.08797650000002477
                },
                {
                    "name": "G#2",
                    "midi": 44,
                    "time": 360.5276970000053,
                    "velocity": 0.6692913385826772,
                    "duration": 0.3519059999999854
                },
                {
                    "name": "G#3",
                    "midi": 56,
                    "time": 360.5276970000053,
                    "velocity": 0.6692913385826772,
                    "duration": 0.3519059999999854
                },
                {
                    "name": "F2",
                    "midi": 41,
                    "time": 360.87960300000526,
                    "velocity": 0.6614173228346457,
                    "duration": 0.30791775000000143
                },
                {
                    "name": "F3",
                    "midi": 53,
                    "time": 360.87960300000526,
                    "velocity": 0.6614173228346457,
                    "duration": 0.30791775000000143
                },
                {
                    "name": "D#1",
                    "midi": 27,
                    "time": 361.18752075000526,
                    "velocity": 0.4566929133858268,
                    "duration": 0.2199412500000335
                },
                {
                    "name": "G1",
                    "midi": 31,
                    "time": 361.2021835000053,
                    "velocity": 0.4566929133858268,
                    "duration": 0.2052785000000199
                },
                {
                    "name": "A#1",
                    "midi": 34,
                    "time": 361.2168462500053,
                    "velocity": 0.4566929133858268,
                    "duration": 0.1906157500000063
                },
                {
                    "name": "D#2",
                    "midi": 39,
                    "time": 361.2315090000053,
                    "velocity": 0.5433070866141733,
                    "duration": 0.1759529999999927
                },
                {
                    "name": "D#2",
                    "midi": 39,
                    "time": 361.4074620000053,
                    "velocity": 0.4566929133858268,
                    "duration": 0.1759529999999927
                },
                {
                    "name": "A#2",
                    "midi": 46,
                    "time": 361.4074620000053,
                    "velocity": 0.4566929133858268,
                    "duration": 0.1759529999999927
                },
                {
                    "name": "D#3",
                    "midi": 51,
                    "time": 361.4074620000053,
                    "velocity": 0.5433070866141733,
                    "duration": 0.1759529999999927
                },
                {
                    "name": "A#2",
                    "midi": 46,
                    "time": 362.2872270000053,
                    "velocity": 0.6299212598425197,
                    "duration": 0.26392950000001747
                },
                {
                    "name": "A#3",
                    "midi": 58,
                    "time": 362.2872270000053,
                    "velocity": 0.6299212598425197,
                    "duration": 0.26392950000001747
                },
                {
                    "name": "D#1",
                    "midi": 27,
                    "time": 362.5951447500053,
                    "velocity": 0.4566929133858268,
                    "duration": 0.2199412500000335
                },
                {
                    "name": "G1",
                    "midi": 31,
                    "time": 362.60980750000533,
                    "velocity": 0.4566929133858268,
                    "duration": 0.2052785000000199
                },
                {
                    "name": "A#1",
                    "midi": 34,
                    "time": 362.62447025000534,
                    "velocity": 0.4566929133858268,
                    "duration": 0.1906157500000063
                },
                {
                    "name": "D#2",
                    "midi": 39,
                    "time": 362.63913300000536,
                    "velocity": 0.5433070866141733,
                    "duration": 0.1759529999999927
                },
                {
                    "name": "D#2",
                    "midi": 39,
                    "time": 362.81508600000535,
                    "velocity": 0.4566929133858268,
                    "duration": 0.1759529999999927
                },
                {
                    "name": "A#2",
                    "midi": 46,
                    "time": 362.81508600000535,
                    "velocity": 0.4566929133858268,
                    "duration": 0.1759529999999927
                },
                {
                    "name": "D#3",
                    "midi": 51,
                    "time": 362.81508600000535,
                    "velocity": 0.5433070866141733,
                    "duration": 0.1759529999999927
                },
                {
                    "name": "G3",
                    "midi": 55,
                    "time": 363.25496850000536,
                    "velocity": 0.5984251968503937,
                    "duration": 0.08797650000002477
                },
                {
                    "name": "G4",
                    "midi": 67,
                    "time": 363.25496850000536,
                    "velocity": 0.5984251968503937,
                    "duration": 0.08797650000002477
                },
                {
                    "name": "G#3",
                    "midi": 56,
                    "time": 363.3429450000054,
                    "velocity": 0.6377952755905512,
                    "duration": 0.3519059999999854
                },
                {
                    "name": "G#4",
                    "midi": 68,
                    "time": 363.3429450000054,
                    "velocity": 0.6377952755905512,
                    "duration": 0.3519059999999854
                },
                {
                    "name": "A3",
                    "midi": 57,
                    "time": 363.6948510000054,
                    "velocity": 0.6299212598425197,
                    "duration": 0.30791775000000143
                },
                {
                    "name": "A4",
                    "midi": 69,
                    "time": 363.6948510000054,
                    "velocity": 0.6299212598425197,
                    "duration": 0.30791775000000143
                },
                {
                    "name": "D#1",
                    "midi": 27,
                    "time": 364.0027687500054,
                    "velocity": 0.4566929133858268,
                    "duration": 0.2199412500000335
                },
                {
                    "name": "G1",
                    "midi": 31,
                    "time": 364.0174315000054,
                    "velocity": 0.4566929133858268,
                    "duration": 0.2052785000000199
                },
                {
                    "name": "A#1",
                    "midi": 34,
                    "time": 364.0320942500054,
                    "velocity": 0.4566929133858268,
                    "duration": 0.1906157500000063
                },
                {
                    "name": "D#2",
                    "midi": 39,
                    "time": 364.0467570000054,
                    "velocity": 0.5433070866141733,
                    "duration": 0.1759529999999927
                },
                {
                    "name": "D#2",
                    "midi": 39,
                    "time": 364.2227100000054,
                    "velocity": 0.4566929133858268,
                    "duration": 0.1759529999999927
                },
                {
                    "name": "A#2",
                    "midi": 46,
                    "time": 364.2227100000054,
                    "velocity": 0.4566929133858268,
                    "duration": 0.1759529999999927
                },
                {
                    "name": "D#3",
                    "midi": 51,
                    "time": 364.2227100000054,
                    "velocity": 0.5433070866141733,
                    "duration": 0.1759529999999927
                },
                {
                    "name": "D#4",
                    "midi": 63,
                    "time": 364.7505690000054,
                    "velocity": 0.6377952755905512,
                    "duration": 0.3519059999999854
                },
                {
                    "name": "D#5",
                    "midi": 75,
                    "time": 364.7505690000054,
                    "velocity": 0.6614173228346457,
                    "duration": 0.3519059999999854
                },
                {
                    "name": "D#1",
                    "midi": 27,
                    "time": 365.41039275000537,
                    "velocity": 0.4566929133858268,
                    "duration": 0.21994124999997666
                },
                {
                    "name": "A#1",
                    "midi": 34,
                    "time": 365.43238687500536,
                    "velocity": 0.4566929133858268,
                    "duration": 0.19794712499998468
                },
                {
                    "name": "D2",
                    "midi": 38,
                    "time": 365.45438100000536,
                    "velocity": 0.5433070866141733,
                    "duration": 0.1759529999999927
                },
                {
                    "name": "F2",
                    "midi": 41,
                    "time": 365.63033400000535,
                    "velocity": 0.4566929133858268,
                    "duration": 0.1759529999999927
                },
                {
                    "name": "A#2",
                    "midi": 46,
                    "time": 365.63033400000535,
                    "velocity": 0.4566929133858268,
                    "duration": 0.1759529999999927
                },
                {
                    "name": "D3",
                    "midi": 50,
                    "time": 365.63033400000535,
                    "velocity": 0.5433070866141733,
                    "duration": 0.1759529999999927
                },
                {
                    "name": "G3",
                    "midi": 55,
                    "time": 366.07021650000536,
                    "velocity": 0.5984251968503937,
                    "duration": 0.08797650000002477
                },
                {
                    "name": "G4",
                    "midi": 67,
                    "time": 366.07021650000536,
                    "velocity": 0.5984251968503937,
                    "duration": 0.08797650000002477
                },
                {
                    "name": "G#3",
                    "midi": 56,
                    "time": 366.1581930000054,
                    "velocity": 0.6377952755905512,
                    "duration": 0.3519059999999854
                },
                {
                    "name": "G#4",
                    "midi": 68,
                    "time": 366.1581930000054,
                    "velocity": 0.6377952755905512,
                    "duration": 0.3519059999999854
                },
                {
                    "name": "A3",
                    "midi": 57,
                    "time": 366.51009900000537,
                    "velocity": 0.6299212598425197,
                    "duration": 0.30791775000000143
                },
                {
                    "name": "A4",
                    "midi": 69,
                    "time": 366.51009900000537,
                    "velocity": 0.6299212598425197,
                    "duration": 0.30791775000000143
                },
                {
                    "name": "D#1",
                    "midi": 27,
                    "time": 366.81801675000537,
                    "velocity": 0.4566929133858268,
                    "duration": 0.2199412500000335
                },
                {
                    "name": "G1",
                    "midi": 31,
                    "time": 366.8326795000054,
                    "velocity": 0.4566929133858268,
                    "duration": 0.2052785000000199
                },
                {
                    "name": "A#1",
                    "midi": 34,
                    "time": 366.8473422500054,
                    "velocity": 0.4566929133858268,
                    "duration": 0.1906157500000063
                },
                {
                    "name": "D#2",
                    "midi": 39,
                    "time": 366.8620050000054,
                    "velocity": 0.5433070866141733,
                    "duration": 0.1759529999999927
                },
                {
                    "name": "D#2",
                    "midi": 39,
                    "time": 367.0379580000054,
                    "velocity": 0.4566929133858268,
                    "duration": 0.1759529999999927
                },
                {
                    "name": "A#2",
                    "midi": 46,
                    "time": 367.0379580000054,
                    "velocity": 0.4566929133858268,
                    "duration": 0.1759529999999927
                },
                {
                    "name": "D#3",
                    "midi": 51,
                    "time": 367.0379580000054,
                    "velocity": 0.5433070866141733,
                    "duration": 0.1759529999999927
                },
                {
                    "name": "G3",
                    "midi": 55,
                    "time": 367.5658170000054,
                    "velocity": 0.6377952755905512,
                    "duration": 0.1759529999999927
                },
                {
                    "name": "G4",
                    "midi": 67,
                    "time": 367.5658170000054,
                    "velocity": 0.6614173228346457,
                    "duration": 0.1759529999999927
                },
                {
                    "name": "D#1",
                    "midi": 27,
                    "time": 368.22564075000537,
                    "velocity": 0.4566929133858268,
                    "duration": 0.2199412500000335
                },
                {
                    "name": "G1",
                    "midi": 31,
                    "time": 368.2403035000054,
                    "velocity": 0.4566929133858268,
                    "duration": 0.2052785000000199
                },
                {
                    "name": "A#1",
                    "midi": 34,
                    "time": 368.2549662500054,
                    "velocity": 0.4566929133858268,
                    "duration": 0.1906157500000063
                },
                {
                    "name": "D#2",
                    "midi": 39,
                    "time": 368.2696290000054,
                    "velocity": 0.5433070866141733,
                    "duration": 0.1759529999999927
                },
                {
                    "name": "D#2",
                    "midi": 39,
                    "time": 368.4455820000054,
                    "velocity": 0.4566929133858268,
                    "duration": 0.1759529999999927
                },
                {
                    "name": "A#2",
                    "midi": 46,
                    "time": 368.4455820000054,
                    "velocity": 0.4566929133858268,
                    "duration": 0.1759529999999927
                },
                {
                    "name": "D#3",
                    "midi": 51,
                    "time": 368.4455820000054,
                    "velocity": 0.5433070866141733,
                    "duration": 0.1759529999999927
                },
                {
                    "name": "G3",
                    "midi": 55,
                    "time": 368.8854645000054,
                    "velocity": 0.5984251968503937,
                    "duration": 0.08797650000002477
                },
                {
                    "name": "G4",
                    "midi": 67,
                    "time": 368.8854645000054,
                    "velocity": 0.5669291338582677,
                    "duration": 0.08797650000002477
                },
                {
                    "name": "G#3",
                    "midi": 56,
                    "time": 368.97344100000544,
                    "velocity": 0.6377952755905512,
                    "duration": 0.3519059999999854
                },
                {
                    "name": "G#4",
                    "midi": 68,
                    "time": 368.97344100000544,
                    "velocity": 0.5984251968503937,
                    "duration": 0.3519059999999854
                },
                {
                    "name": "A3",
                    "midi": 57,
                    "time": 369.3253470000054,
                    "velocity": 0.6299212598425197,
                    "duration": 0.30791775000000143
                },
                {
                    "name": "A4",
                    "midi": 69,
                    "time": 369.3253470000054,
                    "velocity": 0.6299212598425197,
                    "duration": 0.30791775000000143
                },
                {
                    "name": "D#1",
                    "midi": 27,
                    "time": 369.6332647500054,
                    "velocity": 0.4566929133858268,
                    "duration": 0.2199412500000335
                },
                {
                    "name": "G1",
                    "midi": 31,
                    "time": 369.64792750000544,
                    "velocity": 0.4566929133858268,
                    "duration": 0.2052785000000199
                },
                {
                    "name": "A#1",
                    "midi": 34,
                    "time": 369.66259025000545,
                    "velocity": 0.4566929133858268,
                    "duration": 0.1906157500000063
                },
                {
                    "name": "D#2",
                    "midi": 39,
                    "time": 369.67725300000546,
                    "velocity": 0.5433070866141733,
                    "duration": 0.1759529999999927
                },
                {
                    "name": "D#2",
                    "midi": 39,
                    "time": 369.85320600000546,
                    "velocity": 0.4566929133858268,
                    "duration": 0.1759529999999927
                },
                {
                    "name": "A#2",
                    "midi": 46,
                    "time": 369.85320600000546,
                    "velocity": 0.4566929133858268,
                    "duration": 0.1759529999999927
                },
                {
                    "name": "D#3",
                    "midi": 51,
                    "time": 369.85320600000546,
                    "velocity": 0.5433070866141733,
                    "duration": 0.1759529999999927
                },
                {
                    "name": "D#4",
                    "midi": 63,
                    "time": 370.38106500000544,
                    "velocity": 0.6377952755905512,
                    "duration": 0.3519059999999854
                },
                {
                    "name": "D#5",
                    "midi": 75,
                    "time": 370.38106500000544,
                    "velocity": 0.6614173228346457,
                    "duration": 0.3519059999999854
                },
                {
                    "name": "D#1",
                    "midi": 27,
                    "time": 371.0408887500054,
                    "velocity": 0.4566929133858268,
                    "duration": 0.21994124999997666
                },
                {
                    "name": "A#1",
                    "midi": 34,
                    "time": 371.0628828750054,
                    "velocity": 0.4566929133858268,
                    "duration": 0.19794712499998468
                },
                {
                    "name": "D2",
                    "midi": 38,
                    "time": 371.0848770000054,
                    "velocity": 0.5433070866141733,
                    "duration": 0.1759529999999927
                },
                {
                    "name": "F2",
                    "midi": 41,
                    "time": 371.2608300000054,
                    "velocity": 0.4566929133858268,
                    "duration": 0.1759529999999927
                },
                {
                    "name": "A#2",
                    "midi": 46,
                    "time": 371.2608300000054,
                    "velocity": 0.4566929133858268,
                    "duration": 0.1759529999999927
                },
                {
                    "name": "D3",
                    "midi": 50,
                    "time": 371.2608300000054,
                    "velocity": 0.5433070866141733,
                    "duration": 0.1759529999999927
                },
                {
                    "name": "G3",
                    "midi": 55,
                    "time": 371.7007125000054,
                    "velocity": 0.5984251968503937,
                    "duration": 0.08797650000002477
                },
                {
                    "name": "G4",
                    "midi": 67,
                    "time": 371.7007125000054,
                    "velocity": 0.5984251968503937,
                    "duration": 0.08797650000002477
                },
                {
                    "name": "G#3",
                    "midi": 56,
                    "time": 371.78868900000543,
                    "velocity": 0.6377952755905512,
                    "duration": 0.3519059999999854
                },
                {
                    "name": "G#4",
                    "midi": 68,
                    "time": 371.78868900000543,
                    "velocity": 0.6377952755905512,
                    "duration": 0.3519059999999854
                },
                {
                    "name": "F3",
                    "midi": 53,
                    "time": 372.1405950000054,
                    "velocity": 0.6299212598425197,
                    "duration": 0.30791775000000143
                },
                {
                    "name": "F4",
                    "midi": 65,
                    "time": 372.1405950000054,
                    "velocity": 0.6299212598425197,
                    "duration": 0.30791775000000143
                },
                {
                    "name": "D#1",
                    "midi": 27,
                    "time": 372.4485127500054,
                    "velocity": 0.4566929133858268,
                    "duration": 0.2199412500000335
                },
                {
                    "name": "G1",
                    "midi": 31,
                    "time": 372.46317550000543,
                    "velocity": 0.4566929133858268,
                    "duration": 0.2052785000000199
                },
                {
                    "name": "A#1",
                    "midi": 34,
                    "time": 372.47783825000545,
                    "velocity": 0.4566929133858268,
                    "duration": 0.1906157500000063
                },
                {
                    "name": "D#2",
                    "midi": 39,
                    "time": 372.49250100000546,
                    "velocity": 0.5433070866141733,
                    "duration": 0.1759529999999927
                },
                {
                    "name": "D#2",
                    "midi": 39,
                    "time": 372.66845400000545,
                    "velocity": 0.4566929133858268,
                    "duration": 0.1759529999999927
                },
                {
                    "name": "A#2",
                    "midi": 46,
                    "time": 372.66845400000545,
                    "velocity": 0.4566929133858268,
                    "duration": 0.1759529999999927
                },
                {
                    "name": "D#3",
                    "midi": 51,
                    "time": 372.66845400000545,
                    "velocity": 0.5433070866141733,
                    "duration": 0.1759529999999927
                },
                {
                    "name": "D#4",
                    "midi": 63,
                    "time": 373.5482190000055,
                    "velocity": 0.5354330708661418,
                    "duration": 0.3519059999999854
                },
                {
                    "name": "G4",
                    "midi": 67,
                    "time": 373.5482190000055,
                    "velocity": 0.5354330708661418,
                    "duration": 0.3519059999999854
                },
                {
                    "name": "C#5",
                    "midi": 73,
                    "time": 373.5482190000055,
                    "velocity": 0.6299212598425197,
                    "duration": 0.3519059999999854
                },
                {
                    "name": "G#4",
                    "midi": 68,
                    "time": 373.90012500000546,
                    "velocity": 0.5118110236220472,
                    "duration": 0.3519059999999854
                },
                {
                    "name": "C5",
                    "midi": 72,
                    "time": 373.90012500000546,
                    "velocity": 0.6062992125984252,
                    "duration": 0.3519059999999854
                },
                {
                    "name": "G4",
                    "midi": 67,
                    "time": 374.25203100000545,
                    "velocity": 0.49606299212598426,
                    "duration": 0.08797650000002477
                },
                {
                    "name": "A#4",
                    "midi": 70,
                    "time": 374.25203100000545,
                    "velocity": 0.5905511811023622,
                    "duration": 0.08797650000002477
                },
                {
                    "name": "F4",
                    "midi": 65,
                    "time": 374.4279840000055,
                    "velocity": 0.49606299212598426,
                    "duration": 0.08797650000002477
                },
                {
                    "name": "G#4",
                    "midi": 68,
                    "time": 374.4279840000055,
                    "velocity": 0.5905511811023622,
                    "duration": 0.08797650000002477
                },
                {
                    "name": "D#4",
                    "midi": 63,
                    "time": 374.60393700000554,
                    "velocity": 0.5275590551181102,
                    "duration": 0.08797650000002477
                },
                {
                    "name": "G4",
                    "midi": 67,
                    "time": 374.60393700000554,
                    "velocity": 0.6220472440944882,
                    "duration": 0.08797650000002477
                },
                {
                    "name": "A#3",
                    "midi": 58,
                    "time": 374.7798900000056,
                    "velocity": 0.49606299212598426,
                    "duration": 0.08797650000002477
                },
                {
                    "name": "F4",
                    "midi": 65,
                    "time": 374.7798900000056,
                    "velocity": 0.5905511811023622,
                    "duration": 0.08797650000002477
                },
                {
                    "name": "G3",
                    "midi": 55,
                    "time": 374.95584300000564,
                    "velocity": 0.49606299212598426,
                    "duration": 0.08797650000002477
                },
                {
                    "name": "D#4",
                    "midi": 63,
                    "time": 374.95584300000564,
                    "velocity": 0.5905511811023622,
                    "duration": 0.08797650000002477
                },
                {
                    "name": "D#4",
                    "midi": 63,
                    "time": 375.1317960000057,
                    "velocity": 0.5039370078740157,
                    "duration": 0.08797650000002477
                },
                {
                    "name": "G4",
                    "midi": 67,
                    "time": 375.1317960000057,
                    "velocity": 0.5984251968503937,
                    "duration": 0.08797650000002477
                },
                {
                    "name": "F4",
                    "midi": 65,
                    "time": 375.30774900000574,
                    "velocity": 0.5354330708661418,
                    "duration": 0.26392950000001747
                },
                {
                    "name": "G#4",
                    "midi": 68,
                    "time": 375.30774900000574,
                    "velocity": 0.6299212598425197,
                    "duration": 0.26392950000001747
                },
                {
                    "name": "E4",
                    "midi": 64,
                    "time": 375.57167850000576,
                    "velocity": 0.49606299212598426,
                    "duration": 0.08797650000002477
                },
                {
                    "name": "G4",
                    "midi": 67,
                    "time": 375.57167850000576,
                    "velocity": 0.5905511811023622,
                    "duration": 0.08797650000002477
                },
                {
                    "name": "F4",
                    "midi": 65,
                    "time": 375.6596550000058,
                    "velocity": 0.49606299212598426,
                    "duration": 0.08797650000002477
                },
                {
                    "name": "G#4",
                    "midi": 68,
                    "time": 375.6596550000058,
                    "velocity": 0.5905511811023622,
                    "duration": 0.08797650000002477
                },
                {
                    "name": "F#4",
                    "midi": 66,
                    "time": 375.83560800000583,
                    "velocity": 0.5196850393700787,
                    "duration": 0.08797650000002477
                },
                {
                    "name": "A4",
                    "midi": 69,
                    "time": 375.83560800000583,
                    "velocity": 0.6141732283464567,
                    "duration": 0.08797650000002477
                },
                {
                    "name": "G4",
                    "midi": 67,
                    "time": 376.0115610000059,
                    "velocity": 0.5354330708661418,
                    "duration": 0.08797650000002477
                },
                {
                    "name": "A#4",
                    "midi": 70,
                    "time": 376.0115610000059,
                    "velocity": 0.6299212598425197,
                    "duration": 0.08797650000002477
                },
                {
                    "name": "D#4",
                    "midi": 63,
                    "time": 376.3634670000059,
                    "velocity": 0.5354330708661418,
                    "duration": 0.3519059999999854
                },
                {
                    "name": "G4",
                    "midi": 67,
                    "time": 376.3634670000059,
                    "velocity": 0.5354330708661418,
                    "duration": 0.3519059999999854
                },
                {
                    "name": "C#5",
                    "midi": 73,
                    "time": 376.3634670000059,
                    "velocity": 0.6299212598425197,
                    "duration": 0.3519059999999854
                },
                {
                    "name": "G#4",
                    "midi": 68,
                    "time": 376.7153730000059,
                    "velocity": 0.5118110236220472,
                    "duration": 0.3519059999999854
                },
                {
                    "name": "C5",
                    "midi": 72,
                    "time": 376.7153730000059,
                    "velocity": 0.6062992125984252,
                    "duration": 0.3519059999999854
                },
                {
                    "name": "G4",
                    "midi": 67,
                    "time": 377.0672790000059,
                    "velocity": 0.49606299212598426,
                    "duration": 0.08797650000002477
                },
                {
                    "name": "A#4",
                    "midi": 70,
                    "time": 377.0672790000059,
                    "velocity": 0.5905511811023622,
                    "duration": 0.08797650000002477
                },
                {
                    "name": "F4",
                    "midi": 65,
                    "time": 377.24323200000595,
                    "velocity": 0.49606299212598426,
                    "duration": 0.08797650000002477
                },
                {
                    "name": "G#4",
                    "midi": 68,
                    "time": 377.24323200000595,
                    "velocity": 0.5905511811023622,
                    "duration": 0.08797650000002477
                },
                {
                    "name": "D#4",
                    "midi": 63,
                    "time": 377.419185000006,
                    "velocity": 0.5275590551181102,
                    "duration": 0.08797650000002477
                },
                {
                    "name": "G4",
                    "midi": 67,
                    "time": 377.419185000006,
                    "velocity": 0.6220472440944882,
                    "duration": 0.08797650000002477
                },
                {
                    "name": "A#3",
                    "midi": 58,
                    "time": 377.59513800000605,
                    "velocity": 0.49606299212598426,
                    "duration": 0.08797650000002477
                },
                {
                    "name": "F4",
                    "midi": 65,
                    "time": 377.59513800000605,
                    "velocity": 0.5905511811023622,
                    "duration": 0.08797650000002477
                },
                {
                    "name": "G3",
                    "midi": 55,
                    "time": 377.7710910000061,
                    "velocity": 0.49606299212598426,
                    "duration": 0.08797650000002477
                },
                {
                    "name": "D#4",
                    "midi": 63,
                    "time": 377.7710910000061,
                    "velocity": 0.5905511811023622,
                    "duration": 0.08797650000002477
                },
                {
                    "name": "D#4",
                    "midi": 63,
                    "time": 377.94704400000614,
                    "velocity": 0.5039370078740157,
                    "duration": 0.08797650000002477
                },
                {
                    "name": "G4",
                    "midi": 67,
                    "time": 377.94704400000614,
                    "velocity": 0.5984251968503937,
                    "duration": 0.08797650000002477
                },
                {
                    "name": "F4",
                    "midi": 65,
                    "time": 378.1229970000062,
                    "velocity": 0.5354330708661418,
                    "duration": 0.26392950000001747
                },
                {
                    "name": "G#4",
                    "midi": 68,
                    "time": 378.1229970000062,
                    "velocity": 0.6299212598425197,
                    "duration": 0.26392950000001747
                },
                {
                    "name": "E4",
                    "midi": 64,
                    "time": 378.3869265000062,
                    "velocity": 0.49606299212598426,
                    "duration": 0.08797650000002477
                },
                {
                    "name": "G4",
                    "midi": 67,
                    "time": 378.3869265000062,
                    "velocity": 0.5905511811023622,
                    "duration": 0.08797650000002477
                },
                {
                    "name": "F4",
                    "midi": 65,
                    "time": 378.47490300000624,
                    "velocity": 0.49606299212598426,
                    "duration": 0.08797650000002477
                },
                {
                    "name": "G#4",
                    "midi": 68,
                    "time": 378.47490300000624,
                    "velocity": 0.5905511811023622,
                    "duration": 0.08797650000002477
                },
                {
                    "name": "A#3",
                    "midi": 58,
                    "time": 378.6508560000063,
                    "velocity": 0.5196850393700787,
                    "duration": 0.08797650000002477
                },
                {
                    "name": "F4",
                    "midi": 65,
                    "time": 378.6508560000063,
                    "velocity": 0.6141732283464567,
                    "duration": 0.08797650000002477
                },
                {
                    "name": "G3",
                    "midi": 55,
                    "time": 378.82680900000634,
                    "velocity": 0.5354330708661418,
                    "duration": 0.08797650000002477
                },
                {
                    "name": "D#4",
                    "midi": 63,
                    "time": 378.82680900000634,
                    "velocity": 0.6299212598425197,
                    "duration": 0.08797650000002477
                },
                {
                    "name": "D#2",
                    "midi": 39,
                    "time": 379.1787150000064,
                    "velocity": 0.5118110236220472,
                    "duration": 0.1759529999999927
                },
                {
                    "name": "D#3",
                    "midi": 51,
                    "time": 379.1787150000064,
                    "velocity": 0.6062992125984252,
                    "duration": 0.1759529999999927
                },
                {
                    "name": "G2",
                    "midi": 43,
                    "time": 379.35466800000637,
                    "velocity": 0.48031496062992124,
                    "duration": 0.1759529999999927
                },
                {
                    "name": "G3",
                    "midi": 55,
                    "time": 379.35466800000637,
                    "velocity": 0.5669291338582677,
                    "duration": 0.1759529999999927
                },
                {
                    "name": "G#2",
                    "midi": 44,
                    "time": 379.53062100000636,
                    "velocity": 0.5354330708661418,
                    "duration": 0.1759529999999927
                },
                {
                    "name": "G#3",
                    "midi": 56,
                    "time": 379.53062100000636,
                    "velocity": 0.6299212598425197,
                    "duration": 0.1759529999999927
                },
                {
                    "name": "C3",
                    "midi": 48,
                    "time": 379.70657400000636,
                    "velocity": 0.4881889763779528,
                    "duration": 0.1759529999999927
                },
                {
                    "name": "C4",
                    "midi": 60,
                    "time": 379.70657400000636,
                    "velocity": 0.5748031496062992,
                    "duration": 0.1759529999999927
                },
                {
                    "name": "D#3",
                    "midi": 51,
                    "time": 379.88252700000635,
                    "velocity": 0.4881889763779528,
                    "duration": 0.1759529999999927
                },
                {
                    "name": "D#4",
                    "midi": 63,
                    "time": 379.88252700000635,
                    "velocity": 0.5748031496062992,
                    "duration": 0.1759529999999927
                },
                {
                    "name": "G#3",
                    "midi": 56,
                    "time": 380.05848000000634,
                    "velocity": 0.4881889763779528,
                    "duration": 0.1759529999999927
                },
                {
                    "name": "G#4",
                    "midi": 68,
                    "time": 380.05848000000634,
                    "velocity": 0.5748031496062992,
                    "duration": 0.1759529999999927
                },
                {
                    "name": "A#3",
                    "midi": 58,
                    "time": 380.23443300000633,
                    "velocity": 0.4881889763779528,
                    "duration": 0.3519059999999854
                },
                {
                    "name": "A#4",
                    "midi": 70,
                    "time": 380.23443300000633,
                    "velocity": 0.5748031496062992,
                    "duration": 0.3519059999999854
                },
                {
                    "name": "D#2",
                    "midi": 39,
                    "time": 380.5863390000063,
                    "velocity": 0.5118110236220472,
                    "duration": 0.1759529999999927
                },
                {
                    "name": "D#3",
                    "midi": 51,
                    "time": 380.5863390000063,
                    "velocity": 0.6062992125984252,
                    "duration": 0.1759529999999927
                },
                {
                    "name": "G2",
                    "midi": 43,
                    "time": 380.7622920000063,
                    "velocity": 0.48031496062992124,
                    "duration": 0.1759529999999927
                },
                {
                    "name": "G3",
                    "midi": 55,
                    "time": 380.7622920000063,
                    "velocity": 0.5669291338582677,
                    "duration": 0.1759529999999927
                },
                {
                    "name": "A#2",
                    "midi": 46,
                    "time": 380.9382450000063,
                    "velocity": 0.5354330708661418,
                    "duration": 0.1759529999999927
                },
                {
                    "name": "A#3",
                    "midi": 58,
                    "time": 380.9382450000063,
                    "velocity": 0.6299212598425197,
                    "duration": 0.1759529999999927
                },
                {
                    "name": "D3",
                    "midi": 50,
                    "time": 381.1141980000063,
                    "velocity": 0.4566929133858268,
                    "duration": 0.1759529999999927
                },
                {
                    "name": "D4",
                    "midi": 62,
                    "time": 381.1141980000063,
                    "velocity": 0.5433070866141733,
                    "duration": 0.1759529999999927
                },
                {
                    "name": "F3",
                    "midi": 53,
                    "time": 381.2901510000063,
                    "velocity": 0.4881889763779528,
                    "duration": 0.1759529999999927
                },
                {
                    "name": "F4",
                    "midi": 65,
                    "time": 381.2901510000063,
                    "velocity": 0.5748031496062992,
                    "duration": 0.1759529999999927
                },
                {
                    "name": "F#4",
                    "midi": 66,
                    "time": 381.4661040000063,
                    "velocity": 0.5118110236220472,
                    "duration": 0.1759529999999927
                },
                {
                    "name": "A3",
                    "midi": 57,
                    "time": 381.4661040000063,
                    "velocity": 0.5118110236220472,
                    "duration": 0.1759529999999927
                },
                {
                    "name": "A4",
                    "midi": 69,
                    "time": 381.4661040000063,
                    "velocity": 0.6062992125984252,
                    "duration": 0.1759529999999927
                },
                {
                    "name": "G4",
                    "midi": 67,
                    "time": 381.6420570000063,
                    "velocity": 0.5433070866141733,
                    "duration": 0.3519059999999854
                },
                {
                    "name": "A#3",
                    "midi": 58,
                    "time": 381.6420570000063,
                    "velocity": 0.5433070866141733,
                    "duration": 0.3519059999999854
                },
                {
                    "name": "A#4",
                    "midi": 70,
                    "time": 381.6420570000063,
                    "velocity": 0.6456692913385826,
                    "duration": 0.3519059999999854
                },
                {
                    "name": "D#2",
                    "midi": 39,
                    "time": 381.99396300000626,
                    "velocity": 0.5118110236220472,
                    "duration": 0.1759529999999927
                },
                {
                    "name": "D#3",
                    "midi": 51,
                    "time": 381.99396300000626,
                    "velocity": 0.6062992125984252,
                    "duration": 0.1759529999999927
                },
                {
                    "name": "G2",
                    "midi": 43,
                    "time": 382.16991600000625,
                    "velocity": 0.48031496062992124,
                    "duration": 0.1759529999999927
                },
                {
                    "name": "G3",
                    "midi": 55,
                    "time": 382.16991600000625,
                    "velocity": 0.5669291338582677,
                    "duration": 0.1759529999999927
                },
                {
                    "name": "G#2",
                    "midi": 44,
                    "time": 382.34586900000625,
                    "velocity": 0.5354330708661418,
                    "duration": 0.1759529999999927
                },
                {
                    "name": "G#3",
                    "midi": 56,
                    "time": 382.34586900000625,
                    "velocity": 0.6299212598425197,
                    "duration": 0.1759529999999927
                },
                {
                    "name": "C3",
                    "midi": 48,
                    "time": 382.52182200000624,
                    "velocity": 0.4881889763779528,
                    "duration": 0.1759529999999927
                },
                {
                    "name": "C4",
                    "midi": 60,
                    "time": 382.52182200000624,
                    "velocity": 0.5748031496062992,
                    "duration": 0.1759529999999927
                },
                {
                    "name": "D#3",
                    "midi": 51,
                    "time": 382.69777500000623,
                    "velocity": 0.4881889763779528,
                    "duration": 0.1759529999999927
                },
                {
                    "name": "D#4",
                    "midi": 63,
                    "time": 382.69777500000623,
                    "velocity": 0.5748031496062992,
                    "duration": 0.1759529999999927
                },
                {
                    "name": "G#3",
                    "midi": 56,
                    "time": 382.8737280000062,
                    "velocity": 0.4881889763779528,
                    "duration": 0.1759529999999927
                },
                {
                    "name": "G#4",
                    "midi": 68,
                    "time": 382.8737280000062,
                    "velocity": 0.5748031496062992,
                    "duration": 0.1759529999999927
                },
                {
                    "name": "A#3",
                    "midi": 58,
                    "time": 383.0496810000062,
                    "velocity": 0.4881889763779528,
                    "duration": 0.3519059999999854
                },
                {
                    "name": "A#4",
                    "midi": 70,
                    "time": 383.0496810000062,
                    "velocity": 0.5748031496062992,
                    "duration": 0.3519059999999854
                },
                {
                    "name": "D#2",
                    "midi": 39,
                    "time": 383.4015870000062,
                    "velocity": 0.5118110236220472,
                    "duration": 0.1759529999999927
                },
                {
                    "name": "D#3",
                    "midi": 51,
                    "time": 383.4015870000062,
                    "velocity": 0.6062992125984252,
                    "duration": 0.1759529999999927
                },
                {
                    "name": "G2",
                    "midi": 43,
                    "time": 383.5775400000062,
                    "velocity": 0.48031496062992124,
                    "duration": 0.1759529999999927
                },
                {
                    "name": "G3",
                    "midi": 55,
                    "time": 383.5775400000062,
                    "velocity": 0.5669291338582677,
                    "duration": 0.1759529999999927
                },
                {
                    "name": "A#2",
                    "midi": 46,
                    "time": 383.7534930000062,
                    "velocity": 0.5354330708661418,
                    "duration": 0.1759529999999927
                },
                {
                    "name": "A#3",
                    "midi": 58,
                    "time": 383.7534930000062,
                    "velocity": 0.6299212598425197,
                    "duration": 0.1759529999999927
                },
                {
                    "name": "D3",
                    "midi": 50,
                    "time": 383.9294460000062,
                    "velocity": 0.4566929133858268,
                    "duration": 0.1759529999999927
                },
                {
                    "name": "D4",
                    "midi": 62,
                    "time": 383.9294460000062,
                    "velocity": 0.5433070866141733,
                    "duration": 0.1759529999999927
                },
                {
                    "name": "F3",
                    "midi": 53,
                    "time": 384.1053990000062,
                    "velocity": 0.4881889763779528,
                    "duration": 0.1759529999999927
                },
                {
                    "name": "F4",
                    "midi": 65,
                    "time": 384.1053990000062,
                    "velocity": 0.5748031496062992,
                    "duration": 0.1759529999999927
                },
                {
                    "name": "F#4",
                    "midi": 66,
                    "time": 384.28135200000617,
                    "velocity": 0.5118110236220472,
                    "duration": 0.1759529999999927
                },
                {
                    "name": "A3",
                    "midi": 57,
                    "time": 384.28135200000617,
                    "velocity": 0.5118110236220472,
                    "duration": 0.1759529999999927
                },
                {
                    "name": "A4",
                    "midi": 69,
                    "time": 384.28135200000617,
                    "velocity": 0.6062992125984252,
                    "duration": 0.1759529999999927
                },
                {
                    "name": "G4",
                    "midi": 67,
                    "time": 384.45730500000616,
                    "velocity": 0.5433070866141733,
                    "duration": 0.3519059999999854
                },
                {
                    "name": "A#3",
                    "midi": 58,
                    "time": 384.45730500000616,
                    "velocity": 0.5433070866141733,
                    "duration": 0.3519059999999854
                },
                {
                    "name": "A#4",
                    "midi": 70,
                    "time": 384.45730500000616,
                    "velocity": 0.6456692913385826,
                    "duration": 0.3519059999999854
                },
                {
                    "name": "D#2",
                    "midi": 39,
                    "time": 384.80921100000614,
                    "velocity": 0.5118110236220472,
                    "duration": 0.1759529999999927
                },
                {
                    "name": "D#3",
                    "midi": 51,
                    "time": 384.80921100000614,
                    "velocity": 0.6062992125984252,
                    "duration": 0.1759529999999927
                },
                {
                    "name": "G2",
                    "midi": 43,
                    "time": 384.98516400000614,
                    "velocity": 0.48031496062992124,
                    "duration": 0.1759529999999927
                },
                {
                    "name": "G3",
                    "midi": 55,
                    "time": 384.98516400000614,
                    "velocity": 0.5669291338582677,
                    "duration": 0.1759529999999927
                },
                {
                    "name": "G#2",
                    "midi": 44,
                    "time": 385.16111700000613,
                    "velocity": 0.5354330708661418,
                    "duration": 0.1759529999999927
                },
                {
                    "name": "G#3",
                    "midi": 56,
                    "time": 385.16111700000613,
                    "velocity": 0.6299212598425197,
                    "duration": 0.1759529999999927
                },
                {
                    "name": "C3",
                    "midi": 48,
                    "time": 385.3370700000061,
                    "velocity": 0.4881889763779528,
                    "duration": 0.1759529999999927
                },
                {
                    "name": "C4",
                    "midi": 60,
                    "time": 385.3370700000061,
                    "velocity": 0.5748031496062992,
                    "duration": 0.1759529999999927
                },
                {
                    "name": "D#3",
                    "midi": 51,
                    "time": 385.5130230000061,
                    "velocity": 0.4881889763779528,
                    "duration": 0.1759529999999927
                },
                {
                    "name": "D#4",
                    "midi": 63,
                    "time": 385.5130230000061,
                    "velocity": 0.5748031496062992,
                    "duration": 0.1759529999999927
                },
                {
                    "name": "G#3",
                    "midi": 56,
                    "time": 385.6889760000061,
                    "velocity": 0.4881889763779528,
                    "duration": 0.1759529999999927
                },
                {
                    "name": "G#4",
                    "midi": 68,
                    "time": 385.6889760000061,
                    "velocity": 0.5748031496062992,
                    "duration": 0.1759529999999927
                },
                {
                    "name": "A#3",
                    "midi": 58,
                    "time": 385.8649290000061,
                    "velocity": 0.4881889763779528,
                    "duration": 0.3519059999999854
                },
                {
                    "name": "A#4",
                    "midi": 70,
                    "time": 385.8649290000061,
                    "velocity": 0.5748031496062992,
                    "duration": 0.3519059999999854
                },
                {
                    "name": "D#4",
                    "midi": 63,
                    "time": 386.3927880000061,
                    "velocity": 0.4251968503937008,
                    "duration": 0.1759529999999927
                },
                {
                    "name": "D#5",
                    "midi": 75,
                    "time": 386.3927880000061,
                    "velocity": 0.5039370078740157,
                    "duration": 0.1759529999999927
                },
                {
                    "name": "D4",
                    "midi": 62,
                    "time": 386.56874100000607,
                    "velocity": 0.4015748031496063,
                    "duration": 0.08797650000002477
                },
                {
                    "name": "D5",
                    "midi": 74,
                    "time": 386.56874100000607,
                    "velocity": 0.5669291338582677,
                    "duration": 0.08797650000002477
                },
                {
                    "name": "F4",
                    "midi": 65,
                    "time": 386.7446940000061,
                    "velocity": 0.3464566929133858,
                    "duration": 0.08797650000002477
                },
                {
                    "name": "F5",
                    "midi": 77,
                    "time": 386.7446940000061,
                    "velocity": 0.4881889763779528,
                    "duration": 0.08797650000002477
                },
                {
                    "name": "C#4",
                    "midi": 61,
                    "time": 386.92064700000617,
                    "velocity": 0.4645669291338583,
                    "duration": 0.08797650000002477
                },
                {
                    "name": "C#5",
                    "midi": 73,
                    "time": 386.92064700000617,
                    "velocity": 0.5511811023622047,
                    "duration": 0.08797650000002477
                },
                {
                    "name": "F4",
                    "midi": 65,
                    "time": 387.0966000000062,
                    "velocity": 0.4330708661417323,
                    "duration": 0.08797650000002477
                },
                {
                    "name": "F5",
                    "midi": 77,
                    "time": 387.0966000000062,
                    "velocity": 0.5118110236220472,
                    "duration": 0.08797650000002477
                },
                {
                    "name": "C4",
                    "midi": 60,
                    "time": 387.27255300000627,
                    "velocity": 0.4015748031496063,
                    "duration": 0.08797650000002477
                },
                {
                    "name": "C5",
                    "midi": 72,
                    "time": 387.27255300000627,
                    "velocity": 0.5669291338582677,
                    "duration": 0.08797650000002477
                },
                {
                    "name": "F4",
                    "midi": 65,
                    "time": 387.4485060000063,
                    "velocity": 0.3464566929133858,
                    "duration": 0.08797650000002477
                },
                {
                    "name": "F5",
                    "midi": 77,
                    "time": 387.4485060000063,
                    "velocity": 0.4881889763779528,
                    "duration": 0.08797650000002477
                },
                {
                    "name": "B3",
                    "midi": 59,
                    "time": 387.62445900000637,
                    "velocity": 0.4645669291338583,
                    "duration": 0.08797650000002477
                },
                {
                    "name": "B4",
                    "midi": 71,
                    "time": 387.62445900000637,
                    "velocity": 0.5511811023622047,
                    "duration": 0.08797650000002477
                },
                {
                    "name": "D4",
                    "midi": 62,
                    "time": 387.8004120000064,
                    "velocity": 0.4330708661417323,
                    "duration": 0.08797650000002477
                },
                {
                    "name": "D5",
                    "midi": 74,
                    "time": 387.8004120000064,
                    "velocity": 0.5118110236220472,
                    "duration": 0.08797650000002477
                },
                {
                    "name": "G#3",
                    "midi": 56,
                    "time": 387.97636500000647,
                    "velocity": 0.48031496062992124,
                    "duration": 0.08797650000002477
                },
                {
                    "name": "G#4",
                    "midi": 68,
                    "time": 387.97636500000647,
                    "velocity": 0.5669291338582677,
                    "duration": 0.08797650000002477
                },
                {
                    "name": "B3",
                    "midi": 59,
                    "time": 388.1523180000065,
                    "velocity": 0.4094488188976378,
                    "duration": 0.08797650000002477
                },
                {
                    "name": "B4",
                    "midi": 71,
                    "time": 388.1523180000065,
                    "velocity": 0.4881889763779528,
                    "duration": 0.08797650000002477
                },
                {
                    "name": "F#3",
                    "midi": 54,
                    "time": 388.32827100000657,
                    "velocity": 0.5590551181102362,
                    "duration": 0.08797650000002477
                },
                {
                    "name": "F#4",
                    "midi": 66,
                    "time": 388.32827100000657,
                    "velocity": 0.5590551181102362,
                    "duration": 0.08797650000002477
                },
                {
                    "name": "B3",
                    "midi": 59,
                    "time": 388.5042240000066,
                    "velocity": 0.5196850393700787,
                    "duration": 0.08797650000002477
                },
                {
                    "name": "B4",
                    "midi": 71,
                    "time": 388.5042240000066,
                    "velocity": 0.5196850393700787,
                    "duration": 0.08797650000002477
                },
                {
                    "name": "E3",
                    "midi": 52,
                    "time": 388.68017700000667,
                    "velocity": 0.49606299212598426,
                    "duration": 0.08797650000002477
                },
                {
                    "name": "E4",
                    "midi": 64,
                    "time": 388.68017700000667,
                    "velocity": 0.5826771653543307,
                    "duration": 0.08797650000002477
                },
                {
                    "name": "G#3",
                    "midi": 56,
                    "time": 388.8561300000067,
                    "velocity": 0.4251968503937008,
                    "duration": 0.08797650000002477
                },
                {
                    "name": "G#4",
                    "midi": 68,
                    "time": 388.8561300000067,
                    "velocity": 0.5118110236220472,
                    "duration": 0.08797650000002477
                },
                {
                    "name": "D#3",
                    "midi": 51,
                    "time": 389.03208300000676,
                    "velocity": 0.5826771653543307,
                    "duration": 0.08797650000002477
                },
                {
                    "name": "D#4",
                    "midi": 63,
                    "time": 389.03208300000676,
                    "velocity": 0.5826771653543307,
                    "duration": 0.08797650000002477
                },
                {
                    "name": "G#3",
                    "midi": 56,
                    "time": 389.2080360000068,
                    "velocity": 0.5433070866141733,
                    "duration": 0.08797650000002477
                },
                {
                    "name": "G#4",
                    "midi": 68,
                    "time": 389.2080360000068,
                    "velocity": 0.5433070866141733,
                    "duration": 0.08797650000002477
                },
                {
                    "name": "E3",
                    "midi": 52,
                    "time": 389.38398900000686,
                    "velocity": 0.5118110236220472,
                    "duration": 0.08797650000002477
                },
                {
                    "name": "E4",
                    "midi": 64,
                    "time": 389.38398900000686,
                    "velocity": 0.6062992125984252,
                    "duration": 0.08797650000002477
                },
                {
                    "name": "G#3",
                    "midi": 56,
                    "time": 389.5599420000069,
                    "velocity": 0.4409448818897638,
                    "duration": 0.08797650000002477
                },
                {
                    "name": "G#4",
                    "midi": 68,
                    "time": 389.5599420000069,
                    "velocity": 0.5275590551181102,
                    "duration": 0.08797650000002477
                },
                {
                    "name": "C3",
                    "midi": 48,
                    "time": 389.73589500000696,
                    "velocity": 0.6062992125984252,
                    "duration": 0.08797650000002477
                },
                {
                    "name": "C4",
                    "midi": 60,
                    "time": 389.73589500000696,
                    "velocity": 0.6062992125984252,
                    "duration": 0.08797650000002477
                },
                {
                    "name": "G#3",
                    "midi": 56,
                    "time": 389.911848000007,
                    "velocity": 0.5669291338582677,
                    "duration": 0.08797650000002477
                },
                {
                    "name": "G#4",
                    "midi": 68,
                    "time": 389.911848000007,
                    "velocity": 0.5669291338582677,
                    "duration": 0.08797650000002477
                },
                {
                    "name": "B2",
                    "midi": 47,
                    "time": 390.08780100000706,
                    "velocity": 0.5354330708661418,
                    "duration": 0.08797650000002477
                },
                {
                    "name": "B3",
                    "midi": 59,
                    "time": 390.08780100000706,
                    "velocity": 0.6299212598425197,
                    "duration": 0.08797650000002477
                },
                {
                    "name": "D3",
                    "midi": 50,
                    "time": 390.2637540000071,
                    "velocity": 0.4566929133858268,
                    "duration": 0.08797650000002477
                },
                {
                    "name": "D4",
                    "midi": 62,
                    "time": 390.2637540000071,
                    "velocity": 0.5511811023622047,
                    "duration": 0.08797650000002477
                },
                {
                    "name": "G#2",
                    "midi": 44,
                    "time": 390.43970700000716,
                    "velocity": 0.6220472440944882,
                    "duration": 0.08797650000002477
                },
                {
                    "name": "G#3",
                    "midi": 56,
                    "time": 390.43970700000716,
                    "velocity": 0.6220472440944882,
                    "duration": 0.08797650000002477
                },
                {
                    "name": "B2",
                    "midi": 47,
                    "time": 390.6156600000072,
                    "velocity": 0.5826771653543307,
                    "duration": 0.08797650000002477
                },
                {
                    "name": "B3",
                    "midi": 59,
                    "time": 390.6156600000072,
                    "velocity": 0.5826771653543307,
                    "duration": 0.08797650000002477
                },
                {
                    "name": "F2",
                    "midi": 41,
                    "time": 390.79161300000726,
                    "velocity": 0.5511811023622047,
                    "duration": 0.08797650000002477
                },
                {
                    "name": "F3",
                    "midi": 53,
                    "time": 390.79161300000726,
                    "velocity": 0.6535433070866141,
                    "duration": 0.08797650000002477
                },
                {
                    "name": "G#2",
                    "midi": 44,
                    "time": 390.9675660000073,
                    "velocity": 0.47244094488188976,
                    "duration": 0.08797650000002477
                },
                {
                    "name": "G#3",
                    "midi": 56,
                    "time": 390.9675660000073,
                    "velocity": 0.5669291338582677,
                    "duration": 0.08797650000002477
                },
                {
                    "name": "D2",
                    "midi": 38,
                    "time": 391.14351900000736,
                    "velocity": 0.6535433070866141,
                    "duration": 0.08797650000002477
                },
                {
                    "name": "D3",
                    "midi": 50,
                    "time": 391.14351900000736,
                    "velocity": 0.6535433070866141,
                    "duration": 0.08797650000002477
                },
                {
                    "name": "F2",
                    "midi": 41,
                    "time": 391.3194720000074,
                    "velocity": 0.6220472440944882,
                    "duration": 0.08797650000002477
                },
                {
                    "name": "F3",
                    "midi": 53,
                    "time": 391.3194720000074,
                    "velocity": 0.6220472440944882,
                    "duration": 0.08797650000002477
                },
                {
                    "name": "C#2",
                    "midi": 37,
                    "time": 391.49542500000746,
                    "velocity": 0.5984251968503937,
                    "duration": 0.08797650000002477
                },
                {
                    "name": "C#3",
                    "midi": 49,
                    "time": 391.49542500000746,
                    "velocity": 0.7086614173228346,
                    "duration": 0.08797650000002477
                },
                {
                    "name": "F2",
                    "midi": 41,
                    "time": 391.6713780000075,
                    "velocity": 0.5118110236220472,
                    "duration": 0.08797650000002477
                },
                {
                    "name": "F3",
                    "midi": 53,
                    "time": 391.6713780000075,
                    "velocity": 0.6220472440944882,
                    "duration": 0.08797650000002477
                },
                {
                    "name": "B1",
                    "midi": 35,
                    "time": 391.84733100000756,
                    "velocity": 0.7086614173228346,
                    "duration": 0.08797650000002477
                },
                {
                    "name": "B2",
                    "midi": 47,
                    "time": 391.84733100000756,
                    "velocity": 0.7086614173228346,
                    "duration": 0.08797650000002477
                },
                {
                    "name": "F2",
                    "midi": 41,
                    "time": 392.0232840000076,
                    "velocity": 0.6692913385826772,
                    "duration": 0.08797650000002477
                },
                {
                    "name": "F3",
                    "midi": 53,
                    "time": 392.0232840000076,
                    "velocity": 0.6692913385826772,
                    "duration": 0.08797650000002477
                },
                {
                    "name": "A#1",
                    "midi": 34,
                    "time": 392.19923700000766,
                    "velocity": 0.5669291338582677,
                    "duration": 0.1759529999999927
                },
                {
                    "name": "A#2",
                    "midi": 46,
                    "time": 392.19923700000766,
                    "velocity": 0.6692913385826772,
                    "duration": 0.1759529999999927
                },
                {
                    "name": "F4",
                    "midi": 65,
                    "time": 392.37519000000765,
                    "velocity": 0.5669291338582677,
                    "duration": 0.1759529999999927
                },
                {
                    "name": "D4",
                    "midi": 62,
                    "time": 392.37519000000765,
                    "velocity": 0.48031496062992124,
                    "duration": 0.1759529999999927
                },
                {
                    "name": "G#3",
                    "midi": 56,
                    "time": 392.37519000000765,
                    "velocity": 0.48031496062992124,
                    "duration": 0.1759529999999927
                },
                {
                    "name": "A#2",
                    "midi": 46,
                    "time": 392.55114300000764,
                    "velocity": 0.5196850393700787,
                    "duration": 0.08797650000002477
                },
                {
                    "name": "A#3",
                    "midi": 58,
                    "time": 392.55114300000764,
                    "velocity": 0.6141732283464567,
                    "duration": 0.08797650000002477
                },
                {
                    "name": "F4",
                    "midi": 65,
                    "time": 392.7270960000077,
                    "velocity": 0.5748031496062992,
                    "duration": 0.08797650000002477
                },
                {
                    "name": "D4",
                    "midi": 62,
                    "time": 392.7270960000077,
                    "velocity": 0.48031496062992124,
                    "duration": 0.08797650000002477
                },
                {
                    "name": "G#3",
                    "midi": 56,
                    "time": 392.7270960000077,
                    "velocity": 0.48031496062992124,
                    "duration": 0.08797650000002477
                },
                {
                    "name": "A#1",
                    "midi": 34,
                    "time": 392.90304900000774,
                    "velocity": 0.5433070866141733,
                    "duration": 0.08797650000002477
                },
                {
                    "name": "A#2",
                    "midi": 46,
                    "time": 392.90304900000774,
                    "velocity": 0.6456692913385826,
                    "duration": 0.08797650000002477
                },
                {
                    "name": "G4",
                    "midi": 67,
                    "time": 393.0790020000078,
                    "velocity": 0.5669291338582677,
                    "duration": 0.08797650000002477
                },
                {
                    "name": "D#4",
                    "midi": 63,
                    "time": 393.0790020000078,
                    "velocity": 0.48031496062992124,
                    "duration": 0.08797650000002477
                },
                {
                    "name": "G3",
                    "midi": 55,
                    "time": 393.0790020000078,
                    "velocity": 0.48031496062992124,
                    "duration": 0.08797650000002477
                },
                {
                    "name": "A#2",
                    "midi": 46,
                    "time": 393.25495500000784,
                    "velocity": 0.5354330708661418,
                    "duration": 0.1759529999999927
                },
                {
                    "name": "A#3",
                    "midi": 58,
                    "time": 393.25495500000784,
                    "velocity": 0.6299212598425197,
                    "duration": 0.1759529999999927
                },
                {
                    "name": "G4",
                    "midi": 67,
                    "time": 393.43090800000783,
                    "velocity": 0.5826771653543307,
                    "duration": 0.1759529999999927
                },
                {
                    "name": "D#4",
                    "midi": 63,
                    "time": 393.43090800000783,
                    "velocity": 0.4881889763779528,
                    "duration": 0.1759529999999927
                },
                {
                    "name": "G3",
                    "midi": 55,
                    "time": 393.43090800000783,
                    "velocity": 0.4881889763779528,
                    "duration": 0.1759529999999927
                },
                {
                    "name": "A#1",
                    "midi": 34,
                    "time": 393.6068610000078,
                    "velocity": 0.5669291338582677,
                    "duration": 0.1759529999999927
                },
                {
                    "name": "A#2",
                    "midi": 46,
                    "time": 393.6068610000078,
                    "velocity": 0.6692913385826772,
                    "duration": 0.1759529999999927
                },
                {
                    "name": "F4",
                    "midi": 65,
                    "time": 393.7828140000078,
                    "velocity": 0.5669291338582677,
                    "duration": 0.1759529999999927
                },
                {
                    "name": "D4",
                    "midi": 62,
                    "time": 393.7828140000078,
                    "velocity": 0.48031496062992124,
                    "duration": 0.1759529999999927
                },
                {
                    "name": "G#3",
                    "midi": 56,
                    "time": 393.7828140000078,
                    "velocity": 0.48031496062992124,
                    "duration": 0.1759529999999927
                },
                {
                    "name": "A#2",
                    "midi": 46,
                    "time": 393.9587670000078,
                    "velocity": 0.5196850393700787,
                    "duration": 0.08797650000002477
                },
                {
                    "name": "A#3",
                    "midi": 58,
                    "time": 393.9587670000078,
                    "velocity": 0.6141732283464567,
                    "duration": 0.08797650000002477
                },
                {
                    "name": "F4",
                    "midi": 65,
                    "time": 394.13472000000786,
                    "velocity": 0.5748031496062992,
                    "duration": 0.08797650000002477
                },
                {
                    "name": "D4",
                    "midi": 62,
                    "time": 394.13472000000786,
                    "velocity": 0.48031496062992124,
                    "duration": 0.08797650000002477
                },
                {
                    "name": "G#3",
                    "midi": 56,
                    "time": 394.13472000000786,
                    "velocity": 0.48031496062992124,
                    "duration": 0.08797650000002477
                },
                {
                    "name": "A#1",
                    "midi": 34,
                    "time": 394.3106730000079,
                    "velocity": 0.5433070866141733,
                    "duration": 0.08797650000002477
                },
                {
                    "name": "A#2",
                    "midi": 46,
                    "time": 394.3106730000079,
                    "velocity": 0.6456692913385826,
                    "duration": 0.08797650000002477
                },
                {
                    "name": "G4",
                    "midi": 67,
                    "time": 394.48662600000796,
                    "velocity": 0.5669291338582677,
                    "duration": 0.08797650000002477
                },
                {
                    "name": "D#4",
                    "midi": 63,
                    "time": 394.48662600000796,
                    "velocity": 0.48031496062992124,
                    "duration": 0.08797650000002477
                },
                {
                    "name": "G3",
                    "midi": 55,
                    "time": 394.48662600000796,
                    "velocity": 0.48031496062992124,
                    "duration": 0.08797650000002477
                },
                {
                    "name": "A#2",
                    "midi": 46,
                    "time": 394.662579000008,
                    "velocity": 0.5354330708661418,
                    "duration": 0.1759529999999927
                },
                {
                    "name": "A#3",
                    "midi": 58,
                    "time": 394.662579000008,
                    "velocity": 0.6299212598425197,
                    "duration": 0.1759529999999927
                },
                {
                    "name": "G4",
                    "midi": 67,
                    "time": 394.838532000008,
                    "velocity": 0.5826771653543307,
                    "duration": 0.1759529999999927
                },
                {
                    "name": "D#4",
                    "midi": 63,
                    "time": 394.838532000008,
                    "velocity": 0.4881889763779528,
                    "duration": 0.1759529999999927
                },
                {
                    "name": "G3",
                    "midi": 55,
                    "time": 394.838532000008,
                    "velocity": 0.4881889763779528,
                    "duration": 0.1759529999999927
                },
                {
                    "name": "C2",
                    "midi": 36,
                    "time": 395.014485000008,
                    "velocity": 0.5590551181102362,
                    "duration": 0.08797650000002477
                },
                {
                    "name": "C3",
                    "midi": 48,
                    "time": 395.014485000008,
                    "velocity": 0.6614173228346457,
                    "duration": 0.08797650000002477
                },
                {
                    "name": "B1",
                    "midi": 35,
                    "time": 395.19043800000804,
                    "velocity": 0.5196850393700787,
                    "duration": 0.08797650000002477
                },
                {
                    "name": "B2",
                    "midi": 47,
                    "time": 395.19043800000804,
                    "velocity": 0.6141732283464567,
                    "duration": 0.08797650000002477
                },
                {
                    "name": "A#1",
                    "midi": 34,
                    "time": 395.3663910000081,
                    "velocity": 0.5511811023622047,
                    "duration": 0.08797650000002477
                },
                {
                    "name": "A#2",
                    "midi": 46,
                    "time": 395.3663910000081,
                    "velocity": 0.6535433070866141,
                    "duration": 0.08797650000002477
                },
                {
                    "name": "G#3",
                    "midi": 56,
                    "time": 395.71829700000814,
                    "velocity": 0.6062992125984252,
                    "duration": 0.3519059999999854
                },
                {
                    "name": "G#4",
                    "midi": 68,
                    "time": 395.71829700000814,
                    "velocity": 0.7165354330708661,
                    "duration": 0.3519059999999854
                },
                {
                    "name": "G3",
                    "midi": 55,
                    "time": 396.0702030000081,
                    "velocity": 0.5826771653543307,
                    "duration": 0.08797650000002477
                },
                {
                    "name": "G4",
                    "midi": 67,
                    "time": 396.0702030000081,
                    "velocity": 0.6929133858267716,
                    "duration": 0.08797650000002477
                },
                {
                    "name": "F3",
                    "midi": 53,
                    "time": 396.24615600000817,
                    "velocity": 0.5433070866141733,
                    "duration": 0.08797650000002477
                },
                {
                    "name": "F4",
                    "midi": 65,
                    "time": 396.24615600000817,
                    "velocity": 0.6456692913385826,
                    "duration": 0.08797650000002477
                },
                {
                    "name": "A#3",
                    "midi": 58,
                    "time": 396.4221090000082,
                    "velocity": 0.5905511811023622,
                    "duration": 0.08797650000002477
                },
                {
                    "name": "A#4",
                    "midi": 70,
                    "time": 396.4221090000082,
                    "velocity": 0.7086614173228346,
                    "duration": 0.08797650000002477
                },
                {
                    "name": "D3",
                    "midi": 50,
                    "time": 396.59806200000827,
                    "velocity": 0.5354330708661418,
                    "duration": 0.08797650000002477
                },
                {
                    "name": "D4",
                    "midi": 62,
                    "time": 396.59806200000827,
                    "velocity": 0.6377952755905512,
                    "duration": 0.08797650000002477
                },
                {
                    "name": "D#3",
                    "midi": 51,
                    "time": 396.7740150000083,
                    "velocity": 0.5826771653543307,
                    "duration": 0.3519059999999854
                },
                {
                    "name": "D#4",
                    "midi": 63,
                    "time": 396.7740150000083,
                    "velocity": 0.6929133858267716,
                    "duration": 0.3519059999999854
                },
                {
                    "name": "G#2",
                    "midi": 44,
                    "time": 397.1259210000083,
                    "velocity": 0.6062992125984252,
                    "duration": 0.3519059999999854
                },
                {
                    "name": "G#3",
                    "midi": 56,
                    "time": 397.1259210000083,
                    "velocity": 0.7165354330708661,
                    "duration": 0.3519059999999854
                },
                {
                    "name": "G2",
                    "midi": 43,
                    "time": 397.4778270000083,
                    "velocity": 0.5826771653543307,
                    "duration": 0.08797650000002477
                },
                {
                    "name": "G3",
                    "midi": 55,
                    "time": 397.4778270000083,
                    "velocity": 0.6929133858267716,
                    "duration": 0.08797650000002477
                },
                {
                    "name": "F2",
                    "midi": 41,
                    "time": 397.65378000000834,
                    "velocity": 0.5433070866141733,
                    "duration": 0.08797650000002477
                },
                {
                    "name": "F3",
                    "midi": 53,
                    "time": 397.65378000000834,
                    "velocity": 0.6456692913385826,
                    "duration": 0.08797650000002477
                },
                {
                    "name": "A#2",
                    "midi": 46,
                    "time": 397.8297330000084,
                    "velocity": 0.5905511811023622,
                    "duration": 0.08797650000002477
                },
                {
                    "name": "A#3",
                    "midi": 58,
                    "time": 397.8297330000084,
                    "velocity": 0.7086614173228346,
                    "duration": 0.08797650000002477
                },
                {
                    "name": "D2",
                    "midi": 38,
                    "time": 398.00568600000844,
                    "velocity": 0.5354330708661418,
                    "duration": 0.08797650000002477
                },
                {
                    "name": "D3",
                    "midi": 50,
                    "time": 398.00568600000844,
                    "velocity": 0.6377952755905512,
                    "duration": 0.08797650000002477
                },
                {
                    "name": "D#2",
                    "midi": 39,
                    "time": 398.1816390000085,
                    "velocity": 0.5826771653543307,
                    "duration": 0.3519059999999854
                },
                {
                    "name": "D#3",
                    "midi": 51,
                    "time": 398.1816390000085,
                    "velocity": 0.6929133858267716,
                    "duration": 0.3519059999999854
                },
                {
                    "name": "C2",
                    "midi": 36,
                    "time": 398.5335450000085,
                    "velocity": 0.5590551181102362,
                    "duration": 0.08797650000002477
                },
                {
                    "name": "C3",
                    "midi": 48,
                    "time": 398.5335450000085,
                    "velocity": 0.6614173228346457,
                    "duration": 0.08797650000002477
                },
                {
                    "name": "B1",
                    "midi": 35,
                    "time": 398.7094980000085,
                    "velocity": 0.5196850393700787,
                    "duration": 0.08797650000002477
                },
                {
                    "name": "B2",
                    "midi": 47,
                    "time": 398.7094980000085,
                    "velocity": 0.6141732283464567,
                    "duration": 0.08797650000002477
                },
                {
                    "name": "A#1",
                    "midi": 34,
                    "time": 398.8854510000086,
                    "velocity": 0.5511811023622047,
                    "duration": 0.08797650000002477
                },
                {
                    "name": "A#2",
                    "midi": 46,
                    "time": 398.8854510000086,
                    "velocity": 0.6535433070866141,
                    "duration": 0.08797650000002477
                },
                {
                    "name": "C#2",
                    "midi": 37,
                    "time": 399.2373570000086,
                    "velocity": 0.5669291338582677,
                    "duration": 0.1759529999999927
                },
                {
                    "name": "C#3",
                    "midi": 49,
                    "time": 399.2373570000086,
                    "velocity": 0.6692913385826772,
                    "duration": 0.1759529999999927
                },
                {
                    "name": "F4",
                    "midi": 65,
                    "time": 399.4133100000086,
                    "velocity": 0.5669291338582677,
                    "duration": 0.1759529999999927
                },
                {
                    "name": "C#4",
                    "midi": 61,
                    "time": 399.4133100000086,
                    "velocity": 0.48031496062992124,
                    "duration": 0.1759529999999927
                },
                {
                    "name": "A#3",
                    "midi": 58,
                    "time": 399.4133100000086,
                    "velocity": 0.48031496062992124,
                    "duration": 0.1759529999999927
                },
                {
                    "name": "A#2",
                    "midi": 46,
                    "time": 399.5892630000086,
                    "velocity": 0.5196850393700787,
                    "duration": 0.08797650000002477
                },
                {
                    "name": "A#3",
                    "midi": 58,
                    "time": 399.5892630000086,
                    "velocity": 0.6141732283464567,
                    "duration": 0.08797650000002477
                },
                {
                    "name": "F4",
                    "midi": 65,
                    "time": 399.76521600000865,
                    "velocity": 0.5748031496062992,
                    "duration": 0.08797650000002477
                },
                {
                    "name": "C#4",
                    "midi": 61,
                    "time": 399.76521600000865,
                    "velocity": 0.48031496062992124,
                    "duration": 0.08797650000002477
                },
                {
                    "name": "A#3",
                    "midi": 58,
                    "time": 399.76521600000865,
                    "velocity": 0.48031496062992124,
                    "duration": 0.08797650000002477
                },
                {
                    "name": "D#2",
                    "midi": 39,
                    "time": 399.9411690000087,
                    "velocity": 0.5669291338582677,
                    "duration": 0.1759529999999927
                },
                {
                    "name": "D#3",
                    "midi": 51,
                    "time": 399.9411690000087,
                    "velocity": 0.6692913385826772,
                    "duration": 0.1759529999999927
                },
                {
                    "name": "G4",
                    "midi": 67,
                    "time": 400.1171220000087,
                    "velocity": 0.5669291338582677,
                    "duration": 0.13196475000000873
                },
                {
                    "name": "D#4",
                    "midi": 63,
                    "time": 400.1171220000087,
                    "velocity": 0.48031496062992124,
                    "duration": 0.13196475000000873
                },
                {
                    "name": "A#3",
                    "midi": 58,
                    "time": 400.1171220000087,
                    "velocity": 0.48031496062992124,
                    "duration": 0.13196475000000873
                },
                {
                    "name": "C#2",
                    "midi": 37,
                    "time": 400.2930750000087,
                    "velocity": 0.5669291338582677,
                    "duration": 0.1759529999999927
                },
                {
                    "name": "C#3",
                    "midi": 49,
                    "time": 400.2930750000087,
                    "velocity": 0.6692913385826772,
                    "duration": 0.1759529999999927
                },
                {
                    "name": "A#3",
                    "midi": 58,
                    "time": 400.4690280000087,
                    "velocity": 0.48031496062992124,
                    "duration": 0.13196475000000873
                },
                {
                    "name": "F4",
                    "midi": 65,
                    "time": 400.4690280000087,
                    "velocity": 0.5669291338582677,
                    "duration": 0.13196475000000873
                },
                {
                    "name": "C#4",
                    "midi": 61,
                    "time": 400.4690280000087,
                    "velocity": 0.48031496062992124,
                    "duration": 0.13196475000000873
                },
                {
                    "name": "C2",
                    "midi": 36,
                    "time": 400.64498100000867,
                    "velocity": 0.5590551181102362,
                    "duration": 0.08797650000002477
                },
                {
                    "name": "C3",
                    "midi": 48,
                    "time": 400.64498100000867,
                    "velocity": 0.6614173228346457,
                    "duration": 0.08797650000002477
                },
                {
                    "name": "B1",
                    "midi": 35,
                    "time": 400.8209340000087,
                    "velocity": 0.5196850393700787,
                    "duration": 0.08797650000002477
                },
                {
                    "name": "B2",
                    "midi": 47,
                    "time": 400.8209340000087,
                    "velocity": 0.6141732283464567,
                    "duration": 0.08797650000002477
                },
                {
                    "name": "A#1",
                    "midi": 34,
                    "time": 400.99688700000877,
                    "velocity": 0.5511811023622047,
                    "duration": 0.08797650000002477
                },
                {
                    "name": "A#2",
                    "midi": 46,
                    "time": 400.99688700000877,
                    "velocity": 0.6535433070866141,
                    "duration": 0.08797650000002477
                },
                {
                    "name": "C#2",
                    "midi": 37,
                    "time": 401.3487930000088,
                    "velocity": 0.5669291338582677,
                    "duration": 0.1759529999999927
                },
                {
                    "name": "C#3",
                    "midi": 49,
                    "time": 401.3487930000088,
                    "velocity": 0.6692913385826772,
                    "duration": 0.1759529999999927
                },
                {
                    "name": "F4",
                    "midi": 65,
                    "time": 401.5247460000088,
                    "velocity": 0.5669291338582677,
                    "duration": 0.1759529999999927
                },
                {
                    "name": "C#4",
                    "midi": 61,
                    "time": 401.5247460000088,
                    "velocity": 0.48031496062992124,
                    "duration": 0.1759529999999927
                },
                {
                    "name": "A#3",
                    "midi": 58,
                    "time": 401.5247460000088,
                    "velocity": 0.48031496062992124,
                    "duration": 0.1759529999999927
                },
                {
                    "name": "C#2",
                    "midi": 37,
                    "time": 401.7006990000088,
                    "velocity": 0.5196850393700787,
                    "duration": 0.08797650000002477
                },
                {
                    "name": "C#3",
                    "midi": 49,
                    "time": 401.7006990000088,
                    "velocity": 0.6141732283464567,
                    "duration": 0.08797650000002477
                },
                {
                    "name": "F4",
                    "midi": 65,
                    "time": 401.87665200000885,
                    "velocity": 0.5748031496062992,
                    "duration": 0.08797650000002477
                },
                {
                    "name": "C#4",
                    "midi": 61,
                    "time": 401.87665200000885,
                    "velocity": 0.48031496062992124,
                    "duration": 0.08797650000002477
                },
                {
                    "name": "A#3",
                    "midi": 58,
                    "time": 401.87665200000885,
                    "velocity": 0.48031496062992124,
                    "duration": 0.08797650000002477
                },
                {
                    "name": "C2",
                    "midi": 36,
                    "time": 402.0526050000089,
                    "velocity": 0.5669291338582677,
                    "duration": 0.08797650000002477
                },
                {
                    "name": "C3",
                    "midi": 48,
                    "time": 402.0526050000089,
                    "velocity": 0.6692913385826772,
                    "duration": 0.08797650000002477
                },
                {
                    "name": "E4",
                    "midi": 64,
                    "time": 402.22855800000895,
                    "velocity": 0.5669291338582677,
                    "duration": 0.08797650000002477
                },
                {
                    "name": "A#3",
                    "midi": 58,
                    "time": 402.22855800000895,
                    "velocity": 0.48031496062992124,
                    "duration": 0.08797650000002477
                },
                {
                    "name": "G3",
                    "midi": 55,
                    "time": 402.22855800000895,
                    "velocity": 0.48031496062992124,
                    "duration": 0.08797650000002477
                },
                {
                    "name": "F3",
                    "midi": 53,
                    "time": 402.404511000009,
                    "velocity": 0.6141732283464567,
                    "duration": 0.08797650000002477
                },
                {
                    "name": "F2",
                    "midi": 41,
                    "time": 402.404511000009,
                    "velocity": 0.5196850393700787,
                    "duration": 0.08797650000002477
                },
                {
                    "name": "F4",
                    "midi": 65,
                    "time": 402.58046400000904,
                    "velocity": 0.5748031496062992,
                    "duration": 0.08797650000002477
                },
                {
                    "name": "D#4",
                    "midi": 63,
                    "time": 402.58046400000904,
                    "velocity": 0.48031496062992124,
                    "duration": 0.08797650000002477
                },
                {
                    "name": "A3",
                    "midi": 57,
                    "time": 402.58046400000904,
                    "velocity": 0.48031496062992124,
                    "duration": 0.08797650000002477
                },
                {
                    "name": "C2",
                    "midi": 36,
                    "time": 402.7564170000091,
                    "velocity": 0.5590551181102362,
                    "duration": 0.08797650000002477
                },
                {
                    "name": "C3",
                    "midi": 48,
                    "time": 402.7564170000091,
                    "velocity": 0.6614173228346457,
                    "duration": 0.08797650000002477
                },
                {
                    "name": "B1",
                    "midi": 35,
                    "time": 402.93237000000914,
                    "velocity": 0.5196850393700787,
                    "duration": 0.08797650000002477
                },
                {
                    "name": "B2",
                    "midi": 47,
                    "time": 402.93237000000914,
                    "velocity": 0.6141732283464567,
                    "duration": 0.08797650000002477
                },
                {
                    "name": "A#1",
                    "midi": 34,
                    "time": 403.1083230000092,
                    "velocity": 0.5511811023622047,
                    "duration": 0.08797650000002477
                },
                {
                    "name": "A#2",
                    "midi": 46,
                    "time": 403.1083230000092,
                    "velocity": 0.6535433070866141,
                    "duration": 0.08797650000002477
                },
                {
                    "name": "F4",
                    "midi": 65,
                    "time": 403.46022900000924,
                    "velocity": 0.7165354330708661,
                    "duration": 0.3519059999999854
                },
                {
                    "name": "C#4",
                    "midi": 61,
                    "time": 403.46022900000924,
                    "velocity": 0.6062992125984252,
                    "duration": 0.3519059999999854
                },
                {
                    "name": "F3",
                    "midi": 53,
                    "time": 403.46022900000924,
                    "velocity": 0.6062992125984252,
                    "duration": 0.3519059999999854
                },
                {
                    "name": "A#3",
                    "midi": 58,
                    "time": 403.46022900000924,
                    "velocity": 0.6062992125984252,
                    "duration": 0.3519059999999854
                },
                {
                    "name": "E3",
                    "midi": 52,
                    "time": 403.8121350000092,
                    "velocity": 0.5826771653543307,
                    "duration": 0.08797650000002477
                },
                {
                    "name": "E4",
                    "midi": 64,
                    "time": 403.8121350000092,
                    "velocity": 0.6929133858267716,
                    "duration": 0.08797650000002477
                },
                {
                    "name": "F3",
                    "midi": 53,
                    "time": 403.98808800000927,
                    "velocity": 0.5433070866141733,
                    "duration": 0.08797650000002477
                },
                {
                    "name": "F4",
                    "midi": 65,
                    "time": 403.98808800000927,
                    "velocity": 0.6456692913385826,
                    "duration": 0.08797650000002477
                },
                {
                    "name": "D#4",
                    "midi": 63,
                    "time": 404.1640410000093,
                    "velocity": 0.6062992125984252,
                    "duration": 0.3519059999999854
                },
                {
                    "name": "G4",
                    "midi": 67,
                    "time": 404.1640410000093,
                    "velocity": 0.7165354330708661,
                    "duration": 0.3519059999999854
                },
                {
                    "name": "G3",
                    "midi": 55,
                    "time": 404.1640410000093,
                    "velocity": 0.6062992125984252,
                    "duration": 0.3519059999999854
                },
                {
                    "name": "A#3",
                    "midi": 58,
                    "time": 404.1640410000093,
                    "velocity": 0.6062992125984252,
                    "duration": 0.3519059999999854
                },
                {
                    "name": "C#4",
                    "midi": 61,
                    "time": 404.5159470000093,
                    "velocity": 0.5826771653543307,
                    "duration": 0.3519059999999854
                },
                {
                    "name": "F3",
                    "midi": 53,
                    "time": 404.5159470000093,
                    "velocity": 0.5826771653543307,
                    "duration": 0.3519059999999854
                },
                {
                    "name": "A#3",
                    "midi": 58,
                    "time": 404.5159470000093,
                    "velocity": 0.5826771653543307,
                    "duration": 0.3519059999999854
                },
                {
                    "name": "F4",
                    "midi": 65,
                    "time": 404.5159470000093,
                    "velocity": 0.6929133858267716,
                    "duration": 0.3519059999999854
                },
                {
                    "name": "C2",
                    "midi": 36,
                    "time": 404.8678530000093,
                    "velocity": 0.5590551181102362,
                    "duration": 0.08797650000002477
                },
                {
                    "name": "C3",
                    "midi": 48,
                    "time": 404.8678530000093,
                    "velocity": 0.6614173228346457,
                    "duration": 0.08797650000002477
                },
                {
                    "name": "B1",
                    "midi": 35,
                    "time": 405.04380600000934,
                    "velocity": 0.5196850393700787,
                    "duration": 0.08797650000002477
                },
                {
                    "name": "B2",
                    "midi": 47,
                    "time": 405.04380600000934,
                    "velocity": 0.6141732283464567,
                    "duration": 0.08797650000002477
                },
                {
                    "name": "A#1",
                    "midi": 34,
                    "time": 405.2197590000094,
                    "velocity": 0.5511811023622047,
                    "duration": 0.08797650000002477
                },
                {
                    "name": "A#2",
                    "midi": 46,
                    "time": 405.2197590000094,
                    "velocity": 0.6535433070866141,
                    "duration": 0.08797650000002477
                },
                {
                    "name": "G3",
                    "midi": 55,
                    "time": 405.57166500000943,
                    "velocity": 0.5354330708661418,
                    "duration": 0.11730199999999513
                },
                {
                    "name": "G4",
                    "midi": 67,
                    "time": 405.57166500000943,
                    "velocity": 0.6377952755905512,
                    "duration": 0.11730199999999513
                },
                {
                    "name": "F3",
                    "midi": 53,
                    "time": 405.6889670000094,
                    "velocity": 0.44881889763779526,
                    "duration": 0.11730199999999513
                },
                {
                    "name": "F4",
                    "midi": 65,
                    "time": 405.6889670000094,
                    "velocity": 0.5354330708661418,
                    "duration": 0.11730199999999513
                },
                {
                    "name": "E3",
                    "midi": 52,
                    "time": 405.8062690000094,
                    "velocity": 0.44881889763779526,
                    "duration": 0.11730199999999513
                },
                {
                    "name": "E4",
                    "midi": 64,
                    "time": 405.8062690000094,
                    "velocity": 0.5354330708661418,
                    "duration": 0.11730199999999513
                },
                {
                    "name": "D#3",
                    "midi": 51,
                    "time": 405.9235710000094,
                    "velocity": 0.49606299212598426,
                    "duration": 0.11730199999999513
                },
                {
                    "name": "D#4",
                    "midi": 63,
                    "time": 405.9235710000094,
                    "velocity": 0.5905511811023622,
                    "duration": 0.11730199999999513
                },
                {
                    "name": "D3",
                    "midi": 50,
                    "time": 406.0408730000094,
                    "velocity": 0.4645669291338583,
                    "duration": 0.11730199999999513
                },
                {
                    "name": "D4",
                    "midi": 62,
                    "time": 406.0408730000094,
                    "velocity": 0.5511811023622047,
                    "duration": 0.11730199999999513
                },
                {
                    "name": "C#3",
                    "midi": 49,
                    "time": 406.1581750000094,
                    "velocity": 0.4645669291338583,
                    "duration": 0.11730199999999513
                },
                {
                    "name": "C#4",
                    "midi": 61,
                    "time": 406.1581750000094,
                    "velocity": 0.5511811023622047,
                    "duration": 0.11730199999999513
                },
                {
                    "name": "G3",
                    "midi": 55,
                    "time": 406.2754770000094,
                    "velocity": 0.6062992125984252,
                    "duration": 0.3519059999999854
                },
                {
                    "name": "C4",
                    "midi": 60,
                    "time": 406.2754770000094,
                    "velocity": 0.7165354330708661,
                    "duration": 0.3519059999999854
                },
                {
                    "name": "C3",
                    "midi": 48,
                    "time": 406.2754770000094,
                    "velocity": 0.6062992125984252,
                    "duration": 0.3519059999999854
                },
                {
                    "name": "E3",
                    "midi": 52,
                    "time": 406.2754770000094,
                    "velocity": 0.6062992125984252,
                    "duration": 0.3519059999999854
                },
                {
                    "name": "C3",
                    "midi": 48,
                    "time": 406.6273830000094,
                    "velocity": 0.5826771653543307,
                    "duration": 0.3519059999999854
                },
                {
                    "name": "F2",
                    "midi": 41,
                    "time": 406.6273830000094,
                    "velocity": 0.5826771653543307,
                    "duration": 0.3519059999999854
                },
                {
                    "name": "A2",
                    "midi": 45,
                    "time": 406.6273830000094,
                    "velocity": 0.5826771653543307,
                    "duration": 0.3519059999999854
                },
                {
                    "name": "F3",
                    "midi": 53,
                    "time": 406.6273830000094,
                    "velocity": 0.6929133858267716,
                    "duration": 0.3519059999999854
                },
                {
                    "name": "C2",
                    "midi": 36,
                    "time": 406.9792890000094,
                    "velocity": 0.5590551181102362,
                    "duration": 0.08797650000002477
                },
                {
                    "name": "C3",
                    "midi": 48,
                    "time": 406.9792890000094,
                    "velocity": 0.6614173228346457,
                    "duration": 0.08797650000002477
                },
                {
                    "name": "B1",
                    "midi": 35,
                    "time": 407.1552420000094,
                    "velocity": 0.5196850393700787,
                    "duration": 0.08797650000002477
                },
                {
                    "name": "B2",
                    "midi": 47,
                    "time": 407.1552420000094,
                    "velocity": 0.6141732283464567,
                    "duration": 0.08797650000002477
                },
                {
                    "name": "A#1",
                    "midi": 34,
                    "time": 407.3311950000095,
                    "velocity": 0.5511811023622047,
                    "duration": 0.08797650000002477
                },
                {
                    "name": "A#2",
                    "midi": 46,
                    "time": 407.3311950000095,
                    "velocity": 0.6535433070866141,
                    "duration": 0.08797650000002477
                },
                {
                    "name": "G#4",
                    "midi": 68,
                    "time": 407.5951245000095,
                    "velocity": 0.5039370078740157,
                    "duration": 0.043988249999983964
                },
                {
                    "name": "A#4",
                    "midi": 70,
                    "time": 407.6391127500095,
                    "velocity": 0.5039370078740157,
                    "duration": 0.043988249999983964
                },
                {
                    "name": "G#4",
                    "midi": 68,
                    "time": 407.68310100000946,
                    "velocity": 0.5748031496062992,
                    "duration": 0.3519059999999854
                },
                {
                    "name": "G4",
                    "midi": 67,
                    "time": 408.03500700000944,
                    "velocity": 0.5433070866141733,
                    "duration": 0.08797650000002477
                },
                {
                    "name": "F4",
                    "midi": 65,
                    "time": 408.2109600000095,
                    "velocity": 0.4881889763779528,
                    "duration": 0.08797650000002477
                },
                {
                    "name": "A#4",
                    "midi": 70,
                    "time": 408.38691300000954,
                    "velocity": 0.5511811023622047,
                    "duration": 0.08797650000002477
                },
                {
                    "name": "D4",
                    "midi": 62,
                    "time": 408.5628660000096,
                    "velocity": 0.49606299212598426,
                    "duration": 0.08797650000002477
                },
                {
                    "name": "D#4",
                    "midi": 63,
                    "time": 408.73881900000964,
                    "velocity": 0.5590551181102362,
                    "duration": 0.26392950000001747
                },
                {
                    "name": "E4",
                    "midi": 64,
                    "time": 409.00274850000966,
                    "velocity": 0.5039370078740157,
                    "duration": 0.043988249999983964
                },
                {
                    "name": "F#4",
                    "midi": 66,
                    "time": 409.04673675000964,
                    "velocity": 0.5039370078740157,
                    "duration": 0.043988249999983964
                },
                {
                    "name": "E4",
                    "midi": 64,
                    "time": 409.0907250000096,
                    "velocity": 0.5748031496062992,
                    "duration": 0.3519059999999854
                },
                {
                    "name": "D#4",
                    "midi": 63,
                    "time": 409.4426310000096,
                    "velocity": 0.5433070866141733,
                    "duration": 0.08797650000002477
                },
                {
                    "name": "C#4",
                    "midi": 61,
                    "time": 409.61858400000966,
                    "velocity": 0.4881889763779528,
                    "duration": 0.08797650000002477
                },
                {
                    "name": "F#4",
                    "midi": 66,
                    "time": 409.7945370000097,
                    "velocity": 0.5511811023622047,
                    "duration": 0.08797650000002477
                },
                {
                    "name": "A#3",
                    "midi": 58,
                    "time": 409.97049000000976,
                    "velocity": 0.49606299212598426,
                    "duration": 0.08797650000002477
                },
                {
                    "name": "B3",
                    "midi": 59,
                    "time": 410.1464430000098,
                    "velocity": 0.5590551181102362,
                    "duration": 0.3519059999999854
                },
                {
                    "name": "C4",
                    "midi": 60,
                    "time": 410.4103725000098,
                    "velocity": 0.5039370078740157,
                    "duration": 0.043988249999983964
                },
                {
                    "name": "D4",
                    "midi": 62,
                    "time": 410.4543607500098,
                    "velocity": 0.5039370078740157,
                    "duration": 0.043988249999983964
                },
                {
                    "name": "C4",
                    "midi": 60,
                    "time": 410.4983490000098,
                    "velocity": 0.5748031496062992,
                    "duration": 0.3519059999999854
                },
                {
                    "name": "B3",
                    "midi": 59,
                    "time": 410.8502550000098,
                    "velocity": 0.5433070866141733,
                    "duration": 0.08797650000002477
                },
                {
                    "name": "A3",
                    "midi": 57,
                    "time": 411.02620800000983,
                    "velocity": 0.4881889763779528,
                    "duration": 0.08797650000002477
                },
                {
                    "name": "D4",
                    "midi": 62,
                    "time": 411.2021610000099,
                    "velocity": 0.5511811023622047,
                    "duration": 0.08797650000002477
                },
                {
                    "name": "F#3",
                    "midi": 54,
                    "time": 411.37811400000993,
                    "velocity": 0.49606299212598426,
                    "duration": 0.08797650000002477
                },
                {
                    "name": "G3",
                    "midi": 55,
                    "time": 411.55406700001,
                    "velocity": 0.5590551181102362,
                    "duration": 0.26392950000001747
                },
                {
                    "name": "G#2",
                    "midi": 44,
                    "time": 411.90597300001,
                    "velocity": 0.4330708661417323,
                    "duration": 0.08797650000002477
                },
                {
                    "name": "G#3",
                    "midi": 56,
                    "time": 411.90597300001,
                    "velocity": 0.5118110236220472,
                    "duration": 0.08797650000002477
                },
                {
                    "name": "D3",
                    "midi": 50,
                    "time": 412.08192600001007,
                    "velocity": 0.36220472440944884,
                    "duration": 0.08797650000002477
                },
                {
                    "name": "D4",
                    "midi": 62,
                    "time": 412.08192600001007,
                    "velocity": 0.4330708661417323,
                    "duration": 0.08797650000002477
                },
                {
                    "name": "A2",
                    "midi": 45,
                    "time": 412.2578790000101,
                    "velocity": 0.4330708661417323,
                    "duration": 0.08797650000002477
                },
                {
                    "name": "A3",
                    "midi": 57,
                    "time": 412.2578790000101,
                    "velocity": 0.5118110236220472,
                    "duration": 0.08797650000002477
                },
                {
                    "name": "D#4",
                    "midi": 63,
                    "time": 412.43383200001017,
                    "velocity": 0.4409448818897638,
                    "duration": 0.08797650000002477
                },
                {
                    "name": "D#3",
                    "midi": 51,
                    "time": 412.43383200001017,
                    "velocity": 0.3700787401574803,
                    "duration": 0.08797650000002477
                },
                {
                    "name": "A#2",
                    "midi": 46,
                    "time": 412.6097850000102,
                    "velocity": 0.4645669291338583,
                    "duration": 0.08797650000002477
                },
                {
                    "name": "A#3",
                    "midi": 58,
                    "time": 412.6097850000102,
                    "velocity": 0.5511811023622047,
                    "duration": 0.08797650000002477
                },
                {
                    "name": "G4",
                    "midi": 67,
                    "time": 412.78573800001027,
                    "velocity": 0.47244094488188976,
                    "duration": 0.08797650000002477
                },
                {
                    "name": "G3",
                    "midi": 55,
                    "time": 412.78573800001027,
                    "velocity": 0.4015748031496063,
                    "duration": 0.08797650000002477
                },
                {
                    "name": "D#4",
                    "midi": 63,
                    "time": 412.9616910000103,
                    "velocity": 0.5669291338582677,
                    "duration": 0.08797650000002477
                },
                {
                    "name": "D#3",
                    "midi": 51,
                    "time": 412.9616910000103,
                    "velocity": 0.48031496062992124,
                    "duration": 0.08797650000002477
                },
                {
                    "name": "A#4",
                    "midi": 70,
                    "time": 413.13764400001037,
                    "velocity": 0.48031496062992124,
                    "duration": 0.08797650000002477
                },
                {
                    "name": "A#3",
                    "midi": 58,
                    "time": 413.13764400001037,
                    "velocity": 0.4015748031496063,
                    "duration": 0.08797650000002477
                },
                {
                    "name": "F3",
                    "midi": 53,
                    "time": 413.3135970000104,
                    "velocity": 0.48031496062992124,
                    "duration": 0.08797650000002477
                },
                {
                    "name": "F4",
                    "midi": 65,
                    "time": 413.3135970000104,
                    "velocity": 0.5669291338582677,
                    "duration": 0.08797650000002477
                },
                {
                    "name": "D5",
                    "midi": 74,
                    "time": 413.48955000001047,
                    "velocity": 0.4881889763779528,
                    "duration": 0.08797650000002477
                },
                {
                    "name": "D4",
                    "midi": 62,
                    "time": 413.48955000001047,
                    "velocity": 0.4094488188976378,
                    "duration": 0.08797650000002477
                },
                {
                    "name": "A#4",
                    "midi": 70,
                    "time": 413.6655030000105,
                    "velocity": 0.5905511811023622,
                    "duration": 0.08797650000002477
                },
                {
                    "name": "A#3",
                    "midi": 58,
                    "time": 413.6655030000105,
                    "velocity": 0.49606299212598426,
                    "duration": 0.08797650000002477
                },
                {
                    "name": "F5",
                    "midi": 77,
                    "time": 413.84145600001057,
                    "velocity": 0.49606299212598426,
                    "duration": 0.08797650000002477
                },
                {
                    "name": "F4",
                    "midi": 65,
                    "time": 413.84145600001057,
                    "velocity": 0.41732283464566927,
                    "duration": 0.08797650000002477
                },
                {
                    "name": "G#3",
                    "midi": 56,
                    "time": 414.0174090000106,
                    "velocity": 0.4881889763779528,
                    "duration": 0.3519059999999854
                },
                {
                    "name": "G#4",
                    "midi": 68,
                    "time": 414.0174090000106,
                    "velocity": 0.5748031496062992,
                    "duration": 0.3519059999999854
                },
                {
                    "name": "G3",
                    "midi": 55,
                    "time": 414.3693150000106,
                    "velocity": 0.4566929133858268,
                    "duration": 0.08797650000002477
                },
                {
                    "name": "G4",
                    "midi": 67,
                    "time": 414.3693150000106,
                    "velocity": 0.5433070866141733,
                    "duration": 0.08797650000002477
                },
                {
                    "name": "F3",
                    "midi": 53,
                    "time": 414.54526800001065,
                    "velocity": 0.4094488188976378,
                    "duration": 0.08797650000002477
                },
                {
                    "name": "F4",
                    "midi": 65,
                    "time": 414.54526800001065,
                    "velocity": 0.4881889763779528,
                    "duration": 0.08797650000002477
                },
                {
                    "name": "A#3",
                    "midi": 58,
                    "time": 414.7212210000107,
                    "velocity": 0.4645669291338583,
                    "duration": 0.08797650000002477
                },
                {
                    "name": "A#4",
                    "midi": 70,
                    "time": 414.7212210000107,
                    "velocity": 0.5511811023622047,
                    "duration": 0.08797650000002477
                },
                {
                    "name": "D3",
                    "midi": 50,
                    "time": 414.89717400001075,
                    "velocity": 0.41732283464566927,
                    "duration": 0.08797650000002477
                },
                {
                    "name": "D4",
                    "midi": 62,
                    "time": 414.89717400001075,
                    "velocity": 0.49606299212598426,
                    "duration": 0.08797650000002477
                },
                {
                    "name": "D#3",
                    "midi": 51,
                    "time": 415.0731270000108,
                    "velocity": 0.47244094488188976,
                    "duration": 0.26392950000001747
                },
                {
                    "name": "D#4",
                    "midi": 63,
                    "time": 415.0731270000108,
                    "velocity": 0.5590551181102362,
                    "duration": 0.26392950000001747
                },
                {
                    "name": "E3",
                    "midi": 52,
                    "time": 415.42503300001084,
                    "velocity": 0.4881889763779528,
                    "duration": 0.3519059999999854
                },
                {
                    "name": "E4",
                    "midi": 64,
                    "time": 415.42503300001084,
                    "velocity": 0.5748031496062992,
                    "duration": 0.3519059999999854
                },
                {
                    "name": "D#3",
                    "midi": 51,
                    "time": 415.7769390000108,
                    "velocity": 0.4566929133858268,
                    "duration": 0.08797650000002477
                },
                {
                    "name": "D#4",
                    "midi": 63,
                    "time": 415.7769390000108,
                    "velocity": 0.5433070866141733,
                    "duration": 0.08797650000002477
                },
                {
                    "name": "C#3",
                    "midi": 49,
                    "time": 415.9528920000109,
                    "velocity": 0.4094488188976378,
                    "duration": 0.08797650000002477
                },
                {
                    "name": "C#4",
                    "midi": 61,
                    "time": 415.9528920000109,
                    "velocity": 0.4881889763779528,
                    "duration": 0.08797650000002477
                },
                {
                    "name": "F#3",
                    "midi": 54,
                    "time": 416.1288450000109,
                    "velocity": 0.4645669291338583,
                    "duration": 0.08797650000002477
                },
                {
                    "name": "F#4",
                    "midi": 66,
                    "time": 416.1288450000109,
                    "velocity": 0.5511811023622047,
                    "duration": 0.08797650000002477
                },
                {
                    "name": "A#2",
                    "midi": 46,
                    "time": 416.304798000011,
                    "velocity": 0.41732283464566927,
                    "duration": 0.08797650000002477
                },
                {
                    "name": "A#3",
                    "midi": 58,
                    "time": 416.304798000011,
                    "velocity": 0.49606299212598426,
                    "duration": 0.08797650000002477
                },
                {
                    "name": "B2",
                    "midi": 47,
                    "time": 416.480751000011,
                    "velocity": 0.47244094488188976,
                    "duration": 0.26392950000001747
                },
                {
                    "name": "B3",
                    "midi": 59,
                    "time": 416.480751000011,
                    "velocity": 0.5590551181102362,
                    "duration": 0.26392950000001747
                },
                {
                    "name": "C3",
                    "midi": 48,
                    "time": 416.83265700001107,
                    "velocity": 0.4881889763779528,
                    "duration": 0.3519059999999854
                },
                {
                    "name": "C4",
                    "midi": 60,
                    "time": 416.83265700001107,
                    "velocity": 0.5748031496062992,
                    "duration": 0.3519059999999854
                },
                {
                    "name": "B2",
                    "midi": 47,
                    "time": 417.18456300001105,
                    "velocity": 0.4566929133858268,
                    "duration": 0.08797650000002477
                },
                {
                    "name": "B3",
                    "midi": 59,
                    "time": 417.18456300001105,
                    "velocity": 0.5433070866141733,
                    "duration": 0.08797650000002477
                },
                {
                    "name": "A2",
                    "midi": 45,
                    "time": 417.3605160000111,
                    "velocity": 0.4094488188976378,
                    "duration": 0.08797650000002477
                },
                {
                    "name": "A3",
                    "midi": 57,
                    "time": 417.3605160000111,
                    "velocity": 0.4881889763779528,
                    "duration": 0.08797650000002477
                },
                {
                    "name": "D3",
                    "midi": 50,
                    "time": 417.53646900001115,
                    "velocity": 0.4645669291338583,
                    "duration": 0.08797650000002477
                },
                {
                    "name": "D4",
                    "midi": 62,
                    "time": 417.53646900001115,
                    "velocity": 0.5511811023622047,
                    "duration": 0.08797650000002477
                },
                {
                    "name": "F#2",
                    "midi": 42,
                    "time": 417.7124220000112,
                    "velocity": 0.41732283464566927,
                    "duration": 0.08797650000002477
                },
                {
                    "name": "F#3",
                    "midi": 54,
                    "time": 417.7124220000112,
                    "velocity": 0.49606299212598426,
                    "duration": 0.08797650000002477
                },
                {
                    "name": "G2",
                    "midi": 43,
                    "time": 417.88837500001125,
                    "velocity": 0.47244094488188976,
                    "duration": 0.26392950000001747
                },
                {
                    "name": "G3",
                    "midi": 55,
                    "time": 417.88837500001125,
                    "velocity": 0.5590551181102362,
                    "duration": 0.26392950000001747
                },
                {
                    "name": "G#2",
                    "midi": 44,
                    "time": 418.2402810000113,
                    "velocity": 0.4330708661417323,
                    "duration": 0.08797650000002477
                },
                {
                    "name": "G#3",
                    "midi": 56,
                    "time": 418.2402810000113,
                    "velocity": 0.5118110236220472,
                    "duration": 0.08797650000002477
                },
                {
                    "name": "D3",
                    "midi": 50,
                    "time": 418.41623400001134,
                    "velocity": 0.36220472440944884,
                    "duration": 0.08797650000002477
                },
                {
                    "name": "D4",
                    "midi": 62,
                    "time": 418.41623400001134,
                    "velocity": 0.4330708661417323,
                    "duration": 0.08797650000002477
                },
                {
                    "name": "A2",
                    "midi": 45,
                    "time": 418.5921870000114,
                    "velocity": 0.4330708661417323,
                    "duration": 0.08797650000002477
                },
                {
                    "name": "A3",
                    "midi": 57,
                    "time": 418.5921870000114,
                    "velocity": 0.5118110236220472,
                    "duration": 0.08797650000002477
                },
                {
                    "name": "D#4",
                    "midi": 63,
                    "time": 418.76814000001144,
                    "velocity": 0.4409448818897638,
                    "duration": 0.08797650000002477
                },
                {
                    "name": "D#3",
                    "midi": 51,
                    "time": 418.76814000001144,
                    "velocity": 0.3700787401574803,
                    "duration": 0.08797650000002477
                },
                {
                    "name": "A#2",
                    "midi": 46,
                    "time": 418.9440930000115,
                    "velocity": 0.4566929133858268,
                    "duration": 0.08797650000002477
                },
                {
                    "name": "A#3",
                    "midi": 58,
                    "time": 418.9440930000115,
                    "velocity": 0.5433070866141733,
                    "duration": 0.08797650000002477
                },
                {
                    "name": "G4",
                    "midi": 67,
                    "time": 419.12004600001154,
                    "velocity": 0.44881889763779526,
                    "duration": 0.08797650000002477
                },
                {
                    "name": "G3",
                    "midi": 55,
                    "time": 419.12004600001154,
                    "velocity": 0.3779527559055118,
                    "duration": 0.08797650000002477
                },
                {
                    "name": "D#4",
                    "midi": 63,
                    "time": 419.2959990000116,
                    "velocity": 0.5433070866141733,
                    "duration": 0.08797650000002477
                },
                {
                    "name": "D#3",
                    "midi": 51,
                    "time": 419.2959990000116,
                    "velocity": 0.4566929133858268,
                    "duration": 0.08797650000002477
                },
                {
                    "name": "A#4",
                    "midi": 70,
                    "time": 419.47195200001164,
                    "velocity": 0.44881889763779526,
                    "duration": 0.08797650000002477
                },
                {
                    "name": "A#3",
                    "midi": 58,
                    "time": 419.47195200001164,
                    "velocity": 0.3779527559055118,
                    "duration": 0.08797650000002477
                },
                {
                    "name": "G3",
                    "midi": 55,
                    "time": 419.6479050000117,
                    "velocity": 0.47244094488188976,
                    "duration": 0.08797650000002477
                },
                {
                    "name": "G4",
                    "midi": 67,
                    "time": 419.6479050000117,
                    "velocity": 0.5590551181102362,
                    "duration": 0.08797650000002477
                },
                {
                    "name": "D#5",
                    "midi": 75,
                    "time": 419.82385800001174,
                    "velocity": 0.4645669291338583,
                    "duration": 0.08797650000002477
                },
                {
                    "name": "D#4",
                    "midi": 63,
                    "time": 419.82385800001174,
                    "velocity": 0.3937007874015748,
                    "duration": 0.08797650000002477
                },
                {
                    "name": "A#4",
                    "midi": 70,
                    "time": 419.9998110000118,
                    "velocity": 0.5669291338582677,
                    "duration": 0.08797650000002477
                },
                {
                    "name": "A#3",
                    "midi": 58,
                    "time": 419.9998110000118,
                    "velocity": 0.48031496062992124,
                    "duration": 0.08797650000002477
                },
                {
                    "name": "G5",
                    "midi": 79,
                    "time": 420.17576400001184,
                    "velocity": 0.4330708661417323,
                    "duration": 0.08797650000002477
                },
                {
                    "name": "G4",
                    "midi": 67,
                    "time": 420.17576400001184,
                    "velocity": 0.4330708661417323,
                    "duration": 0.08797650000002477
                },
                {
                    "name": "F4",
                    "midi": 65,
                    "time": 420.3517170000119,
                    "velocity": 0.5039370078740157,
                    "duration": 0.08797650000002477
                },
                {
                    "name": "F5",
                    "midi": 77,
                    "time": 420.3517170000119,
                    "velocity": 0.5039370078740157,
                    "duration": 0.08797650000002477
                },
                {
                    "name": "D4",
                    "midi": 62,
                    "time": 420.52767000001194,
                    "velocity": 0.4566929133858268,
                    "duration": 0.08797650000002477
                },
                {
                    "name": "D5",
                    "midi": 74,
                    "time": 420.52767000001194,
                    "velocity": 0.4566929133858268,
                    "duration": 0.08797650000002477
                },
                {
                    "name": "A#3",
                    "midi": 58,
                    "time": 420.703623000012,
                    "velocity": 0.44881889763779526,
                    "duration": 0.08797650000002477
                },
                {
                    "name": "A#4",
                    "midi": 70,
                    "time": 420.703623000012,
                    "velocity": 0.44881889763779526,
                    "duration": 0.08797650000002477
                },
                {
                    "name": "G#3",
                    "midi": 56,
                    "time": 420.87957600001204,
                    "velocity": 0.44881889763779526,
                    "duration": 0.08797650000002477
                },
                {
                    "name": "G#4",
                    "midi": 68,
                    "time": 420.87957600001204,
                    "velocity": 0.44881889763779526,
                    "duration": 0.08797650000002477
                },
                {
                    "name": "F3",
                    "midi": 53,
                    "time": 421.0555290000121,
                    "velocity": 0.5039370078740157,
                    "duration": 0.08797650000002477
                },
                {
                    "name": "F4",
                    "midi": 65,
                    "time": 421.0555290000121,
                    "velocity": 0.5039370078740157,
                    "duration": 0.08797650000002477
                },
                {
                    "name": "D3",
                    "midi": 50,
                    "time": 421.23148200001214,
                    "velocity": 0.4566929133858268,
                    "duration": 0.08797650000002477
                },
                {
                    "name": "D4",
                    "midi": 62,
                    "time": 421.23148200001214,
                    "velocity": 0.4566929133858268,
                    "duration": 0.08797650000002477
                },
                {
                    "name": "A#2",
                    "midi": 46,
                    "time": 421.4074350000122,
                    "velocity": 0.44881889763779526,
                    "duration": 0.08797650000002477
                },
                {
                    "name": "A#3",
                    "midi": 58,
                    "time": 421.4074350000122,
                    "velocity": 0.44881889763779526,
                    "duration": 0.08797650000002477
                },
                {
                    "name": "G#2",
                    "midi": 44,
                    "time": 421.58338800001223,
                    "velocity": 0.4645669291338583,
                    "duration": 0.08797650000002477
                },
                {
                    "name": "G#3",
                    "midi": 56,
                    "time": 421.58338800001223,
                    "velocity": 0.4645669291338583,
                    "duration": 0.08797650000002477
                },
                {
                    "name": "F2",
                    "midi": 41,
                    "time": 421.7593410000123,
                    "velocity": 0.5511811023622047,
                    "duration": 0.08797650000002477
                },
                {
                    "name": "F3",
                    "midi": 53,
                    "time": 421.7593410000123,
                    "velocity": 0.5511811023622047,
                    "duration": 0.08797650000002477
                },
                {
                    "name": "D2",
                    "midi": 38,
                    "time": 421.93529400001233,
                    "velocity": 0.5196850393700787,
                    "duration": 0.08797650000002477
                },
                {
                    "name": "D3",
                    "midi": 50,
                    "time": 421.93529400001233,
                    "velocity": 0.5196850393700787,
                    "duration": 0.08797650000002477
                },
                {
                    "name": "A#1",
                    "midi": 34,
                    "time": 422.1112470000124,
                    "velocity": 0.5354330708661418,
                    "duration": 0.08797650000002477
                },
                {
                    "name": "A#2",
                    "midi": 46,
                    "time": 422.1112470000124,
                    "velocity": 0.5354330708661418,
                    "duration": 0.08797650000002477
                },
                {
                    "name": "A1",
                    "midi": 33,
                    "time": 422.28720000001243,
                    "velocity": 0.5590551181102362,
                    "duration": 0.08797650000002477
                },
                {
                    "name": "A2",
                    "midi": 45,
                    "time": 422.28720000001243,
                    "velocity": 0.5590551181102362,
                    "duration": 0.08797650000002477
                },
                {
                    "name": "G#1",
                    "midi": 32,
                    "time": 422.4631530000125,
                    "velocity": 0.6614173228346457,
                    "duration": 0.08797650000002477
                },
                {
                    "name": "G#2",
                    "midi": 44,
                    "time": 422.4631530000125,
                    "velocity": 0.6614173228346457,
                    "duration": 0.08797650000002477
                },
                {
                    "name": "G1",
                    "midi": 31,
                    "time": 422.63910600001253,
                    "velocity": 0.6299212598425197,
                    "duration": 0.08797650000002477
                },
                {
                    "name": "G2",
                    "midi": 43,
                    "time": 422.63910600001253,
                    "velocity": 0.6299212598425197,
                    "duration": 0.08797650000002477
                },
                {
                    "name": "F1",
                    "midi": 29,
                    "time": 422.8150590000126,
                    "velocity": 0.6377952755905512,
                    "duration": 0.08797650000002477
                },
                {
                    "name": "F2",
                    "midi": 41,
                    "time": 422.8150590000126,
                    "velocity": 0.6377952755905512,
                    "duration": 0.08797650000002477
                },
                {
                    "name": "A#1",
                    "midi": 34,
                    "time": 422.99101200001263,
                    "velocity": 0.6692913385826772,
                    "duration": 0.08797650000002477
                },
                {
                    "name": "A#2",
                    "midi": 46,
                    "time": 422.99101200001263,
                    "velocity": 0.6692913385826772,
                    "duration": 0.08797650000002477
                },
                {
                    "name": "D#1",
                    "midi": 27,
                    "time": 423.1669650000127,
                    "velocity": 0.6220472440944882,
                    "duration": 0.08797650000002477
                },
                {
                    "name": "D#2",
                    "midi": 39,
                    "time": 423.1669650000127,
                    "velocity": 0.7401574803149606,
                    "duration": 0.08797650000002477
                },
                {
                    "name": "A#1",
                    "midi": 34,
                    "time": 423.34291800001273,
                    "velocity": 0.5748031496062992,
                    "duration": 0.08797650000002477
                },
                {
                    "name": "A#2",
                    "midi": 46,
                    "time": 423.34291800001273,
                    "velocity": 0.6850393700787402,
                    "duration": 0.08797650000002477
                },
                {
                    "name": "D#2",
                    "midi": 39,
                    "time": 423.5188710000128,
                    "velocity": 0.6141732283464567,
                    "duration": 0.08797650000002477
                },
                {
                    "name": "D#3",
                    "midi": 51,
                    "time": 423.5188710000128,
                    "velocity": 0.7322834645669292,
                    "duration": 0.08797650000002477
                },
                {
                    "name": "A#2",
                    "midi": 46,
                    "time": 423.69482400001283,
                    "velocity": 0.5748031496062992,
                    "duration": 0.08797650000002477
                },
                {
                    "name": "A#3",
                    "midi": 58,
                    "time": 423.69482400001283,
                    "velocity": 0.6850393700787402,
                    "duration": 0.08797650000002477
                },
                {
                    "name": "D#3",
                    "midi": 51,
                    "time": 423.8707770000129,
                    "velocity": 0.6141732283464567,
                    "duration": 0.08797650000002477
                },
                {
                    "name": "D#4",
                    "midi": 63,
                    "time": 423.8707770000129,
                    "velocity": 0.7322834645669292,
                    "duration": 0.08797650000002477
                },
                {
                    "name": "A#2",
                    "midi": 46,
                    "time": 424.04673000001293,
                    "velocity": 0.5433070866141733,
                    "duration": 0.08797650000002477
                },
                {
                    "name": "A#3",
                    "midi": 58,
                    "time": 424.04673000001293,
                    "velocity": 0.6377952755905512,
                    "duration": 0.08797650000002477
                },
                {
                    "name": "D#2",
                    "midi": 39,
                    "time": 424.222683000013,
                    "velocity": 0.5826771653543307,
                    "duration": 0.08797650000002477
                },
                {
                    "name": "D#3",
                    "midi": 51,
                    "time": 424.222683000013,
                    "velocity": 0.6929133858267716,
                    "duration": 0.08797650000002477
                },
                {
                    "name": "A#1",
                    "midi": 34,
                    "time": 424.398636000013,
                    "velocity": 0.5590551181102362,
                    "duration": 0.08797650000002477
                },
                {
                    "name": "A#2",
                    "midi": 46,
                    "time": 424.398636000013,
                    "velocity": 0.6614173228346457,
                    "duration": 0.08797650000002477
                },
                {
                    "name": "D#2",
                    "midi": 39,
                    "time": 424.5745890000131,
                    "velocity": 0.6141732283464567,
                    "duration": 0.08797650000002477
                },
                {
                    "name": "D#3",
                    "midi": 51,
                    "time": 424.5745890000131,
                    "velocity": 0.7322834645669292,
                    "duration": 0.08797650000002477
                },
                {
                    "name": "A#2",
                    "midi": 46,
                    "time": 424.7505420000131,
                    "velocity": 0.5433070866141733,
                    "duration": 0.08797650000002477
                },
                {
                    "name": "A#3",
                    "midi": 58,
                    "time": 424.7505420000131,
                    "velocity": 0.6377952755905512,
                    "duration": 0.08797650000002477
                },
                {
                    "name": "D#3",
                    "midi": 51,
                    "time": 424.9264950000132,
                    "velocity": 0.5826771653543307,
                    "duration": 0.08797650000002477
                },
                {
                    "name": "D#4",
                    "midi": 63,
                    "time": 424.9264950000132,
                    "velocity": 0.6929133858267716,
                    "duration": 0.08797650000002477
                },
                {
                    "name": "A#2",
                    "midi": 46,
                    "time": 425.1024480000132,
                    "velocity": 0.5590551181102362,
                    "duration": 0.08797650000002477
                },
                {
                    "name": "A#3",
                    "midi": 58,
                    "time": 425.1024480000132,
                    "velocity": 0.6614173228346457,
                    "duration": 0.08797650000002477
                },
                {
                    "name": "D#2",
                    "midi": 39,
                    "time": 425.2784010000133,
                    "velocity": 0.6141732283464567,
                    "duration": 0.08797650000002477
                },
                {
                    "name": "D#3",
                    "midi": 51,
                    "time": 425.2784010000133,
                    "velocity": 0.7322834645669292,
                    "duration": 0.08797650000002477
                },
                {
                    "name": "A#1",
                    "midi": 34,
                    "time": 425.4543540000133,
                    "velocity": 0.5433070866141733,
                    "duration": 0.08797650000002477
                },
                {
                    "name": "A#2",
                    "midi": 46,
                    "time": 425.4543540000133,
                    "velocity": 0.6377952755905512,
                    "duration": 0.08797650000002477
                },
                {
                    "name": "D#2",
                    "midi": 39,
                    "time": 425.6303070000134,
                    "velocity": 0.5826771653543307,
                    "duration": 0.08797650000002477
                },
                {
                    "name": "D#3",
                    "midi": 51,
                    "time": 425.6303070000134,
                    "velocity": 0.6929133858267716,
                    "duration": 0.08797650000002477
                },
                {
                    "name": "A#2",
                    "midi": 46,
                    "time": 425.8062600000134,
                    "velocity": 0.5590551181102362,
                    "duration": 0.08797650000002477
                },
                {
                    "name": "A#3",
                    "midi": 58,
                    "time": 425.8062600000134,
                    "velocity": 0.6614173228346457,
                    "duration": 0.08797650000002477
                },
                {
                    "name": "D#3",
                    "midi": 51,
                    "time": 425.9822130000135,
                    "velocity": 0.6141732283464567,
                    "duration": 0.08797650000002477
                },
                {
                    "name": "D#4",
                    "midi": 63,
                    "time": 425.9822130000135,
                    "velocity": 0.7322834645669292,
                    "duration": 0.08797650000002477
                },
                {
                    "name": "G3",
                    "midi": 55,
                    "time": 426.2461425000135,
                    "velocity": 0.5039370078740157,
                    "duration": 0.08797650000002477
                },
                {
                    "name": "D#3",
                    "midi": 51,
                    "time": 426.2461425000135,
                    "velocity": 0.5039370078740157,
                    "duration": 0.08797650000002477
                },
                {
                    "name": "A#3",
                    "midi": 58,
                    "time": 426.2461425000135,
                    "velocity": 0.5039370078740157,
                    "duration": 0.08797650000002477
                },
                {
                    "name": "D#4",
                    "midi": 63,
                    "time": 426.2461425000135,
                    "velocity": 0.5905511811023622,
                    "duration": 0.08797650000002477
                },
                {
                    "name": "D#3",
                    "midi": 51,
                    "time": 426.3341190000135,
                    "velocity": 0.5354330708661418,
                    "duration": 0.08797650000002477
                },
                {
                    "name": "G3",
                    "midi": 55,
                    "time": 426.3341190000135,
                    "velocity": 0.5354330708661418,
                    "duration": 0.08797650000002477
                },
                {
                    "name": "A#3",
                    "midi": 58,
                    "time": 426.3341190000135,
                    "velocity": 0.5354330708661418,
                    "duration": 0.08797650000002477
                },
                {
                    "name": "D#4",
                    "midi": 63,
                    "time": 426.3341190000135,
                    "velocity": 0.6299212598425197,
                    "duration": 0.08797650000002477
                },
                {
                    "name": "D#2",
                    "midi": 39,
                    "time": 426.59804850001353,
                    "velocity": 0.5118110236220472,
                    "duration": 0.08797650000002477
                },
                {
                    "name": "A#2",
                    "midi": 46,
                    "time": 426.59804850001353,
                    "velocity": 0.5118110236220472,
                    "duration": 0.08797650000002477
                },
                {
                    "name": "D#3",
                    "midi": 51,
                    "time": 426.59804850001353,
                    "velocity": 0.5984251968503937,
                    "duration": 0.08797650000002477
                },
                {
                    "name": "D#2",
                    "midi": 39,
                    "time": 426.68602500001356,
                    "velocity": 0.5354330708661418,
                    "duration": 0.08797650000002477
                },
                {
                    "name": "A#2",
                    "midi": 46,
                    "time": 426.68602500001356,
                    "velocity": 0.5354330708661418,
                    "duration": 0.08797650000002477
                },
                {
                    "name": "D#3",
                    "midi": 51,
                    "time": 426.68602500001356,
                    "velocity": 0.6299212598425197,
                    "duration": 0.08797650000002477
                },
                {
                    "name": "G3",
                    "midi": 55,
                    "time": 426.9499545000136,
                    "velocity": 0.5039370078740157,
                    "duration": 0.08797650000002477
                },
                {
                    "name": "A#3",
                    "midi": 58,
                    "time": 426.9499545000136,
                    "velocity": 0.5039370078740157,
                    "duration": 0.08797650000002477
                },
                {
                    "name": "D#4",
                    "midi": 63,
                    "time": 426.9499545000136,
                    "velocity": 0.5039370078740157,
                    "duration": 0.08797650000002477
                },
                {
                    "name": "G4",
                    "midi": 67,
                    "time": 426.9499545000136,
                    "velocity": 0.5905511811023622,
                    "duration": 0.08797650000002477
                },
                {
                    "name": "A#3",
                    "midi": 58,
                    "time": 427.0379310000136,
                    "velocity": 0.5354330708661418,
                    "duration": 0.08797650000002477
                },
                {
                    "name": "G3",
                    "midi": 55,
                    "time": 427.0379310000136,
                    "velocity": 0.5354330708661418,
                    "duration": 0.08797650000002477
                },
                {
                    "name": "D#4",
                    "midi": 63,
                    "time": 427.0379310000136,
                    "velocity": 0.5354330708661418,
                    "duration": 0.08797650000002477
                },
                {
                    "name": "G4",
                    "midi": 67,
                    "time": 427.0379310000136,
                    "velocity": 0.6299212598425197,
                    "duration": 0.08797650000002477
                },
                {
                    "name": "D#2",
                    "midi": 39,
                    "time": 427.3018605000136,
                    "velocity": 0.5118110236220472,
                    "duration": 0.08797650000002477
                },
                {
                    "name": "A#2",
                    "midi": 46,
                    "time": 427.3018605000136,
                    "velocity": 0.5118110236220472,
                    "duration": 0.08797650000002477
                },
                {
                    "name": "D#3",
                    "midi": 51,
                    "time": 427.3018605000136,
                    "velocity": 0.5984251968503937,
                    "duration": 0.08797650000002477
                },
                {
                    "name": "D#2",
                    "midi": 39,
                    "time": 427.38983700001364,
                    "velocity": 0.5354330708661418,
                    "duration": 0.08797650000002477
                },
                {
                    "name": "A#2",
                    "midi": 46,
                    "time": 427.38983700001364,
                    "velocity": 0.5354330708661418,
                    "duration": 0.08797650000002477
                },
                {
                    "name": "D#3",
                    "midi": 51,
                    "time": 427.38983700001364,
                    "velocity": 0.6299212598425197,
                    "duration": 0.08797650000002477
                },
                {
                    "name": "G3",
                    "midi": 55,
                    "time": 428.09364900001367,
                    "velocity": 0.5826771653543307,
                    "duration": 0.08797650000002477
                },
                {
                    "name": "A#3",
                    "midi": 58,
                    "time": 428.09364900001367,
                    "velocity": 0.5826771653543307,
                    "duration": 0.08797650000002477
                },
                {
                    "name": "D#4",
                    "midi": 63,
                    "time": 428.09364900001367,
                    "velocity": 0.5826771653543307,
                    "duration": 0.08797650000002477
                },
                {
                    "name": "G4",
                    "midi": 67,
                    "time": 428.09364900001367,
                    "velocity": 0.6929133858267716,
                    "duration": 0.08797650000002477
                },
                {
                    "name": "G4",
                    "midi": 67,
                    "time": 428.7974610000137,
                    "velocity": 0.5826771653543307,
                    "duration": 0.08797650000002477
                },
                {
                    "name": "A#4",
                    "midi": 70,
                    "time": 428.7974610000137,
                    "velocity": 0.5826771653543307,
                    "duration": 0.08797650000002477
                },
                {
                    "name": "D#5",
                    "midi": 75,
                    "time": 428.7974610000137,
                    "velocity": 0.5826771653543307,
                    "duration": 0.08797650000002477
                },
                {
                    "name": "G5",
                    "midi": 79,
                    "time": 428.7974610000137,
                    "velocity": 0.6929133858267716,
                    "duration": 0.08797650000002477
                }
            ],
            "controlChanges": {
                "7": [
                    {
                        "number": 7,
                        "time": 0,
                        "value": 0.7874015748031497
                    }
                ],
                "10": [
                    {
                        "number": 10,
                        "time": 0,
                        "value": 0.5039370078740157
                    }
                ]
            },
            "id": 2,
            "name": "Piano left",
            "instrumentNumber": 0,
            "instrument": "acoustic grand piano",
            "instrumentFamily": "piano",
            "channelNumber": 0,
            "isPercussion": false
        },
        {
            "startTime": 0,
            "duration": 0,
            "length": 0,
            "notes": [],
            "controlChanges": {
                "64": [
                    {
                        "number": 64,
                        "time": 1.309383575,
                        "value": 1
                    },
                    {
                        "number": 64,
                        "time": 2.118767375,
                        "value": 0
                    },
                    {
                        "number": 64,
                        "time": 2.8980925375,
                        "value": 1
                    },
                    {
                        "number": 64,
                        "time": 3.5865086500000003,
                        "value": 0
                    },
                    {
                        "number": 64,
                        "time": 4.124631575,
                        "value": 1
                    },
                    {
                        "number": 64,
                        "time": 4.934015375,
                        "value": 0
                    },
                    {
                        "number": 64,
                        "time": 5.682548762500001,
                        "value": 1
                    },
                    {
                        "number": 64,
                        "time": 6.401756650000001,
                        "value": 0
                    },
                    {
                        "number": 64,
                        "time": 6.919351725000001,
                        "value": 1
                    },
                    {
                        "number": 64,
                        "time": 7.749263375000001,
                        "value": 0
                    },
                    {
                        "number": 64,
                        "time": 7.8137794750000005,
                        "value": 1
                    },
                    {
                        "number": 64,
                        "time": 7.983867375000001,
                        "value": 0
                    },
                    {
                        "number": 64,
                        "time": 8.0476503375,
                        "value": 1
                    },
                    {
                        "number": 64,
                        "time": 8.218471375,
                        "value": 0
                    },
                    {
                        "number": 64,
                        "time": 8.29031885,
                        "value": 1
                    },
                    {
                        "number": 64,
                        "time": 8.46040675,
                        "value": 0
                    },
                    {
                        "number": 64,
                        "time": 8.616565037500001,
                        "value": 1
                    },
                    {
                        "number": 64,
                        "time": 9.217004650000002,
                        "value": 0
                    },
                    {
                        "number": 64,
                        "time": 9.662019112500001,
                        "value": 1
                    },
                    {
                        "number": 64,
                        "time": 10.564511375,
                        "value": 0
                    },
                    {
                        "number": 64,
                        "time": 10.634892575,
                        "value": 1
                    },
                    {
                        "number": 64,
                        "time": 10.916417375,
                        "value": 0
                    },
                    {
                        "number": 64,
                        "time": 10.9816666125,
                        "value": 1
                    },
                    {
                        "number": 64,
                        "time": 11.2719890625,
                        "value": 0
                    },
                    {
                        "number": 64,
                        "time": 11.436945,
                        "value": 1
                    },
                    {
                        "number": 64,
                        "time": 12.03225265,
                        "value": 0
                    },
                    {
                        "number": 64,
                        "time": 28.1942688375,
                        "value": 1
                    },
                    {
                        "number": 64,
                        "time": 28.5359109125,
                        "value": 0
                    },
                    {
                        "number": 64,
                        "time": 29.596760875,
                        "value": 1
                    },
                    {
                        "number": 64,
                        "time": 29.901746075000002,
                        "value": 0
                    },
                    {
                        "number": 64,
                        "time": 31.030044687500002,
                        "value": 1
                    },
                    {
                        "number": 64,
                        "time": 31.2837102625,
                        "value": 0
                    },
                    {
                        "number": 64,
                        "time": 32.375352,
                        "value": 1
                    },
                    {
                        "number": 64,
                        "time": 32.7096627,
                        "value": 0
                    },
                    {
                        "number": 64,
                        "time": 33.2529175875,
                        "value": 1
                    },
                    {
                        "number": 64,
                        "time": 33.43400255,
                        "value": 0
                    },
                    {
                        "number": 64,
                        "time": 33.5608353375,
                        "value": 1
                    },
                    {
                        "number": 64,
                        "time": 33.791040512500004,
                        "value": 0
                    },
                    {
                        "number": 64,
                        "time": 33.859222300000006,
                        "value": 1
                    },
                    {
                        "number": 64,
                        "time": 34.14001396250001,
                        "value": 0
                    },
                    {
                        "number": 64,
                        "time": 35.13048272500001,
                        "value": 1
                    },
                    {
                        "number": 64,
                        "time": 35.925936912500006,
                        "value": 0
                    },
                    {
                        "number": 64,
                        "time": 36.64001283750001,
                        "value": 1
                    },
                    {
                        "number": 64,
                        "time": 36.924470187500006,
                        "value": 0
                    },
                    {
                        "number": 64,
                        "time": 38.0527688,
                        "value": 1
                    },
                    {
                        "number": 64,
                        "time": 38.370950475,
                        "value": 0
                    },
                    {
                        "number": 64,
                        "time": 40.875348175,
                        "value": 1
                    },
                    {
                        "number": 64,
                        "time": 41.553500362499996,
                        "value": 0
                    },
                    {
                        "number": 64,
                        "time": 42.264643737499995,
                        "value": 1
                    },
                    {
                        "number": 64,
                        "time": 42.9508604375,
                        "value": 0
                    },
                    {
                        "number": 64,
                        "time": 43.552766325,
                        "value": 1
                    },
                    {
                        "number": 64,
                        "time": 43.6517398875,
                        "value": 0
                    },
                    {
                        "number": 64,
                        "time": 43.8966078125,
                        "value": 1
                    },
                    {
                        "number": 64,
                        "time": 44.0139098125,
                        "value": 0
                    },
                    {
                        "number": 64,
                        "time": 44.2485138125,
                        "value": 1
                    },
                    {
                        "number": 64,
                        "time": 44.370947775,
                        "value": 0
                    },
                    {
                        "number": 64,
                        "time": 45.0674284,
                        "value": 1
                    },
                    {
                        "number": 64,
                        "time": 45.349686337499996,
                        "value": 0
                    },
                    {
                        "number": 64,
                        "time": 45.923733,
                        "value": 1
                    },
                    {
                        "number": 64,
                        "time": 46.0637622625,
                        "value": 0
                    },
                    {
                        "number": 64,
                        "time": 46.2631756625,
                        "value": 1
                    },
                    {
                        "number": 64,
                        "time": 46.469920437499994,
                        "value": 0
                    },
                    {
                        "number": 64,
                        "time": 46.52197319999999,
                        "value": 1
                    },
                    {
                        "number": 64,
                        "time": 47.18399636249999,
                        "value": 0
                    },
                    {
                        "number": 64,
                        "time": 47.89294032499999,
                        "value": 1
                    },
                    {
                        "number": 64,
                        "time": 48.58135643749999,
                        "value": 0
                    },
                    {
                        "number": 64,
                        "time": 49.183262324999994,
                        "value": 1
                    },
                    {
                        "number": 64,
                        "time": 49.30496314999999,
                        "value": 0
                    },
                    {
                        "number": 64,
                        "time": 49.527103812499995,
                        "value": 1
                    },
                    {
                        "number": 64,
                        "time": 49.6444058125,
                        "value": 0
                    },
                    {
                        "number": 64,
                        "time": 49.879009812499994,
                        "value": 1
                    },
                    {
                        "number": 64,
                        "time": 50.010974562499996,
                        "value": 0
                    },
                    {
                        "number": 64,
                        "time": 50.716252837499994,
                        "value": 1
                    },
                    {
                        "number": 64,
                        "time": 51.036633925,
                        "value": 0
                    },
                    {
                        "number": 64,
                        "time": 52.141472137499996,
                        "value": 1
                    },
                    {
                        "number": 64,
                        "time": 52.41346615,
                        "value": 0
                    },
                    {
                        "number": 64,
                        "time": 53.5212369125,
                        "value": 1
                    },
                    {
                        "number": 64,
                        "time": 53.82695525,
                        "value": 0
                    },
                    {
                        "number": 64,
                        "time": 54.9567201375,
                        "value": 1
                    },
                    {
                        "number": 64,
                        "time": 55.238978075,
                        "value": 0
                    },
                    {
                        "number": 64,
                        "time": 56.3643441375,
                        "value": 1
                    },
                    {
                        "number": 64,
                        "time": 56.661997962499996,
                        "value": 0
                    },
                    {
                        "number": 64,
                        "time": 57.749240875,
                        "value": 1
                    },
                    {
                        "number": 64,
                        "time": 58.08501785,
                        "value": 0
                    },
                    {
                        "number": 64,
                        "time": 59.1605305625,
                        "value": 1
                    },
                    {
                        "number": 64,
                        "time": 59.4640494875,
                        "value": 0
                    },
                    {
                        "number": 64,
                        "time": 60.5666882875,
                        "value": 1
                    },
                    {
                        "number": 64,
                        "time": 60.90026585,
                        "value": 0
                    },
                    {
                        "number": 64,
                        "time": 61.9743122875,
                        "value": 1
                    },
                    {
                        "number": 64,
                        "time": 62.277098075,
                        "value": 0
                    },
                    {
                        "number": 64,
                        "time": 64.7910265625,
                        "value": 1
                    },
                    {
                        "number": 64,
                        "time": 65.46917875,
                        "value": 0
                    },
                    {
                        "number": 64,
                        "time": 66.1876535,
                        "value": 1
                    },
                    {
                        "number": 64,
                        "time": 67.4317878375,
                        "value": 0
                    },
                    {
                        "number": 64,
                        "time": 67.6363332,
                        "value": 1
                    },
                    {
                        "number": 64,
                        "time": 67.9053946625,
                        "value": 0
                    },
                    {
                        "number": 64,
                        "time": 70.4083260875,
                        "value": 1
                    },
                    {
                        "number": 64,
                        "time": 71.09967475,
                        "value": 0
                    },
                    {
                        "number": 64,
                        "time": 71.81228440000001,
                        "value": 1
                    },
                    {
                        "number": 64,
                        "time": 72.15172706250002,
                        "value": 0
                    },
                    {
                        "number": 64,
                        "time": 72.18691766250002,
                        "value": 1
                    },
                    {
                        "number": 64,
                        "time": 72.34234281250002,
                        "value": 0
                    },
                    {
                        "number": 64,
                        "time": 73.25876468750002,
                        "value": 1
                    },
                    {
                        "number": 64,
                        "time": 73.55641851250002,
                        "value": 0
                    },
                    {
                        "number": 64,
                        "time": 74.64586083750001,
                        "value": 1
                    },
                    {
                        "number": 64,
                        "time": 74.96697506250001,
                        "value": 0
                    },
                    {
                        "number": 64,
                        "time": 76.02269306250001,
                        "value": 1
                    },
                    {
                        "number": 64,
                        "time": 77.06741400000001,
                        "value": 0
                    },
                    {
                        "number": 64,
                        "time": 78.86580028750001,
                        "value": 1
                    },
                    {
                        "number": 64,
                        "time": 79.5776768,
                        "value": 0
                    },
                    {
                        "number": 64,
                        "time": 80.28515448750001,
                        "value": 1
                    },
                    {
                        "number": 64,
                        "time": 80.58647400000001,
                        "value": 0
                    },
                    {
                        "number": 64,
                        "time": 81.65905416250001,
                        "value": 1
                    },
                    {
                        "number": 64,
                        "time": 82.69791000000001,
                        "value": 0
                    },
                    {
                        "number": 64,
                        "time": 84.49922883750001,
                        "value": 1
                    },
                    {
                        "number": 64,
                        "time": 84.88192661250001,
                        "value": 0
                    },
                    {
                        "number": 64,
                        "time": 85.50216093750001,
                        "value": 1
                    },
                    {
                        "number": 64,
                        "time": 85.865064,
                        "value": 0
                    },
                    {
                        "number": 64,
                        "time": 85.89658891250001,
                        "value": 1
                    },
                    {
                        "number": 64,
                        "time": 86.5740079625,
                        "value": 0
                    },
                    {
                        "number": 64,
                        "time": 86.60260032500001,
                        "value": 1
                    },
                    {
                        "number": 64,
                        "time": 87.27781996250002,
                        "value": 0
                    },
                    {
                        "number": 64,
                        "time": 87.32694017500002,
                        "value": 1
                    },
                    {
                        "number": 64,
                        "time": 87.98309823750002,
                        "value": 0
                    },
                    {
                        "number": 64,
                        "time": 88.00509236250002,
                        "value": 1
                    },
                    {
                        "number": 64,
                        "time": 88.30567873750002,
                        "value": 0
                    },
                    {
                        "number": 64,
                        "time": 88.35406581250001,
                        "value": 1
                    },
                    {
                        "number": 64,
                        "time": 88.68031200000001,
                        "value": 0
                    },
                    {
                        "number": 64,
                        "time": 88.71183691250002,
                        "value": 1
                    },
                    {
                        "number": 64,
                        "time": 89.74336137500002,
                        "value": 0
                    },
                    {
                        "number": 64,
                        "time": 89.78515021250001,
                        "value": 1
                    },
                    {
                        "number": 64,
                        "time": 90.09306796250002,
                        "value": 0
                    },
                    {
                        "number": 64,
                        "time": 90.14218817500002,
                        "value": 1
                    },
                    {
                        "number": 64,
                        "time": 90.79541368750002,
                        "value": 0
                    },
                    {
                        "number": 64,
                        "time": 90.82034036250002,
                        "value": 1
                    },
                    {
                        "number": 64,
                        "time": 91.01168925000002,
                        "value": 0
                    },
                    {
                        "number": 64,
                        "time": 91.15025223750001,
                        "value": 1
                    },
                    {
                        "number": 64,
                        "time": 91.5014251,
                        "value": 0
                    },
                    {
                        "number": 64,
                        "time": 91.5270849125,
                        "value": 1
                    },
                    {
                        "number": 64,
                        "time": 92.2074365125,
                        "value": 0
                    },
                    {
                        "number": 64,
                        "time": 92.2484922125,
                        "value": 1
                    },
                    {
                        "number": 64,
                        "time": 92.9083159625,
                        "value": 0
                    },
                    {
                        "number": 64,
                        "time": 92.957436175,
                        "value": 1
                    },
                    {
                        "number": 64,
                        "time": 93.6150605125,
                        "value": 0
                    },
                    {
                        "number": 64,
                        "time": 93.64878483749999,
                        "value": 1
                    },
                    {
                        "number": 64,
                        "time": 93.93617473749998,
                        "value": 0
                    },
                    {
                        "number": 64,
                        "time": 93.98456181249998,
                        "value": 1
                    },
                    {
                        "number": 64,
                        "time": 94.31520682499998,
                        "value": 0
                    },
                    {
                        "number": 64,
                        "time": 94.34233291249997,
                        "value": 1
                    },
                    {
                        "number": 64,
                        "time": 95.37678992499997,
                        "value": 0
                    },
                    {
                        "number": 64,
                        "time": 95.40831483749997,
                        "value": 1
                    },
                    {
                        "number": 64,
                        "time": 95.72356396249997,
                        "value": 0
                    },
                    {
                        "number": 64,
                        "time": 95.77341731249997,
                        "value": 1
                    },
                    {
                        "number": 64,
                        "time": 96.78221451249998,
                        "value": 0
                    },
                    {
                        "number": 64,
                        "time": 96.82913531249997,
                        "value": 1
                    },
                    {
                        "number": 64,
                        "time": 97.49262474999998,
                        "value": 0
                    },
                    {
                        "number": 64,
                        "time": 97.56227281249997,
                        "value": 1
                    },
                    {
                        "number": 64,
                        "time": 97.84453074999998,
                        "value": 0
                    },
                    {
                        "number": 64,
                        "time": 97.90098233749998,
                        "value": 1
                    },
                    {
                        "number": 64,
                        "time": 98.19643674999999,
                        "value": 0
                    },
                    {
                        "number": 64,
                        "time": 98.24922265,
                        "value": 1
                    },
                    {
                        "number": 64,
                        "time": 99.241890825,
                        "value": 0
                    },
                    {
                        "number": 64,
                        "time": 99.2646180875,
                        "value": 1
                    },
                    {
                        "number": 64,
                        "time": 99.9479022375,
                        "value": 0
                    },
                    {
                        "number": 64,
                        "time": 99.9647644,
                        "value": 1
                    },
                    {
                        "number": 64,
                        "time": 100.65757933750001,
                        "value": 0
                    },
                    {
                        "number": 64,
                        "time": 100.68690483750001,
                        "value": 1
                    },
                    {
                        "number": 64,
                        "time": 101.3525936875,
                        "value": 0
                    },
                    {
                        "number": 64,
                        "time": 101.37605408750001,
                        "value": 1
                    },
                    {
                        "number": 64,
                        "time": 102.063003925,
                        "value": 0
                    },
                    {
                        "number": 64,
                        "time": 102.1091915875,
                        "value": 1
                    },
                    {
                        "number": 64,
                        "time": 102.76754906250001,
                        "value": 0
                    },
                    {
                        "number": 64,
                        "time": 102.78587750000001,
                        "value": 1
                    },
                    {
                        "number": 64,
                        "time": 104.17150737500002,
                        "value": 0
                    },
                    {
                        "number": 64,
                        "time": 104.20449856250002,
                        "value": 1
                    },
                    {
                        "number": 64,
                        "time": 104.53074475000003,
                        "value": 0
                    },
                    {
                        "number": 64,
                        "time": 104.56886790000003,
                        "value": 1
                    },
                    {
                        "number": 64,
                        "time": 105.57326627500002,
                        "value": 0
                    },
                    {
                        "number": 64,
                        "time": 105.59745981250002,
                        "value": 1
                    },
                    {
                        "number": 64,
                        "time": 106.99188733750002,
                        "value": 0
                    },
                    {
                        "number": 64,
                        "time": 107.01754715000001,
                        "value": 1
                    },
                    {
                        "number": 64,
                        "time": 107.69349992500001,
                        "value": 0
                    },
                    {
                        "number": 64,
                        "time": 107.72722425,
                        "value": 1
                    },
                    {
                        "number": 64,
                        "time": 108.39584565000001,
                        "value": 0
                    },
                    {
                        "number": 64,
                        "time": 108.41857291250001,
                        "value": 1
                    },
                    {
                        "number": 64,
                        "time": 108.75141733750002,
                        "value": 0
                    },
                    {
                        "number": 64,
                        "time": 120.03880228750002,
                        "value": 1
                    },
                    {
                        "number": 64,
                        "time": 120.36651475000002,
                        "value": 0
                    },
                    {
                        "number": 64,
                        "time": 120.41416868750002,
                        "value": 1
                    },
                    {
                        "number": 64,
                        "time": 120.71035623750002,
                        "value": 0
                    },
                    {
                        "number": 64,
                        "time": 120.72721840000003,
                        "value": 1
                    },
                    {
                        "number": 64,
                        "time": 121.06006282500003,
                        "value": 0
                    },
                    {
                        "number": 64,
                        "time": 121.08279008750003,
                        "value": 1
                    },
                    {
                        "number": 64,
                        "time": 121.41783392500002,
                        "value": 0
                    },
                    {
                        "number": 64,
                        "time": 122.14510632500003,
                        "value": 1
                    },
                    {
                        "number": 64,
                        "time": 122.47061937500003,
                        "value": 0
                    },
                    {
                        "number": 64,
                        "time": 122.48894781250003,
                        "value": 1
                    },
                    {
                        "number": 64,
                        "time": 122.82032596250004,
                        "value": 0
                    },
                    {
                        "number": 64,
                        "time": 122.85405028750003,
                        "value": 1
                    },
                    {
                        "number": 64,
                        "time": 123.18176275000003,
                        "value": 0
                    },
                    {
                        "number": 64,
                        "time": 123.22941668750003,
                        "value": 1
                    },
                    {
                        "number": 64,
                        "time": 123.52560423750003,
                        "value": 0
                    },
                    {
                        "number": 64,
                        "time": 123.54246640000004,
                        "value": 1
                    },
                    {
                        "number": 64,
                        "time": 123.87531082500004,
                        "value": 0
                    },
                    {
                        "number": 64,
                        "time": 123.89803808750004,
                        "value": 1
                    },
                    {
                        "number": 64,
                        "time": 124.23308192500004,
                        "value": 0
                    },
                    {
                        "number": 64,
                        "time": 124.95815491250004,
                        "value": 1
                    },
                    {
                        "number": 64,
                        "time": 125.28586737500004,
                        "value": 0
                    },
                    {
                        "number": 64,
                        "time": 125.32765621250003,
                        "value": 1
                    },
                    {
                        "number": 64,
                        "time": 125.64070592500003,
                        "value": 0
                    },
                    {
                        "number": 64,
                        "time": 126.33425400000003,
                        "value": 0
                    },
                    {
                        "number": 64,
                        "time": 126.35771440000003,
                        "value": 1
                    },
                    {
                        "number": 64,
                        "time": 126.69055882500004,
                        "value": 0
                    },
                    {
                        "number": 64,
                        "time": 126.71328608750004,
                        "value": 1
                    },
                    {
                        "number": 64,
                        "time": 127.04832992500003,
                        "value": 0
                    },
                    {
                        "number": 64,
                        "time": 127.77340291250003,
                        "value": 1
                    },
                    {
                        "number": 64,
                        "time": 128.45595392500005,
                        "value": 0
                    },
                    {
                        "number": 64,
                        "time": 129.14950200000004,
                        "value": 0
                    },
                    {
                        "number": 64,
                        "time": 129.17296240000005,
                        "value": 1
                    },
                    {
                        "number": 64,
                        "time": 129.50580682500004,
                        "value": 0
                    },
                    {
                        "number": 64,
                        "time": 129.52853408750005,
                        "value": 1
                    },
                    {
                        "number": 64,
                        "time": 129.86357792500004,
                        "value": 0
                    },
                    {
                        "number": 64,
                        "time": 131.43689100000003,
                        "value": 1
                    },
                    {
                        "number": 64,
                        "time": 131.96621627500002,
                        "value": 0
                    },
                    {
                        "number": 64,
                        "time": 131.99334236250002,
                        "value": 1
                    },
                    {
                        "number": 64,
                        "time": 132.68322475000002,
                        "value": 0
                    },
                    {
                        "number": 64,
                        "time": 132.74407516250002,
                        "value": 1
                    },
                    {
                        "number": 64,
                        "time": 133.20228610000004,
                        "value": 0
                    },
                    {
                        "number": 64,
                        "time": 134.08058482500005,
                        "value": 1
                    },
                    {
                        "number": 64,
                        "time": 134.21474898750006,
                        "value": 0
                    },
                    {
                        "number": 64,
                        "time": 134.81372232500007,
                        "value": 1
                    },
                    {
                        "number": 64,
                        "time": 134.94348766250008,
                        "value": 0
                    },
                    {
                        "number": 64,
                        "time": 135.51533491250007,
                        "value": 1
                    },
                    {
                        "number": 64,
                        "time": 135.64729966250007,
                        "value": 0
                    },
                    {
                        "number": 64,
                        "time": 136.21328181250007,
                        "value": 1
                    },
                    {
                        "number": 64,
                        "time": 136.25873633750007,
                        "value": 0
                    },
                    {
                        "number": 64,
                        "time": 139.74040632500007,
                        "value": 1
                    },
                    {
                        "number": 64,
                        "time": 139.85111008750007,
                        "value": 0
                    },
                    {
                        "number": 64,
                        "time": 140.43762008750008,
                        "value": 1
                    },
                    {
                        "number": 64,
                        "time": 140.56811856250008,
                        "value": 0
                    },
                    {
                        "number": 64,
                        "time": 141.16269307500008,
                        "value": 1
                    },
                    {
                        "number": 64,
                        "time": 141.28219448750008,
                        "value": 0
                    },
                    {
                        "number": 64,
                        "time": 141.86210625000007,
                        "value": 1
                    },
                    {
                        "number": 64,
                        "time": 141.97720883750006,
                        "value": 0
                    },
                    {
                        "number": 64,
                        "time": 148.88776291250005,
                        "value": 1
                    },
                    {
                        "number": 64,
                        "time": 149.21254282500004,
                        "value": 0
                    },
                    {
                        "number": 64,
                        "time": 149.28072461250005,
                        "value": 1
                    },
                    {
                        "number": 64,
                        "time": 149.56738137500005,
                        "value": 0
                    },
                    {
                        "number": 64,
                        "time": 149.59157491250005,
                        "value": 1
                    },
                    {
                        "number": 64,
                        "time": 150.28292357500004,
                        "value": 0
                    },
                    {
                        "number": 64,
                        "time": 150.32324613750004,
                        "value": 1
                    },
                    {
                        "number": 64,
                        "time": 150.62089996250003,
                        "value": 0
                    },
                    {
                        "number": 64,
                        "time": 150.65242487500004,
                        "value": 1
                    },
                    {
                        "number": 64,
                        "time": 150.97500537500002,
                        "value": 0
                    },
                    {
                        "number": 64,
                        "time": 151.03292323750003,
                        "value": 1
                    },
                    {
                        "number": 64,
                        "time": 151.67808423750003,
                        "value": 0
                    },
                    {
                        "number": 64,
                        "time": 151.74919857500004,
                        "value": 1
                    },
                    {
                        "number": 64,
                        "time": 152.03658847500003,
                        "value": 0
                    },
                    {
                        "number": 64,
                        "time": 152.10403712500002,
                        "value": 1
                    },
                    {
                        "number": 64,
                        "time": 152.38262937500002,
                        "value": 0
                    },
                    {
                        "number": 64,
                        "time": 152.40682291250002,
                        "value": 1
                    },
                    {
                        "number": 64,
                        "time": 153.08864078750003,
                        "value": 0
                    },
                    {
                        "number": 64,
                        "time": 153.13849413750003,
                        "value": 1
                    },
                    {
                        "number": 64,
                        "time": 153.43614796250003,
                        "value": 0
                    },
                    {
                        "number": 64,
                        "time": 153.46767287500003,
                        "value": 1
                    },
                    {
                        "number": 64,
                        "time": 153.78805396250004,
                        "value": 0
                    },
                    {
                        "number": 64,
                        "time": 153.85990143750004,
                        "value": 1
                    },
                    {
                        "number": 64,
                        "time": 154.22793646250005,
                        "value": 0
                    },
                    {
                        "number": 64,
                        "time": 160.99699500000006,
                        "value": 1
                    },
                    {
                        "number": 64,
                        "time": 161.17807996250005,
                        "value": 0
                    },
                    {
                        "number": 64,
                        "time": 161.35916492500004,
                        "value": 1
                    },
                    {
                        "number": 64,
                        "time": 161.52485400000003,
                        "value": 0
                    },
                    {
                        "number": 64,
                        "time": 161.71400347500003,
                        "value": 1
                    },
                    {
                        "number": 64,
                        "time": 161.89068961250004,
                        "value": 0
                    },
                    {
                        "number": 64,
                        "time": 162.06297692500004,
                        "value": 1
                    },
                    {
                        "number": 64,
                        "time": 162.22866600000003,
                        "value": 0
                    },
                    {
                        "number": 64,
                        "time": 162.41414978750004,
                        "value": 1
                    },
                    {
                        "number": 64,
                        "time": 162.58643710000004,
                        "value": 0
                    },
                    {
                        "number": 64,
                        "time": 162.76752206250003,
                        "value": 1
                    },
                    {
                        "number": 64,
                        "time": 162.93247800000003,
                        "value": 0
                    },
                    {
                        "number": 64,
                        "time": 163.11356296250003,
                        "value": 1
                    },
                    {
                        "number": 64,
                        "time": 163.29391478750003,
                        "value": 0
                    },
                    {
                        "number": 64,
                        "time": 163.47499975000002,
                        "value": 1
                    },
                    {
                        "number": 64,
                        "time": 163.63629000000003,
                        "value": 0
                    },
                    {
                        "number": 64,
                        "time": 163.81810810000002,
                        "value": 1
                    },
                    {
                        "number": 64,
                        "time": 163.99039541250002,
                        "value": 0
                    },
                    {
                        "number": 64,
                        "time": 164.17514606250003,
                        "value": 1
                    },
                    {
                        "number": 64,
                        "time": 164.34010200000003,
                        "value": 0
                    },
                    {
                        "number": 64,
                        "time": 164.52558578750003,
                        "value": 1
                    },
                    {
                        "number": 64,
                        "time": 164.69420741250002,
                        "value": 0
                    },
                    {
                        "number": 64,
                        "time": 164.88262375000002,
                        "value": 1
                    },
                    {
                        "number": 64,
                        "time": 165.04391400000003,
                        "value": 0
                    },
                    {
                        "number": 64,
                        "time": 165.23159720000004,
                        "value": 1
                    },
                    {
                        "number": 64,
                        "time": 165.40168510000004,
                        "value": 0
                    },
                    {
                        "number": 64,
                        "time": 165.57763810000003,
                        "value": 1
                    },
                    {
                        "number": 64,
                        "time": 165.74772600000003,
                        "value": 0
                    },
                    {
                        "number": 64,
                        "time": 165.92954410000002,
                        "value": 1
                    },
                    {
                        "number": 64,
                        "time": 166.1106290625,
                        "value": 0
                    },
                    {
                        "number": 64,
                        "time": 166.62749100000002,
                        "value": 1
                    },
                    {
                        "number": 64,
                        "time": 166.98746151250003,
                        "value": 0
                    },
                    {
                        "number": 64,
                        "time": 167.34816516250004,
                        "value": 1
                    },
                    {
                        "number": 64,
                        "time": 167.69420606250003,
                        "value": 0
                    },
                    {
                        "number": 64,
                        "time": 168.06150795000002,
                        "value": 1
                    },
                    {
                        "number": 64,
                        "time": 168.38995355000003,
                        "value": 0
                    },
                    {
                        "number": 64,
                        "time": 168.76238740000002,
                        "value": 1
                    },
                    {
                        "number": 64,
                        "time": 169.09303241250004,
                        "value": 0
                    },
                    {
                        "number": 64,
                        "time": 169.46913195000005,
                        "value": 1
                    },
                    {
                        "number": 64,
                        "time": 169.79977696250006,
                        "value": 0
                    },
                    {
                        "number": 64,
                        "time": 170.17367708750007,
                        "value": 1
                    },
                    {
                        "number": 64,
                        "time": 170.51092033750007,
                        "value": 0
                    },
                    {
                        "number": 64,
                        "time": 170.67441000000008,
                        "value": 0
                    },
                    {
                        "number": 64,
                        "time": 170.85036300000007,
                        "value": 1
                    },
                    {
                        "number": 64,
                        "time": 171.37822200000008,
                        "value": 0
                    },
                    {
                        "number": 64,
                        "time": 171.57983481250008,
                        "value": 1
                    },
                    {
                        "number": 64,
                        "time": 172.08203400000008,
                        "value": 0
                    },
                    {
                        "number": 64,
                        "time": 172.27924798750007,
                        "value": 1
                    },
                    {
                        "number": 64,
                        "time": 172.78584600000008,
                        "value": 0
                    },
                    {
                        "number": 64,
                        "time": 172.98086057500007,
                        "value": 1
                    },
                    {
                        "number": 64,
                        "time": 173.48965800000008,
                        "value": 0
                    },
                    {
                        "number": 64,
                        "time": 173.68687198750007,
                        "value": 1
                    },
                    {
                        "number": 64,
                        "time": 174.19347000000008,
                        "value": 0
                    },
                    {
                        "number": 64,
                        "time": 174.39654908750006,
                        "value": 1
                    },
                    {
                        "number": 64,
                        "time": 174.89728200000008,
                        "value": 0
                    },
                    {
                        "number": 64,
                        "time": 175.09889481250008,
                        "value": 1
                    },
                    {
                        "number": 64,
                        "time": 175.60109400000007,
                        "value": 0
                    },
                    {
                        "number": 64,
                        "time": 175.62455440000008,
                        "value": 1
                    },
                    {
                        "number": 64,
                        "time": 175.67074206250007,
                        "value": 0
                    },
                    {
                        "number": 64,
                        "time": 175.95300000000006,
                        "value": 0
                    },
                    {
                        "number": 64,
                        "time": 175.97646040000006,
                        "value": 1
                    },
                    {
                        "number": 64,
                        "time": 176.08129906250005,
                        "value": 0
                    },
                    {
                        "number": 64,
                        "time": 176.30490600000005,
                        "value": 1
                    },
                    {
                        "number": 64,
                        "time": 176.37821975000006,
                        "value": 0
                    },
                    {
                        "number": 64,
                        "time": 176.65461258750005,
                        "value": 1
                    },
                    {
                        "number": 64,
                        "time": 176.71326358750005,
                        "value": 0
                    },
                    {
                        "number": 64,
                        "time": 177.03731036250005,
                        "value": 1
                    },
                    {
                        "number": 64,
                        "time": 177.71912823750006,
                        "value": 0
                    },
                    {
                        "number": 64,
                        "time": 177.74185550000007,
                        "value": 1
                    },
                    {
                        "number": 64,
                        "time": 181.06223523750006,
                        "value": 0
                    },
                    {
                        "number": 64,
                        "time": 182.30636957500005,
                        "value": 0
                    },
                    {
                        "number": 64,
                        "time": 182.32103232500006,
                        "value": 1
                    },
                    {
                        "number": 64,
                        "time": 184.22938923750007,
                        "value": 0
                    },
                    {
                        "number": 64,
                        "time": 184.59522485000008,
                        "value": 0
                    },
                    {
                        "number": 64,
                        "time": 184.6502101625001,
                        "value": 1
                    },
                    {
                        "number": 64,
                        "time": 185.10548855000008,
                        "value": 0
                    },
                    {
                        "number": 64,
                        "time": 197.98524815000007,
                        "value": 1
                    },
                    {
                        "number": 64,
                        "time": 198.30562923750009,
                        "value": 0
                    },
                    {
                        "number": 64,
                        "time": 198.35401631250008,
                        "value": 1
                    },
                    {
                        "number": 64,
                        "time": 198.65093700000008,
                        "value": 0
                    },
                    {
                        "number": 64,
                        "time": 198.7755703750001,
                        "value": 1
                    },
                    {
                        "number": 64,
                        "time": 199.01750575000008,
                        "value": 0
                    },
                    {
                        "number": 64,
                        "time": 199.12747637500007,
                        "value": 1
                    },
                    {
                        "number": 64,
                        "time": 199.36208037500006,
                        "value": 0
                    },
                    {
                        "number": 64,
                        "time": 199.42219765000007,
                        "value": 1
                    },
                    {
                        "number": 64,
                        "time": 200.06809178750007,
                        "value": 0
                    },
                    {
                        "number": 64,
                        "time": 200.14653750000008,
                        "value": 1
                    },
                    {
                        "number": 64,
                        "time": 200.41559896250007,
                        "value": 0
                    },
                    {
                        "number": 64,
                        "time": 200.48304761250006,
                        "value": 1
                    },
                    {
                        "number": 64,
                        "time": 200.76970437500006,
                        "value": 0
                    },
                    {
                        "number": 64,
                        "time": 200.79389791250006,
                        "value": 1
                    },
                    {
                        "number": 64,
                        "time": 201.47278323750007,
                        "value": 0
                    },
                    {
                        "number": 64,
                        "time": 201.58055445000008,
                        "value": 1
                    },
                    {
                        "number": 64,
                        "time": 201.82248982500008,
                        "value": 0
                    },
                    {
                        "number": 64,
                        "time": 201.93246045000006,
                        "value": 1
                    },
                    {
                        "number": 64,
                        "time": 202.17732837500006,
                        "value": 0
                    },
                    {
                        "number": 64,
                        "time": 202.23304682500006,
                        "value": 1
                    },
                    {
                        "number": 64,
                        "time": 202.88333978750006,
                        "value": 0
                    },
                    {
                        "number": 64,
                        "time": 202.93319313750007,
                        "value": 1
                    },
                    {
                        "number": 64,
                        "time": 203.23084696250007,
                        "value": 0
                    },
                    {
                        "number": 64,
                        "time": 203.26237187500007,
                        "value": 1
                    },
                    {
                        "number": 64,
                        "time": 203.57762100000008,
                        "value": 0
                    },
                    {
                        "number": 64,
                        "time": 203.65533357500007,
                        "value": 1
                    },
                    {
                        "number": 64,
                        "time": 204.19345650000008,
                        "value": 0
                    },
                    {
                        "number": 64,
                        "time": 206.59008298750007,
                        "value": 1
                    },
                    {
                        "number": 64,
                        "time": 206.93319133750006,
                        "value": 0
                    },
                    {
                        "number": 64,
                        "time": 207.28583047500007,
                        "value": 1
                    },
                    {
                        "number": 64,
                        "time": 207.80195927500006,
                        "value": 0
                    },
                    {
                        "number": 64,
                        "time": 207.97644600000007,
                        "value": 1
                    },
                    {
                        "number": 64,
                        "time": 208.51896775000006,
                        "value": 0
                    },
                    {
                        "number": 64,
                        "time": 208.69345447500007,
                        "value": 1
                    },
                    {
                        "number": 64,
                        "time": 209.02190007500008,
                        "value": 0
                    },
                    {
                        "number": 64,
                        "time": 209.45958316250008,
                        "value": 1
                    },
                    {
                        "number": 64,
                        "time": 209.74917247500008,
                        "value": 0
                    },
                    {
                        "number": 64,
                        "time": 210.11574122500008,
                        "value": 1
                    },
                    {
                        "number": 64,
                        "time": 210.45298447500008,
                        "value": 0
                    },
                    {
                        "number": 64,
                        "time": 210.6780576875001,
                        "value": 1
                    },
                    {
                        "number": 64,
                        "time": 211.15679647500008,
                        "value": 0
                    },
                    {
                        "number": 64,
                        "time": 211.52043267500008,
                        "value": 1
                    },
                    {
                        "number": 64,
                        "time": 211.86060847500008,
                        "value": 0
                    },
                    {
                        "number": 64,
                        "time": 212.23597487500007,
                        "value": 1
                    },
                    {
                        "number": 64,
                        "time": 212.56442047500008,
                        "value": 0
                    },
                    {
                        "number": 64,
                        "time": 212.93978687500007,
                        "value": 1
                    },
                    {
                        "number": 64,
                        "time": 213.26823247500008,
                        "value": 0
                    },
                    {
                        "number": 64,
                        "time": 213.43098900000007,
                        "value": 1
                    },
                    {
                        "number": 64,
                        "time": 213.79389206250008,
                        "value": 0
                    },
                    {
                        "number": 64,
                        "time": 213.9786427125001,
                        "value": 1
                    },
                    {
                        "number": 64,
                        "time": 214.1348010000001,
                        "value": 0
                    },
                    {
                        "number": 64,
                        "time": 214.9185249875001,
                        "value": 1
                    },
                    {
                        "number": 64,
                        "time": 215.54609068750008,
                        "value": 0
                    },
                    {
                        "number": 64,
                        "time": 216.2462370000001,
                        "value": 1
                    },
                    {
                        "number": 64,
                        "time": 217.1934506500001,
                        "value": 0
                    },
                    {
                        "number": 64,
                        "time": 218.3576730000001,
                        "value": 1
                    },
                    {
                        "number": 64,
                        "time": 218.74110391250008,
                        "value": 0
                    },
                    {
                        "number": 64,
                        "time": 219.10840580000007,
                        "value": 1
                    },
                    {
                        "number": 64,
                        "time": 219.59960792500007,
                        "value": 0
                    },
                    {
                        "number": 64,
                        "time": 219.79902132500007,
                        "value": 1
                    },
                    {
                        "number": 64,
                        "time": 220.11720300000007,
                        "value": 0
                    },
                    {
                        "number": 64,
                        "time": 221.22057493750006,
                        "value": 1
                    },
                    {
                        "number": 64,
                        "time": 221.53435778750006,
                        "value": 0
                    },
                    {
                        "number": 64,
                        "time": 222.01163030000006,
                        "value": 1
                    },
                    {
                        "number": 64,
                        "time": 222.44638083750007,
                        "value": 0
                    },
                    {
                        "number": 64,
                        "time": 222.61426932500007,
                        "value": 1
                    },
                    {
                        "number": 64,
                        "time": 222.78215781250006,
                        "value": 0
                    },
                    {
                        "number": 64,
                        "time": 224.03142411250005,
                        "value": 1
                    },
                    {
                        "number": 64,
                        "time": 224.33567617500006,
                        "value": 0
                    },
                    {
                        "number": 64,
                        "time": 224.78508946250005,
                        "value": 1
                    },
                    {
                        "number": 64,
                        "time": 225.23010392500007,
                        "value": 0
                    },
                    {
                        "number": 64,
                        "time": 225.42145281250006,
                        "value": 1
                    },
                    {
                        "number": 64,
                        "time": 225.58420933750006,
                        "value": 0
                    },
                    {
                        "number": 64,
                        "time": 226.86060172500007,
                        "value": 1
                    },
                    {
                        "number": 64,
                        "time": 227.15019103750006,
                        "value": 0
                    },
                    {
                        "number": 64,
                        "time": 227.59520550000008,
                        "value": 1
                    },
                    {
                        "number": 64,
                        "time": 228.0453519250001,
                        "value": 0
                    },
                    {
                        "number": 64,
                        "time": 228.2572286625001,
                        "value": 1
                    },
                    {
                        "number": 64,
                        "time": 228.5629470000001,
                        "value": 0
                    },
                    {
                        "number": 64,
                        "time": 229.66631893750008,
                        "value": 1
                    },
                    {
                        "number": 64,
                        "time": 229.96104021250008,
                        "value": 0
                    },
                    {
                        "number": 64,
                        "time": 230.40018957500007,
                        "value": 1
                    },
                    {
                        "number": 64,
                        "time": 230.89212483750006,
                        "value": 0
                    },
                    {
                        "number": 64,
                        "time": 231.07247666250007,
                        "value": 1
                    },
                    {
                        "number": 64,
                        "time": 231.22790181250008,
                        "value": 0
                    },
                    {
                        "number": 64,
                        "time": 232.47716811250007,
                        "value": 1
                    },
                    {
                        "number": 64,
                        "time": 232.79095096250006,
                        "value": 0
                    },
                    {
                        "number": 64,
                        "time": 233.23596542500007,
                        "value": 1
                    },
                    {
                        "number": 64,
                        "time": 233.67584792500008,
                        "value": 0
                    },
                    {
                        "number": 64,
                        "time": 233.87526132500008,
                        "value": 1
                    },
                    {
                        "number": 64,
                        "time": 234.02995333750007,
                        "value": 0
                    },
                    {
                        "number": 64,
                        "time": 235.99989380000008,
                        "value": 1
                    },
                    {
                        "number": 64,
                        "time": 236.3180754750001,
                        "value": 0
                    },
                    {
                        "number": 64,
                        "time": 236.70883776250008,
                        "value": 1
                    },
                    {
                        "number": 64,
                        "time": 236.88479076250007,
                        "value": 0
                    },
                    {
                        "number": 64,
                        "time": 237.41264976250008,
                        "value": 1
                    },
                    {
                        "number": 64,
                        "time": 237.72569947500008,
                        "value": 0
                    },
                    {
                        "number": 64,
                        "time": 238.12159372500008,
                        "value": 1
                    },
                    {
                        "number": 64,
                        "time": 238.29241476250007,
                        "value": 0
                    },
                    {
                        "number": 64,
                        "time": 238.76822100000007,
                        "value": 1
                    },
                    {
                        "number": 64,
                        "time": 239.11499503750008,
                        "value": 0
                    },
                    {
                        "number": 64,
                        "time": 239.56440832500007,
                        "value": 1
                    },
                    {
                        "number": 64,
                        "time": 239.84080116250007,
                        "value": 0
                    },
                    {
                        "number": 64,
                        "time": 240.96250153750006,
                        "value": 1
                    },
                    {
                        "number": 64,
                        "time": 241.25795595000005,
                        "value": 0
                    },
                    {
                        "number": 64,
                        "time": 242.34446572500005,
                        "value": 1
                    },
                    {
                        "number": 64,
                        "time": 242.49989087500006,
                        "value": 0
                    },
                    {
                        "number": 64,
                        "time": 243.53947985000005,
                        "value": 1
                    },
                    {
                        "number": 64,
                        "time": 244.06000747500005,
                        "value": 0
                    },
                    {
                        "number": 64,
                        "time": 244.24329185000005,
                        "value": 1
                    },
                    {
                        "number": 64,
                        "time": 244.80780772500006,
                        "value": 0
                    },
                    {
                        "number": 64,
                        "time": 244.91631207500006,
                        "value": 1
                    },
                    {
                        "number": 64,
                        "time": 245.45956696250008,
                        "value": 0
                    },
                    {
                        "number": 64,
                        "time": 245.67217683750007,
                        "value": 1
                    },
                    {
                        "number": 64,
                        "time": 246.36572491250007,
                        "value": 0
                    },
                    {
                        "number": 64,
                        "time": 246.57760165000008,
                        "value": 1
                    },
                    {
                        "number": 64,
                        "time": 246.86205900000007,
                        "value": 0
                    },
                    {
                        "number": 64,
                        "time": 247.27261600000008,
                        "value": 1
                    },
                    {
                        "number": 64,
                        "time": 247.6039941500001,
                        "value": 0
                    },
                    {
                        "number": 64,
                        "time": 248.6890376500001,
                        "value": 1
                    },
                    {
                        "number": 64,
                        "time": 248.9786269625001,
                        "value": 0
                    },
                    {
                        "number": 64,
                        "time": 250.0915296875001,
                        "value": 1
                    },
                    {
                        "number": 64,
                        "time": 250.4331717625001,
                        "value": 0
                    },
                    {
                        "number": 64,
                        "time": 250.7792126625001,
                        "value": 1
                    },
                    {
                        "number": 64,
                        "time": 251.1061919875001,
                        "value": 0
                    },
                    {
                        "number": 64,
                        "time": 251.5211478125001,
                        "value": 1
                    },
                    {
                        "number": 64,
                        "time": 251.7960743750001,
                        "value": 0
                    },
                    {
                        "number": 64,
                        "time": 252.9221735750001,
                        "value": 1
                    },
                    {
                        "number": 64,
                        "time": 253.1912350375001,
                        "value": 0
                    },
                    {
                        "number": 64,
                        "time": 254.3144016875001,
                        "value": 1
                    },
                    {
                        "number": 64,
                        "time": 254.6560437625001,
                        "value": 0
                    },
                    {
                        "number": 64,
                        "time": 254.9874219125001,
                        "value": 1
                    },
                    {
                        "number": 64,
                        "time": 255.3202663375001,
                        "value": 0
                    },
                    {
                        "number": 64,
                        "time": 255.3569232125001,
                        "value": 1
                    },
                    {
                        "number": 64,
                        "time": 255.66630723750012,
                        "value": 0
                    },
                    {
                        "number": 64,
                        "time": 255.71689372500012,
                        "value": 1
                    },
                    {
                        "number": 64,
                        "time": 256.0218789250001,
                        "value": 0
                    },
                    {
                        "number": 64,
                        "time": 256.05853580000013,
                        "value": 1
                    },
                    {
                        "number": 64,
                        "time": 256.3745180625001,
                        "value": 0
                    },
                    {
                        "number": 64,
                        "time": 256.4339022000001,
                        "value": 1
                    },
                    {
                        "number": 64,
                        "time": 256.72789033750007,
                        "value": 0
                    },
                    {
                        "number": 64,
                        "time": 256.7645472125001,
                        "value": 1
                    },
                    {
                        "number": 64,
                        "time": 257.07393123750006,
                        "value": 0
                    },
                    {
                        "number": 64,
                        "time": 257.1245177250001,
                        "value": 1
                    },
                    {
                        "number": 64,
                        "time": 257.42950292500007,
                        "value": 0
                    },
                    {
                        "number": 64,
                        "time": 257.46615980000007,
                        "value": 1
                    },
                    {
                        "number": 64,
                        "time": 257.77114500000005,
                        "value": 0
                    },
                    {
                        "number": 64,
                        "time": 257.84665816250003,
                        "value": 1
                    },
                    {
                        "number": 64,
                        "time": 258.13331492500004,
                        "value": 0
                    },
                    {
                        "number": 64,
                        "time": 258.1985641625,
                        "value": 1
                    },
                    {
                        "number": 64,
                        "time": 258.482288375,
                        "value": 0
                    },
                    {
                        "number": 64,
                        "time": 258.5064819125,
                        "value": 1
                    },
                    {
                        "number": 64,
                        "time": 258.83932633750004,
                        "value": 0
                    },
                    {
                        "number": 64,
                        "time": 258.87598321250005,
                        "value": 1
                    },
                    {
                        "number": 64,
                        "time": 259.18536723750003,
                        "value": 0
                    },
                    {
                        "number": 64,
                        "time": 259.23595372500006,
                        "value": 1
                    },
                    {
                        "number": 64,
                        "time": 259.54093892500003,
                        "value": 0
                    },
                    {
                        "number": 64,
                        "time": 259.57759580000004,
                        "value": 1
                    },
                    {
                        "number": 64,
                        "time": 259.892844925,
                        "value": 0
                    },
                    {
                        "number": 64,
                        "time": 259.9529622,
                        "value": 1
                    },
                    {
                        "number": 64,
                        "time": 260.2469503375,
                        "value": 0
                    },
                    {
                        "number": 64,
                        "time": 260.2836072125,
                        "value": 1
                    },
                    {
                        "number": 64,
                        "time": 260.5929912375,
                        "value": 0
                    },
                    {
                        "number": 64,
                        "time": 260.643577725,
                        "value": 1
                    },
                    {
                        "number": 64,
                        "time": 260.948562925,
                        "value": 0
                    },
                    {
                        "number": 64,
                        "time": 260.9852198,
                        "value": 1
                    },
                    {
                        "number": 64,
                        "time": 261.2924044125,
                        "value": 0
                    },
                    {
                        "number": 64,
                        "time": 261.3657181625,
                        "value": 1
                    },
                    {
                        "number": 64,
                        "time": 261.649442375,
                        "value": 0
                    },
                    {
                        "number": 64,
                        "time": 261.7176241625,
                        "value": 1
                    },
                    {
                        "number": 64,
                        "time": 261.994017,
                        "value": 0
                    },
                    {
                        "number": 64,
                        "time": 261.9976826875,
                        "value": 0
                    },
                    {
                        "number": 64,
                        "time": 262.0255419125,
                        "value": 1
                    },
                    {
                        "number": 64,
                        "time": 262.3583863375,
                        "value": 0
                    },
                    {
                        "number": 64,
                        "time": 262.3950432125,
                        "value": 1
                    },
                    {
                        "number": 64,
                        "time": 262.7044272375,
                        "value": 0
                    },
                    {
                        "number": 64,
                        "time": 262.755013725,
                        "value": 1
                    },
                    {
                        "number": 64,
                        "time": 263.059998925,
                        "value": 0
                    },
                    {
                        "number": 64,
                        "time": 263.0966558,
                        "value": 1
                    },
                    {
                        "number": 64,
                        "time": 263.4067729625,
                        "value": 0
                    },
                    {
                        "number": 64,
                        "time": 263.47715416249997,
                        "value": 1
                    },
                    {
                        "number": 64,
                        "time": 263.75647955,
                        "value": 0
                    },
                    {
                        "number": 64,
                        "time": 263.8290601625,
                        "value": 1
                    },
                    {
                        "number": 64,
                        "time": 264.105453,
                        "value": 0
                    },
                    {
                        "number": 64,
                        "time": 264.105453,
                        "value": 0
                    },
                    {
                        "number": 64,
                        "time": 264.1369779125,
                        "value": 1
                    },
                    {
                        "number": 64,
                        "time": 264.2924030625,
                        "value": 0
                    },
                    {
                        "number": 64,
                        "time": 264.3231948375,
                        "value": 1
                    },
                    {
                        "number": 64,
                        "time": 264.46982233750003,
                        "value": 0
                    },
                    {
                        "number": 64,
                        "time": 264.50647921250004,
                        "value": 1
                    },
                    {
                        "number": 64,
                        "time": 264.6413765125,
                        "value": 0
                    },
                    {
                        "number": 64,
                        "time": 264.667036325,
                        "value": 1
                    },
                    {
                        "number": 64,
                        "time": 264.8158632375,
                        "value": 0
                    },
                    {
                        "number": 64,
                        "time": 264.8642503125,
                        "value": 1
                    },
                    {
                        "number": 64,
                        "time": 264.99474878750004,
                        "value": 0
                    },
                    {
                        "number": 64,
                        "time": 265.04386900000003,
                        "value": 1
                    },
                    {
                        "number": 64,
                        "time": 265.171434925,
                        "value": 0
                    },
                    {
                        "number": 64,
                        "time": 265.20809180000003,
                        "value": 1
                    },
                    {
                        "number": 64,
                        "time": 265.3429891,
                        "value": 0
                    },
                    {
                        "number": 64,
                        "time": 265.3789128375,
                        "value": 1
                    },
                    {
                        "number": 64,
                        "time": 265.517475825,
                        "value": 0
                    },
                    {
                        "number": 64,
                        "time": 265.5885901625,
                        "value": 1
                    },
                    {
                        "number": 64,
                        "time": 265.8745137875,
                        "value": 0
                    },
                    {
                        "number": 64,
                        "time": 265.9404961625,
                        "value": 1
                    },
                    {
                        "number": 64,
                        "time": 266.216889,
                        "value": 0
                    },
                    {
                        "number": 64,
                        "time": 266.2220209625,
                        "value": 0
                    },
                    {
                        "number": 64,
                        "time": 266.2484139125,
                        "value": 1
                    },
                    {
                        "number": 64,
                        "time": 266.5812583375,
                        "value": 0
                    },
                    {
                        "number": 64,
                        "time": 266.6179152125,
                        "value": 1
                    },
                    {
                        "number": 64,
                        "time": 266.9272992375,
                        "value": 0
                    },
                    {
                        "number": 64,
                        "time": 266.977885725,
                        "value": 1
                    },
                    {
                        "number": 64,
                        "time": 267.282870925,
                        "value": 0
                    },
                    {
                        "number": 64,
                        "time": 267.3195278,
                        "value": 1
                    },
                    {
                        "number": 64,
                        "time": 267.63037810000003,
                        "value": 0
                    },
                    {
                        "number": 64,
                        "time": 267.7000261625,
                        "value": 1
                    },
                    {
                        "number": 64,
                        "time": 267.97935155000005,
                        "value": 0
                    },
                    {
                        "number": 64,
                        "time": 268.05193216250007,
                        "value": 1
                    },
                    {
                        "number": 64,
                        "time": 268.32832500000006,
                        "value": 0
                    },
                    {
                        "number": 64,
                        "time": 268.32832500000006,
                        "value": 0
                    },
                    {
                        "number": 64,
                        "time": 268.35984991250007,
                        "value": 1
                    },
                    {
                        "number": 64,
                        "time": 268.51527506250005,
                        "value": 0
                    },
                    {
                        "number": 64,
                        "time": 268.54606683750006,
                        "value": 1
                    },
                    {
                        "number": 64,
                        "time": 268.6926943375001,
                        "value": 0
                    },
                    {
                        "number": 64,
                        "time": 268.7293512125001,
                        "value": 1
                    },
                    {
                        "number": 64,
                        "time": 268.86424851250007,
                        "value": 0
                    },
                    {
                        "number": 64,
                        "time": 268.8899083250001,
                        "value": 1
                    },
                    {
                        "number": 64,
                        "time": 269.0387352375001,
                        "value": 0
                    },
                    {
                        "number": 64,
                        "time": 269.08712231250007,
                        "value": 1
                    },
                    {
                        "number": 64,
                        "time": 269.2190870625001,
                        "value": 0
                    },
                    {
                        "number": 64,
                        "time": 269.2667410000001,
                        "value": 1
                    },
                    {
                        "number": 64,
                        "time": 269.3943069250001,
                        "value": 0
                    },
                    {
                        "number": 64,
                        "time": 269.4309638000001,
                        "value": 1
                    },
                    {
                        "number": 64,
                        "time": 269.56586110000006,
                        "value": 0
                    },
                    {
                        "number": 64,
                        "time": 269.6017848375001,
                        "value": 1
                    },
                    {
                        "number": 64,
                        "time": 269.7403478250001,
                        "value": 0
                    },
                    {
                        "number": 64,
                        "time": 269.81146216250005,
                        "value": 1
                    },
                    {
                        "number": 64,
                        "time": 270.0907875500001,
                        "value": 0
                    },
                    {
                        "number": 64,
                        "time": 270.1633681625001,
                        "value": 1
                    },
                    {
                        "number": 64,
                        "time": 270.4456261000001,
                        "value": 0
                    },
                    {
                        "number": 64,
                        "time": 270.4712859125001,
                        "value": 1
                    },
                    {
                        "number": 64,
                        "time": 270.8041303375001,
                        "value": 0
                    },
                    {
                        "number": 64,
                        "time": 270.8407872125001,
                        "value": 1
                    },
                    {
                        "number": 64,
                        "time": 271.1501712375001,
                        "value": 0
                    },
                    {
                        "number": 64,
                        "time": 271.20075772500013,
                        "value": 1
                    },
                    {
                        "number": 64,
                        "time": 271.5057429250001,
                        "value": 0
                    },
                    {
                        "number": 64,
                        "time": 271.5423998000001,
                        "value": 1
                    },
                    {
                        "number": 64,
                        "time": 271.85911520000013,
                        "value": 0
                    },
                    {
                        "number": 64,
                        "time": 271.91776620000013,
                        "value": 1
                    },
                    {
                        "number": 64,
                        "time": 272.2117543375001,
                        "value": 0
                    },
                    {
                        "number": 64,
                        "time": 272.2484112125001,
                        "value": 1
                    },
                    {
                        "number": 64,
                        "time": 272.5577952375001,
                        "value": 0
                    },
                    {
                        "number": 64,
                        "time": 272.60838172500013,
                        "value": 1
                    },
                    {
                        "number": 64,
                        "time": 272.9133669250001,
                        "value": 0
                    },
                    {
                        "number": 64,
                        "time": 272.9500238000001,
                        "value": 1
                    },
                    {
                        "number": 64,
                        "time": 273.2594078250001,
                        "value": 0
                    },
                    {
                        "number": 64,
                        "time": 273.3305221625001,
                        "value": 1
                    },
                    {
                        "number": 64,
                        "time": 273.6098475500001,
                        "value": 0
                    },
                    {
                        "number": 64,
                        "time": 273.6824281625001,
                        "value": 1
                    },
                    {
                        "number": 64,
                        "time": 273.9588210000001,
                        "value": 0
                    },
                    {
                        "number": 64,
                        "time": 273.9903459125001,
                        "value": 1
                    },
                    {
                        "number": 64,
                        "time": 274.32319033750014,
                        "value": 0
                    },
                    {
                        "number": 64,
                        "time": 274.35984721250014,
                        "value": 1
                    },
                    {
                        "number": 64,
                        "time": 274.6692312375001,
                        "value": 0
                    },
                    {
                        "number": 64,
                        "time": 274.71981772500015,
                        "value": 1
                    },
                    {
                        "number": 64,
                        "time": 275.02480292500013,
                        "value": 0
                    },
                    {
                        "number": 64,
                        "time": 275.06145980000014,
                        "value": 1
                    },
                    {
                        "number": 64,
                        "time": 275.3811077500001,
                        "value": 0
                    },
                    {
                        "number": 64,
                        "time": 275.4368262000001,
                        "value": 1
                    },
                    {
                        "number": 64,
                        "time": 275.7308143375001,
                        "value": 0
                    },
                    {
                        "number": 64,
                        "time": 275.7674712125001,
                        "value": 1
                    },
                    {
                        "number": 64,
                        "time": 276.07685523750007,
                        "value": 0
                    },
                    {
                        "number": 64,
                        "time": 276.1274417250001,
                        "value": 1
                    },
                    {
                        "number": 64,
                        "time": 276.4324269250001,
                        "value": 0
                    },
                    {
                        "number": 64,
                        "time": 276.4690838000001,
                        "value": 1
                    },
                    {
                        "number": 64,
                        "time": 276.7777346875001,
                        "value": 0
                    },
                    {
                        "number": 64,
                        "time": 276.8495821625001,
                        "value": 1
                    },
                    {
                        "number": 64,
                        "time": 277.1347726500001,
                        "value": 0
                    },
                    {
                        "number": 64,
                        "time": 277.20148816250014,
                        "value": 1
                    },
                    {
                        "number": 64,
                        "time": 277.48741178750015,
                        "value": 0
                    },
                    {
                        "number": 64,
                        "time": 277.5064733625002,
                        "value": 1
                    },
                    {
                        "number": 64,
                        "time": 277.8393177875002,
                        "value": 0
                    },
                    {
                        "number": 64,
                        "time": 277.8767078000002,
                        "value": 1
                    },
                    {
                        "number": 64,
                        "time": 278.1904906500002,
                        "value": 0
                    },
                    {
                        "number": 64,
                        "time": 278.2205492875002,
                        "value": 1
                    },
                    {
                        "number": 64,
                        "time": 278.5409303750002,
                        "value": 0
                    },
                    {
                        "number": 64,
                        "time": 278.5651239125002,
                        "value": 1
                    },
                    {
                        "number": 64,
                        "time": 278.8906369625002,
                        "value": 0
                    },
                    {
                        "number": 64,
                        "time": 278.9610181625002,
                        "value": 1
                    },
                    {
                        "number": 64,
                        "time": 279.2403435500002,
                        "value": 0
                    },
                    {
                        "number": 64,
                        "time": 279.3129241625002,
                        "value": 1
                    },
                    {
                        "number": 64,
                        "time": 279.5893170000002,
                        "value": 0
                    },
                    {
                        "number": 64,
                        "time": 279.5951821000002,
                        "value": 0
                    },
                    {
                        "number": 64,
                        "time": 279.6208419125002,
                        "value": 1
                    },
                    {
                        "number": 64,
                        "time": 279.7762670625002,
                        "value": 0
                    },
                    {
                        "number": 64,
                        "time": 279.8070588375002,
                        "value": 1
                    },
                    {
                        "number": 64,
                        "time": 279.95368633750024,
                        "value": 0
                    },
                    {
                        "number": 64,
                        "time": 279.99034321250025,
                        "value": 1
                    },
                    {
                        "number": 64,
                        "time": 280.1252405125002,
                        "value": 0
                    },
                    {
                        "number": 64,
                        "time": 280.15090032500024,
                        "value": 1
                    },
                    {
                        "number": 64,
                        "time": 280.29972723750024,
                        "value": 0
                    },
                    {
                        "number": 64,
                        "time": 280.34811431250023,
                        "value": 1
                    },
                    {
                        "number": 64,
                        "time": 280.4822784750002,
                        "value": 0
                    },
                    {
                        "number": 64,
                        "time": 280.52773300000024,
                        "value": 1
                    },
                    {
                        "number": 64,
                        "time": 280.65529892500024,
                        "value": 0
                    },
                    {
                        "number": 64,
                        "time": 280.69195580000024,
                        "value": 1
                    },
                    {
                        "number": 64,
                        "time": 280.8268531000002,
                        "value": 0
                    },
                    {
                        "number": 64,
                        "time": 280.86277683750023,
                        "value": 1
                    },
                    {
                        "number": 64,
                        "time": 281.0028061000002,
                        "value": 0
                    },
                    {
                        "number": 64,
                        "time": 281.0724541625002,
                        "value": 1
                    },
                    {
                        "number": 64,
                        "time": 281.35177955000023,
                        "value": 0
                    },
                    {
                        "number": 64,
                        "time": 281.42436016250025,
                        "value": 1
                    },
                    {
                        "number": 64,
                        "time": 281.71028378750026,
                        "value": 0
                    },
                    {
                        "number": 64,
                        "time": 281.7293453625003,
                        "value": 1
                    },
                    {
                        "number": 64,
                        "time": 282.0621897875003,
                        "value": 0
                    },
                    {
                        "number": 64,
                        "time": 282.0995798000003,
                        "value": 1
                    },
                    {
                        "number": 64,
                        "time": 282.4133626500003,
                        "value": 0
                    },
                    {
                        "number": 64,
                        "time": 282.4434212875003,
                        "value": 1
                    },
                    {
                        "number": 64,
                        "time": 282.7638023750003,
                        "value": 0
                    },
                    {
                        "number": 64,
                        "time": 282.7879959125003,
                        "value": 1
                    },
                    {
                        "number": 64,
                        "time": 283.1127758250003,
                        "value": 0
                    },
                    {
                        "number": 64,
                        "time": 283.1838901625003,
                        "value": 1
                    },
                    {
                        "number": 64,
                        "time": 283.4632155500003,
                        "value": 0
                    },
                    {
                        "number": 64,
                        "time": 283.53579616250033,
                        "value": 1
                    },
                    {
                        "number": 64,
                        "time": 283.8246523375003,
                        "value": 0
                    },
                    {
                        "number": 64,
                        "time": 283.8503121500003,
                        "value": 1
                    },
                    {
                        "number": 64,
                        "time": 284.53359630000034,
                        "value": 0
                    },
                    {
                        "number": 64,
                        "time": 284.55265787500036,
                        "value": 1
                    },
                    {
                        "number": 64,
                        "time": 287.33124900000035,
                        "value": 0
                    },
                    {
                        "number": 64,
                        "time": 287.36497332500034,
                        "value": 1
                    },
                    {
                        "number": 64,
                        "time": 288.0409261000003,
                        "value": 0
                    },
                    {
                        "number": 64,
                        "time": 288.07098473750034,
                        "value": 1
                    },
                    {
                        "number": 64,
                        "time": 288.74400496250036,
                        "value": 0
                    },
                    {
                        "number": 64,
                        "time": 288.77259732500033,
                        "value": 1
                    },
                    {
                        "number": 64,
                        "time": 289.4485501000003,
                        "value": 0
                    },
                    {
                        "number": 64,
                        "time": 289.46834481250033,
                        "value": 1
                    },
                    {
                        "number": 64,
                        "time": 290.15089582500036,
                        "value": 0
                    },
                    {
                        "number": 64,
                        "time": 290.1802213250004,
                        "value": 1
                    },
                    {
                        "number": 64,
                        "time": 290.8657048875004,
                        "value": 0
                    },
                    {
                        "number": 64,
                        "time": 290.88403332500036,
                        "value": 1
                    },
                    {
                        "number": 64,
                        "time": 291.56585120000034,
                        "value": 0
                    },
                    {
                        "number": 64,
                        "time": 291.61717082500036,
                        "value": 1
                    },
                    {
                        "number": 64,
                        "time": 292.96687696250035,
                        "value": 0
                    },
                    {
                        "number": 64,
                        "time": 292.99326991250035,
                        "value": 1
                    },
                    {
                        "number": 64,
                        "time": 293.67802033750036,
                        "value": 0
                    },
                    {
                        "number": 64,
                        "time": 293.69928132500036,
                        "value": 1
                    },
                    {
                        "number": 64,
                        "time": 294.37376782500036,
                        "value": 0
                    },
                    {
                        "number": 64,
                        "time": 294.4030933250004,
                        "value": 1
                    },
                    {
                        "number": 64,
                        "time": 295.0922425750004,
                        "value": 0
                    },
                    {
                        "number": 64,
                        "time": 295.1003070875004,
                        "value": 1
                    },
                    {
                        "number": 64,
                        "time": 295.6428288375004,
                        "value": 0
                    },
                    {
                        "number": 64,
                        "time": 301.44561215000044,
                        "value": 1
                    },
                    {
                        "number": 64,
                        "time": 301.62523083750045,
                        "value": 0
                    },
                    {
                        "number": 64,
                        "time": 302.15015728750046,
                        "value": 1
                    },
                    {
                        "number": 64,
                        "time": 302.31584636250045,
                        "value": 0
                    },
                    {
                        "number": 64,
                        "time": 304.26086015000044,
                        "value": 1
                    },
                    {
                        "number": 64,
                        "time": 304.41555216250043,
                        "value": 0
                    },
                    {
                        "number": 64,
                        "time": 305.6809474875004,
                        "value": 1
                    },
                    {
                        "number": 64,
                        "time": 305.98666582500044,
                        "value": 0
                    },
                    {
                        "number": 64,
                        "time": 306.38036066250044,
                        "value": 1
                    },
                    {
                        "number": 64,
                        "time": 306.53945150000044,
                        "value": 0
                    },
                    {
                        "number": 64,
                        "time": 307.08417266250046,
                        "value": 1
                    },
                    {
                        "number": 64,
                        "time": 307.3964892375005,
                        "value": 0
                    },
                    {
                        "number": 64,
                        "time": 307.7417970000005,
                        "value": 1
                    },
                    {
                        "number": 64,
                        "time": 308.10983202500046,
                        "value": 0
                    },
                    {
                        "number": 64,
                        "time": 308.17361498750046,
                        "value": 1
                    },
                    {
                        "number": 64,
                        "time": 308.45000782500045,
                        "value": 0
                    },
                    {
                        "number": 64,
                        "time": 308.51305765000046,
                        "value": 1
                    },
                    {
                        "number": 64,
                        "time": 308.8041132375005,
                        "value": 0
                    },
                    {
                        "number": 64,
                        "time": 309.2425294625005,
                        "value": 1
                    },
                    {
                        "number": 64,
                        "time": 309.8546992750005,
                        "value": 0
                    },
                    {
                        "number": 64,
                        "time": 309.8950218375005,
                        "value": 1
                    },
                    {
                        "number": 64,
                        "time": 310.2139366500005,
                        "value": 0
                    },
                    {
                        "number": 64,
                        "time": 310.5907693250005,
                        "value": 1
                    },
                    {
                        "number": 64,
                        "time": 310.9214143375005,
                        "value": 0
                    },
                    {
                        "number": 64,
                        "time": 310.9676020000005,
                        "value": 1
                    },
                    {
                        "number": 64,
                        "time": 311.2659889625005,
                        "value": 0
                    },
                    {
                        "number": 64,
                        "time": 311.3437015375005,
                        "value": 1
                    },
                    {
                        "number": 64,
                        "time": 311.6171618250005,
                        "value": 0
                    },
                    {
                        "number": 64,
                        "time": 312.0108566625005,
                        "value": 1
                    },
                    {
                        "number": 64,
                        "time": 312.6684810000005,
                        "value": 0
                    },
                    {
                        "number": 64,
                        "time": 312.7315308250005,
                        "value": 1
                    },
                    {
                        "number": 64,
                        "time": 313.0328503375005,
                        "value": 0
                    },
                    {
                        "number": 64,
                        "time": 313.41848066250054,
                        "value": 1
                    },
                    {
                        "number": 64,
                        "time": 313.7395948875005,
                        "value": 0
                    },
                    {
                        "number": 64,
                        "time": 313.79018137500054,
                        "value": 1
                    },
                    {
                        "number": 64,
                        "time": 314.07830441250053,
                        "value": 0
                    },
                    {
                        "number": 64,
                        "time": 314.13109031250053,
                        "value": 1
                    },
                    {
                        "number": 64,
                        "time": 314.45367081250055,
                        "value": 0
                    },
                    {
                        "number": 64,
                        "time": 314.83050348750055,
                        "value": 1
                    },
                    {
                        "number": 64,
                        "time": 315.48372900000055,
                        "value": 0
                    },
                    {
                        "number": 64,
                        "time": 315.54677882500056,
                        "value": 1
                    },
                    {
                        "number": 64,
                        "time": 315.84443265000056,
                        "value": 0
                    },
                    {
                        "number": 64,
                        "time": 316.23372866250054,
                        "value": 1
                    },
                    {
                        "number": 64,
                        "time": 316.54751151250053,
                        "value": 0
                    },
                    {
                        "number": 64,
                        "time": 316.60542937500054,
                        "value": 1
                    },
                    {
                        "number": 64,
                        "time": 316.89575182500056,
                        "value": 0
                    },
                    {
                        "number": 64,
                        "time": 316.9624673375006,
                        "value": 1
                    },
                    {
                        "number": 64,
                        "time": 317.2557223375006,
                        "value": 0
                    },
                    {
                        "number": 64,
                        "time": 317.6369538375006,
                        "value": 1
                    },
                    {
                        "number": 64,
                        "time": 318.2153993250006,
                        "value": 0
                    },
                    {
                        "number": 64,
                        "time": 318.4749300000006,
                        "value": 1
                    },
                    {
                        "number": 64,
                        "time": 318.6640794750006,
                        "value": 0
                    },
                    {
                        "number": 64,
                        "time": 318.8077744250006,
                        "value": 1
                    },
                    {
                        "number": 64,
                        "time": 319.0101203750006,
                        "value": 0
                    },
                    {
                        "number": 64,
                        "time": 319.1787420000006,
                        "value": 1
                    },
                    {
                        "number": 64,
                        "time": 319.3656920625006,
                        "value": 0
                    },
                    {
                        "number": 64,
                        "time": 319.49105857500064,
                        "value": 1
                    },
                    {
                        "number": 64,
                        "time": 319.71319923750065,
                        "value": 0
                    },
                    {
                        "number": 64,
                        "time": 319.7894455375006,
                        "value": 1
                    },
                    {
                        "number": 64,
                        "time": 320.0709703375006,
                        "value": 0
                    },
                    {
                        "number": 64,
                        "time": 320.1728764500006,
                        "value": 1
                    },
                    {
                        "number": 64,
                        "time": 320.4177443750006,
                        "value": 0
                    },
                    {
                        "number": 64,
                        "time": 320.5673044250006,
                        "value": 1
                    },
                    {
                        "number": 64,
                        "time": 320.7432574250006,
                        "value": 0
                    },
                    {
                        "number": 64,
                        "time": 321.2901780000006,
                        "value": 1
                    },
                    {
                        "number": 64,
                        "time": 321.4793274750006,
                        "value": 0
                    },
                    {
                        "number": 64,
                        "time": 321.6230224250006,
                        "value": 1
                    },
                    {
                        "number": 64,
                        "time": 321.8253683750006,
                        "value": 0
                    },
                    {
                        "number": 64,
                        "time": 321.9939900000006,
                        "value": 1
                    },
                    {
                        "number": 64,
                        "time": 322.1809400625006,
                        "value": 0
                    },
                    {
                        "number": 64,
                        "time": 322.30630657500063,
                        "value": 1
                    },
                    {
                        "number": 64,
                        "time": 322.52844723750064,
                        "value": 0
                    },
                    {
                        "number": 64,
                        "time": 322.6046935375006,
                        "value": 1
                    },
                    {
                        "number": 64,
                        "time": 322.8884177500006,
                        "value": 0
                    },
                    {
                        "number": 64,
                        "time": 322.9881244500006,
                        "value": 1
                    },
                    {
                        "number": 64,
                        "time": 323.2329923750006,
                        "value": 0
                    },
                    {
                        "number": 64,
                        "time": 323.3825524250006,
                        "value": 1
                    },
                    {
                        "number": 64,
                        "time": 323.5585054250006,
                        "value": 0
                    },
                    {
                        "number": 64,
                        "time": 323.9294730000006,
                        "value": 1
                    },
                    {
                        "number": 64,
                        "time": 324.6398832375006,
                        "value": 0
                    },
                    {
                        "number": 64,
                        "time": 324.82903271250063,
                        "value": 1
                    },
                    {
                        "number": 64,
                        "time": 325.0005868875006,
                        "value": 0
                    },
                    {
                        "number": 64,
                        "time": 325.1809387125006,
                        "value": 1
                    },
                    {
                        "number": 64,
                        "time": 325.34296210000065,
                        "value": 0
                    },
                    {
                        "number": 64,
                        "time": 325.44560135000063,
                        "value": 1
                    },
                    {
                        "number": 64,
                        "time": 326.0409090000006,
                        "value": 0
                    },
                    {
                        "number": 64,
                        "time": 326.7762459125006,
                        "value": 1
                    },
                    {
                        "number": 64,
                        "time": 327.1076240625006,
                        "value": 0
                    },
                    {
                        "number": 64,
                        "time": 328.1838699125006,
                        "value": 1
                    },
                    {
                        "number": 64,
                        "time": 328.3700868375006,
                        "value": 0
                    },
                    {
                        "number": 64,
                        "time": 328.9390015375006,
                        "value": 1
                    },
                    {
                        "number": 64,
                        "time": 329.5665672375006,
                        "value": 0
                    },
                    {
                        "number": 64,
                        "time": 329.7557167125006,
                        "value": 1
                    },
                    {
                        "number": 64,
                        "time": 329.9272708875006,
                        "value": 0
                    },
                    {
                        "number": 64,
                        "time": 330.1076227125006,
                        "value": 1
                    },
                    {
                        "number": 64,
                        "time": 330.2696461000006,
                        "value": 0
                    },
                    {
                        "number": 64,
                        "time": 330.3810830000006,
                        "value": 1
                    },
                    {
                        "number": 64,
                        "time": 330.9675930000006,
                        "value": 0
                    },
                    {
                        "number": 64,
                        "time": 331.69706481250057,
                        "value": 1
                    },
                    {
                        "number": 64,
                        "time": 332.03430806250054,
                        "value": 0
                    },
                    {
                        "number": 64,
                        "time": 333.1413456875005,
                        "value": 1
                    },
                    {
                        "number": 64,
                        "time": 333.2967708375005,
                        "value": 0
                    },
                    {
                        "number": 64,
                        "time": 333.78284100000053,
                        "value": 1
                    },
                    {
                        "number": 64,
                        "time": 334.14794347500055,
                        "value": 0
                    },
                    {
                        "number": 64,
                        "time": 334.22785546250054,
                        "value": 1
                    },
                    {
                        "number": 64,
                        "time": 334.49398437500054,
                        "value": 0
                    },
                    {
                        "number": 64,
                        "time": 334.5694975375005,
                        "value": 1
                    },
                    {
                        "number": 64,
                        "time": 334.84955606250054,
                        "value": 0
                    },
                    {
                        "number": 64,
                        "time": 334.9529284500005,
                        "value": 1
                    },
                    {
                        "number": 64,
                        "time": 335.1970632375005,
                        "value": 0
                    },
                    {
                        "number": 64,
                        "time": 335.2733095375005,
                        "value": 1
                    },
                    {
                        "number": 64,
                        "time": 335.5563006125005,
                        "value": 0
                    },
                    {
                        "number": 64,
                        "time": 335.6567404500005,
                        "value": 1
                    },
                    {
                        "number": 64,
                        "time": 335.9016083750005,
                        "value": 0
                    },
                    {
                        "number": 64,
                        "time": 335.95659368750046,
                        "value": 1
                    },
                    {
                        "number": 64,
                        "time": 336.22712142500046,
                        "value": 0
                    },
                    {
                        "number": 64,
                        "time": 336.59808900000047,
                        "value": 1
                    },
                    {
                        "number": 64,
                        "time": 336.9631914750005,
                        "value": 0
                    },
                    {
                        "number": 64,
                        "time": 337.0431034625005,
                        "value": 1
                    },
                    {
                        "number": 64,
                        "time": 337.3092323750005,
                        "value": 0
                    },
                    {
                        "number": 64,
                        "time": 337.38474553750046,
                        "value": 1
                    },
                    {
                        "number": 64,
                        "time": 337.6648040625005,
                        "value": 0
                    },
                    {
                        "number": 64,
                        "time": 337.76817645000045,
                        "value": 1
                    },
                    {
                        "number": 64,
                        "time": 338.01231123750046,
                        "value": 0
                    },
                    {
                        "number": 64,
                        "time": 338.08855753750044,
                        "value": 1
                    },
                    {
                        "number": 64,
                        "time": 338.37008233750043,
                        "value": 0
                    },
                    {
                        "number": 64,
                        "time": 338.4719884500004,
                        "value": 1
                    },
                    {
                        "number": 64,
                        "time": 338.7168563750004,
                        "value": 0
                    },
                    {
                        "number": 64,
                        "time": 338.7718416875004,
                        "value": 1
                    },
                    {
                        "number": 64,
                        "time": 339.0423694250004,
                        "value": 0
                    },
                    {
                        "number": 64,
                        "time": 339.4961815375004,
                        "value": 1
                    },
                    {
                        "number": 64,
                        "time": 340.12374723750037,
                        "value": 0
                    },
                    {
                        "number": 64,
                        "time": 340.3128967125004,
                        "value": 1
                    },
                    {
                        "number": 64,
                        "time": 340.4844508875004,
                        "value": 0
                    },
                    {
                        "number": 64,
                        "time": 340.6648027125004,
                        "value": 1
                    },
                    {
                        "number": 64,
                        "time": 340.8268261000004,
                        "value": 0
                    },
                    {
                        "number": 64,
                        "time": 340.9382630000004,
                        "value": 1
                    },
                    {
                        "number": 64,
                        "time": 341.5247730000004,
                        "value": 0
                    },
                    {
                        "number": 64,
                        "time": 342.26010991250035,
                        "value": 1
                    },
                    {
                        "number": 64,
                        "time": 342.59148806250033,
                        "value": 0
                    },
                    {
                        "number": 64,
                        "time": 343.64647292500035,
                        "value": 1
                    },
                    {
                        "number": 64,
                        "time": 343.85395083750035,
                        "value": 0
                    },
                    {
                        "number": 64,
                        "time": 344.39207376250033,
                        "value": 1
                    },
                    {
                        "number": 64,
                        "time": 345.05043123750033,
                        "value": 0
                    },
                    {
                        "number": 64,
                        "time": 345.23958071250036,
                        "value": 1
                    },
                    {
                        "number": 64,
                        "time": 345.41113488750034,
                        "value": 0
                    },
                    {
                        "number": 64,
                        "time": 345.59148671250034,
                        "value": 1
                    },
                    {
                        "number": 64,
                        "time": 345.75351010000037,
                        "value": 0
                    },
                    {
                        "number": 64,
                        "time": 345.86494700000037,
                        "value": 1
                    },
                    {
                        "number": 64,
                        "time": 346.45145700000035,
                        "value": 0
                    },
                    {
                        "number": 64,
                        "time": 347.18239508750037,
                        "value": 1
                    },
                    {
                        "number": 64,
                        "time": 347.51817206250035,
                        "value": 0
                    },
                    {
                        "number": 64,
                        "time": 348.59001908750037,
                        "value": 1
                    },
                    {
                        "number": 64,
                        "time": 348.92579606250035,
                        "value": 0
                    },
                    {
                        "number": 64,
                        "time": 349.99397740000035,
                        "value": 1
                    },
                    {
                        "number": 64,
                        "time": 350.33342006250035,
                        "value": 0
                    },
                    {
                        "number": 64,
                        "time": 351.41699728750035,
                        "value": 1
                    },
                    {
                        "number": 64,
                        "time": 352.4389909625003,
                        "value": 0
                    },
                    {
                        "number": 64,
                        "time": 352.7857650000003,
                        "value": 1
                    },
                    {
                        "number": 64,
                        "time": 353.8466149625003,
                        "value": 0
                    },
                    {
                        "number": 64,
                        "time": 354.27623353750033,
                        "value": 1
                    },
                    {
                        "number": 64,
                        "time": 355.2542389625003,
                        "value": 0
                    },
                    {
                        "number": 64,
                        "time": 355.6010130000003,
                        "value": 1
                    },
                    {
                        "number": 64,
                        "time": 356.6618629625003,
                        "value": 0
                    },
                    {
                        "number": 64,
                        "time": 357.07901820000035,
                        "value": 1
                    },
                    {
                        "number": 64,
                        "time": 358.0694869625003,
                        "value": 0
                    },
                    {
                        "number": 64,
                        "time": 358.47051317500035,
                        "value": 1
                    },
                    {
                        "number": 64,
                        "time": 359.4771109625004,
                        "value": 0
                    },
                    {
                        "number": 64,
                        "time": 359.9067295375004,
                        "value": 1
                    },
                    {
                        "number": 64,
                        "time": 360.8847349625004,
                        "value": 0
                    },
                    {
                        "number": 64,
                        "time": 361.26303391250036,
                        "value": 1
                    },
                    {
                        "number": 64,
                        "time": 362.3026228875004,
                        "value": 0
                    },
                    {
                        "number": 64,
                        "time": 362.32608328750035,
                        "value": 1
                    },
                    {
                        "number": 64,
                        "time": 362.6054086750004,
                        "value": 0
                    },
                    {
                        "number": 64,
                        "time": 362.63913300000036,
                        "value": 1
                    },
                    {
                        "number": 64,
                        "time": 363.69998296250037,
                        "value": 0
                    },
                    {
                        "number": 64,
                        "time": 363.72857532500035,
                        "value": 1
                    },
                    {
                        "number": 64,
                        "time": 364.05115582500036,
                        "value": 0
                    },
                    {
                        "number": 64,
                        "time": 364.09367780000036,
                        "value": 1
                    },
                    {
                        "number": 64,
                        "time": 365.11933716250036,
                        "value": 0
                    },
                    {
                        "number": 64,
                        "time": 365.1699236500004,
                        "value": 1
                    },
                    {
                        "number": 64,
                        "time": 365.45804668750037,
                        "value": 0
                    },
                    {
                        "number": 64,
                        "time": 365.4932372875004,
                        "value": 1
                    },
                    {
                        "number": 64,
                        "time": 366.51523096250037,
                        "value": 0
                    },
                    {
                        "number": 64,
                        "time": 366.5467558750004,
                        "value": 1
                    },
                    {
                        "number": 64,
                        "time": 366.86713696250035,
                        "value": 0
                    },
                    {
                        "number": 64,
                        "time": 366.91625717500034,
                        "value": 1
                    },
                    {
                        "number": 64,
                        "time": 367.9646438000003,
                        "value": 0
                    },
                    {
                        "number": 64,
                        "time": 368.00056753750033,
                        "value": 1
                    },
                    {
                        "number": 64,
                        "time": 368.26962900000035,
                        "value": 0
                    },
                    {
                        "number": 64,
                        "time": 368.31141783750036,
                        "value": 1
                    },
                    {
                        "number": 64,
                        "time": 369.33047896250037,
                        "value": 0
                    },
                    {
                        "number": 64,
                        "time": 369.36200387500037,
                        "value": 1
                    },
                    {
                        "number": 64,
                        "time": 369.6853175125004,
                        "value": 0
                    },
                    {
                        "number": 64,
                        "time": 369.74470165000037,
                        "value": 1
                    },
                    {
                        "number": 64,
                        "time": 370.73810296250036,
                        "value": 0
                    },
                    {
                        "number": 64,
                        "time": 370.77989180000037,
                        "value": 1
                    },
                    {
                        "number": 64,
                        "time": 371.09000896250035,
                        "value": 0
                    },
                    {
                        "number": 64,
                        "time": 371.16039016250033,
                        "value": 1
                    },
                    {
                        "number": 64,
                        "time": 372.14572696250036,
                        "value": 0
                    },
                    {
                        "number": 64,
                        "time": 372.18238383750037,
                        "value": 1
                    },
                    {
                        "number": 64,
                        "time": 372.49250100000035,
                        "value": 0
                    },
                    {
                        "number": 64,
                        "time": 372.57021357500037,
                        "value": 1
                    },
                    {
                        "number": 64,
                        "time": 373.57974391250036,
                        "value": 0
                    },
                    {
                        "number": 64,
                        "time": 373.65672335000033,
                        "value": 1
                    },
                    {
                        "number": 64,
                        "time": 373.90525696250035,
                        "value": 0
                    },
                    {
                        "number": 64,
                        "time": 373.97783757500036,
                        "value": 1
                    },
                    {
                        "number": 64,
                        "time": 374.26082865000035,
                        "value": 0
                    },
                    {
                        "number": 64,
                        "time": 374.30921572500034,
                        "value": 1
                    },
                    {
                        "number": 64,
                        "time": 374.61126837500035,
                        "value": 0
                    },
                    {
                        "number": 64,
                        "time": 374.66625368750033,
                        "value": 1
                    },
                    {
                        "number": 64,
                        "time": 374.9646406500003,
                        "value": 0
                    },
                    {
                        "number": 64,
                        "time": 375.0335555750003,
                        "value": 1
                    },
                    {
                        "number": 64,
                        "time": 375.3209454750003,
                        "value": 0
                    },
                    {
                        "number": 64,
                        "time": 375.3583354875003,
                        "value": 1
                    },
                    {
                        "number": 64,
                        "time": 375.6684526500003,
                        "value": 0
                    },
                    {
                        "number": 64,
                        "time": 375.7102414875003,
                        "value": 1
                    },
                    {
                        "number": 64,
                        "time": 376.0276900250003,
                        "value": 0
                    },
                    {
                        "number": 64,
                        "time": 376.0870741625003,
                        "value": 1
                    },
                    {
                        "number": 64,
                        "time": 376.7205049625003,
                        "value": 0
                    },
                    {
                        "number": 64,
                        "time": 376.7930855750003,
                        "value": 1
                    },
                    {
                        "number": 64,
                        "time": 377.0760766500003,
                        "value": 0
                    },
                    {
                        "number": 64,
                        "time": 377.1244637250003,
                        "value": 1
                    },
                    {
                        "number": 64,
                        "time": 377.4265163750003,
                        "value": 0
                    },
                    {
                        "number": 64,
                        "time": 377.48150168750027,
                        "value": 1
                    },
                    {
                        "number": 64,
                        "time": 377.77988865000026,
                        "value": 0
                    },
                    {
                        "number": 64,
                        "time": 377.84880357500026,
                        "value": 1
                    },
                    {
                        "number": 64,
                        "time": 378.13619347500025,
                        "value": 0
                    },
                    {
                        "number": 64,
                        "time": 378.17358348750025,
                        "value": 1
                    },
                    {
                        "number": 64,
                        "time": 378.48370065000023,
                        "value": 0
                    },
                    {
                        "number": 64,
                        "time": 378.52548948750024,
                        "value": 1
                    },
                    {
                        "number": 64,
                        "time": 378.84293802500025,
                        "value": 0
                    },
                    {
                        "number": 64,
                        "time": 378.90232216250024,
                        "value": 1
                    },
                    {
                        "number": 64,
                        "time": 379.04455083750025,
                        "value": 0
                    },
                    {
                        "number": 64,
                        "time": 379.18751265000026,
                        "value": 1
                    },
                    {
                        "number": 64,
                        "time": 379.54235120000027,
                        "value": 0
                    },
                    {
                        "number": 64,
                        "time": 379.56874415000027,
                        "value": 1
                    },
                    {
                        "number": 64,
                        "time": 379.8971897500003,
                        "value": 0
                    },
                    {
                        "number": 64,
                        "time": 379.9331134875003,
                        "value": 1
                    },
                    {
                        "number": 64,
                        "time": 380.2520283000003,
                        "value": 0
                    },
                    {
                        "number": 64,
                        "time": 380.30188165000027,
                        "value": 1
                    },
                    {
                        "number": 64,
                        "time": 380.5988023375003,
                        "value": 0
                    },
                    {
                        "number": 64,
                        "time": 380.6413243125003,
                        "value": 1
                    },
                    {
                        "number": 64,
                        "time": 380.9492420625003,
                        "value": 0
                    },
                    {
                        "number": 64,
                        "time": 380.9844326625003,
                        "value": 1
                    },
                    {
                        "number": 64,
                        "time": 381.3092125750003,
                        "value": 0
                    },
                    {
                        "number": 64,
                        "time": 381.34880200000026,
                        "value": 1
                    },
                    {
                        "number": 64,
                        "time": 381.65671975000026,
                        "value": 0
                    },
                    {
                        "number": 64,
                        "time": 381.70510682500026,
                        "value": 1
                    },
                    {
                        "number": 64,
                        "time": 382.0108251625003,
                        "value": 0
                    },
                    {
                        "number": 64,
                        "time": 382.0489483125003,
                        "value": 1
                    },
                    {
                        "number": 64,
                        "time": 382.35759920000027,
                        "value": 0
                    },
                    {
                        "number": 64,
                        "time": 382.38399215000027,
                        "value": 1
                    },
                    {
                        "number": 64,
                        "time": 382.7124377500003,
                        "value": 0
                    },
                    {
                        "number": 64,
                        "time": 382.7652236500003,
                        "value": 1
                    },
                    {
                        "number": 64,
                        "time": 383.0672763000003,
                        "value": 0
                    },
                    {
                        "number": 64,
                        "time": 383.11712965000027,
                        "value": 1
                    },
                    {
                        "number": 64,
                        "time": 383.41405033750027,
                        "value": 0
                    },
                    {
                        "number": 64,
                        "time": 383.45657231250027,
                        "value": 1
                    },
                    {
                        "number": 64,
                        "time": 383.7644900625003,
                        "value": 0
                    },
                    {
                        "number": 64,
                        "time": 383.7996806625003,
                        "value": 1
                    },
                    {
                        "number": 64,
                        "time": 384.1244605750003,
                        "value": 0
                    },
                    {
                        "number": 64,
                        "time": 384.16405000000026,
                        "value": 1
                    },
                    {
                        "number": 64,
                        "time": 384.47196775000026,
                        "value": 0
                    },
                    {
                        "number": 64,
                        "time": 384.52035482500025,
                        "value": 1
                    },
                    {
                        "number": 64,
                        "time": 384.8260731625003,
                        "value": 0
                    },
                    {
                        "number": 64,
                        "time": 384.86419631250027,
                        "value": 1
                    },
                    {
                        "number": 64,
                        "time": 385.17284720000026,
                        "value": 0
                    },
                    {
                        "number": 64,
                        "time": 385.19924015000026,
                        "value": 1
                    },
                    {
                        "number": 64,
                        "time": 385.5276857500003,
                        "value": 0
                    },
                    {
                        "number": 64,
                        "time": 385.5804716500003,
                        "value": 1
                    },
                    {
                        "number": 64,
                        "time": 385.8825243000003,
                        "value": 0
                    },
                    {
                        "number": 64,
                        "time": 385.93237765000026,
                        "value": 1
                    },
                    {
                        "number": 64,
                        "time": 386.22929833750027,
                        "value": 0
                    },
                    {
                        "number": 64,
                        "time": 386.27182031250027,
                        "value": 1
                    },
                    {
                        "number": 64,
                        "time": 386.57973806250027,
                        "value": 0
                    },
                    {
                        "number": 64,
                        "time": 386.6156618000003,
                        "value": 1
                    },
                    {
                        "number": 64,
                        "time": 386.93091092500026,
                        "value": 0
                    },
                    {
                        "number": 64,
                        "time": 386.97269976250027,
                        "value": 1
                    },
                    {
                        "number": 64,
                        "time": 387.27695182500025,
                        "value": 0
                    },
                    {
                        "number": 64,
                        "time": 387.31947380000025,
                        "value": 1
                    },
                    {
                        "number": 64,
                        "time": 387.63472292500023,
                        "value": 0
                    },
                    {
                        "number": 64,
                        "time": 387.67651176250024,
                        "value": 1
                    },
                    {
                        "number": 64,
                        "time": 387.98736206250027,
                        "value": 0
                    },
                    {
                        "number": 64,
                        "time": 388.0232858000003,
                        "value": 1
                    },
                    {
                        "number": 64,
                        "time": 388.33853492500026,
                        "value": 0
                    },
                    {
                        "number": 64,
                        "time": 388.38032376250027,
                        "value": 1
                    },
                    {
                        "number": 64,
                        "time": 388.68457582500025,
                        "value": 0
                    },
                    {
                        "number": 64,
                        "time": 388.72709780000025,
                        "value": 1
                    },
                    {
                        "number": 64,
                        "time": 389.04234692500023,
                        "value": 0
                    },
                    {
                        "number": 64,
                        "time": 389.08413576250024,
                        "value": 1
                    },
                    {
                        "number": 64,
                        "time": 389.3883878250002,
                        "value": 0
                    },
                    {
                        "number": 64,
                        "time": 389.4309098000002,
                        "value": 1
                    },
                    {
                        "number": 64,
                        "time": 389.7461589250002,
                        "value": 0
                    },
                    {
                        "number": 64,
                        "time": 389.7879477625002,
                        "value": 1
                    },
                    {
                        "number": 64,
                        "time": 390.0921998250002,
                        "value": 0
                    },
                    {
                        "number": 64,
                        "time": 390.1347218000002,
                        "value": 1
                    },
                    {
                        "number": 64,
                        "time": 390.4499709250002,
                        "value": 0
                    },
                    {
                        "number": 64,
                        "time": 390.4917597625002,
                        "value": 1
                    },
                    {
                        "number": 64,
                        "time": 390.79601182500016,
                        "value": 0
                    },
                    {
                        "number": 64,
                        "time": 390.83853380000016,
                        "value": 1
                    },
                    {
                        "number": 64,
                        "time": 391.15378292500014,
                        "value": 0
                    },
                    {
                        "number": 64,
                        "time": 391.19557176250015,
                        "value": 1
                    },
                    {
                        "number": 64,
                        "time": 391.49982382500014,
                        "value": 0
                    },
                    {
                        "number": 64,
                        "time": 391.54234580000013,
                        "value": 1
                    },
                    {
                        "number": 64,
                        "time": 391.8575949250001,
                        "value": 0
                    },
                    {
                        "number": 64,
                        "time": 391.8993837625001,
                        "value": 1
                    },
                    {
                        "number": 64,
                        "time": 392.1992370000001,
                        "value": 0
                    },
                    {
                        "number": 64,
                        "time": 392.2769495750001,
                        "value": 1
                    },
                    {
                        "number": 64,
                        "time": 392.9081809625001,
                        "value": 0
                    },
                    {
                        "number": 64,
                        "time": 392.9470372500001,
                        "value": 1
                    },
                    {
                        "number": 64,
                        "time": 393.6127261000001,
                        "value": 0
                    },
                    {
                        "number": 64,
                        "time": 393.6435178750001,
                        "value": 1
                    },
                    {
                        "number": 64,
                        "time": 394.3158049625001,
                        "value": 0
                    },
                    {
                        "number": 64,
                        "time": 394.3546612500001,
                        "value": 1
                    },
                    {
                        "number": 64,
                        "time": 395.0144850000001,
                        "value": 0
                    },
                    {
                        "number": 64,
                        "time": 395.7652178000001,
                        "value": 1
                    },
                    {
                        "number": 64,
                        "time": 396.07973378750006,
                        "value": 0
                    },
                    {
                        "number": 64,
                        "time": 396.13765165000007,
                        "value": 1
                    },
                    {
                        "number": 64,
                        "time": 396.4279741000001,
                        "value": 0
                    },
                    {
                        "number": 64,
                        "time": 396.4792937250001,
                        "value": 1
                    },
                    {
                        "number": 64,
                        "time": 396.7894108875001,
                        "value": 0
                    },
                    {
                        "number": 64,
                        "time": 396.8517275750001,
                        "value": 1
                    },
                    {
                        "number": 64,
                        "time": 397.1259210000001,
                        "value": 0
                    },
                    {
                        "number": 64,
                        "time": 397.19850161250014,
                        "value": 1
                    },
                    {
                        "number": 64,
                        "time": 397.4873577875001,
                        "value": 0
                    },
                    {
                        "number": 64,
                        "time": 397.5452756500001,
                        "value": 1
                    },
                    {
                        "number": 64,
                        "time": 397.83559810000014,
                        "value": 0
                    },
                    {
                        "number": 64,
                        "time": 397.88691772500016,
                        "value": 1
                    },
                    {
                        "number": 64,
                        "time": 398.19703488750014,
                        "value": 0
                    },
                    {
                        "number": 64,
                        "time": 398.25935157500015,
                        "value": 1
                    },
                    {
                        "number": 64,
                        "time": 398.5335450000002,
                        "value": 0
                    },
                    {
                        "number": 64,
                        "time": 399.2373570000002,
                        "value": 0
                    },
                    {
                        "number": 64,
                        "time": 399.3150695750002,
                        "value": 1
                    },
                    {
                        "number": 64,
                        "time": 399.94116900000023,
                        "value": 0
                    },
                    {
                        "number": 64,
                        "time": 400.01888157500025,
                        "value": 1
                    },
                    {
                        "number": 64,
                        "time": 400.30993716250026,
                        "value": 0
                    },
                    {
                        "number": 64,
                        "time": 400.3935148375003,
                        "value": 1
                    },
                    {
                        "number": 64,
                        "time": 400.67210708750025,
                        "value": 0
                    },
                    {
                        "number": 64,
                        "time": 401.3487930000002,
                        "value": 0
                    },
                    {
                        "number": 64,
                        "time": 401.42650557500025,
                        "value": 1
                    },
                    {
                        "number": 64,
                        "time": 402.05260500000026,
                        "value": 0
                    },
                    {
                        "number": 64,
                        "time": 402.09072815000025,
                        "value": 1
                    },
                    {
                        "number": 64,
                        "time": 402.41917375000025,
                        "value": 0
                    },
                    {
                        "number": 64,
                        "time": 402.46389513750023,
                        "value": 1
                    },
                    {
                        "number": 64,
                        "time": 402.7564170000002,
                        "value": 0
                    },
                    {
                        "number": 64,
                        "time": 403.46022900000025,
                        "value": 1
                    },
                    {
                        "number": 64,
                        "time": 403.8194663750003,
                        "value": 0
                    },
                    {
                        "number": 64,
                        "time": 404.19776532500026,
                        "value": 1
                    },
                    {
                        "number": 64,
                        "time": 404.5203458250003,
                        "value": 0
                    },
                    {
                        "number": 64,
                        "time": 404.5833956500003,
                        "value": 1
                    },
                    {
                        "number": 64,
                        "time": 404.8729849625003,
                        "value": 0
                    },
                    {
                        "number": 64,
                        "time": 405.6134538375003,
                        "value": 1
                    },
                    {
                        "number": 64,
                        "time": 405.9279698250003,
                        "value": 0
                    },
                    {
                        "number": 64,
                        "time": 405.9910196500003,
                        "value": 1
                    },
                    {
                        "number": 64,
                        "time": 406.2806089625003,
                        "value": 0
                    },
                    {
                        "number": 64,
                        "time": 406.34732447500033,
                        "value": 1
                    },
                    {
                        "number": 64,
                        "time": 406.64497830000033,
                        "value": 0
                    },
                    {
                        "number": 64,
                        "time": 406.7322216625003,
                        "value": 1
                    },
                    {
                        "number": 64,
                        "time": 406.97928900000034,
                        "value": 0
                    },
                    {
                        "number": 64,
                        "time": 406.98368782500035,
                        "value": 0
                    },
                    {
                        "number": 64,
                        "time": 407.7351537625003,
                        "value": 1
                    },
                    {
                        "number": 64,
                        "time": 408.3905786875003,
                        "value": 0
                    },
                    {
                        "number": 64,
                        "time": 408.4184379125003,
                        "value": 1
                    },
                    {
                        "number": 64,
                        "time": 408.7622794000003,
                        "value": 0
                    },
                    {
                        "number": 64,
                        "time": 408.7982031375003,
                        "value": 1
                    },
                    {
                        "number": 64,
                        "time": 408.9858863375003,
                        "value": 0
                    },
                    {
                        "number": 64,
                        "time": 409.1515754125003,
                        "value": 1
                    },
                    {
                        "number": 64,
                        "time": 409.79673641250025,
                        "value": 0
                    },
                    {
                        "number": 64,
                        "time": 409.8260619125003,
                        "value": 1
                    },
                    {
                        "number": 64,
                        "time": 410.1559737875003,
                        "value": 0
                    },
                    {
                        "number": 64,
                        "time": 410.20582713750025,
                        "value": 1
                    },
                    {
                        "number": 64,
                        "time": 410.33925816250024,
                        "value": 0
                    },
                    {
                        "number": 64,
                        "time": 410.5533343125002,
                        "value": 1
                    },
                    {
                        "number": 64,
                        "time": 411.20582668750023,
                        "value": 0
                    },
                    {
                        "number": 64,
                        "time": 411.2336859125002,
                        "value": 1
                    },
                    {
                        "number": 64,
                        "time": 411.57752740000024,
                        "value": 0
                    },
                    {
                        "number": 64,
                        "time": 411.61345113750025,
                        "value": 1
                    },
                    {
                        "number": 64,
                        "time": 411.7703425625003,
                        "value": 0
                    },
                    {
                        "number": 64,
                        "time": 411.9858849875003,
                        "value": 1
                    },
                    {
                        "number": 64,
                        "time": 412.2747411625003,
                        "value": 0
                    },
                    {
                        "number": 64,
                        "time": 412.3546531500003,
                        "value": 1
                    },
                    {
                        "number": 64,
                        "time": 412.61565010000027,
                        "value": 0
                    },
                    {
                        "number": 64,
                        "time": 412.70289346250024,
                        "value": 1
                    },
                    {
                        "number": 64,
                        "time": 413.32239465000026,
                        "value": 0
                    },
                    {
                        "number": 64,
                        "time": 413.39130957500026,
                        "value": 1
                    },
                    {
                        "number": 64,
                        "time": 414.02547351250024,
                        "value": 0
                    },
                    {
                        "number": 64,
                        "time": 414.07972568750023,
                        "value": 1
                    },
                    {
                        "number": 64,
                        "time": 414.72122100000024,
                        "value": 0
                    },
                    {
                        "number": 64,
                        "time": 414.75274591250025,
                        "value": 1
                    },
                    {
                        "number": 64,
                        "time": 415.08705661250025,
                        "value": 0
                    },
                    {
                        "number": 64,
                        "time": 415.1325111375003,
                        "value": 1
                    },
                    {
                        "number": 64,
                        "time": 415.3062647250003,
                        "value": 0
                    },
                    {
                        "number": 64,
                        "time": 415.45142595000027,
                        "value": 1
                    },
                    {
                        "number": 64,
                        "time": 416.1288450000003,
                        "value": 0
                    },
                    {
                        "number": 64,
                        "time": 416.1603699125003,
                        "value": 1
                    },
                    {
                        "number": 64,
                        "time": 416.4902817875003,
                        "value": 0
                    },
                    {
                        "number": 64,
                        "time": 416.5401351375003,
                        "value": 1
                    },
                    {
                        "number": 64,
                        "time": 416.68016440000025,
                        "value": 0
                    },
                    {
                        "number": 64,
                        "time": 416.85904995000027,
                        "value": 1
                    },
                    {
                        "number": 64,
                        "time": 417.5379352750003,
                        "value": 0
                    },
                    {
                        "number": 64,
                        "time": 417.5679939125003,
                        "value": 1
                    },
                    {
                        "number": 64,
                        "time": 417.9037708875003,
                        "value": 0
                    },
                    {
                        "number": 64,
                        "time": 417.94775913750027,
                        "value": 1
                    },
                    {
                        "number": 64,
                        "time": 418.11931331250025,
                        "value": 0
                    },
                    {
                        "number": 64,
                        "time": 418.32019298750026,
                        "value": 1
                    },
                    {
                        "number": 64,
                        "time": 418.60904916250024,
                        "value": 0
                    },
                    {
                        "number": 64,
                        "time": 418.68896115000024,
                        "value": 1
                    },
                    {
                        "number": 64,
                        "time": 418.94995810000023,
                        "value": 0
                    },
                    {
                        "number": 64,
                        "time": 419.0372014625002,
                        "value": 1
                    },
                    {
                        "number": 64,
                        "time": 420.3517170000002,
                        "value": 0
                    },
                    {
                        "number": 64,
                        "time": 420.4037697625002,
                        "value": 1
                    },
                    {
                        "number": 64,
                        "time": 421.7593410000002,
                        "value": 0
                    },
                    {
                        "number": 64,
                        "time": 421.8179920000002,
                        "value": 1
                    },
                    {
                        "number": 64,
                        "time": 422.46315300000015,
                        "value": 0
                    },
                    {
                        "number": 64,
                        "time": 422.52546968750016,
                        "value": 1
                    },
                    {
                        "number": 64,
                        "time": 423.18089461250014,
                        "value": 0
                    },
                    {
                        "number": 64,
                        "time": 423.2578740500001,
                        "value": 1
                    },
                    {
                        "number": 64,
                        "time": 423.5291349250001,
                        "value": 0
                    },
                    {
                        "number": 64,
                        "time": 423.5760557250001,
                        "value": 1
                    },
                    {
                        "number": 64,
                        "time": 423.8759089625001,
                        "value": 0
                    },
                    {
                        "number": 64,
                        "time": 423.9330936875001,
                        "value": 1
                    },
                    {
                        "number": 64,
                        "time": 424.2366126125001,
                        "value": 0
                    },
                    {
                        "number": 64,
                        "time": 424.3106595000001,
                        "value": 1
                    },
                    {
                        "number": 64,
                        "time": 424.5797209625001,
                        "value": 0
                    },
                    {
                        "number": 64,
                        "time": 424.63690568750013,
                        "value": 1
                    },
                    {
                        "number": 64,
                        "time": 424.9411577500001,
                        "value": 0
                    },
                    {
                        "number": 64,
                        "time": 425.0144715000001,
                        "value": 1
                    },
                    {
                        "number": 64,
                        "time": 425.28353296250015,
                        "value": 0
                    },
                    {
                        "number": 64,
                        "time": 425.34071768750016,
                        "value": 1
                    },
                    {
                        "number": 64,
                        "time": 425.64496975000014,
                        "value": 0
                    },
                    {
                        "number": 64,
                        "time": 425.71828350000015,
                        "value": 1
                    },
                    {
                        "number": 64,
                        "time": 425.98441241250015,
                        "value": 0
                    },
                    {
                        "number": 64,
                        "time": 426.04452968750013,
                        "value": 1
                    },
                    {
                        "number": 64,
                        "time": 429.32532000000015,
                        "value": 0
                    }
                ]
            },
            "id": 3,
            "name": "Pedal",
            "instrumentNumber": 0,
            "instrument": "acoustic grand piano",
            "instrumentFamily": "piano",
            "channelNumber": 0,
            "isPercussion": false
        },
        {
            "startTime": 0,
            "duration": 0,
            "length": 0,
            "notes": [],
            "controlChanges": {},
            "id": 4,
            "name": "Liszt: Rhapsodie No. 9"
        },
        {
            "startTime": 0,
            "duration": 0,
            "length": 0,
            "notes": [],
            "controlChanges": {},
            "id": 5,
            "name": "Copyright  2005 by Bernd Krger"
        },
        {
            "startTime": 0,
            "duration": 0,
            "length": 0,
            "notes": [],
            "controlChanges": {},
            "id": 6,
            "name": "http://www.piano-midi.de"
        },
        {
            "startTime": 0,
            "duration": 0,
            "length": 0,
            "notes": [],
            "controlChanges": {},
            "id": 7,
            "name": "Edition: 2014-03-07"
        },
        {
            "startTime": 0,
            "duration": 0,
            "length": 0,
            "notes": [],
            "controlChanges": {},
            "id": 8,
            "name": "Spur 8"
        },
        {
            "startTime": 0,
            "duration": 0,
            "length": 0,
            "notes": [],
            "controlChanges": {},
            "id": 9,
            "name": "Spur 9"
        }
    ]
}