{
    "header": {
        "PPQ": 480,
        "timeSignature": [
            4,
            4
        ],
        "bpm": 165.02013245615964,
        "name": "Etude No. 4 aus Grandes Etudes de Paganini"
    },
    "startTime": 0,
    "duration": 111.25915200000134,
    "tracks": [
        {
            "startTime": 0,
            "duration": 0,
            "length": 0,
            "notes": [],
            "controlChanges": {},
            "id": 0,
            "name": "Etude No. 4 aus Grandes Etudes de Paganini"
        },
        {
            "startTime": 0.8180820000000001,
            "duration": 111.25915200000134,
            "length": 1027,
            "notes": [
                {
                    "name": "G#4",
                    "midi": 68,
                    "time": 0.8180820000000001,
                    "velocity": 0.4015748031496063,
                    "duration": 0.0681735
                },
                {
                    "name": "B4",
                    "midi": 71,
                    "time": 0.9089800000000001,
                    "velocity": 0.36220472440944884,
                    "duration": 0.0681735
                },
                {
                    "name": "E5",
                    "midi": 76,
                    "time": 0.9998780000000002,
                    "velocity": 0.36220472440944884,
                    "duration": 0.0681735
                },
                {
                    "name": "B4",
                    "midi": 71,
                    "time": 1.1816740000000001,
                    "velocity": 0.4015748031496063,
                    "duration": 0.06817349999999989
                },
                {
                    "name": "G#4",
                    "midi": 68,
                    "time": 1.272572,
                    "velocity": 0.3700787401574803,
                    "duration": 0.06817350000000011
                },
                {
                    "name": "E4",
                    "midi": 64,
                    "time": 1.3634700000000002,
                    "velocity": 0.3700787401574803,
                    "duration": 0.06817350000000011
                },
                {
                    "name": "F#4",
                    "midi": 66,
                    "time": 1.5452660000000003,
                    "velocity": 0.4015748031496063,
                    "duration": 0.06817349999999989
                },
                {
                    "name": "B4",
                    "midi": 71,
                    "time": 1.6361640000000002,
                    "velocity": 0.3700787401574803,
                    "duration": 0.06817350000000011
                },
                {
                    "name": "F#5",
                    "midi": 78,
                    "time": 1.7270620000000003,
                    "velocity": 0.33858267716535434,
                    "duration": 0.06817350000000011
                },
                {
                    "name": "B4",
                    "midi": 71,
                    "time": 1.9088580000000004,
                    "velocity": 0.4015748031496063,
                    "duration": 0.06817349999999989
                },
                {
                    "name": "F#4",
                    "midi": 66,
                    "time": 1.9997560000000003,
                    "velocity": 0.3779527559055118,
                    "duration": 0.06817350000000011
                },
                {
                    "name": "D#4",
                    "midi": 63,
                    "time": 2.0906540000000002,
                    "velocity": 0.33858267716535434,
                    "duration": 0.06817349999999989
                },
                {
                    "name": "G#4",
                    "midi": 68,
                    "time": 2.27245,
                    "velocity": 0.4015748031496063,
                    "duration": 0.06817349999999989
                },
                {
                    "name": "B4",
                    "midi": 71,
                    "time": 2.363348,
                    "velocity": 0.3700787401574803,
                    "duration": 0.06817349999999989
                },
                {
                    "name": "E5",
                    "midi": 76,
                    "time": 2.4542459999999995,
                    "velocity": 0.33070866141732286,
                    "duration": 0.06817349999999989
                },
                {
                    "name": "B4",
                    "midi": 71,
                    "time": 2.6360419999999993,
                    "velocity": 0.4015748031496063,
                    "duration": 0.06817349999999989
                },
                {
                    "name": "G#4",
                    "midi": 68,
                    "time": 2.726939999999999,
                    "velocity": 0.3779527559055118,
                    "duration": 0.06817349999999989
                },
                {
                    "name": "E4",
                    "midi": 64,
                    "time": 2.8178379999999987,
                    "velocity": 0.3700787401574803,
                    "duration": 0.06817349999999989
                },
                {
                    "name": "F#4",
                    "midi": 66,
                    "time": 2.9996339999999986,
                    "velocity": 0.4015748031496063,
                    "duration": 0.06817349999999989
                },
                {
                    "name": "D#5",
                    "midi": 75,
                    "time": 3.0905319999999983,
                    "velocity": 0.4015748031496063,
                    "duration": 0.06817349999999989
                },
                {
                    "name": "B5",
                    "midi": 83,
                    "time": 3.181429999999998,
                    "velocity": 0.3779527559055118,
                    "duration": 0.06817349999999989
                },
                {
                    "name": "D#5",
                    "midi": 75,
                    "time": 3.363225999999998,
                    "velocity": 0.4015748031496063,
                    "duration": 0.06817349999999989
                },
                {
                    "name": "F#4",
                    "midi": 66,
                    "time": 3.4541239999999975,
                    "velocity": 0.3700787401574803,
                    "duration": 0.06817349999999989
                },
                {
                    "name": "B3",
                    "midi": 59,
                    "time": 3.5450219999999972,
                    "velocity": 0.33858267716535434,
                    "duration": 0.06817349999999989
                },
                {
                    "name": "G#4",
                    "midi": 68,
                    "time": 3.726817999999997,
                    "velocity": 0.3543307086614173,
                    "duration": 0.06817349999999989
                },
                {
                    "name": "B4",
                    "midi": 71,
                    "time": 3.817715999999997,
                    "velocity": 0.3543307086614173,
                    "duration": 0.06817349999999989
                },
                {
                    "name": "E5",
                    "midi": 76,
                    "time": 3.9086139999999965,
                    "velocity": 0.3228346456692913,
                    "duration": 0.06817349999999989
                },
                {
                    "name": "B4",
                    "midi": 71,
                    "time": 4.090409999999997,
                    "velocity": 0.3543307086614173,
                    "duration": 0.06817350000000033
                },
                {
                    "name": "G#4",
                    "midi": 68,
                    "time": 4.181307999999997,
                    "velocity": 0.3464566929133858,
                    "duration": 0.06817350000000033
                },
                {
                    "name": "E4",
                    "midi": 64,
                    "time": 4.272205999999997,
                    "velocity": 0.33070866141732286,
                    "duration": 0.06817350000000033
                },
                {
                    "name": "F#4",
                    "midi": 66,
                    "time": 4.454001999999997,
                    "velocity": 0.3543307086614173,
                    "duration": 0.06817350000000033
                },
                {
                    "name": "B4",
                    "midi": 71,
                    "time": 4.5448999999999975,
                    "velocity": 0.3543307086614173,
                    "duration": 0.06817350000000033
                },
                {
                    "name": "F#5",
                    "midi": 78,
                    "time": 4.635797999999998,
                    "velocity": 0.3228346456692913,
                    "duration": 0.06817350000000033
                },
                {
                    "name": "B4",
                    "midi": 71,
                    "time": 4.817593999999998,
                    "velocity": 0.3543307086614173,
                    "duration": 0.06817350000000033
                },
                {
                    "name": "F#4",
                    "midi": 66,
                    "time": 4.908491999999998,
                    "velocity": 0.33858267716535434,
                    "duration": 0.06817350000000033
                },
                {
                    "name": "D#4",
                    "midi": 63,
                    "time": 4.999389999999998,
                    "velocity": 0.31496062992125984,
                    "duration": 0.06817350000000033
                },
                {
                    "name": "G#4",
                    "midi": 68,
                    "time": 5.1811859999999985,
                    "velocity": 0.3543307086614173,
                    "duration": 0.06817350000000033
                },
                {
                    "name": "B4",
                    "midi": 71,
                    "time": 5.272083999999999,
                    "velocity": 0.3543307086614173,
                    "duration": 0.06817350000000033
                },
                {
                    "name": "E5",
                    "midi": 76,
                    "time": 5.362981999999999,
                    "velocity": 0.31496062992125984,
                    "duration": 0.06817350000000033
                },
                {
                    "name": "B4",
                    "midi": 71,
                    "time": 5.544777999999999,
                    "velocity": 0.3543307086614173,
                    "duration": 0.06817350000000033
                },
                {
                    "name": "G#4",
                    "midi": 68,
                    "time": 5.635675999999999,
                    "velocity": 0.33070866141732286,
                    "duration": 0.06817350000000033
                },
                {
                    "name": "E4",
                    "midi": 64,
                    "time": 5.726573999999999,
                    "velocity": 0.30708661417322836,
                    "duration": 0.06817350000000033
                },
                {
                    "name": "F#4",
                    "midi": 66,
                    "time": 5.90837,
                    "velocity": 0.3543307086614173,
                    "duration": 0.06817350000000033
                },
                {
                    "name": "D#5",
                    "midi": 75,
                    "time": 5.999268,
                    "velocity": 0.3543307086614173,
                    "duration": 0.06817350000000033
                },
                {
                    "name": "B5",
                    "midi": 83,
                    "time": 6.090166,
                    "velocity": 0.33070866141732286,
                    "duration": 0.06817350000000033
                },
                {
                    "name": "D#5",
                    "midi": 75,
                    "time": 6.271962,
                    "velocity": 0.3543307086614173,
                    "duration": 0.06817350000000033
                },
                {
                    "name": "F#4",
                    "midi": 66,
                    "time": 6.36286,
                    "velocity": 0.30708661417322836,
                    "duration": 0.06817350000000033
                },
                {
                    "name": "B3",
                    "midi": 59,
                    "time": 6.4537580000000005,
                    "velocity": 0.25984251968503935,
                    "duration": 0.06817350000000033
                },
                {
                    "name": "E4",
                    "midi": 64,
                    "time": 6.635554000000001,
                    "velocity": 0.36220472440944884,
                    "duration": 0.06817350000000033
                },
                {
                    "name": "B4",
                    "midi": 71,
                    "time": 6.726452000000001,
                    "velocity": 0.3700787401574803,
                    "duration": 0.06817350000000033
                },
                {
                    "name": "G#5",
                    "midi": 80,
                    "time": 6.817350000000001,
                    "velocity": 0.3228346456692913,
                    "duration": 0.06817350000000033
                },
                {
                    "name": "B4",
                    "midi": 71,
                    "time": 6.999146000000001,
                    "velocity": 0.3779527559055118,
                    "duration": 0.06817350000000033
                },
                {
                    "name": "E4",
                    "midi": 64,
                    "time": 7.090044000000002,
                    "velocity": 0.33070866141732286,
                    "duration": 0.06817350000000033
                },
                {
                    "name": "G#3",
                    "midi": 56,
                    "time": 7.180942000000002,
                    "velocity": 0.30708661417322836,
                    "duration": 0.06817350000000033
                },
                {
                    "name": "E4",
                    "midi": 64,
                    "time": 7.362738000000002,
                    "velocity": 0.3858267716535433,
                    "duration": 0.06817350000000033
                },
                {
                    "name": "C#5",
                    "midi": 73,
                    "time": 7.453636000000002,
                    "velocity": 0.3858267716535433,
                    "duration": 0.06817350000000033
                },
                {
                    "name": "A5",
                    "midi": 81,
                    "time": 7.544534000000002,
                    "velocity": 0.36220472440944884,
                    "duration": 0.06817350000000033
                },
                {
                    "name": "F#4",
                    "midi": 66,
                    "time": 8.089922000000003,
                    "velocity": 0.36220472440944884,
                    "duration": 0.06817350000000033
                },
                {
                    "name": "C#5",
                    "midi": 73,
                    "time": 8.180820000000004,
                    "velocity": 0.3700787401574803,
                    "duration": 0.06817350000000033
                },
                {
                    "name": "A#5",
                    "midi": 82,
                    "time": 8.271718000000005,
                    "velocity": 0.3228346456692913,
                    "duration": 0.06817350000000033
                },
                {
                    "name": "C#5",
                    "midi": 73,
                    "time": 8.453514000000006,
                    "velocity": 0.3779527559055118,
                    "duration": 0.06817350000000033
                },
                {
                    "name": "F#4",
                    "midi": 66,
                    "time": 8.544412000000007,
                    "velocity": 0.33858267716535434,
                    "duration": 0.06817350000000033
                },
                {
                    "name": "A#3",
                    "midi": 58,
                    "time": 8.635310000000008,
                    "velocity": 0.33070866141732286,
                    "duration": 0.06817350000000033
                },
                {
                    "name": "F#4",
                    "midi": 66,
                    "time": 8.817106000000008,
                    "velocity": 0.3858267716535433,
                    "duration": 0.06817350000000033
                },
                {
                    "name": "D#5",
                    "midi": 75,
                    "time": 8.908004000000009,
                    "velocity": 0.3858267716535433,
                    "duration": 0.06817350000000033
                },
                {
                    "name": "B5",
                    "midi": 83,
                    "time": 8.99890200000001,
                    "velocity": 0.3779527559055118,
                    "duration": 0.06817350000000033
                },
                {
                    "name": "B4",
                    "midi": 71,
                    "time": 9.54429000000001,
                    "velocity": 0.3937007874015748,
                    "duration": 0.06817350000000033
                },
                {
                    "name": "F#5",
                    "midi": 78,
                    "time": 9.635188000000012,
                    "velocity": 0.33858267716535434,
                    "duration": 0.06817350000000033
                },
                {
                    "name": "D#6",
                    "midi": 87,
                    "time": 9.726086000000013,
                    "velocity": 0.36220472440944884,
                    "duration": 0.06817350000000033
                },
                {
                    "name": "D#6",
                    "midi": 87,
                    "time": 9.816984000000014,
                    "velocity": 0.4409448818897638,
                    "duration": 0.06817350000000033
                },
                {
                    "name": "F#5",
                    "midi": 78,
                    "time": 9.907882000000015,
                    "velocity": 0.4015748031496063,
                    "duration": 0.06817350000000033
                },
                {
                    "name": "B4",
                    "midi": 71,
                    "time": 9.998780000000016,
                    "velocity": 0.3543307086614173,
                    "duration": 0.06817350000000033
                },
                {
                    "name": "D#4",
                    "midi": 63,
                    "time": 10.089678000000017,
                    "velocity": 0.33070866141732286,
                    "duration": 0.06817350000000033
                },
                {
                    "name": "B4",
                    "midi": 71,
                    "time": 10.271474000000017,
                    "velocity": 0.41732283464566927,
                    "duration": 0.06817350000000033
                },
                {
                    "name": "G#5",
                    "midi": 80,
                    "time": 10.362372000000018,
                    "velocity": 0.4251968503937008,
                    "duration": 0.06817350000000033
                },
                {
                    "name": "E6",
                    "midi": 88,
                    "time": 10.45327000000002,
                    "velocity": 0.4015748031496063,
                    "duration": 0.06817350000000033
                },
                {
                    "name": "E6",
                    "midi": 88,
                    "time": 10.54416800000002,
                    "velocity": 0.4645669291338583,
                    "duration": 0.06817350000000033
                },
                {
                    "name": "G#5",
                    "midi": 80,
                    "time": 10.635066000000021,
                    "velocity": 0.4330708661417323,
                    "duration": 0.06817350000000033
                },
                {
                    "name": "B4",
                    "midi": 71,
                    "time": 10.725964000000022,
                    "velocity": 0.4015748031496063,
                    "duration": 0.06817350000000033
                },
                {
                    "name": "E4",
                    "midi": 64,
                    "time": 10.816862000000024,
                    "velocity": 0.3779527559055118,
                    "duration": 0.06817350000000033
                },
                {
                    "name": "D#5",
                    "midi": 75,
                    "time": 10.998658000000024,
                    "velocity": 0.44881889763779526,
                    "duration": 0.06817350000000033
                },
                {
                    "name": "B5",
                    "midi": 83,
                    "time": 11.089556000000025,
                    "velocity": 0.44881889763779526,
                    "duration": 0.06817350000000033
                },
                {
                    "name": "F#6",
                    "midi": 90,
                    "time": 11.180454000000026,
                    "velocity": 0.4251968503937008,
                    "duration": 0.06817350000000033
                },
                {
                    "name": "F#6",
                    "midi": 90,
                    "time": 11.271352000000027,
                    "velocity": 0.5039370078740157,
                    "duration": 0.06817350000000033
                },
                {
                    "name": "B5",
                    "midi": 83,
                    "time": 11.362250000000028,
                    "velocity": 0.4566929133858268,
                    "duration": 0.06817350000000033
                },
                {
                    "name": "D#5",
                    "midi": 75,
                    "time": 11.453148000000029,
                    "velocity": 0.4251968503937008,
                    "duration": 0.06817350000000033
                },
                {
                    "name": "F#4",
                    "midi": 66,
                    "time": 11.54404600000003,
                    "velocity": 0.4015748031496063,
                    "duration": 0.06817350000000033
                },
                {
                    "name": "E5",
                    "midi": 76,
                    "time": 11.72584200000003,
                    "velocity": 0.47244094488188976,
                    "duration": 0.06817350000000033
                },
                {
                    "name": "B5",
                    "midi": 83,
                    "time": 11.816740000000031,
                    "velocity": 0.48031496062992124,
                    "duration": 0.06817350000000033
                },
                {
                    "name": "G#6",
                    "midi": 92,
                    "time": 11.907638000000032,
                    "velocity": 0.4566929133858268,
                    "duration": 0.06817350000000033
                },
                {
                    "name": "G#6",
                    "midi": 92,
                    "time": 11.998536000000033,
                    "velocity": 0.5354330708661418,
                    "duration": 0.06817350000000033
                },
                {
                    "name": "B5",
                    "midi": 83,
                    "time": 12.089434000000034,
                    "velocity": 0.49606299212598426,
                    "duration": 0.06817350000000033
                },
                {
                    "name": "E5",
                    "midi": 76,
                    "time": 12.180332000000035,
                    "velocity": 0.44881889763779526,
                    "duration": 0.06817350000000033
                },
                {
                    "name": "G#4",
                    "midi": 68,
                    "time": 12.271230000000036,
                    "velocity": 0.4251968503937008,
                    "duration": 0.06817350000000033
                },
                {
                    "name": "E5",
                    "midi": 76,
                    "time": 12.453026000000037,
                    "velocity": 0.5039370078740157,
                    "duration": 0.06817350000000033
                },
                {
                    "name": "C#6",
                    "midi": 85,
                    "time": 12.543924000000038,
                    "velocity": 0.5039370078740157,
                    "duration": 0.06817350000000033
                },
                {
                    "name": "A6",
                    "midi": 93,
                    "time": 12.634822000000039,
                    "velocity": 0.48031496062992124,
                    "duration": 0.06817350000000033
                },
                {
                    "name": "A6",
                    "midi": 93,
                    "time": 12.72572000000004,
                    "velocity": 0.5748031496062992,
                    "duration": 0.06817350000000033
                },
                {
                    "name": "C#6",
                    "midi": 85,
                    "time": 12.816618000000041,
                    "velocity": 0.5196850393700787,
                    "duration": 0.06817350000000033
                },
                {
                    "name": "E5",
                    "midi": 76,
                    "time": 12.907516000000042,
                    "velocity": 0.4881889763779528,
                    "duration": 0.06817350000000033
                },
                {
                    "name": "A4",
                    "midi": 69,
                    "time": 12.998414000000043,
                    "velocity": 0.4330708661417323,
                    "duration": 0.06817350000000033
                },
                {
                    "name": "G5",
                    "midi": 79,
                    "time": 13.180210000000043,
                    "velocity": 0.5354330708661418,
                    "duration": 0.06817350000000033
                },
                {
                    "name": "E6",
                    "midi": 88,
                    "time": 13.271108000000044,
                    "velocity": 0.5354330708661418,
                    "duration": 0.06817350000000033
                },
                {
                    "name": "C#7",
                    "midi": 97,
                    "time": 13.362006000000045,
                    "velocity": 0.5039370078740157,
                    "duration": 0.06817350000000033
                },
                {
                    "name": "C#7",
                    "midi": 97,
                    "time": 13.452904000000046,
                    "velocity": 0.5826771653543307,
                    "duration": 0.06817350000000033
                },
                {
                    "name": "E6",
                    "midi": 88,
                    "time": 13.543802000000047,
                    "velocity": 0.5354330708661418,
                    "duration": 0.06817350000000033
                },
                {
                    "name": "G5",
                    "midi": 79,
                    "time": 13.634700000000048,
                    "velocity": 0.49606299212598426,
                    "duration": 0.06817350000000033
                },
                {
                    "name": "A#4",
                    "midi": 70,
                    "time": 13.72559800000005,
                    "velocity": 0.4566929133858268,
                    "duration": 0.06817350000000033
                },
                {
                    "name": "A#5",
                    "midi": 82,
                    "time": 13.90739400000005,
                    "velocity": 0.5354330708661418,
                    "duration": 0.06817350000000033
                },
                {
                    "name": "G6",
                    "midi": 91,
                    "time": 13.99829200000005,
                    "velocity": 0.5354330708661418,
                    "duration": 0.06817350000000033
                },
                {
                    "name": "E7",
                    "midi": 100,
                    "time": 14.089190000000052,
                    "velocity": 0.5196850393700787,
                    "duration": 0.06817350000000033
                },
                {
                    "name": "E7",
                    "midi": 100,
                    "time": 14.180088000000053,
                    "velocity": 0.5826771653543307,
                    "duration": 0.06817350000000033
                },
                {
                    "name": "G6",
                    "midi": 91,
                    "time": 14.270986000000054,
                    "velocity": 0.5354330708661418,
                    "duration": 0.06817350000000033
                },
                {
                    "name": "A#5",
                    "midi": 82,
                    "time": 14.361884000000055,
                    "velocity": 0.5118110236220472,
                    "duration": 0.06817350000000033
                },
                {
                    "name": "C#5",
                    "midi": 73,
                    "time": 14.452782000000056,
                    "velocity": 0.4881889763779528,
                    "duration": 0.06817350000000033
                },
                {
                    "name": "G5",
                    "midi": 79,
                    "time": 14.634578000000056,
                    "velocity": 0.5354330708661418,
                    "duration": 0.06817350000000033
                },
                {
                    "name": "E6",
                    "midi": 88,
                    "time": 14.725476000000057,
                    "velocity": 0.5118110236220472,
                    "duration": 0.06817350000000033
                },
                {
                    "name": "C#7",
                    "midi": 97,
                    "time": 14.816374000000058,
                    "velocity": 0.5354330708661418,
                    "duration": 0.06817350000000033
                },
                {
                    "name": "C#7",
                    "midi": 97,
                    "time": 14.90727200000006,
                    "velocity": 0.5669291338582677,
                    "duration": 0.06817350000000033
                },
                {
                    "name": "E6",
                    "midi": 88,
                    "time": 14.99817000000006,
                    "velocity": 0.5118110236220472,
                    "duration": 0.06817350000000033
                },
                {
                    "name": "G5",
                    "midi": 79,
                    "time": 15.089068000000061,
                    "velocity": 0.49606299212598426,
                    "duration": 0.06817350000000033
                },
                {
                    "name": "A#4",
                    "midi": 70,
                    "time": 15.179966000000062,
                    "velocity": 0.4645669291338583,
                    "duration": 0.06817350000000033
                },
                {
                    "name": "E5",
                    "midi": 76,
                    "time": 15.361762000000063,
                    "velocity": 0.4881889763779528,
                    "duration": 0.06817350000000033
                },
                {
                    "name": "C#6",
                    "midi": 85,
                    "time": 15.452660000000064,
                    "velocity": 0.48031496062992124,
                    "duration": 0.06817350000000033
                },
                {
                    "name": "A#6",
                    "midi": 94,
                    "time": 15.543558000000065,
                    "velocity": 0.48031496062992124,
                    "duration": 0.06817350000000033
                },
                {
                    "name": "A#6",
                    "midi": 94,
                    "time": 15.634456000000066,
                    "velocity": 0.5118110236220472,
                    "duration": 0.06817350000000033
                },
                {
                    "name": "C#6",
                    "midi": 85,
                    "time": 15.725354000000067,
                    "velocity": 0.4645669291338583,
                    "duration": 0.06817350000000033
                },
                {
                    "name": "E5",
                    "midi": 76,
                    "time": 15.816252000000068,
                    "velocity": 0.3779527559055118,
                    "duration": 0.06817350000000033
                },
                {
                    "name": "G4",
                    "midi": 67,
                    "time": 15.907150000000069,
                    "velocity": 0.33070866141732286,
                    "duration": 0.06817350000000033
                },
                {
                    "name": "C#5",
                    "midi": 73,
                    "time": 16.08894600000007,
                    "velocity": 0.44881889763779526,
                    "duration": 0.06817350000000033
                },
                {
                    "name": "A#5",
                    "midi": 82,
                    "time": 16.17984400000007,
                    "velocity": 0.44881889763779526,
                    "duration": 0.06817350000000033
                },
                {
                    "name": "G6",
                    "midi": 91,
                    "time": 16.27074200000007,
                    "velocity": 0.4409448818897638,
                    "duration": 0.06817350000000033
                },
                {
                    "name": "G6",
                    "midi": 91,
                    "time": 16.36164000000007,
                    "velocity": 0.48031496062992124,
                    "duration": 0.06817350000000033
                },
                {
                    "name": "A#5",
                    "midi": 82,
                    "time": 16.452538000000068,
                    "velocity": 0.4251968503937008,
                    "duration": 0.06817350000000033
                },
                {
                    "name": "C#5",
                    "midi": 73,
                    "time": 16.543436000000067,
                    "velocity": 0.3858267716535433,
                    "duration": 0.06817350000000033
                },
                {
                    "name": "E4",
                    "midi": 64,
                    "time": 16.634334000000067,
                    "velocity": 0.31496062992125984,
                    "duration": 0.06817350000000033
                },
                {
                    "name": "A#4",
                    "midi": 70,
                    "time": 16.81613000000007,
                    "velocity": 0.41732283464566927,
                    "duration": 0.06817350000000033
                },
                {
                    "name": "G5",
                    "midi": 79,
                    "time": 16.907028000000068,
                    "velocity": 0.4015748031496063,
                    "duration": 0.06817350000000033
                },
                {
                    "name": "E6",
                    "midi": 88,
                    "time": 16.997926000000067,
                    "velocity": 0.4015748031496063,
                    "duration": 0.06817350000000033
                },
                {
                    "name": "E6",
                    "midi": 88,
                    "time": 17.088824000000066,
                    "velocity": 0.4330708661417323,
                    "duration": 0.06817350000000033
                },
                {
                    "name": "G5",
                    "midi": 79,
                    "time": 17.179722000000066,
                    "velocity": 0.3858267716535433,
                    "duration": 0.06817350000000033
                },
                {
                    "name": "A#4",
                    "midi": 70,
                    "time": 17.270620000000065,
                    "velocity": 0.3543307086614173,
                    "duration": 0.06817350000000033
                },
                {
                    "name": "C#4",
                    "midi": 61,
                    "time": 17.361518000000064,
                    "velocity": 0.33070866141732286,
                    "duration": 0.06817350000000033
                },
                {
                    "name": "F#4",
                    "midi": 66,
                    "time": 17.543314000000066,
                    "velocity": 0.3700787401574803,
                    "duration": 0.06817350000000033
                },
                {
                    "name": "D#5",
                    "midi": 75,
                    "time": 17.634212000000066,
                    "velocity": 0.33070866141732286,
                    "duration": 0.06817350000000033
                },
                {
                    "name": "B5",
                    "midi": 83,
                    "time": 17.725110000000065,
                    "velocity": 0.36220472440944884,
                    "duration": 0.06817350000000033
                },
                {
                    "name": "D#4",
                    "midi": 63,
                    "time": 18.270498000000064,
                    "velocity": 0.3543307086614173,
                    "duration": 0.06817350000000033
                },
                {
                    "name": "B4",
                    "midi": 71,
                    "time": 18.361396000000063,
                    "velocity": 0.33070866141732286,
                    "duration": 0.06817350000000033
                },
                {
                    "name": "F#5",
                    "midi": 78,
                    "time": 18.452294000000062,
                    "velocity": 0.31496062992125984,
                    "duration": 0.06817350000000033
                },
                {
                    "name": "B4",
                    "midi": 71,
                    "time": 18.634090000000064,
                    "velocity": 0.3543307086614173,
                    "duration": 0.06817350000000033
                },
                {
                    "name": "D#4",
                    "midi": 63,
                    "time": 18.724988000000064,
                    "velocity": 0.33070866141732286,
                    "duration": 0.06817350000000033
                },
                {
                    "name": "A3",
                    "midi": 57,
                    "time": 18.815886000000063,
                    "velocity": 0.30708661417322836,
                    "duration": 0.06817350000000033
                },
                {
                    "name": "E4",
                    "midi": 64,
                    "time": 18.997682000000065,
                    "velocity": 0.3543307086614173,
                    "duration": 0.06817350000000033
                },
                {
                    "name": "B4",
                    "midi": 71,
                    "time": 19.088580000000064,
                    "velocity": 0.3543307086614173,
                    "duration": 0.06817350000000033
                },
                {
                    "name": "G#5",
                    "midi": 80,
                    "time": 19.179478000000064,
                    "velocity": 0.3543307086614173,
                    "duration": 0.06817350000000033
                },
                {
                    "name": "D#4",
                    "midi": 63,
                    "time": 19.724866000000063,
                    "velocity": 0.3543307086614173,
                    "duration": 0.06817350000000033
                },
                {
                    "name": "B4",
                    "midi": 71,
                    "time": 19.815764000000062,
                    "velocity": 0.3543307086614173,
                    "duration": 0.06817350000000033
                },
                {
                    "name": "F#5",
                    "midi": 78,
                    "time": 19.90666200000006,
                    "velocity": 0.30708661417322836,
                    "duration": 0.06817350000000033
                },
                {
                    "name": "B4",
                    "midi": 71,
                    "time": 20.088458000000063,
                    "velocity": 0.3543307086614173,
                    "duration": 0.06817350000000033
                },
                {
                    "name": "D#4",
                    "midi": 63,
                    "time": 20.179356000000062,
                    "velocity": 0.31496062992125984,
                    "duration": 0.06817350000000033
                },
                {
                    "name": "A3",
                    "midi": 57,
                    "time": 20.27025400000006,
                    "velocity": 0.2992125984251969,
                    "duration": 0.06817350000000033
                },
                {
                    "name": "E4",
                    "midi": 64,
                    "time": 20.452050000000064,
                    "velocity": 0.3543307086614173,
                    "duration": 0.06817350000000033
                },
                {
                    "name": "B4",
                    "midi": 71,
                    "time": 20.542948000000063,
                    "velocity": 0.33858267716535434,
                    "duration": 0.06817350000000033
                },
                {
                    "name": "G#5",
                    "midi": 80,
                    "time": 20.633846000000062,
                    "velocity": 0.3543307086614173,
                    "duration": 0.06817350000000033
                },
                {
                    "name": "G4",
                    "midi": 67,
                    "time": 24.087970000000062,
                    "velocity": 0.4015748031496063,
                    "duration": 0.06817350000000033
                },
                {
                    "name": "B4",
                    "midi": 71,
                    "time": 24.17886800000006,
                    "velocity": 0.4015748031496063,
                    "duration": 0.06817350000000033
                },
                {
                    "name": "E5",
                    "midi": 76,
                    "time": 24.26976600000006,
                    "velocity": 0.33858267716535434,
                    "duration": 0.06817350000000033
                },
                {
                    "name": "B4",
                    "midi": 71,
                    "time": 24.451562000000063,
                    "velocity": 0.4015748031496063,
                    "duration": 0.06817350000000033
                },
                {
                    "name": "G4",
                    "midi": 67,
                    "time": 24.542460000000062,
                    "velocity": 0.3779527559055118,
                    "duration": 0.06817350000000033
                },
                {
                    "name": "E4",
                    "midi": 64,
                    "time": 24.63335800000006,
                    "velocity": 0.33070866141732286,
                    "duration": 0.06817350000000033
                },
                {
                    "name": "F#4",
                    "midi": 66,
                    "time": 24.815154000000064,
                    "velocity": 0.4015748031496063,
                    "duration": 0.06817350000000033
                },
                {
                    "name": "B4",
                    "midi": 71,
                    "time": 24.906052000000063,
                    "velocity": 0.4015748031496063,
                    "duration": 0.06817350000000033
                },
                {
                    "name": "F#5",
                    "midi": 78,
                    "time": 24.996950000000062,
                    "velocity": 0.3543307086614173,
                    "duration": 0.06817350000000033
                },
                {
                    "name": "B4",
                    "midi": 71,
                    "time": 25.178746000000064,
                    "velocity": 0.4015748031496063,
                    "duration": 0.06817350000000033
                },
                {
                    "name": "F#4",
                    "midi": 66,
                    "time": 25.269644000000063,
                    "velocity": 0.3779527559055118,
                    "duration": 0.06817350000000033
                },
                {
                    "name": "D#4",
                    "midi": 63,
                    "time": 25.360542000000063,
                    "velocity": 0.33070866141732286,
                    "duration": 0.06817350000000033
                },
                {
                    "name": "G4",
                    "midi": 67,
                    "time": 25.542338000000065,
                    "velocity": 0.4015748031496063,
                    "duration": 0.06817350000000033
                },
                {
                    "name": "B4",
                    "midi": 71,
                    "time": 25.633236000000064,
                    "velocity": 0.4015748031496063,
                    "duration": 0.06817350000000033
                },
                {
                    "name": "E5",
                    "midi": 76,
                    "time": 25.724134000000063,
                    "velocity": 0.36220472440944884,
                    "duration": 0.06817350000000033
                },
                {
                    "name": "B4",
                    "midi": 71,
                    "time": 25.905930000000065,
                    "velocity": 0.4015748031496063,
                    "duration": 0.06817350000000033
                },
                {
                    "name": "G4",
                    "midi": 67,
                    "time": 25.996828000000065,
                    "velocity": 0.3700787401574803,
                    "duration": 0.06817350000000033
                },
                {
                    "name": "E4",
                    "midi": 64,
                    "time": 26.087726000000064,
                    "velocity": 0.33070866141732286,
                    "duration": 0.06817350000000033
                },
                {
                    "name": "F#4",
                    "midi": 66,
                    "time": 26.269522000000066,
                    "velocity": 0.4015748031496063,
                    "duration": 0.06817350000000033
                },
                {
                    "name": "D#5",
                    "midi": 75,
                    "time": 26.360420000000065,
                    "velocity": 0.3779527559055118,
                    "duration": 0.06817350000000033
                },
                {
                    "name": "B5",
                    "midi": 83,
                    "time": 26.451318000000065,
                    "velocity": 0.4015748031496063,
                    "duration": 0.06817350000000033
                },
                {
                    "name": "D#5",
                    "midi": 75,
                    "time": 26.633114000000067,
                    "velocity": 0.4015748031496063,
                    "duration": 0.06817350000000033
                },
                {
                    "name": "F#4",
                    "midi": 66,
                    "time": 26.724012000000066,
                    "velocity": 0.36220472440944884,
                    "duration": 0.06817350000000033
                },
                {
                    "name": "B3",
                    "midi": 59,
                    "time": 26.814910000000065,
                    "velocity": 0.3228346456692913,
                    "duration": 0.06817350000000033
                },
                {
                    "name": "G4",
                    "midi": 67,
                    "time": 26.996706000000067,
                    "velocity": 0.3543307086614173,
                    "duration": 0.06817350000000033
                },
                {
                    "name": "B4",
                    "midi": 71,
                    "time": 27.087604000000066,
                    "velocity": 0.3543307086614173,
                    "duration": 0.06817350000000033
                },
                {
                    "name": "E5",
                    "midi": 76,
                    "time": 27.178502000000066,
                    "velocity": 0.31496062992125984,
                    "duration": 0.06817350000000033
                },
                {
                    "name": "B4",
                    "midi": 71,
                    "time": 27.360298000000068,
                    "velocity": 0.3543307086614173,
                    "duration": 0.06817350000000033
                },
                {
                    "name": "G4",
                    "midi": 67,
                    "time": 27.451196000000067,
                    "velocity": 0.33858267716535434,
                    "duration": 0.06817350000000033
                },
                {
                    "name": "E4",
                    "midi": 64,
                    "time": 27.542094000000066,
                    "velocity": 0.30708661417322836,
                    "duration": 0.06817350000000033
                },
                {
                    "name": "F#4",
                    "midi": 66,
                    "time": 27.72389000000007,
                    "velocity": 0.3543307086614173,
                    "duration": 0.06817350000000033
                },
                {
                    "name": "B4",
                    "midi": 71,
                    "time": 27.814788000000068,
                    "velocity": 0.3543307086614173,
                    "duration": 0.06817350000000033
                },
                {
                    "name": "F#5",
                    "midi": 78,
                    "time": 27.905686000000067,
                    "velocity": 0.3228346456692913,
                    "duration": 0.06817350000000033
                },
                {
                    "name": "B4",
                    "midi": 71,
                    "time": 28.08748200000007,
                    "velocity": 0.3543307086614173,
                    "duration": 0.06817350000000033
                },
                {
                    "name": "F#4",
                    "midi": 66,
                    "time": 28.178380000000068,
                    "velocity": 0.33070866141732286,
                    "duration": 0.06817350000000033
                },
                {
                    "name": "D#4",
                    "midi": 63,
                    "time": 28.269278000000067,
                    "velocity": 0.2992125984251969,
                    "duration": 0.06817350000000033
                },
                {
                    "name": "G4",
                    "midi": 67,
                    "time": 28.45107400000007,
                    "velocity": 0.3543307086614173,
                    "duration": 0.06817350000000033
                },
                {
                    "name": "B4",
                    "midi": 71,
                    "time": 28.54197200000007,
                    "velocity": 0.3543307086614173,
                    "duration": 0.06817350000000033
                },
                {
                    "name": "E5",
                    "midi": 76,
                    "time": 28.632870000000068,
                    "velocity": 0.3228346456692913,
                    "duration": 0.06817350000000033
                },
                {
                    "name": "B4",
                    "midi": 71,
                    "time": 28.81466600000007,
                    "velocity": 0.3543307086614173,
                    "duration": 0.06817350000000033
                },
                {
                    "name": "G4",
                    "midi": 67,
                    "time": 28.90556400000007,
                    "velocity": 0.3228346456692913,
                    "duration": 0.06817350000000033
                },
                {
                    "name": "E4",
                    "midi": 64,
                    "time": 28.99646200000007,
                    "velocity": 0.30708661417322836,
                    "duration": 0.06817350000000033
                },
                {
                    "name": "F#4",
                    "midi": 66,
                    "time": 29.17825800000007,
                    "velocity": 0.3543307086614173,
                    "duration": 0.06817350000000033
                },
                {
                    "name": "D#5",
                    "midi": 75,
                    "time": 29.26915600000007,
                    "velocity": 0.31496062992125984,
                    "duration": 0.06817350000000033
                },
                {
                    "name": "B5",
                    "midi": 83,
                    "time": 29.36005400000007,
                    "velocity": 0.3543307086614173,
                    "duration": 0.06817350000000033
                },
                {
                    "name": "D#5",
                    "midi": 75,
                    "time": 29.54185000000007,
                    "velocity": 0.3543307086614173,
                    "duration": 0.06817350000000033
                },
                {
                    "name": "F#4",
                    "midi": 66,
                    "time": 29.63274800000007,
                    "velocity": 0.31496062992125984,
                    "duration": 0.06817350000000033
                },
                {
                    "name": "B3",
                    "midi": 59,
                    "time": 29.72364600000007,
                    "velocity": 0.29133858267716534,
                    "duration": 0.06817350000000033
                },
                {
                    "name": "F#4",
                    "midi": 66,
                    "time": 29.905442000000072,
                    "velocity": 0.36220472440944884,
                    "duration": 0.06817350000000033
                },
                {
                    "name": "D5",
                    "midi": 74,
                    "time": 29.99634000000007,
                    "velocity": 0.3700787401574803,
                    "duration": 0.06817350000000033
                },
                {
                    "name": "B5",
                    "midi": 83,
                    "time": 30.08723800000007,
                    "velocity": 0.3700787401574803,
                    "duration": 0.06817350000000033
                },
                {
                    "name": "D5",
                    "midi": 74,
                    "time": 30.269034000000072,
                    "velocity": 0.3779527559055118,
                    "duration": 0.06817350000000033
                },
                {
                    "name": "F#4",
                    "midi": 66,
                    "time": 30.35993200000007,
                    "velocity": 0.33858267716535434,
                    "duration": 0.06817350000000033
                },
                {
                    "name": "B3",
                    "midi": 59,
                    "time": 30.45083000000007,
                    "velocity": 0.3228346456692913,
                    "duration": 0.06817350000000033
                },
                {
                    "name": "F#4",
                    "midi": 66,
                    "time": 30.632626000000073,
                    "velocity": 0.3543307086614173,
                    "duration": 0.06817350000000033
                },
                {
                    "name": "D5",
                    "midi": 74,
                    "time": 30.723524000000072,
                    "velocity": 0.3543307086614173,
                    "duration": 0.06817350000000033
                },
                {
                    "name": "C6",
                    "midi": 84,
                    "time": 30.81442200000007,
                    "velocity": 0.3543307086614173,
                    "duration": 0.06817350000000033
                },
                {
                    "name": "D5",
                    "midi": 74,
                    "time": 30.996218000000074,
                    "velocity": 0.3543307086614173,
                    "duration": 0.06817350000000033
                },
                {
                    "name": "F#4",
                    "midi": 66,
                    "time": 31.087116000000073,
                    "velocity": 0.31496062992125984,
                    "duration": 0.06817350000000033
                },
                {
                    "name": "A3",
                    "midi": 57,
                    "time": 31.178014000000072,
                    "velocity": 0.2677165354330709,
                    "duration": 0.06817350000000033
                },
                {
                    "name": "F#4",
                    "midi": 66,
                    "time": 31.359810000000074,
                    "velocity": 0.36220472440944884,
                    "duration": 0.06817350000000033
                },
                {
                    "name": "D5",
                    "midi": 74,
                    "time": 31.450708000000073,
                    "velocity": 0.3543307086614173,
                    "duration": 0.06817350000000033
                },
                {
                    "name": "A5",
                    "midi": 81,
                    "time": 31.541606000000073,
                    "velocity": 0.33070866141732286,
                    "duration": 0.06817350000000033
                },
                {
                    "name": "D5",
                    "midi": 74,
                    "time": 31.723402000000075,
                    "velocity": 0.3779527559055118,
                    "duration": 0.06817350000000033
                },
                {
                    "name": "F#4",
                    "midi": 66,
                    "time": 31.814300000000074,
                    "velocity": 0.33070866141732286,
                    "duration": 0.06817350000000033
                },
                {
                    "name": "A3",
                    "midi": 57,
                    "time": 31.905198000000073,
                    "velocity": 0.2992125984251969,
                    "duration": 0.06817350000000033
                },
                {
                    "name": "D4",
                    "midi": 62,
                    "time": 32.086994000000075,
                    "velocity": 0.3543307086614173,
                    "duration": 0.06817350000000033
                },
                {
                    "name": "B4",
                    "midi": 71,
                    "time": 32.17789200000008,
                    "velocity": 0.3543307086614173,
                    "duration": 0.06817350000000033
                },
                {
                    "name": "D6",
                    "midi": 86,
                    "time": 32.26879000000008,
                    "velocity": 0.4015748031496063,
                    "duration": 0.06817350000000033
                },
                {
                    "name": "B4",
                    "midi": 71,
                    "time": 32.45058600000008,
                    "velocity": 0.36220472440944884,
                    "duration": 0.06817350000000033
                },
                {
                    "name": "D4",
                    "midi": 62,
                    "time": 32.54148400000008,
                    "velocity": 0.3228346456692913,
                    "duration": 0.06817350000000033
                },
                {
                    "name": "G3",
                    "midi": 55,
                    "time": 32.632382000000085,
                    "velocity": 0.2677165354330709,
                    "duration": 0.06817350000000033
                },
                {
                    "name": "D4",
                    "midi": 62,
                    "time": 32.814178000000084,
                    "velocity": 0.33070866141732286,
                    "duration": 0.06817350000000033
                },
                {
                    "name": "B4",
                    "midi": 71,
                    "time": 32.814178000000084,
                    "velocity": 0.3937007874015748,
                    "duration": 0.06817350000000033
                },
                {
                    "name": "D5",
                    "midi": 74,
                    "time": 32.905076000000086,
                    "velocity": 0.3779527559055118,
                    "duration": 0.06817350000000033
                },
                {
                    "name": "G6",
                    "midi": 91,
                    "time": 32.99597400000009,
                    "velocity": 0.47244094488188976,
                    "duration": 0.06817350000000033
                },
                {
                    "name": "D5",
                    "midi": 74,
                    "time": 33.17777000000009,
                    "velocity": 0.4330708661417323,
                    "duration": 0.06817350000000033
                },
                {
                    "name": "D4",
                    "midi": 62,
                    "time": 33.26866800000009,
                    "velocity": 0.36220472440944884,
                    "duration": 0.06817350000000033
                },
                {
                    "name": "B4",
                    "midi": 71,
                    "time": 33.26866800000009,
                    "velocity": 0.36220472440944884,
                    "duration": 0.06817350000000033
                },
                {
                    "name": "G3",
                    "midi": 55,
                    "time": 33.35956600000009,
                    "velocity": 0.3543307086614173,
                    "duration": 0.06817350000000033
                },
                {
                    "name": "D4",
                    "midi": 62,
                    "time": 33.54136200000009,
                    "velocity": 0.36220472440944884,
                    "duration": 0.06817350000000033
                },
                {
                    "name": "B4",
                    "midi": 71,
                    "time": 33.54136200000009,
                    "velocity": 0.4330708661417323,
                    "duration": 0.06817350000000033
                },
                {
                    "name": "G5",
                    "midi": 79,
                    "time": 33.632260000000095,
                    "velocity": 0.44881889763779526,
                    "duration": 0.06817350000000033
                },
                {
                    "name": "B6",
                    "midi": 95,
                    "time": 33.7231580000001,
                    "velocity": 0.49606299212598426,
                    "duration": 0.06817350000000033
                },
                {
                    "name": "G5",
                    "midi": 79,
                    "time": 33.904954000000096,
                    "velocity": 0.4645669291338583,
                    "duration": 0.06817350000000033
                },
                {
                    "name": "D4",
                    "midi": 62,
                    "time": 33.9958520000001,
                    "velocity": 0.3937007874015748,
                    "duration": 0.06817350000000033
                },
                {
                    "name": "B4",
                    "midi": 71,
                    "time": 33.9958520000001,
                    "velocity": 0.47244094488188976,
                    "duration": 0.06817350000000033
                },
                {
                    "name": "G3",
                    "midi": 55,
                    "time": 34.0867500000001,
                    "velocity": 0.4015748031496063,
                    "duration": 0.06817350000000033
                },
                {
                    "name": "D4",
                    "midi": 62,
                    "time": 34.2685460000001,
                    "velocity": 0.3858267716535433,
                    "duration": 0.06817350000000033
                },
                {
                    "name": "B4",
                    "midi": 71,
                    "time": 34.2685460000001,
                    "velocity": 0.4645669291338583,
                    "duration": 0.06817350000000033
                },
                {
                    "name": "B5",
                    "midi": 83,
                    "time": 34.3594440000001,
                    "velocity": 0.48031496062992124,
                    "duration": 0.06817350000000033
                },
                {
                    "name": "D7",
                    "midi": 98,
                    "time": 34.450342000000106,
                    "velocity": 0.5354330708661418,
                    "duration": 0.06817350000000033
                },
                {
                    "name": "B5",
                    "midi": 83,
                    "time": 34.632138000000104,
                    "velocity": 0.5039370078740157,
                    "duration": 0.06817350000000033
                },
                {
                    "name": "D4",
                    "midi": 62,
                    "time": 34.72303600000011,
                    "velocity": 0.4330708661417323,
                    "duration": 0.06817350000000033
                },
                {
                    "name": "B4",
                    "midi": 71,
                    "time": 34.72303600000011,
                    "velocity": 0.5118110236220472,
                    "duration": 0.06817350000000033
                },
                {
                    "name": "G3",
                    "midi": 55,
                    "time": 34.81393400000011,
                    "velocity": 0.4015748031496063,
                    "duration": 0.06817350000000033
                },
                {
                    "name": "G4",
                    "midi": 67,
                    "time": 34.99573000000011,
                    "velocity": 0.5196850393700787,
                    "duration": 0.06817350000000033
                },
                {
                    "name": "E5",
                    "midi": 76,
                    "time": 35.08662800000011,
                    "velocity": 0.5196850393700787,
                    "duration": 0.06817350000000033
                },
                {
                    "name": "C5",
                    "midi": 72,
                    "time": 35.08662800000011,
                    "velocity": 0.4409448818897638,
                    "duration": 0.06817350000000033
                },
                {
                    "name": "C6",
                    "midi": 84,
                    "time": 35.177526000000114,
                    "velocity": 0.4645669291338583,
                    "duration": 0.06817350000000033
                },
                {
                    "name": "A4",
                    "midi": 69,
                    "time": 35.72291400000012,
                    "velocity": 0.5354330708661418,
                    "duration": 0.06817350000000033
                },
                {
                    "name": "D5",
                    "midi": 74,
                    "time": 35.81381200000012,
                    "velocity": 0.49606299212598426,
                    "duration": 0.06817350000000033
                },
                {
                    "name": "F#5",
                    "midi": 78,
                    "time": 35.81381200000012,
                    "velocity": 0.49606299212598426,
                    "duration": 0.06817350000000033
                },
                {
                    "name": "D6",
                    "midi": 86,
                    "time": 35.90471000000012,
                    "velocity": 0.5354330708661418,
                    "duration": 0.06817350000000033
                },
                {
                    "name": "B4",
                    "midi": 71,
                    "time": 36.450098000000125,
                    "velocity": 0.5590551181102362,
                    "duration": 0.06817350000000033
                },
                {
                    "name": "E5",
                    "midi": 76,
                    "time": 36.54099600000013,
                    "velocity": 0.5118110236220472,
                    "duration": 0.06817350000000033
                },
                {
                    "name": "G5",
                    "midi": 79,
                    "time": 36.63189400000013,
                    "velocity": 0.4645669291338583,
                    "duration": 0.06817350000000033
                },
                {
                    "name": "E6",
                    "midi": 88,
                    "time": 36.63189400000013,
                    "velocity": 0.5511811023622047,
                    "duration": 0.06817350000000033
                },
                {
                    "name": "C#5",
                    "midi": 73,
                    "time": 38.54075200000013,
                    "velocity": 0.6062992125984252,
                    "duration": 0.0605986666666638
                },
                {
                    "name": "G5",
                    "midi": 79,
                    "time": 38.6013506666668,
                    "velocity": 0.6220472440944882,
                    "duration": 0.0605986666666638
                },
                {
                    "name": "A#5",
                    "midi": 82,
                    "time": 38.66194933333346,
                    "velocity": 0.6377952755905512,
                    "duration": 0.0605986666666638
                },
                {
                    "name": "E6",
                    "midi": 88,
                    "time": 38.722548000000124,
                    "velocity": 0.6456692913385826,
                    "duration": 0.0605986666666638
                },
                {
                    "name": "A#6",
                    "midi": 94,
                    "time": 38.78314666666679,
                    "velocity": 0.6614173228346457,
                    "duration": 0.0605986666666638
                },
                {
                    "name": "E7",
                    "midi": 100,
                    "time": 38.84374533333345,
                    "velocity": 0.6771653543307087,
                    "duration": 0.0605986666666638
                },
                {
                    "name": "D6",
                    "midi": 86,
                    "time": 39.38913333333345,
                    "velocity": 0.6062992125984252,
                    "duration": 0.04544899999999785
                },
                {
                    "name": "B5",
                    "midi": 83,
                    "time": 39.38913333333345,
                    "velocity": 0.6062992125984252,
                    "duration": 0.04544899999999785
                },
                {
                    "name": "C6",
                    "midi": 84,
                    "time": 39.51033066666678,
                    "velocity": 0.5905511811023622,
                    "duration": 0.04544899999999785
                },
                {
                    "name": "A5",
                    "midi": 81,
                    "time": 39.51033066666678,
                    "velocity": 0.5905511811023622,
                    "duration": 0.04544899999999785
                },
                {
                    "name": "B5",
                    "midi": 83,
                    "time": 39.63152800000012,
                    "velocity": 0.5826771653543307,
                    "duration": 0.04544899999999785
                },
                {
                    "name": "G5",
                    "midi": 79,
                    "time": 39.63152800000012,
                    "velocity": 0.5826771653543307,
                    "duration": 0.04544899999999785
                },
                {
                    "name": "A5",
                    "midi": 81,
                    "time": 39.75272533333345,
                    "velocity": 0.5669291338582677,
                    "duration": 0.04544899999999785
                },
                {
                    "name": "F#5",
                    "midi": 78,
                    "time": 39.75272533333345,
                    "velocity": 0.5669291338582677,
                    "duration": 0.04544899999999785
                },
                {
                    "name": "G5",
                    "midi": 79,
                    "time": 39.873922666666786,
                    "velocity": 0.5590551181102362,
                    "duration": 0.04544899999999785
                },
                {
                    "name": "E5",
                    "midi": 76,
                    "time": 39.873922666666786,
                    "velocity": 0.5590551181102362,
                    "duration": 0.04544899999999785
                },
                {
                    "name": "D5",
                    "midi": 74,
                    "time": 39.99512000000012,
                    "velocity": 0.5433070866141733,
                    "duration": 0.04544899999999785
                },
                {
                    "name": "F#5",
                    "midi": 78,
                    "time": 39.99512000000012,
                    "velocity": 0.5433070866141733,
                    "duration": 0.04544899999999785
                },
                {
                    "name": "C5",
                    "midi": 72,
                    "time": 40.116317333333456,
                    "velocity": 0.5275590551181102,
                    "duration": 0.04544899999999785
                },
                {
                    "name": "E5",
                    "midi": 76,
                    "time": 40.116317333333456,
                    "velocity": 0.5275590551181102,
                    "duration": 0.04544899999999785
                },
                {
                    "name": "B4",
                    "midi": 71,
                    "time": 40.23751466666679,
                    "velocity": 0.5196850393700787,
                    "duration": 0.04544899999999785
                },
                {
                    "name": "D5",
                    "midi": 74,
                    "time": 40.23751466666679,
                    "velocity": 0.5196850393700787,
                    "duration": 0.04544899999999785
                },
                {
                    "name": "A4",
                    "midi": 69,
                    "time": 40.358712000000125,
                    "velocity": 0.5039370078740157,
                    "duration": 0.04544899999999785
                },
                {
                    "name": "C5",
                    "midi": 72,
                    "time": 40.358712000000125,
                    "velocity": 0.5039370078740157,
                    "duration": 0.04544899999999785
                },
                {
                    "name": "G4",
                    "midi": 67,
                    "time": 40.47990933333346,
                    "velocity": 0.4881889763779528,
                    "duration": 0.04544899999999785
                },
                {
                    "name": "B4",
                    "midi": 71,
                    "time": 40.47990933333346,
                    "velocity": 0.4881889763779528,
                    "duration": 0.04544899999999785
                },
                {
                    "name": "F#4",
                    "midi": 66,
                    "time": 40.601106666666794,
                    "velocity": 0.48031496062992124,
                    "duration": 0.04544899999999785
                },
                {
                    "name": "A4",
                    "midi": 69,
                    "time": 40.601106666666794,
                    "velocity": 0.48031496062992124,
                    "duration": 0.04544899999999785
                },
                {
                    "name": "D4",
                    "midi": 62,
                    "time": 40.813202000000125,
                    "velocity": 0.36220472440944884,
                    "duration": 0.06817350000000033
                },
                {
                    "name": "B4",
                    "midi": 71,
                    "time": 40.90410000000013,
                    "velocity": 0.33070866141732286,
                    "duration": 0.06817350000000033
                },
                {
                    "name": "G5",
                    "midi": 79,
                    "time": 40.99499800000013,
                    "velocity": 0.36220472440944884,
                    "duration": 0.06817350000000033
                },
                {
                    "name": "B4",
                    "midi": 71,
                    "time": 41.17679400000013,
                    "velocity": 0.36220472440944884,
                    "duration": 0.06817350000000033
                },
                {
                    "name": "D4",
                    "midi": 62,
                    "time": 41.26769200000013,
                    "velocity": 0.3543307086614173,
                    "duration": 0.06817350000000033
                },
                {
                    "name": "G3",
                    "midi": 55,
                    "time": 41.358590000000135,
                    "velocity": 0.33070866141732286,
                    "duration": 0.06817350000000033
                },
                {
                    "name": "D#4",
                    "midi": 63,
                    "time": 41.54038600000013,
                    "velocity": 0.36220472440944884,
                    "duration": 0.06817350000000033
                },
                {
                    "name": "C5",
                    "midi": 72,
                    "time": 41.631284000000136,
                    "velocity": 0.3779527559055118,
                    "duration": 0.06817350000000033
                },
                {
                    "name": "F#5",
                    "midi": 78,
                    "time": 41.72218200000014,
                    "velocity": 0.3937007874015748,
                    "duration": 0.06817350000000033
                },
                {
                    "name": "C5",
                    "midi": 72,
                    "time": 41.90397800000014,
                    "velocity": 0.4251968503937008,
                    "duration": 0.06817350000000033
                },
                {
                    "name": "D#4",
                    "midi": 63,
                    "time": 41.99487600000014,
                    "velocity": 0.3858267716535433,
                    "duration": 0.06817350000000033
                },
                {
                    "name": "G3",
                    "midi": 55,
                    "time": 42.08577400000014,
                    "velocity": 0.33070866141732286,
                    "duration": 0.06817350000000033
                },
                {
                    "name": "D6",
                    "midi": 86,
                    "time": 42.29786933333347,
                    "velocity": 0.5826771653543307,
                    "duration": 0.04544899999999785
                },
                {
                    "name": "B5",
                    "midi": 83,
                    "time": 42.29786933333347,
                    "velocity": 0.5826771653543307,
                    "duration": 0.04544899999999785
                },
                {
                    "name": "C6",
                    "midi": 84,
                    "time": 42.41906666666681,
                    "velocity": 0.5669291338582677,
                    "duration": 0.04544899999999785
                },
                {
                    "name": "A5",
                    "midi": 81,
                    "time": 42.41906666666681,
                    "velocity": 0.5669291338582677,
                    "duration": 0.04544899999999785
                },
                {
                    "name": "B5",
                    "midi": 83,
                    "time": 42.54026400000014,
                    "velocity": 0.5590551181102362,
                    "duration": 0.04544899999999785
                },
                {
                    "name": "G5",
                    "midi": 79,
                    "time": 42.54026400000014,
                    "velocity": 0.5590551181102362,
                    "duration": 0.04544899999999785
                },
                {
                    "name": "A5",
                    "midi": 81,
                    "time": 42.66146133333348,
                    "velocity": 0.5433070866141733,
                    "duration": 0.04544899999999785
                },
                {
                    "name": "F#5",
                    "midi": 78,
                    "time": 42.66146133333348,
                    "velocity": 0.5433070866141733,
                    "duration": 0.04544899999999785
                },
                {
                    "name": "G5",
                    "midi": 79,
                    "time": 42.78265866666681,
                    "velocity": 0.5354330708661418,
                    "duration": 0.04544899999999785
                },
                {
                    "name": "E5",
                    "midi": 76,
                    "time": 42.78265866666681,
                    "velocity": 0.5354330708661418,
                    "duration": 0.04544899999999785
                },
                {
                    "name": "D5",
                    "midi": 74,
                    "time": 42.90385600000015,
                    "velocity": 0.5196850393700787,
                    "duration": 0.04544899999999785
                },
                {
                    "name": "F#5",
                    "midi": 78,
                    "time": 42.90385600000015,
                    "velocity": 0.5196850393700787,
                    "duration": 0.04544899999999785
                },
                {
                    "name": "C5",
                    "midi": 72,
                    "time": 43.02505333333348,
                    "velocity": 0.5039370078740157,
                    "duration": 0.04544899999999785
                },
                {
                    "name": "E5",
                    "midi": 76,
                    "time": 43.02505333333348,
                    "velocity": 0.5039370078740157,
                    "duration": 0.04544899999999785
                },
                {
                    "name": "B4",
                    "midi": 71,
                    "time": 43.146250666666816,
                    "velocity": 0.5039370078740157,
                    "duration": 0.04544899999999785
                },
                {
                    "name": "D5",
                    "midi": 74,
                    "time": 43.146250666666816,
                    "velocity": 0.5039370078740157,
                    "duration": 0.04544899999999785
                },
                {
                    "name": "A4",
                    "midi": 69,
                    "time": 43.26744800000015,
                    "velocity": 0.4881889763779528,
                    "duration": 0.04544899999999785
                },
                {
                    "name": "C5",
                    "midi": 72,
                    "time": 43.26744800000015,
                    "velocity": 0.4881889763779528,
                    "duration": 0.04544899999999785
                },
                {
                    "name": "G4",
                    "midi": 67,
                    "time": 43.388645333333486,
                    "velocity": 0.47244094488188976,
                    "duration": 0.04544899999999785
                },
                {
                    "name": "B4",
                    "midi": 71,
                    "time": 43.388645333333486,
                    "velocity": 0.47244094488188976,
                    "duration": 0.04544899999999785
                },
                {
                    "name": "F#4",
                    "midi": 66,
                    "time": 43.50984266666682,
                    "velocity": 0.4645669291338583,
                    "duration": 0.04544899999999785
                },
                {
                    "name": "A4",
                    "midi": 69,
                    "time": 43.50984266666682,
                    "velocity": 0.4645669291338583,
                    "duration": 0.04544899999999785
                },
                {
                    "name": "D4",
                    "midi": 62,
                    "time": 43.72193800000015,
                    "velocity": 0.36220472440944884,
                    "duration": 0.06817350000000033
                },
                {
                    "name": "B4",
                    "midi": 71,
                    "time": 43.81283600000015,
                    "velocity": 0.33070866141732286,
                    "duration": 0.06817350000000033
                },
                {
                    "name": "G5",
                    "midi": 79,
                    "time": 43.903734000000156,
                    "velocity": 0.36220472440944884,
                    "duration": 0.06817350000000033
                },
                {
                    "name": "B4",
                    "midi": 71,
                    "time": 44.085530000000155,
                    "velocity": 0.36220472440944884,
                    "duration": 0.06817350000000033
                },
                {
                    "name": "D4",
                    "midi": 62,
                    "time": 44.17642800000016,
                    "velocity": 0.30708661417322836,
                    "duration": 0.06817350000000033
                },
                {
                    "name": "G3",
                    "midi": 55,
                    "time": 44.26732600000016,
                    "velocity": 0.29133858267716534,
                    "duration": 0.06817350000000033
                },
                {
                    "name": "D#4",
                    "midi": 63,
                    "time": 44.44912200000016,
                    "velocity": 0.36220472440944884,
                    "duration": 0.06817350000000033
                },
                {
                    "name": "C5",
                    "midi": 72,
                    "time": 44.54002000000016,
                    "velocity": 0.3779527559055118,
                    "duration": 0.06817350000000033
                },
                {
                    "name": "F#5",
                    "midi": 78,
                    "time": 44.630918000000165,
                    "velocity": 0.3937007874015748,
                    "duration": 0.06817350000000033
                },
                {
                    "name": "C5",
                    "midi": 72,
                    "time": 44.81271400000016,
                    "velocity": 0.4251968503937008,
                    "duration": 0.06817350000000033
                },
                {
                    "name": "D#4",
                    "midi": 63,
                    "time": 44.903612000000166,
                    "velocity": 0.3858267716535433,
                    "duration": 0.06817350000000033
                },
                {
                    "name": "G3",
                    "midi": 55,
                    "time": 44.99451000000017,
                    "velocity": 0.33858267716535434,
                    "duration": 0.06817350000000033
                },
                {
                    "name": "D6",
                    "midi": 86,
                    "time": 45.2066053333335,
                    "velocity": 0.5826771653543307,
                    "duration": 0.04544899999999785
                },
                {
                    "name": "B5",
                    "midi": 83,
                    "time": 45.2066053333335,
                    "velocity": 0.5826771653543307,
                    "duration": 0.04544899999999785
                },
                {
                    "name": "C6",
                    "midi": 84,
                    "time": 45.327802666666834,
                    "velocity": 0.5669291338582677,
                    "duration": 0.04544899999999785
                },
                {
                    "name": "A5",
                    "midi": 81,
                    "time": 45.327802666666834,
                    "velocity": 0.5669291338582677,
                    "duration": 0.04544899999999785
                },
                {
                    "name": "B5",
                    "midi": 83,
                    "time": 45.44900000000017,
                    "velocity": 0.5590551181102362,
                    "duration": 0.04544899999999785
                },
                {
                    "name": "G5",
                    "midi": 79,
                    "time": 45.44900000000017,
                    "velocity": 0.5590551181102362,
                    "duration": 0.04544899999999785
                },
                {
                    "name": "A5",
                    "midi": 81,
                    "time": 45.5701973333335,
                    "velocity": 0.5433070866141733,
                    "duration": 0.04544899999999785
                },
                {
                    "name": "F#5",
                    "midi": 78,
                    "time": 45.5701973333335,
                    "velocity": 0.5433070866141733,
                    "duration": 0.04544899999999785
                },
                {
                    "name": "G5",
                    "midi": 79,
                    "time": 45.69139466666684,
                    "velocity": 0.5354330708661418,
                    "duration": 0.04544899999999785
                },
                {
                    "name": "E5",
                    "midi": 76,
                    "time": 45.69139466666684,
                    "velocity": 0.5354330708661418,
                    "duration": 0.04544899999999785
                },
                {
                    "name": "D5",
                    "midi": 74,
                    "time": 45.81259200000017,
                    "velocity": 0.5196850393700787,
                    "duration": 0.04544899999999785
                },
                {
                    "name": "F#5",
                    "midi": 78,
                    "time": 45.81259200000017,
                    "velocity": 0.5196850393700787,
                    "duration": 0.04544899999999785
                },
                {
                    "name": "C5",
                    "midi": 72,
                    "time": 45.93378933333351,
                    "velocity": 0.5039370078740157,
                    "duration": 0.04544899999999785
                },
                {
                    "name": "E5",
                    "midi": 76,
                    "time": 45.93378933333351,
                    "velocity": 0.5039370078740157,
                    "duration": 0.04544899999999785
                },
                {
                    "name": "B4",
                    "midi": 71,
                    "time": 46.05498666666684,
                    "velocity": 0.5039370078740157,
                    "duration": 0.04544899999999785
                },
                {
                    "name": "D5",
                    "midi": 74,
                    "time": 46.05498666666684,
                    "velocity": 0.5039370078740157,
                    "duration": 0.04544899999999785
                },
                {
                    "name": "A4",
                    "midi": 69,
                    "time": 46.17618400000018,
                    "velocity": 0.4881889763779528,
                    "duration": 0.04544899999999785
                },
                {
                    "name": "C5",
                    "midi": 72,
                    "time": 46.17618400000018,
                    "velocity": 0.4881889763779528,
                    "duration": 0.04544899999999785
                },
                {
                    "name": "G4",
                    "midi": 67,
                    "time": 46.29738133333351,
                    "velocity": 0.47244094488188976,
                    "duration": 0.04544899999999785
                },
                {
                    "name": "B4",
                    "midi": 71,
                    "time": 46.29738133333351,
                    "velocity": 0.47244094488188976,
                    "duration": 0.04544899999999785
                },
                {
                    "name": "F#4",
                    "midi": 66,
                    "time": 46.418578666666846,
                    "velocity": 0.4645669291338583,
                    "duration": 0.04544899999999785
                },
                {
                    "name": "A4",
                    "midi": 69,
                    "time": 46.418578666666846,
                    "velocity": 0.4645669291338583,
                    "duration": 0.04544899999999785
                },
                {
                    "name": "D4",
                    "midi": 62,
                    "time": 46.63067400000018,
                    "velocity": 0.36220472440944884,
                    "duration": 0.06817350000000033
                },
                {
                    "name": "B4",
                    "midi": 71,
                    "time": 46.72157200000018,
                    "velocity": 0.36220472440944884,
                    "duration": 0.06817350000000033
                },
                {
                    "name": "G5",
                    "midi": 79,
                    "time": 46.81247000000018,
                    "velocity": 0.30708661417322836,
                    "duration": 0.06817350000000033
                },
                {
                    "name": "B4",
                    "midi": 71,
                    "time": 46.99426600000018,
                    "velocity": 0.36220472440944884,
                    "duration": 0.06817350000000033
                },
                {
                    "name": "D4",
                    "midi": 62,
                    "time": 47.085164000000184,
                    "velocity": 0.3228346456692913,
                    "duration": 0.06817350000000033
                },
                {
                    "name": "G3",
                    "midi": 55,
                    "time": 47.17606200000019,
                    "velocity": 0.2677165354330709,
                    "duration": 0.06817350000000033
                },
                {
                    "name": "D4",
                    "midi": 62,
                    "time": 47.357858000000185,
                    "velocity": 0.36220472440944884,
                    "duration": 0.06817350000000033
                },
                {
                    "name": "A#4",
                    "midi": 70,
                    "time": 47.44875600000019,
                    "velocity": 0.3779527559055118,
                    "duration": 0.06817350000000033
                },
                {
                    "name": "G5",
                    "midi": 79,
                    "time": 47.53965400000019,
                    "velocity": 0.3937007874015748,
                    "duration": 0.06817350000000033
                },
                {
                    "name": "A#4",
                    "midi": 70,
                    "time": 47.72145000000019,
                    "velocity": 0.4251968503937008,
                    "duration": 0.06817350000000033
                },
                {
                    "name": "D4",
                    "midi": 62,
                    "time": 47.81234800000019,
                    "velocity": 0.4015748031496063,
                    "duration": 0.06817350000000033
                },
                {
                    "name": "G3",
                    "midi": 55,
                    "time": 47.903246000000195,
                    "velocity": 0.3858267716535433,
                    "duration": 0.24996949999999885
                },
                {
                    "name": "C#6",
                    "midi": 85,
                    "time": 48.115341333333525,
                    "velocity": 0.5511811023622047,
                    "duration": 0.04544900000000496
                },
                {
                    "name": "A#5",
                    "midi": 82,
                    "time": 48.115341333333525,
                    "velocity": 0.5511811023622047,
                    "duration": 0.04544900000000496
                },
                {
                    "name": "C6",
                    "midi": 84,
                    "time": 48.23653866666687,
                    "velocity": 0.5433070866141733,
                    "duration": 0.04544899999999785
                },
                {
                    "name": "G#5",
                    "midi": 80,
                    "time": 48.23653866666687,
                    "velocity": 0.5433070866141733,
                    "duration": 0.04544899999999785
                },
                {
                    "name": "A#5",
                    "midi": 82,
                    "time": 48.3577360000002,
                    "velocity": 0.5275590551181102,
                    "duration": 0.04544899999999785
                },
                {
                    "name": "G5",
                    "midi": 79,
                    "time": 48.3577360000002,
                    "velocity": 0.5275590551181102,
                    "duration": 0.04544899999999785
                },
                {
                    "name": "G5",
                    "midi": 79,
                    "time": 48.478933333333536,
                    "velocity": 0.5196850393700787,
                    "duration": 0.04544899999999785
                },
                {
                    "name": "A#5",
                    "midi": 82,
                    "time": 48.478933333333536,
                    "velocity": 0.5196850393700787,
                    "duration": 0.04544899999999785
                },
                {
                    "name": "F5",
                    "midi": 77,
                    "time": 48.60013066666687,
                    "velocity": 0.5039370078740157,
                    "duration": 0.04544899999999785
                },
                {
                    "name": "G#5",
                    "midi": 80,
                    "time": 48.60013066666687,
                    "velocity": 0.5039370078740157,
                    "duration": 0.04544899999999785
                },
                {
                    "name": "D#5",
                    "midi": 75,
                    "time": 48.721328000000206,
                    "velocity": 0.49606299212598426,
                    "duration": 0.04544899999999785
                },
                {
                    "name": "G5",
                    "midi": 79,
                    "time": 48.721328000000206,
                    "velocity": 0.49606299212598426,
                    "duration": 0.04544899999999785
                },
                {
                    "name": "C#5",
                    "midi": 73,
                    "time": 48.84252533333354,
                    "velocity": 0.48031496062992124,
                    "duration": 0.04544899999999785
                },
                {
                    "name": "F5",
                    "midi": 77,
                    "time": 48.84252533333354,
                    "velocity": 0.48031496062992124,
                    "duration": 0.04544899999999785
                },
                {
                    "name": "C5",
                    "midi": 72,
                    "time": 48.963722666666875,
                    "velocity": 0.47244094488188976,
                    "duration": 0.04544899999999785
                },
                {
                    "name": "D#5",
                    "midi": 75,
                    "time": 48.963722666666875,
                    "velocity": 0.47244094488188976,
                    "duration": 0.04544899999999785
                },
                {
                    "name": "A#4",
                    "midi": 70,
                    "time": 49.08492000000021,
                    "velocity": 0.4645669291338583,
                    "duration": 0.04544899999999785
                },
                {
                    "name": "C#5",
                    "midi": 73,
                    "time": 49.08492000000021,
                    "velocity": 0.4645669291338583,
                    "duration": 0.04544899999999785
                },
                {
                    "name": "G#4",
                    "midi": 68,
                    "time": 49.206117333333545,
                    "velocity": 0.44881889763779526,
                    "duration": 0.04544899999999785
                },
                {
                    "name": "C5",
                    "midi": 72,
                    "time": 49.206117333333545,
                    "velocity": 0.44881889763779526,
                    "duration": 0.04544899999999785
                },
                {
                    "name": "G4",
                    "midi": 67,
                    "time": 49.32731466666688,
                    "velocity": 0.48031496062992124,
                    "duration": 0.04544899999999785
                },
                {
                    "name": "A#4",
                    "midi": 70,
                    "time": 49.32731466666688,
                    "velocity": 0.48031496062992124,
                    "duration": 0.04544899999999785
                },
                {
                    "name": "D#4",
                    "midi": 63,
                    "time": 49.53941000000021,
                    "velocity": 0.36220472440944884,
                    "duration": 0.06817350000000033
                },
                {
                    "name": "C5",
                    "midi": 72,
                    "time": 49.63030800000021,
                    "velocity": 0.36220472440944884,
                    "duration": 0.06817350000000033
                },
                {
                    "name": "G#5",
                    "midi": 80,
                    "time": 49.721206000000215,
                    "velocity": 0.33070866141732286,
                    "duration": 0.06817350000000033
                },
                {
                    "name": "C5",
                    "midi": 72,
                    "time": 49.903002000000214,
                    "velocity": 0.36220472440944884,
                    "duration": 0.06817350000000033
                },
                {
                    "name": "D#4",
                    "midi": 63,
                    "time": 49.99390000000022,
                    "velocity": 0.33070866141732286,
                    "duration": 0.06817350000000033
                },
                {
                    "name": "G#3",
                    "midi": 56,
                    "time": 50.08479800000022,
                    "velocity": 0.29133858267716534,
                    "duration": 0.06817350000000033
                },
                {
                    "name": "D#4",
                    "midi": 63,
                    "time": 50.26659400000022,
                    "velocity": 0.36220472440944884,
                    "duration": 0.06817350000000033
                },
                {
                    "name": "B4",
                    "midi": 71,
                    "time": 50.35749200000022,
                    "velocity": 0.3779527559055118,
                    "duration": 0.06817350000000033
                },
                {
                    "name": "G#5",
                    "midi": 80,
                    "time": 50.448390000000224,
                    "velocity": 0.3543307086614173,
                    "duration": 0.06817350000000033
                },
                {
                    "name": "B4",
                    "midi": 71,
                    "time": 50.63018600000022,
                    "velocity": 0.4251968503937008,
                    "duration": 0.06817350000000033
                },
                {
                    "name": "D#4",
                    "midi": 63,
                    "time": 50.721084000000225,
                    "velocity": 0.3858267716535433,
                    "duration": 0.06817350000000033
                },
                {
                    "name": "G#3",
                    "midi": 56,
                    "time": 50.81198200000023,
                    "velocity": 0.3700787401574803,
                    "duration": 0.24996949999999885
                },
                {
                    "name": "D6",
                    "midi": 86,
                    "time": 51.02407733333356,
                    "velocity": 0.5511811023622047,
                    "duration": 0.04544900000000496
                },
                {
                    "name": "B5",
                    "midi": 83,
                    "time": 51.02407733333356,
                    "velocity": 0.5511811023622047,
                    "duration": 0.04544900000000496
                },
                {
                    "name": "C#6",
                    "midi": 85,
                    "time": 51.1452746666669,
                    "velocity": 0.5433070866141733,
                    "duration": 0.04544899999999785
                },
                {
                    "name": "A5",
                    "midi": 81,
                    "time": 51.1452746666669,
                    "velocity": 0.5433070866141733,
                    "duration": 0.04544899999999785
                },
                {
                    "name": "B5",
                    "midi": 83,
                    "time": 51.266472000000235,
                    "velocity": 0.5275590551181102,
                    "duration": 0.04544899999999785
                },
                {
                    "name": "G#5",
                    "midi": 80,
                    "time": 51.266472000000235,
                    "velocity": 0.5275590551181102,
                    "duration": 0.04544899999999785
                },
                {
                    "name": "G#5",
                    "midi": 80,
                    "time": 51.38766933333357,
                    "velocity": 0.5196850393700787,
                    "duration": 0.04544899999999785
                },
                {
                    "name": "B5",
                    "midi": 83,
                    "time": 51.38766933333357,
                    "velocity": 0.5196850393700787,
                    "duration": 0.04544899999999785
                },
                {
                    "name": "F#5",
                    "midi": 78,
                    "time": 51.508866666666904,
                    "velocity": 0.5039370078740157,
                    "duration": 0.04544899999999785
                },
                {
                    "name": "A5",
                    "midi": 81,
                    "time": 51.508866666666904,
                    "velocity": 0.5039370078740157,
                    "duration": 0.04544899999999785
                },
                {
                    "name": "E5",
                    "midi": 76,
                    "time": 51.63006400000024,
                    "velocity": 0.49606299212598426,
                    "duration": 0.04544899999999785
                },
                {
                    "name": "G#5",
                    "midi": 80,
                    "time": 51.63006400000024,
                    "velocity": 0.49606299212598426,
                    "duration": 0.04544899999999785
                },
                {
                    "name": "D5",
                    "midi": 74,
                    "time": 51.751261333333574,
                    "velocity": 0.48031496062992124,
                    "duration": 0.04544899999999785
                },
                {
                    "name": "F#5",
                    "midi": 78,
                    "time": 51.751261333333574,
                    "velocity": 0.48031496062992124,
                    "duration": 0.04544899999999785
                },
                {
                    "name": "C#5",
                    "midi": 73,
                    "time": 51.87245866666691,
                    "velocity": 0.47244094488188976,
                    "duration": 0.04544899999999785
                },
                {
                    "name": "E5",
                    "midi": 76,
                    "time": 51.87245866666691,
                    "velocity": 0.47244094488188976,
                    "duration": 0.04544899999999785
                },
                {
                    "name": "B4",
                    "midi": 71,
                    "time": 51.99365600000024,
                    "velocity": 0.4645669291338583,
                    "duration": 0.04544899999999785
                },
                {
                    "name": "D5",
                    "midi": 74,
                    "time": 51.99365600000024,
                    "velocity": 0.4645669291338583,
                    "duration": 0.04544899999999785
                },
                {
                    "name": "A4",
                    "midi": 69,
                    "time": 52.11485333333358,
                    "velocity": 0.44881889763779526,
                    "duration": 0.04544899999999785
                },
                {
                    "name": "C#5",
                    "midi": 73,
                    "time": 52.11485333333358,
                    "velocity": 0.44881889763779526,
                    "duration": 0.04544899999999785
                },
                {
                    "name": "G#4",
                    "midi": 68,
                    "time": 52.23605066666691,
                    "velocity": 0.48031496062992124,
                    "duration": 0.04544899999999785
                },
                {
                    "name": "B4",
                    "midi": 71,
                    "time": 52.23605066666691,
                    "velocity": 0.48031496062992124,
                    "duration": 0.04544899999999785
                },
                {
                    "name": "E4",
                    "midi": 64,
                    "time": 52.44814600000024,
                    "velocity": 0.36220472440944884,
                    "duration": 0.06817350000000033
                },
                {
                    "name": "C#5",
                    "midi": 73,
                    "time": 52.539044000000246,
                    "velocity": 0.33070866141732286,
                    "duration": 0.06817350000000033
                },
                {
                    "name": "A5",
                    "midi": 81,
                    "time": 52.62994200000025,
                    "velocity": 0.36220472440944884,
                    "duration": 0.06817350000000033
                },
                {
                    "name": "C#5",
                    "midi": 73,
                    "time": 52.81173800000025,
                    "velocity": 0.36220472440944884,
                    "duration": 0.06817350000000033
                },
                {
                    "name": "E4",
                    "midi": 64,
                    "time": 52.90263600000025,
                    "velocity": 0.33858267716535434,
                    "duration": 0.06817350000000033
                },
                {
                    "name": "A3",
                    "midi": 57,
                    "time": 52.99353400000025,
                    "velocity": 0.2992125984251969,
                    "duration": 0.06817350000000033
                },
                {
                    "name": "E4",
                    "midi": 64,
                    "time": 53.17533000000025,
                    "velocity": 0.36220472440944884,
                    "duration": 0.06817350000000033
                },
                {
                    "name": "C5",
                    "midi": 72,
                    "time": 53.266228000000254,
                    "velocity": 0.3779527559055118,
                    "duration": 0.06817350000000033
                },
                {
                    "name": "A5",
                    "midi": 81,
                    "time": 53.35712600000026,
                    "velocity": 0.3937007874015748,
                    "duration": 0.06817350000000033
                },
                {
                    "name": "C5",
                    "midi": 72,
                    "time": 53.538922000000255,
                    "velocity": 0.4251968503937008,
                    "duration": 0.06817350000000033
                },
                {
                    "name": "E4",
                    "midi": 64,
                    "time": 53.62982000000026,
                    "velocity": 0.4015748031496063,
                    "duration": 0.06817350000000033
                },
                {
                    "name": "A3",
                    "midi": 57,
                    "time": 53.72071800000026,
                    "velocity": 0.3779527559055118,
                    "duration": 0.24996949999999885
                },
                {
                    "name": "D#6",
                    "midi": 87,
                    "time": 53.93281333333359,
                    "velocity": 0.5511811023622047,
                    "duration": 0.04544900000000496
                },
                {
                    "name": "C6",
                    "midi": 84,
                    "time": 53.93281333333359,
                    "velocity": 0.5511811023622047,
                    "duration": 0.04544900000000496
                },
                {
                    "name": "D6",
                    "midi": 86,
                    "time": 54.05401066666693,
                    "velocity": 0.5433070866141733,
                    "duration": 0.04544899999999785
                },
                {
                    "name": "A#5",
                    "midi": 82,
                    "time": 54.05401066666693,
                    "velocity": 0.5433070866141733,
                    "duration": 0.04544899999999785
                },
                {
                    "name": "C6",
                    "midi": 84,
                    "time": 54.17520800000027,
                    "velocity": 0.5275590551181102,
                    "duration": 0.04544899999999785
                },
                {
                    "name": "A5",
                    "midi": 81,
                    "time": 54.17520800000027,
                    "velocity": 0.5275590551181102,
                    "duration": 0.04544899999999785
                },
                {
                    "name": "A5",
                    "midi": 81,
                    "time": 54.2964053333336,
                    "velocity": 0.5196850393700787,
                    "duration": 0.04544899999999785
                },
                {
                    "name": "C6",
                    "midi": 84,
                    "time": 54.2964053333336,
                    "velocity": 0.5196850393700787,
                    "duration": 0.04544899999999785
                },
                {
                    "name": "G5",
                    "midi": 79,
                    "time": 54.41760266666694,
                    "velocity": 0.5039370078740157,
                    "duration": 0.04544899999999785
                },
                {
                    "name": "A#5",
                    "midi": 82,
                    "time": 54.41760266666694,
                    "velocity": 0.5039370078740157,
                    "duration": 0.04544899999999785
                },
                {
                    "name": "F5",
                    "midi": 77,
                    "time": 54.53880000000027,
                    "velocity": 0.49606299212598426,
                    "duration": 0.04544899999999785
                },
                {
                    "name": "A5",
                    "midi": 81,
                    "time": 54.53880000000027,
                    "velocity": 0.49606299212598426,
                    "duration": 0.04544899999999785
                },
                {
                    "name": "D#5",
                    "midi": 75,
                    "time": 54.65999733333361,
                    "velocity": 0.48031496062992124,
                    "duration": 0.04544899999999785
                },
                {
                    "name": "G5",
                    "midi": 79,
                    "time": 54.65999733333361,
                    "velocity": 0.48031496062992124,
                    "duration": 0.04544899999999785
                },
                {
                    "name": "D5",
                    "midi": 74,
                    "time": 54.78119466666694,
                    "velocity": 0.47244094488188976,
                    "duration": 0.04544899999999785
                },
                {
                    "name": "F5",
                    "midi": 77,
                    "time": 54.78119466666694,
                    "velocity": 0.47244094488188976,
                    "duration": 0.04544899999999785
                },
                {
                    "name": "C5",
                    "midi": 72,
                    "time": 54.902392000000276,
                    "velocity": 0.4645669291338583,
                    "duration": 0.04544899999999785
                },
                {
                    "name": "D#5",
                    "midi": 75,
                    "time": 54.902392000000276,
                    "velocity": 0.4645669291338583,
                    "duration": 0.04544899999999785
                },
                {
                    "name": "A#4",
                    "midi": 70,
                    "time": 55.02358933333361,
                    "velocity": 0.44881889763779526,
                    "duration": 0.04544899999999785
                },
                {
                    "name": "D5",
                    "midi": 74,
                    "time": 55.02358933333361,
                    "velocity": 0.44881889763779526,
                    "duration": 0.04544899999999785
                },
                {
                    "name": "A4",
                    "midi": 69,
                    "time": 55.144786666666946,
                    "velocity": 0.48031496062992124,
                    "duration": 0.04544899999999785
                },
                {
                    "name": "C5",
                    "midi": 72,
                    "time": 55.144786666666946,
                    "velocity": 0.48031496062992124,
                    "duration": 0.04544899999999785
                },
                {
                    "name": "F4",
                    "midi": 65,
                    "time": 55.356882000000276,
                    "velocity": 0.4015748031496063,
                    "duration": 0.06817350000000033
                },
                {
                    "name": "D5",
                    "midi": 74,
                    "time": 55.44778000000028,
                    "velocity": 0.36220472440944884,
                    "duration": 0.06817350000000033
                },
                {
                    "name": "A#5",
                    "midi": 82,
                    "time": 55.53867800000028,
                    "velocity": 0.4015748031496063,
                    "duration": 0.06817350000000033
                },
                {
                    "name": "D5",
                    "midi": 74,
                    "time": 55.72047400000028,
                    "velocity": 0.4015748031496063,
                    "duration": 0.06817350000000033
                },
                {
                    "name": "F4",
                    "midi": 65,
                    "time": 55.81137200000028,
                    "velocity": 0.3543307086614173,
                    "duration": 0.06817350000000033
                },
                {
                    "name": "A#3",
                    "midi": 58,
                    "time": 55.902270000000286,
                    "velocity": 0.3228346456692913,
                    "duration": 0.06817350000000033
                },
                {
                    "name": "F4",
                    "midi": 65,
                    "time": 56.084066000000284,
                    "velocity": 0.4015748031496063,
                    "duration": 0.06817350000000033
                },
                {
                    "name": "C#5",
                    "midi": 73,
                    "time": 56.17496400000029,
                    "velocity": 0.36220472440944884,
                    "duration": 0.06817350000000033
                },
                {
                    "name": "A#5",
                    "midi": 82,
                    "time": 56.26586200000029,
                    "velocity": 0.4015748031496063,
                    "duration": 0.06817350000000033
                },
                {
                    "name": "C#5",
                    "midi": 73,
                    "time": 56.44765800000029,
                    "velocity": 0.4015748031496063,
                    "duration": 0.06817350000000033
                },
                {
                    "name": "F4",
                    "midi": 65,
                    "time": 56.53855600000029,
                    "velocity": 0.3700787401574803,
                    "duration": 0.06817350000000033
                },
                {
                    "name": "A#3",
                    "midi": 58,
                    "time": 56.629454000000294,
                    "velocity": 0.33858267716535434,
                    "duration": 0.06817350000000033
                },
                {
                    "name": "F#4",
                    "midi": 66,
                    "time": 56.81125000000029,
                    "velocity": 0.4015748031496063,
                    "duration": 0.06817350000000033
                },
                {
                    "name": "C#5",
                    "midi": 73,
                    "time": 56.902148000000295,
                    "velocity": 0.3700787401574803,
                    "duration": 0.06817350000000033
                },
                {
                    "name": "A#5",
                    "midi": 82,
                    "time": 56.9930460000003,
                    "velocity": 0.4015748031496063,
                    "duration": 0.06817350000000033
                },
                {
                    "name": "C#5",
                    "midi": 73,
                    "time": 57.1748420000003,
                    "velocity": 0.4015748031496063,
                    "duration": 0.06817350000000033
                },
                {
                    "name": "F#4",
                    "midi": 66,
                    "time": 57.2657400000003,
                    "velocity": 0.3858267716535433,
                    "duration": 0.06817350000000033
                },
                {
                    "name": "A#3",
                    "midi": 58,
                    "time": 57.3566380000003,
                    "velocity": 0.33858267716535434,
                    "duration": 0.06817350000000033
                },
                {
                    "name": "F#4",
                    "midi": 66,
                    "time": 57.5384340000003,
                    "velocity": 0.4015748031496063,
                    "duration": 0.06817350000000033
                },
                {
                    "name": "E5",
                    "midi": 76,
                    "time": 57.6293320000003,
                    "velocity": 0.3779527559055118,
                    "duration": 0.06817350000000033
                },
                {
                    "name": "C#6",
                    "midi": 85,
                    "time": 57.720230000000306,
                    "velocity": 0.4015748031496063,
                    "duration": 0.06817350000000033
                },
                {
                    "name": "E5",
                    "midi": 76,
                    "time": 57.902026000000305,
                    "velocity": 0.4015748031496063,
                    "duration": 0.06817350000000033
                },
                {
                    "name": "F#4",
                    "midi": 66,
                    "time": 57.99292400000031,
                    "velocity": 0.36220472440944884,
                    "duration": 0.06817350000000033
                },
                {
                    "name": "A#3",
                    "midi": 58,
                    "time": 58.08382200000031,
                    "velocity": 0.33070866141732286,
                    "duration": 0.06817350000000033
                },
                {
                    "name": "F#4",
                    "midi": 66,
                    "time": 58.26561800000031,
                    "velocity": 0.4094488188976378,
                    "duration": 0.06817350000000033
                },
                {
                    "name": "D#5",
                    "midi": 75,
                    "time": 58.35651600000031,
                    "velocity": 0.3858267716535433,
                    "duration": 0.06817350000000033
                },
                {
                    "name": "B5",
                    "midi": 83,
                    "time": 58.447414000000315,
                    "velocity": 0.4094488188976378,
                    "duration": 0.06817350000000033
                },
                {
                    "name": "D#5",
                    "midi": 75,
                    "time": 58.62921000000031,
                    "velocity": 0.41732283464566927,
                    "duration": 0.06817350000000033
                },
                {
                    "name": "F#4",
                    "midi": 66,
                    "time": 58.720108000000316,
                    "velocity": 0.36220472440944884,
                    "duration": 0.06817350000000033
                },
                {
                    "name": "B3",
                    "midi": 59,
                    "time": 58.81100600000032,
                    "velocity": 0.33858267716535434,
                    "duration": 0.06817350000000033
                },
                {
                    "name": "F#4",
                    "midi": 66,
                    "time": 58.99280200000032,
                    "velocity": 0.4251968503937008,
                    "duration": 0.06817350000000033
                },
                {
                    "name": "D5",
                    "midi": 74,
                    "time": 59.08370000000032,
                    "velocity": 0.3937007874015748,
                    "duration": 0.06817350000000033
                },
                {
                    "name": "B5",
                    "midi": 83,
                    "time": 59.17459800000032,
                    "velocity": 0.4330708661417323,
                    "duration": 0.06817350000000033
                },
                {
                    "name": "D5",
                    "midi": 74,
                    "time": 59.35639400000032,
                    "velocity": 0.4330708661417323,
                    "duration": 0.06817350000000033
                },
                {
                    "name": "F#4",
                    "midi": 66,
                    "time": 59.447292000000324,
                    "velocity": 0.3937007874015748,
                    "duration": 0.06817350000000033
                },
                {
                    "name": "B3",
                    "midi": 59,
                    "time": 59.53819000000033,
                    "velocity": 0.36220472440944884,
                    "duration": 0.06817350000000033
                },
                {
                    "name": "G4",
                    "midi": 67,
                    "time": 59.719986000000326,
                    "velocity": 0.4409448818897638,
                    "duration": 0.06817350000000033
                },
                {
                    "name": "D5",
                    "midi": 74,
                    "time": 59.81088400000033,
                    "velocity": 0.44881889763779526,
                    "duration": 0.06817350000000033
                },
                {
                    "name": "B5",
                    "midi": 83,
                    "time": 59.90178200000033,
                    "velocity": 0.3937007874015748,
                    "duration": 0.06817350000000033
                },
                {
                    "name": "D5",
                    "midi": 74,
                    "time": 60.08357800000033,
                    "velocity": 0.4566929133858268,
                    "duration": 0.06817350000000033
                },
                {
                    "name": "G4",
                    "midi": 67,
                    "time": 60.17447600000033,
                    "velocity": 0.3937007874015748,
                    "duration": 0.06817350000000033
                },
                {
                    "name": "B3",
                    "midi": 59,
                    "time": 60.265374000000335,
                    "velocity": 0.36220472440944884,
                    "duration": 0.06817350000000033
                },
                {
                    "name": "G4",
                    "midi": 67,
                    "time": 60.447170000000334,
                    "velocity": 0.4645669291338583,
                    "duration": 0.06817350000000033
                },
                {
                    "name": "F5",
                    "midi": 77,
                    "time": 60.53806800000034,
                    "velocity": 0.41732283464566927,
                    "duration": 0.06817350000000033
                },
                {
                    "name": "D6",
                    "midi": 86,
                    "time": 60.62896600000034,
                    "velocity": 0.4645669291338583,
                    "duration": 0.06817350000000033
                },
                {
                    "name": "F5",
                    "midi": 77,
                    "time": 60.81076200000034,
                    "velocity": 0.4645669291338583,
                    "duration": 0.06817350000000033
                },
                {
                    "name": "G4",
                    "midi": 67,
                    "time": 60.90166000000034,
                    "velocity": 0.41732283464566927,
                    "duration": 0.06817350000000033
                },
                {
                    "name": "B3",
                    "midi": 59,
                    "time": 60.992558000000344,
                    "velocity": 0.3779527559055118,
                    "duration": 0.06817350000000033
                },
                {
                    "name": "G4",
                    "midi": 67,
                    "time": 61.17435400000034,
                    "velocity": 0.47244094488188976,
                    "duration": 0.06817350000000033
                },
                {
                    "name": "E5",
                    "midi": 76,
                    "time": 61.265252000000345,
                    "velocity": 0.47244094488188976,
                    "duration": 0.06817350000000033
                },
                {
                    "name": "C6",
                    "midi": 84,
                    "time": 61.35615000000035,
                    "velocity": 0.4409448818897638,
                    "duration": 0.06817350000000033
                },
                {
                    "name": "E5",
                    "midi": 76,
                    "time": 61.537946000000346,
                    "velocity": 0.4881889763779528,
                    "duration": 0.06817350000000033
                },
                {
                    "name": "G4",
                    "midi": 67,
                    "time": 61.62884400000035,
                    "velocity": 0.4330708661417323,
                    "duration": 0.06817350000000033
                },
                {
                    "name": "C4",
                    "midi": 60,
                    "time": 61.71974200000035,
                    "velocity": 0.3937007874015748,
                    "duration": 0.06817350000000033
                },
                {
                    "name": "G4",
                    "midi": 67,
                    "time": 61.90153800000035,
                    "velocity": 0.49606299212598426,
                    "duration": 0.06817350000000033
                },
                {
                    "name": "D#5",
                    "midi": 75,
                    "time": 61.99243600000035,
                    "velocity": 0.49606299212598426,
                    "duration": 0.06817350000000033
                },
                {
                    "name": "C6",
                    "midi": 84,
                    "time": 62.083334000000356,
                    "velocity": 0.4566929133858268,
                    "duration": 0.06817350000000033
                },
                {
                    "name": "D#5",
                    "midi": 75,
                    "time": 62.265130000000354,
                    "velocity": 0.5039370078740157,
                    "duration": 0.06817350000000033
                },
                {
                    "name": "G4",
                    "midi": 67,
                    "time": 62.35602800000036,
                    "velocity": 0.48031496062992124,
                    "duration": 0.06817350000000033
                },
                {
                    "name": "C4",
                    "midi": 60,
                    "time": 62.44692600000036,
                    "velocity": 0.4409448818897638,
                    "duration": 0.06817350000000033
                },
                {
                    "name": "G#4",
                    "midi": 68,
                    "time": 62.62872200000036,
                    "velocity": 0.5039370078740157,
                    "duration": 0.06817350000000033
                },
                {
                    "name": "D#5",
                    "midi": 75,
                    "time": 62.71962000000036,
                    "velocity": 0.4566929133858268,
                    "duration": 0.06817350000000033
                },
                {
                    "name": "C6",
                    "midi": 84,
                    "time": 62.810518000000364,
                    "velocity": 0.5196850393700787,
                    "duration": 0.06817350000000033
                },
                {
                    "name": "D#5",
                    "midi": 75,
                    "time": 62.99231400000036,
                    "velocity": 0.5196850393700787,
                    "duration": 0.06817350000000033
                },
                {
                    "name": "G#4",
                    "midi": 68,
                    "time": 63.083212000000366,
                    "velocity": 0.4881889763779528,
                    "duration": 0.06817350000000033
                },
                {
                    "name": "C4",
                    "midi": 60,
                    "time": 63.17411000000037,
                    "velocity": 0.4409448818897638,
                    "duration": 0.06817350000000033
                },
                {
                    "name": "G#4",
                    "midi": 68,
                    "time": 63.35590600000037,
                    "velocity": 0.5354330708661418,
                    "duration": 0.06817350000000033
                },
                {
                    "name": "F#5",
                    "midi": 78,
                    "time": 63.44680400000037,
                    "velocity": 0.49606299212598426,
                    "duration": 0.06817350000000033
                },
                {
                    "name": "D#6",
                    "midi": 87,
                    "time": 63.53770200000037,
                    "velocity": 0.5433070866141733,
                    "duration": 0.06817350000000033
                },
                {
                    "name": "F#5",
                    "midi": 78,
                    "time": 63.71949800000037,
                    "velocity": 0.5433070866141733,
                    "duration": 0.06817350000000033
                },
                {
                    "name": "G#4",
                    "midi": 68,
                    "time": 63.810396000000374,
                    "velocity": 0.48031496062992124,
                    "duration": 0.06817350000000033
                },
                {
                    "name": "C4",
                    "midi": 60,
                    "time": 63.90129400000038,
                    "velocity": 0.4015748031496063,
                    "duration": 0.06817350000000033
                },
                {
                    "name": "F4",
                    "midi": 65,
                    "time": 64.81027400000038,
                    "velocity": 0.4015748031496063,
                    "duration": 0.06817350000000033
                },
                {
                    "name": "G#4",
                    "midi": 68,
                    "time": 64.90117200000037,
                    "velocity": 0.4015748031496063,
                    "duration": 0.06817350000000033
                },
                {
                    "name": "F5",
                    "midi": 77,
                    "time": 64.99207000000037,
                    "velocity": 0.3543307086614173,
                    "duration": 0.06817350000000033
                },
                {
                    "name": "C#5",
                    "midi": 73,
                    "time": 64.99207000000037,
                    "velocity": 0.3543307086614173,
                    "duration": 0.06817350000000033
                },
                {
                    "name": "G#4",
                    "midi": 68,
                    "time": 65.17386600000037,
                    "velocity": 0.4015748031496063,
                    "duration": 0.06817350000000033
                },
                {
                    "name": "F4",
                    "midi": 65,
                    "time": 65.26476400000037,
                    "velocity": 0.3543307086614173,
                    "duration": 0.06817350000000033
                },
                {
                    "name": "C#4",
                    "midi": 61,
                    "time": 65.35566200000036,
                    "velocity": 0.31496062992125984,
                    "duration": 0.06817350000000033
                },
                {
                    "name": "D#4",
                    "midi": 63,
                    "time": 65.53745800000037,
                    "velocity": 0.4015748031496063,
                    "duration": 0.06817350000000033
                },
                {
                    "name": "G#4",
                    "midi": 68,
                    "time": 65.62835600000037,
                    "velocity": 0.4015748031496063,
                    "duration": 0.06817350000000033
                },
                {
                    "name": "D#5",
                    "midi": 75,
                    "time": 65.71925400000036,
                    "velocity": 0.3543307086614173,
                    "duration": 0.06817350000000033
                },
                {
                    "name": "F#5",
                    "midi": 78,
                    "time": 65.71925400000036,
                    "velocity": 0.3543307086614173,
                    "duration": 0.06817350000000033
                },
                {
                    "name": "G#4",
                    "midi": 68,
                    "time": 65.90105000000037,
                    "velocity": 0.4015748031496063,
                    "duration": 0.06817350000000033
                },
                {
                    "name": "D#4",
                    "midi": 63,
                    "time": 65.99194800000036,
                    "velocity": 0.3464566929133858,
                    "duration": 0.06817350000000033
                },
                {
                    "name": "C4",
                    "midi": 60,
                    "time": 66.08284600000036,
                    "velocity": 0.30708661417322836,
                    "duration": 0.06817350000000033
                },
                {
                    "name": "F4",
                    "midi": 65,
                    "time": 66.26464200000036,
                    "velocity": 0.4015748031496063,
                    "duration": 0.06817350000000033
                },
                {
                    "name": "G#4",
                    "midi": 68,
                    "time": 66.35554000000036,
                    "velocity": 0.4015748031496063,
                    "duration": 0.06817350000000033
                },
                {
                    "name": "F5",
                    "midi": 77,
                    "time": 66.44643800000036,
                    "velocity": 0.36220472440944884,
                    "duration": 0.06817350000000033
                },
                {
                    "name": "C#5",
                    "midi": 73,
                    "time": 66.44643800000036,
                    "velocity": 0.36220472440944884,
                    "duration": 0.06817350000000033
                },
                {
                    "name": "G#4",
                    "midi": 68,
                    "time": 66.62823400000036,
                    "velocity": 0.4015748031496063,
                    "duration": 0.06817350000000033
                },
                {
                    "name": "F4",
                    "midi": 65,
                    "time": 66.71913200000036,
                    "velocity": 0.3543307086614173,
                    "duration": 0.06817350000000033
                },
                {
                    "name": "C#4",
                    "midi": 61,
                    "time": 66.81003000000035,
                    "velocity": 0.33070866141732286,
                    "duration": 0.06817350000000033
                },
                {
                    "name": "D#4",
                    "midi": 63,
                    "time": 66.99182600000036,
                    "velocity": 0.4015748031496063,
                    "duration": 0.06817350000000033
                },
                {
                    "name": "G#4",
                    "midi": 68,
                    "time": 67.08272400000035,
                    "velocity": 0.4015748031496063,
                    "duration": 0.06817350000000033
                },
                {
                    "name": "C5",
                    "midi": 72,
                    "time": 67.17362200000035,
                    "velocity": 0.36220472440944884,
                    "duration": 0.06817350000000033
                },
                {
                    "name": "G#5",
                    "midi": 80,
                    "time": 67.17362200000035,
                    "velocity": 0.36220472440944884,
                    "duration": 0.06817350000000033
                },
                {
                    "name": "G#4",
                    "midi": 68,
                    "time": 67.35541800000036,
                    "velocity": 0.4015748031496063,
                    "duration": 0.06817350000000033
                },
                {
                    "name": "D#4",
                    "midi": 63,
                    "time": 67.44631600000035,
                    "velocity": 0.3543307086614173,
                    "duration": 0.06817350000000033
                },
                {
                    "name": "G#3",
                    "midi": 56,
                    "time": 67.53721400000035,
                    "velocity": 0.31496062992125984,
                    "duration": 0.06817350000000033
                },
                {
                    "name": "E4",
                    "midi": 64,
                    "time": 67.71901000000035,
                    "velocity": 0.33858267716535434,
                    "duration": 0.06817350000000033
                },
                {
                    "name": "G#4",
                    "midi": 68,
                    "time": 67.80990800000035,
                    "velocity": 0.33858267716535434,
                    "duration": 0.06817350000000033
                },
                {
                    "name": "E5",
                    "midi": 76,
                    "time": 67.90080600000034,
                    "velocity": 0.30708661417322836,
                    "duration": 0.06817350000000033
                },
                {
                    "name": "C#5",
                    "midi": 73,
                    "time": 67.90080600000034,
                    "velocity": 0.30708661417322836,
                    "duration": 0.06817350000000033
                },
                {
                    "name": "G#4",
                    "midi": 68,
                    "time": 68.08260200000035,
                    "velocity": 0.33858267716535434,
                    "duration": 0.06817350000000033
                },
                {
                    "name": "E4",
                    "midi": 64,
                    "time": 68.17350000000035,
                    "velocity": 0.29133858267716534,
                    "duration": 0.06817350000000033
                },
                {
                    "name": "C#4",
                    "midi": 61,
                    "time": 68.26439800000034,
                    "velocity": 0.25984251968503935,
                    "duration": 0.06817350000000033
                },
                {
                    "name": "D#4",
                    "midi": 63,
                    "time": 68.44619400000035,
                    "velocity": 0.33858267716535434,
                    "duration": 0.06817350000000033
                },
                {
                    "name": "G#4",
                    "midi": 68,
                    "time": 68.53709200000034,
                    "velocity": 0.33858267716535434,
                    "duration": 0.06817350000000033
                },
                {
                    "name": "D#5",
                    "midi": 75,
                    "time": 68.62799000000034,
                    "velocity": 0.30708661417322836,
                    "duration": 0.06817350000000033
                },
                {
                    "name": "F#5",
                    "midi": 78,
                    "time": 68.62799000000034,
                    "velocity": 0.30708661417322836,
                    "duration": 0.06817350000000033
                },
                {
                    "name": "G#4",
                    "midi": 68,
                    "time": 68.80978600000034,
                    "velocity": 0.33858267716535434,
                    "duration": 0.06817350000000033
                },
                {
                    "name": "D#4",
                    "midi": 63,
                    "time": 68.90068400000034,
                    "velocity": 0.30708661417322836,
                    "duration": 0.06817350000000033
                },
                {
                    "name": "C4",
                    "midi": 60,
                    "time": 68.99158200000034,
                    "velocity": 0.29133858267716534,
                    "duration": 0.06817350000000033
                },
                {
                    "name": "E4",
                    "midi": 64,
                    "time": 69.17337800000034,
                    "velocity": 0.33858267716535434,
                    "duration": 0.06817350000000033
                },
                {
                    "name": "G#4",
                    "midi": 68,
                    "time": 69.26427600000034,
                    "velocity": 0.33858267716535434,
                    "duration": 0.06817350000000033
                },
                {
                    "name": "E5",
                    "midi": 76,
                    "time": 69.35517400000033,
                    "velocity": 0.2992125984251969,
                    "duration": 0.06817350000000033
                },
                {
                    "name": "C#5",
                    "midi": 73,
                    "time": 69.35517400000033,
                    "velocity": 0.2992125984251969,
                    "duration": 0.06817350000000033
                },
                {
                    "name": "G#4",
                    "midi": 68,
                    "time": 69.53697000000034,
                    "velocity": 0.33858267716535434,
                    "duration": 0.06817350000000033
                },
                {
                    "name": "E4",
                    "midi": 64,
                    "time": 69.62786800000033,
                    "velocity": 0.2992125984251969,
                    "duration": 0.06817350000000033
                },
                {
                    "name": "C#4",
                    "midi": 61,
                    "time": 69.71876600000033,
                    "velocity": 0.2755905511811024,
                    "duration": 0.06817350000000033
                },
                {
                    "name": "D#4",
                    "midi": 63,
                    "time": 69.90056200000033,
                    "velocity": 0.33858267716535434,
                    "duration": 0.06817350000000033
                },
                {
                    "name": "G#4",
                    "midi": 68,
                    "time": 69.99146000000033,
                    "velocity": 0.33858267716535434,
                    "duration": 0.06817350000000033
                },
                {
                    "name": "C5",
                    "midi": 72,
                    "time": 70.08235800000033,
                    "velocity": 0.31496062992125984,
                    "duration": 0.06817350000000033
                },
                {
                    "name": "G#5",
                    "midi": 80,
                    "time": 70.08235800000033,
                    "velocity": 0.31496062992125984,
                    "duration": 0.06817350000000033
                },
                {
                    "name": "G#4",
                    "midi": 68,
                    "time": 70.26415400000033,
                    "velocity": 0.33858267716535434,
                    "duration": 0.06817350000000033
                },
                {
                    "name": "D#4",
                    "midi": 63,
                    "time": 70.35505200000033,
                    "velocity": 0.30708661417322836,
                    "duration": 0.06817350000000033
                },
                {
                    "name": "G#3",
                    "midi": 56,
                    "time": 70.44595000000032,
                    "velocity": 0.2755905511811024,
                    "duration": 0.06817350000000033
                },
                {
                    "name": "E4",
                    "midi": 64,
                    "time": 70.62774600000033,
                    "velocity": 0.33858267716535434,
                    "duration": 0.06817350000000033
                },
                {
                    "name": "G#4",
                    "midi": 68,
                    "time": 70.71864400000032,
                    "velocity": 0.33858267716535434,
                    "duration": 0.06817350000000033
                },
                {
                    "name": "E5",
                    "midi": 76,
                    "time": 70.80954200000032,
                    "velocity": 0.3228346456692913,
                    "duration": 0.06817350000000033
                },
                {
                    "name": "C#5",
                    "midi": 73,
                    "time": 70.80954200000032,
                    "velocity": 0.3228346456692913,
                    "duration": 0.06817350000000033
                },
                {
                    "name": "G#4",
                    "midi": 68,
                    "time": 70.99133800000033,
                    "velocity": 0.3543307086614173,
                    "duration": 0.06817350000000033
                },
                {
                    "name": "E4",
                    "midi": 64,
                    "time": 71.08223600000032,
                    "velocity": 0.33070866141732286,
                    "duration": 0.06817350000000033
                },
                {
                    "name": "C#4",
                    "midi": 61,
                    "time": 71.17313400000032,
                    "velocity": 0.3228346456692913,
                    "duration": 0.06817350000000033
                },
                {
                    "name": "E4",
                    "midi": 64,
                    "time": 71.35493000000032,
                    "velocity": 0.3779527559055118,
                    "duration": 0.06817350000000033
                },
                {
                    "name": "G#4",
                    "midi": 68,
                    "time": 71.44582800000032,
                    "velocity": 0.3858267716535433,
                    "duration": 0.06817350000000033
                },
                {
                    "name": "E5",
                    "midi": 76,
                    "time": 71.53672600000031,
                    "velocity": 0.3937007874015748,
                    "duration": 0.06817350000000033
                },
                {
                    "name": "D5",
                    "midi": 74,
                    "time": 71.53672600000031,
                    "velocity": 0.3228346456692913,
                    "duration": 0.06817350000000033
                },
                {
                    "name": "G#4",
                    "midi": 68,
                    "time": 71.71852200000032,
                    "velocity": 0.4094488188976378,
                    "duration": 0.06817350000000033
                },
                {
                    "name": "E4",
                    "midi": 64,
                    "time": 71.80942000000032,
                    "velocity": 0.3937007874015748,
                    "duration": 0.06817350000000033
                },
                {
                    "name": "B3",
                    "midi": 59,
                    "time": 71.90031800000031,
                    "velocity": 0.36220472440944884,
                    "duration": 0.06817350000000033
                },
                {
                    "name": "E4",
                    "midi": 64,
                    "time": 72.08211400000032,
                    "velocity": 0.4409448818897638,
                    "duration": 0.06817350000000033
                },
                {
                    "name": "A4",
                    "midi": 69,
                    "time": 72.17301200000031,
                    "velocity": 0.4409448818897638,
                    "duration": 0.06817350000000033
                },
                {
                    "name": "C#5",
                    "midi": 73,
                    "time": 72.26391000000031,
                    "velocity": 0.3700787401574803,
                    "duration": 0.06817350000000033
                },
                {
                    "name": "A5",
                    "midi": 81,
                    "time": 72.26391000000031,
                    "velocity": 0.44881889763779526,
                    "duration": 0.06817350000000033
                },
                {
                    "name": "A4",
                    "midi": 69,
                    "time": 72.44570600000031,
                    "velocity": 0.4645669291338583,
                    "duration": 0.06817350000000033
                },
                {
                    "name": "E4",
                    "midi": 64,
                    "time": 72.53660400000031,
                    "velocity": 0.4330708661417323,
                    "duration": 0.06817350000000033
                },
                {
                    "name": "A3",
                    "midi": 57,
                    "time": 72.6275020000003,
                    "velocity": 0.3937007874015748,
                    "duration": 0.06817350000000033
                },
                {
                    "name": "G4",
                    "midi": 67,
                    "time": 72.80929800000031,
                    "velocity": 0.4881889763779528,
                    "duration": 0.06817350000000033
                },
                {
                    "name": "C#5",
                    "midi": 73,
                    "time": 72.9001960000003,
                    "velocity": 0.49606299212598426,
                    "duration": 0.06817350000000033
                },
                {
                    "name": "C#6",
                    "midi": 85,
                    "time": 72.9910940000003,
                    "velocity": 0.5039370078740157,
                    "duration": 0.06817350000000033
                },
                {
                    "name": "E5",
                    "midi": 76,
                    "time": 72.9910940000003,
                    "velocity": 0.4251968503937008,
                    "duration": 0.06817350000000033
                },
                {
                    "name": "C#5",
                    "midi": 73,
                    "time": 73.17289000000031,
                    "velocity": 0.5275590551181102,
                    "duration": 0.06817350000000033
                },
                {
                    "name": "G4",
                    "midi": 67,
                    "time": 73.2637880000003,
                    "velocity": 0.4881889763779528,
                    "duration": 0.06817350000000033
                },
                {
                    "name": "A#3",
                    "midi": 58,
                    "time": 73.3546860000003,
                    "velocity": 0.4566929133858268,
                    "duration": 0.06817350000000033
                },
                {
                    "name": "G#4",
                    "midi": 68,
                    "time": 76.4452180000003,
                    "velocity": 0.4015748031496063,
                    "duration": 0.06817350000000033
                },
                {
                    "name": "B4",
                    "midi": 71,
                    "time": 76.53611600000029,
                    "velocity": 0.4015748031496063,
                    "duration": 0.06817350000000033
                },
                {
                    "name": "E5",
                    "midi": 76,
                    "time": 76.62701400000029,
                    "velocity": 0.3779527559055118,
                    "duration": 0.06817350000000033
                },
                {
                    "name": "B4",
                    "midi": 71,
                    "time": 76.80881000000029,
                    "velocity": 0.4015748031496063,
                    "duration": 0.06817350000000033
                },
                {
                    "name": "G#4",
                    "midi": 68,
                    "time": 76.89970800000029,
                    "velocity": 0.3779527559055118,
                    "duration": 0.06817350000000033
                },
                {
                    "name": "E4",
                    "midi": 64,
                    "time": 76.99060600000028,
                    "velocity": 0.33070866141732286,
                    "duration": 0.06817350000000033
                },
                {
                    "name": "A4",
                    "midi": 69,
                    "time": 77.17240200000029,
                    "velocity": 0.4015748031496063,
                    "duration": 0.06817350000000033
                },
                {
                    "name": "C5",
                    "midi": 72,
                    "time": 77.26330000000029,
                    "velocity": 0.4015748031496063,
                    "duration": 0.06817350000000033
                },
                {
                    "name": "E5",
                    "midi": 76,
                    "time": 77.35419800000028,
                    "velocity": 0.36220472440944884,
                    "duration": 0.06817350000000033
                },
                {
                    "name": "C5",
                    "midi": 72,
                    "time": 77.53599400000029,
                    "velocity": 0.4015748031496063,
                    "duration": 0.06817350000000033
                },
                {
                    "name": "A4",
                    "midi": 69,
                    "time": 77.62689200000028,
                    "velocity": 0.3464566929133858,
                    "duration": 0.06817350000000033
                },
                {
                    "name": "E4",
                    "midi": 64,
                    "time": 77.71779000000028,
                    "velocity": 0.33070866141732286,
                    "duration": 0.06817350000000033
                },
                {
                    "name": "G4",
                    "midi": 67,
                    "time": 77.89958600000028,
                    "velocity": 0.4015748031496063,
                    "duration": 0.06817350000000033
                },
                {
                    "name": "A#4",
                    "midi": 70,
                    "time": 77.99048400000028,
                    "velocity": 0.4015748031496063,
                    "duration": 0.06817350000000033
                },
                {
                    "name": "E5",
                    "midi": 76,
                    "time": 78.08138200000027,
                    "velocity": 0.3779527559055118,
                    "duration": 0.06817350000000033
                },
                {
                    "name": "A#4",
                    "midi": 70,
                    "time": 78.26317800000028,
                    "velocity": 0.4015748031496063,
                    "duration": 0.06817350000000033
                },
                {
                    "name": "G4",
                    "midi": 67,
                    "time": 78.35407600000028,
                    "velocity": 0.3779527559055118,
                    "duration": 0.06817350000000033
                },
                {
                    "name": "E4",
                    "midi": 64,
                    "time": 78.44497400000027,
                    "velocity": 0.3464566929133858,
                    "duration": 0.06817350000000033
                },
                {
                    "name": "G#4",
                    "midi": 68,
                    "time": 78.62677000000028,
                    "velocity": 0.4015748031496063,
                    "duration": 0.06817350000000033
                },
                {
                    "name": "B4",
                    "midi": 71,
                    "time": 78.71766800000027,
                    "velocity": 0.4015748031496063,
                    "duration": 0.06817350000000033
                },
                {
                    "name": "E5",
                    "midi": 76,
                    "time": 78.80856600000027,
                    "velocity": 0.3779527559055118,
                    "duration": 0.06817350000000033
                },
                {
                    "name": "B5",
                    "midi": 83,
                    "time": 78.89946400000026,
                    "velocity": 0.5748031496062992,
                    "duration": 0.04544900000000496
                },
                {
                    "name": "G#5",
                    "midi": 80,
                    "time": 78.89946400000026,
                    "velocity": 0.5039370078740157,
                    "duration": 0.04544900000000496
                },
                {
                    "name": "A5",
                    "midi": 81,
                    "time": 79.0206613333336,
                    "velocity": 0.5118110236220472,
                    "duration": 0.04544900000000496
                },
                {
                    "name": "F#5",
                    "midi": 78,
                    "time": 79.0206613333336,
                    "velocity": 0.44881889763779526,
                    "duration": 0.04544900000000496
                },
                {
                    "name": "G#5",
                    "midi": 80,
                    "time": 79.14185866666695,
                    "velocity": 0.5196850393700787,
                    "duration": 0.04544900000000496
                },
                {
                    "name": "E5",
                    "midi": 76,
                    "time": 79.14185866666695,
                    "velocity": 0.4566929133858268,
                    "duration": 0.04544900000000496
                },
                {
                    "name": "A5",
                    "midi": 81,
                    "time": 79.26305600000029,
                    "velocity": 0.5196850393700787,
                    "duration": 0.04544900000000496
                },
                {
                    "name": "C#6",
                    "midi": 85,
                    "time": 79.26305600000029,
                    "velocity": 0.5905511811023622,
                    "duration": 0.04544900000000496
                },
                {
                    "name": "B5",
                    "midi": 83,
                    "time": 79.38425333333363,
                    "velocity": 0.5196850393700787,
                    "duration": 0.04544900000000496
                },
                {
                    "name": "G#5",
                    "midi": 80,
                    "time": 79.38425333333363,
                    "velocity": 0.4566929133858268,
                    "duration": 0.04544900000000496
                },
                {
                    "name": "F#5",
                    "midi": 78,
                    "time": 79.50545066666697,
                    "velocity": 0.4566929133858268,
                    "duration": 0.04544900000000496
                },
                {
                    "name": "A5",
                    "midi": 81,
                    "time": 79.50545066666697,
                    "velocity": 0.5196850393700787,
                    "duration": 0.04544900000000496
                },
                {
                    "name": "E5",
                    "midi": 76,
                    "time": 79.62664800000032,
                    "velocity": 0.5196850393700787,
                    "duration": 0.04544900000000496
                },
                {
                    "name": "G#5",
                    "midi": 80,
                    "time": 79.62664800000032,
                    "velocity": 0.5905511811023622,
                    "duration": 0.04544900000000496
                },
                {
                    "name": "D#5",
                    "midi": 75,
                    "time": 79.74784533333366,
                    "velocity": 0.44881889763779526,
                    "duration": 0.04544900000000496
                },
                {
                    "name": "F#5",
                    "midi": 78,
                    "time": 79.74784533333366,
                    "velocity": 0.5118110236220472,
                    "duration": 0.04544900000000496
                },
                {
                    "name": "C#5",
                    "midi": 73,
                    "time": 79.869042666667,
                    "velocity": 0.44881889763779526,
                    "duration": 0.04544900000000496
                },
                {
                    "name": "E5",
                    "midi": 76,
                    "time": 79.869042666667,
                    "velocity": 0.5118110236220472,
                    "duration": 0.04544900000000496
                },
                {
                    "name": "G#4",
                    "midi": 68,
                    "time": 80.08113800000034,
                    "velocity": 0.44881889763779526,
                    "duration": 0.06817350000000033
                },
                {
                    "name": "E5",
                    "midi": 76,
                    "time": 80.17203600000033,
                    "velocity": 0.44881889763779526,
                    "duration": 0.06817350000000033
                },
                {
                    "name": "B5",
                    "midi": 83,
                    "time": 80.26293400000033,
                    "velocity": 0.41732283464566927,
                    "duration": 0.06817350000000033
                },
                {
                    "name": "B5",
                    "midi": 83,
                    "time": 80.35383200000032,
                    "velocity": 0.5118110236220472,
                    "duration": 0.06817350000000033
                },
                {
                    "name": "E5",
                    "midi": 76,
                    "time": 80.44473000000032,
                    "velocity": 0.4409448818897638,
                    "duration": 0.06817350000000033
                },
                {
                    "name": "G#4",
                    "midi": 68,
                    "time": 80.53562800000032,
                    "velocity": 0.3779527559055118,
                    "duration": 0.06817350000000033
                },
                {
                    "name": "B3",
                    "midi": 59,
                    "time": 80.62652600000031,
                    "velocity": 0.3543307086614173,
                    "duration": 0.06817350000000033
                },
                {
                    "name": "F#4",
                    "midi": 66,
                    "time": 80.80832200000032,
                    "velocity": 0.4251968503937008,
                    "duration": 0.06817350000000033
                },
                {
                    "name": "D#5",
                    "midi": 75,
                    "time": 80.89922000000031,
                    "velocity": 0.4251968503937008,
                    "duration": 0.06817350000000033
                },
                {
                    "name": "B5",
                    "midi": 83,
                    "time": 80.99011800000031,
                    "velocity": 0.3937007874015748,
                    "duration": 0.06817350000000033
                },
                {
                    "name": "B5",
                    "midi": 83,
                    "time": 81.0810160000003,
                    "velocity": 0.47244094488188976,
                    "duration": 0.06817350000000033
                },
                {
                    "name": "D#5",
                    "midi": 75,
                    "time": 81.1719140000003,
                    "velocity": 0.4251968503937008,
                    "duration": 0.06817350000000033
                },
                {
                    "name": "F#4",
                    "midi": 66,
                    "time": 81.2628120000003,
                    "velocity": 0.3858267716535433,
                    "duration": 0.06817350000000033
                },
                {
                    "name": "B3",
                    "midi": 59,
                    "time": 81.35371000000029,
                    "velocity": 0.36220472440944884,
                    "duration": 0.06817350000000033
                },
                {
                    "name": "G#4",
                    "midi": 68,
                    "time": 81.5355060000003,
                    "velocity": 0.41732283464566927,
                    "duration": 0.06817350000000033
                },
                {
                    "name": "E5",
                    "midi": 76,
                    "time": 81.62640400000029,
                    "velocity": 0.41732283464566927,
                    "duration": 0.06817350000000033
                },
                {
                    "name": "B5",
                    "midi": 83,
                    "time": 81.71730200000029,
                    "velocity": 0.4094488188976378,
                    "duration": 0.06817350000000033
                },
                {
                    "name": "B4",
                    "midi": 71,
                    "time": 82.26269000000029,
                    "velocity": 0.4015748031496063,
                    "duration": 0.06817350000000033
                },
                {
                    "name": "G#4",
                    "midi": 68,
                    "time": 82.26269000000029,
                    "velocity": 0.33858267716535434,
                    "duration": 0.06817350000000033
                },
                {
                    "name": "E5",
                    "midi": 76,
                    "time": 82.35358800000029,
                    "velocity": 0.3937007874015748,
                    "duration": 0.06817350000000033
                },
                {
                    "name": "G#5",
                    "midi": 80,
                    "time": 82.44448600000028,
                    "velocity": 0.33070866141732286,
                    "duration": 0.06817350000000033
                },
                {
                    "name": "E6",
                    "midi": 88,
                    "time": 82.44448600000028,
                    "velocity": 0.3937007874015748,
                    "duration": 0.06817350000000033
                },
                {
                    "name": "G#5",
                    "midi": 80,
                    "time": 82.53538400000028,
                    "velocity": 0.3543307086614173,
                    "duration": 0.06817350000000033
                },
                {
                    "name": "E6",
                    "midi": 88,
                    "time": 82.53538400000028,
                    "velocity": 0.4251968503937008,
                    "duration": 0.06817350000000033
                },
                {
                    "name": "E5",
                    "midi": 76,
                    "time": 82.62628200000027,
                    "velocity": 0.3779527559055118,
                    "duration": 0.06817350000000033
                },
                {
                    "name": "G#4",
                    "midi": 68,
                    "time": 82.71718000000027,
                    "velocity": 0.31496062992125984,
                    "duration": 0.06817350000000033
                },
                {
                    "name": "B4",
                    "midi": 71,
                    "time": 82.71718000000027,
                    "velocity": 0.3779527559055118,
                    "duration": 0.06817350000000033
                },
                {
                    "name": "E4",
                    "midi": 64,
                    "time": 82.80807800000026,
                    "velocity": 0.33070866141732286,
                    "duration": 0.06817350000000033
                },
                {
                    "name": "C5",
                    "midi": 72,
                    "time": 82.98987400000027,
                    "velocity": 0.4015748031496063,
                    "duration": 0.06817350000000033
                },
                {
                    "name": "A4",
                    "midi": 69,
                    "time": 82.98987400000027,
                    "velocity": 0.33858267716535434,
                    "duration": 0.06817350000000033
                },
                {
                    "name": "E5",
                    "midi": 76,
                    "time": 83.08077200000027,
                    "velocity": 0.3937007874015748,
                    "duration": 0.06817350000000033
                },
                {
                    "name": "A5",
                    "midi": 81,
                    "time": 83.17167000000026,
                    "velocity": 0.33070866141732286,
                    "duration": 0.06817350000000033
                },
                {
                    "name": "E6",
                    "midi": 88,
                    "time": 83.17167000000026,
                    "velocity": 0.3937007874015748,
                    "duration": 0.06817350000000033
                },
                {
                    "name": "A5",
                    "midi": 81,
                    "time": 83.26256800000026,
                    "velocity": 0.3543307086614173,
                    "duration": 0.06817350000000033
                },
                {
                    "name": "E6",
                    "midi": 88,
                    "time": 83.26256800000026,
                    "velocity": 0.4251968503937008,
                    "duration": 0.06817350000000033
                },
                {
                    "name": "E5",
                    "midi": 76,
                    "time": 83.35346600000025,
                    "velocity": 0.3779527559055118,
                    "duration": 0.06817350000000033
                },
                {
                    "name": "C5",
                    "midi": 72,
                    "time": 83.44436400000025,
                    "velocity": 0.3543307086614173,
                    "duration": 0.06817350000000033
                },
                {
                    "name": "A4",
                    "midi": 69,
                    "time": 83.44436400000025,
                    "velocity": 0.3543307086614173,
                    "duration": 0.06817350000000033
                },
                {
                    "name": "E4",
                    "midi": 64,
                    "time": 83.53526200000024,
                    "velocity": 0.31496062992125984,
                    "duration": 0.06817350000000033
                },
                {
                    "name": "A#4",
                    "midi": 70,
                    "time": 83.71705800000025,
                    "velocity": 0.4094488188976378,
                    "duration": 0.06817350000000033
                },
                {
                    "name": "G4",
                    "midi": 67,
                    "time": 83.71705800000025,
                    "velocity": 0.33858267716535434,
                    "duration": 0.06817350000000033
                },
                {
                    "name": "E5",
                    "midi": 76,
                    "time": 83.80795600000025,
                    "velocity": 0.4094488188976378,
                    "duration": 0.06817350000000033
                },
                {
                    "name": "G5",
                    "midi": 79,
                    "time": 83.89885400000024,
                    "velocity": 0.3543307086614173,
                    "duration": 0.06817350000000033
                },
                {
                    "name": "E6",
                    "midi": 88,
                    "time": 83.89885400000024,
                    "velocity": 0.41732283464566927,
                    "duration": 0.06817350000000033
                },
                {
                    "name": "G5",
                    "midi": 79,
                    "time": 83.98975200000024,
                    "velocity": 0.3937007874015748,
                    "duration": 0.06817350000000033
                },
                {
                    "name": "E6",
                    "midi": 88,
                    "time": 83.98975200000024,
                    "velocity": 0.4645669291338583,
                    "duration": 0.06817350000000033
                },
                {
                    "name": "E5",
                    "midi": 76,
                    "time": 84.08065000000023,
                    "velocity": 0.4251968503937008,
                    "duration": 0.06817350000000033
                },
                {
                    "name": "A#4",
                    "midi": 70,
                    "time": 84.17154800000023,
                    "velocity": 0.3700787401574803,
                    "duration": 0.06817350000000033
                },
                {
                    "name": "G4",
                    "midi": 67,
                    "time": 84.17154800000023,
                    "velocity": 0.3700787401574803,
                    "duration": 0.06817350000000033
                },
                {
                    "name": "E4",
                    "midi": 64,
                    "time": 84.26244600000022,
                    "velocity": 0.3228346456692913,
                    "duration": 0.06817350000000033
                },
                {
                    "name": "B4",
                    "midi": 71,
                    "time": 84.44424200000023,
                    "velocity": 0.48031496062992124,
                    "duration": 0.06817350000000033
                },
                {
                    "name": "G#4",
                    "midi": 68,
                    "time": 84.44424200000023,
                    "velocity": 0.48031496062992124,
                    "duration": 0.06817350000000033
                },
                {
                    "name": "E5",
                    "midi": 76,
                    "time": 84.53514000000023,
                    "velocity": 0.48031496062992124,
                    "duration": 0.06817350000000033
                },
                {
                    "name": "E6",
                    "midi": 88,
                    "time": 84.62603800000022,
                    "velocity": 0.48031496062992124,
                    "duration": 0.06817350000000033
                },
                {
                    "name": "G#5",
                    "midi": 80,
                    "time": 84.62603800000022,
                    "velocity": 0.48031496062992124,
                    "duration": 0.06817350000000033
                },
                {
                    "name": "G#4",
                    "midi": 68,
                    "time": 84.71693600000022,
                    "velocity": 0.5748031496062992,
                    "duration": 0.04544900000000496
                },
                {
                    "name": "E4",
                    "midi": 64,
                    "time": 84.71693600000022,
                    "velocity": 0.5039370078740157,
                    "duration": 0.04544900000000496
                },
                {
                    "name": "A4",
                    "midi": 69,
                    "time": 84.83813333333356,
                    "velocity": 0.5196850393700787,
                    "duration": 0.04544900000000496
                },
                {
                    "name": "F#4",
                    "midi": 66,
                    "time": 84.83813333333356,
                    "velocity": 0.4566929133858268,
                    "duration": 0.04544900000000496
                },
                {
                    "name": "B4",
                    "midi": 71,
                    "time": 84.9593306666669,
                    "velocity": 0.5354330708661418,
                    "duration": 0.04544900000000496
                },
                {
                    "name": "G#4",
                    "midi": 68,
                    "time": 84.9593306666669,
                    "velocity": 0.47244094488188976,
                    "duration": 0.04544900000000496
                },
                {
                    "name": "A4",
                    "midi": 69,
                    "time": 85.08052800000024,
                    "velocity": 0.5433070866141733,
                    "duration": 0.04544900000000496
                },
                {
                    "name": "C#5",
                    "midi": 73,
                    "time": 85.08052800000024,
                    "velocity": 0.6220472440944882,
                    "duration": 0.04544900000000496
                },
                {
                    "name": "D#5",
                    "midi": 75,
                    "time": 85.20172533333358,
                    "velocity": 0.5590551181102362,
                    "duration": 0.04544900000000496
                },
                {
                    "name": "B4",
                    "midi": 71,
                    "time": 85.20172533333358,
                    "velocity": 0.4881889763779528,
                    "duration": 0.04544900000000496
                },
                {
                    "name": "C#5",
                    "midi": 73,
                    "time": 85.32292266666693,
                    "velocity": 0.5039370078740157,
                    "duration": 0.04544900000000496
                },
                {
                    "name": "E5",
                    "midi": 76,
                    "time": 85.32292266666693,
                    "velocity": 0.5748031496062992,
                    "duration": 0.04544900000000496
                },
                {
                    "name": "D#5",
                    "midi": 75,
                    "time": 85.44412000000027,
                    "velocity": 0.5590551181102362,
                    "duration": 0.04544900000000496
                },
                {
                    "name": "F#5",
                    "midi": 78,
                    "time": 85.44412000000027,
                    "velocity": 0.6377952755905512,
                    "duration": 0.04544900000000496
                },
                {
                    "name": "E5",
                    "midi": 76,
                    "time": 85.56531733333361,
                    "velocity": 0.5118110236220472,
                    "duration": 0.04544900000000496
                },
                {
                    "name": "G#5",
                    "midi": 80,
                    "time": 85.56531733333361,
                    "velocity": 0.5826771653543307,
                    "duration": 0.04544900000000496
                },
                {
                    "name": "F#5",
                    "midi": 78,
                    "time": 85.68651466666695,
                    "velocity": 0.5196850393700787,
                    "duration": 0.04544900000000496
                },
                {
                    "name": "A5",
                    "midi": 81,
                    "time": 85.68651466666695,
                    "velocity": 0.5984251968503937,
                    "duration": 0.04544900000000496
                },
                {
                    "name": "B4",
                    "midi": 71,
                    "time": 85.89861000000029,
                    "velocity": 0.4409448818897638,
                    "duration": 0.06817350000000033
                },
                {
                    "name": "G#4",
                    "midi": 68,
                    "time": 85.89861000000029,
                    "velocity": 0.3700787401574803,
                    "duration": 0.06817350000000033
                },
                {
                    "name": "E5",
                    "midi": 76,
                    "time": 85.98950800000028,
                    "velocity": 0.4409448818897638,
                    "duration": 0.06817350000000033
                },
                {
                    "name": "E6",
                    "midi": 88,
                    "time": 86.08040600000028,
                    "velocity": 0.3937007874015748,
                    "duration": 0.06817350000000033
                },
                {
                    "name": "G#5",
                    "midi": 80,
                    "time": 86.08040600000028,
                    "velocity": 0.3937007874015748,
                    "duration": 0.06817350000000033
                },
                {
                    "name": "G#5",
                    "midi": 80,
                    "time": 86.17130400000028,
                    "velocity": 0.4094488188976378,
                    "duration": 0.06817350000000033
                },
                {
                    "name": "E6",
                    "midi": 88,
                    "time": 86.17130400000028,
                    "velocity": 0.4881889763779528,
                    "duration": 0.06817350000000033
                },
                {
                    "name": "E5",
                    "midi": 76,
                    "time": 86.26220200000027,
                    "velocity": 0.4409448818897638,
                    "duration": 0.06817350000000033
                },
                {
                    "name": "B4",
                    "midi": 71,
                    "time": 86.35310000000027,
                    "velocity": 0.3858267716535433,
                    "duration": 0.06817350000000033
                },
                {
                    "name": "G#4",
                    "midi": 68,
                    "time": 86.35310000000027,
                    "velocity": 0.3858267716535433,
                    "duration": 0.06817350000000033
                },
                {
                    "name": "B3",
                    "midi": 59,
                    "time": 86.44399800000026,
                    "velocity": 0.3464566929133858,
                    "duration": 0.06817350000000033
                },
                {
                    "name": "B4",
                    "midi": 71,
                    "time": 86.62579400000027,
                    "velocity": 0.4409448818897638,
                    "duration": 0.06817350000000033
                },
                {
                    "name": "F#4",
                    "midi": 66,
                    "time": 86.62579400000027,
                    "velocity": 0.3700787401574803,
                    "duration": 0.06817350000000033
                },
                {
                    "name": "D#5",
                    "midi": 75,
                    "time": 86.71669200000026,
                    "velocity": 0.4409448818897638,
                    "duration": 0.06817350000000033
                },
                {
                    "name": "D#6",
                    "midi": 87,
                    "time": 86.80759000000026,
                    "velocity": 0.4015748031496063,
                    "duration": 0.06817350000000033
                },
                {
                    "name": "F#5",
                    "midi": 78,
                    "time": 86.80759000000026,
                    "velocity": 0.4015748031496063,
                    "duration": 0.06817350000000033
                },
                {
                    "name": "F#5",
                    "midi": 78,
                    "time": 86.89848800000026,
                    "velocity": 0.41732283464566927,
                    "duration": 0.06817350000000033
                },
                {
                    "name": "D#6",
                    "midi": 87,
                    "time": 86.89848800000026,
                    "velocity": 0.49606299212598426,
                    "duration": 0.06817350000000033
                },
                {
                    "name": "D#5",
                    "midi": 75,
                    "time": 86.98938600000025,
                    "velocity": 0.44881889763779526,
                    "duration": 0.06817350000000033
                },
                {
                    "name": "B4",
                    "midi": 71,
                    "time": 87.08028400000025,
                    "velocity": 0.3937007874015748,
                    "duration": 0.06817350000000033
                },
                {
                    "name": "F#4",
                    "midi": 66,
                    "time": 87.08028400000025,
                    "velocity": 0.3937007874015748,
                    "duration": 0.06817350000000033
                },
                {
                    "name": "B3",
                    "midi": 59,
                    "time": 87.17118200000024,
                    "velocity": 0.33858267716535434,
                    "duration": 0.06817350000000033
                },
                {
                    "name": "B4",
                    "midi": 71,
                    "time": 87.35297800000025,
                    "velocity": 0.3700787401574803,
                    "duration": 0.06817350000000033
                },
                {
                    "name": "E5",
                    "midi": 76,
                    "time": 87.35297800000025,
                    "velocity": 0.4409448818897638,
                    "duration": 0.06817350000000033
                },
                {
                    "name": "G#4",
                    "midi": 68,
                    "time": 87.35297800000025,
                    "velocity": 0.3700787401574803,
                    "duration": 0.06817350000000033
                },
                {
                    "name": "G#5",
                    "midi": 80,
                    "time": 87.44387600000024,
                    "velocity": 0.4409448818897638,
                    "duration": 0.06817350000000033
                },
                {
                    "name": "E6",
                    "midi": 88,
                    "time": 87.53477400000024,
                    "velocity": 0.4015748031496063,
                    "duration": 0.06817350000000033
                },
                {
                    "name": "B5",
                    "midi": 83,
                    "time": 87.53477400000024,
                    "velocity": 0.4015748031496063,
                    "duration": 0.06817350000000033
                },
                {
                    "name": "G#6",
                    "midi": 92,
                    "time": 87.62567200000024,
                    "velocity": 0.4881889763779528,
                    "duration": 0.06817350000000033
                },
                {
                    "name": "G#5",
                    "midi": 80,
                    "time": 87.71657000000023,
                    "velocity": 0.4409448818897638,
                    "duration": 0.06817350000000033
                },
                {
                    "name": "E5",
                    "midi": 76,
                    "time": 87.80746800000023,
                    "velocity": 0.3779527559055118,
                    "duration": 0.06817350000000033
                },
                {
                    "name": "G#4",
                    "midi": 68,
                    "time": 87.80746800000023,
                    "velocity": 0.3779527559055118,
                    "duration": 0.06817350000000033
                },
                {
                    "name": "B4",
                    "midi": 71,
                    "time": 87.80746800000023,
                    "velocity": 0.3779527559055118,
                    "duration": 0.06817350000000033
                },
                {
                    "name": "E4",
                    "midi": 64,
                    "time": 87.89836600000022,
                    "velocity": 0.3543307086614173,
                    "duration": 0.06817350000000033
                },
                {
                    "name": "C5",
                    "midi": 72,
                    "time": 88.08016200000023,
                    "velocity": 0.3700787401574803,
                    "duration": 0.06817350000000033
                },
                {
                    "name": "E5",
                    "midi": 76,
                    "time": 88.08016200000023,
                    "velocity": 0.4409448818897638,
                    "duration": 0.06817350000000033
                },
                {
                    "name": "A4",
                    "midi": 69,
                    "time": 88.08016200000023,
                    "velocity": 0.3700787401574803,
                    "duration": 0.06817350000000033
                },
                {
                    "name": "A5",
                    "midi": 81,
                    "time": 88.17106000000022,
                    "velocity": 0.4409448818897638,
                    "duration": 0.06817350000000033
                },
                {
                    "name": "E6",
                    "midi": 88,
                    "time": 88.26195800000022,
                    "velocity": 0.41732283464566927,
                    "duration": 0.06817350000000033
                },
                {
                    "name": "C6",
                    "midi": 84,
                    "time": 88.26195800000022,
                    "velocity": 0.41732283464566927,
                    "duration": 0.06817350000000033
                },
                {
                    "name": "A6",
                    "midi": 93,
                    "time": 88.35285600000022,
                    "velocity": 0.49606299212598426,
                    "duration": 0.06817350000000033
                },
                {
                    "name": "A5",
                    "midi": 81,
                    "time": 88.44375400000021,
                    "velocity": 0.44881889763779526,
                    "duration": 0.06817350000000033
                },
                {
                    "name": "E5",
                    "midi": 76,
                    "time": 88.53465200000021,
                    "velocity": 0.4015748031496063,
                    "duration": 0.06817350000000033
                },
                {
                    "name": "A4",
                    "midi": 69,
                    "time": 88.53465200000021,
                    "velocity": 0.4015748031496063,
                    "duration": 0.06817350000000033
                },
                {
                    "name": "C5",
                    "midi": 72,
                    "time": 88.53465200000021,
                    "velocity": 0.4015748031496063,
                    "duration": 0.06817350000000033
                },
                {
                    "name": "E4",
                    "midi": 64,
                    "time": 88.6255500000002,
                    "velocity": 0.3700787401574803,
                    "duration": 0.06817350000000033
                },
                {
                    "name": "B4",
                    "midi": 71,
                    "time": 88.80734600000021,
                    "velocity": 0.3700787401574803,
                    "duration": 0.06817350000000033
                },
                {
                    "name": "E5",
                    "midi": 76,
                    "time": 88.80734600000021,
                    "velocity": 0.4409448818897638,
                    "duration": 0.06817350000000033
                },
                {
                    "name": "G#4",
                    "midi": 68,
                    "time": 88.80734600000021,
                    "velocity": 0.3700787401574803,
                    "duration": 0.06817350000000033
                },
                {
                    "name": "G#5",
                    "midi": 80,
                    "time": 88.8982440000002,
                    "velocity": 0.4409448818897638,
                    "duration": 0.06817350000000033
                },
                {
                    "name": "E6",
                    "midi": 88,
                    "time": 88.9891420000002,
                    "velocity": 0.3858267716535433,
                    "duration": 0.06817350000000033
                },
                {
                    "name": "B5",
                    "midi": 83,
                    "time": 88.9891420000002,
                    "velocity": 0.3858267716535433,
                    "duration": 0.06817350000000033
                },
                {
                    "name": "G#6",
                    "midi": 92,
                    "time": 89.0800400000002,
                    "velocity": 0.49606299212598426,
                    "duration": 0.06817350000000033
                },
                {
                    "name": "G#5",
                    "midi": 80,
                    "time": 89.17093800000019,
                    "velocity": 0.4566929133858268,
                    "duration": 0.06817350000000033
                },
                {
                    "name": "E5",
                    "midi": 76,
                    "time": 89.26183600000019,
                    "velocity": 0.41732283464566927,
                    "duration": 0.06817350000000033
                },
                {
                    "name": "G#4",
                    "midi": 68,
                    "time": 89.26183600000019,
                    "velocity": 0.41732283464566927,
                    "duration": 0.06817350000000033
                },
                {
                    "name": "B4",
                    "midi": 71,
                    "time": 89.26183600000019,
                    "velocity": 0.41732283464566927,
                    "duration": 0.06817350000000033
                },
                {
                    "name": "E4",
                    "midi": 64,
                    "time": 89.35273400000018,
                    "velocity": 0.3700787401574803,
                    "duration": 0.06817350000000033
                },
                {
                    "name": "C5",
                    "midi": 72,
                    "time": 89.53453000000019,
                    "velocity": 0.4015748031496063,
                    "duration": 0.06817350000000033
                },
                {
                    "name": "E5",
                    "midi": 76,
                    "time": 89.53453000000019,
                    "velocity": 0.48031496062992124,
                    "duration": 0.06817350000000033
                },
                {
                    "name": "A4",
                    "midi": 69,
                    "time": 89.53453000000019,
                    "velocity": 0.4015748031496063,
                    "duration": 0.06817350000000033
                },
                {
                    "name": "A5",
                    "midi": 81,
                    "time": 89.62542800000018,
                    "velocity": 0.48031496062992124,
                    "duration": 0.06817350000000033
                },
                {
                    "name": "E6",
                    "midi": 88,
                    "time": 89.71632600000018,
                    "velocity": 0.4409448818897638,
                    "duration": 0.06817350000000033
                },
                {
                    "name": "C6",
                    "midi": 84,
                    "time": 89.71632600000018,
                    "velocity": 0.4409448818897638,
                    "duration": 0.06817350000000033
                },
                {
                    "name": "A6",
                    "midi": 93,
                    "time": 89.80722400000018,
                    "velocity": 0.5433070866141733,
                    "duration": 0.06817350000000033
                },
                {
                    "name": "A5",
                    "midi": 81,
                    "time": 89.89812200000017,
                    "velocity": 0.5039370078740157,
                    "duration": 0.06817350000000033
                },
                {
                    "name": "C5",
                    "midi": 72,
                    "time": 89.98902000000017,
                    "velocity": 0.4645669291338583,
                    "duration": 0.06817350000000033
                },
                {
                    "name": "A4",
                    "midi": 69,
                    "time": 89.98902000000017,
                    "velocity": 0.4645669291338583,
                    "duration": 0.06817350000000033
                },
                {
                    "name": "E5",
                    "midi": 76,
                    "time": 89.98902000000017,
                    "velocity": 0.4645669291338583,
                    "duration": 0.06817350000000033
                },
                {
                    "name": "E4",
                    "midi": 64,
                    "time": 90.07991800000016,
                    "velocity": 0.4251968503937008,
                    "duration": 0.06817350000000033
                },
                {
                    "name": "B4",
                    "midi": 71,
                    "time": 90.26171400000017,
                    "velocity": 0.4330708661417323,
                    "duration": 0.06817350000000033
                },
                {
                    "name": "E5",
                    "midi": 76,
                    "time": 90.26171400000017,
                    "velocity": 0.5196850393700787,
                    "duration": 0.06817350000000033
                },
                {
                    "name": "G#4",
                    "midi": 68,
                    "time": 90.26171400000017,
                    "velocity": 0.4330708661417323,
                    "duration": 0.06817350000000033
                },
                {
                    "name": "G#5",
                    "midi": 80,
                    "time": 90.35261200000016,
                    "velocity": 0.5196850393700787,
                    "duration": 0.06817350000000033
                },
                {
                    "name": "B5",
                    "midi": 83,
                    "time": 90.44351000000016,
                    "velocity": 0.4330708661417323,
                    "duration": 0.06817350000000033
                },
                {
                    "name": "E6",
                    "midi": 88,
                    "time": 90.44351000000016,
                    "velocity": 0.5196850393700787,
                    "duration": 0.06817350000000033
                },
                {
                    "name": "G#6",
                    "midi": 92,
                    "time": 90.53440800000016,
                    "velocity": 0.5826771653543307,
                    "duration": 0.06817350000000033
                },
                {
                    "name": "G#5",
                    "midi": 80,
                    "time": 90.62530600000015,
                    "velocity": 0.5354330708661418,
                    "duration": 0.06817350000000033
                },
                {
                    "name": "B4",
                    "midi": 71,
                    "time": 90.71620400000015,
                    "velocity": 0.48031496062992124,
                    "duration": 0.06817350000000033
                },
                {
                    "name": "G#4",
                    "midi": 68,
                    "time": 90.80710200000014,
                    "velocity": 0.41732283464566927,
                    "duration": 0.06817350000000033
                },
                {
                    "name": "E4",
                    "midi": 64,
                    "time": 90.80710200000014,
                    "velocity": 0.41732283464566927,
                    "duration": 0.06817350000000033
                },
                {
                    "name": "G4",
                    "midi": 67,
                    "time": 90.98889800000015,
                    "velocity": 0.4566929133858268,
                    "duration": 0.06817350000000033
                },
                {
                    "name": "A#4",
                    "midi": 70,
                    "time": 90.98889800000015,
                    "velocity": 0.5511811023622047,
                    "duration": 0.06817350000000033
                },
                {
                    "name": "E5",
                    "midi": 76,
                    "time": 91.07979600000014,
                    "velocity": 0.5669291338582677,
                    "duration": 0.06817350000000033
                },
                {
                    "name": "G5",
                    "midi": 79,
                    "time": 91.17069400000014,
                    "velocity": 0.5118110236220472,
                    "duration": 0.06817350000000033
                },
                {
                    "name": "E6",
                    "midi": 88,
                    "time": 91.17069400000014,
                    "velocity": 0.5118110236220472,
                    "duration": 0.06817350000000033
                },
                {
                    "name": "B5",
                    "midi": 83,
                    "time": 91.74638133333347,
                    "velocity": 0.5984251968503937,
                    "duration": 0.04544900000000496
                },
                {
                    "name": "G#5",
                    "midi": 80,
                    "time": 91.74638133333347,
                    "velocity": 0.5039370078740157,
                    "duration": 0.04544900000000496
                },
                {
                    "name": "A5",
                    "midi": 81,
                    "time": 91.86757866666682,
                    "velocity": 0.5905511811023622,
                    "duration": 0.04544900000000496
                },
                {
                    "name": "F#5",
                    "midi": 78,
                    "time": 91.86757866666682,
                    "velocity": 0.49606299212598426,
                    "duration": 0.04544900000000496
                },
                {
                    "name": "G#5",
                    "midi": 80,
                    "time": 91.98877600000016,
                    "velocity": 0.5826771653543307,
                    "duration": 0.04544900000000496
                },
                {
                    "name": "E5",
                    "midi": 76,
                    "time": 91.98877600000016,
                    "velocity": 0.4881889763779528,
                    "duration": 0.04544900000000496
                },
                {
                    "name": "D#5",
                    "midi": 75,
                    "time": 92.1099733333335,
                    "velocity": 0.48031496062992124,
                    "duration": 0.04544900000000496
                },
                {
                    "name": "F#5",
                    "midi": 78,
                    "time": 92.1099733333335,
                    "velocity": 0.5669291338582677,
                    "duration": 0.04544900000000496
                },
                {
                    "name": "C#5",
                    "midi": 73,
                    "time": 92.23117066666684,
                    "velocity": 0.47244094488188976,
                    "duration": 0.04544900000000496
                },
                {
                    "name": "E5",
                    "midi": 76,
                    "time": 92.23117066666684,
                    "velocity": 0.5590551181102362,
                    "duration": 0.04544900000000496
                },
                {
                    "name": "B4",
                    "midi": 71,
                    "time": 92.35236800000018,
                    "velocity": 0.4645669291338583,
                    "duration": 0.04544900000000496
                },
                {
                    "name": "D#5",
                    "midi": 75,
                    "time": 92.35236800000018,
                    "velocity": 0.5511811023622047,
                    "duration": 0.04544900000000496
                },
                {
                    "name": "A4",
                    "midi": 69,
                    "time": 92.47356533333353,
                    "velocity": 0.4566929133858268,
                    "duration": 0.04544900000000496
                },
                {
                    "name": "C#5",
                    "midi": 73,
                    "time": 92.47356533333353,
                    "velocity": 0.5433070866141733,
                    "duration": 0.04544900000000496
                },
                {
                    "name": "G#4",
                    "midi": 68,
                    "time": 92.59476266666687,
                    "velocity": 0.44881889763779526,
                    "duration": 0.04544900000000496
                },
                {
                    "name": "B4",
                    "midi": 71,
                    "time": 92.59476266666687,
                    "velocity": 0.5354330708661418,
                    "duration": 0.04544900000000496
                },
                {
                    "name": "F#4",
                    "midi": 66,
                    "time": 92.71596000000021,
                    "velocity": 0.4409448818897638,
                    "duration": 0.04544900000000496
                },
                {
                    "name": "A4",
                    "midi": 69,
                    "time": 92.71596000000021,
                    "velocity": 0.5275590551181102,
                    "duration": 0.04544900000000496
                },
                {
                    "name": "E4",
                    "midi": 64,
                    "time": 92.83715733333355,
                    "velocity": 0.4330708661417323,
                    "duration": 0.04544900000000496
                },
                {
                    "name": "G#4",
                    "midi": 68,
                    "time": 92.83715733333355,
                    "velocity": 0.5118110236220472,
                    "duration": 0.04544900000000496
                },
                {
                    "name": "D#4",
                    "midi": 63,
                    "time": 92.95835466666689,
                    "velocity": 0.4251968503937008,
                    "duration": 0.04544900000000496
                },
                {
                    "name": "F#4",
                    "midi": 66,
                    "time": 92.95835466666689,
                    "velocity": 0.5039370078740157,
                    "duration": 0.04544900000000496
                },
                {
                    "name": "G#4",
                    "midi": 68,
                    "time": 93.17045000000023,
                    "velocity": 0.4251968503937008,
                    "duration": 0.06817350000000033
                },
                {
                    "name": "B4",
                    "midi": 71,
                    "time": 93.26134800000023,
                    "velocity": 0.41732283464566927,
                    "duration": 0.06817350000000033
                },
                {
                    "name": "E5",
                    "midi": 76,
                    "time": 93.35224600000022,
                    "velocity": 0.3937007874015748,
                    "duration": 0.06817350000000033
                },
                {
                    "name": "G#5",
                    "midi": 80,
                    "time": 93.44314400000022,
                    "velocity": 0.49606299212598426,
                    "duration": 0.06817350000000033
                },
                {
                    "name": "B4",
                    "midi": 71,
                    "time": 93.53404200000021,
                    "velocity": 0.41732283464566927,
                    "duration": 0.06817350000000033
                },
                {
                    "name": "G#4",
                    "midi": 68,
                    "time": 93.62494000000021,
                    "velocity": 0.3779527559055118,
                    "duration": 0.06817350000000033
                },
                {
                    "name": "E4",
                    "midi": 64,
                    "time": 93.7158380000002,
                    "velocity": 0.3543307086614173,
                    "duration": 0.06817350000000033
                },
                {
                    "name": "A4",
                    "midi": 69,
                    "time": 93.89763400000021,
                    "velocity": 0.4251968503937008,
                    "duration": 0.06817350000000033
                },
                {
                    "name": "C5",
                    "midi": 72,
                    "time": 93.9885320000002,
                    "velocity": 0.4251968503937008,
                    "duration": 0.06817350000000033
                },
                {
                    "name": "E5",
                    "midi": 76,
                    "time": 94.0794300000002,
                    "velocity": 0.3543307086614173,
                    "duration": 0.06817350000000033
                },
                {
                    "name": "A5",
                    "midi": 81,
                    "time": 94.1703280000002,
                    "velocity": 0.47244094488188976,
                    "duration": 0.06817350000000033
                },
                {
                    "name": "C5",
                    "midi": 72,
                    "time": 94.26122600000019,
                    "velocity": 0.4251968503937008,
                    "duration": 0.06817350000000033
                },
                {
                    "name": "A4",
                    "midi": 69,
                    "time": 94.35212400000019,
                    "velocity": 0.3937007874015748,
                    "duration": 0.06817350000000033
                },
                {
                    "name": "E4",
                    "midi": 64,
                    "time": 94.44302200000018,
                    "velocity": 0.3228346456692913,
                    "duration": 0.06817350000000033
                },
                {
                    "name": "G#4",
                    "midi": 68,
                    "time": 94.62481800000019,
                    "velocity": 0.4251968503937008,
                    "duration": 0.06817350000000033
                },
                {
                    "name": "B4",
                    "midi": 71,
                    "time": 94.71571600000019,
                    "velocity": 0.4251968503937008,
                    "duration": 0.06817350000000033
                },
                {
                    "name": "E5",
                    "midi": 76,
                    "time": 94.80661400000018,
                    "velocity": 0.36220472440944884,
                    "duration": 0.06817350000000033
                },
                {
                    "name": "G#5",
                    "midi": 80,
                    "time": 94.89751200000018,
                    "velocity": 0.5039370078740157,
                    "duration": 0.06817350000000033
                },
                {
                    "name": "B4",
                    "midi": 71,
                    "time": 94.98841000000017,
                    "velocity": 0.4330708661417323,
                    "duration": 0.06817350000000033
                },
                {
                    "name": "G#4",
                    "midi": 68,
                    "time": 95.07930800000017,
                    "velocity": 0.3858267716535433,
                    "duration": 0.06817350000000033
                },
                {
                    "name": "E4",
                    "midi": 64,
                    "time": 95.17020600000016,
                    "velocity": 0.3228346456692913,
                    "duration": 0.06817350000000033
                },
                {
                    "name": "A4",
                    "midi": 69,
                    "time": 95.35200200000017,
                    "velocity": 0.4409448818897638,
                    "duration": 0.06817350000000033
                },
                {
                    "name": "C5",
                    "midi": 72,
                    "time": 95.44290000000017,
                    "velocity": 0.4409448818897638,
                    "duration": 0.06817350000000033
                },
                {
                    "name": "E5",
                    "midi": 76,
                    "time": 95.53379800000016,
                    "velocity": 0.3858267716535433,
                    "duration": 0.06817350000000033
                },
                {
                    "name": "A5",
                    "midi": 81,
                    "time": 95.62469600000016,
                    "velocity": 0.5118110236220472,
                    "duration": 0.06817350000000033
                },
                {
                    "name": "C5",
                    "midi": 72,
                    "time": 95.71559400000015,
                    "velocity": 0.4566929133858268,
                    "duration": 0.06817350000000033
                },
                {
                    "name": "A4",
                    "midi": 69,
                    "time": 95.80649200000015,
                    "velocity": 0.3858267716535433,
                    "duration": 0.06817350000000033
                },
                {
                    "name": "E4",
                    "midi": 64,
                    "time": 95.89739000000014,
                    "velocity": 0.3700787401574803,
                    "duration": 0.06817350000000033
                },
                {
                    "name": "G#4",
                    "midi": 68,
                    "time": 96.07918600000015,
                    "velocity": 0.48031496062992124,
                    "duration": 0.06817350000000033
                },
                {
                    "name": "B4",
                    "midi": 71,
                    "time": 96.17008400000014,
                    "velocity": 0.48031496062992124,
                    "duration": 0.06817350000000033
                },
                {
                    "name": "E5",
                    "midi": 76,
                    "time": 96.26098200000014,
                    "velocity": 0.4409448818897638,
                    "duration": 0.06817350000000033
                },
                {
                    "name": "G#5",
                    "midi": 80,
                    "time": 96.35188000000014,
                    "velocity": 0.5669291338582677,
                    "duration": 0.06817350000000033
                },
                {
                    "name": "B4",
                    "midi": 71,
                    "time": 96.44277800000013,
                    "velocity": 0.4881889763779528,
                    "duration": 0.06817350000000033
                },
                {
                    "name": "G#4",
                    "midi": 68,
                    "time": 96.53367600000013,
                    "velocity": 0.4566929133858268,
                    "duration": 0.06817350000000033
                },
                {
                    "name": "E4",
                    "midi": 64,
                    "time": 96.62457400000012,
                    "velocity": 0.41732283464566927,
                    "duration": 0.06817350000000033
                },
                {
                    "name": "G4",
                    "midi": 67,
                    "time": 96.80637000000013,
                    "velocity": 0.49606299212598426,
                    "duration": 0.06817350000000033
                },
                {
                    "name": "A#4",
                    "midi": 70,
                    "time": 96.89726800000012,
                    "velocity": 0.48031496062992124,
                    "duration": 0.06817350000000033
                },
                {
                    "name": "E5",
                    "midi": 76,
                    "time": 96.98816600000012,
                    "velocity": 0.5039370078740157,
                    "duration": 0.06817350000000033
                },
                {
                    "name": "B4",
                    "midi": 71,
                    "time": 97.56385333333345,
                    "velocity": 0.5354330708661418,
                    "duration": 0.04544900000000496
                },
                {
                    "name": "E5",
                    "midi": 76,
                    "time": 97.56385333333345,
                    "velocity": 0.5354330708661418,
                    "duration": 0.04544900000000496
                },
                {
                    "name": "G#4",
                    "midi": 68,
                    "time": 97.6850506666668,
                    "velocity": 0.5354330708661418,
                    "duration": 0.04544900000000496
                },
                {
                    "name": "B4",
                    "midi": 71,
                    "time": 97.6850506666668,
                    "velocity": 0.5354330708661418,
                    "duration": 0.04544900000000496
                },
                {
                    "name": "B5",
                    "midi": 83,
                    "time": 97.80624800000014,
                    "velocity": 0.5748031496062992,
                    "duration": 0.04544900000000496
                },
                {
                    "name": "D#4",
                    "midi": 63,
                    "time": 97.92744533333348,
                    "velocity": 0.5196850393700787,
                    "duration": 0.04544900000000496
                },
                {
                    "name": "B3",
                    "midi": 59,
                    "time": 97.92744533333348,
                    "velocity": 0.3858267716535433,
                    "duration": 0.04544900000000496
                },
                {
                    "name": "E4",
                    "midi": 64,
                    "time": 98.04864266666682,
                    "velocity": 0.5354330708661418,
                    "duration": 0.04544900000000496
                },
                {
                    "name": "C#4",
                    "midi": 61,
                    "time": 98.04864266666682,
                    "velocity": 0.4015748031496063,
                    "duration": 0.04544900000000496
                },
                {
                    "name": "D#4",
                    "midi": 63,
                    "time": 98.16984000000016,
                    "velocity": 0.4566929133858268,
                    "duration": 0.04544900000000496
                },
                {
                    "name": "F#4",
                    "midi": 66,
                    "time": 98.16984000000016,
                    "velocity": 0.6220472440944882,
                    "duration": 0.04544900000000496
                },
                {
                    "name": "G#4",
                    "midi": 68,
                    "time": 98.2910373333335,
                    "velocity": 0.5590551181102362,
                    "duration": 0.04544900000000496
                },
                {
                    "name": "E4",
                    "midi": 64,
                    "time": 98.2910373333335,
                    "velocity": 0.47244094488188976,
                    "duration": 0.04544900000000496
                },
                {
                    "name": "F#4",
                    "midi": 66,
                    "time": 98.41223466666685,
                    "velocity": 0.48031496062992124,
                    "duration": 0.04544900000000496
                },
                {
                    "name": "A4",
                    "midi": 69,
                    "time": 98.41223466666685,
                    "velocity": 0.5669291338582677,
                    "duration": 0.04544900000000496
                },
                {
                    "name": "G#4",
                    "midi": 68,
                    "time": 98.53343200000019,
                    "velocity": 0.4881889763779528,
                    "duration": 0.04544900000000496
                },
                {
                    "name": "B4",
                    "midi": 71,
                    "time": 98.53343200000019,
                    "velocity": 0.5826771653543307,
                    "duration": 0.04544900000000496
                },
                {
                    "name": "A4",
                    "midi": 69,
                    "time": 98.65462933333353,
                    "velocity": 0.49606299212598426,
                    "duration": 0.04544900000000496
                },
                {
                    "name": "C#5",
                    "midi": 73,
                    "time": 98.65462933333353,
                    "velocity": 0.5905511811023622,
                    "duration": 0.04544900000000496
                },
                {
                    "name": "B4",
                    "midi": 71,
                    "time": 98.77582666666687,
                    "velocity": 0.5118110236220472,
                    "duration": 0.04544900000000496
                },
                {
                    "name": "D#5",
                    "midi": 75,
                    "time": 98.77582666666687,
                    "velocity": 0.6062992125984252,
                    "duration": 0.04544900000000496
                },
                {
                    "name": "E5",
                    "midi": 76,
                    "time": 98.89702400000021,
                    "velocity": 0.44881889763779526,
                    "duration": 0.04544900000000496
                },
                {
                    "name": "G#5",
                    "midi": 80,
                    "time": 98.98792200000022,
                    "velocity": 0.3858267716535433,
                    "duration": 0.04544900000000496
                },
                {
                    "name": "B5",
                    "midi": 83,
                    "time": 99.07882000000023,
                    "velocity": 0.3779527559055118,
                    "duration": 0.04544900000000496
                },
                {
                    "name": "E5",
                    "midi": 76,
                    "time": 99.16971800000024,
                    "velocity": 0.36220472440944884,
                    "duration": 0.04544900000000496
                },
                {
                    "name": "E5",
                    "midi": 76,
                    "time": 99.26061600000025,
                    "velocity": 0.4094488188976378,
                    "duration": 0.04544900000000496
                },
                {
                    "name": "B5",
                    "midi": 83,
                    "time": 99.35151400000026,
                    "velocity": 0.3858267716535433,
                    "duration": 0.04544900000000496
                },
                {
                    "name": "G#5",
                    "midi": 80,
                    "time": 99.44241200000027,
                    "velocity": 0.3700787401574803,
                    "duration": 0.04544900000000496
                },
                {
                    "name": "E5",
                    "midi": 76,
                    "time": 99.53331000000028,
                    "velocity": 0.3700787401574803,
                    "duration": 0.04544900000000496
                },
                {
                    "name": "E5",
                    "midi": 76,
                    "time": 99.6242080000003,
                    "velocity": 0.44881889763779526,
                    "duration": 0.04544900000000496
                },
                {
                    "name": "A5",
                    "midi": 81,
                    "time": 99.7151060000003,
                    "velocity": 0.3858267716535433,
                    "duration": 0.04544900000000496
                },
                {
                    "name": "C6",
                    "midi": 84,
                    "time": 99.80600400000031,
                    "velocity": 0.3779527559055118,
                    "duration": 0.04544900000000496
                },
                {
                    "name": "E5",
                    "midi": 76,
                    "time": 99.89690200000032,
                    "velocity": 0.36220472440944884,
                    "duration": 0.04544900000000496
                },
                {
                    "name": "E5",
                    "midi": 76,
                    "time": 99.98780000000033,
                    "velocity": 0.41732283464566927,
                    "duration": 0.04544900000000496
                },
                {
                    "name": "C6",
                    "midi": 84,
                    "time": 100.07869800000034,
                    "velocity": 0.3779527559055118,
                    "duration": 0.04544900000000496
                },
                {
                    "name": "A5",
                    "midi": 81,
                    "time": 100.16959600000035,
                    "velocity": 0.3700787401574803,
                    "duration": 0.04544900000000496
                },
                {
                    "name": "E5",
                    "midi": 76,
                    "time": 100.26049400000036,
                    "velocity": 0.3700787401574803,
                    "duration": 0.04544900000000496
                },
                {
                    "name": "E5",
                    "midi": 76,
                    "time": 100.35139200000037,
                    "velocity": 0.44881889763779526,
                    "duration": 0.04544900000000496
                },
                {
                    "name": "G#5",
                    "midi": 80,
                    "time": 100.44229000000038,
                    "velocity": 0.3858267716535433,
                    "duration": 0.04544900000000496
                },
                {
                    "name": "B5",
                    "midi": 83,
                    "time": 100.5331880000004,
                    "velocity": 0.3779527559055118,
                    "duration": 0.04544900000000496
                },
                {
                    "name": "E5",
                    "midi": 76,
                    "time": 100.6240860000004,
                    "velocity": 0.3779527559055118,
                    "duration": 0.04544900000000496
                },
                {
                    "name": "E5",
                    "midi": 76,
                    "time": 100.71498400000041,
                    "velocity": 0.4409448818897638,
                    "duration": 0.04544900000000496
                },
                {
                    "name": "B5",
                    "midi": 83,
                    "time": 100.80588200000042,
                    "velocity": 0.3700787401574803,
                    "duration": 0.04544900000000496
                },
                {
                    "name": "G#5",
                    "midi": 80,
                    "time": 100.89678000000043,
                    "velocity": 0.3700787401574803,
                    "duration": 0.04544900000000496
                },
                {
                    "name": "E5",
                    "midi": 76,
                    "time": 100.98767800000044,
                    "velocity": 0.3700787401574803,
                    "duration": 0.04544900000000496
                },
                {
                    "name": "D#5",
                    "midi": 75,
                    "time": 101.07857600000045,
                    "velocity": 0.44881889763779526,
                    "duration": 0.04544900000000496
                },
                {
                    "name": "F#5",
                    "midi": 78,
                    "time": 101.16947400000046,
                    "velocity": 0.3858267716535433,
                    "duration": 0.04544900000000496
                },
                {
                    "name": "B5",
                    "midi": 83,
                    "time": 101.26037200000047,
                    "velocity": 0.3779527559055118,
                    "duration": 0.04544900000000496
                },
                {
                    "name": "E5",
                    "midi": 76,
                    "time": 101.35127000000048,
                    "velocity": 0.3700787401574803,
                    "duration": 0.04544900000000496
                },
                {
                    "name": "E5",
                    "midi": 76,
                    "time": 101.44216800000049,
                    "velocity": 0.4330708661417323,
                    "duration": 0.04544900000000496
                },
                {
                    "name": "B5",
                    "midi": 83,
                    "time": 101.5330660000005,
                    "velocity": 0.41732283464566927,
                    "duration": 0.04544900000000496
                },
                {
                    "name": "F#5",
                    "midi": 78,
                    "time": 101.62396400000051,
                    "velocity": 0.3700787401574803,
                    "duration": 0.04544900000000496
                },
                {
                    "name": "D#5",
                    "midi": 75,
                    "time": 101.71486200000052,
                    "velocity": 0.3700787401574803,
                    "duration": 0.04544900000000496
                },
                {
                    "name": "C#5",
                    "midi": 73,
                    "time": 101.80576000000053,
                    "velocity": 0.44881889763779526,
                    "duration": 0.04544900000000496
                },
                {
                    "name": "E5",
                    "midi": 76,
                    "time": 101.89665800000054,
                    "velocity": 0.3858267716535433,
                    "duration": 0.04544900000000496
                },
                {
                    "name": "A5",
                    "midi": 81,
                    "time": 101.98755600000055,
                    "velocity": 0.3779527559055118,
                    "duration": 0.04544900000000496
                },
                {
                    "name": "E5",
                    "midi": 76,
                    "time": 102.07845400000056,
                    "velocity": 0.36220472440944884,
                    "duration": 0.04544900000000496
                },
                {
                    "name": "E5",
                    "midi": 76,
                    "time": 102.16935200000057,
                    "velocity": 0.4409448818897638,
                    "duration": 0.04544900000000496
                },
                {
                    "name": "A5",
                    "midi": 81,
                    "time": 102.26025000000058,
                    "velocity": 0.3858267716535433,
                    "duration": 0.04544900000000496
                },
                {
                    "name": "E5",
                    "midi": 76,
                    "time": 102.35114800000059,
                    "velocity": 0.3700787401574803,
                    "duration": 0.04544900000000496
                },
                {
                    "name": "C#5",
                    "midi": 73,
                    "time": 102.4420460000006,
                    "velocity": 0.3700787401574803,
                    "duration": 0.04544900000000496
                },
                {
                    "name": "B4",
                    "midi": 71,
                    "time": 102.53294400000061,
                    "velocity": 0.44881889763779526,
                    "duration": 0.04544900000000496
                },
                {
                    "name": "D#5",
                    "midi": 75,
                    "time": 102.62384200000062,
                    "velocity": 0.3858267716535433,
                    "duration": 0.04544900000000496
                },
                {
                    "name": "G#5",
                    "midi": 80,
                    "time": 102.71474000000063,
                    "velocity": 0.3779527559055118,
                    "duration": 0.04544900000000496
                },
                {
                    "name": "E5",
                    "midi": 76,
                    "time": 102.80563800000064,
                    "velocity": 0.3700787401574803,
                    "duration": 0.04544900000000496
                },
                {
                    "name": "E5",
                    "midi": 76,
                    "time": 102.89653600000065,
                    "velocity": 0.4330708661417323,
                    "duration": 0.04544900000000496
                },
                {
                    "name": "G#5",
                    "midi": 80,
                    "time": 102.98743400000066,
                    "velocity": 0.3858267716535433,
                    "duration": 0.04544900000000496
                },
                {
                    "name": "D#5",
                    "midi": 75,
                    "time": 103.07833200000067,
                    "velocity": 0.3700787401574803,
                    "duration": 0.04544900000000496
                },
                {
                    "name": "B4",
                    "midi": 71,
                    "time": 103.16923000000068,
                    "velocity": 0.33858267716535434,
                    "duration": 0.04544900000000496
                },
                {
                    "name": "A4",
                    "midi": 69,
                    "time": 103.26012800000069,
                    "velocity": 0.44881889763779526,
                    "duration": 0.04544900000000496
                },
                {
                    "name": "C#5",
                    "midi": 73,
                    "time": 103.3510260000007,
                    "velocity": 0.3858267716535433,
                    "duration": 0.04544900000000496
                },
                {
                    "name": "F#5",
                    "midi": 78,
                    "time": 103.44192400000071,
                    "velocity": 0.3937007874015748,
                    "duration": 0.04544900000000496
                },
                {
                    "name": "E5",
                    "midi": 76,
                    "time": 103.53282200000072,
                    "velocity": 0.3543307086614173,
                    "duration": 0.04544900000000496
                },
                {
                    "name": "E5",
                    "midi": 76,
                    "time": 103.62372000000073,
                    "velocity": 0.41732283464566927,
                    "duration": 0.04544900000000496
                },
                {
                    "name": "F#5",
                    "midi": 78,
                    "time": 103.71461800000074,
                    "velocity": 0.36220472440944884,
                    "duration": 0.04544900000000496
                },
                {
                    "name": "C#5",
                    "midi": 73,
                    "time": 103.80551600000075,
                    "velocity": 0.3700787401574803,
                    "duration": 0.04544900000000496
                },
                {
                    "name": "A4",
                    "midi": 69,
                    "time": 103.89641400000076,
                    "velocity": 0.3700787401574803,
                    "duration": 0.04544900000000496
                },
                {
                    "name": "F#4",
                    "midi": 66,
                    "time": 103.98731200000077,
                    "velocity": 0.44881889763779526,
                    "duration": 0.04544900000000496
                },
                {
                    "name": "A4",
                    "midi": 69,
                    "time": 104.07821000000078,
                    "velocity": 0.3858267716535433,
                    "duration": 0.04544900000000496
                },
                {
                    "name": "D#5",
                    "midi": 75,
                    "time": 104.16910800000079,
                    "velocity": 0.3779527559055118,
                    "duration": 0.04544900000000496
                },
                {
                    "name": "E5",
                    "midi": 76,
                    "time": 104.2600060000008,
                    "velocity": 0.3700787401574803,
                    "duration": 0.04544900000000496
                },
                {
                    "name": "E5",
                    "midi": 76,
                    "time": 104.35090400000081,
                    "velocity": 0.4330708661417323,
                    "duration": 0.04544900000000496
                },
                {
                    "name": "D#5",
                    "midi": 75,
                    "time": 104.44180200000082,
                    "velocity": 0.3700787401574803,
                    "duration": 0.04544900000000496
                },
                {
                    "name": "A4",
                    "midi": 69,
                    "time": 104.53270000000083,
                    "velocity": 0.3700787401574803,
                    "duration": 0.04544900000000496
                },
                {
                    "name": "F#4",
                    "midi": 66,
                    "time": 104.62359800000084,
                    "velocity": 0.3228346456692913,
                    "duration": 0.04544900000000496
                },
                {
                    "name": "E4",
                    "midi": 64,
                    "time": 104.71449600000085,
                    "velocity": 0.44881889763779526,
                    "duration": 0.04544900000000496
                },
                {
                    "name": "G#4",
                    "midi": 68,
                    "time": 104.80539400000086,
                    "velocity": 0.3858267716535433,
                    "duration": 0.04544900000000496
                },
                {
                    "name": "E5",
                    "midi": 76,
                    "time": 104.89629200000087,
                    "velocity": 0.3779527559055118,
                    "duration": 0.04544900000000496
                },
                {
                    "name": "E5",
                    "midi": 76,
                    "time": 104.98719000000088,
                    "velocity": 0.3700787401574803,
                    "duration": 0.04544900000000496
                },
                {
                    "name": "E5",
                    "midi": 76,
                    "time": 105.07808800000089,
                    "velocity": 0.41732283464566927,
                    "duration": 0.04544900000000496
                },
                {
                    "name": "E5",
                    "midi": 76,
                    "time": 105.1689860000009,
                    "velocity": 0.4015748031496063,
                    "duration": 0.04544900000000496
                },
                {
                    "name": "G#4",
                    "midi": 68,
                    "time": 105.25988400000091,
                    "velocity": 0.3543307086614173,
                    "duration": 0.04544900000000496
                },
                {
                    "name": "E4",
                    "midi": 64,
                    "time": 105.35078200000092,
                    "velocity": 0.30708661417322836,
                    "duration": 0.04544900000000496
                },
                {
                    "name": "F4",
                    "midi": 65,
                    "time": 105.44168000000093,
                    "velocity": 0.48031496062992124,
                    "duration": 0.04544900000000496
                },
                {
                    "name": "A4",
                    "midi": 69,
                    "time": 105.53257800000094,
                    "velocity": 0.4094488188976378,
                    "duration": 0.04544900000000496
                },
                {
                    "name": "D#5",
                    "midi": 75,
                    "time": 105.62347600000095,
                    "velocity": 0.41732283464566927,
                    "duration": 0.04544900000000496
                },
                {
                    "name": "E5",
                    "midi": 76,
                    "time": 105.71437400000096,
                    "velocity": 0.4015748031496063,
                    "duration": 0.04544900000000496
                },
                {
                    "name": "E5",
                    "midi": 76,
                    "time": 105.80527200000097,
                    "velocity": 0.48031496062992124,
                    "duration": 0.04544900000000496
                },
                {
                    "name": "D#5",
                    "midi": 75,
                    "time": 105.89617000000098,
                    "velocity": 0.4251968503937008,
                    "duration": 0.04544900000000496
                },
                {
                    "name": "A4",
                    "midi": 69,
                    "time": 105.98706800000099,
                    "velocity": 0.3700787401574803,
                    "duration": 0.04544900000000496
                },
                {
                    "name": "F4",
                    "midi": 65,
                    "time": 106.077966000001,
                    "velocity": 0.36220472440944884,
                    "duration": 0.04544900000000496
                },
                {
                    "name": "E4",
                    "midi": 64,
                    "time": 106.16886400000101,
                    "velocity": 0.5196850393700787,
                    "duration": 0.04544900000000496
                },
                {
                    "name": "G#4",
                    "midi": 68,
                    "time": 106.25976200000102,
                    "velocity": 0.44881889763779526,
                    "duration": 0.04544900000000496
                },
                {
                    "name": "E5",
                    "midi": 76,
                    "time": 106.35066000000103,
                    "velocity": 0.4409448818897638,
                    "duration": 0.04544900000000496
                },
                {
                    "name": "E5",
                    "midi": 76,
                    "time": 106.44155800000104,
                    "velocity": 0.4409448818897638,
                    "duration": 0.04544900000000496
                },
                {
                    "name": "E5",
                    "midi": 76,
                    "time": 106.53245600000105,
                    "velocity": 0.49606299212598426,
                    "duration": 0.04544900000000496
                },
                {
                    "name": "E5",
                    "midi": 76,
                    "time": 106.62335400000106,
                    "velocity": 0.4409448818897638,
                    "duration": 0.04544900000000496
                },
                {
                    "name": "G#4",
                    "midi": 68,
                    "time": 106.71425200000107,
                    "velocity": 0.41732283464566927,
                    "duration": 0.04544900000000496
                },
                {
                    "name": "E4",
                    "midi": 64,
                    "time": 106.80515000000108,
                    "velocity": 0.3543307086614173,
                    "duration": 0.04544900000000496
                },
                {
                    "name": "F4",
                    "midi": 65,
                    "time": 106.89604800000109,
                    "velocity": 0.5433070866141733,
                    "duration": 0.04544900000000496
                },
                {
                    "name": "A4",
                    "midi": 69,
                    "time": 106.9869460000011,
                    "velocity": 0.4881889763779528,
                    "duration": 0.04544900000000496
                },
                {
                    "name": "D#5",
                    "midi": 75,
                    "time": 107.07784400000111,
                    "velocity": 0.4881889763779528,
                    "duration": 0.04544900000000496
                },
                {
                    "name": "E5",
                    "midi": 76,
                    "time": 107.16874200000112,
                    "velocity": 0.44881889763779526,
                    "duration": 0.04544900000000496
                },
                {
                    "name": "E5",
                    "midi": 76,
                    "time": 107.25964000000113,
                    "velocity": 0.5118110236220472,
                    "duration": 0.04544900000000496
                },
                {
                    "name": "D#5",
                    "midi": 75,
                    "time": 107.35053800000114,
                    "velocity": 0.4645669291338583,
                    "duration": 0.04544900000000496
                },
                {
                    "name": "A4",
                    "midi": 69,
                    "time": 107.44143600000115,
                    "velocity": 0.44881889763779526,
                    "duration": 0.04544900000000496
                },
                {
                    "name": "F4",
                    "midi": 65,
                    "time": 107.53233400000116,
                    "velocity": 0.3858267716535433,
                    "duration": 0.04544900000000496
                },
                {
                    "name": "E4",
                    "midi": 64,
                    "time": 107.62323200000117,
                    "velocity": 0.6771653543307087,
                    "duration": 0.04544900000000496
                },
                {
                    "name": "G#4",
                    "midi": 68,
                    "time": 107.80502800000117,
                    "velocity": 0.5984251968503937,
                    "duration": 0.04544900000000496
                },
                {
                    "name": "E5",
                    "midi": 76,
                    "time": 107.80502800000117,
                    "velocity": 0.5984251968503937,
                    "duration": 0.04544900000000496
                },
                {
                    "name": "E4",
                    "midi": 64,
                    "time": 108.35041600000118,
                    "velocity": 0.6771653543307087,
                    "duration": 0.04544900000000496
                },
                {
                    "name": "G#4",
                    "midi": 68,
                    "time": 108.53221200000118,
                    "velocity": 0.6141732283464567,
                    "duration": 0.04544900000000496
                },
                {
                    "name": "G#5",
                    "midi": 80,
                    "time": 108.53221200000118,
                    "velocity": 0.6141732283464567,
                    "duration": 0.04544900000000496
                },
                {
                    "name": "E5",
                    "midi": 76,
                    "time": 108.53221200000118,
                    "velocity": 0.6141732283464567,
                    "duration": 0.04544900000000496
                },
                {
                    "name": "E4",
                    "midi": 64,
                    "time": 109.07760000000118,
                    "velocity": 0.5039370078740157,
                    "duration": 0.04544900000000496
                },
                {
                    "name": "G#4",
                    "midi": 68,
                    "time": 109.1684980000012,
                    "velocity": 0.4330708661417323,
                    "duration": 0.04544900000000496
                },
                {
                    "name": "E5",
                    "midi": 76,
                    "time": 109.2593960000012,
                    "velocity": 0.4251968503937008,
                    "duration": 0.04544900000000496
                },
                {
                    "name": "E5",
                    "midi": 76,
                    "time": 109.35029400000121,
                    "velocity": 0.4015748031496063,
                    "duration": 0.04544900000000496
                },
                {
                    "name": "E5",
                    "midi": 76,
                    "time": 109.44119200000122,
                    "velocity": 0.4566929133858268,
                    "duration": 0.04544900000000496
                },
                {
                    "name": "G#5",
                    "midi": 80,
                    "time": 109.53209000000123,
                    "velocity": 0.3937007874015748,
                    "duration": 0.04544900000000496
                },
                {
                    "name": "B4",
                    "midi": 71,
                    "time": 109.62298800000124,
                    "velocity": 0.4015748031496063,
                    "duration": 0.04544900000000496
                },
                {
                    "name": "G#4",
                    "midi": 68,
                    "time": 109.71388600000125,
                    "velocity": 0.4015748031496063,
                    "duration": 0.04544900000000496
                },
                {
                    "name": "E4",
                    "midi": 64,
                    "time": 109.80478400000126,
                    "velocity": 0.4881889763779528,
                    "duration": 0.04544900000000496
                },
                {
                    "name": "G#4",
                    "midi": 68,
                    "time": 109.89568200000127,
                    "velocity": 0.41732283464566927,
                    "duration": 0.04544900000000496
                },
                {
                    "name": "E5",
                    "midi": 76,
                    "time": 109.98658000000128,
                    "velocity": 0.4015748031496063,
                    "duration": 0.04544900000000496
                },
                {
                    "name": "E5",
                    "midi": 76,
                    "time": 110.07747800000129,
                    "velocity": 0.3858267716535433,
                    "duration": 0.04544900000000496
                },
                {
                    "name": "E5",
                    "midi": 76,
                    "time": 110.1683760000013,
                    "velocity": 0.44881889763779526,
                    "duration": 0.04544900000000496
                },
                {
                    "name": "G#5",
                    "midi": 80,
                    "time": 110.25927400000131,
                    "velocity": 0.4409448818897638,
                    "duration": 0.04544900000000496
                },
                {
                    "name": "B4",
                    "midi": 71,
                    "time": 110.35017200000132,
                    "velocity": 0.3937007874015748,
                    "duration": 0.04544900000000496
                },
                {
                    "name": "G#4",
                    "midi": 68,
                    "time": 110.44107000000133,
                    "velocity": 0.3858267716535433,
                    "duration": 0.04544900000000496
                },
                {
                    "name": "E4",
                    "midi": 64,
                    "time": 110.53196800000134,
                    "velocity": 0.4330708661417323,
                    "duration": 0.7271839999999941
                },
                {
                    "name": "G#4",
                    "midi": 68,
                    "time": 110.53196800000134,
                    "velocity": 0.4330708661417323,
                    "duration": 0.7271839999999941
                },
                {
                    "name": "E5",
                    "midi": 76,
                    "time": 110.53196800000134,
                    "velocity": 0.4330708661417323,
                    "duration": 0.7271839999999941
                }
            ],
            "controlChanges": {
                "7": [
                    {
                        "number": 7,
                        "time": 0,
                        "value": 0.7874015748031497
                    }
                ],
                "10": [
                    {
                        "number": 10,
                        "time": 0,
                        "value": 0.5039370078740157
                    }
                ],
                "91": [
                    {
                        "number": 91,
                        "time": 0,
                        "value": 1
                    }
                ]
            },
            "id": 1,
            "name": "Piano right",
            "instrumentNumber": 0,
            "instrument": "acoustic grand piano",
            "instrumentFamily": "piano",
            "channelNumber": 0,
            "isPercussion": false
        },
        {
            "startTime": 0.727184,
            "duration": 103.30557700000037,
            "length": 405,
            "notes": [
                {
                    "name": "E4",
                    "midi": 64,
                    "time": 0.727184,
                    "velocity": 0.4566929133858268,
                    "duration": 0.04544899999999996
                },
                {
                    "name": "E5",
                    "midi": 76,
                    "time": 1.090776,
                    "velocity": 0.5118110236220472,
                    "duration": 0.04544900000000007
                },
                {
                    "name": "D#4",
                    "midi": 63,
                    "time": 1.454368,
                    "velocity": 0.4566929133858268,
                    "duration": 0.04544900000000007
                },
                {
                    "name": "F#5",
                    "midi": 78,
                    "time": 1.8179600000000002,
                    "velocity": 0.5275590551181102,
                    "duration": 0.04544900000000007
                },
                {
                    "name": "E4",
                    "midi": 64,
                    "time": 2.1815520000000004,
                    "velocity": 0.4566929133858268,
                    "duration": 0.04544900000000007
                },
                {
                    "name": "E5",
                    "midi": 76,
                    "time": 2.5451440000000005,
                    "velocity": 0.5511811023622047,
                    "duration": 0.04544900000000007
                },
                {
                    "name": "B3",
                    "midi": 59,
                    "time": 2.9087360000000007,
                    "velocity": 0.4566929133858268,
                    "duration": 0.04544900000000007
                },
                {
                    "name": "B5",
                    "midi": 83,
                    "time": 3.272328000000001,
                    "velocity": 0.4566929133858268,
                    "duration": 0.04544900000000007
                },
                {
                    "name": "E4",
                    "midi": 64,
                    "time": 3.635920000000001,
                    "velocity": 0.4015748031496063,
                    "duration": 0.04544900000000007
                },
                {
                    "name": "E5",
                    "midi": 76,
                    "time": 3.999512000000001,
                    "velocity": 0.4409448818897638,
                    "duration": 0.04544899999999963
                },
                {
                    "name": "D#4",
                    "midi": 63,
                    "time": 4.363104000000001,
                    "velocity": 0.4015748031496063,
                    "duration": 0.04544899999999963
                },
                {
                    "name": "F#5",
                    "midi": 78,
                    "time": 4.7266960000000005,
                    "velocity": 0.4251968503937008,
                    "duration": 0.04544899999999963
                },
                {
                    "name": "E4",
                    "midi": 64,
                    "time": 5.090288,
                    "velocity": 0.4015748031496063,
                    "duration": 0.04544899999999963
                },
                {
                    "name": "E5",
                    "midi": 76,
                    "time": 5.45388,
                    "velocity": 0.41732283464566927,
                    "duration": 0.04544899999999963
                },
                {
                    "name": "B3",
                    "midi": 59,
                    "time": 5.8174719999999995,
                    "velocity": 0.4015748031496063,
                    "duration": 0.04544899999999963
                },
                {
                    "name": "B5",
                    "midi": 83,
                    "time": 6.181063999999999,
                    "velocity": 0.4409448818897638,
                    "duration": 0.04544899999999963
                },
                {
                    "name": "G#3",
                    "midi": 56,
                    "time": 6.544655999999999,
                    "velocity": 0.41732283464566927,
                    "duration": 0.04544899999999963
                },
                {
                    "name": "G#5",
                    "midi": 80,
                    "time": 6.908247999999999,
                    "velocity": 0.4251968503937008,
                    "duration": 0.04544899999999963
                },
                {
                    "name": "A3",
                    "midi": 57,
                    "time": 7.271839999999998,
                    "velocity": 0.4330708661417323,
                    "duration": 0.04544899999999963
                },
                {
                    "name": "C#6",
                    "midi": 85,
                    "time": 7.635431999999998,
                    "velocity": 0.4881889763779528,
                    "duration": 0.04544899999999963
                },
                {
                    "name": "E6",
                    "midi": 88,
                    "time": 7.817227999999997,
                    "velocity": 0.5275590551181102,
                    "duration": 0.04544899999999963
                },
                {
                    "name": "A#3",
                    "midi": 58,
                    "time": 7.999023999999997,
                    "velocity": 0.41732283464566927,
                    "duration": 0.04544899999999963
                },
                {
                    "name": "A#5",
                    "midi": 82,
                    "time": 8.362615999999996,
                    "velocity": 0.44881889763779526,
                    "duration": 0.04544899999999963
                },
                {
                    "name": "B3",
                    "midi": 59,
                    "time": 8.726207999999994,
                    "velocity": 0.4330708661417323,
                    "duration": 0.04544899999999963
                },
                {
                    "name": "D#6",
                    "midi": 87,
                    "time": 9.089799999999993,
                    "velocity": 0.48031496062992124,
                    "duration": 0.04544899999999963
                },
                {
                    "name": "F#6",
                    "midi": 90,
                    "time": 9.271595999999994,
                    "velocity": 0.5039370078740157,
                    "duration": 0.04544899999999963
                },
                {
                    "name": "D#4",
                    "midi": 63,
                    "time": 9.453391999999994,
                    "velocity": 0.44881889763779526,
                    "duration": 0.04544899999999963
                },
                {
                    "name": "E4",
                    "midi": 64,
                    "time": 10.180575999999993,
                    "velocity": 0.47244094488188976,
                    "duration": 0.04544899999999963
                },
                {
                    "name": "F#4",
                    "midi": 66,
                    "time": 10.907759999999993,
                    "velocity": 0.5039370078740157,
                    "duration": 0.04544899999999963
                },
                {
                    "name": "G#4",
                    "midi": 68,
                    "time": 11.634943999999992,
                    "velocity": 0.5354330708661418,
                    "duration": 0.04544899999999963
                },
                {
                    "name": "A4",
                    "midi": 69,
                    "time": 12.362127999999991,
                    "velocity": 0.5748031496062992,
                    "duration": 0.04544899999999963
                },
                {
                    "name": "A#4",
                    "midi": 70,
                    "time": 13.08931199999999,
                    "velocity": 0.6141732283464567,
                    "duration": 0.04544899999999963
                },
                {
                    "name": "C#5",
                    "midi": 73,
                    "time": 13.81649599999999,
                    "velocity": 0.6141732283464567,
                    "duration": 0.04544899999999963
                },
                {
                    "name": "A#4",
                    "midi": 70,
                    "time": 14.54367999999999,
                    "velocity": 0.6141732283464567,
                    "duration": 0.04544899999999963
                },
                {
                    "name": "G4",
                    "midi": 67,
                    "time": 15.270863999999989,
                    "velocity": 0.5590551181102362,
                    "duration": 0.04544899999999963
                },
                {
                    "name": "E4",
                    "midi": 64,
                    "time": 15.998047999999988,
                    "velocity": 0.5039370078740157,
                    "duration": 0.04544899999999963
                },
                {
                    "name": "C#4",
                    "midi": 61,
                    "time": 16.725231999999988,
                    "velocity": 0.4645669291338583,
                    "duration": 0.045449000000001405
                },
                {
                    "name": "B3",
                    "midi": 59,
                    "time": 17.45241599999999,
                    "velocity": 0.4251968503937008,
                    "duration": 0.045449000000001405
                },
                {
                    "name": "D#6",
                    "midi": 87,
                    "time": 17.81600799999999,
                    "velocity": 0.4251968503937008,
                    "duration": 0.045449000000001405
                },
                {
                    "name": "F#6",
                    "midi": 90,
                    "time": 17.99780399999999,
                    "velocity": 0.47244094488188976,
                    "duration": 0.045449000000001405
                },
                {
                    "name": "A3",
                    "midi": 57,
                    "time": 18.179599999999994,
                    "velocity": 0.4015748031496063,
                    "duration": 0.045449000000001405
                },
                {
                    "name": "F#5",
                    "midi": 78,
                    "time": 18.543191999999994,
                    "velocity": 0.44881889763779526,
                    "duration": 0.045449000000001405
                },
                {
                    "name": "G#3",
                    "midi": 56,
                    "time": 18.906783999999995,
                    "velocity": 0.4015748031496063,
                    "duration": 0.045449000000001405
                },
                {
                    "name": "B5",
                    "midi": 83,
                    "time": 19.270375999999995,
                    "velocity": 0.4251968503937008,
                    "duration": 0.045449000000001405
                },
                {
                    "name": "E6",
                    "midi": 88,
                    "time": 19.452171999999997,
                    "velocity": 0.47244094488188976,
                    "duration": 0.045449000000001405
                },
                {
                    "name": "A3",
                    "midi": 57,
                    "time": 19.633968,
                    "velocity": 0.4015748031496063,
                    "duration": 0.045449000000001405
                },
                {
                    "name": "F#5",
                    "midi": 78,
                    "time": 19.99756,
                    "velocity": 0.44881889763779526,
                    "duration": 0.045449000000001405
                },
                {
                    "name": "G#3",
                    "midi": 56,
                    "time": 20.361152,
                    "velocity": 0.4015748031496063,
                    "duration": 0.045449000000001405
                },
                {
                    "name": "B5",
                    "midi": 83,
                    "time": 20.724744,
                    "velocity": 0.4251968503937008,
                    "duration": 0.045449000000001405
                },
                {
                    "name": "E6",
                    "midi": 88,
                    "time": 20.906540000000003,
                    "velocity": 0.47244094488188976,
                    "duration": 0.045449000000001405
                },
                {
                    "name": "A3",
                    "midi": 57,
                    "time": 21.088336000000005,
                    "velocity": 0.5905511811023622,
                    "duration": 0.045449000000001405
                },
                {
                    "name": "A5",
                    "midi": 81,
                    "time": 21.270132000000007,
                    "velocity": 0.49606299212598426,
                    "duration": 0.045449000000001405
                },
                {
                    "name": "E5",
                    "midi": 76,
                    "time": 21.270132000000007,
                    "velocity": 0.41732283464566927,
                    "duration": 0.045449000000001405
                },
                {
                    "name": "C#5",
                    "midi": 73,
                    "time": 21.270132000000007,
                    "velocity": 0.41732283464566927,
                    "duration": 0.045449000000001405
                },
                {
                    "name": "A4",
                    "midi": 69,
                    "time": 21.270132000000007,
                    "velocity": 0.41732283464566927,
                    "duration": 0.045449000000001405
                },
                {
                    "name": "C#4",
                    "midi": 61,
                    "time": 21.270132000000007,
                    "velocity": 0.3464566929133858,
                    "duration": 0.045449000000001405
                },
                {
                    "name": "E4",
                    "midi": 64,
                    "time": 21.270132000000007,
                    "velocity": 0.3464566929133858,
                    "duration": 0.045449000000001405
                },
                {
                    "name": "B3",
                    "midi": 59,
                    "time": 21.45192800000001,
                    "velocity": 0.6456692913385826,
                    "duration": 0.045449000000001405
                },
                {
                    "name": "B5",
                    "midi": 83,
                    "time": 21.63372400000001,
                    "velocity": 0.5118110236220472,
                    "duration": 0.045449000000001405
                },
                {
                    "name": "G#5",
                    "midi": 80,
                    "time": 21.63372400000001,
                    "velocity": 0.4251968503937008,
                    "duration": 0.045449000000001405
                },
                {
                    "name": "E5",
                    "midi": 76,
                    "time": 21.63372400000001,
                    "velocity": 0.4251968503937008,
                    "duration": 0.045449000000001405
                },
                {
                    "name": "B4",
                    "midi": 71,
                    "time": 21.63372400000001,
                    "velocity": 0.4251968503937008,
                    "duration": 0.045449000000001405
                },
                {
                    "name": "G#4",
                    "midi": 68,
                    "time": 21.63372400000001,
                    "velocity": 0.3543307086614173,
                    "duration": 0.045449000000001405
                },
                {
                    "name": "E4",
                    "midi": 64,
                    "time": 21.63372400000001,
                    "velocity": 0.3543307086614173,
                    "duration": 0.045449000000001405
                },
                {
                    "name": "C#4",
                    "midi": 61,
                    "time": 21.815520000000014,
                    "velocity": 0.6377952755905512,
                    "duration": 0.045449000000001405
                },
                {
                    "name": "C#6",
                    "midi": 85,
                    "time": 21.997316000000016,
                    "velocity": 0.5118110236220472,
                    "duration": 0.045449000000001405
                },
                {
                    "name": "A5",
                    "midi": 81,
                    "time": 21.997316000000016,
                    "velocity": 0.4251968503937008,
                    "duration": 0.045449000000001405
                },
                {
                    "name": "E5",
                    "midi": 76,
                    "time": 21.997316000000016,
                    "velocity": 0.4251968503937008,
                    "duration": 0.045449000000001405
                },
                {
                    "name": "C#5",
                    "midi": 73,
                    "time": 21.997316000000016,
                    "velocity": 0.4251968503937008,
                    "duration": 0.045449000000001405
                },
                {
                    "name": "A4",
                    "midi": 69,
                    "time": 21.997316000000016,
                    "velocity": 0.3543307086614173,
                    "duration": 0.045449000000001405
                },
                {
                    "name": "E4",
                    "midi": 64,
                    "time": 21.997316000000016,
                    "velocity": 0.3543307086614173,
                    "duration": 0.045449000000001405
                },
                {
                    "name": "C4",
                    "midi": 60,
                    "time": 22.179112000000018,
                    "velocity": 0.6377952755905512,
                    "duration": 0.045449000000001405
                },
                {
                    "name": "C6",
                    "midi": 84,
                    "time": 22.36090800000002,
                    "velocity": 0.5118110236220472,
                    "duration": 0.045449000000001405
                },
                {
                    "name": "G5",
                    "midi": 79,
                    "time": 22.36090800000002,
                    "velocity": 0.4251968503937008,
                    "duration": 0.045449000000001405
                },
                {
                    "name": "E5",
                    "midi": 76,
                    "time": 22.36090800000002,
                    "velocity": 0.4251968503937008,
                    "duration": 0.045449000000001405
                },
                {
                    "name": "C5",
                    "midi": 72,
                    "time": 22.36090800000002,
                    "velocity": 0.4251968503937008,
                    "duration": 0.045449000000001405
                },
                {
                    "name": "A#4",
                    "midi": 70,
                    "time": 22.36090800000002,
                    "velocity": 0.3543307086614173,
                    "duration": 0.045449000000001405
                },
                {
                    "name": "G4",
                    "midi": 67,
                    "time": 22.36090800000002,
                    "velocity": 0.3543307086614173,
                    "duration": 0.045449000000001405
                },
                {
                    "name": "E4",
                    "midi": 64,
                    "time": 22.36090800000002,
                    "velocity": 0.3543307086614173,
                    "duration": 0.045449000000001405
                },
                {
                    "name": "B3",
                    "midi": 59,
                    "time": 22.542704000000022,
                    "velocity": 0.6299212598425197,
                    "duration": 0.045449000000001405
                },
                {
                    "name": "B5",
                    "midi": 83,
                    "time": 22.724500000000024,
                    "velocity": 0.5118110236220472,
                    "duration": 0.045449000000001405
                },
                {
                    "name": "G#5",
                    "midi": 80,
                    "time": 22.724500000000024,
                    "velocity": 0.4251968503937008,
                    "duration": 0.045449000000001405
                },
                {
                    "name": "E5",
                    "midi": 76,
                    "time": 22.724500000000024,
                    "velocity": 0.4251968503937008,
                    "duration": 0.045449000000001405
                },
                {
                    "name": "B4",
                    "midi": 71,
                    "time": 22.724500000000024,
                    "velocity": 0.4251968503937008,
                    "duration": 0.045449000000001405
                },
                {
                    "name": "G#4",
                    "midi": 68,
                    "time": 22.724500000000024,
                    "velocity": 0.3543307086614173,
                    "duration": 0.045449000000001405
                },
                {
                    "name": "E4",
                    "midi": 64,
                    "time": 22.724500000000024,
                    "velocity": 0.3543307086614173,
                    "duration": 0.045449000000001405
                },
                {
                    "name": "B3",
                    "midi": 59,
                    "time": 22.906296000000026,
                    "velocity": 0.6377952755905512,
                    "duration": 0.045449000000001405
                },
                {
                    "name": "B5",
                    "midi": 83,
                    "time": 23.088092000000028,
                    "velocity": 0.5118110236220472,
                    "duration": 0.045449000000001405
                },
                {
                    "name": "F#5",
                    "midi": 78,
                    "time": 23.088092000000028,
                    "velocity": 0.4251968503937008,
                    "duration": 0.045449000000001405
                },
                {
                    "name": "D#5",
                    "midi": 75,
                    "time": 23.088092000000028,
                    "velocity": 0.4251968503937008,
                    "duration": 0.045449000000001405
                },
                {
                    "name": "B4",
                    "midi": 71,
                    "time": 23.088092000000028,
                    "velocity": 0.4251968503937008,
                    "duration": 0.045449000000001405
                },
                {
                    "name": "A4",
                    "midi": 69,
                    "time": 23.088092000000028,
                    "velocity": 0.3543307086614173,
                    "duration": 0.045449000000001405
                },
                {
                    "name": "F#4",
                    "midi": 66,
                    "time": 23.088092000000028,
                    "velocity": 0.3543307086614173,
                    "duration": 0.045449000000001405
                },
                {
                    "name": "E4",
                    "midi": 64,
                    "time": 23.26988800000003,
                    "velocity": 0.6377952755905512,
                    "duration": 0.36359199999999703
                },
                {
                    "name": "E6",
                    "midi": 88,
                    "time": 23.633480000000027,
                    "velocity": 0.6220472440944882,
                    "duration": 0.045449000000001405
                },
                {
                    "name": "B5",
                    "midi": 83,
                    "time": 23.633480000000027,
                    "velocity": 0.5196850393700787,
                    "duration": 0.045449000000001405
                },
                {
                    "name": "G#5",
                    "midi": 80,
                    "time": 23.633480000000027,
                    "velocity": 0.5196850393700787,
                    "duration": 0.045449000000001405
                },
                {
                    "name": "E5",
                    "midi": 76,
                    "time": 23.633480000000027,
                    "velocity": 0.5196850393700787,
                    "duration": 0.045449000000001405
                },
                {
                    "name": "B4",
                    "midi": 71,
                    "time": 23.633480000000027,
                    "velocity": 0.4330708661417323,
                    "duration": 0.045449000000001405
                },
                {
                    "name": "G#4",
                    "midi": 68,
                    "time": 23.633480000000027,
                    "velocity": 0.4330708661417323,
                    "duration": 0.045449000000001405
                },
                {
                    "name": "E4",
                    "midi": 64,
                    "time": 23.997072000000028,
                    "velocity": 0.4566929133858268,
                    "duration": 0.045449000000001405
                },
                {
                    "name": "E5",
                    "midi": 76,
                    "time": 24.36066400000003,
                    "velocity": 0.4645669291338583,
                    "duration": 0.045449000000001405
                },
                {
                    "name": "D#4",
                    "midi": 63,
                    "time": 24.72425600000003,
                    "velocity": 0.4566929133858268,
                    "duration": 0.045449000000001405
                },
                {
                    "name": "F#5",
                    "midi": 78,
                    "time": 25.08784800000003,
                    "velocity": 0.4881889763779528,
                    "duration": 0.045449000000001405
                },
                {
                    "name": "E4",
                    "midi": 64,
                    "time": 25.45144000000003,
                    "velocity": 0.4566929133858268,
                    "duration": 0.045449000000001405
                },
                {
                    "name": "E5",
                    "midi": 76,
                    "time": 25.81503200000003,
                    "velocity": 0.4566929133858268,
                    "duration": 0.045449000000001405
                },
                {
                    "name": "B3",
                    "midi": 59,
                    "time": 26.17862400000003,
                    "velocity": 0.4566929133858268,
                    "duration": 0.045449000000001405
                },
                {
                    "name": "B5",
                    "midi": 83,
                    "time": 26.542216000000032,
                    "velocity": 0.48031496062992124,
                    "duration": 0.045449000000001405
                },
                {
                    "name": "E4",
                    "midi": 64,
                    "time": 26.905808000000032,
                    "velocity": 0.4015748031496063,
                    "duration": 0.045449000000001405
                },
                {
                    "name": "E5",
                    "midi": 76,
                    "time": 27.269400000000033,
                    "velocity": 0.41732283464566927,
                    "duration": 0.045449000000001405
                },
                {
                    "name": "D#4",
                    "midi": 63,
                    "time": 27.632992000000034,
                    "velocity": 0.4015748031496063,
                    "duration": 0.045449000000001405
                },
                {
                    "name": "F#5",
                    "midi": 78,
                    "time": 27.996584000000034,
                    "velocity": 0.44881889763779526,
                    "duration": 0.045449000000001405
                },
                {
                    "name": "E4",
                    "midi": 64,
                    "time": 28.360176000000035,
                    "velocity": 0.4015748031496063,
                    "duration": 0.045449000000001405
                },
                {
                    "name": "E5",
                    "midi": 76,
                    "time": 28.723768000000035,
                    "velocity": 0.4015748031496063,
                    "duration": 0.045449000000001405
                },
                {
                    "name": "B3",
                    "midi": 59,
                    "time": 29.087360000000036,
                    "velocity": 0.4015748031496063,
                    "duration": 0.045449000000001405
                },
                {
                    "name": "B5",
                    "midi": 83,
                    "time": 29.450952000000036,
                    "velocity": 0.4015748031496063,
                    "duration": 0.045449000000001405
                },
                {
                    "name": "B3",
                    "midi": 59,
                    "time": 29.814544000000037,
                    "velocity": 0.41732283464566927,
                    "duration": 0.045449000000001405
                },
                {
                    "name": "B5",
                    "midi": 83,
                    "time": 30.178136000000038,
                    "velocity": 0.4251968503937008,
                    "duration": 0.045449000000001405
                },
                {
                    "name": "A3",
                    "midi": 57,
                    "time": 30.541728000000038,
                    "velocity": 0.4015748031496063,
                    "duration": 0.045449000000001405
                },
                {
                    "name": "C6",
                    "midi": 84,
                    "time": 30.90532000000004,
                    "velocity": 0.4015748031496063,
                    "duration": 0.045449000000001405
                },
                {
                    "name": "A3",
                    "midi": 57,
                    "time": 31.26891200000004,
                    "velocity": 0.41732283464566927,
                    "duration": 0.045449000000001405
                },
                {
                    "name": "A5",
                    "midi": 81,
                    "time": 31.63250400000004,
                    "velocity": 0.4251968503937008,
                    "duration": 0.045449000000001405
                },
                {
                    "name": "G3",
                    "midi": 55,
                    "time": 31.99609600000004,
                    "velocity": 0.4015748031496063,
                    "duration": 0.045449000000001405
                },
                {
                    "name": "D6",
                    "midi": 86,
                    "time": 32.35968800000004,
                    "velocity": 0.4881889763779528,
                    "duration": 0.04544899999999785
                },
                {
                    "name": "G3",
                    "midi": 55,
                    "time": 32.72328000000004,
                    "velocity": 0.44881889763779526,
                    "duration": 0.04544899999999785
                },
                {
                    "name": "G6",
                    "midi": 91,
                    "time": 33.086872000000035,
                    "velocity": 0.5118110236220472,
                    "duration": 0.04544899999999785
                },
                {
                    "name": "G3",
                    "midi": 55,
                    "time": 33.45046400000003,
                    "velocity": 0.4881889763779528,
                    "duration": 0.04544899999999785
                },
                {
                    "name": "B6",
                    "midi": 95,
                    "time": 33.81405600000003,
                    "velocity": 0.5511811023622047,
                    "duration": 0.04544899999999785
                },
                {
                    "name": "G3",
                    "midi": 55,
                    "time": 34.177648000000026,
                    "velocity": 0.5196850393700787,
                    "duration": 0.04544899999999785
                },
                {
                    "name": "D7",
                    "midi": 98,
                    "time": 34.54124000000002,
                    "velocity": 0.6141732283464567,
                    "duration": 0.04544899999999785
                },
                {
                    "name": "C4",
                    "midi": 60,
                    "time": 34.90483200000002,
                    "velocity": 0.5905511811023622,
                    "duration": 0.04544899999999785
                },
                {
                    "name": "C#4",
                    "midi": 61,
                    "time": 35.26842400000002,
                    "velocity": 0.5590551181102362,
                    "duration": 0.04544899999999785
                },
                {
                    "name": "E6",
                    "midi": 88,
                    "time": 35.450220000000016,
                    "velocity": 0.5590551181102362,
                    "duration": 0.04544899999999785
                },
                {
                    "name": "G5",
                    "midi": 79,
                    "time": 35.450220000000016,
                    "velocity": 0.47244094488188976,
                    "duration": 0.04544899999999785
                },
                {
                    "name": "E5",
                    "midi": 76,
                    "time": 35.450220000000016,
                    "velocity": 0.47244094488188976,
                    "duration": 0.04544899999999785
                },
                {
                    "name": "A4",
                    "midi": 69,
                    "time": 35.450220000000016,
                    "velocity": 0.4015748031496063,
                    "duration": 0.04544899999999785
                },
                {
                    "name": "C#4",
                    "midi": 61,
                    "time": 35.450220000000016,
                    "velocity": 0.4015748031496063,
                    "duration": 0.04544899999999785
                },
                {
                    "name": "D4",
                    "midi": 62,
                    "time": 35.632016000000014,
                    "velocity": 0.6062992125984252,
                    "duration": 0.04544899999999785
                },
                {
                    "name": "D#4",
                    "midi": 63,
                    "time": 35.99560800000001,
                    "velocity": 0.5826771653543307,
                    "duration": 0.04544899999999785
                },
                {
                    "name": "F#6",
                    "midi": 90,
                    "time": 36.17740400000001,
                    "velocity": 0.5748031496062992,
                    "duration": 0.04544899999999785
                },
                {
                    "name": "A5",
                    "midi": 81,
                    "time": 36.17740400000001,
                    "velocity": 0.4881889763779528,
                    "duration": 0.04544899999999785
                },
                {
                    "name": "F#5",
                    "midi": 78,
                    "time": 36.17740400000001,
                    "velocity": 0.4881889763779528,
                    "duration": 0.04544899999999785
                },
                {
                    "name": "B4",
                    "midi": 71,
                    "time": 36.17740400000001,
                    "velocity": 0.41732283464566927,
                    "duration": 0.04544899999999785
                },
                {
                    "name": "D#4",
                    "midi": 63,
                    "time": 36.17740400000001,
                    "velocity": 0.41732283464566927,
                    "duration": 0.04544899999999785
                },
                {
                    "name": "E4",
                    "midi": 64,
                    "time": 36.35920000000001,
                    "velocity": 0.6299212598425197,
                    "duration": 0.04544899999999785
                },
                {
                    "name": "F#4",
                    "midi": 66,
                    "time": 36.722792000000005,
                    "velocity": 0.6062992125984252,
                    "duration": 0.04544899999999785
                },
                {
                    "name": "F#6",
                    "midi": 90,
                    "time": 36.904588000000004,
                    "velocity": 0.5984251968503937,
                    "duration": 0.04544899999999785
                },
                {
                    "name": "A5",
                    "midi": 81,
                    "time": 36.904588000000004,
                    "velocity": 0.5039370078740157,
                    "duration": 0.04544899999999785
                },
                {
                    "name": "F#5",
                    "midi": 78,
                    "time": 36.904588000000004,
                    "velocity": 0.5039370078740157,
                    "duration": 0.04544899999999785
                },
                {
                    "name": "D5",
                    "midi": 74,
                    "time": 36.904588000000004,
                    "velocity": 0.4251968503937008,
                    "duration": 0.04544899999999785
                },
                {
                    "name": "A4",
                    "midi": 69,
                    "time": 36.904588000000004,
                    "velocity": 0.4251968503937008,
                    "duration": 0.04544899999999785
                },
                {
                    "name": "G4",
                    "midi": 67,
                    "time": 37.086384,
                    "velocity": 0.6141732283464567,
                    "duration": 0.04544899999999785
                },
                {
                    "name": "G6",
                    "midi": 91,
                    "time": 37.26818,
                    "velocity": 0.6141732283464567,
                    "duration": 0.04544899999999785
                },
                {
                    "name": "B5",
                    "midi": 83,
                    "time": 37.26818,
                    "velocity": 0.5118110236220472,
                    "duration": 0.04544899999999785
                },
                {
                    "name": "G5",
                    "midi": 79,
                    "time": 37.26818,
                    "velocity": 0.5118110236220472,
                    "duration": 0.04544899999999785
                },
                {
                    "name": "D5",
                    "midi": 74,
                    "time": 37.26818,
                    "velocity": 0.4330708661417323,
                    "duration": 0.04544899999999785
                },
                {
                    "name": "B4",
                    "midi": 71,
                    "time": 37.26818,
                    "velocity": 0.4330708661417323,
                    "duration": 0.04544899999999785
                },
                {
                    "name": "A4",
                    "midi": 69,
                    "time": 37.449976,
                    "velocity": 0.6299212598425197,
                    "duration": 0.04544899999999785
                },
                {
                    "name": "A6",
                    "midi": 93,
                    "time": 37.631772,
                    "velocity": 0.6220472440944882,
                    "duration": 0.04544899999999785
                },
                {
                    "name": "D6",
                    "midi": 86,
                    "time": 37.631772,
                    "velocity": 0.5275590551181102,
                    "duration": 0.04544899999999785
                },
                {
                    "name": "A5",
                    "midi": 81,
                    "time": 37.631772,
                    "velocity": 0.5275590551181102,
                    "duration": 0.04544899999999785
                },
                {
                    "name": "F#5",
                    "midi": 78,
                    "time": 37.631772,
                    "velocity": 0.4409448818897638,
                    "duration": 0.04544899999999785
                },
                {
                    "name": "D5",
                    "midi": 74,
                    "time": 37.631772,
                    "velocity": 0.4409448818897638,
                    "duration": 0.04544899999999785
                },
                {
                    "name": "B4",
                    "midi": 71,
                    "time": 37.813568,
                    "velocity": 0.6377952755905512,
                    "duration": 0.04544899999999785
                },
                {
                    "name": "B6",
                    "midi": 95,
                    "time": 37.995363999999995,
                    "velocity": 0.6377952755905512,
                    "duration": 0.04544899999999785
                },
                {
                    "name": "D6",
                    "midi": 86,
                    "time": 37.995363999999995,
                    "velocity": 0.5354330708661418,
                    "duration": 0.04544899999999785
                },
                {
                    "name": "B5",
                    "midi": 83,
                    "time": 37.995363999999995,
                    "velocity": 0.5354330708661418,
                    "duration": 0.04544899999999785
                },
                {
                    "name": "G5",
                    "midi": 79,
                    "time": 37.995363999999995,
                    "velocity": 0.44881889763779526,
                    "duration": 0.04544899999999785
                },
                {
                    "name": "D5",
                    "midi": 74,
                    "time": 37.995363999999995,
                    "velocity": 0.44881889763779526,
                    "duration": 0.04544899999999785
                },
                {
                    "name": "C5",
                    "midi": 72,
                    "time": 38.17715999999999,
                    "velocity": 0.6535433070866141,
                    "duration": 0.04544899999999785
                },
                {
                    "name": "C7",
                    "midi": 96,
                    "time": 38.35895599999999,
                    "velocity": 0.6456692913385826,
                    "duration": 0.04544899999999785
                },
                {
                    "name": "E6",
                    "midi": 88,
                    "time": 38.35895599999999,
                    "velocity": 0.5433070866141733,
                    "duration": 0.04544899999999785
                },
                {
                    "name": "C6",
                    "midi": 84,
                    "time": 38.35895599999999,
                    "velocity": 0.5433070866141733,
                    "duration": 0.04544899999999785
                },
                {
                    "name": "G5",
                    "midi": 79,
                    "time": 38.35895599999999,
                    "velocity": 0.4645669291338583,
                    "duration": 0.04544899999999785
                },
                {
                    "name": "E5",
                    "midi": 76,
                    "time": 38.35895599999999,
                    "velocity": 0.4645669291338583,
                    "duration": 0.04544899999999785
                },
                {
                    "name": "G7",
                    "midi": 103,
                    "time": 38.90434399999999,
                    "velocity": 0.7559055118110236,
                    "duration": 0.04544899999999785
                },
                {
                    "name": "C#4",
                    "midi": 61,
                    "time": 39.086139999999986,
                    "velocity": 0.6614173228346457,
                    "duration": 0.04544899999999785
                },
                {
                    "name": "D4",
                    "midi": 62,
                    "time": 39.267935999999985,
                    "velocity": 0.6614173228346457,
                    "duration": 0.04544899999999785
                },
                {
                    "name": "B3",
                    "midi": 59,
                    "time": 39.63152799999998,
                    "velocity": 0.5826771653543307,
                    "duration": 0.04544899999999785
                },
                {
                    "name": "C4",
                    "midi": 60,
                    "time": 39.752725333333316,
                    "velocity": 0.5590551181102362,
                    "duration": 0.04544899999999785
                },
                {
                    "name": "C#4",
                    "midi": 61,
                    "time": 39.87392266666665,
                    "velocity": 0.5354330708661418,
                    "duration": 0.04544899999999785
                },
                {
                    "name": "D4",
                    "midi": 62,
                    "time": 39.995119999999986,
                    "velocity": 0.5118110236220472,
                    "duration": 0.09089800000000281
                },
                {
                    "name": "D5",
                    "midi": 74,
                    "time": 40.35871199999999,
                    "velocity": 0.5433070866141733,
                    "duration": 0.09089800000000281
                },
                {
                    "name": "G3",
                    "midi": 55,
                    "time": 40.722303999999994,
                    "velocity": 0.41732283464566927,
                    "duration": 0.04544899999999785
                },
                {
                    "name": "G5",
                    "midi": 79,
                    "time": 41.08589599999999,
                    "velocity": 0.4330708661417323,
                    "duration": 0.04544899999999785
                },
                {
                    "name": "G3",
                    "midi": 55,
                    "time": 41.44948799999999,
                    "velocity": 0.4015748031496063,
                    "duration": 0.04544899999999785
                },
                {
                    "name": "F#5",
                    "midi": 78,
                    "time": 41.813079999999985,
                    "velocity": 0.4645669291338583,
                    "duration": 0.04544899999999785
                },
                {
                    "name": "G3",
                    "midi": 55,
                    "time": 42.17667199999998,
                    "velocity": 0.6141732283464567,
                    "duration": 0.09089800000000281
                },
                {
                    "name": "B3",
                    "midi": 59,
                    "time": 42.54026399999998,
                    "velocity": 0.5590551181102362,
                    "duration": 0.04544899999999785
                },
                {
                    "name": "C4",
                    "midi": 60,
                    "time": 42.661461333333314,
                    "velocity": 0.5354330708661418,
                    "duration": 0.04544899999999785
                },
                {
                    "name": "C#4",
                    "midi": 61,
                    "time": 42.78265866666665,
                    "velocity": 0.5118110236220472,
                    "duration": 0.04544899999999785
                },
                {
                    "name": "D4",
                    "midi": 62,
                    "time": 42.90385599999998,
                    "velocity": 0.49606299212598426,
                    "duration": 0.09089800000000281
                },
                {
                    "name": "D5",
                    "midi": 74,
                    "time": 43.26744799999999,
                    "velocity": 0.5196850393700787,
                    "duration": 0.09089800000000281
                },
                {
                    "name": "G3",
                    "midi": 55,
                    "time": 43.63103999999999,
                    "velocity": 0.41732283464566927,
                    "duration": 0.04544899999999785
                },
                {
                    "name": "G5",
                    "midi": 79,
                    "time": 43.99463199999999,
                    "velocity": 0.4645669291338583,
                    "duration": 0.04544899999999785
                },
                {
                    "name": "G3",
                    "midi": 55,
                    "time": 44.358223999999986,
                    "velocity": 0.4015748031496063,
                    "duration": 0.04544899999999785
                },
                {
                    "name": "F#5",
                    "midi": 78,
                    "time": 44.72181599999998,
                    "velocity": 0.4645669291338583,
                    "duration": 0.04544899999999785
                },
                {
                    "name": "G3",
                    "midi": 55,
                    "time": 45.08540799999998,
                    "velocity": 0.6141732283464567,
                    "duration": 0.09089800000000281
                },
                {
                    "name": "B3",
                    "midi": 59,
                    "time": 45.44899999999998,
                    "velocity": 0.5590551181102362,
                    "duration": 0.04544899999999785
                },
                {
                    "name": "C4",
                    "midi": 60,
                    "time": 45.57019733333331,
                    "velocity": 0.5354330708661418,
                    "duration": 0.04544899999999785
                },
                {
                    "name": "C#4",
                    "midi": 61,
                    "time": 45.691394666666646,
                    "velocity": 0.5118110236220472,
                    "duration": 0.04544899999999785
                },
                {
                    "name": "D4",
                    "midi": 62,
                    "time": 45.81259199999998,
                    "velocity": 0.49606299212598426,
                    "duration": 0.09089800000000281
                },
                {
                    "name": "D5",
                    "midi": 74,
                    "time": 46.176183999999985,
                    "velocity": 0.5196850393700787,
                    "duration": 0.09089800000000281
                },
                {
                    "name": "G3",
                    "midi": 55,
                    "time": 46.53977599999999,
                    "velocity": 0.41732283464566927,
                    "duration": 0.04544899999999785
                },
                {
                    "name": "G5",
                    "midi": 79,
                    "time": 46.903367999999986,
                    "velocity": 0.4409448818897638,
                    "duration": 0.04544899999999785
                },
                {
                    "name": "G3",
                    "midi": 55,
                    "time": 47.26695999999998,
                    "velocity": 0.4015748031496063,
                    "duration": 0.04544899999999785
                },
                {
                    "name": "G5",
                    "midi": 79,
                    "time": 47.63055199999998,
                    "velocity": 0.4645669291338583,
                    "duration": 0.04544899999999785
                },
                {
                    "name": "D#4",
                    "midi": 63,
                    "time": 47.99414399999998,
                    "velocity": 0.5984251968503937,
                    "duration": 0.09089800000000281
                },
                {
                    "name": "A#3",
                    "midi": 58,
                    "time": 48.357735999999974,
                    "velocity": 0.5354330708661418,
                    "duration": 0.04544899999999785
                },
                {
                    "name": "C#4",
                    "midi": 61,
                    "time": 48.47893333333331,
                    "velocity": 0.5196850393700787,
                    "duration": 0.04544899999999785
                },
                {
                    "name": "D4",
                    "midi": 62,
                    "time": 48.600130666666644,
                    "velocity": 0.5118110236220472,
                    "duration": 0.04544899999999785
                },
                {
                    "name": "D#4",
                    "midi": 63,
                    "time": 48.72132799999998,
                    "velocity": 0.49606299212598426,
                    "duration": 0.09089800000000281
                },
                {
                    "name": "D#5",
                    "midi": 75,
                    "time": 49.08491999999998,
                    "velocity": 0.5118110236220472,
                    "duration": 0.09089800000000281
                },
                {
                    "name": "G#3",
                    "midi": 56,
                    "time": 49.44851199999999,
                    "velocity": 0.41732283464566927,
                    "duration": 0.04544899999999785
                },
                {
                    "name": "G#5",
                    "midi": 80,
                    "time": 49.812103999999984,
                    "velocity": 0.3937007874015748,
                    "duration": 0.04544899999999785
                },
                {
                    "name": "G#3",
                    "midi": 56,
                    "time": 50.17569599999998,
                    "velocity": 0.4015748031496063,
                    "duration": 0.04544899999999785
                },
                {
                    "name": "G#5",
                    "midi": 80,
                    "time": 50.53928799999998,
                    "velocity": 0.4645669291338583,
                    "duration": 0.04544899999999785
                },
                {
                    "name": "E4",
                    "midi": 64,
                    "time": 50.902879999999975,
                    "velocity": 0.5984251968503937,
                    "duration": 0.09089800000000281
                },
                {
                    "name": "B3",
                    "midi": 59,
                    "time": 51.26647199999998,
                    "velocity": 0.5354330708661418,
                    "duration": 0.04544900000000496
                },
                {
                    "name": "D4",
                    "midi": 62,
                    "time": 51.38766933333332,
                    "velocity": 0.5196850393700787,
                    "duration": 0.04544899999999785
                },
                {
                    "name": "D#4",
                    "midi": 63,
                    "time": 51.508866666666655,
                    "velocity": 0.5118110236220472,
                    "duration": 0.04544899999999785
                },
                {
                    "name": "E4",
                    "midi": 64,
                    "time": 51.63006399999999,
                    "velocity": 0.49606299212598426,
                    "duration": 0.09089800000000281
                },
                {
                    "name": "E5",
                    "midi": 76,
                    "time": 51.993655999999994,
                    "velocity": 0.5118110236220472,
                    "duration": 0.09089800000000281
                },
                {
                    "name": "A3",
                    "midi": 57,
                    "time": 52.357248,
                    "velocity": 0.41732283464566927,
                    "duration": 0.04544899999999785
                },
                {
                    "name": "A5",
                    "midi": 81,
                    "time": 52.720839999999995,
                    "velocity": 0.4409448818897638,
                    "duration": 0.04544899999999785
                },
                {
                    "name": "A3",
                    "midi": 57,
                    "time": 53.08443199999999,
                    "velocity": 0.4015748031496063,
                    "duration": 0.04544899999999785
                },
                {
                    "name": "A5",
                    "midi": 81,
                    "time": 53.44802399999999,
                    "velocity": 0.4645669291338583,
                    "duration": 0.04544899999999785
                },
                {
                    "name": "F4",
                    "midi": 65,
                    "time": 53.81161599999999,
                    "velocity": 0.6141732283464567,
                    "duration": 0.09089800000000281
                },
                {
                    "name": "C4",
                    "midi": 60,
                    "time": 54.17520799999999,
                    "velocity": 0.5354330708661418,
                    "duration": 0.04544899999999785
                },
                {
                    "name": "D#4",
                    "midi": 63,
                    "time": 54.296405333333325,
                    "velocity": 0.5196850393700787,
                    "duration": 0.04544899999999785
                },
                {
                    "name": "E4",
                    "midi": 64,
                    "time": 54.41760266666666,
                    "velocity": 0.5118110236220472,
                    "duration": 0.04544899999999785
                },
                {
                    "name": "F4",
                    "midi": 65,
                    "time": 54.538799999999995,
                    "velocity": 0.49606299212598426,
                    "duration": 0.09089800000000281
                },
                {
                    "name": "F5",
                    "midi": 77,
                    "time": 54.902392,
                    "velocity": 0.5118110236220472,
                    "duration": 0.09089800000000281
                },
                {
                    "name": "A#3",
                    "midi": 58,
                    "time": 55.265984,
                    "velocity": 0.4566929133858268,
                    "duration": 0.09089800000000281
                },
                {
                    "name": "A#5",
                    "midi": 82,
                    "time": 55.62957600000001,
                    "velocity": 0.4566929133858268,
                    "duration": 0.09089800000000281
                },
                {
                    "name": "A#3",
                    "midi": 58,
                    "time": 55.99316800000001,
                    "velocity": 0.4566929133858268,
                    "duration": 0.09089800000000281
                },
                {
                    "name": "A#5",
                    "midi": 82,
                    "time": 56.356760000000016,
                    "velocity": 0.4566929133858268,
                    "duration": 0.09089800000000281
                },
                {
                    "name": "A#3",
                    "midi": 58,
                    "time": 56.72035200000002,
                    "velocity": 0.4566929133858268,
                    "duration": 0.09089800000000281
                },
                {
                    "name": "A#5",
                    "midi": 82,
                    "time": 57.083944000000024,
                    "velocity": 0.4566929133858268,
                    "duration": 0.09089800000000281
                },
                {
                    "name": "A#3",
                    "midi": 58,
                    "time": 57.44753600000003,
                    "velocity": 0.4566929133858268,
                    "duration": 0.09089800000000281
                },
                {
                    "name": "C#6",
                    "midi": 85,
                    "time": 57.81112800000003,
                    "velocity": 0.4566929133858268,
                    "duration": 0.09089800000000281
                },
                {
                    "name": "B3",
                    "midi": 59,
                    "time": 58.174720000000036,
                    "velocity": 0.47244094488188976,
                    "duration": 0.09089800000000281
                },
                {
                    "name": "B5",
                    "midi": 83,
                    "time": 58.53831200000004,
                    "velocity": 0.47244094488188976,
                    "duration": 0.09089800000000281
                },
                {
                    "name": "B3",
                    "midi": 59,
                    "time": 58.901904000000044,
                    "velocity": 0.4881889763779528,
                    "duration": 0.09089800000000281
                },
                {
                    "name": "B5",
                    "midi": 83,
                    "time": 59.26549600000005,
                    "velocity": 0.4881889763779528,
                    "duration": 0.09089800000000281
                },
                {
                    "name": "B3",
                    "midi": 59,
                    "time": 59.62908800000005,
                    "velocity": 0.5118110236220472,
                    "duration": 0.09089800000000281
                },
                {
                    "name": "B5",
                    "midi": 83,
                    "time": 59.99268000000006,
                    "velocity": 0.5433070866141733,
                    "duration": 0.09089800000000281
                },
                {
                    "name": "B3",
                    "midi": 59,
                    "time": 60.35627200000006,
                    "velocity": 0.5275590551181102,
                    "duration": 0.09089800000000281
                },
                {
                    "name": "D6",
                    "midi": 86,
                    "time": 60.719864000000065,
                    "velocity": 0.5511811023622047,
                    "duration": 0.09089800000000281
                },
                {
                    "name": "C4",
                    "midi": 60,
                    "time": 61.08345600000007,
                    "velocity": 0.5433070866141733,
                    "duration": 0.09089800000000281
                },
                {
                    "name": "C6",
                    "midi": 84,
                    "time": 61.44704800000007,
                    "velocity": 0.5590551181102362,
                    "duration": 0.09089800000000281
                },
                {
                    "name": "C4",
                    "midi": 60,
                    "time": 61.81064000000008,
                    "velocity": 0.5669291338582677,
                    "duration": 0.09089800000000281
                },
                {
                    "name": "C6",
                    "midi": 84,
                    "time": 62.17423200000008,
                    "velocity": 0.5748031496062992,
                    "duration": 0.09089800000000281
                },
                {
                    "name": "C4",
                    "midi": 60,
                    "time": 62.537824000000086,
                    "velocity": 0.5826771653543307,
                    "duration": 0.09089800000000281
                },
                {
                    "name": "C6",
                    "midi": 84,
                    "time": 62.90141600000009,
                    "velocity": 0.5984251968503937,
                    "duration": 0.09089800000000281
                },
                {
                    "name": "C4",
                    "midi": 60,
                    "time": 63.265008000000094,
                    "velocity": 0.6062992125984252,
                    "duration": 0.04544899999999785
                },
                {
                    "name": "D#6",
                    "midi": 87,
                    "time": 63.62860000000009,
                    "velocity": 0.6141732283464567,
                    "duration": 0.04544899999999785
                },
                {
                    "name": "C#4",
                    "midi": 61,
                    "time": 64.7193760000001,
                    "velocity": 0.4566929133858268,
                    "duration": 0.0908979999999957
                },
                {
                    "name": "F5",
                    "midi": 77,
                    "time": 65.0829680000001,
                    "velocity": 0.48031496062992124,
                    "duration": 0.04544900000000496
                },
                {
                    "name": "C#5",
                    "midi": 73,
                    "time": 65.0829680000001,
                    "velocity": 0.48031496062992124,
                    "duration": 0.04544900000000496
                },
                {
                    "name": "C4",
                    "midi": 60,
                    "time": 65.4465600000001,
                    "velocity": 0.4566929133858268,
                    "duration": 0.0908979999999957
                },
                {
                    "name": "F#5",
                    "midi": 78,
                    "time": 65.8101520000001,
                    "velocity": 0.4881889763779528,
                    "duration": 0.04544900000000496
                },
                {
                    "name": "D#5",
                    "midi": 75,
                    "time": 65.8101520000001,
                    "velocity": 0.4881889763779528,
                    "duration": 0.04544900000000496
                },
                {
                    "name": "C#4",
                    "midi": 61,
                    "time": 66.17374400000011,
                    "velocity": 0.4566929133858268,
                    "duration": 0.0908979999999957
                },
                {
                    "name": "F5",
                    "midi": 77,
                    "time": 66.53733600000011,
                    "velocity": 0.4566929133858268,
                    "duration": 0.04544900000000496
                },
                {
                    "name": "C#5",
                    "midi": 73,
                    "time": 66.53733600000011,
                    "velocity": 0.3858267716535433,
                    "duration": 0.04544900000000496
                },
                {
                    "name": "G#3",
                    "midi": 56,
                    "time": 66.90092800000012,
                    "velocity": 0.4566929133858268,
                    "duration": 0.0908979999999957
                },
                {
                    "name": "C5",
                    "midi": 72,
                    "time": 67.26452000000012,
                    "velocity": 0.3858267716535433,
                    "duration": 0.04544900000000496
                },
                {
                    "name": "G#5",
                    "midi": 80,
                    "time": 67.26452000000012,
                    "velocity": 0.4566929133858268,
                    "duration": 0.04544900000000496
                },
                {
                    "name": "C#4",
                    "midi": 61,
                    "time": 67.62811200000013,
                    "velocity": 0.3858267716535433,
                    "duration": 0.0908979999999957
                },
                {
                    "name": "E5",
                    "midi": 76,
                    "time": 67.99170400000013,
                    "velocity": 0.3858267716535433,
                    "duration": 0.04544900000000496
                },
                {
                    "name": "C#5",
                    "midi": 73,
                    "time": 67.99170400000013,
                    "velocity": 0.3228346456692913,
                    "duration": 0.04544900000000496
                },
                {
                    "name": "C4",
                    "midi": 60,
                    "time": 68.35529600000014,
                    "velocity": 0.3858267716535433,
                    "duration": 0.0908979999999957
                },
                {
                    "name": "D#5",
                    "midi": 75,
                    "time": 68.71888800000013,
                    "velocity": 0.3228346456692913,
                    "duration": 0.04544900000000496
                },
                {
                    "name": "F#5",
                    "midi": 78,
                    "time": 68.71888800000013,
                    "velocity": 0.3858267716535433,
                    "duration": 0.04544900000000496
                },
                {
                    "name": "C#4",
                    "midi": 61,
                    "time": 69.08248000000015,
                    "velocity": 0.3858267716535433,
                    "duration": 0.0908979999999957
                },
                {
                    "name": "E5",
                    "midi": 76,
                    "time": 69.44607200000014,
                    "velocity": 0.3858267716535433,
                    "duration": 0.04544900000000496
                },
                {
                    "name": "C#5",
                    "midi": 73,
                    "time": 69.44607200000014,
                    "velocity": 0.3228346456692913,
                    "duration": 0.04544900000000496
                },
                {
                    "name": "G#3",
                    "midi": 56,
                    "time": 69.80966400000015,
                    "velocity": 0.3858267716535433,
                    "duration": 0.0908979999999957
                },
                {
                    "name": "C5",
                    "midi": 72,
                    "time": 70.17325600000015,
                    "velocity": 0.3228346456692913,
                    "duration": 0.04544900000000496
                },
                {
                    "name": "G#5",
                    "midi": 80,
                    "time": 70.17325600000015,
                    "velocity": 0.3858267716535433,
                    "duration": 0.04544900000000496
                },
                {
                    "name": "C#4",
                    "midi": 61,
                    "time": 70.53684800000016,
                    "velocity": 0.3858267716535433,
                    "duration": 0.0908979999999957
                },
                {
                    "name": "E5",
                    "midi": 76,
                    "time": 70.90044000000016,
                    "velocity": 0.3937007874015748,
                    "duration": 0.04544900000000496
                },
                {
                    "name": "C#5",
                    "midi": 73,
                    "time": 70.90044000000016,
                    "velocity": 0.33858267716535434,
                    "duration": 0.04544900000000496
                },
                {
                    "name": "B3",
                    "midi": 59,
                    "time": 71.26403200000017,
                    "velocity": 0.4251968503937008,
                    "duration": 0.0908979999999957
                },
                {
                    "name": "D5",
                    "midi": 74,
                    "time": 71.62762400000017,
                    "velocity": 0.3858267716535433,
                    "duration": 0.04544900000000496
                },
                {
                    "name": "E5",
                    "midi": 76,
                    "time": 71.62762400000017,
                    "velocity": 0.4566929133858268,
                    "duration": 0.04544900000000496
                },
                {
                    "name": "A3",
                    "midi": 57,
                    "time": 71.99121600000018,
                    "velocity": 0.4881889763779528,
                    "duration": 0.0908979999999957
                },
                {
                    "name": "A5",
                    "midi": 81,
                    "time": 72.35480800000018,
                    "velocity": 0.5196850393700787,
                    "duration": 0.04544900000000496
                },
                {
                    "name": "C#5",
                    "midi": 73,
                    "time": 72.35480800000018,
                    "velocity": 0.4409448818897638,
                    "duration": 0.04544900000000496
                },
                {
                    "name": "A#3",
                    "midi": 58,
                    "time": 72.71840000000019,
                    "velocity": 0.5433070866141733,
                    "duration": 0.0908979999999957
                },
                {
                    "name": "E5",
                    "midi": 76,
                    "time": 73.08199200000018,
                    "velocity": 0.4881889763779528,
                    "duration": 0.04544900000000496
                },
                {
                    "name": "C#6",
                    "midi": 85,
                    "time": 73.08199200000018,
                    "velocity": 0.5826771653543307,
                    "duration": 0.04544900000000496
                },
                {
                    "name": "B3",
                    "midi": 59,
                    "time": 73.4455840000002,
                    "velocity": 0.6141732283464567,
                    "duration": 0.04544900000000496
                },
                {
                    "name": "B5",
                    "midi": 83,
                    "time": 73.6273800000002,
                    "velocity": 0.5118110236220472,
                    "duration": 0.04544900000000496
                },
                {
                    "name": "D#5",
                    "midi": 75,
                    "time": 73.6273800000002,
                    "velocity": 0.4251968503937008,
                    "duration": 0.04544900000000496
                },
                {
                    "name": "B4",
                    "midi": 71,
                    "time": 73.6273800000002,
                    "velocity": 0.4251968503937008,
                    "duration": 0.04544900000000496
                },
                {
                    "name": "D#4",
                    "midi": 63,
                    "time": 73.6273800000002,
                    "velocity": 0.3543307086614173,
                    "duration": 0.04544900000000496
                },
                {
                    "name": "F#4",
                    "midi": 66,
                    "time": 73.6273800000002,
                    "velocity": 0.3543307086614173,
                    "duration": 0.04544900000000496
                },
                {
                    "name": "A3",
                    "midi": 57,
                    "time": 73.80917600000019,
                    "velocity": 0.6456692913385826,
                    "duration": 0.04544899999999075
                },
                {
                    "name": "B5",
                    "midi": 83,
                    "time": 73.99097200000018,
                    "velocity": 0.5118110236220472,
                    "duration": 0.04544900000000496
                },
                {
                    "name": "F#5",
                    "midi": 78,
                    "time": 73.99097200000018,
                    "velocity": 0.4251968503937008,
                    "duration": 0.04544900000000496
                },
                {
                    "name": "D#5",
                    "midi": 75,
                    "time": 73.99097200000018,
                    "velocity": 0.4251968503937008,
                    "duration": 0.04544900000000496
                },
                {
                    "name": "B4",
                    "midi": 71,
                    "time": 73.99097200000018,
                    "velocity": 0.4251968503937008,
                    "duration": 0.04544900000000496
                },
                {
                    "name": "F#4",
                    "midi": 66,
                    "time": 73.99097200000018,
                    "velocity": 0.3543307086614173,
                    "duration": 0.04544900000000496
                },
                {
                    "name": "D#4",
                    "midi": 63,
                    "time": 73.99097200000018,
                    "velocity": 0.3543307086614173,
                    "duration": 0.04544900000000496
                },
                {
                    "name": "G#3",
                    "midi": 56,
                    "time": 74.17276800000019,
                    "velocity": 0.6377952755905512,
                    "duration": 0.04544900000000496
                },
                {
                    "name": "G#5",
                    "midi": 80,
                    "time": 74.3545640000002,
                    "velocity": 0.5118110236220472,
                    "duration": 0.04544900000000496
                },
                {
                    "name": "E5",
                    "midi": 76,
                    "time": 74.3545640000002,
                    "velocity": 0.4251968503937008,
                    "duration": 0.04544900000000496
                },
                {
                    "name": "B4",
                    "midi": 71,
                    "time": 74.3545640000002,
                    "velocity": 0.4251968503937008,
                    "duration": 0.04544900000000496
                },
                {
                    "name": "G#4",
                    "midi": 68,
                    "time": 74.3545640000002,
                    "velocity": 0.4251968503937008,
                    "duration": 0.04544900000000496
                },
                {
                    "name": "E4",
                    "midi": 64,
                    "time": 74.3545640000002,
                    "velocity": 0.3543307086614173,
                    "duration": 0.04544900000000496
                },
                {
                    "name": "B3",
                    "midi": 59,
                    "time": 74.3545640000002,
                    "velocity": 0.3543307086614173,
                    "duration": 0.04544900000000496
                },
                {
                    "name": "A3",
                    "midi": 57,
                    "time": 74.5363600000002,
                    "velocity": 0.6377952755905512,
                    "duration": 0.04544900000000496
                },
                {
                    "name": "A5",
                    "midi": 81,
                    "time": 74.7181560000002,
                    "velocity": 0.5118110236220472,
                    "duration": 0.04544900000000496
                },
                {
                    "name": "E5",
                    "midi": 76,
                    "time": 74.7181560000002,
                    "velocity": 0.4251968503937008,
                    "duration": 0.04544900000000496
                },
                {
                    "name": "C#5",
                    "midi": 73,
                    "time": 74.7181560000002,
                    "velocity": 0.4251968503937008,
                    "duration": 0.04544900000000496
                },
                {
                    "name": "A4",
                    "midi": 69,
                    "time": 74.7181560000002,
                    "velocity": 0.4251968503937008,
                    "duration": 0.04544900000000496
                },
                {
                    "name": "E4",
                    "midi": 64,
                    "time": 74.7181560000002,
                    "velocity": 0.3543307086614173,
                    "duration": 0.04544900000000496
                },
                {
                    "name": "C#4",
                    "midi": 61,
                    "time": 74.7181560000002,
                    "velocity": 0.3543307086614173,
                    "duration": 0.04544900000000496
                },
                {
                    "name": "B3",
                    "midi": 59,
                    "time": 74.89995200000021,
                    "velocity": 0.6299212598425197,
                    "duration": 0.04544900000000496
                },
                {
                    "name": "B5",
                    "midi": 83,
                    "time": 75.08174800000022,
                    "velocity": 0.5118110236220472,
                    "duration": 0.04544900000000496
                },
                {
                    "name": "G#5",
                    "midi": 80,
                    "time": 75.08174800000022,
                    "velocity": 0.4251968503937008,
                    "duration": 0.04544900000000496
                },
                {
                    "name": "E5",
                    "midi": 76,
                    "time": 75.08174800000022,
                    "velocity": 0.4251968503937008,
                    "duration": 0.04544900000000496
                },
                {
                    "name": "B4",
                    "midi": 71,
                    "time": 75.08174800000022,
                    "velocity": 0.4251968503937008,
                    "duration": 0.04544900000000496
                },
                {
                    "name": "G#4",
                    "midi": 68,
                    "time": 75.08174800000022,
                    "velocity": 0.3543307086614173,
                    "duration": 0.04544900000000496
                },
                {
                    "name": "E4",
                    "midi": 64,
                    "time": 75.08174800000022,
                    "velocity": 0.3543307086614173,
                    "duration": 0.04544900000000496
                },
                {
                    "name": "B3",
                    "midi": 59,
                    "time": 75.26354400000022,
                    "velocity": 0.6377952755905512,
                    "duration": 0.04544900000000496
                },
                {
                    "name": "B5",
                    "midi": 83,
                    "time": 75.44534000000023,
                    "velocity": 0.5118110236220472,
                    "duration": 0.04544900000000496
                },
                {
                    "name": "F#5",
                    "midi": 78,
                    "time": 75.44534000000023,
                    "velocity": 0.4251968503937008,
                    "duration": 0.04544900000000496
                },
                {
                    "name": "D#5",
                    "midi": 75,
                    "time": 75.44534000000023,
                    "velocity": 0.4251968503937008,
                    "duration": 0.04544900000000496
                },
                {
                    "name": "B4",
                    "midi": 71,
                    "time": 75.44534000000023,
                    "velocity": 0.4251968503937008,
                    "duration": 0.04544900000000496
                },
                {
                    "name": "F#4",
                    "midi": 66,
                    "time": 75.44534000000023,
                    "velocity": 0.3543307086614173,
                    "duration": 0.04544900000000496
                },
                {
                    "name": "D#4",
                    "midi": 63,
                    "time": 75.44534000000023,
                    "velocity": 0.3543307086614173,
                    "duration": 0.04544900000000496
                },
                {
                    "name": "E4",
                    "midi": 64,
                    "time": 75.62713600000023,
                    "velocity": 0.6377952755905512,
                    "duration": 0.36359199999999703
                },
                {
                    "name": "E6",
                    "midi": 88,
                    "time": 75.99072800000023,
                    "velocity": 0.6220472440944882,
                    "duration": 0.04544900000000496
                },
                {
                    "name": "B5",
                    "midi": 83,
                    "time": 75.99072800000023,
                    "velocity": 0.5196850393700787,
                    "duration": 0.04544900000000496
                },
                {
                    "name": "G#5",
                    "midi": 80,
                    "time": 75.99072800000023,
                    "velocity": 0.5196850393700787,
                    "duration": 0.04544900000000496
                },
                {
                    "name": "E5",
                    "midi": 76,
                    "time": 75.99072800000023,
                    "velocity": 0.5196850393700787,
                    "duration": 0.04544900000000496
                },
                {
                    "name": "B4",
                    "midi": 71,
                    "time": 75.99072800000023,
                    "velocity": 0.4330708661417323,
                    "duration": 0.04544900000000496
                },
                {
                    "name": "G#4",
                    "midi": 68,
                    "time": 75.99072800000023,
                    "velocity": 0.4330708661417323,
                    "duration": 0.04544900000000496
                },
                {
                    "name": "E4",
                    "midi": 64,
                    "time": 76.35432000000023,
                    "velocity": 0.4566929133858268,
                    "duration": 0.04544900000000496
                },
                {
                    "name": "E5",
                    "midi": 76,
                    "time": 76.71791200000024,
                    "velocity": 0.4566929133858268,
                    "duration": 0.04544900000000496
                },
                {
                    "name": "E4",
                    "midi": 64,
                    "time": 77.08150400000025,
                    "velocity": 0.4566929133858268,
                    "duration": 0.04544900000000496
                },
                {
                    "name": "E5",
                    "midi": 76,
                    "time": 77.44509600000026,
                    "velocity": 0.4566929133858268,
                    "duration": 0.04544900000000496
                },
                {
                    "name": "E4",
                    "midi": 64,
                    "time": 77.80868800000027,
                    "velocity": 0.4566929133858268,
                    "duration": 0.04544900000000496
                },
                {
                    "name": "E5",
                    "midi": 76,
                    "time": 78.17228000000028,
                    "velocity": 0.4566929133858268,
                    "duration": 0.04544900000000496
                },
                {
                    "name": "E4",
                    "midi": 64,
                    "time": 78.5358720000003,
                    "velocity": 0.4566929133858268,
                    "duration": 0.04544899999999075
                },
                {
                    "name": "E4",
                    "midi": 64,
                    "time": 78.8994640000003,
                    "velocity": 0.5275590551181102,
                    "duration": 0.04544900000000496
                },
                {
                    "name": "F#4",
                    "midi": 66,
                    "time": 79.02066133333363,
                    "velocity": 0.4645669291338583,
                    "duration": 0.04544900000000496
                },
                {
                    "name": "G#4",
                    "midi": 68,
                    "time": 79.14185866666698,
                    "velocity": 0.47244094488188976,
                    "duration": 0.04544900000000496
                },
                {
                    "name": "A4",
                    "midi": 69,
                    "time": 79.26305600000032,
                    "velocity": 0.5275590551181102,
                    "duration": 0.0908979999999957
                },
                {
                    "name": "A3",
                    "midi": 57,
                    "time": 79.62664800000032,
                    "velocity": 0.5275590551181102,
                    "duration": 0.09089800000000992
                },
                {
                    "name": "A#3",
                    "midi": 58,
                    "time": 79.80844400000032,
                    "velocity": 0.5196850393700787,
                    "duration": 0.0908979999999957
                },
                {
                    "name": "B3",
                    "midi": 59,
                    "time": 79.99024000000031,
                    "velocity": 0.5275590551181102,
                    "duration": 0.0908979999999957
                },
                {
                    "name": "B3",
                    "midi": 59,
                    "time": 80.7174240000003,
                    "velocity": 0.5039370078740157,
                    "duration": 0.0908979999999957
                },
                {
                    "name": "E4",
                    "midi": 64,
                    "time": 81.4446080000003,
                    "velocity": 0.47244094488188976,
                    "duration": 0.0908979999999957
                },
                {
                    "name": "G#6",
                    "midi": 92,
                    "time": 81.8082000000003,
                    "velocity": 0.5826771653543307,
                    "duration": 0.04544900000000496
                },
                {
                    "name": "E6",
                    "midi": 88,
                    "time": 81.9899960000003,
                    "velocity": 0.5511811023622047,
                    "duration": 0.04544900000000496
                },
                {
                    "name": "E4",
                    "midi": 64,
                    "time": 82.17179200000031,
                    "velocity": 0.44881889763779526,
                    "duration": 0.0908979999999957
                },
                {
                    "name": "E4",
                    "midi": 64,
                    "time": 82.8989760000003,
                    "velocity": 0.44881889763779526,
                    "duration": 0.0908979999999957
                },
                {
                    "name": "E4",
                    "midi": 64,
                    "time": 83.6261600000003,
                    "velocity": 0.44881889763779526,
                    "duration": 0.0908979999999957
                },
                {
                    "name": "E4",
                    "midi": 64,
                    "time": 84.35334400000029,
                    "velocity": 0.5511811023622047,
                    "duration": 0.0908979999999957
                },
                {
                    "name": "D#4",
                    "midi": 63,
                    "time": 84.83813333333362,
                    "velocity": 0.47244094488188976,
                    "duration": 0.04544900000000496
                },
                {
                    "name": "D4",
                    "midi": 62,
                    "time": 84.95933066666696,
                    "velocity": 0.4881889763779528,
                    "duration": 0.04544900000000496
                },
                {
                    "name": "C#4",
                    "midi": 61,
                    "time": 85.0805280000003,
                    "velocity": 0.5590551181102362,
                    "duration": 0.0908979999999957
                },
                {
                    "name": "A3",
                    "midi": 57,
                    "time": 85.4441200000003,
                    "velocity": 0.5669291338582677,
                    "duration": 0.0908979999999957
                },
                {
                    "name": "B3",
                    "midi": 59,
                    "time": 85.8077120000003,
                    "velocity": 0.5118110236220472,
                    "duration": 0.0908979999999957
                },
                {
                    "name": "B3",
                    "midi": 59,
                    "time": 86.53489600000029,
                    "velocity": 0.5039370078740157,
                    "duration": 0.0908979999999957
                },
                {
                    "name": "E4",
                    "midi": 64,
                    "time": 87.26208000000028,
                    "velocity": 0.5118110236220472,
                    "duration": 0.0908979999999957
                },
                {
                    "name": "E4",
                    "midi": 64,
                    "time": 87.98926400000028,
                    "velocity": 0.5039370078740157,
                    "duration": 0.0908979999999957
                },
                {
                    "name": "E4",
                    "midi": 64,
                    "time": 88.71644800000027,
                    "velocity": 0.5118110236220472,
                    "duration": 0.0908979999999957
                },
                {
                    "name": "E4",
                    "midi": 64,
                    "time": 89.44363200000026,
                    "velocity": 0.5433070866141733,
                    "duration": 0.0908979999999957
                },
                {
                    "name": "E4",
                    "midi": 64,
                    "time": 90.17081600000026,
                    "velocity": 0.5984251968503937,
                    "duration": 0.0908979999999957
                },
                {
                    "name": "C#4",
                    "midi": 61,
                    "time": 90.89800000000025,
                    "velocity": 0.6299212598425197,
                    "duration": 0.0908979999999957
                },
                {
                    "name": "C#4",
                    "midi": 61,
                    "time": 91.26159200000025,
                    "velocity": 0.6141732283464567,
                    "duration": 0.04544900000000496
                },
                {
                    "name": "A#3",
                    "midi": 58,
                    "time": 91.44338800000025,
                    "velocity": 0.6535433070866141,
                    "duration": 0.04544900000000496
                },
                {
                    "name": "B3",
                    "midi": 59,
                    "time": 91.62518400000026,
                    "velocity": 0.6771653543307087,
                    "duration": 0.04544900000000496
                },
                {
                    "name": "G#4",
                    "midi": 68,
                    "time": 91.98877600000026,
                    "velocity": 0.5905511811023622,
                    "duration": 0.04544900000000496
                },
                {
                    "name": "A4",
                    "midi": 69,
                    "time": 92.1099733333336,
                    "velocity": 0.5826771653543307,
                    "duration": 0.04544900000000496
                },
                {
                    "name": "A#4",
                    "midi": 70,
                    "time": 92.23117066666694,
                    "velocity": 0.5748031496062992,
                    "duration": 0.04544900000000496
                },
                {
                    "name": "B3",
                    "midi": 59,
                    "time": 92.71596000000028,
                    "velocity": 0.5669291338582677,
                    "duration": 0.0908979999999957
                },
                {
                    "name": "E4",
                    "midi": 64,
                    "time": 93.07955200000028,
                    "velocity": 0.5118110236220472,
                    "duration": 0.0908979999999957
                },
                {
                    "name": "E4",
                    "midi": 64,
                    "time": 93.80673600000027,
                    "velocity": 0.5039370078740157,
                    "duration": 0.0908979999999957
                },
                {
                    "name": "E4",
                    "midi": 64,
                    "time": 94.53392000000026,
                    "velocity": 0.5118110236220472,
                    "duration": 0.0908979999999957
                },
                {
                    "name": "E4",
                    "midi": 64,
                    "time": 95.26110400000026,
                    "velocity": 0.5275590551181102,
                    "duration": 0.0908979999999957
                },
                {
                    "name": "E4",
                    "midi": 64,
                    "time": 95.98828800000025,
                    "velocity": 0.5669291338582677,
                    "duration": 0.0908979999999957
                },
                {
                    "name": "C4",
                    "midi": 60,
                    "time": 96.71547200000025,
                    "velocity": 0.5905511811023622,
                    "duration": 0.0908979999999957
                },
                {
                    "name": "G5",
                    "midi": 79,
                    "time": 97.07906400000024,
                    "velocity": 0.6062992125984252,
                    "duration": 0.04544900000000496
                },
                {
                    "name": "E5",
                    "midi": 76,
                    "time": 97.26086000000025,
                    "velocity": 0.6141732283464567,
                    "duration": 0.04544900000000496
                },
                {
                    "name": "B3",
                    "midi": 59,
                    "time": 97.44265600000026,
                    "velocity": 0.6141732283464567,
                    "duration": 0.04544900000000496
                },
                {
                    "name": "B3",
                    "midi": 59,
                    "time": 98.2910373333336,
                    "velocity": 0.4330708661417323,
                    "duration": 0.04544900000000496
                },
                {
                    "name": "C#4",
                    "midi": 61,
                    "time": 98.41223466666695,
                    "velocity": 0.44881889763779526,
                    "duration": 0.04544900000000496
                },
                {
                    "name": "B3",
                    "midi": 59,
                    "time": 98.53343200000029,
                    "velocity": 0.3937007874015748,
                    "duration": 0.04544900000000496
                },
                {
                    "name": "D#4",
                    "midi": 63,
                    "time": 98.53343200000029,
                    "velocity": 0.4645669291338583,
                    "duration": 0.04544900000000496
                },
                {
                    "name": "E4",
                    "midi": 64,
                    "time": 98.65462933333363,
                    "velocity": 0.48031496062992124,
                    "duration": 0.04544900000000496
                },
                {
                    "name": "F#4",
                    "midi": 66,
                    "time": 98.77582666666697,
                    "velocity": 0.49606299212598426,
                    "duration": 0.04544900000000496
                },
                {
                    "name": "E4",
                    "midi": 64,
                    "time": 98.89702400000031,
                    "velocity": 0.4251968503937008,
                    "duration": 0.04544900000000496
                },
                {
                    "name": "G#4",
                    "midi": 68,
                    "time": 98.89702400000031,
                    "velocity": 0.4251968503937008,
                    "duration": 0.04544900000000496
                },
                {
                    "name": "E4",
                    "midi": 64,
                    "time": 99.62420800000032,
                    "velocity": 0.3779527559055118,
                    "duration": 0.04544900000000496
                },
                {
                    "name": "E4",
                    "midi": 64,
                    "time": 100.35139200000033,
                    "velocity": 0.3779527559055118,
                    "duration": 0.04544900000000496
                },
                {
                    "name": "E4",
                    "midi": 64,
                    "time": 101.07857600000034,
                    "velocity": 0.3779527559055118,
                    "duration": 0.04544900000000496
                },
                {
                    "name": "E4",
                    "midi": 64,
                    "time": 101.80576000000035,
                    "velocity": 0.3779527559055118,
                    "duration": 0.04544900000000496
                },
                {
                    "name": "E4",
                    "midi": 64,
                    "time": 102.53294400000036,
                    "velocity": 0.3779527559055118,
                    "duration": 0.04544900000000496
                },
                {
                    "name": "E4",
                    "midi": 64,
                    "time": 103.26012800000036,
                    "velocity": 0.3779527559055118,
                    "duration": 0.04544900000000496
                }
            ],
            "controlChanges": {
                "7": [
                    {
                        "number": 7,
                        "time": 0,
                        "value": 0.7874015748031497
                    }
                ],
                "10": [
                    {
                        "number": 10,
                        "time": 0,
                        "value": 0.5039370078740157
                    }
                ],
                "64": [
                    {
                        "number": 64,
                        "time": 0.005302383333333334,
                        "value": 0
                    },
                    {
                        "number": 64,
                        "time": 23.289582566666695,
                        "value": 1
                    },
                    {
                        "number": 64,
                        "time": 23.691806216666695,
                        "value": 0
                    },
                    {
                        "number": 64,
                        "time": 38.564233983333324,
                        "value": 1
                    },
                    {
                        "number": 64,
                        "time": 38.92631101666665,
                        "value": 0
                    },
                    {
                        "number": 64,
                        "time": 42.33044111666665,
                        "value": 1
                    },
                    {
                        "number": 64,
                        "time": 42.550868766666646,
                        "value": 0
                    },
                    {
                        "number": 64,
                        "time": 45.22857234999998,
                        "value": 1
                    },
                    {
                        "number": 64,
                        "time": 45.457332316666644,
                        "value": 0
                    },
                    {
                        "number": 64,
                        "time": 48.13503589999998,
                        "value": 1
                    },
                    {
                        "number": 64,
                        "time": 48.36606831666664,
                        "value": 0
                    },
                    {
                        "number": 64,
                        "time": 51.039226999999975,
                        "value": 1
                    },
                    {
                        "number": 64,
                        "time": 51.274046833333315,
                        "value": 0
                    },
                    {
                        "number": 64,
                        "time": 53.956295316666655,
                        "value": 1
                    },
                    {
                        "number": 64,
                        "time": 54.17520799999999,
                        "value": 0
                    },
                    {
                        "number": 64,
                        "time": 63.368783216666756,
                        "value": 1
                    },
                    {
                        "number": 64,
                        "time": 64.0376410000001,
                        "value": 0
                    },
                    {
                        "number": 64,
                        "time": 73.46300611666686,
                        "value": 1
                    },
                    {
                        "number": 64,
                        "time": 73.5387544500002,
                        "value": 0
                    },
                    {
                        "number": 64,
                        "time": 73.64252966666687,
                        "value": 1
                    },
                    {
                        "number": 64,
                        "time": 73.68343376666687,
                        "value": 0
                    },
                    {
                        "number": 64,
                        "time": 73.81978076666685,
                        "value": 1
                    },
                    {
                        "number": 64,
                        "time": 73.90007400000019,
                        "value": 0
                    },
                    {
                        "number": 64,
                        "time": 74.01672643333352,
                        "value": 1
                    },
                    {
                        "number": 64,
                        "time": 74.06899278333353,
                        "value": 0
                    },
                    {
                        "number": 64,
                        "time": 74.19019011666686,
                        "value": 1
                    },
                    {
                        "number": 64,
                        "time": 74.2613935500002,
                        "value": 0
                    },
                    {
                        "number": 64,
                        "time": 74.37804598333354,
                        "value": 1
                    },
                    {
                        "number": 64,
                        "time": 74.43485723333353,
                        "value": 0
                    },
                    {
                        "number": 64,
                        "time": 74.55150966666687,
                        "value": 1
                    },
                    {
                        "number": 64,
                        "time": 74.61892568333354,
                        "value": 0
                    },
                    {
                        "number": 64,
                        "time": 74.73330566666688,
                        "value": 1
                    },
                    {
                        "number": 64,
                        "time": 74.80450910000022,
                        "value": 0
                    },
                    {
                        "number": 64,
                        "time": 74.91737411666688,
                        "value": 1
                    },
                    {
                        "number": 64,
                        "time": 74.99085000000022,
                        "value": 0
                    },
                    {
                        "number": 64,
                        "time": 75.09462521666688,
                        "value": 1
                    },
                    {
                        "number": 64,
                        "time": 75.16582865000022,
                        "value": 0
                    },
                    {
                        "number": 64,
                        "time": 75.2786936666669,
                        "value": 1
                    },
                    {
                        "number": 64,
                        "time": 75.3173253166669,
                        "value": 0
                    },
                    {
                        "number": 64,
                        "time": 75.4650345666669,
                        "value": 1
                    },
                    {
                        "number": 64,
                        "time": 75.5536601166669,
                        "value": 0
                    },
                    {
                        "number": 64,
                        "time": 75.6695550666669,
                        "value": 1
                    },
                    {
                        "number": 64,
                        "time": 76.04981170000023,
                        "value": 0
                    },
                    {
                        "number": 64,
                        "time": 78.57601861666696,
                        "value": 1
                    },
                    {
                        "number": 64,
                        "time": 78.90779631666696,
                        "value": 0
                    },
                    {
                        "number": 64,
                        "time": 79.65088746666699,
                        "value": 1
                    },
                    {
                        "number": 64,
                        "time": 79.81677631666699,
                        "value": 0
                    },
                    {
                        "number": 64,
                        "time": 91.75925855000027,
                        "value": 1
                    },
                    {
                        "number": 64,
                        "time": 91.86757866666693,
                        "value": 0
                    },
                    {
                        "number": 64,
                        "time": 91.98877600000026,
                        "value": 1
                    },
                    {
                        "number": 64,
                        "time": 92.13800021666694,
                        "value": 0
                    },
                    {
                        "number": 64,
                        "time": 97.9478973833336,
                        "value": 1
                    },
                    {
                        "number": 64,
                        "time": 98.05773246666693,
                        "value": 0
                    },
                    {
                        "number": 64,
                        "time": 98.31451931666695,
                        "value": 1
                    },
                    {
                        "number": 64,
                        "time": 98.42132446666695,
                        "value": 0
                    },
                    {
                        "number": 64,
                        "time": 110.37441146666704,
                        "value": 1
                    },
                    {
                        "number": 64,
                        "time": 111.40080138333371,
                        "value": 0
                    }
                ]
            },
            "id": 2,
            "name": "Piano left",
            "instrumentNumber": 0,
            "instrument": "acoustic grand piano",
            "instrumentFamily": "piano",
            "channelNumber": 0,
            "isPercussion": false
        },
        {
            "startTime": 0,
            "duration": 0,
            "length": 0,
            "notes": [],
            "controlChanges": {},
            "id": 3,
            "name": "Liszt: Etude No. 4 from Grandes Etudes de Paganini"
        },
        {
            "startTime": 0,
            "duration": 0,
            "length": 0,
            "notes": [],
            "controlChanges": {},
            "id": 4,
            "name": "Copyright  2004 by Bernd Krger"
        },
        {
            "startTime": 0,
            "duration": 0,
            "length": 0,
            "notes": [],
            "controlChanges": {},
            "id": 5,
            "name": "http://www.piano-midi.de"
        },
        {
            "startTime": 0,
            "duration": 0,
            "length": 0,
            "notes": [],
            "controlChanges": {},
            "id": 6,
            "name": "Edition: 2014-03-04"
        },
        {
            "startTime": 0,
            "duration": 0,
            "length": 0,
            "notes": [],
            "controlChanges": {},
            "id": 7,
            "name": "Spur 7"
        },
        {
            "startTime": 0,
            "duration": 0,
            "length": 0,
            "notes": [],
            "controlChanges": {},
            "id": 8,
            "name": "Spur 8"
        }
    ]
}