{
    "header": {
        "PPQ": 480,
        "timeSignature": [
            2,
            4
        ],
        "bpm": 100,
        "name": "Feux Follets (Irrlichter)"
    },
    "startTime": 0,
    "duration": 158.51249999999973,
    "tracks": [
        {
            "startTime": 0,
            "duration": 0,
            "length": 0,
            "notes": [],
            "controlChanges": {},
            "id": 0,
            "name": "Feux Follets (Irrlichter)"
        },
        {
            "startTime": 0.3,
            "duration": 158.09999999999985,
            "length": 2718,
            "notes": [
                {
                    "name": "F4",
                    "midi": 65,
                    "time": 0.3,
                    "velocity": 0.29133858267716534,
                    "duration": 0.09000000000000002
                },
                {
                    "name": "F#4",
                    "midi": 66,
                    "time": 0.375,
                    "velocity": 0.29133858267716534,
                    "duration": 0.09000000000000002
                },
                {
                    "name": "F4",
                    "midi": 65,
                    "time": 0.45,
                    "velocity": 0.29133858267716534,
                    "duration": 0.09000000000000002
                },
                {
                    "name": "G4",
                    "midi": 67,
                    "time": 0.525,
                    "velocity": 0.2992125984251969,
                    "duration": 0.09000000000000008
                },
                {
                    "name": "G#4",
                    "midi": 68,
                    "time": 0.6000000000000001,
                    "velocity": 0.2992125984251969,
                    "duration": 0.08999999999999997
                },
                {
                    "name": "A4",
                    "midi": 69,
                    "time": 0.675,
                    "velocity": 0.2992125984251969,
                    "duration": 0.08999999999999997
                },
                {
                    "name": "G#4",
                    "midi": 68,
                    "time": 0.75,
                    "velocity": 0.30708661417322836,
                    "duration": 0.08999999999999997
                },
                {
                    "name": "A#4",
                    "midi": 70,
                    "time": 0.825,
                    "velocity": 0.30708661417322836,
                    "duration": 0.08999999999999997
                },
                {
                    "name": "B4",
                    "midi": 71,
                    "time": 0.8999999999999999,
                    "velocity": 0.30708661417322836,
                    "duration": 0.08999999999999997
                },
                {
                    "name": "C5",
                    "midi": 72,
                    "time": 0.9749999999999999,
                    "velocity": 0.3228346456692913,
                    "duration": 0.08999999999999986
                },
                {
                    "name": "B4",
                    "midi": 71,
                    "time": 1.0499999999999998,
                    "velocity": 0.3228346456692913,
                    "duration": 0.08999999999999986
                },
                {
                    "name": "C#5",
                    "midi": 73,
                    "time": 1.1249999999999998,
                    "velocity": 0.3228346456692913,
                    "duration": 0.08999999999999986
                },
                {
                    "name": "D5",
                    "midi": 74,
                    "time": 1.1999999999999997,
                    "velocity": 0.33070866141732286,
                    "duration": 0.08999999999999986
                },
                {
                    "name": "D#5",
                    "midi": 75,
                    "time": 1.2749999999999997,
                    "velocity": 0.33070866141732286,
                    "duration": 0.08999999999999986
                },
                {
                    "name": "D5",
                    "midi": 74,
                    "time": 1.3499999999999996,
                    "velocity": 0.33070866141732286,
                    "duration": 0.08999999999999986
                },
                {
                    "name": "E5",
                    "midi": 76,
                    "time": 1.4249999999999996,
                    "velocity": 0.33858267716535434,
                    "duration": 0.08999999999999986
                },
                {
                    "name": "F5",
                    "midi": 77,
                    "time": 1.4999999999999996,
                    "velocity": 0.33858267716535434,
                    "duration": 0.08999999999999986
                },
                {
                    "name": "F#5",
                    "midi": 78,
                    "time": 1.5749999999999995,
                    "velocity": 0.33858267716535434,
                    "duration": 0.08999999999999986
                },
                {
                    "name": "F5",
                    "midi": 77,
                    "time": 1.6499999999999995,
                    "velocity": 0.3464566929133858,
                    "duration": 0.08999999999999986
                },
                {
                    "name": "G5",
                    "midi": 79,
                    "time": 1.7249999999999994,
                    "velocity": 0.3464566929133858,
                    "duration": 0.08999999999999986
                },
                {
                    "name": "G#5",
                    "midi": 80,
                    "time": 1.7999999999999994,
                    "velocity": 0.3464566929133858,
                    "duration": 0.08999999999999986
                },
                {
                    "name": "A5",
                    "midi": 81,
                    "time": 1.8749999999999993,
                    "velocity": 0.3543307086614173,
                    "duration": 0.08999999999999986
                },
                {
                    "name": "G#5",
                    "midi": 80,
                    "time": 1.9499999999999993,
                    "velocity": 0.3543307086614173,
                    "duration": 0.08999999999999986
                },
                {
                    "name": "A#5",
                    "midi": 82,
                    "time": 2.024999999999999,
                    "velocity": 0.3543307086614173,
                    "duration": 0.0900000000000003
                },
                {
                    "name": "B5",
                    "midi": 83,
                    "time": 2.099999999999999,
                    "velocity": 0.3543307086614173,
                    "duration": 0.0900000000000003
                },
                {
                    "name": "C6",
                    "midi": 84,
                    "time": 2.1749999999999994,
                    "velocity": 0.3543307086614173,
                    "duration": 0.0900000000000003
                },
                {
                    "name": "B5",
                    "midi": 83,
                    "time": 2.2499999999999996,
                    "velocity": 0.3543307086614173,
                    "duration": 0.0900000000000003
                },
                {
                    "name": "D6",
                    "midi": 86,
                    "time": 2.3249999999999997,
                    "velocity": 0.36220472440944884,
                    "duration": 0.0900000000000003
                },
                {
                    "name": "C6",
                    "midi": 84,
                    "time": 2.4,
                    "velocity": 0.36220472440944884,
                    "duration": 0.0900000000000003
                },
                {
                    "name": "C#6",
                    "midi": 85,
                    "time": 2.475,
                    "velocity": 0.36220472440944884,
                    "duration": 0.0900000000000003
                },
                {
                    "name": "C6",
                    "midi": 84,
                    "time": 2.5500000000000003,
                    "velocity": 0.3779527559055118,
                    "duration": 0.0900000000000003
                },
                {
                    "name": "D6",
                    "midi": 86,
                    "time": 2.6250000000000004,
                    "velocity": 0.3779527559055118,
                    "duration": 0.0900000000000003
                },
                {
                    "name": "D#6",
                    "midi": 87,
                    "time": 2.7000000000000006,
                    "velocity": 0.3779527559055118,
                    "duration": 0.0900000000000003
                },
                {
                    "name": "F6",
                    "midi": 89,
                    "time": 2.775000000000001,
                    "velocity": 0.3858267716535433,
                    "duration": 0.0900000000000003
                },
                {
                    "name": "D#6",
                    "midi": 87,
                    "time": 2.850000000000001,
                    "velocity": 0.3858267716535433,
                    "duration": 0.0900000000000003
                },
                {
                    "name": "F#6",
                    "midi": 90,
                    "time": 2.925000000000001,
                    "velocity": 0.3858267716535433,
                    "duration": 0.0900000000000003
                },
                {
                    "name": "G6",
                    "midi": 91,
                    "time": 3.0000000000000013,
                    "velocity": 0.3937007874015748,
                    "duration": 0.0900000000000003
                },
                {
                    "name": "G#6",
                    "midi": 92,
                    "time": 3.0750000000000015,
                    "velocity": 0.3937007874015748,
                    "duration": 0.0900000000000003
                },
                {
                    "name": "G6",
                    "midi": 91,
                    "time": 3.1500000000000017,
                    "velocity": 0.3937007874015748,
                    "duration": 0.0900000000000003
                },
                {
                    "name": "B6",
                    "midi": 95,
                    "time": 3.225000000000002,
                    "velocity": 0.4015748031496063,
                    "duration": 0.0900000000000003
                },
                {
                    "name": "C7",
                    "midi": 96,
                    "time": 3.300000000000002,
                    "velocity": 0.4015748031496063,
                    "duration": 0.0900000000000003
                },
                {
                    "name": "C#7",
                    "midi": 97,
                    "time": 3.375000000000002,
                    "velocity": 0.4015748031496063,
                    "duration": 0.0900000000000003
                },
                {
                    "name": "C7",
                    "midi": 96,
                    "time": 3.4500000000000024,
                    "velocity": 0.4094488188976378,
                    "duration": 0.0900000000000003
                },
                {
                    "name": "D7",
                    "midi": 98,
                    "time": 3.5250000000000026,
                    "velocity": 0.4094488188976378,
                    "duration": 0.0900000000000003
                },
                {
                    "name": "D#7",
                    "midi": 99,
                    "time": 3.6000000000000028,
                    "velocity": 0.4251968503937008,
                    "duration": 0.07500000000000018
                },
                {
                    "name": "D7",
                    "midi": 98,
                    "time": 3.675000000000003,
                    "velocity": 0.4251968503937008,
                    "duration": 0.07500000000000018
                },
                {
                    "name": "D#7",
                    "midi": 99,
                    "time": 3.750000000000003,
                    "velocity": 0.41732283464566927,
                    "duration": 0.07500000000000018
                },
                {
                    "name": "C#7",
                    "midi": 97,
                    "time": 3.8250000000000033,
                    "velocity": 0.41732283464566927,
                    "duration": 0.07500000000000018
                },
                {
                    "name": "C7",
                    "midi": 96,
                    "time": 3.9000000000000035,
                    "velocity": 0.4094488188976378,
                    "duration": 0.07500000000000018
                },
                {
                    "name": "B6",
                    "midi": 95,
                    "time": 3.9750000000000036,
                    "velocity": 0.4094488188976378,
                    "duration": 0.07499999999999973
                },
                {
                    "name": "C7",
                    "midi": 96,
                    "time": 4.050000000000003,
                    "velocity": 0.4015748031496063,
                    "duration": 0.07500000000000018
                },
                {
                    "name": "A#6",
                    "midi": 94,
                    "time": 4.1250000000000036,
                    "velocity": 0.4015748031496063,
                    "duration": 0.07500000000000018
                },
                {
                    "name": "A6",
                    "midi": 93,
                    "time": 4.200000000000004,
                    "velocity": 0.3937007874015748,
                    "duration": 0.07500000000000018
                },
                {
                    "name": "G#6",
                    "midi": 92,
                    "time": 4.275000000000004,
                    "velocity": 0.3937007874015748,
                    "duration": 0.07500000000000018
                },
                {
                    "name": "A6",
                    "midi": 93,
                    "time": 4.350000000000004,
                    "velocity": 0.3858267716535433,
                    "duration": 0.07500000000000018
                },
                {
                    "name": "G6",
                    "midi": 91,
                    "time": 4.425000000000004,
                    "velocity": 0.3858267716535433,
                    "duration": 0.07500000000000018
                },
                {
                    "name": "F#6",
                    "midi": 90,
                    "time": 4.500000000000004,
                    "velocity": 0.3779527559055118,
                    "duration": 0.07500000000000018
                },
                {
                    "name": "F6",
                    "midi": 89,
                    "time": 4.575000000000005,
                    "velocity": 0.3779527559055118,
                    "duration": 0.07500000000000018
                },
                {
                    "name": "F#6",
                    "midi": 90,
                    "time": 4.650000000000005,
                    "velocity": 0.36220472440944884,
                    "duration": 0.07500000000000018
                },
                {
                    "name": "E6",
                    "midi": 88,
                    "time": 4.725000000000005,
                    "velocity": 0.3543307086614173,
                    "duration": 0.07500000000000018
                },
                {
                    "name": "D#6",
                    "midi": 87,
                    "time": 4.800000000000005,
                    "velocity": 0.3464566929133858,
                    "duration": 0.07500000000000018
                },
                {
                    "name": "D6",
                    "midi": 86,
                    "time": 4.875000000000005,
                    "velocity": 0.3464566929133858,
                    "duration": 0.07500000000000018
                },
                {
                    "name": "D#6",
                    "midi": 87,
                    "time": 4.9500000000000055,
                    "velocity": 0.3464566929133858,
                    "duration": 0.07500000000000018
                },
                {
                    "name": "C#6",
                    "midi": 85,
                    "time": 5.025000000000006,
                    "velocity": 0.33858267716535434,
                    "duration": 0.07500000000000018
                },
                {
                    "name": "C6",
                    "midi": 84,
                    "time": 5.100000000000006,
                    "velocity": 0.33858267716535434,
                    "duration": 0.07500000000000018
                },
                {
                    "name": "B5",
                    "midi": 83,
                    "time": 5.175000000000006,
                    "velocity": 0.33858267716535434,
                    "duration": 0.07500000000000018
                },
                {
                    "name": "C6",
                    "midi": 84,
                    "time": 5.250000000000006,
                    "velocity": 0.33070866141732286,
                    "duration": 0.07500000000000018
                },
                {
                    "name": "A#5",
                    "midi": 82,
                    "time": 5.325000000000006,
                    "velocity": 0.33070866141732286,
                    "duration": 0.07500000000000018
                },
                {
                    "name": "A5",
                    "midi": 81,
                    "time": 5.400000000000007,
                    "velocity": 0.3228346456692913,
                    "duration": 0.07500000000000018
                },
                {
                    "name": "G#5",
                    "midi": 80,
                    "time": 5.475000000000007,
                    "velocity": 0.3228346456692913,
                    "duration": 0.07500000000000018
                },
                {
                    "name": "A5",
                    "midi": 81,
                    "time": 5.550000000000007,
                    "velocity": 0.3228346456692913,
                    "duration": 0.07500000000000018
                },
                {
                    "name": "G5",
                    "midi": 79,
                    "time": 5.625000000000007,
                    "velocity": 0.30708661417322836,
                    "duration": 0.07500000000000018
                },
                {
                    "name": "F#5",
                    "midi": 78,
                    "time": 5.700000000000007,
                    "velocity": 0.30708661417322836,
                    "duration": 0.07500000000000018
                },
                {
                    "name": "F5",
                    "midi": 77,
                    "time": 5.7750000000000075,
                    "velocity": 0.2992125984251969,
                    "duration": 0.07500000000000018
                },
                {
                    "name": "F#5",
                    "midi": 78,
                    "time": 5.850000000000008,
                    "velocity": 0.2992125984251969,
                    "duration": 0.07500000000000018
                },
                {
                    "name": "D#5",
                    "midi": 75,
                    "time": 5.925000000000008,
                    "velocity": 0.29133858267716534,
                    "duration": 0.07500000000000018
                },
                {
                    "name": "D5",
                    "midi": 74,
                    "time": 6.000000000000008,
                    "velocity": 0.29133858267716534,
                    "duration": 0.07500000000000018
                },
                {
                    "name": "C#5",
                    "midi": 73,
                    "time": 6.075000000000008,
                    "velocity": 0.29133858267716534,
                    "duration": 0.07500000000000018
                },
                {
                    "name": "D5",
                    "midi": 74,
                    "time": 6.150000000000008,
                    "velocity": 0.28346456692913385,
                    "duration": 0.07500000000000018
                },
                {
                    "name": "C5",
                    "midi": 72,
                    "time": 6.2250000000000085,
                    "velocity": 0.28346456692913385,
                    "duration": 0.07500000000000018
                },
                {
                    "name": "A#4",
                    "midi": 70,
                    "time": 6.300000000000009,
                    "velocity": 0.28346456692913385,
                    "duration": 0.07500000000000018
                },
                {
                    "name": "A4",
                    "midi": 69,
                    "time": 6.375000000000009,
                    "velocity": 0.28346456692913385,
                    "duration": 0.07500000000000018
                },
                {
                    "name": "A#4",
                    "midi": 70,
                    "time": 6.450000000000009,
                    "velocity": 0.28346456692913385,
                    "duration": 0.07500000000000018
                },
                {
                    "name": "G#4",
                    "midi": 68,
                    "time": 6.525000000000009,
                    "velocity": 0.2755905511811024,
                    "duration": 0.07500000000000018
                },
                {
                    "name": "G4",
                    "midi": 67,
                    "time": 6.600000000000009,
                    "velocity": 0.2755905511811024,
                    "duration": 0.07500000000000018
                },
                {
                    "name": "F#4",
                    "midi": 66,
                    "time": 6.67500000000001,
                    "velocity": 0.25984251968503935,
                    "duration": 0.07500000000000018
                },
                {
                    "name": "G4",
                    "midi": 67,
                    "time": 6.75000000000001,
                    "velocity": 0.25984251968503935,
                    "duration": 0.07500000000000018
                },
                {
                    "name": "F4",
                    "midi": 65,
                    "time": 6.82500000000001,
                    "velocity": 0.25984251968503935,
                    "duration": 0.07500000000000018
                },
                {
                    "name": "C#5",
                    "midi": 73,
                    "time": 6.90000000000001,
                    "velocity": 0.25196850393700787,
                    "duration": 0.07500000000000018
                },
                {
                    "name": "A#4",
                    "midi": 70,
                    "time": 6.97500000000001,
                    "velocity": 0.25196850393700787,
                    "duration": 0.07500000000000018
                },
                {
                    "name": "G4",
                    "midi": 67,
                    "time": 7.0500000000000105,
                    "velocity": 0.2440944881889764,
                    "duration": 0.07500000000000018
                },
                {
                    "name": "F4",
                    "midi": 65,
                    "time": 7.125000000000011,
                    "velocity": 0.2440944881889764,
                    "duration": 0.07500000000000018
                },
                {
                    "name": "E4",
                    "midi": 64,
                    "time": 7.200000000000011,
                    "velocity": 0.2992125984251969,
                    "duration": 0.2999999999999998
                },
                {
                    "name": "C#7",
                    "midi": 97,
                    "time": 7.8000000000000105,
                    "velocity": 0.33858267716535434,
                    "duration": 0.07500000000000018
                },
                {
                    "name": "A#6",
                    "midi": 94,
                    "time": 7.875000000000011,
                    "velocity": 0.33858267716535434,
                    "duration": 0.07500000000000018
                },
                {
                    "name": "F#6",
                    "midi": 90,
                    "time": 7.950000000000011,
                    "velocity": 0.33070866141732286,
                    "duration": 0.07500000000000018
                },
                {
                    "name": "D#6",
                    "midi": 87,
                    "time": 8.025000000000011,
                    "velocity": 0.3228346456692913,
                    "duration": 0.07499999999999929
                },
                {
                    "name": "G6",
                    "midi": 91,
                    "time": 8.10000000000001,
                    "velocity": 0.3228346456692913,
                    "duration": 0.07499999999999929
                },
                {
                    "name": "E6",
                    "midi": 88,
                    "time": 8.17500000000001,
                    "velocity": 0.30708661417322836,
                    "duration": 0.07499999999999929
                },
                {
                    "name": "C6",
                    "midi": 84,
                    "time": 8.250000000000009,
                    "velocity": 0.30708661417322836,
                    "duration": 0.07499999999999929
                },
                {
                    "name": "A5",
                    "midi": 81,
                    "time": 8.325000000000008,
                    "velocity": 0.2992125984251969,
                    "duration": 0.07499999999999929
                },
                {
                    "name": "C#6",
                    "midi": 85,
                    "time": 8.400000000000007,
                    "velocity": 0.29133858267716534,
                    "duration": 0.07499999999999929
                },
                {
                    "name": "A#5",
                    "midi": 82,
                    "time": 8.475000000000007,
                    "velocity": 0.28346456692913385,
                    "duration": 0.07499999999999929
                },
                {
                    "name": "F#5",
                    "midi": 78,
                    "time": 8.550000000000006,
                    "velocity": 0.28346456692913385,
                    "duration": 0.07499999999999929
                },
                {
                    "name": "D#5",
                    "midi": 75,
                    "time": 8.625000000000005,
                    "velocity": 0.28346456692913385,
                    "duration": 0.07499999999999929
                },
                {
                    "name": "G5",
                    "midi": 79,
                    "time": 8.700000000000005,
                    "velocity": 0.2755905511811024,
                    "duration": 0.07499999999999929
                },
                {
                    "name": "E5",
                    "midi": 76,
                    "time": 8.775000000000004,
                    "velocity": 0.2755905511811024,
                    "duration": 0.07499999999999929
                },
                {
                    "name": "C5",
                    "midi": 72,
                    "time": 8.850000000000003,
                    "velocity": 0.25984251968503935,
                    "duration": 0.07499999999999929
                },
                {
                    "name": "A4",
                    "midi": 69,
                    "time": 8.925000000000002,
                    "velocity": 0.25196850393700787,
                    "duration": 0.07499999999999929
                },
                {
                    "name": "C#5",
                    "midi": 73,
                    "time": 9.000000000000002,
                    "velocity": 0.25196850393700787,
                    "duration": 0.07499999999999929
                },
                {
                    "name": "A#4",
                    "midi": 70,
                    "time": 9.075000000000001,
                    "velocity": 0.2440944881889764,
                    "duration": 0.07499999999999929
                },
                {
                    "name": "F#4",
                    "midi": 66,
                    "time": 9.15,
                    "velocity": 0.2440944881889764,
                    "duration": 0.07499999999999929
                },
                {
                    "name": "E4",
                    "midi": 64,
                    "time": 9.225,
                    "velocity": 0.23622047244094488,
                    "duration": 0.07499999999999929
                },
                {
                    "name": "E4",
                    "midi": 64,
                    "time": 9.299999999999999,
                    "velocity": 0.23622047244094488,
                    "duration": 0.15000000000000036
                },
                {
                    "name": "G4",
                    "midi": 67,
                    "time": 9.299999999999999,
                    "velocity": 0.23622047244094488,
                    "duration": 0.15000000000000036
                },
                {
                    "name": "C#6",
                    "midi": 85,
                    "time": 9.75,
                    "velocity": 0.30708661417322836,
                    "duration": 0.07499999999999929
                },
                {
                    "name": "E5",
                    "midi": 76,
                    "time": 9.75,
                    "velocity": 0.25984251968503935,
                    "duration": 0.07499999999999929
                },
                {
                    "name": "C#5",
                    "midi": 73,
                    "time": 9.75,
                    "velocity": 0.25984251968503935,
                    "duration": 0.07499999999999929
                },
                {
                    "name": "C6",
                    "midi": 84,
                    "time": 9.899999999999999,
                    "velocity": 0.2755905511811024,
                    "duration": 0.07499999999999929
                },
                {
                    "name": "C#5",
                    "midi": 73,
                    "time": 9.899999999999999,
                    "velocity": 0.2204724409448819,
                    "duration": 0.07499999999999929
                },
                {
                    "name": "E5",
                    "midi": 76,
                    "time": 9.899999999999999,
                    "velocity": 0.2204724409448819,
                    "duration": 0.07499999999999929
                },
                {
                    "name": "B5",
                    "midi": 83,
                    "time": 10.049999999999997,
                    "velocity": 0.29133858267716534,
                    "duration": 0.07499999999999929
                },
                {
                    "name": "E5",
                    "midi": 76,
                    "time": 10.049999999999997,
                    "velocity": 0.2440944881889764,
                    "duration": 0.07499999999999929
                },
                {
                    "name": "C#5",
                    "midi": 73,
                    "time": 10.049999999999997,
                    "velocity": 0.2440944881889764,
                    "duration": 0.07499999999999929
                },
                {
                    "name": "C#5",
                    "midi": 73,
                    "time": 10.199999999999996,
                    "velocity": 0.2204724409448819,
                    "duration": 0.07499999999999929
                },
                {
                    "name": "A#5",
                    "midi": 82,
                    "time": 10.199999999999996,
                    "velocity": 0.25984251968503935,
                    "duration": 0.07499999999999929
                },
                {
                    "name": "E5",
                    "midi": 76,
                    "time": 10.199999999999996,
                    "velocity": 0.2204724409448819,
                    "duration": 0.07499999999999929
                },
                {
                    "name": "E5",
                    "midi": 76,
                    "time": 10.349999999999994,
                    "velocity": 0.25196850393700787,
                    "duration": 0.07499999999999929
                },
                {
                    "name": "C#5",
                    "midi": 73,
                    "time": 10.349999999999994,
                    "velocity": 0.25196850393700787,
                    "duration": 0.07499999999999929
                },
                {
                    "name": "C#6",
                    "midi": 85,
                    "time": 10.349999999999994,
                    "velocity": 0.2992125984251969,
                    "duration": 0.07499999999999929
                },
                {
                    "name": "C#5",
                    "midi": 73,
                    "time": 10.499999999999993,
                    "velocity": 0.2755905511811024,
                    "duration": 0.14999999999999858
                },
                {
                    "name": "C6",
                    "midi": 84,
                    "time": 10.499999999999993,
                    "velocity": 0.33070866141732286,
                    "duration": 0.07499999999999929
                },
                {
                    "name": "E5",
                    "midi": 76,
                    "time": 10.499999999999993,
                    "velocity": 0.2755905511811024,
                    "duration": 0.14999999999999858
                },
                {
                    "name": "B5",
                    "midi": 83,
                    "time": 10.574999999999992,
                    "velocity": 0.3228346456692913,
                    "duration": 0.07499999999999929
                },
                {
                    "name": "A#5",
                    "midi": 82,
                    "time": 10.649999999999991,
                    "velocity": 0.30708661417322836,
                    "duration": 0.07499999999999929
                },
                {
                    "name": "D#7",
                    "midi": 99,
                    "time": 11.09999999999999,
                    "velocity": 0.33858267716535434,
                    "duration": 0.07499999999999929
                },
                {
                    "name": "C7",
                    "midi": 96,
                    "time": 11.17499999999999,
                    "velocity": 0.33858267716535434,
                    "duration": 0.07499999999999929
                },
                {
                    "name": "G#6",
                    "midi": 92,
                    "time": 11.24999999999999,
                    "velocity": 0.33070866141732286,
                    "duration": 0.07499999999999929
                },
                {
                    "name": "F6",
                    "midi": 89,
                    "time": 11.324999999999989,
                    "velocity": 0.3228346456692913,
                    "duration": 0.07499999999999929
                },
                {
                    "name": "A6",
                    "midi": 93,
                    "time": 11.399999999999988,
                    "velocity": 0.3228346456692913,
                    "duration": 0.07499999999999929
                },
                {
                    "name": "F#6",
                    "midi": 90,
                    "time": 11.474999999999987,
                    "velocity": 0.30708661417322836,
                    "duration": 0.07499999999999929
                },
                {
                    "name": "D6",
                    "midi": 86,
                    "time": 11.549999999999986,
                    "velocity": 0.30708661417322836,
                    "duration": 0.07499999999999929
                },
                {
                    "name": "B5",
                    "midi": 83,
                    "time": 11.624999999999986,
                    "velocity": 0.2992125984251969,
                    "duration": 0.07499999999999929
                },
                {
                    "name": "D#6",
                    "midi": 87,
                    "time": 11.699999999999985,
                    "velocity": 0.29133858267716534,
                    "duration": 0.07499999999999929
                },
                {
                    "name": "C6",
                    "midi": 84,
                    "time": 11.774999999999984,
                    "velocity": 0.28346456692913385,
                    "duration": 0.07499999999999929
                },
                {
                    "name": "G#5",
                    "midi": 80,
                    "time": 11.849999999999984,
                    "velocity": 0.28346456692913385,
                    "duration": 0.07499999999999929
                },
                {
                    "name": "F5",
                    "midi": 77,
                    "time": 11.924999999999983,
                    "velocity": 0.28346456692913385,
                    "duration": 0.07499999999999929
                },
                {
                    "name": "A5",
                    "midi": 81,
                    "time": 11.999999999999982,
                    "velocity": 0.2755905511811024,
                    "duration": 0.07499999999999929
                },
                {
                    "name": "F#5",
                    "midi": 78,
                    "time": 12.074999999999982,
                    "velocity": 0.2755905511811024,
                    "duration": 0.07499999999999929
                },
                {
                    "name": "D5",
                    "midi": 74,
                    "time": 12.14999999999998,
                    "velocity": 0.25984251968503935,
                    "duration": 0.07499999999999929
                },
                {
                    "name": "B4",
                    "midi": 71,
                    "time": 12.22499999999998,
                    "velocity": 0.25196850393700787,
                    "duration": 0.07499999999999929
                },
                {
                    "name": "D#5",
                    "midi": 75,
                    "time": 12.29999999999998,
                    "velocity": 0.25196850393700787,
                    "duration": 0.07499999999999929
                },
                {
                    "name": "C5",
                    "midi": 72,
                    "time": 12.374999999999979,
                    "velocity": 0.2440944881889764,
                    "duration": 0.07499999999999929
                },
                {
                    "name": "G#4",
                    "midi": 68,
                    "time": 12.449999999999978,
                    "velocity": 0.2440944881889764,
                    "duration": 0.07499999999999929
                },
                {
                    "name": "F4",
                    "midi": 65,
                    "time": 12.524999999999977,
                    "velocity": 0.23622047244094488,
                    "duration": 0.07499999999999929
                },
                {
                    "name": "F#4",
                    "midi": 66,
                    "time": 12.599999999999977,
                    "velocity": 0.23622047244094488,
                    "duration": 0.15000000000000036
                },
                {
                    "name": "A4",
                    "midi": 69,
                    "time": 12.599999999999977,
                    "velocity": 0.23622047244094488,
                    "duration": 0.15000000000000036
                },
                {
                    "name": "F#6",
                    "midi": 90,
                    "time": 13.349999999999977,
                    "velocity": 0.36220472440944884,
                    "duration": 0.07499999999999929
                },
                {
                    "name": "A5",
                    "midi": 81,
                    "time": 13.349999999999977,
                    "velocity": 0.30708661417322836,
                    "duration": 0.07499999999999929
                },
                {
                    "name": "F#5",
                    "midi": 78,
                    "time": 13.349999999999977,
                    "velocity": 0.30708661417322836,
                    "duration": 0.07499999999999929
                },
                {
                    "name": "F6",
                    "midi": 89,
                    "time": 13.499999999999975,
                    "velocity": 0.3228346456692913,
                    "duration": 0.07499999999999929
                },
                {
                    "name": "A5",
                    "midi": 81,
                    "time": 13.499999999999975,
                    "velocity": 0.25984251968503935,
                    "duration": 0.07499999999999929
                },
                {
                    "name": "F#5",
                    "midi": 78,
                    "time": 13.499999999999975,
                    "velocity": 0.25984251968503935,
                    "duration": 0.07499999999999929
                },
                {
                    "name": "F#5",
                    "midi": 78,
                    "time": 13.649999999999974,
                    "velocity": 0.29133858267716534,
                    "duration": 0.07499999999999929
                },
                {
                    "name": "A5",
                    "midi": 81,
                    "time": 13.649999999999974,
                    "velocity": 0.29133858267716534,
                    "duration": 0.07499999999999929
                },
                {
                    "name": "E6",
                    "midi": 88,
                    "time": 13.649999999999974,
                    "velocity": 0.3543307086614173,
                    "duration": 0.07499999999999929
                },
                {
                    "name": "F#5",
                    "midi": 78,
                    "time": 13.799999999999972,
                    "velocity": 0.25984251968503935,
                    "duration": 0.07499999999999929
                },
                {
                    "name": "D#6",
                    "midi": 87,
                    "time": 13.799999999999972,
                    "velocity": 0.30708661417322836,
                    "duration": 0.07499999999999929
                },
                {
                    "name": "A5",
                    "midi": 81,
                    "time": 13.799999999999972,
                    "velocity": 0.25984251968503935,
                    "duration": 0.07499999999999929
                },
                {
                    "name": "A5",
                    "midi": 81,
                    "time": 13.94999999999997,
                    "velocity": 0.2992125984251969,
                    "duration": 0.07499999999999929
                },
                {
                    "name": "F#6",
                    "midi": 90,
                    "time": 13.94999999999997,
                    "velocity": 0.3543307086614173,
                    "duration": 0.07499999999999929
                },
                {
                    "name": "F#5",
                    "midi": 78,
                    "time": 13.94999999999997,
                    "velocity": 0.2992125984251969,
                    "duration": 0.07499999999999929
                },
                {
                    "name": "F6",
                    "midi": 89,
                    "time": 14.09999999999997,
                    "velocity": 0.3937007874015748,
                    "duration": 0.07499999999999929
                },
                {
                    "name": "F#5",
                    "midi": 78,
                    "time": 14.09999999999997,
                    "velocity": 0.3228346456692913,
                    "duration": 0.14999999999999858
                },
                {
                    "name": "A5",
                    "midi": 81,
                    "time": 14.09999999999997,
                    "velocity": 0.3228346456692913,
                    "duration": 0.14999999999999858
                },
                {
                    "name": "E6",
                    "midi": 88,
                    "time": 14.174999999999969,
                    "velocity": 0.3779527559055118,
                    "duration": 0.07499999999999929
                },
                {
                    "name": "D#6",
                    "midi": 87,
                    "time": 14.249999999999968,
                    "velocity": 0.33858267716535434,
                    "duration": 0.07499999999999929
                },
                {
                    "name": "D#6",
                    "midi": 87,
                    "time": 14.549999999999967,
                    "velocity": 0.2992125984251969,
                    "duration": 0.07499999999999929
                },
                {
                    "name": "D#5",
                    "midi": 75,
                    "time": 14.549999999999967,
                    "velocity": 0.2440944881889764,
                    "duration": 0.07499999999999929
                },
                {
                    "name": "F#5",
                    "midi": 78,
                    "time": 14.549999999999967,
                    "velocity": 0.2440944881889764,
                    "duration": 0.07499999999999929
                },
                {
                    "name": "D6",
                    "midi": 86,
                    "time": 14.699999999999966,
                    "velocity": 0.25984251968503935,
                    "duration": 0.07499999999999929
                },
                {
                    "name": "D#5",
                    "midi": 75,
                    "time": 14.699999999999966,
                    "velocity": 0.2125984251968504,
                    "duration": 0.07499999999999929
                },
                {
                    "name": "F#5",
                    "midi": 78,
                    "time": 14.699999999999966,
                    "velocity": 0.2125984251968504,
                    "duration": 0.07499999999999929
                },
                {
                    "name": "C#6",
                    "midi": 85,
                    "time": 14.849999999999964,
                    "velocity": 0.28346456692913385,
                    "duration": 0.07499999999999929
                },
                {
                    "name": "D#5",
                    "midi": 75,
                    "time": 14.849999999999964,
                    "velocity": 0.2283464566929134,
                    "duration": 0.07499999999999929
                },
                {
                    "name": "F#5",
                    "midi": 78,
                    "time": 14.849999999999964,
                    "velocity": 0.2283464566929134,
                    "duration": 0.07499999999999929
                },
                {
                    "name": "F#5",
                    "midi": 78,
                    "time": 14.999999999999963,
                    "velocity": 0.2125984251968504,
                    "duration": 0.07499999999999929
                },
                {
                    "name": "C6",
                    "midi": 84,
                    "time": 14.999999999999963,
                    "velocity": 0.2440944881889764,
                    "duration": 0.07499999999999929
                },
                {
                    "name": "D#5",
                    "midi": 75,
                    "time": 14.999999999999963,
                    "velocity": 0.2125984251968504,
                    "duration": 0.07499999999999929
                },
                {
                    "name": "D#5",
                    "midi": 75,
                    "time": 15.149999999999961,
                    "velocity": 0.23622047244094488,
                    "duration": 0.07499999999999929
                },
                {
                    "name": "F#5",
                    "midi": 78,
                    "time": 15.149999999999961,
                    "velocity": 0.23622047244094488,
                    "duration": 0.07499999999999929
                },
                {
                    "name": "D#6",
                    "midi": 87,
                    "time": 15.149999999999961,
                    "velocity": 0.29133858267716534,
                    "duration": 0.07499999999999929
                },
                {
                    "name": "D6",
                    "midi": 86,
                    "time": 15.29999999999996,
                    "velocity": 0.30708661417322836,
                    "duration": 0.07499999999999929
                },
                {
                    "name": "D#5",
                    "midi": 75,
                    "time": 15.29999999999996,
                    "velocity": 0.25984251968503935,
                    "duration": 0.14999999999999858
                },
                {
                    "name": "F#5",
                    "midi": 78,
                    "time": 15.29999999999996,
                    "velocity": 0.25984251968503935,
                    "duration": 0.14999999999999858
                },
                {
                    "name": "C#6",
                    "midi": 85,
                    "time": 15.37499999999996,
                    "velocity": 0.2992125984251969,
                    "duration": 0.07499999999999929
                },
                {
                    "name": "C6",
                    "midi": 84,
                    "time": 15.449999999999958,
                    "velocity": 0.29133858267716534,
                    "duration": 0.07499999999999929
                },
                {
                    "name": "C6",
                    "midi": 84,
                    "time": 15.749999999999957,
                    "velocity": 0.28346456692913385,
                    "duration": 0.07499999999999929
                },
                {
                    "name": "D#5",
                    "midi": 75,
                    "time": 15.749999999999957,
                    "velocity": 0.2283464566929134,
                    "duration": 0.07499999999999929
                },
                {
                    "name": "C5",
                    "midi": 72,
                    "time": 15.749999999999957,
                    "velocity": 0.2283464566929134,
                    "duration": 0.07499999999999929
                },
                {
                    "name": "B5",
                    "midi": 83,
                    "time": 15.899999999999956,
                    "velocity": 0.2992125984251969,
                    "duration": 0.07499999999999929
                },
                {
                    "name": "C5",
                    "midi": 72,
                    "time": 15.899999999999956,
                    "velocity": 0.25196850393700787,
                    "duration": 0.14999999999999858
                },
                {
                    "name": "D#5",
                    "midi": 75,
                    "time": 15.899999999999956,
                    "velocity": 0.25196850393700787,
                    "duration": 0.14999999999999858
                },
                {
                    "name": "A#5",
                    "midi": 82,
                    "time": 15.974999999999955,
                    "velocity": 0.29133858267716534,
                    "duration": 0.07499999999999929
                },
                {
                    "name": "A5",
                    "midi": 81,
                    "time": 16.049999999999955,
                    "velocity": 0.29133858267716534,
                    "duration": 0.07499999999999929
                },
                {
                    "name": "D#5",
                    "midi": 75,
                    "time": 16.349999999999955,
                    "velocity": 0.2204724409448819,
                    "duration": 0.07499999999999929
                },
                {
                    "name": "C5",
                    "midi": 72,
                    "time": 16.349999999999955,
                    "velocity": 0.2204724409448819,
                    "duration": 0.07499999999999929
                },
                {
                    "name": "A5",
                    "midi": 81,
                    "time": 16.349999999999955,
                    "velocity": 0.2755905511811024,
                    "duration": 0.07499999999999929
                },
                {
                    "name": "G#5",
                    "midi": 80,
                    "time": 16.499999999999954,
                    "velocity": 0.28346456692913385,
                    "duration": 0.07499999999999929
                },
                {
                    "name": "D#5",
                    "midi": 75,
                    "time": 16.499999999999954,
                    "velocity": 0.23622047244094488,
                    "duration": 0.14999999999999858
                },
                {
                    "name": "C5",
                    "midi": 72,
                    "time": 16.499999999999954,
                    "velocity": 0.23622047244094488,
                    "duration": 0.14999999999999858
                },
                {
                    "name": "G5",
                    "midi": 79,
                    "time": 16.574999999999953,
                    "velocity": 0.28346456692913385,
                    "duration": 0.07499999999999929
                },
                {
                    "name": "F#5",
                    "midi": 78,
                    "time": 16.649999999999952,
                    "velocity": 0.2755905511811024,
                    "duration": 0.07499999999999929
                },
                {
                    "name": "F5",
                    "midi": 77,
                    "time": 16.949999999999953,
                    "velocity": 0.28346456692913385,
                    "duration": 0.07499999999999929
                },
                {
                    "name": "C5",
                    "midi": 72,
                    "time": 16.949999999999953,
                    "velocity": 0.2204724409448819,
                    "duration": 0.07499999999999929
                },
                {
                    "name": "D#5",
                    "midi": 75,
                    "time": 17.09999999999995,
                    "velocity": 0.1889763779527559,
                    "duration": 0.07499999999999929
                },
                {
                    "name": "F#5",
                    "midi": 78,
                    "time": 17.09999999999995,
                    "velocity": 0.23622047244094488,
                    "duration": 0.07499999999999929
                },
                {
                    "name": "C5",
                    "midi": 72,
                    "time": 17.24999999999995,
                    "velocity": 0.2204724409448819,
                    "duration": 0.07499999999999929
                },
                {
                    "name": "F5",
                    "midi": 77,
                    "time": 17.24999999999995,
                    "velocity": 0.28346456692913385,
                    "duration": 0.07499999999999929
                },
                {
                    "name": "D#5",
                    "midi": 75,
                    "time": 17.39999999999995,
                    "velocity": 0.1889763779527559,
                    "duration": 0.07499999999999929
                },
                {
                    "name": "G5",
                    "midi": 79,
                    "time": 17.39999999999995,
                    "velocity": 0.2440944881889764,
                    "duration": 0.07499999999999929
                },
                {
                    "name": "F5",
                    "midi": 77,
                    "time": 17.549999999999947,
                    "velocity": 0.28346456692913385,
                    "duration": 0.07499999999999929
                },
                {
                    "name": "C5",
                    "midi": 72,
                    "time": 17.549999999999947,
                    "velocity": 0.2204724409448819,
                    "duration": 0.07499999999999929
                },
                {
                    "name": "D#5",
                    "midi": 75,
                    "time": 17.699999999999946,
                    "velocity": 0.1889763779527559,
                    "duration": 0.07499999999999929
                },
                {
                    "name": "F#5",
                    "midi": 78,
                    "time": 17.699999999999946,
                    "velocity": 0.23622047244094488,
                    "duration": 0.07499999999999929
                },
                {
                    "name": "F5",
                    "midi": 77,
                    "time": 17.849999999999945,
                    "velocity": 0.28346456692913385,
                    "duration": 0.07499999999999929
                },
                {
                    "name": "C5",
                    "midi": 72,
                    "time": 17.849999999999945,
                    "velocity": 0.2204724409448819,
                    "duration": 0.07499999999999929
                },
                {
                    "name": "G5",
                    "midi": 79,
                    "time": 17.999999999999943,
                    "velocity": 0.25196850393700787,
                    "duration": 0.05000000000000071
                },
                {
                    "name": "F5",
                    "midi": 77,
                    "time": 18.099999999999945,
                    "velocity": 0.28346456692913385,
                    "duration": 0.05000000000000071
                },
                {
                    "name": "F#5",
                    "midi": 78,
                    "time": 18.199999999999946,
                    "velocity": 0.23622047244094488,
                    "duration": 0.05000000000000071
                },
                {
                    "name": "F5",
                    "midi": 77,
                    "time": 18.299999999999947,
                    "velocity": 0.28346456692913385,
                    "duration": 0.05000000000000071
                },
                {
                    "name": "G5",
                    "midi": 79,
                    "time": 18.39999999999995,
                    "velocity": 0.2283464566929134,
                    "duration": 0.05000000000000071
                },
                {
                    "name": "F5",
                    "midi": 77,
                    "time": 18.49999999999995,
                    "velocity": 0.28346456692913385,
                    "duration": 0.05000000000000071
                },
                {
                    "name": "F#5",
                    "midi": 78,
                    "time": 18.59999999999995,
                    "velocity": 0.25196850393700787,
                    "duration": 0.05000000000000071
                },
                {
                    "name": "F5",
                    "midi": 77,
                    "time": 18.699999999999953,
                    "velocity": 0.28346456692913385,
                    "duration": 0.05000000000000071
                },
                {
                    "name": "G5",
                    "midi": 79,
                    "time": 18.799999999999955,
                    "velocity": 0.23622047244094488,
                    "duration": 0.05000000000000071
                },
                {
                    "name": "F5",
                    "midi": 77,
                    "time": 18.899999999999956,
                    "velocity": 0.28346456692913385,
                    "duration": 0.07499999999999929
                },
                {
                    "name": "F#5",
                    "midi": 78,
                    "time": 18.974999999999955,
                    "velocity": 0.2440944881889764,
                    "duration": 0.07499999999999929
                },
                {
                    "name": "F5",
                    "midi": 77,
                    "time": 19.049999999999955,
                    "velocity": 0.28346456692913385,
                    "duration": 0.07499999999999929
                },
                {
                    "name": "G5",
                    "midi": 79,
                    "time": 19.124999999999954,
                    "velocity": 0.2440944881889764,
                    "duration": 0.07499999999999929
                },
                {
                    "name": "F5",
                    "midi": 77,
                    "time": 19.199999999999953,
                    "velocity": 0.28346456692913385,
                    "duration": 0.07499999999999929
                },
                {
                    "name": "F#5",
                    "midi": 78,
                    "time": 19.274999999999952,
                    "velocity": 0.2440944881889764,
                    "duration": 0.07499999999999929
                },
                {
                    "name": "F5",
                    "midi": 77,
                    "time": 19.34999999999995,
                    "velocity": 0.28346456692913385,
                    "duration": 0.07499999999999929
                },
                {
                    "name": "G5",
                    "midi": 79,
                    "time": 19.42499999999995,
                    "velocity": 0.2440944881889764,
                    "duration": 0.07499999999999929
                },
                {
                    "name": "F5",
                    "midi": 77,
                    "time": 19.49999999999995,
                    "velocity": 0.28346456692913385,
                    "duration": 0.07499999999999929
                },
                {
                    "name": "F#5",
                    "midi": 78,
                    "time": 19.57499999999995,
                    "velocity": 0.2440944881889764,
                    "duration": 0.07499999999999929
                },
                {
                    "name": "F5",
                    "midi": 77,
                    "time": 19.64999999999995,
                    "velocity": 0.28346456692913385,
                    "duration": 0.07499999999999929
                },
                {
                    "name": "G5",
                    "midi": 79,
                    "time": 19.724999999999948,
                    "velocity": 0.23622047244094488,
                    "duration": 0.07499999999999929
                },
                {
                    "name": "F5",
                    "midi": 77,
                    "time": 19.799999999999947,
                    "velocity": 0.28346456692913385,
                    "duration": 0.07499999999999929
                },
                {
                    "name": "F#5",
                    "midi": 78,
                    "time": 19.874999999999947,
                    "velocity": 0.2440944881889764,
                    "duration": 0.07499999999999929
                },
                {
                    "name": "F5",
                    "midi": 77,
                    "time": 19.949999999999946,
                    "velocity": 0.28346456692913385,
                    "duration": 0.07499999999999929
                },
                {
                    "name": "G5",
                    "midi": 79,
                    "time": 20.024999999999945,
                    "velocity": 0.2440944881889764,
                    "duration": 0.07499999999999929
                },
                {
                    "name": "F5",
                    "midi": 77,
                    "time": 20.099999999999945,
                    "velocity": 0.28346456692913385,
                    "duration": 0.07499999999999929
                },
                {
                    "name": "F#5",
                    "midi": 78,
                    "time": 20.174999999999944,
                    "velocity": 0.2440944881889764,
                    "duration": 0.07499999999999929
                },
                {
                    "name": "F5",
                    "midi": 77,
                    "time": 20.249999999999943,
                    "velocity": 0.28346456692913385,
                    "duration": 0.07499999999999929
                },
                {
                    "name": "G5",
                    "midi": 79,
                    "time": 20.324999999999942,
                    "velocity": 0.25196850393700787,
                    "duration": 0.07499999999999929
                },
                {
                    "name": "F5",
                    "midi": 77,
                    "time": 20.39999999999994,
                    "velocity": 0.28346456692913385,
                    "duration": 0.08749999999999858
                },
                {
                    "name": "F#5",
                    "midi": 78,
                    "time": 20.47499999999994,
                    "velocity": 0.25196850393700787,
                    "duration": 0.08749999999999858
                },
                {
                    "name": "F5",
                    "midi": 77,
                    "time": 20.54999999999994,
                    "velocity": 0.28346456692913385,
                    "duration": 0.08749999999999858
                },
                {
                    "name": "G5",
                    "midi": 79,
                    "time": 20.62499999999994,
                    "velocity": 0.2440944881889764,
                    "duration": 0.07499999999999929
                },
                {
                    "name": "F5",
                    "midi": 77,
                    "time": 20.69999999999994,
                    "velocity": 0.28346456692913385,
                    "duration": 0.07499999999999929
                },
                {
                    "name": "A4",
                    "midi": 69,
                    "time": 20.69999999999994,
                    "velocity": 0.2283464566929134,
                    "duration": 0.07499999999999929
                },
                {
                    "name": "C5",
                    "midi": 72,
                    "time": 20.774999999999938,
                    "velocity": 0.2125984251968504,
                    "duration": 0.07499999999999929
                },
                {
                    "name": "F#5",
                    "midi": 78,
                    "time": 20.774999999999938,
                    "velocity": 0.25196850393700787,
                    "duration": 0.07499999999999929
                },
                {
                    "name": "F5",
                    "midi": 77,
                    "time": 20.849999999999937,
                    "velocity": 0.28346456692913385,
                    "duration": 0.07499999999999929
                },
                {
                    "name": "A4",
                    "midi": 69,
                    "time": 20.849999999999937,
                    "velocity": 0.2283464566929134,
                    "duration": 0.07499999999999929
                },
                {
                    "name": "G5",
                    "midi": 79,
                    "time": 20.924999999999937,
                    "velocity": 0.2440944881889764,
                    "duration": 0.07499999999999929
                },
                {
                    "name": "C5",
                    "midi": 72,
                    "time": 20.924999999999937,
                    "velocity": 0.2047244094488189,
                    "duration": 0.07499999999999929
                },
                {
                    "name": "A#4",
                    "midi": 70,
                    "time": 20.999999999999936,
                    "velocity": 0.2283464566929134,
                    "duration": 0.07499999999999929
                },
                {
                    "name": "F5",
                    "midi": 77,
                    "time": 20.999999999999936,
                    "velocity": 0.28346456692913385,
                    "duration": 0.07499999999999929
                },
                {
                    "name": "F#5",
                    "midi": 78,
                    "time": 21.074999999999935,
                    "velocity": 0.25196850393700787,
                    "duration": 0.07499999999999929
                },
                {
                    "name": "D5",
                    "midi": 74,
                    "time": 21.074999999999935,
                    "velocity": 0.2125984251968504,
                    "duration": 0.07499999999999929
                },
                {
                    "name": "A#4",
                    "midi": 70,
                    "time": 21.149999999999935,
                    "velocity": 0.2283464566929134,
                    "duration": 0.07499999999999929
                },
                {
                    "name": "F5",
                    "midi": 77,
                    "time": 21.149999999999935,
                    "velocity": 0.28346456692913385,
                    "duration": 0.07499999999999929
                },
                {
                    "name": "G5",
                    "midi": 79,
                    "time": 21.224999999999934,
                    "velocity": 0.2440944881889764,
                    "duration": 0.07499999999999929
                },
                {
                    "name": "D5",
                    "midi": 74,
                    "time": 21.224999999999934,
                    "velocity": 0.2047244094488189,
                    "duration": 0.07499999999999929
                },
                {
                    "name": "A4",
                    "midi": 69,
                    "time": 21.299999999999933,
                    "velocity": 0.2283464566929134,
                    "duration": 0.07499999999999929
                },
                {
                    "name": "F5",
                    "midi": 77,
                    "time": 21.299999999999933,
                    "velocity": 0.28346456692913385,
                    "duration": 0.07499999999999929
                },
                {
                    "name": "D#5",
                    "midi": 75,
                    "time": 21.374999999999932,
                    "velocity": 0.2125984251968504,
                    "duration": 0.07499999999999929
                },
                {
                    "name": "F#5",
                    "midi": 78,
                    "time": 21.374999999999932,
                    "velocity": 0.25196850393700787,
                    "duration": 0.07499999999999929
                },
                {
                    "name": "F5",
                    "midi": 77,
                    "time": 21.449999999999932,
                    "velocity": 0.28346456692913385,
                    "duration": 0.07499999999999929
                },
                {
                    "name": "A4",
                    "midi": 69,
                    "time": 21.449999999999932,
                    "velocity": 0.2283464566929134,
                    "duration": 0.07499999999999929
                },
                {
                    "name": "D#5",
                    "midi": 75,
                    "time": 21.52499999999993,
                    "velocity": 0.2047244094488189,
                    "duration": 0.07499999999999929
                },
                {
                    "name": "G5",
                    "midi": 79,
                    "time": 21.52499999999993,
                    "velocity": 0.2440944881889764,
                    "duration": 0.07499999999999929
                },
                {
                    "name": "A#4",
                    "midi": 70,
                    "time": 21.59999999999993,
                    "velocity": 0.2283464566929134,
                    "duration": 0.07499999999999929
                },
                {
                    "name": "F5",
                    "midi": 77,
                    "time": 21.59999999999993,
                    "velocity": 0.28346456692913385,
                    "duration": 0.07499999999999929
                },
                {
                    "name": "F#5",
                    "midi": 78,
                    "time": 21.67499999999993,
                    "velocity": 0.25196850393700787,
                    "duration": 0.03750000000000142
                },
                {
                    "name": "D5",
                    "midi": 74,
                    "time": 21.67499999999993,
                    "velocity": 0.2125984251968504,
                    "duration": 0.03750000000000142
                },
                {
                    "name": "F#5",
                    "midi": 78,
                    "time": 21.749999999999932,
                    "velocity": 0.33070866141732286,
                    "duration": 0.07499999999999929
                },
                {
                    "name": "A#4",
                    "midi": 70,
                    "time": 21.749999999999932,
                    "velocity": 0.33070866141732286,
                    "duration": 0.07499999999999929
                },
                {
                    "name": "D5",
                    "midi": 74,
                    "time": 21.824999999999932,
                    "velocity": 0.28346456692913385,
                    "duration": 0.03750000000000142
                },
                {
                    "name": "G5",
                    "midi": 79,
                    "time": 21.824999999999932,
                    "velocity": 0.28346456692913385,
                    "duration": 0.03750000000000142
                },
                {
                    "name": "G#5",
                    "midi": 80,
                    "time": 21.899999999999935,
                    "velocity": 0.3543307086614173,
                    "duration": 0.07499999999999929
                },
                {
                    "name": "D5",
                    "midi": 74,
                    "time": 21.899999999999935,
                    "velocity": 0.29133858267716534,
                    "duration": 0.07499999999999929
                },
                {
                    "name": "A5",
                    "midi": 81,
                    "time": 21.974999999999934,
                    "velocity": 0.2992125984251969,
                    "duration": 0.07499999999999929
                },
                {
                    "name": "F5",
                    "midi": 77,
                    "time": 21.974999999999934,
                    "velocity": 0.25196850393700787,
                    "duration": 0.07499999999999929
                },
                {
                    "name": "D5",
                    "midi": 74,
                    "time": 22.049999999999933,
                    "velocity": 0.2992125984251969,
                    "duration": 0.07499999999999929
                },
                {
                    "name": "A5",
                    "midi": 81,
                    "time": 22.049999999999933,
                    "velocity": 0.3543307086614173,
                    "duration": 0.07499999999999929
                },
                {
                    "name": "A#5",
                    "midi": 82,
                    "time": 22.124999999999932,
                    "velocity": 0.2992125984251969,
                    "duration": 0.03750000000000142
                },
                {
                    "name": "F5",
                    "midi": 77,
                    "time": 22.124999999999932,
                    "velocity": 0.25196850393700787,
                    "duration": 0.03750000000000142
                },
                {
                    "name": "C5",
                    "midi": 72,
                    "time": 22.199999999999935,
                    "velocity": 0.30708661417322836,
                    "duration": 0.07499999999999929
                },
                {
                    "name": "A#5",
                    "midi": 82,
                    "time": 22.199999999999935,
                    "velocity": 0.36220472440944884,
                    "duration": 0.07499999999999929
                },
                {
                    "name": "A5",
                    "midi": 81,
                    "time": 22.274999999999935,
                    "velocity": 0.3228346456692913,
                    "duration": 0.03750000000000142
                },
                {
                    "name": "D#5",
                    "midi": 75,
                    "time": 22.274999999999935,
                    "velocity": 0.2755905511811024,
                    "duration": 0.03750000000000142
                },
                {
                    "name": "C5",
                    "midi": 72,
                    "time": 22.349999999999937,
                    "velocity": 0.2992125984251969,
                    "duration": 0.07499999999999929
                },
                {
                    "name": "A5",
                    "midi": 81,
                    "time": 22.349999999999937,
                    "velocity": 0.3543307086614173,
                    "duration": 0.07499999999999929
                },
                {
                    "name": "D#5",
                    "midi": 75,
                    "time": 22.424999999999937,
                    "velocity": 0.25196850393700787,
                    "duration": 0.03750000000000142
                },
                {
                    "name": "G#5",
                    "midi": 80,
                    "time": 22.424999999999937,
                    "velocity": 0.2992125984251969,
                    "duration": 0.03750000000000142
                },
                {
                    "name": "C5",
                    "midi": 72,
                    "time": 22.49999999999994,
                    "velocity": 0.28346456692913385,
                    "duration": 0.07499999999999929
                },
                {
                    "name": "G#5",
                    "midi": 80,
                    "time": 22.49999999999994,
                    "velocity": 0.33858267716535434,
                    "duration": 0.07499999999999929
                },
                {
                    "name": "D#5",
                    "midi": 75,
                    "time": 22.57499999999994,
                    "velocity": 0.2440944881889764,
                    "duration": 0.03750000000000142
                },
                {
                    "name": "G5",
                    "midi": 79,
                    "time": 22.57499999999994,
                    "velocity": 0.29133858267716534,
                    "duration": 0.03750000000000142
                },
                {
                    "name": "G5",
                    "midi": 79,
                    "time": 22.64999999999994,
                    "velocity": 0.33070866141732286,
                    "duration": 0.07499999999999929
                },
                {
                    "name": "C5",
                    "midi": 72,
                    "time": 22.64999999999994,
                    "velocity": 0.2755905511811024,
                    "duration": 0.07499999999999929
                },
                {
                    "name": "D#5",
                    "midi": 75,
                    "time": 22.72499999999994,
                    "velocity": 0.2283464566929134,
                    "duration": 0.03750000000000142
                },
                {
                    "name": "F#5",
                    "midi": 78,
                    "time": 22.72499999999994,
                    "velocity": 0.28346456692913385,
                    "duration": 0.03750000000000142
                },
                {
                    "name": "F5",
                    "midi": 77,
                    "time": 22.799999999999944,
                    "velocity": 0.28346456692913385,
                    "duration": 0.08249999999999957
                },
                {
                    "name": "A#4",
                    "midi": 70,
                    "time": 22.799999999999944,
                    "velocity": 0.2283464566929134,
                    "duration": 0.08249999999999957
                },
                {
                    "name": "F#5",
                    "midi": 78,
                    "time": 22.874999999999943,
                    "velocity": 0.25196850393700787,
                    "duration": 0.08249999999999957
                },
                {
                    "name": "D5",
                    "midi": 74,
                    "time": 22.874999999999943,
                    "velocity": 0.2125984251968504,
                    "duration": 0.08249999999999957
                },
                {
                    "name": "F5",
                    "midi": 77,
                    "time": 22.949999999999942,
                    "velocity": 0.28346456692913385,
                    "duration": 0.08249999999999957
                },
                {
                    "name": "A#4",
                    "midi": 70,
                    "time": 22.949999999999942,
                    "velocity": 0.2283464566929134,
                    "duration": 0.08249999999999957
                },
                {
                    "name": "D5",
                    "midi": 74,
                    "time": 23.02499999999994,
                    "velocity": 0.2047244094488189,
                    "duration": 0.07499999999999929
                },
                {
                    "name": "G5",
                    "midi": 79,
                    "time": 23.02499999999994,
                    "velocity": 0.2440944881889764,
                    "duration": 0.07499999999999929
                },
                {
                    "name": "F5",
                    "midi": 77,
                    "time": 23.09999999999994,
                    "velocity": 0.28346456692913385,
                    "duration": 0.07499999999999929
                },
                {
                    "name": "A4",
                    "midi": 69,
                    "time": 23.09999999999994,
                    "velocity": 0.2283464566929134,
                    "duration": 0.07499999999999929
                },
                {
                    "name": "C5",
                    "midi": 72,
                    "time": 23.17499999999994,
                    "velocity": 0.2125984251968504,
                    "duration": 0.07499999999999929
                },
                {
                    "name": "F#5",
                    "midi": 78,
                    "time": 23.17499999999994,
                    "velocity": 0.25196850393700787,
                    "duration": 0.07499999999999929
                },
                {
                    "name": "F5",
                    "midi": 77,
                    "time": 23.24999999999994,
                    "velocity": 0.28346456692913385,
                    "duration": 0.07499999999999929
                },
                {
                    "name": "A4",
                    "midi": 69,
                    "time": 23.24999999999994,
                    "velocity": 0.2283464566929134,
                    "duration": 0.07499999999999929
                },
                {
                    "name": "G5",
                    "midi": 79,
                    "time": 23.32499999999994,
                    "velocity": 0.2440944881889764,
                    "duration": 0.07499999999999929
                },
                {
                    "name": "C5",
                    "midi": 72,
                    "time": 23.32499999999994,
                    "velocity": 0.2047244094488189,
                    "duration": 0.07499999999999929
                },
                {
                    "name": "A#4",
                    "midi": 70,
                    "time": 23.399999999999938,
                    "velocity": 0.2283464566929134,
                    "duration": 0.07499999999999929
                },
                {
                    "name": "F5",
                    "midi": 77,
                    "time": 23.399999999999938,
                    "velocity": 0.28346456692913385,
                    "duration": 0.07499999999999929
                },
                {
                    "name": "D5",
                    "midi": 74,
                    "time": 23.474999999999937,
                    "velocity": 0.2125984251968504,
                    "duration": 0.07499999999999929
                },
                {
                    "name": "F#5",
                    "midi": 78,
                    "time": 23.474999999999937,
                    "velocity": 0.25196850393700787,
                    "duration": 0.07499999999999929
                },
                {
                    "name": "F5",
                    "midi": 77,
                    "time": 23.549999999999937,
                    "velocity": 0.28346456692913385,
                    "duration": 0.07499999999999929
                },
                {
                    "name": "A#4",
                    "midi": 70,
                    "time": 23.549999999999937,
                    "velocity": 0.2283464566929134,
                    "duration": 0.07499999999999929
                },
                {
                    "name": "D5",
                    "midi": 74,
                    "time": 23.624999999999936,
                    "velocity": 0.2047244094488189,
                    "duration": 0.07499999999999929
                },
                {
                    "name": "G5",
                    "midi": 79,
                    "time": 23.624999999999936,
                    "velocity": 0.2440944881889764,
                    "duration": 0.07499999999999929
                },
                {
                    "name": "A4",
                    "midi": 69,
                    "time": 23.699999999999935,
                    "velocity": 0.2283464566929134,
                    "duration": 0.07499999999999929
                },
                {
                    "name": "F5",
                    "midi": 77,
                    "time": 23.699999999999935,
                    "velocity": 0.28346456692913385,
                    "duration": 0.07499999999999929
                },
                {
                    "name": "F#5",
                    "midi": 78,
                    "time": 23.774999999999935,
                    "velocity": 0.25196850393700787,
                    "duration": 0.07499999999999929
                },
                {
                    "name": "D#5",
                    "midi": 75,
                    "time": 23.774999999999935,
                    "velocity": 0.2125984251968504,
                    "duration": 0.07499999999999929
                },
                {
                    "name": "F5",
                    "midi": 77,
                    "time": 23.849999999999934,
                    "velocity": 0.28346456692913385,
                    "duration": 0.07499999999999929
                },
                {
                    "name": "A4",
                    "midi": 69,
                    "time": 23.849999999999934,
                    "velocity": 0.2283464566929134,
                    "duration": 0.07499999999999929
                },
                {
                    "name": "D#5",
                    "midi": 75,
                    "time": 23.924999999999933,
                    "velocity": 0.2047244094488189,
                    "duration": 0.07499999999999929
                },
                {
                    "name": "G5",
                    "midi": 79,
                    "time": 23.924999999999933,
                    "velocity": 0.2440944881889764,
                    "duration": 0.07499999999999929
                },
                {
                    "name": "F5",
                    "midi": 77,
                    "time": 23.999999999999932,
                    "velocity": 0.28346456692913385,
                    "duration": 0.07499999999999929
                },
                {
                    "name": "A#4",
                    "midi": 70,
                    "time": 23.999999999999932,
                    "velocity": 0.2283464566929134,
                    "duration": 0.07499999999999929
                },
                {
                    "name": "F#5",
                    "midi": 78,
                    "time": 24.074999999999932,
                    "velocity": 0.25196850393700787,
                    "duration": 0.03750000000000142
                },
                {
                    "name": "D5",
                    "midi": 74,
                    "time": 24.074999999999932,
                    "velocity": 0.2125984251968504,
                    "duration": 0.03750000000000142
                },
                {
                    "name": "F#5",
                    "midi": 78,
                    "time": 24.149999999999935,
                    "velocity": 0.33070866141732286,
                    "duration": 0.07499999999999929
                },
                {
                    "name": "A#4",
                    "midi": 70,
                    "time": 24.149999999999935,
                    "velocity": 0.33070866141732286,
                    "duration": 0.07499999999999929
                },
                {
                    "name": "D5",
                    "midi": 74,
                    "time": 24.224999999999934,
                    "velocity": 0.28346456692913385,
                    "duration": 0.03750000000000142
                },
                {
                    "name": "G5",
                    "midi": 79,
                    "time": 24.224999999999934,
                    "velocity": 0.28346456692913385,
                    "duration": 0.03750000000000142
                },
                {
                    "name": "D5",
                    "midi": 74,
                    "time": 24.299999999999937,
                    "velocity": 0.29133858267716534,
                    "duration": 0.07499999999999929
                },
                {
                    "name": "G#5",
                    "midi": 80,
                    "time": 24.299999999999937,
                    "velocity": 0.3543307086614173,
                    "duration": 0.07499999999999929
                },
                {
                    "name": "A5",
                    "midi": 81,
                    "time": 24.374999999999936,
                    "velocity": 0.2992125984251969,
                    "duration": 0.03750000000000142
                },
                {
                    "name": "F5",
                    "midi": 77,
                    "time": 24.374999999999936,
                    "velocity": 0.25196850393700787,
                    "duration": 0.03750000000000142
                },
                {
                    "name": "A5",
                    "midi": 81,
                    "time": 24.44999999999994,
                    "velocity": 0.3543307086614173,
                    "duration": 0.07499999999999929
                },
                {
                    "name": "D5",
                    "midi": 74,
                    "time": 24.44999999999994,
                    "velocity": 0.2992125984251969,
                    "duration": 0.07499999999999929
                },
                {
                    "name": "A#5",
                    "midi": 82,
                    "time": 24.524999999999938,
                    "velocity": 0.2992125984251969,
                    "duration": 0.03750000000000142
                },
                {
                    "name": "F5",
                    "midi": 77,
                    "time": 24.524999999999938,
                    "velocity": 0.25196850393700787,
                    "duration": 0.03750000000000142
                },
                {
                    "name": "A#5",
                    "midi": 82,
                    "time": 24.59999999999994,
                    "velocity": 0.36220472440944884,
                    "duration": 0.07499999999999929
                },
                {
                    "name": "C5",
                    "midi": 72,
                    "time": 24.59999999999994,
                    "velocity": 0.30708661417322836,
                    "duration": 0.07499999999999929
                },
                {
                    "name": "D#5",
                    "midi": 75,
                    "time": 24.67499999999994,
                    "velocity": 0.2755905511811024,
                    "duration": 0.03750000000000142
                },
                {
                    "name": "A5",
                    "midi": 81,
                    "time": 24.67499999999994,
                    "velocity": 0.3228346456692913,
                    "duration": 0.03750000000000142
                },
                {
                    "name": "A5",
                    "midi": 81,
                    "time": 24.749999999999943,
                    "velocity": 0.3543307086614173,
                    "duration": 0.07499999999999929
                },
                {
                    "name": "C5",
                    "midi": 72,
                    "time": 24.749999999999943,
                    "velocity": 0.2992125984251969,
                    "duration": 0.07499999999999929
                },
                {
                    "name": "D#5",
                    "midi": 75,
                    "time": 24.824999999999942,
                    "velocity": 0.25196850393700787,
                    "duration": 0.03750000000000142
                },
                {
                    "name": "G#5",
                    "midi": 80,
                    "time": 24.824999999999942,
                    "velocity": 0.2992125984251969,
                    "duration": 0.03750000000000142
                },
                {
                    "name": "G#5",
                    "midi": 80,
                    "time": 24.899999999999945,
                    "velocity": 0.33858267716535434,
                    "duration": 0.07499999999999929
                },
                {
                    "name": "C5",
                    "midi": 72,
                    "time": 24.899999999999945,
                    "velocity": 0.28346456692913385,
                    "duration": 0.07499999999999929
                },
                {
                    "name": "G5",
                    "midi": 79,
                    "time": 24.974999999999945,
                    "velocity": 0.29133858267716534,
                    "duration": 0.03750000000000142
                },
                {
                    "name": "D#5",
                    "midi": 75,
                    "time": 24.974999999999945,
                    "velocity": 0.2440944881889764,
                    "duration": 0.03750000000000142
                },
                {
                    "name": "G5",
                    "midi": 79,
                    "time": 25.049999999999947,
                    "velocity": 0.33070866141732286,
                    "duration": 0.07499999999999929
                },
                {
                    "name": "C5",
                    "midi": 72,
                    "time": 25.049999999999947,
                    "velocity": 0.2755905511811024,
                    "duration": 0.07499999999999929
                },
                {
                    "name": "F#5",
                    "midi": 78,
                    "time": 25.124999999999947,
                    "velocity": 0.28346456692913385,
                    "duration": 0.03750000000000142
                },
                {
                    "name": "D#5",
                    "midi": 75,
                    "time": 25.124999999999947,
                    "velocity": 0.2283464566929134,
                    "duration": 0.03750000000000142
                },
                {
                    "name": "F5",
                    "midi": 77,
                    "time": 25.19999999999995,
                    "velocity": 0.28346456692913385,
                    "duration": 0.07499999999999929
                },
                {
                    "name": "D5",
                    "midi": 74,
                    "time": 25.19999999999995,
                    "velocity": 0.2283464566929134,
                    "duration": 0.07499999999999929
                },
                {
                    "name": "F#5",
                    "midi": 78,
                    "time": 25.27499999999995,
                    "velocity": 0.25196850393700787,
                    "duration": 0.07499999999999929
                },
                {
                    "name": "A#4",
                    "midi": 70,
                    "time": 25.27499999999995,
                    "velocity": 0.2125984251968504,
                    "duration": 0.07499999999999929
                },
                {
                    "name": "D5",
                    "midi": 74,
                    "time": 25.349999999999948,
                    "velocity": 0.2283464566929134,
                    "duration": 0.07499999999999929
                },
                {
                    "name": "F5",
                    "midi": 77,
                    "time": 25.349999999999948,
                    "velocity": 0.28346456692913385,
                    "duration": 0.07499999999999929
                },
                {
                    "name": "A5",
                    "midi": 81,
                    "time": 25.424999999999947,
                    "velocity": 0.28346456692913385,
                    "duration": 0.07499999999999929
                },
                {
                    "name": "A#5",
                    "midi": 82,
                    "time": 25.499999999999947,
                    "velocity": 0.28346456692913385,
                    "duration": 0.07499999999999929
                },
                {
                    "name": "D5",
                    "midi": 74,
                    "time": 25.499999999999947,
                    "velocity": 0.2283464566929134,
                    "duration": 0.07499999999999929
                },
                {
                    "name": "F5",
                    "midi": 77,
                    "time": 25.574999999999946,
                    "velocity": 0.2125984251968504,
                    "duration": 0.07499999999999929
                },
                {
                    "name": "B5",
                    "midi": 83,
                    "time": 25.574999999999946,
                    "velocity": 0.25196850393700787,
                    "duration": 0.07499999999999929
                },
                {
                    "name": "A#5",
                    "midi": 82,
                    "time": 25.649999999999945,
                    "velocity": 0.28346456692913385,
                    "duration": 0.07499999999999929
                },
                {
                    "name": "D5",
                    "midi": 74,
                    "time": 25.649999999999945,
                    "velocity": 0.2283464566929134,
                    "duration": 0.07499999999999929
                },
                {
                    "name": "B5",
                    "midi": 83,
                    "time": 25.724999999999945,
                    "velocity": 0.2440944881889764,
                    "duration": 0.07499999999999929
                },
                {
                    "name": "F5",
                    "midi": 77,
                    "time": 25.724999999999945,
                    "velocity": 0.2047244094488189,
                    "duration": 0.07499999999999929
                },
                {
                    "name": "A#5",
                    "midi": 82,
                    "time": 25.799999999999944,
                    "velocity": 0.28346456692913385,
                    "duration": 0.07499999999999929
                },
                {
                    "name": "D#5",
                    "midi": 75,
                    "time": 25.799999999999944,
                    "velocity": 0.2283464566929134,
                    "duration": 0.07499999999999929
                },
                {
                    "name": "B5",
                    "midi": 83,
                    "time": 25.874999999999943,
                    "velocity": 0.25196850393700787,
                    "duration": 0.07499999999999929
                },
                {
                    "name": "F#5",
                    "midi": 78,
                    "time": 25.874999999999943,
                    "velocity": 0.2125984251968504,
                    "duration": 0.07499999999999929
                },
                {
                    "name": "A#5",
                    "midi": 82,
                    "time": 25.949999999999942,
                    "velocity": 0.28346456692913385,
                    "duration": 0.07499999999999929
                },
                {
                    "name": "D#5",
                    "midi": 75,
                    "time": 25.949999999999942,
                    "velocity": 0.2283464566929134,
                    "duration": 0.07499999999999929
                },
                {
                    "name": "B5",
                    "midi": 83,
                    "time": 26.02499999999994,
                    "velocity": 0.2440944881889764,
                    "duration": 0.07499999999999929
                },
                {
                    "name": "F#5",
                    "midi": 78,
                    "time": 26.02499999999994,
                    "velocity": 0.2047244094488189,
                    "duration": 0.07499999999999929
                },
                {
                    "name": "A#5",
                    "midi": 82,
                    "time": 26.09999999999994,
                    "velocity": 0.28346456692913385,
                    "duration": 0.07499999999999929
                },
                {
                    "name": "D5",
                    "midi": 74,
                    "time": 26.09999999999994,
                    "velocity": 0.2283464566929134,
                    "duration": 0.07499999999999929
                },
                {
                    "name": "B5",
                    "midi": 83,
                    "time": 26.17499999999994,
                    "velocity": 0.25196850393700787,
                    "duration": 0.07499999999999929
                },
                {
                    "name": "G#5",
                    "midi": 80,
                    "time": 26.17499999999994,
                    "velocity": 0.2125984251968504,
                    "duration": 0.07499999999999929
                },
                {
                    "name": "D5",
                    "midi": 74,
                    "time": 26.24999999999994,
                    "velocity": 0.2283464566929134,
                    "duration": 0.07499999999999929
                },
                {
                    "name": "A#5",
                    "midi": 82,
                    "time": 26.24999999999994,
                    "velocity": 0.28346456692913385,
                    "duration": 0.07499999999999929
                },
                {
                    "name": "B5",
                    "midi": 83,
                    "time": 26.32499999999994,
                    "velocity": 0.2440944881889764,
                    "duration": 0.07499999999999929
                },
                {
                    "name": "G#5",
                    "midi": 80,
                    "time": 26.32499999999994,
                    "velocity": 0.2047244094488189,
                    "duration": 0.07499999999999929
                },
                {
                    "name": "A#5",
                    "midi": 82,
                    "time": 26.399999999999938,
                    "velocity": 0.28346456692913385,
                    "duration": 0.07499999999999929
                },
                {
                    "name": "D#5",
                    "midi": 75,
                    "time": 26.399999999999938,
                    "velocity": 0.2283464566929134,
                    "duration": 0.07499999999999929
                },
                {
                    "name": "F#5",
                    "midi": 78,
                    "time": 26.474999999999937,
                    "velocity": 0.2125984251968504,
                    "duration": 0.03750000000000142
                },
                {
                    "name": "B5",
                    "midi": 83,
                    "time": 26.474999999999937,
                    "velocity": 0.25196850393700787,
                    "duration": 0.03750000000000142
                },
                {
                    "name": "B5",
                    "midi": 83,
                    "time": 26.54999999999994,
                    "velocity": 0.33070866141732286,
                    "duration": 0.07499999999999929
                },
                {
                    "name": "D#5",
                    "midi": 75,
                    "time": 26.54999999999994,
                    "velocity": 0.33070866141732286,
                    "duration": 0.07499999999999929
                },
                {
                    "name": "F#5",
                    "midi": 78,
                    "time": 26.62499999999994,
                    "velocity": 0.28346456692913385,
                    "duration": 0.03750000000000142
                },
                {
                    "name": "C6",
                    "midi": 84,
                    "time": 26.62499999999994,
                    "velocity": 0.28346456692913385,
                    "duration": 0.03750000000000142
                },
                {
                    "name": "F#5",
                    "midi": 78,
                    "time": 26.699999999999942,
                    "velocity": 0.29133858267716534,
                    "duration": 0.07499999999999929
                },
                {
                    "name": "C#6",
                    "midi": 85,
                    "time": 26.699999999999942,
                    "velocity": 0.3543307086614173,
                    "duration": 0.07499999999999929
                },
                {
                    "name": "A#5",
                    "midi": 82,
                    "time": 26.77499999999994,
                    "velocity": 0.25196850393700787,
                    "duration": 0.07499999999999929
                },
                {
                    "name": "D6",
                    "midi": 86,
                    "time": 26.77499999999994,
                    "velocity": 0.2992125984251969,
                    "duration": 0.07499999999999929
                },
                {
                    "name": "D6",
                    "midi": 86,
                    "time": 26.84999999999994,
                    "velocity": 0.3543307086614173,
                    "duration": 0.07499999999999929
                },
                {
                    "name": "F#5",
                    "midi": 78,
                    "time": 26.84999999999994,
                    "velocity": 0.2992125984251969,
                    "duration": 0.07499999999999929
                },
                {
                    "name": "D#6",
                    "midi": 87,
                    "time": 26.92499999999994,
                    "velocity": 0.2992125984251969,
                    "duration": 0.03750000000000142
                },
                {
                    "name": "A#5",
                    "midi": 82,
                    "time": 26.92499999999994,
                    "velocity": 0.25196850393700787,
                    "duration": 0.03750000000000142
                },
                {
                    "name": "D#6",
                    "midi": 87,
                    "time": 26.999999999999943,
                    "velocity": 0.36220472440944884,
                    "duration": 0.07499999999999929
                },
                {
                    "name": "F5",
                    "midi": 77,
                    "time": 26.999999999999943,
                    "velocity": 0.30708661417322836,
                    "duration": 0.07499999999999929
                },
                {
                    "name": "D6",
                    "midi": 86,
                    "time": 27.074999999999942,
                    "velocity": 0.3228346456692913,
                    "duration": 0.03750000000000142
                },
                {
                    "name": "G#5",
                    "midi": 80,
                    "time": 27.074999999999942,
                    "velocity": 0.2755905511811024,
                    "duration": 0.03750000000000142
                },
                {
                    "name": "D6",
                    "midi": 86,
                    "time": 27.149999999999945,
                    "velocity": 0.3543307086614173,
                    "duration": 0.07499999999999929
                },
                {
                    "name": "F5",
                    "midi": 77,
                    "time": 27.149999999999945,
                    "velocity": 0.2992125984251969,
                    "duration": 0.07499999999999929
                },
                {
                    "name": "G#5",
                    "midi": 80,
                    "time": 27.224999999999945,
                    "velocity": 0.25196850393700787,
                    "duration": 0.03750000000000142
                },
                {
                    "name": "C#6",
                    "midi": 85,
                    "time": 27.224999999999945,
                    "velocity": 0.2992125984251969,
                    "duration": 0.03750000000000142
                },
                {
                    "name": "F5",
                    "midi": 77,
                    "time": 27.299999999999947,
                    "velocity": 0.28346456692913385,
                    "duration": 0.07499999999999929
                },
                {
                    "name": "C#6",
                    "midi": 85,
                    "time": 27.299999999999947,
                    "velocity": 0.33858267716535434,
                    "duration": 0.07499999999999929
                },
                {
                    "name": "G#5",
                    "midi": 80,
                    "time": 27.374999999999947,
                    "velocity": 0.2440944881889764,
                    "duration": 0.03750000000000142
                },
                {
                    "name": "C6",
                    "midi": 84,
                    "time": 27.374999999999947,
                    "velocity": 0.29133858267716534,
                    "duration": 0.03750000000000142
                },
                {
                    "name": "C6",
                    "midi": 84,
                    "time": 27.44999999999995,
                    "velocity": 0.33070866141732286,
                    "duration": 0.07499999999999929
                },
                {
                    "name": "F5",
                    "midi": 77,
                    "time": 27.44999999999995,
                    "velocity": 0.2755905511811024,
                    "duration": 0.07499999999999929
                },
                {
                    "name": "B5",
                    "midi": 83,
                    "time": 27.52499999999995,
                    "velocity": 0.28346456692913385,
                    "duration": 0.03750000000000142
                },
                {
                    "name": "G#5",
                    "midi": 80,
                    "time": 27.52499999999995,
                    "velocity": 0.2283464566929134,
                    "duration": 0.03750000000000142
                },
                {
                    "name": "F#5",
                    "midi": 78,
                    "time": 27.59999999999995,
                    "velocity": 0.2283464566929134,
                    "duration": 0.07499999999999929
                },
                {
                    "name": "A#5",
                    "midi": 82,
                    "time": 27.59999999999995,
                    "velocity": 0.28346456692913385,
                    "duration": 0.07499999999999929
                },
                {
                    "name": "B5",
                    "midi": 83,
                    "time": 27.67499999999995,
                    "velocity": 0.25196850393700787,
                    "duration": 0.07499999999999929
                },
                {
                    "name": "D#5",
                    "midi": 75,
                    "time": 27.67499999999995,
                    "velocity": 0.2125984251968504,
                    "duration": 0.07499999999999929
                },
                {
                    "name": "A#5",
                    "midi": 82,
                    "time": 27.74999999999995,
                    "velocity": 0.28346456692913385,
                    "duration": 0.07499999999999929
                },
                {
                    "name": "F#5",
                    "midi": 78,
                    "time": 27.74999999999995,
                    "velocity": 0.2283464566929134,
                    "duration": 0.07499999999999929
                },
                {
                    "name": "B5",
                    "midi": 83,
                    "time": 27.82499999999995,
                    "velocity": 0.2440944881889764,
                    "duration": 0.07499999999999929
                },
                {
                    "name": "D#5",
                    "midi": 75,
                    "time": 27.82499999999995,
                    "velocity": 0.2047244094488189,
                    "duration": 0.07499999999999929
                },
                {
                    "name": "D5",
                    "midi": 74,
                    "time": 27.89999999999995,
                    "velocity": 0.2283464566929134,
                    "duration": 0.07499999999999929
                },
                {
                    "name": "A#5",
                    "midi": 82,
                    "time": 27.89999999999995,
                    "velocity": 0.28346456692913385,
                    "duration": 0.07499999999999929
                },
                {
                    "name": "B5",
                    "midi": 83,
                    "time": 27.974999999999948,
                    "velocity": 0.25196850393700787,
                    "duration": 0.07499999999999929
                },
                {
                    "name": "F5",
                    "midi": 77,
                    "time": 27.974999999999948,
                    "velocity": 0.2125984251968504,
                    "duration": 0.07499999999999929
                },
                {
                    "name": "D5",
                    "midi": 74,
                    "time": 28.049999999999947,
                    "velocity": 0.2283464566929134,
                    "duration": 0.07499999999999929
                },
                {
                    "name": "A#5",
                    "midi": 82,
                    "time": 28.049999999999947,
                    "velocity": 0.28346456692913385,
                    "duration": 0.07499999999999929
                },
                {
                    "name": "F5",
                    "midi": 77,
                    "time": 28.124999999999947,
                    "velocity": 0.2047244094488189,
                    "duration": 0.07499999999999929
                },
                {
                    "name": "B5",
                    "midi": 83,
                    "time": 28.124999999999947,
                    "velocity": 0.2440944881889764,
                    "duration": 0.07499999999999929
                },
                {
                    "name": "D#5",
                    "midi": 75,
                    "time": 28.199999999999946,
                    "velocity": 0.2283464566929134,
                    "duration": 0.07499999999999929
                },
                {
                    "name": "A#5",
                    "midi": 82,
                    "time": 28.199999999999946,
                    "velocity": 0.28346456692913385,
                    "duration": 0.07499999999999929
                },
                {
                    "name": "F#5",
                    "midi": 78,
                    "time": 28.274999999999945,
                    "velocity": 0.2125984251968504,
                    "duration": 0.07499999999999929
                },
                {
                    "name": "B5",
                    "midi": 83,
                    "time": 28.274999999999945,
                    "velocity": 0.25196850393700787,
                    "duration": 0.07499999999999929
                },
                {
                    "name": "D#5",
                    "midi": 75,
                    "time": 28.349999999999945,
                    "velocity": 0.2283464566929134,
                    "duration": 0.07499999999999929
                },
                {
                    "name": "A#5",
                    "midi": 82,
                    "time": 28.349999999999945,
                    "velocity": 0.28346456692913385,
                    "duration": 0.07499999999999929
                },
                {
                    "name": "B5",
                    "midi": 83,
                    "time": 28.424999999999944,
                    "velocity": 0.2440944881889764,
                    "duration": 0.07499999999999929
                },
                {
                    "name": "F#5",
                    "midi": 78,
                    "time": 28.424999999999944,
                    "velocity": 0.2047244094488189,
                    "duration": 0.07499999999999929
                },
                {
                    "name": "A#5",
                    "midi": 82,
                    "time": 28.499999999999943,
                    "velocity": 0.28346456692913385,
                    "duration": 0.07499999999999929
                },
                {
                    "name": "D5",
                    "midi": 74,
                    "time": 28.499999999999943,
                    "velocity": 0.2283464566929134,
                    "duration": 0.07499999999999929
                },
                {
                    "name": "B5",
                    "midi": 83,
                    "time": 28.574999999999942,
                    "velocity": 0.25196850393700787,
                    "duration": 0.07499999999999929
                },
                {
                    "name": "G#5",
                    "midi": 80,
                    "time": 28.574999999999942,
                    "velocity": 0.2125984251968504,
                    "duration": 0.07499999999999929
                },
                {
                    "name": "D5",
                    "midi": 74,
                    "time": 28.64999999999994,
                    "velocity": 0.2283464566929134,
                    "duration": 0.07499999999999929
                },
                {
                    "name": "A#5",
                    "midi": 82,
                    "time": 28.64999999999994,
                    "velocity": 0.28346456692913385,
                    "duration": 0.07499999999999929
                },
                {
                    "name": "G#5",
                    "midi": 80,
                    "time": 28.72499999999994,
                    "velocity": 0.2047244094488189,
                    "duration": 0.07499999999999929
                },
                {
                    "name": "B5",
                    "midi": 83,
                    "time": 28.72499999999994,
                    "velocity": 0.2440944881889764,
                    "duration": 0.07499999999999929
                },
                {
                    "name": "A#5",
                    "midi": 82,
                    "time": 28.79999999999994,
                    "velocity": 0.28346456692913385,
                    "duration": 0.07499999999999929
                },
                {
                    "name": "D#5",
                    "midi": 75,
                    "time": 28.79999999999994,
                    "velocity": 0.2283464566929134,
                    "duration": 0.07499999999999929
                },
                {
                    "name": "F#5",
                    "midi": 78,
                    "time": 28.87499999999994,
                    "velocity": 0.2125984251968504,
                    "duration": 0.03750000000000142
                },
                {
                    "name": "B5",
                    "midi": 83,
                    "time": 28.87499999999994,
                    "velocity": 0.25196850393700787,
                    "duration": 0.03750000000000142
                },
                {
                    "name": "B5",
                    "midi": 83,
                    "time": 28.949999999999942,
                    "velocity": 0.33070866141732286,
                    "duration": 0.07499999999999929
                },
                {
                    "name": "D#5",
                    "midi": 75,
                    "time": 28.949999999999942,
                    "velocity": 0.33070866141732286,
                    "duration": 0.07499999999999929
                },
                {
                    "name": "C6",
                    "midi": 84,
                    "time": 29.02499999999994,
                    "velocity": 0.28346456692913385,
                    "duration": 0.03750000000000142
                },
                {
                    "name": "F#5",
                    "midi": 78,
                    "time": 29.02499999999994,
                    "velocity": 0.28346456692913385,
                    "duration": 0.03750000000000142
                },
                {
                    "name": "F#5",
                    "midi": 78,
                    "time": 29.099999999999945,
                    "velocity": 0.29133858267716534,
                    "duration": 0.07499999999999929
                },
                {
                    "name": "C#6",
                    "midi": 85,
                    "time": 29.099999999999945,
                    "velocity": 0.3543307086614173,
                    "duration": 0.07499999999999929
                },
                {
                    "name": "A#5",
                    "midi": 82,
                    "time": 29.174999999999944,
                    "velocity": 0.25196850393700787,
                    "duration": 0.07499999999999929
                },
                {
                    "name": "D6",
                    "midi": 86,
                    "time": 29.174999999999944,
                    "velocity": 0.2992125984251969,
                    "duration": 0.07499999999999929
                },
                {
                    "name": "D6",
                    "midi": 86,
                    "time": 29.249999999999943,
                    "velocity": 0.3543307086614173,
                    "duration": 0.07499999999999929
                },
                {
                    "name": "F#5",
                    "midi": 78,
                    "time": 29.249999999999943,
                    "velocity": 0.2992125984251969,
                    "duration": 0.07499999999999929
                },
                {
                    "name": "D#6",
                    "midi": 87,
                    "time": 29.324999999999942,
                    "velocity": 0.2992125984251969,
                    "duration": 0.03750000000000142
                },
                {
                    "name": "A#5",
                    "midi": 82,
                    "time": 29.324999999999942,
                    "velocity": 0.25196850393700787,
                    "duration": 0.03750000000000142
                },
                {
                    "name": "D#6",
                    "midi": 87,
                    "time": 29.399999999999945,
                    "velocity": 0.36220472440944884,
                    "duration": 0.07499999999999929
                },
                {
                    "name": "F5",
                    "midi": 77,
                    "time": 29.399999999999945,
                    "velocity": 0.30708661417322836,
                    "duration": 0.07499999999999929
                },
                {
                    "name": "G#5",
                    "midi": 80,
                    "time": 29.474999999999945,
                    "velocity": 0.2755905511811024,
                    "duration": 0.03750000000000142
                },
                {
                    "name": "D6",
                    "midi": 86,
                    "time": 29.474999999999945,
                    "velocity": 0.3228346456692913,
                    "duration": 0.03750000000000142
                },
                {
                    "name": "D6",
                    "midi": 86,
                    "time": 29.549999999999947,
                    "velocity": 0.3543307086614173,
                    "duration": 0.07499999999999929
                },
                {
                    "name": "F5",
                    "midi": 77,
                    "time": 29.549999999999947,
                    "velocity": 0.2992125984251969,
                    "duration": 0.07499999999999929
                },
                {
                    "name": "C#6",
                    "midi": 85,
                    "time": 29.624999999999947,
                    "velocity": 0.2992125984251969,
                    "duration": 0.03750000000000142
                },
                {
                    "name": "G#5",
                    "midi": 80,
                    "time": 29.624999999999947,
                    "velocity": 0.25196850393700787,
                    "duration": 0.03750000000000142
                },
                {
                    "name": "F5",
                    "midi": 77,
                    "time": 29.69999999999995,
                    "velocity": 0.28346456692913385,
                    "duration": 0.07499999999999929
                },
                {
                    "name": "C#6",
                    "midi": 85,
                    "time": 29.69999999999995,
                    "velocity": 0.33858267716535434,
                    "duration": 0.07499999999999929
                },
                {
                    "name": "C6",
                    "midi": 84,
                    "time": 29.77499999999995,
                    "velocity": 0.29133858267716534,
                    "duration": 0.03750000000000142
                },
                {
                    "name": "G#5",
                    "midi": 80,
                    "time": 29.77499999999995,
                    "velocity": 0.2440944881889764,
                    "duration": 0.03750000000000142
                },
                {
                    "name": "F5",
                    "midi": 77,
                    "time": 29.84999999999995,
                    "velocity": 0.2755905511811024,
                    "duration": 0.07499999999999929
                },
                {
                    "name": "C6",
                    "midi": 84,
                    "time": 29.84999999999995,
                    "velocity": 0.33070866141732286,
                    "duration": 0.07499999999999929
                },
                {
                    "name": "G#5",
                    "midi": 80,
                    "time": 29.92499999999995,
                    "velocity": 0.2283464566929134,
                    "duration": 0.03750000000000142
                },
                {
                    "name": "B5",
                    "midi": 83,
                    "time": 29.92499999999995,
                    "velocity": 0.28346456692913385,
                    "duration": 0.03750000000000142
                },
                {
                    "name": "F#5",
                    "midi": 78,
                    "time": 29.999999999999954,
                    "velocity": 0.2283464566929134,
                    "duration": 0.07499999999999929
                },
                {
                    "name": "A#5",
                    "midi": 82,
                    "time": 29.999999999999954,
                    "velocity": 0.28346456692913385,
                    "duration": 0.07499999999999929
                },
                {
                    "name": "D#5",
                    "midi": 75,
                    "time": 30.074999999999953,
                    "velocity": 0.2125984251968504,
                    "duration": 0.07499999999999929
                },
                {
                    "name": "B5",
                    "midi": 83,
                    "time": 30.074999999999953,
                    "velocity": 0.25196850393700787,
                    "duration": 0.07499999999999929
                },
                {
                    "name": "F#5",
                    "midi": 78,
                    "time": 30.149999999999952,
                    "velocity": 0.2283464566929134,
                    "duration": 0.07499999999999929
                },
                {
                    "name": "A#5",
                    "midi": 82,
                    "time": 30.149999999999952,
                    "velocity": 0.28346456692913385,
                    "duration": 0.07499999999999929
                },
                {
                    "name": "D#6",
                    "midi": 87,
                    "time": 30.22499999999995,
                    "velocity": 0.25984251968503935,
                    "duration": 0.07499999999999929
                },
                {
                    "name": "F#5",
                    "midi": 78,
                    "time": 30.29999999999995,
                    "velocity": 0.29133858267716534,
                    "duration": 0.07499999999999929
                },
                {
                    "name": "F#6",
                    "midi": 90,
                    "time": 30.29999999999995,
                    "velocity": 0.3543307086614173,
                    "duration": 0.14999999999999858
                },
                {
                    "name": "C#6",
                    "midi": 85,
                    "time": 30.37499999999995,
                    "velocity": 0.2283464566929134,
                    "duration": 0.07499999999999929
                },
                {
                    "name": "D#6",
                    "midi": 87,
                    "time": 30.37499999999995,
                    "velocity": 0.28346456692913385,
                    "duration": 0.07499999999999929
                },
                {
                    "name": "F#6",
                    "midi": 90,
                    "time": 30.44999999999995,
                    "velocity": 0.2992125984251969,
                    "duration": 0.07499999999999929
                },
                {
                    "name": "F#5",
                    "midi": 78,
                    "time": 30.44999999999995,
                    "velocity": 0.2440944881889764,
                    "duration": 0.07499999999999929
                },
                {
                    "name": "E6",
                    "midi": 88,
                    "time": 30.52499999999995,
                    "velocity": 0.28346456692913385,
                    "duration": 0.07499999999999929
                },
                {
                    "name": "C#6",
                    "midi": 85,
                    "time": 30.52499999999995,
                    "velocity": 0.2283464566929134,
                    "duration": 0.07499999999999929
                },
                {
                    "name": "F#5",
                    "midi": 78,
                    "time": 30.599999999999948,
                    "velocity": 0.30708661417322836,
                    "duration": 0.07499999999999929
                },
                {
                    "name": "E6",
                    "midi": 88,
                    "time": 30.599999999999948,
                    "velocity": 0.3779527559055118,
                    "duration": 0.14999999999999858
                },
                {
                    "name": "D6",
                    "midi": 86,
                    "time": 30.674999999999947,
                    "velocity": 0.2755905511811024,
                    "duration": 0.07499999999999929
                },
                {
                    "name": "B5",
                    "midi": 83,
                    "time": 30.674999999999947,
                    "velocity": 0.2204724409448819,
                    "duration": 0.07499999999999929
                },
                {
                    "name": "E6",
                    "midi": 88,
                    "time": 30.749999999999947,
                    "velocity": 0.2992125984251969,
                    "duration": 0.07499999999999929
                },
                {
                    "name": "F#5",
                    "midi": 78,
                    "time": 30.749999999999947,
                    "velocity": 0.2440944881889764,
                    "duration": 0.07499999999999929
                },
                {
                    "name": "B5",
                    "midi": 83,
                    "time": 30.824999999999946,
                    "velocity": 0.2283464566929134,
                    "duration": 0.07499999999999929
                },
                {
                    "name": "D#6",
                    "midi": 87,
                    "time": 30.824999999999946,
                    "velocity": 0.28346456692913385,
                    "duration": 0.07499999999999929
                },
                {
                    "name": "D#6",
                    "midi": 87,
                    "time": 30.899999999999945,
                    "velocity": 0.3543307086614173,
                    "duration": 0.14999999999999858
                },
                {
                    "name": "E5",
                    "midi": 76,
                    "time": 30.899999999999945,
                    "velocity": 0.3543307086614173,
                    "duration": 0.07499999999999929
                },
                {
                    "name": "C6",
                    "midi": 84,
                    "time": 30.974999999999945,
                    "velocity": 0.25984251968503935,
                    "duration": 0.07499999999999929
                },
                {
                    "name": "A#5",
                    "midi": 82,
                    "time": 30.974999999999945,
                    "velocity": 0.2125984251968504,
                    "duration": 0.07499999999999929
                },
                {
                    "name": "D#6",
                    "midi": 87,
                    "time": 31.049999999999944,
                    "velocity": 0.2992125984251969,
                    "duration": 0.07499999999999929
                },
                {
                    "name": "E5",
                    "midi": 76,
                    "time": 31.049999999999944,
                    "velocity": 0.2440944881889764,
                    "duration": 0.07499999999999929
                },
                {
                    "name": "A#5",
                    "midi": 82,
                    "time": 31.124999999999943,
                    "velocity": 0.2755905511811024,
                    "duration": 0.07499999999999929
                },
                {
                    "name": "C#6",
                    "midi": 85,
                    "time": 31.124999999999943,
                    "velocity": 0.2755905511811024,
                    "duration": 0.07499999999999929
                },
                {
                    "name": "C#6",
                    "midi": 85,
                    "time": 31.199999999999942,
                    "velocity": 0.3543307086614173,
                    "duration": 0.14999999999999858
                },
                {
                    "name": "D#5",
                    "midi": 75,
                    "time": 31.199999999999942,
                    "velocity": 0.29133858267716534,
                    "duration": 0.07499999999999929
                },
                {
                    "name": "A#5",
                    "midi": 82,
                    "time": 31.27499999999994,
                    "velocity": 0.25984251968503935,
                    "duration": 0.07499999999999929
                },
                {
                    "name": "F#5",
                    "midi": 78,
                    "time": 31.27499999999994,
                    "velocity": 0.2125984251968504,
                    "duration": 0.07499999999999929
                },
                {
                    "name": "C#6",
                    "midi": 85,
                    "time": 31.34999999999994,
                    "velocity": 0.2992125984251969,
                    "duration": 0.07499999999999929
                },
                {
                    "name": "D#5",
                    "midi": 75,
                    "time": 31.34999999999994,
                    "velocity": 0.2440944881889764,
                    "duration": 0.07499999999999929
                },
                {
                    "name": "F#5",
                    "midi": 78,
                    "time": 31.42499999999994,
                    "velocity": 0.2755905511811024,
                    "duration": 0.05624999999999858
                },
                {
                    "name": "B5",
                    "midi": 83,
                    "time": 31.42499999999994,
                    "velocity": 0.2755905511811024,
                    "duration": 0.05624999999999858
                },
                {
                    "name": "C#5",
                    "midi": 73,
                    "time": 31.49999999999994,
                    "velocity": 0.2755905511811024,
                    "duration": 0.07499999999999929
                },
                {
                    "name": "C6",
                    "midi": 84,
                    "time": 31.49999999999994,
                    "velocity": 0.33070866141732286,
                    "duration": 0.14999999999999858
                },
                {
                    "name": "A5",
                    "midi": 81,
                    "time": 31.57499999999994,
                    "velocity": 0.25984251968503935,
                    "duration": 0.07499999999999929
                },
                {
                    "name": "G5",
                    "midi": 79,
                    "time": 31.57499999999994,
                    "velocity": 0.25984251968503935,
                    "duration": 0.07499999999999929
                },
                {
                    "name": "C6",
                    "midi": 84,
                    "time": 31.649999999999938,
                    "velocity": 0.28346456692913385,
                    "duration": 0.07499999999999929
                },
                {
                    "name": "C#5",
                    "midi": 73,
                    "time": 31.649999999999938,
                    "velocity": 0.2283464566929134,
                    "duration": 0.07499999999999929
                },
                {
                    "name": "G5",
                    "midi": 79,
                    "time": 31.724999999999937,
                    "velocity": 0.25196850393700787,
                    "duration": 0.05624999999999858
                },
                {
                    "name": "A#5",
                    "midi": 82,
                    "time": 31.724999999999937,
                    "velocity": 0.25196850393700787,
                    "duration": 0.05624999999999858
                },
                {
                    "name": "C5",
                    "midi": 72,
                    "time": 31.799999999999937,
                    "velocity": 0.2755905511811024,
                    "duration": 0.07499999999999929
                },
                {
                    "name": "A#5",
                    "midi": 82,
                    "time": 31.799999999999937,
                    "velocity": 0.3228346456692913,
                    "duration": 0.14999999999999858
                },
                {
                    "name": "F5",
                    "midi": 77,
                    "time": 31.874999999999936,
                    "velocity": 0.2125984251968504,
                    "duration": 0.07499999999999929
                },
                {
                    "name": "G#5",
                    "midi": 80,
                    "time": 31.874999999999936,
                    "velocity": 0.25196850393700787,
                    "duration": 0.07499999999999929
                },
                {
                    "name": "C5",
                    "midi": 72,
                    "time": 31.949999999999935,
                    "velocity": 0.2283464566929134,
                    "duration": 0.07499999999999929
                },
                {
                    "name": "A#5",
                    "midi": 82,
                    "time": 31.949999999999935,
                    "velocity": 0.28346456692913385,
                    "duration": 0.07499999999999929
                },
                {
                    "name": "F5",
                    "midi": 77,
                    "time": 32.024999999999935,
                    "velocity": 0.2047244094488189,
                    "duration": 0.05624999999999858
                },
                {
                    "name": "A5",
                    "midi": 81,
                    "time": 32.024999999999935,
                    "velocity": 0.2440944881889764,
                    "duration": 0.05624999999999858
                },
                {
                    "name": "A5",
                    "midi": 81,
                    "time": 32.09999999999993,
                    "velocity": 0.3228346456692913,
                    "duration": 0.15000000000000568
                },
                {
                    "name": "A#4",
                    "midi": 70,
                    "time": 32.09999999999993,
                    "velocity": 0.2755905511811024,
                    "duration": 0.07500000000000284
                },
                {
                    "name": "F#5",
                    "midi": 78,
                    "time": 32.17499999999993,
                    "velocity": 0.2440944881889764,
                    "duration": 0.07500000000000284
                },
                {
                    "name": "E5",
                    "midi": 76,
                    "time": 32.17499999999993,
                    "velocity": 0.2047244094488189,
                    "duration": 0.07500000000000284
                },
                {
                    "name": "A5",
                    "midi": 81,
                    "time": 32.249999999999936,
                    "velocity": 0.28346456692913385,
                    "duration": 0.07500000000000284
                },
                {
                    "name": "A#4",
                    "midi": 70,
                    "time": 32.249999999999936,
                    "velocity": 0.2283464566929134,
                    "duration": 0.07500000000000284
                },
                {
                    "name": "G5",
                    "midi": 79,
                    "time": 32.32499999999994,
                    "velocity": 0.2440944881889764,
                    "duration": 0.05624999999999858
                },
                {
                    "name": "E5",
                    "midi": 76,
                    "time": 32.32499999999994,
                    "velocity": 0.2047244094488189,
                    "duration": 0.05624999999999858
                },
                {
                    "name": "A4",
                    "midi": 69,
                    "time": 32.399999999999935,
                    "velocity": 0.25196850393700787,
                    "duration": 0.07500000000000284
                },
                {
                    "name": "G5",
                    "midi": 79,
                    "time": 32.399999999999935,
                    "velocity": 0.2992125984251969,
                    "duration": 0.15000000000000568
                },
                {
                    "name": "E5",
                    "midi": 76,
                    "time": 32.47499999999994,
                    "velocity": 0.2283464566929134,
                    "duration": 0.07500000000000284
                },
                {
                    "name": "C5",
                    "midi": 72,
                    "time": 32.47499999999994,
                    "velocity": 0.1889763779527559,
                    "duration": 0.07500000000000284
                },
                {
                    "name": "G5",
                    "midi": 79,
                    "time": 32.54999999999994,
                    "velocity": 0.28346456692913385,
                    "duration": 0.07500000000000284
                },
                {
                    "name": "A4",
                    "midi": 69,
                    "time": 32.54999999999994,
                    "velocity": 0.2283464566929134,
                    "duration": 0.07500000000000284
                },
                {
                    "name": "C5",
                    "midi": 72,
                    "time": 32.62499999999994,
                    "velocity": 0.1968503937007874,
                    "duration": 0.05624999999999858
                },
                {
                    "name": "F5",
                    "midi": 77,
                    "time": 32.62499999999994,
                    "velocity": 0.23622047244094488,
                    "duration": 0.05624999999999858
                },
                {
                    "name": "C#5",
                    "midi": 73,
                    "time": 32.69999999999994,
                    "velocity": 0.2204724409448819,
                    "duration": 0.15000000000000568
                },
                {
                    "name": "F5",
                    "midi": 77,
                    "time": 32.69999999999994,
                    "velocity": 0.25984251968503935,
                    "duration": 0.07500000000000284
                },
                {
                    "name": "D#5",
                    "midi": 75,
                    "time": 32.77499999999994,
                    "velocity": 0.2204724409448819,
                    "duration": 0.07500000000000284
                },
                {
                    "name": "F5",
                    "midi": 77,
                    "time": 32.849999999999945,
                    "velocity": 0.25984251968503935,
                    "duration": 0.07500000000000284
                },
                {
                    "name": "A#4",
                    "midi": 70,
                    "time": 32.849999999999945,
                    "velocity": 0.2204724409448819,
                    "duration": 0.15000000000000568
                },
                {
                    "name": "E5",
                    "midi": 76,
                    "time": 32.92499999999995,
                    "velocity": 0.2204724409448819,
                    "duration": 0.07500000000000284
                },
                {
                    "name": "G5",
                    "midi": 79,
                    "time": 32.99999999999995,
                    "velocity": 0.2440944881889764,
                    "duration": 0.07500000000000284
                },
                {
                    "name": "D#5",
                    "midi": 75,
                    "time": 32.99999999999995,
                    "velocity": 0.2047244094488189,
                    "duration": 0.15000000000000568
                },
                {
                    "name": "E5",
                    "midi": 76,
                    "time": 33.07499999999995,
                    "velocity": 0.2125984251968504,
                    "duration": 0.07500000000000284
                },
                {
                    "name": "G5",
                    "midi": 79,
                    "time": 33.149999999999956,
                    "velocity": 0.25196850393700787,
                    "duration": 0.07500000000000284
                },
                {
                    "name": "C5",
                    "midi": 72,
                    "time": 33.149999999999956,
                    "velocity": 0.2125984251968504,
                    "duration": 0.15000000000000568
                },
                {
                    "name": "F5",
                    "midi": 77,
                    "time": 33.22499999999996,
                    "velocity": 0.1968503937007874,
                    "duration": 0.07500000000000284
                },
                {
                    "name": "A#4",
                    "midi": 70,
                    "time": 33.29999999999996,
                    "velocity": 0.1968503937007874,
                    "duration": 0.07500000000000284
                },
                {
                    "name": "F5",
                    "midi": 77,
                    "time": 33.29999999999996,
                    "velocity": 0.23622047244094488,
                    "duration": 0.07500000000000284
                },
                {
                    "name": "D#5",
                    "midi": 75,
                    "time": 33.374999999999964,
                    "velocity": 0.2047244094488189,
                    "duration": 0.07500000000000284
                },
                {
                    "name": "F5",
                    "midi": 77,
                    "time": 33.44999999999997,
                    "velocity": 0.2440944881889764,
                    "duration": 0.07500000000000284
                },
                {
                    "name": "E5",
                    "midi": 76,
                    "time": 33.52499999999997,
                    "velocity": 0.2047244094488189,
                    "duration": 0.07500000000000284
                },
                {
                    "name": "G5",
                    "midi": 79,
                    "time": 33.59999999999997,
                    "velocity": 0.25196850393700787,
                    "duration": 0.07500000000000284
                },
                {
                    "name": "C5",
                    "midi": 72,
                    "time": 33.59999999999997,
                    "velocity": 0.2125984251968504,
                    "duration": 0.07500000000000284
                },
                {
                    "name": "D#5",
                    "midi": 75,
                    "time": 33.674999999999976,
                    "velocity": 0.2204724409448819,
                    "duration": 0.07500000000000284
                },
                {
                    "name": "G5",
                    "midi": 79,
                    "time": 33.74999999999998,
                    "velocity": 0.2440944881889764,
                    "duration": 0.07500000000000284
                },
                {
                    "name": "F#5",
                    "midi": 78,
                    "time": 33.82499999999998,
                    "velocity": 0.2204724409448819,
                    "duration": 0.07500000000000284
                },
                {
                    "name": "F5",
                    "midi": 77,
                    "time": 33.899999999999984,
                    "velocity": 0.28346456692913385,
                    "duration": 0.07500000000000284
                },
                {
                    "name": "F#5",
                    "midi": 78,
                    "time": 33.97499999999999,
                    "velocity": 0.2440944881889764,
                    "duration": 0.07500000000000284
                },
                {
                    "name": "F5",
                    "midi": 77,
                    "time": 34.04999999999999,
                    "velocity": 0.28346456692913385,
                    "duration": 0.07500000000000284
                },
                {
                    "name": "G5",
                    "midi": 79,
                    "time": 34.12499999999999,
                    "velocity": 0.23622047244094488,
                    "duration": 0.07500000000000284
                },
                {
                    "name": "F5",
                    "midi": 77,
                    "time": 34.199999999999996,
                    "velocity": 0.28346456692913385,
                    "duration": 0.07500000000000284
                },
                {
                    "name": "F#5",
                    "midi": 78,
                    "time": 34.275,
                    "velocity": 0.2440944881889764,
                    "duration": 0.07500000000000284
                },
                {
                    "name": "F5",
                    "midi": 77,
                    "time": 34.35,
                    "velocity": 0.28346456692913385,
                    "duration": 0.07500000000000284
                },
                {
                    "name": "G5",
                    "midi": 79,
                    "time": 34.425000000000004,
                    "velocity": 0.2440944881889764,
                    "duration": 0.07500000000000284
                },
                {
                    "name": "F5",
                    "midi": 77,
                    "time": 34.50000000000001,
                    "velocity": 0.28346456692913385,
                    "duration": 0.07500000000000284
                },
                {
                    "name": "F#5",
                    "midi": 78,
                    "time": 34.57500000000001,
                    "velocity": 0.2440944881889764,
                    "duration": 0.07500000000000284
                },
                {
                    "name": "F5",
                    "midi": 77,
                    "time": 34.65000000000001,
                    "velocity": 0.28346456692913385,
                    "duration": 0.07500000000000284
                },
                {
                    "name": "G5",
                    "midi": 79,
                    "time": 34.725000000000016,
                    "velocity": 0.25196850393700787,
                    "duration": 0.07500000000000284
                },
                {
                    "name": "F5",
                    "midi": 77,
                    "time": 34.80000000000002,
                    "velocity": 0.28346456692913385,
                    "duration": 0.07500000000000284
                },
                {
                    "name": "F#5",
                    "midi": 78,
                    "time": 34.87500000000002,
                    "velocity": 0.25196850393700787,
                    "duration": 0.07500000000000284
                },
                {
                    "name": "F5",
                    "midi": 77,
                    "time": 34.950000000000024,
                    "velocity": 0.28346456692913385,
                    "duration": 0.07500000000000284
                },
                {
                    "name": "G5",
                    "midi": 79,
                    "time": 35.02500000000003,
                    "velocity": 0.2440944881889764,
                    "duration": 0.07500000000000284
                },
                {
                    "name": "A4",
                    "midi": 69,
                    "time": 35.10000000000003,
                    "velocity": 0.2283464566929134,
                    "duration": 0.07500000000000284
                },
                {
                    "name": "F5",
                    "midi": 77,
                    "time": 35.10000000000003,
                    "velocity": 0.28346456692913385,
                    "duration": 0.07500000000000284
                },
                {
                    "name": "F#5",
                    "midi": 78,
                    "time": 35.17500000000003,
                    "velocity": 0.25196850393700787,
                    "duration": 0.07500000000000284
                },
                {
                    "name": "C5",
                    "midi": 72,
                    "time": 35.17500000000003,
                    "velocity": 0.2125984251968504,
                    "duration": 0.07500000000000284
                },
                {
                    "name": "A4",
                    "midi": 69,
                    "time": 35.250000000000036,
                    "velocity": 0.2283464566929134,
                    "duration": 0.07500000000000284
                },
                {
                    "name": "F5",
                    "midi": 77,
                    "time": 35.250000000000036,
                    "velocity": 0.28346456692913385,
                    "duration": 0.07500000000000284
                },
                {
                    "name": "C5",
                    "midi": 72,
                    "time": 35.32500000000004,
                    "velocity": 0.2047244094488189,
                    "duration": 0.07500000000000284
                },
                {
                    "name": "G5",
                    "midi": 79,
                    "time": 35.32500000000004,
                    "velocity": 0.2440944881889764,
                    "duration": 0.07500000000000284
                },
                {
                    "name": "A#4",
                    "midi": 70,
                    "time": 35.40000000000004,
                    "velocity": 0.2283464566929134,
                    "duration": 0.07500000000000284
                },
                {
                    "name": "F5",
                    "midi": 77,
                    "time": 35.40000000000004,
                    "velocity": 0.28346456692913385,
                    "duration": 0.07500000000000284
                },
                {
                    "name": "D5",
                    "midi": 74,
                    "time": 35.475000000000044,
                    "velocity": 0.2125984251968504,
                    "duration": 0.07500000000000284
                },
                {
                    "name": "F#5",
                    "midi": 78,
                    "time": 35.475000000000044,
                    "velocity": 0.25196850393700787,
                    "duration": 0.07500000000000284
                },
                {
                    "name": "A#4",
                    "midi": 70,
                    "time": 35.55000000000005,
                    "velocity": 0.2283464566929134,
                    "duration": 0.07500000000000284
                },
                {
                    "name": "F5",
                    "midi": 77,
                    "time": 35.55000000000005,
                    "velocity": 0.28346456692913385,
                    "duration": 0.07500000000000284
                },
                {
                    "name": "D5",
                    "midi": 74,
                    "time": 35.62500000000005,
                    "velocity": 0.2047244094488189,
                    "duration": 0.07500000000000284
                },
                {
                    "name": "G5",
                    "midi": 79,
                    "time": 35.62500000000005,
                    "velocity": 0.2440944881889764,
                    "duration": 0.07500000000000284
                },
                {
                    "name": "A4",
                    "midi": 69,
                    "time": 35.70000000000005,
                    "velocity": 0.2283464566929134,
                    "duration": 0.07500000000000284
                },
                {
                    "name": "F5",
                    "midi": 77,
                    "time": 35.70000000000005,
                    "velocity": 0.28346456692913385,
                    "duration": 0.07500000000000284
                },
                {
                    "name": "F#5",
                    "midi": 78,
                    "time": 35.775000000000055,
                    "velocity": 0.25196850393700787,
                    "duration": 0.07500000000000284
                },
                {
                    "name": "C5",
                    "midi": 72,
                    "time": 35.775000000000055,
                    "velocity": 0.2125984251968504,
                    "duration": 0.07500000000000284
                },
                {
                    "name": "F5",
                    "midi": 77,
                    "time": 35.85000000000006,
                    "velocity": 0.28346456692913385,
                    "duration": 0.07500000000000284
                },
                {
                    "name": "A4",
                    "midi": 69,
                    "time": 35.85000000000006,
                    "velocity": 0.2283464566929134,
                    "duration": 0.07500000000000284
                },
                {
                    "name": "C5",
                    "midi": 72,
                    "time": 35.92500000000006,
                    "velocity": 0.2047244094488189,
                    "duration": 0.07500000000000284
                },
                {
                    "name": "G5",
                    "midi": 79,
                    "time": 35.92500000000006,
                    "velocity": 0.2440944881889764,
                    "duration": 0.07500000000000284
                },
                {
                    "name": "F5",
                    "midi": 77,
                    "time": 36.000000000000064,
                    "velocity": 0.28346456692913385,
                    "duration": 0.07500000000000284
                },
                {
                    "name": "A#4",
                    "midi": 70,
                    "time": 36.000000000000064,
                    "velocity": 0.2283464566929134,
                    "duration": 0.07500000000000284
                },
                {
                    "name": "F#5",
                    "midi": 78,
                    "time": 36.07500000000007,
                    "velocity": 0.25196850393700787,
                    "duration": 0.03750000000000142
                },
                {
                    "name": "D5",
                    "midi": 74,
                    "time": 36.07500000000007,
                    "velocity": 0.2125984251968504,
                    "duration": 0.03750000000000142
                },
                {
                    "name": "A#4",
                    "midi": 70,
                    "time": 36.15000000000007,
                    "velocity": 0.33070866141732286,
                    "duration": 0.07500000000000284
                },
                {
                    "name": "F#5",
                    "midi": 78,
                    "time": 36.15000000000007,
                    "velocity": 0.33070866141732286,
                    "duration": 0.07500000000000284
                },
                {
                    "name": "D5",
                    "midi": 74,
                    "time": 36.22500000000007,
                    "velocity": 0.28346456692913385,
                    "duration": 0.03750000000000142
                },
                {
                    "name": "G5",
                    "midi": 79,
                    "time": 36.22500000000007,
                    "velocity": 0.28346456692913385,
                    "duration": 0.03750000000000142
                },
                {
                    "name": "G#5",
                    "midi": 80,
                    "time": 36.300000000000075,
                    "velocity": 0.3543307086614173,
                    "duration": 0.07500000000000284
                },
                {
                    "name": "D5",
                    "midi": 74,
                    "time": 36.300000000000075,
                    "velocity": 0.3543307086614173,
                    "duration": 0.07500000000000284
                },
                {
                    "name": "A5",
                    "midi": 81,
                    "time": 36.37500000000008,
                    "velocity": 0.2992125984251969,
                    "duration": 0.07500000000000284
                },
                {
                    "name": "F5",
                    "midi": 77,
                    "time": 36.37500000000008,
                    "velocity": 0.2992125984251969,
                    "duration": 0.07500000000000284
                },
                {
                    "name": "A5",
                    "midi": 81,
                    "time": 36.45000000000008,
                    "velocity": 0.3543307086614173,
                    "duration": 0.07500000000000284
                },
                {
                    "name": "D5",
                    "midi": 74,
                    "time": 36.45000000000008,
                    "velocity": 0.3543307086614173,
                    "duration": 0.07500000000000284
                },
                {
                    "name": "A#5",
                    "midi": 82,
                    "time": 36.525000000000084,
                    "velocity": 0.2992125984251969,
                    "duration": 0.03750000000000142
                },
                {
                    "name": "F5",
                    "midi": 77,
                    "time": 36.525000000000084,
                    "velocity": 0.2992125984251969,
                    "duration": 0.03750000000000142
                },
                {
                    "name": "C5",
                    "midi": 72,
                    "time": 36.60000000000009,
                    "velocity": 0.36220472440944884,
                    "duration": 0.07500000000000284
                },
                {
                    "name": "A#5",
                    "midi": 82,
                    "time": 36.60000000000009,
                    "velocity": 0.36220472440944884,
                    "duration": 0.07500000000000284
                },
                {
                    "name": "A5",
                    "midi": 81,
                    "time": 36.67500000000009,
                    "velocity": 0.3228346456692913,
                    "duration": 0.03750000000000142
                },
                {
                    "name": "D#5",
                    "midi": 75,
                    "time": 36.67500000000009,
                    "velocity": 0.3228346456692913,
                    "duration": 0.03750000000000142
                },
                {
                    "name": "A5",
                    "midi": 81,
                    "time": 36.75000000000009,
                    "velocity": 0.3543307086614173,
                    "duration": 0.07500000000000284
                },
                {
                    "name": "C5",
                    "midi": 72,
                    "time": 36.75000000000009,
                    "velocity": 0.3543307086614173,
                    "duration": 0.07500000000000284
                },
                {
                    "name": "D#5",
                    "midi": 75,
                    "time": 36.825000000000095,
                    "velocity": 0.2992125984251969,
                    "duration": 0.03750000000000142
                },
                {
                    "name": "G#5",
                    "midi": 80,
                    "time": 36.825000000000095,
                    "velocity": 0.2992125984251969,
                    "duration": 0.03750000000000142
                },
                {
                    "name": "G#5",
                    "midi": 80,
                    "time": 36.9000000000001,
                    "velocity": 0.33858267716535434,
                    "duration": 0.07500000000000284
                },
                {
                    "name": "C5",
                    "midi": 72,
                    "time": 36.9000000000001,
                    "velocity": 0.33858267716535434,
                    "duration": 0.07500000000000284
                },
                {
                    "name": "G5",
                    "midi": 79,
                    "time": 36.9750000000001,
                    "velocity": 0.29133858267716534,
                    "duration": 0.03750000000000142
                },
                {
                    "name": "D#5",
                    "midi": 75,
                    "time": 36.9750000000001,
                    "velocity": 0.29133858267716534,
                    "duration": 0.03750000000000142
                },
                {
                    "name": "G5",
                    "midi": 79,
                    "time": 37.050000000000104,
                    "velocity": 0.33070866141732286,
                    "duration": 0.07500000000000284
                },
                {
                    "name": "C5",
                    "midi": 72,
                    "time": 37.050000000000104,
                    "velocity": 0.33070866141732286,
                    "duration": 0.07500000000000284
                },
                {
                    "name": "F#5",
                    "midi": 78,
                    "time": 37.12500000000011,
                    "velocity": 0.28346456692913385,
                    "duration": 0.03750000000000142
                },
                {
                    "name": "D#5",
                    "midi": 75,
                    "time": 37.12500000000011,
                    "velocity": 0.28346456692913385,
                    "duration": 0.03750000000000142
                },
                {
                    "name": "D5",
                    "midi": 74,
                    "time": 37.20000000000011,
                    "velocity": 0.2283464566929134,
                    "duration": 0.07500000000000284
                },
                {
                    "name": "F5",
                    "midi": 77,
                    "time": 37.20000000000011,
                    "velocity": 0.28346456692913385,
                    "duration": 0.07500000000000284
                },
                {
                    "name": "A#4",
                    "midi": 70,
                    "time": 37.27500000000011,
                    "velocity": 0.2125984251968504,
                    "duration": 0.07500000000000284
                },
                {
                    "name": "F#5",
                    "midi": 78,
                    "time": 37.27500000000011,
                    "velocity": 0.25196850393700787,
                    "duration": 0.07500000000000284
                },
                {
                    "name": "D5",
                    "midi": 74,
                    "time": 37.350000000000115,
                    "velocity": 0.2283464566929134,
                    "duration": 0.07500000000000284
                },
                {
                    "name": "F5",
                    "midi": 77,
                    "time": 37.350000000000115,
                    "velocity": 0.28346456692913385,
                    "duration": 0.07500000000000284
                },
                {
                    "name": "G5",
                    "midi": 79,
                    "time": 37.42500000000012,
                    "velocity": 0.2440944881889764,
                    "duration": 0.07500000000000284
                },
                {
                    "name": "A#4",
                    "midi": 70,
                    "time": 37.42500000000012,
                    "velocity": 0.2047244094488189,
                    "duration": 0.07500000000000284
                },
                {
                    "name": "A4",
                    "midi": 69,
                    "time": 37.50000000000012,
                    "velocity": 0.2283464566929134,
                    "duration": 0.07500000000000284
                },
                {
                    "name": "F5",
                    "midi": 77,
                    "time": 37.50000000000012,
                    "velocity": 0.28346456692913385,
                    "duration": 0.07500000000000284
                },
                {
                    "name": "C5",
                    "midi": 72,
                    "time": 37.575000000000124,
                    "velocity": 0.2125984251968504,
                    "duration": 0.07500000000000284
                },
                {
                    "name": "F#5",
                    "midi": 78,
                    "time": 37.575000000000124,
                    "velocity": 0.25196850393700787,
                    "duration": 0.07500000000000284
                },
                {
                    "name": "F5",
                    "midi": 77,
                    "time": 37.65000000000013,
                    "velocity": 0.28346456692913385,
                    "duration": 0.07500000000000284
                },
                {
                    "name": "A4",
                    "midi": 69,
                    "time": 37.65000000000013,
                    "velocity": 0.2283464566929134,
                    "duration": 0.07500000000000284
                },
                {
                    "name": "C5",
                    "midi": 72,
                    "time": 37.72500000000013,
                    "velocity": 0.2047244094488189,
                    "duration": 0.07500000000000284
                },
                {
                    "name": "G5",
                    "midi": 79,
                    "time": 37.72500000000013,
                    "velocity": 0.2440944881889764,
                    "duration": 0.07500000000000284
                },
                {
                    "name": "F5",
                    "midi": 77,
                    "time": 37.80000000000013,
                    "velocity": 0.28346456692913385,
                    "duration": 0.07500000000000284
                },
                {
                    "name": "A#4",
                    "midi": 70,
                    "time": 37.80000000000013,
                    "velocity": 0.2283464566929134,
                    "duration": 0.07500000000000284
                },
                {
                    "name": "D5",
                    "midi": 74,
                    "time": 37.875000000000135,
                    "velocity": 0.2125984251968504,
                    "duration": 0.07500000000000284
                },
                {
                    "name": "F#5",
                    "midi": 78,
                    "time": 37.875000000000135,
                    "velocity": 0.25196850393700787,
                    "duration": 0.07500000000000284
                },
                {
                    "name": "F5",
                    "midi": 77,
                    "time": 37.95000000000014,
                    "velocity": 0.28346456692913385,
                    "duration": 0.07500000000000284
                },
                {
                    "name": "A#4",
                    "midi": 70,
                    "time": 37.95000000000014,
                    "velocity": 0.2283464566929134,
                    "duration": 0.07500000000000284
                },
                {
                    "name": "D5",
                    "midi": 74,
                    "time": 38.02500000000014,
                    "velocity": 0.2047244094488189,
                    "duration": 0.07500000000000284
                },
                {
                    "name": "G5",
                    "midi": 79,
                    "time": 38.02500000000014,
                    "velocity": 0.2440944881889764,
                    "duration": 0.07500000000000284
                },
                {
                    "name": "F5",
                    "midi": 77,
                    "time": 38.10000000000014,
                    "velocity": 0.28346456692913385,
                    "duration": 0.07500000000000284
                },
                {
                    "name": "A4",
                    "midi": 69,
                    "time": 38.10000000000014,
                    "velocity": 0.2283464566929134,
                    "duration": 0.07500000000000284
                },
                {
                    "name": "F#5",
                    "midi": 78,
                    "time": 38.175000000000146,
                    "velocity": 0.25196850393700787,
                    "duration": 0.07500000000000284
                },
                {
                    "name": "D#5",
                    "midi": 75,
                    "time": 38.175000000000146,
                    "velocity": 0.2125984251968504,
                    "duration": 0.07500000000000284
                },
                {
                    "name": "A4",
                    "midi": 69,
                    "time": 38.25000000000015,
                    "velocity": 0.2283464566929134,
                    "duration": 0.07500000000000284
                },
                {
                    "name": "F5",
                    "midi": 77,
                    "time": 38.25000000000015,
                    "velocity": 0.28346456692913385,
                    "duration": 0.07500000000000284
                },
                {
                    "name": "D#5",
                    "midi": 75,
                    "time": 38.32500000000015,
                    "velocity": 0.2047244094488189,
                    "duration": 0.07500000000000284
                },
                {
                    "name": "G5",
                    "midi": 79,
                    "time": 38.32500000000015,
                    "velocity": 0.2440944881889764,
                    "duration": 0.07500000000000284
                },
                {
                    "name": "A#4",
                    "midi": 70,
                    "time": 38.400000000000155,
                    "velocity": 0.2283464566929134,
                    "duration": 0.07500000000000284
                },
                {
                    "name": "F5",
                    "midi": 77,
                    "time": 38.400000000000155,
                    "velocity": 0.28346456692913385,
                    "duration": 0.07500000000000284
                },
                {
                    "name": "D5",
                    "midi": 74,
                    "time": 38.47500000000016,
                    "velocity": 0.2125984251968504,
                    "duration": 0.03750000000000142
                },
                {
                    "name": "F#5",
                    "midi": 78,
                    "time": 38.47500000000016,
                    "velocity": 0.25196850393700787,
                    "duration": 0.03750000000000142
                },
                {
                    "name": "F#5",
                    "midi": 78,
                    "time": 38.55000000000016,
                    "velocity": 0.33070866141732286,
                    "duration": 0.07500000000000284
                },
                {
                    "name": "A#4",
                    "midi": 70,
                    "time": 38.55000000000016,
                    "velocity": 0.33070866141732286,
                    "duration": 0.07500000000000284
                },
                {
                    "name": "D5",
                    "midi": 74,
                    "time": 38.62500000000016,
                    "velocity": 0.28346456692913385,
                    "duration": 0.03750000000000142
                },
                {
                    "name": "G5",
                    "midi": 79,
                    "time": 38.62500000000016,
                    "velocity": 0.28346456692913385,
                    "duration": 0.03750000000000142
                },
                {
                    "name": "D5",
                    "midi": 74,
                    "time": 38.700000000000166,
                    "velocity": 0.3543307086614173,
                    "duration": 0.07500000000000284
                },
                {
                    "name": "G#5",
                    "midi": 80,
                    "time": 38.700000000000166,
                    "velocity": 0.3543307086614173,
                    "duration": 0.07500000000000284
                },
                {
                    "name": "A5",
                    "midi": 81,
                    "time": 38.77500000000017,
                    "velocity": 0.2992125984251969,
                    "duration": 0.07500000000000284
                },
                {
                    "name": "F5",
                    "midi": 77,
                    "time": 38.77500000000017,
                    "velocity": 0.2992125984251969,
                    "duration": 0.07500000000000284
                },
                {
                    "name": "A5",
                    "midi": 81,
                    "time": 38.85000000000017,
                    "velocity": 0.3543307086614173,
                    "duration": 0.07500000000000284
                },
                {
                    "name": "D5",
                    "midi": 74,
                    "time": 38.85000000000017,
                    "velocity": 0.3543307086614173,
                    "duration": 0.07500000000000284
                },
                {
                    "name": "F5",
                    "midi": 77,
                    "time": 38.925000000000175,
                    "velocity": 0.2992125984251969,
                    "duration": 0.03750000000000142
                },
                {
                    "name": "A#5",
                    "midi": 82,
                    "time": 38.925000000000175,
                    "velocity": 0.2992125984251969,
                    "duration": 0.03750000000000142
                },
                {
                    "name": "C5",
                    "midi": 72,
                    "time": 39.00000000000018,
                    "velocity": 0.36220472440944884,
                    "duration": 0.07500000000000284
                },
                {
                    "name": "A#5",
                    "midi": 82,
                    "time": 39.00000000000018,
                    "velocity": 0.36220472440944884,
                    "duration": 0.07500000000000284
                },
                {
                    "name": "A5",
                    "midi": 81,
                    "time": 39.07500000000018,
                    "velocity": 0.3228346456692913,
                    "duration": 0.03750000000000142
                },
                {
                    "name": "D#5",
                    "midi": 75,
                    "time": 39.07500000000018,
                    "velocity": 0.3228346456692913,
                    "duration": 0.03750000000000142
                },
                {
                    "name": "C5",
                    "midi": 72,
                    "time": 39.15000000000018,
                    "velocity": 0.3543307086614173,
                    "duration": 0.07500000000000284
                },
                {
                    "name": "A5",
                    "midi": 81,
                    "time": 39.15000000000018,
                    "velocity": 0.3543307086614173,
                    "duration": 0.07500000000000284
                },
                {
                    "name": "D#5",
                    "midi": 75,
                    "time": 39.225000000000186,
                    "velocity": 0.2992125984251969,
                    "duration": 0.03750000000000142
                },
                {
                    "name": "G#5",
                    "midi": 80,
                    "time": 39.225000000000186,
                    "velocity": 0.2992125984251969,
                    "duration": 0.03750000000000142
                },
                {
                    "name": "G#5",
                    "midi": 80,
                    "time": 39.30000000000019,
                    "velocity": 0.33858267716535434,
                    "duration": 0.07500000000000284
                },
                {
                    "name": "C5",
                    "midi": 72,
                    "time": 39.30000000000019,
                    "velocity": 0.33858267716535434,
                    "duration": 0.07500000000000284
                },
                {
                    "name": "G5",
                    "midi": 79,
                    "time": 39.37500000000019,
                    "velocity": 0.29133858267716534,
                    "duration": 0.03750000000000142
                },
                {
                    "name": "D#5",
                    "midi": 75,
                    "time": 39.37500000000019,
                    "velocity": 0.29133858267716534,
                    "duration": 0.03750000000000142
                },
                {
                    "name": "C5",
                    "midi": 72,
                    "time": 39.450000000000195,
                    "velocity": 0.33070866141732286,
                    "duration": 0.07500000000000284
                },
                {
                    "name": "G5",
                    "midi": 79,
                    "time": 39.450000000000195,
                    "velocity": 0.33070866141732286,
                    "duration": 0.07500000000000284
                },
                {
                    "name": "D#5",
                    "midi": 75,
                    "time": 39.5250000000002,
                    "velocity": 0.29133858267716534,
                    "duration": 0.03750000000000142
                },
                {
                    "name": "F#5",
                    "midi": 78,
                    "time": 39.5250000000002,
                    "velocity": 0.29133858267716534,
                    "duration": 0.03750000000000142
                },
                {
                    "name": "D5",
                    "midi": 74,
                    "time": 39.6000000000002,
                    "velocity": 0.2283464566929134,
                    "duration": 0.07500000000000284
                },
                {
                    "name": "F5",
                    "midi": 77,
                    "time": 39.6000000000002,
                    "velocity": 0.29133858267716534,
                    "duration": 0.07500000000000284
                },
                {
                    "name": "A#4",
                    "midi": 70,
                    "time": 39.6750000000002,
                    "velocity": 0.2204724409448819,
                    "duration": 0.07500000000000284
                },
                {
                    "name": "F#5",
                    "midi": 78,
                    "time": 39.6750000000002,
                    "velocity": 0.25984251968503935,
                    "duration": 0.07500000000000284
                },
                {
                    "name": "F5",
                    "midi": 77,
                    "time": 39.750000000000206,
                    "velocity": 0.29133858267716534,
                    "duration": 0.07500000000000284
                },
                {
                    "name": "D5",
                    "midi": 74,
                    "time": 39.750000000000206,
                    "velocity": 0.23622047244094488,
                    "duration": 0.07500000000000284
                },
                {
                    "name": "A5",
                    "midi": 81,
                    "time": 39.82500000000021,
                    "velocity": 0.28346456692913385,
                    "duration": 0.07500000000000284
                },
                {
                    "name": "D5",
                    "midi": 74,
                    "time": 39.90000000000021,
                    "velocity": 0.23622047244094488,
                    "duration": 0.07500000000000284
                },
                {
                    "name": "A#5",
                    "midi": 82,
                    "time": 39.90000000000021,
                    "velocity": 0.29133858267716534,
                    "duration": 0.07500000000000284
                },
                {
                    "name": "F5",
                    "midi": 77,
                    "time": 39.975000000000215,
                    "velocity": 0.2204724409448819,
                    "duration": 0.07500000000000284
                },
                {
                    "name": "B5",
                    "midi": 83,
                    "time": 39.975000000000215,
                    "velocity": 0.25984251968503935,
                    "duration": 0.07500000000000284
                },
                {
                    "name": "A#5",
                    "midi": 82,
                    "time": 40.05000000000022,
                    "velocity": 0.2992125984251969,
                    "duration": 0.07500000000000284
                },
                {
                    "name": "D5",
                    "midi": 74,
                    "time": 40.05000000000022,
                    "velocity": 0.23622047244094488,
                    "duration": 0.07500000000000284
                },
                {
                    "name": "F5",
                    "midi": 77,
                    "time": 40.12500000000022,
                    "velocity": 0.2125984251968504,
                    "duration": 0.07500000000000284
                },
                {
                    "name": "C6",
                    "midi": 84,
                    "time": 40.12500000000022,
                    "velocity": 0.25984251968503935,
                    "duration": 0.07500000000000284
                },
                {
                    "name": "A#5",
                    "midi": 82,
                    "time": 40.20000000000022,
                    "velocity": 0.2992125984251969,
                    "duration": 0.07500000000000284
                },
                {
                    "name": "D#5",
                    "midi": 75,
                    "time": 40.20000000000022,
                    "velocity": 0.2440944881889764,
                    "duration": 0.07500000000000284
                },
                {
                    "name": "B5",
                    "midi": 83,
                    "time": 40.275000000000226,
                    "velocity": 0.2677165354330709,
                    "duration": 0.07500000000000284
                },
                {
                    "name": "F#5",
                    "midi": 78,
                    "time": 40.275000000000226,
                    "velocity": 0.2204724409448819,
                    "duration": 0.07500000000000284
                },
                {
                    "name": "D#5",
                    "midi": 75,
                    "time": 40.35000000000023,
                    "velocity": 0.2440944881889764,
                    "duration": 0.07500000000000284
                },
                {
                    "name": "A#5",
                    "midi": 82,
                    "time": 40.35000000000023,
                    "velocity": 0.2992125984251969,
                    "duration": 0.07500000000000284
                },
                {
                    "name": "F#5",
                    "midi": 78,
                    "time": 40.42500000000023,
                    "velocity": 0.2204724409448819,
                    "duration": 0.07500000000000284
                },
                {
                    "name": "C6",
                    "midi": 84,
                    "time": 40.42500000000023,
                    "velocity": 0.25984251968503935,
                    "duration": 0.07500000000000284
                },
                {
                    "name": "F5",
                    "midi": 77,
                    "time": 40.500000000000234,
                    "velocity": 0.2440944881889764,
                    "duration": 0.07500000000000284
                },
                {
                    "name": "A#5",
                    "midi": 82,
                    "time": 40.500000000000234,
                    "velocity": 0.30708661417322836,
                    "duration": 0.07500000000000284
                },
                {
                    "name": "B5",
                    "midi": 83,
                    "time": 40.57500000000024,
                    "velocity": 0.2677165354330709,
                    "duration": 0.07500000000000284
                },
                {
                    "name": "G#5",
                    "midi": 80,
                    "time": 40.57500000000024,
                    "velocity": 0.2283464566929134,
                    "duration": 0.07500000000000284
                },
                {
                    "name": "F5",
                    "midi": 77,
                    "time": 40.65000000000024,
                    "velocity": 0.2440944881889764,
                    "duration": 0.07500000000000284
                },
                {
                    "name": "A#5",
                    "midi": 82,
                    "time": 40.65000000000024,
                    "velocity": 0.30708661417322836,
                    "duration": 0.07500000000000284
                },
                {
                    "name": "G#5",
                    "midi": 80,
                    "time": 40.72500000000024,
                    "velocity": 0.2204724409448819,
                    "duration": 0.07500000000000284
                },
                {
                    "name": "C6",
                    "midi": 84,
                    "time": 40.72500000000024,
                    "velocity": 0.2677165354330709,
                    "duration": 0.07500000000000284
                },
                {
                    "name": "D#5",
                    "midi": 75,
                    "time": 40.800000000000246,
                    "velocity": 0.25196850393700787,
                    "duration": 0.07500000000000284
                },
                {
                    "name": "A#5",
                    "midi": 82,
                    "time": 40.800000000000246,
                    "velocity": 0.30708661417322836,
                    "duration": 0.07500000000000284
                },
                {
                    "name": "G5",
                    "midi": 79,
                    "time": 40.87500000000025,
                    "velocity": 0.2283464566929134,
                    "duration": 0.03750000000000142
                },
                {
                    "name": "B5",
                    "midi": 83,
                    "time": 40.87500000000025,
                    "velocity": 0.2755905511811024,
                    "duration": 0.03750000000000142
                },
                {
                    "name": "D#5",
                    "midi": 75,
                    "time": 40.95000000000025,
                    "velocity": 0.3700787401574803,
                    "duration": 0.07500000000000284
                },
                {
                    "name": "B5",
                    "midi": 83,
                    "time": 40.95000000000025,
                    "velocity": 0.3700787401574803,
                    "duration": 0.07500000000000284
                },
                {
                    "name": "G5",
                    "midi": 79,
                    "time": 41.025000000000254,
                    "velocity": 0.31496062992125984,
                    "duration": 0.03750000000000142
                },
                {
                    "name": "C6",
                    "midi": 84,
                    "time": 41.025000000000254,
                    "velocity": 0.31496062992125984,
                    "duration": 0.03750000000000142
                },
                {
                    "name": "G5",
                    "midi": 79,
                    "time": 41.10000000000026,
                    "velocity": 0.3937007874015748,
                    "duration": 0.07500000000000284
                },
                {
                    "name": "C#6",
                    "midi": 85,
                    "time": 41.10000000000026,
                    "velocity": 0.3937007874015748,
                    "duration": 0.07500000000000284
                },
                {
                    "name": "D6",
                    "midi": 86,
                    "time": 41.17500000000026,
                    "velocity": 0.33070866141732286,
                    "duration": 0.07500000000000284
                },
                {
                    "name": "A#5",
                    "midi": 82,
                    "time": 41.17500000000026,
                    "velocity": 0.33070866141732286,
                    "duration": 0.07500000000000284
                },
                {
                    "name": "D6",
                    "midi": 86,
                    "time": 41.25000000000026,
                    "velocity": 0.4015748031496063,
                    "duration": 0.07500000000000284
                },
                {
                    "name": "G5",
                    "midi": 79,
                    "time": 41.25000000000026,
                    "velocity": 0.4015748031496063,
                    "duration": 0.07500000000000284
                },
                {
                    "name": "D#6",
                    "midi": 87,
                    "time": 41.325000000000266,
                    "velocity": 0.33858267716535434,
                    "duration": 0.03750000000000142
                },
                {
                    "name": "A#5",
                    "midi": 82,
                    "time": 41.325000000000266,
                    "velocity": 0.33858267716535434,
                    "duration": 0.03750000000000142
                },
                {
                    "name": "F5",
                    "midi": 77,
                    "time": 41.40000000000027,
                    "velocity": 0.4094488188976378,
                    "duration": 0.07500000000000284
                },
                {
                    "name": "D#6",
                    "midi": 87,
                    "time": 41.40000000000027,
                    "velocity": 0.4094488188976378,
                    "duration": 0.07500000000000284
                },
                {
                    "name": "G#5",
                    "midi": 80,
                    "time": 41.47500000000027,
                    "velocity": 0.3700787401574803,
                    "duration": 0.03750000000000142
                },
                {
                    "name": "D6",
                    "midi": 86,
                    "time": 41.47500000000027,
                    "velocity": 0.3700787401574803,
                    "duration": 0.03750000000000142
                },
                {
                    "name": "D6",
                    "midi": 86,
                    "time": 41.550000000000274,
                    "velocity": 0.4015748031496063,
                    "duration": 0.07500000000000284
                },
                {
                    "name": "F5",
                    "midi": 77,
                    "time": 41.550000000000274,
                    "velocity": 0.4015748031496063,
                    "duration": 0.07500000000000284
                },
                {
                    "name": "C#6",
                    "midi": 85,
                    "time": 41.62500000000028,
                    "velocity": 0.3464566929133858,
                    "duration": 0.03750000000000142
                },
                {
                    "name": "G#5",
                    "midi": 80,
                    "time": 41.62500000000028,
                    "velocity": 0.3464566929133858,
                    "duration": 0.03750000000000142
                },
                {
                    "name": "F5",
                    "midi": 77,
                    "time": 41.70000000000028,
                    "velocity": 0.3858267716535433,
                    "duration": 0.07500000000000284
                },
                {
                    "name": "C#6",
                    "midi": 85,
                    "time": 41.70000000000028,
                    "velocity": 0.3858267716535433,
                    "duration": 0.07500000000000284
                },
                {
                    "name": "G#5",
                    "midi": 80,
                    "time": 41.77500000000028,
                    "velocity": 0.33858267716535434,
                    "duration": 0.03750000000000142
                },
                {
                    "name": "C6",
                    "midi": 84,
                    "time": 41.77500000000028,
                    "velocity": 0.33858267716535434,
                    "duration": 0.03750000000000142
                },
                {
                    "name": "F5",
                    "midi": 77,
                    "time": 41.850000000000286,
                    "velocity": 0.3858267716535433,
                    "duration": 0.07500000000000284
                },
                {
                    "name": "C6",
                    "midi": 84,
                    "time": 41.850000000000286,
                    "velocity": 0.3858267716535433,
                    "duration": 0.07500000000000284
                },
                {
                    "name": "G#5",
                    "midi": 80,
                    "time": 41.92500000000029,
                    "velocity": 0.33070866141732286,
                    "duration": 0.03750000000000142
                },
                {
                    "name": "B5",
                    "midi": 83,
                    "time": 41.92500000000029,
                    "velocity": 0.33070866141732286,
                    "duration": 0.03750000000000142
                },
                {
                    "name": "G5",
                    "midi": 79,
                    "time": 42.00000000000029,
                    "velocity": 0.2677165354330709,
                    "duration": 0.07500000000000284
                },
                {
                    "name": "A#5",
                    "midi": 82,
                    "time": 42.00000000000029,
                    "velocity": 0.33070866141732286,
                    "duration": 0.07500000000000284
                },
                {
                    "name": "B5",
                    "midi": 83,
                    "time": 42.075000000000294,
                    "velocity": 0.2992125984251969,
                    "duration": 0.07500000000000284
                },
                {
                    "name": "D#5",
                    "midi": 75,
                    "time": 42.075000000000294,
                    "velocity": 0.25196850393700787,
                    "duration": 0.07500000000000284
                },
                {
                    "name": "A#5",
                    "midi": 82,
                    "time": 42.1500000000003,
                    "velocity": 0.33070866141732286,
                    "duration": 0.07500000000000284
                },
                {
                    "name": "G5",
                    "midi": 79,
                    "time": 42.1500000000003,
                    "velocity": 0.2677165354330709,
                    "duration": 0.07500000000000284
                },
                {
                    "name": "D#5",
                    "midi": 75,
                    "time": 42.2250000000003,
                    "velocity": 0.2440944881889764,
                    "duration": 0.07500000000000284
                },
                {
                    "name": "C6",
                    "midi": 84,
                    "time": 42.2250000000003,
                    "velocity": 0.29133858267716534,
                    "duration": 0.07500000000000284
                },
                {
                    "name": "A#5",
                    "midi": 82,
                    "time": 42.3000000000003,
                    "velocity": 0.33858267716535434,
                    "duration": 0.07500000000000284
                },
                {
                    "name": "D5",
                    "midi": 74,
                    "time": 42.3000000000003,
                    "velocity": 0.2677165354330709,
                    "duration": 0.07500000000000284
                },
                {
                    "name": "B5",
                    "midi": 83,
                    "time": 42.375000000000306,
                    "velocity": 0.2992125984251969,
                    "duration": 0.07500000000000284
                },
                {
                    "name": "F5",
                    "midi": 77,
                    "time": 42.375000000000306,
                    "velocity": 0.25196850393700787,
                    "duration": 0.07500000000000284
                },
                {
                    "name": "D5",
                    "midi": 74,
                    "time": 42.45000000000031,
                    "velocity": 0.2755905511811024,
                    "duration": 0.07500000000000284
                },
                {
                    "name": "A#5",
                    "midi": 82,
                    "time": 42.45000000000031,
                    "velocity": 0.33858267716535434,
                    "duration": 0.07500000000000284
                },
                {
                    "name": "C6",
                    "midi": 84,
                    "time": 42.52500000000031,
                    "velocity": 0.29133858267716534,
                    "duration": 0.07500000000000284
                },
                {
                    "name": "F5",
                    "midi": 77,
                    "time": 42.52500000000031,
                    "velocity": 0.2440944881889764,
                    "duration": 0.07500000000000284
                },
                {
                    "name": "A#5",
                    "midi": 82,
                    "time": 42.600000000000314,
                    "velocity": 0.33858267716535434,
                    "duration": 0.07500000000000284
                },
                {
                    "name": "D#5",
                    "midi": 75,
                    "time": 42.600000000000314,
                    "velocity": 0.2755905511811024,
                    "duration": 0.07500000000000284
                },
                {
                    "name": "F#5",
                    "midi": 78,
                    "time": 42.67500000000032,
                    "velocity": 0.25984251968503935,
                    "duration": 0.07500000000000284
                },
                {
                    "name": "B5",
                    "midi": 83,
                    "time": 42.67500000000032,
                    "velocity": 0.30708661417322836,
                    "duration": 0.07500000000000284
                },
                {
                    "name": "D#5",
                    "midi": 75,
                    "time": 42.75000000000032,
                    "velocity": 0.2755905511811024,
                    "duration": 0.07500000000000284
                },
                {
                    "name": "A#5",
                    "midi": 82,
                    "time": 42.75000000000032,
                    "velocity": 0.3464566929133858,
                    "duration": 0.07500000000000284
                },
                {
                    "name": "F#5",
                    "midi": 78,
                    "time": 42.82500000000032,
                    "velocity": 0.25196850393700787,
                    "duration": 0.07500000000000284
                },
                {
                    "name": "C6",
                    "midi": 84,
                    "time": 42.82500000000032,
                    "velocity": 0.2992125984251969,
                    "duration": 0.07500000000000284
                },
                {
                    "name": "A#5",
                    "midi": 82,
                    "time": 42.900000000000325,
                    "velocity": 0.3464566929133858,
                    "duration": 0.07500000000000284
                },
                {
                    "name": "F5",
                    "midi": 77,
                    "time": 42.900000000000325,
                    "velocity": 0.2755905511811024,
                    "duration": 0.07500000000000284
                },
                {
                    "name": "B5",
                    "midi": 83,
                    "time": 42.97500000000033,
                    "velocity": 0.30708661417322836,
                    "duration": 0.07500000000000284
                },
                {
                    "name": "G#5",
                    "midi": 80,
                    "time": 42.97500000000033,
                    "velocity": 0.25984251968503935,
                    "duration": 0.07500000000000284
                },
                {
                    "name": "A#5",
                    "midi": 82,
                    "time": 43.05000000000033,
                    "velocity": 0.3543307086614173,
                    "duration": 0.07500000000000284
                },
                {
                    "name": "F5",
                    "midi": 77,
                    "time": 43.05000000000033,
                    "velocity": 0.28346456692913385,
                    "duration": 0.07500000000000284
                },
                {
                    "name": "C6",
                    "midi": 84,
                    "time": 43.125000000000334,
                    "velocity": 0.2992125984251969,
                    "duration": 0.07500000000000284
                },
                {
                    "name": "G#5",
                    "midi": 80,
                    "time": 43.125000000000334,
                    "velocity": 0.25196850393700787,
                    "duration": 0.07500000000000284
                },
                {
                    "name": "A#5",
                    "midi": 82,
                    "time": 43.20000000000034,
                    "velocity": 0.3543307086614173,
                    "duration": 0.07500000000000284
                },
                {
                    "name": "D#5",
                    "midi": 75,
                    "time": 43.20000000000034,
                    "velocity": 0.28346456692913385,
                    "duration": 0.07500000000000284
                },
                {
                    "name": "G5",
                    "midi": 79,
                    "time": 43.27500000000034,
                    "velocity": 0.2677165354330709,
                    "duration": 0.03750000000000142
                },
                {
                    "name": "B5",
                    "midi": 83,
                    "time": 43.27500000000034,
                    "velocity": 0.31496062992125984,
                    "duration": 0.03750000000000142
                },
                {
                    "name": "B5",
                    "midi": 83,
                    "time": 43.35000000000034,
                    "velocity": 0.41732283464566927,
                    "duration": 0.07500000000000284
                },
                {
                    "name": "D#5",
                    "midi": 75,
                    "time": 43.35000000000034,
                    "velocity": 0.41732283464566927,
                    "duration": 0.07500000000000284
                },
                {
                    "name": "G5",
                    "midi": 79,
                    "time": 43.425000000000345,
                    "velocity": 0.3543307086614173,
                    "duration": 0.03750000000000142
                },
                {
                    "name": "C6",
                    "midi": 84,
                    "time": 43.425000000000345,
                    "velocity": 0.3543307086614173,
                    "duration": 0.03750000000000142
                },
                {
                    "name": "C#6",
                    "midi": 85,
                    "time": 43.50000000000035,
                    "velocity": 0.44881889763779526,
                    "duration": 0.07500000000000284
                },
                {
                    "name": "G5",
                    "midi": 79,
                    "time": 43.50000000000035,
                    "velocity": 0.44881889763779526,
                    "duration": 0.07500000000000284
                },
                {
                    "name": "A#5",
                    "midi": 82,
                    "time": 43.57500000000035,
                    "velocity": 0.3779527559055118,
                    "duration": 0.07500000000000284
                },
                {
                    "name": "D6",
                    "midi": 86,
                    "time": 43.57500000000035,
                    "velocity": 0.3779527559055118,
                    "duration": 0.07500000000000284
                },
                {
                    "name": "D6",
                    "midi": 86,
                    "time": 43.650000000000354,
                    "velocity": 0.4566929133858268,
                    "duration": 0.07500000000000284
                },
                {
                    "name": "G5",
                    "midi": 79,
                    "time": 43.650000000000354,
                    "velocity": 0.4566929133858268,
                    "duration": 0.07500000000000284
                },
                {
                    "name": "A#5",
                    "midi": 82,
                    "time": 43.72500000000036,
                    "velocity": 0.3858267716535433,
                    "duration": 0.03750000000000142
                },
                {
                    "name": "D#6",
                    "midi": 87,
                    "time": 43.72500000000036,
                    "velocity": 0.3858267716535433,
                    "duration": 0.03750000000000142
                },
                {
                    "name": "D#6",
                    "midi": 87,
                    "time": 43.80000000000036,
                    "velocity": 0.4645669291338583,
                    "duration": 0.07500000000000284
                },
                {
                    "name": "F5",
                    "midi": 77,
                    "time": 43.80000000000036,
                    "velocity": 0.4645669291338583,
                    "duration": 0.07500000000000284
                },
                {
                    "name": "D6",
                    "midi": 86,
                    "time": 43.87500000000036,
                    "velocity": 0.41732283464566927,
                    "duration": 0.03750000000000142
                },
                {
                    "name": "G#5",
                    "midi": 80,
                    "time": 43.87500000000036,
                    "velocity": 0.41732283464566927,
                    "duration": 0.03750000000000142
                },
                {
                    "name": "F5",
                    "midi": 77,
                    "time": 43.950000000000365,
                    "velocity": 0.4566929133858268,
                    "duration": 0.07500000000000284
                },
                {
                    "name": "D6",
                    "midi": 86,
                    "time": 43.950000000000365,
                    "velocity": 0.4566929133858268,
                    "duration": 0.07500000000000284
                },
                {
                    "name": "G#5",
                    "midi": 80,
                    "time": 44.02500000000037,
                    "velocity": 0.3858267716535433,
                    "duration": 0.03750000000000142
                },
                {
                    "name": "C#6",
                    "midi": 85,
                    "time": 44.02500000000037,
                    "velocity": 0.3858267716535433,
                    "duration": 0.03750000000000142
                },
                {
                    "name": "C#6",
                    "midi": 85,
                    "time": 44.10000000000037,
                    "velocity": 0.4330708661417323,
                    "duration": 0.07500000000000284
                },
                {
                    "name": "F5",
                    "midi": 77,
                    "time": 44.10000000000037,
                    "velocity": 0.4330708661417323,
                    "duration": 0.07500000000000284
                },
                {
                    "name": "C6",
                    "midi": 84,
                    "time": 44.175000000000374,
                    "velocity": 0.3779527559055118,
                    "duration": 0.03750000000000142
                },
                {
                    "name": "G#5",
                    "midi": 80,
                    "time": 44.175000000000374,
                    "velocity": 0.3779527559055118,
                    "duration": 0.03750000000000142
                },
                {
                    "name": "F5",
                    "midi": 77,
                    "time": 44.25000000000038,
                    "velocity": 0.4251968503937008,
                    "duration": 0.07500000000000284
                },
                {
                    "name": "C6",
                    "midi": 84,
                    "time": 44.25000000000038,
                    "velocity": 0.4251968503937008,
                    "duration": 0.07500000000000284
                },
                {
                    "name": "B5",
                    "midi": 83,
                    "time": 44.32500000000038,
                    "velocity": 0.36220472440944884,
                    "duration": 0.03750000000000142
                },
                {
                    "name": "G#5",
                    "midi": 80,
                    "time": 44.32500000000038,
                    "velocity": 0.36220472440944884,
                    "duration": 0.03750000000000142
                },
                {
                    "name": "G5",
                    "midi": 79,
                    "time": 44.40000000000038,
                    "velocity": 0.3464566929133858,
                    "duration": 0.07500000000000284
                },
                {
                    "name": "A#5",
                    "midi": 82,
                    "time": 44.40000000000038,
                    "velocity": 0.4566929133858268,
                    "duration": 0.07500000000000284
                },
                {
                    "name": "C6",
                    "midi": 84,
                    "time": 44.475000000000385,
                    "velocity": 0.4330708661417323,
                    "duration": 0.07500000000000284
                },
                {
                    "name": "D#5",
                    "midi": 75,
                    "time": 44.475000000000385,
                    "velocity": 0.33070866141732286,
                    "duration": 0.07500000000000284
                },
                {
                    "name": "G5",
                    "midi": 79,
                    "time": 44.55000000000039,
                    "velocity": 0.3464566929133858,
                    "duration": 0.07500000000000284
                },
                {
                    "name": "A#5",
                    "midi": 82,
                    "time": 44.55000000000039,
                    "velocity": 0.4566929133858268,
                    "duration": 0.07500000000000284
                },
                {
                    "name": "D#6",
                    "midi": 87,
                    "time": 44.62500000000039,
                    "velocity": 0.4251968503937008,
                    "duration": 0.07500000000000284
                },
                {
                    "name": "G#5",
                    "midi": 80,
                    "time": 44.700000000000394,
                    "velocity": 0.33858267716535434,
                    "duration": 0.07500000000000284
                },
                {
                    "name": "G6",
                    "midi": 91,
                    "time": 44.700000000000394,
                    "velocity": 0.4251968503937008,
                    "duration": 0.15000000000000568
                },
                {
                    "name": "D6",
                    "midi": 86,
                    "time": 44.7750000000004,
                    "velocity": 0.25984251968503935,
                    "duration": 0.07500000000000284
                },
                {
                    "name": "E6",
                    "midi": 88,
                    "time": 44.7750000000004,
                    "velocity": 0.3228346456692913,
                    "duration": 0.07500000000000284
                },
                {
                    "name": "G#5",
                    "midi": 80,
                    "time": 44.8500000000004,
                    "velocity": 0.28346456692913385,
                    "duration": 0.07500000000000284
                },
                {
                    "name": "G6",
                    "midi": 91,
                    "time": 44.8500000000004,
                    "velocity": 0.3543307086614173,
                    "duration": 0.07500000000000284
                },
                {
                    "name": "F6",
                    "midi": 89,
                    "time": 44.9250000000004,
                    "velocity": 0.33070866141732286,
                    "duration": 0.05624999999999858
                },
                {
                    "name": "D6",
                    "midi": 86,
                    "time": 44.9250000000004,
                    "velocity": 0.25984251968503935,
                    "duration": 0.05624999999999858
                },
                {
                    "name": "F6",
                    "midi": 89,
                    "time": 45.0000000000004,
                    "velocity": 0.4330708661417323,
                    "duration": 0.15000000000000568
                },
                {
                    "name": "G5",
                    "midi": 79,
                    "time": 45.0000000000004,
                    "velocity": 0.3543307086614173,
                    "duration": 0.07500000000000284
                },
                {
                    "name": "C6",
                    "midi": 84,
                    "time": 45.0750000000004,
                    "velocity": 0.25196850393700787,
                    "duration": 0.07500000000000284
                },
                {
                    "name": "D6",
                    "midi": 86,
                    "time": 45.0750000000004,
                    "velocity": 0.30708661417322836,
                    "duration": 0.07500000000000284
                },
                {
                    "name": "F6",
                    "midi": 89,
                    "time": 45.150000000000404,
                    "velocity": 0.3543307086614173,
                    "duration": 0.07500000000000284
                },
                {
                    "name": "G5",
                    "midi": 79,
                    "time": 45.150000000000404,
                    "velocity": 0.28346456692913385,
                    "duration": 0.07500000000000284
                },
                {
                    "name": "C6",
                    "midi": 84,
                    "time": 45.225000000000406,
                    "velocity": 0.25984251968503935,
                    "duration": 0.07500000000000284
                },
                {
                    "name": "D#6",
                    "midi": 87,
                    "time": 45.225000000000406,
                    "velocity": 0.33070866141732286,
                    "duration": 0.07500000000000284
                },
                {
                    "name": "D#6",
                    "midi": 87,
                    "time": 45.30000000000041,
                    "velocity": 0.4094488188976378,
                    "duration": 0.15000000000000568
                },
                {
                    "name": "F5",
                    "midi": 77,
                    "time": 45.30000000000041,
                    "velocity": 0.4094488188976378,
                    "duration": 0.07500000000000284
                },
                {
                    "name": "B5",
                    "midi": 83,
                    "time": 45.37500000000041,
                    "velocity": 0.2440944881889764,
                    "duration": 0.07500000000000284
                },
                {
                    "name": "C#6",
                    "midi": 85,
                    "time": 45.37500000000041,
                    "velocity": 0.29133858267716534,
                    "duration": 0.07500000000000284
                },
                {
                    "name": "D#6",
                    "midi": 87,
                    "time": 45.450000000000415,
                    "velocity": 0.3543307086614173,
                    "duration": 0.07500000000000284
                },
                {
                    "name": "F5",
                    "midi": 77,
                    "time": 45.450000000000415,
                    "velocity": 0.28346456692913385,
                    "duration": 0.07500000000000284
                },
                {
                    "name": "A#5",
                    "midi": 82,
                    "time": 45.52500000000042,
                    "velocity": 0.30708661417322836,
                    "duration": 0.05624999999999858
                },
                {
                    "name": "D6",
                    "midi": 86,
                    "time": 45.52500000000042,
                    "velocity": 0.30708661417322836,
                    "duration": 0.05624999999999858
                },
                {
                    "name": "D6",
                    "midi": 86,
                    "time": 45.60000000000041,
                    "velocity": 0.3937007874015748,
                    "duration": 0.15000000000000568
                },
                {
                    "name": "D#5",
                    "midi": 75,
                    "time": 45.60000000000041,
                    "velocity": 0.33858267716535434,
                    "duration": 0.07500000000000284
                },
                {
                    "name": "B5",
                    "midi": 83,
                    "time": 45.675000000000416,
                    "velocity": 0.29133858267716534,
                    "duration": 0.07500000000000284
                },
                {
                    "name": "G5",
                    "midi": 79,
                    "time": 45.675000000000416,
                    "velocity": 0.2440944881889764,
                    "duration": 0.07500000000000284
                },
                {
                    "name": "D#5",
                    "midi": 75,
                    "time": 45.75000000000042,
                    "velocity": 0.28346456692913385,
                    "duration": 0.07500000000000284
                },
                {
                    "name": "D6",
                    "midi": 86,
                    "time": 45.75000000000042,
                    "velocity": 0.3464566929133858,
                    "duration": 0.07500000000000284
                },
                {
                    "name": "C6",
                    "midi": 84,
                    "time": 45.82500000000042,
                    "velocity": 0.30708661417322836,
                    "duration": 0.05624999999999858
                },
                {
                    "name": "G5",
                    "midi": 79,
                    "time": 45.82500000000042,
                    "velocity": 0.30708661417322836,
                    "duration": 0.05624999999999858
                },
                {
                    "name": "G5",
                    "midi": 79,
                    "time": 45.90000000000042,
                    "velocity": 0.30708661417322836,
                    "duration": 0.07500000000000284
                },
                {
                    "name": "C6",
                    "midi": 84,
                    "time": 45.90000000000042,
                    "velocity": 0.3779527559055118,
                    "duration": 0.15000000000000568
                },
                {
                    "name": "C#5",
                    "midi": 73,
                    "time": 45.97500000000042,
                    "velocity": 0.29133858267716534,
                    "duration": 0.07500000000000284
                },
                {
                    "name": "A5",
                    "midi": 81,
                    "time": 45.97500000000042,
                    "velocity": 0.29133858267716534,
                    "duration": 0.07500000000000284
                },
                {
                    "name": "C6",
                    "midi": 84,
                    "time": 46.05000000000042,
                    "velocity": 0.30708661417322836,
                    "duration": 0.07500000000000284
                },
                {
                    "name": "G5",
                    "midi": 79,
                    "time": 46.05000000000042,
                    "velocity": 0.25196850393700787,
                    "duration": 0.07500000000000284
                },
                {
                    "name": "C#5",
                    "midi": 73,
                    "time": 46.125000000000426,
                    "velocity": 0.28346456692913385,
                    "duration": 0.07500000000000284
                },
                {
                    "name": "A#5",
                    "midi": 82,
                    "time": 46.125000000000426,
                    "velocity": 0.28346456692913385,
                    "duration": 0.07500000000000284
                },
                {
                    "name": "A5",
                    "midi": 81,
                    "time": 46.20000000000043,
                    "velocity": 0.3543307086614173,
                    "duration": 0.15000000000000568
                },
                {
                    "name": "C#5",
                    "midi": 73,
                    "time": 46.20000000000043,
                    "velocity": 0.29133858267716534,
                    "duration": 0.07500000000000284
                },
                {
                    "name": "F#5",
                    "midi": 78,
                    "time": 46.27500000000043,
                    "velocity": 0.2755905511811024,
                    "duration": 0.07500000000000284
                },
                {
                    "name": "A#4",
                    "midi": 70,
                    "time": 46.27500000000043,
                    "velocity": 0.2283464566929134,
                    "duration": 0.07500000000000284
                },
                {
                    "name": "A5",
                    "midi": 81,
                    "time": 46.350000000000435,
                    "velocity": 0.29133858267716534,
                    "duration": 0.07500000000000284
                },
                {
                    "name": "C#5",
                    "midi": 73,
                    "time": 46.350000000000435,
                    "velocity": 0.2440944881889764,
                    "duration": 0.07500000000000284
                },
                {
                    "name": "A#4",
                    "midi": 70,
                    "time": 46.42500000000044,
                    "velocity": 0.2125984251968504,
                    "duration": 0.07500000000000284
                },
                {
                    "name": "G5",
                    "midi": 79,
                    "time": 46.42500000000044,
                    "velocity": 0.25984251968503935,
                    "duration": 0.07500000000000284
                },
                {
                    "name": "A#4",
                    "midi": 70,
                    "time": 46.50000000000044,
                    "velocity": 0.28346456692913385,
                    "duration": 0.07500000000000284
                },
                {
                    "name": "F5",
                    "midi": 77,
                    "time": 46.50000000000044,
                    "velocity": 0.33858267716535434,
                    "duration": 0.15000000000000568
                },
                {
                    "name": "D#5",
                    "midi": 75,
                    "time": 46.57500000000044,
                    "velocity": 0.25196850393700787,
                    "duration": 0.07500000000000284
                },
                {
                    "name": "G4",
                    "midi": 67,
                    "time": 46.57500000000044,
                    "velocity": 0.2125984251968504,
                    "duration": 0.07500000000000284
                },
                {
                    "name": "F5",
                    "midi": 77,
                    "time": 46.650000000000446,
                    "velocity": 0.28346456692913385,
                    "duration": 0.07500000000000284
                },
                {
                    "name": "C#5",
                    "midi": 73,
                    "time": 46.650000000000446,
                    "velocity": 0.2283464566929134,
                    "duration": 0.07500000000000284
                },
                {
                    "name": "E5",
                    "midi": 76,
                    "time": 46.72500000000045,
                    "velocity": 0.2440944881889764,
                    "duration": 0.07500000000000284
                },
                {
                    "name": "G4",
                    "midi": 67,
                    "time": 46.72500000000045,
                    "velocity": 0.2047244094488189,
                    "duration": 0.07500000000000284
                },
                {
                    "name": "G5",
                    "midi": 79,
                    "time": 46.80000000000045,
                    "velocity": 0.4094488188976378,
                    "duration": 0.22500000000000853
                },
                {
                    "name": "A#4",
                    "midi": 70,
                    "time": 46.80000000000045,
                    "velocity": 0.31496062992125984,
                    "duration": 0.07500000000000284
                },
                {
                    "name": "F4",
                    "midi": 65,
                    "time": 46.875000000000455,
                    "velocity": 0.28346456692913385,
                    "duration": 0.07500000000000284
                },
                {
                    "name": "A#4",
                    "midi": 70,
                    "time": 46.95000000000046,
                    "velocity": 0.3543307086614173,
                    "duration": 0.07500000000000284
                },
                {
                    "name": "F5",
                    "midi": 77,
                    "time": 47.02500000000046,
                    "velocity": 0.3228346456692913,
                    "duration": 0.07500000000000284
                },
                {
                    "name": "D5",
                    "midi": 74,
                    "time": 47.10000000000046,
                    "velocity": 0.4094488188976378,
                    "duration": 0.22500000000000853
                },
                {
                    "name": "G#4",
                    "midi": 68,
                    "time": 47.10000000000046,
                    "velocity": 0.31496062992125984,
                    "duration": 0.07500000000000284
                },
                {
                    "name": "F4",
                    "midi": 65,
                    "time": 47.175000000000466,
                    "velocity": 0.31496062992125984,
                    "duration": 0.07500000000000284
                },
                {
                    "name": "G#4",
                    "midi": 68,
                    "time": 47.25000000000047,
                    "velocity": 0.31496062992125984,
                    "duration": 0.07500000000000284
                },
                {
                    "name": "D#5",
                    "midi": 75,
                    "time": 47.32500000000047,
                    "velocity": 0.3228346456692913,
                    "duration": 0.07500000000000284
                },
                {
                    "name": "A#4",
                    "midi": 70,
                    "time": 47.400000000000475,
                    "velocity": 0.31496062992125984,
                    "duration": 0.07500000000000284
                },
                {
                    "name": "D5",
                    "midi": 74,
                    "time": 47.400000000000475,
                    "velocity": 0.4094488188976378,
                    "duration": 0.22500000000000853
                },
                {
                    "name": "E4",
                    "midi": 64,
                    "time": 47.400000000000475,
                    "velocity": 0.31496062992125984,
                    "duration": 0.07500000000000284
                },
                {
                    "name": "G4",
                    "midi": 67,
                    "time": 47.47500000000048,
                    "velocity": 0.31496062992125984,
                    "duration": 0.07500000000000284
                },
                {
                    "name": "E4",
                    "midi": 64,
                    "time": 47.55000000000048,
                    "velocity": 0.31496062992125984,
                    "duration": 0.07500000000000284
                },
                {
                    "name": "C5",
                    "midi": 72,
                    "time": 47.62500000000048,
                    "velocity": 0.3228346456692913,
                    "duration": 0.07500000000000284
                },
                {
                    "name": "D#4",
                    "midi": 63,
                    "time": 47.700000000000486,
                    "velocity": 0.31496062992125984,
                    "duration": 0.07500000000000284
                },
                {
                    "name": "G4",
                    "midi": 67,
                    "time": 47.700000000000486,
                    "velocity": 0.4094488188976378,
                    "duration": 0.22500000000000853
                },
                {
                    "name": "C4",
                    "midi": 60,
                    "time": 47.77500000000049,
                    "velocity": 0.31496062992125984,
                    "duration": 0.07500000000000284
                },
                {
                    "name": "D#4",
                    "midi": 63,
                    "time": 47.85000000000049,
                    "velocity": 0.31496062992125984,
                    "duration": 0.07500000000000284
                },
                {
                    "name": "A4",
                    "midi": 69,
                    "time": 47.925000000000495,
                    "velocity": 0.3228346456692913,
                    "duration": 0.07500000000000284
                },
                {
                    "name": "C5",
                    "midi": 72,
                    "time": 48.0000000000005,
                    "velocity": 0.4094488188976378,
                    "duration": 0.22500000000000853
                },
                {
                    "name": "D4",
                    "midi": 62,
                    "time": 48.0000000000005,
                    "velocity": 0.31496062992125984,
                    "duration": 0.07500000000000284
                },
                {
                    "name": "F4",
                    "midi": 65,
                    "time": 48.0750000000005,
                    "velocity": 0.28346456692913385,
                    "duration": 0.07500000000000284
                },
                {
                    "name": "D4",
                    "midi": 62,
                    "time": 48.1500000000005,
                    "velocity": 0.3543307086614173,
                    "duration": 0.07500000000000284
                },
                {
                    "name": "A#4",
                    "midi": 70,
                    "time": 48.225000000000506,
                    "velocity": 0.3228346456692913,
                    "duration": 0.07500000000000284
                },
                {
                    "name": "G4",
                    "midi": 67,
                    "time": 48.30000000000051,
                    "velocity": 0.4094488188976378,
                    "duration": 0.22500000000000853
                },
                {
                    "name": "G#3",
                    "midi": 56,
                    "time": 48.30000000000051,
                    "velocity": 0.31496062992125984,
                    "duration": 0.07500000000000284
                },
                {
                    "name": "D4",
                    "midi": 62,
                    "time": 48.37500000000051,
                    "velocity": 0.31496062992125984,
                    "duration": 0.07500000000000284
                },
                {
                    "name": "G#3",
                    "midi": 56,
                    "time": 48.450000000000514,
                    "velocity": 0.31496062992125984,
                    "duration": 0.07500000000000284
                },
                {
                    "name": "D4",
                    "midi": 62,
                    "time": 48.52500000000052,
                    "velocity": 0.31496062992125984,
                    "duration": 0.07500000000000284
                },
                {
                    "name": "F4",
                    "midi": 65,
                    "time": 48.52500000000052,
                    "velocity": 0.3228346456692913,
                    "duration": 0.07500000000000284
                },
                {
                    "name": "F4",
                    "midi": 65,
                    "time": 48.60000000000052,
                    "velocity": 0.4094488188976378,
                    "duration": 0.22500000000000853
                },
                {
                    "name": "G3",
                    "midi": 55,
                    "time": 48.60000000000052,
                    "velocity": 0.31496062992125984,
                    "duration": 0.07500000000000284
                },
                {
                    "name": "C4",
                    "midi": 60,
                    "time": 48.67500000000052,
                    "velocity": 0.31496062992125984,
                    "duration": 0.07500000000000284
                },
                {
                    "name": "G3",
                    "midi": 55,
                    "time": 48.750000000000526,
                    "velocity": 0.31496062992125984,
                    "duration": 0.07500000000000284
                },
                {
                    "name": "D#4",
                    "midi": 63,
                    "time": 48.82500000000053,
                    "velocity": 0.3228346456692913,
                    "duration": 0.07500000000000284
                },
                {
                    "name": "C4",
                    "midi": 60,
                    "time": 48.90000000000053,
                    "velocity": 0.4094488188976378,
                    "duration": 0.22500000000000853
                },
                {
                    "name": "D#3",
                    "midi": 51,
                    "time": 48.90000000000053,
                    "velocity": 0.31496062992125984,
                    "duration": 0.07500000000000284
                },
                {
                    "name": "A3",
                    "midi": 57,
                    "time": 48.975000000000534,
                    "velocity": 0.31496062992125984,
                    "duration": 0.07500000000000284
                },
                {
                    "name": "D#3",
                    "midi": 51,
                    "time": 49.05000000000054,
                    "velocity": 0.31496062992125984,
                    "duration": 0.07500000000000284
                },
                {
                    "name": "D4",
                    "midi": 62,
                    "time": 49.12500000000054,
                    "velocity": 0.3228346456692913,
                    "duration": 0.07500000000000284
                },
                {
                    "name": "A3",
                    "midi": 57,
                    "time": 49.12500000000054,
                    "velocity": 0.31496062992125984,
                    "duration": 0.07500000000000284
                },
                {
                    "name": "A#3",
                    "midi": 58,
                    "time": 49.20000000000054,
                    "velocity": 0.4094488188976378,
                    "duration": 0.14999999999999858
                },
                {
                    "name": "D3",
                    "midi": 50,
                    "time": 49.20000000000054,
                    "velocity": 0.3700787401574803,
                    "duration": 0.14999999999999858
                },
                {
                    "name": "D3",
                    "midi": 50,
                    "time": 49.35000000000054,
                    "velocity": 0.2440944881889764,
                    "duration": 0.07500000000000284
                },
                {
                    "name": "C3",
                    "midi": 48,
                    "time": 49.50000000000055,
                    "velocity": 0.28346456692913385,
                    "duration": 0.07500000000000284
                },
                {
                    "name": "B2",
                    "midi": 47,
                    "time": 49.65000000000055,
                    "velocity": 0.25196850393700787,
                    "duration": 0.07500000000000284
                },
                {
                    "name": "A#2",
                    "midi": 46,
                    "time": 49.80000000000056,
                    "velocity": 0.28346456692913385,
                    "duration": 0.07500000000000284
                },
                {
                    "name": "D3",
                    "midi": 50,
                    "time": 49.950000000000564,
                    "velocity": 0.25196850393700787,
                    "duration": 0.07500000000000284
                },
                {
                    "name": "C3",
                    "midi": 48,
                    "time": 50.10000000000057,
                    "velocity": 0.28346456692913385,
                    "duration": 0.07500000000000284
                },
                {
                    "name": "B2",
                    "midi": 47,
                    "time": 50.17500000000057,
                    "velocity": 0.2440944881889764,
                    "duration": 0.07500000000000284
                },
                {
                    "name": "A#2",
                    "midi": 46,
                    "time": 50.250000000000576,
                    "velocity": 0.2440944881889764,
                    "duration": 0.07500000000000284
                },
                {
                    "name": "D#6",
                    "midi": 87,
                    "time": 50.55000000000058,
                    "velocity": 0.29133858267716534,
                    "duration": 0.07500000000000284
                },
                {
                    "name": "C6",
                    "midi": 84,
                    "time": 50.62500000000058,
                    "velocity": 0.29133858267716534,
                    "duration": 0.07500000000000284
                },
                {
                    "name": "G#5",
                    "midi": 80,
                    "time": 50.700000000000585,
                    "velocity": 0.28346456692913385,
                    "duration": 0.07500000000000284
                },
                {
                    "name": "F5",
                    "midi": 77,
                    "time": 50.77500000000059,
                    "velocity": 0.28346456692913385,
                    "duration": 0.07500000000000284
                },
                {
                    "name": "A5",
                    "midi": 81,
                    "time": 50.85000000000059,
                    "velocity": 0.28346456692913385,
                    "duration": 0.07500000000000284
                },
                {
                    "name": "F#5",
                    "midi": 78,
                    "time": 50.925000000000594,
                    "velocity": 0.2755905511811024,
                    "duration": 0.07500000000000284
                },
                {
                    "name": "D5",
                    "midi": 74,
                    "time": 51.0000000000006,
                    "velocity": 0.2755905511811024,
                    "duration": 0.07500000000000284
                },
                {
                    "name": "B4",
                    "midi": 71,
                    "time": 51.0750000000006,
                    "velocity": 0.25984251968503935,
                    "duration": 0.07500000000000284
                },
                {
                    "name": "D#5",
                    "midi": 75,
                    "time": 51.1500000000006,
                    "velocity": 0.25984251968503935,
                    "duration": 0.07500000000000284
                },
                {
                    "name": "C5",
                    "midi": 72,
                    "time": 51.225000000000605,
                    "velocity": 0.25196850393700787,
                    "duration": 0.07500000000000284
                },
                {
                    "name": "G#4",
                    "midi": 68,
                    "time": 51.30000000000061,
                    "velocity": 0.25196850393700787,
                    "duration": 0.07500000000000284
                },
                {
                    "name": "F4",
                    "midi": 65,
                    "time": 51.37500000000061,
                    "velocity": 0.2440944881889764,
                    "duration": 0.07500000000000284
                },
                {
                    "name": "A4",
                    "midi": 69,
                    "time": 51.450000000000614,
                    "velocity": 0.23622047244094488,
                    "duration": 0.07500000000000284
                },
                {
                    "name": "F#5",
                    "midi": 78,
                    "time": 51.52500000000062,
                    "velocity": 0.23622047244094488,
                    "duration": 0.07500000000000284
                },
                {
                    "name": "A#4",
                    "midi": 70,
                    "time": 51.60000000000062,
                    "velocity": 0.2992125984251969,
                    "duration": 0.14999999999999858
                },
                {
                    "name": "F5",
                    "midi": 77,
                    "time": 51.60000000000062,
                    "velocity": 0.2992125984251969,
                    "duration": 0.14999999999999858
                },
                {
                    "name": "D3",
                    "midi": 50,
                    "time": 51.75000000000062,
                    "velocity": 0.2440944881889764,
                    "duration": 0.07500000000000284
                },
                {
                    "name": "C3",
                    "midi": 48,
                    "time": 51.900000000000624,
                    "velocity": 0.28346456692913385,
                    "duration": 0.07500000000000284
                },
                {
                    "name": "B2",
                    "midi": 47,
                    "time": 52.05000000000063,
                    "velocity": 0.25196850393700787,
                    "duration": 0.07500000000000284
                },
                {
                    "name": "A#2",
                    "midi": 46,
                    "time": 52.200000000000635,
                    "velocity": 0.28346456692913385,
                    "duration": 0.07500000000000284
                },
                {
                    "name": "D3",
                    "midi": 50,
                    "time": 52.35000000000064,
                    "velocity": 0.25196850393700787,
                    "duration": 0.07500000000000284
                },
                {
                    "name": "C3",
                    "midi": 48,
                    "time": 52.50000000000065,
                    "velocity": 0.28346456692913385,
                    "duration": 0.07500000000000284
                },
                {
                    "name": "B2",
                    "midi": 47,
                    "time": 52.57500000000065,
                    "velocity": 0.2440944881889764,
                    "duration": 0.07500000000000284
                },
                {
                    "name": "A#2",
                    "midi": 46,
                    "time": 52.65000000000065,
                    "velocity": 0.2440944881889764,
                    "duration": 0.07500000000000284
                },
                {
                    "name": "D#6",
                    "midi": 87,
                    "time": 52.95000000000066,
                    "velocity": 0.29133858267716534,
                    "duration": 0.07500000000000284
                },
                {
                    "name": "C6",
                    "midi": 84,
                    "time": 53.02500000000066,
                    "velocity": 0.29133858267716534,
                    "duration": 0.07500000000000284
                },
                {
                    "name": "G#5",
                    "midi": 80,
                    "time": 53.10000000000066,
                    "velocity": 0.28346456692913385,
                    "duration": 0.07500000000000284
                },
                {
                    "name": "F5",
                    "midi": 77,
                    "time": 53.175000000000665,
                    "velocity": 0.28346456692913385,
                    "duration": 0.07500000000000284
                },
                {
                    "name": "A5",
                    "midi": 81,
                    "time": 53.25000000000067,
                    "velocity": 0.28346456692913385,
                    "duration": 0.07500000000000284
                },
                {
                    "name": "F#5",
                    "midi": 78,
                    "time": 53.32500000000067,
                    "velocity": 0.2755905511811024,
                    "duration": 0.07500000000000284
                },
                {
                    "name": "D5",
                    "midi": 74,
                    "time": 53.400000000000674,
                    "velocity": 0.2755905511811024,
                    "duration": 0.07500000000000284
                },
                {
                    "name": "B4",
                    "midi": 71,
                    "time": 53.475000000000676,
                    "velocity": 0.25984251968503935,
                    "duration": 0.07500000000000284
                },
                {
                    "name": "D#5",
                    "midi": 75,
                    "time": 53.55000000000068,
                    "velocity": 0.25984251968503935,
                    "duration": 0.07500000000000284
                },
                {
                    "name": "C5",
                    "midi": 72,
                    "time": 53.62500000000068,
                    "velocity": 0.25196850393700787,
                    "duration": 0.07500000000000284
                },
                {
                    "name": "G#4",
                    "midi": 68,
                    "time": 53.700000000000685,
                    "velocity": 0.25196850393700787,
                    "duration": 0.07500000000000284
                },
                {
                    "name": "F4",
                    "midi": 65,
                    "time": 53.77500000000069,
                    "velocity": 0.2440944881889764,
                    "duration": 0.07500000000000284
                },
                {
                    "name": "A4",
                    "midi": 69,
                    "time": 53.85000000000069,
                    "velocity": 0.23622047244094488,
                    "duration": 0.07500000000000284
                },
                {
                    "name": "F#5",
                    "midi": 78,
                    "time": 53.92500000000069,
                    "velocity": 0.23622047244094488,
                    "duration": 0.048749999999998295
                },
                {
                    "name": "D4",
                    "midi": 62,
                    "time": 54.00000000000069,
                    "velocity": 0.28346456692913385,
                    "duration": 0.07500000000000284
                },
                {
                    "name": "F4",
                    "midi": 65,
                    "time": 54.00000000000069,
                    "velocity": 0.28346456692913385,
                    "duration": 0.07500000000000284
                },
                {
                    "name": "F6",
                    "midi": 89,
                    "time": 54.150000000000695,
                    "velocity": 0.3228346456692913,
                    "duration": 0.07500000000000284
                },
                {
                    "name": "D6",
                    "midi": 86,
                    "time": 54.2250000000007,
                    "velocity": 0.3228346456692913,
                    "duration": 0.07500000000000284
                },
                {
                    "name": "A#5",
                    "midi": 82,
                    "time": 54.3000000000007,
                    "velocity": 0.30708661417322836,
                    "duration": 0.07500000000000284
                },
                {
                    "name": "G5",
                    "midi": 79,
                    "time": 54.3750000000007,
                    "velocity": 0.30708661417322836,
                    "duration": 0.07500000000000284
                },
                {
                    "name": "B5",
                    "midi": 83,
                    "time": 54.450000000000706,
                    "velocity": 0.2992125984251969,
                    "duration": 0.07500000000000284
                },
                {
                    "name": "G#5",
                    "midi": 80,
                    "time": 54.52500000000071,
                    "velocity": 0.29133858267716534,
                    "duration": 0.07500000000000284
                },
                {
                    "name": "E5",
                    "midi": 76,
                    "time": 54.60000000000071,
                    "velocity": 0.29133858267716534,
                    "duration": 0.07500000000000284
                },
                {
                    "name": "C#5",
                    "midi": 73,
                    "time": 54.675000000000715,
                    "velocity": 0.28346456692913385,
                    "duration": 0.07500000000000284
                },
                {
                    "name": "F5",
                    "midi": 77,
                    "time": 54.75000000000072,
                    "velocity": 0.28346456692913385,
                    "duration": 0.07500000000000284
                },
                {
                    "name": "D5",
                    "midi": 74,
                    "time": 54.82500000000072,
                    "velocity": 0.28346456692913385,
                    "duration": 0.07500000000000284
                },
                {
                    "name": "A#4",
                    "midi": 70,
                    "time": 54.90000000000072,
                    "velocity": 0.28346456692913385,
                    "duration": 0.07500000000000284
                },
                {
                    "name": "G4",
                    "midi": 67,
                    "time": 54.975000000000726,
                    "velocity": 0.2755905511811024,
                    "duration": 0.07500000000000284
                },
                {
                    "name": "B4",
                    "midi": 71,
                    "time": 55.05000000000073,
                    "velocity": 0.25984251968503935,
                    "duration": 0.07500000000000284
                },
                {
                    "name": "G#5",
                    "midi": 80,
                    "time": 55.12500000000073,
                    "velocity": 0.25984251968503935,
                    "duration": 0.07500000000000284
                },
                {
                    "name": "D#4",
                    "midi": 63,
                    "time": 55.200000000000735,
                    "velocity": 0.30708661417322836,
                    "duration": 0.07500000000000284
                },
                {
                    "name": "G4",
                    "midi": 67,
                    "time": 55.200000000000735,
                    "velocity": 0.30708661417322836,
                    "duration": 0.07500000000000284
                },
                {
                    "name": "G6",
                    "midi": 91,
                    "time": 55.35000000000074,
                    "velocity": 0.3543307086614173,
                    "duration": 0.07500000000000284
                },
                {
                    "name": "E6",
                    "midi": 88,
                    "time": 55.42500000000074,
                    "velocity": 0.3543307086614173,
                    "duration": 0.07500000000000284
                },
                {
                    "name": "C6",
                    "midi": 84,
                    "time": 55.500000000000746,
                    "velocity": 0.33858267716535434,
                    "duration": 0.07500000000000284
                },
                {
                    "name": "A5",
                    "midi": 81,
                    "time": 55.57500000000075,
                    "velocity": 0.33858267716535434,
                    "duration": 0.07500000000000284
                },
                {
                    "name": "C#6",
                    "midi": 85,
                    "time": 55.65000000000075,
                    "velocity": 0.33070866141732286,
                    "duration": 0.07500000000000284
                },
                {
                    "name": "A#5",
                    "midi": 82,
                    "time": 55.725000000000755,
                    "velocity": 0.3228346456692913,
                    "duration": 0.07500000000000284
                },
                {
                    "name": "A4",
                    "midi": 69,
                    "time": 55.80000000000076,
                    "velocity": 0.33858267716535434,
                    "duration": 0.07500000000000284
                },
                {
                    "name": "D#4",
                    "midi": 63,
                    "time": 55.80000000000076,
                    "velocity": 0.33858267716535434,
                    "duration": 0.07500000000000284
                },
                {
                    "name": "A6",
                    "midi": 93,
                    "time": 55.95000000000076,
                    "velocity": 0.3543307086614173,
                    "duration": 0.07500000000000284
                },
                {
                    "name": "F#6",
                    "midi": 90,
                    "time": 56.025000000000766,
                    "velocity": 0.3543307086614173,
                    "duration": 0.07500000000000284
                },
                {
                    "name": "D6",
                    "midi": 86,
                    "time": 56.10000000000077,
                    "velocity": 0.33858267716535434,
                    "duration": 0.07500000000000284
                },
                {
                    "name": "B5",
                    "midi": 83,
                    "time": 56.17500000000077,
                    "velocity": 0.33858267716535434,
                    "duration": 0.07500000000000284
                },
                {
                    "name": "D#6",
                    "midi": 87,
                    "time": 56.250000000000774,
                    "velocity": 0.33070866141732286,
                    "duration": 0.07500000000000284
                },
                {
                    "name": "C6",
                    "midi": 84,
                    "time": 56.32500000000078,
                    "velocity": 0.3228346456692913,
                    "duration": 0.07500000000000284
                },
                {
                    "name": "C7",
                    "midi": 96,
                    "time": 56.40000000000078,
                    "velocity": 0.4330708661417323,
                    "duration": 0.07500000000000284
                },
                {
                    "name": "A6",
                    "midi": 93,
                    "time": 56.47500000000078,
                    "velocity": 0.4330708661417323,
                    "duration": 0.07500000000000284
                },
                {
                    "name": "F6",
                    "midi": 89,
                    "time": 56.550000000000786,
                    "velocity": 0.4251968503937008,
                    "duration": 0.07500000000000284
                },
                {
                    "name": "D6",
                    "midi": 86,
                    "time": 56.62500000000079,
                    "velocity": 0.4251968503937008,
                    "duration": 0.07500000000000284
                },
                {
                    "name": "F#6",
                    "midi": 90,
                    "time": 56.70000000000079,
                    "velocity": 0.4015748031496063,
                    "duration": 0.07500000000000284
                },
                {
                    "name": "D#6",
                    "midi": 87,
                    "time": 56.775000000000794,
                    "velocity": 0.3858267716535433,
                    "duration": 0.07500000000000284
                },
                {
                    "name": "D#7",
                    "midi": 99,
                    "time": 56.8500000000008,
                    "velocity": 0.4881889763779528,
                    "duration": 0.07500000000000284
                },
                {
                    "name": "C7",
                    "midi": 96,
                    "time": 56.9250000000008,
                    "velocity": 0.44881889763779526,
                    "duration": 0.07500000000000284
                },
                {
                    "name": "G#6",
                    "midi": 92,
                    "time": 57.0000000000008,
                    "velocity": 0.47244094488188976,
                    "duration": 0.07500000000000284
                },
                {
                    "name": "F6",
                    "midi": 89,
                    "time": 57.075000000000806,
                    "velocity": 0.41732283464566927,
                    "duration": 0.07500000000000284
                },
                {
                    "name": "A6",
                    "midi": 93,
                    "time": 57.15000000000081,
                    "velocity": 0.47244094488188976,
                    "duration": 0.07500000000000284
                },
                {
                    "name": "F#6",
                    "midi": 90,
                    "time": 57.22500000000081,
                    "velocity": 0.4094488188976378,
                    "duration": 0.07500000000000284
                },
                {
                    "name": "E7",
                    "midi": 100,
                    "time": 57.300000000000814,
                    "velocity": 0.49606299212598426,
                    "duration": 0.07500000000000284
                },
                {
                    "name": "D#6",
                    "midi": 87,
                    "time": 57.37500000000082,
                    "velocity": 0.44881889763779526,
                    "duration": 0.07500000000000284
                },
                {
                    "name": "F7",
                    "midi": 101,
                    "time": 57.45000000000082,
                    "velocity": 0.5826771653543307,
                    "duration": 0.07500000000000284
                },
                {
                    "name": "D#6",
                    "midi": 87,
                    "time": 57.52500000000082,
                    "velocity": 0.5275590551181102,
                    "duration": 0.07500000000000284
                },
                {
                    "name": "A#6",
                    "midi": 94,
                    "time": 57.750000000000824,
                    "velocity": 0.3543307086614173,
                    "duration": 0.07500000000000284
                },
                {
                    "name": "D7",
                    "midi": 98,
                    "time": 57.750000000000824,
                    "velocity": 0.3543307086614173,
                    "duration": 0.07500000000000284
                },
                {
                    "name": "A6",
                    "midi": 93,
                    "time": 57.82500000000083,
                    "velocity": 0.3543307086614173,
                    "duration": 0.07500000000000284
                },
                {
                    "name": "D7",
                    "midi": 98,
                    "time": 57.90000000000083,
                    "velocity": 0.3543307086614173,
                    "duration": 0.07500000000000284
                },
                {
                    "name": "G#6",
                    "midi": 92,
                    "time": 57.90000000000083,
                    "velocity": 0.3543307086614173,
                    "duration": 0.07500000000000284
                },
                {
                    "name": "G6",
                    "midi": 91,
                    "time": 57.97500000000083,
                    "velocity": 0.3543307086614173,
                    "duration": 0.07500000000000284
                },
                {
                    "name": "F#6",
                    "midi": 90,
                    "time": 58.050000000000836,
                    "velocity": 0.3543307086614173,
                    "duration": 0.07500000000000284
                },
                {
                    "name": "D7",
                    "midi": 98,
                    "time": 58.050000000000836,
                    "velocity": 0.3543307086614173,
                    "duration": 0.07500000000000284
                },
                {
                    "name": "F6",
                    "midi": 89,
                    "time": 58.12500000000084,
                    "velocity": 0.3543307086614173,
                    "duration": 0.07500000000000284
                },
                {
                    "name": "A#6",
                    "midi": 94,
                    "time": 58.20000000000084,
                    "velocity": 0.3464566929133858,
                    "duration": 0.07500000000000284
                },
                {
                    "name": "D7",
                    "midi": 98,
                    "time": 58.20000000000084,
                    "velocity": 0.3464566929133858,
                    "duration": 0.07500000000000284
                },
                {
                    "name": "E6",
                    "midi": 88,
                    "time": 58.275000000000844,
                    "velocity": 0.3464566929133858,
                    "duration": 0.07500000000000284
                },
                {
                    "name": "A#6",
                    "midi": 94,
                    "time": 58.35000000000085,
                    "velocity": 0.3464566929133858,
                    "duration": 0.07500000000000284
                },
                {
                    "name": "F6",
                    "midi": 89,
                    "time": 58.35000000000085,
                    "velocity": 0.3464566929133858,
                    "duration": 0.07500000000000284
                },
                {
                    "name": "D6",
                    "midi": 86,
                    "time": 58.42500000000085,
                    "velocity": 0.3464566929133858,
                    "duration": 0.07500000000000284
                },
                {
                    "name": "C6",
                    "midi": 84,
                    "time": 58.50000000000085,
                    "velocity": 0.33858267716535434,
                    "duration": 0.07500000000000284
                },
                {
                    "name": "F6",
                    "midi": 89,
                    "time": 58.50000000000085,
                    "velocity": 0.33858267716535434,
                    "duration": 0.07500000000000284
                },
                {
                    "name": "B5",
                    "midi": 83,
                    "time": 58.575000000000855,
                    "velocity": 0.33858267716535434,
                    "duration": 0.07500000000000284
                },
                {
                    "name": "D6",
                    "midi": 86,
                    "time": 58.65000000000086,
                    "velocity": 0.33070866141732286,
                    "duration": 0.07500000000000284
                },
                {
                    "name": "A#5",
                    "midi": 82,
                    "time": 58.65000000000086,
                    "velocity": 0.33070866141732286,
                    "duration": 0.07500000000000284
                },
                {
                    "name": "A5",
                    "midi": 81,
                    "time": 58.72500000000086,
                    "velocity": 0.33070866141732286,
                    "duration": 0.07500000000000284
                },
                {
                    "name": "F6",
                    "midi": 89,
                    "time": 58.800000000000864,
                    "velocity": 0.3543307086614173,
                    "duration": 0.07500000000000284
                },
                {
                    "name": "A#5",
                    "midi": 82,
                    "time": 58.800000000000864,
                    "velocity": 0.3543307086614173,
                    "duration": 0.07500000000000284
                },
                {
                    "name": "A5",
                    "midi": 81,
                    "time": 58.87500000000087,
                    "velocity": 0.3543307086614173,
                    "duration": 0.07500000000000284
                },
                {
                    "name": "D6",
                    "midi": 86,
                    "time": 58.95000000000087,
                    "velocity": 0.3543307086614173,
                    "duration": 0.07500000000000284
                },
                {
                    "name": "A#5",
                    "midi": 82,
                    "time": 58.95000000000087,
                    "velocity": 0.3543307086614173,
                    "duration": 0.07500000000000284
                },
                {
                    "name": "A5",
                    "midi": 81,
                    "time": 59.02500000000087,
                    "velocity": 0.3543307086614173,
                    "duration": 0.07500000000000284
                },
                {
                    "name": "D6",
                    "midi": 86,
                    "time": 59.100000000000875,
                    "velocity": 0.3543307086614173,
                    "duration": 0.07500000000000284
                },
                {
                    "name": "G#5",
                    "midi": 80,
                    "time": 59.100000000000875,
                    "velocity": 0.3543307086614173,
                    "duration": 0.07500000000000284
                },
                {
                    "name": "G5",
                    "midi": 79,
                    "time": 59.17500000000088,
                    "velocity": 0.3543307086614173,
                    "duration": 0.07500000000000284
                },
                {
                    "name": "F#5",
                    "midi": 78,
                    "time": 59.25000000000088,
                    "velocity": 0.3543307086614173,
                    "duration": 0.07500000000000284
                },
                {
                    "name": "A#5",
                    "midi": 82,
                    "time": 59.25000000000088,
                    "velocity": 0.3543307086614173,
                    "duration": 0.07500000000000284
                },
                {
                    "name": "F5",
                    "midi": 77,
                    "time": 59.325000000000884,
                    "velocity": 0.3543307086614173,
                    "duration": 0.07500000000000284
                },
                {
                    "name": "D6",
                    "midi": 86,
                    "time": 59.40000000000089,
                    "velocity": 0.3464566929133858,
                    "duration": 0.07500000000000284
                },
                {
                    "name": "A#5",
                    "midi": 82,
                    "time": 59.40000000000089,
                    "velocity": 0.3464566929133858,
                    "duration": 0.07500000000000284
                },
                {
                    "name": "E5",
                    "midi": 76,
                    "time": 59.47500000000089,
                    "velocity": 0.3464566929133858,
                    "duration": 0.07500000000000284
                },
                {
                    "name": "F5",
                    "midi": 77,
                    "time": 59.55000000000089,
                    "velocity": 0.3464566929133858,
                    "duration": 0.07500000000000284
                },
                {
                    "name": "A#5",
                    "midi": 82,
                    "time": 59.55000000000089,
                    "velocity": 0.3464566929133858,
                    "duration": 0.07500000000000284
                },
                {
                    "name": "D5",
                    "midi": 74,
                    "time": 59.625000000000895,
                    "velocity": 0.3464566929133858,
                    "duration": 0.07500000000000284
                },
                {
                    "name": "F5",
                    "midi": 77,
                    "time": 59.7000000000009,
                    "velocity": 0.33858267716535434,
                    "duration": 0.07500000000000284
                },
                {
                    "name": "C5",
                    "midi": 72,
                    "time": 59.7000000000009,
                    "velocity": 0.33858267716535434,
                    "duration": 0.07500000000000284
                },
                {
                    "name": "B4",
                    "midi": 71,
                    "time": 59.7750000000009,
                    "velocity": 0.33858267716535434,
                    "duration": 0.07500000000000284
                },
                {
                    "name": "D5",
                    "midi": 74,
                    "time": 59.850000000000904,
                    "velocity": 0.33070866141732286,
                    "duration": 0.07500000000000284
                },
                {
                    "name": "A#4",
                    "midi": 70,
                    "time": 59.850000000000904,
                    "velocity": 0.33070866141732286,
                    "duration": 0.07500000000000284
                },
                {
                    "name": "G#4",
                    "midi": 68,
                    "time": 59.92500000000091,
                    "velocity": 0.33070866141732286,
                    "duration": 0.07500000000000284
                },
                {
                    "name": "F#5",
                    "midi": 78,
                    "time": 60.00000000000091,
                    "velocity": 0.41732283464566927,
                    "duration": 0.07500000000000284
                },
                {
                    "name": "A#4",
                    "midi": 70,
                    "time": 60.00000000000091,
                    "velocity": 0.36220472440944884,
                    "duration": 0.07500000000000284
                },
                {
                    "name": "F#4",
                    "midi": 66,
                    "time": 60.00000000000091,
                    "velocity": 0.30708661417322836,
                    "duration": 0.07500000000000284
                },
                {
                    "name": "F#6",
                    "midi": 90,
                    "time": 60.150000000000915,
                    "velocity": 0.4094488188976378,
                    "duration": 0.07500000000000284
                },
                {
                    "name": "D#6",
                    "midi": 87,
                    "time": 60.150000000000915,
                    "velocity": 0.4094488188976378,
                    "duration": 0.07500000000000284
                },
                {
                    "name": "D6",
                    "midi": 86,
                    "time": 60.22500000000092,
                    "velocity": 0.4094488188976378,
                    "duration": 0.07500000000000284
                },
                {
                    "name": "C#6",
                    "midi": 85,
                    "time": 60.30000000000092,
                    "velocity": 0.4015748031496063,
                    "duration": 0.07500000000000284
                },
                {
                    "name": "F#6",
                    "midi": 90,
                    "time": 60.30000000000092,
                    "velocity": 0.4015748031496063,
                    "duration": 0.07500000000000284
                },
                {
                    "name": "C6",
                    "midi": 84,
                    "time": 60.375000000000924,
                    "velocity": 0.4094488188976378,
                    "duration": 0.07500000000000284
                },
                {
                    "name": "D#6",
                    "midi": 87,
                    "time": 60.45000000000093,
                    "velocity": 0.3937007874015748,
                    "duration": 0.07500000000000284
                },
                {
                    "name": "F#6",
                    "midi": 90,
                    "time": 60.45000000000093,
                    "velocity": 0.3937007874015748,
                    "duration": 0.07500000000000284
                },
                {
                    "name": "B5",
                    "midi": 83,
                    "time": 60.52500000000093,
                    "velocity": 0.4015748031496063,
                    "duration": 0.07500000000000284
                },
                {
                    "name": "A#5",
                    "midi": 82,
                    "time": 60.60000000000093,
                    "velocity": 0.3937007874015748,
                    "duration": 0.07500000000000284
                },
                {
                    "name": "F#6",
                    "midi": 90,
                    "time": 60.60000000000093,
                    "velocity": 0.3937007874015748,
                    "duration": 0.07500000000000284
                },
                {
                    "name": "A5",
                    "midi": 81,
                    "time": 60.675000000000935,
                    "velocity": 0.3937007874015748,
                    "duration": 0.07500000000000284
                },
                {
                    "name": "G#5",
                    "midi": 80,
                    "time": 60.75000000000094,
                    "velocity": 0.3937007874015748,
                    "duration": 0.07500000000000284
                },
                {
                    "name": "D#6",
                    "midi": 87,
                    "time": 60.75000000000094,
                    "velocity": 0.3937007874015748,
                    "duration": 0.07500000000000284
                },
                {
                    "name": "G5",
                    "midi": 79,
                    "time": 60.82500000000094,
                    "velocity": 0.4015748031496063,
                    "duration": 0.07500000000000284
                },
                {
                    "name": "D#6",
                    "midi": 87,
                    "time": 60.900000000000944,
                    "velocity": 0.3937007874015748,
                    "duration": 0.07500000000000284
                },
                {
                    "name": "F#5",
                    "midi": 78,
                    "time": 60.900000000000944,
                    "velocity": 0.3937007874015748,
                    "duration": 0.07500000000000284
                },
                {
                    "name": "F5",
                    "midi": 77,
                    "time": 60.975000000000946,
                    "velocity": 0.3937007874015748,
                    "duration": 0.07500000000000284
                },
                {
                    "name": "A#5",
                    "midi": 82,
                    "time": 61.05000000000095,
                    "velocity": 0.3858267716535433,
                    "duration": 0.07500000000000284
                },
                {
                    "name": "F#5",
                    "midi": 78,
                    "time": 61.05000000000095,
                    "velocity": 0.3858267716535433,
                    "duration": 0.07500000000000284
                },
                {
                    "name": "E5",
                    "midi": 76,
                    "time": 61.12500000000095,
                    "velocity": 0.3937007874015748,
                    "duration": 0.07500000000000284
                },
                {
                    "name": "D#6",
                    "midi": 87,
                    "time": 61.200000000000955,
                    "velocity": 0.4330708661417323,
                    "duration": 0.07500000000000284
                },
                {
                    "name": "F#5",
                    "midi": 78,
                    "time": 61.200000000000955,
                    "velocity": 0.4330708661417323,
                    "duration": 0.07500000000000284
                },
                {
                    "name": "D#5",
                    "midi": 75,
                    "time": 61.27500000000096,
                    "velocity": 0.4330708661417323,
                    "duration": 0.07500000000000284
                },
                {
                    "name": "D#5",
                    "midi": 75,
                    "time": 61.35000000000096,
                    "velocity": 0.4409448818897638,
                    "duration": 0.07500000000000284
                },
                {
                    "name": "A#5",
                    "midi": 82,
                    "time": 61.35000000000096,
                    "velocity": 0.4409448818897638,
                    "duration": 0.07500000000000284
                },
                {
                    "name": "D5",
                    "midi": 74,
                    "time": 61.42500000000096,
                    "velocity": 0.4409448818897638,
                    "duration": 0.07500000000000284
                },
                {
                    "name": "C#5",
                    "midi": 73,
                    "time": 61.500000000000966,
                    "velocity": 0.4330708661417323,
                    "duration": 0.07500000000000284
                },
                {
                    "name": "F#5",
                    "midi": 78,
                    "time": 61.500000000000966,
                    "velocity": 0.4330708661417323,
                    "duration": 0.07500000000000284
                },
                {
                    "name": "C5",
                    "midi": 72,
                    "time": 61.57500000000097,
                    "velocity": 0.4330708661417323,
                    "duration": 0.07500000000000284
                },
                {
                    "name": "D#5",
                    "midi": 75,
                    "time": 61.65000000000097,
                    "velocity": 0.4251968503937008,
                    "duration": 0.07500000000000284
                },
                {
                    "name": "F#5",
                    "midi": 78,
                    "time": 61.65000000000097,
                    "velocity": 0.4251968503937008,
                    "duration": 0.07500000000000284
                },
                {
                    "name": "B4",
                    "midi": 71,
                    "time": 61.725000000000975,
                    "velocity": 0.4251968503937008,
                    "duration": 0.07500000000000284
                },
                {
                    "name": "F#5",
                    "midi": 78,
                    "time": 61.80000000000098,
                    "velocity": 0.4251968503937008,
                    "duration": 0.07500000000000284
                },
                {
                    "name": "D#5",
                    "midi": 75,
                    "time": 61.80000000000098,
                    "velocity": 0.4251968503937008,
                    "duration": 0.07500000000000284
                },
                {
                    "name": "A#4",
                    "midi": 70,
                    "time": 61.87500000000098,
                    "velocity": 0.4251968503937008,
                    "duration": 0.07500000000000284
                },
                {
                    "name": "F#5",
                    "midi": 78,
                    "time": 61.95000000000098,
                    "velocity": 0.4251968503937008,
                    "duration": 0.07500000000000284
                },
                {
                    "name": "D#5",
                    "midi": 75,
                    "time": 61.95000000000098,
                    "velocity": 0.4251968503937008,
                    "duration": 0.07500000000000284
                },
                {
                    "name": "A4",
                    "midi": 69,
                    "time": 62.025000000000986,
                    "velocity": 0.4251968503937008,
                    "duration": 0.07500000000000284
                },
                {
                    "name": "D#5",
                    "midi": 75,
                    "time": 62.10000000000099,
                    "velocity": 0.4251968503937008,
                    "duration": 0.07500000000000284
                },
                {
                    "name": "G#4",
                    "midi": 68,
                    "time": 62.10000000000099,
                    "velocity": 0.4251968503937008,
                    "duration": 0.07500000000000284
                },
                {
                    "name": "G4",
                    "midi": 67,
                    "time": 62.17500000000099,
                    "velocity": 0.4251968503937008,
                    "duration": 0.07500000000000284
                },
                {
                    "name": "A#4",
                    "midi": 70,
                    "time": 62.250000000000995,
                    "velocity": 0.41732283464566927,
                    "duration": 0.07500000000000284
                },
                {
                    "name": "F#4",
                    "midi": 66,
                    "time": 62.250000000000995,
                    "velocity": 0.41732283464566927,
                    "duration": 0.07500000000000284
                },
                {
                    "name": "D#4",
                    "midi": 63,
                    "time": 62.325000000001,
                    "velocity": 0.41732283464566927,
                    "duration": 0.07500000000000284
                },
                {
                    "name": "B6",
                    "midi": 95,
                    "time": 62.550000000001,
                    "velocity": 0.2440944881889764,
                    "duration": 0.07500000000000284
                },
                {
                    "name": "D#6",
                    "midi": 87,
                    "time": 62.550000000001,
                    "velocity": 0.2440944881889764,
                    "duration": 0.07500000000000284
                },
                {
                    "name": "B5",
                    "midi": 83,
                    "time": 62.625000000001,
                    "velocity": 0.28346456692913385,
                    "duration": 0.07500000000000284
                },
                {
                    "name": "F#6",
                    "midi": 90,
                    "time": 62.625000000001,
                    "velocity": 0.28346456692913385,
                    "duration": 0.07500000000000284
                },
                {
                    "name": "D#6",
                    "midi": 87,
                    "time": 62.850000000001,
                    "velocity": 0.25196850393700787,
                    "duration": 0.07500000000000284
                },
                {
                    "name": "F#5",
                    "midi": 78,
                    "time": 62.850000000001,
                    "velocity": 0.25196850393700787,
                    "duration": 0.07500000000000284
                },
                {
                    "name": "B5",
                    "midi": 83,
                    "time": 62.925000000001006,
                    "velocity": 0.28346456692913385,
                    "duration": 0.07500000000000284
                },
                {
                    "name": "D#5",
                    "midi": 75,
                    "time": 62.925000000001006,
                    "velocity": 0.28346456692913385,
                    "duration": 0.07500000000000284
                },
                {
                    "name": "B4",
                    "midi": 71,
                    "time": 63.15000000000101,
                    "velocity": 0.2440944881889764,
                    "duration": 0.07500000000000284
                },
                {
                    "name": "G#5",
                    "midi": 80,
                    "time": 63.15000000000101,
                    "velocity": 0.2440944881889764,
                    "duration": 0.07500000000000284
                },
                {
                    "name": "G#4",
                    "midi": 68,
                    "time": 63.22500000000101,
                    "velocity": 0.28346456692913385,
                    "duration": 0.07500000000000284
                },
                {
                    "name": "F5",
                    "midi": 77,
                    "time": 63.22500000000101,
                    "velocity": 0.28346456692913385,
                    "duration": 0.07500000000000284
                },
                {
                    "name": "B5",
                    "midi": 83,
                    "time": 63.375000000001016,
                    "velocity": 0.25196850393700787,
                    "duration": 0.22500000000000142
                },
                {
                    "name": "G#6",
                    "midi": 92,
                    "time": 63.41250000000102,
                    "velocity": 0.2992125984251969,
                    "duration": 0.1875
                },
                {
                    "name": "C#7",
                    "midi": 97,
                    "time": 63.45000000000102,
                    "velocity": 0.3543307086614173,
                    "duration": 0.14999999999999858
                },
                {
                    "name": "A#6",
                    "midi": 94,
                    "time": 63.750000000001016,
                    "velocity": 0.2440944881889764,
                    "duration": 0.07500000000000284
                },
                {
                    "name": "C#6",
                    "midi": 85,
                    "time": 63.750000000001016,
                    "velocity": 0.2440944881889764,
                    "duration": 0.07500000000000284
                },
                {
                    "name": "F6",
                    "midi": 89,
                    "time": 63.82500000000102,
                    "velocity": 0.28346456692913385,
                    "duration": 0.07500000000000284
                },
                {
                    "name": "A#5",
                    "midi": 82,
                    "time": 63.82500000000102,
                    "velocity": 0.28346456692913385,
                    "duration": 0.07500000000000284
                },
                {
                    "name": "C#6",
                    "midi": 85,
                    "time": 64.05000000000102,
                    "velocity": 0.25196850393700787,
                    "duration": 0.07500000000000284
                },
                {
                    "name": "F5",
                    "midi": 77,
                    "time": 64.05000000000102,
                    "velocity": 0.25196850393700787,
                    "duration": 0.07500000000000284
                },
                {
                    "name": "A#5",
                    "midi": 82,
                    "time": 64.12500000000102,
                    "velocity": 0.28346456692913385,
                    "duration": 0.07500000000000284
                },
                {
                    "name": "C#5",
                    "midi": 73,
                    "time": 64.12500000000102,
                    "velocity": 0.28346456692913385,
                    "duration": 0.07500000000000284
                },
                {
                    "name": "F#5",
                    "midi": 78,
                    "time": 64.35000000000103,
                    "velocity": 0.2440944881889764,
                    "duration": 0.07500000000000284
                },
                {
                    "name": "A#4",
                    "midi": 70,
                    "time": 64.35000000000103,
                    "velocity": 0.2440944881889764,
                    "duration": 0.07500000000000284
                },
                {
                    "name": "D#5",
                    "midi": 75,
                    "time": 64.42500000000103,
                    "velocity": 0.28346456692913385,
                    "duration": 0.07500000000000284
                },
                {
                    "name": "F#4",
                    "midi": 66,
                    "time": 64.42500000000103,
                    "velocity": 0.28346456692913385,
                    "duration": 0.07500000000000284
                },
                {
                    "name": "A#5",
                    "midi": 82,
                    "time": 64.57500000000104,
                    "velocity": 0.25196850393700787,
                    "duration": 0.22499999999999432
                },
                {
                    "name": "F#6",
                    "midi": 90,
                    "time": 64.61250000000103,
                    "velocity": 0.2992125984251969,
                    "duration": 0.1875
                },
                {
                    "name": "B6",
                    "midi": 95,
                    "time": 64.65000000000103,
                    "velocity": 0.3543307086614173,
                    "duration": 0.15000000000000568
                },
                {
                    "name": "B5",
                    "midi": 83,
                    "time": 64.95000000000104,
                    "velocity": 0.2440944881889764,
                    "duration": 0.07500000000000284
                },
                {
                    "name": "G#6",
                    "midi": 92,
                    "time": 64.95000000000104,
                    "velocity": 0.2440944881889764,
                    "duration": 0.07500000000000284
                },
                {
                    "name": "D#6",
                    "midi": 87,
                    "time": 65.02500000000104,
                    "velocity": 0.28346456692913385,
                    "duration": 0.07500000000000284
                },
                {
                    "name": "G#5",
                    "midi": 80,
                    "time": 65.02500000000104,
                    "velocity": 0.28346456692913385,
                    "duration": 0.07500000000000284
                },
                {
                    "name": "D#6",
                    "midi": 87,
                    "time": 65.25000000000105,
                    "velocity": 0.25196850393700787,
                    "duration": 0.07500000000000284
                },
                {
                    "name": "G#5",
                    "midi": 80,
                    "time": 65.25000000000105,
                    "velocity": 0.25196850393700787,
                    "duration": 0.07500000000000284
                },
                {
                    "name": "B5",
                    "midi": 83,
                    "time": 65.32500000000105,
                    "velocity": 0.28346456692913385,
                    "duration": 0.07500000000000284
                },
                {
                    "name": "F5",
                    "midi": 77,
                    "time": 65.32500000000105,
                    "velocity": 0.28346456692913385,
                    "duration": 0.07500000000000284
                },
                {
                    "name": "G#5",
                    "midi": 80,
                    "time": 65.55000000000106,
                    "velocity": 0.2440944881889764,
                    "duration": 0.15000000000000568
                },
                {
                    "name": "D5",
                    "midi": 74,
                    "time": 65.55000000000106,
                    "velocity": 0.2440944881889764,
                    "duration": 0.07500000000000284
                },
                {
                    "name": "E5",
                    "midi": 76,
                    "time": 65.62500000000107,
                    "velocity": 0.28346456692913385,
                    "duration": 0.07500000000000284
                },
                {
                    "name": "F5",
                    "midi": 77,
                    "time": 65.70000000000107,
                    "velocity": 0.2440944881889764,
                    "duration": 0.15000000000000568
                },
                {
                    "name": "G#5",
                    "midi": 80,
                    "time": 65.85000000000107,
                    "velocity": 0.2992125984251969,
                    "duration": 0.15000000000000568
                },
                {
                    "name": "A#6",
                    "midi": 94,
                    "time": 65.85000000000107,
                    "velocity": 0.3543307086614173,
                    "duration": 0.15000000000000568
                },
                {
                    "name": "F#6",
                    "midi": 90,
                    "time": 66.15000000000109,
                    "velocity": 0.25196850393700787,
                    "duration": 0.07500000000000284
                },
                {
                    "name": "A#5",
                    "midi": 82,
                    "time": 66.15000000000109,
                    "velocity": 0.25196850393700787,
                    "duration": 0.07500000000000284
                },
                {
                    "name": "D#6",
                    "midi": 87,
                    "time": 66.22500000000109,
                    "velocity": 0.28346456692913385,
                    "duration": 0.07500000000000284
                },
                {
                    "name": "F#5",
                    "midi": 78,
                    "time": 66.22500000000109,
                    "velocity": 0.28346456692913385,
                    "duration": 0.07500000000000284
                },
                {
                    "name": "A#5",
                    "midi": 82,
                    "time": 66.4500000000011,
                    "velocity": 0.25196850393700787,
                    "duration": 0.07500000000000284
                },
                {
                    "name": "D#5",
                    "midi": 75,
                    "time": 66.4500000000011,
                    "velocity": 0.25196850393700787,
                    "duration": 0.07500000000000284
                },
                {
                    "name": "D#6",
                    "midi": 87,
                    "time": 66.5250000000011,
                    "velocity": 0.28346456692913385,
                    "duration": 0.07500000000000284
                },
                {
                    "name": "F#5",
                    "midi": 78,
                    "time": 66.5250000000011,
                    "velocity": 0.28346456692913385,
                    "duration": 0.07500000000000284
                },
                {
                    "name": "F#5",
                    "midi": 78,
                    "time": 66.6000000000011,
                    "velocity": 0.3543307086614173,
                    "duration": 0.30000000000001137
                },
                {
                    "name": "F#6",
                    "midi": 90,
                    "time": 66.6000000000011,
                    "velocity": 0.3543307086614173,
                    "duration": 0.07500000000000284
                },
                {
                    "name": "F6",
                    "midi": 89,
                    "time": 66.6750000000011,
                    "velocity": 0.28346456692913385,
                    "duration": 0.07500000000000284
                },
                {
                    "name": "E6",
                    "midi": 88,
                    "time": 66.75000000000111,
                    "velocity": 0.2992125984251969,
                    "duration": 0.07500000000000284
                },
                {
                    "name": "D#6",
                    "midi": 87,
                    "time": 66.82500000000111,
                    "velocity": 0.33070866141732286,
                    "duration": 0.07500000000000284
                },
                {
                    "name": "A6",
                    "midi": 93,
                    "time": 66.90000000000111,
                    "velocity": 0.3779527559055118,
                    "duration": 0.07500000000000284
                },
                {
                    "name": "A5",
                    "midi": 81,
                    "time": 66.90000000000111,
                    "velocity": 0.3779527559055118,
                    "duration": 0.30000000000001137
                },
                {
                    "name": "G#6",
                    "midi": 92,
                    "time": 66.97500000000112,
                    "velocity": 0.3228346456692913,
                    "duration": 0.07500000000000284
                },
                {
                    "name": "G6",
                    "midi": 91,
                    "time": 67.05000000000112,
                    "velocity": 0.3464566929133858,
                    "duration": 0.07500000000000284
                },
                {
                    "name": "F#6",
                    "midi": 90,
                    "time": 67.12500000000112,
                    "velocity": 0.3779527559055118,
                    "duration": 0.07500000000000284
                },
                {
                    "name": "C#7",
                    "midi": 97,
                    "time": 67.20000000000113,
                    "velocity": 0.49606299212598426,
                    "duration": 0.07500000000000284
                },
                {
                    "name": "C#6",
                    "midi": 85,
                    "time": 67.20000000000113,
                    "velocity": 0.4015748031496063,
                    "duration": 0.07500000000000284
                },
                {
                    "name": "G#5",
                    "midi": 80,
                    "time": 67.50000000000112,
                    "velocity": 0.2283464566929134,
                    "duration": 0.15000000000000568
                },
                {
                    "name": "F5",
                    "midi": 77,
                    "time": 67.50000000000112,
                    "velocity": 0.2283464566929134,
                    "duration": 0.15000000000000568
                },
                {
                    "name": "D6",
                    "midi": 86,
                    "time": 67.50000000000112,
                    "velocity": 0.25984251968503935,
                    "duration": 0.07500000000000284
                },
                {
                    "name": "B5",
                    "midi": 83,
                    "time": 67.57500000000113,
                    "velocity": 0.2440944881889764,
                    "duration": 0.07500000000000284
                },
                {
                    "name": "G5",
                    "midi": 79,
                    "time": 67.65000000000113,
                    "velocity": 0.25984251968503935,
                    "duration": 0.07500000000000284
                },
                {
                    "name": "E5",
                    "midi": 76,
                    "time": 67.72500000000113,
                    "velocity": 0.2125984251968504,
                    "duration": 0.07500000000000284
                },
                {
                    "name": "G#5",
                    "midi": 80,
                    "time": 67.80000000000113,
                    "velocity": 0.25984251968503935,
                    "duration": 0.07500000000000284
                },
                {
                    "name": "F5",
                    "midi": 77,
                    "time": 67.87500000000114,
                    "velocity": 0.2204724409448819,
                    "duration": 0.07500000000000284
                },
                {
                    "name": "C#6",
                    "midi": 85,
                    "time": 67.95000000000114,
                    "velocity": 0.25984251968503935,
                    "duration": 0.07500000000000284
                },
                {
                    "name": "A#5",
                    "midi": 82,
                    "time": 68.02500000000114,
                    "velocity": 0.25984251968503935,
                    "duration": 0.07500000000000284
                },
                {
                    "name": "D6",
                    "midi": 86,
                    "time": 68.10000000000115,
                    "velocity": 0.2755905511811024,
                    "duration": 0.07500000000000284
                },
                {
                    "name": "B5",
                    "midi": 83,
                    "time": 68.17500000000115,
                    "velocity": 0.28346456692913385,
                    "duration": 0.07500000000000284
                },
                {
                    "name": "G6",
                    "midi": 91,
                    "time": 68.25000000000115,
                    "velocity": 0.29133858267716534,
                    "duration": 0.07500000000000284
                },
                {
                    "name": "E6",
                    "midi": 88,
                    "time": 68.32500000000115,
                    "velocity": 0.2992125984251969,
                    "duration": 0.07500000000000284
                },
                {
                    "name": "G#6",
                    "midi": 92,
                    "time": 68.40000000000116,
                    "velocity": 0.30708661417322836,
                    "duration": 0.07500000000000284
                },
                {
                    "name": "F6",
                    "midi": 89,
                    "time": 68.47500000000116,
                    "velocity": 0.29133858267716534,
                    "duration": 0.07500000000000284
                },
                {
                    "name": "D7",
                    "midi": 98,
                    "time": 68.55000000000116,
                    "velocity": 0.3779527559055118,
                    "duration": 0.07500000000000284
                },
                {
                    "name": "F6",
                    "midi": 89,
                    "time": 68.62500000000117,
                    "velocity": 0.28346456692913385,
                    "duration": 0.07500000000000284
                },
                {
                    "name": "D6",
                    "midi": 86,
                    "time": 68.62500000000117,
                    "velocity": 0.28346456692913385,
                    "duration": 0.07500000000000284
                },
                {
                    "name": "C#7",
                    "midi": 97,
                    "time": 68.70000000000117,
                    "velocity": 0.3543307086614173,
                    "duration": 0.07500000000000284
                },
                {
                    "name": "F6",
                    "midi": 89,
                    "time": 68.77500000000117,
                    "velocity": 0.28346456692913385,
                    "duration": 0.07500000000000284
                },
                {
                    "name": "C#6",
                    "midi": 85,
                    "time": 68.77500000000117,
                    "velocity": 0.28346456692913385,
                    "duration": 0.07500000000000284
                },
                {
                    "name": "B6",
                    "midi": 95,
                    "time": 68.85000000000117,
                    "velocity": 0.3779527559055118,
                    "duration": 0.07500000000000284
                },
                {
                    "name": "B5",
                    "midi": 83,
                    "time": 68.92500000000118,
                    "velocity": 0.30708661417322836,
                    "duration": 0.07500000000000284
                },
                {
                    "name": "F6",
                    "midi": 89,
                    "time": 68.92500000000118,
                    "velocity": 0.30708661417322836,
                    "duration": 0.07500000000000284
                },
                {
                    "name": "A#6",
                    "midi": 94,
                    "time": 69.00000000000118,
                    "velocity": 0.36220472440944884,
                    "duration": 0.07500000000000284
                },
                {
                    "name": "A#5",
                    "midi": 82,
                    "time": 69.07500000000118,
                    "velocity": 0.28346456692913385,
                    "duration": 0.07500000000000284
                },
                {
                    "name": "C#6",
                    "midi": 85,
                    "time": 69.07500000000118,
                    "velocity": 0.28346456692913385,
                    "duration": 0.07500000000000284
                },
                {
                    "name": "A6",
                    "midi": 93,
                    "time": 69.15000000000119,
                    "velocity": 0.3543307086614173,
                    "duration": 0.07500000000000284
                },
                {
                    "name": "C6",
                    "midi": 84,
                    "time": 69.22500000000119,
                    "velocity": 0.30708661417322836,
                    "duration": 0.07500000000000284
                },
                {
                    "name": "A5",
                    "midi": 81,
                    "time": 69.22500000000119,
                    "velocity": 0.30708661417322836,
                    "duration": 0.07500000000000284
                },
                {
                    "name": "G#6",
                    "midi": 92,
                    "time": 69.30000000000119,
                    "velocity": 0.3779527559055118,
                    "duration": 0.07500000000000284
                },
                {
                    "name": "C6",
                    "midi": 84,
                    "time": 69.3750000000012,
                    "velocity": 0.2992125984251969,
                    "duration": 0.07500000000000284
                },
                {
                    "name": "G#5",
                    "midi": 80,
                    "time": 69.3750000000012,
                    "velocity": 0.2992125984251969,
                    "duration": 0.07500000000000284
                },
                {
                    "name": "F#6",
                    "midi": 90,
                    "time": 69.4500000000012,
                    "velocity": 0.36220472440944884,
                    "duration": 0.07500000000000284
                },
                {
                    "name": "C6",
                    "midi": 84,
                    "time": 69.5250000000012,
                    "velocity": 0.30708661417322836,
                    "duration": 0.07500000000000284
                },
                {
                    "name": "F#5",
                    "midi": 78,
                    "time": 69.5250000000012,
                    "velocity": 0.30708661417322836,
                    "duration": 0.07500000000000284
                },
                {
                    "name": "F5",
                    "midi": 77,
                    "time": 69.6000000000012,
                    "velocity": 0.3937007874015748,
                    "duration": 0.15000000000000568
                },
                {
                    "name": "F6",
                    "midi": 89,
                    "time": 69.6000000000012,
                    "velocity": 0.3937007874015748,
                    "duration": 0.15000000000000568
                },
                {
                    "name": "C#6",
                    "midi": 85,
                    "time": 69.6000000000012,
                    "velocity": 0.3937007874015748,
                    "duration": 0.15000000000000568
                },
                {
                    "name": "G#4",
                    "midi": 68,
                    "time": 69.90000000000121,
                    "velocity": 0.2204724409448819,
                    "duration": 0.30000000000001137
                },
                {
                    "name": "F4",
                    "midi": 65,
                    "time": 69.90000000000121,
                    "velocity": 0.2204724409448819,
                    "duration": 0.30000000000001137
                },
                {
                    "name": "D5",
                    "midi": 74,
                    "time": 69.90000000000121,
                    "velocity": 0.25984251968503935,
                    "duration": 0.07500000000000284
                },
                {
                    "name": "B4",
                    "midi": 71,
                    "time": 69.97500000000122,
                    "velocity": 0.2440944881889764,
                    "duration": 0.07500000000000284
                },
                {
                    "name": "G4",
                    "midi": 67,
                    "time": 70.05000000000122,
                    "velocity": 0.25984251968503935,
                    "duration": 0.07500000000000284
                },
                {
                    "name": "E4",
                    "midi": 64,
                    "time": 70.12500000000122,
                    "velocity": 0.2125984251968504,
                    "duration": 0.07500000000000284
                },
                {
                    "name": "G#4",
                    "midi": 68,
                    "time": 70.20000000000122,
                    "velocity": 0.25984251968503935,
                    "duration": 0.07500000000000284
                },
                {
                    "name": "F4",
                    "midi": 65,
                    "time": 70.27500000000123,
                    "velocity": 0.2204724409448819,
                    "duration": 0.07500000000000284
                },
                {
                    "name": "C#5",
                    "midi": 73,
                    "time": 70.35000000000123,
                    "velocity": 0.25984251968503935,
                    "duration": 0.07500000000000284
                },
                {
                    "name": "A#4",
                    "midi": 70,
                    "time": 70.42500000000123,
                    "velocity": 0.25984251968503935,
                    "duration": 0.07500000000000284
                },
                {
                    "name": "D5",
                    "midi": 74,
                    "time": 70.50000000000124,
                    "velocity": 0.2755905511811024,
                    "duration": 0.07500000000000284
                },
                {
                    "name": "B4",
                    "midi": 71,
                    "time": 70.57500000000124,
                    "velocity": 0.28346456692913385,
                    "duration": 0.07500000000000284
                },
                {
                    "name": "G5",
                    "midi": 79,
                    "time": 70.65000000000124,
                    "velocity": 0.29133858267716534,
                    "duration": 0.07500000000000284
                },
                {
                    "name": "E5",
                    "midi": 76,
                    "time": 70.72500000000124,
                    "velocity": 0.2992125984251969,
                    "duration": 0.07500000000000284
                },
                {
                    "name": "G#5",
                    "midi": 80,
                    "time": 70.80000000000125,
                    "velocity": 0.30708661417322836,
                    "duration": 0.07500000000000284
                },
                {
                    "name": "F5",
                    "midi": 77,
                    "time": 70.87500000000125,
                    "velocity": 0.29133858267716534,
                    "duration": 0.07500000000000284
                },
                {
                    "name": "D6",
                    "midi": 86,
                    "time": 70.95000000000125,
                    "velocity": 0.3779527559055118,
                    "duration": 0.07500000000000284
                },
                {
                    "name": "D5",
                    "midi": 74,
                    "time": 71.02500000000126,
                    "velocity": 0.28346456692913385,
                    "duration": 0.07500000000000284
                },
                {
                    "name": "F5",
                    "midi": 77,
                    "time": 71.02500000000126,
                    "velocity": 0.28346456692913385,
                    "duration": 0.07500000000000284
                },
                {
                    "name": "C#6",
                    "midi": 85,
                    "time": 71.10000000000126,
                    "velocity": 0.3543307086614173,
                    "duration": 0.07500000000000284
                },
                {
                    "name": "C#5",
                    "midi": 73,
                    "time": 71.17500000000126,
                    "velocity": 0.28346456692913385,
                    "duration": 0.07500000000000284
                },
                {
                    "name": "F5",
                    "midi": 77,
                    "time": 71.17500000000126,
                    "velocity": 0.28346456692913385,
                    "duration": 0.07500000000000284
                },
                {
                    "name": "B5",
                    "midi": 83,
                    "time": 71.25000000000126,
                    "velocity": 0.3779527559055118,
                    "duration": 0.07500000000000284
                },
                {
                    "name": "F5",
                    "midi": 77,
                    "time": 71.32500000000127,
                    "velocity": 0.30708661417322836,
                    "duration": 0.07500000000000284
                },
                {
                    "name": "B4",
                    "midi": 71,
                    "time": 71.32500000000127,
                    "velocity": 0.30708661417322836,
                    "duration": 0.07500000000000284
                },
                {
                    "name": "A#5",
                    "midi": 82,
                    "time": 71.40000000000127,
                    "velocity": 0.36220472440944884,
                    "duration": 0.07500000000000284
                },
                {
                    "name": "C#5",
                    "midi": 73,
                    "time": 71.47500000000127,
                    "velocity": 0.28346456692913385,
                    "duration": 0.07500000000000284
                },
                {
                    "name": "A#4",
                    "midi": 70,
                    "time": 71.47500000000127,
                    "velocity": 0.28346456692913385,
                    "duration": 0.07500000000000284
                },
                {
                    "name": "A5",
                    "midi": 81,
                    "time": 71.55000000000128,
                    "velocity": 0.3543307086614173,
                    "duration": 0.07500000000000284
                },
                {
                    "name": "A4",
                    "midi": 69,
                    "time": 71.62500000000128,
                    "velocity": 0.30708661417322836,
                    "duration": 0.07500000000000284
                },
                {
                    "name": "C5",
                    "midi": 72,
                    "time": 71.62500000000128,
                    "velocity": 0.30708661417322836,
                    "duration": 0.07500000000000284
                },
                {
                    "name": "G#5",
                    "midi": 80,
                    "time": 71.70000000000128,
                    "velocity": 0.3779527559055118,
                    "duration": 0.07500000000000284
                },
                {
                    "name": "G#4",
                    "midi": 68,
                    "time": 71.77500000000128,
                    "velocity": 0.2992125984251969,
                    "duration": 0.07500000000000284
                },
                {
                    "name": "C5",
                    "midi": 72,
                    "time": 71.77500000000128,
                    "velocity": 0.2992125984251969,
                    "duration": 0.07500000000000284
                },
                {
                    "name": "F#5",
                    "midi": 78,
                    "time": 71.85000000000129,
                    "velocity": 0.36220472440944884,
                    "duration": 0.07500000000000284
                },
                {
                    "name": "F#4",
                    "midi": 66,
                    "time": 71.92500000000129,
                    "velocity": 0.30708661417322836,
                    "duration": 0.07500000000000284
                },
                {
                    "name": "C5",
                    "midi": 72,
                    "time": 71.92500000000129,
                    "velocity": 0.30708661417322836,
                    "duration": 0.07500000000000284
                },
                {
                    "name": "F5",
                    "midi": 77,
                    "time": 72.0000000000013,
                    "velocity": 0.36220472440944884,
                    "duration": 0.07500000000000284
                },
                {
                    "name": "F4",
                    "midi": 65,
                    "time": 72.0750000000013,
                    "velocity": 0.2992125984251969,
                    "duration": 0.07500000000000284
                },
                {
                    "name": "G#4",
                    "midi": 68,
                    "time": 72.0750000000013,
                    "velocity": 0.2992125984251969,
                    "duration": 0.07500000000000284
                },
                {
                    "name": "D5",
                    "midi": 74,
                    "time": 72.1500000000013,
                    "velocity": 0.36220472440944884,
                    "duration": 0.07500000000000284
                },
                {
                    "name": "D4",
                    "midi": 62,
                    "time": 72.2250000000013,
                    "velocity": 0.2992125984251969,
                    "duration": 0.07500000000000284
                },
                {
                    "name": "F4",
                    "midi": 65,
                    "time": 72.2250000000013,
                    "velocity": 0.2992125984251969,
                    "duration": 0.07500000000000284
                },
                {
                    "name": "C#5",
                    "midi": 73,
                    "time": 72.3000000000013,
                    "velocity": 0.3779527559055118,
                    "duration": 0.07500000000000284
                },
                {
                    "name": "C#4",
                    "midi": 61,
                    "time": 72.37500000000131,
                    "velocity": 0.30708661417322836,
                    "duration": 0.07500000000000284
                },
                {
                    "name": "F4",
                    "midi": 65,
                    "time": 72.37500000000131,
                    "velocity": 0.30708661417322836,
                    "duration": 0.07500000000000284
                },
                {
                    "name": "B4",
                    "midi": 71,
                    "time": 72.45000000000131,
                    "velocity": 0.3858267716535433,
                    "duration": 0.07500000000000284
                },
                {
                    "name": "B3",
                    "midi": 59,
                    "time": 72.52500000000131,
                    "velocity": 0.3228346456692913,
                    "duration": 0.07500000000000284
                },
                {
                    "name": "F4",
                    "midi": 65,
                    "time": 72.52500000000131,
                    "velocity": 0.3228346456692913,
                    "duration": 0.07500000000000284
                },
                {
                    "name": "A#4",
                    "midi": 70,
                    "time": 72.60000000000132,
                    "velocity": 0.3937007874015748,
                    "duration": 0.07500000000000284
                },
                {
                    "name": "C#4",
                    "midi": 61,
                    "time": 72.67500000000132,
                    "velocity": 0.33070866141732286,
                    "duration": 0.07500000000000284
                },
                {
                    "name": "A#3",
                    "midi": 58,
                    "time": 72.67500000000132,
                    "velocity": 0.33070866141732286,
                    "duration": 0.07500000000000284
                },
                {
                    "name": "A4",
                    "midi": 69,
                    "time": 72.75000000000132,
                    "velocity": 0.4015748031496063,
                    "duration": 0.07500000000000284
                },
                {
                    "name": "A3",
                    "midi": 57,
                    "time": 72.82500000000132,
                    "velocity": 0.33070866141732286,
                    "duration": 0.07500000000000284
                },
                {
                    "name": "C4",
                    "midi": 60,
                    "time": 72.82500000000132,
                    "velocity": 0.33070866141732286,
                    "duration": 0.07500000000000284
                },
                {
                    "name": "G#4",
                    "midi": 68,
                    "time": 72.90000000000133,
                    "velocity": 0.4094488188976378,
                    "duration": 0.07500000000000284
                },
                {
                    "name": "G#3",
                    "midi": 56,
                    "time": 72.97500000000133,
                    "velocity": 0.33858267716535434,
                    "duration": 0.07500000000000284
                },
                {
                    "name": "C4",
                    "midi": 60,
                    "time": 72.97500000000133,
                    "velocity": 0.33858267716535434,
                    "duration": 0.07500000000000284
                },
                {
                    "name": "F#4",
                    "midi": 66,
                    "time": 73.05000000000133,
                    "velocity": 0.4094488188976378,
                    "duration": 0.07500000000000284
                },
                {
                    "name": "F#3",
                    "midi": 54,
                    "time": 73.12500000000134,
                    "velocity": 0.3464566929133858,
                    "duration": 0.07500000000000284
                },
                {
                    "name": "C4",
                    "midi": 60,
                    "time": 73.12500000000134,
                    "velocity": 0.3464566929133858,
                    "duration": 0.07500000000000284
                },
                {
                    "name": "F4",
                    "midi": 65,
                    "time": 73.20000000000134,
                    "velocity": 0.4645669291338583,
                    "duration": 0.15000000000000568
                },
                {
                    "name": "G#3",
                    "midi": 56,
                    "time": 73.20000000000134,
                    "velocity": 0.4645669291338583,
                    "duration": 0.15000000000000568
                },
                {
                    "name": "D4",
                    "midi": 62,
                    "time": 73.35000000000134,
                    "velocity": 0.6535433070866141,
                    "duration": 0.07500000000000284
                },
                {
                    "name": "G#3",
                    "midi": 56,
                    "time": 73.35000000000134,
                    "velocity": 0.5590551181102362,
                    "duration": 0.07500000000000284
                },
                {
                    "name": "F3",
                    "midi": 53,
                    "time": 73.35000000000134,
                    "velocity": 0.5590551181102362,
                    "duration": 0.07500000000000284
                },
                {
                    "name": "G#3",
                    "midi": 56,
                    "time": 73.50000000000135,
                    "velocity": 0.5118110236220472,
                    "duration": 0.07500000000000284
                },
                {
                    "name": "C#4",
                    "midi": 61,
                    "time": 73.50000000000135,
                    "velocity": 0.6062992125984252,
                    "duration": 0.07500000000000284
                },
                {
                    "name": "F3",
                    "midi": 53,
                    "time": 73.50000000000135,
                    "velocity": 0.5118110236220472,
                    "duration": 0.07500000000000284
                },
                {
                    "name": "C4",
                    "midi": 60,
                    "time": 73.65000000000136,
                    "velocity": 0.6062992125984252,
                    "duration": 0.07500000000000284
                },
                {
                    "name": "F3",
                    "midi": 53,
                    "time": 73.65000000000136,
                    "velocity": 0.5118110236220472,
                    "duration": 0.07500000000000284
                },
                {
                    "name": "G#3",
                    "midi": 56,
                    "time": 73.65000000000136,
                    "velocity": 0.5118110236220472,
                    "duration": 0.07500000000000284
                },
                {
                    "name": "F3",
                    "midi": 53,
                    "time": 73.80000000000136,
                    "velocity": 0.5590551181102362,
                    "duration": 0.07500000000000284
                },
                {
                    "name": "G#3",
                    "midi": 56,
                    "time": 73.80000000000136,
                    "velocity": 0.5590551181102362,
                    "duration": 0.07500000000000284
                },
                {
                    "name": "B3",
                    "midi": 59,
                    "time": 73.80000000000136,
                    "velocity": 0.6535433070866141,
                    "duration": 0.07500000000000284
                },
                {
                    "name": "G#3",
                    "midi": 56,
                    "time": 73.95000000000137,
                    "velocity": 0.5118110236220472,
                    "duration": 0.07500000000000284
                },
                {
                    "name": "D4",
                    "midi": 62,
                    "time": 73.95000000000137,
                    "velocity": 0.6062992125984252,
                    "duration": 0.07500000000000284
                },
                {
                    "name": "F3",
                    "midi": 53,
                    "time": 73.95000000000137,
                    "velocity": 0.5118110236220472,
                    "duration": 0.07500000000000284
                },
                {
                    "name": "C#4",
                    "midi": 61,
                    "time": 74.10000000000137,
                    "velocity": 0.6535433070866141,
                    "duration": 0.07500000000000284
                },
                {
                    "name": "G#3",
                    "midi": 56,
                    "time": 74.10000000000137,
                    "velocity": 0.5590551181102362,
                    "duration": 0.15000000000000568
                },
                {
                    "name": "F3",
                    "midi": 53,
                    "time": 74.10000000000137,
                    "velocity": 0.5590551181102362,
                    "duration": 0.15000000000000568
                },
                {
                    "name": "C4",
                    "midi": 60,
                    "time": 74.17500000000138,
                    "velocity": 0.5905511811023622,
                    "duration": 0.07500000000000284
                },
                {
                    "name": "B3",
                    "midi": 59,
                    "time": 74.25000000000138,
                    "velocity": 0.5905511811023622,
                    "duration": 0.15000000000000568
                },
                {
                    "name": "G#4",
                    "midi": 68,
                    "time": 74.55000000000139,
                    "velocity": 0.25984251968503935,
                    "duration": 0.07500000000000284
                },
                {
                    "name": "F4",
                    "midi": 65,
                    "time": 74.55000000000139,
                    "velocity": 0.25984251968503935,
                    "duration": 0.07500000000000284
                },
                {
                    "name": "D5",
                    "midi": 74,
                    "time": 74.55000000000139,
                    "velocity": 0.30708661417322836,
                    "duration": 0.07500000000000284
                },
                {
                    "name": "F4",
                    "midi": 65,
                    "time": 74.7000000000014,
                    "velocity": 0.23622047244094488,
                    "duration": 0.07500000000000284
                },
                {
                    "name": "G#4",
                    "midi": 68,
                    "time": 74.7000000000014,
                    "velocity": 0.23622047244094488,
                    "duration": 0.07500000000000284
                },
                {
                    "name": "C#5",
                    "midi": 73,
                    "time": 74.7000000000014,
                    "velocity": 0.28346456692913385,
                    "duration": 0.07500000000000284
                },
                {
                    "name": "F4",
                    "midi": 65,
                    "time": 74.8500000000014,
                    "velocity": 0.23622047244094488,
                    "duration": 0.07500000000000284
                },
                {
                    "name": "C5",
                    "midi": 72,
                    "time": 74.8500000000014,
                    "velocity": 0.28346456692913385,
                    "duration": 0.07500000000000284
                },
                {
                    "name": "G#4",
                    "midi": 68,
                    "time": 74.8500000000014,
                    "velocity": 0.23622047244094488,
                    "duration": 0.07500000000000284
                },
                {
                    "name": "F4",
                    "midi": 65,
                    "time": 75.0000000000014,
                    "velocity": 0.25984251968503935,
                    "duration": 0.07500000000000284
                },
                {
                    "name": "G#4",
                    "midi": 68,
                    "time": 75.0000000000014,
                    "velocity": 0.25984251968503935,
                    "duration": 0.07500000000000284
                },
                {
                    "name": "B4",
                    "midi": 71,
                    "time": 75.0000000000014,
                    "velocity": 0.30708661417322836,
                    "duration": 0.07500000000000284
                },
                {
                    "name": "G#4",
                    "midi": 68,
                    "time": 75.15000000000141,
                    "velocity": 0.23622047244094488,
                    "duration": 0.07500000000000284
                },
                {
                    "name": "F4",
                    "midi": 65,
                    "time": 75.15000000000141,
                    "velocity": 0.23622047244094488,
                    "duration": 0.07500000000000284
                },
                {
                    "name": "D5",
                    "midi": 74,
                    "time": 75.15000000000141,
                    "velocity": 0.28346456692913385,
                    "duration": 0.07500000000000284
                },
                {
                    "name": "C#5",
                    "midi": 73,
                    "time": 75.30000000000142,
                    "velocity": 0.30708661417322836,
                    "duration": 0.07500000000000284
                },
                {
                    "name": "F4",
                    "midi": 65,
                    "time": 75.30000000000142,
                    "velocity": 0.25984251968503935,
                    "duration": 0.15000000000000568
                },
                {
                    "name": "G#4",
                    "midi": 68,
                    "time": 75.30000000000142,
                    "velocity": 0.25984251968503935,
                    "duration": 0.15000000000000568
                },
                {
                    "name": "C5",
                    "midi": 72,
                    "time": 75.37500000000142,
                    "velocity": 0.28346456692913385,
                    "duration": 0.07500000000000284
                },
                {
                    "name": "B4",
                    "midi": 71,
                    "time": 75.45000000000142,
                    "velocity": 0.28346456692913385,
                    "duration": 0.15000000000000568
                },
                {
                    "name": "F4",
                    "midi": 65,
                    "time": 75.75000000000144,
                    "velocity": 0.5590551181102362,
                    "duration": 0.07500000000000284
                },
                {
                    "name": "G#3",
                    "midi": 56,
                    "time": 75.75000000000144,
                    "velocity": 0.5590551181102362,
                    "duration": 0.07500000000000284
                },
                {
                    "name": "D4",
                    "midi": 62,
                    "time": 75.75000000000144,
                    "velocity": 0.6535433070866141,
                    "duration": 0.07500000000000284
                },
                {
                    "name": "F4",
                    "midi": 65,
                    "time": 75.90000000000144,
                    "velocity": 0.5118110236220472,
                    "duration": 0.07500000000000284
                },
                {
                    "name": "C#4",
                    "midi": 61,
                    "time": 75.90000000000144,
                    "velocity": 0.6062992125984252,
                    "duration": 0.07500000000000284
                },
                {
                    "name": "G#3",
                    "midi": 56,
                    "time": 75.90000000000144,
                    "velocity": 0.5118110236220472,
                    "duration": 0.07500000000000284
                },
                {
                    "name": "G#3",
                    "midi": 56,
                    "time": 76.05000000000145,
                    "velocity": 0.5118110236220472,
                    "duration": 0.07500000000000284
                },
                {
                    "name": "F4",
                    "midi": 65,
                    "time": 76.05000000000145,
                    "velocity": 0.5118110236220472,
                    "duration": 0.07500000000000284
                },
                {
                    "name": "C4",
                    "midi": 60,
                    "time": 76.05000000000145,
                    "velocity": 0.6062992125984252,
                    "duration": 0.07500000000000284
                },
                {
                    "name": "F4",
                    "midi": 65,
                    "time": 76.20000000000145,
                    "velocity": 0.5590551181102362,
                    "duration": 0.07500000000000284
                },
                {
                    "name": "G#3",
                    "midi": 56,
                    "time": 76.20000000000145,
                    "velocity": 0.5590551181102362,
                    "duration": 0.07500000000000284
                },
                {
                    "name": "B3",
                    "midi": 59,
                    "time": 76.20000000000145,
                    "velocity": 0.6535433070866141,
                    "duration": 0.07500000000000284
                },
                {
                    "name": "D4",
                    "midi": 62,
                    "time": 76.35000000000146,
                    "velocity": 0.6062992125984252,
                    "duration": 0.07500000000000284
                },
                {
                    "name": "F4",
                    "midi": 65,
                    "time": 76.35000000000146,
                    "velocity": 0.5118110236220472,
                    "duration": 0.07500000000000284
                },
                {
                    "name": "G#3",
                    "midi": 56,
                    "time": 76.35000000000146,
                    "velocity": 0.5118110236220472,
                    "duration": 0.07500000000000284
                },
                {
                    "name": "C#4",
                    "midi": 61,
                    "time": 76.50000000000146,
                    "velocity": 0.6535433070866141,
                    "duration": 0.07500000000000284
                },
                {
                    "name": "G#3",
                    "midi": 56,
                    "time": 76.50000000000146,
                    "velocity": 0.5590551181102362,
                    "duration": 0.15000000000000568
                },
                {
                    "name": "F4",
                    "midi": 65,
                    "time": 76.50000000000146,
                    "velocity": 0.5590551181102362,
                    "duration": 0.15000000000000568
                },
                {
                    "name": "C4",
                    "midi": 60,
                    "time": 76.57500000000147,
                    "velocity": 0.5905511811023622,
                    "duration": 0.07500000000000284
                },
                {
                    "name": "B3",
                    "midi": 59,
                    "time": 76.65000000000147,
                    "velocity": 0.5905511811023622,
                    "duration": 0.15000000000000568
                },
                {
                    "name": "F5",
                    "midi": 77,
                    "time": 76.95000000000148,
                    "velocity": 0.25984251968503935,
                    "duration": 0.07500000000000284
                },
                {
                    "name": "D5",
                    "midi": 74,
                    "time": 76.95000000000148,
                    "velocity": 0.30708661417322836,
                    "duration": 0.07500000000000284
                },
                {
                    "name": "G#4",
                    "midi": 68,
                    "time": 76.95000000000148,
                    "velocity": 0.25984251968503935,
                    "duration": 0.07500000000000284
                },
                {
                    "name": "G#4",
                    "midi": 68,
                    "time": 77.10000000000149,
                    "velocity": 0.23622047244094488,
                    "duration": 0.07500000000000284
                },
                {
                    "name": "C#5",
                    "midi": 73,
                    "time": 77.10000000000149,
                    "velocity": 0.28346456692913385,
                    "duration": 0.07500000000000284
                },
                {
                    "name": "F5",
                    "midi": 77,
                    "time": 77.10000000000149,
                    "velocity": 0.23622047244094488,
                    "duration": 0.07500000000000284
                },
                {
                    "name": "G#4",
                    "midi": 68,
                    "time": 77.25000000000149,
                    "velocity": 0.23622047244094488,
                    "duration": 0.07500000000000284
                },
                {
                    "name": "C5",
                    "midi": 72,
                    "time": 77.25000000000149,
                    "velocity": 0.28346456692913385,
                    "duration": 0.07500000000000284
                },
                {
                    "name": "F5",
                    "midi": 77,
                    "time": 77.25000000000149,
                    "velocity": 0.23622047244094488,
                    "duration": 0.07500000000000284
                },
                {
                    "name": "F5",
                    "midi": 77,
                    "time": 77.4000000000015,
                    "velocity": 0.25984251968503935,
                    "duration": 0.07500000000000284
                },
                {
                    "name": "B4",
                    "midi": 71,
                    "time": 77.4000000000015,
                    "velocity": 0.30708661417322836,
                    "duration": 0.07500000000000284
                },
                {
                    "name": "G#4",
                    "midi": 68,
                    "time": 77.4000000000015,
                    "velocity": 0.25984251968503935,
                    "duration": 0.07500000000000284
                },
                {
                    "name": "G#4",
                    "midi": 68,
                    "time": 77.5500000000015,
                    "velocity": 0.23622047244094488,
                    "duration": 0.07500000000000284
                },
                {
                    "name": "F5",
                    "midi": 77,
                    "time": 77.5500000000015,
                    "velocity": 0.23622047244094488,
                    "duration": 0.07500000000000284
                },
                {
                    "name": "D5",
                    "midi": 74,
                    "time": 77.5500000000015,
                    "velocity": 0.28346456692913385,
                    "duration": 0.07500000000000284
                },
                {
                    "name": "F5",
                    "midi": 77,
                    "time": 77.70000000000151,
                    "velocity": 0.25984251968503935,
                    "duration": 0.15000000000000568
                },
                {
                    "name": "C#5",
                    "midi": 73,
                    "time": 77.70000000000151,
                    "velocity": 0.30708661417322836,
                    "duration": 0.07500000000000284
                },
                {
                    "name": "G#4",
                    "midi": 68,
                    "time": 77.70000000000151,
                    "velocity": 0.25984251968503935,
                    "duration": 0.15000000000000568
                },
                {
                    "name": "C5",
                    "midi": 72,
                    "time": 77.77500000000151,
                    "velocity": 0.28346456692913385,
                    "duration": 0.07500000000000284
                },
                {
                    "name": "B4",
                    "midi": 71,
                    "time": 77.85000000000151,
                    "velocity": 0.28346456692913385,
                    "duration": 0.15000000000000568
                },
                {
                    "name": "B4",
                    "midi": 71,
                    "time": 78.15000000000153,
                    "velocity": 0.25984251968503935,
                    "duration": 0.07500000000000284
                },
                {
                    "name": "F5",
                    "midi": 77,
                    "time": 78.15000000000153,
                    "velocity": 0.30708661417322836,
                    "duration": 0.07500000000000284
                },
                {
                    "name": "G#5",
                    "midi": 80,
                    "time": 78.15000000000153,
                    "velocity": 0.25984251968503935,
                    "duration": 0.07500000000000284
                },
                {
                    "name": "E5",
                    "midi": 76,
                    "time": 78.30000000000153,
                    "velocity": 0.28346456692913385,
                    "duration": 0.07500000000000284
                },
                {
                    "name": "B4",
                    "midi": 71,
                    "time": 78.30000000000153,
                    "velocity": 0.23622047244094488,
                    "duration": 0.07500000000000284
                },
                {
                    "name": "G#5",
                    "midi": 80,
                    "time": 78.30000000000153,
                    "velocity": 0.23622047244094488,
                    "duration": 0.07500000000000284
                },
                {
                    "name": "G#5",
                    "midi": 80,
                    "time": 78.45000000000154,
                    "velocity": 0.23622047244094488,
                    "duration": 0.07500000000000284
                },
                {
                    "name": "D#5",
                    "midi": 75,
                    "time": 78.45000000000154,
                    "velocity": 0.28346456692913385,
                    "duration": 0.07500000000000284
                },
                {
                    "name": "B4",
                    "midi": 71,
                    "time": 78.45000000000154,
                    "velocity": 0.23622047244094488,
                    "duration": 0.07500000000000284
                },
                {
                    "name": "D5",
                    "midi": 74,
                    "time": 78.60000000000154,
                    "velocity": 0.30708661417322836,
                    "duration": 0.07500000000000284
                },
                {
                    "name": "G#5",
                    "midi": 80,
                    "time": 78.60000000000154,
                    "velocity": 0.25984251968503935,
                    "duration": 0.07500000000000284
                },
                {
                    "name": "B4",
                    "midi": 71,
                    "time": 78.60000000000154,
                    "velocity": 0.25984251968503935,
                    "duration": 0.07500000000000284
                },
                {
                    "name": "G#5",
                    "midi": 80,
                    "time": 78.75000000000155,
                    "velocity": 0.28346456692913385,
                    "duration": 0.07500000000000284
                },
                {
                    "name": "D5",
                    "midi": 74,
                    "time": 78.75000000000155,
                    "velocity": 0.23622047244094488,
                    "duration": 0.07500000000000284
                },
                {
                    "name": "B5",
                    "midi": 83,
                    "time": 78.75000000000155,
                    "velocity": 0.23622047244094488,
                    "duration": 0.07500000000000284
                },
                {
                    "name": "G5",
                    "midi": 79,
                    "time": 78.90000000000155,
                    "velocity": 0.30708661417322836,
                    "duration": 0.07500000000000284
                },
                {
                    "name": "D5",
                    "midi": 74,
                    "time": 78.90000000000155,
                    "velocity": 0.25984251968503935,
                    "duration": 0.15000000000000568
                },
                {
                    "name": "B5",
                    "midi": 83,
                    "time": 78.90000000000155,
                    "velocity": 0.25984251968503935,
                    "duration": 0.15000000000000568
                },
                {
                    "name": "F#5",
                    "midi": 78,
                    "time": 78.97500000000156,
                    "velocity": 0.28346456692913385,
                    "duration": 0.07500000000000284
                },
                {
                    "name": "F5",
                    "midi": 77,
                    "time": 79.05000000000156,
                    "velocity": 0.28346456692913385,
                    "duration": 0.15000000000000568
                },
                {
                    "name": "F5",
                    "midi": 77,
                    "time": 79.20000000000157,
                    "velocity": 0.29133858267716534,
                    "duration": 0.29999999999999716
                },
                {
                    "name": "D6",
                    "midi": 86,
                    "time": 79.20000000000157,
                    "velocity": 0.29133858267716534,
                    "duration": 0.29999999999999716
                },
                {
                    "name": "F6",
                    "midi": 89,
                    "time": 79.50000000000156,
                    "velocity": 0.2992125984251969,
                    "duration": 0.29999999999999716
                },
                {
                    "name": "G#5",
                    "midi": 80,
                    "time": 79.50000000000156,
                    "velocity": 0.2992125984251969,
                    "duration": 0.29999999999999716
                },
                {
                    "name": "B5",
                    "midi": 83,
                    "time": 79.80000000000156,
                    "velocity": 0.30708661417322836,
                    "duration": 0.29999999999999716
                },
                {
                    "name": "G#6",
                    "midi": 92,
                    "time": 79.80000000000156,
                    "velocity": 0.30708661417322836,
                    "duration": 0.29999999999999716
                },
                {
                    "name": "D6",
                    "midi": 86,
                    "time": 80.10000000000156,
                    "velocity": 0.29133858267716534,
                    "duration": 0.29999999999999716
                },
                {
                    "name": "B6",
                    "midi": 95,
                    "time": 80.10000000000156,
                    "velocity": 0.29133858267716534,
                    "duration": 0.29999999999999716
                },
                {
                    "name": "F6",
                    "midi": 89,
                    "time": 80.40000000000155,
                    "velocity": 0.3779527559055118,
                    "duration": 0.29999999999999716
                },
                {
                    "name": "D7",
                    "midi": 98,
                    "time": 80.40000000000155,
                    "velocity": 0.3779527559055118,
                    "duration": 0.29999999999999716
                },
                {
                    "name": "D7",
                    "midi": 98,
                    "time": 80.70000000000155,
                    "velocity": 0.3543307086614173,
                    "duration": 0.29999999999999716
                },
                {
                    "name": "F6",
                    "midi": 89,
                    "time": 80.70000000000155,
                    "velocity": 0.3543307086614173,
                    "duration": 0.29999999999999716
                },
                {
                    "name": "D7",
                    "midi": 98,
                    "time": 81.00000000000155,
                    "velocity": 0.3858267716535433,
                    "duration": 0.29999999999999716
                },
                {
                    "name": "F6",
                    "midi": 89,
                    "time": 81.00000000000155,
                    "velocity": 0.3858267716535433,
                    "duration": 0.29999999999999716
                },
                {
                    "name": "F6",
                    "midi": 89,
                    "time": 81.30000000000155,
                    "velocity": 0.3543307086614173,
                    "duration": 0.29999999999999716
                },
                {
                    "name": "D7",
                    "midi": 98,
                    "time": 81.30000000000155,
                    "velocity": 0.3543307086614173,
                    "duration": 0.29999999999999716
                },
                {
                    "name": "F5",
                    "midi": 77,
                    "time": 86.40000000000154,
                    "velocity": 0.2047244094488189,
                    "duration": 0.07500000000000284
                },
                {
                    "name": "F#5",
                    "midi": 78,
                    "time": 86.47500000000154,
                    "velocity": 0.18110236220472442,
                    "duration": 0.07500000000000284
                },
                {
                    "name": "F5",
                    "midi": 77,
                    "time": 86.55000000000155,
                    "velocity": 0.2047244094488189,
                    "duration": 0.07500000000000284
                },
                {
                    "name": "F#5",
                    "midi": 78,
                    "time": 86.62500000000155,
                    "velocity": 0.18110236220472442,
                    "duration": 0.07500000000000284
                },
                {
                    "name": "A#4",
                    "midi": 70,
                    "time": 86.70000000000155,
                    "velocity": 0.25984251968503935,
                    "duration": 0.15000000000000568
                },
                {
                    "name": "E5",
                    "midi": 76,
                    "time": 86.70000000000155,
                    "velocity": 0.2047244094488189,
                    "duration": 0.07500000000000284
                },
                {
                    "name": "F#5",
                    "midi": 78,
                    "time": 86.77500000000155,
                    "velocity": 0.18110236220472442,
                    "duration": 0.07500000000000284
                },
                {
                    "name": "E5",
                    "midi": 76,
                    "time": 86.85000000000156,
                    "velocity": 0.23622047244094488,
                    "duration": 0.07500000000000284
                },
                {
                    "name": "B4",
                    "midi": 71,
                    "time": 86.85000000000156,
                    "velocity": 0.23622047244094488,
                    "duration": 0.15000000000000568
                },
                {
                    "name": "F#5",
                    "midi": 78,
                    "time": 86.92500000000156,
                    "velocity": 0.18110236220472442,
                    "duration": 0.07500000000000284
                },
                {
                    "name": "E5",
                    "midi": 76,
                    "time": 87.00000000000156,
                    "velocity": 0.2047244094488189,
                    "duration": 0.07500000000000284
                },
                {
                    "name": "C5",
                    "midi": 72,
                    "time": 87.00000000000156,
                    "velocity": 0.2755905511811024,
                    "duration": 0.15000000000000568
                },
                {
                    "name": "F#5",
                    "midi": 78,
                    "time": 87.07500000000157,
                    "velocity": 0.18110236220472442,
                    "duration": 0.07500000000000284
                },
                {
                    "name": "E5",
                    "midi": 76,
                    "time": 87.15000000000157,
                    "velocity": 0.2047244094488189,
                    "duration": 0.07500000000000284
                },
                {
                    "name": "C#5",
                    "midi": 73,
                    "time": 87.15000000000157,
                    "velocity": 0.2440944881889764,
                    "duration": 0.15000000000000568
                },
                {
                    "name": "F#5",
                    "midi": 78,
                    "time": 87.22500000000157,
                    "velocity": 0.18110236220472442,
                    "duration": 0.07500000000000284
                },
                {
                    "name": "C#5",
                    "midi": 73,
                    "time": 87.30000000000157,
                    "velocity": 0.28346456692913385,
                    "duration": 0.15000000000000568
                },
                {
                    "name": "E5",
                    "midi": 76,
                    "time": 87.30000000000157,
                    "velocity": 0.2047244094488189,
                    "duration": 0.07500000000000284
                },
                {
                    "name": "F#5",
                    "midi": 78,
                    "time": 87.37500000000158,
                    "velocity": 0.18110236220472442,
                    "duration": 0.07500000000000284
                },
                {
                    "name": "E5",
                    "midi": 76,
                    "time": 87.45000000000158,
                    "velocity": 0.2047244094488189,
                    "duration": 0.07500000000000284
                },
                {
                    "name": "D5",
                    "midi": 74,
                    "time": 87.45000000000158,
                    "velocity": 0.2440944881889764,
                    "duration": 0.15000000000000568
                },
                {
                    "name": "F#5",
                    "midi": 78,
                    "time": 87.52500000000158,
                    "velocity": 0.18110236220472442,
                    "duration": 0.07500000000000284
                },
                {
                    "name": "C#5",
                    "midi": 73,
                    "time": 87.60000000000159,
                    "velocity": 0.2125984251968504,
                    "duration": 0.07500000000000284
                },
                {
                    "name": "E5",
                    "midi": 76,
                    "time": 87.60000000000159,
                    "velocity": 0.2125984251968504,
                    "duration": 0.07500000000000284
                },
                {
                    "name": "F#5",
                    "midi": 78,
                    "time": 87.67500000000159,
                    "velocity": 0.18110236220472442,
                    "duration": 0.07500000000000284
                },
                {
                    "name": "E5",
                    "midi": 76,
                    "time": 87.75000000000159,
                    "velocity": 0.18110236220472442,
                    "duration": 0.07500000000000284
                },
                {
                    "name": "C#6",
                    "midi": 85,
                    "time": 87.75000000000159,
                    "velocity": 0.3700787401574803,
                    "duration": 0.07500000000000284
                },
                {
                    "name": "F#5",
                    "midi": 78,
                    "time": 87.8250000000016,
                    "velocity": 0.14960629921259844,
                    "duration": 0.07500000000000284
                },
                {
                    "name": "C#5",
                    "midi": 73,
                    "time": 87.8250000000016,
                    "velocity": 0.14960629921259844,
                    "duration": 0.07500000000000284
                },
                {
                    "name": "E5",
                    "midi": 76,
                    "time": 87.9000000000016,
                    "velocity": 0.1889763779527559,
                    "duration": 0.07500000000000284
                },
                {
                    "name": "B5",
                    "midi": 83,
                    "time": 87.9000000000016,
                    "velocity": 0.3700787401574803,
                    "duration": 0.07500000000000284
                },
                {
                    "name": "F#5",
                    "midi": 78,
                    "time": 87.9750000000016,
                    "velocity": 0.14960629921259844,
                    "duration": 0.07500000000000284
                },
                {
                    "name": "C#5",
                    "midi": 73,
                    "time": 87.9750000000016,
                    "velocity": 0.14960629921259844,
                    "duration": 0.07500000000000284
                },
                {
                    "name": "E5",
                    "midi": 76,
                    "time": 88.0500000000016,
                    "velocity": 0.1889763779527559,
                    "duration": 0.07500000000000284
                },
                {
                    "name": "A5",
                    "midi": 81,
                    "time": 88.0500000000016,
                    "velocity": 0.33070866141732286,
                    "duration": 0.07500000000000284
                },
                {
                    "name": "F#5",
                    "midi": 78,
                    "time": 88.1250000000016,
                    "velocity": 0.15748031496062992,
                    "duration": 0.07500000000000284
                },
                {
                    "name": "C#5",
                    "midi": 73,
                    "time": 88.1250000000016,
                    "velocity": 0.15748031496062992,
                    "duration": 0.07500000000000284
                },
                {
                    "name": "D5",
                    "midi": 74,
                    "time": 88.20000000000161,
                    "velocity": 0.1968503937007874,
                    "duration": 0.07500000000000284
                },
                {
                    "name": "A5",
                    "midi": 81,
                    "time": 88.20000000000161,
                    "velocity": 0.3700787401574803,
                    "duration": 0.07500000000000284
                },
                {
                    "name": "B4",
                    "midi": 71,
                    "time": 88.27500000000161,
                    "velocity": 0.16535433070866143,
                    "duration": 0.07500000000000284
                },
                {
                    "name": "E5",
                    "midi": 76,
                    "time": 88.27500000000161,
                    "velocity": 0.16535433070866143,
                    "duration": 0.07500000000000284
                },
                {
                    "name": "D5",
                    "midi": 74,
                    "time": 88.35000000000161,
                    "velocity": 0.1889763779527559,
                    "duration": 0.07500000000000284
                },
                {
                    "name": "G#5",
                    "midi": 80,
                    "time": 88.35000000000161,
                    "velocity": 0.33858267716535434,
                    "duration": 0.07500000000000284
                },
                {
                    "name": "E5",
                    "midi": 76,
                    "time": 88.42500000000162,
                    "velocity": 0.14960629921259844,
                    "duration": 0.07500000000000284
                },
                {
                    "name": "B4",
                    "midi": 71,
                    "time": 88.42500000000162,
                    "velocity": 0.14960629921259844,
                    "duration": 0.07500000000000284
                },
                {
                    "name": "D5",
                    "midi": 74,
                    "time": 88.50000000000162,
                    "velocity": 0.1889763779527559,
                    "duration": 0.07500000000000284
                },
                {
                    "name": "G5",
                    "midi": 79,
                    "time": 88.50000000000162,
                    "velocity": 0.3700787401574803,
                    "duration": 0.07500000000000284
                },
                {
                    "name": "B4",
                    "midi": 71,
                    "time": 88.57500000000162,
                    "velocity": 0.14173228346456693,
                    "duration": 0.07500000000000284
                },
                {
                    "name": "F#5",
                    "midi": 78,
                    "time": 88.57500000000162,
                    "velocity": 0.2992125984251969,
                    "duration": 0.07500000000000284
                },
                {
                    "name": "F5",
                    "midi": 77,
                    "time": 88.65000000000163,
                    "velocity": 0.3700787401574803,
                    "duration": 0.07500000000000284
                },
                {
                    "name": "D5",
                    "midi": 74,
                    "time": 88.65000000000163,
                    "velocity": 0.18110236220472442,
                    "duration": 0.07500000000000284
                },
                {
                    "name": "B4",
                    "midi": 71,
                    "time": 88.72500000000163,
                    "velocity": 0.14960629921259844,
                    "duration": 0.07500000000000284
                },
                {
                    "name": "C#5",
                    "midi": 73,
                    "time": 88.80000000000163,
                    "velocity": 0.1889763779527559,
                    "duration": 0.07500000000000284
                },
                {
                    "name": "E5",
                    "midi": 76,
                    "time": 88.80000000000163,
                    "velocity": 0.3700787401574803,
                    "duration": 0.07500000000000284
                },
                {
                    "name": "A4",
                    "midi": 69,
                    "time": 88.87500000000163,
                    "velocity": 0.1732283464566929,
                    "duration": 0.07500000000000284
                },
                {
                    "name": "C#5",
                    "midi": 73,
                    "time": 88.95000000000164,
                    "velocity": 0.1732283464566929,
                    "duration": 0.07500000000000284
                },
                {
                    "name": "F#5",
                    "midi": 78,
                    "time": 89.02500000000164,
                    "velocity": 0.1732283464566929,
                    "duration": 0.07500000000000284
                },
                {
                    "name": "A#4",
                    "midi": 70,
                    "time": 89.10000000000164,
                    "velocity": 0.25984251968503935,
                    "duration": 0.15000000000000568
                },
                {
                    "name": "E5",
                    "midi": 76,
                    "time": 89.10000000000164,
                    "velocity": 0.2047244094488189,
                    "duration": 0.07500000000000284
                },
                {
                    "name": "F#5",
                    "midi": 78,
                    "time": 89.17500000000165,
                    "velocity": 0.18110236220472442,
                    "duration": 0.07500000000000284
                },
                {
                    "name": "B4",
                    "midi": 71,
                    "time": 89.25000000000165,
                    "velocity": 0.23622047244094488,
                    "duration": 0.15000000000000568
                },
                {
                    "name": "E5",
                    "midi": 76,
                    "time": 89.25000000000165,
                    "velocity": 0.23622047244094488,
                    "duration": 0.07500000000000284
                },
                {
                    "name": "F#5",
                    "midi": 78,
                    "time": 89.32500000000165,
                    "velocity": 0.18110236220472442,
                    "duration": 0.07500000000000284
                },
                {
                    "name": "E5",
                    "midi": 76,
                    "time": 89.40000000000165,
                    "velocity": 0.2047244094488189,
                    "duration": 0.07500000000000284
                },
                {
                    "name": "C5",
                    "midi": 72,
                    "time": 89.40000000000165,
                    "velocity": 0.2755905511811024,
                    "duration": 0.15000000000000568
                },
                {
                    "name": "F#5",
                    "midi": 78,
                    "time": 89.47500000000166,
                    "velocity": 0.18110236220472442,
                    "duration": 0.07500000000000284
                },
                {
                    "name": "E5",
                    "midi": 76,
                    "time": 89.55000000000166,
                    "velocity": 0.2047244094488189,
                    "duration": 0.07500000000000284
                },
                {
                    "name": "C#5",
                    "midi": 73,
                    "time": 89.55000000000166,
                    "velocity": 0.2440944881889764,
                    "duration": 0.15000000000000568
                },
                {
                    "name": "F#5",
                    "midi": 78,
                    "time": 89.62500000000166,
                    "velocity": 0.18110236220472442,
                    "duration": 0.07500000000000284
                },
                {
                    "name": "C#5",
                    "midi": 73,
                    "time": 89.70000000000167,
                    "velocity": 0.28346456692913385,
                    "duration": 0.15000000000000568
                },
                {
                    "name": "E5",
                    "midi": 76,
                    "time": 89.70000000000167,
                    "velocity": 0.2047244094488189,
                    "duration": 0.07500000000000284
                },
                {
                    "name": "F#5",
                    "midi": 78,
                    "time": 89.77500000000167,
                    "velocity": 0.18110236220472442,
                    "duration": 0.07500000000000284
                },
                {
                    "name": "D5",
                    "midi": 74,
                    "time": 89.85000000000167,
                    "velocity": 0.2440944881889764,
                    "duration": 0.15000000000000568
                },
                {
                    "name": "E5",
                    "midi": 76,
                    "time": 89.85000000000167,
                    "velocity": 0.2047244094488189,
                    "duration": 0.07500000000000284
                },
                {
                    "name": "F#5",
                    "midi": 78,
                    "time": 89.92500000000167,
                    "velocity": 0.18110236220472442,
                    "duration": 0.07500000000000284
                },
                {
                    "name": "C#5",
                    "midi": 73,
                    "time": 90.00000000000168,
                    "velocity": 0.2125984251968504,
                    "duration": 0.07500000000000284
                },
                {
                    "name": "E5",
                    "midi": 76,
                    "time": 90.00000000000168,
                    "velocity": 0.2125984251968504,
                    "duration": 0.07500000000000284
                },
                {
                    "name": "F#5",
                    "midi": 78,
                    "time": 90.07500000000168,
                    "velocity": 0.18110236220472442,
                    "duration": 0.07500000000000284
                },
                {
                    "name": "C#6",
                    "midi": 85,
                    "time": 90.15000000000168,
                    "velocity": 0.4015748031496063,
                    "duration": 0.07500000000000284
                },
                {
                    "name": "E5",
                    "midi": 76,
                    "time": 90.15000000000168,
                    "velocity": 0.18110236220472442,
                    "duration": 0.07500000000000284
                },
                {
                    "name": "F#5",
                    "midi": 78,
                    "time": 90.22500000000169,
                    "velocity": 0.14960629921259844,
                    "duration": 0.07500000000000284
                },
                {
                    "name": "C#5",
                    "midi": 73,
                    "time": 90.22500000000169,
                    "velocity": 0.14960629921259844,
                    "duration": 0.07500000000000284
                },
                {
                    "name": "E5",
                    "midi": 76,
                    "time": 90.30000000000169,
                    "velocity": 0.1889763779527559,
                    "duration": 0.07500000000000284
                },
                {
                    "name": "B5",
                    "midi": 83,
                    "time": 90.30000000000169,
                    "velocity": 0.4015748031496063,
                    "duration": 0.07500000000000284
                },
                {
                    "name": "F#5",
                    "midi": 78,
                    "time": 90.37500000000169,
                    "velocity": 0.14960629921259844,
                    "duration": 0.07500000000000284
                },
                {
                    "name": "C#5",
                    "midi": 73,
                    "time": 90.37500000000169,
                    "velocity": 0.14960629921259844,
                    "duration": 0.07500000000000284
                },
                {
                    "name": "E5",
                    "midi": 76,
                    "time": 90.4500000000017,
                    "velocity": 0.1889763779527559,
                    "duration": 0.07500000000000284
                },
                {
                    "name": "A5",
                    "midi": 81,
                    "time": 90.4500000000017,
                    "velocity": 0.3858267716535433,
                    "duration": 0.07500000000000284
                },
                {
                    "name": "C#5",
                    "midi": 73,
                    "time": 90.5250000000017,
                    "velocity": 0.15748031496062992,
                    "duration": 0.07500000000000284
                },
                {
                    "name": "F#5",
                    "midi": 78,
                    "time": 90.5250000000017,
                    "velocity": 0.15748031496062992,
                    "duration": 0.07500000000000284
                },
                {
                    "name": "D5",
                    "midi": 74,
                    "time": 90.6000000000017,
                    "velocity": 0.1968503937007874,
                    "duration": 0.07500000000000284
                },
                {
                    "name": "A5",
                    "midi": 81,
                    "time": 90.6000000000017,
                    "velocity": 0.4015748031496063,
                    "duration": 0.07500000000000284
                },
                {
                    "name": "B4",
                    "midi": 71,
                    "time": 90.6750000000017,
                    "velocity": 0.16535433070866143,
                    "duration": 0.07500000000000284
                },
                {
                    "name": "E5",
                    "midi": 76,
                    "time": 90.6750000000017,
                    "velocity": 0.16535433070866143,
                    "duration": 0.07500000000000284
                },
                {
                    "name": "D5",
                    "midi": 74,
                    "time": 90.7500000000017,
                    "velocity": 0.1889763779527559,
                    "duration": 0.07500000000000284
                },
                {
                    "name": "G#5",
                    "midi": 80,
                    "time": 90.7500000000017,
                    "velocity": 0.3858267716535433,
                    "duration": 0.07500000000000284
                },
                {
                    "name": "E5",
                    "midi": 76,
                    "time": 90.82500000000171,
                    "velocity": 0.14960629921259844,
                    "duration": 0.07500000000000284
                },
                {
                    "name": "B4",
                    "midi": 71,
                    "time": 90.82500000000171,
                    "velocity": 0.14960629921259844,
                    "duration": 0.07500000000000284
                },
                {
                    "name": "D5",
                    "midi": 74,
                    "time": 90.90000000000171,
                    "velocity": 0.1889763779527559,
                    "duration": 0.07500000000000284
                },
                {
                    "name": "G5",
                    "midi": 79,
                    "time": 90.90000000000171,
                    "velocity": 0.4015748031496063,
                    "duration": 0.07500000000000284
                },
                {
                    "name": "B4",
                    "midi": 71,
                    "time": 90.97500000000171,
                    "velocity": 0.14173228346456693,
                    "duration": 0.07500000000000284
                },
                {
                    "name": "F#5",
                    "midi": 78,
                    "time": 90.97500000000171,
                    "velocity": 0.25196850393700787,
                    "duration": 0.07500000000000284
                },
                {
                    "name": "F5",
                    "midi": 77,
                    "time": 91.05000000000172,
                    "velocity": 0.4015748031496063,
                    "duration": 0.07500000000000284
                },
                {
                    "name": "D5",
                    "midi": 74,
                    "time": 91.05000000000172,
                    "velocity": 0.18110236220472442,
                    "duration": 0.07500000000000284
                },
                {
                    "name": "B4",
                    "midi": 71,
                    "time": 91.12500000000172,
                    "velocity": 0.18110236220472442,
                    "duration": 0.07500000000000284
                },
                {
                    "name": "E5",
                    "midi": 76,
                    "time": 91.20000000000172,
                    "velocity": 0.4015748031496063,
                    "duration": 0.07500000000000284
                },
                {
                    "name": "C#5",
                    "midi": 73,
                    "time": 91.20000000000172,
                    "velocity": 0.2283464566929134,
                    "duration": 0.07500000000000284
                },
                {
                    "name": "A4",
                    "midi": 69,
                    "time": 91.27500000000173,
                    "velocity": 0.1732283464566929,
                    "duration": 0.07500000000000284
                },
                {
                    "name": "C#5",
                    "midi": 73,
                    "time": 91.35000000000173,
                    "velocity": 0.1732283464566929,
                    "duration": 0.07500000000000284
                },
                {
                    "name": "G#5",
                    "midi": 80,
                    "time": 91.42500000000173,
                    "velocity": 0.1732283464566929,
                    "duration": 0.07500000000000284
                },
                {
                    "name": "A5",
                    "midi": 81,
                    "time": 91.50000000000173,
                    "velocity": 0.2047244094488189,
                    "duration": 0.07500000000000284
                },
                {
                    "name": "D#5",
                    "midi": 75,
                    "time": 91.50000000000173,
                    "velocity": 0.25984251968503935,
                    "duration": 0.15000000000000568
                },
                {
                    "name": "A#5",
                    "midi": 82,
                    "time": 91.57500000000174,
                    "velocity": 0.18110236220472442,
                    "duration": 0.07500000000000284
                },
                {
                    "name": "E5",
                    "midi": 76,
                    "time": 91.65000000000174,
                    "velocity": 0.23622047244094488,
                    "duration": 0.15000000000000568
                },
                {
                    "name": "A5",
                    "midi": 81,
                    "time": 91.65000000000174,
                    "velocity": 0.23622047244094488,
                    "duration": 0.07500000000000284
                },
                {
                    "name": "A#5",
                    "midi": 82,
                    "time": 91.72500000000174,
                    "velocity": 0.18110236220472442,
                    "duration": 0.07500000000000284
                },
                {
                    "name": "A5",
                    "midi": 81,
                    "time": 91.80000000000175,
                    "velocity": 0.2047244094488189,
                    "duration": 0.07500000000000284
                },
                {
                    "name": "E5",
                    "midi": 76,
                    "time": 91.80000000000175,
                    "velocity": 0.2755905511811024,
                    "duration": 0.15000000000000568
                },
                {
                    "name": "A#5",
                    "midi": 82,
                    "time": 91.87500000000175,
                    "velocity": 0.18110236220472442,
                    "duration": 0.07500000000000284
                },
                {
                    "name": "F5",
                    "midi": 77,
                    "time": 91.95000000000175,
                    "velocity": 0.2440944881889764,
                    "duration": 0.15000000000000568
                },
                {
                    "name": "A5",
                    "midi": 81,
                    "time": 91.95000000000175,
                    "velocity": 0.2047244094488189,
                    "duration": 0.07500000000000284
                },
                {
                    "name": "A#5",
                    "midi": 82,
                    "time": 92.02500000000175,
                    "velocity": 0.18110236220472442,
                    "duration": 0.07500000000000284
                },
                {
                    "name": "A5",
                    "midi": 81,
                    "time": 92.10000000000176,
                    "velocity": 0.2047244094488189,
                    "duration": 0.07500000000000284
                },
                {
                    "name": "F#5",
                    "midi": 78,
                    "time": 92.10000000000176,
                    "velocity": 0.28346456692913385,
                    "duration": 0.15000000000000568
                },
                {
                    "name": "A#5",
                    "midi": 82,
                    "time": 92.17500000000176,
                    "velocity": 0.18110236220472442,
                    "duration": 0.07500000000000284
                },
                {
                    "name": "G5",
                    "midi": 79,
                    "time": 92.25000000000176,
                    "velocity": 0.2440944881889764,
                    "duration": 0.15000000000000568
                },
                {
                    "name": "A5",
                    "midi": 81,
                    "time": 92.25000000000176,
                    "velocity": 0.2047244094488189,
                    "duration": 0.07500000000000284
                },
                {
                    "name": "A#5",
                    "midi": 82,
                    "time": 92.32500000000176,
                    "velocity": 0.18110236220472442,
                    "duration": 0.07500000000000284
                },
                {
                    "name": "A5",
                    "midi": 81,
                    "time": 92.40000000000177,
                    "velocity": 0.2125984251968504,
                    "duration": 0.07500000000000284
                },
                {
                    "name": "F5",
                    "midi": 77,
                    "time": 92.40000000000177,
                    "velocity": 0.2125984251968504,
                    "duration": 0.07500000000000284
                },
                {
                    "name": "A#5",
                    "midi": 82,
                    "time": 92.47500000000177,
                    "velocity": 0.18110236220472442,
                    "duration": 0.07500000000000284
                },
                {
                    "name": "F6",
                    "midi": 89,
                    "time": 92.55000000000177,
                    "velocity": 0.4409448818897638,
                    "duration": 0.07500000000000284
                },
                {
                    "name": "A5",
                    "midi": 81,
                    "time": 92.55000000000177,
                    "velocity": 0.18110236220472442,
                    "duration": 0.07500000000000284
                },
                {
                    "name": "A#5",
                    "midi": 82,
                    "time": 92.62500000000178,
                    "velocity": 0.14960629921259844,
                    "duration": 0.07500000000000284
                },
                {
                    "name": "F5",
                    "midi": 77,
                    "time": 92.62500000000178,
                    "velocity": 0.14960629921259844,
                    "duration": 0.07500000000000284
                },
                {
                    "name": "E6",
                    "midi": 88,
                    "time": 92.70000000000178,
                    "velocity": 0.4409448818897638,
                    "duration": 0.07500000000000284
                },
                {
                    "name": "A5",
                    "midi": 81,
                    "time": 92.70000000000178,
                    "velocity": 0.1889763779527559,
                    "duration": 0.07500000000000284
                },
                {
                    "name": "F5",
                    "midi": 77,
                    "time": 92.77500000000178,
                    "velocity": 0.14960629921259844,
                    "duration": 0.07500000000000284
                },
                {
                    "name": "A#5",
                    "midi": 82,
                    "time": 92.77500000000178,
                    "velocity": 0.14960629921259844,
                    "duration": 0.07500000000000284
                },
                {
                    "name": "A5",
                    "midi": 81,
                    "time": 92.85000000000178,
                    "velocity": 0.1889763779527559,
                    "duration": 0.07500000000000284
                },
                {
                    "name": "D6",
                    "midi": 86,
                    "time": 92.85000000000178,
                    "velocity": 0.4094488188976378,
                    "duration": 0.07500000000000284
                },
                {
                    "name": "A#5",
                    "midi": 82,
                    "time": 92.92500000000179,
                    "velocity": 0.1889763779527559,
                    "duration": 0.07500000000000284
                },
                {
                    "name": "F5",
                    "midi": 77,
                    "time": 92.92500000000179,
                    "velocity": 0.15748031496062992,
                    "duration": 0.07500000000000284
                },
                {
                    "name": "D6",
                    "midi": 86,
                    "time": 93.00000000000179,
                    "velocity": 0.4409448818897638,
                    "duration": 0.07500000000000284
                },
                {
                    "name": "G5",
                    "midi": 79,
                    "time": 93.00000000000179,
                    "velocity": 0.1968503937007874,
                    "duration": 0.07500000000000284
                },
                {
                    "name": "A5",
                    "midi": 81,
                    "time": 93.0750000000018,
                    "velocity": 0.16535433070866143,
                    "duration": 0.07500000000000284
                },
                {
                    "name": "E5",
                    "midi": 76,
                    "time": 93.0750000000018,
                    "velocity": 0.16535433070866143,
                    "duration": 0.07500000000000284
                },
                {
                    "name": "C#6",
                    "midi": 85,
                    "time": 93.1500000000018,
                    "velocity": 0.4094488188976378,
                    "duration": 0.07500000000000284
                },
                {
                    "name": "G5",
                    "midi": 79,
                    "time": 93.1500000000018,
                    "velocity": 0.1889763779527559,
                    "duration": 0.07500000000000284
                },
                {
                    "name": "E5",
                    "midi": 76,
                    "time": 93.2250000000018,
                    "velocity": 0.14960629921259844,
                    "duration": 0.07500000000000284
                },
                {
                    "name": "A5",
                    "midi": 81,
                    "time": 93.2250000000018,
                    "velocity": 0.14960629921259844,
                    "duration": 0.07500000000000284
                },
                {
                    "name": "G5",
                    "midi": 79,
                    "time": 93.3000000000018,
                    "velocity": 0.1889763779527559,
                    "duration": 0.07500000000000284
                },
                {
                    "name": "C6",
                    "midi": 84,
                    "time": 93.3000000000018,
                    "velocity": 0.4409448818897638,
                    "duration": 0.07500000000000284
                },
                {
                    "name": "B5",
                    "midi": 83,
                    "time": 93.3750000000018,
                    "velocity": 0.36220472440944884,
                    "duration": 0.07500000000000284
                },
                {
                    "name": "E5",
                    "midi": 76,
                    "time": 93.3750000000018,
                    "velocity": 0.14173228346456693,
                    "duration": 0.07500000000000284
                },
                {
                    "name": "A#5",
                    "midi": 82,
                    "time": 93.45000000000181,
                    "velocity": 0.3858267716535433,
                    "duration": 0.07500000000000284
                },
                {
                    "name": "G5",
                    "midi": 79,
                    "time": 93.45000000000181,
                    "velocity": 0.18110236220472442,
                    "duration": 0.07500000000000284
                },
                {
                    "name": "E5",
                    "midi": 76,
                    "time": 93.52500000000181,
                    "velocity": 0.14960629921259844,
                    "duration": 0.07500000000000284
                },
                {
                    "name": "F5",
                    "midi": 77,
                    "time": 93.60000000000181,
                    "velocity": 0.2283464566929134,
                    "duration": 0.07500000000000284
                },
                {
                    "name": "A5",
                    "midi": 81,
                    "time": 93.60000000000181,
                    "velocity": 0.4409448818897638,
                    "duration": 0.07500000000000284
                },
                {
                    "name": "D5",
                    "midi": 74,
                    "time": 93.67500000000182,
                    "velocity": 0.1732283464566929,
                    "duration": 0.07500000000000284
                },
                {
                    "name": "F5",
                    "midi": 77,
                    "time": 93.75000000000182,
                    "velocity": 0.1732283464566929,
                    "duration": 0.07500000000000284
                },
                {
                    "name": "A#5",
                    "midi": 82,
                    "time": 93.82500000000182,
                    "velocity": 0.1732283464566929,
                    "duration": 0.07500000000000284
                },
                {
                    "name": "D#5",
                    "midi": 75,
                    "time": 93.90000000000182,
                    "velocity": 0.25984251968503935,
                    "duration": 0.15000000000000568
                },
                {
                    "name": "A5",
                    "midi": 81,
                    "time": 93.90000000000182,
                    "velocity": 0.2047244094488189,
                    "duration": 0.07500000000000284
                },
                {
                    "name": "A#5",
                    "midi": 82,
                    "time": 93.97500000000183,
                    "velocity": 0.18110236220472442,
                    "duration": 0.07500000000000284
                },
                {
                    "name": "A5",
                    "midi": 81,
                    "time": 94.05000000000183,
                    "velocity": 0.23622047244094488,
                    "duration": 0.07500000000000284
                },
                {
                    "name": "E5",
                    "midi": 76,
                    "time": 94.05000000000183,
                    "velocity": 0.23622047244094488,
                    "duration": 0.15000000000000568
                },
                {
                    "name": "A#5",
                    "midi": 82,
                    "time": 94.12500000000183,
                    "velocity": 0.18110236220472442,
                    "duration": 0.07500000000000284
                },
                {
                    "name": "E5",
                    "midi": 76,
                    "time": 94.20000000000184,
                    "velocity": 0.2755905511811024,
                    "duration": 0.15000000000000568
                },
                {
                    "name": "A5",
                    "midi": 81,
                    "time": 94.20000000000184,
                    "velocity": 0.2047244094488189,
                    "duration": 0.07500000000000284
                },
                {
                    "name": "A#5",
                    "midi": 82,
                    "time": 94.27500000000184,
                    "velocity": 0.18110236220472442,
                    "duration": 0.07500000000000284
                },
                {
                    "name": "F5",
                    "midi": 77,
                    "time": 94.35000000000184,
                    "velocity": 0.2440944881889764,
                    "duration": 0.15000000000000568
                },
                {
                    "name": "A5",
                    "midi": 81,
                    "time": 94.35000000000184,
                    "velocity": 0.2047244094488189,
                    "duration": 0.07500000000000284
                },
                {
                    "name": "A#5",
                    "midi": 82,
                    "time": 94.42500000000184,
                    "velocity": 0.18110236220472442,
                    "duration": 0.07500000000000284
                },
                {
                    "name": "F#5",
                    "midi": 78,
                    "time": 94.50000000000185,
                    "velocity": 0.28346456692913385,
                    "duration": 0.15000000000000568
                },
                {
                    "name": "A5",
                    "midi": 81,
                    "time": 94.50000000000185,
                    "velocity": 0.2047244094488189,
                    "duration": 0.07500000000000284
                },
                {
                    "name": "A#5",
                    "midi": 82,
                    "time": 94.57500000000185,
                    "velocity": 0.18110236220472442,
                    "duration": 0.07500000000000284
                },
                {
                    "name": "A5",
                    "midi": 81,
                    "time": 94.65000000000185,
                    "velocity": 0.2047244094488189,
                    "duration": 0.07500000000000284
                },
                {
                    "name": "G5",
                    "midi": 79,
                    "time": 94.65000000000185,
                    "velocity": 0.2440944881889764,
                    "duration": 0.15000000000000568
                },
                {
                    "name": "A#5",
                    "midi": 82,
                    "time": 94.72500000000186,
                    "velocity": 0.18110236220472442,
                    "duration": 0.07500000000000284
                },
                {
                    "name": "F5",
                    "midi": 77,
                    "time": 94.80000000000186,
                    "velocity": 0.2125984251968504,
                    "duration": 0.07500000000000284
                },
                {
                    "name": "A5",
                    "midi": 81,
                    "time": 94.80000000000186,
                    "velocity": 0.2125984251968504,
                    "duration": 0.07500000000000284
                },
                {
                    "name": "A#5",
                    "midi": 82,
                    "time": 94.87500000000186,
                    "velocity": 0.18110236220472442,
                    "duration": 0.07500000000000284
                },
                {
                    "name": "F6",
                    "midi": 89,
                    "time": 94.95000000000186,
                    "velocity": 0.4015748031496063,
                    "duration": 0.07500000000000284
                },
                {
                    "name": "A5",
                    "midi": 81,
                    "time": 94.95000000000186,
                    "velocity": 0.18110236220472442,
                    "duration": 0.07500000000000284
                },
                {
                    "name": "A#5",
                    "midi": 82,
                    "time": 95.02500000000187,
                    "velocity": 0.14960629921259844,
                    "duration": 0.07500000000000284
                },
                {
                    "name": "F5",
                    "midi": 77,
                    "time": 95.02500000000187,
                    "velocity": 0.14960629921259844,
                    "duration": 0.07500000000000284
                },
                {
                    "name": "A5",
                    "midi": 81,
                    "time": 95.10000000000187,
                    "velocity": 0.1889763779527559,
                    "duration": 0.07500000000000284
                },
                {
                    "name": "E6",
                    "midi": 88,
                    "time": 95.10000000000187,
                    "velocity": 0.4015748031496063,
                    "duration": 0.07500000000000284
                },
                {
                    "name": "A#5",
                    "midi": 82,
                    "time": 95.17500000000187,
                    "velocity": 0.14960629921259844,
                    "duration": 0.07500000000000284
                },
                {
                    "name": "F5",
                    "midi": 77,
                    "time": 95.17500000000187,
                    "velocity": 0.14960629921259844,
                    "duration": 0.07500000000000284
                },
                {
                    "name": "D6",
                    "midi": 86,
                    "time": 95.25000000000188,
                    "velocity": 0.3858267716535433,
                    "duration": 0.07500000000000284
                },
                {
                    "name": "A5",
                    "midi": 81,
                    "time": 95.25000000000188,
                    "velocity": 0.1889763779527559,
                    "duration": 0.07500000000000284
                },
                {
                    "name": "A#5",
                    "midi": 82,
                    "time": 95.32500000000188,
                    "velocity": 0.15748031496062992,
                    "duration": 0.07500000000000284
                },
                {
                    "name": "F5",
                    "midi": 77,
                    "time": 95.32500000000188,
                    "velocity": 0.15748031496062992,
                    "duration": 0.07500000000000284
                },
                {
                    "name": "D6",
                    "midi": 86,
                    "time": 95.40000000000188,
                    "velocity": 0.4015748031496063,
                    "duration": 0.07500000000000284
                },
                {
                    "name": "G5",
                    "midi": 79,
                    "time": 95.40000000000188,
                    "velocity": 0.1968503937007874,
                    "duration": 0.07500000000000284
                },
                {
                    "name": "E5",
                    "midi": 76,
                    "time": 95.47500000000188,
                    "velocity": 0.16535433070866143,
                    "duration": 0.07500000000000284
                },
                {
                    "name": "A5",
                    "midi": 81,
                    "time": 95.47500000000188,
                    "velocity": 0.16535433070866143,
                    "duration": 0.07500000000000284
                },
                {
                    "name": "C#6",
                    "midi": 85,
                    "time": 95.55000000000189,
                    "velocity": 0.3858267716535433,
                    "duration": 0.07500000000000284
                },
                {
                    "name": "G5",
                    "midi": 79,
                    "time": 95.55000000000189,
                    "velocity": 0.1889763779527559,
                    "duration": 0.07500000000000284
                },
                {
                    "name": "E5",
                    "midi": 76,
                    "time": 95.62500000000189,
                    "velocity": 0.14960629921259844,
                    "duration": 0.07500000000000284
                },
                {
                    "name": "A5",
                    "midi": 81,
                    "time": 95.62500000000189,
                    "velocity": 0.18110236220472442,
                    "duration": 0.07500000000000284
                },
                {
                    "name": "G5",
                    "midi": 79,
                    "time": 95.70000000000189,
                    "velocity": 0.1889763779527559,
                    "duration": 0.07500000000000284
                },
                {
                    "name": "C6",
                    "midi": 84,
                    "time": 95.70000000000189,
                    "velocity": 0.4015748031496063,
                    "duration": 0.07500000000000284
                },
                {
                    "name": "B5",
                    "midi": 83,
                    "time": 95.7750000000019,
                    "velocity": 0.33858267716535434,
                    "duration": 0.07500000000000284
                },
                {
                    "name": "E5",
                    "midi": 76,
                    "time": 95.7750000000019,
                    "velocity": 0.14173228346456693,
                    "duration": 0.07500000000000284
                },
                {
                    "name": "A#5",
                    "midi": 82,
                    "time": 95.8500000000019,
                    "velocity": 0.4015748031496063,
                    "duration": 0.07500000000000284
                },
                {
                    "name": "G5",
                    "midi": 79,
                    "time": 95.8500000000019,
                    "velocity": 0.18110236220472442,
                    "duration": 0.07500000000000284
                },
                {
                    "name": "E5",
                    "midi": 76,
                    "time": 95.9250000000019,
                    "velocity": 0.14960629921259844,
                    "duration": 0.07500000000000284
                },
                {
                    "name": "F5",
                    "midi": 77,
                    "time": 96.0000000000019,
                    "velocity": 0.2283464566929134,
                    "duration": 0.07500000000000284
                },
                {
                    "name": "A5",
                    "midi": 81,
                    "time": 96.0000000000019,
                    "velocity": 0.4015748031496063,
                    "duration": 0.07500000000000284
                },
                {
                    "name": "D5",
                    "midi": 74,
                    "time": 96.0750000000019,
                    "velocity": 0.1732283464566929,
                    "duration": 0.07500000000000284
                },
                {
                    "name": "F5",
                    "midi": 77,
                    "time": 96.15000000000191,
                    "velocity": 0.1732283464566929,
                    "duration": 0.07500000000000284
                },
                {
                    "name": "D6",
                    "midi": 86,
                    "time": 96.22500000000191,
                    "velocity": 0.1732283464566929,
                    "duration": 0.07500000000000284
                },
                {
                    "name": "F6",
                    "midi": 89,
                    "time": 96.30000000000192,
                    "velocity": 0.3543307086614173,
                    "duration": 0.15000000000000568
                },
                {
                    "name": "F5",
                    "midi": 77,
                    "time": 96.30000000000192,
                    "velocity": 0.29133858267716534,
                    "duration": 0.07500000000000284
                },
                {
                    "name": "D6",
                    "midi": 86,
                    "time": 96.37500000000192,
                    "velocity": 0.28346456692913385,
                    "duration": 0.07500000000000284
                },
                {
                    "name": "C6",
                    "midi": 84,
                    "time": 96.37500000000192,
                    "velocity": 0.2283464566929134,
                    "duration": 0.07500000000000284
                },
                {
                    "name": "F6",
                    "midi": 89,
                    "time": 96.45000000000192,
                    "velocity": 0.2992125984251969,
                    "duration": 0.07500000000000284
                },
                {
                    "name": "F5",
                    "midi": 77,
                    "time": 96.45000000000192,
                    "velocity": 0.2440944881889764,
                    "duration": 0.07500000000000284
                },
                {
                    "name": "C6",
                    "midi": 84,
                    "time": 96.52500000000192,
                    "velocity": 0.2283464566929134,
                    "duration": 0.07500000000000284
                },
                {
                    "name": "D#6",
                    "midi": 87,
                    "time": 96.52500000000192,
                    "velocity": 0.28346456692913385,
                    "duration": 0.07500000000000284
                },
                {
                    "name": "D#6",
                    "midi": 87,
                    "time": 96.60000000000193,
                    "velocity": 0.3779527559055118,
                    "duration": 0.15000000000000568
                },
                {
                    "name": "F5",
                    "midi": 77,
                    "time": 96.60000000000193,
                    "velocity": 0.30708661417322836,
                    "duration": 0.07500000000000284
                },
                {
                    "name": "C#6",
                    "midi": 85,
                    "time": 96.67500000000193,
                    "velocity": 0.2755905511811024,
                    "duration": 0.07500000000000284
                },
                {
                    "name": "A#5",
                    "midi": 82,
                    "time": 96.67500000000193,
                    "velocity": 0.2204724409448819,
                    "duration": 0.07500000000000284
                },
                {
                    "name": "D#6",
                    "midi": 87,
                    "time": 96.75000000000193,
                    "velocity": 0.2992125984251969,
                    "duration": 0.07500000000000284
                },
                {
                    "name": "F5",
                    "midi": 77,
                    "time": 96.75000000000193,
                    "velocity": 0.2440944881889764,
                    "duration": 0.07500000000000284
                },
                {
                    "name": "A#5",
                    "midi": 82,
                    "time": 96.82500000000194,
                    "velocity": 0.2283464566929134,
                    "duration": 0.07500000000000284
                },
                {
                    "name": "D6",
                    "midi": 86,
                    "time": 96.82500000000194,
                    "velocity": 0.28346456692913385,
                    "duration": 0.07500000000000284
                },
                {
                    "name": "D6",
                    "midi": 86,
                    "time": 96.90000000000194,
                    "velocity": 0.3543307086614173,
                    "duration": 0.15000000000000568
                },
                {
                    "name": "D#5",
                    "midi": 75,
                    "time": 96.90000000000194,
                    "velocity": 0.3543307086614173,
                    "duration": 0.07500000000000284
                },
                {
                    "name": "B5",
                    "midi": 83,
                    "time": 96.97500000000194,
                    "velocity": 0.25984251968503935,
                    "duration": 0.07500000000000284
                },
                {
                    "name": "A5",
                    "midi": 81,
                    "time": 96.97500000000194,
                    "velocity": 0.2125984251968504,
                    "duration": 0.07500000000000284
                },
                {
                    "name": "D#5",
                    "midi": 75,
                    "time": 97.05000000000194,
                    "velocity": 0.2440944881889764,
                    "duration": 0.07500000000000284
                },
                {
                    "name": "D6",
                    "midi": 86,
                    "time": 97.05000000000194,
                    "velocity": 0.2992125984251969,
                    "duration": 0.07500000000000284
                },
                {
                    "name": "A5",
                    "midi": 81,
                    "time": 97.12500000000195,
                    "velocity": 0.2755905511811024,
                    "duration": 0.07500000000000284
                },
                {
                    "name": "C6",
                    "midi": 84,
                    "time": 97.12500000000195,
                    "velocity": 0.2755905511811024,
                    "duration": 0.07500000000000284
                },
                {
                    "name": "C6",
                    "midi": 84,
                    "time": 97.20000000000195,
                    "velocity": 0.3543307086614173,
                    "duration": 0.15000000000000568
                },
                {
                    "name": "D5",
                    "midi": 74,
                    "time": 97.20000000000195,
                    "velocity": 0.29133858267716534,
                    "duration": 0.07500000000000284
                },
                {
                    "name": "F5",
                    "midi": 77,
                    "time": 97.27500000000195,
                    "velocity": 0.2125984251968504,
                    "duration": 0.07500000000000284
                },
                {
                    "name": "A5",
                    "midi": 81,
                    "time": 97.27500000000195,
                    "velocity": 0.25984251968503935,
                    "duration": 0.07500000000000284
                },
                {
                    "name": "C6",
                    "midi": 84,
                    "time": 97.35000000000196,
                    "velocity": 0.2992125984251969,
                    "duration": 0.07500000000000284
                },
                {
                    "name": "D5",
                    "midi": 74,
                    "time": 97.35000000000196,
                    "velocity": 0.2440944881889764,
                    "duration": 0.07500000000000284
                },
                {
                    "name": "F5",
                    "midi": 77,
                    "time": 97.42500000000196,
                    "velocity": 0.2755905511811024,
                    "duration": 0.07500000000000284
                },
                {
                    "name": "A#5",
                    "midi": 82,
                    "time": 97.42500000000196,
                    "velocity": 0.2755905511811024,
                    "duration": 0.07500000000000284
                },
                {
                    "name": "C5",
                    "midi": 72,
                    "time": 97.50000000000196,
                    "velocity": 0.2755905511811024,
                    "duration": 0.07500000000000284
                },
                {
                    "name": "B5",
                    "midi": 83,
                    "time": 97.50000000000196,
                    "velocity": 0.33070866141732286,
                    "duration": 0.15000000000000568
                },
                {
                    "name": "G#5",
                    "midi": 80,
                    "time": 97.57500000000196,
                    "velocity": 0.25984251968503935,
                    "duration": 0.07500000000000284
                },
                {
                    "name": "F#5",
                    "midi": 78,
                    "time": 97.57500000000196,
                    "velocity": 0.25984251968503935,
                    "duration": 0.07500000000000284
                },
                {
                    "name": "C5",
                    "midi": 72,
                    "time": 97.65000000000197,
                    "velocity": 0.2283464566929134,
                    "duration": 0.07500000000000284
                },
                {
                    "name": "B5",
                    "midi": 83,
                    "time": 97.65000000000197,
                    "velocity": 0.28346456692913385,
                    "duration": 0.07500000000000284
                },
                {
                    "name": "F#5",
                    "midi": 78,
                    "time": 97.72500000000197,
                    "velocity": 0.25196850393700787,
                    "duration": 0.07500000000000284
                },
                {
                    "name": "A5",
                    "midi": 81,
                    "time": 97.72500000000197,
                    "velocity": 0.25196850393700787,
                    "duration": 0.07500000000000284
                },
                {
                    "name": "A5",
                    "midi": 81,
                    "time": 97.80000000000197,
                    "velocity": 0.3228346456692913,
                    "duration": 0.15000000000000568
                },
                {
                    "name": "B4",
                    "midi": 71,
                    "time": 97.80000000000197,
                    "velocity": 0.2755905511811024,
                    "duration": 0.07500000000000284
                },
                {
                    "name": "G5",
                    "midi": 79,
                    "time": 97.87500000000198,
                    "velocity": 0.25196850393700787,
                    "duration": 0.07500000000000284
                },
                {
                    "name": "E5",
                    "midi": 76,
                    "time": 97.87500000000198,
                    "velocity": 0.2125984251968504,
                    "duration": 0.07500000000000284
                },
                {
                    "name": "B4",
                    "midi": 71,
                    "time": 97.95000000000198,
                    "velocity": 0.2283464566929134,
                    "duration": 0.07500000000000284
                },
                {
                    "name": "A5",
                    "midi": 81,
                    "time": 97.95000000000198,
                    "velocity": 0.28346456692913385,
                    "duration": 0.07500000000000284
                },
                {
                    "name": "G#5",
                    "midi": 80,
                    "time": 98.02500000000198,
                    "velocity": 0.2440944881889764,
                    "duration": 0.07500000000000284
                },
                {
                    "name": "E5",
                    "midi": 76,
                    "time": 98.02500000000198,
                    "velocity": 0.2047244094488189,
                    "duration": 0.07500000000000284
                },
                {
                    "name": "A4",
                    "midi": 69,
                    "time": 98.10000000000198,
                    "velocity": 0.2755905511811024,
                    "duration": 0.07500000000000284
                },
                {
                    "name": "G#5",
                    "midi": 80,
                    "time": 98.10000000000198,
                    "velocity": 0.3228346456692913,
                    "duration": 0.15000000000000568
                },
                {
                    "name": "F5",
                    "midi": 77,
                    "time": 98.17500000000199,
                    "velocity": 0.2440944881889764,
                    "duration": 0.07500000000000284
                },
                {
                    "name": "D#5",
                    "midi": 75,
                    "time": 98.17500000000199,
                    "velocity": 0.2047244094488189,
                    "duration": 0.07500000000000284
                },
                {
                    "name": "A4",
                    "midi": 69,
                    "time": 98.25000000000199,
                    "velocity": 0.2283464566929134,
                    "duration": 0.07500000000000284
                },
                {
                    "name": "G#5",
                    "midi": 80,
                    "time": 98.25000000000199,
                    "velocity": 0.28346456692913385,
                    "duration": 0.07500000000000284
                },
                {
                    "name": "F#5",
                    "midi": 78,
                    "time": 98.32500000000199,
                    "velocity": 0.2440944881889764,
                    "duration": 0.07500000000000284
                },
                {
                    "name": "D#5",
                    "midi": 75,
                    "time": 98.32500000000199,
                    "velocity": 0.2047244094488189,
                    "duration": 0.07500000000000284
                },
                {
                    "name": "F#5",
                    "midi": 78,
                    "time": 98.400000000002,
                    "velocity": 0.2992125984251969,
                    "duration": 0.15000000000000568
                },
                {
                    "name": "G#4",
                    "midi": 68,
                    "time": 98.400000000002,
                    "velocity": 0.25196850393700787,
                    "duration": 0.07500000000000284
                },
                {
                    "name": "D#5",
                    "midi": 75,
                    "time": 98.475000000002,
                    "velocity": 0.2283464566929134,
                    "duration": 0.07500000000000284
                },
                {
                    "name": "B4",
                    "midi": 71,
                    "time": 98.475000000002,
                    "velocity": 0.1889763779527559,
                    "duration": 0.07500000000000284
                },
                {
                    "name": "G#4",
                    "midi": 68,
                    "time": 98.550000000002,
                    "velocity": 0.2283464566929134,
                    "duration": 0.07500000000000284
                },
                {
                    "name": "F#5",
                    "midi": 78,
                    "time": 98.550000000002,
                    "velocity": 0.28346456692913385,
                    "duration": 0.07500000000000284
                },
                {
                    "name": "E5",
                    "midi": 76,
                    "time": 98.625000000002,
                    "velocity": 0.23622047244094488,
                    "duration": 0.07500000000000284
                },
                {
                    "name": "B4",
                    "midi": 71,
                    "time": 98.625000000002,
                    "velocity": 0.1968503937007874,
                    "duration": 0.07500000000000284
                },
                {
                    "name": "C5",
                    "midi": 72,
                    "time": 98.700000000002,
                    "velocity": 0.2204724409448819,
                    "duration": 0.15000000000000568
                },
                {
                    "name": "E5",
                    "midi": 76,
                    "time": 98.700000000002,
                    "velocity": 0.25984251968503935,
                    "duration": 0.07500000000000284
                },
                {
                    "name": "D5",
                    "midi": 74,
                    "time": 98.77500000000201,
                    "velocity": 0.2204724409448819,
                    "duration": 0.07500000000000284
                },
                {
                    "name": "E5",
                    "midi": 76,
                    "time": 98.85000000000201,
                    "velocity": 0.25984251968503935,
                    "duration": 0.07500000000000284
                },
                {
                    "name": "A4",
                    "midi": 69,
                    "time": 98.85000000000201,
                    "velocity": 0.2204724409448819,
                    "duration": 0.15000000000000568
                },
                {
                    "name": "D#5",
                    "midi": 75,
                    "time": 98.92500000000202,
                    "velocity": 0.2204724409448819,
                    "duration": 0.07500000000000284
                },
                {
                    "name": "D5",
                    "midi": 74,
                    "time": 99.00000000000202,
                    "velocity": 0.2047244094488189,
                    "duration": 0.15000000000000568
                },
                {
                    "name": "F#5",
                    "midi": 78,
                    "time": 99.00000000000202,
                    "velocity": 0.2440944881889764,
                    "duration": 0.07500000000000284
                },
                {
                    "name": "D#5",
                    "midi": 75,
                    "time": 99.07500000000202,
                    "velocity": 0.2125984251968504,
                    "duration": 0.07500000000000284
                },
                {
                    "name": "B4",
                    "midi": 71,
                    "time": 99.15000000000202,
                    "velocity": 0.2125984251968504,
                    "duration": 0.15000000000000568
                },
                {
                    "name": "F#5",
                    "midi": 78,
                    "time": 99.15000000000202,
                    "velocity": 0.25196850393700787,
                    "duration": 0.07500000000000284
                },
                {
                    "name": "E5",
                    "midi": 76,
                    "time": 99.22500000000203,
                    "velocity": 0.1968503937007874,
                    "duration": 0.07500000000000284
                },
                {
                    "name": "E5",
                    "midi": 76,
                    "time": 99.30000000000203,
                    "velocity": 0.23622047244094488,
                    "duration": 0.07500000000000284
                },
                {
                    "name": "A4",
                    "midi": 69,
                    "time": 99.30000000000203,
                    "velocity": 0.1968503937007874,
                    "duration": 0.07500000000000284
                },
                {
                    "name": "D5",
                    "midi": 74,
                    "time": 99.37500000000203,
                    "velocity": 0.2047244094488189,
                    "duration": 0.07500000000000284
                },
                {
                    "name": "E5",
                    "midi": 76,
                    "time": 99.45000000000203,
                    "velocity": 0.2440944881889764,
                    "duration": 0.07500000000000284
                },
                {
                    "name": "D#5",
                    "midi": 75,
                    "time": 99.52500000000204,
                    "velocity": 0.2047244094488189,
                    "duration": 0.07500000000000284
                },
                {
                    "name": "F#5",
                    "midi": 78,
                    "time": 99.60000000000204,
                    "velocity": 0.25196850393700787,
                    "duration": 0.07500000000000284
                },
                {
                    "name": "B4",
                    "midi": 71,
                    "time": 99.60000000000204,
                    "velocity": 0.2125984251968504,
                    "duration": 0.07500000000000284
                },
                {
                    "name": "E5",
                    "midi": 76,
                    "time": 99.67500000000204,
                    "velocity": 0.2204724409448819,
                    "duration": 0.07500000000000284
                },
                {
                    "name": "F#5",
                    "midi": 78,
                    "time": 99.75000000000205,
                    "velocity": 0.2440944881889764,
                    "duration": 0.07500000000000284
                },
                {
                    "name": "F5",
                    "midi": 77,
                    "time": 99.82500000000205,
                    "velocity": 0.2204724409448819,
                    "duration": 0.07500000000000284
                },
                {
                    "name": "E5",
                    "midi": 76,
                    "time": 99.90000000000205,
                    "velocity": 0.25984251968503935,
                    "duration": 0.07500000000000284
                },
                {
                    "name": "F#5",
                    "midi": 78,
                    "time": 99.97500000000205,
                    "velocity": 0.23622047244094488,
                    "duration": 0.07500000000000284
                },
                {
                    "name": "E5",
                    "midi": 76,
                    "time": 100.05000000000206,
                    "velocity": 0.25984251968503935,
                    "duration": 0.07500000000000284
                },
                {
                    "name": "F#6",
                    "midi": 90,
                    "time": 100.12500000000206,
                    "velocity": 0.30708661417322836,
                    "duration": 0.07500000000000284
                },
                {
                    "name": "E6",
                    "midi": 88,
                    "time": 100.20000000000206,
                    "velocity": 0.30708661417322836,
                    "duration": 0.07500000000000284
                },
                {
                    "name": "F#5",
                    "midi": 78,
                    "time": 100.27500000000207,
                    "velocity": 0.25984251968503935,
                    "duration": 0.07500000000000284
                },
                {
                    "name": "E5",
                    "midi": 76,
                    "time": 100.35000000000207,
                    "velocity": 0.25984251968503935,
                    "duration": 0.07500000000000284
                },
                {
                    "name": "F#4",
                    "midi": 66,
                    "time": 100.42500000000207,
                    "velocity": 0.23622047244094488,
                    "duration": 0.07500000000000284
                },
                {
                    "name": "E4",
                    "midi": 64,
                    "time": 100.50000000000207,
                    "velocity": 0.25984251968503935,
                    "duration": 0.07500000000000284
                },
                {
                    "name": "F#4",
                    "midi": 66,
                    "time": 100.57500000000208,
                    "velocity": 0.2283464566929134,
                    "duration": 0.07500000000000284
                },
                {
                    "name": "E4",
                    "midi": 64,
                    "time": 100.65000000000208,
                    "velocity": 0.25984251968503935,
                    "duration": 0.07500000000000284
                },
                {
                    "name": "F#5",
                    "midi": 78,
                    "time": 100.72500000000208,
                    "velocity": 0.25196850393700787,
                    "duration": 0.07500000000000284
                },
                {
                    "name": "E5",
                    "midi": 76,
                    "time": 100.80000000000209,
                    "velocity": 0.2125984251968504,
                    "duration": 0.07500000000000284
                },
                {
                    "name": "F#5",
                    "midi": 78,
                    "time": 100.87500000000209,
                    "velocity": 0.18110236220472442,
                    "duration": 0.07500000000000284
                },
                {
                    "name": "C#5",
                    "midi": 73,
                    "time": 100.87500000000209,
                    "velocity": 0.18110236220472442,
                    "duration": 0.07500000000000284
                },
                {
                    "name": "C#6",
                    "midi": 85,
                    "time": 100.95000000000209,
                    "velocity": 0.4015748031496063,
                    "duration": 0.07500000000000284
                },
                {
                    "name": "E5",
                    "midi": 76,
                    "time": 100.95000000000209,
                    "velocity": 0.2204724409448819,
                    "duration": 0.07500000000000284
                },
                {
                    "name": "C#5",
                    "midi": 73,
                    "time": 101.0250000000021,
                    "velocity": 0.18110236220472442,
                    "duration": 0.07500000000000284
                },
                {
                    "name": "F#5",
                    "midi": 78,
                    "time": 101.0250000000021,
                    "velocity": 0.18110236220472442,
                    "duration": 0.07500000000000284
                },
                {
                    "name": "B5",
                    "midi": 83,
                    "time": 101.1000000000021,
                    "velocity": 0.4015748031496063,
                    "duration": 0.07500000000000284
                },
                {
                    "name": "E5",
                    "midi": 76,
                    "time": 101.1000000000021,
                    "velocity": 0.2283464566929134,
                    "duration": 0.07500000000000284
                },
                {
                    "name": "C#5",
                    "midi": 73,
                    "time": 101.1750000000021,
                    "velocity": 0.18110236220472442,
                    "duration": 0.07500000000000284
                },
                {
                    "name": "F#5",
                    "midi": 78,
                    "time": 101.1750000000021,
                    "velocity": 0.18110236220472442,
                    "duration": 0.07500000000000284
                },
                {
                    "name": "A5",
                    "midi": 81,
                    "time": 101.2500000000021,
                    "velocity": 0.3858267716535433,
                    "duration": 0.07500000000000284
                },
                {
                    "name": "E5",
                    "midi": 76,
                    "time": 101.2500000000021,
                    "velocity": 0.2283464566929134,
                    "duration": 0.07500000000000284
                },
                {
                    "name": "C#5",
                    "midi": 73,
                    "time": 101.3250000000021,
                    "velocity": 0.1889763779527559,
                    "duration": 0.07500000000000284
                },
                {
                    "name": "F#5",
                    "midi": 78,
                    "time": 101.3250000000021,
                    "velocity": 0.1889763779527559,
                    "duration": 0.07500000000000284
                },
                {
                    "name": "A5",
                    "midi": 81,
                    "time": 101.40000000000211,
                    "velocity": 0.4015748031496063,
                    "duration": 0.07500000000000284
                },
                {
                    "name": "D5",
                    "midi": 74,
                    "time": 101.40000000000211,
                    "velocity": 0.23622047244094488,
                    "duration": 0.07500000000000284
                },
                {
                    "name": "B4",
                    "midi": 71,
                    "time": 101.47500000000211,
                    "velocity": 0.1968503937007874,
                    "duration": 0.07500000000000284
                },
                {
                    "name": "E5",
                    "midi": 76,
                    "time": 101.47500000000211,
                    "velocity": 0.1968503937007874,
                    "duration": 0.07500000000000284
                },
                {
                    "name": "D5",
                    "midi": 74,
                    "time": 101.55000000000211,
                    "velocity": 0.2283464566929134,
                    "duration": 0.07500000000000284
                },
                {
                    "name": "G#5",
                    "midi": 80,
                    "time": 101.55000000000211,
                    "velocity": 0.33070866141732286,
                    "duration": 0.07500000000000284
                },
                {
                    "name": "B4",
                    "midi": 71,
                    "time": 101.62500000000212,
                    "velocity": 0.18110236220472442,
                    "duration": 0.07500000000000284
                },
                {
                    "name": "E5",
                    "midi": 76,
                    "time": 101.62500000000212,
                    "velocity": 0.18110236220472442,
                    "duration": 0.07500000000000284
                },
                {
                    "name": "G5",
                    "midi": 79,
                    "time": 101.70000000000212,
                    "velocity": 0.3543307086614173,
                    "duration": 0.07500000000000284
                },
                {
                    "name": "D5",
                    "midi": 74,
                    "time": 101.70000000000212,
                    "velocity": 0.2283464566929134,
                    "duration": 0.07500000000000284
                },
                {
                    "name": "B4",
                    "midi": 71,
                    "time": 101.77500000000212,
                    "velocity": 0.1732283464566929,
                    "duration": 0.07500000000000284
                },
                {
                    "name": "F#5",
                    "midi": 78,
                    "time": 101.77500000000212,
                    "velocity": 0.3228346456692913,
                    "duration": 0.07500000000000284
                },
                {
                    "name": "F5",
                    "midi": 77,
                    "time": 101.85000000000213,
                    "velocity": 0.4015748031496063,
                    "duration": 0.07500000000000284
                },
                {
                    "name": "D5",
                    "midi": 74,
                    "time": 101.85000000000213,
                    "velocity": 0.2204724409448819,
                    "duration": 0.07500000000000284
                },
                {
                    "name": "B4",
                    "midi": 71,
                    "time": 101.92500000000213,
                    "velocity": 0.18110236220472442,
                    "duration": 0.07500000000000284
                },
                {
                    "name": "E5",
                    "midi": 76,
                    "time": 102.00000000000213,
                    "velocity": 0.4015748031496063,
                    "duration": 0.07500000000000284
                },
                {
                    "name": "C#5",
                    "midi": 73,
                    "time": 102.00000000000213,
                    "velocity": 0.2283464566929134,
                    "duration": 0.07500000000000284
                },
                {
                    "name": "A4",
                    "midi": 69,
                    "time": 102.07500000000213,
                    "velocity": 0.1732283464566929,
                    "duration": 0.07500000000000284
                },
                {
                    "name": "C#5",
                    "midi": 73,
                    "time": 102.15000000000214,
                    "velocity": 0.1732283464566929,
                    "duration": 0.07500000000000284
                },
                {
                    "name": "F#5",
                    "midi": 78,
                    "time": 102.22500000000214,
                    "velocity": 0.1732283464566929,
                    "duration": 0.07500000000000284
                },
                {
                    "name": "E5",
                    "midi": 76,
                    "time": 102.30000000000214,
                    "velocity": 0.25984251968503935,
                    "duration": 0.07500000000000284
                },
                {
                    "name": "F#5",
                    "midi": 78,
                    "time": 102.37500000000215,
                    "velocity": 0.23622047244094488,
                    "duration": 0.07500000000000284
                },
                {
                    "name": "E5",
                    "midi": 76,
                    "time": 102.45000000000215,
                    "velocity": 0.25984251968503935,
                    "duration": 0.07500000000000284
                },
                {
                    "name": "F#6",
                    "midi": 90,
                    "time": 102.52500000000215,
                    "velocity": 0.30708661417322836,
                    "duration": 0.07500000000000284
                },
                {
                    "name": "E6",
                    "midi": 88,
                    "time": 102.60000000000215,
                    "velocity": 0.30708661417322836,
                    "duration": 0.07500000000000284
                },
                {
                    "name": "F#5",
                    "midi": 78,
                    "time": 102.67500000000216,
                    "velocity": 0.25984251968503935,
                    "duration": 0.07500000000000284
                },
                {
                    "name": "E5",
                    "midi": 76,
                    "time": 102.75000000000216,
                    "velocity": 0.23622047244094488,
                    "duration": 0.07500000000000284
                },
                {
                    "name": "F#4",
                    "midi": 66,
                    "time": 102.82500000000216,
                    "velocity": 0.25984251968503935,
                    "duration": 0.07500000000000284
                },
                {
                    "name": "E4",
                    "midi": 64,
                    "time": 102.90000000000217,
                    "velocity": 0.23622047244094488,
                    "duration": 0.14499999999999602
                },
                {
                    "name": "F#4",
                    "midi": 66,
                    "time": 102.97500000000217,
                    "velocity": 0.25984251968503935,
                    "duration": 0.07499999999998863
                },
                {
                    "name": "E4",
                    "midi": 64,
                    "time": 103.05000000000216,
                    "velocity": 0.23622047244094488,
                    "duration": 0.07500000000000284
                },
                {
                    "name": "F#5",
                    "midi": 78,
                    "time": 103.12500000000216,
                    "velocity": 0.25984251968503935,
                    "duration": 0.07500000000000284
                },
                {
                    "name": "E5",
                    "midi": 76,
                    "time": 103.20000000000216,
                    "velocity": 0.2125984251968504,
                    "duration": 0.07500000000000284
                },
                {
                    "name": "F#5",
                    "midi": 78,
                    "time": 103.27500000000217,
                    "velocity": 0.18110236220472442,
                    "duration": 0.07500000000000284
                },
                {
                    "name": "C#5",
                    "midi": 73,
                    "time": 103.27500000000217,
                    "velocity": 0.18110236220472442,
                    "duration": 0.07500000000000284
                },
                {
                    "name": "C#6",
                    "midi": 85,
                    "time": 103.35000000000217,
                    "velocity": 0.4015748031496063,
                    "duration": 0.07500000000000284
                },
                {
                    "name": "E5",
                    "midi": 76,
                    "time": 103.35000000000217,
                    "velocity": 0.2204724409448819,
                    "duration": 0.07500000000000284
                },
                {
                    "name": "F#5",
                    "midi": 78,
                    "time": 103.42500000000217,
                    "velocity": 0.18110236220472442,
                    "duration": 0.07500000000000284
                },
                {
                    "name": "C#5",
                    "midi": 73,
                    "time": 103.42500000000217,
                    "velocity": 0.18110236220472442,
                    "duration": 0.07500000000000284
                },
                {
                    "name": "E5",
                    "midi": 76,
                    "time": 103.50000000000217,
                    "velocity": 0.2283464566929134,
                    "duration": 0.07500000000000284
                },
                {
                    "name": "B5",
                    "midi": 83,
                    "time": 103.50000000000217,
                    "velocity": 0.4015748031496063,
                    "duration": 0.07500000000000284
                },
                {
                    "name": "F#5",
                    "midi": 78,
                    "time": 103.57500000000218,
                    "velocity": 0.18110236220472442,
                    "duration": 0.07500000000000284
                },
                {
                    "name": "C#5",
                    "midi": 73,
                    "time": 103.57500000000218,
                    "velocity": 0.18110236220472442,
                    "duration": 0.07500000000000284
                },
                {
                    "name": "E5",
                    "midi": 76,
                    "time": 103.65000000000218,
                    "velocity": 0.2283464566929134,
                    "duration": 0.07500000000000284
                },
                {
                    "name": "A5",
                    "midi": 81,
                    "time": 103.65000000000218,
                    "velocity": 0.3779527559055118,
                    "duration": 0.07500000000000284
                },
                {
                    "name": "F#5",
                    "midi": 78,
                    "time": 103.72500000000218,
                    "velocity": 0.1889763779527559,
                    "duration": 0.07500000000000284
                },
                {
                    "name": "C#5",
                    "midi": 73,
                    "time": 103.72500000000218,
                    "velocity": 0.1889763779527559,
                    "duration": 0.07500000000000284
                },
                {
                    "name": "A5",
                    "midi": 81,
                    "time": 103.80000000000219,
                    "velocity": 0.4015748031496063,
                    "duration": 0.07500000000000284
                },
                {
                    "name": "D5",
                    "midi": 74,
                    "time": 103.80000000000219,
                    "velocity": 0.23622047244094488,
                    "duration": 0.07500000000000284
                },
                {
                    "name": "B4",
                    "midi": 71,
                    "time": 103.87500000000219,
                    "velocity": 0.1968503937007874,
                    "duration": 0.07500000000000284
                },
                {
                    "name": "E5",
                    "midi": 76,
                    "time": 103.87500000000219,
                    "velocity": 0.1968503937007874,
                    "duration": 0.07500000000000284
                },
                {
                    "name": "D5",
                    "midi": 74,
                    "time": 103.95000000000219,
                    "velocity": 0.2283464566929134,
                    "duration": 0.07500000000000284
                },
                {
                    "name": "G#5",
                    "midi": 80,
                    "time": 103.95000000000219,
                    "velocity": 0.3779527559055118,
                    "duration": 0.07500000000000284
                },
                {
                    "name": "E5",
                    "midi": 76,
                    "time": 104.0250000000022,
                    "velocity": 0.18110236220472442,
                    "duration": 0.07500000000000284
                },
                {
                    "name": "B4",
                    "midi": 71,
                    "time": 104.0250000000022,
                    "velocity": 0.18110236220472442,
                    "duration": 0.07500000000000284
                },
                {
                    "name": "D5",
                    "midi": 74,
                    "time": 104.1000000000022,
                    "velocity": 0.2283464566929134,
                    "duration": 0.07500000000000284
                },
                {
                    "name": "G5",
                    "midi": 79,
                    "time": 104.1000000000022,
                    "velocity": 0.4015748031496063,
                    "duration": 0.07500000000000284
                },
                {
                    "name": "F#5",
                    "midi": 78,
                    "time": 104.1750000000022,
                    "velocity": 0.2992125984251969,
                    "duration": 0.07500000000000284
                },
                {
                    "name": "B4",
                    "midi": 71,
                    "time": 104.1750000000022,
                    "velocity": 0.1732283464566929,
                    "duration": 0.07500000000000284
                },
                {
                    "name": "F5",
                    "midi": 77,
                    "time": 104.2500000000022,
                    "velocity": 0.4015748031496063,
                    "duration": 0.07500000000000284
                },
                {
                    "name": "D5",
                    "midi": 74,
                    "time": 104.2500000000022,
                    "velocity": 0.2204724409448819,
                    "duration": 0.07500000000000284
                },
                {
                    "name": "B4",
                    "midi": 71,
                    "time": 104.3250000000022,
                    "velocity": 0.18110236220472442,
                    "duration": 0.07500000000000284
                },
                {
                    "name": "E5",
                    "midi": 76,
                    "time": 104.40000000000221,
                    "velocity": 0.4015748031496063,
                    "duration": 0.07500000000000284
                },
                {
                    "name": "C#5",
                    "midi": 73,
                    "time": 104.40000000000221,
                    "velocity": 0.2283464566929134,
                    "duration": 0.07500000000000284
                },
                {
                    "name": "A4",
                    "midi": 69,
                    "time": 104.47500000000221,
                    "velocity": 0.1732283464566929,
                    "duration": 0.07500000000000284
                },
                {
                    "name": "C#5",
                    "midi": 73,
                    "time": 104.55000000000221,
                    "velocity": 0.1732283464566929,
                    "duration": 0.07500000000000284
                },
                {
                    "name": "G#5",
                    "midi": 80,
                    "time": 104.62500000000222,
                    "velocity": 0.1968503937007874,
                    "duration": 0.07500000000000284
                },
                {
                    "name": "A5",
                    "midi": 81,
                    "time": 104.70000000000222,
                    "velocity": 0.25984251968503935,
                    "duration": 0.07500000000000284
                },
                {
                    "name": "A#5",
                    "midi": 82,
                    "time": 104.77500000000222,
                    "velocity": 0.23622047244094488,
                    "duration": 0.07500000000000284
                },
                {
                    "name": "A5",
                    "midi": 81,
                    "time": 104.85000000000223,
                    "velocity": 0.25984251968503935,
                    "duration": 0.07500000000000284
                },
                {
                    "name": "A#6",
                    "midi": 94,
                    "time": 104.92500000000223,
                    "velocity": 0.2992125984251969,
                    "duration": 0.07500000000000284
                },
                {
                    "name": "A6",
                    "midi": 93,
                    "time": 105.00000000000223,
                    "velocity": 0.2992125984251969,
                    "duration": 0.07500000000000284
                },
                {
                    "name": "A#5",
                    "midi": 82,
                    "time": 105.07500000000223,
                    "velocity": 0.25984251968503935,
                    "duration": 0.07500000000000284
                },
                {
                    "name": "A5",
                    "midi": 81,
                    "time": 105.15000000000224,
                    "velocity": 0.2440944881889764,
                    "duration": 0.07500000000000284
                },
                {
                    "name": "A#4",
                    "midi": 70,
                    "time": 105.22500000000224,
                    "velocity": 0.25984251968503935,
                    "duration": 0.07500000000000284
                },
                {
                    "name": "A4",
                    "midi": 69,
                    "time": 105.30000000000224,
                    "velocity": 0.23622047244094488,
                    "duration": 0.14374999999999716
                },
                {
                    "name": "A#4",
                    "midi": 70,
                    "time": 105.37500000000225,
                    "velocity": 0.25984251968503935,
                    "duration": 0.07499999999998863
                },
                {
                    "name": "A4",
                    "midi": 69,
                    "time": 105.45000000000223,
                    "velocity": 0.2440944881889764,
                    "duration": 0.07500000000000284
                },
                {
                    "name": "A#5",
                    "midi": 82,
                    "time": 105.52500000000224,
                    "velocity": 0.25984251968503935,
                    "duration": 0.07500000000000284
                },
                {
                    "name": "A5",
                    "midi": 81,
                    "time": 105.60000000000224,
                    "velocity": 0.2125984251968504,
                    "duration": 0.07500000000000284
                },
                {
                    "name": "F5",
                    "midi": 77,
                    "time": 105.67500000000224,
                    "velocity": 0.18110236220472442,
                    "duration": 0.07500000000000284
                },
                {
                    "name": "A#5",
                    "midi": 82,
                    "time": 105.67500000000224,
                    "velocity": 0.18110236220472442,
                    "duration": 0.07500000000000284
                },
                {
                    "name": "A5",
                    "midi": 81,
                    "time": 105.75000000000225,
                    "velocity": 0.2204724409448819,
                    "duration": 0.07500000000000284
                },
                {
                    "name": "F6",
                    "midi": 89,
                    "time": 105.75000000000225,
                    "velocity": 0.4015748031496063,
                    "duration": 0.07500000000000284
                },
                {
                    "name": "A#5",
                    "midi": 82,
                    "time": 105.82500000000225,
                    "velocity": 0.18110236220472442,
                    "duration": 0.07500000000000284
                },
                {
                    "name": "F5",
                    "midi": 77,
                    "time": 105.82500000000225,
                    "velocity": 0.18110236220472442,
                    "duration": 0.07500000000000284
                },
                {
                    "name": "A5",
                    "midi": 81,
                    "time": 105.90000000000225,
                    "velocity": 0.2283464566929134,
                    "duration": 0.07500000000000284
                },
                {
                    "name": "E6",
                    "midi": 88,
                    "time": 105.90000000000225,
                    "velocity": 0.4015748031496063,
                    "duration": 0.07500000000000284
                },
                {
                    "name": "A#5",
                    "midi": 82,
                    "time": 105.97500000000225,
                    "velocity": 0.18110236220472442,
                    "duration": 0.07500000000000284
                },
                {
                    "name": "F5",
                    "midi": 77,
                    "time": 105.97500000000225,
                    "velocity": 0.18110236220472442,
                    "duration": 0.07500000000000284
                },
                {
                    "name": "D6",
                    "midi": 86,
                    "time": 106.05000000000226,
                    "velocity": 0.3858267716535433,
                    "duration": 0.07500000000000284
                },
                {
                    "name": "A5",
                    "midi": 81,
                    "time": 106.05000000000226,
                    "velocity": 0.2283464566929134,
                    "duration": 0.07500000000000284
                },
                {
                    "name": "F5",
                    "midi": 77,
                    "time": 106.12500000000226,
                    "velocity": 0.1889763779527559,
                    "duration": 0.07500000000000284
                },
                {
                    "name": "A#5",
                    "midi": 82,
                    "time": 106.12500000000226,
                    "velocity": 0.1889763779527559,
                    "duration": 0.07500000000000284
                },
                {
                    "name": "D6",
                    "midi": 86,
                    "time": 106.20000000000226,
                    "velocity": 0.4015748031496063,
                    "duration": 0.07500000000000284
                },
                {
                    "name": "G5",
                    "midi": 79,
                    "time": 106.20000000000226,
                    "velocity": 0.23622047244094488,
                    "duration": 0.07500000000000284
                },
                {
                    "name": "A5",
                    "midi": 81,
                    "time": 106.27500000000227,
                    "velocity": 0.1968503937007874,
                    "duration": 0.07500000000000284
                },
                {
                    "name": "E5",
                    "midi": 76,
                    "time": 106.27500000000227,
                    "velocity": 0.1968503937007874,
                    "duration": 0.07500000000000284
                },
                {
                    "name": "C#6",
                    "midi": 85,
                    "time": 106.35000000000227,
                    "velocity": 0.3858267716535433,
                    "duration": 0.07500000000000284
                },
                {
                    "name": "G5",
                    "midi": 79,
                    "time": 106.35000000000227,
                    "velocity": 0.2283464566929134,
                    "duration": 0.07500000000000284
                },
                {
                    "name": "A5",
                    "midi": 81,
                    "time": 106.42500000000227,
                    "velocity": 0.18110236220472442,
                    "duration": 0.07500000000000284
                },
                {
                    "name": "E5",
                    "midi": 76,
                    "time": 106.42500000000227,
                    "velocity": 0.18110236220472442,
                    "duration": 0.07500000000000284
                },
                {
                    "name": "G5",
                    "midi": 79,
                    "time": 106.50000000000227,
                    "velocity": 0.2283464566929134,
                    "duration": 0.07500000000000284
                },
                {
                    "name": "C6",
                    "midi": 84,
                    "time": 106.50000000000227,
                    "velocity": 0.4015748031496063,
                    "duration": 0.07500000000000284
                },
                {
                    "name": "B5",
                    "midi": 83,
                    "time": 106.57500000000228,
                    "velocity": 0.33070866141732286,
                    "duration": 0.07500000000000284
                },
                {
                    "name": "E5",
                    "midi": 76,
                    "time": 106.57500000000228,
                    "velocity": 0.1732283464566929,
                    "duration": 0.07500000000000284
                },
                {
                    "name": "A#5",
                    "midi": 82,
                    "time": 106.65000000000228,
                    "velocity": 0.4015748031496063,
                    "duration": 0.07500000000000284
                },
                {
                    "name": "G5",
                    "midi": 79,
                    "time": 106.65000000000228,
                    "velocity": 0.2204724409448819,
                    "duration": 0.07500000000000284
                },
                {
                    "name": "E5",
                    "midi": 76,
                    "time": 106.72500000000228,
                    "velocity": 0.18110236220472442,
                    "duration": 0.07500000000000284
                },
                {
                    "name": "F5",
                    "midi": 77,
                    "time": 106.80000000000229,
                    "velocity": 0.2283464566929134,
                    "duration": 0.07500000000000284
                },
                {
                    "name": "A5",
                    "midi": 81,
                    "time": 106.80000000000229,
                    "velocity": 0.4015748031496063,
                    "duration": 0.07500000000000284
                },
                {
                    "name": "D5",
                    "midi": 74,
                    "time": 106.87500000000229,
                    "velocity": 0.1732283464566929,
                    "duration": 0.07500000000000284
                },
                {
                    "name": "F5",
                    "midi": 77,
                    "time": 106.95000000000229,
                    "velocity": 0.1732283464566929,
                    "duration": 0.07500000000000284
                },
                {
                    "name": "A#5",
                    "midi": 82,
                    "time": 107.0250000000023,
                    "velocity": 0.1732283464566929,
                    "duration": 0.07500000000000284
                },
                {
                    "name": "A5",
                    "midi": 81,
                    "time": 107.1000000000023,
                    "velocity": 0.25984251968503935,
                    "duration": 0.07500000000000284
                },
                {
                    "name": "A#5",
                    "midi": 82,
                    "time": 107.1750000000023,
                    "velocity": 0.2283464566929134,
                    "duration": 0.07500000000000284
                },
                {
                    "name": "A5",
                    "midi": 81,
                    "time": 107.2500000000023,
                    "velocity": 0.25984251968503935,
                    "duration": 0.07500000000000284
                },
                {
                    "name": "A#6",
                    "midi": 94,
                    "time": 107.3250000000023,
                    "velocity": 0.2992125984251969,
                    "duration": 0.07500000000000284
                },
                {
                    "name": "A6",
                    "midi": 93,
                    "time": 107.40000000000231,
                    "velocity": 0.2992125984251969,
                    "duration": 0.07500000000000284
                },
                {
                    "name": "A#5",
                    "midi": 82,
                    "time": 107.47500000000231,
                    "velocity": 0.25984251968503935,
                    "duration": 0.07500000000000284
                },
                {
                    "name": "A5",
                    "midi": 81,
                    "time": 107.55000000000231,
                    "velocity": 0.2440944881889764,
                    "duration": 0.07500000000000284
                },
                {
                    "name": "A#4",
                    "midi": 70,
                    "time": 107.62500000000232,
                    "velocity": 0.25984251968503935,
                    "duration": 0.07500000000000284
                },
                {
                    "name": "A4",
                    "midi": 69,
                    "time": 107.70000000000232,
                    "velocity": 0.2440944881889764,
                    "duration": 0.07500000000000284
                },
                {
                    "name": "A#4",
                    "midi": 70,
                    "time": 107.77500000000232,
                    "velocity": 0.25984251968503935,
                    "duration": 0.07500000000000284
                },
                {
                    "name": "A4",
                    "midi": 69,
                    "time": 107.85000000000232,
                    "velocity": 0.23622047244094488,
                    "duration": 0.07500000000000284
                },
                {
                    "name": "A#5",
                    "midi": 82,
                    "time": 107.92500000000233,
                    "velocity": 0.25984251968503935,
                    "duration": 0.07500000000000284
                },
                {
                    "name": "A5",
                    "midi": 81,
                    "time": 108.00000000000233,
                    "velocity": 0.2125984251968504,
                    "duration": 0.07500000000000284
                },
                {
                    "name": "F5",
                    "midi": 77,
                    "time": 108.07500000000233,
                    "velocity": 0.18110236220472442,
                    "duration": 0.07500000000000284
                },
                {
                    "name": "A#5",
                    "midi": 82,
                    "time": 108.07500000000233,
                    "velocity": 0.18110236220472442,
                    "duration": 0.07500000000000284
                },
                {
                    "name": "F6",
                    "midi": 89,
                    "time": 108.15000000000234,
                    "velocity": 0.4015748031496063,
                    "duration": 0.07500000000000284
                },
                {
                    "name": "A5",
                    "midi": 81,
                    "time": 108.15000000000234,
                    "velocity": 0.2204724409448819,
                    "duration": 0.07500000000000284
                },
                {
                    "name": "F5",
                    "midi": 77,
                    "time": 108.22500000000234,
                    "velocity": 0.18110236220472442,
                    "duration": 0.07500000000000284
                },
                {
                    "name": "A#5",
                    "midi": 82,
                    "time": 108.22500000000234,
                    "velocity": 0.18110236220472442,
                    "duration": 0.07500000000000284
                },
                {
                    "name": "A5",
                    "midi": 81,
                    "time": 108.30000000000234,
                    "velocity": 0.2283464566929134,
                    "duration": 0.07500000000000284
                },
                {
                    "name": "E6",
                    "midi": 88,
                    "time": 108.30000000000234,
                    "velocity": 0.4015748031496063,
                    "duration": 0.07500000000000284
                },
                {
                    "name": "F5",
                    "midi": 77,
                    "time": 108.37500000000234,
                    "velocity": 0.18110236220472442,
                    "duration": 0.07500000000000284
                },
                {
                    "name": "A#5",
                    "midi": 82,
                    "time": 108.37500000000234,
                    "velocity": 0.18110236220472442,
                    "duration": 0.07500000000000284
                },
                {
                    "name": "A5",
                    "midi": 81,
                    "time": 108.45000000000235,
                    "velocity": 0.2283464566929134,
                    "duration": 0.07500000000000284
                },
                {
                    "name": "D6",
                    "midi": 86,
                    "time": 108.45000000000235,
                    "velocity": 0.3858267716535433,
                    "duration": 0.07500000000000284
                },
                {
                    "name": "A#5",
                    "midi": 82,
                    "time": 108.52500000000235,
                    "velocity": 0.1889763779527559,
                    "duration": 0.07500000000000284
                },
                {
                    "name": "F5",
                    "midi": 77,
                    "time": 108.52500000000235,
                    "velocity": 0.1889763779527559,
                    "duration": 0.07500000000000284
                },
                {
                    "name": "D6",
                    "midi": 86,
                    "time": 108.60000000000235,
                    "velocity": 0.3543307086614173,
                    "duration": 0.07500000000000284
                },
                {
                    "name": "G5",
                    "midi": 79,
                    "time": 108.60000000000235,
                    "velocity": 0.23622047244094488,
                    "duration": 0.07500000000000284
                },
                {
                    "name": "A5",
                    "midi": 81,
                    "time": 108.67500000000236,
                    "velocity": 0.1968503937007874,
                    "duration": 0.07500000000000284
                },
                {
                    "name": "E5",
                    "midi": 76,
                    "time": 108.67500000000236,
                    "velocity": 0.1968503937007874,
                    "duration": 0.07500000000000284
                },
                {
                    "name": "G5",
                    "midi": 79,
                    "time": 108.75000000000236,
                    "velocity": 0.2283464566929134,
                    "duration": 0.07500000000000284
                },
                {
                    "name": "C#6",
                    "midi": 85,
                    "time": 108.75000000000236,
                    "velocity": 0.3858267716535433,
                    "duration": 0.07500000000000284
                },
                {
                    "name": "E5",
                    "midi": 76,
                    "time": 108.82500000000236,
                    "velocity": 0.18110236220472442,
                    "duration": 0.07500000000000284
                },
                {
                    "name": "A5",
                    "midi": 81,
                    "time": 108.82500000000236,
                    "velocity": 0.18110236220472442,
                    "duration": 0.07500000000000284
                },
                {
                    "name": "C6",
                    "midi": 84,
                    "time": 108.90000000000236,
                    "velocity": 0.4015748031496063,
                    "duration": 0.07500000000000284
                },
                {
                    "name": "G5",
                    "midi": 79,
                    "time": 108.90000000000236,
                    "velocity": 0.2283464566929134,
                    "duration": 0.07500000000000284
                },
                {
                    "name": "B5",
                    "midi": 83,
                    "time": 108.97500000000237,
                    "velocity": 0.33070866141732286,
                    "duration": 0.07500000000000284
                },
                {
                    "name": "E5",
                    "midi": 76,
                    "time": 108.97500000000237,
                    "velocity": 0.1732283464566929,
                    "duration": 0.07500000000000284
                },
                {
                    "name": "G5",
                    "midi": 79,
                    "time": 109.05000000000237,
                    "velocity": 0.2204724409448819,
                    "duration": 0.07500000000000284
                },
                {
                    "name": "A#5",
                    "midi": 82,
                    "time": 109.05000000000237,
                    "velocity": 0.4015748031496063,
                    "duration": 0.07500000000000284
                },
                {
                    "name": "E5",
                    "midi": 76,
                    "time": 109.12500000000237,
                    "velocity": 0.18110236220472442,
                    "duration": 0.07500000000000284
                },
                {
                    "name": "A5",
                    "midi": 81,
                    "time": 109.20000000000238,
                    "velocity": 0.4015748031496063,
                    "duration": 0.07500000000000284
                },
                {
                    "name": "F5",
                    "midi": 77,
                    "time": 109.20000000000238,
                    "velocity": 0.2283464566929134,
                    "duration": 0.07500000000000284
                },
                {
                    "name": "D5",
                    "midi": 74,
                    "time": 109.27500000000238,
                    "velocity": 0.1732283464566929,
                    "duration": 0.07500000000000284
                },
                {
                    "name": "F5",
                    "midi": 77,
                    "time": 109.35000000000238,
                    "velocity": 0.1732283464566929,
                    "duration": 0.07500000000000284
                },
                {
                    "name": "D6",
                    "midi": 86,
                    "time": 109.42500000000238,
                    "velocity": 0.1968503937007874,
                    "duration": 0.07500000000000284
                },
                {
                    "name": "F6",
                    "midi": 89,
                    "time": 109.50000000000239,
                    "velocity": 0.41732283464566927,
                    "duration": 0.22500000000000853
                },
                {
                    "name": "F5",
                    "midi": 77,
                    "time": 109.50000000000239,
                    "velocity": 0.3464566929133858,
                    "duration": 0.07500000000000284
                },
                {
                    "name": "C6",
                    "midi": 84,
                    "time": 109.57500000000239,
                    "velocity": 0.3464566929133858,
                    "duration": 0.07500000000000284
                },
                {
                    "name": "A5",
                    "midi": 81,
                    "time": 109.57500000000239,
                    "velocity": 0.3464566929133858,
                    "duration": 0.07500000000000284
                },
                {
                    "name": "D#5",
                    "midi": 75,
                    "time": 109.6500000000024,
                    "velocity": 0.3228346456692913,
                    "duration": 0.07500000000000284
                },
                {
                    "name": "D#6",
                    "midi": 87,
                    "time": 109.7250000000024,
                    "velocity": 0.3858267716535433,
                    "duration": 0.07500000000000284
                },
                {
                    "name": "C#6",
                    "midi": 85,
                    "time": 109.8000000000024,
                    "velocity": 0.44881889763779526,
                    "duration": 0.22500000000000853
                },
                {
                    "name": "C#5",
                    "midi": 73,
                    "time": 109.8000000000024,
                    "velocity": 0.36220472440944884,
                    "duration": 0.07500000000000284
                },
                {
                    "name": "A#5",
                    "midi": 82,
                    "time": 109.8750000000024,
                    "velocity": 0.3228346456692913,
                    "duration": 0.07500000000000284
                },
                {
                    "name": "F5",
                    "midi": 77,
                    "time": 109.8750000000024,
                    "velocity": 0.3228346456692913,
                    "duration": 0.07500000000000284
                },
                {
                    "name": "D5",
                    "midi": 74,
                    "time": 109.9500000000024,
                    "velocity": 0.3543307086614173,
                    "duration": 0.07500000000000284
                },
                {
                    "name": "D6",
                    "midi": 86,
                    "time": 110.02500000000241,
                    "velocity": 0.3937007874015748,
                    "duration": 0.07500000000000284
                },
                {
                    "name": "G#5",
                    "midi": 80,
                    "time": 110.10000000000241,
                    "velocity": 0.4251968503937008,
                    "duration": 0.22500000000000853
                },
                {
                    "name": "G#4",
                    "midi": 68,
                    "time": 110.10000000000241,
                    "velocity": 0.4251968503937008,
                    "duration": 0.07500000000000284
                },
                {
                    "name": "D#5",
                    "midi": 75,
                    "time": 110.17500000000241,
                    "velocity": 0.30708661417322836,
                    "duration": 0.07500000000000284
                },
                {
                    "name": "C5",
                    "midi": 72,
                    "time": 110.17500000000241,
                    "velocity": 0.2440944881889764,
                    "duration": 0.07500000000000284
                },
                {
                    "name": "A4",
                    "midi": 69,
                    "time": 110.25000000000242,
                    "velocity": 0.33858267716535434,
                    "duration": 0.07500000000000284
                },
                {
                    "name": "A5",
                    "midi": 81,
                    "time": 110.32500000000242,
                    "velocity": 0.4015748031496063,
                    "duration": 0.07500000000000284
                },
                {
                    "name": "C5",
                    "midi": 72,
                    "time": 110.40000000000242,
                    "velocity": 0.36220472440944884,
                    "duration": 0.07500000000000284
                },
                {
                    "name": "C6",
                    "midi": 84,
                    "time": 110.40000000000242,
                    "velocity": 0.4330708661417323,
                    "duration": 0.22500000000000853
                },
                {
                    "name": "F5",
                    "midi": 77,
                    "time": 110.47500000000242,
                    "velocity": 0.3700787401574803,
                    "duration": 0.07500000000000284
                },
                {
                    "name": "D5",
                    "midi": 74,
                    "time": 110.47500000000242,
                    "velocity": 0.3700787401574803,
                    "duration": 0.07500000000000284
                },
                {
                    "name": "A#4",
                    "midi": 70,
                    "time": 110.55000000000243,
                    "velocity": 0.33858267716535434,
                    "duration": 0.07500000000000284
                },
                {
                    "name": "A#5",
                    "midi": 82,
                    "time": 110.62500000000243,
                    "velocity": 0.33858267716535434,
                    "duration": 0.07500000000000284
                },
                {
                    "name": "F5",
                    "midi": 77,
                    "time": 110.70000000000243,
                    "velocity": 0.3700787401574803,
                    "duration": 0.07500000000000284
                },
                {
                    "name": "F6",
                    "midi": 89,
                    "time": 110.70000000000243,
                    "velocity": 0.4409448818897638,
                    "duration": 0.22500000000000853
                },
                {
                    "name": "C6",
                    "midi": 84,
                    "time": 110.77500000000244,
                    "velocity": 0.3700787401574803,
                    "duration": 0.07500000000000284
                },
                {
                    "name": "A5",
                    "midi": 81,
                    "time": 110.77500000000244,
                    "velocity": 0.3700787401574803,
                    "duration": 0.07500000000000284
                },
                {
                    "name": "D#5",
                    "midi": 75,
                    "time": 110.85000000000244,
                    "velocity": 0.3464566929133858,
                    "duration": 0.07500000000000284
                },
                {
                    "name": "D#6",
                    "midi": 87,
                    "time": 110.92500000000244,
                    "velocity": 0.4094488188976378,
                    "duration": 0.07500000000000284
                },
                {
                    "name": "C#5",
                    "midi": 73,
                    "time": 111.00000000000244,
                    "velocity": 0.3858267716535433,
                    "duration": 0.07500000000000284
                },
                {
                    "name": "C#6",
                    "midi": 85,
                    "time": 111.00000000000244,
                    "velocity": 0.48031496062992124,
                    "duration": 0.22500000000000853
                },
                {
                    "name": "A#5",
                    "midi": 82,
                    "time": 111.07500000000245,
                    "velocity": 0.33858267716535434,
                    "duration": 0.07500000000000284
                },
                {
                    "name": "F5",
                    "midi": 77,
                    "time": 111.07500000000245,
                    "velocity": 0.33858267716535434,
                    "duration": 0.07500000000000284
                },
                {
                    "name": "D5",
                    "midi": 74,
                    "time": 111.15000000000245,
                    "velocity": 0.3779527559055118,
                    "duration": 0.07500000000000284
                },
                {
                    "name": "D6",
                    "midi": 86,
                    "time": 111.22500000000245,
                    "velocity": 0.41732283464566927,
                    "duration": 0.07500000000000284
                },
                {
                    "name": "G#5",
                    "midi": 80,
                    "time": 111.30000000000246,
                    "velocity": 0.4566929133858268,
                    "duration": 0.22500000000000853
                },
                {
                    "name": "G#4",
                    "midi": 68,
                    "time": 111.30000000000246,
                    "velocity": 0.4566929133858268,
                    "duration": 0.07500000000000284
                },
                {
                    "name": "D#5",
                    "midi": 75,
                    "time": 111.37500000000246,
                    "velocity": 0.3228346456692913,
                    "duration": 0.07500000000000284
                },
                {
                    "name": "C5",
                    "midi": 72,
                    "time": 111.37500000000246,
                    "velocity": 0.25984251968503935,
                    "duration": 0.07500000000000284
                },
                {
                    "name": "A4",
                    "midi": 69,
                    "time": 111.45000000000246,
                    "velocity": 0.36220472440944884,
                    "duration": 0.07500000000000284
                },
                {
                    "name": "A5",
                    "midi": 81,
                    "time": 111.52500000000246,
                    "velocity": 0.4251968503937008,
                    "duration": 0.07500000000000284
                },
                {
                    "name": "C6",
                    "midi": 84,
                    "time": 111.60000000000247,
                    "velocity": 0.4566929133858268,
                    "duration": 0.22500000000000853
                },
                {
                    "name": "C5",
                    "midi": 72,
                    "time": 111.60000000000247,
                    "velocity": 0.3858267716535433,
                    "duration": 0.07500000000000284
                },
                {
                    "name": "D5",
                    "midi": 74,
                    "time": 111.67500000000247,
                    "velocity": 0.3858267716535433,
                    "duration": 0.07500000000000284
                },
                {
                    "name": "F5",
                    "midi": 77,
                    "time": 111.67500000000247,
                    "velocity": 0.3858267716535433,
                    "duration": 0.07500000000000284
                },
                {
                    "name": "A#4",
                    "midi": 70,
                    "time": 111.75000000000247,
                    "velocity": 0.36220472440944884,
                    "duration": 0.07500000000000284
                },
                {
                    "name": "A#5",
                    "midi": 82,
                    "time": 111.82500000000248,
                    "velocity": 0.36220472440944884,
                    "duration": 0.07500000000000284
                },
                {
                    "name": "A#5",
                    "midi": 82,
                    "time": 111.90000000000248,
                    "velocity": 0.4409448818897638,
                    "duration": 0.07500000000000284
                },
                {
                    "name": "A#6",
                    "midi": 94,
                    "time": 111.90000000000248,
                    "velocity": 0.5511811023622047,
                    "duration": 0.22500000000000853
                },
                {
                    "name": "F6",
                    "midi": 89,
                    "time": 111.97500000000248,
                    "velocity": 0.4409448818897638,
                    "duration": 0.07500000000000284
                },
                {
                    "name": "D6",
                    "midi": 86,
                    "time": 111.97500000000248,
                    "velocity": 0.4409448818897638,
                    "duration": 0.07500000000000284
                },
                {
                    "name": "G#5",
                    "midi": 80,
                    "time": 112.05000000000248,
                    "velocity": 0.4251968503937008,
                    "duration": 0.07500000000000284
                },
                {
                    "name": "G#6",
                    "midi": 92,
                    "time": 112.12500000000249,
                    "velocity": 0.49606299212598426,
                    "duration": 0.07500000000000284
                },
                {
                    "name": "F5",
                    "midi": 77,
                    "time": 112.20000000000249,
                    "velocity": 0.47244094488188976,
                    "duration": 0.07500000000000284
                },
                {
                    "name": "F6",
                    "midi": 89,
                    "time": 112.20000000000249,
                    "velocity": 0.5669291338582677,
                    "duration": 0.22500000000000853
                },
                {
                    "name": "D#6",
                    "midi": 87,
                    "time": 112.27500000000249,
                    "velocity": 0.4015748031496063,
                    "duration": 0.07500000000000284
                },
                {
                    "name": "A#5",
                    "midi": 82,
                    "time": 112.27500000000249,
                    "velocity": 0.4015748031496063,
                    "duration": 0.07500000000000284
                },
                {
                    "name": "F#5",
                    "midi": 78,
                    "time": 112.3500000000025,
                    "velocity": 0.4645669291338583,
                    "duration": 0.07500000000000284
                },
                {
                    "name": "F#6",
                    "midi": 90,
                    "time": 112.4250000000025,
                    "velocity": 0.5039370078740157,
                    "duration": 0.07500000000000284
                },
                {
                    "name": "C#5",
                    "midi": 73,
                    "time": 112.5000000000025,
                    "velocity": 0.5590551181102362,
                    "duration": 0.07500000000000284
                },
                {
                    "name": "C#6",
                    "midi": 85,
                    "time": 112.5000000000025,
                    "velocity": 0.5590551181102362,
                    "duration": 0.22500000000000853
                },
                {
                    "name": "F5",
                    "midi": 77,
                    "time": 112.5750000000025,
                    "velocity": 0.3228346456692913,
                    "duration": 0.07500000000000284
                },
                {
                    "name": "G#5",
                    "midi": 80,
                    "time": 112.5750000000025,
                    "velocity": 0.4015748031496063,
                    "duration": 0.07500000000000284
                },
                {
                    "name": "D5",
                    "midi": 74,
                    "time": 112.6500000000025,
                    "velocity": 0.4409448818897638,
                    "duration": 0.07500000000000284
                },
                {
                    "name": "D6",
                    "midi": 86,
                    "time": 112.72500000000251,
                    "velocity": 0.5196850393700787,
                    "duration": 0.07500000000000284
                },
                {
                    "name": "F6",
                    "midi": 89,
                    "time": 112.80000000000251,
                    "velocity": 0.5669291338582677,
                    "duration": 0.22500000000000853
                },
                {
                    "name": "F5",
                    "midi": 77,
                    "time": 112.80000000000251,
                    "velocity": 0.4566929133858268,
                    "duration": 0.07500000000000284
                },
                {
                    "name": "F#5",
                    "midi": 78,
                    "time": 112.87500000000252,
                    "velocity": 0.4645669291338583,
                    "duration": 0.07500000000000284
                },
                {
                    "name": "A#5",
                    "midi": 82,
                    "time": 112.87500000000252,
                    "velocity": 0.4645669291338583,
                    "duration": 0.07500000000000284
                },
                {
                    "name": "D#5",
                    "midi": 75,
                    "time": 112.95000000000252,
                    "velocity": 0.4409448818897638,
                    "duration": 0.07500000000000284
                },
                {
                    "name": "D#6",
                    "midi": 87,
                    "time": 113.02500000000252,
                    "velocity": 0.4409448818897638,
                    "duration": 0.07500000000000284
                },
                {
                    "name": "A#6",
                    "midi": 94,
                    "time": 113.10000000000252,
                    "velocity": 0.6377952755905512,
                    "duration": 0.22500000000000853
                },
                {
                    "name": "A#5",
                    "midi": 82,
                    "time": 113.10000000000252,
                    "velocity": 0.5196850393700787,
                    "duration": 0.07500000000000284
                },
                {
                    "name": "D6",
                    "midi": 86,
                    "time": 113.17500000000253,
                    "velocity": 0.5196850393700787,
                    "duration": 0.07500000000000284
                },
                {
                    "name": "F6",
                    "midi": 89,
                    "time": 113.17500000000253,
                    "velocity": 0.5196850393700787,
                    "duration": 0.07500000000000284
                },
                {
                    "name": "G#5",
                    "midi": 80,
                    "time": 113.25000000000253,
                    "velocity": 0.48031496062992124,
                    "duration": 0.07500000000000284
                },
                {
                    "name": "G#6",
                    "midi": 92,
                    "time": 113.32500000000253,
                    "velocity": 0.5826771653543307,
                    "duration": 0.07500000000000284
                },
                {
                    "name": "F6",
                    "midi": 89,
                    "time": 113.40000000000254,
                    "velocity": 0.6614173228346457,
                    "duration": 0.22500000000000853
                },
                {
                    "name": "F5",
                    "midi": 77,
                    "time": 113.40000000000254,
                    "velocity": 0.5433070866141733,
                    "duration": 0.07500000000000284
                },
                {
                    "name": "D#6",
                    "midi": 87,
                    "time": 113.47500000000254,
                    "velocity": 0.47244094488188976,
                    "duration": 0.07500000000000284
                },
                {
                    "name": "A#5",
                    "midi": 82,
                    "time": 113.47500000000254,
                    "velocity": 0.47244094488188976,
                    "duration": 0.07500000000000284
                },
                {
                    "name": "F#5",
                    "midi": 78,
                    "time": 113.55000000000254,
                    "velocity": 0.5354330708661418,
                    "duration": 0.07500000000000284
                },
                {
                    "name": "F#6",
                    "midi": 90,
                    "time": 113.62500000000254,
                    "velocity": 0.5826771653543307,
                    "duration": 0.07500000000000284
                },
                {
                    "name": "C#6",
                    "midi": 85,
                    "time": 113.70000000000255,
                    "velocity": 0.6535433070866141,
                    "duration": 0.22500000000000853
                },
                {
                    "name": "C#5",
                    "midi": 73,
                    "time": 113.70000000000255,
                    "velocity": 0.6535433070866141,
                    "duration": 0.07500000000000284
                },
                {
                    "name": "G#5",
                    "midi": 80,
                    "time": 113.77500000000255,
                    "velocity": 0.47244094488188976,
                    "duration": 0.07500000000000284
                },
                {
                    "name": "F5",
                    "midi": 77,
                    "time": 113.77500000000255,
                    "velocity": 0.36220472440944884,
                    "duration": 0.07500000000000284
                },
                {
                    "name": "D5",
                    "midi": 74,
                    "time": 113.85000000000255,
                    "velocity": 0.5039370078740157,
                    "duration": 0.07500000000000284
                },
                {
                    "name": "D6",
                    "midi": 86,
                    "time": 113.92500000000256,
                    "velocity": 0.5984251968503937,
                    "duration": 0.07500000000000284
                },
                {
                    "name": "F5",
                    "midi": 77,
                    "time": 114.00000000000256,
                    "velocity": 0.5354330708661418,
                    "duration": 0.07500000000000284
                },
                {
                    "name": "F6",
                    "midi": 89,
                    "time": 114.00000000000256,
                    "velocity": 0.6614173228346457,
                    "duration": 0.22500000000000853
                },
                {
                    "name": "A#5",
                    "midi": 82,
                    "time": 114.07500000000256,
                    "velocity": 0.5433070866141733,
                    "duration": 0.07500000000000284
                },
                {
                    "name": "F#5",
                    "midi": 78,
                    "time": 114.07500000000256,
                    "velocity": 0.5433070866141733,
                    "duration": 0.07500000000000284
                },
                {
                    "name": "D#5",
                    "midi": 75,
                    "time": 114.15000000000256,
                    "velocity": 0.5039370078740157,
                    "duration": 0.07500000000000284
                },
                {
                    "name": "D#6",
                    "midi": 87,
                    "time": 114.22500000000257,
                    "velocity": 0.5039370078740157,
                    "duration": 0.07500000000000284
                },
                {
                    "name": "C#6",
                    "midi": 85,
                    "time": 114.30000000000257,
                    "velocity": 0.5905511811023622,
                    "duration": 0.07500000000000284
                },
                {
                    "name": "C#7",
                    "midi": 97,
                    "time": 114.30000000000257,
                    "velocity": 0.7165354330708661,
                    "duration": 0.22500000000000853
                },
                {
                    "name": "F#6",
                    "midi": 90,
                    "time": 114.37500000000257,
                    "velocity": 0.5905511811023622,
                    "duration": 0.07500000000000284
                },
                {
                    "name": "C#6",
                    "midi": 85,
                    "time": 114.45000000000258,
                    "velocity": 0.5511811023622047,
                    "duration": 0.07500000000000284
                },
                {
                    "name": "C#7",
                    "midi": 97,
                    "time": 114.52500000000258,
                    "velocity": 0.6535433070866141,
                    "duration": 0.07500000000000284
                },
                {
                    "name": "E7",
                    "midi": 100,
                    "time": 114.60000000000258,
                    "velocity": 0.7244094488188977,
                    "duration": 0.22500000000000853
                },
                {
                    "name": "E6",
                    "midi": 88,
                    "time": 114.60000000000258,
                    "velocity": 0.6299212598425197,
                    "duration": 0.07500000000000284
                },
                {
                    "name": "F#6",
                    "midi": 90,
                    "time": 114.67500000000258,
                    "velocity": 0.5354330708661418,
                    "duration": 0.07500000000000284
                },
                {
                    "name": "D#6",
                    "midi": 87,
                    "time": 114.75000000000259,
                    "velocity": 0.6141732283464567,
                    "duration": 0.07500000000000284
                },
                {
                    "name": "D#7",
                    "midi": 99,
                    "time": 114.82500000000259,
                    "velocity": 0.6456692913385826,
                    "duration": 0.07500000000000284
                },
                {
                    "name": "A5",
                    "midi": 81,
                    "time": 114.90000000000259,
                    "velocity": 0.7165354330708661,
                    "duration": 0.07500000000000284
                },
                {
                    "name": "A6",
                    "midi": 93,
                    "time": 114.90000000000259,
                    "velocity": 0.7165354330708661,
                    "duration": 0.22500000000000853
                },
                {
                    "name": "F#6",
                    "midi": 90,
                    "time": 114.9750000000026,
                    "velocity": 0.5275590551181102,
                    "duration": 0.07500000000000284
                },
                {
                    "name": "E6",
                    "midi": 88,
                    "time": 114.9750000000026,
                    "velocity": 0.41732283464566927,
                    "duration": 0.07500000000000284
                },
                {
                    "name": "A#5",
                    "midi": 82,
                    "time": 115.0500000000026,
                    "velocity": 0.5669291338582677,
                    "duration": 0.07500000000000284
                },
                {
                    "name": "A#6",
                    "midi": 94,
                    "time": 115.1250000000026,
                    "velocity": 0.6535433070866141,
                    "duration": 0.07500000000000284
                },
                {
                    "name": "C#7",
                    "midi": 97,
                    "time": 115.2000000000026,
                    "velocity": 0.7165354330708661,
                    "duration": 0.22500000000000853
                },
                {
                    "name": "C#6",
                    "midi": 85,
                    "time": 115.2000000000026,
                    "velocity": 0.5905511811023622,
                    "duration": 0.07500000000000284
                },
                {
                    "name": "F#6",
                    "midi": 90,
                    "time": 115.2750000000026,
                    "velocity": 0.5905511811023622,
                    "duration": 0.07500000000000284
                },
                {
                    "name": "D#6",
                    "midi": 87,
                    "time": 115.2750000000026,
                    "velocity": 0.5905511811023622,
                    "duration": 0.07500000000000284
                },
                {
                    "name": "B5",
                    "midi": 83,
                    "time": 115.35000000000261,
                    "velocity": 0.5511811023622047,
                    "duration": 0.07500000000000284
                },
                {
                    "name": "B6",
                    "midi": 95,
                    "time": 115.42500000000261,
                    "velocity": 0.5511811023622047,
                    "duration": 0.07500000000000284
                },
                {
                    "name": "G6",
                    "midi": 91,
                    "time": 115.50000000000261,
                    "velocity": 0.4409448818897638,
                    "duration": 0.07500000000000284
                },
                {
                    "name": "C7",
                    "midi": 96,
                    "time": 115.50000000000261,
                    "velocity": 0.5196850393700787,
                    "duration": 0.07500000000000284
                },
                {
                    "name": "C#6",
                    "midi": 85,
                    "time": 115.57500000000262,
                    "velocity": 0.36220472440944884,
                    "duration": 0.07500000000000284
                },
                {
                    "name": "A#6",
                    "midi": 94,
                    "time": 115.57500000000262,
                    "velocity": 0.4409448818897638,
                    "duration": 0.07500000000000284
                },
                {
                    "name": "C7",
                    "midi": 96,
                    "time": 115.65000000000262,
                    "velocity": 0.4409448818897638,
                    "duration": 0.07500000000000284
                },
                {
                    "name": "G6",
                    "midi": 91,
                    "time": 115.65000000000262,
                    "velocity": 0.36220472440944884,
                    "duration": 0.07500000000000284
                },
                {
                    "name": "C#6",
                    "midi": 85,
                    "time": 115.72500000000262,
                    "velocity": 0.36220472440944884,
                    "duration": 0.07500000000000284
                },
                {
                    "name": "A#6",
                    "midi": 94,
                    "time": 115.72500000000262,
                    "velocity": 0.4409448818897638,
                    "duration": 0.07500000000000284
                },
                {
                    "name": "A6",
                    "midi": 93,
                    "time": 115.80000000000263,
                    "velocity": 0.47244094488188976,
                    "duration": 0.07500000000000284
                },
                {
                    "name": "E6",
                    "midi": 88,
                    "time": 115.80000000000263,
                    "velocity": 0.3937007874015748,
                    "duration": 0.07500000000000284
                },
                {
                    "name": "A#5",
                    "midi": 82,
                    "time": 115.87500000000263,
                    "velocity": 0.33070866141732286,
                    "duration": 0.07500000000000284
                },
                {
                    "name": "G6",
                    "midi": 91,
                    "time": 115.87500000000263,
                    "velocity": 0.3858267716535433,
                    "duration": 0.07500000000000284
                },
                {
                    "name": "A6",
                    "midi": 93,
                    "time": 115.95000000000263,
                    "velocity": 0.3858267716535433,
                    "duration": 0.07500000000000284
                },
                {
                    "name": "E6",
                    "midi": 88,
                    "time": 115.95000000000263,
                    "velocity": 0.3228346456692913,
                    "duration": 0.07500000000000284
                },
                {
                    "name": "A#5",
                    "midi": 82,
                    "time": 116.02500000000263,
                    "velocity": 0.3228346456692913,
                    "duration": 0.07500000000000284
                },
                {
                    "name": "G6",
                    "midi": 91,
                    "time": 116.02500000000263,
                    "velocity": 0.3858267716535433,
                    "duration": 0.07500000000000284
                },
                {
                    "name": "F#6",
                    "midi": 90,
                    "time": 116.10000000000264,
                    "velocity": 0.4566929133858268,
                    "duration": 0.07500000000000284
                },
                {
                    "name": "C#6",
                    "midi": 85,
                    "time": 116.10000000000264,
                    "velocity": 0.3937007874015748,
                    "duration": 0.07500000000000284
                },
                {
                    "name": "G5",
                    "midi": 79,
                    "time": 116.17500000000264,
                    "velocity": 0.31496062992125984,
                    "duration": 0.07500000000000284
                },
                {
                    "name": "E6",
                    "midi": 88,
                    "time": 116.17500000000264,
                    "velocity": 0.3779527559055118,
                    "duration": 0.07500000000000284
                },
                {
                    "name": "F#6",
                    "midi": 90,
                    "time": 116.25000000000264,
                    "velocity": 0.3700787401574803,
                    "duration": 0.07500000000000284
                },
                {
                    "name": "C#6",
                    "midi": 85,
                    "time": 116.25000000000264,
                    "velocity": 0.31496062992125984,
                    "duration": 0.07500000000000284
                },
                {
                    "name": "E6",
                    "midi": 88,
                    "time": 116.32500000000265,
                    "velocity": 0.36220472440944884,
                    "duration": 0.07500000000000284
                },
                {
                    "name": "G5",
                    "midi": 79,
                    "time": 116.32500000000265,
                    "velocity": 0.30708661417322836,
                    "duration": 0.07500000000000284
                },
                {
                    "name": "D#6",
                    "midi": 87,
                    "time": 116.40000000000265,
                    "velocity": 0.4015748031496063,
                    "duration": 0.07500000000000284
                },
                {
                    "name": "G5",
                    "midi": 79,
                    "time": 116.40000000000265,
                    "velocity": 0.33858267716535434,
                    "duration": 0.07500000000000284
                },
                {
                    "name": "E5",
                    "midi": 76,
                    "time": 116.47500000000265,
                    "velocity": 0.25984251968503935,
                    "duration": 0.07500000000000284
                },
                {
                    "name": "C#6",
                    "midi": 85,
                    "time": 116.47500000000265,
                    "velocity": 0.31496062992125984,
                    "duration": 0.07500000000000284
                },
                {
                    "name": "G5",
                    "midi": 79,
                    "time": 116.55000000000265,
                    "velocity": 0.25984251968503935,
                    "duration": 0.07500000000000284
                },
                {
                    "name": "D#6",
                    "midi": 87,
                    "time": 116.55000000000265,
                    "velocity": 0.31496062992125984,
                    "duration": 0.07500000000000284
                },
                {
                    "name": "E5",
                    "midi": 76,
                    "time": 116.62500000000266,
                    "velocity": 0.25196850393700787,
                    "duration": 0.07500000000000284
                },
                {
                    "name": "C#6",
                    "midi": 85,
                    "time": 116.62500000000266,
                    "velocity": 0.30708661417322836,
                    "duration": 0.07500000000000284
                },
                {
                    "name": "G5",
                    "midi": 79,
                    "time": 116.70000000000266,
                    "velocity": 0.31496062992125984,
                    "duration": 0.07500000000000284
                },
                {
                    "name": "C6",
                    "midi": 84,
                    "time": 116.70000000000266,
                    "velocity": 0.3858267716535433,
                    "duration": 0.07500000000000284
                },
                {
                    "name": "C#5",
                    "midi": 73,
                    "time": 116.77500000000266,
                    "velocity": 0.2440944881889764,
                    "duration": 0.07500000000000284
                },
                {
                    "name": "A5",
                    "midi": 81,
                    "time": 116.77500000000266,
                    "velocity": 0.2992125984251969,
                    "duration": 0.07500000000000284
                },
                {
                    "name": "G5",
                    "midi": 79,
                    "time": 116.85000000000267,
                    "velocity": 0.2440944881889764,
                    "duration": 0.07500000000000284
                },
                {
                    "name": "C6",
                    "midi": 84,
                    "time": 116.85000000000267,
                    "velocity": 0.2992125984251969,
                    "duration": 0.07500000000000284
                },
                {
                    "name": "C#5",
                    "midi": 73,
                    "time": 116.92500000000267,
                    "velocity": 0.2440944881889764,
                    "duration": 0.07500000000000284
                },
                {
                    "name": "A#5",
                    "midi": 82,
                    "time": 116.92500000000267,
                    "velocity": 0.29133858267716534,
                    "duration": 0.07500000000000284
                },
                {
                    "name": "A5",
                    "midi": 81,
                    "time": 117.00000000000267,
                    "velocity": 0.33858267716535434,
                    "duration": 0.07500000000000284
                },
                {
                    "name": "E5",
                    "midi": 76,
                    "time": 117.00000000000267,
                    "velocity": 0.29133858267716534,
                    "duration": 0.07500000000000284
                },
                {
                    "name": "A#4",
                    "midi": 70,
                    "time": 117.07500000000267,
                    "velocity": 0.2283464566929134,
                    "duration": 0.07500000000000284
                },
                {
                    "name": "F#5",
                    "midi": 78,
                    "time": 117.07500000000267,
                    "velocity": 0.2677165354330709,
                    "duration": 0.07500000000000284
                },
                {
                    "name": "E5",
                    "midi": 76,
                    "time": 117.15000000000268,
                    "velocity": 0.2283464566929134,
                    "duration": 0.07500000000000284
                },
                {
                    "name": "A5",
                    "midi": 81,
                    "time": 117.15000000000268,
                    "velocity": 0.2677165354330709,
                    "duration": 0.07500000000000284
                },
                {
                    "name": "A#4",
                    "midi": 70,
                    "time": 117.22500000000268,
                    "velocity": 0.2204724409448819,
                    "duration": 0.07500000000000284
                },
                {
                    "name": "G5",
                    "midi": 79,
                    "time": 117.22500000000268,
                    "velocity": 0.25984251968503935,
                    "duration": 0.07500000000000284
                },
                {
                    "name": "F5",
                    "midi": 77,
                    "time": 117.30000000000268,
                    "velocity": 0.33070866141732286,
                    "duration": 0.07500000000000284
                },
                {
                    "name": "C#5",
                    "midi": 73,
                    "time": 117.30000000000268,
                    "velocity": 0.2677165354330709,
                    "duration": 0.07500000000000284
                },
                {
                    "name": "G4",
                    "midi": 67,
                    "time": 117.37500000000269,
                    "velocity": 0.1968503937007874,
                    "duration": 0.07500000000000284
                },
                {
                    "name": "D#5",
                    "midi": 75,
                    "time": 117.37500000000269,
                    "velocity": 0.23622047244094488,
                    "duration": 0.07500000000000284
                },
                {
                    "name": "F5",
                    "midi": 77,
                    "time": 117.45000000000269,
                    "velocity": 0.23622047244094488,
                    "duration": 0.07500000000000284
                },
                {
                    "name": "C#5",
                    "midi": 73,
                    "time": 117.45000000000269,
                    "velocity": 0.1968503937007874,
                    "duration": 0.07500000000000284
                },
                {
                    "name": "E5",
                    "midi": 76,
                    "time": 117.52500000000269,
                    "velocity": 0.2440944881889764,
                    "duration": 0.07500000000000284
                },
                {
                    "name": "G4",
                    "midi": 67,
                    "time": 117.52500000000269,
                    "velocity": 0.2047244094488189,
                    "duration": 0.07500000000000284
                },
                {
                    "name": "A#4",
                    "midi": 70,
                    "time": 117.6000000000027,
                    "velocity": 0.25196850393700787,
                    "duration": 0.07500000000000284
                },
                {
                    "name": "G5",
                    "midi": 79,
                    "time": 117.6000000000027,
                    "velocity": 0.33070866141732286,
                    "duration": 0.22500000000000853
                },
                {
                    "name": "D5",
                    "midi": 74,
                    "time": 117.6000000000027,
                    "velocity": 0.25196850393700787,
                    "duration": 0.07500000000000284
                },
                {
                    "name": "F4",
                    "midi": 65,
                    "time": 117.6750000000027,
                    "velocity": 0.2283464566929134,
                    "duration": 0.07500000000000284
                },
                {
                    "name": "A#4",
                    "midi": 70,
                    "time": 117.7500000000027,
                    "velocity": 0.28346456692913385,
                    "duration": 0.07500000000000284
                },
                {
                    "name": "F5",
                    "midi": 77,
                    "time": 117.8250000000027,
                    "velocity": 0.25984251968503935,
                    "duration": 0.07500000000000284
                },
                {
                    "name": "D5",
                    "midi": 74,
                    "time": 117.9000000000027,
                    "velocity": 0.33070866141732286,
                    "duration": 0.22500000000000853
                },
                {
                    "name": "G#4",
                    "midi": 68,
                    "time": 117.9000000000027,
                    "velocity": 0.25196850393700787,
                    "duration": 0.07500000000000284
                },
                {
                    "name": "F4",
                    "midi": 65,
                    "time": 117.97500000000271,
                    "velocity": 0.25196850393700787,
                    "duration": 0.07500000000000284
                },
                {
                    "name": "G#4",
                    "midi": 68,
                    "time": 118.05000000000271,
                    "velocity": 0.25196850393700787,
                    "duration": 0.07500000000000284
                },
                {
                    "name": "D#5",
                    "midi": 75,
                    "time": 118.12500000000271,
                    "velocity": 0.25984251968503935,
                    "duration": 0.07500000000000284
                },
                {
                    "name": "E4",
                    "midi": 64,
                    "time": 118.20000000000272,
                    "velocity": 0.25196850393700787,
                    "duration": 0.07500000000000284
                },
                {
                    "name": "D5",
                    "midi": 74,
                    "time": 118.20000000000272,
                    "velocity": 0.33070866141732286,
                    "duration": 0.22500000000000853
                },
                {
                    "name": "A#4",
                    "midi": 70,
                    "time": 118.20000000000272,
                    "velocity": 0.25196850393700787,
                    "duration": 0.07500000000000284
                },
                {
                    "name": "G4",
                    "midi": 67,
                    "time": 118.27500000000272,
                    "velocity": 0.25196850393700787,
                    "duration": 0.07500000000000284
                },
                {
                    "name": "E4",
                    "midi": 64,
                    "time": 118.35000000000272,
                    "velocity": 0.25196850393700787,
                    "duration": 0.07500000000000284
                },
                {
                    "name": "C5",
                    "midi": 72,
                    "time": 118.42500000000273,
                    "velocity": 0.25984251968503935,
                    "duration": 0.07500000000000284
                },
                {
                    "name": "D#4",
                    "midi": 63,
                    "time": 118.50000000000273,
                    "velocity": 0.25196850393700787,
                    "duration": 0.07500000000000284
                },
                {
                    "name": "G4",
                    "midi": 67,
                    "time": 118.50000000000273,
                    "velocity": 0.33070866141732286,
                    "duration": 0.22500000000000853
                },
                {
                    "name": "C4",
                    "midi": 60,
                    "time": 118.57500000000273,
                    "velocity": 0.25196850393700787,
                    "duration": 0.07500000000000284
                },
                {
                    "name": "D#4",
                    "midi": 63,
                    "time": 118.65000000000273,
                    "velocity": 0.25196850393700787,
                    "duration": 0.07500000000000284
                },
                {
                    "name": "A4",
                    "midi": 69,
                    "time": 118.72500000000274,
                    "velocity": 0.25984251968503935,
                    "duration": 0.07500000000000284
                },
                {
                    "name": "A#4",
                    "midi": 70,
                    "time": 118.80000000000274,
                    "velocity": 0.25196850393700787,
                    "duration": 0.07500000000000284
                },
                {
                    "name": "G5",
                    "midi": 79,
                    "time": 118.80000000000274,
                    "velocity": 0.33070866141732286,
                    "duration": 0.22500000000000853
                },
                {
                    "name": "D5",
                    "midi": 74,
                    "time": 118.80000000000274,
                    "velocity": 0.25196850393700787,
                    "duration": 0.07500000000000284
                },
                {
                    "name": "F4",
                    "midi": 65,
                    "time": 118.87500000000274,
                    "velocity": 0.2283464566929134,
                    "duration": 0.07500000000000284
                },
                {
                    "name": "A#4",
                    "midi": 70,
                    "time": 118.95000000000275,
                    "velocity": 0.28346456692913385,
                    "duration": 0.07500000000000284
                },
                {
                    "name": "F5",
                    "midi": 77,
                    "time": 119.02500000000275,
                    "velocity": 0.25984251968503935,
                    "duration": 0.07500000000000284
                },
                {
                    "name": "G#4",
                    "midi": 68,
                    "time": 119.10000000000275,
                    "velocity": 0.25196850393700787,
                    "duration": 0.07500000000000284
                },
                {
                    "name": "D5",
                    "midi": 74,
                    "time": 119.10000000000275,
                    "velocity": 0.33070866141732286,
                    "duration": 0.22500000000000853
                },
                {
                    "name": "F4",
                    "midi": 65,
                    "time": 119.17500000000275,
                    "velocity": 0.25196850393700787,
                    "duration": 0.07500000000000284
                },
                {
                    "name": "G#4",
                    "midi": 68,
                    "time": 119.25000000000276,
                    "velocity": 0.25196850393700787,
                    "duration": 0.07500000000000284
                },
                {
                    "name": "D#5",
                    "midi": 75,
                    "time": 119.32500000000276,
                    "velocity": 0.25984251968503935,
                    "duration": 0.07500000000000284
                },
                {
                    "name": "D5",
                    "midi": 74,
                    "time": 119.40000000000276,
                    "velocity": 0.33070866141732286,
                    "duration": 0.22500000000000853
                },
                {
                    "name": "A#4",
                    "midi": 70,
                    "time": 119.40000000000276,
                    "velocity": 0.25196850393700787,
                    "duration": 0.07500000000000284
                },
                {
                    "name": "E4",
                    "midi": 64,
                    "time": 119.40000000000276,
                    "velocity": 0.25196850393700787,
                    "duration": 0.07500000000000284
                },
                {
                    "name": "G4",
                    "midi": 67,
                    "time": 119.47500000000277,
                    "velocity": 0.25196850393700787,
                    "duration": 0.07500000000000284
                },
                {
                    "name": "E4",
                    "midi": 64,
                    "time": 119.55000000000277,
                    "velocity": 0.25196850393700787,
                    "duration": 0.07500000000000284
                },
                {
                    "name": "C5",
                    "midi": 72,
                    "time": 119.62500000000277,
                    "velocity": 0.25984251968503935,
                    "duration": 0.07500000000000284
                },
                {
                    "name": "D#4",
                    "midi": 63,
                    "time": 119.70000000000277,
                    "velocity": 0.25196850393700787,
                    "duration": 0.07500000000000284
                },
                {
                    "name": "G4",
                    "midi": 67,
                    "time": 119.70000000000277,
                    "velocity": 0.33070866141732286,
                    "duration": 0.22500000000000853
                },
                {
                    "name": "C4",
                    "midi": 60,
                    "time": 119.77500000000278,
                    "velocity": 0.25196850393700787,
                    "duration": 0.07500000000000284
                },
                {
                    "name": "D#4",
                    "midi": 63,
                    "time": 119.85000000000278,
                    "velocity": 0.25196850393700787,
                    "duration": 0.07500000000000284
                },
                {
                    "name": "A4",
                    "midi": 69,
                    "time": 119.92500000000278,
                    "velocity": 0.25984251968503935,
                    "duration": 0.07500000000000284
                },
                {
                    "name": "D4",
                    "midi": 62,
                    "time": 120.00000000000279,
                    "velocity": 0.25196850393700787,
                    "duration": 0.07500000000000284
                },
                {
                    "name": "C5",
                    "midi": 72,
                    "time": 120.00000000000279,
                    "velocity": 0.33070866141732286,
                    "duration": 0.22500000000000853
                },
                {
                    "name": "F4",
                    "midi": 65,
                    "time": 120.07500000000279,
                    "velocity": 0.2283464566929134,
                    "duration": 0.07500000000000284
                },
                {
                    "name": "D4",
                    "midi": 62,
                    "time": 120.15000000000279,
                    "velocity": 0.28346456692913385,
                    "duration": 0.07500000000000284
                },
                {
                    "name": "A#4",
                    "midi": 70,
                    "time": 120.2250000000028,
                    "velocity": 0.25984251968503935,
                    "duration": 0.07500000000000284
                },
                {
                    "name": "G#3",
                    "midi": 56,
                    "time": 120.3000000000028,
                    "velocity": 0.25196850393700787,
                    "duration": 0.07500000000000284
                },
                {
                    "name": "G4",
                    "midi": 67,
                    "time": 120.3000000000028,
                    "velocity": 0.33070866141732286,
                    "duration": 0.22500000000000853
                },
                {
                    "name": "D4",
                    "midi": 62,
                    "time": 120.3750000000028,
                    "velocity": 0.25196850393700787,
                    "duration": 0.07500000000000284
                },
                {
                    "name": "G#3",
                    "midi": 56,
                    "time": 120.4500000000028,
                    "velocity": 0.25196850393700787,
                    "duration": 0.07500000000000284
                },
                {
                    "name": "D4",
                    "midi": 62,
                    "time": 120.5250000000028,
                    "velocity": 0.2204724409448819,
                    "duration": 0.07500000000000284
                },
                {
                    "name": "F4",
                    "midi": 65,
                    "time": 120.5250000000028,
                    "velocity": 0.25984251968503935,
                    "duration": 0.07500000000000284
                },
                {
                    "name": "F4",
                    "midi": 65,
                    "time": 120.60000000000281,
                    "velocity": 0.33070866141732286,
                    "duration": 0.22500000000000853
                },
                {
                    "name": "G3",
                    "midi": 55,
                    "time": 120.60000000000281,
                    "velocity": 0.25196850393700787,
                    "duration": 0.07500000000000284
                },
                {
                    "name": "C4",
                    "midi": 60,
                    "time": 120.67500000000281,
                    "velocity": 0.25196850393700787,
                    "duration": 0.07500000000000284
                },
                {
                    "name": "G3",
                    "midi": 55,
                    "time": 120.75000000000281,
                    "velocity": 0.25196850393700787,
                    "duration": 0.07500000000000284
                },
                {
                    "name": "D#4",
                    "midi": 63,
                    "time": 120.82500000000282,
                    "velocity": 0.25984251968503935,
                    "duration": 0.07500000000000284
                },
                {
                    "name": "C4",
                    "midi": 60,
                    "time": 120.82500000000282,
                    "velocity": 0.2204724409448819,
                    "duration": 0.07500000000000284
                },
                {
                    "name": "D#3",
                    "midi": 51,
                    "time": 120.90000000000282,
                    "velocity": 0.25196850393700787,
                    "duration": 0.07500000000000284
                },
                {
                    "name": "C4",
                    "midi": 60,
                    "time": 120.90000000000282,
                    "velocity": 0.33070866141732286,
                    "duration": 0.22500000000000853
                },
                {
                    "name": "A3",
                    "midi": 57,
                    "time": 120.97500000000282,
                    "velocity": 0.25196850393700787,
                    "duration": 0.07500000000000284
                },
                {
                    "name": "D#3",
                    "midi": 51,
                    "time": 121.05000000000283,
                    "velocity": 0.25196850393700787,
                    "duration": 0.07500000000000284
                },
                {
                    "name": "D4",
                    "midi": 62,
                    "time": 121.12500000000283,
                    "velocity": 0.25984251968503935,
                    "duration": 0.07500000000000284
                },
                {
                    "name": "A3",
                    "midi": 57,
                    "time": 121.12500000000283,
                    "velocity": 0.25196850393700787,
                    "duration": 0.07500000000000284
                },
                {
                    "name": "F4",
                    "midi": 65,
                    "time": 121.35000000000284,
                    "velocity": 0.25984251968503935,
                    "duration": 0.07500000000000284
                },
                {
                    "name": "D4",
                    "midi": 62,
                    "time": 121.35000000000284,
                    "velocity": 0.25984251968503935,
                    "duration": 0.07500000000000284
                },
                {
                    "name": "D5",
                    "midi": 74,
                    "time": 121.35000000000284,
                    "velocity": 0.30708661417322836,
                    "duration": 0.07500000000000284
                },
                {
                    "name": "D4",
                    "midi": 62,
                    "time": 121.50000000000284,
                    "velocity": 0.23622047244094488,
                    "duration": 0.07500000000000284
                },
                {
                    "name": "C5",
                    "midi": 72,
                    "time": 121.50000000000284,
                    "velocity": 0.28346456692913385,
                    "duration": 0.07500000000000284
                },
                {
                    "name": "F4",
                    "midi": 65,
                    "time": 121.50000000000284,
                    "velocity": 0.23622047244094488,
                    "duration": 0.07500000000000284
                },
                {
                    "name": "D4",
                    "midi": 62,
                    "time": 121.65000000000285,
                    "velocity": 0.23622047244094488,
                    "duration": 0.07500000000000284
                },
                {
                    "name": "F4",
                    "midi": 65,
                    "time": 121.65000000000285,
                    "velocity": 0.23622047244094488,
                    "duration": 0.07500000000000284
                },
                {
                    "name": "B4",
                    "midi": 71,
                    "time": 121.65000000000285,
                    "velocity": 0.28346456692913385,
                    "duration": 0.07500000000000284
                },
                {
                    "name": "F4",
                    "midi": 65,
                    "time": 121.80000000000285,
                    "velocity": 0.25984251968503935,
                    "duration": 0.07500000000000284
                },
                {
                    "name": "D4",
                    "midi": 62,
                    "time": 121.80000000000285,
                    "velocity": 0.25984251968503935,
                    "duration": 0.07500000000000284
                },
                {
                    "name": "A#4",
                    "midi": 70,
                    "time": 121.80000000000285,
                    "velocity": 0.30708661417322836,
                    "duration": 0.07500000000000284
                },
                {
                    "name": "D4",
                    "midi": 62,
                    "time": 121.95000000000286,
                    "velocity": 0.23622047244094488,
                    "duration": 0.07500000000000284
                },
                {
                    "name": "D5",
                    "midi": 74,
                    "time": 121.95000000000286,
                    "velocity": 0.28346456692913385,
                    "duration": 0.07500000000000284
                },
                {
                    "name": "F4",
                    "midi": 65,
                    "time": 121.95000000000286,
                    "velocity": 0.23622047244094488,
                    "duration": 0.07500000000000284
                },
                {
                    "name": "C5",
                    "midi": 72,
                    "time": 122.10000000000286,
                    "velocity": 0.30708661417322836,
                    "duration": 0.07500000000000284
                },
                {
                    "name": "F4",
                    "midi": 65,
                    "time": 122.10000000000286,
                    "velocity": 0.25984251968503935,
                    "duration": 0.15000000000000568
                },
                {
                    "name": "D4",
                    "midi": 62,
                    "time": 122.10000000000286,
                    "velocity": 0.25984251968503935,
                    "duration": 0.15000000000000568
                },
                {
                    "name": "B4",
                    "midi": 71,
                    "time": 122.17500000000287,
                    "velocity": 0.28346456692913385,
                    "duration": 0.07500000000000284
                },
                {
                    "name": "A#4",
                    "midi": 70,
                    "time": 122.25000000000287,
                    "velocity": 0.28346456692913385,
                    "duration": 0.15000000000000568
                },
                {
                    "name": "F5",
                    "midi": 77,
                    "time": 122.55000000000288,
                    "velocity": 0.30708661417322836,
                    "duration": 0.07500000000000284
                },
                {
                    "name": "F4",
                    "midi": 65,
                    "time": 122.55000000000288,
                    "velocity": 0.25984251968503935,
                    "duration": 0.07500000000000284
                },
                {
                    "name": "A#4",
                    "midi": 70,
                    "time": 122.55000000000288,
                    "velocity": 0.25984251968503935,
                    "duration": 0.07500000000000284
                },
                {
                    "name": "F4",
                    "midi": 65,
                    "time": 122.70000000000289,
                    "velocity": 0.23622047244094488,
                    "duration": 0.07500000000000284
                },
                {
                    "name": "E5",
                    "midi": 76,
                    "time": 122.70000000000289,
                    "velocity": 0.28346456692913385,
                    "duration": 0.07500000000000284
                },
                {
                    "name": "A#4",
                    "midi": 70,
                    "time": 122.70000000000289,
                    "velocity": 0.23622047244094488,
                    "duration": 0.07500000000000284
                },
                {
                    "name": "D#5",
                    "midi": 75,
                    "time": 122.8500000000029,
                    "velocity": 0.28346456692913385,
                    "duration": 0.07500000000000284
                },
                {
                    "name": "F4",
                    "midi": 65,
                    "time": 122.8500000000029,
                    "velocity": 0.23622047244094488,
                    "duration": 0.07500000000000284
                },
                {
                    "name": "A#4",
                    "midi": 70,
                    "time": 122.8500000000029,
                    "velocity": 0.23622047244094488,
                    "duration": 0.07500000000000284
                },
                {
                    "name": "A#4",
                    "midi": 70,
                    "time": 123.0000000000029,
                    "velocity": 0.25984251968503935,
                    "duration": 0.07500000000000284
                },
                {
                    "name": "F4",
                    "midi": 65,
                    "time": 123.0000000000029,
                    "velocity": 0.25984251968503935,
                    "duration": 0.07500000000000284
                },
                {
                    "name": "D5",
                    "midi": 74,
                    "time": 123.0000000000029,
                    "velocity": 0.30708661417322836,
                    "duration": 0.07500000000000284
                },
                {
                    "name": "F5",
                    "midi": 77,
                    "time": 123.1500000000029,
                    "velocity": 0.28346456692913385,
                    "duration": 0.07500000000000284
                },
                {
                    "name": "F4",
                    "midi": 65,
                    "time": 123.1500000000029,
                    "velocity": 0.23622047244094488,
                    "duration": 0.07500000000000284
                },
                {
                    "name": "A#4",
                    "midi": 70,
                    "time": 123.1500000000029,
                    "velocity": 0.23622047244094488,
                    "duration": 0.07500000000000284
                },
                {
                    "name": "F4",
                    "midi": 65,
                    "time": 123.30000000000291,
                    "velocity": 0.25984251968503935,
                    "duration": 0.15000000000000568
                },
                {
                    "name": "A#4",
                    "midi": 70,
                    "time": 123.30000000000291,
                    "velocity": 0.25984251968503935,
                    "duration": 0.15000000000000568
                },
                {
                    "name": "E5",
                    "midi": 76,
                    "time": 123.30000000000291,
                    "velocity": 0.30708661417322836,
                    "duration": 0.07500000000000284
                },
                {
                    "name": "D#5",
                    "midi": 75,
                    "time": 123.37500000000291,
                    "velocity": 0.28346456692913385,
                    "duration": 0.07500000000000284
                },
                {
                    "name": "D5",
                    "midi": 74,
                    "time": 123.45000000000292,
                    "velocity": 0.28346456692913385,
                    "duration": 0.15000000000000568
                },
                {
                    "name": "A#5",
                    "midi": 82,
                    "time": 123.75000000000293,
                    "velocity": 0.30708661417322836,
                    "duration": 0.07500000000000284
                },
                {
                    "name": "C#5",
                    "midi": 73,
                    "time": 123.75000000000293,
                    "velocity": 0.25984251968503935,
                    "duration": 0.07500000000000284
                },
                {
                    "name": "A#4",
                    "midi": 70,
                    "time": 123.75000000000293,
                    "velocity": 0.25984251968503935,
                    "duration": 0.07500000000000284
                },
                {
                    "name": "C#5",
                    "midi": 73,
                    "time": 123.90000000000293,
                    "velocity": 0.23622047244094488,
                    "duration": 0.07500000000000284
                },
                {
                    "name": "A#4",
                    "midi": 70,
                    "time": 123.90000000000293,
                    "velocity": 0.23622047244094488,
                    "duration": 0.07500000000000284
                },
                {
                    "name": "G#5",
                    "midi": 80,
                    "time": 123.90000000000293,
                    "velocity": 0.28346456692913385,
                    "duration": 0.07500000000000284
                },
                {
                    "name": "A#4",
                    "midi": 70,
                    "time": 124.05000000000294,
                    "velocity": 0.23622047244094488,
                    "duration": 0.07500000000000284
                },
                {
                    "name": "G5",
                    "midi": 79,
                    "time": 124.05000000000294,
                    "velocity": 0.28346456692913385,
                    "duration": 0.07500000000000284
                },
                {
                    "name": "C#5",
                    "midi": 73,
                    "time": 124.05000000000294,
                    "velocity": 0.23622047244094488,
                    "duration": 0.07500000000000284
                },
                {
                    "name": "A#4",
                    "midi": 70,
                    "time": 124.20000000000294,
                    "velocity": 0.25984251968503935,
                    "duration": 0.07500000000000284
                },
                {
                    "name": "C#5",
                    "midi": 73,
                    "time": 124.20000000000294,
                    "velocity": 0.25984251968503935,
                    "duration": 0.07500000000000284
                },
                {
                    "name": "F#5",
                    "midi": 78,
                    "time": 124.20000000000294,
                    "velocity": 0.30708661417322836,
                    "duration": 0.07500000000000284
                },
                {
                    "name": "A#5",
                    "midi": 82,
                    "time": 124.35000000000295,
                    "velocity": 0.28346456692913385,
                    "duration": 0.07500000000000284
                },
                {
                    "name": "C#5",
                    "midi": 73,
                    "time": 124.35000000000295,
                    "velocity": 0.23622047244094488,
                    "duration": 0.07500000000000284
                },
                {
                    "name": "A#4",
                    "midi": 70,
                    "time": 124.35000000000295,
                    "velocity": 0.23622047244094488,
                    "duration": 0.07500000000000284
                },
                {
                    "name": "A#4",
                    "midi": 70,
                    "time": 124.50000000000296,
                    "velocity": 0.25984251968503935,
                    "duration": 0.15000000000000568
                },
                {
                    "name": "G#5",
                    "midi": 80,
                    "time": 124.50000000000296,
                    "velocity": 0.30708661417322836,
                    "duration": 0.07500000000000284
                },
                {
                    "name": "C#5",
                    "midi": 73,
                    "time": 124.50000000000296,
                    "velocity": 0.25984251968503935,
                    "duration": 0.15000000000000568
                },
                {
                    "name": "G5",
                    "midi": 79,
                    "time": 124.57500000000296,
                    "velocity": 0.28346456692913385,
                    "duration": 0.07500000000000284
                },
                {
                    "name": "F#5",
                    "midi": 78,
                    "time": 124.65000000000296,
                    "velocity": 0.28346456692913385,
                    "duration": 0.15000000000000568
                },
                {
                    "name": "C5",
                    "midi": 72,
                    "time": 124.95000000000297,
                    "velocity": 0.25984251968503935,
                    "duration": 0.07500000000000284
                },
                {
                    "name": "F#5",
                    "midi": 78,
                    "time": 124.95000000000297,
                    "velocity": 0.30708661417322836,
                    "duration": 0.07500000000000284
                },
                {
                    "name": "A4",
                    "midi": 69,
                    "time": 124.95000000000297,
                    "velocity": 0.25984251968503935,
                    "duration": 0.07500000000000284
                },
                {
                    "name": "C5",
                    "midi": 72,
                    "time": 125.10000000000298,
                    "velocity": 0.23622047244094488,
                    "duration": 0.07500000000000284
                },
                {
                    "name": "F5",
                    "midi": 77,
                    "time": 125.10000000000298,
                    "velocity": 0.28346456692913385,
                    "duration": 0.07500000000000284
                },
                {
                    "name": "A4",
                    "midi": 69,
                    "time": 125.10000000000298,
                    "velocity": 0.23622047244094488,
                    "duration": 0.07500000000000284
                },
                {
                    "name": "C5",
                    "midi": 72,
                    "time": 125.25000000000298,
                    "velocity": 0.23622047244094488,
                    "duration": 0.07500000000000284
                },
                {
                    "name": "A4",
                    "midi": 69,
                    "time": 125.25000000000298,
                    "velocity": 0.23622047244094488,
                    "duration": 0.07500000000000284
                },
                {
                    "name": "E5",
                    "midi": 76,
                    "time": 125.25000000000298,
                    "velocity": 0.28346456692913385,
                    "duration": 0.07500000000000284
                },
                {
                    "name": "C5",
                    "midi": 72,
                    "time": 125.40000000000299,
                    "velocity": 0.25984251968503935,
                    "duration": 0.07500000000000284
                },
                {
                    "name": "A4",
                    "midi": 69,
                    "time": 125.40000000000299,
                    "velocity": 0.25984251968503935,
                    "duration": 0.07500000000000284
                },
                {
                    "name": "D#5",
                    "midi": 75,
                    "time": 125.40000000000299,
                    "velocity": 0.30708661417322836,
                    "duration": 0.07500000000000284
                },
                {
                    "name": "A4",
                    "midi": 69,
                    "time": 125.550000000003,
                    "velocity": 0.23622047244094488,
                    "duration": 0.07500000000000284
                },
                {
                    "name": "C5",
                    "midi": 72,
                    "time": 125.550000000003,
                    "velocity": 0.28346456692913385,
                    "duration": 0.07500000000000284
                },
                {
                    "name": "G5",
                    "midi": 79,
                    "time": 125.700000000003,
                    "velocity": 0.30708661417322836,
                    "duration": 0.07500000000000284
                },
                {
                    "name": "C5",
                    "midi": 72,
                    "time": 125.700000000003,
                    "velocity": 0.25984251968503935,
                    "duration": 0.15000000000000568
                },
                {
                    "name": "A4",
                    "midi": 69,
                    "time": 125.700000000003,
                    "velocity": 0.25984251968503935,
                    "duration": 0.15000000000000568
                },
                {
                    "name": "F#5",
                    "midi": 78,
                    "time": 125.775000000003,
                    "velocity": 0.28346456692913385,
                    "duration": 0.07500000000000284
                },
                {
                    "name": "F5",
                    "midi": 77,
                    "time": 125.850000000003,
                    "velocity": 0.28346456692913385,
                    "duration": 0.15000000000000568
                },
                {
                    "name": "D5",
                    "midi": 74,
                    "time": 126.15000000000302,
                    "velocity": 0.30708661417322836,
                    "duration": 0.07500000000000284
                },
                {
                    "name": "D4",
                    "midi": 62,
                    "time": 126.15000000000302,
                    "velocity": 0.25984251968503935,
                    "duration": 0.07500000000000284
                },
                {
                    "name": "F#4",
                    "midi": 66,
                    "time": 126.22500000000302,
                    "velocity": 0.2440944881889764,
                    "duration": 0.07500000000000284
                },
                {
                    "name": "C5",
                    "midi": 72,
                    "time": 126.30000000000302,
                    "velocity": 0.28346456692913385,
                    "duration": 0.07500000000000284
                },
                {
                    "name": "D4",
                    "midi": 62,
                    "time": 126.30000000000302,
                    "velocity": 0.23622047244094488,
                    "duration": 0.07500000000000284
                },
                {
                    "name": "G4",
                    "midi": 67,
                    "time": 126.37500000000303,
                    "velocity": 0.2204724409448819,
                    "duration": 0.07500000000000284
                },
                {
                    "name": "D4",
                    "midi": 62,
                    "time": 126.45000000000303,
                    "velocity": 0.23622047244094488,
                    "duration": 0.07500000000000284
                },
                {
                    "name": "B4",
                    "midi": 71,
                    "time": 126.45000000000303,
                    "velocity": 0.28346456692913385,
                    "duration": 0.07500000000000284
                },
                {
                    "name": "F#4",
                    "midi": 66,
                    "time": 126.52500000000303,
                    "velocity": 0.2283464566929134,
                    "duration": 0.07500000000000284
                },
                {
                    "name": "D4",
                    "midi": 62,
                    "time": 126.60000000000304,
                    "velocity": 0.25984251968503935,
                    "duration": 0.07500000000000284
                },
                {
                    "name": "A#4",
                    "midi": 70,
                    "time": 126.60000000000304,
                    "velocity": 0.30708661417322836,
                    "duration": 0.07500000000000284
                },
                {
                    "name": "G4",
                    "midi": 67,
                    "time": 126.67500000000304,
                    "velocity": 0.2440944881889764,
                    "duration": 0.07500000000000284
                },
                {
                    "name": "D4",
                    "midi": 62,
                    "time": 126.75000000000304,
                    "velocity": 0.23622047244094488,
                    "duration": 0.07500000000000284
                },
                {
                    "name": "D5",
                    "midi": 74,
                    "time": 126.75000000000304,
                    "velocity": 0.28346456692913385,
                    "duration": 0.07500000000000284
                },
                {
                    "name": "F#4",
                    "midi": 66,
                    "time": 126.82500000000304,
                    "velocity": 0.2283464566929134,
                    "duration": 0.07500000000000284
                },
                {
                    "name": "C5",
                    "midi": 72,
                    "time": 126.90000000000305,
                    "velocity": 0.30708661417322836,
                    "duration": 0.07500000000000284
                },
                {
                    "name": "D4",
                    "midi": 62,
                    "time": 126.90000000000305,
                    "velocity": 0.25984251968503935,
                    "duration": 0.15000000000000568
                },
                {
                    "name": "B4",
                    "midi": 71,
                    "time": 126.97500000000305,
                    "velocity": 0.28346456692913385,
                    "duration": 0.07500000000000284
                },
                {
                    "name": "A#4",
                    "midi": 70,
                    "time": 127.05000000000305,
                    "velocity": 0.28346456692913385,
                    "duration": 0.15000000000000568
                },
                {
                    "name": "F5",
                    "midi": 77,
                    "time": 127.35000000000306,
                    "velocity": 0.30708661417322836,
                    "duration": 0.07500000000000284
                },
                {
                    "name": "F4",
                    "midi": 65,
                    "time": 127.35000000000306,
                    "velocity": 0.25984251968503935,
                    "duration": 0.07500000000000284
                },
                {
                    "name": "B4",
                    "midi": 71,
                    "time": 127.42500000000307,
                    "velocity": 0.2440944881889764,
                    "duration": 0.07500000000000284
                },
                {
                    "name": "E5",
                    "midi": 76,
                    "time": 127.50000000000307,
                    "velocity": 0.28346456692913385,
                    "duration": 0.07500000000000284
                },
                {
                    "name": "F4",
                    "midi": 65,
                    "time": 127.50000000000307,
                    "velocity": 0.23622047244094488,
                    "duration": 0.07500000000000284
                },
                {
                    "name": "C5",
                    "midi": 72,
                    "time": 127.57500000000307,
                    "velocity": 0.2204724409448819,
                    "duration": 0.07500000000000284
                },
                {
                    "name": "D#5",
                    "midi": 75,
                    "time": 127.65000000000308,
                    "velocity": 0.28346456692913385,
                    "duration": 0.07500000000000284
                },
                {
                    "name": "F4",
                    "midi": 65,
                    "time": 127.65000000000308,
                    "velocity": 0.23622047244094488,
                    "duration": 0.07500000000000284
                },
                {
                    "name": "B4",
                    "midi": 71,
                    "time": 127.72500000000308,
                    "velocity": 0.2283464566929134,
                    "duration": 0.07500000000000284
                },
                {
                    "name": "F4",
                    "midi": 65,
                    "time": 127.80000000000308,
                    "velocity": 0.25984251968503935,
                    "duration": 0.07500000000000284
                },
                {
                    "name": "D5",
                    "midi": 74,
                    "time": 127.80000000000308,
                    "velocity": 0.30708661417322836,
                    "duration": 0.07500000000000284
                },
                {
                    "name": "C5",
                    "midi": 72,
                    "time": 127.87500000000308,
                    "velocity": 0.2440944881889764,
                    "duration": 0.07500000000000284
                },
                {
                    "name": "F4",
                    "midi": 65,
                    "time": 127.95000000000309,
                    "velocity": 0.23622047244094488,
                    "duration": 0.07499999999998863
                },
                {
                    "name": "F5",
                    "midi": 77,
                    "time": 127.95000000000309,
                    "velocity": 0.28346456692913385,
                    "duration": 0.07499999999998863
                },
                {
                    "name": "B4",
                    "midi": 71,
                    "time": 128.02500000000308,
                    "velocity": 0.2283464566929134,
                    "duration": 0.07499999999998863
                },
                {
                    "name": "F4",
                    "midi": 65,
                    "time": 128.10000000000306,
                    "velocity": 0.25984251968503935,
                    "duration": 0.14999999999997726
                },
                {
                    "name": "E5",
                    "midi": 76,
                    "time": 128.10000000000306,
                    "velocity": 0.30708661417322836,
                    "duration": 0.07499999999998863
                },
                {
                    "name": "D#5",
                    "midi": 75,
                    "time": 128.17500000000305,
                    "velocity": 0.28346456692913385,
                    "duration": 0.07499999999998863
                },
                {
                    "name": "D5",
                    "midi": 74,
                    "time": 128.25000000000304,
                    "velocity": 0.28346456692913385,
                    "duration": 0.15000000000000568
                },
                {
                    "name": "A#4",
                    "midi": 70,
                    "time": 128.55000000000305,
                    "velocity": 0.23622047244094488,
                    "duration": 0.07499999999998863
                },
                {
                    "name": "A#5",
                    "midi": 82,
                    "time": 128.55000000000305,
                    "velocity": 0.29133858267716534,
                    "duration": 0.07499999999998863
                },
                {
                    "name": "C#5",
                    "midi": 73,
                    "time": 128.55000000000305,
                    "velocity": 0.2283464566929134,
                    "duration": 0.07499999999998863
                },
                {
                    "name": "A#4",
                    "midi": 70,
                    "time": 128.70000000000303,
                    "velocity": 0.2755905511811024,
                    "duration": 0.14999999999997726
                },
                {
                    "name": "C#5",
                    "midi": 73,
                    "time": 128.70000000000303,
                    "velocity": 0.2755905511811024,
                    "duration": 0.14999999999997726
                },
                {
                    "name": "G#5",
                    "midi": 80,
                    "time": 128.70000000000303,
                    "velocity": 0.3228346456692913,
                    "duration": 0.07499999999998863
                },
                {
                    "name": "G5",
                    "midi": 79,
                    "time": 128.77500000000302,
                    "velocity": 0.30708661417322836,
                    "duration": 0.07499999999998863
                },
                {
                    "name": "F#5",
                    "midi": 78,
                    "time": 128.850000000003,
                    "velocity": 0.30708661417322836,
                    "duration": 0.15000000000000568
                },
                {
                    "name": "F#5",
                    "midi": 78,
                    "time": 129.15000000000302,
                    "velocity": 0.2677165354330709,
                    "duration": 0.07499999999998863
                },
                {
                    "name": "D#6",
                    "midi": 87,
                    "time": 129.15000000000302,
                    "velocity": 0.33070866141732286,
                    "duration": 0.07499999999998863
                },
                {
                    "name": "D#5",
                    "midi": 75,
                    "time": 129.15000000000302,
                    "velocity": 0.2755905511811024,
                    "duration": 0.07499999999998863
                },
                {
                    "name": "D#5",
                    "midi": 75,
                    "time": 129.300000000003,
                    "velocity": 0.31496062992125984,
                    "duration": 0.14999999999997726
                },
                {
                    "name": "F#5",
                    "midi": 78,
                    "time": 129.300000000003,
                    "velocity": 0.31496062992125984,
                    "duration": 0.14999999999997726
                },
                {
                    "name": "C#6",
                    "midi": 85,
                    "time": 129.300000000003,
                    "velocity": 0.3700787401574803,
                    "duration": 0.07499999999998863
                },
                {
                    "name": "C6",
                    "midi": 84,
                    "time": 129.37500000000298,
                    "velocity": 0.3464566929133858,
                    "duration": 0.07499999999998863
                },
                {
                    "name": "B5",
                    "midi": 83,
                    "time": 129.45000000000297,
                    "velocity": 0.3543307086614173,
                    "duration": 0.15000000000000568
                },
                {
                    "name": "D#6",
                    "midi": 87,
                    "time": 129.75000000000298,
                    "velocity": 0.33070866141732286,
                    "duration": 0.07499999999998863
                },
                {
                    "name": "C6",
                    "midi": 84,
                    "time": 129.75000000000298,
                    "velocity": 0.33070866141732286,
                    "duration": 0.07499999999998863
                },
                {
                    "name": "A6",
                    "midi": 93,
                    "time": 129.75000000000298,
                    "velocity": 0.3937007874015748,
                    "duration": 0.07499999999998863
                },
                {
                    "name": "C6",
                    "midi": 84,
                    "time": 129.90000000000296,
                    "velocity": 0.3543307086614173,
                    "duration": 0.07499999999998863
                },
                {
                    "name": "G#6",
                    "midi": 92,
                    "time": 129.90000000000296,
                    "velocity": 0.4251968503937008,
                    "duration": 0.07499999999998863
                },
                {
                    "name": "D#6",
                    "midi": 87,
                    "time": 129.90000000000296,
                    "velocity": 0.3543307086614173,
                    "duration": 0.07499999999998863
                },
                {
                    "name": "C6",
                    "midi": 84,
                    "time": 130.05000000000294,
                    "velocity": 0.3543307086614173,
                    "duration": 0.07499999999998863
                },
                {
                    "name": "D#6",
                    "midi": 87,
                    "time": 130.05000000000294,
                    "velocity": 0.3543307086614173,
                    "duration": 0.07499999999998863
                },
                {
                    "name": "G6",
                    "midi": 91,
                    "time": 130.05000000000294,
                    "velocity": 0.41732283464566927,
                    "duration": 0.07499999999998863
                },
                {
                    "name": "D#6",
                    "midi": 87,
                    "time": 130.20000000000292,
                    "velocity": 0.33070866141732286,
                    "duration": 0.07499999999998863
                },
                {
                    "name": "F#6",
                    "midi": 90,
                    "time": 130.20000000000292,
                    "velocity": 0.3937007874015748,
                    "duration": 0.07499999999998863
                },
                {
                    "name": "C6",
                    "midi": 84,
                    "time": 130.20000000000292,
                    "velocity": 0.33070866141732286,
                    "duration": 0.07499999999998863
                },
                {
                    "name": "A5",
                    "midi": 81,
                    "time": 130.3500000000029,
                    "velocity": 0.33070866141732286,
                    "duration": 0.07499999999998863
                },
                {
                    "name": "C6",
                    "midi": 84,
                    "time": 130.3500000000029,
                    "velocity": 0.33070866141732286,
                    "duration": 0.07499999999998863
                },
                {
                    "name": "F6",
                    "midi": 89,
                    "time": 130.3500000000029,
                    "velocity": 0.3937007874015748,
                    "duration": 0.07499999999998863
                },
                {
                    "name": "E6",
                    "midi": 88,
                    "time": 130.50000000000287,
                    "velocity": 0.3858267716535433,
                    "duration": 0.07499999999998863
                },
                {
                    "name": "C6",
                    "midi": 84,
                    "time": 130.50000000000287,
                    "velocity": 0.3228346456692913,
                    "duration": 0.07499999999998863
                },
                {
                    "name": "A5",
                    "midi": 81,
                    "time": 130.50000000000287,
                    "velocity": 0.3228346456692913,
                    "duration": 0.07499999999998863
                },
                {
                    "name": "C6",
                    "midi": 84,
                    "time": 130.65000000000285,
                    "velocity": 0.31496062992125984,
                    "duration": 0.07499999999998863
                },
                {
                    "name": "A5",
                    "midi": 81,
                    "time": 130.65000000000285,
                    "velocity": 0.31496062992125984,
                    "duration": 0.07499999999998863
                },
                {
                    "name": "D#6",
                    "midi": 87,
                    "time": 130.65000000000285,
                    "velocity": 0.3779527559055118,
                    "duration": 0.07499999999998863
                },
                {
                    "name": "A5",
                    "midi": 81,
                    "time": 130.80000000000283,
                    "velocity": 0.3543307086614173,
                    "duration": 0.07499999999998863
                },
                {
                    "name": "F#5",
                    "midi": 78,
                    "time": 130.80000000000283,
                    "velocity": 0.3543307086614173,
                    "duration": 0.07499999999998863
                },
                {
                    "name": "D6",
                    "midi": 86,
                    "time": 130.80000000000283,
                    "velocity": 0.41732283464566927,
                    "duration": 0.07499999999998863
                },
                {
                    "name": "F#5",
                    "midi": 78,
                    "time": 130.9500000000028,
                    "velocity": 0.3543307086614173,
                    "duration": 0.07499999999998863
                },
                {
                    "name": "C#6",
                    "midi": 85,
                    "time": 130.9500000000028,
                    "velocity": 0.4251968503937008,
                    "duration": 0.07499999999998863
                },
                {
                    "name": "A5",
                    "midi": 81,
                    "time": 130.9500000000028,
                    "velocity": 0.3543307086614173,
                    "duration": 0.07499999999998863
                },
                {
                    "name": "F#5",
                    "midi": 78,
                    "time": 131.10000000000278,
                    "velocity": 0.3543307086614173,
                    "duration": 0.07499999999998863
                },
                {
                    "name": "A5",
                    "midi": 81,
                    "time": 131.10000000000278,
                    "velocity": 0.3543307086614173,
                    "duration": 0.07499999999998863
                },
                {
                    "name": "C6",
                    "midi": 84,
                    "time": 131.10000000000278,
                    "velocity": 0.4251968503937008,
                    "duration": 0.07499999999998863
                },
                {
                    "name": "F#5",
                    "midi": 78,
                    "time": 131.25000000000276,
                    "velocity": 0.36220472440944884,
                    "duration": 0.07499999999998863
                },
                {
                    "name": "D#5",
                    "midi": 75,
                    "time": 131.25000000000276,
                    "velocity": 0.36220472440944884,
                    "duration": 0.07499999999998863
                },
                {
                    "name": "B5",
                    "midi": 83,
                    "time": 131.25000000000276,
                    "velocity": 0.4330708661417323,
                    "duration": 0.07499999999998863
                },
                {
                    "name": "A#5",
                    "midi": 82,
                    "time": 131.40000000000273,
                    "velocity": 0.44881889763779526,
                    "duration": 0.07499999999998863
                },
                {
                    "name": "F#5",
                    "midi": 78,
                    "time": 131.40000000000273,
                    "velocity": 0.36220472440944884,
                    "duration": 0.07499999999998863
                },
                {
                    "name": "D#5",
                    "midi": 75,
                    "time": 131.40000000000273,
                    "velocity": 0.36220472440944884,
                    "duration": 0.07499999999998863
                },
                {
                    "name": "C5",
                    "midi": 72,
                    "time": 131.5500000000027,
                    "velocity": 0.3779527559055118,
                    "duration": 0.07499999999998863
                },
                {
                    "name": "D#5",
                    "midi": 75,
                    "time": 131.5500000000027,
                    "velocity": 0.3779527559055118,
                    "duration": 0.07499999999998863
                },
                {
                    "name": "A5",
                    "midi": 81,
                    "time": 131.5500000000027,
                    "velocity": 0.4566929133858268,
                    "duration": 0.07499999999998863
                },
                {
                    "name": "D#5",
                    "midi": 75,
                    "time": 131.7000000000027,
                    "velocity": 0.3858267716535433,
                    "duration": 0.07499999999998863
                },
                {
                    "name": "C5",
                    "midi": 72,
                    "time": 131.7000000000027,
                    "velocity": 0.3858267716535433,
                    "duration": 0.07499999999998863
                },
                {
                    "name": "G#5",
                    "midi": 80,
                    "time": 131.7000000000027,
                    "velocity": 0.4566929133858268,
                    "duration": 0.07499999999998863
                },
                {
                    "name": "D#5",
                    "midi": 75,
                    "time": 131.85000000000267,
                    "velocity": 0.3937007874015748,
                    "duration": 0.07499999999998863
                },
                {
                    "name": "G5",
                    "midi": 79,
                    "time": 131.85000000000267,
                    "velocity": 0.4645669291338583,
                    "duration": 0.07499999999998863
                },
                {
                    "name": "C5",
                    "midi": 72,
                    "time": 131.85000000000267,
                    "velocity": 0.3937007874015748,
                    "duration": 0.07499999999998863
                },
                {
                    "name": "C5",
                    "midi": 72,
                    "time": 132.00000000000264,
                    "velocity": 0.3937007874015748,
                    "duration": 0.07499999999998863
                },
                {
                    "name": "F#5",
                    "midi": 78,
                    "time": 132.00000000000264,
                    "velocity": 0.4881889763779528,
                    "duration": 0.07499999999998863
                },
                {
                    "name": "D#5",
                    "midi": 75,
                    "time": 132.00000000000264,
                    "velocity": 0.3937007874015748,
                    "duration": 0.07499999999998863
                },
                {
                    "name": "F5",
                    "midi": 77,
                    "time": 132.15000000000262,
                    "velocity": 0.4645669291338583,
                    "duration": 0.07499999999998863
                },
                {
                    "name": "D#5",
                    "midi": 75,
                    "time": 132.15000000000262,
                    "velocity": 0.3937007874015748,
                    "duration": 0.07499999999998863
                },
                {
                    "name": "C5",
                    "midi": 72,
                    "time": 132.15000000000262,
                    "velocity": 0.3937007874015748,
                    "duration": 0.07499999999998863
                },
                {
                    "name": "D#5",
                    "midi": 75,
                    "time": 132.3000000000026,
                    "velocity": 0.3779527559055118,
                    "duration": 0.07499999999998863
                },
                {
                    "name": "G5",
                    "midi": 79,
                    "time": 132.3000000000026,
                    "velocity": 0.4566929133858268,
                    "duration": 0.07499999999998863
                },
                {
                    "name": "F5",
                    "midi": 77,
                    "time": 132.45000000000258,
                    "velocity": 0.4330708661417323,
                    "duration": 0.07499999999998863
                },
                {
                    "name": "D#5",
                    "midi": 75,
                    "time": 132.45000000000258,
                    "velocity": 0.36220472440944884,
                    "duration": 0.07499999999998863
                },
                {
                    "name": "D#5",
                    "midi": 75,
                    "time": 132.60000000000255,
                    "velocity": 0.29133858267716534,
                    "duration": 0.15000000000000568
                },
                {
                    "name": "F#5",
                    "midi": 78,
                    "time": 132.60000000000255,
                    "velocity": 0.3543307086614173,
                    "duration": 0.15000000000000568
                },
                {
                    "name": "D#5",
                    "midi": 75,
                    "time": 132.75000000000256,
                    "velocity": 0.29133858267716534,
                    "duration": 0.15000000000000568
                },
                {
                    "name": "F5",
                    "midi": 77,
                    "time": 132.75000000000256,
                    "velocity": 0.29133858267716534,
                    "duration": 0.15000000000000568
                },
                {
                    "name": "D#5",
                    "midi": 75,
                    "time": 132.90000000000256,
                    "velocity": 0.29133858267716534,
                    "duration": 0.15000000000000568
                },
                {
                    "name": "G5",
                    "midi": 79,
                    "time": 132.90000000000256,
                    "velocity": 0.3543307086614173,
                    "duration": 0.15000000000000568
                },
                {
                    "name": "F5",
                    "midi": 77,
                    "time": 133.05000000000257,
                    "velocity": 0.2992125984251969,
                    "duration": 0.15000000000000568
                },
                {
                    "name": "D#5",
                    "midi": 75,
                    "time": 133.05000000000257,
                    "velocity": 0.25196850393700787,
                    "duration": 0.15000000000000568
                },
                {
                    "name": "F#5",
                    "midi": 78,
                    "time": 133.20000000000258,
                    "velocity": 0.3543307086614173,
                    "duration": 0.15000000000000568
                },
                {
                    "name": "D#5",
                    "midi": 75,
                    "time": 133.20000000000258,
                    "velocity": 0.29133858267716534,
                    "duration": 0.15000000000000568
                },
                {
                    "name": "F5",
                    "midi": 77,
                    "time": 133.35000000000258,
                    "velocity": 0.29133858267716534,
                    "duration": 0.15000000000000568
                },
                {
                    "name": "D#5",
                    "midi": 75,
                    "time": 133.35000000000258,
                    "velocity": 0.2440944881889764,
                    "duration": 0.15000000000000568
                },
                {
                    "name": "G5",
                    "midi": 79,
                    "time": 133.5000000000026,
                    "velocity": 0.33070866141732286,
                    "duration": 0.15000000000000568
                },
                {
                    "name": "D#5",
                    "midi": 75,
                    "time": 133.5000000000026,
                    "velocity": 0.2755905511811024,
                    "duration": 0.15000000000000568
                },
                {
                    "name": "D#5",
                    "midi": 75,
                    "time": 133.6500000000026,
                    "velocity": 0.2283464566929134,
                    "duration": 0.15000000000000568
                },
                {
                    "name": "F5",
                    "midi": 77,
                    "time": 133.6500000000026,
                    "velocity": 0.28346456692913385,
                    "duration": 0.15000000000000568
                },
                {
                    "name": "D#5",
                    "midi": 75,
                    "time": 133.8000000000026,
                    "velocity": 0.25984251968503935,
                    "duration": 0.15000000000000568
                },
                {
                    "name": "G5",
                    "midi": 79,
                    "time": 133.8000000000026,
                    "velocity": 0.30708661417322836,
                    "duration": 0.15000000000000568
                },
                {
                    "name": "D#5",
                    "midi": 75,
                    "time": 133.9500000000026,
                    "velocity": 0.2204724409448819,
                    "duration": 0.15000000000000568
                },
                {
                    "name": "F5",
                    "midi": 77,
                    "time": 133.9500000000026,
                    "velocity": 0.25984251968503935,
                    "duration": 0.15000000000000568
                },
                {
                    "name": "D#5",
                    "midi": 75,
                    "time": 134.1000000000026,
                    "velocity": 0.2440944881889764,
                    "duration": 0.15000000000000568
                },
                {
                    "name": "G5",
                    "midi": 79,
                    "time": 134.1000000000026,
                    "velocity": 0.29133858267716534,
                    "duration": 0.15000000000000568
                },
                {
                    "name": "D#5",
                    "midi": 75,
                    "time": 134.25000000000261,
                    "velocity": 0.2047244094488189,
                    "duration": 0.15000000000000568
                },
                {
                    "name": "F5",
                    "midi": 77,
                    "time": 134.25000000000261,
                    "velocity": 0.2440944881889764,
                    "duration": 0.15000000000000568
                },
                {
                    "name": "F5",
                    "midi": 77,
                    "time": 134.40000000000262,
                    "velocity": 0.2755905511811024,
                    "duration": 0.15000000000000568
                },
                {
                    "name": "D5",
                    "midi": 74,
                    "time": 134.40000000000262,
                    "velocity": 0.2204724409448819,
                    "duration": 0.15000000000000568
                },
                {
                    "name": "D4",
                    "midi": 62,
                    "time": 134.70000000000263,
                    "velocity": 0.2755905511811024,
                    "duration": 0.08999999999997499
                },
                {
                    "name": "D#4",
                    "midi": 63,
                    "time": 134.77500000000262,
                    "velocity": 0.2755905511811024,
                    "duration": 0.08999999999997499
                },
                {
                    "name": "D4",
                    "midi": 62,
                    "time": 134.8500000000026,
                    "velocity": 0.2755905511811024,
                    "duration": 0.08999999999997499
                },
                {
                    "name": "E4",
                    "midi": 64,
                    "time": 134.9250000000026,
                    "velocity": 0.2755905511811024,
                    "duration": 0.08999999999997499
                },
                {
                    "name": "F4",
                    "midi": 65,
                    "time": 135.0000000000026,
                    "velocity": 0.28346456692913385,
                    "duration": 0.08999999999997499
                },
                {
                    "name": "F#4",
                    "midi": 66,
                    "time": 135.07500000000258,
                    "velocity": 0.28346456692913385,
                    "duration": 0.08999999999997499
                },
                {
                    "name": "F4",
                    "midi": 65,
                    "time": 135.15000000000256,
                    "velocity": 0.28346456692913385,
                    "duration": 0.08999999999997499
                },
                {
                    "name": "G4",
                    "midi": 67,
                    "time": 135.22500000000255,
                    "velocity": 0.28346456692913385,
                    "duration": 0.08999999999997499
                },
                {
                    "name": "G#4",
                    "midi": 68,
                    "time": 135.30000000000254,
                    "velocity": 0.28346456692913385,
                    "duration": 0.08999999999997499
                },
                {
                    "name": "A4",
                    "midi": 69,
                    "time": 135.37500000000253,
                    "velocity": 0.28346456692913385,
                    "duration": 0.08999999999997499
                },
                {
                    "name": "G#4",
                    "midi": 68,
                    "time": 135.45000000000252,
                    "velocity": 0.29133858267716534,
                    "duration": 0.08999999999997499
                },
                {
                    "name": "A#4",
                    "midi": 70,
                    "time": 135.5250000000025,
                    "velocity": 0.29133858267716534,
                    "duration": 0.08999999999997499
                },
                {
                    "name": "B4",
                    "midi": 71,
                    "time": 135.6000000000025,
                    "velocity": 0.29133858267716534,
                    "duration": 0.08999999999997499
                },
                {
                    "name": "C5",
                    "midi": 72,
                    "time": 135.67500000000248,
                    "velocity": 0.29133858267716534,
                    "duration": 0.08999999999997499
                },
                {
                    "name": "B4",
                    "midi": 71,
                    "time": 135.75000000000247,
                    "velocity": 0.2992125984251969,
                    "duration": 0.08999999999997499
                },
                {
                    "name": "C#5",
                    "midi": 73,
                    "time": 135.82500000000246,
                    "velocity": 0.2992125984251969,
                    "duration": 0.08999999999997499
                },
                {
                    "name": "D5",
                    "midi": 74,
                    "time": 135.90000000000245,
                    "velocity": 0.2992125984251969,
                    "duration": 0.08999999999997499
                },
                {
                    "name": "D#5",
                    "midi": 75,
                    "time": 135.97500000000244,
                    "velocity": 0.30708661417322836,
                    "duration": 0.08999999999997499
                },
                {
                    "name": "D5",
                    "midi": 74,
                    "time": 136.05000000000243,
                    "velocity": 0.30708661417322836,
                    "duration": 0.08999999999997499
                },
                {
                    "name": "E5",
                    "midi": 76,
                    "time": 136.12500000000242,
                    "velocity": 0.30708661417322836,
                    "duration": 0.08999999999997499
                },
                {
                    "name": "F5",
                    "midi": 77,
                    "time": 136.2000000000024,
                    "velocity": 0.30708661417322836,
                    "duration": 0.08999999999997499
                },
                {
                    "name": "F#5",
                    "midi": 78,
                    "time": 136.2750000000024,
                    "velocity": 0.2992125984251969,
                    "duration": 0.08999999999997499
                },
                {
                    "name": "F5",
                    "midi": 77,
                    "time": 136.35000000000238,
                    "velocity": 0.2992125984251969,
                    "duration": 0.08999999999997499
                },
                {
                    "name": "G5",
                    "midi": 79,
                    "time": 136.42500000000237,
                    "velocity": 0.2992125984251969,
                    "duration": 0.08999999999997499
                },
                {
                    "name": "G#5",
                    "midi": 80,
                    "time": 136.50000000000236,
                    "velocity": 0.2992125984251969,
                    "duration": 0.08999999999997499
                },
                {
                    "name": "A5",
                    "midi": 81,
                    "time": 136.57500000000235,
                    "velocity": 0.30708661417322836,
                    "duration": 0.08999999999997499
                },
                {
                    "name": "G#5",
                    "midi": 80,
                    "time": 136.65000000000234,
                    "velocity": 0.30708661417322836,
                    "duration": 0.08999999999997499
                },
                {
                    "name": "B5",
                    "midi": 83,
                    "time": 136.72500000000232,
                    "velocity": 0.30708661417322836,
                    "duration": 0.08999999999997499
                },
                {
                    "name": "D6",
                    "midi": 86,
                    "time": 136.8000000000023,
                    "velocity": 0.30708661417322836,
                    "duration": 0.07499999999998863
                },
                {
                    "name": "D#6",
                    "midi": 87,
                    "time": 136.8750000000023,
                    "velocity": 0.3228346456692913,
                    "duration": 0.07499999999998863
                },
                {
                    "name": "D6",
                    "midi": 86,
                    "time": 136.9500000000023,
                    "velocity": 0.3228346456692913,
                    "duration": 0.07499999999998863
                },
                {
                    "name": "F6",
                    "midi": 89,
                    "time": 137.02500000000228,
                    "velocity": 0.3228346456692913,
                    "duration": 0.07499999999998863
                },
                {
                    "name": "F#6",
                    "midi": 90,
                    "time": 137.10000000000227,
                    "velocity": 0.3228346456692913,
                    "duration": 0.07499999999998863
                },
                {
                    "name": "G6",
                    "midi": 91,
                    "time": 137.17500000000226,
                    "velocity": 0.33070866141732286,
                    "duration": 0.07499999999998863
                },
                {
                    "name": "F#6",
                    "midi": 90,
                    "time": 137.25000000000225,
                    "velocity": 0.33070866141732286,
                    "duration": 0.07499999999998863
                },
                {
                    "name": "G#6",
                    "midi": 92,
                    "time": 137.32500000000223,
                    "velocity": 0.33070866141732286,
                    "duration": 0.07499999999998863
                },
                {
                    "name": "A6",
                    "midi": 93,
                    "time": 137.40000000000222,
                    "velocity": 0.33858267716535434,
                    "duration": 0.07499999999998863
                },
                {
                    "name": "A#6",
                    "midi": 94,
                    "time": 137.4750000000022,
                    "velocity": 0.33858267716535434,
                    "duration": 0.07499999999998863
                },
                {
                    "name": "A6",
                    "midi": 93,
                    "time": 137.5500000000022,
                    "velocity": 0.33858267716535434,
                    "duration": 0.07499999999998863
                },
                {
                    "name": "C#7",
                    "midi": 97,
                    "time": 137.6250000000022,
                    "velocity": 0.33858267716535434,
                    "duration": 0.07499999999998863
                },
                {
                    "name": "D7",
                    "midi": 98,
                    "time": 137.70000000000218,
                    "velocity": 0.3464566929133858,
                    "duration": 0.07499999999998863
                },
                {
                    "name": "C#7",
                    "midi": 97,
                    "time": 137.77500000000217,
                    "velocity": 0.3464566929133858,
                    "duration": 0.07499999999998863
                },
                {
                    "name": "D7",
                    "midi": 98,
                    "time": 137.85000000000215,
                    "velocity": 0.3464566929133858,
                    "duration": 0.07499999999998863
                },
                {
                    "name": "C#7",
                    "midi": 97,
                    "time": 137.92500000000214,
                    "velocity": 0.3464566929133858,
                    "duration": 0.07499999999998863
                },
                {
                    "name": "C7",
                    "midi": 96,
                    "time": 138.00000000000213,
                    "velocity": 0.3543307086614173,
                    "duration": 0.07499999999998863
                },
                {
                    "name": "D#7",
                    "midi": 99,
                    "time": 138.00000000000213,
                    "velocity": 0.4330708661417323,
                    "duration": 0.2999999999999545
                },
                {
                    "name": "B6",
                    "midi": 95,
                    "time": 138.07500000000212,
                    "velocity": 0.30708661417322836,
                    "duration": 0.07499999999998863
                },
                {
                    "name": "C7",
                    "midi": 96,
                    "time": 138.1500000000021,
                    "velocity": 0.30708661417322836,
                    "duration": 0.07499999999998863
                },
                {
                    "name": "A#6",
                    "midi": 94,
                    "time": 138.2250000000021,
                    "velocity": 0.30708661417322836,
                    "duration": 0.07499999999998863
                },
                {
                    "name": "A6",
                    "midi": 93,
                    "time": 138.3000000000021,
                    "velocity": 0.30708661417322836,
                    "duration": 0.07499999999998863
                },
                {
                    "name": "G6",
                    "midi": 91,
                    "time": 138.37500000000207,
                    "velocity": 0.30708661417322836,
                    "duration": 0.07499999999998863
                },
                {
                    "name": "G#6",
                    "midi": 92,
                    "time": 138.45000000000206,
                    "velocity": 0.30708661417322836,
                    "duration": 0.07499999999998863
                },
                {
                    "name": "F#6",
                    "midi": 90,
                    "time": 138.52500000000205,
                    "velocity": 0.30708661417322836,
                    "duration": 0.07499999999998863
                },
                {
                    "name": "F6",
                    "midi": 89,
                    "time": 138.60000000000204,
                    "velocity": 0.3543307086614173,
                    "duration": 0.07499999999998863
                },
                {
                    "name": "F7",
                    "midi": 101,
                    "time": 138.60000000000204,
                    "velocity": 0.4251968503937008,
                    "duration": 0.2999999999999545
                },
                {
                    "name": "E6",
                    "midi": 88,
                    "time": 138.67500000000203,
                    "velocity": 0.30708661417322836,
                    "duration": 0.07499999999998863
                },
                {
                    "name": "F6",
                    "midi": 89,
                    "time": 138.75000000000202,
                    "velocity": 0.30708661417322836,
                    "duration": 0.07499999999998863
                },
                {
                    "name": "D#6",
                    "midi": 87,
                    "time": 138.825000000002,
                    "velocity": 0.30708661417322836,
                    "duration": 0.07499999999998863
                },
                {
                    "name": "D6",
                    "midi": 86,
                    "time": 138.900000000002,
                    "velocity": 0.30708661417322836,
                    "duration": 0.07499999999998863
                },
                {
                    "name": "C#6",
                    "midi": 85,
                    "time": 138.97500000000198,
                    "velocity": 0.30708661417322836,
                    "duration": 0.07499999999998863
                },
                {
                    "name": "C6",
                    "midi": 84,
                    "time": 139.05000000000197,
                    "velocity": 0.30708661417322836,
                    "duration": 0.07499999999998863
                },
                {
                    "name": "B5",
                    "midi": 83,
                    "time": 139.12500000000196,
                    "velocity": 0.30708661417322836,
                    "duration": 0.05000000000001137
                },
                {
                    "name": "A#5",
                    "midi": 82,
                    "time": 139.18750000000196,
                    "velocity": 0.3858267716535433,
                    "duration": 0.08749999999997726
                },
                {
                    "name": "D7",
                    "midi": 98,
                    "time": 139.20000000000195,
                    "velocity": 0.4566929133858268,
                    "duration": 0.07499999999998863
                },
                {
                    "name": "F3",
                    "midi": 53,
                    "time": 139.80000000000194,
                    "velocity": 0.23622047244094488,
                    "duration": 0.5999999999999943
                },
                {
                    "name": "D4",
                    "midi": 62,
                    "time": 139.80000000000194,
                    "velocity": 0.23622047244094488,
                    "duration": 0.5999999999999943
                },
                {
                    "name": "B3",
                    "midi": 59,
                    "time": 139.80000000000194,
                    "velocity": 0.23622047244094488,
                    "duration": 0.5999999999999943
                },
                {
                    "name": "G#3",
                    "midi": 56,
                    "time": 139.80000000000194,
                    "velocity": 0.23622047244094488,
                    "duration": 0.5999999999999943
                },
                {
                    "name": "D6",
                    "midi": 86,
                    "time": 140.55000000000194,
                    "velocity": 0.36220472440944884,
                    "duration": 0.07499999999998863
                },
                {
                    "name": "G#5",
                    "midi": 80,
                    "time": 140.55000000000194,
                    "velocity": 0.25984251968503935,
                    "duration": 0.07499999999998863
                },
                {
                    "name": "F5",
                    "midi": 77,
                    "time": 140.55000000000194,
                    "velocity": 0.25984251968503935,
                    "duration": 0.07499999999998863
                },
                {
                    "name": "C#6",
                    "midi": 85,
                    "time": 140.70000000000192,
                    "velocity": 0.36220472440944884,
                    "duration": 0.07499999999998863
                },
                {
                    "name": "G#5",
                    "midi": 80,
                    "time": 140.70000000000192,
                    "velocity": 0.25984251968503935,
                    "duration": 0.07499999999998863
                },
                {
                    "name": "F5",
                    "midi": 77,
                    "time": 140.70000000000192,
                    "velocity": 0.25984251968503935,
                    "duration": 0.07499999999998863
                },
                {
                    "name": "F5",
                    "midi": 77,
                    "time": 140.8500000000019,
                    "velocity": 0.25984251968503935,
                    "duration": 0.07499999999998863
                },
                {
                    "name": "C6",
                    "midi": 84,
                    "time": 140.8500000000019,
                    "velocity": 0.36220472440944884,
                    "duration": 0.07499999999998863
                },
                {
                    "name": "G#5",
                    "midi": 80,
                    "time": 140.8500000000019,
                    "velocity": 0.25984251968503935,
                    "duration": 0.07499999999998863
                },
                {
                    "name": "B5",
                    "midi": 83,
                    "time": 141.00000000000188,
                    "velocity": 0.36220472440944884,
                    "duration": 0.07499999999998863
                },
                {
                    "name": "G#5",
                    "midi": 80,
                    "time": 141.00000000000188,
                    "velocity": 0.25984251968503935,
                    "duration": 0.2999999999999545
                },
                {
                    "name": "D5",
                    "midi": 74,
                    "time": 141.00000000000188,
                    "velocity": 0.25984251968503935,
                    "duration": 0.2999999999999545
                },
                {
                    "name": "D6",
                    "midi": 86,
                    "time": 141.15000000000185,
                    "velocity": 0.3858267716535433,
                    "duration": 0.07499999999998863
                },
                {
                    "name": "D5",
                    "midi": 74,
                    "time": 141.30000000000183,
                    "velocity": 0.2125984251968504,
                    "duration": 0.07499999999998863
                },
                {
                    "name": "C#6",
                    "midi": 85,
                    "time": 141.30000000000183,
                    "velocity": 0.3937007874015748,
                    "duration": 0.07499999999998863
                },
                {
                    "name": "F5",
                    "midi": 77,
                    "time": 141.30000000000183,
                    "velocity": 0.2283464566929134,
                    "duration": 0.07499999999998863
                },
                {
                    "name": "C6",
                    "midi": 84,
                    "time": 141.37500000000182,
                    "velocity": 0.36220472440944884,
                    "duration": 0.07499999999998863
                },
                {
                    "name": "B5",
                    "midi": 83,
                    "time": 141.4500000000018,
                    "velocity": 0.36220472440944884,
                    "duration": 0.07499999999998863
                },
                {
                    "name": "D6",
                    "midi": 86,
                    "time": 141.60000000000178,
                    "velocity": 0.23622047244094488,
                    "duration": 0.15000000000000568
                },
                {
                    "name": "F#5",
                    "midi": 78,
                    "time": 141.60000000000178,
                    "velocity": 0.23622047244094488,
                    "duration": 0.15000000000000568
                },
                {
                    "name": "A6",
                    "midi": 93,
                    "time": 141.60000000000178,
                    "velocity": 0.2992125984251969,
                    "duration": 0.15000000000000568
                },
                {
                    "name": "C7",
                    "midi": 96,
                    "time": 142.8000000000018,
                    "velocity": 0.2992125984251969,
                    "duration": 0.15000000000000568
                },
                {
                    "name": "D#6",
                    "midi": 87,
                    "time": 142.8000000000018,
                    "velocity": 0.23622047244094488,
                    "duration": 0.15000000000000568
                },
                {
                    "name": "G5",
                    "midi": 79,
                    "time": 142.8000000000018,
                    "velocity": 0.23622047244094488,
                    "duration": 0.15000000000000568
                },
                {
                    "name": "D#6",
                    "midi": 87,
                    "time": 143.4000000000018,
                    "velocity": 0.23622047244094488,
                    "duration": 0.15000000000000568
                },
                {
                    "name": "A6",
                    "midi": 93,
                    "time": 143.4000000000018,
                    "velocity": 0.23622047244094488,
                    "duration": 0.15000000000000568
                },
                {
                    "name": "F7",
                    "midi": 101,
                    "time": 143.4000000000018,
                    "velocity": 0.2992125984251969,
                    "duration": 0.15000000000000568
                },
                {
                    "name": "D6",
                    "midi": 86,
                    "time": 144.0000000000018,
                    "velocity": 0.23622047244094488,
                    "duration": 0.07499999999998863
                },
                {
                    "name": "F7",
                    "midi": 101,
                    "time": 144.0000000000018,
                    "velocity": 0.2992125984251969,
                    "duration": 0.07499999999998863
                },
                {
                    "name": "A#6",
                    "midi": 94,
                    "time": 144.0000000000018,
                    "velocity": 0.23622047244094488,
                    "duration": 0.07499999999998863
                },
                {
                    "name": "D3",
                    "midi": 50,
                    "time": 144.15000000000177,
                    "velocity": 0.2440944881889764,
                    "duration": 0.07499999999998863
                },
                {
                    "name": "C3",
                    "midi": 48,
                    "time": 144.30000000000175,
                    "velocity": 0.28346456692913385,
                    "duration": 0.07499999999998863
                },
                {
                    "name": "B2",
                    "midi": 47,
                    "time": 144.45000000000172,
                    "velocity": 0.25196850393700787,
                    "duration": 0.07499999999998863
                },
                {
                    "name": "A#2",
                    "midi": 46,
                    "time": 144.6000000000017,
                    "velocity": 0.28346456692913385,
                    "duration": 0.07499999999998863
                },
                {
                    "name": "D3",
                    "midi": 50,
                    "time": 144.75000000000168,
                    "velocity": 0.25196850393700787,
                    "duration": 0.07499999999998863
                },
                {
                    "name": "C3",
                    "midi": 48,
                    "time": 144.90000000000165,
                    "velocity": 0.28346456692913385,
                    "duration": 0.07499999999998863
                },
                {
                    "name": "B2",
                    "midi": 47,
                    "time": 144.97500000000164,
                    "velocity": 0.2440944881889764,
                    "duration": 0.07499999999998863
                },
                {
                    "name": "A#2",
                    "midi": 46,
                    "time": 145.05000000000163,
                    "velocity": 0.2440944881889764,
                    "duration": 0.07499999999998863
                },
                {
                    "name": "D#6",
                    "midi": 87,
                    "time": 145.35000000000161,
                    "velocity": 0.29133858267716534,
                    "duration": 0.07499999999998863
                },
                {
                    "name": "C6",
                    "midi": 84,
                    "time": 145.4250000000016,
                    "velocity": 0.29133858267716534,
                    "duration": 0.07499999999998863
                },
                {
                    "name": "G#5",
                    "midi": 80,
                    "time": 145.5000000000016,
                    "velocity": 0.28346456692913385,
                    "duration": 0.07499999999998863
                },
                {
                    "name": "F5",
                    "midi": 77,
                    "time": 145.57500000000158,
                    "velocity": 0.28346456692913385,
                    "duration": 0.07499999999998863
                },
                {
                    "name": "A5",
                    "midi": 81,
                    "time": 145.65000000000157,
                    "velocity": 0.28346456692913385,
                    "duration": 0.07499999999998863
                },
                {
                    "name": "F#5",
                    "midi": 78,
                    "time": 145.72500000000156,
                    "velocity": 0.2755905511811024,
                    "duration": 0.07499999999998863
                },
                {
                    "name": "D5",
                    "midi": 74,
                    "time": 145.80000000000155,
                    "velocity": 0.2755905511811024,
                    "duration": 0.07499999999998863
                },
                {
                    "name": "B4",
                    "midi": 71,
                    "time": 145.87500000000153,
                    "velocity": 0.25984251968503935,
                    "duration": 0.07499999999998863
                },
                {
                    "name": "D#5",
                    "midi": 75,
                    "time": 145.95000000000152,
                    "velocity": 0.25984251968503935,
                    "duration": 0.07499999999998863
                },
                {
                    "name": "C5",
                    "midi": 72,
                    "time": 146.0250000000015,
                    "velocity": 0.25196850393700787,
                    "duration": 0.07499999999998863
                },
                {
                    "name": "G#4",
                    "midi": 68,
                    "time": 146.1000000000015,
                    "velocity": 0.25196850393700787,
                    "duration": 0.07499999999998863
                },
                {
                    "name": "F4",
                    "midi": 65,
                    "time": 146.1750000000015,
                    "velocity": 0.2440944881889764,
                    "duration": 0.07499999999998863
                },
                {
                    "name": "A4",
                    "midi": 69,
                    "time": 146.25000000000148,
                    "velocity": 0.23622047244094488,
                    "duration": 0.07499999999998863
                },
                {
                    "name": "F#5",
                    "midi": 78,
                    "time": 146.32500000000147,
                    "velocity": 0.23622047244094488,
                    "duration": 0.07499999999998863
                },
                {
                    "name": "F5",
                    "midi": 77,
                    "time": 146.40000000000146,
                    "velocity": 0.2992125984251969,
                    "duration": 0.15000000000000568
                },
                {
                    "name": "A#4",
                    "midi": 70,
                    "time": 146.40000000000146,
                    "velocity": 0.2992125984251969,
                    "duration": 0.15000000000000568
                },
                {
                    "name": "D3",
                    "midi": 50,
                    "time": 146.55000000000146,
                    "velocity": 0.2440944881889764,
                    "duration": 0.07499999999998863
                },
                {
                    "name": "C3",
                    "midi": 48,
                    "time": 146.70000000000144,
                    "velocity": 0.28346456692913385,
                    "duration": 0.07499999999998863
                },
                {
                    "name": "B2",
                    "midi": 47,
                    "time": 146.85000000000142,
                    "velocity": 0.25196850393700787,
                    "duration": 0.07499999999998863
                },
                {
                    "name": "A#2",
                    "midi": 46,
                    "time": 147.0000000000014,
                    "velocity": 0.28346456692913385,
                    "duration": 0.07499999999998863
                },
                {
                    "name": "D3",
                    "midi": 50,
                    "time": 147.15000000000137,
                    "velocity": 0.25196850393700787,
                    "duration": 0.07499999999998863
                },
                {
                    "name": "C3",
                    "midi": 48,
                    "time": 147.30000000000135,
                    "velocity": 0.28346456692913385,
                    "duration": 0.07499999999998863
                },
                {
                    "name": "B2",
                    "midi": 47,
                    "time": 147.37500000000134,
                    "velocity": 0.2440944881889764,
                    "duration": 0.07499999999998863
                },
                {
                    "name": "A#2",
                    "midi": 46,
                    "time": 147.45000000000132,
                    "velocity": 0.2440944881889764,
                    "duration": 0.07499999999998863
                },
                {
                    "name": "D#6",
                    "midi": 87,
                    "time": 147.7500000000013,
                    "velocity": 0.29133858267716534,
                    "duration": 0.07499999999998863
                },
                {
                    "name": "C6",
                    "midi": 84,
                    "time": 147.8250000000013,
                    "velocity": 0.29133858267716534,
                    "duration": 0.07499999999998863
                },
                {
                    "name": "G#5",
                    "midi": 80,
                    "time": 147.90000000000128,
                    "velocity": 0.28346456692913385,
                    "duration": 0.07499999999998863
                },
                {
                    "name": "F5",
                    "midi": 77,
                    "time": 147.97500000000127,
                    "velocity": 0.28346456692913385,
                    "duration": 0.07499999999998863
                },
                {
                    "name": "A5",
                    "midi": 81,
                    "time": 148.05000000000126,
                    "velocity": 0.28346456692913385,
                    "duration": 0.07499999999998863
                },
                {
                    "name": "F#5",
                    "midi": 78,
                    "time": 148.12500000000125,
                    "velocity": 0.2755905511811024,
                    "duration": 0.07499999999998863
                },
                {
                    "name": "D5",
                    "midi": 74,
                    "time": 148.20000000000124,
                    "velocity": 0.2755905511811024,
                    "duration": 0.07499999999998863
                },
                {
                    "name": "B4",
                    "midi": 71,
                    "time": 148.27500000000123,
                    "velocity": 0.25984251968503935,
                    "duration": 0.07499999999998863
                },
                {
                    "name": "D#5",
                    "midi": 75,
                    "time": 148.35000000000122,
                    "velocity": 0.25984251968503935,
                    "duration": 0.07499999999998863
                },
                {
                    "name": "C5",
                    "midi": 72,
                    "time": 148.4250000000012,
                    "velocity": 0.25196850393700787,
                    "duration": 0.07499999999998863
                },
                {
                    "name": "G#4",
                    "midi": 68,
                    "time": 148.5000000000012,
                    "velocity": 0.25196850393700787,
                    "duration": 0.07499999999998863
                },
                {
                    "name": "F4",
                    "midi": 65,
                    "time": 148.57500000000118,
                    "velocity": 0.2440944881889764,
                    "duration": 0.07499999999998863
                },
                {
                    "name": "A4",
                    "midi": 69,
                    "time": 148.65000000000117,
                    "velocity": 0.23622047244094488,
                    "duration": 0.07499999999998863
                },
                {
                    "name": "F#5",
                    "midi": 78,
                    "time": 148.72500000000116,
                    "velocity": 0.23622047244094488,
                    "duration": 0.048750000000012506
                },
                {
                    "name": "C4",
                    "midi": 60,
                    "time": 148.80000000000118,
                    "velocity": 0.28346456692913385,
                    "duration": 0.07499999999998863
                },
                {
                    "name": "F#4",
                    "midi": 66,
                    "time": 148.80000000000118,
                    "velocity": 0.28346456692913385,
                    "duration": 0.07499999999998863
                },
                {
                    "name": "F#6",
                    "midi": 90,
                    "time": 148.95000000000115,
                    "velocity": 0.3228346456692913,
                    "duration": 0.07499999999998863
                },
                {
                    "name": "D#6",
                    "midi": 87,
                    "time": 149.02500000000114,
                    "velocity": 0.3228346456692913,
                    "duration": 0.07499999999998863
                },
                {
                    "name": "B5",
                    "midi": 83,
                    "time": 149.10000000000113,
                    "velocity": 0.30708661417322836,
                    "duration": 0.07499999999998863
                },
                {
                    "name": "G#5",
                    "midi": 80,
                    "time": 149.17500000000112,
                    "velocity": 0.30708661417322836,
                    "duration": 0.07499999999998863
                },
                {
                    "name": "C6",
                    "midi": 84,
                    "time": 149.2500000000011,
                    "velocity": 0.2992125984251969,
                    "duration": 0.07499999999998863
                },
                {
                    "name": "A5",
                    "midi": 81,
                    "time": 149.3250000000011,
                    "velocity": 0.29133858267716534,
                    "duration": 0.07499999999998863
                },
                {
                    "name": "F5",
                    "midi": 77,
                    "time": 149.40000000000109,
                    "velocity": 0.29133858267716534,
                    "duration": 0.07499999999998863
                },
                {
                    "name": "D5",
                    "midi": 74,
                    "time": 149.47500000000107,
                    "velocity": 0.28346456692913385,
                    "duration": 0.07499999999998863
                },
                {
                    "name": "F#5",
                    "midi": 78,
                    "time": 149.55000000000106,
                    "velocity": 0.28346456692913385,
                    "duration": 0.07499999999998863
                },
                {
                    "name": "D#5",
                    "midi": 75,
                    "time": 149.62500000000105,
                    "velocity": 0.28346456692913385,
                    "duration": 0.07499999999998863
                },
                {
                    "name": "B4",
                    "midi": 71,
                    "time": 149.70000000000104,
                    "velocity": 0.28346456692913385,
                    "duration": 0.07499999999998863
                },
                {
                    "name": "G#4",
                    "midi": 68,
                    "time": 149.77500000000103,
                    "velocity": 0.2755905511811024,
                    "duration": 0.07499999999998863
                },
                {
                    "name": "C5",
                    "midi": 72,
                    "time": 149.85000000000102,
                    "velocity": 0.25984251968503935,
                    "duration": 0.07499999999998863
                },
                {
                    "name": "A5",
                    "midi": 81,
                    "time": 149.925000000001,
                    "velocity": 0.25984251968503935,
                    "duration": 0.07499999999998863
                },
                {
                    "name": "A4",
                    "midi": 69,
                    "time": 150.000000000001,
                    "velocity": 0.28346456692913385,
                    "duration": 0.07499999999998863
                },
                {
                    "name": "D#4",
                    "midi": 63,
                    "time": 150.000000000001,
                    "velocity": 0.28346456692913385,
                    "duration": 0.07499999999998863
                },
                {
                    "name": "A6",
                    "midi": 93,
                    "time": 150.15000000000097,
                    "velocity": 0.3228346456692913,
                    "duration": 0.07499999999998863
                },
                {
                    "name": "F#6",
                    "midi": 90,
                    "time": 150.22500000000096,
                    "velocity": 0.3228346456692913,
                    "duration": 0.07499999999998863
                },
                {
                    "name": "D6",
                    "midi": 86,
                    "time": 150.30000000000095,
                    "velocity": 0.30708661417322836,
                    "duration": 0.07499999999998863
                },
                {
                    "name": "B5",
                    "midi": 83,
                    "time": 150.37500000000094,
                    "velocity": 0.30708661417322836,
                    "duration": 0.07499999999998863
                },
                {
                    "name": "D#6",
                    "midi": 87,
                    "time": 150.45000000000093,
                    "velocity": 0.2992125984251969,
                    "duration": 0.07499999999998863
                },
                {
                    "name": "C6",
                    "midi": 84,
                    "time": 150.52500000000092,
                    "velocity": 0.29133858267716534,
                    "duration": 0.07499999999998863
                },
                {
                    "name": "C7",
                    "midi": 96,
                    "time": 150.6000000000009,
                    "velocity": 0.29133858267716534,
                    "duration": 0.07499999999998863
                },
                {
                    "name": "A6",
                    "midi": 93,
                    "time": 150.6750000000009,
                    "velocity": 0.28346456692913385,
                    "duration": 0.07499999999998863
                },
                {
                    "name": "F6",
                    "midi": 89,
                    "time": 150.75000000000088,
                    "velocity": 0.28346456692913385,
                    "duration": 0.07499999999998863
                },
                {
                    "name": "D6",
                    "midi": 86,
                    "time": 150.82500000000087,
                    "velocity": 0.28346456692913385,
                    "duration": 0.07499999999998863
                },
                {
                    "name": "F#6",
                    "midi": 90,
                    "time": 150.90000000000086,
                    "velocity": 0.28346456692913385,
                    "duration": 0.07499999999998863
                },
                {
                    "name": "D#6",
                    "midi": 87,
                    "time": 150.97500000000085,
                    "velocity": 0.2755905511811024,
                    "duration": 0.07499999999998863
                },
                {
                    "name": "D#7",
                    "midi": 99,
                    "time": 151.05000000000084,
                    "velocity": 0.25984251968503935,
                    "duration": 0.07499999999998863
                },
                {
                    "name": "C7",
                    "midi": 96,
                    "time": 151.12500000000082,
                    "velocity": 0.25984251968503935,
                    "duration": 0.07499999999998863
                },
                {
                    "name": "G#6",
                    "midi": 92,
                    "time": 151.2000000000008,
                    "velocity": 0.3228346456692913,
                    "duration": 0.07499999999998863
                },
                {
                    "name": "F6",
                    "midi": 89,
                    "time": 151.2750000000008,
                    "velocity": 0.28346456692913385,
                    "duration": 0.07499999999998863
                },
                {
                    "name": "A6",
                    "midi": 93,
                    "time": 151.3500000000008,
                    "velocity": 0.33070866141732286,
                    "duration": 0.07499999999998863
                },
                {
                    "name": "F#6",
                    "midi": 90,
                    "time": 151.42500000000078,
                    "velocity": 0.28346456692913385,
                    "duration": 0.07499999999998863
                },
                {
                    "name": "E7",
                    "midi": 100,
                    "time": 151.50000000000077,
                    "velocity": 0.2992125984251969,
                    "duration": 0.07499999999998863
                },
                {
                    "name": "D#6",
                    "midi": 87,
                    "time": 151.57500000000076,
                    "velocity": 0.2440944881889764,
                    "duration": 0.07499999999998863
                },
                {
                    "name": "F7",
                    "midi": 101,
                    "time": 151.65000000000074,
                    "velocity": 0.28346456692913385,
                    "duration": 0.07499999999998863
                },
                {
                    "name": "D#6",
                    "midi": 87,
                    "time": 151.72500000000073,
                    "velocity": 0.2125984251968504,
                    "duration": 0.07499999999998863
                },
                {
                    "name": "E7",
                    "midi": 100,
                    "time": 151.80000000000072,
                    "velocity": 0.3543307086614173,
                    "duration": 0.07499999999998863
                },
                {
                    "name": "D#6",
                    "midi": 87,
                    "time": 151.8750000000007,
                    "velocity": 0.2125984251968504,
                    "duration": 0.07499999999998863
                },
                {
                    "name": "F7",
                    "midi": 101,
                    "time": 151.9500000000007,
                    "velocity": 0.33070866141732286,
                    "duration": 0.07499999999998863
                },
                {
                    "name": "D#6",
                    "midi": 87,
                    "time": 152.0250000000007,
                    "velocity": 0.2283464566929134,
                    "duration": 0.07499999999998863
                },
                {
                    "name": "E7",
                    "midi": 100,
                    "time": 152.10000000000068,
                    "velocity": 0.29133858267716534,
                    "duration": 0.07499999999998863
                },
                {
                    "name": "D#6",
                    "midi": 87,
                    "time": 152.17500000000067,
                    "velocity": 0.2283464566929134,
                    "duration": 0.07499999999998863
                },
                {
                    "name": "F7",
                    "midi": 101,
                    "time": 152.25000000000065,
                    "velocity": 0.29133858267716534,
                    "duration": 0.07499999999998863
                },
                {
                    "name": "D#6",
                    "midi": 87,
                    "time": 152.32500000000064,
                    "velocity": 0.2283464566929134,
                    "duration": 0.07499999999998863
                },
                {
                    "name": "F7",
                    "midi": 101,
                    "time": 152.40000000000063,
                    "velocity": 0.33858267716535434,
                    "duration": 0.15000000000000568
                },
                {
                    "name": "F#6",
                    "midi": 90,
                    "time": 152.55000000000064,
                    "velocity": 0.2204724409448819,
                    "duration": 0.07499999999998863
                },
                {
                    "name": "D7",
                    "midi": 98,
                    "time": 152.55000000000064,
                    "velocity": 0.2755905511811024,
                    "duration": 0.07499999999998863
                },
                {
                    "name": "A#6",
                    "midi": 94,
                    "time": 152.62500000000063,
                    "velocity": 0.2440944881889764,
                    "duration": 0.07499999999998863
                },
                {
                    "name": "F6",
                    "midi": 89,
                    "time": 152.62500000000063,
                    "velocity": 0.2047244094488189,
                    "duration": 0.07499999999998863
                },
                {
                    "name": "D6",
                    "midi": 86,
                    "time": 152.7000000000006,
                    "velocity": 0.1968503937007874,
                    "duration": 0.07499999999998863
                },
                {
                    "name": "F#6",
                    "midi": 90,
                    "time": 152.7000000000006,
                    "velocity": 0.23622047244094488,
                    "duration": 0.07499999999998863
                },
                {
                    "name": "F6",
                    "midi": 89,
                    "time": 152.7750000000006,
                    "velocity": 0.2283464566929134,
                    "duration": 0.07499999999998863
                },
                {
                    "name": "A#5",
                    "midi": 82,
                    "time": 152.7750000000006,
                    "velocity": 0.1889763779527559,
                    "duration": 0.07499999999998863
                },
                {
                    "name": "F#5",
                    "midi": 78,
                    "time": 152.8500000000006,
                    "velocity": 0.18110236220472442,
                    "duration": 0.07499999999998863
                },
                {
                    "name": "D6",
                    "midi": 86,
                    "time": 152.8500000000006,
                    "velocity": 0.2204724409448819,
                    "duration": 0.07499999999998863
                },
                {
                    "name": "A#5",
                    "midi": 82,
                    "time": 152.92500000000058,
                    "velocity": 0.2204724409448819,
                    "duration": 0.07499999999998863
                },
                {
                    "name": "F5",
                    "midi": 77,
                    "time": 152.92500000000058,
                    "velocity": 0.18110236220472442,
                    "duration": 0.07499999999998863
                },
                {
                    "name": "F#5",
                    "midi": 78,
                    "time": 153.00000000000057,
                    "velocity": 0.2125984251968504,
                    "duration": 0.07499999999998863
                },
                {
                    "name": "D5",
                    "midi": 74,
                    "time": 153.00000000000057,
                    "velocity": 0.1732283464566929,
                    "duration": 0.07499999999998863
                },
                {
                    "name": "F5",
                    "midi": 77,
                    "time": 153.07500000000056,
                    "velocity": 0.2204724409448819,
                    "duration": 0.07499999999998863
                },
                {
                    "name": "A#4",
                    "midi": 70,
                    "time": 153.07500000000056,
                    "velocity": 0.18110236220472442,
                    "duration": 0.07499999999998863
                },
                {
                    "name": "F#5",
                    "midi": 78,
                    "time": 153.15000000000055,
                    "velocity": 0.2283464566929134,
                    "duration": 0.07499999999998863
                },
                {
                    "name": "D5",
                    "midi": 74,
                    "time": 153.15000000000055,
                    "velocity": 0.1889763779527559,
                    "duration": 0.07499999999998863
                },
                {
                    "name": "F5",
                    "midi": 77,
                    "time": 153.22500000000053,
                    "velocity": 0.1968503937007874,
                    "duration": 0.07499999999998863
                },
                {
                    "name": "A#5",
                    "midi": 82,
                    "time": 153.22500000000053,
                    "velocity": 0.23622047244094488,
                    "duration": 0.07499999999998863
                },
                {
                    "name": "D6",
                    "midi": 86,
                    "time": 153.30000000000052,
                    "velocity": 0.2440944881889764,
                    "duration": 0.07499999999998863
                },
                {
                    "name": "F#5",
                    "midi": 78,
                    "time": 153.30000000000052,
                    "velocity": 0.2047244094488189,
                    "duration": 0.07499999999998863
                },
                {
                    "name": "A#5",
                    "midi": 82,
                    "time": 153.3750000000005,
                    "velocity": 0.2125984251968504,
                    "duration": 0.07499999999998863
                },
                {
                    "name": "F6",
                    "midi": 89,
                    "time": 153.3750000000005,
                    "velocity": 0.25196850393700787,
                    "duration": 0.07499999999998863
                },
                {
                    "name": "F#6",
                    "midi": 90,
                    "time": 153.4500000000005,
                    "velocity": 0.25984251968503935,
                    "duration": 0.07499999999998863
                },
                {
                    "name": "D6",
                    "midi": 86,
                    "time": 153.4500000000005,
                    "velocity": 0.2204724409448819,
                    "duration": 0.07499999999998863
                },
                {
                    "name": "A#6",
                    "midi": 94,
                    "time": 153.5250000000005,
                    "velocity": 0.2755905511811024,
                    "duration": 0.07499999999998863
                },
                {
                    "name": "F6",
                    "midi": 89,
                    "time": 153.5250000000005,
                    "velocity": 0.2204724409448819,
                    "duration": 0.07499999999998863
                },
                {
                    "name": "A#5",
                    "midi": 82,
                    "time": 153.60000000000048,
                    "velocity": 0.2283464566929134,
                    "duration": 0.07499999999998863
                },
                {
                    "name": "D7",
                    "midi": 98,
                    "time": 153.60000000000048,
                    "velocity": 0.28346456692913385,
                    "duration": 0.07499999999998863
                },
                {
                    "name": "D6",
                    "midi": 86,
                    "time": 153.75000000000045,
                    "velocity": 0.25196850393700787,
                    "duration": 0.07499999999998863
                },
                {
                    "name": "F#5",
                    "midi": 78,
                    "time": 153.75000000000045,
                    "velocity": 0.2125984251968504,
                    "duration": 0.07499999999998863
                },
                {
                    "name": "A#5",
                    "midi": 82,
                    "time": 153.82500000000044,
                    "velocity": 0.2283464566929134,
                    "duration": 0.07499999999998863
                },
                {
                    "name": "F5",
                    "midi": 77,
                    "time": 153.82500000000044,
                    "velocity": 0.1889763779527559,
                    "duration": 0.07499999999998863
                },
                {
                    "name": "D5",
                    "midi": 74,
                    "time": 153.90000000000043,
                    "velocity": 0.18110236220472442,
                    "duration": 0.07499999999998863
                },
                {
                    "name": "F#5",
                    "midi": 78,
                    "time": 153.90000000000043,
                    "velocity": 0.2204724409448819,
                    "duration": 0.07499999999998863
                },
                {
                    "name": "A#4",
                    "midi": 70,
                    "time": 153.97500000000042,
                    "velocity": 0.1732283464566929,
                    "duration": 0.07499999999998863
                },
                {
                    "name": "F5",
                    "midi": 77,
                    "time": 153.97500000000042,
                    "velocity": 0.2204724409448819,
                    "duration": 0.07499999999998863
                },
                {
                    "name": "D5",
                    "midi": 74,
                    "time": 154.0500000000004,
                    "velocity": 0.2125984251968504,
                    "duration": 0.07499999999998863
                },
                {
                    "name": "F#4",
                    "midi": 66,
                    "time": 154.0500000000004,
                    "velocity": 0.1732283464566929,
                    "duration": 0.07499999999998863
                },
                {
                    "name": "F4",
                    "midi": 65,
                    "time": 154.1250000000004,
                    "velocity": 0.1732283464566929,
                    "duration": 0.07499999999998863
                },
                {
                    "name": "A#4",
                    "midi": 70,
                    "time": 154.1250000000004,
                    "velocity": 0.2047244094488189,
                    "duration": 0.07499999999998863
                },
                {
                    "name": "D4",
                    "midi": 62,
                    "time": 154.2000000000004,
                    "velocity": 0.16535433070866143,
                    "duration": 0.07499999999998863
                },
                {
                    "name": "F#4",
                    "midi": 66,
                    "time": 154.2000000000004,
                    "velocity": 0.1968503937007874,
                    "duration": 0.07499999999998863
                },
                {
                    "name": "F4",
                    "midi": 65,
                    "time": 154.27500000000038,
                    "velocity": 0.2047244094488189,
                    "duration": 0.07499999999998863
                },
                {
                    "name": "A#3",
                    "midi": 58,
                    "time": 154.27500000000038,
                    "velocity": 0.1732283464566929,
                    "duration": 0.07499999999998863
                },
                {
                    "name": "D4",
                    "midi": 62,
                    "time": 154.35000000000036,
                    "velocity": 0.1732283464566929,
                    "duration": 0.07499999999998863
                },
                {
                    "name": "F#4",
                    "midi": 66,
                    "time": 154.35000000000036,
                    "velocity": 0.2204724409448819,
                    "duration": 0.07499999999998863
                },
                {
                    "name": "A#4",
                    "midi": 70,
                    "time": 154.42500000000035,
                    "velocity": 0.2204724409448819,
                    "duration": 0.07499999999998863
                },
                {
                    "name": "F4",
                    "midi": 65,
                    "time": 154.42500000000035,
                    "velocity": 0.18110236220472442,
                    "duration": 0.07499999999998863
                },
                {
                    "name": "F#4",
                    "midi": 66,
                    "time": 154.50000000000034,
                    "velocity": 0.1889763779527559,
                    "duration": 0.07499999999998863
                },
                {
                    "name": "D5",
                    "midi": 74,
                    "time": 154.50000000000034,
                    "velocity": 0.2283464566929134,
                    "duration": 0.07499999999998863
                },
                {
                    "name": "F5",
                    "midi": 77,
                    "time": 154.57500000000033,
                    "velocity": 0.23622047244094488,
                    "duration": 0.07499999999998863
                },
                {
                    "name": "A#4",
                    "midi": 70,
                    "time": 154.57500000000033,
                    "velocity": 0.1968503937007874,
                    "duration": 0.07499999999998863
                },
                {
                    "name": "F#5",
                    "midi": 78,
                    "time": 154.65000000000032,
                    "velocity": 0.2440944881889764,
                    "duration": 0.07499999999998863
                },
                {
                    "name": "D5",
                    "midi": 74,
                    "time": 154.65000000000032,
                    "velocity": 0.2047244094488189,
                    "duration": 0.07499999999998863
                },
                {
                    "name": "F5",
                    "midi": 77,
                    "time": 154.7250000000003,
                    "velocity": 0.2125984251968504,
                    "duration": 0.07499999999998863
                },
                {
                    "name": "A#5",
                    "midi": 82,
                    "time": 154.7250000000003,
                    "velocity": 0.25196850393700787,
                    "duration": 0.07499999999998863
                },
                {
                    "name": "D6",
                    "midi": 86,
                    "time": 154.8000000000003,
                    "velocity": 0.25984251968503935,
                    "duration": 0.07499999999998863
                },
                {
                    "name": "A#4",
                    "midi": 70,
                    "time": 154.8000000000003,
                    "velocity": 0.2204724409448819,
                    "duration": 0.07499999999998863
                },
                {
                    "name": "D5",
                    "midi": 74,
                    "time": 154.95000000000027,
                    "velocity": 0.2283464566929134,
                    "duration": 0.07499999999998863
                },
                {
                    "name": "F#4",
                    "midi": 66,
                    "time": 154.95000000000027,
                    "velocity": 0.2283464566929134,
                    "duration": 0.07499999999998863
                },
                {
                    "name": "A#4",
                    "midi": 70,
                    "time": 155.02500000000026,
                    "velocity": 0.2204724409448819,
                    "duration": 0.07499999999998863
                },
                {
                    "name": "F4",
                    "midi": 65,
                    "time": 155.02500000000026,
                    "velocity": 0.2204724409448819,
                    "duration": 0.07499999999998863
                },
                {
                    "name": "D4",
                    "midi": 62,
                    "time": 155.10000000000025,
                    "velocity": 0.2125984251968504,
                    "duration": 0.07499999999998863
                },
                {
                    "name": "F#4",
                    "midi": 66,
                    "time": 155.10000000000025,
                    "velocity": 0.2125984251968504,
                    "duration": 0.07499999999998863
                },
                {
                    "name": "A#3",
                    "midi": 58,
                    "time": 155.17500000000024,
                    "velocity": 0.2047244094488189,
                    "duration": 0.07499999999998863
                },
                {
                    "name": "F4",
                    "midi": 65,
                    "time": 155.17500000000024,
                    "velocity": 0.2047244094488189,
                    "duration": 0.07499999999998863
                },
                {
                    "name": "F#3",
                    "midi": 54,
                    "time": 155.25000000000023,
                    "velocity": 0.1889763779527559,
                    "duration": 0.07499999999998863
                },
                {
                    "name": "D4",
                    "midi": 62,
                    "time": 155.25000000000023,
                    "velocity": 0.1889763779527559,
                    "duration": 0.07499999999998863
                },
                {
                    "name": "F3",
                    "midi": 53,
                    "time": 155.32500000000022,
                    "velocity": 0.18110236220472442,
                    "duration": 0.07499999999998863
                },
                {
                    "name": "A#3",
                    "midi": 58,
                    "time": 155.32500000000022,
                    "velocity": 0.18110236220472442,
                    "duration": 0.07499999999998863
                },
                {
                    "name": "D4",
                    "midi": 62,
                    "time": 155.4000000000002,
                    "velocity": 0.1732283464566929,
                    "duration": 0.07499999999998863
                },
                {
                    "name": "F#3",
                    "midi": 54,
                    "time": 155.4000000000002,
                    "velocity": 0.1732283464566929,
                    "duration": 0.07499999999998863
                },
                {
                    "name": "A#3",
                    "midi": 58,
                    "time": 155.4750000000002,
                    "velocity": 0.16535433070866143,
                    "duration": 0.07499999999998863
                },
                {
                    "name": "F4",
                    "midi": 65,
                    "time": 155.4750000000002,
                    "velocity": 0.16535433070866143,
                    "duration": 0.07499999999998863
                },
                {
                    "name": "D4",
                    "midi": 62,
                    "time": 155.55000000000018,
                    "velocity": 0.16535433070866143,
                    "duration": 0.07499999999998863
                },
                {
                    "name": "F#4",
                    "midi": 66,
                    "time": 155.55000000000018,
                    "velocity": 0.16535433070866143,
                    "duration": 0.07499999999998863
                },
                {
                    "name": "A#4",
                    "midi": 70,
                    "time": 155.62500000000017,
                    "velocity": 0.1732283464566929,
                    "duration": 0.07499999999998863
                },
                {
                    "name": "F4",
                    "midi": 65,
                    "time": 155.62500000000017,
                    "velocity": 0.1732283464566929,
                    "duration": 0.07499999999998863
                },
                {
                    "name": "D5",
                    "midi": 74,
                    "time": 155.70000000000016,
                    "velocity": 0.1732283464566929,
                    "duration": 0.07499999999998863
                },
                {
                    "name": "F#4",
                    "midi": 66,
                    "time": 155.70000000000016,
                    "velocity": 0.1732283464566929,
                    "duration": 0.07499999999998863
                },
                {
                    "name": "A#4",
                    "midi": 70,
                    "time": 155.77500000000015,
                    "velocity": 0.1889763779527559,
                    "duration": 0.07499999999998863
                },
                {
                    "name": "F5",
                    "midi": 77,
                    "time": 155.77500000000015,
                    "velocity": 0.1889763779527559,
                    "duration": 0.07499999999998863
                },
                {
                    "name": "D5",
                    "midi": 74,
                    "time": 155.85000000000014,
                    "velocity": 0.2047244094488189,
                    "duration": 0.07499999999998863
                },
                {
                    "name": "F#5",
                    "midi": 78,
                    "time": 155.85000000000014,
                    "velocity": 0.2047244094488189,
                    "duration": 0.07499999999998863
                },
                {
                    "name": "F5",
                    "midi": 77,
                    "time": 155.92500000000013,
                    "velocity": 0.2125984251968504,
                    "duration": 0.07499999999998863
                },
                {
                    "name": "A#5",
                    "midi": 82,
                    "time": 155.92500000000013,
                    "velocity": 0.2125984251968504,
                    "duration": 0.07499999999998863
                },
                {
                    "name": "D6",
                    "midi": 86,
                    "time": 156.0000000000001,
                    "velocity": 0.2204724409448819,
                    "duration": 0.07499999999998863
                },
                {
                    "name": "F#5",
                    "midi": 78,
                    "time": 156.0000000000001,
                    "velocity": 0.2204724409448819,
                    "duration": 0.07499999999998863
                },
                {
                    "name": "A#5",
                    "midi": 82,
                    "time": 156.0750000000001,
                    "velocity": 0.2283464566929134,
                    "duration": 0.07499999999998863
                },
                {
                    "name": "F6",
                    "midi": 89,
                    "time": 156.0750000000001,
                    "velocity": 0.2283464566929134,
                    "duration": 0.07499999999998863
                },
                {
                    "name": "D6",
                    "midi": 86,
                    "time": 156.1500000000001,
                    "velocity": 0.23622047244094488,
                    "duration": 0.07499999999998863
                },
                {
                    "name": "F#6",
                    "midi": 90,
                    "time": 156.1500000000001,
                    "velocity": 0.23622047244094488,
                    "duration": 0.07499999999998863
                },
                {
                    "name": "A#6",
                    "midi": 94,
                    "time": 156.22500000000008,
                    "velocity": 0.25196850393700787,
                    "duration": 0.07499999999998863
                },
                {
                    "name": "F6",
                    "midi": 89,
                    "time": 156.22500000000008,
                    "velocity": 0.25196850393700787,
                    "duration": 0.07499999999998863
                },
                {
                    "name": "F#6",
                    "midi": 90,
                    "time": 156.30000000000007,
                    "velocity": 0.2204724409448819,
                    "duration": 0.07499999999998863
                },
                {
                    "name": "D7",
                    "midi": 98,
                    "time": 156.30000000000007,
                    "velocity": 0.2755905511811024,
                    "duration": 0.07499999999998863
                },
                {
                    "name": "A#6",
                    "midi": 94,
                    "time": 156.37500000000006,
                    "velocity": 0.2204724409448819,
                    "duration": 0.07499999999998863
                },
                {
                    "name": "F6",
                    "midi": 89,
                    "time": 156.37500000000006,
                    "velocity": 0.1732283464566929,
                    "duration": 0.07499999999998863
                },
                {
                    "name": "F#6",
                    "midi": 90,
                    "time": 156.45000000000005,
                    "velocity": 0.2047244094488189,
                    "duration": 0.07499999999998863
                },
                {
                    "name": "D6",
                    "midi": 86,
                    "time": 156.45000000000005,
                    "velocity": 0.1732283464566929,
                    "duration": 0.07499999999998863
                },
                {
                    "name": "A#5",
                    "midi": 82,
                    "time": 156.52500000000003,
                    "velocity": 0.1732283464566929,
                    "duration": 0.07499999999998863
                },
                {
                    "name": "F6",
                    "midi": 89,
                    "time": 156.52500000000003,
                    "velocity": 0.2047244094488189,
                    "duration": 0.07499999999998863
                },
                {
                    "name": "F#6",
                    "midi": 90,
                    "time": 156.60000000000002,
                    "velocity": 0.2125984251968504,
                    "duration": 0.07499999999998863
                },
                {
                    "name": "D7",
                    "midi": 98,
                    "time": 156.60000000000002,
                    "velocity": 0.25196850393700787,
                    "duration": 0.07499999999998863
                },
                {
                    "name": "F6",
                    "midi": 89,
                    "time": 156.675,
                    "velocity": 0.16535433070866143,
                    "duration": 0.07499999999998863
                },
                {
                    "name": "A#6",
                    "midi": 94,
                    "time": 156.675,
                    "velocity": 0.2047244094488189,
                    "duration": 0.07499999999998863
                },
                {
                    "name": "D6",
                    "midi": 86,
                    "time": 156.75,
                    "velocity": 0.16535433070866143,
                    "duration": 0.07499999999998863
                },
                {
                    "name": "F#6",
                    "midi": 90,
                    "time": 156.75,
                    "velocity": 0.1889763779527559,
                    "duration": 0.07499999999998863
                },
                {
                    "name": "A#5",
                    "midi": 82,
                    "time": 156.825,
                    "velocity": 0.16535433070866143,
                    "duration": 0.07499999999998863
                },
                {
                    "name": "F6",
                    "midi": 89,
                    "time": 156.825,
                    "velocity": 0.1889763779527559,
                    "duration": 0.07499999999998863
                },
                {
                    "name": "D7",
                    "midi": 98,
                    "time": 156.89999999999998,
                    "velocity": 0.2440944881889764,
                    "duration": 0.07499999999998863
                },
                {
                    "name": "F#6",
                    "midi": 90,
                    "time": 156.89999999999998,
                    "velocity": 0.1968503937007874,
                    "duration": 0.07499999999998863
                },
                {
                    "name": "A#6",
                    "midi": 94,
                    "time": 156.97499999999997,
                    "velocity": 0.1889763779527559,
                    "duration": 0.07499999999998863
                },
                {
                    "name": "F6",
                    "midi": 89,
                    "time": 156.97499999999997,
                    "velocity": 0.15748031496062992,
                    "duration": 0.07499999999998863
                },
                {
                    "name": "F#6",
                    "midi": 90,
                    "time": 157.04999999999995,
                    "velocity": 0.1889763779527559,
                    "duration": 0.07499999999998863
                },
                {
                    "name": "D6",
                    "midi": 86,
                    "time": 157.04999999999995,
                    "velocity": 0.15748031496062992,
                    "duration": 0.07499999999998863
                },
                {
                    "name": "F6",
                    "midi": 89,
                    "time": 157.12499999999994,
                    "velocity": 0.18110236220472442,
                    "duration": 0.07499999999998863
                },
                {
                    "name": "A#5",
                    "midi": 82,
                    "time": 157.12499999999994,
                    "velocity": 0.15748031496062992,
                    "duration": 0.07499999999998863
                },
                {
                    "name": "D7",
                    "midi": 98,
                    "time": 157.19999999999993,
                    "velocity": 0.2283464566929134,
                    "duration": 0.07499999999998863
                },
                {
                    "name": "F#6",
                    "midi": 90,
                    "time": 157.19999999999993,
                    "velocity": 0.1889763779527559,
                    "duration": 0.07499999999998863
                },
                {
                    "name": "A#6",
                    "midi": 94,
                    "time": 157.27499999999992,
                    "velocity": 0.18110236220472442,
                    "duration": 0.07499999999998863
                },
                {
                    "name": "F6",
                    "midi": 89,
                    "time": 157.27499999999992,
                    "velocity": 0.14173228346456693,
                    "duration": 0.07499999999998863
                },
                {
                    "name": "F#6",
                    "midi": 90,
                    "time": 157.3499999999999,
                    "velocity": 0.1732283464566929,
                    "duration": 0.07499999999998863
                },
                {
                    "name": "D6",
                    "midi": 86,
                    "time": 157.3499999999999,
                    "velocity": 0.14173228346456693,
                    "duration": 0.07499999999998863
                },
                {
                    "name": "F6",
                    "midi": 89,
                    "time": 157.4249999999999,
                    "velocity": 0.1732283464566929,
                    "duration": 0.07499999999998863
                },
                {
                    "name": "A#5",
                    "midi": 82,
                    "time": 157.4249999999999,
                    "velocity": 0.14173228346456693,
                    "duration": 0.07499999999998863
                },
                {
                    "name": "D7",
                    "midi": 98,
                    "time": 157.4999999999999,
                    "velocity": 0.2204724409448819,
                    "duration": 0.07499999999998863
                },
                {
                    "name": "F#6",
                    "midi": 90,
                    "time": 157.4999999999999,
                    "velocity": 0.1732283464566929,
                    "duration": 0.07499999999998863
                },
                {
                    "name": "F6",
                    "midi": 89,
                    "time": 157.57499999999987,
                    "velocity": 0.14173228346456693,
                    "duration": 0.07499999999998863
                },
                {
                    "name": "A#6",
                    "midi": 94,
                    "time": 157.57499999999987,
                    "velocity": 0.1732283464566929,
                    "duration": 0.07499999999998863
                },
                {
                    "name": "D6",
                    "midi": 86,
                    "time": 157.64999999999986,
                    "velocity": 0.14173228346456693,
                    "duration": 0.07499999999998863
                },
                {
                    "name": "F#6",
                    "midi": 90,
                    "time": 157.64999999999986,
                    "velocity": 0.1732283464566929,
                    "duration": 0.07499999999998863
                },
                {
                    "name": "F6",
                    "midi": 89,
                    "time": 157.72499999999985,
                    "velocity": 0.1732283464566929,
                    "duration": 0.07499999999998863
                },
                {
                    "name": "A#5",
                    "midi": 82,
                    "time": 157.72499999999985,
                    "velocity": 0.14173228346456693,
                    "duration": 0.07499999999998863
                },
                {
                    "name": "D6",
                    "midi": 86,
                    "time": 157.91249999999985,
                    "velocity": 0.25196850393700787,
                    "duration": 0.1875
                },
                {
                    "name": "A#6",
                    "midi": 94,
                    "time": 157.94999999999985,
                    "velocity": 0.2992125984251969,
                    "duration": 0.15000000000000568
                },
                {
                    "name": "F7",
                    "midi": 101,
                    "time": 157.98749999999984,
                    "velocity": 0.33858267716535434,
                    "duration": 0.11250000000001137
                }
            ],
            "controlChanges": {
                "91": [
                    {
                        "number": 91,
                        "time": 0,
                        "value": 1
                    }
                ]
            },
            "id": 1,
            "name": "Piano right",
            "instrumentNumber": 0,
            "instrument": "acoustic grand piano",
            "instrumentFamily": "piano",
            "channelNumber": 0,
            "isPercussion": false
        },
        {
            "startTime": 1.6875,
            "duration": 158.51249999999973,
            "length": 1723,
            "notes": [
                {
                    "name": "F3",
                    "midi": 53,
                    "time": 1.6875,
                    "velocity": 0.25984251968503935,
                    "duration": 1.9125
                },
                {
                    "name": "B3",
                    "midi": 59,
                    "time": 1.725,
                    "velocity": 0.29133858267716534,
                    "duration": 0.6750000000000003
                },
                {
                    "name": "D4",
                    "midi": 62,
                    "time": 1.7625000000000002,
                    "velocity": 0.3228346456692913,
                    "duration": 0.6375000000000002
                },
                {
                    "name": "G#4",
                    "midi": 68,
                    "time": 1.8000000000000003,
                    "velocity": 0.4015748031496063,
                    "duration": 0.8999999999999999
                },
                {
                    "name": "C4",
                    "midi": 60,
                    "time": 2.3625000000000003,
                    "velocity": 0.2283464566929134,
                    "duration": 0.8999999999999999
                },
                {
                    "name": "D#4",
                    "midi": 63,
                    "time": 2.4000000000000004,
                    "velocity": 0.3228346456692913,
                    "duration": 0.8999999999999999
                },
                {
                    "name": "G4",
                    "midi": 67,
                    "time": 2.7,
                    "velocity": 0.3464566929133858,
                    "duration": 0.2999999999999998
                },
                {
                    "name": "D#4",
                    "midi": 63,
                    "time": 3,
                    "velocity": 0.3779527559055118,
                    "duration": 0.6000000000000001
                },
                {
                    "name": "C4",
                    "midi": 60,
                    "time": 3.3000000000000003,
                    "velocity": 0.3464566929133858,
                    "duration": 0.2999999999999998
                },
                {
                    "name": "F3",
                    "midi": 53,
                    "time": 5.25,
                    "velocity": 0.2440944881889764,
                    "duration": 1.8374999999999977
                },
                {
                    "name": "A3",
                    "midi": 57,
                    "time": 5.2875,
                    "velocity": 0.25984251968503935,
                    "duration": 0.5999999999999988
                },
                {
                    "name": "C4",
                    "midi": 60,
                    "time": 5.324999999999999,
                    "velocity": 0.28346456692913385,
                    "duration": 0.5624999999999991
                },
                {
                    "name": "D#4",
                    "midi": 63,
                    "time": 5.362499999999999,
                    "velocity": 0.2992125984251969,
                    "duration": 0.5249999999999995
                },
                {
                    "name": "F#4",
                    "midi": 66,
                    "time": 5.399999999999999,
                    "velocity": 0.3228346456692913,
                    "duration": 1.1999999999999993
                },
                {
                    "name": "A#3",
                    "midi": 58,
                    "time": 5.962499999999999,
                    "velocity": 0.25196850393700787,
                    "duration": 1.1249999999999991
                },
                {
                    "name": "D4",
                    "midi": 62,
                    "time": 5.999999999999998,
                    "velocity": 0.33858267716535434,
                    "duration": 0.5999999999999996
                },
                {
                    "name": "F4",
                    "midi": 65,
                    "time": 6.299999999999998,
                    "velocity": 0.2440944881889764,
                    "duration": 0.2999999999999998
                },
                {
                    "name": "C#4",
                    "midi": 61,
                    "time": 6.599999999999998,
                    "velocity": 0.3228346456692913,
                    "duration": 0.2999999999999998
                },
                {
                    "name": "A#3",
                    "midi": 58,
                    "time": 6.899999999999998,
                    "velocity": 0.23622047244094488,
                    "duration": 0.1875
                },
                {
                    "name": "F3",
                    "midi": 53,
                    "time": 7.087499999999998,
                    "velocity": 0.23622047244094488,
                    "duration": 0.41249999999999876
                },
                {
                    "name": "G3",
                    "midi": 55,
                    "time": 7.124999999999997,
                    "velocity": 0.23622047244094488,
                    "duration": 0.3749999999999991
                },
                {
                    "name": "A#3",
                    "midi": 58,
                    "time": 7.162499999999997,
                    "velocity": 0.23622047244094488,
                    "duration": 0.33749999999999947
                },
                {
                    "name": "C#4",
                    "midi": 61,
                    "time": 7.199999999999997,
                    "velocity": 0.23622047244094488,
                    "duration": 0.2999999999999998
                },
                {
                    "name": "E6",
                    "midi": 88,
                    "time": 7.799999999999996,
                    "velocity": 0.23622047244094488,
                    "duration": 0.07500000000000018
                },
                {
                    "name": "G6",
                    "midi": 91,
                    "time": 7.799999999999996,
                    "velocity": 0.23622047244094488,
                    "duration": 0.07500000000000018
                },
                {
                    "name": "A5",
                    "midi": 81,
                    "time": 7.949999999999997,
                    "velocity": 0.2047244094488189,
                    "duration": 0.07500000000000018
                },
                {
                    "name": "C6",
                    "midi": 84,
                    "time": 7.949999999999997,
                    "velocity": 0.2047244094488189,
                    "duration": 0.07500000000000018
                },
                {
                    "name": "C#6",
                    "midi": 85,
                    "time": 8.099999999999996,
                    "velocity": 0.2047244094488189,
                    "duration": 0.07499999999999929
                },
                {
                    "name": "A#5",
                    "midi": 82,
                    "time": 8.099999999999996,
                    "velocity": 0.2047244094488189,
                    "duration": 0.07499999999999929
                },
                {
                    "name": "D#5",
                    "midi": 75,
                    "time": 8.249999999999995,
                    "velocity": 0.2047244094488189,
                    "duration": 0.07499999999999929
                },
                {
                    "name": "F#5",
                    "midi": 78,
                    "time": 8.249999999999995,
                    "velocity": 0.2047244094488189,
                    "duration": 0.07499999999999929
                },
                {
                    "name": "E5",
                    "midi": 76,
                    "time": 8.399999999999993,
                    "velocity": 0.23622047244094488,
                    "duration": 0.07499999999999929
                },
                {
                    "name": "G5",
                    "midi": 79,
                    "time": 8.399999999999993,
                    "velocity": 0.23622047244094488,
                    "duration": 0.07499999999999929
                },
                {
                    "name": "C5",
                    "midi": 72,
                    "time": 8.549999999999992,
                    "velocity": 0.2047244094488189,
                    "duration": 0.07499999999999929
                },
                {
                    "name": "A4",
                    "midi": 69,
                    "time": 8.549999999999992,
                    "velocity": 0.2047244094488189,
                    "duration": 0.07499999999999929
                },
                {
                    "name": "C#5",
                    "midi": 73,
                    "time": 8.69999999999999,
                    "velocity": 0.2047244094488189,
                    "duration": 0.07499999999999929
                },
                {
                    "name": "A#4",
                    "midi": 70,
                    "time": 8.69999999999999,
                    "velocity": 0.2047244094488189,
                    "duration": 0.07499999999999929
                },
                {
                    "name": "D#4",
                    "midi": 63,
                    "time": 8.849999999999989,
                    "velocity": 0.2047244094488189,
                    "duration": 0.07499999999999929
                },
                {
                    "name": "F#4",
                    "midi": 66,
                    "time": 8.849999999999989,
                    "velocity": 0.2047244094488189,
                    "duration": 0.07499999999999929
                },
                {
                    "name": "E4",
                    "midi": 64,
                    "time": 8.999999999999988,
                    "velocity": 0.23622047244094488,
                    "duration": 0.07499999999999929
                },
                {
                    "name": "G4",
                    "midi": 67,
                    "time": 8.999999999999988,
                    "velocity": 0.23622047244094488,
                    "duration": 0.07499999999999929
                },
                {
                    "name": "A3",
                    "midi": 57,
                    "time": 9.149999999999986,
                    "velocity": 0.2125984251968504,
                    "duration": 0.07499999999999929
                },
                {
                    "name": "C4",
                    "midi": 60,
                    "time": 9.149999999999986,
                    "velocity": 0.2125984251968504,
                    "duration": 0.07499999999999929
                },
                {
                    "name": "A#3",
                    "midi": 58,
                    "time": 9.299999999999985,
                    "velocity": 0.23622047244094488,
                    "duration": 0.15000000000000036
                },
                {
                    "name": "C#4",
                    "midi": 61,
                    "time": 9.299999999999985,
                    "velocity": 0.23622047244094488,
                    "duration": 0.15000000000000036
                },
                {
                    "name": "F2",
                    "midi": 41,
                    "time": 9.599999999999985,
                    "velocity": 0.28346456692913385,
                    "duration": 0.07499999999999929
                },
                {
                    "name": "F3",
                    "midi": 53,
                    "time": 9.749999999999984,
                    "velocity": 0.14173228346456693,
                    "duration": 0.07499999999999929
                },
                {
                    "name": "G4",
                    "midi": 67,
                    "time": 9.749999999999984,
                    "velocity": 0.18110236220472442,
                    "duration": 0.07499999999999929
                },
                {
                    "name": "A#3",
                    "midi": 58,
                    "time": 9.749999999999984,
                    "velocity": 0.14173228346456693,
                    "duration": 0.07499999999999929
                },
                {
                    "name": "C#4",
                    "midi": 61,
                    "time": 9.749999999999984,
                    "velocity": 0.14173228346456693,
                    "duration": 0.07499999999999929
                },
                {
                    "name": "A#3",
                    "midi": 58,
                    "time": 9.899999999999983,
                    "velocity": 0.14173228346456693,
                    "duration": 0.07499999999999929
                },
                {
                    "name": "C#4",
                    "midi": 61,
                    "time": 9.899999999999983,
                    "velocity": 0.14173228346456693,
                    "duration": 0.07499999999999929
                },
                {
                    "name": "F3",
                    "midi": 53,
                    "time": 9.899999999999983,
                    "velocity": 0.14173228346456693,
                    "duration": 0.07499999999999929
                },
                {
                    "name": "G4",
                    "midi": 67,
                    "time": 9.899999999999983,
                    "velocity": 0.18110236220472442,
                    "duration": 0.07499999999999929
                },
                {
                    "name": "G4",
                    "midi": 67,
                    "time": 10.049999999999981,
                    "velocity": 0.18110236220472442,
                    "duration": 0.07499999999999929
                },
                {
                    "name": "F3",
                    "midi": 53,
                    "time": 10.049999999999981,
                    "velocity": 0.14173228346456693,
                    "duration": 0.07499999999999929
                },
                {
                    "name": "A#3",
                    "midi": 58,
                    "time": 10.049999999999981,
                    "velocity": 0.14173228346456693,
                    "duration": 0.07499999999999929
                },
                {
                    "name": "C#4",
                    "midi": 61,
                    "time": 10.049999999999981,
                    "velocity": 0.14173228346456693,
                    "duration": 0.07499999999999929
                },
                {
                    "name": "G4",
                    "midi": 67,
                    "time": 10.19999999999998,
                    "velocity": 0.1889763779527559,
                    "duration": 0.07499999999999929
                },
                {
                    "name": "F3",
                    "midi": 53,
                    "time": 10.19999999999998,
                    "velocity": 0.15748031496062992,
                    "duration": 0.07499999999999929
                },
                {
                    "name": "C#4",
                    "midi": 61,
                    "time": 10.19999999999998,
                    "velocity": 0.15748031496062992,
                    "duration": 0.07499999999999929
                },
                {
                    "name": "A#3",
                    "midi": 58,
                    "time": 10.19999999999998,
                    "velocity": 0.15748031496062992,
                    "duration": 0.07499999999999929
                },
                {
                    "name": "G4",
                    "midi": 67,
                    "time": 10.349999999999978,
                    "velocity": 0.2125984251968504,
                    "duration": 0.07499999999999929
                },
                {
                    "name": "C#4",
                    "midi": 61,
                    "time": 10.349999999999978,
                    "velocity": 0.1732283464566929,
                    "duration": 0.07499999999999929
                },
                {
                    "name": "A#3",
                    "midi": 58,
                    "time": 10.349999999999978,
                    "velocity": 0.1732283464566929,
                    "duration": 0.07499999999999929
                },
                {
                    "name": "F3",
                    "midi": 53,
                    "time": 10.349999999999978,
                    "velocity": 0.1732283464566929,
                    "duration": 0.07499999999999929
                },
                {
                    "name": "G4",
                    "midi": 67,
                    "time": 10.499999999999977,
                    "velocity": 0.1732283464566929,
                    "duration": 0.3000000000000007
                },
                {
                    "name": "F3",
                    "midi": 53,
                    "time": 10.499999999999977,
                    "velocity": 0.14173228346456693,
                    "duration": 0.3000000000000007
                },
                {
                    "name": "C#4",
                    "midi": 61,
                    "time": 10.499999999999977,
                    "velocity": 0.14173228346456693,
                    "duration": 0.3000000000000007
                },
                {
                    "name": "A#3",
                    "midi": 58,
                    "time": 10.499999999999977,
                    "velocity": 0.14173228346456693,
                    "duration": 0.3000000000000007
                },
                {
                    "name": "A6",
                    "midi": 93,
                    "time": 11.099999999999978,
                    "velocity": 0.23622047244094488,
                    "duration": 0.07499999999999929
                },
                {
                    "name": "F#6",
                    "midi": 90,
                    "time": 11.099999999999978,
                    "velocity": 0.23622047244094488,
                    "duration": 0.07499999999999929
                },
                {
                    "name": "B5",
                    "midi": 83,
                    "time": 11.249999999999977,
                    "velocity": 0.2047244094488189,
                    "duration": 0.07499999999999929
                },
                {
                    "name": "D6",
                    "midi": 86,
                    "time": 11.249999999999977,
                    "velocity": 0.2047244094488189,
                    "duration": 0.07499999999999929
                },
                {
                    "name": "C6",
                    "midi": 84,
                    "time": 11.399999999999975,
                    "velocity": 0.2047244094488189,
                    "duration": 0.07499999999999929
                },
                {
                    "name": "D#6",
                    "midi": 87,
                    "time": 11.399999999999975,
                    "velocity": 0.2047244094488189,
                    "duration": 0.07499999999999929
                },
                {
                    "name": "G#5",
                    "midi": 80,
                    "time": 11.549999999999974,
                    "velocity": 0.2047244094488189,
                    "duration": 0.07499999999999929
                },
                {
                    "name": "F5",
                    "midi": 77,
                    "time": 11.549999999999974,
                    "velocity": 0.2047244094488189,
                    "duration": 0.07499999999999929
                },
                {
                    "name": "F#5",
                    "midi": 78,
                    "time": 11.699999999999973,
                    "velocity": 0.23622047244094488,
                    "duration": 0.07499999999999929
                },
                {
                    "name": "A5",
                    "midi": 81,
                    "time": 11.699999999999973,
                    "velocity": 0.23622047244094488,
                    "duration": 0.07499999999999929
                },
                {
                    "name": "D5",
                    "midi": 74,
                    "time": 11.849999999999971,
                    "velocity": 0.2047244094488189,
                    "duration": 0.07499999999999929
                },
                {
                    "name": "B4",
                    "midi": 71,
                    "time": 11.849999999999971,
                    "velocity": 0.2047244094488189,
                    "duration": 0.07499999999999929
                },
                {
                    "name": "C5",
                    "midi": 72,
                    "time": 11.99999999999997,
                    "velocity": 0.2047244094488189,
                    "duration": 0.07499999999999929
                },
                {
                    "name": "D#5",
                    "midi": 75,
                    "time": 11.99999999999997,
                    "velocity": 0.2047244094488189,
                    "duration": 0.07499999999999929
                },
                {
                    "name": "F4",
                    "midi": 65,
                    "time": 12.149999999999968,
                    "velocity": 0.2047244094488189,
                    "duration": 0.07499999999999929
                },
                {
                    "name": "G#4",
                    "midi": 68,
                    "time": 12.149999999999968,
                    "velocity": 0.2047244094488189,
                    "duration": 0.07499999999999929
                },
                {
                    "name": "A4",
                    "midi": 69,
                    "time": 12.299999999999967,
                    "velocity": 0.23622047244094488,
                    "duration": 0.07499999999999929
                },
                {
                    "name": "F#4",
                    "midi": 66,
                    "time": 12.299999999999967,
                    "velocity": 0.23622047244094488,
                    "duration": 0.07499999999999929
                },
                {
                    "name": "D4",
                    "midi": 62,
                    "time": 12.449999999999966,
                    "velocity": 0.2125984251968504,
                    "duration": 0.07499999999999929
                },
                {
                    "name": "B3",
                    "midi": 59,
                    "time": 12.449999999999966,
                    "velocity": 0.2125984251968504,
                    "duration": 0.07499999999999929
                },
                {
                    "name": "C4",
                    "midi": 60,
                    "time": 12.599999999999964,
                    "velocity": 0.23622047244094488,
                    "duration": 0.15000000000000036
                },
                {
                    "name": "D#4",
                    "midi": 63,
                    "time": 12.599999999999964,
                    "velocity": 0.23622047244094488,
                    "duration": 0.15000000000000036
                },
                {
                    "name": "F2",
                    "midi": 41,
                    "time": 13.199999999999964,
                    "velocity": 0.30708661417322836,
                    "duration": 0.07499999999999929
                },
                {
                    "name": "C4",
                    "midi": 60,
                    "time": 13.349999999999962,
                    "velocity": 0.1732283464566929,
                    "duration": 0.07499999999999929
                },
                {
                    "name": "D#4",
                    "midi": 63,
                    "time": 13.349999999999962,
                    "velocity": 0.1732283464566929,
                    "duration": 0.07499999999999929
                },
                {
                    "name": "A4",
                    "midi": 69,
                    "time": 13.349999999999962,
                    "velocity": 0.2125984251968504,
                    "duration": 0.07499999999999929
                },
                {
                    "name": "A4",
                    "midi": 69,
                    "time": 13.499999999999961,
                    "velocity": 0.2125984251968504,
                    "duration": 0.07499999999999929
                },
                {
                    "name": "C4",
                    "midi": 60,
                    "time": 13.499999999999961,
                    "velocity": 0.1732283464566929,
                    "duration": 0.07499999999999929
                },
                {
                    "name": "D#4",
                    "midi": 63,
                    "time": 13.499999999999961,
                    "velocity": 0.1732283464566929,
                    "duration": 0.07499999999999929
                },
                {
                    "name": "D#4",
                    "midi": 63,
                    "time": 13.64999999999996,
                    "velocity": 0.1732283464566929,
                    "duration": 0.07499999999999929
                },
                {
                    "name": "C4",
                    "midi": 60,
                    "time": 13.64999999999996,
                    "velocity": 0.1732283464566929,
                    "duration": 0.07499999999999929
                },
                {
                    "name": "A4",
                    "midi": 69,
                    "time": 13.64999999999996,
                    "velocity": 0.2125984251968504,
                    "duration": 0.07499999999999929
                },
                {
                    "name": "A4",
                    "midi": 69,
                    "time": 13.799999999999958,
                    "velocity": 0.2204724409448819,
                    "duration": 0.07499999999999929
                },
                {
                    "name": "C4",
                    "midi": 60,
                    "time": 13.799999999999958,
                    "velocity": 0.1889763779527559,
                    "duration": 0.07499999999999929
                },
                {
                    "name": "D#4",
                    "midi": 63,
                    "time": 13.799999999999958,
                    "velocity": 0.1889763779527559,
                    "duration": 0.07499999999999929
                },
                {
                    "name": "A4",
                    "midi": 69,
                    "time": 13.949999999999957,
                    "velocity": 0.2440944881889764,
                    "duration": 0.07499999999999929
                },
                {
                    "name": "C4",
                    "midi": 60,
                    "time": 13.949999999999957,
                    "velocity": 0.2047244094488189,
                    "duration": 0.07499999999999929
                },
                {
                    "name": "D#4",
                    "midi": 63,
                    "time": 13.949999999999957,
                    "velocity": 0.2047244094488189,
                    "duration": 0.07499999999999929
                },
                {
                    "name": "A4",
                    "midi": 69,
                    "time": 14.099999999999955,
                    "velocity": 0.2047244094488189,
                    "duration": 0.3000000000000007
                },
                {
                    "name": "C4",
                    "midi": 60,
                    "time": 14.099999999999955,
                    "velocity": 0.15748031496062992,
                    "duration": 0.3000000000000007
                },
                {
                    "name": "D#4",
                    "midi": 63,
                    "time": 14.099999999999955,
                    "velocity": 0.15748031496062992,
                    "duration": 0.3000000000000007
                },
                {
                    "name": "C4",
                    "midi": 60,
                    "time": 14.549999999999956,
                    "velocity": 0.14173228346456693,
                    "duration": 0.07499999999999929
                },
                {
                    "name": "D#4",
                    "midi": 63,
                    "time": 14.549999999999956,
                    "velocity": 0.14173228346456693,
                    "duration": 0.07499999999999929
                },
                {
                    "name": "A4",
                    "midi": 69,
                    "time": 14.549999999999956,
                    "velocity": 0.1732283464566929,
                    "duration": 0.07499999999999929
                },
                {
                    "name": "A4",
                    "midi": 69,
                    "time": 14.699999999999955,
                    "velocity": 0.1732283464566929,
                    "duration": 0.07499999999999929
                },
                {
                    "name": "C4",
                    "midi": 60,
                    "time": 14.699999999999955,
                    "velocity": 0.14173228346456693,
                    "duration": 0.07499999999999929
                },
                {
                    "name": "D#4",
                    "midi": 63,
                    "time": 14.699999999999955,
                    "velocity": 0.14173228346456693,
                    "duration": 0.07499999999999929
                },
                {
                    "name": "D#4",
                    "midi": 63,
                    "time": 14.849999999999953,
                    "velocity": 0.14173228346456693,
                    "duration": 0.07499999999999929
                },
                {
                    "name": "C4",
                    "midi": 60,
                    "time": 14.849999999999953,
                    "velocity": 0.14173228346456693,
                    "duration": 0.07499999999999929
                },
                {
                    "name": "A4",
                    "midi": 69,
                    "time": 14.849999999999953,
                    "velocity": 0.1732283464566929,
                    "duration": 0.07499999999999929
                },
                {
                    "name": "C4",
                    "midi": 60,
                    "time": 14.999999999999952,
                    "velocity": 0.14173228346456693,
                    "duration": 0.07499999999999929
                },
                {
                    "name": "A4",
                    "midi": 69,
                    "time": 14.999999999999952,
                    "velocity": 0.18110236220472442,
                    "duration": 0.07499999999999929
                },
                {
                    "name": "D#4",
                    "midi": 63,
                    "time": 14.999999999999952,
                    "velocity": 0.14173228346456693,
                    "duration": 0.07499999999999929
                },
                {
                    "name": "D#4",
                    "midi": 63,
                    "time": 15.14999999999995,
                    "velocity": 0.15748031496062992,
                    "duration": 0.07499999999999929
                },
                {
                    "name": "A4",
                    "midi": 69,
                    "time": 15.14999999999995,
                    "velocity": 0.2047244094488189,
                    "duration": 0.07499999999999929
                },
                {
                    "name": "C4",
                    "midi": 60,
                    "time": 15.14999999999995,
                    "velocity": 0.15748031496062992,
                    "duration": 0.07499999999999929
                },
                {
                    "name": "A4",
                    "midi": 69,
                    "time": 15.29999999999995,
                    "velocity": 0.15748031496062992,
                    "duration": 0.3000000000000007
                },
                {
                    "name": "D#4",
                    "midi": 63,
                    "time": 15.29999999999995,
                    "velocity": 0.13385826771653545,
                    "duration": 0.3000000000000007
                },
                {
                    "name": "C4",
                    "midi": 60,
                    "time": 15.29999999999995,
                    "velocity": 0.13385826771653545,
                    "duration": 0.3000000000000007
                },
                {
                    "name": "F#4",
                    "midi": 66,
                    "time": 15.74999999999995,
                    "velocity": 0.14173228346456693,
                    "duration": 0.07499999999999929
                },
                {
                    "name": "D#4",
                    "midi": 63,
                    "time": 15.74999999999995,
                    "velocity": 0.14173228346456693,
                    "duration": 0.07499999999999929
                },
                {
                    "name": "A4",
                    "midi": 69,
                    "time": 15.74999999999995,
                    "velocity": 0.1968503937007874,
                    "duration": 0.07499999999999929
                },
                {
                    "name": "D#4",
                    "midi": 63,
                    "time": 15.899999999999949,
                    "velocity": 0.12598425196850394,
                    "duration": 0.3000000000000007
                },
                {
                    "name": "F#4",
                    "midi": 66,
                    "time": 15.899999999999949,
                    "velocity": 0.12598425196850394,
                    "duration": 0.3000000000000007
                },
                {
                    "name": "A4",
                    "midi": 69,
                    "time": 15.899999999999949,
                    "velocity": 0.14173228346456693,
                    "duration": 0.3000000000000007
                },
                {
                    "name": "F#4",
                    "midi": 66,
                    "time": 16.349999999999948,
                    "velocity": 0.14173228346456693,
                    "duration": 0.07499999999999929
                },
                {
                    "name": "A4",
                    "midi": 69,
                    "time": 16.349999999999948,
                    "velocity": 0.1889763779527559,
                    "duration": 0.07499999999999929
                },
                {
                    "name": "F#4",
                    "midi": 66,
                    "time": 16.499999999999947,
                    "velocity": 0.11811023622047244,
                    "duration": 0.3000000000000007
                },
                {
                    "name": "A4",
                    "midi": 69,
                    "time": 16.499999999999947,
                    "velocity": 0.14173228346456693,
                    "duration": 0.3000000000000007
                },
                {
                    "name": "A4",
                    "midi": 69,
                    "time": 16.949999999999946,
                    "velocity": 0.1889763779527559,
                    "duration": 0.07499999999999929
                },
                {
                    "name": "D#5",
                    "midi": 75,
                    "time": 16.949999999999946,
                    "velocity": 0.2440944881889764,
                    "duration": 0.07499999999999929
                },
                {
                    "name": "C5",
                    "midi": 72,
                    "time": 17.099999999999945,
                    "velocity": 0.1968503937007874,
                    "duration": 0.07499999999999929
                },
                {
                    "name": "A4",
                    "midi": 69,
                    "time": 17.249999999999943,
                    "velocity": 0.1889763779527559,
                    "duration": 0.07499999999999929
                },
                {
                    "name": "D#5",
                    "midi": 75,
                    "time": 17.249999999999943,
                    "velocity": 0.2440944881889764,
                    "duration": 0.07499999999999929
                },
                {
                    "name": "C5",
                    "midi": 72,
                    "time": 17.39999999999994,
                    "velocity": 0.2125984251968504,
                    "duration": 0.07499999999999929
                },
                {
                    "name": "A4",
                    "midi": 69,
                    "time": 17.54999999999994,
                    "velocity": 0.1889763779527559,
                    "duration": 0.07499999999999929
                },
                {
                    "name": "D#5",
                    "midi": 75,
                    "time": 17.54999999999994,
                    "velocity": 0.2440944881889764,
                    "duration": 0.07499999999999929
                },
                {
                    "name": "C5",
                    "midi": 72,
                    "time": 17.69999999999994,
                    "velocity": 0.2047244094488189,
                    "duration": 0.07499999999999929
                },
                {
                    "name": "D#5",
                    "midi": 75,
                    "time": 17.849999999999937,
                    "velocity": 0.2440944881889764,
                    "duration": 0.07499999999999929
                },
                {
                    "name": "A4",
                    "midi": 69,
                    "time": 17.849999999999937,
                    "velocity": 0.1889763779527559,
                    "duration": 0.07499999999999929
                },
                {
                    "name": "F4",
                    "midi": 65,
                    "time": 20.699999999999935,
                    "velocity": 0.25196850393700787,
                    "duration": 0.6000000000000014
                },
                {
                    "name": "D#4",
                    "midi": 63,
                    "time": 20.699999999999935,
                    "velocity": 0.3228346456692913,
                    "duration": 0.3000000000000007
                },
                {
                    "name": "D4",
                    "midi": 62,
                    "time": 20.999999999999936,
                    "velocity": 0.25196850393700787,
                    "duration": 0.3000000000000007
                },
                {
                    "name": "C4",
                    "midi": 60,
                    "time": 21.299999999999937,
                    "velocity": 0.2992125984251969,
                    "duration": 0.3000000000000007
                },
                {
                    "name": "F4",
                    "midi": 65,
                    "time": 21.299999999999937,
                    "velocity": 0.23622047244094488,
                    "duration": 0.6000000000000014
                },
                {
                    "name": "A#3",
                    "midi": 58,
                    "time": 21.599999999999937,
                    "velocity": 0.25984251968503935,
                    "duration": 0.3000000000000007
                },
                {
                    "name": "F4",
                    "midi": 65,
                    "time": 21.899999999999938,
                    "velocity": 0.1968503937007874,
                    "duration": 0.14999999999999858
                },
                {
                    "name": "F3",
                    "midi": 53,
                    "time": 21.899999999999938,
                    "velocity": 0.1968503937007874,
                    "duration": 0.14999999999999858
                },
                {
                    "name": "D4",
                    "midi": 62,
                    "time": 21.899999999999938,
                    "velocity": 0.25196850393700787,
                    "duration": 0.14999999999999858
                },
                {
                    "name": "F3",
                    "midi": 53,
                    "time": 22.199999999999935,
                    "velocity": 0.18110236220472442,
                    "duration": 0.14999999999999858
                },
                {
                    "name": "D#4",
                    "midi": 63,
                    "time": 22.199999999999935,
                    "velocity": 0.2283464566929134,
                    "duration": 0.14999999999999858
                },
                {
                    "name": "F4",
                    "midi": 65,
                    "time": 22.199999999999935,
                    "velocity": 0.18110236220472442,
                    "duration": 0.14999999999999858
                },
                {
                    "name": "D#4",
                    "midi": 63,
                    "time": 22.499999999999932,
                    "velocity": 0.25984251968503935,
                    "duration": 0.14999999999999858
                },
                {
                    "name": "F4",
                    "midi": 65,
                    "time": 22.499999999999932,
                    "velocity": 0.2047244094488189,
                    "duration": 0.44999999999999574
                },
                {
                    "name": "A3",
                    "midi": 57,
                    "time": 22.499999999999932,
                    "velocity": 0.2047244094488189,
                    "duration": 0.14999999999999858
                },
                {
                    "name": "A#3",
                    "midi": 58,
                    "time": 22.79999999999993,
                    "velocity": 0.18110236220472442,
                    "duration": 0.14999999999999858
                },
                {
                    "name": "D4",
                    "midi": 62,
                    "time": 22.79999999999993,
                    "velocity": 0.2283464566929134,
                    "duration": 0.14999999999999858
                },
                {
                    "name": "F4",
                    "midi": 65,
                    "time": 23.099999999999927,
                    "velocity": 0.25196850393700787,
                    "duration": 0.6000000000000014
                },
                {
                    "name": "D#4",
                    "midi": 63,
                    "time": 23.099999999999927,
                    "velocity": 0.3228346456692913,
                    "duration": 0.3000000000000007
                },
                {
                    "name": "D4",
                    "midi": 62,
                    "time": 23.399999999999928,
                    "velocity": 0.25196850393700787,
                    "duration": 0.3000000000000007
                },
                {
                    "name": "F4",
                    "midi": 65,
                    "time": 23.69999999999993,
                    "velocity": 0.23622047244094488,
                    "duration": 0.6000000000000014
                },
                {
                    "name": "C4",
                    "midi": 60,
                    "time": 23.69999999999993,
                    "velocity": 0.2992125984251969,
                    "duration": 0.3000000000000007
                },
                {
                    "name": "A#3",
                    "midi": 58,
                    "time": 23.99999999999993,
                    "velocity": 0.25984251968503935,
                    "duration": 0.3000000000000007
                },
                {
                    "name": "F3",
                    "midi": 53,
                    "time": 24.29999999999993,
                    "velocity": 0.1968503937007874,
                    "duration": 0.14999999999999858
                },
                {
                    "name": "D4",
                    "midi": 62,
                    "time": 24.29999999999993,
                    "velocity": 0.25196850393700787,
                    "duration": 0.14999999999999858
                },
                {
                    "name": "F4",
                    "midi": 65,
                    "time": 24.29999999999993,
                    "velocity": 0.1968503937007874,
                    "duration": 0.14999999999999858
                },
                {
                    "name": "D#4",
                    "midi": 63,
                    "time": 24.599999999999927,
                    "velocity": 0.2283464566929134,
                    "duration": 0.14999999999999858
                },
                {
                    "name": "F4",
                    "midi": 65,
                    "time": 24.599999999999927,
                    "velocity": 0.18110236220472442,
                    "duration": 0.14999999999999858
                },
                {
                    "name": "F3",
                    "midi": 53,
                    "time": 24.599999999999927,
                    "velocity": 0.18110236220472442,
                    "duration": 0.14999999999999858
                },
                {
                    "name": "F4",
                    "midi": 65,
                    "time": 24.899999999999924,
                    "velocity": 0.2047244094488189,
                    "duration": 0.44999999999999574
                },
                {
                    "name": "D#4",
                    "midi": 63,
                    "time": 24.899999999999924,
                    "velocity": 0.25984251968503935,
                    "duration": 0.14999999999999858
                },
                {
                    "name": "A3",
                    "midi": 57,
                    "time": 24.899999999999924,
                    "velocity": 0.2047244094488189,
                    "duration": 0.14999999999999858
                },
                {
                    "name": "D4",
                    "midi": 62,
                    "time": 25.19999999999992,
                    "velocity": 0.2283464566929134,
                    "duration": 0.29999999999999716
                },
                {
                    "name": "A#3",
                    "midi": 58,
                    "time": 25.19999999999992,
                    "velocity": 0.18110236220472442,
                    "duration": 0.29999999999999716
                },
                {
                    "name": "G#4",
                    "midi": 68,
                    "time": 25.49999999999992,
                    "velocity": 0.3228346456692913,
                    "duration": 0.3000000000000007
                },
                {
                    "name": "A#4",
                    "midi": 70,
                    "time": 25.49999999999992,
                    "velocity": 0.25196850393700787,
                    "duration": 0.6000000000000014
                },
                {
                    "name": "F#4",
                    "midi": 66,
                    "time": 25.79999999999992,
                    "velocity": 0.25196850393700787,
                    "duration": 0.3000000000000007
                },
                {
                    "name": "F4",
                    "midi": 65,
                    "time": 26.09999999999992,
                    "velocity": 0.2992125984251969,
                    "duration": 0.3000000000000007
                },
                {
                    "name": "A#4",
                    "midi": 70,
                    "time": 26.09999999999992,
                    "velocity": 0.23622047244094488,
                    "duration": 0.6000000000000014
                },
                {
                    "name": "D#4",
                    "midi": 63,
                    "time": 26.39999999999992,
                    "velocity": 0.25984251968503935,
                    "duration": 0.3000000000000007
                },
                {
                    "name": "A#4",
                    "midi": 70,
                    "time": 26.69999999999992,
                    "velocity": 0.1968503937007874,
                    "duration": 0.14999999999999858
                },
                {
                    "name": "A#3",
                    "midi": 58,
                    "time": 26.69999999999992,
                    "velocity": 0.1968503937007874,
                    "duration": 0.14999999999999858
                },
                {
                    "name": "F#4",
                    "midi": 66,
                    "time": 26.69999999999992,
                    "velocity": 0.25196850393700787,
                    "duration": 0.14999999999999858
                },
                {
                    "name": "G#4",
                    "midi": 68,
                    "time": 26.99999999999992,
                    "velocity": 0.2283464566929134,
                    "duration": 0.14999999999999858
                },
                {
                    "name": "A#4",
                    "midi": 70,
                    "time": 26.99999999999992,
                    "velocity": 0.18110236220472442,
                    "duration": 0.14999999999999858
                },
                {
                    "name": "A#3",
                    "midi": 58,
                    "time": 26.99999999999992,
                    "velocity": 0.18110236220472442,
                    "duration": 0.14999999999999858
                },
                {
                    "name": "D4",
                    "midi": 62,
                    "time": 27.299999999999915,
                    "velocity": 0.2047244094488189,
                    "duration": 0.14999999999999858
                },
                {
                    "name": "G#4",
                    "midi": 68,
                    "time": 27.299999999999915,
                    "velocity": 0.25984251968503935,
                    "duration": 0.14999999999999858
                },
                {
                    "name": "A#4",
                    "midi": 70,
                    "time": 27.299999999999915,
                    "velocity": 0.2047244094488189,
                    "duration": 0.44999999999999574
                },
                {
                    "name": "F#4",
                    "midi": 66,
                    "time": 27.599999999999913,
                    "velocity": 0.2283464566929134,
                    "duration": 0.14999999999999858
                },
                {
                    "name": "D#4",
                    "midi": 63,
                    "time": 27.599999999999913,
                    "velocity": 0.18110236220472442,
                    "duration": 0.14999999999999858
                },
                {
                    "name": "A#4",
                    "midi": 70,
                    "time": 27.89999999999991,
                    "velocity": 0.25196850393700787,
                    "duration": 0.6000000000000014
                },
                {
                    "name": "G#4",
                    "midi": 68,
                    "time": 27.89999999999991,
                    "velocity": 0.3228346456692913,
                    "duration": 0.3000000000000007
                },
                {
                    "name": "F#4",
                    "midi": 66,
                    "time": 28.19999999999991,
                    "velocity": 0.25196850393700787,
                    "duration": 0.3000000000000007
                },
                {
                    "name": "F4",
                    "midi": 65,
                    "time": 28.49999999999991,
                    "velocity": 0.2992125984251969,
                    "duration": 0.3000000000000007
                },
                {
                    "name": "A#4",
                    "midi": 70,
                    "time": 28.49999999999991,
                    "velocity": 0.23622047244094488,
                    "duration": 0.6000000000000014
                },
                {
                    "name": "D#4",
                    "midi": 63,
                    "time": 28.799999999999912,
                    "velocity": 0.25984251968503935,
                    "duration": 0.3000000000000007
                },
                {
                    "name": "A#3",
                    "midi": 58,
                    "time": 29.099999999999913,
                    "velocity": 0.1968503937007874,
                    "duration": 0.14999999999999858
                },
                {
                    "name": "A#4",
                    "midi": 70,
                    "time": 29.099999999999913,
                    "velocity": 0.1968503937007874,
                    "duration": 0.14999999999999858
                },
                {
                    "name": "F#4",
                    "midi": 66,
                    "time": 29.099999999999913,
                    "velocity": 0.25196850393700787,
                    "duration": 0.14999999999999858
                },
                {
                    "name": "G#4",
                    "midi": 68,
                    "time": 29.39999999999991,
                    "velocity": 0.2283464566929134,
                    "duration": 0.14999999999999858
                },
                {
                    "name": "A#4",
                    "midi": 70,
                    "time": 29.39999999999991,
                    "velocity": 0.18110236220472442,
                    "duration": 0.14999999999999858
                },
                {
                    "name": "A#3",
                    "midi": 58,
                    "time": 29.39999999999991,
                    "velocity": 0.18110236220472442,
                    "duration": 0.14999999999999858
                },
                {
                    "name": "A#4",
                    "midi": 70,
                    "time": 29.699999999999907,
                    "velocity": 0.2047244094488189,
                    "duration": 0.44999999999999574
                },
                {
                    "name": "G#4",
                    "midi": 68,
                    "time": 29.699999999999907,
                    "velocity": 0.25984251968503935,
                    "duration": 0.14999999999999858
                },
                {
                    "name": "D4",
                    "midi": 62,
                    "time": 29.699999999999907,
                    "velocity": 0.2047244094488189,
                    "duration": 0.14999999999999858
                },
                {
                    "name": "D#4",
                    "midi": 63,
                    "time": 29.999999999999904,
                    "velocity": 0.18110236220472442,
                    "duration": 0.14999999999999858
                },
                {
                    "name": "F#4",
                    "midi": 66,
                    "time": 29.999999999999904,
                    "velocity": 0.2283464566929134,
                    "duration": 0.14999999999999858
                },
                {
                    "name": "C#4",
                    "midi": 61,
                    "time": 30.2999999999999,
                    "velocity": 0.28346456692913385,
                    "duration": 0.3000000000000007
                },
                {
                    "name": "A#2",
                    "midi": 46,
                    "time": 30.2999999999999,
                    "velocity": 0.23622047244094488,
                    "duration": 0.3000000000000007
                },
                {
                    "name": "B2",
                    "midi": 47,
                    "time": 30.599999999999902,
                    "velocity": 0.1889763779527559,
                    "duration": 0.14999999999999858
                },
                {
                    "name": "D#4",
                    "midi": 63,
                    "time": 30.599999999999902,
                    "velocity": 0.2283464566929134,
                    "duration": 0.14999999999999858
                },
                {
                    "name": "E4",
                    "midi": 64,
                    "time": 30.8999999999999,
                    "velocity": 0.2755905511811024,
                    "duration": 0.3000000000000007
                },
                {
                    "name": "C#3",
                    "midi": 49,
                    "time": 30.8999999999999,
                    "velocity": 0.2204724409448819,
                    "duration": 0.3000000000000007
                },
                {
                    "name": "F#4",
                    "midi": 66,
                    "time": 31.1999999999999,
                    "velocity": 0.1968503937007874,
                    "duration": 0.14999999999999858
                },
                {
                    "name": "D#3",
                    "midi": 51,
                    "time": 31.1999999999999,
                    "velocity": 0.15748031496062992,
                    "duration": 0.14999999999999858
                },
                {
                    "name": "G4",
                    "midi": 67,
                    "time": 31.499999999999897,
                    "velocity": 0.2440944881889764,
                    "duration": 0.3000000000000007
                },
                {
                    "name": "E3",
                    "midi": 52,
                    "time": 31.499999999999897,
                    "velocity": 0.2047244094488189,
                    "duration": 0.3000000000000007
                },
                {
                    "name": "A4",
                    "midi": 69,
                    "time": 31.799999999999898,
                    "velocity": 0.1968503937007874,
                    "duration": 0.14999999999999858
                },
                {
                    "name": "F3",
                    "midi": 53,
                    "time": 31.799999999999898,
                    "velocity": 0.16535433070866143,
                    "duration": 0.14999999999999858
                },
                {
                    "name": "E4",
                    "midi": 64,
                    "time": 32.099999999999895,
                    "velocity": 0.2125984251968504,
                    "duration": 0.14999999999999858
                },
                {
                    "name": "G3",
                    "midi": 55,
                    "time": 32.099999999999895,
                    "velocity": 0.1732283464566929,
                    "duration": 0.29999999999999716
                },
                {
                    "name": "C#4",
                    "midi": 61,
                    "time": 32.24999999999989,
                    "velocity": 0.18110236220472442,
                    "duration": 0.14999999999999858
                },
                {
                    "name": "A3",
                    "midi": 57,
                    "time": 32.39999999999989,
                    "velocity": 0.1889763779527559,
                    "duration": 0.30000000000001137
                },
                {
                    "name": "F4",
                    "midi": 65,
                    "time": 32.39999999999989,
                    "velocity": 0.2283464566929134,
                    "duration": 0.07500000000000284
                },
                {
                    "name": "C4",
                    "midi": 60,
                    "time": 32.5499999999999,
                    "velocity": 0.1968503937007874,
                    "duration": 0.07500000000000284
                },
                {
                    "name": "G4",
                    "midi": 67,
                    "time": 32.6999999999999,
                    "velocity": 0.2283464566929134,
                    "duration": 0.07500000000000284
                },
                {
                    "name": "A#3",
                    "midi": 58,
                    "time": 32.6999999999999,
                    "velocity": 0.2283464566929134,
                    "duration": 0.30000000000001137
                },
                {
                    "name": "C#4",
                    "midi": 61,
                    "time": 32.84999999999991,
                    "velocity": 0.1889763779527559,
                    "duration": 0.07500000000000284
                },
                {
                    "name": "C4",
                    "midi": 60,
                    "time": 32.999999999999915,
                    "velocity": 0.1889763779527559,
                    "duration": 0.30000000000001137
                },
                {
                    "name": "A4",
                    "midi": 69,
                    "time": 32.999999999999915,
                    "velocity": 0.2283464566929134,
                    "duration": 0.07500000000000284
                },
                {
                    "name": "D#4",
                    "midi": 63,
                    "time": 33.14999999999992,
                    "velocity": 0.1889763779527559,
                    "duration": 0.07500000000000284
                },
                {
                    "name": "G4",
                    "midi": 67,
                    "time": 33.299999999999926,
                    "velocity": 0.2283464566929134,
                    "duration": 0.07500000000000284
                },
                {
                    "name": "C#4",
                    "midi": 61,
                    "time": 33.299999999999926,
                    "velocity": 0.1889763779527559,
                    "duration": 0.07500000000000284
                },
                {
                    "name": "A4",
                    "midi": 69,
                    "time": 33.59999999999993,
                    "velocity": 0.2283464566929134,
                    "duration": 0.07500000000000284
                },
                {
                    "name": "D#4",
                    "midi": 63,
                    "time": 33.59999999999993,
                    "velocity": 0.1889763779527559,
                    "duration": 0.07500000000000284
                },
                {
                    "name": "D#3",
                    "midi": 51,
                    "time": 35.09999999999993,
                    "velocity": 0.3228346456692913,
                    "duration": 0.07500000000000284
                },
                {
                    "name": "G4",
                    "midi": 67,
                    "time": 35.212499999999935,
                    "velocity": 0.28346456692913385,
                    "duration": 0.03750000000000142
                },
                {
                    "name": "F4",
                    "midi": 65,
                    "time": 35.249999999999936,
                    "velocity": 0.3228346456692913,
                    "duration": 0.03750000000000142
                },
                {
                    "name": "D3",
                    "midi": 50,
                    "time": 35.399999999999935,
                    "velocity": 0.3228346456692913,
                    "duration": 0.07500000000000284
                },
                {
                    "name": "F#4",
                    "midi": 66,
                    "time": 35.51249999999994,
                    "velocity": 0.28346456692913385,
                    "duration": 0.03750000000000142
                },
                {
                    "name": "F4",
                    "midi": 65,
                    "time": 35.54999999999994,
                    "velocity": 0.3228346456692913,
                    "duration": 0.03750000000000142
                },
                {
                    "name": "C3",
                    "midi": 48,
                    "time": 35.69999999999994,
                    "velocity": 0.3228346456692913,
                    "duration": 0.07500000000000284
                },
                {
                    "name": "G4",
                    "midi": 67,
                    "time": 35.81249999999994,
                    "velocity": 0.28346456692913385,
                    "duration": 0.03750000000000142
                },
                {
                    "name": "F4",
                    "midi": 65,
                    "time": 35.849999999999945,
                    "velocity": 0.3228346456692913,
                    "duration": 0.03750000000000142
                },
                {
                    "name": "A#2",
                    "midi": 46,
                    "time": 35.99999999999994,
                    "velocity": 0.3228346456692913,
                    "duration": 0.07500000000000284
                },
                {
                    "name": "F#4",
                    "midi": 66,
                    "time": 36.11249999999995,
                    "velocity": 0.2755905511811024,
                    "duration": 0.03750000000000142
                },
                {
                    "name": "F4",
                    "midi": 65,
                    "time": 36.14999999999995,
                    "velocity": 0.3228346456692913,
                    "duration": 0.03750000000000142
                },
                {
                    "name": "F2",
                    "midi": 41,
                    "time": 36.29999999999995,
                    "velocity": 0.3464566929133858,
                    "duration": 0.07500000000000284
                },
                {
                    "name": "G4",
                    "midi": 67,
                    "time": 36.41249999999995,
                    "velocity": 0.30708661417322836,
                    "duration": 0.03750000000000142
                },
                {
                    "name": "F4",
                    "midi": 65,
                    "time": 36.44999999999995,
                    "velocity": 0.3543307086614173,
                    "duration": 0.03750000000000142
                },
                {
                    "name": "F2",
                    "midi": 41,
                    "time": 36.59999999999995,
                    "velocity": 0.36220472440944884,
                    "duration": 0.07500000000000284
                },
                {
                    "name": "F#4",
                    "midi": 66,
                    "time": 36.712499999999956,
                    "velocity": 0.30708661417322836,
                    "duration": 0.03750000000000142
                },
                {
                    "name": "F4",
                    "midi": 65,
                    "time": 36.74999999999996,
                    "velocity": 0.3543307086614173,
                    "duration": 0.03750000000000142
                },
                {
                    "name": "A2",
                    "midi": 45,
                    "time": 36.899999999999956,
                    "velocity": 0.3543307086614173,
                    "duration": 0.07500000000000284
                },
                {
                    "name": "G4",
                    "midi": 67,
                    "time": 37.01249999999996,
                    "velocity": 0.28346456692913385,
                    "duration": 0.03750000000000142
                },
                {
                    "name": "F4",
                    "midi": 65,
                    "time": 37.04999999999996,
                    "velocity": 0.3228346456692913,
                    "duration": 0.03750000000000142
                },
                {
                    "name": "A#2",
                    "midi": 46,
                    "time": 37.19999999999996,
                    "velocity": 0.3228346456692913,
                    "duration": 0.07500000000000284
                },
                {
                    "name": "F#4",
                    "midi": 66,
                    "time": 37.312499999999964,
                    "velocity": 0.28346456692913385,
                    "duration": 0.03750000000000142
                },
                {
                    "name": "F4",
                    "midi": 65,
                    "time": 37.349999999999966,
                    "velocity": 0.3228346456692913,
                    "duration": 0.03750000000000142
                },
                {
                    "name": "D#3",
                    "midi": 51,
                    "time": 37.499999999999964,
                    "velocity": 0.3228346456692913,
                    "duration": 0.07500000000000284
                },
                {
                    "name": "G4",
                    "midi": 67,
                    "time": 37.61249999999997,
                    "velocity": 0.28346456692913385,
                    "duration": 0.03750000000000142
                },
                {
                    "name": "F4",
                    "midi": 65,
                    "time": 37.64999999999997,
                    "velocity": 0.3228346456692913,
                    "duration": 0.03750000000000142
                },
                {
                    "name": "D3",
                    "midi": 50,
                    "time": 37.79999999999997,
                    "velocity": 0.3228346456692913,
                    "duration": 0.07500000000000284
                },
                {
                    "name": "F#4",
                    "midi": 66,
                    "time": 37.91249999999997,
                    "velocity": 0.28346456692913385,
                    "duration": 0.03750000000000142
                },
                {
                    "name": "F4",
                    "midi": 65,
                    "time": 37.949999999999974,
                    "velocity": 0.3228346456692913,
                    "duration": 0.03750000000000142
                },
                {
                    "name": "C3",
                    "midi": 48,
                    "time": 38.09999999999997,
                    "velocity": 0.3228346456692913,
                    "duration": 0.07500000000000284
                },
                {
                    "name": "G4",
                    "midi": 67,
                    "time": 38.21249999999998,
                    "velocity": 0.28346456692913385,
                    "duration": 0.03750000000000142
                },
                {
                    "name": "F4",
                    "midi": 65,
                    "time": 38.24999999999998,
                    "velocity": 0.3228346456692913,
                    "duration": 0.03750000000000142
                },
                {
                    "name": "A#2",
                    "midi": 46,
                    "time": 38.39999999999998,
                    "velocity": 0.3228346456692913,
                    "duration": 0.07500000000000284
                },
                {
                    "name": "F#4",
                    "midi": 66,
                    "time": 38.51249999999998,
                    "velocity": 0.2755905511811024,
                    "duration": 0.03750000000000142
                },
                {
                    "name": "F4",
                    "midi": 65,
                    "time": 38.54999999999998,
                    "velocity": 0.3228346456692913,
                    "duration": 0.03750000000000142
                },
                {
                    "name": "F2",
                    "midi": 41,
                    "time": 38.69999999999998,
                    "velocity": 0.3464566929133858,
                    "duration": 0.07500000000000284
                },
                {
                    "name": "G4",
                    "midi": 67,
                    "time": 38.812499999999986,
                    "velocity": 0.30708661417322836,
                    "duration": 0.03750000000000142
                },
                {
                    "name": "F4",
                    "midi": 65,
                    "time": 38.84999999999999,
                    "velocity": 0.3543307086614173,
                    "duration": 0.03750000000000142
                },
                {
                    "name": "F2",
                    "midi": 41,
                    "time": 38.999999999999986,
                    "velocity": 0.36220472440944884,
                    "duration": 0.07500000000000284
                },
                {
                    "name": "F#4",
                    "midi": 66,
                    "time": 39.11249999999999,
                    "velocity": 0.30708661417322836,
                    "duration": 0.03750000000000142
                },
                {
                    "name": "F4",
                    "midi": 65,
                    "time": 39.14999999999999,
                    "velocity": 0.3543307086614173,
                    "duration": 0.03750000000000142
                },
                {
                    "name": "A2",
                    "midi": 45,
                    "time": 39.29999999999999,
                    "velocity": 0.3543307086614173,
                    "duration": 0.07500000000000284
                },
                {
                    "name": "G4",
                    "midi": 67,
                    "time": 39.412499999999994,
                    "velocity": 0.28346456692913385,
                    "duration": 0.03750000000000142
                },
                {
                    "name": "F4",
                    "midi": 65,
                    "time": 39.449999999999996,
                    "velocity": 0.3228346456692913,
                    "duration": 0.03750000000000142
                },
                {
                    "name": "A#2",
                    "midi": 46,
                    "time": 39.599999999999994,
                    "velocity": 0.36220472440944884,
                    "duration": 0.07500000000000284
                },
                {
                    "name": "G4",
                    "midi": 67,
                    "time": 39.7125,
                    "velocity": 0.33070866141732286,
                    "duration": 0.03750000000000142
                },
                {
                    "name": "F4",
                    "midi": 65,
                    "time": 39.75,
                    "velocity": 0.36220472440944884,
                    "duration": 0.03750000000000142
                },
                {
                    "name": "G#3",
                    "midi": 56,
                    "time": 39.9,
                    "velocity": 0.4094488188976378,
                    "duration": 0.07500000000000284
                },
                {
                    "name": "B4",
                    "midi": 71,
                    "time": 40.0125,
                    "velocity": 0.36220472440944884,
                    "duration": 0.03750000000000142
                },
                {
                    "name": "A#4",
                    "midi": 70,
                    "time": 40.050000000000004,
                    "velocity": 0.41732283464566927,
                    "duration": 0.03750000000000142
                },
                {
                    "name": "G3",
                    "midi": 55,
                    "time": 40.2,
                    "velocity": 0.4251968503937008,
                    "duration": 0.07500000000000284
                },
                {
                    "name": "C5",
                    "midi": 72,
                    "time": 40.31250000000001,
                    "velocity": 0.3779527559055118,
                    "duration": 0.03750000000000142
                },
                {
                    "name": "A#4",
                    "midi": 70,
                    "time": 40.35000000000001,
                    "velocity": 0.4330708661417323,
                    "duration": 0.03750000000000142
                },
                {
                    "name": "D3",
                    "midi": 50,
                    "time": 40.50000000000001,
                    "velocity": 0.4330708661417323,
                    "duration": 0.07500000000000284
                },
                {
                    "name": "B4",
                    "midi": 71,
                    "time": 40.61250000000001,
                    "velocity": 0.3858267716535433,
                    "duration": 0.03750000000000142
                },
                {
                    "name": "A#4",
                    "midi": 70,
                    "time": 40.65000000000001,
                    "velocity": 0.4409448818897638,
                    "duration": 0.03750000000000142
                },
                {
                    "name": "D#3",
                    "midi": 51,
                    "time": 40.80000000000001,
                    "velocity": 0.4409448818897638,
                    "duration": 0.07500000000000284
                },
                {
                    "name": "B4",
                    "midi": 71,
                    "time": 40.912500000000016,
                    "velocity": 0.3858267716535433,
                    "duration": 0.03750000000000142
                },
                {
                    "name": "A#4",
                    "midi": 70,
                    "time": 40.95000000000002,
                    "velocity": 0.44881889763779526,
                    "duration": 0.03750000000000142
                },
                {
                    "name": "A#2",
                    "midi": 46,
                    "time": 41.100000000000016,
                    "velocity": 0.4645669291338583,
                    "duration": 0.07500000000000284
                },
                {
                    "name": "C5",
                    "midi": 72,
                    "time": 41.21250000000002,
                    "velocity": 0.4015748031496063,
                    "duration": 0.03750000000000142
                },
                {
                    "name": "A#4",
                    "midi": 70,
                    "time": 41.25000000000002,
                    "velocity": 0.47244094488188976,
                    "duration": 0.03750000000000142
                },
                {
                    "name": "A#2",
                    "midi": 46,
                    "time": 41.40000000000002,
                    "velocity": 0.47244094488188976,
                    "duration": 0.07500000000000284
                },
                {
                    "name": "B4",
                    "midi": 71,
                    "time": 41.512500000000024,
                    "velocity": 0.4094488188976378,
                    "duration": 0.03750000000000142
                },
                {
                    "name": "A#4",
                    "midi": 70,
                    "time": 41.550000000000026,
                    "velocity": 0.47244094488188976,
                    "duration": 0.03750000000000142
                },
                {
                    "name": "D3",
                    "midi": 50,
                    "time": 41.700000000000024,
                    "velocity": 0.48031496062992124,
                    "duration": 0.07500000000000284
                },
                {
                    "name": "C5",
                    "midi": 72,
                    "time": 41.81250000000003,
                    "velocity": 0.4094488188976378,
                    "duration": 0.03750000000000142
                },
                {
                    "name": "A#4",
                    "midi": 70,
                    "time": 41.85000000000003,
                    "velocity": 0.47244094488188976,
                    "duration": 0.03750000000000142
                },
                {
                    "name": "D#3",
                    "midi": 51,
                    "time": 42.00000000000003,
                    "velocity": 0.47244094488188976,
                    "duration": 0.07500000000000284
                },
                {
                    "name": "B4",
                    "midi": 71,
                    "time": 42.11250000000003,
                    "velocity": 0.41732283464566927,
                    "duration": 0.03750000000000142
                },
                {
                    "name": "A#4",
                    "midi": 70,
                    "time": 42.150000000000034,
                    "velocity": 0.47244094488188976,
                    "duration": 0.03750000000000142
                },
                {
                    "name": "G#3",
                    "midi": 56,
                    "time": 42.30000000000003,
                    "velocity": 0.4251968503937008,
                    "duration": 0.07500000000000284
                },
                {
                    "name": "C5",
                    "midi": 72,
                    "time": 42.41250000000004,
                    "velocity": 0.3700787401574803,
                    "duration": 0.03750000000000142
                },
                {
                    "name": "A#4",
                    "midi": 70,
                    "time": 42.45000000000004,
                    "velocity": 0.4251968503937008,
                    "duration": 0.03750000000000142
                },
                {
                    "name": "G3",
                    "midi": 55,
                    "time": 42.60000000000004,
                    "velocity": 0.4251968503937008,
                    "duration": 0.07500000000000284
                },
                {
                    "name": "B4",
                    "midi": 71,
                    "time": 42.71250000000004,
                    "velocity": 0.36220472440944884,
                    "duration": 0.03750000000000142
                },
                {
                    "name": "A#4",
                    "midi": 70,
                    "time": 42.75000000000004,
                    "velocity": 0.4330708661417323,
                    "duration": 0.03750000000000142
                },
                {
                    "name": "D3",
                    "midi": 50,
                    "time": 42.90000000000004,
                    "velocity": 0.4330708661417323,
                    "duration": 0.07500000000000284
                },
                {
                    "name": "C5",
                    "midi": 72,
                    "time": 43.012500000000045,
                    "velocity": 0.3779527559055118,
                    "duration": 0.03750000000000142
                },
                {
                    "name": "A#4",
                    "midi": 70,
                    "time": 43.05000000000005,
                    "velocity": 0.4409448818897638,
                    "duration": 0.03750000000000142
                },
                {
                    "name": "D#3",
                    "midi": 51,
                    "time": 43.200000000000045,
                    "velocity": 0.4409448818897638,
                    "duration": 0.07500000000000284
                },
                {
                    "name": "B4",
                    "midi": 71,
                    "time": 43.31250000000005,
                    "velocity": 0.4094488188976378,
                    "duration": 0.03750000000000142
                },
                {
                    "name": "A#4",
                    "midi": 70,
                    "time": 43.35000000000005,
                    "velocity": 0.44881889763779526,
                    "duration": 0.03750000000000142
                },
                {
                    "name": "A#2",
                    "midi": 46,
                    "time": 43.50000000000005,
                    "velocity": 0.4881889763779528,
                    "duration": 0.07500000000000284
                },
                {
                    "name": "C5",
                    "midi": 72,
                    "time": 43.612500000000054,
                    "velocity": 0.4330708661417323,
                    "duration": 0.03750000000000142
                },
                {
                    "name": "A#4",
                    "midi": 70,
                    "time": 43.650000000000055,
                    "velocity": 0.49606299212598426,
                    "duration": 0.03750000000000142
                },
                {
                    "name": "A#2",
                    "midi": 46,
                    "time": 43.800000000000054,
                    "velocity": 0.49606299212598426,
                    "duration": 0.07500000000000284
                },
                {
                    "name": "B4",
                    "midi": 71,
                    "time": 43.91250000000006,
                    "velocity": 0.44881889763779526,
                    "duration": 0.03750000000000142
                },
                {
                    "name": "A#4",
                    "midi": 70,
                    "time": 43.95000000000006,
                    "velocity": 0.49606299212598426,
                    "duration": 0.03750000000000142
                },
                {
                    "name": "D3",
                    "midi": 50,
                    "time": 44.10000000000006,
                    "velocity": 0.4566929133858268,
                    "duration": 0.07500000000000284
                },
                {
                    "name": "C5",
                    "midi": 72,
                    "time": 44.21250000000006,
                    "velocity": 0.3937007874015748,
                    "duration": 0.03750000000000142
                },
                {
                    "name": "A#4",
                    "midi": 70,
                    "time": 44.250000000000064,
                    "velocity": 0.4566929133858268,
                    "duration": 0.03750000000000142
                },
                {
                    "name": "D#3",
                    "midi": 51,
                    "time": 44.40000000000006,
                    "velocity": 0.3464566929133858,
                    "duration": 0.29999999999999716
                },
                {
                    "name": "B2",
                    "midi": 47,
                    "time": 44.70000000000006,
                    "velocity": 0.33070866141732286,
                    "duration": 0.07500000000000284
                },
                {
                    "name": "B1",
                    "midi": 35,
                    "time": 44.70000000000006,
                    "velocity": 0.2755905511811024,
                    "duration": 0.07500000000000284
                },
                {
                    "name": "G#3",
                    "midi": 56,
                    "time": 44.850000000000065,
                    "velocity": 0.2125984251968504,
                    "duration": 0.07500000000000284
                },
                {
                    "name": "D4",
                    "midi": 62,
                    "time": 44.850000000000065,
                    "velocity": 0.25984251968503935,
                    "duration": 0.07500000000000284
                },
                {
                    "name": "F3",
                    "midi": 53,
                    "time": 44.850000000000065,
                    "velocity": 0.2125984251968504,
                    "duration": 0.07500000000000284
                },
                {
                    "name": "C3",
                    "midi": 48,
                    "time": 44.92500000000007,
                    "velocity": 0.2755905511811024,
                    "duration": 0.22500000000000142
                },
                {
                    "name": "G3",
                    "midi": 55,
                    "time": 44.96250000000007,
                    "velocity": 0.2755905511811024,
                    "duration": 0.1875
                },
                {
                    "name": "D#4",
                    "midi": 63,
                    "time": 45.00000000000007,
                    "velocity": 0.33070866141732286,
                    "duration": 0.14999999999999858
                },
                {
                    "name": "D3",
                    "midi": 50,
                    "time": 45.30000000000007,
                    "velocity": 0.33070866141732286,
                    "duration": 0.07500000000000284
                },
                {
                    "name": "D2",
                    "midi": 38,
                    "time": 45.30000000000007,
                    "velocity": 0.2755905511811024,
                    "duration": 0.07500000000000284
                },
                {
                    "name": "F4",
                    "midi": 65,
                    "time": 45.450000000000074,
                    "velocity": 0.2755905511811024,
                    "duration": 0.07500000000000284
                },
                {
                    "name": "B3",
                    "midi": 59,
                    "time": 45.450000000000074,
                    "velocity": 0.2204724409448819,
                    "duration": 0.07500000000000284
                },
                {
                    "name": "G#3",
                    "midi": 56,
                    "time": 45.450000000000074,
                    "velocity": 0.2204724409448819,
                    "duration": 0.07500000000000284
                },
                {
                    "name": "D#3",
                    "midi": 51,
                    "time": 45.52500000000008,
                    "velocity": 0.2755905511811024,
                    "duration": 0.22500000000000142
                },
                {
                    "name": "C4",
                    "midi": 60,
                    "time": 45.56250000000008,
                    "velocity": 0.2755905511811024,
                    "duration": 0.1875
                },
                {
                    "name": "G4",
                    "midi": 67,
                    "time": 45.60000000000008,
                    "velocity": 0.33070866141732286,
                    "duration": 0.14999999999999858
                },
                {
                    "name": "E2",
                    "midi": 40,
                    "time": 45.90000000000008,
                    "velocity": 0.28346456692913385,
                    "duration": 0.07500000000000284
                },
                {
                    "name": "A#2",
                    "midi": 46,
                    "time": 46.05000000000008,
                    "velocity": 0.2204724409448819,
                    "duration": 0.07500000000000284
                },
                {
                    "name": "E3",
                    "midi": 52,
                    "time": 46.20000000000009,
                    "velocity": 0.2755905511811024,
                    "duration": 0.07500000000000284
                },
                {
                    "name": "A#3",
                    "midi": 58,
                    "time": 46.350000000000094,
                    "velocity": 0.2125984251968504,
                    "duration": 0.07500000000000284
                },
                {
                    "name": "C#4",
                    "midi": 61,
                    "time": 46.5000000000001,
                    "velocity": 0.2204724409448819,
                    "duration": 0.14999999999999858
                },
                {
                    "name": "G3",
                    "midi": 55,
                    "time": 46.5000000000001,
                    "velocity": 0.14173228346456693,
                    "duration": 0.29999999999999716
                },
                {
                    "name": "A#3",
                    "midi": 58,
                    "time": 46.6500000000001,
                    "velocity": 0.18110236220472442,
                    "duration": 0.11249999999999716
                },
                {
                    "name": "F3",
                    "midi": 53,
                    "time": 46.762500000000095,
                    "velocity": 0.15748031496062992,
                    "duration": 0.1875
                },
                {
                    "name": "D4",
                    "midi": 62,
                    "time": 46.8000000000001,
                    "velocity": 0.28346456692913385,
                    "duration": 0.14999999999999858
                },
                {
                    "name": "B3",
                    "midi": 59,
                    "time": 47.100000000000094,
                    "velocity": 0.2125984251968504,
                    "duration": 0.29999999999999716
                },
                {
                    "name": "F3",
                    "midi": 53,
                    "time": 47.100000000000094,
                    "velocity": 0.1732283464566929,
                    "duration": 0.5999999999999943
                },
                {
                    "name": "C4",
                    "midi": 60,
                    "time": 47.40000000000009,
                    "velocity": 0.2125984251968504,
                    "duration": 0.29999999999999716
                },
                {
                    "name": "E2",
                    "midi": 40,
                    "time": 47.70000000000009,
                    "velocity": 0.3228346456692913,
                    "duration": 0.07500000000000284
                },
                {
                    "name": "F2",
                    "midi": 41,
                    "time": 47.77500000000009,
                    "velocity": 0.28346456692913385,
                    "duration": 0.07500000000000284
                },
                {
                    "name": "E2",
                    "midi": 40,
                    "time": 47.850000000000094,
                    "velocity": 0.33858267716535434,
                    "duration": 0.07500000000000284
                },
                {
                    "name": "F2",
                    "midi": 41,
                    "time": 47.9250000000001,
                    "velocity": 0.28346456692913385,
                    "duration": 0.375
                },
                {
                    "name": "F3",
                    "midi": 53,
                    "time": 48.0000000000001,
                    "velocity": 0.28346456692913385,
                    "duration": 0.29999999999999716
                },
                {
                    "name": "B2",
                    "midi": 47,
                    "time": 48.3000000000001,
                    "velocity": 0.2125984251968504,
                    "duration": 0.29999999999999716
                },
                {
                    "name": "F2",
                    "midi": 41,
                    "time": 48.3000000000001,
                    "velocity": 0.1732283464566929,
                    "duration": 0.5999999999999943
                },
                {
                    "name": "C3",
                    "midi": 48,
                    "time": 48.600000000000094,
                    "velocity": 0.2125984251968504,
                    "duration": 0.29999999999999716
                },
                {
                    "name": "F#2",
                    "midi": 42,
                    "time": 48.90000000000009,
                    "velocity": 0.3228346456692913,
                    "duration": 0.14999999999999858
                },
                {
                    "name": "F2",
                    "midi": 41,
                    "time": 49.05000000000009,
                    "velocity": 0.28346456692913385,
                    "duration": 0.14999999999999858
                },
                {
                    "name": "A#1",
                    "midi": 34,
                    "time": 49.20000000000009,
                    "velocity": 0.3228346456692913,
                    "duration": 0.14999999999999858
                },
                {
                    "name": "F3",
                    "midi": 53,
                    "time": 49.35000000000009,
                    "velocity": 0.2047244094488189,
                    "duration": 0.07500000000000284
                },
                {
                    "name": "A#3",
                    "midi": 58,
                    "time": 49.35000000000009,
                    "velocity": 0.1732283464566929,
                    "duration": 0.07500000000000284
                },
                {
                    "name": "D4",
                    "midi": 62,
                    "time": 49.42500000000009,
                    "velocity": 0.1968503937007874,
                    "duration": 0.07500000000000284
                },
                {
                    "name": "F#3",
                    "midi": 54,
                    "time": 49.50000000000009,
                    "velocity": 0.1968503937007874,
                    "duration": 0.07500000000000284
                },
                {
                    "name": "A#3",
                    "midi": 58,
                    "time": 49.50000000000009,
                    "velocity": 0.16535433070866143,
                    "duration": 0.07500000000000284
                },
                {
                    "name": "D4",
                    "midi": 62,
                    "time": 49.575000000000095,
                    "velocity": 0.1968503937007874,
                    "duration": 0.07500000000000284
                },
                {
                    "name": "G3",
                    "midi": 55,
                    "time": 49.6500000000001,
                    "velocity": 0.1968503937007874,
                    "duration": 0.07500000000000284
                },
                {
                    "name": "A#3",
                    "midi": 58,
                    "time": 49.6500000000001,
                    "velocity": 0.16535433070866143,
                    "duration": 0.07500000000000284
                },
                {
                    "name": "D4",
                    "midi": 62,
                    "time": 49.7250000000001,
                    "velocity": 0.1968503937007874,
                    "duration": 0.07500000000000284
                },
                {
                    "name": "F#3",
                    "midi": 54,
                    "time": 49.800000000000104,
                    "velocity": 0.23622047244094488,
                    "duration": 0.07500000000000284
                },
                {
                    "name": "A#3",
                    "midi": 58,
                    "time": 49.800000000000104,
                    "velocity": 0.1968503937007874,
                    "duration": 0.07500000000000284
                },
                {
                    "name": "D4",
                    "midi": 62,
                    "time": 49.87500000000011,
                    "velocity": 0.1732283464566929,
                    "duration": 0.07500000000000284
                },
                {
                    "name": "F3",
                    "midi": 53,
                    "time": 49.95000000000011,
                    "velocity": 0.23622047244094488,
                    "duration": 0.07500000000000284
                },
                {
                    "name": "A#3",
                    "midi": 58,
                    "time": 49.95000000000011,
                    "velocity": 0.1968503937007874,
                    "duration": 0.07500000000000284
                },
                {
                    "name": "D4",
                    "midi": 62,
                    "time": 50.02500000000011,
                    "velocity": 0.16535433070866143,
                    "duration": 0.07500000000000284
                },
                {
                    "name": "F#3",
                    "midi": 54,
                    "time": 50.100000000000115,
                    "velocity": 0.23622047244094488,
                    "duration": 0.07500000000000284
                },
                {
                    "name": "A#3",
                    "midi": 58,
                    "time": 50.100000000000115,
                    "velocity": 0.1968503937007874,
                    "duration": 0.07500000000000284
                },
                {
                    "name": "D4",
                    "midi": 62,
                    "time": 50.17500000000012,
                    "velocity": 0.1968503937007874,
                    "duration": 0.07500000000000284
                },
                {
                    "name": "A#3",
                    "midi": 58,
                    "time": 50.25000000000012,
                    "velocity": 0.1968503937007874,
                    "duration": 0.07500000000000284
                },
                {
                    "name": "G3",
                    "midi": 55,
                    "time": 50.25000000000012,
                    "velocity": 0.23622047244094488,
                    "duration": 0.07500000000000284
                },
                {
                    "name": "D4",
                    "midi": 62,
                    "time": 50.325000000000124,
                    "velocity": 0.1732283464566929,
                    "duration": 0.04999999999999716
                },
                {
                    "name": "F#3",
                    "midi": 54,
                    "time": 50.37500000000012,
                    "velocity": 0.23622047244094488,
                    "duration": 0.10000000000000853
                },
                {
                    "name": "A3",
                    "midi": 57,
                    "time": 50.387500000000124,
                    "velocity": 0.23622047244094488,
                    "duration": 0.08750000000000568
                },
                {
                    "name": "D#4",
                    "midi": 63,
                    "time": 50.40000000000013,
                    "velocity": 0.23622047244094488,
                    "duration": 0.07500000000000284
                },
                {
                    "name": "A5",
                    "midi": 81,
                    "time": 50.55000000000013,
                    "velocity": 0.3228346456692913,
                    "duration": 0.07500000000000284
                },
                {
                    "name": "F#5",
                    "midi": 78,
                    "time": 50.55000000000013,
                    "velocity": 0.3228346456692913,
                    "duration": 0.07500000000000284
                },
                {
                    "name": "D5",
                    "midi": 74,
                    "time": 50.70000000000014,
                    "velocity": 0.30708661417322836,
                    "duration": 0.07500000000000284
                },
                {
                    "name": "B4",
                    "midi": 71,
                    "time": 50.70000000000014,
                    "velocity": 0.30708661417322836,
                    "duration": 0.07500000000000284
                },
                {
                    "name": "D#5",
                    "midi": 75,
                    "time": 50.85000000000014,
                    "velocity": 0.2992125984251969,
                    "duration": 0.07500000000000284
                },
                {
                    "name": "C5",
                    "midi": 72,
                    "time": 50.85000000000014,
                    "velocity": 0.2992125984251969,
                    "duration": 0.07500000000000284
                },
                {
                    "name": "G#4",
                    "midi": 68,
                    "time": 51.00000000000015,
                    "velocity": 0.2992125984251969,
                    "duration": 0.07500000000000284
                },
                {
                    "name": "F4",
                    "midi": 65,
                    "time": 51.00000000000015,
                    "velocity": 0.2992125984251969,
                    "duration": 0.07500000000000284
                },
                {
                    "name": "F#4",
                    "midi": 66,
                    "time": 51.150000000000155,
                    "velocity": 0.29133858267716534,
                    "duration": 0.07500000000000284
                },
                {
                    "name": "A4",
                    "midi": 69,
                    "time": 51.150000000000155,
                    "velocity": 0.29133858267716534,
                    "duration": 0.07500000000000284
                },
                {
                    "name": "B3",
                    "midi": 59,
                    "time": 51.30000000000016,
                    "velocity": 0.28346456692913385,
                    "duration": 0.07500000000000284
                },
                {
                    "name": "D4",
                    "midi": 62,
                    "time": 51.30000000000016,
                    "velocity": 0.28346456692913385,
                    "duration": 0.07500000000000284
                },
                {
                    "name": "D#4",
                    "midi": 63,
                    "time": 51.450000000000166,
                    "velocity": 0.28346456692913385,
                    "duration": 0.07500000000000284
                },
                {
                    "name": "C4",
                    "midi": 60,
                    "time": 51.450000000000166,
                    "velocity": 0.28346456692913385,
                    "duration": 0.07500000000000284
                },
                {
                    "name": "F2",
                    "midi": 41,
                    "time": 51.60000000000017,
                    "velocity": 0.3543307086614173,
                    "duration": 0.14999999999999858
                },
                {
                    "name": "F3",
                    "midi": 53,
                    "time": 51.75000000000017,
                    "velocity": 0.2047244094488189,
                    "duration": 0.07500000000000284
                },
                {
                    "name": "A#3",
                    "midi": 58,
                    "time": 51.75000000000017,
                    "velocity": 0.1732283464566929,
                    "duration": 0.07500000000000284
                },
                {
                    "name": "D4",
                    "midi": 62,
                    "time": 51.82500000000017,
                    "velocity": 0.1968503937007874,
                    "duration": 0.07500000000000284
                },
                {
                    "name": "A#3",
                    "midi": 58,
                    "time": 51.900000000000176,
                    "velocity": 0.16535433070866143,
                    "duration": 0.07500000000000284
                },
                {
                    "name": "F#3",
                    "midi": 54,
                    "time": 51.900000000000176,
                    "velocity": 0.1968503937007874,
                    "duration": 0.07500000000000284
                },
                {
                    "name": "D4",
                    "midi": 62,
                    "time": 51.97500000000018,
                    "velocity": 0.1968503937007874,
                    "duration": 0.07500000000000284
                },
                {
                    "name": "G3",
                    "midi": 55,
                    "time": 52.05000000000018,
                    "velocity": 0.1968503937007874,
                    "duration": 0.07500000000000284
                },
                {
                    "name": "A#3",
                    "midi": 58,
                    "time": 52.05000000000018,
                    "velocity": 0.16535433070866143,
                    "duration": 0.07500000000000284
                },
                {
                    "name": "D4",
                    "midi": 62,
                    "time": 52.125000000000185,
                    "velocity": 0.1968503937007874,
                    "duration": 0.07500000000000284
                },
                {
                    "name": "F#3",
                    "midi": 54,
                    "time": 52.20000000000019,
                    "velocity": 0.23622047244094488,
                    "duration": 0.07500000000000284
                },
                {
                    "name": "A#3",
                    "midi": 58,
                    "time": 52.20000000000019,
                    "velocity": 0.1968503937007874,
                    "duration": 0.07500000000000284
                },
                {
                    "name": "D4",
                    "midi": 62,
                    "time": 52.27500000000019,
                    "velocity": 0.1732283464566929,
                    "duration": 0.07500000000000284
                },
                {
                    "name": "F3",
                    "midi": 53,
                    "time": 52.35000000000019,
                    "velocity": 0.23622047244094488,
                    "duration": 0.07500000000000284
                },
                {
                    "name": "A#3",
                    "midi": 58,
                    "time": 52.35000000000019,
                    "velocity": 0.1968503937007874,
                    "duration": 0.07500000000000284
                },
                {
                    "name": "D4",
                    "midi": 62,
                    "time": 52.425000000000196,
                    "velocity": 0.16535433070866143,
                    "duration": 0.07500000000000284
                },
                {
                    "name": "F#3",
                    "midi": 54,
                    "time": 52.5000000000002,
                    "velocity": 0.23622047244094488,
                    "duration": 0.07500000000000284
                },
                {
                    "name": "A#3",
                    "midi": 58,
                    "time": 52.5000000000002,
                    "velocity": 0.1968503937007874,
                    "duration": 0.07500000000000284
                },
                {
                    "name": "D4",
                    "midi": 62,
                    "time": 52.5750000000002,
                    "velocity": 0.1968503937007874,
                    "duration": 0.07500000000000284
                },
                {
                    "name": "G3",
                    "midi": 55,
                    "time": 52.650000000000205,
                    "velocity": 0.23622047244094488,
                    "duration": 0.07500000000000284
                },
                {
                    "name": "A#3",
                    "midi": 58,
                    "time": 52.650000000000205,
                    "velocity": 0.1968503937007874,
                    "duration": 0.07500000000000284
                },
                {
                    "name": "D4",
                    "midi": 62,
                    "time": 52.72500000000021,
                    "velocity": 0.1732283464566929,
                    "duration": 0.04999999999999716
                },
                {
                    "name": "F#3",
                    "midi": 54,
                    "time": 52.775000000000205,
                    "velocity": 0.1968503937007874,
                    "duration": 0.10000000000000853
                },
                {
                    "name": "A3",
                    "midi": 57,
                    "time": 52.78750000000021,
                    "velocity": 0.1968503937007874,
                    "duration": 0.08750000000000568
                },
                {
                    "name": "D#4",
                    "midi": 63,
                    "time": 52.80000000000021,
                    "velocity": 0.23622047244094488,
                    "duration": 0.07500000000000284
                },
                {
                    "name": "A5",
                    "midi": 81,
                    "time": 52.950000000000216,
                    "velocity": 0.3228346456692913,
                    "duration": 0.07500000000000284
                },
                {
                    "name": "F#5",
                    "midi": 78,
                    "time": 52.950000000000216,
                    "velocity": 0.2755905511811024,
                    "duration": 0.07500000000000284
                },
                {
                    "name": "B4",
                    "midi": 71,
                    "time": 53.10000000000022,
                    "velocity": 0.25984251968503935,
                    "duration": 0.07500000000000284
                },
                {
                    "name": "D5",
                    "midi": 74,
                    "time": 53.10000000000022,
                    "velocity": 0.30708661417322836,
                    "duration": 0.07500000000000284
                },
                {
                    "name": "D#5",
                    "midi": 75,
                    "time": 53.25000000000023,
                    "velocity": 0.2992125984251969,
                    "duration": 0.07500000000000284
                },
                {
                    "name": "C5",
                    "midi": 72,
                    "time": 53.25000000000023,
                    "velocity": 0.25196850393700787,
                    "duration": 0.07500000000000284
                },
                {
                    "name": "G#4",
                    "midi": 68,
                    "time": 53.40000000000023,
                    "velocity": 0.2992125984251969,
                    "duration": 0.07500000000000284
                },
                {
                    "name": "F4",
                    "midi": 65,
                    "time": 53.40000000000023,
                    "velocity": 0.25196850393700787,
                    "duration": 0.07500000000000284
                },
                {
                    "name": "F#4",
                    "midi": 66,
                    "time": 53.55000000000024,
                    "velocity": 0.2440944881889764,
                    "duration": 0.07500000000000284
                },
                {
                    "name": "A4",
                    "midi": 69,
                    "time": 53.55000000000024,
                    "velocity": 0.29133858267716534,
                    "duration": 0.07500000000000284
                },
                {
                    "name": "D4",
                    "midi": 62,
                    "time": 53.700000000000244,
                    "velocity": 0.28346456692913385,
                    "duration": 0.07500000000000284
                },
                {
                    "name": "B3",
                    "midi": 59,
                    "time": 53.700000000000244,
                    "velocity": 0.23622047244094488,
                    "duration": 0.07500000000000284
                },
                {
                    "name": "D#4",
                    "midi": 63,
                    "time": 53.85000000000025,
                    "velocity": 0.28346456692913385,
                    "duration": 0.07500000000000284
                },
                {
                    "name": "C4",
                    "midi": 60,
                    "time": 53.85000000000025,
                    "velocity": 0.2283464566929134,
                    "duration": 0.07500000000000284
                },
                {
                    "name": "A#2",
                    "midi": 46,
                    "time": 53.97500000000025,
                    "velocity": 0.28346456692913385,
                    "duration": 0.10000000000000853
                },
                {
                    "name": "G#3",
                    "midi": 56,
                    "time": 53.98750000000025,
                    "velocity": 0.28346456692913385,
                    "duration": 0.08750000000000568
                },
                {
                    "name": "B3",
                    "midi": 59,
                    "time": 54.000000000000256,
                    "velocity": 0.33858267716535434,
                    "duration": 0.07500000000000284
                },
                {
                    "name": "G#5",
                    "midi": 80,
                    "time": 54.15000000000026,
                    "velocity": 0.29133858267716534,
                    "duration": 0.07500000000000284
                },
                {
                    "name": "B5",
                    "midi": 83,
                    "time": 54.15000000000026,
                    "velocity": 0.3543307086614173,
                    "duration": 0.07500000000000284
                },
                {
                    "name": "E5",
                    "midi": 76,
                    "time": 54.30000000000027,
                    "velocity": 0.33858267716535434,
                    "duration": 0.07500000000000284
                },
                {
                    "name": "C#5",
                    "midi": 73,
                    "time": 54.30000000000027,
                    "velocity": 0.28346456692913385,
                    "duration": 0.07500000000000284
                },
                {
                    "name": "D5",
                    "midi": 74,
                    "time": 54.45000000000027,
                    "velocity": 0.2755905511811024,
                    "duration": 0.07500000000000284
                },
                {
                    "name": "F5",
                    "midi": 77,
                    "time": 54.45000000000027,
                    "velocity": 0.33070866141732286,
                    "duration": 0.07500000000000284
                },
                {
                    "name": "A#4",
                    "midi": 70,
                    "time": 54.60000000000028,
                    "velocity": 0.33070866141732286,
                    "duration": 0.07500000000000284
                },
                {
                    "name": "G4",
                    "midi": 67,
                    "time": 54.60000000000028,
                    "velocity": 0.2755905511811024,
                    "duration": 0.07500000000000284
                },
                {
                    "name": "G#4",
                    "midi": 68,
                    "time": 54.750000000000284,
                    "velocity": 0.2755905511811024,
                    "duration": 0.07500000000000284
                },
                {
                    "name": "B4",
                    "midi": 71,
                    "time": 54.750000000000284,
                    "velocity": 0.3228346456692913,
                    "duration": 0.07500000000000284
                },
                {
                    "name": "C#4",
                    "midi": 61,
                    "time": 54.90000000000029,
                    "velocity": 0.25984251968503935,
                    "duration": 0.07500000000000284
                },
                {
                    "name": "E4",
                    "midi": 64,
                    "time": 54.90000000000029,
                    "velocity": 0.30708661417322836,
                    "duration": 0.07500000000000284
                },
                {
                    "name": "F4",
                    "midi": 65,
                    "time": 55.050000000000296,
                    "velocity": 0.2992125984251969,
                    "duration": 0.07500000000000284
                },
                {
                    "name": "D4",
                    "midi": 62,
                    "time": 55.050000000000296,
                    "velocity": 0.25196850393700787,
                    "duration": 0.07500000000000284
                },
                {
                    "name": "A#2",
                    "midi": 46,
                    "time": 55.175000000000296,
                    "velocity": 0.30708661417322836,
                    "duration": 0.10000000000000142
                },
                {
                    "name": "C#4",
                    "midi": 61,
                    "time": 55.200000000000294,
                    "velocity": 0.36220472440944884,
                    "duration": 0.07500000000000284
                },
                {
                    "name": "C#6",
                    "midi": 85,
                    "time": 55.3500000000003,
                    "velocity": 0.3858267716535433,
                    "duration": 0.07500000000000284
                },
                {
                    "name": "A#5",
                    "midi": 82,
                    "time": 55.3500000000003,
                    "velocity": 0.3228346456692913,
                    "duration": 0.07500000000000284
                },
                {
                    "name": "D#5",
                    "midi": 75,
                    "time": 55.500000000000306,
                    "velocity": 0.30708661417322836,
                    "duration": 0.07500000000000284
                },
                {
                    "name": "F#5",
                    "midi": 78,
                    "time": 55.500000000000306,
                    "velocity": 0.36220472440944884,
                    "duration": 0.07500000000000284
                },
                {
                    "name": "D#5",
                    "midi": 75,
                    "time": 55.65000000000031,
                    "velocity": 0.2992125984251969,
                    "duration": 0.07500000000000284
                },
                {
                    "name": "G5",
                    "midi": 79,
                    "time": 55.65000000000031,
                    "velocity": 0.3543307086614173,
                    "duration": 0.07500000000000284
                },
                {
                    "name": "A#2",
                    "midi": 46,
                    "time": 55.75000000000031,
                    "velocity": 0.33858267716535434,
                    "duration": 0.125
                },
                {
                    "name": "F#3",
                    "midi": 54,
                    "time": 55.77500000000031,
                    "velocity": 0.33858267716535434,
                    "duration": 0.10000000000000142
                },
                {
                    "name": "C4",
                    "midi": 60,
                    "time": 55.80000000000031,
                    "velocity": 0.4015748031496063,
                    "duration": 0.07500000000000284
                },
                {
                    "name": "C6",
                    "midi": 84,
                    "time": 55.950000000000315,
                    "velocity": 0.3228346456692913,
                    "duration": 0.07500000000000284
                },
                {
                    "name": "D#6",
                    "midi": 87,
                    "time": 55.950000000000315,
                    "velocity": 0.3858267716535433,
                    "duration": 0.07500000000000284
                },
                {
                    "name": "G#5",
                    "midi": 80,
                    "time": 56.10000000000032,
                    "velocity": 0.36220472440944884,
                    "duration": 0.07500000000000284
                },
                {
                    "name": "F5",
                    "midi": 77,
                    "time": 56.10000000000032,
                    "velocity": 0.30708661417322836,
                    "duration": 0.07500000000000284
                },
                {
                    "name": "A5",
                    "midi": 81,
                    "time": 56.25000000000033,
                    "velocity": 0.3543307086614173,
                    "duration": 0.07500000000000284
                },
                {
                    "name": "F#5",
                    "midi": 78,
                    "time": 56.25000000000033,
                    "velocity": 0.2992125984251969,
                    "duration": 0.07500000000000284
                },
                {
                    "name": "F#5",
                    "midi": 78,
                    "time": 56.40000000000033,
                    "velocity": 0.3858267716535433,
                    "duration": 0.07500000000000284
                },
                {
                    "name": "D#5",
                    "midi": 75,
                    "time": 56.40000000000033,
                    "velocity": 0.3228346456692913,
                    "duration": 0.07500000000000284
                },
                {
                    "name": "B4",
                    "midi": 71,
                    "time": 56.55000000000034,
                    "velocity": 0.3858267716535433,
                    "duration": 0.07500000000000284
                },
                {
                    "name": "G#4",
                    "midi": 68,
                    "time": 56.55000000000034,
                    "velocity": 0.3228346456692913,
                    "duration": 0.07500000000000284
                },
                {
                    "name": "A4",
                    "midi": 69,
                    "time": 56.700000000000344,
                    "velocity": 0.30708661417322836,
                    "duration": 0.07500000000000284
                },
                {
                    "name": "C5",
                    "midi": 72,
                    "time": 56.700000000000344,
                    "velocity": 0.36220472440944884,
                    "duration": 0.07500000000000284
                },
                {
                    "name": "A4",
                    "midi": 69,
                    "time": 56.85000000000035,
                    "velocity": 0.3543307086614173,
                    "duration": 0.07500000000000284
                },
                {
                    "name": "F#4",
                    "midi": 66,
                    "time": 56.85000000000035,
                    "velocity": 0.2992125984251969,
                    "duration": 0.07500000000000284
                },
                {
                    "name": "D4",
                    "midi": 62,
                    "time": 57.000000000000355,
                    "velocity": 0.4094488188976378,
                    "duration": 0.07500000000000284
                },
                {
                    "name": "B3",
                    "midi": 59,
                    "time": 57.000000000000355,
                    "velocity": 0.3464566929133858,
                    "duration": 0.07500000000000284
                },
                {
                    "name": "C4",
                    "midi": 60,
                    "time": 57.15000000000036,
                    "velocity": 0.3543307086614173,
                    "duration": 0.07500000000000284
                },
                {
                    "name": "D#4",
                    "midi": 63,
                    "time": 57.15000000000036,
                    "velocity": 0.4330708661417323,
                    "duration": 0.07500000000000284
                },
                {
                    "name": "B3",
                    "midi": 59,
                    "time": 57.30000000000037,
                    "velocity": 0.4015748031496063,
                    "duration": 0.07500000000000284
                },
                {
                    "name": "E4",
                    "midi": 64,
                    "time": 57.30000000000037,
                    "velocity": 0.47244094488188976,
                    "duration": 0.07500000000000284
                },
                {
                    "name": "G#3",
                    "midi": 56,
                    "time": 57.30000000000037,
                    "velocity": 0.4015748031496063,
                    "duration": 0.07500000000000284
                },
                {
                    "name": "F4",
                    "midi": 65,
                    "time": 57.45000000000037,
                    "velocity": 0.49606299212598426,
                    "duration": 0.07500000000000284
                },
                {
                    "name": "C4",
                    "midi": 60,
                    "time": 57.45000000000037,
                    "velocity": 0.41732283464566927,
                    "duration": 0.07500000000000284
                },
                {
                    "name": "A3",
                    "midi": 57,
                    "time": 57.45000000000037,
                    "velocity": 0.41732283464566927,
                    "duration": 0.07500000000000284
                },
                {
                    "name": "A#1",
                    "midi": 34,
                    "time": 57.60000000000038,
                    "velocity": 0.4645669291338583,
                    "duration": 0.5999999999999943
                },
                {
                    "name": "A#2",
                    "midi": 46,
                    "time": 57.60000000000038,
                    "velocity": 0.5669291338582677,
                    "duration": 0.5999999999999943
                },
                {
                    "name": "D4",
                    "midi": 62,
                    "time": 57.75000000000038,
                    "velocity": 0.4094488188976378,
                    "duration": 0.14999999999999858
                },
                {
                    "name": "D3",
                    "midi": 50,
                    "time": 57.75000000000038,
                    "velocity": 0.3464566929133858,
                    "duration": 0.14999999999999858
                },
                {
                    "name": "F3",
                    "midi": 53,
                    "time": 57.900000000000375,
                    "velocity": 0.3464566929133858,
                    "duration": 0.14999999999999858
                },
                {
                    "name": "C4",
                    "midi": 60,
                    "time": 57.900000000000375,
                    "velocity": 0.4094488188976378,
                    "duration": 0.14999999999999858
                },
                {
                    "name": "A#3",
                    "midi": 58,
                    "time": 58.050000000000374,
                    "velocity": 0.4094488188976378,
                    "duration": 0.14999999999999858
                },
                {
                    "name": "G#1",
                    "midi": 32,
                    "time": 58.20000000000037,
                    "velocity": 0.4645669291338583,
                    "duration": 0.6000000000000014
                },
                {
                    "name": "G#2",
                    "midi": 44,
                    "time": 58.20000000000037,
                    "velocity": 0.5669291338582677,
                    "duration": 0.6000000000000014
                },
                {
                    "name": "D3",
                    "midi": 50,
                    "time": 58.35000000000037,
                    "velocity": 0.3543307086614173,
                    "duration": 0.14999999999999858
                },
                {
                    "name": "D4",
                    "midi": 62,
                    "time": 58.35000000000037,
                    "velocity": 0.41732283464566927,
                    "duration": 0.14999999999999858
                },
                {
                    "name": "F3",
                    "midi": 53,
                    "time": 58.50000000000037,
                    "velocity": 0.3543307086614173,
                    "duration": 0.15000000000000568
                },
                {
                    "name": "C4",
                    "midi": 60,
                    "time": 58.50000000000037,
                    "velocity": 0.4330708661417323,
                    "duration": 0.07500000000000284
                },
                {
                    "name": "B3",
                    "midi": 59,
                    "time": 58.57500000000037,
                    "velocity": 0.3779527559055118,
                    "duration": 0.07500000000000284
                },
                {
                    "name": "A#3",
                    "midi": 58,
                    "time": 58.650000000000375,
                    "velocity": 0.4409448818897638,
                    "duration": 0.14999999999999858
                },
                {
                    "name": "F#1",
                    "midi": 30,
                    "time": 58.800000000000374,
                    "velocity": 0.4645669291338583,
                    "duration": 0.5999999999999943
                },
                {
                    "name": "F#2",
                    "midi": 42,
                    "time": 58.800000000000374,
                    "velocity": 0.5669291338582677,
                    "duration": 0.5999999999999943
                },
                {
                    "name": "D4",
                    "midi": 62,
                    "time": 58.95000000000037,
                    "velocity": 0.4094488188976378,
                    "duration": 0.14999999999999858
                },
                {
                    "name": "D3",
                    "midi": 50,
                    "time": 58.95000000000037,
                    "velocity": 0.3464566929133858,
                    "duration": 0.14999999999999858
                },
                {
                    "name": "C4",
                    "midi": 60,
                    "time": 59.10000000000037,
                    "velocity": 0.4094488188976378,
                    "duration": 0.14999999999999858
                },
                {
                    "name": "F#3",
                    "midi": 54,
                    "time": 59.10000000000037,
                    "velocity": 0.3464566929133858,
                    "duration": 0.14999999999999858
                },
                {
                    "name": "A#3",
                    "midi": 58,
                    "time": 59.25000000000037,
                    "velocity": 0.4094488188976378,
                    "duration": 0.14999999999999858
                },
                {
                    "name": "F1",
                    "midi": 29,
                    "time": 59.40000000000037,
                    "velocity": 0.4645669291338583,
                    "duration": 0.6000000000000014
                },
                {
                    "name": "F2",
                    "midi": 41,
                    "time": 59.40000000000037,
                    "velocity": 0.5669291338582677,
                    "duration": 0.6000000000000014
                },
                {
                    "name": "D3",
                    "midi": 50,
                    "time": 59.55000000000037,
                    "velocity": 0.3543307086614173,
                    "duration": 0.14999999999999858
                },
                {
                    "name": "D4",
                    "midi": 62,
                    "time": 59.55000000000037,
                    "velocity": 0.41732283464566927,
                    "duration": 0.14999999999999858
                },
                {
                    "name": "G#3",
                    "midi": 56,
                    "time": 59.700000000000365,
                    "velocity": 0.3543307086614173,
                    "duration": 0.15000000000000568
                },
                {
                    "name": "C4",
                    "midi": 60,
                    "time": 59.700000000000365,
                    "velocity": 0.4330708661417323,
                    "duration": 0.07500000000000284
                },
                {
                    "name": "B3",
                    "midi": 59,
                    "time": 59.77500000000037,
                    "velocity": 0.3779527559055118,
                    "duration": 0.07500000000000284
                },
                {
                    "name": "A#3",
                    "midi": 58,
                    "time": 59.85000000000037,
                    "velocity": 0.4409448818897638,
                    "duration": 0.14999999999999858
                },
                {
                    "name": "D#3",
                    "midi": 51,
                    "time": 60.00000000000037,
                    "velocity": 0.6377952755905512,
                    "duration": 0.5999999999999943
                },
                {
                    "name": "D#2",
                    "midi": 39,
                    "time": 60.00000000000037,
                    "velocity": 0.5354330708661418,
                    "duration": 0.5999999999999943
                },
                {
                    "name": "F#4",
                    "midi": 66,
                    "time": 60.15000000000037,
                    "velocity": 0.4566929133858268,
                    "duration": 0.14999999999999858
                },
                {
                    "name": "F#3",
                    "midi": 54,
                    "time": 60.15000000000037,
                    "velocity": 0.4094488188976378,
                    "duration": 0.14999999999999858
                },
                {
                    "name": "A#3",
                    "midi": 58,
                    "time": 60.30000000000037,
                    "velocity": 0.3858267716535433,
                    "duration": 0.14999999999999858
                },
                {
                    "name": "F4",
                    "midi": 65,
                    "time": 60.30000000000037,
                    "velocity": 0.4566929133858268,
                    "duration": 0.14999999999999858
                },
                {
                    "name": "D#4",
                    "midi": 63,
                    "time": 60.450000000000365,
                    "velocity": 0.4645669291338583,
                    "duration": 0.14999999999999858
                },
                {
                    "name": "C#2",
                    "midi": 37,
                    "time": 60.600000000000364,
                    "velocity": 0.5511811023622047,
                    "duration": 0.6000000000000014
                },
                {
                    "name": "C#3",
                    "midi": 49,
                    "time": 60.600000000000364,
                    "velocity": 0.6535433070866141,
                    "duration": 0.6000000000000014
                },
                {
                    "name": "F#4",
                    "midi": 66,
                    "time": 60.75000000000036,
                    "velocity": 0.4881889763779528,
                    "duration": 0.14999999999999858
                },
                {
                    "name": "F#3",
                    "midi": 54,
                    "time": 60.75000000000036,
                    "velocity": 0.4015748031496063,
                    "duration": 0.14999999999999858
                },
                {
                    "name": "F4",
                    "midi": 65,
                    "time": 60.90000000000036,
                    "velocity": 0.5118110236220472,
                    "duration": 0.07500000000000284
                },
                {
                    "name": "A#3",
                    "midi": 58,
                    "time": 60.90000000000036,
                    "velocity": 0.4251968503937008,
                    "duration": 0.15000000000000568
                },
                {
                    "name": "E4",
                    "midi": 64,
                    "time": 60.975000000000364,
                    "velocity": 0.44881889763779526,
                    "duration": 0.07500000000000284
                },
                {
                    "name": "D#4",
                    "midi": 63,
                    "time": 61.05000000000037,
                    "velocity": 0.5196850393700787,
                    "duration": 0.14999999999999858
                },
                {
                    "name": "B1",
                    "midi": 35,
                    "time": 61.200000000000365,
                    "velocity": 0.5669291338582677,
                    "duration": 0.5999999999999943
                },
                {
                    "name": "B2",
                    "midi": 47,
                    "time": 61.200000000000365,
                    "velocity": 0.6850393700787402,
                    "duration": 0.5999999999999943
                },
                {
                    "name": "F#3",
                    "midi": 54,
                    "time": 61.350000000000364,
                    "velocity": 0.4094488188976378,
                    "duration": 0.14999999999999858
                },
                {
                    "name": "F#4",
                    "midi": 66,
                    "time": 61.350000000000364,
                    "velocity": 0.49606299212598426,
                    "duration": 0.14999999999999858
                },
                {
                    "name": "B3",
                    "midi": 59,
                    "time": 61.50000000000036,
                    "velocity": 0.41732283464566927,
                    "duration": 0.14999999999999858
                },
                {
                    "name": "F4",
                    "midi": 65,
                    "time": 61.50000000000036,
                    "velocity": 0.49606299212598426,
                    "duration": 0.14999999999999858
                },
                {
                    "name": "D#4",
                    "midi": 63,
                    "time": 61.65000000000036,
                    "velocity": 0.49606299212598426,
                    "duration": 0.14999999999999858
                },
                {
                    "name": "A#1",
                    "midi": 34,
                    "time": 61.80000000000036,
                    "velocity": 0.5905511811023622,
                    "duration": 0.6000000000000014
                },
                {
                    "name": "A#2",
                    "midi": 46,
                    "time": 61.80000000000036,
                    "velocity": 0.7165354330708661,
                    "duration": 0.6000000000000014
                },
                {
                    "name": "F#4",
                    "midi": 66,
                    "time": 61.95000000000036,
                    "velocity": 0.5118110236220472,
                    "duration": 0.14999999999999858
                },
                {
                    "name": "F#3",
                    "midi": 54,
                    "time": 61.95000000000036,
                    "velocity": 0.4330708661417323,
                    "duration": 0.14999999999999858
                },
                {
                    "name": "F4",
                    "midi": 65,
                    "time": 62.10000000000036,
                    "velocity": 0.5511811023622047,
                    "duration": 0.07500000000000284
                },
                {
                    "name": "A#3",
                    "midi": 58,
                    "time": 62.10000000000036,
                    "velocity": 0.4566929133858268,
                    "duration": 0.15000000000000568
                },
                {
                    "name": "E4",
                    "midi": 64,
                    "time": 62.17500000000036,
                    "velocity": 0.47244094488188976,
                    "duration": 0.07500000000000284
                },
                {
                    "name": "D#4",
                    "midi": 63,
                    "time": 62.25000000000036,
                    "velocity": 0.5669291338582677,
                    "duration": 0.14999999999999858
                },
                {
                    "name": "G#1",
                    "midi": 32,
                    "time": 62.40000000000036,
                    "velocity": 0.28346456692913385,
                    "duration": 0.30000000000001137
                },
                {
                    "name": "G#2",
                    "midi": 44,
                    "time": 62.40000000000036,
                    "velocity": 0.28346456692913385,
                    "duration": 0.09000000000000341
                },
                {
                    "name": "A2",
                    "midi": 45,
                    "time": 62.475000000000364,
                    "velocity": 0.2204724409448819,
                    "duration": 0.07500000000000284
                },
                {
                    "name": "A2",
                    "midi": 45,
                    "time": 62.55000000000037,
                    "velocity": 0.2204724409448819,
                    "duration": 0.07500000000000284
                },
                {
                    "name": "A#2",
                    "midi": 46,
                    "time": 62.62500000000037,
                    "velocity": 0.2283464566929134,
                    "duration": 0.07500000000000284
                },
                {
                    "name": "B2",
                    "midi": 47,
                    "time": 62.70000000000037,
                    "velocity": 0.2283464566929134,
                    "duration": 0.09000000000000341
                },
                {
                    "name": "C3",
                    "midi": 48,
                    "time": 62.775000000000375,
                    "velocity": 0.2283464566929134,
                    "duration": 0.07500000000000284
                },
                {
                    "name": "B2",
                    "midi": 47,
                    "time": 62.85000000000038,
                    "velocity": 0.23622047244094488,
                    "duration": 0.07500000000000284
                },
                {
                    "name": "C3",
                    "midi": 48,
                    "time": 62.92500000000038,
                    "velocity": 0.23622047244094488,
                    "duration": 0.07500000000000284
                },
                {
                    "name": "C#2",
                    "midi": 37,
                    "time": 63.000000000000384,
                    "velocity": 0.28346456692913385,
                    "duration": 0.30000000000001137
                },
                {
                    "name": "C#3",
                    "midi": 49,
                    "time": 63.000000000000384,
                    "velocity": 0.28346456692913385,
                    "duration": 0.09000000000000341
                },
                {
                    "name": "D3",
                    "midi": 50,
                    "time": 63.07500000000039,
                    "velocity": 0.2440944881889764,
                    "duration": 0.07500000000000284
                },
                {
                    "name": "C#3",
                    "midi": 49,
                    "time": 63.15000000000039,
                    "velocity": 0.25196850393700787,
                    "duration": 0.07500000000000284
                },
                {
                    "name": "D#3",
                    "midi": 51,
                    "time": 63.22500000000039,
                    "velocity": 0.25196850393700787,
                    "duration": 0.07500000000000284
                },
                {
                    "name": "E3",
                    "midi": 52,
                    "time": 63.300000000000395,
                    "velocity": 0.25984251968503935,
                    "duration": 0.09000000000000341
                },
                {
                    "name": "F3",
                    "midi": 53,
                    "time": 63.3750000000004,
                    "velocity": 0.2755905511811024,
                    "duration": 0.07500000000000284
                },
                {
                    "name": "E3",
                    "midi": 52,
                    "time": 63.4500000000004,
                    "velocity": 0.28346456692913385,
                    "duration": 0.07500000000000284
                },
                {
                    "name": "F3",
                    "midi": 53,
                    "time": 63.525000000000404,
                    "velocity": 0.28346456692913385,
                    "duration": 0.07500000000000284
                },
                {
                    "name": "F#2",
                    "midi": 42,
                    "time": 63.600000000000406,
                    "velocity": 0.28346456692913385,
                    "duration": 0.30000000000001137
                },
                {
                    "name": "F#3",
                    "midi": 54,
                    "time": 63.600000000000406,
                    "velocity": 0.28346456692913385,
                    "duration": 0.09000000000000341
                },
                {
                    "name": "G3",
                    "midi": 55,
                    "time": 63.67500000000041,
                    "velocity": 0.2204724409448819,
                    "duration": 0.07500000000000284
                },
                {
                    "name": "F#3",
                    "midi": 54,
                    "time": 63.75000000000041,
                    "velocity": 0.2204724409448819,
                    "duration": 0.07500000000000284
                },
                {
                    "name": "G#3",
                    "midi": 56,
                    "time": 63.825000000000415,
                    "velocity": 0.2283464566929134,
                    "duration": 0.07500000000000284
                },
                {
                    "name": "A3",
                    "midi": 57,
                    "time": 63.90000000000042,
                    "velocity": 0.2283464566929134,
                    "duration": 0.09000000000000341
                },
                {
                    "name": "A#3",
                    "midi": 58,
                    "time": 63.97500000000042,
                    "velocity": 0.2283464566929134,
                    "duration": 0.07500000000000284
                },
                {
                    "name": "A3",
                    "midi": 57,
                    "time": 64.05000000000042,
                    "velocity": 0.23622047244094488,
                    "duration": 0.07500000000000284
                },
                {
                    "name": "A#3",
                    "midi": 58,
                    "time": 64.12500000000043,
                    "velocity": 0.23622047244094488,
                    "duration": 0.07500000000000284
                },
                {
                    "name": "B2",
                    "midi": 47,
                    "time": 64.20000000000043,
                    "velocity": 0.28346456692913385,
                    "duration": 0.30000000000001137
                },
                {
                    "name": "B3",
                    "midi": 59,
                    "time": 64.20000000000043,
                    "velocity": 0.28346456692913385,
                    "duration": 0.09000000000000341
                },
                {
                    "name": "C4",
                    "midi": 60,
                    "time": 64.27500000000043,
                    "velocity": 0.2440944881889764,
                    "duration": 0.07500000000000284
                },
                {
                    "name": "B3",
                    "midi": 59,
                    "time": 64.35000000000043,
                    "velocity": 0.25196850393700787,
                    "duration": 0.07500000000000284
                },
                {
                    "name": "C#4",
                    "midi": 61,
                    "time": 64.42500000000044,
                    "velocity": 0.25196850393700787,
                    "duration": 0.07500000000000284
                },
                {
                    "name": "D4",
                    "midi": 62,
                    "time": 64.50000000000044,
                    "velocity": 0.25984251968503935,
                    "duration": 0.09000000000000341
                },
                {
                    "name": "D#4",
                    "midi": 63,
                    "time": 64.57500000000044,
                    "velocity": 0.2755905511811024,
                    "duration": 0.07500000000000284
                },
                {
                    "name": "D4",
                    "midi": 62,
                    "time": 64.65000000000045,
                    "velocity": 0.28346456692913385,
                    "duration": 0.07500000000000284
                },
                {
                    "name": "D#4",
                    "midi": 63,
                    "time": 64.72500000000045,
                    "velocity": 0.28346456692913385,
                    "duration": 0.07500000000000284
                },
                {
                    "name": "F4",
                    "midi": 65,
                    "time": 64.80000000000045,
                    "velocity": 0.28346456692913385,
                    "duration": 0.09000000000000341
                },
                {
                    "name": "F3",
                    "midi": 53,
                    "time": 64.80000000000045,
                    "velocity": 0.28346456692913385,
                    "duration": 0.30000000000001137
                },
                {
                    "name": "F#4",
                    "midi": 66,
                    "time": 64.87500000000045,
                    "velocity": 0.2204724409448819,
                    "duration": 0.07500000000000284
                },
                {
                    "name": "F4",
                    "midi": 65,
                    "time": 64.95000000000046,
                    "velocity": 0.2204724409448819,
                    "duration": 0.07500000000000284
                },
                {
                    "name": "G4",
                    "midi": 67,
                    "time": 65.02500000000046,
                    "velocity": 0.2283464566929134,
                    "duration": 0.07500000000000284
                },
                {
                    "name": "G#4",
                    "midi": 68,
                    "time": 65.10000000000046,
                    "velocity": 0.2283464566929134,
                    "duration": 0.09000000000000341
                },
                {
                    "name": "A4",
                    "midi": 69,
                    "time": 65.17500000000047,
                    "velocity": 0.2283464566929134,
                    "duration": 0.07500000000000284
                },
                {
                    "name": "G#4",
                    "midi": 68,
                    "time": 65.25000000000047,
                    "velocity": 0.23622047244094488,
                    "duration": 0.07500000000000284
                },
                {
                    "name": "A4",
                    "midi": 69,
                    "time": 65.32500000000047,
                    "velocity": 0.23622047244094488,
                    "duration": 0.07500000000000284
                },
                {
                    "name": "A#3",
                    "midi": 58,
                    "time": 65.40000000000047,
                    "velocity": 0.28346456692913385,
                    "duration": 0.30000000000001137
                },
                {
                    "name": "A#4",
                    "midi": 70,
                    "time": 65.40000000000047,
                    "velocity": 0.28346456692913385,
                    "duration": 0.09000000000000341
                },
                {
                    "name": "B4",
                    "midi": 71,
                    "time": 65.47500000000048,
                    "velocity": 0.2440944881889764,
                    "duration": 0.07500000000000284
                },
                {
                    "name": "A#4",
                    "midi": 70,
                    "time": 65.55000000000048,
                    "velocity": 0.25196850393700787,
                    "duration": 0.07500000000000284
                },
                {
                    "name": "C#5",
                    "midi": 73,
                    "time": 65.62500000000048,
                    "velocity": 0.25196850393700787,
                    "duration": 0.07500000000000284
                },
                {
                    "name": "D5",
                    "midi": 74,
                    "time": 65.70000000000049,
                    "velocity": 0.25984251968503935,
                    "duration": 0.07500000000000284
                },
                {
                    "name": "C#5",
                    "midi": 73,
                    "time": 65.77500000000049,
                    "velocity": 0.2755905511811024,
                    "duration": 0.07500000000000284
                },
                {
                    "name": "D5",
                    "midi": 74,
                    "time": 65.85000000000049,
                    "velocity": 0.28346456692913385,
                    "duration": 0.07500000000000284
                },
                {
                    "name": "A#4",
                    "midi": 70,
                    "time": 65.9250000000005,
                    "velocity": 0.28346456692913385,
                    "duration": 0.07500000000000284
                },
                {
                    "name": "D#4",
                    "midi": 63,
                    "time": 66.0000000000005,
                    "velocity": 0.28346456692913385,
                    "duration": 0.30000000000001137
                },
                {
                    "name": "D#5",
                    "midi": 75,
                    "time": 66.0000000000005,
                    "velocity": 0.25984251968503935,
                    "duration": 0.09000000000000341
                },
                {
                    "name": "D5",
                    "midi": 74,
                    "time": 66.0750000000005,
                    "velocity": 0.25984251968503935,
                    "duration": 0.07500000000000284
                },
                {
                    "name": "C#5",
                    "midi": 73,
                    "time": 66.1500000000005,
                    "velocity": 0.25984251968503935,
                    "duration": 0.07500000000000284
                },
                {
                    "name": "C5",
                    "midi": 72,
                    "time": 66.2250000000005,
                    "velocity": 0.25984251968503935,
                    "duration": 0.07500000000000284
                },
                {
                    "name": "B4",
                    "midi": 71,
                    "time": 66.30000000000051,
                    "velocity": 0.25984251968503935,
                    "duration": 0.09000000000000341
                },
                {
                    "name": "A#4",
                    "midi": 70,
                    "time": 66.37500000000051,
                    "velocity": 0.25984251968503935,
                    "duration": 0.07500000000000284
                },
                {
                    "name": "F#4",
                    "midi": 66,
                    "time": 66.45000000000051,
                    "velocity": 0.25984251968503935,
                    "duration": 0.07500000000000284
                },
                {
                    "name": "D#4",
                    "midi": 63,
                    "time": 66.52500000000052,
                    "velocity": 0.25984251968503935,
                    "duration": 0.07500000000000284
                },
                {
                    "name": "B3",
                    "midi": 59,
                    "time": 66.60000000000052,
                    "velocity": 0.33858267716535434,
                    "duration": 0.30000000000001137
                },
                {
                    "name": "A4",
                    "midi": 69,
                    "time": 66.60000000000052,
                    "velocity": 0.33858267716535434,
                    "duration": 0.07500000000000284
                },
                {
                    "name": "G#4",
                    "midi": 68,
                    "time": 66.67500000000052,
                    "velocity": 0.2755905511811024,
                    "duration": 0.07500000000000284
                },
                {
                    "name": "G4",
                    "midi": 67,
                    "time": 66.75000000000053,
                    "velocity": 0.28346456692913385,
                    "duration": 0.07500000000000284
                },
                {
                    "name": "F#4",
                    "midi": 66,
                    "time": 66.82500000000053,
                    "velocity": 0.28346456692913385,
                    "duration": 0.07500000000000284
                },
                {
                    "name": "C4",
                    "midi": 60,
                    "time": 66.90000000000053,
                    "velocity": 0.3543307086614173,
                    "duration": 0.30000000000001137
                },
                {
                    "name": "F4",
                    "midi": 65,
                    "time": 66.90000000000053,
                    "velocity": 0.3543307086614173,
                    "duration": 0.07500000000000284
                },
                {
                    "name": "E4",
                    "midi": 64,
                    "time": 66.97500000000053,
                    "velocity": 0.29133858267716534,
                    "duration": 0.07500000000000284
                },
                {
                    "name": "D#4",
                    "midi": 63,
                    "time": 67.05000000000054,
                    "velocity": 0.2992125984251969,
                    "duration": 0.07500000000000284
                },
                {
                    "name": "D4",
                    "midi": 62,
                    "time": 67.12500000000054,
                    "velocity": 0.2992125984251969,
                    "duration": 0.07500000000000284
                },
                {
                    "name": "C#4",
                    "midi": 61,
                    "time": 67.20000000000054,
                    "velocity": 0.4409448818897638,
                    "duration": 0.07500000000000284
                },
                {
                    "name": "C#3",
                    "midi": 49,
                    "time": 67.20000000000054,
                    "velocity": 0.4409448818897638,
                    "duration": 0.07500000000000284
                },
                {
                    "name": "B4",
                    "midi": 71,
                    "time": 67.50000000000054,
                    "velocity": 0.2204724409448819,
                    "duration": 0.07500000000000284
                },
                {
                    "name": "D5",
                    "midi": 74,
                    "time": 67.57500000000054,
                    "velocity": 0.1732283464566929,
                    "duration": 0.07500000000000284
                },
                {
                    "name": "A#4",
                    "midi": 70,
                    "time": 67.65000000000055,
                    "velocity": 0.2204724409448819,
                    "duration": 0.07500000000000284
                },
                {
                    "name": "C#5",
                    "midi": 73,
                    "time": 67.72500000000055,
                    "velocity": 0.1889763779527559,
                    "duration": 0.07500000000000284
                },
                {
                    "name": "B4",
                    "midi": 71,
                    "time": 67.80000000000055,
                    "velocity": 0.2204724409448819,
                    "duration": 0.07500000000000284
                },
                {
                    "name": "D5",
                    "midi": 74,
                    "time": 67.87500000000055,
                    "velocity": 0.1968503937007874,
                    "duration": 0.07500000000000284
                },
                {
                    "name": "E4",
                    "midi": 64,
                    "time": 67.95000000000056,
                    "velocity": 0.23622047244094488,
                    "duration": 0.07500000000000284
                },
                {
                    "name": "G4",
                    "midi": 67,
                    "time": 68.02500000000056,
                    "velocity": 0.2283464566929134,
                    "duration": 0.07500000000000284
                },
                {
                    "name": "F4",
                    "midi": 65,
                    "time": 68.10000000000056,
                    "velocity": 0.23622047244094488,
                    "duration": 0.07500000000000284
                },
                {
                    "name": "G#4",
                    "midi": 68,
                    "time": 68.17500000000057,
                    "velocity": 0.25196850393700787,
                    "duration": 0.07500000000000284
                },
                {
                    "name": "A#3",
                    "midi": 58,
                    "time": 68.25000000000057,
                    "velocity": 0.25984251968503935,
                    "duration": 0.07500000000000284
                },
                {
                    "name": "C#4",
                    "midi": 61,
                    "time": 68.32500000000057,
                    "velocity": 0.28346456692913385,
                    "duration": 0.07500000000000284
                },
                {
                    "name": "B3",
                    "midi": 59,
                    "time": 68.40000000000057,
                    "velocity": 0.28346456692913385,
                    "duration": 0.07500000000000284
                },
                {
                    "name": "D4",
                    "midi": 62,
                    "time": 68.47500000000058,
                    "velocity": 0.25984251968503935,
                    "duration": 0.07500000000000284
                },
                {
                    "name": "B3",
                    "midi": 59,
                    "time": 68.55000000000058,
                    "velocity": 0.30708661417322836,
                    "duration": 0.07500000000000284
                },
                {
                    "name": "C#3",
                    "midi": 49,
                    "time": 68.62500000000058,
                    "velocity": 0.25984251968503935,
                    "duration": 0.07500000000000284
                },
                {
                    "name": "A3",
                    "midi": 57,
                    "time": 68.70000000000059,
                    "velocity": 0.30708661417322836,
                    "duration": 0.07500000000000284
                },
                {
                    "name": "C#3",
                    "midi": 49,
                    "time": 68.77500000000059,
                    "velocity": 0.25196850393700787,
                    "duration": 0.07500000000000284
                },
                {
                    "name": "G#3",
                    "midi": 56,
                    "time": 68.85000000000059,
                    "velocity": 0.30708661417322836,
                    "duration": 0.07500000000000284
                },
                {
                    "name": "C#3",
                    "midi": 49,
                    "time": 68.9250000000006,
                    "velocity": 0.2440944881889764,
                    "duration": 0.07500000000000284
                },
                {
                    "name": "G3",
                    "midi": 55,
                    "time": 69.0000000000006,
                    "velocity": 0.30708661417322836,
                    "duration": 0.07500000000000284
                },
                {
                    "name": "C#3",
                    "midi": 49,
                    "time": 69.0750000000006,
                    "velocity": 0.25984251968503935,
                    "duration": 0.07500000000000284
                },
                {
                    "name": "F#3",
                    "midi": 54,
                    "time": 69.1500000000006,
                    "velocity": 0.30708661417322836,
                    "duration": 0.07500000000000284
                },
                {
                    "name": "C#3",
                    "midi": 49,
                    "time": 69.2250000000006,
                    "velocity": 0.25196850393700787,
                    "duration": 0.07500000000000284
                },
                {
                    "name": "A3",
                    "midi": 57,
                    "time": 69.30000000000061,
                    "velocity": 0.30708661417322836,
                    "duration": 0.07500000000000284
                },
                {
                    "name": "C#3",
                    "midi": 49,
                    "time": 69.37500000000061,
                    "velocity": 0.25196850393700787,
                    "duration": 0.07500000000000284
                },
                {
                    "name": "D#4",
                    "midi": 63,
                    "time": 69.45000000000061,
                    "velocity": 0.30708661417322836,
                    "duration": 0.07500000000000284
                },
                {
                    "name": "C#3",
                    "midi": 49,
                    "time": 69.52500000000062,
                    "velocity": 0.25984251968503935,
                    "duration": 0.07500000000000284
                },
                {
                    "name": "G#4",
                    "midi": 68,
                    "time": 69.60000000000062,
                    "velocity": 0.33858267716535434,
                    "duration": 0.07500000000000284
                },
                {
                    "name": "C#4",
                    "midi": 61,
                    "time": 69.60000000000062,
                    "velocity": 0.33858267716535434,
                    "duration": 0.07500000000000284
                },
                {
                    "name": "C#2",
                    "midi": 37,
                    "time": 69.75000000000063,
                    "velocity": 0.33858267716535434,
                    "duration": 0.07500000000000284
                },
                {
                    "name": "B3",
                    "midi": 59,
                    "time": 69.90000000000063,
                    "velocity": 0.2204724409448819,
                    "duration": 0.07500000000000284
                },
                {
                    "name": "D4",
                    "midi": 62,
                    "time": 69.97500000000063,
                    "velocity": 0.1732283464566929,
                    "duration": 0.07500000000000284
                },
                {
                    "name": "A#3",
                    "midi": 58,
                    "time": 70.05000000000064,
                    "velocity": 0.2204724409448819,
                    "duration": 0.07500000000000284
                },
                {
                    "name": "C#4",
                    "midi": 61,
                    "time": 70.12500000000064,
                    "velocity": 0.1889763779527559,
                    "duration": 0.07500000000000284
                },
                {
                    "name": "B3",
                    "midi": 59,
                    "time": 70.20000000000064,
                    "velocity": 0.2204724409448819,
                    "duration": 0.07500000000000284
                },
                {
                    "name": "D4",
                    "midi": 62,
                    "time": 70.27500000000065,
                    "velocity": 0.1968503937007874,
                    "duration": 0.07500000000000284
                },
                {
                    "name": "E3",
                    "midi": 52,
                    "time": 70.35000000000065,
                    "velocity": 0.23622047244094488,
                    "duration": 0.07500000000000284
                },
                {
                    "name": "G3",
                    "midi": 55,
                    "time": 70.42500000000065,
                    "velocity": 0.2283464566929134,
                    "duration": 0.07500000000000284
                },
                {
                    "name": "F3",
                    "midi": 53,
                    "time": 70.50000000000065,
                    "velocity": 0.23622047244094488,
                    "duration": 0.07500000000000284
                },
                {
                    "name": "G#3",
                    "midi": 56,
                    "time": 70.57500000000066,
                    "velocity": 0.25196850393700787,
                    "duration": 0.07500000000000284
                },
                {
                    "name": "A#2",
                    "midi": 46,
                    "time": 70.65000000000066,
                    "velocity": 0.25984251968503935,
                    "duration": 0.07500000000000284
                },
                {
                    "name": "C#3",
                    "midi": 49,
                    "time": 70.72500000000066,
                    "velocity": 0.28346456692913385,
                    "duration": 0.07500000000000284
                },
                {
                    "name": "B2",
                    "midi": 47,
                    "time": 70.80000000000067,
                    "velocity": 0.28346456692913385,
                    "duration": 0.07500000000000284
                },
                {
                    "name": "D3",
                    "midi": 50,
                    "time": 70.87500000000067,
                    "velocity": 0.25984251968503935,
                    "duration": 0.07500000000000284
                },
                {
                    "name": "B2",
                    "midi": 47,
                    "time": 70.95000000000067,
                    "velocity": 0.30708661417322836,
                    "duration": 0.07500000000000284
                },
                {
                    "name": "C#2",
                    "midi": 37,
                    "time": 71.02500000000067,
                    "velocity": 0.25984251968503935,
                    "duration": 0.07500000000000284
                },
                {
                    "name": "A2",
                    "midi": 45,
                    "time": 71.10000000000068,
                    "velocity": 0.30708661417322836,
                    "duration": 0.07500000000000284
                },
                {
                    "name": "C#2",
                    "midi": 37,
                    "time": 71.17500000000068,
                    "velocity": 0.25196850393700787,
                    "duration": 0.07500000000000284
                },
                {
                    "name": "G#2",
                    "midi": 44,
                    "time": 71.25000000000068,
                    "velocity": 0.30708661417322836,
                    "duration": 0.07500000000000284
                },
                {
                    "name": "C#2",
                    "midi": 37,
                    "time": 71.32500000000068,
                    "velocity": 0.2440944881889764,
                    "duration": 0.07500000000000284
                },
                {
                    "name": "G2",
                    "midi": 43,
                    "time": 71.40000000000069,
                    "velocity": 0.30708661417322836,
                    "duration": 0.07500000000000284
                },
                {
                    "name": "C#2",
                    "midi": 37,
                    "time": 71.47500000000069,
                    "velocity": 0.25984251968503935,
                    "duration": 0.07500000000000284
                },
                {
                    "name": "F#2",
                    "midi": 42,
                    "time": 71.5500000000007,
                    "velocity": 0.30708661417322836,
                    "duration": 0.07500000000000284
                },
                {
                    "name": "C#2",
                    "midi": 37,
                    "time": 71.6250000000007,
                    "velocity": 0.25196850393700787,
                    "duration": 0.07500000000000284
                },
                {
                    "name": "A2",
                    "midi": 45,
                    "time": 71.7000000000007,
                    "velocity": 0.30708661417322836,
                    "duration": 0.07500000000000284
                },
                {
                    "name": "C#2",
                    "midi": 37,
                    "time": 71.7750000000007,
                    "velocity": 0.25196850393700787,
                    "duration": 0.07500000000000284
                },
                {
                    "name": "D#3",
                    "midi": 51,
                    "time": 71.8500000000007,
                    "velocity": 0.30708661417322836,
                    "duration": 0.07500000000000284
                },
                {
                    "name": "C#2",
                    "midi": 37,
                    "time": 71.92500000000071,
                    "velocity": 0.25984251968503935,
                    "duration": 0.07500000000000284
                },
                {
                    "name": "C#3",
                    "midi": 49,
                    "time": 72.00000000000071,
                    "velocity": 0.30708661417322836,
                    "duration": 0.07500000000000284
                },
                {
                    "name": "C#2",
                    "midi": 37,
                    "time": 72.07500000000071,
                    "velocity": 0.25196850393700787,
                    "duration": 0.07500000000000284
                },
                {
                    "name": "B2",
                    "midi": 47,
                    "time": 72.15000000000072,
                    "velocity": 0.30708661417322836,
                    "duration": 0.07500000000000284
                },
                {
                    "name": "C#2",
                    "midi": 37,
                    "time": 72.22500000000072,
                    "velocity": 0.25196850393700787,
                    "duration": 0.07500000000000284
                },
                {
                    "name": "A2",
                    "midi": 45,
                    "time": 72.30000000000072,
                    "velocity": 0.3228346456692913,
                    "duration": 0.07500000000000284
                },
                {
                    "name": "C#2",
                    "midi": 37,
                    "time": 72.37500000000072,
                    "velocity": 0.25984251968503935,
                    "duration": 0.07500000000000284
                },
                {
                    "name": "G#2",
                    "midi": 44,
                    "time": 72.45000000000073,
                    "velocity": 0.3228346456692913,
                    "duration": 0.07500000000000284
                },
                {
                    "name": "C#2",
                    "midi": 37,
                    "time": 72.52500000000073,
                    "velocity": 0.25984251968503935,
                    "duration": 0.07500000000000284
                },
                {
                    "name": "G2",
                    "midi": 43,
                    "time": 72.60000000000073,
                    "velocity": 0.33070866141732286,
                    "duration": 0.07500000000000284
                },
                {
                    "name": "C#2",
                    "midi": 37,
                    "time": 72.67500000000074,
                    "velocity": 0.2755905511811024,
                    "duration": 0.07500000000000284
                },
                {
                    "name": "F#2",
                    "midi": 42,
                    "time": 72.75000000000074,
                    "velocity": 0.33858267716535434,
                    "duration": 0.07500000000000284
                },
                {
                    "name": "C#2",
                    "midi": 37,
                    "time": 72.82500000000074,
                    "velocity": 0.28346456692913385,
                    "duration": 0.07500000000000284
                },
                {
                    "name": "A2",
                    "midi": 45,
                    "time": 72.90000000000074,
                    "velocity": 0.3464566929133858,
                    "duration": 0.07500000000000284
                },
                {
                    "name": "C#2",
                    "midi": 37,
                    "time": 72.97500000000075,
                    "velocity": 0.28346456692913385,
                    "duration": 0.07500000000000284
                },
                {
                    "name": "D#3",
                    "midi": 51,
                    "time": 73.05000000000075,
                    "velocity": 0.3543307086614173,
                    "duration": 0.07500000000000284
                },
                {
                    "name": "C#2",
                    "midi": 37,
                    "time": 73.12500000000075,
                    "velocity": 0.28346456692913385,
                    "duration": 0.07500000000000284
                },
                {
                    "name": "C#3",
                    "midi": 49,
                    "time": 73.20000000000076,
                    "velocity": 0.3937007874015748,
                    "duration": 0.15000000000000568
                },
                {
                    "name": "B1",
                    "midi": 35,
                    "time": 73.35000000000076,
                    "velocity": 0.4566929133858268,
                    "duration": 0.07500000000000284
                },
                {
                    "name": "B2",
                    "midi": 47,
                    "time": 73.35000000000076,
                    "velocity": 0.5433070866141733,
                    "duration": 0.07500000000000284
                },
                {
                    "name": "C3",
                    "midi": 48,
                    "time": 73.50000000000077,
                    "velocity": 0.47244094488188976,
                    "duration": 0.07500000000000284
                },
                {
                    "name": "C2",
                    "midi": 36,
                    "time": 73.50000000000077,
                    "velocity": 0.4015748031496063,
                    "duration": 0.07500000000000284
                },
                {
                    "name": "C#2",
                    "midi": 37,
                    "time": 73.65000000000077,
                    "velocity": 0.4015748031496063,
                    "duration": 0.07500000000000284
                },
                {
                    "name": "C#3",
                    "midi": 49,
                    "time": 73.65000000000077,
                    "velocity": 0.47244094488188976,
                    "duration": 0.07500000000000284
                },
                {
                    "name": "D2",
                    "midi": 38,
                    "time": 73.80000000000078,
                    "velocity": 0.4566929133858268,
                    "duration": 0.07500000000000284
                },
                {
                    "name": "D3",
                    "midi": 50,
                    "time": 73.80000000000078,
                    "velocity": 0.5433070866141733,
                    "duration": 0.07500000000000284
                },
                {
                    "name": "B2",
                    "midi": 47,
                    "time": 73.95000000000078,
                    "velocity": 0.5118110236220472,
                    "duration": 0.07500000000000284
                },
                {
                    "name": "C3",
                    "midi": 48,
                    "time": 74.10000000000079,
                    "velocity": 0.5433070866141733,
                    "duration": 0.07500000000000284
                },
                {
                    "name": "C#3",
                    "midi": 49,
                    "time": 74.1750000000008,
                    "velocity": 0.5039370078740157,
                    "duration": 0.07500000000000284
                },
                {
                    "name": "D3",
                    "midi": 50,
                    "time": 74.2500000000008,
                    "velocity": 0.5039370078740157,
                    "duration": 0.15000000000000568
                },
                {
                    "name": "B3",
                    "midi": 59,
                    "time": 74.55000000000081,
                    "velocity": 0.25984251968503935,
                    "duration": 0.07500000000000284
                },
                {
                    "name": "C4",
                    "midi": 60,
                    "time": 74.70000000000081,
                    "velocity": 0.2204724409448819,
                    "duration": 0.07500000000000284
                },
                {
                    "name": "C#4",
                    "midi": 61,
                    "time": 74.85000000000082,
                    "velocity": 0.2204724409448819,
                    "duration": 0.07500000000000284
                },
                {
                    "name": "D4",
                    "midi": 62,
                    "time": 75.00000000000082,
                    "velocity": 0.25984251968503935,
                    "duration": 0.07500000000000284
                },
                {
                    "name": "B3",
                    "midi": 59,
                    "time": 75.15000000000083,
                    "velocity": 0.23622047244094488,
                    "duration": 0.07500000000000284
                },
                {
                    "name": "C4",
                    "midi": 60,
                    "time": 75.30000000000084,
                    "velocity": 0.25984251968503935,
                    "duration": 0.07500000000000284
                },
                {
                    "name": "C#4",
                    "midi": 61,
                    "time": 75.37500000000084,
                    "velocity": 0.23622047244094488,
                    "duration": 0.07500000000000284
                },
                {
                    "name": "D4",
                    "midi": 62,
                    "time": 75.45000000000084,
                    "velocity": 0.23622047244094488,
                    "duration": 0.15000000000000568
                },
                {
                    "name": "B1",
                    "midi": 35,
                    "time": 75.75000000000085,
                    "velocity": 0.4566929133858268,
                    "duration": 0.07500000000000284
                },
                {
                    "name": "B2",
                    "midi": 47,
                    "time": 75.75000000000085,
                    "velocity": 0.5433070866141733,
                    "duration": 0.07500000000000284
                },
                {
                    "name": "C2",
                    "midi": 36,
                    "time": 75.90000000000086,
                    "velocity": 0.4015748031496063,
                    "duration": 0.07500000000000284
                },
                {
                    "name": "C3",
                    "midi": 48,
                    "time": 75.90000000000086,
                    "velocity": 0.47244094488188976,
                    "duration": 0.07500000000000284
                },
                {
                    "name": "C#3",
                    "midi": 49,
                    "time": 76.05000000000086,
                    "velocity": 0.47244094488188976,
                    "duration": 0.07500000000000284
                },
                {
                    "name": "C#2",
                    "midi": 37,
                    "time": 76.05000000000086,
                    "velocity": 0.4015748031496063,
                    "duration": 0.07500000000000284
                },
                {
                    "name": "D3",
                    "midi": 50,
                    "time": 76.20000000000087,
                    "velocity": 0.5433070866141733,
                    "duration": 0.07500000000000284
                },
                {
                    "name": "D2",
                    "midi": 38,
                    "time": 76.20000000000087,
                    "velocity": 0.4566929133858268,
                    "duration": 0.07500000000000284
                },
                {
                    "name": "B2",
                    "midi": 47,
                    "time": 76.35000000000088,
                    "velocity": 0.5118110236220472,
                    "duration": 0.07500000000000284
                },
                {
                    "name": "C3",
                    "midi": 48,
                    "time": 76.50000000000088,
                    "velocity": 0.5433070866141733,
                    "duration": 0.07500000000000284
                },
                {
                    "name": "C#3",
                    "midi": 49,
                    "time": 76.57500000000088,
                    "velocity": 0.5039370078740157,
                    "duration": 0.07500000000000284
                },
                {
                    "name": "D3",
                    "midi": 50,
                    "time": 76.65000000000089,
                    "velocity": 0.5039370078740157,
                    "duration": 0.15000000000000568
                },
                {
                    "name": "B3",
                    "midi": 59,
                    "time": 76.9500000000009,
                    "velocity": 0.25984251968503935,
                    "duration": 0.07500000000000284
                },
                {
                    "name": "C4",
                    "midi": 60,
                    "time": 77.1000000000009,
                    "velocity": 0.2204724409448819,
                    "duration": 0.07500000000000284
                },
                {
                    "name": "C#4",
                    "midi": 61,
                    "time": 77.25000000000091,
                    "velocity": 0.2204724409448819,
                    "duration": 0.07500000000000284
                },
                {
                    "name": "D4",
                    "midi": 62,
                    "time": 77.40000000000092,
                    "velocity": 0.25984251968503935,
                    "duration": 0.07500000000000284
                },
                {
                    "name": "B3",
                    "midi": 59,
                    "time": 77.55000000000092,
                    "velocity": 0.23622047244094488,
                    "duration": 0.07500000000000284
                },
                {
                    "name": "C4",
                    "midi": 60,
                    "time": 77.70000000000093,
                    "velocity": 0.25984251968503935,
                    "duration": 0.07500000000000284
                },
                {
                    "name": "C#4",
                    "midi": 61,
                    "time": 77.77500000000093,
                    "velocity": 0.23622047244094488,
                    "duration": 0.07500000000000284
                },
                {
                    "name": "D4",
                    "midi": 62,
                    "time": 77.85000000000093,
                    "velocity": 0.23622047244094488,
                    "duration": 0.15000000000000568
                },
                {
                    "name": "D4",
                    "midi": 62,
                    "time": 78.15000000000094,
                    "velocity": 0.25984251968503935,
                    "duration": 0.07500000000000284
                },
                {
                    "name": "D#4",
                    "midi": 63,
                    "time": 78.30000000000095,
                    "velocity": 0.2204724409448819,
                    "duration": 0.07500000000000284
                },
                {
                    "name": "E4",
                    "midi": 64,
                    "time": 78.45000000000095,
                    "velocity": 0.2204724409448819,
                    "duration": 0.07500000000000284
                },
                {
                    "name": "F4",
                    "midi": 65,
                    "time": 78.60000000000096,
                    "velocity": 0.25984251968503935,
                    "duration": 0.07500000000000284
                },
                {
                    "name": "F4",
                    "midi": 65,
                    "time": 78.75000000000097,
                    "velocity": 0.23622047244094488,
                    "duration": 0.07500000000000284
                },
                {
                    "name": "F#4",
                    "midi": 66,
                    "time": 78.90000000000097,
                    "velocity": 0.25984251968503935,
                    "duration": 0.07500000000000284
                },
                {
                    "name": "G4",
                    "midi": 67,
                    "time": 78.97500000000097,
                    "velocity": 0.23622047244094488,
                    "duration": 0.07500000000000284
                },
                {
                    "name": "G#4",
                    "midi": 68,
                    "time": 79.05000000000098,
                    "velocity": 0.23622047244094488,
                    "duration": 0.15000000000000568
                },
                {
                    "name": "B5",
                    "midi": 83,
                    "time": 79.20000000000098,
                    "velocity": 0.2440944881889764,
                    "duration": 0.07500000000000284
                },
                {
                    "name": "G#4",
                    "midi": 68,
                    "time": 79.20000000000098,
                    "velocity": 0.2440944881889764,
                    "duration": 0.07500000000000284
                },
                {
                    "name": "A5",
                    "midi": 81,
                    "time": 79.27500000000099,
                    "velocity": 0.1968503937007874,
                    "duration": 0.07500000000000284
                },
                {
                    "name": "A4",
                    "midi": 69,
                    "time": 79.27500000000099,
                    "velocity": 0.1968503937007874,
                    "duration": 0.07500000000000284
                },
                {
                    "name": "A#5",
                    "midi": 82,
                    "time": 79.35000000000099,
                    "velocity": 0.1968503937007874,
                    "duration": 0.07500000000000284
                },
                {
                    "name": "A#4",
                    "midi": 70,
                    "time": 79.35000000000099,
                    "velocity": 0.1968503937007874,
                    "duration": 0.07500000000000284
                },
                {
                    "name": "B4",
                    "midi": 71,
                    "time": 79.42500000000099,
                    "velocity": 0.1968503937007874,
                    "duration": 0.07500000000000284
                },
                {
                    "name": "G#5",
                    "midi": 80,
                    "time": 79.42500000000099,
                    "velocity": 0.1968503937007874,
                    "duration": 0.07500000000000284
                },
                {
                    "name": "B4",
                    "midi": 71,
                    "time": 79.500000000001,
                    "velocity": 0.2440944881889764,
                    "duration": 0.07500000000000284
                },
                {
                    "name": "D#6",
                    "midi": 87,
                    "time": 79.500000000001,
                    "velocity": 0.2440944881889764,
                    "duration": 0.07500000000000284
                },
                {
                    "name": "C5",
                    "midi": 72,
                    "time": 79.575000000001,
                    "velocity": 0.1968503937007874,
                    "duration": 0.07500000000000284
                },
                {
                    "name": "C6",
                    "midi": 84,
                    "time": 79.575000000001,
                    "velocity": 0.1968503937007874,
                    "duration": 0.07500000000000284
                },
                {
                    "name": "C#5",
                    "midi": 73,
                    "time": 79.650000000001,
                    "velocity": 0.1968503937007874,
                    "duration": 0.07500000000000284
                },
                {
                    "name": "C#6",
                    "midi": 85,
                    "time": 79.650000000001,
                    "velocity": 0.1968503937007874,
                    "duration": 0.07500000000000284
                },
                {
                    "name": "D5",
                    "midi": 74,
                    "time": 79.725000000001,
                    "velocity": 0.1968503937007874,
                    "duration": 0.07500000000000284
                },
                {
                    "name": "B5",
                    "midi": 83,
                    "time": 79.725000000001,
                    "velocity": 0.1968503937007874,
                    "duration": 0.07500000000000284
                },
                {
                    "name": "D5",
                    "midi": 74,
                    "time": 79.800000000001,
                    "velocity": 0.2440944881889764,
                    "duration": 0.07500000000000284
                },
                {
                    "name": "E6",
                    "midi": 88,
                    "time": 79.800000000001,
                    "velocity": 0.2440944881889764,
                    "duration": 0.07500000000000284
                },
                {
                    "name": "D#6",
                    "midi": 87,
                    "time": 79.87500000000101,
                    "velocity": 0.2125984251968504,
                    "duration": 0.07500000000000284
                },
                {
                    "name": "D#5",
                    "midi": 75,
                    "time": 79.87500000000101,
                    "velocity": 0.2125984251968504,
                    "duration": 0.07500000000000284
                },
                {
                    "name": "E5",
                    "midi": 76,
                    "time": 79.95000000000101,
                    "velocity": 0.2125984251968504,
                    "duration": 0.07500000000000284
                },
                {
                    "name": "E6",
                    "midi": 88,
                    "time": 79.95000000000101,
                    "velocity": 0.2125984251968504,
                    "duration": 0.07500000000000284
                },
                {
                    "name": "D6",
                    "midi": 86,
                    "time": 80.02500000000101,
                    "velocity": 0.2125984251968504,
                    "duration": 0.07500000000000284
                },
                {
                    "name": "F5",
                    "midi": 77,
                    "time": 80.02500000000101,
                    "velocity": 0.2125984251968504,
                    "duration": 0.07500000000000284
                },
                {
                    "name": "G#6",
                    "midi": 92,
                    "time": 80.10000000000102,
                    "velocity": 0.2440944881889764,
                    "duration": 0.07500000000000284
                },
                {
                    "name": "F5",
                    "midi": 77,
                    "time": 80.10000000000102,
                    "velocity": 0.2440944881889764,
                    "duration": 0.07500000000000284
                },
                {
                    "name": "F#6",
                    "midi": 90,
                    "time": 80.17500000000102,
                    "velocity": 0.2125984251968504,
                    "duration": 0.07500000000000284
                },
                {
                    "name": "F#5",
                    "midi": 78,
                    "time": 80.17500000000102,
                    "velocity": 0.2125984251968504,
                    "duration": 0.07500000000000284
                },
                {
                    "name": "G6",
                    "midi": 91,
                    "time": 80.25000000000102,
                    "velocity": 0.2125984251968504,
                    "duration": 0.07500000000000284
                },
                {
                    "name": "G5",
                    "midi": 79,
                    "time": 80.25000000000102,
                    "velocity": 0.2125984251968504,
                    "duration": 0.07500000000000284
                },
                {
                    "name": "F6",
                    "midi": 89,
                    "time": 80.32500000000103,
                    "velocity": 0.2125984251968504,
                    "duration": 0.07500000000000284
                },
                {
                    "name": "G#5",
                    "midi": 80,
                    "time": 80.32500000000103,
                    "velocity": 0.2125984251968504,
                    "duration": 0.07500000000000284
                },
                {
                    "name": "B6",
                    "midi": 95,
                    "time": 80.40000000000103,
                    "velocity": 0.25196850393700787,
                    "duration": 0.07500000000000284
                },
                {
                    "name": "G#5",
                    "midi": 80,
                    "time": 80.40000000000103,
                    "velocity": 0.25196850393700787,
                    "duration": 0.07500000000000284
                },
                {
                    "name": "A6",
                    "midi": 93,
                    "time": 80.47500000000103,
                    "velocity": 0.2283464566929134,
                    "duration": 0.07500000000000284
                },
                {
                    "name": "A5",
                    "midi": 81,
                    "time": 80.47500000000103,
                    "velocity": 0.2283464566929134,
                    "duration": 0.07500000000000284
                },
                {
                    "name": "A#5",
                    "midi": 82,
                    "time": 80.55000000000103,
                    "velocity": 0.2283464566929134,
                    "duration": 0.07500000000000284
                },
                {
                    "name": "A#6",
                    "midi": 94,
                    "time": 80.55000000000103,
                    "velocity": 0.2283464566929134,
                    "duration": 0.07500000000000284
                },
                {
                    "name": "G#6",
                    "midi": 92,
                    "time": 80.62500000000104,
                    "velocity": 0.2283464566929134,
                    "duration": 0.07500000000000284
                },
                {
                    "name": "B5",
                    "midi": 83,
                    "time": 80.62500000000104,
                    "velocity": 0.2283464566929134,
                    "duration": 0.07500000000000284
                },
                {
                    "name": "G#5",
                    "midi": 80,
                    "time": 80.70000000000104,
                    "velocity": 0.25196850393700787,
                    "duration": 0.07500000000000284
                },
                {
                    "name": "B6",
                    "midi": 95,
                    "time": 80.70000000000104,
                    "velocity": 0.25196850393700787,
                    "duration": 0.07500000000000284
                },
                {
                    "name": "A5",
                    "midi": 81,
                    "time": 80.77500000000104,
                    "velocity": 0.2283464566929134,
                    "duration": 0.07500000000000284
                },
                {
                    "name": "A6",
                    "midi": 93,
                    "time": 80.77500000000104,
                    "velocity": 0.2283464566929134,
                    "duration": 0.07500000000000284
                },
                {
                    "name": "A#5",
                    "midi": 82,
                    "time": 80.85000000000105,
                    "velocity": 0.2283464566929134,
                    "duration": 0.07500000000000284
                },
                {
                    "name": "A#6",
                    "midi": 94,
                    "time": 80.85000000000105,
                    "velocity": 0.2283464566929134,
                    "duration": 0.07500000000000284
                },
                {
                    "name": "G#6",
                    "midi": 92,
                    "time": 80.92500000000105,
                    "velocity": 0.2204724409448819,
                    "duration": 0.07500000000000284
                },
                {
                    "name": "B5",
                    "midi": 83,
                    "time": 80.92500000000105,
                    "velocity": 0.2204724409448819,
                    "duration": 0.07500000000000284
                },
                {
                    "name": "B6",
                    "midi": 95,
                    "time": 81.00000000000105,
                    "velocity": 0.25196850393700787,
                    "duration": 0.07500000000000284
                },
                {
                    "name": "G#5",
                    "midi": 80,
                    "time": 81.00000000000105,
                    "velocity": 0.25196850393700787,
                    "duration": 0.07500000000000284
                },
                {
                    "name": "A5",
                    "midi": 81,
                    "time": 81.07500000000105,
                    "velocity": 0.2283464566929134,
                    "duration": 0.07500000000000284
                },
                {
                    "name": "A6",
                    "midi": 93,
                    "time": 81.07500000000105,
                    "velocity": 0.2283464566929134,
                    "duration": 0.07500000000000284
                },
                {
                    "name": "A#5",
                    "midi": 82,
                    "time": 81.15000000000106,
                    "velocity": 0.2283464566929134,
                    "duration": 0.07500000000000284
                },
                {
                    "name": "A#6",
                    "midi": 94,
                    "time": 81.15000000000106,
                    "velocity": 0.2283464566929134,
                    "duration": 0.07500000000000284
                },
                {
                    "name": "G#6",
                    "midi": 92,
                    "time": 81.22500000000106,
                    "velocity": 0.2283464566929134,
                    "duration": 0.07500000000000284
                },
                {
                    "name": "B5",
                    "midi": 83,
                    "time": 81.22500000000106,
                    "velocity": 0.2283464566929134,
                    "duration": 0.07500000000000284
                },
                {
                    "name": "G#5",
                    "midi": 80,
                    "time": 81.30000000000106,
                    "velocity": 0.25196850393700787,
                    "duration": 0.07500000000000284
                },
                {
                    "name": "B6",
                    "midi": 95,
                    "time": 81.30000000000106,
                    "velocity": 0.25196850393700787,
                    "duration": 0.07500000000000284
                },
                {
                    "name": "A6",
                    "midi": 93,
                    "time": 81.37500000000107,
                    "velocity": 0.2204724409448819,
                    "duration": 0.07500000000000284
                },
                {
                    "name": "A5",
                    "midi": 81,
                    "time": 81.37500000000107,
                    "velocity": 0.2204724409448819,
                    "duration": 0.07500000000000284
                },
                {
                    "name": "A#5",
                    "midi": 82,
                    "time": 81.45000000000107,
                    "velocity": 0.2204724409448819,
                    "duration": 0.07500000000000284
                },
                {
                    "name": "A#6",
                    "midi": 94,
                    "time": 81.45000000000107,
                    "velocity": 0.2204724409448819,
                    "duration": 0.07500000000000284
                },
                {
                    "name": "G#6",
                    "midi": 92,
                    "time": 81.52500000000107,
                    "velocity": 0.2204724409448819,
                    "duration": 0.07500000000000284
                },
                {
                    "name": "B5",
                    "midi": 83,
                    "time": 81.52500000000107,
                    "velocity": 0.2204724409448819,
                    "duration": 0.07500000000000284
                },
                {
                    "name": "F7",
                    "midi": 101,
                    "time": 81.60000000000107,
                    "velocity": 0.3858267716535433,
                    "duration": 0.07500000000000284
                },
                {
                    "name": "D7",
                    "midi": 98,
                    "time": 81.60000000000107,
                    "velocity": 0.29133858267716534,
                    "duration": 0.07500000000000284
                },
                {
                    "name": "B6",
                    "midi": 95,
                    "time": 81.60000000000107,
                    "velocity": 0.29133858267716534,
                    "duration": 0.07500000000000284
                },
                {
                    "name": "C#7",
                    "midi": 97,
                    "time": 81.67500000000108,
                    "velocity": 0.23622047244094488,
                    "duration": 0.07500000000000284
                },
                {
                    "name": "A#6",
                    "midi": 94,
                    "time": 81.67500000000108,
                    "velocity": 0.23622047244094488,
                    "duration": 0.07500000000000284
                },
                {
                    "name": "F7",
                    "midi": 101,
                    "time": 81.75000000000108,
                    "velocity": 0.29133858267716534,
                    "duration": 0.07500000000000284
                },
                {
                    "name": "D7",
                    "midi": 98,
                    "time": 81.75000000000108,
                    "velocity": 0.23622047244094488,
                    "duration": 0.07500000000000284
                },
                {
                    "name": "B6",
                    "midi": 95,
                    "time": 81.75000000000108,
                    "velocity": 0.23622047244094488,
                    "duration": 0.07500000000000284
                },
                {
                    "name": "C7",
                    "midi": 96,
                    "time": 81.82500000000108,
                    "velocity": 0.23622047244094488,
                    "duration": 0.07500000000000284
                },
                {
                    "name": "A6",
                    "midi": 93,
                    "time": 81.82500000000108,
                    "velocity": 0.23622047244094488,
                    "duration": 0.07500000000000284
                },
                {
                    "name": "D7",
                    "midi": 98,
                    "time": 81.90000000000109,
                    "velocity": 0.36220472440944884,
                    "duration": 0.07500000000000284
                },
                {
                    "name": "G#6",
                    "midi": 92,
                    "time": 81.90000000000109,
                    "velocity": 0.29133858267716534,
                    "duration": 0.07500000000000284
                },
                {
                    "name": "B6",
                    "midi": 95,
                    "time": 81.90000000000109,
                    "velocity": 0.29133858267716534,
                    "duration": 0.07500000000000284
                },
                {
                    "name": "G6",
                    "midi": 91,
                    "time": 81.97500000000109,
                    "velocity": 0.23622047244094488,
                    "duration": 0.07500000000000284
                },
                {
                    "name": "A#6",
                    "midi": 94,
                    "time": 81.97500000000109,
                    "velocity": 0.23622047244094488,
                    "duration": 0.07500000000000284
                },
                {
                    "name": "D7",
                    "midi": 98,
                    "time": 82.05000000000109,
                    "velocity": 0.29133858267716534,
                    "duration": 0.07500000000000284
                },
                {
                    "name": "B6",
                    "midi": 95,
                    "time": 82.05000000000109,
                    "velocity": 0.23622047244094488,
                    "duration": 0.07500000000000284
                },
                {
                    "name": "G#6",
                    "midi": 92,
                    "time": 82.05000000000109,
                    "velocity": 0.23622047244094488,
                    "duration": 0.07500000000000284
                },
                {
                    "name": "F#6",
                    "midi": 90,
                    "time": 82.1250000000011,
                    "velocity": 0.23622047244094488,
                    "duration": 0.07500000000000284
                },
                {
                    "name": "A6",
                    "midi": 93,
                    "time": 82.1250000000011,
                    "velocity": 0.23622047244094488,
                    "duration": 0.07500000000000284
                },
                {
                    "name": "B6",
                    "midi": 95,
                    "time": 82.2000000000011,
                    "velocity": 0.3779527559055118,
                    "duration": 0.07500000000000284
                },
                {
                    "name": "F6",
                    "midi": 89,
                    "time": 82.2000000000011,
                    "velocity": 0.29133858267716534,
                    "duration": 0.07500000000000284
                },
                {
                    "name": "G#6",
                    "midi": 92,
                    "time": 82.2000000000011,
                    "velocity": 0.29133858267716534,
                    "duration": 0.07500000000000284
                },
                {
                    "name": "G6",
                    "midi": 91,
                    "time": 82.2750000000011,
                    "velocity": 0.2440944881889764,
                    "duration": 0.07500000000000284
                },
                {
                    "name": "E6",
                    "midi": 88,
                    "time": 82.2750000000011,
                    "velocity": 0.2440944881889764,
                    "duration": 0.07500000000000284
                },
                {
                    "name": "B6",
                    "midi": 95,
                    "time": 82.3500000000011,
                    "velocity": 0.29133858267716534,
                    "duration": 0.07500000000000284
                },
                {
                    "name": "F6",
                    "midi": 89,
                    "time": 82.3500000000011,
                    "velocity": 0.2440944881889764,
                    "duration": 0.07500000000000284
                },
                {
                    "name": "G#6",
                    "midi": 92,
                    "time": 82.3500000000011,
                    "velocity": 0.2440944881889764,
                    "duration": 0.07500000000000284
                },
                {
                    "name": "D#6",
                    "midi": 87,
                    "time": 82.4250000000011,
                    "velocity": 0.2440944881889764,
                    "duration": 0.07500000000000284
                },
                {
                    "name": "F#6",
                    "midi": 90,
                    "time": 82.4250000000011,
                    "velocity": 0.2440944881889764,
                    "duration": 0.07500000000000284
                },
                {
                    "name": "G#6",
                    "midi": 92,
                    "time": 82.50000000000111,
                    "velocity": 0.3543307086614173,
                    "duration": 0.07500000000000284
                },
                {
                    "name": "D6",
                    "midi": 86,
                    "time": 82.50000000000111,
                    "velocity": 0.29133858267716534,
                    "duration": 0.07500000000000284
                },
                {
                    "name": "F6",
                    "midi": 89,
                    "time": 82.50000000000111,
                    "velocity": 0.29133858267716534,
                    "duration": 0.07500000000000284
                },
                {
                    "name": "C#6",
                    "midi": 85,
                    "time": 82.57500000000111,
                    "velocity": 0.23622047244094488,
                    "duration": 0.07500000000000284
                },
                {
                    "name": "E6",
                    "midi": 88,
                    "time": 82.57500000000111,
                    "velocity": 0.23622047244094488,
                    "duration": 0.07500000000000284
                },
                {
                    "name": "G#6",
                    "midi": 92,
                    "time": 82.65000000000111,
                    "velocity": 0.29133858267716534,
                    "duration": 0.07500000000000284
                },
                {
                    "name": "F6",
                    "midi": 89,
                    "time": 82.65000000000111,
                    "velocity": 0.23622047244094488,
                    "duration": 0.07500000000000284
                },
                {
                    "name": "D6",
                    "midi": 86,
                    "time": 82.65000000000111,
                    "velocity": 0.23622047244094488,
                    "duration": 0.07500000000000284
                },
                {
                    "name": "C6",
                    "midi": 84,
                    "time": 82.72500000000112,
                    "velocity": 0.23622047244094488,
                    "duration": 0.07500000000000284
                },
                {
                    "name": "D#6",
                    "midi": 87,
                    "time": 82.72500000000112,
                    "velocity": 0.23622047244094488,
                    "duration": 0.07500000000000284
                },
                {
                    "name": "F6",
                    "midi": 89,
                    "time": 82.80000000000112,
                    "velocity": 0.3464566929133858,
                    "duration": 0.07500000000000284
                },
                {
                    "name": "D6",
                    "midi": 86,
                    "time": 82.80000000000112,
                    "velocity": 0.25984251968503935,
                    "duration": 0.07500000000000284
                },
                {
                    "name": "B5",
                    "midi": 83,
                    "time": 82.80000000000112,
                    "velocity": 0.25984251968503935,
                    "duration": 0.07500000000000284
                },
                {
                    "name": "A#5",
                    "midi": 82,
                    "time": 82.87500000000112,
                    "velocity": 0.2125984251968504,
                    "duration": 0.07500000000000284
                },
                {
                    "name": "C#6",
                    "midi": 85,
                    "time": 82.87500000000112,
                    "velocity": 0.2125984251968504,
                    "duration": 0.07500000000000284
                },
                {
                    "name": "F6",
                    "midi": 89,
                    "time": 82.95000000000113,
                    "velocity": 0.25984251968503935,
                    "duration": 0.07500000000000284
                },
                {
                    "name": "B5",
                    "midi": 83,
                    "time": 82.95000000000113,
                    "velocity": 0.2125984251968504,
                    "duration": 0.07500000000000284
                },
                {
                    "name": "D6",
                    "midi": 86,
                    "time": 82.95000000000113,
                    "velocity": 0.2125984251968504,
                    "duration": 0.07500000000000284
                },
                {
                    "name": "A5",
                    "midi": 81,
                    "time": 83.02500000000113,
                    "velocity": 0.2125984251968504,
                    "duration": 0.07500000000000284
                },
                {
                    "name": "C6",
                    "midi": 84,
                    "time": 83.02500000000113,
                    "velocity": 0.2125984251968504,
                    "duration": 0.07500000000000284
                },
                {
                    "name": "D6",
                    "midi": 86,
                    "time": 83.10000000000113,
                    "velocity": 0.33070866141732286,
                    "duration": 0.07500000000000284
                },
                {
                    "name": "B5",
                    "midi": 83,
                    "time": 83.10000000000113,
                    "velocity": 0.25984251968503935,
                    "duration": 0.07500000000000284
                },
                {
                    "name": "G#5",
                    "midi": 80,
                    "time": 83.10000000000113,
                    "velocity": 0.25984251968503935,
                    "duration": 0.07500000000000284
                },
                {
                    "name": "A#5",
                    "midi": 82,
                    "time": 83.17500000000113,
                    "velocity": 0.2125984251968504,
                    "duration": 0.07500000000000284
                },
                {
                    "name": "G5",
                    "midi": 79,
                    "time": 83.17500000000113,
                    "velocity": 0.2125984251968504,
                    "duration": 0.07500000000000284
                },
                {
                    "name": "D6",
                    "midi": 86,
                    "time": 83.25000000000114,
                    "velocity": 0.25984251968503935,
                    "duration": 0.07500000000000284
                },
                {
                    "name": "G#5",
                    "midi": 80,
                    "time": 83.25000000000114,
                    "velocity": 0.2125984251968504,
                    "duration": 0.07500000000000284
                },
                {
                    "name": "B5",
                    "midi": 83,
                    "time": 83.25000000000114,
                    "velocity": 0.2125984251968504,
                    "duration": 0.07500000000000284
                },
                {
                    "name": "A5",
                    "midi": 81,
                    "time": 83.32500000000114,
                    "velocity": 0.2125984251968504,
                    "duration": 0.07500000000000284
                },
                {
                    "name": "F#5",
                    "midi": 78,
                    "time": 83.32500000000114,
                    "velocity": 0.2125984251968504,
                    "duration": 0.07500000000000284
                },
                {
                    "name": "B5",
                    "midi": 83,
                    "time": 83.40000000000114,
                    "velocity": 0.33858267716535434,
                    "duration": 0.07500000000000284
                },
                {
                    "name": "F5",
                    "midi": 77,
                    "time": 83.40000000000114,
                    "velocity": 0.25984251968503935,
                    "duration": 0.07500000000000284
                },
                {
                    "name": "G#5",
                    "midi": 80,
                    "time": 83.40000000000114,
                    "velocity": 0.25984251968503935,
                    "duration": 0.07500000000000284
                },
                {
                    "name": "G5",
                    "midi": 79,
                    "time": 83.47500000000115,
                    "velocity": 0.2125984251968504,
                    "duration": 0.07500000000000284
                },
                {
                    "name": "E5",
                    "midi": 76,
                    "time": 83.47500000000115,
                    "velocity": 0.2125984251968504,
                    "duration": 0.07500000000000284
                },
                {
                    "name": "B5",
                    "midi": 83,
                    "time": 83.55000000000115,
                    "velocity": 0.25984251968503935,
                    "duration": 0.07500000000000284
                },
                {
                    "name": "F5",
                    "midi": 77,
                    "time": 83.55000000000115,
                    "velocity": 0.2125984251968504,
                    "duration": 0.07500000000000284
                },
                {
                    "name": "G#5",
                    "midi": 80,
                    "time": 83.55000000000115,
                    "velocity": 0.2125984251968504,
                    "duration": 0.07500000000000284
                },
                {
                    "name": "F#5",
                    "midi": 78,
                    "time": 83.62500000000115,
                    "velocity": 0.2125984251968504,
                    "duration": 0.07500000000000284
                },
                {
                    "name": "D#5",
                    "midi": 75,
                    "time": 83.62500000000115,
                    "velocity": 0.2125984251968504,
                    "duration": 0.07500000000000284
                },
                {
                    "name": "G#5",
                    "midi": 80,
                    "time": 83.70000000000115,
                    "velocity": 0.3228346456692913,
                    "duration": 0.07500000000000284
                },
                {
                    "name": "F5",
                    "midi": 77,
                    "time": 83.70000000000115,
                    "velocity": 0.25984251968503935,
                    "duration": 0.07500000000000284
                },
                {
                    "name": "D5",
                    "midi": 74,
                    "time": 83.70000000000115,
                    "velocity": 0.25984251968503935,
                    "duration": 0.07500000000000284
                },
                {
                    "name": "E5",
                    "midi": 76,
                    "time": 83.77500000000116,
                    "velocity": 0.2125984251968504,
                    "duration": 0.07500000000000284
                },
                {
                    "name": "C#5",
                    "midi": 73,
                    "time": 83.77500000000116,
                    "velocity": 0.2125984251968504,
                    "duration": 0.07500000000000284
                },
                {
                    "name": "G#5",
                    "midi": 80,
                    "time": 83.85000000000116,
                    "velocity": 0.25984251968503935,
                    "duration": 0.07500000000000284
                },
                {
                    "name": "F5",
                    "midi": 77,
                    "time": 83.85000000000116,
                    "velocity": 0.2125984251968504,
                    "duration": 0.07500000000000284
                },
                {
                    "name": "D5",
                    "midi": 74,
                    "time": 83.85000000000116,
                    "velocity": 0.2125984251968504,
                    "duration": 0.07500000000000284
                },
                {
                    "name": "C5",
                    "midi": 72,
                    "time": 83.92500000000116,
                    "velocity": 0.2125984251968504,
                    "duration": 0.07500000000000284
                },
                {
                    "name": "D#5",
                    "midi": 75,
                    "time": 83.92500000000116,
                    "velocity": 0.2125984251968504,
                    "duration": 0.07500000000000284
                },
                {
                    "name": "G#5",
                    "midi": 80,
                    "time": 84.00000000000117,
                    "velocity": 0.25984251968503935,
                    "duration": 0.07500000000000284
                },
                {
                    "name": "D5",
                    "midi": 74,
                    "time": 84.00000000000117,
                    "velocity": 0.25984251968503935,
                    "duration": 0.07500000000000284
                },
                {
                    "name": "F5",
                    "midi": 77,
                    "time": 84.00000000000117,
                    "velocity": 0.25984251968503935,
                    "duration": 0.07500000000000284
                },
                {
                    "name": "C#5",
                    "midi": 73,
                    "time": 84.07500000000117,
                    "velocity": 0.2125984251968504,
                    "duration": 0.07500000000000284
                },
                {
                    "name": "E5",
                    "midi": 76,
                    "time": 84.07500000000117,
                    "velocity": 0.2125984251968504,
                    "duration": 0.07500000000000284
                },
                {
                    "name": "F5",
                    "midi": 77,
                    "time": 84.15000000000117,
                    "velocity": 0.2125984251968504,
                    "duration": 0.07500000000000284
                },
                {
                    "name": "D5",
                    "midi": 74,
                    "time": 84.15000000000117,
                    "velocity": 0.2125984251968504,
                    "duration": 0.07500000000000284
                },
                {
                    "name": "G#5",
                    "midi": 80,
                    "time": 84.15000000000117,
                    "velocity": 0.2125984251968504,
                    "duration": 0.07500000000000284
                },
                {
                    "name": "E5",
                    "midi": 76,
                    "time": 84.22500000000117,
                    "velocity": 0.2125984251968504,
                    "duration": 0.07500000000000284
                },
                {
                    "name": "C#5",
                    "midi": 73,
                    "time": 84.22500000000117,
                    "velocity": 0.2125984251968504,
                    "duration": 0.07500000000000284
                },
                {
                    "name": "F5",
                    "midi": 77,
                    "time": 84.30000000000118,
                    "velocity": 0.25984251968503935,
                    "duration": 0.07500000000000284
                },
                {
                    "name": "D5",
                    "midi": 74,
                    "time": 84.30000000000118,
                    "velocity": 0.25984251968503935,
                    "duration": 0.07500000000000284
                },
                {
                    "name": "G#5",
                    "midi": 80,
                    "time": 84.30000000000118,
                    "velocity": 0.25984251968503935,
                    "duration": 0.07500000000000284
                },
                {
                    "name": "C#5",
                    "midi": 73,
                    "time": 84.37500000000118,
                    "velocity": 0.2125984251968504,
                    "duration": 0.07500000000000284
                },
                {
                    "name": "E5",
                    "midi": 76,
                    "time": 84.37500000000118,
                    "velocity": 0.2125984251968504,
                    "duration": 0.07500000000000284
                },
                {
                    "name": "G#5",
                    "midi": 80,
                    "time": 84.45000000000118,
                    "velocity": 0.2125984251968504,
                    "duration": 0.07500000000000284
                },
                {
                    "name": "F5",
                    "midi": 77,
                    "time": 84.45000000000118,
                    "velocity": 0.2125984251968504,
                    "duration": 0.07500000000000284
                },
                {
                    "name": "D5",
                    "midi": 74,
                    "time": 84.45000000000118,
                    "velocity": 0.2125984251968504,
                    "duration": 0.07500000000000284
                },
                {
                    "name": "E5",
                    "midi": 76,
                    "time": 84.52500000000119,
                    "velocity": 0.2125984251968504,
                    "duration": 0.07500000000000284
                },
                {
                    "name": "C#5",
                    "midi": 73,
                    "time": 84.52500000000119,
                    "velocity": 0.2125984251968504,
                    "duration": 0.07500000000000284
                },
                {
                    "name": "F5",
                    "midi": 77,
                    "time": 84.60000000000119,
                    "velocity": 0.25984251968503935,
                    "duration": 0.07500000000000284
                },
                {
                    "name": "D5",
                    "midi": 74,
                    "time": 84.60000000000119,
                    "velocity": 0.25984251968503935,
                    "duration": 0.07500000000000284
                },
                {
                    "name": "G#5",
                    "midi": 80,
                    "time": 84.60000000000119,
                    "velocity": 0.25984251968503935,
                    "duration": 0.07500000000000284
                },
                {
                    "name": "C#5",
                    "midi": 73,
                    "time": 84.67500000000119,
                    "velocity": 0.2125984251968504,
                    "duration": 0.07500000000000284
                },
                {
                    "name": "E5",
                    "midi": 76,
                    "time": 84.67500000000119,
                    "velocity": 0.2125984251968504,
                    "duration": 0.07500000000000284
                },
                {
                    "name": "G#5",
                    "midi": 80,
                    "time": 84.7500000000012,
                    "velocity": 0.2125984251968504,
                    "duration": 0.07500000000000284
                },
                {
                    "name": "F5",
                    "midi": 77,
                    "time": 84.7500000000012,
                    "velocity": 0.2125984251968504,
                    "duration": 0.07500000000000284
                },
                {
                    "name": "D5",
                    "midi": 74,
                    "time": 84.7500000000012,
                    "velocity": 0.2125984251968504,
                    "duration": 0.07500000000000284
                },
                {
                    "name": "C#5",
                    "midi": 73,
                    "time": 84.8250000000012,
                    "velocity": 0.2125984251968504,
                    "duration": 0.07500000000000284
                },
                {
                    "name": "E5",
                    "midi": 76,
                    "time": 84.8250000000012,
                    "velocity": 0.2125984251968504,
                    "duration": 0.07500000000000284
                },
                {
                    "name": "D5",
                    "midi": 74,
                    "time": 84.9000000000012,
                    "velocity": 0.25984251968503935,
                    "duration": 0.07500000000000284
                },
                {
                    "name": "F5",
                    "midi": 77,
                    "time": 84.9000000000012,
                    "velocity": 0.25984251968503935,
                    "duration": 0.07500000000000284
                },
                {
                    "name": "G#5",
                    "midi": 80,
                    "time": 84.9000000000012,
                    "velocity": 0.25984251968503935,
                    "duration": 0.07500000000000284
                },
                {
                    "name": "C#5",
                    "midi": 73,
                    "time": 84.9750000000012,
                    "velocity": 0.2125984251968504,
                    "duration": 0.07500000000000284
                },
                {
                    "name": "E5",
                    "midi": 76,
                    "time": 84.9750000000012,
                    "velocity": 0.2125984251968504,
                    "duration": 0.07500000000000284
                },
                {
                    "name": "D5",
                    "midi": 74,
                    "time": 85.0500000000012,
                    "velocity": 0.2125984251968504,
                    "duration": 0.07500000000000284
                },
                {
                    "name": "G#5",
                    "midi": 80,
                    "time": 85.0500000000012,
                    "velocity": 0.2125984251968504,
                    "duration": 0.07500000000000284
                },
                {
                    "name": "F5",
                    "midi": 77,
                    "time": 85.0500000000012,
                    "velocity": 0.2125984251968504,
                    "duration": 0.07500000000000284
                },
                {
                    "name": "C#5",
                    "midi": 73,
                    "time": 85.12500000000121,
                    "velocity": 0.2125984251968504,
                    "duration": 0.07500000000000284
                },
                {
                    "name": "E5",
                    "midi": 76,
                    "time": 85.12500000000121,
                    "velocity": 0.2125984251968504,
                    "duration": 0.07500000000000284
                },
                {
                    "name": "G#5",
                    "midi": 80,
                    "time": 85.20000000000121,
                    "velocity": 0.2125984251968504,
                    "duration": 0.07500000000000284
                },
                {
                    "name": "D5",
                    "midi": 74,
                    "time": 85.20000000000121,
                    "velocity": 0.2125984251968504,
                    "duration": 0.07500000000000284
                },
                {
                    "name": "F5",
                    "midi": 77,
                    "time": 85.20000000000121,
                    "velocity": 0.2125984251968504,
                    "duration": 0.07500000000000284
                },
                {
                    "name": "F#5",
                    "midi": 78,
                    "time": 85.27500000000121,
                    "velocity": 0.2125984251968504,
                    "duration": 0.07500000000000284
                },
                {
                    "name": "F5",
                    "midi": 77,
                    "time": 85.35000000000122,
                    "velocity": 0.2125984251968504,
                    "duration": 0.07500000000000284
                },
                {
                    "name": "F#5",
                    "midi": 78,
                    "time": 85.42500000000122,
                    "velocity": 0.2125984251968504,
                    "duration": 0.07500000000000284
                },
                {
                    "name": "F5",
                    "midi": 77,
                    "time": 85.50000000000122,
                    "velocity": 0.1968503937007874,
                    "duration": 0.07500000000000284
                },
                {
                    "name": "F#5",
                    "midi": 78,
                    "time": 85.57500000000122,
                    "velocity": 0.1968503937007874,
                    "duration": 0.07500000000000284
                },
                {
                    "name": "F5",
                    "midi": 77,
                    "time": 85.65000000000123,
                    "velocity": 0.1968503937007874,
                    "duration": 0.07500000000000284
                },
                {
                    "name": "F#5",
                    "midi": 78,
                    "time": 85.72500000000123,
                    "velocity": 0.2125984251968504,
                    "duration": 0.07500000000000284
                },
                {
                    "name": "F5",
                    "midi": 77,
                    "time": 85.80000000000123,
                    "velocity": 0.2125984251968504,
                    "duration": 0.07500000000000284
                },
                {
                    "name": "F#5",
                    "midi": 78,
                    "time": 85.87500000000124,
                    "velocity": 0.2125984251968504,
                    "duration": 0.07500000000000284
                },
                {
                    "name": "F5",
                    "midi": 77,
                    "time": 85.95000000000124,
                    "velocity": 0.2125984251968504,
                    "duration": 0.07500000000000284
                },
                {
                    "name": "F#5",
                    "midi": 78,
                    "time": 86.02500000000124,
                    "velocity": 0.2125984251968504,
                    "duration": 0.07500000000000284
                },
                {
                    "name": "F5",
                    "midi": 77,
                    "time": 86.10000000000124,
                    "velocity": 0.18110236220472442,
                    "duration": 0.07500000000000284
                },
                {
                    "name": "F#5",
                    "midi": 78,
                    "time": 86.17500000000125,
                    "velocity": 0.18110236220472442,
                    "duration": 0.07500000000000284
                },
                {
                    "name": "F5",
                    "midi": 77,
                    "time": 86.25000000000125,
                    "velocity": 0.1889763779527559,
                    "duration": 0.07500000000000284
                },
                {
                    "name": "F#5",
                    "midi": 78,
                    "time": 86.32500000000125,
                    "velocity": 0.1889763779527559,
                    "duration": 0.07500000000000284
                },
                {
                    "name": "D4",
                    "midi": 62,
                    "time": 86.70000000000125,
                    "velocity": 0.25196850393700787,
                    "duration": 0.30000000000001137
                },
                {
                    "name": "G4",
                    "midi": 67,
                    "time": 86.70000000000125,
                    "velocity": 0.23622047244094488,
                    "duration": 0.15000000000000568
                },
                {
                    "name": "G#4",
                    "midi": 68,
                    "time": 86.85000000000126,
                    "velocity": 0.2047244094488189,
                    "duration": 0.15000000000000568
                },
                {
                    "name": "C#4",
                    "midi": 61,
                    "time": 87.00000000000126,
                    "velocity": 0.28346456692913385,
                    "duration": 0.30000000000001137
                },
                {
                    "name": "G#4",
                    "midi": 68,
                    "time": 87.00000000000126,
                    "velocity": 0.23622047244094488,
                    "duration": 0.15000000000000568
                },
                {
                    "name": "A4",
                    "midi": 69,
                    "time": 87.15000000000127,
                    "velocity": 0.2047244094488189,
                    "duration": 0.15000000000000568
                },
                {
                    "name": "A#4",
                    "midi": 70,
                    "time": 87.30000000000128,
                    "velocity": 0.2755905511811024,
                    "duration": 0.15000000000000568
                },
                {
                    "name": "G#3",
                    "midi": 56,
                    "time": 87.30000000000128,
                    "velocity": 0.25196850393700787,
                    "duration": 0.30000000000001137
                },
                {
                    "name": "B4",
                    "midi": 71,
                    "time": 87.45000000000128,
                    "velocity": 0.2283464566929134,
                    "duration": 0.15000000000000568
                },
                {
                    "name": "A3",
                    "midi": 57,
                    "time": 87.60000000000129,
                    "velocity": 0.2283464566929134,
                    "duration": 0.29999999999999716
                },
                {
                    "name": "E4",
                    "midi": 64,
                    "time": 87.60000000000129,
                    "velocity": 0.28346456692913385,
                    "duration": 0.29999999999999716
                },
                {
                    "name": "A3",
                    "midi": 57,
                    "time": 87.90000000000128,
                    "velocity": 0.1889763779527559,
                    "duration": 0.29999999999999716
                },
                {
                    "name": "E3",
                    "midi": 52,
                    "time": 87.90000000000128,
                    "velocity": 0.1889763779527559,
                    "duration": 0.29999999999999716
                },
                {
                    "name": "E4",
                    "midi": 64,
                    "time": 87.90000000000128,
                    "velocity": 0.23622047244094488,
                    "duration": 0.29999999999999716
                },
                {
                    "name": "B3",
                    "midi": 59,
                    "time": 88.20000000000128,
                    "velocity": 0.1889763779527559,
                    "duration": 0.29999999999999716
                },
                {
                    "name": "E4",
                    "midi": 64,
                    "time": 88.20000000000128,
                    "velocity": 0.23622047244094488,
                    "duration": 0.29999999999999716
                },
                {
                    "name": "E3",
                    "midi": 52,
                    "time": 88.20000000000128,
                    "velocity": 0.1889763779527559,
                    "duration": 0.29999999999999716
                },
                {
                    "name": "E4",
                    "midi": 64,
                    "time": 88.50000000000128,
                    "velocity": 0.23622047244094488,
                    "duration": 0.29999999999999716
                },
                {
                    "name": "G#3",
                    "midi": 56,
                    "time": 88.50000000000128,
                    "velocity": 0.1889763779527559,
                    "duration": 0.29999999999999716
                },
                {
                    "name": "A3",
                    "midi": 57,
                    "time": 88.80000000000128,
                    "velocity": 0.2283464566929134,
                    "duration": 0.29999999999999716
                },
                {
                    "name": "E4",
                    "midi": 64,
                    "time": 88.80000000000128,
                    "velocity": 0.28346456692913385,
                    "duration": 0.29999999999999716
                },
                {
                    "name": "D4",
                    "midi": 62,
                    "time": 89.10000000000127,
                    "velocity": 0.25196850393700787,
                    "duration": 0.30000000000001137
                },
                {
                    "name": "G4",
                    "midi": 67,
                    "time": 89.10000000000127,
                    "velocity": 0.23622047244094488,
                    "duration": 0.15000000000000568
                },
                {
                    "name": "G#4",
                    "midi": 68,
                    "time": 89.25000000000128,
                    "velocity": 0.2047244094488189,
                    "duration": 0.15000000000000568
                },
                {
                    "name": "C#4",
                    "midi": 61,
                    "time": 89.40000000000128,
                    "velocity": 0.28346456692913385,
                    "duration": 0.30000000000001137
                },
                {
                    "name": "G#4",
                    "midi": 68,
                    "time": 89.40000000000128,
                    "velocity": 0.23622047244094488,
                    "duration": 0.15000000000000568
                },
                {
                    "name": "A4",
                    "midi": 69,
                    "time": 89.55000000000129,
                    "velocity": 0.2047244094488189,
                    "duration": 0.15000000000000568
                },
                {
                    "name": "A#4",
                    "midi": 70,
                    "time": 89.7000000000013,
                    "velocity": 0.2755905511811024,
                    "duration": 0.15000000000000568
                },
                {
                    "name": "G#3",
                    "midi": 56,
                    "time": 89.7000000000013,
                    "velocity": 0.25196850393700787,
                    "duration": 0.30000000000001137
                },
                {
                    "name": "B4",
                    "midi": 71,
                    "time": 89.8500000000013,
                    "velocity": 0.2283464566929134,
                    "duration": 0.15000000000000568
                },
                {
                    "name": "E4",
                    "midi": 64,
                    "time": 90.00000000000131,
                    "velocity": 0.28346456692913385,
                    "duration": 0.29999999999999716
                },
                {
                    "name": "A3",
                    "midi": 57,
                    "time": 90.00000000000131,
                    "velocity": 0.2283464566929134,
                    "duration": 0.29999999999999716
                },
                {
                    "name": "A3",
                    "midi": 57,
                    "time": 90.3000000000013,
                    "velocity": 0.1889763779527559,
                    "duration": 0.29999999999999716
                },
                {
                    "name": "E3",
                    "midi": 52,
                    "time": 90.3000000000013,
                    "velocity": 0.1889763779527559,
                    "duration": 0.29999999999999716
                },
                {
                    "name": "E4",
                    "midi": 64,
                    "time": 90.3000000000013,
                    "velocity": 0.23622047244094488,
                    "duration": 0.29999999999999716
                },
                {
                    "name": "E4",
                    "midi": 64,
                    "time": 90.6000000000013,
                    "velocity": 0.23622047244094488,
                    "duration": 0.29999999999999716
                },
                {
                    "name": "E3",
                    "midi": 52,
                    "time": 90.6000000000013,
                    "velocity": 0.1889763779527559,
                    "duration": 0.29999999999999716
                },
                {
                    "name": "B3",
                    "midi": 59,
                    "time": 90.6000000000013,
                    "velocity": 0.1889763779527559,
                    "duration": 0.29999999999999716
                },
                {
                    "name": "G#3",
                    "midi": 56,
                    "time": 90.9000000000013,
                    "velocity": 0.1889763779527559,
                    "duration": 0.29999999999999716
                },
                {
                    "name": "E4",
                    "midi": 64,
                    "time": 90.9000000000013,
                    "velocity": 0.23622047244094488,
                    "duration": 0.29999999999999716
                },
                {
                    "name": "E4",
                    "midi": 64,
                    "time": 91.2000000000013,
                    "velocity": 0.23622047244094488,
                    "duration": 0.29999999999999716
                },
                {
                    "name": "A3",
                    "midi": 57,
                    "time": 91.2000000000013,
                    "velocity": 0.1889763779527559,
                    "duration": 0.29999999999999716
                },
                {
                    "name": "G4",
                    "midi": 67,
                    "time": 91.5000000000013,
                    "velocity": 0.25196850393700787,
                    "duration": 0.30000000000001137
                },
                {
                    "name": "C5",
                    "midi": 72,
                    "time": 91.5000000000013,
                    "velocity": 0.23622047244094488,
                    "duration": 0.15000000000000568
                },
                {
                    "name": "C#5",
                    "midi": 73,
                    "time": 91.6500000000013,
                    "velocity": 0.2047244094488189,
                    "duration": 0.15000000000000568
                },
                {
                    "name": "C#5",
                    "midi": 73,
                    "time": 91.8000000000013,
                    "velocity": 0.23622047244094488,
                    "duration": 0.15000000000000568
                },
                {
                    "name": "F4",
                    "midi": 65,
                    "time": 91.8000000000013,
                    "velocity": 0.28346456692913385,
                    "duration": 0.30000000000001137
                },
                {
                    "name": "D5",
                    "midi": 74,
                    "time": 91.95000000000131,
                    "velocity": 0.2047244094488189,
                    "duration": 0.15000000000000568
                },
                {
                    "name": "C#4",
                    "midi": 61,
                    "time": 92.10000000000132,
                    "velocity": 0.25196850393700787,
                    "duration": 0.30000000000001137
                },
                {
                    "name": "D#5",
                    "midi": 75,
                    "time": 92.10000000000132,
                    "velocity": 0.2755905511811024,
                    "duration": 0.15000000000000568
                },
                {
                    "name": "E5",
                    "midi": 76,
                    "time": 92.25000000000132,
                    "velocity": 0.2283464566929134,
                    "duration": 0.15000000000000568
                },
                {
                    "name": "D4",
                    "midi": 62,
                    "time": 92.40000000000133,
                    "velocity": 0.2283464566929134,
                    "duration": 0.29999999999999716
                },
                {
                    "name": "A4",
                    "midi": 69,
                    "time": 92.40000000000133,
                    "velocity": 0.28346456692913385,
                    "duration": 0.29999999999999716
                },
                {
                    "name": "A3",
                    "midi": 57,
                    "time": 92.70000000000132,
                    "velocity": 0.1889763779527559,
                    "duration": 0.29999999999999716
                },
                {
                    "name": "A4",
                    "midi": 69,
                    "time": 92.70000000000132,
                    "velocity": 0.23622047244094488,
                    "duration": 0.29999999999999716
                },
                {
                    "name": "D4",
                    "midi": 62,
                    "time": 92.70000000000132,
                    "velocity": 0.1889763779527559,
                    "duration": 0.29999999999999716
                },
                {
                    "name": "E4",
                    "midi": 64,
                    "time": 93.00000000000132,
                    "velocity": 0.1889763779527559,
                    "duration": 0.29999999999999716
                },
                {
                    "name": "A3",
                    "midi": 57,
                    "time": 93.00000000000132,
                    "velocity": 0.1889763779527559,
                    "duration": 0.29999999999999716
                },
                {
                    "name": "A4",
                    "midi": 69,
                    "time": 93.00000000000132,
                    "velocity": 0.23622047244094488,
                    "duration": 0.29999999999999716
                },
                {
                    "name": "C#4",
                    "midi": 61,
                    "time": 93.30000000000132,
                    "velocity": 0.1889763779527559,
                    "duration": 0.29999999999999716
                },
                {
                    "name": "A4",
                    "midi": 69,
                    "time": 93.30000000000132,
                    "velocity": 0.23622047244094488,
                    "duration": 0.5999999999999943
                },
                {
                    "name": "D4",
                    "midi": 62,
                    "time": 93.60000000000132,
                    "velocity": 0.2283464566929134,
                    "duration": 0.29999999999999716
                },
                {
                    "name": "G4",
                    "midi": 67,
                    "time": 93.90000000000131,
                    "velocity": 0.25196850393700787,
                    "duration": 0.30000000000001137
                },
                {
                    "name": "C5",
                    "midi": 72,
                    "time": 93.90000000000131,
                    "velocity": 0.23622047244094488,
                    "duration": 0.15000000000000568
                },
                {
                    "name": "C#5",
                    "midi": 73,
                    "time": 94.05000000000132,
                    "velocity": 0.2047244094488189,
                    "duration": 0.15000000000000568
                },
                {
                    "name": "F4",
                    "midi": 65,
                    "time": 94.20000000000132,
                    "velocity": 0.28346456692913385,
                    "duration": 0.30000000000001137
                },
                {
                    "name": "C#5",
                    "midi": 73,
                    "time": 94.20000000000132,
                    "velocity": 0.23622047244094488,
                    "duration": 0.15000000000000568
                },
                {
                    "name": "D5",
                    "midi": 74,
                    "time": 94.35000000000133,
                    "velocity": 0.2047244094488189,
                    "duration": 0.15000000000000568
                },
                {
                    "name": "C#4",
                    "midi": 61,
                    "time": 94.50000000000134,
                    "velocity": 0.25196850393700787,
                    "duration": 0.30000000000001137
                },
                {
                    "name": "D#5",
                    "midi": 75,
                    "time": 94.50000000000134,
                    "velocity": 0.2755905511811024,
                    "duration": 0.15000000000000568
                },
                {
                    "name": "E5",
                    "midi": 76,
                    "time": 94.65000000000134,
                    "velocity": 0.2283464566929134,
                    "duration": 0.15000000000000568
                },
                {
                    "name": "A4",
                    "midi": 69,
                    "time": 94.80000000000135,
                    "velocity": 0.28346456692913385,
                    "duration": 0.29999999999999716
                },
                {
                    "name": "D4",
                    "midi": 62,
                    "time": 94.80000000000135,
                    "velocity": 0.2283464566929134,
                    "duration": 0.29999999999999716
                },
                {
                    "name": "A4",
                    "midi": 69,
                    "time": 95.10000000000134,
                    "velocity": 0.23622047244094488,
                    "duration": 0.29999999999999716
                },
                {
                    "name": "D4",
                    "midi": 62,
                    "time": 95.10000000000134,
                    "velocity": 0.1889763779527559,
                    "duration": 0.29999999999999716
                },
                {
                    "name": "A3",
                    "midi": 57,
                    "time": 95.10000000000134,
                    "velocity": 0.1889763779527559,
                    "duration": 0.29999999999999716
                },
                {
                    "name": "A4",
                    "midi": 69,
                    "time": 95.40000000000134,
                    "velocity": 0.23622047244094488,
                    "duration": 0.29999999999999716
                },
                {
                    "name": "E4",
                    "midi": 64,
                    "time": 95.40000000000134,
                    "velocity": 0.1889763779527559,
                    "duration": 0.29999999999999716
                },
                {
                    "name": "A3",
                    "midi": 57,
                    "time": 95.40000000000134,
                    "velocity": 0.1889763779527559,
                    "duration": 0.29999999999999716
                },
                {
                    "name": "C#4",
                    "midi": 61,
                    "time": 95.70000000000134,
                    "velocity": 0.1889763779527559,
                    "duration": 0.29999999999999716
                },
                {
                    "name": "A4",
                    "midi": 69,
                    "time": 95.70000000000134,
                    "velocity": 0.23622047244094488,
                    "duration": 0.5999999999999943
                },
                {
                    "name": "D4",
                    "midi": 62,
                    "time": 96.00000000000134,
                    "velocity": 0.2283464566929134,
                    "duration": 0.29999999999999716
                },
                {
                    "name": "C4",
                    "midi": 60,
                    "time": 96.30000000000133,
                    "velocity": 0.28346456692913385,
                    "duration": 0.29999999999999716
                },
                {
                    "name": "A2",
                    "midi": 45,
                    "time": 96.30000000000133,
                    "velocity": 0.23622047244094488,
                    "duration": 0.29999999999999716
                },
                {
                    "name": "A#2",
                    "midi": 46,
                    "time": 96.60000000000133,
                    "velocity": 0.1889763779527559,
                    "duration": 0.15000000000000568
                },
                {
                    "name": "D4",
                    "midi": 62,
                    "time": 96.60000000000133,
                    "velocity": 0.2283464566929134,
                    "duration": 0.15000000000000568
                },
                {
                    "name": "C3",
                    "midi": 48,
                    "time": 96.90000000000134,
                    "velocity": 0.2204724409448819,
                    "duration": 0.29999999999999716
                },
                {
                    "name": "D#4",
                    "midi": 63,
                    "time": 96.90000000000134,
                    "velocity": 0.2755905511811024,
                    "duration": 0.29999999999999716
                },
                {
                    "name": "F4",
                    "midi": 65,
                    "time": 97.20000000000134,
                    "velocity": 0.1968503937007874,
                    "duration": 0.15000000000000568
                },
                {
                    "name": "D3",
                    "midi": 50,
                    "time": 97.20000000000134,
                    "velocity": 0.15748031496062992,
                    "duration": 0.15000000000000568
                },
                {
                    "name": "F#4",
                    "midi": 66,
                    "time": 97.50000000000135,
                    "velocity": 0.2440944881889764,
                    "duration": 0.29999999999999716
                },
                {
                    "name": "D#3",
                    "midi": 51,
                    "time": 97.50000000000135,
                    "velocity": 0.2047244094488189,
                    "duration": 0.29999999999999716
                },
                {
                    "name": "G#4",
                    "midi": 68,
                    "time": 97.80000000000135,
                    "velocity": 0.1968503937007874,
                    "duration": 0.15000000000000568
                },
                {
                    "name": "E3",
                    "midi": 52,
                    "time": 97.80000000000135,
                    "velocity": 0.16535433070866143,
                    "duration": 0.15000000000000568
                },
                {
                    "name": "F#3",
                    "midi": 54,
                    "time": 98.10000000000136,
                    "velocity": 0.1732283464566929,
                    "duration": 0.30000000000001137
                },
                {
                    "name": "D#4",
                    "midi": 63,
                    "time": 98.10000000000136,
                    "velocity": 0.2125984251968504,
                    "duration": 0.15000000000000568
                },
                {
                    "name": "C4",
                    "midi": 60,
                    "time": 98.25000000000136,
                    "velocity": 0.18110236220472442,
                    "duration": 0.15000000000000568
                },
                {
                    "name": "G#3",
                    "midi": 56,
                    "time": 98.40000000000137,
                    "velocity": 0.1889763779527559,
                    "duration": 0.30000000000001137
                },
                {
                    "name": "E4",
                    "midi": 64,
                    "time": 98.40000000000137,
                    "velocity": 0.2283464566929134,
                    "duration": 0.07500000000000284
                },
                {
                    "name": "B3",
                    "midi": 59,
                    "time": 98.55000000000138,
                    "velocity": 0.1968503937007874,
                    "duration": 0.07500000000000284
                },
                {
                    "name": "A3",
                    "midi": 57,
                    "time": 98.70000000000138,
                    "velocity": 0.2283464566929134,
                    "duration": 0.30000000000001137
                },
                {
                    "name": "F#4",
                    "midi": 66,
                    "time": 98.70000000000138,
                    "velocity": 0.2283464566929134,
                    "duration": 0.07500000000000284
                },
                {
                    "name": "C4",
                    "midi": 60,
                    "time": 98.85000000000139,
                    "velocity": 0.1889763779527559,
                    "duration": 0.07500000000000284
                },
                {
                    "name": "B3",
                    "midi": 59,
                    "time": 99.00000000000139,
                    "velocity": 0.1889763779527559,
                    "duration": 0.30000000000001137
                },
                {
                    "name": "G#4",
                    "midi": 68,
                    "time": 99.00000000000139,
                    "velocity": 0.2283464566929134,
                    "duration": 0.07500000000000284
                },
                {
                    "name": "D4",
                    "midi": 62,
                    "time": 99.1500000000014,
                    "velocity": 0.1889763779527559,
                    "duration": 0.07500000000000284
                },
                {
                    "name": "F#4",
                    "midi": 66,
                    "time": 99.3000000000014,
                    "velocity": 0.2283464566929134,
                    "duration": 0.07500000000000284
                },
                {
                    "name": "C4",
                    "midi": 60,
                    "time": 99.3000000000014,
                    "velocity": 0.1889763779527559,
                    "duration": 0.07500000000000284
                },
                {
                    "name": "D4",
                    "midi": 62,
                    "time": 99.6000000000014,
                    "velocity": 0.1889763779527559,
                    "duration": 0.07500000000000284
                },
                {
                    "name": "G#4",
                    "midi": 68,
                    "time": 99.6000000000014,
                    "velocity": 0.2283464566929134,
                    "duration": 0.07500000000000284
                },
                {
                    "name": "B4",
                    "midi": 71,
                    "time": 99.9000000000014,
                    "velocity": 0.33858267716535434,
                    "duration": 0.07500000000000284
                },
                {
                    "name": "G#4",
                    "midi": 68,
                    "time": 99.9000000000014,
                    "velocity": 0.29133858267716534,
                    "duration": 0.07500000000000284
                },
                {
                    "name": "D4",
                    "midi": 62,
                    "time": 100.0500000000014,
                    "velocity": 0.25196850393700787,
                    "duration": 0.07500000000000284
                },
                {
                    "name": "A4",
                    "midi": 69,
                    "time": 100.20000000000141,
                    "velocity": 0.3228346456692913,
                    "duration": 0.07500000000000284
                },
                {
                    "name": "C#5",
                    "midi": 73,
                    "time": 100.20000000000141,
                    "velocity": 0.36220472440944884,
                    "duration": 0.07500000000000284
                },
                {
                    "name": "C#4",
                    "midi": 61,
                    "time": 100.35000000000142,
                    "velocity": 0.2440944881889764,
                    "duration": 0.07500000000000284
                },
                {
                    "name": "D5",
                    "midi": 74,
                    "time": 100.50000000000142,
                    "velocity": 0.36220472440944884,
                    "duration": 0.07500000000000284
                },
                {
                    "name": "G#4",
                    "midi": 68,
                    "time": 100.50000000000142,
                    "velocity": 0.3228346456692913,
                    "duration": 0.07500000000000284
                },
                {
                    "name": "B3",
                    "midi": 59,
                    "time": 100.65000000000143,
                    "velocity": 0.25196850393700787,
                    "duration": 0.07500000000000284
                },
                {
                    "name": "A3",
                    "midi": 57,
                    "time": 100.76250000000142,
                    "velocity": 0.2992125984251969,
                    "duration": 0.3374999999999915
                },
                {
                    "name": "C#5",
                    "midi": 73,
                    "time": 100.80000000000142,
                    "velocity": 0.33858267716535434,
                    "duration": 0.29999999999999716
                },
                {
                    "name": "D#4",
                    "midi": 63,
                    "time": 100.91250000000142,
                    "velocity": 0.28346456692913385,
                    "duration": 0.037499999999994316
                },
                {
                    "name": "E4",
                    "midi": 64,
                    "time": 100.95000000000141,
                    "velocity": 0.3779527559055118,
                    "duration": 0.07500000000000284
                },
                {
                    "name": "C#3",
                    "midi": 49,
                    "time": 101.10000000000142,
                    "velocity": 0.29133858267716534,
                    "duration": 0.07500000000000284
                },
                {
                    "name": "F#4",
                    "midi": 66,
                    "time": 101.21250000000141,
                    "velocity": 0.25196850393700787,
                    "duration": 0.037499999999994316
                },
                {
                    "name": "E4",
                    "midi": 64,
                    "time": 101.2500000000014,
                    "velocity": 0.3543307086614173,
                    "duration": 0.07500000000000284
                },
                {
                    "name": "E2",
                    "midi": 40,
                    "time": 101.40000000000141,
                    "velocity": 0.2992125984251969,
                    "duration": 0.07500000000000284
                },
                {
                    "name": "D#4",
                    "midi": 63,
                    "time": 101.51250000000141,
                    "velocity": 0.2047244094488189,
                    "duration": 0.037499999999994316
                },
                {
                    "name": "E4",
                    "midi": 64,
                    "time": 101.5500000000014,
                    "velocity": 0.33070866141732286,
                    "duration": 0.07500000000000284
                },
                {
                    "name": "G#2",
                    "midi": 44,
                    "time": 101.70000000000141,
                    "velocity": 0.29133858267716534,
                    "duration": 0.07500000000000284
                },
                {
                    "name": "F4",
                    "midi": 65,
                    "time": 101.8125000000014,
                    "velocity": 0.2440944881889764,
                    "duration": 0.037499999999994316
                },
                {
                    "name": "E4",
                    "midi": 64,
                    "time": 101.8500000000014,
                    "velocity": 0.33070866141732286,
                    "duration": 0.07500000000000284
                },
                {
                    "name": "A2",
                    "midi": 45,
                    "time": 102.0000000000014,
                    "velocity": 0.30708661417322836,
                    "duration": 0.07500000000000284
                },
                {
                    "name": "D#4",
                    "midi": 63,
                    "time": 102.1125000000014,
                    "velocity": 0.2047244094488189,
                    "duration": 0.037499999999994316
                },
                {
                    "name": "E4",
                    "midi": 64,
                    "time": 102.1500000000014,
                    "velocity": 0.33858267716535434,
                    "duration": 0.07500000000000284
                },
                {
                    "name": "B4",
                    "midi": 71,
                    "time": 102.3000000000014,
                    "velocity": 0.33858267716535434,
                    "duration": 0.07500000000000284
                },
                {
                    "name": "G#4",
                    "midi": 68,
                    "time": 102.3000000000014,
                    "velocity": 0.29133858267716534,
                    "duration": 0.07500000000000284
                },
                {
                    "name": "D4",
                    "midi": 62,
                    "time": 102.45000000000141,
                    "velocity": 0.25196850393700787,
                    "duration": 0.07500000000000284
                },
                {
                    "name": "C#5",
                    "midi": 73,
                    "time": 102.60000000000142,
                    "velocity": 0.36220472440944884,
                    "duration": 0.07500000000000284
                },
                {
                    "name": "A4",
                    "midi": 69,
                    "time": 102.60000000000142,
                    "velocity": 0.3228346456692913,
                    "duration": 0.07500000000000284
                },
                {
                    "name": "C#4",
                    "midi": 61,
                    "time": 102.75000000000142,
                    "velocity": 0.2440944881889764,
                    "duration": 0.07500000000000284
                },
                {
                    "name": "D5",
                    "midi": 74,
                    "time": 102.90000000000143,
                    "velocity": 0.36220472440944884,
                    "duration": 0.07500000000000284
                },
                {
                    "name": "G#4",
                    "midi": 68,
                    "time": 102.90000000000143,
                    "velocity": 0.3228346456692913,
                    "duration": 0.07500000000000284
                },
                {
                    "name": "B3",
                    "midi": 59,
                    "time": 103.05000000000143,
                    "velocity": 0.25196850393700787,
                    "duration": 0.07500000000000284
                },
                {
                    "name": "A3",
                    "midi": 57,
                    "time": 103.17375000000143,
                    "velocity": 0.29133858267716534,
                    "duration": 0.3375000000000057
                },
                {
                    "name": "C#5",
                    "midi": 73,
                    "time": 103.20000000000144,
                    "velocity": 0.33858267716535434,
                    "duration": 0.29999999999999716
                },
                {
                    "name": "D#4",
                    "midi": 63,
                    "time": 103.31250000000144,
                    "velocity": 0.28346456692913385,
                    "duration": 0.037499999999994316
                },
                {
                    "name": "E4",
                    "midi": 64,
                    "time": 103.35000000000143,
                    "velocity": 0.3779527559055118,
                    "duration": 0.07500000000000284
                },
                {
                    "name": "C#3",
                    "midi": 49,
                    "time": 103.50000000000144,
                    "velocity": 0.29133858267716534,
                    "duration": 0.07500000000000284
                },
                {
                    "name": "F#4",
                    "midi": 66,
                    "time": 103.61250000000143,
                    "velocity": 0.25196850393700787,
                    "duration": 0.037499999999994316
                },
                {
                    "name": "E4",
                    "midi": 64,
                    "time": 103.65000000000143,
                    "velocity": 0.3543307086614173,
                    "duration": 0.07500000000000284
                },
                {
                    "name": "E2",
                    "midi": 40,
                    "time": 103.80000000000143,
                    "velocity": 0.2992125984251969,
                    "duration": 0.07500000000000284
                },
                {
                    "name": "D#4",
                    "midi": 63,
                    "time": 103.91250000000143,
                    "velocity": 0.2047244094488189,
                    "duration": 0.037499999999994316
                },
                {
                    "name": "E4",
                    "midi": 64,
                    "time": 103.95000000000142,
                    "velocity": 0.33070866141732286,
                    "duration": 0.07500000000000284
                },
                {
                    "name": "G#2",
                    "midi": 44,
                    "time": 104.10000000000143,
                    "velocity": 0.29133858267716534,
                    "duration": 0.07500000000000284
                },
                {
                    "name": "F4",
                    "midi": 65,
                    "time": 104.21250000000143,
                    "velocity": 0.2440944881889764,
                    "duration": 0.037499999999994316
                },
                {
                    "name": "E4",
                    "midi": 64,
                    "time": 104.25000000000142,
                    "velocity": 0.33070866141732286,
                    "duration": 0.07500000000000284
                },
                {
                    "name": "A2",
                    "midi": 45,
                    "time": 104.40000000000143,
                    "velocity": 0.30708661417322836,
                    "duration": 0.07500000000000284
                },
                {
                    "name": "D#4",
                    "midi": 63,
                    "time": 104.51250000000142,
                    "velocity": 0.2047244094488189,
                    "duration": 0.037499999999994316
                },
                {
                    "name": "E4",
                    "midi": 64,
                    "time": 104.55000000000142,
                    "velocity": 0.33858267716535434,
                    "duration": 0.07500000000000284
                },
                {
                    "name": "C#5",
                    "midi": 73,
                    "time": 104.70000000000142,
                    "velocity": 0.29133858267716534,
                    "duration": 0.07500000000000284
                },
                {
                    "name": "E5",
                    "midi": 76,
                    "time": 104.70000000000142,
                    "velocity": 0.33858267716535434,
                    "duration": 0.07500000000000284
                },
                {
                    "name": "G4",
                    "midi": 67,
                    "time": 104.85000000000143,
                    "velocity": 0.25196850393700787,
                    "duration": 0.07500000000000284
                },
                {
                    "name": "F5",
                    "midi": 77,
                    "time": 105.00000000000144,
                    "velocity": 0.36220472440944884,
                    "duration": 0.07500000000000284
                },
                {
                    "name": "D5",
                    "midi": 74,
                    "time": 105.00000000000144,
                    "velocity": 0.3228346456692913,
                    "duration": 0.07500000000000284
                },
                {
                    "name": "F4",
                    "midi": 65,
                    "time": 105.15000000000144,
                    "velocity": 0.2440944881889764,
                    "duration": 0.07500000000000284
                },
                {
                    "name": "C#5",
                    "midi": 73,
                    "time": 105.30000000000145,
                    "velocity": 0.3228346456692913,
                    "duration": 0.07500000000000284
                },
                {
                    "name": "G5",
                    "midi": 79,
                    "time": 105.30000000000145,
                    "velocity": 0.36220472440944884,
                    "duration": 0.07500000000000284
                },
                {
                    "name": "E4",
                    "midi": 64,
                    "time": 105.45000000000145,
                    "velocity": 0.25196850393700787,
                    "duration": 0.07500000000000284
                },
                {
                    "name": "D4",
                    "midi": 62,
                    "time": 105.60000000000146,
                    "velocity": 0.33858267716535434,
                    "duration": 0.29999999999999716
                },
                {
                    "name": "F5",
                    "midi": 77,
                    "time": 105.60000000000146,
                    "velocity": 0.33858267716535434,
                    "duration": 0.29999999999999716
                },
                {
                    "name": "G#4",
                    "midi": 68,
                    "time": 105.71250000000146,
                    "velocity": 0.28346456692913385,
                    "duration": 0.037499999999994316
                },
                {
                    "name": "A4",
                    "midi": 69,
                    "time": 105.75000000000145,
                    "velocity": 0.3779527559055118,
                    "duration": 0.07500000000000284
                },
                {
                    "name": "F3",
                    "midi": 53,
                    "time": 105.90000000000146,
                    "velocity": 0.29133858267716534,
                    "duration": 0.07500000000000284
                },
                {
                    "name": "A#4",
                    "midi": 70,
                    "time": 106.01250000000145,
                    "velocity": 0.25196850393700787,
                    "duration": 0.037499999999994316
                },
                {
                    "name": "A4",
                    "midi": 69,
                    "time": 106.05000000000145,
                    "velocity": 0.3543307086614173,
                    "duration": 0.07500000000000284
                },
                {
                    "name": "A2",
                    "midi": 45,
                    "time": 106.20000000000145,
                    "velocity": 0.2992125984251969,
                    "duration": 0.07500000000000284
                },
                {
                    "name": "G#4",
                    "midi": 68,
                    "time": 106.31250000000145,
                    "velocity": 0.2047244094488189,
                    "duration": 0.037499999999994316
                },
                {
                    "name": "A4",
                    "midi": 69,
                    "time": 106.35000000000144,
                    "velocity": 0.33070866141732286,
                    "duration": 0.07500000000000284
                },
                {
                    "name": "C#3",
                    "midi": 49,
                    "time": 106.50000000000145,
                    "velocity": 0.29133858267716534,
                    "duration": 0.07500000000000284
                },
                {
                    "name": "A#4",
                    "midi": 70,
                    "time": 106.61250000000145,
                    "velocity": 0.2440944881889764,
                    "duration": 0.037499999999994316
                },
                {
                    "name": "A4",
                    "midi": 69,
                    "time": 106.65000000000144,
                    "velocity": 0.33070866141732286,
                    "duration": 0.07500000000000284
                },
                {
                    "name": "D3",
                    "midi": 50,
                    "time": 106.80000000000145,
                    "velocity": 0.30708661417322836,
                    "duration": 0.07500000000000284
                },
                {
                    "name": "G#4",
                    "midi": 68,
                    "time": 106.91250000000144,
                    "velocity": 0.2047244094488189,
                    "duration": 0.037499999999994316
                },
                {
                    "name": "A4",
                    "midi": 69,
                    "time": 106.95000000000144,
                    "velocity": 0.33858267716535434,
                    "duration": 0.07500000000000284
                },
                {
                    "name": "E5",
                    "midi": 76,
                    "time": 107.10000000000144,
                    "velocity": 0.33858267716535434,
                    "duration": 0.07500000000000284
                },
                {
                    "name": "C#5",
                    "midi": 73,
                    "time": 107.10000000000144,
                    "velocity": 0.29133858267716534,
                    "duration": 0.07500000000000284
                },
                {
                    "name": "G4",
                    "midi": 67,
                    "time": 107.25000000000145,
                    "velocity": 0.25196850393700787,
                    "duration": 0.07500000000000284
                },
                {
                    "name": "D5",
                    "midi": 74,
                    "time": 107.40000000000146,
                    "velocity": 0.3228346456692913,
                    "duration": 0.07500000000000284
                },
                {
                    "name": "F5",
                    "midi": 77,
                    "time": 107.40000000000146,
                    "velocity": 0.36220472440944884,
                    "duration": 0.07500000000000284
                },
                {
                    "name": "F4",
                    "midi": 65,
                    "time": 107.55000000000146,
                    "velocity": 0.2440944881889764,
                    "duration": 0.07500000000000284
                },
                {
                    "name": "C#5",
                    "midi": 73,
                    "time": 107.70000000000147,
                    "velocity": 0.3228346456692913,
                    "duration": 0.07500000000000284
                },
                {
                    "name": "G5",
                    "midi": 79,
                    "time": 107.70000000000147,
                    "velocity": 0.36220472440944884,
                    "duration": 0.07500000000000284
                },
                {
                    "name": "E4",
                    "midi": 64,
                    "time": 107.85000000000147,
                    "velocity": 0.25196850393700787,
                    "duration": 0.07500000000000284
                },
                {
                    "name": "D4",
                    "midi": 62,
                    "time": 108.00000000000148,
                    "velocity": 0.33858267716535434,
                    "duration": 0.29999999999999716
                },
                {
                    "name": "F5",
                    "midi": 77,
                    "time": 108.00000000000148,
                    "velocity": 0.33858267716535434,
                    "duration": 0.29999999999999716
                },
                {
                    "name": "G#4",
                    "midi": 68,
                    "time": 108.11250000000148,
                    "velocity": 0.28346456692913385,
                    "duration": 0.037499999999994316
                },
                {
                    "name": "A4",
                    "midi": 69,
                    "time": 108.15000000000147,
                    "velocity": 0.3779527559055118,
                    "duration": 0.07500000000000284
                },
                {
                    "name": "F3",
                    "midi": 53,
                    "time": 108.30000000000148,
                    "velocity": 0.29133858267716534,
                    "duration": 0.07500000000000284
                },
                {
                    "name": "A#4",
                    "midi": 70,
                    "time": 108.41250000000147,
                    "velocity": 0.25196850393700787,
                    "duration": 0.037499999999994316
                },
                {
                    "name": "A4",
                    "midi": 69,
                    "time": 108.45000000000147,
                    "velocity": 0.3543307086614173,
                    "duration": 0.07500000000000284
                },
                {
                    "name": "A2",
                    "midi": 45,
                    "time": 108.60000000000147,
                    "velocity": 0.2992125984251969,
                    "duration": 0.07500000000000284
                },
                {
                    "name": "G#4",
                    "midi": 68,
                    "time": 108.71250000000147,
                    "velocity": 0.2047244094488189,
                    "duration": 0.037499999999994316
                },
                {
                    "name": "A4",
                    "midi": 69,
                    "time": 108.75000000000146,
                    "velocity": 0.33070866141732286,
                    "duration": 0.07500000000000284
                },
                {
                    "name": "C#3",
                    "midi": 49,
                    "time": 108.90000000000147,
                    "velocity": 0.29133858267716534,
                    "duration": 0.07500000000000284
                },
                {
                    "name": "A#4",
                    "midi": 70,
                    "time": 109.01250000000147,
                    "velocity": 0.2440944881889764,
                    "duration": 0.037499999999994316
                },
                {
                    "name": "A4",
                    "midi": 69,
                    "time": 109.05000000000146,
                    "velocity": 0.33070866141732286,
                    "duration": 0.07500000000000284
                },
                {
                    "name": "D3",
                    "midi": 50,
                    "time": 109.20000000000147,
                    "velocity": 0.30708661417322836,
                    "duration": 0.07500000000000284
                },
                {
                    "name": "F1",
                    "midi": 29,
                    "time": 109.50000000000146,
                    "velocity": 0.3464566929133858,
                    "duration": 0.30000000000001137
                },
                {
                    "name": "F2",
                    "midi": 41,
                    "time": 109.50000000000146,
                    "velocity": 0.3464566929133858,
                    "duration": 0.07500000000000284
                },
                {
                    "name": "F#2",
                    "midi": 42,
                    "time": 109.57500000000147,
                    "velocity": 0.28346456692913385,
                    "duration": 0.07500000000000284
                },
                {
                    "name": "F2",
                    "midi": 41,
                    "time": 109.65000000000147,
                    "velocity": 0.28346456692913385,
                    "duration": 0.07500000000000284
                },
                {
                    "name": "F#2",
                    "midi": 42,
                    "time": 109.72500000000147,
                    "velocity": 0.28346456692913385,
                    "duration": 0.07500000000000284
                },
                {
                    "name": "F2",
                    "midi": 41,
                    "time": 109.80000000000148,
                    "velocity": 0.3543307086614173,
                    "duration": 0.30000000000001137
                },
                {
                    "name": "F3",
                    "midi": 53,
                    "time": 109.80000000000148,
                    "velocity": 0.3543307086614173,
                    "duration": 0.07500000000000284
                },
                {
                    "name": "F#3",
                    "midi": 54,
                    "time": 109.87500000000148,
                    "velocity": 0.2992125984251969,
                    "duration": 0.07500000000000284
                },
                {
                    "name": "F3",
                    "midi": 53,
                    "time": 109.95000000000148,
                    "velocity": 0.2992125984251969,
                    "duration": 0.07500000000000284
                },
                {
                    "name": "F#3",
                    "midi": 54,
                    "time": 110.02500000000148,
                    "velocity": 0.2992125984251969,
                    "duration": 0.07500000000000284
                },
                {
                    "name": "F4",
                    "midi": 65,
                    "time": 110.10000000000149,
                    "velocity": 0.3543307086614173,
                    "duration": 0.07500000000000284
                },
                {
                    "name": "F3",
                    "midi": 53,
                    "time": 110.10000000000149,
                    "velocity": 0.3543307086614173,
                    "duration": 0.30000000000001137
                },
                {
                    "name": "F#4",
                    "midi": 66,
                    "time": 110.17500000000149,
                    "velocity": 0.2992125984251969,
                    "duration": 0.07500000000000284
                },
                {
                    "name": "F4",
                    "midi": 65,
                    "time": 110.25000000000149,
                    "velocity": 0.29133858267716534,
                    "duration": 0.07500000000000284
                },
                {
                    "name": "F#4",
                    "midi": 66,
                    "time": 110.3250000000015,
                    "velocity": 0.29133858267716534,
                    "duration": 0.07500000000000284
                },
                {
                    "name": "F4",
                    "midi": 65,
                    "time": 110.4000000000015,
                    "velocity": 0.36220472440944884,
                    "duration": 0.07500000000000284
                },
                {
                    "name": "G4",
                    "midi": 67,
                    "time": 110.4750000000015,
                    "velocity": 0.29133858267716534,
                    "duration": 0.07500000000000284
                },
                {
                    "name": "F4",
                    "midi": 65,
                    "time": 110.5500000000015,
                    "velocity": 0.29133858267716534,
                    "duration": 0.07500000000000284
                },
                {
                    "name": "F1",
                    "midi": 29,
                    "time": 110.70000000000151,
                    "velocity": 0.3700787401574803,
                    "duration": 0.30000000000001137
                },
                {
                    "name": "F2",
                    "midi": 41,
                    "time": 110.70000000000151,
                    "velocity": 0.3700787401574803,
                    "duration": 0.07500000000000284
                },
                {
                    "name": "F#2",
                    "midi": 42,
                    "time": 110.77500000000151,
                    "velocity": 0.30708661417322836,
                    "duration": 0.07500000000000284
                },
                {
                    "name": "F2",
                    "midi": 41,
                    "time": 110.85000000000151,
                    "velocity": 0.30708661417322836,
                    "duration": 0.07500000000000284
                },
                {
                    "name": "F#2",
                    "midi": 42,
                    "time": 110.92500000000152,
                    "velocity": 0.30708661417322836,
                    "duration": 0.07500000000000284
                },
                {
                    "name": "F2",
                    "midi": 41,
                    "time": 111.00000000000152,
                    "velocity": 0.3779527559055118,
                    "duration": 0.30000000000001137
                },
                {
                    "name": "F3",
                    "midi": 53,
                    "time": 111.00000000000152,
                    "velocity": 0.3779527559055118,
                    "duration": 0.07500000000000284
                },
                {
                    "name": "F#3",
                    "midi": 54,
                    "time": 111.07500000000152,
                    "velocity": 0.31496062992125984,
                    "duration": 0.07500000000000284
                },
                {
                    "name": "F3",
                    "midi": 53,
                    "time": 111.15000000000153,
                    "velocity": 0.31496062992125984,
                    "duration": 0.07500000000000284
                },
                {
                    "name": "F#3",
                    "midi": 54,
                    "time": 111.22500000000153,
                    "velocity": 0.31496062992125984,
                    "duration": 0.07500000000000284
                },
                {
                    "name": "F3",
                    "midi": 53,
                    "time": 111.30000000000153,
                    "velocity": 0.3779527559055118,
                    "duration": 0.30000000000001137
                },
                {
                    "name": "F4",
                    "midi": 65,
                    "time": 111.30000000000153,
                    "velocity": 0.3779527559055118,
                    "duration": 0.07500000000000284
                },
                {
                    "name": "F#4",
                    "midi": 66,
                    "time": 111.37500000000153,
                    "velocity": 0.31496062992125984,
                    "duration": 0.07500000000000284
                },
                {
                    "name": "F4",
                    "midi": 65,
                    "time": 111.45000000000154,
                    "velocity": 0.30708661417322836,
                    "duration": 0.07500000000000284
                },
                {
                    "name": "F#4",
                    "midi": 66,
                    "time": 111.52500000000154,
                    "velocity": 0.30708661417322836,
                    "duration": 0.07500000000000284
                },
                {
                    "name": "F4",
                    "midi": 65,
                    "time": 111.60000000000154,
                    "velocity": 0.3858267716535433,
                    "duration": 0.07500000000000284
                },
                {
                    "name": "G4",
                    "midi": 67,
                    "time": 111.67500000000155,
                    "velocity": 0.31496062992125984,
                    "duration": 0.07500000000000284
                },
                {
                    "name": "F4",
                    "midi": 65,
                    "time": 111.75000000000155,
                    "velocity": 0.31496062992125984,
                    "duration": 0.07500000000000284
                },
                {
                    "name": "A#1",
                    "midi": 34,
                    "time": 111.90000000000155,
                    "velocity": 0.4409448818897638,
                    "duration": 0.30000000000001137
                },
                {
                    "name": "A#2",
                    "midi": 46,
                    "time": 111.90000000000155,
                    "velocity": 0.4409448818897638,
                    "duration": 0.07500000000000284
                },
                {
                    "name": "B2",
                    "midi": 47,
                    "time": 111.97500000000156,
                    "velocity": 0.3700787401574803,
                    "duration": 0.07500000000000284
                },
                {
                    "name": "A#2",
                    "midi": 46,
                    "time": 112.05000000000156,
                    "velocity": 0.3700787401574803,
                    "duration": 0.07500000000000284
                },
                {
                    "name": "B2",
                    "midi": 47,
                    "time": 112.12500000000156,
                    "velocity": 0.3700787401574803,
                    "duration": 0.07500000000000284
                },
                {
                    "name": "A#2",
                    "midi": 46,
                    "time": 112.20000000000157,
                    "velocity": 0.44881889763779526,
                    "duration": 0.30000000000001137
                },
                {
                    "name": "A#3",
                    "midi": 58,
                    "time": 112.20000000000157,
                    "velocity": 0.44881889763779526,
                    "duration": 0.07500000000000284
                },
                {
                    "name": "B3",
                    "midi": 59,
                    "time": 112.27500000000157,
                    "velocity": 0.3937007874015748,
                    "duration": 0.07500000000000284
                },
                {
                    "name": "A#3",
                    "midi": 58,
                    "time": 112.35000000000157,
                    "velocity": 0.3937007874015748,
                    "duration": 0.07500000000000284
                },
                {
                    "name": "B3",
                    "midi": 59,
                    "time": 112.42500000000157,
                    "velocity": 0.4015748031496063,
                    "duration": 0.07500000000000284
                },
                {
                    "name": "A#3",
                    "midi": 58,
                    "time": 112.50000000000158,
                    "velocity": 0.44881889763779526,
                    "duration": 0.30000000000001137
                },
                {
                    "name": "A#4",
                    "midi": 70,
                    "time": 112.50000000000158,
                    "velocity": 0.44881889763779526,
                    "duration": 0.07500000000000284
                },
                {
                    "name": "B4",
                    "midi": 71,
                    "time": 112.57500000000158,
                    "velocity": 0.4015748031496063,
                    "duration": 0.07500000000000284
                },
                {
                    "name": "A#4",
                    "midi": 70,
                    "time": 112.65000000000158,
                    "velocity": 0.3464566929133858,
                    "duration": 0.07500000000000284
                },
                {
                    "name": "B4",
                    "midi": 71,
                    "time": 112.72500000000159,
                    "velocity": 0.3464566929133858,
                    "duration": 0.07500000000000284
                },
                {
                    "name": "A#4",
                    "midi": 70,
                    "time": 112.80000000000159,
                    "velocity": 0.4566929133858268,
                    "duration": 0.07500000000000284
                },
                {
                    "name": "A#1",
                    "midi": 34,
                    "time": 113.10000000000159,
                    "velocity": 0.5196850393700787,
                    "duration": 0.30000000000001137
                },
                {
                    "name": "A#2",
                    "midi": 46,
                    "time": 113.10000000000159,
                    "velocity": 0.5196850393700787,
                    "duration": 0.07500000000000284
                },
                {
                    "name": "B2",
                    "midi": 47,
                    "time": 113.17500000000159,
                    "velocity": 0.4251968503937008,
                    "duration": 0.07500000000000284
                },
                {
                    "name": "A#2",
                    "midi": 46,
                    "time": 113.25000000000159,
                    "velocity": 0.4251968503937008,
                    "duration": 0.07500000000000284
                },
                {
                    "name": "B2",
                    "midi": 47,
                    "time": 113.3250000000016,
                    "velocity": 0.4251968503937008,
                    "duration": 0.07500000000000284
                },
                {
                    "name": "A#3",
                    "midi": 58,
                    "time": 113.4000000000016,
                    "velocity": 0.5275590551181102,
                    "duration": 0.07500000000000284
                },
                {
                    "name": "A#2",
                    "midi": 46,
                    "time": 113.4000000000016,
                    "velocity": 0.5275590551181102,
                    "duration": 0.30000000000001137
                },
                {
                    "name": "B3",
                    "midi": 59,
                    "time": 113.4750000000016,
                    "velocity": 0.4566929133858268,
                    "duration": 0.07500000000000284
                },
                {
                    "name": "A#3",
                    "midi": 58,
                    "time": 113.5500000000016,
                    "velocity": 0.4566929133858268,
                    "duration": 0.07500000000000284
                },
                {
                    "name": "B3",
                    "midi": 59,
                    "time": 113.6250000000016,
                    "velocity": 0.4645669291338583,
                    "duration": 0.07500000000000284
                },
                {
                    "name": "A#4",
                    "midi": 70,
                    "time": 113.70000000000161,
                    "velocity": 0.5275590551181102,
                    "duration": 0.07500000000000284
                },
                {
                    "name": "A#3",
                    "midi": 58,
                    "time": 113.70000000000161,
                    "velocity": 0.5275590551181102,
                    "duration": 0.30000000000001137
                },
                {
                    "name": "B4",
                    "midi": 71,
                    "time": 113.77500000000161,
                    "velocity": 0.4645669291338583,
                    "duration": 0.07500000000000284
                },
                {
                    "name": "A#4",
                    "midi": 70,
                    "time": 113.85000000000161,
                    "velocity": 0.4015748031496063,
                    "duration": 0.07500000000000284
                },
                {
                    "name": "B4",
                    "midi": 71,
                    "time": 113.92500000000162,
                    "velocity": 0.4015748031496063,
                    "duration": 0.07500000000000284
                },
                {
                    "name": "A#4",
                    "midi": 70,
                    "time": 114.00000000000162,
                    "velocity": 0.5354330708661418,
                    "duration": 0.07500000000000284
                },
                {
                    "name": "A#2",
                    "midi": 46,
                    "time": 114.30000000000162,
                    "velocity": 0.7322834645669292,
                    "duration": 0.07500000000000284
                },
                {
                    "name": "A#1",
                    "midi": 34,
                    "time": 114.30000000000162,
                    "velocity": 0.6062992125984252,
                    "duration": 0.07500000000000284
                },
                {
                    "name": "F#2",
                    "midi": 42,
                    "time": 114.45000000000162,
                    "velocity": 0.5511811023622047,
                    "duration": 0.07500000000000284
                },
                {
                    "name": "F#3",
                    "midi": 54,
                    "time": 114.45000000000162,
                    "velocity": 0.6456692913385826,
                    "duration": 0.07500000000000284
                },
                {
                    "name": "B1",
                    "midi": 35,
                    "time": 114.60000000000163,
                    "velocity": 0.6377952755905512,
                    "duration": 0.07500000000000284
                },
                {
                    "name": "B2",
                    "midi": 47,
                    "time": 114.60000000000163,
                    "velocity": 0.7637795275590551,
                    "duration": 0.07500000000000284
                },
                {
                    "name": "F#3",
                    "midi": 54,
                    "time": 114.75000000000163,
                    "velocity": 0.6535433070866141,
                    "duration": 0.07500000000000284
                },
                {
                    "name": "F#2",
                    "midi": 42,
                    "time": 114.75000000000163,
                    "velocity": 0.5511811023622047,
                    "duration": 0.07500000000000284
                },
                {
                    "name": "C#3",
                    "midi": 49,
                    "time": 114.90000000000164,
                    "velocity": 0.7559055118110236,
                    "duration": 0.07500000000000284
                },
                {
                    "name": "C#2",
                    "midi": 37,
                    "time": 114.90000000000164,
                    "velocity": 0.6377952755905512,
                    "duration": 0.07500000000000284
                },
                {
                    "name": "F#2",
                    "midi": 42,
                    "time": 115.05000000000165,
                    "velocity": 0.5905511811023622,
                    "duration": 0.07500000000000284
                },
                {
                    "name": "F#3",
                    "midi": 54,
                    "time": 115.05000000000165,
                    "velocity": 0.6850393700787402,
                    "duration": 0.07500000000000284
                },
                {
                    "name": "D#2",
                    "midi": 39,
                    "time": 115.20000000000165,
                    "velocity": 0.6377952755905512,
                    "duration": 0.07500000000000284
                },
                {
                    "name": "D#3",
                    "midi": 51,
                    "time": 115.20000000000165,
                    "velocity": 0.7559055118110236,
                    "duration": 0.07500000000000284
                },
                {
                    "name": "F#2",
                    "midi": 42,
                    "time": 115.35000000000166,
                    "velocity": 0.5984251968503937,
                    "duration": 0.07500000000000284
                },
                {
                    "name": "F#3",
                    "midi": 54,
                    "time": 115.35000000000166,
                    "velocity": 0.7086614173228346,
                    "duration": 0.07500000000000284
                },
                {
                    "name": "E3",
                    "midi": 52,
                    "time": 115.50000000000166,
                    "velocity": 0.7559055118110236,
                    "duration": 0.07500000000000284
                },
                {
                    "name": "E2",
                    "midi": 40,
                    "time": 115.50000000000166,
                    "velocity": 0.6377952755905512,
                    "duration": 0.07500000000000284
                },
                {
                    "name": "G3",
                    "midi": 55,
                    "time": 115.65000000000167,
                    "velocity": 0.7165354330708661,
                    "duration": 0.07500000000000284
                },
                {
                    "name": "A#2",
                    "midi": 46,
                    "time": 115.65000000000167,
                    "velocity": 0.6062992125984252,
                    "duration": 0.07500000000000284
                },
                {
                    "name": "A#3",
                    "midi": 58,
                    "time": 115.80000000000167,
                    "velocity": 0.7086614173228346,
                    "duration": 0.07500000000000284
                },
                {
                    "name": "C#3",
                    "midi": 49,
                    "time": 115.80000000000167,
                    "velocity": 0.5984251968503937,
                    "duration": 0.07500000000000284
                },
                {
                    "name": "C#4",
                    "midi": 61,
                    "time": 115.95000000000168,
                    "velocity": 0.7244094488188977,
                    "duration": 0.07500000000000284
                },
                {
                    "name": "E3",
                    "midi": 52,
                    "time": 115.95000000000168,
                    "velocity": 0.5984251968503937,
                    "duration": 0.07500000000000284
                },
                {
                    "name": "E4",
                    "midi": 64,
                    "time": 116.10000000000169,
                    "velocity": 0.7165354330708661,
                    "duration": 0.07500000000000284
                },
                {
                    "name": "G3",
                    "midi": 55,
                    "time": 116.10000000000169,
                    "velocity": 0.6062992125984252,
                    "duration": 0.07500000000000284
                },
                {
                    "name": "G4",
                    "midi": 67,
                    "time": 116.25000000000169,
                    "velocity": 0.7165354330708661,
                    "duration": 0.07500000000000284
                },
                {
                    "name": "A#3",
                    "midi": 58,
                    "time": 116.25000000000169,
                    "velocity": 0.6062992125984252,
                    "duration": 0.07500000000000284
                },
                {
                    "name": "C#4",
                    "midi": 61,
                    "time": 116.4000000000017,
                    "velocity": 0.5669291338582677,
                    "duration": 0.07500000000000284
                },
                {
                    "name": "A#4",
                    "midi": 70,
                    "time": 116.4000000000017,
                    "velocity": 0.6771653543307087,
                    "duration": 0.07500000000000284
                },
                {
                    "name": "E4",
                    "midi": 64,
                    "time": 116.5500000000017,
                    "velocity": 0.5275590551181102,
                    "duration": 0.07500000000000284
                },
                {
                    "name": "C#5",
                    "midi": 73,
                    "time": 116.5500000000017,
                    "velocity": 0.6299212598425197,
                    "duration": 0.07500000000000284
                },
                {
                    "name": "E5",
                    "midi": 76,
                    "time": 116.70000000000171,
                    "velocity": 0.5748031496062992,
                    "duration": 0.07500000000000284
                },
                {
                    "name": "E4",
                    "midi": 64,
                    "time": 116.85000000000171,
                    "velocity": 0.5354330708661418,
                    "duration": 0.07500000000000284
                },
                {
                    "name": "C#5",
                    "midi": 73,
                    "time": 117.00000000000172,
                    "velocity": 0.49606299212598426,
                    "duration": 0.07500000000000284
                },
                {
                    "name": "C#4",
                    "midi": 61,
                    "time": 117.15000000000173,
                    "velocity": 0.44881889763779526,
                    "duration": 0.07500000000000284
                },
                {
                    "name": "A#4",
                    "midi": 70,
                    "time": 117.30000000000173,
                    "velocity": 0.41732283464566927,
                    "duration": 0.07500000000000284
                },
                {
                    "name": "A#3",
                    "midi": 58,
                    "time": 117.45000000000174,
                    "velocity": 0.3543307086614173,
                    "duration": 0.07500000000000284
                },
                {
                    "name": "D4",
                    "midi": 62,
                    "time": 117.60000000000174,
                    "velocity": 0.2283464566929134,
                    "duration": 0.15000000000000568
                },
                {
                    "name": "F3",
                    "midi": 53,
                    "time": 117.90000000000175,
                    "velocity": 0.14173228346456693,
                    "duration": 0.5999999999999943
                },
                {
                    "name": "B3",
                    "midi": 59,
                    "time": 117.90000000000175,
                    "velocity": 0.1732283464566929,
                    "duration": 0.29999999999999716
                },
                {
                    "name": "C4",
                    "midi": 60,
                    "time": 118.20000000000175,
                    "velocity": 0.1732283464566929,
                    "duration": 0.29999999999999716
                },
                {
                    "name": "E2",
                    "midi": 40,
                    "time": 118.50000000000175,
                    "velocity": 0.25984251968503935,
                    "duration": 0.07500000000000284
                },
                {
                    "name": "F2",
                    "midi": 41,
                    "time": 118.57500000000175,
                    "velocity": 0.2283464566929134,
                    "duration": 0.07500000000000284
                },
                {
                    "name": "E2",
                    "midi": 40,
                    "time": 118.65000000000175,
                    "velocity": 0.2755905511811024,
                    "duration": 0.07500000000000284
                },
                {
                    "name": "F2",
                    "midi": 41,
                    "time": 118.72500000000176,
                    "velocity": 0.2283464566929134,
                    "duration": 0.15000000000000568
                },
                {
                    "name": "F3",
                    "midi": 53,
                    "time": 118.80000000000176,
                    "velocity": 0.2283464566929134,
                    "duration": 0.07500000000000284
                },
                {
                    "name": "B3",
                    "midi": 59,
                    "time": 119.10000000000176,
                    "velocity": 0.1732283464566929,
                    "duration": 0.29999999999999716
                },
                {
                    "name": "F3",
                    "midi": 53,
                    "time": 119.10000000000176,
                    "velocity": 0.14173228346456693,
                    "duration": 0.5999999999999943
                },
                {
                    "name": "C4",
                    "midi": 60,
                    "time": 119.40000000000175,
                    "velocity": 0.1732283464566929,
                    "duration": 0.29999999999999716
                },
                {
                    "name": "E2",
                    "midi": 40,
                    "time": 119.70000000000175,
                    "velocity": 0.25984251968503935,
                    "duration": 0.07500000000000284
                },
                {
                    "name": "F2",
                    "midi": 41,
                    "time": 119.77500000000175,
                    "velocity": 0.2283464566929134,
                    "duration": 0.07500000000000284
                },
                {
                    "name": "E2",
                    "midi": 40,
                    "time": 119.85000000000176,
                    "velocity": 0.2755905511811024,
                    "duration": 0.07500000000000284
                },
                {
                    "name": "F2",
                    "midi": 41,
                    "time": 119.92500000000176,
                    "velocity": 0.2283464566929134,
                    "duration": 0.15000000000000568
                },
                {
                    "name": "F3",
                    "midi": 53,
                    "time": 120.00000000000176,
                    "velocity": 0.2283464566929134,
                    "duration": 0.07500000000000284
                },
                {
                    "name": "F2",
                    "midi": 41,
                    "time": 120.30000000000176,
                    "velocity": 0.14173228346456693,
                    "duration": 0.5999999999999943
                },
                {
                    "name": "B2",
                    "midi": 47,
                    "time": 120.30000000000176,
                    "velocity": 0.1732283464566929,
                    "duration": 0.29999999999999716
                },
                {
                    "name": "D3",
                    "midi": 50,
                    "time": 120.30375000000176,
                    "velocity": 0.1732283464566929,
                    "duration": 0.29999999999999716
                },
                {
                    "name": "C3",
                    "midi": 48,
                    "time": 120.60000000000176,
                    "velocity": 0.1732283464566929,
                    "duration": 0.29999999999999716
                },
                {
                    "name": "D#3",
                    "midi": 51,
                    "time": 120.60375000000175,
                    "velocity": 0.1732283464566929,
                    "duration": 0.29999999999999716
                },
                {
                    "name": "F#2",
                    "midi": 42,
                    "time": 120.90000000000175,
                    "velocity": 0.25984251968503935,
                    "duration": 0.07500000000000284
                },
                {
                    "name": "F2",
                    "midi": 41,
                    "time": 120.97500000000176,
                    "velocity": 0.2283464566929134,
                    "duration": 0.07500000000000284
                },
                {
                    "name": "F#2",
                    "midi": 42,
                    "time": 121.05000000000176,
                    "velocity": 0.2755905511811024,
                    "duration": 0.07500000000000284
                },
                {
                    "name": "F2",
                    "midi": 41,
                    "time": 121.12500000000176,
                    "velocity": 0.2283464566929134,
                    "duration": 0.07500000000000284
                },
                {
                    "name": "A#3",
                    "midi": 58,
                    "time": 121.20000000000176,
                    "velocity": 0.2992125984251969,
                    "duration": 0.15000000000000568
                },
                {
                    "name": "A#1",
                    "midi": 34,
                    "time": 121.20000000000176,
                    "velocity": 0.2992125984251969,
                    "duration": 0.15000000000000568
                },
                {
                    "name": "D3",
                    "midi": 50,
                    "time": 121.20000000000176,
                    "velocity": 0.23622047244094488,
                    "duration": 0.15000000000000568
                },
                {
                    "name": "A#3",
                    "midi": 58,
                    "time": 121.35000000000177,
                    "velocity": 0.2047244094488189,
                    "duration": 0.07500000000000284
                },
                {
                    "name": "D3",
                    "midi": 50,
                    "time": 121.35000000000177,
                    "velocity": 0.15748031496062992,
                    "duration": 0.07500000000000284
                },
                {
                    "name": "F3",
                    "midi": 53,
                    "time": 121.35000000000177,
                    "velocity": 0.15748031496062992,
                    "duration": 0.07500000000000284
                },
                {
                    "name": "A#3",
                    "midi": 58,
                    "time": 121.50000000000178,
                    "velocity": 0.1732283464566929,
                    "duration": 0.07500000000000284
                },
                {
                    "name": "F3",
                    "midi": 53,
                    "time": 121.50000000000178,
                    "velocity": 0.13385826771653545,
                    "duration": 0.07500000000000284
                },
                {
                    "name": "D3",
                    "midi": 50,
                    "time": 121.50000000000178,
                    "velocity": 0.13385826771653545,
                    "duration": 0.07500000000000284
                },
                {
                    "name": "F3",
                    "midi": 53,
                    "time": 121.65000000000178,
                    "velocity": 0.13385826771653545,
                    "duration": 0.07500000000000284
                },
                {
                    "name": "D3",
                    "midi": 50,
                    "time": 121.65000000000178,
                    "velocity": 0.13385826771653545,
                    "duration": 0.07500000000000284
                },
                {
                    "name": "A#3",
                    "midi": 58,
                    "time": 121.65000000000178,
                    "velocity": 0.1732283464566929,
                    "duration": 0.07500000000000284
                },
                {
                    "name": "D3",
                    "midi": 50,
                    "time": 121.80000000000179,
                    "velocity": 0.15748031496062992,
                    "duration": 0.07500000000000284
                },
                {
                    "name": "A#3",
                    "midi": 58,
                    "time": 121.80000000000179,
                    "velocity": 0.1968503937007874,
                    "duration": 0.07500000000000284
                },
                {
                    "name": "F3",
                    "midi": 53,
                    "time": 121.80000000000179,
                    "velocity": 0.15748031496062992,
                    "duration": 0.07500000000000284
                },
                {
                    "name": "D3",
                    "midi": 50,
                    "time": 121.9500000000018,
                    "velocity": 0.13385826771653545,
                    "duration": 0.07500000000000284
                },
                {
                    "name": "F3",
                    "midi": 53,
                    "time": 121.9500000000018,
                    "velocity": 0.13385826771653545,
                    "duration": 0.07500000000000284
                },
                {
                    "name": "A#3",
                    "midi": 58,
                    "time": 121.9500000000018,
                    "velocity": 0.1732283464566929,
                    "duration": 0.07500000000000284
                },
                {
                    "name": "F3",
                    "midi": 53,
                    "time": 122.1000000000018,
                    "velocity": 0.13385826771653545,
                    "duration": 0.07500000000000284
                },
                {
                    "name": "D3",
                    "midi": 50,
                    "time": 122.1000000000018,
                    "velocity": 0.13385826771653545,
                    "duration": 0.07500000000000284
                },
                {
                    "name": "A#3",
                    "midi": 58,
                    "time": 122.1000000000018,
                    "velocity": 0.1732283464566929,
                    "duration": 0.07500000000000284
                },
                {
                    "name": "G#1",
                    "midi": 32,
                    "time": 122.4000000000018,
                    "velocity": 0.3464566929133858,
                    "duration": 0.15000000000000568
                },
                {
                    "name": "F3",
                    "midi": 53,
                    "time": 122.5500000000018,
                    "velocity": 0.15748031496062992,
                    "duration": 0.07500000000000284
                },
                {
                    "name": "A#3",
                    "midi": 58,
                    "time": 122.5500000000018,
                    "velocity": 0.15748031496062992,
                    "duration": 0.07500000000000284
                },
                {
                    "name": "D4",
                    "midi": 62,
                    "time": 122.5500000000018,
                    "velocity": 0.2047244094488189,
                    "duration": 0.07500000000000284
                },
                {
                    "name": "F3",
                    "midi": 53,
                    "time": 122.70000000000181,
                    "velocity": 0.13385826771653545,
                    "duration": 0.07500000000000284
                },
                {
                    "name": "A#3",
                    "midi": 58,
                    "time": 122.70000000000181,
                    "velocity": 0.13385826771653545,
                    "duration": 0.07500000000000284
                },
                {
                    "name": "D4",
                    "midi": 62,
                    "time": 122.70000000000181,
                    "velocity": 0.1732283464566929,
                    "duration": 0.07500000000000284
                },
                {
                    "name": "A#3",
                    "midi": 58,
                    "time": 122.85000000000181,
                    "velocity": 0.13385826771653545,
                    "duration": 0.07500000000000284
                },
                {
                    "name": "D4",
                    "midi": 62,
                    "time": 122.85000000000181,
                    "velocity": 0.1732283464566929,
                    "duration": 0.07500000000000284
                },
                {
                    "name": "F3",
                    "midi": 53,
                    "time": 122.85000000000181,
                    "velocity": 0.13385826771653545,
                    "duration": 0.07500000000000284
                },
                {
                    "name": "F3",
                    "midi": 53,
                    "time": 123.00000000000182,
                    "velocity": 0.15748031496062992,
                    "duration": 0.07500000000000284
                },
                {
                    "name": "D4",
                    "midi": 62,
                    "time": 123.00000000000182,
                    "velocity": 0.1968503937007874,
                    "duration": 0.07500000000000284
                },
                {
                    "name": "A#3",
                    "midi": 58,
                    "time": 123.00000000000182,
                    "velocity": 0.15748031496062992,
                    "duration": 0.07500000000000284
                },
                {
                    "name": "F3",
                    "midi": 53,
                    "time": 123.15000000000182,
                    "velocity": 0.13385826771653545,
                    "duration": 0.07500000000000284
                },
                {
                    "name": "D4",
                    "midi": 62,
                    "time": 123.15000000000182,
                    "velocity": 0.1732283464566929,
                    "duration": 0.07500000000000284
                },
                {
                    "name": "A#3",
                    "midi": 58,
                    "time": 123.15000000000182,
                    "velocity": 0.13385826771653545,
                    "duration": 0.07500000000000284
                },
                {
                    "name": "F3",
                    "midi": 53,
                    "time": 123.30000000000183,
                    "velocity": 0.13385826771653545,
                    "duration": 0.07500000000000284
                },
                {
                    "name": "A#3",
                    "midi": 58,
                    "time": 123.30000000000183,
                    "velocity": 0.13385826771653545,
                    "duration": 0.07500000000000284
                },
                {
                    "name": "D4",
                    "midi": 62,
                    "time": 123.30000000000183,
                    "velocity": 0.1732283464566929,
                    "duration": 0.07500000000000284
                },
                {
                    "name": "F#1",
                    "midi": 30,
                    "time": 123.60000000000183,
                    "velocity": 0.3543307086614173,
                    "duration": 0.15000000000000568
                },
                {
                    "name": "E4",
                    "midi": 64,
                    "time": 123.75000000000183,
                    "velocity": 0.2047244094488189,
                    "duration": 0.07500000000000284
                },
                {
                    "name": "C#4",
                    "midi": 61,
                    "time": 123.75000000000183,
                    "velocity": 0.15748031496062992,
                    "duration": 0.07500000000000284
                },
                {
                    "name": "F#3",
                    "midi": 54,
                    "time": 123.75000000000183,
                    "velocity": 0.15748031496062992,
                    "duration": 0.07500000000000284
                },
                {
                    "name": "C#4",
                    "midi": 61,
                    "time": 123.90000000000184,
                    "velocity": 0.13385826771653545,
                    "duration": 0.07500000000000284
                },
                {
                    "name": "E4",
                    "midi": 64,
                    "time": 123.90000000000184,
                    "velocity": 0.1732283464566929,
                    "duration": 0.07500000000000284
                },
                {
                    "name": "F#3",
                    "midi": 54,
                    "time": 123.90000000000184,
                    "velocity": 0.13385826771653545,
                    "duration": 0.07500000000000284
                },
                {
                    "name": "E4",
                    "midi": 64,
                    "time": 124.05000000000184,
                    "velocity": 0.1732283464566929,
                    "duration": 0.07500000000000284
                },
                {
                    "name": "C#4",
                    "midi": 61,
                    "time": 124.05000000000184,
                    "velocity": 0.13385826771653545,
                    "duration": 0.07500000000000284
                },
                {
                    "name": "F#3",
                    "midi": 54,
                    "time": 124.05000000000184,
                    "velocity": 0.13385826771653545,
                    "duration": 0.07500000000000284
                },
                {
                    "name": "E4",
                    "midi": 64,
                    "time": 124.20000000000185,
                    "velocity": 0.1968503937007874,
                    "duration": 0.07500000000000284
                },
                {
                    "name": "C#4",
                    "midi": 61,
                    "time": 124.20000000000185,
                    "velocity": 0.15748031496062992,
                    "duration": 0.07500000000000284
                },
                {
                    "name": "F#3",
                    "midi": 54,
                    "time": 124.20000000000185,
                    "velocity": 0.15748031496062992,
                    "duration": 0.07500000000000284
                },
                {
                    "name": "F#3",
                    "midi": 54,
                    "time": 124.35000000000186,
                    "velocity": 0.13385826771653545,
                    "duration": 0.07500000000000284
                },
                {
                    "name": "E4",
                    "midi": 64,
                    "time": 124.35000000000186,
                    "velocity": 0.1732283464566929,
                    "duration": 0.07500000000000284
                },
                {
                    "name": "C#4",
                    "midi": 61,
                    "time": 124.35000000000186,
                    "velocity": 0.13385826771653545,
                    "duration": 0.07500000000000284
                },
                {
                    "name": "E4",
                    "midi": 64,
                    "time": 124.50000000000186,
                    "velocity": 0.1732283464566929,
                    "duration": 0.07500000000000284
                },
                {
                    "name": "C#4",
                    "midi": 61,
                    "time": 124.50000000000186,
                    "velocity": 0.13385826771653545,
                    "duration": 0.07500000000000284
                },
                {
                    "name": "F#3",
                    "midi": 54,
                    "time": 124.50000000000186,
                    "velocity": 0.13385826771653545,
                    "duration": 0.07500000000000284
                },
                {
                    "name": "F1",
                    "midi": 29,
                    "time": 124.80000000000186,
                    "velocity": 0.33070866141732286,
                    "duration": 0.15000000000000568
                },
                {
                    "name": "A3",
                    "midi": 57,
                    "time": 124.95000000000186,
                    "velocity": 0.15748031496062992,
                    "duration": 0.07500000000000284
                },
                {
                    "name": "F#4",
                    "midi": 66,
                    "time": 124.95000000000186,
                    "velocity": 0.2047244094488189,
                    "duration": 0.07500000000000284
                },
                {
                    "name": "D#4",
                    "midi": 63,
                    "time": 124.95000000000186,
                    "velocity": 0.15748031496062992,
                    "duration": 0.07500000000000284
                },
                {
                    "name": "D#4",
                    "midi": 63,
                    "time": 125.10000000000187,
                    "velocity": 0.13385826771653545,
                    "duration": 0.07500000000000284
                },
                {
                    "name": "F4",
                    "midi": 65,
                    "time": 125.10000000000187,
                    "velocity": 0.1732283464566929,
                    "duration": 0.07500000000000284
                },
                {
                    "name": "A3",
                    "midi": 57,
                    "time": 125.10000000000187,
                    "velocity": 0.13385826771653545,
                    "duration": 0.07500000000000284
                },
                {
                    "name": "A3",
                    "midi": 57,
                    "time": 125.25000000000188,
                    "velocity": 0.13385826771653545,
                    "duration": 0.07500000000000284
                },
                {
                    "name": "D#4",
                    "midi": 63,
                    "time": 125.25000000000188,
                    "velocity": 0.13385826771653545,
                    "duration": 0.07500000000000284
                },
                {
                    "name": "F4",
                    "midi": 65,
                    "time": 125.25000000000188,
                    "velocity": 0.1732283464566929,
                    "duration": 0.07500000000000284
                },
                {
                    "name": "F4",
                    "midi": 65,
                    "time": 125.40000000000188,
                    "velocity": 0.1968503937007874,
                    "duration": 0.07500000000000284
                },
                {
                    "name": "D#4",
                    "midi": 63,
                    "time": 125.40000000000188,
                    "velocity": 0.15748031496062992,
                    "duration": 0.07500000000000284
                },
                {
                    "name": "A3",
                    "midi": 57,
                    "time": 125.40000000000188,
                    "velocity": 0.15748031496062992,
                    "duration": 0.07500000000000284
                },
                {
                    "name": "C4",
                    "midi": 60,
                    "time": 125.55000000000189,
                    "velocity": 0.15748031496062992,
                    "duration": 0.07500000000000284
                },
                {
                    "name": "D#4",
                    "midi": 63,
                    "time": 125.55000000000189,
                    "velocity": 0.13385826771653545,
                    "duration": 0.07500000000000284
                },
                {
                    "name": "F4",
                    "midi": 65,
                    "time": 125.55000000000189,
                    "velocity": 0.1732283464566929,
                    "duration": 0.07500000000000284
                },
                {
                    "name": "D#4",
                    "midi": 63,
                    "time": 125.70000000000189,
                    "velocity": 0.13385826771653545,
                    "duration": 0.07500000000000284
                },
                {
                    "name": "F4",
                    "midi": 65,
                    "time": 125.70000000000189,
                    "velocity": 0.1732283464566929,
                    "duration": 0.07500000000000284
                },
                {
                    "name": "A#1",
                    "midi": 34,
                    "time": 126.00000000000189,
                    "velocity": 0.36220472440944884,
                    "duration": 0.15000000000000568
                },
                {
                    "name": "A#3",
                    "midi": 58,
                    "time": 126.1500000000019,
                    "velocity": 0.15748031496062992,
                    "duration": 0.07500000000000284
                },
                {
                    "name": "F4",
                    "midi": 65,
                    "time": 126.1500000000019,
                    "velocity": 0.2047244094488189,
                    "duration": 0.07500000000000284
                },
                {
                    "name": "F4",
                    "midi": 65,
                    "time": 126.3000000000019,
                    "velocity": 0.1732283464566929,
                    "duration": 0.07500000000000284
                },
                {
                    "name": "F3",
                    "midi": 53,
                    "time": 126.3000000000019,
                    "velocity": 0.13385826771653545,
                    "duration": 0.07500000000000284
                },
                {
                    "name": "A#3",
                    "midi": 58,
                    "time": 126.4500000000019,
                    "velocity": 0.13385826771653545,
                    "duration": 0.07500000000000284
                },
                {
                    "name": "F4",
                    "midi": 65,
                    "time": 126.4500000000019,
                    "velocity": 0.1732283464566929,
                    "duration": 0.07500000000000284
                },
                {
                    "name": "F4",
                    "midi": 65,
                    "time": 126.60000000000191,
                    "velocity": 0.1968503937007874,
                    "duration": 0.07500000000000284
                },
                {
                    "name": "F3",
                    "midi": 53,
                    "time": 126.60000000000191,
                    "velocity": 0.15748031496062992,
                    "duration": 0.07500000000000284
                },
                {
                    "name": "A#3",
                    "midi": 58,
                    "time": 126.75000000000192,
                    "velocity": 0.13385826771653545,
                    "duration": 0.07500000000000284
                },
                {
                    "name": "F4",
                    "midi": 65,
                    "time": 126.75000000000192,
                    "velocity": 0.1732283464566929,
                    "duration": 0.07500000000000284
                },
                {
                    "name": "F4",
                    "midi": 65,
                    "time": 126.90000000000192,
                    "velocity": 0.1732283464566929,
                    "duration": 0.15000000000000568
                },
                {
                    "name": "F3",
                    "midi": 53,
                    "time": 126.90000000000192,
                    "velocity": 0.15748031496062992,
                    "duration": 0.15000000000000568
                },
                {
                    "name": "G#1",
                    "midi": 32,
                    "time": 127.20000000000194,
                    "velocity": 0.36220472440944884,
                    "duration": 0.15000000000000568
                },
                {
                    "name": "D4",
                    "midi": 62,
                    "time": 127.35000000000194,
                    "velocity": 0.15748031496062992,
                    "duration": 0.07500000000000284
                },
                {
                    "name": "A#4",
                    "midi": 70,
                    "time": 127.35000000000194,
                    "velocity": 0.2047244094488189,
                    "duration": 0.07500000000000284
                },
                {
                    "name": "A#4",
                    "midi": 70,
                    "time": 127.50000000000195,
                    "velocity": 0.1732283464566929,
                    "duration": 0.07500000000000284
                },
                {
                    "name": "G#3",
                    "midi": 56,
                    "time": 127.50000000000195,
                    "velocity": 0.13385826771653545,
                    "duration": 0.07500000000000284
                },
                {
                    "name": "D4",
                    "midi": 62,
                    "time": 127.65000000000195,
                    "velocity": 0.13385826771653545,
                    "duration": 0.07500000000000284
                },
                {
                    "name": "A#4",
                    "midi": 70,
                    "time": 127.65000000000195,
                    "velocity": 0.1732283464566929,
                    "duration": 0.07500000000000284
                },
                {
                    "name": "G#3",
                    "midi": 56,
                    "time": 127.80000000000196,
                    "velocity": 0.15748031496062992,
                    "duration": 0.07500000000000284
                },
                {
                    "name": "A#4",
                    "midi": 70,
                    "time": 127.80000000000196,
                    "velocity": 0.1968503937007874,
                    "duration": 0.07500000000000284
                },
                {
                    "name": "D4",
                    "midi": 62,
                    "time": 127.95000000000196,
                    "velocity": 0.13385826771653545,
                    "duration": 0.07500000000000284
                },
                {
                    "name": "A#4",
                    "midi": 70,
                    "time": 127.95000000000196,
                    "velocity": 0.1732283464566929,
                    "duration": 0.07500000000000284
                },
                {
                    "name": "G#3",
                    "midi": 56,
                    "time": 128.10000000000196,
                    "velocity": 0.15748031496062992,
                    "duration": 0.15000000000000568
                },
                {
                    "name": "A#4",
                    "midi": 70,
                    "time": 128.10000000000196,
                    "velocity": 0.1732283464566929,
                    "duration": 0.15000000000000568
                },
                {
                    "name": "F#2",
                    "midi": 42,
                    "time": 128.40000000000197,
                    "velocity": 0.36220472440944884,
                    "duration": 0.15000000000000568
                },
                {
                    "name": "F#1",
                    "midi": 30,
                    "time": 128.40000000000197,
                    "velocity": 0.36220472440944884,
                    "duration": 0.15000000000000568
                },
                {
                    "name": "F#3",
                    "midi": 54,
                    "time": 128.55000000000197,
                    "velocity": 0.13385826771653545,
                    "duration": 0.07499999999998863
                },
                {
                    "name": "C#4",
                    "midi": 61,
                    "time": 128.55000000000197,
                    "velocity": 0.13385826771653545,
                    "duration": 0.07499999999998863
                },
                {
                    "name": "E4",
                    "midi": 64,
                    "time": 128.55000000000197,
                    "velocity": 0.1732283464566929,
                    "duration": 0.07499999999998863
                },
                {
                    "name": "E4",
                    "midi": 64,
                    "time": 128.70000000000195,
                    "velocity": 0.18110236220472442,
                    "duration": 0.15000000000000568
                },
                {
                    "name": "C#4",
                    "midi": 61,
                    "time": 128.70000000000195,
                    "velocity": 0.16535433070866143,
                    "duration": 0.15000000000000568
                },
                {
                    "name": "A#3",
                    "midi": 58,
                    "time": 128.70000000000195,
                    "velocity": 0.16535433070866143,
                    "duration": 0.15000000000000568
                },
                {
                    "name": "B1",
                    "midi": 35,
                    "time": 129.00000000000196,
                    "velocity": 0.4094488188976378,
                    "duration": 0.15000000000000568
                },
                {
                    "name": "B2",
                    "midi": 47,
                    "time": 129.00000000000196,
                    "velocity": 0.4094488188976378,
                    "duration": 0.15000000000000568
                },
                {
                    "name": "B3",
                    "midi": 59,
                    "time": 129.15000000000197,
                    "velocity": 0.15748031496062992,
                    "duration": 0.07499999999998863
                },
                {
                    "name": "F#4",
                    "midi": 66,
                    "time": 129.15000000000197,
                    "velocity": 0.15748031496062992,
                    "duration": 0.07499999999998863
                },
                {
                    "name": "A4",
                    "midi": 69,
                    "time": 129.15000000000197,
                    "velocity": 0.2047244094488189,
                    "duration": 0.07499999999998863
                },
                {
                    "name": "D#4",
                    "midi": 63,
                    "time": 129.30000000000194,
                    "velocity": 0.1889763779527559,
                    "duration": 0.15000000000000568
                },
                {
                    "name": "A4",
                    "midi": 69,
                    "time": 129.30000000000194,
                    "velocity": 0.2047244094488189,
                    "duration": 0.15000000000000568
                },
                {
                    "name": "F#4",
                    "midi": 66,
                    "time": 129.30000000000194,
                    "velocity": 0.1889763779527559,
                    "duration": 0.15000000000000568
                },
                {
                    "name": "F1",
                    "midi": 29,
                    "time": 129.60000000000196,
                    "velocity": 0.4645669291338583,
                    "duration": 0.15000000000000568
                },
                {
                    "name": "F2",
                    "midi": 41,
                    "time": 129.60000000000196,
                    "velocity": 0.4645669291338583,
                    "duration": 0.15000000000000568
                },
                {
                    "name": "F3",
                    "midi": 53,
                    "time": 129.75000000000196,
                    "velocity": 0.36220472440944884,
                    "duration": 0.07499999999998863
                },
                {
                    "name": "E3",
                    "midi": 52,
                    "time": 129.82500000000195,
                    "velocity": 0.30708661417322836,
                    "duration": 0.07499999999998863
                },
                {
                    "name": "F#3",
                    "midi": 54,
                    "time": 129.90000000000194,
                    "velocity": 0.36220472440944884,
                    "duration": 0.07499999999998863
                },
                {
                    "name": "F3",
                    "midi": 53,
                    "time": 129.97500000000193,
                    "velocity": 0.30708661417322836,
                    "duration": 0.07499999999998863
                },
                {
                    "name": "G3",
                    "midi": 55,
                    "time": 130.05000000000192,
                    "velocity": 0.36220472440944884,
                    "duration": 0.07499999999998863
                },
                {
                    "name": "F#3",
                    "midi": 54,
                    "time": 130.1250000000019,
                    "velocity": 0.30708661417322836,
                    "duration": 0.07499999999998863
                },
                {
                    "name": "G#3",
                    "midi": 56,
                    "time": 130.2000000000019,
                    "velocity": 0.36220472440944884,
                    "duration": 0.07499999999998863
                },
                {
                    "name": "G3",
                    "midi": 55,
                    "time": 130.27500000000188,
                    "velocity": 0.31496062992125984,
                    "duration": 0.07499999999998863
                },
                {
                    "name": "A3",
                    "midi": 57,
                    "time": 130.35000000000187,
                    "velocity": 0.36220472440944884,
                    "duration": 0.07499999999998863
                },
                {
                    "name": "G#3",
                    "midi": 56,
                    "time": 130.42500000000186,
                    "velocity": 0.31496062992125984,
                    "duration": 0.07499999999998863
                },
                {
                    "name": "A#3",
                    "midi": 58,
                    "time": 130.50000000000185,
                    "velocity": 0.36220472440944884,
                    "duration": 0.07499999999998863
                },
                {
                    "name": "A3",
                    "midi": 57,
                    "time": 130.57500000000184,
                    "velocity": 0.31496062992125984,
                    "duration": 0.07499999999998863
                },
                {
                    "name": "B3",
                    "midi": 59,
                    "time": 130.65000000000182,
                    "velocity": 0.36220472440944884,
                    "duration": 0.07499999999998863
                },
                {
                    "name": "A#3",
                    "midi": 58,
                    "time": 130.7250000000018,
                    "velocity": 0.31496062992125984,
                    "duration": 0.07499999999998863
                },
                {
                    "name": "C4",
                    "midi": 60,
                    "time": 130.8000000000018,
                    "velocity": 0.36220472440944884,
                    "duration": 0.07499999999998863
                },
                {
                    "name": "B3",
                    "midi": 59,
                    "time": 130.8750000000018,
                    "velocity": 0.36220472440944884,
                    "duration": 0.07499999999998863
                },
                {
                    "name": "C#4",
                    "midi": 61,
                    "time": 130.95000000000178,
                    "velocity": 0.36220472440944884,
                    "duration": 0.07499999999998863
                },
                {
                    "name": "C4",
                    "midi": 60,
                    "time": 131.02500000000177,
                    "velocity": 0.33070866141732286,
                    "duration": 0.07499999999998863
                },
                {
                    "name": "D4",
                    "midi": 62,
                    "time": 131.10000000000176,
                    "velocity": 0.3779527559055118,
                    "duration": 0.07499999999998863
                },
                {
                    "name": "C#4",
                    "midi": 61,
                    "time": 131.17500000000175,
                    "velocity": 0.33070866141732286,
                    "duration": 0.07499999999998863
                },
                {
                    "name": "D#4",
                    "midi": 63,
                    "time": 131.25000000000173,
                    "velocity": 0.3858267716535433,
                    "duration": 0.07499999999998863
                },
                {
                    "name": "D4",
                    "midi": 62,
                    "time": 131.32500000000172,
                    "velocity": 0.36220472440944884,
                    "duration": 0.07499999999998863
                },
                {
                    "name": "E4",
                    "midi": 64,
                    "time": 131.4000000000017,
                    "velocity": 0.3937007874015748,
                    "duration": 0.07499999999998863
                },
                {
                    "name": "D#4",
                    "midi": 63,
                    "time": 131.4750000000017,
                    "velocity": 0.36220472440944884,
                    "duration": 0.07499999999998863
                },
                {
                    "name": "F4",
                    "midi": 65,
                    "time": 131.5500000000017,
                    "velocity": 0.4251968503937008,
                    "duration": 0.07499999999998863
                },
                {
                    "name": "E4",
                    "midi": 64,
                    "time": 131.62500000000168,
                    "velocity": 0.3779527559055118,
                    "duration": 0.07499999999998863
                },
                {
                    "name": "F#4",
                    "midi": 66,
                    "time": 131.70000000000167,
                    "velocity": 0.44881889763779526,
                    "duration": 0.07499999999998863
                },
                {
                    "name": "F4",
                    "midi": 65,
                    "time": 131.77500000000165,
                    "velocity": 0.41732283464566927,
                    "duration": 0.07499999999998863
                },
                {
                    "name": "G4",
                    "midi": 67,
                    "time": 131.85000000000164,
                    "velocity": 0.4566929133858268,
                    "duration": 0.07499999999998863
                },
                {
                    "name": "F#4",
                    "midi": 66,
                    "time": 131.92500000000163,
                    "velocity": 0.4330708661417323,
                    "duration": 0.07499999999998863
                },
                {
                    "name": "G#4",
                    "midi": 68,
                    "time": 132.00000000000162,
                    "velocity": 0.4881889763779528,
                    "duration": 0.07499999999998863
                },
                {
                    "name": "G4",
                    "midi": 67,
                    "time": 132.0750000000016,
                    "velocity": 0.41732283464566927,
                    "duration": 0.07499999999998863
                },
                {
                    "name": "A4",
                    "midi": 69,
                    "time": 132.1500000000016,
                    "velocity": 0.4566929133858268,
                    "duration": 0.07499999999998863
                },
                {
                    "name": "G#4",
                    "midi": 68,
                    "time": 132.2250000000016,
                    "velocity": 0.3937007874015748,
                    "duration": 0.07499999999998863
                },
                {
                    "name": "A#4",
                    "midi": 70,
                    "time": 132.30000000000157,
                    "velocity": 0.4251968503937008,
                    "duration": 0.07499999999998863
                },
                {
                    "name": "A4",
                    "midi": 69,
                    "time": 132.37500000000156,
                    "velocity": 0.3779527559055118,
                    "duration": 0.07499999999998863
                },
                {
                    "name": "C5",
                    "midi": 72,
                    "time": 132.45000000000155,
                    "velocity": 0.3937007874015748,
                    "duration": 0.07499999999998863
                },
                {
                    "name": "A4",
                    "midi": 69,
                    "time": 132.52500000000154,
                    "velocity": 0.33070866141732286,
                    "duration": 0.07499999999998863
                },
                {
                    "name": "G#4",
                    "midi": 68,
                    "time": 132.60000000000153,
                    "velocity": 0.2992125984251969,
                    "duration": 0.07499999999998863
                },
                {
                    "name": "B4",
                    "midi": 71,
                    "time": 132.67500000000152,
                    "velocity": 0.2755905511811024,
                    "duration": 0.07499999999998863
                },
                {
                    "name": "A4",
                    "midi": 69,
                    "time": 132.7500000000015,
                    "velocity": 0.2992125984251969,
                    "duration": 0.07499999999998863
                },
                {
                    "name": "C5",
                    "midi": 72,
                    "time": 132.8250000000015,
                    "velocity": 0.25984251968503935,
                    "duration": 0.07499999999998863
                },
                {
                    "name": "G#4",
                    "midi": 68,
                    "time": 132.90000000000148,
                    "velocity": 0.2992125984251969,
                    "duration": 0.07499999999998863
                },
                {
                    "name": "B4",
                    "midi": 71,
                    "time": 132.97500000000147,
                    "velocity": 0.2755905511811024,
                    "duration": 0.07499999999998863
                },
                {
                    "name": "A4",
                    "midi": 69,
                    "time": 133.05000000000146,
                    "velocity": 0.2992125984251969,
                    "duration": 0.07499999999998863
                },
                {
                    "name": "C5",
                    "midi": 72,
                    "time": 133.12500000000145,
                    "velocity": 0.2755905511811024,
                    "duration": 0.07499999999998863
                },
                {
                    "name": "G#4",
                    "midi": 68,
                    "time": 133.20000000000144,
                    "velocity": 0.2992125984251969,
                    "duration": 0.07499999999998863
                },
                {
                    "name": "B4",
                    "midi": 71,
                    "time": 133.27500000000143,
                    "velocity": 0.2755905511811024,
                    "duration": 0.07499999999998863
                },
                {
                    "name": "A4",
                    "midi": 69,
                    "time": 133.35000000000142,
                    "velocity": 0.29133858267716534,
                    "duration": 0.07499999999998863
                },
                {
                    "name": "C5",
                    "midi": 72,
                    "time": 133.4250000000014,
                    "velocity": 0.25196850393700787,
                    "duration": 0.07499999999998863
                },
                {
                    "name": "G#4",
                    "midi": 68,
                    "time": 133.5000000000014,
                    "velocity": 0.28346456692913385,
                    "duration": 0.07499999999998863
                },
                {
                    "name": "B4",
                    "midi": 71,
                    "time": 133.57500000000138,
                    "velocity": 0.2440944881889764,
                    "duration": 0.07499999999998863
                },
                {
                    "name": "A4",
                    "midi": 69,
                    "time": 133.65000000000137,
                    "velocity": 0.28346456692913385,
                    "duration": 0.07499999999998863
                },
                {
                    "name": "C5",
                    "midi": 72,
                    "time": 133.72500000000136,
                    "velocity": 0.23622047244094488,
                    "duration": 0.07499999999998863
                },
                {
                    "name": "G#4",
                    "midi": 68,
                    "time": 133.80000000000135,
                    "velocity": 0.2755905511811024,
                    "duration": 0.07499999999998863
                },
                {
                    "name": "B4",
                    "midi": 71,
                    "time": 133.87500000000134,
                    "velocity": 0.2283464566929134,
                    "duration": 0.07499999999998863
                },
                {
                    "name": "A4",
                    "midi": 69,
                    "time": 133.95000000000132,
                    "velocity": 0.25984251968503935,
                    "duration": 0.07499999999998863
                },
                {
                    "name": "C5",
                    "midi": 72,
                    "time": 134.0250000000013,
                    "velocity": 0.2204724409448819,
                    "duration": 0.07499999999998863
                },
                {
                    "name": "G#4",
                    "midi": 68,
                    "time": 134.1000000000013,
                    "velocity": 0.25196850393700787,
                    "duration": 0.07499999999998863
                },
                {
                    "name": "B4",
                    "midi": 71,
                    "time": 134.1750000000013,
                    "velocity": 0.2125984251968504,
                    "duration": 0.07499999999998863
                },
                {
                    "name": "A4",
                    "midi": 69,
                    "time": 134.25000000000128,
                    "velocity": 0.2440944881889764,
                    "duration": 0.07499999999998863
                },
                {
                    "name": "C5",
                    "midi": 72,
                    "time": 134.32500000000127,
                    "velocity": 0.2047244094488189,
                    "duration": 0.07499999999998863
                },
                {
                    "name": "A#4",
                    "midi": 70,
                    "time": 134.40000000000126,
                    "velocity": 0.23622047244094488,
                    "duration": 0.15000000000000568
                },
                {
                    "name": "B3",
                    "midi": 59,
                    "time": 135.00000000000125,
                    "velocity": 0.23622047244094488,
                    "duration": 0.8999999999999773
                },
                {
                    "name": "D3",
                    "midi": 50,
                    "time": 135.00000000000125,
                    "velocity": 0.23622047244094488,
                    "duration": 0.8999999999999773
                },
                {
                    "name": "G#3",
                    "midi": 56,
                    "time": 135.00000000000125,
                    "velocity": 0.23622047244094488,
                    "duration": 0.8999999999999773
                },
                {
                    "name": "D4",
                    "midi": 62,
                    "time": 135.75000000000125,
                    "velocity": 0.33858267716535434,
                    "duration": 0.07499999999998863
                },
                {
                    "name": "G#3",
                    "midi": 56,
                    "time": 135.90000000000123,
                    "velocity": 0.23622047244094488,
                    "duration": 0.2999999999999545
                },
                {
                    "name": "F3",
                    "midi": 53,
                    "time": 135.90000000000123,
                    "velocity": 0.23622047244094488,
                    "duration": 0.2999999999999545
                },
                {
                    "name": "C#4",
                    "midi": 61,
                    "time": 135.90000000000123,
                    "velocity": 0.33858267716535434,
                    "duration": 0.07499999999998863
                },
                {
                    "name": "C4",
                    "midi": 60,
                    "time": 136.0500000000012,
                    "velocity": 0.33858267716535434,
                    "duration": 0.07499999999998863
                },
                {
                    "name": "D3",
                    "midi": 50,
                    "time": 136.20000000000118,
                    "velocity": 0.23622047244094488,
                    "duration": 0.2999999999999545
                },
                {
                    "name": "B3",
                    "midi": 59,
                    "time": 136.20000000000118,
                    "velocity": 0.33858267716535434,
                    "duration": 0.07499999999998863
                },
                {
                    "name": "G3",
                    "midi": 55,
                    "time": 136.20000000000118,
                    "velocity": 0.23622047244094488,
                    "duration": 0.2999999999999545
                },
                {
                    "name": "D4",
                    "midi": 62,
                    "time": 136.35000000000116,
                    "velocity": 0.33858267716535434,
                    "duration": 0.07499999999998863
                },
                {
                    "name": "F3",
                    "midi": 53,
                    "time": 136.50000000000114,
                    "velocity": 0.23622047244094488,
                    "duration": 0.2999999999999545
                },
                {
                    "name": "G3",
                    "midi": 55,
                    "time": 136.50000000000114,
                    "velocity": 0.23622047244094488,
                    "duration": 0.2999999999999545
                },
                {
                    "name": "C#4",
                    "midi": 61,
                    "time": 136.50000000000114,
                    "velocity": 0.33858267716535434,
                    "duration": 0.07499999999998863
                },
                {
                    "name": "C4",
                    "midi": 60,
                    "time": 136.57500000000113,
                    "velocity": 0.33858267716535434,
                    "duration": 0.07499999999998863
                },
                {
                    "name": "B3",
                    "midi": 59,
                    "time": 136.6500000000011,
                    "velocity": 0.33858267716535434,
                    "duration": 0.07499999999998863
                },
                {
                    "name": "F#3",
                    "midi": 54,
                    "time": 136.8000000000011,
                    "velocity": 0.2204724409448819,
                    "duration": 0.15000000000000568
                },
                {
                    "name": "D3",
                    "midi": 50,
                    "time": 136.8000000000011,
                    "velocity": 0.2204724409448819,
                    "duration": 0.15000000000000568
                },
                {
                    "name": "D4",
                    "midi": 62,
                    "time": 136.8000000000011,
                    "velocity": 0.28346456692913385,
                    "duration": 0.15000000000000568
                },
                {
                    "name": "A3",
                    "midi": 57,
                    "time": 136.8000000000011,
                    "velocity": 0.2204724409448819,
                    "duration": 0.15000000000000568
                },
                {
                    "name": "G3",
                    "midi": 55,
                    "time": 138.0000000000011,
                    "velocity": 0.2204724409448819,
                    "duration": 0.15000000000000568
                },
                {
                    "name": "C3",
                    "midi": 48,
                    "time": 138.0000000000011,
                    "velocity": 0.2204724409448819,
                    "duration": 0.15000000000000568
                },
                {
                    "name": "D#4",
                    "midi": 63,
                    "time": 138.0000000000011,
                    "velocity": 0.28346456692913385,
                    "duration": 0.15000000000000568
                },
                {
                    "name": "C3",
                    "midi": 48,
                    "time": 138.6000000000011,
                    "velocity": 0.2204724409448819,
                    "duration": 0.15000000000000568
                },
                {
                    "name": "A3",
                    "midi": 57,
                    "time": 138.6000000000011,
                    "velocity": 0.28346456692913385,
                    "duration": 0.15000000000000568
                },
                {
                    "name": "D#3",
                    "midi": 51,
                    "time": 138.6000000000011,
                    "velocity": 0.2204724409448819,
                    "duration": 0.15000000000000568
                },
                {
                    "name": "F2",
                    "midi": 41,
                    "time": 138.6000000000011,
                    "velocity": 0.2204724409448819,
                    "duration": 0.15000000000000568
                },
                {
                    "name": "A#2",
                    "midi": 46,
                    "time": 139.1500000000011,
                    "velocity": 0.2204724409448819,
                    "duration": 0.12499999999997158
                },
                {
                    "name": "F3",
                    "midi": 53,
                    "time": 139.1625000000011,
                    "velocity": 0.2204724409448819,
                    "duration": 0.11249999999998295
                },
                {
                    "name": "D4",
                    "midi": 62,
                    "time": 139.1750000000011,
                    "velocity": 0.28346456692913385,
                    "duration": 0.09999999999999432
                },
                {
                    "name": "D2",
                    "midi": 38,
                    "time": 139.50000000000108,
                    "velocity": 0.2755905511811024,
                    "duration": 0.08999999999997499
                },
                {
                    "name": "D#2",
                    "midi": 39,
                    "time": 139.57500000000107,
                    "velocity": 0.2755905511811024,
                    "duration": 0.08999999999997499
                },
                {
                    "name": "D2",
                    "midi": 38,
                    "time": 139.65000000000106,
                    "velocity": 0.2755905511811024,
                    "duration": 0.08999999999997499
                },
                {
                    "name": "E2",
                    "midi": 40,
                    "time": 139.72500000000105,
                    "velocity": 0.2755905511811024,
                    "duration": 0.08999999999997499
                },
                {
                    "name": "F2",
                    "midi": 41,
                    "time": 139.80000000000103,
                    "velocity": 0.28346456692913385,
                    "duration": 0.08999999999997499
                },
                {
                    "name": "F#2",
                    "midi": 42,
                    "time": 139.87500000000102,
                    "velocity": 0.28346456692913385,
                    "duration": 0.08999999999997499
                },
                {
                    "name": "F2",
                    "midi": 41,
                    "time": 139.950000000001,
                    "velocity": 0.28346456692913385,
                    "duration": 0.08999999999997499
                },
                {
                    "name": "G2",
                    "midi": 43,
                    "time": 140.025000000001,
                    "velocity": 0.28346456692913385,
                    "duration": 0.08999999999997499
                },
                {
                    "name": "G#2",
                    "midi": 44,
                    "time": 140.100000000001,
                    "velocity": 0.28346456692913385,
                    "duration": 0.08999999999997499
                },
                {
                    "name": "A2",
                    "midi": 45,
                    "time": 140.17500000000098,
                    "velocity": 0.28346456692913385,
                    "duration": 0.08999999999997499
                },
                {
                    "name": "G#2",
                    "midi": 44,
                    "time": 140.25000000000097,
                    "velocity": 0.29133858267716534,
                    "duration": 0.08999999999997499
                },
                {
                    "name": "A#2",
                    "midi": 46,
                    "time": 140.32500000000095,
                    "velocity": 0.29133858267716534,
                    "duration": 0.08999999999997499
                },
                {
                    "name": "B2",
                    "midi": 47,
                    "time": 140.40000000000094,
                    "velocity": 0.29133858267716534,
                    "duration": 0.08999999999997499
                },
                {
                    "name": "C3",
                    "midi": 48,
                    "time": 140.47500000000093,
                    "velocity": 0.29133858267716534,
                    "duration": 0.08999999999997499
                },
                {
                    "name": "B2",
                    "midi": 47,
                    "time": 140.55000000000092,
                    "velocity": 0.2992125984251969,
                    "duration": 0.08999999999997499
                },
                {
                    "name": "C#3",
                    "midi": 49,
                    "time": 140.6250000000009,
                    "velocity": 0.2992125984251969,
                    "duration": 0.08999999999997499
                },
                {
                    "name": "D3",
                    "midi": 50,
                    "time": 140.7000000000009,
                    "velocity": 0.2992125984251969,
                    "duration": 0.08999999999997499
                },
                {
                    "name": "D#3",
                    "midi": 51,
                    "time": 140.7750000000009,
                    "velocity": 0.30708661417322836,
                    "duration": 0.08999999999997499
                },
                {
                    "name": "D3",
                    "midi": 50,
                    "time": 140.85000000000088,
                    "velocity": 0.30708661417322836,
                    "duration": 0.08999999999997499
                },
                {
                    "name": "E3",
                    "midi": 52,
                    "time": 140.92500000000086,
                    "velocity": 0.30708661417322836,
                    "duration": 0.08999999999997499
                },
                {
                    "name": "F3",
                    "midi": 53,
                    "time": 141.00000000000085,
                    "velocity": 0.30708661417322836,
                    "duration": 0.08999999999997499
                },
                {
                    "name": "F#3",
                    "midi": 54,
                    "time": 141.07500000000084,
                    "velocity": 0.2992125984251969,
                    "duration": 0.08999999999997499
                },
                {
                    "name": "F3",
                    "midi": 53,
                    "time": 141.15000000000083,
                    "velocity": 0.2992125984251969,
                    "duration": 0.08999999999997499
                },
                {
                    "name": "G3",
                    "midi": 55,
                    "time": 141.22500000000082,
                    "velocity": 0.2992125984251969,
                    "duration": 0.08999999999997499
                },
                {
                    "name": "G#3",
                    "midi": 56,
                    "time": 141.3000000000008,
                    "velocity": 0.2992125984251969,
                    "duration": 0.08999999999997499
                },
                {
                    "name": "A3",
                    "midi": 57,
                    "time": 141.3750000000008,
                    "velocity": 0.30708661417322836,
                    "duration": 0.08999999999997499
                },
                {
                    "name": "G#3",
                    "midi": 56,
                    "time": 141.45000000000078,
                    "velocity": 0.30708661417322836,
                    "duration": 0.08999999999997499
                },
                {
                    "name": "B3",
                    "midi": 59,
                    "time": 141.52500000000077,
                    "velocity": 0.30708661417322836,
                    "duration": 0.08999999999997499
                },
                {
                    "name": "D4",
                    "midi": 62,
                    "time": 141.60000000000076,
                    "velocity": 0.25984251968503935,
                    "duration": 0.08999999999997499
                },
                {
                    "name": "D3",
                    "midi": 50,
                    "time": 141.60000000000076,
                    "velocity": 0.25984251968503935,
                    "duration": 0.2999999999999545
                },
                {
                    "name": "D#4",
                    "midi": 63,
                    "time": 141.67500000000075,
                    "velocity": 0.2755905511811024,
                    "duration": 0.08999999999997499
                },
                {
                    "name": "D4",
                    "midi": 62,
                    "time": 141.75000000000074,
                    "velocity": 0.2755905511811024,
                    "duration": 0.08999999999997499
                },
                {
                    "name": "F4",
                    "midi": 65,
                    "time": 141.82500000000073,
                    "velocity": 0.2755905511811024,
                    "duration": 0.08999999999997499
                },
                {
                    "name": "F#4",
                    "midi": 66,
                    "time": 141.90000000000072,
                    "velocity": 0.2755905511811024,
                    "duration": 0.08999999999997499
                },
                {
                    "name": "G4",
                    "midi": 67,
                    "time": 141.9750000000007,
                    "velocity": 0.2755905511811024,
                    "duration": 0.08999999999997499
                },
                {
                    "name": "F#4",
                    "midi": 66,
                    "time": 142.0500000000007,
                    "velocity": 0.2755905511811024,
                    "duration": 0.08999999999997499
                },
                {
                    "name": "G#4",
                    "midi": 68,
                    "time": 142.12500000000068,
                    "velocity": 0.2755905511811024,
                    "duration": 0.08999999999997499
                },
                {
                    "name": "A4",
                    "midi": 69,
                    "time": 142.20000000000067,
                    "velocity": 0.28346456692913385,
                    "duration": 0.08999999999997499
                },
                {
                    "name": "A#4",
                    "midi": 70,
                    "time": 142.27500000000066,
                    "velocity": 0.28346456692913385,
                    "duration": 0.08999999999997499
                },
                {
                    "name": "A4",
                    "midi": 69,
                    "time": 142.35000000000065,
                    "velocity": 0.28346456692913385,
                    "duration": 0.08999999999997499
                },
                {
                    "name": "C#5",
                    "midi": 73,
                    "time": 142.42500000000064,
                    "velocity": 0.28346456692913385,
                    "duration": 0.08999999999997499
                },
                {
                    "name": "D5",
                    "midi": 74,
                    "time": 142.50000000000063,
                    "velocity": 0.28346456692913385,
                    "duration": 0.08999999999997499
                },
                {
                    "name": "C#5",
                    "midi": 73,
                    "time": 142.5750000000006,
                    "velocity": 0.28346456692913385,
                    "duration": 0.08999999999997499
                },
                {
                    "name": "D5",
                    "midi": 74,
                    "time": 142.6500000000006,
                    "velocity": 0.28346456692913385,
                    "duration": 0.08999999999997499
                },
                {
                    "name": "C#5",
                    "midi": 73,
                    "time": 142.7250000000006,
                    "velocity": 0.28346456692913385,
                    "duration": 0.08999999999997499
                },
                {
                    "name": "C4",
                    "midi": 60,
                    "time": 142.80000000000058,
                    "velocity": 0.3543307086614173,
                    "duration": 0.2999999999999545
                },
                {
                    "name": "C5",
                    "midi": 72,
                    "time": 142.80000000000058,
                    "velocity": 0.2992125984251969,
                    "duration": 0.08999999999997499
                },
                {
                    "name": "B4",
                    "midi": 71,
                    "time": 142.87500000000057,
                    "velocity": 0.25984251968503935,
                    "duration": 0.08999999999997499
                },
                {
                    "name": "C5",
                    "midi": 72,
                    "time": 142.95000000000056,
                    "velocity": 0.25984251968503935,
                    "duration": 0.08999999999997499
                },
                {
                    "name": "A#4",
                    "midi": 70,
                    "time": 143.02500000000055,
                    "velocity": 0.25984251968503935,
                    "duration": 0.08999999999997499
                },
                {
                    "name": "A4",
                    "midi": 69,
                    "time": 143.10000000000053,
                    "velocity": 0.25984251968503935,
                    "duration": 0.08999999999997499
                },
                {
                    "name": "G4",
                    "midi": 67,
                    "time": 143.17500000000052,
                    "velocity": 0.25984251968503935,
                    "duration": 0.08999999999997499
                },
                {
                    "name": "G#4",
                    "midi": 68,
                    "time": 143.2500000000005,
                    "velocity": 0.25984251968503935,
                    "duration": 0.08999999999997499
                },
                {
                    "name": "F#4",
                    "midi": 66,
                    "time": 143.3250000000005,
                    "velocity": 0.25984251968503935,
                    "duration": 0.08999999999997499
                },
                {
                    "name": "F3",
                    "midi": 53,
                    "time": 143.4000000000005,
                    "velocity": 0.3543307086614173,
                    "duration": 0.2999999999999545
                },
                {
                    "name": "F4",
                    "midi": 65,
                    "time": 143.4000000000005,
                    "velocity": 0.2992125984251969,
                    "duration": 0.08999999999997499
                },
                {
                    "name": "E4",
                    "midi": 64,
                    "time": 143.47500000000048,
                    "velocity": 0.25984251968503935,
                    "duration": 0.08999999999997499
                },
                {
                    "name": "F4",
                    "midi": 65,
                    "time": 143.55000000000047,
                    "velocity": 0.25984251968503935,
                    "duration": 0.08999999999997499
                },
                {
                    "name": "D#4",
                    "midi": 63,
                    "time": 143.62500000000045,
                    "velocity": 0.25984251968503935,
                    "duration": 0.08999999999997499
                },
                {
                    "name": "D4",
                    "midi": 62,
                    "time": 143.70000000000044,
                    "velocity": 0.25984251968503935,
                    "duration": 0.08999999999997499
                },
                {
                    "name": "C#4",
                    "midi": 61,
                    "time": 143.77500000000043,
                    "velocity": 0.25984251968503935,
                    "duration": 0.08999999999997499
                },
                {
                    "name": "C4",
                    "midi": 60,
                    "time": 143.85000000000042,
                    "velocity": 0.25984251968503935,
                    "duration": 0.08999999999997499
                },
                {
                    "name": "B3",
                    "midi": 59,
                    "time": 143.9250000000004,
                    "velocity": 0.25984251968503935,
                    "duration": 0.05999999999997385
                },
                {
                    "name": "A#2",
                    "midi": 46,
                    "time": 144.00000000000037,
                    "velocity": 0.3228346456692913,
                    "duration": 0.07499999999998863
                },
                {
                    "name": "A#3",
                    "midi": 58,
                    "time": 144.00000000000037,
                    "velocity": 0.3858267716535433,
                    "duration": 0.07499999999998863
                },
                {
                    "name": "A#3",
                    "midi": 58,
                    "time": 144.15000000000035,
                    "velocity": 0.1732283464566929,
                    "duration": 0.07499999999998863
                },
                {
                    "name": "F3",
                    "midi": 53,
                    "time": 144.15000000000035,
                    "velocity": 0.2047244094488189,
                    "duration": 0.07499999999998863
                },
                {
                    "name": "D4",
                    "midi": 62,
                    "time": 144.22500000000034,
                    "velocity": 0.1968503937007874,
                    "duration": 0.07499999999998863
                },
                {
                    "name": "A#3",
                    "midi": 58,
                    "time": 144.30000000000032,
                    "velocity": 0.16535433070866143,
                    "duration": 0.07499999999998863
                },
                {
                    "name": "F#3",
                    "midi": 54,
                    "time": 144.30000000000032,
                    "velocity": 0.1968503937007874,
                    "duration": 0.07499999999998863
                },
                {
                    "name": "D4",
                    "midi": 62,
                    "time": 144.3750000000003,
                    "velocity": 0.1968503937007874,
                    "duration": 0.07499999999998863
                },
                {
                    "name": "A#3",
                    "midi": 58,
                    "time": 144.4500000000003,
                    "velocity": 0.16535433070866143,
                    "duration": 0.07499999999998863
                },
                {
                    "name": "G3",
                    "midi": 55,
                    "time": 144.4500000000003,
                    "velocity": 0.1968503937007874,
                    "duration": 0.07499999999998863
                },
                {
                    "name": "D4",
                    "midi": 62,
                    "time": 144.5250000000003,
                    "velocity": 0.1968503937007874,
                    "duration": 0.07499999999998863
                },
                {
                    "name": "A#3",
                    "midi": 58,
                    "time": 144.60000000000028,
                    "velocity": 0.1968503937007874,
                    "duration": 0.07499999999998863
                },
                {
                    "name": "F#3",
                    "midi": 54,
                    "time": 144.60000000000028,
                    "velocity": 0.23622047244094488,
                    "duration": 0.07499999999998863
                },
                {
                    "name": "D4",
                    "midi": 62,
                    "time": 144.67500000000027,
                    "velocity": 0.1732283464566929,
                    "duration": 0.07499999999998863
                },
                {
                    "name": "F3",
                    "midi": 53,
                    "time": 144.75000000000026,
                    "velocity": 0.23622047244094488,
                    "duration": 0.07499999999998863
                },
                {
                    "name": "A#3",
                    "midi": 58,
                    "time": 144.75000000000026,
                    "velocity": 0.1968503937007874,
                    "duration": 0.07499999999998863
                },
                {
                    "name": "D4",
                    "midi": 62,
                    "time": 144.82500000000024,
                    "velocity": 0.16535433070866143,
                    "duration": 0.07499999999998863
                },
                {
                    "name": "A#3",
                    "midi": 58,
                    "time": 144.90000000000023,
                    "velocity": 0.1968503937007874,
                    "duration": 0.07499999999998863
                },
                {
                    "name": "F#3",
                    "midi": 54,
                    "time": 144.90000000000023,
                    "velocity": 0.23622047244094488,
                    "duration": 0.07499999999998863
                },
                {
                    "name": "D4",
                    "midi": 62,
                    "time": 144.97500000000022,
                    "velocity": 0.1968503937007874,
                    "duration": 0.07499999999998863
                },
                {
                    "name": "A#3",
                    "midi": 58,
                    "time": 145.0500000000002,
                    "velocity": 0.1968503937007874,
                    "duration": 0.07499999999998863
                },
                {
                    "name": "G3",
                    "midi": 55,
                    "time": 145.0500000000002,
                    "velocity": 0.23622047244094488,
                    "duration": 0.07499999999998863
                },
                {
                    "name": "D4",
                    "midi": 62,
                    "time": 145.1250000000002,
                    "velocity": 0.1732283464566929,
                    "duration": 0.05000000000001137
                },
                {
                    "name": "F#3",
                    "midi": 54,
                    "time": 145.1750000000002,
                    "velocity": 0.23622047244094488,
                    "duration": 0.0999999999999659
                },
                {
                    "name": "A3",
                    "midi": 57,
                    "time": 145.1875000000002,
                    "velocity": 0.23622047244094488,
                    "duration": 0.08749999999997726
                },
                {
                    "name": "D#4",
                    "midi": 63,
                    "time": 145.2000000000002,
                    "velocity": 0.23622047244094488,
                    "duration": 0.07499999999998863
                },
                {
                    "name": "A5",
                    "midi": 81,
                    "time": 145.35000000000016,
                    "velocity": 0.3228346456692913,
                    "duration": 0.07499999999998863
                },
                {
                    "name": "F#5",
                    "midi": 78,
                    "time": 145.35000000000016,
                    "velocity": 0.3228346456692913,
                    "duration": 0.07499999999998863
                },
                {
                    "name": "B4",
                    "midi": 71,
                    "time": 145.50000000000014,
                    "velocity": 0.30708661417322836,
                    "duration": 0.07499999999998863
                },
                {
                    "name": "D5",
                    "midi": 74,
                    "time": 145.50000000000014,
                    "velocity": 0.30708661417322836,
                    "duration": 0.07499999999998863
                },
                {
                    "name": "C5",
                    "midi": 72,
                    "time": 145.65000000000012,
                    "velocity": 0.2992125984251969,
                    "duration": 0.07499999999998863
                },
                {
                    "name": "D#5",
                    "midi": 75,
                    "time": 145.65000000000012,
                    "velocity": 0.2992125984251969,
                    "duration": 0.07499999999998863
                },
                {
                    "name": "G#4",
                    "midi": 68,
                    "time": 145.8000000000001,
                    "velocity": 0.2992125984251969,
                    "duration": 0.07499999999998863
                },
                {
                    "name": "F4",
                    "midi": 65,
                    "time": 145.8000000000001,
                    "velocity": 0.2992125984251969,
                    "duration": 0.07499999999998863
                },
                {
                    "name": "A4",
                    "midi": 69,
                    "time": 145.95000000000007,
                    "velocity": 0.29133858267716534,
                    "duration": 0.07499999999998863
                },
                {
                    "name": "F#4",
                    "midi": 66,
                    "time": 145.95000000000007,
                    "velocity": 0.29133858267716534,
                    "duration": 0.07499999999998863
                },
                {
                    "name": "D4",
                    "midi": 62,
                    "time": 146.10000000000005,
                    "velocity": 0.28346456692913385,
                    "duration": 0.07499999999998863
                },
                {
                    "name": "B3",
                    "midi": 59,
                    "time": 146.10000000000005,
                    "velocity": 0.28346456692913385,
                    "duration": 0.07499999999998863
                },
                {
                    "name": "C4",
                    "midi": 60,
                    "time": 146.25000000000003,
                    "velocity": 0.28346456692913385,
                    "duration": 0.07499999999998863
                },
                {
                    "name": "D#4",
                    "midi": 63,
                    "time": 146.25000000000003,
                    "velocity": 0.28346456692913385,
                    "duration": 0.07499999999998863
                },
                {
                    "name": "F2",
                    "midi": 41,
                    "time": 146.4,
                    "velocity": 0.3543307086614173,
                    "duration": 0.15000000000000568
                },
                {
                    "name": "A#3",
                    "midi": 58,
                    "time": 146.55,
                    "velocity": 0.1732283464566929,
                    "duration": 0.07499999999998863
                },
                {
                    "name": "F3",
                    "midi": 53,
                    "time": 146.55,
                    "velocity": 0.2047244094488189,
                    "duration": 0.07499999999998863
                },
                {
                    "name": "D4",
                    "midi": 62,
                    "time": 146.625,
                    "velocity": 0.1968503937007874,
                    "duration": 0.07499999999998863
                },
                {
                    "name": "A#3",
                    "midi": 58,
                    "time": 146.7,
                    "velocity": 0.16535433070866143,
                    "duration": 0.07499999999998863
                },
                {
                    "name": "F#3",
                    "midi": 54,
                    "time": 146.7,
                    "velocity": 0.1968503937007874,
                    "duration": 0.07499999999998863
                },
                {
                    "name": "D4",
                    "midi": 62,
                    "time": 146.77499999999998,
                    "velocity": 0.1968503937007874,
                    "duration": 0.07499999999998863
                },
                {
                    "name": "A#3",
                    "midi": 58,
                    "time": 146.84999999999997,
                    "velocity": 0.16535433070866143,
                    "duration": 0.07499999999998863
                },
                {
                    "name": "G3",
                    "midi": 55,
                    "time": 146.84999999999997,
                    "velocity": 0.1968503937007874,
                    "duration": 0.07499999999998863
                },
                {
                    "name": "D4",
                    "midi": 62,
                    "time": 146.92499999999995,
                    "velocity": 0.1968503937007874,
                    "duration": 0.07499999999998863
                },
                {
                    "name": "F#3",
                    "midi": 54,
                    "time": 146.99999999999994,
                    "velocity": 0.23622047244094488,
                    "duration": 0.07499999999998863
                },
                {
                    "name": "A#3",
                    "midi": 58,
                    "time": 146.99999999999994,
                    "velocity": 0.1968503937007874,
                    "duration": 0.07499999999998863
                },
                {
                    "name": "D4",
                    "midi": 62,
                    "time": 147.07499999999993,
                    "velocity": 0.1732283464566929,
                    "duration": 0.07499999999998863
                },
                {
                    "name": "F3",
                    "midi": 53,
                    "time": 147.14999999999992,
                    "velocity": 0.23622047244094488,
                    "duration": 0.07499999999998863
                },
                {
                    "name": "A#3",
                    "midi": 58,
                    "time": 147.14999999999992,
                    "velocity": 0.1968503937007874,
                    "duration": 0.07499999999998863
                },
                {
                    "name": "D4",
                    "midi": 62,
                    "time": 147.2249999999999,
                    "velocity": 0.16535433070866143,
                    "duration": 0.07499999999998863
                },
                {
                    "name": "A#3",
                    "midi": 58,
                    "time": 147.2999999999999,
                    "velocity": 0.1968503937007874,
                    "duration": 0.07499999999998863
                },
                {
                    "name": "F#3",
                    "midi": 54,
                    "time": 147.2999999999999,
                    "velocity": 0.23622047244094488,
                    "duration": 0.07499999999998863
                },
                {
                    "name": "D4",
                    "midi": 62,
                    "time": 147.3749999999999,
                    "velocity": 0.1968503937007874,
                    "duration": 0.07499999999998863
                },
                {
                    "name": "A#3",
                    "midi": 58,
                    "time": 147.44999999999987,
                    "velocity": 0.1968503937007874,
                    "duration": 0.07499999999998863
                },
                {
                    "name": "G3",
                    "midi": 55,
                    "time": 147.44999999999987,
                    "velocity": 0.23622047244094488,
                    "duration": 0.07499999999998863
                },
                {
                    "name": "D4",
                    "midi": 62,
                    "time": 147.52499999999986,
                    "velocity": 0.1732283464566929,
                    "duration": 0.07499999999998863
                },
                {
                    "name": "F#3",
                    "midi": 54,
                    "time": 147.57499999999987,
                    "velocity": 0.1968503937007874,
                    "duration": 0.0999999999999659
                },
                {
                    "name": "A3",
                    "midi": 57,
                    "time": 147.58749999999986,
                    "velocity": 0.1968503937007874,
                    "duration": 0.08749999999997726
                },
                {
                    "name": "D#4",
                    "midi": 63,
                    "time": 147.59999999999985,
                    "velocity": 0.23622047244094488,
                    "duration": 0.07499999999998863
                },
                {
                    "name": "F#5",
                    "midi": 78,
                    "time": 147.74999999999983,
                    "velocity": 0.2755905511811024,
                    "duration": 0.07499999999998863
                },
                {
                    "name": "A5",
                    "midi": 81,
                    "time": 147.74999999999983,
                    "velocity": 0.3228346456692913,
                    "duration": 0.07499999999998863
                },
                {
                    "name": "B4",
                    "midi": 71,
                    "time": 147.8999999999998,
                    "velocity": 0.25984251968503935,
                    "duration": 0.07499999999998863
                },
                {
                    "name": "D5",
                    "midi": 74,
                    "time": 147.8999999999998,
                    "velocity": 0.30708661417322836,
                    "duration": 0.07499999999998863
                },
                {
                    "name": "C5",
                    "midi": 72,
                    "time": 148.04999999999978,
                    "velocity": 0.25196850393700787,
                    "duration": 0.07499999999998863
                },
                {
                    "name": "D#5",
                    "midi": 75,
                    "time": 148.04999999999978,
                    "velocity": 0.2992125984251969,
                    "duration": 0.07499999999998863
                },
                {
                    "name": "G#4",
                    "midi": 68,
                    "time": 148.19999999999976,
                    "velocity": 0.2992125984251969,
                    "duration": 0.07499999999998863
                },
                {
                    "name": "F4",
                    "midi": 65,
                    "time": 148.19999999999976,
                    "velocity": 0.25196850393700787,
                    "duration": 0.07499999999998863
                },
                {
                    "name": "A4",
                    "midi": 69,
                    "time": 148.34999999999974,
                    "velocity": 0.29133858267716534,
                    "duration": 0.07499999999998863
                },
                {
                    "name": "F#4",
                    "midi": 66,
                    "time": 148.34999999999974,
                    "velocity": 0.2440944881889764,
                    "duration": 0.07499999999998863
                },
                {
                    "name": "D4",
                    "midi": 62,
                    "time": 148.49999999999972,
                    "velocity": 0.28346456692913385,
                    "duration": 0.07499999999998863
                },
                {
                    "name": "B3",
                    "midi": 59,
                    "time": 148.49999999999972,
                    "velocity": 0.23622047244094488,
                    "duration": 0.07499999999998863
                },
                {
                    "name": "D#4",
                    "midi": 63,
                    "time": 148.6499999999997,
                    "velocity": 0.28346456692913385,
                    "duration": 0.07499999999998863
                },
                {
                    "name": "C4",
                    "midi": 60,
                    "time": 148.6499999999997,
                    "velocity": 0.2283464566929134,
                    "duration": 0.07499999999998863
                },
                {
                    "name": "A3",
                    "midi": 57,
                    "time": 148.79999999999967,
                    "velocity": 0.33858267716535434,
                    "duration": 0.07499999999998863
                },
                {
                    "name": "D#3",
                    "midi": 51,
                    "time": 148.79999999999967,
                    "velocity": 0.28346456692913385,
                    "duration": 0.07499999999998863
                },
                {
                    "name": "C6",
                    "midi": 84,
                    "time": 148.94999999999965,
                    "velocity": 0.3543307086614173,
                    "duration": 0.15000000000000568
                },
                {
                    "name": "A5",
                    "midi": 81,
                    "time": 148.94999999999965,
                    "velocity": 0.29133858267716534,
                    "duration": 0.15000000000000568
                },
                {
                    "name": "F5",
                    "midi": 77,
                    "time": 149.09999999999965,
                    "velocity": 0.33858267716535434,
                    "duration": 0.15000000000000568
                },
                {
                    "name": "D5",
                    "midi": 74,
                    "time": 149.09999999999965,
                    "velocity": 0.28346456692913385,
                    "duration": 0.15000000000000568
                },
                {
                    "name": "D#5",
                    "midi": 75,
                    "time": 149.24999999999966,
                    "velocity": 0.2755905511811024,
                    "duration": 0.15000000000000568
                },
                {
                    "name": "F#5",
                    "midi": 78,
                    "time": 149.24999999999966,
                    "velocity": 0.33070866141732286,
                    "duration": 0.15000000000000568
                },
                {
                    "name": "A#4",
                    "midi": 70,
                    "time": 149.39999999999966,
                    "velocity": 0.33070866141732286,
                    "duration": 0.15000000000000568
                },
                {
                    "name": "G#4",
                    "midi": 68,
                    "time": 149.39999999999966,
                    "velocity": 0.2755905511811024,
                    "duration": 0.15000000000000568
                },
                {
                    "name": "C5",
                    "midi": 72,
                    "time": 149.54999999999967,
                    "velocity": 0.3228346456692913,
                    "duration": 0.15000000000000568
                },
                {
                    "name": "A4",
                    "midi": 69,
                    "time": 149.54999999999967,
                    "velocity": 0.2755905511811024,
                    "duration": 0.15000000000000568
                },
                {
                    "name": "D4",
                    "midi": 62,
                    "time": 149.69999999999968,
                    "velocity": 0.25984251968503935,
                    "duration": 0.15000000000000568
                },
                {
                    "name": "F4",
                    "midi": 65,
                    "time": 149.69999999999968,
                    "velocity": 0.30708661417322836,
                    "duration": 0.15000000000000568
                },
                {
                    "name": "D#4",
                    "midi": 63,
                    "time": 149.84999999999968,
                    "velocity": 0.25196850393700787,
                    "duration": 0.15000000000000568
                },
                {
                    "name": "F#4",
                    "midi": 66,
                    "time": 149.84999999999968,
                    "velocity": 0.2992125984251969,
                    "duration": 0.15000000000000568
                },
                {
                    "name": "C4",
                    "midi": 60,
                    "time": 149.9999999999997,
                    "velocity": 0.33858267716535434,
                    "duration": 0.07499999999998863
                },
                {
                    "name": "F#3",
                    "midi": 54,
                    "time": 149.9999999999997,
                    "velocity": 0.28346456692913385,
                    "duration": 0.07499999999998863
                },
                {
                    "name": "A#2",
                    "midi": 46,
                    "time": 149.9999999999997,
                    "velocity": 0.28346456692913385,
                    "duration": 0.07499999999998863
                },
                {
                    "name": "C6",
                    "midi": 84,
                    "time": 150.14999999999966,
                    "velocity": 0.29133858267716534,
                    "duration": 0.15000000000000568
                },
                {
                    "name": "D#6",
                    "midi": 87,
                    "time": 150.14999999999966,
                    "velocity": 0.3543307086614173,
                    "duration": 0.15000000000000568
                },
                {
                    "name": "F5",
                    "midi": 77,
                    "time": 150.29999999999967,
                    "velocity": 0.28346456692913385,
                    "duration": 0.15000000000000568
                },
                {
                    "name": "G#5",
                    "midi": 80,
                    "time": 150.29999999999967,
                    "velocity": 0.33858267716535434,
                    "duration": 0.15000000000000568
                },
                {
                    "name": "A5",
                    "midi": 81,
                    "time": 150.44999999999968,
                    "velocity": 0.33070866141732286,
                    "duration": 0.15000000000000568
                },
                {
                    "name": "F#5",
                    "midi": 78,
                    "time": 150.44999999999968,
                    "velocity": 0.2755905511811024,
                    "duration": 0.15000000000000568
                },
                {
                    "name": "F#6",
                    "midi": 90,
                    "time": 150.59999999999968,
                    "velocity": 0.33070866141732286,
                    "duration": 0.15000000000000568
                },
                {
                    "name": "D#6",
                    "midi": 87,
                    "time": 150.59999999999968,
                    "velocity": 0.2755905511811024,
                    "duration": 0.15000000000000568
                },
                {
                    "name": "B5",
                    "midi": 83,
                    "time": 150.7499999999997,
                    "velocity": 0.3228346456692913,
                    "duration": 0.15000000000000568
                },
                {
                    "name": "G#5",
                    "midi": 80,
                    "time": 150.7499999999997,
                    "velocity": 0.2755905511811024,
                    "duration": 0.15000000000000568
                },
                {
                    "name": "A5",
                    "midi": 81,
                    "time": 150.8999999999997,
                    "velocity": 0.25984251968503935,
                    "duration": 0.15000000000000568
                },
                {
                    "name": "C6",
                    "midi": 84,
                    "time": 150.8999999999997,
                    "velocity": 0.30708661417322836,
                    "duration": 0.15000000000000568
                },
                {
                    "name": "F#6",
                    "midi": 90,
                    "time": 151.0499999999997,
                    "velocity": 0.25196850393700787,
                    "duration": 0.15000000000000568
                },
                {
                    "name": "A6",
                    "midi": 93,
                    "time": 151.0499999999997,
                    "velocity": 0.2992125984251969,
                    "duration": 0.15000000000000568
                },
                {
                    "name": "B5",
                    "midi": 83,
                    "time": 151.1999999999997,
                    "velocity": 0.30708661417322836,
                    "duration": 0.15000000000000568
                },
                {
                    "name": "D6",
                    "midi": 86,
                    "time": 151.1999999999997,
                    "velocity": 0.30708661417322836,
                    "duration": 0.15000000000000568
                },
                {
                    "name": "D#6",
                    "midi": 87,
                    "time": 151.3499999999997,
                    "velocity": 0.2755905511811024,
                    "duration": 0.15000000000000568
                },
                {
                    "name": "C6",
                    "midi": 84,
                    "time": 151.3499999999997,
                    "velocity": 0.2755905511811024,
                    "duration": 0.15000000000000568
                },
                {
                    "name": "G#5",
                    "midi": 80,
                    "time": 151.49999999999972,
                    "velocity": 0.30708661417322836,
                    "duration": 0.15000000000000568
                },
                {
                    "name": "B5",
                    "midi": 83,
                    "time": 151.49999999999972,
                    "velocity": 0.30708661417322836,
                    "duration": 0.15000000000000568
                },
                {
                    "name": "A5",
                    "midi": 81,
                    "time": 151.64999999999972,
                    "velocity": 0.25984251968503935,
                    "duration": 0.15000000000000568
                },
                {
                    "name": "C6",
                    "midi": 84,
                    "time": 151.64999999999972,
                    "velocity": 0.25984251968503935,
                    "duration": 0.15000000000000568
                },
                {
                    "name": "G#5",
                    "midi": 80,
                    "time": 151.79999999999973,
                    "velocity": 0.30708661417322836,
                    "duration": 0.15000000000000568
                },
                {
                    "name": "B5",
                    "midi": 83,
                    "time": 151.79999999999973,
                    "velocity": 0.30708661417322836,
                    "duration": 0.15000000000000568
                },
                {
                    "name": "C6",
                    "midi": 84,
                    "time": 151.94999999999973,
                    "velocity": 0.25196850393700787,
                    "duration": 0.15000000000000568
                },
                {
                    "name": "A5",
                    "midi": 81,
                    "time": 151.94999999999973,
                    "velocity": 0.25196850393700787,
                    "duration": 0.15000000000000568
                },
                {
                    "name": "G#5",
                    "midi": 80,
                    "time": 152.09999999999974,
                    "velocity": 0.30708661417322836,
                    "duration": 0.15000000000000568
                },
                {
                    "name": "B5",
                    "midi": 83,
                    "time": 152.09999999999974,
                    "velocity": 0.30708661417322836,
                    "duration": 0.15000000000000568
                },
                {
                    "name": "C6",
                    "midi": 84,
                    "time": 152.24999999999974,
                    "velocity": 0.2755905511811024,
                    "duration": 0.15000000000000568
                },
                {
                    "name": "A5",
                    "midi": 81,
                    "time": 152.24999999999974,
                    "velocity": 0.2755905511811024,
                    "duration": 0.15000000000000568
                },
                {
                    "name": "A#5",
                    "midi": 82,
                    "time": 152.39999999999975,
                    "velocity": 0.30708661417322836,
                    "duration": 0.15000000000000568
                },
                {
                    "name": "D6",
                    "midi": 86,
                    "time": 152.39999999999975,
                    "velocity": 0.30708661417322836,
                    "duration": 0.15000000000000568
                },
                {
                    "name": "F4",
                    "midi": 65,
                    "time": 157.79999999999976,
                    "velocity": 0.15748031496062992,
                    "duration": 0.29999999999998295
                },
                {
                    "name": "A#4",
                    "midi": 70,
                    "time": 157.83749999999975,
                    "velocity": 0.1732283464566929,
                    "duration": 0.26249999999998863
                },
                {
                    "name": "F5",
                    "midi": 77,
                    "time": 157.87499999999974,
                    "velocity": 0.1889763779527559,
                    "duration": 0.22499999999999432
                },
                {
                    "name": "A#2",
                    "midi": 46,
                    "time": 158.39999999999975,
                    "velocity": 0.1889763779527559,
                    "duration": 0.11249999999998295
                },
                {
                    "name": "F3",
                    "midi": 53,
                    "time": 158.43749999999974,
                    "velocity": 0.2204724409448819,
                    "duration": 0.07499999999998863
                },
                {
                    "name": "D4",
                    "midi": 62,
                    "time": 158.47499999999974,
                    "velocity": 0.25196850393700787,
                    "duration": 0.037499999999994316
                }
            ],
            "controlChanges": {
                "91": [
                    {
                        "number": 91,
                        "time": 0,
                        "value": 1
                    }
                ]
            },
            "id": 2,
            "name": "Piano left",
            "instrumentNumber": 0,
            "instrument": "acoustic grand piano",
            "instrumentFamily": "piano",
            "channelNumber": 0,
            "isPercussion": false
        },
        {
            "startTime": 0,
            "duration": 0,
            "length": 0,
            "notes": [],
            "controlChanges": {
                "64": [
                    {
                        "number": 64,
                        "time": 3.04625,
                        "value": 1
                    },
                    {
                        "number": 64,
                        "time": 3.6100000000000003,
                        "value": 0
                    },
                    {
                        "number": 64,
                        "time": 3.6575,
                        "value": 1
                    },
                    {
                        "number": 64,
                        "time": 4.8075,
                        "value": 0
                    },
                    {
                        "number": 64,
                        "time": 4.865,
                        "value": 1
                    },
                    {
                        "number": 64,
                        "time": 5.41125,
                        "value": 0
                    },
                    {
                        "number": 64,
                        "time": 5.44375,
                        "value": 1
                    },
                    {
                        "number": 64,
                        "time": 6,
                        "value": 0
                    },
                    {
                        "number": 64,
                        "time": 6.04625,
                        "value": 1
                    },
                    {
                        "number": 64,
                        "time": 6.30875,
                        "value": 0
                    },
                    {
                        "number": 64,
                        "time": 6.34375,
                        "value": 1
                    },
                    {
                        "number": 64,
                        "time": 6.615,
                        "value": 0
                    },
                    {
                        "number": 64,
                        "time": 6.66125,
                        "value": 1
                    },
                    {
                        "number": 64,
                        "time": 7.21375,
                        "value": 0
                    },
                    {
                        "number": 64,
                        "time": 7.8,
                        "value": 1
                    },
                    {
                        "number": 64,
                        "time": 8.42,
                        "value": 0
                    },
                    {
                        "number": 64,
                        "time": 8.44375,
                        "value": 1
                    },
                    {
                        "number": 64,
                        "time": 9.018749999999999,
                        "value": 0
                    },
                    {
                        "number": 64,
                        "time": 9.049999999999999,
                        "value": 1
                    },
                    {
                        "number": 64,
                        "time": 9.305,
                        "value": 0
                    },
                    {
                        "number": 64,
                        "time": 10.51625,
                        "value": 1
                    },
                    {
                        "number": 64,
                        "time": 10.65625,
                        "value": 0
                    },
                    {
                        "number": 64,
                        "time": 11.10625,
                        "value": 1
                    },
                    {
                        "number": 64,
                        "time": 12.00875,
                        "value": 0
                    },
                    {
                        "number": 64,
                        "time": 12.045,
                        "value": 1
                    },
                    {
                        "number": 64,
                        "time": 12.615,
                        "value": 0
                    },
                    {
                        "number": 64,
                        "time": 14.1025,
                        "value": 1
                    },
                    {
                        "number": 64,
                        "time": 14.25875,
                        "value": 0
                    },
                    {
                        "number": 64,
                        "time": 15.296249999999999,
                        "value": 1
                    },
                    {
                        "number": 64,
                        "time": 15.499999999999998,
                        "value": 0
                    },
                    {
                        "number": 64,
                        "time": 15.919999999999998,
                        "value": 1
                    },
                    {
                        "number": 64,
                        "time": 16.139999999999997,
                        "value": 0
                    },
                    {
                        "number": 64,
                        "time": 16.512499999999996,
                        "value": 1
                    },
                    {
                        "number": 64,
                        "time": 16.669999999999995,
                        "value": 0
                    },
                    {
                        "number": 64,
                        "time": 18.886249999999993,
                        "value": 1
                    },
                    {
                        "number": 64,
                        "time": 20.39999999999999,
                        "value": 0
                    },
                    {
                        "number": 64,
                        "time": 20.71749999999999,
                        "value": 1
                    },
                    {
                        "number": 64,
                        "time": 21.30624999999999,
                        "value": 0
                    },
                    {
                        "number": 64,
                        "time": 21.36874999999999,
                        "value": 1
                    },
                    {
                        "number": 64,
                        "time": 21.90374999999999,
                        "value": 0
                    },
                    {
                        "number": 64,
                        "time": 21.946249999999992,
                        "value": 1
                    },
                    {
                        "number": 64,
                        "time": 22.01374999999999,
                        "value": 0
                    },
                    {
                        "number": 64,
                        "time": 22.09999999999999,
                        "value": 1
                    },
                    {
                        "number": 64,
                        "time": 22.17874999999999,
                        "value": 0
                    },
                    {
                        "number": 64,
                        "time": 22.27124999999999,
                        "value": 1
                    },
                    {
                        "number": 64,
                        "time": 22.328749999999992,
                        "value": 0
                    },
                    {
                        "number": 64,
                        "time": 22.386249999999993,
                        "value": 1
                    },
                    {
                        "number": 64,
                        "time": 22.46624999999999,
                        "value": 0
                    },
                    {
                        "number": 64,
                        "time": 22.56499999999999,
                        "value": 1
                    },
                    {
                        "number": 64,
                        "time": 22.63249999999999,
                        "value": 0
                    },
                    {
                        "number": 64,
                        "time": 22.71499999999999,
                        "value": 1
                    },
                    {
                        "number": 64,
                        "time": 22.79999999999999,
                        "value": 0
                    },
                    {
                        "number": 64,
                        "time": 23.13624999999999,
                        "value": 1
                    },
                    {
                        "number": 64,
                        "time": 23.70624999999999,
                        "value": 0
                    },
                    {
                        "number": 64,
                        "time": 23.76874999999999,
                        "value": 1
                    },
                    {
                        "number": 64,
                        "time": 24.30374999999999,
                        "value": 0
                    },
                    {
                        "number": 64,
                        "time": 24.34624999999999,
                        "value": 1
                    },
                    {
                        "number": 64,
                        "time": 24.41374999999999,
                        "value": 0
                    },
                    {
                        "number": 64,
                        "time": 24.49999999999999,
                        "value": 1
                    },
                    {
                        "number": 64,
                        "time": 24.57874999999999,
                        "value": 0
                    },
                    {
                        "number": 64,
                        "time": 24.67124999999999,
                        "value": 1
                    },
                    {
                        "number": 64,
                        "time": 24.72874999999999,
                        "value": 0
                    },
                    {
                        "number": 64,
                        "time": 24.786249999999992,
                        "value": 1
                    },
                    {
                        "number": 64,
                        "time": 24.86624999999999,
                        "value": 0
                    },
                    {
                        "number": 64,
                        "time": 24.96499999999999,
                        "value": 1
                    },
                    {
                        "number": 64,
                        "time": 25.032499999999988,
                        "value": 0
                    },
                    {
                        "number": 64,
                        "time": 25.114999999999988,
                        "value": 1
                    },
                    {
                        "number": 64,
                        "time": 25.19999999999999,
                        "value": 0
                    },
                    {
                        "number": 64,
                        "time": 25.517499999999988,
                        "value": 1
                    },
                    {
                        "number": 64,
                        "time": 26.10624999999999,
                        "value": 0
                    },
                    {
                        "number": 64,
                        "time": 26.16874999999999,
                        "value": 1
                    },
                    {
                        "number": 64,
                        "time": 26.70374999999999,
                        "value": 0
                    },
                    {
                        "number": 64,
                        "time": 26.74624999999999,
                        "value": 1
                    },
                    {
                        "number": 64,
                        "time": 26.813749999999988,
                        "value": 0
                    },
                    {
                        "number": 64,
                        "time": 26.899999999999988,
                        "value": 1
                    },
                    {
                        "number": 64,
                        "time": 26.978749999999987,
                        "value": 0
                    },
                    {
                        "number": 64,
                        "time": 27.07124999999999,
                        "value": 1
                    },
                    {
                        "number": 64,
                        "time": 27.12874999999999,
                        "value": 0
                    },
                    {
                        "number": 64,
                        "time": 27.18624999999999,
                        "value": 1
                    },
                    {
                        "number": 64,
                        "time": 27.26624999999999,
                        "value": 0
                    },
                    {
                        "number": 64,
                        "time": 27.364999999999988,
                        "value": 1
                    },
                    {
                        "number": 64,
                        "time": 27.432499999999987,
                        "value": 0
                    },
                    {
                        "number": 64,
                        "time": 27.514999999999986,
                        "value": 1
                    },
                    {
                        "number": 64,
                        "time": 27.607499999999987,
                        "value": 0
                    },
                    {
                        "number": 64,
                        "time": 27.917499999999986,
                        "value": 1
                    },
                    {
                        "number": 64,
                        "time": 28.506249999999987,
                        "value": 0
                    },
                    {
                        "number": 64,
                        "time": 28.568749999999987,
                        "value": 1
                    },
                    {
                        "number": 64,
                        "time": 29.103749999999987,
                        "value": 0
                    },
                    {
                        "number": 64,
                        "time": 29.146249999999988,
                        "value": 1
                    },
                    {
                        "number": 64,
                        "time": 29.213749999999987,
                        "value": 0
                    },
                    {
                        "number": 64,
                        "time": 29.299999999999986,
                        "value": 1
                    },
                    {
                        "number": 64,
                        "time": 29.378749999999986,
                        "value": 0
                    },
                    {
                        "number": 64,
                        "time": 29.471249999999987,
                        "value": 1
                    },
                    {
                        "number": 64,
                        "time": 29.528749999999988,
                        "value": 0
                    },
                    {
                        "number": 64,
                        "time": 29.58624999999999,
                        "value": 1
                    },
                    {
                        "number": 64,
                        "time": 29.666249999999987,
                        "value": 0
                    },
                    {
                        "number": 64,
                        "time": 29.764999999999986,
                        "value": 1
                    },
                    {
                        "number": 64,
                        "time": 29.832499999999985,
                        "value": 0
                    },
                    {
                        "number": 64,
                        "time": 29.914999999999985,
                        "value": 1
                    },
                    {
                        "number": 64,
                        "time": 30.006249999999984,
                        "value": 0
                    },
                    {
                        "number": 64,
                        "time": 30.316249999999982,
                        "value": 1
                    },
                    {
                        "number": 64,
                        "time": 30.613749999999982,
                        "value": 0
                    },
                    {
                        "number": 64,
                        "time": 30.648749999999982,
                        "value": 1
                    },
                    {
                        "number": 64,
                        "time": 30.91124999999998,
                        "value": 0
                    },
                    {
                        "number": 64,
                        "time": 30.94749999999998,
                        "value": 1
                    },
                    {
                        "number": 64,
                        "time": 31.20374999999998,
                        "value": 0
                    },
                    {
                        "number": 64,
                        "time": 31.241249999999983,
                        "value": 1
                    },
                    {
                        "number": 64,
                        "time": 31.504999999999985,
                        "value": 0
                    },
                    {
                        "number": 64,
                        "time": 31.552499999999984,
                        "value": 1
                    },
                    {
                        "number": 64,
                        "time": 31.808749999999986,
                        "value": 0
                    },
                    {
                        "number": 64,
                        "time": 31.828749999999985,
                        "value": 1
                    },
                    {
                        "number": 64,
                        "time": 32.102499999999985,
                        "value": 0
                    },
                    {
                        "number": 64,
                        "time": 32.12874999999998,
                        "value": 1
                    },
                    {
                        "number": 64,
                        "time": 32.40999999999998,
                        "value": 0
                    },
                    {
                        "number": 64,
                        "time": 32.453749999999985,
                        "value": 1
                    },
                    {
                        "number": 64,
                        "time": 32.71374999999998,
                        "value": 0
                    },
                    {
                        "number": 64,
                        "time": 32.757499999999986,
                        "value": 1
                    },
                    {
                        "number": 64,
                        "time": 33.024999999999984,
                        "value": 0
                    },
                    {
                        "number": 64,
                        "time": 33.093749999999986,
                        "value": 1
                    },
                    {
                        "number": 64,
                        "time": 33.304999999999986,
                        "value": 0
                    },
                    {
                        "number": 64,
                        "time": 33.34624999999998,
                        "value": 1
                    },
                    {
                        "number": 64,
                        "time": 33.61499999999998,
                        "value": 0
                    },
                    {
                        "number": 64,
                        "time": 35.11749999999998,
                        "value": 1
                    },
                    {
                        "number": 64,
                        "time": 35.314999999999976,
                        "value": 0
                    },
                    {
                        "number": 64,
                        "time": 35.424999999999976,
                        "value": 1
                    },
                    {
                        "number": 64,
                        "time": 35.60374999999998,
                        "value": 0
                    },
                    {
                        "number": 64,
                        "time": 35.721249999999976,
                        "value": 1
                    },
                    {
                        "number": 64,
                        "time": 35.918749999999974,
                        "value": 0
                    },
                    {
                        "number": 64,
                        "time": 36.03749999999997,
                        "value": 1
                    },
                    {
                        "number": 64,
                        "time": 36.21874999999997,
                        "value": 0
                    },
                    {
                        "number": 64,
                        "time": 36.33624999999997,
                        "value": 1
                    },
                    {
                        "number": 64,
                        "time": 36.53249999999997,
                        "value": 0
                    },
                    {
                        "number": 64,
                        "time": 36.63999999999997,
                        "value": 1
                    },
                    {
                        "number": 64,
                        "time": 36.84999999999997,
                        "value": 0
                    },
                    {
                        "number": 64,
                        "time": 36.939999999999976,
                        "value": 1
                    },
                    {
                        "number": 64,
                        "time": 37.128749999999975,
                        "value": 0
                    },
                    {
                        "number": 64,
                        "time": 37.24999999999998,
                        "value": 1
                    },
                    {
                        "number": 64,
                        "time": 37.41874999999998,
                        "value": 0
                    },
                    {
                        "number": 64,
                        "time": 37.517499999999984,
                        "value": 1
                    },
                    {
                        "number": 64,
                        "time": 37.71499999999998,
                        "value": 0
                    },
                    {
                        "number": 64,
                        "time": 37.82499999999998,
                        "value": 1
                    },
                    {
                        "number": 64,
                        "time": 38.00374999999998,
                        "value": 0
                    },
                    {
                        "number": 64,
                        "time": 38.12124999999998,
                        "value": 1
                    },
                    {
                        "number": 64,
                        "time": 38.31874999999998,
                        "value": 0
                    },
                    {
                        "number": 64,
                        "time": 38.43749999999998,
                        "value": 1
                    },
                    {
                        "number": 64,
                        "time": 38.61874999999998,
                        "value": 0
                    },
                    {
                        "number": 64,
                        "time": 38.73624999999998,
                        "value": 1
                    },
                    {
                        "number": 64,
                        "time": 38.932499999999976,
                        "value": 0
                    },
                    {
                        "number": 64,
                        "time": 39.03999999999998,
                        "value": 1
                    },
                    {
                        "number": 64,
                        "time": 39.24999999999998,
                        "value": 0
                    },
                    {
                        "number": 64,
                        "time": 39.33999999999998,
                        "value": 1
                    },
                    {
                        "number": 64,
                        "time": 39.52874999999998,
                        "value": 0
                    },
                    {
                        "number": 64,
                        "time": 39.611249999999984,
                        "value": 1
                    },
                    {
                        "number": 64,
                        "time": 39.81499999999998,
                        "value": 0
                    },
                    {
                        "number": 64,
                        "time": 39.93624999999999,
                        "value": 1
                    },
                    {
                        "number": 64,
                        "time": 40.111249999999984,
                        "value": 0
                    },
                    {
                        "number": 64,
                        "time": 40.22499999999999,
                        "value": 1
                    },
                    {
                        "number": 64,
                        "time": 40.40374999999999,
                        "value": 0
                    },
                    {
                        "number": 64,
                        "time": 40.52874999999999,
                        "value": 1
                    },
                    {
                        "number": 64,
                        "time": 40.696249999999985,
                        "value": 0
                    },
                    {
                        "number": 64,
                        "time": 40.836249999999986,
                        "value": 1
                    },
                    {
                        "number": 64,
                        "time": 41.02124999999999,
                        "value": 0
                    },
                    {
                        "number": 64,
                        "time": 41.13624999999999,
                        "value": 1
                    },
                    {
                        "number": 64,
                        "time": 41.33249999999999,
                        "value": 0
                    },
                    {
                        "number": 64,
                        "time": 41.44624999999999,
                        "value": 1
                    },
                    {
                        "number": 64,
                        "time": 41.63624999999999,
                        "value": 0
                    },
                    {
                        "number": 64,
                        "time": 41.73249999999999,
                        "value": 1
                    },
                    {
                        "number": 64,
                        "time": 41.94374999999999,
                        "value": 0
                    },
                    {
                        "number": 64,
                        "time": 42.02874999999999,
                        "value": 1
                    },
                    {
                        "number": 64,
                        "time": 42.18624999999999,
                        "value": 0
                    },
                    {
                        "number": 64,
                        "time": 42.328749999999985,
                        "value": 1
                    },
                    {
                        "number": 64,
                        "time": 42.50374999999998,
                        "value": 0
                    },
                    {
                        "number": 64,
                        "time": 42.624999999999986,
                        "value": 1
                    },
                    {
                        "number": 64,
                        "time": 42.80374999999999,
                        "value": 0
                    },
                    {
                        "number": 64,
                        "time": 42.93624999999999,
                        "value": 1
                    },
                    {
                        "number": 64,
                        "time": 43.124999999999986,
                        "value": 0
                    },
                    {
                        "number": 64,
                        "time": 43.236249999999984,
                        "value": 1
                    },
                    {
                        "number": 64,
                        "time": 43.407499999999985,
                        "value": 0
                    },
                    {
                        "number": 64,
                        "time": 43.539999999999985,
                        "value": 1
                    },
                    {
                        "number": 64,
                        "time": 43.72499999999999,
                        "value": 0
                    },
                    {
                        "number": 64,
                        "time": 43.81874999999999,
                        "value": 1
                    },
                    {
                        "number": 64,
                        "time": 44.02874999999999,
                        "value": 0
                    },
                    {
                        "number": 64,
                        "time": 44.09624999999999,
                        "value": 1
                    },
                    {
                        "number": 64,
                        "time": 44.32874999999999,
                        "value": 0
                    },
                    {
                        "number": 64,
                        "time": 44.716249999999995,
                        "value": 1
                    },
                    {
                        "number": 64,
                        "time": 44.857499999999995,
                        "value": 0
                    },
                    {
                        "number": 64,
                        "time": 44.885,
                        "value": 1
                    },
                    {
                        "number": 64,
                        "time": 44.945,
                        "value": 0
                    },
                    {
                        "number": 64,
                        "time": 45.04875,
                        "value": 1
                    },
                    {
                        "number": 64,
                        "time": 45.308749999999996,
                        "value": 0
                    },
                    {
                        "number": 64,
                        "time": 45.315,
                        "value": 1
                    },
                    {
                        "number": 64,
                        "time": 45.45375,
                        "value": 0
                    },
                    {
                        "number": 64,
                        "time": 45.48125,
                        "value": 1
                    },
                    {
                        "number": 64,
                        "time": 45.5275,
                        "value": 0
                    },
                    {
                        "number": 64,
                        "time": 45.64125000000001,
                        "value": 1
                    },
                    {
                        "number": 64,
                        "time": 45.823750000000004,
                        "value": 0
                    },
                    {
                        "number": 64,
                        "time": 45.9525,
                        "value": 1
                    },
                    {
                        "number": 64,
                        "time": 46.075,
                        "value": 0
                    },
                    {
                        "number": 64,
                        "time": 46.228750000000005,
                        "value": 1
                    },
                    {
                        "number": 64,
                        "time": 46.33625000000001,
                        "value": 0
                    },
                    {
                        "number": 64,
                        "time": 46.50625000000001,
                        "value": 1
                    },
                    {
                        "number": 64,
                        "time": 46.81000000000001,
                        "value": 0
                    },
                    {
                        "number": 64,
                        "time": 46.85375000000001,
                        "value": 1
                    },
                    {
                        "number": 64,
                        "time": 47.11375000000001,
                        "value": 0
                    },
                    {
                        "number": 64,
                        "time": 47.15750000000001,
                        "value": 1
                    },
                    {
                        "number": 64,
                        "time": 47.428750000000015,
                        "value": 0
                    },
                    {
                        "number": 64,
                        "time": 47.49375000000001,
                        "value": 1
                    },
                    {
                        "number": 64,
                        "time": 47.70500000000001,
                        "value": 0
                    },
                    {
                        "number": 64,
                        "time": 47.74625000000001,
                        "value": 1
                    },
                    {
                        "number": 64,
                        "time": 48.01000000000001,
                        "value": 0
                    },
                    {
                        "number": 64,
                        "time": 48.053750000000015,
                        "value": 1
                    },
                    {
                        "number": 64,
                        "time": 48.31375000000001,
                        "value": 0
                    },
                    {
                        "number": 64,
                        "time": 48.357500000000016,
                        "value": 1
                    },
                    {
                        "number": 64,
                        "time": 48.62625000000001,
                        "value": 0
                    },
                    {
                        "number": 64,
                        "time": 48.693750000000016,
                        "value": 1
                    },
                    {
                        "number": 64,
                        "time": 48.905000000000015,
                        "value": 0
                    },
                    {
                        "number": 64,
                        "time": 48.94625000000001,
                        "value": 1
                    },
                    {
                        "number": 64,
                        "time": 49.20000000000001,
                        "value": 0
                    },
                    {
                        "number": 64,
                        "time": 50.11125000000001,
                        "value": 1
                    },
                    {
                        "number": 64,
                        "time": 50.25375000000001,
                        "value": 0
                    },
                    {
                        "number": 64,
                        "time": 50.54250000000001,
                        "value": 1
                    },
                    {
                        "number": 64,
                        "time": 51.01250000000001,
                        "value": 0
                    },
                    {
                        "number": 64,
                        "time": 51.04250000000001,
                        "value": 1
                    },
                    {
                        "number": 64,
                        "time": 51.60875000000001,
                        "value": 0
                    },
                    {
                        "number": 64,
                        "time": 52.51125000000001,
                        "value": 1
                    },
                    {
                        "number": 64,
                        "time": 52.65375000000001,
                        "value": 0
                    },
                    {
                        "number": 64,
                        "time": 52.94250000000001,
                        "value": 1
                    },
                    {
                        "number": 64,
                        "time": 53.40625000000001,
                        "value": 0
                    },
                    {
                        "number": 64,
                        "time": 53.42875000000001,
                        "value": 1
                    },
                    {
                        "number": 64,
                        "time": 54.033750000000005,
                        "value": 0
                    },
                    {
                        "number": 64,
                        "time": 54.142500000000005,
                        "value": 1
                    },
                    {
                        "number": 64,
                        "time": 54.605000000000004,
                        "value": 0
                    },
                    {
                        "number": 64,
                        "time": 54.6225,
                        "value": 1
                    },
                    {
                        "number": 64,
                        "time": 55.230000000000004,
                        "value": 0
                    },
                    {
                        "number": 64,
                        "time": 55.35875,
                        "value": 1
                    },
                    {
                        "number": 64,
                        "time": 55.83375,
                        "value": 0
                    },
                    {
                        "number": 64,
                        "time": 55.96875,
                        "value": 1
                    },
                    {
                        "number": 64,
                        "time": 56.43375,
                        "value": 0
                    },
                    {
                        "number": 64,
                        "time": 56.542500000000004,
                        "value": 1
                    },
                    {
                        "number": 64,
                        "time": 57.002500000000005,
                        "value": 0
                    },
                    {
                        "number": 64,
                        "time": 57.02250000000001,
                        "value": 1
                    },
                    {
                        "number": 64,
                        "time": 57.307500000000005,
                        "value": 0
                    },
                    {
                        "number": 64,
                        "time": 57.34875,
                        "value": 1
                    },
                    {
                        "number": 64,
                        "time": 57.60875,
                        "value": 0
                    },
                    {
                        "number": 64,
                        "time": 57.6575,
                        "value": 1
                    },
                    {
                        "number": 64,
                        "time": 58.207499999999996,
                        "value": 0
                    },
                    {
                        "number": 64,
                        "time": 58.246249999999996,
                        "value": 1
                    },
                    {
                        "number": 64,
                        "time": 58.81375,
                        "value": 0
                    },
                    {
                        "number": 64,
                        "time": 58.8575,
                        "value": 1
                    },
                    {
                        "number": 64,
                        "time": 59.415,
                        "value": 0
                    },
                    {
                        "number": 64,
                        "time": 59.455,
                        "value": 1
                    },
                    {
                        "number": 64,
                        "time": 60.01125,
                        "value": 0
                    },
                    {
                        "number": 64,
                        "time": 60.061249999999994,
                        "value": 1
                    },
                    {
                        "number": 64,
                        "time": 60.60999999999999,
                        "value": 0
                    },
                    {
                        "number": 64,
                        "time": 60.693749999999994,
                        "value": 1
                    },
                    {
                        "number": 64,
                        "time": 61.21999999999999,
                        "value": 0
                    },
                    {
                        "number": 64,
                        "time": 61.278749999999995,
                        "value": 1
                    },
                    {
                        "number": 64,
                        "time": 61.809999999999995,
                        "value": 0
                    },
                    {
                        "number": 64,
                        "time": 61.88249999999999,
                        "value": 1
                    },
                    {
                        "number": 64,
                        "time": 62.39999999999999,
                        "value": 0
                    },
                    {
                        "number": 64,
                        "time": 62.59374999999999,
                        "value": 1
                    },
                    {
                        "number": 64,
                        "time": 62.67499999999999,
                        "value": 0
                    },
                    {
                        "number": 64,
                        "time": 62.87499999999999,
                        "value": 1
                    },
                    {
                        "number": 64,
                        "time": 62.974999999999994,
                        "value": 0
                    },
                    {
                        "number": 64,
                        "time": 63.1825,
                        "value": 1
                    },
                    {
                        "number": 64,
                        "time": 63.25,
                        "value": 0
                    },
                    {
                        "number": 64,
                        "time": 63.41125,
                        "value": 1
                    },
                    {
                        "number": 64,
                        "time": 63.5075,
                        "value": 0
                    },
                    {
                        "number": 64,
                        "time": 63.78625,
                        "value": 1
                    },
                    {
                        "number": 64,
                        "time": 63.875,
                        "value": 0
                    },
                    {
                        "number": 64,
                        "time": 64.07875,
                        "value": 1
                    },
                    {
                        "number": 64,
                        "time": 64.14625,
                        "value": 0
                    },
                    {
                        "number": 64,
                        "time": 64.36874999999999,
                        "value": 1
                    },
                    {
                        "number": 64,
                        "time": 64.4575,
                        "value": 0
                    },
                    {
                        "number": 64,
                        "time": 64.61874999999999,
                        "value": 1
                    },
                    {
                        "number": 64,
                        "time": 64.7575,
                        "value": 0
                    },
                    {
                        "number": 64,
                        "time": 65,
                        "value": 1
                    },
                    {
                        "number": 64,
                        "time": 65.075,
                        "value": 0
                    },
                    {
                        "number": 64,
                        "time": 65.325,
                        "value": 1
                    },
                    {
                        "number": 64,
                        "time": 65.39,
                        "value": 0
                    },
                    {
                        "number": 64,
                        "time": 65.58625,
                        "value": 1
                    },
                    {
                        "number": 64,
                        "time": 65.65,
                        "value": 0
                    },
                    {
                        "number": 64,
                        "time": 65.72500000000001,
                        "value": 1
                    },
                    {
                        "number": 64,
                        "time": 66.00000000000001,
                        "value": 0
                    },
                    {
                        "number": 64,
                        "time": 66.20375000000001,
                        "value": 1
                    },
                    {
                        "number": 64,
                        "time": 66.29000000000002,
                        "value": 0
                    },
                    {
                        "number": 64,
                        "time": 66.52125000000002,
                        "value": 1
                    },
                    {
                        "number": 64,
                        "time": 66.62250000000002,
                        "value": 0
                    },
                    {
                        "number": 64,
                        "time": 66.66875000000002,
                        "value": 1
                    },
                    {
                        "number": 64,
                        "time": 66.90625000000001,
                        "value": 0
                    },
                    {
                        "number": 64,
                        "time": 66.98250000000002,
                        "value": 1
                    },
                    {
                        "number": 64,
                        "time": 67.20000000000002,
                        "value": 0
                    },
                    {
                        "number": 64,
                        "time": 67.51875000000001,
                        "value": 1
                    },
                    {
                        "number": 64,
                        "time": 67.81375000000001,
                        "value": 0
                    },
                    {
                        "number": 64,
                        "time": 67.85000000000001,
                        "value": 1
                    },
                    {
                        "number": 64,
                        "time": 68.11250000000001,
                        "value": 0
                    },
                    {
                        "number": 64,
                        "time": 68.165,
                        "value": 1
                    },
                    {
                        "number": 64,
                        "time": 68.40625,
                        "value": 0
                    },
                    {
                        "number": 64,
                        "time": 68.44,
                        "value": 1
                    },
                    {
                        "number": 64,
                        "time": 68.55499999999999,
                        "value": 0
                    },
                    {
                        "number": 64,
                        "time": 68.5825,
                        "value": 1
                    },
                    {
                        "number": 64,
                        "time": 68.69874999999999,
                        "value": 0
                    },
                    {
                        "number": 64,
                        "time": 68.73124999999999,
                        "value": 1
                    },
                    {
                        "number": 64,
                        "time": 68.86249999999998,
                        "value": 0
                    },
                    {
                        "number": 64,
                        "time": 68.88624999999999,
                        "value": 1
                    },
                    {
                        "number": 64,
                        "time": 69.00999999999999,
                        "value": 0
                    },
                    {
                        "number": 64,
                        "time": 69.04499999999999,
                        "value": 1
                    },
                    {
                        "number": 64,
                        "time": 69.15249999999999,
                        "value": 0
                    },
                    {
                        "number": 64,
                        "time": 69.17875,
                        "value": 1
                    },
                    {
                        "number": 64,
                        "time": 69.30874999999999,
                        "value": 0
                    },
                    {
                        "number": 64,
                        "time": 69.33624999999999,
                        "value": 1
                    },
                    {
                        "number": 64,
                        "time": 69.45375,
                        "value": 0
                    },
                    {
                        "number": 64,
                        "time": 69.49125,
                        "value": 1
                    },
                    {
                        "number": 64,
                        "time": 69.6,
                        "value": 0
                    },
                    {
                        "number": 64,
                        "time": 69.93249999999999,
                        "value": 1
                    },
                    {
                        "number": 64,
                        "time": 70.21374999999999,
                        "value": 0
                    },
                    {
                        "number": 64,
                        "time": 70.24999999999999,
                        "value": 1
                    },
                    {
                        "number": 64,
                        "time": 70.51249999999999,
                        "value": 0
                    },
                    {
                        "number": 64,
                        "time": 70.56499999999998,
                        "value": 1
                    },
                    {
                        "number": 64,
                        "time": 70.80249999999998,
                        "value": 0
                    },
                    {
                        "number": 64,
                        "time": 70.83999999999997,
                        "value": 1
                    },
                    {
                        "number": 64,
                        "time": 70.95749999999998,
                        "value": 0
                    },
                    {
                        "number": 64,
                        "time": 70.98249999999999,
                        "value": 1
                    },
                    {
                        "number": 64,
                        "time": 71.11374999999998,
                        "value": 0
                    },
                    {
                        "number": 64,
                        "time": 71.13124999999998,
                        "value": 1
                    },
                    {
                        "number": 64,
                        "time": 71.25624999999998,
                        "value": 0
                    },
                    {
                        "number": 64,
                        "time": 71.29499999999997,
                        "value": 1
                    },
                    {
                        "number": 64,
                        "time": 71.41249999999998,
                        "value": 0
                    },
                    {
                        "number": 64,
                        "time": 71.43874999999998,
                        "value": 1
                    },
                    {
                        "number": 64,
                        "time": 71.55249999999998,
                        "value": 0
                    },
                    {
                        "number": 64,
                        "time": 71.59249999999999,
                        "value": 1
                    },
                    {
                        "number": 64,
                        "time": 71.70624999999998,
                        "value": 0
                    },
                    {
                        "number": 64,
                        "time": 71.74499999999998,
                        "value": 1
                    },
                    {
                        "number": 64,
                        "time": 71.85374999999998,
                        "value": 0
                    },
                    {
                        "number": 64,
                        "time": 71.88249999999998,
                        "value": 1
                    },
                    {
                        "number": 64,
                        "time": 72.01249999999997,
                        "value": 0
                    },
                    {
                        "number": 64,
                        "time": 72.04374999999997,
                        "value": 1
                    },
                    {
                        "number": 64,
                        "time": 72.15374999999997,
                        "value": 0
                    },
                    {
                        "number": 64,
                        "time": 72.18124999999998,
                        "value": 1
                    },
                    {
                        "number": 64,
                        "time": 72.30624999999998,
                        "value": 0
                    },
                    {
                        "number": 64,
                        "time": 72.33624999999998,
                        "value": 1
                    },
                    {
                        "number": 64,
                        "time": 72.46249999999998,
                        "value": 0
                    },
                    {
                        "number": 64,
                        "time": 72.48624999999998,
                        "value": 1
                    },
                    {
                        "number": 64,
                        "time": 72.60374999999999,
                        "value": 0
                    },
                    {
                        "number": 64,
                        "time": 72.63125,
                        "value": 1
                    },
                    {
                        "number": 64,
                        "time": 72.7525,
                        "value": 0
                    },
                    {
                        "number": 64,
                        "time": 72.7825,
                        "value": 1
                    },
                    {
                        "number": 64,
                        "time": 72.9125,
                        "value": 0
                    },
                    {
                        "number": 64,
                        "time": 72.95124999999999,
                        "value": 1
                    },
                    {
                        "number": 64,
                        "time": 73.06249999999999,
                        "value": 0
                    },
                    {
                        "number": 64,
                        "time": 73.08624999999999,
                        "value": 1
                    },
                    {
                        "number": 64,
                        "time": 73.19999999999999,
                        "value": 0
                    },
                    {
                        "number": 64,
                        "time": 74.12874999999998,
                        "value": 1
                    },
                    {
                        "number": 64,
                        "time": 74.25624999999998,
                        "value": 0
                    },
                    {
                        "number": 64,
                        "time": 75.31499999999998,
                        "value": 1
                    },
                    {
                        "number": 64,
                        "time": 75.45749999999998,
                        "value": 0
                    },
                    {
                        "number": 64,
                        "time": 76.52124999999998,
                        "value": 1
                    },
                    {
                        "number": 64,
                        "time": 76.66624999999998,
                        "value": 0
                    },
                    {
                        "number": 64,
                        "time": 77.71124999999998,
                        "value": 1
                    },
                    {
                        "number": 64,
                        "time": 77.86124999999998,
                        "value": 0
                    },
                    {
                        "number": 64,
                        "time": 78.91124999999998,
                        "value": 1
                    },
                    {
                        "number": 64,
                        "time": 79.07499999999997,
                        "value": 0
                    },
                    {
                        "number": 64,
                        "time": 79.19999999999997,
                        "value": 1
                    },
                    {
                        "number": 64,
                        "time": 79.29374999999997,
                        "value": 0
                    },
                    {
                        "number": 64,
                        "time": 79.53624999999998,
                        "value": 1
                    },
                    {
                        "number": 64,
                        "time": 79.61499999999998,
                        "value": 0
                    },
                    {
                        "number": 64,
                        "time": 79.83249999999998,
                        "value": 1
                    },
                    {
                        "number": 64,
                        "time": 79.90749999999998,
                        "value": 0
                    },
                    {
                        "number": 64,
                        "time": 80.13999999999999,
                        "value": 1
                    },
                    {
                        "number": 64,
                        "time": 80.21499999999999,
                        "value": 0
                    },
                    {
                        "number": 64,
                        "time": 80.44999999999999,
                        "value": 1
                    },
                    {
                        "number": 64,
                        "time": 81.01874999999998,
                        "value": 0
                    },
                    {
                        "number": 64,
                        "time": 81.09374999999999,
                        "value": 1
                    },
                    {
                        "number": 64,
                        "time": 82.81124999999999,
                        "value": 0
                    },
                    {
                        "number": 64,
                        "time": 82.84249999999999,
                        "value": 1
                    },
                    {
                        "number": 64,
                        "time": 84.01624999999999,
                        "value": 0
                    },
                    {
                        "number": 64,
                        "time": 84.05499999999998,
                        "value": 1
                    },
                    {
                        "number": 64,
                        "time": 85.21374999999998,
                        "value": 0
                    },
                    {
                        "number": 64,
                        "time": 85.25499999999998,
                        "value": 1
                    },
                    {
                        "number": 64,
                        "time": 86.71124999999998,
                        "value": 0
                    },
                    {
                        "number": 64,
                        "time": 86.75749999999998,
                        "value": 1
                    },
                    {
                        "number": 64,
                        "time": 87.01374999999997,
                        "value": 0
                    },
                    {
                        "number": 64,
                        "time": 87.04624999999997,
                        "value": 1
                    },
                    {
                        "number": 64,
                        "time": 87.30499999999998,
                        "value": 0
                    },
                    {
                        "number": 64,
                        "time": 87.34624999999998,
                        "value": 1
                    },
                    {
                        "number": 64,
                        "time": 87.60874999999999,
                        "value": 0
                    },
                    {
                        "number": 64,
                        "time": 88.52499999999999,
                        "value": 1
                    },
                    {
                        "number": 64,
                        "time": 88.61874999999999,
                        "value": 0
                    },
                    {
                        "number": 64,
                        "time": 88.87124999999999,
                        "value": 1
                    },
                    {
                        "number": 64,
                        "time": 89.10999999999999,
                        "value": 0
                    },
                    {
                        "number": 64,
                        "time": 89.15749999999998,
                        "value": 1
                    },
                    {
                        "number": 64,
                        "time": 89.41374999999998,
                        "value": 0
                    },
                    {
                        "number": 64,
                        "time": 89.48874999999998,
                        "value": 1
                    },
                    {
                        "number": 64,
                        "time": 89.70499999999998,
                        "value": 0
                    },
                    {
                        "number": 64,
                        "time": 89.79249999999999,
                        "value": 1
                    },
                    {
                        "number": 64,
                        "time": 90.00874999999999,
                        "value": 0
                    },
                    {
                        "number": 64,
                        "time": 90.925,
                        "value": 1
                    },
                    {
                        "number": 64,
                        "time": 91.01875,
                        "value": 0
                    },
                    {
                        "number": 64,
                        "time": 91.24625,
                        "value": 1
                    },
                    {
                        "number": 64,
                        "time": 91.51,
                        "value": 0
                    },
                    {
                        "number": 64,
                        "time": 91.5575,
                        "value": 1
                    },
                    {
                        "number": 64,
                        "time": 91.81375,
                        "value": 0
                    },
                    {
                        "number": 64,
                        "time": 91.84625,
                        "value": 1
                    },
                    {
                        "number": 64,
                        "time": 92.105,
                        "value": 0
                    },
                    {
                        "number": 64,
                        "time": 92.14625000000001,
                        "value": 1
                    },
                    {
                        "number": 64,
                        "time": 92.40500000000002,
                        "value": 0
                    },
                    {
                        "number": 64,
                        "time": 93.32500000000002,
                        "value": 1
                    },
                    {
                        "number": 64,
                        "time": 93.41875000000002,
                        "value": 0
                    },
                    {
                        "number": 64,
                        "time": 93.66000000000001,
                        "value": 1
                    },
                    {
                        "number": 64,
                        "time": 93.90875000000001,
                        "value": 0
                    },
                    {
                        "number": 64,
                        "time": 93.95750000000001,
                        "value": 1
                    },
                    {
                        "number": 64,
                        "time": 94.21375,
                        "value": 0
                    },
                    {
                        "number": 64,
                        "time": 94.24625,
                        "value": 1
                    },
                    {
                        "number": 64,
                        "time": 94.50500000000001,
                        "value": 0
                    },
                    {
                        "number": 64,
                        "time": 94.54625000000001,
                        "value": 1
                    },
                    {
                        "number": 64,
                        "time": 94.81125000000002,
                        "value": 0
                    },
                    {
                        "number": 64,
                        "time": 95.72500000000001,
                        "value": 1
                    },
                    {
                        "number": 64,
                        "time": 95.81875000000001,
                        "value": 0
                    },
                    {
                        "number": 64,
                        "time": 96.0125,
                        "value": 1
                    },
                    {
                        "number": 64,
                        "time": 96.27,
                        "value": 0
                    },
                    {
                        "number": 64,
                        "time": 96.31625,
                        "value": 1
                    },
                    {
                        "number": 64,
                        "time": 96.61,
                        "value": 0
                    },
                    {
                        "number": 64,
                        "time": 96.64874999999999,
                        "value": 1
                    },
                    {
                        "number": 64,
                        "time": 96.91,
                        "value": 0
                    },
                    {
                        "number": 64,
                        "time": 96.9425,
                        "value": 1
                    },
                    {
                        "number": 64,
                        "time": 97.20625,
                        "value": 0
                    },
                    {
                        "number": 64,
                        "time": 97.24125,
                        "value": 1
                    },
                    {
                        "number": 64,
                        "time": 97.43249999999999,
                        "value": 0
                    },
                    {
                        "number": 64,
                        "time": 97.5525,
                        "value": 1
                    },
                    {
                        "number": 64,
                        "time": 97.8025,
                        "value": 0
                    },
                    {
                        "number": 64,
                        "time": 97.82875,
                        "value": 1
                    },
                    {
                        "number": 64,
                        "time": 98.0575,
                        "value": 0
                    },
                    {
                        "number": 64,
                        "time": 98.10625,
                        "value": 1
                    },
                    {
                        "number": 64,
                        "time": 98.41250000000001,
                        "value": 0
                    },
                    {
                        "number": 64,
                        "time": 98.45375000000001,
                        "value": 1
                    },
                    {
                        "number": 64,
                        "time": 98.71375000000002,
                        "value": 0
                    },
                    {
                        "number": 64,
                        "time": 98.75750000000002,
                        "value": 1
                    },
                    {
                        "number": 64,
                        "time": 99.02125000000002,
                        "value": 0
                    },
                    {
                        "number": 64,
                        "time": 99.09375000000003,
                        "value": 1
                    },
                    {
                        "number": 64,
                        "time": 99.30750000000003,
                        "value": 0
                    },
                    {
                        "number": 64,
                        "time": 99.41500000000003,
                        "value": 1
                    },
                    {
                        "number": 64,
                        "time": 99.61500000000004,
                        "value": 0
                    },
                    {
                        "number": 64,
                        "time": 99.95750000000004,
                        "value": 1
                    },
                    {
                        "number": 64,
                        "time": 100.21375000000003,
                        "value": 0
                    },
                    {
                        "number": 64,
                        "time": 100.24625000000003,
                        "value": 1
                    },
                    {
                        "number": 64,
                        "time": 100.50500000000004,
                        "value": 0
                    },
                    {
                        "number": 64,
                        "time": 100.54625000000004,
                        "value": 1
                    },
                    {
                        "number": 64,
                        "time": 100.80375000000004,
                        "value": 0
                    },
                    {
                        "number": 64,
                        "time": 101.72500000000004,
                        "value": 1
                    },
                    {
                        "number": 64,
                        "time": 101.81875000000004,
                        "value": 0
                    },
                    {
                        "number": 64,
                        "time": 102.03625000000004,
                        "value": 1
                    },
                    {
                        "number": 64,
                        "time": 102.31125000000004,
                        "value": 0
                    },
                    {
                        "number": 64,
                        "time": 102.35750000000004,
                        "value": 1
                    },
                    {
                        "number": 64,
                        "time": 102.61375000000004,
                        "value": 0
                    },
                    {
                        "number": 64,
                        "time": 102.64625000000004,
                        "value": 1
                    },
                    {
                        "number": 64,
                        "time": 102.90500000000004,
                        "value": 0
                    },
                    {
                        "number": 64,
                        "time": 102.94625000000005,
                        "value": 1
                    },
                    {
                        "number": 64,
                        "time": 103.20375000000004,
                        "value": 0
                    },
                    {
                        "number": 64,
                        "time": 104.12500000000004,
                        "value": 1
                    },
                    {
                        "number": 64,
                        "time": 104.21875000000004,
                        "value": 0
                    },
                    {
                        "number": 64,
                        "time": 104.43625000000004,
                        "value": 1
                    },
                    {
                        "number": 64,
                        "time": 104.71000000000005,
                        "value": 0
                    },
                    {
                        "number": 64,
                        "time": 104.75750000000005,
                        "value": 1
                    },
                    {
                        "number": 64,
                        "time": 105.01375000000004,
                        "value": 0
                    },
                    {
                        "number": 64,
                        "time": 105.04625000000004,
                        "value": 1
                    },
                    {
                        "number": 64,
                        "time": 105.30500000000005,
                        "value": 0
                    },
                    {
                        "number": 64,
                        "time": 105.34625000000005,
                        "value": 1
                    },
                    {
                        "number": 64,
                        "time": 105.60625000000006,
                        "value": 0
                    },
                    {
                        "number": 64,
                        "time": 106.52500000000006,
                        "value": 1
                    },
                    {
                        "number": 64,
                        "time": 106.61875000000006,
                        "value": 0
                    },
                    {
                        "number": 64,
                        "time": 106.83250000000007,
                        "value": 1
                    },
                    {
                        "number": 64,
                        "time": 107.10875000000007,
                        "value": 0
                    },
                    {
                        "number": 64,
                        "time": 107.15750000000007,
                        "value": 1
                    },
                    {
                        "number": 64,
                        "time": 107.41375000000006,
                        "value": 0
                    },
                    {
                        "number": 64,
                        "time": 107.44625000000006,
                        "value": 1
                    },
                    {
                        "number": 64,
                        "time": 107.70500000000007,
                        "value": 0
                    },
                    {
                        "number": 64,
                        "time": 107.74625000000007,
                        "value": 1
                    },
                    {
                        "number": 64,
                        "time": 108.00875000000008,
                        "value": 0
                    },
                    {
                        "number": 64,
                        "time": 108.92500000000008,
                        "value": 1
                    },
                    {
                        "number": 64,
                        "time": 109.01875000000008,
                        "value": 0
                    },
                    {
                        "number": 64,
                        "time": 109.21250000000008,
                        "value": 1
                    },
                    {
                        "number": 64,
                        "time": 109.51125000000008,
                        "value": 0
                    },
                    {
                        "number": 64,
                        "time": 109.56125000000007,
                        "value": 1
                    },
                    {
                        "number": 64,
                        "time": 109.81000000000007,
                        "value": 0
                    },
                    {
                        "number": 64,
                        "time": 109.84875000000007,
                        "value": 1
                    },
                    {
                        "number": 64,
                        "time": 110.10875000000007,
                        "value": 0
                    },
                    {
                        "number": 64,
                        "time": 110.14750000000006,
                        "value": 1
                    },
                    {
                        "number": 64,
                        "time": 110.40375000000006,
                        "value": 0
                    },
                    {
                        "number": 64,
                        "time": 110.44125000000005,
                        "value": 1
                    },
                    {
                        "number": 64,
                        "time": 110.64375000000005,
                        "value": 0
                    },
                    {
                        "number": 64,
                        "time": 110.77500000000005,
                        "value": 1
                    },
                    {
                        "number": 64,
                        "time": 111.01000000000005,
                        "value": 0
                    },
                    {
                        "number": 64,
                        "time": 111.04875000000004,
                        "value": 1
                    },
                    {
                        "number": 64,
                        "time": 111.30875000000005,
                        "value": 0
                    },
                    {
                        "number": 64,
                        "time": 111.34750000000004,
                        "value": 1
                    },
                    {
                        "number": 64,
                        "time": 111.60750000000004,
                        "value": 0
                    },
                    {
                        "number": 64,
                        "time": 111.64125000000004,
                        "value": 1
                    },
                    {
                        "number": 64,
                        "time": 111.83625000000004,
                        "value": 0
                    },
                    {
                        "number": 64,
                        "time": 111.96125000000004,
                        "value": 1
                    },
                    {
                        "number": 64,
                        "time": 112.21000000000004,
                        "value": 0
                    },
                    {
                        "number": 64,
                        "time": 112.24875000000003,
                        "value": 1
                    },
                    {
                        "number": 64,
                        "time": 112.50875000000003,
                        "value": 0
                    },
                    {
                        "number": 64,
                        "time": 112.54750000000003,
                        "value": 1
                    },
                    {
                        "number": 64,
                        "time": 112.80375000000002,
                        "value": 0
                    },
                    {
                        "number": 64,
                        "time": 112.84125000000002,
                        "value": 1
                    },
                    {
                        "number": 64,
                        "time": 113.02375000000002,
                        "value": 0
                    },
                    {
                        "number": 64,
                        "time": 113.11625000000002,
                        "value": 1
                    },
                    {
                        "number": 64,
                        "time": 113.41000000000003,
                        "value": 0
                    },
                    {
                        "number": 64,
                        "time": 113.44875000000002,
                        "value": 1
                    },
                    {
                        "number": 64,
                        "time": 113.70875000000002,
                        "value": 0
                    },
                    {
                        "number": 64,
                        "time": 113.74750000000002,
                        "value": 1
                    },
                    {
                        "number": 64,
                        "time": 114.00375000000001,
                        "value": 0
                    },
                    {
                        "number": 64,
                        "time": 114.04125,
                        "value": 1
                    },
                    {
                        "number": 64,
                        "time": 114.22375000000001,
                        "value": 0
                    },
                    {
                        "number": 64,
                        "time": 114.31625000000001,
                        "value": 1
                    },
                    {
                        "number": 64,
                        "time": 114.61000000000001,
                        "value": 0
                    },
                    {
                        "number": 64,
                        "time": 114.64875,
                        "value": 1
                    },
                    {
                        "number": 64,
                        "time": 114.90875000000001,
                        "value": 0
                    },
                    {
                        "number": 64,
                        "time": 114.9475,
                        "value": 1
                    },
                    {
                        "number": 64,
                        "time": 115.20375,
                        "value": 0
                    },
                    {
                        "number": 64,
                        "time": 115.24125,
                        "value": 1
                    },
                    {
                        "number": 64,
                        "time": 115.42375,
                        "value": 0
                    },
                    {
                        "number": 64,
                        "time": 115.51875,
                        "value": 1
                    },
                    {
                        "number": 64,
                        "time": 115.815,
                        "value": 0
                    },
                    {
                        "number": 64,
                        "time": 115.86125,
                        "value": 1
                    },
                    {
                        "number": 64,
                        "time": 116.1125,
                        "value": 0
                    },
                    {
                        "number": 64,
                        "time": 116.15375,
                        "value": 1
                    },
                    {
                        "number": 64,
                        "time": 116.40875,
                        "value": 0
                    },
                    {
                        "number": 64,
                        "time": 116.45,
                        "value": 1
                    },
                    {
                        "number": 64,
                        "time": 116.70375,
                        "value": 0
                    },
                    {
                        "number": 64,
                        "time": 116.75,
                        "value": 1
                    },
                    {
                        "number": 64,
                        "time": 116.82125,
                        "value": 0
                    },
                    {
                        "number": 64,
                        "time": 117.0575,
                        "value": 1
                    },
                    {
                        "number": 64,
                        "time": 117.12125,
                        "value": 0
                    },
                    {
                        "number": 64,
                        "time": 117.3575,
                        "value": 1
                    },
                    {
                        "number": 64,
                        "time": 117.43625,
                        "value": 0
                    },
                    {
                        "number": 64,
                        "time": 117.65375,
                        "value": 1
                    },
                    {
                        "number": 64,
                        "time": 117.91375000000001,
                        "value": 0
                    },
                    {
                        "number": 64,
                        "time": 117.95750000000001,
                        "value": 1
                    },
                    {
                        "number": 64,
                        "time": 118.22125000000001,
                        "value": 0
                    },
                    {
                        "number": 64,
                        "time": 118.29375000000002,
                        "value": 1
                    },
                    {
                        "number": 64,
                        "time": 118.50500000000002,
                        "value": 0
                    },
                    {
                        "number": 64,
                        "time": 118.54625000000003,
                        "value": 1
                    },
                    {
                        "number": 64,
                        "time": 118.81000000000003,
                        "value": 0
                    },
                    {
                        "number": 64,
                        "time": 118.85375000000003,
                        "value": 1
                    },
                    {
                        "number": 64,
                        "time": 119.11375000000004,
                        "value": 0
                    },
                    {
                        "number": 64,
                        "time": 119.15750000000004,
                        "value": 1
                    },
                    {
                        "number": 64,
                        "time": 119.42250000000004,
                        "value": 0
                    },
                    {
                        "number": 64,
                        "time": 119.49375000000005,
                        "value": 1
                    },
                    {
                        "number": 64,
                        "time": 119.70500000000006,
                        "value": 0
                    },
                    {
                        "number": 64,
                        "time": 119.78625000000005,
                        "value": 1
                    },
                    {
                        "number": 64,
                        "time": 120.01000000000005,
                        "value": 0
                    },
                    {
                        "number": 64,
                        "time": 120.05375000000005,
                        "value": 1
                    },
                    {
                        "number": 64,
                        "time": 120.31375000000006,
                        "value": 0
                    },
                    {
                        "number": 64,
                        "time": 120.35750000000006,
                        "value": 1
                    },
                    {
                        "number": 64,
                        "time": 120.62500000000006,
                        "value": 0
                    },
                    {
                        "number": 64,
                        "time": 120.69375000000005,
                        "value": 1
                    },
                    {
                        "number": 64,
                        "time": 120.90500000000006,
                        "value": 0
                    },
                    {
                        "number": 64,
                        "time": 120.94625000000006,
                        "value": 1
                    },
                    {
                        "number": 64,
                        "time": 121.20750000000007,
                        "value": 0
                    },
                    {
                        "number": 64,
                        "time": 122.11500000000007,
                        "value": 1
                    },
                    {
                        "number": 64,
                        "time": 122.25500000000007,
                        "value": 0
                    },
                    {
                        "number": 64,
                        "time": 122.40000000000006,
                        "value": 0
                    },
                    {
                        "number": 64,
                        "time": 123.31500000000007,
                        "value": 1
                    },
                    {
                        "number": 64,
                        "time": 123.46125000000006,
                        "value": 0
                    },
                    {
                        "number": 64,
                        "time": 123.60000000000007,
                        "value": 0
                    },
                    {
                        "number": 64,
                        "time": 124.51500000000007,
                        "value": 1
                    },
                    {
                        "number": 64,
                        "time": 124.65875000000007,
                        "value": 0
                    },
                    {
                        "number": 64,
                        "time": 124.80000000000007,
                        "value": 0
                    },
                    {
                        "number": 64,
                        "time": 125.71500000000007,
                        "value": 1
                    },
                    {
                        "number": 64,
                        "time": 125.85750000000007,
                        "value": 0
                    },
                    {
                        "number": 64,
                        "time": 126.00000000000007,
                        "value": 0
                    },
                    {
                        "number": 64,
                        "time": 126.18625000000007,
                        "value": 1
                    },
                    {
                        "number": 64,
                        "time": 126.26875000000007,
                        "value": 0
                    },
                    {
                        "number": 64,
                        "time": 126.32875000000007,
                        "value": 1
                    },
                    {
                        "number": 64,
                        "time": 126.41875000000007,
                        "value": 0
                    },
                    {
                        "number": 64,
                        "time": 126.48250000000007,
                        "value": 1
                    },
                    {
                        "number": 64,
                        "time": 126.56875000000008,
                        "value": 0
                    },
                    {
                        "number": 64,
                        "time": 126.63625000000008,
                        "value": 1
                    },
                    {
                        "number": 64,
                        "time": 126.71125000000008,
                        "value": 0
                    },
                    {
                        "number": 64,
                        "time": 126.78250000000008,
                        "value": 1
                    },
                    {
                        "number": 64,
                        "time": 126.85750000000009,
                        "value": 0
                    },
                    {
                        "number": 64,
                        "time": 126.91500000000009,
                        "value": 1
                    },
                    {
                        "number": 64,
                        "time": 127.05750000000009,
                        "value": 0
                    },
                    {
                        "number": 64,
                        "time": 127.20000000000009,
                        "value": 0
                    },
                    {
                        "number": 64,
                        "time": 127.38625000000009,
                        "value": 1
                    },
                    {
                        "number": 64,
                        "time": 127.46875000000009,
                        "value": 0
                    },
                    {
                        "number": 64,
                        "time": 127.52875000000009,
                        "value": 1
                    },
                    {
                        "number": 64,
                        "time": 127.62125000000009,
                        "value": 0
                    },
                    {
                        "number": 64,
                        "time": 127.68250000000009,
                        "value": 1
                    },
                    {
                        "number": 64,
                        "time": 127.7687500000001,
                        "value": 0
                    },
                    {
                        "number": 64,
                        "time": 127.83625000000009,
                        "value": 1
                    },
                    {
                        "number": 64,
                        "time": 127.9250000000001,
                        "value": 0
                    },
                    {
                        "number": 64,
                        "time": 127.9825000000001,
                        "value": 1
                    },
                    {
                        "number": 64,
                        "time": 128.0712500000001,
                        "value": 0
                    },
                    {
                        "number": 64,
                        "time": 128.1150000000001,
                        "value": 1
                    },
                    {
                        "number": 64,
                        "time": 128.2575000000001,
                        "value": 0
                    },
                    {
                        "number": 64,
                        "time": 128.5825000000001,
                        "value": 1
                    },
                    {
                        "number": 64,
                        "time": 128.6362500000001,
                        "value": 0
                    },
                    {
                        "number": 64,
                        "time": 128.71500000000012,
                        "value": 1
                    },
                    {
                        "number": 64,
                        "time": 128.86000000000013,
                        "value": 0
                    },
                    {
                        "number": 64,
                        "time": 129.18250000000012,
                        "value": 1
                    },
                    {
                        "number": 64,
                        "time": 129.23625000000013,
                        "value": 0
                    },
                    {
                        "number": 64,
                        "time": 129.31500000000014,
                        "value": 1
                    },
                    {
                        "number": 64,
                        "time": 129.45500000000013,
                        "value": 0
                    },
                    {
                        "number": 64,
                        "time": 129.75375000000014,
                        "value": 1
                    },
                    {
                        "number": 64,
                        "time": 129.91250000000014,
                        "value": 0
                    },
                    {
                        "number": 64,
                        "time": 129.96125000000015,
                        "value": 1
                    },
                    {
                        "number": 64,
                        "time": 130.05000000000015,
                        "value": 0
                    },
                    {
                        "number": 64,
                        "time": 130.09375000000014,
                        "value": 1
                    },
                    {
                        "number": 64,
                        "time": 130.20750000000015,
                        "value": 0
                    },
                    {
                        "number": 64,
                        "time": 130.24375000000015,
                        "value": 1
                    },
                    {
                        "number": 64,
                        "time": 130.35750000000016,
                        "value": 0
                    },
                    {
                        "number": 64,
                        "time": 130.37875000000017,
                        "value": 1
                    },
                    {
                        "number": 64,
                        "time": 130.50875000000016,
                        "value": 0
                    },
                    {
                        "number": 64,
                        "time": 130.54000000000016,
                        "value": 1
                    },
                    {
                        "number": 64,
                        "time": 130.65750000000017,
                        "value": 0
                    },
                    {
                        "number": 64,
                        "time": 130.70375000000016,
                        "value": 1
                    },
                    {
                        "number": 64,
                        "time": 130.81500000000017,
                        "value": 0
                    },
                    {
                        "number": 64,
                        "time": 130.85000000000016,
                        "value": 1
                    },
                    {
                        "number": 64,
                        "time": 130.95875000000015,
                        "value": 0
                    },
                    {
                        "number": 64,
                        "time": 130.99375000000015,
                        "value": 1
                    },
                    {
                        "number": 64,
                        "time": 131.10750000000016,
                        "value": 0
                    },
                    {
                        "number": 64,
                        "time": 131.14625000000015,
                        "value": 1
                    },
                    {
                        "number": 64,
                        "time": 131.26250000000016,
                        "value": 0
                    },
                    {
                        "number": 64,
                        "time": 131.28625000000017,
                        "value": 1
                    },
                    {
                        "number": 64,
                        "time": 131.40750000000017,
                        "value": 0
                    },
                    {
                        "number": 64,
                        "time": 131.44000000000017,
                        "value": 1
                    },
                    {
                        "number": 64,
                        "time": 131.56500000000017,
                        "value": 0
                    },
                    {
                        "number": 64,
                        "time": 131.59000000000017,
                        "value": 1
                    },
                    {
                        "number": 64,
                        "time": 131.70375000000018,
                        "value": 0
                    },
                    {
                        "number": 64,
                        "time": 131.74375000000018,
                        "value": 1
                    },
                    {
                        "number": 64,
                        "time": 131.86125000000018,
                        "value": 0
                    },
                    {
                        "number": 64,
                        "time": 131.9112500000002,
                        "value": 1
                    },
                    {
                        "number": 64,
                        "time": 132.01500000000019,
                        "value": 0
                    },
                    {
                        "number": 64,
                        "time": 132.0437500000002,
                        "value": 1
                    },
                    {
                        "number": 64,
                        "time": 132.1600000000002,
                        "value": 0
                    },
                    {
                        "number": 64,
                        "time": 132.2000000000002,
                        "value": 1
                    },
                    {
                        "number": 64,
                        "time": 132.3125000000002,
                        "value": 0
                    },
                    {
                        "number": 64,
                        "time": 132.3362500000002,
                        "value": 1
                    },
                    {
                        "number": 64,
                        "time": 132.4562500000002,
                        "value": 0
                    },
                    {
                        "number": 64,
                        "time": 132.5000000000002,
                        "value": 1
                    },
                    {
                        "number": 64,
                        "time": 132.6137500000002,
                        "value": 0
                    },
                    {
                        "number": 64,
                        "time": 132.66125000000022,
                        "value": 1
                    },
                    {
                        "number": 64,
                        "time": 133.20875000000024,
                        "value": 0
                    },
                    {
                        "number": 64,
                        "time": 133.25375000000022,
                        "value": 1
                    },
                    {
                        "number": 64,
                        "time": 133.81500000000023,
                        "value": 0
                    },
                    {
                        "number": 64,
                        "time": 133.85750000000021,
                        "value": 1
                    },
                    {
                        "number": 64,
                        "time": 134.4037500000002,
                        "value": 0
                    },
                    {
                        "number": 64,
                        "time": 136.8287500000002,
                        "value": 1
                    },
                    {
                        "number": 64,
                        "time": 136.91500000000022,
                        "value": 0
                    },
                    {
                        "number": 64,
                        "time": 137.15750000000023,
                        "value": 1
                    },
                    {
                        "number": 64,
                        "time": 138.00500000000022,
                        "value": 0
                    },
                    {
                        "number": 64,
                        "time": 138.06000000000023,
                        "value": 1
                    },
                    {
                        "number": 64,
                        "time": 138.12875000000022,
                        "value": 0
                    },
                    {
                        "number": 64,
                        "time": 138.32500000000022,
                        "value": 1
                    },
                    {
                        "number": 64,
                        "time": 138.62875000000022,
                        "value": 0
                    },
                    {
                        "number": 64,
                        "time": 138.66125000000022,
                        "value": 1
                    },
                    {
                        "number": 64,
                        "time": 138.73250000000021,
                        "value": 0
                    },
                    {
                        "number": 64,
                        "time": 138.95000000000022,
                        "value": 1
                    },
                    {
                        "number": 64,
                        "time": 139.2037500000002,
                        "value": 0
                    },
                    {
                        "number": 64,
                        "time": 144.0000000000002,
                        "value": 0
                    },
                    {
                        "number": 64,
                        "time": 144.9112500000002,
                        "value": 1
                    },
                    {
                        "number": 64,
                        "time": 145.0537500000002,
                        "value": 0
                    },
                    {
                        "number": 64,
                        "time": 145.3425000000002,
                        "value": 1
                    },
                    {
                        "number": 64,
                        "time": 145.8087500000002,
                        "value": 0
                    },
                    {
                        "number": 64,
                        "time": 145.8225000000002,
                        "value": 1
                    },
                    {
                        "number": 64,
                        "time": 146.4100000000002,
                        "value": 0
                    },
                    {
                        "number": 64,
                        "time": 147.3112500000002,
                        "value": 1
                    },
                    {
                        "number": 64,
                        "time": 147.4537500000002,
                        "value": 0
                    },
                    {
                        "number": 64,
                        "time": 147.7425000000002,
                        "value": 1
                    },
                    {
                        "number": 64,
                        "time": 148.2062500000002,
                        "value": 0
                    },
                    {
                        "number": 64,
                        "time": 148.2350000000002,
                        "value": 1
                    },
                    {
                        "number": 64,
                        "time": 148.8337500000002,
                        "value": 0
                    },
                    {
                        "number": 64,
                        "time": 148.9425000000002,
                        "value": 1
                    },
                    {
                        "number": 64,
                        "time": 149.4125000000002,
                        "value": 0
                    },
                    {
                        "number": 64,
                        "time": 149.4462500000002,
                        "value": 1
                    },
                    {
                        "number": 64,
                        "time": 150.0312500000002,
                        "value": 0
                    },
                    {
                        "number": 64,
                        "time": 150.1687500000002,
                        "value": 1
                    },
                    {
                        "number": 64,
                        "time": 150.61250000000018,
                        "value": 0
                    },
                    {
                        "number": 64,
                        "time": 150.67125000000019,
                        "value": 1
                    },
                    {
                        "number": 64,
                        "time": 151.21000000000018,
                        "value": 0
                    },
                    {
                        "number": 64,
                        "time": 151.2612500000002,
                        "value": 1
                    },
                    {
                        "number": 64,
                        "time": 151.51500000000019,
                        "value": 0
                    },
                    {
                        "number": 64,
                        "time": 151.5712500000002,
                        "value": 1
                    },
                    {
                        "number": 64,
                        "time": 152.43000000000018,
                        "value": 0
                    },
                    {
                        "number": 64,
                        "time": 152.5425000000002,
                        "value": 1
                    },
                    {
                        "number": 64,
                        "time": 153.62000000000018,
                        "value": 0
                    },
                    {
                        "number": 64,
                        "time": 153.82125000000016,
                        "value": 1
                    },
                    {
                        "number": 64,
                        "time": 154.82000000000016,
                        "value": 0
                    },
                    {
                        "number": 64,
                        "time": 154.97875000000016,
                        "value": 1
                    },
                    {
                        "number": 64,
                        "time": 157.80375000000015,
                        "value": 0
                    },
                    {
                        "number": 64,
                        "time": 157.83625000000015,
                        "value": 1
                    },
                    {
                        "number": 64,
                        "time": 158.10000000000014,
                        "value": 0
                    },
                    {
                        "number": 64,
                        "time": 158.40000000000015,
                        "value": 1
                    },
                    {
                        "number": 64,
                        "time": 158.57625000000016,
                        "value": 0
                    }
                ]
            },
            "id": 3,
            "name": "Pedale",
            "instrumentNumber": 0,
            "instrument": "acoustic grand piano",
            "instrumentFamily": "piano",
            "channelNumber": 0,
            "isPercussion": false
        },
        {
            "startTime": 0,
            "duration": 0,
            "length": 0,
            "notes": [],
            "controlChanges": {
                "64": [
                    {
                        "number": 64,
                        "time": 81.6,
                        "value": 0
                    },
                    {
                        "number": 64,
                        "time": 81.6,
                        "value": 0
                    },
                    {
                        "number": 64,
                        "time": 81.64125,
                        "value": 1
                    },
                    {
                        "number": 64,
                        "time": 82.8,
                        "value": 0
                    },
                    {
                        "number": 64,
                        "time": 84,
                        "value": 0
                    },
                    {
                        "number": 64,
                        "time": 84.3,
                        "value": 0
                    },
                    {
                        "number": 64,
                        "time": 84.6,
                        "value": 0
                    },
                    {
                        "number": 64,
                        "time": 84.89999999999999,
                        "value": 0
                    }
                ]
            },
            "id": 4,
            "name": "Franz Liszt: Etudes d'execution transcendante No. 5"
        },
        {
            "startTime": 0,
            "duration": 0,
            "length": 0,
            "notes": [],
            "controlChanges": {},
            "id": 5,
            "name": "Copyright  2006 by Bernd Krueger"
        },
        {
            "startTime": 0,
            "duration": 0,
            "length": 0,
            "notes": [],
            "controlChanges": {},
            "id": 6,
            "name": "http://www.piano-midi.de/"
        },
        {
            "startTime": 0,
            "duration": 0,
            "length": 0,
            "notes": [],
            "controlChanges": {},
            "id": 7,
            "name": "Edition: 2014-03-06"
        },
        {
            "startTime": 0,
            "duration": 0,
            "length": 0,
            "notes": [],
            "controlChanges": {},
            "id": 8,
            "name": "Spur 8"
        },
        {
            "startTime": 0,
            "duration": 0,
            "length": 0,
            "notes": [],
            "controlChanges": {},
            "id": 9,
            "name": "Spur 9"
        },
        {
            "startTime": 0,
            "duration": 0,
            "length": 0,
            "notes": [],
            "controlChanges": {},
            "id": 10,
            "name": "Spur 10"
        },
        {
            "startTime": 0,
            "duration": 0,
            "length": 0,
            "notes": [],
            "controlChanges": {},
            "id": 11,
            "name": "Spur 11"
        },
        {
            "startTime": 0,
            "duration": 0,
            "length": 0,
            "notes": [],
            "controlChanges": {},
            "id": 12,
            "name": "Spur 12"
        },
        {
            "startTime": 0,
            "duration": 0,
            "length": 0,
            "notes": [],
            "controlChanges": {},
            "id": 13,
            "name": "Spur 13"
        },
        {
            "startTime": 0,
            "duration": 0,
            "length": 0,
            "notes": [],
            "controlChanges": {},
            "id": 14,
            "name": "Spur 14"
        },
        {
            "startTime": 0,
            "duration": 0,
            "length": 0,
            "notes": [],
            "controlChanges": {},
            "id": 15,
            "name": "Spur 15"
        },
        {
            "startTime": 0,
            "duration": 0,
            "length": 0,
            "notes": [],
            "controlChanges": {},
            "id": 16,
            "name": "Spur 16"
        }
    ]
}