{
    "header": {
        "PPQ": 480,
        "timeSignature": [
            8,
            8
        ],
        "bpm": 190.0002850004275,
        "name": "Etude No. 6 aus Grandes Etudes de Paganini"
    },
    "startTime": 0,
    "duration": 173.6839499999985,
    "tracks": [
        {
            "startTime": 0,
            "duration": 0,
            "length": 0,
            "notes": [],
            "controlChanges": {},
            "id": 0,
            "name": "Etude No. 6 aus Grandes Etudes de Paganini"
        },
        {
            "startTime": 0.5723675625,
            "duration": 173.683949999995,
            "length": 2530,
            "notes": [
                {
                    "name": "E4",
                    "midi": 64,
                    "time": 0.5723675625,
                    "velocity": 0.3464566929133858,
                    "duration": 0.13815768750000013
                },
                {
                    "name": "A4",
                    "midi": 69,
                    "time": 0.592104375,
                    "velocity": 0.3779527559055118,
                    "duration": 0.11842087500000009
                },
                {
                    "name": "C5",
                    "midi": 72,
                    "time": 0.6118411875,
                    "velocity": 0.41732283464566927,
                    "duration": 0.09868406250000006
                },
                {
                    "name": "A5",
                    "midi": 81,
                    "time": 0.6315780000000001,
                    "velocity": 0.48031496062992124,
                    "duration": 0.07894725000000002
                },
                {
                    "name": "A4",
                    "midi": 69,
                    "time": 0.9078933750000001,
                    "velocity": 0.3779527559055118,
                    "duration": 0.036184156250000044
                },
                {
                    "name": "A4",
                    "midi": 69,
                    "time": 0.9473670000000002,
                    "velocity": 0.44881889763779526,
                    "duration": 0.07894725000000002
                },
                {
                    "name": "C5",
                    "midi": 72,
                    "time": 1.0263142500000002,
                    "velocity": 0.4251968503937008,
                    "duration": 0.07894724999999991
                },
                {
                    "name": "B4",
                    "midi": 71,
                    "time": 1.1052615000000001,
                    "velocity": 0.44881889763779526,
                    "duration": 0.07894724999999991
                },
                {
                    "name": "A4",
                    "midi": 69,
                    "time": 1.18420875,
                    "velocity": 0.4251968503937008,
                    "duration": 0.07894724999999991
                },
                {
                    "name": "B4",
                    "midi": 71,
                    "time": 1.3618400625,
                    "velocity": 0.3543307086614173,
                    "duration": 0.13815768749999968
                },
                {
                    "name": "E5",
                    "midi": 76,
                    "time": 1.381576875,
                    "velocity": 0.3858267716535433,
                    "duration": 0.11842087499999976
                },
                {
                    "name": "G#5",
                    "midi": 80,
                    "time": 1.4013136874999998,
                    "velocity": 0.41732283464566927,
                    "duration": 0.09868406249999984
                },
                {
                    "name": "E6",
                    "midi": 88,
                    "time": 1.4210504999999998,
                    "velocity": 0.4645669291338583,
                    "duration": 0.07894724999999991
                },
                {
                    "name": "E4",
                    "midi": 64,
                    "time": 1.6973658749999996,
                    "velocity": 0.3779527559055118,
                    "duration": 0.036184156250000044
                },
                {
                    "name": "E4",
                    "midi": 64,
                    "time": 1.7368394999999996,
                    "velocity": 0.44881889763779526,
                    "duration": 0.07894724999999991
                },
                {
                    "name": "G#4",
                    "midi": 68,
                    "time": 1.8157867499999996,
                    "velocity": 0.4251968503937008,
                    "duration": 0.07894724999999991
                },
                {
                    "name": "F#4",
                    "midi": 66,
                    "time": 1.8947339999999995,
                    "velocity": 0.44881889763779526,
                    "duration": 0.07894724999999991
                },
                {
                    "name": "E4",
                    "midi": 64,
                    "time": 1.9736812499999994,
                    "velocity": 0.4251968503937008,
                    "duration": 0.07894725000000014
                },
                {
                    "name": "E4",
                    "midi": 64,
                    "time": 2.1513125624999994,
                    "velocity": 0.3464566929133858,
                    "duration": 0.13815768750000057
                },
                {
                    "name": "A4",
                    "midi": 69,
                    "time": 2.1710493749999995,
                    "velocity": 0.3700787401574803,
                    "duration": 0.11842087500000043
                },
                {
                    "name": "C5",
                    "midi": 72,
                    "time": 2.1907861874999996,
                    "velocity": 0.4015748031496063,
                    "duration": 0.09868406250000028
                },
                {
                    "name": "A5",
                    "midi": 81,
                    "time": 2.210523,
                    "velocity": 0.4645669291338583,
                    "duration": 0.07894725000000014
                },
                {
                    "name": "A4",
                    "midi": 69,
                    "time": 2.486838375,
                    "velocity": 0.3779527559055118,
                    "duration": 0.036184156250000044
                },
                {
                    "name": "A4",
                    "midi": 69,
                    "time": 2.526312,
                    "velocity": 0.44881889763779526,
                    "duration": 0.07894725000000014
                },
                {
                    "name": "C5",
                    "midi": 72,
                    "time": 2.60525925,
                    "velocity": 0.4251968503937008,
                    "duration": 0.07894725000000014
                },
                {
                    "name": "B4",
                    "midi": 71,
                    "time": 2.6842065,
                    "velocity": 0.44881889763779526,
                    "duration": 0.07894725000000014
                },
                {
                    "name": "A4",
                    "midi": 69,
                    "time": 2.7631537500000003,
                    "velocity": 0.4251968503937008,
                    "duration": 0.07894725000000014
                },
                {
                    "name": "B4",
                    "midi": 71,
                    "time": 2.9407850625000003,
                    "velocity": 0.3779527559055118,
                    "duration": 0.13815768750000057
                },
                {
                    "name": "G#5",
                    "midi": 80,
                    "time": 2.9605218750000004,
                    "velocity": 0.4015748031496063,
                    "duration": 0.11842087500000043
                },
                {
                    "name": "E6",
                    "midi": 88,
                    "time": 2.9802586875000006,
                    "velocity": 0.4251968503937008,
                    "duration": 0.09868406250000028
                },
                {
                    "name": "E5",
                    "midi": 76,
                    "time": 2.9999955000000007,
                    "velocity": 0.49606299212598426,
                    "duration": 0.3157890000000001
                },
                {
                    "name": "E4",
                    "midi": 64,
                    "time": 3.315784500000001,
                    "velocity": 0.4881889763779528,
                    "duration": 0.07894725000000014
                },
                {
                    "name": "E4",
                    "midi": 64,
                    "time": 3.7302575625000007,
                    "velocity": 0.28346456692913385,
                    "duration": 0.13815768750000057
                },
                {
                    "name": "A4",
                    "midi": 69,
                    "time": 3.749994375000001,
                    "velocity": 0.31496062992125984,
                    "duration": 0.11842087500000043
                },
                {
                    "name": "C5",
                    "midi": 72,
                    "time": 3.769731187500001,
                    "velocity": 0.33070866141732286,
                    "duration": 0.09868406250000028
                },
                {
                    "name": "A5",
                    "midi": 81,
                    "time": 3.789468000000001,
                    "velocity": 0.3543307086614173,
                    "duration": 0.07894725000000014
                },
                {
                    "name": "A4",
                    "midi": 69,
                    "time": 4.065783375000001,
                    "velocity": 0.28346456692913385,
                    "duration": 0.036184156250000044
                },
                {
                    "name": "A4",
                    "midi": 69,
                    "time": 4.105257000000002,
                    "velocity": 0.33858267716535434,
                    "duration": 0.07894724999999969
                },
                {
                    "name": "C5",
                    "midi": 72,
                    "time": 4.184204250000001,
                    "velocity": 0.31496062992125984,
                    "duration": 0.07894724999999969
                },
                {
                    "name": "B4",
                    "midi": 71,
                    "time": 4.263151500000001,
                    "velocity": 0.33858267716535434,
                    "duration": 0.07894724999999969
                },
                {
                    "name": "A4",
                    "midi": 69,
                    "time": 4.342098750000001,
                    "velocity": 0.31496062992125984,
                    "duration": 0.07894724999999969
                },
                {
                    "name": "B4",
                    "midi": 71,
                    "time": 4.519730062500001,
                    "velocity": 0.28346456692913385,
                    "duration": 0.1381576874999988
                },
                {
                    "name": "E5",
                    "midi": 76,
                    "time": 4.5394668750000005,
                    "velocity": 0.30708661417322836,
                    "duration": 0.11842087499999909
                },
                {
                    "name": "G#5",
                    "midi": 80,
                    "time": 4.5592036875,
                    "velocity": 0.3228346456692913,
                    "duration": 0.09868406249999939
                },
                {
                    "name": "E6",
                    "midi": 88,
                    "time": 4.5789405,
                    "velocity": 0.3464566929133858,
                    "duration": 0.07894724999999969
                },
                {
                    "name": "E4",
                    "midi": 64,
                    "time": 4.855255874999999,
                    "velocity": 0.28346456692913385,
                    "duration": 0.036184156250000044
                },
                {
                    "name": "E4",
                    "midi": 64,
                    "time": 4.8947294999999995,
                    "velocity": 0.33858267716535434,
                    "duration": 0.07894724999999969
                },
                {
                    "name": "G#4",
                    "midi": 68,
                    "time": 4.973676749999999,
                    "velocity": 0.31496062992125984,
                    "duration": 0.07894724999999969
                },
                {
                    "name": "F#4",
                    "midi": 66,
                    "time": 5.052623999999999,
                    "velocity": 0.33858267716535434,
                    "duration": 0.07894724999999969
                },
                {
                    "name": "E4",
                    "midi": 64,
                    "time": 5.131571249999999,
                    "velocity": 0.31496062992125984,
                    "duration": 0.07894724999999969
                },
                {
                    "name": "E4",
                    "midi": 64,
                    "time": 5.309202562499999,
                    "velocity": 0.28346456692913385,
                    "duration": 0.1381576874999988
                },
                {
                    "name": "A4",
                    "midi": 69,
                    "time": 5.328939374999998,
                    "velocity": 0.30708661417322836,
                    "duration": 0.11842087499999909
                },
                {
                    "name": "C5",
                    "midi": 72,
                    "time": 5.348676187499998,
                    "velocity": 0.3228346456692913,
                    "duration": 0.09868406249999939
                },
                {
                    "name": "A5",
                    "midi": 81,
                    "time": 5.368412999999998,
                    "velocity": 0.3464566929133858,
                    "duration": 0.07894724999999969
                },
                {
                    "name": "A4",
                    "midi": 69,
                    "time": 5.644728374999997,
                    "velocity": 0.28346456692913385,
                    "duration": 0.036184156250000044
                },
                {
                    "name": "A4",
                    "midi": 69,
                    "time": 5.684201999999997,
                    "velocity": 0.33858267716535434,
                    "duration": 0.07894724999999969
                },
                {
                    "name": "C5",
                    "midi": 72,
                    "time": 5.763149249999997,
                    "velocity": 0.31496062992125984,
                    "duration": 0.07894724999999969
                },
                {
                    "name": "B4",
                    "midi": 71,
                    "time": 5.842096499999997,
                    "velocity": 0.33858267716535434,
                    "duration": 0.07894724999999969
                },
                {
                    "name": "A4",
                    "midi": 69,
                    "time": 5.921043749999996,
                    "velocity": 0.31496062992125984,
                    "duration": 0.07894724999999969
                },
                {
                    "name": "B4",
                    "midi": 71,
                    "time": 6.098675062499996,
                    "velocity": 0.28346456692913385,
                    "duration": 0.1381576874999988
                },
                {
                    "name": "G#5",
                    "midi": 80,
                    "time": 6.118411874999996,
                    "velocity": 0.3228346456692913,
                    "duration": 0.11842087499999909
                },
                {
                    "name": "E6",
                    "midi": 88,
                    "time": 6.138148687499996,
                    "velocity": 0.33858267716535434,
                    "duration": 0.09868406249999939
                },
                {
                    "name": "E5",
                    "midi": 76,
                    "time": 6.1578854999999955,
                    "velocity": 0.41732283464566927,
                    "duration": 0.31578899999999965
                },
                {
                    "name": "E4",
                    "midi": 64,
                    "time": 6.473674499999995,
                    "velocity": 0.41732283464566927,
                    "duration": 0.07894724999999969
                },
                {
                    "name": "E5",
                    "midi": 76,
                    "time": 6.888147562499995,
                    "velocity": 0.36220472440944884,
                    "duration": 0.1381576874999988
                },
                {
                    "name": "A5",
                    "midi": 81,
                    "time": 6.907884374999995,
                    "velocity": 0.3937007874015748,
                    "duration": 0.11842087499999909
                },
                {
                    "name": "C#6",
                    "midi": 85,
                    "time": 6.9276211874999944,
                    "velocity": 0.41732283464566927,
                    "duration": 0.09868406249999939
                },
                {
                    "name": "A6",
                    "midi": 93,
                    "time": 6.947357999999994,
                    "velocity": 0.48031496062992124,
                    "duration": 0.07894724999999969
                },
                {
                    "name": "A5",
                    "midi": 81,
                    "time": 7.2236733749999935,
                    "velocity": 0.3779527559055118,
                    "duration": 0.036184156250000044
                },
                {
                    "name": "A5",
                    "midi": 81,
                    "time": 7.263146999999994,
                    "velocity": 0.44881889763779526,
                    "duration": 0.07894724999999969
                },
                {
                    "name": "A#5",
                    "midi": 82,
                    "time": 7.3420942499999935,
                    "velocity": 0.4251968503937008,
                    "duration": 0.07894724999999969
                },
                {
                    "name": "A5",
                    "midi": 81,
                    "time": 7.421041499999993,
                    "velocity": 0.44881889763779526,
                    "duration": 0.07894724999999969
                },
                {
                    "name": "G5",
                    "midi": 79,
                    "time": 7.499988749999993,
                    "velocity": 0.4251968503937008,
                    "duration": 0.07894724999999969
                },
                {
                    "name": "A4",
                    "midi": 69,
                    "time": 7.677620062499993,
                    "velocity": 0.3543307086614173,
                    "duration": 0.1381576874999988
                },
                {
                    "name": "F5",
                    "midi": 77,
                    "time": 7.6973568749999925,
                    "velocity": 0.3858267716535433,
                    "duration": 0.11842087499999909
                },
                {
                    "name": "A5",
                    "midi": 81,
                    "time": 7.717093687499992,
                    "velocity": 0.4094488188976378,
                    "duration": 0.09868406249999939
                },
                {
                    "name": "F6",
                    "midi": 89,
                    "time": 7.736830499999992,
                    "velocity": 0.48031496062992124,
                    "duration": 0.07894724999999969
                },
                {
                    "name": "D5",
                    "midi": 74,
                    "time": 8.013145874999992,
                    "velocity": 0.3779527559055118,
                    "duration": 0.036184156250000044
                },
                {
                    "name": "D5",
                    "midi": 74,
                    "time": 8.052619499999992,
                    "velocity": 0.44881889763779526,
                    "duration": 0.07894725000000058
                },
                {
                    "name": "F5",
                    "midi": 77,
                    "time": 8.131566749999992,
                    "velocity": 0.4251968503937008,
                    "duration": 0.07894725000000058
                },
                {
                    "name": "E5",
                    "midi": 76,
                    "time": 8.210513999999993,
                    "velocity": 0.44881889763779526,
                    "duration": 0.07894725000000058
                },
                {
                    "name": "D5",
                    "midi": 74,
                    "time": 8.289461249999993,
                    "velocity": 0.4251968503937008,
                    "duration": 0.07894725000000058
                },
                {
                    "name": "D5",
                    "midi": 74,
                    "time": 8.467092562499994,
                    "velocity": 0.3543307086614173,
                    "duration": 0.13815768749999968
                },
                {
                    "name": "G5",
                    "midi": 79,
                    "time": 8.486829374999994,
                    "velocity": 0.3779527559055118,
                    "duration": 0.11842087499999998
                },
                {
                    "name": "B5",
                    "midi": 83,
                    "time": 8.506566187499994,
                    "velocity": 0.4094488188976378,
                    "duration": 0.09868406250000028
                },
                {
                    "name": "G6",
                    "midi": 91,
                    "time": 8.526302999999993,
                    "velocity": 0.48031496062992124,
                    "duration": 0.07894725000000058
                },
                {
                    "name": "G5",
                    "midi": 79,
                    "time": 8.802618374999994,
                    "velocity": 0.3779527559055118,
                    "duration": 0.036184156250000044
                },
                {
                    "name": "G5",
                    "midi": 79,
                    "time": 8.842091999999994,
                    "velocity": 0.44881889763779526,
                    "duration": 0.07894725000000058
                },
                {
                    "name": "A5",
                    "midi": 81,
                    "time": 8.921039249999994,
                    "velocity": 0.4251968503937008,
                    "duration": 0.07894725000000058
                },
                {
                    "name": "G5",
                    "midi": 79,
                    "time": 8.999986499999995,
                    "velocity": 0.44881889763779526,
                    "duration": 0.07894725000000058
                },
                {
                    "name": "F5",
                    "midi": 77,
                    "time": 9.078933749999996,
                    "velocity": 0.4251968503937008,
                    "duration": 0.07894725000000058
                },
                {
                    "name": "G4",
                    "midi": 67,
                    "time": 9.256565062499996,
                    "velocity": 0.3543307086614173,
                    "duration": 0.13815768749999968
                },
                {
                    "name": "E5",
                    "midi": 76,
                    "time": 9.276301874999996,
                    "velocity": 0.3779527559055118,
                    "duration": 0.11842087499999998
                },
                {
                    "name": "G5",
                    "midi": 79,
                    "time": 9.296038687499996,
                    "velocity": 0.4094488188976378,
                    "duration": 0.09868406250000028
                },
                {
                    "name": "E6",
                    "midi": 88,
                    "time": 9.315775499999996,
                    "velocity": 0.48031496062992124,
                    "duration": 0.07894725000000058
                },
                {
                    "name": "C5",
                    "midi": 72,
                    "time": 9.592090874999997,
                    "velocity": 0.3779527559055118,
                    "duration": 0.036184156250000044
                },
                {
                    "name": "C5",
                    "midi": 72,
                    "time": 9.631564499999996,
                    "velocity": 0.4015748031496063,
                    "duration": 0.07894725000000058
                },
                {
                    "name": "E5",
                    "midi": 76,
                    "time": 9.710511749999997,
                    "velocity": 0.3779527559055118,
                    "duration": 0.07894725000000058
                },
                {
                    "name": "D5",
                    "midi": 74,
                    "time": 9.789458999999997,
                    "velocity": 0.3937007874015748,
                    "duration": 0.07894725000000058
                },
                {
                    "name": "C5",
                    "midi": 72,
                    "time": 9.868406249999998,
                    "velocity": 0.3700787401574803,
                    "duration": 0.07894725000000058
                },
                {
                    "name": "B4",
                    "midi": 71,
                    "time": 10.046037562499999,
                    "velocity": 0.30708661417322836,
                    "duration": 0.13815768749999968
                },
                {
                    "name": "F5",
                    "midi": 77,
                    "time": 10.065774374999998,
                    "velocity": 0.33070866141732286,
                    "duration": 0.11842087499999998
                },
                {
                    "name": "B5",
                    "midi": 83,
                    "time": 10.085511187499998,
                    "velocity": 0.3543307086614173,
                    "duration": 0.09868406250000028
                },
                {
                    "name": "F6",
                    "midi": 89,
                    "time": 10.105247999999998,
                    "velocity": 0.41732283464566927,
                    "duration": 0.07894725000000058
                },
                {
                    "name": "B4",
                    "midi": 71,
                    "time": 10.381563374999999,
                    "velocity": 0.31496062992125984,
                    "duration": 0.036184156250000044
                },
                {
                    "name": "B4",
                    "midi": 71,
                    "time": 10.421036999999998,
                    "velocity": 0.3700787401574803,
                    "duration": 0.07894725000000058
                },
                {
                    "name": "D5",
                    "midi": 74,
                    "time": 10.499984249999999,
                    "velocity": 0.3543307086614173,
                    "duration": 0.07894725000000058
                },
                {
                    "name": "C5",
                    "midi": 72,
                    "time": 10.5789315,
                    "velocity": 0.3700787401574803,
                    "duration": 0.07894725000000058
                },
                {
                    "name": "B4",
                    "midi": 71,
                    "time": 10.65787875,
                    "velocity": 0.3464566929133858,
                    "duration": 0.07894725000000058
                },
                {
                    "name": "A4",
                    "midi": 69,
                    "time": 10.835510062500001,
                    "velocity": 0.28346456692913385,
                    "duration": 0.13815768749999968
                },
                {
                    "name": "E5",
                    "midi": 76,
                    "time": 10.855246875,
                    "velocity": 0.30708661417322836,
                    "duration": 0.11842087499999998
                },
                {
                    "name": "A5",
                    "midi": 81,
                    "time": 10.8749836875,
                    "velocity": 0.33070866141732286,
                    "duration": 0.09868406250000028
                },
                {
                    "name": "E6",
                    "midi": 88,
                    "time": 10.8947205,
                    "velocity": 0.3779527559055118,
                    "duration": 0.07894725000000058
                },
                {
                    "name": "A4",
                    "midi": 69,
                    "time": 11.171035875000001,
                    "velocity": 0.31496062992125984,
                    "duration": 0.036184156250000044
                },
                {
                    "name": "A4",
                    "midi": 69,
                    "time": 11.2105095,
                    "velocity": 0.3779527559055118,
                    "duration": 0.07894725000000058
                },
                {
                    "name": "C5",
                    "midi": 72,
                    "time": 11.289456750000001,
                    "velocity": 0.3543307086614173,
                    "duration": 0.07894725000000058
                },
                {
                    "name": "B4",
                    "midi": 71,
                    "time": 11.368404000000002,
                    "velocity": 0.3779527559055118,
                    "duration": 0.07894725000000058
                },
                {
                    "name": "A4",
                    "midi": 69,
                    "time": 11.447351250000002,
                    "velocity": 0.3543307086614173,
                    "duration": 0.07894725000000058
                },
                {
                    "name": "F4",
                    "midi": 65,
                    "time": 11.526298500000003,
                    "velocity": 0.4094488188976378,
                    "duration": 0.31578900000000054
                },
                {
                    "name": "D#5",
                    "midi": 75,
                    "time": 11.763140250000003,
                    "velocity": 0.31496062992125984,
                    "duration": 0.07894725000000058
                },
                {
                    "name": "E4",
                    "midi": 64,
                    "time": 11.842087500000003,
                    "velocity": 0.36220472440944884,
                    "duration": 0.3157890000000023
                },
                {
                    "name": "E5",
                    "midi": 76,
                    "time": 11.921034750000004,
                    "velocity": 0.31496062992125984,
                    "duration": 0.07894725000000058
                },
                {
                    "name": "D5",
                    "midi": 74,
                    "time": 11.999982000000005,
                    "velocity": 0.36220472440944884,
                    "duration": 0.07894725000000058
                },
                {
                    "name": "B4",
                    "midi": 71,
                    "time": 12.078929250000005,
                    "velocity": 0.31496062992125984,
                    "duration": 0.07894725000000058
                },
                {
                    "name": "E4",
                    "midi": 64,
                    "time": 12.157876500000006,
                    "velocity": 0.3543307086614173,
                    "duration": 0.31578900000000054
                },
                {
                    "name": "A4",
                    "midi": 69,
                    "time": 12.157876500000006,
                    "velocity": 0.3543307086614173,
                    "duration": 0.31578900000000054
                },
                {
                    "name": "A5",
                    "midi": 81,
                    "time": 12.473665500000006,
                    "velocity": 0.31496062992125984,
                    "duration": 0.07894725000000058
                },
                {
                    "name": "C5",
                    "midi": 72,
                    "time": 12.473665500000006,
                    "velocity": 0.31496062992125984,
                    "duration": 0.07894725000000058
                },
                {
                    "name": "E5",
                    "midi": 76,
                    "time": 12.888138562500007,
                    "velocity": 0.28346456692913385,
                    "duration": 0.13815768749999968
                },
                {
                    "name": "A5",
                    "midi": 81,
                    "time": 12.907875375000007,
                    "velocity": 0.31496062992125984,
                    "duration": 0.11842087499999998
                },
                {
                    "name": "C#6",
                    "midi": 85,
                    "time": 12.927612187500007,
                    "velocity": 0.33070866141732286,
                    "duration": 0.09868406250000028
                },
                {
                    "name": "A6",
                    "midi": 93,
                    "time": 12.947349000000006,
                    "velocity": 0.3543307086614173,
                    "duration": 0.07894725000000058
                },
                {
                    "name": "A5",
                    "midi": 81,
                    "time": 13.223664375000007,
                    "velocity": 0.28346456692913385,
                    "duration": 0.036184156250000044
                },
                {
                    "name": "A5",
                    "midi": 81,
                    "time": 13.263138000000007,
                    "velocity": 0.33858267716535434,
                    "duration": 0.07894725000000058
                },
                {
                    "name": "A#5",
                    "midi": 82,
                    "time": 13.342085250000007,
                    "velocity": 0.31496062992125984,
                    "duration": 0.07894725000000058
                },
                {
                    "name": "A5",
                    "midi": 81,
                    "time": 13.421032500000008,
                    "velocity": 0.33858267716535434,
                    "duration": 0.07894725000000058
                },
                {
                    "name": "G5",
                    "midi": 79,
                    "time": 13.499979750000008,
                    "velocity": 0.31496062992125984,
                    "duration": 0.07894725000000058
                },
                {
                    "name": "A4",
                    "midi": 69,
                    "time": 13.67761106250001,
                    "velocity": 0.28346456692913385,
                    "duration": 0.13815768749999968
                },
                {
                    "name": "F5",
                    "midi": 77,
                    "time": 13.697347875000009,
                    "velocity": 0.31496062992125984,
                    "duration": 0.11842087499999998
                },
                {
                    "name": "A5",
                    "midi": 81,
                    "time": 13.717084687500009,
                    "velocity": 0.33070866141732286,
                    "duration": 0.09868406250000028
                },
                {
                    "name": "F6",
                    "midi": 89,
                    "time": 13.736821500000008,
                    "velocity": 0.3543307086614173,
                    "duration": 0.07894725000000058
                },
                {
                    "name": "D5",
                    "midi": 74,
                    "time": 14.01313687500001,
                    "velocity": 0.28346456692913385,
                    "duration": 0.036184156250000044
                },
                {
                    "name": "D5",
                    "midi": 74,
                    "time": 14.052610500000009,
                    "velocity": 0.33858267716535434,
                    "duration": 0.07894725000000058
                },
                {
                    "name": "F5",
                    "midi": 77,
                    "time": 14.13155775000001,
                    "velocity": 0.31496062992125984,
                    "duration": 0.07894725000000058
                },
                {
                    "name": "E5",
                    "midi": 76,
                    "time": 14.21050500000001,
                    "velocity": 0.33858267716535434,
                    "duration": 0.07894725000000058
                },
                {
                    "name": "D5",
                    "midi": 74,
                    "time": 14.28945225000001,
                    "velocity": 0.31496062992125984,
                    "duration": 0.07894725000000058
                },
                {
                    "name": "D5",
                    "midi": 74,
                    "time": 14.467083562500012,
                    "velocity": 0.28346456692913385,
                    "duration": 0.13815768749999968
                },
                {
                    "name": "G5",
                    "midi": 79,
                    "time": 14.486820375000011,
                    "velocity": 0.31496062992125984,
                    "duration": 0.11842087499999998
                },
                {
                    "name": "B5",
                    "midi": 83,
                    "time": 14.506557187500011,
                    "velocity": 0.33070866141732286,
                    "duration": 0.09868406250000028
                },
                {
                    "name": "G6",
                    "midi": 91,
                    "time": 14.52629400000001,
                    "velocity": 0.3543307086614173,
                    "duration": 0.07894725000000058
                },
                {
                    "name": "G5",
                    "midi": 79,
                    "time": 14.802609375000012,
                    "velocity": 0.28346456692913385,
                    "duration": 0.036184156250000044
                },
                {
                    "name": "G5",
                    "midi": 79,
                    "time": 14.842083000000011,
                    "velocity": 0.33858267716535434,
                    "duration": 0.07894725000000058
                },
                {
                    "name": "A5",
                    "midi": 81,
                    "time": 14.921030250000012,
                    "velocity": 0.31496062992125984,
                    "duration": 0.07894725000000058
                },
                {
                    "name": "G5",
                    "midi": 79,
                    "time": 14.999977500000012,
                    "velocity": 0.33858267716535434,
                    "duration": 0.07894725000000058
                },
                {
                    "name": "F5",
                    "midi": 77,
                    "time": 15.078924750000013,
                    "velocity": 0.31496062992125984,
                    "duration": 0.07894725000000058
                },
                {
                    "name": "G4",
                    "midi": 67,
                    "time": 15.256556062500014,
                    "velocity": 0.28346456692913385,
                    "duration": 0.13815768749999968
                },
                {
                    "name": "E5",
                    "midi": 76,
                    "time": 15.276292875000014,
                    "velocity": 0.31496062992125984,
                    "duration": 0.11842087499999998
                },
                {
                    "name": "G5",
                    "midi": 79,
                    "time": 15.296029687500013,
                    "velocity": 0.33070866141732286,
                    "duration": 0.09868406250000028
                },
                {
                    "name": "E6",
                    "midi": 88,
                    "time": 15.315766500000013,
                    "velocity": 0.3543307086614173,
                    "duration": 0.07894725000000058
                },
                {
                    "name": "C5",
                    "midi": 72,
                    "time": 15.592081875000014,
                    "velocity": 0.28346456692913385,
                    "duration": 0.036184156250000044
                },
                {
                    "name": "C5",
                    "midi": 72,
                    "time": 15.631555500000013,
                    "velocity": 0.36220472440944884,
                    "duration": 0.07894725000000058
                },
                {
                    "name": "E5",
                    "midi": 76,
                    "time": 15.710502750000014,
                    "velocity": 0.3464566929133858,
                    "duration": 0.07894725000000058
                },
                {
                    "name": "D5",
                    "midi": 74,
                    "time": 15.789450000000015,
                    "velocity": 0.36220472440944884,
                    "duration": 0.07894725000000058
                },
                {
                    "name": "C5",
                    "midi": 72,
                    "time": 15.868397250000015,
                    "velocity": 0.3464566929133858,
                    "duration": 0.07894725000000058
                },
                {
                    "name": "A#4",
                    "midi": 70,
                    "time": 16.065765375000016,
                    "velocity": 0.31496062992125984,
                    "duration": 0.1184208749999982
                },
                {
                    "name": "F5",
                    "midi": 77,
                    "time": 16.085502187500015,
                    "velocity": 0.3464566929133858,
                    "duration": 0.0986840624999985
                },
                {
                    "name": "F6",
                    "midi": 89,
                    "time": 16.105239000000015,
                    "velocity": 0.3937007874015748,
                    "duration": 0.0789472499999988
                },
                {
                    "name": "A#4",
                    "midi": 70,
                    "time": 16.381554375000015,
                    "velocity": 0.30708661417322836,
                    "duration": 0.03618415624999827
                },
                {
                    "name": "A#4",
                    "midi": 70,
                    "time": 16.421028000000014,
                    "velocity": 0.36220472440944884,
                    "duration": 0.0789472499999988
                },
                {
                    "name": "D5",
                    "midi": 74,
                    "time": 16.499975250000013,
                    "velocity": 0.3464566929133858,
                    "duration": 0.0789472499999988
                },
                {
                    "name": "C5",
                    "midi": 72,
                    "time": 16.57892250000001,
                    "velocity": 0.36220472440944884,
                    "duration": 0.0789472499999988
                },
                {
                    "name": "A#4",
                    "midi": 70,
                    "time": 16.65786975000001,
                    "velocity": 0.3464566929133858,
                    "duration": 0.0789472499999988
                },
                {
                    "name": "A4",
                    "midi": 69,
                    "time": 16.85523787500001,
                    "velocity": 0.31496062992125984,
                    "duration": 0.1184208749999982
                },
                {
                    "name": "E5",
                    "midi": 76,
                    "time": 16.87497468750001,
                    "velocity": 0.3464566929133858,
                    "duration": 0.0986840624999985
                },
                {
                    "name": "E6",
                    "midi": 88,
                    "time": 16.89471150000001,
                    "velocity": 0.3937007874015748,
                    "duration": 0.0789472499999988
                },
                {
                    "name": "A4",
                    "midi": 69,
                    "time": 17.17102687500001,
                    "velocity": 0.29133858267716534,
                    "duration": 0.03618415624999827
                },
                {
                    "name": "A4",
                    "midi": 69,
                    "time": 17.21050050000001,
                    "velocity": 0.3543307086614173,
                    "duration": 0.0789472499999988
                },
                {
                    "name": "C5",
                    "midi": 72,
                    "time": 17.289447750000008,
                    "velocity": 0.33070866141732286,
                    "duration": 0.0789472499999988
                },
                {
                    "name": "B4",
                    "midi": 71,
                    "time": 17.368395000000007,
                    "velocity": 0.3543307086614173,
                    "duration": 0.0789472499999988
                },
                {
                    "name": "A4",
                    "midi": 69,
                    "time": 17.447342250000005,
                    "velocity": 0.33070866141732286,
                    "duration": 0.0789472499999988
                },
                {
                    "name": "F4",
                    "midi": 65,
                    "time": 17.526289500000004,
                    "velocity": 0.3543307086614173,
                    "duration": 0.31578899999999877
                },
                {
                    "name": "D#5",
                    "midi": 75,
                    "time": 17.763131250000004,
                    "velocity": 0.29133858267716534,
                    "duration": 0.0789472499999988
                },
                {
                    "name": "E4",
                    "midi": 64,
                    "time": 17.842078500000003,
                    "velocity": 0.3464566929133858,
                    "duration": 0.3157889999999952
                },
                {
                    "name": "E5",
                    "midi": 76,
                    "time": 17.921025750000002,
                    "velocity": 0.29133858267716534,
                    "duration": 0.0789472499999988
                },
                {
                    "name": "D5",
                    "midi": 74,
                    "time": 17.999973,
                    "velocity": 0.3464566929133858,
                    "duration": 0.0789472499999988
                },
                {
                    "name": "B4",
                    "midi": 71,
                    "time": 18.07892025,
                    "velocity": 0.29133858267716534,
                    "duration": 0.0789472499999988
                },
                {
                    "name": "E4",
                    "midi": 64,
                    "time": 18.1578675,
                    "velocity": 0.33858267716535434,
                    "duration": 0.31578899999999877
                },
                {
                    "name": "A4",
                    "midi": 69,
                    "time": 18.1578675,
                    "velocity": 0.33858267716535434,
                    "duration": 0.31578899999999877
                },
                {
                    "name": "A5",
                    "midi": 81,
                    "time": 18.473656499999997,
                    "velocity": 0.29133858267716534,
                    "duration": 0.0789472499999988
                },
                {
                    "name": "C5",
                    "midi": 72,
                    "time": 18.473656499999997,
                    "velocity": 0.29133858267716534,
                    "duration": 0.0789472499999988
                },
                {
                    "name": "C5",
                    "midi": 72,
                    "time": 18.736813999999995,
                    "velocity": 0.3228346456692913,
                    "duration": 0.026315749999998417
                },
                {
                    "name": "A5",
                    "midi": 81,
                    "time": 18.763129749999994,
                    "velocity": 0.3543307086614173,
                    "duration": 0.026315749999998417
                },
                {
                    "name": "E6",
                    "midi": 88,
                    "time": 18.789445499999992,
                    "velocity": 0.4566929133858268,
                    "duration": 0.0592104374999991
                },
                {
                    "name": "C6",
                    "midi": 84,
                    "time": 18.894708499999993,
                    "velocity": 0.3858267716535433,
                    "duration": 0.0789472499999988
                },
                {
                    "name": "A5",
                    "midi": 81,
                    "time": 18.99997149999999,
                    "velocity": 0.3858267716535433,
                    "duration": 0.0789472499999988
                },
                {
                    "name": "E5",
                    "midi": 76,
                    "time": 19.105234499999987,
                    "velocity": 0.4094488188976378,
                    "duration": 0.0789472499999988
                },
                {
                    "name": "C5",
                    "midi": 72,
                    "time": 19.210497499999985,
                    "velocity": 0.3779527559055118,
                    "duration": 0.0789472499999988
                },
                {
                    "name": "A4",
                    "midi": 69,
                    "time": 19.315760499999982,
                    "velocity": 0.3779527559055118,
                    "duration": 0.052631500000000386
                },
                {
                    "name": "G#4",
                    "midi": 68,
                    "time": 19.368391999999982,
                    "velocity": 0.3228346456692913,
                    "duration": 0.026315749999998417
                },
                {
                    "name": "E5",
                    "midi": 76,
                    "time": 19.39470774999998,
                    "velocity": 0.3543307086614173,
                    "duration": 0.026315749999998417
                },
                {
                    "name": "B5",
                    "midi": 83,
                    "time": 19.42102349999998,
                    "velocity": 0.48031496062992124,
                    "duration": 0.0592104374999991
                },
                {
                    "name": "G#5",
                    "midi": 80,
                    "time": 19.52628649999998,
                    "velocity": 0.4251968503937008,
                    "duration": 0.0789472499999988
                },
                {
                    "name": "E5",
                    "midi": 76,
                    "time": 19.631549499999977,
                    "velocity": 0.41732283464566927,
                    "duration": 0.0789472499999988
                },
                {
                    "name": "B4",
                    "midi": 71,
                    "time": 19.736812499999974,
                    "velocity": 0.4094488188976378,
                    "duration": 0.0789472499999988
                },
                {
                    "name": "G#4",
                    "midi": 68,
                    "time": 19.84207549999997,
                    "velocity": 0.3543307086614173,
                    "duration": 0.0789472499999988
                },
                {
                    "name": "E4",
                    "midi": 64,
                    "time": 19.94733849999997,
                    "velocity": 0.3543307086614173,
                    "duration": 0.052631500000000386
                },
                {
                    "name": "C5",
                    "midi": 72,
                    "time": 19.99996999999997,
                    "velocity": 0.3228346456692913,
                    "duration": 0.026315749999998417
                },
                {
                    "name": "A5",
                    "midi": 81,
                    "time": 20.026285749999968,
                    "velocity": 0.3543307086614173,
                    "duration": 0.026315749999998417
                },
                {
                    "name": "E6",
                    "midi": 88,
                    "time": 20.052601499999966,
                    "velocity": 0.4566929133858268,
                    "duration": 0.0592104374999991
                },
                {
                    "name": "C6",
                    "midi": 84,
                    "time": 20.157864499999967,
                    "velocity": 0.3858267716535433,
                    "duration": 0.0789472499999988
                },
                {
                    "name": "A5",
                    "midi": 81,
                    "time": 20.263127499999964,
                    "velocity": 0.3858267716535433,
                    "duration": 0.0789472499999988
                },
                {
                    "name": "E5",
                    "midi": 76,
                    "time": 20.36839049999996,
                    "velocity": 0.4094488188976378,
                    "duration": 0.0789472499999988
                },
                {
                    "name": "C5",
                    "midi": 72,
                    "time": 20.47365349999996,
                    "velocity": 0.3779527559055118,
                    "duration": 0.0789472499999988
                },
                {
                    "name": "A4",
                    "midi": 69,
                    "time": 20.578916499999956,
                    "velocity": 0.3779527559055118,
                    "duration": 0.0789472499999988
                },
                {
                    "name": "G#4",
                    "midi": 68,
                    "time": 20.789442499999954,
                    "velocity": 0.3858267716535433,
                    "duration": 0.0789472499999988
                },
                {
                    "name": "E5",
                    "midi": 76,
                    "time": 20.789442499999954,
                    "velocity": 0.3858267716535433,
                    "duration": 0.0789472499999988
                },
                {
                    "name": "B4",
                    "midi": 71,
                    "time": 20.89470549999995,
                    "velocity": 0.36220472440944884,
                    "duration": 0.0789472499999988
                },
                {
                    "name": "G#5",
                    "midi": 80,
                    "time": 20.89470549999995,
                    "velocity": 0.36220472440944884,
                    "duration": 0.0789472499999988
                },
                {
                    "name": "E6",
                    "midi": 88,
                    "time": 20.999968499999948,
                    "velocity": 0.3464566929133858,
                    "duration": 0.0789472499999988
                },
                {
                    "name": "E5",
                    "midi": 76,
                    "time": 20.999968499999948,
                    "velocity": 0.3464566929133858,
                    "duration": 0.0789472499999988
                },
                {
                    "name": "C5",
                    "midi": 72,
                    "time": 21.263125999999946,
                    "velocity": 0.25196850393700787,
                    "duration": 0.026315749999998417
                },
                {
                    "name": "A5",
                    "midi": 81,
                    "time": 21.289441749999945,
                    "velocity": 0.28346456692913385,
                    "duration": 0.026315749999998417
                },
                {
                    "name": "E6",
                    "midi": 88,
                    "time": 21.315757499999943,
                    "velocity": 0.36220472440944884,
                    "duration": 0.0592104374999991
                },
                {
                    "name": "C6",
                    "midi": 84,
                    "time": 21.421020499999944,
                    "velocity": 0.30708661417322836,
                    "duration": 0.0789472499999988
                },
                {
                    "name": "A5",
                    "midi": 81,
                    "time": 21.52628349999994,
                    "velocity": 0.30708661417322836,
                    "duration": 0.0789472499999988
                },
                {
                    "name": "E5",
                    "midi": 76,
                    "time": 21.63154649999994,
                    "velocity": 0.3228346456692913,
                    "duration": 0.0789472499999988
                },
                {
                    "name": "C5",
                    "midi": 72,
                    "time": 21.736809499999936,
                    "velocity": 0.2992125984251969,
                    "duration": 0.0789472499999988
                },
                {
                    "name": "A4",
                    "midi": 69,
                    "time": 21.842072499999933,
                    "velocity": 0.2992125984251969,
                    "duration": 0.052631500000000386
                },
                {
                    "name": "G#4",
                    "midi": 68,
                    "time": 21.894703999999933,
                    "velocity": 0.25196850393700787,
                    "duration": 0.026315749999998417
                },
                {
                    "name": "E5",
                    "midi": 76,
                    "time": 21.92101974999993,
                    "velocity": 0.28346456692913385,
                    "duration": 0.026315749999998417
                },
                {
                    "name": "B5",
                    "midi": 83,
                    "time": 21.94733549999993,
                    "velocity": 0.3779527559055118,
                    "duration": 0.0592104374999991
                },
                {
                    "name": "G#5",
                    "midi": 80,
                    "time": 22.05259849999993,
                    "velocity": 0.33858267716535434,
                    "duration": 0.0789472499999988
                },
                {
                    "name": "E5",
                    "midi": 76,
                    "time": 22.157861499999928,
                    "velocity": 0.33070866141732286,
                    "duration": 0.0789472499999988
                },
                {
                    "name": "B4",
                    "midi": 71,
                    "time": 22.263124499999925,
                    "velocity": 0.3228346456692913,
                    "duration": 0.0789472499999988
                },
                {
                    "name": "G#4",
                    "midi": 68,
                    "time": 22.368387499999923,
                    "velocity": 0.28346456692913385,
                    "duration": 0.0789472499999988
                },
                {
                    "name": "E4",
                    "midi": 64,
                    "time": 22.47365049999992,
                    "velocity": 0.28346456692913385,
                    "duration": 0.052631500000000386
                },
                {
                    "name": "C5",
                    "midi": 72,
                    "time": 22.52628199999992,
                    "velocity": 0.25196850393700787,
                    "duration": 0.026315749999998417
                },
                {
                    "name": "A5",
                    "midi": 81,
                    "time": 22.55259774999992,
                    "velocity": 0.28346456692913385,
                    "duration": 0.026315749999998417
                },
                {
                    "name": "E6",
                    "midi": 88,
                    "time": 22.578913499999917,
                    "velocity": 0.36220472440944884,
                    "duration": 0.0592104374999991
                },
                {
                    "name": "C6",
                    "midi": 84,
                    "time": 22.684176499999918,
                    "velocity": 0.30708661417322836,
                    "duration": 0.0789472499999988
                },
                {
                    "name": "A5",
                    "midi": 81,
                    "time": 22.789439499999915,
                    "velocity": 0.30708661417322836,
                    "duration": 0.0789472499999988
                },
                {
                    "name": "E5",
                    "midi": 76,
                    "time": 22.894702499999912,
                    "velocity": 0.3228346456692913,
                    "duration": 0.0789472499999988
                },
                {
                    "name": "C5",
                    "midi": 72,
                    "time": 22.99996549999991,
                    "velocity": 0.2992125984251969,
                    "duration": 0.0789472499999988
                },
                {
                    "name": "A4",
                    "midi": 69,
                    "time": 23.105228499999907,
                    "velocity": 0.2992125984251969,
                    "duration": 0.0789472499999988
                },
                {
                    "name": "G#4",
                    "midi": 68,
                    "time": 23.315754499999905,
                    "velocity": 0.30708661417322836,
                    "duration": 0.0789472499999988
                },
                {
                    "name": "E5",
                    "midi": 76,
                    "time": 23.315754499999905,
                    "velocity": 0.30708661417322836,
                    "duration": 0.0789472499999988
                },
                {
                    "name": "B4",
                    "midi": 71,
                    "time": 23.421017499999902,
                    "velocity": 0.28346456692913385,
                    "duration": 0.0789472499999988
                },
                {
                    "name": "G#5",
                    "midi": 80,
                    "time": 23.421017499999902,
                    "velocity": 0.28346456692913385,
                    "duration": 0.0789472499999988
                },
                {
                    "name": "E6",
                    "midi": 88,
                    "time": 23.5262804999999,
                    "velocity": 0.2755905511811024,
                    "duration": 0.0789472499999988
                },
                {
                    "name": "E5",
                    "midi": 76,
                    "time": 23.5262804999999,
                    "velocity": 0.2755905511811024,
                    "duration": 0.0789472499999988
                },
                {
                    "name": "A5",
                    "midi": 81,
                    "time": 23.8025958749999,
                    "velocity": 0.3228346456692913,
                    "duration": 0.0986840624999985
                },
                {
                    "name": "C#6",
                    "midi": 85,
                    "time": 23.822332687499898,
                    "velocity": 0.3543307086614173,
                    "duration": 0.0789472499999988
                },
                {
                    "name": "A6",
                    "midi": 93,
                    "time": 23.842069499999898,
                    "velocity": 0.4566929133858268,
                    "duration": 0.0592104374999991
                },
                {
                    "name": "E6",
                    "midi": 88,
                    "time": 23.9473324999999,
                    "velocity": 0.3858267716535433,
                    "duration": 0.0789472499999988
                },
                {
                    "name": "C#6",
                    "midi": 85,
                    "time": 24.052595499999896,
                    "velocity": 0.3858267716535433,
                    "duration": 0.0789472499999988
                },
                {
                    "name": "A5",
                    "midi": 81,
                    "time": 24.157858499999893,
                    "velocity": 0.4094488188976378,
                    "duration": 0.0789472499999988
                },
                {
                    "name": "E5",
                    "midi": 76,
                    "time": 24.26312149999989,
                    "velocity": 0.3779527559055118,
                    "duration": 0.0789472499999988
                },
                {
                    "name": "C#5",
                    "midi": 73,
                    "time": 24.368384499999888,
                    "velocity": 0.3779527559055118,
                    "duration": 0.0789472499999988
                },
                {
                    "name": "A4",
                    "midi": 69,
                    "time": 24.578910499999886,
                    "velocity": 0.3543307086614173,
                    "duration": 0.0789472499999988
                },
                {
                    "name": "D5",
                    "midi": 74,
                    "time": 24.578910499999886,
                    "velocity": 0.4251968503937008,
                    "duration": 0.0789472499999988
                },
                {
                    "name": "D5",
                    "midi": 74,
                    "time": 24.684173499999883,
                    "velocity": 0.3543307086614173,
                    "duration": 0.0789472499999988
                },
                {
                    "name": "F5",
                    "midi": 77,
                    "time": 24.684173499999883,
                    "velocity": 0.41732283464566927,
                    "duration": 0.0789472499999988
                },
                {
                    "name": "F5",
                    "midi": 77,
                    "time": 24.78943649999988,
                    "velocity": 0.3464566929133858,
                    "duration": 0.0789472499999988
                },
                {
                    "name": "A5",
                    "midi": 81,
                    "time": 24.78943649999988,
                    "velocity": 0.4094488188976378,
                    "duration": 0.0789472499999988
                },
                {
                    "name": "A5",
                    "midi": 81,
                    "time": 24.894699499999877,
                    "velocity": 0.31496062992125984,
                    "duration": 0.0789472499999988
                },
                {
                    "name": "D6",
                    "midi": 86,
                    "time": 24.894699499999877,
                    "velocity": 0.3779527559055118,
                    "duration": 0.0789472499999988
                },
                {
                    "name": "D6",
                    "midi": 86,
                    "time": 24.999962499999874,
                    "velocity": 0.3228346456692913,
                    "duration": 0.0789472499999988
                },
                {
                    "name": "F6",
                    "midi": 89,
                    "time": 24.999962499999874,
                    "velocity": 0.3858267716535433,
                    "duration": 0.0789472499999988
                },
                {
                    "name": "G5",
                    "midi": 79,
                    "time": 25.199962199999874,
                    "velocity": 0.3700787401574803,
                    "duration": 0.12236823749999814
                },
                {
                    "name": "B5",
                    "midi": 83,
                    "time": 25.231541099999873,
                    "velocity": 0.3937007874015748,
                    "duration": 0.09078933749999862
                },
                {
                    "name": "G6",
                    "midi": 91,
                    "time": 25.263119999999873,
                    "velocity": 0.4566929133858268,
                    "duration": 0.0592104374999991
                },
                {
                    "name": "D6",
                    "midi": 86,
                    "time": 25.368382999999874,
                    "velocity": 0.3858267716535433,
                    "duration": 0.0789472499999988
                },
                {
                    "name": "B5",
                    "midi": 83,
                    "time": 25.47364599999987,
                    "velocity": 0.3858267716535433,
                    "duration": 0.0789472499999988
                },
                {
                    "name": "G5",
                    "midi": 79,
                    "time": 25.578908999999868,
                    "velocity": 0.4094488188976378,
                    "duration": 0.0789472499999988
                },
                {
                    "name": "D5",
                    "midi": 74,
                    "time": 25.684171999999865,
                    "velocity": 0.3779527559055118,
                    "duration": 0.0789472499999988
                },
                {
                    "name": "B4",
                    "midi": 71,
                    "time": 25.789434999999862,
                    "velocity": 0.3779527559055118,
                    "duration": 0.0789472499999988
                },
                {
                    "name": "G4",
                    "midi": 67,
                    "time": 25.99996099999986,
                    "velocity": 0.3543307086614173,
                    "duration": 0.0789472499999988
                },
                {
                    "name": "C5",
                    "midi": 72,
                    "time": 25.99996099999986,
                    "velocity": 0.4251968503937008,
                    "duration": 0.0789472499999988
                },
                {
                    "name": "C5",
                    "midi": 72,
                    "time": 26.105223999999858,
                    "velocity": 0.3543307086614173,
                    "duration": 0.0789472499999988
                },
                {
                    "name": "E5",
                    "midi": 76,
                    "time": 26.105223999999858,
                    "velocity": 0.41732283464566927,
                    "duration": 0.0789472499999988
                },
                {
                    "name": "E5",
                    "midi": 76,
                    "time": 26.210486999999855,
                    "velocity": 0.3464566929133858,
                    "duration": 0.0789472499999988
                },
                {
                    "name": "G5",
                    "midi": 79,
                    "time": 26.210486999999855,
                    "velocity": 0.4094488188976378,
                    "duration": 0.0789472499999988
                },
                {
                    "name": "G5",
                    "midi": 79,
                    "time": 26.315749999999852,
                    "velocity": 0.31496062992125984,
                    "duration": 0.0789472499999988
                },
                {
                    "name": "C6",
                    "midi": 84,
                    "time": 26.315749999999852,
                    "velocity": 0.3779527559055118,
                    "duration": 0.0789472499999988
                },
                {
                    "name": "C6",
                    "midi": 84,
                    "time": 26.42101299999985,
                    "velocity": 0.3228346456692913,
                    "duration": 0.0789472499999988
                },
                {
                    "name": "E6",
                    "midi": 88,
                    "time": 26.42101299999985,
                    "velocity": 0.3858267716535433,
                    "duration": 0.0789472499999988
                },
                {
                    "name": "B5",
                    "midi": 83,
                    "time": 26.526275999999847,
                    "velocity": 0.30708661417322836,
                    "duration": 0.0592104374999991
                },
                {
                    "name": "F6",
                    "midi": 89,
                    "time": 26.526275999999847,
                    "velocity": 0.36220472440944884,
                    "duration": 0.0592104374999991
                },
                {
                    "name": "G#5",
                    "midi": 80,
                    "time": 26.631538999999847,
                    "velocity": 0.25984251968503935,
                    "duration": 0.0789472499999988
                },
                {
                    "name": "D6",
                    "midi": 86,
                    "time": 26.631538999999847,
                    "velocity": 0.30708661417322836,
                    "duration": 0.0789472499999988
                },
                {
                    "name": "F5",
                    "midi": 77,
                    "time": 26.736801999999845,
                    "velocity": 0.25984251968503935,
                    "duration": 0.0789472499999988
                },
                {
                    "name": "B5",
                    "midi": 83,
                    "time": 26.736801999999845,
                    "velocity": 0.30708661417322836,
                    "duration": 0.0789472499999988
                },
                {
                    "name": "D5",
                    "midi": 74,
                    "time": 26.84206499999984,
                    "velocity": 0.2755905511811024,
                    "duration": 0.0789472499999988
                },
                {
                    "name": "G#5",
                    "midi": 80,
                    "time": 26.84206499999984,
                    "velocity": 0.3228346456692913,
                    "duration": 0.0789472499999988
                },
                {
                    "name": "B4",
                    "midi": 71,
                    "time": 26.94732799999984,
                    "velocity": 0.25196850393700787,
                    "duration": 0.0789472499999988
                },
                {
                    "name": "F5",
                    "midi": 77,
                    "time": 26.94732799999984,
                    "velocity": 0.2992125984251969,
                    "duration": 0.0789472499999988
                },
                {
                    "name": "D5",
                    "midi": 74,
                    "time": 27.052590999999836,
                    "velocity": 0.2992125984251969,
                    "duration": 0.052631500000000386
                },
                {
                    "name": "E5",
                    "midi": 76,
                    "time": 27.105222499999837,
                    "velocity": 0.25196850393700787,
                    "duration": 0.026315749999998417
                },
                {
                    "name": "A5",
                    "midi": 81,
                    "time": 27.131538249999835,
                    "velocity": 0.28346456692913385,
                    "duration": 0.026315749999998417
                },
                {
                    "name": "E6",
                    "midi": 88,
                    "time": 27.157853999999833,
                    "velocity": 0.3779527559055118,
                    "duration": 0.0592104374999991
                },
                {
                    "name": "C6",
                    "midi": 84,
                    "time": 27.263116999999834,
                    "velocity": 0.33858267716535434,
                    "duration": 0.0789472499999988
                },
                {
                    "name": "A5",
                    "midi": 81,
                    "time": 27.36837999999983,
                    "velocity": 0.33070866141732286,
                    "duration": 0.0789472499999988
                },
                {
                    "name": "E5",
                    "midi": 76,
                    "time": 27.47364299999983,
                    "velocity": 0.3228346456692913,
                    "duration": 0.0789472499999988
                },
                {
                    "name": "C5",
                    "midi": 72,
                    "time": 27.578905999999826,
                    "velocity": 0.2992125984251969,
                    "duration": 0.0789472499999988
                },
                {
                    "name": "A4",
                    "midi": 69,
                    "time": 27.684168999999823,
                    "velocity": 0.30708661417322836,
                    "duration": 0.0789472499999988
                },
                {
                    "name": "D#4",
                    "midi": 63,
                    "time": 27.89469499999982,
                    "velocity": 0.25984251968503935,
                    "duration": 0.0789472499999988
                },
                {
                    "name": "B4",
                    "midi": 71,
                    "time": 27.89469499999982,
                    "velocity": 0.30708661417322836,
                    "duration": 0.0789472499999988
                },
                {
                    "name": "D#5",
                    "midi": 75,
                    "time": 27.99995799999982,
                    "velocity": 0.28346456692913385,
                    "duration": 0.0789472499999988
                },
                {
                    "name": "A4",
                    "midi": 69,
                    "time": 27.99995799999982,
                    "velocity": 0.28346456692913385,
                    "duration": 0.0789472499999988
                },
                {
                    "name": "E5",
                    "midi": 76,
                    "time": 28.210483999999816,
                    "velocity": 0.30708661417322836,
                    "duration": 0.0789472499999988
                },
                {
                    "name": "G#4",
                    "midi": 68,
                    "time": 28.210483999999816,
                    "velocity": 0.25984251968503935,
                    "duration": 0.0789472499999988
                },
                {
                    "name": "G#5",
                    "midi": 80,
                    "time": 28.315746999999813,
                    "velocity": 0.28346456692913385,
                    "duration": 0.0789472499999988
                },
                {
                    "name": "B4",
                    "midi": 71,
                    "time": 28.315746999999813,
                    "velocity": 0.23622047244094488,
                    "duration": 0.0789472499999988
                },
                {
                    "name": "A5",
                    "midi": 81,
                    "time": 28.52627299999981,
                    "velocity": 0.30708661417322836,
                    "duration": 0.0789472499999988
                },
                {
                    "name": "C5",
                    "midi": 72,
                    "time": 28.52627299999981,
                    "velocity": 0.25984251968503935,
                    "duration": 0.0789472499999988
                },
                {
                    "name": "E5",
                    "midi": 76,
                    "time": 28.63153599999981,
                    "velocity": 0.23622047244094488,
                    "duration": 0.0789472499999988
                },
                {
                    "name": "C6",
                    "midi": 84,
                    "time": 28.63153599999981,
                    "velocity": 0.28346456692913385,
                    "duration": 0.0789472499999988
                },
                {
                    "name": "A5",
                    "midi": 81,
                    "time": 28.736798999999806,
                    "velocity": 0.2992125984251969,
                    "duration": 0.0789472499999988
                },
                {
                    "name": "A6",
                    "midi": 93,
                    "time": 28.736798999999806,
                    "velocity": 0.3543307086614173,
                    "duration": 0.0789472499999988
                },
                {
                    "name": "A#2",
                    "midi": 46,
                    "time": 29.328903374999804,
                    "velocity": 0.4251968503937008,
                    "duration": 0.04605256249999812
                },
                {
                    "name": "A2",
                    "midi": 45,
                    "time": 29.368376999999803,
                    "velocity": 0.4566929133858268,
                    "duration": 0.08552618749999752
                },
                {
                    "name": "B2",
                    "midi": 47,
                    "time": 29.447324249999802,
                    "velocity": 0.3779527559055118,
                    "duration": 0.08552618749999752
                },
                {
                    "name": "C3",
                    "midi": 48,
                    "time": 29.5262714999998,
                    "velocity": 0.4015748031496063,
                    "duration": 0.08552618749999752
                },
                {
                    "name": "D3",
                    "midi": 50,
                    "time": 29.6052187499998,
                    "velocity": 0.3700787401574803,
                    "duration": 0.0789472499999988
                },
                {
                    "name": "F3",
                    "midi": 53,
                    "time": 29.960481374999798,
                    "velocity": 0.4094488188976378,
                    "duration": 0.04605256249999812
                },
                {
                    "name": "E3",
                    "midi": 52,
                    "time": 29.999954999999797,
                    "velocity": 0.4409448818897638,
                    "duration": 0.08552618749999752
                },
                {
                    "name": "D3",
                    "midi": 50,
                    "time": 30.078902249999796,
                    "velocity": 0.3779527559055118,
                    "duration": 0.08552618749999752
                },
                {
                    "name": "C3",
                    "midi": 48,
                    "time": 30.157849499999795,
                    "velocity": 0.4015748031496063,
                    "duration": 0.08552618749999752
                },
                {
                    "name": "B2",
                    "midi": 47,
                    "time": 30.236796749999794,
                    "velocity": 0.3700787401574803,
                    "duration": 0.0789472499999988
                },
                {
                    "name": "A#2",
                    "midi": 46,
                    "time": 30.592059374999792,
                    "velocity": 0.3779527559055118,
                    "duration": 0.04605256249999812
                },
                {
                    "name": "A2",
                    "midi": 45,
                    "time": 30.63153299999979,
                    "velocity": 0.3937007874015748,
                    "duration": 0.08552618749999752
                },
                {
                    "name": "B2",
                    "midi": 47,
                    "time": 30.71048024999979,
                    "velocity": 0.3228346456692913,
                    "duration": 0.08552618749999752
                },
                {
                    "name": "C3",
                    "midi": 48,
                    "time": 30.78942749999979,
                    "velocity": 0.3464566929133858,
                    "duration": 0.08552618749999752
                },
                {
                    "name": "D3",
                    "midi": 50,
                    "time": 30.868374749999788,
                    "velocity": 0.31496062992125984,
                    "duration": 0.0789472499999988
                },
                {
                    "name": "F3",
                    "midi": 53,
                    "time": 31.223637374999786,
                    "velocity": 0.31496062992125984,
                    "duration": 0.04605256249999812
                },
                {
                    "name": "E3",
                    "midi": 52,
                    "time": 31.263110999999785,
                    "velocity": 0.28346456692913385,
                    "duration": 0.1184208749999982
                },
                {
                    "name": "A#3",
                    "midi": 58,
                    "time": 31.855215374999784,
                    "velocity": 0.41732283464566927,
                    "duration": 0.04605256249999812
                },
                {
                    "name": "A3",
                    "midi": 57,
                    "time": 31.894688999999783,
                    "velocity": 0.4409448818897638,
                    "duration": 0.08552618749999752
                },
                {
                    "name": "B3",
                    "midi": 59,
                    "time": 31.97363624999978,
                    "velocity": 0.3779527559055118,
                    "duration": 0.08552618749999752
                },
                {
                    "name": "C4",
                    "midi": 60,
                    "time": 32.05258349999978,
                    "velocity": 0.4015748031496063,
                    "duration": 0.08552618750000107
                },
                {
                    "name": "D4",
                    "midi": 62,
                    "time": 32.131530749999776,
                    "velocity": 0.3700787401574803,
                    "duration": 0.0789472499999988
                },
                {
                    "name": "F4",
                    "midi": 65,
                    "time": 32.48679337499978,
                    "velocity": 0.3937007874015748,
                    "duration": 0.04605256250000167
                },
                {
                    "name": "E4",
                    "midi": 64,
                    "time": 32.52626699999978,
                    "velocity": 0.4251968503937008,
                    "duration": 0.08552618750000107
                },
                {
                    "name": "D4",
                    "midi": 62,
                    "time": 32.605214249999776,
                    "velocity": 0.3779527559055118,
                    "duration": 0.08552618750000107
                },
                {
                    "name": "C4",
                    "midi": 60,
                    "time": 32.684161499999774,
                    "velocity": 0.4015748031496063,
                    "duration": 0.08552618750000107
                },
                {
                    "name": "B3",
                    "midi": 59,
                    "time": 32.76310874999977,
                    "velocity": 0.3700787401574803,
                    "duration": 0.0789472499999988
                },
                {
                    "name": "A#3",
                    "midi": 58,
                    "time": 33.118371374999775,
                    "velocity": 0.3779527559055118,
                    "duration": 0.04605256250000167
                },
                {
                    "name": "A3",
                    "midi": 57,
                    "time": 33.157844999999774,
                    "velocity": 0.41732283464566927,
                    "duration": 0.08552618750000107
                },
                {
                    "name": "B3",
                    "midi": 59,
                    "time": 33.23679224999977,
                    "velocity": 0.3228346456692913,
                    "duration": 0.08552618750000107
                },
                {
                    "name": "C4",
                    "midi": 60,
                    "time": 33.31573949999977,
                    "velocity": 0.3464566929133858,
                    "duration": 0.08552618750000107
                },
                {
                    "name": "D4",
                    "midi": 62,
                    "time": 33.39468674999977,
                    "velocity": 0.31496062992125984,
                    "duration": 0.0789472499999988
                },
                {
                    "name": "F4",
                    "midi": 65,
                    "time": 33.74994937499977,
                    "velocity": 0.31496062992125984,
                    "duration": 0.0394736249999994
                },
                {
                    "name": "E4",
                    "midi": 64,
                    "time": 33.78942299999977,
                    "velocity": 0.28346456692913385,
                    "duration": 0.1184208749999982
                },
                {
                    "name": "A#4",
                    "midi": 70,
                    "time": 34.38152737499977,
                    "velocity": 0.3937007874015748,
                    "duration": 0.04605256250000167
                },
                {
                    "name": "A4",
                    "midi": 69,
                    "time": 34.42100099999977,
                    "velocity": 0.4251968503937008,
                    "duration": 0.08552618750000107
                },
                {
                    "name": "G4",
                    "midi": 67,
                    "time": 34.49994824999977,
                    "velocity": 0.3779527559055118,
                    "duration": 0.08552618750000107
                },
                {
                    "name": "F4",
                    "midi": 65,
                    "time": 34.57889549999977,
                    "velocity": 0.4015748031496063,
                    "duration": 0.08552618750000107
                },
                {
                    "name": "E4",
                    "midi": 64,
                    "time": 34.657842749999766,
                    "velocity": 0.3700787401574803,
                    "duration": 0.0789472499999988
                },
                {
                    "name": "D#4",
                    "midi": 63,
                    "time": 35.01310537499977,
                    "velocity": 0.3700787401574803,
                    "duration": 0.04605256250000167
                },
                {
                    "name": "D4",
                    "midi": 62,
                    "time": 35.05257899999977,
                    "velocity": 0.4251968503937008,
                    "duration": 0.08552618750000107
                },
                {
                    "name": "E4",
                    "midi": 64,
                    "time": 35.131526249999766,
                    "velocity": 0.3779527559055118,
                    "duration": 0.08552618750000107
                },
                {
                    "name": "F4",
                    "midi": 65,
                    "time": 35.210473499999765,
                    "velocity": 0.4015748031496063,
                    "duration": 0.08552618750000107
                },
                {
                    "name": "D4",
                    "midi": 62,
                    "time": 35.28942074999976,
                    "velocity": 0.3700787401574803,
                    "duration": 0.0789472499999988
                },
                {
                    "name": "G#4",
                    "midi": 68,
                    "time": 35.644683374999765,
                    "velocity": 0.4015748031496063,
                    "duration": 0.04605256250000167
                },
                {
                    "name": "G4",
                    "midi": 67,
                    "time": 35.684156999999765,
                    "velocity": 0.4251968503937008,
                    "duration": 0.08552618750000107
                },
                {
                    "name": "F4",
                    "midi": 65,
                    "time": 35.76310424999976,
                    "velocity": 0.3543307086614173,
                    "duration": 0.08552618750000107
                },
                {
                    "name": "E4",
                    "midi": 64,
                    "time": 35.84205149999976,
                    "velocity": 0.3779527559055118,
                    "duration": 0.08552618750000107
                },
                {
                    "name": "D4",
                    "midi": 62,
                    "time": 35.92099874999976,
                    "velocity": 0.3464566929133858,
                    "duration": 0.0789472499999988
                },
                {
                    "name": "C#4",
                    "midi": 61,
                    "time": 36.27626137499976,
                    "velocity": 0.3700787401574803,
                    "duration": 0.04605256250000167
                },
                {
                    "name": "C4",
                    "midi": 60,
                    "time": 36.31573499999976,
                    "velocity": 0.4094488188976378,
                    "duration": 0.08552618750000107
                },
                {
                    "name": "D4",
                    "midi": 62,
                    "time": 36.39468224999976,
                    "velocity": 0.3779527559055118,
                    "duration": 0.08552618750000107
                },
                {
                    "name": "E4",
                    "midi": 64,
                    "time": 36.47362949999976,
                    "velocity": 0.4015748031496063,
                    "duration": 0.08552618750000107
                },
                {
                    "name": "C4",
                    "midi": 60,
                    "time": 36.55257674999976,
                    "velocity": 0.3700787401574803,
                    "duration": 0.0789472499999988
                },
                {
                    "name": "G4",
                    "midi": 67,
                    "time": 36.90783937499976,
                    "velocity": 0.3779527559055118,
                    "duration": 0.04605256250000167
                },
                {
                    "name": "F4",
                    "midi": 65,
                    "time": 36.94731299999976,
                    "velocity": 0.4094488188976378,
                    "duration": 0.08552618750000107
                },
                {
                    "name": "D4",
                    "midi": 62,
                    "time": 37.02626024999976,
                    "velocity": 0.3779527559055118,
                    "duration": 0.08552618750000107
                },
                {
                    "name": "C4",
                    "midi": 60,
                    "time": 37.10520749999976,
                    "velocity": 0.4015748031496063,
                    "duration": 0.08552618750000107
                },
                {
                    "name": "B3",
                    "midi": 59,
                    "time": 37.184154749999756,
                    "velocity": 0.3700787401574803,
                    "duration": 0.0789472499999988
                },
                {
                    "name": "F4",
                    "midi": 65,
                    "time": 37.53941737499976,
                    "velocity": 0.4015748031496063,
                    "duration": 0.04605256250000167
                },
                {
                    "name": "E4",
                    "midi": 64,
                    "time": 37.57889099999976,
                    "velocity": 0.4251968503937008,
                    "duration": 0.08552618750000107
                },
                {
                    "name": "C4",
                    "midi": 60,
                    "time": 37.657838249999756,
                    "velocity": 0.3779527559055118,
                    "duration": 0.08552618750000107
                },
                {
                    "name": "B3",
                    "midi": 59,
                    "time": 37.736785499999755,
                    "velocity": 0.4015748031496063,
                    "duration": 0.08552618750000107
                },
                {
                    "name": "A3",
                    "midi": 57,
                    "time": 37.81573274999975,
                    "velocity": 0.3700787401574803,
                    "duration": 0.0789472499999988
                },
                {
                    "name": "C4",
                    "midi": 60,
                    "time": 38.170995374999755,
                    "velocity": 0.3700787401574803,
                    "duration": 0.04605256250000167
                },
                {
                    "name": "B3",
                    "midi": 59,
                    "time": 38.210468999999755,
                    "velocity": 0.4015748031496063,
                    "duration": 0.08552618750000107
                },
                {
                    "name": "F4",
                    "midi": 65,
                    "time": 38.28941624999975,
                    "velocity": 0.3228346456692913,
                    "duration": 0.08552618750000107
                },
                {
                    "name": "E4",
                    "midi": 64,
                    "time": 38.36836349999975,
                    "velocity": 0.3464566929133858,
                    "duration": 0.08552618750000107
                },
                {
                    "name": "G#3",
                    "midi": 56,
                    "time": 38.44731074999975,
                    "velocity": 0.31496062992125984,
                    "duration": 0.0789472499999988
                },
                {
                    "name": "D3",
                    "midi": 50,
                    "time": 38.68415249999975,
                    "velocity": 0.3228346456692913,
                    "duration": 0.0394736249999994
                },
                {
                    "name": "F3",
                    "midi": 53,
                    "time": 38.68415249999975,
                    "velocity": 0.3228346456692913,
                    "duration": 0.0394736249999994
                },
                {
                    "name": "C3",
                    "midi": 48,
                    "time": 38.842046999999745,
                    "velocity": 0.3228346456692913,
                    "duration": 0.0394736249999994
                },
                {
                    "name": "E3",
                    "midi": 52,
                    "time": 38.842046999999745,
                    "velocity": 0.3228346456692913,
                    "duration": 0.0394736249999994
                },
                {
                    "name": "C#4",
                    "midi": 61,
                    "time": 39.47362499999974,
                    "velocity": 0.33858267716535434,
                    "duration": 0.3157890000000023
                },
                {
                    "name": "E3",
                    "midi": 52,
                    "time": 39.47362499999974,
                    "velocity": 0.28346456692913385,
                    "duration": 0.3157890000000023
                },
                {
                    "name": "G3",
                    "midi": 55,
                    "time": 39.47362499999974,
                    "velocity": 0.28346456692913385,
                    "duration": 0.3157890000000023
                },
                {
                    "name": "F4",
                    "midi": 65,
                    "time": 40.10520299999975,
                    "velocity": 0.33858267716535434,
                    "duration": 0.3157890000000023
                },
                {
                    "name": "F3",
                    "midi": 53,
                    "time": 40.10520299999975,
                    "velocity": 0.28346456692913385,
                    "duration": 0.3157890000000023
                },
                {
                    "name": "A3",
                    "midi": 57,
                    "time": 40.10520299999975,
                    "velocity": 0.28346456692913385,
                    "duration": 0.3157890000000023
                },
                {
                    "name": "B3",
                    "midi": 59,
                    "time": 40.73678099999975,
                    "velocity": 0.33858267716535434,
                    "duration": 0.3157890000000023
                },
                {
                    "name": "D3",
                    "midi": 50,
                    "time": 40.73678099999975,
                    "velocity": 0.28346456692913385,
                    "duration": 0.3157890000000023
                },
                {
                    "name": "F3",
                    "midi": 53,
                    "time": 40.73678099999975,
                    "velocity": 0.28346456692913385,
                    "duration": 0.3157890000000023
                },
                {
                    "name": "E4",
                    "midi": 64,
                    "time": 41.36835899999976,
                    "velocity": 0.33858267716535434,
                    "duration": 0.3157890000000023
                },
                {
                    "name": "E3",
                    "midi": 52,
                    "time": 41.36835899999976,
                    "velocity": 0.28346456692913385,
                    "duration": 0.3157890000000023
                },
                {
                    "name": "G3",
                    "midi": 55,
                    "time": 41.36835899999976,
                    "velocity": 0.28346456692913385,
                    "duration": 0.3157890000000023
                },
                {
                    "name": "B3",
                    "midi": 59,
                    "time": 41.99993699999976,
                    "velocity": 0.33858267716535434,
                    "duration": 0.3157890000000023
                },
                {
                    "name": "D3",
                    "midi": 50,
                    "time": 41.99993699999976,
                    "velocity": 0.28346456692913385,
                    "duration": 0.3157890000000023
                },
                {
                    "name": "G#3",
                    "midi": 56,
                    "time": 41.99993699999976,
                    "velocity": 0.28346456692913385,
                    "duration": 0.3157890000000023
                },
                {
                    "name": "C4",
                    "midi": 60,
                    "time": 42.631514999999766,
                    "velocity": 0.33858267716535434,
                    "duration": 0.3157890000000023
                },
                {
                    "name": "E3",
                    "midi": 52,
                    "time": 42.631514999999766,
                    "velocity": 0.28346456692913385,
                    "duration": 0.3157890000000023
                },
                {
                    "name": "A3",
                    "midi": 57,
                    "time": 42.631514999999766,
                    "velocity": 0.28346456692913385,
                    "duration": 0.3157890000000023
                },
                {
                    "name": "D4",
                    "midi": 62,
                    "time": 42.94730399999977,
                    "velocity": 0.33858267716535434,
                    "duration": 0.1578944999999976
                },
                {
                    "name": "F3",
                    "midi": 53,
                    "time": 42.94730399999977,
                    "velocity": 0.28346456692913385,
                    "duration": 0.3157889999999952
                },
                {
                    "name": "A3",
                    "midi": 57,
                    "time": 42.94730399999977,
                    "velocity": 0.28346456692913385,
                    "duration": 0.3157889999999952
                },
                {
                    "name": "D#4",
                    "midi": 63,
                    "time": 43.105198499999766,
                    "velocity": 0.33858267716535434,
                    "duration": 0.1578944999999976
                },
                {
                    "name": "E4",
                    "midi": 64,
                    "time": 43.26309299999976,
                    "velocity": 0.33858267716535434,
                    "duration": 0.1578944999999976
                },
                {
                    "name": "E3",
                    "midi": 52,
                    "time": 43.26309299999976,
                    "velocity": 0.28346456692913385,
                    "duration": 0.1578944999999976
                },
                {
                    "name": "G#3",
                    "midi": 56,
                    "time": 43.26309299999976,
                    "velocity": 0.28346456692913385,
                    "duration": 0.1578944999999976
                },
                {
                    "name": "D4",
                    "midi": 62,
                    "time": 43.89467099999976,
                    "velocity": 0.28346456692913385,
                    "duration": 0.1578944999999976
                },
                {
                    "name": "F3",
                    "midi": 53,
                    "time": 43.89467099999976,
                    "velocity": 0.23622047244094488,
                    "duration": 0.1578944999999976
                },
                {
                    "name": "A3",
                    "midi": 57,
                    "time": 43.89467099999976,
                    "velocity": 0.23622047244094488,
                    "duration": 0.1578944999999976
                },
                {
                    "name": "E3",
                    "midi": 52,
                    "time": 44.210459999999756,
                    "velocity": 0.23622047244094488,
                    "duration": 0.1578944999999976
                },
                {
                    "name": "A3",
                    "midi": 57,
                    "time": 44.210459999999756,
                    "velocity": 0.23622047244094488,
                    "duration": 0.1578944999999976
                },
                {
                    "name": "C4",
                    "midi": 60,
                    "time": 44.210459999999756,
                    "velocity": 0.28346456692913385,
                    "duration": 0.1578944999999976
                },
                {
                    "name": "D3",
                    "midi": 50,
                    "time": 44.52624899999975,
                    "velocity": 0.2047244094488189,
                    "duration": 0.1578944999999976
                },
                {
                    "name": "F3",
                    "midi": 53,
                    "time": 44.52624899999975,
                    "velocity": 0.2047244094488189,
                    "duration": 0.1578944999999976
                },
                {
                    "name": "A3",
                    "midi": 57,
                    "time": 44.52624899999975,
                    "velocity": 0.25196850393700787,
                    "duration": 0.1578944999999976
                },
                {
                    "name": "C3",
                    "midi": 48,
                    "time": 44.84203799999975,
                    "velocity": 0.1889763779527559,
                    "duration": 0.1578944999999976
                },
                {
                    "name": "E3",
                    "midi": 52,
                    "time": 44.84203799999975,
                    "velocity": 0.1889763779527559,
                    "duration": 0.1578944999999976
                },
                {
                    "name": "A3",
                    "midi": 57,
                    "time": 44.84203799999975,
                    "velocity": 0.2283464566929134,
                    "duration": 0.1578944999999976
                },
                {
                    "name": "D3",
                    "midi": 50,
                    "time": 45.15782699999974,
                    "velocity": 0.15748031496062992,
                    "duration": 0.1578944999999976
                },
                {
                    "name": "F3",
                    "midi": 53,
                    "time": 45.15782699999974,
                    "velocity": 0.1968503937007874,
                    "duration": 0.1578944999999976
                },
                {
                    "name": "C3",
                    "midi": 48,
                    "time": 45.47361599999974,
                    "velocity": 0.11811023622047244,
                    "duration": 0.1578944999999976
                },
                {
                    "name": "E3",
                    "midi": 52,
                    "time": 45.47361599999974,
                    "velocity": 0.11811023622047244,
                    "duration": 0.1578944999999976
                },
                {
                    "name": "A3",
                    "midi": 57,
                    "time": 45.47361599999974,
                    "velocity": 0.14173228346456693,
                    "duration": 0.1578944999999976
                },
                {
                    "name": "A4",
                    "midi": 69,
                    "time": 46.105193999999734,
                    "velocity": 0.5511811023622047,
                    "duration": 0.0789472499999988
                },
                {
                    "name": "A3",
                    "midi": 57,
                    "time": 46.105193999999734,
                    "velocity": 0.48031496062992124,
                    "duration": 0.0789472499999988
                },
                {
                    "name": "D#4",
                    "midi": 63,
                    "time": 46.18414124999973,
                    "velocity": 0.33858267716535434,
                    "duration": 0.0394736249999994
                },
                {
                    "name": "F#4",
                    "midi": 66,
                    "time": 46.18414124999973,
                    "velocity": 0.4094488188976378,
                    "duration": 0.0394736249999994
                },
                {
                    "name": "A3",
                    "midi": 57,
                    "time": 46.34203574999973,
                    "velocity": 0.3700787401574803,
                    "duration": 0.0789472499999988
                },
                {
                    "name": "A4",
                    "midi": 69,
                    "time": 46.34203574999973,
                    "velocity": 0.4251968503937008,
                    "duration": 0.0789472499999988
                },
                {
                    "name": "A4",
                    "midi": 69,
                    "time": 46.42098299999973,
                    "velocity": 0.5196850393700787,
                    "duration": 0.0789472499999988
                },
                {
                    "name": "A3",
                    "midi": 57,
                    "time": 46.42098299999973,
                    "velocity": 0.4566929133858268,
                    "duration": 0.0789472499999988
                },
                {
                    "name": "C5",
                    "midi": 72,
                    "time": 46.49993024999973,
                    "velocity": 0.4881889763779528,
                    "duration": 0.0789472499999988
                },
                {
                    "name": "C4",
                    "midi": 60,
                    "time": 46.49993024999973,
                    "velocity": 0.4251968503937008,
                    "duration": 0.0789472499999988
                },
                {
                    "name": "B4",
                    "midi": 71,
                    "time": 46.57887749999973,
                    "velocity": 0.5196850393700787,
                    "duration": 0.0789472499999988
                },
                {
                    "name": "B3",
                    "midi": 59,
                    "time": 46.57887749999973,
                    "velocity": 0.4566929133858268,
                    "duration": 0.0789472499999988
                },
                {
                    "name": "A4",
                    "midi": 69,
                    "time": 46.657824749999726,
                    "velocity": 0.4881889763779528,
                    "duration": 0.0789472499999988
                },
                {
                    "name": "A3",
                    "midi": 57,
                    "time": 46.657824749999726,
                    "velocity": 0.4251968503937008,
                    "duration": 0.0789472499999988
                },
                {
                    "name": "E5",
                    "midi": 76,
                    "time": 46.736771999999725,
                    "velocity": 0.5511811023622047,
                    "duration": 0.0789472499999988
                },
                {
                    "name": "E4",
                    "midi": 64,
                    "time": 46.736771999999725,
                    "velocity": 0.48031496062992124,
                    "duration": 0.0789472499999988
                },
                {
                    "name": "G#4",
                    "midi": 68,
                    "time": 46.815719249999724,
                    "velocity": 0.33858267716535434,
                    "duration": 0.0394736249999994
                },
                {
                    "name": "B4",
                    "midi": 71,
                    "time": 46.815719249999724,
                    "velocity": 0.4094488188976378,
                    "duration": 0.0394736249999994
                },
                {
                    "name": "E4",
                    "midi": 64,
                    "time": 46.97361374999972,
                    "velocity": 0.3700787401574803,
                    "duration": 0.0789472499999988
                },
                {
                    "name": "E5",
                    "midi": 76,
                    "time": 46.97361374999972,
                    "velocity": 0.4251968503937008,
                    "duration": 0.0789472499999988
                },
                {
                    "name": "E5",
                    "midi": 76,
                    "time": 47.05256099999972,
                    "velocity": 0.5196850393700787,
                    "duration": 0.0789472499999988
                },
                {
                    "name": "E4",
                    "midi": 64,
                    "time": 47.05256099999972,
                    "velocity": 0.4566929133858268,
                    "duration": 0.0789472499999988
                },
                {
                    "name": "G5",
                    "midi": 79,
                    "time": 47.13150824999972,
                    "velocity": 0.4881889763779528,
                    "duration": 0.0789472499999988
                },
                {
                    "name": "G4",
                    "midi": 67,
                    "time": 47.13150824999972,
                    "velocity": 0.4251968503937008,
                    "duration": 0.0789472499999988
                },
                {
                    "name": "F5",
                    "midi": 77,
                    "time": 47.21045549999972,
                    "velocity": 0.5196850393700787,
                    "duration": 0.0789472499999988
                },
                {
                    "name": "F4",
                    "midi": 65,
                    "time": 47.21045549999972,
                    "velocity": 0.4566929133858268,
                    "duration": 0.0789472499999988
                },
                {
                    "name": "E5",
                    "midi": 76,
                    "time": 47.28940274999972,
                    "velocity": 0.4881889763779528,
                    "duration": 0.0789472499999988
                },
                {
                    "name": "E4",
                    "midi": 64,
                    "time": 47.28940274999972,
                    "velocity": 0.4251968503937008,
                    "duration": 0.0789472499999988
                },
                {
                    "name": "A4",
                    "midi": 69,
                    "time": 47.368349999999715,
                    "velocity": 0.5669291338582677,
                    "duration": 0.0789472499999988
                },
                {
                    "name": "A3",
                    "midi": 57,
                    "time": 47.368349999999715,
                    "velocity": 0.49606299212598426,
                    "duration": 0.0789472499999988
                },
                {
                    "name": "D#4",
                    "midi": 63,
                    "time": 47.447297249999714,
                    "velocity": 0.36220472440944884,
                    "duration": 0.0394736249999994
                },
                {
                    "name": "F#4",
                    "midi": 66,
                    "time": 47.447297249999714,
                    "velocity": 0.4251968503937008,
                    "duration": 0.0394736249999994
                },
                {
                    "name": "A3",
                    "midi": 57,
                    "time": 47.60519174999971,
                    "velocity": 0.3937007874015748,
                    "duration": 0.0789472499999988
                },
                {
                    "name": "A4",
                    "midi": 69,
                    "time": 47.60519174999971,
                    "velocity": 0.4566929133858268,
                    "duration": 0.0789472499999988
                },
                {
                    "name": "A4",
                    "midi": 69,
                    "time": 47.68413899999971,
                    "velocity": 0.5354330708661418,
                    "duration": 0.0789472499999988
                },
                {
                    "name": "A3",
                    "midi": 57,
                    "time": 47.68413899999971,
                    "velocity": 0.47244094488188976,
                    "duration": 0.0789472499999988
                },
                {
                    "name": "C5",
                    "midi": 72,
                    "time": 47.76308624999971,
                    "velocity": 0.5039370078740157,
                    "duration": 0.0789472499999988
                },
                {
                    "name": "C4",
                    "midi": 60,
                    "time": 47.76308624999971,
                    "velocity": 0.4409448818897638,
                    "duration": 0.0789472499999988
                },
                {
                    "name": "B4",
                    "midi": 71,
                    "time": 47.84203349999971,
                    "velocity": 0.5354330708661418,
                    "duration": 0.0789472499999988
                },
                {
                    "name": "B3",
                    "midi": 59,
                    "time": 47.84203349999971,
                    "velocity": 0.47244094488188976,
                    "duration": 0.0789472499999988
                },
                {
                    "name": "A4",
                    "midi": 69,
                    "time": 47.92098074999971,
                    "velocity": 0.5039370078740157,
                    "duration": 0.0789472499999988
                },
                {
                    "name": "A3",
                    "midi": 57,
                    "time": 47.92098074999971,
                    "velocity": 0.4409448818897638,
                    "duration": 0.0789472499999988
                },
                {
                    "name": "G#4",
                    "midi": 68,
                    "time": 47.999927999999706,
                    "velocity": 0.5669291338582677,
                    "duration": 0.0789472499999988
                },
                {
                    "name": "G#3",
                    "midi": 56,
                    "time": 47.999927999999706,
                    "velocity": 0.49606299212598426,
                    "duration": 0.0789472499999988
                },
                {
                    "name": "B3",
                    "midi": 59,
                    "time": 48.078875249999705,
                    "velocity": 0.5354330708661418,
                    "duration": 0.0394736249999994
                },
                {
                    "name": "D#4",
                    "midi": 63,
                    "time": 48.2367697499997,
                    "velocity": 0.5039370078740157,
                    "duration": 0.0789472499999988
                },
                {
                    "name": "G#3",
                    "midi": 56,
                    "time": 48.3157169999997,
                    "velocity": 0.49606299212598426,
                    "duration": 0.1578944999999976
                },
                {
                    "name": "F4",
                    "midi": 65,
                    "time": 48.3157169999997,
                    "velocity": 0.5748031496062992,
                    "duration": 0.1578944999999976
                },
                {
                    "name": "B3",
                    "midi": 59,
                    "time": 48.3157169999997,
                    "velocity": 0.49606299212598426,
                    "duration": 0.1578944999999976
                },
                {
                    "name": "E4",
                    "midi": 64,
                    "time": 48.4736114999997,
                    "velocity": 0.5511811023622047,
                    "duration": 0.0789472499999988
                },
                {
                    "name": "A5",
                    "midi": 81,
                    "time": 48.631505999999696,
                    "velocity": 0.6062992125984252,
                    "duration": 0.0789472499999988
                },
                {
                    "name": "A4",
                    "midi": 69,
                    "time": 48.631505999999696,
                    "velocity": 0.5196850393700787,
                    "duration": 0.0789472499999988
                },
                {
                    "name": "D#5",
                    "midi": 75,
                    "time": 48.710453249999695,
                    "velocity": 0.3779527559055118,
                    "duration": 0.0394736249999994
                },
                {
                    "name": "F#5",
                    "midi": 78,
                    "time": 48.710453249999695,
                    "velocity": 0.44881889763779526,
                    "duration": 0.0394736249999994
                },
                {
                    "name": "A4",
                    "midi": 69,
                    "time": 48.86834774999969,
                    "velocity": 0.4094488188976378,
                    "duration": 0.0789472499999988
                },
                {
                    "name": "A5",
                    "midi": 81,
                    "time": 48.86834774999969,
                    "velocity": 0.48031496062992124,
                    "duration": 0.0789472499999988
                },
                {
                    "name": "A5",
                    "midi": 81,
                    "time": 48.94729499999969,
                    "velocity": 0.5669291338582677,
                    "duration": 0.0789472499999988
                },
                {
                    "name": "A4",
                    "midi": 69,
                    "time": 48.94729499999969,
                    "velocity": 0.49606299212598426,
                    "duration": 0.0789472499999988
                },
                {
                    "name": "C6",
                    "midi": 84,
                    "time": 49.02624224999969,
                    "velocity": 0.5275590551181102,
                    "duration": 0.0789472499999988
                },
                {
                    "name": "C5",
                    "midi": 72,
                    "time": 49.02624224999969,
                    "velocity": 0.47244094488188976,
                    "duration": 0.0789472499999988
                },
                {
                    "name": "B5",
                    "midi": 83,
                    "time": 49.10518949999969,
                    "velocity": 0.5669291338582677,
                    "duration": 0.0789472499999988
                },
                {
                    "name": "B4",
                    "midi": 71,
                    "time": 49.10518949999969,
                    "velocity": 0.49606299212598426,
                    "duration": 0.0789472499999988
                },
                {
                    "name": "A5",
                    "midi": 81,
                    "time": 49.18413674999969,
                    "velocity": 0.5275590551181102,
                    "duration": 0.0789472499999988
                },
                {
                    "name": "A4",
                    "midi": 69,
                    "time": 49.18413674999969,
                    "velocity": 0.47244094488188976,
                    "duration": 0.0789472499999988
                },
                {
                    "name": "E6",
                    "midi": 88,
                    "time": 49.26308399999969,
                    "velocity": 0.6062992125984252,
                    "duration": 0.0789472499999988
                },
                {
                    "name": "E5",
                    "midi": 76,
                    "time": 49.26308399999969,
                    "velocity": 0.5196850393700787,
                    "duration": 0.0789472499999988
                },
                {
                    "name": "G#5",
                    "midi": 80,
                    "time": 49.342031249999685,
                    "velocity": 0.3779527559055118,
                    "duration": 0.0394736249999994
                },
                {
                    "name": "B5",
                    "midi": 83,
                    "time": 49.342031249999685,
                    "velocity": 0.44881889763779526,
                    "duration": 0.0394736249999994
                },
                {
                    "name": "E5",
                    "midi": 76,
                    "time": 49.49992574999968,
                    "velocity": 0.4094488188976378,
                    "duration": 0.0789472499999988
                },
                {
                    "name": "E6",
                    "midi": 88,
                    "time": 49.49992574999968,
                    "velocity": 0.48031496062992124,
                    "duration": 0.0789472499999988
                },
                {
                    "name": "E6",
                    "midi": 88,
                    "time": 49.57887299999968,
                    "velocity": 0.5669291338582677,
                    "duration": 0.0789472499999988
                },
                {
                    "name": "E5",
                    "midi": 76,
                    "time": 49.57887299999968,
                    "velocity": 0.49606299212598426,
                    "duration": 0.0789472499999988
                },
                {
                    "name": "G6",
                    "midi": 91,
                    "time": 49.65782024999968,
                    "velocity": 0.5275590551181102,
                    "duration": 0.0789472499999988
                },
                {
                    "name": "G5",
                    "midi": 79,
                    "time": 49.65782024999968,
                    "velocity": 0.47244094488188976,
                    "duration": 0.0789472499999988
                },
                {
                    "name": "F6",
                    "midi": 89,
                    "time": 49.73676749999968,
                    "velocity": 0.5669291338582677,
                    "duration": 0.0789472499999988
                },
                {
                    "name": "F5",
                    "midi": 77,
                    "time": 49.73676749999968,
                    "velocity": 0.49606299212598426,
                    "duration": 0.0789472499999988
                },
                {
                    "name": "E6",
                    "midi": 88,
                    "time": 49.81571474999968,
                    "velocity": 0.5275590551181102,
                    "duration": 0.0789472499999988
                },
                {
                    "name": "E5",
                    "midi": 76,
                    "time": 49.81571474999968,
                    "velocity": 0.47244094488188976,
                    "duration": 0.0789472499999988
                },
                {
                    "name": "A5",
                    "midi": 81,
                    "time": 49.89466199999968,
                    "velocity": 0.6299212598425197,
                    "duration": 0.0789472499999988
                },
                {
                    "name": "A4",
                    "midi": 69,
                    "time": 49.89466199999968,
                    "velocity": 0.5433070866141733,
                    "duration": 0.0789472499999988
                },
                {
                    "name": "D#5",
                    "midi": 75,
                    "time": 49.973609249999676,
                    "velocity": 0.3937007874015748,
                    "duration": 0.0394736249999994
                },
                {
                    "name": "F#5",
                    "midi": 78,
                    "time": 49.973609249999676,
                    "velocity": 0.47244094488188976,
                    "duration": 0.0394736249999994
                },
                {
                    "name": "A4",
                    "midi": 69,
                    "time": 50.13150374999967,
                    "velocity": 0.4251968503937008,
                    "duration": 0.0789472499999988
                },
                {
                    "name": "A5",
                    "midi": 81,
                    "time": 50.13150374999967,
                    "velocity": 0.49606299212598426,
                    "duration": 0.0789472499999988
                },
                {
                    "name": "A5",
                    "midi": 81,
                    "time": 50.21045099999967,
                    "velocity": 0.5669291338582677,
                    "duration": 0.0789472499999988
                },
                {
                    "name": "A4",
                    "midi": 69,
                    "time": 50.21045099999967,
                    "velocity": 0.49606299212598426,
                    "duration": 0.0789472499999988
                },
                {
                    "name": "C6",
                    "midi": 84,
                    "time": 50.28939824999967,
                    "velocity": 0.5275590551181102,
                    "duration": 0.0789472499999988
                },
                {
                    "name": "C5",
                    "midi": 72,
                    "time": 50.28939824999967,
                    "velocity": 0.47244094488188976,
                    "duration": 0.0789472499999988
                },
                {
                    "name": "B5",
                    "midi": 83,
                    "time": 50.36834549999967,
                    "velocity": 0.5669291338582677,
                    "duration": 0.0789472499999988
                },
                {
                    "name": "B4",
                    "midi": 71,
                    "time": 50.36834549999967,
                    "velocity": 0.49606299212598426,
                    "duration": 0.0789472499999988
                },
                {
                    "name": "A5",
                    "midi": 81,
                    "time": 50.44729274999967,
                    "velocity": 0.5275590551181102,
                    "duration": 0.0789472499999988
                },
                {
                    "name": "A4",
                    "midi": 69,
                    "time": 50.44729274999967,
                    "velocity": 0.47244094488188976,
                    "duration": 0.0789472499999988
                },
                {
                    "name": "G#5",
                    "midi": 80,
                    "time": 50.52623999999967,
                    "velocity": 0.6062992125984252,
                    "duration": 0.0789472499999988
                },
                {
                    "name": "G#4",
                    "midi": 68,
                    "time": 50.52623999999967,
                    "velocity": 0.5196850393700787,
                    "duration": 0.0789472499999988
                },
                {
                    "name": "B5",
                    "midi": 83,
                    "time": 50.605187249999666,
                    "velocity": 0.5669291338582677,
                    "duration": 0.0394736249999994
                },
                {
                    "name": "B4",
                    "midi": 71,
                    "time": 50.605187249999666,
                    "velocity": 0.5275590551181102,
                    "duration": 0.0394736249999994
                },
                {
                    "name": "D#6",
                    "midi": 87,
                    "time": 50.763081749999664,
                    "velocity": 0.5275590551181102,
                    "duration": 0.0789472499999988
                },
                {
                    "name": "D#5",
                    "midi": 75,
                    "time": 50.763081749999664,
                    "velocity": 0.44881889763779526,
                    "duration": 0.0789472499999988
                },
                {
                    "name": "F6",
                    "midi": 89,
                    "time": 50.84202899999966,
                    "velocity": 0.6141732283464567,
                    "duration": 0.1578944999999976
                },
                {
                    "name": "F5",
                    "midi": 77,
                    "time": 50.84202899999966,
                    "velocity": 0.4409448818897638,
                    "duration": 0.1578944999999976
                },
                {
                    "name": "E6",
                    "midi": 88,
                    "time": 50.99992349999966,
                    "velocity": 0.5748031496062992,
                    "duration": 0.0789472499999988
                },
                {
                    "name": "E5",
                    "midi": 76,
                    "time": 50.99992349999966,
                    "velocity": 0.4881889763779528,
                    "duration": 0.0789472499999988
                },
                {
                    "name": "A5",
                    "midi": 81,
                    "time": 51.15781799999966,
                    "velocity": 0.5433070866141733,
                    "duration": 0.0789472499999988
                },
                {
                    "name": "A6",
                    "midi": 93,
                    "time": 51.15781799999966,
                    "velocity": 0.6377952755905512,
                    "duration": 0.0789472499999988
                },
                {
                    "name": "G5",
                    "midi": 79,
                    "time": 51.15781799999966,
                    "velocity": 0.5433070866141733,
                    "duration": 0.0789472499999988
                },
                {
                    "name": "C#6",
                    "midi": 85,
                    "time": 51.23676524999966,
                    "velocity": 0.3937007874015748,
                    "duration": 0.0394736249999994
                },
                {
                    "name": "E6",
                    "midi": 88,
                    "time": 51.23676524999966,
                    "velocity": 0.47244094488188976,
                    "duration": 0.0394736249999994
                },
                {
                    "name": "A5",
                    "midi": 81,
                    "time": 51.394659749999654,
                    "velocity": 0.4251968503937008,
                    "duration": 0.0789472499999988
                },
                {
                    "name": "A6",
                    "midi": 93,
                    "time": 51.394659749999654,
                    "velocity": 0.49606299212598426,
                    "duration": 0.0789472499999988
                },
                {
                    "name": "A6",
                    "midi": 93,
                    "time": 51.47360699999965,
                    "velocity": 0.5984251968503937,
                    "duration": 0.0789472499999988
                },
                {
                    "name": "A5",
                    "midi": 81,
                    "time": 51.47360699999965,
                    "velocity": 0.5196850393700787,
                    "duration": 0.0789472499999988
                },
                {
                    "name": "A#6",
                    "midi": 94,
                    "time": 51.55255424999965,
                    "velocity": 0.5511811023622047,
                    "duration": 0.0789472499999988
                },
                {
                    "name": "A#5",
                    "midi": 82,
                    "time": 51.55255424999965,
                    "velocity": 0.4881889763779528,
                    "duration": 0.0789472499999988
                },
                {
                    "name": "A6",
                    "midi": 93,
                    "time": 51.63150149999965,
                    "velocity": 0.5984251968503937,
                    "duration": 0.0789472499999988
                },
                {
                    "name": "A5",
                    "midi": 81,
                    "time": 51.63150149999965,
                    "velocity": 0.5196850393700787,
                    "duration": 0.0789472499999988
                },
                {
                    "name": "G6",
                    "midi": 91,
                    "time": 51.71044874999965,
                    "velocity": 0.5511811023622047,
                    "duration": 0.0789472499999988
                },
                {
                    "name": "G5",
                    "midi": 79,
                    "time": 51.71044874999965,
                    "velocity": 0.4881889763779528,
                    "duration": 0.0789472499999988
                },
                {
                    "name": "F6",
                    "midi": 89,
                    "time": 51.78939599999965,
                    "velocity": 0.6377952755905512,
                    "duration": 0.0789472499999988
                },
                {
                    "name": "F5",
                    "midi": 77,
                    "time": 51.78939599999965,
                    "velocity": 0.5433070866141733,
                    "duration": 0.0789472499999988
                },
                {
                    "name": "A5",
                    "midi": 81,
                    "time": 51.86834324999965,
                    "velocity": 0.3937007874015748,
                    "duration": 0.0394736249999994
                },
                {
                    "name": "D6",
                    "midi": 86,
                    "time": 51.86834324999965,
                    "velocity": 0.47244094488188976,
                    "duration": 0.0394736249999994
                },
                {
                    "name": "C#5",
                    "midi": 73,
                    "time": 52.026237749999645,
                    "velocity": 0.4251968503937008,
                    "duration": 0.0789472499999988
                },
                {
                    "name": "C#6",
                    "midi": 85,
                    "time": 52.026237749999645,
                    "velocity": 0.49606299212598426,
                    "duration": 0.0789472499999988
                },
                {
                    "name": "D6",
                    "midi": 86,
                    "time": 52.10518499999964,
                    "velocity": 0.5984251968503937,
                    "duration": 0.0789472499999988
                },
                {
                    "name": "D5",
                    "midi": 74,
                    "time": 52.10518499999964,
                    "velocity": 0.5196850393700787,
                    "duration": 0.0789472499999988
                },
                {
                    "name": "F6",
                    "midi": 89,
                    "time": 52.18413224999964,
                    "velocity": 0.5511811023622047,
                    "duration": 0.0789472499999988
                },
                {
                    "name": "F5",
                    "midi": 77,
                    "time": 52.18413224999964,
                    "velocity": 0.4881889763779528,
                    "duration": 0.0789472499999988
                },
                {
                    "name": "D#6",
                    "midi": 87,
                    "time": 52.26307949999964,
                    "velocity": 0.5984251968503937,
                    "duration": 0.0789472499999988
                },
                {
                    "name": "D#5",
                    "midi": 75,
                    "time": 52.26307949999964,
                    "velocity": 0.5196850393700787,
                    "duration": 0.0789472499999988
                },
                {
                    "name": "D6",
                    "midi": 86,
                    "time": 52.34202674999964,
                    "velocity": 0.5511811023622047,
                    "duration": 0.0789472499999988
                },
                {
                    "name": "D5",
                    "midi": 74,
                    "time": 52.34202674999964,
                    "velocity": 0.4881889763779528,
                    "duration": 0.0789472499999988
                },
                {
                    "name": "G5",
                    "midi": 79,
                    "time": 52.42097399999964,
                    "velocity": 0.5433070866141733,
                    "duration": 0.0789472499999988
                },
                {
                    "name": "G6",
                    "midi": 91,
                    "time": 52.42097399999964,
                    "velocity": 0.6377952755905512,
                    "duration": 0.0789472499999988
                },
                {
                    "name": "F5",
                    "midi": 77,
                    "time": 52.42097399999964,
                    "velocity": 0.5433070866141733,
                    "duration": 0.0789472499999988
                },
                {
                    "name": "B5",
                    "midi": 83,
                    "time": 52.49992124999964,
                    "velocity": 0.3937007874015748,
                    "duration": 0.0394736249999994
                },
                {
                    "name": "D6",
                    "midi": 86,
                    "time": 52.49992124999964,
                    "velocity": 0.47244094488188976,
                    "duration": 0.0394736249999994
                },
                {
                    "name": "G5",
                    "midi": 79,
                    "time": 52.657815749999635,
                    "velocity": 0.4251968503937008,
                    "duration": 0.0789472499999988
                },
                {
                    "name": "G6",
                    "midi": 91,
                    "time": 52.657815749999635,
                    "velocity": 0.49606299212598426,
                    "duration": 0.0789472499999988
                },
                {
                    "name": "G6",
                    "midi": 91,
                    "time": 52.736762999999634,
                    "velocity": 0.5984251968503937,
                    "duration": 0.0789472499999988
                },
                {
                    "name": "G5",
                    "midi": 79,
                    "time": 52.736762999999634,
                    "velocity": 0.5196850393700787,
                    "duration": 0.0789472499999988
                },
                {
                    "name": "G#6",
                    "midi": 92,
                    "time": 52.81571024999963,
                    "velocity": 0.5511811023622047,
                    "duration": 0.0789472499999988
                },
                {
                    "name": "G#5",
                    "midi": 80,
                    "time": 52.81571024999963,
                    "velocity": 0.4881889763779528,
                    "duration": 0.0789472499999988
                },
                {
                    "name": "G6",
                    "midi": 91,
                    "time": 52.89465749999963,
                    "velocity": 0.5984251968503937,
                    "duration": 0.0789472499999988
                },
                {
                    "name": "G5",
                    "midi": 79,
                    "time": 52.89465749999963,
                    "velocity": 0.5196850393700787,
                    "duration": 0.0789472499999988
                },
                {
                    "name": "F6",
                    "midi": 89,
                    "time": 52.97360474999963,
                    "velocity": 0.5511811023622047,
                    "duration": 0.0789472499999988
                },
                {
                    "name": "F5",
                    "midi": 77,
                    "time": 52.97360474999963,
                    "velocity": 0.4881889763779528,
                    "duration": 0.0789472499999988
                },
                {
                    "name": "E6",
                    "midi": 88,
                    "time": 53.05255199999963,
                    "velocity": 0.6377952755905512,
                    "duration": 0.0789472499999988
                },
                {
                    "name": "E5",
                    "midi": 76,
                    "time": 53.05255199999963,
                    "velocity": 0.5433070866141733,
                    "duration": 0.0789472499999988
                },
                {
                    "name": "G5",
                    "midi": 79,
                    "time": 53.13149924999963,
                    "velocity": 0.3937007874015748,
                    "duration": 0.0394736249999994
                },
                {
                    "name": "C6",
                    "midi": 84,
                    "time": 53.13149924999963,
                    "velocity": 0.47244094488188976,
                    "duration": 0.0394736249999994
                },
                {
                    "name": "B4",
                    "midi": 71,
                    "time": 53.289393749999626,
                    "velocity": 0.4251968503937008,
                    "duration": 0.0789472499999988
                },
                {
                    "name": "B5",
                    "midi": 83,
                    "time": 53.289393749999626,
                    "velocity": 0.49606299212598426,
                    "duration": 0.0789472499999988
                },
                {
                    "name": "C6",
                    "midi": 84,
                    "time": 53.368340999999624,
                    "velocity": 0.5984251968503937,
                    "duration": 0.0789472499999988
                },
                {
                    "name": "C5",
                    "midi": 72,
                    "time": 53.368340999999624,
                    "velocity": 0.5196850393700787,
                    "duration": 0.0789472499999988
                },
                {
                    "name": "D#6",
                    "midi": 87,
                    "time": 53.44728824999962,
                    "velocity": 0.5511811023622047,
                    "duration": 0.0789472499999988
                },
                {
                    "name": "D#5",
                    "midi": 75,
                    "time": 53.44728824999962,
                    "velocity": 0.4881889763779528,
                    "duration": 0.0789472499999988
                },
                {
                    "name": "C#6",
                    "midi": 85,
                    "time": 53.52623549999962,
                    "velocity": 0.5984251968503937,
                    "duration": 0.0789472499999988
                },
                {
                    "name": "C#5",
                    "midi": 73,
                    "time": 53.52623549999962,
                    "velocity": 0.5196850393700787,
                    "duration": 0.0789472499999988
                },
                {
                    "name": "C6",
                    "midi": 84,
                    "time": 53.60518274999962,
                    "velocity": 0.5511811023622047,
                    "duration": 0.0789472499999988
                },
                {
                    "name": "C5",
                    "midi": 72,
                    "time": 53.60518274999962,
                    "velocity": 0.4881889763779528,
                    "duration": 0.0789472499999988
                },
                {
                    "name": "F6",
                    "midi": 89,
                    "time": 53.68412999999962,
                    "velocity": 0.6377952755905512,
                    "duration": 0.0789472499999988
                },
                {
                    "name": "F5",
                    "midi": 77,
                    "time": 53.68412999999962,
                    "velocity": 0.5433070866141733,
                    "duration": 0.0789472499999988
                },
                {
                    "name": "G#5",
                    "midi": 80,
                    "time": 53.76307724999962,
                    "velocity": 0.3937007874015748,
                    "duration": 0.0394736249999994
                },
                {
                    "name": "B5",
                    "midi": 83,
                    "time": 53.76307724999962,
                    "velocity": 0.47244094488188976,
                    "duration": 0.0394736249999994
                },
                {
                    "name": "G#4",
                    "midi": 68,
                    "time": 53.920971749999616,
                    "velocity": 0.3700787401574803,
                    "duration": 0.0789472499999988
                },
                {
                    "name": "B4",
                    "midi": 71,
                    "time": 53.920971749999616,
                    "velocity": 0.4251968503937008,
                    "duration": 0.0789472499999988
                },
                {
                    "name": "B4",
                    "midi": 71,
                    "time": 53.999918999999615,
                    "velocity": 0.5196850393700787,
                    "duration": 0.0789472499999988
                },
                {
                    "name": "G#4",
                    "midi": 68,
                    "time": 53.999918999999615,
                    "velocity": 0.4566929133858268,
                    "duration": 0.3157889999999952
                },
                {
                    "name": "D5",
                    "midi": 74,
                    "time": 54.078866249999614,
                    "velocity": 0.4881889763779528,
                    "duration": 0.0789472499999988
                },
                {
                    "name": "C5",
                    "midi": 72,
                    "time": 54.15781349999961,
                    "velocity": 0.5196850393700787,
                    "duration": 0.0789472499999988
                },
                {
                    "name": "B4",
                    "midi": 71,
                    "time": 54.23676074999961,
                    "velocity": 0.4881889763779528,
                    "duration": 0.0789472499999988
                },
                {
                    "name": "E6",
                    "midi": 88,
                    "time": 54.31570799999961,
                    "velocity": 0.6377952755905512,
                    "duration": 0.0789472499999988
                },
                {
                    "name": "E5",
                    "midi": 76,
                    "time": 54.31570799999961,
                    "velocity": 0.5433070866141733,
                    "duration": 0.0789472499999988
                },
                {
                    "name": "A5",
                    "midi": 81,
                    "time": 54.39465524999961,
                    "velocity": 0.3937007874015748,
                    "duration": 0.0394736249999994
                },
                {
                    "name": "C6",
                    "midi": 84,
                    "time": 54.39465524999961,
                    "velocity": 0.47244094488188976,
                    "duration": 0.0394736249999994
                },
                {
                    "name": "E4",
                    "midi": 64,
                    "time": 54.552549749999606,
                    "velocity": 0.3858267716535433,
                    "duration": 0.0789472499999988
                },
                {
                    "name": "A4",
                    "midi": 69,
                    "time": 54.552549749999606,
                    "velocity": 0.4251968503937008,
                    "duration": 0.0789472499999988
                },
                {
                    "name": "A4",
                    "midi": 69,
                    "time": 54.631496999999605,
                    "velocity": 0.48031496062992124,
                    "duration": 0.0789472499999988
                },
                {
                    "name": "E4",
                    "midi": 64,
                    "time": 54.631496999999605,
                    "velocity": 0.4251968503937008,
                    "duration": 0.3157889999999952
                },
                {
                    "name": "C5",
                    "midi": 72,
                    "time": 54.710444249999604,
                    "velocity": 0.4409448818897638,
                    "duration": 0.0789472499999988
                },
                {
                    "name": "B4",
                    "midi": 71,
                    "time": 54.7893914999996,
                    "velocity": 0.48031496062992124,
                    "duration": 0.0789472499999988
                },
                {
                    "name": "A4",
                    "midi": 69,
                    "time": 54.8683387499996,
                    "velocity": 0.44881889763779526,
                    "duration": 0.0789472499999988
                },
                {
                    "name": "D4",
                    "midi": 62,
                    "time": 54.9472859999996,
                    "velocity": 0.4094488188976378,
                    "duration": 0.0789472499999988
                },
                {
                    "name": "D5",
                    "midi": 74,
                    "time": 54.9472859999996,
                    "velocity": 0.4881889763779528,
                    "duration": 0.0789472499999988
                },
                {
                    "name": "F4",
                    "midi": 65,
                    "time": 55.0262332499996,
                    "velocity": 0.4015748031496063,
                    "duration": 0.0789472499999988
                },
                {
                    "name": "F5",
                    "midi": 77,
                    "time": 55.0262332499996,
                    "velocity": 0.47244094488188976,
                    "duration": 0.0789472499999988
                },
                {
                    "name": "E4",
                    "midi": 64,
                    "time": 55.1051804999996,
                    "velocity": 0.4015748031496063,
                    "duration": 0.0789472499999988
                },
                {
                    "name": "E5",
                    "midi": 76,
                    "time": 55.1051804999996,
                    "velocity": 0.47244094488188976,
                    "duration": 0.0789472499999988
                },
                {
                    "name": "D#4",
                    "midi": 63,
                    "time": 55.1841277499996,
                    "velocity": 0.3700787401574803,
                    "duration": 0.0789472499999988
                },
                {
                    "name": "D#5",
                    "midi": 75,
                    "time": 55.1841277499996,
                    "velocity": 0.4409448818897638,
                    "duration": 0.0789472499999988
                },
                {
                    "name": "E4",
                    "midi": 64,
                    "time": 55.263074999999596,
                    "velocity": 0.4015748031496063,
                    "duration": 0.0789472499999988
                },
                {
                    "name": "E5",
                    "midi": 76,
                    "time": 55.263074999999596,
                    "velocity": 0.47244094488188976,
                    "duration": 0.0789472499999988
                },
                {
                    "name": "B3",
                    "midi": 59,
                    "time": 55.342022249999594,
                    "velocity": 0.3228346456692913,
                    "duration": 0.0789472499999988
                },
                {
                    "name": "B4",
                    "midi": 71,
                    "time": 55.342022249999594,
                    "velocity": 0.3937007874015748,
                    "duration": 0.0789472499999988
                },
                {
                    "name": "D4",
                    "midi": 62,
                    "time": 55.42096949999959,
                    "velocity": 0.3464566929133858,
                    "duration": 0.0789472499999988
                },
                {
                    "name": "D5",
                    "midi": 74,
                    "time": 55.42096949999959,
                    "velocity": 0.4094488188976378,
                    "duration": 0.0789472499999988
                },
                {
                    "name": "C4",
                    "midi": 60,
                    "time": 55.49991674999959,
                    "velocity": 0.3228346456692913,
                    "duration": 0.0789472499999988
                },
                {
                    "name": "C5",
                    "midi": 72,
                    "time": 55.49991674999959,
                    "velocity": 0.3937007874015748,
                    "duration": 0.0789472499999988
                },
                {
                    "name": "E4",
                    "midi": 64,
                    "time": 55.57886399999959,
                    "velocity": 0.4251968503937008,
                    "duration": 0.0789472499999988
                },
                {
                    "name": "B3",
                    "midi": 59,
                    "time": 55.57886399999959,
                    "velocity": 0.23622047244094488,
                    "duration": 0.3157889999999952
                },
                {
                    "name": "B4",
                    "midi": 71,
                    "time": 55.57886399999959,
                    "velocity": 0.31496062992125984,
                    "duration": 0.3157889999999952
                },
                {
                    "name": "G4",
                    "midi": 67,
                    "time": 55.65781124999959,
                    "velocity": 0.3543307086614173,
                    "duration": 0.0789472499999988
                },
                {
                    "name": "F4",
                    "midi": 65,
                    "time": 55.73675849999959,
                    "velocity": 0.3543307086614173,
                    "duration": 0.0789472499999988
                },
                {
                    "name": "E4",
                    "midi": 64,
                    "time": 55.81570574999959,
                    "velocity": 0.33070866141732286,
                    "duration": 0.1578944999999976
                },
                {
                    "name": "A3",
                    "midi": 57,
                    "time": 55.894652999999586,
                    "velocity": 0.2283464566929134,
                    "duration": 0.0789472499999988
                },
                {
                    "name": "A4",
                    "midi": 69,
                    "time": 55.894652999999586,
                    "velocity": 0.2755905511811024,
                    "duration": 0.0789472499999988
                },
                {
                    "name": "A5",
                    "midi": 81,
                    "time": 56.21044199999959,
                    "velocity": 0.3543307086614173,
                    "duration": 0.1578944999999976
                },
                {
                    "name": "A6",
                    "midi": 93,
                    "time": 56.28938924999959,
                    "velocity": 0.4015748031496063,
                    "duration": 0.09210512499999624
                },
                {
                    "name": "G#6",
                    "midi": 92,
                    "time": 56.368336499999586,
                    "velocity": 0.4015748031496063,
                    "duration": 0.09210512499999624
                },
                {
                    "name": "G#5",
                    "midi": 80,
                    "time": 56.368336499999586,
                    "velocity": 0.33858267716535434,
                    "duration": 0.09210512499999624
                },
                {
                    "name": "G6",
                    "midi": 91,
                    "time": 56.447283749999585,
                    "velocity": 0.3937007874015748,
                    "duration": 0.09210512499999624
                },
                {
                    "name": "G5",
                    "midi": 79,
                    "time": 56.447283749999585,
                    "velocity": 0.33070866141732286,
                    "duration": 0.09210512499999624
                },
                {
                    "name": "F#6",
                    "midi": 90,
                    "time": 56.526230999999584,
                    "velocity": 0.3937007874015748,
                    "duration": 0.09210512499999624
                },
                {
                    "name": "F#5",
                    "midi": 78,
                    "time": 56.526230999999584,
                    "velocity": 0.33070866141732286,
                    "duration": 0.09210512499999624
                },
                {
                    "name": "F6",
                    "midi": 89,
                    "time": 56.60517824999958,
                    "velocity": 0.3858267716535433,
                    "duration": 0.09210512499999624
                },
                {
                    "name": "F5",
                    "midi": 77,
                    "time": 56.60517824999958,
                    "velocity": 0.3228346456692913,
                    "duration": 0.09210512499999624
                },
                {
                    "name": "E6",
                    "midi": 88,
                    "time": 56.68412549999958,
                    "velocity": 0.3858267716535433,
                    "duration": 0.09210512499999624
                },
                {
                    "name": "E5",
                    "midi": 76,
                    "time": 56.68412549999958,
                    "velocity": 0.3228346456692913,
                    "duration": 0.09210512499999624
                },
                {
                    "name": "D#6",
                    "midi": 87,
                    "time": 56.76307274999958,
                    "velocity": 0.3779527559055118,
                    "duration": 0.0789472499999988
                },
                {
                    "name": "D#5",
                    "midi": 75,
                    "time": 56.76307274999958,
                    "velocity": 0.31496062992125984,
                    "duration": 0.0789472499999988
                },
                {
                    "name": "F5",
                    "midi": 77,
                    "time": 56.84201999999958,
                    "velocity": 0.33858267716535434,
                    "duration": 0.09210512499999624
                },
                {
                    "name": "F6",
                    "midi": 89,
                    "time": 56.84201999999958,
                    "velocity": 0.4015748031496063,
                    "duration": 0.09210512499999624
                },
                {
                    "name": "E5",
                    "midi": 76,
                    "time": 56.92096724999958,
                    "velocity": 0.29133858267716534,
                    "duration": 0.09210512499999624
                },
                {
                    "name": "E6",
                    "midi": 88,
                    "time": 56.92096724999958,
                    "velocity": 0.3543307086614173,
                    "duration": 0.09210512499999624
                },
                {
                    "name": "D#5",
                    "midi": 75,
                    "time": 56.999914499999576,
                    "velocity": 0.31496062992125984,
                    "duration": 0.09210512499999624
                },
                {
                    "name": "D#6",
                    "midi": 87,
                    "time": 56.999914499999576,
                    "velocity": 0.3779527559055118,
                    "duration": 0.09210512499999624
                },
                {
                    "name": "F6",
                    "midi": 89,
                    "time": 57.078861749999575,
                    "velocity": 0.3543307086614173,
                    "duration": 0.0789472499999988
                },
                {
                    "name": "F5",
                    "midi": 77,
                    "time": 57.078861749999575,
                    "velocity": 0.29133858267716534,
                    "duration": 0.0789472499999988
                },
                {
                    "name": "E5",
                    "midi": 76,
                    "time": 57.157808999999574,
                    "velocity": 0.31496062992125984,
                    "duration": 0.1578944999999976
                },
                {
                    "name": "E6",
                    "midi": 88,
                    "time": 57.157808999999574,
                    "velocity": 0.3700787401574803,
                    "duration": 0.09210512499999624
                },
                {
                    "name": "B5",
                    "midi": 83,
                    "time": 57.23675624999957,
                    "velocity": 0.36220472440944884,
                    "duration": 0.09210512499999624
                },
                {
                    "name": "B4",
                    "midi": 71,
                    "time": 57.31570349999957,
                    "velocity": 0.2992125984251969,
                    "duration": 0.1578944999999976
                },
                {
                    "name": "G#5",
                    "midi": 80,
                    "time": 57.31570349999957,
                    "velocity": 0.3543307086614173,
                    "duration": 0.09210512499999624
                },
                {
                    "name": "E5",
                    "midi": 76,
                    "time": 57.39465074999957,
                    "velocity": 0.3543307086614173,
                    "duration": 0.0789472499999988
                },
                {
                    "name": "A5",
                    "midi": 81,
                    "time": 57.47359799999957,
                    "velocity": 0.3543307086614173,
                    "duration": 0.1578944999999976
                },
                {
                    "name": "A6",
                    "midi": 93,
                    "time": 57.55254524999957,
                    "velocity": 0.4015748031496063,
                    "duration": 0.09210512499999624
                },
                {
                    "name": "G#6",
                    "midi": 92,
                    "time": 57.63149249999957,
                    "velocity": 0.4015748031496063,
                    "duration": 0.09210512499999624
                },
                {
                    "name": "G#5",
                    "midi": 80,
                    "time": 57.63149249999957,
                    "velocity": 0.33858267716535434,
                    "duration": 0.09210512499999624
                },
                {
                    "name": "G6",
                    "midi": 91,
                    "time": 57.710439749999566,
                    "velocity": 0.3937007874015748,
                    "duration": 0.09210512499999624
                },
                {
                    "name": "G5",
                    "midi": 79,
                    "time": 57.710439749999566,
                    "velocity": 0.33070866141732286,
                    "duration": 0.09210512499999624
                },
                {
                    "name": "F#6",
                    "midi": 90,
                    "time": 57.789386999999564,
                    "velocity": 0.3937007874015748,
                    "duration": 0.09210512499999624
                },
                {
                    "name": "F#5",
                    "midi": 78,
                    "time": 57.789386999999564,
                    "velocity": 0.33070866141732286,
                    "duration": 0.09210512499999624
                },
                {
                    "name": "F6",
                    "midi": 89,
                    "time": 57.86833424999956,
                    "velocity": 0.3858267716535433,
                    "duration": 0.09210512499999624
                },
                {
                    "name": "F5",
                    "midi": 77,
                    "time": 57.86833424999956,
                    "velocity": 0.3228346456692913,
                    "duration": 0.09210512499999624
                },
                {
                    "name": "E6",
                    "midi": 88,
                    "time": 57.94728149999956,
                    "velocity": 0.3858267716535433,
                    "duration": 0.09210512499999624
                },
                {
                    "name": "E5",
                    "midi": 76,
                    "time": 57.94728149999956,
                    "velocity": 0.3228346456692913,
                    "duration": 0.09210512499999624
                },
                {
                    "name": "D#6",
                    "midi": 87,
                    "time": 58.02622874999956,
                    "velocity": 0.3779527559055118,
                    "duration": 0.0789472499999988
                },
                {
                    "name": "D#5",
                    "midi": 75,
                    "time": 58.02622874999956,
                    "velocity": 0.31496062992125984,
                    "duration": 0.0789472499999988
                },
                {
                    "name": "F5",
                    "midi": 77,
                    "time": 58.10517599999956,
                    "velocity": 0.33858267716535434,
                    "duration": 0.09210512499999624
                },
                {
                    "name": "F6",
                    "midi": 89,
                    "time": 58.10517599999956,
                    "velocity": 0.4015748031496063,
                    "duration": 0.09210512499999624
                },
                {
                    "name": "E5",
                    "midi": 76,
                    "time": 58.18412324999956,
                    "velocity": 0.29133858267716534,
                    "duration": 0.09210512499999624
                },
                {
                    "name": "E6",
                    "midi": 88,
                    "time": 58.18412324999956,
                    "velocity": 0.3543307086614173,
                    "duration": 0.09210512499999624
                },
                {
                    "name": "D#5",
                    "midi": 75,
                    "time": 58.26307049999956,
                    "velocity": 0.31496062992125984,
                    "duration": 0.09210512499999624
                },
                {
                    "name": "D#6",
                    "midi": 87,
                    "time": 58.26307049999956,
                    "velocity": 0.3779527559055118,
                    "duration": 0.09210512499999624
                },
                {
                    "name": "F6",
                    "midi": 89,
                    "time": 58.342017749999556,
                    "velocity": 0.3543307086614173,
                    "duration": 0.09210512499999624
                },
                {
                    "name": "F5",
                    "midi": 77,
                    "time": 58.342017749999556,
                    "velocity": 0.29133858267716534,
                    "duration": 0.09210512499999624
                },
                {
                    "name": "E5",
                    "midi": 76,
                    "time": 58.420964999999555,
                    "velocity": 0.31496062992125984,
                    "duration": 0.0789472499999988
                },
                {
                    "name": "E6",
                    "midi": 88,
                    "time": 58.420964999999555,
                    "velocity": 0.3700787401574803,
                    "duration": 0.0789472499999988
                },
                {
                    "name": "E5",
                    "midi": 76,
                    "time": 58.57885949999955,
                    "velocity": 0.3700787401574803,
                    "duration": 0.0789472499999988
                },
                {
                    "name": "A5",
                    "midi": 81,
                    "time": 58.73675399999955,
                    "velocity": 0.3543307086614173,
                    "duration": 0.1578944999999976
                },
                {
                    "name": "A6",
                    "midi": 93,
                    "time": 58.81570124999955,
                    "velocity": 0.4015748031496063,
                    "duration": 0.09210512499999624
                },
                {
                    "name": "G#6",
                    "midi": 92,
                    "time": 58.89464849999955,
                    "velocity": 0.4015748031496063,
                    "duration": 0.09210512499999624
                },
                {
                    "name": "G#5",
                    "midi": 80,
                    "time": 58.89464849999955,
                    "velocity": 0.33858267716535434,
                    "duration": 0.09210512499999624
                },
                {
                    "name": "G6",
                    "midi": 91,
                    "time": 58.97359574999955,
                    "velocity": 0.3937007874015748,
                    "duration": 0.09210512499999624
                },
                {
                    "name": "G5",
                    "midi": 79,
                    "time": 58.97359574999955,
                    "velocity": 0.33070866141732286,
                    "duration": 0.09210512499999624
                },
                {
                    "name": "F#6",
                    "midi": 90,
                    "time": 59.052542999999545,
                    "velocity": 0.3937007874015748,
                    "duration": 0.09210512499999624
                },
                {
                    "name": "F#5",
                    "midi": 78,
                    "time": 59.052542999999545,
                    "velocity": 0.33070866141732286,
                    "duration": 0.09210512499999624
                },
                {
                    "name": "F6",
                    "midi": 89,
                    "time": 59.131490249999544,
                    "velocity": 0.3858267716535433,
                    "duration": 0.09210512499999624
                },
                {
                    "name": "F5",
                    "midi": 77,
                    "time": 59.131490249999544,
                    "velocity": 0.3228346456692913,
                    "duration": 0.09210512499999624
                },
                {
                    "name": "E6",
                    "midi": 88,
                    "time": 59.21043749999954,
                    "velocity": 0.3858267716535433,
                    "duration": 0.09210512499999624
                },
                {
                    "name": "E5",
                    "midi": 76,
                    "time": 59.21043749999954,
                    "velocity": 0.3228346456692913,
                    "duration": 0.09210512499999624
                },
                {
                    "name": "D#6",
                    "midi": 87,
                    "time": 59.28938474999954,
                    "velocity": 0.3779527559055118,
                    "duration": 0.0789472499999988
                },
                {
                    "name": "D#5",
                    "midi": 75,
                    "time": 59.28938474999954,
                    "velocity": 0.31496062992125984,
                    "duration": 0.0789472499999988
                },
                {
                    "name": "F5",
                    "midi": 77,
                    "time": 59.36833199999954,
                    "velocity": 0.33858267716535434,
                    "duration": 0.09210512499999624
                },
                {
                    "name": "F6",
                    "midi": 89,
                    "time": 59.36833199999954,
                    "velocity": 0.4015748031496063,
                    "duration": 0.09210512499999624
                },
                {
                    "name": "E5",
                    "midi": 76,
                    "time": 59.44727924999954,
                    "velocity": 0.29133858267716534,
                    "duration": 0.09210512499999624
                },
                {
                    "name": "E6",
                    "midi": 88,
                    "time": 59.44727924999954,
                    "velocity": 0.3543307086614173,
                    "duration": 0.09210512499999624
                },
                {
                    "name": "D#5",
                    "midi": 75,
                    "time": 59.52622649999954,
                    "velocity": 0.31496062992125984,
                    "duration": 0.09210512499999624
                },
                {
                    "name": "D#6",
                    "midi": 87,
                    "time": 59.52622649999954,
                    "velocity": 0.3779527559055118,
                    "duration": 0.09210512499999624
                },
                {
                    "name": "F6",
                    "midi": 89,
                    "time": 59.60517374999954,
                    "velocity": 0.3543307086614173,
                    "duration": 0.0789472499999988
                },
                {
                    "name": "F5",
                    "midi": 77,
                    "time": 59.60517374999954,
                    "velocity": 0.29133858267716534,
                    "duration": 0.0789472499999988
                },
                {
                    "name": "E5",
                    "midi": 76,
                    "time": 59.684120999999536,
                    "velocity": 0.31496062992125984,
                    "duration": 0.1578944999999976
                },
                {
                    "name": "E6",
                    "midi": 88,
                    "time": 59.684120999999536,
                    "velocity": 0.3700787401574803,
                    "duration": 0.09210512499999624
                },
                {
                    "name": "B5",
                    "midi": 83,
                    "time": 59.763068249999534,
                    "velocity": 0.36220472440944884,
                    "duration": 0.09210512499999624
                },
                {
                    "name": "B4",
                    "midi": 71,
                    "time": 59.84201549999953,
                    "velocity": 0.2992125984251969,
                    "duration": 0.1578944999999976
                },
                {
                    "name": "G#5",
                    "midi": 80,
                    "time": 59.84201549999953,
                    "velocity": 0.3543307086614173,
                    "duration": 0.09210512499999624
                },
                {
                    "name": "E5",
                    "midi": 76,
                    "time": 59.92096274999953,
                    "velocity": 0.3543307086614173,
                    "duration": 0.0789472499999988
                },
                {
                    "name": "A5",
                    "midi": 81,
                    "time": 59.99990999999953,
                    "velocity": 0.3543307086614173,
                    "duration": 0.1578944999999976
                },
                {
                    "name": "A6",
                    "midi": 93,
                    "time": 60.07885724999953,
                    "velocity": 0.4015748031496063,
                    "duration": 0.09210512499999624
                },
                {
                    "name": "G#6",
                    "midi": 92,
                    "time": 60.15780449999953,
                    "velocity": 0.4015748031496063,
                    "duration": 0.09210512499999624
                },
                {
                    "name": "G#5",
                    "midi": 80,
                    "time": 60.15780449999953,
                    "velocity": 0.33858267716535434,
                    "duration": 0.09210512499999624
                },
                {
                    "name": "G6",
                    "midi": 91,
                    "time": 60.23675174999953,
                    "velocity": 0.3937007874015748,
                    "duration": 0.09210512499999624
                },
                {
                    "name": "G5",
                    "midi": 79,
                    "time": 60.23675174999953,
                    "velocity": 0.33070866141732286,
                    "duration": 0.09210512499999624
                },
                {
                    "name": "F#6",
                    "midi": 90,
                    "time": 60.315698999999526,
                    "velocity": 0.3937007874015748,
                    "duration": 0.09210512499999624
                },
                {
                    "name": "F#5",
                    "midi": 78,
                    "time": 60.315698999999526,
                    "velocity": 0.33070866141732286,
                    "duration": 0.09210512499999624
                },
                {
                    "name": "F6",
                    "midi": 89,
                    "time": 60.394646249999525,
                    "velocity": 0.3858267716535433,
                    "duration": 0.09210512499999624
                },
                {
                    "name": "F5",
                    "midi": 77,
                    "time": 60.394646249999525,
                    "velocity": 0.3228346456692913,
                    "duration": 0.09210512499999624
                },
                {
                    "name": "E6",
                    "midi": 88,
                    "time": 60.473593499999524,
                    "velocity": 0.3858267716535433,
                    "duration": 0.09210512499999624
                },
                {
                    "name": "E5",
                    "midi": 76,
                    "time": 60.473593499999524,
                    "velocity": 0.3228346456692913,
                    "duration": 0.09210512499999624
                },
                {
                    "name": "D#6",
                    "midi": 87,
                    "time": 60.55254074999952,
                    "velocity": 0.3779527559055118,
                    "duration": 0.0789472499999988
                },
                {
                    "name": "D#5",
                    "midi": 75,
                    "time": 60.55254074999952,
                    "velocity": 0.31496062992125984,
                    "duration": 0.0789472499999988
                },
                {
                    "name": "F5",
                    "midi": 77,
                    "time": 60.63148799999952,
                    "velocity": 0.33858267716535434,
                    "duration": 0.09210512499999624
                },
                {
                    "name": "F6",
                    "midi": 89,
                    "time": 60.63148799999952,
                    "velocity": 0.4015748031496063,
                    "duration": 0.09210512499999624
                },
                {
                    "name": "E5",
                    "midi": 76,
                    "time": 60.71043524999952,
                    "velocity": 0.29133858267716534,
                    "duration": 0.09210512499999624
                },
                {
                    "name": "E6",
                    "midi": 88,
                    "time": 60.71043524999952,
                    "velocity": 0.3543307086614173,
                    "duration": 0.09210512499999624
                },
                {
                    "name": "D#5",
                    "midi": 75,
                    "time": 60.78938249999952,
                    "velocity": 0.31496062992125984,
                    "duration": 0.09210512499999624
                },
                {
                    "name": "D#6",
                    "midi": 87,
                    "time": 60.78938249999952,
                    "velocity": 0.3779527559055118,
                    "duration": 0.09210512499999624
                },
                {
                    "name": "F6",
                    "midi": 89,
                    "time": 60.86832974999952,
                    "velocity": 0.3543307086614173,
                    "duration": 0.09210512499999624
                },
                {
                    "name": "F5",
                    "midi": 77,
                    "time": 60.86832974999952,
                    "velocity": 0.29133858267716534,
                    "duration": 0.09210512499999624
                },
                {
                    "name": "E5",
                    "midi": 76,
                    "time": 60.94727699999952,
                    "velocity": 0.31496062992125984,
                    "duration": 0.0789472499999988
                },
                {
                    "name": "E6",
                    "midi": 88,
                    "time": 60.94727699999952,
                    "velocity": 0.3700787401574803,
                    "duration": 0.0789472499999988
                },
                {
                    "name": "E5",
                    "midi": 76,
                    "time": 61.105171499999514,
                    "velocity": 0.3700787401574803,
                    "duration": 0.0789472499999988
                },
                {
                    "name": "A5",
                    "midi": 81,
                    "time": 61.26306599999951,
                    "velocity": 0.41732283464566927,
                    "duration": 0.1578944999999976
                },
                {
                    "name": "A6",
                    "midi": 93,
                    "time": 61.34201324999951,
                    "velocity": 0.47244094488188976,
                    "duration": 0.09210512499999624
                },
                {
                    "name": "G#6",
                    "midi": 92,
                    "time": 61.42096049999951,
                    "velocity": 0.47244094488188976,
                    "duration": 0.09210512499999624
                },
                {
                    "name": "G#5",
                    "midi": 80,
                    "time": 61.42096049999951,
                    "velocity": 0.3937007874015748,
                    "duration": 0.09210512499999624
                },
                {
                    "name": "G6",
                    "midi": 91,
                    "time": 61.49990774999951,
                    "velocity": 0.4645669291338583,
                    "duration": 0.09210512499999624
                },
                {
                    "name": "G5",
                    "midi": 79,
                    "time": 61.49990774999951,
                    "velocity": 0.3858267716535433,
                    "duration": 0.09210512499999624
                },
                {
                    "name": "F#6",
                    "midi": 90,
                    "time": 61.57885499999951,
                    "velocity": 0.4645669291338583,
                    "duration": 0.09210512499999624
                },
                {
                    "name": "F#5",
                    "midi": 78,
                    "time": 61.57885499999951,
                    "velocity": 0.3858267716535433,
                    "duration": 0.09210512499999624
                },
                {
                    "name": "F6",
                    "midi": 89,
                    "time": 61.657802249999506,
                    "velocity": 0.4645669291338583,
                    "duration": 0.09210512499999624
                },
                {
                    "name": "F5",
                    "midi": 77,
                    "time": 61.657802249999506,
                    "velocity": 0.3858267716535433,
                    "duration": 0.09210512499999624
                },
                {
                    "name": "E6",
                    "midi": 88,
                    "time": 61.736749499999505,
                    "velocity": 0.4645669291338583,
                    "duration": 0.09210512499999624
                },
                {
                    "name": "E5",
                    "midi": 76,
                    "time": 61.736749499999505,
                    "velocity": 0.3858267716535433,
                    "duration": 0.09210512499999624
                },
                {
                    "name": "D6",
                    "midi": 86,
                    "time": 61.8156967499995,
                    "velocity": 0.4566929133858268,
                    "duration": 0.0789472499999988
                },
                {
                    "name": "D5",
                    "midi": 74,
                    "time": 61.8156967499995,
                    "velocity": 0.3779527559055118,
                    "duration": 0.0789472499999988
                },
                {
                    "name": "C#5",
                    "midi": 73,
                    "time": 61.8946439999995,
                    "velocity": 0.3937007874015748,
                    "duration": 0.1578944999999976
                },
                {
                    "name": "C#6",
                    "midi": 85,
                    "time": 61.8946439999995,
                    "velocity": 0.47244094488188976,
                    "duration": 0.09210512499999624
                },
                {
                    "name": "E6",
                    "midi": 88,
                    "time": 61.9735912499995,
                    "velocity": 0.41732283464566927,
                    "duration": 0.09210512499999624
                },
                {
                    "name": "C#5",
                    "midi": 73,
                    "time": 62.0525384999995,
                    "velocity": 0.3779527559055118,
                    "duration": 0.1578944999999976
                },
                {
                    "name": "A5",
                    "midi": 81,
                    "time": 62.0525384999995,
                    "velocity": 0.4566929133858268,
                    "duration": 0.09210512499999624
                },
                {
                    "name": "C#6",
                    "midi": 85,
                    "time": 62.1314857499995,
                    "velocity": 0.41732283464566927,
                    "duration": 0.0789472499999988
                },
                {
                    "name": "D5",
                    "midi": 74,
                    "time": 62.2104329999995,
                    "velocity": 0.3779527559055118,
                    "duration": 0.1578944999999976
                },
                {
                    "name": "D6",
                    "midi": 86,
                    "time": 62.2104329999995,
                    "velocity": 0.44881889763779526,
                    "duration": 0.09210512499999624
                },
                {
                    "name": "A5",
                    "midi": 81,
                    "time": 62.289380249999496,
                    "velocity": 0.4409448818897638,
                    "duration": 0.09210512499999624
                },
                {
                    "name": "A4",
                    "midi": 69,
                    "time": 62.368327499999495,
                    "velocity": 0.36220472440944884,
                    "duration": 0.1578944999999976
                },
                {
                    "name": "F5",
                    "midi": 77,
                    "time": 62.368327499999495,
                    "velocity": 0.4330708661417323,
                    "duration": 0.09210512499999624
                },
                {
                    "name": "D5",
                    "midi": 74,
                    "time": 62.447274749999494,
                    "velocity": 0.41732283464566927,
                    "duration": 0.0789472499999988
                },
                {
                    "name": "G5",
                    "midi": 79,
                    "time": 62.52622199999949,
                    "velocity": 0.4409448818897638,
                    "duration": 0.1578944999999976
                },
                {
                    "name": "G6",
                    "midi": 91,
                    "time": 62.60516924999949,
                    "velocity": 0.49606299212598426,
                    "duration": 0.09210512499999624
                },
                {
                    "name": "F#6",
                    "midi": 90,
                    "time": 62.68411649999949,
                    "velocity": 0.49606299212598426,
                    "duration": 0.09210512499999624
                },
                {
                    "name": "F#5",
                    "midi": 78,
                    "time": 62.68411649999949,
                    "velocity": 0.4094488188976378,
                    "duration": 0.09210512499999624
                },
                {
                    "name": "F6",
                    "midi": 89,
                    "time": 62.76306374999949,
                    "velocity": 0.4881889763779528,
                    "duration": 0.09210512499999624
                },
                {
                    "name": "F5",
                    "midi": 77,
                    "time": 62.76306374999949,
                    "velocity": 0.4015748031496063,
                    "duration": 0.09210512499999624
                },
                {
                    "name": "E6",
                    "midi": 88,
                    "time": 62.84201099999949,
                    "velocity": 0.4881889763779528,
                    "duration": 0.09210512499999624
                },
                {
                    "name": "E5",
                    "midi": 76,
                    "time": 62.84201099999949,
                    "velocity": 0.4015748031496063,
                    "duration": 0.09210512499999624
                },
                {
                    "name": "D#6",
                    "midi": 87,
                    "time": 62.92095824999949,
                    "velocity": 0.48031496062992124,
                    "duration": 0.09210512499999624
                },
                {
                    "name": "D#5",
                    "midi": 75,
                    "time": 62.92095824999949,
                    "velocity": 0.3937007874015748,
                    "duration": 0.09210512499999624
                },
                {
                    "name": "D6",
                    "midi": 86,
                    "time": 62.999905499999485,
                    "velocity": 0.48031496062992124,
                    "duration": 0.09210512499999624
                },
                {
                    "name": "D5",
                    "midi": 74,
                    "time": 62.999905499999485,
                    "velocity": 0.3937007874015748,
                    "duration": 0.09210512499999624
                },
                {
                    "name": "C6",
                    "midi": 84,
                    "time": 63.078852749999484,
                    "velocity": 0.4645669291338583,
                    "duration": 0.0789472499999988
                },
                {
                    "name": "C5",
                    "midi": 72,
                    "time": 63.078852749999484,
                    "velocity": 0.3858267716535433,
                    "duration": 0.0789472499999988
                },
                {
                    "name": "B4",
                    "midi": 71,
                    "time": 63.15779999999948,
                    "velocity": 0.4094488188976378,
                    "duration": 0.1578944999999976
                },
                {
                    "name": "B5",
                    "midi": 83,
                    "time": 63.15779999999948,
                    "velocity": 0.49606299212598426,
                    "duration": 0.09210512499999624
                },
                {
                    "name": "D6",
                    "midi": 86,
                    "time": 63.23674724999948,
                    "velocity": 0.4409448818897638,
                    "duration": 0.09210512499999624
                },
                {
                    "name": "B4",
                    "midi": 71,
                    "time": 63.31569449999948,
                    "velocity": 0.3858267716535433,
                    "duration": 0.1578944999999976
                },
                {
                    "name": "G5",
                    "midi": 79,
                    "time": 63.31569449999948,
                    "velocity": 0.4645669291338583,
                    "duration": 0.09210512499999624
                },
                {
                    "name": "B5",
                    "midi": 83,
                    "time": 63.39464174999948,
                    "velocity": 0.4409448818897638,
                    "duration": 0.0789472499999988
                },
                {
                    "name": "C5",
                    "midi": 72,
                    "time": 63.47358899999948,
                    "velocity": 0.3858267716535433,
                    "duration": 0.1578944999999976
                },
                {
                    "name": "C6",
                    "midi": 84,
                    "time": 63.47358899999948,
                    "velocity": 0.4645669291338583,
                    "duration": 0.09210512499999624
                },
                {
                    "name": "G5",
                    "midi": 79,
                    "time": 63.55253624999948,
                    "velocity": 0.4566929133858268,
                    "duration": 0.09210512499999624
                },
                {
                    "name": "G4",
                    "midi": 67,
                    "time": 63.631483499999476,
                    "velocity": 0.3779527559055118,
                    "duration": 0.1578944999999976
                },
                {
                    "name": "E5",
                    "midi": 76,
                    "time": 63.631483499999476,
                    "velocity": 0.44881889763779526,
                    "duration": 0.09210512499999624
                },
                {
                    "name": "C5",
                    "midi": 72,
                    "time": 63.710430749999475,
                    "velocity": 0.4409448818897638,
                    "duration": 0.0789472499999988
                },
                {
                    "name": "F5",
                    "midi": 77,
                    "time": 63.78937799999947,
                    "velocity": 0.3937007874015748,
                    "duration": 0.0789472499999988
                },
                {
                    "name": "A6",
                    "midi": 93,
                    "time": 63.82885162499947,
                    "velocity": 0.49606299212598426,
                    "duration": 0.0394736249999994
                },
                {
                    "name": "E6",
                    "midi": 88,
                    "time": 63.94727249999947,
                    "velocity": 0.4015748031496063,
                    "duration": 0.09210512500000334
                },
                {
                    "name": "E5",
                    "midi": 76,
                    "time": 63.94727249999947,
                    "velocity": 0.33858267716535434,
                    "duration": 0.09210512500000334
                },
                {
                    "name": "D#6",
                    "midi": 87,
                    "time": 64.02621974999947,
                    "velocity": 0.3937007874015748,
                    "duration": 0.09210512500000334
                },
                {
                    "name": "D#5",
                    "midi": 75,
                    "time": 64.02621974999947,
                    "velocity": 0.33070866141732286,
                    "duration": 0.09210512500000334
                },
                {
                    "name": "C#6",
                    "midi": 85,
                    "time": 64.18411424999947,
                    "velocity": 0.3858267716535433,
                    "duration": 0.09210512500000334
                },
                {
                    "name": "C#5",
                    "midi": 73,
                    "time": 64.18411424999947,
                    "velocity": 0.3228346456692913,
                    "duration": 0.09210512500000334
                },
                {
                    "name": "C6",
                    "midi": 84,
                    "time": 64.26306149999947,
                    "velocity": 0.3858267716535433,
                    "duration": 0.09210512500000334
                },
                {
                    "name": "C5",
                    "midi": 72,
                    "time": 64.26306149999947,
                    "velocity": 0.3228346456692913,
                    "duration": 0.09210512500000334
                },
                {
                    "name": "B5",
                    "midi": 83,
                    "time": 64.34200874999947,
                    "velocity": 0.3779527559055118,
                    "duration": 0.0789472499999988
                },
                {
                    "name": "B4",
                    "midi": 71,
                    "time": 64.34200874999947,
                    "velocity": 0.31496062992125984,
                    "duration": 0.0789472499999988
                },
                {
                    "name": "E5",
                    "midi": 76,
                    "time": 64.42095599999946,
                    "velocity": 0.4251968503937008,
                    "duration": 0.0789472499999988
                },
                {
                    "name": "G6",
                    "midi": 91,
                    "time": 64.46042962499946,
                    "velocity": 0.5196850393700787,
                    "duration": 0.0394736249999994
                },
                {
                    "name": "D#6",
                    "midi": 87,
                    "time": 64.57885049999946,
                    "velocity": 0.4015748031496063,
                    "duration": 0.09210512500000334
                },
                {
                    "name": "D#5",
                    "midi": 75,
                    "time": 64.57885049999946,
                    "velocity": 0.33858267716535434,
                    "duration": 0.09210512500000334
                },
                {
                    "name": "D6",
                    "midi": 86,
                    "time": 64.65779774999946,
                    "velocity": 0.3937007874015748,
                    "duration": 0.09210512500000334
                },
                {
                    "name": "D5",
                    "midi": 74,
                    "time": 64.65779774999946,
                    "velocity": 0.33070866141732286,
                    "duration": 0.09210512500000334
                },
                {
                    "name": "B5",
                    "midi": 83,
                    "time": 64.81569224999946,
                    "velocity": 0.3858267716535433,
                    "duration": 0.09210512500000334
                },
                {
                    "name": "B4",
                    "midi": 71,
                    "time": 64.81569224999946,
                    "velocity": 0.3228346456692913,
                    "duration": 0.09210512500000334
                },
                {
                    "name": "A#5",
                    "midi": 82,
                    "time": 64.89463949999946,
                    "velocity": 0.3858267716535433,
                    "duration": 0.09210512500000334
                },
                {
                    "name": "A#4",
                    "midi": 70,
                    "time": 64.89463949999946,
                    "velocity": 0.3228346456692913,
                    "duration": 0.09210512500000334
                },
                {
                    "name": "A5",
                    "midi": 81,
                    "time": 64.97358674999946,
                    "velocity": 0.3779527559055118,
                    "duration": 0.0789472499999988
                },
                {
                    "name": "A4",
                    "midi": 69,
                    "time": 64.97358674999946,
                    "velocity": 0.31496062992125984,
                    "duration": 0.0789472499999988
                },
                {
                    "name": "E5",
                    "midi": 76,
                    "time": 65.13148124999945,
                    "velocity": 0.3858267716535433,
                    "duration": 0.09210512500000334
                },
                {
                    "name": "E4",
                    "midi": 64,
                    "time": 65.13148124999945,
                    "velocity": 0.3228346456692913,
                    "duration": 0.09210512500000334
                },
                {
                    "name": "D#5",
                    "midi": 75,
                    "time": 65.21042849999945,
                    "velocity": 0.3858267716535433,
                    "duration": 0.09210512500000334
                },
                {
                    "name": "D#4",
                    "midi": 63,
                    "time": 65.21042849999945,
                    "velocity": 0.3228346456692913,
                    "duration": 0.09210512500000334
                },
                {
                    "name": "D5",
                    "midi": 74,
                    "time": 65.28937574999945,
                    "velocity": 0.3779527559055118,
                    "duration": 0.0789472499999988
                },
                {
                    "name": "D4",
                    "midi": 62,
                    "time": 65.28937574999945,
                    "velocity": 0.31496062992125984,
                    "duration": 0.0789472499999988
                },
                {
                    "name": "C5",
                    "midi": 72,
                    "time": 65.44727024999945,
                    "velocity": 0.3858267716535433,
                    "duration": 0.09210512500000334
                },
                {
                    "name": "C4",
                    "midi": 60,
                    "time": 65.44727024999945,
                    "velocity": 0.3228346456692913,
                    "duration": 0.09210512500000334
                },
                {
                    "name": "B4",
                    "midi": 71,
                    "time": 65.52621749999945,
                    "velocity": 0.3858267716535433,
                    "duration": 0.09210512500000334
                },
                {
                    "name": "B3",
                    "midi": 59,
                    "time": 65.52621749999945,
                    "velocity": 0.3228346456692913,
                    "duration": 0.09210512500000334
                },
                {
                    "name": "A#4",
                    "midi": 70,
                    "time": 65.60516474999945,
                    "velocity": 0.3779527559055118,
                    "duration": 0.0789472499999988
                },
                {
                    "name": "A#3",
                    "midi": 58,
                    "time": 65.60516474999945,
                    "velocity": 0.31496062992125984,
                    "duration": 0.0789472499999988
                },
                {
                    "name": "F4",
                    "midi": 65,
                    "time": 65.76305924999944,
                    "velocity": 0.3937007874015748,
                    "duration": 0.09210512500000334
                },
                {
                    "name": "E4",
                    "midi": 64,
                    "time": 65.84200649999944,
                    "velocity": 0.3858267716535433,
                    "duration": 0.09210512500000334
                },
                {
                    "name": "D#4",
                    "midi": 63,
                    "time": 65.92095374999944,
                    "velocity": 0.3779527559055118,
                    "duration": 0.09210512500000334
                },
                {
                    "name": "D4",
                    "midi": 62,
                    "time": 65.99990099999944,
                    "velocity": 0.36220472440944884,
                    "duration": 0.09210512500000334
                },
                {
                    "name": "C4",
                    "midi": 60,
                    "time": 66.07884824999944,
                    "velocity": 0.3543307086614173,
                    "duration": 0.09210512500000334
                },
                {
                    "name": "B3",
                    "midi": 59,
                    "time": 66.15779549999944,
                    "velocity": 0.3543307086614173,
                    "duration": 0.09210512500000334
                },
                {
                    "name": "A#3",
                    "midi": 58,
                    "time": 66.23674274999944,
                    "velocity": 0.3464566929133858,
                    "duration": 0.0789472499999988
                },
                {
                    "name": "A3",
                    "midi": 57,
                    "time": 66.31568999999944,
                    "velocity": 0.3543307086614173,
                    "duration": 0.0789472499999988
                },
                {
                    "name": "F6",
                    "midi": 89,
                    "time": 66.47358449999943,
                    "velocity": 0.4015748031496063,
                    "duration": 0.09210512500000334
                },
                {
                    "name": "A5",
                    "midi": 81,
                    "time": 66.47358449999943,
                    "velocity": 0.33858267716535434,
                    "duration": 0.09210512500000334
                },
                {
                    "name": "C6",
                    "midi": 84,
                    "time": 66.55253174999943,
                    "velocity": 0.3937007874015748,
                    "duration": 0.09210512500000334
                },
                {
                    "name": "F5",
                    "midi": 77,
                    "time": 66.55253174999943,
                    "velocity": 0.33070866141732286,
                    "duration": 0.09210512500000334
                },
                {
                    "name": "C4",
                    "midi": 60,
                    "time": 66.78937349999943,
                    "velocity": 0.3700787401574803,
                    "duration": 0.05263150000000394
                },
                {
                    "name": "B3",
                    "midi": 59,
                    "time": 66.84200499999943,
                    "velocity": 0.36220472440944884,
                    "duration": 0.05263150000000394
                },
                {
                    "name": "A3",
                    "midi": 57,
                    "time": 66.89463649999944,
                    "velocity": 0.3543307086614173,
                    "duration": 0.05263150000000394
                },
                {
                    "name": "G#3",
                    "midi": 56,
                    "time": 66.94726799999944,
                    "velocity": 0.3543307086614173,
                    "duration": 0.0789472499999988
                },
                {
                    "name": "D#6",
                    "midi": 87,
                    "time": 67.10516249999944,
                    "velocity": 0.4015748031496063,
                    "duration": 0.09210512500000334
                },
                {
                    "name": "G#5",
                    "midi": 80,
                    "time": 67.10516249999944,
                    "velocity": 0.33858267716535434,
                    "duration": 0.09210512500000334
                },
                {
                    "name": "B5",
                    "midi": 83,
                    "time": 67.18410974999944,
                    "velocity": 0.3937007874015748,
                    "duration": 0.09210512500000334
                },
                {
                    "name": "D#5",
                    "midi": 75,
                    "time": 67.18410974999944,
                    "velocity": 0.33070866141732286,
                    "duration": 0.09210512500000334
                },
                {
                    "name": "E3",
                    "midi": 52,
                    "time": 67.42095149999943,
                    "velocity": 0.30708661417322836,
                    "duration": 0.05263150000000394
                },
                {
                    "name": "F#3",
                    "midi": 54,
                    "time": 67.47358299999944,
                    "velocity": 0.3228346456692913,
                    "duration": 0.05263150000000394
                },
                {
                    "name": "G#3",
                    "midi": 56,
                    "time": 67.52621449999944,
                    "velocity": 0.33858267716535434,
                    "duration": 0.05263150000000394
                },
                {
                    "name": "A3",
                    "midi": 57,
                    "time": 67.57884599999944,
                    "velocity": 0.3543307086614173,
                    "duration": 0.0789472499999988
                },
                {
                    "name": "F6",
                    "midi": 89,
                    "time": 67.73674049999944,
                    "velocity": 0.4015748031496063,
                    "duration": 0.09210512500000334
                },
                {
                    "name": "A5",
                    "midi": 81,
                    "time": 67.73674049999944,
                    "velocity": 0.33858267716535434,
                    "duration": 0.09210512500000334
                },
                {
                    "name": "C6",
                    "midi": 84,
                    "time": 67.81568774999944,
                    "velocity": 0.3937007874015748,
                    "duration": 0.09210512500000334
                },
                {
                    "name": "F5",
                    "midi": 77,
                    "time": 67.81568774999944,
                    "velocity": 0.33070866141732286,
                    "duration": 0.09210512500000334
                },
                {
                    "name": "C4",
                    "midi": 60,
                    "time": 68.05252949999944,
                    "velocity": 0.3700787401574803,
                    "duration": 0.05263150000000394
                },
                {
                    "name": "B3",
                    "midi": 59,
                    "time": 68.10516099999944,
                    "velocity": 0.36220472440944884,
                    "duration": 0.05263150000000394
                },
                {
                    "name": "A3",
                    "midi": 57,
                    "time": 68.15779249999945,
                    "velocity": 0.3543307086614173,
                    "duration": 0.05263150000000394
                },
                {
                    "name": "G#3",
                    "midi": 56,
                    "time": 68.21042399999945,
                    "velocity": 0.3543307086614173,
                    "duration": 0.0789472499999988
                },
                {
                    "name": "D#6",
                    "midi": 87,
                    "time": 68.36831849999945,
                    "velocity": 0.4015748031496063,
                    "duration": 0.09210512500000334
                },
                {
                    "name": "G#5",
                    "midi": 80,
                    "time": 68.36831849999945,
                    "velocity": 0.33858267716535434,
                    "duration": 0.09210512500000334
                },
                {
                    "name": "B5",
                    "midi": 83,
                    "time": 68.44726574999945,
                    "velocity": 0.3937007874015748,
                    "duration": 0.09210512500000334
                },
                {
                    "name": "D#5",
                    "midi": 75,
                    "time": 68.44726574999945,
                    "velocity": 0.33070866141732286,
                    "duration": 0.09210512500000334
                },
                {
                    "name": "E3",
                    "midi": 52,
                    "time": 68.72358112499946,
                    "velocity": 0.5905511811023622,
                    "duration": 0.0394736249999994
                },
                {
                    "name": "F#3",
                    "midi": 54,
                    "time": 68.76305474999945,
                    "velocity": 0.6220472440944882,
                    "duration": 0.0394736249999994
                },
                {
                    "name": "G#3",
                    "midi": 56,
                    "time": 68.80252837499945,
                    "velocity": 0.6377952755905512,
                    "duration": 0.0394736249999994
                },
                {
                    "name": "A3",
                    "midi": 57,
                    "time": 68.84200199999945,
                    "velocity": 0.6535433070866141,
                    "duration": 0.0789472499999988
                },
                {
                    "name": "F6",
                    "midi": 89,
                    "time": 68.99989649999945,
                    "velocity": 0.6299212598425197,
                    "duration": 0.09210512500000334
                },
                {
                    "name": "A5",
                    "midi": 81,
                    "time": 68.99989649999945,
                    "velocity": 0.5275590551181102,
                    "duration": 0.09210512500000334
                },
                {
                    "name": "C6",
                    "midi": 84,
                    "time": 69.07884374999945,
                    "velocity": 0.6220472440944882,
                    "duration": 0.09210512500000334
                },
                {
                    "name": "F5",
                    "midi": 77,
                    "time": 69.07884374999945,
                    "velocity": 0.5118110236220472,
                    "duration": 0.09210512500000334
                },
                {
                    "name": "C4",
                    "midi": 60,
                    "time": 69.31568549999945,
                    "velocity": 0.6377952755905512,
                    "duration": 0.05263150000000394
                },
                {
                    "name": "B3",
                    "midi": 59,
                    "time": 69.36831699999945,
                    "velocity": 0.6299212598425197,
                    "duration": 0.05263150000000394
                },
                {
                    "name": "A3",
                    "midi": 57,
                    "time": 69.42094849999945,
                    "velocity": 0.6062992125984252,
                    "duration": 0.05263150000000394
                },
                {
                    "name": "G#3",
                    "midi": 56,
                    "time": 69.47357999999946,
                    "velocity": 0.6377952755905512,
                    "duration": 0.0789472499999988
                },
                {
                    "name": "D#6",
                    "midi": 87,
                    "time": 69.63147449999946,
                    "velocity": 0.6299212598425197,
                    "duration": 0.09210512500000334
                },
                {
                    "name": "G#5",
                    "midi": 80,
                    "time": 69.63147449999946,
                    "velocity": 0.5275590551181102,
                    "duration": 0.09210512500000334
                },
                {
                    "name": "B5",
                    "midi": 83,
                    "time": 69.71042174999945,
                    "velocity": 0.6220472440944882,
                    "duration": 0.09210512500000334
                },
                {
                    "name": "D#5",
                    "midi": 75,
                    "time": 69.71042174999945,
                    "velocity": 0.5118110236220472,
                    "duration": 0.09210512500000334
                },
                {
                    "name": "E3",
                    "midi": 52,
                    "time": 69.94726349999945,
                    "velocity": 0.5196850393700787,
                    "duration": 0.05263150000000394
                },
                {
                    "name": "F#3",
                    "midi": 54,
                    "time": 69.99989499999946,
                    "velocity": 0.5669291338582677,
                    "duration": 0.05263150000000394
                },
                {
                    "name": "G#3",
                    "midi": 56,
                    "time": 70.05252649999946,
                    "velocity": 0.6062992125984252,
                    "duration": 0.05263150000000394
                },
                {
                    "name": "A3",
                    "midi": 57,
                    "time": 70.10515799999946,
                    "velocity": 0.6535433070866141,
                    "duration": 0.0789472499999988
                },
                {
                    "name": "F6",
                    "midi": 89,
                    "time": 70.26305249999946,
                    "velocity": 0.6299212598425197,
                    "duration": 0.09210512500000334
                },
                {
                    "name": "A5",
                    "midi": 81,
                    "time": 70.26305249999946,
                    "velocity": 0.5275590551181102,
                    "duration": 0.09210512500000334
                },
                {
                    "name": "C6",
                    "midi": 84,
                    "time": 70.34199974999946,
                    "velocity": 0.6220472440944882,
                    "duration": 0.09210512500000334
                },
                {
                    "name": "F5",
                    "midi": 77,
                    "time": 70.34199974999946,
                    "velocity": 0.5118110236220472,
                    "duration": 0.09210512500000334
                },
                {
                    "name": "C4",
                    "midi": 60,
                    "time": 70.57884149999946,
                    "velocity": 0.6062992125984252,
                    "duration": 0.05263150000000394
                },
                {
                    "name": "B3",
                    "midi": 59,
                    "time": 70.63147299999946,
                    "velocity": 0.5984251968503937,
                    "duration": 0.05263150000000394
                },
                {
                    "name": "A3",
                    "midi": 57,
                    "time": 70.68410449999946,
                    "velocity": 0.5826771653543307,
                    "duration": 0.05263150000000394
                },
                {
                    "name": "G#3",
                    "midi": 56,
                    "time": 70.73673599999947,
                    "velocity": 0.5748031496062992,
                    "duration": 0.0789472499999988
                },
                {
                    "name": "D#6",
                    "midi": 87,
                    "time": 70.89463049999947,
                    "velocity": 0.6299212598425197,
                    "duration": 0.09210512500000334
                },
                {
                    "name": "G#5",
                    "midi": 80,
                    "time": 70.89463049999947,
                    "velocity": 0.5275590551181102,
                    "duration": 0.09210512500000334
                },
                {
                    "name": "B5",
                    "midi": 83,
                    "time": 70.97357774999946,
                    "velocity": 0.6220472440944882,
                    "duration": 0.09210512500000334
                },
                {
                    "name": "D#5",
                    "midi": 75,
                    "time": 70.97357774999946,
                    "velocity": 0.5118110236220472,
                    "duration": 0.09210512500000334
                },
                {
                    "name": "A3",
                    "midi": 57,
                    "time": 71.24989312499947,
                    "velocity": 0.33070866141732286,
                    "duration": 0.0394736249999994
                },
                {
                    "name": "B3",
                    "midi": 59,
                    "time": 71.28936674999947,
                    "velocity": 0.3464566929133858,
                    "duration": 0.0394736249999994
                },
                {
                    "name": "C4",
                    "midi": 60,
                    "time": 71.32884037499947,
                    "velocity": 0.3543307086614173,
                    "duration": 0.0394736249999994
                },
                {
                    "name": "C#4",
                    "midi": 61,
                    "time": 71.36831399999947,
                    "velocity": 0.3700787401574803,
                    "duration": 0.0789472499999988
                },
                {
                    "name": "A#6",
                    "midi": 94,
                    "time": 71.52620849999947,
                    "velocity": 0.4015748031496063,
                    "duration": 0.09210512500000334
                },
                {
                    "name": "E6",
                    "midi": 88,
                    "time": 71.52620849999947,
                    "velocity": 0.33858267716535434,
                    "duration": 0.09210512500000334
                },
                {
                    "name": "G6",
                    "midi": 91,
                    "time": 71.60515574999947,
                    "velocity": 0.3937007874015748,
                    "duration": 0.09210512500000334
                },
                {
                    "name": "A#5",
                    "midi": 82,
                    "time": 71.60515574999947,
                    "velocity": 0.33070866141732286,
                    "duration": 0.09210512500000334
                },
                {
                    "name": "A3",
                    "midi": 57,
                    "time": 71.84199749999947,
                    "velocity": 0.36220472440944884,
                    "duration": 0.05263150000000394
                },
                {
                    "name": "B3",
                    "midi": 59,
                    "time": 71.89462899999947,
                    "velocity": 0.3937007874015748,
                    "duration": 0.05263150000000394
                },
                {
                    "name": "C#4",
                    "midi": 61,
                    "time": 71.94726049999947,
                    "velocity": 0.4094488188976378,
                    "duration": 0.05263150000000394
                },
                {
                    "name": "D4",
                    "midi": 62,
                    "time": 71.99989199999948,
                    "velocity": 0.4330708661417323,
                    "duration": 0.0789472499999988
                },
                {
                    "name": "E6",
                    "midi": 88,
                    "time": 72.15778649999947,
                    "velocity": 0.4645669291338583,
                    "duration": 0.09210512500000334
                },
                {
                    "name": "A5",
                    "midi": 81,
                    "time": 72.15778649999947,
                    "velocity": 0.3937007874015748,
                    "duration": 0.09210512500000334
                },
                {
                    "name": "D6",
                    "midi": 86,
                    "time": 72.23673374999947,
                    "velocity": 0.4566929133858268,
                    "duration": 0.09210512500000334
                },
                {
                    "name": "E5",
                    "midi": 76,
                    "time": 72.23673374999947,
                    "velocity": 0.3858267716535433,
                    "duration": 0.09210512500000334
                },
                {
                    "name": "E4",
                    "midi": 64,
                    "time": 72.47357549999947,
                    "velocity": 0.4015748031496063,
                    "duration": 0.05263150000000394
                },
                {
                    "name": "D4",
                    "midi": 62,
                    "time": 72.52620699999947,
                    "velocity": 0.41732283464566927,
                    "duration": 0.05263150000000394
                },
                {
                    "name": "C4",
                    "midi": 60,
                    "time": 72.57883849999948,
                    "velocity": 0.4251968503937008,
                    "duration": 0.05263150000000394
                },
                {
                    "name": "B3",
                    "midi": 59,
                    "time": 72.63146999999948,
                    "velocity": 0.44881889763779526,
                    "duration": 0.0789472499999988
                },
                {
                    "name": "G#6",
                    "midi": 92,
                    "time": 72.78936449999948,
                    "velocity": 0.49606299212598426,
                    "duration": 0.09210512500000334
                },
                {
                    "name": "D6",
                    "midi": 86,
                    "time": 72.78936449999948,
                    "velocity": 0.4094488188976378,
                    "duration": 0.09210512500000334
                },
                {
                    "name": "F6",
                    "midi": 89,
                    "time": 72.86831174999948,
                    "velocity": 0.4881889763779528,
                    "duration": 0.09210512500000334
                },
                {
                    "name": "G#5",
                    "midi": 80,
                    "time": 72.86831174999948,
                    "velocity": 0.4015748031496063,
                    "duration": 0.09210512500000334
                },
                {
                    "name": "G3",
                    "midi": 55,
                    "time": 73.10515349999947,
                    "velocity": 0.5196850393700787,
                    "duration": 0.05263150000000394
                },
                {
                    "name": "A3",
                    "midi": 57,
                    "time": 73.15778499999948,
                    "velocity": 0.5511811023622047,
                    "duration": 0.05263150000000394
                },
                {
                    "name": "B3",
                    "midi": 59,
                    "time": 73.21041649999948,
                    "velocity": 0.5748031496062992,
                    "duration": 0.05263150000000394
                },
                {
                    "name": "C4",
                    "midi": 60,
                    "time": 73.26304799999949,
                    "velocity": 0.5984251968503937,
                    "duration": 0.0789472499999988
                },
                {
                    "name": "D#6",
                    "midi": 87,
                    "time": 73.42094249999948,
                    "velocity": 0.5669291338582677,
                    "duration": 0.09210512500000334
                },
                {
                    "name": "G5",
                    "midi": 79,
                    "time": 73.42094249999948,
                    "velocity": 0.48031496062992124,
                    "duration": 0.09210512500000334
                },
                {
                    "name": "C6",
                    "midi": 84,
                    "time": 73.49988974999948,
                    "velocity": 0.5590551181102362,
                    "duration": 0.09210512500000334
                },
                {
                    "name": "D#5",
                    "midi": 75,
                    "time": 73.49988974999948,
                    "velocity": 0.47244094488188976,
                    "duration": 0.09210512500000334
                },
                {
                    "name": "B3",
                    "midi": 59,
                    "time": 73.73673149999948,
                    "velocity": 0.5511811023622047,
                    "duration": 0.05263150000000394
                },
                {
                    "name": "C4",
                    "midi": 60,
                    "time": 73.78936299999948,
                    "velocity": 0.5669291338582677,
                    "duration": 0.05263150000000394
                },
                {
                    "name": "C#4",
                    "midi": 61,
                    "time": 73.84199449999949,
                    "velocity": 0.5826771653543307,
                    "duration": 0.05263150000000394
                },
                {
                    "name": "D4",
                    "midi": 62,
                    "time": 73.89462599999949,
                    "velocity": 0.6062992125984252,
                    "duration": 0.0789472499999988
                },
                {
                    "name": "B6",
                    "midi": 95,
                    "time": 74.05252049999949,
                    "velocity": 0.6062992125984252,
                    "duration": 0.09210512500000334
                },
                {
                    "name": "D6",
                    "midi": 86,
                    "time": 74.05252049999949,
                    "velocity": 0.5039370078740157,
                    "duration": 0.09210512500000334
                },
                {
                    "name": "F6",
                    "midi": 89,
                    "time": 74.13146774999949,
                    "velocity": 0.5984251968503937,
                    "duration": 0.09210512500000334
                },
                {
                    "name": "B5",
                    "midi": 83,
                    "time": 74.13146774999949,
                    "velocity": 0.49606299212598426,
                    "duration": 0.09210512500000334
                },
                {
                    "name": "A#3",
                    "midi": 58,
                    "time": 74.36830949999948,
                    "velocity": 0.5826771653543307,
                    "duration": 0.05263150000000394
                },
                {
                    "name": "C4",
                    "midi": 60,
                    "time": 74.42094099999949,
                    "velocity": 0.6141732283464567,
                    "duration": 0.05263150000000394
                },
                {
                    "name": "D4",
                    "midi": 62,
                    "time": 74.47357249999949,
                    "velocity": 0.6377952755905512,
                    "duration": 0.05263150000000394
                },
                {
                    "name": "E4",
                    "midi": 64,
                    "time": 74.5262039999995,
                    "velocity": 0.6614173228346457,
                    "duration": 0.0789472499999988
                },
                {
                    "name": "G#6",
                    "midi": 92,
                    "time": 74.6840984999995,
                    "velocity": 0.6614173228346457,
                    "duration": 0.09210512500000334
                },
                {
                    "name": "B5",
                    "midi": 83,
                    "time": 74.6840984999995,
                    "velocity": 0.5590551181102362,
                    "duration": 0.09210512500000334
                },
                {
                    "name": "D6",
                    "midi": 86,
                    "time": 74.76304574999949,
                    "velocity": 0.6535433070866141,
                    "duration": 0.09210512500000334
                },
                {
                    "name": "G#5",
                    "midi": 80,
                    "time": 74.76304574999949,
                    "velocity": 0.5511811023622047,
                    "duration": 0.09210512500000334
                },
                {
                    "name": "F4",
                    "midi": 65,
                    "time": 74.99988749999949,
                    "velocity": 0.6141732283464567,
                    "duration": 0.05263150000000394
                },
                {
                    "name": "E4",
                    "midi": 64,
                    "time": 75.05251899999949,
                    "velocity": 0.6377952755905512,
                    "duration": 0.05263150000000394
                },
                {
                    "name": "D#4",
                    "midi": 63,
                    "time": 75.1051504999995,
                    "velocity": 0.6614173228346457,
                    "duration": 0.05263150000000394
                },
                {
                    "name": "D4",
                    "midi": 62,
                    "time": 75.1577819999995,
                    "velocity": 0.6850393700787402,
                    "duration": 0.0789472499999988
                },
                {
                    "name": "F6",
                    "midi": 89,
                    "time": 75.3156764999995,
                    "velocity": 0.6614173228346457,
                    "duration": 0.09210512500000334
                },
                {
                    "name": "A5",
                    "midi": 81,
                    "time": 75.3156764999995,
                    "velocity": 0.6614173228346457,
                    "duration": 0.09210512500000334
                },
                {
                    "name": "B5",
                    "midi": 83,
                    "time": 75.3946237499995,
                    "velocity": 0.6377952755905512,
                    "duration": 0.09210512500000334
                },
                {
                    "name": "F5",
                    "midi": 77,
                    "time": 75.3946237499995,
                    "velocity": 0.6377952755905512,
                    "duration": 0.09210512500000334
                },
                {
                    "name": "G#4",
                    "midi": 68,
                    "time": 75.4735709999995,
                    "velocity": 0.6220472440944882,
                    "duration": 0.09210512500000334
                },
                {
                    "name": "E5",
                    "midi": 76,
                    "time": 75.4735709999995,
                    "velocity": 0.6220472440944882,
                    "duration": 0.09210512500000334
                },
                {
                    "name": "E4",
                    "midi": 64,
                    "time": 75.5525182499995,
                    "velocity": 0.5984251968503937,
                    "duration": 0.09210512500000334
                },
                {
                    "name": "B4",
                    "midi": 71,
                    "time": 75.5525182499995,
                    "velocity": 0.5984251968503937,
                    "duration": 0.09210512500000334
                },
                {
                    "name": "D4",
                    "midi": 62,
                    "time": 75.63146549999949,
                    "velocity": 0.5748031496062992,
                    "duration": 0.05263150000000394
                },
                {
                    "name": "C4",
                    "midi": 60,
                    "time": 75.6840969999995,
                    "velocity": 0.6062992125984252,
                    "duration": 0.05263150000000394
                },
                {
                    "name": "B3",
                    "midi": 59,
                    "time": 75.7367284999995,
                    "velocity": 0.6377952755905512,
                    "duration": 0.05263150000000394
                },
                {
                    "name": "A3",
                    "midi": 57,
                    "time": 75.7893599999995,
                    "velocity": 0.6850393700787402,
                    "duration": 0.0789472499999988
                },
                {
                    "name": "C7",
                    "midi": 96,
                    "time": 75.9472544999995,
                    "velocity": 0.7480314960629921,
                    "duration": 0.09210512500000334
                },
                {
                    "name": "E6",
                    "midi": 88,
                    "time": 75.9472544999995,
                    "velocity": 0.6299212598425197,
                    "duration": 0.09210512500000334
                },
                {
                    "name": "C6",
                    "midi": 84,
                    "time": 76.0262017499995,
                    "velocity": 0.7244094488188977,
                    "duration": 0.09210512500000334
                },
                {
                    "name": "E6",
                    "midi": 88,
                    "time": 76.1051489999995,
                    "velocity": 0.6299212598425197,
                    "duration": 0.09210512500000334
                },
                {
                    "name": "A6",
                    "midi": 93,
                    "time": 76.1051489999995,
                    "velocity": 0.7480314960629921,
                    "duration": 0.09210512500000334
                },
                {
                    "name": "A5",
                    "midi": 81,
                    "time": 76.1840962499995,
                    "velocity": 0.7244094488188977,
                    "duration": 0.09210512500000334
                },
                {
                    "name": "E7",
                    "midi": 100,
                    "time": 76.4209379999995,
                    "velocity": 0.7401574803149606,
                    "duration": 0.47368350000000703
                },
                {
                    "name": "C7",
                    "midi": 96,
                    "time": 76.4209379999995,
                    "velocity": 0.6299212598425197,
                    "duration": 0.47368350000000703
                },
                {
                    "name": "E6",
                    "midi": 88,
                    "time": 76.4209379999995,
                    "velocity": 0.6299212598425197,
                    "duration": 0.47368350000000703
                },
                {
                    "name": "D7",
                    "midi": 98,
                    "time": 76.8946214999995,
                    "velocity": 0.5590551181102362,
                    "duration": 0.0592104374999991
                },
                {
                    "name": "B6",
                    "midi": 95,
                    "time": 76.8946214999995,
                    "velocity": 0.4645669291338583,
                    "duration": 0.0592104374999991
                },
                {
                    "name": "D6",
                    "midi": 86,
                    "time": 76.8946214999995,
                    "velocity": 0.4645669291338583,
                    "duration": 0.0592104374999991
                },
                {
                    "name": "C6",
                    "midi": 84,
                    "time": 76.9735687499995,
                    "velocity": 0.4645669291338583,
                    "duration": 0.0592104374999991
                },
                {
                    "name": "A6",
                    "midi": 93,
                    "time": 76.9735687499995,
                    "velocity": 0.4645669291338583,
                    "duration": 0.0592104374999991
                },
                {
                    "name": "C7",
                    "midi": 96,
                    "time": 76.9735687499995,
                    "velocity": 0.5590551181102362,
                    "duration": 0.0592104374999991
                },
                {
                    "name": "B6",
                    "midi": 95,
                    "time": 77.0525159999995,
                    "velocity": 0.6141732283464567,
                    "duration": 0.0592104374999991
                },
                {
                    "name": "G#6",
                    "midi": 92,
                    "time": 77.0525159999995,
                    "velocity": 0.6141732283464567,
                    "duration": 0.0592104374999991
                },
                {
                    "name": "B5",
                    "midi": 83,
                    "time": 77.0525159999995,
                    "velocity": 0.5118110236220472,
                    "duration": 0.0592104374999991
                },
                {
                    "name": "A5",
                    "midi": 81,
                    "time": 77.1314632499995,
                    "velocity": 0.4645669291338583,
                    "duration": 0.0592104374999991
                },
                {
                    "name": "F6",
                    "midi": 89,
                    "time": 77.1314632499995,
                    "velocity": 0.4645669291338583,
                    "duration": 0.0592104374999991
                },
                {
                    "name": "A6",
                    "midi": 93,
                    "time": 77.1314632499995,
                    "velocity": 0.5590551181102362,
                    "duration": 0.0592104374999991
                },
                {
                    "name": "G#5",
                    "midi": 80,
                    "time": 77.2104104999995,
                    "velocity": 0.49606299212598426,
                    "duration": 0.0592104374999991
                },
                {
                    "name": "E6",
                    "midi": 88,
                    "time": 77.2104104999995,
                    "velocity": 0.49606299212598426,
                    "duration": 0.0592104374999991
                },
                {
                    "name": "G#6",
                    "midi": 92,
                    "time": 77.2104104999995,
                    "velocity": 0.5748031496062992,
                    "duration": 0.0592104374999991
                },
                {
                    "name": "F5",
                    "midi": 77,
                    "time": 77.2893577499995,
                    "velocity": 0.4645669291338583,
                    "duration": 0.0592104374999991
                },
                {
                    "name": "D6",
                    "midi": 86,
                    "time": 77.2893577499995,
                    "velocity": 0.4645669291338583,
                    "duration": 0.0592104374999991
                },
                {
                    "name": "F6",
                    "midi": 89,
                    "time": 77.2893577499995,
                    "velocity": 0.5590551181102362,
                    "duration": 0.0592104374999991
                },
                {
                    "name": "E6",
                    "midi": 88,
                    "time": 77.3683049999995,
                    "velocity": 0.5748031496062992,
                    "duration": 0.0592104374999991
                },
                {
                    "name": "C6",
                    "midi": 84,
                    "time": 77.3683049999995,
                    "velocity": 0.49606299212598426,
                    "duration": 0.0592104374999991
                },
                {
                    "name": "E5",
                    "midi": 76,
                    "time": 77.3683049999995,
                    "velocity": 0.49606299212598426,
                    "duration": 0.0592104374999991
                },
                {
                    "name": "D6",
                    "midi": 86,
                    "time": 77.4472522499995,
                    "velocity": 0.5669291338582677,
                    "duration": 0.0592104374999991
                },
                {
                    "name": "B5",
                    "midi": 83,
                    "time": 77.4472522499995,
                    "velocity": 0.47244094488188976,
                    "duration": 0.0592104374999991
                },
                {
                    "name": "D5",
                    "midi": 74,
                    "time": 77.4472522499995,
                    "velocity": 0.47244094488188976,
                    "duration": 0.0592104374999991
                },
                {
                    "name": "C6",
                    "midi": 84,
                    "time": 77.52619949999949,
                    "velocity": 0.5669291338582677,
                    "duration": 0.0592104374999991
                },
                {
                    "name": "A5",
                    "midi": 81,
                    "time": 77.52619949999949,
                    "velocity": 0.4881889763779528,
                    "duration": 0.0592104374999991
                },
                {
                    "name": "C5",
                    "midi": 72,
                    "time": 77.52619949999949,
                    "velocity": 0.4881889763779528,
                    "duration": 0.0592104374999991
                },
                {
                    "name": "B4",
                    "midi": 71,
                    "time": 77.60514674999949,
                    "velocity": 0.4881889763779528,
                    "duration": 0.0592104374999991
                },
                {
                    "name": "B5",
                    "midi": 83,
                    "time": 77.60514674999949,
                    "velocity": 0.5669291338582677,
                    "duration": 0.0592104374999991
                },
                {
                    "name": "G#5",
                    "midi": 80,
                    "time": 77.60514674999949,
                    "velocity": 0.4881889763779528,
                    "duration": 0.0592104374999991
                },
                {
                    "name": "C6",
                    "midi": 84,
                    "time": 77.68409399999949,
                    "velocity": 0.5984251968503937,
                    "duration": 0.47368350000000703
                },
                {
                    "name": "A5",
                    "midi": 81,
                    "time": 77.68409399999949,
                    "velocity": 0.5039370078740157,
                    "duration": 0.47368350000000703
                },
                {
                    "name": "C5",
                    "midi": 72,
                    "time": 77.68409399999949,
                    "velocity": 0.5039370078740157,
                    "duration": 0.47368350000000703
                },
                {
                    "name": "D6",
                    "midi": 86,
                    "time": 78.1577774999995,
                    "velocity": 0.5590551181102362,
                    "duration": 0.0789472499999988
                },
                {
                    "name": "B5",
                    "midi": 83,
                    "time": 78.1577774999995,
                    "velocity": 0.4645669291338583,
                    "duration": 0.0789472499999988
                },
                {
                    "name": "D5",
                    "midi": 74,
                    "time": 78.1577774999995,
                    "velocity": 0.4645669291338583,
                    "duration": 0.0789472499999988
                },
                {
                    "name": "E6",
                    "midi": 88,
                    "time": 78.2367247499995,
                    "velocity": 0.5590551181102362,
                    "duration": 0.0789472499999988
                },
                {
                    "name": "C6",
                    "midi": 84,
                    "time": 78.2367247499995,
                    "velocity": 0.4645669291338583,
                    "duration": 0.0789472499999988
                },
                {
                    "name": "E5",
                    "midi": 76,
                    "time": 78.2367247499995,
                    "velocity": 0.4645669291338583,
                    "duration": 0.0789472499999988
                },
                {
                    "name": "D5",
                    "midi": 74,
                    "time": 78.3156719999995,
                    "velocity": 0.5039370078740157,
                    "duration": 0.0789472499999988
                },
                {
                    "name": "B5",
                    "midi": 83,
                    "time": 78.3156719999995,
                    "velocity": 0.5984251968503937,
                    "duration": 0.0789472499999988
                },
                {
                    "name": "D6",
                    "midi": 86,
                    "time": 78.3156719999995,
                    "velocity": 0.5984251968503937,
                    "duration": 0.0789472499999988
                },
                {
                    "name": "C6",
                    "midi": 84,
                    "time": 78.3946192499995,
                    "velocity": 0.5826771653543307,
                    "duration": 0.0789472499999988
                },
                {
                    "name": "A5",
                    "midi": 81,
                    "time": 78.3946192499995,
                    "velocity": 0.49606299212598426,
                    "duration": 0.0789472499999988
                },
                {
                    "name": "C5",
                    "midi": 72,
                    "time": 78.3946192499995,
                    "velocity": 0.49606299212598426,
                    "duration": 0.0789472499999988
                },
                {
                    "name": "B5",
                    "midi": 83,
                    "time": 78.47356649999949,
                    "velocity": 0.5669291338582677,
                    "duration": 0.0789472499999988
                },
                {
                    "name": "G#5",
                    "midi": 80,
                    "time": 78.47356649999949,
                    "velocity": 0.47244094488188976,
                    "duration": 0.0789472499999988
                },
                {
                    "name": "B4",
                    "midi": 71,
                    "time": 78.47356649999949,
                    "velocity": 0.47244094488188976,
                    "duration": 0.0789472499999988
                },
                {
                    "name": "A4",
                    "midi": 69,
                    "time": 78.55251374999949,
                    "velocity": 0.4645669291338583,
                    "duration": 0.0789472499999988
                },
                {
                    "name": "F5",
                    "midi": 77,
                    "time": 78.55251374999949,
                    "velocity": 0.4645669291338583,
                    "duration": 0.0789472499999988
                },
                {
                    "name": "A5",
                    "midi": 81,
                    "time": 78.55251374999949,
                    "velocity": 0.5590551181102362,
                    "duration": 0.0789472499999988
                },
                {
                    "name": "G#4",
                    "midi": 68,
                    "time": 78.63146099999949,
                    "velocity": 0.44881889763779526,
                    "duration": 0.3157889999999952
                },
                {
                    "name": "E5",
                    "midi": 76,
                    "time": 78.63146099999949,
                    "velocity": 0.44881889763779526,
                    "duration": 0.3157889999999952
                },
                {
                    "name": "G#5",
                    "midi": 80,
                    "time": 78.63146099999949,
                    "velocity": 0.5354330708661418,
                    "duration": 0.3157889999999952
                },
                {
                    "name": "E7",
                    "midi": 100,
                    "time": 78.94724999999949,
                    "velocity": 0.7401574803149606,
                    "duration": 0.47368350000000703
                },
                {
                    "name": "C7",
                    "midi": 96,
                    "time": 78.94724999999949,
                    "velocity": 0.6299212598425197,
                    "duration": 0.47368350000000703
                },
                {
                    "name": "E6",
                    "midi": 88,
                    "time": 78.94724999999949,
                    "velocity": 0.6299212598425197,
                    "duration": 0.47368350000000703
                },
                {
                    "name": "D7",
                    "midi": 98,
                    "time": 79.42093349999949,
                    "velocity": 0.5590551181102362,
                    "duration": 0.0592104374999991
                },
                {
                    "name": "B6",
                    "midi": 95,
                    "time": 79.42093349999949,
                    "velocity": 0.4645669291338583,
                    "duration": 0.0592104374999991
                },
                {
                    "name": "D6",
                    "midi": 86,
                    "time": 79.42093349999949,
                    "velocity": 0.4645669291338583,
                    "duration": 0.0592104374999991
                },
                {
                    "name": "C6",
                    "midi": 84,
                    "time": 79.49988074999949,
                    "velocity": 0.4645669291338583,
                    "duration": 0.0592104374999991
                },
                {
                    "name": "A6",
                    "midi": 93,
                    "time": 79.49988074999949,
                    "velocity": 0.4645669291338583,
                    "duration": 0.0592104374999991
                },
                {
                    "name": "C7",
                    "midi": 96,
                    "time": 79.49988074999949,
                    "velocity": 0.5590551181102362,
                    "duration": 0.0592104374999991
                },
                {
                    "name": "B6",
                    "midi": 95,
                    "time": 79.57882799999949,
                    "velocity": 0.6141732283464567,
                    "duration": 0.0592104374999991
                },
                {
                    "name": "G#6",
                    "midi": 92,
                    "time": 79.57882799999949,
                    "velocity": 0.6141732283464567,
                    "duration": 0.0592104374999991
                },
                {
                    "name": "B5",
                    "midi": 83,
                    "time": 79.57882799999949,
                    "velocity": 0.5118110236220472,
                    "duration": 0.0592104374999991
                },
                {
                    "name": "A5",
                    "midi": 81,
                    "time": 79.65777524999949,
                    "velocity": 0.4645669291338583,
                    "duration": 0.0592104374999991
                },
                {
                    "name": "F6",
                    "midi": 89,
                    "time": 79.65777524999949,
                    "velocity": 0.4645669291338583,
                    "duration": 0.0592104374999991
                },
                {
                    "name": "A6",
                    "midi": 93,
                    "time": 79.65777524999949,
                    "velocity": 0.5590551181102362,
                    "duration": 0.0592104374999991
                },
                {
                    "name": "G#5",
                    "midi": 80,
                    "time": 79.73672249999949,
                    "velocity": 0.49606299212598426,
                    "duration": 0.0592104374999991
                },
                {
                    "name": "E6",
                    "midi": 88,
                    "time": 79.73672249999949,
                    "velocity": 0.49606299212598426,
                    "duration": 0.0592104374999991
                },
                {
                    "name": "G#6",
                    "midi": 92,
                    "time": 79.73672249999949,
                    "velocity": 0.5748031496062992,
                    "duration": 0.0592104374999991
                },
                {
                    "name": "F5",
                    "midi": 77,
                    "time": 79.81566974999949,
                    "velocity": 0.4645669291338583,
                    "duration": 0.0592104374999991
                },
                {
                    "name": "D6",
                    "midi": 86,
                    "time": 79.81566974999949,
                    "velocity": 0.4645669291338583,
                    "duration": 0.0592104374999991
                },
                {
                    "name": "F6",
                    "midi": 89,
                    "time": 79.81566974999949,
                    "velocity": 0.5590551181102362,
                    "duration": 0.0592104374999991
                },
                {
                    "name": "E6",
                    "midi": 88,
                    "time": 79.89461699999949,
                    "velocity": 0.5748031496062992,
                    "duration": 0.0592104374999991
                },
                {
                    "name": "C6",
                    "midi": 84,
                    "time": 79.89461699999949,
                    "velocity": 0.49606299212598426,
                    "duration": 0.0592104374999991
                },
                {
                    "name": "E5",
                    "midi": 76,
                    "time": 79.89461699999949,
                    "velocity": 0.49606299212598426,
                    "duration": 0.0592104374999991
                },
                {
                    "name": "D6",
                    "midi": 86,
                    "time": 79.97356424999948,
                    "velocity": 0.5669291338582677,
                    "duration": 0.0592104374999991
                },
                {
                    "name": "B5",
                    "midi": 83,
                    "time": 79.97356424999948,
                    "velocity": 0.4881889763779528,
                    "duration": 0.0592104374999991
                },
                {
                    "name": "D5",
                    "midi": 74,
                    "time": 79.97356424999948,
                    "velocity": 0.4881889763779528,
                    "duration": 0.0592104374999991
                },
                {
                    "name": "C6",
                    "midi": 84,
                    "time": 80.05251149999948,
                    "velocity": 0.5826771653543307,
                    "duration": 0.0592104374999991
                },
                {
                    "name": "A5",
                    "midi": 81,
                    "time": 80.05251149999948,
                    "velocity": 0.49606299212598426,
                    "duration": 0.0592104374999991
                },
                {
                    "name": "C5",
                    "midi": 72,
                    "time": 80.05251149999948,
                    "velocity": 0.49606299212598426,
                    "duration": 0.0592104374999991
                },
                {
                    "name": "B5",
                    "midi": 83,
                    "time": 80.13145874999948,
                    "velocity": 0.5748031496062992,
                    "duration": 0.0592104374999991
                },
                {
                    "name": "G#5",
                    "midi": 80,
                    "time": 80.13145874999948,
                    "velocity": 0.49606299212598426,
                    "duration": 0.0592104374999991
                },
                {
                    "name": "C6",
                    "midi": 84,
                    "time": 80.21040599999948,
                    "velocity": 0.5669291338582677,
                    "duration": 0.47368350000000703
                },
                {
                    "name": "A5",
                    "midi": 81,
                    "time": 80.21040599999948,
                    "velocity": 0.4881889763779528,
                    "duration": 0.47368350000000703
                },
                {
                    "name": "C5",
                    "midi": 72,
                    "time": 80.21040599999948,
                    "velocity": 0.4881889763779528,
                    "duration": 0.47368350000000703
                },
                {
                    "name": "D6",
                    "midi": 86,
                    "time": 80.68408949999949,
                    "velocity": 0.5590551181102362,
                    "duration": 0.0789472499999988
                },
                {
                    "name": "B5",
                    "midi": 83,
                    "time": 80.68408949999949,
                    "velocity": 0.4645669291338583,
                    "duration": 0.0789472499999988
                },
                {
                    "name": "D5",
                    "midi": 74,
                    "time": 80.68408949999949,
                    "velocity": 0.4645669291338583,
                    "duration": 0.0789472499999988
                },
                {
                    "name": "E6",
                    "midi": 88,
                    "time": 80.76303674999949,
                    "velocity": 0.5590551181102362,
                    "duration": 0.0789472499999988
                },
                {
                    "name": "C6",
                    "midi": 84,
                    "time": 80.76303674999949,
                    "velocity": 0.4645669291338583,
                    "duration": 0.0789472499999988
                },
                {
                    "name": "E5",
                    "midi": 76,
                    "time": 80.76303674999949,
                    "velocity": 0.4645669291338583,
                    "duration": 0.0789472499999988
                },
                {
                    "name": "D5",
                    "midi": 74,
                    "time": 80.84198399999948,
                    "velocity": 0.5039370078740157,
                    "duration": 0.0789472499999988
                },
                {
                    "name": "D6",
                    "midi": 86,
                    "time": 80.84198399999948,
                    "velocity": 0.5984251968503937,
                    "duration": 0.0789472499999988
                },
                {
                    "name": "C6",
                    "midi": 84,
                    "time": 80.92093124999948,
                    "velocity": 0.5826771653543307,
                    "duration": 0.0789472499999988
                },
                {
                    "name": "C5",
                    "midi": 72,
                    "time": 80.92093124999948,
                    "velocity": 0.49606299212598426,
                    "duration": 0.0789472499999988
                },
                {
                    "name": "B5",
                    "midi": 83,
                    "time": 80.99987849999948,
                    "velocity": 0.5669291338582677,
                    "duration": 0.0789472499999988
                },
                {
                    "name": "B4",
                    "midi": 71,
                    "time": 80.99987849999948,
                    "velocity": 0.47244094488188976,
                    "duration": 0.0789472499999988
                },
                {
                    "name": "A4",
                    "midi": 69,
                    "time": 81.07882574999948,
                    "velocity": 0.4645669291338583,
                    "duration": 0.0789472499999988
                },
                {
                    "name": "A5",
                    "midi": 81,
                    "time": 81.07882574999948,
                    "velocity": 0.5590551181102362,
                    "duration": 0.0789472499999988
                },
                {
                    "name": "G#4",
                    "midi": 68,
                    "time": 81.15777299999948,
                    "velocity": 0.44881889763779526,
                    "duration": 0.3157889999999952
                },
                {
                    "name": "G#5",
                    "midi": 80,
                    "time": 81.15777299999948,
                    "velocity": 0.5354330708661418,
                    "duration": 0.3157889999999952
                },
                {
                    "name": "C#6",
                    "midi": 85,
                    "time": 81.47356199999948,
                    "velocity": 0.7401574803149606,
                    "duration": 0.394736249999994
                },
                {
                    "name": "E5",
                    "midi": 76,
                    "time": 81.47356199999948,
                    "velocity": 0.6299212598425197,
                    "duration": 0.3157889999999952
                },
                {
                    "name": "C#5",
                    "midi": 73,
                    "time": 81.47356199999948,
                    "velocity": 0.6299212598425197,
                    "duration": 0.394736249999994
                },
                {
                    "name": "A5",
                    "midi": 81,
                    "time": 81.78935099999947,
                    "velocity": 0.7086614173228346,
                    "duration": 0.0789472499999988
                },
                {
                    "name": "D6",
                    "midi": 86,
                    "time": 81.94724549999947,
                    "velocity": 0.6220472440944882,
                    "duration": 0.0592104374999991
                },
                {
                    "name": "B5",
                    "midi": 83,
                    "time": 81.94724549999947,
                    "velocity": 0.4330708661417323,
                    "duration": 0.0592104374999991
                },
                {
                    "name": "D5",
                    "midi": 74,
                    "time": 81.94724549999947,
                    "velocity": 0.4330708661417323,
                    "duration": 0.0592104374999991
                },
                {
                    "name": "E5",
                    "midi": 76,
                    "time": 82.02619274999947,
                    "velocity": 0.5196850393700787,
                    "duration": 0.0592104374999991
                },
                {
                    "name": "C#6",
                    "midi": 85,
                    "time": 82.02619274999947,
                    "velocity": 0.5196850393700787,
                    "duration": 0.0592104374999991
                },
                {
                    "name": "E6",
                    "midi": 88,
                    "time": 82.02619274999947,
                    "velocity": 0.6220472440944882,
                    "duration": 0.0592104374999991
                },
                {
                    "name": "F6",
                    "midi": 89,
                    "time": 82.10513999999947,
                    "velocity": 0.6377952755905512,
                    "duration": 0.0592104374999991
                },
                {
                    "name": "D6",
                    "midi": 86,
                    "time": 82.10513999999947,
                    "velocity": 0.5275590551181102,
                    "duration": 0.0592104374999991
                },
                {
                    "name": "F5",
                    "midi": 77,
                    "time": 82.10513999999947,
                    "velocity": 0.5275590551181102,
                    "duration": 0.0592104374999991
                },
                {
                    "name": "G5",
                    "midi": 79,
                    "time": 82.18408724999946,
                    "velocity": 0.5590551181102362,
                    "duration": 0.0592104374999991
                },
                {
                    "name": "E6",
                    "midi": 88,
                    "time": 82.18408724999946,
                    "velocity": 0.5590551181102362,
                    "duration": 0.0592104374999991
                },
                {
                    "name": "G6",
                    "midi": 91,
                    "time": 82.18408724999946,
                    "velocity": 0.6535433070866141,
                    "duration": 0.0592104374999991
                },
                {
                    "name": "A5",
                    "midi": 81,
                    "time": 82.26303449999946,
                    "velocity": 0.5748031496062992,
                    "duration": 0.0592104374999991
                },
                {
                    "name": "F6",
                    "midi": 89,
                    "time": 82.26303449999946,
                    "velocity": 0.5748031496062992,
                    "duration": 0.0592104374999991
                },
                {
                    "name": "A6",
                    "midi": 93,
                    "time": 82.26303449999946,
                    "velocity": 0.6771653543307087,
                    "duration": 0.0592104374999991
                },
                {
                    "name": "B5",
                    "midi": 83,
                    "time": 82.34198174999946,
                    "velocity": 0.5905511811023622,
                    "duration": 0.0592104374999991
                },
                {
                    "name": "G6",
                    "midi": 91,
                    "time": 82.34198174999946,
                    "velocity": 0.5905511811023622,
                    "duration": 0.0592104374999991
                },
                {
                    "name": "B6",
                    "midi": 95,
                    "time": 82.34198174999946,
                    "velocity": 0.6850393700787402,
                    "duration": 0.0592104374999991
                },
                {
                    "name": "C#7",
                    "midi": 97,
                    "time": 82.42092899999946,
                    "velocity": 0.7165354330708661,
                    "duration": 0.0592104374999991
                },
                {
                    "name": "A6",
                    "midi": 93,
                    "time": 82.42092899999946,
                    "velocity": 0.5984251968503937,
                    "duration": 0.0592104374999991
                },
                {
                    "name": "C#6",
                    "midi": 85,
                    "time": 82.42092899999946,
                    "velocity": 0.5984251968503937,
                    "duration": 0.0592104374999991
                },
                {
                    "name": "D7",
                    "midi": 98,
                    "time": 82.49987624999946,
                    "velocity": 0.7322834645669292,
                    "duration": 0.0592104374999991
                },
                {
                    "name": "B6",
                    "midi": 95,
                    "time": 82.49987624999946,
                    "velocity": 0.6141732283464567,
                    "duration": 0.0592104374999991
                },
                {
                    "name": "D6",
                    "midi": 86,
                    "time": 82.49987624999946,
                    "velocity": 0.6141732283464567,
                    "duration": 0.0592104374999991
                },
                {
                    "name": "E7",
                    "midi": 100,
                    "time": 82.57882349999946,
                    "velocity": 0.7637795275590551,
                    "duration": 0.0592104374999991
                },
                {
                    "name": "C#7",
                    "midi": 97,
                    "time": 82.57882349999946,
                    "velocity": 0.6377952755905512,
                    "duration": 0.0592104374999991
                },
                {
                    "name": "E6",
                    "midi": 88,
                    "time": 82.57882349999946,
                    "velocity": 0.6377952755905512,
                    "duration": 0.0592104374999991
                },
                {
                    "name": "D7",
                    "midi": 98,
                    "time": 82.65777074999946,
                    "velocity": 0.6535433070866141,
                    "duration": 0.0592104374999991
                },
                {
                    "name": "F7",
                    "midi": 101,
                    "time": 82.65777074999946,
                    "velocity": 0.7795275590551181,
                    "duration": 0.0592104374999991
                },
                {
                    "name": "F6",
                    "midi": 89,
                    "time": 82.65777074999946,
                    "velocity": 0.6535433070866141,
                    "duration": 0.0592104374999991
                },
                {
                    "name": "B5",
                    "midi": 83,
                    "time": 82.73671799999946,
                    "velocity": 0.7401574803149606,
                    "duration": 0.394736249999994
                },
                {
                    "name": "D5",
                    "midi": 74,
                    "time": 82.73671799999946,
                    "velocity": 0.6299212598425197,
                    "duration": 0.3157889999999952
                },
                {
                    "name": "B4",
                    "midi": 71,
                    "time": 82.73671799999946,
                    "velocity": 0.6299212598425197,
                    "duration": 0.394736249999994
                },
                {
                    "name": "G5",
                    "midi": 79,
                    "time": 83.05250699999945,
                    "velocity": 0.7086614173228346,
                    "duration": 0.0789472499999988
                },
                {
                    "name": "C6",
                    "midi": 84,
                    "time": 83.21040149999945,
                    "velocity": 0.6220472440944882,
                    "duration": 0.0592104374999991
                },
                {
                    "name": "A5",
                    "midi": 81,
                    "time": 83.21040149999945,
                    "velocity": 0.4330708661417323,
                    "duration": 0.0592104374999991
                },
                {
                    "name": "C5",
                    "midi": 72,
                    "time": 83.21040149999945,
                    "velocity": 0.4330708661417323,
                    "duration": 0.0592104374999991
                },
                {
                    "name": "D5",
                    "midi": 74,
                    "time": 83.28934874999945,
                    "velocity": 0.5196850393700787,
                    "duration": 0.0592104374999991
                },
                {
                    "name": "B5",
                    "midi": 83,
                    "time": 83.28934874999945,
                    "velocity": 0.5196850393700787,
                    "duration": 0.0592104374999991
                },
                {
                    "name": "D6",
                    "midi": 86,
                    "time": 83.28934874999945,
                    "velocity": 0.6220472440944882,
                    "duration": 0.0592104374999991
                },
                {
                    "name": "E6",
                    "midi": 88,
                    "time": 83.36829599999945,
                    "velocity": 0.6377952755905512,
                    "duration": 0.0592104374999991
                },
                {
                    "name": "C6",
                    "midi": 84,
                    "time": 83.36829599999945,
                    "velocity": 0.5275590551181102,
                    "duration": 0.0592104374999991
                },
                {
                    "name": "E5",
                    "midi": 76,
                    "time": 83.36829599999945,
                    "velocity": 0.5275590551181102,
                    "duration": 0.0592104374999991
                },
                {
                    "name": "F5",
                    "midi": 77,
                    "time": 83.44724324999945,
                    "velocity": 0.5590551181102362,
                    "duration": 0.0592104374999991
                },
                {
                    "name": "D6",
                    "midi": 86,
                    "time": 83.44724324999945,
                    "velocity": 0.5590551181102362,
                    "duration": 0.0592104374999991
                },
                {
                    "name": "F6",
                    "midi": 89,
                    "time": 83.44724324999945,
                    "velocity": 0.6535433070866141,
                    "duration": 0.0592104374999991
                },
                {
                    "name": "G5",
                    "midi": 79,
                    "time": 83.52619049999944,
                    "velocity": 0.5748031496062992,
                    "duration": 0.0592104374999991
                },
                {
                    "name": "E6",
                    "midi": 88,
                    "time": 83.52619049999944,
                    "velocity": 0.5748031496062992,
                    "duration": 0.0592104374999991
                },
                {
                    "name": "G6",
                    "midi": 91,
                    "time": 83.52619049999944,
                    "velocity": 0.6771653543307087,
                    "duration": 0.0592104374999991
                },
                {
                    "name": "A5",
                    "midi": 81,
                    "time": 83.60513774999944,
                    "velocity": 0.5905511811023622,
                    "duration": 0.0592104374999991
                },
                {
                    "name": "F6",
                    "midi": 89,
                    "time": 83.60513774999944,
                    "velocity": 0.5905511811023622,
                    "duration": 0.0592104374999991
                },
                {
                    "name": "A6",
                    "midi": 93,
                    "time": 83.60513774999944,
                    "velocity": 0.6850393700787402,
                    "duration": 0.0592104374999991
                },
                {
                    "name": "B6",
                    "midi": 95,
                    "time": 83.68408499999944,
                    "velocity": 0.7165354330708661,
                    "duration": 0.0592104374999991
                },
                {
                    "name": "G6",
                    "midi": 91,
                    "time": 83.68408499999944,
                    "velocity": 0.5984251968503937,
                    "duration": 0.0592104374999991
                },
                {
                    "name": "B5",
                    "midi": 83,
                    "time": 83.68408499999944,
                    "velocity": 0.5984251968503937,
                    "duration": 0.0592104374999991
                },
                {
                    "name": "C7",
                    "midi": 96,
                    "time": 83.76303224999944,
                    "velocity": 0.7322834645669292,
                    "duration": 0.0592104374999991
                },
                {
                    "name": "A6",
                    "midi": 93,
                    "time": 83.76303224999944,
                    "velocity": 0.6141732283464567,
                    "duration": 0.0592104374999991
                },
                {
                    "name": "C6",
                    "midi": 84,
                    "time": 83.76303224999944,
                    "velocity": 0.6141732283464567,
                    "duration": 0.0592104374999991
                },
                {
                    "name": "D7",
                    "midi": 98,
                    "time": 83.84197949999944,
                    "velocity": 0.7637795275590551,
                    "duration": 0.0592104374999991
                },
                {
                    "name": "B6",
                    "midi": 95,
                    "time": 83.84197949999944,
                    "velocity": 0.6377952755905512,
                    "duration": 0.0592104374999991
                },
                {
                    "name": "D6",
                    "midi": 86,
                    "time": 83.84197949999944,
                    "velocity": 0.6377952755905512,
                    "duration": 0.0592104374999991
                },
                {
                    "name": "C7",
                    "midi": 96,
                    "time": 83.92092674999944,
                    "velocity": 0.6535433070866141,
                    "duration": 0.0592104374999991
                },
                {
                    "name": "E7",
                    "midi": 100,
                    "time": 83.92092674999944,
                    "velocity": 0.7795275590551181,
                    "duration": 0.0592104374999991
                },
                {
                    "name": "E6",
                    "midi": 88,
                    "time": 83.92092674999944,
                    "velocity": 0.6535433070866141,
                    "duration": 0.0592104374999991
                },
                {
                    "name": "F6",
                    "midi": 89,
                    "time": 83.99987399999944,
                    "velocity": 0.6220472440944882,
                    "duration": 0.0592104374999991
                },
                {
                    "name": "B6",
                    "midi": 95,
                    "time": 83.99987399999944,
                    "velocity": 0.6220472440944882,
                    "duration": 0.0592104374999991
                },
                {
                    "name": "G#6",
                    "midi": 92,
                    "time": 83.99987399999944,
                    "velocity": 0.6220472440944882,
                    "duration": 0.0592104374999991
                },
                {
                    "name": "F7",
                    "midi": 101,
                    "time": 83.99987399999944,
                    "velocity": 0.7322834645669292,
                    "duration": 0.0592104374999991
                },
                {
                    "name": "D6",
                    "midi": 86,
                    "time": 84.07882124999944,
                    "velocity": 0.5905511811023622,
                    "duration": 0.0592104374999991
                },
                {
                    "name": "D7",
                    "midi": 98,
                    "time": 84.07882124999944,
                    "velocity": 0.7086614173228346,
                    "duration": 0.0592104374999991
                },
                {
                    "name": "B5",
                    "midi": 83,
                    "time": 84.15776849999943,
                    "velocity": 0.5669291338582677,
                    "duration": 0.0592104374999991
                },
                {
                    "name": "B6",
                    "midi": 95,
                    "time": 84.15776849999943,
                    "velocity": 0.6771653543307087,
                    "duration": 0.0592104374999991
                },
                {
                    "name": "G#5",
                    "midi": 80,
                    "time": 84.23671574999943,
                    "velocity": 0.5669291338582677,
                    "duration": 0.0592104374999991
                },
                {
                    "name": "G#6",
                    "midi": 92,
                    "time": 84.23671574999943,
                    "velocity": 0.6771653543307087,
                    "duration": 0.0592104374999991
                },
                {
                    "name": "F5",
                    "midi": 77,
                    "time": 84.31566299999943,
                    "velocity": 0.5590551181102362,
                    "duration": 0.0592104374999991
                },
                {
                    "name": "G#5",
                    "midi": 80,
                    "time": 84.31566299999943,
                    "velocity": 0.5590551181102362,
                    "duration": 0.0592104374999991
                },
                {
                    "name": "B5",
                    "midi": 83,
                    "time": 84.31566299999943,
                    "velocity": 0.5590551181102362,
                    "duration": 0.0592104374999991
                },
                {
                    "name": "F6",
                    "midi": 89,
                    "time": 84.31566299999943,
                    "velocity": 0.6535433070866141,
                    "duration": 0.0592104374999991
                },
                {
                    "name": "D#5",
                    "midi": 75,
                    "time": 84.39461024999943,
                    "velocity": 0.5118110236220472,
                    "duration": 0.0592104374999991
                },
                {
                    "name": "D#6",
                    "midi": 87,
                    "time": 84.39461024999943,
                    "velocity": 0.6062992125984252,
                    "duration": 0.0592104374999991
                },
                {
                    "name": "E5",
                    "midi": 76,
                    "time": 84.47355749999943,
                    "velocity": 0.5511811023622047,
                    "duration": 0.0592104374999991
                },
                {
                    "name": "E6",
                    "midi": 88,
                    "time": 84.47355749999943,
                    "velocity": 0.6456692913385826,
                    "duration": 0.0592104374999991
                },
                {
                    "name": "D5",
                    "midi": 74,
                    "time": 84.55250474999943,
                    "velocity": 0.5826771653543307,
                    "duration": 0.0592104374999991
                },
                {
                    "name": "D6",
                    "midi": 86,
                    "time": 84.55250474999943,
                    "velocity": 0.7007874015748031,
                    "duration": 0.0592104374999991
                },
                {
                    "name": "C6",
                    "midi": 84,
                    "time": 84.63145199999943,
                    "velocity": 0.6220472440944882,
                    "duration": 0.0592104374999991
                },
                {
                    "name": "F#6",
                    "midi": 90,
                    "time": 84.63145199999943,
                    "velocity": 0.6220472440944882,
                    "duration": 0.0592104374999991
                },
                {
                    "name": "D#6",
                    "midi": 87,
                    "time": 84.63145199999943,
                    "velocity": 0.6220472440944882,
                    "duration": 0.0592104374999991
                },
                {
                    "name": "C7",
                    "midi": 96,
                    "time": 84.63145199999943,
                    "velocity": 0.7322834645669292,
                    "duration": 0.0592104374999991
                },
                {
                    "name": "A5",
                    "midi": 81,
                    "time": 84.71039924999943,
                    "velocity": 0.5905511811023622,
                    "duration": 0.0592104374999991
                },
                {
                    "name": "A6",
                    "midi": 93,
                    "time": 84.71039924999943,
                    "velocity": 0.7086614173228346,
                    "duration": 0.0592104374999991
                },
                {
                    "name": "F#5",
                    "midi": 78,
                    "time": 84.78934649999943,
                    "velocity": 0.5669291338582677,
                    "duration": 0.0592104374999991
                },
                {
                    "name": "F#6",
                    "midi": 90,
                    "time": 84.78934649999943,
                    "velocity": 0.6771653543307087,
                    "duration": 0.0592104374999991
                },
                {
                    "name": "D#5",
                    "midi": 75,
                    "time": 84.86829374999942,
                    "velocity": 0.5669291338582677,
                    "duration": 0.0592104374999991
                },
                {
                    "name": "D#6",
                    "midi": 87,
                    "time": 84.86829374999942,
                    "velocity": 0.6771653543307087,
                    "duration": 0.0592104374999991
                },
                {
                    "name": "C5",
                    "midi": 72,
                    "time": 84.94724099999942,
                    "velocity": 0.5590551181102362,
                    "duration": 0.0592104374999991
                },
                {
                    "name": "D#5",
                    "midi": 75,
                    "time": 84.94724099999942,
                    "velocity": 0.5590551181102362,
                    "duration": 0.0592104374999991
                },
                {
                    "name": "F#5",
                    "midi": 78,
                    "time": 84.94724099999942,
                    "velocity": 0.5590551181102362,
                    "duration": 0.0592104374999991
                },
                {
                    "name": "C6",
                    "midi": 84,
                    "time": 84.94724099999942,
                    "velocity": 0.6535433070866141,
                    "duration": 0.0592104374999991
                },
                {
                    "name": "A#4",
                    "midi": 70,
                    "time": 85.02618824999942,
                    "velocity": 0.5118110236220472,
                    "duration": 0.0592104374999991
                },
                {
                    "name": "A#5",
                    "midi": 82,
                    "time": 85.02618824999942,
                    "velocity": 0.6062992125984252,
                    "duration": 0.0592104374999991
                },
                {
                    "name": "B4",
                    "midi": 71,
                    "time": 85.10513549999942,
                    "velocity": 0.5511811023622047,
                    "duration": 0.0592104374999991
                },
                {
                    "name": "B5",
                    "midi": 83,
                    "time": 85.10513549999942,
                    "velocity": 0.6456692913385826,
                    "duration": 0.0592104374999991
                },
                {
                    "name": "A4",
                    "midi": 69,
                    "time": 85.18408274999942,
                    "velocity": 0.5826771653543307,
                    "duration": 0.0592104374999991
                },
                {
                    "name": "A5",
                    "midi": 81,
                    "time": 85.18408274999942,
                    "velocity": 0.7007874015748031,
                    "duration": 0.0592104374999991
                },
                {
                    "name": "F4",
                    "midi": 65,
                    "time": 85.26302999999942,
                    "velocity": 0.5196850393700787,
                    "duration": 0.0592104374999991
                },
                {
                    "name": "B4",
                    "midi": 71,
                    "time": 85.26302999999942,
                    "velocity": 0.5196850393700787,
                    "duration": 0.0592104374999991
                },
                {
                    "name": "A4",
                    "midi": 69,
                    "time": 85.26302999999942,
                    "velocity": 0.5196850393700787,
                    "duration": 0.0592104374999991
                },
                {
                    "name": "F5",
                    "midi": 77,
                    "time": 85.26302999999942,
                    "velocity": 0.6220472440944882,
                    "duration": 0.0592104374999991
                },
                {
                    "name": "D#4",
                    "midi": 63,
                    "time": 85.34197724999942,
                    "velocity": 0.49606299212598426,
                    "duration": 0.0592104374999991
                },
                {
                    "name": "D#5",
                    "midi": 75,
                    "time": 85.34197724999942,
                    "velocity": 0.5905511811023622,
                    "duration": 0.0592104374999991
                },
                {
                    "name": "E4",
                    "midi": 64,
                    "time": 85.42092449999942,
                    "velocity": 0.48031496062992124,
                    "duration": 0.0592104374999991
                },
                {
                    "name": "E5",
                    "midi": 76,
                    "time": 85.42092449999942,
                    "velocity": 0.5669291338582677,
                    "duration": 0.0592104374999991
                },
                {
                    "name": "D4",
                    "midi": 62,
                    "time": 85.49987174999941,
                    "velocity": 0.48031496062992124,
                    "duration": 0.0592104374999991
                },
                {
                    "name": "D5",
                    "midi": 74,
                    "time": 85.49987174999941,
                    "velocity": 0.5669291338582677,
                    "duration": 0.0592104374999991
                },
                {
                    "name": "C#4",
                    "midi": 61,
                    "time": 85.57881899999941,
                    "velocity": 0.47244094488188976,
                    "duration": 0.0592104374999991
                },
                {
                    "name": "C#5",
                    "midi": 73,
                    "time": 85.57881899999941,
                    "velocity": 0.5590551181102362,
                    "duration": 0.0592104374999991
                },
                {
                    "name": "B3",
                    "midi": 59,
                    "time": 85.65776624999941,
                    "velocity": 0.4251968503937008,
                    "duration": 0.0592104374999991
                },
                {
                    "name": "B4",
                    "midi": 71,
                    "time": 85.65776624999941,
                    "velocity": 0.5118110236220472,
                    "duration": 0.0592104374999991
                },
                {
                    "name": "C4",
                    "midi": 60,
                    "time": 85.73671349999941,
                    "velocity": 0.4645669291338583,
                    "duration": 0.0592104374999991
                },
                {
                    "name": "C5",
                    "midi": 72,
                    "time": 85.73671349999941,
                    "velocity": 0.5511811023622047,
                    "duration": 0.0592104374999991
                },
                {
                    "name": "B3",
                    "midi": 59,
                    "time": 85.81566074999941,
                    "velocity": 0.49606299212598426,
                    "duration": 0.0592104374999991
                },
                {
                    "name": "B4",
                    "midi": 71,
                    "time": 85.81566074999941,
                    "velocity": 0.5826771653543307,
                    "duration": 0.0592104374999991
                },
                {
                    "name": "D4",
                    "midi": 62,
                    "time": 85.89460799999941,
                    "velocity": 0.49606299212598426,
                    "duration": 0.3157889999999952
                },
                {
                    "name": "F4",
                    "midi": 65,
                    "time": 85.89460799999941,
                    "velocity": 0.49606299212598426,
                    "duration": 0.3157889999999952
                },
                {
                    "name": "A3",
                    "midi": 57,
                    "time": 85.89460799999941,
                    "velocity": 0.49606299212598426,
                    "duration": 0.4736834999999928
                },
                {
                    "name": "A4",
                    "midi": 69,
                    "time": 85.89460799999941,
                    "velocity": 0.5905511811023622,
                    "duration": 0.4736834999999928
                },
                {
                    "name": "C4",
                    "midi": 60,
                    "time": 86.2103969999994,
                    "velocity": 0.3464566929133858,
                    "duration": 0.1578944999999976
                },
                {
                    "name": "E4",
                    "midi": 64,
                    "time": 86.2103969999994,
                    "velocity": 0.4094488188976378,
                    "duration": 0.1578944999999976
                },
                {
                    "name": "E6",
                    "midi": 88,
                    "time": 86.5261859999994,
                    "velocity": 0.4094488188976378,
                    "duration": 0.05263150000000394
                },
                {
                    "name": "F6",
                    "midi": 89,
                    "time": 86.5788174999994,
                    "velocity": 0.3543307086614173,
                    "duration": 0.05263150000000394
                },
                {
                    "name": "E6",
                    "midi": 88,
                    "time": 86.6314489999994,
                    "velocity": 0.3543307086614173,
                    "duration": 0.05263150000000394
                },
                {
                    "name": "C6",
                    "midi": 84,
                    "time": 86.68408049999941,
                    "velocity": 0.3858267716535433,
                    "duration": 0.3157889999999952
                },
                {
                    "name": "C5",
                    "midi": 72,
                    "time": 86.84197499999941,
                    "velocity": 0.25984251968503935,
                    "duration": 0.0789472499999988
                },
                {
                    "name": "E5",
                    "midi": 76,
                    "time": 86.84197499999941,
                    "velocity": 0.25984251968503935,
                    "duration": 0.0789472499999988
                },
                {
                    "name": "A5",
                    "midi": 81,
                    "time": 86.9998694999994,
                    "velocity": 0.3779527559055118,
                    "duration": 0.0592104374999991
                },
                {
                    "name": "B5",
                    "midi": 83,
                    "time": 87.05250099999941,
                    "velocity": 0.3543307086614173,
                    "duration": 0.05921043749998489
                },
                {
                    "name": "A5",
                    "midi": 81,
                    "time": 87.1051324999994,
                    "velocity": 0.3543307086614173,
                    "duration": 0.05921043749998489
                },
                {
                    "name": "B5",
                    "midi": 83,
                    "time": 87.15776399999939,
                    "velocity": 0.3700787401574803,
                    "duration": 0.05921043749998489
                },
                {
                    "name": "C6",
                    "midi": 84,
                    "time": 87.21039549999938,
                    "velocity": 0.3543307086614173,
                    "duration": 0.05921043749998489
                },
                {
                    "name": "B5",
                    "midi": 83,
                    "time": 87.26302699999937,
                    "velocity": 0.3543307086614173,
                    "duration": 0.05921043749998489
                },
                {
                    "name": "G#5",
                    "midi": 80,
                    "time": 87.31565849999936,
                    "velocity": 0.3700787401574803,
                    "duration": 0.05921043749998489
                },
                {
                    "name": "A5",
                    "midi": 81,
                    "time": 87.36828999999935,
                    "velocity": 0.3464566929133858,
                    "duration": 0.05921043749998489
                },
                {
                    "name": "G#5",
                    "midi": 80,
                    "time": 87.42092149999934,
                    "velocity": 0.3464566929133858,
                    "duration": 0.05921043749998489
                },
                {
                    "name": "E5",
                    "midi": 76,
                    "time": 87.47355299999933,
                    "velocity": 0.36220472440944884,
                    "duration": 0.05921043749998489
                },
                {
                    "name": "F5",
                    "midi": 77,
                    "time": 87.52618449999932,
                    "velocity": 0.3228346456692913,
                    "duration": 0.05921043749998489
                },
                {
                    "name": "E5",
                    "midi": 76,
                    "time": 87.5788159999993,
                    "velocity": 0.33070866141732286,
                    "duration": 0.05921043749998489
                },
                {
                    "name": "D4",
                    "midi": 62,
                    "time": 87.6314474999993,
                    "velocity": 0.23622047244094488,
                    "duration": 0.0789472499999988
                },
                {
                    "name": "E4",
                    "midi": 64,
                    "time": 87.6314474999993,
                    "velocity": 0.23622047244094488,
                    "duration": 0.0789472499999988
                },
                {
                    "name": "B4",
                    "midi": 71,
                    "time": 87.6314474999993,
                    "velocity": 0.23622047244094488,
                    "duration": 0.0789472499999988
                },
                {
                    "name": "E6",
                    "midi": 88,
                    "time": 87.7893419999993,
                    "velocity": 0.4094488188976378,
                    "duration": 0.05263150000000394
                },
                {
                    "name": "F6",
                    "midi": 89,
                    "time": 87.8419734999993,
                    "velocity": 0.3543307086614173,
                    "duration": 0.05263150000000394
                },
                {
                    "name": "E6",
                    "midi": 88,
                    "time": 87.8946049999993,
                    "velocity": 0.3543307086614173,
                    "duration": 0.05263150000000394
                },
                {
                    "name": "C6",
                    "midi": 84,
                    "time": 87.9472364999993,
                    "velocity": 0.3858267716535433,
                    "duration": 0.3157889999999952
                },
                {
                    "name": "C5",
                    "midi": 72,
                    "time": 88.1051309999993,
                    "velocity": 0.29133858267716534,
                    "duration": 0.0789472499999988
                },
                {
                    "name": "E5",
                    "midi": 76,
                    "time": 88.1051309999993,
                    "velocity": 0.29133858267716534,
                    "duration": 0.0789472499999988
                },
                {
                    "name": "E4",
                    "midi": 64,
                    "time": 88.2630254999993,
                    "velocity": 0.3543307086614173,
                    "duration": 0.15789450000001182
                },
                {
                    "name": "C4",
                    "midi": 60,
                    "time": 88.2630254999993,
                    "velocity": 0.4251968503937008,
                    "duration": 0.05263150000000394
                },
                {
                    "name": "D4",
                    "midi": 62,
                    "time": 88.3156569999993,
                    "velocity": 0.41732283464566927,
                    "duration": 0.05263150000000394
                },
                {
                    "name": "C4",
                    "midi": 60,
                    "time": 88.36828849999931,
                    "velocity": 0.4409448818897638,
                    "duration": 0.05263150000000394
                },
                {
                    "name": "E4",
                    "midi": 64,
                    "time": 88.42091999999931,
                    "velocity": 0.4015748031496063,
                    "duration": 0.15789450000001182
                },
                {
                    "name": "B3",
                    "midi": 59,
                    "time": 88.42091999999931,
                    "velocity": 0.49606299212598426,
                    "duration": 0.05263150000000394
                },
                {
                    "name": "C4",
                    "midi": 60,
                    "time": 88.47355149999932,
                    "velocity": 0.49606299212598426,
                    "duration": 0.05263150000000394
                },
                {
                    "name": "B3",
                    "midi": 59,
                    "time": 88.52618299999932,
                    "velocity": 0.5275590551181102,
                    "duration": 0.05263150000000394
                },
                {
                    "name": "D#4",
                    "midi": 63,
                    "time": 88.57881449999932,
                    "velocity": 0.4409448818897638,
                    "duration": 0.15789450000001182
                },
                {
                    "name": "A4",
                    "midi": 69,
                    "time": 88.57881449999932,
                    "velocity": 0.5669291338582677,
                    "duration": 0.05263150000000394
                },
                {
                    "name": "B4",
                    "midi": 71,
                    "time": 88.63144599999933,
                    "velocity": 0.5275590551181102,
                    "duration": 0.05263150000000394
                },
                {
                    "name": "A4",
                    "midi": 69,
                    "time": 88.68407749999933,
                    "velocity": 0.5354330708661418,
                    "duration": 0.05263150000000394
                },
                {
                    "name": "E4",
                    "midi": 64,
                    "time": 88.73670899999934,
                    "velocity": 0.4409448818897638,
                    "duration": 0.15789450000001182
                },
                {
                    "name": "G#4",
                    "midi": 68,
                    "time": 88.73670899999934,
                    "velocity": 0.5826771653543307,
                    "duration": 0.05263150000000394
                },
                {
                    "name": "A4",
                    "midi": 69,
                    "time": 88.78934049999934,
                    "velocity": 0.5196850393700787,
                    "duration": 0.05263150000000394
                },
                {
                    "name": "G#4",
                    "midi": 68,
                    "time": 88.84197199999934,
                    "velocity": 0.5433070866141733,
                    "duration": 0.05263150000000394
                },
                {
                    "name": "E6",
                    "midi": 88,
                    "time": 89.05249799999935,
                    "velocity": 0.4094488188976378,
                    "duration": 0.05263150000000394
                },
                {
                    "name": "F6",
                    "midi": 89,
                    "time": 89.10512949999935,
                    "velocity": 0.3543307086614173,
                    "duration": 0.05263150000000394
                },
                {
                    "name": "E6",
                    "midi": 88,
                    "time": 89.15776099999935,
                    "velocity": 0.3543307086614173,
                    "duration": 0.05263150000000394
                },
                {
                    "name": "C6",
                    "midi": 84,
                    "time": 89.21039249999936,
                    "velocity": 0.3858267716535433,
                    "duration": 0.3157889999999952
                },
                {
                    "name": "C5",
                    "midi": 72,
                    "time": 89.36828699999936,
                    "velocity": 0.25984251968503935,
                    "duration": 0.0789472499999988
                },
                {
                    "name": "E5",
                    "midi": 76,
                    "time": 89.36828699999936,
                    "velocity": 0.25984251968503935,
                    "duration": 0.0789472499999988
                },
                {
                    "name": "A5",
                    "midi": 81,
                    "time": 89.52618149999935,
                    "velocity": 0.3779527559055118,
                    "duration": 0.0592104374999991
                },
                {
                    "name": "B5",
                    "midi": 83,
                    "time": 89.57881299999936,
                    "velocity": 0.3543307086614173,
                    "duration": 0.05921043749998489
                },
                {
                    "name": "A5",
                    "midi": 81,
                    "time": 89.63144449999935,
                    "velocity": 0.3543307086614173,
                    "duration": 0.05921043749998489
                },
                {
                    "name": "B5",
                    "midi": 83,
                    "time": 89.68407599999934,
                    "velocity": 0.3700787401574803,
                    "duration": 0.05921043749998489
                },
                {
                    "name": "C6",
                    "midi": 84,
                    "time": 89.73670749999933,
                    "velocity": 0.3543307086614173,
                    "duration": 0.05921043749998489
                },
                {
                    "name": "B5",
                    "midi": 83,
                    "time": 89.78933899999932,
                    "velocity": 0.3543307086614173,
                    "duration": 0.05921043749998489
                },
                {
                    "name": "G#5",
                    "midi": 80,
                    "time": 89.8419704999993,
                    "velocity": 0.3700787401574803,
                    "duration": 0.05921043749998489
                },
                {
                    "name": "A5",
                    "midi": 81,
                    "time": 89.8946019999993,
                    "velocity": 0.3464566929133858,
                    "duration": 0.05921043749998489
                },
                {
                    "name": "G#5",
                    "midi": 80,
                    "time": 89.94723349999929,
                    "velocity": 0.3464566929133858,
                    "duration": 0.05921043749998489
                },
                {
                    "name": "E5",
                    "midi": 76,
                    "time": 89.99986499999928,
                    "velocity": 0.36220472440944884,
                    "duration": 0.05921043749998489
                },
                {
                    "name": "F5",
                    "midi": 77,
                    "time": 90.05249649999926,
                    "velocity": 0.3228346456692913,
                    "duration": 0.05921043749998489
                },
                {
                    "name": "E5",
                    "midi": 76,
                    "time": 90.10512799999925,
                    "velocity": 0.33070866141732286,
                    "duration": 0.05921043749998489
                },
                {
                    "name": "D4",
                    "midi": 62,
                    "time": 90.15775949999924,
                    "velocity": 0.23622047244094488,
                    "duration": 0.0789472499999988
                },
                {
                    "name": "E4",
                    "midi": 64,
                    "time": 90.15775949999924,
                    "velocity": 0.23622047244094488,
                    "duration": 0.0789472499999988
                },
                {
                    "name": "B4",
                    "midi": 71,
                    "time": 90.15775949999924,
                    "velocity": 0.23622047244094488,
                    "duration": 0.0789472499999988
                },
                {
                    "name": "E6",
                    "midi": 88,
                    "time": 90.31565399999924,
                    "velocity": 0.4094488188976378,
                    "duration": 0.05263150000000394
                },
                {
                    "name": "F6",
                    "midi": 89,
                    "time": 90.36828549999925,
                    "velocity": 0.3543307086614173,
                    "duration": 0.05263150000000394
                },
                {
                    "name": "E6",
                    "midi": 88,
                    "time": 90.42091699999925,
                    "velocity": 0.3543307086614173,
                    "duration": 0.05263150000000394
                },
                {
                    "name": "C6",
                    "midi": 84,
                    "time": 90.47354849999925,
                    "velocity": 0.3858267716535433,
                    "duration": 0.3157889999999952
                },
                {
                    "name": "C5",
                    "midi": 72,
                    "time": 90.63144299999925,
                    "velocity": 0.29133858267716534,
                    "duration": 0.0789472499999988
                },
                {
                    "name": "E5",
                    "midi": 76,
                    "time": 90.63144299999925,
                    "velocity": 0.29133858267716534,
                    "duration": 0.0789472499999988
                },
                {
                    "name": "E4",
                    "midi": 64,
                    "time": 90.78933749999925,
                    "velocity": 0.3543307086614173,
                    "duration": 0.15789450000001182
                },
                {
                    "name": "C4",
                    "midi": 60,
                    "time": 90.78933749999925,
                    "velocity": 0.4251968503937008,
                    "duration": 0.05263150000000394
                },
                {
                    "name": "D4",
                    "midi": 62,
                    "time": 90.84196899999925,
                    "velocity": 0.41732283464566927,
                    "duration": 0.05263150000000394
                },
                {
                    "name": "C4",
                    "midi": 60,
                    "time": 90.89460049999926,
                    "velocity": 0.4409448818897638,
                    "duration": 0.05263150000000394
                },
                {
                    "name": "E4",
                    "midi": 64,
                    "time": 90.94723199999926,
                    "velocity": 0.4015748031496063,
                    "duration": 0.15789450000001182
                },
                {
                    "name": "B3",
                    "midi": 59,
                    "time": 90.94723199999926,
                    "velocity": 0.49606299212598426,
                    "duration": 0.05263150000000394
                },
                {
                    "name": "C4",
                    "midi": 60,
                    "time": 90.99986349999926,
                    "velocity": 0.49606299212598426,
                    "duration": 0.05263150000000394
                },
                {
                    "name": "B3",
                    "midi": 59,
                    "time": 91.05249499999927,
                    "velocity": 0.5275590551181102,
                    "duration": 0.05263150000000394
                },
                {
                    "name": "D#4",
                    "midi": 63,
                    "time": 91.10512649999927,
                    "velocity": 0.4409448818897638,
                    "duration": 0.15789450000001182
                },
                {
                    "name": "A4",
                    "midi": 69,
                    "time": 91.10512649999927,
                    "velocity": 0.5669291338582677,
                    "duration": 0.05263150000000394
                },
                {
                    "name": "B4",
                    "midi": 71,
                    "time": 91.15775799999928,
                    "velocity": 0.5275590551181102,
                    "duration": 0.05263150000000394
                },
                {
                    "name": "A4",
                    "midi": 69,
                    "time": 91.21038949999928,
                    "velocity": 0.5354330708661418,
                    "duration": 0.05263150000000394
                },
                {
                    "name": "E4",
                    "midi": 64,
                    "time": 91.26302099999928,
                    "velocity": 0.4409448818897638,
                    "duration": 0.15789450000001182
                },
                {
                    "name": "G#4",
                    "midi": 68,
                    "time": 91.26302099999928,
                    "velocity": 0.5826771653543307,
                    "duration": 0.05263150000000394
                },
                {
                    "name": "A4",
                    "midi": 69,
                    "time": 91.31565249999929,
                    "velocity": 0.5196850393700787,
                    "duration": 0.05263150000000394
                },
                {
                    "name": "G#4",
                    "midi": 68,
                    "time": 91.36828399999929,
                    "velocity": 0.5433070866141733,
                    "duration": 0.05263150000000394
                },
                {
                    "name": "E6",
                    "midi": 88,
                    "time": 91.5788099999993,
                    "velocity": 0.4094488188976378,
                    "duration": 0.05263150000000394
                },
                {
                    "name": "F6",
                    "midi": 89,
                    "time": 91.6314414999993,
                    "velocity": 0.3543307086614173,
                    "duration": 0.05263150000000394
                },
                {
                    "name": "E6",
                    "midi": 88,
                    "time": 91.6840729999993,
                    "velocity": 0.3543307086614173,
                    "duration": 0.05263150000000394
                },
                {
                    "name": "C#6",
                    "midi": 85,
                    "time": 91.7367044999993,
                    "velocity": 0.3858267716535433,
                    "duration": 0.3157889999999952
                },
                {
                    "name": "C#5",
                    "midi": 73,
                    "time": 91.8945989999993,
                    "velocity": 0.25984251968503935,
                    "duration": 0.0789472499999988
                },
                {
                    "name": "E5",
                    "midi": 76,
                    "time": 91.8945989999993,
                    "velocity": 0.25984251968503935,
                    "duration": 0.0789472499999988
                },
                {
                    "name": "A5",
                    "midi": 81,
                    "time": 92.0524934999993,
                    "velocity": 0.3779527559055118,
                    "duration": 0.0592104374999991
                },
                {
                    "name": "A#5",
                    "midi": 82,
                    "time": 92.1051249999993,
                    "velocity": 0.3543307086614173,
                    "duration": 0.05921043749998489
                },
                {
                    "name": "A5",
                    "midi": 81,
                    "time": 92.1577564999993,
                    "velocity": 0.3543307086614173,
                    "duration": 0.05921043749998489
                },
                {
                    "name": "D6",
                    "midi": 86,
                    "time": 92.21038799999928,
                    "velocity": 0.3700787401574803,
                    "duration": 0.05921043749998489
                },
                {
                    "name": "E6",
                    "midi": 88,
                    "time": 92.26301949999927,
                    "velocity": 0.3543307086614173,
                    "duration": 0.05921043749998489
                },
                {
                    "name": "D6",
                    "midi": 86,
                    "time": 92.31565099999926,
                    "velocity": 0.3543307086614173,
                    "duration": 0.0592104374999991
                },
                {
                    "name": "E4",
                    "midi": 64,
                    "time": 92.42091399999926,
                    "velocity": 0.41732283464566927,
                    "duration": 0.0592104374999991
                },
                {
                    "name": "A#4",
                    "midi": 70,
                    "time": 92.42091399999926,
                    "velocity": 0.4881889763779528,
                    "duration": 0.0592104374999991
                },
                {
                    "name": "A4",
                    "midi": 69,
                    "time": 92.47354549999926,
                    "velocity": 0.4881889763779528,
                    "duration": 0.0592104374999991
                },
                {
                    "name": "D4",
                    "midi": 62,
                    "time": 92.57880849999925,
                    "velocity": 0.4094488188976378,
                    "duration": 0.0592104374999991
                },
                {
                    "name": "G4",
                    "midi": 67,
                    "time": 92.57880849999925,
                    "velocity": 0.48031496062992124,
                    "duration": 0.0592104374999991
                },
                {
                    "name": "F4",
                    "midi": 65,
                    "time": 92.63143999999926,
                    "velocity": 0.48031496062992124,
                    "duration": 0.0592104374999991
                },
                {
                    "name": "D6",
                    "midi": 86,
                    "time": 92.84196599999926,
                    "velocity": 0.4094488188976378,
                    "duration": 0.05263150000000394
                },
                {
                    "name": "E6",
                    "midi": 88,
                    "time": 92.89459749999926,
                    "velocity": 0.3543307086614173,
                    "duration": 0.05263150000000394
                },
                {
                    "name": "D6",
                    "midi": 86,
                    "time": 92.94722899999927,
                    "velocity": 0.3543307086614173,
                    "duration": 0.05263150000000394
                },
                {
                    "name": "B5",
                    "midi": 83,
                    "time": 92.99986049999927,
                    "velocity": 0.3858267716535433,
                    "duration": 0.3157889999999952
                },
                {
                    "name": "B4",
                    "midi": 71,
                    "time": 93.15775499999927,
                    "velocity": 0.25984251968503935,
                    "duration": 0.0789472499999988
                },
                {
                    "name": "D5",
                    "midi": 74,
                    "time": 93.15775499999927,
                    "velocity": 0.25984251968503935,
                    "duration": 0.0789472499999988
                },
                {
                    "name": "G5",
                    "midi": 79,
                    "time": 93.31564949999927,
                    "velocity": 0.3779527559055118,
                    "duration": 0.0592104374999991
                },
                {
                    "name": "A5",
                    "midi": 81,
                    "time": 93.36828099999927,
                    "velocity": 0.3543307086614173,
                    "duration": 0.05921043749998489
                },
                {
                    "name": "G5",
                    "midi": 79,
                    "time": 93.42091249999926,
                    "velocity": 0.3543307086614173,
                    "duration": 0.05921043749998489
                },
                {
                    "name": "C6",
                    "midi": 84,
                    "time": 93.47354399999925,
                    "velocity": 0.3700787401574803,
                    "duration": 0.05921043749998489
                },
                {
                    "name": "D6",
                    "midi": 86,
                    "time": 93.52617549999924,
                    "velocity": 0.3543307086614173,
                    "duration": 0.05921043749998489
                },
                {
                    "name": "C6",
                    "midi": 84,
                    "time": 93.57880699999923,
                    "velocity": 0.3543307086614173,
                    "duration": 0.0592104374999991
                },
                {
                    "name": "D4",
                    "midi": 62,
                    "time": 93.68406999999922,
                    "velocity": 0.41732283464566927,
                    "duration": 0.0592104374999991
                },
                {
                    "name": "A4",
                    "midi": 69,
                    "time": 93.68406999999922,
                    "velocity": 0.4881889763779528,
                    "duration": 0.0592104374999991
                },
                {
                    "name": "G4",
                    "midi": 67,
                    "time": 93.73670149999923,
                    "velocity": 0.4881889763779528,
                    "duration": 0.0592104374999991
                },
                {
                    "name": "C4",
                    "midi": 60,
                    "time": 93.84196449999922,
                    "velocity": 0.4094488188976378,
                    "duration": 0.0592104374999991
                },
                {
                    "name": "F4",
                    "midi": 65,
                    "time": 93.84196449999922,
                    "velocity": 0.48031496062992124,
                    "duration": 0.0592104374999991
                },
                {
                    "name": "E4",
                    "midi": 64,
                    "time": 93.89459599999923,
                    "velocity": 0.48031496062992124,
                    "duration": 0.0592104374999991
                },
                {
                    "name": "D6",
                    "midi": 86,
                    "time": 94.10512199999923,
                    "velocity": 0.4094488188976378,
                    "duration": 0.05263150000000394
                },
                {
                    "name": "E6",
                    "midi": 88,
                    "time": 94.15775349999923,
                    "velocity": 0.3543307086614173,
                    "duration": 0.05263150000000394
                },
                {
                    "name": "D6",
                    "midi": 86,
                    "time": 94.21038499999923,
                    "velocity": 0.3543307086614173,
                    "duration": 0.05263150000000394
                },
                {
                    "name": "F6",
                    "midi": 89,
                    "time": 94.26301649999924,
                    "velocity": 0.3858267716535433,
                    "duration": 0.3157889999999952
                },
                {
                    "name": "F5",
                    "midi": 77,
                    "time": 94.42091099999924,
                    "velocity": 0.25984251968503935,
                    "duration": 0.0789472499999988
                },
                {
                    "name": "G#5",
                    "midi": 80,
                    "time": 94.42091099999924,
                    "velocity": 0.25984251968503935,
                    "duration": 0.0789472499999988
                },
                {
                    "name": "D4",
                    "midi": 62,
                    "time": 94.57880549999923,
                    "velocity": 0.28346456692913385,
                    "duration": 0.026315749999994864
                },
                {
                    "name": "F4",
                    "midi": 65,
                    "time": 94.57880549999923,
                    "velocity": 0.28346456692913385,
                    "duration": 0.026315749999994864
                },
                {
                    "name": "G#4",
                    "midi": 68,
                    "time": 94.57880549999923,
                    "velocity": 0.33858267716535434,
                    "duration": 0.026315749999994864
                },
                {
                    "name": "E4",
                    "midi": 64,
                    "time": 94.60512124999923,
                    "velocity": 0.25984251968503935,
                    "duration": 0.026315749999994864
                },
                {
                    "name": "D4",
                    "midi": 62,
                    "time": 94.63143699999922,
                    "velocity": 0.25984251968503935,
                    "duration": 0.013157875000004537
                },
                {
                    "name": "C6",
                    "midi": 84,
                    "time": 94.73669999999923,
                    "velocity": 0.4094488188976378,
                    "duration": 0.05263150000000394
                },
                {
                    "name": "D6",
                    "midi": 86,
                    "time": 94.78933149999924,
                    "velocity": 0.3543307086614173,
                    "duration": 0.05263150000000394
                },
                {
                    "name": "C6",
                    "midi": 84,
                    "time": 94.84196299999924,
                    "velocity": 0.3543307086614173,
                    "duration": 0.05263150000000394
                },
                {
                    "name": "E6",
                    "midi": 88,
                    "time": 94.89459449999924,
                    "velocity": 0.3858267716535433,
                    "duration": 0.3157889999999952
                },
                {
                    "name": "E5",
                    "midi": 76,
                    "time": 95.05248899999924,
                    "velocity": 0.25984251968503935,
                    "duration": 0.0789472499999988
                },
                {
                    "name": "A5",
                    "midi": 81,
                    "time": 95.05248899999924,
                    "velocity": 0.25984251968503935,
                    "duration": 0.0789472499999988
                },
                {
                    "name": "C4",
                    "midi": 60,
                    "time": 95.21038349999924,
                    "velocity": 0.28346456692913385,
                    "duration": 0.026315749999994864
                },
                {
                    "name": "E4",
                    "midi": 64,
                    "time": 95.21038349999924,
                    "velocity": 0.33858267716535434,
                    "duration": 0.026315749999994864
                },
                {
                    "name": "D4",
                    "midi": 62,
                    "time": 95.23669924999923,
                    "velocity": 0.25984251968503935,
                    "duration": 0.026315749999994864
                },
                {
                    "name": "C4",
                    "midi": 60,
                    "time": 95.26301499999923,
                    "velocity": 0.25984251968503935,
                    "duration": 0.013157875000004537
                },
                {
                    "name": "F4",
                    "midi": 65,
                    "time": 95.36827799999924,
                    "velocity": 0.3543307086614173,
                    "duration": 0.026315749999994864
                },
                {
                    "name": "B4",
                    "midi": 71,
                    "time": 95.36827799999924,
                    "velocity": 0.3543307086614173,
                    "duration": 0.026315749999994864
                },
                {
                    "name": "A4",
                    "midi": 69,
                    "time": 95.39459374999923,
                    "velocity": 0.2440944881889764,
                    "duration": 0.026315749999994864
                },
                {
                    "name": "C5",
                    "midi": 72,
                    "time": 95.39459374999923,
                    "velocity": 0.2440944881889764,
                    "duration": 0.026315749999994864
                },
                {
                    "name": "F4",
                    "midi": 65,
                    "time": 95.42090949999923,
                    "velocity": 0.2125984251968504,
                    "duration": 0.013157875000004537
                },
                {
                    "name": "B4",
                    "midi": 71,
                    "time": 95.42090949999923,
                    "velocity": 0.2125984251968504,
                    "duration": 0.013157875000004537
                },
                {
                    "name": "A4",
                    "midi": 69,
                    "time": 95.52617249999923,
                    "velocity": 0.3700787401574803,
                    "duration": 0.026315749999994864
                },
                {
                    "name": "F5",
                    "midi": 77,
                    "time": 95.52617249999923,
                    "velocity": 0.3700787401574803,
                    "duration": 0.026315749999994864
                },
                {
                    "name": "B4",
                    "midi": 71,
                    "time": 95.55248824999923,
                    "velocity": 0.25196850393700787,
                    "duration": 0.026315749999994864
                },
                {
                    "name": "G5",
                    "midi": 79,
                    "time": 95.55248824999923,
                    "velocity": 0.25196850393700787,
                    "duration": 0.026315749999994864
                },
                {
                    "name": "A4",
                    "midi": 69,
                    "time": 95.57880399999922,
                    "velocity": 0.2204724409448819,
                    "duration": 0.013157875000004537
                },
                {
                    "name": "F5",
                    "midi": 77,
                    "time": 95.57880399999922,
                    "velocity": 0.2204724409448819,
                    "duration": 0.013157875000004537
                },
                {
                    "name": "G#4",
                    "midi": 68,
                    "time": 95.68406699999923,
                    "velocity": 0.3858267716535433,
                    "duration": 0.026315749999994864
                },
                {
                    "name": "E5",
                    "midi": 76,
                    "time": 95.68406699999923,
                    "velocity": 0.3858267716535433,
                    "duration": 0.026315749999994864
                },
                {
                    "name": "F5",
                    "midi": 77,
                    "time": 95.71038274999923,
                    "velocity": 0.2677165354330709,
                    "duration": 0.026315749999994864
                },
                {
                    "name": "B4",
                    "midi": 71,
                    "time": 95.71038274999923,
                    "velocity": 0.2677165354330709,
                    "duration": 0.026315749999994864
                },
                {
                    "name": "G#4",
                    "midi": 68,
                    "time": 95.73669849999922,
                    "velocity": 0.23622047244094488,
                    "duration": 0.013157875000004537
                },
                {
                    "name": "E5",
                    "midi": 76,
                    "time": 95.73669849999922,
                    "velocity": 0.23622047244094488,
                    "duration": 0.013157875000004537
                },
                {
                    "name": "D5",
                    "midi": 74,
                    "time": 95.84196149999923,
                    "velocity": 0.4015748031496063,
                    "duration": 0.026315749999994864
                },
                {
                    "name": "B5",
                    "midi": 83,
                    "time": 95.84196149999923,
                    "velocity": 0.4015748031496063,
                    "duration": 0.026315749999994864
                },
                {
                    "name": "E5",
                    "midi": 76,
                    "time": 95.86827724999922,
                    "velocity": 0.2755905511811024,
                    "duration": 0.026315749999994864
                },
                {
                    "name": "C6",
                    "midi": 84,
                    "time": 95.86827724999922,
                    "velocity": 0.2755905511811024,
                    "duration": 0.026315749999994864
                },
                {
                    "name": "D5",
                    "midi": 74,
                    "time": 95.89459299999922,
                    "velocity": 0.2440944881889764,
                    "duration": 0.013157875000004537
                },
                {
                    "name": "B5",
                    "midi": 83,
                    "time": 95.89459299999922,
                    "velocity": 0.2440944881889764,
                    "duration": 0.013157875000004537
                },
                {
                    "name": "C5",
                    "midi": 72,
                    "time": 95.99985599999923,
                    "velocity": 0.41732283464566927,
                    "duration": 0.026315749999994864
                },
                {
                    "name": "A5",
                    "midi": 81,
                    "time": 95.99985599999923,
                    "velocity": 0.41732283464566927,
                    "duration": 0.026315749999994864
                },
                {
                    "name": "E5",
                    "midi": 76,
                    "time": 96.02617174999922,
                    "velocity": 0.28346456692913385,
                    "duration": 0.026315749999994864
                },
                {
                    "name": "B5",
                    "midi": 83,
                    "time": 96.02617174999922,
                    "velocity": 0.28346456692913385,
                    "duration": 0.026315749999994864
                },
                {
                    "name": "C5",
                    "midi": 72,
                    "time": 96.05248749999922,
                    "velocity": 0.25196850393700787,
                    "duration": 0.013157875000004537
                },
                {
                    "name": "A5",
                    "midi": 81,
                    "time": 96.05248749999922,
                    "velocity": 0.25196850393700787,
                    "duration": 0.013157875000004537
                },
                {
                    "name": "A5",
                    "midi": 81,
                    "time": 96.15775049999922,
                    "velocity": 0.3543307086614173,
                    "duration": 0.026315749999994864
                },
                {
                    "name": "F6",
                    "midi": 89,
                    "time": 96.15775049999922,
                    "velocity": 0.3543307086614173,
                    "duration": 0.026315749999994864
                },
                {
                    "name": "D6",
                    "midi": 86,
                    "time": 96.18406624999922,
                    "velocity": 0.2440944881889764,
                    "duration": 0.026315749999994864
                },
                {
                    "name": "G6",
                    "midi": 91,
                    "time": 96.18406624999922,
                    "velocity": 0.2440944881889764,
                    "duration": 0.026315749999994864
                },
                {
                    "name": "A5",
                    "midi": 81,
                    "time": 96.21038199999921,
                    "velocity": 0.2125984251968504,
                    "duration": 0.013157875000004537
                },
                {
                    "name": "F6",
                    "midi": 89,
                    "time": 96.21038199999921,
                    "velocity": 0.2125984251968504,
                    "duration": 0.013157875000004537
                },
                {
                    "name": "C7",
                    "midi": 96,
                    "time": 96.31564499999922,
                    "velocity": 0.31496062992125984,
                    "duration": 0.0789472499999988
                },
                {
                    "name": "E6",
                    "midi": 88,
                    "time": 96.31564499999922,
                    "velocity": 0.2677165354330709,
                    "duration": 0.0789472499999988
                },
                {
                    "name": "C6",
                    "midi": 84,
                    "time": 96.31564499999922,
                    "velocity": 0.2677165354330709,
                    "duration": 0.0789472499999988
                },
                {
                    "name": "E4",
                    "midi": 64,
                    "time": 96.63143399999922,
                    "velocity": 0.6535433070866141,
                    "duration": 0.0789472499999988
                },
                {
                    "name": "A3",
                    "midi": 57,
                    "time": 96.63143399999922,
                    "velocity": 0.5275590551181102,
                    "duration": 0.0789472499999988
                },
                {
                    "name": "C4",
                    "midi": 60,
                    "time": 96.63143399999922,
                    "velocity": 0.5275590551181102,
                    "duration": 0.0789472499999988
                },
                {
                    "name": "E4",
                    "midi": 64,
                    "time": 96.86827574999921,
                    "velocity": 0.48031496062992124,
                    "duration": 0.0789472499999988
                },
                {
                    "name": "E4",
                    "midi": 64,
                    "time": 97.02617024999921,
                    "velocity": 0.48031496062992124,
                    "duration": 0.0789472499999988
                },
                {
                    "name": "D4",
                    "midi": 62,
                    "time": 97.02617024999921,
                    "velocity": 0.4015748031496063,
                    "duration": 0.0789472499999988
                },
                {
                    "name": "E4",
                    "midi": 64,
                    "time": 97.18406474999921,
                    "velocity": 0.4566929133858268,
                    "duration": 0.0592104374999991
                },
                {
                    "name": "C4",
                    "midi": 60,
                    "time": 97.18406474999921,
                    "velocity": 0.36220472440944884,
                    "duration": 0.0592104374999991
                },
                {
                    "name": "E4",
                    "midi": 64,
                    "time": 97.3419592499992,
                    "velocity": 0.5354330708661418,
                    "duration": 0.0789472499999988
                },
                {
                    "name": "B3",
                    "midi": 59,
                    "time": 97.3419592499992,
                    "velocity": 0.3937007874015748,
                    "duration": 0.0789472499999988
                },
                {
                    "name": "B4",
                    "midi": 71,
                    "time": 97.4998537499992,
                    "velocity": 0.47244094488188976,
                    "duration": 0.0789472499999988
                },
                {
                    "name": "B3",
                    "midi": 59,
                    "time": 97.4998537499992,
                    "velocity": 0.3543307086614173,
                    "duration": 0.0789472499999988
                },
                {
                    "name": "E4",
                    "midi": 64,
                    "time": 97.4998537499992,
                    "velocity": 0.3543307086614173,
                    "duration": 0.0789472499999988
                },
                {
                    "name": "E4",
                    "midi": 64,
                    "time": 97.6577482499992,
                    "velocity": 0.41732283464566927,
                    "duration": 0.0789472499999988
                },
                {
                    "name": "A3",
                    "midi": 57,
                    "time": 97.6577482499992,
                    "velocity": 0.4409448818897638,
                    "duration": 0.0789472499999988
                },
                {
                    "name": "E4",
                    "midi": 64,
                    "time": 97.8156427499992,
                    "velocity": 0.4094488188976378,
                    "duration": 0.0592104374999991
                },
                {
                    "name": "B3",
                    "midi": 59,
                    "time": 97.8156427499992,
                    "velocity": 0.4251968503937008,
                    "duration": 0.0592104374999991
                },
                {
                    "name": "E4",
                    "midi": 64,
                    "time": 97.8945899999992,
                    "velocity": 0.6535433070866141,
                    "duration": 0.0789472499999988
                },
                {
                    "name": "A3",
                    "midi": 57,
                    "time": 97.8945899999992,
                    "velocity": 0.5275590551181102,
                    "duration": 0.0789472499999988
                },
                {
                    "name": "C4",
                    "midi": 60,
                    "time": 97.8945899999992,
                    "velocity": 0.5275590551181102,
                    "duration": 0.0789472499999988
                },
                {
                    "name": "E4",
                    "midi": 64,
                    "time": 98.1314317499992,
                    "velocity": 0.48031496062992124,
                    "duration": 0.0789472499999988
                },
                {
                    "name": "E4",
                    "midi": 64,
                    "time": 98.28932624999919,
                    "velocity": 0.48031496062992124,
                    "duration": 0.0789472499999988
                },
                {
                    "name": "D4",
                    "midi": 62,
                    "time": 98.28932624999919,
                    "velocity": 0.4015748031496063,
                    "duration": 0.0789472499999988
                },
                {
                    "name": "E4",
                    "midi": 64,
                    "time": 98.44722074999919,
                    "velocity": 0.4566929133858268,
                    "duration": 0.0592104374999991
                },
                {
                    "name": "C4",
                    "midi": 60,
                    "time": 98.44722074999919,
                    "velocity": 0.36220472440944884,
                    "duration": 0.0592104374999991
                },
                {
                    "name": "E4",
                    "midi": 64,
                    "time": 98.60511524999919,
                    "velocity": 0.49606299212598426,
                    "duration": 0.0789472499999988
                },
                {
                    "name": "B3",
                    "midi": 59,
                    "time": 98.60511524999919,
                    "velocity": 0.3937007874015748,
                    "duration": 0.0789472499999988
                },
                {
                    "name": "A4",
                    "midi": 69,
                    "time": 98.76300974999918,
                    "velocity": 0.48031496062992124,
                    "duration": 0.0789472499999988
                },
                {
                    "name": "B3",
                    "midi": 59,
                    "time": 98.76300974999918,
                    "velocity": 0.3858267716535433,
                    "duration": 0.0789472499999988
                },
                {
                    "name": "D#4",
                    "midi": 63,
                    "time": 98.76300974999918,
                    "velocity": 0.3858267716535433,
                    "duration": 0.0789472499999988
                },
                {
                    "name": "G#4",
                    "midi": 68,
                    "time": 98.92090424999918,
                    "velocity": 0.48031496062992124,
                    "duration": 0.0789472499999988
                },
                {
                    "name": "E4",
                    "midi": 64,
                    "time": 98.92090424999918,
                    "velocity": 0.3858267716535433,
                    "duration": 0.0789472499999988
                },
                {
                    "name": "B3",
                    "midi": 59,
                    "time": 98.92090424999918,
                    "velocity": 0.3858267716535433,
                    "duration": 0.0789472499999988
                },
                {
                    "name": "E4",
                    "midi": 64,
                    "time": 99.07879874999918,
                    "velocity": 0.4409448818897638,
                    "duration": 0.0592104374999991
                },
                {
                    "name": "E4",
                    "midi": 64,
                    "time": 99.15774599999918,
                    "velocity": 0.5590551181102362,
                    "duration": 0.0789472499999988
                },
                {
                    "name": "E5",
                    "midi": 76,
                    "time": 99.15774599999918,
                    "velocity": 0.6929133858267716,
                    "duration": 0.0789472499999988
                },
                {
                    "name": "A4",
                    "midi": 69,
                    "time": 99.15774599999918,
                    "velocity": 0.5590551181102362,
                    "duration": 0.0789472499999988
                },
                {
                    "name": "C5",
                    "midi": 72,
                    "time": 99.15774599999918,
                    "velocity": 0.5590551181102362,
                    "duration": 0.0789472499999988
                },
                {
                    "name": "E4",
                    "midi": 64,
                    "time": 99.39458774999918,
                    "velocity": 0.41732283464566927,
                    "duration": 0.0789472499999988
                },
                {
                    "name": "E5",
                    "midi": 76,
                    "time": 99.39458774999918,
                    "velocity": 0.5196850393700787,
                    "duration": 0.0789472499999988
                },
                {
                    "name": "D5",
                    "midi": 74,
                    "time": 99.55248224999917,
                    "velocity": 0.5196850393700787,
                    "duration": 0.0789472499999988
                },
                {
                    "name": "E4",
                    "midi": 64,
                    "time": 99.55248224999917,
                    "velocity": 0.41732283464566927,
                    "duration": 0.0789472499999988
                },
                {
                    "name": "E5",
                    "midi": 76,
                    "time": 99.55511382499917,
                    "velocity": 0.41732283464566927,
                    "duration": 0.0789472499999988
                },
                {
                    "name": "E4",
                    "midi": 64,
                    "time": 99.71037674999917,
                    "velocity": 0.3937007874015748,
                    "duration": 0.0592104374999991
                },
                {
                    "name": "E5",
                    "midi": 76,
                    "time": 99.71037674999917,
                    "velocity": 0.5039370078740157,
                    "duration": 0.0592104374999991
                },
                {
                    "name": "C5",
                    "midi": 72,
                    "time": 99.71037674999917,
                    "velocity": 0.3937007874015748,
                    "duration": 0.0592104374999991
                },
                {
                    "name": "E4",
                    "midi": 64,
                    "time": 99.86827124999917,
                    "velocity": 0.4330708661417323,
                    "duration": 0.0789472499999988
                },
                {
                    "name": "E5",
                    "midi": 76,
                    "time": 99.86827124999917,
                    "velocity": 0.5433070866141733,
                    "duration": 0.0789472499999988
                },
                {
                    "name": "B4",
                    "midi": 71,
                    "time": 99.86827124999917,
                    "velocity": 0.4330708661417323,
                    "duration": 0.0789472499999988
                },
                {
                    "name": "B5",
                    "midi": 83,
                    "time": 100.02616574999917,
                    "velocity": 0.4881889763779528,
                    "duration": 0.0789472499999988
                },
                {
                    "name": "B4",
                    "midi": 71,
                    "time": 100.02616574999917,
                    "velocity": 0.3779527559055118,
                    "duration": 0.0789472499999988
                },
                {
                    "name": "E4",
                    "midi": 64,
                    "time": 100.18406024999916,
                    "velocity": 0.3779527559055118,
                    "duration": 0.0789472499999988
                },
                {
                    "name": "E5",
                    "midi": 76,
                    "time": 100.18406024999916,
                    "velocity": 0.4881889763779528,
                    "duration": 0.0789472499999988
                },
                {
                    "name": "A4",
                    "midi": 69,
                    "time": 100.18406024999916,
                    "velocity": 0.41732283464566927,
                    "duration": 0.0789472499999988
                },
                {
                    "name": "E4",
                    "midi": 64,
                    "time": 100.34195474999916,
                    "velocity": 0.3779527559055118,
                    "duration": 0.0592104374999991
                },
                {
                    "name": "E5",
                    "midi": 76,
                    "time": 100.34195474999916,
                    "velocity": 0.4881889763779528,
                    "duration": 0.0592104374999991
                },
                {
                    "name": "B4",
                    "midi": 71,
                    "time": 100.34195474999916,
                    "velocity": 0.4094488188976378,
                    "duration": 0.0592104374999991
                },
                {
                    "name": "E4",
                    "midi": 64,
                    "time": 100.42090199999916,
                    "velocity": 0.5590551181102362,
                    "duration": 0.0789472499999988
                },
                {
                    "name": "E5",
                    "midi": 76,
                    "time": 100.42090199999916,
                    "velocity": 0.6929133858267716,
                    "duration": 0.0789472499999988
                },
                {
                    "name": "A4",
                    "midi": 69,
                    "time": 100.42090199999916,
                    "velocity": 0.5590551181102362,
                    "duration": 0.0789472499999988
                },
                {
                    "name": "C5",
                    "midi": 72,
                    "time": 100.42090199999916,
                    "velocity": 0.5590551181102362,
                    "duration": 0.0789472499999988
                },
                {
                    "name": "E5",
                    "midi": 76,
                    "time": 100.65774374999916,
                    "velocity": 0.5354330708661418,
                    "duration": 0.0789472499999988
                },
                {
                    "name": "E4",
                    "midi": 64,
                    "time": 100.65774374999916,
                    "velocity": 0.44881889763779526,
                    "duration": 0.0789472499999988
                },
                {
                    "name": "D5",
                    "midi": 74,
                    "time": 100.81563824999915,
                    "velocity": 0.5511811023622047,
                    "duration": 0.0789472499999988
                },
                {
                    "name": "E5",
                    "midi": 76,
                    "time": 100.81563824999915,
                    "velocity": 0.4645669291338583,
                    "duration": 0.0789472499999988
                },
                {
                    "name": "E4",
                    "midi": 64,
                    "time": 100.81563824999915,
                    "velocity": 0.4645669291338583,
                    "duration": 0.0789472499999988
                },
                {
                    "name": "E4",
                    "midi": 64,
                    "time": 100.97353274999915,
                    "velocity": 0.4251968503937008,
                    "duration": 0.0592104374999991
                },
                {
                    "name": "E5",
                    "midi": 76,
                    "time": 100.97353274999915,
                    "velocity": 0.5433070866141733,
                    "duration": 0.0592104374999991
                },
                {
                    "name": "C5",
                    "midi": 72,
                    "time": 100.97353274999915,
                    "velocity": 0.4251968503937008,
                    "duration": 0.0592104374999991
                },
                {
                    "name": "E4",
                    "midi": 64,
                    "time": 101.13142724999915,
                    "velocity": 0.49606299212598426,
                    "duration": 0.0789472499999988
                },
                {
                    "name": "E5",
                    "midi": 76,
                    "time": 101.13142724999915,
                    "velocity": 0.6141732283464567,
                    "duration": 0.0789472499999988
                },
                {
                    "name": "B4",
                    "midi": 71,
                    "time": 101.13142724999915,
                    "velocity": 0.49606299212598426,
                    "duration": 0.0789472499999988
                },
                {
                    "name": "A5",
                    "midi": 81,
                    "time": 101.28932174999915,
                    "velocity": 0.6062992125984252,
                    "duration": 0.0789472499999988
                },
                {
                    "name": "A4",
                    "midi": 69,
                    "time": 101.28932174999915,
                    "velocity": 0.47244094488188976,
                    "duration": 0.0789472499999988
                },
                {
                    "name": "D#5",
                    "midi": 75,
                    "time": 101.28932174999915,
                    "velocity": 0.47244094488188976,
                    "duration": 0.0789472499999988
                },
                {
                    "name": "G#5",
                    "midi": 80,
                    "time": 101.44721624999914,
                    "velocity": 0.6220472440944882,
                    "duration": 0.0789472499999988
                },
                {
                    "name": "E5",
                    "midi": 76,
                    "time": 101.44721624999914,
                    "velocity": 0.48031496062992124,
                    "duration": 0.0789472499999988
                },
                {
                    "name": "G#4",
                    "midi": 68,
                    "time": 101.44721624999914,
                    "velocity": 0.48031496062992124,
                    "duration": 0.0789472499999988
                },
                {
                    "name": "E5",
                    "midi": 76,
                    "time": 101.60511074999914,
                    "velocity": 0.6456692913385826,
                    "duration": 0.0592104374999991
                },
                {
                    "name": "G#4",
                    "midi": 68,
                    "time": 101.60511074999914,
                    "velocity": 0.5511811023622047,
                    "duration": 0.0592104374999991
                },
                {
                    "name": "B4",
                    "midi": 71,
                    "time": 101.60511074999914,
                    "velocity": 0.5511811023622047,
                    "duration": 0.0592104374999991
                },
                {
                    "name": "E5",
                    "midi": 76,
                    "time": 101.68405799999914,
                    "velocity": 0.7401574803149606,
                    "duration": 0.0789472499999988
                },
                {
                    "name": "A4",
                    "midi": 69,
                    "time": 101.68405799999914,
                    "velocity": 0.5748031496062992,
                    "duration": 0.0789472499999988
                },
                {
                    "name": "C#5",
                    "midi": 73,
                    "time": 101.68405799999914,
                    "velocity": 0.6062992125984252,
                    "duration": 0.0789472499999988
                },
                {
                    "name": "E4",
                    "midi": 64,
                    "time": 101.68405799999914,
                    "velocity": 0.5748031496062992,
                    "duration": 0.0789472499999988
                },
                {
                    "name": "E4",
                    "midi": 64,
                    "time": 101.92089974999914,
                    "velocity": 0.4330708661417323,
                    "duration": 0.0789472499999988
                },
                {
                    "name": "D5",
                    "midi": 74,
                    "time": 101.92089974999914,
                    "velocity": 0.4330708661417323,
                    "duration": 0.0789472499999988
                },
                {
                    "name": "A4",
                    "midi": 69,
                    "time": 101.92089974999914,
                    "velocity": 0.4330708661417323,
                    "duration": 0.0789472499999988
                },
                {
                    "name": "E5",
                    "midi": 76,
                    "time": 101.92089974999914,
                    "velocity": 0.5511811023622047,
                    "duration": 0.0789472499999988
                },
                {
                    "name": "E5",
                    "midi": 76,
                    "time": 102.07879424999913,
                    "velocity": 0.5118110236220472,
                    "duration": 0.0789472499999988
                },
                {
                    "name": "A4",
                    "midi": 69,
                    "time": 102.07879424999913,
                    "velocity": 0.4330708661417323,
                    "duration": 0.0789472499999988
                },
                {
                    "name": "E4",
                    "midi": 64,
                    "time": 102.07879424999913,
                    "velocity": 0.4330708661417323,
                    "duration": 0.0789472499999988
                },
                {
                    "name": "E4",
                    "midi": 64,
                    "time": 102.23668874999913,
                    "velocity": 0.41732283464566927,
                    "duration": 0.0592104374999991
                },
                {
                    "name": "E5",
                    "midi": 76,
                    "time": 102.23668874999913,
                    "velocity": 0.5275590551181102,
                    "duration": 0.0592104374999991
                },
                {
                    "name": "C#5",
                    "midi": 73,
                    "time": 102.23668874999913,
                    "velocity": 0.41732283464566927,
                    "duration": 0.0592104374999991
                },
                {
                    "name": "D5",
                    "midi": 74,
                    "time": 102.39458324999913,
                    "velocity": 0.49606299212598426,
                    "duration": 0.1578944999999976
                },
                {
                    "name": "D6",
                    "midi": 86,
                    "time": 102.39458324999913,
                    "velocity": 0.6141732283464567,
                    "duration": 0.1578944999999976
                },
                {
                    "name": "F5",
                    "midi": 77,
                    "time": 102.39458324999913,
                    "velocity": 0.49606299212598426,
                    "duration": 0.1578944999999976
                },
                {
                    "name": "E5",
                    "midi": 76,
                    "time": 102.55247774999913,
                    "velocity": 0.4645669291338583,
                    "duration": 0.1578944999999976
                },
                {
                    "name": "E6",
                    "midi": 88,
                    "time": 102.55247774999913,
                    "velocity": 0.5905511811023622,
                    "duration": 0.1578944999999976
                },
                {
                    "name": "G5",
                    "midi": 79,
                    "time": 102.55247774999913,
                    "velocity": 0.4645669291338583,
                    "duration": 0.1578944999999976
                },
                {
                    "name": "F5",
                    "midi": 77,
                    "time": 102.71037224999912,
                    "velocity": 0.48031496062992124,
                    "duration": 0.1578944999999976
                },
                {
                    "name": "F6",
                    "midi": 89,
                    "time": 102.71037224999912,
                    "velocity": 0.6141732283464567,
                    "duration": 0.1578944999999976
                },
                {
                    "name": "A5",
                    "midi": 81,
                    "time": 102.71037224999912,
                    "velocity": 0.48031496062992124,
                    "duration": 0.1578944999999976
                },
                {
                    "name": "D5",
                    "midi": 74,
                    "time": 102.86826674999912,
                    "velocity": 0.49606299212598426,
                    "duration": 0.0592104374999991
                },
                {
                    "name": "D6",
                    "midi": 86,
                    "time": 102.86826674999912,
                    "velocity": 0.6299212598425197,
                    "duration": 0.0592104374999991
                },
                {
                    "name": "F5",
                    "midi": 77,
                    "time": 102.86826674999912,
                    "velocity": 0.49606299212598426,
                    "duration": 0.0592104374999991
                },
                {
                    "name": "D4",
                    "midi": 62,
                    "time": 102.94721399999912,
                    "velocity": 0.5748031496062992,
                    "duration": 0.0789472499999988
                },
                {
                    "name": "D5",
                    "midi": 74,
                    "time": 102.94721399999912,
                    "velocity": 0.7322834645669292,
                    "duration": 0.0789472499999988
                },
                {
                    "name": "G4",
                    "midi": 67,
                    "time": 102.94721399999912,
                    "velocity": 0.5748031496062992,
                    "duration": 0.0789472499999988
                },
                {
                    "name": "B4",
                    "midi": 71,
                    "time": 102.94721399999912,
                    "velocity": 0.5748031496062992,
                    "duration": 0.0789472499999988
                },
                {
                    "name": "C5",
                    "midi": 72,
                    "time": 103.18405574999912,
                    "velocity": 0.4566929133858268,
                    "duration": 0.0789472499999988
                },
                {
                    "name": "G4",
                    "midi": 67,
                    "time": 103.18405574999912,
                    "velocity": 0.4566929133858268,
                    "duration": 0.0789472499999988
                },
                {
                    "name": "D5",
                    "midi": 74,
                    "time": 103.18405574999912,
                    "velocity": 0.5511811023622047,
                    "duration": 0.0789472499999988
                },
                {
                    "name": "D4",
                    "midi": 62,
                    "time": 103.18405574999912,
                    "velocity": 0.4566929133858268,
                    "duration": 0.0789472499999988
                },
                {
                    "name": "G4",
                    "midi": 67,
                    "time": 103.34195024999912,
                    "velocity": 0.4566929133858268,
                    "duration": 0.0789472499999988
                },
                {
                    "name": "D5",
                    "midi": 74,
                    "time": 103.34195024999912,
                    "velocity": 0.5511811023622047,
                    "duration": 0.0789472499999988
                },
                {
                    "name": "D4",
                    "midi": 62,
                    "time": 103.34195024999912,
                    "velocity": 0.4566929133858268,
                    "duration": 0.0789472499999988
                },
                {
                    "name": "D4",
                    "midi": 62,
                    "time": 103.49984474999911,
                    "velocity": 0.41732283464566927,
                    "duration": 0.0592104374999991
                },
                {
                    "name": "D5",
                    "midi": 74,
                    "time": 103.49984474999911,
                    "velocity": 0.5275590551181102,
                    "duration": 0.0592104374999991
                },
                {
                    "name": "B4",
                    "midi": 71,
                    "time": 103.49984474999911,
                    "velocity": 0.41732283464566927,
                    "duration": 0.0592104374999991
                },
                {
                    "name": "E5",
                    "midi": 76,
                    "time": 103.65773924999911,
                    "velocity": 0.49606299212598426,
                    "duration": 0.1578944999999976
                },
                {
                    "name": "E6",
                    "midi": 88,
                    "time": 103.65773924999911,
                    "velocity": 0.6220472440944882,
                    "duration": 0.1578944999999976
                },
                {
                    "name": "C6",
                    "midi": 84,
                    "time": 103.65773924999911,
                    "velocity": 0.49606299212598426,
                    "duration": 0.1578944999999976
                },
                {
                    "name": "F6",
                    "midi": 89,
                    "time": 103.81563374999911,
                    "velocity": 0.5984251968503937,
                    "duration": 0.1578944999999976
                },
                {
                    "name": "F5",
                    "midi": 77,
                    "time": 103.81563374999911,
                    "velocity": 0.47244094488188976,
                    "duration": 0.1578944999999976
                },
                {
                    "name": "C6",
                    "midi": 84,
                    "time": 103.81563374999911,
                    "velocity": 0.47244094488188976,
                    "duration": 0.1578944999999976
                },
                {
                    "name": "G6",
                    "midi": 91,
                    "time": 103.9735282499991,
                    "velocity": 0.6141732283464567,
                    "duration": 0.1578944999999976
                },
                {
                    "name": "C6",
                    "midi": 84,
                    "time": 103.9735282499991,
                    "velocity": 0.4881889763779528,
                    "duration": 0.1578944999999976
                },
                {
                    "name": "G5",
                    "midi": 79,
                    "time": 103.9735282499991,
                    "velocity": 0.4881889763779528,
                    "duration": 0.1578944999999976
                },
                {
                    "name": "E6",
                    "midi": 88,
                    "time": 104.1314227499991,
                    "velocity": 0.6299212598425197,
                    "duration": 0.0592104374999991
                },
                {
                    "name": "E5",
                    "midi": 76,
                    "time": 104.1314227499991,
                    "velocity": 0.5118110236220472,
                    "duration": 0.0592104374999991
                },
                {
                    "name": "C6",
                    "midi": 84,
                    "time": 104.1314227499991,
                    "velocity": 0.5118110236220472,
                    "duration": 0.0592104374999991
                },
                {
                    "name": "F6",
                    "midi": 89,
                    "time": 104.2103699999991,
                    "velocity": 0.7086614173228346,
                    "duration": 0.0789472499999988
                },
                {
                    "name": "G#5",
                    "midi": 80,
                    "time": 104.2103699999991,
                    "velocity": 0.5511811023622047,
                    "duration": 0.0789472499999988
                },
                {
                    "name": "B5",
                    "midi": 83,
                    "time": 104.2103699999991,
                    "velocity": 0.5905511811023622,
                    "duration": 0.0789472499999988
                },
                {
                    "name": "F5",
                    "midi": 77,
                    "time": 104.2103699999991,
                    "velocity": 0.5511811023622047,
                    "duration": 0.0789472499999988
                },
                {
                    "name": "B5",
                    "midi": 83,
                    "time": 104.4472117499991,
                    "velocity": 0.4566929133858268,
                    "duration": 0.1184208749999982
                },
                {
                    "name": "G#5",
                    "midi": 80,
                    "time": 104.4472117499991,
                    "velocity": 0.4566929133858268,
                    "duration": 0.1184208749999982
                },
                {
                    "name": "D6",
                    "midi": 86,
                    "time": 104.4472117499991,
                    "velocity": 0.5511811023622047,
                    "duration": 0.1184208749999982
                },
                {
                    "name": "D5",
                    "midi": 74,
                    "time": 104.4472117499991,
                    "velocity": 0.4566929133858268,
                    "duration": 0.1184208749999982
                },
                {
                    "name": "E5",
                    "midi": 76,
                    "time": 104.6051062499991,
                    "velocity": 0.4566929133858268,
                    "duration": 0.1184208749999982
                },
                {
                    "name": "B5",
                    "midi": 83,
                    "time": 104.6051062499991,
                    "velocity": 0.4566929133858268,
                    "duration": 0.1184208749999982
                },
                {
                    "name": "E6",
                    "midi": 88,
                    "time": 104.6051062499991,
                    "velocity": 0.5511811023622047,
                    "duration": 0.1184208749999982
                },
                {
                    "name": "G#5",
                    "midi": 80,
                    "time": 104.6051062499991,
                    "velocity": 0.4566929133858268,
                    "duration": 0.1184208749999982
                },
                {
                    "name": "F5",
                    "midi": 77,
                    "time": 104.7630007499991,
                    "velocity": 0.41732283464566927,
                    "duration": 0.0789472499999988
                },
                {
                    "name": "G#5",
                    "midi": 80,
                    "time": 104.7630007499991,
                    "velocity": 0.41732283464566927,
                    "duration": 0.0789472499999988
                },
                {
                    "name": "F6",
                    "midi": 89,
                    "time": 104.7630007499991,
                    "velocity": 0.5275590551181102,
                    "duration": 0.0789472499999988
                },
                {
                    "name": "B5",
                    "midi": 83,
                    "time": 104.7630007499991,
                    "velocity": 0.41732283464566927,
                    "duration": 0.0789472499999988
                },
                {
                    "name": "E5",
                    "midi": 76,
                    "time": 104.92089524999909,
                    "velocity": 0.47244094488188976,
                    "duration": 0.1184208749999982
                },
                {
                    "name": "E6",
                    "midi": 88,
                    "time": 104.92089524999909,
                    "velocity": 0.5905511811023622,
                    "duration": 0.1184208749999982
                },
                {
                    "name": "A5",
                    "midi": 81,
                    "time": 104.92089524999909,
                    "velocity": 0.47244094488188976,
                    "duration": 0.1184208749999982
                },
                {
                    "name": "G#5",
                    "midi": 80,
                    "time": 105.07878974999909,
                    "velocity": 0.4251968503937008,
                    "duration": 0.1184208749999982
                },
                {
                    "name": "D6",
                    "midi": 86,
                    "time": 105.07878974999909,
                    "velocity": 0.5275590551181102,
                    "duration": 0.1184208749999982
                },
                {
                    "name": "D5",
                    "midi": 74,
                    "time": 105.07878974999909,
                    "velocity": 0.4251968503937008,
                    "duration": 0.1184208749999982
                },
                {
                    "name": "F5",
                    "midi": 77,
                    "time": 105.07878974999909,
                    "velocity": 0.4251968503937008,
                    "duration": 0.1184208749999982
                },
                {
                    "name": "E5",
                    "midi": 76,
                    "time": 105.23668424999909,
                    "velocity": 0.4251968503937008,
                    "duration": 0.1184208749999982
                },
                {
                    "name": "C6",
                    "midi": 84,
                    "time": 105.23668424999909,
                    "velocity": 0.5275590551181102,
                    "duration": 0.1184208749999982
                },
                {
                    "name": "A5",
                    "midi": 81,
                    "time": 105.23668424999909,
                    "velocity": 0.4251968503937008,
                    "duration": 0.1184208749999982
                },
                {
                    "name": "C5",
                    "midi": 72,
                    "time": 105.23668424999909,
                    "velocity": 0.4251968503937008,
                    "duration": 0.1184208749999982
                },
                {
                    "name": "E5",
                    "midi": 76,
                    "time": 105.39457874999908,
                    "velocity": 0.4409448818897638,
                    "duration": 0.0789472499999988
                },
                {
                    "name": "C#6",
                    "midi": 85,
                    "time": 105.39457874999908,
                    "velocity": 0.5275590551181102,
                    "duration": 0.0789472499999988
                },
                {
                    "name": "C#5",
                    "midi": 73,
                    "time": 105.39457874999908,
                    "velocity": 0.4409448818897638,
                    "duration": 0.0789472499999988
                },
                {
                    "name": "A#5",
                    "midi": 82,
                    "time": 105.39457874999908,
                    "velocity": 0.4409448818897638,
                    "duration": 0.0789472499999988
                },
                {
                    "name": "A#5",
                    "midi": 82,
                    "time": 105.55247324999908,
                    "velocity": 0.5196850393700787,
                    "duration": 0.1184208749999982
                },
                {
                    "name": "D5",
                    "midi": 74,
                    "time": 105.55247324999908,
                    "velocity": 0.5196850393700787,
                    "duration": 0.1184208749999982
                },
                {
                    "name": "D6",
                    "midi": 86,
                    "time": 105.55247324999908,
                    "velocity": 0.6535433070866141,
                    "duration": 0.1184208749999982
                },
                {
                    "name": "F5",
                    "midi": 77,
                    "time": 105.55247324999908,
                    "velocity": 0.5196850393700787,
                    "duration": 0.1184208749999982
                },
                {
                    "name": "F6",
                    "midi": 89,
                    "time": 105.71036774999908,
                    "velocity": 0.4881889763779528,
                    "duration": 0.1184208749999982
                },
                {
                    "name": "A6",
                    "midi": 93,
                    "time": 105.71036774999908,
                    "velocity": 0.6141732283464567,
                    "duration": 0.1184208749999982
                },
                {
                    "name": "A5",
                    "midi": 81,
                    "time": 105.71036774999908,
                    "velocity": 0.4881889763779528,
                    "duration": 0.1184208749999982
                },
                {
                    "name": "C6",
                    "midi": 84,
                    "time": 105.71036774999908,
                    "velocity": 0.4881889763779528,
                    "duration": 0.1184208749999982
                },
                {
                    "name": "C6",
                    "midi": 84,
                    "time": 105.86826224999908,
                    "velocity": 0.5118110236220472,
                    "duration": 0.1184208749999982
                },
                {
                    "name": "A6",
                    "midi": 93,
                    "time": 105.86826224999908,
                    "velocity": 0.6535433070866141,
                    "duration": 0.1184208749999982
                },
                {
                    "name": "E6",
                    "midi": 88,
                    "time": 105.86826224999908,
                    "velocity": 0.5118110236220472,
                    "duration": 0.1184208749999982
                },
                {
                    "name": "A5",
                    "midi": 81,
                    "time": 105.86826224999908,
                    "velocity": 0.5118110236220472,
                    "duration": 0.1184208749999982
                },
                {
                    "name": "B5",
                    "midi": 83,
                    "time": 106.02615674999907,
                    "velocity": 0.5590551181102362,
                    "duration": 0.0789472499999988
                },
                {
                    "name": "G#6",
                    "midi": 92,
                    "time": 106.02615674999907,
                    "velocity": 0.6850393700787402,
                    "duration": 0.0789472499999988
                },
                {
                    "name": "G#5",
                    "midi": 80,
                    "time": 106.02615674999907,
                    "velocity": 0.5590551181102362,
                    "duration": 0.0789472499999988
                },
                {
                    "name": "E6",
                    "midi": 88,
                    "time": 106.02615674999907,
                    "velocity": 0.5590551181102362,
                    "duration": 0.0789472499999988
                },
                {
                    "name": "A5",
                    "midi": 81,
                    "time": 106.10510399999907,
                    "velocity": 0.5905511811023622,
                    "duration": 0.3157889999999952
                },
                {
                    "name": "C6",
                    "midi": 84,
                    "time": 106.10510399999907,
                    "velocity": 0.5984251968503937,
                    "duration": 0.3157889999999952
                },
                {
                    "name": "E6",
                    "midi": 88,
                    "time": 106.10510399999907,
                    "velocity": 0.6141732283464567,
                    "duration": 0.3157889999999952
                },
                {
                    "name": "A6",
                    "midi": 93,
                    "time": 106.10510399999907,
                    "velocity": 0.7244094488188977,
                    "duration": 0.3157889999999952
                },
                {
                    "name": "C5",
                    "midi": 72,
                    "time": 106.42089299999907,
                    "velocity": 0.5984251968503937,
                    "duration": 0.0789472499999988
                },
                {
                    "name": "E5",
                    "midi": 76,
                    "time": 106.42089299999907,
                    "velocity": 0.5984251968503937,
                    "duration": 0.0789472499999988
                },
                {
                    "name": "A5",
                    "midi": 81,
                    "time": 106.42089299999907,
                    "velocity": 0.6535433070866141,
                    "duration": 0.0789472499999988
                },
                {
                    "name": "E5",
                    "midi": 76,
                    "time": 106.69720837499906,
                    "velocity": 0.2992125984251969,
                    "duration": 0.197368124999997
                },
                {
                    "name": "C6",
                    "midi": 84,
                    "time": 106.73668199999906,
                    "velocity": 0.4409448818897638,
                    "duration": 0.0394736249999994
                },
                {
                    "name": "A5",
                    "midi": 81,
                    "time": 106.81562924999906,
                    "velocity": 0.31496062992125984,
                    "duration": 0.0394736249999994
                },
                {
                    "name": "E5",
                    "midi": 76,
                    "time": 106.89457649999906,
                    "velocity": 0.3228346456692913,
                    "duration": 0.0394736249999994
                },
                {
                    "name": "C5",
                    "midi": 72,
                    "time": 106.97352374999906,
                    "velocity": 0.28346456692913385,
                    "duration": 0.0394736249999994
                },
                {
                    "name": "A4",
                    "midi": 69,
                    "time": 107.05247099999906,
                    "velocity": 0.28346456692913385,
                    "duration": 0.0394736249999994
                },
                {
                    "name": "E5",
                    "midi": 76,
                    "time": 107.13141824999906,
                    "velocity": 0.2992125984251969,
                    "duration": 0.0394736249999994
                },
                {
                    "name": "C5",
                    "midi": 72,
                    "time": 107.21036549999906,
                    "velocity": 0.2992125984251969,
                    "duration": 0.0394736249999994
                },
                {
                    "name": "A4",
                    "midi": 69,
                    "time": 107.28931274999906,
                    "velocity": 0.2992125984251969,
                    "duration": 0.029605218750006657
                },
                {
                    "name": "E5",
                    "midi": 76,
                    "time": 107.32878637499907,
                    "velocity": 0.2992125984251969,
                    "duration": 0.197368124999997
                },
                {
                    "name": "B5",
                    "midi": 83,
                    "time": 107.36825999999907,
                    "velocity": 0.5039370078740157,
                    "duration": 0.0394736249999994
                },
                {
                    "name": "G#5",
                    "midi": 80,
                    "time": 107.44720724999907,
                    "velocity": 0.31496062992125984,
                    "duration": 0.0394736249999994
                },
                {
                    "name": "E5",
                    "midi": 76,
                    "time": 107.52615449999907,
                    "velocity": 0.3228346456692913,
                    "duration": 0.0394736249999994
                },
                {
                    "name": "D6",
                    "midi": 86,
                    "time": 107.60510174999906,
                    "velocity": 0.3228346456692913,
                    "duration": 0.0394736249999994
                },
                {
                    "name": "B5",
                    "midi": 83,
                    "time": 107.68404899999906,
                    "velocity": 0.3543307086614173,
                    "duration": 0.0394736249999994
                },
                {
                    "name": "E5",
                    "midi": 76,
                    "time": 107.76299624999906,
                    "velocity": 0.3228346456692913,
                    "duration": 0.0394736249999994
                },
                {
                    "name": "G#5",
                    "midi": 80,
                    "time": 107.84194349999906,
                    "velocity": 0.2992125984251969,
                    "duration": 0.0394736249999994
                },
                {
                    "name": "E5",
                    "midi": 76,
                    "time": 107.92089074999906,
                    "velocity": 0.2992125984251969,
                    "duration": 0.030921006249997163
                },
                {
                    "name": "E5",
                    "midi": 76,
                    "time": 107.96036437499906,
                    "velocity": 0.2992125984251969,
                    "duration": 0.197368124999997
                },
                {
                    "name": "C6",
                    "midi": 84,
                    "time": 107.99983799999906,
                    "velocity": 0.48031496062992124,
                    "duration": 0.0394736249999994
                },
                {
                    "name": "A5",
                    "midi": 81,
                    "time": 108.07878524999906,
                    "velocity": 0.31496062992125984,
                    "duration": 0.0394736249999994
                },
                {
                    "name": "E5",
                    "midi": 76,
                    "time": 108.15773249999906,
                    "velocity": 0.3228346456692913,
                    "duration": 0.0394736249999994
                },
                {
                    "name": "C5",
                    "midi": 72,
                    "time": 108.23667974999906,
                    "velocity": 0.3228346456692913,
                    "duration": 0.0394736249999994
                },
                {
                    "name": "A4",
                    "midi": 69,
                    "time": 108.31562699999905,
                    "velocity": 0.30708661417322836,
                    "duration": 0.0394736249999994
                },
                {
                    "name": "E5",
                    "midi": 76,
                    "time": 108.39457424999905,
                    "velocity": 0.3543307086614173,
                    "duration": 0.0394736249999994
                },
                {
                    "name": "C5",
                    "midi": 72,
                    "time": 108.47352149999905,
                    "velocity": 0.31496062992125984,
                    "duration": 0.0394736249999994
                },
                {
                    "name": "A4",
                    "midi": 69,
                    "time": 108.55246874999905,
                    "velocity": 0.2992125984251969,
                    "duration": 0.028947325000004298
                },
                {
                    "name": "E5",
                    "midi": 76,
                    "time": 108.59194237499905,
                    "velocity": 0.2992125984251969,
                    "duration": 0.197368124999997
                },
                {
                    "name": "B5",
                    "midi": 83,
                    "time": 108.63141599999905,
                    "velocity": 0.4645669291338583,
                    "duration": 0.0394736249999994
                },
                {
                    "name": "G#5",
                    "midi": 80,
                    "time": 108.71036324999905,
                    "velocity": 0.31496062992125984,
                    "duration": 0.0394736249999994
                },
                {
                    "name": "E5",
                    "midi": 76,
                    "time": 108.78931049999905,
                    "velocity": 0.29133858267716534,
                    "duration": 0.0394736249999994
                },
                {
                    "name": "E5",
                    "midi": 76,
                    "time": 108.86825774999905,
                    "velocity": 0.2440944881889764,
                    "duration": 0.0394736249999994
                },
                {
                    "name": "B4",
                    "midi": 71,
                    "time": 108.94720499999904,
                    "velocity": 0.2992125984251969,
                    "duration": 0.0394736249999994
                },
                {
                    "name": "G#4",
                    "midi": 68,
                    "time": 109.02615224999904,
                    "velocity": 0.2677165354330709,
                    "duration": 0.0394736249999994
                },
                {
                    "name": "C6",
                    "midi": 84,
                    "time": 109.22352037499904,
                    "velocity": 0.2992125984251969,
                    "duration": 0.197368124999997
                },
                {
                    "name": "E6",
                    "midi": 88,
                    "time": 109.24325718749904,
                    "velocity": 0.2992125984251969,
                    "duration": 0.17499973750000208
                },
                {
                    "name": "C7",
                    "midi": 96,
                    "time": 109.26299399999904,
                    "velocity": 0.4645669291338583,
                    "duration": 0.0394736249999994
                },
                {
                    "name": "A6",
                    "midi": 93,
                    "time": 109.34194124999904,
                    "velocity": 0.31496062992125984,
                    "duration": 0.0394736249999994
                },
                {
                    "name": "E6",
                    "midi": 88,
                    "time": 109.42088849999904,
                    "velocity": 0.3228346456692913,
                    "duration": 0.0394736249999994
                },
                {
                    "name": "C6",
                    "midi": 84,
                    "time": 109.49983574999904,
                    "velocity": 0.28346456692913385,
                    "duration": 0.0394736249999994
                },
                {
                    "name": "A5",
                    "midi": 81,
                    "time": 109.57878299999904,
                    "velocity": 0.28346456692913385,
                    "duration": 0.0394736249999994
                },
                {
                    "name": "E6",
                    "midi": 88,
                    "time": 109.65773024999903,
                    "velocity": 0.2992125984251969,
                    "duration": 0.0394736249999994
                },
                {
                    "name": "C6",
                    "midi": 84,
                    "time": 109.73667749999903,
                    "velocity": 0.2992125984251969,
                    "duration": 0.0394736249999994
                },
                {
                    "name": "A5",
                    "midi": 81,
                    "time": 109.81562474999903,
                    "velocity": 0.2992125984251969,
                    "duration": 0.0335525812500066
                },
                {
                    "name": "B5",
                    "midi": 83,
                    "time": 109.85509837499905,
                    "velocity": 0.2992125984251969,
                    "duration": 0.197368124999997
                },
                {
                    "name": "E6",
                    "midi": 88,
                    "time": 109.87483518749904,
                    "velocity": 0.2992125984251969,
                    "duration": 0.17368394999999737
                },
                {
                    "name": "B6",
                    "midi": 95,
                    "time": 109.89457199999904,
                    "velocity": 0.4645669291338583,
                    "duration": 0.0394736249999994
                },
                {
                    "name": "G#6",
                    "midi": 92,
                    "time": 109.97351924999904,
                    "velocity": 0.31496062992125984,
                    "duration": 0.0394736249999994
                },
                {
                    "name": "E6",
                    "midi": 88,
                    "time": 110.05246649999904,
                    "velocity": 0.3228346456692913,
                    "duration": 0.0394736249999994
                },
                {
                    "name": "D7",
                    "midi": 98,
                    "time": 110.13141374999904,
                    "velocity": 0.3228346456692913,
                    "duration": 0.0394736249999994
                },
                {
                    "name": "B6",
                    "midi": 95,
                    "time": 110.21036099999904,
                    "velocity": 0.3543307086614173,
                    "duration": 0.0394736249999994
                },
                {
                    "name": "E6",
                    "midi": 88,
                    "time": 110.28930824999904,
                    "velocity": 0.3228346456692913,
                    "duration": 0.0394736249999994
                },
                {
                    "name": "G#6",
                    "midi": 92,
                    "time": 110.36825549999904,
                    "velocity": 0.2992125984251969,
                    "duration": 0.0394736249999994
                },
                {
                    "name": "E6",
                    "midi": 88,
                    "time": 110.44720274999904,
                    "velocity": 0.2992125984251969,
                    "duration": 0.034210474999994744
                },
                {
                    "name": "C6",
                    "midi": 84,
                    "time": 110.48667637499904,
                    "velocity": 0.2992125984251969,
                    "duration": 0.197368124999997
                },
                {
                    "name": "E6",
                    "midi": 88,
                    "time": 110.50641318749904,
                    "velocity": 0.2992125984251969,
                    "duration": 0.17499973750000208
                },
                {
                    "name": "C7",
                    "midi": 96,
                    "time": 110.52614999999903,
                    "velocity": 0.4881889763779528,
                    "duration": 0.0394736249999994
                },
                {
                    "name": "A6",
                    "midi": 93,
                    "time": 110.60509724999903,
                    "velocity": 0.31496062992125984,
                    "duration": 0.0394736249999994
                },
                {
                    "name": "E6",
                    "midi": 88,
                    "time": 110.68404449999903,
                    "velocity": 0.3228346456692913,
                    "duration": 0.0394736249999994
                },
                {
                    "name": "C6",
                    "midi": 84,
                    "time": 110.76299174999903,
                    "velocity": 0.3228346456692913,
                    "duration": 0.0394736249999994
                },
                {
                    "name": "A5",
                    "midi": 81,
                    "time": 110.84193899999903,
                    "velocity": 0.30708661417322836,
                    "duration": 0.0394736249999994
                },
                {
                    "name": "E6",
                    "midi": 88,
                    "time": 110.92088624999903,
                    "velocity": 0.3543307086614173,
                    "duration": 0.0394736249999994
                },
                {
                    "name": "C6",
                    "midi": 84,
                    "time": 110.99983349999903,
                    "velocity": 0.31496062992125984,
                    "duration": 0.0394736249999994
                },
                {
                    "name": "A5",
                    "midi": 81,
                    "time": 111.07878074999903,
                    "velocity": 0.2992125984251969,
                    "duration": 0.03157889999999952
                },
                {
                    "name": "B5",
                    "midi": 83,
                    "time": 111.11825437499903,
                    "velocity": 0.2992125984251969,
                    "duration": 0.197368124999997
                },
                {
                    "name": "E6",
                    "midi": 88,
                    "time": 111.13799118749903,
                    "velocity": 0.2992125984251969,
                    "duration": 0.17434184374999973
                },
                {
                    "name": "B6",
                    "midi": 95,
                    "time": 111.15772799999903,
                    "velocity": 0.4881889763779528,
                    "duration": 0.0394736249999994
                },
                {
                    "name": "G#6",
                    "midi": 92,
                    "time": 111.23667524999902,
                    "velocity": 0.31496062992125984,
                    "duration": 0.0394736249999994
                },
                {
                    "name": "E6",
                    "midi": 88,
                    "time": 111.31562249999902,
                    "velocity": 0.29133858267716534,
                    "duration": 0.0394736249999994
                },
                {
                    "name": "B5",
                    "midi": 83,
                    "time": 111.39456974999902,
                    "velocity": 0.2440944881889764,
                    "duration": 0.0394736249999994
                },
                {
                    "name": "G#5",
                    "midi": 80,
                    "time": 111.47351699999902,
                    "velocity": 0.29133858267716534,
                    "duration": 0.0394736249999994
                },
                {
                    "name": "B4",
                    "midi": 71,
                    "time": 111.55246424999902,
                    "velocity": 0.2440944881889764,
                    "duration": 0.0394736249999994
                },
                {
                    "name": "E5",
                    "midi": 76,
                    "time": 111.63141149999902,
                    "velocity": 0.29133858267716534,
                    "duration": 0.11184193750000304
                },
                {
                    "name": "E5",
                    "midi": 76,
                    "time": 111.74983237499902,
                    "velocity": 0.3858267716535433,
                    "duration": 0.197368124999997
                },
                {
                    "name": "E6",
                    "midi": 88,
                    "time": 111.78930599999902,
                    "velocity": 0.5511811023622047,
                    "duration": 0.0789472499999988
                },
                {
                    "name": "C#6",
                    "midi": 85,
                    "time": 111.86825324999901,
                    "velocity": 0.4094488188976378,
                    "duration": 0.0789472499999988
                },
                {
                    "name": "A5",
                    "midi": 81,
                    "time": 111.94720049999901,
                    "velocity": 0.41732283464566927,
                    "duration": 0.0789472499999988
                },
                {
                    "name": "E5",
                    "midi": 76,
                    "time": 112.02614774999901,
                    "velocity": 0.36220472440944884,
                    "duration": 0.0789472499999988
                },
                {
                    "name": "A4",
                    "midi": 69,
                    "time": 112.18404224999901,
                    "velocity": 0.4015748031496063,
                    "duration": 0.0789472499999988
                },
                {
                    "name": "G4",
                    "midi": 67,
                    "time": 112.26298949999901,
                    "velocity": 0.4251968503937008,
                    "duration": 0.0789472499999988
                },
                {
                    "name": "E4",
                    "midi": 64,
                    "time": 112.34193674999901,
                    "velocity": 0.4409448818897638,
                    "duration": 0.0789472499999988
                },
                {
                    "name": "F4",
                    "midi": 65,
                    "time": 112.420883999999,
                    "velocity": 0.49606299212598426,
                    "duration": 0.0394736249999994
                },
                {
                    "name": "D4",
                    "midi": 62,
                    "time": 112.499831249999,
                    "velocity": 0.44881889763779526,
                    "duration": 0.0394736249999994
                },
                {
                    "name": "D6",
                    "midi": 86,
                    "time": 112.578778499999,
                    "velocity": 0.48031496062992124,
                    "duration": 0.0394736249999994
                },
                {
                    "name": "A5",
                    "midi": 81,
                    "time": 112.657725749999,
                    "velocity": 0.44881889763779526,
                    "duration": 0.0394736249999994
                },
                {
                    "name": "F4",
                    "midi": 65,
                    "time": 112.894567499999,
                    "velocity": 0.41732283464566927,
                    "duration": 0.0394736249999994
                },
                {
                    "name": "D4",
                    "midi": 62,
                    "time": 112.973514749999,
                    "velocity": 0.41732283464566927,
                    "duration": 0.03552626249999946
                },
                {
                    "name": "G5",
                    "midi": 79,
                    "time": 113.012988374999,
                    "velocity": 0.36220472440944884,
                    "duration": 0.197368124999997
                },
                {
                    "name": "D6",
                    "midi": 86,
                    "time": 113.052461999999,
                    "velocity": 0.5511811023622047,
                    "duration": 0.0789472499999988
                },
                {
                    "name": "B5",
                    "midi": 83,
                    "time": 113.131409249999,
                    "velocity": 0.3858267716535433,
                    "duration": 0.0789472499999988
                },
                {
                    "name": "G5",
                    "midi": 79,
                    "time": 113.210356499999,
                    "velocity": 0.3937007874015748,
                    "duration": 0.0789472499999988
                },
                {
                    "name": "F5",
                    "midi": 77,
                    "time": 113.289303749999,
                    "velocity": 0.3464566929133858,
                    "duration": 0.0789472499999988
                },
                {
                    "name": "B4",
                    "midi": 71,
                    "time": 113.44719824999899,
                    "velocity": 0.3779527559055118,
                    "duration": 0.0789472499999988
                },
                {
                    "name": "F4",
                    "midi": 65,
                    "time": 113.52614549999899,
                    "velocity": 0.4015748031496063,
                    "duration": 0.0789472499999988
                },
                {
                    "name": "D4",
                    "midi": 62,
                    "time": 113.60509274999899,
                    "velocity": 0.41732283464566927,
                    "duration": 0.0789472499999988
                },
                {
                    "name": "E4",
                    "midi": 64,
                    "time": 113.68403999999899,
                    "velocity": 0.47244094488188976,
                    "duration": 0.0394736249999994
                },
                {
                    "name": "C4",
                    "midi": 60,
                    "time": 113.76298724999899,
                    "velocity": 0.4251968503937008,
                    "duration": 0.0394736249999994
                },
                {
                    "name": "C6",
                    "midi": 84,
                    "time": 113.84193449999898,
                    "velocity": 0.44881889763779526,
                    "duration": 0.0394736249999994
                },
                {
                    "name": "G5",
                    "midi": 79,
                    "time": 113.92088174999898,
                    "velocity": 0.4251968503937008,
                    "duration": 0.0394736249999994
                },
                {
                    "name": "E4",
                    "midi": 64,
                    "time": 114.15772349999898,
                    "velocity": 0.3937007874015748,
                    "duration": 0.0394736249999994
                },
                {
                    "name": "C4",
                    "midi": 60,
                    "time": 114.23667074999898,
                    "velocity": 0.3543307086614173,
                    "duration": 0.0394736249999994
                },
                {
                    "name": "B5",
                    "midi": 83,
                    "time": 114.31561799999898,
                    "velocity": 0.4251968503937008,
                    "duration": 0.0394736249999994
                },
                {
                    "name": "A5",
                    "midi": 81,
                    "time": 114.39456524999898,
                    "velocity": 0.41732283464566927,
                    "duration": 0.0394736249999994
                },
                {
                    "name": "F6",
                    "midi": 89,
                    "time": 114.39456524999898,
                    "velocity": 0.31496062992125984,
                    "duration": 0.0394736249999994
                },
                {
                    "name": "G#5",
                    "midi": 80,
                    "time": 114.47351249999898,
                    "velocity": 0.41732283464566927,
                    "duration": 0.0394736249999994
                },
                {
                    "name": "F5",
                    "midi": 77,
                    "time": 114.55245974999897,
                    "velocity": 0.4094488188976378,
                    "duration": 0.0394736249999994
                },
                {
                    "name": "D6",
                    "midi": 86,
                    "time": 114.55245974999897,
                    "velocity": 0.31496062992125984,
                    "duration": 0.0394736249999994
                },
                {
                    "name": "E5",
                    "midi": 76,
                    "time": 114.63140699999897,
                    "velocity": 0.41732283464566927,
                    "duration": 0.0394736249999994
                },
                {
                    "name": "D5",
                    "midi": 74,
                    "time": 114.71035424999897,
                    "velocity": 0.4015748031496063,
                    "duration": 0.0394736249999994
                },
                {
                    "name": "B5",
                    "midi": 83,
                    "time": 114.71035424999897,
                    "velocity": 0.2992125984251969,
                    "duration": 0.0394736249999994
                },
                {
                    "name": "C5",
                    "midi": 72,
                    "time": 114.78930149999897,
                    "velocity": 0.4094488188976378,
                    "duration": 0.0394736249999994
                },
                {
                    "name": "B4",
                    "midi": 71,
                    "time": 114.86824874999897,
                    "velocity": 0.4015748031496063,
                    "duration": 0.0394736249999994
                },
                {
                    "name": "G#5",
                    "midi": 80,
                    "time": 114.86824874999897,
                    "velocity": 0.29133858267716534,
                    "duration": 0.0394736249999994
                },
                {
                    "name": "A4",
                    "midi": 69,
                    "time": 114.94719599999897,
                    "velocity": 0.4015748031496063,
                    "duration": 0.0394736249999994
                },
                {
                    "name": "G4",
                    "midi": 67,
                    "time": 115.02614324999897,
                    "velocity": 0.3937007874015748,
                    "duration": 0.0394736249999994
                },
                {
                    "name": "E5",
                    "midi": 76,
                    "time": 115.02614324999897,
                    "velocity": 0.31496062992125984,
                    "duration": 0.0394736249999994
                },
                {
                    "name": "E4",
                    "midi": 64,
                    "time": 115.18403774999896,
                    "velocity": 0.3543307086614173,
                    "duration": 0.0394736249999994
                },
                {
                    "name": "C5",
                    "midi": 72,
                    "time": 115.18403774999896,
                    "velocity": 0.30708661417322836,
                    "duration": 0.0394736249999994
                },
                {
                    "name": "C4",
                    "midi": 60,
                    "time": 115.34193224999896,
                    "velocity": 0.3543307086614173,
                    "duration": 0.0394736249999994
                },
                {
                    "name": "A4",
                    "midi": 69,
                    "time": 115.34193224999896,
                    "velocity": 0.2992125984251969,
                    "duration": 0.0394736249999994
                },
                {
                    "name": "A3",
                    "midi": 57,
                    "time": 115.49982674999896,
                    "velocity": 0.3464566929133858,
                    "duration": 0.0394736249999994
                },
                {
                    "name": "E4",
                    "midi": 64,
                    "time": 115.49982674999896,
                    "velocity": 0.28346456692913385,
                    "duration": 0.0394736249999994
                },
                {
                    "name": "A5",
                    "midi": 81,
                    "time": 115.73666849999896,
                    "velocity": 0.3937007874015748,
                    "duration": 0.0394736249999994
                },
                {
                    "name": "B4",
                    "midi": 71,
                    "time": 115.73666849999896,
                    "velocity": 0.33070866141732286,
                    "duration": 0.0394736249999994
                },
                {
                    "name": "F5",
                    "midi": 77,
                    "time": 115.81561574999895,
                    "velocity": 0.3543307086614173,
                    "duration": 0.0394736249999994
                },
                {
                    "name": "D5",
                    "midi": 74,
                    "time": 115.81561574999895,
                    "velocity": 0.29133858267716534,
                    "duration": 0.0394736249999994
                },
                {
                    "name": "B5",
                    "midi": 83,
                    "time": 116.05245749999895,
                    "velocity": 0.3937007874015748,
                    "duration": 0.0394736249999994
                },
                {
                    "name": "B4",
                    "midi": 71,
                    "time": 116.05245749999895,
                    "velocity": 0.33070866141732286,
                    "duration": 0.0394736249999994
                },
                {
                    "name": "G#5",
                    "midi": 80,
                    "time": 116.13140474999895,
                    "velocity": 0.3464566929133858,
                    "duration": 0.0394736249999994
                },
                {
                    "name": "D5",
                    "midi": 74,
                    "time": 116.13140474999895,
                    "velocity": 0.28346456692913385,
                    "duration": 0.0394736249999994
                },
                {
                    "name": "A5",
                    "midi": 81,
                    "time": 116.21035199999895,
                    "velocity": 0.3543307086614173,
                    "duration": 0.0394736249999994
                },
                {
                    "name": "C5",
                    "midi": 72,
                    "time": 116.21035199999895,
                    "velocity": 0.29133858267716534,
                    "duration": 0.0394736249999994
                },
                {
                    "name": "C4",
                    "midi": 60,
                    "time": 116.36824649999895,
                    "velocity": 0.33070866141732286,
                    "duration": 0.0394736249999994
                },
                {
                    "name": "A3",
                    "midi": 57,
                    "time": 116.44719374999895,
                    "velocity": 0.29133858267716534,
                    "duration": 0.0394736249999994
                },
                {
                    "name": "A6",
                    "midi": 93,
                    "time": 116.84192999999894,
                    "velocity": 0.4330708661417323,
                    "duration": 0.9473669999999998
                },
                {
                    "name": "A5",
                    "midi": 81,
                    "time": 116.84192999999894,
                    "velocity": 0.2992125984251969,
                    "duration": 1.263155999999995
                },
                {
                    "name": "C6",
                    "midi": 84,
                    "time": 116.84192999999894,
                    "velocity": 0.2992125984251969,
                    "duration": 1.263155999999995
                },
                {
                    "name": "E6",
                    "midi": 88,
                    "time": 117.78929699999894,
                    "velocity": 0.4094488188976378,
                    "duration": 0.1578944999999976
                },
                {
                    "name": "C7",
                    "midi": 96,
                    "time": 117.94719149999894,
                    "velocity": 0.4251968503937008,
                    "duration": 0.1578944999999976
                },
                {
                    "name": "B6",
                    "midi": 95,
                    "time": 118.10508599999893,
                    "velocity": 0.4251968503937008,
                    "duration": 0.1578944999999976
                },
                {
                    "name": "B5",
                    "midi": 83,
                    "time": 118.10508599999893,
                    "velocity": 0.29133858267716534,
                    "duration": 1.2631559999999808
                },
                {
                    "name": "E6",
                    "midi": 88,
                    "time": 118.10508599999893,
                    "velocity": 0.29133858267716534,
                    "duration": 0.789472499999988
                },
                {
                    "name": "A6",
                    "midi": 93,
                    "time": 118.26298049999893,
                    "velocity": 0.4094488188976378,
                    "duration": 0.1578944999999976
                },
                {
                    "name": "G#6",
                    "midi": 92,
                    "time": 118.42087499999893,
                    "velocity": 0.4015748031496063,
                    "duration": 0.1578944999999976
                },
                {
                    "name": "F#6",
                    "midi": 90,
                    "time": 118.57876949999893,
                    "velocity": 0.3858267716535433,
                    "duration": 0.1578944999999976
                },
                {
                    "name": "E6",
                    "midi": 88,
                    "time": 118.73666399999892,
                    "velocity": 0.4015748031496063,
                    "duration": 0.6315779999999904
                },
                {
                    "name": "F#6",
                    "midi": 90,
                    "time": 118.89455849999892,
                    "velocity": 0.3858267716535433,
                    "duration": 0.1578944999999976
                },
                {
                    "name": "G#6",
                    "midi": 92,
                    "time": 119.05245299999892,
                    "velocity": 0.4094488188976378,
                    "duration": 0.1578944999999976
                },
                {
                    "name": "E6",
                    "midi": 88,
                    "time": 119.21034749999892,
                    "velocity": 0.4251968503937008,
                    "duration": 0.1578944999999976
                },
                {
                    "name": "A6",
                    "midi": 93,
                    "time": 119.36824199999892,
                    "velocity": 0.44881889763779526,
                    "duration": 0.6052622499999956
                },
                {
                    "name": "C6",
                    "midi": 84,
                    "time": 119.36824199999892,
                    "velocity": 0.30708661417322836,
                    "duration": 1.2631559999999808
                },
                {
                    "name": "E6",
                    "midi": 88,
                    "time": 119.36824199999892,
                    "velocity": 0.30708661417322836,
                    "duration": 1.2631559999999808
                },
                {
                    "name": "B6",
                    "midi": 95,
                    "time": 119.92087274999892,
                    "velocity": 0.3700787401574803,
                    "duration": 0.026315749999994864
                },
                {
                    "name": "A6",
                    "midi": 93,
                    "time": 119.94718849999892,
                    "velocity": 0.33070866141732286,
                    "duration": 0.05263149999998973
                },
                {
                    "name": "G#6",
                    "midi": 92,
                    "time": 119.97350424999891,
                    "velocity": 0.33070866141732286,
                    "duration": 0.026315749999994864
                },
                {
                    "name": "A6",
                    "midi": 93,
                    "time": 119.9998199999989,
                    "velocity": 0.4566929133858268,
                    "duration": 0.1578944999999976
                },
                {
                    "name": "B6",
                    "midi": 95,
                    "time": 120.1577144999989,
                    "velocity": 0.4251968503937008,
                    "duration": 0.1578944999999976
                },
                {
                    "name": "C7",
                    "midi": 96,
                    "time": 120.3156089999989,
                    "velocity": 0.4330708661417323,
                    "duration": 0.1578944999999976
                },
                {
                    "name": "D7",
                    "midi": 98,
                    "time": 120.4735034999989,
                    "velocity": 0.4566929133858268,
                    "duration": 0.1578944999999976
                },
                {
                    "name": "D6",
                    "midi": 86,
                    "time": 120.6313979999989,
                    "velocity": 0.3228346456692913,
                    "duration": 1.2631560000000093
                },
                {
                    "name": "D#7",
                    "midi": 99,
                    "time": 120.6313979999989,
                    "velocity": 0.4881889763779528,
                    "duration": 0.47368350000000703
                },
                {
                    "name": "G#6",
                    "midi": 92,
                    "time": 120.6313979999989,
                    "velocity": 0.3228346456692913,
                    "duration": 1.2631560000000093
                },
                {
                    "name": "E7",
                    "midi": 100,
                    "time": 121.1050814999989,
                    "velocity": 0.4251968503937008,
                    "duration": 0.1578944999999976
                },
                {
                    "name": "E6",
                    "midi": 88,
                    "time": 121.2629759999989,
                    "velocity": 0.4330708661417323,
                    "duration": 0.6315780000000046
                },
                {
                    "name": "C6",
                    "midi": 84,
                    "time": 121.8945539999989,
                    "velocity": 0.2992125984251969,
                    "duration": 1.263155999999995
                },
                {
                    "name": "A6",
                    "midi": 93,
                    "time": 121.8945539999989,
                    "velocity": 0.4330708661417323,
                    "duration": 0.9473669999999998
                },
                {
                    "name": "A5",
                    "midi": 81,
                    "time": 121.8945539999989,
                    "velocity": 0.2992125984251969,
                    "duration": 1.263155999999995
                },
                {
                    "name": "E6",
                    "midi": 88,
                    "time": 122.8419209999989,
                    "velocity": 0.4409448818897638,
                    "duration": 0.1578944999999976
                },
                {
                    "name": "C7",
                    "midi": 96,
                    "time": 122.9998154999989,
                    "velocity": 0.4330708661417323,
                    "duration": 0.1578944999999976
                },
                {
                    "name": "B6",
                    "midi": 95,
                    "time": 123.1577099999989,
                    "velocity": 0.4251968503937008,
                    "duration": 0.1578944999999976
                },
                {
                    "name": "B5",
                    "midi": 83,
                    "time": 123.1577099999989,
                    "velocity": 0.29133858267716534,
                    "duration": 1.2631559999999808
                },
                {
                    "name": "E6",
                    "midi": 88,
                    "time": 123.1577099999989,
                    "velocity": 0.29133858267716534,
                    "duration": 0.789472499999988
                },
                {
                    "name": "A6",
                    "midi": 93,
                    "time": 123.3156044999989,
                    "velocity": 0.4015748031496063,
                    "duration": 0.1578944999999976
                },
                {
                    "name": "G#6",
                    "midi": 92,
                    "time": 123.4734989999989,
                    "velocity": 0.4015748031496063,
                    "duration": 0.1578944999999976
                },
                {
                    "name": "F#6",
                    "midi": 90,
                    "time": 123.6313934999989,
                    "velocity": 0.4015748031496063,
                    "duration": 0.1578944999999976
                },
                {
                    "name": "E6",
                    "midi": 88,
                    "time": 123.78928799999889,
                    "velocity": 0.4094488188976378,
                    "duration": 0.6315779999999904
                },
                {
                    "name": "F#6",
                    "midi": 90,
                    "time": 123.94718249999889,
                    "velocity": 0.4015748031496063,
                    "duration": 0.1578944999999976
                },
                {
                    "name": "G#6",
                    "midi": 92,
                    "time": 124.10507699999889,
                    "velocity": 0.4094488188976378,
                    "duration": 0.1578944999999976
                },
                {
                    "name": "E6",
                    "midi": 88,
                    "time": 124.26297149999888,
                    "velocity": 0.4251968503937008,
                    "duration": 0.1578944999999976
                },
                {
                    "name": "C6",
                    "midi": 84,
                    "time": 124.42086599999888,
                    "velocity": 0.30708661417322836,
                    "duration": 1.2631559999999808
                },
                {
                    "name": "E6",
                    "midi": 88,
                    "time": 124.42086599999888,
                    "velocity": 0.30708661417322836,
                    "duration": 1.2631559999999808
                },
                {
                    "name": "A6",
                    "midi": 93,
                    "time": 124.42086599999888,
                    "velocity": 0.44881889763779526,
                    "duration": 0.6052622499999956
                },
                {
                    "name": "B6",
                    "midi": 95,
                    "time": 124.97349674999889,
                    "velocity": 0.3700787401574803,
                    "duration": 0.026315749999994864
                },
                {
                    "name": "A6",
                    "midi": 93,
                    "time": 124.99981249999888,
                    "velocity": 0.33070866141732286,
                    "duration": 0.05263149999998973
                },
                {
                    "name": "G#6",
                    "midi": 92,
                    "time": 125.02612824999888,
                    "velocity": 0.33070866141732286,
                    "duration": 0.026315749999994864
                },
                {
                    "name": "A6",
                    "midi": 93,
                    "time": 125.05244399999887,
                    "velocity": 0.4566929133858268,
                    "duration": 0.1578944999999976
                },
                {
                    "name": "B6",
                    "midi": 95,
                    "time": 125.21033849999887,
                    "velocity": 0.4251968503937008,
                    "duration": 0.1578944999999976
                },
                {
                    "name": "C7",
                    "midi": 96,
                    "time": 125.36823299999887,
                    "velocity": 0.4330708661417323,
                    "duration": 0.1578944999999976
                },
                {
                    "name": "D7",
                    "midi": 98,
                    "time": 125.52612749999886,
                    "velocity": 0.44881889763779526,
                    "duration": 0.1578944999999976
                },
                {
                    "name": "D6",
                    "midi": 86,
                    "time": 125.68402199999886,
                    "velocity": 0.3228346456692913,
                    "duration": 1.2631560000000093
                },
                {
                    "name": "D#7",
                    "midi": 99,
                    "time": 125.68402199999886,
                    "velocity": 0.4645669291338583,
                    "duration": 0.47368350000000703
                },
                {
                    "name": "G#6",
                    "midi": 92,
                    "time": 125.68402199999886,
                    "velocity": 0.3228346456692913,
                    "duration": 1.2631560000000093
                },
                {
                    "name": "E7",
                    "midi": 100,
                    "time": 126.15770549999887,
                    "velocity": 0.4251968503937008,
                    "duration": 0.1578944999999976
                },
                {
                    "name": "E6",
                    "midi": 88,
                    "time": 126.31559999999887,
                    "velocity": 0.4330708661417323,
                    "duration": 0.6315780000000046
                },
                {
                    "name": "A6",
                    "midi": 93,
                    "time": 126.94717799999887,
                    "velocity": 0.4330708661417323,
                    "duration": 0.7894725000000022
                },
                {
                    "name": "G5",
                    "midi": 79,
                    "time": 126.94717799999887,
                    "velocity": 0.2992125984251969,
                    "duration": 1.2631560000000093
                },
                {
                    "name": "C#6",
                    "midi": 85,
                    "time": 126.94717799999887,
                    "velocity": 0.2992125984251969,
                    "duration": 1.2631560000000093
                },
                {
                    "name": "E7",
                    "midi": 100,
                    "time": 127.73665049999887,
                    "velocity": 0.3858267716535433,
                    "duration": 0.1578944999999976
                },
                {
                    "name": "C#7",
                    "midi": 97,
                    "time": 127.89454499999887,
                    "velocity": 0.3858267716535433,
                    "duration": 0.15789450000001182
                },
                {
                    "name": "A6",
                    "midi": 93,
                    "time": 128.05243949999888,
                    "velocity": 0.41732283464566927,
                    "duration": 0.1578944999999976
                },
                {
                    "name": "G6",
                    "midi": 91,
                    "time": 128.21033399999888,
                    "velocity": 0.4251968503937008,
                    "duration": 0.1578944999999976
                },
                {
                    "name": "E6",
                    "midi": 88,
                    "time": 128.36822849999888,
                    "velocity": 0.4094488188976378,
                    "duration": 0.1578944999999976
                },
                {
                    "name": "C#6",
                    "midi": 85,
                    "time": 128.52612299999888,
                    "velocity": 0.4015748031496063,
                    "duration": 0.1578944999999976
                },
                {
                    "name": "F6",
                    "midi": 89,
                    "time": 129.15770099999887,
                    "velocity": 0.41732283464566927,
                    "duration": 0.1578944999999976
                },
                {
                    "name": "D6",
                    "midi": 86,
                    "time": 129.15770099999887,
                    "velocity": 0.3543307086614173,
                    "duration": 0.1578944999999976
                },
                {
                    "name": "A5",
                    "midi": 81,
                    "time": 129.15770099999887,
                    "velocity": 0.3543307086614173,
                    "duration": 0.1578944999999976
                },
                {
                    "name": "G6",
                    "midi": 91,
                    "time": 129.47348999999886,
                    "velocity": 0.4330708661417323,
                    "duration": 0.789472499999988
                },
                {
                    "name": "G5",
                    "midi": 79,
                    "time": 129.47348999999886,
                    "velocity": 0.2992125984251969,
                    "duration": 1.2631559999999808
                },
                {
                    "name": "D6",
                    "midi": 86,
                    "time": 129.47348999999886,
                    "velocity": 0.2992125984251969,
                    "duration": 1.2631559999999808
                },
                {
                    "name": "D7",
                    "midi": 98,
                    "time": 130.26296249999885,
                    "velocity": 0.3858267716535433,
                    "duration": 0.1578944999999976
                },
                {
                    "name": "B6",
                    "midi": 95,
                    "time": 130.42085699999885,
                    "velocity": 0.3858267716535433,
                    "duration": 0.1578944999999976
                },
                {
                    "name": "G6",
                    "midi": 91,
                    "time": 130.57875149999884,
                    "velocity": 0.41732283464566927,
                    "duration": 0.1578944999999976
                },
                {
                    "name": "F6",
                    "midi": 89,
                    "time": 130.73664599999884,
                    "velocity": 0.4251968503937008,
                    "duration": 0.1578944999999976
                },
                {
                    "name": "D6",
                    "midi": 86,
                    "time": 130.89454049999884,
                    "velocity": 0.4094488188976378,
                    "duration": 0.1578944999999976
                },
                {
                    "name": "B5",
                    "midi": 83,
                    "time": 131.05243499999884,
                    "velocity": 0.4015748031496063,
                    "duration": 0.1578944999999976
                },
                {
                    "name": "E6",
                    "midi": 88,
                    "time": 131.68401299999883,
                    "velocity": 0.41732283464566927,
                    "duration": 0.1578944999999976
                },
                {
                    "name": "C6",
                    "midi": 84,
                    "time": 131.68401299999883,
                    "velocity": 0.3543307086614173,
                    "duration": 0.1578944999999976
                },
                {
                    "name": "G5",
                    "midi": 79,
                    "time": 131.68401299999883,
                    "velocity": 0.3543307086614173,
                    "duration": 0.1578944999999976
                },
                {
                    "name": "F6",
                    "midi": 89,
                    "time": 131.99980199999882,
                    "velocity": 0.4330708661417323,
                    "duration": 0.789472499999988
                },
                {
                    "name": "B5",
                    "midi": 83,
                    "time": 131.99980199999882,
                    "velocity": 0.2992125984251969,
                    "duration": 0.789472499999988
                },
                {
                    "name": "D6",
                    "midi": 86,
                    "time": 132.7892744999988,
                    "velocity": 0.3858267716535433,
                    "duration": 0.1578944999999976
                },
                {
                    "name": "B5",
                    "midi": 83,
                    "time": 132.9471689999988,
                    "velocity": 0.3858267716535433,
                    "duration": 0.1578944999999976
                },
                {
                    "name": "A5",
                    "midi": 81,
                    "time": 133.1050634999988,
                    "velocity": 0.41732283464566927,
                    "duration": 0.1578944999999976
                },
                {
                    "name": "G#5",
                    "midi": 80,
                    "time": 133.2629579999988,
                    "velocity": 0.3858267716535433,
                    "duration": 0.1578944999999976
                },
                {
                    "name": "E5",
                    "midi": 76,
                    "time": 133.4208524999988,
                    "velocity": 0.3858267716535433,
                    "duration": 0.1578944999999976
                },
                {
                    "name": "D5",
                    "midi": 74,
                    "time": 133.5787469999988,
                    "velocity": 0.3543307086614173,
                    "duration": 0.1578944999999976
                },
                {
                    "name": "B4",
                    "midi": 71,
                    "time": 133.7366414999988,
                    "velocity": 0.3543307086614173,
                    "duration": 0.1578944999999976
                },
                {
                    "name": "C5",
                    "midi": 72,
                    "time": 133.8945359999988,
                    "velocity": 0.3700787401574803,
                    "duration": 0.1578944999999976
                },
                {
                    "name": "E5",
                    "midi": 76,
                    "time": 134.0524304999988,
                    "velocity": 0.3858267716535433,
                    "duration": 0.1578944999999976
                },
                {
                    "name": "A5",
                    "midi": 81,
                    "time": 134.2103249999988,
                    "velocity": 0.3858267716535433,
                    "duration": 0.1578944999999976
                },
                {
                    "name": "G5",
                    "midi": 79,
                    "time": 134.3682194999988,
                    "velocity": 0.3858267716535433,
                    "duration": 0.1578944999999976
                },
                {
                    "name": "F5",
                    "midi": 77,
                    "time": 134.52611399999878,
                    "velocity": 0.3858267716535433,
                    "duration": 0.1578944999999976
                },
                {
                    "name": "D6",
                    "midi": 86,
                    "time": 134.68400849999878,
                    "velocity": 0.3700787401574803,
                    "duration": 0.1578944999999976
                },
                {
                    "name": "B5",
                    "midi": 83,
                    "time": 134.84190299999878,
                    "velocity": 0.3700787401574803,
                    "duration": 0.1578944999999976
                },
                {
                    "name": "A5",
                    "midi": 81,
                    "time": 134.99979749999878,
                    "velocity": 0.3700787401574803,
                    "duration": 0.1578944999999976
                },
                {
                    "name": "G#5",
                    "midi": 80,
                    "time": 135.15769199999878,
                    "velocity": 0.3858267716535433,
                    "duration": 0.1578944999999976
                },
                {
                    "name": "B6",
                    "midi": 95,
                    "time": 135.31558649999877,
                    "velocity": 0.3858267716535433,
                    "duration": 0.1578944999999976
                },
                {
                    "name": "G#6",
                    "midi": 92,
                    "time": 135.47348099999877,
                    "velocity": 0.3543307086614173,
                    "duration": 0.1578944999999976
                },
                {
                    "name": "E6",
                    "midi": 88,
                    "time": 135.63137549999877,
                    "velocity": 0.30708661417322836,
                    "duration": 0.1184208749999982
                },
                {
                    "name": "G#6",
                    "midi": 92,
                    "time": 135.74979637499877,
                    "velocity": 0.2992125984251969,
                    "duration": 0.0394736249999994
                },
                {
                    "name": "A6",
                    "midi": 93,
                    "time": 135.78926999999877,
                    "velocity": 0.2992125984251969,
                    "duration": 0.6315779999999904
                },
                {
                    "name": "A5",
                    "midi": 81,
                    "time": 136.42084799999876,
                    "velocity": 0.2125984251968504,
                    "duration": 0.1578944999999976
                },
                {
                    "name": "E3",
                    "midi": 52,
                    "time": 137.10505749999876,
                    "velocity": 0.5433070866141733,
                    "duration": 0.05263149999998973
                },
                {
                    "name": "A3",
                    "midi": 57,
                    "time": 137.15768899999875,
                    "velocity": 0.5433070866141733,
                    "duration": 0.05263149999998973
                },
                {
                    "name": "E4",
                    "midi": 64,
                    "time": 137.21032049999874,
                    "velocity": 0.6141732283464567,
                    "duration": 0.05263149999998973
                },
                {
                    "name": "C4",
                    "midi": 60,
                    "time": 137.21032049999874,
                    "velocity": 0.5196850393700787,
                    "duration": 0.05263149999998973
                },
                {
                    "name": "E4",
                    "midi": 64,
                    "time": 137.26295199999873,
                    "velocity": 0.5275590551181102,
                    "duration": 0.05263149999998973
                },
                {
                    "name": "A4",
                    "midi": 69,
                    "time": 137.31558349999872,
                    "velocity": 0.5275590551181102,
                    "duration": 0.05263149999998973
                },
                {
                    "name": "E5",
                    "midi": 76,
                    "time": 137.3682149999987,
                    "velocity": 0.6220472440944882,
                    "duration": 0.04736834999999928
                },
                {
                    "name": "C5",
                    "midi": 72,
                    "time": 137.3682149999987,
                    "velocity": 0.5275590551181102,
                    "duration": 0.04736834999999928
                },
                {
                    "name": "E5",
                    "midi": 76,
                    "time": 137.4208464999987,
                    "velocity": 0.5433070866141733,
                    "duration": 0.05263149999998973
                },
                {
                    "name": "A5",
                    "midi": 81,
                    "time": 137.4734779999987,
                    "velocity": 0.5354330708661418,
                    "duration": 0.05263149999998973
                },
                {
                    "name": "E6",
                    "midi": 88,
                    "time": 137.52610949999868,
                    "velocity": 0.6220472440944882,
                    "duration": 0.04736834999999928
                },
                {
                    "name": "C6",
                    "midi": 84,
                    "time": 137.52610949999868,
                    "velocity": 0.5275590551181102,
                    "duration": 0.04736834999999928
                },
                {
                    "name": "E6",
                    "midi": 88,
                    "time": 137.57874099999867,
                    "velocity": 0.5590551181102362,
                    "duration": 0.05263149999998973
                },
                {
                    "name": "A6",
                    "midi": 93,
                    "time": 137.63137249999866,
                    "velocity": 0.5590551181102362,
                    "duration": 0.05263149999998973
                },
                {
                    "name": "E7",
                    "midi": 100,
                    "time": 137.68400399999865,
                    "velocity": 0.6220472440944882,
                    "duration": 0.05263149999998973
                },
                {
                    "name": "D7",
                    "midi": 98,
                    "time": 137.68400399999865,
                    "velocity": 0.5275590551181102,
                    "duration": 0.05263149999998973
                },
                {
                    "name": "G#6",
                    "midi": 92,
                    "time": 137.73663549999864,
                    "velocity": 0.5511811023622047,
                    "duration": 0.05263149999998973
                },
                {
                    "name": "E6",
                    "midi": 88,
                    "time": 137.78926699999863,
                    "velocity": 0.5511811023622047,
                    "duration": 0.04736834999999928
                },
                {
                    "name": "E6",
                    "midi": 88,
                    "time": 137.84189849999862,
                    "velocity": 0.6220472440944882,
                    "duration": 0.05263149999998973
                },
                {
                    "name": "D6",
                    "midi": 86,
                    "time": 137.84189849999862,
                    "velocity": 0.5275590551181102,
                    "duration": 0.05263149999998973
                },
                {
                    "name": "G#5",
                    "midi": 80,
                    "time": 137.8945299999986,
                    "velocity": 0.5511811023622047,
                    "duration": 0.05263149999998973
                },
                {
                    "name": "E5",
                    "midi": 76,
                    "time": 137.9471614999986,
                    "velocity": 0.5275590551181102,
                    "duration": 0.04736834999999928
                },
                {
                    "name": "E5",
                    "midi": 76,
                    "time": 137.9997929999986,
                    "velocity": 0.5748031496062992,
                    "duration": 0.05263149999998973
                },
                {
                    "name": "C5",
                    "midi": 72,
                    "time": 137.9997929999986,
                    "velocity": 0.48031496062992124,
                    "duration": 0.05263149999998973
                },
                {
                    "name": "A4",
                    "midi": 69,
                    "time": 138.05242449999858,
                    "velocity": 0.5433070866141733,
                    "duration": 0.05263149999998973
                },
                {
                    "name": "E4",
                    "midi": 64,
                    "time": 138.10505599999857,
                    "velocity": 0.5039370078740157,
                    "duration": 0.04736834999999928
                },
                {
                    "name": "E4",
                    "midi": 64,
                    "time": 138.15768749999856,
                    "velocity": 0.49606299212598426,
                    "duration": 0.1578944999999976
                },
                {
                    "name": "C4",
                    "midi": 60,
                    "time": 138.15768749999856,
                    "velocity": 0.41732283464566927,
                    "duration": 0.1578944999999976
                },
                {
                    "name": "E4",
                    "midi": 64,
                    "time": 138.31558199999856,
                    "velocity": 0.5590551181102362,
                    "duration": 0.0789472499999988
                },
                {
                    "name": "G#3",
                    "midi": 56,
                    "time": 138.31558199999856,
                    "velocity": 0.47244094488188976,
                    "duration": 0.0789472499999988
                },
                {
                    "name": "B3",
                    "midi": 59,
                    "time": 138.31558199999856,
                    "velocity": 0.47244094488188976,
                    "duration": 0.0789472499999988
                },
                {
                    "name": "E6",
                    "midi": 88,
                    "time": 138.47347649999855,
                    "velocity": 0.6614173228346457,
                    "duration": 0.3157889999999952
                },
                {
                    "name": "B5",
                    "midi": 83,
                    "time": 138.47347649999855,
                    "velocity": 0.5590551181102362,
                    "duration": 0.3157889999999952
                },
                {
                    "name": "G#5",
                    "midi": 80,
                    "time": 138.47347649999855,
                    "velocity": 0.5590551181102362,
                    "duration": 0.3157889999999952
                },
                {
                    "name": "E5",
                    "midi": 76,
                    "time": 138.47347649999855,
                    "velocity": 0.5590551181102362,
                    "duration": 0.3157889999999952
                },
                {
                    "name": "G6",
                    "midi": 91,
                    "time": 138.78926549999855,
                    "velocity": 0.6614173228346457,
                    "duration": 0.3157889999999952
                },
                {
                    "name": "D6",
                    "midi": 86,
                    "time": 138.78926549999855,
                    "velocity": 0.5590551181102362,
                    "duration": 0.3157889999999952
                },
                {
                    "name": "B5",
                    "midi": 83,
                    "time": 138.78926549999855,
                    "velocity": 0.5590551181102362,
                    "duration": 0.3157889999999952
                },
                {
                    "name": "G5",
                    "midi": 79,
                    "time": 138.78926549999855,
                    "velocity": 0.5590551181102362,
                    "duration": 0.3157889999999952
                },
                {
                    "name": "F6",
                    "midi": 89,
                    "time": 139.10505449999854,
                    "velocity": 0.6614173228346457,
                    "duration": 0.3157889999999952
                },
                {
                    "name": "D6",
                    "midi": 86,
                    "time": 139.10505449999854,
                    "velocity": 0.5590551181102362,
                    "duration": 0.3157889999999952
                },
                {
                    "name": "B5",
                    "midi": 83,
                    "time": 139.10505449999854,
                    "velocity": 0.5590551181102362,
                    "duration": 0.3157889999999952
                },
                {
                    "name": "F5",
                    "midi": 77,
                    "time": 139.10505449999854,
                    "velocity": 0.5590551181102362,
                    "duration": 0.3157889999999952
                },
                {
                    "name": "E6",
                    "midi": 88,
                    "time": 139.42084349999854,
                    "velocity": 0.6220472440944882,
                    "duration": 0.1578944999999976
                },
                {
                    "name": "D6",
                    "midi": 86,
                    "time": 139.42084349999854,
                    "velocity": 0.5275590551181102,
                    "duration": 0.1578944999999976
                },
                {
                    "name": "B5",
                    "midi": 83,
                    "time": 139.42084349999854,
                    "velocity": 0.5275590551181102,
                    "duration": 0.1578944999999976
                },
                {
                    "name": "E5",
                    "midi": 76,
                    "time": 139.42084349999854,
                    "velocity": 0.5275590551181102,
                    "duration": 0.1578944999999976
                },
                {
                    "name": "E3",
                    "midi": 52,
                    "time": 139.63136949999853,
                    "velocity": 0.5433070866141733,
                    "duration": 0.05263149999998973
                },
                {
                    "name": "A3",
                    "midi": 57,
                    "time": 139.68400099999852,
                    "velocity": 0.5433070866141733,
                    "duration": 0.05263149999998973
                },
                {
                    "name": "E4",
                    "midi": 64,
                    "time": 139.7366324999985,
                    "velocity": 0.6141732283464567,
                    "duration": 0.04736834999999928
                },
                {
                    "name": "C4",
                    "midi": 60,
                    "time": 139.7366324999985,
                    "velocity": 0.5196850393700787,
                    "duration": 0.04736834999999928
                },
                {
                    "name": "E4",
                    "midi": 64,
                    "time": 139.7892639999985,
                    "velocity": 0.5275590551181102,
                    "duration": 0.05263149999998973
                },
                {
                    "name": "A4",
                    "midi": 69,
                    "time": 139.8418954999985,
                    "velocity": 0.5275590551181102,
                    "duration": 0.05263149999998973
                },
                {
                    "name": "E5",
                    "midi": 76,
                    "time": 139.89452699999848,
                    "velocity": 0.6220472440944882,
                    "duration": 0.04736834999999928
                },
                {
                    "name": "C5",
                    "midi": 72,
                    "time": 139.89452699999848,
                    "velocity": 0.5275590551181102,
                    "duration": 0.04736834999999928
                },
                {
                    "name": "E5",
                    "midi": 76,
                    "time": 139.94715849999847,
                    "velocity": 0.5433070866141733,
                    "duration": 0.05263149999998973
                },
                {
                    "name": "A5",
                    "midi": 81,
                    "time": 139.99978999999846,
                    "velocity": 0.5354330708661418,
                    "duration": 0.05263149999998973
                },
                {
                    "name": "E6",
                    "midi": 88,
                    "time": 140.05242149999845,
                    "velocity": 0.6220472440944882,
                    "duration": 0.05263149999998973
                },
                {
                    "name": "C6",
                    "midi": 84,
                    "time": 140.05242149999845,
                    "velocity": 0.5275590551181102,
                    "duration": 0.05263149999998973
                },
                {
                    "name": "E6",
                    "midi": 88,
                    "time": 140.10505299999843,
                    "velocity": 0.5590551181102362,
                    "duration": 0.05263149999998973
                },
                {
                    "name": "A6",
                    "midi": 93,
                    "time": 140.15768449999842,
                    "velocity": 0.5590551181102362,
                    "duration": 0.05263149999998973
                },
                {
                    "name": "E7",
                    "midi": 100,
                    "time": 140.21031599999841,
                    "velocity": 0.6220472440944882,
                    "duration": 0.05263149999998973
                },
                {
                    "name": "D7",
                    "midi": 98,
                    "time": 140.21031599999841,
                    "velocity": 0.5275590551181102,
                    "duration": 0.05263149999998973
                },
                {
                    "name": "G#6",
                    "midi": 92,
                    "time": 140.2629474999984,
                    "velocity": 0.5511811023622047,
                    "duration": 0.05263149999998973
                },
                {
                    "name": "E6",
                    "midi": 88,
                    "time": 140.3155789999984,
                    "velocity": 0.5511811023622047,
                    "duration": 0.04736834999999928
                },
                {
                    "name": "E6",
                    "midi": 88,
                    "time": 140.36821049999838,
                    "velocity": 0.6220472440944882,
                    "duration": 0.05263149999998973
                },
                {
                    "name": "D6",
                    "midi": 86,
                    "time": 140.36821049999838,
                    "velocity": 0.5275590551181102,
                    "duration": 0.05263149999998973
                },
                {
                    "name": "G#5",
                    "midi": 80,
                    "time": 140.42084199999837,
                    "velocity": 0.5511811023622047,
                    "duration": 0.05263149999998973
                },
                {
                    "name": "E5",
                    "midi": 76,
                    "time": 140.47347349999836,
                    "velocity": 0.5275590551181102,
                    "duration": 0.04736834999999928
                },
                {
                    "name": "E5",
                    "midi": 76,
                    "time": 140.52610499999835,
                    "velocity": 0.5748031496062992,
                    "duration": 0.05263149999998973
                },
                {
                    "name": "C5",
                    "midi": 72,
                    "time": 140.52610499999835,
                    "velocity": 0.48031496062992124,
                    "duration": 0.05263149999998973
                },
                {
                    "name": "A4",
                    "midi": 69,
                    "time": 140.57873649999834,
                    "velocity": 0.5433070866141733,
                    "duration": 0.05263149999998973
                },
                {
                    "name": "E4",
                    "midi": 64,
                    "time": 140.63136799999833,
                    "velocity": 0.5039370078740157,
                    "duration": 0.04736834999999928
                },
                {
                    "name": "E4",
                    "midi": 64,
                    "time": 140.68399949999832,
                    "velocity": 0.49606299212598426,
                    "duration": 0.1578944999999976
                },
                {
                    "name": "C4",
                    "midi": 60,
                    "time": 140.68399949999832,
                    "velocity": 0.41732283464566927,
                    "duration": 0.1578944999999976
                },
                {
                    "name": "E4",
                    "midi": 64,
                    "time": 140.84189399999832,
                    "velocity": 0.5590551181102362,
                    "duration": 0.0789472499999988
                },
                {
                    "name": "G#3",
                    "midi": 56,
                    "time": 140.84189399999832,
                    "velocity": 0.3937007874015748,
                    "duration": 0.0789472499999988
                },
                {
                    "name": "E5",
                    "midi": 76,
                    "time": 140.92084124999832,
                    "velocity": 0.4645669291338583,
                    "duration": 0.0789472499999988
                },
                {
                    "name": "E4",
                    "midi": 64,
                    "time": 140.92084124999832,
                    "velocity": 0.3858267716535433,
                    "duration": 0.0789472499999988
                },
                {
                    "name": "F5",
                    "midi": 77,
                    "time": 140.99978849999832,
                    "velocity": 0.48031496062992124,
                    "duration": 0.0789472499999988
                },
                {
                    "name": "F4",
                    "midi": 65,
                    "time": 140.99978849999832,
                    "velocity": 0.3937007874015748,
                    "duration": 0.0789472499999988
                },
                {
                    "name": "F#5",
                    "midi": 78,
                    "time": 141.07873574999832,
                    "velocity": 0.49606299212598426,
                    "duration": 0.0789472499999988
                },
                {
                    "name": "F#4",
                    "midi": 66,
                    "time": 141.07873574999832,
                    "velocity": 0.4094488188976378,
                    "duration": 0.0789472499999988
                },
                {
                    "name": "G5",
                    "midi": 79,
                    "time": 141.15768299999831,
                    "velocity": 0.5196850393700787,
                    "duration": 0.0789472499999988
                },
                {
                    "name": "G4",
                    "midi": 67,
                    "time": 141.15768299999831,
                    "velocity": 0.4409448818897638,
                    "duration": 0.0789472499999988
                },
                {
                    "name": "G#5",
                    "midi": 80,
                    "time": 141.2366302499983,
                    "velocity": 0.5354330708661418,
                    "duration": 0.0789472499999988
                },
                {
                    "name": "G#4",
                    "midi": 68,
                    "time": 141.2366302499983,
                    "velocity": 0.4566929133858268,
                    "duration": 0.0789472499999988
                },
                {
                    "name": "A5",
                    "midi": 81,
                    "time": 141.3155774999983,
                    "velocity": 0.5590551181102362,
                    "duration": 0.0789472499999988
                },
                {
                    "name": "A4",
                    "midi": 69,
                    "time": 141.3155774999983,
                    "velocity": 0.47244094488188976,
                    "duration": 0.0789472499999988
                },
                {
                    "name": "A#5",
                    "midi": 82,
                    "time": 141.3945247499983,
                    "velocity": 0.5748031496062992,
                    "duration": 0.0789472499999988
                },
                {
                    "name": "A#4",
                    "midi": 70,
                    "time": 141.3945247499983,
                    "velocity": 0.48031496062992124,
                    "duration": 0.0789472499999988
                },
                {
                    "name": "B5",
                    "midi": 83,
                    "time": 141.4734719999983,
                    "velocity": 0.5905511811023622,
                    "duration": 0.0789472499999988
                },
                {
                    "name": "B4",
                    "midi": 71,
                    "time": 141.4734719999983,
                    "velocity": 0.5039370078740157,
                    "duration": 0.0789472499999988
                },
                {
                    "name": "C6",
                    "midi": 84,
                    "time": 141.5524192499983,
                    "velocity": 0.6141732283464567,
                    "duration": 0.0789472499999988
                },
                {
                    "name": "C5",
                    "midi": 72,
                    "time": 141.5524192499983,
                    "velocity": 0.5196850393700787,
                    "duration": 0.0789472499999988
                },
                {
                    "name": "C#6",
                    "midi": 85,
                    "time": 141.6313664999983,
                    "velocity": 0.6377952755905512,
                    "duration": 0.0789472499999988
                },
                {
                    "name": "C#5",
                    "midi": 73,
                    "time": 141.6313664999983,
                    "velocity": 0.5354330708661418,
                    "duration": 0.0789472499999988
                },
                {
                    "name": "D6",
                    "midi": 86,
                    "time": 141.7103137499983,
                    "velocity": 0.6614173228346457,
                    "duration": 0.0789472499999988
                },
                {
                    "name": "D5",
                    "midi": 74,
                    "time": 141.7103137499983,
                    "velocity": 0.5511811023622047,
                    "duration": 0.0789472499999988
                },
                {
                    "name": "D#6",
                    "midi": 87,
                    "time": 141.7892609999983,
                    "velocity": 0.6929133858267716,
                    "duration": 0.0789472499999988
                },
                {
                    "name": "D#5",
                    "midi": 75,
                    "time": 141.7892609999983,
                    "velocity": 0.5748031496062992,
                    "duration": 0.0789472499999988
                },
                {
                    "name": "E6",
                    "midi": 88,
                    "time": 141.8682082499983,
                    "velocity": 0.7244094488188977,
                    "duration": 0.0789472499999988
                },
                {
                    "name": "E5",
                    "midi": 76,
                    "time": 141.8682082499983,
                    "velocity": 0.6141732283464567,
                    "duration": 0.0789472499999988
                },
                {
                    "name": "F6",
                    "midi": 89,
                    "time": 141.9471554999983,
                    "velocity": 0.7559055118110236,
                    "duration": 0.0789472499999988
                },
                {
                    "name": "F5",
                    "midi": 77,
                    "time": 141.9471554999983,
                    "velocity": 0.6377952755905512,
                    "duration": 0.0789472499999988
                },
                {
                    "name": "E6",
                    "midi": 88,
                    "time": 142.0261027499983,
                    "velocity": 0.6456692913385826,
                    "duration": 0.05921043750001331
                },
                {
                    "name": "E5",
                    "midi": 76,
                    "time": 142.0261027499983,
                    "velocity": 0.5433070866141733,
                    "duration": 0.05921043750001331
                },
                {
                    "name": "E3",
                    "midi": 52,
                    "time": 142.31557599999832,
                    "velocity": 0.5433070866141733,
                    "duration": 0.05263149999998973
                },
                {
                    "name": "A3",
                    "midi": 57,
                    "time": 142.3682074999983,
                    "velocity": 0.5433070866141733,
                    "duration": 0.05263149999998973
                },
                {
                    "name": "E4",
                    "midi": 64,
                    "time": 142.4208389999983,
                    "velocity": 0.6141732283464567,
                    "duration": 0.04736834999999928
                },
                {
                    "name": "C4",
                    "midi": 60,
                    "time": 142.4208389999983,
                    "velocity": 0.5196850393700787,
                    "duration": 0.04736834999999928
                },
                {
                    "name": "E4",
                    "midi": 64,
                    "time": 142.47347049999829,
                    "velocity": 0.5275590551181102,
                    "duration": 0.05263149999998973
                },
                {
                    "name": "A4",
                    "midi": 69,
                    "time": 142.52610199999828,
                    "velocity": 0.5275590551181102,
                    "duration": 0.05263149999998973
                },
                {
                    "name": "E5",
                    "midi": 76,
                    "time": 142.57873349999826,
                    "velocity": 0.6220472440944882,
                    "duration": 0.04736834999999928
                },
                {
                    "name": "C5",
                    "midi": 72,
                    "time": 142.57873349999826,
                    "velocity": 0.5275590551181102,
                    "duration": 0.04736834999999928
                },
                {
                    "name": "E5",
                    "midi": 76,
                    "time": 142.63136499999825,
                    "velocity": 0.5433070866141733,
                    "duration": 0.05263149999998973
                },
                {
                    "name": "A5",
                    "midi": 81,
                    "time": 142.68399649999824,
                    "velocity": 0.5354330708661418,
                    "duration": 0.05263149999998973
                },
                {
                    "name": "E6",
                    "midi": 88,
                    "time": 142.73662799999823,
                    "velocity": 0.6220472440944882,
                    "duration": 0.04736834999999928
                },
                {
                    "name": "C6",
                    "midi": 84,
                    "time": 142.73662799999823,
                    "velocity": 0.5275590551181102,
                    "duration": 0.04736834999999928
                },
                {
                    "name": "E6",
                    "midi": 88,
                    "time": 142.78925949999822,
                    "velocity": 0.5590551181102362,
                    "duration": 0.05263149999998973
                },
                {
                    "name": "A6",
                    "midi": 93,
                    "time": 142.8418909999982,
                    "velocity": 0.5590551181102362,
                    "duration": 0.05263149999998973
                },
                {
                    "name": "E7",
                    "midi": 100,
                    "time": 142.8945224999982,
                    "velocity": 0.6220472440944882,
                    "duration": 0.05263149999998973
                },
                {
                    "name": "D7",
                    "midi": 98,
                    "time": 142.8945224999982,
                    "velocity": 0.5275590551181102,
                    "duration": 0.05263149999998973
                },
                {
                    "name": "G#6",
                    "midi": 92,
                    "time": 142.9471539999982,
                    "velocity": 0.5511811023622047,
                    "duration": 0.05263149999998973
                },
                {
                    "name": "E6",
                    "midi": 88,
                    "time": 142.99978549999818,
                    "velocity": 0.5511811023622047,
                    "duration": 0.05263149999998973
                },
                {
                    "name": "E6",
                    "midi": 88,
                    "time": 143.05241699999817,
                    "velocity": 0.6220472440944882,
                    "duration": 0.05263149999998973
                },
                {
                    "name": "D6",
                    "midi": 86,
                    "time": 143.05241699999817,
                    "velocity": 0.5275590551181102,
                    "duration": 0.05263149999998973
                },
                {
                    "name": "G#5",
                    "midi": 80,
                    "time": 143.10504849999816,
                    "velocity": 0.5511811023622047,
                    "duration": 0.05263149999998973
                },
                {
                    "name": "E5",
                    "midi": 76,
                    "time": 143.15767999999815,
                    "velocity": 0.5275590551181102,
                    "duration": 0.04736834999999928
                },
                {
                    "name": "E5",
                    "midi": 76,
                    "time": 143.21031149999814,
                    "velocity": 0.5748031496062992,
                    "duration": 0.05263149999998973
                },
                {
                    "name": "C5",
                    "midi": 72,
                    "time": 143.21031149999814,
                    "velocity": 0.48031496062992124,
                    "duration": 0.05263149999998973
                },
                {
                    "name": "A4",
                    "midi": 69,
                    "time": 143.26294299999813,
                    "velocity": 0.5433070866141733,
                    "duration": 0.05263149999998973
                },
                {
                    "name": "E4",
                    "midi": 64,
                    "time": 143.31557449999812,
                    "velocity": 0.5039370078740157,
                    "duration": 0.04736834999999928
                },
                {
                    "name": "E4",
                    "midi": 64,
                    "time": 143.3682059999981,
                    "velocity": 0.49606299212598426,
                    "duration": 0.1578944999999976
                },
                {
                    "name": "C4",
                    "midi": 60,
                    "time": 143.3682059999981,
                    "velocity": 0.41732283464566927,
                    "duration": 0.1578944999999976
                },
                {
                    "name": "E4",
                    "midi": 64,
                    "time": 143.5261004999981,
                    "velocity": 0.5590551181102362,
                    "duration": 0.0789472499999988
                },
                {
                    "name": "G#3",
                    "midi": 56,
                    "time": 143.5261004999981,
                    "velocity": 0.47244094488188976,
                    "duration": 0.0789472499999988
                },
                {
                    "name": "B3",
                    "midi": 59,
                    "time": 143.5261004999981,
                    "velocity": 0.47244094488188976,
                    "duration": 0.0789472499999988
                },
                {
                    "name": "E6",
                    "midi": 88,
                    "time": 143.6839949999981,
                    "velocity": 0.6614173228346457,
                    "duration": 0.3157889999999952
                },
                {
                    "name": "B5",
                    "midi": 83,
                    "time": 143.6839949999981,
                    "velocity": 0.5590551181102362,
                    "duration": 0.3157889999999952
                },
                {
                    "name": "G#5",
                    "midi": 80,
                    "time": 143.6839949999981,
                    "velocity": 0.5590551181102362,
                    "duration": 0.3157889999999952
                },
                {
                    "name": "E5",
                    "midi": 76,
                    "time": 143.6839949999981,
                    "velocity": 0.5590551181102362,
                    "duration": 0.3157889999999952
                },
                {
                    "name": "G6",
                    "midi": 91,
                    "time": 143.9997839999981,
                    "velocity": 0.6614173228346457,
                    "duration": 0.3157889999999952
                },
                {
                    "name": "D6",
                    "midi": 86,
                    "time": 143.9997839999981,
                    "velocity": 0.5590551181102362,
                    "duration": 0.3157889999999952
                },
                {
                    "name": "B5",
                    "midi": 83,
                    "time": 143.9997839999981,
                    "velocity": 0.5590551181102362,
                    "duration": 0.3157889999999952
                },
                {
                    "name": "G5",
                    "midi": 79,
                    "time": 143.9997839999981,
                    "velocity": 0.5590551181102362,
                    "duration": 0.3157889999999952
                },
                {
                    "name": "F6",
                    "midi": 89,
                    "time": 144.3155729999981,
                    "velocity": 0.6614173228346457,
                    "duration": 0.3157889999999952
                },
                {
                    "name": "D6",
                    "midi": 86,
                    "time": 144.3155729999981,
                    "velocity": 0.5590551181102362,
                    "duration": 0.3157889999999952
                },
                {
                    "name": "B5",
                    "midi": 83,
                    "time": 144.3155729999981,
                    "velocity": 0.5590551181102362,
                    "duration": 0.3157889999999952
                },
                {
                    "name": "F5",
                    "midi": 77,
                    "time": 144.3155729999981,
                    "velocity": 0.5590551181102362,
                    "duration": 0.3157889999999952
                },
                {
                    "name": "E6",
                    "midi": 88,
                    "time": 144.6313619999981,
                    "velocity": 0.6220472440944882,
                    "duration": 0.1578944999999976
                },
                {
                    "name": "D6",
                    "midi": 86,
                    "time": 144.6313619999981,
                    "velocity": 0.5275590551181102,
                    "duration": 0.1578944999999976
                },
                {
                    "name": "B5",
                    "midi": 83,
                    "time": 144.6313619999981,
                    "velocity": 0.5275590551181102,
                    "duration": 0.1578944999999976
                },
                {
                    "name": "E5",
                    "midi": 76,
                    "time": 144.6313619999981,
                    "velocity": 0.5275590551181102,
                    "duration": 0.1578944999999976
                },
                {
                    "name": "E3",
                    "midi": 52,
                    "time": 144.84188799999808,
                    "velocity": 0.5433070866141733,
                    "duration": 0.05263149999998973
                },
                {
                    "name": "A3",
                    "midi": 57,
                    "time": 144.89451949999807,
                    "velocity": 0.5433070866141733,
                    "duration": 0.05263149999998973
                },
                {
                    "name": "E4",
                    "midi": 64,
                    "time": 144.94715099999806,
                    "velocity": 0.6141732283464567,
                    "duration": 0.04736834999999928
                },
                {
                    "name": "C4",
                    "midi": 60,
                    "time": 144.94715099999806,
                    "velocity": 0.5196850393700787,
                    "duration": 0.04736834999999928
                },
                {
                    "name": "E4",
                    "midi": 64,
                    "time": 144.99978249999805,
                    "velocity": 0.5275590551181102,
                    "duration": 0.05263149999998973
                },
                {
                    "name": "A4",
                    "midi": 69,
                    "time": 145.05241399999804,
                    "velocity": 0.5275590551181102,
                    "duration": 0.05263149999998973
                },
                {
                    "name": "E5",
                    "midi": 76,
                    "time": 145.10504549999803,
                    "velocity": 0.6220472440944882,
                    "duration": 0.04736834999999928
                },
                {
                    "name": "C5",
                    "midi": 72,
                    "time": 145.10504549999803,
                    "velocity": 0.5275590551181102,
                    "duration": 0.04736834999999928
                },
                {
                    "name": "E5",
                    "midi": 76,
                    "time": 145.15767699999802,
                    "velocity": 0.5433070866141733,
                    "duration": 0.05263149999998973
                },
                {
                    "name": "A5",
                    "midi": 81,
                    "time": 145.210308499998,
                    "velocity": 0.5354330708661418,
                    "duration": 0.05263149999998973
                },
                {
                    "name": "E6",
                    "midi": 88,
                    "time": 145.262939999998,
                    "velocity": 0.6220472440944882,
                    "duration": 0.04736834999999928
                },
                {
                    "name": "C6",
                    "midi": 84,
                    "time": 145.262939999998,
                    "velocity": 0.5275590551181102,
                    "duration": 0.04736834999999928
                },
                {
                    "name": "E6",
                    "midi": 88,
                    "time": 145.315571499998,
                    "velocity": 0.5590551181102362,
                    "duration": 0.05263149999998973
                },
                {
                    "name": "A6",
                    "midi": 93,
                    "time": 145.36820299999798,
                    "velocity": 0.5590551181102362,
                    "duration": 0.05263149999998973
                },
                {
                    "name": "E7",
                    "midi": 100,
                    "time": 145.42083449999797,
                    "velocity": 0.6220472440944882,
                    "duration": 0.05263149999998973
                },
                {
                    "name": "D7",
                    "midi": 98,
                    "time": 145.42083449999797,
                    "velocity": 0.5275590551181102,
                    "duration": 0.05263149999998973
                },
                {
                    "name": "G#6",
                    "midi": 92,
                    "time": 145.47346599999796,
                    "velocity": 0.5511811023622047,
                    "duration": 0.05263149999998973
                },
                {
                    "name": "E6",
                    "midi": 88,
                    "time": 145.52609749999795,
                    "velocity": 0.5511811023622047,
                    "duration": 0.04736834999999928
                },
                {
                    "name": "E6",
                    "midi": 88,
                    "time": 145.57872899999794,
                    "velocity": 0.6220472440944882,
                    "duration": 0.05263149999998973
                },
                {
                    "name": "D6",
                    "midi": 86,
                    "time": 145.57872899999794,
                    "velocity": 0.5275590551181102,
                    "duration": 0.05263149999998973
                },
                {
                    "name": "G#5",
                    "midi": 80,
                    "time": 145.63136049999792,
                    "velocity": 0.5511811023622047,
                    "duration": 0.05263149999998973
                },
                {
                    "name": "E5",
                    "midi": 76,
                    "time": 145.68399199999791,
                    "velocity": 0.5275590551181102,
                    "duration": 0.04736834999999928
                },
                {
                    "name": "E5",
                    "midi": 76,
                    "time": 145.7366234999979,
                    "velocity": 0.5748031496062992,
                    "duration": 0.05263149999998973
                },
                {
                    "name": "C5",
                    "midi": 72,
                    "time": 145.7366234999979,
                    "velocity": 0.48031496062992124,
                    "duration": 0.05263149999998973
                },
                {
                    "name": "A4",
                    "midi": 69,
                    "time": 145.7892549999979,
                    "velocity": 0.5433070866141733,
                    "duration": 0.05263149999998973
                },
                {
                    "name": "E4",
                    "midi": 64,
                    "time": 145.84188649999788,
                    "velocity": 0.5039370078740157,
                    "duration": 0.04736834999999928
                },
                {
                    "name": "E4",
                    "midi": 64,
                    "time": 145.89451799999787,
                    "velocity": 0.49606299212598426,
                    "duration": 0.1578944999999976
                },
                {
                    "name": "C4",
                    "midi": 60,
                    "time": 145.89451799999787,
                    "velocity": 0.41732283464566927,
                    "duration": 0.1578944999999976
                },
                {
                    "name": "E4",
                    "midi": 64,
                    "time": 146.05241249999787,
                    "velocity": 0.5590551181102362,
                    "duration": 0.0789472499999988
                },
                {
                    "name": "G#3",
                    "midi": 56,
                    "time": 146.05241249999787,
                    "velocity": 0.3937007874015748,
                    "duration": 0.0789472499999988
                },
                {
                    "name": "E5",
                    "midi": 76,
                    "time": 146.13135974999787,
                    "velocity": 0.4645669291338583,
                    "duration": 0.0789472499999988
                },
                {
                    "name": "E4",
                    "midi": 64,
                    "time": 146.13135974999787,
                    "velocity": 0.3858267716535433,
                    "duration": 0.0789472499999988
                },
                {
                    "name": "F5",
                    "midi": 77,
                    "time": 146.21030699999787,
                    "velocity": 0.48031496062992124,
                    "duration": 0.0789472499999988
                },
                {
                    "name": "F4",
                    "midi": 65,
                    "time": 146.21030699999787,
                    "velocity": 0.3937007874015748,
                    "duration": 0.0789472499999988
                },
                {
                    "name": "F#5",
                    "midi": 78,
                    "time": 146.28925424999787,
                    "velocity": 0.49606299212598426,
                    "duration": 0.0789472499999988
                },
                {
                    "name": "F#4",
                    "midi": 66,
                    "time": 146.28925424999787,
                    "velocity": 0.4094488188976378,
                    "duration": 0.0789472499999988
                },
                {
                    "name": "G5",
                    "midi": 79,
                    "time": 146.36820149999787,
                    "velocity": 0.5196850393700787,
                    "duration": 0.0789472499999988
                },
                {
                    "name": "G4",
                    "midi": 67,
                    "time": 146.36820149999787,
                    "velocity": 0.4409448818897638,
                    "duration": 0.0789472499999988
                },
                {
                    "name": "G#5",
                    "midi": 80,
                    "time": 146.44714874999787,
                    "velocity": 0.5354330708661418,
                    "duration": 0.0789472499999988
                },
                {
                    "name": "G#4",
                    "midi": 68,
                    "time": 146.44714874999787,
                    "velocity": 0.4566929133858268,
                    "duration": 0.0789472499999988
                },
                {
                    "name": "A5",
                    "midi": 81,
                    "time": 146.52609599999786,
                    "velocity": 0.5590551181102362,
                    "duration": 0.0789472499999988
                },
                {
                    "name": "A4",
                    "midi": 69,
                    "time": 146.52609599999786,
                    "velocity": 0.47244094488188976,
                    "duration": 0.0789472499999988
                },
                {
                    "name": "A#5",
                    "midi": 82,
                    "time": 146.60504324999786,
                    "velocity": 0.5748031496062992,
                    "duration": 0.0789472499999988
                },
                {
                    "name": "A#4",
                    "midi": 70,
                    "time": 146.60504324999786,
                    "velocity": 0.48031496062992124,
                    "duration": 0.0789472499999988
                },
                {
                    "name": "B5",
                    "midi": 83,
                    "time": 146.68399049999786,
                    "velocity": 0.5905511811023622,
                    "duration": 0.0789472499999988
                },
                {
                    "name": "B4",
                    "midi": 71,
                    "time": 146.68399049999786,
                    "velocity": 0.5039370078740157,
                    "duration": 0.0789472499999988
                },
                {
                    "name": "C6",
                    "midi": 84,
                    "time": 146.76293774999786,
                    "velocity": 0.6141732283464567,
                    "duration": 0.0789472499999988
                },
                {
                    "name": "C5",
                    "midi": 72,
                    "time": 146.76293774999786,
                    "velocity": 0.5196850393700787,
                    "duration": 0.0789472499999988
                },
                {
                    "name": "C#6",
                    "midi": 85,
                    "time": 146.84188499999786,
                    "velocity": 0.6377952755905512,
                    "duration": 0.0789472499999988
                },
                {
                    "name": "C#5",
                    "midi": 73,
                    "time": 146.84188499999786,
                    "velocity": 0.5354330708661418,
                    "duration": 0.0789472499999988
                },
                {
                    "name": "D6",
                    "midi": 86,
                    "time": 146.92083224999786,
                    "velocity": 0.6614173228346457,
                    "duration": 0.0789472499999988
                },
                {
                    "name": "D5",
                    "midi": 74,
                    "time": 146.92083224999786,
                    "velocity": 0.5511811023622047,
                    "duration": 0.0789472499999988
                },
                {
                    "name": "D#6",
                    "midi": 87,
                    "time": 146.99977949999786,
                    "velocity": 0.6929133858267716,
                    "duration": 0.0789472499999988
                },
                {
                    "name": "D#5",
                    "midi": 75,
                    "time": 146.99977949999786,
                    "velocity": 0.5748031496062992,
                    "duration": 0.0789472499999988
                },
                {
                    "name": "E6",
                    "midi": 88,
                    "time": 147.07872674999786,
                    "velocity": 0.7244094488188977,
                    "duration": 0.0789472499999988
                },
                {
                    "name": "E5",
                    "midi": 76,
                    "time": 147.07872674999786,
                    "velocity": 0.6141732283464567,
                    "duration": 0.0789472499999988
                },
                {
                    "name": "F6",
                    "midi": 89,
                    "time": 147.15767399999785,
                    "velocity": 0.7559055118110236,
                    "duration": 0.0789472499999988
                },
                {
                    "name": "F5",
                    "midi": 77,
                    "time": 147.15767399999785,
                    "velocity": 0.6377952755905512,
                    "duration": 0.0789472499999988
                },
                {
                    "name": "E6",
                    "midi": 88,
                    "time": 147.23662124999785,
                    "velocity": 0.6456692913385826,
                    "duration": 0.0789472499999988
                },
                {
                    "name": "E5",
                    "midi": 76,
                    "time": 147.23662124999785,
                    "velocity": 0.5433070866141733,
                    "duration": 0.0789472499999988
                },
                {
                    "name": "C#4",
                    "midi": 61,
                    "time": 147.36819999999784,
                    "velocity": 0.4645669291338583,
                    "duration": 0.05263149999998973
                },
                {
                    "name": "E4",
                    "midi": 64,
                    "time": 147.42083149999783,
                    "velocity": 0.4645669291338583,
                    "duration": 0.05263149999998973
                },
                {
                    "name": "A4",
                    "midi": 69,
                    "time": 147.47346299999782,
                    "velocity": 0.5433070866141733,
                    "duration": 0.04736834999999928
                },
                {
                    "name": "A4",
                    "midi": 69,
                    "time": 147.5260944999978,
                    "velocity": 0.4645669291338583,
                    "duration": 0.05263149999998973
                },
                {
                    "name": "C#5",
                    "midi": 73,
                    "time": 147.5787259999978,
                    "velocity": 0.4645669291338583,
                    "duration": 0.05263149999998973
                },
                {
                    "name": "A#5",
                    "midi": 82,
                    "time": 147.6313574999978,
                    "velocity": 0.5590551181102362,
                    "duration": 0.04736834999999928
                },
                {
                    "name": "G5",
                    "midi": 79,
                    "time": 147.6313574999978,
                    "velocity": 0.47244094488188976,
                    "duration": 0.04736834999999928
                },
                {
                    "name": "A#5",
                    "midi": 82,
                    "time": 147.68398899999778,
                    "velocity": 0.4881889763779528,
                    "duration": 0.05263149999998973
                },
                {
                    "name": "C#6",
                    "midi": 85,
                    "time": 147.73662049999777,
                    "velocity": 0.4881889763779528,
                    "duration": 0.05263149999998973
                },
                {
                    "name": "A#6",
                    "midi": 94,
                    "time": 147.78925199999776,
                    "velocity": 0.5826771653543307,
                    "duration": 0.05263149999998973
                },
                {
                    "name": "G6",
                    "midi": 91,
                    "time": 147.78925199999776,
                    "velocity": 0.4881889763779528,
                    "duration": 0.05263149999998973
                },
                {
                    "name": "C#6",
                    "midi": 85,
                    "time": 147.84188349999775,
                    "velocity": 0.5196850393700787,
                    "duration": 0.05263149999998973
                },
                {
                    "name": "A#5",
                    "midi": 82,
                    "time": 147.89451499999774,
                    "velocity": 0.5196850393700787,
                    "duration": 0.05263149999998973
                },
                {
                    "name": "A6",
                    "midi": 93,
                    "time": 147.94714649999773,
                    "velocity": 0.5669291338582677,
                    "duration": 0.05263149999998973
                },
                {
                    "name": "F6",
                    "midi": 89,
                    "time": 147.94714649999773,
                    "velocity": 0.47244094488188976,
                    "duration": 0.05263149999998973
                },
                {
                    "name": "C#6",
                    "midi": 85,
                    "time": 147.99977799999772,
                    "velocity": 0.5039370078740157,
                    "duration": 0.05263149999998973
                },
                {
                    "name": "A5",
                    "midi": 81,
                    "time": 148.0524094999977,
                    "velocity": 0.5039370078740157,
                    "duration": 0.05263149999998973
                },
                {
                    "name": "A5",
                    "midi": 81,
                    "time": 148.1050409999977,
                    "velocity": 0.5511811023622047,
                    "duration": 0.05263149999998973
                },
                {
                    "name": "F5",
                    "midi": 77,
                    "time": 148.1050409999977,
                    "velocity": 0.4645669291338583,
                    "duration": 0.05263149999998973
                },
                {
                    "name": "C#5",
                    "midi": 73,
                    "time": 148.1576724999977,
                    "velocity": 0.5511811023622047,
                    "duration": 0.05263149999998973
                },
                {
                    "name": "A4",
                    "midi": 69,
                    "time": 148.21030399999768,
                    "velocity": 0.4881889763779528,
                    "duration": 0.05263149999998973
                },
                {
                    "name": "G5",
                    "midi": 79,
                    "time": 148.26293549999767,
                    "velocity": 0.48031496062992124,
                    "duration": 0.05263149999998973
                },
                {
                    "name": "E5",
                    "midi": 76,
                    "time": 148.26293549999767,
                    "velocity": 0.3464566929133858,
                    "duration": 0.05263149999998973
                },
                {
                    "name": "A#4",
                    "midi": 70,
                    "time": 148.31556699999766,
                    "velocity": 0.5354330708661418,
                    "duration": 0.05263149999998973
                },
                {
                    "name": "A4",
                    "midi": 69,
                    "time": 148.36819849999765,
                    "velocity": 0.49606299212598426,
                    "duration": 0.05263149999998973
                },
                {
                    "name": "G4",
                    "midi": 67,
                    "time": 148.42082999999764,
                    "velocity": 0.4881889763779528,
                    "duration": 0.05263149999998973
                },
                {
                    "name": "E4",
                    "midi": 64,
                    "time": 148.42082999999764,
                    "velocity": 0.4094488188976378,
                    "duration": 0.05263149999998973
                },
                {
                    "name": "A#3",
                    "midi": 58,
                    "time": 148.47346149999763,
                    "velocity": 0.48031496062992124,
                    "duration": 0.05263149999998973
                },
                {
                    "name": "A3",
                    "midi": 57,
                    "time": 148.52609299999762,
                    "velocity": 0.4645669291338583,
                    "duration": 0.05263149999998973
                },
                {
                    "name": "D4",
                    "midi": 62,
                    "time": 148.5787244999976,
                    "velocity": 0.5196850393700787,
                    "duration": 0.0789472499999988
                },
                {
                    "name": "F4",
                    "midi": 65,
                    "time": 148.5787244999976,
                    "velocity": 0.5905511811023622,
                    "duration": 0.0789472499999988
                },
                {
                    "name": "C#5",
                    "midi": 73,
                    "time": 148.7366189999976,
                    "velocity": 0.41732283464566927,
                    "duration": 0.05921043749998489
                },
                {
                    "name": "G4",
                    "midi": 67,
                    "time": 148.7366189999976,
                    "velocity": 0.41732283464566927,
                    "duration": 0.15789449999996918
                },
                {
                    "name": "D5",
                    "midi": 74,
                    "time": 148.7892504999976,
                    "velocity": 0.4094488188976378,
                    "duration": 0.05921043749998489
                },
                {
                    "name": "E5",
                    "midi": 76,
                    "time": 148.84188199999758,
                    "velocity": 0.41732283464566927,
                    "duration": 0.05921043749998489
                },
                {
                    "name": "F5",
                    "midi": 77,
                    "time": 148.89451349999757,
                    "velocity": 0.4330708661417323,
                    "duration": 0.05921043749998489
                },
                {
                    "name": "D5",
                    "midi": 74,
                    "time": 148.89451349999757,
                    "velocity": 0.4330708661417323,
                    "duration": 0.15789449999996918
                },
                {
                    "name": "G5",
                    "midi": 79,
                    "time": 148.94714499999756,
                    "velocity": 0.4409448818897638,
                    "duration": 0.05921043749998489
                },
                {
                    "name": "A5",
                    "midi": 81,
                    "time": 148.99977649999755,
                    "velocity": 0.44881889763779526,
                    "duration": 0.05921043749998489
                },
                {
                    "name": "C#6",
                    "midi": 85,
                    "time": 149.05240799999754,
                    "velocity": 0.4566929133858268,
                    "duration": 0.05921043749998489
                },
                {
                    "name": "G5",
                    "midi": 79,
                    "time": 149.05240799999754,
                    "velocity": 0.4566929133858268,
                    "duration": 0.15789449999996918
                },
                {
                    "name": "D6",
                    "midi": 86,
                    "time": 149.10503949999753,
                    "velocity": 0.4645669291338583,
                    "duration": 0.05921043749998489
                },
                {
                    "name": "E6",
                    "midi": 88,
                    "time": 149.15767099999752,
                    "velocity": 0.4645669291338583,
                    "duration": 0.05921043749998489
                },
                {
                    "name": "F6",
                    "midi": 89,
                    "time": 149.2103024999975,
                    "velocity": 0.47244094488188976,
                    "duration": 0.05921043749998489
                },
                {
                    "name": "D6",
                    "midi": 86,
                    "time": 149.2103024999975,
                    "velocity": 0.47244094488188976,
                    "duration": 0.15789449999996918
                },
                {
                    "name": "G6",
                    "midi": 91,
                    "time": 149.2629339999975,
                    "velocity": 0.48031496062992124,
                    "duration": 0.05921043749998489
                },
                {
                    "name": "A6",
                    "midi": 93,
                    "time": 149.3155654999975,
                    "velocity": 0.4881889763779528,
                    "duration": 0.05921043749998489
                },
                {
                    "name": "C#7",
                    "midi": 97,
                    "time": 149.36819699999748,
                    "velocity": 0.4881889763779528,
                    "duration": 0.05921043749998489
                },
                {
                    "name": "G6",
                    "midi": 91,
                    "time": 149.36819699999748,
                    "velocity": 0.4881889763779528,
                    "duration": 0.15789449999996918
                },
                {
                    "name": "D7",
                    "midi": 98,
                    "time": 149.42082849999747,
                    "velocity": 0.49606299212598426,
                    "duration": 0.05921043749998489
                },
                {
                    "name": "E7",
                    "midi": 100,
                    "time": 149.47345999999746,
                    "velocity": 0.5039370078740157,
                    "duration": 0.05921043749998489
                },
                {
                    "name": "F7",
                    "midi": 101,
                    "time": 149.52609149999745,
                    "velocity": 0.5196850393700787,
                    "duration": 0.0789472499999988
                },
                {
                    "name": "D7",
                    "midi": 98,
                    "time": 149.52609149999745,
                    "velocity": 0.5196850393700787,
                    "duration": 0.0789472499999988
                },
                {
                    "name": "A6",
                    "midi": 93,
                    "time": 149.52609149999745,
                    "velocity": 0.5196850393700787,
                    "duration": 0.0789472499999988
                },
                {
                    "name": "B3",
                    "midi": 59,
                    "time": 149.89451199999743,
                    "velocity": 0.4645669291338583,
                    "duration": 0.05263149999998973
                },
                {
                    "name": "D4",
                    "midi": 62,
                    "time": 149.94714349999742,
                    "velocity": 0.4645669291338583,
                    "duration": 0.05263149999998973
                },
                {
                    "name": "G4",
                    "midi": 67,
                    "time": 149.9997749999974,
                    "velocity": 0.5433070866141733,
                    "duration": 0.04736834999999928
                },
                {
                    "name": "G4",
                    "midi": 67,
                    "time": 150.0524064999974,
                    "velocity": 0.4645669291338583,
                    "duration": 0.05263149999998973
                },
                {
                    "name": "B4",
                    "midi": 71,
                    "time": 150.1050379999974,
                    "velocity": 0.4645669291338583,
                    "duration": 0.05263149999998973
                },
                {
                    "name": "G#5",
                    "midi": 80,
                    "time": 150.15766949999738,
                    "velocity": 0.5590551181102362,
                    "duration": 0.04736834999999928
                },
                {
                    "name": "F5",
                    "midi": 77,
                    "time": 150.15766949999738,
                    "velocity": 0.47244094488188976,
                    "duration": 0.04736834999999928
                },
                {
                    "name": "G#5",
                    "midi": 80,
                    "time": 150.21030099999737,
                    "velocity": 0.4881889763779528,
                    "duration": 0.05263149999998973
                },
                {
                    "name": "B5",
                    "midi": 83,
                    "time": 150.26293249999736,
                    "velocity": 0.4881889763779528,
                    "duration": 0.05263149999998973
                },
                {
                    "name": "G#6",
                    "midi": 92,
                    "time": 150.31556399999735,
                    "velocity": 0.5826771653543307,
                    "duration": 0.05263149999998973
                },
                {
                    "name": "F6",
                    "midi": 89,
                    "time": 150.31556399999735,
                    "velocity": 0.4881889763779528,
                    "duration": 0.05263149999998973
                },
                {
                    "name": "B5",
                    "midi": 83,
                    "time": 150.36819549999734,
                    "velocity": 0.5196850393700787,
                    "duration": 0.05263149999998973
                },
                {
                    "name": "G#5",
                    "midi": 80,
                    "time": 150.42082699999733,
                    "velocity": 0.5196850393700787,
                    "duration": 0.05263149999998973
                },
                {
                    "name": "G6",
                    "midi": 91,
                    "time": 150.47345849999732,
                    "velocity": 0.5669291338582677,
                    "duration": 0.05263149999998973
                },
                {
                    "name": "E6",
                    "midi": 88,
                    "time": 150.47345849999732,
                    "velocity": 0.47244094488188976,
                    "duration": 0.05263149999998973
                },
                {
                    "name": "B5",
                    "midi": 83,
                    "time": 150.5260899999973,
                    "velocity": 0.5039370078740157,
                    "duration": 0.05263149999998973
                },
                {
                    "name": "G5",
                    "midi": 79,
                    "time": 150.5787214999973,
                    "velocity": 0.5039370078740157,
                    "duration": 0.05263149999998973
                },
                {
                    "name": "G5",
                    "midi": 79,
                    "time": 150.6313529999973,
                    "velocity": 0.5511811023622047,
                    "duration": 0.05263149999998973
                },
                {
                    "name": "E5",
                    "midi": 76,
                    "time": 150.6313529999973,
                    "velocity": 0.4645669291338583,
                    "duration": 0.05263149999998973
                },
                {
                    "name": "B4",
                    "midi": 71,
                    "time": 150.68398449999728,
                    "velocity": 0.5354330708661418,
                    "duration": 0.05263149999998973
                },
                {
                    "name": "G4",
                    "midi": 67,
                    "time": 150.73661599999727,
                    "velocity": 0.4881889763779528,
                    "duration": 0.05263149999998973
                },
                {
                    "name": "F5",
                    "midi": 77,
                    "time": 150.78924749999726,
                    "velocity": 0.48031496062992124,
                    "duration": 0.05263149999998973
                },
                {
                    "name": "D5",
                    "midi": 74,
                    "time": 150.78924749999726,
                    "velocity": 0.3464566929133858,
                    "duration": 0.05263149999998973
                },
                {
                    "name": "G#4",
                    "midi": 68,
                    "time": 150.84187899999725,
                    "velocity": 0.5354330708661418,
                    "duration": 0.05263149999998973
                },
                {
                    "name": "G4",
                    "midi": 67,
                    "time": 150.89451049999724,
                    "velocity": 0.49606299212598426,
                    "duration": 0.05263149999998973
                },
                {
                    "name": "F4",
                    "midi": 65,
                    "time": 150.94714199999723,
                    "velocity": 0.4881889763779528,
                    "duration": 0.05263149999998973
                },
                {
                    "name": "D4",
                    "midi": 62,
                    "time": 150.94714199999723,
                    "velocity": 0.4094488188976378,
                    "duration": 0.05263149999998973
                },
                {
                    "name": "G#3",
                    "midi": 56,
                    "time": 150.99977349999722,
                    "velocity": 0.48031496062992124,
                    "duration": 0.05263149999998973
                },
                {
                    "name": "G3",
                    "midi": 55,
                    "time": 151.0524049999972,
                    "velocity": 0.4645669291338583,
                    "duration": 0.05263149999998973
                },
                {
                    "name": "C4",
                    "midi": 60,
                    "time": 151.1050364999972,
                    "velocity": 0.49606299212598426,
                    "duration": 0.0789472499999988
                },
                {
                    "name": "E4",
                    "midi": 64,
                    "time": 151.1050364999972,
                    "velocity": 0.5905511811023622,
                    "duration": 0.0789472499999988
                },
                {
                    "name": "B4",
                    "midi": 71,
                    "time": 151.2629309999972,
                    "velocity": 0.41732283464566927,
                    "duration": 0.05921043749998489
                },
                {
                    "name": "F4",
                    "midi": 65,
                    "time": 151.2629309999972,
                    "velocity": 0.41732283464566927,
                    "duration": 0.15789449999996918
                },
                {
                    "name": "C5",
                    "midi": 72,
                    "time": 151.31556249999718,
                    "velocity": 0.4094488188976378,
                    "duration": 0.05921043749998489
                },
                {
                    "name": "D5",
                    "midi": 74,
                    "time": 151.36819399999717,
                    "velocity": 0.41732283464566927,
                    "duration": 0.05921043749998489
                },
                {
                    "name": "E5",
                    "midi": 76,
                    "time": 151.42082549999716,
                    "velocity": 0.4330708661417323,
                    "duration": 0.05921043749998489
                },
                {
                    "name": "C5",
                    "midi": 72,
                    "time": 151.42082549999716,
                    "velocity": 0.4330708661417323,
                    "duration": 0.15789449999996918
                },
                {
                    "name": "F5",
                    "midi": 77,
                    "time": 151.47345699999715,
                    "velocity": 0.4409448818897638,
                    "duration": 0.05921043749998489
                },
                {
                    "name": "G5",
                    "midi": 79,
                    "time": 151.52608849999714,
                    "velocity": 0.44881889763779526,
                    "duration": 0.05921043749998489
                },
                {
                    "name": "B5",
                    "midi": 83,
                    "time": 151.57871999999713,
                    "velocity": 0.4566929133858268,
                    "duration": 0.05921043749998489
                },
                {
                    "name": "F5",
                    "midi": 77,
                    "time": 151.57871999999713,
                    "velocity": 0.4566929133858268,
                    "duration": 0.15789449999996918
                },
                {
                    "name": "C6",
                    "midi": 84,
                    "time": 151.63135149999712,
                    "velocity": 0.4645669291338583,
                    "duration": 0.05921043749998489
                },
                {
                    "name": "D6",
                    "midi": 86,
                    "time": 151.6839829999971,
                    "velocity": 0.4645669291338583,
                    "duration": 0.05921043749998489
                },
                {
                    "name": "E6",
                    "midi": 88,
                    "time": 151.7366144999971,
                    "velocity": 0.47244094488188976,
                    "duration": 0.05921043749998489
                },
                {
                    "name": "C6",
                    "midi": 84,
                    "time": 151.7366144999971,
                    "velocity": 0.47244094488188976,
                    "duration": 0.15789449999996918
                },
                {
                    "name": "F6",
                    "midi": 89,
                    "time": 151.7892459999971,
                    "velocity": 0.48031496062992124,
                    "duration": 0.05921043749998489
                },
                {
                    "name": "G6",
                    "midi": 91,
                    "time": 151.84187749999708,
                    "velocity": 0.4881889763779528,
                    "duration": 0.05921043749998489
                },
                {
                    "name": "B6",
                    "midi": 95,
                    "time": 151.89450899999707,
                    "velocity": 0.4881889763779528,
                    "duration": 0.05921043749998489
                },
                {
                    "name": "F6",
                    "midi": 89,
                    "time": 151.89450899999707,
                    "velocity": 0.4881889763779528,
                    "duration": 0.15789449999996918
                },
                {
                    "name": "C7",
                    "midi": 96,
                    "time": 151.94714049999706,
                    "velocity": 0.49606299212598426,
                    "duration": 0.05921043749998489
                },
                {
                    "name": "D7",
                    "midi": 98,
                    "time": 151.99977199999705,
                    "velocity": 0.5039370078740157,
                    "duration": 0.05921043749998489
                },
                {
                    "name": "E7",
                    "midi": 100,
                    "time": 152.05240349999704,
                    "velocity": 0.5196850393700787,
                    "duration": 0.0789472499999988
                },
                {
                    "name": "C7",
                    "midi": 96,
                    "time": 152.05240349999704,
                    "velocity": 0.5196850393700787,
                    "duration": 0.0789472499999988
                },
                {
                    "name": "G6",
                    "midi": 91,
                    "time": 152.05240349999704,
                    "velocity": 0.5196850393700787,
                    "duration": 0.0789472499999988
                },
                {
                    "name": "C4",
                    "midi": 60,
                    "time": 152.21029799999704,
                    "velocity": 0.5275590551181102,
                    "duration": 0.05263149999998973
                },
                {
                    "name": "D4",
                    "midi": 62,
                    "time": 152.26292949999703,
                    "velocity": 0.5511811023622047,
                    "duration": 0.05263149999998973
                },
                {
                    "name": "E4",
                    "midi": 64,
                    "time": 152.31556099999702,
                    "velocity": 0.5590551181102362,
                    "duration": 0.05263149999998973
                },
                {
                    "name": "F4",
                    "midi": 65,
                    "time": 152.368192499997,
                    "velocity": 0.6692913385826772,
                    "duration": 0.1578944999999976
                },
                {
                    "name": "F6",
                    "midi": 89,
                    "time": 152.526086999997,
                    "velocity": 0.5826771653543307,
                    "duration": 0.1578944999999976
                },
                {
                    "name": "F5",
                    "midi": 77,
                    "time": 152.526086999997,
                    "velocity": 0.4881889763779528,
                    "duration": 0.1578944999999976
                },
                {
                    "name": "B5",
                    "midi": 83,
                    "time": 152.683981499997,
                    "velocity": 0.6062992125984252,
                    "duration": 0.1578944999999976
                },
                {
                    "name": "B4",
                    "midi": 71,
                    "time": 152.683981499997,
                    "velocity": 0.5039370078740157,
                    "duration": 0.1578944999999976
                },
                {
                    "name": "B3",
                    "midi": 59,
                    "time": 152.841875999997,
                    "velocity": 0.5354330708661418,
                    "duration": 0.05263149999998973
                },
                {
                    "name": "C4",
                    "midi": 60,
                    "time": 152.894507499997,
                    "velocity": 0.5590551181102362,
                    "duration": 0.05263149999998973
                },
                {
                    "name": "D4",
                    "midi": 62,
                    "time": 152.94713899999698,
                    "velocity": 0.5748031496062992,
                    "duration": 0.05263149999998973
                },
                {
                    "name": "D#4",
                    "midi": 63,
                    "time": 152.99977049999697,
                    "velocity": 0.6692913385826772,
                    "duration": 0.1578944999999976
                },
                {
                    "name": "D#6",
                    "midi": 87,
                    "time": 153.15766499999697,
                    "velocity": 0.6062992125984252,
                    "duration": 0.1578944999999976
                },
                {
                    "name": "D#5",
                    "midi": 75,
                    "time": 153.15766499999697,
                    "velocity": 0.5039370078740157,
                    "duration": 0.1578944999999976
                },
                {
                    "name": "A5",
                    "midi": 81,
                    "time": 153.31555949999697,
                    "velocity": 0.6141732283464567,
                    "duration": 0.1578944999999976
                },
                {
                    "name": "A4",
                    "midi": 69,
                    "time": 153.31555949999697,
                    "velocity": 0.5196850393700787,
                    "duration": 0.1578944999999976
                },
                {
                    "name": "A3",
                    "midi": 57,
                    "time": 153.47345399999696,
                    "velocity": 0.5433070866141733,
                    "duration": 0.05263149999998973
                },
                {
                    "name": "B3",
                    "midi": 59,
                    "time": 153.52608549999695,
                    "velocity": 0.5669291338582677,
                    "duration": 0.05263149999998973
                },
                {
                    "name": "C4",
                    "midi": 60,
                    "time": 153.57871699999694,
                    "velocity": 0.5905511811023622,
                    "duration": 0.05263149999998973
                },
                {
                    "name": "C#4",
                    "midi": 61,
                    "time": 153.63134849999693,
                    "velocity": 0.7007874015748031,
                    "duration": 0.1578944999999976
                },
                {
                    "name": "C#6",
                    "midi": 85,
                    "time": 153.78924299999693,
                    "velocity": 0.6141732283464567,
                    "duration": 0.1578944999999976
                },
                {
                    "name": "C#5",
                    "midi": 73,
                    "time": 153.78924299999693,
                    "velocity": 0.5196850393700787,
                    "duration": 0.1578944999999976
                },
                {
                    "name": "G5",
                    "midi": 79,
                    "time": 153.94713749999693,
                    "velocity": 0.6220472440944882,
                    "duration": 0.1578944999999976
                },
                {
                    "name": "G4",
                    "midi": 67,
                    "time": 153.94713749999693,
                    "velocity": 0.5354330708661418,
                    "duration": 0.1578944999999976
                },
                {
                    "name": "G3",
                    "midi": 55,
                    "time": 154.10503199999692,
                    "velocity": 0.5511811023622047,
                    "duration": 0.05263149999998973
                },
                {
                    "name": "G#3",
                    "midi": 56,
                    "time": 154.15766349999691,
                    "velocity": 0.5826771653543307,
                    "duration": 0.05263149999998973
                },
                {
                    "name": "A#3",
                    "midi": 58,
                    "time": 154.2102949999969,
                    "velocity": 0.6062992125984252,
                    "duration": 0.05263149999998973
                },
                {
                    "name": "B3",
                    "midi": 59,
                    "time": 154.2629264999969,
                    "velocity": 0.6929133858267716,
                    "duration": 0.1578944999999976
                },
                {
                    "name": "B5",
                    "midi": 83,
                    "time": 154.4208209999969,
                    "velocity": 0.6220472440944882,
                    "duration": 0.1578944999999976
                },
                {
                    "name": "B4",
                    "midi": 71,
                    "time": 154.4208209999969,
                    "velocity": 0.5354330708661418,
                    "duration": 0.1578944999999976
                },
                {
                    "name": "F5",
                    "midi": 77,
                    "time": 154.5787154999969,
                    "velocity": 0.6377952755905512,
                    "duration": 0.1578944999999976
                },
                {
                    "name": "F4",
                    "midi": 65,
                    "time": 154.5787154999969,
                    "velocity": 0.5433070866141733,
                    "duration": 0.1578944999999976
                },
                {
                    "name": "F3",
                    "midi": 53,
                    "time": 154.7366099999969,
                    "velocity": 0.5590551181102362,
                    "duration": 0.05263149999998973
                },
                {
                    "name": "G#3",
                    "midi": 56,
                    "time": 154.78924149999688,
                    "velocity": 0.5905511811023622,
                    "duration": 0.05263149999998973
                },
                {
                    "name": "A#3",
                    "midi": 58,
                    "time": 154.84187299999687,
                    "velocity": 0.6141732283464567,
                    "duration": 0.05263149999998973
                },
                {
                    "name": "B3",
                    "midi": 59,
                    "time": 154.89450449999686,
                    "velocity": 0.7165354330708661,
                    "duration": 0.1578944999999976
                },
                {
                    "name": "B5",
                    "midi": 83,
                    "time": 155.05239899999685,
                    "velocity": 0.6377952755905512,
                    "duration": 0.1578944999999976
                },
                {
                    "name": "B4",
                    "midi": 71,
                    "time": 155.05239899999685,
                    "velocity": 0.5433070866141733,
                    "duration": 0.1578944999999976
                },
                {
                    "name": "F5",
                    "midi": 77,
                    "time": 155.21029349999685,
                    "velocity": 0.6535433070866141,
                    "duration": 0.1578944999999976
                },
                {
                    "name": "F4",
                    "midi": 65,
                    "time": 155.21029349999685,
                    "velocity": 0.5511811023622047,
                    "duration": 0.1578944999999976
                },
                {
                    "name": "F3",
                    "midi": 53,
                    "time": 155.36818799999685,
                    "velocity": 0.5748031496062992,
                    "duration": 0.05263149999998973
                },
                {
                    "name": "A3",
                    "midi": 57,
                    "time": 155.42081949999684,
                    "velocity": 0.6141732283464567,
                    "duration": 0.05263149999998973
                },
                {
                    "name": "A#3",
                    "midi": 58,
                    "time": 155.47345099999683,
                    "velocity": 0.6220472440944882,
                    "duration": 0.05263149999998973
                },
                {
                    "name": "B3",
                    "midi": 59,
                    "time": 155.52608249999682,
                    "velocity": 0.7401574803149606,
                    "duration": 0.1578944999999976
                },
                {
                    "name": "B5",
                    "midi": 83,
                    "time": 155.68397699999682,
                    "velocity": 0.6535433070866141,
                    "duration": 0.1578944999999976
                },
                {
                    "name": "B4",
                    "midi": 71,
                    "time": 155.68397699999682,
                    "velocity": 0.5511811023622047,
                    "duration": 0.1578944999999976
                },
                {
                    "name": "F5",
                    "midi": 77,
                    "time": 155.8418714999968,
                    "velocity": 0.6614173228346457,
                    "duration": 0.1578944999999976
                },
                {
                    "name": "F4",
                    "midi": 65,
                    "time": 155.8418714999968,
                    "velocity": 0.5590551181102362,
                    "duration": 0.1578944999999976
                },
                {
                    "name": "A3",
                    "midi": 57,
                    "time": 155.9997659999968,
                    "velocity": 0.7244094488188977,
                    "duration": 0.05263149999998973
                },
                {
                    "name": "G3",
                    "midi": 55,
                    "time": 156.0523974999968,
                    "velocity": 0.7480314960629921,
                    "duration": 0.05263149999998973
                },
                {
                    "name": "F3",
                    "midi": 53,
                    "time": 156.1050289999968,
                    "velocity": 0.7795275590551181,
                    "duration": 0.05263149999998973
                },
                {
                    "name": "E3",
                    "midi": 52,
                    "time": 156.15766049999678,
                    "velocity": 0.8346456692913385,
                    "duration": 0.1578944999999976
                },
                {
                    "name": "B5",
                    "midi": 83,
                    "time": 156.47344949999678,
                    "velocity": 0.7086614173228346,
                    "duration": 0.1578944999999976
                },
                {
                    "name": "A5",
                    "midi": 81,
                    "time": 156.47344949999678,
                    "velocity": 0.7086614173228346,
                    "duration": 0.1578944999999976
                },
                {
                    "name": "E5",
                    "midi": 76,
                    "time": 156.47344949999678,
                    "velocity": 0.6062992125984252,
                    "duration": 0.1578944999999976
                },
                {
                    "name": "B4",
                    "midi": 71,
                    "time": 156.47344949999678,
                    "velocity": 0.6062992125984252,
                    "duration": 0.1578944999999976
                },
                {
                    "name": "E4",
                    "midi": 64,
                    "time": 156.78923849999677,
                    "velocity": 0.7559055118110236,
                    "duration": 0.1578944999999976
                },
                {
                    "name": "E6",
                    "midi": 88,
                    "time": 157.10502749999677,
                    "velocity": 0.7007874015748031,
                    "duration": 0.1578944999999976
                },
                {
                    "name": "B5",
                    "midi": 83,
                    "time": 157.10502749999677,
                    "velocity": 0.7007874015748031,
                    "duration": 0.1578944999999976
                },
                {
                    "name": "G#5",
                    "midi": 80,
                    "time": 157.10502749999677,
                    "velocity": 0.5905511811023622,
                    "duration": 0.1578944999999976
                },
                {
                    "name": "E5",
                    "midi": 76,
                    "time": 157.10502749999677,
                    "velocity": 0.5905511811023622,
                    "duration": 0.1578944999999976
                },
                {
                    "name": "E3",
                    "midi": 52,
                    "time": 157.47344799999675,
                    "velocity": 0.4645669291338583,
                    "duration": 0.05263149999998973
                },
                {
                    "name": "A3",
                    "midi": 57,
                    "time": 157.52607949999674,
                    "velocity": 0.4645669291338583,
                    "duration": 0.05263149999998973
                },
                {
                    "name": "E4",
                    "midi": 64,
                    "time": 157.57871099999673,
                    "velocity": 0.5433070866141733,
                    "duration": 0.04736834999999928
                },
                {
                    "name": "C4",
                    "midi": 60,
                    "time": 157.57871099999673,
                    "velocity": 0.5433070866141733,
                    "duration": 0.04736834999999928
                },
                {
                    "name": "E4",
                    "midi": 64,
                    "time": 157.63134249999672,
                    "velocity": 0.4645669291338583,
                    "duration": 0.05263149999998973
                },
                {
                    "name": "A4",
                    "midi": 69,
                    "time": 157.6839739999967,
                    "velocity": 0.4645669291338583,
                    "duration": 0.05263149999998973
                },
                {
                    "name": "E5",
                    "midi": 76,
                    "time": 157.7366054999967,
                    "velocity": 0.5590551181102362,
                    "duration": 0.04736834999999928
                },
                {
                    "name": "C5",
                    "midi": 72,
                    "time": 157.7366054999967,
                    "velocity": 0.47244094488188976,
                    "duration": 0.04736834999999928
                },
                {
                    "name": "E5",
                    "midi": 76,
                    "time": 157.7892369999967,
                    "velocity": 0.4881889763779528,
                    "duration": 0.05263149999998973
                },
                {
                    "name": "A5",
                    "midi": 81,
                    "time": 157.84186849999668,
                    "velocity": 0.4881889763779528,
                    "duration": 0.05263149999998973
                },
                {
                    "name": "E6",
                    "midi": 88,
                    "time": 157.89449999999667,
                    "velocity": 0.5826771653543307,
                    "duration": 0.04736834999999928
                },
                {
                    "name": "C6",
                    "midi": 84,
                    "time": 157.89449999999667,
                    "velocity": 0.4881889763779528,
                    "duration": 0.04736834999999928
                },
                {
                    "name": "E6",
                    "midi": 88,
                    "time": 157.94713149999666,
                    "velocity": 0.5196850393700787,
                    "duration": 0.05263149999998973
                },
                {
                    "name": "A6",
                    "midi": 93,
                    "time": 157.99976299999665,
                    "velocity": 0.5196850393700787,
                    "duration": 0.05263149999998973
                },
                {
                    "name": "E7",
                    "midi": 100,
                    "time": 158.05239449999664,
                    "velocity": 0.5669291338582677,
                    "duration": 0.05263149999998973
                },
                {
                    "name": "C7",
                    "midi": 96,
                    "time": 158.05239449999664,
                    "velocity": 0.47244094488188976,
                    "duration": 0.05263149999998973
                },
                {
                    "name": "A6",
                    "midi": 93,
                    "time": 158.10502599999663,
                    "velocity": 0.5039370078740157,
                    "duration": 0.05263149999998973
                },
                {
                    "name": "E6",
                    "midi": 88,
                    "time": 158.15765749999662,
                    "velocity": 0.5039370078740157,
                    "duration": 0.04736834999999928
                },
                {
                    "name": "E6",
                    "midi": 88,
                    "time": 158.2102889999966,
                    "velocity": 0.5511811023622047,
                    "duration": 0.05263149999998973
                },
                {
                    "name": "C6",
                    "midi": 84,
                    "time": 158.2102889999966,
                    "velocity": 0.4645669291338583,
                    "duration": 0.05263149999998973
                },
                {
                    "name": "A5",
                    "midi": 81,
                    "time": 158.2629204999966,
                    "velocity": 0.5196850393700787,
                    "duration": 0.05263149999998973
                },
                {
                    "name": "E5",
                    "midi": 76,
                    "time": 158.3155519999966,
                    "velocity": 0.4881889763779528,
                    "duration": 0.04736834999999928
                },
                {
                    "name": "E5",
                    "midi": 76,
                    "time": 158.36818349999658,
                    "velocity": 0.48031496062992124,
                    "duration": 0.05263149999998973
                },
                {
                    "name": "C5",
                    "midi": 72,
                    "time": 158.36818349999658,
                    "velocity": 0.3464566929133858,
                    "duration": 0.05263149999998973
                },
                {
                    "name": "A4",
                    "midi": 69,
                    "time": 158.42081499999657,
                    "velocity": 0.5354330708661418,
                    "duration": 0.05263149999998973
                },
                {
                    "name": "E4",
                    "midi": 64,
                    "time": 158.47344649999656,
                    "velocity": 0.49606299212598426,
                    "duration": 0.04736834999999928
                },
                {
                    "name": "E4",
                    "midi": 64,
                    "time": 158.52607799999655,
                    "velocity": 0.4881889763779528,
                    "duration": 0.05263149999998973
                },
                {
                    "name": "C4",
                    "midi": 60,
                    "time": 158.52607799999655,
                    "velocity": 0.4094488188976378,
                    "duration": 0.05263149999998973
                },
                {
                    "name": "A3",
                    "midi": 57,
                    "time": 158.57870949999653,
                    "velocity": 0.48031496062992124,
                    "duration": 0.05263149999998973
                },
                {
                    "name": "E3",
                    "midi": 52,
                    "time": 158.63134099999652,
                    "velocity": 0.4645669291338583,
                    "duration": 0.05263149999998973
                },
                {
                    "name": "E3",
                    "midi": 52,
                    "time": 158.7366039999965,
                    "velocity": 0.4645669291338583,
                    "duration": 0.05263149999998973
                },
                {
                    "name": "A3",
                    "midi": 57,
                    "time": 158.7892354999965,
                    "velocity": 0.4645669291338583,
                    "duration": 0.05263149999998973
                },
                {
                    "name": "E4",
                    "midi": 64,
                    "time": 158.84186699999648,
                    "velocity": 0.5433070866141733,
                    "duration": 0.04736834999999928
                },
                {
                    "name": "C#4",
                    "midi": 61,
                    "time": 158.84186699999648,
                    "velocity": 0.5433070866141733,
                    "duration": 0.04736834999999928
                },
                {
                    "name": "E4",
                    "midi": 64,
                    "time": 158.89449849999647,
                    "velocity": 0.4645669291338583,
                    "duration": 0.05263149999998973
                },
                {
                    "name": "A4",
                    "midi": 69,
                    "time": 158.94712999999646,
                    "velocity": 0.4645669291338583,
                    "duration": 0.05263149999998973
                },
                {
                    "name": "E5",
                    "midi": 76,
                    "time": 158.99976149999645,
                    "velocity": 0.5590551181102362,
                    "duration": 0.04736834999999928
                },
                {
                    "name": "C#5",
                    "midi": 73,
                    "time": 158.99976149999645,
                    "velocity": 0.47244094488188976,
                    "duration": 0.04736834999999928
                },
                {
                    "name": "E5",
                    "midi": 76,
                    "time": 159.05239299999644,
                    "velocity": 0.4881889763779528,
                    "duration": 0.05263149999998973
                },
                {
                    "name": "A5",
                    "midi": 81,
                    "time": 159.10502449999643,
                    "velocity": 0.4881889763779528,
                    "duration": 0.05263149999998973
                },
                {
                    "name": "E6",
                    "midi": 88,
                    "time": 159.15765599999642,
                    "velocity": 0.5826771653543307,
                    "duration": 0.04736834999999928
                },
                {
                    "name": "C#6",
                    "midi": 85,
                    "time": 159.15765599999642,
                    "velocity": 0.4881889763779528,
                    "duration": 0.04736834999999928
                },
                {
                    "name": "E6",
                    "midi": 88,
                    "time": 159.2102874999964,
                    "velocity": 0.5196850393700787,
                    "duration": 0.05263149999998973
                },
                {
                    "name": "A6",
                    "midi": 93,
                    "time": 159.2629189999964,
                    "velocity": 0.5196850393700787,
                    "duration": 0.05263149999998973
                },
                {
                    "name": "E7",
                    "midi": 100,
                    "time": 159.3155504999964,
                    "velocity": 0.5669291338582677,
                    "duration": 0.05263149999998973
                },
                {
                    "name": "C#7",
                    "midi": 97,
                    "time": 159.3155504999964,
                    "velocity": 0.47244094488188976,
                    "duration": 0.05263149999998973
                },
                {
                    "name": "A6",
                    "midi": 93,
                    "time": 159.36818199999638,
                    "velocity": 0.5039370078740157,
                    "duration": 0.05263149999998973
                },
                {
                    "name": "E6",
                    "midi": 88,
                    "time": 159.42081349999637,
                    "velocity": 0.5039370078740157,
                    "duration": 0.04736834999999928
                },
                {
                    "name": "E6",
                    "midi": 88,
                    "time": 159.47344499999636,
                    "velocity": 0.5511811023622047,
                    "duration": 0.05263149999998973
                },
                {
                    "name": "C#6",
                    "midi": 85,
                    "time": 159.47344499999636,
                    "velocity": 0.4645669291338583,
                    "duration": 0.05263149999998973
                },
                {
                    "name": "A5",
                    "midi": 81,
                    "time": 159.52607649999635,
                    "velocity": 0.5196850393700787,
                    "duration": 0.05263149999998973
                },
                {
                    "name": "E5",
                    "midi": 76,
                    "time": 159.57870799999634,
                    "velocity": 0.4881889763779528,
                    "duration": 0.04736834999999928
                },
                {
                    "name": "E5",
                    "midi": 76,
                    "time": 159.63133949999633,
                    "velocity": 0.48031496062992124,
                    "duration": 0.05263149999998973
                },
                {
                    "name": "C#5",
                    "midi": 73,
                    "time": 159.63133949999633,
                    "velocity": 0.3464566929133858,
                    "duration": 0.05263149999998973
                },
                {
                    "name": "A4",
                    "midi": 69,
                    "time": 159.68397099999632,
                    "velocity": 0.5354330708661418,
                    "duration": 0.05263149999998973
                },
                {
                    "name": "E4",
                    "midi": 64,
                    "time": 159.7366024999963,
                    "velocity": 0.49606299212598426,
                    "duration": 0.04736834999999928
                },
                {
                    "name": "E4",
                    "midi": 64,
                    "time": 159.7892339999963,
                    "velocity": 0.4881889763779528,
                    "duration": 0.05263149999998973
                },
                {
                    "name": "C#4",
                    "midi": 61,
                    "time": 159.7892339999963,
                    "velocity": 0.4094488188976378,
                    "duration": 0.05263149999998973
                },
                {
                    "name": "A3",
                    "midi": 57,
                    "time": 159.8418654999963,
                    "velocity": 0.48031496062992124,
                    "duration": 0.05263149999998973
                },
                {
                    "name": "E3",
                    "midi": 52,
                    "time": 159.89449699999628,
                    "velocity": 0.4645669291338583,
                    "duration": 0.05263149999998973
                },
                {
                    "name": "F3",
                    "midi": 53,
                    "time": 159.99975999999626,
                    "velocity": 0.4645669291338583,
                    "duration": 0.05263149999998973
                },
                {
                    "name": "A3",
                    "midi": 57,
                    "time": 160.05239149999625,
                    "velocity": 0.4645669291338583,
                    "duration": 0.05263149999998973
                },
                {
                    "name": "F4",
                    "midi": 65,
                    "time": 160.10502299999624,
                    "velocity": 0.5433070866141733,
                    "duration": 0.04736834999999928
                },
                {
                    "name": "D4",
                    "midi": 62,
                    "time": 160.10502299999624,
                    "velocity": 0.5433070866141733,
                    "duration": 0.04736834999999928
                },
                {
                    "name": "F4",
                    "midi": 65,
                    "time": 160.15765449999623,
                    "velocity": 0.4645669291338583,
                    "duration": 0.05263149999998973
                },
                {
                    "name": "A4",
                    "midi": 69,
                    "time": 160.21028599999622,
                    "velocity": 0.4645669291338583,
                    "duration": 0.05263149999998973
                },
                {
                    "name": "F5",
                    "midi": 77,
                    "time": 160.2629174999962,
                    "velocity": 0.5590551181102362,
                    "duration": 0.04736834999999928
                },
                {
                    "name": "D5",
                    "midi": 74,
                    "time": 160.2629174999962,
                    "velocity": 0.47244094488188976,
                    "duration": 0.04736834999999928
                },
                {
                    "name": "F5",
                    "midi": 77,
                    "time": 160.3155489999962,
                    "velocity": 0.4881889763779528,
                    "duration": 0.05263149999998973
                },
                {
                    "name": "A5",
                    "midi": 81,
                    "time": 160.36818049999619,
                    "velocity": 0.4881889763779528,
                    "duration": 0.05263149999998973
                },
                {
                    "name": "F6",
                    "midi": 89,
                    "time": 160.42081199999618,
                    "velocity": 0.5826771653543307,
                    "duration": 0.04736834999999928
                },
                {
                    "name": "D6",
                    "midi": 86,
                    "time": 160.42081199999618,
                    "velocity": 0.4881889763779528,
                    "duration": 0.04736834999999928
                },
                {
                    "name": "F6",
                    "midi": 89,
                    "time": 160.47344349999616,
                    "velocity": 0.5196850393700787,
                    "duration": 0.05263149999998973
                },
                {
                    "name": "A6",
                    "midi": 93,
                    "time": 160.52607499999615,
                    "velocity": 0.5196850393700787,
                    "duration": 0.05263149999998973
                },
                {
                    "name": "F7",
                    "midi": 101,
                    "time": 160.57870649999614,
                    "velocity": 0.5669291338582677,
                    "duration": 0.05263149999998973
                },
                {
                    "name": "D7",
                    "midi": 98,
                    "time": 160.57870649999614,
                    "velocity": 0.47244094488188976,
                    "duration": 0.05263149999998973
                },
                {
                    "name": "A6",
                    "midi": 93,
                    "time": 160.63133799999613,
                    "velocity": 0.5039370078740157,
                    "duration": 0.05263149999998973
                },
                {
                    "name": "F6",
                    "midi": 89,
                    "time": 160.68396949999612,
                    "velocity": 0.5039370078740157,
                    "duration": 0.04736834999999928
                },
                {
                    "name": "F6",
                    "midi": 89,
                    "time": 160.7366009999961,
                    "velocity": 0.5511811023622047,
                    "duration": 0.05263149999998973
                },
                {
                    "name": "D6",
                    "midi": 86,
                    "time": 160.7366009999961,
                    "velocity": 0.4645669291338583,
                    "duration": 0.05263149999998973
                },
                {
                    "name": "A5",
                    "midi": 81,
                    "time": 160.7892324999961,
                    "velocity": 0.5196850393700787,
                    "duration": 0.05263149999998973
                },
                {
                    "name": "F5",
                    "midi": 77,
                    "time": 160.8418639999961,
                    "velocity": 0.4881889763779528,
                    "duration": 0.04736834999999928
                },
                {
                    "name": "F5",
                    "midi": 77,
                    "time": 160.89449549999608,
                    "velocity": 0.48031496062992124,
                    "duration": 0.05263149999998973
                },
                {
                    "name": "D5",
                    "midi": 74,
                    "time": 160.89449549999608,
                    "velocity": 0.3464566929133858,
                    "duration": 0.05263149999998973
                },
                {
                    "name": "A4",
                    "midi": 69,
                    "time": 160.94712699999607,
                    "velocity": 0.5354330708661418,
                    "duration": 0.05263149999998973
                },
                {
                    "name": "F4",
                    "midi": 65,
                    "time": 160.99975849999606,
                    "velocity": 0.49606299212598426,
                    "duration": 0.04736834999999928
                },
                {
                    "name": "F4",
                    "midi": 65,
                    "time": 161.05238999999605,
                    "velocity": 0.5039370078740157,
                    "duration": 0.05263149999998973
                },
                {
                    "name": "D4",
                    "midi": 62,
                    "time": 161.05238999999605,
                    "velocity": 0.5039370078740157,
                    "duration": 0.05263149999998973
                },
                {
                    "name": "A3",
                    "midi": 57,
                    "time": 161.10502149999604,
                    "velocity": 0.5039370078740157,
                    "duration": 0.05263149999998973
                },
                {
                    "name": "F3",
                    "midi": 53,
                    "time": 161.15765299999603,
                    "velocity": 0.5275590551181102,
                    "duration": 0.05263149999998973
                },
                {
                    "name": "B5",
                    "midi": 83,
                    "time": 161.36817899999602,
                    "velocity": 0.6692913385826772,
                    "duration": 0.1578944999999976
                },
                {
                    "name": "B4",
                    "midi": 71,
                    "time": 161.36817899999602,
                    "velocity": 0.5590551181102362,
                    "duration": 0.1578944999999976
                },
                {
                    "name": "D5",
                    "midi": 74,
                    "time": 161.36817899999602,
                    "velocity": 0.5590551181102362,
                    "duration": 0.1578944999999976
                },
                {
                    "name": "D6",
                    "midi": 86,
                    "time": 161.683967999996,
                    "velocity": 0.6692913385826772,
                    "duration": 0.1578944999999976
                },
                {
                    "name": "D5",
                    "midi": 74,
                    "time": 161.683967999996,
                    "velocity": 0.5590551181102362,
                    "duration": 0.1578944999999976
                },
                {
                    "name": "F5",
                    "midi": 77,
                    "time": 161.683967999996,
                    "velocity": 0.5590551181102362,
                    "duration": 0.1578944999999976
                },
                {
                    "name": "F6",
                    "midi": 89,
                    "time": 161.999756999996,
                    "velocity": 0.6692913385826772,
                    "duration": 0.1578944999999976
                },
                {
                    "name": "F5",
                    "midi": 77,
                    "time": 161.999756999996,
                    "velocity": 0.5590551181102362,
                    "duration": 0.1578944999999976
                },
                {
                    "name": "G#5",
                    "midi": 80,
                    "time": 161.999756999996,
                    "velocity": 0.5590551181102362,
                    "duration": 0.1578944999999976
                },
                {
                    "name": "E6",
                    "midi": 88,
                    "time": 162.315545999996,
                    "velocity": 0.6692913385826772,
                    "duration": 0.1578944999999976
                },
                {
                    "name": "E5",
                    "midi": 76,
                    "time": 162.315545999996,
                    "velocity": 0.5590551181102362,
                    "duration": 0.1578944999999976
                },
                {
                    "name": "G#5",
                    "midi": 80,
                    "time": 162.315545999996,
                    "velocity": 0.5590551181102362,
                    "duration": 0.1578944999999976
                },
                {
                    "name": "E3",
                    "midi": 52,
                    "time": 162.526071999996,
                    "velocity": 0.4645669291338583,
                    "duration": 0.05263149999998973
                },
                {
                    "name": "A3",
                    "midi": 57,
                    "time": 162.57870349999598,
                    "velocity": 0.4645669291338583,
                    "duration": 0.05263149999998973
                },
                {
                    "name": "E4",
                    "midi": 64,
                    "time": 162.63133499999597,
                    "velocity": 0.5433070866141733,
                    "duration": 0.04736834999999928
                },
                {
                    "name": "C4",
                    "midi": 60,
                    "time": 162.63133499999597,
                    "velocity": 0.5433070866141733,
                    "duration": 0.04736834999999928
                },
                {
                    "name": "E4",
                    "midi": 64,
                    "time": 162.68396649999596,
                    "velocity": 0.4645669291338583,
                    "duration": 0.05263149999998973
                },
                {
                    "name": "A4",
                    "midi": 69,
                    "time": 162.73659799999595,
                    "velocity": 0.4645669291338583,
                    "duration": 0.05263149999998973
                },
                {
                    "name": "E5",
                    "midi": 76,
                    "time": 162.78922949999594,
                    "velocity": 0.5590551181102362,
                    "duration": 0.04736834999999928
                },
                {
                    "name": "C5",
                    "midi": 72,
                    "time": 162.78922949999594,
                    "velocity": 0.47244094488188976,
                    "duration": 0.04736834999999928
                },
                {
                    "name": "E5",
                    "midi": 76,
                    "time": 162.84186099999593,
                    "velocity": 0.4881889763779528,
                    "duration": 0.05263149999998973
                },
                {
                    "name": "A5",
                    "midi": 81,
                    "time": 162.89449249999592,
                    "velocity": 0.4881889763779528,
                    "duration": 0.05263149999998973
                },
                {
                    "name": "E6",
                    "midi": 88,
                    "time": 162.9471239999959,
                    "velocity": 0.5826771653543307,
                    "duration": 0.04736834999999928
                },
                {
                    "name": "C6",
                    "midi": 84,
                    "time": 162.9471239999959,
                    "velocity": 0.4881889763779528,
                    "duration": 0.04736834999999928
                },
                {
                    "name": "E6",
                    "midi": 88,
                    "time": 162.9997554999959,
                    "velocity": 0.5196850393700787,
                    "duration": 0.05263149999998973
                },
                {
                    "name": "A6",
                    "midi": 93,
                    "time": 163.0523869999959,
                    "velocity": 0.5196850393700787,
                    "duration": 0.05263149999998973
                },
                {
                    "name": "E7",
                    "midi": 100,
                    "time": 163.10501849999588,
                    "velocity": 0.5669291338582677,
                    "duration": 0.05263149999998973
                },
                {
                    "name": "C7",
                    "midi": 96,
                    "time": 163.10501849999588,
                    "velocity": 0.47244094488188976,
                    "duration": 0.05263149999998973
                },
                {
                    "name": "A6",
                    "midi": 93,
                    "time": 163.15764999999587,
                    "velocity": 0.5039370078740157,
                    "duration": 0.05263149999998973
                },
                {
                    "name": "E6",
                    "midi": 88,
                    "time": 163.21028149999586,
                    "velocity": 0.5039370078740157,
                    "duration": 0.04736834999999928
                },
                {
                    "name": "E6",
                    "midi": 88,
                    "time": 163.26291299999585,
                    "velocity": 0.5511811023622047,
                    "duration": 0.05263149999998973
                },
                {
                    "name": "C6",
                    "midi": 84,
                    "time": 163.26291299999585,
                    "velocity": 0.4645669291338583,
                    "duration": 0.05263149999998973
                },
                {
                    "name": "A5",
                    "midi": 81,
                    "time": 163.31554449999584,
                    "velocity": 0.5196850393700787,
                    "duration": 0.05263149999998973
                },
                {
                    "name": "E5",
                    "midi": 76,
                    "time": 163.36817599999583,
                    "velocity": 0.4881889763779528,
                    "duration": 0.04736834999999928
                },
                {
                    "name": "E5",
                    "midi": 76,
                    "time": 163.42080749999582,
                    "velocity": 0.48031496062992124,
                    "duration": 0.05263149999998973
                },
                {
                    "name": "C5",
                    "midi": 72,
                    "time": 163.42080749999582,
                    "velocity": 0.3464566929133858,
                    "duration": 0.05263149999998973
                },
                {
                    "name": "A4",
                    "midi": 69,
                    "time": 163.4734389999958,
                    "velocity": 0.5354330708661418,
                    "duration": 0.05263149999998973
                },
                {
                    "name": "E4",
                    "midi": 64,
                    "time": 163.5260704999958,
                    "velocity": 0.49606299212598426,
                    "duration": 0.04736834999999928
                },
                {
                    "name": "E4",
                    "midi": 64,
                    "time": 163.5787019999958,
                    "velocity": 0.4881889763779528,
                    "duration": 0.05263149999998973
                },
                {
                    "name": "C4",
                    "midi": 60,
                    "time": 163.5787019999958,
                    "velocity": 0.4094488188976378,
                    "duration": 0.05263149999998973
                },
                {
                    "name": "A3",
                    "midi": 57,
                    "time": 163.63133349999578,
                    "velocity": 0.48031496062992124,
                    "duration": 0.05263149999998973
                },
                {
                    "name": "E3",
                    "midi": 52,
                    "time": 163.68396499999577,
                    "velocity": 0.4645669291338583,
                    "duration": 0.05263149999998973
                },
                {
                    "name": "E3",
                    "midi": 52,
                    "time": 163.78922799999575,
                    "velocity": 0.4645669291338583,
                    "duration": 0.05263149999998973
                },
                {
                    "name": "A3",
                    "midi": 57,
                    "time": 163.84185949999573,
                    "velocity": 0.4645669291338583,
                    "duration": 0.05263149999998973
                },
                {
                    "name": "E4",
                    "midi": 64,
                    "time": 163.89449099999572,
                    "velocity": 0.5433070866141733,
                    "duration": 0.04736834999999928
                },
                {
                    "name": "C#4",
                    "midi": 61,
                    "time": 163.89449099999572,
                    "velocity": 0.5433070866141733,
                    "duration": 0.04736834999999928
                },
                {
                    "name": "E4",
                    "midi": 64,
                    "time": 163.94712249999571,
                    "velocity": 0.4645669291338583,
                    "duration": 0.05263149999998973
                },
                {
                    "name": "A4",
                    "midi": 69,
                    "time": 163.9997539999957,
                    "velocity": 0.4645669291338583,
                    "duration": 0.05263149999998973
                },
                {
                    "name": "E5",
                    "midi": 76,
                    "time": 164.0523854999957,
                    "velocity": 0.5590551181102362,
                    "duration": 0.04736834999999928
                },
                {
                    "name": "C#5",
                    "midi": 73,
                    "time": 164.0523854999957,
                    "velocity": 0.47244094488188976,
                    "duration": 0.04736834999999928
                },
                {
                    "name": "E5",
                    "midi": 76,
                    "time": 164.10501699999568,
                    "velocity": 0.4881889763779528,
                    "duration": 0.05263149999998973
                },
                {
                    "name": "A5",
                    "midi": 81,
                    "time": 164.15764849999567,
                    "velocity": 0.4881889763779528,
                    "duration": 0.05263149999998973
                },
                {
                    "name": "E6",
                    "midi": 88,
                    "time": 164.21027999999566,
                    "velocity": 0.5826771653543307,
                    "duration": 0.04736834999999928
                },
                {
                    "name": "C#6",
                    "midi": 85,
                    "time": 164.21027999999566,
                    "velocity": 0.4881889763779528,
                    "duration": 0.04736834999999928
                },
                {
                    "name": "E6",
                    "midi": 88,
                    "time": 164.26291149999565,
                    "velocity": 0.5196850393700787,
                    "duration": 0.05263149999998973
                },
                {
                    "name": "A6",
                    "midi": 93,
                    "time": 164.31554299999564,
                    "velocity": 0.5196850393700787,
                    "duration": 0.05263149999998973
                },
                {
                    "name": "E7",
                    "midi": 100,
                    "time": 164.36817449999563,
                    "velocity": 0.5669291338582677,
                    "duration": 0.05263149999998973
                },
                {
                    "name": "C#7",
                    "midi": 97,
                    "time": 164.36817449999563,
                    "velocity": 0.47244094488188976,
                    "duration": 0.05263149999998973
                },
                {
                    "name": "A6",
                    "midi": 93,
                    "time": 164.42080599999562,
                    "velocity": 0.5039370078740157,
                    "duration": 0.05263149999998973
                },
                {
                    "name": "E6",
                    "midi": 88,
                    "time": 164.4734374999956,
                    "velocity": 0.5039370078740157,
                    "duration": 0.04736834999999928
                },
                {
                    "name": "E6",
                    "midi": 88,
                    "time": 164.5260689999956,
                    "velocity": 0.5511811023622047,
                    "duration": 0.05263149999998973
                },
                {
                    "name": "C#6",
                    "midi": 85,
                    "time": 164.5260689999956,
                    "velocity": 0.4645669291338583,
                    "duration": 0.05263149999998973
                },
                {
                    "name": "A5",
                    "midi": 81,
                    "time": 164.5787004999956,
                    "velocity": 0.5196850393700787,
                    "duration": 0.05263149999998973
                },
                {
                    "name": "E5",
                    "midi": 76,
                    "time": 164.63133199999558,
                    "velocity": 0.4881889763779528,
                    "duration": 0.04736834999999928
                },
                {
                    "name": "E5",
                    "midi": 76,
                    "time": 164.68396349999557,
                    "velocity": 0.48031496062992124,
                    "duration": 0.05263149999998973
                },
                {
                    "name": "C#5",
                    "midi": 73,
                    "time": 164.68396349999557,
                    "velocity": 0.3464566929133858,
                    "duration": 0.05263149999998973
                },
                {
                    "name": "A4",
                    "midi": 69,
                    "time": 164.73659499999556,
                    "velocity": 0.5354330708661418,
                    "duration": 0.05263149999998973
                },
                {
                    "name": "E4",
                    "midi": 64,
                    "time": 164.78922649999555,
                    "velocity": 0.49606299212598426,
                    "duration": 0.04736834999999928
                },
                {
                    "name": "E4",
                    "midi": 64,
                    "time": 164.84185799999554,
                    "velocity": 0.4881889763779528,
                    "duration": 0.05263149999998973
                },
                {
                    "name": "C#4",
                    "midi": 61,
                    "time": 164.84185799999554,
                    "velocity": 0.4094488188976378,
                    "duration": 0.05263149999998973
                },
                {
                    "name": "A3",
                    "midi": 57,
                    "time": 164.89448949999553,
                    "velocity": 0.48031496062992124,
                    "duration": 0.05263149999998973
                },
                {
                    "name": "E3",
                    "midi": 52,
                    "time": 164.94712099999552,
                    "velocity": 0.4645669291338583,
                    "duration": 0.05263149999998973
                },
                {
                    "name": "F3",
                    "midi": 53,
                    "time": 165.0523839999955,
                    "velocity": 0.4645669291338583,
                    "duration": 0.05263149999998973
                },
                {
                    "name": "A3",
                    "midi": 57,
                    "time": 165.1050154999955,
                    "velocity": 0.4645669291338583,
                    "duration": 0.05263149999998973
                },
                {
                    "name": "F4",
                    "midi": 65,
                    "time": 165.15764699999548,
                    "velocity": 0.5433070866141733,
                    "duration": 0.04736834999999928
                },
                {
                    "name": "D4",
                    "midi": 62,
                    "time": 165.15764699999548,
                    "velocity": 0.5433070866141733,
                    "duration": 0.04736834999999928
                },
                {
                    "name": "F4",
                    "midi": 65,
                    "time": 165.21027849999547,
                    "velocity": 0.4645669291338583,
                    "duration": 0.05263149999998973
                },
                {
                    "name": "A4",
                    "midi": 69,
                    "time": 165.26290999999546,
                    "velocity": 0.4645669291338583,
                    "duration": 0.05263149999998973
                },
                {
                    "name": "F5",
                    "midi": 77,
                    "time": 165.31554149999545,
                    "velocity": 0.5590551181102362,
                    "duration": 0.04736834999999928
                },
                {
                    "name": "D5",
                    "midi": 74,
                    "time": 165.31554149999545,
                    "velocity": 0.47244094488188976,
                    "duration": 0.04736834999999928
                },
                {
                    "name": "F5",
                    "midi": 77,
                    "time": 165.36817299999544,
                    "velocity": 0.4881889763779528,
                    "duration": 0.05263149999998973
                },
                {
                    "name": "A5",
                    "midi": 81,
                    "time": 165.42080449999543,
                    "velocity": 0.4881889763779528,
                    "duration": 0.05263149999998973
                },
                {
                    "name": "F6",
                    "midi": 89,
                    "time": 165.47343599999542,
                    "velocity": 0.5826771653543307,
                    "duration": 0.04736834999999928
                },
                {
                    "name": "D6",
                    "midi": 86,
                    "time": 165.47343599999542,
                    "velocity": 0.4881889763779528,
                    "duration": 0.04736834999999928
                },
                {
                    "name": "F6",
                    "midi": 89,
                    "time": 165.5260674999954,
                    "velocity": 0.5196850393700787,
                    "duration": 0.05263149999998973
                },
                {
                    "name": "A6",
                    "midi": 93,
                    "time": 165.5786989999954,
                    "velocity": 0.5196850393700787,
                    "duration": 0.05263149999998973
                },
                {
                    "name": "F7",
                    "midi": 101,
                    "time": 165.63133049999539,
                    "velocity": 0.5669291338582677,
                    "duration": 0.05263149999998973
                },
                {
                    "name": "D7",
                    "midi": 98,
                    "time": 165.63133049999539,
                    "velocity": 0.47244094488188976,
                    "duration": 0.05263149999998973
                },
                {
                    "name": "A6",
                    "midi": 93,
                    "time": 165.68396199999538,
                    "velocity": 0.5039370078740157,
                    "duration": 0.05263149999998973
                },
                {
                    "name": "F6",
                    "midi": 89,
                    "time": 165.73659349999537,
                    "velocity": 0.5039370078740157,
                    "duration": 0.04736834999999928
                },
                {
                    "name": "F6",
                    "midi": 89,
                    "time": 165.78922499999535,
                    "velocity": 0.5511811023622047,
                    "duration": 0.05263149999998973
                },
                {
                    "name": "D6",
                    "midi": 86,
                    "time": 165.78922499999535,
                    "velocity": 0.4645669291338583,
                    "duration": 0.05263149999998973
                },
                {
                    "name": "A5",
                    "midi": 81,
                    "time": 165.84185649999534,
                    "velocity": 0.5196850393700787,
                    "duration": 0.05263149999998973
                },
                {
                    "name": "F5",
                    "midi": 77,
                    "time": 165.89448799999533,
                    "velocity": 0.4881889763779528,
                    "duration": 0.04736834999999928
                },
                {
                    "name": "F5",
                    "midi": 77,
                    "time": 165.94711949999532,
                    "velocity": 0.48031496062992124,
                    "duration": 0.05263149999998973
                },
                {
                    "name": "D5",
                    "midi": 74,
                    "time": 165.94711949999532,
                    "velocity": 0.3464566929133858,
                    "duration": 0.05263149999998973
                },
                {
                    "name": "A4",
                    "midi": 69,
                    "time": 165.9997509999953,
                    "velocity": 0.5354330708661418,
                    "duration": 0.05263149999998973
                },
                {
                    "name": "F4",
                    "midi": 65,
                    "time": 166.0523824999953,
                    "velocity": 0.49606299212598426,
                    "duration": 0.04736834999999928
                },
                {
                    "name": "F4",
                    "midi": 65,
                    "time": 166.1050139999953,
                    "velocity": 0.5039370078740157,
                    "duration": 0.05263149999998973
                },
                {
                    "name": "D4",
                    "midi": 62,
                    "time": 166.1050139999953,
                    "velocity": 0.5039370078740157,
                    "duration": 0.05263149999998973
                },
                {
                    "name": "A3",
                    "midi": 57,
                    "time": 166.15764549999528,
                    "velocity": 0.5039370078740157,
                    "duration": 0.05263149999998973
                },
                {
                    "name": "F3",
                    "midi": 53,
                    "time": 166.21027699999527,
                    "velocity": 0.5275590551181102,
                    "duration": 0.05263149999998973
                },
                {
                    "name": "B5",
                    "midi": 83,
                    "time": 166.42080299999526,
                    "velocity": 0.6692913385826772,
                    "duration": 0.1578944999999976
                },
                {
                    "name": "B4",
                    "midi": 71,
                    "time": 166.42080299999526,
                    "velocity": 0.5590551181102362,
                    "duration": 0.1578944999999976
                },
                {
                    "name": "D5",
                    "midi": 74,
                    "time": 166.42080299999526,
                    "velocity": 0.5590551181102362,
                    "duration": 0.1578944999999976
                },
                {
                    "name": "D6",
                    "midi": 86,
                    "time": 166.73659199999526,
                    "velocity": 0.6692913385826772,
                    "duration": 0.1578944999999976
                },
                {
                    "name": "D5",
                    "midi": 74,
                    "time": 166.73659199999526,
                    "velocity": 0.5590551181102362,
                    "duration": 0.1578944999999976
                },
                {
                    "name": "F5",
                    "midi": 77,
                    "time": 166.73659199999526,
                    "velocity": 0.5590551181102362,
                    "duration": 0.1578944999999976
                },
                {
                    "name": "F6",
                    "midi": 89,
                    "time": 167.05238099999525,
                    "velocity": 0.6692913385826772,
                    "duration": 0.1578944999999976
                },
                {
                    "name": "F5",
                    "midi": 77,
                    "time": 167.05238099999525,
                    "velocity": 0.5590551181102362,
                    "duration": 0.1578944999999976
                },
                {
                    "name": "G#5",
                    "midi": 80,
                    "time": 167.05238099999525,
                    "velocity": 0.5590551181102362,
                    "duration": 0.1578944999999976
                },
                {
                    "name": "E6",
                    "midi": 88,
                    "time": 167.36816999999525,
                    "velocity": 0.6692913385826772,
                    "duration": 0.1578944999999976
                },
                {
                    "name": "E5",
                    "midi": 76,
                    "time": 167.36816999999525,
                    "velocity": 0.5590551181102362,
                    "duration": 0.1578944999999976
                },
                {
                    "name": "G#5",
                    "midi": 80,
                    "time": 167.36816999999525,
                    "velocity": 0.5590551181102362,
                    "duration": 0.1578944999999976
                },
                {
                    "name": "A2",
                    "midi": 45,
                    "time": 167.52606449999524,
                    "velocity": 0.7637795275590551,
                    "duration": 0.6315779999998767
                },
                {
                    "name": "C#3",
                    "midi": 49,
                    "time": 167.57869599999523,
                    "velocity": 0.5275590551181102,
                    "duration": 0.05263149999998973
                },
                {
                    "name": "E3",
                    "midi": 52,
                    "time": 167.63132749999522,
                    "velocity": 0.5433070866141733,
                    "duration": 0.05263149999998973
                },
                {
                    "name": "A3",
                    "midi": 57,
                    "time": 167.6839589999952,
                    "velocity": 0.5433070866141733,
                    "duration": 0.05263149999998973
                },
                {
                    "name": "C#4",
                    "midi": 61,
                    "time": 167.7365904999952,
                    "velocity": 0.5590551181102362,
                    "duration": 0.05263149999998973
                },
                {
                    "name": "E4",
                    "midi": 64,
                    "time": 167.7892219999952,
                    "velocity": 0.5669291338582677,
                    "duration": 0.05263149999998973
                },
                {
                    "name": "A4",
                    "midi": 69,
                    "time": 167.84185349999518,
                    "velocity": 0.5826771653543307,
                    "duration": 0.05263149999998973
                },
                {
                    "name": "C#5",
                    "midi": 73,
                    "time": 167.89448499999517,
                    "velocity": 0.6062992125984252,
                    "duration": 0.05263149999998973
                },
                {
                    "name": "E5",
                    "midi": 76,
                    "time": 167.94711649999516,
                    "velocity": 0.6141732283464567,
                    "duration": 0.05263149999998973
                },
                {
                    "name": "A5",
                    "midi": 81,
                    "time": 167.99974799999515,
                    "velocity": 0.6220472440944882,
                    "duration": 0.05263149999998973
                },
                {
                    "name": "C#6",
                    "midi": 85,
                    "time": 168.05237949999514,
                    "velocity": 0.6299212598425197,
                    "duration": 0.05263149999998973
                },
                {
                    "name": "E6",
                    "midi": 88,
                    "time": 168.10501099999513,
                    "velocity": 0.6456692913385826,
                    "duration": 0.05263149999998973
                },
                {
                    "name": "A6",
                    "midi": 93,
                    "time": 168.15764249999512,
                    "velocity": 0.7480314960629921,
                    "duration": 0.05263149999998973
                },
                {
                    "name": "E6",
                    "midi": 88,
                    "time": 168.2102739999951,
                    "velocity": 0.6614173228346457,
                    "duration": 0.05263149999998973
                },
                {
                    "name": "C#6",
                    "midi": 85,
                    "time": 168.2629054999951,
                    "velocity": 0.6614173228346457,
                    "duration": 0.05263149999998973
                },
                {
                    "name": "A5",
                    "midi": 81,
                    "time": 168.3155369999951,
                    "velocity": 0.6535433070866141,
                    "duration": 0.05263149999998973
                },
                {
                    "name": "E5",
                    "midi": 76,
                    "time": 168.36816849999508,
                    "velocity": 0.6377952755905512,
                    "duration": 0.05263149999998973
                },
                {
                    "name": "C#5",
                    "midi": 73,
                    "time": 168.42079999999507,
                    "velocity": 0.6299212598425197,
                    "duration": 0.05263149999998973
                },
                {
                    "name": "A4",
                    "midi": 69,
                    "time": 168.47343149999506,
                    "velocity": 0.6220472440944882,
                    "duration": 0.05263149999998973
                },
                {
                    "name": "E4",
                    "midi": 64,
                    "time": 168.52606299999505,
                    "velocity": 0.6141732283464567,
                    "duration": 0.05263149999998973
                },
                {
                    "name": "C#4",
                    "midi": 61,
                    "time": 168.57869449999504,
                    "velocity": 0.5905511811023622,
                    "duration": 0.05263149999998973
                },
                {
                    "name": "A3",
                    "midi": 57,
                    "time": 168.63132599999503,
                    "velocity": 0.5826771653543307,
                    "duration": 0.05263149999998973
                },
                {
                    "name": "E3",
                    "midi": 52,
                    "time": 168.68395749999502,
                    "velocity": 0.5669291338582677,
                    "duration": 0.05263149999998973
                },
                {
                    "name": "C#3",
                    "midi": 49,
                    "time": 168.736588999995,
                    "velocity": 0.5590551181102362,
                    "duration": 0.05263149999998973
                },
                {
                    "name": "A2",
                    "midi": 45,
                    "time": 168.789220499995,
                    "velocity": 0.7795275590551181,
                    "duration": 0.6315779999999052
                },
                {
                    "name": "C#3",
                    "midi": 49,
                    "time": 168.841851999995,
                    "velocity": 0.5354330708661418,
                    "duration": 0.05263149999998973
                },
                {
                    "name": "E3",
                    "midi": 52,
                    "time": 168.89448349999498,
                    "velocity": 0.5433070866141733,
                    "duration": 0.05263149999998973
                },
                {
                    "name": "A3",
                    "midi": 57,
                    "time": 168.94711499999497,
                    "velocity": 0.5590551181102362,
                    "duration": 0.05263149999998973
                },
                {
                    "name": "C#4",
                    "midi": 61,
                    "time": 168.99974649999496,
                    "velocity": 0.5669291338582677,
                    "duration": 0.05263149999998973
                },
                {
                    "name": "E4",
                    "midi": 64,
                    "time": 169.05237799999495,
                    "velocity": 0.5826771653543307,
                    "duration": 0.05263149999998973
                },
                {
                    "name": "A4",
                    "midi": 69,
                    "time": 169.10500949999494,
                    "velocity": 0.6062992125984252,
                    "duration": 0.05263149999998973
                },
                {
                    "name": "C#5",
                    "midi": 73,
                    "time": 169.15764099999492,
                    "velocity": 0.6220472440944882,
                    "duration": 0.05263149999998973
                },
                {
                    "name": "E5",
                    "midi": 76,
                    "time": 169.21027249999491,
                    "velocity": 0.6299212598425197,
                    "duration": 0.05263149999998973
                },
                {
                    "name": "A5",
                    "midi": 81,
                    "time": 169.2629039999949,
                    "velocity": 0.6456692913385826,
                    "duration": 0.0394736249999994
                },
                {
                    "name": "C#6",
                    "midi": 85,
                    "time": 169.3023776249949,
                    "velocity": 0.6535433070866141,
                    "duration": 0.0394736249999994
                },
                {
                    "name": "E6",
                    "midi": 88,
                    "time": 169.3418512499949,
                    "velocity": 0.6692913385826772,
                    "duration": 0.0394736249999994
                },
                {
                    "name": "A6",
                    "midi": 93,
                    "time": 169.3813248749949,
                    "velocity": 0.6771653543307087,
                    "duration": 0.0394736249999994
                },
                {
                    "name": "C#7",
                    "midi": 97,
                    "time": 169.4207984999949,
                    "velocity": 0.6929133858267716,
                    "duration": 0.0394736249999994
                },
                {
                    "name": "A6",
                    "midi": 93,
                    "time": 169.4602721249949,
                    "velocity": 0.6771653543307087,
                    "duration": 0.0394736249999994
                },
                {
                    "name": "E6",
                    "midi": 88,
                    "time": 169.4997457499949,
                    "velocity": 0.6771653543307087,
                    "duration": 0.0394736249999994
                },
                {
                    "name": "C#6",
                    "midi": 85,
                    "time": 169.5392193749949,
                    "velocity": 0.6614173228346457,
                    "duration": 0.0394736249999994
                },
                {
                    "name": "A5",
                    "midi": 81,
                    "time": 169.5786929999949,
                    "velocity": 0.6456692913385826,
                    "duration": 0.05263149999998973
                },
                {
                    "name": "E5",
                    "midi": 76,
                    "time": 169.6313244999949,
                    "velocity": 0.6377952755905512,
                    "duration": 0.05263149999998973
                },
                {
                    "name": "C#5",
                    "midi": 73,
                    "time": 169.68395599999488,
                    "velocity": 0.6220472440944882,
                    "duration": 0.05263149999998973
                },
                {
                    "name": "A4",
                    "midi": 69,
                    "time": 169.73658749999487,
                    "velocity": 0.6220472440944882,
                    "duration": 0.05263149999998973
                },
                {
                    "name": "E4",
                    "midi": 64,
                    "time": 169.78921899999486,
                    "velocity": 0.6062992125984252,
                    "duration": 0.05263149999998973
                },
                {
                    "name": "C#4",
                    "midi": 61,
                    "time": 169.84185049999485,
                    "velocity": 0.5826771653543307,
                    "duration": 0.05263149999998973
                },
                {
                    "name": "A3",
                    "midi": 57,
                    "time": 169.89448199999484,
                    "velocity": 0.5748031496062992,
                    "duration": 0.05263149999998973
                },
                {
                    "name": "E3",
                    "midi": 52,
                    "time": 169.94711349999483,
                    "velocity": 0.5590551181102362,
                    "duration": 0.05263149999998973
                },
                {
                    "name": "C#3",
                    "midi": 49,
                    "time": 169.99974499999482,
                    "velocity": 0.5511811023622047,
                    "duration": 0.05263149999998973
                },
                {
                    "name": "A2",
                    "midi": 45,
                    "time": 170.0523764999948,
                    "velocity": 0.7637795275590551,
                    "duration": 0.6315779999998767
                },
                {
                    "name": "C#3",
                    "midi": 49,
                    "time": 170.1050079999948,
                    "velocity": 0.5590551181102362,
                    "duration": 0.05263149999998973
                },
                {
                    "name": "E3",
                    "midi": 52,
                    "time": 170.1576394999948,
                    "velocity": 0.5433070866141733,
                    "duration": 0.05263149999998973
                },
                {
                    "name": "A3",
                    "midi": 57,
                    "time": 170.21027099999478,
                    "velocity": 0.5511811023622047,
                    "duration": 0.05263149999998973
                },
                {
                    "name": "C#4",
                    "midi": 61,
                    "time": 170.26290249999477,
                    "velocity": 0.5590551181102362,
                    "duration": 0.05263149999998973
                },
                {
                    "name": "E4",
                    "midi": 64,
                    "time": 170.31553399999476,
                    "velocity": 0.5748031496062992,
                    "duration": 0.05263149999998973
                },
                {
                    "name": "A4",
                    "midi": 69,
                    "time": 170.36816549999475,
                    "velocity": 0.5905511811023622,
                    "duration": 0.05263149999998973
                },
                {
                    "name": "C#5",
                    "midi": 73,
                    "time": 170.42079699999474,
                    "velocity": 0.6062992125984252,
                    "duration": 0.05263149999998973
                },
                {
                    "name": "E5",
                    "midi": 76,
                    "time": 170.47342849999472,
                    "velocity": 0.6220472440944882,
                    "duration": 0.05263149999998973
                },
                {
                    "name": "A5",
                    "midi": 81,
                    "time": 170.52605999999471,
                    "velocity": 0.6299212598425197,
                    "duration": 0.05263149999998973
                },
                {
                    "name": "C#6",
                    "midi": 85,
                    "time": 170.5786914999947,
                    "velocity": 0.6377952755905512,
                    "duration": 0.05263149999998973
                },
                {
                    "name": "E6",
                    "midi": 88,
                    "time": 170.6313229999947,
                    "velocity": 0.6771653543307087,
                    "duration": 0.05263149999998973
                },
                {
                    "name": "A6",
                    "midi": 93,
                    "time": 170.68395449999468,
                    "velocity": 0.7007874015748031,
                    "duration": 0.06315779999999904
                },
                {
                    "name": "C#7",
                    "midi": 97,
                    "time": 170.74711229999468,
                    "velocity": 0.7007874015748031,
                    "duration": 0.06315779999999904
                },
                {
                    "name": "F7",
                    "midi": 101,
                    "time": 170.81027009999468,
                    "velocity": 0.7244094488188977,
                    "duration": 0.06315779999999904
                },
                {
                    "name": "E7",
                    "midi": 100,
                    "time": 170.87342789999468,
                    "velocity": 0.7165354330708661,
                    "duration": 0.06315779999999904
                },
                {
                    "name": "C#7",
                    "midi": 97,
                    "time": 170.93658569999468,
                    "velocity": 0.7007874015748031,
                    "duration": 0.06315779999999904
                },
                {
                    "name": "A6",
                    "midi": 93,
                    "time": 171.0023750749947,
                    "velocity": 0.6929133858267716,
                    "duration": 0.05263149999998973
                },
                {
                    "name": "E6",
                    "midi": 88,
                    "time": 171.05500657499468,
                    "velocity": 0.6614173228346457,
                    "duration": 0.05263149999998973
                },
                {
                    "name": "C#6",
                    "midi": 85,
                    "time": 171.10763807499467,
                    "velocity": 0.6535433070866141,
                    "duration": 0.05263149999998973
                },
                {
                    "name": "A5",
                    "midi": 81,
                    "time": 171.16026957499466,
                    "velocity": 0.6456692913385826,
                    "duration": 0.05263149999998973
                },
                {
                    "name": "E5",
                    "midi": 76,
                    "time": 171.21290107499465,
                    "velocity": 0.6377952755905512,
                    "duration": 0.05263149999998973
                },
                {
                    "name": "C#5",
                    "midi": 73,
                    "time": 171.26553257499464,
                    "velocity": 0.6220472440944882,
                    "duration": 0.05263149999998973
                },
                {
                    "name": "A4",
                    "midi": 69,
                    "time": 171.31816407499463,
                    "velocity": 0.6220472440944882,
                    "duration": 0.05263149999998973
                },
                {
                    "name": "E4",
                    "midi": 64,
                    "time": 171.37079557499462,
                    "velocity": 0.6141732283464567,
                    "duration": 0.05263149999998973
                },
                {
                    "name": "C#4",
                    "midi": 61,
                    "time": 171.4234270749946,
                    "velocity": 0.6062992125984252,
                    "duration": 0.05263149999998973
                },
                {
                    "name": "A3",
                    "midi": 57,
                    "time": 171.4760585749946,
                    "velocity": 0.5905511811023622,
                    "duration": 0.05263149999998973
                },
                {
                    "name": "E3",
                    "midi": 52,
                    "time": 171.52869007499459,
                    "velocity": 0.5826771653543307,
                    "duration": 0.05263149999998973
                },
                {
                    "name": "C#3",
                    "midi": 49,
                    "time": 171.58132157499458,
                    "velocity": 0.5748031496062992,
                    "duration": 0.05263150000001815
                },
                {
                    "name": "A2",
                    "midi": 45,
                    "time": 171.63132149999458,
                    "velocity": 0.6062992125984252,
                    "duration": 0.05131571250001343
                },
                {
                    "name": "A#2",
                    "midi": 46,
                    "time": 171.67079512499458,
                    "velocity": 0.5433070866141733,
                    "duration": 0.051315712500041855
                },
                {
                    "name": "A2",
                    "midi": 45,
                    "time": 171.7102687499946,
                    "velocity": 0.6062992125984252,
                    "duration": 0.051315712500041855
                },
                {
                    "name": "A#2",
                    "midi": 46,
                    "time": 171.74974237499464,
                    "velocity": 0.5511811023622047,
                    "duration": 0.051315712500041855
                },
                {
                    "name": "A2",
                    "midi": 45,
                    "time": 171.78921599999467,
                    "velocity": 0.6220472440944882,
                    "duration": 0.051315712500041855
                },
                {
                    "name": "A#2",
                    "midi": 46,
                    "time": 171.8286896249947,
                    "velocity": 0.5433070866141733,
                    "duration": 0.051315712500041855
                },
                {
                    "name": "A2",
                    "midi": 45,
                    "time": 171.86816324999472,
                    "velocity": 0.6062992125984252,
                    "duration": 0.051315712500041855
                },
                {
                    "name": "A#2",
                    "midi": 46,
                    "time": 171.90763687499475,
                    "velocity": 0.5511811023622047,
                    "duration": 0.051315712500041855
                },
                {
                    "name": "A2",
                    "midi": 45,
                    "time": 171.94711049999478,
                    "velocity": 0.6141732283464567,
                    "duration": 0.051315712500041855
                },
                {
                    "name": "A#2",
                    "midi": 46,
                    "time": 171.9865841249948,
                    "velocity": 0.5433070866141733,
                    "duration": 0.051315712500041855
                },
                {
                    "name": "A2",
                    "midi": 45,
                    "time": 172.02605774999483,
                    "velocity": 0.5748031496062992,
                    "duration": 0.051315712500041855
                },
                {
                    "name": "A#2",
                    "midi": 46,
                    "time": 172.06553137499486,
                    "velocity": 0.5511811023622047,
                    "duration": 0.051315712500041855
                },
                {
                    "name": "A2",
                    "midi": 45,
                    "time": 172.1050049999949,
                    "velocity": 0.5905511811023622,
                    "duration": 0.051315712500041855
                },
                {
                    "name": "A#2",
                    "midi": 46,
                    "time": 172.14447862499492,
                    "velocity": 0.5511811023622047,
                    "duration": 0.051315712500041855
                },
                {
                    "name": "A2",
                    "midi": 45,
                    "time": 172.18395224999495,
                    "velocity": 0.6062992125984252,
                    "duration": 0.051315712500041855
                },
                {
                    "name": "A#2",
                    "midi": 46,
                    "time": 172.22342587499497,
                    "velocity": 0.5826771653543307,
                    "duration": 0.051315712500041855
                },
                {
                    "name": "A2",
                    "midi": 45,
                    "time": 172.262899499995,
                    "velocity": 0.6220472440944882,
                    "duration": 0.03947362500002782
                },
                {
                    "name": "A#2",
                    "midi": 46,
                    "time": 172.30237312499503,
                    "velocity": 0.6220472440944882,
                    "duration": 0.0394736249999994
                },
                {
                    "name": "B2",
                    "midi": 47,
                    "time": 172.34184674999503,
                    "velocity": 0.6299212598425197,
                    "duration": 0.0394736249999994
                },
                {
                    "name": "C3",
                    "midi": 48,
                    "time": 172.38132037499503,
                    "velocity": 0.6535433070866141,
                    "duration": 0.0394736249999994
                },
                {
                    "name": "C#3",
                    "midi": 49,
                    "time": 172.42079399999503,
                    "velocity": 0.6692913385826772,
                    "duration": 0.0394736249999994
                },
                {
                    "name": "D3",
                    "midi": 50,
                    "time": 172.46026762499503,
                    "velocity": 0.6929133858267716,
                    "duration": 0.0394736249999994
                },
                {
                    "name": "D#3",
                    "midi": 51,
                    "time": 172.49974124999503,
                    "velocity": 0.7007874015748031,
                    "duration": 0.0394736249999994
                },
                {
                    "name": "E3",
                    "midi": 52,
                    "time": 172.53921487499503,
                    "velocity": 0.7165354330708661,
                    "duration": 0.0394736249999994
                },
                {
                    "name": "F3",
                    "midi": 53,
                    "time": 172.57868849999502,
                    "velocity": 0.7401574803149606,
                    "duration": 0.0394736249999994
                },
                {
                    "name": "E3",
                    "midi": 52,
                    "time": 172.61816212499502,
                    "velocity": 0.7559055118110236,
                    "duration": 0.0394736249999994
                },
                {
                    "name": "D#3",
                    "midi": 51,
                    "time": 172.65763574999502,
                    "velocity": 0.7637795275590551,
                    "duration": 0.0394736249999994
                },
                {
                    "name": "D3",
                    "midi": 50,
                    "time": 172.69710937499502,
                    "velocity": 0.7559055118110236,
                    "duration": 0.0394736249999994
                },
                {
                    "name": "C#3",
                    "midi": 49,
                    "time": 172.73658299999502,
                    "velocity": 0.7401574803149606,
                    "duration": 0.0394736249999994
                },
                {
                    "name": "C3",
                    "midi": 48,
                    "time": 172.77605662499502,
                    "velocity": 0.7322834645669292,
                    "duration": 0.0394736249999994
                },
                {
                    "name": "B2",
                    "midi": 47,
                    "time": 172.81553024999502,
                    "velocity": 0.7244094488188977,
                    "duration": 0.0394736249999994
                },
                {
                    "name": "A#2",
                    "midi": 46,
                    "time": 172.85500387499502,
                    "velocity": 0.7086614173228346,
                    "duration": 0.0394736249999994
                },
                {
                    "name": "A2",
                    "midi": 45,
                    "time": 172.89447749999502,
                    "velocity": 0.8267716535433071,
                    "duration": 0.1578944999999976
                },
                {
                    "name": "A5",
                    "midi": 81,
                    "time": 173.21026649999502,
                    "velocity": 0.7795275590551181,
                    "duration": 0.1578944999999976
                },
                {
                    "name": "E5",
                    "midi": 76,
                    "time": 173.21026649999502,
                    "velocity": 0.7795275590551181,
                    "duration": 0.1578944999999976
                },
                {
                    "name": "C#5",
                    "midi": 73,
                    "time": 173.21026649999502,
                    "velocity": 0.6535433070866141,
                    "duration": 0.1578944999999976
                },
                {
                    "name": "A4",
                    "midi": 69,
                    "time": 173.21026649999502,
                    "velocity": 0.6535433070866141,
                    "duration": 0.1578944999999976
                },
                {
                    "name": "A6",
                    "midi": 93,
                    "time": 173.526055499995,
                    "velocity": 0.7795275590551181,
                    "duration": 0.1578944999999976
                },
                {
                    "name": "E6",
                    "midi": 88,
                    "time": 173.526055499995,
                    "velocity": 0.7795275590551181,
                    "duration": 0.1578944999999976
                },
                {
                    "name": "C#6",
                    "midi": 85,
                    "time": 173.526055499995,
                    "velocity": 0.6535433070866141,
                    "duration": 0.1578944999999976
                },
                {
                    "name": "A5",
                    "midi": 81,
                    "time": 173.526055499995,
                    "velocity": 0.6535433070866141,
                    "duration": 0.1578944999999976
                }
            ],
            "controlChanges": {
                "7": [
                    {
                        "number": 7,
                        "time": 0,
                        "value": 0.7874015748031497
                    }
                ],
                "10": [
                    {
                        "number": 10,
                        "time": 0,
                        "value": 0.5039370078740157
                    }
                ],
                "91": [
                    {
                        "number": 91,
                        "time": 0,
                        "value": 1
                    }
                ]
            },
            "id": 1,
            "name": "Piano right",
            "instrumentNumber": 0,
            "instrument": "acoustic grand piano",
            "instrumentFamily": "piano",
            "channelNumber": 0,
            "isPercussion": false
        },
        {
            "startTime": 0.4736835,
            "duration": 173.6839499999985,
            "length": 1979,
            "notes": [
                {
                    "name": "A2",
                    "midi": 45,
                    "time": 0.4736835,
                    "velocity": 0.2677165354330709,
                    "duration": 0.23026281249999997
                },
                {
                    "name": "E3",
                    "midi": 52,
                    "time": 0.49999925,
                    "velocity": 0.29133858267716534,
                    "duration": 0.210526
                },
                {
                    "name": "A3",
                    "midi": 57,
                    "time": 0.526315,
                    "velocity": 0.3228346456692913,
                    "duration": 0.18421025000000002
                },
                {
                    "name": "C4",
                    "midi": 60,
                    "time": 0.55263075,
                    "velocity": 0.3464566929133858,
                    "duration": 0.15789450000000005
                },
                {
                    "name": "E3",
                    "midi": 52,
                    "time": 1.263156,
                    "velocity": 0.28346456692913385,
                    "duration": 0.2302628124999999
                },
                {
                    "name": "B3",
                    "midi": 59,
                    "time": 1.28947175,
                    "velocity": 0.2992125984251969,
                    "duration": 0.210526
                },
                {
                    "name": "E4",
                    "midi": 64,
                    "time": 1.3157874999999999,
                    "velocity": 0.33070866141732286,
                    "duration": 0.18421025000000002
                },
                {
                    "name": "G#4",
                    "midi": 68,
                    "time": 1.3421032499999999,
                    "velocity": 0.3543307086614173,
                    "duration": 0.15789450000000005
                },
                {
                    "name": "A2",
                    "midi": 45,
                    "time": 2.0526285,
                    "velocity": 0.25984251968503935,
                    "duration": 0.23026281250000036
                },
                {
                    "name": "E3",
                    "midi": 52,
                    "time": 2.07894425,
                    "velocity": 0.28346456692913385,
                    "duration": 0.2105260000000002
                },
                {
                    "name": "A3",
                    "midi": 57,
                    "time": 2.1052600000000004,
                    "velocity": 0.30708661417322836,
                    "duration": 0.18421025000000002
                },
                {
                    "name": "C4",
                    "midi": 60,
                    "time": 2.1315757500000005,
                    "velocity": 0.33070866141732286,
                    "duration": 0.15789449999999983
                },
                {
                    "name": "E3",
                    "midi": 52,
                    "time": 2.8421010000000004,
                    "velocity": 0.2992125984251969,
                    "duration": 0.23026281250000036
                },
                {
                    "name": "B3",
                    "midi": 59,
                    "time": 2.8684167500000006,
                    "velocity": 0.28346456692913385,
                    "duration": 0.2105260000000002
                },
                {
                    "name": "E4",
                    "midi": 64,
                    "time": 2.894732500000001,
                    "velocity": 0.3228346456692913,
                    "duration": 0.18421025000000002
                },
                {
                    "name": "G#4",
                    "midi": 68,
                    "time": 2.921048250000001,
                    "velocity": 0.3543307086614173,
                    "duration": 0.15789449999999983
                },
                {
                    "name": "A2",
                    "midi": 45,
                    "time": 3.631573500000001,
                    "velocity": 0.2283464566929134,
                    "duration": 0.23026281250000036
                },
                {
                    "name": "E3",
                    "midi": 52,
                    "time": 3.657889250000001,
                    "velocity": 0.25196850393700787,
                    "duration": 0.2105260000000002
                },
                {
                    "name": "A3",
                    "midi": 57,
                    "time": 3.6842050000000013,
                    "velocity": 0.25984251968503935,
                    "duration": 0.18421025000000002
                },
                {
                    "name": "C4",
                    "midi": 60,
                    "time": 3.7105207500000015,
                    "velocity": 0.28346456692913385,
                    "duration": 0.15789449999999983
                },
                {
                    "name": "E3",
                    "midi": 52,
                    "time": 4.421046000000001,
                    "velocity": 0.2204724409448819,
                    "duration": 0.23026281250000036
                },
                {
                    "name": "B3",
                    "midi": 59,
                    "time": 4.447361750000002,
                    "velocity": 0.2440944881889764,
                    "duration": 0.21052599999999977
                },
                {
                    "name": "E4",
                    "midi": 64,
                    "time": 4.473677500000002,
                    "velocity": 0.25984251968503935,
                    "duration": 0.18421024999999958
                },
                {
                    "name": "G#4",
                    "midi": 68,
                    "time": 4.499993250000002,
                    "velocity": 0.28346456692913385,
                    "duration": 0.15789449999999938
                },
                {
                    "name": "A2",
                    "midi": 45,
                    "time": 5.210518500000001,
                    "velocity": 0.2204724409448819,
                    "duration": 0.23026281250000036
                },
                {
                    "name": "E3",
                    "midi": 52,
                    "time": 5.236834250000001,
                    "velocity": 0.2440944881889764,
                    "duration": 0.21052599999999977
                },
                {
                    "name": "A3",
                    "midi": 57,
                    "time": 5.263150000000001,
                    "velocity": 0.25984251968503935,
                    "duration": 0.18421024999999958
                },
                {
                    "name": "C4",
                    "midi": 60,
                    "time": 5.2894657500000015,
                    "velocity": 0.28346456692913385,
                    "duration": 0.15789449999999938
                },
                {
                    "name": "E3",
                    "midi": 52,
                    "time": 5.9999910000000005,
                    "velocity": 0.2204724409448819,
                    "duration": 0.23026281250000036
                },
                {
                    "name": "B3",
                    "midi": 59,
                    "time": 6.026306750000001,
                    "velocity": 0.2440944881889764,
                    "duration": 0.21052599999999977
                },
                {
                    "name": "E4",
                    "midi": 64,
                    "time": 6.052622500000001,
                    "velocity": 0.25984251968503935,
                    "duration": 0.18421024999999958
                },
                {
                    "name": "G#4",
                    "midi": 68,
                    "time": 6.078938250000001,
                    "velocity": 0.28346456692913385,
                    "duration": 0.15789449999999938
                },
                {
                    "name": "A2",
                    "midi": 45,
                    "time": 6.7894635,
                    "velocity": 0.2677165354330709,
                    "duration": 0.23026281250000036
                },
                {
                    "name": "E3",
                    "midi": 52,
                    "time": 6.81577925,
                    "velocity": 0.28346456692913385,
                    "duration": 0.21052599999999977
                },
                {
                    "name": "A3",
                    "midi": 57,
                    "time": 6.8420950000000005,
                    "velocity": 0.31496062992125984,
                    "duration": 0.18421024999999958
                },
                {
                    "name": "C#4",
                    "midi": 61,
                    "time": 6.868410750000001,
                    "velocity": 0.33858267716535434,
                    "duration": 0.15789449999999938
                },
                {
                    "name": "D3",
                    "midi": 50,
                    "time": 7.578936,
                    "velocity": 0.28346456692913385,
                    "duration": 0.23026281250000036
                },
                {
                    "name": "A3",
                    "midi": 57,
                    "time": 7.60525175,
                    "velocity": 0.29133858267716534,
                    "duration": 0.21052599999999977
                },
                {
                    "name": "D4",
                    "midi": 62,
                    "time": 7.6315675,
                    "velocity": 0.31496062992125984,
                    "duration": 0.18421024999999958
                },
                {
                    "name": "F4",
                    "midi": 65,
                    "time": 7.65788325,
                    "velocity": 0.33858267716535434,
                    "duration": 0.15789449999999938
                },
                {
                    "name": "G2",
                    "midi": 43,
                    "time": 8.3684085,
                    "velocity": 0.2755905511811024,
                    "duration": 0.23026281250000125
                },
                {
                    "name": "D3",
                    "midi": 50,
                    "time": 8.39472425,
                    "velocity": 0.29133858267716534,
                    "duration": 0.21052600000000155
                },
                {
                    "name": "G3",
                    "midi": 55,
                    "time": 8.42104,
                    "velocity": 0.3228346456692913,
                    "duration": 0.18421025000000135
                },
                {
                    "name": "B3",
                    "midi": 59,
                    "time": 8.44735575,
                    "velocity": 0.3543307086614173,
                    "duration": 0.15789450000000116
                },
                {
                    "name": "C3",
                    "midi": 48,
                    "time": 9.157881000000001,
                    "velocity": 0.30708661417322836,
                    "duration": 0.23026281250000125
                },
                {
                    "name": "G3",
                    "midi": 55,
                    "time": 9.184196750000002,
                    "velocity": 0.30708661417322836,
                    "duration": 0.21052600000000155
                },
                {
                    "name": "C4",
                    "midi": 60,
                    "time": 9.210512500000002,
                    "velocity": 0.33070866141732286,
                    "duration": 0.18421025000000135
                },
                {
                    "name": "E4",
                    "midi": 64,
                    "time": 9.236828250000002,
                    "velocity": 0.3543307086614173,
                    "duration": 0.15789450000000116
                },
                {
                    "name": "D3",
                    "midi": 50,
                    "time": 9.947353500000004,
                    "velocity": 0.25984251968503935,
                    "duration": 0.23026281250000125
                },
                {
                    "name": "F3",
                    "midi": 53,
                    "time": 9.973669250000004,
                    "velocity": 0.2755905511811024,
                    "duration": 0.21052600000000155
                },
                {
                    "name": "B3",
                    "midi": 59,
                    "time": 9.999985000000004,
                    "velocity": 0.29133858267716534,
                    "duration": 0.18421025000000135
                },
                {
                    "name": "F4",
                    "midi": 65,
                    "time": 10.026300750000004,
                    "velocity": 0.30708661417322836,
                    "duration": 0.15789450000000116
                },
                {
                    "name": "C3",
                    "midi": 48,
                    "time": 10.736826000000006,
                    "velocity": 0.25196850393700787,
                    "duration": 0.23026281250000125
                },
                {
                    "name": "C4",
                    "midi": 60,
                    "time": 10.789457500000006,
                    "velocity": 0.28346456692913385,
                    "duration": 0.18421025000000135
                },
                {
                    "name": "E4",
                    "midi": 64,
                    "time": 10.815773250000007,
                    "velocity": 0.2992125984251969,
                    "duration": 0.15789450000000116
                },
                {
                    "name": "F3",
                    "midi": 53,
                    "time": 11.526298500000008,
                    "velocity": 0.3464566929133858,
                    "duration": 0.31578900000000054
                },
                {
                    "name": "D#4",
                    "midi": 63,
                    "time": 11.763140250000008,
                    "velocity": 0.28346456692913385,
                    "duration": 0.07894725000000058
                },
                {
                    "name": "A3",
                    "midi": 57,
                    "time": 11.763140250000008,
                    "velocity": 0.28346456692913385,
                    "duration": 0.07894725000000058
                },
                {
                    "name": "E3",
                    "midi": 52,
                    "time": 11.842087500000009,
                    "velocity": 0.31496062992125984,
                    "duration": 0.31578900000000054
                },
                {
                    "name": "D4",
                    "midi": 62,
                    "time": 12.078929250000009,
                    "velocity": 0.25984251968503935,
                    "duration": 0.07894725000000058
                },
                {
                    "name": "G#3",
                    "midi": 56,
                    "time": 12.078929250000009,
                    "velocity": 0.25984251968503935,
                    "duration": 0.07894725000000058
                },
                {
                    "name": "C4",
                    "midi": 60,
                    "time": 12.15787650000001,
                    "velocity": 0.31496062992125984,
                    "duration": 0.31578900000000054
                },
                {
                    "name": "A3",
                    "midi": 57,
                    "time": 12.15787650000001,
                    "velocity": 0.31496062992125984,
                    "duration": 0.31578900000000054
                },
                {
                    "name": "A4",
                    "midi": 69,
                    "time": 12.47366550000001,
                    "velocity": 0.25984251968503935,
                    "duration": 0.07894725000000058
                },
                {
                    "name": "E4",
                    "midi": 64,
                    "time": 12.47366550000001,
                    "velocity": 0.25984251968503935,
                    "duration": 0.07894725000000058
                },
                {
                    "name": "A2",
                    "midi": 45,
                    "time": 12.78945450000001,
                    "velocity": 0.2283464566929134,
                    "duration": 0.23026281250000125
                },
                {
                    "name": "E3",
                    "midi": 52,
                    "time": 12.81577025000001,
                    "velocity": 0.25196850393700787,
                    "duration": 0.21052600000000155
                },
                {
                    "name": "A3",
                    "midi": 57,
                    "time": 12.84208600000001,
                    "velocity": 0.25984251968503935,
                    "duration": 0.18421025000000135
                },
                {
                    "name": "C#4",
                    "midi": 61,
                    "time": 12.868401750000011,
                    "velocity": 0.28346456692913385,
                    "duration": 0.15789450000000116
                },
                {
                    "name": "C#4",
                    "midi": 61,
                    "time": 13.263138000000012,
                    "velocity": 0.2125984251968504,
                    "duration": 0.15789449999999938
                },
                {
                    "name": "E4",
                    "midi": 64,
                    "time": 13.263138000000012,
                    "velocity": 0.2125984251968504,
                    "duration": 0.15789449999999938
                },
                {
                    "name": "A4",
                    "midi": 69,
                    "time": 13.263138000000012,
                    "velocity": 0.25196850393700787,
                    "duration": 0.15789449999999938
                },
                {
                    "name": "D3",
                    "midi": 50,
                    "time": 13.57892700000001,
                    "velocity": 0.2283464566929134,
                    "duration": 0.23026281250000125
                },
                {
                    "name": "A3",
                    "midi": 57,
                    "time": 13.61840062500001,
                    "velocity": 0.25196850393700787,
                    "duration": 0.19736812500000234
                },
                {
                    "name": "F4",
                    "midi": 65,
                    "time": 13.657874250000011,
                    "velocity": 0.28346456692913385,
                    "duration": 0.15789450000000116
                },
                {
                    "name": "D4",
                    "midi": 62,
                    "time": 14.052610500000013,
                    "velocity": 0.2125984251968504,
                    "duration": 0.15789449999999938
                },
                {
                    "name": "F4",
                    "midi": 65,
                    "time": 14.052610500000013,
                    "velocity": 0.2125984251968504,
                    "duration": 0.15789449999999938
                },
                {
                    "name": "A4",
                    "midi": 69,
                    "time": 14.052610500000013,
                    "velocity": 0.25196850393700787,
                    "duration": 0.15789449999999938
                },
                {
                    "name": "G2",
                    "midi": 43,
                    "time": 14.368399500000011,
                    "velocity": 0.2283464566929134,
                    "duration": 0.23026281249999947
                },
                {
                    "name": "D3",
                    "midi": 50,
                    "time": 14.40787312500001,
                    "velocity": 0.25196850393700787,
                    "duration": 0.19736812500000056
                },
                {
                    "name": "B3",
                    "midi": 59,
                    "time": 14.44734675000001,
                    "velocity": 0.28346456692913385,
                    "duration": 0.15789450000000116
                },
                {
                    "name": "B3",
                    "midi": 59,
                    "time": 14.842083000000011,
                    "velocity": 0.2125984251968504,
                    "duration": 0.15789449999999938
                },
                {
                    "name": "D4",
                    "midi": 62,
                    "time": 14.842083000000011,
                    "velocity": 0.2125984251968504,
                    "duration": 0.15789449999999938
                },
                {
                    "name": "G4",
                    "midi": 67,
                    "time": 14.842083000000011,
                    "velocity": 0.25196850393700787,
                    "duration": 0.15789449999999938
                },
                {
                    "name": "C3",
                    "midi": 48,
                    "time": 15.15787200000001,
                    "velocity": 0.2283464566929134,
                    "duration": 0.23026281249999947
                },
                {
                    "name": "G3",
                    "midi": 55,
                    "time": 15.19734562500001,
                    "velocity": 0.25196850393700787,
                    "duration": 0.19736812500000056
                },
                {
                    "name": "E4",
                    "midi": 64,
                    "time": 15.236819250000009,
                    "velocity": 0.28346456692913385,
                    "duration": 0.15789450000000116
                },
                {
                    "name": "E4",
                    "midi": 64,
                    "time": 15.63155550000001,
                    "velocity": 0.2283464566929134,
                    "duration": 0.15789449999999938
                },
                {
                    "name": "G4",
                    "midi": 67,
                    "time": 15.63155550000001,
                    "velocity": 0.2755905511811024,
                    "duration": 0.15789449999999938
                },
                {
                    "name": "D3",
                    "midi": 50,
                    "time": 15.947344500000009,
                    "velocity": 0.25196850393700787,
                    "duration": 0.23026281249999947
                },
                {
                    "name": "A#3",
                    "midi": 58,
                    "time": 15.986818125000008,
                    "velocity": 0.28346456692913385,
                    "duration": 0.13157875000000097
                },
                {
                    "name": "F4",
                    "midi": 65,
                    "time": 16.02629175000001,
                    "velocity": 0.30708661417322836,
                    "duration": 0.1578944999999976
                },
                {
                    "name": "F4",
                    "midi": 65,
                    "time": 16.421028000000007,
                    "velocity": 0.2755905511811024,
                    "duration": 0.15789450000000116
                },
                {
                    "name": "D4",
                    "midi": 62,
                    "time": 16.421028000000007,
                    "velocity": 0.2283464566929134,
                    "duration": 0.15789450000000116
                },
                {
                    "name": "C3",
                    "midi": 48,
                    "time": 16.73681700000001,
                    "velocity": 0.25196850393700787,
                    "duration": 0.2302628124999977
                },
                {
                    "name": "C4",
                    "midi": 60,
                    "time": 16.77629062500001,
                    "velocity": 0.28346456692913385,
                    "duration": 0.1315787499999992
                },
                {
                    "name": "E4",
                    "midi": 64,
                    "time": 16.815764250000008,
                    "velocity": 0.30708661417322836,
                    "duration": 0.1578944999999976
                },
                {
                    "name": "E4",
                    "midi": 64,
                    "time": 17.210500500000006,
                    "velocity": 0.2677165354330709,
                    "duration": 0.15789450000000116
                },
                {
                    "name": "C4",
                    "midi": 60,
                    "time": 17.210500500000006,
                    "velocity": 0.2204724409448819,
                    "duration": 0.15789450000000116
                },
                {
                    "name": "F3",
                    "midi": 53,
                    "time": 17.526289500000008,
                    "velocity": 0.29133858267716534,
                    "duration": 0.31578899999999877
                },
                {
                    "name": "D#4",
                    "midi": 63,
                    "time": 17.763131250000008,
                    "velocity": 0.2677165354330709,
                    "duration": 0.0789472499999988
                },
                {
                    "name": "A3",
                    "midi": 57,
                    "time": 17.763131250000008,
                    "velocity": 0.2677165354330709,
                    "duration": 0.0789472499999988
                },
                {
                    "name": "E3",
                    "midi": 52,
                    "time": 17.842078500000007,
                    "velocity": 0.29133858267716534,
                    "duration": 0.31578899999999877
                },
                {
                    "name": "D4",
                    "midi": 62,
                    "time": 18.078920250000007,
                    "velocity": 0.2440944881889764,
                    "duration": 0.0789472499999988
                },
                {
                    "name": "G#3",
                    "midi": 56,
                    "time": 18.078920250000007,
                    "velocity": 0.2440944881889764,
                    "duration": 0.0789472499999988
                },
                {
                    "name": "C4",
                    "midi": 60,
                    "time": 18.157867500000005,
                    "velocity": 0.29133858267716534,
                    "duration": 0.31578899999999877
                },
                {
                    "name": "A3",
                    "midi": 57,
                    "time": 18.157867500000005,
                    "velocity": 0.29133858267716534,
                    "duration": 0.31578899999999877
                },
                {
                    "name": "A4",
                    "midi": 69,
                    "time": 18.473656500000004,
                    "velocity": 0.2440944881889764,
                    "duration": 0.0789472499999988
                },
                {
                    "name": "E4",
                    "midi": 64,
                    "time": 18.473656500000004,
                    "velocity": 0.2440944881889764,
                    "duration": 0.0789472499999988
                },
                {
                    "name": "A3",
                    "midi": 57,
                    "time": 18.789445500000006,
                    "velocity": 0.48031496062992124,
                    "duration": 0.0592104374999991
                },
                {
                    "name": "A3",
                    "midi": 57,
                    "time": 19.026287250000006,
                    "velocity": 0.3779527559055118,
                    "duration": 0.0394736249999994
                },
                {
                    "name": "A3",
                    "midi": 57,
                    "time": 19.105234500000005,
                    "velocity": 0.44881889763779526,
                    "duration": 0.0789472499999988
                },
                {
                    "name": "C4",
                    "midi": 60,
                    "time": 19.184181750000004,
                    "velocity": 0.4251968503937008,
                    "duration": 0.0789472499999988
                },
                {
                    "name": "B3",
                    "midi": 59,
                    "time": 19.263129000000003,
                    "velocity": 0.44881889763779526,
                    "duration": 0.0789472499999988
                },
                {
                    "name": "A3",
                    "midi": 57,
                    "time": 19.34207625,
                    "velocity": 0.4251968503937008,
                    "duration": 0.0789472499999988
                },
                {
                    "name": "E4",
                    "midi": 64,
                    "time": 19.4210235,
                    "velocity": 0.4645669291338583,
                    "duration": 0.0592104374999991
                },
                {
                    "name": "E3",
                    "midi": 52,
                    "time": 19.65786525,
                    "velocity": 0.3779527559055118,
                    "duration": 0.0394736249999994
                },
                {
                    "name": "E3",
                    "midi": 52,
                    "time": 19.7368125,
                    "velocity": 0.44881889763779526,
                    "duration": 0.0789472499999988
                },
                {
                    "name": "G3",
                    "midi": 55,
                    "time": 19.815759749999998,
                    "velocity": 0.4251968503937008,
                    "duration": 0.0789472499999988
                },
                {
                    "name": "F3",
                    "midi": 53,
                    "time": 19.894706999999997,
                    "velocity": 0.44881889763779526,
                    "duration": 0.0789472499999988
                },
                {
                    "name": "E3",
                    "midi": 52,
                    "time": 19.973654249999996,
                    "velocity": 0.4251968503937008,
                    "duration": 0.0789472499999988
                },
                {
                    "name": "A3",
                    "midi": 57,
                    "time": 20.052601499999994,
                    "velocity": 0.48031496062992124,
                    "duration": 0.0592104374999991
                },
                {
                    "name": "A3",
                    "midi": 57,
                    "time": 20.289443249999994,
                    "velocity": 0.3779527559055118,
                    "duration": 0.0394736249999994
                },
                {
                    "name": "A3",
                    "midi": 57,
                    "time": 20.368390499999993,
                    "velocity": 0.44881889763779526,
                    "duration": 0.0789472499999988
                },
                {
                    "name": "C4",
                    "midi": 60,
                    "time": 20.447337749999992,
                    "velocity": 0.4251968503937008,
                    "duration": 0.0789472499999988
                },
                {
                    "name": "B3",
                    "midi": 59,
                    "time": 20.52628499999999,
                    "velocity": 0.44881889763779526,
                    "duration": 0.0789472499999988
                },
                {
                    "name": "A3",
                    "midi": 57,
                    "time": 20.60523224999999,
                    "velocity": 0.4251968503937008,
                    "duration": 0.0789472499999988
                },
                {
                    "name": "E4",
                    "midi": 64,
                    "time": 20.68417949999999,
                    "velocity": 0.48031496062992124,
                    "duration": 0.31578899999999877
                },
                {
                    "name": "E3",
                    "midi": 52,
                    "time": 20.999968499999987,
                    "velocity": 0.36220472440944884,
                    "duration": 0.0789472499999988
                },
                {
                    "name": "A3",
                    "midi": 57,
                    "time": 21.315757499999986,
                    "velocity": 0.3779527559055118,
                    "duration": 0.0592104374999991
                },
                {
                    "name": "A3",
                    "midi": 57,
                    "time": 21.552599249999986,
                    "velocity": 0.2992125984251969,
                    "duration": 0.0394736249999994
                },
                {
                    "name": "A3",
                    "midi": 57,
                    "time": 21.631546499999985,
                    "velocity": 0.3543307086614173,
                    "duration": 0.0789472499999988
                },
                {
                    "name": "C4",
                    "midi": 60,
                    "time": 21.710493749999983,
                    "velocity": 0.33858267716535434,
                    "duration": 0.0789472499999988
                },
                {
                    "name": "B3",
                    "midi": 59,
                    "time": 21.789440999999982,
                    "velocity": 0.3543307086614173,
                    "duration": 0.0789472499999988
                },
                {
                    "name": "A3",
                    "midi": 57,
                    "time": 21.86838824999998,
                    "velocity": 0.33858267716535434,
                    "duration": 0.0789472499999988
                },
                {
                    "name": "E4",
                    "midi": 64,
                    "time": 21.94733549999998,
                    "velocity": 0.36220472440944884,
                    "duration": 0.0592104374999991
                },
                {
                    "name": "E3",
                    "midi": 52,
                    "time": 22.18417724999998,
                    "velocity": 0.2992125984251969,
                    "duration": 0.0394736249999994
                },
                {
                    "name": "E3",
                    "midi": 52,
                    "time": 22.26312449999998,
                    "velocity": 0.3543307086614173,
                    "duration": 0.0789472499999988
                },
                {
                    "name": "G3",
                    "midi": 55,
                    "time": 22.342071749999977,
                    "velocity": 0.33858267716535434,
                    "duration": 0.0789472499999988
                },
                {
                    "name": "F3",
                    "midi": 53,
                    "time": 22.421018999999976,
                    "velocity": 0.3543307086614173,
                    "duration": 0.0789472499999988
                },
                {
                    "name": "E3",
                    "midi": 52,
                    "time": 22.499966249999975,
                    "velocity": 0.33858267716535434,
                    "duration": 0.0789472499999988
                },
                {
                    "name": "A3",
                    "midi": 57,
                    "time": 22.578913499999974,
                    "velocity": 0.3779527559055118,
                    "duration": 0.0592104374999991
                },
                {
                    "name": "A3",
                    "midi": 57,
                    "time": 22.815755249999974,
                    "velocity": 0.2992125984251969,
                    "duration": 0.0394736249999994
                },
                {
                    "name": "A3",
                    "midi": 57,
                    "time": 22.894702499999973,
                    "velocity": 0.3543307086614173,
                    "duration": 0.0789472499999988
                },
                {
                    "name": "C4",
                    "midi": 60,
                    "time": 22.97364974999997,
                    "velocity": 0.33858267716535434,
                    "duration": 0.0789472499999988
                },
                {
                    "name": "B3",
                    "midi": 59,
                    "time": 23.05259699999997,
                    "velocity": 0.3543307086614173,
                    "duration": 0.0789472499999988
                },
                {
                    "name": "A3",
                    "midi": 57,
                    "time": 23.13154424999997,
                    "velocity": 0.33858267716535434,
                    "duration": 0.0789472499999988
                },
                {
                    "name": "E4",
                    "midi": 64,
                    "time": 23.210491499999968,
                    "velocity": 0.3779527559055118,
                    "duration": 0.31578899999999877
                },
                {
                    "name": "E3",
                    "midi": 52,
                    "time": 23.526280499999967,
                    "velocity": 0.28346456692913385,
                    "duration": 0.0789472499999988
                },
                {
                    "name": "A3",
                    "midi": 57,
                    "time": 23.743385437499967,
                    "velocity": 0.30708661417322836,
                    "duration": 0.15789450000000116
                },
                {
                    "name": "E4",
                    "midi": 64,
                    "time": 23.763122249999967,
                    "velocity": 0.3228346456692913,
                    "duration": 0.13815768750000146
                },
                {
                    "name": "A4",
                    "midi": 69,
                    "time": 23.782859062499966,
                    "velocity": 0.33858267716535434,
                    "duration": 0.11842087500000176
                },
                {
                    "name": "A4",
                    "midi": 69,
                    "time": 24.07891124999997,
                    "velocity": 0.3779527559055118,
                    "duration": 0.0394736249999994
                },
                {
                    "name": "A4",
                    "midi": 69,
                    "time": 24.157858499999968,
                    "velocity": 0.44881889763779526,
                    "duration": 0.0789472499999988
                },
                {
                    "name": "A#4",
                    "midi": 70,
                    "time": 24.236805749999967,
                    "velocity": 0.4251968503937008,
                    "duration": 0.0789472499999988
                },
                {
                    "name": "A4",
                    "midi": 69,
                    "time": 24.315752999999965,
                    "velocity": 0.44881889763779526,
                    "duration": 0.0789472499999988
                },
                {
                    "name": "G4",
                    "midi": 67,
                    "time": 24.394700249999964,
                    "velocity": 0.4251968503937008,
                    "duration": 0.052631500000000386
                },
                {
                    "name": "D3",
                    "midi": 50,
                    "time": 24.447331749999965,
                    "velocity": 0.41732283464566927,
                    "duration": 0.10526299999999722
                },
                {
                    "name": "F4",
                    "midi": 65,
                    "time": 24.473647499999963,
                    "velocity": 0.4645669291338583,
                    "duration": 0.0789472499999988
                },
                {
                    "name": "D4",
                    "midi": 62,
                    "time": 24.710489249999963,
                    "velocity": 0.3779527559055118,
                    "duration": 0.0394736249999994
                },
                {
                    "name": "D4",
                    "midi": 62,
                    "time": 24.78943649999996,
                    "velocity": 0.44881889763779526,
                    "duration": 0.0789472499999988
                },
                {
                    "name": "F4",
                    "midi": 65,
                    "time": 24.86838374999996,
                    "velocity": 0.4251968503937008,
                    "duration": 0.0789472499999988
                },
                {
                    "name": "E4",
                    "midi": 64,
                    "time": 24.94733099999996,
                    "velocity": 0.44881889763779526,
                    "duration": 0.0789472499999988
                },
                {
                    "name": "D4",
                    "midi": 62,
                    "time": 25.026278249999958,
                    "velocity": 0.4251968503937008,
                    "duration": 0.0789472499999988
                },
                {
                    "name": "G3",
                    "midi": 55,
                    "time": 25.105225499999957,
                    "velocity": 0.29133858267716534,
                    "duration": 0.21710493750000026
                },
                {
                    "name": "D4",
                    "midi": 62,
                    "time": 25.136804399999956,
                    "velocity": 0.31496062992125984,
                    "duration": 0.18552603750000074
                },
                {
                    "name": "G4",
                    "midi": 67,
                    "time": 25.168383299999956,
                    "velocity": 0.3464566929133858,
                    "duration": 0.15394713750000122
                },
                {
                    "name": "G4",
                    "midi": 67,
                    "time": 25.499961749999958,
                    "velocity": 0.3779527559055118,
                    "duration": 0.0394736249999994
                },
                {
                    "name": "G4",
                    "midi": 67,
                    "time": 25.578908999999957,
                    "velocity": 0.44881889763779526,
                    "duration": 0.0789472499999988
                },
                {
                    "name": "A4",
                    "midi": 69,
                    "time": 25.657856249999956,
                    "velocity": 0.4251968503937008,
                    "duration": 0.0789472499999988
                },
                {
                    "name": "G4",
                    "midi": 67,
                    "time": 25.736803499999954,
                    "velocity": 0.44881889763779526,
                    "duration": 0.0789472499999988
                },
                {
                    "name": "F4",
                    "midi": 65,
                    "time": 25.815750749999953,
                    "velocity": 0.4251968503937008,
                    "duration": 0.052631500000000386
                },
                {
                    "name": "C3",
                    "midi": 48,
                    "time": 25.868382249999954,
                    "velocity": 0.41732283464566927,
                    "duration": 0.10526299999999722
                },
                {
                    "name": "E4",
                    "midi": 64,
                    "time": 25.894697999999952,
                    "velocity": 0.4645669291338583,
                    "duration": 0.0789472499999988
                },
                {
                    "name": "C4",
                    "midi": 60,
                    "time": 26.131539749999952,
                    "velocity": 0.3779527559055118,
                    "duration": 0.0394736249999994
                },
                {
                    "name": "C4",
                    "midi": 60,
                    "time": 26.21048699999995,
                    "velocity": 0.44881889763779526,
                    "duration": 0.0789472499999988
                },
                {
                    "name": "E4",
                    "midi": 64,
                    "time": 26.28943424999995,
                    "velocity": 0.4251968503937008,
                    "duration": 0.0789472499999988
                },
                {
                    "name": "D4",
                    "midi": 62,
                    "time": 26.36838149999995,
                    "velocity": 0.44881889763779526,
                    "duration": 0.0789472499999988
                },
                {
                    "name": "C4",
                    "midi": 60,
                    "time": 26.447328749999947,
                    "velocity": 0.4251968503937008,
                    "duration": 0.0394736249999994
                },
                {
                    "name": "D3",
                    "midi": 50,
                    "time": 26.486802374999947,
                    "velocity": 0.25196850393700787,
                    "duration": 0.0986840624999985
                },
                {
                    "name": "G#3",
                    "midi": 56,
                    "time": 26.506539187499946,
                    "velocity": 0.28346456692913385,
                    "duration": 0.0789472499999988
                },
                {
                    "name": "F4",
                    "midi": 65,
                    "time": 26.526275999999946,
                    "velocity": 0.3779527559055118,
                    "duration": 0.0592104374999991
                },
                {
                    "name": "B3",
                    "midi": 59,
                    "time": 26.763117749999946,
                    "velocity": 0.2992125984251969,
                    "duration": 0.0394736249999994
                },
                {
                    "name": "B3",
                    "midi": 59,
                    "time": 26.842064999999945,
                    "velocity": 0.3543307086614173,
                    "duration": 0.0789472499999988
                },
                {
                    "name": "D4",
                    "midi": 62,
                    "time": 26.921012249999944,
                    "velocity": 0.33858267716535434,
                    "duration": 0.0789472499999988
                },
                {
                    "name": "C4",
                    "midi": 60,
                    "time": 26.999959499999942,
                    "velocity": 0.3543307086614173,
                    "duration": 0.0789472499999988
                },
                {
                    "name": "B3",
                    "midi": 59,
                    "time": 27.07890674999994,
                    "velocity": 0.33858267716535434,
                    "duration": 0.0394736249999994
                },
                {
                    "name": "C3",
                    "midi": 48,
                    "time": 27.11838037499994,
                    "velocity": 0.33070866141732286,
                    "duration": 0.0394736249999994
                },
                {
                    "name": "E4",
                    "midi": 64,
                    "time": 27.15785399999994,
                    "velocity": 0.36220472440944884,
                    "duration": 0.0592104374999991
                },
                {
                    "name": "A3",
                    "midi": 57,
                    "time": 27.39469574999994,
                    "velocity": 0.2992125984251969,
                    "duration": 0.0394736249999994
                },
                {
                    "name": "A3",
                    "midi": 57,
                    "time": 27.47364299999994,
                    "velocity": 0.3543307086614173,
                    "duration": 0.0789472499999988
                },
                {
                    "name": "C4",
                    "midi": 60,
                    "time": 27.552590249999938,
                    "velocity": 0.33858267716535434,
                    "duration": 0.0789472499999988
                },
                {
                    "name": "B3",
                    "midi": 59,
                    "time": 27.631537499999936,
                    "velocity": 0.3543307086614173,
                    "duration": 0.0789472499999988
                },
                {
                    "name": "A3",
                    "midi": 57,
                    "time": 27.710484749999935,
                    "velocity": 0.33858267716535434,
                    "duration": 0.0789472499999988
                },
                {
                    "name": "F3",
                    "midi": 53,
                    "time": 27.789431999999934,
                    "velocity": 0.3779527559055118,
                    "duration": 0.31578899999999877
                },
                {
                    "name": "B3",
                    "midi": 59,
                    "time": 28.026273749999934,
                    "velocity": 0.2992125984251969,
                    "duration": 0.0789472499999988
                },
                {
                    "name": "E3",
                    "midi": 52,
                    "time": 28.105220999999933,
                    "velocity": 0.3543307086614173,
                    "duration": 0.3157889999999952
                },
                {
                    "name": "E4",
                    "midi": 64,
                    "time": 28.18416824999993,
                    "velocity": 0.33858267716535434,
                    "duration": 0.0789472499999988
                },
                {
                    "name": "D4",
                    "midi": 62,
                    "time": 28.26311549999993,
                    "velocity": 0.3543307086614173,
                    "duration": 0.0789472499999988
                },
                {
                    "name": "B3",
                    "midi": 59,
                    "time": 28.34206274999993,
                    "velocity": 0.33858267716535434,
                    "duration": 0.0789472499999988
                },
                {
                    "name": "A3",
                    "midi": 57,
                    "time": 28.421009999999928,
                    "velocity": 0.3779527559055118,
                    "duration": 0.31578899999999877
                },
                {
                    "name": "E4",
                    "midi": 64,
                    "time": 28.736798999999927,
                    "velocity": 0.2125984251968504,
                    "duration": 0.0789472499999988
                },
                {
                    "name": "C5",
                    "midi": 72,
                    "time": 28.736798999999927,
                    "velocity": 0.28346456692913385,
                    "duration": 0.0789472499999988
                },
                {
                    "name": "F2",
                    "midi": 41,
                    "time": 29.052587999999925,
                    "velocity": 0.33858267716535434,
                    "duration": 0.3157889999999952
                },
                {
                    "name": "A2",
                    "midi": 45,
                    "time": 29.052587999999925,
                    "velocity": 0.4015748031496063,
                    "duration": 0.08552618749999752
                },
                {
                    "name": "G#2",
                    "midi": 44,
                    "time": 29.131535249999924,
                    "velocity": 0.3779527559055118,
                    "duration": 0.08552618749999752
                },
                {
                    "name": "A2",
                    "midi": 45,
                    "time": 29.210482499999923,
                    "velocity": 0.4015748031496063,
                    "duration": 0.08552618749999752
                },
                {
                    "name": "G#2",
                    "midi": 44,
                    "time": 29.289429749999922,
                    "velocity": 0.3779527559055118,
                    "duration": 0.0789472499999988
                },
                {
                    "name": "E3",
                    "midi": 52,
                    "time": 29.68416599999992,
                    "velocity": 0.4015748031496063,
                    "duration": 0.08552618749999752
                },
                {
                    "name": "E2",
                    "midi": 40,
                    "time": 29.68416599999992,
                    "velocity": 0.33858267716535434,
                    "duration": 0.3157889999999952
                },
                {
                    "name": "G#2",
                    "midi": 44,
                    "time": 29.68416599999992,
                    "velocity": 0.33858267716535434,
                    "duration": 0.3157889999999952
                },
                {
                    "name": "D#3",
                    "midi": 51,
                    "time": 29.76311324999992,
                    "velocity": 0.3779527559055118,
                    "duration": 0.08552618749999752
                },
                {
                    "name": "E3",
                    "midi": 52,
                    "time": 29.842060499999917,
                    "velocity": 0.4015748031496063,
                    "duration": 0.08552618749999752
                },
                {
                    "name": "D#3",
                    "midi": 51,
                    "time": 29.921007749999916,
                    "velocity": 0.3779527559055118,
                    "duration": 0.0789472499999988
                },
                {
                    "name": "F2",
                    "midi": 41,
                    "time": 30.315743999999913,
                    "velocity": 0.2992125984251969,
                    "duration": 0.3157889999999952
                },
                {
                    "name": "A2",
                    "midi": 45,
                    "time": 30.315743999999913,
                    "velocity": 0.3543307086614173,
                    "duration": 0.08552618749999752
                },
                {
                    "name": "G#2",
                    "midi": 44,
                    "time": 30.394691249999912,
                    "velocity": 0.33858267716535434,
                    "duration": 0.08552618749999752
                },
                {
                    "name": "A2",
                    "midi": 45,
                    "time": 30.47363849999991,
                    "velocity": 0.3543307086614173,
                    "duration": 0.08552618749999752
                },
                {
                    "name": "G#2",
                    "midi": 44,
                    "time": 30.55258574999991,
                    "velocity": 0.3228346456692913,
                    "duration": 0.0789472499999988
                },
                {
                    "name": "E2",
                    "midi": 40,
                    "time": 30.947321999999907,
                    "velocity": 0.28346456692913385,
                    "duration": 0.3157889999999952
                },
                {
                    "name": "G#2",
                    "midi": 44,
                    "time": 30.947321999999907,
                    "velocity": 0.28346456692913385,
                    "duration": 0.3157889999999952
                },
                {
                    "name": "E3",
                    "midi": 52,
                    "time": 30.947321999999907,
                    "velocity": 0.33858267716535434,
                    "duration": 0.08552618749999752
                },
                {
                    "name": "D#3",
                    "midi": 51,
                    "time": 31.026269249999906,
                    "velocity": 0.31496062992125984,
                    "duration": 0.08552618749999752
                },
                {
                    "name": "E3",
                    "midi": 52,
                    "time": 31.105216499999905,
                    "velocity": 0.33070866141732286,
                    "duration": 0.08552618749999752
                },
                {
                    "name": "D#3",
                    "midi": 51,
                    "time": 31.184163749999904,
                    "velocity": 0.30708661417322836,
                    "duration": 0.0789472499999988
                },
                {
                    "name": "F3",
                    "midi": 53,
                    "time": 31.5788999999999,
                    "velocity": 0.33858267716535434,
                    "duration": 0.3157889999999952
                },
                {
                    "name": "A3",
                    "midi": 57,
                    "time": 31.5788999999999,
                    "velocity": 0.4015748031496063,
                    "duration": 0.08552618749999752
                },
                {
                    "name": "G#3",
                    "midi": 56,
                    "time": 31.6578472499999,
                    "velocity": 0.3779527559055118,
                    "duration": 0.08552618749999752
                },
                {
                    "name": "A3",
                    "midi": 57,
                    "time": 31.7367944999999,
                    "velocity": 0.4015748031496063,
                    "duration": 0.08552618749999752
                },
                {
                    "name": "G#3",
                    "midi": 56,
                    "time": 31.815741749999898,
                    "velocity": 0.3779527559055118,
                    "duration": 0.0789472499999988
                },
                {
                    "name": "E3",
                    "midi": 52,
                    "time": 32.210477999999895,
                    "velocity": 0.33858267716535434,
                    "duration": 0.3157889999999952
                },
                {
                    "name": "G#3",
                    "midi": 56,
                    "time": 32.210477999999895,
                    "velocity": 0.33858267716535434,
                    "duration": 0.3157889999999952
                },
                {
                    "name": "E4",
                    "midi": 64,
                    "time": 32.210477999999895,
                    "velocity": 0.4015748031496063,
                    "duration": 0.08552618750000107
                },
                {
                    "name": "D#4",
                    "midi": 63,
                    "time": 32.289425249999894,
                    "velocity": 0.3779527559055118,
                    "duration": 0.08552618750000107
                },
                {
                    "name": "E4",
                    "midi": 64,
                    "time": 32.36837249999989,
                    "velocity": 0.4015748031496063,
                    "duration": 0.08552618750000107
                },
                {
                    "name": "D#4",
                    "midi": 63,
                    "time": 32.44731974999989,
                    "velocity": 0.3779527559055118,
                    "duration": 0.0789472499999988
                },
                {
                    "name": "F3",
                    "midi": 53,
                    "time": 32.84205599999989,
                    "velocity": 0.2992125984251969,
                    "duration": 0.3157889999999952
                },
                {
                    "name": "A3",
                    "midi": 57,
                    "time": 32.84205599999989,
                    "velocity": 0.3543307086614173,
                    "duration": 0.08552618750000107
                },
                {
                    "name": "G#3",
                    "midi": 56,
                    "time": 32.92100324999989,
                    "velocity": 0.33858267716535434,
                    "duration": 0.08552618750000107
                },
                {
                    "name": "A3",
                    "midi": 57,
                    "time": 32.99995049999989,
                    "velocity": 0.3543307086614173,
                    "duration": 0.08552618750000107
                },
                {
                    "name": "G#3",
                    "midi": 56,
                    "time": 33.07889774999989,
                    "velocity": 0.3228346456692913,
                    "duration": 0.0789472499999988
                },
                {
                    "name": "E3",
                    "midi": 52,
                    "time": 33.47363399999989,
                    "velocity": 0.28346456692913385,
                    "duration": 0.3157889999999952
                },
                {
                    "name": "G#3",
                    "midi": 56,
                    "time": 33.47363399999989,
                    "velocity": 0.28346456692913385,
                    "duration": 0.3157889999999952
                },
                {
                    "name": "E4",
                    "midi": 64,
                    "time": 33.47363399999989,
                    "velocity": 0.33858267716535434,
                    "duration": 0.08552618750000107
                },
                {
                    "name": "D#4",
                    "midi": 63,
                    "time": 33.55258124999989,
                    "velocity": 0.31496062992125984,
                    "duration": 0.08552618750000107
                },
                {
                    "name": "E4",
                    "midi": 64,
                    "time": 33.63152849999989,
                    "velocity": 0.33070866141732286,
                    "duration": 0.08552618750000107
                },
                {
                    "name": "D#4",
                    "midi": 63,
                    "time": 33.71047574999989,
                    "velocity": 0.30708661417322836,
                    "duration": 0.0789472499999988
                },
                {
                    "name": "C#4",
                    "midi": 61,
                    "time": 34.10521199999989,
                    "velocity": 0.31496062992125984,
                    "duration": 0.3157889999999952
                },
                {
                    "name": "E4",
                    "midi": 64,
                    "time": 34.10521199999989,
                    "velocity": 0.33858267716535434,
                    "duration": 0.3157889999999952
                },
                {
                    "name": "A4",
                    "midi": 69,
                    "time": 34.10521199999989,
                    "velocity": 0.4015748031496063,
                    "duration": 0.08552618750000107
                },
                {
                    "name": "G#4",
                    "midi": 68,
                    "time": 34.18415924999989,
                    "velocity": 0.3779527559055118,
                    "duration": 0.08552618750000107
                },
                {
                    "name": "A4",
                    "midi": 69,
                    "time": 34.263106499999886,
                    "velocity": 0.4015748031496063,
                    "duration": 0.08552618750000107
                },
                {
                    "name": "G#4",
                    "midi": 68,
                    "time": 34.342053749999884,
                    "velocity": 0.3779527559055118,
                    "duration": 0.0789472499999988
                },
                {
                    "name": "F3",
                    "midi": 53,
                    "time": 34.736789999999885,
                    "velocity": 0.33858267716535434,
                    "duration": 0.3157889999999952
                },
                {
                    "name": "A3",
                    "midi": 57,
                    "time": 34.736789999999885,
                    "velocity": 0.33858267716535434,
                    "duration": 0.3157889999999952
                },
                {
                    "name": "D4",
                    "midi": 62,
                    "time": 34.736789999999885,
                    "velocity": 0.4015748031496063,
                    "duration": 0.08552618750000107
                },
                {
                    "name": "C#4",
                    "midi": 61,
                    "time": 34.815737249999884,
                    "velocity": 0.3779527559055118,
                    "duration": 0.08552618750000107
                },
                {
                    "name": "D4",
                    "midi": 62,
                    "time": 34.89468449999988,
                    "velocity": 0.4015748031496063,
                    "duration": 0.08552618750000107
                },
                {
                    "name": "C#4",
                    "midi": 61,
                    "time": 34.97363174999988,
                    "velocity": 0.3779527559055118,
                    "duration": 0.0789472499999988
                },
                {
                    "name": "B3",
                    "midi": 59,
                    "time": 35.36836799999988,
                    "velocity": 0.30708661417322836,
                    "duration": 0.3157889999999952
                },
                {
                    "name": "D4",
                    "midi": 62,
                    "time": 35.36836799999988,
                    "velocity": 0.3228346456692913,
                    "duration": 0.3157889999999952
                },
                {
                    "name": "G4",
                    "midi": 67,
                    "time": 35.36836799999988,
                    "velocity": 0.3858267716535433,
                    "duration": 0.08552618750000107
                },
                {
                    "name": "F#4",
                    "midi": 66,
                    "time": 35.44731524999988,
                    "velocity": 0.3700787401574803,
                    "duration": 0.08552618750000107
                },
                {
                    "name": "G4",
                    "midi": 67,
                    "time": 35.52626249999988,
                    "velocity": 0.3779527559055118,
                    "duration": 0.08552618750000107
                },
                {
                    "name": "F#4",
                    "midi": 66,
                    "time": 35.60520974999988,
                    "velocity": 0.3543307086614173,
                    "duration": 0.0789472499999988
                },
                {
                    "name": "E3",
                    "midi": 52,
                    "time": 35.99994599999988,
                    "velocity": 0.33858267716535434,
                    "duration": 0.3157889999999952
                },
                {
                    "name": "G3",
                    "midi": 55,
                    "time": 35.99994599999988,
                    "velocity": 0.33858267716535434,
                    "duration": 0.3157889999999952
                },
                {
                    "name": "C4",
                    "midi": 60,
                    "time": 35.99994599999988,
                    "velocity": 0.4015748031496063,
                    "duration": 0.08552618750000107
                },
                {
                    "name": "B3",
                    "midi": 59,
                    "time": 36.07889324999988,
                    "velocity": 0.3779527559055118,
                    "duration": 0.08552618750000107
                },
                {
                    "name": "C4",
                    "midi": 60,
                    "time": 36.15784049999988,
                    "velocity": 0.4015748031496063,
                    "duration": 0.08552618750000107
                },
                {
                    "name": "B3",
                    "midi": 59,
                    "time": 36.23678774999988,
                    "velocity": 0.3779527559055118,
                    "duration": 0.0789472499999988
                },
                {
                    "name": "D3",
                    "midi": 50,
                    "time": 36.63152399999988,
                    "velocity": 0.30708661417322836,
                    "duration": 0.3157889999999952
                },
                {
                    "name": "G#3",
                    "midi": 56,
                    "time": 36.63152399999988,
                    "velocity": 0.33858267716535434,
                    "duration": 0.3157889999999952
                },
                {
                    "name": "F4",
                    "midi": 65,
                    "time": 36.63152399999988,
                    "velocity": 0.4015748031496063,
                    "duration": 0.08552618750000107
                },
                {
                    "name": "E4",
                    "midi": 64,
                    "time": 36.71047124999988,
                    "velocity": 0.3779527559055118,
                    "duration": 0.08552618750000107
                },
                {
                    "name": "F4",
                    "midi": 65,
                    "time": 36.789418499999876,
                    "velocity": 0.4015748031496063,
                    "duration": 0.08552618750000107
                },
                {
                    "name": "E4",
                    "midi": 64,
                    "time": 36.868365749999874,
                    "velocity": 0.3779527559055118,
                    "duration": 0.0789472499999988
                },
                {
                    "name": "C3",
                    "midi": 48,
                    "time": 37.263101999999876,
                    "velocity": 0.33858267716535434,
                    "duration": 0.3157889999999952
                },
                {
                    "name": "A3",
                    "midi": 57,
                    "time": 37.263101999999876,
                    "velocity": 0.33858267716535434,
                    "duration": 0.3157889999999952
                },
                {
                    "name": "E4",
                    "midi": 64,
                    "time": 37.263101999999876,
                    "velocity": 0.4015748031496063,
                    "duration": 0.08552618750000107
                },
                {
                    "name": "D#4",
                    "midi": 63,
                    "time": 37.342049249999874,
                    "velocity": 0.3779527559055118,
                    "duration": 0.08552618750000107
                },
                {
                    "name": "E4",
                    "midi": 64,
                    "time": 37.42099649999987,
                    "velocity": 0.4015748031496063,
                    "duration": 0.08552618750000107
                },
                {
                    "name": "D#4",
                    "midi": 63,
                    "time": 37.49994374999987,
                    "velocity": 0.3779527559055118,
                    "duration": 0.0789472499999988
                },
                {
                    "name": "D3",
                    "midi": 50,
                    "time": 37.89467999999987,
                    "velocity": 0.28346456692913385,
                    "duration": 0.3157889999999952
                },
                {
                    "name": "F3",
                    "midi": 53,
                    "time": 37.89467999999987,
                    "velocity": 0.2992125984251969,
                    "duration": 0.3157889999999952
                },
                {
                    "name": "A#3",
                    "midi": 58,
                    "time": 37.89467999999987,
                    "velocity": 0.3543307086614173,
                    "duration": 0.08552618750000107
                },
                {
                    "name": "A3",
                    "midi": 57,
                    "time": 37.97362724999987,
                    "velocity": 0.33858267716535434,
                    "duration": 0.08552618750000107
                },
                {
                    "name": "A#3",
                    "midi": 58,
                    "time": 38.05257449999987,
                    "velocity": 0.3543307086614173,
                    "duration": 0.08552618750000107
                },
                {
                    "name": "A3",
                    "midi": 57,
                    "time": 38.13152174999987,
                    "velocity": 0.3228346456692913,
                    "duration": 0.0789472499999988
                },
                {
                    "name": "E3",
                    "midi": 52,
                    "time": 38.21046899999987,
                    "velocity": 0.28346456692913385,
                    "duration": 0.1578944999999976
                },
                {
                    "name": "G#3",
                    "midi": 56,
                    "time": 38.21046899999987,
                    "velocity": 0.33858267716535434,
                    "duration": 0.1578944999999976
                },
                {
                    "name": "A3",
                    "midi": 57,
                    "time": 38.526257999999864,
                    "velocity": 0.3464566929133858,
                    "duration": 0.08552618750000107
                },
                {
                    "name": "G#3",
                    "midi": 56,
                    "time": 38.60520524999986,
                    "velocity": 0.31496062992125984,
                    "duration": 0.08552618750000107
                },
                {
                    "name": "A3",
                    "midi": 57,
                    "time": 38.68415249999986,
                    "velocity": 0.3543307086614173,
                    "duration": 0.08552618750000107
                },
                {
                    "name": "G#3",
                    "midi": 56,
                    "time": 38.76309974999986,
                    "velocity": 0.30708661417322836,
                    "duration": 0.0789472499999988
                },
                {
                    "name": "A3",
                    "midi": 57,
                    "time": 38.84204699999986,
                    "velocity": 0.33858267716535434,
                    "duration": 0.0394736249999994
                },
                {
                    "name": "A2",
                    "midi": 45,
                    "time": 39.15783599999986,
                    "velocity": 0.4015748031496063,
                    "duration": 0.08552618750000107
                },
                {
                    "name": "G#2",
                    "midi": 44,
                    "time": 39.23678324999986,
                    "velocity": 0.3779527559055118,
                    "duration": 0.08552618750000107
                },
                {
                    "name": "A2",
                    "midi": 45,
                    "time": 39.31573049999986,
                    "velocity": 0.4015748031496063,
                    "duration": 0.08552618750000107
                },
                {
                    "name": "G#2",
                    "midi": 44,
                    "time": 39.39467774999986,
                    "velocity": 0.3779527559055118,
                    "duration": 0.0394736249999994
                },
                {
                    "name": "A#2",
                    "midi": 46,
                    "time": 39.43415137499986,
                    "velocity": 0.36220472440944884,
                    "duration": 0.04605256250000167
                },
                {
                    "name": "A2",
                    "midi": 45,
                    "time": 39.473624999999856,
                    "velocity": 0.4015748031496063,
                    "duration": 0.08552618750000107
                },
                {
                    "name": "G2",
                    "midi": 43,
                    "time": 39.552572249999855,
                    "velocity": 0.3779527559055118,
                    "duration": 0.08552618750000107
                },
                {
                    "name": "F2",
                    "midi": 41,
                    "time": 39.631519499999854,
                    "velocity": 0.4015748031496063,
                    "duration": 0.08552618750000107
                },
                {
                    "name": "E2",
                    "midi": 40,
                    "time": 39.71046674999985,
                    "velocity": 0.3700787401574803,
                    "duration": 0.0789472499999988
                },
                {
                    "name": "D2",
                    "midi": 38,
                    "time": 39.78941399999985,
                    "velocity": 0.4015748031496063,
                    "duration": 0.08552618750000107
                },
                {
                    "name": "C#2",
                    "midi": 37,
                    "time": 39.86836124999985,
                    "velocity": 0.3779527559055118,
                    "duration": 0.08552618750000107
                },
                {
                    "name": "D2",
                    "midi": 38,
                    "time": 39.94730849999985,
                    "velocity": 0.4015748031496063,
                    "duration": 0.08552618750000107
                },
                {
                    "name": "C#2",
                    "midi": 37,
                    "time": 40.02625574999985,
                    "velocity": 0.3779527559055118,
                    "duration": 0.0394736249999994
                },
                {
                    "name": "D#2",
                    "midi": 39,
                    "time": 40.06572937499985,
                    "velocity": 0.3779527559055118,
                    "duration": 0.04605256250000167
                },
                {
                    "name": "D2",
                    "midi": 38,
                    "time": 40.10520299999985,
                    "velocity": 0.41732283464566927,
                    "duration": 0.08552618750000107
                },
                {
                    "name": "E2",
                    "midi": 40,
                    "time": 40.184150249999846,
                    "velocity": 0.3779527559055118,
                    "duration": 0.08552618750000107
                },
                {
                    "name": "F2",
                    "midi": 41,
                    "time": 40.263097499999844,
                    "velocity": 0.4015748031496063,
                    "duration": 0.08552618750000107
                },
                {
                    "name": "D2",
                    "midi": 38,
                    "time": 40.34204474999984,
                    "velocity": 0.3700787401574803,
                    "duration": 0.08552618750000107
                },
                {
                    "name": "G2",
                    "midi": 43,
                    "time": 40.42099199999984,
                    "velocity": 0.4015748031496063,
                    "duration": 0.08552618750000107
                },
                {
                    "name": "F#2",
                    "midi": 42,
                    "time": 40.49993924999984,
                    "velocity": 0.3779527559055118,
                    "duration": 0.08552618750000107
                },
                {
                    "name": "G2",
                    "midi": 43,
                    "time": 40.57888649999984,
                    "velocity": 0.4015748031496063,
                    "duration": 0.08552618750000107
                },
                {
                    "name": "F#2",
                    "midi": 42,
                    "time": 40.65783374999984,
                    "velocity": 0.3779527559055118,
                    "duration": 0.0394736249999994
                },
                {
                    "name": "G#2",
                    "midi": 44,
                    "time": 40.69730737499984,
                    "velocity": 0.3858267716535433,
                    "duration": 0.04605256250000167
                },
                {
                    "name": "G2",
                    "midi": 43,
                    "time": 40.73678099999984,
                    "velocity": 0.4015748031496063,
                    "duration": 0.08552618750000107
                },
                {
                    "name": "F2",
                    "midi": 41,
                    "time": 40.815728249999836,
                    "velocity": 0.3779527559055118,
                    "duration": 0.08552618750000107
                },
                {
                    "name": "E2",
                    "midi": 40,
                    "time": 40.894675499999835,
                    "velocity": 0.4015748031496063,
                    "duration": 0.08552618750000107
                },
                {
                    "name": "D2",
                    "midi": 38,
                    "time": 40.973622749999834,
                    "velocity": 0.3700787401574803,
                    "duration": 0.0789472499999988
                },
                {
                    "name": "C2",
                    "midi": 36,
                    "time": 41.05256999999983,
                    "velocity": 0.4015748031496063,
                    "duration": 0.08552618750000107
                },
                {
                    "name": "B1",
                    "midi": 35,
                    "time": 41.13151724999983,
                    "velocity": 0.3779527559055118,
                    "duration": 0.08552618750000107
                },
                {
                    "name": "C2",
                    "midi": 36,
                    "time": 41.21046449999983,
                    "velocity": 0.4015748031496063,
                    "duration": 0.08552618750000107
                },
                {
                    "name": "B1",
                    "midi": 35,
                    "time": 41.28941174999983,
                    "velocity": 0.3779527559055118,
                    "duration": 0.0394736249999994
                },
                {
                    "name": "C#2",
                    "midi": 37,
                    "time": 41.32888537499983,
                    "velocity": 0.3700787401574803,
                    "duration": 0.04605256250000167
                },
                {
                    "name": "C2",
                    "midi": 36,
                    "time": 41.36835899999983,
                    "velocity": 0.4094488188976378,
                    "duration": 0.08552618750000107
                },
                {
                    "name": "D2",
                    "midi": 38,
                    "time": 41.447306249999826,
                    "velocity": 0.3779527559055118,
                    "duration": 0.08552618750000107
                },
                {
                    "name": "E2",
                    "midi": 40,
                    "time": 41.526253499999825,
                    "velocity": 0.4015748031496063,
                    "duration": 0.08552618750000107
                },
                {
                    "name": "C2",
                    "midi": 36,
                    "time": 41.605200749999824,
                    "velocity": 0.3700787401574803,
                    "duration": 0.08552618750000107
                },
                {
                    "name": "F2",
                    "midi": 41,
                    "time": 41.68414799999982,
                    "velocity": 0.4015748031496063,
                    "duration": 0.08552618750000107
                },
                {
                    "name": "E2",
                    "midi": 40,
                    "time": 41.76309524999982,
                    "velocity": 0.3779527559055118,
                    "duration": 0.08552618750000107
                },
                {
                    "name": "F2",
                    "midi": 41,
                    "time": 41.84204249999982,
                    "velocity": 0.4015748031496063,
                    "duration": 0.08552618750000107
                },
                {
                    "name": "E2",
                    "midi": 40,
                    "time": 41.92098974999982,
                    "velocity": 0.3779527559055118,
                    "duration": 0.0394736249999994
                },
                {
                    "name": "G2",
                    "midi": 43,
                    "time": 41.96046337499982,
                    "velocity": 0.36220472440944884,
                    "duration": 0.04605256250000167
                },
                {
                    "name": "F2",
                    "midi": 41,
                    "time": 41.99993699999982,
                    "velocity": 0.3937007874015748,
                    "duration": 0.08552618750000107
                },
                {
                    "name": "D2",
                    "midi": 38,
                    "time": 42.07888424999982,
                    "velocity": 0.3779527559055118,
                    "duration": 0.08552618750000107
                },
                {
                    "name": "C2",
                    "midi": 36,
                    "time": 42.157831499999816,
                    "velocity": 0.4015748031496063,
                    "duration": 0.08552618750000107
                },
                {
                    "name": "B1",
                    "midi": 35,
                    "time": 42.236778749999814,
                    "velocity": 0.3700787401574803,
                    "duration": 0.08552618750000107
                },
                {
                    "name": "E2",
                    "midi": 40,
                    "time": 42.31572599999981,
                    "velocity": 0.4015748031496063,
                    "duration": 0.08552618750000107
                },
                {
                    "name": "D#2",
                    "midi": 39,
                    "time": 42.39467324999981,
                    "velocity": 0.3779527559055118,
                    "duration": 0.08552618750000107
                },
                {
                    "name": "E2",
                    "midi": 40,
                    "time": 42.47362049999981,
                    "velocity": 0.4015748031496063,
                    "duration": 0.08552618750000107
                },
                {
                    "name": "D#2",
                    "midi": 39,
                    "time": 42.55256774999981,
                    "velocity": 0.3779527559055118,
                    "duration": 0.0394736249999994
                },
                {
                    "name": "F2",
                    "midi": 41,
                    "time": 42.59204137499981,
                    "velocity": 0.3543307086614173,
                    "duration": 0.04605256250000167
                },
                {
                    "name": "E2",
                    "midi": 40,
                    "time": 42.63151499999981,
                    "velocity": 0.3937007874015748,
                    "duration": 0.08552618750000107
                },
                {
                    "name": "C2",
                    "midi": 36,
                    "time": 42.71046224999981,
                    "velocity": 0.3779527559055118,
                    "duration": 0.08552618750000107
                },
                {
                    "name": "B1",
                    "midi": 35,
                    "time": 42.789409499999806,
                    "velocity": 0.4015748031496063,
                    "duration": 0.08552618750000107
                },
                {
                    "name": "A1",
                    "midi": 33,
                    "time": 42.868356749999805,
                    "velocity": 0.3700787401574803,
                    "duration": 0.0789472499999988
                },
                {
                    "name": "B1",
                    "midi": 35,
                    "time": 42.947303999999804,
                    "velocity": 0.4015748031496063,
                    "duration": 0.08552618750000107
                },
                {
                    "name": "A#1",
                    "midi": 34,
                    "time": 43.0262512499998,
                    "velocity": 0.3779527559055118,
                    "duration": 0.08552618750000107
                },
                {
                    "name": "B1",
                    "midi": 35,
                    "time": 43.1051984999998,
                    "velocity": 0.4015748031496063,
                    "duration": 0.08552618750000107
                },
                {
                    "name": "A#1",
                    "midi": 34,
                    "time": 43.1841457499998,
                    "velocity": 0.3779527559055118,
                    "duration": 0.0789472499999988
                },
                {
                    "name": "C2",
                    "midi": 36,
                    "time": 43.2630929999998,
                    "velocity": 0.4015748031496063,
                    "duration": 0.08552618750000107
                },
                {
                    "name": "B1",
                    "midi": 35,
                    "time": 43.3420402499998,
                    "velocity": 0.3779527559055118,
                    "duration": 0.08552618750000107
                },
                {
                    "name": "F2",
                    "midi": 41,
                    "time": 43.4209874999998,
                    "velocity": 0.4015748031496063,
                    "duration": 0.08552618750000107
                },
                {
                    "name": "E2",
                    "midi": 40,
                    "time": 43.499934749999795,
                    "velocity": 0.3700787401574803,
                    "duration": 0.0789472499999988
                },
                {
                    "name": "A1",
                    "midi": 33,
                    "time": 43.578881999999794,
                    "velocity": 0.33858267716535434,
                    "duration": 0.0789472499999988
                },
                {
                    "name": "G#1",
                    "midi": 32,
                    "time": 43.65782924999979,
                    "velocity": 0.31496062992125984,
                    "duration": 0.0789472499999988
                },
                {
                    "name": "A1",
                    "midi": 33,
                    "time": 43.73677649999979,
                    "velocity": 0.33858267716535434,
                    "duration": 0.0789472499999988
                },
                {
                    "name": "G#1",
                    "midi": 32,
                    "time": 43.81572374999979,
                    "velocity": 0.31496062992125984,
                    "duration": 0.0394736249999994
                },
                {
                    "name": "A#1",
                    "midi": 34,
                    "time": 43.85519737499979,
                    "velocity": 0.28346456692913385,
                    "duration": 0.04605256250000167
                },
                {
                    "name": "A1",
                    "midi": 33,
                    "time": 43.89467099999979,
                    "velocity": 0.33858267716535434,
                    "duration": 0.0789472499999988
                },
                {
                    "name": "G#1",
                    "midi": 32,
                    "time": 43.97361824999979,
                    "velocity": 0.31496062992125984,
                    "duration": 0.0789472499999988
                },
                {
                    "name": "A1",
                    "midi": 33,
                    "time": 44.05256549999979,
                    "velocity": 0.33858267716535434,
                    "duration": 0.0789472499999988
                },
                {
                    "name": "G#1",
                    "midi": 32,
                    "time": 44.131512749999786,
                    "velocity": 0.31496062992125984,
                    "duration": 0.0789472499999988
                },
                {
                    "name": "A1",
                    "midi": 33,
                    "time": 44.210459999999784,
                    "velocity": 0.33858267716535434,
                    "duration": 0.0789472499999988
                },
                {
                    "name": "G#1",
                    "midi": 32,
                    "time": 44.28940724999978,
                    "velocity": 0.30708661417322836,
                    "duration": 0.0789472499999988
                },
                {
                    "name": "A1",
                    "midi": 33,
                    "time": 44.36835449999978,
                    "velocity": 0.33070866141732286,
                    "duration": 0.0789472499999988
                },
                {
                    "name": "G#1",
                    "midi": 32,
                    "time": 44.44730174999978,
                    "velocity": 0.2992125984251969,
                    "duration": 0.0394736249999994
                },
                {
                    "name": "A#1",
                    "midi": 34,
                    "time": 44.48677537499978,
                    "velocity": 0.31496062992125984,
                    "duration": 0.04605256250000167
                },
                {
                    "name": "A1",
                    "midi": 33,
                    "time": 44.52624899999978,
                    "velocity": 0.2992125984251969,
                    "duration": 0.0789472499999988
                },
                {
                    "name": "G#1",
                    "midi": 32,
                    "time": 44.60519624999978,
                    "velocity": 0.2755905511811024,
                    "duration": 0.0789472499999988
                },
                {
                    "name": "A1",
                    "midi": 33,
                    "time": 44.68414349999978,
                    "velocity": 0.29133858267716534,
                    "duration": 0.0789472499999988
                },
                {
                    "name": "G#1",
                    "midi": 32,
                    "time": 44.763090749999776,
                    "velocity": 0.25984251968503935,
                    "duration": 0.0789472499999988
                },
                {
                    "name": "A1",
                    "midi": 33,
                    "time": 44.842037999999775,
                    "velocity": 0.2755905511811024,
                    "duration": 0.0789472499999988
                },
                {
                    "name": "G#1",
                    "midi": 32,
                    "time": 44.920985249999774,
                    "velocity": 0.2440944881889764,
                    "duration": 0.0789472499999988
                },
                {
                    "name": "A1",
                    "midi": 33,
                    "time": 44.99993249999977,
                    "velocity": 0.25196850393700787,
                    "duration": 0.0789472499999988
                },
                {
                    "name": "G#1",
                    "midi": 32,
                    "time": 45.07887974999977,
                    "velocity": 0.2204724409448819,
                    "duration": 0.0394736249999994
                },
                {
                    "name": "A#1",
                    "midi": 34,
                    "time": 45.11835337499977,
                    "velocity": 0.2283464566929134,
                    "duration": 0.04605256250000167
                },
                {
                    "name": "A1",
                    "midi": 33,
                    "time": 45.15782699999977,
                    "velocity": 0.2283464566929134,
                    "duration": 0.0789472499999988
                },
                {
                    "name": "G#1",
                    "midi": 32,
                    "time": 45.23677424999977,
                    "velocity": 0.2125984251968504,
                    "duration": 0.0789472499999988
                },
                {
                    "name": "A1",
                    "midi": 33,
                    "time": 45.31572149999977,
                    "velocity": 0.2125984251968504,
                    "duration": 0.0789472499999988
                },
                {
                    "name": "G#1",
                    "midi": 32,
                    "time": 45.39466874999977,
                    "velocity": 0.1889763779527559,
                    "duration": 0.0789472499999988
                },
                {
                    "name": "A1",
                    "midi": 33,
                    "time": 45.473615999999765,
                    "velocity": 0.18110236220472442,
                    "duration": 0.1578944999999976
                },
                {
                    "name": "C2",
                    "midi": 36,
                    "time": 46.10519399999976,
                    "velocity": 0.44881889763779526,
                    "duration": 0.3157890000000023
                },
                {
                    "name": "C3",
                    "midi": 48,
                    "time": 46.10519399999976,
                    "velocity": 0.5433070866141733,
                    "duration": 0.3157890000000023
                },
                {
                    "name": "D#3",
                    "midi": 51,
                    "time": 46.342035749999766,
                    "velocity": 0.3228346456692913,
                    "duration": 0.0789472499999988
                },
                {
                    "name": "F#3",
                    "midi": 54,
                    "time": 46.342035749999766,
                    "velocity": 0.3228346456692913,
                    "duration": 0.0789472499999988
                },
                {
                    "name": "C4",
                    "midi": 60,
                    "time": 46.342035749999766,
                    "velocity": 0.3779527559055118,
                    "duration": 0.0789472499999988
                },
                {
                    "name": "D#3",
                    "midi": 51,
                    "time": 46.420982999999765,
                    "velocity": 0.3543307086614173,
                    "duration": 0.0789472499999988
                },
                {
                    "name": "F#3",
                    "midi": 54,
                    "time": 46.420982999999765,
                    "velocity": 0.3543307086614173,
                    "duration": 0.0789472499999988
                },
                {
                    "name": "C4",
                    "midi": 60,
                    "time": 46.420982999999765,
                    "velocity": 0.4251968503937008,
                    "duration": 0.0789472499999988
                },
                {
                    "name": "A1",
                    "midi": 33,
                    "time": 46.57887749999976,
                    "velocity": 0.36220472440944884,
                    "duration": 0.1578944999999976
                },
                {
                    "name": "A2",
                    "midi": 45,
                    "time": 46.57887749999976,
                    "velocity": 0.4330708661417323,
                    "duration": 0.1578944999999976
                },
                {
                    "name": "G#1",
                    "midi": 32,
                    "time": 46.73677199999976,
                    "velocity": 0.4330708661417323,
                    "duration": 0.1578945000000047
                },
                {
                    "name": "G#2",
                    "midi": 44,
                    "time": 46.73677199999976,
                    "velocity": 0.5196850393700787,
                    "duration": 0.1578945000000047
                },
                {
                    "name": "B1",
                    "midi": 35,
                    "time": 46.894666499999765,
                    "velocity": 0.41732283464566927,
                    "duration": 0.1578944999999976
                },
                {
                    "name": "B2",
                    "midi": 47,
                    "time": 46.894666499999765,
                    "velocity": 0.5039370078740157,
                    "duration": 0.1578944999999976
                },
                {
                    "name": "E2",
                    "midi": 40,
                    "time": 47.05256099999976,
                    "velocity": 0.47244094488188976,
                    "duration": 0.3157890000000023
                },
                {
                    "name": "G#2",
                    "midi": 44,
                    "time": 47.05256099999976,
                    "velocity": 0.47244094488188976,
                    "duration": 0.3157890000000023
                },
                {
                    "name": "E3",
                    "midi": 52,
                    "time": 47.05256099999976,
                    "velocity": 0.5669291338582677,
                    "duration": 0.3157890000000023
                },
                {
                    "name": "C2",
                    "midi": 36,
                    "time": 47.368349999999765,
                    "velocity": 0.5039370078740157,
                    "duration": 0.3157890000000023
                },
                {
                    "name": "C3",
                    "midi": 48,
                    "time": 47.368349999999765,
                    "velocity": 0.6062992125984252,
                    "duration": 0.3157890000000023
                },
                {
                    "name": "D#3",
                    "midi": 51,
                    "time": 47.60519174999977,
                    "velocity": 0.33858267716535434,
                    "duration": 0.0789472499999988
                },
                {
                    "name": "F#3",
                    "midi": 54,
                    "time": 47.60519174999977,
                    "velocity": 0.33858267716535434,
                    "duration": 0.0789472499999988
                },
                {
                    "name": "C4",
                    "midi": 60,
                    "time": 47.60519174999977,
                    "velocity": 0.4015748031496063,
                    "duration": 0.0789472499999988
                },
                {
                    "name": "D#3",
                    "midi": 51,
                    "time": 47.68413899999977,
                    "velocity": 0.3700787401574803,
                    "duration": 0.0789472499999988
                },
                {
                    "name": "F#3",
                    "midi": 54,
                    "time": 47.68413899999977,
                    "velocity": 0.3700787401574803,
                    "duration": 0.0789472499999988
                },
                {
                    "name": "C4",
                    "midi": 60,
                    "time": 47.68413899999977,
                    "velocity": 0.4409448818897638,
                    "duration": 0.0789472499999988
                },
                {
                    "name": "A1",
                    "midi": 33,
                    "time": 47.842033499999765,
                    "velocity": 0.3858267716535433,
                    "duration": 0.1578944999999976
                },
                {
                    "name": "A2",
                    "midi": 45,
                    "time": 47.842033499999765,
                    "velocity": 0.44881889763779526,
                    "duration": 0.1578944999999976
                },
                {
                    "name": "B1",
                    "midi": 35,
                    "time": 47.99992799999976,
                    "velocity": 0.41732283464566927,
                    "duration": 0.1578945000000047
                },
                {
                    "name": "B2",
                    "midi": 47,
                    "time": 47.99992799999976,
                    "velocity": 0.49606299212598426,
                    "duration": 0.1578945000000047
                },
                {
                    "name": "D#2",
                    "midi": 39,
                    "time": 48.15782249999977,
                    "velocity": 0.4645669291338583,
                    "duration": 0.1578944999999976
                },
                {
                    "name": "D#3",
                    "midi": 51,
                    "time": 48.15782249999977,
                    "velocity": 0.5590551181102362,
                    "duration": 0.1578944999999976
                },
                {
                    "name": "F2",
                    "midi": 41,
                    "time": 48.315716999999765,
                    "velocity": 0.5118110236220472,
                    "duration": 0.1578944999999976
                },
                {
                    "name": "F3",
                    "midi": 53,
                    "time": 48.315716999999765,
                    "velocity": 0.6062992125984252,
                    "duration": 0.1578944999999976
                },
                {
                    "name": "E2",
                    "midi": 40,
                    "time": 48.47361149999976,
                    "velocity": 0.49606299212598426,
                    "duration": 0.0789472499999988
                },
                {
                    "name": "E3",
                    "midi": 52,
                    "time": 48.47361149999976,
                    "velocity": 0.5748031496062992,
                    "duration": 0.0789472499999988
                },
                {
                    "name": "C2",
                    "midi": 36,
                    "time": 48.63150599999976,
                    "velocity": 0.4881889763779528,
                    "duration": 0.3157890000000023
                },
                {
                    "name": "C3",
                    "midi": 48,
                    "time": 48.63150599999976,
                    "velocity": 0.5826771653543307,
                    "duration": 0.3157890000000023
                },
                {
                    "name": "D#3",
                    "midi": 51,
                    "time": 48.868347749999764,
                    "velocity": 0.3228346456692913,
                    "duration": 0.0789472499999988
                },
                {
                    "name": "F#3",
                    "midi": 54,
                    "time": 48.868347749999764,
                    "velocity": 0.3228346456692913,
                    "duration": 0.0789472499999988
                },
                {
                    "name": "C4",
                    "midi": 60,
                    "time": 48.868347749999764,
                    "velocity": 0.3779527559055118,
                    "duration": 0.0789472499999988
                },
                {
                    "name": "D#3",
                    "midi": 51,
                    "time": 48.94729499999976,
                    "velocity": 0.3543307086614173,
                    "duration": 0.0789472499999988
                },
                {
                    "name": "F#3",
                    "midi": 54,
                    "time": 48.94729499999976,
                    "velocity": 0.3543307086614173,
                    "duration": 0.0789472499999988
                },
                {
                    "name": "C4",
                    "midi": 60,
                    "time": 48.94729499999976,
                    "velocity": 0.4251968503937008,
                    "duration": 0.0789472499999988
                },
                {
                    "name": "A1",
                    "midi": 33,
                    "time": 49.10518949999976,
                    "velocity": 0.36220472440944884,
                    "duration": 0.1578944999999976
                },
                {
                    "name": "A2",
                    "midi": 45,
                    "time": 49.10518949999976,
                    "velocity": 0.4330708661417323,
                    "duration": 0.1578944999999976
                },
                {
                    "name": "G#1",
                    "midi": 32,
                    "time": 49.26308399999976,
                    "velocity": 0.4330708661417323,
                    "duration": 0.1578945000000047
                },
                {
                    "name": "G#2",
                    "midi": 44,
                    "time": 49.26308399999976,
                    "velocity": 0.5196850393700787,
                    "duration": 0.1578945000000047
                },
                {
                    "name": "B1",
                    "midi": 35,
                    "time": 49.42097849999976,
                    "velocity": 0.41732283464566927,
                    "duration": 0.1578944999999976
                },
                {
                    "name": "B2",
                    "midi": 47,
                    "time": 49.42097849999976,
                    "velocity": 0.5039370078740157,
                    "duration": 0.1578944999999976
                },
                {
                    "name": "E2",
                    "midi": 40,
                    "time": 49.57887299999976,
                    "velocity": 0.47244094488188976,
                    "duration": 0.3157890000000023
                },
                {
                    "name": "G#2",
                    "midi": 44,
                    "time": 49.57887299999976,
                    "velocity": 0.47244094488188976,
                    "duration": 0.3157890000000023
                },
                {
                    "name": "E3",
                    "midi": 52,
                    "time": 49.57887299999976,
                    "velocity": 0.5669291338582677,
                    "duration": 0.3157890000000023
                },
                {
                    "name": "C2",
                    "midi": 36,
                    "time": 49.89466199999976,
                    "velocity": 0.5039370078740157,
                    "duration": 0.3157890000000023
                },
                {
                    "name": "C3",
                    "midi": 48,
                    "time": 49.89466199999976,
                    "velocity": 0.6062992125984252,
                    "duration": 0.3157890000000023
                },
                {
                    "name": "D#3",
                    "midi": 51,
                    "time": 50.131503749999766,
                    "velocity": 0.33858267716535434,
                    "duration": 0.0789472499999988
                },
                {
                    "name": "F#3",
                    "midi": 54,
                    "time": 50.131503749999766,
                    "velocity": 0.33858267716535434,
                    "duration": 0.0789472499999988
                },
                {
                    "name": "C4",
                    "midi": 60,
                    "time": 50.131503749999766,
                    "velocity": 0.4015748031496063,
                    "duration": 0.0789472499999988
                },
                {
                    "name": "D#3",
                    "midi": 51,
                    "time": 50.210450999999765,
                    "velocity": 0.3700787401574803,
                    "duration": 0.0789472499999988
                },
                {
                    "name": "F#3",
                    "midi": 54,
                    "time": 50.210450999999765,
                    "velocity": 0.3700787401574803,
                    "duration": 0.0789472499999988
                },
                {
                    "name": "C4",
                    "midi": 60,
                    "time": 50.210450999999765,
                    "velocity": 0.4409448818897638,
                    "duration": 0.0789472499999988
                },
                {
                    "name": "A1",
                    "midi": 33,
                    "time": 50.36834549999976,
                    "velocity": 0.3858267716535433,
                    "duration": 0.1578944999999976
                },
                {
                    "name": "A2",
                    "midi": 45,
                    "time": 50.36834549999976,
                    "velocity": 0.44881889763779526,
                    "duration": 0.1578944999999976
                },
                {
                    "name": "B1",
                    "midi": 35,
                    "time": 50.52623999999976,
                    "velocity": 0.41732283464566927,
                    "duration": 0.1578945000000047
                },
                {
                    "name": "B2",
                    "midi": 47,
                    "time": 50.52623999999976,
                    "velocity": 0.49606299212598426,
                    "duration": 0.1578945000000047
                },
                {
                    "name": "D#2",
                    "midi": 39,
                    "time": 50.684134499999765,
                    "velocity": 0.4645669291338583,
                    "duration": 0.1578944999999976
                },
                {
                    "name": "D#3",
                    "midi": 51,
                    "time": 50.684134499999765,
                    "velocity": 0.5590551181102362,
                    "duration": 0.1578944999999976
                },
                {
                    "name": "F2",
                    "midi": 41,
                    "time": 50.84202899999976,
                    "velocity": 0.5118110236220472,
                    "duration": 0.1578944999999976
                },
                {
                    "name": "F3",
                    "midi": 53,
                    "time": 50.84202899999976,
                    "velocity": 0.6062992125984252,
                    "duration": 0.1578944999999976
                },
                {
                    "name": "E2",
                    "midi": 40,
                    "time": 50.99992349999976,
                    "velocity": 0.49606299212598426,
                    "duration": 0.0789472499999988
                },
                {
                    "name": "E3",
                    "midi": 52,
                    "time": 50.99992349999976,
                    "velocity": 0.5748031496062992,
                    "duration": 0.0789472499999988
                },
                {
                    "name": "A2",
                    "midi": 45,
                    "time": 51.15781799999976,
                    "velocity": 0.4251968503937008,
                    "duration": 0.3157890000000023
                },
                {
                    "name": "E3",
                    "midi": 52,
                    "time": 51.15781799999976,
                    "velocity": 0.4251968503937008,
                    "duration": 0.3157890000000023
                },
                {
                    "name": "C#4",
                    "midi": 61,
                    "time": 51.15781799999976,
                    "velocity": 0.5118110236220472,
                    "duration": 0.3157890000000023
                },
                {
                    "name": "C#4",
                    "midi": 61,
                    "time": 51.39465974999976,
                    "velocity": 0.3228346456692913,
                    "duration": 0.0789472499999988
                },
                {
                    "name": "E4",
                    "midi": 64,
                    "time": 51.39465974999976,
                    "velocity": 0.3228346456692913,
                    "duration": 0.0789472499999988
                },
                {
                    "name": "A4",
                    "midi": 69,
                    "time": 51.39465974999976,
                    "velocity": 0.3779527559055118,
                    "duration": 0.0789472499999988
                },
                {
                    "name": "C#4",
                    "midi": 61,
                    "time": 51.47360699999976,
                    "velocity": 0.3543307086614173,
                    "duration": 0.0789472499999988
                },
                {
                    "name": "E4",
                    "midi": 64,
                    "time": 51.47360699999976,
                    "velocity": 0.3543307086614173,
                    "duration": 0.0789472499999988
                },
                {
                    "name": "A4",
                    "midi": 69,
                    "time": 51.47360699999976,
                    "velocity": 0.4251968503937008,
                    "duration": 0.0789472499999988
                },
                {
                    "name": "C#2",
                    "midi": 37,
                    "time": 51.63150149999976,
                    "velocity": 0.36220472440944884,
                    "duration": 0.1578944999999976
                },
                {
                    "name": "E3",
                    "midi": 52,
                    "time": 51.63150149999976,
                    "velocity": 0.4330708661417323,
                    "duration": 0.1578944999999976
                },
                {
                    "name": "D2",
                    "midi": 38,
                    "time": 51.789395999999755,
                    "velocity": 0.4330708661417323,
                    "duration": 0.1578945000000047
                },
                {
                    "name": "F3",
                    "midi": 53,
                    "time": 51.789395999999755,
                    "velocity": 0.5196850393700787,
                    "duration": 0.1578945000000047
                },
                {
                    "name": "E2",
                    "midi": 40,
                    "time": 51.94729049999976,
                    "velocity": 0.41732283464566927,
                    "duration": 0.1578944999999976
                },
                {
                    "name": "G3",
                    "midi": 55,
                    "time": 51.94729049999976,
                    "velocity": 0.5039370078740157,
                    "duration": 0.1578944999999976
                },
                {
                    "name": "F2",
                    "midi": 41,
                    "time": 52.10518499999976,
                    "velocity": 0.47244094488188976,
                    "duration": 0.1578944999999976
                },
                {
                    "name": "G#3",
                    "midi": 56,
                    "time": 52.10518499999976,
                    "velocity": 0.5669291338582677,
                    "duration": 0.1578944999999976
                },
                {
                    "name": "F#2",
                    "midi": 42,
                    "time": 52.263079499999755,
                    "velocity": 0.5039370078740157,
                    "duration": 0.1578944999999976
                },
                {
                    "name": "A3",
                    "midi": 57,
                    "time": 52.263079499999755,
                    "velocity": 0.5984251968503937,
                    "duration": 0.1578944999999976
                },
                {
                    "name": "G2",
                    "midi": 43,
                    "time": 52.42097399999975,
                    "velocity": 0.4251968503937008,
                    "duration": 0.3157890000000023
                },
                {
                    "name": "D3",
                    "midi": 50,
                    "time": 52.42097399999975,
                    "velocity": 0.4251968503937008,
                    "duration": 0.3157890000000023
                },
                {
                    "name": "B3",
                    "midi": 59,
                    "time": 52.42097399999975,
                    "velocity": 0.5118110236220472,
                    "duration": 0.3157890000000023
                },
                {
                    "name": "B3",
                    "midi": 59,
                    "time": 52.657815749999756,
                    "velocity": 0.3228346456692913,
                    "duration": 0.0789472499999988
                },
                {
                    "name": "D4",
                    "midi": 62,
                    "time": 52.657815749999756,
                    "velocity": 0.3228346456692913,
                    "duration": 0.0789472499999988
                },
                {
                    "name": "G4",
                    "midi": 67,
                    "time": 52.657815749999756,
                    "velocity": 0.3779527559055118,
                    "duration": 0.0789472499999988
                },
                {
                    "name": "B3",
                    "midi": 59,
                    "time": 52.736762999999755,
                    "velocity": 0.3543307086614173,
                    "duration": 0.0789472499999988
                },
                {
                    "name": "D4",
                    "midi": 62,
                    "time": 52.736762999999755,
                    "velocity": 0.3543307086614173,
                    "duration": 0.0789472499999988
                },
                {
                    "name": "G4",
                    "midi": 67,
                    "time": 52.736762999999755,
                    "velocity": 0.4251968503937008,
                    "duration": 0.0789472499999988
                },
                {
                    "name": "B1",
                    "midi": 35,
                    "time": 52.89465749999975,
                    "velocity": 0.36220472440944884,
                    "duration": 0.1578944999999976
                },
                {
                    "name": "D3",
                    "midi": 50,
                    "time": 52.89465749999975,
                    "velocity": 0.4330708661417323,
                    "duration": 0.1578944999999976
                },
                {
                    "name": "C2",
                    "midi": 36,
                    "time": 53.05255199999975,
                    "velocity": 0.4330708661417323,
                    "duration": 0.1578945000000047
                },
                {
                    "name": "E3",
                    "midi": 52,
                    "time": 53.05255199999975,
                    "velocity": 0.5196850393700787,
                    "duration": 0.1578945000000047
                },
                {
                    "name": "D2",
                    "midi": 38,
                    "time": 53.210446499999755,
                    "velocity": 0.41732283464566927,
                    "duration": 0.1578944999999976
                },
                {
                    "name": "F3",
                    "midi": 53,
                    "time": 53.210446499999755,
                    "velocity": 0.5039370078740157,
                    "duration": 0.1578944999999976
                },
                {
                    "name": "D#2",
                    "midi": 39,
                    "time": 53.36834099999975,
                    "velocity": 0.49606299212598426,
                    "duration": 0.1578944999999976
                },
                {
                    "name": "F#3",
                    "midi": 54,
                    "time": 53.36834099999975,
                    "velocity": 0.5905511811023622,
                    "duration": 0.1578944999999976
                },
                {
                    "name": "E2",
                    "midi": 40,
                    "time": 53.52623549999975,
                    "velocity": 0.5511811023622047,
                    "duration": 0.1578944999999976
                },
                {
                    "name": "G3",
                    "midi": 55,
                    "time": 53.52623549999975,
                    "velocity": 0.6535433070866141,
                    "duration": 0.1578944999999976
                },
                {
                    "name": "D3",
                    "midi": 50,
                    "time": 53.68412999999975,
                    "velocity": 0.4881889763779528,
                    "duration": 0.0789472499999988
                },
                {
                    "name": "F2",
                    "midi": 41,
                    "time": 53.68412999999975,
                    "velocity": 0.4881889763779528,
                    "duration": 0.0789472499999988
                },
                {
                    "name": "B2",
                    "midi": 47,
                    "time": 53.68412999999975,
                    "velocity": 0.4881889763779528,
                    "duration": 0.0789472499999988
                },
                {
                    "name": "G#3",
                    "midi": 56,
                    "time": 53.68412999999975,
                    "velocity": 0.5826771653543307,
                    "duration": 0.0789472499999988
                },
                {
                    "name": "D4",
                    "midi": 62,
                    "time": 53.920971749999744,
                    "velocity": 0.3228346456692913,
                    "duration": 0.0789472499999988
                },
                {
                    "name": "F4",
                    "midi": 65,
                    "time": 53.920971749999744,
                    "velocity": 0.3779527559055118,
                    "duration": 0.0789472499999988
                },
                {
                    "name": "D4",
                    "midi": 62,
                    "time": 53.99991899999974,
                    "velocity": 0.3543307086614173,
                    "duration": 0.0789472499999988
                },
                {
                    "name": "F4",
                    "midi": 65,
                    "time": 53.99991899999974,
                    "velocity": 0.4251968503937008,
                    "duration": 0.3157889999999952
                },
                {
                    "name": "B3",
                    "midi": 59,
                    "time": 54.07886624999974,
                    "velocity": 0.3543307086614173,
                    "duration": 0.0789472499999988
                },
                {
                    "name": "C4",
                    "midi": 60,
                    "time": 54.15781349999974,
                    "velocity": 0.3543307086614173,
                    "duration": 0.0789472499999988
                },
                {
                    "name": "D4",
                    "midi": 62,
                    "time": 54.23676074999974,
                    "velocity": 0.3543307086614173,
                    "duration": 0.0789472499999988
                },
                {
                    "name": "E2",
                    "midi": 40,
                    "time": 54.31570799999974,
                    "velocity": 0.3937007874015748,
                    "duration": 0.0789472499999988
                },
                {
                    "name": "C3",
                    "midi": 48,
                    "time": 54.31570799999974,
                    "velocity": 0.3937007874015748,
                    "duration": 0.0789472499999988
                },
                {
                    "name": "A3",
                    "midi": 57,
                    "time": 54.31570799999974,
                    "velocity": 0.47244094488188976,
                    "duration": 0.0789472499999988
                },
                {
                    "name": "C4",
                    "midi": 60,
                    "time": 54.552549749999734,
                    "velocity": 0.3543307086614173,
                    "duration": 0.0789472499999988
                },
                {
                    "name": "C4",
                    "midi": 60,
                    "time": 54.63149699999973,
                    "velocity": 0.3858267716535433,
                    "duration": 0.0789472499999988
                },
                {
                    "name": "A3",
                    "midi": 57,
                    "time": 54.71044424999973,
                    "velocity": 0.33070866141732286,
                    "duration": 0.0789472499999988
                },
                {
                    "name": "B3",
                    "midi": 59,
                    "time": 54.78939149999973,
                    "velocity": 0.33070866141732286,
                    "duration": 0.0789472499999988
                },
                {
                    "name": "C4",
                    "midi": 60,
                    "time": 54.86833874999973,
                    "velocity": 0.33070866141732286,
                    "duration": 0.0789472499999988
                },
                {
                    "name": "B2",
                    "midi": 47,
                    "time": 54.94728599999973,
                    "velocity": 0.30708661417322836,
                    "duration": 0.3157890000000023
                },
                {
                    "name": "F3",
                    "midi": 53,
                    "time": 54.94728599999973,
                    "velocity": 0.30708661417322836,
                    "duration": 0.3157890000000023
                },
                {
                    "name": "A3",
                    "midi": 57,
                    "time": 54.94728599999973,
                    "velocity": 0.36220472440944884,
                    "duration": 0.3157890000000023
                },
                {
                    "name": "E2",
                    "midi": 40,
                    "time": 55.26307499999973,
                    "velocity": 0.29133858267716534,
                    "duration": 0.3157890000000023
                },
                {
                    "name": "G#3",
                    "midi": 56,
                    "time": 55.26307499999973,
                    "velocity": 0.3543307086614173,
                    "duration": 0.3157890000000023
                },
                {
                    "name": "E3",
                    "midi": 52,
                    "time": 55.57886399999973,
                    "velocity": 0.3228346456692913,
                    "duration": 0.0789472499999988
                },
                {
                    "name": "A2",
                    "midi": 45,
                    "time": 55.57886399999973,
                    "velocity": 0.16535433070866143,
                    "duration": 0.3157889999999952
                },
                {
                    "name": "D3",
                    "midi": 50,
                    "time": 55.57886399999973,
                    "velocity": 0.3228346456692913,
                    "duration": 0.3157889999999952
                },
                {
                    "name": "G#3",
                    "midi": 56,
                    "time": 55.57886399999973,
                    "velocity": 0.2047244094488189,
                    "duration": 0.3157889999999952
                },
                {
                    "name": "G3",
                    "midi": 55,
                    "time": 55.65781124999973,
                    "velocity": 0.2992125984251969,
                    "duration": 0.0789472499999988
                },
                {
                    "name": "F3",
                    "midi": 53,
                    "time": 55.73675849999973,
                    "velocity": 0.28346456692913385,
                    "duration": 0.0789472499999988
                },
                {
                    "name": "E3",
                    "midi": 52,
                    "time": 55.81570574999973,
                    "velocity": 0.2755905511811024,
                    "duration": 0.1578944999999976
                },
                {
                    "name": "C3",
                    "midi": 48,
                    "time": 55.89465299999973,
                    "velocity": 0.2440944881889764,
                    "duration": 0.0789472499999988
                },
                {
                    "name": "A2",
                    "midi": 45,
                    "time": 55.89465299999973,
                    "velocity": 0.2440944881889764,
                    "duration": 0.0789472499999988
                },
                {
                    "name": "A3",
                    "midi": 57,
                    "time": 56.21044199999973,
                    "velocity": 0.28346456692913385,
                    "duration": 0.0394736249999994
                },
                {
                    "name": "C4",
                    "midi": 60,
                    "time": 56.21044199999973,
                    "velocity": 0.28346456692913385,
                    "duration": 0.0394736249999994
                },
                {
                    "name": "A4",
                    "midi": 69,
                    "time": 56.21044199999973,
                    "velocity": 0.33858267716535434,
                    "duration": 0.0394736249999994
                },
                {
                    "name": "E4",
                    "midi": 64,
                    "time": 56.36833649999973,
                    "velocity": 0.28346456692913385,
                    "duration": 0.0394736249999994
                },
                {
                    "name": "C5",
                    "midi": 72,
                    "time": 56.36833649999973,
                    "velocity": 0.33858267716535434,
                    "duration": 0.0394736249999994
                },
                {
                    "name": "D4",
                    "midi": 62,
                    "time": 56.526230999999726,
                    "velocity": 0.2755905511811024,
                    "duration": 0.0394736249999994
                },
                {
                    "name": "B4",
                    "midi": 71,
                    "time": 56.526230999999726,
                    "velocity": 0.33070866141732286,
                    "duration": 0.0394736249999994
                },
                {
                    "name": "C4",
                    "midi": 60,
                    "time": 56.68412549999972,
                    "velocity": 0.2677165354330709,
                    "duration": 0.0394736249999994
                },
                {
                    "name": "A4",
                    "midi": 69,
                    "time": 56.68412549999972,
                    "velocity": 0.31496062992125984,
                    "duration": 0.0394736249999994
                },
                {
                    "name": "E3",
                    "midi": 52,
                    "time": 56.84201999999972,
                    "velocity": 0.28346456692913385,
                    "duration": 0.0394736249999994
                },
                {
                    "name": "G#3",
                    "midi": 56,
                    "time": 56.84201999999972,
                    "velocity": 0.28346456692913385,
                    "duration": 0.0394736249999994
                },
                {
                    "name": "E4",
                    "midi": 64,
                    "time": 56.84201999999972,
                    "velocity": 0.33858267716535434,
                    "duration": 0.0394736249999994
                },
                {
                    "name": "B3",
                    "midi": 59,
                    "time": 56.99991449999972,
                    "velocity": 0.25984251968503935,
                    "duration": 0.0394736249999994
                },
                {
                    "name": "G4",
                    "midi": 67,
                    "time": 56.99991449999972,
                    "velocity": 0.30708661417322836,
                    "duration": 0.0394736249999994
                },
                {
                    "name": "A3",
                    "midi": 57,
                    "time": 57.157808999999716,
                    "velocity": 0.29133858267716534,
                    "duration": 0.0394736249999994
                },
                {
                    "name": "F4",
                    "midi": 65,
                    "time": 57.157808999999716,
                    "velocity": 0.3543307086614173,
                    "duration": 0.0394736249999994
                },
                {
                    "name": "G#3",
                    "midi": 56,
                    "time": 57.315703499999714,
                    "velocity": 0.2755905511811024,
                    "duration": 0.0394736249999994
                },
                {
                    "name": "E4",
                    "midi": 64,
                    "time": 57.315703499999714,
                    "velocity": 0.33070866141732286,
                    "duration": 0.0394736249999994
                },
                {
                    "name": "A3",
                    "midi": 57,
                    "time": 57.47359799999971,
                    "velocity": 0.28346456692913385,
                    "duration": 0.0394736249999994
                },
                {
                    "name": "C4",
                    "midi": 60,
                    "time": 57.47359799999971,
                    "velocity": 0.28346456692913385,
                    "duration": 0.0394736249999994
                },
                {
                    "name": "A4",
                    "midi": 69,
                    "time": 57.47359799999971,
                    "velocity": 0.33858267716535434,
                    "duration": 0.0394736249999994
                },
                {
                    "name": "E4",
                    "midi": 64,
                    "time": 57.63149249999971,
                    "velocity": 0.28346456692913385,
                    "duration": 0.0394736249999994
                },
                {
                    "name": "C5",
                    "midi": 72,
                    "time": 57.63149249999971,
                    "velocity": 0.33858267716535434,
                    "duration": 0.0394736249999994
                },
                {
                    "name": "D4",
                    "midi": 62,
                    "time": 57.78938699999971,
                    "velocity": 0.2755905511811024,
                    "duration": 0.0394736249999994
                },
                {
                    "name": "B4",
                    "midi": 71,
                    "time": 57.78938699999971,
                    "velocity": 0.33070866141732286,
                    "duration": 0.0394736249999994
                },
                {
                    "name": "C4",
                    "midi": 60,
                    "time": 57.947281499999704,
                    "velocity": 0.2677165354330709,
                    "duration": 0.0394736249999994
                },
                {
                    "name": "A4",
                    "midi": 69,
                    "time": 57.947281499999704,
                    "velocity": 0.31496062992125984,
                    "duration": 0.0394736249999994
                },
                {
                    "name": "A3",
                    "midi": 57,
                    "time": 58.1051759999997,
                    "velocity": 0.28346456692913385,
                    "duration": 0.0789472499999988
                },
                {
                    "name": "C4",
                    "midi": 60,
                    "time": 58.1051759999997,
                    "velocity": 0.28346456692913385,
                    "duration": 0.0789472499999988
                },
                {
                    "name": "F4",
                    "midi": 65,
                    "time": 58.1051759999997,
                    "velocity": 0.33858267716535434,
                    "duration": 0.0789472499999988
                },
                {
                    "name": "E3",
                    "midi": 52,
                    "time": 58.420964999999704,
                    "velocity": 0.29133858267716534,
                    "duration": 0.0789472499999988
                },
                {
                    "name": "G#3",
                    "midi": 56,
                    "time": 58.420964999999704,
                    "velocity": 0.29133858267716534,
                    "duration": 0.0789472499999988
                },
                {
                    "name": "E4",
                    "midi": 64,
                    "time": 58.420964999999704,
                    "velocity": 0.3543307086614173,
                    "duration": 0.0789472499999988
                },
                {
                    "name": "A3",
                    "midi": 57,
                    "time": 58.736753999999706,
                    "velocity": 0.28346456692913385,
                    "duration": 0.0394736249999994
                },
                {
                    "name": "C4",
                    "midi": 60,
                    "time": 58.736753999999706,
                    "velocity": 0.28346456692913385,
                    "duration": 0.0394736249999994
                },
                {
                    "name": "A4",
                    "midi": 69,
                    "time": 58.736753999999706,
                    "velocity": 0.33858267716535434,
                    "duration": 0.0394736249999994
                },
                {
                    "name": "E4",
                    "midi": 64,
                    "time": 58.894648499999704,
                    "velocity": 0.28346456692913385,
                    "duration": 0.0394736249999994
                },
                {
                    "name": "C5",
                    "midi": 72,
                    "time": 58.894648499999704,
                    "velocity": 0.33858267716535434,
                    "duration": 0.0394736249999994
                },
                {
                    "name": "D4",
                    "midi": 62,
                    "time": 59.0525429999997,
                    "velocity": 0.2755905511811024,
                    "duration": 0.0394736249999994
                },
                {
                    "name": "B4",
                    "midi": 71,
                    "time": 59.0525429999997,
                    "velocity": 0.33070866141732286,
                    "duration": 0.0394736249999994
                },
                {
                    "name": "C4",
                    "midi": 60,
                    "time": 59.2104374999997,
                    "velocity": 0.2677165354330709,
                    "duration": 0.0394736249999994
                },
                {
                    "name": "A4",
                    "midi": 69,
                    "time": 59.2104374999997,
                    "velocity": 0.31496062992125984,
                    "duration": 0.0394736249999994
                },
                {
                    "name": "E3",
                    "midi": 52,
                    "time": 59.3683319999997,
                    "velocity": 0.28346456692913385,
                    "duration": 0.0394736249999994
                },
                {
                    "name": "G#3",
                    "midi": 56,
                    "time": 59.3683319999997,
                    "velocity": 0.28346456692913385,
                    "duration": 0.0394736249999994
                },
                {
                    "name": "E4",
                    "midi": 64,
                    "time": 59.3683319999997,
                    "velocity": 0.33858267716535434,
                    "duration": 0.0394736249999994
                },
                {
                    "name": "B3",
                    "midi": 59,
                    "time": 59.526226499999694,
                    "velocity": 0.25984251968503935,
                    "duration": 0.0394736249999994
                },
                {
                    "name": "G4",
                    "midi": 67,
                    "time": 59.526226499999694,
                    "velocity": 0.30708661417322836,
                    "duration": 0.0394736249999994
                },
                {
                    "name": "A3",
                    "midi": 57,
                    "time": 59.68412099999969,
                    "velocity": 0.29133858267716534,
                    "duration": 0.0394736249999994
                },
                {
                    "name": "F4",
                    "midi": 65,
                    "time": 59.68412099999969,
                    "velocity": 0.3543307086614173,
                    "duration": 0.0394736249999994
                },
                {
                    "name": "G#3",
                    "midi": 56,
                    "time": 59.84201549999969,
                    "velocity": 0.2755905511811024,
                    "duration": 0.0394736249999994
                },
                {
                    "name": "E4",
                    "midi": 64,
                    "time": 59.84201549999969,
                    "velocity": 0.33070866141732286,
                    "duration": 0.0394736249999994
                },
                {
                    "name": "A3",
                    "midi": 57,
                    "time": 59.99990999999969,
                    "velocity": 0.28346456692913385,
                    "duration": 0.0394736249999994
                },
                {
                    "name": "C4",
                    "midi": 60,
                    "time": 59.99990999999969,
                    "velocity": 0.28346456692913385,
                    "duration": 0.0394736249999994
                },
                {
                    "name": "A4",
                    "midi": 69,
                    "time": 59.99990999999969,
                    "velocity": 0.33858267716535434,
                    "duration": 0.0394736249999994
                },
                {
                    "name": "E4",
                    "midi": 64,
                    "time": 60.157804499999685,
                    "velocity": 0.28346456692913385,
                    "duration": 0.0394736249999994
                },
                {
                    "name": "C5",
                    "midi": 72,
                    "time": 60.157804499999685,
                    "velocity": 0.33858267716535434,
                    "duration": 0.0394736249999994
                },
                {
                    "name": "D4",
                    "midi": 62,
                    "time": 60.31569899999968,
                    "velocity": 0.2755905511811024,
                    "duration": 0.0394736249999994
                },
                {
                    "name": "B4",
                    "midi": 71,
                    "time": 60.31569899999968,
                    "velocity": 0.33070866141732286,
                    "duration": 0.0394736249999994
                },
                {
                    "name": "C4",
                    "midi": 60,
                    "time": 60.47359349999968,
                    "velocity": 0.2677165354330709,
                    "duration": 0.0394736249999994
                },
                {
                    "name": "A4",
                    "midi": 69,
                    "time": 60.47359349999968,
                    "velocity": 0.31496062992125984,
                    "duration": 0.0394736249999994
                },
                {
                    "name": "A3",
                    "midi": 57,
                    "time": 60.63148799999968,
                    "velocity": 0.28346456692913385,
                    "duration": 0.0789472499999988
                },
                {
                    "name": "C4",
                    "midi": 60,
                    "time": 60.63148799999968,
                    "velocity": 0.28346456692913385,
                    "duration": 0.0789472499999988
                },
                {
                    "name": "F4",
                    "midi": 65,
                    "time": 60.63148799999968,
                    "velocity": 0.33858267716535434,
                    "duration": 0.0789472499999988
                },
                {
                    "name": "E3",
                    "midi": 52,
                    "time": 60.94727699999968,
                    "velocity": 0.29133858267716534,
                    "duration": 0.0789472499999988
                },
                {
                    "name": "G#3",
                    "midi": 56,
                    "time": 60.94727699999968,
                    "velocity": 0.29133858267716534,
                    "duration": 0.0789472499999988
                },
                {
                    "name": "E4",
                    "midi": 64,
                    "time": 60.94727699999968,
                    "velocity": 0.3543307086614173,
                    "duration": 0.0789472499999988
                },
                {
                    "name": "A3",
                    "midi": 57,
                    "time": 61.26306599999968,
                    "velocity": 0.33070866141732286,
                    "duration": 0.0394736249999994
                },
                {
                    "name": "C#4",
                    "midi": 61,
                    "time": 61.26306599999968,
                    "velocity": 0.33070866141732286,
                    "duration": 0.0394736249999994
                },
                {
                    "name": "A4",
                    "midi": 69,
                    "time": 61.26306599999968,
                    "velocity": 0.3937007874015748,
                    "duration": 0.0394736249999994
                },
                {
                    "name": "D4",
                    "midi": 62,
                    "time": 61.42096049999968,
                    "velocity": 0.33070866141732286,
                    "duration": 0.0394736249999994
                },
                {
                    "name": "A#4",
                    "midi": 70,
                    "time": 61.42096049999968,
                    "velocity": 0.3937007874015748,
                    "duration": 0.0394736249999994
                },
                {
                    "name": "C#4",
                    "midi": 61,
                    "time": 61.57885499999968,
                    "velocity": 0.31496062992125984,
                    "duration": 0.0394736249999994
                },
                {
                    "name": "A4",
                    "midi": 69,
                    "time": 61.57885499999968,
                    "velocity": 0.3858267716535433,
                    "duration": 0.0394736249999994
                },
                {
                    "name": "A#3",
                    "midi": 58,
                    "time": 61.736749499999675,
                    "velocity": 0.30708661417322836,
                    "duration": 0.0394736249999994
                },
                {
                    "name": "G4",
                    "midi": 67,
                    "time": 61.736749499999675,
                    "velocity": 0.3779527559055118,
                    "duration": 0.0394736249999994
                },
                {
                    "name": "A3",
                    "midi": 57,
                    "time": 61.89464399999967,
                    "velocity": 0.33070866141732286,
                    "duration": 0.0394736249999994
                },
                {
                    "name": "F4",
                    "midi": 65,
                    "time": 61.89464399999967,
                    "velocity": 0.3937007874015748,
                    "duration": 0.0394736249999994
                },
                {
                    "name": "G3",
                    "midi": 55,
                    "time": 62.05253849999967,
                    "velocity": 0.30708661417322836,
                    "duration": 0.0394736249999994
                },
                {
                    "name": "E4",
                    "midi": 64,
                    "time": 62.05253849999967,
                    "velocity": 0.3700787401574803,
                    "duration": 0.0394736249999994
                },
                {
                    "name": "F3",
                    "midi": 53,
                    "time": 62.21043299999967,
                    "velocity": 0.3543307086614173,
                    "duration": 0.0394736249999994
                },
                {
                    "name": "D4",
                    "midi": 62,
                    "time": 62.21043299999967,
                    "velocity": 0.41732283464566927,
                    "duration": 0.0394736249999994
                },
                {
                    "name": "D3",
                    "midi": 50,
                    "time": 62.368327499999666,
                    "velocity": 0.31496062992125984,
                    "duration": 0.0394736249999994
                },
                {
                    "name": "F4",
                    "midi": 65,
                    "time": 62.368327499999666,
                    "velocity": 0.3858267716535433,
                    "duration": 0.0394736249999994
                },
                {
                    "name": "G3",
                    "midi": 55,
                    "time": 62.52622199999966,
                    "velocity": 0.3543307086614173,
                    "duration": 0.0394736249999994
                },
                {
                    "name": "B3",
                    "midi": 59,
                    "time": 62.52622199999966,
                    "velocity": 0.3543307086614173,
                    "duration": 0.0394736249999994
                },
                {
                    "name": "G4",
                    "midi": 67,
                    "time": 62.52622199999966,
                    "velocity": 0.4094488188976378,
                    "duration": 0.0394736249999994
                },
                {
                    "name": "C4",
                    "midi": 60,
                    "time": 62.68411649999966,
                    "velocity": 0.3543307086614173,
                    "duration": 0.0394736249999994
                },
                {
                    "name": "G#4",
                    "midi": 68,
                    "time": 62.68411649999966,
                    "velocity": 0.4094488188976378,
                    "duration": 0.0394736249999994
                },
                {
                    "name": "B3",
                    "midi": 59,
                    "time": 62.84201099999966,
                    "velocity": 0.33070866141732286,
                    "duration": 0.0394736249999994
                },
                {
                    "name": "G4",
                    "midi": 67,
                    "time": 62.84201099999966,
                    "velocity": 0.4015748031496063,
                    "duration": 0.0394736249999994
                },
                {
                    "name": "G#3",
                    "midi": 56,
                    "time": 62.999905499999656,
                    "velocity": 0.3228346456692913,
                    "duration": 0.0394736249999994
                },
                {
                    "name": "F4",
                    "midi": 65,
                    "time": 62.999905499999656,
                    "velocity": 0.3858267716535433,
                    "duration": 0.0394736249999994
                },
                {
                    "name": "G3",
                    "midi": 55,
                    "time": 63.15779999999965,
                    "velocity": 0.3543307086614173,
                    "duration": 0.0394736249999994
                },
                {
                    "name": "E4",
                    "midi": 64,
                    "time": 63.15779999999965,
                    "velocity": 0.4094488188976378,
                    "duration": 0.0394736249999994
                },
                {
                    "name": "F3",
                    "midi": 53,
                    "time": 63.31569449999965,
                    "velocity": 0.31496062992125984,
                    "duration": 0.0394736249999994
                },
                {
                    "name": "D4",
                    "midi": 62,
                    "time": 63.31569449999965,
                    "velocity": 0.3858267716535433,
                    "duration": 0.0394736249999994
                },
                {
                    "name": "E3",
                    "midi": 52,
                    "time": 63.47358899999965,
                    "velocity": 0.3700787401574803,
                    "duration": 0.0394736249999994
                },
                {
                    "name": "C4",
                    "midi": 60,
                    "time": 63.47358899999965,
                    "velocity": 0.4409448818897638,
                    "duration": 0.0394736249999994
                },
                {
                    "name": "C3",
                    "midi": 48,
                    "time": 63.631483499999646,
                    "velocity": 0.33070866141732286,
                    "duration": 0.0394736249999994
                },
                {
                    "name": "E4",
                    "midi": 64,
                    "time": 63.631483499999646,
                    "velocity": 0.4015748031496063,
                    "duration": 0.0394736249999994
                },
                {
                    "name": "B3",
                    "midi": 59,
                    "time": 63.789377999999644,
                    "velocity": 0.28346456692913385,
                    "duration": 0.0789472499999988
                },
                {
                    "name": "D3",
                    "midi": 50,
                    "time": 63.789377999999644,
                    "velocity": 0.28346456692913385,
                    "duration": 0.0789472499999988
                },
                {
                    "name": "G#3",
                    "midi": 56,
                    "time": 63.789377999999644,
                    "velocity": 0.28346456692913385,
                    "duration": 0.0789472499999988
                },
                {
                    "name": "F4",
                    "midi": 65,
                    "time": 63.789377999999644,
                    "velocity": 0.33858267716535434,
                    "duration": 0.0789472499999988
                },
                {
                    "name": "D5",
                    "midi": 74,
                    "time": 64.10516699999964,
                    "velocity": 0.3937007874015748,
                    "duration": 0.09210512500000334
                },
                {
                    "name": "A3",
                    "midi": 57,
                    "time": 64.42095599999965,
                    "velocity": 0.28346456692913385,
                    "duration": 0.0789472499999988
                },
                {
                    "name": "C3",
                    "midi": 48,
                    "time": 64.42095599999965,
                    "velocity": 0.28346456692913385,
                    "duration": 0.0789472499999988
                },
                {
                    "name": "E4",
                    "midi": 64,
                    "time": 64.42095599999965,
                    "velocity": 0.33858267716535434,
                    "duration": 0.0789472499999988
                },
                {
                    "name": "C5",
                    "midi": 72,
                    "time": 64.73674499999964,
                    "velocity": 0.3937007874015748,
                    "duration": 0.09210512500000334
                },
                {
                    "name": "A3",
                    "midi": 57,
                    "time": 65.05253399999965,
                    "velocity": 0.33858267716535434,
                    "duration": 0.0394736249999994
                },
                {
                    "name": "F4",
                    "midi": 65,
                    "time": 65.05253399999965,
                    "velocity": 0.3937007874015748,
                    "duration": 0.0394736249999994
                },
                {
                    "name": "G#3",
                    "midi": 56,
                    "time": 65.36832299999965,
                    "velocity": 0.33858267716535434,
                    "duration": 0.0394736249999994
                },
                {
                    "name": "E4",
                    "midi": 64,
                    "time": 65.36832299999965,
                    "velocity": 0.3937007874015748,
                    "duration": 0.0394736249999994
                },
                {
                    "name": "A3",
                    "midi": 57,
                    "time": 65.68411199999964,
                    "velocity": 0.4094488188976378,
                    "duration": 0.09210512500000334
                },
                {
                    "name": "F3",
                    "midi": 53,
                    "time": 65.76305924999964,
                    "velocity": 0.3464566929133858,
                    "duration": 0.09210512500000334
                },
                {
                    "name": "E3",
                    "midi": 52,
                    "time": 65.84200649999964,
                    "velocity": 0.3464566929133858,
                    "duration": 0.09210512500000334
                },
                {
                    "name": "D#3",
                    "midi": 51,
                    "time": 65.92095374999964,
                    "velocity": 0.33858267716535434,
                    "duration": 0.09210512500000334
                },
                {
                    "name": "D3",
                    "midi": 50,
                    "time": 65.99990099999964,
                    "velocity": 0.33070866141732286,
                    "duration": 0.09210512500000334
                },
                {
                    "name": "C3",
                    "midi": 48,
                    "time": 66.07884824999964,
                    "velocity": 0.3228346456692913,
                    "duration": 0.09210512500000334
                },
                {
                    "name": "B2",
                    "midi": 47,
                    "time": 66.15779549999964,
                    "velocity": 0.3228346456692913,
                    "duration": 0.09210512500000334
                },
                {
                    "name": "A#2",
                    "midi": 46,
                    "time": 66.23674274999964,
                    "velocity": 0.31496062992125984,
                    "duration": 0.0789472499999988
                },
                {
                    "name": "A2",
                    "midi": 45,
                    "time": 66.31568999999963,
                    "velocity": 0.33858267716535434,
                    "duration": 0.0789472499999988
                },
                {
                    "name": "E5",
                    "midi": 76,
                    "time": 66.63147899999963,
                    "velocity": 0.3543307086614173,
                    "duration": 0.09210512500000334
                },
                {
                    "name": "A4",
                    "midi": 69,
                    "time": 66.63147899999963,
                    "velocity": 0.29133858267716534,
                    "duration": 0.09210512500000334
                },
                {
                    "name": "C5",
                    "midi": 72,
                    "time": 66.71042624999963,
                    "velocity": 0.3464566929133858,
                    "duration": 0.09210512500000334
                },
                {
                    "name": "E4",
                    "midi": 64,
                    "time": 66.71042624999963,
                    "velocity": 0.28346456692913385,
                    "duration": 0.09210512500000334
                },
                {
                    "name": "C3",
                    "midi": 48,
                    "time": 66.78937349999963,
                    "velocity": 0.3543307086614173,
                    "duration": 0.05263150000000394
                },
                {
                    "name": "B2",
                    "midi": 47,
                    "time": 66.84200499999963,
                    "velocity": 0.3464566929133858,
                    "duration": 0.05263150000000394
                },
                {
                    "name": "A2",
                    "midi": 45,
                    "time": 66.89463649999963,
                    "velocity": 0.33070866141732286,
                    "duration": 0.05263150000000394
                },
                {
                    "name": "G#2",
                    "midi": 44,
                    "time": 66.94726799999964,
                    "velocity": 0.33858267716535434,
                    "duration": 0.0789472499999988
                },
                {
                    "name": "E5",
                    "midi": 76,
                    "time": 67.26305699999963,
                    "velocity": 0.3543307086614173,
                    "duration": 0.09210512500000334
                },
                {
                    "name": "G#4",
                    "midi": 68,
                    "time": 67.26305699999963,
                    "velocity": 0.29133858267716534,
                    "duration": 0.09210512500000334
                },
                {
                    "name": "B4",
                    "midi": 71,
                    "time": 67.34200424999963,
                    "velocity": 0.3464566929133858,
                    "duration": 0.09210512500000334
                },
                {
                    "name": "E4",
                    "midi": 64,
                    "time": 67.34200424999963,
                    "velocity": 0.28346456692913385,
                    "duration": 0.09210512500000334
                },
                {
                    "name": "E2",
                    "midi": 40,
                    "time": 67.42095149999963,
                    "velocity": 0.28346456692913385,
                    "duration": 0.05263150000000394
                },
                {
                    "name": "F#2",
                    "midi": 42,
                    "time": 67.47358299999964,
                    "velocity": 0.30708661417322836,
                    "duration": 0.05263150000000394
                },
                {
                    "name": "G#2",
                    "midi": 44,
                    "time": 67.52621449999964,
                    "velocity": 0.33070866141732286,
                    "duration": 0.05263150000000394
                },
                {
                    "name": "A2",
                    "midi": 45,
                    "time": 67.57884599999964,
                    "velocity": 0.33858267716535434,
                    "duration": 0.0789472499999988
                },
                {
                    "name": "E5",
                    "midi": 76,
                    "time": 67.89463499999964,
                    "velocity": 0.3543307086614173,
                    "duration": 0.09210512500000334
                },
                {
                    "name": "A4",
                    "midi": 69,
                    "time": 67.89463499999964,
                    "velocity": 0.29133858267716534,
                    "duration": 0.09210512500000334
                },
                {
                    "name": "C5",
                    "midi": 72,
                    "time": 67.97358224999964,
                    "velocity": 0.3464566929133858,
                    "duration": 0.09210512500000334
                },
                {
                    "name": "E4",
                    "midi": 64,
                    "time": 67.97358224999964,
                    "velocity": 0.28346456692913385,
                    "duration": 0.09210512500000334
                },
                {
                    "name": "C3",
                    "midi": 48,
                    "time": 68.05252949999964,
                    "velocity": 0.3543307086614173,
                    "duration": 0.05263150000000394
                },
                {
                    "name": "B2",
                    "midi": 47,
                    "time": 68.10516099999964,
                    "velocity": 0.3464566929133858,
                    "duration": 0.05263150000000394
                },
                {
                    "name": "A2",
                    "midi": 45,
                    "time": 68.15779249999964,
                    "velocity": 0.33070866141732286,
                    "duration": 0.05263150000000394
                },
                {
                    "name": "G#2",
                    "midi": 44,
                    "time": 68.21042399999965,
                    "velocity": 0.33858267716535434,
                    "duration": 0.0789472499999988
                },
                {
                    "name": "E5",
                    "midi": 76,
                    "time": 68.52621299999964,
                    "velocity": 0.3543307086614173,
                    "duration": 0.09210512500000334
                },
                {
                    "name": "G#4",
                    "midi": 68,
                    "time": 68.52621299999964,
                    "velocity": 0.29133858267716534,
                    "duration": 0.09210512500000334
                },
                {
                    "name": "B4",
                    "midi": 71,
                    "time": 68.60516024999964,
                    "velocity": 0.3464566929133858,
                    "duration": 0.09210512500000334
                },
                {
                    "name": "E4",
                    "midi": 64,
                    "time": 68.60516024999964,
                    "velocity": 0.28346456692913385,
                    "duration": 0.09210512500000334
                },
                {
                    "name": "E2",
                    "midi": 40,
                    "time": 68.72358112499964,
                    "velocity": 0.49606299212598426,
                    "duration": 0.0394736249999994
                },
                {
                    "name": "F#2",
                    "midi": 42,
                    "time": 68.76305474999964,
                    "velocity": 0.5196850393700787,
                    "duration": 0.0394736249999994
                },
                {
                    "name": "G#2",
                    "midi": 44,
                    "time": 68.80252837499964,
                    "velocity": 0.5511811023622047,
                    "duration": 0.0394736249999994
                },
                {
                    "name": "A1",
                    "midi": 33,
                    "time": 68.84200199999964,
                    "velocity": 0.5669291338582677,
                    "duration": 0.0789472499999988
                },
                {
                    "name": "A2",
                    "midi": 45,
                    "time": 68.84200199999964,
                    "velocity": 0.5669291338582677,
                    "duration": 0.0789472499999988
                },
                {
                    "name": "E5",
                    "midi": 76,
                    "time": 69.15779099999963,
                    "velocity": 0.5511811023622047,
                    "duration": 0.09210512500000334
                },
                {
                    "name": "A4",
                    "midi": 69,
                    "time": 69.15779099999963,
                    "velocity": 0.4645669291338583,
                    "duration": 0.09210512500000334
                },
                {
                    "name": "C5",
                    "midi": 72,
                    "time": 69.23673824999963,
                    "velocity": 0.5354330708661418,
                    "duration": 0.09210512500000334
                },
                {
                    "name": "E4",
                    "midi": 64,
                    "time": 69.23673824999963,
                    "velocity": 0.44881889763779526,
                    "duration": 0.09210512500000334
                },
                {
                    "name": "C3",
                    "midi": 48,
                    "time": 69.31568549999963,
                    "velocity": 0.5826771653543307,
                    "duration": 0.05263150000000394
                },
                {
                    "name": "B2",
                    "midi": 47,
                    "time": 69.36831699999964,
                    "velocity": 0.5669291338582677,
                    "duration": 0.05263150000000394
                },
                {
                    "name": "A2",
                    "midi": 45,
                    "time": 69.42094849999964,
                    "velocity": 0.5433070866141733,
                    "duration": 0.05263150000000394
                },
                {
                    "name": "G#2",
                    "midi": 44,
                    "time": 69.47357999999964,
                    "velocity": 0.5826771653543307,
                    "duration": 0.0789472499999988
                },
                {
                    "name": "G#1",
                    "midi": 32,
                    "time": 69.47555368124965,
                    "velocity": 0.5826771653543307,
                    "duration": 0.0789472499999988
                },
                {
                    "name": "E5",
                    "midi": 76,
                    "time": 69.78936899999965,
                    "velocity": 0.5511811023622047,
                    "duration": 0.09210512500000334
                },
                {
                    "name": "G#4",
                    "midi": 68,
                    "time": 69.78936899999965,
                    "velocity": 0.4645669291338583,
                    "duration": 0.09210512500000334
                },
                {
                    "name": "B4",
                    "midi": 71,
                    "time": 69.86831624999965,
                    "velocity": 0.5354330708661418,
                    "duration": 0.09210512500000334
                },
                {
                    "name": "E4",
                    "midi": 64,
                    "time": 69.86831624999965,
                    "velocity": 0.44881889763779526,
                    "duration": 0.09210512500000334
                },
                {
                    "name": "E2",
                    "midi": 40,
                    "time": 69.94726349999965,
                    "velocity": 0.5039370078740157,
                    "duration": 0.05263150000000394
                },
                {
                    "name": "F#2",
                    "midi": 42,
                    "time": 69.99989499999965,
                    "velocity": 0.5433070866141733,
                    "duration": 0.05263150000000394
                },
                {
                    "name": "G#2",
                    "midi": 44,
                    "time": 70.05252649999966,
                    "velocity": 0.5669291338582677,
                    "duration": 0.05263150000000394
                },
                {
                    "name": "A1",
                    "midi": 33,
                    "time": 70.10515799999966,
                    "velocity": 0.5905511811023622,
                    "duration": 0.0789472499999988
                },
                {
                    "name": "A2",
                    "midi": 45,
                    "time": 70.10515799999966,
                    "velocity": 0.5905511811023622,
                    "duration": 0.0789472499999988
                },
                {
                    "name": "E5",
                    "midi": 76,
                    "time": 70.42094699999966,
                    "velocity": 0.5511811023622047,
                    "duration": 0.09210512500000334
                },
                {
                    "name": "A4",
                    "midi": 69,
                    "time": 70.42094699999966,
                    "velocity": 0.4645669291338583,
                    "duration": 0.09210512500000334
                },
                {
                    "name": "C5",
                    "midi": 72,
                    "time": 70.49989424999966,
                    "velocity": 0.5354330708661418,
                    "duration": 0.09210512500000334
                },
                {
                    "name": "E4",
                    "midi": 64,
                    "time": 70.49989424999966,
                    "velocity": 0.44881889763779526,
                    "duration": 0.09210512500000334
                },
                {
                    "name": "C3",
                    "midi": 48,
                    "time": 70.57884149999965,
                    "velocity": 0.6062992125984252,
                    "duration": 0.05263150000000394
                },
                {
                    "name": "B2",
                    "midi": 47,
                    "time": 70.63147299999966,
                    "velocity": 0.5905511811023622,
                    "duration": 0.05263150000000394
                },
                {
                    "name": "A2",
                    "midi": 45,
                    "time": 70.68410449999966,
                    "velocity": 0.5669291338582677,
                    "duration": 0.05263150000000394
                },
                {
                    "name": "G#2",
                    "midi": 44,
                    "time": 70.73673599999967,
                    "velocity": 0.5748031496062992,
                    "duration": 0.0789472499999988
                },
                {
                    "name": "G#1",
                    "midi": 32,
                    "time": 70.73936757499966,
                    "velocity": 0.5748031496062992,
                    "duration": 0.0789472499999988
                },
                {
                    "name": "E5",
                    "midi": 76,
                    "time": 71.05252499999966,
                    "velocity": 0.5511811023622047,
                    "duration": 0.09210512500000334
                },
                {
                    "name": "G#4",
                    "midi": 68,
                    "time": 71.05252499999966,
                    "velocity": 0.4645669291338583,
                    "duration": 0.09210512500000334
                },
                {
                    "name": "B4",
                    "midi": 71,
                    "time": 71.13147224999966,
                    "velocity": 0.5354330708661418,
                    "duration": 0.09210512500000334
                },
                {
                    "name": "E4",
                    "midi": 64,
                    "time": 71.13147224999966,
                    "velocity": 0.44881889763779526,
                    "duration": 0.09210512500000334
                },
                {
                    "name": "A2",
                    "midi": 45,
                    "time": 71.24989312499966,
                    "velocity": 0.29133858267716534,
                    "duration": 0.0394736249999994
                },
                {
                    "name": "B2",
                    "midi": 47,
                    "time": 71.28936674999966,
                    "velocity": 0.31496062992125984,
                    "duration": 0.0394736249999994
                },
                {
                    "name": "C3",
                    "midi": 48,
                    "time": 71.32884037499966,
                    "velocity": 0.33858267716535434,
                    "duration": 0.0394736249999994
                },
                {
                    "name": "C#2",
                    "midi": 37,
                    "time": 71.36831399999966,
                    "velocity": 0.2992125984251969,
                    "duration": 0.0789472499999988
                },
                {
                    "name": "C#3",
                    "midi": 49,
                    "time": 71.36831399999966,
                    "velocity": 0.3543307086614173,
                    "duration": 0.0789472499999988
                },
                {
                    "name": "A5",
                    "midi": 81,
                    "time": 71.68410299999965,
                    "velocity": 0.3543307086614173,
                    "duration": 0.09210512500000334
                },
                {
                    "name": "E5",
                    "midi": 76,
                    "time": 71.68410299999965,
                    "velocity": 0.29133858267716534,
                    "duration": 0.09210512500000334
                },
                {
                    "name": "G5",
                    "midi": 79,
                    "time": 71.76305024999965,
                    "velocity": 0.3464566929133858,
                    "duration": 0.09210512499998913
                },
                {
                    "name": "A4",
                    "midi": 69,
                    "time": 71.76305024999965,
                    "velocity": 0.28346456692913385,
                    "duration": 0.09210512499998913
                },
                {
                    "name": "A2",
                    "midi": 45,
                    "time": 71.84199749999965,
                    "velocity": 0.3779527559055118,
                    "duration": 0.05263149999998973
                },
                {
                    "name": "B2",
                    "midi": 47,
                    "time": 71.89462899999964,
                    "velocity": 0.3937007874015748,
                    "duration": 0.05263150000000394
                },
                {
                    "name": "C#3",
                    "midi": 49,
                    "time": 71.94726049999964,
                    "velocity": 0.4094488188976378,
                    "duration": 0.05263150000000394
                },
                {
                    "name": "D2",
                    "midi": 38,
                    "time": 71.99989199999965,
                    "velocity": 0.3700787401574803,
                    "duration": 0.0789472499999988
                },
                {
                    "name": "D3",
                    "midi": 50,
                    "time": 71.99989199999965,
                    "velocity": 0.4251968503937008,
                    "duration": 0.0789472499999988
                },
                {
                    "name": "F5",
                    "midi": 77,
                    "time": 72.31568099999964,
                    "velocity": 0.4094488188976378,
                    "duration": 0.09210512500000334
                },
                {
                    "name": "A4",
                    "midi": 69,
                    "time": 72.31568099999964,
                    "velocity": 0.33858267716535434,
                    "duration": 0.09210512500000334
                },
                {
                    "name": "D5",
                    "midi": 74,
                    "time": 72.39462824999964,
                    "velocity": 0.4015748031496063,
                    "duration": 0.09210512500000334
                },
                {
                    "name": "F4",
                    "midi": 65,
                    "time": 72.39462824999964,
                    "velocity": 0.33070866141732286,
                    "duration": 0.09210512500000334
                },
                {
                    "name": "E3",
                    "midi": 52,
                    "time": 72.47357549999964,
                    "velocity": 0.3543307086614173,
                    "duration": 0.05263150000000394
                },
                {
                    "name": "D3",
                    "midi": 50,
                    "time": 72.52620699999964,
                    "velocity": 0.3779527559055118,
                    "duration": 0.05263150000000394
                },
                {
                    "name": "C3",
                    "midi": 48,
                    "time": 72.57883849999965,
                    "velocity": 0.4094488188976378,
                    "duration": 0.05263150000000394
                },
                {
                    "name": "B1",
                    "midi": 35,
                    "time": 72.63146999999965,
                    "velocity": 0.4015748031496063,
                    "duration": 0.0789472499999988
                },
                {
                    "name": "B2",
                    "midi": 47,
                    "time": 72.63146999999965,
                    "velocity": 0.4251968503937008,
                    "duration": 0.0789472499999988
                },
                {
                    "name": "G5",
                    "midi": 79,
                    "time": 72.94725899999965,
                    "velocity": 0.4251968503937008,
                    "duration": 0.09210512500000334
                },
                {
                    "name": "D5",
                    "midi": 74,
                    "time": 72.94725899999965,
                    "velocity": 0.36220472440944884,
                    "duration": 0.09210512500000334
                },
                {
                    "name": "F5",
                    "midi": 77,
                    "time": 73.02620624999965,
                    "velocity": 0.4251968503937008,
                    "duration": 0.09210512499998913
                },
                {
                    "name": "G4",
                    "midi": 67,
                    "time": 73.02620624999965,
                    "velocity": 0.3543307086614173,
                    "duration": 0.09210512499998913
                },
                {
                    "name": "G2",
                    "midi": 43,
                    "time": 73.10515349999964,
                    "velocity": 0.49606299212598426,
                    "duration": 0.05263149999998973
                },
                {
                    "name": "A2",
                    "midi": 45,
                    "time": 73.15778499999963,
                    "velocity": 0.5118110236220472,
                    "duration": 0.05263150000000394
                },
                {
                    "name": "B2",
                    "midi": 47,
                    "time": 73.21041649999964,
                    "velocity": 0.5275590551181102,
                    "duration": 0.05263150000000394
                },
                {
                    "name": "C2",
                    "midi": 36,
                    "time": 73.26304799999964,
                    "velocity": 0.4566929133858268,
                    "duration": 0.07894725000001301
                },
                {
                    "name": "C3",
                    "midi": 48,
                    "time": 73.26304799999964,
                    "velocity": 0.5433070866141733,
                    "duration": 0.07894725000001301
                },
                {
                    "name": "E5",
                    "midi": 76,
                    "time": 73.57883699999965,
                    "velocity": 0.49606299212598426,
                    "duration": 0.09210512500000334
                },
                {
                    "name": "G4",
                    "midi": 67,
                    "time": 73.57883699999965,
                    "velocity": 0.41732283464566927,
                    "duration": 0.09210512500000334
                },
                {
                    "name": "C5",
                    "midi": 72,
                    "time": 73.65778424999965,
                    "velocity": 0.4881889763779528,
                    "duration": 0.09210512500000334
                },
                {
                    "name": "E4",
                    "midi": 64,
                    "time": 73.65778424999965,
                    "velocity": 0.4094488188976378,
                    "duration": 0.09210512500000334
                },
                {
                    "name": "B2",
                    "midi": 47,
                    "time": 73.73673149999965,
                    "velocity": 0.5275590551181102,
                    "duration": 0.05263150000000394
                },
                {
                    "name": "C3",
                    "midi": 48,
                    "time": 73.78936299999965,
                    "velocity": 0.5511811023622047,
                    "duration": 0.05263150000000394
                },
                {
                    "name": "C#3",
                    "midi": 49,
                    "time": 73.84199449999966,
                    "velocity": 0.5748031496062992,
                    "duration": 0.05263150000000394
                },
                {
                    "name": "D2",
                    "midi": 38,
                    "time": 73.89462599999966,
                    "velocity": 0.5039370078740157,
                    "duration": 0.0789472499999988
                },
                {
                    "name": "D3",
                    "midi": 50,
                    "time": 73.89462599999966,
                    "velocity": 0.5984251968503937,
                    "duration": 0.0789472499999988
                },
                {
                    "name": "A#5",
                    "midi": 82,
                    "time": 74.21041499999966,
                    "velocity": 0.5196850393700787,
                    "duration": 0.09210512500000334
                },
                {
                    "name": "D5",
                    "midi": 74,
                    "time": 74.21041499999966,
                    "velocity": 0.4409448818897638,
                    "duration": 0.09210512500000334
                },
                {
                    "name": "F5",
                    "midi": 77,
                    "time": 74.28936224999966,
                    "velocity": 0.5118110236220472,
                    "duration": 0.09210512500000334
                },
                {
                    "name": "A#4",
                    "midi": 70,
                    "time": 74.28936224999966,
                    "velocity": 0.4251968503937008,
                    "duration": 0.09210512500000334
                },
                {
                    "name": "A#2",
                    "midi": 46,
                    "time": 74.36830949999965,
                    "velocity": 0.5590551181102362,
                    "duration": 0.05263150000000394
                },
                {
                    "name": "C3",
                    "midi": 48,
                    "time": 74.42094099999966,
                    "velocity": 0.5826771653543307,
                    "duration": 0.05263150000000394
                },
                {
                    "name": "D3",
                    "midi": 50,
                    "time": 74.47357249999966,
                    "velocity": 0.6141732283464567,
                    "duration": 0.05263150000000394
                },
                {
                    "name": "E2",
                    "midi": 40,
                    "time": 74.52620399999967,
                    "velocity": 0.5433070866141733,
                    "duration": 0.07894725000001301
                },
                {
                    "name": "E3",
                    "midi": 52,
                    "time": 74.52620399999967,
                    "velocity": 0.6377952755905512,
                    "duration": 0.07894725000001301
                },
                {
                    "name": "A5",
                    "midi": 81,
                    "time": 74.84199299999968,
                    "velocity": 0.5748031496062992,
                    "duration": 0.09210512500000334
                },
                {
                    "name": "C5",
                    "midi": 72,
                    "time": 74.84199299999968,
                    "velocity": 0.49606299212598426,
                    "duration": 0.09210512500000334
                },
                {
                    "name": "E5",
                    "midi": 76,
                    "time": 74.92094024999967,
                    "velocity": 0.5669291338582677,
                    "duration": 0.09210512500000334
                },
                {
                    "name": "A4",
                    "midi": 69,
                    "time": 74.92094024999967,
                    "velocity": 0.48031496062992124,
                    "duration": 0.09210512500000334
                },
                {
                    "name": "F3",
                    "midi": 53,
                    "time": 74.99988749999967,
                    "velocity": 0.5984251968503937,
                    "duration": 0.05263150000000394
                },
                {
                    "name": "E3",
                    "midi": 52,
                    "time": 75.05251899999968,
                    "velocity": 0.6220472440944882,
                    "duration": 0.05263150000000394
                },
                {
                    "name": "D#3",
                    "midi": 51,
                    "time": 75.10515049999968,
                    "velocity": 0.6377952755905512,
                    "duration": 0.05263150000000394
                },
                {
                    "name": "D2",
                    "midi": 38,
                    "time": 75.15778199999968,
                    "velocity": 0.5590551181102362,
                    "duration": 0.0789472499999988
                },
                {
                    "name": "D3",
                    "midi": 50,
                    "time": 75.15778199999968,
                    "velocity": 0.6535433070866141,
                    "duration": 0.0789472499999988
                },
                {
                    "name": "B2",
                    "midi": 47,
                    "time": 75.31567649999968,
                    "velocity": 0.5433070866141733,
                    "duration": 0.05263150000000394
                },
                {
                    "name": "C3",
                    "midi": 48,
                    "time": 75.36830799999969,
                    "velocity": 0.5590551181102362,
                    "duration": 0.05263150000000394
                },
                {
                    "name": "D3",
                    "midi": 50,
                    "time": 75.42093949999969,
                    "velocity": 0.5748031496062992,
                    "duration": 0.05263150000000394
                },
                {
                    "name": "E3",
                    "midi": 52,
                    "time": 75.4735709999997,
                    "velocity": 0.5669291338582677,
                    "duration": 0.0789472499999988
                },
                {
                    "name": "E2",
                    "midi": 40,
                    "time": 75.4735709999997,
                    "velocity": 0.5433070866141733,
                    "duration": 0.0789472499999988
                },
                {
                    "name": "D3",
                    "midi": 50,
                    "time": 75.63146549999969,
                    "velocity": 0.5433070866141733,
                    "duration": 0.05263150000000394
                },
                {
                    "name": "C3",
                    "midi": 48,
                    "time": 75.6840969999997,
                    "velocity": 0.6062992125984252,
                    "duration": 0.05263150000000394
                },
                {
                    "name": "B2",
                    "midi": 47,
                    "time": 75.7367284999997,
                    "velocity": 0.6377952755905512,
                    "duration": 0.05263150000000394
                },
                {
                    "name": "A1",
                    "midi": 33,
                    "time": 75.7893599999997,
                    "velocity": 0.6535433070866141,
                    "duration": 0.0789472499999988
                },
                {
                    "name": "A2",
                    "midi": 45,
                    "time": 75.7893599999997,
                    "velocity": 0.6535433070866141,
                    "duration": 0.0789472499999988
                },
                {
                    "name": "E4",
                    "midi": 64,
                    "time": 75.9472544999997,
                    "velocity": 0.5511811023622047,
                    "duration": 0.0789472499999988
                },
                {
                    "name": "C5",
                    "midi": 72,
                    "time": 75.9472544999997,
                    "velocity": 0.6220472440944882,
                    "duration": 0.0789472499999988
                },
                {
                    "name": "C4",
                    "midi": 60,
                    "time": 76.1051489999997,
                    "velocity": 0.5354330708661418,
                    "duration": 0.0789472499999988
                },
                {
                    "name": "A4",
                    "midi": 69,
                    "time": 76.1051489999997,
                    "velocity": 0.6220472440944882,
                    "duration": 0.0789472499999988
                },
                {
                    "name": "A1",
                    "midi": 33,
                    "time": 76.42093799999971,
                    "velocity": 0.4251968503937008,
                    "duration": 0.0592104374999991
                },
                {
                    "name": "C2",
                    "midi": 36,
                    "time": 76.42093799999971,
                    "velocity": 0.49606299212598426,
                    "duration": 0.0592104374999991
                },
                {
                    "name": "B1",
                    "midi": 35,
                    "time": 76.4998852499997,
                    "velocity": 0.3700787401574803,
                    "duration": 0.0592104374999991
                },
                {
                    "name": "D2",
                    "midi": 38,
                    "time": 76.4998852499997,
                    "velocity": 0.4409448818897638,
                    "duration": 0.0592104374999991
                },
                {
                    "name": "C2",
                    "midi": 36,
                    "time": 76.5788324999997,
                    "velocity": 0.4251968503937008,
                    "duration": 0.0592104374999991
                },
                {
                    "name": "E2",
                    "midi": 40,
                    "time": 76.5788324999997,
                    "velocity": 0.5039370078740157,
                    "duration": 0.0592104374999991
                },
                {
                    "name": "D2",
                    "midi": 38,
                    "time": 76.6577797499997,
                    "velocity": 0.3937007874015748,
                    "duration": 0.0592104374999991
                },
                {
                    "name": "F2",
                    "midi": 41,
                    "time": 76.6577797499997,
                    "velocity": 0.4645669291338583,
                    "duration": 0.0592104374999991
                },
                {
                    "name": "E2",
                    "midi": 40,
                    "time": 76.7367269999997,
                    "velocity": 0.4330708661417323,
                    "duration": 0.0592104374999991
                },
                {
                    "name": "G#2",
                    "midi": 44,
                    "time": 76.7367269999997,
                    "velocity": 0.5196850393700787,
                    "duration": 0.0592104374999991
                },
                {
                    "name": "F2",
                    "midi": 41,
                    "time": 76.8156742499997,
                    "velocity": 0.4094488188976378,
                    "duration": 0.0592104374999991
                },
                {
                    "name": "A2",
                    "midi": 45,
                    "time": 76.8156742499997,
                    "velocity": 0.48031496062992124,
                    "duration": 0.0592104374999991
                },
                {
                    "name": "G#2",
                    "midi": 44,
                    "time": 76.8946214999997,
                    "velocity": 0.3937007874015748,
                    "duration": 0.0592104374999991
                },
                {
                    "name": "B2",
                    "midi": 47,
                    "time": 76.8946214999997,
                    "velocity": 0.47244094488188976,
                    "duration": 0.0592104374999991
                },
                {
                    "name": "A2",
                    "midi": 45,
                    "time": 76.9735687499997,
                    "velocity": 0.3700787401574803,
                    "duration": 0.0592104374999991
                },
                {
                    "name": "C3",
                    "midi": 48,
                    "time": 76.9735687499997,
                    "velocity": 0.4330708661417323,
                    "duration": 0.0592104374999991
                },
                {
                    "name": "B2",
                    "midi": 47,
                    "time": 77.0525159999997,
                    "velocity": 0.41732283464566927,
                    "duration": 0.0592104374999991
                },
                {
                    "name": "D3",
                    "midi": 50,
                    "time": 77.0525159999997,
                    "velocity": 0.49606299212598426,
                    "duration": 0.0592104374999991
                },
                {
                    "name": "C3",
                    "midi": 48,
                    "time": 77.1314632499997,
                    "velocity": 0.3779527559055118,
                    "duration": 0.0592104374999991
                },
                {
                    "name": "E3",
                    "midi": 52,
                    "time": 77.1314632499997,
                    "velocity": 0.4409448818897638,
                    "duration": 0.0592104374999991
                },
                {
                    "name": "D3",
                    "midi": 50,
                    "time": 77.2104104999997,
                    "velocity": 0.41732283464566927,
                    "duration": 0.0592104374999991
                },
                {
                    "name": "F3",
                    "midi": 53,
                    "time": 77.2104104999997,
                    "velocity": 0.49606299212598426,
                    "duration": 0.0592104374999991
                },
                {
                    "name": "E3",
                    "midi": 52,
                    "time": 77.2893577499997,
                    "velocity": 0.3779527559055118,
                    "duration": 0.0592104374999991
                },
                {
                    "name": "G#3",
                    "midi": 56,
                    "time": 77.2893577499997,
                    "velocity": 0.4409448818897638,
                    "duration": 0.0592104374999991
                },
                {
                    "name": "F3",
                    "midi": 53,
                    "time": 77.3683049999997,
                    "velocity": 0.41732283464566927,
                    "duration": 0.0592104374999991
                },
                {
                    "name": "A3",
                    "midi": 57,
                    "time": 77.3683049999997,
                    "velocity": 0.49606299212598426,
                    "duration": 0.0592104374999991
                },
                {
                    "name": "G#3",
                    "midi": 56,
                    "time": 77.44725224999969,
                    "velocity": 0.41732283464566927,
                    "duration": 0.0592104374999991
                },
                {
                    "name": "B3",
                    "midi": 59,
                    "time": 77.44725224999969,
                    "velocity": 0.49606299212598426,
                    "duration": 0.0592104374999991
                },
                {
                    "name": "A3",
                    "midi": 57,
                    "time": 77.52619949999969,
                    "velocity": 0.41732283464566927,
                    "duration": 0.0592104374999991
                },
                {
                    "name": "C4",
                    "midi": 60,
                    "time": 77.52619949999969,
                    "velocity": 0.49606299212598426,
                    "duration": 0.0592104374999991
                },
                {
                    "name": "B3",
                    "midi": 59,
                    "time": 77.60514674999969,
                    "velocity": 0.3779527559055118,
                    "duration": 0.0592104374999991
                },
                {
                    "name": "D4",
                    "midi": 62,
                    "time": 77.60514674999969,
                    "velocity": 0.44881889763779526,
                    "duration": 0.0592104374999991
                },
                {
                    "name": "C4",
                    "midi": 60,
                    "time": 77.68409399999969,
                    "velocity": 0.49606299212598426,
                    "duration": 0.0592104374999991
                },
                {
                    "name": "A3",
                    "midi": 57,
                    "time": 77.68409399999969,
                    "velocity": 0.41732283464566927,
                    "duration": 0.0592104374999991
                },
                {
                    "name": "B3",
                    "midi": 59,
                    "time": 77.76304124999969,
                    "velocity": 0.3858267716535433,
                    "duration": 0.0592104374999991
                },
                {
                    "name": "D4",
                    "midi": 62,
                    "time": 77.76304124999969,
                    "velocity": 0.47244094488188976,
                    "duration": 0.0592104374999991
                },
                {
                    "name": "C4",
                    "midi": 60,
                    "time": 77.84198849999969,
                    "velocity": 0.41732283464566927,
                    "duration": 0.0592104374999991
                },
                {
                    "name": "E4",
                    "midi": 64,
                    "time": 77.84198849999969,
                    "velocity": 0.5118110236220472,
                    "duration": 0.0592104374999991
                },
                {
                    "name": "D4",
                    "midi": 62,
                    "time": 77.92093574999969,
                    "velocity": 0.4566929133858268,
                    "duration": 0.0592104374999991
                },
                {
                    "name": "F4",
                    "midi": 65,
                    "time": 77.92093574999969,
                    "velocity": 0.5354330708661418,
                    "duration": 0.0592104374999991
                },
                {
                    "name": "D4",
                    "midi": 62,
                    "time": 77.99988299999968,
                    "velocity": 0.47244094488188976,
                    "duration": 0.0592104374999991
                },
                {
                    "name": "F4",
                    "midi": 65,
                    "time": 77.99988299999968,
                    "velocity": 0.5590551181102362,
                    "duration": 0.0592104374999991
                },
                {
                    "name": "C4",
                    "midi": 60,
                    "time": 78.07883024999968,
                    "velocity": 0.4566929133858268,
                    "duration": 0.0592104374999991
                },
                {
                    "name": "E4",
                    "midi": 64,
                    "time": 78.07883024999968,
                    "velocity": 0.5433070866141733,
                    "duration": 0.0592104374999991
                },
                {
                    "name": "B3",
                    "midi": 59,
                    "time": 78.15777749999968,
                    "velocity": 0.4330708661417323,
                    "duration": 0.07894725000001301
                },
                {
                    "name": "D4",
                    "midi": 62,
                    "time": 78.15777749999968,
                    "velocity": 0.5196850393700787,
                    "duration": 0.07894725000001301
                },
                {
                    "name": "A3",
                    "midi": 57,
                    "time": 78.2367247499997,
                    "velocity": 0.4094488188976378,
                    "duration": 0.07894725000001301
                },
                {
                    "name": "C4",
                    "midi": 60,
                    "time": 78.2367247499997,
                    "velocity": 0.49606299212598426,
                    "duration": 0.07894725000001301
                },
                {
                    "name": "B3",
                    "midi": 59,
                    "time": 78.31567199999971,
                    "velocity": 0.3779527559055118,
                    "duration": 0.07894725000001301
                },
                {
                    "name": "D4",
                    "midi": 62,
                    "time": 78.31567199999971,
                    "velocity": 0.4409448818897638,
                    "duration": 0.07894725000001301
                },
                {
                    "name": "C4",
                    "midi": 60,
                    "time": 78.39461924999972,
                    "velocity": 0.4409448818897638,
                    "duration": 0.07894725000001301
                },
                {
                    "name": "A3",
                    "midi": 57,
                    "time": 78.39461924999972,
                    "velocity": 0.36220472440944884,
                    "duration": 0.07894725000001301
                },
                {
                    "name": "B3",
                    "midi": 59,
                    "time": 78.47356649999973,
                    "velocity": 0.4251968503937008,
                    "duration": 0.0789472499999988
                },
                {
                    "name": "G#3",
                    "midi": 56,
                    "time": 78.47356649999973,
                    "velocity": 0.3543307086614173,
                    "duration": 0.0789472499999988
                },
                {
                    "name": "F3",
                    "midi": 53,
                    "time": 78.55251374999973,
                    "velocity": 0.3464566929133858,
                    "duration": 0.0789472499999988
                },
                {
                    "name": "A3",
                    "midi": 57,
                    "time": 78.55251374999973,
                    "velocity": 0.4015748031496063,
                    "duration": 0.0789472499999988
                },
                {
                    "name": "E3",
                    "midi": 52,
                    "time": 78.63146099999973,
                    "velocity": 0.31496062992125984,
                    "duration": 0.3157889999999952
                },
                {
                    "name": "G#3",
                    "midi": 56,
                    "time": 78.63146099999973,
                    "velocity": 0.3858267716535433,
                    "duration": 0.3157889999999952
                },
                {
                    "name": "A1",
                    "midi": 33,
                    "time": 78.94724999999973,
                    "velocity": 0.4251968503937008,
                    "duration": 0.0592104374999991
                },
                {
                    "name": "A2",
                    "midi": 45,
                    "time": 78.94724999999973,
                    "velocity": 0.49606299212598426,
                    "duration": 0.0592104374999991
                },
                {
                    "name": "B1",
                    "midi": 35,
                    "time": 79.02619724999973,
                    "velocity": 0.3700787401574803,
                    "duration": 0.0592104374999991
                },
                {
                    "name": "B2",
                    "midi": 47,
                    "time": 79.02619724999973,
                    "velocity": 0.4409448818897638,
                    "duration": 0.0592104374999991
                },
                {
                    "name": "C2",
                    "midi": 36,
                    "time": 79.10514449999972,
                    "velocity": 0.4251968503937008,
                    "duration": 0.0592104374999991
                },
                {
                    "name": "C3",
                    "midi": 48,
                    "time": 79.10514449999972,
                    "velocity": 0.5039370078740157,
                    "duration": 0.0592104374999991
                },
                {
                    "name": "D2",
                    "midi": 38,
                    "time": 79.18409174999972,
                    "velocity": 0.3937007874015748,
                    "duration": 0.0592104374999991
                },
                {
                    "name": "D3",
                    "midi": 50,
                    "time": 79.18409174999972,
                    "velocity": 0.4645669291338583,
                    "duration": 0.0592104374999991
                },
                {
                    "name": "E2",
                    "midi": 40,
                    "time": 79.26303899999972,
                    "velocity": 0.4330708661417323,
                    "duration": 0.0592104374999991
                },
                {
                    "name": "E3",
                    "midi": 52,
                    "time": 79.26303899999972,
                    "velocity": 0.5196850393700787,
                    "duration": 0.0592104374999991
                },
                {
                    "name": "F2",
                    "midi": 41,
                    "time": 79.34198624999972,
                    "velocity": 0.4094488188976378,
                    "duration": 0.0592104374999991
                },
                {
                    "name": "F3",
                    "midi": 53,
                    "time": 79.34198624999972,
                    "velocity": 0.48031496062992124,
                    "duration": 0.0592104374999991
                },
                {
                    "name": "G#2",
                    "midi": 44,
                    "time": 79.42093349999972,
                    "velocity": 0.3937007874015748,
                    "duration": 0.0592104374999991
                },
                {
                    "name": "G#3",
                    "midi": 56,
                    "time": 79.42093349999972,
                    "velocity": 0.47244094488188976,
                    "duration": 0.0592104374999991
                },
                {
                    "name": "A2",
                    "midi": 45,
                    "time": 79.49988074999972,
                    "velocity": 0.3700787401574803,
                    "duration": 0.0592104374999991
                },
                {
                    "name": "A3",
                    "midi": 57,
                    "time": 79.49988074999972,
                    "velocity": 0.4330708661417323,
                    "duration": 0.0592104374999991
                },
                {
                    "name": "B2",
                    "midi": 47,
                    "time": 79.57882799999972,
                    "velocity": 0.41732283464566927,
                    "duration": 0.0592104374999991
                },
                {
                    "name": "B3",
                    "midi": 59,
                    "time": 79.57882799999972,
                    "velocity": 0.49606299212598426,
                    "duration": 0.0592104374999991
                },
                {
                    "name": "C3",
                    "midi": 48,
                    "time": 79.65777524999972,
                    "velocity": 0.3779527559055118,
                    "duration": 0.0592104374999991
                },
                {
                    "name": "C4",
                    "midi": 60,
                    "time": 79.65777524999972,
                    "velocity": 0.4409448818897638,
                    "duration": 0.0592104374999991
                },
                {
                    "name": "D3",
                    "midi": 50,
                    "time": 79.73672249999971,
                    "velocity": 0.41732283464566927,
                    "duration": 0.0592104374999991
                },
                {
                    "name": "D4",
                    "midi": 62,
                    "time": 79.73672249999971,
                    "velocity": 0.49606299212598426,
                    "duration": 0.0592104374999991
                },
                {
                    "name": "E3",
                    "midi": 52,
                    "time": 79.81566974999971,
                    "velocity": 0.3779527559055118,
                    "duration": 0.0592104374999991
                },
                {
                    "name": "E4",
                    "midi": 64,
                    "time": 79.81566974999971,
                    "velocity": 0.4409448818897638,
                    "duration": 0.0592104374999991
                },
                {
                    "name": "F3",
                    "midi": 53,
                    "time": 79.89461699999971,
                    "velocity": 0.41732283464566927,
                    "duration": 0.0592104374999991
                },
                {
                    "name": "F4",
                    "midi": 65,
                    "time": 79.89461699999971,
                    "velocity": 0.49606299212598426,
                    "duration": 0.0592104374999991
                },
                {
                    "name": "G#3",
                    "midi": 56,
                    "time": 79.97356424999971,
                    "velocity": 0.41732283464566927,
                    "duration": 0.0592104374999991
                },
                {
                    "name": "G#4",
                    "midi": 68,
                    "time": 79.97356424999971,
                    "velocity": 0.49606299212598426,
                    "duration": 0.0592104374999991
                },
                {
                    "name": "A3",
                    "midi": 57,
                    "time": 80.05251149999971,
                    "velocity": 0.41732283464566927,
                    "duration": 0.0592104374999991
                },
                {
                    "name": "A4",
                    "midi": 69,
                    "time": 80.05251149999971,
                    "velocity": 0.49606299212598426,
                    "duration": 0.0592104374999991
                },
                {
                    "name": "B3",
                    "midi": 59,
                    "time": 80.13145874999971,
                    "velocity": 0.3779527559055118,
                    "duration": 0.0592104374999991
                },
                {
                    "name": "B4",
                    "midi": 71,
                    "time": 80.13145874999971,
                    "velocity": 0.44881889763779526,
                    "duration": 0.0592104374999991
                },
                {
                    "name": "A4",
                    "midi": 69,
                    "time": 80.21040599999971,
                    "velocity": 0.49606299212598426,
                    "duration": 0.0592104374999991
                },
                {
                    "name": "A3",
                    "midi": 57,
                    "time": 80.21040599999971,
                    "velocity": 0.41732283464566927,
                    "duration": 0.0592104374999991
                },
                {
                    "name": "G#3",
                    "midi": 56,
                    "time": 80.2893532499997,
                    "velocity": 0.3858267716535433,
                    "duration": 0.0592104374999991
                },
                {
                    "name": "G#4",
                    "midi": 68,
                    "time": 80.2893532499997,
                    "velocity": 0.4645669291338583,
                    "duration": 0.0592104374999991
                },
                {
                    "name": "F3",
                    "midi": 53,
                    "time": 80.3683004999997,
                    "velocity": 0.4015748031496063,
                    "duration": 0.0592104374999991
                },
                {
                    "name": "F4",
                    "midi": 65,
                    "time": 80.3683004999997,
                    "velocity": 0.4881889763779528,
                    "duration": 0.0592104374999991
                },
                {
                    "name": "E3",
                    "midi": 52,
                    "time": 80.4472477499997,
                    "velocity": 0.4251968503937008,
                    "duration": 0.0592104374999991
                },
                {
                    "name": "E4",
                    "midi": 64,
                    "time": 80.4472477499997,
                    "velocity": 0.49606299212598426,
                    "duration": 0.0592104374999991
                },
                {
                    "name": "F3",
                    "midi": 53,
                    "time": 80.5261949999997,
                    "velocity": 0.4330708661417323,
                    "duration": 0.0592104374999991
                },
                {
                    "name": "F4",
                    "midi": 65,
                    "time": 80.5261949999997,
                    "velocity": 0.5118110236220472,
                    "duration": 0.0592104374999991
                },
                {
                    "name": "E3",
                    "midi": 52,
                    "time": 80.6051422499997,
                    "velocity": 0.4251968503937008,
                    "duration": 0.0592104374999991
                },
                {
                    "name": "E4",
                    "midi": 64,
                    "time": 80.6051422499997,
                    "velocity": 0.5039370078740157,
                    "duration": 0.0592104374999991
                },
                {
                    "name": "D3",
                    "midi": 50,
                    "time": 80.6840894999997,
                    "velocity": 0.41732283464566927,
                    "duration": 0.07894725000001301
                },
                {
                    "name": "D4",
                    "midi": 62,
                    "time": 80.6840894999997,
                    "velocity": 0.49606299212598426,
                    "duration": 0.07894725000001301
                },
                {
                    "name": "C4",
                    "midi": 60,
                    "time": 80.76303674999971,
                    "velocity": 0.4881889763779528,
                    "duration": 0.07894725000001301
                },
                {
                    "name": "C3",
                    "midi": 48,
                    "time": 80.76303674999971,
                    "velocity": 0.4015748031496063,
                    "duration": 0.07894725000001301
                },
                {
                    "name": "B3",
                    "midi": 59,
                    "time": 80.84198399999973,
                    "velocity": 0.4409448818897638,
                    "duration": 0.0789472499999988
                },
                {
                    "name": "B2",
                    "midi": 47,
                    "time": 80.84198399999973,
                    "velocity": 0.3779527559055118,
                    "duration": 0.0789472499999988
                },
                {
                    "name": "A2",
                    "midi": 45,
                    "time": 80.92093124999973,
                    "velocity": 0.36220472440944884,
                    "duration": 0.07894725000001301
                },
                {
                    "name": "A3",
                    "midi": 57,
                    "time": 80.92093124999973,
                    "velocity": 0.4409448818897638,
                    "duration": 0.07894725000001301
                },
                {
                    "name": "G#2",
                    "midi": 44,
                    "time": 80.99987849999974,
                    "velocity": 0.3543307086614173,
                    "duration": 0.0789472499999988
                },
                {
                    "name": "G#3",
                    "midi": 56,
                    "time": 80.99987849999974,
                    "velocity": 0.4251968503937008,
                    "duration": 0.0789472499999988
                },
                {
                    "name": "F4",
                    "midi": 65,
                    "time": 81.07882574999974,
                    "velocity": 0.4015748031496063,
                    "duration": 0.0789472499999988
                },
                {
                    "name": "F3",
                    "midi": 53,
                    "time": 81.07882574999974,
                    "velocity": 0.3464566929133858,
                    "duration": 0.0789472499999988
                },
                {
                    "name": "E4",
                    "midi": 64,
                    "time": 81.15777299999974,
                    "velocity": 0.3858267716535433,
                    "duration": 0.3157889999999952
                },
                {
                    "name": "E3",
                    "midi": 52,
                    "time": 81.15777299999974,
                    "velocity": 0.31496062992125984,
                    "duration": 0.3157889999999952
                },
                {
                    "name": "A#4",
                    "midi": 70,
                    "time": 81.47356199999973,
                    "velocity": 0.5748031496062992,
                    "duration": 0.0592104374999991
                },
                {
                    "name": "A#3",
                    "midi": 58,
                    "time": 81.47356199999973,
                    "velocity": 0.4881889763779528,
                    "duration": 0.0592104374999991
                },
                {
                    "name": "A4",
                    "midi": 69,
                    "time": 81.55250924999973,
                    "velocity": 0.5275590551181102,
                    "duration": 0.0592104374999991
                },
                {
                    "name": "A3",
                    "midi": 57,
                    "time": 81.55250924999973,
                    "velocity": 0.4409448818897638,
                    "duration": 0.0592104374999991
                },
                {
                    "name": "G3",
                    "midi": 55,
                    "time": 81.63145649999973,
                    "velocity": 0.4330708661417323,
                    "duration": 0.0592104374999991
                },
                {
                    "name": "G4",
                    "midi": 67,
                    "time": 81.63145649999973,
                    "velocity": 0.5196850393700787,
                    "duration": 0.0592104374999991
                },
                {
                    "name": "E3",
                    "midi": 52,
                    "time": 81.71040374999973,
                    "velocity": 0.4330708661417323,
                    "duration": 0.0592104374999991
                },
                {
                    "name": "E4",
                    "midi": 64,
                    "time": 81.71040374999973,
                    "velocity": 0.5196850393700787,
                    "duration": 0.0592104374999991
                },
                {
                    "name": "C#3",
                    "midi": 49,
                    "time": 81.78935099999973,
                    "velocity": 0.4251968503937008,
                    "duration": 0.0592104374999991
                },
                {
                    "name": "C#4",
                    "midi": 61,
                    "time": 81.78935099999973,
                    "velocity": 0.5118110236220472,
                    "duration": 0.0592104374999991
                },
                {
                    "name": "A#2",
                    "midi": 46,
                    "time": 81.86829824999973,
                    "velocity": 0.4251968503937008,
                    "duration": 0.0592104374999991
                },
                {
                    "name": "A#3",
                    "midi": 58,
                    "time": 81.86829824999973,
                    "velocity": 0.5039370078740157,
                    "duration": 0.0592104374999991
                },
                {
                    "name": "A2",
                    "midi": 45,
                    "time": 81.94724549999972,
                    "velocity": 0.4251968503937008,
                    "duration": 0.1578944999999976
                },
                {
                    "name": "A3",
                    "midi": 57,
                    "time": 81.94724549999972,
                    "velocity": 0.49606299212598426,
                    "duration": 0.0592104374999991
                },
                {
                    "name": "G3",
                    "midi": 55,
                    "time": 82.02619274999972,
                    "velocity": 0.49606299212598426,
                    "duration": 0.0592104374999991
                },
                {
                    "name": "D3",
                    "midi": 50,
                    "time": 82.10513999999972,
                    "velocity": 0.41732283464566927,
                    "duration": 0.05921043750001331
                },
                {
                    "name": "F3",
                    "midi": 53,
                    "time": 82.10513999999972,
                    "velocity": 0.49606299212598426,
                    "duration": 0.05921043750001331
                },
                {
                    "name": "C#3",
                    "midi": 49,
                    "time": 82.18408724999973,
                    "velocity": 0.4251968503937008,
                    "duration": 0.0592104374999991
                },
                {
                    "name": "E3",
                    "midi": 52,
                    "time": 82.18408724999973,
                    "velocity": 0.5039370078740157,
                    "duration": 0.0592104374999991
                },
                {
                    "name": "B2",
                    "midi": 47,
                    "time": 82.26303449999973,
                    "velocity": 0.4409448818897638,
                    "duration": 0.0592104374999991
                },
                {
                    "name": "D3",
                    "midi": 50,
                    "time": 82.26303449999973,
                    "velocity": 0.5118110236220472,
                    "duration": 0.0592104374999991
                },
                {
                    "name": "A2",
                    "midi": 45,
                    "time": 82.34198174999973,
                    "velocity": 0.4409448818897638,
                    "duration": 0.0592104374999991
                },
                {
                    "name": "C#3",
                    "midi": 49,
                    "time": 82.34198174999973,
                    "velocity": 0.5354330708661418,
                    "duration": 0.0592104374999991
                },
                {
                    "name": "G2",
                    "midi": 43,
                    "time": 82.42092899999973,
                    "velocity": 0.4566929133858268,
                    "duration": 0.0592104374999991
                },
                {
                    "name": "B2",
                    "midi": 47,
                    "time": 82.42092899999973,
                    "velocity": 0.5433070866141733,
                    "duration": 0.0592104374999991
                },
                {
                    "name": "F2",
                    "midi": 41,
                    "time": 82.49987624999973,
                    "velocity": 0.4645669291338583,
                    "duration": 0.0592104374999991
                },
                {
                    "name": "A2",
                    "midi": 45,
                    "time": 82.49987624999973,
                    "velocity": 0.5590551181102362,
                    "duration": 0.0592104374999991
                },
                {
                    "name": "E2",
                    "midi": 40,
                    "time": 82.57882349999973,
                    "velocity": 0.49606299212598426,
                    "duration": 0.0592104374999991
                },
                {
                    "name": "G2",
                    "midi": 43,
                    "time": 82.57882349999973,
                    "velocity": 0.5905511811023622,
                    "duration": 0.0592104374999991
                },
                {
                    "name": "D2",
                    "midi": 38,
                    "time": 82.65777074999973,
                    "velocity": 0.5118110236220472,
                    "duration": 0.0592104374999991
                },
                {
                    "name": "F2",
                    "midi": 41,
                    "time": 82.65777074999973,
                    "velocity": 0.6062992125984252,
                    "duration": 0.0592104374999991
                },
                {
                    "name": "G#3",
                    "midi": 56,
                    "time": 82.73671799999973,
                    "velocity": 0.4881889763779528,
                    "duration": 0.0592104374999991
                },
                {
                    "name": "G#4",
                    "midi": 68,
                    "time": 82.73671799999973,
                    "velocity": 0.5748031496062992,
                    "duration": 0.0592104374999991
                },
                {
                    "name": "G3",
                    "midi": 55,
                    "time": 82.81566524999973,
                    "velocity": 0.4409448818897638,
                    "duration": 0.0592104374999991
                },
                {
                    "name": "G4",
                    "midi": 67,
                    "time": 82.81566524999973,
                    "velocity": 0.5275590551181102,
                    "duration": 0.0592104374999991
                },
                {
                    "name": "F3",
                    "midi": 53,
                    "time": 82.89461249999972,
                    "velocity": 0.4330708661417323,
                    "duration": 0.0592104374999991
                },
                {
                    "name": "F4",
                    "midi": 65,
                    "time": 82.89461249999972,
                    "velocity": 0.5196850393700787,
                    "duration": 0.0592104374999991
                },
                {
                    "name": "D3",
                    "midi": 50,
                    "time": 82.97355974999972,
                    "velocity": 0.4330708661417323,
                    "duration": 0.0592104374999991
                },
                {
                    "name": "D4",
                    "midi": 62,
                    "time": 82.97355974999972,
                    "velocity": 0.5196850393700787,
                    "duration": 0.0592104374999991
                },
                {
                    "name": "B2",
                    "midi": 47,
                    "time": 83.05250699999972,
                    "velocity": 0.4251968503937008,
                    "duration": 0.0592104374999991
                },
                {
                    "name": "B3",
                    "midi": 59,
                    "time": 83.05250699999972,
                    "velocity": 0.5118110236220472,
                    "duration": 0.0592104374999991
                },
                {
                    "name": "G#2",
                    "midi": 44,
                    "time": 83.13145424999972,
                    "velocity": 0.4251968503937008,
                    "duration": 0.0592104374999991
                },
                {
                    "name": "G#3",
                    "midi": 56,
                    "time": 83.13145424999972,
                    "velocity": 0.5039370078740157,
                    "duration": 0.0592104374999991
                },
                {
                    "name": "G2",
                    "midi": 43,
                    "time": 83.21040149999972,
                    "velocity": 0.4251968503937008,
                    "duration": 0.1578944999999976
                },
                {
                    "name": "G3",
                    "midi": 55,
                    "time": 83.21040149999972,
                    "velocity": 0.49606299212598426,
                    "duration": 0.0592104374999991
                },
                {
                    "name": "F3",
                    "midi": 53,
                    "time": 83.28934874999972,
                    "velocity": 0.49606299212598426,
                    "duration": 0.0592104374999991
                },
                {
                    "name": "C3",
                    "midi": 48,
                    "time": 83.36829599999972,
                    "velocity": 0.41732283464566927,
                    "duration": 0.0592104374999991
                },
                {
                    "name": "E3",
                    "midi": 52,
                    "time": 83.36829599999972,
                    "velocity": 0.49606299212598426,
                    "duration": 0.0592104374999991
                },
                {
                    "name": "B2",
                    "midi": 47,
                    "time": 83.44724324999972,
                    "velocity": 0.4251968503937008,
                    "duration": 0.0592104374999991
                },
                {
                    "name": "D3",
                    "midi": 50,
                    "time": 83.44724324999972,
                    "velocity": 0.5039370078740157,
                    "duration": 0.0592104374999991
                },
                {
                    "name": "A2",
                    "midi": 45,
                    "time": 83.52619049999971,
                    "velocity": 0.4409448818897638,
                    "duration": 0.0592104374999991
                },
                {
                    "name": "C3",
                    "midi": 48,
                    "time": 83.52619049999971,
                    "velocity": 0.5118110236220472,
                    "duration": 0.0592104374999991
                },
                {
                    "name": "G2",
                    "midi": 43,
                    "time": 83.60513774999971,
                    "velocity": 0.4409448818897638,
                    "duration": 0.0592104374999991
                },
                {
                    "name": "B2",
                    "midi": 47,
                    "time": 83.60513774999971,
                    "velocity": 0.5354330708661418,
                    "duration": 0.0592104374999991
                },
                {
                    "name": "A2",
                    "midi": 45,
                    "time": 83.68408499999971,
                    "velocity": 0.5433070866141733,
                    "duration": 0.0592104374999991
                },
                {
                    "name": "F2",
                    "midi": 41,
                    "time": 83.68408499999971,
                    "velocity": 0.4566929133858268,
                    "duration": 0.0592104374999991
                },
                {
                    "name": "G2",
                    "midi": 43,
                    "time": 83.76303224999971,
                    "velocity": 0.5590551181102362,
                    "duration": 0.0592104374999991
                },
                {
                    "name": "E2",
                    "midi": 40,
                    "time": 83.76303224999971,
                    "velocity": 0.4645669291338583,
                    "duration": 0.0592104374999991
                },
                {
                    "name": "F2",
                    "midi": 41,
                    "time": 83.84197949999971,
                    "velocity": 0.5905511811023622,
                    "duration": 0.0592104374999991
                },
                {
                    "name": "D2",
                    "midi": 38,
                    "time": 83.84197949999971,
                    "velocity": 0.49606299212598426,
                    "duration": 0.0592104374999991
                },
                {
                    "name": "E2",
                    "midi": 40,
                    "time": 83.92092674999971,
                    "velocity": 0.6062992125984252,
                    "duration": 0.0592104374999991
                },
                {
                    "name": "C2",
                    "midi": 36,
                    "time": 83.92092674999971,
                    "velocity": 0.5118110236220472,
                    "duration": 0.0592104374999991
                },
                {
                    "name": "G#2",
                    "midi": 44,
                    "time": 83.9998739999997,
                    "velocity": 0.49606299212598426,
                    "duration": 0.0592104374999991
                },
                {
                    "name": "B2",
                    "midi": 47,
                    "time": 83.9998739999997,
                    "velocity": 0.49606299212598426,
                    "duration": 0.0592104374999991
                },
                {
                    "name": "D3",
                    "midi": 50,
                    "time": 83.9998739999997,
                    "velocity": 0.5826771653543307,
                    "duration": 0.0592104374999991
                },
                {
                    "name": "D2",
                    "midi": 38,
                    "time": 83.9998739999997,
                    "velocity": 0.49606299212598426,
                    "duration": 0.0592104374999991
                },
                {
                    "name": "F3",
                    "midi": 53,
                    "time": 84.0788212499997,
                    "velocity": 0.5196850393700787,
                    "duration": 0.0592104374999991
                },
                {
                    "name": "F2",
                    "midi": 41,
                    "time": 84.0788212499997,
                    "velocity": 0.4330708661417323,
                    "duration": 0.0592104374999991
                },
                {
                    "name": "G#2",
                    "midi": 44,
                    "time": 84.1577684999997,
                    "velocity": 0.4330708661417323,
                    "duration": 0.0592104374999991
                },
                {
                    "name": "G#3",
                    "midi": 56,
                    "time": 84.1577684999997,
                    "velocity": 0.5196850393700787,
                    "duration": 0.0592104374999991
                },
                {
                    "name": "B2",
                    "midi": 47,
                    "time": 84.2367157499997,
                    "velocity": 0.4330708661417323,
                    "duration": 0.0592104374999991
                },
                {
                    "name": "B3",
                    "midi": 59,
                    "time": 84.2367157499997,
                    "velocity": 0.5196850393700787,
                    "duration": 0.0592104374999991
                },
                {
                    "name": "B3",
                    "midi": 59,
                    "time": 84.3156629999997,
                    "velocity": 0.47244094488188976,
                    "duration": 0.0592104374999991
                },
                {
                    "name": "D4",
                    "midi": 62,
                    "time": 84.3156629999997,
                    "velocity": 0.5590551181102362,
                    "duration": 0.0592104374999991
                },
                {
                    "name": "D3",
                    "midi": 50,
                    "time": 84.3156629999997,
                    "velocity": 0.47244094488188976,
                    "duration": 0.0592104374999991
                },
                {
                    "name": "G#3",
                    "midi": 56,
                    "time": 84.3156629999997,
                    "velocity": 0.47244094488188976,
                    "duration": 0.0592104374999991
                },
                {
                    "name": "D#4",
                    "midi": 63,
                    "time": 84.3946102499997,
                    "velocity": 0.4881889763779528,
                    "duration": 0.0592104374999991
                },
                {
                    "name": "D#3",
                    "midi": 51,
                    "time": 84.3946102499997,
                    "velocity": 0.4094488188976378,
                    "duration": 0.0592104374999991
                },
                {
                    "name": "E3",
                    "midi": 52,
                    "time": 84.4735574999997,
                    "velocity": 0.4251968503937008,
                    "duration": 0.05921043750001331
                },
                {
                    "name": "E4",
                    "midi": 64,
                    "time": 84.4735574999997,
                    "velocity": 0.5118110236220472,
                    "duration": 0.05921043750001331
                },
                {
                    "name": "F4",
                    "midi": 65,
                    "time": 84.55250474999971,
                    "velocity": 0.5511811023622047,
                    "duration": 0.0592104374999991
                },
                {
                    "name": "F3",
                    "midi": 53,
                    "time": 84.55250474999971,
                    "velocity": 0.4645669291338583,
                    "duration": 0.0592104374999991
                },
                {
                    "name": "A1",
                    "midi": 33,
                    "time": 84.63145199999971,
                    "velocity": 0.49606299212598426,
                    "duration": 0.05921043750001331
                },
                {
                    "name": "A2",
                    "midi": 45,
                    "time": 84.63145199999971,
                    "velocity": 0.5826771653543307,
                    "duration": 0.05921043750001331
                },
                {
                    "name": "F#2",
                    "midi": 42,
                    "time": 84.63145199999971,
                    "velocity": 0.49606299212598426,
                    "duration": 0.05921043750001331
                },
                {
                    "name": "D#2",
                    "midi": 39,
                    "time": 84.63145199999971,
                    "velocity": 0.49606299212598426,
                    "duration": 0.05921043750001331
                },
                {
                    "name": "C2",
                    "midi": 36,
                    "time": 84.71039924999972,
                    "velocity": 0.4330708661417323,
                    "duration": 0.0592104374999991
                },
                {
                    "name": "C3",
                    "midi": 48,
                    "time": 84.71039924999972,
                    "velocity": 0.5196850393700787,
                    "duration": 0.0592104374999991
                },
                {
                    "name": "D#2",
                    "midi": 39,
                    "time": 84.78934649999972,
                    "velocity": 0.4330708661417323,
                    "duration": 0.0592104374999991
                },
                {
                    "name": "D#3",
                    "midi": 51,
                    "time": 84.78934649999972,
                    "velocity": 0.5196850393700787,
                    "duration": 0.0592104374999991
                },
                {
                    "name": "F#2",
                    "midi": 42,
                    "time": 84.86829374999972,
                    "velocity": 0.4330708661417323,
                    "duration": 0.0592104374999991
                },
                {
                    "name": "F#3",
                    "midi": 54,
                    "time": 84.86829374999972,
                    "velocity": 0.5196850393700787,
                    "duration": 0.0592104374999991
                },
                {
                    "name": "F#3",
                    "midi": 54,
                    "time": 84.94724099999972,
                    "velocity": 0.47244094488188976,
                    "duration": 0.0592104374999991
                },
                {
                    "name": "A3",
                    "midi": 57,
                    "time": 84.94724099999972,
                    "velocity": 0.5590551181102362,
                    "duration": 0.0592104374999991
                },
                {
                    "name": "A2",
                    "midi": 45,
                    "time": 84.94724099999972,
                    "velocity": 0.47244094488188976,
                    "duration": 0.0592104374999991
                },
                {
                    "name": "D#3",
                    "midi": 51,
                    "time": 84.94724099999972,
                    "velocity": 0.47244094488188976,
                    "duration": 0.0592104374999991
                },
                {
                    "name": "A#3",
                    "midi": 58,
                    "time": 85.02618824999972,
                    "velocity": 0.4881889763779528,
                    "duration": 0.0592104374999991
                },
                {
                    "name": "A#2",
                    "midi": 46,
                    "time": 85.02618824999972,
                    "velocity": 0.4094488188976378,
                    "duration": 0.0592104374999991
                },
                {
                    "name": "B2",
                    "midi": 47,
                    "time": 85.10513549999972,
                    "velocity": 0.4251968503937008,
                    "duration": 0.05921043750001331
                },
                {
                    "name": "B3",
                    "midi": 59,
                    "time": 85.10513549999972,
                    "velocity": 0.5118110236220472,
                    "duration": 0.05921043750001331
                },
                {
                    "name": "C4",
                    "midi": 60,
                    "time": 85.18408274999973,
                    "velocity": 0.5511811023622047,
                    "duration": 0.0592104374999991
                },
                {
                    "name": "C3",
                    "midi": 48,
                    "time": 85.18408274999973,
                    "velocity": 0.4645669291338583,
                    "duration": 0.0592104374999991
                },
                {
                    "name": "D3",
                    "midi": 50,
                    "time": 85.26302999999973,
                    "velocity": 0.4330708661417323,
                    "duration": 0.05921043750001331
                },
                {
                    "name": "A3",
                    "midi": 57,
                    "time": 85.26302999999973,
                    "velocity": 0.4330708661417323,
                    "duration": 0.05921043750001331
                },
                {
                    "name": "B3",
                    "midi": 59,
                    "time": 85.26302999999973,
                    "velocity": 0.5196850393700787,
                    "duration": 0.05921043750001331
                },
                {
                    "name": "D#3",
                    "midi": 51,
                    "time": 85.34197724999974,
                    "velocity": 0.47244094488188976,
                    "duration": 0.0592104374999991
                },
                {
                    "name": "E3",
                    "midi": 52,
                    "time": 85.42092449999974,
                    "velocity": 0.47244094488188976,
                    "duration": 0.0592104374999991
                },
                {
                    "name": "F3",
                    "midi": 53,
                    "time": 85.49987174999974,
                    "velocity": 0.47244094488188976,
                    "duration": 0.0592104374999991
                },
                {
                    "name": "E3",
                    "midi": 52,
                    "time": 85.57881899999974,
                    "velocity": 0.47244094488188976,
                    "duration": 0.1578944999999976
                },
                {
                    "name": "G#3",
                    "midi": 56,
                    "time": 85.57881899999974,
                    "velocity": 0.47244094488188976,
                    "duration": 0.1578944999999976
                },
                {
                    "name": "E4",
                    "midi": 64,
                    "time": 85.57881899999974,
                    "velocity": 0.5590551181102362,
                    "duration": 0.1578944999999976
                },
                {
                    "name": "D4",
                    "midi": 62,
                    "time": 85.73671349999974,
                    "velocity": 0.5118110236220472,
                    "duration": 0.1578944999999976
                },
                {
                    "name": "G#3",
                    "midi": 56,
                    "time": 85.73671349999974,
                    "velocity": 0.4251968503937008,
                    "duration": 0.1578944999999976
                },
                {
                    "name": "E3",
                    "midi": 52,
                    "time": 85.73671349999974,
                    "velocity": 0.4251968503937008,
                    "duration": 0.1578944999999976
                },
                {
                    "name": "A2",
                    "midi": 45,
                    "time": 85.89460799999974,
                    "velocity": 0.4251968503937008,
                    "duration": 0.4736834999999928
                },
                {
                    "name": "D3",
                    "midi": 50,
                    "time": 85.89460799999974,
                    "velocity": 0.4251968503937008,
                    "duration": 0.3157889999999952
                },
                {
                    "name": "F3",
                    "midi": 53,
                    "time": 85.89460799999974,
                    "velocity": 0.5118110236220472,
                    "duration": 0.3157889999999952
                },
                {
                    "name": "C3",
                    "midi": 48,
                    "time": 86.21039699999973,
                    "velocity": 0.29133858267716534,
                    "duration": 0.1578944999999976
                },
                {
                    "name": "E3",
                    "midi": 52,
                    "time": 86.21039699999973,
                    "velocity": 0.3464566929133858,
                    "duration": 0.1578944999999976
                },
                {
                    "name": "E4",
                    "midi": 64,
                    "time": 86.52618599999973,
                    "velocity": 0.3464566929133858,
                    "duration": 0.05263150000000394
                },
                {
                    "name": "F4",
                    "midi": 65,
                    "time": 86.57881749999973,
                    "velocity": 0.29133858267716534,
                    "duration": 0.05263150000000394
                },
                {
                    "name": "E4",
                    "midi": 64,
                    "time": 86.63144899999973,
                    "velocity": 0.29133858267716534,
                    "duration": 0.05263150000000394
                },
                {
                    "name": "C4",
                    "midi": 60,
                    "time": 86.68408049999974,
                    "velocity": 0.3228346456692913,
                    "duration": 0.31578900000002363
                },
                {
                    "name": "A2",
                    "midi": 45,
                    "time": 86.84197499999975,
                    "velocity": 0.2125984251968504,
                    "duration": 0.07894725000001301
                },
                {
                    "name": "E3",
                    "midi": 52,
                    "time": 86.84197499999975,
                    "velocity": 0.2125984251968504,
                    "duration": 0.07894725000001301
                },
                {
                    "name": "A3",
                    "midi": 57,
                    "time": 86.99986949999976,
                    "velocity": 0.31496062992125984,
                    "duration": 0.0592104374999991
                },
                {
                    "name": "B3",
                    "midi": 59,
                    "time": 87.05250099999976,
                    "velocity": 0.29133858267716534,
                    "duration": 0.05921043749998489
                },
                {
                    "name": "A3",
                    "midi": 57,
                    "time": 87.10513249999975,
                    "velocity": 0.29133858267716534,
                    "duration": 0.05921043749998489
                },
                {
                    "name": "B3",
                    "midi": 59,
                    "time": 87.15776399999974,
                    "velocity": 0.31496062992125984,
                    "duration": 0.05921043749998489
                },
                {
                    "name": "C4",
                    "midi": 60,
                    "time": 87.21039549999973,
                    "velocity": 0.29133858267716534,
                    "duration": 0.05921043749998489
                },
                {
                    "name": "B3",
                    "midi": 59,
                    "time": 87.26302699999972,
                    "velocity": 0.29133858267716534,
                    "duration": 0.05921043749998489
                },
                {
                    "name": "G#3",
                    "midi": 56,
                    "time": 87.31565849999971,
                    "velocity": 0.31496062992125984,
                    "duration": 0.05921043749998489
                },
                {
                    "name": "A3",
                    "midi": 57,
                    "time": 87.3682899999997,
                    "velocity": 0.28346456692913385,
                    "duration": 0.05921043749998489
                },
                {
                    "name": "G#3",
                    "midi": 56,
                    "time": 87.4209214999997,
                    "velocity": 0.28346456692913385,
                    "duration": 0.05921043749998489
                },
                {
                    "name": "E3",
                    "midi": 52,
                    "time": 87.47355299999968,
                    "velocity": 0.30708661417322836,
                    "duration": 0.05921043749998489
                },
                {
                    "name": "F3",
                    "midi": 53,
                    "time": 87.52618449999967,
                    "velocity": 0.2755905511811024,
                    "duration": 0.05921043749998489
                },
                {
                    "name": "E3",
                    "midi": 52,
                    "time": 87.57881599999966,
                    "velocity": 0.2755905511811024,
                    "duration": 0.05921043749998489
                },
                {
                    "name": "A2",
                    "midi": 45,
                    "time": 87.63144749999965,
                    "velocity": 0.1968503937007874,
                    "duration": 0.0789472499999988
                },
                {
                    "name": "G#3",
                    "midi": 56,
                    "time": 87.63144749999965,
                    "velocity": 0.1968503937007874,
                    "duration": 0.0789472499999988
                },
                {
                    "name": "E4",
                    "midi": 64,
                    "time": 87.78934199999965,
                    "velocity": 0.3464566929133858,
                    "duration": 0.05263150000000394
                },
                {
                    "name": "F4",
                    "midi": 65,
                    "time": 87.84197349999965,
                    "velocity": 0.29133858267716534,
                    "duration": 0.05263150000000394
                },
                {
                    "name": "E4",
                    "midi": 64,
                    "time": 87.89460499999966,
                    "velocity": 0.29133858267716534,
                    "duration": 0.05263150000000394
                },
                {
                    "name": "C4",
                    "midi": 60,
                    "time": 87.94723649999966,
                    "velocity": 0.3228346456692913,
                    "duration": 0.3157889999999952
                },
                {
                    "name": "A2",
                    "midi": 45,
                    "time": 88.10513099999966,
                    "velocity": 0.2440944881889764,
                    "duration": 0.0789472499999988
                },
                {
                    "name": "E3",
                    "midi": 52,
                    "time": 88.10513099999966,
                    "velocity": 0.2440944881889764,
                    "duration": 0.0789472499999988
                },
                {
                    "name": "A3",
                    "midi": 57,
                    "time": 88.26302549999966,
                    "velocity": 0.3543307086614173,
                    "duration": 0.05263149999998973
                },
                {
                    "name": "B3",
                    "midi": 59,
                    "time": 88.31565699999965,
                    "velocity": 0.3464566929133858,
                    "duration": 0.05263150000000394
                },
                {
                    "name": "A3",
                    "midi": 57,
                    "time": 88.36828849999965,
                    "velocity": 0.36220472440944884,
                    "duration": 0.05263150000000394
                },
                {
                    "name": "G#3",
                    "midi": 56,
                    "time": 88.42091999999965,
                    "velocity": 0.41732283464566927,
                    "duration": 0.05263149999998973
                },
                {
                    "name": "A3",
                    "midi": 57,
                    "time": 88.47355149999964,
                    "velocity": 0.41732283464566927,
                    "duration": 0.05263150000000394
                },
                {
                    "name": "G3",
                    "midi": 55,
                    "time": 88.52618299999965,
                    "velocity": 0.4409448818897638,
                    "duration": 0.05263150000000394
                },
                {
                    "name": "F#3",
                    "midi": 54,
                    "time": 88.57881449999965,
                    "velocity": 0.48031496062992124,
                    "duration": 0.05263149999998973
                },
                {
                    "name": "G3",
                    "midi": 55,
                    "time": 88.63144599999964,
                    "velocity": 0.4409448818897638,
                    "duration": 0.05263150000000394
                },
                {
                    "name": "F3",
                    "midi": 53,
                    "time": 88.68407749999965,
                    "velocity": 0.44881889763779526,
                    "duration": 0.05263150000000394
                },
                {
                    "name": "E3",
                    "midi": 52,
                    "time": 88.73670899999965,
                    "velocity": 0.49606299212598426,
                    "duration": 0.05263150000000394
                },
                {
                    "name": "F3",
                    "midi": 53,
                    "time": 88.78934049999965,
                    "velocity": 0.4409448818897638,
                    "duration": 0.05263150000000394
                },
                {
                    "name": "E3",
                    "midi": 52,
                    "time": 88.84197199999966,
                    "velocity": 0.4409448818897638,
                    "duration": 0.05263150000000394
                },
                {
                    "name": "E2",
                    "midi": 40,
                    "time": 88.89460349999966,
                    "velocity": 0.5669291338582677,
                    "duration": 0.0789472499999988
                },
                {
                    "name": "E4",
                    "midi": 64,
                    "time": 89.05249799999966,
                    "velocity": 0.3464566929133858,
                    "duration": 0.05263150000000394
                },
                {
                    "name": "F4",
                    "midi": 65,
                    "time": 89.10512949999966,
                    "velocity": 0.29133858267716534,
                    "duration": 0.05263150000000394
                },
                {
                    "name": "E4",
                    "midi": 64,
                    "time": 89.15776099999967,
                    "velocity": 0.29133858267716534,
                    "duration": 0.05263150000000394
                },
                {
                    "name": "C4",
                    "midi": 60,
                    "time": 89.21039249999967,
                    "velocity": 0.3228346456692913,
                    "duration": 0.31578900000002363
                },
                {
                    "name": "A2",
                    "midi": 45,
                    "time": 89.36828699999968,
                    "velocity": 0.2125984251968504,
                    "duration": 0.07894725000001301
                },
                {
                    "name": "E3",
                    "midi": 52,
                    "time": 89.36828699999968,
                    "velocity": 0.2125984251968504,
                    "duration": 0.07894725000001301
                },
                {
                    "name": "A3",
                    "midi": 57,
                    "time": 89.5261814999997,
                    "velocity": 0.31496062992125984,
                    "duration": 0.0592104374999991
                },
                {
                    "name": "B3",
                    "midi": 59,
                    "time": 89.5788129999997,
                    "velocity": 0.29133858267716534,
                    "duration": 0.05921043749998489
                },
                {
                    "name": "A3",
                    "midi": 57,
                    "time": 89.63144449999969,
                    "velocity": 0.29133858267716534,
                    "duration": 0.05921043749998489
                },
                {
                    "name": "B3",
                    "midi": 59,
                    "time": 89.68407599999968,
                    "velocity": 0.31496062992125984,
                    "duration": 0.05921043749998489
                },
                {
                    "name": "C4",
                    "midi": 60,
                    "time": 89.73670749999967,
                    "velocity": 0.29133858267716534,
                    "duration": 0.05921043749998489
                },
                {
                    "name": "B3",
                    "midi": 59,
                    "time": 89.78933899999966,
                    "velocity": 0.29133858267716534,
                    "duration": 0.05921043749998489
                },
                {
                    "name": "G#3",
                    "midi": 56,
                    "time": 89.84197049999965,
                    "velocity": 0.31496062992125984,
                    "duration": 0.05921043749998489
                },
                {
                    "name": "A3",
                    "midi": 57,
                    "time": 89.89460199999964,
                    "velocity": 0.28346456692913385,
                    "duration": 0.05921043749998489
                },
                {
                    "name": "G#3",
                    "midi": 56,
                    "time": 89.94723349999963,
                    "velocity": 0.28346456692913385,
                    "duration": 0.05921043749998489
                },
                {
                    "name": "E3",
                    "midi": 52,
                    "time": 89.99986499999962,
                    "velocity": 0.30708661417322836,
                    "duration": 0.05921043749998489
                },
                {
                    "name": "F3",
                    "midi": 53,
                    "time": 90.0524964999996,
                    "velocity": 0.2755905511811024,
                    "duration": 0.05921043749998489
                },
                {
                    "name": "E3",
                    "midi": 52,
                    "time": 90.1051279999996,
                    "velocity": 0.2755905511811024,
                    "duration": 0.05921043749998489
                },
                {
                    "name": "A2",
                    "midi": 45,
                    "time": 90.15775949999959,
                    "velocity": 0.1968503937007874,
                    "duration": 0.0789472499999988
                },
                {
                    "name": "G#3",
                    "midi": 56,
                    "time": 90.15775949999959,
                    "velocity": 0.1968503937007874,
                    "duration": 0.0789472499999988
                },
                {
                    "name": "E4",
                    "midi": 64,
                    "time": 90.31565399999958,
                    "velocity": 0.3464566929133858,
                    "duration": 0.05263150000000394
                },
                {
                    "name": "F4",
                    "midi": 65,
                    "time": 90.36828549999959,
                    "velocity": 0.29133858267716534,
                    "duration": 0.05263150000000394
                },
                {
                    "name": "E4",
                    "midi": 64,
                    "time": 90.42091699999959,
                    "velocity": 0.29133858267716534,
                    "duration": 0.05263150000000394
                },
                {
                    "name": "C4",
                    "midi": 60,
                    "time": 90.4735484999996,
                    "velocity": 0.3228346456692913,
                    "duration": 0.3157889999999952
                },
                {
                    "name": "A2",
                    "midi": 45,
                    "time": 90.63144299999959,
                    "velocity": 0.2440944881889764,
                    "duration": 0.0789472499999988
                },
                {
                    "name": "E3",
                    "midi": 52,
                    "time": 90.63144299999959,
                    "velocity": 0.2440944881889764,
                    "duration": 0.0789472499999988
                },
                {
                    "name": "A3",
                    "midi": 57,
                    "time": 90.78933749999959,
                    "velocity": 0.3543307086614173,
                    "duration": 0.05263149999998973
                },
                {
                    "name": "B3",
                    "midi": 59,
                    "time": 90.84196899999958,
                    "velocity": 0.3464566929133858,
                    "duration": 0.05263150000000394
                },
                {
                    "name": "A3",
                    "midi": 57,
                    "time": 90.89460049999958,
                    "velocity": 0.36220472440944884,
                    "duration": 0.05263150000000394
                },
                {
                    "name": "G#3",
                    "midi": 56,
                    "time": 90.94723199999959,
                    "velocity": 0.41732283464566927,
                    "duration": 0.05263149999998973
                },
                {
                    "name": "A3",
                    "midi": 57,
                    "time": 90.99986349999958,
                    "velocity": 0.41732283464566927,
                    "duration": 0.05263150000000394
                },
                {
                    "name": "G3",
                    "midi": 55,
                    "time": 91.05249499999958,
                    "velocity": 0.4409448818897638,
                    "duration": 0.05263150000000394
                },
                {
                    "name": "F#3",
                    "midi": 54,
                    "time": 91.10512649999959,
                    "velocity": 0.48031496062992124,
                    "duration": 0.05263149999998973
                },
                {
                    "name": "G3",
                    "midi": 55,
                    "time": 91.15775799999957,
                    "velocity": 0.4409448818897638,
                    "duration": 0.05263150000000394
                },
                {
                    "name": "F3",
                    "midi": 53,
                    "time": 91.21038949999958,
                    "velocity": 0.44881889763779526,
                    "duration": 0.05263150000000394
                },
                {
                    "name": "E3",
                    "midi": 52,
                    "time": 91.26302099999958,
                    "velocity": 0.49606299212598426,
                    "duration": 0.05263150000000394
                },
                {
                    "name": "F3",
                    "midi": 53,
                    "time": 91.31565249999959,
                    "velocity": 0.4409448818897638,
                    "duration": 0.05263150000000394
                },
                {
                    "name": "E3",
                    "midi": 52,
                    "time": 91.36828399999959,
                    "velocity": 0.4409448818897638,
                    "duration": 0.05263150000000394
                },
                {
                    "name": "E2",
                    "midi": 40,
                    "time": 91.4209154999996,
                    "velocity": 0.5669291338582677,
                    "duration": 0.0789472499999988
                },
                {
                    "name": "E4",
                    "midi": 64,
                    "time": 91.57880999999959,
                    "velocity": 0.3464566929133858,
                    "duration": 0.05263150000000394
                },
                {
                    "name": "F4",
                    "midi": 65,
                    "time": 91.6314414999996,
                    "velocity": 0.29133858267716534,
                    "duration": 0.05263150000000394
                },
                {
                    "name": "E4",
                    "midi": 64,
                    "time": 91.6840729999996,
                    "velocity": 0.29133858267716534,
                    "duration": 0.05263150000000394
                },
                {
                    "name": "C#4",
                    "midi": 61,
                    "time": 91.7367044999996,
                    "velocity": 0.3228346456692913,
                    "duration": 0.31578900000002363
                },
                {
                    "name": "G3",
                    "midi": 55,
                    "time": 91.89459899999962,
                    "velocity": 0.2125984251968504,
                    "duration": 0.07894725000001301
                },
                {
                    "name": "A2",
                    "midi": 45,
                    "time": 91.89459899999962,
                    "velocity": 0.2125984251968504,
                    "duration": 0.07894725000001301
                },
                {
                    "name": "A#3",
                    "midi": 58,
                    "time": 91.89459899999962,
                    "velocity": 0.2125984251968504,
                    "duration": 0.07894725000001301
                },
                {
                    "name": "A3",
                    "midi": 57,
                    "time": 92.05249349999963,
                    "velocity": 0.31496062992125984,
                    "duration": 0.0592104374999991
                },
                {
                    "name": "A#3",
                    "midi": 58,
                    "time": 92.10512499999963,
                    "velocity": 0.29133858267716534,
                    "duration": 0.05921043749998489
                },
                {
                    "name": "A3",
                    "midi": 57,
                    "time": 92.15775649999962,
                    "velocity": 0.29133858267716534,
                    "duration": 0.05921043749998489
                },
                {
                    "name": "D4",
                    "midi": 62,
                    "time": 92.21038799999961,
                    "velocity": 0.31496062992125984,
                    "duration": 0.05921043749998489
                },
                {
                    "name": "E4",
                    "midi": 64,
                    "time": 92.2630194999996,
                    "velocity": 0.29133858267716534,
                    "duration": 0.05921043749998489
                },
                {
                    "name": "D4",
                    "midi": 62,
                    "time": 92.31565099999959,
                    "velocity": 0.29133858267716534,
                    "duration": 0.05921043749998489
                },
                {
                    "name": "C#4",
                    "midi": 61,
                    "time": 92.36828249999958,
                    "velocity": 0.44881889763779526,
                    "duration": 0.1578944999999834
                },
                {
                    "name": "A4",
                    "midi": 69,
                    "time": 92.36828249999958,
                    "velocity": 0.5275590551181102,
                    "duration": 0.1578944999999834
                },
                {
                    "name": "A3",
                    "midi": 57,
                    "time": 92.52617699999956,
                    "velocity": 0.4409448818897638,
                    "duration": 0.1184208749999982
                },
                {
                    "name": "F4",
                    "midi": 65,
                    "time": 92.52617699999956,
                    "velocity": 0.5118110236220472,
                    "duration": 0.1184208749999982
                },
                {
                    "name": "F3",
                    "midi": 53,
                    "time": 92.64459787499956,
                    "velocity": 0.5433070866141733,
                    "duration": 0.1184208749999982
                },
                {
                    "name": "A3",
                    "midi": 57,
                    "time": 92.66433468749956,
                    "velocity": 0.5669291338582677,
                    "duration": 0.0986840624999985
                },
                {
                    "name": "D4",
                    "midi": 62,
                    "time": 92.68407149999956,
                    "velocity": 0.5748031496062992,
                    "duration": 0.0789472499999988
                },
                {
                    "name": "D4",
                    "midi": 62,
                    "time": 92.84196599999956,
                    "velocity": 0.3464566929133858,
                    "duration": 0.05263149999998973
                },
                {
                    "name": "E4",
                    "midi": 64,
                    "time": 92.89459749999955,
                    "velocity": 0.29133858267716534,
                    "duration": 0.05263150000000394
                },
                {
                    "name": "D4",
                    "midi": 62,
                    "time": 92.94722899999955,
                    "velocity": 0.29133858267716534,
                    "duration": 0.05263150000000394
                },
                {
                    "name": "B3",
                    "midi": 59,
                    "time": 92.99986049999956,
                    "velocity": 0.3228346456692913,
                    "duration": 0.31578900000002363
                },
                {
                    "name": "F3",
                    "midi": 53,
                    "time": 93.15775499999957,
                    "velocity": 0.2125984251968504,
                    "duration": 0.07894725000001301
                },
                {
                    "name": "G2",
                    "midi": 43,
                    "time": 93.15775499999957,
                    "velocity": 0.2125984251968504,
                    "duration": 0.07894725000001301
                },
                {
                    "name": "G#3",
                    "midi": 56,
                    "time": 93.15775499999957,
                    "velocity": 0.2125984251968504,
                    "duration": 0.07894725000001301
                },
                {
                    "name": "G3",
                    "midi": 55,
                    "time": 93.31564949999958,
                    "velocity": 0.31496062992125984,
                    "duration": 0.0592104374999991
                },
                {
                    "name": "A3",
                    "midi": 57,
                    "time": 93.36828099999958,
                    "velocity": 0.29133858267716534,
                    "duration": 0.05921043749998489
                },
                {
                    "name": "G3",
                    "midi": 55,
                    "time": 93.42091249999957,
                    "velocity": 0.29133858267716534,
                    "duration": 0.05921043749998489
                },
                {
                    "name": "C4",
                    "midi": 60,
                    "time": 93.47354399999956,
                    "velocity": 0.31496062992125984,
                    "duration": 0.05921043749998489
                },
                {
                    "name": "D4",
                    "midi": 62,
                    "time": 93.52617549999955,
                    "velocity": 0.29133858267716534,
                    "duration": 0.05921043749998489
                },
                {
                    "name": "C4",
                    "midi": 60,
                    "time": 93.57880699999954,
                    "velocity": 0.29133858267716534,
                    "duration": 0.05921043749998489
                },
                {
                    "name": "B3",
                    "midi": 59,
                    "time": 93.63143849999953,
                    "velocity": 0.44881889763779526,
                    "duration": 0.1578944999999834
                },
                {
                    "name": "G4",
                    "midi": 67,
                    "time": 93.63143849999953,
                    "velocity": 0.5275590551181102,
                    "duration": 0.1578944999999834
                },
                {
                    "name": "G3",
                    "midi": 55,
                    "time": 93.78933299999952,
                    "velocity": 0.4409448818897638,
                    "duration": 0.1184208749999982
                },
                {
                    "name": "E4",
                    "midi": 64,
                    "time": 93.78933299999952,
                    "velocity": 0.5118110236220472,
                    "duration": 0.1184208749999982
                },
                {
                    "name": "E3",
                    "midi": 52,
                    "time": 93.90775387499951,
                    "velocity": 0.5433070866141733,
                    "duration": 0.1184208749999982
                },
                {
                    "name": "G3",
                    "midi": 55,
                    "time": 93.92749068749951,
                    "velocity": 0.5669291338582677,
                    "duration": 0.0986840624999985
                },
                {
                    "name": "C4",
                    "midi": 60,
                    "time": 93.94722749999951,
                    "velocity": 0.5748031496062992,
                    "duration": 0.0789472499999988
                },
                {
                    "name": "D4",
                    "midi": 62,
                    "time": 94.10512199999951,
                    "velocity": 0.3464566929133858,
                    "duration": 0.05263150000000394
                },
                {
                    "name": "E4",
                    "midi": 64,
                    "time": 94.15775349999952,
                    "velocity": 0.29133858267716534,
                    "duration": 0.05263150000000394
                },
                {
                    "name": "D4",
                    "midi": 62,
                    "time": 94.21038499999952,
                    "velocity": 0.29133858267716534,
                    "duration": 0.05263150000000394
                },
                {
                    "name": "F4",
                    "midi": 65,
                    "time": 94.26301649999952,
                    "velocity": 0.3228346456692913,
                    "duration": 0.31578900000002363
                },
                {
                    "name": "D3",
                    "midi": 50,
                    "time": 94.42091099999953,
                    "velocity": 0.2125984251968504,
                    "duration": 0.07894725000001301
                },
                {
                    "name": "B3",
                    "midi": 59,
                    "time": 94.42091099999953,
                    "velocity": 0.2125984251968504,
                    "duration": 0.07894725000001301
                },
                {
                    "name": "B4",
                    "midi": 71,
                    "time": 94.57880549999955,
                    "velocity": 0.3464566929133858,
                    "duration": 0.026315749999994864
                },
                {
                    "name": "C5",
                    "midi": 72,
                    "time": 94.60512124999954,
                    "velocity": 0.25984251968503935,
                    "duration": 0.026315749999994864
                },
                {
                    "name": "B4",
                    "midi": 71,
                    "time": 94.63143699999954,
                    "velocity": 0.25984251968503935,
                    "duration": 0.013157875000004537
                },
                {
                    "name": "C4",
                    "midi": 60,
                    "time": 94.73669999999954,
                    "velocity": 0.3464566929133858,
                    "duration": 0.05263150000000394
                },
                {
                    "name": "D4",
                    "midi": 62,
                    "time": 94.78933149999955,
                    "velocity": 0.29133858267716534,
                    "duration": 0.05263150000000394
                },
                {
                    "name": "C4",
                    "midi": 60,
                    "time": 94.84196299999955,
                    "velocity": 0.29133858267716534,
                    "duration": 0.05263150000000394
                },
                {
                    "name": "E4",
                    "midi": 64,
                    "time": 94.89459449999956,
                    "velocity": 0.3228346456692913,
                    "duration": 0.31578900000002363
                },
                {
                    "name": "C3",
                    "midi": 48,
                    "time": 95.05248899999957,
                    "velocity": 0.2125984251968504,
                    "duration": 0.07894725000001301
                },
                {
                    "name": "A3",
                    "midi": 57,
                    "time": 95.05248899999957,
                    "velocity": 0.2125984251968504,
                    "duration": 0.07894725000001301
                },
                {
                    "name": "A4",
                    "midi": 69,
                    "time": 95.21038349999958,
                    "velocity": 0.3464566929133858,
                    "duration": 0.026315749999994864
                },
                {
                    "name": "A#4",
                    "midi": 70,
                    "time": 95.23669924999957,
                    "velocity": 0.25984251968503935,
                    "duration": 0.026315749999994864
                },
                {
                    "name": "A4",
                    "midi": 69,
                    "time": 95.26301499999957,
                    "velocity": 0.25984251968503935,
                    "duration": 0.013157875000004537
                },
                {
                    "name": "D3",
                    "midi": 50,
                    "time": 95.36827799999958,
                    "velocity": 0.2125984251968504,
                    "duration": 0.1578944999999976
                },
                {
                    "name": "F4",
                    "midi": 65,
                    "time": 95.52617249999957,
                    "velocity": 0.2204724409448819,
                    "duration": 0.1578944999999976
                },
                {
                    "name": "D4",
                    "midi": 62,
                    "time": 95.52617249999957,
                    "velocity": 0.2204724409448819,
                    "duration": 0.1578944999999976
                },
                {
                    "name": "E3",
                    "midi": 52,
                    "time": 95.68406699999957,
                    "velocity": 0.2283464566929134,
                    "duration": 0.1578944999999976
                },
                {
                    "name": "G#4",
                    "midi": 68,
                    "time": 95.84196149999957,
                    "velocity": 0.2440944881889764,
                    "duration": 0.1578944999999976
                },
                {
                    "name": "E4",
                    "midi": 64,
                    "time": 95.84196149999957,
                    "velocity": 0.2440944881889764,
                    "duration": 0.1578944999999976
                },
                {
                    "name": "E4",
                    "midi": 64,
                    "time": 95.99985599999957,
                    "velocity": 0.25196850393700787,
                    "duration": 0.1578944999999976
                },
                {
                    "name": "A4",
                    "midi": 69,
                    "time": 95.99985599999957,
                    "velocity": 0.25196850393700787,
                    "duration": 0.1578944999999976
                },
                {
                    "name": "A3",
                    "midi": 57,
                    "time": 95.99985599999957,
                    "velocity": 0.25196850393700787,
                    "duration": 0.1578944999999976
                },
                {
                    "name": "D2",
                    "midi": 38,
                    "time": 96.15775049999957,
                    "velocity": 0.2125984251968504,
                    "duration": 0.0789472499999988
                },
                {
                    "name": "A2",
                    "midi": 45,
                    "time": 96.15775049999957,
                    "velocity": 0.2125984251968504,
                    "duration": 0.0789472499999988
                },
                {
                    "name": "A1",
                    "midi": 33,
                    "time": 96.31564499999956,
                    "velocity": 0.2125984251968504,
                    "duration": 0.0789472499999988
                },
                {
                    "name": "A2",
                    "midi": 45,
                    "time": 96.31564499999956,
                    "velocity": 0.2125984251968504,
                    "duration": 0.0789472499999988
                },
                {
                    "name": "E3",
                    "midi": 52,
                    "time": 96.63143399999956,
                    "velocity": 0.6771653543307087,
                    "duration": 0.0789472499999988
                },
                {
                    "name": "A2",
                    "midi": 45,
                    "time": 96.63143399999956,
                    "velocity": 0.5669291338582677,
                    "duration": 0.0789472499999988
                },
                {
                    "name": "C3",
                    "midi": 48,
                    "time": 96.78932849999956,
                    "velocity": 0.3543307086614173,
                    "duration": 0.0789472499999988
                },
                {
                    "name": "E3",
                    "midi": 52,
                    "time": 96.78932849999956,
                    "velocity": 0.4251968503937008,
                    "duration": 0.0789472499999988
                },
                {
                    "name": "E3",
                    "midi": 52,
                    "time": 96.94722299999955,
                    "velocity": 0.4251968503937008,
                    "duration": 0.0789472499999988
                },
                {
                    "name": "B2",
                    "midi": 47,
                    "time": 96.94722299999955,
                    "velocity": 0.3543307086614173,
                    "duration": 0.0789472499999988
                },
                {
                    "name": "E3",
                    "midi": 52,
                    "time": 97.10511749999955,
                    "velocity": 0.4251968503937008,
                    "duration": 0.0789472499999988
                },
                {
                    "name": "A2",
                    "midi": 45,
                    "time": 97.10511749999955,
                    "velocity": 0.3543307086614173,
                    "duration": 0.0789472499999988
                },
                {
                    "name": "E3",
                    "midi": 52,
                    "time": 97.26301199999955,
                    "velocity": 0.49606299212598426,
                    "duration": 0.0789472499999988
                },
                {
                    "name": "G#2",
                    "midi": 44,
                    "time": 97.26301199999955,
                    "velocity": 0.4251968503937008,
                    "duration": 0.0789472499999988
                },
                {
                    "name": "E3",
                    "midi": 52,
                    "time": 97.42090649999955,
                    "velocity": 0.44881889763779526,
                    "duration": 0.0789472499999988
                },
                {
                    "name": "E2",
                    "midi": 40,
                    "time": 97.42090649999955,
                    "velocity": 0.3779527559055118,
                    "duration": 0.0789472499999988
                },
                {
                    "name": "F#2",
                    "midi": 42,
                    "time": 97.57880099999954,
                    "velocity": 0.3700787401574803,
                    "duration": 0.0789472499999988
                },
                {
                    "name": "E3",
                    "midi": 52,
                    "time": 97.57880099999954,
                    "velocity": 0.4409448818897638,
                    "duration": 0.0789472499999988
                },
                {
                    "name": "E3",
                    "midi": 52,
                    "time": 97.73669549999954,
                    "velocity": 0.4409448818897638,
                    "duration": 0.0789472499999988
                },
                {
                    "name": "G#2",
                    "midi": 44,
                    "time": 97.73669549999954,
                    "velocity": 0.3700787401574803,
                    "duration": 0.0789472499999988
                },
                {
                    "name": "E3",
                    "midi": 52,
                    "time": 97.89458999999954,
                    "velocity": 0.6771653543307087,
                    "duration": 0.0789472499999988
                },
                {
                    "name": "A2",
                    "midi": 45,
                    "time": 97.89458999999954,
                    "velocity": 0.5669291338582677,
                    "duration": 0.0789472499999988
                },
                {
                    "name": "E3",
                    "midi": 52,
                    "time": 98.05248449999954,
                    "velocity": 0.4251968503937008,
                    "duration": 0.0789472499999988
                },
                {
                    "name": "C3",
                    "midi": 48,
                    "time": 98.05248449999954,
                    "velocity": 0.3543307086614173,
                    "duration": 0.0789472499999988
                },
                {
                    "name": "E3",
                    "midi": 52,
                    "time": 98.21037899999953,
                    "velocity": 0.4251968503937008,
                    "duration": 0.0789472499999988
                },
                {
                    "name": "B2",
                    "midi": 47,
                    "time": 98.21037899999953,
                    "velocity": 0.3543307086614173,
                    "duration": 0.0789472499999988
                },
                {
                    "name": "E3",
                    "midi": 52,
                    "time": 98.36827349999953,
                    "velocity": 0.4251968503937008,
                    "duration": 0.0789472499999988
                },
                {
                    "name": "A2",
                    "midi": 45,
                    "time": 98.36827349999953,
                    "velocity": 0.3543307086614173,
                    "duration": 0.0789472499999988
                },
                {
                    "name": "E3",
                    "midi": 52,
                    "time": 98.52616799999953,
                    "velocity": 0.49606299212598426,
                    "duration": 0.0789472499999988
                },
                {
                    "name": "G#2",
                    "midi": 44,
                    "time": 98.52616799999953,
                    "velocity": 0.4251968503937008,
                    "duration": 0.0789472499999988
                },
                {
                    "name": "D#3",
                    "midi": 51,
                    "time": 98.68406249999953,
                    "velocity": 0.44881889763779526,
                    "duration": 0.0789472499999988
                },
                {
                    "name": "F2",
                    "midi": 41,
                    "time": 98.68406249999953,
                    "velocity": 0.3779527559055118,
                    "duration": 0.0789472499999988
                },
                {
                    "name": "E3",
                    "midi": 52,
                    "time": 98.84195699999952,
                    "velocity": 0.48031496062992124,
                    "duration": 0.07894725000001301
                },
                {
                    "name": "E2",
                    "midi": 40,
                    "time": 98.84195699999952,
                    "velocity": 0.4015748031496063,
                    "duration": 0.07894725000001301
                },
                {
                    "name": "G#3",
                    "midi": 56,
                    "time": 98.99985149999954,
                    "velocity": 0.4409448818897638,
                    "duration": 0.0789472499999988
                },
                {
                    "name": "E3",
                    "midi": 52,
                    "time": 98.99985149999954,
                    "velocity": 0.3700787401574803,
                    "duration": 0.0789472499999988
                },
                {
                    "name": "A3",
                    "midi": 57,
                    "time": 99.15774599999953,
                    "velocity": 0.7086614173228346,
                    "duration": 0.0789472499999988
                },
                {
                    "name": "A2",
                    "midi": 45,
                    "time": 99.15774599999953,
                    "velocity": 0.5905511811023622,
                    "duration": 0.0789472499999988
                },
                {
                    "name": "C4",
                    "midi": 60,
                    "time": 99.31564049999953,
                    "velocity": 0.4645669291338583,
                    "duration": 0.0789472499999988
                },
                {
                    "name": "C3",
                    "midi": 48,
                    "time": 99.31564049999953,
                    "velocity": 0.3858267716535433,
                    "duration": 0.0789472499999988
                },
                {
                    "name": "B3",
                    "midi": 59,
                    "time": 99.47353499999953,
                    "velocity": 0.4645669291338583,
                    "duration": 0.0789472499999988
                },
                {
                    "name": "B2",
                    "midi": 47,
                    "time": 99.47353499999953,
                    "velocity": 0.3858267716535433,
                    "duration": 0.0789472499999988
                },
                {
                    "name": "A3",
                    "midi": 57,
                    "time": 99.63142949999953,
                    "velocity": 0.4645669291338583,
                    "duration": 0.0789472499999988
                },
                {
                    "name": "A2",
                    "midi": 45,
                    "time": 99.63142949999953,
                    "velocity": 0.3858267716535433,
                    "duration": 0.0789472499999988
                },
                {
                    "name": "G#3",
                    "midi": 56,
                    "time": 99.78932399999952,
                    "velocity": 0.5433070866141733,
                    "duration": 0.0789472499999988
                },
                {
                    "name": "G#2",
                    "midi": 44,
                    "time": 99.78932399999952,
                    "velocity": 0.4566929133858268,
                    "duration": 0.0789472499999988
                },
                {
                    "name": "E3",
                    "midi": 52,
                    "time": 99.94721849999952,
                    "velocity": 0.49606299212598426,
                    "duration": 0.0789472499999988
                },
                {
                    "name": "E2",
                    "midi": 40,
                    "time": 99.94721849999952,
                    "velocity": 0.4251968503937008,
                    "duration": 0.0789472499999988
                },
                {
                    "name": "F#3",
                    "midi": 54,
                    "time": 100.10511299999952,
                    "velocity": 0.4881889763779528,
                    "duration": 0.0789472499999988
                },
                {
                    "name": "F#2",
                    "midi": 42,
                    "time": 100.10511299999952,
                    "velocity": 0.4015748031496063,
                    "duration": 0.0789472499999988
                },
                {
                    "name": "G#3",
                    "midi": 56,
                    "time": 100.26300749999952,
                    "velocity": 0.4881889763779528,
                    "duration": 0.0789472499999988
                },
                {
                    "name": "G#2",
                    "midi": 44,
                    "time": 100.26300749999952,
                    "velocity": 0.4015748031496063,
                    "duration": 0.0789472499999988
                },
                {
                    "name": "A3",
                    "midi": 57,
                    "time": 100.42090199999951,
                    "velocity": 0.7086614173228346,
                    "duration": 0.0789472499999988
                },
                {
                    "name": "A2",
                    "midi": 45,
                    "time": 100.42090199999951,
                    "velocity": 0.5905511811023622,
                    "duration": 0.0789472499999988
                },
                {
                    "name": "C4",
                    "midi": 60,
                    "time": 100.57879649999951,
                    "velocity": 0.47244094488188976,
                    "duration": 0.0789472499999988
                },
                {
                    "name": "C3",
                    "midi": 48,
                    "time": 100.57879649999951,
                    "velocity": 0.3937007874015748,
                    "duration": 0.0789472499999988
                },
                {
                    "name": "B3",
                    "midi": 59,
                    "time": 100.73669099999951,
                    "velocity": 0.48031496062992124,
                    "duration": 0.07894725000001301
                },
                {
                    "name": "B2",
                    "midi": 47,
                    "time": 100.73669099999951,
                    "velocity": 0.4015748031496063,
                    "duration": 0.07894725000001301
                },
                {
                    "name": "A3",
                    "midi": 57,
                    "time": 100.89458549999952,
                    "velocity": 0.49606299212598426,
                    "duration": 0.0789472499999988
                },
                {
                    "name": "A2",
                    "midi": 45,
                    "time": 100.89458549999952,
                    "velocity": 0.41732283464566927,
                    "duration": 0.0789472499999988
                },
                {
                    "name": "G#3",
                    "midi": 56,
                    "time": 101.05247999999952,
                    "velocity": 0.5826771653543307,
                    "duration": 0.0789472499999988
                },
                {
                    "name": "G#2",
                    "midi": 44,
                    "time": 101.05247999999952,
                    "velocity": 0.49606299212598426,
                    "duration": 0.0789472499999988
                },
                {
                    "name": "F3",
                    "midi": 53,
                    "time": 101.21037449999952,
                    "velocity": 0.5984251968503937,
                    "duration": 0.0789472499999988
                },
                {
                    "name": "F2",
                    "midi": 41,
                    "time": 101.21037449999952,
                    "velocity": 0.5118110236220472,
                    "duration": 0.0789472499999988
                },
                {
                    "name": "E3",
                    "midi": 52,
                    "time": 101.36826899999951,
                    "velocity": 0.6141732283464567,
                    "duration": 0.0789472499999988
                },
                {
                    "name": "E2",
                    "midi": 40,
                    "time": 101.36826899999951,
                    "velocity": 0.5039370078740157,
                    "duration": 0.0789472499999988
                },
                {
                    "name": "G#3",
                    "midi": 56,
                    "time": 101.52616349999951,
                    "velocity": 0.5275590551181102,
                    "duration": 0.0789472499999988
                },
                {
                    "name": "E4",
                    "midi": 64,
                    "time": 101.52616349999951,
                    "velocity": 0.6299212598425197,
                    "duration": 0.0789472499999988
                },
                {
                    "name": "B3",
                    "midi": 59,
                    "time": 101.52616349999951,
                    "velocity": 0.5275590551181102,
                    "duration": 0.0789472499999988
                },
                {
                    "name": "A3",
                    "midi": 57,
                    "time": 101.68405799999951,
                    "velocity": 0.7401574803149606,
                    "duration": 0.0789472499999988
                },
                {
                    "name": "A2",
                    "midi": 45,
                    "time": 101.68405799999951,
                    "velocity": 0.6220472440944882,
                    "duration": 0.0789472499999988
                },
                {
                    "name": "B3",
                    "midi": 59,
                    "time": 101.84195249999951,
                    "velocity": 0.4881889763779528,
                    "duration": 0.0789472499999988
                },
                {
                    "name": "B2",
                    "midi": 47,
                    "time": 101.84195249999951,
                    "velocity": 0.4094488188976378,
                    "duration": 0.0789472499999988
                },
                {
                    "name": "C#3",
                    "midi": 49,
                    "time": 101.9998469999995,
                    "velocity": 0.4094488188976378,
                    "duration": 0.07894725000001301
                },
                {
                    "name": "C#4",
                    "midi": 61,
                    "time": 101.9998469999995,
                    "velocity": 0.4881889763779528,
                    "duration": 0.07894725000001301
                },
                {
                    "name": "A3",
                    "midi": 57,
                    "time": 102.15774149999952,
                    "velocity": 0.4881889763779528,
                    "duration": 0.0789472499999988
                },
                {
                    "name": "A2",
                    "midi": 45,
                    "time": 102.15774149999952,
                    "velocity": 0.4094488188976378,
                    "duration": 0.0789472499999988
                },
                {
                    "name": "D4",
                    "midi": 62,
                    "time": 102.31563599999951,
                    "velocity": 0.5669291338582677,
                    "duration": 0.0789472499999988
                },
                {
                    "name": "D3",
                    "midi": 50,
                    "time": 102.31563599999951,
                    "velocity": 0.48031496062992124,
                    "duration": 0.0789472499999988
                },
                {
                    "name": "C#4",
                    "midi": 61,
                    "time": 102.47353049999951,
                    "velocity": 0.5039370078740157,
                    "duration": 0.1578944999999976
                },
                {
                    "name": "A#4",
                    "midi": 70,
                    "time": 102.47353049999951,
                    "velocity": 0.5984251968503937,
                    "duration": 0.1578944999999976
                },
                {
                    "name": "A4",
                    "midi": 69,
                    "time": 102.63142499999951,
                    "velocity": 0.6062992125984252,
                    "duration": 0.1578944999999976
                },
                {
                    "name": "D4",
                    "midi": 62,
                    "time": 102.63142499999951,
                    "velocity": 0.49606299212598426,
                    "duration": 0.1578944999999976
                },
                {
                    "name": "A4",
                    "midi": 69,
                    "time": 102.78931949999951,
                    "velocity": 0.6220472440944882,
                    "duration": 0.15789450000001182
                },
                {
                    "name": "F4",
                    "midi": 65,
                    "time": 102.78931949999951,
                    "velocity": 0.5039370078740157,
                    "duration": 0.15789450000001182
                },
                {
                    "name": "G3",
                    "midi": 55,
                    "time": 102.94721399999952,
                    "velocity": 0.7401574803149606,
                    "duration": 0.0789472499999988
                },
                {
                    "name": "G2",
                    "midi": 43,
                    "time": 102.94721399999952,
                    "velocity": 0.6220472440944882,
                    "duration": 0.0789472499999988
                },
                {
                    "name": "A3",
                    "midi": 57,
                    "time": 103.10510849999952,
                    "velocity": 0.4881889763779528,
                    "duration": 0.0789472499999988
                },
                {
                    "name": "A2",
                    "midi": 45,
                    "time": 103.10510849999952,
                    "velocity": 0.4094488188976378,
                    "duration": 0.0789472499999988
                },
                {
                    "name": "B3",
                    "midi": 59,
                    "time": 103.26300299999951,
                    "velocity": 0.4881889763779528,
                    "duration": 0.0789472499999988
                },
                {
                    "name": "B2",
                    "midi": 47,
                    "time": 103.26300299999951,
                    "velocity": 0.4094488188976378,
                    "duration": 0.0789472499999988
                },
                {
                    "name": "G3",
                    "midi": 55,
                    "time": 103.42089749999951,
                    "velocity": 0.4881889763779528,
                    "duration": 0.07894725000001301
                },
                {
                    "name": "G2",
                    "midi": 43,
                    "time": 103.42089749999951,
                    "velocity": 0.4094488188976378,
                    "duration": 0.07894725000001301
                },
                {
                    "name": "C4",
                    "midi": 60,
                    "time": 103.57879199999952,
                    "velocity": 0.5905511811023622,
                    "duration": 0.0789472499999988
                },
                {
                    "name": "C3",
                    "midi": 48,
                    "time": 103.57879199999952,
                    "velocity": 0.5039370078740157,
                    "duration": 0.0789472499999988
                },
                {
                    "name": "G4",
                    "midi": 67,
                    "time": 103.73668649999952,
                    "velocity": 0.6062992125984252,
                    "duration": 0.1578944999999976
                },
                {
                    "name": "D4",
                    "midi": 62,
                    "time": 103.73668649999952,
                    "velocity": 0.5118110236220472,
                    "duration": 0.1578944999999976
                },
                {
                    "name": "G4",
                    "midi": 67,
                    "time": 103.89458099999952,
                    "velocity": 0.6141732283464567,
                    "duration": 0.1578944999999976
                },
                {
                    "name": "E4",
                    "midi": 64,
                    "time": 103.89458099999952,
                    "velocity": 0.49606299212598426,
                    "duration": 0.1578944999999976
                },
                {
                    "name": "G4",
                    "midi": 67,
                    "time": 104.05247549999952,
                    "velocity": 0.6220472440944882,
                    "duration": 0.15789450000001182
                },
                {
                    "name": "C4",
                    "midi": 60,
                    "time": 104.05247549999952,
                    "velocity": 0.5039370078740157,
                    "duration": 0.15789450000001182
                },
                {
                    "name": "D4",
                    "midi": 62,
                    "time": 104.21036999999953,
                    "velocity": 0.7086614173228346,
                    "duration": 0.0789472499999988
                },
                {
                    "name": "D3",
                    "midi": 50,
                    "time": 104.21036999999953,
                    "velocity": 0.5905511811023622,
                    "duration": 0.0789472499999988
                },
                {
                    "name": "F4",
                    "midi": 65,
                    "time": 104.36826449999953,
                    "velocity": 0.4094488188976378,
                    "duration": 0.1184208749999982
                },
                {
                    "name": "G#4",
                    "midi": 68,
                    "time": 104.36826449999953,
                    "velocity": 0.4094488188976378,
                    "duration": 0.1184208749999982
                },
                {
                    "name": "B4",
                    "midi": 71,
                    "time": 104.36826449999953,
                    "velocity": 0.4881889763779528,
                    "duration": 0.1184208749999982
                },
                {
                    "name": "E4",
                    "midi": 64,
                    "time": 104.52615899999952,
                    "velocity": 0.4094488188976378,
                    "duration": 0.11842087500001242
                },
                {
                    "name": "G#4",
                    "midi": 68,
                    "time": 104.52615899999952,
                    "velocity": 0.4094488188976378,
                    "duration": 0.11842087500001242
                },
                {
                    "name": "B4",
                    "midi": 71,
                    "time": 104.52615899999952,
                    "velocity": 0.4881889763779528,
                    "duration": 0.11842087500001242
                },
                {
                    "name": "D4",
                    "midi": 62,
                    "time": 104.68405349999954,
                    "velocity": 0.4094488188976378,
                    "duration": 0.1184208749999982
                },
                {
                    "name": "G#4",
                    "midi": 68,
                    "time": 104.68405349999954,
                    "velocity": 0.4094488188976378,
                    "duration": 0.1184208749999982
                },
                {
                    "name": "B4",
                    "midi": 71,
                    "time": 104.68405349999954,
                    "velocity": 0.4881889763779528,
                    "duration": 0.1184208749999982
                },
                {
                    "name": "C4",
                    "midi": 60,
                    "time": 104.84194799999953,
                    "velocity": 0.48031496062992124,
                    "duration": 0.1184208749999982
                },
                {
                    "name": "C5",
                    "midi": 72,
                    "time": 104.84194799999953,
                    "velocity": 0.5669291338582677,
                    "duration": 0.1184208749999982
                },
                {
                    "name": "A4",
                    "midi": 69,
                    "time": 104.84194799999953,
                    "velocity": 0.48031496062992124,
                    "duration": 0.1184208749999982
                },
                {
                    "name": "F4",
                    "midi": 65,
                    "time": 104.99984249999953,
                    "velocity": 0.4566929133858268,
                    "duration": 0.1184208749999982
                },
                {
                    "name": "G#4",
                    "midi": 68,
                    "time": 104.99984249999953,
                    "velocity": 0.5433070866141733,
                    "duration": 0.1184208749999982
                },
                {
                    "name": "B3",
                    "midi": 59,
                    "time": 104.99984249999953,
                    "velocity": 0.4566929133858268,
                    "duration": 0.1184208749999982
                },
                {
                    "name": "A3",
                    "midi": 57,
                    "time": 105.15773699999953,
                    "velocity": 0.4409448818897638,
                    "duration": 0.1184208749999982
                },
                {
                    "name": "A4",
                    "midi": 69,
                    "time": 105.15773699999953,
                    "velocity": 0.5275590551181102,
                    "duration": 0.1184208749999982
                },
                {
                    "name": "E4",
                    "midi": 64,
                    "time": 105.15773699999953,
                    "velocity": 0.4409448818897638,
                    "duration": 0.1184208749999982
                },
                {
                    "name": "C#4",
                    "midi": 61,
                    "time": 105.31563149999953,
                    "velocity": 0.4409448818897638,
                    "duration": 0.1184208749999982
                },
                {
                    "name": "E4",
                    "midi": 64,
                    "time": 105.31563149999953,
                    "velocity": 0.5275590551181102,
                    "duration": 0.1184208749999982
                },
                {
                    "name": "G3",
                    "midi": 55,
                    "time": 105.31563149999953,
                    "velocity": 0.4409448818897638,
                    "duration": 0.1184208749999982
                },
                {
                    "name": "F3",
                    "midi": 53,
                    "time": 105.47352599999952,
                    "velocity": 0.5275590551181102,
                    "duration": 0.1184208749999982
                },
                {
                    "name": "F4",
                    "midi": 65,
                    "time": 105.47352599999952,
                    "velocity": 0.6220472440944882,
                    "duration": 0.1184208749999982
                },
                {
                    "name": "D4",
                    "midi": 62,
                    "time": 105.47352599999952,
                    "velocity": 0.5275590551181102,
                    "duration": 0.1184208749999982
                },
                {
                    "name": "D#3",
                    "midi": 51,
                    "time": 105.63142049999952,
                    "velocity": 0.5118110236220472,
                    "duration": 0.1184208749999982
                },
                {
                    "name": "D#4",
                    "midi": 63,
                    "time": 105.63142049999952,
                    "velocity": 0.6062992125984252,
                    "duration": 0.1184208749999982
                },
                {
                    "name": "C4",
                    "midi": 60,
                    "time": 105.63142049999952,
                    "velocity": 0.5118110236220472,
                    "duration": 0.1184208749999982
                },
                {
                    "name": "A3",
                    "midi": 57,
                    "time": 105.63142049999952,
                    "velocity": 0.5118110236220472,
                    "duration": 0.1184208749999982
                },
                {
                    "name": "C4",
                    "midi": 60,
                    "time": 105.78931499999952,
                    "velocity": 0.5196850393700787,
                    "duration": 0.1184208749999982
                },
                {
                    "name": "E3",
                    "midi": 52,
                    "time": 105.78931499999952,
                    "velocity": 0.5196850393700787,
                    "duration": 0.1184208749999982
                },
                {
                    "name": "E4",
                    "midi": 64,
                    "time": 105.78931499999952,
                    "velocity": 0.6299212598425197,
                    "duration": 0.1184208749999982
                },
                {
                    "name": "A3",
                    "midi": 57,
                    "time": 105.78931499999952,
                    "velocity": 0.5196850393700787,
                    "duration": 0.1184208749999982
                },
                {
                    "name": "G#3",
                    "midi": 56,
                    "time": 105.94720949999952,
                    "velocity": 0.5511811023622047,
                    "duration": 0.1184208749999982
                },
                {
                    "name": "B3",
                    "midi": 59,
                    "time": 105.94720949999952,
                    "velocity": 0.5511811023622047,
                    "duration": 0.1184208749999982
                },
                {
                    "name": "E4",
                    "midi": 64,
                    "time": 105.94720949999952,
                    "velocity": 0.6692913385826772,
                    "duration": 0.1184208749999982
                },
                {
                    "name": "E3",
                    "midi": 52,
                    "time": 105.94720949999952,
                    "velocity": 0.5511811023622047,
                    "duration": 0.1184208749999982
                },
                {
                    "name": "A2",
                    "midi": 45,
                    "time": 106.10510399999951,
                    "velocity": 0.6299212598425197,
                    "duration": 0.3157890000000094
                },
                {
                    "name": "E3",
                    "midi": 52,
                    "time": 106.10510399999951,
                    "velocity": 0.6299212598425197,
                    "duration": 0.3157890000000094
                },
                {
                    "name": "A3",
                    "midi": 57,
                    "time": 106.10510399999951,
                    "velocity": 0.7322834645669292,
                    "duration": 0.3157890000000094
                },
                {
                    "name": "E4",
                    "midi": 64,
                    "time": 106.42089299999952,
                    "velocity": 0.5275590551181102,
                    "duration": 0.0789472499999988
                },
                {
                    "name": "A4",
                    "midi": 69,
                    "time": 106.42089299999952,
                    "velocity": 0.6062992125984252,
                    "duration": 0.0789472499999988
                },
                {
                    "name": "C4",
                    "midi": 60,
                    "time": 106.42089299999952,
                    "velocity": 0.5275590551181102,
                    "duration": 0.0789472499999988
                },
                {
                    "name": "A3",
                    "midi": 57,
                    "time": 106.73668199999952,
                    "velocity": 0.2992125984251969,
                    "duration": 0.0394736249999994
                },
                {
                    "name": "E4",
                    "midi": 64,
                    "time": 106.81562924999952,
                    "velocity": 0.25196850393700787,
                    "duration": 0.0394736249999994
                },
                {
                    "name": "E3",
                    "midi": 52,
                    "time": 106.89457649999952,
                    "velocity": 0.25196850393700787,
                    "duration": 0.0394736249999994
                },
                {
                    "name": "E4",
                    "midi": 64,
                    "time": 106.97352374999952,
                    "velocity": 0.25196850393700787,
                    "duration": 0.0394736249999994
                },
                {
                    "name": "C4",
                    "midi": 60,
                    "time": 107.05247099999951,
                    "velocity": 0.2677165354330709,
                    "duration": 0.0394736249999994
                },
                {
                    "name": "E4",
                    "midi": 64,
                    "time": 107.13141824999951,
                    "velocity": 0.2440944881889764,
                    "duration": 0.0394736249999994
                },
                {
                    "name": "A3",
                    "midi": 57,
                    "time": 107.21036549999951,
                    "velocity": 0.2283464566929134,
                    "duration": 0.0394736249999994
                },
                {
                    "name": "E4",
                    "midi": 64,
                    "time": 107.28931274999951,
                    "velocity": 0.23622047244094488,
                    "duration": 0.0394736249999994
                },
                {
                    "name": "G#3",
                    "midi": 56,
                    "time": 107.36825999999951,
                    "velocity": 0.2992125984251969,
                    "duration": 0.0394736249999994
                },
                {
                    "name": "E4",
                    "midi": 64,
                    "time": 107.44720724999951,
                    "velocity": 0.25196850393700787,
                    "duration": 0.0394736249999994
                },
                {
                    "name": "E3",
                    "midi": 52,
                    "time": 107.5261544999995,
                    "velocity": 0.25196850393700787,
                    "duration": 0.0394736249999994
                },
                {
                    "name": "E4",
                    "midi": 64,
                    "time": 107.6051017499995,
                    "velocity": 0.25196850393700787,
                    "duration": 0.0394736249999994
                },
                {
                    "name": "G#3",
                    "midi": 56,
                    "time": 107.6840489999995,
                    "velocity": 0.2992125984251969,
                    "duration": 0.0394736249999994
                },
                {
                    "name": "E4",
                    "midi": 64,
                    "time": 107.7629962499995,
                    "velocity": 0.25196850393700787,
                    "duration": 0.0394736249999994
                },
                {
                    "name": "B3",
                    "midi": 59,
                    "time": 107.8419434999995,
                    "velocity": 0.2283464566929134,
                    "duration": 0.0394736249999994
                },
                {
                    "name": "E4",
                    "midi": 64,
                    "time": 107.9208907499995,
                    "velocity": 0.23622047244094488,
                    "duration": 0.0394736249999994
                },
                {
                    "name": "A3",
                    "midi": 57,
                    "time": 107.9998379999995,
                    "velocity": 0.2992125984251969,
                    "duration": 0.0394736249999994
                },
                {
                    "name": "E4",
                    "midi": 64,
                    "time": 108.0787852499995,
                    "velocity": 0.25196850393700787,
                    "duration": 0.0394736249999994
                },
                {
                    "name": "E3",
                    "midi": 52,
                    "time": 108.1577324999995,
                    "velocity": 0.25196850393700787,
                    "duration": 0.0394736249999994
                },
                {
                    "name": "E4",
                    "midi": 64,
                    "time": 108.2366797499995,
                    "velocity": 0.25196850393700787,
                    "duration": 0.0394736249999994
                },
                {
                    "name": "C4",
                    "midi": 60,
                    "time": 108.3156269999995,
                    "velocity": 0.28346456692913385,
                    "duration": 0.0394736249999994
                },
                {
                    "name": "E4",
                    "midi": 64,
                    "time": 108.3945742499995,
                    "velocity": 0.25196850393700787,
                    "duration": 0.0394736249999994
                },
                {
                    "name": "A3",
                    "midi": 57,
                    "time": 108.47352149999949,
                    "velocity": 0.2283464566929134,
                    "duration": 0.0394736249999994
                },
                {
                    "name": "E4",
                    "midi": 64,
                    "time": 108.55246874999949,
                    "velocity": 0.23622047244094488,
                    "duration": 0.0394736249999994
                },
                {
                    "name": "G#3",
                    "midi": 56,
                    "time": 108.63141599999949,
                    "velocity": 0.2992125984251969,
                    "duration": 0.0394736249999994
                },
                {
                    "name": "E4",
                    "midi": 64,
                    "time": 108.71036324999949,
                    "velocity": 0.25196850393700787,
                    "duration": 0.0394736249999994
                },
                {
                    "name": "E3",
                    "midi": 52,
                    "time": 108.78931049999949,
                    "velocity": 0.25196850393700787,
                    "duration": 0.0394736249999994
                },
                {
                    "name": "E4",
                    "midi": 64,
                    "time": 108.86825774999949,
                    "velocity": 0.25196850393700787,
                    "duration": 0.0394736249999994
                },
                {
                    "name": "G#3",
                    "midi": 56,
                    "time": 108.94720499999949,
                    "velocity": 0.2755905511811024,
                    "duration": 0.0394736249999994
                },
                {
                    "name": "B3",
                    "midi": 59,
                    "time": 109.02615224999948,
                    "velocity": 0.2283464566929134,
                    "duration": 0.0394736249999994
                },
                {
                    "name": "E4",
                    "midi": 64,
                    "time": 109.10509949999948,
                    "velocity": 0.30708661417322836,
                    "duration": 0.1578944999999976
                },
                {
                    "name": "A3",
                    "midi": 57,
                    "time": 109.26299399999948,
                    "velocity": 0.2992125984251969,
                    "duration": 0.0394736249999994
                },
                {
                    "name": "E4",
                    "midi": 64,
                    "time": 109.34194124999948,
                    "velocity": 0.25196850393700787,
                    "duration": 0.0394736249999994
                },
                {
                    "name": "E3",
                    "midi": 52,
                    "time": 109.42088849999948,
                    "velocity": 0.25196850393700787,
                    "duration": 0.0394736249999994
                },
                {
                    "name": "E4",
                    "midi": 64,
                    "time": 109.49983574999948,
                    "velocity": 0.25196850393700787,
                    "duration": 0.0394736249999994
                },
                {
                    "name": "C4",
                    "midi": 60,
                    "time": 109.57878299999948,
                    "velocity": 0.2677165354330709,
                    "duration": 0.0394736249999994
                },
                {
                    "name": "E4",
                    "midi": 64,
                    "time": 109.65773024999947,
                    "velocity": 0.2440944881889764,
                    "duration": 0.0394736249999994
                },
                {
                    "name": "A3",
                    "midi": 57,
                    "time": 109.73667749999947,
                    "velocity": 0.2283464566929134,
                    "duration": 0.0394736249999994
                },
                {
                    "name": "E4",
                    "midi": 64,
                    "time": 109.81562474999947,
                    "velocity": 0.23622047244094488,
                    "duration": 0.0394736249999994
                },
                {
                    "name": "G#3",
                    "midi": 56,
                    "time": 109.89457199999947,
                    "velocity": 0.2992125984251969,
                    "duration": 0.0394736249999994
                },
                {
                    "name": "E4",
                    "midi": 64,
                    "time": 109.97351924999947,
                    "velocity": 0.25196850393700787,
                    "duration": 0.0394736249999994
                },
                {
                    "name": "E3",
                    "midi": 52,
                    "time": 110.05246649999947,
                    "velocity": 0.25196850393700787,
                    "duration": 0.0394736249999994
                },
                {
                    "name": "E4",
                    "midi": 64,
                    "time": 110.13141374999947,
                    "velocity": 0.25196850393700787,
                    "duration": 0.0394736249999994
                },
                {
                    "name": "G#3",
                    "midi": 56,
                    "time": 110.21036099999947,
                    "velocity": 0.2992125984251969,
                    "duration": 0.0394736249999994
                },
                {
                    "name": "E4",
                    "midi": 64,
                    "time": 110.28930824999946,
                    "velocity": 0.25196850393700787,
                    "duration": 0.0394736249999994
                },
                {
                    "name": "B3",
                    "midi": 59,
                    "time": 110.36825549999946,
                    "velocity": 0.2283464566929134,
                    "duration": 0.0394736249999994
                },
                {
                    "name": "E4",
                    "midi": 64,
                    "time": 110.44720274999946,
                    "velocity": 0.23622047244094488,
                    "duration": 0.0394736249999994
                },
                {
                    "name": "A3",
                    "midi": 57,
                    "time": 110.52614999999946,
                    "velocity": 0.2992125984251969,
                    "duration": 0.0394736249999994
                },
                {
                    "name": "E4",
                    "midi": 64,
                    "time": 110.60509724999946,
                    "velocity": 0.25196850393700787,
                    "duration": 0.0394736249999994
                },
                {
                    "name": "E3",
                    "midi": 52,
                    "time": 110.68404449999946,
                    "velocity": 0.25196850393700787,
                    "duration": 0.0394736249999994
                },
                {
                    "name": "E4",
                    "midi": 64,
                    "time": 110.76299174999946,
                    "velocity": 0.25196850393700787,
                    "duration": 0.0394736249999994
                },
                {
                    "name": "C4",
                    "midi": 60,
                    "time": 110.84193899999946,
                    "velocity": 0.28346456692913385,
                    "duration": 0.0394736249999994
                },
                {
                    "name": "E4",
                    "midi": 64,
                    "time": 110.92088624999946,
                    "velocity": 0.25196850393700787,
                    "duration": 0.0394736249999994
                },
                {
                    "name": "A3",
                    "midi": 57,
                    "time": 110.99983349999945,
                    "velocity": 0.2283464566929134,
                    "duration": 0.0394736249999994
                },
                {
                    "name": "E4",
                    "midi": 64,
                    "time": 111.07878074999945,
                    "velocity": 0.23622047244094488,
                    "duration": 0.0394736249999994
                },
                {
                    "name": "G#3",
                    "midi": 56,
                    "time": 111.15772799999945,
                    "velocity": 0.2992125984251969,
                    "duration": 0.0394736249999994
                },
                {
                    "name": "E4",
                    "midi": 64,
                    "time": 111.23667524999945,
                    "velocity": 0.25196850393700787,
                    "duration": 0.0394736249999994
                },
                {
                    "name": "E3",
                    "midi": 52,
                    "time": 111.31562249999945,
                    "velocity": 0.25196850393700787,
                    "duration": 0.0394736249999994
                },
                {
                    "name": "E4",
                    "midi": 64,
                    "time": 111.39456974999945,
                    "velocity": 0.25196850393700787,
                    "duration": 0.0394736249999994
                },
                {
                    "name": "B3",
                    "midi": 59,
                    "time": 111.47351699999945,
                    "velocity": 0.25984251968503935,
                    "duration": 0.0394736249999994
                },
                {
                    "name": "G#4",
                    "midi": 68,
                    "time": 111.55246424999945,
                    "velocity": 0.2047244094488189,
                    "duration": 0.0394736249999994
                },
                {
                    "name": "E4",
                    "midi": 64,
                    "time": 111.63141149999944,
                    "velocity": 0.25196850393700787,
                    "duration": 0.1578944999999976
                },
                {
                    "name": "C#4",
                    "midi": 61,
                    "time": 111.78930599999944,
                    "velocity": 0.3858267716535433,
                    "duration": 0.0789472499999988
                },
                {
                    "name": "A4",
                    "midi": 69,
                    "time": 111.86825324999944,
                    "velocity": 0.3228346456692913,
                    "duration": 0.0789472499999988
                },
                {
                    "name": "A3",
                    "midi": 57,
                    "time": 111.94720049999944,
                    "velocity": 0.3228346456692913,
                    "duration": 0.0789472499999988
                },
                {
                    "name": "A4",
                    "midi": 69,
                    "time": 112.02614774999944,
                    "velocity": 0.3228346456692913,
                    "duration": 0.0789472499999988
                },
                {
                    "name": "C#5",
                    "midi": 73,
                    "time": 112.10509499999944,
                    "velocity": 0.3464566929133858,
                    "duration": 0.0394736249999994
                },
                {
                    "name": "D3",
                    "midi": 50,
                    "time": 112.42088399999943,
                    "velocity": 0.4251968503937008,
                    "duration": 0.1578944999999976
                },
                {
                    "name": "A3",
                    "midi": 57,
                    "time": 112.42088399999943,
                    "velocity": 0.4251968503937008,
                    "duration": 0.1578944999999976
                },
                {
                    "name": "F5",
                    "midi": 77,
                    "time": 112.73667299999943,
                    "velocity": 0.4409448818897638,
                    "duration": 0.0394736249999994
                },
                {
                    "name": "D5",
                    "midi": 74,
                    "time": 112.81562024999943,
                    "velocity": 0.3858267716535433,
                    "duration": 0.0394736249999994
                },
                {
                    "name": "B3",
                    "midi": 59,
                    "time": 113.05246199999942,
                    "velocity": 0.36220472440944884,
                    "duration": 0.0789472499999988
                },
                {
                    "name": "G4",
                    "midi": 67,
                    "time": 113.13140924999942,
                    "velocity": 0.2992125984251969,
                    "duration": 0.0789472499999988
                },
                {
                    "name": "G3",
                    "midi": 55,
                    "time": 113.21035649999942,
                    "velocity": 0.2992125984251969,
                    "duration": 0.0789472499999988
                },
                {
                    "name": "G4",
                    "midi": 67,
                    "time": 113.28930374999942,
                    "velocity": 0.2992125984251969,
                    "duration": 0.0789472499999988
                },
                {
                    "name": "D5",
                    "midi": 74,
                    "time": 113.36825099999942,
                    "velocity": 0.3228346456692913,
                    "duration": 0.0394736249999994
                },
                {
                    "name": "C3",
                    "midi": 48,
                    "time": 113.68403999999941,
                    "velocity": 0.4015748031496063,
                    "duration": 0.1578944999999976
                },
                {
                    "name": "G3",
                    "midi": 55,
                    "time": 113.68403999999941,
                    "velocity": 0.4015748031496063,
                    "duration": 0.1578944999999976
                },
                {
                    "name": "E5",
                    "midi": 76,
                    "time": 113.99982899999941,
                    "velocity": 0.41732283464566927,
                    "duration": 0.0394736249999994
                },
                {
                    "name": "C5",
                    "midi": 72,
                    "time": 114.07877624999941,
                    "velocity": 0.36220472440944884,
                    "duration": 0.0394736249999994
                },
                {
                    "name": "F4",
                    "midi": 65,
                    "time": 114.3156179999994,
                    "velocity": 0.2992125984251969,
                    "duration": 0.1578944999999976
                },
                {
                    "name": "G#3",
                    "midi": 56,
                    "time": 114.3156179999994,
                    "velocity": 0.25196850393700787,
                    "duration": 0.1578944999999976
                },
                {
                    "name": "D4",
                    "midi": 62,
                    "time": 114.3156179999994,
                    "velocity": 0.25196850393700787,
                    "duration": 0.1578944999999976
                },
                {
                    "name": "E4",
                    "midi": 64,
                    "time": 114.94719599999941,
                    "velocity": 0.2992125984251969,
                    "duration": 0.1578944999999976
                },
                {
                    "name": "C4",
                    "midi": 60,
                    "time": 114.94719599999941,
                    "velocity": 0.25196850393700787,
                    "duration": 0.1578944999999976
                },
                {
                    "name": "F4",
                    "midi": 65,
                    "time": 115.1050904999994,
                    "velocity": 0.3543307086614173,
                    "duration": 0.0394736249999994
                },
                {
                    "name": "D4",
                    "midi": 62,
                    "time": 115.2629849999994,
                    "velocity": 0.3543307086614173,
                    "duration": 0.0394736249999994
                },
                {
                    "name": "B3",
                    "midi": 59,
                    "time": 115.4208794999994,
                    "velocity": 0.3543307086614173,
                    "duration": 0.0394736249999994
                },
                {
                    "name": "F4",
                    "midi": 65,
                    "time": 115.5787739999994,
                    "velocity": 0.3543307086614173,
                    "duration": 0.0394736249999994
                },
                {
                    "name": "D3",
                    "midi": 50,
                    "time": 115.6577212499994,
                    "velocity": 0.3543307086614173,
                    "duration": 0.0394736249999994
                },
                {
                    "name": "G#4",
                    "midi": 68,
                    "time": 115.8945629999994,
                    "velocity": 0.3543307086614173,
                    "duration": 0.0394736249999994
                },
                {
                    "name": "E3",
                    "midi": 52,
                    "time": 115.97351024999939,
                    "velocity": 0.3543307086614173,
                    "duration": 0.0394736249999994
                },
                {
                    "name": "A4",
                    "midi": 69,
                    "time": 116.28929924999939,
                    "velocity": 0.33070866141732286,
                    "duration": 0.0394736249999994
                },
                {
                    "name": "E4",
                    "midi": 64,
                    "time": 116.28929924999939,
                    "velocity": 0.2755905511811024,
                    "duration": 0.0394736249999994
                },
                {
                    "name": "A2",
                    "midi": 45,
                    "time": 116.52614099999938,
                    "velocity": 0.2992125984251969,
                    "duration": 0.1578944999999976
                },
                {
                    "name": "A4",
                    "midi": 69,
                    "time": 116.84192999999938,
                    "velocity": 0.2992125984251969,
                    "duration": 1.263155999999995
                },
                {
                    "name": "A4",
                    "midi": 69,
                    "time": 118.10508599999937,
                    "velocity": 0.2992125984251969,
                    "duration": 1.2631560000000235
                },
                {
                    "name": "D5",
                    "midi": 74,
                    "time": 118.10508599999937,
                    "velocity": 0.2992125984251969,
                    "duration": 1.2631560000000235
                },
                {
                    "name": "C5",
                    "midi": 72,
                    "time": 119.3682419999994,
                    "velocity": 0.2992125984251969,
                    "duration": 1.2631560000000093
                },
                {
                    "name": "A4",
                    "midi": 69,
                    "time": 119.3682419999994,
                    "velocity": 0.2992125984251969,
                    "duration": 1.2631560000000093
                },
                {
                    "name": "B4",
                    "midi": 71,
                    "time": 120.63139799999941,
                    "velocity": 0.2992125984251969,
                    "duration": 1.2631559999999808
                },
                {
                    "name": "A4",
                    "midi": 69,
                    "time": 120.63139799999941,
                    "velocity": 0.2992125984251969,
                    "duration": 1.2631559999999808
                },
                {
                    "name": "A4",
                    "midi": 69,
                    "time": 121.89455399999939,
                    "velocity": 0.2992125984251969,
                    "duration": 1.263155999999995
                },
                {
                    "name": "A4",
                    "midi": 69,
                    "time": 123.15770999999938,
                    "velocity": 0.2992125984251969,
                    "duration": 1.2631560000000235
                },
                {
                    "name": "D5",
                    "midi": 74,
                    "time": 123.15770999999938,
                    "velocity": 0.2992125984251969,
                    "duration": 1.2631560000000235
                },
                {
                    "name": "A4",
                    "midi": 69,
                    "time": 124.4208659999994,
                    "velocity": 0.2992125984251969,
                    "duration": 1.2631560000000093
                },
                {
                    "name": "C5",
                    "midi": 72,
                    "time": 124.4208659999994,
                    "velocity": 0.2992125984251969,
                    "duration": 1.2631560000000093
                },
                {
                    "name": "B4",
                    "midi": 71,
                    "time": 125.68402199999942,
                    "velocity": 0.2992125984251969,
                    "duration": 1.2631559999999808
                },
                {
                    "name": "A4",
                    "midi": 69,
                    "time": 125.68402199999942,
                    "velocity": 0.2992125984251969,
                    "duration": 1.2631559999999808
                },
                {
                    "name": "A4",
                    "midi": 69,
                    "time": 126.9471779999994,
                    "velocity": 0.2992125984251969,
                    "duration": 0.6315780000000046
                },
                {
                    "name": "A5",
                    "midi": 81,
                    "time": 128.6840174999994,
                    "velocity": 0.3937007874015748,
                    "duration": 0.1578944999999976
                },
                {
                    "name": "G5",
                    "midi": 79,
                    "time": 128.8419119999994,
                    "velocity": 0.3937007874015748,
                    "duration": 0.1578944999999976
                },
                {
                    "name": "F5",
                    "midi": 77,
                    "time": 128.9998064999994,
                    "velocity": 0.3858267716535433,
                    "duration": 0.1578944999999976
                },
                {
                    "name": "E5",
                    "midi": 76,
                    "time": 129.1577009999994,
                    "velocity": 0.3779527559055118,
                    "duration": 0.1578944999999976
                },
                {
                    "name": "D5",
                    "midi": 74,
                    "time": 129.3155954999994,
                    "velocity": 0.36220472440944884,
                    "duration": 0.1578944999999976
                },
                {
                    "name": "B4",
                    "midi": 71,
                    "time": 129.4734899999994,
                    "velocity": 0.2992125984251969,
                    "duration": 0.6315779999999904
                },
                {
                    "name": "G5",
                    "midi": 79,
                    "time": 131.21032949999938,
                    "velocity": 0.3937007874015748,
                    "duration": 0.1578944999999976
                },
                {
                    "name": "F5",
                    "midi": 77,
                    "time": 131.36822399999937,
                    "velocity": 0.3937007874015748,
                    "duration": 0.1578944999999976
                },
                {
                    "name": "E5",
                    "midi": 76,
                    "time": 131.52611849999937,
                    "velocity": 0.3858267716535433,
                    "duration": 0.1578944999999976
                },
                {
                    "name": "D5",
                    "midi": 74,
                    "time": 131.68401299999937,
                    "velocity": 0.3779527559055118,
                    "duration": 0.1578944999999976
                },
                {
                    "name": "C5",
                    "midi": 72,
                    "time": 131.84190749999937,
                    "velocity": 0.36220472440944884,
                    "duration": 0.1578944999999976
                },
                {
                    "name": "G#4",
                    "midi": 68,
                    "time": 131.99980199999936,
                    "velocity": 0.28346456692913385,
                    "duration": 0.6315780000000188
                },
                {
                    "name": "D5",
                    "midi": 74,
                    "time": 131.99980199999936,
                    "velocity": 0.2992125984251969,
                    "duration": 0.6315780000000188
                },
                {
                    "name": "E6",
                    "midi": 88,
                    "time": 133.5787469999994,
                    "velocity": 0.3858267716535433,
                    "duration": 0.1578944999999976
                },
                {
                    "name": "G#5",
                    "midi": 80,
                    "time": 133.5787469999994,
                    "velocity": 0.3228346456692913,
                    "duration": 0.1578944999999976
                },
                {
                    "name": "E6",
                    "midi": 88,
                    "time": 133.8945359999994,
                    "velocity": 0.3700787401574803,
                    "duration": 0.1578944999999976
                },
                {
                    "name": "A5",
                    "midi": 81,
                    "time": 133.8945359999994,
                    "velocity": 0.31496062992125984,
                    "duration": 0.1578944999999976
                },
                {
                    "name": "E6",
                    "midi": 88,
                    "time": 134.2103249999994,
                    "velocity": 0.3700787401574803,
                    "duration": 0.1578944999999976
                },
                {
                    "name": "C#6",
                    "midi": 85,
                    "time": 134.2103249999994,
                    "velocity": 0.31496062992125984,
                    "duration": 0.1578944999999976
                },
                {
                    "name": "F6",
                    "midi": 89,
                    "time": 134.52611399999938,
                    "velocity": 0.3858267716535433,
                    "duration": 0.15789450000002603
                },
                {
                    "name": "D6",
                    "midi": 86,
                    "time": 134.52611399999938,
                    "velocity": 0.3228346456692913,
                    "duration": 0.15789450000002603
                },
                {
                    "name": "E5",
                    "midi": 76,
                    "time": 135.1576919999994,
                    "velocity": 0.28346456692913385,
                    "duration": 0.15789450000002603
                },
                {
                    "name": "D6",
                    "midi": 86,
                    "time": 135.1576919999994,
                    "velocity": 0.3464566929133858,
                    "duration": 0.15789450000002603
                },
                {
                    "name": "C6",
                    "midi": 84,
                    "time": 135.78926999999942,
                    "velocity": 0.31496062992125984,
                    "duration": 1.2631559999999524
                },
                {
                    "name": "A5",
                    "midi": 81,
                    "time": 135.78926999999942,
                    "velocity": 0.2677165354330709,
                    "duration": 1.2631559999999524
                },
                {
                    "name": "E2",
                    "midi": 40,
                    "time": 136.8945314999994,
                    "velocity": 0.5433070866141733,
                    "duration": 0.05263149999998973
                },
                {
                    "name": "F#2",
                    "midi": 42,
                    "time": 136.9471629999994,
                    "velocity": 0.5826771653543307,
                    "duration": 0.05263149999998973
                },
                {
                    "name": "G#2",
                    "midi": 44,
                    "time": 136.99979449999938,
                    "velocity": 0.6220472440944882,
                    "duration": 0.05263149999998973
                },
                {
                    "name": "A2",
                    "midi": 45,
                    "time": 137.05242599999937,
                    "velocity": 0.6377952755905512,
                    "duration": 0.3157889999999952
                },
                {
                    "name": "A1",
                    "midi": 33,
                    "time": 137.05242599999937,
                    "velocity": 0.5433070866141733,
                    "duration": 0.3157889999999952
                },
                {
                    "name": "A3",
                    "midi": 57,
                    "time": 137.21032049999937,
                    "velocity": 0.6220472440944882,
                    "duration": 0.1578944999999976
                },
                {
                    "name": "C3",
                    "midi": 48,
                    "time": 137.36821499999937,
                    "velocity": 0.6456692913385826,
                    "duration": 0.3157889999999952
                },
                {
                    "name": "C2",
                    "midi": 36,
                    "time": 137.36821499999937,
                    "velocity": 0.5433070866141733,
                    "duration": 0.3157889999999952
                },
                {
                    "name": "C4",
                    "midi": 60,
                    "time": 137.52610949999936,
                    "velocity": 0.6220472440944882,
                    "duration": 0.1578944999999976
                },
                {
                    "name": "B2",
                    "midi": 47,
                    "time": 137.68400399999936,
                    "velocity": 0.6456692913385826,
                    "duration": 0.3157889999999952
                },
                {
                    "name": "B1",
                    "midi": 35,
                    "time": 137.68400399999936,
                    "velocity": 0.5433070866141733,
                    "duration": 0.3157889999999952
                },
                {
                    "name": "B3",
                    "midi": 59,
                    "time": 137.84189849999936,
                    "velocity": 0.6062992125984252,
                    "duration": 0.1578944999999976
                },
                {
                    "name": "A2",
                    "midi": 45,
                    "time": 137.99979299999936,
                    "velocity": 0.6377952755905512,
                    "duration": 0.31578900000002363
                },
                {
                    "name": "A1",
                    "midi": 33,
                    "time": 137.99979299999936,
                    "velocity": 0.5433070866141733,
                    "duration": 0.31578900000002363
                },
                {
                    "name": "A3",
                    "midi": 57,
                    "time": 138.15768749999938,
                    "velocity": 0.6062992125984252,
                    "duration": 0.1578944999999976
                },
                {
                    "name": "G#1",
                    "midi": 32,
                    "time": 138.3682134999994,
                    "velocity": 0.4566929133858268,
                    "duration": 0.05263149999998973
                },
                {
                    "name": "B1",
                    "midi": 35,
                    "time": 138.4208449999994,
                    "velocity": 0.4645669291338583,
                    "duration": 0.05263149999998973
                },
                {
                    "name": "E2",
                    "midi": 40,
                    "time": 138.47347649999938,
                    "velocity": 0.47244094488188976,
                    "duration": 0.05263149999998973
                },
                {
                    "name": "G#2",
                    "midi": 44,
                    "time": 138.52610799999937,
                    "velocity": 0.48031496062992124,
                    "duration": 0.05263149999998973
                },
                {
                    "name": "B2",
                    "midi": 47,
                    "time": 138.57873949999936,
                    "velocity": 0.4881889763779528,
                    "duration": 0.05263149999998973
                },
                {
                    "name": "E3",
                    "midi": 52,
                    "time": 138.63137099999935,
                    "velocity": 0.5039370078740157,
                    "duration": 0.05263149999998973
                },
                {
                    "name": "G#3",
                    "midi": 56,
                    "time": 138.68400249999934,
                    "velocity": 0.49606299212598426,
                    "duration": 0.05263149999998973
                },
                {
                    "name": "B3",
                    "midi": 59,
                    "time": 138.73663399999933,
                    "velocity": 0.5196850393700787,
                    "duration": 0.05263149999998973
                },
                {
                    "name": "E4",
                    "midi": 64,
                    "time": 138.78926549999932,
                    "velocity": 0.5275590551181102,
                    "duration": 0.05263149999998973
                },
                {
                    "name": "G#4",
                    "midi": 68,
                    "time": 138.8418969999993,
                    "velocity": 0.5354330708661418,
                    "duration": 0.05263149999998973
                },
                {
                    "name": "B4",
                    "midi": 71,
                    "time": 138.8945284999993,
                    "velocity": 0.5433070866141733,
                    "duration": 0.05263149999998973
                },
                {
                    "name": "E5",
                    "midi": 76,
                    "time": 138.9471599999993,
                    "velocity": 0.5748031496062992,
                    "duration": 0.05263149999998973
                },
                {
                    "name": "B4",
                    "midi": 71,
                    "time": 138.99979149999928,
                    "velocity": 0.5511811023622047,
                    "duration": 0.05263149999998973
                },
                {
                    "name": "G#4",
                    "midi": 68,
                    "time": 139.05242299999927,
                    "velocity": 0.5511811023622047,
                    "duration": 0.05263149999998973
                },
                {
                    "name": "E4",
                    "midi": 64,
                    "time": 139.10505449999926,
                    "velocity": 0.5433070866141733,
                    "duration": 0.05263150000001815
                },
                {
                    "name": "B3",
                    "midi": 59,
                    "time": 139.15768599999927,
                    "velocity": 0.5433070866141733,
                    "duration": 0.05263149999998973
                },
                {
                    "name": "G#3",
                    "midi": 56,
                    "time": 139.21031749999926,
                    "velocity": 0.5354330708661418,
                    "duration": 0.05263149999998973
                },
                {
                    "name": "E3",
                    "midi": 52,
                    "time": 139.26294899999925,
                    "velocity": 0.5275590551181102,
                    "duration": 0.05263149999998973
                },
                {
                    "name": "B2",
                    "midi": 47,
                    "time": 139.31558049999924,
                    "velocity": 0.5196850393700787,
                    "duration": 0.05263149999998973
                },
                {
                    "name": "G#2",
                    "midi": 44,
                    "time": 139.36821199999923,
                    "velocity": 0.5039370078740157,
                    "duration": 0.05263149999998973
                },
                {
                    "name": "E2",
                    "midi": 40,
                    "time": 139.42084349999922,
                    "velocity": 0.49606299212598426,
                    "duration": 0.05263149999998973
                },
                {
                    "name": "B1",
                    "midi": 35,
                    "time": 139.4734749999992,
                    "velocity": 0.4881889763779528,
                    "duration": 0.05263149999998973
                },
                {
                    "name": "G#1",
                    "midi": 32,
                    "time": 139.5261064999992,
                    "velocity": 0.48031496062992124,
                    "duration": 0.05263149999998973
                },
                {
                    "name": "A1",
                    "midi": 33,
                    "time": 139.5787379999992,
                    "velocity": 0.5433070866141733,
                    "duration": 0.3157889999999952
                },
                {
                    "name": "A2",
                    "midi": 45,
                    "time": 139.5787379999992,
                    "velocity": 0.6377952755905512,
                    "duration": 0.3157889999999952
                },
                {
                    "name": "A3",
                    "midi": 57,
                    "time": 139.7366324999992,
                    "velocity": 0.6220472440944882,
                    "duration": 0.1578944999999976
                },
                {
                    "name": "C3",
                    "midi": 48,
                    "time": 139.8945269999992,
                    "velocity": 0.6456692913385826,
                    "duration": 0.3157889999999952
                },
                {
                    "name": "C2",
                    "midi": 36,
                    "time": 139.8945269999992,
                    "velocity": 0.5433070866141733,
                    "duration": 0.3157889999999952
                },
                {
                    "name": "C4",
                    "midi": 60,
                    "time": 140.05242149999918,
                    "velocity": 0.6220472440944882,
                    "duration": 0.1578944999999976
                },
                {
                    "name": "B2",
                    "midi": 47,
                    "time": 140.21031599999918,
                    "velocity": 0.6456692913385826,
                    "duration": 0.3157889999999952
                },
                {
                    "name": "B1",
                    "midi": 35,
                    "time": 140.21031599999918,
                    "velocity": 0.5433070866141733,
                    "duration": 0.3157889999999952
                },
                {
                    "name": "B3",
                    "midi": 59,
                    "time": 140.36821049999918,
                    "velocity": 0.6062992125984252,
                    "duration": 0.1578944999999976
                },
                {
                    "name": "A2",
                    "midi": 45,
                    "time": 140.52610499999918,
                    "velocity": 0.6377952755905512,
                    "duration": 0.31578900000002363
                },
                {
                    "name": "A1",
                    "midi": 33,
                    "time": 140.52610499999918,
                    "velocity": 0.5433070866141733,
                    "duration": 0.31578900000002363
                },
                {
                    "name": "A3",
                    "midi": 57,
                    "time": 140.6839994999992,
                    "velocity": 0.6062992125984252,
                    "duration": 0.1578944999999976
                },
                {
                    "name": "E3",
                    "midi": 52,
                    "time": 140.8418939999992,
                    "velocity": 0.5511811023622047,
                    "duration": 0.0789472499999988
                },
                {
                    "name": "E2",
                    "midi": 40,
                    "time": 140.8418939999992,
                    "velocity": 0.4645669291338583,
                    "duration": 0.0789472499999988
                },
                {
                    "name": "B2",
                    "midi": 47,
                    "time": 140.8418939999992,
                    "velocity": 0.4645669291338583,
                    "duration": 0.0789472499999988
                },
                {
                    "name": "E3",
                    "midi": 52,
                    "time": 140.9208412499992,
                    "velocity": 0.4015748031496063,
                    "duration": 0.0789472499999988
                },
                {
                    "name": "F3",
                    "midi": 53,
                    "time": 140.9997884999992,
                    "velocity": 0.4094488188976378,
                    "duration": 0.0789472499999988
                },
                {
                    "name": "F#3",
                    "midi": 54,
                    "time": 141.0787357499992,
                    "velocity": 0.4330708661417323,
                    "duration": 0.0789472499999988
                },
                {
                    "name": "G3",
                    "midi": 55,
                    "time": 141.1576829999992,
                    "velocity": 0.44881889763779526,
                    "duration": 0.0789472499999988
                },
                {
                    "name": "G#3",
                    "midi": 56,
                    "time": 141.2366302499992,
                    "velocity": 0.4645669291338583,
                    "duration": 0.0789472499999988
                },
                {
                    "name": "A3",
                    "midi": 57,
                    "time": 141.3155774999992,
                    "velocity": 0.48031496062992124,
                    "duration": 0.0789472499999988
                },
                {
                    "name": "A#3",
                    "midi": 58,
                    "time": 141.3945247499992,
                    "velocity": 0.4881889763779528,
                    "duration": 0.0789472499999988
                },
                {
                    "name": "B3",
                    "midi": 59,
                    "time": 141.4734719999992,
                    "velocity": 0.5039370078740157,
                    "duration": 0.0789472499999988
                },
                {
                    "name": "C4",
                    "midi": 60,
                    "time": 141.5524192499992,
                    "velocity": 0.5275590551181102,
                    "duration": 0.0789472499999988
                },
                {
                    "name": "C#4",
                    "midi": 61,
                    "time": 141.6313664999992,
                    "velocity": 0.5433070866141733,
                    "duration": 0.0789472499999988
                },
                {
                    "name": "D4",
                    "midi": 62,
                    "time": 141.7103137499992,
                    "velocity": 0.5590551181102362,
                    "duration": 0.0789472499999988
                },
                {
                    "name": "D#4",
                    "midi": 63,
                    "time": 141.7892609999992,
                    "velocity": 0.5748031496062992,
                    "duration": 0.0789472499999988
                },
                {
                    "name": "E4",
                    "midi": 64,
                    "time": 141.86820824999918,
                    "velocity": 0.5905511811023622,
                    "duration": 0.0789472499999988
                },
                {
                    "name": "F4",
                    "midi": 65,
                    "time": 141.94715549999918,
                    "velocity": 0.5748031496062992,
                    "duration": 0.0789472499999988
                },
                {
                    "name": "E4",
                    "midi": 64,
                    "time": 142.02610274999918,
                    "velocity": 0.5275590551181102,
                    "duration": 0.05921043750001331
                },
                {
                    "name": "E2",
                    "midi": 40,
                    "time": 142.1050499999992,
                    "velocity": 0.5433070866141733,
                    "duration": 0.05263149999998973
                },
                {
                    "name": "F#2",
                    "midi": 42,
                    "time": 142.1576814999992,
                    "velocity": 0.5826771653543307,
                    "duration": 0.05263149999998973
                },
                {
                    "name": "G#2",
                    "midi": 44,
                    "time": 142.2103129999992,
                    "velocity": 0.6220472440944882,
                    "duration": 0.05263149999998973
                },
                {
                    "name": "A2",
                    "midi": 45,
                    "time": 142.26294449999918,
                    "velocity": 0.6377952755905512,
                    "duration": 0.3157889999999952
                },
                {
                    "name": "A1",
                    "midi": 33,
                    "time": 142.26294449999918,
                    "velocity": 0.5433070866141733,
                    "duration": 0.3157889999999952
                },
                {
                    "name": "A3",
                    "midi": 57,
                    "time": 142.42083899999918,
                    "velocity": 0.6220472440944882,
                    "duration": 0.1578944999999976
                },
                {
                    "name": "C3",
                    "midi": 48,
                    "time": 142.57873349999917,
                    "velocity": 0.6456692913385826,
                    "duration": 0.3157889999999952
                },
                {
                    "name": "C2",
                    "midi": 36,
                    "time": 142.57873349999917,
                    "velocity": 0.5433070866141733,
                    "duration": 0.3157889999999952
                },
                {
                    "name": "C4",
                    "midi": 60,
                    "time": 142.73662799999917,
                    "velocity": 0.6220472440944882,
                    "duration": 0.1578944999999976
                },
                {
                    "name": "B2",
                    "midi": 47,
                    "time": 142.89452249999917,
                    "velocity": 0.6456692913385826,
                    "duration": 0.3157889999999952
                },
                {
                    "name": "B1",
                    "midi": 35,
                    "time": 142.89452249999917,
                    "velocity": 0.5433070866141733,
                    "duration": 0.3157889999999952
                },
                {
                    "name": "B3",
                    "midi": 59,
                    "time": 143.05241699999917,
                    "velocity": 0.6062992125984252,
                    "duration": 0.1578944999999976
                },
                {
                    "name": "A2",
                    "midi": 45,
                    "time": 143.21031149999916,
                    "velocity": 0.6377952755905512,
                    "duration": 0.31578900000002363
                },
                {
                    "name": "A1",
                    "midi": 33,
                    "time": 143.21031149999916,
                    "velocity": 0.5433070866141733,
                    "duration": 0.31578900000002363
                },
                {
                    "name": "A3",
                    "midi": 57,
                    "time": 143.3682059999992,
                    "velocity": 0.6062992125984252,
                    "duration": 0.1578944999999976
                },
                {
                    "name": "G#1",
                    "midi": 32,
                    "time": 143.5787319999992,
                    "velocity": 0.4566929133858268,
                    "duration": 0.05263149999998973
                },
                {
                    "name": "B1",
                    "midi": 35,
                    "time": 143.6313634999992,
                    "velocity": 0.4645669291338583,
                    "duration": 0.05263149999998973
                },
                {
                    "name": "E2",
                    "midi": 40,
                    "time": 143.6839949999992,
                    "velocity": 0.47244094488188976,
                    "duration": 0.05263149999998973
                },
                {
                    "name": "G#2",
                    "midi": 44,
                    "time": 143.73662649999918,
                    "velocity": 0.48031496062992124,
                    "duration": 0.05263149999998973
                },
                {
                    "name": "B2",
                    "midi": 47,
                    "time": 143.78925799999917,
                    "velocity": 0.4881889763779528,
                    "duration": 0.05263149999998973
                },
                {
                    "name": "E3",
                    "midi": 52,
                    "time": 143.84188949999916,
                    "velocity": 0.5039370078740157,
                    "duration": 0.05263149999998973
                },
                {
                    "name": "G#3",
                    "midi": 56,
                    "time": 143.89452099999914,
                    "velocity": 0.49606299212598426,
                    "duration": 0.05263149999998973
                },
                {
                    "name": "B3",
                    "midi": 59,
                    "time": 143.94715249999913,
                    "velocity": 0.5196850393700787,
                    "duration": 0.05263149999998973
                },
                {
                    "name": "E4",
                    "midi": 64,
                    "time": 143.99978399999912,
                    "velocity": 0.5275590551181102,
                    "duration": 0.05263149999998973
                },
                {
                    "name": "G#4",
                    "midi": 68,
                    "time": 144.0524154999991,
                    "velocity": 0.5354330708661418,
                    "duration": 0.05263149999998973
                },
                {
                    "name": "B4",
                    "midi": 71,
                    "time": 144.1050469999991,
                    "velocity": 0.5433070866141733,
                    "duration": 0.05263149999998973
                },
                {
                    "name": "E5",
                    "midi": 76,
                    "time": 144.1576784999991,
                    "velocity": 0.5748031496062992,
                    "duration": 0.05263149999998973
                },
                {
                    "name": "B4",
                    "midi": 71,
                    "time": 144.21030999999908,
                    "velocity": 0.5511811023622047,
                    "duration": 0.05263149999998973
                },
                {
                    "name": "G#4",
                    "midi": 68,
                    "time": 144.26294149999907,
                    "velocity": 0.5511811023622047,
                    "duration": 0.05263149999998973
                },
                {
                    "name": "E4",
                    "midi": 64,
                    "time": 144.31557299999906,
                    "velocity": 0.5433070866141733,
                    "duration": 0.05263149999998973
                },
                {
                    "name": "B3",
                    "midi": 59,
                    "time": 144.36820449999905,
                    "velocity": 0.5433070866141733,
                    "duration": 0.05263149999998973
                },
                {
                    "name": "G#3",
                    "midi": 56,
                    "time": 144.42083599999904,
                    "velocity": 0.5354330708661418,
                    "duration": 0.05263149999998973
                },
                {
                    "name": "E3",
                    "midi": 52,
                    "time": 144.47346749999903,
                    "velocity": 0.5275590551181102,
                    "duration": 0.05263149999998973
                },
                {
                    "name": "B2",
                    "midi": 47,
                    "time": 144.52609899999902,
                    "velocity": 0.5196850393700787,
                    "duration": 0.05263149999998973
                },
                {
                    "name": "G#2",
                    "midi": 44,
                    "time": 144.578730499999,
                    "velocity": 0.5039370078740157,
                    "duration": 0.05263149999998973
                },
                {
                    "name": "E2",
                    "midi": 40,
                    "time": 144.631361999999,
                    "velocity": 0.49606299212598426,
                    "duration": 0.05263149999998973
                },
                {
                    "name": "B1",
                    "midi": 35,
                    "time": 144.683993499999,
                    "velocity": 0.4881889763779528,
                    "duration": 0.05263149999998973
                },
                {
                    "name": "G#1",
                    "midi": 32,
                    "time": 144.73662499999898,
                    "velocity": 0.48031496062992124,
                    "duration": 0.05263149999998973
                },
                {
                    "name": "A1",
                    "midi": 33,
                    "time": 144.78925649999897,
                    "velocity": 0.5433070866141733,
                    "duration": 0.3157889999999952
                },
                {
                    "name": "A2",
                    "midi": 45,
                    "time": 144.78925649999897,
                    "velocity": 0.6377952755905512,
                    "duration": 0.3157889999999952
                },
                {
                    "name": "A3",
                    "midi": 57,
                    "time": 144.94715099999897,
                    "velocity": 0.6220472440944882,
                    "duration": 0.1578944999999976
                },
                {
                    "name": "C3",
                    "midi": 48,
                    "time": 145.10504549999897,
                    "velocity": 0.6456692913385826,
                    "duration": 0.3157889999999952
                },
                {
                    "name": "C2",
                    "midi": 36,
                    "time": 145.10504549999897,
                    "velocity": 0.5433070866141733,
                    "duration": 0.3157889999999952
                },
                {
                    "name": "C4",
                    "midi": 60,
                    "time": 145.26293999999896,
                    "velocity": 0.6220472440944882,
                    "duration": 0.1578944999999976
                },
                {
                    "name": "B2",
                    "midi": 47,
                    "time": 145.42083449999896,
                    "velocity": 0.6456692913385826,
                    "duration": 0.3157889999999952
                },
                {
                    "name": "B1",
                    "midi": 35,
                    "time": 145.42083449999896,
                    "velocity": 0.5433070866141733,
                    "duration": 0.3157889999999952
                },
                {
                    "name": "B3",
                    "midi": 59,
                    "time": 145.57872899999896,
                    "velocity": 0.6062992125984252,
                    "duration": 0.1578944999999976
                },
                {
                    "name": "A2",
                    "midi": 45,
                    "time": 145.73662349999896,
                    "velocity": 0.6377952755905512,
                    "duration": 0.31578900000002363
                },
                {
                    "name": "A1",
                    "midi": 33,
                    "time": 145.73662349999896,
                    "velocity": 0.5433070866141733,
                    "duration": 0.31578900000002363
                },
                {
                    "name": "A3",
                    "midi": 57,
                    "time": 145.89451799999898,
                    "velocity": 0.6062992125984252,
                    "duration": 0.1578944999999976
                },
                {
                    "name": "E3",
                    "midi": 52,
                    "time": 146.05241249999898,
                    "velocity": 0.5511811023622047,
                    "duration": 0.0789472499999988
                },
                {
                    "name": "E2",
                    "midi": 40,
                    "time": 146.05241249999898,
                    "velocity": 0.4645669291338583,
                    "duration": 0.0789472499999988
                },
                {
                    "name": "B2",
                    "midi": 47,
                    "time": 146.05241249999898,
                    "velocity": 0.4645669291338583,
                    "duration": 0.0789472499999988
                },
                {
                    "name": "E3",
                    "midi": 52,
                    "time": 146.13135974999898,
                    "velocity": 0.4015748031496063,
                    "duration": 0.0789472499999988
                },
                {
                    "name": "F3",
                    "midi": 53,
                    "time": 146.21030699999898,
                    "velocity": 0.4094488188976378,
                    "duration": 0.0789472499999988
                },
                {
                    "name": "F#3",
                    "midi": 54,
                    "time": 146.28925424999898,
                    "velocity": 0.4330708661417323,
                    "duration": 0.0789472499999988
                },
                {
                    "name": "G3",
                    "midi": 55,
                    "time": 146.36820149999897,
                    "velocity": 0.44881889763779526,
                    "duration": 0.0789472499999988
                },
                {
                    "name": "G#3",
                    "midi": 56,
                    "time": 146.44714874999897,
                    "velocity": 0.4645669291338583,
                    "duration": 0.0789472499999988
                },
                {
                    "name": "A3",
                    "midi": 57,
                    "time": 146.52609599999897,
                    "velocity": 0.48031496062992124,
                    "duration": 0.0789472499999988
                },
                {
                    "name": "A#3",
                    "midi": 58,
                    "time": 146.60504324999897,
                    "velocity": 0.4881889763779528,
                    "duration": 0.0789472499999988
                },
                {
                    "name": "B3",
                    "midi": 59,
                    "time": 146.68399049999897,
                    "velocity": 0.5039370078740157,
                    "duration": 0.0789472499999988
                },
                {
                    "name": "C4",
                    "midi": 60,
                    "time": 146.76293774999897,
                    "velocity": 0.5275590551181102,
                    "duration": 0.0789472499999988
                },
                {
                    "name": "C#4",
                    "midi": 61,
                    "time": 146.84188499999897,
                    "velocity": 0.5433070866141733,
                    "duration": 0.0789472499999988
                },
                {
                    "name": "D4",
                    "midi": 62,
                    "time": 146.92083224999897,
                    "velocity": 0.5590551181102362,
                    "duration": 0.0789472499999988
                },
                {
                    "name": "D#4",
                    "midi": 63,
                    "time": 146.99977949999897,
                    "velocity": 0.5748031496062992,
                    "duration": 0.0789472499999988
                },
                {
                    "name": "E4",
                    "midi": 64,
                    "time": 147.07872674999896,
                    "velocity": 0.5905511811023622,
                    "duration": 0.0789472499999988
                },
                {
                    "name": "F4",
                    "midi": 65,
                    "time": 147.15767399999896,
                    "velocity": 0.5748031496062992,
                    "duration": 0.0789472499999988
                },
                {
                    "name": "E4",
                    "midi": 64,
                    "time": 147.23662124999896,
                    "velocity": 0.5275590551181102,
                    "duration": 0.0789472499999988
                },
                {
                    "name": "A3",
                    "midi": 57,
                    "time": 147.31556849999896,
                    "velocity": 0.5511811023622047,
                    "duration": 0.1578944999999976
                },
                {
                    "name": "C#3",
                    "midi": 49,
                    "time": 147.31556849999896,
                    "velocity": 0.4645669291338583,
                    "duration": 0.1578944999999976
                },
                {
                    "name": "E3",
                    "midi": 52,
                    "time": 147.31556849999896,
                    "velocity": 0.4645669291338583,
                    "duration": 0.1578944999999976
                },
                {
                    "name": "C#2",
                    "midi": 37,
                    "time": 147.47346299999896,
                    "velocity": 0.5275590551181102,
                    "duration": 0.1578944999999976
                },
                {
                    "name": "A#3",
                    "midi": 58,
                    "time": 147.63135749999896,
                    "velocity": 0.5669291338582677,
                    "duration": 0.1578944999999976
                },
                {
                    "name": "C#3",
                    "midi": 49,
                    "time": 147.63135749999896,
                    "velocity": 0.47244094488188976,
                    "duration": 0.1578944999999976
                },
                {
                    "name": "G3",
                    "midi": 55,
                    "time": 147.63135749999896,
                    "velocity": 0.47244094488188976,
                    "duration": 0.1578944999999976
                },
                {
                    "name": "A2",
                    "midi": 45,
                    "time": 147.78925199999895,
                    "velocity": 0.5275590551181102,
                    "duration": 0.1578944999999976
                },
                {
                    "name": "A3",
                    "midi": 57,
                    "time": 147.94714649999895,
                    "velocity": 0.5826771653543307,
                    "duration": 0.1578944999999976
                },
                {
                    "name": "C#3",
                    "midi": 49,
                    "time": 147.94714649999895,
                    "velocity": 0.4881889763779528,
                    "duration": 0.1578944999999976
                },
                {
                    "name": "F3",
                    "midi": 53,
                    "time": 147.94714649999895,
                    "velocity": 0.4881889763779528,
                    "duration": 0.1578944999999976
                },
                {
                    "name": "C#2",
                    "midi": 37,
                    "time": 148.10504099999895,
                    "velocity": 0.5275590551181102,
                    "duration": 0.1578944999999976
                },
                {
                    "name": "G3",
                    "midi": 55,
                    "time": 148.26293549999895,
                    "velocity": 0.6062992125984252,
                    "duration": 0.15789450000002603
                },
                {
                    "name": "C#3",
                    "midi": 49,
                    "time": 148.26293549999895,
                    "velocity": 0.4645669291338583,
                    "duration": 0.15789450000002603
                },
                {
                    "name": "E3",
                    "midi": 52,
                    "time": 148.26293549999895,
                    "velocity": 0.5039370078740157,
                    "duration": 0.15789450000002603
                },
                {
                    "name": "A2",
                    "midi": 45,
                    "time": 148.42082999999897,
                    "velocity": 0.5433070866141733,
                    "duration": 0.1578944999999976
                },
                {
                    "name": "F3",
                    "midi": 53,
                    "time": 148.57872449999897,
                    "velocity": 0.5905511811023622,
                    "duration": 0.0789472499999988
                },
                {
                    "name": "D2",
                    "midi": 38,
                    "time": 148.57872449999897,
                    "velocity": 0.49606299212598426,
                    "duration": 0.0789472499999988
                },
                {
                    "name": "E4",
                    "midi": 64,
                    "time": 148.73661899999897,
                    "velocity": 0.3543307086614173,
                    "duration": 0.0789472499999988
                },
                {
                    "name": "G3",
                    "midi": 55,
                    "time": 148.73661899999897,
                    "velocity": 0.2992125984251969,
                    "duration": 0.0789472499999988
                },
                {
                    "name": "A#3",
                    "midi": 58,
                    "time": 148.73661899999897,
                    "velocity": 0.2992125984251969,
                    "duration": 0.0789472499999988
                },
                {
                    "name": "F4",
                    "midi": 65,
                    "time": 148.89451349999896,
                    "velocity": 0.3700787401574803,
                    "duration": 0.0789472499999988
                },
                {
                    "name": "A3",
                    "midi": 57,
                    "time": 148.89451349999896,
                    "velocity": 0.30708661417322836,
                    "duration": 0.0789472499999988
                },
                {
                    "name": "D4",
                    "midi": 62,
                    "time": 148.89451349999896,
                    "velocity": 0.30708661417322836,
                    "duration": 0.0789472499999988
                },
                {
                    "name": "E5",
                    "midi": 76,
                    "time": 149.05240799999896,
                    "velocity": 0.3779527559055118,
                    "duration": 0.0789472499999988
                },
                {
                    "name": "G4",
                    "midi": 67,
                    "time": 149.05240799999896,
                    "velocity": 0.31496062992125984,
                    "duration": 0.0789472499999988
                },
                {
                    "name": "A#4",
                    "midi": 70,
                    "time": 149.05240799999896,
                    "velocity": 0.31496062992125984,
                    "duration": 0.0789472499999988
                },
                {
                    "name": "F5",
                    "midi": 77,
                    "time": 149.21030249999896,
                    "velocity": 0.3858267716535433,
                    "duration": 0.0789472499999988
                },
                {
                    "name": "A4",
                    "midi": 69,
                    "time": 149.21030249999896,
                    "velocity": 0.3228346456692913,
                    "duration": 0.0789472499999988
                },
                {
                    "name": "D5",
                    "midi": 74,
                    "time": 149.21030249999896,
                    "velocity": 0.3228346456692913,
                    "duration": 0.0789472499999988
                },
                {
                    "name": "E6",
                    "midi": 88,
                    "time": 149.36819699999896,
                    "velocity": 0.4015748031496063,
                    "duration": 0.0789472499999988
                },
                {
                    "name": "A#5",
                    "midi": 82,
                    "time": 149.36819699999896,
                    "velocity": 0.33070866141732286,
                    "duration": 0.0789472499999988
                },
                {
                    "name": "G5",
                    "midi": 79,
                    "time": 149.36819699999896,
                    "velocity": 0.33070866141732286,
                    "duration": 0.0789472499999988
                },
                {
                    "name": "F6",
                    "midi": 89,
                    "time": 149.52609149999896,
                    "velocity": 0.41732283464566927,
                    "duration": 0.0789472499999988
                },
                {
                    "name": "A5",
                    "midi": 81,
                    "time": 149.52609149999896,
                    "velocity": 0.3543307086614173,
                    "duration": 0.0789472499999988
                },
                {
                    "name": "D6",
                    "midi": 86,
                    "time": 149.52609149999896,
                    "velocity": 0.3543307086614173,
                    "duration": 0.0789472499999988
                },
                {
                    "name": "G3",
                    "midi": 55,
                    "time": 149.84188049999895,
                    "velocity": 0.5511811023622047,
                    "duration": 0.1578944999999976
                },
                {
                    "name": "B2",
                    "midi": 47,
                    "time": 149.84188049999895,
                    "velocity": 0.4645669291338583,
                    "duration": 0.1578944999999976
                },
                {
                    "name": "D3",
                    "midi": 50,
                    "time": 149.84188049999895,
                    "velocity": 0.4645669291338583,
                    "duration": 0.1578944999999976
                },
                {
                    "name": "B1",
                    "midi": 35,
                    "time": 149.99977499999895,
                    "velocity": 0.5275590551181102,
                    "duration": 0.1578944999999976
                },
                {
                    "name": "G#3",
                    "midi": 56,
                    "time": 150.15766949999895,
                    "velocity": 0.5669291338582677,
                    "duration": 0.1578944999999976
                },
                {
                    "name": "B2",
                    "midi": 47,
                    "time": 150.15766949999895,
                    "velocity": 0.47244094488188976,
                    "duration": 0.1578944999999976
                },
                {
                    "name": "F3",
                    "midi": 53,
                    "time": 150.15766949999895,
                    "velocity": 0.47244094488188976,
                    "duration": 0.1578944999999976
                },
                {
                    "name": "G2",
                    "midi": 43,
                    "time": 150.31556399999894,
                    "velocity": 0.5275590551181102,
                    "duration": 0.1578944999999976
                },
                {
                    "name": "G3",
                    "midi": 55,
                    "time": 150.47345849999894,
                    "velocity": 0.5826771653543307,
                    "duration": 0.1578944999999976
                },
                {
                    "name": "B2",
                    "midi": 47,
                    "time": 150.47345849999894,
                    "velocity": 0.4881889763779528,
                    "duration": 0.1578944999999976
                },
                {
                    "name": "E3",
                    "midi": 52,
                    "time": 150.47345849999894,
                    "velocity": 0.4881889763779528,
                    "duration": 0.1578944999999976
                },
                {
                    "name": "B1",
                    "midi": 35,
                    "time": 150.63135299999894,
                    "velocity": 0.5275590551181102,
                    "duration": 0.1578944999999976
                },
                {
                    "name": "F3",
                    "midi": 53,
                    "time": 150.78924749999894,
                    "velocity": 0.6062992125984252,
                    "duration": 0.15789450000002603
                },
                {
                    "name": "B2",
                    "midi": 47,
                    "time": 150.78924749999894,
                    "velocity": 0.4645669291338583,
                    "duration": 0.15789450000002603
                },
                {
                    "name": "D3",
                    "midi": 50,
                    "time": 150.78924749999894,
                    "velocity": 0.5039370078740157,
                    "duration": 0.15789450000002603
                },
                {
                    "name": "G2",
                    "midi": 43,
                    "time": 150.94714199999896,
                    "velocity": 0.5433070866141733,
                    "duration": 0.1578944999999976
                },
                {
                    "name": "E3",
                    "midi": 52,
                    "time": 151.10503649999896,
                    "velocity": 0.5590551181102362,
                    "duration": 0.0789472499999988
                },
                {
                    "name": "C2",
                    "midi": 36,
                    "time": 151.10503649999896,
                    "velocity": 0.49606299212598426,
                    "duration": 0.0789472499999988
                },
                {
                    "name": "D4",
                    "midi": 62,
                    "time": 151.26293099999896,
                    "velocity": 0.3543307086614173,
                    "duration": 0.0789472499999988
                },
                {
                    "name": "F3",
                    "midi": 53,
                    "time": 151.26293099999896,
                    "velocity": 0.2992125984251969,
                    "duration": 0.0789472499999988
                },
                {
                    "name": "G#3",
                    "midi": 56,
                    "time": 151.26293099999896,
                    "velocity": 0.2992125984251969,
                    "duration": 0.0789472499999988
                },
                {
                    "name": "E4",
                    "midi": 64,
                    "time": 151.42082549999895,
                    "velocity": 0.3700787401574803,
                    "duration": 0.0789472499999988
                },
                {
                    "name": "G3",
                    "midi": 55,
                    "time": 151.42082549999895,
                    "velocity": 0.30708661417322836,
                    "duration": 0.0789472499999988
                },
                {
                    "name": "C4",
                    "midi": 60,
                    "time": 151.42082549999895,
                    "velocity": 0.30708661417322836,
                    "duration": 0.0789472499999988
                },
                {
                    "name": "G#4",
                    "midi": 68,
                    "time": 151.57871999999895,
                    "velocity": 0.31496062992125984,
                    "duration": 0.0789472499999988
                },
                {
                    "name": "D5",
                    "midi": 74,
                    "time": 151.57871999999895,
                    "velocity": 0.3779527559055118,
                    "duration": 0.0789472499999988
                },
                {
                    "name": "F4",
                    "midi": 65,
                    "time": 151.57871999999895,
                    "velocity": 0.31496062992125984,
                    "duration": 0.0789472499999988
                },
                {
                    "name": "E5",
                    "midi": 76,
                    "time": 151.73661449999895,
                    "velocity": 0.3858267716535433,
                    "duration": 0.0789472499999988
                },
                {
                    "name": "G4",
                    "midi": 67,
                    "time": 151.73661449999895,
                    "velocity": 0.3228346456692913,
                    "duration": 0.0789472499999988
                },
                {
                    "name": "C5",
                    "midi": 72,
                    "time": 151.73661449999895,
                    "velocity": 0.3228346456692913,
                    "duration": 0.0789472499999988
                },
                {
                    "name": "D6",
                    "midi": 86,
                    "time": 151.89450899999895,
                    "velocity": 0.4015748031496063,
                    "duration": 0.0789472499999988
                },
                {
                    "name": "G#5",
                    "midi": 80,
                    "time": 151.89450899999895,
                    "velocity": 0.33070866141732286,
                    "duration": 0.0789472499999988
                },
                {
                    "name": "F5",
                    "midi": 77,
                    "time": 151.89450899999895,
                    "velocity": 0.33070866141732286,
                    "duration": 0.0789472499999988
                },
                {
                    "name": "E6",
                    "midi": 88,
                    "time": 152.05240349999895,
                    "velocity": 0.41732283464566927,
                    "duration": 0.0789472499999988
                },
                {
                    "name": "G5",
                    "midi": 79,
                    "time": 152.05240349999895,
                    "velocity": 0.3543307086614173,
                    "duration": 0.0789472499999988
                },
                {
                    "name": "C6",
                    "midi": 84,
                    "time": 152.05240349999895,
                    "velocity": 0.3543307086614173,
                    "duration": 0.0789472499999988
                },
                {
                    "name": "C3",
                    "midi": 48,
                    "time": 152.21029799999894,
                    "velocity": 0.48031496062992124,
                    "duration": 0.05263149999998973
                },
                {
                    "name": "D3",
                    "midi": 50,
                    "time": 152.26292949999893,
                    "velocity": 0.5196850393700787,
                    "duration": 0.05263149999998973
                },
                {
                    "name": "E3",
                    "midi": 52,
                    "time": 152.31556099999892,
                    "velocity": 0.5433070866141733,
                    "duration": 0.05263149999998973
                },
                {
                    "name": "F3",
                    "midi": 53,
                    "time": 152.3681924999989,
                    "velocity": 0.5826771653543307,
                    "duration": 0.1578944999999976
                },
                {
                    "name": "F2",
                    "midi": 41,
                    "time": 152.3681924999989,
                    "velocity": 0.5826771653543307,
                    "duration": 0.1578944999999976
                },
                {
                    "name": "G#4",
                    "midi": 68,
                    "time": 152.5260869999989,
                    "velocity": 0.5433070866141733,
                    "duration": 0.1578944999999976
                },
                {
                    "name": "D4",
                    "midi": 62,
                    "time": 152.5260869999989,
                    "velocity": 0.4566929133858268,
                    "duration": 0.1578944999999976
                },
                {
                    "name": "B3",
                    "midi": 59,
                    "time": 152.5260869999989,
                    "velocity": 0.4566929133858268,
                    "duration": 0.1578944999999976
                },
                {
                    "name": "G#4",
                    "midi": 68,
                    "time": 152.6839814999989,
                    "velocity": 0.5433070866141733,
                    "duration": 0.1578944999999976
                },
                {
                    "name": "D4",
                    "midi": 62,
                    "time": 152.6839814999989,
                    "velocity": 0.4645669291338583,
                    "duration": 0.1578944999999976
                },
                {
                    "name": "B3",
                    "midi": 59,
                    "time": 152.6839814999989,
                    "velocity": 0.4645669291338583,
                    "duration": 0.1578944999999976
                },
                {
                    "name": "B1",
                    "midi": 35,
                    "time": 152.8418759999989,
                    "velocity": 0.47244094488188976,
                    "duration": 0.1578944999999976
                },
                {
                    "name": "B2",
                    "midi": 47,
                    "time": 152.8418759999989,
                    "velocity": 0.5669291338582677,
                    "duration": 0.1578944999999976
                },
                {
                    "name": "D#3",
                    "midi": 51,
                    "time": 152.9997704999989,
                    "velocity": 0.6220472440944882,
                    "duration": 0.1578944999999976
                },
                {
                    "name": "D#2",
                    "midi": 39,
                    "time": 152.9997704999989,
                    "velocity": 0.6220472440944882,
                    "duration": 0.1578944999999976
                },
                {
                    "name": "F#4",
                    "midi": 66,
                    "time": 153.1576649999989,
                    "velocity": 0.5433070866141733,
                    "duration": 0.1578944999999976
                },
                {
                    "name": "C4",
                    "midi": 60,
                    "time": 153.1576649999989,
                    "velocity": 0.4645669291338583,
                    "duration": 0.1578944999999976
                },
                {
                    "name": "A3",
                    "midi": 57,
                    "time": 153.1576649999989,
                    "velocity": 0.4645669291338583,
                    "duration": 0.1578944999999976
                },
                {
                    "name": "F#4",
                    "midi": 66,
                    "time": 153.3155594999989,
                    "velocity": 0.5354330708661418,
                    "duration": 0.1578944999999976
                },
                {
                    "name": "C4",
                    "midi": 60,
                    "time": 153.3155594999989,
                    "velocity": 0.4566929133858268,
                    "duration": 0.1578944999999976
                },
                {
                    "name": "A3",
                    "midi": 57,
                    "time": 153.3155594999989,
                    "velocity": 0.4330708661417323,
                    "duration": 0.1578944999999976
                },
                {
                    "name": "A1",
                    "midi": 33,
                    "time": 153.4734539999989,
                    "velocity": 0.4881889763779528,
                    "duration": 0.1578944999999976
                },
                {
                    "name": "A2",
                    "midi": 45,
                    "time": 153.4734539999989,
                    "velocity": 0.5826771653543307,
                    "duration": 0.1578944999999976
                },
                {
                    "name": "C#3",
                    "midi": 49,
                    "time": 153.6313484999989,
                    "velocity": 0.6220472440944882,
                    "duration": 0.1578944999999976
                },
                {
                    "name": "C#2",
                    "midi": 37,
                    "time": 153.6313484999989,
                    "velocity": 0.6220472440944882,
                    "duration": 0.1578944999999976
                },
                {
                    "name": "E4",
                    "midi": 64,
                    "time": 153.7892429999989,
                    "velocity": 0.5590551181102362,
                    "duration": 0.1578944999999976
                },
                {
                    "name": "A#3",
                    "midi": 58,
                    "time": 153.7892429999989,
                    "velocity": 0.47244094488188976,
                    "duration": 0.1578944999999976
                },
                {
                    "name": "G3",
                    "midi": 55,
                    "time": 153.7892429999989,
                    "velocity": 0.47244094488188976,
                    "duration": 0.1578944999999976
                },
                {
                    "name": "E4",
                    "midi": 64,
                    "time": 153.9471374999989,
                    "velocity": 0.5669291338582677,
                    "duration": 0.1578944999999976
                },
                {
                    "name": "A#3",
                    "midi": 58,
                    "time": 153.9471374999989,
                    "velocity": 0.47244094488188976,
                    "duration": 0.1578944999999976
                },
                {
                    "name": "G3",
                    "midi": 55,
                    "time": 153.9471374999989,
                    "velocity": 0.47244094488188976,
                    "duration": 0.1578944999999976
                },
                {
                    "name": "G1",
                    "midi": 31,
                    "time": 154.1050319999989,
                    "velocity": 0.49606299212598426,
                    "duration": 0.1578944999999976
                },
                {
                    "name": "G2",
                    "midi": 43,
                    "time": 154.1050319999989,
                    "velocity": 0.5905511811023622,
                    "duration": 0.1578944999999976
                },
                {
                    "name": "B2",
                    "midi": 47,
                    "time": 154.26292649999888,
                    "velocity": 0.6535433070866141,
                    "duration": 0.1578944999999976
                },
                {
                    "name": "B1",
                    "midi": 35,
                    "time": 154.26292649999888,
                    "velocity": 0.6535433070866141,
                    "duration": 0.1578944999999976
                },
                {
                    "name": "D4",
                    "midi": 62,
                    "time": 154.42082099999888,
                    "velocity": 0.5669291338582677,
                    "duration": 0.1578944999999976
                },
                {
                    "name": "G#3",
                    "midi": 56,
                    "time": 154.42082099999888,
                    "velocity": 0.48031496062992124,
                    "duration": 0.1578944999999976
                },
                {
                    "name": "F3",
                    "midi": 53,
                    "time": 154.42082099999888,
                    "velocity": 0.48031496062992124,
                    "duration": 0.1578944999999976
                },
                {
                    "name": "D4",
                    "midi": 62,
                    "time": 154.57871549999888,
                    "velocity": 0.5748031496062992,
                    "duration": 0.1578944999999976
                },
                {
                    "name": "G#3",
                    "midi": 56,
                    "time": 154.57871549999888,
                    "velocity": 0.4881889763779528,
                    "duration": 0.1578944999999976
                },
                {
                    "name": "F3",
                    "midi": 53,
                    "time": 154.57871549999888,
                    "velocity": 0.4881889763779528,
                    "duration": 0.1578944999999976
                },
                {
                    "name": "F1",
                    "midi": 29,
                    "time": 154.73660999999888,
                    "velocity": 0.5039370078740157,
                    "duration": 0.1578944999999976
                },
                {
                    "name": "F2",
                    "midi": 41,
                    "time": 154.73660999999888,
                    "velocity": 0.6141732283464567,
                    "duration": 0.1578944999999976
                },
                {
                    "name": "B2",
                    "midi": 47,
                    "time": 154.89450449999887,
                    "velocity": 0.6692913385826772,
                    "duration": 0.1578944999999976
                },
                {
                    "name": "B1",
                    "midi": 35,
                    "time": 154.89450449999887,
                    "velocity": 0.6692913385826772,
                    "duration": 0.1578944999999976
                },
                {
                    "name": "D4",
                    "midi": 62,
                    "time": 155.05239899999887,
                    "velocity": 0.5826771653543307,
                    "duration": 0.1578944999999976
                },
                {
                    "name": "A3",
                    "midi": 57,
                    "time": 155.05239899999887,
                    "velocity": 0.4881889763779528,
                    "duration": 0.1578944999999976
                },
                {
                    "name": "F3",
                    "midi": 53,
                    "time": 155.05239899999887,
                    "velocity": 0.4881889763779528,
                    "duration": 0.1578944999999976
                },
                {
                    "name": "D4",
                    "midi": 62,
                    "time": 155.21029349999887,
                    "velocity": 0.5905511811023622,
                    "duration": 0.1578944999999976
                },
                {
                    "name": "A3",
                    "midi": 57,
                    "time": 155.21029349999887,
                    "velocity": 0.49606299212598426,
                    "duration": 0.1578944999999976
                },
                {
                    "name": "F3",
                    "midi": 53,
                    "time": 155.21029349999887,
                    "velocity": 0.49606299212598426,
                    "duration": 0.1578944999999976
                },
                {
                    "name": "F1",
                    "midi": 29,
                    "time": 155.36818799999887,
                    "velocity": 0.5275590551181102,
                    "duration": 0.1578944999999976
                },
                {
                    "name": "F2",
                    "midi": 41,
                    "time": 155.36818799999887,
                    "velocity": 0.6220472440944882,
                    "duration": 0.1578944999999976
                },
                {
                    "name": "B2",
                    "midi": 47,
                    "time": 155.52608249999886,
                    "velocity": 0.6771653543307087,
                    "duration": 0.1578944999999976
                },
                {
                    "name": "B1",
                    "midi": 35,
                    "time": 155.52608249999886,
                    "velocity": 0.6771653543307087,
                    "duration": 0.1578944999999976
                },
                {
                    "name": "D#4",
                    "midi": 63,
                    "time": 155.68397699999886,
                    "velocity": 0.6062992125984252,
                    "duration": 0.1578944999999976
                },
                {
                    "name": "A3",
                    "midi": 57,
                    "time": 155.68397699999886,
                    "velocity": 0.5039370078740157,
                    "duration": 0.1578944999999976
                },
                {
                    "name": "F3",
                    "midi": 53,
                    "time": 155.68397699999886,
                    "velocity": 0.5039370078740157,
                    "duration": 0.1578944999999976
                },
                {
                    "name": "D#4",
                    "midi": 63,
                    "time": 155.84187149999886,
                    "velocity": 0.6062992125984252,
                    "duration": 0.1578944999999976
                },
                {
                    "name": "A3",
                    "midi": 57,
                    "time": 155.84187149999886,
                    "velocity": 0.5039370078740157,
                    "duration": 0.1578944999999976
                },
                {
                    "name": "F3",
                    "midi": 53,
                    "time": 155.84187149999886,
                    "velocity": 0.5039370078740157,
                    "duration": 0.1578944999999976
                },
                {
                    "name": "A2",
                    "midi": 45,
                    "time": 155.99976599999886,
                    "velocity": 0.6220472440944882,
                    "duration": 0.05263149999998973
                },
                {
                    "name": "G2",
                    "midi": 43,
                    "time": 156.05239749999885,
                    "velocity": 0.6456692913385826,
                    "duration": 0.05263149999998973
                },
                {
                    "name": "F2",
                    "midi": 41,
                    "time": 156.10502899999884,
                    "velocity": 0.6692913385826772,
                    "duration": 0.05263149999998973
                },
                {
                    "name": "E2",
                    "midi": 40,
                    "time": 156.15766049999883,
                    "velocity": 0.7007874015748031,
                    "duration": 0.1578944999999976
                },
                {
                    "name": "E4",
                    "midi": 64,
                    "time": 156.47344949999882,
                    "velocity": 0.6299212598425197,
                    "duration": 0.1578944999999976
                },
                {
                    "name": "B3",
                    "midi": 59,
                    "time": 156.47344949999882,
                    "velocity": 0.6299212598425197,
                    "duration": 0.1578944999999976
                },
                {
                    "name": "A3",
                    "midi": 57,
                    "time": 156.47344949999882,
                    "velocity": 0.5354330708661418,
                    "duration": 0.1578944999999976
                },
                {
                    "name": "E3",
                    "midi": 52,
                    "time": 156.47344949999882,
                    "velocity": 0.5354330708661418,
                    "duration": 0.1578944999999976
                },
                {
                    "name": "E3",
                    "midi": 52,
                    "time": 156.78923849999882,
                    "velocity": 0.7007874015748031,
                    "duration": 0.1578944999999976
                },
                {
                    "name": "E2",
                    "midi": 40,
                    "time": 156.78923849999882,
                    "velocity": 0.5826771653543307,
                    "duration": 0.1578944999999976
                },
                {
                    "name": "E4",
                    "midi": 64,
                    "time": 157.1050274999988,
                    "velocity": 0.6299212598425197,
                    "duration": 0.1578944999999976
                },
                {
                    "name": "B3",
                    "midi": 59,
                    "time": 157.1050274999988,
                    "velocity": 0.6299212598425197,
                    "duration": 0.1578944999999976
                },
                {
                    "name": "G#3",
                    "midi": 56,
                    "time": 157.1050274999988,
                    "velocity": 0.5354330708661418,
                    "duration": 0.1578944999999976
                },
                {
                    "name": "E3",
                    "midi": 52,
                    "time": 157.1050274999988,
                    "velocity": 0.5354330708661418,
                    "duration": 0.1578944999999976
                },
                {
                    "name": "A2",
                    "midi": 45,
                    "time": 157.4208164999988,
                    "velocity": 0.6929133858267716,
                    "duration": 0.1578944999999976
                },
                {
                    "name": "A1",
                    "midi": 33,
                    "time": 157.4208164999988,
                    "velocity": 0.5748031496062992,
                    "duration": 0.1578944999999976
                },
                {
                    "name": "C2",
                    "midi": 36,
                    "time": 157.4208164999988,
                    "velocity": 0.5748031496062992,
                    "duration": 0.1578944999999976
                },
                {
                    "name": "E2",
                    "midi": 40,
                    "time": 157.4227901812488,
                    "velocity": 0.5748031496062992,
                    "duration": 0.1578944999999976
                },
                {
                    "name": "A3",
                    "midi": 57,
                    "time": 157.6576582499988,
                    "velocity": 0.6141732283464567,
                    "duration": 0.0789472499999988
                },
                {
                    "name": "A3",
                    "midi": 57,
                    "time": 157.7366054999988,
                    "velocity": 0.6456692913385826,
                    "duration": 0.0789472499999988
                },
                {
                    "name": "C4",
                    "midi": 60,
                    "time": 157.8155527499988,
                    "velocity": 0.6220472440944882,
                    "duration": 0.0789472499999988
                },
                {
                    "name": "B3",
                    "midi": 59,
                    "time": 157.8944999999988,
                    "velocity": 0.6535433070866141,
                    "duration": 0.0789472499999988
                },
                {
                    "name": "A3",
                    "midi": 57,
                    "time": 157.9734472499988,
                    "velocity": 0.6220472440944882,
                    "duration": 0.0789472499999988
                },
                {
                    "name": "E4",
                    "midi": 64,
                    "time": 158.0523944999988,
                    "velocity": 0.6692913385826772,
                    "duration": 0.15789449999996918
                },
                {
                    "name": "E2",
                    "midi": 40,
                    "time": 158.28923624999877,
                    "velocity": 0.6299212598425197,
                    "duration": 0.0789472499999988
                },
                {
                    "name": "E2",
                    "midi": 40,
                    "time": 158.36818349999876,
                    "velocity": 0.6692913385826772,
                    "duration": 0.07894725000002722
                },
                {
                    "name": "G2",
                    "midi": 43,
                    "time": 158.4471307499988,
                    "velocity": 0.6299212598425197,
                    "duration": 0.0789472499999988
                },
                {
                    "name": "F2",
                    "midi": 41,
                    "time": 158.5260779999988,
                    "velocity": 0.6771653543307087,
                    "duration": 0.0789472499999988
                },
                {
                    "name": "E2",
                    "midi": 40,
                    "time": 158.6050252499988,
                    "velocity": 0.6299212598425197,
                    "duration": 0.0789472499999988
                },
                {
                    "name": "A2",
                    "midi": 45,
                    "time": 158.6839724999988,
                    "velocity": 0.6929133858267716,
                    "duration": 0.15789450000002603
                },
                {
                    "name": "A1",
                    "midi": 33,
                    "time": 158.6839724999988,
                    "velocity": 0.5748031496062992,
                    "duration": 0.15789450000002603
                },
                {
                    "name": "C#2",
                    "midi": 37,
                    "time": 158.6839724999988,
                    "velocity": 0.5748031496062992,
                    "duration": 0.15789450000002603
                },
                {
                    "name": "E2",
                    "midi": 40,
                    "time": 158.6859461812488,
                    "velocity": 0.5748031496062992,
                    "duration": 0.15789450000002603
                },
                {
                    "name": "A3",
                    "midi": 57,
                    "time": 158.9208142499988,
                    "velocity": 0.6220472440944882,
                    "duration": 0.0789472499999988
                },
                {
                    "name": "A3",
                    "midi": 57,
                    "time": 158.9997614999988,
                    "velocity": 0.6535433070866141,
                    "duration": 0.0789472499999988
                },
                {
                    "name": "C4",
                    "midi": 60,
                    "time": 159.0787087499988,
                    "velocity": 0.6141732283464567,
                    "duration": 0.0789472499999988
                },
                {
                    "name": "A#3",
                    "midi": 58,
                    "time": 159.1576559999988,
                    "velocity": 0.6456692913385826,
                    "duration": 0.0789472499999988
                },
                {
                    "name": "A3",
                    "midi": 57,
                    "time": 159.2366032499988,
                    "velocity": 0.6220472440944882,
                    "duration": 0.0789472499999988
                },
                {
                    "name": "G4",
                    "midi": 67,
                    "time": 159.3155504999988,
                    "velocity": 0.6535433070866141,
                    "duration": 0.1578944999999976
                },
                {
                    "name": "A2",
                    "midi": 45,
                    "time": 159.5523922499988,
                    "velocity": 0.6377952755905512,
                    "duration": 0.0789472499999988
                },
                {
                    "name": "A2",
                    "midi": 45,
                    "time": 159.6313394999988,
                    "velocity": 0.6771653543307087,
                    "duration": 0.0789472499999988
                },
                {
                    "name": "C3",
                    "midi": 48,
                    "time": 159.7102867499988,
                    "velocity": 0.6377952755905512,
                    "duration": 0.0789472499999988
                },
                {
                    "name": "A#2",
                    "midi": 46,
                    "time": 159.7892339999988,
                    "velocity": 0.6771653543307087,
                    "duration": 0.0789472499999988
                },
                {
                    "name": "A2",
                    "midi": 45,
                    "time": 159.8681812499988,
                    "velocity": 0.6220472440944882,
                    "duration": 0.0789472499999988
                },
                {
                    "name": "A2",
                    "midi": 45,
                    "time": 159.9471284999988,
                    "velocity": 0.5748031496062992,
                    "duration": 0.1578944999999976
                },
                {
                    "name": "D3",
                    "midi": 50,
                    "time": 159.9471284999988,
                    "velocity": 0.6929133858267716,
                    "duration": 0.1578944999999976
                },
                {
                    "name": "D2",
                    "midi": 38,
                    "time": 159.9471284999988,
                    "velocity": 0.5748031496062992,
                    "duration": 0.1578944999999976
                },
                {
                    "name": "F2",
                    "midi": 41,
                    "time": 159.9471284999988,
                    "velocity": 0.5748031496062992,
                    "duration": 0.1578944999999976
                },
                {
                    "name": "A3",
                    "midi": 57,
                    "time": 160.1839702499988,
                    "velocity": 0.6220472440944882,
                    "duration": 0.0789472499999988
                },
                {
                    "name": "A3",
                    "midi": 57,
                    "time": 160.2629174999988,
                    "velocity": 0.6535433070866141,
                    "duration": 0.0789472499999988
                },
                {
                    "name": "C4",
                    "midi": 60,
                    "time": 160.3418647499988,
                    "velocity": 0.6062992125984252,
                    "duration": 0.0789472499999988
                },
                {
                    "name": "A#3",
                    "midi": 58,
                    "time": 160.4208119999988,
                    "velocity": 0.6456692913385826,
                    "duration": 0.0789472499999988
                },
                {
                    "name": "A3",
                    "midi": 57,
                    "time": 160.4997592499988,
                    "velocity": 0.5748031496062992,
                    "duration": 0.0789472499999988
                },
                {
                    "name": "F4",
                    "midi": 65,
                    "time": 160.5787064999988,
                    "velocity": 0.6692913385826772,
                    "duration": 0.1578944999999976
                },
                {
                    "name": "D2",
                    "midi": 38,
                    "time": 160.81554824999878,
                    "velocity": 0.6377952755905512,
                    "duration": 0.0789472499999988
                },
                {
                    "name": "D2",
                    "midi": 38,
                    "time": 160.89449549999878,
                    "velocity": 0.7007874015748031,
                    "duration": 0.0789472499999988
                },
                {
                    "name": "C#2",
                    "midi": 37,
                    "time": 160.97344274999878,
                    "velocity": 0.6456692913385826,
                    "duration": 0.0789472499999988
                },
                {
                    "name": "D2",
                    "midi": 38,
                    "time": 161.05238999999878,
                    "velocity": 0.6929133858267716,
                    "duration": 0.0789472499999988
                },
                {
                    "name": "E2",
                    "midi": 40,
                    "time": 161.13133724999878,
                    "velocity": 0.6299212598425197,
                    "duration": 0.0789472499999988
                },
                {
                    "name": "F3",
                    "midi": 53,
                    "time": 161.21028449999878,
                    "velocity": 0.7007874015748031,
                    "duration": 0.3157889999999952
                },
                {
                    "name": "F2",
                    "midi": 41,
                    "time": 161.21028449999878,
                    "velocity": 0.5826771653543307,
                    "duration": 0.3157889999999952
                },
                {
                    "name": "F4",
                    "midi": 65,
                    "time": 161.36817899999878,
                    "velocity": 0.6299212598425197,
                    "duration": 0.1578944999999976
                },
                {
                    "name": "G#3",
                    "midi": 56,
                    "time": 161.36817899999878,
                    "velocity": 0.5354330708661418,
                    "duration": 0.1578944999999976
                },
                {
                    "name": "D4",
                    "midi": 62,
                    "time": 161.36817899999878,
                    "velocity": 0.5354330708661418,
                    "duration": 0.1578944999999976
                },
                {
                    "name": "G#3",
                    "midi": 56,
                    "time": 161.52607349999877,
                    "velocity": 0.7007874015748031,
                    "duration": 0.3157889999999952
                },
                {
                    "name": "G#2",
                    "midi": 44,
                    "time": 161.52607349999877,
                    "velocity": 0.5905511811023622,
                    "duration": 0.3157889999999952
                },
                {
                    "name": "G#4",
                    "midi": 68,
                    "time": 161.68396799999877,
                    "velocity": 0.6377952755905512,
                    "duration": 0.1578944999999976
                },
                {
                    "name": "F4",
                    "midi": 65,
                    "time": 161.68396799999877,
                    "velocity": 0.5433070866141733,
                    "duration": 0.1578944999999976
                },
                {
                    "name": "B3",
                    "midi": 59,
                    "time": 161.68396799999877,
                    "velocity": 0.5433070866141733,
                    "duration": 0.1578944999999976
                },
                {
                    "name": "B3",
                    "midi": 59,
                    "time": 161.84186249999877,
                    "velocity": 0.7007874015748031,
                    "duration": 0.3157889999999952
                },
                {
                    "name": "B2",
                    "midi": 47,
                    "time": 161.84186249999877,
                    "velocity": 0.5826771653543307,
                    "duration": 0.3157889999999952
                },
                {
                    "name": "B4",
                    "midi": 71,
                    "time": 161.99975699999877,
                    "velocity": 0.6299212598425197,
                    "duration": 0.1578944999999976
                },
                {
                    "name": "G#4",
                    "midi": 68,
                    "time": 161.99975699999877,
                    "velocity": 0.5354330708661418,
                    "duration": 0.1578944999999976
                },
                {
                    "name": "D4",
                    "midi": 62,
                    "time": 161.99975699999877,
                    "velocity": 0.5354330708661418,
                    "duration": 0.1578944999999976
                },
                {
                    "name": "E3",
                    "midi": 52,
                    "time": 162.15765149999876,
                    "velocity": 0.7086614173228346,
                    "duration": 0.3157889999999952
                },
                {
                    "name": "E2",
                    "midi": 40,
                    "time": 162.15765149999876,
                    "velocity": 0.6062992125984252,
                    "duration": 0.3157889999999952
                },
                {
                    "name": "E4",
                    "midi": 64,
                    "time": 162.31554599999876,
                    "velocity": 0.6535433070866141,
                    "duration": 0.1578944999999976
                },
                {
                    "name": "B3",
                    "midi": 59,
                    "time": 162.31554599999876,
                    "velocity": 0.5511811023622047,
                    "duration": 0.1578944999999976
                },
                {
                    "name": "G#3",
                    "midi": 56,
                    "time": 162.31554599999876,
                    "velocity": 0.5511811023622047,
                    "duration": 0.1578944999999976
                },
                {
                    "name": "A2",
                    "midi": 45,
                    "time": 162.47344049999876,
                    "velocity": 0.6929133858267716,
                    "duration": 0.1578944999999976
                },
                {
                    "name": "A1",
                    "midi": 33,
                    "time": 162.47344049999876,
                    "velocity": 0.5748031496062992,
                    "duration": 0.1578944999999976
                },
                {
                    "name": "C2",
                    "midi": 36,
                    "time": 162.47344049999876,
                    "velocity": 0.5748031496062992,
                    "duration": 0.1578944999999976
                },
                {
                    "name": "E2",
                    "midi": 40,
                    "time": 162.47541418124877,
                    "velocity": 0.5748031496062992,
                    "duration": 0.1578944999999976
                },
                {
                    "name": "A3",
                    "midi": 57,
                    "time": 162.71028224999876,
                    "velocity": 0.6220472440944882,
                    "duration": 0.0789472499999988
                },
                {
                    "name": "A3",
                    "midi": 57,
                    "time": 162.78922949999875,
                    "velocity": 0.6614173228346457,
                    "duration": 0.0789472499999988
                },
                {
                    "name": "C4",
                    "midi": 60,
                    "time": 162.86817674999875,
                    "velocity": 0.6220472440944882,
                    "duration": 0.0789472499999988
                },
                {
                    "name": "B3",
                    "midi": 59,
                    "time": 162.94712399999875,
                    "velocity": 0.6771653543307087,
                    "duration": 0.0789472499999988
                },
                {
                    "name": "A3",
                    "midi": 57,
                    "time": 163.02607124999875,
                    "velocity": 0.6220472440944882,
                    "duration": 0.0789472499999988
                },
                {
                    "name": "E4",
                    "midi": 64,
                    "time": 163.10501849999875,
                    "velocity": 0.6929133858267716,
                    "duration": 0.1578944999999976
                },
                {
                    "name": "E2",
                    "midi": 40,
                    "time": 163.34186024999875,
                    "velocity": 0.6299212598425197,
                    "duration": 0.0789472499999988
                },
                {
                    "name": "E2",
                    "midi": 40,
                    "time": 163.42080749999874,
                    "velocity": 0.6692913385826772,
                    "duration": 0.0789472499999988
                },
                {
                    "name": "G2",
                    "midi": 43,
                    "time": 163.49975474999874,
                    "velocity": 0.6299212598425197,
                    "duration": 0.0789472499999988
                },
                {
                    "name": "F2",
                    "midi": 41,
                    "time": 163.57870199999874,
                    "velocity": 0.6771653543307087,
                    "duration": 0.0789472499999988
                },
                {
                    "name": "E2",
                    "midi": 40,
                    "time": 163.65764924999874,
                    "velocity": 0.6299212598425197,
                    "duration": 0.0789472499999988
                },
                {
                    "name": "A2",
                    "midi": 45,
                    "time": 163.73659649999874,
                    "velocity": 0.6929133858267716,
                    "duration": 0.15789450000002603
                },
                {
                    "name": "A1",
                    "midi": 33,
                    "time": 163.73659649999874,
                    "velocity": 0.5748031496062992,
                    "duration": 0.15789450000002603
                },
                {
                    "name": "C#2",
                    "midi": 37,
                    "time": 163.73659649999874,
                    "velocity": 0.5748031496062992,
                    "duration": 0.15789450000002603
                },
                {
                    "name": "E2",
                    "midi": 40,
                    "time": 163.73857018124875,
                    "velocity": 0.5748031496062992,
                    "duration": 0.15789450000002603
                },
                {
                    "name": "A3",
                    "midi": 57,
                    "time": 163.97343824999876,
                    "velocity": 0.6220472440944882,
                    "duration": 0.0789472499999988
                },
                {
                    "name": "A3",
                    "midi": 57,
                    "time": 164.05238549999876,
                    "velocity": 0.6535433070866141,
                    "duration": 0.0789472499999988
                },
                {
                    "name": "C4",
                    "midi": 60,
                    "time": 164.13133274999876,
                    "velocity": 0.6220472440944882,
                    "duration": 0.0789472499999988
                },
                {
                    "name": "A#3",
                    "midi": 58,
                    "time": 164.21027999999876,
                    "velocity": 0.6456692913385826,
                    "duration": 0.0789472499999988
                },
                {
                    "name": "A3",
                    "midi": 57,
                    "time": 164.28922724999876,
                    "velocity": 0.6141732283464567,
                    "duration": 0.0789472499999988
                },
                {
                    "name": "G4",
                    "midi": 67,
                    "time": 164.36817449999876,
                    "velocity": 0.6614173228346457,
                    "duration": 0.1578944999999976
                },
                {
                    "name": "A2",
                    "midi": 45,
                    "time": 164.60501624999876,
                    "velocity": 0.6377952755905512,
                    "duration": 0.0789472499999988
                },
                {
                    "name": "A2",
                    "midi": 45,
                    "time": 164.68396349999875,
                    "velocity": 0.6771653543307087,
                    "duration": 0.07894725000002722
                },
                {
                    "name": "C3",
                    "midi": 48,
                    "time": 164.76291074999878,
                    "velocity": 0.6377952755905512,
                    "duration": 0.0789472499999988
                },
                {
                    "name": "A#2",
                    "midi": 46,
                    "time": 164.84185799999878,
                    "velocity": 0.6771653543307087,
                    "duration": 0.0789472499999988
                },
                {
                    "name": "A2",
                    "midi": 45,
                    "time": 164.92080524999878,
                    "velocity": 0.6220472440944882,
                    "duration": 0.0789472499999988
                },
                {
                    "name": "A2",
                    "midi": 45,
                    "time": 164.99975249999878,
                    "velocity": 0.5748031496062992,
                    "duration": 0.1578944999999976
                },
                {
                    "name": "D3",
                    "midi": 50,
                    "time": 164.99975249999878,
                    "velocity": 0.6929133858267716,
                    "duration": 0.1578944999999976
                },
                {
                    "name": "D2",
                    "midi": 38,
                    "time": 164.99975249999878,
                    "velocity": 0.5748031496062992,
                    "duration": 0.1578944999999976
                },
                {
                    "name": "F2",
                    "midi": 41,
                    "time": 164.99975249999878,
                    "velocity": 0.5748031496062992,
                    "duration": 0.1578944999999976
                },
                {
                    "name": "A3",
                    "midi": 57,
                    "time": 165.23659424999877,
                    "velocity": 0.6299212598425197,
                    "duration": 0.0789472499999988
                },
                {
                    "name": "A3",
                    "midi": 57,
                    "time": 165.31554149999877,
                    "velocity": 0.6535433070866141,
                    "duration": 0.0789472499999988
                },
                {
                    "name": "C4",
                    "midi": 60,
                    "time": 165.39448874999877,
                    "velocity": 0.6220472440944882,
                    "duration": 0.0789472499999988
                },
                {
                    "name": "A#3",
                    "midi": 58,
                    "time": 165.47343599999877,
                    "velocity": 0.6535433070866141,
                    "duration": 0.0789472499999988
                },
                {
                    "name": "A3",
                    "midi": 57,
                    "time": 165.55238324999877,
                    "velocity": 0.6062992125984252,
                    "duration": 0.0789472499999988
                },
                {
                    "name": "F4",
                    "midi": 65,
                    "time": 165.63133049999877,
                    "velocity": 0.6456692913385826,
                    "duration": 0.15789449999996918
                },
                {
                    "name": "D2",
                    "midi": 38,
                    "time": 165.86817224999874,
                    "velocity": 0.6377952755905512,
                    "duration": 0.0789472499999988
                },
                {
                    "name": "D2",
                    "midi": 38,
                    "time": 165.94711949999873,
                    "velocity": 0.7007874015748031,
                    "duration": 0.0789472499999988
                },
                {
                    "name": "C#2",
                    "midi": 37,
                    "time": 166.02606674999873,
                    "velocity": 0.6456692913385826,
                    "duration": 0.0789472499999988
                },
                {
                    "name": "D2",
                    "midi": 38,
                    "time": 166.10501399999873,
                    "velocity": 0.6929133858267716,
                    "duration": 0.0789472499999988
                },
                {
                    "name": "E2",
                    "midi": 40,
                    "time": 166.18396124999873,
                    "velocity": 0.6299212598425197,
                    "duration": 0.0789472499999988
                },
                {
                    "name": "F3",
                    "midi": 53,
                    "time": 166.26290849999873,
                    "velocity": 0.7007874015748031,
                    "duration": 0.3157889999999952
                },
                {
                    "name": "F2",
                    "midi": 41,
                    "time": 166.26290849999873,
                    "velocity": 0.5826771653543307,
                    "duration": 0.3157889999999952
                },
                {
                    "name": "F4",
                    "midi": 65,
                    "time": 166.42080299999873,
                    "velocity": 0.6299212598425197,
                    "duration": 0.1578944999999976
                },
                {
                    "name": "G#3",
                    "midi": 56,
                    "time": 166.42080299999873,
                    "velocity": 0.5354330708661418,
                    "duration": 0.15592081874999053
                },
                {
                    "name": "D4",
                    "midi": 62,
                    "time": 166.42080299999873,
                    "velocity": 0.5354330708661418,
                    "duration": 0.1578944999999976
                },
                {
                    "name": "G#3",
                    "midi": 56,
                    "time": 166.57869749999873,
                    "velocity": 0.7007874015748031,
                    "duration": 0.3157889999999952
                },
                {
                    "name": "G#2",
                    "midi": 44,
                    "time": 166.57869749999873,
                    "velocity": 0.5905511811023622,
                    "duration": 0.3157889999999952
                },
                {
                    "name": "G#4",
                    "midi": 68,
                    "time": 166.73659199999872,
                    "velocity": 0.6377952755905512,
                    "duration": 0.1578944999999976
                },
                {
                    "name": "F4",
                    "midi": 65,
                    "time": 166.73659199999872,
                    "velocity": 0.5433070866141733,
                    "duration": 0.1578944999999976
                },
                {
                    "name": "B3",
                    "midi": 59,
                    "time": 166.73659199999872,
                    "velocity": 0.5433070866141733,
                    "duration": 0.15592081874999053
                },
                {
                    "name": "B3",
                    "midi": 59,
                    "time": 166.89448649999872,
                    "velocity": 0.7007874015748031,
                    "duration": 0.3157889999999952
                },
                {
                    "name": "B2",
                    "midi": 47,
                    "time": 166.89448649999872,
                    "velocity": 0.5826771653543307,
                    "duration": 0.3157889999999952
                },
                {
                    "name": "B4",
                    "midi": 71,
                    "time": 167.05238099999872,
                    "velocity": 0.6299212598425197,
                    "duration": 0.1578944999999976
                },
                {
                    "name": "G#4",
                    "midi": 68,
                    "time": 167.05238099999872,
                    "velocity": 0.5354330708661418,
                    "duration": 0.1578944999999976
                },
                {
                    "name": "D4",
                    "midi": 62,
                    "time": 167.05238099999872,
                    "velocity": 0.5354330708661418,
                    "duration": 0.1578944999999976
                },
                {
                    "name": "E3",
                    "midi": 52,
                    "time": 167.21027549999872,
                    "velocity": 0.7086614173228346,
                    "duration": 0.3157889999999952
                },
                {
                    "name": "E2",
                    "midi": 40,
                    "time": 167.21027549999872,
                    "velocity": 0.6062992125984252,
                    "duration": 0.3157889999999952
                },
                {
                    "name": "E4",
                    "midi": 64,
                    "time": 167.3681699999987,
                    "velocity": 0.6535433070866141,
                    "duration": 0.1578944999999976
                },
                {
                    "name": "B3",
                    "midi": 59,
                    "time": 167.3681699999987,
                    "velocity": 0.5511811023622047,
                    "duration": 0.1578944999999976
                },
                {
                    "name": "G#3",
                    "midi": 56,
                    "time": 167.3681699999987,
                    "velocity": 0.5511811023622047,
                    "duration": 0.1578944999999976
                },
                {
                    "name": "A1",
                    "midi": 33,
                    "time": 167.5260644999987,
                    "velocity": 0.6929133858267716,
                    "duration": 0.6315779999999052
                },
                {
                    "name": "C#2",
                    "midi": 37,
                    "time": 167.57869599999873,
                    "velocity": 0.48031496062992124,
                    "duration": 0.05263149999998973
                },
                {
                    "name": "E2",
                    "midi": 40,
                    "time": 167.63132749999872,
                    "velocity": 0.4881889763779528,
                    "duration": 0.05263149999998973
                },
                {
                    "name": "A2",
                    "midi": 45,
                    "time": 167.6839589999987,
                    "velocity": 0.49606299212598426,
                    "duration": 0.05263149999998973
                },
                {
                    "name": "C#3",
                    "midi": 49,
                    "time": 167.7365904999987,
                    "velocity": 0.49606299212598426,
                    "duration": 0.05263149999998973
                },
                {
                    "name": "E3",
                    "midi": 52,
                    "time": 167.7892219999987,
                    "velocity": 0.5039370078740157,
                    "duration": 0.05263149999998973
                },
                {
                    "name": "A3",
                    "midi": 57,
                    "time": 167.84185349999868,
                    "velocity": 0.5196850393700787,
                    "duration": 0.05263149999998973
                },
                {
                    "name": "C#4",
                    "midi": 61,
                    "time": 167.89448499999867,
                    "velocity": 0.5275590551181102,
                    "duration": 0.05263149999998973
                },
                {
                    "name": "E4",
                    "midi": 64,
                    "time": 167.94711649999866,
                    "velocity": 0.5354330708661418,
                    "duration": 0.05263149999998973
                },
                {
                    "name": "A4",
                    "midi": 69,
                    "time": 167.99974799999865,
                    "velocity": 0.5433070866141733,
                    "duration": 0.05263149999998973
                },
                {
                    "name": "C#5",
                    "midi": 73,
                    "time": 168.05237949999864,
                    "velocity": 0.5433070866141733,
                    "duration": 0.05263149999998973
                },
                {
                    "name": "E5",
                    "midi": 76,
                    "time": 168.10501099999863,
                    "velocity": 0.5433070866141733,
                    "duration": 0.05263149999998973
                },
                {
                    "name": "A5",
                    "midi": 81,
                    "time": 168.15764249999862,
                    "velocity": 0.6299212598425197,
                    "duration": 0.05263149999998973
                },
                {
                    "name": "E5",
                    "midi": 76,
                    "time": 168.2102739999986,
                    "velocity": 0.5511811023622047,
                    "duration": 0.05263149999998973
                },
                {
                    "name": "C#5",
                    "midi": 73,
                    "time": 168.2629054999986,
                    "velocity": 0.5511811023622047,
                    "duration": 0.05263149999998973
                },
                {
                    "name": "A4",
                    "midi": 69,
                    "time": 168.31553699999859,
                    "velocity": 0.5433070866141733,
                    "duration": 0.05263149999998973
                },
                {
                    "name": "E4",
                    "midi": 64,
                    "time": 168.36816849999857,
                    "velocity": 0.5433070866141733,
                    "duration": 0.05263149999998973
                },
                {
                    "name": "C#4",
                    "midi": 61,
                    "time": 168.42079999999856,
                    "velocity": 0.5354330708661418,
                    "duration": 0.05263149999998973
                },
                {
                    "name": "A3",
                    "midi": 57,
                    "time": 168.47343149999855,
                    "velocity": 0.5275590551181102,
                    "duration": 0.05263149999998973
                },
                {
                    "name": "E3",
                    "midi": 52,
                    "time": 168.52606299999854,
                    "velocity": 0.5196850393700787,
                    "duration": 0.05263149999998973
                },
                {
                    "name": "C#3",
                    "midi": 49,
                    "time": 168.57869449999853,
                    "velocity": 0.5039370078740157,
                    "duration": 0.05263149999998973
                },
                {
                    "name": "A2",
                    "midi": 45,
                    "time": 168.63132599999852,
                    "velocity": 0.49606299212598426,
                    "duration": 0.05263149999998973
                },
                {
                    "name": "E2",
                    "midi": 40,
                    "time": 168.6839574999985,
                    "velocity": 0.49606299212598426,
                    "duration": 0.05263149999998973
                },
                {
                    "name": "C#2",
                    "midi": 37,
                    "time": 168.7365889999985,
                    "velocity": 0.48031496062992124,
                    "duration": 0.05263149999998973
                },
                {
                    "name": "A1",
                    "midi": 33,
                    "time": 168.7892204999985,
                    "velocity": 0.6692913385826772,
                    "duration": 0.6315779999999052
                },
                {
                    "name": "C#2",
                    "midi": 37,
                    "time": 168.84185199999848,
                    "velocity": 0.4409448818897638,
                    "duration": 0.05263149999998973
                },
                {
                    "name": "E2",
                    "midi": 40,
                    "time": 168.89448349999847,
                    "velocity": 0.4566929133858268,
                    "duration": 0.05263149999998973
                },
                {
                    "name": "A2",
                    "midi": 45,
                    "time": 168.94711499999846,
                    "velocity": 0.4645669291338583,
                    "duration": 0.05263149999998973
                },
                {
                    "name": "C#3",
                    "midi": 49,
                    "time": 168.99974649999845,
                    "velocity": 0.47244094488188976,
                    "duration": 0.05263149999998973
                },
                {
                    "name": "E3",
                    "midi": 52,
                    "time": 169.05237799999844,
                    "velocity": 0.4881889763779528,
                    "duration": 0.05263149999998973
                },
                {
                    "name": "A3",
                    "midi": 57,
                    "time": 169.10500949999843,
                    "velocity": 0.5039370078740157,
                    "duration": 0.05263149999998973
                },
                {
                    "name": "C#4",
                    "midi": 61,
                    "time": 169.15764099999842,
                    "velocity": 0.5275590551181102,
                    "duration": 0.05263149999998973
                },
                {
                    "name": "E4",
                    "midi": 64,
                    "time": 169.2102724999984,
                    "velocity": 0.5433070866141733,
                    "duration": 0.05263149999998973
                },
                {
                    "name": "A4",
                    "midi": 69,
                    "time": 169.2629039999984,
                    "velocity": 0.5511811023622047,
                    "duration": 0.0394736249999994
                },
                {
                    "name": "C#5",
                    "midi": 73,
                    "time": 169.3023776249984,
                    "velocity": 0.5590551181102362,
                    "duration": 0.0394736249999994
                },
                {
                    "name": "E5",
                    "midi": 76,
                    "time": 169.3418512499984,
                    "velocity": 0.5669291338582677,
                    "duration": 0.0394736249999994
                },
                {
                    "name": "A5",
                    "midi": 81,
                    "time": 169.3813248749984,
                    "velocity": 0.5826771653543307,
                    "duration": 0.0394736249999994
                },
                {
                    "name": "C#6",
                    "midi": 85,
                    "time": 169.4207984999984,
                    "velocity": 0.5905511811023622,
                    "duration": 0.0394736249999994
                },
                {
                    "name": "A5",
                    "midi": 81,
                    "time": 169.4602721249984,
                    "velocity": 0.5826771653543307,
                    "duration": 0.0394736249999994
                },
                {
                    "name": "E5",
                    "midi": 76,
                    "time": 169.4997457499984,
                    "velocity": 0.5748031496062992,
                    "duration": 0.0394736249999994
                },
                {
                    "name": "C#5",
                    "midi": 73,
                    "time": 169.5392193749984,
                    "velocity": 0.5669291338582677,
                    "duration": 0.0394736249999994
                },
                {
                    "name": "A4",
                    "midi": 69,
                    "time": 169.5786929999984,
                    "velocity": 0.5511811023622047,
                    "duration": 0.05263149999998973
                },
                {
                    "name": "E4",
                    "midi": 64,
                    "time": 169.63132449999839,
                    "velocity": 0.5433070866141733,
                    "duration": 0.05263149999998973
                },
                {
                    "name": "C#4",
                    "midi": 61,
                    "time": 169.68395599999837,
                    "velocity": 0.5433070866141733,
                    "duration": 0.05263149999998973
                },
                {
                    "name": "A3",
                    "midi": 57,
                    "time": 169.73658749999836,
                    "velocity": 0.5275590551181102,
                    "duration": 0.05263149999998973
                },
                {
                    "name": "E3",
                    "midi": 52,
                    "time": 169.78921899999835,
                    "velocity": 0.5039370078740157,
                    "duration": 0.05263149999998973
                },
                {
                    "name": "C#3",
                    "midi": 49,
                    "time": 169.84185049999834,
                    "velocity": 0.49606299212598426,
                    "duration": 0.05263149999998973
                },
                {
                    "name": "A2",
                    "midi": 45,
                    "time": 169.89448199999833,
                    "velocity": 0.48031496062992124,
                    "duration": 0.05263149999998973
                },
                {
                    "name": "E2",
                    "midi": 40,
                    "time": 169.94711349999832,
                    "velocity": 0.47244094488188976,
                    "duration": 0.05263149999998973
                },
                {
                    "name": "C#2",
                    "midi": 37,
                    "time": 169.9997449999983,
                    "velocity": 0.4645669291338583,
                    "duration": 0.05263149999998973
                },
                {
                    "name": "A1",
                    "midi": 33,
                    "time": 170.0523764999983,
                    "velocity": 0.6929133858267716,
                    "duration": 0.6315779999999052
                },
                {
                    "name": "C#2",
                    "midi": 37,
                    "time": 170.10500799999832,
                    "velocity": 0.4645669291338583,
                    "duration": 0.05263149999998973
                },
                {
                    "name": "E2",
                    "midi": 40,
                    "time": 170.1576394999983,
                    "velocity": 0.4645669291338583,
                    "duration": 0.05263149999998973
                },
                {
                    "name": "A2",
                    "midi": 45,
                    "time": 170.2102709999983,
                    "velocity": 0.48031496062992124,
                    "duration": 0.05263149999998973
                },
                {
                    "name": "C#3",
                    "midi": 49,
                    "time": 170.2629024999983,
                    "velocity": 0.4881889763779528,
                    "duration": 0.05263149999998973
                },
                {
                    "name": "E3",
                    "midi": 52,
                    "time": 170.31553399999828,
                    "velocity": 0.49606299212598426,
                    "duration": 0.05263149999998973
                },
                {
                    "name": "A3",
                    "midi": 57,
                    "time": 170.36816549999827,
                    "velocity": 0.5196850393700787,
                    "duration": 0.05263149999998973
                },
                {
                    "name": "C#4",
                    "midi": 61,
                    "time": 170.42079699999826,
                    "velocity": 0.5275590551181102,
                    "duration": 0.05263149999998973
                },
                {
                    "name": "E4",
                    "midi": 64,
                    "time": 170.47342849999825,
                    "velocity": 0.5433070866141733,
                    "duration": 0.05263149999998973
                },
                {
                    "name": "A4",
                    "midi": 69,
                    "time": 170.52605999999824,
                    "velocity": 0.5433070866141733,
                    "duration": 0.05263149999998973
                },
                {
                    "name": "C#5",
                    "midi": 73,
                    "time": 170.57869149999823,
                    "velocity": 0.5590551181102362,
                    "duration": 0.05263149999998973
                },
                {
                    "name": "E5",
                    "midi": 76,
                    "time": 170.63132299999822,
                    "velocity": 0.5669291338582677,
                    "duration": 0.05263149999998973
                },
                {
                    "name": "A5",
                    "midi": 81,
                    "time": 170.6839544999982,
                    "velocity": 0.5826771653543307,
                    "duration": 0.06315779999999904
                },
                {
                    "name": "C#6",
                    "midi": 85,
                    "time": 170.7471122999982,
                    "velocity": 0.5905511811023622,
                    "duration": 0.06315779999999904
                },
                {
                    "name": "F6",
                    "midi": 89,
                    "time": 170.8102700999982,
                    "velocity": 0.6141732283464567,
                    "duration": 0.06315779999999904
                },
                {
                    "name": "E6",
                    "midi": 88,
                    "time": 170.8734278999982,
                    "velocity": 0.6062992125984252,
                    "duration": 0.06315779999999904
                },
                {
                    "name": "C#6",
                    "midi": 85,
                    "time": 170.9365856999982,
                    "velocity": 0.6062992125984252,
                    "duration": 0.06315779999999904
                },
                {
                    "name": "A5",
                    "midi": 81,
                    "time": 171.0023750749982,
                    "velocity": 0.5826771653543307,
                    "duration": 0.05263149999998973
                },
                {
                    "name": "E5",
                    "midi": 76,
                    "time": 171.0550065749982,
                    "velocity": 0.5669291338582677,
                    "duration": 0.05263149999998973
                },
                {
                    "name": "C#5",
                    "midi": 73,
                    "time": 171.1076380749982,
                    "velocity": 0.5590551181102362,
                    "duration": 0.05263149999998973
                },
                {
                    "name": "A4",
                    "midi": 69,
                    "time": 171.16026957499818,
                    "velocity": 0.5433070866141733,
                    "duration": 0.05263149999998973
                },
                {
                    "name": "E4",
                    "midi": 64,
                    "time": 171.21290107499817,
                    "velocity": 0.5433070866141733,
                    "duration": 0.05263149999998973
                },
                {
                    "name": "C#4",
                    "midi": 61,
                    "time": 171.26553257499816,
                    "velocity": 0.5275590551181102,
                    "duration": 0.05263149999998973
                },
                {
                    "name": "A3",
                    "midi": 57,
                    "time": 171.31816407499815,
                    "velocity": 0.5196850393700787,
                    "duration": 0.05263149999998973
                },
                {
                    "name": "E3",
                    "midi": 52,
                    "time": 171.37079557499814,
                    "velocity": 0.49606299212598426,
                    "duration": 0.05263149999998973
                },
                {
                    "name": "C#3",
                    "midi": 49,
                    "time": 171.42342707499813,
                    "velocity": 0.4881889763779528,
                    "duration": 0.05263149999998973
                },
                {
                    "name": "A2",
                    "midi": 45,
                    "time": 171.47605857499812,
                    "velocity": 0.47244094488188976,
                    "duration": 0.05263149999998973
                },
                {
                    "name": "E2",
                    "midi": 40,
                    "time": 171.5286900749981,
                    "velocity": 0.4645669291338583,
                    "duration": 0.05263149999998973
                },
                {
                    "name": "C#2",
                    "midi": 37,
                    "time": 171.5813215749981,
                    "velocity": 0.4566929133858268,
                    "duration": 0.05263150000001815
                },
                {
                    "name": "A1",
                    "midi": 33,
                    "time": 171.6313214999981,
                    "velocity": 0.5275590551181102,
                    "duration": 0.05131571250001343
                },
                {
                    "name": "A#1",
                    "midi": 34,
                    "time": 171.6707951249981,
                    "velocity": 0.4645669291338583,
                    "duration": 0.051315712500041855
                },
                {
                    "name": "A1",
                    "midi": 33,
                    "time": 171.71026874999814,
                    "velocity": 0.5039370078740157,
                    "duration": 0.051315712500041855
                },
                {
                    "name": "A#1",
                    "midi": 34,
                    "time": 171.74974237499816,
                    "velocity": 0.4566929133858268,
                    "duration": 0.051315712500041855
                },
                {
                    "name": "A1",
                    "midi": 33,
                    "time": 171.7892159999982,
                    "velocity": 0.5039370078740157,
                    "duration": 0.051315712500041855
                },
                {
                    "name": "A#1",
                    "midi": 34,
                    "time": 171.82868962499822,
                    "velocity": 0.4566929133858268,
                    "duration": 0.051315712500041855
                },
                {
                    "name": "A1",
                    "midi": 33,
                    "time": 171.86816324999825,
                    "velocity": 0.5039370078740157,
                    "duration": 0.051315712500041855
                },
                {
                    "name": "A#1",
                    "midi": 34,
                    "time": 171.90763687499827,
                    "velocity": 0.4566929133858268,
                    "duration": 0.051315712500041855
                },
                {
                    "name": "A1",
                    "midi": 33,
                    "time": 171.9471104999983,
                    "velocity": 0.5039370078740157,
                    "duration": 0.051315712500041855
                },
                {
                    "name": "A#1",
                    "midi": 34,
                    "time": 171.98658412499833,
                    "velocity": 0.4566929133858268,
                    "duration": 0.051315712500041855
                },
                {
                    "name": "A1",
                    "midi": 33,
                    "time": 172.02605774999836,
                    "velocity": 0.5196850393700787,
                    "duration": 0.051315712500041855
                },
                {
                    "name": "A#1",
                    "midi": 34,
                    "time": 172.0655313749984,
                    "velocity": 0.4645669291338583,
                    "duration": 0.051315712500041855
                },
                {
                    "name": "A1",
                    "midi": 33,
                    "time": 172.1050049999984,
                    "velocity": 0.5196850393700787,
                    "duration": 0.051315712500041855
                },
                {
                    "name": "A#1",
                    "midi": 34,
                    "time": 172.14447862499844,
                    "velocity": 0.47244094488188976,
                    "duration": 0.051315712500041855
                },
                {
                    "name": "A1",
                    "midi": 33,
                    "time": 172.18395224999847,
                    "velocity": 0.5196850393700787,
                    "duration": 0.051315712500041855
                },
                {
                    "name": "A#1",
                    "midi": 34,
                    "time": 172.2234258749985,
                    "velocity": 0.4645669291338583,
                    "duration": 0.051315712500041855
                },
                {
                    "name": "A1",
                    "midi": 33,
                    "time": 172.26289949999853,
                    "velocity": 0.4881889763779528,
                    "duration": 0.0394736249999994
                },
                {
                    "name": "A#1",
                    "midi": 34,
                    "time": 172.30237312499852,
                    "velocity": 0.5039370078740157,
                    "duration": 0.0394736249999994
                },
                {
                    "name": "B1",
                    "midi": 35,
                    "time": 172.34184674999852,
                    "velocity": 0.5275590551181102,
                    "duration": 0.0394736249999994
                },
                {
                    "name": "C2",
                    "midi": 36,
                    "time": 172.38132037499852,
                    "velocity": 0.5433070866141733,
                    "duration": 0.0394736249999994
                },
                {
                    "name": "C#2",
                    "midi": 37,
                    "time": 172.42079399999852,
                    "velocity": 0.5590551181102362,
                    "duration": 0.0394736249999994
                },
                {
                    "name": "D2",
                    "midi": 38,
                    "time": 172.46026762499852,
                    "velocity": 0.5748031496062992,
                    "duration": 0.0394736249999994
                },
                {
                    "name": "D#2",
                    "midi": 39,
                    "time": 172.49974124999852,
                    "velocity": 0.5905511811023622,
                    "duration": 0.0394736249999994
                },
                {
                    "name": "E2",
                    "midi": 40,
                    "time": 172.53921487499852,
                    "velocity": 0.6141732283464567,
                    "duration": 0.0394736249999994
                },
                {
                    "name": "F2",
                    "midi": 41,
                    "time": 172.57868849999852,
                    "velocity": 0.6299212598425197,
                    "duration": 0.0394736249999994
                },
                {
                    "name": "E2",
                    "midi": 40,
                    "time": 172.61816212499852,
                    "velocity": 0.6377952755905512,
                    "duration": 0.0394736249999994
                },
                {
                    "name": "D#2",
                    "midi": 39,
                    "time": 172.65763574999852,
                    "velocity": 0.6299212598425197,
                    "duration": 0.0394736249999994
                },
                {
                    "name": "D2",
                    "midi": 38,
                    "time": 172.69710937499852,
                    "velocity": 0.6299212598425197,
                    "duration": 0.0394736249999994
                },
                {
                    "name": "C#2",
                    "midi": 37,
                    "time": 172.73658299999852,
                    "velocity": 0.6220472440944882,
                    "duration": 0.0394736249999994
                },
                {
                    "name": "C2",
                    "midi": 36,
                    "time": 172.77605662499852,
                    "velocity": 0.6220472440944882,
                    "duration": 0.0394736249999994
                },
                {
                    "name": "B1",
                    "midi": 35,
                    "time": 172.81553024999852,
                    "velocity": 0.6220472440944882,
                    "duration": 0.0394736249999994
                },
                {
                    "name": "A#1",
                    "midi": 34,
                    "time": 172.85500387499852,
                    "velocity": 0.6141732283464567,
                    "duration": 0.0394736249999994
                },
                {
                    "name": "A1",
                    "midi": 33,
                    "time": 172.89447749999852,
                    "velocity": 0.7007874015748031,
                    "duration": 0.1578944999999976
                },
                {
                    "name": "A3",
                    "midi": 57,
                    "time": 173.2102664999985,
                    "velocity": 0.6614173228346457,
                    "duration": 0.1578944999999976
                },
                {
                    "name": "E3",
                    "midi": 52,
                    "time": 173.2102664999985,
                    "velocity": 0.6062992125984252,
                    "duration": 0.1578944999999976
                },
                {
                    "name": "C#3",
                    "midi": 49,
                    "time": 173.2102664999985,
                    "velocity": 0.5511811023622047,
                    "duration": 0.1578944999999976
                },
                {
                    "name": "A2",
                    "midi": 45,
                    "time": 173.2102664999985,
                    "velocity": 0.5511811023622047,
                    "duration": 0.1578944999999976
                },
                {
                    "name": "A4",
                    "midi": 69,
                    "time": 173.5260554999985,
                    "velocity": 0.6614173228346457,
                    "duration": 0.1578944999999976
                },
                {
                    "name": "E4",
                    "midi": 64,
                    "time": 173.5260554999985,
                    "velocity": 0.6062992125984252,
                    "duration": 0.1578944999999976
                },
                {
                    "name": "C#4",
                    "midi": 61,
                    "time": 173.5260554999985,
                    "velocity": 0.5511811023622047,
                    "duration": 0.1578944999999976
                },
                {
                    "name": "A3",
                    "midi": 57,
                    "time": 173.5260554999985,
                    "velocity": 0.5511811023622047,
                    "duration": 0.1578944999999976
                }
            ],
            "controlChanges": {
                "7": [
                    {
                        "number": 7,
                        "time": 0,
                        "value": 0.7874015748031497
                    }
                ],
                "10": [
                    {
                        "number": 10,
                        "time": 0,
                        "value": 0.5039370078740157
                    }
                ],
                "64": [
                    {
                        "number": 64,
                        "time": 0.00460525625,
                        "value": 0
                    },
                    {
                        "number": 64,
                        "time": 12.792086075000011,
                        "value": 1
                    },
                    {
                        "number": 64,
                        "time": 13.117085587500013,
                        "value": 0
                    },
                    {
                        "number": 64,
                        "time": 13.62103220000001,
                        "value": 1
                    },
                    {
                        "number": 64,
                        "time": 13.892084425000013,
                        "value": 0
                    },
                    {
                        "number": 64,
                        "time": 14.398662612500011,
                        "value": 1
                    },
                    {
                        "number": 64,
                        "time": 14.70063584375001,
                        "value": 0
                    },
                    {
                        "number": 64,
                        "time": 15.206556137500009,
                        "value": 1
                    },
                    {
                        "number": 64,
                        "time": 15.47366100000001,
                        "value": 0
                    },
                    {
                        "number": 64,
                        "time": 15.980897081250008,
                        "value": 1
                    },
                    {
                        "number": 64,
                        "time": 16.276949268750005,
                        "value": 0
                    },
                    {
                        "number": 64,
                        "time": 16.79734322500001,
                        "value": 1
                    },
                    {
                        "number": 64,
                        "time": 17.045369168750007,
                        "value": 0
                    },
                    {
                        "number": 64,
                        "time": 17.526289500000008,
                        "value": 0
                    },
                    {
                        "number": 64,
                        "time": 18.283525206250005,
                        "value": 1
                    },
                    {
                        "number": 64,
                        "time": 18.594708950000005,
                        "value": 0
                    },
                    {
                        "number": 64,
                        "time": 28.755220024999925,
                        "value": 1
                    },
                    {
                        "number": 64,
                        "time": 28.906535587499924,
                        "value": 0
                    },
                    {
                        "number": 64,
                        "time": 46.127562387499765,
                        "value": 1
                    },
                    {
                        "number": 64,
                        "time": 46.201246487499766,
                        "value": 0
                    },
                    {
                        "number": 64,
                        "time": 46.59400905624976,
                        "value": 1
                    },
                    {
                        "number": 64,
                        "time": 46.74400883124976,
                        "value": 0
                    },
                    {
                        "number": 64,
                        "time": 46.77032458124976,
                        "value": 1
                    },
                    {
                        "number": 64,
                        "time": 46.86440338749976,
                        "value": 0
                    },
                    {
                        "number": 64,
                        "time": 47.23479756874976,
                        "value": 1
                    },
                    {
                        "number": 64,
                        "time": 47.368349999999765,
                        "value": 0
                    },
                    {
                        "number": 64,
                        "time": 47.39071838749977,
                        "value": 1
                    },
                    {
                        "number": 64,
                        "time": 47.46440248749977,
                        "value": 0
                    },
                    {
                        "number": 64,
                        "time": 47.85716505624976,
                        "value": 1
                    },
                    {
                        "number": 64,
                        "time": 48.00716483124976,
                        "value": 0
                    },
                    {
                        "number": 64,
                        "time": 48.03348058124976,
                        "value": 1
                    },
                    {
                        "number": 64,
                        "time": 48.127559387499765,
                        "value": 0
                    },
                    {
                        "number": 64,
                        "time": 48.180848781249765,
                        "value": 1
                    },
                    {
                        "number": 64,
                        "time": 48.482164118749765,
                        "value": 0
                    },
                    {
                        "number": 64,
                        "time": 48.65387438749976,
                        "value": 1
                    },
                    {
                        "number": 64,
                        "time": 48.72755848749976,
                        "value": 0
                    },
                    {
                        "number": 64,
                        "time": 49.12032105624976,
                        "value": 1
                    },
                    {
                        "number": 64,
                        "time": 49.270320831249755,
                        "value": 0
                    },
                    {
                        "number": 64,
                        "time": 49.29663658124976,
                        "value": 1
                    },
                    {
                        "number": 64,
                        "time": 49.39071538749976,
                        "value": 0
                    },
                    {
                        "number": 64,
                        "time": 49.76110956874976,
                        "value": 1
                    },
                    {
                        "number": 64,
                        "time": 49.901240937499765,
                        "value": 0
                    },
                    {
                        "number": 64,
                        "time": 49.917030387499764,
                        "value": 1
                    },
                    {
                        "number": 64,
                        "time": 49.990714487499766,
                        "value": 0
                    },
                    {
                        "number": 64,
                        "time": 50.38347705624976,
                        "value": 1
                    },
                    {
                        "number": 64,
                        "time": 50.53347683124976,
                        "value": 0
                    },
                    {
                        "number": 64,
                        "time": 50.55979258124976,
                        "value": 1
                    },
                    {
                        "number": 64,
                        "time": 50.65387138749976,
                        "value": 0
                    },
                    {
                        "number": 64,
                        "time": 50.70716078124976,
                        "value": 1
                    },
                    {
                        "number": 64,
                        "time": 51.00847611874976,
                        "value": 0
                    },
                    {
                        "number": 64,
                        "time": 51.18018638749976,
                        "value": 1
                    },
                    {
                        "number": 64,
                        "time": 51.25387048749976,
                        "value": 0
                    },
                    {
                        "number": 64,
                        "time": 51.646633056249755,
                        "value": 1
                    },
                    {
                        "number": 64,
                        "time": 51.79663283124975,
                        "value": 0
                    },
                    {
                        "number": 64,
                        "time": 51.822948581249754,
                        "value": 1
                    },
                    {
                        "number": 64,
                        "time": 51.91702738749976,
                        "value": 0
                    },
                    {
                        "number": 64,
                        "time": 52.28610578124975,
                        "value": 1
                    },
                    {
                        "number": 64,
                        "time": 52.42492136249975,
                        "value": 0
                    },
                    {
                        "number": 64,
                        "time": 52.443342387499754,
                        "value": 1
                    },
                    {
                        "number": 64,
                        "time": 52.517026487499756,
                        "value": 0
                    },
                    {
                        "number": 64,
                        "time": 52.90978905624975,
                        "value": 1
                    },
                    {
                        "number": 64,
                        "time": 53.05978883124975,
                        "value": 0
                    },
                    {
                        "number": 64,
                        "time": 53.08610458124975,
                        "value": 1
                    },
                    {
                        "number": 64,
                        "time": 53.18018338749975,
                        "value": 0
                    },
                    {
                        "number": 64,
                        "time": 53.54728809999975,
                        "value": 1
                    },
                    {
                        "number": 64,
                        "time": 53.68873525624975,
                        "value": 0
                    },
                    {
                        "number": 64,
                        "time": 53.70649838749975,
                        "value": 1
                    },
                    {
                        "number": 64,
                        "time": 53.780182487499744,
                        "value": 0
                    },
                    {
                        "number": 64,
                        "time": 54.33807638749974,
                        "value": 1
                    },
                    {
                        "number": 64,
                        "time": 54.411760487499734,
                        "value": 0
                    },
                    {
                        "number": 64,
                        "time": 55.620969199999735,
                        "value": 1
                    },
                    {
                        "number": 64,
                        "time": 55.917679281249725,
                        "value": 0
                    },
                    {
                        "number": 64,
                        "time": 66.33937417499963,
                        "value": 1
                    },
                    {
                        "number": 64,
                        "time": 66.79332086249963,
                        "value": 0
                    },
                    {
                        "number": 64,
                        "time": 66.99989949999964,
                        "value": 1
                    },
                    {
                        "number": 64,
                        "time": 67.42292518124964,
                        "value": 0
                    },
                    {
                        "number": 64,
                        "time": 67.63147749999965,
                        "value": 1
                    },
                    {
                        "number": 64,
                        "time": 68.05779264999964,
                        "value": 0
                    },
                    {
                        "number": 64,
                        "time": 68.26305549999965,
                        "value": 1
                    },
                    {
                        "number": 64,
                        "time": 68.68608118124965,
                        "value": 0
                    },
                    {
                        "number": 64,
                        "time": 68.88608088124964,
                        "value": 1
                    },
                    {
                        "number": 64,
                        "time": 69.31963286249963,
                        "value": 0
                    },
                    {
                        "number": 64,
                        "time": 69.34397493124963,
                        "value": 1
                    },
                    {
                        "number": 64,
                        "time": 69.47423789374965,
                        "value": 0
                    },
                    {
                        "number": 64,
                        "time": 69.52621149999965,
                        "value": 1
                    },
                    {
                        "number": 64,
                        "time": 69.94923718124966,
                        "value": 0
                    },
                    {
                        "number": 64,
                        "time": 69.99068448749965,
                        "value": 1
                    },
                    {
                        "number": 64,
                        "time": 70.10910536249966,
                        "value": 0
                    },
                    {
                        "number": 64,
                        "time": 70.15778949999967,
                        "value": 1
                    },
                    {
                        "number": 64,
                        "time": 70.58344675624966,
                        "value": 0
                    },
                    {
                        "number": 64,
                        "time": 70.60713093124966,
                        "value": 1
                    },
                    {
                        "number": 64,
                        "time": 70.74134125624967,
                        "value": 0
                    },
                    {
                        "number": 64,
                        "time": 70.78936749999967,
                        "value": 1
                    },
                    {
                        "number": 64,
                        "time": 71.21239318124967,
                        "value": 0
                    },
                    {
                        "number": 64,
                        "time": 71.41239288124966,
                        "value": 1
                    },
                    {
                        "number": 64,
                        "time": 71.84462907499965,
                        "value": 0
                    },
                    {
                        "number": 64,
                        "time": 72.05252349999965,
                        "value": 1
                    },
                    {
                        "number": 64,
                        "time": 72.47554918124965,
                        "value": 0
                    },
                    {
                        "number": 64,
                        "time": 72.67818045624965,
                        "value": 1
                    },
                    {
                        "number": 64,
                        "time": 73.10778507499964,
                        "value": 0
                    },
                    {
                        "number": 64,
                        "time": 73.30449530624965,
                        "value": 1
                    },
                    {
                        "number": 64,
                        "time": 73.74002096874965,
                        "value": 0
                    },
                    {
                        "number": 64,
                        "time": 73.93081015624966,
                        "value": 1
                    },
                    {
                        "number": 64,
                        "time": 74.37291475624966,
                        "value": 0
                    },
                    {
                        "number": 64,
                        "time": 74.56765130624967,
                        "value": 1
                    },
                    {
                        "number": 64,
                        "time": 74.99725592499968,
                        "value": 0
                    },
                    {
                        "number": 64,
                        "time": 75.20186088124969,
                        "value": 1
                    },
                    {
                        "number": 64,
                        "time": 75.6288339249997,
                        "value": 0
                    },
                    {
                        "number": 64,
                        "time": 75.84988622499971,
                        "value": 1
                    },
                    {
                        "number": 64,
                        "time": 76.2373856437497,
                        "value": 0
                    },
                    {
                        "number": 64,
                        "time": 78.17159326874969,
                        "value": 1
                    },
                    {
                        "number": 64,
                        "time": 78.2413300062497,
                        "value": 0
                    },
                    {
                        "number": 64,
                        "time": 78.2788299499997,
                        "value": 1
                    },
                    {
                        "number": 64,
                        "time": 78.32422461874971,
                        "value": 0
                    },
                    {
                        "number": 64,
                        "time": 78.34988247499972,
                        "value": 1
                    },
                    {
                        "number": 64,
                        "time": 78.39856661249972,
                        "value": 0
                    },
                    {
                        "number": 64,
                        "time": 78.43211919374973,
                        "value": 1
                    },
                    {
                        "number": 64,
                        "time": 78.48080333124973,
                        "value": 0
                    },
                    {
                        "number": 64,
                        "time": 78.51501380624973,
                        "value": 1
                    },
                    {
                        "number": 64,
                        "time": 78.55975058124973,
                        "value": 0
                    },
                    {
                        "number": 64,
                        "time": 78.59001369374973,
                        "value": 1
                    },
                    {
                        "number": 64,
                        "time": 78.64264519374973,
                        "value": 0
                    },
                    {
                        "number": 64,
                        "time": 78.73343453124973,
                        "value": 1
                    },
                    {
                        "number": 64,
                        "time": 78.95251314999973,
                        "value": 0
                    },
                    {
                        "number": 64,
                        "time": 80.69790526874971,
                        "value": 1
                    },
                    {
                        "number": 64,
                        "time": 80.76764200624972,
                        "value": 0
                    },
                    {
                        "number": 64,
                        "time": 80.80514194999972,
                        "value": 1
                    },
                    {
                        "number": 64,
                        "time": 80.85251029999972,
                        "value": 0
                    },
                    {
                        "number": 64,
                        "time": 80.87948394374972,
                        "value": 1
                    },
                    {
                        "number": 64,
                        "time": 80.92487861249973,
                        "value": 0
                    },
                    {
                        "number": 64,
                        "time": 80.95843119374973,
                        "value": 1
                    },
                    {
                        "number": 64,
                        "time": 81.00711533124974,
                        "value": 0
                    },
                    {
                        "number": 64,
                        "time": 81.04132580624973,
                        "value": 1
                    },
                    {
                        "number": 64,
                        "time": 81.08606258124973,
                        "value": 0
                    },
                    {
                        "number": 64,
                        "time": 81.11632569374973,
                        "value": 1
                    },
                    {
                        "number": 64,
                        "time": 81.16895719374973,
                        "value": 0
                    },
                    {
                        "number": 64,
                        "time": 81.23277288749973,
                        "value": 1
                    },
                    {
                        "number": 64,
                        "time": 81.47356199999973,
                        "value": 0
                    },
                    {
                        "number": 64,
                        "time": 81.97356124999972,
                        "value": 1
                    },
                    {
                        "number": 64,
                        "time": 82.11040314999973,
                        "value": 0
                    },
                    {
                        "number": 64,
                        "time": 82.15053466874973,
                        "value": 1
                    },
                    {
                        "number": 64,
                        "time": 82.73934957499972,
                        "value": 0
                    },
                    {
                        "number": 64,
                        "time": 82.78211266874972,
                        "value": 1
                    },
                    {
                        "number": 64,
                        "time": 83.06763855624972,
                        "value": 0
                    },
                    {
                        "number": 64,
                        "time": 83.23671724999971,
                        "value": 1
                    },
                    {
                        "number": 64,
                        "time": 83.37290125624972,
                        "value": 0
                    },
                    {
                        "number": 64,
                        "time": 83.42421696874972,
                        "value": 1
                    },
                    {
                        "number": 64,
                        "time": 84.0025055749997,
                        "value": 0
                    },
                    {
                        "number": 64,
                        "time": 84.0268476437497,
                        "value": 1
                    },
                    {
                        "number": 64,
                        "time": 84.1663211187497,
                        "value": 0
                    },
                    {
                        "number": 64,
                        "time": 84.20645263749971,
                        "value": 1
                    },
                    {
                        "number": 64,
                        "time": 84.3182945749997,
                        "value": 0
                    },
                    {
                        "number": 64,
                        "time": 84.3459261124997,
                        "value": 1
                    },
                    {
                        "number": 64,
                        "time": 84.4814522249997,
                        "value": 0
                    },
                    {
                        "number": 64,
                        "time": 84.5228995312497,
                        "value": 1
                    },
                    {
                        "number": 64,
                        "time": 84.63934672499971,
                        "value": 0
                    },
                    {
                        "number": 64,
                        "time": 84.66105721874972,
                        "value": 1
                    },
                    {
                        "number": 64,
                        "time": 84.79789911874973,
                        "value": 0
                    },
                    {
                        "number": 64,
                        "time": 84.82092539999972,
                        "value": 1
                    },
                    {
                        "number": 64,
                        "time": 84.95842519374972,
                        "value": 0
                    },
                    {
                        "number": 64,
                        "time": 84.99658303124971,
                        "value": 1
                    },
                    {
                        "number": 64,
                        "time": 85.11039864999972,
                        "value": 0
                    },
                    {
                        "number": 64,
                        "time": 85.13539861249973,
                        "value": 1
                    },
                    {
                        "number": 64,
                        "time": 85.26829314999974,
                        "value": 0
                    },
                    {
                        "number": 64,
                        "time": 85.29724047499974,
                        "value": 1
                    },
                    {
                        "number": 64,
                        "time": 85.42816133124974,
                        "value": 0
                    },
                    {
                        "number": 64,
                        "time": 85.45579286874974,
                        "value": 1
                    },
                    {
                        "number": 64,
                        "time": 85.59066108749974,
                        "value": 0
                    },
                    {
                        "number": 64,
                        "time": 85.62618734999974,
                        "value": 1
                    },
                    {
                        "number": 64,
                        "time": 85.74395033124974,
                        "value": 0
                    },
                    {
                        "number": 64,
                        "time": 85.78539763749974,
                        "value": 1
                    },
                    {
                        "number": 64,
                        "time": 85.89723957499973,
                        "value": 0
                    },
                    {
                        "number": 64,
                        "time": 85.96500263124973,
                        "value": 1
                    },
                    {
                        "number": 64,
                        "time": 86.22158119374973,
                        "value": 0
                    },
                    {
                        "number": 64,
                        "time": 86.54329123749973,
                        "value": 1
                    },
                    {
                        "number": 64,
                        "time": 86.69329101249974,
                        "value": 0
                    },
                    {
                        "number": 64,
                        "time": 86.72618569999975,
                        "value": 1
                    },
                    {
                        "number": 64,
                        "time": 86.89526439374976,
                        "value": 0
                    },
                    {
                        "number": 64,
                        "time": 87.81499985624966,
                        "value": 1
                    },
                    {
                        "number": 64,
                        "time": 87.95513122499966,
                        "value": 0
                    },
                    {
                        "number": 64,
                        "time": 87.98407854999967,
                        "value": 1
                    },
                    {
                        "number": 64,
                        "time": 88.16565722499966,
                        "value": 0
                    },
                    {
                        "number": 64,
                        "time": 88.28144652499965,
                        "value": 1
                    },
                    {
                        "number": 64,
                        "time": 88.42749893749965,
                        "value": 0
                    },
                    {
                        "number": 64,
                        "time": 88.44328838749965,
                        "value": 1
                    },
                    {
                        "number": 64,
                        "time": 88.58605133124965,
                        "value": 0
                    },
                    {
                        "number": 64,
                        "time": 88.60513024999965,
                        "value": 1
                    },
                    {
                        "number": 64,
                        "time": 88.74460372499965,
                        "value": 0
                    },
                    {
                        "number": 64,
                        "time": 88.75710370624965,
                        "value": 1
                    },
                    {
                        "number": 64,
                        "time": 88.90118243749966,
                        "value": 0
                    },
                    {
                        "number": 64,
                        "time": 89.06960323749966,
                        "value": 1
                    },
                    {
                        "number": 64,
                        "time": 89.21960301249968,
                        "value": 0
                    },
                    {
                        "number": 64,
                        "time": 89.25249769999968,
                        "value": 1
                    },
                    {
                        "number": 64,
                        "time": 89.42157639374969,
                        "value": 0
                    },
                    {
                        "number": 64,
                        "time": 90.34131185624959,
                        "value": 1
                    },
                    {
                        "number": 64,
                        "time": 90.4814432249996,
                        "value": 0
                    },
                    {
                        "number": 64,
                        "time": 90.5103905499996,
                        "value": 1
                    },
                    {
                        "number": 64,
                        "time": 90.6919692249996,
                        "value": 0
                    },
                    {
                        "number": 64,
                        "time": 90.80775852499958,
                        "value": 1
                    },
                    {
                        "number": 64,
                        "time": 90.95381093749958,
                        "value": 0
                    },
                    {
                        "number": 64,
                        "time": 90.96960038749958,
                        "value": 1
                    },
                    {
                        "number": 64,
                        "time": 91.11236333124958,
                        "value": 0
                    },
                    {
                        "number": 64,
                        "time": 91.13144224999958,
                        "value": 1
                    },
                    {
                        "number": 64,
                        "time": 91.27091572499958,
                        "value": 0
                    },
                    {
                        "number": 64,
                        "time": 91.28341570624958,
                        "value": 1
                    },
                    {
                        "number": 64,
                        "time": 91.42749443749959,
                        "value": 0
                    },
                    {
                        "number": 64,
                        "time": 91.5959152374996,
                        "value": 1
                    },
                    {
                        "number": 64,
                        "time": 91.74591501249961,
                        "value": 0
                    },
                    {
                        "number": 64,
                        "time": 91.77880969999961,
                        "value": 1
                    },
                    {
                        "number": 64,
                        "time": 91.94788839374962,
                        "value": 0
                    },
                    {
                        "number": 64,
                        "time": 92.37749301249957,
                        "value": 1
                    },
                    {
                        "number": 64,
                        "time": 92.53472961874957,
                        "value": 0
                    },
                    {
                        "number": 64,
                        "time": 92.56170326249956,
                        "value": 1
                    },
                    {
                        "number": 64,
                        "time": 92.69130833124956,
                        "value": 0
                    },
                    {
                        "number": 64,
                        "time": 92.86038702499955,
                        "value": 1
                    },
                    {
                        "number": 64,
                        "time": 93.00907101249956,
                        "value": 0
                    },
                    {
                        "number": 64,
                        "time": 93.04196569999957,
                        "value": 1
                    },
                    {
                        "number": 64,
                        "time": 93.21104439374957,
                        "value": 0
                    },
                    {
                        "number": 64,
                        "time": 93.66433318749952,
                        "value": 1
                    },
                    {
                        "number": 64,
                        "time": 93.79788561874952,
                        "value": 0
                    },
                    {
                        "number": 64,
                        "time": 93.82485926249952,
                        "value": 1
                    },
                    {
                        "number": 64,
                        "time": 93.95446433124951,
                        "value": 0
                    },
                    {
                        "number": 64,
                        "time": 94.12288513124952,
                        "value": 1
                    },
                    {
                        "number": 64,
                        "time": 94.27222701249953,
                        "value": 0
                    },
                    {
                        "number": 64,
                        "time": 94.30512169999953,
                        "value": 1
                    },
                    {
                        "number": 64,
                        "time": 94.47420039374954,
                        "value": 0
                    },
                    {
                        "number": 64,
                        "time": 94.75380523749955,
                        "value": 1
                    },
                    {
                        "number": 64,
                        "time": 94.90380501249956,
                        "value": 0
                    },
                    {
                        "number": 64,
                        "time": 94.93669969999956,
                        "value": 1
                    },
                    {
                        "number": 64,
                        "time": 95.10577839374957,
                        "value": 0
                    },
                    {
                        "number": 64,
                        "time": 96.66827604999956,
                        "value": 1
                    },
                    {
                        "number": 64,
                        "time": 96.81038109999956,
                        "value": 0
                    },
                    {
                        "number": 64,
                        "time": 97.00709133124955,
                        "value": 1
                    },
                    {
                        "number": 64,
                        "time": 97.11761748124955,
                        "value": 0
                    },
                    {
                        "number": 64,
                        "time": 97.31169613749955,
                        "value": 1
                    },
                    {
                        "number": 64,
                        "time": 97.42880122499955,
                        "value": 0
                    },
                    {
                        "number": 64,
                        "time": 97.62748513749955,
                        "value": 1
                    },
                    {
                        "number": 64,
                        "time": 97.74459022499954,
                        "value": 0
                    },
                    {
                        "number": 64,
                        "time": 97.93143204999954,
                        "value": 1
                    },
                    {
                        "number": 64,
                        "time": 98.06498448124954,
                        "value": 0
                    },
                    {
                        "number": 64,
                        "time": 98.24985262499953,
                        "value": 1
                    },
                    {
                        "number": 64,
                        "time": 98.36827349999953,
                        "value": 0
                    },
                    {
                        "number": 64,
                        "time": 98.57485213749953,
                        "value": 1
                    },
                    {
                        "number": 64,
                        "time": 98.69524669374952,
                        "value": 0
                    },
                    {
                        "number": 64,
                        "time": 98.88735166874953,
                        "value": 1
                    },
                    {
                        "number": 64,
                        "time": 99.01103569374953,
                        "value": 0
                    },
                    {
                        "number": 64,
                        "time": 99.19458804999954,
                        "value": 1
                    },
                    {
                        "number": 64,
                        "time": 99.32419311874953,
                        "value": 0
                    },
                    {
                        "number": 64,
                        "time": 99.54327173749952,
                        "value": 1
                    },
                    {
                        "number": 64,
                        "time": 99.63603475624953,
                        "value": 0
                    },
                    {
                        "number": 64,
                        "time": 99.83800813749953,
                        "value": 1
                    },
                    {
                        "number": 64,
                        "time": 99.96629741874952,
                        "value": 0
                    },
                    {
                        "number": 64,
                        "time": 100.15379713749952,
                        "value": 1
                    },
                    {
                        "number": 64,
                        "time": 100.28603378124951,
                        "value": 0
                    },
                    {
                        "number": 64,
                        "time": 100.45774404999952,
                        "value": 1
                    },
                    {
                        "number": 64,
                        "time": 100.58340175624951,
                        "value": 0
                    },
                    {
                        "number": 64,
                        "time": 100.77813830624952,
                        "value": 1
                    },
                    {
                        "number": 64,
                        "time": 100.89458549999952,
                        "value": 0
                    },
                    {
                        "number": 64,
                        "time": 101.10116413749952,
                        "value": 1
                    },
                    {
                        "number": 64,
                        "time": 101.22155869374951,
                        "value": 0
                    },
                    {
                        "number": 64,
                        "time": 101.41695313749952,
                        "value": 1
                    },
                    {
                        "number": 64,
                        "time": 101.53734769374951,
                        "value": 0
                    },
                    {
                        "number": 64,
                        "time": 101.72090004999951,
                        "value": 1
                    },
                    {
                        "number": 64,
                        "time": 101.84984722499951,
                        "value": 0
                    },
                    {
                        "number": 64,
                        "time": 102.04524166874951,
                        "value": 1
                    },
                    {
                        "number": 64,
                        "time": 102.16168886249952,
                        "value": 0
                    },
                    {
                        "number": 64,
                        "time": 102.36432013749952,
                        "value": 1
                    },
                    {
                        "number": 64,
                        "time": 102.64458287499951,
                        "value": 0
                    },
                    {
                        "number": 64,
                        "time": 102.68010913749951,
                        "value": 1
                    },
                    {
                        "number": 64,
                        "time": 102.89787196874951,
                        "value": 0
                    },
                    {
                        "number": 64,
                        "time": 102.98405604999952,
                        "value": 1
                    },
                    {
                        "number": 64,
                        "time": 103.11760848124952,
                        "value": 0
                    },
                    {
                        "number": 64,
                        "time": 103.33273973749951,
                        "value": 1
                    },
                    {
                        "number": 64,
                        "time": 103.45445008124952,
                        "value": 0
                    },
                    {
                        "number": 64,
                        "time": 103.62747613749953,
                        "value": 1
                    },
                    {
                        "number": 64,
                        "time": 103.90773887499952,
                        "value": 0
                    },
                    {
                        "number": 64,
                        "time": 103.94326513749952,
                        "value": 1
                    },
                    {
                        "number": 64,
                        "time": 104.17287005624952,
                        "value": 0
                    },
                    {
                        "number": 64,
                        "time": 104.24721204999953,
                        "value": 1
                    },
                    {
                        "number": 64,
                        "time": 104.53602740624953,
                        "value": 0
                    },
                    {
                        "number": 64,
                        "time": 104.56957998749954,
                        "value": 1
                    },
                    {
                        "number": 64,
                        "time": 104.84721114999954,
                        "value": 0
                    },
                    {
                        "number": 64,
                        "time": 104.86563217499953,
                        "value": 1
                    },
                    {
                        "number": 64,
                        "time": 105.17089487499953,
                        "value": 0
                    },
                    {
                        "number": 64,
                        "time": 105.20642113749953,
                        "value": 1
                    },
                    {
                        "number": 64,
                        "time": 105.48142072499952,
                        "value": 0
                    },
                    {
                        "number": 64,
                        "time": 105.52221013749953,
                        "value": 1
                    },
                    {
                        "number": 64,
                        "time": 105.80247287499952,
                        "value": 0
                    },
                    {
                        "number": 64,
                        "time": 105.83799913749952,
                        "value": 1
                    },
                    {
                        "number": 64,
                        "time": 106.10970925624952,
                        "value": 0
                    },
                    {
                        "number": 64,
                        "time": 106.19786701874952,
                        "value": 1
                    },
                    {
                        "number": 64,
                        "time": 106.50444550624952,
                        "value": 0
                    },
                    {
                        "number": 64,
                        "time": 116.86956153749938,
                        "value": 1
                    },
                    {
                        "number": 64,
                        "time": 118.12679649374938,
                        "value": 0
                    },
                    {
                        "number": 64,
                        "time": 118.14719119999938,
                        "value": 1
                    },
                    {
                        "number": 64,
                        "time": 118.75047976874939,
                        "value": 0
                    },
                    {
                        "number": 64,
                        "time": 118.79982179999939,
                        "value": 1
                    },
                    {
                        "number": 64,
                        "time": 119.3813998749994,
                        "value": 0
                    },
                    {
                        "number": 64,
                        "time": 119.4096893062494,
                        "value": 1
                    },
                    {
                        "number": 64,
                        "time": 120.0083726187494,
                        "value": 0
                    },
                    {
                        "number": 64,
                        "time": 120.03337258124941,
                        "value": 1
                    },
                    {
                        "number": 64,
                        "time": 120.6386348312494,
                        "value": 0
                    },
                    {
                        "number": 64,
                        "time": 120.6735031999994,
                        "value": 1
                    },
                    {
                        "number": 64,
                        "time": 121.2787654499994,
                        "value": 0
                    },
                    {
                        "number": 64,
                        "time": 121.3254759062494,
                        "value": 1
                    },
                    {
                        "number": 64,
                        "time": 121.89455399999939,
                        "value": 0
                    },
                    {
                        "number": 64,
                        "time": 121.92218553749939,
                        "value": 1
                    },
                    {
                        "number": 64,
                        "time": 123.17942049374939,
                        "value": 0
                    },
                    {
                        "number": 64,
                        "time": 123.19981519999939,
                        "value": 1
                    },
                    {
                        "number": 64,
                        "time": 123.8031037687494,
                        "value": 0
                    },
                    {
                        "number": 64,
                        "time": 123.8524457999994,
                        "value": 1
                    },
                    {
                        "number": 64,
                        "time": 124.43402387499941,
                        "value": 0
                    },
                    {
                        "number": 64,
                        "time": 124.46231330624941,
                        "value": 1
                    },
                    {
                        "number": 64,
                        "time": 125.06099661874941,
                        "value": 0
                    },
                    {
                        "number": 64,
                        "time": 125.08599658124942,
                        "value": 1
                    },
                    {
                        "number": 64,
                        "time": 125.69125883124941,
                        "value": 0
                    },
                    {
                        "number": 64,
                        "time": 125.72612719999941,
                        "value": 1
                    },
                    {
                        "number": 64,
                        "time": 126.3313894499994,
                        "value": 0
                    },
                    {
                        "number": 64,
                        "time": 126.3780999062494,
                        "value": 1
                    },
                    {
                        "number": 64,
                        "time": 126.9517832562494,
                        "value": 0
                    },
                    {
                        "number": 64,
                        "time": 126.9748095374994,
                        "value": 1
                    },
                    {
                        "number": 64,
                        "time": 128.2202024062494,
                        "value": 0
                    },
                    {
                        "number": 64,
                        "time": 128.3155969999994,
                        "value": 1
                    },
                    {
                        "number": 64,
                        "time": 128.8557277687494,
                        "value": 0
                    },
                    {
                        "number": 64,
                        "time": 128.9846749437494,
                        "value": 1
                    },
                    {
                        "number": 64,
                        "time": 129.4780952562494,
                        "value": 0
                    },
                    {
                        "number": 64,
                        "time": 129.5011215374994,
                        "value": 1
                    },
                    {
                        "number": 64,
                        "time": 130.7478301937494,
                        "value": 0
                    },
                    {
                        "number": 64,
                        "time": 130.82480376249939,
                        "value": 1
                    },
                    {
                        "number": 64,
                        "time": 131.37809240624938,
                        "value": 0
                    },
                    {
                        "number": 64,
                        "time": 131.45638176249938,
                        "value": 1
                    },
                    {
                        "number": 64,
                        "time": 132.00967040624937,
                        "value": 0
                    },
                    {
                        "number": 64,
                        "time": 132.02743353749938,
                        "value": 1
                    },
                    {
                        "number": 64,
                        "time": 133.2748000874994,
                        "value": 0
                    },
                    {
                        "number": 64,
                        "time": 133.33795788749939,
                        "value": 1
                    },
                    {
                        "number": 64,
                        "time": 133.5899311937494,
                        "value": 0
                    },
                    {
                        "number": 64,
                        "time": 134.24782494374938,
                        "value": 1
                    },
                    {
                        "number": 64,
                        "time": 134.5379560874994,
                        "value": 0
                    },
                    {
                        "number": 64,
                        "time": 134.5563771124994,
                        "value": 1
                    },
                    {
                        "number": 64,
                        "time": 134.8504556187494,
                        "value": 0
                    },
                    {
                        "number": 64,
                        "time": 134.8905871374994,
                        "value": 1
                    },
                    {
                        "number": 64,
                        "time": 135.16953408749941,
                        "value": 0
                    },
                    {
                        "number": 64,
                        "time": 135.19519194374942,
                        "value": 1
                    },
                    {
                        "number": 64,
                        "time": 135.79913840624943,
                        "value": 0
                    },
                    {
                        "number": 64,
                        "time": 135.8747961874994,
                        "value": 1
                    },
                    {
                        "number": 64,
                        "time": 136.7294001687494,
                        "value": 0
                    },
                    {
                        "number": 64,
                        "time": 137.07676806874937,
                        "value": 1
                    },
                    {
                        "number": 64,
                        "time": 137.68926714999935,
                        "value": 0
                    },
                    {
                        "number": 64,
                        "time": 137.70505659999935,
                        "value": 1
                    },
                    {
                        "number": 64,
                        "time": 138.00374036249937,
                        "value": 0
                    },
                    {
                        "number": 64,
                        "time": 138.02084559999938,
                        "value": 1
                    },
                    {
                        "number": 64,
                        "time": 138.32479251249939,
                        "value": 0
                    },
                    {
                        "number": 64,
                        "time": 138.3511082624994,
                        "value": 1
                    },
                    {
                        "number": 64,
                        "time": 138.79913390624932,
                        "value": 0
                    },
                    {
                        "number": 64,
                        "time": 138.82150229374932,
                        "value": 1
                    },
                    {
                        "number": 64,
                        "time": 139.11492290624926,
                        "value": 0
                    },
                    {
                        "number": 64,
                        "time": 139.13926497499926,
                        "value": 1
                    },
                    {
                        "number": 64,
                        "time": 139.5899221937492,
                        "value": 0
                    },
                    {
                        "number": 64,
                        "time": 139.6280800312492,
                        "value": 1
                    },
                    {
                        "number": 64,
                        "time": 140.21492125624917,
                        "value": 0
                    },
                    {
                        "number": 64,
                        "time": 140.23136859999917,
                        "value": 1
                    },
                    {
                        "number": 64,
                        "time": 140.5300523624992,
                        "value": 0
                    },
                    {
                        "number": 64,
                        "time": 140.5471575999992,
                        "value": 1
                    },
                    {
                        "number": 64,
                        "time": 140.8491308312492,
                        "value": 0
                    },
                    {
                        "number": 64,
                        "time": 140.8761044749992,
                        "value": 1
                    },
                    {
                        "number": 64,
                        "time": 142.07412899374918,
                        "value": 0
                    },
                    {
                        "number": 64,
                        "time": 142.28728656874918,
                        "value": 1
                    },
                    {
                        "number": 64,
                        "time": 142.90175933124917,
                        "value": 0
                    },
                    {
                        "number": 64,
                        "time": 142.91557509999916,
                        "value": 1
                    },
                    {
                        "number": 64,
                        "time": 143.21425886249918,
                        "value": 0
                    },
                    {
                        "number": 64,
                        "time": 143.23136409999918,
                        "value": 1
                    },
                    {
                        "number": 64,
                        "time": 143.5366267999992,
                        "value": 0
                    },
                    {
                        "number": 64,
                        "time": 143.5616267624992,
                        "value": 1
                    },
                    {
                        "number": 64,
                        "time": 144.00767872499912,
                        "value": 0
                    },
                    {
                        "number": 64,
                        "time": 144.0280734312491,
                        "value": 1
                    },
                    {
                        "number": 64,
                        "time": 144.32346772499906,
                        "value": 0
                    },
                    {
                        "number": 64,
                        "time": 144.34780979374906,
                        "value": 1
                    },
                    {
                        "number": 64,
                        "time": 144.80044069374898,
                        "value": 0
                    },
                    {
                        "number": 64,
                        "time": 144.83859853124898,
                        "value": 1
                    },
                    {
                        "number": 64,
                        "time": 145.42543975624895,
                        "value": 0
                    },
                    {
                        "number": 64,
                        "time": 145.44188709999895,
                        "value": 1
                    },
                    {
                        "number": 64,
                        "time": 145.74057086249897,
                        "value": 0
                    },
                    {
                        "number": 64,
                        "time": 145.75767609999897,
                        "value": 1
                    },
                    {
                        "number": 64,
                        "time": 146.05964933124898,
                        "value": 0
                    },
                    {
                        "number": 64,
                        "time": 146.10899136249898,
                        "value": 1
                    },
                    {
                        "number": 64,
                        "time": 147.25964753124896,
                        "value": 0
                    },
                    {
                        "number": 64,
                        "time": 147.36491053124897,
                        "value": 1
                    },
                    {
                        "number": 64,
                        "time": 147.95175175624894,
                        "value": 0
                    },
                    {
                        "number": 64,
                        "time": 147.96819909999894,
                        "value": 1
                    },
                    {
                        "number": 64,
                        "time": 148.26688286249896,
                        "value": 0
                    },
                    {
                        "number": 64,
                        "time": 148.28398809999896,
                        "value": 1
                    },
                    {
                        "number": 64,
                        "time": 148.58596133124897,
                        "value": 0
                    },
                    {
                        "number": 64,
                        "time": 149.55043356874896,
                        "value": 1
                    },
                    {
                        "number": 64,
                        "time": 149.70109123749896,
                        "value": 0
                    },
                    {
                        "number": 64,
                        "time": 149.88727516874894,
                        "value": 1
                    },
                    {
                        "number": 64,
                        "time": 150.47806375624893,
                        "value": 0
                    },
                    {
                        "number": 64,
                        "time": 150.49451109999893,
                        "value": 1
                    },
                    {
                        "number": 64,
                        "time": 150.79319486249895,
                        "value": 0
                    },
                    {
                        "number": 64,
                        "time": 150.81030009999895,
                        "value": 1
                    },
                    {
                        "number": 64,
                        "time": 151.11227333124896,
                        "value": 0
                    },
                    {
                        "number": 64,
                        "time": 152.06753505624894,
                        "value": 1
                    },
                    {
                        "number": 64,
                        "time": 152.15700860624895,
                        "value": 0
                    },
                    {
                        "number": 64,
                        "time": 152.23398217499894,
                        "value": 1
                    },
                    {
                        "number": 64,
                        "time": 152.3747714374989,
                        "value": 0
                    },
                    {
                        "number": 64,
                        "time": 152.4287187249989,
                        "value": 1
                    },
                    {
                        "number": 64,
                        "time": 152.8418759999989,
                        "value": 0
                    },
                    {
                        "number": 64,
                        "time": 152.87674436874892,
                        "value": 1
                    },
                    {
                        "number": 64,
                        "time": 153.0063494374989,
                        "value": 0
                    },
                    {
                        "number": 64,
                        "time": 153.0530598937489,
                        "value": 1
                    },
                    {
                        "number": 64,
                        "time": 153.4734539999989,
                        "value": 0
                    },
                    {
                        "number": 64,
                        "time": 153.5109539437489,
                        "value": 1
                    },
                    {
                        "number": 64,
                        "time": 153.6385853312489,
                        "value": 0
                    },
                    {
                        "number": 64,
                        "time": 153.7010852374989,
                        "value": 1
                    },
                    {
                        "number": 64,
                        "time": 154.1050319999989,
                        "value": 0
                    },
                    {
                        "number": 64,
                        "time": 154.16753190624888,
                        "value": 1
                    },
                    {
                        "number": 64,
                        "time": 154.26950543749888,
                        "value": 0
                    },
                    {
                        "number": 64,
                        "time": 154.31753168124888,
                        "value": 1
                    },
                    {
                        "number": 64,
                        "time": 154.74450472499888,
                        "value": 0
                    },
                    {
                        "number": 64,
                        "time": 154.77410994374887,
                        "value": 1
                    },
                    {
                        "number": 64,
                        "time": 154.90239922499887,
                        "value": 0
                    },
                    {
                        "number": 64,
                        "time": 154.92279393124886,
                        "value": 1
                    },
                    {
                        "number": 64,
                        "time": 155.36818799999887,
                        "value": 0
                    },
                    {
                        "number": 64,
                        "time": 155.38529323749887,
                        "value": 1
                    },
                    {
                        "number": 64,
                        "time": 155.53463511874887,
                        "value": 0
                    },
                    {
                        "number": 64,
                        "time": 155.58660872499885,
                        "value": 1
                    },
                    {
                        "number": 64,
                        "time": 155.99976599999886,
                        "value": 0
                    },
                    {
                        "number": 64,
                        "time": 156.04516066874885,
                        "value": 1
                    },
                    {
                        "number": 64,
                        "time": 156.16555522499883,
                        "value": 0
                    },
                    {
                        "number": 64,
                        "time": 156.2333182812488,
                        "value": 1
                    },
                    {
                        "number": 64,
                        "time": 156.79910690624882,
                        "value": 0
                    },
                    {
                        "number": 64,
                        "time": 156.90239622499882,
                        "value": 1
                    },
                    {
                        "number": 64,
                        "time": 157.42542175624882,
                        "value": 0
                    },
                    {
                        "number": 64,
                        "time": 157.43200069374882,
                        "value": 0
                    },
                    {
                        "number": 64,
                        "time": 157.4537111874988,
                        "value": 1
                    },
                    {
                        "number": 64,
                        "time": 158.05699975624879,
                        "value": 0
                    },
                    {
                        "number": 64,
                        "time": 158.08528918749877,
                        "value": 1
                    },
                    {
                        "number": 64,
                        "time": 158.37213086249878,
                        "value": 0
                    },
                    {
                        "number": 64,
                        "time": 158.4076571249988,
                        "value": 1
                    },
                    {
                        "number": 64,
                        "time": 158.6872619687488,
                        "value": 0
                    },
                    {
                        "number": 64,
                        "time": 158.7214724437488,
                        "value": 1
                    },
                    {
                        "number": 64,
                        "time": 159.3214715437488,
                        "value": 0
                    },
                    {
                        "number": 64,
                        "time": 159.3438399312488,
                        "value": 1
                    },
                    {
                        "number": 64,
                        "time": 159.6366026499988,
                        "value": 0
                    },
                    {
                        "number": 64,
                        "time": 159.6708131249988,
                        "value": 1
                    },
                    {
                        "number": 64,
                        "time": 159.95173375624879,
                        "value": 0
                    },
                    {
                        "number": 64,
                        "time": 159.99844421249878,
                        "value": 1
                    },
                    {
                        "number": 64,
                        "time": 160.58331175624878,
                        "value": 0
                    },
                    {
                        "number": 64,
                        "time": 160.6023906749988,
                        "value": 1
                    },
                    {
                        "number": 64,
                        "time": 160.8958112874988,
                        "value": 0
                    },
                    {
                        "number": 64,
                        "time": 160.92475861249878,
                        "value": 1
                    },
                    {
                        "number": 64,
                        "time": 161.21686343749877,
                        "value": 0
                    },
                    {
                        "number": 64,
                        "time": 161.28594228124877,
                        "value": 1
                    },
                    {
                        "number": 64,
                        "time": 161.85173090624878,
                        "value": 0
                    },
                    {
                        "number": 64,
                        "time": 161.95502022499878,
                        "value": 1
                    },
                    {
                        "number": 64,
                        "time": 162.47870364999878,
                        "value": 0
                    },
                    {
                        "number": 64,
                        "time": 162.48462469374877,
                        "value": 0
                    },
                    {
                        "number": 64,
                        "time": 162.50633518749876,
                        "value": 1
                    },
                    {
                        "number": 64,
                        "time": 163.11028164999874,
                        "value": 0
                    },
                    {
                        "number": 64,
                        "time": 163.13330793124874,
                        "value": 1
                    },
                    {
                        "number": 64,
                        "time": 163.42343907499875,
                        "value": 0
                    },
                    {
                        "number": 64,
                        "time": 163.46028112499874,
                        "value": 1
                    },
                    {
                        "number": 64,
                        "time": 163.73988596874875,
                        "value": 0
                    },
                    {
                        "number": 64,
                        "time": 163.77409644374876,
                        "value": 1
                    },
                    {
                        "number": 64,
                        "time": 164.37672711874876,
                        "value": 0
                    },
                    {
                        "number": 64,
                        "time": 164.40764812499876,
                        "value": 1
                    },
                    {
                        "number": 64,
                        "time": 164.68791086249877,
                        "value": 0
                    },
                    {
                        "number": 64,
                        "time": 164.71225293124877,
                        "value": 1
                    },
                    {
                        "number": 64,
                        "time": 165.00435775624877,
                        "value": 0
                    },
                    {
                        "number": 64,
                        "time": 165.05106821249876,
                        "value": 1
                    },
                    {
                        "number": 64,
                        "time": 165.63790943749876,
                        "value": 0
                    },
                    {
                        "number": 64,
                        "time": 165.66619886874875,
                        "value": 1
                    },
                    {
                        "number": 64,
                        "time": 165.95633001249874,
                        "value": 0
                    },
                    {
                        "number": 64,
                        "time": 166.00501414999874,
                        "value": 1
                    },
                    {
                        "number": 64,
                        "time": 166.26948743749873,
                        "value": 0
                    },
                    {
                        "number": 64,
                        "time": 166.33856628124872,
                        "value": 1
                    },
                    {
                        "number": 64,
                        "time": 166.90435490624873,
                        "value": 0
                    },
                    {
                        "number": 64,
                        "time": 167.00764422499873,
                        "value": 1
                    },
                    {
                        "number": 64,
                        "time": 167.5260644999987,
                        "value": 0
                    },
                    {
                        "number": 64,
                        "time": 167.55172235624872,
                        "value": 1
                    },
                    {
                        "number": 64,
                        "time": 168.80172048124848,
                        "value": 0
                    },
                    {
                        "number": 64,
                        "time": 168.82672044374848,
                        "value": 1
                    },
                    {
                        "number": 64,
                        "time": 170.05632386249832,
                        "value": 0
                    },
                    {
                        "number": 64,
                        "time": 170.0780343562483,
                        "value": 1
                    },
                    {
                        "number": 64,
                        "time": 171.6313214999981,
                        "value": 0
                    },
                    {
                        "number": 64,
                        "time": 172.28000473749853,
                        "value": 1
                    },
                    {
                        "number": 64,
                        "time": 172.89447749999852,
                        "value": 0
                    },
                    {
                        "number": 64,
                        "time": 172.98263526249852,
                        "value": 1
                    },
                    {
                        "number": 64,
                        "time": 173.9563180124985,
                        "value": 0
                    }
                ]
            },
            "id": 2,
            "name": "Piano left",
            "instrumentNumber": 0,
            "instrument": "acoustic grand piano",
            "instrumentFamily": "piano",
            "channelNumber": 0,
            "isPercussion": false
        },
        {
            "startTime": 116.84193,
            "duration": 132.9471690000007,
            "length": 219,
            "notes": [
                {
                    "name": "E5",
                    "midi": 76,
                    "time": 116.84193,
                    "velocity": 0.13385826771653545,
                    "duration": 0.05263150000000394
                },
                {
                    "name": "F5",
                    "midi": 77,
                    "time": 116.89456150000001,
                    "velocity": 0.13385826771653545,
                    "duration": 0.05263150000000394
                },
                {
                    "name": "E5",
                    "midi": 76,
                    "time": 116.94719300000001,
                    "velocity": 0.14173228346456693,
                    "duration": 0.05263150000000394
                },
                {
                    "name": "F5",
                    "midi": 77,
                    "time": 116.99982450000002,
                    "velocity": 0.14173228346456693,
                    "duration": 0.05263150000000394
                },
                {
                    "name": "E5",
                    "midi": 76,
                    "time": 117.05245600000002,
                    "velocity": 0.14173228346456693,
                    "duration": 0.05263150000000394
                },
                {
                    "name": "F5",
                    "midi": 77,
                    "time": 117.10508750000002,
                    "velocity": 0.14173228346456693,
                    "duration": 0.05263150000000394
                },
                {
                    "name": "E5",
                    "midi": 76,
                    "time": 117.15771900000003,
                    "velocity": 0.14173228346456693,
                    "duration": 0.05263150000000394
                },
                {
                    "name": "F5",
                    "midi": 77,
                    "time": 117.21035050000003,
                    "velocity": 0.15748031496062992,
                    "duration": 0.05263150000000394
                },
                {
                    "name": "E5",
                    "midi": 76,
                    "time": 117.26298200000004,
                    "velocity": 0.15748031496062992,
                    "duration": 0.05263150000000394
                },
                {
                    "name": "F5",
                    "midi": 77,
                    "time": 117.31561350000004,
                    "velocity": 0.1732283464566929,
                    "duration": 0.05263150000000394
                },
                {
                    "name": "E5",
                    "midi": 76,
                    "time": 117.36824500000004,
                    "velocity": 0.18110236220472442,
                    "duration": 0.05263150000000394
                },
                {
                    "name": "F5",
                    "midi": 77,
                    "time": 117.42087650000005,
                    "velocity": 0.18110236220472442,
                    "duration": 0.05263150000000394
                },
                {
                    "name": "E5",
                    "midi": 76,
                    "time": 117.47350800000005,
                    "velocity": 0.1732283464566929,
                    "duration": 0.05263150000000394
                },
                {
                    "name": "F5",
                    "midi": 77,
                    "time": 117.52613950000006,
                    "velocity": 0.1732283464566929,
                    "duration": 0.05263150000000394
                },
                {
                    "name": "E5",
                    "midi": 76,
                    "time": 117.57877100000006,
                    "velocity": 0.1732283464566929,
                    "duration": 0.05263150000000394
                },
                {
                    "name": "F5",
                    "midi": 77,
                    "time": 117.63140250000006,
                    "velocity": 0.1732283464566929,
                    "duration": 0.05263150000000394
                },
                {
                    "name": "E5",
                    "midi": 76,
                    "time": 117.68403400000007,
                    "velocity": 0.1732283464566929,
                    "duration": 0.05263150000000394
                },
                {
                    "name": "F5",
                    "midi": 77,
                    "time": 117.73666550000007,
                    "velocity": 0.1732283464566929,
                    "duration": 0.05263150000000394
                },
                {
                    "name": "E5",
                    "midi": 76,
                    "time": 117.78929700000008,
                    "velocity": 0.1732283464566929,
                    "duration": 0.05263150000000394
                },
                {
                    "name": "F5",
                    "midi": 77,
                    "time": 117.84192850000008,
                    "velocity": 0.1732283464566929,
                    "duration": 0.05263150000000394
                },
                {
                    "name": "E5",
                    "midi": 76,
                    "time": 117.89456000000008,
                    "velocity": 0.1732283464566929,
                    "duration": 0.05263150000000394
                },
                {
                    "name": "F5",
                    "midi": 77,
                    "time": 117.94719150000009,
                    "velocity": 0.1732283464566929,
                    "duration": 0.05263150000000394
                },
                {
                    "name": "E5",
                    "midi": 76,
                    "time": 117.99982300000009,
                    "velocity": 0.1732283464566929,
                    "duration": 0.05263150000000394
                },
                {
                    "name": "F5",
                    "midi": 77,
                    "time": 118.0524545000001,
                    "velocity": 0.1732283464566929,
                    "duration": 0.05263150000000394
                },
                {
                    "name": "E5",
                    "midi": 76,
                    "time": 118.1050860000001,
                    "velocity": 0.16535433070866143,
                    "duration": 0.05263150000000394
                },
                {
                    "name": "F5",
                    "midi": 77,
                    "time": 118.1577175000001,
                    "velocity": 0.16535433070866143,
                    "duration": 0.05263150000000394
                },
                {
                    "name": "E5",
                    "midi": 76,
                    "time": 118.21034900000011,
                    "velocity": 0.16535433070866143,
                    "duration": 0.05263150000000394
                },
                {
                    "name": "F5",
                    "midi": 77,
                    "time": 118.26298050000011,
                    "velocity": 0.1732283464566929,
                    "duration": 0.05263150000000394
                },
                {
                    "name": "E5",
                    "midi": 76,
                    "time": 118.31561200000012,
                    "velocity": 0.1732283464566929,
                    "duration": 0.05263150000000394
                },
                {
                    "name": "F5",
                    "midi": 77,
                    "time": 118.36824350000012,
                    "velocity": 0.1732283464566929,
                    "duration": 0.05263150000000394
                },
                {
                    "name": "E5",
                    "midi": 76,
                    "time": 118.42087500000012,
                    "velocity": 0.18110236220472442,
                    "duration": 0.05263150000000394
                },
                {
                    "name": "F5",
                    "midi": 77,
                    "time": 118.47350650000013,
                    "velocity": 0.1889763779527559,
                    "duration": 0.05263150000000394
                },
                {
                    "name": "E5",
                    "midi": 76,
                    "time": 118.52613800000013,
                    "velocity": 0.1889763779527559,
                    "duration": 0.05263150000000394
                },
                {
                    "name": "F5",
                    "midi": 77,
                    "time": 118.57876950000013,
                    "velocity": 0.1968503937007874,
                    "duration": 0.05263150000000394
                },
                {
                    "name": "E5",
                    "midi": 76,
                    "time": 118.63140100000014,
                    "velocity": 0.2047244094488189,
                    "duration": 0.05263150000000394
                },
                {
                    "name": "F5",
                    "midi": 77,
                    "time": 118.68403250000014,
                    "velocity": 0.2283464566929134,
                    "duration": 0.05263150000000394
                },
                {
                    "name": "E5",
                    "midi": 76,
                    "time": 118.73666400000015,
                    "velocity": 0.2440944881889764,
                    "duration": 0.05263150000000394
                },
                {
                    "name": "F5",
                    "midi": 77,
                    "time": 118.78929550000015,
                    "velocity": 0.23622047244094488,
                    "duration": 0.05263150000000394
                },
                {
                    "name": "E5",
                    "midi": 76,
                    "time": 118.84192700000015,
                    "velocity": 0.2283464566929134,
                    "duration": 0.05263150000000394
                },
                {
                    "name": "F5",
                    "midi": 77,
                    "time": 118.89455850000016,
                    "velocity": 0.2283464566929134,
                    "duration": 0.05263150000000394
                },
                {
                    "name": "E5",
                    "midi": 76,
                    "time": 118.94719000000016,
                    "velocity": 0.2283464566929134,
                    "duration": 0.05263150000000394
                },
                {
                    "name": "F5",
                    "midi": 77,
                    "time": 118.99982150000017,
                    "velocity": 0.2125984251968504,
                    "duration": 0.05263150000000394
                },
                {
                    "name": "E5",
                    "midi": 76,
                    "time": 119.05245300000017,
                    "velocity": 0.1968503937007874,
                    "duration": 0.05263150000000394
                },
                {
                    "name": "F5",
                    "midi": 77,
                    "time": 119.10508450000017,
                    "velocity": 0.1968503937007874,
                    "duration": 0.05263150000000394
                },
                {
                    "name": "E5",
                    "midi": 76,
                    "time": 119.15771600000018,
                    "velocity": 0.1968503937007874,
                    "duration": 0.05263150000000394
                },
                {
                    "name": "F5",
                    "midi": 77,
                    "time": 119.21034750000018,
                    "velocity": 0.1968503937007874,
                    "duration": 0.05263150000000394
                },
                {
                    "name": "E5",
                    "midi": 76,
                    "time": 119.26297900000019,
                    "velocity": 0.1968503937007874,
                    "duration": 0.05263150000000394
                },
                {
                    "name": "F5",
                    "midi": 77,
                    "time": 119.31561050000019,
                    "velocity": 0.18110236220472442,
                    "duration": 0.05263150000000394
                },
                {
                    "name": "E5",
                    "midi": 76,
                    "time": 119.3682420000002,
                    "velocity": 0.14960629921259844,
                    "duration": 0.05263150000000394
                },
                {
                    "name": "F5",
                    "midi": 77,
                    "time": 119.4208735000002,
                    "velocity": 0.18110236220472442,
                    "duration": 0.05263150000000394
                },
                {
                    "name": "E5",
                    "midi": 76,
                    "time": 119.4735050000002,
                    "velocity": 0.1889763779527559,
                    "duration": 0.05263150000000394
                },
                {
                    "name": "F5",
                    "midi": 77,
                    "time": 119.5261365000002,
                    "velocity": 0.1889763779527559,
                    "duration": 0.05263150000000394
                },
                {
                    "name": "E5",
                    "midi": 76,
                    "time": 119.57876800000021,
                    "velocity": 0.1968503937007874,
                    "duration": 0.05263150000000394
                },
                {
                    "name": "F5",
                    "midi": 77,
                    "time": 119.63139950000021,
                    "velocity": 0.1968503937007874,
                    "duration": 0.05263150000000394
                },
                {
                    "name": "E5",
                    "midi": 76,
                    "time": 119.68403100000022,
                    "velocity": 0.1968503937007874,
                    "duration": 0.05263150000000394
                },
                {
                    "name": "F5",
                    "midi": 77,
                    "time": 119.73666250000022,
                    "velocity": 0.2047244094488189,
                    "duration": 0.05263150000000394
                },
                {
                    "name": "E5",
                    "midi": 76,
                    "time": 119.78929400000023,
                    "velocity": 0.2047244094488189,
                    "duration": 0.05263150000000394
                },
                {
                    "name": "F5",
                    "midi": 77,
                    "time": 119.84192550000023,
                    "velocity": 0.2047244094488189,
                    "duration": 0.05263150000000394
                },
                {
                    "name": "E5",
                    "midi": 76,
                    "time": 119.89455700000023,
                    "velocity": 0.2204724409448819,
                    "duration": 0.05263150000000394
                },
                {
                    "name": "F5",
                    "midi": 77,
                    "time": 119.94718850000024,
                    "velocity": 0.2204724409448819,
                    "duration": 0.05263150000000394
                },
                {
                    "name": "E5",
                    "midi": 76,
                    "time": 119.99982000000024,
                    "velocity": 0.2204724409448819,
                    "duration": 0.05263150000000394
                },
                {
                    "name": "F5",
                    "midi": 77,
                    "time": 120.05245150000025,
                    "velocity": 0.2283464566929134,
                    "duration": 0.05263150000000394
                },
                {
                    "name": "E5",
                    "midi": 76,
                    "time": 120.10508300000025,
                    "velocity": 0.2283464566929134,
                    "duration": 0.05263150000000394
                },
                {
                    "name": "F5",
                    "midi": 77,
                    "time": 120.15771450000025,
                    "velocity": 0.2283464566929134,
                    "duration": 0.05263150000000394
                },
                {
                    "name": "E5",
                    "midi": 76,
                    "time": 120.21034600000026,
                    "velocity": 0.2283464566929134,
                    "duration": 0.05263150000000394
                },
                {
                    "name": "F5",
                    "midi": 77,
                    "time": 120.26297750000026,
                    "velocity": 0.2283464566929134,
                    "duration": 0.05263150000000394
                },
                {
                    "name": "E5",
                    "midi": 76,
                    "time": 120.31560900000026,
                    "velocity": 0.2283464566929134,
                    "duration": 0.05263150000000394
                },
                {
                    "name": "F5",
                    "midi": 77,
                    "time": 120.36824050000027,
                    "velocity": 0.2283464566929134,
                    "duration": 0.05263150000000394
                },
                {
                    "name": "E5",
                    "midi": 76,
                    "time": 120.42087200000027,
                    "velocity": 0.2125984251968504,
                    "duration": 0.05263150000000394
                },
                {
                    "name": "F5",
                    "midi": 77,
                    "time": 120.47350350000028,
                    "velocity": 0.1968503937007874,
                    "duration": 0.05263150000000394
                },
                {
                    "name": "E5",
                    "midi": 76,
                    "time": 120.52613500000028,
                    "velocity": 0.1968503937007874,
                    "duration": 0.05263150000000394
                },
                {
                    "name": "F5",
                    "midi": 77,
                    "time": 120.57876650000028,
                    "velocity": 0.1968503937007874,
                    "duration": 0.05263150000000394
                },
                {
                    "name": "E5",
                    "midi": 76,
                    "time": 120.63139800000029,
                    "velocity": 0.2047244094488189,
                    "duration": 0.05263150000000394
                },
                {
                    "name": "F5",
                    "midi": 77,
                    "time": 120.68402950000029,
                    "velocity": 0.1732283464566929,
                    "duration": 0.05263150000000394
                },
                {
                    "name": "E5",
                    "midi": 76,
                    "time": 120.7366610000003,
                    "velocity": 0.18110236220472442,
                    "duration": 0.05263150000000394
                },
                {
                    "name": "F5",
                    "midi": 77,
                    "time": 120.7892925000003,
                    "velocity": 0.1889763779527559,
                    "duration": 0.05263150000000394
                },
                {
                    "name": "E5",
                    "midi": 76,
                    "time": 120.8419240000003,
                    "velocity": 0.1889763779527559,
                    "duration": 0.05263150000000394
                },
                {
                    "name": "F5",
                    "midi": 77,
                    "time": 120.89455550000031,
                    "velocity": 0.1889763779527559,
                    "duration": 0.05263150000000394
                },
                {
                    "name": "E5",
                    "midi": 76,
                    "time": 120.94718700000031,
                    "velocity": 0.2047244094488189,
                    "duration": 0.05263150000000394
                },
                {
                    "name": "F5",
                    "midi": 77,
                    "time": 120.99981850000032,
                    "velocity": 0.2204724409448819,
                    "duration": 0.05263150000000394
                },
                {
                    "name": "E5",
                    "midi": 76,
                    "time": 121.05245000000032,
                    "velocity": 0.2204724409448819,
                    "duration": 0.05263150000000394
                },
                {
                    "name": "F5",
                    "midi": 77,
                    "time": 121.10508150000032,
                    "velocity": 0.23622047244094488,
                    "duration": 0.05263150000000394
                },
                {
                    "name": "E5",
                    "midi": 76,
                    "time": 121.15771300000033,
                    "velocity": 0.2440944881889764,
                    "duration": 0.05263150000000394
                },
                {
                    "name": "F5",
                    "midi": 77,
                    "time": 121.21034450000033,
                    "velocity": 0.2440944881889764,
                    "duration": 0.05263150000000394
                },
                {
                    "name": "E5",
                    "midi": 76,
                    "time": 121.26297600000034,
                    "velocity": 0.23622047244094488,
                    "duration": 0.05263150000000394
                },
                {
                    "name": "F5",
                    "midi": 77,
                    "time": 121.31560750000034,
                    "velocity": 0.23622047244094488,
                    "duration": 0.05263150000000394
                },
                {
                    "name": "E5",
                    "midi": 76,
                    "time": 121.36823900000034,
                    "velocity": 0.23622047244094488,
                    "duration": 0.05263150000000394
                },
                {
                    "name": "F5",
                    "midi": 77,
                    "time": 121.42087050000035,
                    "velocity": 0.23622047244094488,
                    "duration": 0.05263150000000394
                },
                {
                    "name": "E5",
                    "midi": 76,
                    "time": 121.47350200000035,
                    "velocity": 0.2283464566929134,
                    "duration": 0.05263150000000394
                },
                {
                    "name": "F5",
                    "midi": 77,
                    "time": 121.52613350000036,
                    "velocity": 0.2047244094488189,
                    "duration": 0.05263150000000394
                },
                {
                    "name": "E5",
                    "midi": 76,
                    "time": 121.57876500000036,
                    "velocity": 0.2047244094488189,
                    "duration": 0.05263150000000394
                },
                {
                    "name": "F5",
                    "midi": 77,
                    "time": 121.63139650000036,
                    "velocity": 0.1968503937007874,
                    "duration": 0.05263150000000394
                },
                {
                    "name": "E5",
                    "midi": 76,
                    "time": 121.68402800000037,
                    "velocity": 0.1889763779527559,
                    "duration": 0.05263150000000394
                },
                {
                    "name": "F5",
                    "midi": 77,
                    "time": 121.73665950000037,
                    "velocity": 0.1889763779527559,
                    "duration": 0.05263150000000394
                },
                {
                    "name": "E5",
                    "midi": 76,
                    "time": 121.78929100000038,
                    "velocity": 0.18110236220472442,
                    "duration": 0.05263150000000394
                },
                {
                    "name": "F5",
                    "midi": 77,
                    "time": 121.84192250000038,
                    "velocity": 0.16535433070866143,
                    "duration": 0.05263150000000394
                },
                {
                    "name": "E5",
                    "midi": 76,
                    "time": 121.89455400000038,
                    "velocity": 0.16535433070866143,
                    "duration": 0.05263150000000394
                },
                {
                    "name": "F5",
                    "midi": 77,
                    "time": 121.94718550000039,
                    "velocity": 0.16535433070866143,
                    "duration": 0.05263150000000394
                },
                {
                    "name": "E5",
                    "midi": 76,
                    "time": 121.99981700000039,
                    "velocity": 0.16535433070866143,
                    "duration": 0.05263150000000394
                },
                {
                    "name": "F5",
                    "midi": 77,
                    "time": 122.0524485000004,
                    "velocity": 0.1732283464566929,
                    "duration": 0.05263150000000394
                },
                {
                    "name": "E5",
                    "midi": 76,
                    "time": 122.1050800000004,
                    "velocity": 0.1889763779527559,
                    "duration": 0.05263150000000394
                },
                {
                    "name": "F5",
                    "midi": 77,
                    "time": 122.1577115000004,
                    "velocity": 0.1889763779527559,
                    "duration": 0.05263150000000394
                },
                {
                    "name": "E5",
                    "midi": 76,
                    "time": 122.2103430000004,
                    "velocity": 0.1968503937007874,
                    "duration": 0.05263150000000394
                },
                {
                    "name": "F5",
                    "midi": 77,
                    "time": 122.26297450000041,
                    "velocity": 0.2047244094488189,
                    "duration": 0.05263150000000394
                },
                {
                    "name": "E5",
                    "midi": 76,
                    "time": 122.31560600000041,
                    "velocity": 0.2047244094488189,
                    "duration": 0.05263150000000394
                },
                {
                    "name": "F5",
                    "midi": 77,
                    "time": 122.36823750000042,
                    "velocity": 0.2204724409448819,
                    "duration": 0.05263150000000394
                },
                {
                    "name": "E5",
                    "midi": 76,
                    "time": 122.42086900000042,
                    "velocity": 0.2204724409448819,
                    "duration": 0.05263150000000394
                },
                {
                    "name": "F5",
                    "midi": 77,
                    "time": 122.47350050000043,
                    "velocity": 0.2204724409448819,
                    "duration": 0.05263150000000394
                },
                {
                    "name": "E5",
                    "midi": 76,
                    "time": 122.52613200000043,
                    "velocity": 0.2125984251968504,
                    "duration": 0.05263150000000394
                },
                {
                    "name": "F5",
                    "midi": 77,
                    "time": 122.57876350000043,
                    "velocity": 0.2125984251968504,
                    "duration": 0.05263150000000394
                },
                {
                    "name": "E5",
                    "midi": 76,
                    "time": 122.63139500000044,
                    "velocity": 0.2125984251968504,
                    "duration": 0.05263150000000394
                },
                {
                    "name": "F5",
                    "midi": 77,
                    "time": 122.68402650000044,
                    "velocity": 0.2125984251968504,
                    "duration": 0.05263150000000394
                },
                {
                    "name": "E5",
                    "midi": 76,
                    "time": 122.73665800000045,
                    "velocity": 0.1968503937007874,
                    "duration": 0.05263150000000394
                },
                {
                    "name": "F5",
                    "midi": 77,
                    "time": 122.78928950000045,
                    "velocity": 0.18110236220472442,
                    "duration": 0.05263150000000394
                },
                {
                    "name": "E5",
                    "midi": 76,
                    "time": 122.84192100000045,
                    "velocity": 0.18110236220472442,
                    "duration": 0.05263150000000394
                },
                {
                    "name": "F5",
                    "midi": 77,
                    "time": 122.89455250000046,
                    "velocity": 0.18110236220472442,
                    "duration": 0.05263150000000394
                },
                {
                    "name": "E5",
                    "midi": 76,
                    "time": 122.94718400000046,
                    "velocity": 0.18110236220472442,
                    "duration": 0.05263150000000394
                },
                {
                    "name": "F5",
                    "midi": 77,
                    "time": 122.99981550000047,
                    "velocity": 0.18110236220472442,
                    "duration": 0.05263150000000394
                },
                {
                    "name": "E5",
                    "midi": 76,
                    "time": 123.05244700000047,
                    "velocity": 0.18110236220472442,
                    "duration": 0.05263150000000394
                },
                {
                    "name": "F5",
                    "midi": 77,
                    "time": 123.10507850000047,
                    "velocity": 0.18110236220472442,
                    "duration": 0.05263150000000394
                },
                {
                    "name": "E5",
                    "midi": 76,
                    "time": 123.15771000000048,
                    "velocity": 0.18110236220472442,
                    "duration": 0.05263150000000394
                },
                {
                    "name": "F5",
                    "midi": 77,
                    "time": 123.21034150000048,
                    "velocity": 0.18110236220472442,
                    "duration": 0.05263150000000394
                },
                {
                    "name": "E5",
                    "midi": 76,
                    "time": 123.26297300000049,
                    "velocity": 0.18110236220472442,
                    "duration": 0.05263150000000394
                },
                {
                    "name": "F5",
                    "midi": 77,
                    "time": 123.31560450000049,
                    "velocity": 0.18110236220472442,
                    "duration": 0.05263150000000394
                },
                {
                    "name": "E5",
                    "midi": 76,
                    "time": 123.3682360000005,
                    "velocity": 0.1968503937007874,
                    "duration": 0.05263150000000394
                },
                {
                    "name": "F5",
                    "midi": 77,
                    "time": 123.4208675000005,
                    "velocity": 0.1732283464566929,
                    "duration": 0.05263150000000394
                },
                {
                    "name": "E5",
                    "midi": 76,
                    "time": 123.4734990000005,
                    "velocity": 0.1732283464566929,
                    "duration": 0.05263150000000394
                },
                {
                    "name": "F5",
                    "midi": 77,
                    "time": 123.5261305000005,
                    "velocity": 0.1732283464566929,
                    "duration": 0.05263150000000394
                },
                {
                    "name": "E5",
                    "midi": 76,
                    "time": 123.57876200000051,
                    "velocity": 0.1732283464566929,
                    "duration": 0.05263150000000394
                },
                {
                    "name": "F5",
                    "midi": 77,
                    "time": 123.63139350000051,
                    "velocity": 0.18110236220472442,
                    "duration": 0.05263150000000394
                },
                {
                    "name": "E5",
                    "midi": 76,
                    "time": 123.68402500000052,
                    "velocity": 0.1968503937007874,
                    "duration": 0.05263150000000394
                },
                {
                    "name": "F5",
                    "midi": 77,
                    "time": 123.73665650000052,
                    "velocity": 0.2047244094488189,
                    "duration": 0.05263150000000394
                },
                {
                    "name": "E5",
                    "midi": 76,
                    "time": 123.78928800000052,
                    "velocity": 0.2125984251968504,
                    "duration": 0.05263150000000394
                },
                {
                    "name": "F5",
                    "midi": 77,
                    "time": 123.84191950000053,
                    "velocity": 0.2125984251968504,
                    "duration": 0.05263150000000394
                },
                {
                    "name": "E5",
                    "midi": 76,
                    "time": 123.89455100000053,
                    "velocity": 0.2125984251968504,
                    "duration": 0.05263150000000394
                },
                {
                    "name": "F5",
                    "midi": 77,
                    "time": 123.94718250000054,
                    "velocity": 0.2125984251968504,
                    "duration": 0.05263150000000394
                },
                {
                    "name": "E5",
                    "midi": 76,
                    "time": 123.99981400000054,
                    "velocity": 0.2125984251968504,
                    "duration": 0.05263150000000394
                },
                {
                    "name": "F5",
                    "midi": 77,
                    "time": 124.05244550000054,
                    "velocity": 0.2125984251968504,
                    "duration": 0.05263150000000394
                },
                {
                    "name": "E5",
                    "midi": 76,
                    "time": 124.10507700000055,
                    "velocity": 0.2047244094488189,
                    "duration": 0.05263150000000394
                },
                {
                    "name": "F5",
                    "midi": 77,
                    "time": 124.15770850000055,
                    "velocity": 0.1968503937007874,
                    "duration": 0.05263150000000394
                },
                {
                    "name": "E5",
                    "midi": 76,
                    "time": 124.21034000000056,
                    "velocity": 0.1968503937007874,
                    "duration": 0.05263150000000394
                },
                {
                    "name": "F5",
                    "midi": 77,
                    "time": 124.26297150000056,
                    "velocity": 0.1968503937007874,
                    "duration": 0.05263150000000394
                },
                {
                    "name": "E5",
                    "midi": 76,
                    "time": 124.31560300000056,
                    "velocity": 0.1889763779527559,
                    "duration": 0.05263150000000394
                },
                {
                    "name": "F5",
                    "midi": 77,
                    "time": 124.36823450000057,
                    "velocity": 0.14960629921259844,
                    "duration": 0.05263150000000394
                },
                {
                    "name": "E5",
                    "midi": 76,
                    "time": 124.42086600000057,
                    "velocity": 0.13385826771653545,
                    "duration": 0.05263150000000394
                },
                {
                    "name": "F5",
                    "midi": 77,
                    "time": 124.47349750000058,
                    "velocity": 0.14173228346456693,
                    "duration": 0.05263150000000394
                },
                {
                    "name": "E5",
                    "midi": 76,
                    "time": 124.52612900000058,
                    "velocity": 0.14173228346456693,
                    "duration": 0.05263150000000394
                },
                {
                    "name": "F5",
                    "midi": 77,
                    "time": 124.57876050000058,
                    "velocity": 0.15748031496062992,
                    "duration": 0.05263150000000394
                },
                {
                    "name": "E5",
                    "midi": 76,
                    "time": 124.63139200000059,
                    "velocity": 0.15748031496062992,
                    "duration": 0.05263150000000394
                },
                {
                    "name": "F5",
                    "midi": 77,
                    "time": 124.68402350000059,
                    "velocity": 0.1732283464566929,
                    "duration": 0.05263150000000394
                },
                {
                    "name": "E5",
                    "midi": 76,
                    "time": 124.7366550000006,
                    "velocity": 0.1889763779527559,
                    "duration": 0.05263150000000394
                },
                {
                    "name": "F5",
                    "midi": 77,
                    "time": 124.7892865000006,
                    "velocity": 0.1968503937007874,
                    "duration": 0.05263150000000394
                },
                {
                    "name": "E5",
                    "midi": 76,
                    "time": 124.8419180000006,
                    "velocity": 0.2047244094488189,
                    "duration": 0.05263150000000394
                },
                {
                    "name": "F5",
                    "midi": 77,
                    "time": 124.89454950000061,
                    "velocity": 0.2283464566929134,
                    "duration": 0.05263150000000394
                },
                {
                    "name": "E5",
                    "midi": 76,
                    "time": 124.94718100000061,
                    "velocity": 0.2283464566929134,
                    "duration": 0.05263150000000394
                },
                {
                    "name": "F5",
                    "midi": 77,
                    "time": 124.99981250000062,
                    "velocity": 0.23622047244094488,
                    "duration": 0.05263150000000394
                },
                {
                    "name": "E5",
                    "midi": 76,
                    "time": 125.05244400000062,
                    "velocity": 0.1968503937007874,
                    "duration": 0.05263150000000394
                },
                {
                    "name": "F5",
                    "midi": 77,
                    "time": 125.10507550000062,
                    "velocity": 0.1968503937007874,
                    "duration": 0.05263150000000394
                },
                {
                    "name": "E5",
                    "midi": 76,
                    "time": 125.15770700000063,
                    "velocity": 0.1968503937007874,
                    "duration": 0.05263150000000394
                },
                {
                    "name": "F5",
                    "midi": 77,
                    "time": 125.21033850000063,
                    "velocity": 0.1968503937007874,
                    "duration": 0.05263150000000394
                },
                {
                    "name": "E5",
                    "midi": 76,
                    "time": 125.26297000000064,
                    "velocity": 0.1968503937007874,
                    "duration": 0.05263150000000394
                },
                {
                    "name": "F5",
                    "midi": 77,
                    "time": 125.31560150000064,
                    "velocity": 0.1968503937007874,
                    "duration": 0.05263150000000394
                },
                {
                    "name": "E5",
                    "midi": 76,
                    "time": 125.36823300000064,
                    "velocity": 0.1968503937007874,
                    "duration": 0.05263150000000394
                },
                {
                    "name": "F5",
                    "midi": 77,
                    "time": 125.42086450000065,
                    "velocity": 0.1968503937007874,
                    "duration": 0.05263150000000394
                },
                {
                    "name": "E5",
                    "midi": 76,
                    "time": 125.47349600000065,
                    "velocity": 0.1968503937007874,
                    "duration": 0.05263150000000394
                },
                {
                    "name": "F5",
                    "midi": 77,
                    "time": 125.52612750000065,
                    "velocity": 0.1968503937007874,
                    "duration": 0.05263150000000394
                },
                {
                    "name": "E5",
                    "midi": 76,
                    "time": 125.57875900000066,
                    "velocity": 0.1968503937007874,
                    "duration": 0.05263150000000394
                },
                {
                    "name": "F5",
                    "midi": 77,
                    "time": 125.63139050000066,
                    "velocity": 0.1889763779527559,
                    "duration": 0.05263150000000394
                },
                {
                    "name": "E5",
                    "midi": 76,
                    "time": 125.68402200000067,
                    "velocity": 0.2047244094488189,
                    "duration": 0.05263150000000394
                },
                {
                    "name": "F5",
                    "midi": 77,
                    "time": 125.73665350000067,
                    "velocity": 0.18110236220472442,
                    "duration": 0.05263150000000394
                },
                {
                    "name": "E5",
                    "midi": 76,
                    "time": 125.78928500000067,
                    "velocity": 0.1889763779527559,
                    "duration": 0.05263150000000394
                },
                {
                    "name": "F5",
                    "midi": 77,
                    "time": 125.84191650000068,
                    "velocity": 0.2047244094488189,
                    "duration": 0.05263150000000394
                },
                {
                    "name": "E5",
                    "midi": 76,
                    "time": 125.89454800000068,
                    "velocity": 0.2204724409448819,
                    "duration": 0.05263150000000394
                },
                {
                    "name": "F5",
                    "midi": 77,
                    "time": 125.94717950000069,
                    "velocity": 0.2283464566929134,
                    "duration": 0.05263150000000394
                },
                {
                    "name": "E5",
                    "midi": 76,
                    "time": 125.99981100000069,
                    "velocity": 0.2283464566929134,
                    "duration": 0.05263150000000394
                },
                {
                    "name": "F5",
                    "midi": 77,
                    "time": 126.0524425000007,
                    "velocity": 0.2283464566929134,
                    "duration": 0.05263150000000394
                },
                {
                    "name": "E5",
                    "midi": 76,
                    "time": 126.1050740000007,
                    "velocity": 0.2283464566929134,
                    "duration": 0.05263150000000394
                },
                {
                    "name": "F5",
                    "midi": 77,
                    "time": 126.1577055000007,
                    "velocity": 0.2283464566929134,
                    "duration": 0.05263150000000394
                },
                {
                    "name": "E5",
                    "midi": 76,
                    "time": 126.2103370000007,
                    "velocity": 0.2283464566929134,
                    "duration": 0.05263150000000394
                },
                {
                    "name": "F5",
                    "midi": 77,
                    "time": 126.26296850000071,
                    "velocity": 0.2047244094488189,
                    "duration": 0.05263150000000394
                },
                {
                    "name": "E5",
                    "midi": 76,
                    "time": 126.31560000000071,
                    "velocity": 0.2125984251968504,
                    "duration": 0.05263150000000394
                },
                {
                    "name": "F5",
                    "midi": 77,
                    "time": 126.36823150000072,
                    "velocity": 0.2047244094488189,
                    "duration": 0.05263150000000394
                },
                {
                    "name": "E5",
                    "midi": 76,
                    "time": 126.42086300000072,
                    "velocity": 0.2047244094488189,
                    "duration": 0.05263150000000394
                },
                {
                    "name": "F5",
                    "midi": 77,
                    "time": 126.47349450000073,
                    "velocity": 0.2047244094488189,
                    "duration": 0.05263150000000394
                },
                {
                    "name": "E5",
                    "midi": 76,
                    "time": 126.52612600000073,
                    "velocity": 0.2047244094488189,
                    "duration": 0.05263150000000394
                },
                {
                    "name": "F5",
                    "midi": 77,
                    "time": 126.57875750000073,
                    "velocity": 0.2047244094488189,
                    "duration": 0.05263150000000394
                },
                {
                    "name": "E5",
                    "midi": 76,
                    "time": 126.63138900000074,
                    "velocity": 0.2047244094488189,
                    "duration": 0.05263150000000394
                },
                {
                    "name": "F5",
                    "midi": 77,
                    "time": 126.68402050000074,
                    "velocity": 0.18110236220472442,
                    "duration": 0.05263150000000394
                },
                {
                    "name": "E5",
                    "midi": 76,
                    "time": 126.73665200000075,
                    "velocity": 0.16535433070866143,
                    "duration": 0.05263150000000394
                },
                {
                    "name": "F5",
                    "midi": 77,
                    "time": 126.78928350000075,
                    "velocity": 0.14173228346456693,
                    "duration": 0.05263150000000394
                },
                {
                    "name": "E5",
                    "midi": 76,
                    "time": 126.84191500000075,
                    "velocity": 0.14173228346456693,
                    "duration": 0.05263150000000394
                },
                {
                    "name": "F5",
                    "midi": 77,
                    "time": 126.89454650000076,
                    "velocity": 0.14173228346456693,
                    "duration": 0.05263150000000394
                },
                {
                    "name": "E5",
                    "midi": 76,
                    "time": 126.94717800000076,
                    "velocity": 0.18110236220472442,
                    "duration": 0.0789472499999988
                },
                {
                    "name": "F5",
                    "midi": 77,
                    "time": 127.02612525000076,
                    "velocity": 0.12598425196850394,
                    "duration": 0.0789472499999988
                },
                {
                    "name": "E5",
                    "midi": 76,
                    "time": 127.10507250000076,
                    "velocity": 0.12598425196850394,
                    "duration": 0.0789472499999988
                },
                {
                    "name": "F5",
                    "midi": 77,
                    "time": 127.18401975000076,
                    "velocity": 0.12598425196850394,
                    "duration": 0.0789472499999988
                },
                {
                    "name": "E5",
                    "midi": 76,
                    "time": 127.26296700000076,
                    "velocity": 0.13385826771653545,
                    "duration": 0.0789472499999988
                },
                {
                    "name": "F5",
                    "midi": 77,
                    "time": 127.34191425000076,
                    "velocity": 0.13385826771653545,
                    "duration": 0.0789472499999988
                },
                {
                    "name": "E5",
                    "midi": 76,
                    "time": 127.42086150000075,
                    "velocity": 0.14173228346456693,
                    "duration": 0.0789472499999988
                },
                {
                    "name": "F5",
                    "midi": 77,
                    "time": 127.49980875000075,
                    "velocity": 0.14173228346456693,
                    "duration": 0.0789472499999988
                },
                {
                    "name": "E5",
                    "midi": 76,
                    "time": 127.57875600000075,
                    "velocity": 0.23622047244094488,
                    "duration": 0.3157889999999952
                },
                {
                    "name": "F5",
                    "midi": 77,
                    "time": 129.47349000000074,
                    "velocity": 0.1889763779527559,
                    "duration": 0.0789472499999988
                },
                {
                    "name": "E5",
                    "midi": 76,
                    "time": 129.55243725000074,
                    "velocity": 0.12598425196850394,
                    "duration": 0.0789472499999988
                },
                {
                    "name": "F5",
                    "midi": 77,
                    "time": 129.63138450000073,
                    "velocity": 0.12598425196850394,
                    "duration": 0.0789472499999988
                },
                {
                    "name": "E5",
                    "midi": 76,
                    "time": 129.71033175000073,
                    "velocity": 0.12598425196850394,
                    "duration": 0.0789472499999988
                },
                {
                    "name": "F5",
                    "midi": 77,
                    "time": 129.78927900000073,
                    "velocity": 0.13385826771653545,
                    "duration": 0.0789472499999988
                },
                {
                    "name": "E5",
                    "midi": 76,
                    "time": 129.86822625000073,
                    "velocity": 0.13385826771653545,
                    "duration": 0.0789472499999988
                },
                {
                    "name": "F5",
                    "midi": 77,
                    "time": 129.94717350000073,
                    "velocity": 0.14173228346456693,
                    "duration": 0.0789472499999988
                },
                {
                    "name": "E5",
                    "midi": 76,
                    "time": 130.02612075000073,
                    "velocity": 0.14173228346456693,
                    "duration": 0.0789472499999988
                },
                {
                    "name": "F5",
                    "midi": 77,
                    "time": 130.10506800000073,
                    "velocity": 0.23622047244094488,
                    "duration": 0.3157889999999952
                },
                {
                    "name": "F5",
                    "midi": 77,
                    "time": 131.99980200000073,
                    "velocity": 0.18110236220472442,
                    "duration": 0.0789472499999988
                },
                {
                    "name": "E5",
                    "midi": 76,
                    "time": 132.07874925000073,
                    "velocity": 0.14960629921259844,
                    "duration": 0.0789472499999988
                },
                {
                    "name": "F5",
                    "midi": 77,
                    "time": 132.15769650000072,
                    "velocity": 0.12598425196850394,
                    "duration": 0.0789472499999988
                },
                {
                    "name": "E5",
                    "midi": 76,
                    "time": 132.23664375000072,
                    "velocity": 0.12598425196850394,
                    "duration": 0.0789472499999988
                },
                {
                    "name": "F5",
                    "midi": 77,
                    "time": 132.31559100000072,
                    "velocity": 0.13385826771653545,
                    "duration": 0.0789472499999988
                },
                {
                    "name": "E5",
                    "midi": 76,
                    "time": 132.39453825000072,
                    "velocity": 0.13385826771653545,
                    "duration": 0.0789472499999988
                },
                {
                    "name": "F5",
                    "midi": 77,
                    "time": 132.47348550000072,
                    "velocity": 0.14173228346456693,
                    "duration": 0.0789472499999988
                },
                {
                    "name": "E5",
                    "midi": 76,
                    "time": 132.55243275000072,
                    "velocity": 0.14173228346456693,
                    "duration": 0.0789472499999988
                },
                {
                    "name": "F5",
                    "midi": 77,
                    "time": 132.63138000000072,
                    "velocity": 0.23622047244094488,
                    "duration": 0.3157889999999952
                }
            ],
            "controlChanges": {
                "64": [
                    {
                        "number": 64,
                        "time": 61.2801712375,
                        "value": 1
                    },
                    {
                        "number": 64,
                        "time": 61.42688154375,
                        "value": 0
                    },
                    {
                        "number": 64,
                        "time": 62.22424876875,
                        "value": 1
                    },
                    {
                        "number": 64,
                        "time": 62.377538012500004,
                        "value": 0
                    },
                    {
                        "number": 64,
                        "time": 62.42622215,
                        "value": 1
                    },
                    {
                        "number": 64,
                        "time": 62.5275377875,
                        "value": 0
                    },
                    {
                        "number": 64,
                        "time": 62.5696429875,
                        "value": 1
                    },
                    {
                        "number": 64,
                        "time": 62.690695437500004,
                        "value": 0
                    },
                    {
                        "number": 64,
                        "time": 63.501878431250006,
                        "value": 1
                    },
                    {
                        "number": 64,
                        "time": 63.640694012500006,
                        "value": 0
                    },
                    {
                        "number": 64,
                        "time": 63.67095712500001,
                        "value": 1
                    },
                    {
                        "number": 64,
                        "time": 63.789378000000006,
                        "value": 0
                    }
                ]
            },
            "id": 3,
            "name": "Piano left2",
            "channelNumber": 0,
            "isPercussion": false
        },
        {
            "startTime": 20.052601499999998,
            "duration": 20.28944324999999,
            "length": 4,
            "notes": [
                {
                    "name": "A2",
                    "midi": 45,
                    "time": 20.052601499999998,
                    "velocity": 0.2992125984251969,
                    "duration": 0.23026281249999414
                },
                {
                    "name": "E3",
                    "midi": 52,
                    "time": 20.078917249999996,
                    "velocity": 0.3228346456692913,
                    "duration": 0.21052599999999444
                },
                {
                    "name": "A3",
                    "midi": 57,
                    "time": 20.105232999999995,
                    "velocity": 0.3543307086614173,
                    "duration": 0.1184208749999982
                },
                {
                    "name": "C4",
                    "midi": 60,
                    "time": 20.131548749999993,
                    "velocity": 0.3779527559055118,
                    "duration": 0.1578944999999976
                }
            ],
            "controlChanges": {},
            "id": 4,
            "name": "Liszt: Etude No. 6 from Grandes Etudes de Paganini",
            "channelNumber": 0,
            "isPercussion": false
        },
        {
            "startTime": 0,
            "duration": 0,
            "length": 0,
            "notes": [],
            "controlChanges": {},
            "id": 5,
            "name": "Copyright  2004 by Bernd Krger"
        },
        {
            "startTime": 0,
            "duration": 0,
            "length": 0,
            "notes": [],
            "controlChanges": {},
            "id": 6,
            "name": "http://www.piano-midi.de"
        },
        {
            "startTime": 0,
            "duration": 0,
            "length": 0,
            "notes": [],
            "controlChanges": {},
            "id": 7,
            "name": "Edition: 2014-03-04"
        },
        {
            "startTime": 0,
            "duration": 0,
            "length": 0,
            "notes": [],
            "controlChanges": {},
            "id": 8,
            "name": "Spur 8"
        },
        {
            "startTime": 0,
            "duration": 0,
            "length": 0,
            "notes": [],
            "controlChanges": {},
            "id": 9,
            "name": "Spur 9"
        }
    ]
}