{
    "header": {
        "PPQ": 480,
        "timeSignature": [
            2,
            4
        ],
        "bpm": 100,
        "name": "Ungarische Rhapsodie Nr. 2"
    },
    "startTime": 0,
    "duration": 553.6499999999725,
    "tracks": [
        {
            "startTime": 0,
            "duration": 0,
            "length": 0,
            "notes": [],
            "controlChanges": {},
            "id": 0,
            "name": "Ungarische Rhapsodie Nr. 2"
        },
        {
            "startTime": 1.05,
            "duration": 553.6499999999725,
            "length": 3892,
            "notes": [
                {
                    "name": "C#4",
                    "midi": 61,
                    "time": 1.05,
                    "velocity": 0.6062992125984252,
                    "duration": 0.14500000000000002
                },
                {
                    "name": "C#4",
                    "midi": 61,
                    "time": 1.2,
                    "velocity": 0.6692913385826772,
                    "duration": 0.8999999999999997
                },
                {
                    "name": "C#4",
                    "midi": 61,
                    "time": 2.0999999999999996,
                    "velocity": 0.5748031496062992,
                    "duration": 0.10000000000000009
                },
                {
                    "name": "B3",
                    "midi": 59,
                    "time": 2.1999999999999997,
                    "velocity": 0.5511811023622047,
                    "duration": 0.10000000000000009
                },
                {
                    "name": "C#4",
                    "midi": 61,
                    "time": 2.3,
                    "velocity": 0.5354330708661418,
                    "duration": 0.10000000000000009
                },
                {
                    "name": "B3",
                    "midi": 59,
                    "time": 2.4,
                    "velocity": 0.6062992125984252,
                    "duration": 0.96
                },
                {
                    "name": "C#4",
                    "midi": 61,
                    "time": 3.36,
                    "velocity": 0.5039370078740157,
                    "duration": 0.06000000000000005
                },
                {
                    "name": "E4",
                    "midi": 64,
                    "time": 3.42,
                    "velocity": 0.5511811023622047,
                    "duration": 0.06000000000000005
                },
                {
                    "name": "D4",
                    "midi": 62,
                    "time": 3.48,
                    "velocity": 0.5196850393700787,
                    "duration": 0.06000000000000005
                },
                {
                    "name": "C#4",
                    "midi": 61,
                    "time": 3.54,
                    "velocity": 0.5196850393700787,
                    "duration": 0.05500000000000016
                },
                {
                    "name": "C#4",
                    "midi": 61,
                    "time": 3.6,
                    "velocity": 0.6220472440944882,
                    "duration": 0.9999999999999996
                },
                {
                    "name": "C#4",
                    "midi": 61,
                    "time": 4.5,
                    "velocity": 0.5748031496062992,
                    "duration": 0.29999999999999893
                },
                {
                    "name": "B3",
                    "midi": 59,
                    "time": 4.6,
                    "velocity": 0.5511811023622047,
                    "duration": 0.09999999999999964
                },
                {
                    "name": "C#4",
                    "midi": 61,
                    "time": 4.699999999999999,
                    "velocity": 0.5354330708661418,
                    "duration": 0.09999999999999964
                },
                {
                    "name": "B3",
                    "midi": 59,
                    "time": 4.799999999999999,
                    "velocity": 0.6377952755905512,
                    "duration": 0.9325000000000001
                },
                {
                    "name": "A3",
                    "midi": 57,
                    "time": 5.733749999999999,
                    "velocity": 0.4881889763779528,
                    "duration": 0.04875000000000007
                },
                {
                    "name": "G#3",
                    "midi": 56,
                    "time": 5.798749999999999,
                    "velocity": 0.5275590551181102,
                    "duration": 0.04999999999999982
                },
                {
                    "name": "B3",
                    "midi": 59,
                    "time": 5.848749999999999,
                    "velocity": 0.4645669291338583,
                    "duration": 0.04999999999999982
                },
                {
                    "name": "A3",
                    "midi": 57,
                    "time": 5.898749999999999,
                    "velocity": 0.49606299212598426,
                    "duration": 0.04875000000000007
                },
                {
                    "name": "G#3",
                    "midi": 56,
                    "time": 5.947499999999999,
                    "velocity": 0.5196850393700787,
                    "duration": 0.051249999999999574
                },
                {
                    "name": "G#3",
                    "midi": 56,
                    "time": 5.999999999999998,
                    "velocity": 0.5905511811023622,
                    "duration": 1.1974999999999998
                },
                {
                    "name": "G#3",
                    "midi": 56,
                    "time": 7.049999999999998,
                    "velocity": 0.36220472440944884,
                    "duration": 0.15000000000000036
                },
                {
                    "name": "G#3",
                    "midi": 56,
                    "time": 7.199999999999998,
                    "velocity": 0.4251968503937008,
                    "duration": 0.9325000000000001
                },
                {
                    "name": "A3",
                    "midi": 57,
                    "time": 8.13375,
                    "velocity": 0.3779527559055118,
                    "duration": 0.04875000000000007
                },
                {
                    "name": "G#3",
                    "midi": 56,
                    "time": 8.198749999999999,
                    "velocity": 0.3700787401574803,
                    "duration": 0.05000000000000071
                },
                {
                    "name": "B3",
                    "midi": 59,
                    "time": 8.24875,
                    "velocity": 0.41732283464566927,
                    "duration": 0.05000000000000071
                },
                {
                    "name": "A3",
                    "midi": 57,
                    "time": 8.29875,
                    "velocity": 0.3700787401574803,
                    "duration": 0.04875000000000007
                },
                {
                    "name": "G#3",
                    "midi": 56,
                    "time": 8.3475,
                    "velocity": 0.3464566929133858,
                    "duration": 0.05000000000000071
                },
                {
                    "name": "G#3",
                    "midi": 56,
                    "time": 8.4,
                    "velocity": 0.47244094488188976,
                    "duration": 1.799999999999999
                },
                {
                    "name": "G#3",
                    "midi": 56,
                    "time": 13.049999999999999,
                    "velocity": 0.3779527559055118,
                    "duration": 0.0625
                },
                {
                    "name": "G#3",
                    "midi": 56,
                    "time": 13.124999999999998,
                    "velocity": 0.3779527559055118,
                    "duration": 0.0625
                },
                {
                    "name": "C#4",
                    "midi": 61,
                    "time": 13.199999999999998,
                    "velocity": 0.4566929133858268,
                    "duration": 0.15000000000000036
                },
                {
                    "name": "E3",
                    "midi": 52,
                    "time": 13.799999999999997,
                    "velocity": 0.3779527559055118,
                    "duration": 0.3000000000000007
                },
                {
                    "name": "G#3",
                    "midi": 56,
                    "time": 13.799999999999997,
                    "velocity": 0.3779527559055118,
                    "duration": 0.3000000000000007
                },
                {
                    "name": "C#4",
                    "midi": 61,
                    "time": 13.799999999999997,
                    "velocity": 0.47244094488188976,
                    "duration": 0.75
                },
                {
                    "name": "C4",
                    "midi": 60,
                    "time": 14.549999999999997,
                    "velocity": 0.3779527559055118,
                    "duration": 0.15000000000000036
                },
                {
                    "name": "C#4",
                    "midi": 61,
                    "time": 14.699999999999998,
                    "velocity": 0.4566929133858268,
                    "duration": 0.15000000000000036
                },
                {
                    "name": "D#4",
                    "midi": 63,
                    "time": 14.849999999999998,
                    "velocity": 0.4881889763779528,
                    "duration": 0.07499999999999929
                },
                {
                    "name": "F#3",
                    "midi": 54,
                    "time": 14.924999999999997,
                    "velocity": 0.4094488188976378,
                    "duration": 0.375
                },
                {
                    "name": "A3",
                    "midi": 57,
                    "time": 14.962499999999997,
                    "velocity": 0.4094488188976378,
                    "duration": 0.33750000000000036
                },
                {
                    "name": "E4",
                    "midi": 64,
                    "time": 14.999999999999996,
                    "velocity": 0.5118110236220472,
                    "duration": 0.15000000000000036
                },
                {
                    "name": "A3",
                    "midi": 57,
                    "time": 15.149999999999997,
                    "velocity": 0.4330708661417323,
                    "duration": 0.15000000000000036
                },
                {
                    "name": "E4",
                    "midi": 64,
                    "time": 15.299999999999997,
                    "velocity": 0.48031496062992124,
                    "duration": 0.15000000000000036
                },
                {
                    "name": "D#4",
                    "midi": 63,
                    "time": 15.449999999999998,
                    "velocity": 0.3779527559055118,
                    "duration": 0.15000000000000036
                },
                {
                    "name": "C#4",
                    "midi": 61,
                    "time": 15.599999999999998,
                    "velocity": 0.4881889763779528,
                    "duration": 0.4499999999999993
                },
                {
                    "name": "C#4",
                    "midi": 61,
                    "time": 16.049999999999997,
                    "velocity": 0.4251968503937008,
                    "duration": 0.07499999999999929
                },
                {
                    "name": "D#4",
                    "midi": 63,
                    "time": 16.124999999999996,
                    "velocity": 0.4251968503937008,
                    "duration": 0.07499999999999929
                },
                {
                    "name": "C#4",
                    "midi": 61,
                    "time": 16.199999999999996,
                    "velocity": 0.4645669291338583,
                    "duration": 0.4499999999999993
                },
                {
                    "name": "E3",
                    "midi": 52,
                    "time": 16.199999999999996,
                    "velocity": 0.3700787401574803,
                    "duration": 0.3000000000000007
                },
                {
                    "name": "G#3",
                    "midi": 56,
                    "time": 16.199999999999996,
                    "velocity": 0.3700787401574803,
                    "duration": 0.3000000000000007
                },
                {
                    "name": "C4",
                    "midi": 60,
                    "time": 16.649999999999995,
                    "velocity": 0.4330708661417323,
                    "duration": 0.14999999999999858
                },
                {
                    "name": "C#4",
                    "midi": 61,
                    "time": 16.799999999999994,
                    "velocity": 0.4881889763779528,
                    "duration": 1.0500000000000007
                },
                {
                    "name": "E3",
                    "midi": 52,
                    "time": 17.399999999999995,
                    "velocity": 0.3700787401574803,
                    "duration": 0.3000000000000007
                },
                {
                    "name": "G#3",
                    "midi": 56,
                    "time": 17.399999999999995,
                    "velocity": 0.3700787401574803,
                    "duration": 0.3000000000000007
                },
                {
                    "name": "D#4",
                    "midi": 63,
                    "time": 17.849999999999994,
                    "velocity": 0.47244094488188976,
                    "duration": 0.14999999999999858
                },
                {
                    "name": "E4",
                    "midi": 64,
                    "time": 17.999999999999993,
                    "velocity": 0.49606299212598426,
                    "duration": 0.14999999999999858
                },
                {
                    "name": "E4",
                    "midi": 64,
                    "time": 18.59999999999999,
                    "velocity": 0.5196850393700787,
                    "duration": 0.75
                },
                {
                    "name": "G#3",
                    "midi": 56,
                    "time": 18.59999999999999,
                    "velocity": 0.3779527559055118,
                    "duration": 0.3000000000000007
                },
                {
                    "name": "B3",
                    "midi": 59,
                    "time": 18.59999999999999,
                    "velocity": 0.3779527559055118,
                    "duration": 0.3000000000000007
                },
                {
                    "name": "D#4",
                    "midi": 63,
                    "time": 19.34999999999999,
                    "velocity": 0.4094488188976378,
                    "duration": 0.14999999999999858
                },
                {
                    "name": "E4",
                    "midi": 64,
                    "time": 19.49999999999999,
                    "velocity": 0.49606299212598426,
                    "duration": 0.14999999999999858
                },
                {
                    "name": "F#4",
                    "midi": 66,
                    "time": 19.649999999999988,
                    "velocity": 0.5354330708661418,
                    "duration": 0.14999999999999858
                },
                {
                    "name": "G#4",
                    "midi": 68,
                    "time": 19.799999999999986,
                    "velocity": 0.5590551181102362,
                    "duration": 0.14999999999999858
                },
                {
                    "name": "A3",
                    "midi": 57,
                    "time": 19.799999999999986,
                    "velocity": 0.4094488188976378,
                    "duration": 0.29999999999999716
                },
                {
                    "name": "B3",
                    "midi": 59,
                    "time": 19.799999999999986,
                    "velocity": 0.4094488188976378,
                    "duration": 0.29999999999999716
                },
                {
                    "name": "D#4",
                    "midi": 63,
                    "time": 19.949999999999985,
                    "velocity": 0.47244094488188976,
                    "duration": 0.14999999999999858
                },
                {
                    "name": "G#4",
                    "midi": 68,
                    "time": 20.099999999999984,
                    "velocity": 0.5275590551181102,
                    "duration": 0.14999999999999858
                },
                {
                    "name": "F#4",
                    "midi": 66,
                    "time": 20.249999999999982,
                    "velocity": 0.4094488188976378,
                    "duration": 0.14999999999999858
                },
                {
                    "name": "E4",
                    "midi": 64,
                    "time": 20.39999999999998,
                    "velocity": 0.5354330708661418,
                    "duration": 0.4499999999999993
                },
                {
                    "name": "E4",
                    "midi": 64,
                    "time": 20.84999999999998,
                    "velocity": 0.4409448818897638,
                    "duration": 0.07499999999999929
                },
                {
                    "name": "F#4",
                    "midi": 66,
                    "time": 20.92499999999998,
                    "velocity": 0.4409448818897638,
                    "duration": 0.07499999999999929
                },
                {
                    "name": "G#3",
                    "midi": 56,
                    "time": 20.99999999999998,
                    "velocity": 0.3700787401574803,
                    "duration": 0.3000000000000007
                },
                {
                    "name": "E4",
                    "midi": 64,
                    "time": 20.99999999999998,
                    "velocity": 0.5039370078740157,
                    "duration": 0.4499999999999993
                },
                {
                    "name": "B3",
                    "midi": 59,
                    "time": 20.99999999999998,
                    "velocity": 0.3700787401574803,
                    "duration": 0.3000000000000007
                },
                {
                    "name": "D#4",
                    "midi": 63,
                    "time": 21.449999999999978,
                    "velocity": 0.47244094488188976,
                    "duration": 0.14999999999999858
                },
                {
                    "name": "E4",
                    "midi": 64,
                    "time": 21.599999999999977,
                    "velocity": 0.5354330708661418,
                    "duration": 0.6000000000000014
                },
                {
                    "name": "C4",
                    "midi": 60,
                    "time": 22.199999999999978,
                    "velocity": 0.3700787401574803,
                    "duration": 0.3000000000000007
                },
                {
                    "name": "E4",
                    "midi": 64,
                    "time": 22.199999999999978,
                    "velocity": 0.44881889763779526,
                    "duration": 0.4499999999999993
                },
                {
                    "name": "G#3",
                    "midi": 56,
                    "time": 22.199999999999978,
                    "velocity": 0.29133858267716534,
                    "duration": 0.3000000000000007
                },
                {
                    "name": "G#4",
                    "midi": 68,
                    "time": 22.199999999999978,
                    "velocity": 0.5275590551181102,
                    "duration": 0.6000000000000014
                },
                {
                    "name": "F#3",
                    "midi": 54,
                    "time": 22.199999999999978,
                    "velocity": 0.29133858267716534,
                    "duration": 0.3000000000000007
                },
                {
                    "name": "D#4",
                    "midi": 63,
                    "time": 22.649999999999977,
                    "velocity": 0.47244094488188976,
                    "duration": 0.07499999999999929
                },
                {
                    "name": "G#3",
                    "midi": 56,
                    "time": 22.724999999999977,
                    "velocity": 0.2755905511811024,
                    "duration": 0.03750000000000142
                },
                {
                    "name": "C#4",
                    "midi": 61,
                    "time": 22.743749999999977,
                    "velocity": 0.29133858267716534,
                    "duration": 0.03750000000000142
                },
                {
                    "name": "E4",
                    "midi": 64,
                    "time": 22.762499999999978,
                    "velocity": 0.31496062992125984,
                    "duration": 0.03750000000000142
                },
                {
                    "name": "G#4",
                    "midi": 68,
                    "time": 22.78124999999998,
                    "velocity": 0.33070866141732286,
                    "duration": 0.03750000000000142
                },
                {
                    "name": "C#5",
                    "midi": 73,
                    "time": 22.79999999999998,
                    "velocity": 0.6062992125984252,
                    "duration": 0.3000000000000007
                },
                {
                    "name": "G#4",
                    "midi": 68,
                    "time": 23.39999999999998,
                    "velocity": 0.4330708661417323,
                    "duration": 0.3000000000000007
                },
                {
                    "name": "C#5",
                    "midi": 73,
                    "time": 23.39999999999998,
                    "velocity": 0.5433070866141733,
                    "duration": 0.75
                },
                {
                    "name": "C#4",
                    "midi": 61,
                    "time": 23.39999999999998,
                    "velocity": 0.4330708661417323,
                    "duration": 0.75
                },
                {
                    "name": "E4",
                    "midi": 64,
                    "time": 23.39999999999998,
                    "velocity": 0.4330708661417323,
                    "duration": 0.3000000000000007
                },
                {
                    "name": "C5",
                    "midi": 72,
                    "time": 24.14999999999998,
                    "velocity": 0.44881889763779526,
                    "duration": 0.14999999999999858
                },
                {
                    "name": "C4",
                    "midi": 60,
                    "time": 24.14999999999998,
                    "velocity": 0.3779527559055118,
                    "duration": 0.14999999999999858
                },
                {
                    "name": "C#5",
                    "midi": 73,
                    "time": 24.29999999999998,
                    "velocity": 0.5433070866141733,
                    "duration": 0.14999999999999858
                },
                {
                    "name": "C#4",
                    "midi": 61,
                    "time": 24.29999999999998,
                    "velocity": 0.4566929133858268,
                    "duration": 0.14999999999999858
                },
                {
                    "name": "D#4",
                    "midi": 63,
                    "time": 24.449999999999978,
                    "velocity": 0.4881889763779528,
                    "duration": 0.14999999999999858
                },
                {
                    "name": "D#5",
                    "midi": 75,
                    "time": 24.449999999999978,
                    "velocity": 0.5748031496062992,
                    "duration": 0.14999999999999858
                },
                {
                    "name": "E4",
                    "midi": 64,
                    "time": 24.599999999999977,
                    "velocity": 0.5118110236220472,
                    "duration": 0.14999999999999858
                },
                {
                    "name": "E5",
                    "midi": 76,
                    "time": 24.599999999999977,
                    "velocity": 0.6062992125984252,
                    "duration": 0.14999999999999858
                },
                {
                    "name": "A4",
                    "midi": 69,
                    "time": 24.749999999999975,
                    "velocity": 0.5275590551181102,
                    "duration": 0.14999999999999858
                },
                {
                    "name": "E4",
                    "midi": 64,
                    "time": 24.899999999999974,
                    "velocity": 0.4881889763779528,
                    "duration": 0.14999999999999858
                },
                {
                    "name": "E5",
                    "midi": 76,
                    "time": 24.899999999999974,
                    "velocity": 0.5826771653543307,
                    "duration": 0.14999999999999858
                },
                {
                    "name": "D#4",
                    "midi": 63,
                    "time": 25.049999999999972,
                    "velocity": 0.3858267716535433,
                    "duration": 0.14999999999999858
                },
                {
                    "name": "D#5",
                    "midi": 75,
                    "time": 25.049999999999972,
                    "velocity": 0.4566929133858268,
                    "duration": 0.14999999999999858
                },
                {
                    "name": "C#4",
                    "midi": 61,
                    "time": 25.19999999999997,
                    "velocity": 0.48031496062992124,
                    "duration": 0.4499999999999993
                },
                {
                    "name": "C#5",
                    "midi": 73,
                    "time": 25.19999999999997,
                    "velocity": 0.5669291338582677,
                    "duration": 0.4499999999999993
                },
                {
                    "name": "C#5",
                    "midi": 73,
                    "time": 25.64999999999997,
                    "velocity": 0.5039370078740157,
                    "duration": 0.07499999999999929
                },
                {
                    "name": "D#5",
                    "midi": 75,
                    "time": 25.72499999999997,
                    "velocity": 0.5039370078740157,
                    "duration": 0.07499999999999929
                },
                {
                    "name": "C#5",
                    "midi": 73,
                    "time": 25.79999999999997,
                    "velocity": 0.5669291338582677,
                    "duration": 0.4499999999999993
                },
                {
                    "name": "G#4",
                    "midi": 68,
                    "time": 25.79999999999997,
                    "velocity": 0.48031496062992124,
                    "duration": 0.3000000000000007
                },
                {
                    "name": "C#4",
                    "midi": 61,
                    "time": 25.79999999999997,
                    "velocity": 0.48031496062992124,
                    "duration": 0.4499999999999993
                },
                {
                    "name": "C5",
                    "midi": 72,
                    "time": 26.249999999999968,
                    "velocity": 0.4881889763779528,
                    "duration": 0.14999999999999858
                },
                {
                    "name": "C4",
                    "midi": 60,
                    "time": 26.249999999999968,
                    "velocity": 0.4094488188976378,
                    "duration": 0.14999999999999858
                },
                {
                    "name": "C#5",
                    "midi": 73,
                    "time": 26.399999999999967,
                    "velocity": 0.5511811023622047,
                    "duration": 1.0500000000000007
                },
                {
                    "name": "C#4",
                    "midi": 61,
                    "time": 26.399999999999967,
                    "velocity": 0.4645669291338583,
                    "duration": 1.0500000000000007
                },
                {
                    "name": "E4",
                    "midi": 64,
                    "time": 26.999999999999968,
                    "velocity": 0.4409448818897638,
                    "duration": 0.3000000000000007
                },
                {
                    "name": "G#4",
                    "midi": 68,
                    "time": 26.999999999999968,
                    "velocity": 0.5275590551181102,
                    "duration": 0.3000000000000007
                },
                {
                    "name": "G#4",
                    "midi": 68,
                    "time": 27.449999999999967,
                    "velocity": 0.4881889763779528,
                    "duration": 0.14999999999999858
                },
                {
                    "name": "E5",
                    "midi": 76,
                    "time": 27.449999999999967,
                    "velocity": 0.5826771653543307,
                    "duration": 0.14999999999999858
                },
                {
                    "name": "B4",
                    "midi": 71,
                    "time": 27.449999999999967,
                    "velocity": 0.4881889763779528,
                    "duration": 0.14999999999999858
                },
                {
                    "name": "E4",
                    "midi": 64,
                    "time": 27.449999999999967,
                    "velocity": 0.4881889763779528,
                    "duration": 0.14999999999999858
                },
                {
                    "name": "G#5",
                    "midi": 80,
                    "time": 27.599999999999966,
                    "velocity": 0.6614173228346457,
                    "duration": 0.14999999999999858
                },
                {
                    "name": "B4",
                    "midi": 71,
                    "time": 27.599999999999966,
                    "velocity": 0.5590551181102362,
                    "duration": 0.14999999999999858
                },
                {
                    "name": "G#4",
                    "midi": 68,
                    "time": 27.599999999999966,
                    "velocity": 0.5590551181102362,
                    "duration": 0.14999999999999858
                },
                {
                    "name": "G#4",
                    "midi": 68,
                    "time": 28.199999999999964,
                    "velocity": 0.6771653543307087,
                    "duration": 0.6000000000000014
                },
                {
                    "name": "G#4",
                    "midi": 68,
                    "time": 28.799999999999965,
                    "velocity": 0.47244094488188976,
                    "duration": 0.07499999999999929
                },
                {
                    "name": "G4",
                    "midi": 67,
                    "time": 28.874999999999964,
                    "velocity": 0.4251968503937008,
                    "duration": 0.07499999999999929
                },
                {
                    "name": "G#4",
                    "midi": 68,
                    "time": 28.949999999999964,
                    "velocity": 0.4251968503937008,
                    "duration": 0.07499999999999929
                },
                {
                    "name": "G4",
                    "midi": 67,
                    "time": 29.024999999999963,
                    "velocity": 0.41732283464566927,
                    "duration": 0.07499999999999929
                },
                {
                    "name": "E4",
                    "midi": 64,
                    "time": 29.099999999999962,
                    "velocity": 0.4330708661417323,
                    "duration": 0.07499999999999929
                },
                {
                    "name": "G4",
                    "midi": 67,
                    "time": 29.17499999999996,
                    "velocity": 0.44881889763779526,
                    "duration": 0.07499999999999929
                },
                {
                    "name": "G#4",
                    "midi": 68,
                    "time": 29.24999999999996,
                    "velocity": 0.4645669291338583,
                    "duration": 0.07499999999999929
                },
                {
                    "name": "A#4",
                    "midi": 70,
                    "time": 29.32499999999996,
                    "velocity": 0.48031496062992124,
                    "duration": 0.07499999999999929
                },
                {
                    "name": "B4",
                    "midi": 71,
                    "time": 29.39999999999996,
                    "velocity": 0.49606299212598426,
                    "duration": 0.07499999999999929
                },
                {
                    "name": "C#5",
                    "midi": 73,
                    "time": 29.47499999999996,
                    "velocity": 0.5039370078740157,
                    "duration": 0.07499999999999929
                },
                {
                    "name": "D#5",
                    "midi": 75,
                    "time": 29.549999999999958,
                    "velocity": 0.5196850393700787,
                    "duration": 0.07499999999999929
                },
                {
                    "name": "E5",
                    "midi": 76,
                    "time": 29.624999999999957,
                    "velocity": 0.5354330708661418,
                    "duration": 0.07499999999999929
                },
                {
                    "name": "G5",
                    "midi": 79,
                    "time": 29.699999999999957,
                    "velocity": 0.5511811023622047,
                    "duration": 0.07499999999999929
                },
                {
                    "name": "G#5",
                    "midi": 80,
                    "time": 29.774999999999956,
                    "velocity": 0.5669291338582677,
                    "duration": 0.07499999999999929
                },
                {
                    "name": "A#5",
                    "midi": 82,
                    "time": 29.849999999999955,
                    "velocity": 0.5826771653543307,
                    "duration": 0.07499999999999929
                },
                {
                    "name": "B5",
                    "midi": 83,
                    "time": 29.924999999999955,
                    "velocity": 0.5984251968503937,
                    "duration": 0.07499999999999929
                },
                {
                    "name": "C#6",
                    "midi": 85,
                    "time": 29.999999999999954,
                    "velocity": 0.6377952755905512,
                    "duration": 0.07499999999999929
                },
                {
                    "name": "D#6",
                    "midi": 87,
                    "time": 30.074999999999953,
                    "velocity": 0.6614173228346457,
                    "duration": 0.07499999999999929
                },
                {
                    "name": "E6",
                    "midi": 88,
                    "time": 30.149999999999952,
                    "velocity": 0.6850393700787402,
                    "duration": 0.07499999999999929
                },
                {
                    "name": "D#6",
                    "midi": 87,
                    "time": 30.22499999999995,
                    "velocity": 0.6535433070866141,
                    "duration": 0.07499999999999929
                },
                {
                    "name": "C#6",
                    "midi": 85,
                    "time": 30.29999999999995,
                    "velocity": 0.6377952755905512,
                    "duration": 0.07499999999999929
                },
                {
                    "name": "B5",
                    "midi": 83,
                    "time": 30.37499999999995,
                    "velocity": 0.6299212598425197,
                    "duration": 0.07499999999999929
                },
                {
                    "name": "A#5",
                    "midi": 82,
                    "time": 30.44999999999995,
                    "velocity": 0.6141732283464567,
                    "duration": 0.07499999999999929
                },
                {
                    "name": "G#5",
                    "midi": 80,
                    "time": 30.52499999999995,
                    "velocity": 0.6062992125984252,
                    "duration": 0.07499999999999929
                },
                {
                    "name": "G5",
                    "midi": 79,
                    "time": 30.599999999999948,
                    "velocity": 0.5905511811023622,
                    "duration": 0.07499999999999929
                },
                {
                    "name": "B5",
                    "midi": 83,
                    "time": 30.674999999999947,
                    "velocity": 0.6299212598425197,
                    "duration": 0.07499999999999929
                },
                {
                    "name": "A#5",
                    "midi": 82,
                    "time": 30.749999999999947,
                    "velocity": 0.6141732283464567,
                    "duration": 0.07499999999999929
                },
                {
                    "name": "G#5",
                    "midi": 80,
                    "time": 30.824999999999946,
                    "velocity": 0.5905511811023622,
                    "duration": 0.07499999999999929
                },
                {
                    "name": "G5",
                    "midi": 79,
                    "time": 30.899999999999945,
                    "velocity": 0.5748031496062992,
                    "duration": 0.07499999999999929
                },
                {
                    "name": "E5",
                    "midi": 76,
                    "time": 30.974999999999945,
                    "velocity": 0.5511811023622047,
                    "duration": 0.07499999999999929
                },
                {
                    "name": "D#5",
                    "midi": 75,
                    "time": 31.049999999999944,
                    "velocity": 0.5354330708661418,
                    "duration": 0.07499999999999929
                },
                {
                    "name": "C#5",
                    "midi": 73,
                    "time": 31.124999999999943,
                    "velocity": 0.5118110236220472,
                    "duration": 0.07499999999999929
                },
                {
                    "name": "E5",
                    "midi": 76,
                    "time": 31.199999999999942,
                    "velocity": 0.5590551181102362,
                    "duration": 0.07499999999999929
                },
                {
                    "name": "D#5",
                    "midi": 75,
                    "time": 31.27499999999994,
                    "velocity": 0.5275590551181102,
                    "duration": 0.07499999999999929
                },
                {
                    "name": "C#5",
                    "midi": 73,
                    "time": 31.34999999999994,
                    "velocity": 0.49606299212598426,
                    "duration": 0.07499999999999929
                },
                {
                    "name": "B4",
                    "midi": 71,
                    "time": 31.42499999999994,
                    "velocity": 0.4566929133858268,
                    "duration": 0.07499999999999929
                },
                {
                    "name": "A#4",
                    "midi": 70,
                    "time": 31.49999999999994,
                    "velocity": 0.4251968503937008,
                    "duration": 0.07499999999999929
                },
                {
                    "name": "G#4",
                    "midi": 68,
                    "time": 31.57499999999994,
                    "velocity": 0.3937007874015748,
                    "duration": 0.07499999999999929
                },
                {
                    "name": "G4",
                    "midi": 67,
                    "time": 31.649999999999938,
                    "velocity": 0.36220472440944884,
                    "duration": 0.07499999999999929
                },
                {
                    "name": "G#4",
                    "midi": 68,
                    "time": 31.724999999999937,
                    "velocity": 0.33070866141732286,
                    "duration": 0.07499999999999929
                },
                {
                    "name": "G4",
                    "midi": 67,
                    "time": 31.799999999999937,
                    "velocity": 0.36220472440944884,
                    "duration": 0.07499999999999929
                },
                {
                    "name": "E4",
                    "midi": 64,
                    "time": 31.874999999999936,
                    "velocity": 0.2677165354330709,
                    "duration": 0.07499999999999929
                },
                {
                    "name": "G4",
                    "midi": 67,
                    "time": 31.949999999999935,
                    "velocity": 0.25984251968503935,
                    "duration": 0.07499999999999929
                },
                {
                    "name": "B4",
                    "midi": 71,
                    "time": 32.024999999999935,
                    "velocity": 0.2992125984251969,
                    "duration": 0.14999999999999858
                },
                {
                    "name": "B4",
                    "midi": 71,
                    "time": 32.17499999999993,
                    "velocity": 0.2677165354330709,
                    "duration": 0.05624999999999858
                },
                {
                    "name": "B4",
                    "midi": 71,
                    "time": 32.24999999999993,
                    "velocity": 0.23622047244094488,
                    "duration": 0.05624999999999858
                },
                {
                    "name": "B4",
                    "midi": 71,
                    "time": 32.324999999999925,
                    "velocity": 0.2677165354330709,
                    "duration": 0.05624999999999858
                },
                {
                    "name": "B4",
                    "midi": 71,
                    "time": 32.39999999999992,
                    "velocity": 0.2204724409448819,
                    "duration": 0.07500000000000284
                },
                {
                    "name": "B4",
                    "midi": 71,
                    "time": 32.47499999999992,
                    "velocity": 0.28346456692913385,
                    "duration": 0.45000000000000284
                },
                {
                    "name": "A#4",
                    "midi": 70,
                    "time": 32.924999999999926,
                    "velocity": 0.23622047244094488,
                    "duration": 0.07500000000000284
                },
                {
                    "name": "G#4",
                    "midi": 68,
                    "time": 32.99999999999993,
                    "velocity": 0.33070866141732286,
                    "duration": 0.45000000000000284
                },
                {
                    "name": "G#4",
                    "midi": 68,
                    "time": 33.44999999999993,
                    "velocity": 0.2755905511811024,
                    "duration": 0.07500000000000284
                },
                {
                    "name": "A#4",
                    "midi": 70,
                    "time": 33.524999999999935,
                    "velocity": 0.2755905511811024,
                    "duration": 0.07500000000000284
                },
                {
                    "name": "D#4",
                    "midi": 63,
                    "time": 33.59999999999994,
                    "velocity": 0.2204724409448819,
                    "duration": 0.29999999999999716
                },
                {
                    "name": "G#4",
                    "midi": 68,
                    "time": 33.59999999999994,
                    "velocity": 0.30708661417322836,
                    "duration": 0.44999999999999574
                },
                {
                    "name": "B3",
                    "midi": 59,
                    "time": 33.59999999999994,
                    "velocity": 0.2204724409448819,
                    "duration": 0.29999999999999716
                },
                {
                    "name": "G4",
                    "midi": 67,
                    "time": 34.04999999999993,
                    "velocity": 0.29133858267716534,
                    "duration": 0.14999999999999858
                },
                {
                    "name": "G#4",
                    "midi": 68,
                    "time": 34.19999999999993,
                    "velocity": 0.2755905511811024,
                    "duration": 0.6000000000000014
                },
                {
                    "name": "D#4",
                    "midi": 63,
                    "time": 34.79999999999993,
                    "velocity": 0.18110236220472442,
                    "duration": 0.29999999999999716
                },
                {
                    "name": "B3",
                    "midi": 59,
                    "time": 34.79999999999993,
                    "velocity": 0.18110236220472442,
                    "duration": 0.29999999999999716
                },
                {
                    "name": "G#4",
                    "midi": 68,
                    "time": 35.24999999999993,
                    "velocity": 0.3228346456692913,
                    "duration": 0.0625
                },
                {
                    "name": "G#4",
                    "midi": 68,
                    "time": 35.32499999999993,
                    "velocity": 0.3228346456692913,
                    "duration": 0.0625
                },
                {
                    "name": "G#5",
                    "midi": 80,
                    "time": 35.399999999999935,
                    "velocity": 0.4251968503937008,
                    "duration": 0.14999999999999858
                },
                {
                    "name": "E5",
                    "midi": 76,
                    "time": 35.399999999999935,
                    "velocity": 0.3543307086614173,
                    "duration": 0.14999999999999858
                },
                {
                    "name": "B4",
                    "midi": 71,
                    "time": 35.92499999999993,
                    "velocity": 0.3779527559055118,
                    "duration": 0.375
                },
                {
                    "name": "E5",
                    "midi": 76,
                    "time": 35.962499999999935,
                    "velocity": 0.3779527559055118,
                    "duration": 0.7875000000000014
                },
                {
                    "name": "G#5",
                    "midi": 80,
                    "time": 35.999999999999936,
                    "velocity": 0.44881889763779526,
                    "duration": 0.75
                },
                {
                    "name": "F#5",
                    "midi": 78,
                    "time": 36.749999999999936,
                    "velocity": 0.3779527559055118,
                    "duration": 0.14999999999999858
                },
                {
                    "name": "D#5",
                    "midi": 75,
                    "time": 36.749999999999936,
                    "velocity": 0.31496062992125984,
                    "duration": 0.14999999999999858
                },
                {
                    "name": "G#5",
                    "midi": 80,
                    "time": 36.899999999999935,
                    "velocity": 0.4015748031496063,
                    "duration": 0.14999999999999858
                },
                {
                    "name": "E5",
                    "midi": 76,
                    "time": 36.899999999999935,
                    "velocity": 0.33858267716535434,
                    "duration": 0.14999999999999858
                },
                {
                    "name": "F#5",
                    "midi": 78,
                    "time": 37.04999999999993,
                    "velocity": 0.3543307086614173,
                    "duration": 0.14999999999999858
                },
                {
                    "name": "A5",
                    "midi": 81,
                    "time": 37.04999999999993,
                    "velocity": 0.41732283464566927,
                    "duration": 0.14999999999999858
                },
                {
                    "name": "G#5",
                    "midi": 80,
                    "time": 37.19999999999993,
                    "velocity": 0.3700787401574803,
                    "duration": 0.14999999999999858
                },
                {
                    "name": "B5",
                    "midi": 83,
                    "time": 37.19999999999993,
                    "velocity": 0.4409448818897638,
                    "duration": 0.14999999999999858
                },
                {
                    "name": "E5",
                    "midi": 76,
                    "time": 37.34999999999993,
                    "velocity": 0.3937007874015748,
                    "duration": 0.14999999999999858
                },
                {
                    "name": "B4",
                    "midi": 71,
                    "time": 37.34999999999993,
                    "velocity": 0.33070866141732286,
                    "duration": 0.14999999999999858
                },
                {
                    "name": "F#5",
                    "midi": 78,
                    "time": 37.49999999999993,
                    "velocity": 0.36220472440944884,
                    "duration": 0.14999999999999858
                },
                {
                    "name": "A5",
                    "midi": 81,
                    "time": 37.49999999999993,
                    "velocity": 0.4330708661417323,
                    "duration": 0.14999999999999858
                },
                {
                    "name": "G#5",
                    "midi": 80,
                    "time": 37.64999999999993,
                    "velocity": 0.3858267716535433,
                    "duration": 0.14999999999999858
                },
                {
                    "name": "E5",
                    "midi": 76,
                    "time": 37.64999999999993,
                    "velocity": 0.3228346456692913,
                    "duration": 0.14999999999999858
                },
                {
                    "name": "F#5",
                    "midi": 78,
                    "time": 37.799999999999926,
                    "velocity": 0.4251968503937008,
                    "duration": 0.14999999999999858
                },
                {
                    "name": "D#5",
                    "midi": 75,
                    "time": 37.799999999999926,
                    "velocity": 0.3543307086614173,
                    "duration": 0.14999999999999858
                },
                {
                    "name": "F#5",
                    "midi": 78,
                    "time": 38.24999999999992,
                    "velocity": 0.3779527559055118,
                    "duration": 0.04999999999999716
                },
                {
                    "name": "F#5",
                    "midi": 78,
                    "time": 38.29999999999992,
                    "velocity": 0.3464566929133858,
                    "duration": 0.04999999999999716
                },
                {
                    "name": "G#5",
                    "midi": 80,
                    "time": 38.351249999999915,
                    "velocity": 0.3464566929133858,
                    "duration": 0.04999999999999716
                },
                {
                    "name": "D#5",
                    "midi": 75,
                    "time": 38.39999999999991,
                    "velocity": 0.3779527559055118,
                    "duration": 0.14999999999999858
                },
                {
                    "name": "F#5",
                    "midi": 78,
                    "time": 38.39999999999991,
                    "velocity": 0.44881889763779526,
                    "duration": 0.14999999999999858
                },
                {
                    "name": "F5",
                    "midi": 77,
                    "time": 38.92499999999991,
                    "velocity": 0.4015748031496063,
                    "duration": 0.07500000000000284
                },
                {
                    "name": "D5",
                    "midi": 74,
                    "time": 38.92499999999991,
                    "velocity": 0.36220472440944884,
                    "duration": 0.07500000000000284
                },
                {
                    "name": "D#5",
                    "midi": 75,
                    "time": 38.999999999999915,
                    "velocity": 0.3543307086614173,
                    "duration": 0.14999999999999858
                },
                {
                    "name": "F#5",
                    "midi": 78,
                    "time": 38.999999999999915,
                    "velocity": 0.4251968503937008,
                    "duration": 0.14999999999999858
                },
                {
                    "name": "G#5",
                    "midi": 80,
                    "time": 39.599999999999916,
                    "velocity": 0.48031496062992124,
                    "duration": 0.6000000000000014
                },
                {
                    "name": "G#4",
                    "midi": 68,
                    "time": 39.599999999999916,
                    "velocity": 0.3779527559055118,
                    "duration": 0.6000000000000014
                },
                {
                    "name": "D#5",
                    "midi": 75,
                    "time": 39.599999999999916,
                    "velocity": 0.3779527559055118,
                    "duration": 0.6000000000000014
                },
                {
                    "name": "C#5",
                    "midi": 73,
                    "time": 40.19999999999992,
                    "velocity": 0.3543307086614173,
                    "duration": 0.14999999999999858
                },
                {
                    "name": "E5",
                    "midi": 76,
                    "time": 40.19999999999992,
                    "velocity": 0.4251968503937008,
                    "duration": 0.14999999999999858
                },
                {
                    "name": "G#4",
                    "midi": 68,
                    "time": 40.724999999999916,
                    "velocity": 0.3779527559055118,
                    "duration": 0.375
                },
                {
                    "name": "C#5",
                    "midi": 73,
                    "time": 40.76249999999992,
                    "velocity": 0.3779527559055118,
                    "duration": 0.7875000000000014
                },
                {
                    "name": "E5",
                    "midi": 76,
                    "time": 40.79999999999992,
                    "velocity": 0.44881889763779526,
                    "duration": 0.75
                },
                {
                    "name": "C5",
                    "midi": 72,
                    "time": 41.54999999999992,
                    "velocity": 0.31496062992125984,
                    "duration": 0.14999999999999858
                },
                {
                    "name": "D#5",
                    "midi": 75,
                    "time": 41.54999999999992,
                    "velocity": 0.3779527559055118,
                    "duration": 0.14999999999999858
                },
                {
                    "name": "E5",
                    "midi": 76,
                    "time": 41.69999999999992,
                    "velocity": 0.4015748031496063,
                    "duration": 0.14999999999999858
                },
                {
                    "name": "C#5",
                    "midi": 73,
                    "time": 41.69999999999992,
                    "velocity": 0.33858267716535434,
                    "duration": 0.14999999999999858
                },
                {
                    "name": "F#5",
                    "midi": 78,
                    "time": 41.849999999999916,
                    "velocity": 0.41732283464566927,
                    "duration": 0.07500000000000284
                },
                {
                    "name": "D#5",
                    "midi": 75,
                    "time": 41.849999999999916,
                    "velocity": 0.3543307086614173,
                    "duration": 0.07500000000000284
                },
                {
                    "name": "E5",
                    "midi": 76,
                    "time": 41.92499999999992,
                    "velocity": 0.3700787401574803,
                    "duration": 0.03750000000000142
                },
                {
                    "name": "C#5",
                    "midi": 73,
                    "time": 41.92499999999992,
                    "velocity": 0.31496062992125984,
                    "duration": 0.03750000000000142
                },
                {
                    "name": "D#5",
                    "midi": 75,
                    "time": 41.96249999999992,
                    "velocity": 0.31496062992125984,
                    "duration": 0.03750000000000142
                },
                {
                    "name": "F#5",
                    "midi": 78,
                    "time": 41.96249999999992,
                    "velocity": 0.3700787401574803,
                    "duration": 0.03750000000000142
                },
                {
                    "name": "G#5",
                    "midi": 80,
                    "time": 41.99999999999992,
                    "velocity": 0.4409448818897638,
                    "duration": 0.14999999999999858
                },
                {
                    "name": "E5",
                    "midi": 76,
                    "time": 41.99999999999992,
                    "velocity": 0.3700787401574803,
                    "duration": 0.14999999999999858
                },
                {
                    "name": "G#4",
                    "midi": 68,
                    "time": 42.22499999999992,
                    "velocity": 0.33070866141732286,
                    "duration": 0.07500000000000284
                },
                {
                    "name": "C#5",
                    "midi": 73,
                    "time": 42.22499999999992,
                    "velocity": 0.3937007874015748,
                    "duration": 0.07500000000000284
                },
                {
                    "name": "D#5",
                    "midi": 75,
                    "time": 42.299999999999926,
                    "velocity": 0.36220472440944884,
                    "duration": 0.14999999999999858
                },
                {
                    "name": "F#5",
                    "midi": 78,
                    "time": 42.299999999999926,
                    "velocity": 0.4330708661417323,
                    "duration": 0.14999999999999858
                },
                {
                    "name": "E5",
                    "midi": 76,
                    "time": 42.449999999999925,
                    "velocity": 0.3858267716535433,
                    "duration": 0.14999999999999858
                },
                {
                    "name": "C#5",
                    "midi": 73,
                    "time": 42.449999999999925,
                    "velocity": 0.3228346456692913,
                    "duration": 0.14999999999999858
                },
                {
                    "name": "C5",
                    "midi": 72,
                    "time": 42.59999999999992,
                    "velocity": 0.3543307086614173,
                    "duration": 0.14999999999999858
                },
                {
                    "name": "D#5",
                    "midi": 75,
                    "time": 42.59999999999992,
                    "velocity": 0.4251968503937008,
                    "duration": 0.14999999999999858
                },
                {
                    "name": "D#5",
                    "midi": 75,
                    "time": 43.04999999999992,
                    "velocity": 0.3779527559055118,
                    "duration": 0.04999999999999716
                },
                {
                    "name": "D#5",
                    "midi": 75,
                    "time": 43.099999999999916,
                    "velocity": 0.3464566929133858,
                    "duration": 0.04999999999999716
                },
                {
                    "name": "E5",
                    "midi": 76,
                    "time": 43.15124999999991,
                    "velocity": 0.3464566929133858,
                    "duration": 0.04999999999999716
                },
                {
                    "name": "D#5",
                    "midi": 75,
                    "time": 43.19999999999991,
                    "velocity": 0.44881889763779526,
                    "duration": 0.14999999999999858
                },
                {
                    "name": "C5",
                    "midi": 72,
                    "time": 43.19999999999991,
                    "velocity": 0.3779527559055118,
                    "duration": 0.14999999999999858
                },
                {
                    "name": "C#5",
                    "midi": 73,
                    "time": 43.72499999999991,
                    "velocity": 0.4015748031496063,
                    "duration": 0.07500000000000284
                },
                {
                    "name": "A#4",
                    "midi": 70,
                    "time": 43.72499999999991,
                    "velocity": 0.36220472440944884,
                    "duration": 0.07500000000000284
                },
                {
                    "name": "D#5",
                    "midi": 75,
                    "time": 43.79999999999991,
                    "velocity": 0.4251968503937008,
                    "duration": 0.6000000000000014
                },
                {
                    "name": "C5",
                    "midi": 72,
                    "time": 43.79999999999991,
                    "velocity": 0.3543307086614173,
                    "duration": 0.6000000000000014
                },
                {
                    "name": "D#5",
                    "midi": 75,
                    "time": 44.77499999999991,
                    "velocity": 0.33070866141732286,
                    "duration": 0.0625
                },
                {
                    "name": "D#5",
                    "midi": 75,
                    "time": 44.849999999999916,
                    "velocity": 0.33070866141732286,
                    "duration": 0.0625
                },
                {
                    "name": "G#5",
                    "midi": 80,
                    "time": 44.92499999999992,
                    "velocity": 0.33070866141732286,
                    "duration": 0.6000000000000014
                },
                {
                    "name": "D#5",
                    "midi": 75,
                    "time": 44.99999999999992,
                    "velocity": 0.4251968503937008,
                    "duration": 0.45000000000000284
                },
                {
                    "name": "G#4",
                    "midi": 68,
                    "time": 45.449999999999925,
                    "velocity": 0.3464566929133858,
                    "duration": 0.14999999999999147
                },
                {
                    "name": "C5",
                    "midi": 72,
                    "time": 45.49999999999992,
                    "velocity": 0.2755905511811024,
                    "duration": 0.04999999999999716
                },
                {
                    "name": "G#5",
                    "midi": 80,
                    "time": 45.54999999999992,
                    "velocity": 0.2755905511811024,
                    "duration": 0.5999999999999943
                },
                {
                    "name": "C5",
                    "midi": 72,
                    "time": 45.599999999999916,
                    "velocity": 0.4094488188976378,
                    "duration": 0.45000000000000284
                },
                {
                    "name": "C#5",
                    "midi": 73,
                    "time": 46.04999999999992,
                    "velocity": 0.28346456692913385,
                    "duration": 0.07499999999999574
                },
                {
                    "name": "D#5",
                    "midi": 75,
                    "time": 46.099999999999916,
                    "velocity": 0.3464566929133858,
                    "duration": 0.04999999999999716
                },
                {
                    "name": "G#5",
                    "midi": 80,
                    "time": 46.14999999999991,
                    "velocity": 0.28346456692913385,
                    "duration": 0.5999999999999943
                },
                {
                    "name": "D#5",
                    "midi": 75,
                    "time": 46.19999999999991,
                    "velocity": 0.4251968503937008,
                    "duration": 0.45000000000000284
                },
                {
                    "name": "F#5",
                    "midi": 78,
                    "time": 46.64999999999991,
                    "velocity": 0.36220472440944884,
                    "duration": 0.14999999999999147
                },
                {
                    "name": "E5",
                    "midi": 76,
                    "time": 46.69999999999991,
                    "velocity": 0.28346456692913385,
                    "duration": 0.04999999999999716
                },
                {
                    "name": "G#5",
                    "midi": 80,
                    "time": 46.74999999999991,
                    "velocity": 0.28346456692913385,
                    "duration": 0.5999999999999943
                },
                {
                    "name": "E5",
                    "midi": 76,
                    "time": 46.799999999999905,
                    "velocity": 0.41732283464566927,
                    "duration": 0.45000000000000284
                },
                {
                    "name": "D#5",
                    "midi": 75,
                    "time": 47.24999999999991,
                    "velocity": 0.3858267716535433,
                    "duration": 0.14999999999999147
                },
                {
                    "name": "C#5",
                    "midi": 73,
                    "time": 47.299999999999905,
                    "velocity": 0.2992125984251969,
                    "duration": 0.04999999999999716
                },
                {
                    "name": "G#5",
                    "midi": 80,
                    "time": 47.3499999999999,
                    "velocity": 0.29133858267716534,
                    "duration": 0.5999999999999943
                },
                {
                    "name": "C#5",
                    "midi": 73,
                    "time": 47.3999999999999,
                    "velocity": 0.4251968503937008,
                    "duration": 0.45000000000000284
                },
                {
                    "name": "G#4",
                    "midi": 68,
                    "time": 47.8499999999999,
                    "velocity": 0.36220472440944884,
                    "duration": 0.14999999999999147
                },
                {
                    "name": "C#5",
                    "midi": 73,
                    "time": 47.8999999999999,
                    "velocity": 0.29133858267716534,
                    "duration": 0.04999999999999716
                },
                {
                    "name": "G#5",
                    "midi": 80,
                    "time": 47.949999999999896,
                    "velocity": 0.29133858267716534,
                    "duration": 0.5999999999999943
                },
                {
                    "name": "C#5",
                    "midi": 73,
                    "time": 47.99999999999989,
                    "velocity": 0.41732283464566927,
                    "duration": 0.45000000000000284
                },
                {
                    "name": "D#5",
                    "midi": 75,
                    "time": 48.449999999999896,
                    "velocity": 0.3858267716535433,
                    "duration": 0.14999999999999147
                },
                {
                    "name": "E5",
                    "midi": 76,
                    "time": 48.49999999999989,
                    "velocity": 0.29133858267716534,
                    "duration": 0.04999999999999716
                },
                {
                    "name": "G#5",
                    "midi": 80,
                    "time": 48.54999999999989,
                    "velocity": 0.29133858267716534,
                    "duration": 0.5499999999999972
                },
                {
                    "name": "E5",
                    "midi": 76,
                    "time": 48.59999999999989,
                    "velocity": 0.4251968503937008,
                    "duration": 0.45000000000000284
                },
                {
                    "name": "G#5",
                    "midi": 80,
                    "time": 49.04999999999989,
                    "velocity": 0.36220472440944884,
                    "duration": 0.14999999999999147
                },
                {
                    "name": "F#5",
                    "midi": 78,
                    "time": 49.09999999999989,
                    "velocity": 0.28346456692913385,
                    "duration": 0.04999999999999716
                },
                {
                    "name": "G#5",
                    "midi": 80,
                    "time": 49.149999999999885,
                    "velocity": 0.28346456692913385,
                    "duration": 0.5999999999999943
                },
                {
                    "name": "F#5",
                    "midi": 78,
                    "time": 49.19999999999988,
                    "velocity": 0.41732283464566927,
                    "duration": 0.45000000000000284
                },
                {
                    "name": "E5",
                    "midi": 76,
                    "time": 49.649999999999885,
                    "velocity": 0.3858267716535433,
                    "duration": 0.14999999999999147
                },
                {
                    "name": "D#5",
                    "midi": 75,
                    "time": 49.69999999999988,
                    "velocity": 0.2992125984251969,
                    "duration": 0.04999999999999716
                },
                {
                    "name": "G#5",
                    "midi": 80,
                    "time": 49.74999999999988,
                    "velocity": 0.2992125984251969,
                    "duration": 0.29999999999999716
                },
                {
                    "name": "D#5",
                    "midi": 75,
                    "time": 49.799999999999876,
                    "velocity": 0.4251968503937008,
                    "duration": 0.29999999999999716
                },
                {
                    "name": "G#4",
                    "midi": 68,
                    "time": 49.99999999999988,
                    "velocity": 0.2992125984251969,
                    "duration": 0.04999999999999716
                },
                {
                    "name": "G#5",
                    "midi": 80,
                    "time": 50.049999999999876,
                    "velocity": 0.2992125984251969,
                    "duration": 0.29999999999999716
                },
                {
                    "name": "G#4",
                    "midi": 68,
                    "time": 50.09999999999987,
                    "velocity": 0.36220472440944884,
                    "duration": 0.29999999999999716
                },
                {
                    "name": "C5",
                    "midi": 72,
                    "time": 50.299999999999876,
                    "velocity": 0.2992125984251969,
                    "duration": 0.04999999999999716
                },
                {
                    "name": "G#5",
                    "midi": 80,
                    "time": 50.34999999999987,
                    "velocity": 0.2992125984251969,
                    "duration": 0.29999999999999716
                },
                {
                    "name": "C5",
                    "midi": 72,
                    "time": 50.39999999999987,
                    "velocity": 0.41732283464566927,
                    "duration": 0.29999999999999716
                },
                {
                    "name": "C#5",
                    "midi": 73,
                    "time": 50.59999999999987,
                    "velocity": 0.2992125984251969,
                    "duration": 0.04999999999999716
                },
                {
                    "name": "G#5",
                    "midi": 80,
                    "time": 50.64999999999987,
                    "velocity": 0.2992125984251969,
                    "duration": 0.29999999999999716
                },
                {
                    "name": "C#5",
                    "midi": 73,
                    "time": 50.69999999999987,
                    "velocity": 0.3858267716535433,
                    "duration": 0.29999999999999716
                },
                {
                    "name": "D#5",
                    "midi": 75,
                    "time": 50.89999999999987,
                    "velocity": 0.29133858267716534,
                    "duration": 0.04999999999999716
                },
                {
                    "name": "G#5",
                    "midi": 80,
                    "time": 50.94999999999987,
                    "velocity": 0.29133858267716534,
                    "duration": 0.29999999999999716
                },
                {
                    "name": "D#5",
                    "midi": 75,
                    "time": 50.999999999999865,
                    "velocity": 0.4251968503937008,
                    "duration": 0.29999999999999716
                },
                {
                    "name": "F#5",
                    "midi": 78,
                    "time": 51.19999999999987,
                    "velocity": 0.28346456692913385,
                    "duration": 0.04999999999999716
                },
                {
                    "name": "G#5",
                    "midi": 80,
                    "time": 51.249999999999865,
                    "velocity": 0.28346456692913385,
                    "duration": 0.29999999999999716
                },
                {
                    "name": "F#5",
                    "midi": 78,
                    "time": 51.29999999999986,
                    "velocity": 0.36220472440944884,
                    "duration": 0.29999999999999716
                },
                {
                    "name": "E5",
                    "midi": 76,
                    "time": 51.499999999999865,
                    "velocity": 0.28346456692913385,
                    "duration": 0.04999999999999716
                },
                {
                    "name": "G#5",
                    "midi": 80,
                    "time": 51.54999999999986,
                    "velocity": 0.31496062992125984,
                    "duration": 0.29999999999999716
                },
                {
                    "name": "E5",
                    "midi": 76,
                    "time": 51.59999999999986,
                    "velocity": 0.41732283464566927,
                    "duration": 0.29999999999999716
                },
                {
                    "name": "D#5",
                    "midi": 75,
                    "time": 51.79999999999986,
                    "velocity": 0.2992125984251969,
                    "duration": 0.04999999999999716
                },
                {
                    "name": "G#5",
                    "midi": 80,
                    "time": 51.84999999999986,
                    "velocity": 0.2992125984251969,
                    "duration": 0.3499999999999943
                },
                {
                    "name": "D#5",
                    "midi": 75,
                    "time": 51.89999999999986,
                    "velocity": 0.3858267716535433,
                    "duration": 0.29999999999999716
                },
                {
                    "name": "C#5",
                    "midi": 73,
                    "time": 52.199999999999854,
                    "velocity": 0.4251968503937008,
                    "duration": 0.30000000000001137
                },
                {
                    "name": "G#5",
                    "midi": 80,
                    "time": 52.199999999999854,
                    "velocity": 0.3464566929133858,
                    "duration": 0.07500000000000284
                },
                {
                    "name": "A5",
                    "midi": 81,
                    "time": 52.27499999999986,
                    "velocity": 0.30708661417322836,
                    "duration": 0.07500000000000284
                },
                {
                    "name": "G#5",
                    "midi": 80,
                    "time": 52.34999999999986,
                    "velocity": 0.3464566929133858,
                    "duration": 0.07500000000000284
                },
                {
                    "name": "A5",
                    "midi": 81,
                    "time": 52.42499999999986,
                    "velocity": 0.30708661417322836,
                    "duration": 0.07500000000000284
                },
                {
                    "name": "G#5",
                    "midi": 80,
                    "time": 52.499999999999865,
                    "velocity": 0.3464566929133858,
                    "duration": 0.07500000000000284
                },
                {
                    "name": "A5",
                    "midi": 81,
                    "time": 52.57499999999987,
                    "velocity": 0.30708661417322836,
                    "duration": 0.07500000000000284
                },
                {
                    "name": "G#5",
                    "midi": 80,
                    "time": 52.64999999999987,
                    "velocity": 0.3464566929133858,
                    "duration": 0.07500000000000284
                },
                {
                    "name": "A5",
                    "midi": 81,
                    "time": 52.72499999999987,
                    "velocity": 0.30708661417322836,
                    "duration": 0.07500000000000284
                },
                {
                    "name": "G#5",
                    "midi": 80,
                    "time": 52.799999999999876,
                    "velocity": 0.3464566929133858,
                    "duration": 0.07500000000000284
                },
                {
                    "name": "C#5",
                    "midi": 73,
                    "time": 52.799999999999876,
                    "velocity": 0.41732283464566927,
                    "duration": 0.30000000000001137
                },
                {
                    "name": "A5",
                    "midi": 81,
                    "time": 52.87499999999988,
                    "velocity": 0.30708661417322836,
                    "duration": 0.07500000000000284
                },
                {
                    "name": "G#5",
                    "midi": 80,
                    "time": 52.94999999999988,
                    "velocity": 0.3464566929133858,
                    "duration": 0.07500000000000284
                },
                {
                    "name": "A5",
                    "midi": 81,
                    "time": 53.024999999999885,
                    "velocity": 0.30708661417322836,
                    "duration": 0.07500000000000284
                },
                {
                    "name": "G#5",
                    "midi": 80,
                    "time": 53.09999999999989,
                    "velocity": 0.3464566929133858,
                    "duration": 0.07500000000000284
                },
                {
                    "name": "A5",
                    "midi": 81,
                    "time": 53.17499999999989,
                    "velocity": 0.30708661417322836,
                    "duration": 0.07500000000000284
                },
                {
                    "name": "D#5",
                    "midi": 75,
                    "time": 53.24999999999989,
                    "velocity": 0.3858267716535433,
                    "duration": 0.15000000000000568
                },
                {
                    "name": "G#5",
                    "midi": 80,
                    "time": 53.24999999999989,
                    "velocity": 0.3464566929133858,
                    "duration": 0.07500000000000284
                },
                {
                    "name": "A5",
                    "midi": 81,
                    "time": 53.324999999999896,
                    "velocity": 0.30708661417322836,
                    "duration": 0.07500000000000284
                },
                {
                    "name": "G#5",
                    "midi": 80,
                    "time": 53.3999999999999,
                    "velocity": 0.3464566929133858,
                    "duration": 0.07500000000000284
                },
                {
                    "name": "E5",
                    "midi": 76,
                    "time": 53.3999999999999,
                    "velocity": 0.3937007874015748,
                    "duration": 0.30000000000001137
                },
                {
                    "name": "A5",
                    "midi": 81,
                    "time": 53.4749999999999,
                    "velocity": 0.30708661417322836,
                    "duration": 0.07500000000000284
                },
                {
                    "name": "G#5",
                    "midi": 80,
                    "time": 53.549999999999905,
                    "velocity": 0.3464566929133858,
                    "duration": 0.07500000000000284
                },
                {
                    "name": "A5",
                    "midi": 81,
                    "time": 53.62499999999991,
                    "velocity": 0.30708661417322836,
                    "duration": 0.07500000000000284
                },
                {
                    "name": "G#5",
                    "midi": 80,
                    "time": 53.69999999999991,
                    "velocity": 0.47244094488188976,
                    "duration": 0.07500000000000284
                },
                {
                    "name": "A5",
                    "midi": 81,
                    "time": 53.77499999999991,
                    "velocity": 0.30708661417322836,
                    "duration": 0.07500000000000284
                },
                {
                    "name": "G#5",
                    "midi": 80,
                    "time": 53.849999999999916,
                    "velocity": 0.3464566929133858,
                    "duration": 0.07500000000000284
                },
                {
                    "name": "A5",
                    "midi": 81,
                    "time": 53.92499999999992,
                    "velocity": 0.30708661417322836,
                    "duration": 0.07500000000000284
                },
                {
                    "name": "G#5",
                    "midi": 80,
                    "time": 53.99999999999992,
                    "velocity": 0.3464566929133858,
                    "duration": 0.07500000000000284
                },
                {
                    "name": "C#6",
                    "midi": 85,
                    "time": 53.99999999999992,
                    "velocity": 0.5118110236220472,
                    "duration": 0.30000000000001137
                },
                {
                    "name": "A5",
                    "midi": 81,
                    "time": 54.074999999999925,
                    "velocity": 0.30708661417322836,
                    "duration": 0.07500000000000284
                },
                {
                    "name": "G#5",
                    "midi": 80,
                    "time": 54.14999999999993,
                    "velocity": 0.3464566929133858,
                    "duration": 0.07500000000000284
                },
                {
                    "name": "A5",
                    "midi": 81,
                    "time": 54.22499999999993,
                    "velocity": 0.30708661417322836,
                    "duration": 0.07500000000000284
                },
                {
                    "name": "G#5",
                    "midi": 80,
                    "time": 54.29999999999993,
                    "velocity": 0.3464566929133858,
                    "duration": 0.07500000000000284
                },
                {
                    "name": "E6",
                    "midi": 88,
                    "time": 54.29999999999993,
                    "velocity": 0.5196850393700787,
                    "duration": 0.30000000000001137
                },
                {
                    "name": "A5",
                    "midi": 81,
                    "time": 54.374999999999936,
                    "velocity": 0.30708661417322836,
                    "duration": 0.07500000000000284
                },
                {
                    "name": "G#5",
                    "midi": 80,
                    "time": 54.44999999999994,
                    "velocity": 0.3464566929133858,
                    "duration": 0.07500000000000284
                },
                {
                    "name": "A5",
                    "midi": 81,
                    "time": 54.52499999999994,
                    "velocity": 0.30708661417322836,
                    "duration": 0.07500000000000284
                },
                {
                    "name": "G#5",
                    "midi": 80,
                    "time": 54.599999999999945,
                    "velocity": 0.4645669291338583,
                    "duration": 0.060000000000002274
                },
                {
                    "name": "D#6",
                    "midi": 87,
                    "time": 54.65999999999995,
                    "velocity": 0.33070866141732286,
                    "duration": 0.060000000000002274
                },
                {
                    "name": "G#6",
                    "midi": 92,
                    "time": 54.71999999999995,
                    "velocity": 0.4015748031496063,
                    "duration": 0.060000000000002274
                },
                {
                    "name": "D#6",
                    "midi": 87,
                    "time": 54.77999999999995,
                    "velocity": 0.3543307086614173,
                    "duration": 0.060000000000002274
                },
                {
                    "name": "G#5",
                    "midi": 80,
                    "time": 54.839999999999954,
                    "velocity": 0.30708661417322836,
                    "duration": 0.045000000000001705
                },
                {
                    "name": "G#5",
                    "midi": 80,
                    "time": 54.899999999999956,
                    "velocity": 0.4566929133858268,
                    "duration": 0.05624999999999858
                },
                {
                    "name": "G#5",
                    "midi": 80,
                    "time": 54.97499999999995,
                    "velocity": 0.31496062992125984,
                    "duration": 0.07500000000000284
                },
                {
                    "name": "G#6",
                    "midi": 92,
                    "time": 55.049999999999955,
                    "velocity": 0.4015748031496063,
                    "duration": 0.07500000000000284
                },
                {
                    "name": "G#5",
                    "midi": 80,
                    "time": 55.12499999999996,
                    "velocity": 0.31496062992125984,
                    "duration": 0.07500000000000284
                },
                {
                    "name": "C6",
                    "midi": 84,
                    "time": 55.19999999999996,
                    "velocity": 0.5118110236220472,
                    "duration": 0.15000000000000568
                },
                {
                    "name": "G#6",
                    "midi": 92,
                    "time": 55.27499999999996,
                    "velocity": 0.4094488188976378,
                    "duration": 0.07500000000000284
                },
                {
                    "name": "D#6",
                    "midi": 87,
                    "time": 55.349999999999966,
                    "velocity": 0.3228346456692913,
                    "duration": 0.07500000000000284
                },
                {
                    "name": "C6",
                    "midi": 84,
                    "time": 55.42499999999997,
                    "velocity": 0.3228346456692913,
                    "duration": 0.07500000000000284
                },
                {
                    "name": "C#6",
                    "midi": 85,
                    "time": 55.49999999999997,
                    "velocity": 0.48031496062992124,
                    "duration": 0.15000000000000568
                },
                {
                    "name": "G#6",
                    "midi": 92,
                    "time": 55.574999999999974,
                    "velocity": 0.3858267716535433,
                    "duration": 0.07500000000000284
                },
                {
                    "name": "C#6",
                    "midi": 85,
                    "time": 55.64999999999998,
                    "velocity": 0.30708661417322836,
                    "duration": 0.07500000000000284
                },
                {
                    "name": "G#5",
                    "midi": 80,
                    "time": 55.72499999999998,
                    "velocity": 0.30708661417322836,
                    "duration": 0.07500000000000284
                },
                {
                    "name": "D#6",
                    "midi": 87,
                    "time": 55.79999999999998,
                    "velocity": 0.49606299212598426,
                    "duration": 0.07500000000000284
                },
                {
                    "name": "G#6",
                    "midi": 92,
                    "time": 55.874999999999986,
                    "velocity": 0.4015748031496063,
                    "duration": 0.07500000000000284
                },
                {
                    "name": "D#6",
                    "midi": 87,
                    "time": 55.94999999999999,
                    "velocity": 0.3228346456692913,
                    "duration": 0.07500000000000284
                },
                {
                    "name": "G#5",
                    "midi": 80,
                    "time": 56.02499999999999,
                    "velocity": 0.3228346456692913,
                    "duration": 0.07500000000000284
                },
                {
                    "name": "F#6",
                    "midi": 90,
                    "time": 56.099999999999994,
                    "velocity": 0.4566929133858268,
                    "duration": 0.07500000000000284
                },
                {
                    "name": "G#6",
                    "midi": 92,
                    "time": 56.175,
                    "velocity": 0.3779527559055118,
                    "duration": 0.07500000000000284
                },
                {
                    "name": "F#6",
                    "midi": 90,
                    "time": 56.25,
                    "velocity": 0.3228346456692913,
                    "duration": 0.07500000000000284
                },
                {
                    "name": "G#5",
                    "midi": 80,
                    "time": 56.325,
                    "velocity": 0.3228346456692913,
                    "duration": 0.07500000000000284
                },
                {
                    "name": "E6",
                    "midi": 88,
                    "time": 56.400000000000006,
                    "velocity": 0.49606299212598426,
                    "duration": 0.07500000000000284
                },
                {
                    "name": "G#6",
                    "midi": 92,
                    "time": 56.47500000000001,
                    "velocity": 0.3858267716535433,
                    "duration": 0.07500000000000284
                },
                {
                    "name": "E6",
                    "midi": 88,
                    "time": 56.55000000000001,
                    "velocity": 0.31496062992125984,
                    "duration": 0.07500000000000284
                },
                {
                    "name": "G#5",
                    "midi": 80,
                    "time": 56.625000000000014,
                    "velocity": 0.31496062992125984,
                    "duration": 0.07500000000000284
                },
                {
                    "name": "D#6",
                    "midi": 87,
                    "time": 56.70000000000002,
                    "velocity": 0.47244094488188976,
                    "duration": 0.07500000000000284
                },
                {
                    "name": "G#6",
                    "midi": 92,
                    "time": 56.77500000000002,
                    "velocity": 0.3779527559055118,
                    "duration": 0.07500000000000284
                },
                {
                    "name": "D#6",
                    "midi": 87,
                    "time": 56.85000000000002,
                    "velocity": 0.3228346456692913,
                    "duration": 0.07500000000000284
                },
                {
                    "name": "G#5",
                    "midi": 80,
                    "time": 56.925000000000026,
                    "velocity": 0.3228346456692913,
                    "duration": 0.05624999999999858
                },
                {
                    "name": "G#5",
                    "midi": 80,
                    "time": 57.00000000000002,
                    "velocity": 0.5118110236220472,
                    "duration": 0.060000000000002274
                },
                {
                    "name": "C#6",
                    "midi": 85,
                    "time": 57.060000000000024,
                    "velocity": 0.33070866141732286,
                    "duration": 0.060000000000002274
                },
                {
                    "name": "G#6",
                    "midi": 92,
                    "time": 57.120000000000026,
                    "velocity": 0.4015748031496063,
                    "duration": 0.060000000000002274
                },
                {
                    "name": "C#6",
                    "midi": 85,
                    "time": 57.18000000000003,
                    "velocity": 0.3543307086614173,
                    "duration": 0.045000000000001705
                },
                {
                    "name": "G#5",
                    "midi": 80,
                    "time": 57.24000000000003,
                    "velocity": 0.30708661417322836,
                    "duration": 0.045000000000001705
                },
                {
                    "name": "G#5",
                    "midi": 80,
                    "time": 57.30000000000003,
                    "velocity": 0.4566929133858268,
                    "duration": 0.05624999999999858
                },
                {
                    "name": "G#5",
                    "midi": 80,
                    "time": 57.37500000000003,
                    "velocity": 0.31496062992125984,
                    "duration": 0.07500000000000284
                },
                {
                    "name": "G#6",
                    "midi": 92,
                    "time": 57.45000000000003,
                    "velocity": 0.4015748031496063,
                    "duration": 0.07500000000000284
                },
                {
                    "name": "G#5",
                    "midi": 80,
                    "time": 57.525000000000034,
                    "velocity": 0.31496062992125984,
                    "duration": 0.07500000000000284
                },
                {
                    "name": "C#6",
                    "midi": 85,
                    "time": 57.60000000000004,
                    "velocity": 0.5118110236220472,
                    "duration": 0.15000000000000568
                },
                {
                    "name": "G#6",
                    "midi": 92,
                    "time": 57.67500000000004,
                    "velocity": 0.4094488188976378,
                    "duration": 0.07500000000000284
                },
                {
                    "name": "C#6",
                    "midi": 85,
                    "time": 57.75000000000004,
                    "velocity": 0.3228346456692913,
                    "duration": 0.07500000000000284
                },
                {
                    "name": "G#5",
                    "midi": 80,
                    "time": 57.825000000000045,
                    "velocity": 0.3228346456692913,
                    "duration": 0.07500000000000284
                },
                {
                    "name": "D#6",
                    "midi": 87,
                    "time": 57.90000000000005,
                    "velocity": 0.49606299212598426,
                    "duration": 0.15000000000000568
                },
                {
                    "name": "G#6",
                    "midi": 92,
                    "time": 57.97500000000005,
                    "velocity": 0.3858267716535433,
                    "duration": 0.07500000000000284
                },
                {
                    "name": "D#6",
                    "midi": 87,
                    "time": 58.050000000000054,
                    "velocity": 0.30708661417322836,
                    "duration": 0.07500000000000284
                },
                {
                    "name": "G#5",
                    "midi": 80,
                    "time": 58.12500000000006,
                    "velocity": 0.30708661417322836,
                    "duration": 0.07500000000000284
                },
                {
                    "name": "E6",
                    "midi": 88,
                    "time": 58.20000000000006,
                    "velocity": 0.5039370078740157,
                    "duration": 0.07500000000000284
                },
                {
                    "name": "G#6",
                    "midi": 92,
                    "time": 58.27500000000006,
                    "velocity": 0.4015748031496063,
                    "duration": 0.07500000000000284
                },
                {
                    "name": "E6",
                    "midi": 88,
                    "time": 58.350000000000065,
                    "velocity": 0.3228346456692913,
                    "duration": 0.07500000000000284
                },
                {
                    "name": "G#5",
                    "midi": 80,
                    "time": 58.42500000000007,
                    "velocity": 0.3228346456692913,
                    "duration": 0.07500000000000284
                },
                {
                    "name": "G#6",
                    "midi": 92,
                    "time": 58.50000000000007,
                    "velocity": 0.41732283464566927,
                    "duration": 0.07500000000000284
                },
                {
                    "name": "G#5",
                    "midi": 80,
                    "time": 58.575000000000074,
                    "velocity": 0.3464566929133858,
                    "duration": 0.07500000000000284
                },
                {
                    "name": "G#6",
                    "midi": 92,
                    "time": 58.65000000000008,
                    "velocity": 0.4015748031496063,
                    "duration": 0.07500000000000284
                },
                {
                    "name": "G#5",
                    "midi": 80,
                    "time": 58.72500000000008,
                    "velocity": 0.3228346456692913,
                    "duration": 0.07500000000000284
                },
                {
                    "name": "F#6",
                    "midi": 90,
                    "time": 58.80000000000008,
                    "velocity": 0.49606299212598426,
                    "duration": 0.07500000000000284
                },
                {
                    "name": "G#6",
                    "midi": 92,
                    "time": 58.875000000000085,
                    "velocity": 0.3858267716535433,
                    "duration": 0.07500000000000284
                },
                {
                    "name": "F#6",
                    "midi": 90,
                    "time": 58.95000000000009,
                    "velocity": 0.31496062992125984,
                    "duration": 0.07500000000000284
                },
                {
                    "name": "G#5",
                    "midi": 80,
                    "time": 59.02500000000009,
                    "velocity": 0.31496062992125984,
                    "duration": 0.07500000000000284
                },
                {
                    "name": "E6",
                    "midi": 88,
                    "time": 59.100000000000094,
                    "velocity": 0.49606299212598426,
                    "duration": 0.07500000000000284
                },
                {
                    "name": "G#6",
                    "midi": 92,
                    "time": 59.1750000000001,
                    "velocity": 0.3779527559055118,
                    "duration": 0.07500000000000284
                },
                {
                    "name": "E6",
                    "midi": 88,
                    "time": 59.2500000000001,
                    "velocity": 0.3228346456692913,
                    "duration": 0.07500000000000284
                },
                {
                    "name": "G#5",
                    "midi": 80,
                    "time": 59.3250000000001,
                    "velocity": 0.3228346456692913,
                    "duration": 0.07500000000000284
                },
                {
                    "name": "D#6",
                    "midi": 87,
                    "time": 59.400000000000105,
                    "velocity": 0.5039370078740157,
                    "duration": 0.060000000000002274
                },
                {
                    "name": "G#6",
                    "midi": 92,
                    "time": 59.46000000000011,
                    "velocity": 0.36220472440944884,
                    "duration": 0.060000000000002274
                },
                {
                    "name": "A6",
                    "midi": 93,
                    "time": 59.52000000000011,
                    "velocity": 0.4015748031496063,
                    "duration": 0.060000000000002274
                },
                {
                    "name": "G#6",
                    "midi": 92,
                    "time": 59.58000000000011,
                    "velocity": 0.3543307086614173,
                    "duration": 0.060000000000002274
                },
                {
                    "name": "D#6",
                    "midi": 87,
                    "time": 59.640000000000114,
                    "velocity": 0.30708661417322836,
                    "duration": 0.060000000000002274
                },
                {
                    "name": "G#5",
                    "midi": 80,
                    "time": 59.70000000000012,
                    "velocity": 0.49606299212598426,
                    "duration": 0.060000000000002274
                },
                {
                    "name": "G#6",
                    "midi": 92,
                    "time": 59.76000000000012,
                    "velocity": 0.36220472440944884,
                    "duration": 0.060000000000002274
                },
                {
                    "name": "A6",
                    "midi": 93,
                    "time": 59.82000000000012,
                    "velocity": 0.4094488188976378,
                    "duration": 0.060000000000002274
                },
                {
                    "name": "G#6",
                    "midi": 92,
                    "time": 59.88000000000012,
                    "velocity": 0.36220472440944884,
                    "duration": 0.060000000000002274
                },
                {
                    "name": "G#5",
                    "midi": 80,
                    "time": 59.940000000000126,
                    "velocity": 0.31496062992125984,
                    "duration": 0.060000000000002274
                },
                {
                    "name": "C6",
                    "midi": 84,
                    "time": 60.00000000000013,
                    "velocity": 0.47244094488188976,
                    "duration": 0.060000000000002274
                },
                {
                    "name": "G#6",
                    "midi": 92,
                    "time": 60.06000000000013,
                    "velocity": 0.3700787401574803,
                    "duration": 0.060000000000002274
                },
                {
                    "name": "A6",
                    "midi": 93,
                    "time": 60.12000000000013,
                    "velocity": 0.41732283464566927,
                    "duration": 0.060000000000002274
                },
                {
                    "name": "G#6",
                    "midi": 92,
                    "time": 60.180000000000135,
                    "velocity": 0.36220472440944884,
                    "duration": 0.060000000000002274
                },
                {
                    "name": "G#5",
                    "midi": 80,
                    "time": 60.24000000000014,
                    "velocity": 0.31496062992125984,
                    "duration": 0.060000000000002274
                },
                {
                    "name": "C#6",
                    "midi": 85,
                    "time": 60.30000000000014,
                    "velocity": 0.48031496062992124,
                    "duration": 0.060000000000002274
                },
                {
                    "name": "G#6",
                    "midi": 92,
                    "time": 60.36000000000014,
                    "velocity": 0.3779527559055118,
                    "duration": 0.060000000000002274
                },
                {
                    "name": "A6",
                    "midi": 93,
                    "time": 60.420000000000144,
                    "velocity": 0.4251968503937008,
                    "duration": 0.060000000000002274
                },
                {
                    "name": "G#6",
                    "midi": 92,
                    "time": 60.480000000000146,
                    "velocity": 0.3700787401574803,
                    "duration": 0.060000000000002274
                },
                {
                    "name": "G#5",
                    "midi": 80,
                    "time": 60.54000000000015,
                    "velocity": 0.3228346456692913,
                    "duration": 0.060000000000002274
                },
                {
                    "name": "D#6",
                    "midi": 87,
                    "time": 60.60000000000015,
                    "velocity": 0.5196850393700787,
                    "duration": 0.060000000000002274
                },
                {
                    "name": "G#6",
                    "midi": 92,
                    "time": 60.66000000000015,
                    "velocity": 0.3858267716535433,
                    "duration": 0.060000000000002274
                },
                {
                    "name": "A6",
                    "midi": 93,
                    "time": 60.720000000000155,
                    "velocity": 0.4330708661417323,
                    "duration": 0.060000000000002274
                },
                {
                    "name": "G#6",
                    "midi": 92,
                    "time": 60.78000000000016,
                    "velocity": 0.3779527559055118,
                    "duration": 0.060000000000002274
                },
                {
                    "name": "G#5",
                    "midi": 80,
                    "time": 60.84000000000016,
                    "velocity": 0.33070866141732286,
                    "duration": 0.060000000000002274
                },
                {
                    "name": "F#6",
                    "midi": 90,
                    "time": 60.90000000000016,
                    "velocity": 0.5039370078740157,
                    "duration": 0.060000000000002274
                },
                {
                    "name": "G#6",
                    "midi": 92,
                    "time": 60.960000000000164,
                    "velocity": 0.3937007874015748,
                    "duration": 0.060000000000002274
                },
                {
                    "name": "A6",
                    "midi": 93,
                    "time": 61.02000000000017,
                    "velocity": 0.4409448818897638,
                    "duration": 0.060000000000002274
                },
                {
                    "name": "G#6",
                    "midi": 92,
                    "time": 61.08000000000017,
                    "velocity": 0.3858267716535433,
                    "duration": 0.060000000000002274
                },
                {
                    "name": "G#5",
                    "midi": 80,
                    "time": 61.14000000000017,
                    "velocity": 0.33070866141732286,
                    "duration": 0.060000000000002274
                },
                {
                    "name": "E6",
                    "midi": 88,
                    "time": 61.20000000000017,
                    "velocity": 0.5118110236220472,
                    "duration": 0.060000000000002274
                },
                {
                    "name": "G#6",
                    "midi": 92,
                    "time": 61.260000000000176,
                    "velocity": 0.4015748031496063,
                    "duration": 0.060000000000002274
                },
                {
                    "name": "A6",
                    "midi": 93,
                    "time": 61.32000000000018,
                    "velocity": 0.44881889763779526,
                    "duration": 0.060000000000002274
                },
                {
                    "name": "G#6",
                    "midi": 92,
                    "time": 61.38000000000018,
                    "velocity": 0.3937007874015748,
                    "duration": 0.060000000000002274
                },
                {
                    "name": "G#5",
                    "midi": 80,
                    "time": 61.44000000000018,
                    "velocity": 0.33858267716535434,
                    "duration": 0.060000000000002274
                },
                {
                    "name": "D#6",
                    "midi": 87,
                    "time": 61.500000000000185,
                    "velocity": 0.5196850393700787,
                    "duration": 0.060000000000002274
                },
                {
                    "name": "G#6",
                    "midi": 92,
                    "time": 61.56000000000019,
                    "velocity": 0.4015748031496063,
                    "duration": 0.060000000000002274
                },
                {
                    "name": "A6",
                    "midi": 93,
                    "time": 61.62000000000019,
                    "velocity": 0.44881889763779526,
                    "duration": 0.060000000000002274
                },
                {
                    "name": "G#6",
                    "midi": 92,
                    "time": 61.68000000000019,
                    "velocity": 0.4015748031496063,
                    "duration": 0.060000000000002274
                },
                {
                    "name": "G#5",
                    "midi": 80,
                    "time": 61.740000000000194,
                    "velocity": 0.3464566929133858,
                    "duration": 0.060000000000002274
                },
                {
                    "name": "C#6",
                    "midi": 85,
                    "time": 61.800000000000196,
                    "velocity": 0.5275590551181102,
                    "duration": 0.30000000000001137
                },
                {
                    "name": "G#6",
                    "midi": 92,
                    "time": 61.800000000000196,
                    "velocity": 0.4330708661417323,
                    "duration": 0.07500000000000284
                },
                {
                    "name": "A6",
                    "midi": 93,
                    "time": 61.8750000000002,
                    "velocity": 0.3779527559055118,
                    "duration": 0.07500000000000284
                },
                {
                    "name": "G#6",
                    "midi": 92,
                    "time": 61.9500000000002,
                    "velocity": 0.4330708661417323,
                    "duration": 0.07500000000000284
                },
                {
                    "name": "A6",
                    "midi": 93,
                    "time": 62.025000000000205,
                    "velocity": 0.3779527559055118,
                    "duration": 0.07500000000000284
                },
                {
                    "name": "G#6",
                    "midi": 92,
                    "time": 62.10000000000021,
                    "velocity": 0.4330708661417323,
                    "duration": 0.07500000000000284
                },
                {
                    "name": "A6",
                    "midi": 93,
                    "time": 62.17500000000021,
                    "velocity": 0.3779527559055118,
                    "duration": 0.07500000000000284
                },
                {
                    "name": "G#6",
                    "midi": 92,
                    "time": 62.25000000000021,
                    "velocity": 0.4330708661417323,
                    "duration": 0.07500000000000284
                },
                {
                    "name": "A6",
                    "midi": 93,
                    "time": 62.325000000000216,
                    "velocity": 0.3779527559055118,
                    "duration": 0.07500000000000284
                },
                {
                    "name": "G#6",
                    "midi": 92,
                    "time": 62.40000000000022,
                    "velocity": 0.4330708661417323,
                    "duration": 0.07500000000000284
                },
                {
                    "name": "C#6",
                    "midi": 85,
                    "time": 62.40000000000022,
                    "velocity": 0.5196850393700787,
                    "duration": 0.30000000000001137
                },
                {
                    "name": "A6",
                    "midi": 93,
                    "time": 62.47500000000022,
                    "velocity": 0.3779527559055118,
                    "duration": 0.07500000000000284
                },
                {
                    "name": "G#6",
                    "midi": 92,
                    "time": 62.550000000000225,
                    "velocity": 0.4330708661417323,
                    "duration": 0.07500000000000284
                },
                {
                    "name": "A6",
                    "midi": 93,
                    "time": 62.62500000000023,
                    "velocity": 0.3779527559055118,
                    "duration": 0.07500000000000284
                },
                {
                    "name": "G#6",
                    "midi": 92,
                    "time": 62.70000000000023,
                    "velocity": 0.4330708661417323,
                    "duration": 0.07500000000000284
                },
                {
                    "name": "A6",
                    "midi": 93,
                    "time": 62.77500000000023,
                    "velocity": 0.3779527559055118,
                    "duration": 0.07500000000000284
                },
                {
                    "name": "C6",
                    "midi": 84,
                    "time": 62.850000000000236,
                    "velocity": 0.47244094488188976,
                    "duration": 0.15000000000000568
                },
                {
                    "name": "G#6",
                    "midi": 92,
                    "time": 62.850000000000236,
                    "velocity": 0.4330708661417323,
                    "duration": 0.07500000000000284
                },
                {
                    "name": "A6",
                    "midi": 93,
                    "time": 62.92500000000024,
                    "velocity": 0.3779527559055118,
                    "duration": 0.07500000000000284
                },
                {
                    "name": "C#6",
                    "midi": 85,
                    "time": 63.00000000000024,
                    "velocity": 0.49606299212598426,
                    "duration": 0.6000000000000227
                },
                {
                    "name": "G#6",
                    "midi": 92,
                    "time": 63.00000000000024,
                    "velocity": 0.4330708661417323,
                    "duration": 0.07500000000000284
                },
                {
                    "name": "A6",
                    "midi": 93,
                    "time": 63.075000000000244,
                    "velocity": 0.3779527559055118,
                    "duration": 0.07500000000000284
                },
                {
                    "name": "G#6",
                    "midi": 92,
                    "time": 63.15000000000025,
                    "velocity": 0.4330708661417323,
                    "duration": 0.07500000000000284
                },
                {
                    "name": "A6",
                    "midi": 93,
                    "time": 63.22500000000025,
                    "velocity": 0.3779527559055118,
                    "duration": 0.07500000000000284
                },
                {
                    "name": "G#6",
                    "midi": 92,
                    "time": 63.30000000000025,
                    "velocity": 0.4566929133858268,
                    "duration": 0.07500000000000284
                },
                {
                    "name": "A6",
                    "midi": 93,
                    "time": 63.375000000000256,
                    "velocity": 0.3779527559055118,
                    "duration": 0.07500000000000284
                },
                {
                    "name": "G#6",
                    "midi": 92,
                    "time": 63.45000000000026,
                    "velocity": 0.4330708661417323,
                    "duration": 0.07500000000000284
                },
                {
                    "name": "A6",
                    "midi": 93,
                    "time": 63.52500000000026,
                    "velocity": 0.3779527559055118,
                    "duration": 0.07500000000000284
                },
                {
                    "name": "E6",
                    "midi": 88,
                    "time": 63.600000000000264,
                    "velocity": 0.4094488188976378,
                    "duration": 0.054999999999999716
                },
                {
                    "name": "G#6",
                    "midi": 92,
                    "time": 63.655000000000264,
                    "velocity": 0.3700787401574803,
                    "duration": 0.054999999999999716
                },
                {
                    "name": "E7",
                    "midi": 100,
                    "time": 63.710000000000264,
                    "velocity": 0.4251968503937008,
                    "duration": 0.054999999999999716
                },
                {
                    "name": "D#7",
                    "midi": 99,
                    "time": 63.76500000000026,
                    "velocity": 0.4015748031496063,
                    "duration": 0.054999999999999716
                },
                {
                    "name": "C#7",
                    "midi": 97,
                    "time": 63.818750000000264,
                    "velocity": 0.3858267716535433,
                    "duration": 0.054999999999999716
                },
                {
                    "name": "G#6",
                    "midi": 92,
                    "time": 63.873750000000264,
                    "velocity": 0.3700787401574803,
                    "duration": 0.054999999999999716
                },
                {
                    "name": "E6",
                    "midi": 88,
                    "time": 63.928750000000264,
                    "velocity": 0.3543307086614173,
                    "duration": 0.054999999999999716
                },
                {
                    "name": "D#6",
                    "midi": 87,
                    "time": 63.98375000000026,
                    "velocity": 0.33070866141732286,
                    "duration": 0.054999999999999716
                },
                {
                    "name": "C#6",
                    "midi": 85,
                    "time": 64.03875000000026,
                    "velocity": 0.31496062992125984,
                    "duration": 0.05499999999999261
                },
                {
                    "name": "G#5",
                    "midi": 80,
                    "time": 64.09250000000026,
                    "velocity": 0.2992125984251969,
                    "duration": 0.05499999999999261
                },
                {
                    "name": "E5",
                    "midi": 76,
                    "time": 64.14750000000025,
                    "velocity": 0.3228346456692913,
                    "duration": 0.052499999999994884
                },
                {
                    "name": "D#5",
                    "midi": 75,
                    "time": 64.20000000000024,
                    "velocity": 0.41732283464566927,
                    "duration": 0.07500000000000284
                },
                {
                    "name": "E5",
                    "midi": 76,
                    "time": 64.42500000000025,
                    "velocity": 0.29133858267716534,
                    "duration": 0.07500000000000284
                },
                {
                    "name": "F#5",
                    "midi": 78,
                    "time": 64.50000000000026,
                    "velocity": 0.3700787401574803,
                    "duration": 0.07500000000000284
                },
                {
                    "name": "G#5",
                    "midi": 80,
                    "time": 64.72500000000026,
                    "velocity": 0.33858267716535434,
                    "duration": 0.07500000000000284
                },
                {
                    "name": "A5",
                    "midi": 81,
                    "time": 64.80000000000027,
                    "velocity": 0.4015748031496063,
                    "duration": 0.07500000000000284
                },
                {
                    "name": "G#5",
                    "midi": 80,
                    "time": 65.02500000000028,
                    "velocity": 0.33070866141732286,
                    "duration": 0.07500000000000284
                },
                {
                    "name": "B5",
                    "midi": 83,
                    "time": 65.10000000000028,
                    "velocity": 0.4015748031496063,
                    "duration": 0.07500000000000284
                },
                {
                    "name": "A5",
                    "midi": 81,
                    "time": 65.32500000000029,
                    "velocity": 0.36220472440944884,
                    "duration": 0.07500000000000284
                },
                {
                    "name": "G#5",
                    "midi": 80,
                    "time": 65.40000000000029,
                    "velocity": 0.4251968503937008,
                    "duration": 0.15000000000000568
                },
                {
                    "name": "G#4",
                    "midi": 68,
                    "time": 65.6250000000003,
                    "velocity": 0.4015748031496063,
                    "duration": 0.22500000000000853
                },
                {
                    "name": "G#5",
                    "midi": 80,
                    "time": 65.7000000000003,
                    "velocity": 0.4330708661417323,
                    "duration": 0.15000000000000568
                },
                {
                    "name": "A#4",
                    "midi": 70,
                    "time": 65.92500000000031,
                    "velocity": 0.41732283464566927,
                    "duration": 0.22500000000000853
                },
                {
                    "name": "G#5",
                    "midi": 80,
                    "time": 66.00000000000031,
                    "velocity": 0.4566929133858268,
                    "duration": 0.15000000000000568
                },
                {
                    "name": "C5",
                    "midi": 72,
                    "time": 66.22500000000032,
                    "velocity": 0.4330708661417323,
                    "duration": 0.22500000000000853
                },
                {
                    "name": "G#5",
                    "midi": 80,
                    "time": 66.30000000000032,
                    "velocity": 0.47244094488188976,
                    "duration": 0.15000000000000568
                },
                {
                    "name": "C#5",
                    "midi": 73,
                    "time": 66.52500000000033,
                    "velocity": 0.29133858267716534,
                    "duration": 0.037499999999994316
                },
                {
                    "name": "D#5",
                    "midi": 75,
                    "time": 66.56250000000033,
                    "velocity": 0.29133858267716534,
                    "duration": 0.037499999999994316
                },
                {
                    "name": "C#5",
                    "midi": 73,
                    "time": 66.60000000000032,
                    "velocity": 0.3937007874015748,
                    "duration": 0.07500000000000284
                },
                {
                    "name": "C5",
                    "midi": 72,
                    "time": 66.82500000000033,
                    "velocity": 0.29133858267716534,
                    "duration": 0.07500000000000284
                },
                {
                    "name": "C#5",
                    "midi": 73,
                    "time": 66.90000000000033,
                    "velocity": 0.3779527559055118,
                    "duration": 0.07500000000000284
                },
                {
                    "name": "D#5",
                    "midi": 75,
                    "time": 67.12500000000034,
                    "velocity": 0.30708661417322836,
                    "duration": 0.037499999999994316
                },
                {
                    "name": "E5",
                    "midi": 76,
                    "time": 67.16250000000034,
                    "velocity": 0.2677165354330709,
                    "duration": 0.018749999999997158
                },
                {
                    "name": "F#5",
                    "midi": 78,
                    "time": 67.18125000000033,
                    "velocity": 0.2755905511811024,
                    "duration": 0.018749999999997158
                },
                {
                    "name": "E5",
                    "midi": 76,
                    "time": 67.20000000000033,
                    "velocity": 0.4015748031496063,
                    "duration": 0.07500000000000284
                },
                {
                    "name": "D#5",
                    "midi": 75,
                    "time": 67.42500000000034,
                    "velocity": 0.33070866141732286,
                    "duration": 0.07500000000000284
                },
                {
                    "name": "E5",
                    "midi": 76,
                    "time": 67.50000000000034,
                    "velocity": 0.41732283464566927,
                    "duration": 0.07500000000000284
                },
                {
                    "name": "F#5",
                    "midi": 78,
                    "time": 67.72500000000035,
                    "velocity": 0.33070866141732286,
                    "duration": 0.07500000000000284
                },
                {
                    "name": "G5",
                    "midi": 79,
                    "time": 67.80000000000035,
                    "velocity": 0.4330708661417323,
                    "duration": 0.07500000000000284
                },
                {
                    "name": "G#5",
                    "midi": 80,
                    "time": 68.02500000000036,
                    "velocity": 0.3543307086614173,
                    "duration": 0.07500000000000284
                },
                {
                    "name": "A5",
                    "midi": 81,
                    "time": 68.10000000000036,
                    "velocity": 0.4251968503937008,
                    "duration": 0.07500000000000284
                },
                {
                    "name": "G#5",
                    "midi": 80,
                    "time": 68.32500000000037,
                    "velocity": 0.3779527559055118,
                    "duration": 0.07500000000000284
                },
                {
                    "name": "F#5",
                    "midi": 78,
                    "time": 68.40000000000038,
                    "velocity": 0.4330708661417323,
                    "duration": 0.07500000000000284
                },
                {
                    "name": "E5",
                    "midi": 76,
                    "time": 68.62500000000038,
                    "velocity": 0.33070866141732286,
                    "duration": 0.07500000000000284
                },
                {
                    "name": "D#5",
                    "midi": 75,
                    "time": 68.70000000000039,
                    "velocity": 0.4094488188976378,
                    "duration": 0.07500000000000284
                },
                {
                    "name": "G#5",
                    "midi": 80,
                    "time": 68.70000000000039,
                    "velocity": 0.4094488188976378,
                    "duration": 0.07500000000000284
                },
                {
                    "name": "C#5",
                    "midi": 73,
                    "time": 68.9250000000004,
                    "velocity": 0.33070866141732286,
                    "duration": 0.037499999999994316
                },
                {
                    "name": "C5",
                    "midi": 72,
                    "time": 68.96250000000039,
                    "velocity": 0.3858267716535433,
                    "duration": 0.637500000000017
                },
                {
                    "name": "D#6",
                    "midi": 87,
                    "time": 69.00000000000038,
                    "velocity": 0.44881889763779526,
                    "duration": 0.07500000000000284
                },
                {
                    "name": "E6",
                    "midi": 88,
                    "time": 69.22500000000039,
                    "velocity": 0.4330708661417323,
                    "duration": 0.07500000000000284
                },
                {
                    "name": "F#6",
                    "midi": 90,
                    "time": 69.3000000000004,
                    "velocity": 0.4881889763779528,
                    "duration": 0.07500000000000284
                },
                {
                    "name": "G#6",
                    "midi": 92,
                    "time": 69.5250000000004,
                    "velocity": 0.4330708661417323,
                    "duration": 0.07500000000000284
                },
                {
                    "name": "A6",
                    "midi": 93,
                    "time": 69.6000000000004,
                    "velocity": 0.48031496062992124,
                    "duration": 0.07500000000000284
                },
                {
                    "name": "G#6",
                    "midi": 92,
                    "time": 69.82500000000041,
                    "velocity": 0.3858267716535433,
                    "duration": 0.07500000000000284
                },
                {
                    "name": "B6",
                    "midi": 95,
                    "time": 69.90000000000042,
                    "velocity": 0.44881889763779526,
                    "duration": 0.07500000000000284
                },
                {
                    "name": "A6",
                    "midi": 93,
                    "time": 70.12500000000043,
                    "velocity": 0.4015748031496063,
                    "duration": 0.07500000000000284
                },
                {
                    "name": "G#6",
                    "midi": 92,
                    "time": 70.20000000000043,
                    "velocity": 0.47244094488188976,
                    "duration": 0.15000000000000568
                },
                {
                    "name": "G#4",
                    "midi": 68,
                    "time": 70.42500000000044,
                    "velocity": 0.4015748031496063,
                    "duration": 0.22500000000000853
                },
                {
                    "name": "G#5",
                    "midi": 80,
                    "time": 70.50000000000044,
                    "velocity": 0.4566929133858268,
                    "duration": 0.15000000000000568
                },
                {
                    "name": "A#4",
                    "midi": 70,
                    "time": 70.72500000000045,
                    "velocity": 0.41732283464566927,
                    "duration": 0.22500000000000853
                },
                {
                    "name": "G#5",
                    "midi": 80,
                    "time": 70.80000000000045,
                    "velocity": 0.4881889763779528,
                    "duration": 0.15000000000000568
                },
                {
                    "name": "A#5",
                    "midi": 82,
                    "time": 70.80000000000045,
                    "velocity": 0.4881889763779528,
                    "duration": 0.15000000000000568
                },
                {
                    "name": "C5",
                    "midi": 72,
                    "time": 71.02500000000046,
                    "velocity": 0.4330708661417323,
                    "duration": 0.22500000000000853
                },
                {
                    "name": "C6",
                    "midi": 84,
                    "time": 71.10000000000046,
                    "velocity": 0.5118110236220472,
                    "duration": 0.15000000000000568
                },
                {
                    "name": "G#5",
                    "midi": 80,
                    "time": 71.10000000000046,
                    "velocity": 0.5118110236220472,
                    "duration": 0.15000000000000568
                },
                {
                    "name": "C#5",
                    "midi": 73,
                    "time": 71.32500000000047,
                    "velocity": 0.48031496062992124,
                    "duration": 0.025000000000005684
                },
                {
                    "name": "G#5",
                    "midi": 80,
                    "time": 71.35000000000048,
                    "velocity": 0.4330708661417323,
                    "duration": 0.025000000000005684
                },
                {
                    "name": "D#6",
                    "midi": 87,
                    "time": 71.37500000000048,
                    "velocity": 0.5196850393700787,
                    "duration": 0.025000000000005684
                },
                {
                    "name": "C#6",
                    "midi": 85,
                    "time": 71.40000000000049,
                    "velocity": 0.4881889763779528,
                    "duration": 0.07500000000000284
                },
                {
                    "name": "D#6",
                    "midi": 87,
                    "time": 71.47500000000049,
                    "velocity": 0.31496062992125984,
                    "duration": 0.07500000000000284
                },
                {
                    "name": "C#6",
                    "midi": 85,
                    "time": 71.5500000000005,
                    "velocity": 0.3937007874015748,
                    "duration": 0.07500000000000284
                },
                {
                    "name": "D#6",
                    "midi": 87,
                    "time": 71.6250000000005,
                    "velocity": 0.31496062992125984,
                    "duration": 0.07500000000000284
                },
                {
                    "name": "C#6",
                    "midi": 85,
                    "time": 71.7000000000005,
                    "velocity": 0.3858267716535433,
                    "duration": 0.07500000000000284
                },
                {
                    "name": "D#6",
                    "midi": 87,
                    "time": 71.7750000000005,
                    "velocity": 0.31496062992125984,
                    "duration": 0.07500000000000284
                },
                {
                    "name": "C#6",
                    "midi": 85,
                    "time": 71.8500000000005,
                    "velocity": 0.3700787401574803,
                    "duration": 0.07500000000000284
                },
                {
                    "name": "D#6",
                    "midi": 87,
                    "time": 71.92500000000051,
                    "velocity": 0.30708661417322836,
                    "duration": 0.07500000000000284
                },
                {
                    "name": "C#6",
                    "midi": 85,
                    "time": 72.00000000000051,
                    "velocity": 0.3700787401574803,
                    "duration": 0.07500000000000284
                },
                {
                    "name": "D#6",
                    "midi": 87,
                    "time": 72.07500000000051,
                    "velocity": 0.30708661417322836,
                    "duration": 0.07500000000000284
                },
                {
                    "name": "C#6",
                    "midi": 85,
                    "time": 72.15000000000052,
                    "velocity": 0.36220472440944884,
                    "duration": 0.07500000000000284
                },
                {
                    "name": "D#6",
                    "midi": 87,
                    "time": 72.22500000000052,
                    "velocity": 0.30708661417322836,
                    "duration": 0.07500000000000284
                },
                {
                    "name": "C#6",
                    "midi": 85,
                    "time": 72.30000000000052,
                    "velocity": 0.36220472440944884,
                    "duration": 0.07500000000000284
                },
                {
                    "name": "D#6",
                    "midi": 87,
                    "time": 72.37500000000053,
                    "velocity": 0.30708661417322836,
                    "duration": 0.07500000000000284
                },
                {
                    "name": "C#6",
                    "midi": 85,
                    "time": 72.45000000000053,
                    "velocity": 0.3543307086614173,
                    "duration": 0.07500000000000284
                },
                {
                    "name": "D#6",
                    "midi": 87,
                    "time": 72.52500000000053,
                    "velocity": 0.30708661417322836,
                    "duration": 0.07500000000000284
                },
                {
                    "name": "C#6",
                    "midi": 85,
                    "time": 72.60000000000053,
                    "velocity": 0.4015748031496063,
                    "duration": 0.07500000000000284
                },
                {
                    "name": "D#6",
                    "midi": 87,
                    "time": 72.67500000000054,
                    "velocity": 0.2992125984251969,
                    "duration": 0.07500000000000284
                },
                {
                    "name": "C#6",
                    "midi": 85,
                    "time": 72.75000000000054,
                    "velocity": 0.3779527559055118,
                    "duration": 0.07500000000000284
                },
                {
                    "name": "D#6",
                    "midi": 87,
                    "time": 72.82500000000054,
                    "velocity": 0.2992125984251969,
                    "duration": 0.07500000000000284
                },
                {
                    "name": "C#6",
                    "midi": 85,
                    "time": 72.90000000000055,
                    "velocity": 0.36220472440944884,
                    "duration": 0.07500000000000284
                },
                {
                    "name": "D#6",
                    "midi": 87,
                    "time": 72.97500000000055,
                    "velocity": 0.2992125984251969,
                    "duration": 0.07500000000000284
                },
                {
                    "name": "C#6",
                    "midi": 85,
                    "time": 73.05000000000055,
                    "velocity": 0.3543307086614173,
                    "duration": 0.07500000000000284
                },
                {
                    "name": "D#6",
                    "midi": 87,
                    "time": 73.12500000000055,
                    "velocity": 0.2992125984251969,
                    "duration": 0.07500000000000284
                },
                {
                    "name": "C#6",
                    "midi": 85,
                    "time": 73.20000000000056,
                    "velocity": 0.3543307086614173,
                    "duration": 0.07500000000000284
                },
                {
                    "name": "D#6",
                    "midi": 87,
                    "time": 73.27500000000056,
                    "velocity": 0.2992125984251969,
                    "duration": 0.07500000000000284
                },
                {
                    "name": "C#6",
                    "midi": 85,
                    "time": 73.35000000000056,
                    "velocity": 0.33858267716535434,
                    "duration": 0.07500000000000284
                },
                {
                    "name": "D#6",
                    "midi": 87,
                    "time": 73.42500000000057,
                    "velocity": 0.29133858267716534,
                    "duration": 0.07500000000000284
                },
                {
                    "name": "C#6",
                    "midi": 85,
                    "time": 73.50000000000057,
                    "velocity": 0.33858267716535434,
                    "duration": 0.07500000000000284
                },
                {
                    "name": "D#6",
                    "midi": 87,
                    "time": 73.57500000000057,
                    "velocity": 0.29133858267716534,
                    "duration": 0.07500000000000284
                },
                {
                    "name": "C#6",
                    "midi": 85,
                    "time": 73.65000000000057,
                    "velocity": 0.33858267716535434,
                    "duration": 0.07500000000000284
                },
                {
                    "name": "D#6",
                    "midi": 87,
                    "time": 73.72500000000058,
                    "velocity": 0.29133858267716534,
                    "duration": 0.07500000000000284
                },
                {
                    "name": "C#6",
                    "midi": 85,
                    "time": 73.80000000000058,
                    "velocity": 0.3464566929133858,
                    "duration": 0.07500000000000284
                },
                {
                    "name": "F5",
                    "midi": 77,
                    "time": 73.80000000000058,
                    "velocity": 0.2440944881889764,
                    "duration": 0.07500000000000284
                },
                {
                    "name": "D#6",
                    "midi": 87,
                    "time": 73.87500000000058,
                    "velocity": 0.25984251968503935,
                    "duration": 0.07500000000000284
                },
                {
                    "name": "C#6",
                    "midi": 85,
                    "time": 73.95000000000059,
                    "velocity": 0.3228346456692913,
                    "duration": 0.07500000000000284
                },
                {
                    "name": "F5",
                    "midi": 77,
                    "time": 73.95000000000059,
                    "velocity": 0.2440944881889764,
                    "duration": 0.07500000000000284
                },
                {
                    "name": "D#6",
                    "midi": 87,
                    "time": 74.02500000000059,
                    "velocity": 0.25984251968503935,
                    "duration": 0.07500000000000284
                },
                {
                    "name": "F5",
                    "midi": 77,
                    "time": 74.10000000000059,
                    "velocity": 0.25984251968503935,
                    "duration": 0.07500000000000284
                },
                {
                    "name": "C#6",
                    "midi": 85,
                    "time": 74.10000000000059,
                    "velocity": 0.33070866141732286,
                    "duration": 0.07500000000000284
                },
                {
                    "name": "D#6",
                    "midi": 87,
                    "time": 74.1750000000006,
                    "velocity": 0.2755905511811024,
                    "duration": 0.07500000000000284
                },
                {
                    "name": "F5",
                    "midi": 77,
                    "time": 74.2500000000006,
                    "velocity": 0.25984251968503935,
                    "duration": 0.07500000000000284
                },
                {
                    "name": "C#6",
                    "midi": 85,
                    "time": 74.2500000000006,
                    "velocity": 0.33070866141732286,
                    "duration": 0.07500000000000284
                },
                {
                    "name": "D#6",
                    "midi": 87,
                    "time": 74.3250000000006,
                    "velocity": 0.28346456692913385,
                    "duration": 0.07500000000000284
                },
                {
                    "name": "C#6",
                    "midi": 85,
                    "time": 74.4000000000006,
                    "velocity": 0.3464566929133858,
                    "duration": 0.07500000000000284
                },
                {
                    "name": "F5",
                    "midi": 77,
                    "time": 74.4000000000006,
                    "velocity": 0.2755905511811024,
                    "duration": 0.07500000000000284
                },
                {
                    "name": "D#6",
                    "midi": 87,
                    "time": 74.4750000000006,
                    "velocity": 0.29133858267716534,
                    "duration": 0.07500000000000284
                },
                {
                    "name": "C#6",
                    "midi": 85,
                    "time": 74.55000000000061,
                    "velocity": 0.3464566929133858,
                    "duration": 0.07500000000000284
                },
                {
                    "name": "F5",
                    "midi": 77,
                    "time": 74.55000000000061,
                    "velocity": 0.28346456692913385,
                    "duration": 0.07500000000000284
                },
                {
                    "name": "D#6",
                    "midi": 87,
                    "time": 74.62500000000061,
                    "velocity": 0.2992125984251969,
                    "duration": 0.07500000000000284
                },
                {
                    "name": "F5",
                    "midi": 77,
                    "time": 74.70000000000061,
                    "velocity": 0.28346456692913385,
                    "duration": 0.07500000000000284
                },
                {
                    "name": "C#6",
                    "midi": 85,
                    "time": 74.70000000000061,
                    "velocity": 0.3543307086614173,
                    "duration": 0.07500000000000284
                },
                {
                    "name": "D#6",
                    "midi": 87,
                    "time": 74.77500000000062,
                    "velocity": 0.31496062992125984,
                    "duration": 0.07500000000000284
                },
                {
                    "name": "F5",
                    "midi": 77,
                    "time": 74.85000000000062,
                    "velocity": 0.2992125984251969,
                    "duration": 0.07500000000000284
                },
                {
                    "name": "C#6",
                    "midi": 85,
                    "time": 74.85000000000062,
                    "velocity": 0.3700787401574803,
                    "duration": 0.07500000000000284
                },
                {
                    "name": "D#6",
                    "midi": 87,
                    "time": 74.92500000000062,
                    "velocity": 0.3228346456692913,
                    "duration": 0.07500000000000284
                },
                {
                    "name": "C#6",
                    "midi": 85,
                    "time": 75.00000000000063,
                    "velocity": 0.4409448818897638,
                    "duration": 0.07500000000000284
                },
                {
                    "name": "F5",
                    "midi": 77,
                    "time": 75.00000000000063,
                    "velocity": 0.31496062992125984,
                    "duration": 0.07500000000000284
                },
                {
                    "name": "D#6",
                    "midi": 87,
                    "time": 75.07500000000063,
                    "velocity": 0.33070866141732286,
                    "duration": 0.07500000000000284
                },
                {
                    "name": "F5",
                    "midi": 77,
                    "time": 75.15000000000063,
                    "velocity": 0.30708661417322836,
                    "duration": 0.07500000000000284
                },
                {
                    "name": "C#6",
                    "midi": 85,
                    "time": 75.15000000000063,
                    "velocity": 0.4015748031496063,
                    "duration": 0.07500000000000284
                },
                {
                    "name": "D#6",
                    "midi": 87,
                    "time": 75.22500000000063,
                    "velocity": 0.31496062992125984,
                    "duration": 0.07500000000000284
                },
                {
                    "name": "C#6",
                    "midi": 85,
                    "time": 75.30000000000064,
                    "velocity": 0.3779527559055118,
                    "duration": 0.07500000000000284
                },
                {
                    "name": "F5",
                    "midi": 77,
                    "time": 75.30000000000064,
                    "velocity": 0.29133858267716534,
                    "duration": 0.07500000000000284
                },
                {
                    "name": "D#6",
                    "midi": 87,
                    "time": 75.37500000000064,
                    "velocity": 0.30708661417322836,
                    "duration": 0.07500000000000284
                },
                {
                    "name": "C#6",
                    "midi": 85,
                    "time": 75.45000000000064,
                    "velocity": 0.3543307086614173,
                    "duration": 0.07500000000000284
                },
                {
                    "name": "F5",
                    "midi": 77,
                    "time": 75.45000000000064,
                    "velocity": 0.28346456692913385,
                    "duration": 0.07500000000000284
                },
                {
                    "name": "D#6",
                    "midi": 87,
                    "time": 75.52500000000065,
                    "velocity": 0.29133858267716534,
                    "duration": 0.07500000000000284
                },
                {
                    "name": "F5",
                    "midi": 77,
                    "time": 75.60000000000065,
                    "velocity": 0.2755905511811024,
                    "duration": 0.07500000000000284
                },
                {
                    "name": "C#6",
                    "midi": 85,
                    "time": 75.60000000000065,
                    "velocity": 0.3464566929133858,
                    "duration": 0.07500000000000284
                },
                {
                    "name": "D#6",
                    "midi": 87,
                    "time": 75.67500000000065,
                    "velocity": 0.28346456692913385,
                    "duration": 0.07500000000000284
                },
                {
                    "name": "F5",
                    "midi": 77,
                    "time": 75.75000000000065,
                    "velocity": 0.25984251968503935,
                    "duration": 0.07500000000000284
                },
                {
                    "name": "C#6",
                    "midi": 85,
                    "time": 75.75000000000065,
                    "velocity": 0.3228346456692913,
                    "duration": 0.07500000000000284
                },
                {
                    "name": "D#6",
                    "midi": 87,
                    "time": 75.82500000000066,
                    "velocity": 0.2755905511811024,
                    "duration": 0.07500000000000284
                },
                {
                    "name": "C#6",
                    "midi": 85,
                    "time": 75.90000000000066,
                    "velocity": 0.30708661417322836,
                    "duration": 0.07500000000000284
                },
                {
                    "name": "F5",
                    "midi": 77,
                    "time": 75.90000000000066,
                    "velocity": 0.25196850393700787,
                    "duration": 0.07500000000000284
                },
                {
                    "name": "D#6",
                    "midi": 87,
                    "time": 75.97500000000066,
                    "velocity": 0.25984251968503935,
                    "duration": 0.07500000000000284
                },
                {
                    "name": "F5",
                    "midi": 77,
                    "time": 76.05000000000067,
                    "velocity": 0.2440944881889764,
                    "duration": 0.07500000000000284
                },
                {
                    "name": "C#6",
                    "midi": 85,
                    "time": 76.05000000000067,
                    "velocity": 0.2992125984251969,
                    "duration": 0.07500000000000284
                },
                {
                    "name": "D#6",
                    "midi": 87,
                    "time": 76.12500000000067,
                    "velocity": 0.25196850393700787,
                    "duration": 0.07500000000000284
                },
                {
                    "name": "F5",
                    "midi": 77,
                    "time": 76.20000000000067,
                    "velocity": 0.30708661417322836,
                    "duration": 0.07500000000000284
                },
                {
                    "name": "C#6",
                    "midi": 85,
                    "time": 76.20000000000067,
                    "velocity": 0.30708661417322836,
                    "duration": 0.07500000000000284
                },
                {
                    "name": "C6",
                    "midi": 84,
                    "time": 76.27500000000067,
                    "velocity": 0.25984251968503935,
                    "duration": 0.07500000000000284
                },
                {
                    "name": "D#6",
                    "midi": 87,
                    "time": 76.35000000000068,
                    "velocity": 0.33070866141732286,
                    "duration": 0.07500000000000284
                },
                {
                    "name": "C#6",
                    "midi": 85,
                    "time": 76.42500000000068,
                    "velocity": 0.29133858267716534,
                    "duration": 0.07500000000000284
                },
                {
                    "name": "F6",
                    "midi": 89,
                    "time": 76.50000000000068,
                    "velocity": 0.3700787401574803,
                    "duration": 0.07500000000000284
                },
                {
                    "name": "D#6",
                    "midi": 87,
                    "time": 76.57500000000068,
                    "velocity": 0.3464566929133858,
                    "duration": 0.07500000000000284
                },
                {
                    "name": "C#6",
                    "midi": 85,
                    "time": 76.65000000000069,
                    "velocity": 0.3228346456692913,
                    "duration": 0.07500000000000284
                },
                {
                    "name": "G#5",
                    "midi": 80,
                    "time": 76.72500000000069,
                    "velocity": 0.30708661417322836,
                    "duration": 0.07500000000000284
                },
                {
                    "name": "F5",
                    "midi": 77,
                    "time": 76.8000000000007,
                    "velocity": 0.3464566929133858,
                    "duration": 0.07500000000000284
                },
                {
                    "name": "D#5",
                    "midi": 75,
                    "time": 76.8750000000007,
                    "velocity": 0.30708661417322836,
                    "duration": 0.07500000000000284
                },
                {
                    "name": "C#5",
                    "midi": 73,
                    "time": 76.9500000000007,
                    "velocity": 0.30708661417322836,
                    "duration": 0.07500000000000284
                },
                {
                    "name": "G#4",
                    "midi": 68,
                    "time": 77.0250000000007,
                    "velocity": 0.30708661417322836,
                    "duration": 0.07500000000000284
                },
                {
                    "name": "F4",
                    "midi": 65,
                    "time": 77.1000000000007,
                    "velocity": 0.33070866141732286,
                    "duration": 0.07500000000000284
                },
                {
                    "name": "G#4",
                    "midi": 68,
                    "time": 77.17500000000071,
                    "velocity": 0.28346456692913385,
                    "duration": 0.07500000000000284
                },
                {
                    "name": "C#5",
                    "midi": 73,
                    "time": 77.25000000000071,
                    "velocity": 0.30708661417322836,
                    "duration": 0.07500000000000284
                },
                {
                    "name": "D#5",
                    "midi": 75,
                    "time": 77.32500000000071,
                    "velocity": 0.33858267716535434,
                    "duration": 0.07500000000000284
                },
                {
                    "name": "F5",
                    "midi": 77,
                    "time": 77.40000000000072,
                    "velocity": 0.36220472440944884,
                    "duration": 0.07500000000000284
                },
                {
                    "name": "G#5",
                    "midi": 80,
                    "time": 77.47500000000072,
                    "velocity": 0.33070866141732286,
                    "duration": 0.07500000000000284
                },
                {
                    "name": "C#6",
                    "midi": 85,
                    "time": 77.55000000000072,
                    "velocity": 0.3464566929133858,
                    "duration": 0.07500000000000284
                },
                {
                    "name": "D#6",
                    "midi": 87,
                    "time": 77.62500000000072,
                    "velocity": 0.36220472440944884,
                    "duration": 0.07500000000000284
                },
                {
                    "name": "F6",
                    "midi": 89,
                    "time": 77.70000000000073,
                    "velocity": 0.4094488188976378,
                    "duration": 0.07500000000000284
                },
                {
                    "name": "G#6",
                    "midi": 92,
                    "time": 77.77500000000073,
                    "velocity": 0.36220472440944884,
                    "duration": 0.07500000000000284
                },
                {
                    "name": "C#7",
                    "midi": 97,
                    "time": 77.85000000000073,
                    "velocity": 0.41732283464566927,
                    "duration": 0.07500000000000284
                },
                {
                    "name": "G#6",
                    "midi": 92,
                    "time": 77.92500000000074,
                    "velocity": 0.36220472440944884,
                    "duration": 0.07500000000000284
                },
                {
                    "name": "D#7",
                    "midi": 99,
                    "time": 78.00000000000074,
                    "velocity": 0.4645669291338583,
                    "duration": 0.07500000000000284
                },
                {
                    "name": "C#7",
                    "midi": 97,
                    "time": 78.07500000000074,
                    "velocity": 0.4094488188976378,
                    "duration": 0.07500000000000284
                },
                {
                    "name": "F7",
                    "midi": 101,
                    "time": 78.15000000000074,
                    "velocity": 0.4645669291338583,
                    "duration": 0.07500000000000284
                },
                {
                    "name": "D#7",
                    "midi": 99,
                    "time": 78.22500000000075,
                    "velocity": 0.41732283464566927,
                    "duration": 0.07500000000000284
                },
                {
                    "name": "C#7",
                    "midi": 97,
                    "time": 78.30000000000075,
                    "velocity": 0.4645669291338583,
                    "duration": 0.07500000000000284
                },
                {
                    "name": "G#6",
                    "midi": 92,
                    "time": 78.37500000000075,
                    "velocity": 0.4251968503937008,
                    "duration": 0.07500000000000284
                },
                {
                    "name": "F6",
                    "midi": 89,
                    "time": 78.45000000000076,
                    "velocity": 0.4645669291338583,
                    "duration": 0.07500000000000284
                },
                {
                    "name": "C#7",
                    "midi": 97,
                    "time": 78.52500000000076,
                    "velocity": 0.4645669291338583,
                    "duration": 0.07500000000000284
                },
                {
                    "name": "G#6",
                    "midi": 92,
                    "time": 78.60000000000076,
                    "velocity": 0.5118110236220472,
                    "duration": 0.07500000000000284
                },
                {
                    "name": "F6",
                    "midi": 89,
                    "time": 78.67500000000076,
                    "velocity": 0.4409448818897638,
                    "duration": 0.07500000000000284
                },
                {
                    "name": "D#6",
                    "midi": 87,
                    "time": 78.75000000000077,
                    "velocity": 0.4409448818897638,
                    "duration": 0.07500000000000284
                },
                {
                    "name": "C#6",
                    "midi": 85,
                    "time": 78.82500000000077,
                    "velocity": 0.31496062992125984,
                    "duration": 0.07500000000000284
                },
                {
                    "name": "F6",
                    "midi": 89,
                    "time": 78.90000000000077,
                    "velocity": 0.4566929133858268,
                    "duration": 0.07500000000000284
                },
                {
                    "name": "D#6",
                    "midi": 87,
                    "time": 78.97500000000078,
                    "velocity": 0.4015748031496063,
                    "duration": 0.07500000000000284
                },
                {
                    "name": "C#6",
                    "midi": 85,
                    "time": 79.05000000000078,
                    "velocity": 0.3937007874015748,
                    "duration": 0.07500000000000284
                },
                {
                    "name": "G#5",
                    "midi": 80,
                    "time": 79.12500000000078,
                    "velocity": 0.3937007874015748,
                    "duration": 0.07500000000000284
                },
                {
                    "name": "F5",
                    "midi": 77,
                    "time": 79.20000000000078,
                    "velocity": 0.4881889763779528,
                    "duration": 0.07500000000000284
                },
                {
                    "name": "C#6",
                    "midi": 85,
                    "time": 79.27500000000079,
                    "velocity": 0.4094488188976378,
                    "duration": 0.07500000000000284
                },
                {
                    "name": "G#5",
                    "midi": 80,
                    "time": 79.35000000000079,
                    "velocity": 0.4645669291338583,
                    "duration": 0.07500000000000284
                },
                {
                    "name": "F5",
                    "midi": 77,
                    "time": 79.4250000000008,
                    "velocity": 0.4330708661417323,
                    "duration": 0.07500000000000284
                },
                {
                    "name": "D#5",
                    "midi": 75,
                    "time": 79.5000000000008,
                    "velocity": 0.49606299212598426,
                    "duration": 0.07500000000000284
                },
                {
                    "name": "C#5",
                    "midi": 73,
                    "time": 79.5750000000008,
                    "velocity": 0.4409448818897638,
                    "duration": 0.07500000000000284
                },
                {
                    "name": "F5",
                    "midi": 77,
                    "time": 79.6500000000008,
                    "velocity": 0.44881889763779526,
                    "duration": 0.07500000000000284
                },
                {
                    "name": "D#5",
                    "midi": 75,
                    "time": 79.7250000000008,
                    "velocity": 0.4566929133858268,
                    "duration": 0.07500000000000284
                },
                {
                    "name": "C#5",
                    "midi": 73,
                    "time": 79.80000000000081,
                    "velocity": 0.5433070866141733,
                    "duration": 0.07500000000000284
                },
                {
                    "name": "G#4",
                    "midi": 68,
                    "time": 79.87500000000081,
                    "velocity": 0.47244094488188976,
                    "duration": 0.07500000000000284
                },
                {
                    "name": "F4",
                    "midi": 65,
                    "time": 79.95000000000081,
                    "velocity": 0.49606299212598426,
                    "duration": 0.07500000000000284
                },
                {
                    "name": "C#5",
                    "midi": 73,
                    "time": 80.02500000000082,
                    "velocity": 0.4566929133858268,
                    "duration": 0.07500000000000284
                },
                {
                    "name": "G#4",
                    "midi": 68,
                    "time": 80.10000000000082,
                    "velocity": 0.5433070866141733,
                    "duration": 0.07500000000000284
                },
                {
                    "name": "F4",
                    "midi": 65,
                    "time": 80.17500000000082,
                    "velocity": 0.5039370078740157,
                    "duration": 0.07500000000000284
                },
                {
                    "name": "D#4",
                    "midi": 63,
                    "time": 80.25000000000082,
                    "velocity": 0.5196850393700787,
                    "duration": 0.07500000000000284
                },
                {
                    "name": "C#4",
                    "midi": 61,
                    "time": 80.32500000000083,
                    "velocity": 0.5354330708661418,
                    "duration": 0.07500000000000284
                },
                {
                    "name": "F4",
                    "midi": 65,
                    "time": 80.40000000000083,
                    "velocity": 0.5511811023622047,
                    "duration": 0.09999999999999432
                },
                {
                    "name": "D#4",
                    "midi": 63,
                    "time": 80.50000000000082,
                    "velocity": 0.6062992125984252,
                    "duration": 0.09999999999999432
                },
                {
                    "name": "C#4",
                    "midi": 61,
                    "time": 80.60000000000082,
                    "velocity": 0.6456692913385826,
                    "duration": 0.08750000000000568
                },
                {
                    "name": "C#4",
                    "midi": 61,
                    "time": 80.70000000000083,
                    "velocity": 0.6692913385826772,
                    "duration": 0.9000000000000057
                },
                {
                    "name": "C#4",
                    "midi": 61,
                    "time": 81.60000000000083,
                    "velocity": 0.5748031496062992,
                    "duration": 0.09999999999999432
                },
                {
                    "name": "B3",
                    "midi": 59,
                    "time": 81.70000000000083,
                    "velocity": 0.5511811023622047,
                    "duration": 0.09999999999999432
                },
                {
                    "name": "C#4",
                    "midi": 61,
                    "time": 81.80000000000082,
                    "velocity": 0.5354330708661418,
                    "duration": 0.09999999999999432
                },
                {
                    "name": "B3",
                    "midi": 59,
                    "time": 81.90000000000082,
                    "velocity": 0.6062992125984252,
                    "duration": 0.9599999999999937
                },
                {
                    "name": "C#4",
                    "midi": 61,
                    "time": 82.86000000000081,
                    "velocity": 0.5039370078740157,
                    "duration": 0.060000000000002274
                },
                {
                    "name": "E4",
                    "midi": 64,
                    "time": 82.92000000000081,
                    "velocity": 0.5511811023622047,
                    "duration": 0.060000000000002274
                },
                {
                    "name": "D4",
                    "midi": 62,
                    "time": 82.98000000000081,
                    "velocity": 0.5196850393700787,
                    "duration": 0.060000000000002274
                },
                {
                    "name": "C#4",
                    "midi": 61,
                    "time": 83.04000000000082,
                    "velocity": 0.5196850393700787,
                    "duration": 0.04999999999999716
                },
                {
                    "name": "C#4",
                    "midi": 61,
                    "time": 83.10000000000082,
                    "velocity": 0.5826771653543307,
                    "duration": 1
                },
                {
                    "name": "C#4",
                    "midi": 61,
                    "time": 84.00000000000082,
                    "velocity": 0.5748031496062992,
                    "duration": 0.29999999999998295
                },
                {
                    "name": "B3",
                    "midi": 59,
                    "time": 84.10000000000082,
                    "velocity": 0.5511811023622047,
                    "duration": 0.09999999999999432
                },
                {
                    "name": "C#4",
                    "midi": 61,
                    "time": 84.20000000000081,
                    "velocity": 0.5354330708661418,
                    "duration": 0.09999999999999432
                },
                {
                    "name": "B3",
                    "midi": 59,
                    "time": 84.30000000000081,
                    "velocity": 0.6062992125984252,
                    "duration": 0.9325000000000045
                },
                {
                    "name": "A3",
                    "midi": 57,
                    "time": 85.23375000000081,
                    "velocity": 0.4251968503937008,
                    "duration": 0.048749999999998295
                },
                {
                    "name": "G#3",
                    "midi": 56,
                    "time": 85.29875000000081,
                    "velocity": 0.4881889763779528,
                    "duration": 0.04999999999999716
                },
                {
                    "name": "B3",
                    "midi": 59,
                    "time": 85.3487500000008,
                    "velocity": 0.4409448818897638,
                    "duration": 0.04999999999999716
                },
                {
                    "name": "A3",
                    "midi": 57,
                    "time": 85.3987500000008,
                    "velocity": 0.4409448818897638,
                    "duration": 0.048749999999998295
                },
                {
                    "name": "G#3",
                    "midi": 56,
                    "time": 85.4475000000008,
                    "velocity": 0.4409448818897638,
                    "duration": 0.05124999999999602
                },
                {
                    "name": "G#3",
                    "midi": 56,
                    "time": 85.5000000000008,
                    "velocity": 0.5118110236220472,
                    "duration": 1.197499999999991
                },
                {
                    "name": "G#3",
                    "midi": 56,
                    "time": 86.5500000000008,
                    "velocity": 0.36220472440944884,
                    "duration": 0.14999999999999147
                },
                {
                    "name": "G#3",
                    "midi": 56,
                    "time": 86.70000000000078,
                    "velocity": 0.4251968503937008,
                    "duration": 0.9325000000000045
                },
                {
                    "name": "A3",
                    "midi": 57,
                    "time": 87.63375000000079,
                    "velocity": 0.3543307086614173,
                    "duration": 0.048749999999998295
                },
                {
                    "name": "G#3",
                    "midi": 56,
                    "time": 87.69875000000079,
                    "velocity": 0.3464566929133858,
                    "duration": 0.04999999999999716
                },
                {
                    "name": "B3",
                    "midi": 59,
                    "time": 87.74875000000078,
                    "velocity": 0.3937007874015748,
                    "duration": 0.04999999999999716
                },
                {
                    "name": "A3",
                    "midi": 57,
                    "time": 87.79875000000078,
                    "velocity": 0.3464566929133858,
                    "duration": 0.048749999999998295
                },
                {
                    "name": "G#3",
                    "midi": 56,
                    "time": 87.84750000000078,
                    "velocity": 0.3228346456692913,
                    "duration": 0.04999999999999716
                },
                {
                    "name": "G#3",
                    "midi": 56,
                    "time": 87.90000000000077,
                    "velocity": 0.4409448818897638,
                    "duration": 2.0999999999999943
                },
                {
                    "name": "C3",
                    "midi": 48,
                    "time": 89.40000000000077,
                    "velocity": 0.2047244094488189,
                    "duration": 0.29999999999999716
                },
                {
                    "name": "F#3",
                    "midi": 54,
                    "time": 89.40000000000077,
                    "velocity": 0.23622047244094488,
                    "duration": 0.29999999999999716
                },
                {
                    "name": "D#3",
                    "midi": 51,
                    "time": 89.40000000000077,
                    "velocity": 0.2047244094488189,
                    "duration": 0.29999999999999716
                },
                {
                    "name": "C#4",
                    "midi": 61,
                    "time": 92.10000000000076,
                    "velocity": 0.25196850393700787,
                    "duration": 0.5999999999999943
                },
                {
                    "name": "E3",
                    "midi": 52,
                    "time": 92.10000000000076,
                    "velocity": 0.25196850393700787,
                    "duration": 0.5999999999999943
                },
                {
                    "name": "E4",
                    "midi": 64,
                    "time": 92.10000000000076,
                    "velocity": 0.31496062992125984,
                    "duration": 0.5999999999999943
                },
                {
                    "name": "G#3",
                    "midi": 56,
                    "time": 92.10000000000076,
                    "velocity": 0.25196850393700787,
                    "duration": 0.5999999999999943
                },
                {
                    "name": "C#4",
                    "midi": 61,
                    "time": 93.30000000000075,
                    "velocity": 0.25196850393700787,
                    "duration": 0.5999999999999943
                },
                {
                    "name": "F#4",
                    "midi": 66,
                    "time": 93.30000000000075,
                    "velocity": 0.25196850393700787,
                    "duration": 0.5999999999999943
                },
                {
                    "name": "A4",
                    "midi": 69,
                    "time": 93.30000000000075,
                    "velocity": 0.31496062992125984,
                    "duration": 0.5999999999999943
                },
                {
                    "name": "A3",
                    "midi": 57,
                    "time": 93.30000000000075,
                    "velocity": 0.25196850393700787,
                    "duration": 0.5999999999999943
                },
                {
                    "name": "C#4",
                    "midi": 61,
                    "time": 94.50000000000074,
                    "velocity": 0.25196850393700787,
                    "duration": 0.5999999999999943
                },
                {
                    "name": "E3",
                    "midi": 52,
                    "time": 94.50000000000074,
                    "velocity": 0.25196850393700787,
                    "duration": 0.5999999999999943
                },
                {
                    "name": "E4",
                    "midi": 64,
                    "time": 94.50000000000074,
                    "velocity": 0.31496062992125984,
                    "duration": 0.5999999999999943
                },
                {
                    "name": "G#3",
                    "midi": 56,
                    "time": 94.50000000000074,
                    "velocity": 0.25196850393700787,
                    "duration": 0.5999999999999943
                },
                {
                    "name": "E4",
                    "midi": 64,
                    "time": 95.70000000000073,
                    "velocity": 0.31496062992125984,
                    "duration": 0.5999999999999943
                },
                {
                    "name": "G#3",
                    "midi": 56,
                    "time": 95.70000000000073,
                    "velocity": 0.25196850393700787,
                    "duration": 0.5999999999999943
                },
                {
                    "name": "E3",
                    "midi": 52,
                    "time": 95.70000000000073,
                    "velocity": 0.25196850393700787,
                    "duration": 0.5999999999999943
                },
                {
                    "name": "C#4",
                    "midi": 61,
                    "time": 95.70000000000073,
                    "velocity": 0.25196850393700787,
                    "duration": 0.5999999999999943
                },
                {
                    "name": "G#4",
                    "midi": 68,
                    "time": 96.90000000000072,
                    "velocity": 0.31496062992125984,
                    "duration": 0.5999999999999943
                },
                {
                    "name": "B3",
                    "midi": 59,
                    "time": 96.90000000000072,
                    "velocity": 0.25196850393700787,
                    "duration": 0.5999999999999943
                },
                {
                    "name": "G#3",
                    "midi": 56,
                    "time": 96.90000000000072,
                    "velocity": 0.25196850393700787,
                    "duration": 0.5999999999999943
                },
                {
                    "name": "E4",
                    "midi": 64,
                    "time": 96.90000000000072,
                    "velocity": 0.25196850393700787,
                    "duration": 0.5999999999999943
                },
                {
                    "name": "A3",
                    "midi": 57,
                    "time": 98.1000000000007,
                    "velocity": 0.25196850393700787,
                    "duration": 0.5999999999999943
                },
                {
                    "name": "D#4",
                    "midi": 63,
                    "time": 98.1000000000007,
                    "velocity": 0.25196850393700787,
                    "duration": 0.5999999999999943
                },
                {
                    "name": "B3",
                    "midi": 59,
                    "time": 98.1000000000007,
                    "velocity": 0.25196850393700787,
                    "duration": 0.5999999999999943
                },
                {
                    "name": "B4",
                    "midi": 71,
                    "time": 98.1000000000007,
                    "velocity": 0.31496062992125984,
                    "duration": 0.5999999999999943
                },
                {
                    "name": "G#4",
                    "midi": 68,
                    "time": 99.3000000000007,
                    "velocity": 0.31496062992125984,
                    "duration": 0.5999999999999943
                },
                {
                    "name": "G#3",
                    "midi": 56,
                    "time": 99.3000000000007,
                    "velocity": 0.25196850393700787,
                    "duration": 0.5999999999999943
                },
                {
                    "name": "B3",
                    "midi": 59,
                    "time": 99.3000000000007,
                    "velocity": 0.25196850393700787,
                    "duration": 0.5999999999999943
                },
                {
                    "name": "E4",
                    "midi": 64,
                    "time": 99.3000000000007,
                    "velocity": 0.25196850393700787,
                    "duration": 0.5999999999999943
                },
                {
                    "name": "C4",
                    "midi": 60,
                    "time": 100.50000000000068,
                    "velocity": 0.3464566929133858,
                    "duration": 0.6000000000000085
                },
                {
                    "name": "G#4",
                    "midi": 68,
                    "time": 100.50000000000068,
                    "velocity": 0.4409448818897638,
                    "duration": 0.6000000000000085
                },
                {
                    "name": "E4",
                    "midi": 64,
                    "time": 100.50000000000068,
                    "velocity": 0.4409448818897638,
                    "duration": 0.45000000000000284
                },
                {
                    "name": "G#3",
                    "midi": 56,
                    "time": 100.50000000000068,
                    "velocity": 0.3464566929133858,
                    "duration": 0.6000000000000085
                },
                {
                    "name": "F#3",
                    "midi": 54,
                    "time": 100.50000000000068,
                    "velocity": 0.3464566929133858,
                    "duration": 0.6000000000000085
                },
                {
                    "name": "D#4",
                    "midi": 63,
                    "time": 100.95000000000068,
                    "velocity": 0.44881889763779526,
                    "duration": 0.07500000000000284
                },
                {
                    "name": "E4",
                    "midi": 64,
                    "time": 101.70000000000068,
                    "velocity": 0.47244094488188976,
                    "duration": 0.5999999999999943
                },
                {
                    "name": "C#4",
                    "midi": 61,
                    "time": 101.70000000000068,
                    "velocity": 0.4330708661417323,
                    "duration": 0.75
                },
                {
                    "name": "G#4",
                    "midi": 68,
                    "time": 101.70000000000068,
                    "velocity": 0.5196850393700787,
                    "duration": 0.5999999999999943
                },
                {
                    "name": "C#5",
                    "midi": 73,
                    "time": 101.70000000000068,
                    "velocity": 0.5905511811023622,
                    "duration": 0.9000000000000057
                },
                {
                    "name": "A4",
                    "midi": 69,
                    "time": 102.30000000000068,
                    "velocity": 0.5118110236220472,
                    "duration": 0.30000000000001137
                },
                {
                    "name": "F#4",
                    "midi": 66,
                    "time": 102.30000000000068,
                    "velocity": 0.4566929133858268,
                    "duration": 0.30000000000001137
                },
                {
                    "name": "C4",
                    "midi": 60,
                    "time": 102.45000000000068,
                    "velocity": 0.5275590551181102,
                    "duration": 0.15000000000000568
                },
                {
                    "name": "C#4",
                    "midi": 61,
                    "time": 102.60000000000069,
                    "velocity": 0.5433070866141733,
                    "duration": 0.15000000000000568
                },
                {
                    "name": "D#4",
                    "midi": 63,
                    "time": 102.7500000000007,
                    "velocity": 0.5669291338582677,
                    "duration": 0.15000000000000568
                },
                {
                    "name": "E4",
                    "midi": 64,
                    "time": 102.9000000000007,
                    "velocity": 0.5826771653543307,
                    "duration": 0.15000000000000568
                },
                {
                    "name": "A3",
                    "midi": 57,
                    "time": 103.05000000000071,
                    "velocity": 0.5118110236220472,
                    "duration": 0.15000000000000568
                },
                {
                    "name": "E4",
                    "midi": 64,
                    "time": 103.20000000000071,
                    "velocity": 0.5826771653543307,
                    "duration": 0.15000000000000568
                },
                {
                    "name": "D#4",
                    "midi": 63,
                    "time": 103.35000000000072,
                    "velocity": 0.5196850393700787,
                    "duration": 0.15000000000000568
                },
                {
                    "name": "C#4",
                    "midi": 61,
                    "time": 103.50000000000072,
                    "velocity": 0.6141732283464567,
                    "duration": 0.15000000000000568
                },
                {
                    "name": "C#4",
                    "midi": 61,
                    "time": 103.95000000000073,
                    "velocity": 0.49606299212598426,
                    "duration": 0.07500000000000284
                },
                {
                    "name": "D#4",
                    "midi": 63,
                    "time": 104.02500000000073,
                    "velocity": 0.49606299212598426,
                    "duration": 0.07500000000000284
                },
                {
                    "name": "C#5",
                    "midi": 73,
                    "time": 104.10000000000073,
                    "velocity": 0.5511811023622047,
                    "duration": 0.29999999999999716
                },
                {
                    "name": "C#4",
                    "midi": 61,
                    "time": 104.10000000000073,
                    "velocity": 0.5511811023622047,
                    "duration": 0.45000000000000284
                },
                {
                    "name": "E4",
                    "midi": 64,
                    "time": 104.10000000000073,
                    "velocity": 0.4409448818897638,
                    "duration": 0.29999999999999716
                },
                {
                    "name": "G#4",
                    "midi": 68,
                    "time": 104.10000000000073,
                    "velocity": 0.4409448818897638,
                    "duration": 0.29999999999999716
                },
                {
                    "name": "C4",
                    "midi": 60,
                    "time": 104.55000000000074,
                    "velocity": 0.5669291338582677,
                    "duration": 0.15000000000000568
                },
                {
                    "name": "C#4",
                    "midi": 61,
                    "time": 104.70000000000074,
                    "velocity": 0.6141732283464567,
                    "duration": 0.15000000000000568
                },
                {
                    "name": "G4",
                    "midi": 67,
                    "time": 105.30000000000075,
                    "velocity": 0.4881889763779528,
                    "duration": 0.48749999999999716
                },
                {
                    "name": "C#5",
                    "midi": 73,
                    "time": 105.30000000000075,
                    "velocity": 0.4881889763779528,
                    "duration": 0.48749999999999716
                },
                {
                    "name": "E4",
                    "midi": 64,
                    "time": 105.30000000000075,
                    "velocity": 0.4881889763779528,
                    "duration": 0.48749999999999716
                },
                {
                    "name": "E5",
                    "midi": 76,
                    "time": 105.30000000000075,
                    "velocity": 0.6141732283464567,
                    "duration": 0.48749999999999716
                },
                {
                    "name": "G#5",
                    "midi": 80,
                    "time": 105.90000000000074,
                    "velocity": 0.6692913385826772,
                    "duration": 0.15000000000000568
                },
                {
                    "name": "G#4",
                    "midi": 68,
                    "time": 105.90000000000074,
                    "velocity": 0.5354330708661418,
                    "duration": 0.15000000000000568
                },
                {
                    "name": "C#5",
                    "midi": 73,
                    "time": 105.90000000000074,
                    "velocity": 0.5354330708661418,
                    "duration": 0.15000000000000568
                },
                {
                    "name": "F#4",
                    "midi": 66,
                    "time": 106.98750000000075,
                    "velocity": 0.5039370078740157,
                    "duration": 0.4124999999999801
                },
                {
                    "name": "C5",
                    "midi": 72,
                    "time": 107.02500000000074,
                    "velocity": 0.5275590551181102,
                    "duration": 0.3749999999999858
                },
                {
                    "name": "D#5",
                    "midi": 75,
                    "time": 107.06250000000074,
                    "velocity": 0.5590551181102362,
                    "duration": 0.3374999999999915
                },
                {
                    "name": "A5",
                    "midi": 81,
                    "time": 107.10000000000073,
                    "velocity": 0.6771653543307087,
                    "duration": 0.29999999999999716
                },
                {
                    "name": "G4",
                    "midi": 67,
                    "time": 109.50000000000072,
                    "velocity": 0.5590551181102362,
                    "duration": 0.07500000000000284
                },
                {
                    "name": "G#4",
                    "midi": 68,
                    "time": 109.57500000000073,
                    "velocity": 0.5984251968503937,
                    "duration": 0.07500000000000284
                },
                {
                    "name": "B4",
                    "midi": 71,
                    "time": 109.65000000000073,
                    "velocity": 0.6299212598425197,
                    "duration": 0.07500000000000284
                },
                {
                    "name": "A4",
                    "midi": 69,
                    "time": 109.72500000000073,
                    "velocity": 0.5590551181102362,
                    "duration": 0.07500000000000284
                },
                {
                    "name": "G#4",
                    "midi": 68,
                    "time": 109.80000000000074,
                    "velocity": 0.5039370078740157,
                    "duration": 0.07500000000000284
                },
                {
                    "name": "A4",
                    "midi": 69,
                    "time": 109.87500000000074,
                    "velocity": 0.5118110236220472,
                    "duration": 0.07500000000000284
                },
                {
                    "name": "C5",
                    "midi": 72,
                    "time": 109.95000000000074,
                    "velocity": 0.5275590551181102,
                    "duration": 0.07500000000000284
                },
                {
                    "name": "C#5",
                    "midi": 73,
                    "time": 110.02500000000074,
                    "velocity": 0.5433070866141733,
                    "duration": 0.07500000000000284
                },
                {
                    "name": "D#5",
                    "midi": 75,
                    "time": 110.10000000000075,
                    "velocity": 0.5511811023622047,
                    "duration": 0.08625000000000682
                },
                {
                    "name": "E5",
                    "midi": 76,
                    "time": 110.18625000000075,
                    "velocity": 0.5669291338582677,
                    "duration": 0.08499999999999375
                },
                {
                    "name": "F#5",
                    "midi": 78,
                    "time": 110.27125000000075,
                    "velocity": 0.5826771653543307,
                    "duration": 0.08624999999999261
                },
                {
                    "name": "G5",
                    "midi": 79,
                    "time": 110.35625000000074,
                    "velocity": 0.6299212598425197,
                    "duration": 0.08624999999999261
                },
                {
                    "name": "G#5",
                    "midi": 80,
                    "time": 110.44250000000073,
                    "velocity": 0.6535433070866141,
                    "duration": 0.08499999999999375
                },
                {
                    "name": "B5",
                    "midi": 83,
                    "time": 110.52750000000073,
                    "velocity": 0.6929133858267716,
                    "duration": 0.08624999999999261
                },
                {
                    "name": "A5",
                    "midi": 81,
                    "time": 110.61250000000072,
                    "velocity": 0.6456692913385826,
                    "duration": 0.08750000000000568
                },
                {
                    "name": "G#5",
                    "midi": 80,
                    "time": 110.70000000000073,
                    "velocity": 0.5433070866141733,
                    "duration": 0.07500000000000284
                },
                {
                    "name": "A5",
                    "midi": 81,
                    "time": 110.77500000000073,
                    "velocity": 0.48031496062992124,
                    "duration": 0.07500000000000284
                },
                {
                    "name": "G#5",
                    "midi": 80,
                    "time": 110.85000000000073,
                    "velocity": 0.5433070866141733,
                    "duration": 0.07500000000000284
                },
                {
                    "name": "A5",
                    "midi": 81,
                    "time": 110.92500000000074,
                    "velocity": 0.49606299212598426,
                    "duration": 0.07500000000000284
                },
                {
                    "name": "G#5",
                    "midi": 80,
                    "time": 111.00000000000074,
                    "velocity": 0.5669291338582677,
                    "duration": 0.07500000000000284
                },
                {
                    "name": "A5",
                    "midi": 81,
                    "time": 111.07500000000074,
                    "velocity": 0.5039370078740157,
                    "duration": 0.07500000000000284
                },
                {
                    "name": "G#5",
                    "midi": 80,
                    "time": 111.15000000000074,
                    "velocity": 0.5669291338582677,
                    "duration": 0.07500000000000284
                },
                {
                    "name": "A5",
                    "midi": 81,
                    "time": 111.22500000000075,
                    "velocity": 0.5118110236220472,
                    "duration": 0.07500000000000284
                },
                {
                    "name": "G#5",
                    "midi": 80,
                    "time": 111.30000000000075,
                    "velocity": 0.5826771653543307,
                    "duration": 0.07500000000000284
                },
                {
                    "name": "A5",
                    "midi": 81,
                    "time": 111.37500000000075,
                    "velocity": 0.5196850393700787,
                    "duration": 0.07500000000000284
                },
                {
                    "name": "G#5",
                    "midi": 80,
                    "time": 111.45000000000076,
                    "velocity": 0.5826771653543307,
                    "duration": 0.07500000000000284
                },
                {
                    "name": "A5",
                    "midi": 81,
                    "time": 111.52500000000076,
                    "velocity": 0.5275590551181102,
                    "duration": 0.07500000000000284
                },
                {
                    "name": "G#5",
                    "midi": 80,
                    "time": 111.60000000000076,
                    "velocity": 0.5984251968503937,
                    "duration": 0.07500000000000284
                },
                {
                    "name": "A5",
                    "midi": 81,
                    "time": 111.67500000000076,
                    "velocity": 0.5354330708661418,
                    "duration": 0.07500000000000284
                },
                {
                    "name": "G#5",
                    "midi": 80,
                    "time": 111.75000000000077,
                    "velocity": 0.6062992125984252,
                    "duration": 0.07500000000000284
                },
                {
                    "name": "A5",
                    "midi": 81,
                    "time": 111.82500000000077,
                    "velocity": 0.5433070866141733,
                    "duration": 0.07500000000000284
                },
                {
                    "name": "G#5",
                    "midi": 80,
                    "time": 111.90000000000077,
                    "velocity": 0.6220472440944882,
                    "duration": 0.07500000000000284
                },
                {
                    "name": "A5",
                    "midi": 81,
                    "time": 111.97500000000078,
                    "velocity": 0.5511811023622047,
                    "duration": 0.07500000000000284
                },
                {
                    "name": "G#5",
                    "midi": 80,
                    "time": 112.05000000000078,
                    "velocity": 0.6220472440944882,
                    "duration": 0.07500000000000284
                },
                {
                    "name": "A5",
                    "midi": 81,
                    "time": 112.12500000000078,
                    "velocity": 0.5511811023622047,
                    "duration": 0.07500000000000284
                },
                {
                    "name": "G#5",
                    "midi": 80,
                    "time": 112.20000000000078,
                    "velocity": 0.6377952755905512,
                    "duration": 0.07500000000000284
                },
                {
                    "name": "A5",
                    "midi": 81,
                    "time": 112.27500000000079,
                    "velocity": 0.5669291338582677,
                    "duration": 0.07500000000000284
                },
                {
                    "name": "G#5",
                    "midi": 80,
                    "time": 112.35000000000079,
                    "velocity": 0.6456692913385826,
                    "duration": 0.07500000000000284
                },
                {
                    "name": "A5",
                    "midi": 81,
                    "time": 112.4250000000008,
                    "velocity": 0.5748031496062992,
                    "duration": 0.07500000000000284
                },
                {
                    "name": "G#5",
                    "midi": 80,
                    "time": 112.5000000000008,
                    "velocity": 0.6535433070866141,
                    "duration": 0.07500000000000284
                },
                {
                    "name": "A5",
                    "midi": 81,
                    "time": 112.5750000000008,
                    "velocity": 0.5826771653543307,
                    "duration": 0.07500000000000284
                },
                {
                    "name": "G#5",
                    "midi": 80,
                    "time": 112.6500000000008,
                    "velocity": 0.6614173228346457,
                    "duration": 0.07500000000000284
                },
                {
                    "name": "A5",
                    "midi": 81,
                    "time": 112.7250000000008,
                    "velocity": 0.5984251968503937,
                    "duration": 0.07500000000000284
                },
                {
                    "name": "G#5",
                    "midi": 80,
                    "time": 112.80000000000081,
                    "velocity": 0.6850393700787402,
                    "duration": 0.07500000000000284
                },
                {
                    "name": "A5",
                    "midi": 81,
                    "time": 112.87500000000081,
                    "velocity": 0.5984251968503937,
                    "duration": 0.07500000000000284
                },
                {
                    "name": "G#5",
                    "midi": 80,
                    "time": 112.95000000000081,
                    "velocity": 0.6771653543307087,
                    "duration": 0.07500000000000284
                },
                {
                    "name": "A5",
                    "midi": 81,
                    "time": 113.02500000000082,
                    "velocity": 0.6062992125984252,
                    "duration": 0.07500000000000284
                },
                {
                    "name": "G#5",
                    "midi": 80,
                    "time": 113.10000000000082,
                    "velocity": 0.6929133858267716,
                    "duration": 0.07500000000000284
                },
                {
                    "name": "A5",
                    "midi": 81,
                    "time": 113.17500000000082,
                    "velocity": 0.6141732283464567,
                    "duration": 0.07500000000000284
                },
                {
                    "name": "G#5",
                    "midi": 80,
                    "time": 113.25000000000082,
                    "velocity": 0.6929133858267716,
                    "duration": 0.07500000000000284
                },
                {
                    "name": "A5",
                    "midi": 81,
                    "time": 113.32500000000083,
                    "velocity": 0.6220472440944882,
                    "duration": 0.07500000000000284
                },
                {
                    "name": "G#5",
                    "midi": 80,
                    "time": 113.40000000000083,
                    "velocity": 0.7165354330708661,
                    "duration": 0.07500000000000284
                },
                {
                    "name": "A5",
                    "midi": 81,
                    "time": 113.47500000000083,
                    "velocity": 0.6377952755905512,
                    "duration": 0.07500000000000284
                },
                {
                    "name": "G#5",
                    "midi": 80,
                    "time": 113.55000000000084,
                    "velocity": 0.7165354330708661,
                    "duration": 0.07500000000000284
                },
                {
                    "name": "A5",
                    "midi": 81,
                    "time": 113.62500000000084,
                    "velocity": 0.6377952755905512,
                    "duration": 0.07500000000000284
                },
                {
                    "name": "G#5",
                    "midi": 80,
                    "time": 113.70000000000084,
                    "velocity": 0.7322834645669292,
                    "duration": 0.07500000000000284
                },
                {
                    "name": "A5",
                    "midi": 81,
                    "time": 113.77500000000084,
                    "velocity": 0.6456692913385826,
                    "duration": 0.07500000000000284
                },
                {
                    "name": "G#5",
                    "midi": 80,
                    "time": 113.85000000000085,
                    "velocity": 0.7322834645669292,
                    "duration": 0.07500000000000284
                },
                {
                    "name": "A5",
                    "midi": 81,
                    "time": 113.92500000000085,
                    "velocity": 0.6535433070866141,
                    "duration": 0.07500000000000284
                },
                {
                    "name": "G#5",
                    "midi": 80,
                    "time": 114.00000000000085,
                    "velocity": 0.7480314960629921,
                    "duration": 0.07500000000000284
                },
                {
                    "name": "A5",
                    "midi": 81,
                    "time": 114.07500000000086,
                    "velocity": 0.6692913385826772,
                    "duration": 0.07500000000000284
                },
                {
                    "name": "G#5",
                    "midi": 80,
                    "time": 114.15000000000086,
                    "velocity": 0.7480314960629921,
                    "duration": 0.07500000000000284
                },
                {
                    "name": "A5",
                    "midi": 81,
                    "time": 114.22500000000086,
                    "velocity": 0.6692913385826772,
                    "duration": 0.07500000000000284
                },
                {
                    "name": "G#5",
                    "midi": 80,
                    "time": 114.30000000000086,
                    "velocity": 0.7637795275590551,
                    "duration": 0.07500000000000284
                },
                {
                    "name": "A5",
                    "midi": 81,
                    "time": 114.37500000000087,
                    "velocity": 0.6771653543307087,
                    "duration": 0.07500000000000284
                },
                {
                    "name": "G#5",
                    "midi": 80,
                    "time": 114.45000000000087,
                    "velocity": 0.7637795275590551,
                    "duration": 0.07500000000000284
                },
                {
                    "name": "A5",
                    "midi": 81,
                    "time": 114.52500000000087,
                    "velocity": 0.6850393700787402,
                    "duration": 0.07500000000000284
                },
                {
                    "name": "G#5",
                    "midi": 80,
                    "time": 114.60000000000088,
                    "velocity": 0.7795275590551181,
                    "duration": 0.07500000000000284
                },
                {
                    "name": "A5",
                    "midi": 81,
                    "time": 114.67500000000088,
                    "velocity": 0.6929133858267716,
                    "duration": 0.07500000000000284
                },
                {
                    "name": "G#5",
                    "midi": 80,
                    "time": 114.75000000000088,
                    "velocity": 0.7874015748031497,
                    "duration": 0.07500000000000284
                },
                {
                    "name": "A5",
                    "midi": 81,
                    "time": 114.82500000000088,
                    "velocity": 0.7086614173228346,
                    "duration": 0.07500000000000284
                },
                {
                    "name": "G#5",
                    "midi": 80,
                    "time": 114.90000000000089,
                    "velocity": 0.7952755905511811,
                    "duration": 0.07500000000000284
                },
                {
                    "name": "A5",
                    "midi": 81,
                    "time": 114.97500000000089,
                    "velocity": 0.6929133858267716,
                    "duration": 0.07500000000000284
                },
                {
                    "name": "G#5",
                    "midi": 80,
                    "time": 115.05000000000089,
                    "velocity": 0.7480314960629921,
                    "duration": 0.07500000000000284
                },
                {
                    "name": "A5",
                    "midi": 81,
                    "time": 115.1250000000009,
                    "velocity": 0.6456692913385826,
                    "duration": 0.07500000000000284
                },
                {
                    "name": "G#5",
                    "midi": 80,
                    "time": 115.2000000000009,
                    "velocity": 0.7165354330708661,
                    "duration": 0.07500000000000284
                },
                {
                    "name": "A5",
                    "midi": 81,
                    "time": 115.2750000000009,
                    "velocity": 0.6299212598425197,
                    "duration": 0.07500000000000284
                },
                {
                    "name": "G#5",
                    "midi": 80,
                    "time": 115.3500000000009,
                    "velocity": 0.6771653543307087,
                    "duration": 0.07500000000000284
                },
                {
                    "name": "A5",
                    "midi": 81,
                    "time": 115.4250000000009,
                    "velocity": 0.5905511811023622,
                    "duration": 0.07500000000000284
                },
                {
                    "name": "G#5",
                    "midi": 80,
                    "time": 115.50000000000091,
                    "velocity": 0.6535433070866141,
                    "duration": 0.07500000000000284
                },
                {
                    "name": "A5",
                    "midi": 81,
                    "time": 115.57500000000091,
                    "velocity": 0.5590551181102362,
                    "duration": 0.07500000000000284
                },
                {
                    "name": "G#5",
                    "midi": 80,
                    "time": 115.65000000000092,
                    "velocity": 0.6220472440944882,
                    "duration": 0.07500000000000284
                },
                {
                    "name": "A5",
                    "midi": 81,
                    "time": 115.72500000000092,
                    "velocity": 0.5354330708661418,
                    "duration": 0.07500000000000284
                },
                {
                    "name": "G#5",
                    "midi": 80,
                    "time": 115.80000000000092,
                    "velocity": 0.5826771653543307,
                    "duration": 0.07500000000000284
                },
                {
                    "name": "A5",
                    "midi": 81,
                    "time": 115.87500000000092,
                    "velocity": 0.5039370078740157,
                    "duration": 0.07500000000000284
                },
                {
                    "name": "G#5",
                    "midi": 80,
                    "time": 115.95000000000093,
                    "velocity": 0.5511811023622047,
                    "duration": 0.07500000000000284
                },
                {
                    "name": "A5",
                    "midi": 81,
                    "time": 116.02500000000093,
                    "velocity": 0.48031496062992124,
                    "duration": 0.07500000000000284
                },
                {
                    "name": "G#5",
                    "midi": 80,
                    "time": 116.10000000000093,
                    "velocity": 0.5196850393700787,
                    "duration": 0.07500000000000284
                },
                {
                    "name": "A5",
                    "midi": 81,
                    "time": 116.17500000000094,
                    "velocity": 0.44881889763779526,
                    "duration": 0.07500000000000284
                },
                {
                    "name": "G#5",
                    "midi": 80,
                    "time": 116.25000000000094,
                    "velocity": 0.48031496062992124,
                    "duration": 0.07500000000000284
                },
                {
                    "name": "A5",
                    "midi": 81,
                    "time": 116.32500000000094,
                    "velocity": 0.41732283464566927,
                    "duration": 0.07500000000000284
                },
                {
                    "name": "G#5",
                    "midi": 80,
                    "time": 116.40000000000094,
                    "velocity": 0.4645669291338583,
                    "duration": 0.07500000000000284
                },
                {
                    "name": "A5",
                    "midi": 81,
                    "time": 116.47500000000095,
                    "velocity": 0.3937007874015748,
                    "duration": 0.07500000000000284
                },
                {
                    "name": "G#5",
                    "midi": 80,
                    "time": 116.55000000000095,
                    "velocity": 0.4251968503937008,
                    "duration": 0.07500000000000284
                },
                {
                    "name": "A5",
                    "midi": 81,
                    "time": 116.62500000000095,
                    "velocity": 0.36220472440944884,
                    "duration": 0.07500000000000284
                },
                {
                    "name": "G#5",
                    "midi": 80,
                    "time": 116.70000000000095,
                    "velocity": 0.3700787401574803,
                    "duration": 0.13375000000000625
                },
                {
                    "name": "A5",
                    "midi": 81,
                    "time": 116.83375000000096,
                    "velocity": 0.3543307086614173,
                    "duration": 0.12125000000000341
                },
                {
                    "name": "G#5",
                    "midi": 80,
                    "time": 116.96750000000097,
                    "velocity": 0.3464566929133858,
                    "duration": 0.12000000000000455
                },
                {
                    "name": "G5",
                    "midi": 79,
                    "time": 117.10125000000097,
                    "velocity": 0.33070866141732286,
                    "duration": 0.12000000000000455
                },
                {
                    "name": "G#5",
                    "midi": 80,
                    "time": 117.23375000000098,
                    "velocity": 0.3228346456692913,
                    "duration": 0.12125000000000341
                },
                {
                    "name": "A5",
                    "midi": 81,
                    "time": 117.36750000000099,
                    "velocity": 0.30708661417322836,
                    "duration": 0.12125000000000341
                },
                {
                    "name": "A#5",
                    "midi": 82,
                    "time": 117.501250000001,
                    "velocity": 0.2992125984251969,
                    "duration": 0.12125000000000341
                },
                {
                    "name": "B5",
                    "midi": 83,
                    "time": 117.635000000001,
                    "velocity": 0.29133858267716534,
                    "duration": 0.12000000000000455
                },
                {
                    "name": "C6",
                    "midi": 84,
                    "time": 117.76750000000101,
                    "velocity": 0.2755905511811024,
                    "duration": 0.12000000000000455
                },
                {
                    "name": "C#6",
                    "midi": 85,
                    "time": 117.90000000000101,
                    "velocity": 0.3779527559055118,
                    "duration": 0.15000000000000568
                },
                {
                    "name": "E5",
                    "midi": 76,
                    "time": 118.42500000000102,
                    "velocity": 0.3464566929133858,
                    "duration": 0.3749999999999858
                },
                {
                    "name": "A5",
                    "midi": 81,
                    "time": 118.46250000000101,
                    "velocity": 0.36220472440944884,
                    "duration": 0.7874999999999943
                },
                {
                    "name": "C#6",
                    "midi": 85,
                    "time": 118.50000000000101,
                    "velocity": 0.44881889763779526,
                    "duration": 0.75
                },
                {
                    "name": "G#5",
                    "midi": 80,
                    "time": 119.25000000000101,
                    "velocity": 0.31496062992125984,
                    "duration": 0.15000000000000568
                },
                {
                    "name": "C6",
                    "midi": 84,
                    "time": 119.25000000000101,
                    "velocity": 0.3779527559055118,
                    "duration": 0.15000000000000568
                },
                {
                    "name": "C#6",
                    "midi": 85,
                    "time": 119.40000000000101,
                    "velocity": 0.4015748031496063,
                    "duration": 0.15000000000000568
                },
                {
                    "name": "A5",
                    "midi": 81,
                    "time": 119.40000000000101,
                    "velocity": 0.33858267716535434,
                    "duration": 0.15000000000000568
                },
                {
                    "name": "D#6",
                    "midi": 87,
                    "time": 119.55000000000102,
                    "velocity": 0.41732283464566927,
                    "duration": 0.15000000000000568
                },
                {
                    "name": "B5",
                    "midi": 83,
                    "time": 119.55000000000102,
                    "velocity": 0.3543307086614173,
                    "duration": 0.15000000000000568
                },
                {
                    "name": "E6",
                    "midi": 88,
                    "time": 119.70000000000103,
                    "velocity": 0.4409448818897638,
                    "duration": 0.15000000000000568
                },
                {
                    "name": "C#6",
                    "midi": 85,
                    "time": 119.70000000000103,
                    "velocity": 0.3700787401574803,
                    "duration": 0.15000000000000568
                },
                {
                    "name": "E5",
                    "midi": 76,
                    "time": 119.85000000000103,
                    "velocity": 0.33070866141732286,
                    "duration": 0.15000000000000568
                },
                {
                    "name": "A5",
                    "midi": 81,
                    "time": 119.85000000000103,
                    "velocity": 0.3937007874015748,
                    "duration": 0.15000000000000568
                },
                {
                    "name": "D#6",
                    "midi": 87,
                    "time": 120.00000000000104,
                    "velocity": 0.4330708661417323,
                    "duration": 0.15000000000000568
                },
                {
                    "name": "B5",
                    "midi": 83,
                    "time": 120.00000000000104,
                    "velocity": 0.36220472440944884,
                    "duration": 0.15000000000000568
                },
                {
                    "name": "C#6",
                    "midi": 85,
                    "time": 120.15000000000104,
                    "velocity": 0.3858267716535433,
                    "duration": 0.15000000000000568
                },
                {
                    "name": "A5",
                    "midi": 81,
                    "time": 120.15000000000104,
                    "velocity": 0.3228346456692913,
                    "duration": 0.15000000000000568
                },
                {
                    "name": "G#5",
                    "midi": 80,
                    "time": 120.30000000000105,
                    "velocity": 0.3543307086614173,
                    "duration": 0.15000000000000568
                },
                {
                    "name": "B5",
                    "midi": 83,
                    "time": 120.30000000000105,
                    "velocity": 0.4251968503937008,
                    "duration": 0.15000000000000568
                },
                {
                    "name": "B5",
                    "midi": 83,
                    "time": 120.75000000000105,
                    "velocity": 0.3779527559055118,
                    "duration": 0.07500000000000284
                },
                {
                    "name": "C#6",
                    "midi": 85,
                    "time": 120.82500000000105,
                    "velocity": 0.3464566929133858,
                    "duration": 0.07500000000000284
                },
                {
                    "name": "G#5",
                    "midi": 80,
                    "time": 120.90000000000106,
                    "velocity": 0.3779527559055118,
                    "duration": 0.45000000000000284
                },
                {
                    "name": "B5",
                    "midi": 83,
                    "time": 120.90000000000106,
                    "velocity": 0.44881889763779526,
                    "duration": 0.45000000000000284
                },
                {
                    "name": "A#5",
                    "midi": 82,
                    "time": 121.35000000000106,
                    "velocity": 0.4015748031496063,
                    "duration": 0.15000000000000568
                },
                {
                    "name": "G5",
                    "midi": 79,
                    "time": 121.35000000000106,
                    "velocity": 0.36220472440944884,
                    "duration": 0.15000000000000568
                },
                {
                    "name": "B5",
                    "midi": 83,
                    "time": 121.50000000000107,
                    "velocity": 0.4251968503937008,
                    "duration": 0.15000000000000568
                },
                {
                    "name": "G#5",
                    "midi": 80,
                    "time": 121.50000000000107,
                    "velocity": 0.3543307086614173,
                    "duration": 0.15000000000000568
                },
                {
                    "name": "C#6",
                    "midi": 85,
                    "time": 122.10000000000107,
                    "velocity": 0.44881889763779526,
                    "duration": 0.5999999999999943
                },
                {
                    "name": "G#5",
                    "midi": 80,
                    "time": 122.10000000000107,
                    "velocity": 0.3779527559055118,
                    "duration": 0.5999999999999943
                },
                {
                    "name": "C#5",
                    "midi": 73,
                    "time": 122.10000000000107,
                    "velocity": 0.3779527559055118,
                    "duration": 0.5999999999999943
                },
                {
                    "name": "A5",
                    "midi": 81,
                    "time": 122.70000000000107,
                    "velocity": 0.4251968503937008,
                    "duration": 0.15000000000000568
                },
                {
                    "name": "F#5",
                    "midi": 78,
                    "time": 122.70000000000107,
                    "velocity": 0.3543307086614173,
                    "duration": 0.15000000000000568
                },
                {
                    "name": "C#5",
                    "midi": 73,
                    "time": 122.70000000000107,
                    "velocity": 0.3543307086614173,
                    "duration": 0.15000000000000568
                },
                {
                    "name": "A5",
                    "midi": 81,
                    "time": 123.30000000000108,
                    "velocity": 0.44881889763779526,
                    "duration": 0.75
                },
                {
                    "name": "F#5",
                    "midi": 78,
                    "time": 123.30000000000108,
                    "velocity": 0.3779527559055118,
                    "duration": 0.75
                },
                {
                    "name": "C#5",
                    "midi": 73,
                    "time": 123.30000000000108,
                    "velocity": 0.3779527559055118,
                    "duration": 0.75
                },
                {
                    "name": "G#5",
                    "midi": 80,
                    "time": 124.05000000000108,
                    "velocity": 0.3779527559055118,
                    "duration": 0.15000000000000568
                },
                {
                    "name": "F5",
                    "midi": 77,
                    "time": 124.05000000000108,
                    "velocity": 0.31496062992125984,
                    "duration": 0.15000000000000568
                },
                {
                    "name": "A5",
                    "midi": 81,
                    "time": 124.20000000000108,
                    "velocity": 0.4015748031496063,
                    "duration": 0.15000000000000568
                },
                {
                    "name": "F#5",
                    "midi": 78,
                    "time": 124.20000000000108,
                    "velocity": 0.33858267716535434,
                    "duration": 0.15000000000000568
                },
                {
                    "name": "G#5",
                    "midi": 80,
                    "time": 124.35000000000109,
                    "velocity": 0.3543307086614173,
                    "duration": 0.15000000000000568
                },
                {
                    "name": "B5",
                    "midi": 83,
                    "time": 124.35000000000109,
                    "velocity": 0.41732283464566927,
                    "duration": 0.15000000000000568
                },
                {
                    "name": "C#6",
                    "midi": 85,
                    "time": 124.5000000000011,
                    "velocity": 0.4409448818897638,
                    "duration": 0.15000000000000568
                },
                {
                    "name": "A5",
                    "midi": 81,
                    "time": 124.5000000000011,
                    "velocity": 0.3700787401574803,
                    "duration": 0.15000000000000568
                },
                {
                    "name": "C#5",
                    "midi": 73,
                    "time": 124.6500000000011,
                    "velocity": 0.33070866141732286,
                    "duration": 0.15000000000000568
                },
                {
                    "name": "F#5",
                    "midi": 78,
                    "time": 124.6500000000011,
                    "velocity": 0.3937007874015748,
                    "duration": 0.15000000000000568
                },
                {
                    "name": "B5",
                    "midi": 83,
                    "time": 124.8000000000011,
                    "velocity": 0.4330708661417323,
                    "duration": 0.15000000000000568
                },
                {
                    "name": "G#5",
                    "midi": 80,
                    "time": 124.8000000000011,
                    "velocity": 0.36220472440944884,
                    "duration": 0.15000000000000568
                },
                {
                    "name": "F#5",
                    "midi": 78,
                    "time": 124.95000000000111,
                    "velocity": 0.3228346456692913,
                    "duration": 0.15000000000000568
                },
                {
                    "name": "A5",
                    "midi": 81,
                    "time": 124.95000000000111,
                    "velocity": 0.3858267716535433,
                    "duration": 0.15000000000000568
                },
                {
                    "name": "G#5",
                    "midi": 80,
                    "time": 125.10000000000112,
                    "velocity": 0.4251968503937008,
                    "duration": 0.15000000000000568
                },
                {
                    "name": "E5",
                    "midi": 76,
                    "time": 125.10000000000112,
                    "velocity": 0.3543307086614173,
                    "duration": 0.15000000000000568
                },
                {
                    "name": "G#5",
                    "midi": 80,
                    "time": 125.55000000000112,
                    "velocity": 0.3779527559055118,
                    "duration": 0.07500000000000284
                },
                {
                    "name": "A5",
                    "midi": 81,
                    "time": 125.62500000000112,
                    "velocity": 0.3779527559055118,
                    "duration": 0.07500000000000284
                },
                {
                    "name": "G#5",
                    "midi": 80,
                    "time": 125.70000000000113,
                    "velocity": 0.44881889763779526,
                    "duration": 0.45000000000000284
                },
                {
                    "name": "E5",
                    "midi": 76,
                    "time": 125.70000000000113,
                    "velocity": 0.3779527559055118,
                    "duration": 0.45000000000000284
                },
                {
                    "name": "D#5",
                    "midi": 75,
                    "time": 126.15000000000113,
                    "velocity": 0.36220472440944884,
                    "duration": 0.15000000000000568
                },
                {
                    "name": "G5",
                    "midi": 79,
                    "time": 126.15000000000113,
                    "velocity": 0.4015748031496063,
                    "duration": 0.15000000000000568
                },
                {
                    "name": "G#5",
                    "midi": 80,
                    "time": 126.30000000000113,
                    "velocity": 0.4251968503937008,
                    "duration": 0.5999999999999943
                },
                {
                    "name": "E5",
                    "midi": 76,
                    "time": 126.30000000000113,
                    "velocity": 0.3543307086614173,
                    "duration": 0.5999999999999943
                },
                {
                    "name": "A4",
                    "midi": 69,
                    "time": 127.95000000000113,
                    "velocity": 0.3779527559055118,
                    "duration": 0.05000000000001137
                },
                {
                    "name": "D5",
                    "midi": 74,
                    "time": 128.00000000000114,
                    "velocity": 0.3779527559055118,
                    "duration": 0.05000000000001137
                },
                {
                    "name": "G#5",
                    "midi": 80,
                    "time": 128.05000000000115,
                    "velocity": 0.3779527559055118,
                    "duration": 0.05000000000001137
                },
                {
                    "name": "F#5",
                    "midi": 78,
                    "time": 128.10000000000116,
                    "velocity": 0.44881889763779526,
                    "duration": 0.44999999999998863
                },
                {
                    "name": "D5",
                    "midi": 74,
                    "time": 128.10000000000116,
                    "velocity": 0.3779527559055118,
                    "duration": 0.44999999999998863
                },
                {
                    "name": "C#5",
                    "midi": 73,
                    "time": 128.55000000000115,
                    "velocity": 0.36220472440944884,
                    "duration": 0.15000000000000568
                },
                {
                    "name": "F5",
                    "midi": 77,
                    "time": 128.55000000000115,
                    "velocity": 0.4015748031496063,
                    "duration": 0.15000000000000568
                },
                {
                    "name": "D5",
                    "midi": 74,
                    "time": 128.70000000000115,
                    "velocity": 0.3543307086614173,
                    "duration": 0.30000000000001137
                },
                {
                    "name": "F#5",
                    "midi": 78,
                    "time": 128.70000000000115,
                    "velocity": 0.4251968503937008,
                    "duration": 0.30000000000001137
                },
                {
                    "name": "F#4",
                    "midi": 66,
                    "time": 130.35000000000116,
                    "velocity": 0.3779527559055118,
                    "duration": 0.05000000000001137
                },
                {
                    "name": "A4",
                    "midi": 69,
                    "time": 130.40000000000117,
                    "velocity": 0.3779527559055118,
                    "duration": 0.05000000000001137
                },
                {
                    "name": "E5",
                    "midi": 76,
                    "time": 130.45000000000118,
                    "velocity": 0.3779527559055118,
                    "duration": 0.05000000000001137
                },
                {
                    "name": "A4",
                    "midi": 69,
                    "time": 130.5000000000012,
                    "velocity": 0.3779527559055118,
                    "duration": 1.8000000000000114
                },
                {
                    "name": "D5",
                    "midi": 74,
                    "time": 130.5000000000012,
                    "velocity": 0.44881889763779526,
                    "duration": 0.44999999999998863
                },
                {
                    "name": "F#4",
                    "midi": 66,
                    "time": 130.5000000000012,
                    "velocity": 0.3779527559055118,
                    "duration": 0.44999999999998863
                },
                {
                    "name": "C#5",
                    "midi": 73,
                    "time": 130.95000000000118,
                    "velocity": 0.4015748031496063,
                    "duration": 0.15000000000000568
                },
                {
                    "name": "F4",
                    "midi": 65,
                    "time": 130.95000000000118,
                    "velocity": 0.36220472440944884,
                    "duration": 0.15000000000000568
                },
                {
                    "name": "D5",
                    "midi": 74,
                    "time": 131.1000000000012,
                    "velocity": 0.4251968503937008,
                    "duration": 1.0500000000000114
                },
                {
                    "name": "F#4",
                    "midi": 66,
                    "time": 131.1000000000012,
                    "velocity": 0.3543307086614173,
                    "duration": 1.0500000000000114
                },
                {
                    "name": "E4",
                    "midi": 64,
                    "time": 132.1500000000012,
                    "velocity": 0.2440944881889764,
                    "duration": 0.11250000000001137
                },
                {
                    "name": "C#5",
                    "midi": 73,
                    "time": 132.1500000000012,
                    "velocity": 0.29133858267716534,
                    "duration": 0.11250000000001137
                },
                {
                    "name": "C#5",
                    "midi": 73,
                    "time": 132.3000000000012,
                    "velocity": 0.29133858267716534,
                    "duration": 0.30000000000001137
                },
                {
                    "name": "E4",
                    "midi": 64,
                    "time": 132.3000000000012,
                    "velocity": 0.2440944881889764,
                    "duration": 0.30000000000001137
                },
                {
                    "name": "E4",
                    "midi": 64,
                    "time": 132.90000000000123,
                    "velocity": 0.2755905511811024,
                    "duration": 0.7624999999999886
                },
                {
                    "name": "C#5",
                    "midi": 73,
                    "time": 132.90000000000123,
                    "velocity": 0.3543307086614173,
                    "duration": 0.75
                },
                {
                    "name": "A4",
                    "midi": 69,
                    "time": 132.90000000000123,
                    "velocity": 0.28346456692913385,
                    "duration": 0.75
                },
                {
                    "name": "G#4",
                    "midi": 68,
                    "time": 133.65000000000123,
                    "velocity": 0.28346456692913385,
                    "duration": 0.14999999999997726
                },
                {
                    "name": "C5",
                    "midi": 72,
                    "time": 133.65000000000123,
                    "velocity": 0.33858267716535434,
                    "duration": 0.14999999999997726
                },
                {
                    "name": "A4",
                    "midi": 69,
                    "time": 133.8000000000012,
                    "velocity": 0.2992125984251969,
                    "duration": 0.15000000000000568
                },
                {
                    "name": "C#5",
                    "midi": 73,
                    "time": 133.8000000000012,
                    "velocity": 0.3543307086614173,
                    "duration": 0.15000000000000568
                },
                {
                    "name": "B4",
                    "midi": 71,
                    "time": 133.9500000000012,
                    "velocity": 0.31496062992125984,
                    "duration": 0.15000000000000568
                },
                {
                    "name": "D#5",
                    "midi": 75,
                    "time": 133.9500000000012,
                    "velocity": 0.3700787401574803,
                    "duration": 0.15000000000000568
                },
                {
                    "name": "E5",
                    "midi": 76,
                    "time": 134.10000000000122,
                    "velocity": 0.3937007874015748,
                    "duration": 0.15000000000000568
                },
                {
                    "name": "C#5",
                    "midi": 73,
                    "time": 134.10000000000122,
                    "velocity": 0.33070866141732286,
                    "duration": 0.15000000000000568
                },
                {
                    "name": "A4",
                    "midi": 69,
                    "time": 134.25000000000122,
                    "velocity": 0.3543307086614173,
                    "duration": 0.15000000000000568
                },
                {
                    "name": "E4",
                    "midi": 64,
                    "time": 134.25000000000122,
                    "velocity": 0.29133858267716534,
                    "duration": 0.15000000000000568
                },
                {
                    "name": "B4",
                    "midi": 71,
                    "time": 134.40000000000123,
                    "velocity": 0.3228346456692913,
                    "duration": 0.15000000000000568
                },
                {
                    "name": "D#5",
                    "midi": 75,
                    "time": 134.40000000000123,
                    "velocity": 0.3858267716535433,
                    "duration": 0.15000000000000568
                },
                {
                    "name": "A4",
                    "midi": 69,
                    "time": 134.55000000000123,
                    "velocity": 0.28346456692913385,
                    "duration": 0.15000000000000568
                },
                {
                    "name": "C#5",
                    "midi": 73,
                    "time": 134.55000000000123,
                    "velocity": 0.3464566929133858,
                    "duration": 0.15000000000000568
                },
                {
                    "name": "B4",
                    "midi": 71,
                    "time": 134.70000000000124,
                    "velocity": 0.3779527559055118,
                    "duration": 0.15000000000000568
                },
                {
                    "name": "G#4",
                    "midi": 68,
                    "time": 134.70000000000124,
                    "velocity": 0.31496062992125984,
                    "duration": 0.15000000000000568
                },
                {
                    "name": "B4",
                    "midi": 71,
                    "time": 135.15000000000126,
                    "velocity": 0.33858267716535434,
                    "duration": 0.07499999999998863
                },
                {
                    "name": "C#5",
                    "midi": 73,
                    "time": 135.22500000000124,
                    "velocity": 0.30708661417322836,
                    "duration": 0.07499999999998863
                },
                {
                    "name": "B4",
                    "midi": 71,
                    "time": 135.30000000000123,
                    "velocity": 0.4015748031496063,
                    "duration": 0.44999999999998863
                },
                {
                    "name": "G#4",
                    "midi": 68,
                    "time": 135.30000000000123,
                    "velocity": 0.33858267716535434,
                    "duration": 0.44999999999998863
                },
                {
                    "name": "A#4",
                    "midi": 70,
                    "time": 135.75000000000122,
                    "velocity": 0.3543307086614173,
                    "duration": 0.15000000000000568
                },
                {
                    "name": "G4",
                    "midi": 67,
                    "time": 135.75000000000122,
                    "velocity": 0.3228346456692913,
                    "duration": 0.15000000000000568
                },
                {
                    "name": "G#4",
                    "midi": 68,
                    "time": 135.90000000000123,
                    "velocity": 0.31496062992125984,
                    "duration": 0.15000000000000568
                },
                {
                    "name": "B4",
                    "midi": 71,
                    "time": 135.90000000000123,
                    "velocity": 0.3779527559055118,
                    "duration": 0.15000000000000568
                },
                {
                    "name": "C#5",
                    "midi": 73,
                    "time": 136.50000000000122,
                    "velocity": 0.4015748031496063,
                    "duration": 0.5999999999999943
                },
                {
                    "name": "G#4",
                    "midi": 68,
                    "time": 136.50000000000122,
                    "velocity": 0.33858267716535434,
                    "duration": 0.5999999999999943
                },
                {
                    "name": "C#4",
                    "midi": 61,
                    "time": 136.50000000000122,
                    "velocity": 0.33858267716535434,
                    "duration": 0.5999999999999943
                },
                {
                    "name": "A4",
                    "midi": 69,
                    "time": 137.10000000000122,
                    "velocity": 0.3779527559055118,
                    "duration": 0.15000000000000568
                },
                {
                    "name": "C#4",
                    "midi": 61,
                    "time": 137.10000000000122,
                    "velocity": 0.31496062992125984,
                    "duration": 0.15000000000000568
                },
                {
                    "name": "F#4",
                    "midi": 66,
                    "time": 137.10000000000122,
                    "velocity": 0.31496062992125984,
                    "duration": 0.15000000000000568
                },
                {
                    "name": "F#4",
                    "midi": 66,
                    "time": 137.7000000000012,
                    "velocity": 0.33858267716535434,
                    "duration": 0.75
                },
                {
                    "name": "A4",
                    "midi": 69,
                    "time": 137.7000000000012,
                    "velocity": 0.4015748031496063,
                    "duration": 0.75
                },
                {
                    "name": "C#4",
                    "midi": 61,
                    "time": 137.7000000000012,
                    "velocity": 0.33858267716535434,
                    "duration": 0.75
                },
                {
                    "name": "F4",
                    "midi": 65,
                    "time": 138.4500000000012,
                    "velocity": 0.28346456692913385,
                    "duration": 0.15000000000000568
                },
                {
                    "name": "G#4",
                    "midi": 68,
                    "time": 138.4500000000012,
                    "velocity": 0.33858267716535434,
                    "duration": 0.15000000000000568
                },
                {
                    "name": "A4",
                    "midi": 69,
                    "time": 138.60000000000122,
                    "velocity": 0.3543307086614173,
                    "duration": 0.15000000000000568
                },
                {
                    "name": "F#4",
                    "midi": 66,
                    "time": 138.60000000000122,
                    "velocity": 0.2992125984251969,
                    "duration": 0.15000000000000568
                },
                {
                    "name": "B4",
                    "midi": 71,
                    "time": 138.75000000000122,
                    "velocity": 0.3700787401574803,
                    "duration": 0.07499999999998863
                },
                {
                    "name": "G#4",
                    "midi": 68,
                    "time": 138.75000000000122,
                    "velocity": 0.31496062992125984,
                    "duration": 0.07499999999998863
                },
                {
                    "name": "F#4",
                    "midi": 66,
                    "time": 138.8250000000012,
                    "velocity": 0.31496062992125984,
                    "duration": 0.037499999999994316
                },
                {
                    "name": "A4",
                    "midi": 69,
                    "time": 138.8250000000012,
                    "velocity": 0.31496062992125984,
                    "duration": 0.037499999999994316
                },
                {
                    "name": "B4",
                    "midi": 71,
                    "time": 138.8625000000012,
                    "velocity": 0.31496062992125984,
                    "duration": 0.037499999999994316
                },
                {
                    "name": "G#4",
                    "midi": 68,
                    "time": 138.8625000000012,
                    "velocity": 0.31496062992125984,
                    "duration": 0.037499999999994316
                },
                {
                    "name": "C#5",
                    "midi": 73,
                    "time": 138.9000000000012,
                    "velocity": 0.3937007874015748,
                    "duration": 0.15000000000000568
                },
                {
                    "name": "A4",
                    "midi": 69,
                    "time": 138.9000000000012,
                    "velocity": 0.33070866141732286,
                    "duration": 0.15000000000000568
                },
                {
                    "name": "F#4",
                    "midi": 66,
                    "time": 139.0500000000012,
                    "velocity": 0.3543307086614173,
                    "duration": 0.15000000000000568
                },
                {
                    "name": "C#4",
                    "midi": 61,
                    "time": 139.0500000000012,
                    "velocity": 0.29133858267716534,
                    "duration": 0.15000000000000568
                },
                {
                    "name": "B4",
                    "midi": 71,
                    "time": 139.2000000000012,
                    "velocity": 0.3858267716535433,
                    "duration": 0.15000000000000568
                },
                {
                    "name": "G#4",
                    "midi": 68,
                    "time": 139.2000000000012,
                    "velocity": 0.3228346456692913,
                    "duration": 0.15000000000000568
                },
                {
                    "name": "A4",
                    "midi": 69,
                    "time": 139.35000000000122,
                    "velocity": 0.3464566929133858,
                    "duration": 0.15000000000000568
                },
                {
                    "name": "F#4",
                    "midi": 66,
                    "time": 139.35000000000122,
                    "velocity": 0.28346456692913385,
                    "duration": 0.15000000000000568
                },
                {
                    "name": "E4",
                    "midi": 64,
                    "time": 139.50000000000122,
                    "velocity": 0.31496062992125984,
                    "duration": 0.15000000000000568
                },
                {
                    "name": "G#4",
                    "midi": 68,
                    "time": 139.50000000000122,
                    "velocity": 0.3779527559055118,
                    "duration": 0.15000000000000568
                },
                {
                    "name": "G#4",
                    "midi": 68,
                    "time": 139.95000000000124,
                    "velocity": 0.33858267716535434,
                    "duration": 0.07499999999998863
                },
                {
                    "name": "A4",
                    "midi": 69,
                    "time": 140.02500000000123,
                    "velocity": 0.33858267716535434,
                    "duration": 0.07499999999998863
                },
                {
                    "name": "E4",
                    "midi": 64,
                    "time": 140.10000000000122,
                    "velocity": 0.33858267716535434,
                    "duration": 0.44999999999998863
                },
                {
                    "name": "G#4",
                    "midi": 68,
                    "time": 140.10000000000122,
                    "velocity": 0.4015748031496063,
                    "duration": 0.44999999999998863
                },
                {
                    "name": "D#4",
                    "midi": 63,
                    "time": 140.5500000000012,
                    "velocity": 0.3228346456692913,
                    "duration": 0.15000000000000568
                },
                {
                    "name": "G4",
                    "midi": 67,
                    "time": 140.5500000000012,
                    "velocity": 0.3543307086614173,
                    "duration": 0.15000000000000568
                },
                {
                    "name": "G#4",
                    "midi": 68,
                    "time": 140.7000000000012,
                    "velocity": 0.3779527559055118,
                    "duration": 0.5999999999999943
                },
                {
                    "name": "E4",
                    "midi": 64,
                    "time": 140.7000000000012,
                    "velocity": 0.31496062992125984,
                    "duration": 0.5999999999999943
                },
                {
                    "name": "A3",
                    "midi": 57,
                    "time": 142.35000000000122,
                    "velocity": 0.33858267716535434,
                    "duration": 0.05000000000001137
                },
                {
                    "name": "D4",
                    "midi": 62,
                    "time": 142.40000000000123,
                    "velocity": 0.33858267716535434,
                    "duration": 0.05000000000001137
                },
                {
                    "name": "G#4",
                    "midi": 68,
                    "time": 142.45000000000124,
                    "velocity": 0.33858267716535434,
                    "duration": 0.05000000000001137
                },
                {
                    "name": "A3",
                    "midi": 57,
                    "time": 142.50000000000125,
                    "velocity": 0.2755905511811024,
                    "duration": 0.9000000000000057
                },
                {
                    "name": "F#4",
                    "midi": 66,
                    "time": 142.50000000000125,
                    "velocity": 0.4015748031496063,
                    "duration": 0.44999999999998863
                },
                {
                    "name": "D4",
                    "midi": 62,
                    "time": 142.50000000000125,
                    "velocity": 0.33858267716535434,
                    "duration": 0.44999999999998863
                },
                {
                    "name": "C#4",
                    "midi": 61,
                    "time": 142.95000000000124,
                    "velocity": 0.3228346456692913,
                    "duration": 0.15000000000000568
                },
                {
                    "name": "F4",
                    "midi": 65,
                    "time": 142.95000000000124,
                    "velocity": 0.3543307086614173,
                    "duration": 0.15000000000000568
                },
                {
                    "name": "D4",
                    "midi": 62,
                    "time": 143.10000000000124,
                    "velocity": 0.31496062992125984,
                    "duration": 0.30000000000001137
                },
                {
                    "name": "F#4",
                    "midi": 66,
                    "time": 143.10000000000124,
                    "velocity": 0.3779527559055118,
                    "duration": 0.30000000000001137
                },
                {
                    "name": "F#3",
                    "midi": 54,
                    "time": 144.90000000000126,
                    "velocity": 0.2992125984251969,
                    "duration": 0.44999999999998863
                },
                {
                    "name": "A3",
                    "midi": 57,
                    "time": 144.90000000000126,
                    "velocity": 0.3543307086614173,
                    "duration": 0.44999999999998863
                },
                {
                    "name": "G#3",
                    "midi": 56,
                    "time": 145.35000000000124,
                    "velocity": 0.31496062992125984,
                    "duration": 0.15000000000000568
                },
                {
                    "name": "F3",
                    "midi": 53,
                    "time": 145.35000000000124,
                    "velocity": 0.28346456692913385,
                    "duration": 0.15000000000000568
                },
                {
                    "name": "F#3",
                    "midi": 54,
                    "time": 145.50000000000125,
                    "velocity": 0.28346456692913385,
                    "duration": 1.8000000000000114
                },
                {
                    "name": "A3",
                    "midi": 57,
                    "time": 145.50000000000125,
                    "velocity": 0.33858267716535434,
                    "duration": 1.8000000000000114
                },
                {
                    "name": "F#3",
                    "midi": 54,
                    "time": 147.30000000000126,
                    "velocity": 0.25196850393700787,
                    "duration": 0.5999999999999943
                },
                {
                    "name": "G#3",
                    "midi": 56,
                    "time": 147.30000000000126,
                    "velocity": 0.2992125984251969,
                    "duration": 0.5999999999999943
                },
                {
                    "name": "C3",
                    "midi": 48,
                    "time": 147.30000000000126,
                    "velocity": 0.25196850393700787,
                    "duration": 0.5999999999999943
                },
                {
                    "name": "D3",
                    "midi": 50,
                    "time": 147.30000000000126,
                    "velocity": 0.25196850393700787,
                    "duration": 0.5999999999999943
                },
                {
                    "name": "C#3",
                    "midi": 49,
                    "time": 148.50000000000125,
                    "velocity": 0.25196850393700787,
                    "duration": 0.5999999999999943
                },
                {
                    "name": "G#3",
                    "midi": 56,
                    "time": 148.50000000000125,
                    "velocity": 0.2992125984251969,
                    "duration": 0.5999999999999943
                },
                {
                    "name": "F3",
                    "midi": 53,
                    "time": 148.50000000000125,
                    "velocity": 0.25196850393700787,
                    "duration": 0.5999999999999943
                },
                {
                    "name": "D3",
                    "midi": 50,
                    "time": 149.70000000000124,
                    "velocity": 0.25196850393700787,
                    "duration": 0.5999999999999943
                },
                {
                    "name": "G#3",
                    "midi": 56,
                    "time": 149.70000000000124,
                    "velocity": 0.2992125984251969,
                    "duration": 0.5999999999999943
                },
                {
                    "name": "F#3",
                    "midi": 54,
                    "time": 149.70000000000124,
                    "velocity": 0.25196850393700787,
                    "duration": 0.5999999999999943
                },
                {
                    "name": "G#3",
                    "midi": 56,
                    "time": 150.90000000000123,
                    "velocity": 0.2992125984251969,
                    "duration": 0.5999999999999943
                },
                {
                    "name": "C#3",
                    "midi": 49,
                    "time": 150.90000000000123,
                    "velocity": 0.25196850393700787,
                    "duration": 0.5999999999999943
                },
                {
                    "name": "F3",
                    "midi": 53,
                    "time": 150.90000000000123,
                    "velocity": 0.25196850393700787,
                    "duration": 0.5999999999999943
                },
                {
                    "name": "D3",
                    "midi": 50,
                    "time": 152.10000000000122,
                    "velocity": 0.25196850393700787,
                    "duration": 0.5999999999999943
                },
                {
                    "name": "G#3",
                    "midi": 56,
                    "time": 152.10000000000122,
                    "velocity": 0.2992125984251969,
                    "duration": 0.5999999999999943
                },
                {
                    "name": "F#3",
                    "midi": 54,
                    "time": 152.10000000000122,
                    "velocity": 0.25196850393700787,
                    "duration": 0.5999999999999943
                },
                {
                    "name": "F3",
                    "midi": 53,
                    "time": 153.3000000000012,
                    "velocity": 0.2204724409448819,
                    "duration": 0.5999999999999943
                },
                {
                    "name": "C#3",
                    "midi": 49,
                    "time": 153.3000000000012,
                    "velocity": 0.2204724409448819,
                    "duration": 0.5999999999999943
                },
                {
                    "name": "G#3",
                    "midi": 56,
                    "time": 153.3000000000012,
                    "velocity": 0.2677165354330709,
                    "duration": 0.5999999999999943
                },
                {
                    "name": "C3",
                    "midi": 48,
                    "time": 154.5000000000012,
                    "velocity": 0.25196850393700787,
                    "duration": 0.5999999999999943
                },
                {
                    "name": "F#3",
                    "midi": 54,
                    "time": 154.5000000000012,
                    "velocity": 0.25196850393700787,
                    "duration": 0.5999999999999943
                },
                {
                    "name": "D#3",
                    "midi": 51,
                    "time": 154.5000000000012,
                    "velocity": 0.25196850393700787,
                    "duration": 0.5999999999999943
                },
                {
                    "name": "G#3",
                    "midi": 56,
                    "time": 154.5000000000012,
                    "velocity": 0.2992125984251969,
                    "duration": 0.5999999999999943
                },
                {
                    "name": "C#3",
                    "midi": 49,
                    "time": 155.1000000000012,
                    "velocity": 0.2204724409448819,
                    "duration": 1.8000000000000114
                },
                {
                    "name": "G#2",
                    "midi": 44,
                    "time": 155.1000000000012,
                    "velocity": 0.2204724409448819,
                    "duration": 1.8000000000000114
                },
                {
                    "name": "F3",
                    "midi": 53,
                    "time": 155.1000000000012,
                    "velocity": 0.25196850393700787,
                    "duration": 1.8000000000000114
                },
                {
                    "name": "G#3",
                    "midi": 56,
                    "time": 155.1000000000012,
                    "velocity": 0.2992125984251969,
                    "duration": 1.8000000000000114
                },
                {
                    "name": "C#5",
                    "midi": 73,
                    "time": 157.4250000000012,
                    "velocity": 0.30708661417322836,
                    "duration": 0.025000000000005684
                },
                {
                    "name": "G#5",
                    "midi": 80,
                    "time": 157.4500000000012,
                    "velocity": 0.33070866141732286,
                    "duration": 0.025000000000005684
                },
                {
                    "name": "C#6",
                    "midi": 85,
                    "time": 157.47500000000122,
                    "velocity": 0.3543307086614173,
                    "duration": 1.125
                },
                {
                    "name": "G#5",
                    "midi": 80,
                    "time": 157.50000000000122,
                    "velocity": 0.3937007874015748,
                    "duration": 0.44999999999998863
                },
                {
                    "name": "C#5",
                    "midi": 73,
                    "time": 157.9500000000012,
                    "velocity": 0.3464566929133858,
                    "duration": 0.15000000000000568
                },
                {
                    "name": "G#5",
                    "midi": 80,
                    "time": 158.10000000000122,
                    "velocity": 0.3937007874015748,
                    "duration": 0.44999999999998863
                },
                {
                    "name": "A5",
                    "midi": 81,
                    "time": 158.5500000000012,
                    "velocity": 0.36220472440944884,
                    "duration": 0.07500000000001705
                },
                {
                    "name": "C#5",
                    "midi": 73,
                    "time": 158.62500000000122,
                    "velocity": 0.30708661417322836,
                    "duration": 0.025000000000005684
                },
                {
                    "name": "G#5",
                    "midi": 80,
                    "time": 158.65000000000123,
                    "velocity": 0.33070866141732286,
                    "duration": 0.025000000000005684
                },
                {
                    "name": "C#6",
                    "midi": 85,
                    "time": 158.67500000000123,
                    "velocity": 0.3543307086614173,
                    "duration": 1.125
                },
                {
                    "name": "G#5",
                    "midi": 80,
                    "time": 158.70000000000124,
                    "velocity": 0.3937007874015748,
                    "duration": 0.44999999999998863
                },
                {
                    "name": "B5",
                    "midi": 83,
                    "time": 159.15000000000123,
                    "velocity": 0.41732283464566927,
                    "duration": 0.15000000000000568
                },
                {
                    "name": "A5",
                    "midi": 81,
                    "time": 159.30000000000123,
                    "velocity": 0.4015748031496063,
                    "duration": 0.44999999999998863
                },
                {
                    "name": "G#5",
                    "midi": 80,
                    "time": 159.75000000000122,
                    "velocity": 0.36220472440944884,
                    "duration": 0.07500000000001705
                },
                {
                    "name": "C#5",
                    "midi": 73,
                    "time": 159.82500000000124,
                    "velocity": 0.30708661417322836,
                    "duration": 0.025000000000005684
                },
                {
                    "name": "F#5",
                    "midi": 78,
                    "time": 159.85000000000124,
                    "velocity": 0.33070866141732286,
                    "duration": 0.025000000000005684
                },
                {
                    "name": "C#6",
                    "midi": 85,
                    "time": 159.87500000000125,
                    "velocity": 0.3543307086614173,
                    "duration": 1.125
                },
                {
                    "name": "F#5",
                    "midi": 78,
                    "time": 159.90000000000126,
                    "velocity": 0.3937007874015748,
                    "duration": 0.44999999999998863
                },
                {
                    "name": "C#5",
                    "midi": 73,
                    "time": 160.35000000000124,
                    "velocity": 0.3464566929133858,
                    "duration": 0.15000000000000568
                },
                {
                    "name": "F#5",
                    "midi": 78,
                    "time": 160.50000000000125,
                    "velocity": 0.3937007874015748,
                    "duration": 0.44999999999998863
                },
                {
                    "name": "G#5",
                    "midi": 80,
                    "time": 160.95000000000124,
                    "velocity": 0.36220472440944884,
                    "duration": 0.07500000000001705
                },
                {
                    "name": "C#5",
                    "midi": 73,
                    "time": 161.02500000000126,
                    "velocity": 0.30708661417322836,
                    "duration": 0.025000000000005684
                },
                {
                    "name": "A5",
                    "midi": 81,
                    "time": 161.05000000000126,
                    "velocity": 0.33070866141732286,
                    "duration": 0.025000000000005684
                },
                {
                    "name": "C#6",
                    "midi": 85,
                    "time": 161.07500000000127,
                    "velocity": 0.3543307086614173,
                    "duration": 0.4749999999999943
                },
                {
                    "name": "A5",
                    "midi": 81,
                    "time": 161.10000000000127,
                    "velocity": 0.3937007874015748,
                    "duration": 0.44999999999998863
                },
                {
                    "name": "C#6",
                    "midi": 85,
                    "time": 161.55000000000126,
                    "velocity": 0.4251968503937008,
                    "duration": 0.674999999999983
                },
                {
                    "name": "B5",
                    "midi": 83,
                    "time": 161.70000000000127,
                    "velocity": 0.3937007874015748,
                    "duration": 0.44999999999998863
                },
                {
                    "name": "A5",
                    "midi": 81,
                    "time": 162.15000000000126,
                    "velocity": 0.36220472440944884,
                    "duration": 0.07499999999998863
                },
                {
                    "name": "C#5",
                    "midi": 73,
                    "time": 162.22500000000124,
                    "velocity": 0.30708661417322836,
                    "duration": 0.025000000000005684
                },
                {
                    "name": "G#5",
                    "midi": 80,
                    "time": 162.25000000000125,
                    "velocity": 0.33070866141732286,
                    "duration": 0.025000000000005684
                },
                {
                    "name": "C#6",
                    "midi": 85,
                    "time": 162.27500000000126,
                    "velocity": 0.3543307086614173,
                    "duration": 1.125
                },
                {
                    "name": "G#5",
                    "midi": 80,
                    "time": 162.30000000000126,
                    "velocity": 0.3937007874015748,
                    "duration": 0.44999999999998863
                },
                {
                    "name": "C#5",
                    "midi": 73,
                    "time": 162.75000000000125,
                    "velocity": 0.3464566929133858,
                    "duration": 0.15000000000000568
                },
                {
                    "name": "G#5",
                    "midi": 80,
                    "time": 162.90000000000126,
                    "velocity": 0.3937007874015748,
                    "duration": 0.44999999999998863
                },
                {
                    "name": "A5",
                    "midi": 81,
                    "time": 163.35000000000124,
                    "velocity": 0.36220472440944884,
                    "duration": 0.07500000000001705
                },
                {
                    "name": "C#5",
                    "midi": 73,
                    "time": 163.42500000000126,
                    "velocity": 0.30708661417322836,
                    "duration": 0.025000000000005684
                },
                {
                    "name": "G#5",
                    "midi": 80,
                    "time": 163.45000000000127,
                    "velocity": 0.33070866141732286,
                    "duration": 0.025000000000005684
                },
                {
                    "name": "C#6",
                    "midi": 85,
                    "time": 163.47500000000127,
                    "velocity": 0.3543307086614173,
                    "duration": 1.125
                },
                {
                    "name": "G#5",
                    "midi": 80,
                    "time": 163.50000000000128,
                    "velocity": 0.3937007874015748,
                    "duration": 0.44999999999998863
                },
                {
                    "name": "B5",
                    "midi": 83,
                    "time": 163.95000000000127,
                    "velocity": 0.41732283464566927,
                    "duration": 0.15000000000000568
                },
                {
                    "name": "A5",
                    "midi": 81,
                    "time": 164.10000000000127,
                    "velocity": 0.4015748031496063,
                    "duration": 0.44999999999998863
                },
                {
                    "name": "G#5",
                    "midi": 80,
                    "time": 164.55000000000126,
                    "velocity": 0.36220472440944884,
                    "duration": 0.07500000000001705
                },
                {
                    "name": "C#5",
                    "midi": 73,
                    "time": 164.62500000000128,
                    "velocity": 0.30708661417322836,
                    "duration": 0.025000000000005684
                },
                {
                    "name": "F#5",
                    "midi": 78,
                    "time": 164.65000000000128,
                    "velocity": 0.33070866141732286,
                    "duration": 0.025000000000005684
                },
                {
                    "name": "C#6",
                    "midi": 85,
                    "time": 164.6750000000013,
                    "velocity": 0.3543307086614173,
                    "duration": 1.125
                },
                {
                    "name": "F#5",
                    "midi": 78,
                    "time": 164.7000000000013,
                    "velocity": 0.3937007874015748,
                    "duration": 0.44999999999998863
                },
                {
                    "name": "C#5",
                    "midi": 73,
                    "time": 165.15000000000128,
                    "velocity": 0.3464566929133858,
                    "duration": 0.15000000000000568
                },
                {
                    "name": "F#5",
                    "midi": 78,
                    "time": 165.3000000000013,
                    "velocity": 0.3937007874015748,
                    "duration": 0.44999999999998863
                },
                {
                    "name": "G#5",
                    "midi": 80,
                    "time": 165.75000000000128,
                    "velocity": 0.36220472440944884,
                    "duration": 0.07500000000001705
                },
                {
                    "name": "C#5",
                    "midi": 73,
                    "time": 165.8250000000013,
                    "velocity": 0.30708661417322836,
                    "duration": 0.025000000000005684
                },
                {
                    "name": "F#5",
                    "midi": 78,
                    "time": 165.8500000000013,
                    "velocity": 0.33070866141732286,
                    "duration": 0.025000000000005684
                },
                {
                    "name": "C#6",
                    "midi": 85,
                    "time": 165.8750000000013,
                    "velocity": 0.3543307086614173,
                    "duration": 1.125
                },
                {
                    "name": "F#5",
                    "midi": 78,
                    "time": 165.9000000000013,
                    "velocity": 0.3937007874015748,
                    "duration": 0.44999999999998863
                },
                {
                    "name": "C#5",
                    "midi": 73,
                    "time": 166.3500000000013,
                    "velocity": 0.4251968503937008,
                    "duration": 0.15000000000000568
                },
                {
                    "name": "A5",
                    "midi": 81,
                    "time": 166.5000000000013,
                    "velocity": 0.3937007874015748,
                    "duration": 0.44999999999998863
                },
                {
                    "name": "C#5",
                    "midi": 73,
                    "time": 166.9500000000013,
                    "velocity": 0.36220472440944884,
                    "duration": 0.07500000000001705
                },
                {
                    "name": "C#5",
                    "midi": 73,
                    "time": 167.0250000000013,
                    "velocity": 0.30708661417322836,
                    "duration": 0.025000000000005684
                },
                {
                    "name": "G#5",
                    "midi": 80,
                    "time": 167.05000000000132,
                    "velocity": 0.33070866141732286,
                    "duration": 0.025000000000005684
                },
                {
                    "name": "C#6",
                    "midi": 85,
                    "time": 167.07500000000132,
                    "velocity": 0.3543307086614173,
                    "duration": 1.125
                },
                {
                    "name": "G#5",
                    "midi": 80,
                    "time": 167.10000000000133,
                    "velocity": 0.3937007874015748,
                    "duration": 0.44999999999998863
                },
                {
                    "name": "C#5",
                    "midi": 73,
                    "time": 167.55000000000132,
                    "velocity": 0.3464566929133858,
                    "duration": 0.15000000000000568
                },
                {
                    "name": "G#5",
                    "midi": 80,
                    "time": 167.70000000000132,
                    "velocity": 0.3937007874015748,
                    "duration": 0.44999999999998863
                },
                {
                    "name": "A5",
                    "midi": 81,
                    "time": 168.1500000000013,
                    "velocity": 0.36220472440944884,
                    "duration": 0.07500000000001705
                },
                {
                    "name": "C#5",
                    "midi": 73,
                    "time": 168.22500000000133,
                    "velocity": 0.30708661417322836,
                    "duration": 0.025000000000005684
                },
                {
                    "name": "G#5",
                    "midi": 80,
                    "time": 168.25000000000134,
                    "velocity": 0.33070866141732286,
                    "duration": 0.025000000000005684
                },
                {
                    "name": "C#6",
                    "midi": 85,
                    "time": 168.27500000000134,
                    "velocity": 0.3543307086614173,
                    "duration": 1.125
                },
                {
                    "name": "G#5",
                    "midi": 80,
                    "time": 168.30000000000135,
                    "velocity": 0.3937007874015748,
                    "duration": 0.44999999999998863
                },
                {
                    "name": "B5",
                    "midi": 83,
                    "time": 168.75000000000134,
                    "velocity": 0.41732283464566927,
                    "duration": 0.15000000000000568
                },
                {
                    "name": "A5",
                    "midi": 81,
                    "time": 168.90000000000134,
                    "velocity": 0.4015748031496063,
                    "duration": 0.44999999999998863
                },
                {
                    "name": "G#5",
                    "midi": 80,
                    "time": 169.35000000000133,
                    "velocity": 0.36220472440944884,
                    "duration": 0.07500000000001705
                },
                {
                    "name": "C#5",
                    "midi": 73,
                    "time": 169.42500000000135,
                    "velocity": 0.30708661417322836,
                    "duration": 0.025000000000005684
                },
                {
                    "name": "F#5",
                    "midi": 78,
                    "time": 169.45000000000135,
                    "velocity": 0.33070866141732286,
                    "duration": 0.025000000000005684
                },
                {
                    "name": "C#6",
                    "midi": 85,
                    "time": 169.47500000000136,
                    "velocity": 0.3543307086614173,
                    "duration": 1.1499999999999773
                },
                {
                    "name": "F#5",
                    "midi": 78,
                    "time": 169.50000000000136,
                    "velocity": 0.3937007874015748,
                    "duration": 0.44999999999998863
                },
                {
                    "name": "C#5",
                    "midi": 73,
                    "time": 169.95000000000135,
                    "velocity": 0.3464566929133858,
                    "duration": 0.15000000000000568
                },
                {
                    "name": "F#5",
                    "midi": 78,
                    "time": 170.10000000000136,
                    "velocity": 0.3937007874015748,
                    "duration": 0.44999999999998863
                },
                {
                    "name": "G#5",
                    "midi": 80,
                    "time": 170.55000000000135,
                    "velocity": 0.36220472440944884,
                    "duration": 0.07499999999998863
                },
                {
                    "name": "C#5",
                    "midi": 73,
                    "time": 170.62500000000134,
                    "velocity": 0.30708661417322836,
                    "duration": 0.025000000000005684
                },
                {
                    "name": "A5",
                    "midi": 81,
                    "time": 170.65000000000134,
                    "velocity": 0.33070866141732286,
                    "duration": 0.025000000000005684
                },
                {
                    "name": "C#6",
                    "midi": 85,
                    "time": 170.67500000000135,
                    "velocity": 0.3543307086614173,
                    "duration": 0.4749999999999943
                },
                {
                    "name": "A5",
                    "midi": 81,
                    "time": 170.70000000000135,
                    "velocity": 0.3937007874015748,
                    "duration": 0.44999999999998863
                },
                {
                    "name": "C#6",
                    "midi": 85,
                    "time": 171.15000000000134,
                    "velocity": 0.4251968503937008,
                    "duration": 0.674999999999983
                },
                {
                    "name": "B5",
                    "midi": 83,
                    "time": 171.30000000000135,
                    "velocity": 0.3937007874015748,
                    "duration": 0.44999999999998863
                },
                {
                    "name": "A5",
                    "midi": 81,
                    "time": 171.75000000000134,
                    "velocity": 0.36220472440944884,
                    "duration": 0.07499999999998863
                },
                {
                    "name": "C#5",
                    "midi": 73,
                    "time": 171.82500000000132,
                    "velocity": 0.30708661417322836,
                    "duration": 0.025000000000005684
                },
                {
                    "name": "G#5",
                    "midi": 80,
                    "time": 171.85000000000133,
                    "velocity": 0.33070866141732286,
                    "duration": 0.025000000000005684
                },
                {
                    "name": "C#6",
                    "midi": 85,
                    "time": 171.87500000000134,
                    "velocity": 0.3543307086614173,
                    "duration": 1.125
                },
                {
                    "name": "G#5",
                    "midi": 80,
                    "time": 171.90000000000134,
                    "velocity": 0.3937007874015748,
                    "duration": 0.44999999999998863
                },
                {
                    "name": "C#5",
                    "midi": 73,
                    "time": 172.35000000000133,
                    "velocity": 0.3464566929133858,
                    "duration": 0.15000000000000568
                },
                {
                    "name": "G#5",
                    "midi": 80,
                    "time": 172.50000000000134,
                    "velocity": 0.3937007874015748,
                    "duration": 0.44999999999998863
                },
                {
                    "name": "A5",
                    "midi": 81,
                    "time": 172.95000000000132,
                    "velocity": 0.36220472440944884,
                    "duration": 0.07500000000001705
                },
                {
                    "name": "C#5",
                    "midi": 73,
                    "time": 173.02500000000134,
                    "velocity": 0.30708661417322836,
                    "duration": 0.025000000000005684
                },
                {
                    "name": "G#5",
                    "midi": 80,
                    "time": 173.05000000000135,
                    "velocity": 0.33070866141732286,
                    "duration": 0.025000000000005684
                },
                {
                    "name": "C#6",
                    "midi": 85,
                    "time": 173.07500000000135,
                    "velocity": 0.3543307086614173,
                    "duration": 1.125
                },
                {
                    "name": "G#5",
                    "midi": 80,
                    "time": 173.10000000000136,
                    "velocity": 0.3937007874015748,
                    "duration": 0.44999999999998863
                },
                {
                    "name": "B5",
                    "midi": 83,
                    "time": 173.55000000000135,
                    "velocity": 0.41732283464566927,
                    "duration": 0.15000000000000568
                },
                {
                    "name": "A5",
                    "midi": 81,
                    "time": 173.70000000000135,
                    "velocity": 0.4015748031496063,
                    "duration": 0.44999999999998863
                },
                {
                    "name": "G#5",
                    "midi": 80,
                    "time": 174.15000000000134,
                    "velocity": 0.36220472440944884,
                    "duration": 0.07500000000001705
                },
                {
                    "name": "C#5",
                    "midi": 73,
                    "time": 174.22500000000136,
                    "velocity": 0.30708661417322836,
                    "duration": 0.025000000000005684
                },
                {
                    "name": "F#5",
                    "midi": 78,
                    "time": 174.25000000000136,
                    "velocity": 0.33070866141732286,
                    "duration": 0.025000000000005684
                },
                {
                    "name": "C#6",
                    "midi": 85,
                    "time": 174.27500000000137,
                    "velocity": 0.3543307086614173,
                    "duration": 1.125
                },
                {
                    "name": "F#5",
                    "midi": 78,
                    "time": 174.30000000000138,
                    "velocity": 0.3937007874015748,
                    "duration": 0.44999999999998863
                },
                {
                    "name": "C#5",
                    "midi": 73,
                    "time": 174.75000000000136,
                    "velocity": 0.3464566929133858,
                    "duration": 0.15000000000000568
                },
                {
                    "name": "F#5",
                    "midi": 78,
                    "time": 174.90000000000137,
                    "velocity": 0.3937007874015748,
                    "duration": 0.44999999999998863
                },
                {
                    "name": "G#5",
                    "midi": 80,
                    "time": 175.35000000000136,
                    "velocity": 0.36220472440944884,
                    "duration": 0.07500000000001705
                },
                {
                    "name": "C#5",
                    "midi": 73,
                    "time": 175.42500000000138,
                    "velocity": 0.30708661417322836,
                    "duration": 0.025000000000005684
                },
                {
                    "name": "F#5",
                    "midi": 78,
                    "time": 175.45000000000138,
                    "velocity": 0.33070866141732286,
                    "duration": 0.025000000000005684
                },
                {
                    "name": "C#6",
                    "midi": 85,
                    "time": 175.4750000000014,
                    "velocity": 0.3543307086614173,
                    "duration": 1.1149999999999807
                },
                {
                    "name": "F#5",
                    "midi": 78,
                    "time": 175.5000000000014,
                    "velocity": 0.3937007874015748,
                    "duration": 0.44999999999998863
                },
                {
                    "name": "C#5",
                    "midi": 73,
                    "time": 175.95000000000138,
                    "velocity": 0.4251968503937008,
                    "duration": 0.15000000000000568
                },
                {
                    "name": "A5",
                    "midi": 81,
                    "time": 176.1000000000014,
                    "velocity": 0.3937007874015748,
                    "duration": 0.44999999999998863
                },
                {
                    "name": "C#5",
                    "midi": 73,
                    "time": 176.55000000000138,
                    "velocity": 0.36220472440944884,
                    "duration": 0.03999999999999204
                },
                {
                    "name": "G#5",
                    "midi": 80,
                    "time": 176.62500000000136,
                    "velocity": 0.33070866141732286,
                    "duration": 0.037499999999994316
                },
                {
                    "name": "C#6",
                    "midi": 85,
                    "time": 176.66250000000136,
                    "velocity": 0.3543307086614173,
                    "duration": 0.037499999999994316
                },
                {
                    "name": "G#5",
                    "midi": 80,
                    "time": 176.70000000000135,
                    "velocity": 0.3937007874015748,
                    "duration": 0.44999999999998863
                },
                {
                    "name": "C#5",
                    "midi": 73,
                    "time": 177.15000000000134,
                    "velocity": 0.3464566929133858,
                    "duration": 0.15000000000000568
                },
                {
                    "name": "C#6",
                    "midi": 85,
                    "time": 177.30000000000135,
                    "velocity": 0.3937007874015748,
                    "duration": 0.44999999999998863
                },
                {
                    "name": "C#5",
                    "midi": 73,
                    "time": 177.75000000000134,
                    "velocity": 0.36220472440944884,
                    "duration": 0.07499999999998863
                },
                {
                    "name": "G#5",
                    "midi": 80,
                    "time": 177.82500000000132,
                    "velocity": 0.33070866141732286,
                    "duration": 0.037499999999994316
                },
                {
                    "name": "C#6",
                    "midi": 85,
                    "time": 177.86250000000132,
                    "velocity": 0.3543307086614173,
                    "duration": 0.037499999999994316
                },
                {
                    "name": "G#5",
                    "midi": 80,
                    "time": 177.9000000000013,
                    "velocity": 0.3937007874015748,
                    "duration": 0.44999999999998863
                },
                {
                    "name": "C#5",
                    "midi": 73,
                    "time": 178.3500000000013,
                    "velocity": 0.3464566929133858,
                    "duration": 0.15000000000000568
                },
                {
                    "name": "C#6",
                    "midi": 85,
                    "time": 178.5000000000013,
                    "velocity": 0.3937007874015748,
                    "duration": 0.44999999999998863
                },
                {
                    "name": "C#5",
                    "midi": 73,
                    "time": 178.9500000000013,
                    "velocity": 0.36220472440944884,
                    "duration": 0.07499999999998863
                },
                {
                    "name": "F#5",
                    "midi": 78,
                    "time": 179.02500000000128,
                    "velocity": 0.33070866141732286,
                    "duration": 0.037499999999994316
                },
                {
                    "name": "C#6",
                    "midi": 85,
                    "time": 179.06250000000128,
                    "velocity": 0.3543307086614173,
                    "duration": 0.037499999999994316
                },
                {
                    "name": "F#5",
                    "midi": 78,
                    "time": 179.10000000000127,
                    "velocity": 0.3937007874015748,
                    "duration": 0.44999999999998863
                },
                {
                    "name": "C#5",
                    "midi": 73,
                    "time": 179.55000000000126,
                    "velocity": 0.3464566929133858,
                    "duration": 0.15000000000000568
                },
                {
                    "name": "C#6",
                    "midi": 85,
                    "time": 179.70000000000127,
                    "velocity": 0.3937007874015748,
                    "duration": 0.44999999999998863
                },
                {
                    "name": "C#5",
                    "midi": 73,
                    "time": 180.15000000000126,
                    "velocity": 0.36220472440944884,
                    "duration": 0.07499999999998863
                },
                {
                    "name": "A5",
                    "midi": 81,
                    "time": 180.22500000000124,
                    "velocity": 0.33070866141732286,
                    "duration": 0.037499999999994316
                },
                {
                    "name": "C#6",
                    "midi": 85,
                    "time": 180.26250000000124,
                    "velocity": 0.3543307086614173,
                    "duration": 0.037499999999994316
                },
                {
                    "name": "A5",
                    "midi": 81,
                    "time": 180.30000000000123,
                    "velocity": 0.3937007874015748,
                    "duration": 0.44999999999998863
                },
                {
                    "name": "C#5",
                    "midi": 73,
                    "time": 180.75000000000122,
                    "velocity": 0.3464566929133858,
                    "duration": 0.15000000000000568
                },
                {
                    "name": "C#6",
                    "midi": 85,
                    "time": 180.90000000000123,
                    "velocity": 0.3937007874015748,
                    "duration": 0.44999999999998863
                },
                {
                    "name": "C#5",
                    "midi": 73,
                    "time": 181.35000000000122,
                    "velocity": 0.36220472440944884,
                    "duration": 0.07499999999998863
                },
                {
                    "name": "G#5",
                    "midi": 80,
                    "time": 181.4250000000012,
                    "velocity": 0.33070866141732286,
                    "duration": 0.037499999999994316
                },
                {
                    "name": "C#6",
                    "midi": 85,
                    "time": 181.4625000000012,
                    "velocity": 0.3543307086614173,
                    "duration": 0.037499999999994316
                },
                {
                    "name": "G#5",
                    "midi": 80,
                    "time": 181.5000000000012,
                    "velocity": 0.3937007874015748,
                    "duration": 0.44999999999998863
                },
                {
                    "name": "C#5",
                    "midi": 73,
                    "time": 181.95000000000118,
                    "velocity": 0.3464566929133858,
                    "duration": 0.15000000000000568
                },
                {
                    "name": "C#6",
                    "midi": 85,
                    "time": 182.1000000000012,
                    "velocity": 0.3937007874015748,
                    "duration": 0.44999999999998863
                },
                {
                    "name": "C#5",
                    "midi": 73,
                    "time": 182.55000000000118,
                    "velocity": 0.36220472440944884,
                    "duration": 0.07499999999998863
                },
                {
                    "name": "G#5",
                    "midi": 80,
                    "time": 182.62500000000117,
                    "velocity": 0.33070866141732286,
                    "duration": 0.037499999999994316
                },
                {
                    "name": "C#6",
                    "midi": 85,
                    "time": 182.66250000000116,
                    "velocity": 0.3543307086614173,
                    "duration": 0.037499999999994316
                },
                {
                    "name": "G#5",
                    "midi": 80,
                    "time": 182.70000000000115,
                    "velocity": 0.3937007874015748,
                    "duration": 0.44999999999998863
                },
                {
                    "name": "C#5",
                    "midi": 73,
                    "time": 183.15000000000114,
                    "velocity": 0.3464566929133858,
                    "duration": 0.15000000000000568
                },
                {
                    "name": "C#6",
                    "midi": 85,
                    "time": 183.30000000000115,
                    "velocity": 0.3937007874015748,
                    "duration": 0.44999999999998863
                },
                {
                    "name": "C#5",
                    "midi": 73,
                    "time": 183.75000000000114,
                    "velocity": 0.36220472440944884,
                    "duration": 0.07499999999998863
                },
                {
                    "name": "F#5",
                    "midi": 78,
                    "time": 183.82500000000113,
                    "velocity": 0.33070866141732286,
                    "duration": 0.037499999999994316
                },
                {
                    "name": "C#6",
                    "midi": 85,
                    "time": 183.86250000000112,
                    "velocity": 0.3543307086614173,
                    "duration": 0.037499999999994316
                },
                {
                    "name": "F#5",
                    "midi": 78,
                    "time": 183.9000000000011,
                    "velocity": 0.3937007874015748,
                    "duration": 0.44999999999998863
                },
                {
                    "name": "C#5",
                    "midi": 73,
                    "time": 184.3500000000011,
                    "velocity": 0.3464566929133858,
                    "duration": 0.15000000000000568
                },
                {
                    "name": "C#6",
                    "midi": 85,
                    "time": 184.5000000000011,
                    "velocity": 0.3937007874015748,
                    "duration": 0.44999999999998863
                },
                {
                    "name": "C#5",
                    "midi": 73,
                    "time": 184.9500000000011,
                    "velocity": 0.36220472440944884,
                    "duration": 0.07499999999998863
                },
                {
                    "name": "A5",
                    "midi": 81,
                    "time": 185.02500000000109,
                    "velocity": 0.33070866141732286,
                    "duration": 0.037499999999994316
                },
                {
                    "name": "C#6",
                    "midi": 85,
                    "time": 185.06250000000108,
                    "velocity": 0.3543307086614173,
                    "duration": 0.037499999999994316
                },
                {
                    "name": "A5",
                    "midi": 81,
                    "time": 185.10000000000107,
                    "velocity": 0.3937007874015748,
                    "duration": 0.44999999999998863
                },
                {
                    "name": "C#5",
                    "midi": 73,
                    "time": 185.55000000000106,
                    "velocity": 0.3464566929133858,
                    "duration": 0.15000000000000568
                },
                {
                    "name": "C#6",
                    "midi": 85,
                    "time": 185.70000000000107,
                    "velocity": 0.3937007874015748,
                    "duration": 0.44999999999998863
                },
                {
                    "name": "C#5",
                    "midi": 73,
                    "time": 186.15000000000106,
                    "velocity": 0.36220472440944884,
                    "duration": 0.15000000000000568
                },
                {
                    "name": "G#4",
                    "midi": 68,
                    "time": 186.30000000000106,
                    "velocity": 0.3937007874015748,
                    "duration": 0.5999999999999375
                },
                {
                    "name": "C#5",
                    "midi": 73,
                    "time": 186.45000000000107,
                    "velocity": 0.3543307086614173,
                    "duration": 0.07499999999998863
                },
                {
                    "name": "C#5",
                    "midi": 73,
                    "time": 186.60000000000105,
                    "velocity": 0.36220472440944884,
                    "duration": 0.07499999999998863
                },
                {
                    "name": "C#5",
                    "midi": 73,
                    "time": 186.75000000000102,
                    "velocity": 0.36220472440944884,
                    "duration": 0.07499999999998863
                },
                {
                    "name": "C#5",
                    "midi": 73,
                    "time": 186.900000000001,
                    "velocity": 0.36220472440944884,
                    "duration": 0.07499999999998863
                },
                {
                    "name": "C#5",
                    "midi": 73,
                    "time": 187.05000000000098,
                    "velocity": 0.36220472440944884,
                    "duration": 0.07499999999998863
                },
                {
                    "name": "C#5",
                    "midi": 73,
                    "time": 187.20000000000095,
                    "velocity": 0.36220472440944884,
                    "duration": 0.07499999999998863
                },
                {
                    "name": "C#5",
                    "midi": 73,
                    "time": 187.35000000000093,
                    "velocity": 0.36220472440944884,
                    "duration": 0.07499999999998863
                },
                {
                    "name": "C#5",
                    "midi": 73,
                    "time": 187.65000000000092,
                    "velocity": 0.33858267716535434,
                    "duration": 0.07499999999998863
                },
                {
                    "name": "C#5",
                    "midi": 73,
                    "time": 187.8000000000009,
                    "velocity": 0.33858267716535434,
                    "duration": 0.07499999999998863
                },
                {
                    "name": "C#5",
                    "midi": 73,
                    "time": 187.95000000000087,
                    "velocity": 0.33858267716535434,
                    "duration": 0.07499999999998863
                },
                {
                    "name": "C#5",
                    "midi": 73,
                    "time": 188.25000000000085,
                    "velocity": 0.3543307086614173,
                    "duration": 0.07499999999998863
                },
                {
                    "name": "C#5",
                    "midi": 73,
                    "time": 188.40000000000083,
                    "velocity": 0.3543307086614173,
                    "duration": 0.07499999999998863
                },
                {
                    "name": "C#5",
                    "midi": 73,
                    "time": 188.5500000000008,
                    "velocity": 0.3543307086614173,
                    "duration": 0.07499999999998863
                },
                {
                    "name": "F#4",
                    "midi": 66,
                    "time": 188.70000000000078,
                    "velocity": 0.3937007874015748,
                    "duration": 0.5999999999999375
                },
                {
                    "name": "C#5",
                    "midi": 73,
                    "time": 188.8500000000008,
                    "velocity": 0.3464566929133858,
                    "duration": 0.07499999999998863
                },
                {
                    "name": "C#5",
                    "midi": 73,
                    "time": 189.00000000000077,
                    "velocity": 0.3464566929133858,
                    "duration": 0.07499999999998863
                },
                {
                    "name": "C#5",
                    "midi": 73,
                    "time": 189.15000000000074,
                    "velocity": 0.3464566929133858,
                    "duration": 0.07499999999998863
                },
                {
                    "name": "C#5",
                    "midi": 73,
                    "time": 189.30000000000072,
                    "velocity": 0.3464566929133858,
                    "duration": 0.07499999999998863
                },
                {
                    "name": "C#5",
                    "midi": 73,
                    "time": 189.4500000000007,
                    "velocity": 0.3464566929133858,
                    "duration": 0.07499999999998863
                },
                {
                    "name": "C#5",
                    "midi": 73,
                    "time": 189.60000000000068,
                    "velocity": 0.3464566929133858,
                    "duration": 0.07499999999998863
                },
                {
                    "name": "G#4",
                    "midi": 68,
                    "time": 189.75000000000065,
                    "velocity": 0.36220472440944884,
                    "duration": 0.07499999999998863
                },
                {
                    "name": "C#5",
                    "midi": 73,
                    "time": 190.05000000000064,
                    "velocity": 0.3464566929133858,
                    "duration": 0.07499999999998863
                },
                {
                    "name": "C#5",
                    "midi": 73,
                    "time": 190.2000000000006,
                    "velocity": 0.3464566929133858,
                    "duration": 0.07499999999998863
                },
                {
                    "name": "C#5",
                    "midi": 73,
                    "time": 190.3500000000006,
                    "velocity": 0.3464566929133858,
                    "duration": 0.07499999999998863
                },
                {
                    "name": "C#5",
                    "midi": 73,
                    "time": 190.65000000000057,
                    "velocity": 0.3543307086614173,
                    "duration": 0.07499999999998863
                },
                {
                    "name": "C#5",
                    "midi": 73,
                    "time": 190.80000000000055,
                    "velocity": 0.3543307086614173,
                    "duration": 0.07499999999998863
                },
                {
                    "name": "C#5",
                    "midi": 73,
                    "time": 190.95000000000053,
                    "velocity": 0.3543307086614173,
                    "duration": 0.07499999999998863
                },
                {
                    "name": "G#4",
                    "midi": 68,
                    "time": 191.1000000000005,
                    "velocity": 0.3937007874015748,
                    "duration": 0.5999999999999375
                },
                {
                    "name": "C#5",
                    "midi": 73,
                    "time": 191.2500000000005,
                    "velocity": 0.3464566929133858,
                    "duration": 0.07499999999998863
                },
                {
                    "name": "C#5",
                    "midi": 73,
                    "time": 191.4000000000005,
                    "velocity": 0.3464566929133858,
                    "duration": 0.07499999999998863
                },
                {
                    "name": "C#5",
                    "midi": 73,
                    "time": 191.55000000000047,
                    "velocity": 0.3464566929133858,
                    "duration": 0.07499999999998863
                },
                {
                    "name": "C#5",
                    "midi": 73,
                    "time": 191.70000000000044,
                    "velocity": 0.3464566929133858,
                    "duration": 0.07499999999998863
                },
                {
                    "name": "C#5",
                    "midi": 73,
                    "time": 191.85000000000042,
                    "velocity": 0.3464566929133858,
                    "duration": 0.07499999999998863
                },
                {
                    "name": "C#5",
                    "midi": 73,
                    "time": 192.0000000000004,
                    "velocity": 0.3464566929133858,
                    "duration": 0.07499999999998863
                },
                {
                    "name": "B4",
                    "midi": 71,
                    "time": 192.15000000000038,
                    "velocity": 0.3858267716535433,
                    "duration": 0.07499999999998863
                },
                {
                    "name": "C#5",
                    "midi": 73,
                    "time": 192.45000000000036,
                    "velocity": 0.36220472440944884,
                    "duration": 0.07499999999998863
                },
                {
                    "name": "C#5",
                    "midi": 73,
                    "time": 192.60000000000034,
                    "velocity": 0.36220472440944884,
                    "duration": 0.07499999999998863
                },
                {
                    "name": "C#5",
                    "midi": 73,
                    "time": 192.7500000000003,
                    "velocity": 0.36220472440944884,
                    "duration": 0.07499999999998863
                },
                {
                    "name": "C#5",
                    "midi": 73,
                    "time": 193.0500000000003,
                    "velocity": 0.3543307086614173,
                    "duration": 0.07499999999998863
                },
                {
                    "name": "C#5",
                    "midi": 73,
                    "time": 193.20000000000027,
                    "velocity": 0.3543307086614173,
                    "duration": 0.07499999999998863
                },
                {
                    "name": "C#5",
                    "midi": 73,
                    "time": 193.35000000000025,
                    "velocity": 0.3543307086614173,
                    "duration": 0.07499999999998863
                },
                {
                    "name": "F#4",
                    "midi": 66,
                    "time": 193.50000000000023,
                    "velocity": 0.3937007874015748,
                    "duration": 0.5999999999999375
                },
                {
                    "name": "C#5",
                    "midi": 73,
                    "time": 193.65000000000023,
                    "velocity": 0.33070866141732286,
                    "duration": 0.07499999999998863
                },
                {
                    "name": "C#5",
                    "midi": 73,
                    "time": 193.8000000000002,
                    "velocity": 0.33070866141732286,
                    "duration": 0.07499999999998863
                },
                {
                    "name": "C#5",
                    "midi": 73,
                    "time": 193.9500000000002,
                    "velocity": 0.33070866141732286,
                    "duration": 0.07499999999998863
                },
                {
                    "name": "C#5",
                    "midi": 73,
                    "time": 194.10000000000016,
                    "velocity": 0.33070866141732286,
                    "duration": 0.07499999999998863
                },
                {
                    "name": "C#5",
                    "midi": 73,
                    "time": 194.25000000000014,
                    "velocity": 0.33070866141732286,
                    "duration": 0.07499999999998863
                },
                {
                    "name": "C#5",
                    "midi": 73,
                    "time": 194.40000000000012,
                    "velocity": 0.33070866141732286,
                    "duration": 0.07499999999998863
                },
                {
                    "name": "G#4",
                    "midi": 68,
                    "time": 194.5500000000001,
                    "velocity": 0.3937007874015748,
                    "duration": 0.07499999999998863
                },
                {
                    "name": "C#5",
                    "midi": 73,
                    "time": 194.85000000000008,
                    "velocity": 0.3543307086614173,
                    "duration": 0.07499999999998863
                },
                {
                    "name": "C#5",
                    "midi": 73,
                    "time": 195.00000000000006,
                    "velocity": 0.3543307086614173,
                    "duration": 0.07499999999998863
                },
                {
                    "name": "C#5",
                    "midi": 73,
                    "time": 195.15000000000003,
                    "velocity": 0.3543307086614173,
                    "duration": 0.07499999999998863
                },
                {
                    "name": "C#5",
                    "midi": 73,
                    "time": 195.45000000000002,
                    "velocity": 0.3464566929133858,
                    "duration": 0.07499999999998863
                },
                {
                    "name": "C#5",
                    "midi": 73,
                    "time": 195.6,
                    "velocity": 0.3464566929133858,
                    "duration": 0.07499999999998863
                },
                {
                    "name": "C#5",
                    "midi": 73,
                    "time": 195.74999999999997,
                    "velocity": 0.3464566929133858,
                    "duration": 0.07499999999998863
                },
                {
                    "name": "G#4",
                    "midi": 68,
                    "time": 195.89999999999995,
                    "velocity": 0.44881889763779526,
                    "duration": 0.5999999999999375
                },
                {
                    "name": "G#5",
                    "midi": 80,
                    "time": 195.89999999999995,
                    "velocity": 0.44881889763779526,
                    "duration": 0.5999999999999375
                },
                {
                    "name": "C#5",
                    "midi": 73,
                    "time": 196.04999999999995,
                    "velocity": 0.3543307086614173,
                    "duration": 0.07499999999998863
                },
                {
                    "name": "C#5",
                    "midi": 73,
                    "time": 196.19999999999993,
                    "velocity": 0.3543307086614173,
                    "duration": 0.07499999999998863
                },
                {
                    "name": "C#5",
                    "midi": 73,
                    "time": 196.3499999999999,
                    "velocity": 0.3543307086614173,
                    "duration": 0.07499999999998863
                },
                {
                    "name": "C#5",
                    "midi": 73,
                    "time": 196.4999999999999,
                    "velocity": 0.3543307086614173,
                    "duration": 0.07499999999998863
                },
                {
                    "name": "C#5",
                    "midi": 73,
                    "time": 196.64999999999986,
                    "velocity": 0.3543307086614173,
                    "duration": 0.07499999999998863
                },
                {
                    "name": "C#5",
                    "midi": 73,
                    "time": 196.79999999999984,
                    "velocity": 0.3543307086614173,
                    "duration": 0.07499999999998863
                },
                {
                    "name": "C#5",
                    "midi": 73,
                    "time": 196.94999999999982,
                    "velocity": 0.3543307086614173,
                    "duration": 0.07499999999998863
                },
                {
                    "name": "A5",
                    "midi": 81,
                    "time": 197.0999999999998,
                    "velocity": 0.4251968503937008,
                    "duration": 0.29999999999998295
                },
                {
                    "name": "A4",
                    "midi": 69,
                    "time": 197.0999999999998,
                    "velocity": 0.4251968503937008,
                    "duration": 0.29999999999998295
                },
                {
                    "name": "C#5",
                    "midi": 73,
                    "time": 197.2499999999998,
                    "velocity": 0.3543307086614173,
                    "duration": 0.07499999999998863
                },
                {
                    "name": "C#5",
                    "midi": 73,
                    "time": 197.39999999999978,
                    "velocity": 0.3543307086614173,
                    "duration": 0.07499999999998863
                },
                {
                    "name": "C#5",
                    "midi": 73,
                    "time": 197.54999999999976,
                    "velocity": 0.3543307086614173,
                    "duration": 0.07499999999998863
                },
                {
                    "name": "G#5",
                    "midi": 80,
                    "time": 197.69999999999973,
                    "velocity": 0.4251968503937008,
                    "duration": 0.29999999999998295
                },
                {
                    "name": "G#4",
                    "midi": 68,
                    "time": 197.69999999999973,
                    "velocity": 0.4251968503937008,
                    "duration": 0.29999999999998295
                },
                {
                    "name": "C#5",
                    "midi": 73,
                    "time": 197.84999999999974,
                    "velocity": 0.36220472440944884,
                    "duration": 0.07499999999998863
                },
                {
                    "name": "C#5",
                    "midi": 73,
                    "time": 197.99999999999972,
                    "velocity": 0.36220472440944884,
                    "duration": 0.07499999999998863
                },
                {
                    "name": "C#5",
                    "midi": 73,
                    "time": 198.1499999999997,
                    "velocity": 0.36220472440944884,
                    "duration": 0.07499999999998863
                },
                {
                    "name": "F#4",
                    "midi": 66,
                    "time": 198.29999999999967,
                    "velocity": 0.4330708661417323,
                    "duration": 0.5999999999999375
                },
                {
                    "name": "F#5",
                    "midi": 78,
                    "time": 198.29999999999967,
                    "velocity": 0.4330708661417323,
                    "duration": 0.5999999999999375
                },
                {
                    "name": "C#5",
                    "midi": 73,
                    "time": 198.44999999999968,
                    "velocity": 0.33070866141732286,
                    "duration": 0.07499999999998863
                },
                {
                    "name": "C#5",
                    "midi": 73,
                    "time": 198.59999999999965,
                    "velocity": 0.33070866141732286,
                    "duration": 0.07499999999998863
                },
                {
                    "name": "C#5",
                    "midi": 73,
                    "time": 198.74999999999963,
                    "velocity": 0.33070866141732286,
                    "duration": 0.07499999999998863
                },
                {
                    "name": "C#5",
                    "midi": 73,
                    "time": 198.8999999999996,
                    "velocity": 0.33070866141732286,
                    "duration": 0.07499999999998863
                },
                {
                    "name": "C#5",
                    "midi": 73,
                    "time": 199.04999999999959,
                    "velocity": 0.33070866141732286,
                    "duration": 0.07499999999998863
                },
                {
                    "name": "C#5",
                    "midi": 73,
                    "time": 199.19999999999956,
                    "velocity": 0.33070866141732286,
                    "duration": 0.07499999999998863
                },
                {
                    "name": "G#5",
                    "midi": 80,
                    "time": 199.34999999999954,
                    "velocity": 0.3937007874015748,
                    "duration": 0.07499999999998863
                },
                {
                    "name": "G#4",
                    "midi": 68,
                    "time": 199.34999999999954,
                    "velocity": 0.3937007874015748,
                    "duration": 0.07499999999998863
                },
                {
                    "name": "A5",
                    "midi": 81,
                    "time": 199.49999999999952,
                    "velocity": 0.4330708661417323,
                    "duration": 0.5999999999999375
                },
                {
                    "name": "A4",
                    "midi": 69,
                    "time": 199.49999999999952,
                    "velocity": 0.4330708661417323,
                    "duration": 0.5999999999999375
                },
                {
                    "name": "C#5",
                    "midi": 73,
                    "time": 199.64999999999952,
                    "velocity": 0.33858267716535434,
                    "duration": 0.07499999999998863
                },
                {
                    "name": "C#5",
                    "midi": 73,
                    "time": 199.7999999999995,
                    "velocity": 0.33858267716535434,
                    "duration": 0.07499999999998863
                },
                {
                    "name": "C#5",
                    "midi": 73,
                    "time": 199.94999999999948,
                    "velocity": 0.33858267716535434,
                    "duration": 0.07499999999998863
                },
                {
                    "name": "F#4",
                    "midi": 66,
                    "time": 200.09999999999945,
                    "velocity": 0.3937007874015748,
                    "duration": 0.5999999999999375
                },
                {
                    "name": "F#5",
                    "midi": 78,
                    "time": 200.09999999999945,
                    "velocity": 0.3937007874015748,
                    "duration": 0.5999999999999375
                },
                {
                    "name": "C#5",
                    "midi": 73,
                    "time": 200.24999999999946,
                    "velocity": 0.33858267716535434,
                    "duration": 0.07499999999998863
                },
                {
                    "name": "C#5",
                    "midi": 73,
                    "time": 200.39999999999944,
                    "velocity": 0.33858267716535434,
                    "duration": 0.07499999999998863
                },
                {
                    "name": "C#5",
                    "midi": 73,
                    "time": 200.54999999999941,
                    "velocity": 0.33858267716535434,
                    "duration": 0.07499999999998863
                },
                {
                    "name": "G#4",
                    "midi": 68,
                    "time": 200.6999999999994,
                    "velocity": 0.44881889763779526,
                    "duration": 0.5999999999999375
                },
                {
                    "name": "G#5",
                    "midi": 80,
                    "time": 200.6999999999994,
                    "velocity": 0.44881889763779526,
                    "duration": 0.5999999999999375
                },
                {
                    "name": "C#5",
                    "midi": 73,
                    "time": 200.8499999999994,
                    "velocity": 0.3228346456692913,
                    "duration": 0.07499999999998863
                },
                {
                    "name": "C#5",
                    "midi": 73,
                    "time": 200.99999999999937,
                    "velocity": 0.3228346456692913,
                    "duration": 0.07499999999998863
                },
                {
                    "name": "C#5",
                    "midi": 73,
                    "time": 201.14999999999935,
                    "velocity": 0.3228346456692913,
                    "duration": 0.07499999999998863
                },
                {
                    "name": "C#5",
                    "midi": 73,
                    "time": 201.29999999999933,
                    "velocity": 0.3228346456692913,
                    "duration": 0.07499999999998863
                },
                {
                    "name": "C#5",
                    "midi": 73,
                    "time": 201.4499999999993,
                    "velocity": 0.3228346456692913,
                    "duration": 0.07499999999998863
                },
                {
                    "name": "B5",
                    "midi": 83,
                    "time": 201.59999999999928,
                    "velocity": 0.3858267716535433,
                    "duration": 0.29999999999998295
                },
                {
                    "name": "B4",
                    "midi": 71,
                    "time": 201.59999999999928,
                    "velocity": 0.3858267716535433,
                    "duration": 0.29999999999998295
                },
                {
                    "name": "C#5",
                    "midi": 73,
                    "time": 201.7499999999993,
                    "velocity": 0.33858267716535434,
                    "duration": 0.07499999999998863
                },
                {
                    "name": "A5",
                    "midi": 81,
                    "time": 201.89999999999927,
                    "velocity": 0.4409448818897638,
                    "duration": 0.29999999999998295
                },
                {
                    "name": "A4",
                    "midi": 69,
                    "time": 201.89999999999927,
                    "velocity": 0.4409448818897638,
                    "duration": 0.29999999999998295
                },
                {
                    "name": "C#5",
                    "midi": 73,
                    "time": 202.04999999999927,
                    "velocity": 0.3464566929133858,
                    "duration": 0.07499999999998863
                },
                {
                    "name": "C#5",
                    "midi": 73,
                    "time": 202.19999999999925,
                    "velocity": 0.3464566929133858,
                    "duration": 0.07499999999998863
                },
                {
                    "name": "C#5",
                    "midi": 73,
                    "time": 202.34999999999923,
                    "velocity": 0.3464566929133858,
                    "duration": 0.07499999999998863
                },
                {
                    "name": "G#5",
                    "midi": 80,
                    "time": 202.4999999999992,
                    "velocity": 0.4251968503937008,
                    "duration": 0.29999999999998295
                },
                {
                    "name": "G#4",
                    "midi": 68,
                    "time": 202.4999999999992,
                    "velocity": 0.4251968503937008,
                    "duration": 0.29999999999998295
                },
                {
                    "name": "C#5",
                    "midi": 73,
                    "time": 202.6499999999992,
                    "velocity": 0.3464566929133858,
                    "duration": 0.07499999999998863
                },
                {
                    "name": "C#5",
                    "midi": 73,
                    "time": 202.7999999999992,
                    "velocity": 0.3464566929133858,
                    "duration": 0.07499999999998863
                },
                {
                    "name": "C#5",
                    "midi": 73,
                    "time": 202.94999999999916,
                    "velocity": 0.3464566929133858,
                    "duration": 0.07499999999998863
                },
                {
                    "name": "F#5",
                    "midi": 78,
                    "time": 203.09999999999914,
                    "velocity": 0.4330708661417323,
                    "duration": 0.5999999999999375
                },
                {
                    "name": "F#4",
                    "midi": 66,
                    "time": 203.09999999999914,
                    "velocity": 0.4330708661417323,
                    "duration": 0.5999999999999375
                },
                {
                    "name": "C#5",
                    "midi": 73,
                    "time": 203.24999999999915,
                    "velocity": 0.3464566929133858,
                    "duration": 0.07499999999998863
                },
                {
                    "name": "C#5",
                    "midi": 73,
                    "time": 203.39999999999912,
                    "velocity": 0.3464566929133858,
                    "duration": 0.07499999999998863
                },
                {
                    "name": "C#5",
                    "midi": 73,
                    "time": 203.5499999999991,
                    "velocity": 0.3464566929133858,
                    "duration": 0.07499999999998863
                },
                {
                    "name": "C#5",
                    "midi": 73,
                    "time": 203.69999999999908,
                    "velocity": 0.3464566929133858,
                    "duration": 0.07499999999998863
                },
                {
                    "name": "C#5",
                    "midi": 73,
                    "time": 203.84999999999906,
                    "velocity": 0.3464566929133858,
                    "duration": 0.07499999999998863
                },
                {
                    "name": "C#5",
                    "midi": 73,
                    "time": 203.99999999999903,
                    "velocity": 0.3464566929133858,
                    "duration": 0.07499999999998863
                },
                {
                    "name": "G#5",
                    "midi": 80,
                    "time": 204.149999999999,
                    "velocity": 0.3937007874015748,
                    "duration": 0.07499999999998863
                },
                {
                    "name": "G#4",
                    "midi": 68,
                    "time": 204.149999999999,
                    "velocity": 0.3937007874015748,
                    "duration": 0.07499999999998863
                },
                {
                    "name": "A4",
                    "midi": 69,
                    "time": 204.299999999999,
                    "velocity": 0.44881889763779526,
                    "duration": 0.5999999999999375
                },
                {
                    "name": "A5",
                    "midi": 81,
                    "time": 204.299999999999,
                    "velocity": 0.44881889763779526,
                    "duration": 0.5999999999999375
                },
                {
                    "name": "C#5",
                    "midi": 73,
                    "time": 204.449999999999,
                    "velocity": 0.33858267716535434,
                    "duration": 0.07499999999998863
                },
                {
                    "name": "C#5",
                    "midi": 73,
                    "time": 204.59999999999897,
                    "velocity": 0.3464566929133858,
                    "duration": 0.07499999999998863
                },
                {
                    "name": "C#5",
                    "midi": 73,
                    "time": 204.74999999999895,
                    "velocity": 0.3464566929133858,
                    "duration": 0.07499999999998863
                },
                {
                    "name": "F#5",
                    "midi": 78,
                    "time": 204.89999999999893,
                    "velocity": 0.4251968503937008,
                    "duration": 0.5999999999999375
                },
                {
                    "name": "F#4",
                    "midi": 66,
                    "time": 204.89999999999893,
                    "velocity": 0.4251968503937008,
                    "duration": 0.5999999999999375
                },
                {
                    "name": "C#5",
                    "midi": 73,
                    "time": 205.04999999999893,
                    "velocity": 0.3464566929133858,
                    "duration": 0.07499999999998863
                },
                {
                    "name": "C#5",
                    "midi": 73,
                    "time": 205.1999999999989,
                    "velocity": 0.3464566929133858,
                    "duration": 0.07499999999998863
                },
                {
                    "name": "C#5",
                    "midi": 73,
                    "time": 205.3499999999989,
                    "velocity": 0.3464566929133858,
                    "duration": 0.07499999999998863
                },
                {
                    "name": "C#6",
                    "midi": 85,
                    "time": 205.49999999999886,
                    "velocity": 0.44881889763779526,
                    "duration": 0.07499999999998863
                },
                {
                    "name": "C#5",
                    "midi": 73,
                    "time": 205.64999999999884,
                    "velocity": 0.33858267716535434,
                    "duration": 0.07499999999998863
                },
                {
                    "name": "C#5",
                    "midi": 73,
                    "time": 205.79999999999882,
                    "velocity": 0.3464566929133858,
                    "duration": 0.07499999999998863
                },
                {
                    "name": "C#5",
                    "midi": 73,
                    "time": 205.9499999999988,
                    "velocity": 0.3464566929133858,
                    "duration": 0.07499999999998863
                },
                {
                    "name": "C#6",
                    "midi": 85,
                    "time": 206.09999999999877,
                    "velocity": 0.4251968503937008,
                    "duration": 0.07499999999998863
                },
                {
                    "name": "C#5",
                    "midi": 73,
                    "time": 206.24999999999875,
                    "velocity": 0.3464566929133858,
                    "duration": 0.07499999999998863
                },
                {
                    "name": "C#5",
                    "midi": 73,
                    "time": 206.39999999999873,
                    "velocity": 0.3464566929133858,
                    "duration": 0.07499999999998863
                },
                {
                    "name": "C#5",
                    "midi": 73,
                    "time": 206.5499999999987,
                    "velocity": 0.3464566929133858,
                    "duration": 0.07499999999998863
                },
                {
                    "name": "C#6",
                    "midi": 85,
                    "time": 206.69999999999868,
                    "velocity": 0.44881889763779526,
                    "duration": 0.07499999999998863
                },
                {
                    "name": "C#5",
                    "midi": 73,
                    "time": 206.84999999999866,
                    "velocity": 0.33858267716535434,
                    "duration": 0.07499999999998863
                },
                {
                    "name": "C#5",
                    "midi": 73,
                    "time": 206.99999999999864,
                    "velocity": 0.3464566929133858,
                    "duration": 0.07499999999998863
                },
                {
                    "name": "C#5",
                    "midi": 73,
                    "time": 207.1499999999986,
                    "velocity": 0.3464566929133858,
                    "duration": 0.07499999999998863
                },
                {
                    "name": "C#6",
                    "midi": 85,
                    "time": 207.2999999999986,
                    "velocity": 0.4251968503937008,
                    "duration": 0.07499999999998863
                },
                {
                    "name": "C#5",
                    "midi": 73,
                    "time": 207.44999999999857,
                    "velocity": 0.3464566929133858,
                    "duration": 0.07499999999998863
                },
                {
                    "name": "C#5",
                    "midi": 73,
                    "time": 207.59999999999854,
                    "velocity": 0.3464566929133858,
                    "duration": 0.07499999999998863
                },
                {
                    "name": "C#5",
                    "midi": 73,
                    "time": 207.74999999999852,
                    "velocity": 0.3464566929133858,
                    "duration": 0.07499999999998863
                },
                {
                    "name": "C#6",
                    "midi": 85,
                    "time": 207.8999999999985,
                    "velocity": 0.44881889763779526,
                    "duration": 0.07499999999998863
                },
                {
                    "name": "C#5",
                    "midi": 73,
                    "time": 208.04999999999848,
                    "velocity": 0.33858267716535434,
                    "duration": 0.07499999999998863
                },
                {
                    "name": "C#5",
                    "midi": 73,
                    "time": 208.19999999999845,
                    "velocity": 0.3464566929133858,
                    "duration": 0.07499999999998863
                },
                {
                    "name": "C#5",
                    "midi": 73,
                    "time": 208.34999999999843,
                    "velocity": 0.3464566929133858,
                    "duration": 0.07499999999998863
                },
                {
                    "name": "C#6",
                    "midi": 85,
                    "time": 208.4999999999984,
                    "velocity": 0.4251968503937008,
                    "duration": 0.07499999999998863
                },
                {
                    "name": "C#5",
                    "midi": 73,
                    "time": 208.64999999999839,
                    "velocity": 0.3464566929133858,
                    "duration": 0.07499999999998863
                },
                {
                    "name": "C#5",
                    "midi": 73,
                    "time": 208.79999999999836,
                    "velocity": 0.3464566929133858,
                    "duration": 0.07499999999998863
                },
                {
                    "name": "C#5",
                    "midi": 73,
                    "time": 208.94999999999834,
                    "velocity": 0.3464566929133858,
                    "duration": 0.07499999999998863
                },
                {
                    "name": "C#6",
                    "midi": 85,
                    "time": 209.09999999999832,
                    "velocity": 0.44881889763779526,
                    "duration": 0.07499999999998863
                },
                {
                    "name": "C#5",
                    "midi": 73,
                    "time": 209.2499999999983,
                    "velocity": 0.33858267716535434,
                    "duration": 0.07499999999998863
                },
                {
                    "name": "C#5",
                    "midi": 73,
                    "time": 209.39999999999827,
                    "velocity": 0.3464566929133858,
                    "duration": 0.07499999999998863
                },
                {
                    "name": "C#5",
                    "midi": 73,
                    "time": 209.54999999999825,
                    "velocity": 0.3464566929133858,
                    "duration": 0.07499999999998863
                },
                {
                    "name": "C#6",
                    "midi": 85,
                    "time": 209.69999999999823,
                    "velocity": 0.4251968503937008,
                    "duration": 0.07499999999998863
                },
                {
                    "name": "C#5",
                    "midi": 73,
                    "time": 209.8499999999982,
                    "velocity": 0.3464566929133858,
                    "duration": 0.07499999999998863
                },
                {
                    "name": "C#5",
                    "midi": 73,
                    "time": 209.99999999999818,
                    "velocity": 0.3464566929133858,
                    "duration": 0.07499999999998863
                },
                {
                    "name": "C#5",
                    "midi": 73,
                    "time": 210.14999999999816,
                    "velocity": 0.3464566929133858,
                    "duration": 0.07499999999998863
                },
                {
                    "name": "C#6",
                    "midi": 85,
                    "time": 210.29999999999814,
                    "velocity": 0.44881889763779526,
                    "duration": 0.07499999999998863
                },
                {
                    "name": "C#5",
                    "midi": 73,
                    "time": 210.4499999999981,
                    "velocity": 0.33858267716535434,
                    "duration": 0.07499999999998863
                },
                {
                    "name": "C#5",
                    "midi": 73,
                    "time": 210.5999999999981,
                    "velocity": 0.3464566929133858,
                    "duration": 0.07499999999998863
                },
                {
                    "name": "C#5",
                    "midi": 73,
                    "time": 210.74999999999807,
                    "velocity": 0.3464566929133858,
                    "duration": 0.07499999999998863
                },
                {
                    "name": "C#6",
                    "midi": 85,
                    "time": 210.89999999999804,
                    "velocity": 0.4251968503937008,
                    "duration": 0.07499999999998863
                },
                {
                    "name": "C#5",
                    "midi": 73,
                    "time": 211.04999999999802,
                    "velocity": 0.3464566929133858,
                    "duration": 0.07499999999998863
                },
                {
                    "name": "C#5",
                    "midi": 73,
                    "time": 211.199999999998,
                    "velocity": 0.3464566929133858,
                    "duration": 0.07499999999998863
                },
                {
                    "name": "C#5",
                    "midi": 73,
                    "time": 211.34999999999798,
                    "velocity": 0.3464566929133858,
                    "duration": 0.07499999999998863
                },
                {
                    "name": "C#6",
                    "midi": 85,
                    "time": 211.49999999999795,
                    "velocity": 0.44881889763779526,
                    "duration": 0.07499999999998863
                },
                {
                    "name": "C#5",
                    "midi": 73,
                    "time": 211.64999999999793,
                    "velocity": 0.33858267716535434,
                    "duration": 0.07499999999998863
                },
                {
                    "name": "C#5",
                    "midi": 73,
                    "time": 211.7999999999979,
                    "velocity": 0.3464566929133858,
                    "duration": 0.07499999999998863
                },
                {
                    "name": "C#5",
                    "midi": 73,
                    "time": 211.94999999999789,
                    "velocity": 0.3464566929133858,
                    "duration": 0.07499999999998863
                },
                {
                    "name": "C#6",
                    "midi": 85,
                    "time": 212.09999999999786,
                    "velocity": 0.4251968503937008,
                    "duration": 0.07499999999998863
                },
                {
                    "name": "C#5",
                    "midi": 73,
                    "time": 212.24999999999784,
                    "velocity": 0.3464566929133858,
                    "duration": 0.07499999999998863
                },
                {
                    "name": "C#5",
                    "midi": 73,
                    "time": 212.39999999999782,
                    "velocity": 0.3464566929133858,
                    "duration": 0.07499999999998863
                },
                {
                    "name": "C#5",
                    "midi": 73,
                    "time": 212.5499999999978,
                    "velocity": 0.3464566929133858,
                    "duration": 0.07499999999998863
                },
                {
                    "name": "C#6",
                    "midi": 85,
                    "time": 212.69999999999777,
                    "velocity": 0.44881889763779526,
                    "duration": 0.07499999999998863
                },
                {
                    "name": "C#5",
                    "midi": 73,
                    "time": 212.84999999999775,
                    "velocity": 0.33858267716535434,
                    "duration": 0.07499999999998863
                },
                {
                    "name": "C#5",
                    "midi": 73,
                    "time": 212.99999999999773,
                    "velocity": 0.3464566929133858,
                    "duration": 0.07499999999998863
                },
                {
                    "name": "C#5",
                    "midi": 73,
                    "time": 213.1499999999977,
                    "velocity": 0.3464566929133858,
                    "duration": 0.07499999999998863
                },
                {
                    "name": "C#6",
                    "midi": 85,
                    "time": 213.29999999999768,
                    "velocity": 0.4251968503937008,
                    "duration": 0.07499999999998863
                },
                {
                    "name": "C#5",
                    "midi": 73,
                    "time": 213.44999999999766,
                    "velocity": 0.3464566929133858,
                    "duration": 0.07499999999998863
                },
                {
                    "name": "C#5",
                    "midi": 73,
                    "time": 213.59999999999764,
                    "velocity": 0.3464566929133858,
                    "duration": 0.07499999999998863
                },
                {
                    "name": "C#5",
                    "midi": 73,
                    "time": 213.7499999999976,
                    "velocity": 0.3464566929133858,
                    "duration": 0.07499999999998863
                },
                {
                    "name": "C#6",
                    "midi": 85,
                    "time": 213.8999999999976,
                    "velocity": 0.44881889763779526,
                    "duration": 0.07499999999998863
                },
                {
                    "name": "C#5",
                    "midi": 73,
                    "time": 214.04999999999757,
                    "velocity": 0.33858267716535434,
                    "duration": 0.07499999999998863
                },
                {
                    "name": "C#5",
                    "midi": 73,
                    "time": 214.19999999999754,
                    "velocity": 0.3464566929133858,
                    "duration": 0.07499999999998863
                },
                {
                    "name": "C#5",
                    "midi": 73,
                    "time": 214.34999999999752,
                    "velocity": 0.3464566929133858,
                    "duration": 0.07499999999998863
                },
                {
                    "name": "C#6",
                    "midi": 85,
                    "time": 214.4999999999975,
                    "velocity": 0.4251968503937008,
                    "duration": 0.07499999999998863
                },
                {
                    "name": "C#5",
                    "midi": 73,
                    "time": 214.64999999999748,
                    "velocity": 0.3464566929133858,
                    "duration": 0.07499999999998863
                },
                {
                    "name": "C#5",
                    "midi": 73,
                    "time": 214.79999999999745,
                    "velocity": 0.3464566929133858,
                    "duration": 0.07499999999998863
                },
                {
                    "name": "C#5",
                    "midi": 73,
                    "time": 214.94999999999743,
                    "velocity": 0.3464566929133858,
                    "duration": 0.07499999999998863
                },
                {
                    "name": "C#6",
                    "midi": 85,
                    "time": 215.0999999999974,
                    "velocity": 0.44881889763779526,
                    "duration": 0.07499999999998863
                },
                {
                    "name": "C#5",
                    "midi": 73,
                    "time": 215.24999999999739,
                    "velocity": 0.33858267716535434,
                    "duration": 0.07499999999998863
                },
                {
                    "name": "C#6",
                    "midi": 85,
                    "time": 215.39999999999736,
                    "velocity": 0.4015748031496063,
                    "duration": 0.07499999999998863
                },
                {
                    "name": "C#6",
                    "midi": 85,
                    "time": 215.54999999999734,
                    "velocity": 0.4015748031496063,
                    "duration": 0.07499999999998863
                },
                {
                    "name": "C#7",
                    "midi": 97,
                    "time": 215.69999999999732,
                    "velocity": 0.49606299212598426,
                    "duration": 0.07499999999998863
                },
                {
                    "name": "C#6",
                    "midi": 85,
                    "time": 215.8499999999973,
                    "velocity": 0.3464566929133858,
                    "duration": 0.07499999999998863
                },
                {
                    "name": "C#6",
                    "midi": 85,
                    "time": 215.99999999999727,
                    "velocity": 0.3464566929133858,
                    "duration": 0.07499999999998863
                },
                {
                    "name": "C#5",
                    "midi": 73,
                    "time": 216.14999999999725,
                    "velocity": 0.3464566929133858,
                    "duration": 0.07499999999998863
                },
                {
                    "name": "C#6",
                    "midi": 85,
                    "time": 216.29999999999723,
                    "velocity": 0.44881889763779526,
                    "duration": 0.07499999999998863
                },
                {
                    "name": "C#5",
                    "midi": 73,
                    "time": 216.4499999999972,
                    "velocity": 0.33858267716535434,
                    "duration": 0.07499999999998863
                },
                {
                    "name": "C#5",
                    "midi": 73,
                    "time": 216.59999999999718,
                    "velocity": 0.3464566929133858,
                    "duration": 0.07499999999998863
                },
                {
                    "name": "C#5",
                    "midi": 73,
                    "time": 216.74999999999716,
                    "velocity": 0.3464566929133858,
                    "duration": 0.07499999999998863
                },
                {
                    "name": "C#6",
                    "midi": 85,
                    "time": 216.89999999999714,
                    "velocity": 0.4330708661417323,
                    "duration": 0.07499999999998863
                },
                {
                    "name": "C#5",
                    "midi": 73,
                    "time": 217.0499999999971,
                    "velocity": 0.3543307086614173,
                    "duration": 0.07499999999998863
                },
                {
                    "name": "C#5",
                    "midi": 73,
                    "time": 217.1999999999971,
                    "velocity": 0.3543307086614173,
                    "duration": 0.07499999999998863
                },
                {
                    "name": "C#5",
                    "midi": 73,
                    "time": 217.34999999999707,
                    "velocity": 0.3543307086614173,
                    "duration": 0.07499999999998863
                },
                {
                    "name": "C#6",
                    "midi": 85,
                    "time": 217.49999999999704,
                    "velocity": 0.4645669291338583,
                    "duration": 0.07499999999998863
                },
                {
                    "name": "C#5",
                    "midi": 73,
                    "time": 217.64999999999702,
                    "velocity": 0.3464566929133858,
                    "duration": 0.07499999999998863
                },
                {
                    "name": "C#6",
                    "midi": 85,
                    "time": 217.799999999997,
                    "velocity": 0.41732283464566927,
                    "duration": 0.07499999999998863
                },
                {
                    "name": "C#6",
                    "midi": 85,
                    "time": 217.94999999999698,
                    "velocity": 0.41732283464566927,
                    "duration": 0.07499999999998863
                },
                {
                    "name": "C#7",
                    "midi": 97,
                    "time": 218.09999999999695,
                    "velocity": 0.5118110236220472,
                    "duration": 0.07499999999998863
                },
                {
                    "name": "C#6",
                    "midi": 85,
                    "time": 218.24999999999693,
                    "velocity": 0.36220472440944884,
                    "duration": 0.07499999999998863
                },
                {
                    "name": "C#6",
                    "midi": 85,
                    "time": 218.3999999999969,
                    "velocity": 0.3700787401574803,
                    "duration": 0.07499999999998863
                },
                {
                    "name": "C#5",
                    "midi": 73,
                    "time": 218.54999999999688,
                    "velocity": 0.3700787401574803,
                    "duration": 0.07499999999998863
                },
                {
                    "name": "C#6",
                    "midi": 85,
                    "time": 218.69999999999686,
                    "velocity": 0.47244094488188976,
                    "duration": 0.07499999999998863
                },
                {
                    "name": "C#5",
                    "midi": 73,
                    "time": 218.84999999999684,
                    "velocity": 0.36220472440944884,
                    "duration": 0.07499999999998863
                },
                {
                    "name": "C#5",
                    "midi": 73,
                    "time": 218.99999999999682,
                    "velocity": 0.3700787401574803,
                    "duration": 0.07499999999998863
                },
                {
                    "name": "C#5",
                    "midi": 73,
                    "time": 219.1499999999968,
                    "velocity": 0.3700787401574803,
                    "duration": 0.07499999999998863
                },
                {
                    "name": "C#6",
                    "midi": 85,
                    "time": 219.29999999999677,
                    "velocity": 0.4645669291338583,
                    "duration": 0.07499999999998863
                },
                {
                    "name": "C#5",
                    "midi": 73,
                    "time": 219.44999999999675,
                    "velocity": 0.3700787401574803,
                    "duration": 0.07499999999998863
                },
                {
                    "name": "C#5",
                    "midi": 73,
                    "time": 219.59999999999673,
                    "velocity": 0.3779527559055118,
                    "duration": 0.07499999999998863
                },
                {
                    "name": "C#5",
                    "midi": 73,
                    "time": 219.7499999999967,
                    "velocity": 0.3779527559055118,
                    "duration": 0.07499999999998863
                },
                {
                    "name": "C#6",
                    "midi": 85,
                    "time": 219.89999999999668,
                    "velocity": 0.49606299212598426,
                    "duration": 0.07499999999998863
                },
                {
                    "name": "C#5",
                    "midi": 73,
                    "time": 220.04999999999666,
                    "velocity": 0.3779527559055118,
                    "duration": 0.07499999999998863
                },
                {
                    "name": "C#6",
                    "midi": 85,
                    "time": 220.19999999999663,
                    "velocity": 0.47244094488188976,
                    "duration": 0.07499999999998863
                },
                {
                    "name": "C#6",
                    "midi": 85,
                    "time": 220.3499999999966,
                    "velocity": 0.47244094488188976,
                    "duration": 0.07499999999998863
                },
                {
                    "name": "C#7",
                    "midi": 97,
                    "time": 220.4999999999966,
                    "velocity": 0.5984251968503937,
                    "duration": 0.07499999999998863
                },
                {
                    "name": "C#6",
                    "midi": 85,
                    "time": 220.64999999999657,
                    "velocity": 0.3858267716535433,
                    "duration": 0.07499999999998863
                },
                {
                    "name": "C#6",
                    "midi": 85,
                    "time": 220.79999999999654,
                    "velocity": 0.3858267716535433,
                    "duration": 0.07499999999998863
                },
                {
                    "name": "C#5",
                    "midi": 73,
                    "time": 220.94999999999652,
                    "velocity": 0.3858267716535433,
                    "duration": 0.07499999999998863
                },
                {
                    "name": "C#6",
                    "midi": 85,
                    "time": 221.0999999999965,
                    "velocity": 0.5118110236220472,
                    "duration": 0.07499999999998863
                },
                {
                    "name": "C#5",
                    "midi": 73,
                    "time": 221.24999999999648,
                    "velocity": 0.3779527559055118,
                    "duration": 0.07499999999998863
                },
                {
                    "name": "C#5",
                    "midi": 73,
                    "time": 221.39999999999645,
                    "velocity": 0.3858267716535433,
                    "duration": 0.07499999999998863
                },
                {
                    "name": "C#5",
                    "midi": 73,
                    "time": 221.54999999999643,
                    "velocity": 0.3937007874015748,
                    "duration": 0.07499999999998863
                },
                {
                    "name": "C#6",
                    "midi": 85,
                    "time": 221.6999999999964,
                    "velocity": 0.4881889763779528,
                    "duration": 0.07499999999998863
                },
                {
                    "name": "C#5",
                    "midi": 73,
                    "time": 221.84999999999638,
                    "velocity": 0.4015748031496063,
                    "duration": 0.07499999999998863
                },
                {
                    "name": "C#5",
                    "midi": 73,
                    "time": 221.99999999999636,
                    "velocity": 0.4015748031496063,
                    "duration": 0.07499999999998863
                },
                {
                    "name": "C#5",
                    "midi": 73,
                    "time": 222.14999999999634,
                    "velocity": 0.4015748031496063,
                    "duration": 0.07499999999998863
                },
                {
                    "name": "C#6",
                    "midi": 85,
                    "time": 222.29999999999632,
                    "velocity": 0.5275590551181102,
                    "duration": 0.07499999999998863
                },
                {
                    "name": "C#5",
                    "midi": 73,
                    "time": 222.4499999999963,
                    "velocity": 0.3937007874015748,
                    "duration": 0.07499999999998863
                },
                {
                    "name": "C#6",
                    "midi": 85,
                    "time": 222.59999999999627,
                    "velocity": 0.5039370078740157,
                    "duration": 0.07499999999998863
                },
                {
                    "name": "C#6",
                    "midi": 85,
                    "time": 222.74999999999625,
                    "velocity": 0.49606299212598426,
                    "duration": 0.07499999999998863
                },
                {
                    "name": "C#7",
                    "midi": 97,
                    "time": 222.89999999999623,
                    "velocity": 0.6456692913385826,
                    "duration": 0.07499999999998863
                },
                {
                    "name": "C#6",
                    "midi": 85,
                    "time": 223.0499999999962,
                    "velocity": 0.48031496062992124,
                    "duration": 0.07499999999998863
                },
                {
                    "name": "C#6",
                    "midi": 85,
                    "time": 223.19999999999618,
                    "velocity": 0.48031496062992124,
                    "duration": 0.07499999999998863
                },
                {
                    "name": "C#5",
                    "midi": 73,
                    "time": 223.34999999999616,
                    "velocity": 0.4094488188976378,
                    "duration": 0.07499999999998863
                },
                {
                    "name": "C#6",
                    "midi": 85,
                    "time": 223.49999999999613,
                    "velocity": 0.5433070866141733,
                    "duration": 0.07499999999998863
                },
                {
                    "name": "C#5",
                    "midi": 73,
                    "time": 223.6499999999961,
                    "velocity": 0.4015748031496063,
                    "duration": 0.07499999999998863
                },
                {
                    "name": "C#5",
                    "midi": 73,
                    "time": 223.7999999999961,
                    "velocity": 0.41732283464566927,
                    "duration": 0.07499999999998863
                },
                {
                    "name": "C#5",
                    "midi": 73,
                    "time": 223.94999999999607,
                    "velocity": 0.41732283464566927,
                    "duration": 0.07499999999998863
                },
                {
                    "name": "C#6",
                    "midi": 85,
                    "time": 224.09999999999604,
                    "velocity": 0.5196850393700787,
                    "duration": 0.07499999999998863
                },
                {
                    "name": "C#5",
                    "midi": 73,
                    "time": 224.24999999999602,
                    "velocity": 0.4251968503937008,
                    "duration": 0.07499999999998863
                },
                {
                    "name": "C#5",
                    "midi": 73,
                    "time": 224.399999999996,
                    "velocity": 0.4251968503937008,
                    "duration": 0.07499999999998863
                },
                {
                    "name": "C#5",
                    "midi": 73,
                    "time": 224.54999999999598,
                    "velocity": 0.4251968503937008,
                    "duration": 0.07499999999998863
                },
                {
                    "name": "C#6",
                    "midi": 85,
                    "time": 224.69999999999595,
                    "velocity": 0.5590551181102362,
                    "duration": 0.07499999999998863
                },
                {
                    "name": "C#5",
                    "midi": 73,
                    "time": 224.84999999999593,
                    "velocity": 0.41732283464566927,
                    "duration": 0.07499999999998863
                },
                {
                    "name": "C#6",
                    "midi": 85,
                    "time": 224.9999999999959,
                    "velocity": 0.5354330708661418,
                    "duration": 0.07499999999998863
                },
                {
                    "name": "C#6",
                    "midi": 85,
                    "time": 225.14999999999588,
                    "velocity": 0.5354330708661418,
                    "duration": 0.07499999999998863
                },
                {
                    "name": "C#7",
                    "midi": 97,
                    "time": 225.29999999999586,
                    "velocity": 0.6535433070866141,
                    "duration": 0.07499999999998863
                },
                {
                    "name": "C#6",
                    "midi": 85,
                    "time": 225.44999999999584,
                    "velocity": 0.5039370078740157,
                    "duration": 0.07499999999998863
                },
                {
                    "name": "C#6",
                    "midi": 85,
                    "time": 225.59999999999582,
                    "velocity": 0.5039370078740157,
                    "duration": 0.07499999999998863
                },
                {
                    "name": "C#5",
                    "midi": 73,
                    "time": 225.7499999999958,
                    "velocity": 0.4409448818897638,
                    "duration": 0.07499999999998863
                },
                {
                    "name": "C#6",
                    "midi": 85,
                    "time": 225.89999999999577,
                    "velocity": 0.5826771653543307,
                    "duration": 0.07499999999998863
                },
                {
                    "name": "C#5",
                    "midi": 73,
                    "time": 226.04999999999575,
                    "velocity": 0.4409448818897638,
                    "duration": 0.07499999999998863
                },
                {
                    "name": "C#6",
                    "midi": 85,
                    "time": 226.19999999999573,
                    "velocity": 0.5118110236220472,
                    "duration": 0.07499999999998863
                },
                {
                    "name": "C#6",
                    "midi": 85,
                    "time": 226.3499999999957,
                    "velocity": 0.5118110236220472,
                    "duration": 0.07499999999998863
                },
                {
                    "name": "C#7",
                    "midi": 97,
                    "time": 226.49999999999568,
                    "velocity": 0.6535433070866141,
                    "duration": 0.07499999999998863
                },
                {
                    "name": "C#6",
                    "midi": 85,
                    "time": 226.64999999999566,
                    "velocity": 0.5039370078740157,
                    "duration": 0.07499999999998863
                },
                {
                    "name": "C#6",
                    "midi": 85,
                    "time": 226.79999999999563,
                    "velocity": 0.5039370078740157,
                    "duration": 0.07499999999998863
                },
                {
                    "name": "C#5",
                    "midi": 73,
                    "time": 226.9499999999956,
                    "velocity": 0.4645669291338583,
                    "duration": 0.07499999999998863
                },
                {
                    "name": "C#6",
                    "midi": 85,
                    "time": 227.0999999999956,
                    "velocity": 0.6062992125984252,
                    "duration": 0.07499999999998863
                },
                {
                    "name": "C#5",
                    "midi": 73,
                    "time": 227.24999999999557,
                    "velocity": 0.4566929133858268,
                    "duration": 0.07499999999998863
                },
                {
                    "name": "C#6",
                    "midi": 85,
                    "time": 227.39999999999554,
                    "velocity": 0.5669291338582677,
                    "duration": 0.07499999999998863
                },
                {
                    "name": "C#6",
                    "midi": 85,
                    "time": 227.54999999999552,
                    "velocity": 0.5669291338582677,
                    "duration": 0.07499999999998863
                },
                {
                    "name": "C#7",
                    "midi": 97,
                    "time": 227.6999999999955,
                    "velocity": 0.7244094488188977,
                    "duration": 0.07499999999998863
                },
                {
                    "name": "C#6",
                    "midi": 85,
                    "time": 227.84999999999548,
                    "velocity": 0.5354330708661418,
                    "duration": 0.07499999999998863
                },
                {
                    "name": "C#6",
                    "midi": 85,
                    "time": 227.99999999999545,
                    "velocity": 0.5354330708661418,
                    "duration": 0.07499999999998863
                },
                {
                    "name": "C#5",
                    "midi": 73,
                    "time": 228.14999999999543,
                    "velocity": 0.4881889763779528,
                    "duration": 0.07499999999998863
                },
                {
                    "name": "C#6",
                    "midi": 85,
                    "time": 228.2999999999954,
                    "velocity": 0.6299212598425197,
                    "duration": 0.07499999999998863
                },
                {
                    "name": "C#5",
                    "midi": 73,
                    "time": 228.44999999999538,
                    "velocity": 0.48031496062992124,
                    "duration": 0.07499999999998863
                },
                {
                    "name": "C#6",
                    "midi": 85,
                    "time": 228.59999999999536,
                    "velocity": 0.5669291338582677,
                    "duration": 0.07499999999998863
                },
                {
                    "name": "C#6",
                    "midi": 85,
                    "time": 228.74999999999534,
                    "velocity": 0.5669291338582677,
                    "duration": 0.07499999999998863
                },
                {
                    "name": "C#7",
                    "midi": 97,
                    "time": 228.89999999999532,
                    "velocity": 0.7322834645669292,
                    "duration": 0.07499999999998863
                },
                {
                    "name": "C#6",
                    "midi": 85,
                    "time": 229.0499999999953,
                    "velocity": 0.5984251968503937,
                    "duration": 0.07499999999998863
                },
                {
                    "name": "C#6",
                    "midi": 85,
                    "time": 229.19999999999527,
                    "velocity": 0.5984251968503937,
                    "duration": 0.07499999999998863
                },
                {
                    "name": "C#5",
                    "midi": 73,
                    "time": 229.34999999999525,
                    "velocity": 0.49606299212598426,
                    "duration": 0.07499999999998863
                },
                {
                    "name": "C6",
                    "midi": 84,
                    "time": 229.49999999999523,
                    "velocity": 0.6692913385826772,
                    "duration": 0.07499999999998863
                },
                {
                    "name": "C5",
                    "midi": 72,
                    "time": 229.49999999999523,
                    "velocity": 0.5669291338582677,
                    "duration": 0.07499999999998863
                },
                {
                    "name": "F5",
                    "midi": 77,
                    "time": 229.49999999999523,
                    "velocity": 0.5669291338582677,
                    "duration": 0.07499999999998863
                },
                {
                    "name": "C#6",
                    "midi": 85,
                    "time": 229.7999999999952,
                    "velocity": 0.6377952755905512,
                    "duration": 0.15000000000000568
                },
                {
                    "name": "C#5",
                    "midi": 73,
                    "time": 229.7999999999952,
                    "velocity": 0.5354330708661418,
                    "duration": 0.15000000000000568
                },
                {
                    "name": "G#5",
                    "midi": 80,
                    "time": 229.7999999999952,
                    "velocity": 0.5354330708661418,
                    "duration": 0.15000000000000568
                },
                {
                    "name": "B5",
                    "midi": 83,
                    "time": 230.09999999999522,
                    "velocity": 0.6692913385826772,
                    "duration": 0.44999999999998863
                },
                {
                    "name": "F5",
                    "midi": 77,
                    "time": 230.09999999999522,
                    "velocity": 0.5669291338582677,
                    "duration": 0.44999999999998863
                },
                {
                    "name": "B4",
                    "midi": 71,
                    "time": 230.09999999999522,
                    "velocity": 0.5669291338582677,
                    "duration": 0.44999999999998863
                },
                {
                    "name": "C#6",
                    "midi": 85,
                    "time": 230.5499999999952,
                    "velocity": 0.6220472440944882,
                    "duration": 0.15000000000000568
                },
                {
                    "name": "C#5",
                    "midi": 73,
                    "time": 230.5499999999952,
                    "velocity": 0.5275590551181102,
                    "duration": 0.15000000000000568
                },
                {
                    "name": "C5",
                    "midi": 72,
                    "time": 230.6999999999952,
                    "velocity": 0.5669291338582677,
                    "duration": 0.07499999999998863
                },
                {
                    "name": "F5",
                    "midi": 77,
                    "time": 230.6999999999952,
                    "velocity": 0.5669291338582677,
                    "duration": 0.07499999999998863
                },
                {
                    "name": "C6",
                    "midi": 84,
                    "time": 230.6999999999952,
                    "velocity": 0.6692913385826772,
                    "duration": 0.07499999999998863
                },
                {
                    "name": "C#6",
                    "midi": 85,
                    "time": 230.9999999999952,
                    "velocity": 0.6377952755905512,
                    "duration": 0.15000000000000568
                },
                {
                    "name": "C#5",
                    "midi": 73,
                    "time": 230.9999999999952,
                    "velocity": 0.5354330708661418,
                    "duration": 0.15000000000000568
                },
                {
                    "name": "G#5",
                    "midi": 80,
                    "time": 230.9999999999952,
                    "velocity": 0.5354330708661418,
                    "duration": 0.15000000000000568
                },
                {
                    "name": "F5",
                    "midi": 77,
                    "time": 231.2999999999952,
                    "velocity": 0.5669291338582677,
                    "duration": 0.44999999999998863
                },
                {
                    "name": "B4",
                    "midi": 71,
                    "time": 231.2999999999952,
                    "velocity": 0.5669291338582677,
                    "duration": 0.44999999999998863
                },
                {
                    "name": "B5",
                    "midi": 83,
                    "time": 231.2999999999952,
                    "velocity": 0.6692913385826772,
                    "duration": 0.44999999999998863
                },
                {
                    "name": "C#5",
                    "midi": 73,
                    "time": 231.7499999999952,
                    "velocity": 0.5275590551181102,
                    "duration": 0.15000000000000568
                },
                {
                    "name": "C#6",
                    "midi": 85,
                    "time": 231.7499999999952,
                    "velocity": 0.6220472440944882,
                    "duration": 0.15000000000000568
                },
                {
                    "name": "A5",
                    "midi": 81,
                    "time": 231.8999999999952,
                    "velocity": 0.5669291338582677,
                    "duration": 0.07499999999998863
                },
                {
                    "name": "C5",
                    "midi": 72,
                    "time": 231.8999999999952,
                    "velocity": 0.5669291338582677,
                    "duration": 0.07499999999998863
                },
                {
                    "name": "C6",
                    "midi": 84,
                    "time": 231.8999999999952,
                    "velocity": 0.6692913385826772,
                    "duration": 0.07499999999998863
                },
                {
                    "name": "C#5",
                    "midi": 73,
                    "time": 232.19999999999519,
                    "velocity": 0.5354330708661418,
                    "duration": 0.15000000000000568
                },
                {
                    "name": "C#6",
                    "midi": 85,
                    "time": 232.19999999999519,
                    "velocity": 0.6377952755905512,
                    "duration": 0.15000000000000568
                },
                {
                    "name": "A#5",
                    "midi": 82,
                    "time": 232.19999999999519,
                    "velocity": 0.5354330708661418,
                    "duration": 0.15000000000000568
                },
                {
                    "name": "A#4",
                    "midi": 70,
                    "time": 232.4999999999952,
                    "velocity": 0.5669291338582677,
                    "duration": 0.44999999999998863
                },
                {
                    "name": "F#5",
                    "midi": 78,
                    "time": 232.4999999999952,
                    "velocity": 0.5669291338582677,
                    "duration": 0.44999999999998863
                },
                {
                    "name": "A#5",
                    "midi": 82,
                    "time": 232.4999999999952,
                    "velocity": 0.6692913385826772,
                    "duration": 0.44999999999998863
                },
                {
                    "name": "C#6",
                    "midi": 85,
                    "time": 232.94999999999519,
                    "velocity": 0.6220472440944882,
                    "duration": 0.15000000000000568
                },
                {
                    "name": "C#5",
                    "midi": 73,
                    "time": 232.94999999999519,
                    "velocity": 0.5275590551181102,
                    "duration": 0.15000000000000568
                },
                {
                    "name": "A#5",
                    "midi": 82,
                    "time": 232.94999999999519,
                    "velocity": 0.5275590551181102,
                    "duration": 0.15000000000000568
                },
                {
                    "name": "C6",
                    "midi": 84,
                    "time": 233.0999999999952,
                    "velocity": 0.6692913385826772,
                    "duration": 0.07499999999998863
                },
                {
                    "name": "A5",
                    "midi": 81,
                    "time": 233.0999999999952,
                    "velocity": 0.5669291338582677,
                    "duration": 0.07499999999998863
                },
                {
                    "name": "C5",
                    "midi": 72,
                    "time": 233.0999999999952,
                    "velocity": 0.5669291338582677,
                    "duration": 0.07499999999998863
                },
                {
                    "name": "A#5",
                    "midi": 82,
                    "time": 233.39999999999517,
                    "velocity": 0.5354330708661418,
                    "duration": 0.15000000000000568
                },
                {
                    "name": "C#6",
                    "midi": 85,
                    "time": 233.39999999999517,
                    "velocity": 0.6377952755905512,
                    "duration": 0.15000000000000568
                },
                {
                    "name": "C#5",
                    "midi": 73,
                    "time": 233.39999999999517,
                    "velocity": 0.5354330708661418,
                    "duration": 0.15000000000000568
                },
                {
                    "name": "F#5",
                    "midi": 78,
                    "time": 233.69999999999519,
                    "velocity": 0.5669291338582677,
                    "duration": 0.44999999999998863
                },
                {
                    "name": "A#5",
                    "midi": 82,
                    "time": 233.69999999999519,
                    "velocity": 0.6692913385826772,
                    "duration": 0.44999999999998863
                },
                {
                    "name": "A#4",
                    "midi": 70,
                    "time": 233.69999999999519,
                    "velocity": 0.5669291338582677,
                    "duration": 0.44999999999998863
                },
                {
                    "name": "C#5",
                    "midi": 73,
                    "time": 234.14999999999517,
                    "velocity": 0.5275590551181102,
                    "duration": 0.15000000000000568
                },
                {
                    "name": "C#6",
                    "midi": 85,
                    "time": 234.14999999999517,
                    "velocity": 0.6220472440944882,
                    "duration": 0.15000000000000568
                },
                {
                    "name": "C6",
                    "midi": 84,
                    "time": 234.29999999999518,
                    "velocity": 0.6692913385826772,
                    "duration": 0.07499999999998863
                },
                {
                    "name": "C5",
                    "midi": 72,
                    "time": 234.29999999999518,
                    "velocity": 0.5669291338582677,
                    "duration": 0.07499999999998863
                },
                {
                    "name": "C#5",
                    "midi": 73,
                    "time": 234.59999999999516,
                    "velocity": 0.5354330708661418,
                    "duration": 0.15000000000000568
                },
                {
                    "name": "G#5",
                    "midi": 80,
                    "time": 234.59999999999516,
                    "velocity": 0.5354330708661418,
                    "duration": 0.15000000000000568
                },
                {
                    "name": "C#6",
                    "midi": 85,
                    "time": 234.59999999999516,
                    "velocity": 0.6377952755905512,
                    "duration": 0.15000000000000568
                },
                {
                    "name": "D#6",
                    "midi": 87,
                    "time": 234.89999999999517,
                    "velocity": 0.6692913385826772,
                    "duration": 0.44999999999998863
                },
                {
                    "name": "B5",
                    "midi": 83,
                    "time": 234.89999999999517,
                    "velocity": 0.5669291338582677,
                    "duration": 0.44999999999998863
                },
                {
                    "name": "D#5",
                    "midi": 75,
                    "time": 234.89999999999517,
                    "velocity": 0.5669291338582677,
                    "duration": 0.44999999999998863
                },
                {
                    "name": "C#5",
                    "midi": 73,
                    "time": 235.34999999999516,
                    "velocity": 0.5275590551181102,
                    "duration": 0.15000000000000568
                },
                {
                    "name": "C#6",
                    "midi": 85,
                    "time": 235.34999999999516,
                    "velocity": 0.6220472440944882,
                    "duration": 0.15000000000000568
                },
                {
                    "name": "G#5",
                    "midi": 80,
                    "time": 235.34999999999516,
                    "velocity": 0.5275590551181102,
                    "duration": 0.15000000000000568
                },
                {
                    "name": "C5",
                    "midi": 72,
                    "time": 235.49999999999517,
                    "velocity": 0.5669291338582677,
                    "duration": 0.07499999999998863
                },
                {
                    "name": "C6",
                    "midi": 84,
                    "time": 235.49999999999517,
                    "velocity": 0.6692913385826772,
                    "duration": 0.07499999999998863
                },
                {
                    "name": "C#5",
                    "midi": 73,
                    "time": 235.79999999999515,
                    "velocity": 0.5354330708661418,
                    "duration": 0.15000000000000568
                },
                {
                    "name": "C#6",
                    "midi": 85,
                    "time": 235.79999999999515,
                    "velocity": 0.6377952755905512,
                    "duration": 0.15000000000000568
                },
                {
                    "name": "G#5",
                    "midi": 80,
                    "time": 235.79999999999515,
                    "velocity": 0.5354330708661418,
                    "duration": 0.15000000000000568
                },
                {
                    "name": "D#5",
                    "midi": 75,
                    "time": 236.09999999999516,
                    "velocity": 0.5669291338582677,
                    "duration": 0.44999999999998863
                },
                {
                    "name": "D#6",
                    "midi": 87,
                    "time": 236.09999999999516,
                    "velocity": 0.6692913385826772,
                    "duration": 0.44999999999998863
                },
                {
                    "name": "B5",
                    "midi": 83,
                    "time": 236.09999999999516,
                    "velocity": 0.5669291338582677,
                    "duration": 0.44999999999998863
                },
                {
                    "name": "C#5",
                    "midi": 73,
                    "time": 236.54999999999515,
                    "velocity": 0.5275590551181102,
                    "duration": 0.15000000000000568
                },
                {
                    "name": "G#5",
                    "midi": 80,
                    "time": 236.54999999999515,
                    "velocity": 0.5275590551181102,
                    "duration": 0.15000000000000568
                },
                {
                    "name": "C#6",
                    "midi": 85,
                    "time": 236.54999999999515,
                    "velocity": 0.6220472440944882,
                    "duration": 0.15000000000000568
                },
                {
                    "name": "A5",
                    "midi": 81,
                    "time": 236.69999999999516,
                    "velocity": 0.5669291338582677,
                    "duration": 0.07499999999998863
                },
                {
                    "name": "C6",
                    "midi": 84,
                    "time": 236.69999999999516,
                    "velocity": 0.6692913385826772,
                    "duration": 0.07499999999998863
                },
                {
                    "name": "C5",
                    "midi": 72,
                    "time": 236.69999999999516,
                    "velocity": 0.5669291338582677,
                    "duration": 0.07499999999998863
                },
                {
                    "name": "A#5",
                    "midi": 82,
                    "time": 236.99999999999514,
                    "velocity": 0.5354330708661418,
                    "duration": 0.15000000000000568
                },
                {
                    "name": "C#5",
                    "midi": 73,
                    "time": 236.99999999999514,
                    "velocity": 0.5354330708661418,
                    "duration": 0.15000000000000568
                },
                {
                    "name": "C#6",
                    "midi": 85,
                    "time": 236.99999999999514,
                    "velocity": 0.6377952755905512,
                    "duration": 0.15000000000000568
                },
                {
                    "name": "F#6",
                    "midi": 90,
                    "time": 237.29999999999515,
                    "velocity": 0.6692913385826772,
                    "duration": 0.44999999999998863
                },
                {
                    "name": "A#5",
                    "midi": 82,
                    "time": 237.29999999999515,
                    "velocity": 0.5669291338582677,
                    "duration": 0.44999999999998863
                },
                {
                    "name": "F#5",
                    "midi": 78,
                    "time": 237.29999999999515,
                    "velocity": 0.5669291338582677,
                    "duration": 0.44999999999998863
                },
                {
                    "name": "C#6",
                    "midi": 85,
                    "time": 237.74999999999514,
                    "velocity": 0.6220472440944882,
                    "duration": 0.15000000000000568
                },
                {
                    "name": "C#5",
                    "midi": 73,
                    "time": 237.74999999999514,
                    "velocity": 0.5275590551181102,
                    "duration": 0.15000000000000568
                },
                {
                    "name": "C6",
                    "midi": 84,
                    "time": 237.89999999999515,
                    "velocity": 0.6692913385826772,
                    "duration": 0.07499999999998863
                },
                {
                    "name": "C5",
                    "midi": 72,
                    "time": 237.89999999999515,
                    "velocity": 0.5669291338582677,
                    "duration": 0.07499999999998863
                },
                {
                    "name": "A5",
                    "midi": 81,
                    "time": 237.89999999999515,
                    "velocity": 0.5669291338582677,
                    "duration": 0.07499999999998863
                },
                {
                    "name": "C#5",
                    "midi": 73,
                    "time": 238.19999999999513,
                    "velocity": 0.5354330708661418,
                    "duration": 0.15000000000000568
                },
                {
                    "name": "C#6",
                    "midi": 85,
                    "time": 238.19999999999513,
                    "velocity": 0.6377952755905512,
                    "duration": 0.15000000000000568
                },
                {
                    "name": "A#5",
                    "midi": 82,
                    "time": 238.19999999999513,
                    "velocity": 0.5354330708661418,
                    "duration": 0.15000000000000568
                },
                {
                    "name": "F#6",
                    "midi": 90,
                    "time": 238.49999999999514,
                    "velocity": 0.6692913385826772,
                    "duration": 0.44999999999998863
                },
                {
                    "name": "A#5",
                    "midi": 82,
                    "time": 238.49999999999514,
                    "velocity": 0.5669291338582677,
                    "duration": 0.44999999999998863
                },
                {
                    "name": "F#5",
                    "midi": 78,
                    "time": 238.49999999999514,
                    "velocity": 0.5669291338582677,
                    "duration": 0.44999999999998863
                },
                {
                    "name": "C#6",
                    "midi": 85,
                    "time": 238.94999999999513,
                    "velocity": 0.5669291338582677,
                    "duration": 0.15000000000000568
                },
                {
                    "name": "C#5",
                    "midi": 73,
                    "time": 238.94999999999513,
                    "velocity": 0.48031496062992124,
                    "duration": 0.15000000000000568
                },
                {
                    "name": "C5",
                    "midi": 72,
                    "time": 239.09999999999513,
                    "velocity": 0.4094488188976378,
                    "duration": 0.07499999999998863
                },
                {
                    "name": "F5",
                    "midi": 77,
                    "time": 239.09999999999513,
                    "velocity": 0.4094488188976378,
                    "duration": 0.07499999999998863
                },
                {
                    "name": "C6",
                    "midi": 84,
                    "time": 239.09999999999513,
                    "velocity": 0.4881889763779528,
                    "duration": 0.07499999999998863
                },
                {
                    "name": "C#6",
                    "midi": 85,
                    "time": 239.39999999999512,
                    "velocity": 0.4645669291338583,
                    "duration": 0.15000000000000568
                },
                {
                    "name": "G#5",
                    "midi": 80,
                    "time": 239.39999999999512,
                    "velocity": 0.3858267716535433,
                    "duration": 0.15000000000000568
                },
                {
                    "name": "C#5",
                    "midi": 73,
                    "time": 239.39999999999512,
                    "velocity": 0.3858267716535433,
                    "duration": 0.15000000000000568
                },
                {
                    "name": "B5",
                    "midi": 83,
                    "time": 239.69999999999513,
                    "velocity": 0.4881889763779528,
                    "duration": 0.44999999999998863
                },
                {
                    "name": "B4",
                    "midi": 71,
                    "time": 239.69999999999513,
                    "velocity": 0.4094488188976378,
                    "duration": 0.44999999999998863
                },
                {
                    "name": "F5",
                    "midi": 77,
                    "time": 239.69999999999513,
                    "velocity": 0.4094488188976378,
                    "duration": 0.44999999999998863
                },
                {
                    "name": "C#6",
                    "midi": 85,
                    "time": 240.14999999999512,
                    "velocity": 0.44881889763779526,
                    "duration": 0.15000000000000568
                },
                {
                    "name": "C#5",
                    "midi": 73,
                    "time": 240.14999999999512,
                    "velocity": 0.3779527559055118,
                    "duration": 0.15000000000000568
                },
                {
                    "name": "F5",
                    "midi": 77,
                    "time": 240.29999999999512,
                    "velocity": 0.4094488188976378,
                    "duration": 0.07499999999998863
                },
                {
                    "name": "C5",
                    "midi": 72,
                    "time": 240.29999999999512,
                    "velocity": 0.4094488188976378,
                    "duration": 0.07499999999998863
                },
                {
                    "name": "C6",
                    "midi": 84,
                    "time": 240.29999999999512,
                    "velocity": 0.4881889763779528,
                    "duration": 0.07499999999998863
                },
                {
                    "name": "C#5",
                    "midi": 73,
                    "time": 240.5999999999951,
                    "velocity": 0.3858267716535433,
                    "duration": 0.15000000000000568
                },
                {
                    "name": "G#5",
                    "midi": 80,
                    "time": 240.5999999999951,
                    "velocity": 0.3858267716535433,
                    "duration": 0.15000000000000568
                },
                {
                    "name": "C#6",
                    "midi": 85,
                    "time": 240.5999999999951,
                    "velocity": 0.4645669291338583,
                    "duration": 0.15000000000000568
                },
                {
                    "name": "B4",
                    "midi": 71,
                    "time": 240.89999999999512,
                    "velocity": 0.4094488188976378,
                    "duration": 0.44999999999998863
                },
                {
                    "name": "B5",
                    "midi": 83,
                    "time": 240.89999999999512,
                    "velocity": 0.4881889763779528,
                    "duration": 0.44999999999998863
                },
                {
                    "name": "F5",
                    "midi": 77,
                    "time": 240.89999999999512,
                    "velocity": 0.4094488188976378,
                    "duration": 0.44999999999998863
                },
                {
                    "name": "C#6",
                    "midi": 85,
                    "time": 241.3499999999951,
                    "velocity": 0.44881889763779526,
                    "duration": 0.15000000000000568
                },
                {
                    "name": "C#5",
                    "midi": 73,
                    "time": 241.3499999999951,
                    "velocity": 0.3779527559055118,
                    "duration": 0.15000000000000568
                },
                {
                    "name": "C6",
                    "midi": 84,
                    "time": 241.4999999999951,
                    "velocity": 0.4881889763779528,
                    "duration": 0.07499999999998863
                },
                {
                    "name": "A5",
                    "midi": 81,
                    "time": 241.4999999999951,
                    "velocity": 0.4094488188976378,
                    "duration": 0.07499999999998863
                },
                {
                    "name": "C5",
                    "midi": 72,
                    "time": 241.4999999999951,
                    "velocity": 0.4094488188976378,
                    "duration": 0.07499999999998863
                },
                {
                    "name": "C#6",
                    "midi": 85,
                    "time": 241.7999999999951,
                    "velocity": 0.4645669291338583,
                    "duration": 0.15000000000000568
                },
                {
                    "name": "C#5",
                    "midi": 73,
                    "time": 241.7999999999951,
                    "velocity": 0.3858267716535433,
                    "duration": 0.15000000000000568
                },
                {
                    "name": "A#5",
                    "midi": 82,
                    "time": 241.7999999999951,
                    "velocity": 0.3858267716535433,
                    "duration": 0.15000000000000568
                },
                {
                    "name": "A#4",
                    "midi": 70,
                    "time": 242.0999999999951,
                    "velocity": 0.4094488188976378,
                    "duration": 0.44999999999998863
                },
                {
                    "name": "F#5",
                    "midi": 78,
                    "time": 242.0999999999951,
                    "velocity": 0.4094488188976378,
                    "duration": 0.44999999999998863
                },
                {
                    "name": "A#5",
                    "midi": 82,
                    "time": 242.0999999999951,
                    "velocity": 0.4881889763779528,
                    "duration": 0.44999999999998863
                },
                {
                    "name": "C#5",
                    "midi": 73,
                    "time": 242.5499999999951,
                    "velocity": 0.3779527559055118,
                    "duration": 0.15000000000000568
                },
                {
                    "name": "C#6",
                    "midi": 85,
                    "time": 242.5499999999951,
                    "velocity": 0.44881889763779526,
                    "duration": 0.15000000000000568
                },
                {
                    "name": "A5",
                    "midi": 81,
                    "time": 242.6999999999951,
                    "velocity": 0.4094488188976378,
                    "duration": 0.07499999999998863
                },
                {
                    "name": "C5",
                    "midi": 72,
                    "time": 242.6999999999951,
                    "velocity": 0.4094488188976378,
                    "duration": 0.07499999999998863
                },
                {
                    "name": "C6",
                    "midi": 84,
                    "time": 242.6999999999951,
                    "velocity": 0.4881889763779528,
                    "duration": 0.07499999999998863
                },
                {
                    "name": "C#6",
                    "midi": 85,
                    "time": 242.99999999999508,
                    "velocity": 0.4645669291338583,
                    "duration": 0.15000000000000568
                },
                {
                    "name": "A#5",
                    "midi": 82,
                    "time": 242.99999999999508,
                    "velocity": 0.3858267716535433,
                    "duration": 0.15000000000000568
                },
                {
                    "name": "C#5",
                    "midi": 73,
                    "time": 242.99999999999508,
                    "velocity": 0.3858267716535433,
                    "duration": 0.15000000000000568
                },
                {
                    "name": "A#5",
                    "midi": 82,
                    "time": 243.2999999999951,
                    "velocity": 0.4881889763779528,
                    "duration": 0.44999999999998863
                },
                {
                    "name": "A#4",
                    "midi": 70,
                    "time": 243.2999999999951,
                    "velocity": 0.4094488188976378,
                    "duration": 0.44999999999998863
                },
                {
                    "name": "F#5",
                    "midi": 78,
                    "time": 243.2999999999951,
                    "velocity": 0.4094488188976378,
                    "duration": 0.44999999999998863
                },
                {
                    "name": "C#6",
                    "midi": 85,
                    "time": 243.74999999999508,
                    "velocity": 0.44881889763779526,
                    "duration": 0.15000000000000568
                },
                {
                    "name": "C#5",
                    "midi": 73,
                    "time": 243.74999999999508,
                    "velocity": 0.3779527559055118,
                    "duration": 0.15000000000000568
                },
                {
                    "name": "C6",
                    "midi": 84,
                    "time": 243.8999999999951,
                    "velocity": 0.4881889763779528,
                    "duration": 0.07499999999998863
                },
                {
                    "name": "C5",
                    "midi": 72,
                    "time": 243.8999999999951,
                    "velocity": 0.4094488188976378,
                    "duration": 0.07499999999998863
                },
                {
                    "name": "C#6",
                    "midi": 85,
                    "time": 244.19999999999507,
                    "velocity": 0.4645669291338583,
                    "duration": 0.15000000000000568
                },
                {
                    "name": "C#5",
                    "midi": 73,
                    "time": 244.19999999999507,
                    "velocity": 0.3858267716535433,
                    "duration": 0.15000000000000568
                },
                {
                    "name": "G#5",
                    "midi": 80,
                    "time": 244.19999999999507,
                    "velocity": 0.3858267716535433,
                    "duration": 0.15000000000000568
                },
                {
                    "name": "B5",
                    "midi": 83,
                    "time": 244.49999999999508,
                    "velocity": 0.4094488188976378,
                    "duration": 0.44999999999998863
                },
                {
                    "name": "D#5",
                    "midi": 75,
                    "time": 244.49999999999508,
                    "velocity": 0.4094488188976378,
                    "duration": 0.44999999999998863
                },
                {
                    "name": "D#6",
                    "midi": 87,
                    "time": 244.49999999999508,
                    "velocity": 0.4881889763779528,
                    "duration": 0.44999999999998863
                },
                {
                    "name": "C#6",
                    "midi": 85,
                    "time": 244.94999999999507,
                    "velocity": 0.44881889763779526,
                    "duration": 0.15000000000000568
                },
                {
                    "name": "G#5",
                    "midi": 80,
                    "time": 244.94999999999507,
                    "velocity": 0.3779527559055118,
                    "duration": 0.15000000000000568
                },
                {
                    "name": "C#5",
                    "midi": 73,
                    "time": 244.94999999999507,
                    "velocity": 0.3779527559055118,
                    "duration": 0.15000000000000568
                },
                {
                    "name": "C6",
                    "midi": 84,
                    "time": 245.09999999999508,
                    "velocity": 0.4881889763779528,
                    "duration": 0.07499999999998863
                },
                {
                    "name": "C5",
                    "midi": 72,
                    "time": 245.09999999999508,
                    "velocity": 0.4094488188976378,
                    "duration": 0.07499999999998863
                },
                {
                    "name": "C#6",
                    "midi": 85,
                    "time": 245.39999999999506,
                    "velocity": 0.4645669291338583,
                    "duration": 0.15000000000000568
                },
                {
                    "name": "G#5",
                    "midi": 80,
                    "time": 245.39999999999506,
                    "velocity": 0.3858267716535433,
                    "duration": 0.15000000000000568
                },
                {
                    "name": "C#5",
                    "midi": 73,
                    "time": 245.39999999999506,
                    "velocity": 0.3858267716535433,
                    "duration": 0.15000000000000568
                },
                {
                    "name": "D#6",
                    "midi": 87,
                    "time": 245.69999999999507,
                    "velocity": 0.4881889763779528,
                    "duration": 0.44999999999998863
                },
                {
                    "name": "B5",
                    "midi": 83,
                    "time": 245.69999999999507,
                    "velocity": 0.4094488188976378,
                    "duration": 0.44999999999998863
                },
                {
                    "name": "D#5",
                    "midi": 75,
                    "time": 245.69999999999507,
                    "velocity": 0.4094488188976378,
                    "duration": 0.44999999999998863
                },
                {
                    "name": "G#5",
                    "midi": 80,
                    "time": 246.14999999999506,
                    "velocity": 0.3779527559055118,
                    "duration": 0.15000000000000568
                },
                {
                    "name": "C#5",
                    "midi": 73,
                    "time": 246.14999999999506,
                    "velocity": 0.3779527559055118,
                    "duration": 0.15000000000000568
                },
                {
                    "name": "C#6",
                    "midi": 85,
                    "time": 246.14999999999506,
                    "velocity": 0.44881889763779526,
                    "duration": 0.15000000000000568
                },
                {
                    "name": "C6",
                    "midi": 84,
                    "time": 246.29999999999507,
                    "velocity": 0.4881889763779528,
                    "duration": 0.07499999999998863
                },
                {
                    "name": "C5",
                    "midi": 72,
                    "time": 246.29999999999507,
                    "velocity": 0.4094488188976378,
                    "duration": 0.07499999999998863
                },
                {
                    "name": "A5",
                    "midi": 81,
                    "time": 246.29999999999507,
                    "velocity": 0.4094488188976378,
                    "duration": 0.07499999999998863
                },
                {
                    "name": "C#5",
                    "midi": 73,
                    "time": 246.59999999999505,
                    "velocity": 0.3858267716535433,
                    "duration": 0.15000000000000568
                },
                {
                    "name": "C#6",
                    "midi": 85,
                    "time": 246.59999999999505,
                    "velocity": 0.4645669291338583,
                    "duration": 0.15000000000000568
                },
                {
                    "name": "A#5",
                    "midi": 82,
                    "time": 246.59999999999505,
                    "velocity": 0.3858267716535433,
                    "duration": 0.15000000000000568
                },
                {
                    "name": "F#6",
                    "midi": 90,
                    "time": 246.89999999999506,
                    "velocity": 0.4881889763779528,
                    "duration": 0.44999999999998863
                },
                {
                    "name": "A#5",
                    "midi": 82,
                    "time": 246.89999999999506,
                    "velocity": 0.4094488188976378,
                    "duration": 0.44999999999998863
                },
                {
                    "name": "F#5",
                    "midi": 78,
                    "time": 246.89999999999506,
                    "velocity": 0.4094488188976378,
                    "duration": 0.44999999999998863
                },
                {
                    "name": "C#6",
                    "midi": 85,
                    "time": 247.34999999999505,
                    "velocity": 0.44881889763779526,
                    "duration": 0.15000000000000568
                },
                {
                    "name": "C#5",
                    "midi": 73,
                    "time": 247.34999999999505,
                    "velocity": 0.3779527559055118,
                    "duration": 0.15000000000000568
                },
                {
                    "name": "C6",
                    "midi": 84,
                    "time": 247.49999999999505,
                    "velocity": 0.4881889763779528,
                    "duration": 0.07499999999998863
                },
                {
                    "name": "C5",
                    "midi": 72,
                    "time": 247.49999999999505,
                    "velocity": 0.4094488188976378,
                    "duration": 0.07499999999998863
                },
                {
                    "name": "A5",
                    "midi": 81,
                    "time": 247.49999999999505,
                    "velocity": 0.4094488188976378,
                    "duration": 0.07499999999998863
                },
                {
                    "name": "C#6",
                    "midi": 85,
                    "time": 247.79999999999504,
                    "velocity": 0.4645669291338583,
                    "duration": 0.15000000000000568
                },
                {
                    "name": "A#5",
                    "midi": 82,
                    "time": 247.79999999999504,
                    "velocity": 0.3858267716535433,
                    "duration": 0.15000000000000568
                },
                {
                    "name": "C#5",
                    "midi": 73,
                    "time": 247.79999999999504,
                    "velocity": 0.3858267716535433,
                    "duration": 0.15000000000000568
                },
                {
                    "name": "A#5",
                    "midi": 82,
                    "time": 248.09999999999505,
                    "velocity": 0.4094488188976378,
                    "duration": 0.44999999999998863
                },
                {
                    "name": "F#6",
                    "midi": 90,
                    "time": 248.09999999999505,
                    "velocity": 0.4881889763779528,
                    "duration": 0.44999999999998863
                },
                {
                    "name": "F#5",
                    "midi": 78,
                    "time": 248.09999999999505,
                    "velocity": 0.4094488188976378,
                    "duration": 0.44999999999998863
                },
                {
                    "name": "C#6",
                    "midi": 85,
                    "time": 248.54999999999504,
                    "velocity": 0.44881889763779526,
                    "duration": 0.15000000000000568
                },
                {
                    "name": "C#5",
                    "midi": 73,
                    "time": 248.54999999999504,
                    "velocity": 0.3779527559055118,
                    "duration": 0.15000000000000568
                },
                {
                    "name": "D#6",
                    "midi": 87,
                    "time": 248.69999999999504,
                    "velocity": 0.5039370078740157,
                    "duration": 0.11250000000001137
                },
                {
                    "name": "B5",
                    "midi": 83,
                    "time": 248.69999999999504,
                    "velocity": 0.3858267716535433,
                    "duration": 0.11250000000001137
                },
                {
                    "name": "D#5",
                    "midi": 75,
                    "time": 248.69999999999504,
                    "velocity": 0.3858267716535433,
                    "duration": 0.11250000000001137
                },
                {
                    "name": "B5",
                    "midi": 83,
                    "time": 248.99999999999505,
                    "velocity": 0.4409448818897638,
                    "duration": 0.11250000000001137
                },
                {
                    "name": "F#5",
                    "midi": 78,
                    "time": 248.99999999999505,
                    "velocity": 0.3464566929133858,
                    "duration": 0.11250000000001137
                },
                {
                    "name": "D#5",
                    "midi": 75,
                    "time": 249.29999999999507,
                    "velocity": 0.3464566929133858,
                    "duration": 0.11250000000001137
                },
                {
                    "name": "F#5",
                    "midi": 78,
                    "time": 249.29999999999507,
                    "velocity": 0.4409448818897638,
                    "duration": 0.11250000000001137
                },
                {
                    "name": "B4",
                    "midi": 71,
                    "time": 249.59999999999508,
                    "velocity": 0.3464566929133858,
                    "duration": 0.11250000000001137
                },
                {
                    "name": "D#5",
                    "midi": 75,
                    "time": 249.59999999999508,
                    "velocity": 0.4409448818897638,
                    "duration": 0.11250000000001137
                },
                {
                    "name": "D#5",
                    "midi": 75,
                    "time": 249.8999999999951,
                    "velocity": 0.3464566929133858,
                    "duration": 0.11250000000001137
                },
                {
                    "name": "F#5",
                    "midi": 78,
                    "time": 249.8999999999951,
                    "velocity": 0.4409448818897638,
                    "duration": 0.11250000000001137
                },
                {
                    "name": "F#5",
                    "midi": 78,
                    "time": 250.1999999999951,
                    "velocity": 0.36220472440944884,
                    "duration": 0.11250000000001137
                },
                {
                    "name": "B5",
                    "midi": 83,
                    "time": 250.1999999999951,
                    "velocity": 0.4566929133858268,
                    "duration": 0.11250000000001137
                },
                {
                    "name": "B5",
                    "midi": 83,
                    "time": 250.4999999999951,
                    "velocity": 0.3779527559055118,
                    "duration": 0.11250000000001137
                },
                {
                    "name": "D#6",
                    "midi": 87,
                    "time": 250.4999999999951,
                    "velocity": 0.47244094488188976,
                    "duration": 0.11250000000001137
                },
                {
                    "name": "F#6",
                    "midi": 90,
                    "time": 250.79999999999512,
                    "velocity": 0.4881889763779528,
                    "duration": 0.11250000000001137
                },
                {
                    "name": "D#6",
                    "midi": 87,
                    "time": 250.79999999999512,
                    "velocity": 0.3858267716535433,
                    "duration": 0.11250000000001137
                },
                {
                    "name": "C#5",
                    "midi": 73,
                    "time": 251.09999999999513,
                    "velocity": 0.4015748031496063,
                    "duration": 0.11250000000001137
                },
                {
                    "name": "A#5",
                    "midi": 82,
                    "time": 251.09999999999513,
                    "velocity": 0.4015748031496063,
                    "duration": 0.11250000000001137
                },
                {
                    "name": "C#6",
                    "midi": 85,
                    "time": 251.09999999999513,
                    "velocity": 0.5039370078740157,
                    "duration": 0.11250000000001137
                },
                {
                    "name": "F#5",
                    "midi": 78,
                    "time": 251.39999999999515,
                    "velocity": 0.3464566929133858,
                    "duration": 0.11250000000001137
                },
                {
                    "name": "A#5",
                    "midi": 82,
                    "time": 251.39999999999515,
                    "velocity": 0.4330708661417323,
                    "duration": 0.11250000000001137
                },
                {
                    "name": "F#5",
                    "midi": 78,
                    "time": 251.69999999999516,
                    "velocity": 0.4330708661417323,
                    "duration": 0.11250000000001137
                },
                {
                    "name": "C#5",
                    "midi": 73,
                    "time": 251.69999999999516,
                    "velocity": 0.3464566929133858,
                    "duration": 0.11250000000001137
                },
                {
                    "name": "A#4",
                    "midi": 70,
                    "time": 251.99999999999517,
                    "velocity": 0.3464566929133858,
                    "duration": 0.11250000000001137
                },
                {
                    "name": "C#5",
                    "midi": 73,
                    "time": 251.99999999999517,
                    "velocity": 0.4330708661417323,
                    "duration": 0.11250000000001137
                },
                {
                    "name": "C#5",
                    "midi": 73,
                    "time": 252.29999999999518,
                    "velocity": 0.3543307086614173,
                    "duration": 0.11250000000001137
                },
                {
                    "name": "F#5",
                    "midi": 78,
                    "time": 252.29999999999518,
                    "velocity": 0.44881889763779526,
                    "duration": 0.11250000000001137
                },
                {
                    "name": "F#5",
                    "midi": 78,
                    "time": 252.5999999999952,
                    "velocity": 0.3464566929133858,
                    "duration": 0.11250000000001137
                },
                {
                    "name": "A#5",
                    "midi": 82,
                    "time": 252.5999999999952,
                    "velocity": 0.4409448818897638,
                    "duration": 0.11250000000001137
                },
                {
                    "name": "C#5",
                    "midi": 73,
                    "time": 252.8999999999952,
                    "velocity": 0.3858267716535433,
                    "duration": 0.375
                },
                {
                    "name": "A#5",
                    "midi": 82,
                    "time": 252.8999999999952,
                    "velocity": 0.3858267716535433,
                    "duration": 0.375
                },
                {
                    "name": "F#5",
                    "midi": 78,
                    "time": 252.8999999999952,
                    "velocity": 0.3858267716535433,
                    "duration": 0.375
                },
                {
                    "name": "C#6",
                    "midi": 85,
                    "time": 252.8999999999952,
                    "velocity": 0.4881889763779528,
                    "duration": 0.375
                },
                {
                    "name": "D#5",
                    "midi": 75,
                    "time": 253.3874999999952,
                    "velocity": 0.3858267716535433,
                    "duration": 0.26249999999998863
                },
                {
                    "name": "F#5",
                    "midi": 78,
                    "time": 253.4249999999952,
                    "velocity": 0.3858267716535433,
                    "duration": 0.22499999999999432
                },
                {
                    "name": "B5",
                    "midi": 83,
                    "time": 253.4624999999952,
                    "velocity": 0.3858267716535433,
                    "duration": 0.1875
                },
                {
                    "name": "D#6",
                    "midi": 87,
                    "time": 253.4999999999952,
                    "velocity": 0.5039370078740157,
                    "duration": 0.15000000000000568
                },
                {
                    "name": "F#5",
                    "midi": 78,
                    "time": 253.7999999999952,
                    "velocity": 0.3464566929133858,
                    "duration": 0.11250000000001137
                },
                {
                    "name": "B5",
                    "midi": 83,
                    "time": 253.7999999999952,
                    "velocity": 0.4409448818897638,
                    "duration": 0.11250000000001137
                },
                {
                    "name": "D#5",
                    "midi": 75,
                    "time": 254.09999999999522,
                    "velocity": 0.3464566929133858,
                    "duration": 0.11250000000001137
                },
                {
                    "name": "F#5",
                    "midi": 78,
                    "time": 254.09999999999522,
                    "velocity": 0.4409448818897638,
                    "duration": 0.11250000000001137
                },
                {
                    "name": "D#5",
                    "midi": 75,
                    "time": 254.39999999999523,
                    "velocity": 0.4409448818897638,
                    "duration": 0.11250000000001137
                },
                {
                    "name": "B4",
                    "midi": 71,
                    "time": 254.39999999999523,
                    "velocity": 0.3464566929133858,
                    "duration": 0.11250000000001137
                },
                {
                    "name": "D#5",
                    "midi": 75,
                    "time": 254.69999999999524,
                    "velocity": 0.3464566929133858,
                    "duration": 0.11250000000001137
                },
                {
                    "name": "F#5",
                    "midi": 78,
                    "time": 254.69999999999524,
                    "velocity": 0.4409448818897638,
                    "duration": 0.11250000000001137
                },
                {
                    "name": "B5",
                    "midi": 83,
                    "time": 254.99999999999525,
                    "velocity": 0.4566929133858268,
                    "duration": 0.11250000000001137
                },
                {
                    "name": "F#5",
                    "midi": 78,
                    "time": 254.99999999999525,
                    "velocity": 0.36220472440944884,
                    "duration": 0.11250000000001137
                },
                {
                    "name": "B5",
                    "midi": 83,
                    "time": 255.29999999999526,
                    "velocity": 0.3779527559055118,
                    "duration": 0.11250000000001137
                },
                {
                    "name": "D#6",
                    "midi": 87,
                    "time": 255.29999999999526,
                    "velocity": 0.47244094488188976,
                    "duration": 0.11250000000001137
                },
                {
                    "name": "F#6",
                    "midi": 90,
                    "time": 255.59999999999528,
                    "velocity": 0.4881889763779528,
                    "duration": 0.11250000000001137
                },
                {
                    "name": "D#6",
                    "midi": 87,
                    "time": 255.59999999999528,
                    "velocity": 0.3858267716535433,
                    "duration": 0.11250000000001137
                },
                {
                    "name": "A#5",
                    "midi": 82,
                    "time": 255.8999999999953,
                    "velocity": 0.4015748031496063,
                    "duration": 0.11249999999998295
                },
                {
                    "name": "C#6",
                    "midi": 85,
                    "time": 255.8999999999953,
                    "velocity": 0.5039370078740157,
                    "duration": 0.11249999999998295
                },
                {
                    "name": "F#5",
                    "midi": 78,
                    "time": 256.19999999999527,
                    "velocity": 0.3464566929133858,
                    "duration": 0.11250000000001137
                },
                {
                    "name": "A#5",
                    "midi": 82,
                    "time": 256.19999999999527,
                    "velocity": 0.4330708661417323,
                    "duration": 0.11250000000001137
                },
                {
                    "name": "F#5",
                    "midi": 78,
                    "time": 256.4999999999953,
                    "velocity": 0.4330708661417323,
                    "duration": 0.11250000000001137
                },
                {
                    "name": "C#5",
                    "midi": 73,
                    "time": 256.4999999999953,
                    "velocity": 0.3464566929133858,
                    "duration": 0.11250000000001137
                },
                {
                    "name": "C#5",
                    "midi": 73,
                    "time": 256.7999999999953,
                    "velocity": 0.4330708661417323,
                    "duration": 0.11250000000001137
                },
                {
                    "name": "A#4",
                    "midi": 70,
                    "time": 256.7999999999953,
                    "velocity": 0.3464566929133858,
                    "duration": 0.11250000000001137
                },
                {
                    "name": "C#5",
                    "midi": 73,
                    "time": 257.0999999999953,
                    "velocity": 0.3543307086614173,
                    "duration": 0.11250000000001137
                },
                {
                    "name": "F#5",
                    "midi": 78,
                    "time": 257.0999999999953,
                    "velocity": 0.44881889763779526,
                    "duration": 0.11250000000001137
                },
                {
                    "name": "F#5",
                    "midi": 78,
                    "time": 257.3999999999953,
                    "velocity": 0.3464566929133858,
                    "duration": 0.11250000000001137
                },
                {
                    "name": "A#5",
                    "midi": 82,
                    "time": 257.3999999999953,
                    "velocity": 0.4409448818897638,
                    "duration": 0.11250000000001137
                },
                {
                    "name": "F#5",
                    "midi": 78,
                    "time": 257.6999999999953,
                    "velocity": 0.3858267716535433,
                    "duration": 0.5625
                },
                {
                    "name": "A#5",
                    "midi": 82,
                    "time": 257.6999999999953,
                    "velocity": 0.3858267716535433,
                    "duration": 0.5625
                },
                {
                    "name": "C#6",
                    "midi": 85,
                    "time": 257.6999999999953,
                    "velocity": 0.4881889763779528,
                    "duration": 0.5625
                },
                {
                    "name": "C#5",
                    "midi": 73,
                    "time": 257.6999999999953,
                    "velocity": 0.3858267716535433,
                    "duration": 0.5625
                },
                {
                    "name": "C6",
                    "midi": 84,
                    "time": 258.29999999999535,
                    "velocity": 0.5118110236220472,
                    "duration": 0.14999999999997726
                },
                {
                    "name": "C#7",
                    "midi": 97,
                    "time": 258.4499999999953,
                    "velocity": 0.3937007874015748,
                    "duration": 0.14999999999997726
                },
                {
                    "name": "C#6",
                    "midi": 85,
                    "time": 258.5999999999953,
                    "velocity": 0.4645669291338583,
                    "duration": 0.14999999999997726
                },
                {
                    "name": "C#7",
                    "midi": 97,
                    "time": 258.7499999999953,
                    "velocity": 0.3937007874015748,
                    "duration": 0.14999999999997726
                },
                {
                    "name": "B5",
                    "midi": 83,
                    "time": 258.89999999999526,
                    "velocity": 0.5118110236220472,
                    "duration": 0.2999999999999545
                },
                {
                    "name": "C#7",
                    "midi": 97,
                    "time": 259.04999999999524,
                    "velocity": 0.3937007874015748,
                    "duration": 0.14999999999997726
                },
                {
                    "name": "C#6",
                    "midi": 85,
                    "time": 259.1999999999952,
                    "velocity": 0.47244094488188976,
                    "duration": 0.2999999999999545
                },
                {
                    "name": "C#7",
                    "midi": 97,
                    "time": 259.3499999999952,
                    "velocity": 0.3937007874015748,
                    "duration": 0.14999999999997726
                },
                {
                    "name": "C6",
                    "midi": 84,
                    "time": 259.49999999999517,
                    "velocity": 0.5118110236220472,
                    "duration": 0.14999999999997726
                },
                {
                    "name": "C#7",
                    "midi": 97,
                    "time": 259.64999999999515,
                    "velocity": 0.3937007874015748,
                    "duration": 0.14999999999997726
                },
                {
                    "name": "C#6",
                    "midi": 85,
                    "time": 259.7999999999951,
                    "velocity": 0.4645669291338583,
                    "duration": 0.14999999999997726
                },
                {
                    "name": "C#7",
                    "midi": 97,
                    "time": 259.9499999999951,
                    "velocity": 0.3937007874015748,
                    "duration": 0.14999999999997726
                },
                {
                    "name": "B5",
                    "midi": 83,
                    "time": 260.0999999999951,
                    "velocity": 0.5118110236220472,
                    "duration": 0.2999999999999545
                },
                {
                    "name": "C#7",
                    "midi": 97,
                    "time": 260.24999999999505,
                    "velocity": 0.3937007874015748,
                    "duration": 0.14999999999997726
                },
                {
                    "name": "C#6",
                    "midi": 85,
                    "time": 260.39999999999503,
                    "velocity": 0.47244094488188976,
                    "duration": 0.2999999999999545
                },
                {
                    "name": "C#7",
                    "midi": 97,
                    "time": 260.549999999995,
                    "velocity": 0.3937007874015748,
                    "duration": 0.14999999999997726
                },
                {
                    "name": "C6",
                    "midi": 84,
                    "time": 260.699999999995,
                    "velocity": 0.5118110236220472,
                    "duration": 0.14999999999997726
                },
                {
                    "name": "C#7",
                    "midi": 97,
                    "time": 260.84999999999496,
                    "velocity": 0.3937007874015748,
                    "duration": 0.14999999999997726
                },
                {
                    "name": "C#6",
                    "midi": 85,
                    "time": 260.99999999999494,
                    "velocity": 0.4645669291338583,
                    "duration": 0.14999999999997726
                },
                {
                    "name": "C#7",
                    "midi": 97,
                    "time": 261.1499999999949,
                    "velocity": 0.3937007874015748,
                    "duration": 0.14999999999997726
                },
                {
                    "name": "A#5",
                    "midi": 82,
                    "time": 261.2999999999949,
                    "velocity": 0.5118110236220472,
                    "duration": 0.2999999999999545
                },
                {
                    "name": "C#7",
                    "midi": 97,
                    "time": 261.4499999999949,
                    "velocity": 0.3937007874015748,
                    "duration": 0.14999999999997726
                },
                {
                    "name": "C#6",
                    "midi": 85,
                    "time": 261.59999999999485,
                    "velocity": 0.47244094488188976,
                    "duration": 0.2999999999999545
                },
                {
                    "name": "C#7",
                    "midi": 97,
                    "time": 261.7499999999948,
                    "velocity": 0.3937007874015748,
                    "duration": 0.14999999999997726
                },
                {
                    "name": "C6",
                    "midi": 84,
                    "time": 261.8999999999948,
                    "velocity": 0.5118110236220472,
                    "duration": 0.14999999999997726
                },
                {
                    "name": "C#7",
                    "midi": 97,
                    "time": 262.0499999999948,
                    "velocity": 0.3937007874015748,
                    "duration": 0.14999999999997726
                },
                {
                    "name": "C#6",
                    "midi": 85,
                    "time": 262.19999999999476,
                    "velocity": 0.4645669291338583,
                    "duration": 0.14999999999997726
                },
                {
                    "name": "C#7",
                    "midi": 97,
                    "time": 262.34999999999474,
                    "velocity": 0.3937007874015748,
                    "duration": 0.14999999999997726
                },
                {
                    "name": "A#5",
                    "midi": 82,
                    "time": 262.4999999999947,
                    "velocity": 0.5118110236220472,
                    "duration": 0.2999999999999545
                },
                {
                    "name": "C#7",
                    "midi": 97,
                    "time": 262.6499999999947,
                    "velocity": 0.3937007874015748,
                    "duration": 0.14999999999997726
                },
                {
                    "name": "C#6",
                    "midi": 85,
                    "time": 262.79999999999467,
                    "velocity": 0.47244094488188976,
                    "duration": 0.2999999999999545
                },
                {
                    "name": "C#7",
                    "midi": 97,
                    "time": 262.94999999999465,
                    "velocity": 0.3937007874015748,
                    "duration": 0.14999999999997726
                },
                {
                    "name": "C6",
                    "midi": 84,
                    "time": 263.0999999999946,
                    "velocity": 0.5118110236220472,
                    "duration": 0.14999999999997726
                },
                {
                    "name": "C#7",
                    "midi": 97,
                    "time": 263.2499999999946,
                    "velocity": 0.3937007874015748,
                    "duration": 0.14999999999997726
                },
                {
                    "name": "C#6",
                    "midi": 85,
                    "time": 263.3999999999946,
                    "velocity": 0.4645669291338583,
                    "duration": 0.14999999999997726
                },
                {
                    "name": "C#7",
                    "midi": 97,
                    "time": 263.54999999999455,
                    "velocity": 0.3937007874015748,
                    "duration": 0.14999999999997726
                },
                {
                    "name": "F6",
                    "midi": 89,
                    "time": 263.69999999999453,
                    "velocity": 0.5118110236220472,
                    "duration": 0.2999999999999545
                },
                {
                    "name": "B5",
                    "midi": 83,
                    "time": 263.69999999999453,
                    "velocity": 0.4409448818897638,
                    "duration": 0.2999999999999545
                },
                {
                    "name": "C#7",
                    "midi": 97,
                    "time": 263.8499999999945,
                    "velocity": 0.3937007874015748,
                    "duration": 0.14999999999997726
                },
                {
                    "name": "C#6",
                    "midi": 85,
                    "time": 263.9999999999945,
                    "velocity": 0.47244094488188976,
                    "duration": 0.2999999999999545
                },
                {
                    "name": "C#7",
                    "midi": 97,
                    "time": 264.14999999999446,
                    "velocity": 0.3937007874015748,
                    "duration": 0.14999999999997726
                },
                {
                    "name": "C6",
                    "midi": 84,
                    "time": 264.29999999999444,
                    "velocity": 0.5118110236220472,
                    "duration": 0.14999999999997726
                },
                {
                    "name": "C#7",
                    "midi": 97,
                    "time": 264.4499999999944,
                    "velocity": 0.3937007874015748,
                    "duration": 0.14999999999997726
                },
                {
                    "name": "C#6",
                    "midi": 85,
                    "time": 264.5999999999944,
                    "velocity": 0.4645669291338583,
                    "duration": 0.14999999999997726
                },
                {
                    "name": "C#7",
                    "midi": 97,
                    "time": 264.7499999999944,
                    "velocity": 0.3937007874015748,
                    "duration": 0.14999999999997726
                },
                {
                    "name": "B5",
                    "midi": 83,
                    "time": 264.89999999999435,
                    "velocity": 0.4330708661417323,
                    "duration": 0.2999999999999545
                },
                {
                    "name": "F6",
                    "midi": 89,
                    "time": 264.89999999999435,
                    "velocity": 0.5118110236220472,
                    "duration": 0.2999999999999545
                },
                {
                    "name": "C#7",
                    "midi": 97,
                    "time": 265.0499999999943,
                    "velocity": 0.3937007874015748,
                    "duration": 0.14999999999997726
                },
                {
                    "name": "C#6",
                    "midi": 85,
                    "time": 265.1999999999943,
                    "velocity": 0.47244094488188976,
                    "duration": 0.2999999999999545
                },
                {
                    "name": "C#7",
                    "midi": 97,
                    "time": 265.3499999999943,
                    "velocity": 0.3937007874015748,
                    "duration": 0.14999999999997726
                },
                {
                    "name": "A#5",
                    "midi": 82,
                    "time": 265.49999999999426,
                    "velocity": 0.5118110236220472,
                    "duration": 0.14999999999997726
                },
                {
                    "name": "C#7",
                    "midi": 97,
                    "time": 265.64999999999424,
                    "velocity": 0.3937007874015748,
                    "duration": 0.14999999999997726
                },
                {
                    "name": "C#6",
                    "midi": 85,
                    "time": 265.7999999999942,
                    "velocity": 0.4645669291338583,
                    "duration": 0.14999999999997726
                },
                {
                    "name": "C#7",
                    "midi": 97,
                    "time": 265.9499999999942,
                    "velocity": 0.3937007874015748,
                    "duration": 0.14999999999997726
                },
                {
                    "name": "F#6",
                    "midi": 90,
                    "time": 266.09999999999417,
                    "velocity": 0.5118110236220472,
                    "duration": 0.2999999999999545
                },
                {
                    "name": "A#5",
                    "midi": 82,
                    "time": 266.09999999999417,
                    "velocity": 0.41732283464566927,
                    "duration": 0.2999999999999545
                },
                {
                    "name": "C#7",
                    "midi": 97,
                    "time": 266.24999999999415,
                    "velocity": 0.3937007874015748,
                    "duration": 0.14999999999997726
                },
                {
                    "name": "C#6",
                    "midi": 85,
                    "time": 266.3999999999941,
                    "velocity": 0.47244094488188976,
                    "duration": 0.2999999999999545
                },
                {
                    "name": "C#7",
                    "midi": 97,
                    "time": 266.5499999999941,
                    "velocity": 0.3937007874015748,
                    "duration": 0.14999999999997726
                },
                {
                    "name": "A#5",
                    "midi": 82,
                    "time": 266.6999999999941,
                    "velocity": 0.5118110236220472,
                    "duration": 0.14999999999997726
                },
                {
                    "name": "C#7",
                    "midi": 97,
                    "time": 266.84999999999405,
                    "velocity": 0.3937007874015748,
                    "duration": 0.14999999999997726
                },
                {
                    "name": "C#6",
                    "midi": 85,
                    "time": 266.99999999999403,
                    "velocity": 0.4645669291338583,
                    "duration": 0.14999999999997726
                },
                {
                    "name": "C#7",
                    "midi": 97,
                    "time": 267.149999999994,
                    "velocity": 0.3937007874015748,
                    "duration": 0.14999999999997726
                },
                {
                    "name": "F#6",
                    "midi": 90,
                    "time": 267.299999999994,
                    "velocity": 0.5118110236220472,
                    "duration": 0.2999999999999545
                },
                {
                    "name": "A#5",
                    "midi": 82,
                    "time": 267.299999999994,
                    "velocity": 0.4566929133858268,
                    "duration": 0.2999999999999545
                },
                {
                    "name": "C#7",
                    "midi": 97,
                    "time": 267.44999999999396,
                    "velocity": 0.3937007874015748,
                    "duration": 0.14999999999997726
                },
                {
                    "name": "C#6",
                    "midi": 85,
                    "time": 267.59999999999394,
                    "velocity": 0.47244094488188976,
                    "duration": 0.2999999999999545
                },
                {
                    "name": "C#7",
                    "midi": 97,
                    "time": 267.7499999999939,
                    "velocity": 0.3937007874015748,
                    "duration": 0.14999999999997726
                },
                {
                    "name": "D#6",
                    "midi": 87,
                    "time": 267.8999999999939,
                    "velocity": 0.5118110236220472,
                    "duration": 0.14999999999997726
                },
                {
                    "name": "C#7",
                    "midi": 97,
                    "time": 268.0499999999939,
                    "velocity": 0.3700787401574803,
                    "duration": 0.14999999999997726
                },
                {
                    "name": "B5",
                    "midi": 83,
                    "time": 268.19999999999385,
                    "velocity": 0.47244094488188976,
                    "duration": 0.14999999999997726
                },
                {
                    "name": "C#7",
                    "midi": 97,
                    "time": 268.3499999999938,
                    "velocity": 0.3700787401574803,
                    "duration": 0.14999999999997726
                },
                {
                    "name": "A#5",
                    "midi": 82,
                    "time": 268.4999999999938,
                    "velocity": 0.47244094488188976,
                    "duration": 0.14999999999997726
                },
                {
                    "name": "C#7",
                    "midi": 97,
                    "time": 268.6499999999938,
                    "velocity": 0.3700787401574803,
                    "duration": 0.14999999999997726
                },
                {
                    "name": "B5",
                    "midi": 83,
                    "time": 268.79999999999376,
                    "velocity": 0.4881889763779528,
                    "duration": 0.14999999999997726
                },
                {
                    "name": "C#7",
                    "midi": 97,
                    "time": 268.94999999999374,
                    "velocity": 0.3700787401574803,
                    "duration": 0.14999999999997726
                },
                {
                    "name": "D#6",
                    "midi": 87,
                    "time": 269.0999999999937,
                    "velocity": 0.5118110236220472,
                    "duration": 0.14999999999997726
                },
                {
                    "name": "C#7",
                    "midi": 97,
                    "time": 269.2499999999937,
                    "velocity": 0.3779527559055118,
                    "duration": 0.14999999999997726
                },
                {
                    "name": "B5",
                    "midi": 83,
                    "time": 269.39999999999367,
                    "velocity": 0.4881889763779528,
                    "duration": 0.14999999999997726
                },
                {
                    "name": "C#7",
                    "midi": 97,
                    "time": 269.54999999999364,
                    "velocity": 0.3700787401574803,
                    "duration": 0.14999999999997726
                },
                {
                    "name": "F#6",
                    "midi": 90,
                    "time": 269.6999999999936,
                    "velocity": 0.5118110236220472,
                    "duration": 0.14999999999997726
                },
                {
                    "name": "C#7",
                    "midi": 97,
                    "time": 269.8499999999936,
                    "velocity": 0.36220472440944884,
                    "duration": 0.14999999999997726
                },
                {
                    "name": "D#6",
                    "midi": 87,
                    "time": 269.9999999999936,
                    "velocity": 0.48031496062992124,
                    "duration": 0.14999999999997726
                },
                {
                    "name": "C#7",
                    "midi": 97,
                    "time": 270.14999999999355,
                    "velocity": 0.3779527559055118,
                    "duration": 0.14999999999997726
                },
                {
                    "name": "C#6",
                    "midi": 85,
                    "time": 270.29999999999353,
                    "velocity": 0.5118110236220472,
                    "duration": 0.14999999999997726
                },
                {
                    "name": "C#7",
                    "midi": 97,
                    "time": 270.4499999999935,
                    "velocity": 0.3700787401574803,
                    "duration": 0.14999999999997726
                },
                {
                    "name": "A#5",
                    "midi": 82,
                    "time": 270.5999999999935,
                    "velocity": 0.47244094488188976,
                    "duration": 0.14999999999997726
                },
                {
                    "name": "C#7",
                    "midi": 97,
                    "time": 270.74999999999346,
                    "velocity": 0.3700787401574803,
                    "duration": 0.14999999999997726
                },
                {
                    "name": "A5",
                    "midi": 81,
                    "time": 270.89999999999344,
                    "velocity": 0.47244094488188976,
                    "duration": 0.14999999999997726
                },
                {
                    "name": "C#7",
                    "midi": 97,
                    "time": 271.0499999999934,
                    "velocity": 0.3700787401574803,
                    "duration": 0.14999999999997726
                },
                {
                    "name": "A#5",
                    "midi": 82,
                    "time": 271.1999999999934,
                    "velocity": 0.4881889763779528,
                    "duration": 0.14999999999997726
                },
                {
                    "name": "C#7",
                    "midi": 97,
                    "time": 271.3499999999934,
                    "velocity": 0.3700787401574803,
                    "duration": 0.14999999999997726
                },
                {
                    "name": "C#6",
                    "midi": 85,
                    "time": 271.49999999999335,
                    "velocity": 0.5118110236220472,
                    "duration": 0.14999999999997726
                },
                {
                    "name": "C#7",
                    "midi": 97,
                    "time": 271.6499999999933,
                    "velocity": 0.3779527559055118,
                    "duration": 0.14999999999997726
                },
                {
                    "name": "A#5",
                    "midi": 82,
                    "time": 271.7999999999933,
                    "velocity": 0.4881889763779528,
                    "duration": 0.14999999999997726
                },
                {
                    "name": "C#7",
                    "midi": 97,
                    "time": 271.9499999999933,
                    "velocity": 0.3700787401574803,
                    "duration": 0.14999999999997726
                },
                {
                    "name": "F#6",
                    "midi": 90,
                    "time": 272.09999999999326,
                    "velocity": 0.5118110236220472,
                    "duration": 0.14999999999997726
                },
                {
                    "name": "C#7",
                    "midi": 97,
                    "time": 272.24999999999324,
                    "velocity": 0.36220472440944884,
                    "duration": 0.14999999999997726
                },
                {
                    "name": "C#6",
                    "midi": 85,
                    "time": 272.3999999999932,
                    "velocity": 0.48031496062992124,
                    "duration": 0.14999999999997726
                },
                {
                    "name": "C#7",
                    "midi": 97,
                    "time": 272.5499999999932,
                    "velocity": 0.3779527559055118,
                    "duration": 0.14999999999997726
                },
                {
                    "name": "D#6",
                    "midi": 87,
                    "time": 272.69999999999317,
                    "velocity": 0.5118110236220472,
                    "duration": 0.14999999999997726
                },
                {
                    "name": "C#7",
                    "midi": 97,
                    "time": 272.84999999999314,
                    "velocity": 0.3700787401574803,
                    "duration": 0.14999999999997726
                },
                {
                    "name": "B5",
                    "midi": 83,
                    "time": 272.9999999999931,
                    "velocity": 0.47244094488188976,
                    "duration": 0.14999999999997726
                },
                {
                    "name": "C#7",
                    "midi": 97,
                    "time": 273.1499999999931,
                    "velocity": 0.3700787401574803,
                    "duration": 0.14999999999997726
                },
                {
                    "name": "A#5",
                    "midi": 82,
                    "time": 273.2999999999931,
                    "velocity": 0.47244094488188976,
                    "duration": 0.14999999999997726
                },
                {
                    "name": "C#7",
                    "midi": 97,
                    "time": 273.44999999999305,
                    "velocity": 0.3700787401574803,
                    "duration": 0.14999999999997726
                },
                {
                    "name": "B5",
                    "midi": 83,
                    "time": 273.59999999999303,
                    "velocity": 0.4881889763779528,
                    "duration": 0.14999999999997726
                },
                {
                    "name": "C#7",
                    "midi": 97,
                    "time": 273.749999999993,
                    "velocity": 0.3700787401574803,
                    "duration": 0.14999999999997726
                },
                {
                    "name": "D#6",
                    "midi": 87,
                    "time": 273.899999999993,
                    "velocity": 0.5118110236220472,
                    "duration": 0.14999999999997726
                },
                {
                    "name": "C#7",
                    "midi": 97,
                    "time": 274.04999999999296,
                    "velocity": 0.3779527559055118,
                    "duration": 0.14999999999997726
                },
                {
                    "name": "B5",
                    "midi": 83,
                    "time": 274.19999999999294,
                    "velocity": 0.4881889763779528,
                    "duration": 0.14999999999997726
                },
                {
                    "name": "C#7",
                    "midi": 97,
                    "time": 274.3499999999929,
                    "velocity": 0.3700787401574803,
                    "duration": 0.14999999999997726
                },
                {
                    "name": "F#6",
                    "midi": 90,
                    "time": 274.4999999999929,
                    "velocity": 0.5118110236220472,
                    "duration": 0.14999999999997726
                },
                {
                    "name": "C#7",
                    "midi": 97,
                    "time": 274.6499999999929,
                    "velocity": 0.36220472440944884,
                    "duration": 0.14999999999997726
                },
                {
                    "name": "D#6",
                    "midi": 87,
                    "time": 274.79999999999285,
                    "velocity": 0.48031496062992124,
                    "duration": 0.14999999999997726
                },
                {
                    "name": "C#7",
                    "midi": 97,
                    "time": 274.9499999999928,
                    "velocity": 0.3779527559055118,
                    "duration": 0.14999999999997726
                },
                {
                    "name": "C#6",
                    "midi": 85,
                    "time": 275.0999999999928,
                    "velocity": 0.5118110236220472,
                    "duration": 0.14999999999997726
                },
                {
                    "name": "C#7",
                    "midi": 97,
                    "time": 275.2499999999928,
                    "velocity": 0.3700787401574803,
                    "duration": 0.14999999999997726
                },
                {
                    "name": "A#5",
                    "midi": 82,
                    "time": 275.39999999999276,
                    "velocity": 0.47244094488188976,
                    "duration": 0.14999999999997726
                },
                {
                    "name": "C#7",
                    "midi": 97,
                    "time": 275.54999999999274,
                    "velocity": 0.3700787401574803,
                    "duration": 0.14999999999997726
                },
                {
                    "name": "A5",
                    "midi": 81,
                    "time": 275.6999999999927,
                    "velocity": 0.47244094488188976,
                    "duration": 0.14999999999997726
                },
                {
                    "name": "C#7",
                    "midi": 97,
                    "time": 275.8499999999927,
                    "velocity": 0.3700787401574803,
                    "duration": 0.14999999999997726
                },
                {
                    "name": "A#5",
                    "midi": 82,
                    "time": 275.99999999999267,
                    "velocity": 0.4881889763779528,
                    "duration": 0.14999999999997726
                },
                {
                    "name": "C#7",
                    "midi": 97,
                    "time": 276.14999999999264,
                    "velocity": 0.3700787401574803,
                    "duration": 0.14999999999997726
                },
                {
                    "name": "C#6",
                    "midi": 85,
                    "time": 276.2999999999926,
                    "velocity": 0.5118110236220472,
                    "duration": 0.14999999999997726
                },
                {
                    "name": "C#7",
                    "midi": 97,
                    "time": 276.4499999999926,
                    "velocity": 0.3779527559055118,
                    "duration": 0.14999999999997726
                },
                {
                    "name": "A#5",
                    "midi": 82,
                    "time": 276.5999999999926,
                    "velocity": 0.4881889763779528,
                    "duration": 0.14999999999997726
                },
                {
                    "name": "C#7",
                    "midi": 97,
                    "time": 276.74999999999255,
                    "velocity": 0.3700787401574803,
                    "duration": 0.14999999999997726
                },
                {
                    "name": "F#6",
                    "midi": 90,
                    "time": 276.89999999999253,
                    "velocity": 0.5118110236220472,
                    "duration": 0.14999999999997726
                },
                {
                    "name": "C#7",
                    "midi": 97,
                    "time": 277.0499999999925,
                    "velocity": 0.36220472440944884,
                    "duration": 0.14999999999997726
                },
                {
                    "name": "C#6",
                    "midi": 85,
                    "time": 277.1999999999925,
                    "velocity": 0.48031496062992124,
                    "duration": 0.14999999999997726
                },
                {
                    "name": "C#7",
                    "midi": 97,
                    "time": 277.34999999999246,
                    "velocity": 0.3779527559055118,
                    "duration": 0.14999999999997726
                },
                {
                    "name": "B5",
                    "midi": 83,
                    "time": 277.49999999999244,
                    "velocity": 0.4330708661417323,
                    "duration": 0.14999999999997726
                },
                {
                    "name": "F6",
                    "midi": 89,
                    "time": 277.49999999999244,
                    "velocity": 0.5118110236220472,
                    "duration": 0.14999999999997726
                },
                {
                    "name": "C#7",
                    "midi": 97,
                    "time": 277.6499999999924,
                    "velocity": 0.3779527559055118,
                    "duration": 0.14999999999997726
                },
                {
                    "name": "G#6",
                    "midi": 92,
                    "time": 277.7999999999924,
                    "velocity": 0.4881889763779528,
                    "duration": 0.1875
                },
                {
                    "name": "C#6",
                    "midi": 85,
                    "time": 277.7999999999924,
                    "velocity": 0.4094488188976378,
                    "duration": 0.1875
                },
                {
                    "name": "C#7",
                    "midi": 97,
                    "time": 277.9499999999924,
                    "velocity": 0.3700787401574803,
                    "duration": 0.1500000000000341
                },
                {
                    "name": "B5",
                    "midi": 83,
                    "time": 278.0999999999924,
                    "velocity": 0.4330708661417323,
                    "duration": 0.14999999999997726
                },
                {
                    "name": "F6",
                    "midi": 89,
                    "time": 278.0999999999924,
                    "velocity": 0.5118110236220472,
                    "duration": 0.14999999999997726
                },
                {
                    "name": "C#7",
                    "midi": 97,
                    "time": 278.2499999999924,
                    "velocity": 0.36220472440944884,
                    "duration": 0.14999999999997726
                },
                {
                    "name": "C#6",
                    "midi": 85,
                    "time": 278.39999999999236,
                    "velocity": 0.4015748031496063,
                    "duration": 0.1875
                },
                {
                    "name": "G#6",
                    "midi": 92,
                    "time": 278.39999999999236,
                    "velocity": 0.48031496062992124,
                    "duration": 0.1875
                },
                {
                    "name": "C#7",
                    "midi": 97,
                    "time": 278.54999999999234,
                    "velocity": 0.3779527559055118,
                    "duration": 0.1500000000000341
                },
                {
                    "name": "F6",
                    "midi": 89,
                    "time": 278.6999999999924,
                    "velocity": 0.5118110236220472,
                    "duration": 0.14999999999997726
                },
                {
                    "name": "B5",
                    "midi": 83,
                    "time": 278.6999999999924,
                    "velocity": 0.4330708661417323,
                    "duration": 0.14999999999997726
                },
                {
                    "name": "C#7",
                    "midi": 97,
                    "time": 278.84999999999235,
                    "velocity": 0.3779527559055118,
                    "duration": 0.14999999999997726
                },
                {
                    "name": "C#6",
                    "midi": 85,
                    "time": 278.9999999999923,
                    "velocity": 0.4094488188976378,
                    "duration": 0.1875
                },
                {
                    "name": "G#6",
                    "midi": 92,
                    "time": 278.9999999999923,
                    "velocity": 0.4881889763779528,
                    "duration": 0.1875
                },
                {
                    "name": "C#7",
                    "midi": 97,
                    "time": 279.1499999999923,
                    "velocity": 0.3700787401574803,
                    "duration": 0.1500000000000341
                },
                {
                    "name": "B5",
                    "midi": 83,
                    "time": 279.29999999999234,
                    "velocity": 0.4330708661417323,
                    "duration": 0.14999999999997726
                },
                {
                    "name": "F6",
                    "midi": 89,
                    "time": 279.29999999999234,
                    "velocity": 0.5118110236220472,
                    "duration": 0.14999999999997726
                },
                {
                    "name": "C#7",
                    "midi": 97,
                    "time": 279.4499999999923,
                    "velocity": 0.36220472440944884,
                    "duration": 0.14999999999997726
                },
                {
                    "name": "C#6",
                    "midi": 85,
                    "time": 279.5999999999923,
                    "velocity": 0.4015748031496063,
                    "duration": 0.1875
                },
                {
                    "name": "G#6",
                    "midi": 92,
                    "time": 279.5999999999923,
                    "velocity": 0.48031496062992124,
                    "duration": 0.1875
                },
                {
                    "name": "C#7",
                    "midi": 97,
                    "time": 279.74999999999227,
                    "velocity": 0.3779527559055118,
                    "duration": 0.1500000000000341
                },
                {
                    "name": "F#6",
                    "midi": 90,
                    "time": 279.8999999999923,
                    "velocity": 0.5118110236220472,
                    "duration": 0.14999999999997726
                },
                {
                    "name": "A#5",
                    "midi": 82,
                    "time": 279.8999999999923,
                    "velocity": 0.4330708661417323,
                    "duration": 0.14999999999997726
                },
                {
                    "name": "C#7",
                    "midi": 97,
                    "time": 280.0499999999923,
                    "velocity": 0.3779527559055118,
                    "duration": 0.14999999999997726
                },
                {
                    "name": "A#6",
                    "midi": 94,
                    "time": 280.19999999999226,
                    "velocity": 0.4881889763779528,
                    "duration": 0.1875
                },
                {
                    "name": "C#6",
                    "midi": 85,
                    "time": 280.19999999999226,
                    "velocity": 0.4094488188976378,
                    "duration": 0.1875
                },
                {
                    "name": "C#7",
                    "midi": 97,
                    "time": 280.34999999999224,
                    "velocity": 0.3700787401574803,
                    "duration": 0.1500000000000341
                },
                {
                    "name": "F#6",
                    "midi": 90,
                    "time": 280.49999999999227,
                    "velocity": 0.5118110236220472,
                    "duration": 0.14999999999997726
                },
                {
                    "name": "A#5",
                    "midi": 82,
                    "time": 280.49999999999227,
                    "velocity": 0.4330708661417323,
                    "duration": 0.14999999999997726
                },
                {
                    "name": "C#7",
                    "midi": 97,
                    "time": 280.64999999999225,
                    "velocity": 0.36220472440944884,
                    "duration": 0.14999999999997726
                },
                {
                    "name": "A#6",
                    "midi": 94,
                    "time": 280.7999999999922,
                    "velocity": 0.48031496062992124,
                    "duration": 0.1875
                },
                {
                    "name": "C#6",
                    "midi": 85,
                    "time": 280.7999999999922,
                    "velocity": 0.4015748031496063,
                    "duration": 0.1875
                },
                {
                    "name": "C#7",
                    "midi": 97,
                    "time": 280.9499999999922,
                    "velocity": 0.3779527559055118,
                    "duration": 0.1500000000000341
                },
                {
                    "name": "A#5",
                    "midi": 82,
                    "time": 281.09999999999224,
                    "velocity": 0.4330708661417323,
                    "duration": 0.14999999999997726
                },
                {
                    "name": "F#6",
                    "midi": 90,
                    "time": 281.09999999999224,
                    "velocity": 0.5118110236220472,
                    "duration": 0.14999999999997726
                },
                {
                    "name": "C#7",
                    "midi": 97,
                    "time": 281.2499999999922,
                    "velocity": 0.3779527559055118,
                    "duration": 0.14999999999997726
                },
                {
                    "name": "C#6",
                    "midi": 85,
                    "time": 281.3999999999922,
                    "velocity": 0.4094488188976378,
                    "duration": 0.1875
                },
                {
                    "name": "A#6",
                    "midi": 94,
                    "time": 281.3999999999922,
                    "velocity": 0.4881889763779528,
                    "duration": 0.1875
                },
                {
                    "name": "C#7",
                    "midi": 97,
                    "time": 281.54999999999217,
                    "velocity": 0.3700787401574803,
                    "duration": 0.1500000000000341
                },
                {
                    "name": "A#5",
                    "midi": 82,
                    "time": 281.6999999999922,
                    "velocity": 0.4330708661417323,
                    "duration": 0.14999999999997726
                },
                {
                    "name": "F#6",
                    "midi": 90,
                    "time": 281.6999999999922,
                    "velocity": 0.5118110236220472,
                    "duration": 0.14999999999997726
                },
                {
                    "name": "C#7",
                    "midi": 97,
                    "time": 281.8499999999922,
                    "velocity": 0.36220472440944884,
                    "duration": 0.14999999999997726
                },
                {
                    "name": "C#6",
                    "midi": 85,
                    "time": 281.99999999999216,
                    "velocity": 0.4015748031496063,
                    "duration": 0.1875
                },
                {
                    "name": "A#6",
                    "midi": 94,
                    "time": 281.99999999999216,
                    "velocity": 0.48031496062992124,
                    "duration": 0.1875
                },
                {
                    "name": "C#7",
                    "midi": 97,
                    "time": 282.14999999999213,
                    "velocity": 0.3779527559055118,
                    "duration": 0.1500000000000341
                },
                {
                    "name": "B5",
                    "midi": 83,
                    "time": 282.29999999999217,
                    "velocity": 0.4330708661417323,
                    "duration": 0.14999999999997726
                },
                {
                    "name": "F6",
                    "midi": 89,
                    "time": 282.29999999999217,
                    "velocity": 0.5118110236220472,
                    "duration": 0.14999999999997726
                },
                {
                    "name": "C#7",
                    "midi": 97,
                    "time": 282.44999999999214,
                    "velocity": 0.3779527559055118,
                    "duration": 0.14999999999997726
                },
                {
                    "name": "G#6",
                    "midi": 92,
                    "time": 282.5999999999921,
                    "velocity": 0.4881889763779528,
                    "duration": 0.1875
                },
                {
                    "name": "C#6",
                    "midi": 85,
                    "time": 282.5999999999921,
                    "velocity": 0.4094488188976378,
                    "duration": 0.1875
                },
                {
                    "name": "C#7",
                    "midi": 97,
                    "time": 282.7499999999921,
                    "velocity": 0.3700787401574803,
                    "duration": 0.1500000000000341
                },
                {
                    "name": "B5",
                    "midi": 83,
                    "time": 282.89999999999213,
                    "velocity": 0.4330708661417323,
                    "duration": 0.14999999999997726
                },
                {
                    "name": "F6",
                    "midi": 89,
                    "time": 282.89999999999213,
                    "velocity": 0.5118110236220472,
                    "duration": 0.14999999999997726
                },
                {
                    "name": "C#7",
                    "midi": 97,
                    "time": 283.0499999999921,
                    "velocity": 0.36220472440944884,
                    "duration": 0.14999999999997726
                },
                {
                    "name": "G#6",
                    "midi": 92,
                    "time": 283.1999999999921,
                    "velocity": 0.48031496062992124,
                    "duration": 0.1875
                },
                {
                    "name": "C#6",
                    "midi": 85,
                    "time": 283.1999999999921,
                    "velocity": 0.4015748031496063,
                    "duration": 0.1875
                },
                {
                    "name": "C#7",
                    "midi": 97,
                    "time": 283.34999999999206,
                    "velocity": 0.3779527559055118,
                    "duration": 0.1500000000000341
                },
                {
                    "name": "F6",
                    "midi": 89,
                    "time": 283.4999999999921,
                    "velocity": 0.5118110236220472,
                    "duration": 0.14999999999997726
                },
                {
                    "name": "B5",
                    "midi": 83,
                    "time": 283.4999999999921,
                    "velocity": 0.4330708661417323,
                    "duration": 0.14999999999997726
                },
                {
                    "name": "C#7",
                    "midi": 97,
                    "time": 283.6499999999921,
                    "velocity": 0.3779527559055118,
                    "duration": 0.14999999999997726
                },
                {
                    "name": "C#6",
                    "midi": 85,
                    "time": 283.79999999999205,
                    "velocity": 0.4094488188976378,
                    "duration": 0.1875
                },
                {
                    "name": "G#6",
                    "midi": 92,
                    "time": 283.79999999999205,
                    "velocity": 0.4881889763779528,
                    "duration": 0.1875
                },
                {
                    "name": "C#7",
                    "midi": 97,
                    "time": 283.94999999999203,
                    "velocity": 0.3700787401574803,
                    "duration": 0.1500000000000341
                },
                {
                    "name": "B5",
                    "midi": 83,
                    "time": 284.09999999999206,
                    "velocity": 0.4330708661417323,
                    "duration": 0.14999999999997726
                },
                {
                    "name": "F6",
                    "midi": 89,
                    "time": 284.09999999999206,
                    "velocity": 0.5118110236220472,
                    "duration": 0.14999999999997726
                },
                {
                    "name": "C#7",
                    "midi": 97,
                    "time": 284.24999999999204,
                    "velocity": 0.36220472440944884,
                    "duration": 0.14999999999997726
                },
                {
                    "name": "C#6",
                    "midi": 85,
                    "time": 284.399999999992,
                    "velocity": 0.4015748031496063,
                    "duration": 0.1875
                },
                {
                    "name": "G#6",
                    "midi": 92,
                    "time": 284.399999999992,
                    "velocity": 0.48031496062992124,
                    "duration": 0.1875
                },
                {
                    "name": "C#7",
                    "midi": 97,
                    "time": 284.549999999992,
                    "velocity": 0.3779527559055118,
                    "duration": 0.1500000000000341
                },
                {
                    "name": "A#5",
                    "midi": 82,
                    "time": 284.69999999999203,
                    "velocity": 0.4330708661417323,
                    "duration": 0.14999999999997726
                },
                {
                    "name": "F#6",
                    "midi": 90,
                    "time": 284.69999999999203,
                    "velocity": 0.5118110236220472,
                    "duration": 0.14999999999997726
                },
                {
                    "name": "C#7",
                    "midi": 97,
                    "time": 284.849999999992,
                    "velocity": 0.3779527559055118,
                    "duration": 0.14999999999997726
                },
                {
                    "name": "C#6",
                    "midi": 85,
                    "time": 284.999999999992,
                    "velocity": 0.4094488188976378,
                    "duration": 0.1875
                },
                {
                    "name": "A#6",
                    "midi": 94,
                    "time": 284.999999999992,
                    "velocity": 0.4881889763779528,
                    "duration": 0.1875
                },
                {
                    "name": "C#7",
                    "midi": 97,
                    "time": 285.14999999999196,
                    "velocity": 0.3700787401574803,
                    "duration": 0.1500000000000341
                },
                {
                    "name": "A#5",
                    "midi": 82,
                    "time": 285.299999999992,
                    "velocity": 0.4330708661417323,
                    "duration": 0.14999999999997726
                },
                {
                    "name": "F#6",
                    "midi": 90,
                    "time": 285.299999999992,
                    "velocity": 0.5118110236220472,
                    "duration": 0.14999999999997726
                },
                {
                    "name": "C#7",
                    "midi": 97,
                    "time": 285.449999999992,
                    "velocity": 0.36220472440944884,
                    "duration": 0.14999999999997726
                },
                {
                    "name": "C#6",
                    "midi": 85,
                    "time": 285.59999999999195,
                    "velocity": 0.4015748031496063,
                    "duration": 0.1875
                },
                {
                    "name": "A#6",
                    "midi": 94,
                    "time": 285.59999999999195,
                    "velocity": 0.48031496062992124,
                    "duration": 0.1875
                },
                {
                    "name": "C#7",
                    "midi": 97,
                    "time": 285.7499999999919,
                    "velocity": 0.3779527559055118,
                    "duration": 0.1500000000000341
                },
                {
                    "name": "A#5",
                    "midi": 82,
                    "time": 285.89999999999196,
                    "velocity": 0.4330708661417323,
                    "duration": 0.14999999999997726
                },
                {
                    "name": "F#6",
                    "midi": 90,
                    "time": 285.89999999999196,
                    "velocity": 0.5118110236220472,
                    "duration": 0.14999999999997726
                },
                {
                    "name": "C#7",
                    "midi": 97,
                    "time": 286.04999999999194,
                    "velocity": 0.3779527559055118,
                    "duration": 0.14999999999997726
                },
                {
                    "name": "A#6",
                    "midi": 94,
                    "time": 286.1999999999919,
                    "velocity": 0.4881889763779528,
                    "duration": 0.1875
                },
                {
                    "name": "C#6",
                    "midi": 85,
                    "time": 286.1999999999919,
                    "velocity": 0.4094488188976378,
                    "duration": 0.1875
                },
                {
                    "name": "C#7",
                    "midi": 97,
                    "time": 286.3499999999919,
                    "velocity": 0.3700787401574803,
                    "duration": 0.1500000000000341
                },
                {
                    "name": "A#5",
                    "midi": 82,
                    "time": 286.4999999999919,
                    "velocity": 0.4330708661417323,
                    "duration": 0.14999999999997726
                },
                {
                    "name": "F#6",
                    "midi": 90,
                    "time": 286.4999999999919,
                    "velocity": 0.5118110236220472,
                    "duration": 0.14999999999997726
                },
                {
                    "name": "C#7",
                    "midi": 97,
                    "time": 286.6499999999919,
                    "velocity": 0.36220472440944884,
                    "duration": 0.14999999999997726
                },
                {
                    "name": "C#6",
                    "midi": 85,
                    "time": 286.7999999999919,
                    "velocity": 0.4015748031496063,
                    "duration": 0.1875
                },
                {
                    "name": "A#6",
                    "midi": 94,
                    "time": 286.7999999999919,
                    "velocity": 0.48031496062992124,
                    "duration": 0.1875
                },
                {
                    "name": "C#7",
                    "midi": 97,
                    "time": 286.94999999999186,
                    "velocity": 0.3779527559055118,
                    "duration": 0.1500000000000341
                },
                {
                    "name": "B5",
                    "midi": 83,
                    "time": 287.0999999999919,
                    "velocity": 0.4330708661417323,
                    "duration": 0.14999999999997726
                },
                {
                    "name": "F6",
                    "midi": 89,
                    "time": 287.0999999999919,
                    "velocity": 0.5118110236220472,
                    "duration": 0.14999999999997726
                },
                {
                    "name": "C#7",
                    "midi": 97,
                    "time": 287.24999999999187,
                    "velocity": 0.3779527559055118,
                    "duration": 0.14999999999997726
                },
                {
                    "name": "G#6",
                    "midi": 92,
                    "time": 287.39999999999185,
                    "velocity": 0.4881889763779528,
                    "duration": 0.1875
                },
                {
                    "name": "C#6",
                    "midi": 85,
                    "time": 287.39999999999185,
                    "velocity": 0.4094488188976378,
                    "duration": 0.1875
                },
                {
                    "name": "C#7",
                    "midi": 97,
                    "time": 287.5499999999918,
                    "velocity": 0.3700787401574803,
                    "duration": 0.1500000000000341
                },
                {
                    "name": "F6",
                    "midi": 89,
                    "time": 287.69999999999186,
                    "velocity": 0.5118110236220472,
                    "duration": 0.14999999999997726
                },
                {
                    "name": "B5",
                    "midi": 83,
                    "time": 287.69999999999186,
                    "velocity": 0.4330708661417323,
                    "duration": 0.14999999999997726
                },
                {
                    "name": "C#7",
                    "midi": 97,
                    "time": 287.84999999999184,
                    "velocity": 0.36220472440944884,
                    "duration": 0.14999999999997726
                },
                {
                    "name": "C#6",
                    "midi": 85,
                    "time": 287.9999999999918,
                    "velocity": 0.4015748031496063,
                    "duration": 0.1875
                },
                {
                    "name": "G#6",
                    "midi": 92,
                    "time": 287.9999999999918,
                    "velocity": 0.48031496062992124,
                    "duration": 0.1875
                },
                {
                    "name": "C#7",
                    "midi": 97,
                    "time": 288.1499999999918,
                    "velocity": 0.3779527559055118,
                    "duration": 0.1500000000000341
                },
                {
                    "name": "F6",
                    "midi": 89,
                    "time": 288.2999999999918,
                    "velocity": 0.5118110236220472,
                    "duration": 0.14999999999997726
                },
                {
                    "name": "B5",
                    "midi": 83,
                    "time": 288.2999999999918,
                    "velocity": 0.4330708661417323,
                    "duration": 0.14999999999997726
                },
                {
                    "name": "C#7",
                    "midi": 97,
                    "time": 288.4499999999918,
                    "velocity": 0.3779527559055118,
                    "duration": 0.14999999999997726
                },
                {
                    "name": "C#6",
                    "midi": 85,
                    "time": 288.5999999999918,
                    "velocity": 0.4094488188976378,
                    "duration": 0.1875
                },
                {
                    "name": "G#6",
                    "midi": 92,
                    "time": 288.5999999999918,
                    "velocity": 0.4881889763779528,
                    "duration": 0.1875
                },
                {
                    "name": "C#7",
                    "midi": 97,
                    "time": 288.74999999999176,
                    "velocity": 0.3700787401574803,
                    "duration": 0.1500000000000341
                },
                {
                    "name": "F6",
                    "midi": 89,
                    "time": 288.8999999999918,
                    "velocity": 0.5118110236220472,
                    "duration": 0.6000000000000227
                },
                {
                    "name": "C#6",
                    "midi": 85,
                    "time": 288.8999999999918,
                    "velocity": 0.4330708661417323,
                    "duration": 0.6000000000000227
                },
                {
                    "name": "F5",
                    "midi": 77,
                    "time": 288.8999999999918,
                    "velocity": 0.4330708661417323,
                    "duration": 0.6000000000000227
                },
                {
                    "name": "A#5",
                    "midi": 82,
                    "time": 289.4999999999918,
                    "velocity": 0.4330708661417323,
                    "duration": 0.14999999999997726
                },
                {
                    "name": "F#6",
                    "midi": 90,
                    "time": 289.4999999999918,
                    "velocity": 0.5118110236220472,
                    "duration": 0.14999999999997726
                },
                {
                    "name": "C#7",
                    "midi": 97,
                    "time": 289.6499999999918,
                    "velocity": 0.3779527559055118,
                    "duration": 0.14999999999997726
                },
                {
                    "name": "A#6",
                    "midi": 94,
                    "time": 289.79999999999177,
                    "velocity": 0.4881889763779528,
                    "duration": 0.1875
                },
                {
                    "name": "C#6",
                    "midi": 85,
                    "time": 289.79999999999177,
                    "velocity": 0.4094488188976378,
                    "duration": 0.1875
                },
                {
                    "name": "C#7",
                    "midi": 97,
                    "time": 289.94999999999175,
                    "velocity": 0.3700787401574803,
                    "duration": 0.1500000000000341
                },
                {
                    "name": "F#6",
                    "midi": 90,
                    "time": 290.0999999999918,
                    "velocity": 0.5118110236220472,
                    "duration": 0.14999999999997726
                },
                {
                    "name": "A#5",
                    "midi": 82,
                    "time": 290.0999999999918,
                    "velocity": 0.4330708661417323,
                    "duration": 0.14999999999997726
                },
                {
                    "name": "C#7",
                    "midi": 97,
                    "time": 290.24999999999176,
                    "velocity": 0.36220472440944884,
                    "duration": 0.14999999999997726
                },
                {
                    "name": "A#6",
                    "midi": 94,
                    "time": 290.39999999999173,
                    "velocity": 0.48031496062992124,
                    "duration": 0.1875
                },
                {
                    "name": "C#6",
                    "midi": 85,
                    "time": 290.39999999999173,
                    "velocity": 0.4015748031496063,
                    "duration": 0.1875
                },
                {
                    "name": "C#7",
                    "midi": 97,
                    "time": 290.5499999999917,
                    "velocity": 0.3779527559055118,
                    "duration": 0.1500000000000341
                },
                {
                    "name": "A#5",
                    "midi": 82,
                    "time": 290.69999999999175,
                    "velocity": 0.4330708661417323,
                    "duration": 0.14999999999997726
                },
                {
                    "name": "F#6",
                    "midi": 90,
                    "time": 290.69999999999175,
                    "velocity": 0.5118110236220472,
                    "duration": 0.14999999999997726
                },
                {
                    "name": "C#7",
                    "midi": 97,
                    "time": 290.8499999999917,
                    "velocity": 0.3779527559055118,
                    "duration": 0.14999999999997726
                },
                {
                    "name": "A#6",
                    "midi": 94,
                    "time": 290.9999999999917,
                    "velocity": 0.4881889763779528,
                    "duration": 0.1875
                },
                {
                    "name": "C#6",
                    "midi": 85,
                    "time": 290.9999999999917,
                    "velocity": 0.4094488188976378,
                    "duration": 0.1875
                },
                {
                    "name": "C#7",
                    "midi": 97,
                    "time": 291.1499999999917,
                    "velocity": 0.3700787401574803,
                    "duration": 0.1500000000000341
                },
                {
                    "name": "C#6",
                    "midi": 85,
                    "time": 291.2999999999917,
                    "velocity": 0.4330708661417323,
                    "duration": 0.6000000000000227
                },
                {
                    "name": "F#6",
                    "midi": 90,
                    "time": 291.2999999999917,
                    "velocity": 0.5118110236220472,
                    "duration": 0.6000000000000227
                },
                {
                    "name": "F#5",
                    "midi": 78,
                    "time": 291.2999999999917,
                    "velocity": 0.4330708661417323,
                    "duration": 0.6000000000000227
                },
                {
                    "name": "F6",
                    "midi": 89,
                    "time": 291.89999999999173,
                    "velocity": 0.5118110236220472,
                    "duration": 0.14999999999997726
                },
                {
                    "name": "B5",
                    "midi": 83,
                    "time": 291.89999999999173,
                    "velocity": 0.4330708661417323,
                    "duration": 0.14999999999997726
                },
                {
                    "name": "C#7",
                    "midi": 97,
                    "time": 292.0499999999917,
                    "velocity": 0.3779527559055118,
                    "duration": 0.14999999999997726
                },
                {
                    "name": "G#6",
                    "midi": 92,
                    "time": 292.1999999999917,
                    "velocity": 0.4881889763779528,
                    "duration": 0.1875
                },
                {
                    "name": "C#6",
                    "midi": 85,
                    "time": 292.1999999999917,
                    "velocity": 0.4094488188976378,
                    "duration": 0.1875
                },
                {
                    "name": "C#7",
                    "midi": 97,
                    "time": 292.34999999999167,
                    "velocity": 0.3700787401574803,
                    "duration": 0.1500000000000341
                },
                {
                    "name": "F6",
                    "midi": 89,
                    "time": 292.4999999999917,
                    "velocity": 0.5118110236220472,
                    "duration": 0.14999999999997726
                },
                {
                    "name": "B5",
                    "midi": 83,
                    "time": 292.4999999999917,
                    "velocity": 0.4330708661417323,
                    "duration": 0.14999999999997726
                },
                {
                    "name": "C#7",
                    "midi": 97,
                    "time": 292.6499999999917,
                    "velocity": 0.36220472440944884,
                    "duration": 0.14999999999997726
                },
                {
                    "name": "C#6",
                    "midi": 85,
                    "time": 292.79999999999166,
                    "velocity": 0.4015748031496063,
                    "duration": 0.1875
                },
                {
                    "name": "G#6",
                    "midi": 92,
                    "time": 292.79999999999166,
                    "velocity": 0.48031496062992124,
                    "duration": 0.1875
                },
                {
                    "name": "C#7",
                    "midi": 97,
                    "time": 292.94999999999163,
                    "velocity": 0.3779527559055118,
                    "duration": 0.1500000000000341
                },
                {
                    "name": "B5",
                    "midi": 83,
                    "time": 293.09999999999167,
                    "velocity": 0.4330708661417323,
                    "duration": 0.14999999999997726
                },
                {
                    "name": "F6",
                    "midi": 89,
                    "time": 293.09999999999167,
                    "velocity": 0.5118110236220472,
                    "duration": 0.14999999999997726
                },
                {
                    "name": "C#7",
                    "midi": 97,
                    "time": 293.24999999999164,
                    "velocity": 0.3779527559055118,
                    "duration": 0.14999999999997726
                },
                {
                    "name": "C#6",
                    "midi": 85,
                    "time": 293.3999999999916,
                    "velocity": 0.4094488188976378,
                    "duration": 0.1875
                },
                {
                    "name": "G#6",
                    "midi": 92,
                    "time": 293.3999999999916,
                    "velocity": 0.4881889763779528,
                    "duration": 0.1875
                },
                {
                    "name": "C#7",
                    "midi": 97,
                    "time": 293.5499999999916,
                    "velocity": 0.3700787401574803,
                    "duration": 0.1500000000000341
                },
                {
                    "name": "F6",
                    "midi": 89,
                    "time": 293.69999999999163,
                    "velocity": 0.5118110236220472,
                    "duration": 0.6000000000000227
                },
                {
                    "name": "C#6",
                    "midi": 85,
                    "time": 293.69999999999163,
                    "velocity": 0.4330708661417323,
                    "duration": 0.6000000000000227
                },
                {
                    "name": "F5",
                    "midi": 77,
                    "time": 293.69999999999163,
                    "velocity": 0.4330708661417323,
                    "duration": 0.6000000000000227
                },
                {
                    "name": "F#6",
                    "midi": 90,
                    "time": 294.29999999999166,
                    "velocity": 0.5118110236220472,
                    "duration": 0.14999999999997726
                },
                {
                    "name": "A#5",
                    "midi": 82,
                    "time": 294.29999999999166,
                    "velocity": 0.4330708661417323,
                    "duration": 0.14999999999997726
                },
                {
                    "name": "C#7",
                    "midi": 97,
                    "time": 294.44999999999163,
                    "velocity": 0.3779527559055118,
                    "duration": 0.14999999999997726
                },
                {
                    "name": "C#6",
                    "midi": 85,
                    "time": 294.5999999999916,
                    "velocity": 0.4094488188976378,
                    "duration": 0.1875
                },
                {
                    "name": "A#6",
                    "midi": 94,
                    "time": 294.5999999999916,
                    "velocity": 0.4881889763779528,
                    "duration": 0.1875
                },
                {
                    "name": "C#7",
                    "midi": 97,
                    "time": 294.7499999999916,
                    "velocity": 0.3700787401574803,
                    "duration": 0.1500000000000341
                },
                {
                    "name": "A#5",
                    "midi": 82,
                    "time": 294.8999999999916,
                    "velocity": 0.4330708661417323,
                    "duration": 0.14999999999997726
                },
                {
                    "name": "F#6",
                    "midi": 90,
                    "time": 294.8999999999916,
                    "velocity": 0.5118110236220472,
                    "duration": 0.14999999999997726
                },
                {
                    "name": "C#7",
                    "midi": 97,
                    "time": 295.0499999999916,
                    "velocity": 0.36220472440944884,
                    "duration": 0.14999999999997726
                },
                {
                    "name": "C#6",
                    "midi": 85,
                    "time": 295.1999999999916,
                    "velocity": 0.4015748031496063,
                    "duration": 0.1875
                },
                {
                    "name": "A#6",
                    "midi": 94,
                    "time": 295.1999999999916,
                    "velocity": 0.48031496062992124,
                    "duration": 0.1875
                },
                {
                    "name": "C#7",
                    "midi": 97,
                    "time": 295.34999999999155,
                    "velocity": 0.3779527559055118,
                    "duration": 0.1500000000000341
                },
                {
                    "name": "A#5",
                    "midi": 82,
                    "time": 295.4999999999916,
                    "velocity": 0.4330708661417323,
                    "duration": 0.14999999999997726
                },
                {
                    "name": "F#6",
                    "midi": 90,
                    "time": 295.4999999999916,
                    "velocity": 0.5118110236220472,
                    "duration": 0.14999999999997726
                },
                {
                    "name": "C#7",
                    "midi": 97,
                    "time": 295.64999999999156,
                    "velocity": 0.3779527559055118,
                    "duration": 0.14999999999997726
                },
                {
                    "name": "C#6",
                    "midi": 85,
                    "time": 295.79999999999154,
                    "velocity": 0.4094488188976378,
                    "duration": 0.1875
                },
                {
                    "name": "A#6",
                    "midi": 94,
                    "time": 295.79999999999154,
                    "velocity": 0.4881889763779528,
                    "duration": 0.1875
                },
                {
                    "name": "C#7",
                    "midi": 97,
                    "time": 295.9499999999915,
                    "velocity": 0.3700787401574803,
                    "duration": 0.1500000000000341
                },
                {
                    "name": "C#6",
                    "midi": 85,
                    "time": 296.09999999999155,
                    "velocity": 0.4330708661417323,
                    "duration": 0.5999999999999659
                },
                {
                    "name": "F#5",
                    "midi": 78,
                    "time": 296.09999999999155,
                    "velocity": 0.4330708661417323,
                    "duration": 0.5999999999999659
                },
                {
                    "name": "F#6",
                    "midi": 90,
                    "time": 296.09999999999155,
                    "velocity": 0.5118110236220472,
                    "duration": 0.5999999999999659
                },
                {
                    "name": "B5",
                    "midi": 83,
                    "time": 296.62499999999153,
                    "velocity": 0.5196850393700787,
                    "duration": 0.07499999999998863
                },
                {
                    "name": "D#7",
                    "midi": 99,
                    "time": 296.6999999999915,
                    "velocity": 0.6456692913385826,
                    "duration": 0.14999999999997726
                },
                {
                    "name": "G#5",
                    "midi": 80,
                    "time": 297.2999999999915,
                    "velocity": 0.5118110236220472,
                    "duration": 0.8999999999999773
                },
                {
                    "name": "A#5",
                    "midi": 82,
                    "time": 298.19999999999146,
                    "velocity": 0.5118110236220472,
                    "duration": 0.14999999999997726
                },
                {
                    "name": "B5",
                    "midi": 83,
                    "time": 298.4999999999914,
                    "velocity": 0.5433070866141733,
                    "duration": 0.14999999999997726
                },
                {
                    "name": "G#5",
                    "midi": 80,
                    "time": 298.79999999999137,
                    "velocity": 0.5118110236220472,
                    "duration": 0.14999999999997726
                },
                {
                    "name": "A#5",
                    "midi": 82,
                    "time": 299.02499999999134,
                    "velocity": 0.49606299212598426,
                    "duration": 0.07499999999998863
                },
                {
                    "name": "C#7",
                    "midi": 97,
                    "time": 299.0999999999913,
                    "velocity": 0.6535433070866141,
                    "duration": 0.14999999999997726
                },
                {
                    "name": "F#5",
                    "midi": 78,
                    "time": 299.6999999999913,
                    "velocity": 0.5118110236220472,
                    "duration": 0.8999999999999773
                },
                {
                    "name": "G#5",
                    "midi": 80,
                    "time": 300.59999999999127,
                    "velocity": 0.5118110236220472,
                    "duration": 0.14999999999997726
                },
                {
                    "name": "A#5",
                    "midi": 82,
                    "time": 300.8999999999912,
                    "velocity": 0.5433070866141733,
                    "duration": 0.14999999999997726
                },
                {
                    "name": "F#5",
                    "midi": 78,
                    "time": 301.1999999999912,
                    "velocity": 0.4645669291338583,
                    "duration": 0.14999999999997726
                },
                {
                    "name": "F5",
                    "midi": 77,
                    "time": 301.49999999999113,
                    "velocity": 0.5118110236220472,
                    "duration": 0.14999999999997726
                },
                {
                    "name": "F#5",
                    "midi": 78,
                    "time": 301.7999999999911,
                    "velocity": 0.48031496062992124,
                    "duration": 0.14999999999997726
                },
                {
                    "name": "G#5",
                    "midi": 80,
                    "time": 302.09999999999104,
                    "velocity": 0.5118110236220472,
                    "duration": 0.14999999999997726
                },
                {
                    "name": "A#5",
                    "midi": 82,
                    "time": 302.399999999991,
                    "velocity": 0.48031496062992124,
                    "duration": 0.14999999999997726
                },
                {
                    "name": "B5",
                    "midi": 83,
                    "time": 302.69999999999095,
                    "velocity": 0.5118110236220472,
                    "duration": 0.14999999999997726
                },
                {
                    "name": "C#6",
                    "midi": 85,
                    "time": 302.9999999999909,
                    "velocity": 0.47244094488188976,
                    "duration": 0.14999999999997726
                },
                {
                    "name": "D#6",
                    "midi": 87,
                    "time": 303.29999999999086,
                    "velocity": 0.5118110236220472,
                    "duration": 0.14999999999997726
                },
                {
                    "name": "F6",
                    "midi": 89,
                    "time": 303.5999999999908,
                    "velocity": 0.4645669291338583,
                    "duration": 0.14999999999997726
                },
                {
                    "name": "F#6",
                    "midi": 90,
                    "time": 303.8249999999908,
                    "velocity": 0.48031496062992124,
                    "duration": 0.03750000000002274
                },
                {
                    "name": "G#6",
                    "midi": 92,
                    "time": 303.8624999999908,
                    "velocity": 0.48031496062992124,
                    "duration": 0.03750000000002274
                },
                {
                    "name": "F#6",
                    "midi": 90,
                    "time": 303.8999999999908,
                    "velocity": 0.5905511811023622,
                    "duration": 0.14999999999997726
                },
                {
                    "name": "F6",
                    "midi": 89,
                    "time": 304.1999999999908,
                    "velocity": 0.5118110236220472,
                    "duration": 0.14999999999997726
                },
                {
                    "name": "F#6",
                    "midi": 90,
                    "time": 304.49999999999073,
                    "velocity": 0.5590551181102362,
                    "duration": 0.14999999999997726
                },
                {
                    "name": "G#6",
                    "midi": 92,
                    "time": 304.7999999999907,
                    "velocity": 0.5118110236220472,
                    "duration": 0.14999999999997726
                },
                {
                    "name": "A#6",
                    "midi": 94,
                    "time": 305.09999999999064,
                    "velocity": 0.5748031496062992,
                    "duration": 0.14999999999997726
                },
                {
                    "name": "G#6",
                    "midi": 92,
                    "time": 305.3999999999906,
                    "velocity": 0.5118110236220472,
                    "duration": 0.14999999999997726
                },
                {
                    "name": "A#6",
                    "midi": 94,
                    "time": 305.69999999999055,
                    "velocity": 0.5748031496062992,
                    "duration": 0.14999999999997726
                },
                {
                    "name": "F#6",
                    "midi": 90,
                    "time": 305.9999999999905,
                    "velocity": 0.5118110236220472,
                    "duration": 0.14999999999997726
                },
                {
                    "name": "B5",
                    "midi": 83,
                    "time": 306.2249999999905,
                    "velocity": 0.3937007874015748,
                    "duration": 0.024999999999977263
                },
                {
                    "name": "F6",
                    "midi": 89,
                    "time": 306.24999999999045,
                    "velocity": 0.4251968503937008,
                    "duration": 0.024999999999977263
                },
                {
                    "name": "G#6",
                    "midi": 92,
                    "time": 306.2749999999904,
                    "velocity": 0.44881889763779526,
                    "duration": 0.024999999999977263
                },
                {
                    "name": "D#7",
                    "midi": 99,
                    "time": 306.2999999999904,
                    "velocity": 0.6456692913385826,
                    "duration": 0.14999999999997726
                },
                {
                    "name": "F5",
                    "midi": 77,
                    "time": 306.89999999999037,
                    "velocity": 0.4330708661417323,
                    "duration": 0.8999999999999773
                },
                {
                    "name": "G#5",
                    "midi": 80,
                    "time": 306.89999999999037,
                    "velocity": 0.5118110236220472,
                    "duration": 0.8999999999999773
                },
                {
                    "name": "A#5",
                    "midi": 82,
                    "time": 307.79999999999035,
                    "velocity": 0.5196850393700787,
                    "duration": 0.14999999999997726
                },
                {
                    "name": "F#5",
                    "midi": 78,
                    "time": 307.79999999999035,
                    "velocity": 0.4409448818897638,
                    "duration": 0.14999999999997726
                },
                {
                    "name": "G#5",
                    "midi": 80,
                    "time": 308.0999999999903,
                    "velocity": 0.4645669291338583,
                    "duration": 0.14999999999997726
                },
                {
                    "name": "B5",
                    "midi": 83,
                    "time": 308.0999999999903,
                    "velocity": 0.5511811023622047,
                    "duration": 0.14999999999997726
                },
                {
                    "name": "F5",
                    "midi": 77,
                    "time": 308.39999999999026,
                    "velocity": 0.4409448818897638,
                    "duration": 0.14999999999997726
                },
                {
                    "name": "G#5",
                    "midi": 80,
                    "time": 308.39999999999026,
                    "velocity": 0.5196850393700787,
                    "duration": 0.14999999999997726
                },
                {
                    "name": "A#5",
                    "midi": 82,
                    "time": 308.6249999999902,
                    "velocity": 0.36220472440944884,
                    "duration": 0.024999999999977263
                },
                {
                    "name": "C#6",
                    "midi": 85,
                    "time": 308.6499999999902,
                    "velocity": 0.4566929133858268,
                    "duration": 0.024999999999977263
                },
                {
                    "name": "F#6",
                    "midi": 90,
                    "time": 308.6749999999902,
                    "velocity": 0.48031496062992124,
                    "duration": 0.0024999999999977263
                },
                {
                    "name": "C#7",
                    "midi": 97,
                    "time": 308.69999999999015,
                    "velocity": 0.6692913385826772,
                    "duration": 0.14999999999997726
                },
                {
                    "name": "A#4",
                    "midi": 70,
                    "time": 309.2999999999901,
                    "velocity": 0.44881889763779526,
                    "duration": 0.8999999999999773
                },
                {
                    "name": "F#5",
                    "midi": 78,
                    "time": 309.2999999999901,
                    "velocity": 0.5275590551181102,
                    "duration": 0.8999999999999773
                },
                {
                    "name": "B4",
                    "midi": 71,
                    "time": 310.1999999999901,
                    "velocity": 0.4566929133858268,
                    "duration": 0.14999999999997726
                },
                {
                    "name": "G#5",
                    "midi": 80,
                    "time": 310.1999999999901,
                    "velocity": 0.5354330708661418,
                    "duration": 0.14999999999997726
                },
                {
                    "name": "C#5",
                    "midi": 73,
                    "time": 310.49999999999005,
                    "velocity": 0.48031496062992124,
                    "duration": 0.14999999999997726
                },
                {
                    "name": "A#5",
                    "midi": 82,
                    "time": 310.49999999999005,
                    "velocity": 0.5748031496062992,
                    "duration": 0.14999999999997726
                },
                {
                    "name": "F#5",
                    "midi": 78,
                    "time": 310.79999999999,
                    "velocity": 0.49606299212598426,
                    "duration": 0.14999999999997726
                },
                {
                    "name": "A#4",
                    "midi": 70,
                    "time": 310.79999999999,
                    "velocity": 0.41732283464566927,
                    "duration": 0.14999999999997726
                },
                {
                    "name": "F5",
                    "midi": 77,
                    "time": 311.09999999998996,
                    "velocity": 0.5433070866141733,
                    "duration": 0.14999999999997726
                },
                {
                    "name": "G#4",
                    "midi": 68,
                    "time": 311.09999999998996,
                    "velocity": 0.4566929133858268,
                    "duration": 0.14999999999997726
                },
                {
                    "name": "F#5",
                    "midi": 78,
                    "time": 311.3999999999899,
                    "velocity": 0.5118110236220472,
                    "duration": 0.14999999999997726
                },
                {
                    "name": "A#4",
                    "midi": 70,
                    "time": 311.3999999999899,
                    "velocity": 0.4251968503937008,
                    "duration": 0.14999999999997726
                },
                {
                    "name": "B4",
                    "midi": 71,
                    "time": 311.69999999998987,
                    "velocity": 0.4645669291338583,
                    "duration": 0.14999999999997726
                },
                {
                    "name": "G#5",
                    "midi": 80,
                    "time": 311.69999999998987,
                    "velocity": 0.5511811023622047,
                    "duration": 0.14999999999997726
                },
                {
                    "name": "C#5",
                    "midi": 73,
                    "time": 311.9999999999898,
                    "velocity": 0.4330708661417323,
                    "duration": 0.14999999999997726
                },
                {
                    "name": "A#5",
                    "midi": 82,
                    "time": 311.9999999999898,
                    "velocity": 0.5118110236220472,
                    "duration": 0.14999999999997726
                },
                {
                    "name": "D#5",
                    "midi": 75,
                    "time": 312.2999999999898,
                    "velocity": 0.4645669291338583,
                    "duration": 0.14999999999997726
                },
                {
                    "name": "B5",
                    "midi": 83,
                    "time": 312.2999999999898,
                    "velocity": 0.5511811023622047,
                    "duration": 0.14999999999997726
                },
                {
                    "name": "F5",
                    "midi": 77,
                    "time": 312.59999999998973,
                    "velocity": 0.4330708661417323,
                    "duration": 0.14999999999997726
                },
                {
                    "name": "C#6",
                    "midi": 85,
                    "time": 312.59999999998973,
                    "velocity": 0.5118110236220472,
                    "duration": 0.14999999999997726
                },
                {
                    "name": "D#6",
                    "midi": 87,
                    "time": 312.8999999999897,
                    "velocity": 0.5590551181102362,
                    "duration": 0.14999999999997726
                },
                {
                    "name": "F#5",
                    "midi": 78,
                    "time": 312.8999999999897,
                    "velocity": 0.47244094488188976,
                    "duration": 0.14999999999997726
                },
                {
                    "name": "G#5",
                    "midi": 80,
                    "time": 313.19999999998964,
                    "velocity": 0.4330708661417323,
                    "duration": 0.14999999999997726
                },
                {
                    "name": "F6",
                    "midi": 89,
                    "time": 313.19999999998964,
                    "velocity": 0.5039370078740157,
                    "duration": 0.14999999999997726
                },
                {
                    "name": "A#5",
                    "midi": 82,
                    "time": 313.4999999999896,
                    "velocity": 0.5433070866141733,
                    "duration": 0.14999999999997726
                },
                {
                    "name": "F#6",
                    "midi": 90,
                    "time": 313.4999999999896,
                    "velocity": 0.6535433070866141,
                    "duration": 0.14999999999997726
                },
                {
                    "name": "G#5",
                    "midi": 80,
                    "time": 313.79999999998955,
                    "velocity": 0.48031496062992124,
                    "duration": 0.14999999999997726
                },
                {
                    "name": "F6",
                    "midi": 89,
                    "time": 313.79999999998955,
                    "velocity": 0.5669291338582677,
                    "duration": 0.14999999999997726
                },
                {
                    "name": "A#5",
                    "midi": 82,
                    "time": 314.0999999999895,
                    "velocity": 0.5275590551181102,
                    "duration": 0.14999999999997726
                },
                {
                    "name": "F#6",
                    "midi": 90,
                    "time": 314.0999999999895,
                    "velocity": 0.6220472440944882,
                    "duration": 0.14999999999997726
                },
                {
                    "name": "B5",
                    "midi": 83,
                    "time": 314.39999999998946,
                    "velocity": 0.48031496062992124,
                    "duration": 0.14999999999997726
                },
                {
                    "name": "G#6",
                    "midi": 92,
                    "time": 314.39999999998946,
                    "velocity": 0.5669291338582677,
                    "duration": 0.14999999999997726
                },
                {
                    "name": "A#6",
                    "midi": 94,
                    "time": 314.6999999999894,
                    "velocity": 0.6456692913385826,
                    "duration": 0.14999999999997726
                },
                {
                    "name": "C#6",
                    "midi": 85,
                    "time": 314.6999999999894,
                    "velocity": 0.5511811023622047,
                    "duration": 0.14999999999997726
                },
                {
                    "name": "B5",
                    "midi": 83,
                    "time": 314.99999999998937,
                    "velocity": 0.4881889763779528,
                    "duration": 0.14999999999997726
                },
                {
                    "name": "G#6",
                    "midi": 92,
                    "time": 314.99999999998937,
                    "velocity": 0.5748031496062992,
                    "duration": 0.14999999999997726
                },
                {
                    "name": "A#6",
                    "midi": 94,
                    "time": 315.2999999999893,
                    "velocity": 0.6535433070866141,
                    "duration": 0.14999999999997726
                },
                {
                    "name": "C#6",
                    "midi": 85,
                    "time": 315.2999999999893,
                    "velocity": 0.5511811023622047,
                    "duration": 0.14999999999997726
                },
                {
                    "name": "F#6",
                    "midi": 90,
                    "time": 315.5999999999893,
                    "velocity": 0.5826771653543307,
                    "duration": 0.14999999999997726
                },
                {
                    "name": "A#5",
                    "midi": 82,
                    "time": 315.5999999999893,
                    "velocity": 0.4881889763779528,
                    "duration": 0.14999999999997726
                },
                {
                    "name": "D#6",
                    "midi": 87,
                    "time": 315.82499999998925,
                    "velocity": 0.4566929133858268,
                    "duration": 0.03750000000002274
                },
                {
                    "name": "A#6",
                    "midi": 94,
                    "time": 315.86249999998927,
                    "velocity": 0.4881889763779528,
                    "duration": 0.03750000000002274
                },
                {
                    "name": "F#7",
                    "midi": 102,
                    "time": 315.8999999999893,
                    "velocity": 0.7322834645669292,
                    "duration": 0.14999999999997726
                },
                {
                    "name": "D#5",
                    "midi": 75,
                    "time": 316.49999999998926,
                    "velocity": 0.6062992125984252,
                    "duration": 0.8999999999999773
                },
                {
                    "name": "F#4",
                    "midi": 66,
                    "time": 316.49999999998926,
                    "velocity": 0.5118110236220472,
                    "duration": 0.8999999999999773
                },
                {
                    "name": "G#4",
                    "midi": 68,
                    "time": 317.39999999998923,
                    "velocity": 0.49606299212598426,
                    "duration": 0.14999999999997726
                },
                {
                    "name": "F5",
                    "midi": 77,
                    "time": 317.39999999998923,
                    "velocity": 0.5905511811023622,
                    "duration": 0.14999999999997726
                },
                {
                    "name": "F#5",
                    "midi": 78,
                    "time": 317.6999999999892,
                    "velocity": 0.6141732283464567,
                    "duration": 0.14999999999997726
                },
                {
                    "name": "A#4",
                    "midi": 70,
                    "time": 317.6999999999892,
                    "velocity": 0.5196850393700787,
                    "duration": 0.14999999999997726
                },
                {
                    "name": "F#4",
                    "midi": 66,
                    "time": 317.99999999998914,
                    "velocity": 0.47244094488188976,
                    "duration": 0.14999999999997726
                },
                {
                    "name": "D#5",
                    "midi": 75,
                    "time": 317.99999999998914,
                    "velocity": 0.5590551181102362,
                    "duration": 0.14999999999997726
                },
                {
                    "name": "C#6",
                    "midi": 85,
                    "time": 318.2249999999891,
                    "velocity": 0.4566929133858268,
                    "duration": 0.03750000000002274
                },
                {
                    "name": "G#6",
                    "midi": 92,
                    "time": 318.26249999998913,
                    "velocity": 0.4881889763779528,
                    "duration": 0.03750000000002274
                },
                {
                    "name": "F7",
                    "midi": 101,
                    "time": 318.29999999998915,
                    "velocity": 0.7322834645669292,
                    "duration": 0.14999999999997726
                },
                {
                    "name": "F4",
                    "midi": 65,
                    "time": 318.8999999999891,
                    "velocity": 0.5118110236220472,
                    "duration": 0.8999999999999773
                },
                {
                    "name": "C#5",
                    "midi": 73,
                    "time": 318.8999999999891,
                    "velocity": 0.6062992125984252,
                    "duration": 0.8999999999999773
                },
                {
                    "name": "F#4",
                    "midi": 66,
                    "time": 319.7999999999891,
                    "velocity": 0.49606299212598426,
                    "duration": 0.14999999999997726
                },
                {
                    "name": "D#5",
                    "midi": 75,
                    "time": 319.7999999999891,
                    "velocity": 0.5905511811023622,
                    "duration": 0.14999999999997726
                },
                {
                    "name": "G#4",
                    "midi": 68,
                    "time": 320.09999999998905,
                    "velocity": 0.5196850393700787,
                    "duration": 0.14999999999997726
                },
                {
                    "name": "F5",
                    "midi": 77,
                    "time": 320.09999999998905,
                    "velocity": 0.6141732283464567,
                    "duration": 0.14999999999997726
                },
                {
                    "name": "F4",
                    "midi": 65,
                    "time": 320.399999999989,
                    "velocity": 0.47244094488188976,
                    "duration": 0.14999999999997726
                },
                {
                    "name": "C#5",
                    "midi": 73,
                    "time": 320.399999999989,
                    "velocity": 0.5590551181102362,
                    "duration": 0.14999999999997726
                },
                {
                    "name": "C5",
                    "midi": 72,
                    "time": 320.69999999998896,
                    "velocity": 0.5511811023622047,
                    "duration": 0.14999999999997726
                },
                {
                    "name": "D#4",
                    "midi": 63,
                    "time": 320.69999999998896,
                    "velocity": 0.4645669291338583,
                    "duration": 0.14999999999997726
                },
                {
                    "name": "F4",
                    "midi": 65,
                    "time": 320.9999999999889,
                    "velocity": 0.48031496062992124,
                    "duration": 0.14999999999997726
                },
                {
                    "name": "C#5",
                    "midi": 73,
                    "time": 320.9999999999889,
                    "velocity": 0.5669291338582677,
                    "duration": 0.14999999999997726
                },
                {
                    "name": "D#5",
                    "midi": 75,
                    "time": 321.29999999998887,
                    "velocity": 0.5826771653543307,
                    "duration": 0.14999999999997726
                },
                {
                    "name": "F#4",
                    "midi": 66,
                    "time": 321.29999999998887,
                    "velocity": 0.4881889763779528,
                    "duration": 0.14999999999997726
                },
                {
                    "name": "G#4",
                    "midi": 68,
                    "time": 321.5999999999888,
                    "velocity": 0.5118110236220472,
                    "duration": 0.14999999999997726
                },
                {
                    "name": "F5",
                    "midi": 77,
                    "time": 321.5999999999888,
                    "velocity": 0.6062992125984252,
                    "duration": 0.14999999999997726
                },
                {
                    "name": "A#4",
                    "midi": 70,
                    "time": 321.8999999999888,
                    "velocity": 0.5275590551181102,
                    "duration": 0.14999999999997726
                },
                {
                    "name": "F#5",
                    "midi": 78,
                    "time": 321.8999999999888,
                    "velocity": 0.6220472440944882,
                    "duration": 0.14999999999997726
                },
                {
                    "name": "C5",
                    "midi": 72,
                    "time": 322.19999999998873,
                    "velocity": 0.49606299212598426,
                    "duration": 0.14999999999997726
                },
                {
                    "name": "G#5",
                    "midi": 80,
                    "time": 322.19999999998873,
                    "velocity": 0.5905511811023622,
                    "duration": 0.14999999999997726
                },
                {
                    "name": "A#5",
                    "midi": 82,
                    "time": 322.4999999999887,
                    "velocity": 0.6062992125984252,
                    "duration": 0.14999999999997726
                },
                {
                    "name": "C#5",
                    "midi": 73,
                    "time": 322.4999999999887,
                    "velocity": 0.5118110236220472,
                    "duration": 0.14999999999997726
                },
                {
                    "name": "C6",
                    "midi": 84,
                    "time": 322.79999999998864,
                    "velocity": 0.6299212598425197,
                    "duration": 0.14999999999997726
                },
                {
                    "name": "D#5",
                    "midi": 75,
                    "time": 322.79999999998864,
                    "velocity": 0.5354330708661418,
                    "duration": 0.14999999999997726
                },
                {
                    "name": "F5",
                    "midi": 77,
                    "time": 323.0999999999886,
                    "velocity": 0.5433070866141733,
                    "duration": 0.14999999999997726
                },
                {
                    "name": "C#6",
                    "midi": 85,
                    "time": 323.0999999999886,
                    "velocity": 0.6456692913385826,
                    "duration": 0.14999999999997726
                },
                {
                    "name": "D#5",
                    "midi": 75,
                    "time": 323.39999999998855,
                    "velocity": 0.5275590551181102,
                    "duration": 0.14999999999997726
                },
                {
                    "name": "C6",
                    "midi": 84,
                    "time": 323.39999999998855,
                    "velocity": 0.6220472440944882,
                    "duration": 0.14999999999997726
                },
                {
                    "name": "C#6",
                    "midi": 85,
                    "time": 323.6999999999885,
                    "velocity": 0.6220472440944882,
                    "duration": 0.14999999999997726
                },
                {
                    "name": "F5",
                    "midi": 77,
                    "time": 323.6999999999885,
                    "velocity": 0.5275590551181102,
                    "duration": 0.14999999999997726
                },
                {
                    "name": "F#5",
                    "midi": 78,
                    "time": 323.99999999998846,
                    "velocity": 0.5354330708661418,
                    "duration": 0.14999999999997726
                },
                {
                    "name": "D#6",
                    "midi": 87,
                    "time": 323.99999999998846,
                    "velocity": 0.6299212598425197,
                    "duration": 0.14999999999997726
                },
                {
                    "name": "F6",
                    "midi": 89,
                    "time": 324.2999999999884,
                    "velocity": 0.6850393700787402,
                    "duration": 0.14999999999997726
                },
                {
                    "name": "G#5",
                    "midi": 80,
                    "time": 324.2999999999884,
                    "velocity": 0.5748031496062992,
                    "duration": 0.14999999999997726
                },
                {
                    "name": "F#5",
                    "midi": 78,
                    "time": 324.59999999998837,
                    "velocity": 0.5354330708661418,
                    "duration": 0.14999999999997726
                },
                {
                    "name": "D#6",
                    "midi": 87,
                    "time": 324.59999999998837,
                    "velocity": 0.6299212598425197,
                    "duration": 0.14999999999997726
                },
                {
                    "name": "G#5",
                    "midi": 80,
                    "time": 324.8999999999883,
                    "velocity": 0.5748031496062992,
                    "duration": 0.14999999999997726
                },
                {
                    "name": "F6",
                    "midi": 89,
                    "time": 324.8999999999883,
                    "velocity": 0.6850393700787402,
                    "duration": 0.14999999999997726
                },
                {
                    "name": "C#6",
                    "midi": 85,
                    "time": 325.1999999999883,
                    "velocity": 0.6299212598425197,
                    "duration": 0.14999999999997726
                },
                {
                    "name": "F5",
                    "midi": 77,
                    "time": 325.1999999999883,
                    "velocity": 0.5354330708661418,
                    "duration": 0.14999999999997726
                },
                {
                    "name": "D#6",
                    "midi": 87,
                    "time": 325.42499999998824,
                    "velocity": 0.4566929133858268,
                    "duration": 0.03750000000002274
                },
                {
                    "name": "A#6",
                    "midi": 94,
                    "time": 325.46249999998827,
                    "velocity": 0.4881889763779528,
                    "duration": 0.03750000000002274
                },
                {
                    "name": "F#7",
                    "midi": 102,
                    "time": 325.4999999999883,
                    "velocity": 0.7637795275590551,
                    "duration": 0.14999999999997726
                },
                {
                    "name": "D#5",
                    "midi": 75,
                    "time": 326.09999999998826,
                    "velocity": 0.6299212598425197,
                    "duration": 0.8999999999999773
                },
                {
                    "name": "F#4",
                    "midi": 66,
                    "time": 326.09999999998826,
                    "velocity": 0.5354330708661418,
                    "duration": 0.8999999999999773
                },
                {
                    "name": "F5",
                    "midi": 77,
                    "time": 326.99999999998823,
                    "velocity": 0.6220472440944882,
                    "duration": 0.14999999999997726
                },
                {
                    "name": "G#4",
                    "midi": 68,
                    "time": 326.99999999998823,
                    "velocity": 0.5196850393700787,
                    "duration": 0.14999999999997726
                },
                {
                    "name": "F#5",
                    "midi": 78,
                    "time": 327.2999999999882,
                    "velocity": 0.6456692913385826,
                    "duration": 0.14999999999997726
                },
                {
                    "name": "A#4",
                    "midi": 70,
                    "time": 327.2999999999882,
                    "velocity": 0.5433070866141733,
                    "duration": 0.14999999999997726
                },
                {
                    "name": "D#5",
                    "midi": 75,
                    "time": 327.59999999998814,
                    "velocity": 0.5905511811023622,
                    "duration": 0.14999999999997726
                },
                {
                    "name": "F#4",
                    "midi": 66,
                    "time": 327.59999999998814,
                    "velocity": 0.49606299212598426,
                    "duration": 0.14999999999997726
                },
                {
                    "name": "C#6",
                    "midi": 85,
                    "time": 327.8249999999881,
                    "velocity": 0.48031496062992124,
                    "duration": 0.03750000000002274
                },
                {
                    "name": "G#6",
                    "midi": 92,
                    "time": 327.86249999998813,
                    "velocity": 0.5118110236220472,
                    "duration": 0.03750000000002274
                },
                {
                    "name": "F7",
                    "midi": 101,
                    "time": 327.89999999998815,
                    "velocity": 0.7716535433070866,
                    "duration": 0.14999999999997726
                },
                {
                    "name": "C#5",
                    "midi": 73,
                    "time": 328.4999999999881,
                    "velocity": 0.6456692913385826,
                    "duration": 0.8999999999999773
                },
                {
                    "name": "F4",
                    "midi": 65,
                    "time": 328.4999999999881,
                    "velocity": 0.5433070866141733,
                    "duration": 0.8999999999999773
                },
                {
                    "name": "D#5",
                    "midi": 75,
                    "time": 329.3999999999881,
                    "velocity": 0.6299212598425197,
                    "duration": 0.14999999999997726
                },
                {
                    "name": "F#4",
                    "midi": 66,
                    "time": 329.3999999999881,
                    "velocity": 0.5275590551181102,
                    "duration": 0.14999999999997726
                },
                {
                    "name": "G#4",
                    "midi": 68,
                    "time": 329.69999999998805,
                    "velocity": 0.5511811023622047,
                    "duration": 0.14999999999997726
                },
                {
                    "name": "F5",
                    "midi": 77,
                    "time": 329.69999999998805,
                    "velocity": 0.6535433070866141,
                    "duration": 0.14999999999997726
                },
                {
                    "name": "C#5",
                    "midi": 73,
                    "time": 329.999999999988,
                    "velocity": 0.5984251968503937,
                    "duration": 0.14999999999997726
                },
                {
                    "name": "F4",
                    "midi": 65,
                    "time": 329.999999999988,
                    "velocity": 0.5039370078740157,
                    "duration": 0.14999999999997726
                },
                {
                    "name": "C5",
                    "midi": 72,
                    "time": 330.29999999998796,
                    "velocity": 0.5905511811023622,
                    "duration": 0.14999999999997726
                },
                {
                    "name": "D#4",
                    "midi": 63,
                    "time": 330.29999999998796,
                    "velocity": 0.49606299212598426,
                    "duration": 0.14999999999997726
                },
                {
                    "name": "C#5",
                    "midi": 73,
                    "time": 330.5999999999879,
                    "velocity": 0.6062992125984252,
                    "duration": 0.14999999999997726
                },
                {
                    "name": "F4",
                    "midi": 65,
                    "time": 330.5999999999879,
                    "velocity": 0.5118110236220472,
                    "duration": 0.14999999999997726
                },
                {
                    "name": "F#4",
                    "midi": 66,
                    "time": 330.89999999998787,
                    "velocity": 0.5196850393700787,
                    "duration": 0.14999999999997726
                },
                {
                    "name": "D#5",
                    "midi": 75,
                    "time": 330.89999999998787,
                    "velocity": 0.6220472440944882,
                    "duration": 0.14999999999997726
                },
                {
                    "name": "F5",
                    "midi": 77,
                    "time": 331.1999999999878,
                    "velocity": 0.6535433070866141,
                    "duration": 0.14999999999997726
                },
                {
                    "name": "G#4",
                    "midi": 68,
                    "time": 331.1999999999878,
                    "velocity": 0.5511811023622047,
                    "duration": 0.14999999999997726
                },
                {
                    "name": "F#5",
                    "midi": 78,
                    "time": 331.4999999999878,
                    "velocity": 0.6771653543307087,
                    "duration": 0.14999999999997726
                },
                {
                    "name": "A#4",
                    "midi": 70,
                    "time": 331.4999999999878,
                    "velocity": 0.5748031496062992,
                    "duration": 0.14999999999997726
                },
                {
                    "name": "G#5",
                    "midi": 80,
                    "time": 331.79999999998773,
                    "velocity": 0.6377952755905512,
                    "duration": 0.14999999999997726
                },
                {
                    "name": "C5",
                    "midi": 72,
                    "time": 331.79999999998773,
                    "velocity": 0.5354330708661418,
                    "duration": 0.14999999999997726
                },
                {
                    "name": "C#5",
                    "midi": 73,
                    "time": 332.0999999999877,
                    "velocity": 0.5511811023622047,
                    "duration": 0.14999999999997726
                },
                {
                    "name": "A#5",
                    "midi": 82,
                    "time": 332.0999999999877,
                    "velocity": 0.6535433070866141,
                    "duration": 0.14999999999997726
                },
                {
                    "name": "D#5",
                    "midi": 75,
                    "time": 332.39999999998764,
                    "velocity": 0.5826771653543307,
                    "duration": 0.14999999999997726
                },
                {
                    "name": "C6",
                    "midi": 84,
                    "time": 332.39999999998764,
                    "velocity": 0.6850393700787402,
                    "duration": 0.14999999999997726
                },
                {
                    "name": "C#6",
                    "midi": 85,
                    "time": 332.6999999999876,
                    "velocity": 0.6850393700787402,
                    "duration": 0.30000000000001137
                },
                {
                    "name": "F5",
                    "midi": 77,
                    "time": 332.6999999999876,
                    "velocity": 0.5748031496062992,
                    "duration": 0.30000000000001137
                },
                {
                    "name": "C#5",
                    "midi": 73,
                    "time": 332.6999999999876,
                    "velocity": 0.5748031496062992,
                    "duration": 0.30000000000001137
                },
                {
                    "name": "C5",
                    "midi": 72,
                    "time": 332.9999999999876,
                    "velocity": 0.5039370078740157,
                    "duration": 0.14999999999997726
                },
                {
                    "name": "C6",
                    "midi": 84,
                    "time": 332.9999999999876,
                    "velocity": 0.5984251968503937,
                    "duration": 0.14999999999997726
                },
                {
                    "name": "D6",
                    "midi": 86,
                    "time": 333.29999999998756,
                    "velocity": 0.6850393700787402,
                    "duration": 0.30000000000001137
                },
                {
                    "name": "D5",
                    "midi": 74,
                    "time": 333.29999999998756,
                    "velocity": 0.5748031496062992,
                    "duration": 0.30000000000001137
                },
                {
                    "name": "C#5",
                    "midi": 73,
                    "time": 333.5999999999876,
                    "velocity": 0.5039370078740157,
                    "duration": 0.14999999999997726
                },
                {
                    "name": "C#6",
                    "midi": 85,
                    "time": 333.5999999999876,
                    "velocity": 0.5984251968503937,
                    "duration": 0.14999999999997726
                },
                {
                    "name": "D#6",
                    "midi": 87,
                    "time": 333.89999999998753,
                    "velocity": 0.6929133858267716,
                    "duration": 0.30000000000001137
                },
                {
                    "name": "D#5",
                    "midi": 75,
                    "time": 333.89999999998753,
                    "velocity": 0.5826771653543307,
                    "duration": 0.30000000000001137
                },
                {
                    "name": "D5",
                    "midi": 74,
                    "time": 334.19999999998754,
                    "velocity": 0.5039370078740157,
                    "duration": 0.14999999999997726
                },
                {
                    "name": "D6",
                    "midi": 86,
                    "time": 334.19999999998754,
                    "velocity": 0.6062992125984252,
                    "duration": 0.14999999999997726
                },
                {
                    "name": "E5",
                    "midi": 76,
                    "time": 334.4999999999875,
                    "velocity": 0.5905511811023622,
                    "duration": 0.30000000000001137
                },
                {
                    "name": "E6",
                    "midi": 88,
                    "time": 334.4999999999875,
                    "velocity": 0.7007874015748031,
                    "duration": 0.30000000000001137
                },
                {
                    "name": "D#5",
                    "midi": 75,
                    "time": 334.7999999999875,
                    "velocity": 0.5196850393700787,
                    "duration": 0.14999999999997726
                },
                {
                    "name": "D#6",
                    "midi": 87,
                    "time": 334.7999999999875,
                    "velocity": 0.6220472440944882,
                    "duration": 0.14999999999997726
                },
                {
                    "name": "F5",
                    "midi": 77,
                    "time": 335.09999999998746,
                    "velocity": 0.5984251968503937,
                    "duration": 0.30000000000001137
                },
                {
                    "name": "F6",
                    "midi": 89,
                    "time": 335.09999999998746,
                    "velocity": 0.7165354330708661,
                    "duration": 0.30000000000001137
                },
                {
                    "name": "E6",
                    "midi": 88,
                    "time": 335.3999999999875,
                    "velocity": 0.6141732283464567,
                    "duration": 0.14999999999997726
                },
                {
                    "name": "E5",
                    "midi": 76,
                    "time": 335.3999999999875,
                    "velocity": 0.5196850393700787,
                    "duration": 0.14999999999997726
                },
                {
                    "name": "F#6",
                    "midi": 90,
                    "time": 335.6999999999874,
                    "velocity": 0.7244094488188977,
                    "duration": 0.30000000000001137
                },
                {
                    "name": "F#5",
                    "midi": 78,
                    "time": 335.6999999999874,
                    "velocity": 0.6062992125984252,
                    "duration": 0.30000000000001137
                },
                {
                    "name": "F5",
                    "midi": 77,
                    "time": 335.99999999998744,
                    "velocity": 0.5275590551181102,
                    "duration": 0.14999999999997726
                },
                {
                    "name": "F6",
                    "midi": 89,
                    "time": 335.99999999998744,
                    "velocity": 0.6299212598425197,
                    "duration": 0.14999999999997726
                },
                {
                    "name": "G6",
                    "midi": 91,
                    "time": 336.2999999999874,
                    "velocity": 0.7322834645669292,
                    "duration": 0.30000000000001137
                },
                {
                    "name": "G5",
                    "midi": 79,
                    "time": 336.2999999999874,
                    "velocity": 0.6141732283464567,
                    "duration": 0.30000000000001137
                },
                {
                    "name": "F#6",
                    "midi": 90,
                    "time": 336.5999999999874,
                    "velocity": 0.6456692913385826,
                    "duration": 0.14999999999997726
                },
                {
                    "name": "F#5",
                    "midi": 78,
                    "time": 336.5999999999874,
                    "velocity": 0.5433070866141733,
                    "duration": 0.14999999999997726
                },
                {
                    "name": "G#5",
                    "midi": 80,
                    "time": 336.89999999998736,
                    "velocity": 0.6141732283464567,
                    "duration": 0.30000000000001137
                },
                {
                    "name": "G#6",
                    "midi": 92,
                    "time": 336.89999999998736,
                    "velocity": 0.7322834645669292,
                    "duration": 0.30000000000001137
                },
                {
                    "name": "G6",
                    "midi": 91,
                    "time": 337.19999999998737,
                    "velocity": 0.6377952755905512,
                    "duration": 0.14999999999997726
                },
                {
                    "name": "G5",
                    "midi": 79,
                    "time": 337.19999999998737,
                    "velocity": 0.5354330708661418,
                    "duration": 0.14999999999997726
                },
                {
                    "name": "A5",
                    "midi": 81,
                    "time": 337.4999999999873,
                    "velocity": 0.6299212598425197,
                    "duration": 0.30000000000001137
                },
                {
                    "name": "A6",
                    "midi": 93,
                    "time": 337.4999999999873,
                    "velocity": 0.7480314960629921,
                    "duration": 0.30000000000001137
                },
                {
                    "name": "G#5",
                    "midi": 80,
                    "time": 337.79999999998734,
                    "velocity": 0.5433070866141733,
                    "duration": 0.14999999999997726
                },
                {
                    "name": "G#6",
                    "midi": 92,
                    "time": 337.79999999998734,
                    "velocity": 0.6456692913385826,
                    "duration": 0.14999999999997726
                },
                {
                    "name": "A#6",
                    "midi": 94,
                    "time": 338.0999999999873,
                    "velocity": 0.7559055118110236,
                    "duration": 0.30000000000001137
                },
                {
                    "name": "A#5",
                    "midi": 82,
                    "time": 338.0999999999873,
                    "velocity": 0.6377952755905512,
                    "duration": 0.30000000000001137
                },
                {
                    "name": "A6",
                    "midi": 93,
                    "time": 338.3999999999873,
                    "velocity": 0.6456692913385826,
                    "duration": 0.14999999999997726
                },
                {
                    "name": "A5",
                    "midi": 81,
                    "time": 338.3999999999873,
                    "velocity": 0.5354330708661418,
                    "duration": 0.14999999999997726
                },
                {
                    "name": "B5",
                    "midi": 83,
                    "time": 338.69999999998726,
                    "velocity": 0.6377952755905512,
                    "duration": 0.30000000000001137
                },
                {
                    "name": "B6",
                    "midi": 95,
                    "time": 338.69999999998726,
                    "velocity": 0.7637795275590551,
                    "duration": 0.30000000000001137
                },
                {
                    "name": "A#5",
                    "midi": 82,
                    "time": 338.99999999998727,
                    "velocity": 0.5590551181102362,
                    "duration": 0.14999999999997726
                },
                {
                    "name": "A#6",
                    "midi": 94,
                    "time": 338.99999999998727,
                    "velocity": 0.6614173228346457,
                    "duration": 0.14999999999997726
                },
                {
                    "name": "B6",
                    "midi": 95,
                    "time": 339.2999999999872,
                    "velocity": 0.7716535433070866,
                    "duration": 0.30000000000001137
                },
                {
                    "name": "B5",
                    "midi": 83,
                    "time": 339.2999999999872,
                    "velocity": 0.6456692913385826,
                    "duration": 0.30000000000001137
                },
                {
                    "name": "C7",
                    "midi": 96,
                    "time": 339.59999999998723,
                    "velocity": 0.6614173228346457,
                    "duration": 0.14999999999997726
                },
                {
                    "name": "C6",
                    "midi": 84,
                    "time": 339.59999999998723,
                    "velocity": 0.5511811023622047,
                    "duration": 0.14999999999997726
                },
                {
                    "name": "F6",
                    "midi": 89,
                    "time": 339.8999999999872,
                    "velocity": 0.6771653543307087,
                    "duration": 0.30000000000001137
                },
                {
                    "name": "C#7",
                    "midi": 97,
                    "time": 339.8999999999872,
                    "velocity": 0.8031496062992126,
                    "duration": 0.30000000000001137
                },
                {
                    "name": "C#6",
                    "midi": 85,
                    "time": 339.8999999999872,
                    "velocity": 0.6771653543307087,
                    "duration": 0.30000000000001137
                },
                {
                    "name": "C6",
                    "midi": 84,
                    "time": 340.1999999999872,
                    "velocity": 0.6299212598425197,
                    "duration": 0.30000000000001137
                },
                {
                    "name": "C7",
                    "midi": 96,
                    "time": 340.1999999999872,
                    "velocity": 0.7480314960629921,
                    "duration": 0.30000000000001137
                },
                {
                    "name": "C#7",
                    "midi": 97,
                    "time": 340.4999999999872,
                    "velocity": 0.8031496062992126,
                    "duration": 0.30000000000001137
                },
                {
                    "name": "F6",
                    "midi": 89,
                    "time": 340.4999999999872,
                    "velocity": 0.6771653543307087,
                    "duration": 0.30000000000001137
                },
                {
                    "name": "C#6",
                    "midi": 85,
                    "time": 340.4999999999872,
                    "velocity": 0.6771653543307087,
                    "duration": 0.30000000000001137
                },
                {
                    "name": "C6",
                    "midi": 84,
                    "time": 340.7999999999872,
                    "velocity": 0.6299212598425197,
                    "duration": 0.30000000000001137
                },
                {
                    "name": "C7",
                    "midi": 96,
                    "time": 340.7999999999872,
                    "velocity": 0.7480314960629921,
                    "duration": 0.30000000000001137
                },
                {
                    "name": "F#6",
                    "midi": 90,
                    "time": 340.7999999999872,
                    "velocity": 0.6299212598425197,
                    "duration": 0.30000000000001137
                },
                {
                    "name": "C#6",
                    "midi": 85,
                    "time": 341.09999999998723,
                    "velocity": 0.6771653543307087,
                    "duration": 0.30000000000001137
                },
                {
                    "name": "C#7",
                    "midi": 97,
                    "time": 341.09999999998723,
                    "velocity": 0.8031496062992126,
                    "duration": 0.30000000000001137
                },
                {
                    "name": "F6",
                    "midi": 89,
                    "time": 341.09999999998723,
                    "velocity": 0.6771653543307087,
                    "duration": 0.30000000000001137
                },
                {
                    "name": "C6",
                    "midi": 84,
                    "time": 341.39999999998724,
                    "velocity": 0.6299212598425197,
                    "duration": 0.30000000000001137
                },
                {
                    "name": "C7",
                    "midi": 96,
                    "time": 341.39999999998724,
                    "velocity": 0.7480314960629921,
                    "duration": 0.30000000000001137
                },
                {
                    "name": "F#6",
                    "midi": 90,
                    "time": 341.39999999998724,
                    "velocity": 0.6299212598425197,
                    "duration": 0.30000000000001137
                },
                {
                    "name": "C#7",
                    "midi": 97,
                    "time": 341.69999999998726,
                    "velocity": 0.8031496062992126,
                    "duration": 0.30000000000001137
                },
                {
                    "name": "F6",
                    "midi": 89,
                    "time": 341.69999999998726,
                    "velocity": 0.6771653543307087,
                    "duration": 0.30000000000001137
                },
                {
                    "name": "C#6",
                    "midi": 85,
                    "time": 341.69999999998726,
                    "velocity": 0.6771653543307087,
                    "duration": 0.30000000000001137
                },
                {
                    "name": "C6",
                    "midi": 84,
                    "time": 341.99999999998727,
                    "velocity": 0.6299212598425197,
                    "duration": 0.30000000000001137
                },
                {
                    "name": "F#6",
                    "midi": 90,
                    "time": 341.99999999998727,
                    "velocity": 0.6299212598425197,
                    "duration": 0.30000000000001137
                },
                {
                    "name": "C7",
                    "midi": 96,
                    "time": 341.99999999998727,
                    "velocity": 0.7480314960629921,
                    "duration": 0.30000000000001137
                },
                {
                    "name": "F6",
                    "midi": 89,
                    "time": 342.2999999999873,
                    "velocity": 0.6771653543307087,
                    "duration": 0.30000000000001137
                },
                {
                    "name": "C#6",
                    "midi": 85,
                    "time": 342.2999999999873,
                    "velocity": 0.6771653543307087,
                    "duration": 0.30000000000001137
                },
                {
                    "name": "C#7",
                    "midi": 97,
                    "time": 342.2999999999873,
                    "velocity": 0.8031496062992126,
                    "duration": 0.30000000000001137
                },
                {
                    "name": "C5",
                    "midi": 72,
                    "time": 342.5999999999873,
                    "velocity": 0.5354330708661418,
                    "duration": 0.32499999999998863
                },
                {
                    "name": "C6",
                    "midi": 84,
                    "time": 342.5999999999873,
                    "velocity": 0.6377952755905512,
                    "duration": 0.32499999999998863
                },
                {
                    "name": "C#5",
                    "midi": 73,
                    "time": 342.8999999999873,
                    "velocity": 0.5826771653543307,
                    "duration": 0.3249999999999318
                },
                {
                    "name": "C#6",
                    "midi": 85,
                    "time": 342.8999999999873,
                    "velocity": 0.6929133858267716,
                    "duration": 0.3249999999999318
                },
                {
                    "name": "C6",
                    "midi": 84,
                    "time": 343.19999999998726,
                    "velocity": 0.6377952755905512,
                    "duration": 0.3249999999999318
                },
                {
                    "name": "C5",
                    "midi": 72,
                    "time": 343.19999999998726,
                    "velocity": 0.5354330708661418,
                    "duration": 0.3249999999999318
                },
                {
                    "name": "C#5",
                    "midi": 73,
                    "time": 343.4999999999872,
                    "velocity": 0.5826771653543307,
                    "duration": 0.14999999999997726
                },
                {
                    "name": "C#6",
                    "midi": 85,
                    "time": 343.4999999999872,
                    "velocity": 0.6929133858267716,
                    "duration": 0.14999999999997726
                },
                {
                    "name": "C5",
                    "midi": 72,
                    "time": 343.79999999998716,
                    "velocity": 0.5826771653543307,
                    "duration": 0.32499999999998863
                },
                {
                    "name": "C4",
                    "midi": 60,
                    "time": 343.79999999998716,
                    "velocity": 0.4881889763779528,
                    "duration": 0.32499999999998863
                },
                {
                    "name": "C#5",
                    "midi": 73,
                    "time": 344.0999999999872,
                    "velocity": 0.6299212598425197,
                    "duration": 0.3249999999999318
                },
                {
                    "name": "C#4",
                    "midi": 61,
                    "time": 344.0999999999872,
                    "velocity": 0.5354330708661418,
                    "duration": 0.3249999999999318
                },
                {
                    "name": "C4",
                    "midi": 60,
                    "time": 344.39999999998713,
                    "velocity": 0.48031496062992124,
                    "duration": 0.2999999999999545
                },
                {
                    "name": "C5",
                    "midi": 72,
                    "time": 344.39999999998713,
                    "velocity": 0.5669291338582677,
                    "duration": 0.2999999999999545
                },
                {
                    "name": "C#4",
                    "midi": 61,
                    "time": 344.6999999999871,
                    "velocity": 0.6062992125984252,
                    "duration": 0.5999999999999659
                },
                {
                    "name": "C#5",
                    "midi": 73,
                    "time": 344.6999999999871,
                    "velocity": 0.7322834645669292,
                    "duration": 0.5999999999999659
                },
                {
                    "name": "F4",
                    "midi": 65,
                    "time": 344.9999999999871,
                    "velocity": 0.5039370078740157,
                    "duration": 0.14999999999997726
                },
                {
                    "name": "G#4",
                    "midi": 68,
                    "time": 344.9999999999871,
                    "velocity": 0.5984251968503937,
                    "duration": 0.14999999999997726
                },
                {
                    "name": "F4",
                    "midi": 65,
                    "time": 345.29999999998705,
                    "velocity": 0.5590551181102362,
                    "duration": 0.5999999999999659
                },
                {
                    "name": "F5",
                    "midi": 77,
                    "time": 345.29999999998705,
                    "velocity": 0.6614173228346457,
                    "duration": 0.5999999999999659
                },
                {
                    "name": "C#5",
                    "midi": 73,
                    "time": 345.59999999998706,
                    "velocity": 0.5984251968503937,
                    "duration": 0.14999999999997726
                },
                {
                    "name": "G#4",
                    "midi": 68,
                    "time": 345.59999999998706,
                    "velocity": 0.5039370078740157,
                    "duration": 0.14999999999997726
                },
                {
                    "name": "A#5",
                    "midi": 82,
                    "time": 345.899999999987,
                    "velocity": 0.7874015748031497,
                    "duration": 0.8999999999999204
                },
                {
                    "name": "A#4",
                    "midi": 70,
                    "time": 345.899999999987,
                    "velocity": 0.6692913385826772,
                    "duration": 0.8999999999999204
                },
                {
                    "name": "C#5",
                    "midi": 73,
                    "time": 346.199999999987,
                    "velocity": 0.5039370078740157,
                    "duration": 0.14999999999997726
                },
                {
                    "name": "F5",
                    "midi": 77,
                    "time": 346.199999999987,
                    "velocity": 0.5984251968503937,
                    "duration": 0.14999999999997726
                },
                {
                    "name": "F5",
                    "midi": 77,
                    "time": 346.499999999987,
                    "velocity": 0.5984251968503937,
                    "duration": 0.14999999999997726
                },
                {
                    "name": "C#5",
                    "midi": 73,
                    "time": 346.499999999987,
                    "velocity": 0.5039370078740157,
                    "duration": 0.14999999999997726
                },
                {
                    "name": "G#4",
                    "midi": 68,
                    "time": 346.79999999998694,
                    "velocity": 0.6062992125984252,
                    "duration": 0.14999999999997726
                },
                {
                    "name": "G#5",
                    "midi": 80,
                    "time": 346.79999999998694,
                    "velocity": 0.7244094488188977,
                    "duration": 0.14999999999997726
                },
                {
                    "name": "F#5",
                    "midi": 78,
                    "time": 347.0999999999869,
                    "velocity": 0.7559055118110236,
                    "duration": 0.14999999999997726
                },
                {
                    "name": "A#4",
                    "midi": 70,
                    "time": 347.0999999999869,
                    "velocity": 0.5039370078740157,
                    "duration": 0.14999999999997726
                },
                {
                    "name": "C#5",
                    "midi": 73,
                    "time": 347.0999999999869,
                    "velocity": 0.6377952755905512,
                    "duration": 0.14999999999997726
                },
                {
                    "name": "F#4",
                    "midi": 66,
                    "time": 347.0999999999869,
                    "velocity": 0.5039370078740157,
                    "duration": 0.14999999999997726
                },
                {
                    "name": "F5",
                    "midi": 77,
                    "time": 347.39999999998685,
                    "velocity": 0.6929133858267716,
                    "duration": 0.14999999999997726
                },
                {
                    "name": "F4",
                    "midi": 65,
                    "time": 347.39999999998685,
                    "velocity": 0.5826771653543307,
                    "duration": 0.14999999999997726
                },
                {
                    "name": "E5",
                    "midi": 76,
                    "time": 347.6999999999868,
                    "velocity": 0.6929133858267716,
                    "duration": 0.14999999999997726
                },
                {
                    "name": "E4",
                    "midi": 64,
                    "time": 347.6999999999868,
                    "velocity": 0.5826771653543307,
                    "duration": 0.14999999999997726
                },
                {
                    "name": "D#4",
                    "midi": 63,
                    "time": 347.92499999998677,
                    "velocity": 0.5433070866141733,
                    "duration": 0.22499999999990905
                },
                {
                    "name": "F#4",
                    "midi": 66,
                    "time": 347.94999999998674,
                    "velocity": 0.5590551181102362,
                    "duration": 0.17499999999995453
                },
                {
                    "name": "A#4",
                    "midi": 70,
                    "time": 347.9749999999867,
                    "velocity": 0.5748031496062992,
                    "duration": 0.17499999999995453
                },
                {
                    "name": "D#5",
                    "midi": 75,
                    "time": 347.9999999999867,
                    "velocity": 0.7007874015748031,
                    "duration": 0.14999999999997726
                },
                {
                    "name": "D5",
                    "midi": 74,
                    "time": 348.29999999998665,
                    "velocity": 0.6929133858267716,
                    "duration": 0.14999999999997726
                },
                {
                    "name": "D4",
                    "midi": 62,
                    "time": 348.29999999998665,
                    "velocity": 0.5826771653543307,
                    "duration": 0.14999999999997726
                },
                {
                    "name": "C#4",
                    "midi": 61,
                    "time": 348.5249999999866,
                    "velocity": 0.49606299212598426,
                    "duration": 0.22499999999990905
                },
                {
                    "name": "F#4",
                    "midi": 66,
                    "time": 348.5499999999866,
                    "velocity": 0.5275590551181102,
                    "duration": 0.1999999999999318
                },
                {
                    "name": "A#4",
                    "midi": 70,
                    "time": 348.5749999999866,
                    "velocity": 0.5511811023622047,
                    "duration": 0.17499999999995453
                },
                {
                    "name": "C#5",
                    "midi": 73,
                    "time": 348.59999999998655,
                    "velocity": 0.6535433070866141,
                    "duration": 0.14999999999997726
                },
                {
                    "name": "C4",
                    "midi": 60,
                    "time": 348.8999999999865,
                    "velocity": 0.5984251968503937,
                    "duration": 0.14999999999997726
                },
                {
                    "name": "C5",
                    "midi": 72,
                    "time": 348.8999999999865,
                    "velocity": 0.7165354330708661,
                    "duration": 0.14999999999997726
                },
                {
                    "name": "C#4",
                    "midi": 61,
                    "time": 349.19999999998646,
                    "velocity": 0.5826771653543307,
                    "duration": 0.14999999999997726
                },
                {
                    "name": "C#5",
                    "midi": 73,
                    "time": 349.19999999998646,
                    "velocity": 0.6929133858267716,
                    "duration": 0.14999999999997726
                },
                {
                    "name": "C#5",
                    "midi": 73,
                    "time": 349.4999999999864,
                    "velocity": 0.7322834645669292,
                    "duration": 0.5999999999999659
                },
                {
                    "name": "C#4",
                    "midi": 61,
                    "time": 349.4999999999864,
                    "velocity": 0.6062992125984252,
                    "duration": 0.5999999999999659
                },
                {
                    "name": "F4",
                    "midi": 65,
                    "time": 349.7999999999864,
                    "velocity": 0.5039370078740157,
                    "duration": 0.14999999999997726
                },
                {
                    "name": "G#4",
                    "midi": 68,
                    "time": 349.7999999999864,
                    "velocity": 0.5984251968503937,
                    "duration": 0.14999999999997726
                },
                {
                    "name": "F4",
                    "midi": 65,
                    "time": 350.0999999999864,
                    "velocity": 0.5590551181102362,
                    "duration": 0.5999999999999659
                },
                {
                    "name": "F5",
                    "midi": 77,
                    "time": 350.0999999999864,
                    "velocity": 0.6614173228346457,
                    "duration": 0.5999999999999659
                },
                {
                    "name": "C#5",
                    "midi": 73,
                    "time": 350.3999999999864,
                    "velocity": 0.5984251968503937,
                    "duration": 0.14999999999997726
                },
                {
                    "name": "G#4",
                    "midi": 68,
                    "time": 350.3999999999864,
                    "velocity": 0.5039370078740157,
                    "duration": 0.14999999999997726
                },
                {
                    "name": "A#5",
                    "midi": 82,
                    "time": 350.69999999998635,
                    "velocity": 0.7874015748031497,
                    "duration": 0.8999999999999204
                },
                {
                    "name": "A#4",
                    "midi": 70,
                    "time": 350.69999999998635,
                    "velocity": 0.6692913385826772,
                    "duration": 0.8999999999999204
                },
                {
                    "name": "F5",
                    "midi": 77,
                    "time": 350.99999999998636,
                    "velocity": 0.5984251968503937,
                    "duration": 0.14999999999997726
                },
                {
                    "name": "C#5",
                    "midi": 73,
                    "time": 350.99999999998636,
                    "velocity": 0.5039370078740157,
                    "duration": 0.14999999999997726
                },
                {
                    "name": "C#5",
                    "midi": 73,
                    "time": 351.2999999999863,
                    "velocity": 0.5039370078740157,
                    "duration": 0.14999999999997726
                },
                {
                    "name": "F5",
                    "midi": 77,
                    "time": 351.2999999999863,
                    "velocity": 0.5984251968503937,
                    "duration": 0.14999999999997726
                },
                {
                    "name": "G#5",
                    "midi": 80,
                    "time": 351.59999999998627,
                    "velocity": 0.7244094488188977,
                    "duration": 0.14999999999997726
                },
                {
                    "name": "G#4",
                    "midi": 68,
                    "time": 351.59999999998627,
                    "velocity": 0.6062992125984252,
                    "duration": 0.14999999999997726
                },
                {
                    "name": "C#5",
                    "midi": 73,
                    "time": 351.8999999999862,
                    "velocity": 0.6377952755905512,
                    "duration": 0.14999999999997726
                },
                {
                    "name": "F#4",
                    "midi": 66,
                    "time": 351.8999999999862,
                    "velocity": 0.5039370078740157,
                    "duration": 0.14999999999997726
                },
                {
                    "name": "A#4",
                    "midi": 70,
                    "time": 351.8999999999862,
                    "velocity": 0.5039370078740157,
                    "duration": 0.14999999999997726
                },
                {
                    "name": "F#5",
                    "midi": 78,
                    "time": 351.8999999999862,
                    "velocity": 0.7559055118110236,
                    "duration": 0.14999999999997726
                },
                {
                    "name": "F4",
                    "midi": 65,
                    "time": 352.1999999999862,
                    "velocity": 0.5826771653543307,
                    "duration": 0.14999999999997726
                },
                {
                    "name": "F5",
                    "midi": 77,
                    "time": 352.1999999999862,
                    "velocity": 0.6929133858267716,
                    "duration": 0.14999999999997726
                },
                {
                    "name": "D#4",
                    "midi": 63,
                    "time": 352.49999999998613,
                    "velocity": 0.5826771653543307,
                    "duration": 0.14999999999997726
                },
                {
                    "name": "D#5",
                    "midi": 75,
                    "time": 352.49999999998613,
                    "velocity": 0.6929133858267716,
                    "duration": 0.14999999999997726
                },
                {
                    "name": "F#4",
                    "midi": 66,
                    "time": 352.7999999999861,
                    "velocity": 0.47244094488188976,
                    "duration": 0.1624999999999659
                },
                {
                    "name": "A#4",
                    "midi": 70,
                    "time": 352.7999999999861,
                    "velocity": 0.48031496062992124,
                    "duration": 0.14999999999997726
                },
                {
                    "name": "C#4",
                    "midi": 61,
                    "time": 352.7999999999861,
                    "velocity": 0.4566929133858268,
                    "duration": 0.14999999999997726
                },
                {
                    "name": "C#5",
                    "midi": 73,
                    "time": 352.7999999999861,
                    "velocity": 0.5826771653543307,
                    "duration": 0.14999999999997726
                },
                {
                    "name": "F#4",
                    "midi": 66,
                    "time": 353.09999999998604,
                    "velocity": 0.5826771653543307,
                    "duration": 0.6000000000000227
                },
                {
                    "name": "C#5",
                    "midi": 73,
                    "time": 353.09999999998604,
                    "velocity": 0.5826771653543307,
                    "duration": 0.6000000000000227
                },
                {
                    "name": "F#5",
                    "midi": 78,
                    "time": 353.09999999998604,
                    "velocity": 0.7007874015748031,
                    "duration": 0.6000000000000227
                },
                {
                    "name": "A#4",
                    "midi": 70,
                    "time": 353.09999999998604,
                    "velocity": 0.5826771653543307,
                    "duration": 0.6000000000000227
                },
                {
                    "name": "C#5",
                    "midi": 73,
                    "time": 353.69999999998606,
                    "velocity": 0.5354330708661418,
                    "duration": 0.6000000000000227
                },
                {
                    "name": "A#5",
                    "midi": 82,
                    "time": 353.69999999998606,
                    "velocity": 0.6299212598425197,
                    "duration": 0.6000000000000227
                },
                {
                    "name": "A#4",
                    "midi": 70,
                    "time": 353.69999999998606,
                    "velocity": 0.5354330708661418,
                    "duration": 0.6000000000000227
                },
                {
                    "name": "F#5",
                    "midi": 78,
                    "time": 353.69999999998606,
                    "velocity": 0.5354330708661418,
                    "duration": 0.6000000000000227
                },
                {
                    "name": "F6",
                    "midi": 89,
                    "time": 354.2999999999861,
                    "velocity": 0.4330708661417323,
                    "duration": 0.14999999999997726
                },
                {
                    "name": "B5",
                    "midi": 83,
                    "time": 354.2999999999861,
                    "velocity": 0.4330708661417323,
                    "duration": 0.14999999999997726
                },
                {
                    "name": "C#7",
                    "midi": 97,
                    "time": 354.44999999998606,
                    "velocity": 0.4409448818897638,
                    "duration": 0.14999999999997726
                },
                {
                    "name": "G#6",
                    "midi": 92,
                    "time": 354.59999999998604,
                    "velocity": 0.44881889763779526,
                    "duration": 0.14999999999997726
                },
                {
                    "name": "C#6",
                    "midi": 85,
                    "time": 354.59999999998604,
                    "velocity": 0.44881889763779526,
                    "duration": 0.14999999999997726
                },
                {
                    "name": "C#7",
                    "midi": 97,
                    "time": 354.749999999986,
                    "velocity": 0.4645669291338583,
                    "duration": 0.14999999999997726
                },
                {
                    "name": "C6",
                    "midi": 84,
                    "time": 354.899999999986,
                    "velocity": 0.47244094488188976,
                    "duration": 0.14999999999997726
                },
                {
                    "name": "F6",
                    "midi": 89,
                    "time": 354.899999999986,
                    "velocity": 0.47244094488188976,
                    "duration": 0.14999999999997726
                },
                {
                    "name": "C#7",
                    "midi": 97,
                    "time": 355.04999999998597,
                    "velocity": 0.48031496062992124,
                    "duration": 0.14999999999997726
                },
                {
                    "name": "C#6",
                    "midi": 85,
                    "time": 355.19999999998595,
                    "velocity": 0.49606299212598426,
                    "duration": 0.14999999999997726
                },
                {
                    "name": "G#6",
                    "midi": 92,
                    "time": 355.19999999998595,
                    "velocity": 0.49606299212598426,
                    "duration": 0.14999999999997726
                },
                {
                    "name": "C#7",
                    "midi": 97,
                    "time": 355.3499999999859,
                    "velocity": 0.5039370078740157,
                    "duration": 0.14999999999997726
                },
                {
                    "name": "F6",
                    "midi": 89,
                    "time": 355.4999999999859,
                    "velocity": 0.5196850393700787,
                    "duration": 0.14999999999997726
                },
                {
                    "name": "B5",
                    "midi": 83,
                    "time": 355.4999999999859,
                    "velocity": 0.5196850393700787,
                    "duration": 0.14999999999997726
                },
                {
                    "name": "C#7",
                    "midi": 97,
                    "time": 355.6499999999859,
                    "velocity": 0.5275590551181102,
                    "duration": 0.14999999999997726
                },
                {
                    "name": "G#6",
                    "midi": 92,
                    "time": 355.79999999998586,
                    "velocity": 0.5433070866141733,
                    "duration": 0.14999999999997726
                },
                {
                    "name": "C#6",
                    "midi": 85,
                    "time": 355.79999999998586,
                    "velocity": 0.5433070866141733,
                    "duration": 0.14999999999997726
                },
                {
                    "name": "C#7",
                    "midi": 97,
                    "time": 355.94999999998583,
                    "velocity": 0.5433070866141733,
                    "duration": 0.14999999999997726
                },
                {
                    "name": "F6",
                    "midi": 89,
                    "time": 356.0999999999858,
                    "velocity": 0.5354330708661418,
                    "duration": 0.14999999999997726
                },
                {
                    "name": "C6",
                    "midi": 84,
                    "time": 356.0999999999858,
                    "velocity": 0.5354330708661418,
                    "duration": 0.14999999999997726
                },
                {
                    "name": "C#7",
                    "midi": 97,
                    "time": 356.2499999999858,
                    "velocity": 0.5275590551181102,
                    "duration": 0.14999999999997726
                },
                {
                    "name": "G#6",
                    "midi": 92,
                    "time": 356.39999999998577,
                    "velocity": 0.5275590551181102,
                    "duration": 0.14999999999997726
                },
                {
                    "name": "C#6",
                    "midi": 85,
                    "time": 356.39999999998577,
                    "velocity": 0.5275590551181102,
                    "duration": 0.14999999999997726
                },
                {
                    "name": "C#7",
                    "midi": 97,
                    "time": 356.54999999998574,
                    "velocity": 0.5196850393700787,
                    "duration": 0.14999999999997726
                },
                {
                    "name": "A#5",
                    "midi": 82,
                    "time": 356.6999999999857,
                    "velocity": 0.5590551181102362,
                    "duration": 0.14999999999997726
                },
                {
                    "name": "F#6",
                    "midi": 90,
                    "time": 356.6999999999857,
                    "velocity": 0.5590551181102362,
                    "duration": 0.14999999999997726
                },
                {
                    "name": "C#7",
                    "midi": 97,
                    "time": 356.8499999999857,
                    "velocity": 0.5039370078740157,
                    "duration": 0.14999999999997726
                },
                {
                    "name": "C#6",
                    "midi": 85,
                    "time": 356.9999999999857,
                    "velocity": 0.5275590551181102,
                    "duration": 0.14999999999997726
                },
                {
                    "name": "A#6",
                    "midi": 94,
                    "time": 356.9999999999857,
                    "velocity": 0.5275590551181102,
                    "duration": 0.14999999999997726
                },
                {
                    "name": "C#7",
                    "midi": 97,
                    "time": 357.14999999998565,
                    "velocity": 0.49606299212598426,
                    "duration": 0.14999999999997726
                },
                {
                    "name": "C6",
                    "midi": 84,
                    "time": 357.29999999998563,
                    "velocity": 0.5354330708661418,
                    "duration": 0.14999999999997726
                },
                {
                    "name": "F#6",
                    "midi": 90,
                    "time": 357.29999999998563,
                    "velocity": 0.5354330708661418,
                    "duration": 0.14999999999997726
                },
                {
                    "name": "C#7",
                    "midi": 97,
                    "time": 357.4499999999856,
                    "velocity": 0.4881889763779528,
                    "duration": 0.14999999999997726
                },
                {
                    "name": "C#6",
                    "midi": 85,
                    "time": 357.5999999999856,
                    "velocity": 0.5354330708661418,
                    "duration": 0.14999999999997726
                },
                {
                    "name": "A#6",
                    "midi": 94,
                    "time": 357.5999999999856,
                    "velocity": 0.5354330708661418,
                    "duration": 0.14999999999997726
                },
                {
                    "name": "C#7",
                    "midi": 97,
                    "time": 357.74999999998556,
                    "velocity": 0.48031496062992124,
                    "duration": 0.14999999999997726
                },
                {
                    "name": "F#6",
                    "midi": 90,
                    "time": 357.89999999998554,
                    "velocity": 0.5433070866141733,
                    "duration": 0.14999999999997726
                },
                {
                    "name": "A#5",
                    "midi": 82,
                    "time": 357.89999999998554,
                    "velocity": 0.5433070866141733,
                    "duration": 0.14999999999997726
                },
                {
                    "name": "C#7",
                    "midi": 97,
                    "time": 358.0499999999855,
                    "velocity": 0.47244094488188976,
                    "duration": 0.14999999999997726
                },
                {
                    "name": "A#6",
                    "midi": 94,
                    "time": 358.1999999999855,
                    "velocity": 0.49606299212598426,
                    "duration": 0.14999999999997726
                },
                {
                    "name": "C#6",
                    "midi": 85,
                    "time": 358.1999999999855,
                    "velocity": 0.49606299212598426,
                    "duration": 0.14999999999997726
                },
                {
                    "name": "C#7",
                    "midi": 97,
                    "time": 358.34999999998547,
                    "velocity": 0.4566929133858268,
                    "duration": 0.14999999999997726
                },
                {
                    "name": "C6",
                    "midi": 84,
                    "time": 358.49999999998545,
                    "velocity": 0.48031496062992124,
                    "duration": 0.14999999999997726
                },
                {
                    "name": "F#6",
                    "midi": 90,
                    "time": 358.49999999998545,
                    "velocity": 0.48031496062992124,
                    "duration": 0.14999999999997726
                },
                {
                    "name": "C#7",
                    "midi": 97,
                    "time": 358.6499999999854,
                    "velocity": 0.44881889763779526,
                    "duration": 0.14999999999997726
                },
                {
                    "name": "C#6",
                    "midi": 85,
                    "time": 358.7999999999854,
                    "velocity": 0.48031496062992124,
                    "duration": 0.14999999999997726
                },
                {
                    "name": "A#6",
                    "midi": 94,
                    "time": 358.7999999999854,
                    "velocity": 0.48031496062992124,
                    "duration": 0.14999999999997726
                },
                {
                    "name": "C#7",
                    "midi": 97,
                    "time": 358.9499999999854,
                    "velocity": 0.4409448818897638,
                    "duration": 0.14999999999997726
                },
                {
                    "name": "F6",
                    "midi": 89,
                    "time": 359.09999999998536,
                    "velocity": 0.47244094488188976,
                    "duration": 0.14999999999997726
                },
                {
                    "name": "B5",
                    "midi": 83,
                    "time": 359.09999999998536,
                    "velocity": 0.47244094488188976,
                    "duration": 0.14999999999997726
                },
                {
                    "name": "C#7",
                    "midi": 97,
                    "time": 359.24999999998533,
                    "velocity": 0.47244094488188976,
                    "duration": 0.14999999999997726
                },
                {
                    "name": "C#6",
                    "midi": 85,
                    "time": 359.3999999999853,
                    "velocity": 0.48031496062992124,
                    "duration": 0.14999999999997726
                },
                {
                    "name": "G#6",
                    "midi": 92,
                    "time": 359.3999999999853,
                    "velocity": 0.48031496062992124,
                    "duration": 0.14999999999997726
                },
                {
                    "name": "C#7",
                    "midi": 97,
                    "time": 359.5499999999853,
                    "velocity": 0.4881889763779528,
                    "duration": 0.14999999999997726
                },
                {
                    "name": "C6",
                    "midi": 84,
                    "time": 359.69999999998527,
                    "velocity": 0.4881889763779528,
                    "duration": 0.14999999999997726
                },
                {
                    "name": "F6",
                    "midi": 89,
                    "time": 359.69999999998527,
                    "velocity": 0.4881889763779528,
                    "duration": 0.14999999999997726
                },
                {
                    "name": "C#7",
                    "midi": 97,
                    "time": 359.84999999998524,
                    "velocity": 0.49606299212598426,
                    "duration": 0.14999999999997726
                },
                {
                    "name": "C#6",
                    "midi": 85,
                    "time": 359.9999999999852,
                    "velocity": 0.5039370078740157,
                    "duration": 0.14999999999997726
                },
                {
                    "name": "G#6",
                    "midi": 92,
                    "time": 359.9999999999852,
                    "velocity": 0.5039370078740157,
                    "duration": 0.14999999999997726
                },
                {
                    "name": "C#7",
                    "midi": 97,
                    "time": 360.1499999999852,
                    "velocity": 0.5196850393700787,
                    "duration": 0.14999999999997726
                },
                {
                    "name": "B5",
                    "midi": 83,
                    "time": 360.2999999999852,
                    "velocity": 0.5196850393700787,
                    "duration": 0.14999999999997726
                },
                {
                    "name": "F6",
                    "midi": 89,
                    "time": 360.2999999999852,
                    "velocity": 0.5196850393700787,
                    "duration": 0.14999999999997726
                },
                {
                    "name": "C#7",
                    "midi": 97,
                    "time": 360.44999999998515,
                    "velocity": 0.5275590551181102,
                    "duration": 0.14999999999997726
                },
                {
                    "name": "C#6",
                    "midi": 85,
                    "time": 360.59999999998513,
                    "velocity": 0.5433070866141733,
                    "duration": 0.14999999999997726
                },
                {
                    "name": "G#6",
                    "midi": 92,
                    "time": 360.59999999998513,
                    "velocity": 0.5433070866141733,
                    "duration": 0.14999999999997726
                },
                {
                    "name": "C#7",
                    "midi": 97,
                    "time": 360.7499999999851,
                    "velocity": 0.5433070866141733,
                    "duration": 0.14999999999997726
                },
                {
                    "name": "C6",
                    "midi": 84,
                    "time": 360.8999999999851,
                    "velocity": 0.5354330708661418,
                    "duration": 0.14999999999997726
                },
                {
                    "name": "F6",
                    "midi": 89,
                    "time": 360.8999999999851,
                    "velocity": 0.5354330708661418,
                    "duration": 0.14999999999997726
                },
                {
                    "name": "C#7",
                    "midi": 97,
                    "time": 361.04999999998506,
                    "velocity": 0.5275590551181102,
                    "duration": 0.14999999999997726
                },
                {
                    "name": "G#6",
                    "midi": 92,
                    "time": 361.19999999998504,
                    "velocity": 0.5275590551181102,
                    "duration": 0.14999999999997726
                },
                {
                    "name": "C#6",
                    "midi": 85,
                    "time": 361.19999999998504,
                    "velocity": 0.5275590551181102,
                    "duration": 0.14999999999997726
                },
                {
                    "name": "C#7",
                    "midi": 97,
                    "time": 361.349999999985,
                    "velocity": 0.5196850393700787,
                    "duration": 0.14999999999997726
                },
                {
                    "name": "A#5",
                    "midi": 82,
                    "time": 361.499999999985,
                    "velocity": 0.5590551181102362,
                    "duration": 0.14999999999997726
                },
                {
                    "name": "F#6",
                    "midi": 90,
                    "time": 361.499999999985,
                    "velocity": 0.5590551181102362,
                    "duration": 0.14999999999997726
                },
                {
                    "name": "C#7",
                    "midi": 97,
                    "time": 361.64999999998497,
                    "velocity": 0.5039370078740157,
                    "duration": 0.14999999999997726
                },
                {
                    "name": "A#6",
                    "midi": 94,
                    "time": 361.79999999998495,
                    "velocity": 0.5275590551181102,
                    "duration": 0.14999999999997726
                },
                {
                    "name": "C#6",
                    "midi": 85,
                    "time": 361.79999999998495,
                    "velocity": 0.5275590551181102,
                    "duration": 0.14999999999997726
                },
                {
                    "name": "C#7",
                    "midi": 97,
                    "time": 361.9499999999849,
                    "velocity": 0.49606299212598426,
                    "duration": 0.14999999999997726
                },
                {
                    "name": "C6",
                    "midi": 84,
                    "time": 362.0999999999849,
                    "velocity": 0.5354330708661418,
                    "duration": 0.14999999999997726
                },
                {
                    "name": "F#6",
                    "midi": 90,
                    "time": 362.0999999999849,
                    "velocity": 0.5354330708661418,
                    "duration": 0.14999999999997726
                },
                {
                    "name": "C#7",
                    "midi": 97,
                    "time": 362.2499999999849,
                    "velocity": 0.4881889763779528,
                    "duration": 0.14999999999997726
                },
                {
                    "name": "C#6",
                    "midi": 85,
                    "time": 362.39999999998486,
                    "velocity": 0.5354330708661418,
                    "duration": 0.14999999999997726
                },
                {
                    "name": "A#6",
                    "midi": 94,
                    "time": 362.39999999998486,
                    "velocity": 0.5354330708661418,
                    "duration": 0.14999999999997726
                },
                {
                    "name": "C#7",
                    "midi": 97,
                    "time": 362.54999999998483,
                    "velocity": 0.48031496062992124,
                    "duration": 0.14999999999997726
                },
                {
                    "name": "F#6",
                    "midi": 90,
                    "time": 362.6999999999848,
                    "velocity": 0.5433070866141733,
                    "duration": 0.14999999999997726
                },
                {
                    "name": "A#5",
                    "midi": 82,
                    "time": 362.6999999999848,
                    "velocity": 0.5433070866141733,
                    "duration": 0.14999999999997726
                },
                {
                    "name": "C#7",
                    "midi": 97,
                    "time": 362.8499999999848,
                    "velocity": 0.4645669291338583,
                    "duration": 0.14999999999997726
                },
                {
                    "name": "A#6",
                    "midi": 94,
                    "time": 362.99999999998477,
                    "velocity": 0.48031496062992124,
                    "duration": 0.14999999999997726
                },
                {
                    "name": "C#6",
                    "midi": 85,
                    "time": 362.99999999998477,
                    "velocity": 0.48031496062992124,
                    "duration": 0.14999999999997726
                },
                {
                    "name": "C#7",
                    "midi": 97,
                    "time": 363.14999999998474,
                    "velocity": 0.4409448818897638,
                    "duration": 0.14999999999997726
                },
                {
                    "name": "F#6",
                    "midi": 90,
                    "time": 363.2999999999847,
                    "velocity": 0.4566929133858268,
                    "duration": 0.14999999999997726
                },
                {
                    "name": "A#5",
                    "midi": 82,
                    "time": 363.2999999999847,
                    "velocity": 0.4566929133858268,
                    "duration": 0.14999999999997726
                },
                {
                    "name": "C#7",
                    "midi": 97,
                    "time": 363.4499999999847,
                    "velocity": 0.4094488188976378,
                    "duration": 0.14999999999997726
                },
                {
                    "name": "A#6",
                    "midi": 94,
                    "time": 363.5999999999847,
                    "velocity": 0.44881889763779526,
                    "duration": 0.14999999999997726
                },
                {
                    "name": "C#6",
                    "midi": 85,
                    "time": 363.5999999999847,
                    "velocity": 0.44881889763779526,
                    "duration": 0.14999999999997726
                },
                {
                    "name": "C#7",
                    "midi": 97,
                    "time": 363.74999999998465,
                    "velocity": 0.3937007874015748,
                    "duration": 0.14999999999997726
                },
                {
                    "name": "B5",
                    "midi": 83,
                    "time": 363.89999999998463,
                    "velocity": 0.4330708661417323,
                    "duration": 0.14999999999997726
                },
                {
                    "name": "F6",
                    "midi": 89,
                    "time": 363.89999999998463,
                    "velocity": 0.5118110236220472,
                    "duration": 0.14999999999997726
                },
                {
                    "name": "C#7",
                    "midi": 97,
                    "time": 364.0499999999846,
                    "velocity": 0.3779527559055118,
                    "duration": 0.14999999999997726
                },
                {
                    "name": "G#6",
                    "midi": 92,
                    "time": 364.1999999999846,
                    "velocity": 0.4881889763779528,
                    "duration": 0.1875
                },
                {
                    "name": "C#6",
                    "midi": 85,
                    "time": 364.1999999999846,
                    "velocity": 0.4094488188976378,
                    "duration": 0.1875
                },
                {
                    "name": "C#7",
                    "midi": 97,
                    "time": 364.34999999998456,
                    "velocity": 0.3700787401574803,
                    "duration": 0.1500000000000341
                },
                {
                    "name": "F6",
                    "midi": 89,
                    "time": 364.4999999999846,
                    "velocity": 0.5118110236220472,
                    "duration": 0.14999999999997726
                },
                {
                    "name": "B5",
                    "midi": 83,
                    "time": 364.4999999999846,
                    "velocity": 0.4330708661417323,
                    "duration": 0.14999999999997726
                },
                {
                    "name": "C#7",
                    "midi": 97,
                    "time": 364.6499999999846,
                    "velocity": 0.36220472440944884,
                    "duration": 0.14999999999997726
                },
                {
                    "name": "G#6",
                    "midi": 92,
                    "time": 364.79999999998455,
                    "velocity": 0.48031496062992124,
                    "duration": 0.1875
                },
                {
                    "name": "C#6",
                    "midi": 85,
                    "time": 364.79999999998455,
                    "velocity": 0.4015748031496063,
                    "duration": 0.1875
                },
                {
                    "name": "C#7",
                    "midi": 97,
                    "time": 364.9499999999845,
                    "velocity": 0.3779527559055118,
                    "duration": 0.1500000000000341
                },
                {
                    "name": "F6",
                    "midi": 89,
                    "time": 365.09999999998456,
                    "velocity": 0.5118110236220472,
                    "duration": 0.14999999999997726
                },
                {
                    "name": "B5",
                    "midi": 83,
                    "time": 365.09999999998456,
                    "velocity": 0.4330708661417323,
                    "duration": 0.14999999999997726
                },
                {
                    "name": "C#7",
                    "midi": 97,
                    "time": 365.24999999998454,
                    "velocity": 0.3779527559055118,
                    "duration": 0.14999999999997726
                },
                {
                    "name": "G#6",
                    "midi": 92,
                    "time": 365.3999999999845,
                    "velocity": 0.4881889763779528,
                    "duration": 0.1875
                },
                {
                    "name": "C#6",
                    "midi": 85,
                    "time": 365.3999999999845,
                    "velocity": 0.4094488188976378,
                    "duration": 0.1875
                },
                {
                    "name": "C#7",
                    "midi": 97,
                    "time": 365.5499999999845,
                    "velocity": 0.3700787401574803,
                    "duration": 0.1500000000000341
                },
                {
                    "name": "F5",
                    "midi": 77,
                    "time": 365.6999999999845,
                    "velocity": 0.4330708661417323,
                    "duration": 0.6000000000000227
                },
                {
                    "name": "C#6",
                    "midi": 85,
                    "time": 365.6999999999845,
                    "velocity": 0.4330708661417323,
                    "duration": 0.6000000000000227
                },
                {
                    "name": "F6",
                    "midi": 89,
                    "time": 365.6999999999845,
                    "velocity": 0.5118110236220472,
                    "duration": 0.6000000000000227
                },
                {
                    "name": "F#6",
                    "midi": 90,
                    "time": 366.29999999998455,
                    "velocity": 0.5118110236220472,
                    "duration": 0.14999999999997726
                },
                {
                    "name": "A#5",
                    "midi": 82,
                    "time": 366.29999999998455,
                    "velocity": 0.4330708661417323,
                    "duration": 0.14999999999997726
                },
                {
                    "name": "C#7",
                    "midi": 97,
                    "time": 366.4499999999845,
                    "velocity": 0.3779527559055118,
                    "duration": 0.14999999999997726
                },
                {
                    "name": "C#6",
                    "midi": 85,
                    "time": 366.5999999999845,
                    "velocity": 0.4094488188976378,
                    "duration": 0.1875
                },
                {
                    "name": "A#6",
                    "midi": 94,
                    "time": 366.5999999999845,
                    "velocity": 0.4881889763779528,
                    "duration": 0.1875
                },
                {
                    "name": "C#7",
                    "midi": 97,
                    "time": 366.7499999999845,
                    "velocity": 0.3700787401574803,
                    "duration": 0.1500000000000341
                },
                {
                    "name": "F#6",
                    "midi": 90,
                    "time": 366.8999999999845,
                    "velocity": 0.5118110236220472,
                    "duration": 0.14999999999997726
                },
                {
                    "name": "A#5",
                    "midi": 82,
                    "time": 366.8999999999845,
                    "velocity": 0.4330708661417323,
                    "duration": 0.14999999999997726
                },
                {
                    "name": "C#7",
                    "midi": 97,
                    "time": 367.0499999999845,
                    "velocity": 0.36220472440944884,
                    "duration": 0.14999999999997726
                },
                {
                    "name": "C#6",
                    "midi": 85,
                    "time": 367.19999999998447,
                    "velocity": 0.4015748031496063,
                    "duration": 0.1875
                },
                {
                    "name": "A#6",
                    "midi": 94,
                    "time": 367.19999999998447,
                    "velocity": 0.48031496062992124,
                    "duration": 0.1875
                },
                {
                    "name": "C#7",
                    "midi": 97,
                    "time": 367.34999999998445,
                    "velocity": 0.3779527559055118,
                    "duration": 0.1500000000000341
                },
                {
                    "name": "F#6",
                    "midi": 90,
                    "time": 367.4999999999845,
                    "velocity": 0.5118110236220472,
                    "duration": 0.14999999999997726
                },
                {
                    "name": "A#5",
                    "midi": 82,
                    "time": 367.4999999999845,
                    "velocity": 0.4330708661417323,
                    "duration": 0.14999999999997726
                },
                {
                    "name": "C#7",
                    "midi": 97,
                    "time": 367.64999999998446,
                    "velocity": 0.3779527559055118,
                    "duration": 0.14999999999997726
                },
                {
                    "name": "C#6",
                    "midi": 85,
                    "time": 367.79999999998444,
                    "velocity": 0.4094488188976378,
                    "duration": 0.1875
                },
                {
                    "name": "A#6",
                    "midi": 94,
                    "time": 367.79999999998444,
                    "velocity": 0.4881889763779528,
                    "duration": 0.1875
                },
                {
                    "name": "C#7",
                    "midi": 97,
                    "time": 367.9499999999844,
                    "velocity": 0.3700787401574803,
                    "duration": 0.1500000000000341
                },
                {
                    "name": "C#6",
                    "midi": 85,
                    "time": 368.09999999998445,
                    "velocity": 0.4330708661417323,
                    "duration": 0.6000000000000227
                },
                {
                    "name": "F#6",
                    "midi": 90,
                    "time": 368.09999999998445,
                    "velocity": 0.5118110236220472,
                    "duration": 0.6000000000000227
                },
                {
                    "name": "F#5",
                    "midi": 78,
                    "time": 368.09999999998445,
                    "velocity": 0.4330708661417323,
                    "duration": 0.6000000000000227
                },
                {
                    "name": "F6",
                    "midi": 89,
                    "time": 368.69999999998447,
                    "velocity": 0.5118110236220472,
                    "duration": 0.14999999999997726
                },
                {
                    "name": "B5",
                    "midi": 83,
                    "time": 368.69999999998447,
                    "velocity": 0.4330708661417323,
                    "duration": 0.14999999999997726
                },
                {
                    "name": "C#7",
                    "midi": 97,
                    "time": 368.84999999998445,
                    "velocity": 0.3779527559055118,
                    "duration": 0.14999999999997726
                },
                {
                    "name": "G#6",
                    "midi": 92,
                    "time": 368.9999999999844,
                    "velocity": 0.4881889763779528,
                    "duration": 0.1875
                },
                {
                    "name": "C#6",
                    "midi": 85,
                    "time": 368.9999999999844,
                    "velocity": 0.4094488188976378,
                    "duration": 0.1875
                },
                {
                    "name": "C#7",
                    "midi": 97,
                    "time": 369.1499999999844,
                    "velocity": 0.3700787401574803,
                    "duration": 0.1500000000000341
                },
                {
                    "name": "F6",
                    "midi": 89,
                    "time": 369.29999999998444,
                    "velocity": 0.5118110236220472,
                    "duration": 0.14999999999997726
                },
                {
                    "name": "B5",
                    "midi": 83,
                    "time": 369.29999999998444,
                    "velocity": 0.4330708661417323,
                    "duration": 0.14999999999997726
                },
                {
                    "name": "C#7",
                    "midi": 97,
                    "time": 369.4499999999844,
                    "velocity": 0.36220472440944884,
                    "duration": 0.14999999999997726
                },
                {
                    "name": "G#6",
                    "midi": 92,
                    "time": 369.5999999999844,
                    "velocity": 0.48031496062992124,
                    "duration": 0.1875
                },
                {
                    "name": "C#6",
                    "midi": 85,
                    "time": 369.5999999999844,
                    "velocity": 0.4015748031496063,
                    "duration": 0.1875
                },
                {
                    "name": "C#7",
                    "midi": 97,
                    "time": 369.74999999998437,
                    "velocity": 0.3779527559055118,
                    "duration": 0.1500000000000341
                },
                {
                    "name": "B5",
                    "midi": 83,
                    "time": 369.8999999999844,
                    "velocity": 0.4330708661417323,
                    "duration": 0.14999999999997726
                },
                {
                    "name": "F6",
                    "midi": 89,
                    "time": 369.8999999999844,
                    "velocity": 0.5118110236220472,
                    "duration": 0.14999999999997726
                },
                {
                    "name": "C#7",
                    "midi": 97,
                    "time": 370.0499999999844,
                    "velocity": 0.3779527559055118,
                    "duration": 0.14999999999997726
                },
                {
                    "name": "G#6",
                    "midi": 92,
                    "time": 370.19999999998436,
                    "velocity": 0.4881889763779528,
                    "duration": 0.1875
                },
                {
                    "name": "C#6",
                    "midi": 85,
                    "time": 370.19999999998436,
                    "velocity": 0.4094488188976378,
                    "duration": 0.1875
                },
                {
                    "name": "C#7",
                    "midi": 97,
                    "time": 370.34999999998433,
                    "velocity": 0.3700787401574803,
                    "duration": 0.1500000000000341
                },
                {
                    "name": "C#6",
                    "midi": 85,
                    "time": 370.49999999998437,
                    "velocity": 0.4330708661417323,
                    "duration": 0.6000000000000227
                },
                {
                    "name": "F6",
                    "midi": 89,
                    "time": 370.49999999998437,
                    "velocity": 0.5118110236220472,
                    "duration": 0.6000000000000227
                },
                {
                    "name": "F5",
                    "midi": 77,
                    "time": 370.49999999998437,
                    "velocity": 0.4330708661417323,
                    "duration": 0.6000000000000227
                },
                {
                    "name": "A#5",
                    "midi": 82,
                    "time": 371.0999999999844,
                    "velocity": 0.4330708661417323,
                    "duration": 0.14999999999997726
                },
                {
                    "name": "F#6",
                    "midi": 90,
                    "time": 371.0999999999844,
                    "velocity": 0.5118110236220472,
                    "duration": 0.14999999999997726
                },
                {
                    "name": "C#7",
                    "midi": 97,
                    "time": 371.24999999998437,
                    "velocity": 0.3779527559055118,
                    "duration": 0.14999999999997726
                },
                {
                    "name": "A#6",
                    "midi": 94,
                    "time": 371.39999999998435,
                    "velocity": 0.4881889763779528,
                    "duration": 0.1875
                },
                {
                    "name": "C#6",
                    "midi": 85,
                    "time": 371.39999999998435,
                    "velocity": 0.4094488188976378,
                    "duration": 0.1875
                },
                {
                    "name": "C#7",
                    "midi": 97,
                    "time": 371.5499999999843,
                    "velocity": 0.3700787401574803,
                    "duration": 0.1500000000000341
                },
                {
                    "name": "A#5",
                    "midi": 82,
                    "time": 371.69999999998436,
                    "velocity": 0.4330708661417323,
                    "duration": 0.14999999999997726
                },
                {
                    "name": "F#6",
                    "midi": 90,
                    "time": 371.69999999998436,
                    "velocity": 0.5118110236220472,
                    "duration": 0.14999999999997726
                },
                {
                    "name": "C#7",
                    "midi": 97,
                    "time": 371.84999999998433,
                    "velocity": 0.36220472440944884,
                    "duration": 0.14999999999997726
                },
                {
                    "name": "A#6",
                    "midi": 94,
                    "time": 371.9999999999843,
                    "velocity": 0.48031496062992124,
                    "duration": 0.1875
                },
                {
                    "name": "C#6",
                    "midi": 85,
                    "time": 371.9999999999843,
                    "velocity": 0.4015748031496063,
                    "duration": 0.1875
                },
                {
                    "name": "C#7",
                    "midi": 97,
                    "time": 372.1499999999843,
                    "velocity": 0.3779527559055118,
                    "duration": 0.1500000000000341
                },
                {
                    "name": "A#5",
                    "midi": 82,
                    "time": 372.2999999999843,
                    "velocity": 0.4330708661417323,
                    "duration": 0.14999999999997726
                },
                {
                    "name": "F#6",
                    "midi": 90,
                    "time": 372.2999999999843,
                    "velocity": 0.5118110236220472,
                    "duration": 0.14999999999997726
                },
                {
                    "name": "C#7",
                    "midi": 97,
                    "time": 372.4499999999843,
                    "velocity": 0.3779527559055118,
                    "duration": 0.14999999999997726
                },
                {
                    "name": "A#6",
                    "midi": 94,
                    "time": 372.5999999999843,
                    "velocity": 0.4881889763779528,
                    "duration": 0.1875
                },
                {
                    "name": "C#6",
                    "midi": 85,
                    "time": 372.5999999999843,
                    "velocity": 0.4094488188976378,
                    "duration": 0.1875
                },
                {
                    "name": "C#7",
                    "midi": 97,
                    "time": 372.74999999998425,
                    "velocity": 0.3700787401574803,
                    "duration": 0.1500000000000341
                },
                {
                    "name": "F#6",
                    "midi": 90,
                    "time": 372.8999999999843,
                    "velocity": 0.5118110236220472,
                    "duration": 0.5249999999999773
                },
                {
                    "name": "C#6",
                    "midi": 85,
                    "time": 372.8999999999843,
                    "velocity": 0.4330708661417323,
                    "duration": 0.5249999999999773
                },
                {
                    "name": "F#5",
                    "midi": 78,
                    "time": 372.8999999999843,
                    "velocity": 0.4330708661417323,
                    "duration": 0.5249999999999773
                },
                {
                    "name": "D#6",
                    "midi": 87,
                    "time": 373.49999999998425,
                    "velocity": 0.5118110236220472,
                    "duration": 0.14999999999997726
                },
                {
                    "name": "C#7",
                    "midi": 97,
                    "time": 373.64999999998423,
                    "velocity": 0.3700787401574803,
                    "duration": 0.14999999999997726
                },
                {
                    "name": "B5",
                    "midi": 83,
                    "time": 373.7999999999842,
                    "velocity": 0.47244094488188976,
                    "duration": 0.14999999999997726
                },
                {
                    "name": "C#7",
                    "midi": 97,
                    "time": 373.9499999999842,
                    "velocity": 0.3700787401574803,
                    "duration": 0.14999999999997726
                },
                {
                    "name": "A#5",
                    "midi": 82,
                    "time": 374.09999999998416,
                    "velocity": 0.47244094488188976,
                    "duration": 0.14999999999997726
                },
                {
                    "name": "C#7",
                    "midi": 97,
                    "time": 374.24999999998414,
                    "velocity": 0.3700787401574803,
                    "duration": 0.14999999999997726
                },
                {
                    "name": "B5",
                    "midi": 83,
                    "time": 374.3999999999841,
                    "velocity": 0.4881889763779528,
                    "duration": 0.14999999999997726
                },
                {
                    "name": "C#7",
                    "midi": 97,
                    "time": 374.5499999999841,
                    "velocity": 0.3700787401574803,
                    "duration": 0.14999999999997726
                },
                {
                    "name": "D#6",
                    "midi": 87,
                    "time": 374.6999999999841,
                    "velocity": 0.5118110236220472,
                    "duration": 0.14999999999997726
                },
                {
                    "name": "C#7",
                    "midi": 97,
                    "time": 374.84999999998405,
                    "velocity": 0.3779527559055118,
                    "duration": 0.14999999999997726
                },
                {
                    "name": "B5",
                    "midi": 83,
                    "time": 374.999999999984,
                    "velocity": 0.4881889763779528,
                    "duration": 0.14999999999997726
                },
                {
                    "name": "C#7",
                    "midi": 97,
                    "time": 375.149999999984,
                    "velocity": 0.3700787401574803,
                    "duration": 0.14999999999997726
                },
                {
                    "name": "F#6",
                    "midi": 90,
                    "time": 375.299999999984,
                    "velocity": 0.5118110236220472,
                    "duration": 0.14999999999997726
                },
                {
                    "name": "C#7",
                    "midi": 97,
                    "time": 375.44999999998396,
                    "velocity": 0.36220472440944884,
                    "duration": 0.14999999999997726
                },
                {
                    "name": "D#6",
                    "midi": 87,
                    "time": 375.59999999998394,
                    "velocity": 0.48031496062992124,
                    "duration": 0.14999999999997726
                },
                {
                    "name": "C#7",
                    "midi": 97,
                    "time": 375.7499999999839,
                    "velocity": 0.3779527559055118,
                    "duration": 0.14999999999997726
                },
                {
                    "name": "C#6",
                    "midi": 85,
                    "time": 375.8999999999839,
                    "velocity": 0.5118110236220472,
                    "duration": 0.14999999999997726
                },
                {
                    "name": "C#7",
                    "midi": 97,
                    "time": 376.04999999998387,
                    "velocity": 0.3700787401574803,
                    "duration": 0.14999999999997726
                },
                {
                    "name": "A#5",
                    "midi": 82,
                    "time": 376.19999999998385,
                    "velocity": 0.47244094488188976,
                    "duration": 0.14999999999997726
                },
                {
                    "name": "C#7",
                    "midi": 97,
                    "time": 376.3499999999838,
                    "velocity": 0.3700787401574803,
                    "duration": 0.14999999999997726
                },
                {
                    "name": "A5",
                    "midi": 81,
                    "time": 376.4999999999838,
                    "velocity": 0.47244094488188976,
                    "duration": 0.14999999999997726
                },
                {
                    "name": "C#7",
                    "midi": 97,
                    "time": 376.6499999999838,
                    "velocity": 0.3700787401574803,
                    "duration": 0.14999999999997726
                },
                {
                    "name": "A#5",
                    "midi": 82,
                    "time": 376.79999999998375,
                    "velocity": 0.4881889763779528,
                    "duration": 0.14999999999997726
                },
                {
                    "name": "C#7",
                    "midi": 97,
                    "time": 376.94999999998373,
                    "velocity": 0.3700787401574803,
                    "duration": 0.14999999999997726
                },
                {
                    "name": "C#6",
                    "midi": 85,
                    "time": 377.0999999999837,
                    "velocity": 0.5118110236220472,
                    "duration": 0.14999999999997726
                },
                {
                    "name": "C#7",
                    "midi": 97,
                    "time": 377.2499999999837,
                    "velocity": 0.3779527559055118,
                    "duration": 0.14999999999997726
                },
                {
                    "name": "A#5",
                    "midi": 82,
                    "time": 377.39999999998366,
                    "velocity": 0.4881889763779528,
                    "duration": 0.14999999999997726
                },
                {
                    "name": "C#7",
                    "midi": 97,
                    "time": 377.54999999998364,
                    "velocity": 0.3700787401574803,
                    "duration": 0.14999999999997726
                },
                {
                    "name": "F#6",
                    "midi": 90,
                    "time": 377.6999999999836,
                    "velocity": 0.5118110236220472,
                    "duration": 0.14999999999997726
                },
                {
                    "name": "C#7",
                    "midi": 97,
                    "time": 377.8499999999836,
                    "velocity": 0.36220472440944884,
                    "duration": 0.14999999999997726
                },
                {
                    "name": "C#6",
                    "midi": 85,
                    "time": 377.9999999999836,
                    "velocity": 0.48031496062992124,
                    "duration": 0.14999999999997726
                },
                {
                    "name": "C#7",
                    "midi": 97,
                    "time": 378.14999999998355,
                    "velocity": 0.3779527559055118,
                    "duration": 0.14999999999997726
                },
                {
                    "name": "D#6",
                    "midi": 87,
                    "time": 378.2999999999835,
                    "velocity": 0.5118110236220472,
                    "duration": 0.14999999999997726
                },
                {
                    "name": "C#7",
                    "midi": 97,
                    "time": 378.4499999999835,
                    "velocity": 0.3700787401574803,
                    "duration": 0.14999999999997726
                },
                {
                    "name": "B5",
                    "midi": 83,
                    "time": 378.5999999999835,
                    "velocity": 0.47244094488188976,
                    "duration": 0.14999999999997726
                },
                {
                    "name": "C#7",
                    "midi": 97,
                    "time": 378.74999999998346,
                    "velocity": 0.3700787401574803,
                    "duration": 0.14999999999997726
                },
                {
                    "name": "A#5",
                    "midi": 82,
                    "time": 378.89999999998344,
                    "velocity": 0.47244094488188976,
                    "duration": 0.14999999999997726
                },
                {
                    "name": "C#7",
                    "midi": 97,
                    "time": 379.0499999999834,
                    "velocity": 0.3700787401574803,
                    "duration": 0.14999999999997726
                },
                {
                    "name": "B5",
                    "midi": 83,
                    "time": 379.1999999999834,
                    "velocity": 0.4881889763779528,
                    "duration": 0.14999999999997726
                },
                {
                    "name": "C#7",
                    "midi": 97,
                    "time": 379.34999999998337,
                    "velocity": 0.3700787401574803,
                    "duration": 0.14999999999997726
                },
                {
                    "name": "D#6",
                    "midi": 87,
                    "time": 379.49999999998334,
                    "velocity": 0.5118110236220472,
                    "duration": 0.14999999999997726
                },
                {
                    "name": "C#7",
                    "midi": 97,
                    "time": 379.6499999999833,
                    "velocity": 0.3779527559055118,
                    "duration": 0.14999999999997726
                },
                {
                    "name": "B5",
                    "midi": 83,
                    "time": 379.7999999999833,
                    "velocity": 0.4881889763779528,
                    "duration": 0.14999999999997726
                },
                {
                    "name": "C#7",
                    "midi": 97,
                    "time": 379.9499999999833,
                    "velocity": 0.3700787401574803,
                    "duration": 0.14999999999997726
                },
                {
                    "name": "F#6",
                    "midi": 90,
                    "time": 380.09999999998325,
                    "velocity": 0.5118110236220472,
                    "duration": 0.14999999999997726
                },
                {
                    "name": "C#7",
                    "midi": 97,
                    "time": 380.24999999998323,
                    "velocity": 0.36220472440944884,
                    "duration": 0.14999999999997726
                },
                {
                    "name": "D#6",
                    "midi": 87,
                    "time": 380.3999999999832,
                    "velocity": 0.48031496062992124,
                    "duration": 0.14999999999997726
                },
                {
                    "name": "C#7",
                    "midi": 97,
                    "time": 380.5499999999832,
                    "velocity": 0.3779527559055118,
                    "duration": 0.14999999999997726
                },
                {
                    "name": "C#6",
                    "midi": 85,
                    "time": 380.69999999998316,
                    "velocity": 0.5118110236220472,
                    "duration": 0.14999999999997726
                },
                {
                    "name": "C#7",
                    "midi": 97,
                    "time": 380.84999999998314,
                    "velocity": 0.3700787401574803,
                    "duration": 0.14999999999997726
                },
                {
                    "name": "A#5",
                    "midi": 82,
                    "time": 380.9999999999831,
                    "velocity": 0.47244094488188976,
                    "duration": 0.14999999999997726
                },
                {
                    "name": "C#7",
                    "midi": 97,
                    "time": 381.1499999999831,
                    "velocity": 0.3700787401574803,
                    "duration": 0.14999999999997726
                },
                {
                    "name": "A5",
                    "midi": 81,
                    "time": 381.2999999999831,
                    "velocity": 0.47244094488188976,
                    "duration": 0.14999999999997726
                },
                {
                    "name": "C#7",
                    "midi": 97,
                    "time": 381.44999999998305,
                    "velocity": 0.3700787401574803,
                    "duration": 0.14999999999997726
                },
                {
                    "name": "A#5",
                    "midi": 82,
                    "time": 381.599999999983,
                    "velocity": 0.4881889763779528,
                    "duration": 0.14999999999997726
                },
                {
                    "name": "C#7",
                    "midi": 97,
                    "time": 381.749999999983,
                    "velocity": 0.3700787401574803,
                    "duration": 0.14999999999997726
                },
                {
                    "name": "C#6",
                    "midi": 85,
                    "time": 381.899999999983,
                    "velocity": 0.5118110236220472,
                    "duration": 0.14999999999997726
                },
                {
                    "name": "C#7",
                    "midi": 97,
                    "time": 382.04999999998296,
                    "velocity": 0.3779527559055118,
                    "duration": 0.14999999999997726
                },
                {
                    "name": "A#5",
                    "midi": 82,
                    "time": 382.19999999998294,
                    "velocity": 0.4881889763779528,
                    "duration": 0.14999999999997726
                },
                {
                    "name": "C#7",
                    "midi": 97,
                    "time": 382.3499999999829,
                    "velocity": 0.3700787401574803,
                    "duration": 0.14999999999997726
                },
                {
                    "name": "F#6",
                    "midi": 90,
                    "time": 382.4999999999829,
                    "velocity": 0.5118110236220472,
                    "duration": 0.14999999999997726
                },
                {
                    "name": "C#7",
                    "midi": 97,
                    "time": 382.64999999998287,
                    "velocity": 0.36220472440944884,
                    "duration": 0.14999999999997726
                },
                {
                    "name": "C#3",
                    "midi": 49,
                    "time": 383.09999999998286,
                    "velocity": 0.36220472440944884,
                    "duration": 0.14999999999997726
                },
                {
                    "name": "D#3",
                    "midi": 51,
                    "time": 383.3999999999828,
                    "velocity": 0.3779527559055118,
                    "duration": 0.14999999999997726
                },
                {
                    "name": "F3",
                    "midi": 53,
                    "time": 383.69999999998277,
                    "velocity": 0.3937007874015748,
                    "duration": 0.14999999999997726
                },
                {
                    "name": "F#3",
                    "midi": 54,
                    "time": 383.9999999999827,
                    "velocity": 0.41732283464566927,
                    "duration": 0.14999999999997726
                },
                {
                    "name": "A#3",
                    "midi": 58,
                    "time": 384.2249999999827,
                    "velocity": 0.3937007874015748,
                    "duration": 0.07499999999998863
                },
                {
                    "name": "G#3",
                    "midi": 56,
                    "time": 384.2999999999827,
                    "velocity": 0.4330708661417323,
                    "duration": 0.14999999999997726
                },
                {
                    "name": "G3",
                    "midi": 55,
                    "time": 384.59999999998263,
                    "velocity": 0.36220472440944884,
                    "duration": 0.14999999999997726
                },
                {
                    "name": "G#3",
                    "midi": 56,
                    "time": 384.8999999999826,
                    "velocity": 0.3937007874015748,
                    "duration": 0.14999999999997726
                },
                {
                    "name": "F3",
                    "midi": 53,
                    "time": 385.19999999998254,
                    "velocity": 0.36220472440944884,
                    "duration": 0.14999999999997726
                },
                {
                    "name": "F#3",
                    "midi": 54,
                    "time": 385.4999999999825,
                    "velocity": 0.36220472440944884,
                    "duration": 0.14999999999997726
                },
                {
                    "name": "G#3",
                    "midi": 56,
                    "time": 385.79999999998245,
                    "velocity": 0.3779527559055118,
                    "duration": 0.14999999999997726
                },
                {
                    "name": "A#3",
                    "midi": 58,
                    "time": 386.0999999999824,
                    "velocity": 0.3937007874015748,
                    "duration": 0.14999999999997726
                },
                {
                    "name": "B3",
                    "midi": 59,
                    "time": 386.39999999998236,
                    "velocity": 0.41732283464566927,
                    "duration": 0.14999999999997726
                },
                {
                    "name": "D#4",
                    "midi": 63,
                    "time": 386.6249999999823,
                    "velocity": 0.3937007874015748,
                    "duration": 0.07499999999998863
                },
                {
                    "name": "C#4",
                    "midi": 61,
                    "time": 386.6999999999823,
                    "velocity": 0.4330708661417323,
                    "duration": 0.14999999999997726
                },
                {
                    "name": "C4",
                    "midi": 60,
                    "time": 386.99999999998226,
                    "velocity": 0.36220472440944884,
                    "duration": 0.14999999999997726
                },
                {
                    "name": "C#4",
                    "midi": 61,
                    "time": 387.2999999999822,
                    "velocity": 0.3937007874015748,
                    "duration": 0.14999999999997726
                },
                {
                    "name": "A#3",
                    "midi": 58,
                    "time": 387.5999999999822,
                    "velocity": 0.36220472440944884,
                    "duration": 0.14999999999997726
                },
                {
                    "name": "B3",
                    "midi": 59,
                    "time": 387.89999999998213,
                    "velocity": 0.4330708661417323,
                    "duration": 0.14999999999997726
                },
                {
                    "name": "D4",
                    "midi": 62,
                    "time": 388.1249999999821,
                    "velocity": 0.3937007874015748,
                    "duration": 0.07499999999998863
                },
                {
                    "name": "D#4",
                    "midi": 63,
                    "time": 388.1999999999821,
                    "velocity": 0.36220472440944884,
                    "duration": 0.07499999999998863
                },
                {
                    "name": "G#3",
                    "midi": 56,
                    "time": 388.4999999999821,
                    "velocity": 0.3937007874015748,
                    "duration": 0.14999999999997726
                },
                {
                    "name": "A#3",
                    "midi": 58,
                    "time": 388.72499999998206,
                    "velocity": 0.3937007874015748,
                    "duration": 0.07499999999998863
                },
                {
                    "name": "B3",
                    "midi": 59,
                    "time": 388.79999999998205,
                    "velocity": 0.36220472440944884,
                    "duration": 0.07499999999998863
                },
                {
                    "name": "F3",
                    "midi": 53,
                    "time": 389.09999999998206,
                    "velocity": 0.4330708661417323,
                    "duration": 0.14999999999997726
                },
                {
                    "name": "G3",
                    "midi": 55,
                    "time": 389.324999999982,
                    "velocity": 0.3937007874015748,
                    "duration": 0.07499999999998863
                },
                {
                    "name": "G#3",
                    "midi": 56,
                    "time": 389.399999999982,
                    "velocity": 0.36220472440944884,
                    "duration": 0.07499999999998863
                },
                {
                    "name": "C#3",
                    "midi": 49,
                    "time": 389.699999999982,
                    "velocity": 0.3937007874015748,
                    "duration": 0.14999999999997726
                },
                {
                    "name": "E3",
                    "midi": 52,
                    "time": 389.924999999982,
                    "velocity": 0.3937007874015748,
                    "duration": 0.07499999999998863
                },
                {
                    "name": "F3",
                    "midi": 53,
                    "time": 389.999999999982,
                    "velocity": 0.36220472440944884,
                    "duration": 0.07499999999998863
                },
                {
                    "name": "F#3",
                    "midi": 54,
                    "time": 390.299999999982,
                    "velocity": 0.4330708661417323,
                    "duration": 0.14999999999997726
                },
                {
                    "name": "A3",
                    "midi": 57,
                    "time": 390.52499999998196,
                    "velocity": 0.3937007874015748,
                    "duration": 0.07499999999998863
                },
                {
                    "name": "A#3",
                    "midi": 58,
                    "time": 390.59999999998195,
                    "velocity": 0.36220472440944884,
                    "duration": 0.07499999999998863
                },
                {
                    "name": "C#3",
                    "midi": 49,
                    "time": 390.89999999998196,
                    "velocity": 0.3937007874015748,
                    "duration": 0.14999999999997726
                },
                {
                    "name": "F3",
                    "midi": 53,
                    "time": 391.1249999999819,
                    "velocity": 0.3937007874015748,
                    "duration": 0.07499999999998863
                },
                {
                    "name": "F#3",
                    "midi": 54,
                    "time": 391.1999999999819,
                    "velocity": 0.36220472440944884,
                    "duration": 0.07499999999998863
                },
                {
                    "name": "A#2",
                    "midi": 46,
                    "time": 391.4999999999819,
                    "velocity": 0.4330708661417323,
                    "duration": 0.14999999999997726
                },
                {
                    "name": "C3",
                    "midi": 48,
                    "time": 391.7249999999819,
                    "velocity": 0.3937007874015748,
                    "duration": 0.07499999999998863
                },
                {
                    "name": "C#3",
                    "midi": 49,
                    "time": 391.7999999999819,
                    "velocity": 0.36220472440944884,
                    "duration": 0.07499999999998863
                },
                {
                    "name": "F#2",
                    "midi": 42,
                    "time": 392.0999999999819,
                    "velocity": 0.3937007874015748,
                    "duration": 0.14999999999997726
                },
                {
                    "name": "C#4",
                    "midi": 61,
                    "time": 392.69999999998186,
                    "velocity": 0.31496062992125984,
                    "duration": 0.14999999999997726
                },
                {
                    "name": "C#5",
                    "midi": 73,
                    "time": 392.69999999998186,
                    "velocity": 0.3779527559055118,
                    "duration": 0.14999999999997726
                },
                {
                    "name": "D#4",
                    "midi": 63,
                    "time": 392.9999999999818,
                    "velocity": 0.33070866141732286,
                    "duration": 0.14999999999997726
                },
                {
                    "name": "D#5",
                    "midi": 75,
                    "time": 392.9999999999818,
                    "velocity": 0.3937007874015748,
                    "duration": 0.14999999999997726
                },
                {
                    "name": "F4",
                    "midi": 65,
                    "time": 393.29999999998176,
                    "velocity": 0.3464566929133858,
                    "duration": 0.14999999999997726
                },
                {
                    "name": "F5",
                    "midi": 77,
                    "time": 393.29999999998176,
                    "velocity": 0.4094488188976378,
                    "duration": 0.14999999999997726
                },
                {
                    "name": "F#4",
                    "midi": 66,
                    "time": 393.5999999999817,
                    "velocity": 0.3700787401574803,
                    "duration": 0.14999999999997726
                },
                {
                    "name": "F#5",
                    "midi": 78,
                    "time": 393.5999999999817,
                    "velocity": 0.4330708661417323,
                    "duration": 0.14999999999997726
                },
                {
                    "name": "A#5",
                    "midi": 82,
                    "time": 393.8249999999817,
                    "velocity": 0.4094488188976378,
                    "duration": 0.07499999999998863
                },
                {
                    "name": "G#4",
                    "midi": 68,
                    "time": 393.8999999999817,
                    "velocity": 0.3779527559055118,
                    "duration": 0.14999999999997726
                },
                {
                    "name": "G#5",
                    "midi": 80,
                    "time": 393.8999999999817,
                    "velocity": 0.44881889763779526,
                    "duration": 0.14999999999997726
                },
                {
                    "name": "G4",
                    "midi": 67,
                    "time": 394.1999999999816,
                    "velocity": 0.31496062992125984,
                    "duration": 0.14999999999997726
                },
                {
                    "name": "G5",
                    "midi": 79,
                    "time": 394.1999999999816,
                    "velocity": 0.3779527559055118,
                    "duration": 0.14999999999997726
                },
                {
                    "name": "G#5",
                    "midi": 80,
                    "time": 394.4999999999816,
                    "velocity": 0.4094488188976378,
                    "duration": 0.14999999999997726
                },
                {
                    "name": "G#4",
                    "midi": 68,
                    "time": 394.4999999999816,
                    "velocity": 0.3464566929133858,
                    "duration": 0.14999999999997726
                },
                {
                    "name": "F5",
                    "midi": 77,
                    "time": 394.79999999998154,
                    "velocity": 0.3779527559055118,
                    "duration": 0.14999999999997726
                },
                {
                    "name": "F4",
                    "midi": 65,
                    "time": 394.79999999998154,
                    "velocity": 0.31496062992125984,
                    "duration": 0.14999999999997726
                },
                {
                    "name": "F#5",
                    "midi": 78,
                    "time": 395.0999999999815,
                    "velocity": 0.3779527559055118,
                    "duration": 0.14999999999997726
                },
                {
                    "name": "F#4",
                    "midi": 66,
                    "time": 395.0999999999815,
                    "velocity": 0.31496062992125984,
                    "duration": 0.14999999999997726
                },
                {
                    "name": "G#4",
                    "midi": 68,
                    "time": 395.39999999998145,
                    "velocity": 0.33070866141732286,
                    "duration": 0.14999999999997726
                },
                {
                    "name": "G#5",
                    "midi": 80,
                    "time": 395.39999999998145,
                    "velocity": 0.3937007874015748,
                    "duration": 0.14999999999997726
                },
                {
                    "name": "A#5",
                    "midi": 82,
                    "time": 395.6999999999814,
                    "velocity": 0.4094488188976378,
                    "duration": 0.14999999999997726
                },
                {
                    "name": "A#4",
                    "midi": 70,
                    "time": 395.6999999999814,
                    "velocity": 0.3464566929133858,
                    "duration": 0.14999999999997726
                },
                {
                    "name": "B4",
                    "midi": 71,
                    "time": 395.99999999998136,
                    "velocity": 0.3700787401574803,
                    "duration": 0.14999999999997726
                },
                {
                    "name": "B5",
                    "midi": 83,
                    "time": 395.99999999998136,
                    "velocity": 0.4330708661417323,
                    "duration": 0.14999999999997726
                },
                {
                    "name": "F#6",
                    "midi": 90,
                    "time": 396.2249999999813,
                    "velocity": 0.4094488188976378,
                    "duration": 0.07499999999998863
                },
                {
                    "name": "C#5",
                    "midi": 73,
                    "time": 396.2999999999813,
                    "velocity": 0.3779527559055118,
                    "duration": 0.14999999999997726
                },
                {
                    "name": "C#6",
                    "midi": 85,
                    "time": 396.2999999999813,
                    "velocity": 0.44881889763779526,
                    "duration": 0.14999999999997726
                },
                {
                    "name": "C6",
                    "midi": 84,
                    "time": 396.59999999998126,
                    "velocity": 0.3779527559055118,
                    "duration": 0.14999999999997726
                },
                {
                    "name": "C5",
                    "midi": 72,
                    "time": 396.59999999998126,
                    "velocity": 0.31496062992125984,
                    "duration": 0.14999999999997726
                },
                {
                    "name": "C#5",
                    "midi": 73,
                    "time": 396.8999999999812,
                    "velocity": 0.3464566929133858,
                    "duration": 0.14999999999997726
                },
                {
                    "name": "C#6",
                    "midi": 85,
                    "time": 396.8999999999812,
                    "velocity": 0.4094488188976378,
                    "duration": 0.14999999999997726
                },
                {
                    "name": "A#4",
                    "midi": 70,
                    "time": 397.1999999999812,
                    "velocity": 0.31496062992125984,
                    "duration": 0.14999999999997726
                },
                {
                    "name": "A#5",
                    "midi": 82,
                    "time": 397.1999999999812,
                    "velocity": 0.3779527559055118,
                    "duration": 0.14999999999997726
                },
                {
                    "name": "B5",
                    "midi": 83,
                    "time": 397.4999999999811,
                    "velocity": 0.5196850393700787,
                    "duration": 0.14999999999997726
                },
                {
                    "name": "D#5",
                    "midi": 75,
                    "time": 397.4999999999811,
                    "velocity": 0.3937007874015748,
                    "duration": 0.14999999999997726
                },
                {
                    "name": "D6",
                    "midi": 86,
                    "time": 397.7249999999811,
                    "velocity": 0.47244094488188976,
                    "duration": 0.07499999999998863
                },
                {
                    "name": "D#6",
                    "midi": 87,
                    "time": 397.7999999999811,
                    "velocity": 0.4330708661417323,
                    "duration": 0.07499999999998863
                },
                {
                    "name": "B4",
                    "midi": 71,
                    "time": 398.0999999999811,
                    "velocity": 0.3937007874015748,
                    "duration": 0.14999999999997726
                },
                {
                    "name": "G#5",
                    "midi": 80,
                    "time": 398.0999999999811,
                    "velocity": 0.47244094488188976,
                    "duration": 0.14999999999997726
                },
                {
                    "name": "A#5",
                    "midi": 82,
                    "time": 398.32499999998106,
                    "velocity": 0.47244094488188976,
                    "duration": 0.07499999999998863
                },
                {
                    "name": "B5",
                    "midi": 83,
                    "time": 398.39999999998105,
                    "velocity": 0.4330708661417323,
                    "duration": 0.07499999999998863
                },
                {
                    "name": "F5",
                    "midi": 77,
                    "time": 398.69999999998106,
                    "velocity": 0.5196850393700787,
                    "duration": 0.14999999999997726
                },
                {
                    "name": "G#4",
                    "midi": 68,
                    "time": 398.69999999998106,
                    "velocity": 0.3937007874015748,
                    "duration": 0.14999999999997726
                },
                {
                    "name": "G5",
                    "midi": 79,
                    "time": 398.924999999981,
                    "velocity": 0.47244094488188976,
                    "duration": 0.07499999999998863
                },
                {
                    "name": "G#5",
                    "midi": 80,
                    "time": 398.999999999981,
                    "velocity": 0.4330708661417323,
                    "duration": 0.07499999999998863
                },
                {
                    "name": "C#5",
                    "midi": 73,
                    "time": 399.299999999981,
                    "velocity": 0.47244094488188976,
                    "duration": 0.14999999999997726
                },
                {
                    "name": "F4",
                    "midi": 65,
                    "time": 399.299999999981,
                    "velocity": 0.3937007874015748,
                    "duration": 0.14999999999997726
                },
                {
                    "name": "E5",
                    "midi": 76,
                    "time": 399.524999999981,
                    "velocity": 0.47244094488188976,
                    "duration": 0.07499999999998863
                },
                {
                    "name": "F5",
                    "midi": 77,
                    "time": 399.599999999981,
                    "velocity": 0.4330708661417323,
                    "duration": 0.07499999999998863
                },
                {
                    "name": "F#5",
                    "midi": 78,
                    "time": 399.899999999981,
                    "velocity": 0.5196850393700787,
                    "duration": 0.14999999999997726
                },
                {
                    "name": "A#4",
                    "midi": 70,
                    "time": 399.899999999981,
                    "velocity": 0.3937007874015748,
                    "duration": 0.14999999999997726
                },
                {
                    "name": "A5",
                    "midi": 81,
                    "time": 400.12499999998096,
                    "velocity": 0.47244094488188976,
                    "duration": 0.07499999999998863
                },
                {
                    "name": "A#5",
                    "midi": 82,
                    "time": 400.19999999998095,
                    "velocity": 0.4330708661417323,
                    "duration": 0.07499999999998863
                },
                {
                    "name": "C#5",
                    "midi": 73,
                    "time": 400.49999999998096,
                    "velocity": 0.47244094488188976,
                    "duration": 0.14999999999997726
                },
                {
                    "name": "F#4",
                    "midi": 66,
                    "time": 400.49999999998096,
                    "velocity": 0.3937007874015748,
                    "duration": 0.14999999999997726
                },
                {
                    "name": "F5",
                    "midi": 77,
                    "time": 400.7249999999809,
                    "velocity": 0.47244094488188976,
                    "duration": 0.07499999999998863
                },
                {
                    "name": "F#5",
                    "midi": 78,
                    "time": 400.7999999999809,
                    "velocity": 0.4330708661417323,
                    "duration": 0.07499999999998863
                },
                {
                    "name": "A#4",
                    "midi": 70,
                    "time": 401.0999999999809,
                    "velocity": 0.5196850393700787,
                    "duration": 0.14999999999997726
                },
                {
                    "name": "C#4",
                    "midi": 61,
                    "time": 401.0999999999809,
                    "velocity": 0.3937007874015748,
                    "duration": 0.14999999999997726
                },
                {
                    "name": "C5",
                    "midi": 72,
                    "time": 401.3249999999809,
                    "velocity": 0.47244094488188976,
                    "duration": 0.07499999999998863
                },
                {
                    "name": "C#5",
                    "midi": 73,
                    "time": 401.3999999999809,
                    "velocity": 0.4330708661417323,
                    "duration": 0.07499999999998863
                },
                {
                    "name": "A#3",
                    "midi": 58,
                    "time": 401.6999999999809,
                    "velocity": 0.3937007874015748,
                    "duration": 0.29374999999998863
                },
                {
                    "name": "F#4",
                    "midi": 66,
                    "time": 401.6999999999809,
                    "velocity": 0.47244094488188976,
                    "duration": 0.5999999999999659
                },
                {
                    "name": "G#2",
                    "midi": 44,
                    "time": 402.29999999998086,
                    "velocity": 0.36220472440944884,
                    "duration": 0.14999999999997726
                },
                {
                    "name": "A#2",
                    "midi": 46,
                    "time": 402.5999999999808,
                    "velocity": 0.3779527559055118,
                    "duration": 0.14999999999997726
                },
                {
                    "name": "C3",
                    "midi": 48,
                    "time": 402.89999999998076,
                    "velocity": 0.3937007874015748,
                    "duration": 0.14999999999997726
                },
                {
                    "name": "C#3",
                    "midi": 49,
                    "time": 403.1999999999807,
                    "velocity": 0.41732283464566927,
                    "duration": 0.14999999999997726
                },
                {
                    "name": "F3",
                    "midi": 53,
                    "time": 403.4249999999807,
                    "velocity": 0.3937007874015748,
                    "duration": 0.07499999999998863
                },
                {
                    "name": "D#3",
                    "midi": 51,
                    "time": 403.4999999999807,
                    "velocity": 0.4330708661417323,
                    "duration": 0.14999999999997726
                },
                {
                    "name": "D3",
                    "midi": 50,
                    "time": 403.7999999999806,
                    "velocity": 0.36220472440944884,
                    "duration": 0.14999999999997726
                },
                {
                    "name": "D#3",
                    "midi": 51,
                    "time": 404.0999999999806,
                    "velocity": 0.3937007874015748,
                    "duration": 0.14999999999997726
                },
                {
                    "name": "C3",
                    "midi": 48,
                    "time": 404.39999999998054,
                    "velocity": 0.36220472440944884,
                    "duration": 0.14999999999997726
                },
                {
                    "name": "C#3",
                    "midi": 49,
                    "time": 404.6999999999805,
                    "velocity": 0.36220472440944884,
                    "duration": 0.14999999999997726
                },
                {
                    "name": "D#3",
                    "midi": 51,
                    "time": 404.99999999998045,
                    "velocity": 0.3779527559055118,
                    "duration": 0.14999999999997726
                },
                {
                    "name": "F3",
                    "midi": 53,
                    "time": 405.2999999999804,
                    "velocity": 0.3937007874015748,
                    "duration": 0.14999999999997726
                },
                {
                    "name": "F#3",
                    "midi": 54,
                    "time": 405.59999999998035,
                    "velocity": 0.41732283464566927,
                    "duration": 0.14999999999997726
                },
                {
                    "name": "A#3",
                    "midi": 58,
                    "time": 405.8249999999803,
                    "velocity": 0.3937007874015748,
                    "duration": 0.07499999999998863
                },
                {
                    "name": "G#3",
                    "midi": 56,
                    "time": 405.8999999999803,
                    "velocity": 0.4330708661417323,
                    "duration": 0.14999999999997726
                },
                {
                    "name": "G3",
                    "midi": 55,
                    "time": 406.19999999998026,
                    "velocity": 0.36220472440944884,
                    "duration": 0.14999999999997726
                },
                {
                    "name": "G#3",
                    "midi": 56,
                    "time": 406.4999999999802,
                    "velocity": 0.3937007874015748,
                    "duration": 0.14999999999997726
                },
                {
                    "name": "F3",
                    "midi": 53,
                    "time": 406.7999999999802,
                    "velocity": 0.36220472440944884,
                    "duration": 0.14999999999997726
                },
                {
                    "name": "F#3",
                    "midi": 54,
                    "time": 407.0999999999801,
                    "velocity": 0.4330708661417323,
                    "duration": 0.14999999999997726
                },
                {
                    "name": "A3",
                    "midi": 57,
                    "time": 407.3249999999801,
                    "velocity": 0.3937007874015748,
                    "duration": 0.07499999999998863
                },
                {
                    "name": "A#3",
                    "midi": 58,
                    "time": 407.3999999999801,
                    "velocity": 0.36220472440944884,
                    "duration": 0.07499999999998863
                },
                {
                    "name": "D#3",
                    "midi": 51,
                    "time": 407.6999999999801,
                    "velocity": 0.3937007874015748,
                    "duration": 0.14999999999997726
                },
                {
                    "name": "F3",
                    "midi": 53,
                    "time": 407.92499999998006,
                    "velocity": 0.3937007874015748,
                    "duration": 0.07499999999998863
                },
                {
                    "name": "F#3",
                    "midi": 54,
                    "time": 407.99999999998005,
                    "velocity": 0.36220472440944884,
                    "duration": 0.07499999999998863
                },
                {
                    "name": "C3",
                    "midi": 48,
                    "time": 408.29999999998006,
                    "velocity": 0.4330708661417323,
                    "duration": 0.14999999999997726
                },
                {
                    "name": "D3",
                    "midi": 50,
                    "time": 408.52499999998,
                    "velocity": 0.3937007874015748,
                    "duration": 0.07499999999998863
                },
                {
                    "name": "D#3",
                    "midi": 51,
                    "time": 408.59999999998,
                    "velocity": 0.36220472440944884,
                    "duration": 0.07499999999998863
                },
                {
                    "name": "G#2",
                    "midi": 44,
                    "time": 408.89999999998,
                    "velocity": 0.3937007874015748,
                    "duration": 0.14999999999997726
                },
                {
                    "name": "B2",
                    "midi": 47,
                    "time": 409.12499999998,
                    "velocity": 0.3937007874015748,
                    "duration": 0.07499999999998863
                },
                {
                    "name": "C3",
                    "midi": 48,
                    "time": 409.19999999998,
                    "velocity": 0.36220472440944884,
                    "duration": 0.07499999999998863
                },
                {
                    "name": "C#3",
                    "midi": 49,
                    "time": 409.49999999998,
                    "velocity": 0.4330708661417323,
                    "duration": 0.14999999999997726
                },
                {
                    "name": "E3",
                    "midi": 52,
                    "time": 409.72499999997996,
                    "velocity": 0.3937007874015748,
                    "duration": 0.07499999999998863
                },
                {
                    "name": "F3",
                    "midi": 53,
                    "time": 409.79999999997995,
                    "velocity": 0.36220472440944884,
                    "duration": 0.07499999999998863
                },
                {
                    "name": "G#2",
                    "midi": 44,
                    "time": 410.09999999997996,
                    "velocity": 0.3937007874015748,
                    "duration": 0.14999999999997726
                },
                {
                    "name": "C3",
                    "midi": 48,
                    "time": 410.3249999999799,
                    "velocity": 0.3937007874015748,
                    "duration": 0.07499999999998863
                },
                {
                    "name": "C#3",
                    "midi": 49,
                    "time": 410.3999999999799,
                    "velocity": 0.36220472440944884,
                    "duration": 0.07499999999998863
                },
                {
                    "name": "F2",
                    "midi": 41,
                    "time": 410.6999999999799,
                    "velocity": 0.4330708661417323,
                    "duration": 0.14999999999997726
                },
                {
                    "name": "G2",
                    "midi": 43,
                    "time": 410.9249999999799,
                    "velocity": 0.3937007874015748,
                    "duration": 0.07499999999998863
                },
                {
                    "name": "G#2",
                    "midi": 44,
                    "time": 410.9999999999799,
                    "velocity": 0.36220472440944884,
                    "duration": 0.07499999999998863
                },
                {
                    "name": "C#2",
                    "midi": 37,
                    "time": 411.2999999999799,
                    "velocity": 0.3937007874015748,
                    "duration": 0.14999999999997726
                },
                {
                    "name": "C5",
                    "midi": 72,
                    "time": 411.89999999997985,
                    "velocity": 0.3464566929133858,
                    "duration": 0.14999999999997726
                },
                {
                    "name": "G#5",
                    "midi": 80,
                    "time": 411.89999999997985,
                    "velocity": 0.4094488188976378,
                    "duration": 0.14999999999997726
                },
                {
                    "name": "G#4",
                    "midi": 68,
                    "time": 411.89999999997985,
                    "velocity": 0.3464566929133858,
                    "duration": 0.14999999999997726
                },
                {
                    "name": "A#4",
                    "midi": 70,
                    "time": 412.1999999999798,
                    "velocity": 0.36220472440944884,
                    "duration": 0.14999999999997726
                },
                {
                    "name": "C#5",
                    "midi": 73,
                    "time": 412.1999999999798,
                    "velocity": 0.36220472440944884,
                    "duration": 0.14999999999997726
                },
                {
                    "name": "A#5",
                    "midi": 82,
                    "time": 412.1999999999798,
                    "velocity": 0.4330708661417323,
                    "duration": 0.14999999999997726
                },
                {
                    "name": "C5",
                    "midi": 72,
                    "time": 412.49999999997976,
                    "velocity": 0.3779527559055118,
                    "duration": 0.14999999999997726
                },
                {
                    "name": "D#5",
                    "midi": 75,
                    "time": 412.49999999997976,
                    "velocity": 0.3779527559055118,
                    "duration": 0.14999999999997726
                },
                {
                    "name": "C6",
                    "midi": 84,
                    "time": 412.49999999997976,
                    "velocity": 0.44881889763779526,
                    "duration": 0.14999999999997726
                },
                {
                    "name": "F5",
                    "midi": 77,
                    "time": 412.7999999999797,
                    "velocity": 0.4015748031496063,
                    "duration": 0.14999999999997726
                },
                {
                    "name": "C#5",
                    "midi": 73,
                    "time": 412.7999999999797,
                    "velocity": 0.4015748031496063,
                    "duration": 0.14999999999997726
                },
                {
                    "name": "C#6",
                    "midi": 85,
                    "time": 412.7999999999797,
                    "velocity": 0.47244094488188976,
                    "duration": 0.14999999999997726
                },
                {
                    "name": "D#5",
                    "midi": 75,
                    "time": 413.0999999999797,
                    "velocity": 0.4094488188976378,
                    "duration": 0.14999999999997726
                },
                {
                    "name": "F#5",
                    "midi": 78,
                    "time": 413.0999999999797,
                    "velocity": 0.4094488188976378,
                    "duration": 0.14999999999997726
                },
                {
                    "name": "D#6",
                    "midi": 87,
                    "time": 413.0999999999797,
                    "velocity": 0.4881889763779528,
                    "duration": 0.14999999999997726
                },
                {
                    "name": "D5",
                    "midi": 74,
                    "time": 413.3999999999796,
                    "velocity": 0.3464566929133858,
                    "duration": 0.14999999999997726
                },
                {
                    "name": "F5",
                    "midi": 77,
                    "time": 413.3999999999796,
                    "velocity": 0.3464566929133858,
                    "duration": 0.14999999999997726
                },
                {
                    "name": "D6",
                    "midi": 86,
                    "time": 413.3999999999796,
                    "velocity": 0.4094488188976378,
                    "duration": 0.14999999999997726
                },
                {
                    "name": "D#5",
                    "midi": 75,
                    "time": 413.6999999999796,
                    "velocity": 0.3779527559055118,
                    "duration": 0.14999999999997726
                },
                {
                    "name": "F#5",
                    "midi": 78,
                    "time": 413.6999999999796,
                    "velocity": 0.3779527559055118,
                    "duration": 0.14999999999997726
                },
                {
                    "name": "D#6",
                    "midi": 87,
                    "time": 413.6999999999796,
                    "velocity": 0.44881889763779526,
                    "duration": 0.14999999999997726
                },
                {
                    "name": "C6",
                    "midi": 84,
                    "time": 413.99999999997954,
                    "velocity": 0.4094488188976378,
                    "duration": 0.14999999999997726
                },
                {
                    "name": "C5",
                    "midi": 72,
                    "time": 413.99999999997954,
                    "velocity": 0.3464566929133858,
                    "duration": 0.14999999999997726
                },
                {
                    "name": "D#5",
                    "midi": 75,
                    "time": 413.99999999997954,
                    "velocity": 0.3464566929133858,
                    "duration": 0.14999999999997726
                },
                {
                    "name": "C#6",
                    "midi": 85,
                    "time": 414.2999999999795,
                    "velocity": 0.4094488188976378,
                    "duration": 0.14999999999997726
                },
                {
                    "name": "C#5",
                    "midi": 73,
                    "time": 414.2999999999795,
                    "velocity": 0.3464566929133858,
                    "duration": 0.14999999999997726
                },
                {
                    "name": "F5",
                    "midi": 77,
                    "time": 414.2999999999795,
                    "velocity": 0.3464566929133858,
                    "duration": 0.14999999999997726
                },
                {
                    "name": "D#5",
                    "midi": 75,
                    "time": 414.59999999997945,
                    "velocity": 0.36220472440944884,
                    "duration": 0.14999999999997726
                },
                {
                    "name": "D#6",
                    "midi": 87,
                    "time": 414.59999999997945,
                    "velocity": 0.4330708661417323,
                    "duration": 0.14999999999997726
                },
                {
                    "name": "G#5",
                    "midi": 80,
                    "time": 414.59999999997945,
                    "velocity": 0.36220472440944884,
                    "duration": 0.14999999999997726
                },
                {
                    "name": "F6",
                    "midi": 89,
                    "time": 414.8999999999794,
                    "velocity": 0.44881889763779526,
                    "duration": 0.14999999999997726
                },
                {
                    "name": "C#6",
                    "midi": 85,
                    "time": 414.8999999999794,
                    "velocity": 0.3779527559055118,
                    "duration": 0.14999999999997726
                },
                {
                    "name": "F5",
                    "midi": 77,
                    "time": 414.8999999999794,
                    "velocity": 0.3779527559055118,
                    "duration": 0.14999999999997726
                },
                {
                    "name": "F#6",
                    "midi": 90,
                    "time": 415.19999999997935,
                    "velocity": 0.47244094488188976,
                    "duration": 0.14999999999997726
                },
                {
                    "name": "F#5",
                    "midi": 78,
                    "time": 415.19999999997935,
                    "velocity": 0.4015748031496063,
                    "duration": 0.14999999999997726
                },
                {
                    "name": "D#6",
                    "midi": 87,
                    "time": 415.19999999997935,
                    "velocity": 0.4015748031496063,
                    "duration": 0.14999999999997726
                },
                {
                    "name": "G#6",
                    "midi": 92,
                    "time": 415.4999999999793,
                    "velocity": 0.4881889763779528,
                    "duration": 0.14999999999997726
                },
                {
                    "name": "B5",
                    "midi": 83,
                    "time": 415.4999999999793,
                    "velocity": 0.4094488188976378,
                    "duration": 0.14999999999997726
                },
                {
                    "name": "G#5",
                    "midi": 80,
                    "time": 415.4999999999793,
                    "velocity": 0.4094488188976378,
                    "duration": 0.14999999999997726
                },
                {
                    "name": "G5",
                    "midi": 79,
                    "time": 415.79999999997926,
                    "velocity": 0.3464566929133858,
                    "duration": 0.14999999999997726
                },
                {
                    "name": "G6",
                    "midi": 91,
                    "time": 415.79999999997926,
                    "velocity": 0.4094488188976378,
                    "duration": 0.14999999999997726
                },
                {
                    "name": "E6",
                    "midi": 88,
                    "time": 415.79999999997926,
                    "velocity": 0.3464566929133858,
                    "duration": 0.14999999999997726
                },
                {
                    "name": "G#6",
                    "midi": 92,
                    "time": 416.0999999999792,
                    "velocity": 0.44881889763779526,
                    "duration": 0.14999999999997726
                },
                {
                    "name": "F6",
                    "midi": 89,
                    "time": 416.0999999999792,
                    "velocity": 0.3779527559055118,
                    "duration": 0.14999999999997726
                },
                {
                    "name": "G#5",
                    "midi": 80,
                    "time": 416.0999999999792,
                    "velocity": 0.3779527559055118,
                    "duration": 0.14999999999997726
                },
                {
                    "name": "F6",
                    "midi": 89,
                    "time": 416.3999999999792,
                    "velocity": 0.4094488188976378,
                    "duration": 0.14999999999997726
                },
                {
                    "name": "F5",
                    "midi": 77,
                    "time": 416.3999999999792,
                    "velocity": 0.3464566929133858,
                    "duration": 0.14999999999997726
                },
                {
                    "name": "C#6",
                    "midi": 85,
                    "time": 416.3999999999792,
                    "velocity": 0.3464566929133858,
                    "duration": 0.14999999999997726
                },
                {
                    "name": "A#5",
                    "midi": 82,
                    "time": 416.6999999999791,
                    "velocity": 0.4330708661417323,
                    "duration": 0.14999999999997726
                },
                {
                    "name": "F#6",
                    "midi": 90,
                    "time": 416.6999999999791,
                    "velocity": 0.5669291338582677,
                    "duration": 0.14999999999997726
                },
                {
                    "name": "A6",
                    "midi": 93,
                    "time": 416.9249999999791,
                    "velocity": 0.5196850393700787,
                    "duration": 0.07499999999998863
                },
                {
                    "name": "A#6",
                    "midi": 94,
                    "time": 416.9999999999791,
                    "velocity": 0.47244094488188976,
                    "duration": 0.07499999999998863
                },
                {
                    "name": "D#6",
                    "midi": 87,
                    "time": 417.2999999999791,
                    "velocity": 0.5196850393700787,
                    "duration": 0.14999999999997726
                },
                {
                    "name": "F#5",
                    "midi": 78,
                    "time": 417.2999999999791,
                    "velocity": 0.4330708661417323,
                    "duration": 0.14999999999997726
                },
                {
                    "name": "F6",
                    "midi": 89,
                    "time": 417.52499999997906,
                    "velocity": 0.5196850393700787,
                    "duration": 0.07499999999998863
                },
                {
                    "name": "F#6",
                    "midi": 90,
                    "time": 417.59999999997905,
                    "velocity": 0.47244094488188976,
                    "duration": 0.07499999999998863
                },
                {
                    "name": "C6",
                    "midi": 84,
                    "time": 417.89999999997906,
                    "velocity": 0.5669291338582677,
                    "duration": 0.14999999999997726
                },
                {
                    "name": "D#5",
                    "midi": 75,
                    "time": 417.89999999997906,
                    "velocity": 0.4330708661417323,
                    "duration": 0.14999999999997726
                },
                {
                    "name": "D6",
                    "midi": 86,
                    "time": 418.124999999979,
                    "velocity": 0.5196850393700787,
                    "duration": 0.07499999999998863
                },
                {
                    "name": "D#6",
                    "midi": 87,
                    "time": 418.199999999979,
                    "velocity": 0.47244094488188976,
                    "duration": 0.07499999999998863
                },
                {
                    "name": "G#5",
                    "midi": 80,
                    "time": 418.499999999979,
                    "velocity": 0.5196850393700787,
                    "duration": 0.14999999999997726
                },
                {
                    "name": "C5",
                    "midi": 72,
                    "time": 418.499999999979,
                    "velocity": 0.4330708661417323,
                    "duration": 0.14999999999997726
                },
                {
                    "name": "B5",
                    "midi": 83,
                    "time": 418.724999999979,
                    "velocity": 0.5196850393700787,
                    "duration": 0.07499999999998863
                },
                {
                    "name": "C6",
                    "midi": 84,
                    "time": 418.799999999979,
                    "velocity": 0.47244094488188976,
                    "duration": 0.07499999999998863
                },
                {
                    "name": "C#6",
                    "midi": 85,
                    "time": 419.099999999979,
                    "velocity": 0.5669291338582677,
                    "duration": 0.14999999999997726
                },
                {
                    "name": "F5",
                    "midi": 77,
                    "time": 419.099999999979,
                    "velocity": 0.4330708661417323,
                    "duration": 0.14999999999997726
                },
                {
                    "name": "E6",
                    "midi": 88,
                    "time": 419.32499999997896,
                    "velocity": 0.5196850393700787,
                    "duration": 0.07499999999998863
                },
                {
                    "name": "F6",
                    "midi": 89,
                    "time": 419.39999999997895,
                    "velocity": 0.47244094488188976,
                    "duration": 0.07499999999998863
                },
                {
                    "name": "C#5",
                    "midi": 73,
                    "time": 419.69999999997896,
                    "velocity": 0.4330708661417323,
                    "duration": 0.14999999999997726
                },
                {
                    "name": "G#5",
                    "midi": 80,
                    "time": 419.69999999997896,
                    "velocity": 0.5196850393700787,
                    "duration": 0.14999999999997726
                },
                {
                    "name": "C6",
                    "midi": 84,
                    "time": 419.9249999999789,
                    "velocity": 0.5196850393700787,
                    "duration": 0.07499999999998863
                },
                {
                    "name": "C#6",
                    "midi": 85,
                    "time": 419.9999999999789,
                    "velocity": 0.47244094488188976,
                    "duration": 0.07499999999998863
                },
                {
                    "name": "F5",
                    "midi": 77,
                    "time": 420.2999999999789,
                    "velocity": 0.5669291338582677,
                    "duration": 0.14999999999997726
                },
                {
                    "name": "G#4",
                    "midi": 68,
                    "time": 420.2999999999789,
                    "velocity": 0.4330708661417323,
                    "duration": 0.14999999999997726
                },
                {
                    "name": "G5",
                    "midi": 79,
                    "time": 420.5249999999789,
                    "velocity": 0.5196850393700787,
                    "duration": 0.07499999999998863
                },
                {
                    "name": "G#5",
                    "midi": 80,
                    "time": 420.5999999999789,
                    "velocity": 0.47244094488188976,
                    "duration": 0.07499999999998863
                },
                {
                    "name": "F4",
                    "midi": 65,
                    "time": 420.8999999999789,
                    "velocity": 0.4330708661417323,
                    "duration": 0.29750000000001364
                },
                {
                    "name": "C#5",
                    "midi": 73,
                    "time": 420.8999999999789,
                    "velocity": 0.5196850393700787,
                    "duration": 0.6000000000000227
                },
                {
                    "name": "G#5",
                    "midi": 80,
                    "time": 421.4999999999789,
                    "velocity": 0.3937007874015748,
                    "duration": 0.14999999999997726
                },
                {
                    "name": "C6",
                    "midi": 84,
                    "time": 421.4999999999789,
                    "velocity": 0.3937007874015748,
                    "duration": 0.14999999999997726
                },
                {
                    "name": "G#6",
                    "midi": 92,
                    "time": 421.4999999999789,
                    "velocity": 0.4645669291338583,
                    "duration": 0.14999999999997726
                },
                {
                    "name": "A#6",
                    "midi": 94,
                    "time": 421.79999999997887,
                    "velocity": 0.49606299212598426,
                    "duration": 0.14999999999997726
                },
                {
                    "name": "C#6",
                    "midi": 85,
                    "time": 421.79999999997887,
                    "velocity": 0.4094488188976378,
                    "duration": 0.14999999999997726
                },
                {
                    "name": "A#5",
                    "midi": 82,
                    "time": 421.79999999997887,
                    "velocity": 0.4094488188976378,
                    "duration": 0.14999999999997726
                },
                {
                    "name": "D#6",
                    "midi": 87,
                    "time": 422.0999999999788,
                    "velocity": 0.4330708661417323,
                    "duration": 0.14999999999997726
                },
                {
                    "name": "C6",
                    "midi": 84,
                    "time": 422.0999999999788,
                    "velocity": 0.4330708661417323,
                    "duration": 0.14999999999997726
                },
                {
                    "name": "C7",
                    "midi": 96,
                    "time": 422.0999999999788,
                    "velocity": 0.5118110236220472,
                    "duration": 0.14999999999997726
                },
                {
                    "name": "F6",
                    "midi": 89,
                    "time": 422.3999999999788,
                    "velocity": 0.4566929133858268,
                    "duration": 0.14999999999997726
                },
                {
                    "name": "C#7",
                    "midi": 97,
                    "time": 422.3999999999788,
                    "velocity": 0.5433070866141733,
                    "duration": 0.14999999999997726
                },
                {
                    "name": "C#6",
                    "midi": 85,
                    "time": 422.3999999999788,
                    "velocity": 0.4566929133858268,
                    "duration": 0.14999999999997726
                },
                {
                    "name": "F#6",
                    "midi": 90,
                    "time": 422.69999999997873,
                    "velocity": 0.5039370078740157,
                    "duration": 0.14999999999997726
                },
                {
                    "name": "D#7",
                    "midi": 99,
                    "time": 422.69999999997873,
                    "velocity": 0.6141732283464567,
                    "duration": 0.14999999999997726
                },
                {
                    "name": "D#6",
                    "midi": 87,
                    "time": 422.69999999997873,
                    "velocity": 0.5039370078740157,
                    "duration": 0.14999999999997726
                },
                {
                    "name": "D6",
                    "midi": 86,
                    "time": 422.9999999999787,
                    "velocity": 0.4330708661417323,
                    "duration": 0.14999999999997726
                },
                {
                    "name": "F6",
                    "midi": 89,
                    "time": 422.9999999999787,
                    "velocity": 0.4330708661417323,
                    "duration": 0.14999999999997726
                },
                {
                    "name": "D7",
                    "midi": 98,
                    "time": 422.9999999999787,
                    "velocity": 0.5039370078740157,
                    "duration": 0.14999999999997726
                },
                {
                    "name": "D#6",
                    "midi": 87,
                    "time": 423.29999999997864,
                    "velocity": 0.47244094488188976,
                    "duration": 0.14999999999997726
                },
                {
                    "name": "F#6",
                    "midi": 90,
                    "time": 423.29999999997864,
                    "velocity": 0.47244094488188976,
                    "duration": 0.14999999999997726
                },
                {
                    "name": "D#7",
                    "midi": 99,
                    "time": 423.29999999997864,
                    "velocity": 0.5590551181102362,
                    "duration": 0.14999999999997726
                },
                {
                    "name": "C7",
                    "midi": 96,
                    "time": 423.5999999999786,
                    "velocity": 0.5039370078740157,
                    "duration": 0.14999999999997726
                },
                {
                    "name": "D#6",
                    "midi": 87,
                    "time": 423.5999999999786,
                    "velocity": 0.4330708661417323,
                    "duration": 0.14999999999997726
                },
                {
                    "name": "C6",
                    "midi": 84,
                    "time": 423.5999999999786,
                    "velocity": 0.4330708661417323,
                    "duration": 0.14999999999997726
                },
                {
                    "name": "F6",
                    "midi": 89,
                    "time": 423.89999999997855,
                    "velocity": 0.4330708661417323,
                    "duration": 0.14999999999997726
                },
                {
                    "name": "C#7",
                    "midi": 97,
                    "time": 423.89999999997855,
                    "velocity": 0.5039370078740157,
                    "duration": 0.14999999999997726
                },
                {
                    "name": "C#6",
                    "midi": 85,
                    "time": 423.89999999997855,
                    "velocity": 0.4330708661417323,
                    "duration": 0.14999999999997726
                },
                {
                    "name": "D#6",
                    "midi": 87,
                    "time": 424.1999999999785,
                    "velocity": 0.44881889763779526,
                    "duration": 0.14999999999997726
                },
                {
                    "name": "G#6",
                    "midi": 92,
                    "time": 424.1999999999785,
                    "velocity": 0.44881889763779526,
                    "duration": 0.14999999999997726
                },
                {
                    "name": "D#7",
                    "midi": 99,
                    "time": 424.1999999999785,
                    "velocity": 0.5433070866141733,
                    "duration": 0.14999999999997726
                },
                {
                    "name": "F6",
                    "midi": 89,
                    "time": 424.49999999997846,
                    "velocity": 0.47244094488188976,
                    "duration": 0.14999999999997726
                },
                {
                    "name": "F7",
                    "midi": 101,
                    "time": 424.49999999997846,
                    "velocity": 0.5590551181102362,
                    "duration": 0.14999999999997726
                },
                {
                    "name": "C#7",
                    "midi": 97,
                    "time": 424.49999999997846,
                    "velocity": 0.47244094488188976,
                    "duration": 0.14999999999997726
                },
                {
                    "name": "F#7",
                    "midi": 102,
                    "time": 424.7999999999784,
                    "velocity": 0.5905511811023622,
                    "duration": 0.14999999999997726
                },
                {
                    "name": "F#6",
                    "midi": 90,
                    "time": 424.7999999999784,
                    "velocity": 0.49606299212598426,
                    "duration": 0.14999999999997726
                },
                {
                    "name": "D#7",
                    "midi": 99,
                    "time": 424.7999999999784,
                    "velocity": 0.49606299212598426,
                    "duration": 0.14999999999997726
                },
                {
                    "name": "G#7",
                    "midi": 104,
                    "time": 425.09999999997837,
                    "velocity": 0.6141732283464567,
                    "duration": 0.14999999999997726
                },
                {
                    "name": "G#6",
                    "midi": 92,
                    "time": 425.09999999997837,
                    "velocity": 0.5039370078740157,
                    "duration": 0.14999999999997726
                },
                {
                    "name": "B6",
                    "midi": 95,
                    "time": 425.09999999997837,
                    "velocity": 0.5039370078740157,
                    "duration": 0.14999999999997726
                },
                {
                    "name": "G7",
                    "midi": 103,
                    "time": 425.3999999999783,
                    "velocity": 0.5039370078740157,
                    "duration": 0.14999999999997726
                },
                {
                    "name": "G6",
                    "midi": 91,
                    "time": 425.3999999999783,
                    "velocity": 0.4330708661417323,
                    "duration": 0.14999999999997726
                },
                {
                    "name": "E7",
                    "midi": 100,
                    "time": 425.3999999999783,
                    "velocity": 0.4330708661417323,
                    "duration": 0.14999999999997726
                },
                {
                    "name": "F7",
                    "midi": 101,
                    "time": 425.6999999999783,
                    "velocity": 0.47244094488188976,
                    "duration": 0.14999999999997726
                },
                {
                    "name": "G#6",
                    "midi": 92,
                    "time": 425.6999999999783,
                    "velocity": 0.47244094488188976,
                    "duration": 0.14999999999997726
                },
                {
                    "name": "G#7",
                    "midi": 104,
                    "time": 425.6999999999783,
                    "velocity": 0.5590551181102362,
                    "duration": 0.14999999999997726
                },
                {
                    "name": "F6",
                    "midi": 89,
                    "time": 425.99999999997823,
                    "velocity": 0.4330708661417323,
                    "duration": 0.14999999999997726
                },
                {
                    "name": "F7",
                    "midi": 101,
                    "time": 425.99999999997823,
                    "velocity": 0.5039370078740157,
                    "duration": 0.14999999999997726
                },
                {
                    "name": "C#7",
                    "midi": 97,
                    "time": 425.99999999997823,
                    "velocity": 0.4330708661417323,
                    "duration": 0.14999999999997726
                },
                {
                    "name": "A6",
                    "midi": 93,
                    "time": 426.2249999999782,
                    "velocity": 0.6456692913385826,
                    "duration": 0.07499999999998863
                },
                {
                    "name": "F#7",
                    "midi": 102,
                    "time": 426.2999999999782,
                    "velocity": 0.7086614173228346,
                    "duration": 0.14999999999997726
                },
                {
                    "name": "A#6",
                    "midi": 94,
                    "time": 426.2999999999782,
                    "velocity": 0.5433070866141733,
                    "duration": 0.14999999999997726
                },
                {
                    "name": "F#6",
                    "midi": 90,
                    "time": 426.59999999997814,
                    "velocity": 0.5905511811023622,
                    "duration": 0.07499999999998863
                },
                {
                    "name": "F6",
                    "midi": 89,
                    "time": 426.8249999999781,
                    "velocity": 0.6456692913385826,
                    "duration": 0.07499999999998863
                },
                {
                    "name": "D#7",
                    "midi": 99,
                    "time": 426.8999999999781,
                    "velocity": 0.6456692913385826,
                    "duration": 0.14999999999997726
                },
                {
                    "name": "F#6",
                    "midi": 90,
                    "time": 426.8999999999781,
                    "velocity": 0.5433070866141733,
                    "duration": 0.14999999999997726
                },
                {
                    "name": "F#6",
                    "midi": 90,
                    "time": 427.19999999997805,
                    "velocity": 0.5905511811023622,
                    "duration": 0.07499999999998863
                },
                {
                    "name": "D6",
                    "midi": 86,
                    "time": 427.424999999978,
                    "velocity": 0.6456692913385826,
                    "duration": 0.07499999999998863
                },
                {
                    "name": "C7",
                    "midi": 96,
                    "time": 427.499999999978,
                    "velocity": 0.7086614173228346,
                    "duration": 0.14999999999997726
                },
                {
                    "name": "D#6",
                    "midi": 87,
                    "time": 427.499999999978,
                    "velocity": 0.5433070866141733,
                    "duration": 0.14999999999997726
                },
                {
                    "name": "C6",
                    "midi": 84,
                    "time": 427.79999999997796,
                    "velocity": 0.5905511811023622,
                    "duration": 0.07499999999998863
                },
                {
                    "name": "B5",
                    "midi": 83,
                    "time": 428.0249999999779,
                    "velocity": 0.6456692913385826,
                    "duration": 0.07499999999998863
                },
                {
                    "name": "G#6",
                    "midi": 92,
                    "time": 428.0999999999779,
                    "velocity": 0.6456692913385826,
                    "duration": 0.14999999999997726
                },
                {
                    "name": "C6",
                    "midi": 84,
                    "time": 428.0999999999779,
                    "velocity": 0.5433070866141733,
                    "duration": 0.14999999999997726
                },
                {
                    "name": "G#5",
                    "midi": 80,
                    "time": 428.39999999997787,
                    "velocity": 0.5905511811023622,
                    "duration": 0.07499999999998863
                },
                {
                    "name": "C#5",
                    "midi": 73,
                    "time": 428.6999999999779,
                    "velocity": 0.4645669291338583,
                    "duration": 0.30000000000001137
                },
                {
                    "name": "C#6",
                    "midi": 85,
                    "time": 428.6999999999779,
                    "velocity": 0.5511811023622047,
                    "duration": 0.30000000000001137
                },
                {
                    "name": "F5",
                    "midi": 77,
                    "time": 428.6999999999779,
                    "velocity": 0.4645669291338583,
                    "duration": 0.30000000000001137
                },
                {
                    "name": "D6",
                    "midi": 86,
                    "time": 428.9999999999779,
                    "velocity": 0.5669291338582677,
                    "duration": 0.30000000000001137
                },
                {
                    "name": "D5",
                    "midi": 74,
                    "time": 428.9999999999779,
                    "velocity": 0.48031496062992124,
                    "duration": 0.30000000000001137
                },
                {
                    "name": "F#5",
                    "midi": 78,
                    "time": 428.9999999999779,
                    "velocity": 0.48031496062992124,
                    "duration": 0.30000000000001137
                },
                {
                    "name": "G5",
                    "midi": 79,
                    "time": 429.2999999999779,
                    "velocity": 0.4881889763779528,
                    "duration": 0.30000000000001137
                },
                {
                    "name": "D#6",
                    "midi": 87,
                    "time": 429.2999999999779,
                    "velocity": 0.5826771653543307,
                    "duration": 0.30000000000001137
                },
                {
                    "name": "D#5",
                    "midi": 75,
                    "time": 429.2999999999779,
                    "velocity": 0.4881889763779528,
                    "duration": 0.30000000000001137
                },
                {
                    "name": "E6",
                    "midi": 88,
                    "time": 429.5999999999779,
                    "velocity": 0.6141732283464567,
                    "duration": 0.30000000000001137
                },
                {
                    "name": "E5",
                    "midi": 76,
                    "time": 429.5999999999779,
                    "velocity": 0.5196850393700787,
                    "duration": 0.30000000000001137
                },
                {
                    "name": "G#5",
                    "midi": 80,
                    "time": 429.5999999999779,
                    "velocity": 0.5196850393700787,
                    "duration": 0.30000000000001137
                },
                {
                    "name": "F5",
                    "midi": 77,
                    "time": 429.8999999999779,
                    "velocity": 0.5275590551181102,
                    "duration": 0.30000000000001137
                },
                {
                    "name": "F6",
                    "midi": 89,
                    "time": 429.8999999999779,
                    "velocity": 0.6220472440944882,
                    "duration": 0.30000000000001137
                },
                {
                    "name": "A5",
                    "midi": 81,
                    "time": 429.8999999999779,
                    "velocity": 0.6220472440944882,
                    "duration": 0.30000000000001137
                },
                {
                    "name": "E5",
                    "midi": 76,
                    "time": 430.19999999997793,
                    "velocity": 0.5039370078740157,
                    "duration": 0.30000000000001137
                },
                {
                    "name": "E6",
                    "midi": 88,
                    "time": 430.19999999997793,
                    "velocity": 0.6062992125984252,
                    "duration": 0.30000000000001137
                },
                {
                    "name": "G#5",
                    "midi": 80,
                    "time": 430.19999999997793,
                    "velocity": 0.5039370078740157,
                    "duration": 0.30000000000001137
                },
                {
                    "name": "G5",
                    "midi": 79,
                    "time": 430.49999999997794,
                    "velocity": 0.48031496062992124,
                    "duration": 0.30000000000001137
                },
                {
                    "name": "D#5",
                    "midi": 75,
                    "time": 430.49999999997794,
                    "velocity": 0.48031496062992124,
                    "duration": 0.30000000000001137
                },
                {
                    "name": "D#6",
                    "midi": 87,
                    "time": 430.49999999997794,
                    "velocity": 0.5748031496062992,
                    "duration": 0.30000000000001137
                },
                {
                    "name": "D5",
                    "midi": 74,
                    "time": 430.79999999997796,
                    "velocity": 0.4645669291338583,
                    "duration": 0.30000000000001137
                },
                {
                    "name": "F#5",
                    "midi": 78,
                    "time": 430.79999999997796,
                    "velocity": 0.4645669291338583,
                    "duration": 0.30000000000001137
                },
                {
                    "name": "D6",
                    "midi": 86,
                    "time": 430.79999999997796,
                    "velocity": 0.5511811023622047,
                    "duration": 0.30000000000001137
                },
                {
                    "name": "G5",
                    "midi": 79,
                    "time": 431.09999999997797,
                    "velocity": 0.4645669291338583,
                    "duration": 0.30000000000001137
                },
                {
                    "name": "D#6",
                    "midi": 87,
                    "time": 431.09999999997797,
                    "velocity": 0.5511811023622047,
                    "duration": 0.30000000000001137
                },
                {
                    "name": "D#5",
                    "midi": 75,
                    "time": 431.09999999997797,
                    "velocity": 0.4645669291338583,
                    "duration": 0.30000000000001137
                },
                {
                    "name": "E6",
                    "midi": 88,
                    "time": 431.399999999978,
                    "velocity": 0.5669291338582677,
                    "duration": 0.30000000000001137
                },
                {
                    "name": "E5",
                    "midi": 76,
                    "time": 431.399999999978,
                    "velocity": 0.48031496062992124,
                    "duration": 0.30000000000001137
                },
                {
                    "name": "G#5",
                    "midi": 80,
                    "time": 431.399999999978,
                    "velocity": 0.48031496062992124,
                    "duration": 0.30000000000001137
                },
                {
                    "name": "A5",
                    "midi": 81,
                    "time": 431.699999999978,
                    "velocity": 0.4881889763779528,
                    "duration": 0.30000000000001137
                },
                {
                    "name": "F5",
                    "midi": 77,
                    "time": 431.699999999978,
                    "velocity": 0.4881889763779528,
                    "duration": 0.30000000000001137
                },
                {
                    "name": "F6",
                    "midi": 89,
                    "time": 431.699999999978,
                    "velocity": 0.5826771653543307,
                    "duration": 0.30000000000001137
                },
                {
                    "name": "F#5",
                    "midi": 78,
                    "time": 431.999999999978,
                    "velocity": 0.5196850393700787,
                    "duration": 0.30000000000001137
                },
                {
                    "name": "A#5",
                    "midi": 82,
                    "time": 431.999999999978,
                    "velocity": 0.5196850393700787,
                    "duration": 0.30000000000001137
                },
                {
                    "name": "F#6",
                    "midi": 90,
                    "time": 431.999999999978,
                    "velocity": 0.6141732283464567,
                    "duration": 0.30000000000001137
                },
                {
                    "name": "G5",
                    "midi": 79,
                    "time": 432.299999999978,
                    "velocity": 0.5275590551181102,
                    "duration": 0.30000000000001137
                },
                {
                    "name": "G6",
                    "midi": 91,
                    "time": 432.299999999978,
                    "velocity": 0.6220472440944882,
                    "duration": 0.30000000000001137
                },
                {
                    "name": "B5",
                    "midi": 83,
                    "time": 432.299999999978,
                    "velocity": 0.6220472440944882,
                    "duration": 0.30000000000001137
                },
                {
                    "name": "A#5",
                    "midi": 82,
                    "time": 432.599999999978,
                    "velocity": 0.5039370078740157,
                    "duration": 0.30000000000001137
                },
                {
                    "name": "F#5",
                    "midi": 78,
                    "time": 432.599999999978,
                    "velocity": 0.5039370078740157,
                    "duration": 0.30000000000001137
                },
                {
                    "name": "F#6",
                    "midi": 90,
                    "time": 432.599999999978,
                    "velocity": 0.6062992125984252,
                    "duration": 0.30000000000001137
                },
                {
                    "name": "F5",
                    "midi": 77,
                    "time": 432.89999999997804,
                    "velocity": 0.4881889763779528,
                    "duration": 0.30000000000001137
                },
                {
                    "name": "F6",
                    "midi": 89,
                    "time": 432.89999999997804,
                    "velocity": 0.5826771653543307,
                    "duration": 0.30000000000001137
                },
                {
                    "name": "A5",
                    "midi": 81,
                    "time": 432.89999999997804,
                    "velocity": 0.4881889763779528,
                    "duration": 0.30000000000001137
                },
                {
                    "name": "E5",
                    "midi": 76,
                    "time": 433.19999999997805,
                    "velocity": 0.47244094488188976,
                    "duration": 0.30000000000001137
                },
                {
                    "name": "E6",
                    "midi": 88,
                    "time": 433.19999999997805,
                    "velocity": 0.5590551181102362,
                    "duration": 0.30000000000001137
                },
                {
                    "name": "G#5",
                    "midi": 80,
                    "time": 433.19999999997805,
                    "velocity": 0.47244094488188976,
                    "duration": 0.30000000000001137
                },
                {
                    "name": "A5",
                    "midi": 81,
                    "time": 433.49999999997806,
                    "velocity": 0.47244094488188976,
                    "duration": 0.30000000000001137
                },
                {
                    "name": "F6",
                    "midi": 89,
                    "time": 433.49999999997806,
                    "velocity": 0.5590551181102362,
                    "duration": 0.30000000000001137
                },
                {
                    "name": "F5",
                    "midi": 77,
                    "time": 433.49999999997806,
                    "velocity": 0.47244094488188976,
                    "duration": 0.30000000000001137
                },
                {
                    "name": "F#5",
                    "midi": 78,
                    "time": 433.79999999997807,
                    "velocity": 0.4881889763779528,
                    "duration": 0.30000000000001137
                },
                {
                    "name": "F#6",
                    "midi": 90,
                    "time": 433.79999999997807,
                    "velocity": 0.5748031496062992,
                    "duration": 0.30000000000001137
                },
                {
                    "name": "A#5",
                    "midi": 82,
                    "time": 433.79999999997807,
                    "velocity": 0.4881889763779528,
                    "duration": 0.30000000000001137
                },
                {
                    "name": "G5",
                    "midi": 79,
                    "time": 434.0999999999781,
                    "velocity": 0.49606299212598426,
                    "duration": 0.30000000000001137
                },
                {
                    "name": "G6",
                    "midi": 91,
                    "time": 434.0999999999781,
                    "velocity": 0.5905511811023622,
                    "duration": 0.30000000000001137
                },
                {
                    "name": "B5",
                    "midi": 83,
                    "time": 434.0999999999781,
                    "velocity": 0.49606299212598426,
                    "duration": 0.30000000000001137
                },
                {
                    "name": "G#5",
                    "midi": 80,
                    "time": 434.3999999999781,
                    "velocity": 0.5275590551181102,
                    "duration": 0.30000000000001137
                },
                {
                    "name": "C6",
                    "midi": 84,
                    "time": 434.3999999999781,
                    "velocity": 0.5275590551181102,
                    "duration": 0.30000000000001137
                },
                {
                    "name": "G#6",
                    "midi": 92,
                    "time": 434.3999999999781,
                    "velocity": 0.6220472440944882,
                    "duration": 0.30000000000001137
                },
                {
                    "name": "A6",
                    "midi": 93,
                    "time": 434.6999999999781,
                    "velocity": 0.6299212598425197,
                    "duration": 0.30000000000001137
                },
                {
                    "name": "A5",
                    "midi": 81,
                    "time": 434.6999999999781,
                    "velocity": 0.5354330708661418,
                    "duration": 0.30000000000001137
                },
                {
                    "name": "C#6",
                    "midi": 85,
                    "time": 434.6999999999781,
                    "velocity": 0.6299212598425197,
                    "duration": 0.30000000000001137
                },
                {
                    "name": "G#6",
                    "midi": 92,
                    "time": 434.9999999999781,
                    "velocity": 0.6220472440944882,
                    "duration": 0.30000000000001137
                },
                {
                    "name": "C6",
                    "midi": 84,
                    "time": 434.9999999999781,
                    "velocity": 0.5118110236220472,
                    "duration": 0.30000000000001137
                },
                {
                    "name": "G#5",
                    "midi": 80,
                    "time": 434.9999999999781,
                    "velocity": 0.5118110236220472,
                    "duration": 0.30000000000001137
                },
                {
                    "name": "G6",
                    "midi": 91,
                    "time": 435.2999999999781,
                    "velocity": 0.5905511811023622,
                    "duration": 0.30000000000001137
                },
                {
                    "name": "B5",
                    "midi": 83,
                    "time": 435.2999999999781,
                    "velocity": 0.4881889763779528,
                    "duration": 0.30000000000001137
                },
                {
                    "name": "G5",
                    "midi": 79,
                    "time": 435.2999999999781,
                    "velocity": 0.4881889763779528,
                    "duration": 0.30000000000001137
                },
                {
                    "name": "A#5",
                    "midi": 82,
                    "time": 435.59999999997814,
                    "velocity": 0.47244094488188976,
                    "duration": 0.30000000000001137
                },
                {
                    "name": "F#6",
                    "midi": 90,
                    "time": 435.59999999997814,
                    "velocity": 0.5669291338582677,
                    "duration": 0.30000000000001137
                },
                {
                    "name": "F#5",
                    "midi": 78,
                    "time": 435.59999999997814,
                    "velocity": 0.47244094488188976,
                    "duration": 0.30000000000001137
                },
                {
                    "name": "B5",
                    "midi": 83,
                    "time": 435.89999999997815,
                    "velocity": 0.48031496062992124,
                    "duration": 0.30000000000001137
                },
                {
                    "name": "G6",
                    "midi": 91,
                    "time": 435.89999999997815,
                    "velocity": 0.5826771653543307,
                    "duration": 0.30000000000001137
                },
                {
                    "name": "G5",
                    "midi": 79,
                    "time": 435.89999999997815,
                    "velocity": 0.48031496062992124,
                    "duration": 0.30000000000001137
                },
                {
                    "name": "C6",
                    "midi": 84,
                    "time": 436.19999999997816,
                    "velocity": 0.5039370078740157,
                    "duration": 0.30000000000001137
                },
                {
                    "name": "G#6",
                    "midi": 92,
                    "time": 436.19999999997816,
                    "velocity": 0.5984251968503937,
                    "duration": 0.30000000000001137
                },
                {
                    "name": "G#5",
                    "midi": 80,
                    "time": 436.19999999997816,
                    "velocity": 0.5039370078740157,
                    "duration": 0.30000000000001137
                },
                {
                    "name": "A6",
                    "midi": 93,
                    "time": 436.4999999999782,
                    "velocity": 0.6141732283464567,
                    "duration": 0.30000000000001137
                },
                {
                    "name": "A5",
                    "midi": 81,
                    "time": 436.4999999999782,
                    "velocity": 0.5118110236220472,
                    "duration": 0.30000000000001137
                },
                {
                    "name": "C#6",
                    "midi": 85,
                    "time": 436.4999999999782,
                    "velocity": 0.5118110236220472,
                    "duration": 0.30000000000001137
                },
                {
                    "name": "D6",
                    "midi": 86,
                    "time": 436.7999999999782,
                    "velocity": 0.5354330708661418,
                    "duration": 0.30000000000001137
                },
                {
                    "name": "A#5",
                    "midi": 82,
                    "time": 436.7999999999782,
                    "velocity": 0.5354330708661418,
                    "duration": 0.30000000000001137
                },
                {
                    "name": "A#6",
                    "midi": 94,
                    "time": 436.7999999999782,
                    "velocity": 0.6456692913385826,
                    "duration": 0.30000000000001137
                },
                {
                    "name": "D#6",
                    "midi": 87,
                    "time": 437.0999999999782,
                    "velocity": 0.5590551181102362,
                    "duration": 0.30000000000001137
                },
                {
                    "name": "B5",
                    "midi": 83,
                    "time": 437.0999999999782,
                    "velocity": 0.5590551181102362,
                    "duration": 0.30000000000001137
                },
                {
                    "name": "B6",
                    "midi": 95,
                    "time": 437.0999999999782,
                    "velocity": 0.6692913385826772,
                    "duration": 0.30000000000001137
                },
                {
                    "name": "C6",
                    "midi": 84,
                    "time": 437.3999999999782,
                    "velocity": 0.5826771653543307,
                    "duration": 0.30000000000001137
                },
                {
                    "name": "C7",
                    "midi": 96,
                    "time": 437.3999999999782,
                    "velocity": 0.6929133858267716,
                    "duration": 0.30000000000001137
                },
                {
                    "name": "E6",
                    "midi": 88,
                    "time": 437.3999999999782,
                    "velocity": 0.5826771653543307,
                    "duration": 0.30000000000001137
                },
                {
                    "name": "F6",
                    "midi": 89,
                    "time": 437.6999999999782,
                    "velocity": 0.5905511811023622,
                    "duration": 0.30000000000001137
                },
                {
                    "name": "C#7",
                    "midi": 97,
                    "time": 437.6999999999782,
                    "velocity": 0.7086614173228346,
                    "duration": 0.30000000000001137
                },
                {
                    "name": "C#6",
                    "midi": 85,
                    "time": 437.6999999999782,
                    "velocity": 0.5905511811023622,
                    "duration": 0.30000000000001137
                },
                {
                    "name": "D7",
                    "midi": 98,
                    "time": 437.99999999997823,
                    "velocity": 0.7322834645669292,
                    "duration": 0.30000000000001137
                },
                {
                    "name": "D6",
                    "midi": 86,
                    "time": 437.99999999997823,
                    "velocity": 0.6220472440944882,
                    "duration": 0.30000000000001137
                },
                {
                    "name": "F#6",
                    "midi": 90,
                    "time": 437.99999999997823,
                    "velocity": 0.6220472440944882,
                    "duration": 0.30000000000001137
                },
                {
                    "name": "D#7",
                    "midi": 99,
                    "time": 438.29999999997824,
                    "velocity": 0.7480314960629921,
                    "duration": 0.30000000000001137
                },
                {
                    "name": "D#6",
                    "midi": 87,
                    "time": 438.29999999997824,
                    "velocity": 0.6377952755905512,
                    "duration": 0.30000000000001137
                },
                {
                    "name": "G6",
                    "midi": 91,
                    "time": 438.29999999997824,
                    "velocity": 0.6377952755905512,
                    "duration": 0.30000000000001137
                },
                {
                    "name": "E7",
                    "midi": 100,
                    "time": 438.59999999997825,
                    "velocity": 0.7874015748031497,
                    "duration": 0.30000000000001137
                },
                {
                    "name": "G#6",
                    "midi": 92,
                    "time": 438.59999999997825,
                    "velocity": 0.6535433070866141,
                    "duration": 0.30000000000001137
                },
                {
                    "name": "E6",
                    "midi": 88,
                    "time": 438.59999999997825,
                    "velocity": 0.6535433070866141,
                    "duration": 0.30000000000001137
                },
                {
                    "name": "F6",
                    "midi": 89,
                    "time": 438.89999999997826,
                    "velocity": 0.6850393700787402,
                    "duration": 0.30000000000001137
                },
                {
                    "name": "F7",
                    "midi": 101,
                    "time": 438.89999999997826,
                    "velocity": 0.8110236220472441,
                    "duration": 0.30000000000001137
                },
                {
                    "name": "A6",
                    "midi": 93,
                    "time": 438.89999999997826,
                    "velocity": 0.6850393700787402,
                    "duration": 0.30000000000001137
                },
                {
                    "name": "E7",
                    "midi": 100,
                    "time": 439.1999999999783,
                    "velocity": 0.7952755905511811,
                    "duration": 0.30000000000001137
                },
                {
                    "name": "G#6",
                    "midi": 92,
                    "time": 439.1999999999783,
                    "velocity": 0.6692913385826772,
                    "duration": 0.30000000000001137
                },
                {
                    "name": "E6",
                    "midi": 88,
                    "time": 439.1999999999783,
                    "velocity": 0.6692913385826772,
                    "duration": 0.30000000000001137
                },
                {
                    "name": "G6",
                    "midi": 91,
                    "time": 439.4999999999783,
                    "velocity": 0.7716535433070866,
                    "duration": 0.30000000000001137
                },
                {
                    "name": "D#6",
                    "midi": 87,
                    "time": 439.4999999999783,
                    "velocity": 0.6614173228346457,
                    "duration": 0.30000000000001137
                },
                {
                    "name": "D#7",
                    "midi": 99,
                    "time": 439.4999999999783,
                    "velocity": 0.7716535433070866,
                    "duration": 0.30000000000001137
                },
                {
                    "name": "F#6",
                    "midi": 90,
                    "time": 439.7999999999783,
                    "velocity": 0.6456692913385826,
                    "duration": 0.30000000000001137
                },
                {
                    "name": "D6",
                    "midi": 86,
                    "time": 439.7999999999783,
                    "velocity": 0.6456692913385826,
                    "duration": 0.30000000000001137
                },
                {
                    "name": "D7",
                    "midi": 98,
                    "time": 439.7999999999783,
                    "velocity": 0.7637795275590551,
                    "duration": 0.30000000000001137
                },
                {
                    "name": "C#6",
                    "midi": 85,
                    "time": 440.0999999999783,
                    "velocity": 0.6377952755905512,
                    "duration": 0.30000000000001137
                },
                {
                    "name": "C#7",
                    "midi": 97,
                    "time": 440.0999999999783,
                    "velocity": 0.7559055118110236,
                    "duration": 0.30000000000001137
                },
                {
                    "name": "F6",
                    "midi": 89,
                    "time": 440.0999999999783,
                    "velocity": 0.6377952755905512,
                    "duration": 0.30000000000001137
                },
                {
                    "name": "C6",
                    "midi": 84,
                    "time": 440.3999999999783,
                    "velocity": 0.6299212598425197,
                    "duration": 0.30000000000001137
                },
                {
                    "name": "E6",
                    "midi": 88,
                    "time": 440.3999999999783,
                    "velocity": 0.6299212598425197,
                    "duration": 0.30000000000001137
                },
                {
                    "name": "C7",
                    "midi": 96,
                    "time": 440.3999999999783,
                    "velocity": 0.7480314960629921,
                    "duration": 0.30000000000001137
                },
                {
                    "name": "B5",
                    "midi": 83,
                    "time": 440.69999999997833,
                    "velocity": 0.6141732283464567,
                    "duration": 0.30000000000001137
                },
                {
                    "name": "B6",
                    "midi": 95,
                    "time": 440.69999999997833,
                    "velocity": 0.7401574803149606,
                    "duration": 0.30000000000001137
                },
                {
                    "name": "D#6",
                    "midi": 87,
                    "time": 440.69999999997833,
                    "velocity": 0.6141732283464567,
                    "duration": 0.30000000000001137
                },
                {
                    "name": "A#6",
                    "midi": 94,
                    "time": 440.99999999997834,
                    "velocity": 0.7322834645669292,
                    "duration": 0.30000000000001137
                },
                {
                    "name": "A#5",
                    "midi": 82,
                    "time": 440.99999999997834,
                    "velocity": 0.6062992125984252,
                    "duration": 0.30000000000001137
                },
                {
                    "name": "D6",
                    "midi": 86,
                    "time": 440.99999999997834,
                    "velocity": 0.6062992125984252,
                    "duration": 0.30000000000001137
                },
                {
                    "name": "A6",
                    "midi": 93,
                    "time": 441.29999999997835,
                    "velocity": 0.7244094488188977,
                    "duration": 0.30000000000001137
                },
                {
                    "name": "A5",
                    "midi": 81,
                    "time": 441.29999999997835,
                    "velocity": 0.6062992125984252,
                    "duration": 0.30000000000001137
                },
                {
                    "name": "C#6",
                    "midi": 85,
                    "time": 441.29999999997835,
                    "velocity": 0.6062992125984252,
                    "duration": 0.30000000000001137
                },
                {
                    "name": "D6",
                    "midi": 86,
                    "time": 441.59999999997837,
                    "velocity": 0.5984251968503937,
                    "duration": 0.30000000000001137
                },
                {
                    "name": "A#6",
                    "midi": 94,
                    "time": 441.59999999997837,
                    "velocity": 0.7086614173228346,
                    "duration": 0.30000000000001137
                },
                {
                    "name": "A#5",
                    "midi": 82,
                    "time": 441.59999999997837,
                    "velocity": 0.5984251968503937,
                    "duration": 0.30000000000001137
                },
                {
                    "name": "B6",
                    "midi": 95,
                    "time": 441.8999999999784,
                    "velocity": 0.7007874015748031,
                    "duration": 0.30000000000001137
                },
                {
                    "name": "B5",
                    "midi": 83,
                    "time": 441.8999999999784,
                    "velocity": 0.5905511811023622,
                    "duration": 0.30000000000001137
                },
                {
                    "name": "D#6",
                    "midi": 87,
                    "time": 441.8999999999784,
                    "velocity": 0.5905511811023622,
                    "duration": 0.30000000000001137
                },
                {
                    "name": "C6",
                    "midi": 84,
                    "time": 442.1999999999784,
                    "velocity": 0.6062992125984252,
                    "duration": 0.30000000000001137
                },
                {
                    "name": "E6",
                    "midi": 88,
                    "time": 442.1999999999784,
                    "velocity": 0.6062992125984252,
                    "duration": 0.30000000000001137
                },
                {
                    "name": "C7",
                    "midi": 96,
                    "time": 442.1999999999784,
                    "velocity": 0.7244094488188977,
                    "duration": 0.30000000000001137
                },
                {
                    "name": "C#7",
                    "midi": 97,
                    "time": 442.4999999999784,
                    "velocity": 0.7401574803149606,
                    "duration": 0.30000000000001137
                },
                {
                    "name": "C#6",
                    "midi": 85,
                    "time": 442.4999999999784,
                    "velocity": 0.6141732283464567,
                    "duration": 0.30000000000001137
                },
                {
                    "name": "F6",
                    "midi": 89,
                    "time": 442.4999999999784,
                    "velocity": 0.6141732283464567,
                    "duration": 0.30000000000001137
                },
                {
                    "name": "D7",
                    "midi": 98,
                    "time": 442.7999999999784,
                    "velocity": 0.7559055118110236,
                    "duration": 0.30000000000001137
                },
                {
                    "name": "F#6",
                    "midi": 90,
                    "time": 442.7999999999784,
                    "velocity": 0.6377952755905512,
                    "duration": 0.30000000000001137
                },
                {
                    "name": "D6",
                    "midi": 86,
                    "time": 442.7999999999784,
                    "velocity": 0.6377952755905512,
                    "duration": 0.30000000000001137
                },
                {
                    "name": "D#6",
                    "midi": 87,
                    "time": 443.0999999999784,
                    "velocity": 0.6614173228346457,
                    "duration": 0.30000000000001137
                },
                {
                    "name": "G6",
                    "midi": 91,
                    "time": 443.0999999999784,
                    "velocity": 0.6614173228346457,
                    "duration": 0.30000000000001137
                },
                {
                    "name": "D#7",
                    "midi": 99,
                    "time": 443.0999999999784,
                    "velocity": 0.7716535433070866,
                    "duration": 0.30000000000001137
                },
                {
                    "name": "E7",
                    "midi": 100,
                    "time": 443.39999999997843,
                    "velocity": 0.7952755905511811,
                    "duration": 0.30000000000001137
                },
                {
                    "name": "G#6",
                    "midi": 92,
                    "time": 443.39999999997843,
                    "velocity": 0.6692913385826772,
                    "duration": 0.30000000000001137
                },
                {
                    "name": "E6",
                    "midi": 88,
                    "time": 443.39999999997843,
                    "velocity": 0.6692913385826772,
                    "duration": 0.30000000000001137
                },
                {
                    "name": "F6",
                    "midi": 89,
                    "time": 443.69999999997844,
                    "velocity": 0.6929133858267716,
                    "duration": 0.30000000000001137
                },
                {
                    "name": "A6",
                    "midi": 93,
                    "time": 443.69999999997844,
                    "velocity": 0.6929133858267716,
                    "duration": 0.30000000000001137
                },
                {
                    "name": "F7",
                    "midi": 101,
                    "time": 443.69999999997844,
                    "velocity": 0.8267716535433071,
                    "duration": 0.30000000000001137
                },
                {
                    "name": "E7",
                    "midi": 100,
                    "time": 443.99999999997846,
                    "velocity": 0.7952755905511811,
                    "duration": 0.30000000000001137
                },
                {
                    "name": "E6",
                    "midi": 88,
                    "time": 443.99999999997846,
                    "velocity": 0.6692913385826772,
                    "duration": 0.30000000000001137
                },
                {
                    "name": "G#6",
                    "midi": 92,
                    "time": 443.99999999997846,
                    "velocity": 0.6692913385826772,
                    "duration": 0.30000000000001137
                },
                {
                    "name": "D#7",
                    "midi": 99,
                    "time": 444.29999999997847,
                    "velocity": 0.7716535433070866,
                    "duration": 0.30000000000001137
                },
                {
                    "name": "D#6",
                    "midi": 87,
                    "time": 444.29999999997847,
                    "velocity": 0.6614173228346457,
                    "duration": 0.30000000000001137
                },
                {
                    "name": "G6",
                    "midi": 91,
                    "time": 444.29999999997847,
                    "velocity": 0.7716535433070866,
                    "duration": 0.30000000000001137
                },
                {
                    "name": "D6",
                    "midi": 86,
                    "time": 444.5999999999785,
                    "velocity": 0.6456692913385826,
                    "duration": 0.30000000000001137
                },
                {
                    "name": "F#6",
                    "midi": 90,
                    "time": 444.5999999999785,
                    "velocity": 0.6456692913385826,
                    "duration": 0.30000000000001137
                },
                {
                    "name": "D7",
                    "midi": 98,
                    "time": 444.5999999999785,
                    "velocity": 0.7637795275590551,
                    "duration": 0.30000000000001137
                },
                {
                    "name": "C#7",
                    "midi": 97,
                    "time": 444.8999999999785,
                    "velocity": 0.7559055118110236,
                    "duration": 0.30000000000001137
                },
                {
                    "name": "F6",
                    "midi": 89,
                    "time": 444.8999999999785,
                    "velocity": 0.6377952755905512,
                    "duration": 0.30000000000001137
                },
                {
                    "name": "C#6",
                    "midi": 85,
                    "time": 444.8999999999785,
                    "velocity": 0.6377952755905512,
                    "duration": 0.30000000000001137
                },
                {
                    "name": "F#6",
                    "midi": 90,
                    "time": 445.1999999999785,
                    "velocity": 0.6299212598425197,
                    "duration": 0.30000000000001137
                },
                {
                    "name": "C6",
                    "midi": 84,
                    "time": 445.1999999999785,
                    "velocity": 0.6299212598425197,
                    "duration": 0.30000000000001137
                },
                {
                    "name": "C7",
                    "midi": 96,
                    "time": 445.1999999999785,
                    "velocity": 0.7480314960629921,
                    "duration": 0.30000000000001137
                },
                {
                    "name": "F6",
                    "midi": 89,
                    "time": 445.4999999999785,
                    "velocity": 0.7086614173228346,
                    "duration": 0.30000000000001137
                },
                {
                    "name": "C#7",
                    "midi": 97,
                    "time": 445.4999999999785,
                    "velocity": 0.84251968503937,
                    "duration": 0.30000000000001137
                },
                {
                    "name": "C#6",
                    "midi": 85,
                    "time": 445.4999999999785,
                    "velocity": 0.7086614173228346,
                    "duration": 0.30000000000001137
                },
                {
                    "name": "C6",
                    "midi": 84,
                    "time": 445.7999999999785,
                    "velocity": 0.6614173228346457,
                    "duration": 0.30000000000001137
                },
                {
                    "name": "C7",
                    "midi": 96,
                    "time": 445.7999999999785,
                    "velocity": 0.7795275590551181,
                    "duration": 0.30000000000001137
                },
                {
                    "name": "F#6",
                    "midi": 90,
                    "time": 445.7999999999785,
                    "velocity": 0.6614173228346457,
                    "duration": 0.30000000000001137
                },
                {
                    "name": "C#6",
                    "midi": 85,
                    "time": 446.09999999997854,
                    "velocity": 0.7086614173228346,
                    "duration": 0.30000000000001137
                },
                {
                    "name": "F6",
                    "midi": 89,
                    "time": 446.09999999997854,
                    "velocity": 0.7086614173228346,
                    "duration": 0.30000000000001137
                },
                {
                    "name": "C#7",
                    "midi": 97,
                    "time": 446.09999999997854,
                    "velocity": 0.84251968503937,
                    "duration": 0.30000000000001137
                },
                {
                    "name": "C7",
                    "midi": 96,
                    "time": 446.39999999997855,
                    "velocity": 0.7795275590551181,
                    "duration": 0.30000000000001137
                },
                {
                    "name": "F#6",
                    "midi": 90,
                    "time": 446.39999999997855,
                    "velocity": 0.6614173228346457,
                    "duration": 0.30000000000001137
                },
                {
                    "name": "C6",
                    "midi": 84,
                    "time": 446.39999999997855,
                    "velocity": 0.6614173228346457,
                    "duration": 0.30000000000001137
                },
                {
                    "name": "C#6",
                    "midi": 85,
                    "time": 446.69999999997856,
                    "velocity": 0.7086614173228346,
                    "duration": 0.30000000000001137
                },
                {
                    "name": "C#7",
                    "midi": 97,
                    "time": 446.69999999997856,
                    "velocity": 0.84251968503937,
                    "duration": 0.30000000000001137
                },
                {
                    "name": "F6",
                    "midi": 89,
                    "time": 446.69999999997856,
                    "velocity": 0.7086614173228346,
                    "duration": 0.30000000000001137
                },
                {
                    "name": "C5",
                    "midi": 72,
                    "time": 446.99999999997857,
                    "velocity": 0.5354330708661418,
                    "duration": 0.32499999999998863
                },
                {
                    "name": "C6",
                    "midi": 84,
                    "time": 446.99999999997857,
                    "velocity": 0.6377952755905512,
                    "duration": 0.32499999999998863
                },
                {
                    "name": "C#6",
                    "midi": 85,
                    "time": 447.2999999999786,
                    "velocity": 0.6929133858267716,
                    "duration": 0.3249999999999318
                },
                {
                    "name": "C#5",
                    "midi": 73,
                    "time": 447.2999999999786,
                    "velocity": 0.5826771653543307,
                    "duration": 0.3249999999999318
                },
                {
                    "name": "C6",
                    "midi": 84,
                    "time": 447.59999999997854,
                    "velocity": 0.6377952755905512,
                    "duration": 0.3249999999999318
                },
                {
                    "name": "C5",
                    "midi": 72,
                    "time": 447.59999999997854,
                    "velocity": 0.5354330708661418,
                    "duration": 0.3249999999999318
                },
                {
                    "name": "C#6",
                    "midi": 85,
                    "time": 447.8999999999785,
                    "velocity": 0.6929133858267716,
                    "duration": 0.14999999999997726
                },
                {
                    "name": "C#5",
                    "midi": 73,
                    "time": 447.8999999999785,
                    "velocity": 0.5826771653543307,
                    "duration": 0.14999999999997726
                },
                {
                    "name": "C#5",
                    "midi": 73,
                    "time": 448.19999999997844,
                    "velocity": 0.5826771653543307,
                    "duration": 0.32499999999998863
                },
                {
                    "name": "C#4",
                    "midi": 61,
                    "time": 448.19999999997844,
                    "velocity": 0.4881889763779528,
                    "duration": 0.32499999999998863
                },
                {
                    "name": "D5",
                    "midi": 74,
                    "time": 448.49999999997846,
                    "velocity": 0.6299212598425197,
                    "duration": 0.3249999999999318
                },
                {
                    "name": "D4",
                    "midi": 62,
                    "time": 448.49999999997846,
                    "velocity": 0.5354330708661418,
                    "duration": 0.3249999999999318
                },
                {
                    "name": "D#5",
                    "midi": 75,
                    "time": 448.7999999999784,
                    "velocity": 0.5669291338582677,
                    "duration": 0.2999999999999545
                },
                {
                    "name": "D#4",
                    "midi": 63,
                    "time": 448.7999999999784,
                    "velocity": 0.48031496062992124,
                    "duration": 0.2999999999999545
                },
                {
                    "name": "E5",
                    "midi": 76,
                    "time": 449.09999999997837,
                    "velocity": 0.7637795275590551,
                    "duration": 0.5999999999999659
                },
                {
                    "name": "E4",
                    "midi": 64,
                    "time": 449.09999999997837,
                    "velocity": 0.6299212598425197,
                    "duration": 0.5999999999999659
                },
                {
                    "name": "B4",
                    "midi": 71,
                    "time": 449.3999999999784,
                    "velocity": 0.6220472440944882,
                    "duration": 0.14999999999997726
                },
                {
                    "name": "G#4",
                    "midi": 68,
                    "time": 449.3999999999784,
                    "velocity": 0.5275590551181102,
                    "duration": 0.14999999999997726
                },
                {
                    "name": "G#4",
                    "midi": 68,
                    "time": 449.69999999997833,
                    "velocity": 0.5826771653543307,
                    "duration": 0.5999999999999659
                },
                {
                    "name": "G#5",
                    "midi": 80,
                    "time": 449.69999999997833,
                    "velocity": 0.6929133858267716,
                    "duration": 0.5999999999999659
                },
                {
                    "name": "B4",
                    "midi": 71,
                    "time": 449.99999999997834,
                    "velocity": 0.5275590551181102,
                    "duration": 0.14999999999997726
                },
                {
                    "name": "E5",
                    "midi": 76,
                    "time": 449.99999999997834,
                    "velocity": 0.6220472440944882,
                    "duration": 0.14999999999997726
                },
                {
                    "name": "C#6",
                    "midi": 85,
                    "time": 450.2999999999783,
                    "velocity": 0.8267716535433071,
                    "duration": 0.8999999999999204
                },
                {
                    "name": "C#5",
                    "midi": 73,
                    "time": 450.2999999999783,
                    "velocity": 0.7007874015748031,
                    "duration": 0.8999999999999204
                },
                {
                    "name": "G#5",
                    "midi": 80,
                    "time": 450.5999999999783,
                    "velocity": 0.6220472440944882,
                    "duration": 0.14999999999997726
                },
                {
                    "name": "E5",
                    "midi": 76,
                    "time": 450.5999999999783,
                    "velocity": 0.5275590551181102,
                    "duration": 0.14999999999997726
                },
                {
                    "name": "G#5",
                    "midi": 80,
                    "time": 450.89999999997826,
                    "velocity": 0.6220472440944882,
                    "duration": 0.14999999999997726
                },
                {
                    "name": "E5",
                    "midi": 76,
                    "time": 450.89999999997826,
                    "velocity": 0.5275590551181102,
                    "duration": 0.14999999999997726
                },
                {
                    "name": "B4",
                    "midi": 71,
                    "time": 451.1999999999782,
                    "velocity": 0.6299212598425197,
                    "duration": 0.14999999999997726
                },
                {
                    "name": "B5",
                    "midi": 83,
                    "time": 451.1999999999782,
                    "velocity": 0.7559055118110236,
                    "duration": 0.14999999999997726
                },
                {
                    "name": "E5",
                    "midi": 76,
                    "time": 451.4999999999782,
                    "velocity": 0.6692913385826772,
                    "duration": 0.14999999999997726
                },
                {
                    "name": "C#5",
                    "midi": 73,
                    "time": 451.4999999999782,
                    "velocity": 0.6692913385826772,
                    "duration": 0.14999999999997726
                },
                {
                    "name": "A5",
                    "midi": 81,
                    "time": 451.4999999999782,
                    "velocity": 0.7874015748031497,
                    "duration": 0.14999999999997726
                },
                {
                    "name": "A4",
                    "midi": 69,
                    "time": 451.4999999999782,
                    "velocity": 0.6692913385826772,
                    "duration": 0.14999999999997726
                },
                {
                    "name": "G#5",
                    "midi": 80,
                    "time": 451.7999999999781,
                    "velocity": 0.7244094488188977,
                    "duration": 0.14999999999997726
                },
                {
                    "name": "G#4",
                    "midi": 68,
                    "time": 451.7999999999781,
                    "velocity": 0.6062992125984252,
                    "duration": 0.14999999999997726
                },
                {
                    "name": "G4",
                    "midi": 67,
                    "time": 452.0999999999781,
                    "velocity": 0.6062992125984252,
                    "duration": 0.14999999999997726
                },
                {
                    "name": "G5",
                    "midi": 79,
                    "time": 452.0999999999781,
                    "velocity": 0.7244094488188977,
                    "duration": 0.14999999999997726
                },
                {
                    "name": "F#4",
                    "midi": 66,
                    "time": 452.32499999997805,
                    "velocity": 0.5669291338582677,
                    "duration": 0.22499999999990905
                },
                {
                    "name": "A4",
                    "midi": 69,
                    "time": 452.349999999978,
                    "velocity": 0.5826771653543307,
                    "duration": 0.17499999999995453
                },
                {
                    "name": "C#5",
                    "midi": 73,
                    "time": 452.374999999978,
                    "velocity": 0.5984251968503937,
                    "duration": 0.17499999999995453
                },
                {
                    "name": "F#5",
                    "midi": 78,
                    "time": 452.399999999978,
                    "velocity": 0.7322834645669292,
                    "duration": 0.14999999999997726
                },
                {
                    "name": "F5",
                    "midi": 77,
                    "time": 452.69999999997793,
                    "velocity": 0.7244094488188977,
                    "duration": 0.14999999999997726
                },
                {
                    "name": "F4",
                    "midi": 65,
                    "time": 452.69999999997793,
                    "velocity": 0.6062992125984252,
                    "duration": 0.14999999999997726
                },
                {
                    "name": "E4",
                    "midi": 64,
                    "time": 452.9249999999779,
                    "velocity": 0.47244094488188976,
                    "duration": 0.22499999999990905
                },
                {
                    "name": "A4",
                    "midi": 69,
                    "time": 452.9499999999779,
                    "velocity": 0.5039370078740157,
                    "duration": 0.1999999999999318
                },
                {
                    "name": "C#5",
                    "midi": 73,
                    "time": 452.97499999997785,
                    "velocity": 0.5275590551181102,
                    "duration": 0.17499999999995453
                },
                {
                    "name": "E5",
                    "midi": 76,
                    "time": 452.99999999997783,
                    "velocity": 0.6299212598425197,
                    "duration": 0.14999999999997726
                },
                {
                    "name": "D#4",
                    "midi": 63,
                    "time": 453.2999999999778,
                    "velocity": 0.5905511811023622,
                    "duration": 0.14999999999997726
                },
                {
                    "name": "D#5",
                    "midi": 75,
                    "time": 453.2999999999778,
                    "velocity": 0.7086614173228346,
                    "duration": 0.14999999999997726
                },
                {
                    "name": "E4",
                    "midi": 64,
                    "time": 453.52499999997775,
                    "velocity": 0.5118110236220472,
                    "duration": 0.22499999999990905
                },
                {
                    "name": "A4",
                    "midi": 69,
                    "time": 453.54999999997773,
                    "velocity": 0.5118110236220472,
                    "duration": 0.1999999999999318
                },
                {
                    "name": "C#5",
                    "midi": 73,
                    "time": 453.5749999999777,
                    "velocity": 0.5118110236220472,
                    "duration": 0.17499999999995453
                },
                {
                    "name": "E5",
                    "midi": 76,
                    "time": 453.5999999999777,
                    "velocity": 0.6062992125984252,
                    "duration": 0.14999999999997726
                },
                {
                    "name": "E4",
                    "midi": 64,
                    "time": 453.89999999997764,
                    "velocity": 0.6299212598425197,
                    "duration": 0.5999999999999659
                },
                {
                    "name": "E5",
                    "midi": 76,
                    "time": 453.89999999997764,
                    "velocity": 0.7637795275590551,
                    "duration": 0.5999999999999659
                },
                {
                    "name": "B4",
                    "midi": 71,
                    "time": 454.19999999997765,
                    "velocity": 0.6220472440944882,
                    "duration": 0.14999999999997726
                },
                {
                    "name": "G#4",
                    "midi": 68,
                    "time": 454.19999999997765,
                    "velocity": 0.5275590551181102,
                    "duration": 0.14999999999997726
                },
                {
                    "name": "G#4",
                    "midi": 68,
                    "time": 454.4999999999776,
                    "velocity": 0.5826771653543307,
                    "duration": 0.5999999999999659
                },
                {
                    "name": "G#5",
                    "midi": 80,
                    "time": 454.4999999999776,
                    "velocity": 0.6929133858267716,
                    "duration": 0.5999999999999659
                },
                {
                    "name": "E5",
                    "midi": 76,
                    "time": 454.7999999999776,
                    "velocity": 0.6220472440944882,
                    "duration": 0.14999999999997726
                },
                {
                    "name": "B4",
                    "midi": 71,
                    "time": 454.7999999999776,
                    "velocity": 0.5275590551181102,
                    "duration": 0.14999999999997726
                },
                {
                    "name": "C#5",
                    "midi": 73,
                    "time": 455.09999999997757,
                    "velocity": 0.7007874015748031,
                    "duration": 0.8999999999999204
                },
                {
                    "name": "C#6",
                    "midi": 85,
                    "time": 455.09999999997757,
                    "velocity": 0.8267716535433071,
                    "duration": 0.8999999999999204
                },
                {
                    "name": "E5",
                    "midi": 76,
                    "time": 455.3999999999776,
                    "velocity": 0.5275590551181102,
                    "duration": 0.14999999999997726
                },
                {
                    "name": "G#5",
                    "midi": 80,
                    "time": 455.3999999999776,
                    "velocity": 0.6220472440944882,
                    "duration": 0.14999999999997726
                },
                {
                    "name": "E5",
                    "midi": 76,
                    "time": 455.69999999997754,
                    "velocity": 0.5275590551181102,
                    "duration": 0.14999999999997726
                },
                {
                    "name": "G#5",
                    "midi": 80,
                    "time": 455.69999999997754,
                    "velocity": 0.6220472440944882,
                    "duration": 0.14999999999997726
                },
                {
                    "name": "B5",
                    "midi": 83,
                    "time": 455.9999999999775,
                    "velocity": 0.7559055118110236,
                    "duration": 0.14999999999997726
                },
                {
                    "name": "B4",
                    "midi": 71,
                    "time": 455.9999999999775,
                    "velocity": 0.6299212598425197,
                    "duration": 0.14999999999997726
                },
                {
                    "name": "A5",
                    "midi": 81,
                    "time": 456.29999999997744,
                    "velocity": 0.7480314960629921,
                    "duration": 0.14999999999997726
                },
                {
                    "name": "A4",
                    "midi": 69,
                    "time": 456.29999999997744,
                    "velocity": 0.6220472440944882,
                    "duration": 0.14999999999997726
                },
                {
                    "name": "E5",
                    "midi": 76,
                    "time": 456.29999999997744,
                    "velocity": 0.6220472440944882,
                    "duration": 0.14999999999997726
                },
                {
                    "name": "C#5",
                    "midi": 73,
                    "time": 456.29999999997744,
                    "velocity": 0.6220472440944882,
                    "duration": 0.14999999999997726
                },
                {
                    "name": "G#5",
                    "midi": 80,
                    "time": 456.5999999999774,
                    "velocity": 0.7244094488188977,
                    "duration": 0.14999999999997726
                },
                {
                    "name": "G#4",
                    "midi": 68,
                    "time": 456.5999999999774,
                    "velocity": 0.6062992125984252,
                    "duration": 0.14999999999997726
                },
                {
                    "name": "F#5",
                    "midi": 78,
                    "time": 456.89999999997735,
                    "velocity": 0.7244094488188977,
                    "duration": 0.14999999999997726
                },
                {
                    "name": "F#4",
                    "midi": 66,
                    "time": 456.89999999997735,
                    "velocity": 0.6062992125984252,
                    "duration": 0.14999999999997726
                },
                {
                    "name": "A4",
                    "midi": 69,
                    "time": 457.1999999999773,
                    "velocity": 0.49606299212598426,
                    "duration": 0.1624999999999659
                },
                {
                    "name": "C#5",
                    "midi": 73,
                    "time": 457.1999999999773,
                    "velocity": 0.5039370078740157,
                    "duration": 0.14999999999997726
                },
                {
                    "name": "E4",
                    "midi": 64,
                    "time": 457.1999999999773,
                    "velocity": 0.47244094488188976,
                    "duration": 0.14999999999997726
                },
                {
                    "name": "E5",
                    "midi": 76,
                    "time": 457.1999999999773,
                    "velocity": 0.6062992125984252,
                    "duration": 0.14999999999997726
                },
                {
                    "name": "C#5",
                    "midi": 73,
                    "time": 457.49999999997726,
                    "velocity": 0.6062992125984252,
                    "duration": 0.6000000000000227
                },
                {
                    "name": "E5",
                    "midi": 76,
                    "time": 457.49999999997726,
                    "velocity": 0.6062992125984252,
                    "duration": 0.6000000000000227
                },
                {
                    "name": "A4",
                    "midi": 69,
                    "time": 457.49999999997726,
                    "velocity": 0.6062992125984252,
                    "duration": 0.6000000000000227
                },
                {
                    "name": "A5",
                    "midi": 81,
                    "time": 457.49999999997726,
                    "velocity": 0.7322834645669292,
                    "duration": 0.6000000000000227
                },
                {
                    "name": "C#6",
                    "midi": 85,
                    "time": 458.0999999999773,
                    "velocity": 0.6614173228346457,
                    "duration": 0.6000000000000227
                },
                {
                    "name": "C#5",
                    "midi": 73,
                    "time": 458.0999999999773,
                    "velocity": 0.5590551181102362,
                    "duration": 0.6000000000000227
                },
                {
                    "name": "A5",
                    "midi": 81,
                    "time": 458.0999999999773,
                    "velocity": 0.5590551181102362,
                    "duration": 0.6000000000000227
                },
                {
                    "name": "E5",
                    "midi": 76,
                    "time": 458.0999999999773,
                    "velocity": 0.5590551181102362,
                    "duration": 0.6000000000000227
                },
                {
                    "name": "D6",
                    "midi": 86,
                    "time": 458.6999999999773,
                    "velocity": 0.44881889763779526,
                    "duration": 0.14999999999997726
                },
                {
                    "name": "G#6",
                    "midi": 92,
                    "time": 458.6999999999773,
                    "velocity": 0.44881889763779526,
                    "duration": 0.14999999999997726
                },
                {
                    "name": "E7",
                    "midi": 100,
                    "time": 458.8499999999773,
                    "velocity": 0.4566929133858268,
                    "duration": 0.14999999999997726
                },
                {
                    "name": "E6",
                    "midi": 88,
                    "time": 458.99999999997726,
                    "velocity": 0.4645669291338583,
                    "duration": 0.14999999999997726
                },
                {
                    "name": "B6",
                    "midi": 95,
                    "time": 458.99999999997726,
                    "velocity": 0.4645669291338583,
                    "duration": 0.14999999999997726
                },
                {
                    "name": "E7",
                    "midi": 100,
                    "time": 459.14999999997724,
                    "velocity": 0.48031496062992124,
                    "duration": 0.14999999999997726
                },
                {
                    "name": "G#6",
                    "midi": 92,
                    "time": 459.2999999999772,
                    "velocity": 0.49606299212598426,
                    "duration": 0.14999999999997726
                },
                {
                    "name": "D6",
                    "midi": 86,
                    "time": 459.2999999999772,
                    "velocity": 0.49606299212598426,
                    "duration": 0.14999999999997726
                },
                {
                    "name": "E7",
                    "midi": 100,
                    "time": 459.4499999999772,
                    "velocity": 0.5039370078740157,
                    "duration": 0.14999999999997726
                },
                {
                    "name": "E6",
                    "midi": 88,
                    "time": 459.5999999999772,
                    "velocity": 0.5196850393700787,
                    "duration": 0.14999999999997726
                },
                {
                    "name": "B6",
                    "midi": 95,
                    "time": 459.5999999999772,
                    "velocity": 0.5196850393700787,
                    "duration": 0.14999999999997726
                },
                {
                    "name": "E7",
                    "midi": 100,
                    "time": 459.74999999997715,
                    "velocity": 0.5275590551181102,
                    "duration": 0.14999999999997726
                },
                {
                    "name": "D6",
                    "midi": 86,
                    "time": 459.8999999999771,
                    "velocity": 0.5433070866141733,
                    "duration": 0.14999999999997726
                },
                {
                    "name": "G#6",
                    "midi": 92,
                    "time": 459.8999999999771,
                    "velocity": 0.5433070866141733,
                    "duration": 0.14999999999997726
                },
                {
                    "name": "E7",
                    "midi": 100,
                    "time": 460.0499999999771,
                    "velocity": 0.5511811023622047,
                    "duration": 0.14999999999997726
                },
                {
                    "name": "B6",
                    "midi": 95,
                    "time": 460.1999999999771,
                    "velocity": 0.5669291338582677,
                    "duration": 0.14999999999997726
                },
                {
                    "name": "E6",
                    "midi": 88,
                    "time": 460.1999999999771,
                    "velocity": 0.5669291338582677,
                    "duration": 0.14999999999997726
                },
                {
                    "name": "E7",
                    "midi": 100,
                    "time": 460.34999999997706,
                    "velocity": 0.5669291338582677,
                    "duration": 0.14999999999997726
                },
                {
                    "name": "G#6",
                    "midi": 92,
                    "time": 460.49999999997704,
                    "velocity": 0.5590551181102362,
                    "duration": 0.14999999999997726
                },
                {
                    "name": "D6",
                    "midi": 86,
                    "time": 460.49999999997704,
                    "velocity": 0.5590551181102362,
                    "duration": 0.14999999999997726
                },
                {
                    "name": "E7",
                    "midi": 100,
                    "time": 460.649999999977,
                    "velocity": 0.5511811023622047,
                    "duration": 0.14999999999997726
                },
                {
                    "name": "B6",
                    "midi": 95,
                    "time": 460.799999999977,
                    "velocity": 0.5511811023622047,
                    "duration": 0.14999999999997726
                },
                {
                    "name": "E6",
                    "midi": 88,
                    "time": 460.799999999977,
                    "velocity": 0.5511811023622047,
                    "duration": 0.14999999999997726
                },
                {
                    "name": "E7",
                    "midi": 100,
                    "time": 460.94999999997697,
                    "velocity": 0.5433070866141733,
                    "duration": 0.14999999999997726
                },
                {
                    "name": "C#6",
                    "midi": 85,
                    "time": 461.09999999997694,
                    "velocity": 0.5826771653543307,
                    "duration": 0.14999999999997726
                },
                {
                    "name": "A6",
                    "midi": 93,
                    "time": 461.09999999997694,
                    "velocity": 0.5826771653543307,
                    "duration": 0.14999999999997726
                },
                {
                    "name": "E7",
                    "midi": 100,
                    "time": 461.2499999999769,
                    "velocity": 0.5275590551181102,
                    "duration": 0.14999999999997726
                },
                {
                    "name": "E6",
                    "midi": 88,
                    "time": 461.3999999999769,
                    "velocity": 0.5511811023622047,
                    "duration": 0.14999999999997726
                },
                {
                    "name": "C#7",
                    "midi": 97,
                    "time": 461.3999999999769,
                    "velocity": 0.5511811023622047,
                    "duration": 0.14999999999997726
                },
                {
                    "name": "E7",
                    "midi": 100,
                    "time": 461.5499999999769,
                    "velocity": 0.5196850393700787,
                    "duration": 0.14999999999997726
                },
                {
                    "name": "C#6",
                    "midi": 85,
                    "time": 461.69999999997685,
                    "velocity": 0.5590551181102362,
                    "duration": 0.14999999999997726
                },
                {
                    "name": "A6",
                    "midi": 93,
                    "time": 461.69999999997685,
                    "velocity": 0.5590551181102362,
                    "duration": 0.14999999999997726
                },
                {
                    "name": "E7",
                    "midi": 100,
                    "time": 461.84999999997683,
                    "velocity": 0.5118110236220472,
                    "duration": 0.14999999999997726
                },
                {
                    "name": "C#7",
                    "midi": 97,
                    "time": 461.9999999999768,
                    "velocity": 0.5590551181102362,
                    "duration": 0.14999999999997726
                },
                {
                    "name": "E6",
                    "midi": 88,
                    "time": 461.9999999999768,
                    "velocity": 0.5590551181102362,
                    "duration": 0.14999999999997726
                },
                {
                    "name": "E7",
                    "midi": 100,
                    "time": 462.1499999999768,
                    "velocity": 0.5039370078740157,
                    "duration": 0.14999999999997726
                },
                {
                    "name": "C#6",
                    "midi": 85,
                    "time": 462.29999999997676,
                    "velocity": 0.5669291338582677,
                    "duration": 0.14999999999997726
                },
                {
                    "name": "A6",
                    "midi": 93,
                    "time": 462.29999999997676,
                    "velocity": 0.5669291338582677,
                    "duration": 0.14999999999997726
                },
                {
                    "name": "E7",
                    "midi": 100,
                    "time": 462.44999999997674,
                    "velocity": 0.49606299212598426,
                    "duration": 0.14999999999997726
                },
                {
                    "name": "C#7",
                    "midi": 97,
                    "time": 462.5999999999767,
                    "velocity": 0.5196850393700787,
                    "duration": 0.14999999999997726
                },
                {
                    "name": "E6",
                    "midi": 88,
                    "time": 462.5999999999767,
                    "velocity": 0.5196850393700787,
                    "duration": 0.14999999999997726
                },
                {
                    "name": "E7",
                    "midi": 100,
                    "time": 462.7499999999767,
                    "velocity": 0.47244094488188976,
                    "duration": 0.14999999999997726
                },
                {
                    "name": "A6",
                    "midi": 93,
                    "time": 462.89999999997667,
                    "velocity": 0.5039370078740157,
                    "duration": 0.14999999999997726
                },
                {
                    "name": "C#6",
                    "midi": 85,
                    "time": 462.89999999997667,
                    "velocity": 0.5039370078740157,
                    "duration": 0.14999999999997726
                },
                {
                    "name": "E7",
                    "midi": 100,
                    "time": 463.04999999997665,
                    "velocity": 0.4645669291338583,
                    "duration": 0.14999999999997726
                },
                {
                    "name": "C#7",
                    "midi": 97,
                    "time": 463.1999999999766,
                    "velocity": 0.5039370078740157,
                    "duration": 0.14999999999997726
                },
                {
                    "name": "E6",
                    "midi": 88,
                    "time": 463.1999999999766,
                    "velocity": 0.5039370078740157,
                    "duration": 0.14999999999997726
                },
                {
                    "name": "E7",
                    "midi": 100,
                    "time": 463.3499999999766,
                    "velocity": 0.4566929133858268,
                    "duration": 0.14999999999997726
                },
                {
                    "name": "D6",
                    "midi": 86,
                    "time": 463.4999999999766,
                    "velocity": 0.49606299212598426,
                    "duration": 0.14999999999997726
                },
                {
                    "name": "G#6",
                    "midi": 92,
                    "time": 463.4999999999766,
                    "velocity": 0.49606299212598426,
                    "duration": 0.14999999999997726
                },
                {
                    "name": "E7",
                    "midi": 100,
                    "time": 463.64999999997656,
                    "velocity": 0.49606299212598426,
                    "duration": 0.14999999999997726
                },
                {
                    "name": "B6",
                    "midi": 95,
                    "time": 463.79999999997654,
                    "velocity": 0.5039370078740157,
                    "duration": 0.14999999999997726
                },
                {
                    "name": "E6",
                    "midi": 88,
                    "time": 463.79999999997654,
                    "velocity": 0.5039370078740157,
                    "duration": 0.14999999999997726
                },
                {
                    "name": "E7",
                    "midi": 100,
                    "time": 463.9499999999765,
                    "velocity": 0.5118110236220472,
                    "duration": 0.14999999999997726
                },
                {
                    "name": "D6",
                    "midi": 86,
                    "time": 464.0999999999765,
                    "velocity": 0.5118110236220472,
                    "duration": 0.14999999999997726
                },
                {
                    "name": "G#6",
                    "midi": 92,
                    "time": 464.0999999999765,
                    "velocity": 0.5118110236220472,
                    "duration": 0.14999999999997726
                },
                {
                    "name": "E7",
                    "midi": 100,
                    "time": 464.24999999997647,
                    "velocity": 0.5196850393700787,
                    "duration": 0.14999999999997726
                },
                {
                    "name": "B6",
                    "midi": 95,
                    "time": 464.39999999997644,
                    "velocity": 0.5275590551181102,
                    "duration": 0.14999999999997726
                },
                {
                    "name": "E6",
                    "midi": 88,
                    "time": 464.39999999997644,
                    "velocity": 0.5275590551181102,
                    "duration": 0.14999999999997726
                },
                {
                    "name": "E7",
                    "midi": 100,
                    "time": 464.5499999999764,
                    "velocity": 0.5433070866141733,
                    "duration": 0.14999999999997726
                },
                {
                    "name": "D6",
                    "midi": 86,
                    "time": 464.6999999999764,
                    "velocity": 0.5433070866141733,
                    "duration": 0.14999999999997726
                },
                {
                    "name": "G#6",
                    "midi": 92,
                    "time": 464.6999999999764,
                    "velocity": 0.5433070866141733,
                    "duration": 0.14999999999997726
                },
                {
                    "name": "E7",
                    "midi": 100,
                    "time": 464.8499999999764,
                    "velocity": 0.5511811023622047,
                    "duration": 0.14999999999997726
                },
                {
                    "name": "E6",
                    "midi": 88,
                    "time": 464.99999999997635,
                    "velocity": 0.5669291338582677,
                    "duration": 0.14999999999997726
                },
                {
                    "name": "B6",
                    "midi": 95,
                    "time": 464.99999999997635,
                    "velocity": 0.5669291338582677,
                    "duration": 0.14999999999997726
                },
                {
                    "name": "E7",
                    "midi": 100,
                    "time": 465.14999999997633,
                    "velocity": 0.5669291338582677,
                    "duration": 0.14999999999997726
                },
                {
                    "name": "G#6",
                    "midi": 92,
                    "time": 465.2999999999763,
                    "velocity": 0.5590551181102362,
                    "duration": 0.14999999999997726
                },
                {
                    "name": "D6",
                    "midi": 86,
                    "time": 465.2999999999763,
                    "velocity": 0.5590551181102362,
                    "duration": 0.14999999999997726
                },
                {
                    "name": "E7",
                    "midi": 100,
                    "time": 465.4499999999763,
                    "velocity": 0.5511811023622047,
                    "duration": 0.14999999999997726
                },
                {
                    "name": "B6",
                    "midi": 95,
                    "time": 465.59999999997626,
                    "velocity": 0.5511811023622047,
                    "duration": 0.14999999999997726
                },
                {
                    "name": "E6",
                    "midi": 88,
                    "time": 465.59999999997626,
                    "velocity": 0.5511811023622047,
                    "duration": 0.14999999999997726
                },
                {
                    "name": "E7",
                    "midi": 100,
                    "time": 465.74999999997624,
                    "velocity": 0.5433070866141733,
                    "duration": 0.14999999999997726
                },
                {
                    "name": "C#6",
                    "midi": 85,
                    "time": 465.8999999999762,
                    "velocity": 0.5826771653543307,
                    "duration": 0.14999999999997726
                },
                {
                    "name": "A6",
                    "midi": 93,
                    "time": 465.8999999999762,
                    "velocity": 0.5826771653543307,
                    "duration": 0.14999999999997726
                },
                {
                    "name": "E7",
                    "midi": 100,
                    "time": 466.0499999999762,
                    "velocity": 0.5275590551181102,
                    "duration": 0.14999999999997726
                },
                {
                    "name": "C#7",
                    "midi": 97,
                    "time": 466.19999999997617,
                    "velocity": 0.5511811023622047,
                    "duration": 0.14999999999997726
                },
                {
                    "name": "E6",
                    "midi": 88,
                    "time": 466.19999999997617,
                    "velocity": 0.5511811023622047,
                    "duration": 0.14999999999997726
                },
                {
                    "name": "E7",
                    "midi": 100,
                    "time": 466.34999999997615,
                    "velocity": 0.5196850393700787,
                    "duration": 0.14999999999997726
                },
                {
                    "name": "C#6",
                    "midi": 85,
                    "time": 466.4999999999761,
                    "velocity": 0.5590551181102362,
                    "duration": 0.14999999999997726
                },
                {
                    "name": "A6",
                    "midi": 93,
                    "time": 466.4999999999761,
                    "velocity": 0.5590551181102362,
                    "duration": 0.14999999999997726
                },
                {
                    "name": "E7",
                    "midi": 100,
                    "time": 466.6499999999761,
                    "velocity": 0.5118110236220472,
                    "duration": 0.14999999999997726
                },
                {
                    "name": "C#7",
                    "midi": 97,
                    "time": 466.7999999999761,
                    "velocity": 0.5590551181102362,
                    "duration": 0.14999999999997726
                },
                {
                    "name": "E6",
                    "midi": 88,
                    "time": 466.7999999999761,
                    "velocity": 0.5590551181102362,
                    "duration": 0.14999999999997726
                },
                {
                    "name": "E7",
                    "midi": 100,
                    "time": 466.94999999997606,
                    "velocity": 0.5039370078740157,
                    "duration": 0.14999999999997726
                },
                {
                    "name": "A6",
                    "midi": 93,
                    "time": 467.09999999997603,
                    "velocity": 0.5669291338582677,
                    "duration": 0.14999999999997726
                },
                {
                    "name": "C#6",
                    "midi": 85,
                    "time": 467.09999999997603,
                    "velocity": 0.5669291338582677,
                    "duration": 0.14999999999997726
                },
                {
                    "name": "E7",
                    "midi": 100,
                    "time": 467.249999999976,
                    "velocity": 0.48031496062992124,
                    "duration": 0.14999999999997726
                },
                {
                    "name": "E6",
                    "midi": 88,
                    "time": 467.399999999976,
                    "velocity": 0.5039370078740157,
                    "duration": 0.14999999999997726
                },
                {
                    "name": "C#7",
                    "midi": 97,
                    "time": 467.399999999976,
                    "velocity": 0.5039370078740157,
                    "duration": 0.14999999999997726
                },
                {
                    "name": "E7",
                    "midi": 100,
                    "time": 467.54999999997597,
                    "velocity": 0.4566929133858268,
                    "duration": 0.14999999999997726
                },
                {
                    "name": "C#6",
                    "midi": 85,
                    "time": 467.69999999997594,
                    "velocity": 0.47244094488188976,
                    "duration": 0.14999999999997726
                },
                {
                    "name": "A6",
                    "midi": 93,
                    "time": 467.69999999997594,
                    "velocity": 0.47244094488188976,
                    "duration": 0.14999999999997726
                },
                {
                    "name": "E7",
                    "midi": 100,
                    "time": 467.8499999999759,
                    "velocity": 0.4251968503937008,
                    "duration": 0.14999999999997726
                },
                {
                    "name": "C#7",
                    "midi": 97,
                    "time": 467.9999999999759,
                    "velocity": 0.4645669291338583,
                    "duration": 0.14999999999997726
                },
                {
                    "name": "E6",
                    "midi": 88,
                    "time": 467.9999999999759,
                    "velocity": 0.4645669291338583,
                    "duration": 0.14999999999997726
                },
                {
                    "name": "E7",
                    "midi": 100,
                    "time": 468.1499999999759,
                    "velocity": 0.4094488188976378,
                    "duration": 0.14999999999997726
                },
                {
                    "name": "D7",
                    "midi": 98,
                    "time": 468.29999999997585,
                    "velocity": 0.5590551181102362,
                    "duration": 0.07499999999998863
                },
                {
                    "name": "F#6",
                    "midi": 90,
                    "time": 468.29999999997585,
                    "velocity": 0.5590551181102362,
                    "duration": 0.07499999999998863
                },
                {
                    "name": "E7",
                    "midi": 100,
                    "time": 468.37499999997584,
                    "velocity": 0.5905511811023622,
                    "duration": 0.07499999999998863
                },
                {
                    "name": "F#7",
                    "midi": 102,
                    "time": 468.44999999997583,
                    "velocity": 0.6220472440944882,
                    "duration": 0.05000000000001137
                },
                {
                    "name": "B6",
                    "midi": 95,
                    "time": 468.8999999999758,
                    "velocity": 0.5590551181102362,
                    "duration": 0.07499999999998863
                },
                {
                    "name": "D6",
                    "midi": 86,
                    "time": 468.8999999999758,
                    "velocity": 0.5590551181102362,
                    "duration": 0.07499999999998863
                },
                {
                    "name": "C#7",
                    "midi": 97,
                    "time": 468.9749999999758,
                    "velocity": 0.5905511811023622,
                    "duration": 0.07499999999998863
                },
                {
                    "name": "D7",
                    "midi": 98,
                    "time": 469.0499999999758,
                    "velocity": 0.6299212598425197,
                    "duration": 0.05000000000001137
                },
                {
                    "name": "B5",
                    "midi": 83,
                    "time": 469.4999999999758,
                    "velocity": 0.5590551181102362,
                    "duration": 0.07499999999998863
                },
                {
                    "name": "G#6",
                    "midi": 92,
                    "time": 469.4999999999758,
                    "velocity": 0.5590551181102362,
                    "duration": 0.07499999999998863
                },
                {
                    "name": "A6",
                    "midi": 93,
                    "time": 469.5749999999758,
                    "velocity": 0.5905511811023622,
                    "duration": 0.07499999999998863
                },
                {
                    "name": "B6",
                    "midi": 95,
                    "time": 469.64999999997576,
                    "velocity": 0.6299212598425197,
                    "duration": 0.05000000000001137
                },
                {
                    "name": "E6",
                    "midi": 88,
                    "time": 470.09999999997575,
                    "velocity": 0.5590551181102362,
                    "duration": 0.07499999999998863
                },
                {
                    "name": "G#5",
                    "midi": 80,
                    "time": 470.09999999997575,
                    "velocity": 0.5590551181102362,
                    "duration": 0.07499999999998863
                },
                {
                    "name": "F#6",
                    "midi": 90,
                    "time": 470.17499999997574,
                    "velocity": 0.5905511811023622,
                    "duration": 0.07499999999998863
                },
                {
                    "name": "G#6",
                    "midi": 92,
                    "time": 470.2499999999757,
                    "velocity": 0.6299212598425197,
                    "duration": 0.05000000000001137
                },
                {
                    "name": "A4",
                    "midi": 69,
                    "time": 470.6999999999757,
                    "velocity": 0.5196850393700787,
                    "duration": 0.08625000000000682
                },
                {
                    "name": "B4",
                    "midi": 71,
                    "time": 470.7862499999757,
                    "velocity": 0.5275590551181102,
                    "duration": 0.08499999999997954
                },
                {
                    "name": "C#5",
                    "midi": 73,
                    "time": 470.8712499999757,
                    "velocity": 0.5354330708661418,
                    "duration": 0.08625000000000682
                },
                {
                    "name": "D5",
                    "midi": 74,
                    "time": 470.9562499999757,
                    "velocity": 0.5433070866141733,
                    "duration": 0.08625000000000682
                },
                {
                    "name": "E5",
                    "midi": 76,
                    "time": 471.0424999999757,
                    "velocity": 0.5511811023622047,
                    "duration": 0.08499999999997954
                },
                {
                    "name": "F#5",
                    "midi": 78,
                    "time": 471.12749999997567,
                    "velocity": 0.5590551181102362,
                    "duration": 0.08625000000000682
                },
                {
                    "name": "G#5",
                    "midi": 80,
                    "time": 471.2137499999757,
                    "velocity": 0.5669291338582677,
                    "duration": 0.08499999999997954
                },
                {
                    "name": "A5",
                    "midi": 81,
                    "time": 471.29874999997566,
                    "velocity": 0.5748031496062992,
                    "duration": 0.08625000000000682
                },
                {
                    "name": "B5",
                    "midi": 83,
                    "time": 471.38374999997563,
                    "velocity": 0.5826771653543307,
                    "duration": 0.08625000000000682
                },
                {
                    "name": "C#6",
                    "midi": 85,
                    "time": 471.46999999997564,
                    "velocity": 0.5905511811023622,
                    "duration": 0.08499999999997954
                },
                {
                    "name": "D6",
                    "midi": 86,
                    "time": 471.5549999999756,
                    "velocity": 0.5984251968503937,
                    "duration": 0.08625000000000682
                },
                {
                    "name": "E6",
                    "midi": 88,
                    "time": 471.6412499999756,
                    "velocity": 0.6062992125984252,
                    "duration": 0.08499999999997954
                },
                {
                    "name": "F#6",
                    "midi": 90,
                    "time": 471.7262499999756,
                    "velocity": 0.6141732283464567,
                    "duration": 0.08625000000000682
                },
                {
                    "name": "G#6",
                    "midi": 92,
                    "time": 471.8112499999756,
                    "velocity": 0.6220472440944882,
                    "duration": 0.08875000000000455
                },
                {
                    "name": "A6",
                    "midi": 93,
                    "time": 471.8999999999756,
                    "velocity": 0.6299212598425197,
                    "duration": 0.08625000000000682
                },
                {
                    "name": "B6",
                    "midi": 95,
                    "time": 471.9862499999756,
                    "velocity": 0.6377952755905512,
                    "duration": 0.08499999999997954
                },
                {
                    "name": "C#7",
                    "midi": 97,
                    "time": 472.0712499999756,
                    "velocity": 0.6456692913385826,
                    "duration": 0.08625000000000682
                },
                {
                    "name": "D7",
                    "midi": 98,
                    "time": 472.15624999997556,
                    "velocity": 0.6614173228346457,
                    "duration": 0.08500000000003638
                },
                {
                    "name": "E7",
                    "midi": 100,
                    "time": 472.2424999999756,
                    "velocity": 0.6692913385826772,
                    "duration": 0.08499999999997954
                },
                {
                    "name": "F#7",
                    "midi": 102,
                    "time": 472.3274999999756,
                    "velocity": 0.6771653543307087,
                    "duration": 0.08625000000000682
                },
                {
                    "name": "G#7",
                    "midi": 104,
                    "time": 472.4137499999756,
                    "velocity": 0.6850393700787402,
                    "duration": 0.08499999999997954
                },
                {
                    "name": "A7",
                    "midi": 105,
                    "time": 472.4999999999756,
                    "velocity": 0.6929133858267716,
                    "duration": 0.14999999999997726
                },
                {
                    "name": "A6",
                    "midi": 93,
                    "time": 472.79999999997557,
                    "velocity": 0.5590551181102362,
                    "duration": 0.14999999999997726
                },
                {
                    "name": "C#7",
                    "midi": 97,
                    "time": 472.79999999997557,
                    "velocity": 0.5590551181102362,
                    "duration": 0.14999999999997726
                },
                {
                    "name": "F#6",
                    "midi": 90,
                    "time": 473.0999999999755,
                    "velocity": 0.5590551181102362,
                    "duration": 0.07499999999998863
                },
                {
                    "name": "D7",
                    "midi": 98,
                    "time": 473.0999999999755,
                    "velocity": 0.5590551181102362,
                    "duration": 0.07499999999998863
                },
                {
                    "name": "E7",
                    "midi": 100,
                    "time": 473.1749999999755,
                    "velocity": 0.5905511811023622,
                    "duration": 0.07499999999998863
                },
                {
                    "name": "F#7",
                    "midi": 102,
                    "time": 473.2499999999755,
                    "velocity": 0.6220472440944882,
                    "duration": 0.05000000000001137
                },
                {
                    "name": "B6",
                    "midi": 95,
                    "time": 473.6999999999755,
                    "velocity": 0.5590551181102362,
                    "duration": 0.07499999999998863
                },
                {
                    "name": "D6",
                    "midi": 86,
                    "time": 473.6999999999755,
                    "velocity": 0.5590551181102362,
                    "duration": 0.07499999999998863
                },
                {
                    "name": "C#7",
                    "midi": 97,
                    "time": 473.7749999999755,
                    "velocity": 0.5905511811023622,
                    "duration": 0.07499999999998863
                },
                {
                    "name": "D7",
                    "midi": 98,
                    "time": 473.84999999997547,
                    "velocity": 0.6299212598425197,
                    "duration": 0.05000000000001137
                },
                {
                    "name": "G#6",
                    "midi": 92,
                    "time": 474.29999999997546,
                    "velocity": 0.5590551181102362,
                    "duration": 0.07499999999998863
                },
                {
                    "name": "B5",
                    "midi": 83,
                    "time": 474.29999999997546,
                    "velocity": 0.5590551181102362,
                    "duration": 0.07499999999998863
                },
                {
                    "name": "A6",
                    "midi": 93,
                    "time": 474.37499999997544,
                    "velocity": 0.5905511811023622,
                    "duration": 0.07499999999998863
                },
                {
                    "name": "B6",
                    "midi": 95,
                    "time": 474.44999999997543,
                    "velocity": 0.6299212598425197,
                    "duration": 0.05000000000001137
                },
                {
                    "name": "E6",
                    "midi": 88,
                    "time": 474.8999999999754,
                    "velocity": 0.5590551181102362,
                    "duration": 0.07499999999998863
                },
                {
                    "name": "G#5",
                    "midi": 80,
                    "time": 474.8999999999754,
                    "velocity": 0.5590551181102362,
                    "duration": 0.07499999999998863
                },
                {
                    "name": "F#6",
                    "midi": 90,
                    "time": 474.9749999999754,
                    "velocity": 0.5905511811023622,
                    "duration": 0.07499999999998863
                },
                {
                    "name": "G#6",
                    "midi": 92,
                    "time": 475.0499999999754,
                    "velocity": 0.6299212598425197,
                    "duration": 0.05000000000001137
                },
                {
                    "name": "A4",
                    "midi": 69,
                    "time": 475.4999999999754,
                    "velocity": 0.5196850393700787,
                    "duration": 0.08625000000000682
                },
                {
                    "name": "B4",
                    "midi": 71,
                    "time": 475.5862499999754,
                    "velocity": 0.5275590551181102,
                    "duration": 0.08499999999997954
                },
                {
                    "name": "C#5",
                    "midi": 73,
                    "time": 475.6712499999754,
                    "velocity": 0.5354330708661418,
                    "duration": 0.08625000000000682
                },
                {
                    "name": "D5",
                    "midi": 74,
                    "time": 475.75624999997535,
                    "velocity": 0.5433070866141733,
                    "duration": 0.08625000000000682
                },
                {
                    "name": "E5",
                    "midi": 76,
                    "time": 475.84249999997536,
                    "velocity": 0.5511811023622047,
                    "duration": 0.08499999999997954
                },
                {
                    "name": "F#5",
                    "midi": 78,
                    "time": 475.92749999997534,
                    "velocity": 0.5590551181102362,
                    "duration": 0.08625000000000682
                },
                {
                    "name": "G#5",
                    "midi": 80,
                    "time": 476.01374999997535,
                    "velocity": 0.5669291338582677,
                    "duration": 0.08499999999997954
                },
                {
                    "name": "A5",
                    "midi": 81,
                    "time": 476.0987499999753,
                    "velocity": 0.5748031496062992,
                    "duration": 0.08625000000000682
                },
                {
                    "name": "B5",
                    "midi": 83,
                    "time": 476.1837499999753,
                    "velocity": 0.5826771653543307,
                    "duration": 0.08625000000000682
                },
                {
                    "name": "C#6",
                    "midi": 85,
                    "time": 476.2699999999753,
                    "velocity": 0.5905511811023622,
                    "duration": 0.08499999999997954
                },
                {
                    "name": "D6",
                    "midi": 86,
                    "time": 476.3549999999753,
                    "velocity": 0.5984251968503937,
                    "duration": 0.08625000000000682
                },
                {
                    "name": "E6",
                    "midi": 88,
                    "time": 476.4412499999753,
                    "velocity": 0.6062992125984252,
                    "duration": 0.08499999999997954
                },
                {
                    "name": "F#6",
                    "midi": 90,
                    "time": 476.5262499999753,
                    "velocity": 0.6141732283464567,
                    "duration": 0.08625000000000682
                },
                {
                    "name": "G#6",
                    "midi": 92,
                    "time": 476.61124999997526,
                    "velocity": 0.6220472440944882,
                    "duration": 0.08875000000000455
                },
                {
                    "name": "A6",
                    "midi": 93,
                    "time": 476.69999999997526,
                    "velocity": 0.6299212598425197,
                    "duration": 0.08625000000000682
                },
                {
                    "name": "B6",
                    "midi": 95,
                    "time": 476.78624999997527,
                    "velocity": 0.6377952755905512,
                    "duration": 0.08499999999997954
                },
                {
                    "name": "C#7",
                    "midi": 97,
                    "time": 476.87124999997525,
                    "velocity": 0.6456692913385826,
                    "duration": 0.08625000000000682
                },
                {
                    "name": "D7",
                    "midi": 98,
                    "time": 476.9562499999752,
                    "velocity": 0.6614173228346457,
                    "duration": 0.08500000000003638
                },
                {
                    "name": "E7",
                    "midi": 100,
                    "time": 477.0424999999753,
                    "velocity": 0.6692913385826772,
                    "duration": 0.08499999999997954
                },
                {
                    "name": "F#7",
                    "midi": 102,
                    "time": 477.12749999997527,
                    "velocity": 0.6771653543307087,
                    "duration": 0.08625000000000682
                },
                {
                    "name": "G#7",
                    "midi": 104,
                    "time": 477.2137499999753,
                    "velocity": 0.6850393700787402,
                    "duration": 0.08499999999997954
                },
                {
                    "name": "A7",
                    "midi": 105,
                    "time": 477.2999999999753,
                    "velocity": 0.6929133858267716,
                    "duration": 0.14999999999997726
                },
                {
                    "name": "D#6",
                    "midi": 87,
                    "time": 477.89999999997525,
                    "velocity": 0.5590551181102362,
                    "duration": 0.07499999999998863
                },
                {
                    "name": "B6",
                    "midi": 95,
                    "time": 477.89999999997525,
                    "velocity": 0.5590551181102362,
                    "duration": 0.07499999999998863
                },
                {
                    "name": "C#7",
                    "midi": 97,
                    "time": 477.97499999997524,
                    "velocity": 0.5905511811023622,
                    "duration": 0.07499999999998863
                },
                {
                    "name": "D#7",
                    "midi": 99,
                    "time": 478.0499999999752,
                    "velocity": 0.6220472440944882,
                    "duration": 0.05000000000001137
                },
                {
                    "name": "B5",
                    "midi": 83,
                    "time": 478.4999999999752,
                    "velocity": 0.5590551181102362,
                    "duration": 0.07499999999998863
                },
                {
                    "name": "G#6",
                    "midi": 92,
                    "time": 478.4999999999752,
                    "velocity": 0.5590551181102362,
                    "duration": 0.07499999999998863
                },
                {
                    "name": "A#6",
                    "midi": 94,
                    "time": 478.5749999999752,
                    "velocity": 0.5905511811023622,
                    "duration": 0.07499999999998863
                },
                {
                    "name": "B6",
                    "midi": 95,
                    "time": 478.6499999999752,
                    "velocity": 0.6299212598425197,
                    "duration": 0.05000000000001137
                },
                {
                    "name": "G#5",
                    "midi": 80,
                    "time": 479.0999999999752,
                    "velocity": 0.5590551181102362,
                    "duration": 0.07499999999998863
                },
                {
                    "name": "F6",
                    "midi": 89,
                    "time": 479.0999999999752,
                    "velocity": 0.5590551181102362,
                    "duration": 0.07499999999998863
                },
                {
                    "name": "F#6",
                    "midi": 90,
                    "time": 479.17499999997517,
                    "velocity": 0.5905511811023622,
                    "duration": 0.07499999999998863
                },
                {
                    "name": "G#6",
                    "midi": 92,
                    "time": 479.24999999997516,
                    "velocity": 0.6299212598425197,
                    "duration": 0.05000000000001137
                },
                {
                    "name": "C#6",
                    "midi": 85,
                    "time": 479.69999999997515,
                    "velocity": 0.5590551181102362,
                    "duration": 0.07499999999998863
                },
                {
                    "name": "F5",
                    "midi": 77,
                    "time": 479.69999999997515,
                    "velocity": 0.5590551181102362,
                    "duration": 0.07499999999998863
                },
                {
                    "name": "D#6",
                    "midi": 87,
                    "time": 479.77499999997514,
                    "velocity": 0.5905511811023622,
                    "duration": 0.07499999999998863
                },
                {
                    "name": "F6",
                    "midi": 89,
                    "time": 479.8499999999751,
                    "velocity": 0.6299212598425197,
                    "duration": 0.05000000000001137
                },
                {
                    "name": "F#4",
                    "midi": 66,
                    "time": 480.2999999999751,
                    "velocity": 0.5196850393700787,
                    "duration": 0.08625000000000682
                },
                {
                    "name": "G#4",
                    "midi": 68,
                    "time": 480.3862499999751,
                    "velocity": 0.5275590551181102,
                    "duration": 0.08499999999997954
                },
                {
                    "name": "A#4",
                    "midi": 70,
                    "time": 480.4712499999751,
                    "velocity": 0.5354330708661418,
                    "duration": 0.08625000000000682
                },
                {
                    "name": "B4",
                    "midi": 71,
                    "time": 480.5562499999751,
                    "velocity": 0.5433070866141733,
                    "duration": 0.08625000000000682
                },
                {
                    "name": "C#5",
                    "midi": 73,
                    "time": 480.6424999999751,
                    "velocity": 0.5511811023622047,
                    "duration": 0.08499999999997954
                },
                {
                    "name": "D#5",
                    "midi": 75,
                    "time": 480.72749999997507,
                    "velocity": 0.5590551181102362,
                    "duration": 0.08625000000000682
                },
                {
                    "name": "F5",
                    "midi": 77,
                    "time": 480.8137499999751,
                    "velocity": 0.5669291338582677,
                    "duration": 0.08499999999997954
                },
                {
                    "name": "F#5",
                    "midi": 78,
                    "time": 480.89874999997505,
                    "velocity": 0.5748031496062992,
                    "duration": 0.08625000000000682
                },
                {
                    "name": "G#5",
                    "midi": 80,
                    "time": 480.98374999997503,
                    "velocity": 0.5826771653543307,
                    "duration": 0.08625000000000682
                },
                {
                    "name": "A#5",
                    "midi": 82,
                    "time": 481.06999999997504,
                    "velocity": 0.5905511811023622,
                    "duration": 0.08499999999997954
                },
                {
                    "name": "B5",
                    "midi": 83,
                    "time": 481.154999999975,
                    "velocity": 0.5984251968503937,
                    "duration": 0.08625000000000682
                },
                {
                    "name": "C#6",
                    "midi": 85,
                    "time": 481.241249999975,
                    "velocity": 0.6062992125984252,
                    "duration": 0.08499999999997954
                },
                {
                    "name": "D#6",
                    "midi": 87,
                    "time": 481.326249999975,
                    "velocity": 0.6141732283464567,
                    "duration": 0.08625000000000682
                },
                {
                    "name": "F6",
                    "midi": 89,
                    "time": 481.411249999975,
                    "velocity": 0.6220472440944882,
                    "duration": 0.08875000000000455
                },
                {
                    "name": "F#6",
                    "midi": 90,
                    "time": 481.499999999975,
                    "velocity": 0.6299212598425197,
                    "duration": 0.08625000000000682
                },
                {
                    "name": "G#6",
                    "midi": 92,
                    "time": 481.586249999975,
                    "velocity": 0.6377952755905512,
                    "duration": 0.08499999999997954
                },
                {
                    "name": "A#6",
                    "midi": 94,
                    "time": 481.671249999975,
                    "velocity": 0.6456692913385826,
                    "duration": 0.08625000000000682
                },
                {
                    "name": "B6",
                    "midi": 95,
                    "time": 481.75624999997495,
                    "velocity": 0.6614173228346457,
                    "duration": 0.08500000000003638
                },
                {
                    "name": "C#7",
                    "midi": 97,
                    "time": 481.842499999975,
                    "velocity": 0.6692913385826772,
                    "duration": 0.08499999999997954
                },
                {
                    "name": "D#7",
                    "midi": 99,
                    "time": 481.927499999975,
                    "velocity": 0.6771653543307087,
                    "duration": 0.08625000000000682
                },
                {
                    "name": "F7",
                    "midi": 101,
                    "time": 482.013749999975,
                    "velocity": 0.6850393700787402,
                    "duration": 0.08499999999997954
                },
                {
                    "name": "F#7",
                    "midi": 102,
                    "time": 482.099999999975,
                    "velocity": 0.6929133858267716,
                    "duration": 0.14999999999997726
                },
                {
                    "name": "F#6",
                    "midi": 90,
                    "time": 482.39999999997497,
                    "velocity": 0.5590551181102362,
                    "duration": 0.14999999999997726
                },
                {
                    "name": "A#6",
                    "midi": 94,
                    "time": 482.39999999997497,
                    "velocity": 0.5590551181102362,
                    "duration": 0.14999999999997726
                },
                {
                    "name": "B6",
                    "midi": 95,
                    "time": 482.6999999999749,
                    "velocity": 0.5590551181102362,
                    "duration": 0.07499999999998863
                },
                {
                    "name": "D#6",
                    "midi": 87,
                    "time": 482.6999999999749,
                    "velocity": 0.5590551181102362,
                    "duration": 0.07499999999998863
                },
                {
                    "name": "C#7",
                    "midi": 97,
                    "time": 482.7749999999749,
                    "velocity": 0.5905511811023622,
                    "duration": 0.07499999999998863
                },
                {
                    "name": "D#7",
                    "midi": 99,
                    "time": 482.8499999999749,
                    "velocity": 0.6220472440944882,
                    "duration": 0.05000000000001137
                },
                {
                    "name": "B5",
                    "midi": 83,
                    "time": 483.2999999999749,
                    "velocity": 0.5590551181102362,
                    "duration": 0.07499999999998863
                },
                {
                    "name": "G#6",
                    "midi": 92,
                    "time": 483.2999999999749,
                    "velocity": 0.5590551181102362,
                    "duration": 0.07499999999998863
                },
                {
                    "name": "A#6",
                    "midi": 94,
                    "time": 483.3749999999749,
                    "velocity": 0.5905511811023622,
                    "duration": 0.07499999999998863
                },
                {
                    "name": "B6",
                    "midi": 95,
                    "time": 483.44999999997486,
                    "velocity": 0.6299212598425197,
                    "duration": 0.05000000000001137
                },
                {
                    "name": "F6",
                    "midi": 89,
                    "time": 483.89999999997485,
                    "velocity": 0.5590551181102362,
                    "duration": 0.07499999999998863
                },
                {
                    "name": "G#5",
                    "midi": 80,
                    "time": 483.89999999997485,
                    "velocity": 0.5590551181102362,
                    "duration": 0.07499999999998863
                },
                {
                    "name": "F#6",
                    "midi": 90,
                    "time": 483.97499999997484,
                    "velocity": 0.5905511811023622,
                    "duration": 0.07499999999998863
                },
                {
                    "name": "G#6",
                    "midi": 92,
                    "time": 484.04999999997483,
                    "velocity": 0.6299212598425197,
                    "duration": 0.05000000000001137
                },
                {
                    "name": "C#6",
                    "midi": 85,
                    "time": 484.4999999999748,
                    "velocity": 0.5590551181102362,
                    "duration": 0.07499999999998863
                },
                {
                    "name": "F5",
                    "midi": 77,
                    "time": 484.4999999999748,
                    "velocity": 0.5590551181102362,
                    "duration": 0.07499999999998863
                },
                {
                    "name": "D#6",
                    "midi": 87,
                    "time": 484.5749999999748,
                    "velocity": 0.5905511811023622,
                    "duration": 0.07499999999998863
                },
                {
                    "name": "F6",
                    "midi": 89,
                    "time": 484.6499999999748,
                    "velocity": 0.6299212598425197,
                    "duration": 0.05000000000001137
                },
                {
                    "name": "F#4",
                    "midi": 66,
                    "time": 485.0999999999748,
                    "velocity": 0.5196850393700787,
                    "duration": 0.08625000000000682
                },
                {
                    "name": "G#4",
                    "midi": 68,
                    "time": 485.1862499999748,
                    "velocity": 0.5275590551181102,
                    "duration": 0.08499999999997954
                },
                {
                    "name": "A#4",
                    "midi": 70,
                    "time": 485.27124999997477,
                    "velocity": 0.5354330708661418,
                    "duration": 0.08625000000000682
                },
                {
                    "name": "B4",
                    "midi": 71,
                    "time": 485.35624999997475,
                    "velocity": 0.5433070866141733,
                    "duration": 0.08625000000000682
                },
                {
                    "name": "C#5",
                    "midi": 73,
                    "time": 485.44249999997476,
                    "velocity": 0.5511811023622047,
                    "duration": 0.08499999999997954
                },
                {
                    "name": "D#5",
                    "midi": 75,
                    "time": 485.52749999997474,
                    "velocity": 0.5590551181102362,
                    "duration": 0.08625000000000682
                },
                {
                    "name": "F5",
                    "midi": 77,
                    "time": 485.61374999997474,
                    "velocity": 0.5669291338582677,
                    "duration": 0.08499999999997954
                },
                {
                    "name": "F#5",
                    "midi": 78,
                    "time": 485.6987499999747,
                    "velocity": 0.5748031496062992,
                    "duration": 0.08625000000000682
                },
                {
                    "name": "G#5",
                    "midi": 80,
                    "time": 485.7837499999747,
                    "velocity": 0.5826771653543307,
                    "duration": 0.08625000000000682
                },
                {
                    "name": "A#5",
                    "midi": 82,
                    "time": 485.8699999999747,
                    "velocity": 0.5905511811023622,
                    "duration": 0.08499999999997954
                },
                {
                    "name": "B5",
                    "midi": 83,
                    "time": 485.9549999999747,
                    "velocity": 0.5984251968503937,
                    "duration": 0.08625000000000682
                },
                {
                    "name": "C#6",
                    "midi": 85,
                    "time": 486.0412499999747,
                    "velocity": 0.6062992125984252,
                    "duration": 0.08499999999997954
                },
                {
                    "name": "D#6",
                    "midi": 87,
                    "time": 486.1262499999747,
                    "velocity": 0.6141732283464567,
                    "duration": 0.08625000000000682
                },
                {
                    "name": "F6",
                    "midi": 89,
                    "time": 486.21124999997465,
                    "velocity": 0.6220472440944882,
                    "duration": 0.08875000000000455
                },
                {
                    "name": "F#6",
                    "midi": 90,
                    "time": 486.29999999997466,
                    "velocity": 0.6299212598425197,
                    "duration": 0.12000000000000455
                },
                {
                    "name": "G#6",
                    "midi": 92,
                    "time": 486.41999999997466,
                    "velocity": 0.6377952755905512,
                    "duration": 0.12000000000000455
                },
                {
                    "name": "A#6",
                    "midi": 94,
                    "time": 486.53999999997467,
                    "velocity": 0.6456692913385826,
                    "duration": 0.12000000000000455
                },
                {
                    "name": "B6",
                    "midi": 95,
                    "time": 486.6599999999747,
                    "velocity": 0.6614173228346457,
                    "duration": 0.12000000000000455
                },
                {
                    "name": "C#7",
                    "midi": 97,
                    "time": 486.7799999999747,
                    "velocity": 0.6692913385826772,
                    "duration": 0.12000000000000455
                },
                {
                    "name": "D#7",
                    "midi": 99,
                    "time": 486.8999999999747,
                    "velocity": 0.6929133858267716,
                    "duration": 0.12000000000000455
                },
                {
                    "name": "C#7",
                    "midi": 97,
                    "time": 487.0199999999747,
                    "velocity": 0.6771653543307087,
                    "duration": 0.12000000000000455
                },
                {
                    "name": "C7",
                    "midi": 96,
                    "time": 487.1399999999747,
                    "velocity": 0.6299212598425197,
                    "duration": 0.12000000000000455
                },
                {
                    "name": "C#7",
                    "midi": 97,
                    "time": 487.2599999999747,
                    "velocity": 0.6771653543307087,
                    "duration": 0.12000000000000455
                },
                {
                    "name": "D#7",
                    "midi": 99,
                    "time": 487.3799999999747,
                    "velocity": 0.6929133858267716,
                    "duration": 0.12000000000000455
                },
                {
                    "name": "F7",
                    "midi": 101,
                    "time": 487.4999999999747,
                    "velocity": 0.7007874015748031,
                    "duration": 0.14999999999997726
                },
                {
                    "name": "C#7",
                    "midi": 97,
                    "time": 487.6499999999747,
                    "velocity": 0.5275590551181102,
                    "duration": 0.11250000000001137
                },
                {
                    "name": "C#7",
                    "midi": 97,
                    "time": 487.7999999999747,
                    "velocity": 0.6535433070866141,
                    "duration": 0.14125000000001364
                },
                {
                    "name": "C#7",
                    "midi": 97,
                    "time": 487.94999999997475,
                    "velocity": 0.5039370078740157,
                    "duration": 0.11250000000001137
                },
                {
                    "name": "F6",
                    "midi": 89,
                    "time": 488.0999999999748,
                    "velocity": 0.6456692913385826,
                    "duration": 0.14999999999997726
                },
                {
                    "name": "C#7",
                    "midi": 97,
                    "time": 488.24999999997476,
                    "velocity": 0.5196850393700787,
                    "duration": 0.11250000000001137
                },
                {
                    "name": "C#7",
                    "midi": 97,
                    "time": 488.3999999999748,
                    "velocity": 0.5984251968503937,
                    "duration": 0.14125000000001364
                },
                {
                    "name": "C#7",
                    "midi": 97,
                    "time": 488.54999999997483,
                    "velocity": 0.47244094488188976,
                    "duration": 0.11250000000001137
                },
                {
                    "name": "F7",
                    "midi": 101,
                    "time": 488.69999999997486,
                    "velocity": 0.6299212598425197,
                    "duration": 0.14999999999997726
                },
                {
                    "name": "C#7",
                    "midi": 97,
                    "time": 488.84999999997484,
                    "velocity": 0.48031496062992124,
                    "duration": 0.11250000000001137
                },
                {
                    "name": "C#7",
                    "midi": 97,
                    "time": 488.9999999999749,
                    "velocity": 0.6141732283464567,
                    "duration": 0.14125000000001364
                },
                {
                    "name": "C#7",
                    "midi": 97,
                    "time": 489.1499999999749,
                    "velocity": 0.47244094488188976,
                    "duration": 0.11250000000001137
                },
                {
                    "name": "F6",
                    "midi": 89,
                    "time": 489.29999999997494,
                    "velocity": 0.6062992125984252,
                    "duration": 0.14999999999997726
                },
                {
                    "name": "C#7",
                    "midi": 97,
                    "time": 489.4499999999749,
                    "velocity": 0.49606299212598426,
                    "duration": 0.11250000000001137
                },
                {
                    "name": "C#7",
                    "midi": 97,
                    "time": 489.59999999997495,
                    "velocity": 0.6062992125984252,
                    "duration": 0.14125000000001364
                },
                {
                    "name": "C#7",
                    "midi": 97,
                    "time": 489.749999999975,
                    "velocity": 0.49606299212598426,
                    "duration": 0.11250000000001137
                },
                {
                    "name": "F#7",
                    "midi": 102,
                    "time": 489.899999999975,
                    "velocity": 0.6692913385826772,
                    "duration": 0.14999999999997726
                },
                {
                    "name": "C#7",
                    "midi": 97,
                    "time": 490.049999999975,
                    "velocity": 0.5039370078740157,
                    "duration": 0.11250000000001137
                },
                {
                    "name": "C#7",
                    "midi": 97,
                    "time": 490.19999999997503,
                    "velocity": 0.6535433070866141,
                    "duration": 0.14125000000001364
                },
                {
                    "name": "C#7",
                    "midi": 97,
                    "time": 490.34999999997507,
                    "velocity": 0.5039370078740157,
                    "duration": 0.11250000000001137
                },
                {
                    "name": "F#6",
                    "midi": 90,
                    "time": 490.4999999999751,
                    "velocity": 0.6456692913385826,
                    "duration": 0.14999999999997726
                },
                {
                    "name": "C#7",
                    "midi": 97,
                    "time": 490.6499999999751,
                    "velocity": 0.5196850393700787,
                    "duration": 0.11250000000001137
                },
                {
                    "name": "C#7",
                    "midi": 97,
                    "time": 490.7999999999751,
                    "velocity": 0.5984251968503937,
                    "duration": 0.14125000000001364
                },
                {
                    "name": "C#7",
                    "midi": 97,
                    "time": 490.94999999997515,
                    "velocity": 0.47244094488188976,
                    "duration": 0.11250000000001137
                },
                {
                    "name": "F#7",
                    "midi": 102,
                    "time": 491.0999999999752,
                    "velocity": 0.6299212598425197,
                    "duration": 0.14999999999997726
                },
                {
                    "name": "C#7",
                    "midi": 97,
                    "time": 491.24999999997516,
                    "velocity": 0.48031496062992124,
                    "duration": 0.11250000000001137
                },
                {
                    "name": "C#7",
                    "midi": 97,
                    "time": 491.3999999999752,
                    "velocity": 0.6141732283464567,
                    "duration": 0.14125000000001364
                },
                {
                    "name": "C#7",
                    "midi": 97,
                    "time": 491.5499999999752,
                    "velocity": 0.47244094488188976,
                    "duration": 0.11250000000001137
                },
                {
                    "name": "F#6",
                    "midi": 90,
                    "time": 491.69999999997526,
                    "velocity": 0.6062992125984252,
                    "duration": 0.14999999999997726
                },
                {
                    "name": "C#7",
                    "midi": 97,
                    "time": 491.84999999997524,
                    "velocity": 0.49606299212598426,
                    "duration": 0.11250000000001137
                },
                {
                    "name": "C#7",
                    "midi": 97,
                    "time": 491.9999999999753,
                    "velocity": 0.6062992125984252,
                    "duration": 0.14125000000001364
                },
                {
                    "name": "C#7",
                    "midi": 97,
                    "time": 492.1499999999753,
                    "velocity": 0.49606299212598426,
                    "duration": 0.11250000000001137
                },
                {
                    "name": "F7",
                    "midi": 101,
                    "time": 492.29999999997534,
                    "velocity": 0.6850393700787402,
                    "duration": 0.14999999999997726
                },
                {
                    "name": "C#7",
                    "midi": 97,
                    "time": 492.4499999999753,
                    "velocity": 0.5275590551181102,
                    "duration": 0.11250000000001137
                },
                {
                    "name": "C#7",
                    "midi": 97,
                    "time": 492.59999999997535,
                    "velocity": 0.6535433070866141,
                    "duration": 0.14125000000001364
                },
                {
                    "name": "C#7",
                    "midi": 97,
                    "time": 492.7499999999754,
                    "velocity": 0.5039370078740157,
                    "duration": 0.11250000000001137
                },
                {
                    "name": "F6",
                    "midi": 89,
                    "time": 492.8999999999754,
                    "velocity": 0.6456692913385826,
                    "duration": 0.14999999999997726
                },
                {
                    "name": "C#7",
                    "midi": 97,
                    "time": 493.0499999999754,
                    "velocity": 0.5196850393700787,
                    "duration": 0.11250000000001137
                },
                {
                    "name": "C#7",
                    "midi": 97,
                    "time": 493.19999999997543,
                    "velocity": 0.5984251968503937,
                    "duration": 0.14125000000001364
                },
                {
                    "name": "C#7",
                    "midi": 97,
                    "time": 493.34999999997547,
                    "velocity": 0.47244094488188976,
                    "duration": 0.11250000000001137
                },
                {
                    "name": "F7",
                    "midi": 101,
                    "time": 493.4999999999755,
                    "velocity": 0.6299212598425197,
                    "duration": 0.14999999999997726
                },
                {
                    "name": "C#7",
                    "midi": 97,
                    "time": 493.6499999999755,
                    "velocity": 0.48031496062992124,
                    "duration": 0.11250000000001137
                },
                {
                    "name": "C#7",
                    "midi": 97,
                    "time": 493.7999999999755,
                    "velocity": 0.6141732283464567,
                    "duration": 0.14125000000001364
                },
                {
                    "name": "C#7",
                    "midi": 97,
                    "time": 493.94999999997555,
                    "velocity": 0.47244094488188976,
                    "duration": 0.11250000000001137
                },
                {
                    "name": "F6",
                    "midi": 89,
                    "time": 494.0999999999756,
                    "velocity": 0.6062992125984252,
                    "duration": 0.14999999999997726
                },
                {
                    "name": "C#7",
                    "midi": 97,
                    "time": 494.24999999997556,
                    "velocity": 0.49606299212598426,
                    "duration": 0.11250000000001137
                },
                {
                    "name": "C#7",
                    "midi": 97,
                    "time": 494.3999999999756,
                    "velocity": 0.6062992125984252,
                    "duration": 0.14125000000001364
                },
                {
                    "name": "C#7",
                    "midi": 97,
                    "time": 494.5499999999756,
                    "velocity": 0.49606299212598426,
                    "duration": 0.11250000000001137
                },
                {
                    "name": "F#7",
                    "midi": 102,
                    "time": 494.69999999997566,
                    "velocity": 0.6850393700787402,
                    "duration": 0.14999999999997726
                },
                {
                    "name": "C#7",
                    "midi": 97,
                    "time": 494.84999999997564,
                    "velocity": 0.5275590551181102,
                    "duration": 0.11250000000001137
                },
                {
                    "name": "C#7",
                    "midi": 97,
                    "time": 494.99999999997567,
                    "velocity": 0.6535433070866141,
                    "duration": 0.14125000000001364
                },
                {
                    "name": "C#7",
                    "midi": 97,
                    "time": 495.1499999999757,
                    "velocity": 0.5039370078740157,
                    "duration": 0.11250000000001137
                },
                {
                    "name": "F#6",
                    "midi": 90,
                    "time": 495.29999999997574,
                    "velocity": 0.6456692913385826,
                    "duration": 0.14999999999997726
                },
                {
                    "name": "C#7",
                    "midi": 97,
                    "time": 495.4499999999757,
                    "velocity": 0.5196850393700787,
                    "duration": 0.11250000000001137
                },
                {
                    "name": "C#7",
                    "midi": 97,
                    "time": 495.59999999997575,
                    "velocity": 0.5984251968503937,
                    "duration": 0.14125000000001364
                },
                {
                    "name": "C#7",
                    "midi": 97,
                    "time": 495.7499999999758,
                    "velocity": 0.47244094488188976,
                    "duration": 0.11250000000001137
                },
                {
                    "name": "F#7",
                    "midi": 102,
                    "time": 495.8999999999758,
                    "velocity": 0.6299212598425197,
                    "duration": 0.14999999999997726
                },
                {
                    "name": "C#7",
                    "midi": 97,
                    "time": 496.0499999999758,
                    "velocity": 0.48031496062992124,
                    "duration": 0.11250000000001137
                },
                {
                    "name": "C#7",
                    "midi": 97,
                    "time": 496.19999999997583,
                    "velocity": 0.6141732283464567,
                    "duration": 0.14125000000001364
                },
                {
                    "name": "C#7",
                    "midi": 97,
                    "time": 496.34999999997586,
                    "velocity": 0.47244094488188976,
                    "duration": 0.11250000000001137
                },
                {
                    "name": "F#6",
                    "midi": 90,
                    "time": 496.4999999999759,
                    "velocity": 0.6062992125984252,
                    "duration": 0.14999999999997726
                },
                {
                    "name": "C#7",
                    "midi": 97,
                    "time": 496.6499999999759,
                    "velocity": 0.49606299212598426,
                    "duration": 0.11250000000001137
                },
                {
                    "name": "C#7",
                    "midi": 97,
                    "time": 496.7999999999759,
                    "velocity": 0.6062992125984252,
                    "duration": 0.14125000000001364
                },
                {
                    "name": "C#7",
                    "midi": 97,
                    "time": 496.94999999997594,
                    "velocity": 0.49606299212598426,
                    "duration": 0.11250000000001137
                },
                {
                    "name": "F7",
                    "midi": 101,
                    "time": 497.099999999976,
                    "velocity": 0.7007874015748031,
                    "duration": 0.14999999999997726
                },
                {
                    "name": "C#7",
                    "midi": 97,
                    "time": 497.24999999997596,
                    "velocity": 0.5275590551181102,
                    "duration": 0.11250000000001137
                },
                {
                    "name": "C#7",
                    "midi": 97,
                    "time": 497.399999999976,
                    "velocity": 0.6535433070866141,
                    "duration": 0.14125000000001364
                },
                {
                    "name": "C#7",
                    "midi": 97,
                    "time": 497.549999999976,
                    "velocity": 0.5039370078740157,
                    "duration": 0.11250000000001137
                },
                {
                    "name": "F6",
                    "midi": 89,
                    "time": 497.69999999997606,
                    "velocity": 0.6456692913385826,
                    "duration": 0.14999999999997726
                },
                {
                    "name": "C#7",
                    "midi": 97,
                    "time": 497.84999999997603,
                    "velocity": 0.5196850393700787,
                    "duration": 0.11250000000001137
                },
                {
                    "name": "C#7",
                    "midi": 97,
                    "time": 497.99999999997607,
                    "velocity": 0.5984251968503937,
                    "duration": 0.14125000000001364
                },
                {
                    "name": "C#7",
                    "midi": 97,
                    "time": 498.1499999999761,
                    "velocity": 0.47244094488188976,
                    "duration": 0.11250000000001137
                },
                {
                    "name": "F7",
                    "midi": 101,
                    "time": 498.29999999997614,
                    "velocity": 0.6299212598425197,
                    "duration": 0.14999999999997726
                },
                {
                    "name": "C#7",
                    "midi": 97,
                    "time": 498.4499999999761,
                    "velocity": 0.48031496062992124,
                    "duration": 0.11250000000001137
                },
                {
                    "name": "C#7",
                    "midi": 97,
                    "time": 498.59999999997615,
                    "velocity": 0.6141732283464567,
                    "duration": 0.14125000000001364
                },
                {
                    "name": "C#7",
                    "midi": 97,
                    "time": 498.7499999999762,
                    "velocity": 0.47244094488188976,
                    "duration": 0.11250000000001137
                },
                {
                    "name": "F6",
                    "midi": 89,
                    "time": 498.8999999999762,
                    "velocity": 0.6062992125984252,
                    "duration": 0.14999999999997726
                },
                {
                    "name": "C#7",
                    "midi": 97,
                    "time": 499.0499999999762,
                    "velocity": 0.49606299212598426,
                    "duration": 0.11250000000001137
                },
                {
                    "name": "C#7",
                    "midi": 97,
                    "time": 499.1999999999762,
                    "velocity": 0.6062992125984252,
                    "duration": 0.14125000000001364
                },
                {
                    "name": "C#7",
                    "midi": 97,
                    "time": 499.34999999997626,
                    "velocity": 0.49606299212598426,
                    "duration": 0.11250000000001137
                },
                {
                    "name": "F7",
                    "midi": 101,
                    "time": 499.4999999999763,
                    "velocity": 0.5984251968503937,
                    "duration": 0.14999999999997726
                },
                {
                    "name": "C#7",
                    "midi": 97,
                    "time": 499.6499999999763,
                    "velocity": 0.44881889763779526,
                    "duration": 0.11250000000001137
                },
                {
                    "name": "C#7",
                    "midi": 97,
                    "time": 499.7999999999763,
                    "velocity": 0.5826771653543307,
                    "duration": 0.14125000000001364
                },
                {
                    "name": "C#7",
                    "midi": 97,
                    "time": 499.94999999997634,
                    "velocity": 0.44881889763779526,
                    "duration": 0.11250000000001137
                },
                {
                    "name": "F6",
                    "midi": 89,
                    "time": 500.0999999999764,
                    "velocity": 0.5748031496062992,
                    "duration": 0.14999999999997726
                },
                {
                    "name": "C#7",
                    "midi": 97,
                    "time": 500.24999999997635,
                    "velocity": 0.4645669291338583,
                    "duration": 0.11250000000001137
                },
                {
                    "name": "C#7",
                    "midi": 97,
                    "time": 500.3999999999764,
                    "velocity": 0.5354330708661418,
                    "duration": 0.14125000000001364
                },
                {
                    "name": "C#7",
                    "midi": 97,
                    "time": 500.5499999999764,
                    "velocity": 0.4251968503937008,
                    "duration": 0.11250000000001137
                },
                {
                    "name": "F7",
                    "midi": 101,
                    "time": 500.69999999997646,
                    "velocity": 0.5669291338582677,
                    "duration": 0.14999999999997726
                },
                {
                    "name": "C#7",
                    "midi": 97,
                    "time": 500.84999999997643,
                    "velocity": 0.4251968503937008,
                    "duration": 0.11250000000001137
                },
                {
                    "name": "C#7",
                    "midi": 97,
                    "time": 500.99999999997647,
                    "velocity": 0.5511811023622047,
                    "duration": 0.14125000000001364
                },
                {
                    "name": "C#7",
                    "midi": 97,
                    "time": 501.1499999999765,
                    "velocity": 0.4251968503937008,
                    "duration": 0.11250000000001137
                },
                {
                    "name": "F6",
                    "midi": 89,
                    "time": 501.29999999997654,
                    "velocity": 0.5433070866141733,
                    "duration": 0.14999999999997726
                },
                {
                    "name": "C#7",
                    "midi": 97,
                    "time": 501.4499999999765,
                    "velocity": 0.4409448818897638,
                    "duration": 0.11250000000001137
                },
                {
                    "name": "C#7",
                    "midi": 97,
                    "time": 501.59999999997655,
                    "velocity": 0.5433070866141733,
                    "duration": 0.14125000000001364
                },
                {
                    "name": "C#7",
                    "midi": 97,
                    "time": 501.7499999999766,
                    "velocity": 0.4409448818897638,
                    "duration": 0.11250000000001137
                },
                {
                    "name": "F7",
                    "midi": 101,
                    "time": 501.8999999999766,
                    "velocity": 0.6141732283464567,
                    "duration": 0.14999999999997726
                },
                {
                    "name": "C#7",
                    "midi": 97,
                    "time": 502.0499999999766,
                    "velocity": 0.47244094488188976,
                    "duration": 0.11250000000001137
                },
                {
                    "name": "C#7",
                    "midi": 97,
                    "time": 502.1999999999766,
                    "velocity": 0.5748031496062992,
                    "duration": 0.14125000000001364
                },
                {
                    "name": "C#7",
                    "midi": 97,
                    "time": 502.34999999997666,
                    "velocity": 0.4409448818897638,
                    "duration": 0.11250000000001137
                },
                {
                    "name": "F6",
                    "midi": 89,
                    "time": 502.4999999999767,
                    "velocity": 0.5590551181102362,
                    "duration": 0.14999999999997726
                },
                {
                    "name": "C#7",
                    "midi": 97,
                    "time": 502.64999999997667,
                    "velocity": 0.4409448818897638,
                    "duration": 0.11250000000001137
                },
                {
                    "name": "C#7",
                    "midi": 97,
                    "time": 502.7999999999767,
                    "velocity": 0.5118110236220472,
                    "duration": 0.14125000000001364
                },
                {
                    "name": "C#7",
                    "midi": 97,
                    "time": 502.94999999997674,
                    "velocity": 0.4015748031496063,
                    "duration": 0.11250000000001137
                },
                {
                    "name": "F7",
                    "midi": 101,
                    "time": 503.0999999999768,
                    "velocity": 0.5275590551181102,
                    "duration": 0.14999999999997726
                },
                {
                    "name": "C#7",
                    "midi": 97,
                    "time": 503.24999999997675,
                    "velocity": 0.3937007874015748,
                    "duration": 0.11250000000001137
                },
                {
                    "name": "C#7",
                    "midi": 97,
                    "time": 503.3999999999768,
                    "velocity": 0.49606299212598426,
                    "duration": 0.14125000000001364
                },
                {
                    "name": "C#7",
                    "midi": 97,
                    "time": 503.5499999999768,
                    "velocity": 0.3858267716535433,
                    "duration": 0.11250000000001137
                },
                {
                    "name": "F6",
                    "midi": 89,
                    "time": 503.69999999997685,
                    "velocity": 0.4881889763779528,
                    "duration": 0.14999999999997726
                },
                {
                    "name": "C#7",
                    "midi": 97,
                    "time": 503.84999999997683,
                    "velocity": 0.3937007874015748,
                    "duration": 0.11250000000001137
                },
                {
                    "name": "C#7",
                    "midi": 97,
                    "time": 503.99999999997686,
                    "velocity": 0.47244094488188976,
                    "duration": 0.14125000000001364
                },
                {
                    "name": "C#7",
                    "midi": 97,
                    "time": 504.1499999999769,
                    "velocity": 0.3858267716535433,
                    "duration": 0.11250000000001137
                },
                {
                    "name": "F7",
                    "midi": 101,
                    "time": 504.29999999997693,
                    "velocity": 0.5275590551181102,
                    "duration": 0.14999999999997726
                },
                {
                    "name": "C#7",
                    "midi": 97,
                    "time": 504.4499999999769,
                    "velocity": 0.4015748031496063,
                    "duration": 0.11250000000001137
                },
                {
                    "name": "C#7",
                    "midi": 97,
                    "time": 504.59999999997694,
                    "velocity": 0.49606299212598426,
                    "duration": 0.14125000000001364
                },
                {
                    "name": "C#7",
                    "midi": 97,
                    "time": 504.749999999977,
                    "velocity": 0.3779527559055118,
                    "duration": 0.11250000000001137
                },
                {
                    "name": "F6",
                    "midi": 89,
                    "time": 504.899999999977,
                    "velocity": 0.47244094488188976,
                    "duration": 0.14999999999997726
                },
                {
                    "name": "C#7",
                    "midi": 97,
                    "time": 505.049999999977,
                    "velocity": 0.3779527559055118,
                    "duration": 0.11250000000001137
                },
                {
                    "name": "C#7",
                    "midi": 97,
                    "time": 505.199999999977,
                    "velocity": 0.4330708661417323,
                    "duration": 0.14125000000001364
                },
                {
                    "name": "C#7",
                    "midi": 97,
                    "time": 505.34999999997706,
                    "velocity": 0.33858267716535434,
                    "duration": 0.11250000000001137
                },
                {
                    "name": "F7",
                    "midi": 101,
                    "time": 505.4999999999771,
                    "velocity": 0.4409448818897638,
                    "duration": 0.14999999999997726
                },
                {
                    "name": "C#7",
                    "midi": 97,
                    "time": 505.64999999997707,
                    "velocity": 0.33070866141732286,
                    "duration": 0.11250000000001137
                },
                {
                    "name": "C#7",
                    "midi": 97,
                    "time": 505.7999999999771,
                    "velocity": 0.41732283464566927,
                    "duration": 0.14125000000001364
                },
                {
                    "name": "C#7",
                    "midi": 97,
                    "time": 505.94999999997714,
                    "velocity": 0.3228346456692913,
                    "duration": 0.11250000000001137
                },
                {
                    "name": "F6",
                    "midi": 89,
                    "time": 506.0999999999772,
                    "velocity": 0.4094488188976378,
                    "duration": 0.14999999999997726
                },
                {
                    "name": "C#7",
                    "midi": 97,
                    "time": 506.24999999997715,
                    "velocity": 0.33070866141732286,
                    "duration": 0.11250000000001137
                },
                {
                    "name": "C#7",
                    "midi": 97,
                    "time": 506.3999999999772,
                    "velocity": 0.3937007874015748,
                    "duration": 0.14125000000001364
                },
                {
                    "name": "C#7",
                    "midi": 97,
                    "time": 506.5499999999772,
                    "velocity": 0.31496062992125984,
                    "duration": 0.11250000000001137
                },
                {
                    "name": "F#7",
                    "midi": 102,
                    "time": 506.69999999997725,
                    "velocity": 0.6456692913385826,
                    "duration": 0.14999999999997726
                },
                {
                    "name": "F#5",
                    "midi": 78,
                    "time": 507.2999999999772,
                    "velocity": 0.4566929133858268,
                    "duration": 0.30000000000001137
                },
                {
                    "name": "A5",
                    "midi": 81,
                    "time": 507.89999999997724,
                    "velocity": 0.5275590551181102,
                    "duration": 1.1999999999999886
                },
                {
                    "name": "G#5",
                    "midi": 80,
                    "time": 509.09999999997723,
                    "velocity": 0.5118110236220472,
                    "duration": 0.14999999999997726
                },
                {
                    "name": "A5",
                    "midi": 81,
                    "time": 509.5499999999772,
                    "velocity": 0.4645669291338583,
                    "duration": 0.14999999999997726
                },
                {
                    "name": "B5",
                    "midi": 83,
                    "time": 509.6999999999772,
                    "velocity": 0.5118110236220472,
                    "duration": 0.14999999999997726
                },
                {
                    "name": "D6",
                    "midi": 86,
                    "time": 510.1499999999772,
                    "velocity": 0.5511811023622047,
                    "duration": 0.14999999999997726
                },
                {
                    "name": "C#6",
                    "midi": 85,
                    "time": 510.29999999997716,
                    "velocity": 0.5118110236220472,
                    "duration": 0.14999999999997726
                },
                {
                    "name": "C#5",
                    "midi": 73,
                    "time": 510.74999999997715,
                    "velocity": 0.4645669291338583,
                    "duration": 0.14999999999997726
                },
                {
                    "name": "D#5",
                    "midi": 75,
                    "time": 510.8999999999771,
                    "velocity": 0.5118110236220472,
                    "duration": 0.14999999999997726
                },
                {
                    "name": "F5",
                    "midi": 77,
                    "time": 511.3499999999771,
                    "velocity": 0.47244094488188976,
                    "duration": 0.07499999999998863
                },
                {
                    "name": "F#5",
                    "midi": 78,
                    "time": 511.4249999999771,
                    "velocity": 0.3858267716535433,
                    "duration": 0.03750000000002274
                },
                {
                    "name": "G#5",
                    "midi": 80,
                    "time": 511.4624999999771,
                    "velocity": 0.3937007874015748,
                    "duration": 0.03750000000002274
                },
                {
                    "name": "F#5",
                    "midi": 78,
                    "time": 511.49999999997715,
                    "velocity": 0.5118110236220472,
                    "duration": 0.14999999999997726
                },
                {
                    "name": "F5",
                    "midi": 77,
                    "time": 511.94999999997714,
                    "velocity": 0.4645669291338583,
                    "duration": 0.1500000000000341
                },
                {
                    "name": "F#5",
                    "midi": 78,
                    "time": 512.0999999999772,
                    "velocity": 0.5118110236220472,
                    "duration": 0.14999999999997726
                },
                {
                    "name": "G#5",
                    "midi": 80,
                    "time": 512.5499999999771,
                    "velocity": 0.5511811023622047,
                    "duration": 0.14999999999997726
                },
                {
                    "name": "A5",
                    "midi": 81,
                    "time": 512.6999999999771,
                    "velocity": 0.5118110236220472,
                    "duration": 1.2000000000000455
                },
                {
                    "name": "G#5",
                    "midi": 80,
                    "time": 513.8999999999771,
                    "velocity": 0.5118110236220472,
                    "duration": 0.14999999999997726
                },
                {
                    "name": "A5",
                    "midi": 81,
                    "time": 514.3499999999771,
                    "velocity": 0.4645669291338583,
                    "duration": 0.14999999999997726
                },
                {
                    "name": "B5",
                    "midi": 83,
                    "time": 514.499999999977,
                    "velocity": 0.5118110236220472,
                    "duration": 0.14999999999997726
                },
                {
                    "name": "D6",
                    "midi": 86,
                    "time": 514.949999999977,
                    "velocity": 0.5511811023622047,
                    "duration": 0.14999999999997726
                },
                {
                    "name": "C#6",
                    "midi": 85,
                    "time": 515.099999999977,
                    "velocity": 0.5118110236220472,
                    "duration": 0.14999999999997726
                },
                {
                    "name": "C#5",
                    "midi": 73,
                    "time": 515.5499999999769,
                    "velocity": 0.4645669291338583,
                    "duration": 0.14999999999997726
                },
                {
                    "name": "D#5",
                    "midi": 75,
                    "time": 515.6999999999769,
                    "velocity": 0.5118110236220472,
                    "duration": 0.14999999999997726
                },
                {
                    "name": "F5",
                    "midi": 77,
                    "time": 516.1499999999768,
                    "velocity": 0.47244094488188976,
                    "duration": 0.07500000000004547
                },
                {
                    "name": "F#5",
                    "midi": 78,
                    "time": 516.2249999999768,
                    "velocity": 0.3858267716535433,
                    "duration": 0.03750000000002274
                },
                {
                    "name": "G#5",
                    "midi": 80,
                    "time": 516.2624999999769,
                    "velocity": 0.3937007874015748,
                    "duration": 0.03750000000002274
                },
                {
                    "name": "F#5",
                    "midi": 78,
                    "time": 516.2999999999769,
                    "velocity": 0.5118110236220472,
                    "duration": 0.14999999999997726
                },
                {
                    "name": "F5",
                    "midi": 77,
                    "time": 516.7499999999768,
                    "velocity": 0.4645669291338583,
                    "duration": 0.14999999999997726
                },
                {
                    "name": "F#5",
                    "midi": 78,
                    "time": 516.8999999999768,
                    "velocity": 0.5118110236220472,
                    "duration": 0.14999999999997726
                },
                {
                    "name": "G#5",
                    "midi": 80,
                    "time": 517.3499999999767,
                    "velocity": 0.5511811023622047,
                    "duration": 0.07500000000004547
                },
                {
                    "name": "F#5",
                    "midi": 78,
                    "time": 517.4249999999768,
                    "velocity": 0.47244094488188976,
                    "duration": 0.03750000000002274
                },
                {
                    "name": "G#5",
                    "midi": 80,
                    "time": 517.4624999999768,
                    "velocity": 0.47244094488188976,
                    "duration": 0.03750000000002274
                },
                {
                    "name": "A5",
                    "midi": 81,
                    "time": 517.4999999999768,
                    "velocity": 0.5118110236220472,
                    "duration": 0.2999999999999545
                },
                {
                    "name": "A5",
                    "midi": 81,
                    "time": 518.0999999999767,
                    "velocity": 0.5118110236220472,
                    "duration": 0.6000000000000227
                },
                {
                    "name": "G#5",
                    "midi": 80,
                    "time": 518.6999999999767,
                    "velocity": 0.4645669291338583,
                    "duration": 0.14999999999997726
                },
                {
                    "name": "A5",
                    "midi": 81,
                    "time": 519.1499999999767,
                    "velocity": 0.3700787401574803,
                    "duration": 0.14999999999997726
                },
                {
                    "name": "B5",
                    "midi": 83,
                    "time": 519.2999999999766,
                    "velocity": 0.41732283464566927,
                    "duration": 0.14999999999997726
                },
                {
                    "name": "D6",
                    "midi": 86,
                    "time": 519.7499999999766,
                    "velocity": 0.44881889763779526,
                    "duration": 0.14999999999997726
                },
                {
                    "name": "C#6",
                    "midi": 85,
                    "time": 519.8999999999766,
                    "velocity": 0.4015748031496063,
                    "duration": 1.2000000000000455
                },
                {
                    "name": "C#4",
                    "midi": 61,
                    "time": 521.2499999999766,
                    "velocity": 0.3779527559055118,
                    "duration": 0.11249999999995453
                },
                {
                    "name": "C#3",
                    "midi": 49,
                    "time": 521.2499999999766,
                    "velocity": 0.3779527559055118,
                    "duration": 0.11249999999995453
                },
                {
                    "name": "D#3",
                    "midi": 51,
                    "time": 521.5499999999765,
                    "velocity": 0.3858267716535433,
                    "duration": 0.11249999999995453
                },
                {
                    "name": "D#4",
                    "midi": 63,
                    "time": 521.5499999999765,
                    "velocity": 0.3858267716535433,
                    "duration": 0.11249999999995453
                },
                {
                    "name": "F3",
                    "midi": 53,
                    "time": 521.8499999999765,
                    "velocity": 0.4015748031496063,
                    "duration": 0.11249999999995453
                },
                {
                    "name": "F4",
                    "midi": 65,
                    "time": 521.8499999999765,
                    "velocity": 0.4015748031496063,
                    "duration": 0.11249999999995453
                },
                {
                    "name": "F#3",
                    "midi": 54,
                    "time": 522.1499999999764,
                    "velocity": 0.4094488188976378,
                    "duration": 0.11249999999995453
                },
                {
                    "name": "F#4",
                    "midi": 66,
                    "time": 522.1499999999764,
                    "velocity": 0.4094488188976378,
                    "duration": 0.11249999999995453
                },
                {
                    "name": "C#4",
                    "midi": 61,
                    "time": 522.4499999999764,
                    "velocity": 0.4251968503937008,
                    "duration": 0.11249999999995453
                },
                {
                    "name": "G#4",
                    "midi": 68,
                    "time": 522.4499999999764,
                    "velocity": 0.4251968503937008,
                    "duration": 0.11249999999995453
                },
                {
                    "name": "G#3",
                    "midi": 56,
                    "time": 522.4499999999764,
                    "velocity": 0.4251968503937008,
                    "duration": 0.11249999999995453
                },
                {
                    "name": "G3",
                    "midi": 55,
                    "time": 522.7499999999764,
                    "velocity": 0.41732283464566927,
                    "duration": 0.11249999999995453
                },
                {
                    "name": "G4",
                    "midi": 67,
                    "time": 522.7499999999764,
                    "velocity": 0.41732283464566927,
                    "duration": 0.11249999999995453
                },
                {
                    "name": "G#3",
                    "midi": 56,
                    "time": 523.0499999999763,
                    "velocity": 0.4015748031496063,
                    "duration": 0.11249999999995453
                },
                {
                    "name": "G#4",
                    "midi": 68,
                    "time": 523.0499999999763,
                    "velocity": 0.4015748031496063,
                    "duration": 0.11249999999995453
                },
                {
                    "name": "F4",
                    "midi": 65,
                    "time": 523.3499999999763,
                    "velocity": 0.3858267716535433,
                    "duration": 0.11249999999995453
                },
                {
                    "name": "F3",
                    "midi": 53,
                    "time": 523.3499999999763,
                    "velocity": 0.3858267716535433,
                    "duration": 0.11249999999995453
                },
                {
                    "name": "F#3",
                    "midi": 54,
                    "time": 523.6499999999762,
                    "velocity": 0.3779527559055118,
                    "duration": 0.11249999999995453
                },
                {
                    "name": "F#4",
                    "midi": 66,
                    "time": 523.6499999999762,
                    "velocity": 0.3779527559055118,
                    "duration": 0.11249999999995453
                },
                {
                    "name": "G#4",
                    "midi": 68,
                    "time": 523.9499999999762,
                    "velocity": 0.3858267716535433,
                    "duration": 0.11249999999995453
                },
                {
                    "name": "G#3",
                    "midi": 56,
                    "time": 523.9499999999762,
                    "velocity": 0.3858267716535433,
                    "duration": 0.11249999999995453
                },
                {
                    "name": "A#4",
                    "midi": 70,
                    "time": 524.2499999999761,
                    "velocity": 0.4015748031496063,
                    "duration": 0.11249999999995453
                },
                {
                    "name": "A#3",
                    "midi": 58,
                    "time": 524.2499999999761,
                    "velocity": 0.4015748031496063,
                    "duration": 0.11249999999995453
                },
                {
                    "name": "B3",
                    "midi": 59,
                    "time": 524.5499999999761,
                    "velocity": 0.4094488188976378,
                    "duration": 0.11249999999995453
                },
                {
                    "name": "B4",
                    "midi": 71,
                    "time": 524.5499999999761,
                    "velocity": 0.4094488188976378,
                    "duration": 0.11249999999995453
                },
                {
                    "name": "C#5",
                    "midi": 73,
                    "time": 524.849999999976,
                    "velocity": 0.4251968503937008,
                    "duration": 0.11249999999995453
                },
                {
                    "name": "F#4",
                    "midi": 66,
                    "time": 524.849999999976,
                    "velocity": 0.4251968503937008,
                    "duration": 0.11249999999995453
                },
                {
                    "name": "C#4",
                    "midi": 61,
                    "time": 524.849999999976,
                    "velocity": 0.4251968503937008,
                    "duration": 0.11249999999995453
                },
                {
                    "name": "C5",
                    "midi": 72,
                    "time": 525.149999999976,
                    "velocity": 0.41732283464566927,
                    "duration": 0.11249999999995453
                },
                {
                    "name": "C4",
                    "midi": 60,
                    "time": 525.149999999976,
                    "velocity": 0.41732283464566927,
                    "duration": 0.11249999999995453
                },
                {
                    "name": "C#4",
                    "midi": 61,
                    "time": 525.449999999976,
                    "velocity": 0.4015748031496063,
                    "duration": 0.11249999999995453
                },
                {
                    "name": "C#5",
                    "midi": 73,
                    "time": 525.449999999976,
                    "velocity": 0.4015748031496063,
                    "duration": 0.11249999999995453
                },
                {
                    "name": "A#3",
                    "midi": 58,
                    "time": 525.7499999999759,
                    "velocity": 0.3858267716535433,
                    "duration": 0.11249999999995453
                },
                {
                    "name": "A#4",
                    "midi": 70,
                    "time": 525.7499999999759,
                    "velocity": 0.3858267716535433,
                    "duration": 0.11249999999995453
                },
                {
                    "name": "B4",
                    "midi": 71,
                    "time": 526.0499999999759,
                    "velocity": 0.4645669291338583,
                    "duration": 0.11249999999995453
                },
                {
                    "name": "B3",
                    "midi": 59,
                    "time": 526.0499999999759,
                    "velocity": 0.4645669291338583,
                    "duration": 0.11249999999995453
                },
                {
                    "name": "D#4",
                    "midi": 63,
                    "time": 526.3499999999758,
                    "velocity": 0.4015748031496063,
                    "duration": 0.11249999999995453
                },
                {
                    "name": "D#5",
                    "midi": 75,
                    "time": 526.3499999999758,
                    "velocity": 0.4015748031496063,
                    "duration": 0.11249999999995453
                },
                {
                    "name": "G#3",
                    "midi": 56,
                    "time": 526.6499999999758,
                    "velocity": 0.47244094488188976,
                    "duration": 0.11249999999995453
                },
                {
                    "name": "G#4",
                    "midi": 68,
                    "time": 526.6499999999758,
                    "velocity": 0.47244094488188976,
                    "duration": 0.11249999999995453
                },
                {
                    "name": "B4",
                    "midi": 71,
                    "time": 526.9499999999757,
                    "velocity": 0.4330708661417323,
                    "duration": 0.11249999999995453
                },
                {
                    "name": "B3",
                    "midi": 59,
                    "time": 526.9499999999757,
                    "velocity": 0.4330708661417323,
                    "duration": 0.11249999999995453
                },
                {
                    "name": "F3",
                    "midi": 53,
                    "time": 527.2499999999757,
                    "velocity": 0.47244094488188976,
                    "duration": 0.11249999999995453
                },
                {
                    "name": "F4",
                    "midi": 65,
                    "time": 527.2499999999757,
                    "velocity": 0.47244094488188976,
                    "duration": 0.11249999999995453
                },
                {
                    "name": "G#3",
                    "midi": 56,
                    "time": 527.5499999999756,
                    "velocity": 0.4094488188976378,
                    "duration": 0.11249999999995453
                },
                {
                    "name": "G#4",
                    "midi": 68,
                    "time": 527.5499999999756,
                    "velocity": 0.4094488188976378,
                    "duration": 0.11249999999995453
                },
                {
                    "name": "C#3",
                    "midi": 49,
                    "time": 527.8499999999756,
                    "velocity": 0.4881889763779528,
                    "duration": 0.11249999999995453
                },
                {
                    "name": "C#4",
                    "midi": 61,
                    "time": 527.8499999999756,
                    "velocity": 0.4881889763779528,
                    "duration": 0.11249999999995453
                },
                {
                    "name": "F3",
                    "midi": 53,
                    "time": 528.1499999999755,
                    "velocity": 0.4409448818897638,
                    "duration": 0.11249999999995453
                },
                {
                    "name": "F4",
                    "midi": 65,
                    "time": 528.1499999999755,
                    "velocity": 0.4409448818897638,
                    "duration": 0.11249999999995453
                },
                {
                    "name": "F#4",
                    "midi": 66,
                    "time": 528.4499999999755,
                    "velocity": 0.4881889763779528,
                    "duration": 0.11249999999995453
                },
                {
                    "name": "F#3",
                    "midi": 54,
                    "time": 528.4499999999755,
                    "velocity": 0.4881889763779528,
                    "duration": 0.11249999999995453
                },
                {
                    "name": "A#3",
                    "midi": 58,
                    "time": 528.7499999999754,
                    "velocity": 0.41732283464566927,
                    "duration": 0.11249999999995453
                },
                {
                    "name": "A#4",
                    "midi": 70,
                    "time": 528.7499999999754,
                    "velocity": 0.41732283464566927,
                    "duration": 0.11249999999995453
                },
                {
                    "name": "C#4",
                    "midi": 61,
                    "time": 529.0499999999754,
                    "velocity": 0.49606299212598426,
                    "duration": 0.11249999999995453
                },
                {
                    "name": "C#3",
                    "midi": 49,
                    "time": 529.0499999999754,
                    "velocity": 0.49606299212598426,
                    "duration": 0.11249999999995453
                },
                {
                    "name": "F#4",
                    "midi": 66,
                    "time": 529.3499999999754,
                    "velocity": 0.4566929133858268,
                    "duration": 0.11249999999995453
                },
                {
                    "name": "F#3",
                    "midi": 54,
                    "time": 529.3499999999754,
                    "velocity": 0.4566929133858268,
                    "duration": 0.11249999999995453
                },
                {
                    "name": "A#3",
                    "midi": 58,
                    "time": 529.6499999999753,
                    "velocity": 0.49606299212598426,
                    "duration": 0.11249999999995453
                },
                {
                    "name": "A#2",
                    "midi": 46,
                    "time": 529.6499999999753,
                    "velocity": 0.49606299212598426,
                    "duration": 0.11249999999995453
                },
                {
                    "name": "C#4",
                    "midi": 61,
                    "time": 529.9499999999753,
                    "velocity": 0.4330708661417323,
                    "duration": 0.11249999999995453
                },
                {
                    "name": "C#3",
                    "midi": 49,
                    "time": 529.9499999999753,
                    "velocity": 0.4330708661417323,
                    "duration": 0.11249999999995453
                },
                {
                    "name": "F#4",
                    "midi": 66,
                    "time": 530.2499999999752,
                    "velocity": 0.5039370078740157,
                    "duration": 0.11249999999995453
                },
                {
                    "name": "F#3",
                    "midi": 54,
                    "time": 530.2499999999752,
                    "velocity": 0.5039370078740157,
                    "duration": 0.11249999999995453
                },
                {
                    "name": "A#4",
                    "midi": 70,
                    "time": 530.5499999999752,
                    "velocity": 0.4645669291338583,
                    "duration": 0.11249999999995453
                },
                {
                    "name": "A#3",
                    "midi": 58,
                    "time": 530.5499999999752,
                    "velocity": 0.4645669291338583,
                    "duration": 0.11249999999995453
                },
                {
                    "name": "F4",
                    "midi": 65,
                    "time": 530.8499999999751,
                    "velocity": 0.4330708661417323,
                    "duration": 0.14999999999997726
                },
                {
                    "name": "G#4",
                    "midi": 68,
                    "time": 530.8499999999751,
                    "velocity": 0.4330708661417323,
                    "duration": 0.14999999999997726
                },
                {
                    "name": "C#5",
                    "midi": 73,
                    "time": 530.8499999999751,
                    "velocity": 0.4330708661417323,
                    "duration": 0.15125000000000455
                },
                {
                    "name": "C#4",
                    "midi": 61,
                    "time": 530.8499999999751,
                    "velocity": 0.4330708661417323,
                    "duration": 0.15125000000000455
                },
                {
                    "name": "D#5",
                    "midi": 75,
                    "time": 531.1499999999751,
                    "velocity": 0.4409448818897638,
                    "duration": 0.15125000000000455
                },
                {
                    "name": "D#4",
                    "midi": 63,
                    "time": 531.1499999999751,
                    "velocity": 0.4409448818897638,
                    "duration": 0.15125000000000455
                },
                {
                    "name": "F5",
                    "midi": 77,
                    "time": 531.449999999975,
                    "velocity": 0.4645669291338583,
                    "duration": 0.15125000000000455
                },
                {
                    "name": "F4",
                    "midi": 65,
                    "time": 531.449999999975,
                    "velocity": 0.4645669291338583,
                    "duration": 0.15125000000000455
                },
                {
                    "name": "F#5",
                    "midi": 78,
                    "time": 531.749999999975,
                    "velocity": 0.48031496062992124,
                    "duration": 0.15125000000000455
                },
                {
                    "name": "F#4",
                    "midi": 66,
                    "time": 531.749999999975,
                    "velocity": 0.48031496062992124,
                    "duration": 0.15125000000000455
                },
                {
                    "name": "C#5",
                    "midi": 73,
                    "time": 532.049999999975,
                    "velocity": 0.5039370078740157,
                    "duration": 0.15125000000000455
                },
                {
                    "name": "G#5",
                    "midi": 80,
                    "time": 532.049999999975,
                    "velocity": 0.5039370078740157,
                    "duration": 0.15125000000000455
                },
                {
                    "name": "G#4",
                    "midi": 68,
                    "time": 532.049999999975,
                    "velocity": 0.5039370078740157,
                    "duration": 0.15125000000000455
                },
                {
                    "name": "G5",
                    "midi": 79,
                    "time": 532.3499999999749,
                    "velocity": 0.49606299212598426,
                    "duration": 0.14999999999997726
                },
                {
                    "name": "G4",
                    "midi": 67,
                    "time": 532.3499999999749,
                    "velocity": 0.49606299212598426,
                    "duration": 0.14999999999997726
                },
                {
                    "name": "G#5",
                    "midi": 80,
                    "time": 532.6499999999749,
                    "velocity": 0.48031496062992124,
                    "duration": 0.15125000000000455
                },
                {
                    "name": "C#5",
                    "midi": 73,
                    "time": 532.6499999999749,
                    "velocity": 0.48031496062992124,
                    "duration": 0.14999999999997726
                },
                {
                    "name": "G#4",
                    "midi": 68,
                    "time": 532.6499999999749,
                    "velocity": 0.48031496062992124,
                    "duration": 0.15125000000000455
                },
                {
                    "name": "F4",
                    "midi": 65,
                    "time": 532.9499999999748,
                    "velocity": 0.4645669291338583,
                    "duration": 0.15125000000000455
                },
                {
                    "name": "F5",
                    "midi": 77,
                    "time": 532.9499999999748,
                    "velocity": 0.4645669291338583,
                    "duration": 0.15125000000000455
                },
                {
                    "name": "C#5",
                    "midi": 73,
                    "time": 533.2499999999748,
                    "velocity": 0.4566929133858268,
                    "duration": 0.14999999999997726
                },
                {
                    "name": "A#4",
                    "midi": 70,
                    "time": 533.2499999999748,
                    "velocity": 0.4566929133858268,
                    "duration": 0.14999999999997726
                },
                {
                    "name": "F#4",
                    "midi": 66,
                    "time": 533.2499999999748,
                    "velocity": 0.4566929133858268,
                    "duration": 0.15125000000000455
                },
                {
                    "name": "F#5",
                    "midi": 78,
                    "time": 533.2499999999748,
                    "velocity": 0.4566929133858268,
                    "duration": 0.15125000000000455
                },
                {
                    "name": "G#4",
                    "midi": 68,
                    "time": 533.5499999999747,
                    "velocity": 0.47244094488188976,
                    "duration": 0.15125000000000455
                },
                {
                    "name": "G#5",
                    "midi": 80,
                    "time": 533.5499999999747,
                    "velocity": 0.47244094488188976,
                    "duration": 0.15125000000000455
                },
                {
                    "name": "A#5",
                    "midi": 82,
                    "time": 533.8499999999747,
                    "velocity": 0.49606299212598426,
                    "duration": 0.15125000000000455
                },
                {
                    "name": "A#4",
                    "midi": 70,
                    "time": 533.8499999999747,
                    "velocity": 0.49606299212598426,
                    "duration": 0.15125000000000455
                },
                {
                    "name": "B4",
                    "midi": 71,
                    "time": 534.1499999999746,
                    "velocity": 0.5118110236220472,
                    "duration": 0.15125000000000455
                },
                {
                    "name": "B5",
                    "midi": 83,
                    "time": 534.1499999999746,
                    "velocity": 0.5118110236220472,
                    "duration": 0.15125000000000455
                },
                {
                    "name": "C#5",
                    "midi": 73,
                    "time": 534.4499999999746,
                    "velocity": 0.5354330708661418,
                    "duration": 0.15125000000000455
                },
                {
                    "name": "F#5",
                    "midi": 78,
                    "time": 534.4499999999746,
                    "velocity": 0.5354330708661418,
                    "duration": 0.15125000000000455
                },
                {
                    "name": "C#6",
                    "midi": 85,
                    "time": 534.4499999999746,
                    "velocity": 0.5354330708661418,
                    "duration": 0.15125000000000455
                },
                {
                    "name": "C6",
                    "midi": 84,
                    "time": 534.7499999999745,
                    "velocity": 0.5275590551181102,
                    "duration": 0.15125000000000455
                },
                {
                    "name": "C5",
                    "midi": 72,
                    "time": 534.7499999999745,
                    "velocity": 0.5275590551181102,
                    "duration": 0.15125000000000455
                },
                {
                    "name": "C#5",
                    "midi": 73,
                    "time": 535.0499999999745,
                    "velocity": 0.5118110236220472,
                    "duration": 0.15125000000000455
                },
                {
                    "name": "F#5",
                    "midi": 78,
                    "time": 535.0499999999745,
                    "velocity": 0.5118110236220472,
                    "duration": 0.14999999999997726
                },
                {
                    "name": "C#6",
                    "midi": 85,
                    "time": 535.0499999999745,
                    "velocity": 0.5118110236220472,
                    "duration": 0.15125000000000455
                },
                {
                    "name": "A#4",
                    "midi": 70,
                    "time": 535.3499999999744,
                    "velocity": 0.49606299212598426,
                    "duration": 0.15125000000000455
                },
                {
                    "name": "A#5",
                    "midi": 82,
                    "time": 535.3499999999744,
                    "velocity": 0.49606299212598426,
                    "duration": 0.15125000000000455
                },
                {
                    "name": "G#5",
                    "midi": 80,
                    "time": 535.6499999999744,
                    "velocity": 0.4881889763779528,
                    "duration": 0.14999999999997726
                },
                {
                    "name": "F5",
                    "midi": 77,
                    "time": 535.6499999999744,
                    "velocity": 0.4881889763779528,
                    "duration": 0.14999999999997726
                },
                {
                    "name": "C#6",
                    "midi": 85,
                    "time": 535.6499999999744,
                    "velocity": 0.4881889763779528,
                    "duration": 0.15125000000000455
                },
                {
                    "name": "C#5",
                    "midi": 73,
                    "time": 535.6499999999744,
                    "velocity": 0.4881889763779528,
                    "duration": 0.15125000000000455
                },
                {
                    "name": "D#6",
                    "midi": 87,
                    "time": 535.9499999999744,
                    "velocity": 0.5039370078740157,
                    "duration": 0.15125000000000455
                },
                {
                    "name": "D#5",
                    "midi": 75,
                    "time": 535.9499999999744,
                    "velocity": 0.5039370078740157,
                    "duration": 0.15125000000000455
                },
                {
                    "name": "F5",
                    "midi": 77,
                    "time": 536.2499999999743,
                    "velocity": 0.5275590551181102,
                    "duration": 0.15125000000000455
                },
                {
                    "name": "F6",
                    "midi": 89,
                    "time": 536.2499999999743,
                    "velocity": 0.5275590551181102,
                    "duration": 0.15125000000000455
                },
                {
                    "name": "F#5",
                    "midi": 78,
                    "time": 536.5499999999743,
                    "velocity": 0.5433070866141733,
                    "duration": 0.15125000000000455
                },
                {
                    "name": "F#6",
                    "midi": 90,
                    "time": 536.5499999999743,
                    "velocity": 0.5433070866141733,
                    "duration": 0.15125000000000455
                },
                {
                    "name": "G#6",
                    "midi": 92,
                    "time": 536.8499999999742,
                    "velocity": 0.5669291338582677,
                    "duration": 0.15125000000000455
                },
                {
                    "name": "G#5",
                    "midi": 80,
                    "time": 536.8499999999742,
                    "velocity": 0.5669291338582677,
                    "duration": 0.15125000000000455
                },
                {
                    "name": "C#6",
                    "midi": 85,
                    "time": 536.8499999999742,
                    "velocity": 0.5669291338582677,
                    "duration": 0.15125000000000455
                },
                {
                    "name": "G5",
                    "midi": 79,
                    "time": 537.1499999999742,
                    "velocity": 0.5590551181102362,
                    "duration": 0.14999999999997726
                },
                {
                    "name": "G6",
                    "midi": 91,
                    "time": 537.1499999999742,
                    "velocity": 0.5590551181102362,
                    "duration": 0.14999999999997726
                },
                {
                    "name": "C#6",
                    "midi": 85,
                    "time": 537.4499999999741,
                    "velocity": 0.5433070866141733,
                    "duration": 0.14999999999997726
                },
                {
                    "name": "G#6",
                    "midi": 92,
                    "time": 537.4499999999741,
                    "velocity": 0.5433070866141733,
                    "duration": 0.15125000000000455
                },
                {
                    "name": "G#5",
                    "midi": 80,
                    "time": 537.4499999999741,
                    "velocity": 0.5433070866141733,
                    "duration": 0.15125000000000455
                },
                {
                    "name": "F5",
                    "midi": 77,
                    "time": 537.7499999999741,
                    "velocity": 0.5275590551181102,
                    "duration": 0.15125000000000455
                },
                {
                    "name": "F6",
                    "midi": 89,
                    "time": 537.7499999999741,
                    "velocity": 0.5275590551181102,
                    "duration": 0.15125000000000455
                },
                {
                    "name": "A#5",
                    "midi": 82,
                    "time": 538.049999999974,
                    "velocity": 0.5118110236220472,
                    "duration": 0.14999999999997726
                },
                {
                    "name": "F#6",
                    "midi": 90,
                    "time": 538.049999999974,
                    "velocity": 0.5118110236220472,
                    "duration": 0.15125000000000455
                },
                {
                    "name": "C#6",
                    "midi": 85,
                    "time": 538.049999999974,
                    "velocity": 0.5118110236220472,
                    "duration": 0.14999999999997726
                },
                {
                    "name": "F#5",
                    "midi": 78,
                    "time": 538.049999999974,
                    "velocity": 0.5118110236220472,
                    "duration": 0.15125000000000455
                },
                {
                    "name": "G#6",
                    "midi": 92,
                    "time": 538.349999999974,
                    "velocity": 0.5275590551181102,
                    "duration": 0.15125000000000455
                },
                {
                    "name": "G#5",
                    "midi": 80,
                    "time": 538.349999999974,
                    "velocity": 0.5275590551181102,
                    "duration": 0.15125000000000455
                },
                {
                    "name": "A#5",
                    "midi": 82,
                    "time": 538.6499999999739,
                    "velocity": 0.5511811023622047,
                    "duration": 0.15125000000000455
                },
                {
                    "name": "A#6",
                    "midi": 94,
                    "time": 538.6499999999739,
                    "velocity": 0.5511811023622047,
                    "duration": 0.15125000000000455
                },
                {
                    "name": "B5",
                    "midi": 83,
                    "time": 538.9499999999739,
                    "velocity": 0.5669291338582677,
                    "duration": 0.15125000000000455
                },
                {
                    "name": "B6",
                    "midi": 95,
                    "time": 538.9499999999739,
                    "velocity": 0.5669291338582677,
                    "duration": 0.15125000000000455
                },
                {
                    "name": "C#7",
                    "midi": 97,
                    "time": 539.2499999999739,
                    "velocity": 0.5984251968503937,
                    "duration": 0.15125000000000455
                },
                {
                    "name": "F#6",
                    "midi": 90,
                    "time": 539.2499999999739,
                    "velocity": 0.5984251968503937,
                    "duration": 0.15125000000000455
                },
                {
                    "name": "C#6",
                    "midi": 85,
                    "time": 539.2499999999739,
                    "velocity": 0.5984251968503937,
                    "duration": 0.15125000000000455
                },
                {
                    "name": "C6",
                    "midi": 84,
                    "time": 539.5499999999738,
                    "velocity": 0.5905511811023622,
                    "duration": 0.15125000000000455
                },
                {
                    "name": "C7",
                    "midi": 96,
                    "time": 539.5499999999738,
                    "velocity": 0.5905511811023622,
                    "duration": 0.15125000000000455
                },
                {
                    "name": "C#6",
                    "midi": 85,
                    "time": 539.8499999999738,
                    "velocity": 0.5669291338582677,
                    "duration": 0.15125000000000455
                },
                {
                    "name": "F#6",
                    "midi": 90,
                    "time": 539.8499999999738,
                    "velocity": 0.5669291338582677,
                    "duration": 0.14999999999997726
                },
                {
                    "name": "C#7",
                    "midi": 97,
                    "time": 539.8499999999738,
                    "velocity": 0.5669291338582677,
                    "duration": 0.15125000000000455
                },
                {
                    "name": "A#6",
                    "midi": 94,
                    "time": 540.1499999999737,
                    "velocity": 0.5511811023622047,
                    "duration": 0.15125000000000455
                },
                {
                    "name": "A#5",
                    "midi": 82,
                    "time": 540.1499999999737,
                    "velocity": 0.5511811023622047,
                    "duration": 0.15125000000000455
                },
                {
                    "name": "B5",
                    "midi": 83,
                    "time": 540.4499999999737,
                    "velocity": 0.6456692913385826,
                    "duration": 0.15125000000000455
                },
                {
                    "name": "B6",
                    "midi": 95,
                    "time": 540.4499999999737,
                    "velocity": 0.6456692913385826,
                    "duration": 0.15125000000000455
                },
                {
                    "name": "D#6",
                    "midi": 87,
                    "time": 540.7499999999736,
                    "velocity": 0.5590551181102362,
                    "duration": 0.15125000000000455
                },
                {
                    "name": "D#7",
                    "midi": 99,
                    "time": 540.7499999999736,
                    "velocity": 0.5590551181102362,
                    "duration": 0.15125000000000455
                },
                {
                    "name": "G#5",
                    "midi": 80,
                    "time": 541.0499999999736,
                    "velocity": 0.6456692913385826,
                    "duration": 0.15125000000000455
                },
                {
                    "name": "G#6",
                    "midi": 92,
                    "time": 541.0499999999736,
                    "velocity": 0.6456692913385826,
                    "duration": 0.15125000000000455
                },
                {
                    "name": "B5",
                    "midi": 83,
                    "time": 541.3499999999735,
                    "velocity": 0.5905511811023622,
                    "duration": 0.15125000000000455
                },
                {
                    "name": "B6",
                    "midi": 95,
                    "time": 541.3499999999735,
                    "velocity": 0.5905511811023622,
                    "duration": 0.15125000000000455
                },
                {
                    "name": "F5",
                    "midi": 77,
                    "time": 541.6499999999735,
                    "velocity": 0.6535433070866141,
                    "duration": 0.14999999999997726
                },
                {
                    "name": "F6",
                    "midi": 89,
                    "time": 541.6499999999735,
                    "velocity": 0.6535433070866141,
                    "duration": 0.14999999999997726
                },
                {
                    "name": "G#6",
                    "midi": 92,
                    "time": 541.9499999999734,
                    "velocity": 0.5669291338582677,
                    "duration": 0.15125000000000455
                },
                {
                    "name": "G#5",
                    "midi": 80,
                    "time": 541.9499999999734,
                    "velocity": 0.5669291338582677,
                    "duration": 0.15125000000000455
                },
                {
                    "name": "C#5",
                    "midi": 73,
                    "time": 542.2499999999734,
                    "velocity": 0.6614173228346457,
                    "duration": 0.15125000000000455
                },
                {
                    "name": "C#6",
                    "midi": 85,
                    "time": 542.2499999999734,
                    "velocity": 0.6614173228346457,
                    "duration": 0.15125000000000455
                },
                {
                    "name": "F5",
                    "midi": 77,
                    "time": 542.5499999999734,
                    "velocity": 0.6141732283464567,
                    "duration": 0.14999999999997726
                },
                {
                    "name": "F6",
                    "midi": 89,
                    "time": 542.5499999999734,
                    "velocity": 0.6141732283464567,
                    "duration": 0.14999999999997726
                },
                {
                    "name": "A#4",
                    "midi": 70,
                    "time": 542.8499999999733,
                    "velocity": 0.6692913385826772,
                    "duration": 0.14999999999997726
                },
                {
                    "name": "A#5",
                    "midi": 82,
                    "time": 542.8499999999733,
                    "velocity": 0.6692913385826772,
                    "duration": 0.14999999999997726
                },
                {
                    "name": "C#5",
                    "midi": 73,
                    "time": 543.1499999999733,
                    "velocity": 0.5826771653543307,
                    "duration": 0.15125000000000455
                },
                {
                    "name": "C#6",
                    "midi": 85,
                    "time": 543.1499999999733,
                    "velocity": 0.5826771653543307,
                    "duration": 0.15125000000000455
                },
                {
                    "name": "F#4",
                    "midi": 66,
                    "time": 543.4499999999732,
                    "velocity": 0.6771653543307087,
                    "duration": 0.15125000000000455
                },
                {
                    "name": "F#5",
                    "midi": 78,
                    "time": 543.4499999999732,
                    "velocity": 0.6771653543307087,
                    "duration": 0.15125000000000455
                },
                {
                    "name": "A#5",
                    "midi": 82,
                    "time": 543.7499999999732,
                    "velocity": 0.6220472440944882,
                    "duration": 0.14999999999997726
                },
                {
                    "name": "A#4",
                    "midi": 70,
                    "time": 543.7499999999732,
                    "velocity": 0.6220472440944882,
                    "duration": 0.14999999999997726
                },
                {
                    "name": "D#5",
                    "midi": 75,
                    "time": 544.0499999999731,
                    "velocity": 0.6771653543307087,
                    "duration": 0.14999999999997726
                },
                {
                    "name": "D#4",
                    "midi": 63,
                    "time": 544.0499999999731,
                    "velocity": 0.6771653543307087,
                    "duration": 0.14999999999997726
                },
                {
                    "name": "F#4",
                    "midi": 66,
                    "time": 544.3499999999731,
                    "velocity": 0.5905511811023622,
                    "duration": 0.15125000000000455
                },
                {
                    "name": "F#5",
                    "midi": 78,
                    "time": 544.3499999999731,
                    "velocity": 0.5905511811023622,
                    "duration": 0.15125000000000455
                },
                {
                    "name": "B4",
                    "midi": 71,
                    "time": 544.649999999973,
                    "velocity": 0.6850393700787402,
                    "duration": 0.15125000000000455
                },
                {
                    "name": "B3",
                    "midi": 59,
                    "time": 544.649999999973,
                    "velocity": 0.6850393700787402,
                    "duration": 0.15125000000000455
                },
                {
                    "name": "D#4",
                    "midi": 63,
                    "time": 544.949999999973,
                    "velocity": 0.6377952755905512,
                    "duration": 0.14999999999997726
                },
                {
                    "name": "D#5",
                    "midi": 75,
                    "time": 544.949999999973,
                    "velocity": 0.6377952755905512,
                    "duration": 0.14999999999997726
                },
                {
                    "name": "G#3",
                    "midi": 56,
                    "time": 545.2499999999729,
                    "velocity": 0.6929133858267716,
                    "duration": 0.14999999999997726
                },
                {
                    "name": "G#4",
                    "midi": 68,
                    "time": 545.2499999999729,
                    "velocity": 0.6929133858267716,
                    "duration": 0.14999999999997726
                },
                {
                    "name": "B4",
                    "midi": 71,
                    "time": 545.5499999999729,
                    "velocity": 0.6062992125984252,
                    "duration": 0.15125000000000455
                },
                {
                    "name": "B3",
                    "midi": 59,
                    "time": 545.5499999999729,
                    "velocity": 0.6062992125984252,
                    "duration": 0.15125000000000455
                },
                {
                    "name": "F4",
                    "midi": 65,
                    "time": 545.8499999999729,
                    "velocity": 0.7007874015748031,
                    "duration": 0.15125000000000455
                },
                {
                    "name": "F3",
                    "midi": 53,
                    "time": 545.8499999999729,
                    "velocity": 0.7007874015748031,
                    "duration": 0.14999999999997726
                },
                {
                    "name": "G#4",
                    "midi": 68,
                    "time": 546.1499999999728,
                    "velocity": 0.6456692913385826,
                    "duration": 0.14999999999997726
                },
                {
                    "name": "G#3",
                    "midi": 56,
                    "time": 546.1499999999728,
                    "velocity": 0.6456692913385826,
                    "duration": 0.14999999999997726
                },
                {
                    "name": "C#4",
                    "midi": 61,
                    "time": 546.4499999999728,
                    "velocity": 0.7086614173228346,
                    "duration": 0.14999999999997726
                },
                {
                    "name": "C#3",
                    "midi": 49,
                    "time": 546.4499999999728,
                    "velocity": 0.7086614173228346,
                    "duration": 0.14999999999997726
                },
                {
                    "name": "F4",
                    "midi": 65,
                    "time": 546.7499999999727,
                    "velocity": 0.6141732283464567,
                    "duration": 0.15125000000000455
                },
                {
                    "name": "F3",
                    "midi": 53,
                    "time": 546.7499999999727,
                    "velocity": 0.6141732283464567,
                    "duration": 0.15125000000000455
                },
                {
                    "name": "A#2",
                    "midi": 46,
                    "time": 547.0499999999727,
                    "velocity": 0.7165354330708661,
                    "duration": 0.14999999999997726
                },
                {
                    "name": "A#3",
                    "midi": 58,
                    "time": 547.0499999999727,
                    "velocity": 0.7165354330708661,
                    "duration": 0.15125000000000455
                },
                {
                    "name": "C#3",
                    "midi": 49,
                    "time": 547.3499999999726,
                    "velocity": 0.6614173228346457,
                    "duration": 0.14999999999997726
                },
                {
                    "name": "C#4",
                    "midi": 61,
                    "time": 547.3499999999726,
                    "velocity": 0.6614173228346457,
                    "duration": 0.14999999999997726
                },
                {
                    "name": "F#3",
                    "midi": 54,
                    "time": 547.6499999999726,
                    "velocity": 0.7244094488188977,
                    "duration": 0.14999999999997726
                },
                {
                    "name": "A#3",
                    "midi": 58,
                    "time": 547.9499999999725,
                    "velocity": 0.6299212598425197,
                    "duration": 0.15125000000000455
                },
                {
                    "name": "D#3",
                    "midi": 51,
                    "time": 548.2499999999725,
                    "velocity": 0.7322834645669292,
                    "duration": 0.15125000000000455
                },
                {
                    "name": "F#3",
                    "midi": 54,
                    "time": 548.5499999999724,
                    "velocity": 0.6692913385826772,
                    "duration": 0.14999999999997726
                },
                {
                    "name": "B2",
                    "midi": 47,
                    "time": 548.6999999999724,
                    "velocity": 0.8110236220472441,
                    "duration": 0.2999999999999545
                },
                {
                    "name": "D#4",
                    "midi": 63,
                    "time": 549.7499999999724,
                    "velocity": 0.6299212598425197,
                    "duration": 0.11249999999995453
                },
                {
                    "name": "B4",
                    "midi": 71,
                    "time": 549.7499999999724,
                    "velocity": 0.6299212598425197,
                    "duration": 0.11249999999995453
                },
                {
                    "name": "D#5",
                    "midi": 75,
                    "time": 549.7499999999724,
                    "velocity": 0.7480314960629921,
                    "duration": 0.11249999999995453
                },
                {
                    "name": "D#4",
                    "midi": 63,
                    "time": 549.8999999999724,
                    "velocity": 0.6692913385826772,
                    "duration": 0.4500000000000455
                },
                {
                    "name": "D#5",
                    "midi": 75,
                    "time": 549.8999999999724,
                    "velocity": 0.7952755905511811,
                    "duration": 0.4500000000000455
                },
                {
                    "name": "B4",
                    "midi": 71,
                    "time": 549.8999999999724,
                    "velocity": 0.6692913385826772,
                    "duration": 0.4500000000000455
                },
                {
                    "name": "F4",
                    "midi": 65,
                    "time": 550.3499999999724,
                    "velocity": 0.6220472440944882,
                    "duration": 0.11249999999995453
                },
                {
                    "name": "F5",
                    "midi": 77,
                    "time": 550.3499999999724,
                    "velocity": 0.7322834645669292,
                    "duration": 0.11249999999995453
                },
                {
                    "name": "B4",
                    "midi": 71,
                    "time": 550.3499999999724,
                    "velocity": 0.6220472440944882,
                    "duration": 0.11249999999995453
                },
                {
                    "name": "G#4",
                    "midi": 68,
                    "time": 550.3499999999724,
                    "velocity": 0.6220472440944882,
                    "duration": 0.11249999999995453
                },
                {
                    "name": "B4",
                    "midi": 71,
                    "time": 550.4999999999724,
                    "velocity": 0.6692913385826772,
                    "duration": 0.4500000000000455
                },
                {
                    "name": "G#4",
                    "midi": 68,
                    "time": 550.4999999999724,
                    "velocity": 0.6692913385826772,
                    "duration": 0.4500000000000455
                },
                {
                    "name": "F4",
                    "midi": 65,
                    "time": 550.4999999999724,
                    "velocity": 0.6692913385826772,
                    "duration": 0.4500000000000455
                },
                {
                    "name": "F5",
                    "midi": 77,
                    "time": 550.4999999999724,
                    "velocity": 0.7952755905511811,
                    "duration": 0.4500000000000455
                },
                {
                    "name": "A#4",
                    "midi": 70,
                    "time": 550.9499999999724,
                    "velocity": 0.6299212598425197,
                    "duration": 0.11249999999995453
                },
                {
                    "name": "F#5",
                    "midi": 78,
                    "time": 550.9499999999724,
                    "velocity": 0.7480314960629921,
                    "duration": 0.11249999999995453
                },
                {
                    "name": "C#5",
                    "midi": 73,
                    "time": 550.9499999999724,
                    "velocity": 0.6299212598425197,
                    "duration": 0.11249999999995453
                },
                {
                    "name": "F#4",
                    "midi": 66,
                    "time": 550.9499999999724,
                    "velocity": 0.6299212598425197,
                    "duration": 0.11249999999995453
                },
                {
                    "name": "A#4",
                    "midi": 70,
                    "time": 551.0999999999724,
                    "velocity": 0.6692913385826772,
                    "duration": 1.2000000000000455
                },
                {
                    "name": "F#5",
                    "midi": 78,
                    "time": 551.0999999999724,
                    "velocity": 0.7952755905511811,
                    "duration": 1.2000000000000455
                },
                {
                    "name": "C#5",
                    "midi": 73,
                    "time": 551.0999999999724,
                    "velocity": 0.6692913385826772,
                    "duration": 1.2000000000000455
                },
                {
                    "name": "F#4",
                    "midi": 66,
                    "time": 551.0999999999724,
                    "velocity": 0.6692913385826772,
                    "duration": 1.2000000000000455
                },
                {
                    "name": "F#6",
                    "midi": 90,
                    "time": 552.2999999999724,
                    "velocity": 0.7952755905511811,
                    "duration": 0.14999999999997726
                },
                {
                    "name": "A#5",
                    "midi": 82,
                    "time": 552.2999999999724,
                    "velocity": 0.6692913385826772,
                    "duration": 0.14999999999997726
                },
                {
                    "name": "F#5",
                    "midi": 78,
                    "time": 552.2999999999724,
                    "velocity": 0.6692913385826772,
                    "duration": 0.14999999999997726
                },
                {
                    "name": "C#6",
                    "midi": 85,
                    "time": 552.2999999999724,
                    "velocity": 0.6692913385826772,
                    "duration": 0.14999999999997726
                },
                {
                    "name": "A#6",
                    "midi": 94,
                    "time": 552.8999999999725,
                    "velocity": 0.6692913385826772,
                    "duration": 0.14999999999997726
                },
                {
                    "name": "F#7",
                    "midi": 102,
                    "time": 552.8999999999725,
                    "velocity": 0.7952755905511811,
                    "duration": 0.14999999999997726
                },
                {
                    "name": "F#6",
                    "midi": 90,
                    "time": 552.8999999999725,
                    "velocity": 0.6692913385826772,
                    "duration": 0.14999999999997726
                },
                {
                    "name": "C#7",
                    "midi": 97,
                    "time": 552.8999999999725,
                    "velocity": 0.6692913385826772,
                    "duration": 0.14999999999997726
                },
                {
                    "name": "F#4",
                    "midi": 66,
                    "time": 553.4999999999725,
                    "velocity": 0.84251968503937,
                    "duration": 0.14999999999997726
                },
                {
                    "name": "F#3",
                    "midi": 54,
                    "time": 553.4999999999725,
                    "velocity": 0.7165354330708661,
                    "duration": 0.14999999999997726
                }
            ],
            "controlChanges": {
                "91": [
                    {
                        "number": 91,
                        "time": 1.2,
                        "value": 1
                    },
                    {
                        "number": 91,
                        "time": 80.70000000000083,
                        "value": 1
                    }
                ]
            },
            "id": 1,
            "name": "Piano right",
            "instrumentNumber": 0,
            "instrument": "acoustic grand piano",
            "instrumentFamily": "piano",
            "channelNumber": 0,
            "isPercussion": false
        },
        {
            "startTime": 1.65,
            "duration": 553.6499999999688,
            "length": 2868,
            "notes": [
                {
                    "name": "G#2",
                    "midi": 44,
                    "time": 1.65,
                    "velocity": 0.4645669291338583,
                    "duration": 0.11250000000000004
                },
                {
                    "name": "C#2",
                    "midi": 37,
                    "time": 1.65,
                    "velocity": 0.4645669291338583,
                    "duration": 0.11250000000000004
                },
                {
                    "name": "G#3",
                    "midi": 56,
                    "time": 1.65,
                    "velocity": 0.5511811023622047,
                    "duration": 0.11250000000000004
                },
                {
                    "name": "F3",
                    "midi": 53,
                    "time": 1.65,
                    "velocity": 0.4645669291338583,
                    "duration": 0.11250000000000004
                },
                {
                    "name": "G#2",
                    "midi": 44,
                    "time": 1.8,
                    "velocity": 0.5275590551181102,
                    "duration": 0.30000000000000004
                },
                {
                    "name": "F3",
                    "midi": 53,
                    "time": 1.8,
                    "velocity": 0.5275590551181102,
                    "duration": 0.30000000000000004
                },
                {
                    "name": "G#3",
                    "midi": 56,
                    "time": 1.8,
                    "velocity": 0.6220472440944882,
                    "duration": 0.30000000000000004
                },
                {
                    "name": "C#2",
                    "midi": 37,
                    "time": 1.8,
                    "velocity": 0.5275590551181102,
                    "duration": 0.30000000000000004
                },
                {
                    "name": "F#3",
                    "midi": 54,
                    "time": 2.85,
                    "velocity": 0.5511811023622047,
                    "duration": 0.11249999999999982
                },
                {
                    "name": "G#2",
                    "midi": 44,
                    "time": 2.85,
                    "velocity": 0.4645669291338583,
                    "duration": 0.11249999999999982
                },
                {
                    "name": "D3",
                    "midi": 50,
                    "time": 2.85,
                    "velocity": 0.4645669291338583,
                    "duration": 0.11249999999999982
                },
                {
                    "name": "G#1",
                    "midi": 32,
                    "time": 2.85,
                    "velocity": 0.4645669291338583,
                    "duration": 0.11249999999999982
                },
                {
                    "name": "G#1",
                    "midi": 32,
                    "time": 3,
                    "velocity": 0.5354330708661418,
                    "duration": 0.2999999999999998
                },
                {
                    "name": "G#2",
                    "midi": 44,
                    "time": 3,
                    "velocity": 0.5354330708661418,
                    "duration": 0.2999999999999998
                },
                {
                    "name": "D3",
                    "midi": 50,
                    "time": 3,
                    "velocity": 0.5354330708661418,
                    "duration": 0.2999999999999998
                },
                {
                    "name": "F#3",
                    "midi": 54,
                    "time": 3,
                    "velocity": 0.6299212598425197,
                    "duration": 0.2999999999999998
                },
                {
                    "name": "G#3",
                    "midi": 56,
                    "time": 4.05,
                    "velocity": 0.5511811023622047,
                    "duration": 0.11249999999999982
                },
                {
                    "name": "C#2",
                    "midi": 37,
                    "time": 4.05,
                    "velocity": 0.4645669291338583,
                    "duration": 0.11249999999999982
                },
                {
                    "name": "F3",
                    "midi": 53,
                    "time": 4.05,
                    "velocity": 0.4645669291338583,
                    "duration": 0.11249999999999982
                },
                {
                    "name": "G#2",
                    "midi": 44,
                    "time": 4.05,
                    "velocity": 0.4645669291338583,
                    "duration": 0.11249999999999982
                },
                {
                    "name": "C#2",
                    "midi": 37,
                    "time": 4.199999999999999,
                    "velocity": 0.5275590551181102,
                    "duration": 0.2999999999999998
                },
                {
                    "name": "G#3",
                    "midi": 56,
                    "time": 4.199999999999999,
                    "velocity": 0.6220472440944882,
                    "duration": 0.2999999999999998
                },
                {
                    "name": "G#2",
                    "midi": 44,
                    "time": 4.199999999999999,
                    "velocity": 0.5275590551181102,
                    "duration": 0.2999999999999998
                },
                {
                    "name": "F3",
                    "midi": 53,
                    "time": 4.199999999999999,
                    "velocity": 0.5275590551181102,
                    "duration": 0.2999999999999998
                },
                {
                    "name": "D3",
                    "midi": 50,
                    "time": 5.249999999999999,
                    "velocity": 0.41732283464566927,
                    "duration": 0.11249999999999982
                },
                {
                    "name": "G#1",
                    "midi": 32,
                    "time": 5.249999999999999,
                    "velocity": 0.41732283464566927,
                    "duration": 0.11249999999999982
                },
                {
                    "name": "F#3",
                    "midi": 54,
                    "time": 5.249999999999999,
                    "velocity": 0.49606299212598426,
                    "duration": 0.11249999999999982
                },
                {
                    "name": "G#2",
                    "midi": 44,
                    "time": 5.249999999999999,
                    "velocity": 0.41732283464566927,
                    "duration": 0.11249999999999982
                },
                {
                    "name": "G#2",
                    "midi": 44,
                    "time": 5.399999999999999,
                    "velocity": 0.47244094488188976,
                    "duration": 0.2999999999999998
                },
                {
                    "name": "D3",
                    "midi": 50,
                    "time": 5.399999999999999,
                    "velocity": 0.47244094488188976,
                    "duration": 0.2999999999999998
                },
                {
                    "name": "F#3",
                    "midi": 54,
                    "time": 5.399999999999999,
                    "velocity": 0.5590551181102362,
                    "duration": 0.2999999999999998
                },
                {
                    "name": "G#1",
                    "midi": 32,
                    "time": 5.399999999999999,
                    "velocity": 0.47244094488188976,
                    "duration": 0.2999999999999998
                },
                {
                    "name": "G#2",
                    "midi": 44,
                    "time": 6.449999999999998,
                    "velocity": 0.3937007874015748,
                    "duration": 0.11249999999999982
                },
                {
                    "name": "C#3",
                    "midi": 49,
                    "time": 6.449999999999998,
                    "velocity": 0.3937007874015748,
                    "duration": 0.11249999999999982
                },
                {
                    "name": "C#2",
                    "midi": 37,
                    "time": 6.449999999999998,
                    "velocity": 0.3937007874015748,
                    "duration": 0.11249999999999982
                },
                {
                    "name": "F3",
                    "midi": 53,
                    "time": 6.449999999999998,
                    "velocity": 0.4645669291338583,
                    "duration": 0.11249999999999982
                },
                {
                    "name": "F3",
                    "midi": 53,
                    "time": 6.599999999999998,
                    "velocity": 0.5354330708661418,
                    "duration": 0.2999999999999998
                },
                {
                    "name": "C#2",
                    "midi": 37,
                    "time": 6.599999999999998,
                    "velocity": 0.44881889763779526,
                    "duration": 0.2999999999999998
                },
                {
                    "name": "G#2",
                    "midi": 44,
                    "time": 6.599999999999998,
                    "velocity": 0.44881889763779526,
                    "duration": 0.2999999999999998
                },
                {
                    "name": "C#3",
                    "midi": 49,
                    "time": 6.599999999999998,
                    "velocity": 0.44881889763779526,
                    "duration": 0.2999999999999998
                },
                {
                    "name": "G#2",
                    "midi": 44,
                    "time": 7.649999999999998,
                    "velocity": 0.30708661417322836,
                    "duration": 0.11249999999999982
                },
                {
                    "name": "E2",
                    "midi": 40,
                    "time": 7.649999999999998,
                    "velocity": 0.30708661417322836,
                    "duration": 0.11249999999999982
                },
                {
                    "name": "E3",
                    "midi": 52,
                    "time": 7.649999999999998,
                    "velocity": 0.36220472440944884,
                    "duration": 0.11249999999999982
                },
                {
                    "name": "C#3",
                    "midi": 49,
                    "time": 7.649999999999998,
                    "velocity": 0.30708661417322836,
                    "duration": 0.11249999999999982
                },
                {
                    "name": "E3",
                    "midi": 52,
                    "time": 7.799999999999997,
                    "velocity": 0.4015748031496063,
                    "duration": 0.3000000000000007
                },
                {
                    "name": "G#2",
                    "midi": 44,
                    "time": 7.799999999999997,
                    "velocity": 0.33858267716535434,
                    "duration": 0.3000000000000007
                },
                {
                    "name": "C#3",
                    "midi": 49,
                    "time": 7.799999999999997,
                    "velocity": 0.33858267716535434,
                    "duration": 0.3000000000000007
                },
                {
                    "name": "E2",
                    "midi": 40,
                    "time": 7.799999999999997,
                    "velocity": 0.33858267716535434,
                    "duration": 0.3000000000000007
                },
                {
                    "name": "G#2",
                    "midi": 44,
                    "time": 8.849999999999998,
                    "velocity": 0.28346456692913385,
                    "duration": 0.11250000000000071
                },
                {
                    "name": "D#3",
                    "midi": 51,
                    "time": 8.849999999999998,
                    "velocity": 0.3464566929133858,
                    "duration": 0.11250000000000071
                },
                {
                    "name": "C#3",
                    "midi": 49,
                    "time": 8.849999999999998,
                    "velocity": 0.28346456692913385,
                    "duration": 0.11250000000000071
                },
                {
                    "name": "D#3",
                    "midi": 51,
                    "time": 8.999999999999998,
                    "velocity": 0.4015748031496063,
                    "duration": 0.3000000000000007
                },
                {
                    "name": "G#2",
                    "midi": 44,
                    "time": 8.999999999999998,
                    "velocity": 0.33858267716535434,
                    "duration": 0.7000000000000011
                },
                {
                    "name": "C#3",
                    "midi": 49,
                    "time": 8.999999999999998,
                    "velocity": 0.33858267716535434,
                    "duration": 0.3000000000000007
                },
                {
                    "name": "F#3",
                    "midi": 54,
                    "time": 9.6,
                    "velocity": 0.33070866141732286,
                    "duration": 0.29999999999999893
                },
                {
                    "name": "C3",
                    "midi": 48,
                    "time": 9.6,
                    "velocity": 0.28346456692913385,
                    "duration": 0.29999999999999893
                },
                {
                    "name": "D#3",
                    "midi": 51,
                    "time": 9.6,
                    "velocity": 0.28346456692913385,
                    "duration": 0.29999999999999893
                },
                {
                    "name": "A2",
                    "midi": 45,
                    "time": 9.7,
                    "velocity": 0.3937007874015748,
                    "duration": 0.11999999999999922
                },
                {
                    "name": "G#2",
                    "midi": 44,
                    "time": 9.799999999999999,
                    "velocity": 0.3464566929133858,
                    "duration": 0.11999999999999922
                },
                {
                    "name": "B2",
                    "midi": 47,
                    "time": 9.899999999999999,
                    "velocity": 0.3937007874015748,
                    "duration": 0.11999999999999922
                },
                {
                    "name": "A2",
                    "midi": 45,
                    "time": 9.999999999999998,
                    "velocity": 0.33858267716535434,
                    "duration": 0.11999999999999922
                },
                {
                    "name": "G#2",
                    "midi": 44,
                    "time": 10.099999999999998,
                    "velocity": 0.33858267716535434,
                    "duration": 0.11999999999999922
                },
                {
                    "name": "F#2",
                    "midi": 42,
                    "time": 10.199999999999998,
                    "velocity": 0.4094488188976378,
                    "duration": 0.11999999999999922
                },
                {
                    "name": "E2",
                    "midi": 40,
                    "time": 10.299999999999997,
                    "velocity": 0.33858267716535434,
                    "duration": 0.11999999999999922
                },
                {
                    "name": "F#2",
                    "midi": 42,
                    "time": 10.399999999999997,
                    "velocity": 0.33858267716535434,
                    "duration": 0.11999999999999922
                },
                {
                    "name": "D#2",
                    "midi": 39,
                    "time": 10.499999999999996,
                    "velocity": 0.33858267716535434,
                    "duration": 0.11999999999999922
                },
                {
                    "name": "A2",
                    "midi": 45,
                    "time": 10.599999999999996,
                    "velocity": 0.3858267716535433,
                    "duration": 0.15000000000000036
                },
                {
                    "name": "G#2",
                    "midi": 44,
                    "time": 10.749999999999996,
                    "velocity": 0.30708661417322836,
                    "duration": 0.05000000000000071
                },
                {
                    "name": "C#2",
                    "midi": 37,
                    "time": 10.799999999999997,
                    "velocity": 0.4251968503937008,
                    "duration": 1.1999999999999993
                },
                {
                    "name": "G#2",
                    "midi": 44,
                    "time": 11.249999999999996,
                    "velocity": 0.33858267716535434,
                    "duration": 0.15000000000000036
                },
                {
                    "name": "C#3",
                    "midi": 49,
                    "time": 11.399999999999997,
                    "velocity": 0.4094488188976378,
                    "duration": 0.5999999999999996
                },
                {
                    "name": "C#2",
                    "midi": 37,
                    "time": 11.999999999999996,
                    "velocity": 0.4094488188976378,
                    "duration": 1.1999999999999993
                },
                {
                    "name": "G#2",
                    "midi": 44,
                    "time": 12.449999999999996,
                    "velocity": 0.3779527559055118,
                    "duration": 0.15000000000000036
                },
                {
                    "name": "C#3",
                    "midi": 49,
                    "time": 12.599999999999996,
                    "velocity": 0.4251968503937008,
                    "duration": 0.5999999999999996
                },
                {
                    "name": "C#2",
                    "midi": 37,
                    "time": 13.199999999999996,
                    "velocity": 0.4094488188976378,
                    "duration": 1.1999999999999993
                },
                {
                    "name": "G#2",
                    "midi": 44,
                    "time": 13.649999999999995,
                    "velocity": 0.3779527559055118,
                    "duration": 0.15000000000000036
                },
                {
                    "name": "C#3",
                    "midi": 49,
                    "time": 13.799999999999995,
                    "velocity": 0.4251968503937008,
                    "duration": 0.5999999999999996
                },
                {
                    "name": "C#2",
                    "midi": 37,
                    "time": 14.399999999999995,
                    "velocity": 0.4094488188976378,
                    "duration": 1.1999999999999993
                },
                {
                    "name": "A2",
                    "midi": 45,
                    "time": 14.849999999999994,
                    "velocity": 0.3779527559055118,
                    "duration": 0.15000000000000036
                },
                {
                    "name": "C#3",
                    "midi": 49,
                    "time": 14.999999999999995,
                    "velocity": 0.4251968503937008,
                    "duration": 0.5999999999999996
                },
                {
                    "name": "C#2",
                    "midi": 37,
                    "time": 15.599999999999994,
                    "velocity": 0.4094488188976378,
                    "duration": 1.1999999999999993
                },
                {
                    "name": "G#2",
                    "midi": 44,
                    "time": 16.049999999999994,
                    "velocity": 0.3779527559055118,
                    "duration": 0.14999999999999858
                },
                {
                    "name": "C#3",
                    "midi": 49,
                    "time": 16.199999999999992,
                    "velocity": 0.4251968503937008,
                    "duration": 0.6000000000000014
                },
                {
                    "name": "C#2",
                    "midi": 37,
                    "time": 16.799999999999994,
                    "velocity": 0.4094488188976378,
                    "duration": 1.1999999999999993
                },
                {
                    "name": "G#2",
                    "midi": 44,
                    "time": 17.249999999999993,
                    "velocity": 0.3779527559055118,
                    "duration": 0.14999999999999858
                },
                {
                    "name": "C#3",
                    "midi": 49,
                    "time": 17.39999999999999,
                    "velocity": 0.4251968503937008,
                    "duration": 0.6000000000000014
                },
                {
                    "name": "B1",
                    "midi": 35,
                    "time": 17.999999999999993,
                    "velocity": 0.41732283464566927,
                    "duration": 1.1999999999999993
                },
                {
                    "name": "B2",
                    "midi": 47,
                    "time": 18.449999999999992,
                    "velocity": 0.3779527559055118,
                    "duration": 0.14999999999999858
                },
                {
                    "name": "E3",
                    "midi": 52,
                    "time": 18.59999999999999,
                    "velocity": 0.4251968503937008,
                    "duration": 0.6000000000000014
                },
                {
                    "name": "B1",
                    "midi": 35,
                    "time": 19.199999999999992,
                    "velocity": 0.41732283464566927,
                    "duration": 1.1999999999999993
                },
                {
                    "name": "B2",
                    "midi": 47,
                    "time": 19.64999999999999,
                    "velocity": 0.3779527559055118,
                    "duration": 0.14999999999999858
                },
                {
                    "name": "D#3",
                    "midi": 51,
                    "time": 19.79999999999999,
                    "velocity": 0.41732283464566927,
                    "duration": 0.6000000000000014
                },
                {
                    "name": "E2",
                    "midi": 40,
                    "time": 20.39999999999999,
                    "velocity": 0.4330708661417323,
                    "duration": 1.1999999999999993
                },
                {
                    "name": "B2",
                    "midi": 47,
                    "time": 20.84999999999999,
                    "velocity": 0.3779527559055118,
                    "duration": 0.14999999999999858
                },
                {
                    "name": "E3",
                    "midi": 52,
                    "time": 20.99999999999999,
                    "velocity": 0.4566929133858268,
                    "duration": 0.6000000000000014
                },
                {
                    "name": "E2",
                    "midi": 40,
                    "time": 21.59999999999999,
                    "velocity": 0.4094488188976378,
                    "duration": 0.4499999999999993
                },
                {
                    "name": "B2",
                    "midi": 47,
                    "time": 22.04999999999999,
                    "velocity": 0.3779527559055118,
                    "duration": 0.07499999999999929
                },
                {
                    "name": "G#1",
                    "midi": 32,
                    "time": 22.12499999999999,
                    "velocity": 0.4251968503937008,
                    "duration": 0.6750000000000007
                },
                {
                    "name": "C3",
                    "midi": 48,
                    "time": 22.19999999999999,
                    "velocity": 0.4251968503937008,
                    "duration": 0.6000000000000014
                },
                {
                    "name": "C#2",
                    "midi": 37,
                    "time": 22.79999999999999,
                    "velocity": 0.4881889763779528,
                    "duration": 1.1999999999999993
                },
                {
                    "name": "G#2",
                    "midi": 44,
                    "time": 23.24999999999999,
                    "velocity": 0.4094488188976378,
                    "duration": 0.14999999999999858
                },
                {
                    "name": "C#3",
                    "midi": 49,
                    "time": 23.399999999999988,
                    "velocity": 0.3937007874015748,
                    "duration": 0.6000000000000014
                },
                {
                    "name": "E3",
                    "midi": 52,
                    "time": 23.399999999999988,
                    "velocity": 0.4645669291338583,
                    "duration": 0.6000000000000014
                },
                {
                    "name": "F#1",
                    "midi": 30,
                    "time": 23.99999999999999,
                    "velocity": 0.4645669291338583,
                    "duration": 1.1999999999999993
                },
                {
                    "name": "C#3",
                    "midi": 49,
                    "time": 24.44999999999999,
                    "velocity": 0.4566929133858268,
                    "duration": 0.14999999999999858
                },
                {
                    "name": "F#3",
                    "midi": 54,
                    "time": 24.599999999999987,
                    "velocity": 0.41732283464566927,
                    "duration": 0.6000000000000014
                },
                {
                    "name": "A3",
                    "midi": 57,
                    "time": 24.599999999999987,
                    "velocity": 0.49606299212598426,
                    "duration": 0.6000000000000014
                },
                {
                    "name": "C#1",
                    "midi": 25,
                    "time": 25.19999999999999,
                    "velocity": 0.5039370078740157,
                    "duration": 1.1999999999999993
                },
                {
                    "name": "G#2",
                    "midi": 44,
                    "time": 25.649999999999988,
                    "velocity": 0.44881889763779526,
                    "duration": 0.14999999999999858
                },
                {
                    "name": "C#3",
                    "midi": 49,
                    "time": 25.799999999999986,
                    "velocity": 0.44881889763779526,
                    "duration": 0.6000000000000014
                },
                {
                    "name": "E3",
                    "midi": 52,
                    "time": 25.799999999999986,
                    "velocity": 0.5354330708661418,
                    "duration": 0.6000000000000014
                },
                {
                    "name": "C#2",
                    "midi": 37,
                    "time": 26.399999999999988,
                    "velocity": 0.5511811023622047,
                    "duration": 0.4499999999999993
                },
                {
                    "name": "G#2",
                    "midi": 44,
                    "time": 26.849999999999987,
                    "velocity": 0.4645669291338583,
                    "duration": 0.14999999999999858
                },
                {
                    "name": "C#3",
                    "midi": 49,
                    "time": 26.999999999999986,
                    "velocity": 0.49606299212598426,
                    "duration": 0.4499999999999993
                },
                {
                    "name": "G#3",
                    "midi": 56,
                    "time": 26.999999999999986,
                    "velocity": 0.5826771653543307,
                    "duration": 0.4499999999999993
                },
                {
                    "name": "D2",
                    "midi": 38,
                    "time": 27.449999999999985,
                    "velocity": 0.3937007874015748,
                    "duration": 0.14999999999999858
                },
                {
                    "name": "D3",
                    "midi": 50,
                    "time": 27.449999999999985,
                    "velocity": 0.4645669291338583,
                    "duration": 0.14999999999999858
                },
                {
                    "name": "D#3",
                    "midi": 51,
                    "time": 27.599999999999984,
                    "velocity": 0.5039370078740157,
                    "duration": 0.4499999999999993
                },
                {
                    "name": "D#2",
                    "midi": 39,
                    "time": 27.599999999999984,
                    "velocity": 0.4251968503937008,
                    "duration": 0.4499999999999993
                },
                {
                    "name": "G#3",
                    "midi": 56,
                    "time": 28.049999999999983,
                    "velocity": 0.4566929133858268,
                    "duration": 0.14999999999999858
                },
                {
                    "name": "D#3",
                    "midi": 51,
                    "time": 28.049999999999983,
                    "velocity": 0.3858267716535433,
                    "duration": 0.14999999999999858
                },
                {
                    "name": "D#4",
                    "midi": 63,
                    "time": 28.19999999999998,
                    "velocity": 0.48031496062992124,
                    "duration": 0.8249999999999993
                },
                {
                    "name": "B3",
                    "midi": 59,
                    "time": 28.19999999999998,
                    "velocity": 0.4015748031496063,
                    "duration": 0.8249999999999993
                },
                {
                    "name": "D#2",
                    "midi": 39,
                    "time": 29.02499999999998,
                    "velocity": 0.4251968503937008,
                    "duration": 0.8249999999999993
                },
                {
                    "name": "D#3",
                    "midi": 51,
                    "time": 29.02499999999998,
                    "velocity": 0.5039370078740157,
                    "duration": 0.8249999999999993
                },
                {
                    "name": "A#3",
                    "midi": 58,
                    "time": 29.84999999999998,
                    "velocity": 0.4566929133858268,
                    "duration": 0.3000000000000007
                },
                {
                    "name": "D#3",
                    "midi": 51,
                    "time": 29.84999999999998,
                    "velocity": 0.3858267716535433,
                    "duration": 0.3000000000000007
                },
                {
                    "name": "D#4",
                    "midi": 63,
                    "time": 30.14999999999998,
                    "velocity": 0.5826771653543307,
                    "duration": 0.6000000000000014
                },
                {
                    "name": "C#4",
                    "midi": 61,
                    "time": 30.14999999999998,
                    "velocity": 0.48031496062992124,
                    "duration": 0.6000000000000014
                },
                {
                    "name": "G#2",
                    "midi": 44,
                    "time": 32.999999999999986,
                    "velocity": 0.2677165354330709,
                    "duration": 0.45000000000000284
                },
                {
                    "name": "G#1",
                    "midi": 32,
                    "time": 32.999999999999986,
                    "velocity": 0.2204724409448819,
                    "duration": 0.45000000000000284
                },
                {
                    "name": "G#2",
                    "midi": 44,
                    "time": 33.44999999999999,
                    "velocity": 0.1889763779527559,
                    "duration": 0.14999999999999858
                },
                {
                    "name": "D#3",
                    "midi": 51,
                    "time": 33.44999999999999,
                    "velocity": 0.2283464566929134,
                    "duration": 0.14999999999999858
                },
                {
                    "name": "D#3",
                    "midi": 51,
                    "time": 33.59999999999999,
                    "velocity": 0.23622047244094488,
                    "duration": 0.6000000000000014
                },
                {
                    "name": "G#3",
                    "midi": 56,
                    "time": 33.59999999999999,
                    "velocity": 0.28346456692913385,
                    "duration": 0.6000000000000014
                },
                {
                    "name": "G#2",
                    "midi": 44,
                    "time": 34.19999999999999,
                    "velocity": 0.2204724409448819,
                    "duration": 0.45000000000000284
                },
                {
                    "name": "G#1",
                    "midi": 32,
                    "time": 34.19999999999999,
                    "velocity": 0.18110236220472442,
                    "duration": 0.45000000000000284
                },
                {
                    "name": "G#2",
                    "midi": 44,
                    "time": 34.64999999999999,
                    "velocity": 0.15748031496062992,
                    "duration": 0.14999999999999858
                },
                {
                    "name": "D#3",
                    "midi": 51,
                    "time": 34.64999999999999,
                    "velocity": 0.1889763779527559,
                    "duration": 0.14999999999999858
                },
                {
                    "name": "D#3",
                    "midi": 51,
                    "time": 34.79999999999999,
                    "velocity": 0.1968503937007874,
                    "duration": 0.45000000000000284
                },
                {
                    "name": "G#3",
                    "midi": 56,
                    "time": 34.79999999999999,
                    "velocity": 0.23622047244094488,
                    "duration": 0.45000000000000284
                },
                {
                    "name": "E2",
                    "midi": 40,
                    "time": 35.39999999999999,
                    "velocity": 0.2755905511811024,
                    "duration": 0.29999999999999716
                },
                {
                    "name": "E3",
                    "midi": 52,
                    "time": 35.39999999999999,
                    "velocity": 0.33070866141732286,
                    "duration": 0.29999999999999716
                },
                {
                    "name": "B3",
                    "midi": 59,
                    "time": 35.84999999999999,
                    "velocity": 0.2125984251968504,
                    "duration": 0.14999999999999858
                },
                {
                    "name": "E4",
                    "midi": 64,
                    "time": 35.84999999999999,
                    "velocity": 0.25984251968503935,
                    "duration": 0.14999999999999858
                },
                {
                    "name": "G#3",
                    "midi": 56,
                    "time": 35.84999999999999,
                    "velocity": 0.2125984251968504,
                    "duration": 0.14999999999999858
                },
                {
                    "name": "B3",
                    "midi": 59,
                    "time": 35.999999999999986,
                    "velocity": 0.25984251968503935,
                    "duration": 0.6000000000000014
                },
                {
                    "name": "E4",
                    "midi": 64,
                    "time": 35.999999999999986,
                    "velocity": 0.25984251968503935,
                    "duration": 0.6000000000000014
                },
                {
                    "name": "G#4",
                    "midi": 68,
                    "time": 35.999999999999986,
                    "velocity": 0.30708661417322836,
                    "duration": 0.6000000000000014
                },
                {
                    "name": "E3",
                    "midi": 52,
                    "time": 36.59999999999999,
                    "velocity": 0.33070866141732286,
                    "duration": 0.29999999999999716
                },
                {
                    "name": "E2",
                    "midi": 40,
                    "time": 36.59999999999999,
                    "velocity": 0.2755905511811024,
                    "duration": 0.29999999999999716
                },
                {
                    "name": "B3",
                    "midi": 59,
                    "time": 37.04999999999998,
                    "velocity": 0.2125984251968504,
                    "duration": 0.14999999999999858
                },
                {
                    "name": "E4",
                    "midi": 64,
                    "time": 37.04999999999998,
                    "velocity": 0.25984251968503935,
                    "duration": 0.14999999999999858
                },
                {
                    "name": "G#3",
                    "midi": 56,
                    "time": 37.04999999999998,
                    "velocity": 0.2125984251968504,
                    "duration": 0.14999999999999858
                },
                {
                    "name": "B3",
                    "midi": 59,
                    "time": 37.19999999999998,
                    "velocity": 0.25984251968503935,
                    "duration": 0.6000000000000014
                },
                {
                    "name": "G#4",
                    "midi": 68,
                    "time": 37.19999999999998,
                    "velocity": 0.30708661417322836,
                    "duration": 0.6000000000000014
                },
                {
                    "name": "E4",
                    "midi": 64,
                    "time": 37.19999999999998,
                    "velocity": 0.25984251968503935,
                    "duration": 0.6000000000000014
                },
                {
                    "name": "B1",
                    "midi": 35,
                    "time": 37.79999999999998,
                    "velocity": 0.2755905511811024,
                    "duration": 0.29999999999999716
                },
                {
                    "name": "B2",
                    "midi": 47,
                    "time": 37.79999999999998,
                    "velocity": 0.33070866141732286,
                    "duration": 0.29999999999999716
                },
                {
                    "name": "B3",
                    "midi": 59,
                    "time": 38.24999999999998,
                    "velocity": 0.2125984251968504,
                    "duration": 0.14999999999999858
                },
                {
                    "name": "D#4",
                    "midi": 63,
                    "time": 38.24999999999998,
                    "velocity": 0.25984251968503935,
                    "duration": 0.14999999999999858
                },
                {
                    "name": "F#3",
                    "midi": 54,
                    "time": 38.24999999999998,
                    "velocity": 0.2125984251968504,
                    "duration": 0.14999999999999858
                },
                {
                    "name": "D#4",
                    "midi": 63,
                    "time": 38.39999999999998,
                    "velocity": 0.25984251968503935,
                    "duration": 0.6000000000000014
                },
                {
                    "name": "F#4",
                    "midi": 66,
                    "time": 38.39999999999998,
                    "velocity": 0.30708661417322836,
                    "duration": 0.6000000000000014
                },
                {
                    "name": "B3",
                    "midi": 59,
                    "time": 38.39999999999998,
                    "velocity": 0.25984251968503935,
                    "duration": 0.6000000000000014
                },
                {
                    "name": "B2",
                    "midi": 47,
                    "time": 38.99999999999998,
                    "velocity": 0.33070866141732286,
                    "duration": 0.29999999999999716
                },
                {
                    "name": "F#3",
                    "midi": 54,
                    "time": 39.449999999999974,
                    "velocity": 0.2283464566929134,
                    "duration": 0.14999999999999858
                },
                {
                    "name": "D#4",
                    "midi": 63,
                    "time": 39.449999999999974,
                    "velocity": 0.28346456692913385,
                    "duration": 0.14999999999999858
                },
                {
                    "name": "B3",
                    "midi": 59,
                    "time": 39.449999999999974,
                    "velocity": 0.2283464566929134,
                    "duration": 0.14999999999999858
                },
                {
                    "name": "C3",
                    "midi": 48,
                    "time": 39.59999999999997,
                    "velocity": 0.4094488188976378,
                    "duration": 0.29999999999999716
                },
                {
                    "name": "D#4",
                    "midi": 63,
                    "time": 40.04999999999997,
                    "velocity": 0.2125984251968504,
                    "duration": 0.14999999999999858
                },
                {
                    "name": "G#3",
                    "midi": 56,
                    "time": 40.04999999999997,
                    "velocity": 0.2125984251968504,
                    "duration": 0.14999999999999858
                },
                {
                    "name": "G#4",
                    "midi": 68,
                    "time": 40.04999999999997,
                    "velocity": 0.25984251968503935,
                    "duration": 0.14999999999999858
                },
                {
                    "name": "C#2",
                    "midi": 37,
                    "time": 40.19999999999997,
                    "velocity": 0.2755905511811024,
                    "duration": 0.29999999999999716
                },
                {
                    "name": "C#3",
                    "midi": 49,
                    "time": 40.19999999999997,
                    "velocity": 0.33070866141732286,
                    "duration": 0.29999999999999716
                },
                {
                    "name": "G#3",
                    "midi": 56,
                    "time": 40.64999999999996,
                    "velocity": 0.2125984251968504,
                    "duration": 0.14999999999999858
                },
                {
                    "name": "C#4",
                    "midi": 61,
                    "time": 40.64999999999996,
                    "velocity": 0.25984251968503935,
                    "duration": 0.14999999999999858
                },
                {
                    "name": "E3",
                    "midi": 52,
                    "time": 40.64999999999996,
                    "velocity": 0.2125984251968504,
                    "duration": 0.14999999999999858
                },
                {
                    "name": "C#4",
                    "midi": 61,
                    "time": 40.79999999999996,
                    "velocity": 0.25984251968503935,
                    "duration": 0.6000000000000014
                },
                {
                    "name": "G#3",
                    "midi": 56,
                    "time": 40.79999999999996,
                    "velocity": 0.25984251968503935,
                    "duration": 0.6000000000000014
                },
                {
                    "name": "E4",
                    "midi": 64,
                    "time": 40.79999999999996,
                    "velocity": 0.30708661417322836,
                    "duration": 0.6000000000000014
                },
                {
                    "name": "E3",
                    "midi": 52,
                    "time": 41.39999999999996,
                    "velocity": 0.33070866141732286,
                    "duration": 0.29999999999999716
                },
                {
                    "name": "E2",
                    "midi": 40,
                    "time": 41.39999999999996,
                    "velocity": 0.2755905511811024,
                    "duration": 0.29999999999999716
                },
                {
                    "name": "G#3",
                    "midi": 56,
                    "time": 41.84999999999996,
                    "velocity": 0.2125984251968504,
                    "duration": 0.14999999999999858
                },
                {
                    "name": "E4",
                    "midi": 64,
                    "time": 41.84999999999996,
                    "velocity": 0.25984251968503935,
                    "duration": 0.14999999999999858
                },
                {
                    "name": "C#4",
                    "midi": 61,
                    "time": 41.84999999999996,
                    "velocity": 0.2125984251968504,
                    "duration": 0.14999999999999858
                },
                {
                    "name": "G#4",
                    "midi": 68,
                    "time": 41.99999999999996,
                    "velocity": 0.30708661417322836,
                    "duration": 0.6000000000000014
                },
                {
                    "name": "C#4",
                    "midi": 61,
                    "time": 41.99999999999996,
                    "velocity": 0.25984251968503935,
                    "duration": 0.6000000000000014
                },
                {
                    "name": "E4",
                    "midi": 64,
                    "time": 41.99999999999996,
                    "velocity": 0.25984251968503935,
                    "duration": 0.6000000000000014
                },
                {
                    "name": "G#2",
                    "midi": 44,
                    "time": 42.59999999999996,
                    "velocity": 0.33070866141732286,
                    "duration": 0.29999999999999716
                },
                {
                    "name": "D#3",
                    "midi": 51,
                    "time": 43.049999999999955,
                    "velocity": 0.2125984251968504,
                    "duration": 0.14999999999999858
                },
                {
                    "name": "G#3",
                    "midi": 56,
                    "time": 43.049999999999955,
                    "velocity": 0.2125984251968504,
                    "duration": 0.14999999999999858
                },
                {
                    "name": "C4",
                    "midi": 60,
                    "time": 43.049999999999955,
                    "velocity": 0.25984251968503935,
                    "duration": 0.14999999999999858
                },
                {
                    "name": "C4",
                    "midi": 60,
                    "time": 43.19999999999995,
                    "velocity": 0.25984251968503935,
                    "duration": 0.6000000000000014
                },
                {
                    "name": "D#4",
                    "midi": 63,
                    "time": 43.19999999999995,
                    "velocity": 0.30708661417322836,
                    "duration": 0.6000000000000014
                },
                {
                    "name": "G#3",
                    "midi": 56,
                    "time": 43.19999999999995,
                    "velocity": 0.25984251968503935,
                    "duration": 0.6000000000000014
                },
                {
                    "name": "G#2",
                    "midi": 44,
                    "time": 43.799999999999955,
                    "velocity": 0.33070866141732286,
                    "duration": 0.29999999999999716
                },
                {
                    "name": "C4",
                    "midi": 60,
                    "time": 44.24999999999995,
                    "velocity": 0.2125984251968504,
                    "duration": 0.14999999999999858
                },
                {
                    "name": "D#4",
                    "midi": 63,
                    "time": 44.24999999999995,
                    "velocity": 0.25984251968503935,
                    "duration": 0.14999999999999858
                },
                {
                    "name": "G#3",
                    "midi": 56,
                    "time": 44.24999999999995,
                    "velocity": 0.2125984251968504,
                    "duration": 0.14999999999999858
                },
                {
                    "name": "G#4",
                    "midi": 68,
                    "time": 44.39999999999995,
                    "velocity": 0.25984251968503935,
                    "duration": 0.6000000000000014
                },
                {
                    "name": "C4",
                    "midi": 60,
                    "time": 44.39999999999995,
                    "velocity": 0.25984251968503935,
                    "duration": 0.6000000000000014
                },
                {
                    "name": "D#4",
                    "midi": 63,
                    "time": 44.39999999999995,
                    "velocity": 0.25984251968503935,
                    "duration": 0.6000000000000014
                },
                {
                    "name": "G#1",
                    "midi": 32,
                    "time": 44.99999999999995,
                    "velocity": 0.33070866141732286,
                    "duration": 0.29999999999999716
                },
                {
                    "name": "D#3",
                    "midi": 51,
                    "time": 45.449999999999946,
                    "velocity": 0.2440944881889764,
                    "duration": 0.04999999999999716
                },
                {
                    "name": "G#3",
                    "midi": 56,
                    "time": 45.49999999999994,
                    "velocity": 0.2440944881889764,
                    "duration": 0.04999999999999716
                },
                {
                    "name": "D#4",
                    "midi": 63,
                    "time": 45.54999999999994,
                    "velocity": 0.2440944881889764,
                    "duration": 0.04999999999999716
                },
                {
                    "name": "C4",
                    "midi": 60,
                    "time": 45.59999999999994,
                    "velocity": 0.33070866141732286,
                    "duration": 0.6000000000000014
                },
                {
                    "name": "G#2",
                    "midi": 44,
                    "time": 46.19999999999994,
                    "velocity": 0.33070866141732286,
                    "duration": 0.29999999999999716
                },
                {
                    "name": "G#3",
                    "midi": 56,
                    "time": 46.649999999999935,
                    "velocity": 0.2283464566929134,
                    "duration": 0.04999999999999716
                },
                {
                    "name": "C4",
                    "midi": 60,
                    "time": 46.69999999999993,
                    "velocity": 0.2283464566929134,
                    "duration": 0.04999999999999716
                },
                {
                    "name": "G#4",
                    "midi": 68,
                    "time": 46.74999999999993,
                    "velocity": 0.2283464566929134,
                    "duration": 0.04999999999999716
                },
                {
                    "name": "D#4",
                    "midi": 63,
                    "time": 46.799999999999926,
                    "velocity": 0.33070866141732286,
                    "duration": 0.6000000000000014
                },
                {
                    "name": "G#1",
                    "midi": 32,
                    "time": 47.39999999999993,
                    "velocity": 0.33070866141732286,
                    "duration": 0.29999999999999716
                },
                {
                    "name": "E3",
                    "midi": 52,
                    "time": 47.84999999999992,
                    "velocity": 0.23622047244094488,
                    "duration": 0.04999999999999716
                },
                {
                    "name": "G#3",
                    "midi": 56,
                    "time": 47.89999999999992,
                    "velocity": 0.23622047244094488,
                    "duration": 0.04999999999999716
                },
                {
                    "name": "E4",
                    "midi": 64,
                    "time": 47.94999999999992,
                    "velocity": 0.23622047244094488,
                    "duration": 0.04999999999999716
                },
                {
                    "name": "C#4",
                    "midi": 61,
                    "time": 47.999999999999915,
                    "velocity": 0.33070866141732286,
                    "duration": 0.6000000000000014
                },
                {
                    "name": "G#2",
                    "midi": 44,
                    "time": 48.599999999999916,
                    "velocity": 0.33070866141732286,
                    "duration": 0.29999999999999716
                },
                {
                    "name": "G#3",
                    "midi": 56,
                    "time": 49.04999999999991,
                    "velocity": 0.23622047244094488,
                    "duration": 0.04999999999999716
                },
                {
                    "name": "C#4",
                    "midi": 61,
                    "time": 49.09999999999991,
                    "velocity": 0.23622047244094488,
                    "duration": 0.04999999999999716
                },
                {
                    "name": "G#4",
                    "midi": 68,
                    "time": 49.149999999999906,
                    "velocity": 0.23622047244094488,
                    "duration": 0.04999999999999716
                },
                {
                    "name": "E4",
                    "midi": 64,
                    "time": 49.1999999999999,
                    "velocity": 0.33070866141732286,
                    "duration": 0.6000000000000014
                },
                {
                    "name": "G#1",
                    "midi": 32,
                    "time": 49.799999999999905,
                    "velocity": 0.33070866141732286,
                    "duration": 0.29999999999999716
                },
                {
                    "name": "D#3",
                    "midi": 51,
                    "time": 50.2499999999999,
                    "velocity": 0.2283464566929134,
                    "duration": 0.04999999999999716
                },
                {
                    "name": "G#3",
                    "midi": 56,
                    "time": 50.2999999999999,
                    "velocity": 0.2283464566929134,
                    "duration": 0.04999999999999716
                },
                {
                    "name": "D#4",
                    "midi": 63,
                    "time": 50.349999999999895,
                    "velocity": 0.2283464566929134,
                    "duration": 0.04999999999999716
                },
                {
                    "name": "C4",
                    "midi": 60,
                    "time": 50.39999999999989,
                    "velocity": 0.33070866141732286,
                    "duration": 0.6000000000000014
                },
                {
                    "name": "G#2",
                    "midi": 44,
                    "time": 50.99999999999989,
                    "velocity": 0.33070866141732286,
                    "duration": 0.29999999999999716
                },
                {
                    "name": "G#3",
                    "midi": 56,
                    "time": 51.44999999999989,
                    "velocity": 0.23622047244094488,
                    "duration": 0.04999999999999716
                },
                {
                    "name": "C4",
                    "midi": 60,
                    "time": 51.499999999999886,
                    "velocity": 0.23622047244094488,
                    "duration": 0.04999999999999716
                },
                {
                    "name": "G#4",
                    "midi": 68,
                    "time": 51.54999999999988,
                    "velocity": 0.23622047244094488,
                    "duration": 0.04999999999999716
                },
                {
                    "name": "D#4",
                    "midi": 63,
                    "time": 51.59999999999988,
                    "velocity": 0.33070866141732286,
                    "duration": 0.6000000000000014
                },
                {
                    "name": "G#1",
                    "midi": 32,
                    "time": 52.19999999999988,
                    "velocity": 0.33070866141732286,
                    "duration": 0.29999999999999716
                },
                {
                    "name": "E3",
                    "midi": 52,
                    "time": 52.64999999999988,
                    "velocity": 0.23622047244094488,
                    "duration": 0.04999999999999716
                },
                {
                    "name": "G#3",
                    "midi": 56,
                    "time": 52.699999999999875,
                    "velocity": 0.23622047244094488,
                    "duration": 0.04999999999999716
                },
                {
                    "name": "E4",
                    "midi": 64,
                    "time": 52.74999999999987,
                    "velocity": 0.23622047244094488,
                    "duration": 0.04999999999999716
                },
                {
                    "name": "C#4",
                    "midi": 61,
                    "time": 52.79999999999987,
                    "velocity": 0.33070866141732286,
                    "duration": 0.6000000000000014
                },
                {
                    "name": "G#2",
                    "midi": 44,
                    "time": 53.39999999999987,
                    "velocity": 0.33070866141732286,
                    "duration": 0.29999999999999716
                },
                {
                    "name": "G#3",
                    "midi": 56,
                    "time": 53.849999999999866,
                    "velocity": 0.23622047244094488,
                    "duration": 0.04999999999999716
                },
                {
                    "name": "C#4",
                    "midi": 61,
                    "time": 53.899999999999864,
                    "velocity": 0.23622047244094488,
                    "duration": 0.04999999999999716
                },
                {
                    "name": "G#4",
                    "midi": 68,
                    "time": 53.94999999999986,
                    "velocity": 0.23622047244094488,
                    "duration": 0.04999999999999716
                },
                {
                    "name": "E4",
                    "midi": 64,
                    "time": 53.99999999999986,
                    "velocity": 0.33070866141732286,
                    "duration": 0.6000000000000014
                },
                {
                    "name": "G#1",
                    "midi": 32,
                    "time": 54.59999999999986,
                    "velocity": 0.36220472440944884,
                    "duration": 0.5999999999999943
                },
                {
                    "name": "G#3",
                    "midi": 56,
                    "time": 55.04999999999986,
                    "velocity": 0.2440944881889764,
                    "duration": 0.04999999999999716
                },
                {
                    "name": "C4",
                    "midi": 60,
                    "time": 55.09999999999986,
                    "velocity": 0.2440944881889764,
                    "duration": 0.04999999999999716
                },
                {
                    "name": "G#4",
                    "midi": 68,
                    "time": 55.14999999999986,
                    "velocity": 0.2440944881889764,
                    "duration": 0.04999999999999716
                },
                {
                    "name": "D#4",
                    "midi": 63,
                    "time": 55.199999999999854,
                    "velocity": 0.36220472440944884,
                    "duration": 0.6000000000000014
                },
                {
                    "name": "G#2",
                    "midi": 44,
                    "time": 55.799999999999855,
                    "velocity": 0.36220472440944884,
                    "duration": 0.5999999999999943
                },
                {
                    "name": "D#4",
                    "midi": 63,
                    "time": 56.24999999999986,
                    "velocity": 0.25984251968503935,
                    "duration": 0.04999999999999716
                },
                {
                    "name": "C5",
                    "midi": 72,
                    "time": 56.299999999999855,
                    "velocity": 0.25984251968503935,
                    "duration": 0.04999999999999716
                },
                {
                    "name": "D#5",
                    "midi": 75,
                    "time": 56.34999999999985,
                    "velocity": 0.25984251968503935,
                    "duration": 0.04999999999999716
                },
                {
                    "name": "G#4",
                    "midi": 68,
                    "time": 56.39999999999985,
                    "velocity": 0.36220472440944884,
                    "duration": 0.6000000000000014
                },
                {
                    "name": "G#1",
                    "midi": 32,
                    "time": 56.99999999999985,
                    "velocity": 0.36220472440944884,
                    "duration": 0.5999999999999943
                },
                {
                    "name": "G#3",
                    "midi": 56,
                    "time": 57.449999999999854,
                    "velocity": 0.2440944881889764,
                    "duration": 0.04999999999999716
                },
                {
                    "name": "C#4",
                    "midi": 61,
                    "time": 57.49999999999985,
                    "velocity": 0.2440944881889764,
                    "duration": 0.04999999999999716
                },
                {
                    "name": "G#4",
                    "midi": 68,
                    "time": 57.54999999999985,
                    "velocity": 0.2440944881889764,
                    "duration": 0.04999999999999716
                },
                {
                    "name": "E4",
                    "midi": 64,
                    "time": 57.599999999999845,
                    "velocity": 0.36220472440944884,
                    "duration": 0.6000000000000014
                },
                {
                    "name": "G#2",
                    "midi": 44,
                    "time": 58.19999999999985,
                    "velocity": 0.36220472440944884,
                    "duration": 0.5999999999999943
                },
                {
                    "name": "E4",
                    "midi": 64,
                    "time": 58.64999999999985,
                    "velocity": 0.25984251968503935,
                    "duration": 0.04999999999999716
                },
                {
                    "name": "C#5",
                    "midi": 73,
                    "time": 58.69999999999985,
                    "velocity": 0.25984251968503935,
                    "duration": 0.04999999999999716
                },
                {
                    "name": "E5",
                    "midi": 76,
                    "time": 58.749999999999844,
                    "velocity": 0.25984251968503935,
                    "duration": 0.04999999999999716
                },
                {
                    "name": "G#4",
                    "midi": 68,
                    "time": 58.79999999999984,
                    "velocity": 0.36220472440944884,
                    "duration": 0.6000000000000014
                },
                {
                    "name": "G#1",
                    "midi": 32,
                    "time": 59.39999999999984,
                    "velocity": 0.36220472440944884,
                    "duration": 0.5999999999999943
                },
                {
                    "name": "G#3",
                    "midi": 56,
                    "time": 59.849999999999845,
                    "velocity": 0.2440944881889764,
                    "duration": 0.04999999999999716
                },
                {
                    "name": "C4",
                    "midi": 60,
                    "time": 59.89999999999984,
                    "velocity": 0.2440944881889764,
                    "duration": 0.04999999999999716
                },
                {
                    "name": "G#4",
                    "midi": 68,
                    "time": 59.94999999999984,
                    "velocity": 0.2440944881889764,
                    "duration": 0.04999999999999716
                },
                {
                    "name": "D#4",
                    "midi": 63,
                    "time": 59.99999999999984,
                    "velocity": 0.3700787401574803,
                    "duration": 0.6000000000000014
                },
                {
                    "name": "G#2",
                    "midi": 44,
                    "time": 60.59999999999984,
                    "velocity": 0.3858267716535433,
                    "duration": 0.5999999999999943
                },
                {
                    "name": "D#4",
                    "midi": 63,
                    "time": 61.04999999999984,
                    "velocity": 0.2677165354330709,
                    "duration": 0.04999999999999716
                },
                {
                    "name": "C5",
                    "midi": 72,
                    "time": 61.09999999999984,
                    "velocity": 0.2677165354330709,
                    "duration": 0.04999999999999716
                },
                {
                    "name": "D#5",
                    "midi": 75,
                    "time": 61.149999999999835,
                    "velocity": 0.2677165354330709,
                    "duration": 0.04999999999999716
                },
                {
                    "name": "G#4",
                    "midi": 68,
                    "time": 61.19999999999983,
                    "velocity": 0.4015748031496063,
                    "duration": 0.6000000000000014
                },
                {
                    "name": "G#1",
                    "midi": 32,
                    "time": 61.799999999999834,
                    "velocity": 0.3779527559055118,
                    "duration": 0.5999999999999943
                },
                {
                    "name": "G#3",
                    "midi": 56,
                    "time": 62.24999999999984,
                    "velocity": 0.2677165354330709,
                    "duration": 0.04999999999999716
                },
                {
                    "name": "C#4",
                    "midi": 61,
                    "time": 62.299999999999834,
                    "velocity": 0.2677165354330709,
                    "duration": 0.04999999999999716
                },
                {
                    "name": "G#4",
                    "midi": 68,
                    "time": 62.34999999999983,
                    "velocity": 0.2677165354330709,
                    "duration": 0.04999999999999716
                },
                {
                    "name": "E4",
                    "midi": 64,
                    "time": 62.39999999999983,
                    "velocity": 0.3779527559055118,
                    "duration": 0.6000000000000014
                },
                {
                    "name": "G#2",
                    "midi": 44,
                    "time": 62.99999999999983,
                    "velocity": 0.3779527559055118,
                    "duration": 0.5999999999999943
                },
                {
                    "name": "E4",
                    "midi": 64,
                    "time": 63.44999999999983,
                    "velocity": 0.2677165354330709,
                    "duration": 0.04999999999999716
                },
                {
                    "name": "C#5",
                    "midi": 73,
                    "time": 63.49999999999983,
                    "velocity": 0.2677165354330709,
                    "duration": 0.04999999999999716
                },
                {
                    "name": "E5",
                    "midi": 76,
                    "time": 63.54999999999983,
                    "velocity": 0.2677165354330709,
                    "duration": 0.04999999999999716
                },
                {
                    "name": "G#4",
                    "midi": 68,
                    "time": 63.599999999999824,
                    "velocity": 0.33070866141732286,
                    "duration": 0.5999999999999943
                },
                {
                    "name": "G#2",
                    "midi": 44,
                    "time": 64.19999999999982,
                    "velocity": 0.33070866141732286,
                    "duration": 0.07500000000000284
                },
                {
                    "name": "D#3",
                    "midi": 51,
                    "time": 64.34999999999982,
                    "velocity": 0.2677165354330709,
                    "duration": 0.07500000000000284
                },
                {
                    "name": "F#3",
                    "midi": 54,
                    "time": 64.49999999999983,
                    "velocity": 0.2677165354330709,
                    "duration": 0.07500000000000284
                },
                {
                    "name": "C4",
                    "midi": 60,
                    "time": 64.64999999999984,
                    "velocity": 0.2677165354330709,
                    "duration": 0.07500000000000284
                },
                {
                    "name": "D#4",
                    "midi": 63,
                    "time": 64.79999999999984,
                    "velocity": 0.33070866141732286,
                    "duration": 0.07500000000000284
                },
                {
                    "name": "G#4",
                    "midi": 68,
                    "time": 64.94999999999985,
                    "velocity": 0.2755905511811024,
                    "duration": 0.07500000000000284
                },
                {
                    "name": "D#4",
                    "midi": 63,
                    "time": 65.09999999999985,
                    "velocity": 0.2755905511811024,
                    "duration": 0.07500000000000284
                },
                {
                    "name": "G#4",
                    "midi": 68,
                    "time": 65.24999999999986,
                    "velocity": 0.2755905511811024,
                    "duration": 0.07500000000000284
                },
                {
                    "name": "G#2",
                    "midi": 44,
                    "time": 65.39999999999986,
                    "velocity": 0.33070866141732286,
                    "duration": 0.07500000000000284
                },
                {
                    "name": "D#3",
                    "midi": 51,
                    "time": 65.54999999999987,
                    "velocity": 0.2677165354330709,
                    "duration": 0.07500000000000284
                },
                {
                    "name": "F#3",
                    "midi": 54,
                    "time": 65.69999999999987,
                    "velocity": 0.2677165354330709,
                    "duration": 0.07500000000000284
                },
                {
                    "name": "C4",
                    "midi": 60,
                    "time": 65.84999999999988,
                    "velocity": 0.2677165354330709,
                    "duration": 0.07500000000000284
                },
                {
                    "name": "D#4",
                    "midi": 63,
                    "time": 65.99999999999989,
                    "velocity": 0.33070866141732286,
                    "duration": 0.07500000000000284
                },
                {
                    "name": "G#4",
                    "midi": 68,
                    "time": 66.14999999999989,
                    "velocity": 0.2755905511811024,
                    "duration": 0.07500000000000284
                },
                {
                    "name": "D#4",
                    "midi": 63,
                    "time": 66.2999999999999,
                    "velocity": 0.2755905511811024,
                    "duration": 0.07500000000000284
                },
                {
                    "name": "G#4",
                    "midi": 68,
                    "time": 66.4499999999999,
                    "velocity": 0.2755905511811024,
                    "duration": 0.07500000000000284
                },
                {
                    "name": "G#2",
                    "midi": 44,
                    "time": 66.59999999999991,
                    "velocity": 0.33070866141732286,
                    "duration": 0.07500000000000284
                },
                {
                    "name": "E3",
                    "midi": 52,
                    "time": 66.74999999999991,
                    "velocity": 0.2677165354330709,
                    "duration": 0.07500000000000284
                },
                {
                    "name": "G#3",
                    "midi": 56,
                    "time": 66.89999999999992,
                    "velocity": 0.2677165354330709,
                    "duration": 0.07500000000000284
                },
                {
                    "name": "C#4",
                    "midi": 61,
                    "time": 67.04999999999993,
                    "velocity": 0.2677165354330709,
                    "duration": 0.07500000000000284
                },
                {
                    "name": "E4",
                    "midi": 64,
                    "time": 67.19999999999993,
                    "velocity": 0.33070866141732286,
                    "duration": 0.07500000000000284
                },
                {
                    "name": "G#4",
                    "midi": 68,
                    "time": 67.34999999999994,
                    "velocity": 0.2755905511811024,
                    "duration": 0.07500000000000284
                },
                {
                    "name": "E4",
                    "midi": 64,
                    "time": 67.49999999999994,
                    "velocity": 0.2755905511811024,
                    "duration": 0.07500000000000284
                },
                {
                    "name": "G#4",
                    "midi": 68,
                    "time": 67.64999999999995,
                    "velocity": 0.2755905511811024,
                    "duration": 0.07500000000000284
                },
                {
                    "name": "G#2",
                    "midi": 44,
                    "time": 67.79999999999995,
                    "velocity": 0.33858267716535434,
                    "duration": 0.07500000000000284
                },
                {
                    "name": "E3",
                    "midi": 52,
                    "time": 67.94999999999996,
                    "velocity": 0.2677165354330709,
                    "duration": 0.07500000000000284
                },
                {
                    "name": "G#3",
                    "midi": 56,
                    "time": 68.09999999999997,
                    "velocity": 0.30708661417322836,
                    "duration": 0.07500000000000284
                },
                {
                    "name": "C#4",
                    "midi": 61,
                    "time": 68.24999999999997,
                    "velocity": 0.2677165354330709,
                    "duration": 0.07500000000000284
                },
                {
                    "name": "E4",
                    "midi": 64,
                    "time": 68.39999999999998,
                    "velocity": 0.3543307086614173,
                    "duration": 0.07500000000000284
                },
                {
                    "name": "G#4",
                    "midi": 68,
                    "time": 68.54999999999998,
                    "velocity": 0.2755905511811024,
                    "duration": 0.07500000000000284
                },
                {
                    "name": "E4",
                    "midi": 64,
                    "time": 68.69999999999999,
                    "velocity": 0.3228346456692913,
                    "duration": 0.07500000000000284
                },
                {
                    "name": "G#4",
                    "midi": 68,
                    "time": 68.85,
                    "velocity": 0.2755905511811024,
                    "duration": 0.07500000000000284
                },
                {
                    "name": "G#2",
                    "midi": 44,
                    "time": 69,
                    "velocity": 0.33858267716535434,
                    "duration": 0.07500000000000284
                },
                {
                    "name": "D#3",
                    "midi": 51,
                    "time": 69.15,
                    "velocity": 0.2677165354330709,
                    "duration": 0.07500000000000284
                },
                {
                    "name": "F#3",
                    "midi": 54,
                    "time": 69.30000000000001,
                    "velocity": 0.30708661417322836,
                    "duration": 0.07500000000000284
                },
                {
                    "name": "C4",
                    "midi": 60,
                    "time": 69.45000000000002,
                    "velocity": 0.2677165354330709,
                    "duration": 0.07500000000000284
                },
                {
                    "name": "D#4",
                    "midi": 63,
                    "time": 69.60000000000002,
                    "velocity": 0.3543307086614173,
                    "duration": 0.07500000000000284
                },
                {
                    "name": "G#4",
                    "midi": 68,
                    "time": 69.75000000000003,
                    "velocity": 0.2755905511811024,
                    "duration": 0.07500000000000284
                },
                {
                    "name": "D#4",
                    "midi": 63,
                    "time": 69.90000000000003,
                    "velocity": 0.3228346456692913,
                    "duration": 0.07500000000000284
                },
                {
                    "name": "G#4",
                    "midi": 68,
                    "time": 70.05000000000004,
                    "velocity": 0.2755905511811024,
                    "duration": 0.07500000000000284
                },
                {
                    "name": "G#2",
                    "midi": 44,
                    "time": 70.20000000000005,
                    "velocity": 0.33070866141732286,
                    "duration": 0.07500000000000284
                },
                {
                    "name": "D#3",
                    "midi": 51,
                    "time": 70.35000000000005,
                    "velocity": 0.2677165354330709,
                    "duration": 0.07500000000000284
                },
                {
                    "name": "F#3",
                    "midi": 54,
                    "time": 70.50000000000006,
                    "velocity": 0.2677165354330709,
                    "duration": 0.07500000000000284
                },
                {
                    "name": "C4",
                    "midi": 60,
                    "time": 70.65000000000006,
                    "velocity": 0.2677165354330709,
                    "duration": 0.07500000000000284
                },
                {
                    "name": "D#4",
                    "midi": 63,
                    "time": 70.80000000000007,
                    "velocity": 0.33070866141732286,
                    "duration": 0.07500000000000284
                },
                {
                    "name": "G#4",
                    "midi": 68,
                    "time": 70.95000000000007,
                    "velocity": 0.2755905511811024,
                    "duration": 0.07500000000000284
                },
                {
                    "name": "D#4",
                    "midi": 63,
                    "time": 71.10000000000008,
                    "velocity": 0.2755905511811024,
                    "duration": 0.07500000000000284
                },
                {
                    "name": "G#4",
                    "midi": 68,
                    "time": 71.25000000000009,
                    "velocity": 0.2755905511811024,
                    "duration": 0.07500000000000284
                },
                {
                    "name": "C#2",
                    "midi": 37,
                    "time": 71.40000000000009,
                    "velocity": 0.36220472440944884,
                    "duration": 0.07500000000000284
                },
                {
                    "name": "G#2",
                    "midi": 44,
                    "time": 71.5500000000001,
                    "velocity": 0.29133858267716534,
                    "duration": 0.07500000000000284
                },
                {
                    "name": "F3",
                    "midi": 53,
                    "time": 71.7000000000001,
                    "velocity": 0.29133858267716534,
                    "duration": 0.07500000000000284
                },
                {
                    "name": "G#3",
                    "midi": 56,
                    "time": 71.85000000000011,
                    "velocity": 0.29133858267716534,
                    "duration": 0.07500000000000284
                },
                {
                    "name": "C#4",
                    "midi": 61,
                    "time": 72.00000000000011,
                    "velocity": 0.3543307086614173,
                    "duration": 0.07500000000000284
                },
                {
                    "name": "G#4",
                    "midi": 68,
                    "time": 72.15000000000012,
                    "velocity": 0.29133858267716534,
                    "duration": 0.07500000000000284
                },
                {
                    "name": "C#4",
                    "midi": 61,
                    "time": 72.30000000000013,
                    "velocity": 0.29133858267716534,
                    "duration": 0.07500000000000284
                },
                {
                    "name": "G#4",
                    "midi": 68,
                    "time": 72.45000000000013,
                    "velocity": 0.29133858267716534,
                    "duration": 0.07500000000000284
                },
                {
                    "name": "C#3",
                    "midi": 49,
                    "time": 72.60000000000014,
                    "velocity": 0.3464566929133858,
                    "duration": 0.07500000000000284
                },
                {
                    "name": "G#3",
                    "midi": 56,
                    "time": 72.75000000000014,
                    "velocity": 0.2755905511811024,
                    "duration": 0.07500000000000284
                },
                {
                    "name": "F4",
                    "midi": 65,
                    "time": 72.90000000000015,
                    "velocity": 0.2755905511811024,
                    "duration": 0.07500000000000284
                },
                {
                    "name": "G#4",
                    "midi": 68,
                    "time": 73.05000000000015,
                    "velocity": 0.2755905511811024,
                    "duration": 0.07500000000000284
                },
                {
                    "name": "C#5",
                    "midi": 73,
                    "time": 73.20000000000016,
                    "velocity": 0.33858267716535434,
                    "duration": 0.07500000000000284
                },
                {
                    "name": "G#5",
                    "midi": 80,
                    "time": 73.35000000000016,
                    "velocity": 0.2755905511811024,
                    "duration": 0.07500000000000284
                },
                {
                    "name": "C#5",
                    "midi": 73,
                    "time": 73.50000000000017,
                    "velocity": 0.2755905511811024,
                    "duration": 0.07500000000000284
                },
                {
                    "name": "G#5",
                    "midi": 80,
                    "time": 73.65000000000018,
                    "velocity": 0.2755905511811024,
                    "duration": 0.07500000000000284
                },
                {
                    "name": "C#5",
                    "midi": 73,
                    "time": 73.80000000000018,
                    "velocity": 0.2440944881889764,
                    "duration": 0.07500000000000284
                },
                {
                    "name": "G#5",
                    "midi": 80,
                    "time": 73.87500000000018,
                    "velocity": 0.2047244094488189,
                    "duration": 0.07500000000000284
                },
                {
                    "name": "C#5",
                    "midi": 73,
                    "time": 73.95000000000019,
                    "velocity": 0.2440944881889764,
                    "duration": 0.07500000000000284
                },
                {
                    "name": "G#5",
                    "midi": 80,
                    "time": 74.02500000000019,
                    "velocity": 0.2047244094488189,
                    "duration": 0.07500000000000284
                },
                {
                    "name": "C#5",
                    "midi": 73,
                    "time": 74.1000000000002,
                    "velocity": 0.25984251968503935,
                    "duration": 0.07500000000000284
                },
                {
                    "name": "G#5",
                    "midi": 80,
                    "time": 74.1750000000002,
                    "velocity": 0.2125984251968504,
                    "duration": 0.07500000000000284
                },
                {
                    "name": "C#5",
                    "midi": 73,
                    "time": 74.2500000000002,
                    "velocity": 0.25984251968503935,
                    "duration": 0.07500000000000284
                },
                {
                    "name": "G#5",
                    "midi": 80,
                    "time": 74.3250000000002,
                    "velocity": 0.2204724409448819,
                    "duration": 0.07500000000000284
                },
                {
                    "name": "C#5",
                    "midi": 73,
                    "time": 74.4000000000002,
                    "velocity": 0.2755905511811024,
                    "duration": 0.07500000000000284
                },
                {
                    "name": "G#5",
                    "midi": 80,
                    "time": 74.47500000000021,
                    "velocity": 0.23622047244094488,
                    "duration": 0.07500000000000284
                },
                {
                    "name": "C#5",
                    "midi": 73,
                    "time": 74.55000000000021,
                    "velocity": 0.28346456692913385,
                    "duration": 0.07500000000000284
                },
                {
                    "name": "G#5",
                    "midi": 80,
                    "time": 74.62500000000021,
                    "velocity": 0.25196850393700787,
                    "duration": 0.07500000000000284
                },
                {
                    "name": "C#5",
                    "midi": 73,
                    "time": 74.70000000000022,
                    "velocity": 0.28346456692913385,
                    "duration": 0.07500000000000284
                },
                {
                    "name": "G#5",
                    "midi": 80,
                    "time": 74.77500000000022,
                    "velocity": 0.25984251968503935,
                    "duration": 0.07500000000000284
                },
                {
                    "name": "C#5",
                    "midi": 73,
                    "time": 74.85000000000022,
                    "velocity": 0.2992125984251969,
                    "duration": 0.07500000000000284
                },
                {
                    "name": "G#5",
                    "midi": 80,
                    "time": 74.92500000000022,
                    "velocity": 0.2677165354330709,
                    "duration": 0.07500000000000284
                },
                {
                    "name": "C#5",
                    "midi": 73,
                    "time": 75.00000000000023,
                    "velocity": 0.31496062992125984,
                    "duration": 0.07500000000000284
                },
                {
                    "name": "G#5",
                    "midi": 80,
                    "time": 75.07500000000023,
                    "velocity": 0.25984251968503935,
                    "duration": 0.07500000000000284
                },
                {
                    "name": "C#5",
                    "midi": 73,
                    "time": 75.15000000000023,
                    "velocity": 0.30708661417322836,
                    "duration": 0.07500000000000284
                },
                {
                    "name": "G#5",
                    "midi": 80,
                    "time": 75.22500000000024,
                    "velocity": 0.2440944881889764,
                    "duration": 0.07500000000000284
                },
                {
                    "name": "C#5",
                    "midi": 73,
                    "time": 75.30000000000024,
                    "velocity": 0.29133858267716534,
                    "duration": 0.07500000000000284
                },
                {
                    "name": "G#5",
                    "midi": 80,
                    "time": 75.37500000000024,
                    "velocity": 0.23622047244094488,
                    "duration": 0.07500000000000284
                },
                {
                    "name": "C#5",
                    "midi": 73,
                    "time": 75.45000000000024,
                    "velocity": 0.28346456692913385,
                    "duration": 0.07500000000000284
                },
                {
                    "name": "G#5",
                    "midi": 80,
                    "time": 75.52500000000025,
                    "velocity": 0.2283464566929134,
                    "duration": 0.07500000000000284
                },
                {
                    "name": "C#5",
                    "midi": 73,
                    "time": 75.60000000000025,
                    "velocity": 0.2755905511811024,
                    "duration": 0.07500000000000284
                },
                {
                    "name": "G#5",
                    "midi": 80,
                    "time": 75.67500000000025,
                    "velocity": 0.2283464566929134,
                    "duration": 0.07500000000000284
                },
                {
                    "name": "C#5",
                    "midi": 73,
                    "time": 75.75000000000026,
                    "velocity": 0.25984251968503935,
                    "duration": 0.07500000000000284
                },
                {
                    "name": "G#5",
                    "midi": 80,
                    "time": 75.82500000000026,
                    "velocity": 0.2283464566929134,
                    "duration": 0.07500000000000284
                },
                {
                    "name": "C#5",
                    "midi": 73,
                    "time": 75.90000000000026,
                    "velocity": 0.25196850393700787,
                    "duration": 0.07500000000000284
                },
                {
                    "name": "G#5",
                    "midi": 80,
                    "time": 75.97500000000026,
                    "velocity": 0.2204724409448819,
                    "duration": 0.07500000000000284
                },
                {
                    "name": "C#5",
                    "midi": 73,
                    "time": 76.05000000000027,
                    "velocity": 0.2440944881889764,
                    "duration": 0.07500000000000284
                },
                {
                    "name": "G#5",
                    "midi": 80,
                    "time": 76.12500000000027,
                    "velocity": 0.2047244094488189,
                    "duration": 0.07500000000000284
                },
                {
                    "name": "C#5",
                    "midi": 73,
                    "time": 76.20000000000027,
                    "velocity": 0.2440944881889764,
                    "duration": 0.037499999999994316
                },
                {
                    "name": "G#5",
                    "midi": 80,
                    "time": 76.23750000000027,
                    "velocity": 0.2440944881889764,
                    "duration": 0.07500000000000284
                },
                {
                    "name": "C#2",
                    "midi": 37,
                    "time": 81.15000000000028,
                    "velocity": 0.4645669291338583,
                    "duration": 0.11249999999999716
                },
                {
                    "name": "F3",
                    "midi": 53,
                    "time": 81.15000000000028,
                    "velocity": 0.4645669291338583,
                    "duration": 0.11249999999999716
                },
                {
                    "name": "G#2",
                    "midi": 44,
                    "time": 81.15000000000028,
                    "velocity": 0.4645669291338583,
                    "duration": 0.11249999999999716
                },
                {
                    "name": "C#3",
                    "midi": 49,
                    "time": 81.15000000000028,
                    "velocity": 0.4645669291338583,
                    "duration": 0.11249999999999716
                },
                {
                    "name": "G#3",
                    "midi": 56,
                    "time": 81.15000000000028,
                    "velocity": 0.5511811023622047,
                    "duration": 0.11249999999999716
                },
                {
                    "name": "C#2",
                    "midi": 37,
                    "time": 81.30000000000027,
                    "velocity": 0.5275590551181102,
                    "duration": 0.29999999999999716
                },
                {
                    "name": "G#3",
                    "midi": 56,
                    "time": 81.30000000000027,
                    "velocity": 0.6220472440944882,
                    "duration": 0.29999999999999716
                },
                {
                    "name": "C#3",
                    "midi": 49,
                    "time": 81.30000000000027,
                    "velocity": 0.5275590551181102,
                    "duration": 0.29999999999999716
                },
                {
                    "name": "F3",
                    "midi": 53,
                    "time": 81.30000000000027,
                    "velocity": 0.5275590551181102,
                    "duration": 0.29999999999999716
                },
                {
                    "name": "G#2",
                    "midi": 44,
                    "time": 81.30000000000027,
                    "velocity": 0.5275590551181102,
                    "duration": 0.29999999999999716
                },
                {
                    "name": "F#3",
                    "midi": 54,
                    "time": 82.35000000000026,
                    "velocity": 0.5511811023622047,
                    "duration": 0.11249999999999716
                },
                {
                    "name": "B2",
                    "midi": 47,
                    "time": 82.35000000000026,
                    "velocity": 0.4645669291338583,
                    "duration": 0.11249999999999716
                },
                {
                    "name": "F#2",
                    "midi": 42,
                    "time": 82.35000000000026,
                    "velocity": 0.4645669291338583,
                    "duration": 0.11249999999999716
                },
                {
                    "name": "D3",
                    "midi": 50,
                    "time": 82.35000000000026,
                    "velocity": 0.4645669291338583,
                    "duration": 0.11249999999999716
                },
                {
                    "name": "D2",
                    "midi": 38,
                    "time": 82.35000000000026,
                    "velocity": 0.4645669291338583,
                    "duration": 0.11249999999999716
                },
                {
                    "name": "F#2",
                    "midi": 42,
                    "time": 82.50000000000026,
                    "velocity": 0.5354330708661418,
                    "duration": 0.29999999999999716
                },
                {
                    "name": "B2",
                    "midi": 47,
                    "time": 82.50000000000026,
                    "velocity": 0.5354330708661418,
                    "duration": 0.29999999999999716
                },
                {
                    "name": "D2",
                    "midi": 38,
                    "time": 82.50000000000026,
                    "velocity": 0.5354330708661418,
                    "duration": 0.29999999999999716
                },
                {
                    "name": "F#3",
                    "midi": 54,
                    "time": 82.50000000000026,
                    "velocity": 0.6299212598425197,
                    "duration": 0.29999999999999716
                },
                {
                    "name": "D3",
                    "midi": 50,
                    "time": 82.50000000000026,
                    "velocity": 0.5354330708661418,
                    "duration": 0.29999999999999716
                },
                {
                    "name": "C#3",
                    "midi": 49,
                    "time": 83.55000000000025,
                    "velocity": 0.4645669291338583,
                    "duration": 0.11249999999999716
                },
                {
                    "name": "G#2",
                    "midi": 44,
                    "time": 83.55000000000025,
                    "velocity": 0.4645669291338583,
                    "duration": 0.11249999999999716
                },
                {
                    "name": "G#3",
                    "midi": 56,
                    "time": 83.55000000000025,
                    "velocity": 0.5511811023622047,
                    "duration": 0.11249999999999716
                },
                {
                    "name": "C#2",
                    "midi": 37,
                    "time": 83.55000000000025,
                    "velocity": 0.4645669291338583,
                    "duration": 0.11249999999999716
                },
                {
                    "name": "F3",
                    "midi": 53,
                    "time": 83.55000000000025,
                    "velocity": 0.4645669291338583,
                    "duration": 0.11249999999999716
                },
                {
                    "name": "C#3",
                    "midi": 49,
                    "time": 83.70000000000024,
                    "velocity": 0.5275590551181102,
                    "duration": 0.29999999999999716
                },
                {
                    "name": "C#2",
                    "midi": 37,
                    "time": 83.70000000000024,
                    "velocity": 0.5275590551181102,
                    "duration": 0.29999999999999716
                },
                {
                    "name": "G#2",
                    "midi": 44,
                    "time": 83.70000000000024,
                    "velocity": 0.5275590551181102,
                    "duration": 0.29999999999999716
                },
                {
                    "name": "G#3",
                    "midi": 56,
                    "time": 83.70000000000024,
                    "velocity": 0.6220472440944882,
                    "duration": 0.29999999999999716
                },
                {
                    "name": "F3",
                    "midi": 53,
                    "time": 83.70000000000024,
                    "velocity": 0.5275590551181102,
                    "duration": 0.29999999999999716
                },
                {
                    "name": "F#2",
                    "midi": 42,
                    "time": 84.75000000000024,
                    "velocity": 0.41732283464566927,
                    "duration": 0.11249999999999716
                },
                {
                    "name": "D3",
                    "midi": 50,
                    "time": 84.75000000000024,
                    "velocity": 0.41732283464566927,
                    "duration": 0.11249999999999716
                },
                {
                    "name": "D2",
                    "midi": 38,
                    "time": 84.75000000000024,
                    "velocity": 0.41732283464566927,
                    "duration": 0.11249999999999716
                },
                {
                    "name": "B2",
                    "midi": 47,
                    "time": 84.75000000000024,
                    "velocity": 0.41732283464566927,
                    "duration": 0.11249999999999716
                },
                {
                    "name": "F#3",
                    "midi": 54,
                    "time": 84.75000000000024,
                    "velocity": 0.49606299212598426,
                    "duration": 0.11249999999999716
                },
                {
                    "name": "F#3",
                    "midi": 54,
                    "time": 84.90000000000023,
                    "velocity": 0.5590551181102362,
                    "duration": 0.29999999999999716
                },
                {
                    "name": "D2",
                    "midi": 38,
                    "time": 84.90000000000023,
                    "velocity": 0.47244094488188976,
                    "duration": 0.29999999999999716
                },
                {
                    "name": "B2",
                    "midi": 47,
                    "time": 84.90000000000023,
                    "velocity": 0.47244094488188976,
                    "duration": 0.29999999999999716
                },
                {
                    "name": "F#2",
                    "midi": 42,
                    "time": 84.90000000000023,
                    "velocity": 0.47244094488188976,
                    "duration": 0.29999999999999716
                },
                {
                    "name": "D3",
                    "midi": 50,
                    "time": 84.90000000000023,
                    "velocity": 0.47244094488188976,
                    "duration": 0.29999999999999716
                },
                {
                    "name": "C#3",
                    "midi": 49,
                    "time": 85.95000000000023,
                    "velocity": 0.3937007874015748,
                    "duration": 0.125
                },
                {
                    "name": "G#2",
                    "midi": 44,
                    "time": 85.95000000000023,
                    "velocity": 0.3937007874015748,
                    "duration": 0.125
                },
                {
                    "name": "C#2",
                    "midi": 37,
                    "time": 85.95000000000023,
                    "velocity": 0.3937007874015748,
                    "duration": 0.125
                },
                {
                    "name": "F3",
                    "midi": 53,
                    "time": 85.95000000000023,
                    "velocity": 0.4645669291338583,
                    "duration": 0.125
                },
                {
                    "name": "F3",
                    "midi": 53,
                    "time": 86.10000000000024,
                    "velocity": 0.5354330708661418,
                    "duration": 0.29999999999999716
                },
                {
                    "name": "C#2",
                    "midi": 37,
                    "time": 86.10000000000024,
                    "velocity": 0.44881889763779526,
                    "duration": 0.29999999999999716
                },
                {
                    "name": "G#2",
                    "midi": 44,
                    "time": 86.10000000000024,
                    "velocity": 0.44881889763779526,
                    "duration": 0.29999999999999716
                },
                {
                    "name": "C#3",
                    "midi": 49,
                    "time": 86.10000000000024,
                    "velocity": 0.44881889763779526,
                    "duration": 0.29999999999999716
                },
                {
                    "name": "E3",
                    "midi": 52,
                    "time": 87.15000000000023,
                    "velocity": 0.36220472440944884,
                    "duration": 0.11249999999999716
                },
                {
                    "name": "E2",
                    "midi": 40,
                    "time": 87.15000000000023,
                    "velocity": 0.30708661417322836,
                    "duration": 0.11249999999999716
                },
                {
                    "name": "G#2",
                    "midi": 44,
                    "time": 87.15000000000023,
                    "velocity": 0.30708661417322836,
                    "duration": 0.11249999999999716
                },
                {
                    "name": "C#3",
                    "midi": 49,
                    "time": 87.15000000000023,
                    "velocity": 0.30708661417322836,
                    "duration": 0.11249999999999716
                },
                {
                    "name": "C#3",
                    "midi": 49,
                    "time": 87.30000000000022,
                    "velocity": 0.33858267716535434,
                    "duration": 0.29999999999999716
                },
                {
                    "name": "G#2",
                    "midi": 44,
                    "time": 87.30000000000022,
                    "velocity": 0.33858267716535434,
                    "duration": 0.29999999999999716
                },
                {
                    "name": "E3",
                    "midi": 52,
                    "time": 87.30000000000022,
                    "velocity": 0.4015748031496063,
                    "duration": 0.29999999999999716
                },
                {
                    "name": "E2",
                    "midi": 40,
                    "time": 87.30000000000022,
                    "velocity": 0.33858267716535434,
                    "duration": 0.29999999999999716
                },
                {
                    "name": "G#2",
                    "midi": 44,
                    "time": 88.35000000000022,
                    "velocity": 0.25984251968503935,
                    "duration": 0.11249999999999716
                },
                {
                    "name": "D#3",
                    "midi": 51,
                    "time": 88.35000000000022,
                    "velocity": 0.31496062992125984,
                    "duration": 0.11249999999999716
                },
                {
                    "name": "C#3",
                    "midi": 49,
                    "time": 88.35000000000022,
                    "velocity": 0.25984251968503935,
                    "duration": 0.11249999999999716
                },
                {
                    "name": "C#3",
                    "midi": 49,
                    "time": 88.50000000000021,
                    "velocity": 0.30708661417322836,
                    "duration": 0.29999999999999716
                },
                {
                    "name": "G#2",
                    "midi": 44,
                    "time": 88.50000000000021,
                    "velocity": 0.30708661417322836,
                    "duration": 0.29999999999999716
                },
                {
                    "name": "D#3",
                    "midi": 51,
                    "time": 88.50000000000021,
                    "velocity": 0.36220472440944884,
                    "duration": 0.29999999999999716
                },
                {
                    "name": "G#2",
                    "midi": 44,
                    "time": 89.4000000000002,
                    "velocity": 0.2047244094488189,
                    "duration": 0.29999999999999716
                },
                {
                    "name": "G#1",
                    "midi": 32,
                    "time": 90.60000000000021,
                    "velocity": 0.30708661417322836,
                    "duration": 0.29999999999999716
                },
                {
                    "name": "A1",
                    "midi": 33,
                    "time": 90.9000000000002,
                    "velocity": 0.33070866141732286,
                    "duration": 0.45000000000000284
                },
                {
                    "name": "B1",
                    "midi": 35,
                    "time": 91.35000000000021,
                    "velocity": 0.36220472440944884,
                    "duration": 0.15000000000000568
                },
                {
                    "name": "C#2",
                    "midi": 37,
                    "time": 91.50000000000021,
                    "velocity": 0.4330708661417323,
                    "duration": 0.15000000000000568
                },
                {
                    "name": "C#2",
                    "midi": 37,
                    "time": 92.02500000000022,
                    "velocity": 0.33070866141732286,
                    "duration": 0.07500000000000284
                },
                {
                    "name": "C#3",
                    "midi": 49,
                    "time": 92.10000000000022,
                    "velocity": 0.4094488188976378,
                    "duration": 0.75
                },
                {
                    "name": "F#1",
                    "midi": 30,
                    "time": 92.70000000000022,
                    "velocity": 0.3700787401574803,
                    "duration": 0.30000000000001137
                },
                {
                    "name": "C3",
                    "midi": 48,
                    "time": 92.85000000000022,
                    "velocity": 0.33858267716535434,
                    "duration": 0.15000000000000568
                },
                {
                    "name": "C#3",
                    "midi": 49,
                    "time": 93.00000000000023,
                    "velocity": 0.4094488188976378,
                    "duration": 0.15000000000000568
                },
                {
                    "name": "D#3",
                    "midi": 51,
                    "time": 93.15000000000023,
                    "velocity": 0.4330708661417323,
                    "duration": 0.15000000000000568
                },
                {
                    "name": "E3",
                    "midi": 52,
                    "time": 93.30000000000024,
                    "velocity": 0.44881889763779526,
                    "duration": 0.15000000000000568
                },
                {
                    "name": "A2",
                    "midi": 45,
                    "time": 93.45000000000024,
                    "velocity": 0.3779527559055118,
                    "duration": 0.15000000000000568
                },
                {
                    "name": "E3",
                    "midi": 52,
                    "time": 93.60000000000025,
                    "velocity": 0.4330708661417323,
                    "duration": 0.15000000000000568
                },
                {
                    "name": "D#3",
                    "midi": 51,
                    "time": 93.75000000000026,
                    "velocity": 0.33858267716535434,
                    "duration": 0.15000000000000568
                },
                {
                    "name": "C#3",
                    "midi": 49,
                    "time": 93.90000000000026,
                    "velocity": 0.4015748031496063,
                    "duration": 0.15000000000000568
                },
                {
                    "name": "C#2",
                    "midi": 37,
                    "time": 94.35000000000026,
                    "velocity": 0.33858267716535434,
                    "duration": 0.037499999999994316
                },
                {
                    "name": "G#2",
                    "midi": 44,
                    "time": 94.38750000000026,
                    "velocity": 0.3543307086614173,
                    "duration": 0.037499999999994316
                },
                {
                    "name": "C#3",
                    "midi": 49,
                    "time": 94.42500000000025,
                    "velocity": 0.36220472440944884,
                    "duration": 0.037499999999994316
                },
                {
                    "name": "D#3",
                    "midi": 51,
                    "time": 94.46250000000025,
                    "velocity": 0.3779527559055118,
                    "duration": 0.037499999999994316
                },
                {
                    "name": "C#3",
                    "midi": 49,
                    "time": 94.50000000000024,
                    "velocity": 0.4409448818897638,
                    "duration": 0.45000000000000284
                },
                {
                    "name": "C3",
                    "midi": 48,
                    "time": 94.95000000000024,
                    "velocity": 0.3779527559055118,
                    "duration": 0.15000000000000568
                },
                {
                    "name": "C#3",
                    "midi": 49,
                    "time": 95.10000000000025,
                    "velocity": 0.4409448818897638,
                    "duration": 1.0499999999999972
                },
                {
                    "name": "C#2",
                    "midi": 37,
                    "time": 95.70000000000024,
                    "velocity": 0.33858267716535434,
                    "duration": 0.29999999999999716
                },
                {
                    "name": "D#3",
                    "midi": 51,
                    "time": 96.15000000000025,
                    "velocity": 0.3858267716535433,
                    "duration": 0.07500000000000284
                },
                {
                    "name": "B1",
                    "midi": 35,
                    "time": 96.22500000000025,
                    "velocity": 0.41732283464566927,
                    "duration": 0.22500000000000853
                },
                {
                    "name": "E3",
                    "midi": 52,
                    "time": 96.30000000000025,
                    "velocity": 0.44881889763779526,
                    "duration": 0.15000000000000568
                },
                {
                    "name": "E3",
                    "midi": 52,
                    "time": 96.90000000000026,
                    "velocity": 0.49606299212598426,
                    "duration": 0.75
                },
                {
                    "name": "B1",
                    "midi": 35,
                    "time": 97.50000000000026,
                    "velocity": 0.3779527559055118,
                    "duration": 0.30000000000001137
                },
                {
                    "name": "D#3",
                    "midi": 51,
                    "time": 97.65000000000026,
                    "velocity": 0.36220472440944884,
                    "duration": 0.15000000000000568
                },
                {
                    "name": "E3",
                    "midi": 52,
                    "time": 97.80000000000027,
                    "velocity": 0.4409448818897638,
                    "duration": 0.15000000000000568
                },
                {
                    "name": "F#3",
                    "midi": 54,
                    "time": 97.95000000000027,
                    "velocity": 0.48031496062992124,
                    "duration": 0.15000000000000568
                },
                {
                    "name": "G#3",
                    "midi": 56,
                    "time": 98.10000000000028,
                    "velocity": 0.5196850393700787,
                    "duration": 0.15000000000000568
                },
                {
                    "name": "B2",
                    "midi": 47,
                    "time": 98.25000000000028,
                    "velocity": 0.41732283464566927,
                    "duration": 0.15000000000000568
                },
                {
                    "name": "G#3",
                    "midi": 56,
                    "time": 98.40000000000029,
                    "velocity": 0.47244094488188976,
                    "duration": 0.15000000000000568
                },
                {
                    "name": "F#3",
                    "midi": 54,
                    "time": 98.5500000000003,
                    "velocity": 0.3779527559055118,
                    "duration": 0.15000000000000568
                },
                {
                    "name": "E3",
                    "midi": 52,
                    "time": 98.7000000000003,
                    "velocity": 0.48031496062992124,
                    "duration": 0.15000000000000568
                },
                {
                    "name": "C#2",
                    "midi": 37,
                    "time": 99.1500000000003,
                    "velocity": 0.3779527559055118,
                    "duration": 0.037499999999994316
                },
                {
                    "name": "B2",
                    "midi": 47,
                    "time": 99.1875000000003,
                    "velocity": 0.3858267716535433,
                    "duration": 0.037499999999994316
                },
                {
                    "name": "E3",
                    "midi": 52,
                    "time": 99.22500000000029,
                    "velocity": 0.3937007874015748,
                    "duration": 0.037499999999994316
                },
                {
                    "name": "F#3",
                    "midi": 54,
                    "time": 99.26250000000029,
                    "velocity": 0.4015748031496063,
                    "duration": 0.037499999999994316
                },
                {
                    "name": "E3",
                    "midi": 52,
                    "time": 99.30000000000028,
                    "velocity": 0.5039370078740157,
                    "duration": 0.45000000000000284
                },
                {
                    "name": "D#3",
                    "midi": 51,
                    "time": 99.75000000000028,
                    "velocity": 0.4015748031496063,
                    "duration": 0.15000000000000568
                },
                {
                    "name": "E3",
                    "midi": 52,
                    "time": 99.90000000000029,
                    "velocity": 0.4645669291338583,
                    "duration": 0.15000000000000568
                },
                {
                    "name": "E3",
                    "midi": 52,
                    "time": 100.5000000000003,
                    "velocity": 0.3464566929133858,
                    "duration": 0.45000000000000284
                },
                {
                    "name": "G#2",
                    "midi": 44,
                    "time": 100.5000000000003,
                    "velocity": 0.3779527559055118,
                    "duration": 0.5999999999999943
                },
                {
                    "name": "D#3",
                    "midi": 51,
                    "time": 100.9500000000003,
                    "velocity": 0.3543307086614173,
                    "duration": 0.07500000000000284
                },
                {
                    "name": "C#2",
                    "midi": 37,
                    "time": 101.0250000000003,
                    "velocity": 0.30708661417322836,
                    "duration": 0.037499999999994316
                },
                {
                    "name": "C#3",
                    "midi": 49,
                    "time": 101.0625000000003,
                    "velocity": 0.3228346456692913,
                    "duration": 0.037499999999994316
                },
                {
                    "name": "C#4",
                    "midi": 61,
                    "time": 101.10000000000029,
                    "velocity": 0.5039370078740157,
                    "duration": 0.29999999999999716
                },
                {
                    "name": "C#3",
                    "midi": 49,
                    "time": 101.70000000000029,
                    "velocity": 0.44881889763779526,
                    "duration": 0.75
                },
                {
                    "name": "F#1",
                    "midi": 30,
                    "time": 102.30000000000028,
                    "velocity": 0.3700787401574803,
                    "duration": 0.30000000000001137
                },
                {
                    "name": "C3",
                    "midi": 48,
                    "time": 102.45000000000029,
                    "velocity": 0.33858267716535434,
                    "duration": 0.15000000000000568
                },
                {
                    "name": "C#3",
                    "midi": 49,
                    "time": 102.60000000000029,
                    "velocity": 0.4094488188976378,
                    "duration": 0.15000000000000568
                },
                {
                    "name": "D#3",
                    "midi": 51,
                    "time": 102.7500000000003,
                    "velocity": 0.4330708661417323,
                    "duration": 0.15000000000000568
                },
                {
                    "name": "E3",
                    "midi": 52,
                    "time": 102.9000000000003,
                    "velocity": 0.44881889763779526,
                    "duration": 0.15000000000000568
                },
                {
                    "name": "A2",
                    "midi": 45,
                    "time": 103.05000000000031,
                    "velocity": 0.3779527559055118,
                    "duration": 0.15000000000000568
                },
                {
                    "name": "E3",
                    "midi": 52,
                    "time": 103.20000000000032,
                    "velocity": 0.4330708661417323,
                    "duration": 0.15000000000000568
                },
                {
                    "name": "D#3",
                    "midi": 51,
                    "time": 103.35000000000032,
                    "velocity": 0.33858267716535434,
                    "duration": 0.15000000000000568
                },
                {
                    "name": "C#3",
                    "midi": 49,
                    "time": 103.50000000000033,
                    "velocity": 0.4015748031496063,
                    "duration": 0.15000000000000568
                },
                {
                    "name": "C#3",
                    "midi": 49,
                    "time": 104.10000000000034,
                    "velocity": 0.4409448818897638,
                    "duration": 0.45000000000000284
                },
                {
                    "name": "C#2",
                    "midi": 37,
                    "time": 104.10000000000034,
                    "velocity": 0.48031496062992124,
                    "duration": 0.29999999999999716
                },
                {
                    "name": "C3",
                    "midi": 48,
                    "time": 104.55000000000034,
                    "velocity": 0.44881889763779526,
                    "duration": 0.15000000000000568
                },
                {
                    "name": "C#3",
                    "midi": 49,
                    "time": 104.70000000000034,
                    "velocity": 0.6377952755905512,
                    "duration": 0.15000000000000568
                },
                {
                    "name": "G3",
                    "midi": 55,
                    "time": 105.30000000000035,
                    "velocity": 0.4094488188976378,
                    "duration": 0.5999999999999801
                },
                {
                    "name": "E3",
                    "midi": 52,
                    "time": 105.30000000000035,
                    "velocity": 0.4094488188976378,
                    "duration": 0.5999999999999801
                },
                {
                    "name": "C#4",
                    "midi": 61,
                    "time": 105.30000000000035,
                    "velocity": 0.5196850393700787,
                    "duration": 0.5999999999999801
                },
                {
                    "name": "A#2",
                    "midi": 46,
                    "time": 105.30000000000035,
                    "velocity": 0.5196850393700787,
                    "duration": 0.29999999999999716
                },
                {
                    "name": "A2",
                    "midi": 45,
                    "time": 105.60000000000035,
                    "velocity": 0.6062992125984252,
                    "duration": 0.1875
                },
                {
                    "name": "G#2",
                    "midi": 44,
                    "time": 105.78750000000035,
                    "velocity": 0.4330708661417323,
                    "duration": 0.26249999999998863
                },
                {
                    "name": "E3",
                    "midi": 52,
                    "time": 105.82500000000034,
                    "velocity": 0.4330708661417323,
                    "duration": 0.22499999999999432
                },
                {
                    "name": "G#3",
                    "midi": 56,
                    "time": 105.86250000000034,
                    "velocity": 0.4330708661417323,
                    "duration": 0.1875
                },
                {
                    "name": "E4",
                    "midi": 64,
                    "time": 105.90000000000033,
                    "velocity": 0.5433070866141733,
                    "duration": 0.15000000000000568
                },
                {
                    "name": "G#1",
                    "midi": 32,
                    "time": 106.50875000000033,
                    "velocity": 0.6062992125984252,
                    "duration": 0.6750000000000114
                },
                {
                    "name": "G1",
                    "midi": 31,
                    "time": 107.17500000000034,
                    "velocity": 0.2992125984251969,
                    "duration": 0.07500000000000284
                },
                {
                    "name": "G#1",
                    "midi": 32,
                    "time": 107.25000000000034,
                    "velocity": 0.30708661417322836,
                    "duration": 0.07500000000000284
                },
                {
                    "name": "A1",
                    "midi": 33,
                    "time": 107.32500000000034,
                    "velocity": 0.30708661417322836,
                    "duration": 0.07500000000000284
                },
                {
                    "name": "C2",
                    "midi": 36,
                    "time": 107.40000000000035,
                    "velocity": 0.33070866141732286,
                    "duration": 0.07500000000000284
                },
                {
                    "name": "C#2",
                    "midi": 37,
                    "time": 107.47500000000035,
                    "velocity": 0.33858267716535434,
                    "duration": 0.07500000000000284
                },
                {
                    "name": "D#2",
                    "midi": 39,
                    "time": 107.55000000000035,
                    "velocity": 0.3543307086614173,
                    "duration": 0.07500000000000284
                },
                {
                    "name": "E2",
                    "midi": 40,
                    "time": 107.62500000000036,
                    "velocity": 0.3700787401574803,
                    "duration": 0.07500000000000284
                },
                {
                    "name": "F#2",
                    "midi": 42,
                    "time": 107.70000000000036,
                    "velocity": 0.3858267716535433,
                    "duration": 0.07500000000000284
                },
                {
                    "name": "G#2",
                    "midi": 44,
                    "time": 107.77500000000036,
                    "velocity": 0.4015748031496063,
                    "duration": 0.07500000000000284
                },
                {
                    "name": "B2",
                    "midi": 47,
                    "time": 107.85000000000036,
                    "velocity": 0.41732283464566927,
                    "duration": 0.07500000000000284
                },
                {
                    "name": "A2",
                    "midi": 45,
                    "time": 107.92500000000037,
                    "velocity": 0.36220472440944884,
                    "duration": 0.07500000000000284
                },
                {
                    "name": "G#2",
                    "midi": 44,
                    "time": 108.00000000000037,
                    "velocity": 0.33858267716535434,
                    "duration": 0.07500000000000284
                },
                {
                    "name": "G2",
                    "midi": 43,
                    "time": 108.07500000000037,
                    "velocity": 0.33858267716535434,
                    "duration": 0.07500000000000284
                },
                {
                    "name": "G#2",
                    "midi": 44,
                    "time": 108.15000000000038,
                    "velocity": 0.3543307086614173,
                    "duration": 0.07500000000000284
                },
                {
                    "name": "A2",
                    "midi": 45,
                    "time": 108.22500000000038,
                    "velocity": 0.36220472440944884,
                    "duration": 0.07500000000000284
                },
                {
                    "name": "C3",
                    "midi": 48,
                    "time": 108.30000000000038,
                    "velocity": 0.3700787401574803,
                    "duration": 0.07500000000000284
                },
                {
                    "name": "C#3",
                    "midi": 49,
                    "time": 108.37500000000038,
                    "velocity": 0.3858267716535433,
                    "duration": 0.07500000000000284
                },
                {
                    "name": "D#3",
                    "midi": 51,
                    "time": 108.45000000000039,
                    "velocity": 0.3937007874015748,
                    "duration": 0.07500000000000284
                },
                {
                    "name": "E3",
                    "midi": 52,
                    "time": 108.52500000000039,
                    "velocity": 0.4015748031496063,
                    "duration": 0.07500000000000284
                },
                {
                    "name": "F#3",
                    "midi": 54,
                    "time": 108.60000000000039,
                    "velocity": 0.4094488188976378,
                    "duration": 0.07500000000000284
                },
                {
                    "name": "G3",
                    "midi": 55,
                    "time": 108.6750000000004,
                    "velocity": 0.44881889763779526,
                    "duration": 0.07500000000000284
                },
                {
                    "name": "G#3",
                    "midi": 56,
                    "time": 108.7500000000004,
                    "velocity": 0.4881889763779528,
                    "duration": 0.07500000000000284
                },
                {
                    "name": "B3",
                    "midi": 59,
                    "time": 108.8250000000004,
                    "velocity": 0.5433070866141733,
                    "duration": 0.07500000000000284
                },
                {
                    "name": "A3",
                    "midi": 57,
                    "time": 108.9000000000004,
                    "velocity": 0.4566929133858268,
                    "duration": 0.07500000000000284
                },
                {
                    "name": "G#3",
                    "midi": 56,
                    "time": 108.9750000000004,
                    "velocity": 0.3700787401574803,
                    "duration": 0.07500000000000284
                },
                {
                    "name": "A3",
                    "midi": 57,
                    "time": 109.05000000000041,
                    "velocity": 0.3779527559055118,
                    "duration": 0.07500000000000284
                },
                {
                    "name": "C4",
                    "midi": 60,
                    "time": 109.12500000000041,
                    "velocity": 0.3858267716535433,
                    "duration": 0.07500000000000284
                },
                {
                    "name": "C#4",
                    "midi": 61,
                    "time": 109.20000000000041,
                    "velocity": 0.3937007874015748,
                    "duration": 0.07500000000000284
                },
                {
                    "name": "D#4",
                    "midi": 63,
                    "time": 109.27500000000042,
                    "velocity": 0.4015748031496063,
                    "duration": 0.07500000000000284
                },
                {
                    "name": "E4",
                    "midi": 64,
                    "time": 109.35000000000042,
                    "velocity": 0.4094488188976378,
                    "duration": 0.07500000000000284
                },
                {
                    "name": "F#4",
                    "midi": 66,
                    "time": 109.42500000000042,
                    "velocity": 0.41732283464566927,
                    "duration": 0.07500000000000284
                },
                {
                    "name": "A2",
                    "midi": 45,
                    "time": 117.90000000000043,
                    "velocity": 0.28346456692913385,
                    "duration": 0.29999999999999716
                },
                {
                    "name": "A4",
                    "midi": 69,
                    "time": 118.35000000000043,
                    "velocity": 0.25984251968503935,
                    "duration": 0.15000000000000568
                },
                {
                    "name": "E4",
                    "midi": 64,
                    "time": 118.35000000000043,
                    "velocity": 0.2125984251968504,
                    "duration": 0.15000000000000568
                },
                {
                    "name": "C#4",
                    "midi": 61,
                    "time": 118.35000000000043,
                    "velocity": 0.2125984251968504,
                    "duration": 0.15000000000000568
                },
                {
                    "name": "E4",
                    "midi": 64,
                    "time": 118.50000000000044,
                    "velocity": 0.25984251968503935,
                    "duration": 0.5999999999999943
                },
                {
                    "name": "A4",
                    "midi": 69,
                    "time": 118.50000000000044,
                    "velocity": 0.25984251968503935,
                    "duration": 0.5999999999999943
                },
                {
                    "name": "C#5",
                    "midi": 73,
                    "time": 118.50000000000044,
                    "velocity": 0.30708661417322836,
                    "duration": 0.5999999999999943
                },
                {
                    "name": "C#3",
                    "midi": 49,
                    "time": 119.10000000000043,
                    "velocity": 0.33070866141732286,
                    "duration": 0.29999999999999716
                },
                {
                    "name": "A4",
                    "midi": 69,
                    "time": 119.55000000000044,
                    "velocity": 0.25984251968503935,
                    "duration": 0.15000000000000568
                },
                {
                    "name": "E4",
                    "midi": 64,
                    "time": 119.55000000000044,
                    "velocity": 0.2125984251968504,
                    "duration": 0.15000000000000568
                },
                {
                    "name": "C#4",
                    "midi": 61,
                    "time": 119.55000000000044,
                    "velocity": 0.2125984251968504,
                    "duration": 0.15000000000000568
                },
                {
                    "name": "C#5",
                    "midi": 73,
                    "time": 119.70000000000044,
                    "velocity": 0.30708661417322836,
                    "duration": 0.5999999999999943
                },
                {
                    "name": "A4",
                    "midi": 69,
                    "time": 119.70000000000044,
                    "velocity": 0.25984251968503935,
                    "duration": 0.5999999999999943
                },
                {
                    "name": "E4",
                    "midi": 64,
                    "time": 119.70000000000044,
                    "velocity": 0.25984251968503935,
                    "duration": 0.5999999999999943
                },
                {
                    "name": "E2",
                    "midi": 40,
                    "time": 120.30000000000044,
                    "velocity": 0.33070866141732286,
                    "duration": 0.29999999999999716
                },
                {
                    "name": "E4",
                    "midi": 64,
                    "time": 120.75000000000044,
                    "velocity": 0.2125984251968504,
                    "duration": 0.15000000000000568
                },
                {
                    "name": "G#4",
                    "midi": 68,
                    "time": 120.75000000000044,
                    "velocity": 0.25984251968503935,
                    "duration": 0.15000000000000568
                },
                {
                    "name": "B3",
                    "midi": 59,
                    "time": 120.75000000000044,
                    "velocity": 0.2125984251968504,
                    "duration": 0.15000000000000568
                },
                {
                    "name": "B4",
                    "midi": 71,
                    "time": 120.90000000000045,
                    "velocity": 0.30708661417322836,
                    "duration": 0.5999999999999943
                },
                {
                    "name": "E4",
                    "midi": 64,
                    "time": 120.90000000000045,
                    "velocity": 0.25984251968503935,
                    "duration": 0.5999999999999943
                },
                {
                    "name": "G#4",
                    "midi": 68,
                    "time": 120.90000000000045,
                    "velocity": 0.25984251968503935,
                    "duration": 0.5999999999999943
                },
                {
                    "name": "F3",
                    "midi": 53,
                    "time": 122.10000000000043,
                    "velocity": 0.30708661417322836,
                    "duration": 0.5999999999999943
                },
                {
                    "name": "C#4",
                    "midi": 61,
                    "time": 122.10000000000043,
                    "velocity": 0.30708661417322836,
                    "duration": 0.5999999999999943
                },
                {
                    "name": "G#4",
                    "midi": 68,
                    "time": 122.10000000000043,
                    "velocity": 0.4094488188976378,
                    "duration": 0.5999999999999943
                },
                {
                    "name": "F#2",
                    "midi": 42,
                    "time": 122.70000000000043,
                    "velocity": 0.33070866141732286,
                    "duration": 0.29999999999999716
                },
                {
                    "name": "A3",
                    "midi": 57,
                    "time": 123.15000000000043,
                    "velocity": 0.2125984251968504,
                    "duration": 0.15000000000000568
                },
                {
                    "name": "F#4",
                    "midi": 66,
                    "time": 123.15000000000043,
                    "velocity": 0.25984251968503935,
                    "duration": 0.15000000000000568
                },
                {
                    "name": "C#4",
                    "midi": 61,
                    "time": 123.15000000000043,
                    "velocity": 0.2125984251968504,
                    "duration": 0.15000000000000568
                },
                {
                    "name": "F#4",
                    "midi": 66,
                    "time": 123.30000000000044,
                    "velocity": 0.25984251968503935,
                    "duration": 0.5999999999999943
                },
                {
                    "name": "A4",
                    "midi": 69,
                    "time": 123.30000000000044,
                    "velocity": 0.30708661417322836,
                    "duration": 0.5999999999999943
                },
                {
                    "name": "C#4",
                    "midi": 61,
                    "time": 123.30000000000044,
                    "velocity": 0.25984251968503935,
                    "duration": 0.5999999999999943
                },
                {
                    "name": "A2",
                    "midi": 45,
                    "time": 123.90000000000043,
                    "velocity": 0.33070866141732286,
                    "duration": 0.29999999999999716
                },
                {
                    "name": "C#4",
                    "midi": 61,
                    "time": 124.35000000000043,
                    "velocity": 0.2125984251968504,
                    "duration": 0.15000000000000568
                },
                {
                    "name": "F#4",
                    "midi": 66,
                    "time": 124.35000000000043,
                    "velocity": 0.25984251968503935,
                    "duration": 0.15000000000000568
                },
                {
                    "name": "A3",
                    "midi": 57,
                    "time": 124.35000000000043,
                    "velocity": 0.2125984251968504,
                    "duration": 0.15000000000000568
                },
                {
                    "name": "C#4",
                    "midi": 61,
                    "time": 124.50000000000044,
                    "velocity": 0.25984251968503935,
                    "duration": 0.5999999999999943
                },
                {
                    "name": "A4",
                    "midi": 69,
                    "time": 124.50000000000044,
                    "velocity": 0.30708661417322836,
                    "duration": 0.5999999999999943
                },
                {
                    "name": "F#4",
                    "midi": 66,
                    "time": 124.50000000000044,
                    "velocity": 0.25984251968503935,
                    "duration": 0.5999999999999943
                },
                {
                    "name": "C#3",
                    "midi": 49,
                    "time": 125.10000000000043,
                    "velocity": 0.33070866141732286,
                    "duration": 0.29999999999999716
                },
                {
                    "name": "G#3",
                    "midi": 56,
                    "time": 125.55000000000044,
                    "velocity": 0.2125984251968504,
                    "duration": 0.15000000000000568
                },
                {
                    "name": "E4",
                    "midi": 64,
                    "time": 125.55000000000044,
                    "velocity": 0.25984251968503935,
                    "duration": 0.15000000000000568
                },
                {
                    "name": "C#4",
                    "midi": 61,
                    "time": 125.55000000000044,
                    "velocity": 0.2125984251968504,
                    "duration": 0.15000000000000568
                },
                {
                    "name": "G#4",
                    "midi": 68,
                    "time": 125.70000000000044,
                    "velocity": 0.30708661417322836,
                    "duration": 0.5999999999999943
                },
                {
                    "name": "E4",
                    "midi": 64,
                    "time": 125.70000000000044,
                    "velocity": 0.25984251968503935,
                    "duration": 0.5999999999999943
                },
                {
                    "name": "C#4",
                    "midi": 61,
                    "time": 125.70000000000044,
                    "velocity": 0.25984251968503935,
                    "duration": 0.5999999999999943
                },
                {
                    "name": "C#2",
                    "midi": 37,
                    "time": 127.27500000000043,
                    "velocity": 0.30708661417322836,
                    "duration": 0.07500000000000284
                },
                {
                    "name": "D#2",
                    "midi": 39,
                    "time": 127.35000000000043,
                    "velocity": 0.33858267716535434,
                    "duration": 0.07500000000000284
                },
                {
                    "name": "E2",
                    "midi": 40,
                    "time": 127.42500000000044,
                    "velocity": 0.3700787401574803,
                    "duration": 0.07500000000000284
                },
                {
                    "name": "F#2",
                    "midi": 42,
                    "time": 127.50000000000044,
                    "velocity": 0.3937007874015748,
                    "duration": 0.29999999999999716
                },
                {
                    "name": "D4",
                    "midi": 62,
                    "time": 128.10000000000045,
                    "velocity": 0.25984251968503935,
                    "duration": 0.9000000000000057
                },
                {
                    "name": "F#3",
                    "midi": 54,
                    "time": 128.10000000000045,
                    "velocity": 0.25984251968503935,
                    "duration": 0.9000000000000057
                },
                {
                    "name": "F#4",
                    "midi": 66,
                    "time": 128.10000000000045,
                    "velocity": 0.30708661417322836,
                    "duration": 0.9000000000000057
                },
                {
                    "name": "A3",
                    "midi": 57,
                    "time": 128.10000000000045,
                    "velocity": 0.25984251968503935,
                    "duration": 0.9000000000000057
                },
                {
                    "name": "D2",
                    "midi": 38,
                    "time": 129.67500000000047,
                    "velocity": 0.30708661417322836,
                    "duration": 0.07499999999998863
                },
                {
                    "name": "E2",
                    "midi": 40,
                    "time": 129.75000000000045,
                    "velocity": 0.33858267716535434,
                    "duration": 0.07499999999998863
                },
                {
                    "name": "F#2",
                    "midi": 42,
                    "time": 129.82500000000044,
                    "velocity": 0.3700787401574803,
                    "duration": 0.07499999999998863
                },
                {
                    "name": "G#2",
                    "midi": 44,
                    "time": 129.90000000000043,
                    "velocity": 0.3937007874015748,
                    "duration": 0.15000000000000568
                },
                {
                    "name": "A3",
                    "midi": 57,
                    "time": 130.50000000000043,
                    "velocity": 0.25984251968503935,
                    "duration": 0.9000000000000057
                },
                {
                    "name": "D4",
                    "midi": 62,
                    "time": 130.50000000000043,
                    "velocity": 0.30708661417322836,
                    "duration": 0.9000000000000057
                },
                {
                    "name": "C4",
                    "midi": 60,
                    "time": 130.50000000000043,
                    "velocity": 0.25984251968503935,
                    "duration": 0.9000000000000057
                },
                {
                    "name": "F#3",
                    "midi": 54,
                    "time": 130.50000000000043,
                    "velocity": 0.25984251968503935,
                    "duration": 0.9000000000000057
                },
                {
                    "name": "A2",
                    "midi": 45,
                    "time": 132.30000000000044,
                    "velocity": 0.2204724409448819,
                    "duration": 0.30000000000001137
                },
                {
                    "name": "C#4",
                    "midi": 61,
                    "time": 132.90000000000046,
                    "velocity": 0.2440944881889764,
                    "duration": 0.5999999999999943
                },
                {
                    "name": "E3",
                    "midi": 52,
                    "time": 132.90000000000046,
                    "velocity": 0.2047244094488189,
                    "duration": 0.5999999999999943
                },
                {
                    "name": "A3",
                    "midi": 57,
                    "time": 132.90000000000046,
                    "velocity": 0.2047244094488189,
                    "duration": 0.5999999999999943
                },
                {
                    "name": "C#3",
                    "midi": 49,
                    "time": 133.50000000000045,
                    "velocity": 0.29133858267716534,
                    "duration": 0.30000000000001137
                },
                {
                    "name": "E3",
                    "midi": 52,
                    "time": 134.10000000000048,
                    "velocity": 0.2283464566929134,
                    "duration": 0.5999999999999943
                },
                {
                    "name": "A3",
                    "midi": 57,
                    "time": 134.10000000000048,
                    "velocity": 0.2283464566929134,
                    "duration": 0.5999999999999943
                },
                {
                    "name": "C#4",
                    "midi": 61,
                    "time": 134.10000000000048,
                    "velocity": 0.2755905511811024,
                    "duration": 0.5999999999999943
                },
                {
                    "name": "E2",
                    "midi": 40,
                    "time": 134.70000000000047,
                    "velocity": 0.29133858267716534,
                    "duration": 0.30000000000001137
                },
                {
                    "name": "E3",
                    "midi": 52,
                    "time": 135.3000000000005,
                    "velocity": 0.2283464566929134,
                    "duration": 0.5999999999999943
                },
                {
                    "name": "G#3",
                    "midi": 56,
                    "time": 135.3000000000005,
                    "velocity": 0.2283464566929134,
                    "duration": 0.5999999999999943
                },
                {
                    "name": "B3",
                    "midi": 59,
                    "time": 135.3000000000005,
                    "velocity": 0.2755905511811024,
                    "duration": 0.5999999999999943
                },
                {
                    "name": "G#3",
                    "midi": 56,
                    "time": 136.50000000000048,
                    "velocity": 0.36220472440944884,
                    "duration": 0.5999999999999943
                },
                {
                    "name": "C#3",
                    "midi": 49,
                    "time": 136.50000000000048,
                    "velocity": 0.2755905511811024,
                    "duration": 0.5999999999999943
                },
                {
                    "name": "F2",
                    "midi": 41,
                    "time": 136.50000000000048,
                    "velocity": 0.2755905511811024,
                    "duration": 0.5999999999999943
                },
                {
                    "name": "F#2",
                    "midi": 42,
                    "time": 137.10000000000048,
                    "velocity": 0.29133858267716534,
                    "duration": 0.15000000000000568
                },
                {
                    "name": "C#3",
                    "midi": 49,
                    "time": 137.70000000000047,
                    "velocity": 0.2283464566929134,
                    "duration": 0.5999999999999943
                },
                {
                    "name": "F#3",
                    "midi": 54,
                    "time": 137.70000000000047,
                    "velocity": 0.2283464566929134,
                    "duration": 0.5999999999999943
                },
                {
                    "name": "A3",
                    "midi": 57,
                    "time": 137.70000000000047,
                    "velocity": 0.2755905511811024,
                    "duration": 0.5999999999999943
                },
                {
                    "name": "A2",
                    "midi": 45,
                    "time": 138.30000000000047,
                    "velocity": 0.29133858267716534,
                    "duration": 0.30000000000001137
                },
                {
                    "name": "C#3",
                    "midi": 49,
                    "time": 138.9000000000005,
                    "velocity": 0.2283464566929134,
                    "duration": 0.5999999999999943
                },
                {
                    "name": "F#3",
                    "midi": 54,
                    "time": 138.9000000000005,
                    "velocity": 0.2283464566929134,
                    "duration": 0.5999999999999943
                },
                {
                    "name": "A3",
                    "midi": 57,
                    "time": 138.9000000000005,
                    "velocity": 0.2755905511811024,
                    "duration": 0.5999999999999943
                },
                {
                    "name": "C#2",
                    "midi": 37,
                    "time": 139.50000000000048,
                    "velocity": 0.29133858267716534,
                    "duration": 0.30000000000001137
                },
                {
                    "name": "G#3",
                    "midi": 56,
                    "time": 140.1000000000005,
                    "velocity": 0.2755905511811024,
                    "duration": 0.5999999999999943
                },
                {
                    "name": "E3",
                    "midi": 52,
                    "time": 140.1000000000005,
                    "velocity": 0.2283464566929134,
                    "duration": 0.5999999999999943
                },
                {
                    "name": "C#3",
                    "midi": 49,
                    "time": 140.1000000000005,
                    "velocity": 0.2283464566929134,
                    "duration": 0.5999999999999943
                },
                {
                    "name": "C#2",
                    "midi": 37,
                    "time": 141.6750000000005,
                    "velocity": 0.2755905511811024,
                    "duration": 0.07499999999998863
                },
                {
                    "name": "D#2",
                    "midi": 39,
                    "time": 141.75000000000048,
                    "velocity": 0.2992125984251969,
                    "duration": 0.07499999999998863
                },
                {
                    "name": "E2",
                    "midi": 40,
                    "time": 141.82500000000047,
                    "velocity": 0.33070866141732286,
                    "duration": 0.07499999999998863
                },
                {
                    "name": "F#1",
                    "midi": 30,
                    "time": 141.90000000000046,
                    "velocity": 0.3543307086614173,
                    "duration": 0.30000000000001137
                },
                {
                    "name": "F#3",
                    "midi": 54,
                    "time": 142.50000000000048,
                    "velocity": 0.2755905511811024,
                    "duration": 0.9000000000000057
                },
                {
                    "name": "F#2",
                    "midi": 42,
                    "time": 142.50000000000048,
                    "velocity": 0.2283464566929134,
                    "duration": 0.9000000000000057
                },
                {
                    "name": "D3",
                    "midi": 50,
                    "time": 142.50000000000048,
                    "velocity": 0.2283464566929134,
                    "duration": 0.9000000000000057
                },
                {
                    "name": "A2",
                    "midi": 45,
                    "time": 142.50000000000048,
                    "velocity": 0.2283464566929134,
                    "duration": 0.9000000000000057
                },
                {
                    "name": "D2",
                    "midi": 38,
                    "time": 144.0750000000005,
                    "velocity": 0.2755905511811024,
                    "duration": 0.07499999999998863
                },
                {
                    "name": "E2",
                    "midi": 40,
                    "time": 144.1500000000005,
                    "velocity": 0.2992125984251969,
                    "duration": 0.07499999999998863
                },
                {
                    "name": "F#2",
                    "midi": 42,
                    "time": 144.22500000000048,
                    "velocity": 0.33070866141732286,
                    "duration": 0.07499999999998863
                },
                {
                    "name": "G#1",
                    "midi": 32,
                    "time": 144.30000000000047,
                    "velocity": 0.3543307086614173,
                    "duration": 0.30000000000001137
                },
                {
                    "name": "F#2",
                    "midi": 42,
                    "time": 144.9000000000005,
                    "velocity": 0.2047244094488189,
                    "duration": 1.8000000000000114
                },
                {
                    "name": "D3",
                    "midi": 50,
                    "time": 144.9000000000005,
                    "velocity": 0.2440944881889764,
                    "duration": 1.8000000000000114
                },
                {
                    "name": "C3",
                    "midi": 48,
                    "time": 144.9000000000005,
                    "velocity": 0.2047244094488189,
                    "duration": 1.8000000000000114
                },
                {
                    "name": "A2",
                    "midi": 45,
                    "time": 144.9000000000005,
                    "velocity": 0.2047244094488189,
                    "duration": 1.8000000000000114
                },
                {
                    "name": "G#1",
                    "midi": 32,
                    "time": 147.6750000000005,
                    "velocity": 0.23622047244094488,
                    "duration": 0.07499999999998863
                },
                {
                    "name": "A1",
                    "midi": 33,
                    "time": 147.75000000000048,
                    "velocity": 0.2440944881889764,
                    "duration": 0.07499999999998863
                },
                {
                    "name": "C2",
                    "midi": 36,
                    "time": 147.82500000000047,
                    "velocity": 0.25984251968503935,
                    "duration": 0.07499999999998863
                },
                {
                    "name": "C#2",
                    "midi": 37,
                    "time": 147.90000000000046,
                    "velocity": 0.2440944881889764,
                    "duration": 0.9749999999999943
                },
                {
                    "name": "C#2",
                    "midi": 37,
                    "time": 148.87500000000045,
                    "velocity": 0.23622047244094488,
                    "duration": 0.07499999999998863
                },
                {
                    "name": "B1",
                    "midi": 35,
                    "time": 148.95000000000044,
                    "velocity": 0.2440944881889764,
                    "duration": 0.07499999999998863
                },
                {
                    "name": "C#2",
                    "midi": 37,
                    "time": 149.02500000000043,
                    "velocity": 0.25984251968503935,
                    "duration": 0.07499999999998863
                },
                {
                    "name": "B1",
                    "midi": 35,
                    "time": 149.10000000000042,
                    "velocity": 0.2440944881889764,
                    "duration": 0.7199999999999989
                },
                {
                    "name": "C#2",
                    "midi": 37,
                    "time": 149.82000000000042,
                    "velocity": 0.2440944881889764,
                    "duration": 0.12000000000000455
                },
                {
                    "name": "E2",
                    "midi": 40,
                    "time": 149.94000000000042,
                    "velocity": 0.2755905511811024,
                    "duration": 0.12000000000000455
                },
                {
                    "name": "D2",
                    "midi": 38,
                    "time": 150.06000000000043,
                    "velocity": 0.25984251968503935,
                    "duration": 0.12000000000000455
                },
                {
                    "name": "C#2",
                    "midi": 37,
                    "time": 150.18000000000043,
                    "velocity": 0.2755905511811024,
                    "duration": 0.11250000000001137
                },
                {
                    "name": "C#2",
                    "midi": 37,
                    "time": 150.30000000000044,
                    "velocity": 0.2440944881889764,
                    "duration": 0.9749999999999943
                },
                {
                    "name": "C#2",
                    "midi": 37,
                    "time": 151.27500000000043,
                    "velocity": 0.23622047244094488,
                    "duration": 0.07499999999998863
                },
                {
                    "name": "B1",
                    "midi": 35,
                    "time": 151.35000000000042,
                    "velocity": 0.2440944881889764,
                    "duration": 0.07499999999998863
                },
                {
                    "name": "C#2",
                    "midi": 37,
                    "time": 151.4250000000004,
                    "velocity": 0.2440944881889764,
                    "duration": 0.07499999999998863
                },
                {
                    "name": "B1",
                    "midi": 35,
                    "time": 151.5000000000004,
                    "velocity": 0.2440944881889764,
                    "duration": 0.6999999999999886
                },
                {
                    "name": "A1",
                    "midi": 33,
                    "time": 152.2000000000004,
                    "velocity": 0.2755905511811024,
                    "duration": 0.09999999999999432
                },
                {
                    "name": "G#1",
                    "midi": 32,
                    "time": 152.30000000000038,
                    "velocity": 0.23622047244094488,
                    "duration": 0.09999999999999432
                },
                {
                    "name": "B1",
                    "midi": 35,
                    "time": 152.40000000000038,
                    "velocity": 0.2755905511811024,
                    "duration": 0.09999999999999432
                },
                {
                    "name": "A1",
                    "midi": 33,
                    "time": 152.50000000000037,
                    "velocity": 0.2440944881889764,
                    "duration": 0.09999999999999432
                },
                {
                    "name": "G#1",
                    "midi": 32,
                    "time": 152.60000000000036,
                    "velocity": 0.2440944881889764,
                    "duration": 0.08750000000000568
                },
                {
                    "name": "G#1",
                    "midi": 32,
                    "time": 152.70000000000036,
                    "velocity": 0.2440944881889764,
                    "duration": 1.1999999999999886
                },
                {
                    "name": "G#1",
                    "midi": 32,
                    "time": 153.90000000000035,
                    "velocity": 0.30708661417322836,
                    "duration": 1.1999999999999886
                },
                {
                    "name": "C#1",
                    "midi": 25,
                    "time": 155.10000000000034,
                    "velocity": 0.18110236220472442,
                    "duration": 1.8000000000000114
                },
                {
                    "name": "C#2",
                    "midi": 37,
                    "time": 155.10000000000034,
                    "velocity": 0.2125984251968504,
                    "duration": 1.8000000000000114
                },
                {
                    "name": "G#1",
                    "midi": 32,
                    "time": 155.10000000000034,
                    "velocity": 0.18110236220472442,
                    "duration": 1.8000000000000114
                },
                {
                    "name": "G#4",
                    "midi": 68,
                    "time": 167.55000000000035,
                    "velocity": 0.2283464566929134,
                    "duration": 0.07499999999998863
                },
                {
                    "name": "F5",
                    "midi": 77,
                    "time": 167.62500000000034,
                    "velocity": 0.2283464566929134,
                    "duration": 0.07499999999998863
                },
                {
                    "name": "G#4",
                    "midi": 68,
                    "time": 167.70000000000033,
                    "velocity": 0.2992125984251969,
                    "duration": 0.5250000000000057
                },
                {
                    "name": "G#6",
                    "midi": 92,
                    "time": 168.75000000000034,
                    "velocity": 0.28346456692913385,
                    "duration": 0.07499999999998863
                },
                {
                    "name": "C#7",
                    "midi": 97,
                    "time": 168.82500000000033,
                    "velocity": 0.25984251968503935,
                    "duration": 0.07499999999998863
                },
                {
                    "name": "G#6",
                    "midi": 92,
                    "time": 168.90000000000032,
                    "velocity": 0.3543307086614173,
                    "duration": 0.5250000000000057
                },
                {
                    "name": "C#4",
                    "midi": 61,
                    "time": 169.95000000000033,
                    "velocity": 0.2283464566929134,
                    "duration": 0.07499999999998863
                },
                {
                    "name": "A4",
                    "midi": 69,
                    "time": 170.02500000000032,
                    "velocity": 0.2283464566929134,
                    "duration": 0.07499999999998863
                },
                {
                    "name": "C#4",
                    "midi": 61,
                    "time": 170.1000000000003,
                    "velocity": 0.2992125984251969,
                    "duration": 0.5250000000000057
                },
                {
                    "name": "F#6",
                    "midi": 90,
                    "time": 171.15000000000032,
                    "velocity": 0.28346456692913385,
                    "duration": 0.07499999999998863
                },
                {
                    "name": "C#7",
                    "midi": 97,
                    "time": 171.2250000000003,
                    "velocity": 0.28346456692913385,
                    "duration": 0.07499999999998863
                },
                {
                    "name": "F#6",
                    "midi": 90,
                    "time": 171.3000000000003,
                    "velocity": 0.3543307086614173,
                    "duration": 0.5250000000000057
                },
                {
                    "name": "G#4",
                    "midi": 68,
                    "time": 172.3500000000003,
                    "velocity": 0.2283464566929134,
                    "duration": 0.07499999999998863
                },
                {
                    "name": "F5",
                    "midi": 77,
                    "time": 172.4250000000003,
                    "velocity": 0.2283464566929134,
                    "duration": 0.07499999999998863
                },
                {
                    "name": "G#4",
                    "midi": 68,
                    "time": 172.50000000000028,
                    "velocity": 0.2992125984251969,
                    "duration": 0.5250000000000057
                },
                {
                    "name": "G#6",
                    "midi": 92,
                    "time": 173.5500000000003,
                    "velocity": 0.28346456692913385,
                    "duration": 0.07499999999998863
                },
                {
                    "name": "C#7",
                    "midi": 97,
                    "time": 173.62500000000028,
                    "velocity": 0.25984251968503935,
                    "duration": 0.07499999999998863
                },
                {
                    "name": "G#6",
                    "midi": 92,
                    "time": 173.70000000000027,
                    "velocity": 0.3543307086614173,
                    "duration": 0.5250000000000057
                },
                {
                    "name": "C#4",
                    "midi": 61,
                    "time": 174.75000000000028,
                    "velocity": 0.2283464566929134,
                    "duration": 0.07499999999998863
                },
                {
                    "name": "A4",
                    "midi": 69,
                    "time": 174.82500000000027,
                    "velocity": 0.2283464566929134,
                    "duration": 0.07499999999998863
                },
                {
                    "name": "C#4",
                    "midi": 61,
                    "time": 174.90000000000026,
                    "velocity": 0.2992125984251969,
                    "duration": 0.5250000000000057
                },
                {
                    "name": "F#6",
                    "midi": 90,
                    "time": 175.95000000000027,
                    "velocity": 0.28346456692913385,
                    "duration": 0.07499999999998863
                },
                {
                    "name": "C#7",
                    "midi": 97,
                    "time": 176.02500000000026,
                    "velocity": 0.28346456692913385,
                    "duration": 0.07499999999998863
                },
                {
                    "name": "F#6",
                    "midi": 90,
                    "time": 176.10000000000025,
                    "velocity": 0.3543307086614173,
                    "duration": 0.4900000000000091
                },
                {
                    "name": "G#4",
                    "midi": 68,
                    "time": 177.15000000000026,
                    "velocity": 0.2283464566929134,
                    "duration": 0.07499999999998863
                },
                {
                    "name": "F5",
                    "midi": 77,
                    "time": 177.22500000000025,
                    "velocity": 0.2283464566929134,
                    "duration": 0.07499999999998863
                },
                {
                    "name": "G#4",
                    "midi": 68,
                    "time": 177.30000000000024,
                    "velocity": 0.2992125984251969,
                    "duration": 0.5250000000000057
                },
                {
                    "name": "G#6",
                    "midi": 92,
                    "time": 178.35000000000025,
                    "velocity": 0.28346456692913385,
                    "duration": 0.07499999999998863
                },
                {
                    "name": "C#7",
                    "midi": 97,
                    "time": 178.42500000000024,
                    "velocity": 0.28346456692913385,
                    "duration": 0.07499999999998863
                },
                {
                    "name": "G#6",
                    "midi": 92,
                    "time": 178.50000000000023,
                    "velocity": 0.3543307086614173,
                    "duration": 0.44999999999998863
                },
                {
                    "name": "C#4",
                    "midi": 61,
                    "time": 179.5500000000002,
                    "velocity": 0.2283464566929134,
                    "duration": 0.07499999999998863
                },
                {
                    "name": "A4",
                    "midi": 69,
                    "time": 179.6250000000002,
                    "velocity": 0.2283464566929134,
                    "duration": 0.07499999999998863
                },
                {
                    "name": "C#4",
                    "midi": 61,
                    "time": 179.7000000000002,
                    "velocity": 0.2992125984251969,
                    "duration": 0.44999999999998863
                },
                {
                    "name": "F#6",
                    "midi": 90,
                    "time": 180.75000000000017,
                    "velocity": 0.28346456692913385,
                    "duration": 0.07499999999998863
                },
                {
                    "name": "C#7",
                    "midi": 97,
                    "time": 180.82500000000016,
                    "velocity": 0.28346456692913385,
                    "duration": 0.07499999999998863
                },
                {
                    "name": "F#6",
                    "midi": 90,
                    "time": 180.90000000000015,
                    "velocity": 0.3543307086614173,
                    "duration": 0.44999999999998863
                },
                {
                    "name": "G#4",
                    "midi": 68,
                    "time": 181.95000000000013,
                    "velocity": 0.2283464566929134,
                    "duration": 0.07499999999998863
                },
                {
                    "name": "F5",
                    "midi": 77,
                    "time": 182.02500000000012,
                    "velocity": 0.2283464566929134,
                    "duration": 0.07499999999998863
                },
                {
                    "name": "G#4",
                    "midi": 68,
                    "time": 182.1000000000001,
                    "velocity": 0.2992125984251969,
                    "duration": 0.44999999999998863
                },
                {
                    "name": "G#6",
                    "midi": 92,
                    "time": 183.1500000000001,
                    "velocity": 0.28346456692913385,
                    "duration": 0.07499999999998863
                },
                {
                    "name": "C#7",
                    "midi": 97,
                    "time": 183.22500000000008,
                    "velocity": 0.28346456692913385,
                    "duration": 0.07499999999998863
                },
                {
                    "name": "G#6",
                    "midi": 92,
                    "time": 183.30000000000007,
                    "velocity": 0.3543307086614173,
                    "duration": 0.44999999999998863
                },
                {
                    "name": "C#4",
                    "midi": 61,
                    "time": 184.35000000000005,
                    "velocity": 0.2283464566929134,
                    "duration": 0.07499999999998863
                },
                {
                    "name": "A4",
                    "midi": 69,
                    "time": 184.42500000000004,
                    "velocity": 0.2283464566929134,
                    "duration": 0.07499999999998863
                },
                {
                    "name": "C#4",
                    "midi": 61,
                    "time": 184.50000000000003,
                    "velocity": 0.2992125984251969,
                    "duration": 0.44999999999998863
                },
                {
                    "name": "F#6",
                    "midi": 90,
                    "time": 185.55,
                    "velocity": 0.28346456692913385,
                    "duration": 0.07499999999998863
                },
                {
                    "name": "C#7",
                    "midi": 97,
                    "time": 185.625,
                    "velocity": 0.28346456692913385,
                    "duration": 0.07499999999998863
                },
                {
                    "name": "F#6",
                    "midi": 90,
                    "time": 185.7,
                    "velocity": 0.3543307086614173,
                    "duration": 0.5999999999999943
                },
                {
                    "name": "E3",
                    "midi": 52,
                    "time": 186.6,
                    "velocity": 0.3464566929133858,
                    "duration": 0.15000000000000568
                },
                {
                    "name": "B3",
                    "midi": 59,
                    "time": 186.9,
                    "velocity": 0.3464566929133858,
                    "duration": 0.15000000000000568
                },
                {
                    "name": "F4",
                    "midi": 65,
                    "time": 187.20000000000002,
                    "velocity": 0.3464566929133858,
                    "duration": 0.15000000000000568
                },
                {
                    "name": "A4",
                    "midi": 69,
                    "time": 187.50000000000003,
                    "velocity": 0.3937007874015748,
                    "duration": 0.15000000000000568
                },
                {
                    "name": "C#4",
                    "midi": 61,
                    "time": 187.80000000000004,
                    "velocity": 0.36220472440944884,
                    "duration": 0.15000000000000568
                },
                {
                    "name": "G#4",
                    "midi": 68,
                    "time": 188.10000000000005,
                    "velocity": 0.3937007874015748,
                    "duration": 0.15000000000000568
                },
                {
                    "name": "C#4",
                    "midi": 61,
                    "time": 188.40000000000006,
                    "velocity": 0.36220472440944884,
                    "duration": 0.15000000000000568
                },
                {
                    "name": "C#3",
                    "midi": 49,
                    "time": 189.00000000000006,
                    "velocity": 0.3464566929133858,
                    "duration": 0.15000000000000568
                },
                {
                    "name": "A3",
                    "midi": 57,
                    "time": 189.30000000000007,
                    "velocity": 0.3464566929133858,
                    "duration": 0.15000000000000568
                },
                {
                    "name": "C#4",
                    "midi": 61,
                    "time": 189.60000000000008,
                    "velocity": 0.3464566929133858,
                    "duration": 0.15000000000000568
                },
                {
                    "name": "A4",
                    "midi": 69,
                    "time": 189.9000000000001,
                    "velocity": 0.3937007874015748,
                    "duration": 0.15000000000000568
                },
                {
                    "name": "C#4",
                    "midi": 61,
                    "time": 190.2000000000001,
                    "velocity": 0.36220472440944884,
                    "duration": 0.15000000000000568
                },
                {
                    "name": "F#4",
                    "midi": 66,
                    "time": 190.5000000000001,
                    "velocity": 0.3937007874015748,
                    "duration": 0.15000000000000568
                },
                {
                    "name": "C#4",
                    "midi": 61,
                    "time": 190.80000000000013,
                    "velocity": 0.36220472440944884,
                    "duration": 0.15000000000000568
                },
                {
                    "name": "C#3",
                    "midi": 49,
                    "time": 191.40000000000012,
                    "velocity": 0.3464566929133858,
                    "duration": 0.15000000000000568
                },
                {
                    "name": "B3",
                    "midi": 59,
                    "time": 191.70000000000013,
                    "velocity": 0.3464566929133858,
                    "duration": 0.15000000000000568
                },
                {
                    "name": "F4",
                    "midi": 65,
                    "time": 192.00000000000014,
                    "velocity": 0.3464566929133858,
                    "duration": 0.15000000000000568
                },
                {
                    "name": "A4",
                    "midi": 69,
                    "time": 192.30000000000015,
                    "velocity": 0.3937007874015748,
                    "duration": 0.15000000000000568
                },
                {
                    "name": "C#4",
                    "midi": 61,
                    "time": 192.60000000000016,
                    "velocity": 0.36220472440944884,
                    "duration": 0.15000000000000568
                },
                {
                    "name": "G#4",
                    "midi": 68,
                    "time": 192.90000000000018,
                    "velocity": 0.3937007874015748,
                    "duration": 0.15000000000000568
                },
                {
                    "name": "C#4",
                    "midi": 61,
                    "time": 193.2000000000002,
                    "velocity": 0.36220472440944884,
                    "duration": 0.15000000000000568
                },
                {
                    "name": "C#3",
                    "midi": 49,
                    "time": 193.80000000000018,
                    "velocity": 0.3464566929133858,
                    "duration": 0.15000000000000568
                },
                {
                    "name": "A3",
                    "midi": 57,
                    "time": 194.1000000000002,
                    "velocity": 0.3464566929133858,
                    "duration": 0.15000000000000568
                },
                {
                    "name": "C#4",
                    "midi": 61,
                    "time": 194.4000000000002,
                    "velocity": 0.3464566929133858,
                    "duration": 0.15000000000000568
                },
                {
                    "name": "A4",
                    "midi": 69,
                    "time": 194.70000000000022,
                    "velocity": 0.3937007874015748,
                    "duration": 0.15000000000000568
                },
                {
                    "name": "C#4",
                    "midi": 61,
                    "time": 195.00000000000023,
                    "velocity": 0.36220472440944884,
                    "duration": 0.15000000000000568
                },
                {
                    "name": "F#4",
                    "midi": 66,
                    "time": 195.30000000000024,
                    "velocity": 0.3937007874015748,
                    "duration": 0.15000000000000568
                },
                {
                    "name": "C#4",
                    "midi": 61,
                    "time": 195.60000000000025,
                    "velocity": 0.36220472440944884,
                    "duration": 0.15000000000000568
                },
                {
                    "name": "C#3",
                    "midi": 49,
                    "time": 196.20000000000024,
                    "velocity": 0.3464566929133858,
                    "duration": 0.15000000000000568
                },
                {
                    "name": "B3",
                    "midi": 59,
                    "time": 196.50000000000026,
                    "velocity": 0.3464566929133858,
                    "duration": 0.15000000000000568
                },
                {
                    "name": "F4",
                    "midi": 65,
                    "time": 196.80000000000027,
                    "velocity": 0.3464566929133858,
                    "duration": 0.15000000000000568
                },
                {
                    "name": "F4",
                    "midi": 65,
                    "time": 197.40000000000026,
                    "velocity": 0.36220472440944884,
                    "duration": 0.15000000000000568
                },
                {
                    "name": "B3",
                    "midi": 59,
                    "time": 197.70000000000027,
                    "velocity": 0.3937007874015748,
                    "duration": 0.15000000000000568
                },
                {
                    "name": "C#3",
                    "midi": 49,
                    "time": 198.00000000000028,
                    "velocity": 0.36220472440944884,
                    "duration": 0.15000000000000568
                },
                {
                    "name": "C#3",
                    "midi": 49,
                    "time": 198.60000000000028,
                    "velocity": 0.3464566929133858,
                    "duration": 0.15000000000000568
                },
                {
                    "name": "A3",
                    "midi": 57,
                    "time": 198.9000000000003,
                    "velocity": 0.3464566929133858,
                    "duration": 0.15000000000000568
                },
                {
                    "name": "F#4",
                    "midi": 66,
                    "time": 199.2000000000003,
                    "velocity": 0.3464566929133858,
                    "duration": 0.15000000000000568
                },
                {
                    "name": "F#4",
                    "midi": 66,
                    "time": 199.8000000000003,
                    "velocity": 0.36220472440944884,
                    "duration": 0.15000000000000568
                },
                {
                    "name": "A3",
                    "midi": 57,
                    "time": 200.1000000000003,
                    "velocity": 0.3937007874015748,
                    "duration": 0.15000000000000568
                },
                {
                    "name": "C#3",
                    "midi": 49,
                    "time": 200.40000000000032,
                    "velocity": 0.36220472440944884,
                    "duration": 0.15000000000000568
                },
                {
                    "name": "C#3",
                    "midi": 49,
                    "time": 201.0000000000003,
                    "velocity": 0.3464566929133858,
                    "duration": 0.15000000000000568
                },
                {
                    "name": "B3",
                    "midi": 59,
                    "time": 201.30000000000032,
                    "velocity": 0.3464566929133858,
                    "duration": 0.15000000000000568
                },
                {
                    "name": "F4",
                    "midi": 65,
                    "time": 201.60000000000034,
                    "velocity": 0.3464566929133858,
                    "duration": 0.15000000000000568
                },
                {
                    "name": "F4",
                    "midi": 65,
                    "time": 202.20000000000033,
                    "velocity": 0.36220472440944884,
                    "duration": 0.15000000000000568
                },
                {
                    "name": "B3",
                    "midi": 59,
                    "time": 202.50000000000034,
                    "velocity": 0.3937007874015748,
                    "duration": 0.15000000000000568
                },
                {
                    "name": "C#3",
                    "midi": 49,
                    "time": 202.80000000000035,
                    "velocity": 0.36220472440944884,
                    "duration": 0.15000000000000568
                },
                {
                    "name": "C#3",
                    "midi": 49,
                    "time": 203.40000000000035,
                    "velocity": 0.3464566929133858,
                    "duration": 0.15000000000000568
                },
                {
                    "name": "A3",
                    "midi": 57,
                    "time": 203.70000000000036,
                    "velocity": 0.3464566929133858,
                    "duration": 0.15000000000000568
                },
                {
                    "name": "F#4",
                    "midi": 66,
                    "time": 204.00000000000037,
                    "velocity": 0.3464566929133858,
                    "duration": 0.15000000000000568
                },
                {
                    "name": "F#4",
                    "midi": 66,
                    "time": 204.60000000000036,
                    "velocity": 0.36220472440944884,
                    "duration": 0.15000000000000568
                },
                {
                    "name": "A3",
                    "midi": 57,
                    "time": 204.90000000000038,
                    "velocity": 0.3937007874015748,
                    "duration": 0.15000000000000568
                },
                {
                    "name": "C#3",
                    "midi": 49,
                    "time": 205.2000000000004,
                    "velocity": 0.36220472440944884,
                    "duration": 0.15000000000000568
                },
                {
                    "name": "G#3",
                    "midi": 56,
                    "time": 205.5000000000004,
                    "velocity": 0.4881889763779528,
                    "duration": 0.15000000000000568
                },
                {
                    "name": "B4",
                    "midi": 71,
                    "time": 206.1000000000004,
                    "velocity": 0.47244094488188976,
                    "duration": 0.5999999999999943
                },
                {
                    "name": "C#4",
                    "midi": 61,
                    "time": 206.1000000000004,
                    "velocity": 0.3937007874015748,
                    "duration": 0.5999999999999943
                },
                {
                    "name": "F4",
                    "midi": 65,
                    "time": 206.1000000000004,
                    "velocity": 0.3937007874015748,
                    "duration": 0.5999999999999943
                },
                {
                    "name": "C#3",
                    "midi": 49,
                    "time": 206.7000000000004,
                    "velocity": 0.44881889763779526,
                    "duration": 0.15000000000000568
                },
                {
                    "name": "F4",
                    "midi": 65,
                    "time": 207.0000000000004,
                    "velocity": 0.30708661417322836,
                    "duration": 0.07499999999998863
                },
                {
                    "name": "A4",
                    "midi": 69,
                    "time": 207.0000000000004,
                    "velocity": 0.36220472440944884,
                    "duration": 0.07499999999998863
                },
                {
                    "name": "C#4",
                    "midi": 61,
                    "time": 207.0000000000004,
                    "velocity": 0.30708661417322836,
                    "duration": 0.07499999999998863
                },
                {
                    "name": "B3",
                    "midi": 59,
                    "time": 207.30000000000038,
                    "velocity": 0.36220472440944884,
                    "duration": 0.07499999999998863
                },
                {
                    "name": "C#4",
                    "midi": 61,
                    "time": 207.60000000000036,
                    "velocity": 0.30708661417322836,
                    "duration": 0.07499999999998863
                },
                {
                    "name": "G#4",
                    "midi": 68,
                    "time": 207.60000000000036,
                    "velocity": 0.36220472440944884,
                    "duration": 0.07499999999998863
                },
                {
                    "name": "F4",
                    "midi": 65,
                    "time": 207.60000000000036,
                    "velocity": 0.30708661417322836,
                    "duration": 0.07499999999998863
                },
                {
                    "name": "F#3",
                    "midi": 54,
                    "time": 207.90000000000035,
                    "velocity": 0.5039370078740157,
                    "duration": 0.15000000000000568
                },
                {
                    "name": "F#4",
                    "midi": 66,
                    "time": 208.50000000000034,
                    "velocity": 0.3937007874015748,
                    "duration": 0.5999999999999943
                },
                {
                    "name": "A4",
                    "midi": 69,
                    "time": 208.50000000000034,
                    "velocity": 0.47244094488188976,
                    "duration": 0.5999999999999943
                },
                {
                    "name": "C#4",
                    "midi": 61,
                    "time": 208.50000000000034,
                    "velocity": 0.3937007874015748,
                    "duration": 0.5999999999999943
                },
                {
                    "name": "C#3",
                    "midi": 49,
                    "time": 209.10000000000034,
                    "velocity": 0.48031496062992124,
                    "duration": 0.15000000000000568
                },
                {
                    "name": "A3",
                    "midi": 57,
                    "time": 209.40000000000035,
                    "velocity": 0.30708661417322836,
                    "duration": 0.07499999999998863
                },
                {
                    "name": "G#4",
                    "midi": 68,
                    "time": 209.40000000000035,
                    "velocity": 0.36220472440944884,
                    "duration": 0.07499999999998863
                },
                {
                    "name": "C#4",
                    "midi": 61,
                    "time": 209.40000000000035,
                    "velocity": 0.30708661417322836,
                    "duration": 0.07499999999998863
                },
                {
                    "name": "F#3",
                    "midi": 54,
                    "time": 209.70000000000033,
                    "velocity": 0.36220472440944884,
                    "duration": 0.07499999999998863
                },
                {
                    "name": "A3",
                    "midi": 57,
                    "time": 210.0000000000003,
                    "velocity": 0.30708661417322836,
                    "duration": 0.07499999999998863
                },
                {
                    "name": "F#4",
                    "midi": 66,
                    "time": 210.0000000000003,
                    "velocity": 0.36220472440944884,
                    "duration": 0.07499999999998863
                },
                {
                    "name": "C#4",
                    "midi": 61,
                    "time": 210.0000000000003,
                    "velocity": 0.30708661417322836,
                    "duration": 0.07499999999998863
                },
                {
                    "name": "G#3",
                    "midi": 56,
                    "time": 210.3000000000003,
                    "velocity": 0.47244094488188976,
                    "duration": 0.15000000000000568
                },
                {
                    "name": "F4",
                    "midi": 65,
                    "time": 210.9000000000003,
                    "velocity": 0.3937007874015748,
                    "duration": 0.5999999999999943
                },
                {
                    "name": "B4",
                    "midi": 71,
                    "time": 210.9000000000003,
                    "velocity": 0.47244094488188976,
                    "duration": 0.5999999999999943
                },
                {
                    "name": "C#4",
                    "midi": 61,
                    "time": 210.9000000000003,
                    "velocity": 0.3937007874015748,
                    "duration": 0.5999999999999943
                },
                {
                    "name": "C#3",
                    "midi": 49,
                    "time": 211.50000000000028,
                    "velocity": 0.44881889763779526,
                    "duration": 0.15000000000000568
                },
                {
                    "name": "C#4",
                    "midi": 61,
                    "time": 211.8000000000003,
                    "velocity": 0.30708661417322836,
                    "duration": 0.07499999999998863
                },
                {
                    "name": "A4",
                    "midi": 69,
                    "time": 211.8000000000003,
                    "velocity": 0.36220472440944884,
                    "duration": 0.07499999999998863
                },
                {
                    "name": "F4",
                    "midi": 65,
                    "time": 211.8000000000003,
                    "velocity": 0.30708661417322836,
                    "duration": 0.07499999999998863
                },
                {
                    "name": "B3",
                    "midi": 59,
                    "time": 212.10000000000028,
                    "velocity": 0.36220472440944884,
                    "duration": 0.07499999999998863
                },
                {
                    "name": "C#4",
                    "midi": 61,
                    "time": 212.40000000000026,
                    "velocity": 0.30708661417322836,
                    "duration": 0.07499999999998863
                },
                {
                    "name": "G#4",
                    "midi": 68,
                    "time": 212.40000000000026,
                    "velocity": 0.36220472440944884,
                    "duration": 0.07499999999998863
                },
                {
                    "name": "F4",
                    "midi": 65,
                    "time": 212.40000000000026,
                    "velocity": 0.30708661417322836,
                    "duration": 0.07499999999998863
                },
                {
                    "name": "F#3",
                    "midi": 54,
                    "time": 212.70000000000024,
                    "velocity": 0.4881889763779528,
                    "duration": 0.15000000000000568
                },
                {
                    "name": "C#4",
                    "midi": 61,
                    "time": 213.30000000000024,
                    "velocity": 0.3937007874015748,
                    "duration": 0.5999999999999943
                },
                {
                    "name": "F#4",
                    "midi": 66,
                    "time": 213.30000000000024,
                    "velocity": 0.3937007874015748,
                    "duration": 0.5999999999999943
                },
                {
                    "name": "A4",
                    "midi": 69,
                    "time": 213.30000000000024,
                    "velocity": 0.47244094488188976,
                    "duration": 0.5999999999999943
                },
                {
                    "name": "C#3",
                    "midi": 49,
                    "time": 213.90000000000023,
                    "velocity": 0.44881889763779526,
                    "duration": 0.15000000000000568
                },
                {
                    "name": "A3",
                    "midi": 57,
                    "time": 214.20000000000024,
                    "velocity": 0.30708661417322836,
                    "duration": 0.07499999999998863
                },
                {
                    "name": "C#4",
                    "midi": 61,
                    "time": 214.20000000000024,
                    "velocity": 0.30708661417322836,
                    "duration": 0.07499999999998863
                },
                {
                    "name": "G#4",
                    "midi": 68,
                    "time": 214.20000000000024,
                    "velocity": 0.36220472440944884,
                    "duration": 0.07499999999998863
                },
                {
                    "name": "F#3",
                    "midi": 54,
                    "time": 214.50000000000023,
                    "velocity": 0.36220472440944884,
                    "duration": 0.07499999999998863
                },
                {
                    "name": "C#4",
                    "midi": 61,
                    "time": 214.8000000000002,
                    "velocity": 0.30708661417322836,
                    "duration": 0.07499999999998863
                },
                {
                    "name": "F#4",
                    "midi": 66,
                    "time": 214.8000000000002,
                    "velocity": 0.36220472440944884,
                    "duration": 0.07499999999998863
                },
                {
                    "name": "A3",
                    "midi": 57,
                    "time": 214.8000000000002,
                    "velocity": 0.30708661417322836,
                    "duration": 0.07499999999998863
                },
                {
                    "name": "G#3",
                    "midi": 56,
                    "time": 215.1000000000002,
                    "velocity": 0.4330708661417323,
                    "duration": 0.15000000000000568
                },
                {
                    "name": "C#4",
                    "midi": 61,
                    "time": 215.7000000000002,
                    "velocity": 0.36220472440944884,
                    "duration": 0.5999999999999943
                },
                {
                    "name": "B4",
                    "midi": 71,
                    "time": 215.7000000000002,
                    "velocity": 0.4330708661417323,
                    "duration": 0.5999999999999943
                },
                {
                    "name": "F4",
                    "midi": 65,
                    "time": 215.7000000000002,
                    "velocity": 0.36220472440944884,
                    "duration": 0.5999999999999943
                },
                {
                    "name": "C#3",
                    "midi": 49,
                    "time": 216.30000000000018,
                    "velocity": 0.4330708661417323,
                    "duration": 0.15000000000000568
                },
                {
                    "name": "C#4",
                    "midi": 61,
                    "time": 216.90000000000018,
                    "velocity": 0.36220472440944884,
                    "duration": 0.5999999999999943
                },
                {
                    "name": "F4",
                    "midi": 65,
                    "time": 216.90000000000018,
                    "velocity": 0.36220472440944884,
                    "duration": 0.5999999999999943
                },
                {
                    "name": "B4",
                    "midi": 71,
                    "time": 216.90000000000018,
                    "velocity": 0.4409448818897638,
                    "duration": 0.5999999999999943
                },
                {
                    "name": "F#3",
                    "midi": 54,
                    "time": 217.50000000000017,
                    "velocity": 0.44881889763779526,
                    "duration": 0.15000000000000568
                },
                {
                    "name": "A#4",
                    "midi": 70,
                    "time": 218.10000000000016,
                    "velocity": 0.4566929133858268,
                    "duration": 0.5999999999999943
                },
                {
                    "name": "C#4",
                    "midi": 61,
                    "time": 218.10000000000016,
                    "velocity": 0.3779527559055118,
                    "duration": 0.5999999999999943
                },
                {
                    "name": "F#4",
                    "midi": 66,
                    "time": 218.10000000000016,
                    "velocity": 0.3779527559055118,
                    "duration": 0.5999999999999943
                },
                {
                    "name": "C#3",
                    "midi": 49,
                    "time": 218.70000000000016,
                    "velocity": 0.4566929133858268,
                    "duration": 0.15000000000000568
                },
                {
                    "name": "A#4",
                    "midi": 70,
                    "time": 219.30000000000015,
                    "velocity": 0.47244094488188976,
                    "duration": 0.5999999999999943
                },
                {
                    "name": "C#4",
                    "midi": 61,
                    "time": 219.30000000000015,
                    "velocity": 0.3858267716535433,
                    "duration": 0.5999999999999943
                },
                {
                    "name": "F#4",
                    "midi": 66,
                    "time": 219.30000000000015,
                    "velocity": 0.3858267716535433,
                    "duration": 0.5999999999999943
                },
                {
                    "name": "G#3",
                    "midi": 56,
                    "time": 219.90000000000015,
                    "velocity": 0.47244094488188976,
                    "duration": 0.15000000000000568
                },
                {
                    "name": "C#4",
                    "midi": 61,
                    "time": 220.20000000000016,
                    "velocity": 0.36220472440944884,
                    "duration": 0.07499999999998863
                },
                {
                    "name": "F4",
                    "midi": 65,
                    "time": 220.20000000000016,
                    "velocity": 0.36220472440944884,
                    "duration": 0.07499999999998863
                },
                {
                    "name": "B4",
                    "midi": 71,
                    "time": 220.20000000000016,
                    "velocity": 0.4330708661417323,
                    "duration": 0.07499999999998863
                },
                {
                    "name": "C#3",
                    "midi": 49,
                    "time": 220.50000000000014,
                    "velocity": 0.48031496062992124,
                    "duration": 0.15000000000000568
                },
                {
                    "name": "F4",
                    "midi": 65,
                    "time": 220.80000000000015,
                    "velocity": 0.3700787401574803,
                    "duration": 0.07499999999998863
                },
                {
                    "name": "C#4",
                    "midi": 61,
                    "time": 220.80000000000015,
                    "velocity": 0.3700787401574803,
                    "duration": 0.07499999999998863
                },
                {
                    "name": "B4",
                    "midi": 71,
                    "time": 220.80000000000015,
                    "velocity": 0.4409448818897638,
                    "duration": 0.07499999999998863
                },
                {
                    "name": "G#3",
                    "midi": 56,
                    "time": 221.10000000000014,
                    "velocity": 0.4881889763779528,
                    "duration": 0.15000000000000568
                },
                {
                    "name": "C#4",
                    "midi": 61,
                    "time": 221.40000000000015,
                    "velocity": 0.3700787401574803,
                    "duration": 0.07499999999998863
                },
                {
                    "name": "F4",
                    "midi": 65,
                    "time": 221.40000000000015,
                    "velocity": 0.3700787401574803,
                    "duration": 0.07499999999998863
                },
                {
                    "name": "B4",
                    "midi": 71,
                    "time": 221.40000000000015,
                    "velocity": 0.44881889763779526,
                    "duration": 0.07499999999998863
                },
                {
                    "name": "C#3",
                    "midi": 49,
                    "time": 221.70000000000013,
                    "velocity": 0.49606299212598426,
                    "duration": 0.15000000000000568
                },
                {
                    "name": "F4",
                    "midi": 65,
                    "time": 222.00000000000014,
                    "velocity": 0.3858267716535433,
                    "duration": 0.07499999999998863
                },
                {
                    "name": "C#4",
                    "midi": 61,
                    "time": 222.00000000000014,
                    "velocity": 0.3858267716535433,
                    "duration": 0.07499999999998863
                },
                {
                    "name": "B4",
                    "midi": 71,
                    "time": 222.00000000000014,
                    "velocity": 0.4566929133858268,
                    "duration": 0.07499999999998863
                },
                {
                    "name": "F#3",
                    "midi": 54,
                    "time": 222.30000000000013,
                    "velocity": 0.5118110236220472,
                    "duration": 0.15000000000000568
                },
                {
                    "name": "C#4",
                    "midi": 61,
                    "time": 222.60000000000014,
                    "velocity": 0.3858267716535433,
                    "duration": 0.07499999999998863
                },
                {
                    "name": "A#4",
                    "midi": 70,
                    "time": 222.60000000000014,
                    "velocity": 0.4566929133858268,
                    "duration": 0.07499999999998863
                },
                {
                    "name": "F#4",
                    "midi": 66,
                    "time": 222.60000000000014,
                    "velocity": 0.3858267716535433,
                    "duration": 0.07499999999998863
                },
                {
                    "name": "C#3",
                    "midi": 49,
                    "time": 222.90000000000012,
                    "velocity": 0.5118110236220472,
                    "duration": 0.15000000000000568
                },
                {
                    "name": "A#4",
                    "midi": 70,
                    "time": 223.20000000000013,
                    "velocity": 0.47244094488188976,
                    "duration": 0.07499999999998863
                },
                {
                    "name": "C#4",
                    "midi": 61,
                    "time": 223.20000000000013,
                    "velocity": 0.3937007874015748,
                    "duration": 0.07499999999998863
                },
                {
                    "name": "F#4",
                    "midi": 66,
                    "time": 223.20000000000013,
                    "velocity": 0.3937007874015748,
                    "duration": 0.07499999999998863
                },
                {
                    "name": "F#3",
                    "midi": 54,
                    "time": 223.5000000000001,
                    "velocity": 0.5196850393700787,
                    "duration": 0.15000000000000568
                },
                {
                    "name": "A#4",
                    "midi": 70,
                    "time": 223.80000000000013,
                    "velocity": 0.48031496062992124,
                    "duration": 0.07499999999998863
                },
                {
                    "name": "F#4",
                    "midi": 66,
                    "time": 223.80000000000013,
                    "velocity": 0.4015748031496063,
                    "duration": 0.07499999999998863
                },
                {
                    "name": "C#4",
                    "midi": 61,
                    "time": 223.80000000000013,
                    "velocity": 0.4015748031496063,
                    "duration": 0.07499999999998863
                },
                {
                    "name": "C#3",
                    "midi": 49,
                    "time": 224.1000000000001,
                    "velocity": 0.5275590551181102,
                    "duration": 0.15000000000000568
                },
                {
                    "name": "A#4",
                    "midi": 70,
                    "time": 224.40000000000012,
                    "velocity": 0.4881889763779528,
                    "duration": 0.07499999999998863
                },
                {
                    "name": "C#4",
                    "midi": 61,
                    "time": 224.40000000000012,
                    "velocity": 0.4015748031496063,
                    "duration": 0.07499999999998863
                },
                {
                    "name": "F#4",
                    "midi": 66,
                    "time": 224.40000000000012,
                    "velocity": 0.4015748031496063,
                    "duration": 0.07499999999998863
                },
                {
                    "name": "G#3",
                    "midi": 56,
                    "time": 224.7000000000001,
                    "velocity": 0.5433070866141733,
                    "duration": 0.15000000000000568
                },
                {
                    "name": "F4",
                    "midi": 65,
                    "time": 225.0000000000001,
                    "velocity": 0.4094488188976378,
                    "duration": 0.07499999999998863
                },
                {
                    "name": "C#4",
                    "midi": 61,
                    "time": 225.0000000000001,
                    "velocity": 0.4094488188976378,
                    "duration": 0.07499999999998863
                },
                {
                    "name": "B4",
                    "midi": 71,
                    "time": 225.0000000000001,
                    "velocity": 0.4881889763779528,
                    "duration": 0.07499999999998863
                },
                {
                    "name": "C#3",
                    "midi": 49,
                    "time": 225.3000000000001,
                    "velocity": 0.5433070866141733,
                    "duration": 0.15000000000000568
                },
                {
                    "name": "B4",
                    "midi": 71,
                    "time": 225.6000000000001,
                    "velocity": 0.49606299212598426,
                    "duration": 0.07499999999998863
                },
                {
                    "name": "C#4",
                    "midi": 61,
                    "time": 225.6000000000001,
                    "velocity": 0.41732283464566927,
                    "duration": 0.07499999999998863
                },
                {
                    "name": "F4",
                    "midi": 65,
                    "time": 225.6000000000001,
                    "velocity": 0.41732283464566927,
                    "duration": 0.07499999999998863
                },
                {
                    "name": "G#3",
                    "midi": 56,
                    "time": 225.9000000000001,
                    "velocity": 0.5590551181102362,
                    "duration": 0.15000000000000568
                },
                {
                    "name": "F4",
                    "midi": 65,
                    "time": 226.2000000000001,
                    "velocity": 0.4251968503937008,
                    "duration": 0.07499999999998863
                },
                {
                    "name": "C#4",
                    "midi": 61,
                    "time": 226.2000000000001,
                    "velocity": 0.4251968503937008,
                    "duration": 0.07499999999998863
                },
                {
                    "name": "B4",
                    "midi": 71,
                    "time": 226.2000000000001,
                    "velocity": 0.5118110236220472,
                    "duration": 0.07499999999998863
                },
                {
                    "name": "C#3",
                    "midi": 49,
                    "time": 226.50000000000009,
                    "velocity": 0.5748031496062992,
                    "duration": 0.15000000000000568
                },
                {
                    "name": "F4",
                    "midi": 65,
                    "time": 226.8000000000001,
                    "velocity": 0.4409448818897638,
                    "duration": 0.07499999999998863
                },
                {
                    "name": "C#4",
                    "midi": 61,
                    "time": 226.8000000000001,
                    "velocity": 0.4409448818897638,
                    "duration": 0.07499999999998863
                },
                {
                    "name": "B4",
                    "midi": 71,
                    "time": 226.8000000000001,
                    "velocity": 0.5275590551181102,
                    "duration": 0.07499999999998863
                },
                {
                    "name": "F#3",
                    "midi": 54,
                    "time": 227.10000000000008,
                    "velocity": 0.5905511811023622,
                    "duration": 0.15000000000000568
                },
                {
                    "name": "F#4",
                    "midi": 66,
                    "time": 227.4000000000001,
                    "velocity": 0.44881889763779526,
                    "duration": 0.07499999999998863
                },
                {
                    "name": "C#4",
                    "midi": 61,
                    "time": 227.4000000000001,
                    "velocity": 0.44881889763779526,
                    "duration": 0.07499999999998863
                },
                {
                    "name": "A#4",
                    "midi": 70,
                    "time": 227.4000000000001,
                    "velocity": 0.5354330708661418,
                    "duration": 0.07499999999998863
                },
                {
                    "name": "C#3",
                    "midi": 49,
                    "time": 227.70000000000007,
                    "velocity": 0.5984251968503937,
                    "duration": 0.15000000000000568
                },
                {
                    "name": "C#4",
                    "midi": 61,
                    "time": 228.00000000000009,
                    "velocity": 0.4566929133858268,
                    "duration": 0.07499999999998863
                },
                {
                    "name": "A#4",
                    "midi": 70,
                    "time": 228.00000000000009,
                    "velocity": 0.5511811023622047,
                    "duration": 0.07499999999998863
                },
                {
                    "name": "F#4",
                    "midi": 66,
                    "time": 228.00000000000009,
                    "velocity": 0.4566929133858268,
                    "duration": 0.07499999999998863
                },
                {
                    "name": "F#3",
                    "midi": 54,
                    "time": 228.30000000000007,
                    "velocity": 0.6062992125984252,
                    "duration": 0.15000000000000568
                },
                {
                    "name": "A#4",
                    "midi": 70,
                    "time": 228.60000000000008,
                    "velocity": 0.5590551181102362,
                    "duration": 0.07499999999998863
                },
                {
                    "name": "F#4",
                    "midi": 66,
                    "time": 228.60000000000008,
                    "velocity": 0.47244094488188976,
                    "duration": 0.07499999999998863
                },
                {
                    "name": "C#4",
                    "midi": 61,
                    "time": 228.60000000000008,
                    "velocity": 0.47244094488188976,
                    "duration": 0.07499999999998863
                },
                {
                    "name": "C#3",
                    "midi": 49,
                    "time": 228.90000000000006,
                    "velocity": 0.6220472440944882,
                    "duration": 0.15000000000000568
                },
                {
                    "name": "C#4",
                    "midi": 61,
                    "time": 229.20000000000007,
                    "velocity": 0.48031496062992124,
                    "duration": 0.07499999999998863
                },
                {
                    "name": "F#4",
                    "midi": 66,
                    "time": 229.20000000000007,
                    "velocity": 0.48031496062992124,
                    "duration": 0.07499999999998863
                },
                {
                    "name": "A#4",
                    "midi": 70,
                    "time": 229.20000000000007,
                    "velocity": 0.5669291338582677,
                    "duration": 0.07499999999998863
                },
                {
                    "name": "G#2",
                    "midi": 44,
                    "time": 229.50000000000006,
                    "velocity": 0.48031496062992124,
                    "duration": 0.07499999999998863
                },
                {
                    "name": "G#3",
                    "midi": 56,
                    "time": 229.50000000000006,
                    "velocity": 0.5748031496062992,
                    "duration": 0.07499999999998863
                },
                {
                    "name": "C#4",
                    "midi": 61,
                    "time": 229.80000000000004,
                    "velocity": 0.44881889763779526,
                    "duration": 0.15000000000000568
                },
                {
                    "name": "G#3",
                    "midi": 56,
                    "time": 229.80000000000004,
                    "velocity": 0.44881889763779526,
                    "duration": 0.15000000000000568
                },
                {
                    "name": "F4",
                    "midi": 65,
                    "time": 229.80000000000004,
                    "velocity": 0.5354330708661418,
                    "duration": 0.15000000000000568
                },
                {
                    "name": "C#2",
                    "midi": 37,
                    "time": 230.10000000000005,
                    "velocity": 0.48031496062992124,
                    "duration": 0.15000000000000568
                },
                {
                    "name": "C#3",
                    "midi": 49,
                    "time": 230.10000000000005,
                    "velocity": 0.5748031496062992,
                    "duration": 0.15000000000000568
                },
                {
                    "name": "C#4",
                    "midi": 61,
                    "time": 230.40000000000006,
                    "velocity": 0.4566929133858268,
                    "duration": 0.15000000000000568
                },
                {
                    "name": "G#3",
                    "midi": 56,
                    "time": 230.40000000000006,
                    "velocity": 0.4566929133858268,
                    "duration": 0.15000000000000568
                },
                {
                    "name": "F4",
                    "midi": 65,
                    "time": 230.40000000000006,
                    "velocity": 0.5433070866141733,
                    "duration": 0.15000000000000568
                },
                {
                    "name": "G#2",
                    "midi": 44,
                    "time": 230.70000000000007,
                    "velocity": 0.48031496062992124,
                    "duration": 0.07499999999998863
                },
                {
                    "name": "G#3",
                    "midi": 56,
                    "time": 230.70000000000007,
                    "velocity": 0.5748031496062992,
                    "duration": 0.07499999999998863
                },
                {
                    "name": "G#3",
                    "midi": 56,
                    "time": 231.00000000000006,
                    "velocity": 0.44881889763779526,
                    "duration": 0.15000000000000568
                },
                {
                    "name": "C#4",
                    "midi": 61,
                    "time": 231.00000000000006,
                    "velocity": 0.44881889763779526,
                    "duration": 0.15000000000000568
                },
                {
                    "name": "F4",
                    "midi": 65,
                    "time": 231.00000000000006,
                    "velocity": 0.5354330708661418,
                    "duration": 0.15000000000000568
                },
                {
                    "name": "C#2",
                    "midi": 37,
                    "time": 231.30000000000007,
                    "velocity": 0.48031496062992124,
                    "duration": 0.15000000000000568
                },
                {
                    "name": "C#3",
                    "midi": 49,
                    "time": 231.30000000000007,
                    "velocity": 0.5748031496062992,
                    "duration": 0.15000000000000568
                },
                {
                    "name": "F4",
                    "midi": 65,
                    "time": 231.60000000000008,
                    "velocity": 0.5433070866141733,
                    "duration": 0.15000000000000568
                },
                {
                    "name": "C#4",
                    "midi": 61,
                    "time": 231.60000000000008,
                    "velocity": 0.4566929133858268,
                    "duration": 0.15000000000000568
                },
                {
                    "name": "G#3",
                    "midi": 56,
                    "time": 231.60000000000008,
                    "velocity": 0.4566929133858268,
                    "duration": 0.15000000000000568
                },
                {
                    "name": "F#3",
                    "midi": 54,
                    "time": 231.9000000000001,
                    "velocity": 0.5748031496062992,
                    "duration": 0.07499999999998863
                },
                {
                    "name": "F#2",
                    "midi": 42,
                    "time": 231.9000000000001,
                    "velocity": 0.48031496062992124,
                    "duration": 0.07499999999998863
                },
                {
                    "name": "C#4",
                    "midi": 61,
                    "time": 232.20000000000007,
                    "velocity": 0.44881889763779526,
                    "duration": 0.15000000000000568
                },
                {
                    "name": "F#4",
                    "midi": 66,
                    "time": 232.20000000000007,
                    "velocity": 0.5354330708661418,
                    "duration": 0.15000000000000568
                },
                {
                    "name": "A#3",
                    "midi": 58,
                    "time": 232.20000000000007,
                    "velocity": 0.44881889763779526,
                    "duration": 0.15000000000000568
                },
                {
                    "name": "C#3",
                    "midi": 49,
                    "time": 232.50000000000009,
                    "velocity": 0.5748031496062992,
                    "duration": 0.15000000000000568
                },
                {
                    "name": "C#2",
                    "midi": 37,
                    "time": 232.50000000000009,
                    "velocity": 0.48031496062992124,
                    "duration": 0.15000000000000568
                },
                {
                    "name": "C#4",
                    "midi": 61,
                    "time": 232.8000000000001,
                    "velocity": 0.4566929133858268,
                    "duration": 0.15000000000000568
                },
                {
                    "name": "A#3",
                    "midi": 58,
                    "time": 232.8000000000001,
                    "velocity": 0.4566929133858268,
                    "duration": 0.15000000000000568
                },
                {
                    "name": "F#4",
                    "midi": 66,
                    "time": 232.8000000000001,
                    "velocity": 0.5433070866141733,
                    "duration": 0.15000000000000568
                },
                {
                    "name": "F#3",
                    "midi": 54,
                    "time": 233.1000000000001,
                    "velocity": 0.5748031496062992,
                    "duration": 0.07499999999998863
                },
                {
                    "name": "F#2",
                    "midi": 42,
                    "time": 233.1000000000001,
                    "velocity": 0.48031496062992124,
                    "duration": 0.07499999999998863
                },
                {
                    "name": "C#4",
                    "midi": 61,
                    "time": 233.4000000000001,
                    "velocity": 0.44881889763779526,
                    "duration": 0.15000000000000568
                },
                {
                    "name": "A#3",
                    "midi": 58,
                    "time": 233.4000000000001,
                    "velocity": 0.44881889763779526,
                    "duration": 0.15000000000000568
                },
                {
                    "name": "F#4",
                    "midi": 66,
                    "time": 233.4000000000001,
                    "velocity": 0.5354330708661418,
                    "duration": 0.15000000000000568
                },
                {
                    "name": "C#2",
                    "midi": 37,
                    "time": 233.7000000000001,
                    "velocity": 0.48031496062992124,
                    "duration": 0.15000000000000568
                },
                {
                    "name": "C#3",
                    "midi": 49,
                    "time": 233.7000000000001,
                    "velocity": 0.5748031496062992,
                    "duration": 0.15000000000000568
                },
                {
                    "name": "A#3",
                    "midi": 58,
                    "time": 234.0000000000001,
                    "velocity": 0.4566929133858268,
                    "duration": 0.15000000000000568
                },
                {
                    "name": "C#4",
                    "midi": 61,
                    "time": 234.0000000000001,
                    "velocity": 0.4566929133858268,
                    "duration": 0.15000000000000568
                },
                {
                    "name": "F#4",
                    "midi": 66,
                    "time": 234.0000000000001,
                    "velocity": 0.5433070866141733,
                    "duration": 0.15000000000000568
                },
                {
                    "name": "G#2",
                    "midi": 44,
                    "time": 234.30000000000013,
                    "velocity": 0.48031496062992124,
                    "duration": 0.07499999999998863
                },
                {
                    "name": "G#3",
                    "midi": 56,
                    "time": 234.30000000000013,
                    "velocity": 0.5748031496062992,
                    "duration": 0.07499999999998863
                },
                {
                    "name": "C#4",
                    "midi": 61,
                    "time": 234.6000000000001,
                    "velocity": 0.44881889763779526,
                    "duration": 0.15000000000000568
                },
                {
                    "name": "F4",
                    "midi": 65,
                    "time": 234.6000000000001,
                    "velocity": 0.5354330708661418,
                    "duration": 0.15000000000000568
                },
                {
                    "name": "C#2",
                    "midi": 37,
                    "time": 234.90000000000012,
                    "velocity": 0.48031496062992124,
                    "duration": 0.15000000000000568
                },
                {
                    "name": "C#3",
                    "midi": 49,
                    "time": 234.90000000000012,
                    "velocity": 0.5748031496062992,
                    "duration": 0.15000000000000568
                },
                {
                    "name": "F4",
                    "midi": 65,
                    "time": 235.20000000000013,
                    "velocity": 0.5433070866141733,
                    "duration": 0.15000000000000568
                },
                {
                    "name": "C#4",
                    "midi": 61,
                    "time": 235.20000000000013,
                    "velocity": 0.4566929133858268,
                    "duration": 0.15000000000000568
                },
                {
                    "name": "B3",
                    "midi": 59,
                    "time": 235.20000000000013,
                    "velocity": 0.4566929133858268,
                    "duration": 0.15000000000000568
                },
                {
                    "name": "G#2",
                    "midi": 44,
                    "time": 235.50000000000014,
                    "velocity": 0.48031496062992124,
                    "duration": 0.07499999999998863
                },
                {
                    "name": "G#3",
                    "midi": 56,
                    "time": 235.50000000000014,
                    "velocity": 0.5748031496062992,
                    "duration": 0.07499999999998863
                },
                {
                    "name": "B3",
                    "midi": 59,
                    "time": 235.80000000000013,
                    "velocity": 0.44881889763779526,
                    "duration": 0.15000000000000568
                },
                {
                    "name": "C#4",
                    "midi": 61,
                    "time": 235.80000000000013,
                    "velocity": 0.44881889763779526,
                    "duration": 0.15000000000000568
                },
                {
                    "name": "F4",
                    "midi": 65,
                    "time": 235.80000000000013,
                    "velocity": 0.5354330708661418,
                    "duration": 0.15000000000000568
                },
                {
                    "name": "C#3",
                    "midi": 49,
                    "time": 236.10000000000014,
                    "velocity": 0.5748031496062992,
                    "duration": 0.15000000000000568
                },
                {
                    "name": "C#2",
                    "midi": 37,
                    "time": 236.10000000000014,
                    "velocity": 0.48031496062992124,
                    "duration": 0.15000000000000568
                },
                {
                    "name": "B3",
                    "midi": 59,
                    "time": 236.40000000000015,
                    "velocity": 0.4566929133858268,
                    "duration": 0.15000000000000568
                },
                {
                    "name": "C#4",
                    "midi": 61,
                    "time": 236.40000000000015,
                    "velocity": 0.4566929133858268,
                    "duration": 0.15000000000000568
                },
                {
                    "name": "F4",
                    "midi": 65,
                    "time": 236.40000000000015,
                    "velocity": 0.5433070866141733,
                    "duration": 0.15000000000000568
                },
                {
                    "name": "F#2",
                    "midi": 42,
                    "time": 236.70000000000016,
                    "velocity": 0.48031496062992124,
                    "duration": 0.07499999999998863
                },
                {
                    "name": "F#3",
                    "midi": 54,
                    "time": 236.70000000000016,
                    "velocity": 0.5748031496062992,
                    "duration": 0.07499999999998863
                },
                {
                    "name": "F#4",
                    "midi": 66,
                    "time": 237.00000000000014,
                    "velocity": 0.5354330708661418,
                    "duration": 0.15000000000000568
                },
                {
                    "name": "A#3",
                    "midi": 58,
                    "time": 237.00000000000014,
                    "velocity": 0.44881889763779526,
                    "duration": 0.15000000000000568
                },
                {
                    "name": "C#4",
                    "midi": 61,
                    "time": 237.00000000000014,
                    "velocity": 0.44881889763779526,
                    "duration": 0.15000000000000568
                },
                {
                    "name": "C#3",
                    "midi": 49,
                    "time": 237.30000000000015,
                    "velocity": 0.5748031496062992,
                    "duration": 0.15000000000000568
                },
                {
                    "name": "C#2",
                    "midi": 37,
                    "time": 237.30000000000015,
                    "velocity": 0.48031496062992124,
                    "duration": 0.15000000000000568
                },
                {
                    "name": "A#3",
                    "midi": 58,
                    "time": 237.60000000000016,
                    "velocity": 0.4566929133858268,
                    "duration": 0.15000000000000568
                },
                {
                    "name": "F#4",
                    "midi": 66,
                    "time": 237.60000000000016,
                    "velocity": 0.5433070866141733,
                    "duration": 0.15000000000000568
                },
                {
                    "name": "C#4",
                    "midi": 61,
                    "time": 237.60000000000016,
                    "velocity": 0.4566929133858268,
                    "duration": 0.15000000000000568
                },
                {
                    "name": "F#3",
                    "midi": 54,
                    "time": 237.90000000000018,
                    "velocity": 0.5748031496062992,
                    "duration": 0.07499999999998863
                },
                {
                    "name": "F#2",
                    "midi": 42,
                    "time": 237.90000000000018,
                    "velocity": 0.48031496062992124,
                    "duration": 0.07499999999998863
                },
                {
                    "name": "A#3",
                    "midi": 58,
                    "time": 238.20000000000016,
                    "velocity": 0.44881889763779526,
                    "duration": 0.15000000000000568
                },
                {
                    "name": "C#4",
                    "midi": 61,
                    "time": 238.20000000000016,
                    "velocity": 0.44881889763779526,
                    "duration": 0.15000000000000568
                },
                {
                    "name": "F#4",
                    "midi": 66,
                    "time": 238.20000000000016,
                    "velocity": 0.5354330708661418,
                    "duration": 0.15000000000000568
                },
                {
                    "name": "C#2",
                    "midi": 37,
                    "time": 238.50000000000017,
                    "velocity": 0.48031496062992124,
                    "duration": 0.15000000000000568
                },
                {
                    "name": "C#3",
                    "midi": 49,
                    "time": 238.50000000000017,
                    "velocity": 0.5748031496062992,
                    "duration": 0.15000000000000568
                },
                {
                    "name": "A#3",
                    "midi": 58,
                    "time": 238.80000000000018,
                    "velocity": 0.4566929133858268,
                    "duration": 0.15000000000000568
                },
                {
                    "name": "C#4",
                    "midi": 61,
                    "time": 238.80000000000018,
                    "velocity": 0.4566929133858268,
                    "duration": 0.15000000000000568
                },
                {
                    "name": "F#4",
                    "midi": 66,
                    "time": 238.80000000000018,
                    "velocity": 0.5433070866141733,
                    "duration": 0.15000000000000568
                },
                {
                    "name": "G#3",
                    "midi": 56,
                    "time": 239.1000000000002,
                    "velocity": 0.41732283464566927,
                    "duration": 0.07499999999998863
                },
                {
                    "name": "C#4",
                    "midi": 61,
                    "time": 239.40000000000018,
                    "velocity": 0.3228346456692913,
                    "duration": 0.15000000000000568
                },
                {
                    "name": "F4",
                    "midi": 65,
                    "time": 239.40000000000018,
                    "velocity": 0.3858267716535433,
                    "duration": 0.15000000000000568
                },
                {
                    "name": "C#3",
                    "midi": 49,
                    "time": 239.7000000000002,
                    "velocity": 0.41732283464566927,
                    "duration": 0.15000000000000568
                },
                {
                    "name": "C#4",
                    "midi": 61,
                    "time": 240.0000000000002,
                    "velocity": 0.33070866141732286,
                    "duration": 0.15000000000000568
                },
                {
                    "name": "G#3",
                    "midi": 56,
                    "time": 240.0000000000002,
                    "velocity": 0.33070866141732286,
                    "duration": 0.15000000000000568
                },
                {
                    "name": "F4",
                    "midi": 65,
                    "time": 240.0000000000002,
                    "velocity": 0.3937007874015748,
                    "duration": 0.15000000000000568
                },
                {
                    "name": "G#2",
                    "midi": 44,
                    "time": 240.3000000000002,
                    "velocity": 0.41732283464566927,
                    "duration": 0.07499999999998863
                },
                {
                    "name": "G#3",
                    "midi": 56,
                    "time": 240.6000000000002,
                    "velocity": 0.3228346456692913,
                    "duration": 0.15000000000000568
                },
                {
                    "name": "F4",
                    "midi": 65,
                    "time": 240.6000000000002,
                    "velocity": 0.3858267716535433,
                    "duration": 0.15000000000000568
                },
                {
                    "name": "C#4",
                    "midi": 61,
                    "time": 240.6000000000002,
                    "velocity": 0.3228346456692913,
                    "duration": 0.15000000000000568
                },
                {
                    "name": "C#2",
                    "midi": 37,
                    "time": 240.9000000000002,
                    "velocity": 0.41732283464566927,
                    "duration": 0.15000000000000568
                },
                {
                    "name": "F4",
                    "midi": 65,
                    "time": 241.20000000000022,
                    "velocity": 0.3937007874015748,
                    "duration": 0.15000000000000568
                },
                {
                    "name": "C#4",
                    "midi": 61,
                    "time": 241.20000000000022,
                    "velocity": 0.33070866141732286,
                    "duration": 0.15000000000000568
                },
                {
                    "name": "G#3",
                    "midi": 56,
                    "time": 241.20000000000022,
                    "velocity": 0.33070866141732286,
                    "duration": 0.15000000000000568
                },
                {
                    "name": "F#3",
                    "midi": 54,
                    "time": 241.50000000000023,
                    "velocity": 0.41732283464566927,
                    "duration": 0.07499999999998863
                },
                {
                    "name": "A#3",
                    "midi": 58,
                    "time": 241.8000000000002,
                    "velocity": 0.3228346456692913,
                    "duration": 0.15000000000000568
                },
                {
                    "name": "F#4",
                    "midi": 66,
                    "time": 241.8000000000002,
                    "velocity": 0.3858267716535433,
                    "duration": 0.15000000000000568
                },
                {
                    "name": "C#4",
                    "midi": 61,
                    "time": 241.8000000000002,
                    "velocity": 0.3228346456692913,
                    "duration": 0.15000000000000568
                },
                {
                    "name": "C#3",
                    "midi": 49,
                    "time": 242.10000000000022,
                    "velocity": 0.41732283464566927,
                    "duration": 0.15000000000000568
                },
                {
                    "name": "A#3",
                    "midi": 58,
                    "time": 242.40000000000023,
                    "velocity": 0.33070866141732286,
                    "duration": 0.15000000000000568
                },
                {
                    "name": "F#4",
                    "midi": 66,
                    "time": 242.40000000000023,
                    "velocity": 0.3937007874015748,
                    "duration": 0.15000000000000568
                },
                {
                    "name": "C#4",
                    "midi": 61,
                    "time": 242.40000000000023,
                    "velocity": 0.33070866141732286,
                    "duration": 0.15000000000000568
                },
                {
                    "name": "F#2",
                    "midi": 42,
                    "time": 242.70000000000024,
                    "velocity": 0.41732283464566927,
                    "duration": 0.07499999999998863
                },
                {
                    "name": "A#3",
                    "midi": 58,
                    "time": 243.00000000000023,
                    "velocity": 0.3228346456692913,
                    "duration": 0.15000000000000568
                },
                {
                    "name": "F#4",
                    "midi": 66,
                    "time": 243.00000000000023,
                    "velocity": 0.3858267716535433,
                    "duration": 0.15000000000000568
                },
                {
                    "name": "C#4",
                    "midi": 61,
                    "time": 243.00000000000023,
                    "velocity": 0.3228346456692913,
                    "duration": 0.15000000000000568
                },
                {
                    "name": "C#2",
                    "midi": 37,
                    "time": 243.30000000000024,
                    "velocity": 0.41732283464566927,
                    "duration": 0.15000000000000568
                },
                {
                    "name": "A#3",
                    "midi": 58,
                    "time": 243.60000000000025,
                    "velocity": 0.33070866141732286,
                    "duration": 0.15000000000000568
                },
                {
                    "name": "C#4",
                    "midi": 61,
                    "time": 243.60000000000025,
                    "velocity": 0.33070866141732286,
                    "duration": 0.15000000000000568
                },
                {
                    "name": "F#4",
                    "midi": 66,
                    "time": 243.60000000000025,
                    "velocity": 0.3937007874015748,
                    "duration": 0.15000000000000568
                },
                {
                    "name": "G#3",
                    "midi": 56,
                    "time": 243.90000000000026,
                    "velocity": 0.41732283464566927,
                    "duration": 0.07499999999998863
                },
                {
                    "name": "F4",
                    "midi": 65,
                    "time": 244.20000000000024,
                    "velocity": 0.3858267716535433,
                    "duration": 0.15000000000000568
                },
                {
                    "name": "C#4",
                    "midi": 61,
                    "time": 244.20000000000024,
                    "velocity": 0.3228346456692913,
                    "duration": 0.15000000000000568
                },
                {
                    "name": "C#3",
                    "midi": 49,
                    "time": 244.50000000000026,
                    "velocity": 0.41732283464566927,
                    "duration": 0.15000000000000568
                },
                {
                    "name": "F4",
                    "midi": 65,
                    "time": 244.80000000000027,
                    "velocity": 0.3937007874015748,
                    "duration": 0.15000000000000568
                },
                {
                    "name": "G#3",
                    "midi": 56,
                    "time": 244.80000000000027,
                    "velocity": 0.33070866141732286,
                    "duration": 0.15000000000000568
                },
                {
                    "name": "C#4",
                    "midi": 61,
                    "time": 244.80000000000027,
                    "velocity": 0.33070866141732286,
                    "duration": 0.15000000000000568
                },
                {
                    "name": "G#2",
                    "midi": 44,
                    "time": 245.10000000000028,
                    "velocity": 0.41732283464566927,
                    "duration": 0.07499999999998863
                },
                {
                    "name": "C#4",
                    "midi": 61,
                    "time": 245.40000000000026,
                    "velocity": 0.3228346456692913,
                    "duration": 0.15000000000000568
                },
                {
                    "name": "F4",
                    "midi": 65,
                    "time": 245.40000000000026,
                    "velocity": 0.3858267716535433,
                    "duration": 0.15000000000000568
                },
                {
                    "name": "G#3",
                    "midi": 56,
                    "time": 245.40000000000026,
                    "velocity": 0.3228346456692913,
                    "duration": 0.15000000000000568
                },
                {
                    "name": "C#2",
                    "midi": 37,
                    "time": 245.70000000000027,
                    "velocity": 0.41732283464566927,
                    "duration": 0.15000000000000568
                },
                {
                    "name": "C#4",
                    "midi": 61,
                    "time": 246.00000000000028,
                    "velocity": 0.33070866141732286,
                    "duration": 0.15000000000000568
                },
                {
                    "name": "F4",
                    "midi": 65,
                    "time": 246.00000000000028,
                    "velocity": 0.3937007874015748,
                    "duration": 0.15000000000000568
                },
                {
                    "name": "G#3",
                    "midi": 56,
                    "time": 246.00000000000028,
                    "velocity": 0.33070866141732286,
                    "duration": 0.15000000000000568
                },
                {
                    "name": "F#3",
                    "midi": 54,
                    "time": 246.3000000000003,
                    "velocity": 0.41732283464566927,
                    "duration": 0.07499999999998863
                },
                {
                    "name": "C#4",
                    "midi": 61,
                    "time": 246.60000000000028,
                    "velocity": 0.3228346456692913,
                    "duration": 0.15000000000000568
                },
                {
                    "name": "A#3",
                    "midi": 58,
                    "time": 246.60000000000028,
                    "velocity": 0.3228346456692913,
                    "duration": 0.15000000000000568
                },
                {
                    "name": "F#4",
                    "midi": 66,
                    "time": 246.60000000000028,
                    "velocity": 0.3858267716535433,
                    "duration": 0.15000000000000568
                },
                {
                    "name": "C#3",
                    "midi": 49,
                    "time": 246.9000000000003,
                    "velocity": 0.41732283464566927,
                    "duration": 0.15000000000000568
                },
                {
                    "name": "F#4",
                    "midi": 66,
                    "time": 247.2000000000003,
                    "velocity": 0.3937007874015748,
                    "duration": 0.15000000000000568
                },
                {
                    "name": "A#3",
                    "midi": 58,
                    "time": 247.2000000000003,
                    "velocity": 0.33070866141732286,
                    "duration": 0.15000000000000568
                },
                {
                    "name": "C#4",
                    "midi": 61,
                    "time": 247.2000000000003,
                    "velocity": 0.33070866141732286,
                    "duration": 0.15000000000000568
                },
                {
                    "name": "F#2",
                    "midi": 42,
                    "time": 247.5000000000003,
                    "velocity": 0.41732283464566927,
                    "duration": 0.07499999999998863
                },
                {
                    "name": "C#4",
                    "midi": 61,
                    "time": 247.8000000000003,
                    "velocity": 0.3228346456692913,
                    "duration": 0.15000000000000568
                },
                {
                    "name": "A#3",
                    "midi": 58,
                    "time": 247.8000000000003,
                    "velocity": 0.3228346456692913,
                    "duration": 0.15000000000000568
                },
                {
                    "name": "F#4",
                    "midi": 66,
                    "time": 247.8000000000003,
                    "velocity": 0.3858267716535433,
                    "duration": 0.15000000000000568
                },
                {
                    "name": "C#2",
                    "midi": 37,
                    "time": 248.1000000000003,
                    "velocity": 0.41732283464566927,
                    "duration": 0.15000000000000568
                },
                {
                    "name": "A#3",
                    "midi": 58,
                    "time": 248.40000000000032,
                    "velocity": 0.33070866141732286,
                    "duration": 0.15000000000000568
                },
                {
                    "name": "C#4",
                    "midi": 61,
                    "time": 248.40000000000032,
                    "velocity": 0.33070866141732286,
                    "duration": 0.15000000000000568
                },
                {
                    "name": "F#4",
                    "midi": 66,
                    "time": 248.40000000000032,
                    "velocity": 0.3937007874015748,
                    "duration": 0.15000000000000568
                },
                {
                    "name": "F#3",
                    "midi": 54,
                    "time": 248.70000000000033,
                    "velocity": 0.33070866141732286,
                    "duration": 0.11250000000001137
                },
                {
                    "name": "B3",
                    "midi": 59,
                    "time": 249.00000000000034,
                    "velocity": 0.2283464566929134,
                    "duration": 0.11250000000001137
                },
                {
                    "name": "D#4",
                    "midi": 63,
                    "time": 249.00000000000034,
                    "velocity": 0.2755905511811024,
                    "duration": 0.11250000000001137
                },
                {
                    "name": "C#3",
                    "midi": 49,
                    "time": 249.30000000000035,
                    "velocity": 0.25984251968503935,
                    "duration": 0.11250000000001137
                },
                {
                    "name": "F#4",
                    "midi": 66,
                    "time": 249.60000000000036,
                    "velocity": 0.25984251968503935,
                    "duration": 0.11250000000001137
                },
                {
                    "name": "D#4",
                    "midi": 63,
                    "time": 249.60000000000036,
                    "velocity": 0.2204724409448819,
                    "duration": 0.11250000000001137
                },
                {
                    "name": "F#3",
                    "midi": 54,
                    "time": 249.90000000000038,
                    "velocity": 0.33070866141732286,
                    "duration": 0.11250000000001137
                },
                {
                    "name": "D#4",
                    "midi": 63,
                    "time": 250.2000000000004,
                    "velocity": 0.28346456692913385,
                    "duration": 0.11250000000001137
                },
                {
                    "name": "B3",
                    "midi": 59,
                    "time": 250.2000000000004,
                    "velocity": 0.23622047244094488,
                    "duration": 0.11250000000001137
                },
                {
                    "name": "C#3",
                    "midi": 49,
                    "time": 250.5000000000004,
                    "velocity": 0.28346456692913385,
                    "duration": 0.11250000000001137
                },
                {
                    "name": "D#4",
                    "midi": 63,
                    "time": 250.8000000000004,
                    "velocity": 0.23622047244094488,
                    "duration": 0.11250000000001137
                },
                {
                    "name": "F#4",
                    "midi": 66,
                    "time": 250.8000000000004,
                    "velocity": 0.28346456692913385,
                    "duration": 0.11250000000001137
                },
                {
                    "name": "F#3",
                    "midi": 54,
                    "time": 251.10000000000042,
                    "velocity": 0.33070866141732286,
                    "duration": 0.11250000000001137
                },
                {
                    "name": "C#4",
                    "midi": 61,
                    "time": 251.40000000000043,
                    "velocity": 0.28346456692913385,
                    "duration": 0.11250000000001137
                },
                {
                    "name": "A#3",
                    "midi": 58,
                    "time": 251.40000000000043,
                    "velocity": 0.23622047244094488,
                    "duration": 0.11250000000001137
                },
                {
                    "name": "C#3",
                    "midi": 49,
                    "time": 251.70000000000044,
                    "velocity": 0.28346456692913385,
                    "duration": 0.11250000000001137
                },
                {
                    "name": "F#4",
                    "midi": 66,
                    "time": 252.00000000000045,
                    "velocity": 0.28346456692913385,
                    "duration": 0.11250000000001137
                },
                {
                    "name": "C#4",
                    "midi": 61,
                    "time": 252.00000000000045,
                    "velocity": 0.23622047244094488,
                    "duration": 0.11250000000001137
                },
                {
                    "name": "F#3",
                    "midi": 54,
                    "time": 252.30000000000047,
                    "velocity": 0.33070866141732286,
                    "duration": 0.11250000000001137
                },
                {
                    "name": "A#3",
                    "midi": 58,
                    "time": 252.60000000000048,
                    "velocity": 0.23622047244094488,
                    "duration": 0.11250000000001137
                },
                {
                    "name": "C#4",
                    "midi": 61,
                    "time": 252.60000000000048,
                    "velocity": 0.29133858267716534,
                    "duration": 0.11250000000001137
                },
                {
                    "name": "C#3",
                    "midi": 49,
                    "time": 252.9000000000005,
                    "velocity": 0.29133858267716534,
                    "duration": 0.15000000000000568
                },
                {
                    "name": "C#4",
                    "midi": 61,
                    "time": 253.2000000000005,
                    "velocity": 0.2440944881889764,
                    "duration": 0.15000000000000568
                },
                {
                    "name": "F#4",
                    "midi": 66,
                    "time": 253.2000000000005,
                    "velocity": 0.29133858267716534,
                    "duration": 0.15000000000000568
                },
                {
                    "name": "F#3",
                    "midi": 54,
                    "time": 253.5000000000005,
                    "velocity": 0.33070866141732286,
                    "duration": 0.15000000000000568
                },
                {
                    "name": "D#4",
                    "midi": 63,
                    "time": 253.80000000000052,
                    "velocity": 0.2755905511811024,
                    "duration": 0.11250000000001137
                },
                {
                    "name": "B3",
                    "midi": 59,
                    "time": 253.80000000000052,
                    "velocity": 0.2283464566929134,
                    "duration": 0.11250000000001137
                },
                {
                    "name": "C#3",
                    "midi": 49,
                    "time": 254.10000000000053,
                    "velocity": 0.25984251968503935,
                    "duration": 0.11250000000001137
                },
                {
                    "name": "D#4",
                    "midi": 63,
                    "time": 254.40000000000055,
                    "velocity": 0.2204724409448819,
                    "duration": 0.11250000000001137
                },
                {
                    "name": "F#4",
                    "midi": 66,
                    "time": 254.40000000000055,
                    "velocity": 0.25984251968503935,
                    "duration": 0.11250000000001137
                },
                {
                    "name": "F#3",
                    "midi": 54,
                    "time": 254.70000000000056,
                    "velocity": 0.33070866141732286,
                    "duration": 0.11250000000001137
                },
                {
                    "name": "B3",
                    "midi": 59,
                    "time": 255.00000000000057,
                    "velocity": 0.23622047244094488,
                    "duration": 0.11250000000001137
                },
                {
                    "name": "D#4",
                    "midi": 63,
                    "time": 255.00000000000057,
                    "velocity": 0.28346456692913385,
                    "duration": 0.11250000000001137
                },
                {
                    "name": "C#3",
                    "midi": 49,
                    "time": 255.30000000000058,
                    "velocity": 0.28346456692913385,
                    "duration": 0.11250000000001137
                },
                {
                    "name": "F#4",
                    "midi": 66,
                    "time": 255.6000000000006,
                    "velocity": 0.28346456692913385,
                    "duration": 0.11250000000001137
                },
                {
                    "name": "D#4",
                    "midi": 63,
                    "time": 255.6000000000006,
                    "velocity": 0.23622047244094488,
                    "duration": 0.11250000000001137
                },
                {
                    "name": "F#3",
                    "midi": 54,
                    "time": 255.9000000000006,
                    "velocity": 0.33070866141732286,
                    "duration": 0.11250000000001137
                },
                {
                    "name": "C#4",
                    "midi": 61,
                    "time": 256.2000000000006,
                    "velocity": 0.28346456692913385,
                    "duration": 0.11250000000001137
                },
                {
                    "name": "A#3",
                    "midi": 58,
                    "time": 256.2000000000006,
                    "velocity": 0.23622047244094488,
                    "duration": 0.11250000000001137
                },
                {
                    "name": "C#3",
                    "midi": 49,
                    "time": 256.5000000000006,
                    "velocity": 0.28346456692913385,
                    "duration": 0.11250000000001137
                },
                {
                    "name": "C#4",
                    "midi": 61,
                    "time": 256.80000000000064,
                    "velocity": 0.23622047244094488,
                    "duration": 0.11250000000001137
                },
                {
                    "name": "F#4",
                    "midi": 66,
                    "time": 256.80000000000064,
                    "velocity": 0.28346456692913385,
                    "duration": 0.11250000000001137
                },
                {
                    "name": "F#3",
                    "midi": 54,
                    "time": 257.10000000000065,
                    "velocity": 0.33070866141732286,
                    "duration": 0.11250000000001137
                },
                {
                    "name": "A#3",
                    "midi": 58,
                    "time": 257.40000000000066,
                    "velocity": 0.23622047244094488,
                    "duration": 0.11250000000001137
                },
                {
                    "name": "C#4",
                    "midi": 61,
                    "time": 257.40000000000066,
                    "velocity": 0.29133858267716534,
                    "duration": 0.11250000000001137
                },
                {
                    "name": "C#3",
                    "midi": 49,
                    "time": 257.70000000000067,
                    "velocity": 0.29133858267716534,
                    "duration": 0.14999999999997726
                },
                {
                    "name": "C#4",
                    "midi": 61,
                    "time": 258.0000000000006,
                    "velocity": 0.2440944881889764,
                    "duration": 0.14999999999997726
                },
                {
                    "name": "F#4",
                    "midi": 66,
                    "time": 258.0000000000006,
                    "velocity": 0.29133858267716534,
                    "duration": 0.14999999999997726
                },
                {
                    "name": "G#3",
                    "midi": 56,
                    "time": 258.3000000000006,
                    "velocity": 0.33070866141732286,
                    "duration": 0.14999999999997726
                },
                {
                    "name": "F4",
                    "midi": 65,
                    "time": 258.60000000000053,
                    "velocity": 0.29133858267716534,
                    "duration": 0.14999999999997726
                },
                {
                    "name": "C#4",
                    "midi": 61,
                    "time": 258.60000000000053,
                    "velocity": 0.2440944881889764,
                    "duration": 0.14999999999997726
                },
                {
                    "name": "C#3",
                    "midi": 49,
                    "time": 258.9000000000005,
                    "velocity": 0.33070866141732286,
                    "duration": 0.14999999999997726
                },
                {
                    "name": "C#4",
                    "midi": 61,
                    "time": 259.20000000000044,
                    "velocity": 0.2440944881889764,
                    "duration": 0.14999999999997726
                },
                {
                    "name": "F4",
                    "midi": 65,
                    "time": 259.20000000000044,
                    "velocity": 0.29133858267716534,
                    "duration": 0.14999999999997726
                },
                {
                    "name": "G#4",
                    "midi": 68,
                    "time": 259.5000000000004,
                    "velocity": 0.33070866141732286,
                    "duration": 0.14999999999997726
                },
                {
                    "name": "F5",
                    "midi": 77,
                    "time": 259.80000000000035,
                    "velocity": 0.29133858267716534,
                    "duration": 0.14999999999997726
                },
                {
                    "name": "C#5",
                    "midi": 73,
                    "time": 259.80000000000035,
                    "velocity": 0.2440944881889764,
                    "duration": 0.14999999999997726
                },
                {
                    "name": "C#4",
                    "midi": 61,
                    "time": 260.1000000000003,
                    "velocity": 0.33070866141732286,
                    "duration": 0.14999999999997726
                },
                {
                    "name": "F5",
                    "midi": 77,
                    "time": 260.40000000000026,
                    "velocity": 0.29133858267716534,
                    "duration": 0.14999999999997726
                },
                {
                    "name": "C#5",
                    "midi": 73,
                    "time": 260.40000000000026,
                    "velocity": 0.2440944881889764,
                    "duration": 0.14999999999997726
                },
                {
                    "name": "F#3",
                    "midi": 54,
                    "time": 260.7000000000002,
                    "velocity": 0.33070866141732286,
                    "duration": 0.14999999999997726
                },
                {
                    "name": "F#4",
                    "midi": 66,
                    "time": 261.00000000000017,
                    "velocity": 0.29133858267716534,
                    "duration": 0.14999999999997726
                },
                {
                    "name": "A#3",
                    "midi": 58,
                    "time": 261.00000000000017,
                    "velocity": 0.2440944881889764,
                    "duration": 0.14999999999997726
                },
                {
                    "name": "C#4",
                    "midi": 61,
                    "time": 261.00000000000017,
                    "velocity": 0.2440944881889764,
                    "duration": 0.14999999999997726
                },
                {
                    "name": "C#3",
                    "midi": 49,
                    "time": 261.3000000000001,
                    "velocity": 0.33070866141732286,
                    "duration": 0.14999999999997726
                },
                {
                    "name": "A#3",
                    "midi": 58,
                    "time": 261.6000000000001,
                    "velocity": 0.2440944881889764,
                    "duration": 0.14999999999997726
                },
                {
                    "name": "C#4",
                    "midi": 61,
                    "time": 261.6000000000001,
                    "velocity": 0.2440944881889764,
                    "duration": 0.14999999999997726
                },
                {
                    "name": "F#4",
                    "midi": 66,
                    "time": 261.6000000000001,
                    "velocity": 0.29133858267716534,
                    "duration": 0.14999999999997726
                },
                {
                    "name": "A#4",
                    "midi": 70,
                    "time": 261.90000000000003,
                    "velocity": 0.33070866141732286,
                    "duration": 0.14999999999997726
                },
                {
                    "name": "C#5",
                    "midi": 73,
                    "time": 262.2,
                    "velocity": 0.2440944881889764,
                    "duration": 0.14999999999997726
                },
                {
                    "name": "F#5",
                    "midi": 78,
                    "time": 262.2,
                    "velocity": 0.29133858267716534,
                    "duration": 0.14999999999997726
                },
                {
                    "name": "F#4",
                    "midi": 66,
                    "time": 262.49999999999994,
                    "velocity": 0.33070866141732286,
                    "duration": 0.14999999999997726
                },
                {
                    "name": "C#5",
                    "midi": 73,
                    "time": 262.7999999999999,
                    "velocity": 0.2440944881889764,
                    "duration": 0.14999999999997726
                },
                {
                    "name": "F#5",
                    "midi": 78,
                    "time": 262.7999999999999,
                    "velocity": 0.29133858267716534,
                    "duration": 0.14999999999997726
                },
                {
                    "name": "G#3",
                    "midi": 56,
                    "time": 263.09999999999985,
                    "velocity": 0.33070866141732286,
                    "duration": 0.14999999999997726
                },
                {
                    "name": "C#4",
                    "midi": 61,
                    "time": 263.3999999999998,
                    "velocity": 0.2440944881889764,
                    "duration": 0.14999999999997726
                },
                {
                    "name": "F4",
                    "midi": 65,
                    "time": 263.3999999999998,
                    "velocity": 0.29133858267716534,
                    "duration": 0.14999999999997726
                },
                {
                    "name": "C#3",
                    "midi": 49,
                    "time": 263.69999999999976,
                    "velocity": 0.33070866141732286,
                    "duration": 0.14999999999997726
                },
                {
                    "name": "C#4",
                    "midi": 61,
                    "time": 263.9999999999997,
                    "velocity": 0.2440944881889764,
                    "duration": 0.14999999999997726
                },
                {
                    "name": "F4",
                    "midi": 65,
                    "time": 263.9999999999997,
                    "velocity": 0.29133858267716534,
                    "duration": 0.14999999999997726
                },
                {
                    "name": "G#4",
                    "midi": 68,
                    "time": 264.29999999999967,
                    "velocity": 0.33070866141732286,
                    "duration": 0.14999999999997726
                },
                {
                    "name": "C#5",
                    "midi": 73,
                    "time": 264.5999999999996,
                    "velocity": 0.2440944881889764,
                    "duration": 0.14999999999997726
                },
                {
                    "name": "F5",
                    "midi": 77,
                    "time": 264.5999999999996,
                    "velocity": 0.29133858267716534,
                    "duration": 0.14999999999997726
                },
                {
                    "name": "C#4",
                    "midi": 61,
                    "time": 264.8999999999996,
                    "velocity": 0.33070866141732286,
                    "duration": 0.14999999999997726
                },
                {
                    "name": "F5",
                    "midi": 77,
                    "time": 265.19999999999953,
                    "velocity": 0.29133858267716534,
                    "duration": 0.14999999999997726
                },
                {
                    "name": "C#5",
                    "midi": 73,
                    "time": 265.19999999999953,
                    "velocity": 0.2440944881889764,
                    "duration": 0.14999999999997726
                },
                {
                    "name": "F#3",
                    "midi": 54,
                    "time": 265.4999999999995,
                    "velocity": 0.33070866141732286,
                    "duration": 0.14999999999997726
                },
                {
                    "name": "F#4",
                    "midi": 66,
                    "time": 265.79999999999944,
                    "velocity": 0.29133858267716534,
                    "duration": 0.14999999999997726
                },
                {
                    "name": "A#3",
                    "midi": 58,
                    "time": 265.79999999999944,
                    "velocity": 0.2440944881889764,
                    "duration": 0.14999999999997726
                },
                {
                    "name": "C#4",
                    "midi": 61,
                    "time": 265.79999999999944,
                    "velocity": 0.2440944881889764,
                    "duration": 0.14999999999997726
                },
                {
                    "name": "C#3",
                    "midi": 49,
                    "time": 266.0999999999994,
                    "velocity": 0.33070866141732286,
                    "duration": 0.14999999999997726
                },
                {
                    "name": "C#4",
                    "midi": 61,
                    "time": 266.39999999999935,
                    "velocity": 0.2440944881889764,
                    "duration": 0.14999999999997726
                },
                {
                    "name": "F#4",
                    "midi": 66,
                    "time": 266.39999999999935,
                    "velocity": 0.29133858267716534,
                    "duration": 0.14999999999997726
                },
                {
                    "name": "A#3",
                    "midi": 58,
                    "time": 266.39999999999935,
                    "velocity": 0.2440944881889764,
                    "duration": 0.14999999999997726
                },
                {
                    "name": "A#4",
                    "midi": 70,
                    "time": 266.6999999999993,
                    "velocity": 0.33070866141732286,
                    "duration": 0.14999999999997726
                },
                {
                    "name": "C#5",
                    "midi": 73,
                    "time": 266.99999999999926,
                    "velocity": 0.2440944881889764,
                    "duration": 0.14999999999997726
                },
                {
                    "name": "F#5",
                    "midi": 78,
                    "time": 266.99999999999926,
                    "velocity": 0.29133858267716534,
                    "duration": 0.14999999999997726
                },
                {
                    "name": "F#4",
                    "midi": 66,
                    "time": 267.2999999999992,
                    "velocity": 0.33070866141732286,
                    "duration": 0.14999999999997726
                },
                {
                    "name": "F#5",
                    "midi": 78,
                    "time": 267.59999999999917,
                    "velocity": 0.29133858267716534,
                    "duration": 0.14999999999997726
                },
                {
                    "name": "C#5",
                    "midi": 73,
                    "time": 267.59999999999917,
                    "velocity": 0.2440944881889764,
                    "duration": 0.14999999999997726
                },
                {
                    "name": "F#4",
                    "midi": 66,
                    "time": 267.8999999999991,
                    "velocity": 0.33070866141732286,
                    "duration": 0.14999999999997726
                },
                {
                    "name": "B4",
                    "midi": 71,
                    "time": 268.1999999999991,
                    "velocity": 0.2440944881889764,
                    "duration": 0.14999999999997726
                },
                {
                    "name": "D#5",
                    "midi": 75,
                    "time": 268.1999999999991,
                    "velocity": 0.29133858267716534,
                    "duration": 0.14999999999997726
                },
                {
                    "name": "C#4",
                    "midi": 61,
                    "time": 268.49999999999903,
                    "velocity": 0.33070866141732286,
                    "duration": 0.14999999999997726
                },
                {
                    "name": "F#5",
                    "midi": 78,
                    "time": 268.799999999999,
                    "velocity": 0.29133858267716534,
                    "duration": 0.14999999999997726
                },
                {
                    "name": "D#5",
                    "midi": 75,
                    "time": 268.799999999999,
                    "velocity": 0.2440944881889764,
                    "duration": 0.14999999999997726
                },
                {
                    "name": "F#4",
                    "midi": 66,
                    "time": 269.09999999999894,
                    "velocity": 0.33070866141732286,
                    "duration": 0.14999999999997726
                },
                {
                    "name": "F#5",
                    "midi": 78,
                    "time": 269.3999999999989,
                    "velocity": 0.29133858267716534,
                    "duration": 0.14999999999997726
                },
                {
                    "name": "D#5",
                    "midi": 75,
                    "time": 269.3999999999989,
                    "velocity": 0.2440944881889764,
                    "duration": 0.14999999999997726
                },
                {
                    "name": "B4",
                    "midi": 71,
                    "time": 269.69999999999885,
                    "velocity": 0.33070866141732286,
                    "duration": 0.14999999999997726
                },
                {
                    "name": "D#5",
                    "midi": 75,
                    "time": 269.9999999999988,
                    "velocity": 0.2440944881889764,
                    "duration": 0.14999999999997726
                },
                {
                    "name": "F#5",
                    "midi": 78,
                    "time": 269.9999999999988,
                    "velocity": 0.29133858267716534,
                    "duration": 0.14999999999997726
                },
                {
                    "name": "F#4",
                    "midi": 66,
                    "time": 270.29999999999876,
                    "velocity": 0.33070866141732286,
                    "duration": 0.14999999999997726
                },
                {
                    "name": "A#4",
                    "midi": 70,
                    "time": 270.5999999999987,
                    "velocity": 0.2440944881889764,
                    "duration": 0.14999999999997726
                },
                {
                    "name": "C#5",
                    "midi": 73,
                    "time": 270.5999999999987,
                    "velocity": 0.29133858267716534,
                    "duration": 0.14999999999997726
                },
                {
                    "name": "C#4",
                    "midi": 61,
                    "time": 270.89999999999867,
                    "velocity": 0.33070866141732286,
                    "duration": 0.14999999999997726
                },
                {
                    "name": "F#5",
                    "midi": 78,
                    "time": 271.1999999999986,
                    "velocity": 0.29133858267716534,
                    "duration": 0.14999999999997726
                },
                {
                    "name": "C#5",
                    "midi": 73,
                    "time": 271.1999999999986,
                    "velocity": 0.2440944881889764,
                    "duration": 0.14999999999997726
                },
                {
                    "name": "F#4",
                    "midi": 66,
                    "time": 271.4999999999986,
                    "velocity": 0.33070866141732286,
                    "duration": 0.14999999999997726
                },
                {
                    "name": "F#5",
                    "midi": 78,
                    "time": 271.79999999999853,
                    "velocity": 0.29133858267716534,
                    "duration": 0.14999999999997726
                },
                {
                    "name": "C#5",
                    "midi": 73,
                    "time": 271.79999999999853,
                    "velocity": 0.2440944881889764,
                    "duration": 0.14999999999997726
                },
                {
                    "name": "A#4",
                    "midi": 70,
                    "time": 272.0999999999985,
                    "velocity": 0.33070866141732286,
                    "duration": 0.14999999999997726
                },
                {
                    "name": "F#5",
                    "midi": 78,
                    "time": 272.39999999999844,
                    "velocity": 0.29133858267716534,
                    "duration": 0.14999999999997726
                },
                {
                    "name": "C#5",
                    "midi": 73,
                    "time": 272.39999999999844,
                    "velocity": 0.2440944881889764,
                    "duration": 0.14999999999997726
                },
                {
                    "name": "F#4",
                    "midi": 66,
                    "time": 272.6999999999984,
                    "velocity": 0.33070866141732286,
                    "duration": 0.14999999999997726
                },
                {
                    "name": "D#5",
                    "midi": 75,
                    "time": 272.99999999999835,
                    "velocity": 0.29133858267716534,
                    "duration": 0.14999999999997726
                },
                {
                    "name": "B4",
                    "midi": 71,
                    "time": 272.99999999999835,
                    "velocity": 0.2440944881889764,
                    "duration": 0.14999999999997726
                },
                {
                    "name": "C#4",
                    "midi": 61,
                    "time": 273.2999999999983,
                    "velocity": 0.33070866141732286,
                    "duration": 0.14999999999997726
                },
                {
                    "name": "F#5",
                    "midi": 78,
                    "time": 273.59999999999826,
                    "velocity": 0.29133858267716534,
                    "duration": 0.14999999999997726
                },
                {
                    "name": "D#5",
                    "midi": 75,
                    "time": 273.59999999999826,
                    "velocity": 0.2440944881889764,
                    "duration": 0.14999999999997726
                },
                {
                    "name": "F#4",
                    "midi": 66,
                    "time": 273.8999999999982,
                    "velocity": 0.33070866141732286,
                    "duration": 0.14999999999997726
                },
                {
                    "name": "F#5",
                    "midi": 78,
                    "time": 274.19999999999817,
                    "velocity": 0.29133858267716534,
                    "duration": 0.14999999999997726
                },
                {
                    "name": "D#5",
                    "midi": 75,
                    "time": 274.19999999999817,
                    "velocity": 0.2440944881889764,
                    "duration": 0.14999999999997726
                },
                {
                    "name": "B4",
                    "midi": 71,
                    "time": 274.4999999999981,
                    "velocity": 0.33070866141732286,
                    "duration": 0.14999999999997726
                },
                {
                    "name": "F#5",
                    "midi": 78,
                    "time": 274.7999999999981,
                    "velocity": 0.29133858267716534,
                    "duration": 0.14999999999997726
                },
                {
                    "name": "D#5",
                    "midi": 75,
                    "time": 274.7999999999981,
                    "velocity": 0.2440944881889764,
                    "duration": 0.14999999999997726
                },
                {
                    "name": "F#4",
                    "midi": 66,
                    "time": 275.09999999999803,
                    "velocity": 0.33070866141732286,
                    "duration": 0.14999999999997726
                },
                {
                    "name": "C#5",
                    "midi": 73,
                    "time": 275.399999999998,
                    "velocity": 0.29133858267716534,
                    "duration": 0.14999999999997726
                },
                {
                    "name": "A#4",
                    "midi": 70,
                    "time": 275.399999999998,
                    "velocity": 0.2440944881889764,
                    "duration": 0.14999999999997726
                },
                {
                    "name": "C#4",
                    "midi": 61,
                    "time": 275.69999999999794,
                    "velocity": 0.33070866141732286,
                    "duration": 0.14999999999997726
                },
                {
                    "name": "F#5",
                    "midi": 78,
                    "time": 275.9999999999979,
                    "velocity": 0.29133858267716534,
                    "duration": 0.14999999999997726
                },
                {
                    "name": "C#5",
                    "midi": 73,
                    "time": 275.9999999999979,
                    "velocity": 0.2440944881889764,
                    "duration": 0.14999999999997726
                },
                {
                    "name": "F#4",
                    "midi": 66,
                    "time": 276.29999999999785,
                    "velocity": 0.33070866141732286,
                    "duration": 0.14999999999997726
                },
                {
                    "name": "C#5",
                    "midi": 73,
                    "time": 276.5999999999978,
                    "velocity": 0.2440944881889764,
                    "duration": 0.14999999999997726
                },
                {
                    "name": "F#5",
                    "midi": 78,
                    "time": 276.5999999999978,
                    "velocity": 0.29133858267716534,
                    "duration": 0.14999999999997726
                },
                {
                    "name": "A#4",
                    "midi": 70,
                    "time": 276.89999999999776,
                    "velocity": 0.33070866141732286,
                    "duration": 0.14999999999997726
                },
                {
                    "name": "C#5",
                    "midi": 73,
                    "time": 277.1999999999977,
                    "velocity": 0.2440944881889764,
                    "duration": 0.14999999999997726
                },
                {
                    "name": "F#5",
                    "midi": 78,
                    "time": 277.1999999999977,
                    "velocity": 0.29133858267716534,
                    "duration": 0.14999999999997726
                },
                {
                    "name": "C4",
                    "midi": 60,
                    "time": 277.7249999999977,
                    "velocity": 0.33070866141732286,
                    "duration": 0.07499999999998863
                },
                {
                    "name": "C#4",
                    "midi": 61,
                    "time": 277.7999999999977,
                    "velocity": 0.3779527559055118,
                    "duration": 0.14999999999997726
                },
                {
                    "name": "E4",
                    "midi": 64,
                    "time": 278.32499999999766,
                    "velocity": 0.3779527559055118,
                    "duration": 0.07499999999998863
                },
                {
                    "name": "F4",
                    "midi": 65,
                    "time": 278.39999999999765,
                    "velocity": 0.3858267716535433,
                    "duration": 0.14999999999997726
                },
                {
                    "name": "A4",
                    "midi": 69,
                    "time": 278.9249999999976,
                    "velocity": 0.3937007874015748,
                    "duration": 0.07499999999998863
                },
                {
                    "name": "A#4",
                    "midi": 70,
                    "time": 278.9999999999976,
                    "velocity": 0.4015748031496063,
                    "duration": 0.14999999999997726
                },
                {
                    "name": "G4",
                    "midi": 67,
                    "time": 279.5249999999976,
                    "velocity": 0.33070866141732286,
                    "duration": 0.07499999999998863
                },
                {
                    "name": "G#4",
                    "midi": 68,
                    "time": 279.5999999999976,
                    "velocity": 0.3858267716535433,
                    "duration": 0.14999999999997726
                },
                {
                    "name": "F4",
                    "midi": 65,
                    "time": 280.12499999999756,
                    "velocity": 0.33070866141732286,
                    "duration": 0.07499999999998863
                },
                {
                    "name": "F#4",
                    "midi": 66,
                    "time": 280.19999999999754,
                    "velocity": 0.3937007874015748,
                    "duration": 0.14999999999997726
                },
                {
                    "name": "E4",
                    "midi": 64,
                    "time": 280.4249999999975,
                    "velocity": 0.33070866141732286,
                    "duration": 0.07499999999998863
                },
                {
                    "name": "F4",
                    "midi": 65,
                    "time": 280.4999999999975,
                    "velocity": 0.3779527559055118,
                    "duration": 0.14999999999997726
                },
                {
                    "name": "D#4",
                    "midi": 63,
                    "time": 280.72499999999746,
                    "velocity": 0.33070866141732286,
                    "duration": 0.07499999999998863
                },
                {
                    "name": "E4",
                    "midi": 64,
                    "time": 280.79999999999745,
                    "velocity": 0.4251968503937008,
                    "duration": 0.14999999999997726
                },
                {
                    "name": "D4",
                    "midi": 62,
                    "time": 281.32499999999743,
                    "velocity": 0.33070866141732286,
                    "duration": 0.07499999999998863
                },
                {
                    "name": "D#4",
                    "midi": 63,
                    "time": 281.3999999999974,
                    "velocity": 0.3858267716535433,
                    "duration": 0.14999999999997726
                },
                {
                    "name": "C#4",
                    "midi": 61,
                    "time": 281.6249999999974,
                    "velocity": 0.33070866141732286,
                    "duration": 0.07499999999998863
                },
                {
                    "name": "D4",
                    "midi": 62,
                    "time": 281.6999999999974,
                    "velocity": 0.3858267716535433,
                    "duration": 0.14999999999997726
                },
                {
                    "name": "C4",
                    "midi": 60,
                    "time": 281.92499999999734,
                    "velocity": 0.4251968503937008,
                    "duration": 0.07499999999998863
                },
                {
                    "name": "C#4",
                    "midi": 61,
                    "time": 281.9999999999973,
                    "velocity": 0.4409448818897638,
                    "duration": 0.14999999999997726
                },
                {
                    "name": "C4",
                    "midi": 60,
                    "time": 282.5249999999973,
                    "velocity": 0.33070866141732286,
                    "duration": 0.07499999999998863
                },
                {
                    "name": "C#4",
                    "midi": 61,
                    "time": 282.5999999999973,
                    "velocity": 0.3779527559055118,
                    "duration": 0.14999999999997726
                },
                {
                    "name": "E4",
                    "midi": 64,
                    "time": 283.12499999999727,
                    "velocity": 0.3779527559055118,
                    "duration": 0.07499999999998863
                },
                {
                    "name": "F4",
                    "midi": 65,
                    "time": 283.19999999999726,
                    "velocity": 0.3858267716535433,
                    "duration": 0.14999999999997726
                },
                {
                    "name": "A4",
                    "midi": 69,
                    "time": 283.72499999999724,
                    "velocity": 0.3937007874015748,
                    "duration": 0.07499999999998863
                },
                {
                    "name": "A#4",
                    "midi": 70,
                    "time": 283.7999999999972,
                    "velocity": 0.4015748031496063,
                    "duration": 0.14999999999997726
                },
                {
                    "name": "G4",
                    "midi": 67,
                    "time": 284.3249999999972,
                    "velocity": 0.33070866141732286,
                    "duration": 0.07499999999998863
                },
                {
                    "name": "G#4",
                    "midi": 68,
                    "time": 284.3999999999972,
                    "velocity": 0.3858267716535433,
                    "duration": 0.14999999999997726
                },
                {
                    "name": "F4",
                    "midi": 65,
                    "time": 284.92499999999717,
                    "velocity": 0.33070866141732286,
                    "duration": 0.07499999999998863
                },
                {
                    "name": "F#4",
                    "midi": 66,
                    "time": 284.99999999999716,
                    "velocity": 0.3937007874015748,
                    "duration": 0.14999999999997726
                },
                {
                    "name": "E4",
                    "midi": 64,
                    "time": 285.2249999999971,
                    "velocity": 0.33070866141732286,
                    "duration": 0.07499999999998863
                },
                {
                    "name": "F4",
                    "midi": 65,
                    "time": 285.2999999999971,
                    "velocity": 0.3779527559055118,
                    "duration": 0.14999999999997726
                },
                {
                    "name": "D#4",
                    "midi": 63,
                    "time": 285.5249999999971,
                    "velocity": 0.33070866141732286,
                    "duration": 0.07499999999998863
                },
                {
                    "name": "E4",
                    "midi": 64,
                    "time": 285.59999999999707,
                    "velocity": 0.4251968503937008,
                    "duration": 0.14999999999997726
                },
                {
                    "name": "D4",
                    "midi": 62,
                    "time": 286.12499999999704,
                    "velocity": 0.33070866141732286,
                    "duration": 0.07499999999998863
                },
                {
                    "name": "D#4",
                    "midi": 63,
                    "time": 286.19999999999703,
                    "velocity": 0.3858267716535433,
                    "duration": 0.14999999999997726
                },
                {
                    "name": "C#4",
                    "midi": 61,
                    "time": 286.424999999997,
                    "velocity": 0.33070866141732286,
                    "duration": 0.07499999999998863
                },
                {
                    "name": "D4",
                    "midi": 62,
                    "time": 286.499999999997,
                    "velocity": 0.3858267716535433,
                    "duration": 0.14999999999997726
                },
                {
                    "name": "C4",
                    "midi": 60,
                    "time": 286.72499999999695,
                    "velocity": 0.4251968503937008,
                    "duration": 0.07499999999998863
                },
                {
                    "name": "C#4",
                    "midi": 61,
                    "time": 286.79999999999694,
                    "velocity": 0.4409448818897638,
                    "duration": 0.14999999999997726
                },
                {
                    "name": "G#3",
                    "midi": 56,
                    "time": 287.0999999999969,
                    "velocity": 0.33070866141732286,
                    "duration": 0.14999999999997726
                },
                {
                    "name": "C#4",
                    "midi": 61,
                    "time": 287.39999999999685,
                    "velocity": 0.29133858267716534,
                    "duration": 0.14999999999997726
                },
                {
                    "name": "F4",
                    "midi": 65,
                    "time": 287.39999999999685,
                    "velocity": 0.29133858267716534,
                    "duration": 0.14999999999997726
                },
                {
                    "name": "C#3",
                    "midi": 49,
                    "time": 287.6999999999968,
                    "velocity": 0.33070866141732286,
                    "duration": 0.14999999999997726
                },
                {
                    "name": "C#4",
                    "midi": 61,
                    "time": 287.99999999999676,
                    "velocity": 0.29133858267716534,
                    "duration": 0.14999999999997726
                },
                {
                    "name": "F4",
                    "midi": 65,
                    "time": 287.99999999999676,
                    "velocity": 0.29133858267716534,
                    "duration": 0.14999999999997726
                },
                {
                    "name": "G#4",
                    "midi": 68,
                    "time": 288.2999999999967,
                    "velocity": 0.29133858267716534,
                    "duration": 0.14999999999997726
                },
                {
                    "name": "C5",
                    "midi": 72,
                    "time": 288.2999999999967,
                    "velocity": 0.33070866141732286,
                    "duration": 0.14999999999997726
                },
                {
                    "name": "C#5",
                    "midi": 73,
                    "time": 288.59999999999667,
                    "velocity": 0.29133858267716534,
                    "duration": 0.14999999999997726
                },
                {
                    "name": "F4",
                    "midi": 65,
                    "time": 288.59999999999667,
                    "velocity": 0.29133858267716534,
                    "duration": 0.14999999999997726
                },
                {
                    "name": "B4",
                    "midi": 71,
                    "time": 288.8999999999966,
                    "velocity": 0.3779527559055118,
                    "duration": 0.44999999999998863
                },
                {
                    "name": "G#4",
                    "midi": 68,
                    "time": 288.8999999999966,
                    "velocity": 0.33070866141732286,
                    "duration": 0.44999999999998863
                },
                {
                    "name": "C#5",
                    "midi": 73,
                    "time": 289.3499999999966,
                    "velocity": 0.29133858267716534,
                    "duration": 0.14999999999997726
                },
                {
                    "name": "F4",
                    "midi": 65,
                    "time": 289.3499999999966,
                    "velocity": 0.29133858267716534,
                    "duration": 0.14999999999997726
                },
                {
                    "name": "F#3",
                    "midi": 54,
                    "time": 289.4999999999966,
                    "velocity": 0.33070866141732286,
                    "duration": 0.14999999999997726
                },
                {
                    "name": "C#4",
                    "midi": 61,
                    "time": 289.79999999999654,
                    "velocity": 0.29133858267716534,
                    "duration": 0.14999999999997726
                },
                {
                    "name": "F#4",
                    "midi": 66,
                    "time": 289.79999999999654,
                    "velocity": 0.29133858267716534,
                    "duration": 0.14999999999997726
                },
                {
                    "name": "C#3",
                    "midi": 49,
                    "time": 290.0999999999965,
                    "velocity": 0.33070866141732286,
                    "duration": 0.14999999999997726
                },
                {
                    "name": "C#4",
                    "midi": 61,
                    "time": 290.39999999999645,
                    "velocity": 0.29133858267716534,
                    "duration": 0.14999999999997726
                },
                {
                    "name": "F#4",
                    "midi": 66,
                    "time": 290.39999999999645,
                    "velocity": 0.29133858267716534,
                    "duration": 0.14999999999997726
                },
                {
                    "name": "C5",
                    "midi": 72,
                    "time": 290.6999999999964,
                    "velocity": 0.33070866141732286,
                    "duration": 0.14999999999997726
                },
                {
                    "name": "A4",
                    "midi": 69,
                    "time": 290.6999999999964,
                    "velocity": 0.29133858267716534,
                    "duration": 0.14999999999997726
                },
                {
                    "name": "C#5",
                    "midi": 73,
                    "time": 290.99999999999636,
                    "velocity": 0.29133858267716534,
                    "duration": 0.14999999999997726
                },
                {
                    "name": "A#4",
                    "midi": 70,
                    "time": 290.99999999999636,
                    "velocity": 0.29133858267716534,
                    "duration": 0.14999999999997726
                },
                {
                    "name": "F#4",
                    "midi": 66,
                    "time": 291.2999999999963,
                    "velocity": 0.33070866141732286,
                    "duration": 0.5999999999999659
                },
                {
                    "name": "A#4",
                    "midi": 70,
                    "time": 291.2999999999963,
                    "velocity": 0.3779527559055118,
                    "duration": 0.44999999999998863
                },
                {
                    "name": "C#5",
                    "midi": 73,
                    "time": 291.7499999999963,
                    "velocity": 0.29133858267716534,
                    "duration": 0.14999999999997726
                },
                {
                    "name": "G#3",
                    "midi": 56,
                    "time": 291.8999999999963,
                    "velocity": 0.33070866141732286,
                    "duration": 0.14999999999997726
                },
                {
                    "name": "C#4",
                    "midi": 61,
                    "time": 292.19999999999624,
                    "velocity": 0.29133858267716534,
                    "duration": 0.14999999999997726
                },
                {
                    "name": "F4",
                    "midi": 65,
                    "time": 292.19999999999624,
                    "velocity": 0.29133858267716534,
                    "duration": 0.14999999999997726
                },
                {
                    "name": "C#3",
                    "midi": 49,
                    "time": 292.4999999999962,
                    "velocity": 0.33070866141732286,
                    "duration": 0.14999999999997726
                },
                {
                    "name": "F4",
                    "midi": 65,
                    "time": 292.79999999999615,
                    "velocity": 0.29133858267716534,
                    "duration": 0.14999999999997726
                },
                {
                    "name": "C#4",
                    "midi": 61,
                    "time": 292.79999999999615,
                    "velocity": 0.29133858267716534,
                    "duration": 0.14999999999997726
                },
                {
                    "name": "C5",
                    "midi": 72,
                    "time": 293.0999999999961,
                    "velocity": 0.33070866141732286,
                    "duration": 0.14999999999997726
                },
                {
                    "name": "G#4",
                    "midi": 68,
                    "time": 293.0999999999961,
                    "velocity": 0.29133858267716534,
                    "duration": 0.14999999999997726
                },
                {
                    "name": "C#5",
                    "midi": 73,
                    "time": 293.39999999999606,
                    "velocity": 0.29133858267716534,
                    "duration": 0.14999999999997726
                },
                {
                    "name": "F4",
                    "midi": 65,
                    "time": 293.39999999999606,
                    "velocity": 0.29133858267716534,
                    "duration": 0.14999999999997726
                },
                {
                    "name": "G#4",
                    "midi": 68,
                    "time": 293.699999999996,
                    "velocity": 0.33070866141732286,
                    "duration": 0.44999999999998863
                },
                {
                    "name": "B4",
                    "midi": 71,
                    "time": 293.699999999996,
                    "velocity": 0.3779527559055118,
                    "duration": 0.44999999999998863
                },
                {
                    "name": "F4",
                    "midi": 65,
                    "time": 294.149999999996,
                    "velocity": 0.29133858267716534,
                    "duration": 0.14999999999997726
                },
                {
                    "name": "C#5",
                    "midi": 73,
                    "time": 294.149999999996,
                    "velocity": 0.29133858267716534,
                    "duration": 0.14999999999997726
                },
                {
                    "name": "F#3",
                    "midi": 54,
                    "time": 294.299999999996,
                    "velocity": 0.33070866141732286,
                    "duration": 0.14999999999997726
                },
                {
                    "name": "C#4",
                    "midi": 61,
                    "time": 294.59999999999593,
                    "velocity": 0.29133858267716534,
                    "duration": 0.14999999999997726
                },
                {
                    "name": "F#4",
                    "midi": 66,
                    "time": 294.59999999999593,
                    "velocity": 0.29133858267716534,
                    "duration": 0.14999999999997726
                },
                {
                    "name": "C#3",
                    "midi": 49,
                    "time": 294.8999999999959,
                    "velocity": 0.33070866141732286,
                    "duration": 0.14999999999997726
                },
                {
                    "name": "F#4",
                    "midi": 66,
                    "time": 295.19999999999584,
                    "velocity": 0.29133858267716534,
                    "duration": 0.14999999999997726
                },
                {
                    "name": "C#4",
                    "midi": 61,
                    "time": 295.19999999999584,
                    "velocity": 0.29133858267716534,
                    "duration": 0.14999999999997726
                },
                {
                    "name": "C5",
                    "midi": 72,
                    "time": 295.4999999999958,
                    "velocity": 0.33070866141732286,
                    "duration": 0.14999999999997726
                },
                {
                    "name": "A4",
                    "midi": 69,
                    "time": 295.4999999999958,
                    "velocity": 0.29133858267716534,
                    "duration": 0.14999999999997726
                },
                {
                    "name": "A#4",
                    "midi": 70,
                    "time": 295.79999999999575,
                    "velocity": 0.29133858267716534,
                    "duration": 0.14999999999997726
                },
                {
                    "name": "C#5",
                    "midi": 73,
                    "time": 295.79999999999575,
                    "velocity": 0.29133858267716534,
                    "duration": 0.14999999999997726
                },
                {
                    "name": "F#4",
                    "midi": 66,
                    "time": 296.0999999999957,
                    "velocity": 0.33070866141732286,
                    "duration": 0.5999999999999659
                },
                {
                    "name": "A#4",
                    "midi": 70,
                    "time": 296.0999999999957,
                    "velocity": 0.3779527559055118,
                    "duration": 0.44999999999998863
                },
                {
                    "name": "C#5",
                    "midi": 73,
                    "time": 296.5499999999957,
                    "velocity": 0.29133858267716534,
                    "duration": 0.14999999999997726
                },
                {
                    "name": "G#3",
                    "midi": 56,
                    "time": 296.69999999999567,
                    "velocity": 0.33070866141732286,
                    "duration": 0.14999999999997726
                },
                {
                    "name": "C#4",
                    "midi": 61,
                    "time": 296.9999999999956,
                    "velocity": 0.23622047244094488,
                    "duration": 0.14999999999997726
                },
                {
                    "name": "B4",
                    "midi": 71,
                    "time": 296.9999999999956,
                    "velocity": 0.28346456692913385,
                    "duration": 0.14999999999997726
                },
                {
                    "name": "F4",
                    "midi": 65,
                    "time": 296.9999999999956,
                    "velocity": 0.23622047244094488,
                    "duration": 0.14999999999997726
                },
                {
                    "name": "C#3",
                    "midi": 49,
                    "time": 297.2999999999956,
                    "velocity": 0.28346456692913385,
                    "duration": 0.14999999999997726
                },
                {
                    "name": "F4",
                    "midi": 65,
                    "time": 297.59999999999553,
                    "velocity": 0.23622047244094488,
                    "duration": 0.14999999999997726
                },
                {
                    "name": "B4",
                    "midi": 71,
                    "time": 297.59999999999553,
                    "velocity": 0.28346456692913385,
                    "duration": 0.14999999999997726
                },
                {
                    "name": "C#4",
                    "midi": 61,
                    "time": 297.59999999999553,
                    "velocity": 0.23622047244094488,
                    "duration": 0.14999999999997726
                },
                {
                    "name": "G#3",
                    "midi": 56,
                    "time": 297.8999999999955,
                    "velocity": 0.33070866141732286,
                    "duration": 0.14999999999997726
                },
                {
                    "name": "F4",
                    "midi": 65,
                    "time": 298.19999999999544,
                    "velocity": 0.28346456692913385,
                    "duration": 0.14999999999997726
                },
                {
                    "name": "C#4",
                    "midi": 61,
                    "time": 298.19999999999544,
                    "velocity": 0.28346456692913385,
                    "duration": 0.14999999999997726
                },
                {
                    "name": "B4",
                    "midi": 71,
                    "time": 298.19999999999544,
                    "velocity": 0.28346456692913385,
                    "duration": 0.14999999999997726
                },
                {
                    "name": "C#3",
                    "midi": 49,
                    "time": 298.4999999999954,
                    "velocity": 0.28346456692913385,
                    "duration": 0.14999999999997726
                },
                {
                    "name": "C#4",
                    "midi": 61,
                    "time": 298.79999999999535,
                    "velocity": 0.23622047244094488,
                    "duration": 0.14999999999997726
                },
                {
                    "name": "B4",
                    "midi": 71,
                    "time": 298.79999999999535,
                    "velocity": 0.28346456692913385,
                    "duration": 0.14999999999997726
                },
                {
                    "name": "F4",
                    "midi": 65,
                    "time": 298.79999999999535,
                    "velocity": 0.23622047244094488,
                    "duration": 0.14999999999997726
                },
                {
                    "name": "F#3",
                    "midi": 54,
                    "time": 299.0999999999953,
                    "velocity": 0.33070866141732286,
                    "duration": 0.14999999999997726
                },
                {
                    "name": "C#4",
                    "midi": 61,
                    "time": 299.39999999999526,
                    "velocity": 0.2204724409448819,
                    "duration": 0.14999999999997726
                },
                {
                    "name": "F#4",
                    "midi": 66,
                    "time": 299.39999999999526,
                    "velocity": 0.2204724409448819,
                    "duration": 0.14999999999997726
                },
                {
                    "name": "A#4",
                    "midi": 70,
                    "time": 299.39999999999526,
                    "velocity": 0.2677165354330709,
                    "duration": 0.14999999999997726
                },
                {
                    "name": "C#3",
                    "midi": 49,
                    "time": 299.6999999999952,
                    "velocity": 0.2677165354330709,
                    "duration": 0.14999999999997726
                },
                {
                    "name": "A#4",
                    "midi": 70,
                    "time": 299.99999999999517,
                    "velocity": 0.2677165354330709,
                    "duration": 0.14999999999997726
                },
                {
                    "name": "C#4",
                    "midi": 61,
                    "time": 299.99999999999517,
                    "velocity": 0.2204724409448819,
                    "duration": 0.14999999999997726
                },
                {
                    "name": "F#4",
                    "midi": 66,
                    "time": 299.99999999999517,
                    "velocity": 0.2204724409448819,
                    "duration": 0.14999999999997726
                },
                {
                    "name": "F#3",
                    "midi": 54,
                    "time": 300.2999999999951,
                    "velocity": 0.33070866141732286,
                    "duration": 0.14999999999997726
                },
                {
                    "name": "A#4",
                    "midi": 70,
                    "time": 300.5999999999951,
                    "velocity": 0.28346456692913385,
                    "duration": 0.14999999999997726
                },
                {
                    "name": "F#4",
                    "midi": 66,
                    "time": 300.5999999999951,
                    "velocity": 0.23622047244094488,
                    "duration": 0.14999999999997726
                },
                {
                    "name": "C#4",
                    "midi": 61,
                    "time": 300.5999999999951,
                    "velocity": 0.23622047244094488,
                    "duration": 0.14999999999997726
                },
                {
                    "name": "C#3",
                    "midi": 49,
                    "time": 300.89999999999503,
                    "velocity": 0.28346456692913385,
                    "duration": 0.14999999999997726
                },
                {
                    "name": "A#4",
                    "midi": 70,
                    "time": 301.199999999995,
                    "velocity": 0.28346456692913385,
                    "duration": 0.14999999999997726
                },
                {
                    "name": "C#4",
                    "midi": 61,
                    "time": 301.199999999995,
                    "velocity": 0.23622047244094488,
                    "duration": 0.14999999999997726
                },
                {
                    "name": "F#4",
                    "midi": 66,
                    "time": 301.199999999995,
                    "velocity": 0.23622047244094488,
                    "duration": 0.14999999999997726
                },
                {
                    "name": "G#3",
                    "midi": 56,
                    "time": 301.49999999999494,
                    "velocity": 0.33070866141732286,
                    "duration": 0.14999999999997726
                },
                {
                    "name": "F4",
                    "midi": 65,
                    "time": 301.7999999999949,
                    "velocity": 0.2204724409448819,
                    "duration": 0.14999999999997726
                },
                {
                    "name": "B4",
                    "midi": 71,
                    "time": 301.7999999999949,
                    "velocity": 0.2677165354330709,
                    "duration": 0.14999999999997726
                },
                {
                    "name": "C#4",
                    "midi": 61,
                    "time": 301.7999999999949,
                    "velocity": 0.2204724409448819,
                    "duration": 0.14999999999997726
                },
                {
                    "name": "C#3",
                    "midi": 49,
                    "time": 302.09999999999485,
                    "velocity": 0.2677165354330709,
                    "duration": 0.14999999999997726
                },
                {
                    "name": "F4",
                    "midi": 65,
                    "time": 302.3999999999948,
                    "velocity": 0.2204724409448819,
                    "duration": 0.14999999999997726
                },
                {
                    "name": "C#4",
                    "midi": 61,
                    "time": 302.3999999999948,
                    "velocity": 0.2204724409448819,
                    "duration": 0.14999999999997726
                },
                {
                    "name": "B4",
                    "midi": 71,
                    "time": 302.3999999999948,
                    "velocity": 0.2677165354330709,
                    "duration": 0.14999999999997726
                },
                {
                    "name": "G#3",
                    "midi": 56,
                    "time": 302.69999999999476,
                    "velocity": 0.33070866141732286,
                    "duration": 0.14999999999997726
                },
                {
                    "name": "F4",
                    "midi": 65,
                    "time": 302.9999999999947,
                    "velocity": 0.2440944881889764,
                    "duration": 0.14999999999997726
                },
                {
                    "name": "B4",
                    "midi": 71,
                    "time": 302.9999999999947,
                    "velocity": 0.29133858267716534,
                    "duration": 0.14999999999997726
                },
                {
                    "name": "C#4",
                    "midi": 61,
                    "time": 302.9999999999947,
                    "velocity": 0.2440944881889764,
                    "duration": 0.14999999999997726
                },
                {
                    "name": "C#3",
                    "midi": 49,
                    "time": 303.29999999999467,
                    "velocity": 0.29133858267716534,
                    "duration": 0.14999999999997726
                },
                {
                    "name": "C#4",
                    "midi": 61,
                    "time": 303.5999999999946,
                    "velocity": 0.23622047244094488,
                    "duration": 0.14999999999997726
                },
                {
                    "name": "F4",
                    "midi": 65,
                    "time": 303.5999999999946,
                    "velocity": 0.23622047244094488,
                    "duration": 0.14999999999997726
                },
                {
                    "name": "B4",
                    "midi": 71,
                    "time": 303.5999999999946,
                    "velocity": 0.28346456692913385,
                    "duration": 0.14999999999997726
                },
                {
                    "name": "F#3",
                    "midi": 54,
                    "time": 303.8999999999946,
                    "velocity": 0.33070866141732286,
                    "duration": 0.14999999999997726
                },
                {
                    "name": "A#4",
                    "midi": 70,
                    "time": 304.19999999999453,
                    "velocity": 0.30708661417322836,
                    "duration": 0.14999999999997726
                },
                {
                    "name": "F#4",
                    "midi": 66,
                    "time": 304.19999999999453,
                    "velocity": 0.25984251968503935,
                    "duration": 0.14999999999997726
                },
                {
                    "name": "C#4",
                    "midi": 61,
                    "time": 304.19999999999453,
                    "velocity": 0.25984251968503935,
                    "duration": 0.14999999999997726
                },
                {
                    "name": "C#3",
                    "midi": 49,
                    "time": 304.4999999999945,
                    "velocity": 0.30708661417322836,
                    "duration": 0.14999999999997726
                },
                {
                    "name": "C#4",
                    "midi": 61,
                    "time": 304.79999999999444,
                    "velocity": 0.25984251968503935,
                    "duration": 0.14999999999997726
                },
                {
                    "name": "A#4",
                    "midi": 70,
                    "time": 304.79999999999444,
                    "velocity": 0.30708661417322836,
                    "duration": 0.14999999999997726
                },
                {
                    "name": "F#4",
                    "midi": 66,
                    "time": 304.79999999999444,
                    "velocity": 0.25984251968503935,
                    "duration": 0.14999999999997726
                },
                {
                    "name": "F#3",
                    "midi": 54,
                    "time": 305.0999999999944,
                    "velocity": 0.33070866141732286,
                    "duration": 0.14999999999997726
                },
                {
                    "name": "C#4",
                    "midi": 61,
                    "time": 305.39999999999435,
                    "velocity": 0.25196850393700787,
                    "duration": 0.14999999999997726
                },
                {
                    "name": "A#4",
                    "midi": 70,
                    "time": 305.39999999999435,
                    "velocity": 0.2992125984251969,
                    "duration": 0.14999999999997726
                },
                {
                    "name": "F#4",
                    "midi": 66,
                    "time": 305.39999999999435,
                    "velocity": 0.25196850393700787,
                    "duration": 0.14999999999997726
                },
                {
                    "name": "C#3",
                    "midi": 49,
                    "time": 305.6999999999943,
                    "velocity": 0.2992125984251969,
                    "duration": 0.14999999999997726
                },
                {
                    "name": "F#4",
                    "midi": 66,
                    "time": 305.99999999999426,
                    "velocity": 0.25196850393700787,
                    "duration": 0.14999999999997726
                },
                {
                    "name": "A#4",
                    "midi": 70,
                    "time": 305.99999999999426,
                    "velocity": 0.2992125984251969,
                    "duration": 0.14999999999997726
                },
                {
                    "name": "C#4",
                    "midi": 61,
                    "time": 305.99999999999426,
                    "velocity": 0.25196850393700787,
                    "duration": 0.14999999999997726
                },
                {
                    "name": "G#3",
                    "midi": 56,
                    "time": 306.2999999999942,
                    "velocity": 0.33070866141732286,
                    "duration": 0.14999999999997726
                },
                {
                    "name": "F4",
                    "midi": 65,
                    "time": 306.59999999999417,
                    "velocity": 0.23622047244094488,
                    "duration": 0.14999999999997726
                },
                {
                    "name": "C#4",
                    "midi": 61,
                    "time": 306.59999999999417,
                    "velocity": 0.23622047244094488,
                    "duration": 0.14999999999997726
                },
                {
                    "name": "B4",
                    "midi": 71,
                    "time": 306.59999999999417,
                    "velocity": 0.28346456692913385,
                    "duration": 0.14999999999997726
                },
                {
                    "name": "C#3",
                    "midi": 49,
                    "time": 306.8999999999941,
                    "velocity": 0.28346456692913385,
                    "duration": 0.14999999999997726
                },
                {
                    "name": "B4",
                    "midi": 71,
                    "time": 307.1999999999941,
                    "velocity": 0.28346456692913385,
                    "duration": 0.14999999999997726
                },
                {
                    "name": "C#4",
                    "midi": 61,
                    "time": 307.1999999999941,
                    "velocity": 0.23622047244094488,
                    "duration": 0.14999999999997726
                },
                {
                    "name": "F4",
                    "midi": 65,
                    "time": 307.1999999999941,
                    "velocity": 0.23622047244094488,
                    "duration": 0.14999999999997726
                },
                {
                    "name": "G#3",
                    "midi": 56,
                    "time": 307.49999999999403,
                    "velocity": 0.33070866141732286,
                    "duration": 0.14999999999997726
                },
                {
                    "name": "B4",
                    "midi": 71,
                    "time": 307.799999999994,
                    "velocity": 0.28346456692913385,
                    "duration": 0.14999999999997726
                },
                {
                    "name": "F4",
                    "midi": 65,
                    "time": 307.799999999994,
                    "velocity": 0.28346456692913385,
                    "duration": 0.14999999999997726
                },
                {
                    "name": "C#4",
                    "midi": 61,
                    "time": 307.799999999994,
                    "velocity": 0.28346456692913385,
                    "duration": 0.14999999999997726
                },
                {
                    "name": "C#3",
                    "midi": 49,
                    "time": 308.09999999999394,
                    "velocity": 0.28346456692913385,
                    "duration": 0.14999999999997726
                },
                {
                    "name": "B4",
                    "midi": 71,
                    "time": 308.3999999999939,
                    "velocity": 0.29133858267716534,
                    "duration": 0.14999999999997726
                },
                {
                    "name": "F4",
                    "midi": 65,
                    "time": 308.3999999999939,
                    "velocity": 0.23622047244094488,
                    "duration": 0.14999999999997726
                },
                {
                    "name": "C#4",
                    "midi": 61,
                    "time": 308.3999999999939,
                    "velocity": 0.23622047244094488,
                    "duration": 0.14999999999997726
                },
                {
                    "name": "F#3",
                    "midi": 54,
                    "time": 308.69999999999385,
                    "velocity": 0.33858267716535434,
                    "duration": 0.14999999999997726
                },
                {
                    "name": "F#4",
                    "midi": 66,
                    "time": 308.9999999999938,
                    "velocity": 0.2283464566929134,
                    "duration": 0.14999999999997726
                },
                {
                    "name": "A#4",
                    "midi": 70,
                    "time": 308.9999999999938,
                    "velocity": 0.2755905511811024,
                    "duration": 0.14999999999997726
                },
                {
                    "name": "C#4",
                    "midi": 61,
                    "time": 308.9999999999938,
                    "velocity": 0.2283464566929134,
                    "duration": 0.14999999999997726
                },
                {
                    "name": "C#3",
                    "midi": 49,
                    "time": 309.29999999999376,
                    "velocity": 0.2755905511811024,
                    "duration": 0.14999999999997726
                },
                {
                    "name": "F#4",
                    "midi": 66,
                    "time": 309.5999999999937,
                    "velocity": 0.2755905511811024,
                    "duration": 0.14999999999997726
                },
                {
                    "name": "C#4",
                    "midi": 61,
                    "time": 309.5999999999937,
                    "velocity": 0.2283464566929134,
                    "duration": 0.14999999999997726
                },
                {
                    "name": "F#3",
                    "midi": 54,
                    "time": 309.89999999999367,
                    "velocity": 0.3464566929133858,
                    "duration": 0.14999999999997726
                },
                {
                    "name": "F#4",
                    "midi": 66,
                    "time": 310.1999999999936,
                    "velocity": 0.2992125984251969,
                    "duration": 0.14999999999997726
                },
                {
                    "name": "C#4",
                    "midi": 61,
                    "time": 310.1999999999936,
                    "velocity": 0.2440944881889764,
                    "duration": 0.14999999999997726
                },
                {
                    "name": "C#3",
                    "midi": 49,
                    "time": 310.4999999999936,
                    "velocity": 0.2992125984251969,
                    "duration": 0.14999999999997726
                },
                {
                    "name": "C#4",
                    "midi": 61,
                    "time": 310.79999999999353,
                    "velocity": 0.25196850393700787,
                    "duration": 0.14999999999997726
                },
                {
                    "name": "F#4",
                    "midi": 66,
                    "time": 310.79999999999353,
                    "velocity": 0.2992125984251969,
                    "duration": 0.14999999999997726
                },
                {
                    "name": "G#3",
                    "midi": 56,
                    "time": 311.0999999999935,
                    "velocity": 0.3464566929133858,
                    "duration": 0.14999999999997726
                },
                {
                    "name": "F4",
                    "midi": 65,
                    "time": 311.39999999999344,
                    "velocity": 0.28346456692913385,
                    "duration": 0.14999999999997726
                },
                {
                    "name": "B3",
                    "midi": 59,
                    "time": 311.39999999999344,
                    "velocity": 0.2283464566929134,
                    "duration": 0.14999999999997726
                },
                {
                    "name": "C#4",
                    "midi": 61,
                    "time": 311.39999999999344,
                    "velocity": 0.2283464566929134,
                    "duration": 0.14999999999997726
                },
                {
                    "name": "C#3",
                    "midi": 49,
                    "time": 311.6999999999934,
                    "velocity": 0.28346456692913385,
                    "duration": 0.14999999999997726
                },
                {
                    "name": "F4",
                    "midi": 65,
                    "time": 311.99999999999335,
                    "velocity": 0.28346456692913385,
                    "duration": 0.14999999999997726
                },
                {
                    "name": "C#4",
                    "midi": 61,
                    "time": 311.99999999999335,
                    "velocity": 0.23622047244094488,
                    "duration": 0.14999999999997726
                },
                {
                    "name": "B3",
                    "midi": 59,
                    "time": 311.99999999999335,
                    "velocity": 0.23622047244094488,
                    "duration": 0.14999999999997726
                },
                {
                    "name": "G#3",
                    "midi": 56,
                    "time": 312.2999999999933,
                    "velocity": 0.3543307086614173,
                    "duration": 0.14999999999997726
                },
                {
                    "name": "C#4",
                    "midi": 61,
                    "time": 312.59999999999326,
                    "velocity": 0.25984251968503935,
                    "duration": 0.14999999999997726
                },
                {
                    "name": "F4",
                    "midi": 65,
                    "time": 312.59999999999326,
                    "velocity": 0.31496062992125984,
                    "duration": 0.14999999999997726
                },
                {
                    "name": "B3",
                    "midi": 59,
                    "time": 312.59999999999326,
                    "velocity": 0.25984251968503935,
                    "duration": 0.14999999999997726
                },
                {
                    "name": "C#3",
                    "midi": 49,
                    "time": 312.8999999999932,
                    "velocity": 0.31496062992125984,
                    "duration": 0.14999999999997726
                },
                {
                    "name": "C#4",
                    "midi": 61,
                    "time": 313.19999999999317,
                    "velocity": 0.25984251968503935,
                    "duration": 0.14999999999997726
                },
                {
                    "name": "B3",
                    "midi": 59,
                    "time": 313.19999999999317,
                    "velocity": 0.25984251968503935,
                    "duration": 0.14999999999997726
                },
                {
                    "name": "F4",
                    "midi": 65,
                    "time": 313.19999999999317,
                    "velocity": 0.30708661417322836,
                    "duration": 0.14999999999997726
                },
                {
                    "name": "F#3",
                    "midi": 54,
                    "time": 313.4999999999931,
                    "velocity": 0.36220472440944884,
                    "duration": 0.14999999999997726
                },
                {
                    "name": "C#4",
                    "midi": 61,
                    "time": 313.7999999999931,
                    "velocity": 0.28346456692913385,
                    "duration": 0.14999999999997726
                },
                {
                    "name": "F#4",
                    "midi": 66,
                    "time": 313.7999999999931,
                    "velocity": 0.33858267716535434,
                    "duration": 0.14999999999997726
                },
                {
                    "name": "A#3",
                    "midi": 58,
                    "time": 313.7999999999931,
                    "velocity": 0.28346456692913385,
                    "duration": 0.14999999999997726
                },
                {
                    "name": "C#3",
                    "midi": 49,
                    "time": 314.09999999999303,
                    "velocity": 0.33858267716535434,
                    "duration": 0.14999999999997726
                },
                {
                    "name": "C#4",
                    "midi": 61,
                    "time": 314.399999999993,
                    "velocity": 0.28346456692913385,
                    "duration": 0.14999999999997726
                },
                {
                    "name": "A#3",
                    "midi": 58,
                    "time": 314.399999999993,
                    "velocity": 0.28346456692913385,
                    "duration": 0.14999999999997726
                },
                {
                    "name": "F#4",
                    "midi": 66,
                    "time": 314.399999999993,
                    "velocity": 0.33858267716535434,
                    "duration": 0.14999999999997726
                },
                {
                    "name": "F#3",
                    "midi": 54,
                    "time": 314.69999999999294,
                    "velocity": 0.3700787401574803,
                    "duration": 0.14999999999997726
                },
                {
                    "name": "A#3",
                    "midi": 58,
                    "time": 314.9999999999929,
                    "velocity": 0.28346456692913385,
                    "duration": 0.14999999999997726
                },
                {
                    "name": "F#4",
                    "midi": 66,
                    "time": 314.9999999999929,
                    "velocity": 0.33070866141732286,
                    "duration": 0.14999999999997726
                },
                {
                    "name": "C#4",
                    "midi": 61,
                    "time": 314.9999999999929,
                    "velocity": 0.28346456692913385,
                    "duration": 0.14999999999997726
                },
                {
                    "name": "C#3",
                    "midi": 49,
                    "time": 315.29999999999285,
                    "velocity": 0.33858267716535434,
                    "duration": 0.14999999999997726
                },
                {
                    "name": "C#4",
                    "midi": 61,
                    "time": 315.5999999999928,
                    "velocity": 0.28346456692913385,
                    "duration": 0.14999999999997726
                },
                {
                    "name": "F#4",
                    "midi": 66,
                    "time": 315.5999999999928,
                    "velocity": 0.33858267716535434,
                    "duration": 0.14999999999997726
                },
                {
                    "name": "A#3",
                    "midi": 58,
                    "time": 315.5999999999928,
                    "velocity": 0.28346456692913385,
                    "duration": 0.14999999999997726
                },
                {
                    "name": "D#3",
                    "midi": 51,
                    "time": 315.89999999999276,
                    "velocity": 0.41732283464566927,
                    "duration": 0.14999999999997726
                },
                {
                    "name": "C4",
                    "midi": 60,
                    "time": 316.1999999999927,
                    "velocity": 0.29133858267716534,
                    "duration": 0.14999999999997726
                },
                {
                    "name": "F#4",
                    "midi": 66,
                    "time": 316.1999999999927,
                    "velocity": 0.3464566929133858,
                    "duration": 0.14999999999997726
                },
                {
                    "name": "G#3",
                    "midi": 56,
                    "time": 316.1999999999927,
                    "velocity": 0.29133858267716534,
                    "duration": 0.14999999999997726
                },
                {
                    "name": "G#2",
                    "midi": 44,
                    "time": 316.49999999999267,
                    "velocity": 0.3779527559055118,
                    "duration": 0.14999999999997726
                },
                {
                    "name": "C4",
                    "midi": 60,
                    "time": 316.7999999999926,
                    "velocity": 0.3464566929133858,
                    "duration": 0.14999999999997726
                },
                {
                    "name": "G#3",
                    "midi": 56,
                    "time": 316.7999999999926,
                    "velocity": 0.29133858267716534,
                    "duration": 0.14999999999997726
                },
                {
                    "name": "F#3",
                    "midi": 54,
                    "time": 317.0999999999926,
                    "velocity": 0.4094488188976378,
                    "duration": 0.14999999999997726
                },
                {
                    "name": "C4",
                    "midi": 60,
                    "time": 317.39999999999253,
                    "velocity": 0.33858267716535434,
                    "duration": 0.14999999999997726
                },
                {
                    "name": "G#3",
                    "midi": 56,
                    "time": 317.39999999999253,
                    "velocity": 0.28346456692913385,
                    "duration": 0.14999999999997726
                },
                {
                    "name": "G#2",
                    "midi": 44,
                    "time": 317.6999999999925,
                    "velocity": 0.3779527559055118,
                    "duration": 0.14999999999997726
                },
                {
                    "name": "G#3",
                    "midi": 56,
                    "time": 317.99999999999244,
                    "velocity": 0.29133858267716534,
                    "duration": 0.14999999999997726
                },
                {
                    "name": "C4",
                    "midi": 60,
                    "time": 317.99999999999244,
                    "velocity": 0.3464566929133858,
                    "duration": 0.14999999999997726
                },
                {
                    "name": "C#3",
                    "midi": 49,
                    "time": 318.2999999999924,
                    "velocity": 0.41732283464566927,
                    "duration": 0.14999999999997726
                },
                {
                    "name": "C#4",
                    "midi": 61,
                    "time": 318.59999999999235,
                    "velocity": 0.29133858267716534,
                    "duration": 0.14999999999997726
                },
                {
                    "name": "G#3",
                    "midi": 56,
                    "time": 318.59999999999235,
                    "velocity": 0.29133858267716534,
                    "duration": 0.14999999999997726
                },
                {
                    "name": "F4",
                    "midi": 65,
                    "time": 318.59999999999235,
                    "velocity": 0.3464566929133858,
                    "duration": 0.14999999999997726
                },
                {
                    "name": "G#2",
                    "midi": 44,
                    "time": 318.8999999999923,
                    "velocity": 0.3779527559055118,
                    "duration": 0.14999999999997726
                },
                {
                    "name": "C#4",
                    "midi": 61,
                    "time": 319.19999999999226,
                    "velocity": 0.3464566929133858,
                    "duration": 0.14999999999997726
                },
                {
                    "name": "G#3",
                    "midi": 56,
                    "time": 319.19999999999226,
                    "velocity": 0.29133858267716534,
                    "duration": 0.14999999999997726
                },
                {
                    "name": "C#3",
                    "midi": 49,
                    "time": 319.4999999999922,
                    "velocity": 0.4094488188976378,
                    "duration": 0.14999999999997726
                },
                {
                    "name": "G#3",
                    "midi": 56,
                    "time": 319.79999999999217,
                    "velocity": 0.28346456692913385,
                    "duration": 0.14999999999997726
                },
                {
                    "name": "C#4",
                    "midi": 61,
                    "time": 319.79999999999217,
                    "velocity": 0.33858267716535434,
                    "duration": 0.14999999999997726
                },
                {
                    "name": "G#2",
                    "midi": 44,
                    "time": 320.0999999999921,
                    "velocity": 0.3779527559055118,
                    "duration": 0.14999999999997726
                },
                {
                    "name": "C#4",
                    "midi": 61,
                    "time": 320.3999999999921,
                    "velocity": 0.3464566929133858,
                    "duration": 0.14999999999997726
                },
                {
                    "name": "G#3",
                    "midi": 56,
                    "time": 320.3999999999921,
                    "velocity": 0.29133858267716534,
                    "duration": 0.14999999999997726
                },
                {
                    "name": "D#3",
                    "midi": 51,
                    "time": 320.69999999999203,
                    "velocity": 0.4094488188976378,
                    "duration": 0.14999999999997726
                },
                {
                    "name": "F#3",
                    "midi": 54,
                    "time": 320.999999999992,
                    "velocity": 0.2992125984251969,
                    "duration": 0.14999999999997726
                },
                {
                    "name": "C4",
                    "midi": 60,
                    "time": 320.999999999992,
                    "velocity": 0.3543307086614173,
                    "duration": 0.14999999999997726
                },
                {
                    "name": "G#3",
                    "midi": 56,
                    "time": 320.999999999992,
                    "velocity": 0.2992125984251969,
                    "duration": 0.14999999999997726
                },
                {
                    "name": "G#2",
                    "midi": 44,
                    "time": 321.29999999999194,
                    "velocity": 0.3543307086614173,
                    "duration": 0.14999999999997726
                },
                {
                    "name": "G#3",
                    "midi": 56,
                    "time": 321.5999999999919,
                    "velocity": 0.2992125984251969,
                    "duration": 0.14999999999997726
                },
                {
                    "name": "C4",
                    "midi": 60,
                    "time": 321.5999999999919,
                    "velocity": 0.3543307086614173,
                    "duration": 0.14999999999997726
                },
                {
                    "name": "F#3",
                    "midi": 54,
                    "time": 321.5999999999919,
                    "velocity": 0.2992125984251969,
                    "duration": 0.14999999999997726
                },
                {
                    "name": "D#3",
                    "midi": 51,
                    "time": 321.89999999999185,
                    "velocity": 0.4251968503937008,
                    "duration": 0.14999999999997726
                },
                {
                    "name": "C4",
                    "midi": 60,
                    "time": 322.1999999999918,
                    "velocity": 0.3700787401574803,
                    "duration": 0.14999999999997726
                },
                {
                    "name": "F#4",
                    "midi": 66,
                    "time": 322.1999999999918,
                    "velocity": 0.3700787401574803,
                    "duration": 0.14999999999997726
                },
                {
                    "name": "G#3",
                    "midi": 56,
                    "time": 322.1999999999918,
                    "velocity": 0.30708661417322836,
                    "duration": 0.14999999999997726
                },
                {
                    "name": "G#2",
                    "midi": 44,
                    "time": 322.49999999999176,
                    "velocity": 0.3700787401574803,
                    "duration": 0.14999999999997726
                },
                {
                    "name": "C4",
                    "midi": 60,
                    "time": 322.7999999999917,
                    "velocity": 0.36220472440944884,
                    "duration": 0.14999999999997726
                },
                {
                    "name": "G#3",
                    "midi": 56,
                    "time": 322.7999999999917,
                    "velocity": 0.30708661417322836,
                    "duration": 0.14999999999997726
                },
                {
                    "name": "C#3",
                    "midi": 49,
                    "time": 323.09999999999167,
                    "velocity": 0.4409448818897638,
                    "duration": 0.14999999999997726
                },
                {
                    "name": "C#4",
                    "midi": 61,
                    "time": 323.3999999999916,
                    "velocity": 0.33858267716535434,
                    "duration": 0.14999999999997726
                },
                {
                    "name": "F4",
                    "midi": 65,
                    "time": 323.3999999999916,
                    "velocity": 0.4015748031496063,
                    "duration": 0.14999999999997726
                },
                {
                    "name": "G#3",
                    "midi": 56,
                    "time": 323.3999999999916,
                    "velocity": 0.33858267716535434,
                    "duration": 0.14999999999997726
                },
                {
                    "name": "G#2",
                    "midi": 44,
                    "time": 323.6999999999916,
                    "velocity": 0.4015748031496063,
                    "duration": 0.14999999999997726
                },
                {
                    "name": "G#3",
                    "midi": 56,
                    "time": 323.99999999999153,
                    "velocity": 0.33858267716535434,
                    "duration": 0.14999999999997726
                },
                {
                    "name": "C#4",
                    "midi": 61,
                    "time": 323.99999999999153,
                    "velocity": 0.4015748031496063,
                    "duration": 0.14999999999997726
                },
                {
                    "name": "C#3",
                    "midi": 49,
                    "time": 324.2999999999915,
                    "velocity": 0.44881889763779526,
                    "duration": 0.14999999999997726
                },
                {
                    "name": "F4",
                    "midi": 65,
                    "time": 324.59999999999144,
                    "velocity": 0.4015748031496063,
                    "duration": 0.14999999999997726
                },
                {
                    "name": "G#3",
                    "midi": 56,
                    "time": 324.59999999999144,
                    "velocity": 0.33858267716535434,
                    "duration": 0.14999999999997726
                },
                {
                    "name": "C#4",
                    "midi": 61,
                    "time": 324.59999999999144,
                    "velocity": 0.33858267716535434,
                    "duration": 0.14999999999997726
                },
                {
                    "name": "G#2",
                    "midi": 44,
                    "time": 324.8999999999914,
                    "velocity": 0.4015748031496063,
                    "duration": 0.14999999999997726
                },
                {
                    "name": "C#4",
                    "midi": 61,
                    "time": 325.19999999999135,
                    "velocity": 0.4015748031496063,
                    "duration": 0.14999999999997726
                },
                {
                    "name": "G#3",
                    "midi": 56,
                    "time": 325.19999999999135,
                    "velocity": 0.33858267716535434,
                    "duration": 0.14999999999997726
                },
                {
                    "name": "D#3",
                    "midi": 51,
                    "time": 325.4999999999913,
                    "velocity": 0.4330708661417323,
                    "duration": 0.14999999999997726
                },
                {
                    "name": "F#4",
                    "midi": 66,
                    "time": 325.79999999999126,
                    "velocity": 0.36220472440944884,
                    "duration": 0.14999999999997726
                },
                {
                    "name": "G#3",
                    "midi": 56,
                    "time": 325.79999999999126,
                    "velocity": 0.2992125984251969,
                    "duration": 0.14999999999997726
                },
                {
                    "name": "C4",
                    "midi": 60,
                    "time": 325.79999999999126,
                    "velocity": 0.2992125984251969,
                    "duration": 0.14999999999997726
                },
                {
                    "name": "G#2",
                    "midi": 44,
                    "time": 326.0999999999912,
                    "velocity": 0.3937007874015748,
                    "duration": 0.14999999999997726
                },
                {
                    "name": "G#3",
                    "midi": 56,
                    "time": 326.39999999999117,
                    "velocity": 0.2992125984251969,
                    "duration": 0.14999999999997726
                },
                {
                    "name": "C4",
                    "midi": 60,
                    "time": 326.39999999999117,
                    "velocity": 0.36220472440944884,
                    "duration": 0.14999999999997726
                },
                {
                    "name": "D#3",
                    "midi": 51,
                    "time": 326.6999999999911,
                    "velocity": 0.4251968503937008,
                    "duration": 0.14999999999997726
                },
                {
                    "name": "C4",
                    "midi": 60,
                    "time": 326.9999999999911,
                    "velocity": 0.3543307086614173,
                    "duration": 0.14999999999997726
                },
                {
                    "name": "G#3",
                    "midi": 56,
                    "time": 326.9999999999911,
                    "velocity": 0.2992125984251969,
                    "duration": 0.14999999999997726
                },
                {
                    "name": "G#2",
                    "midi": 44,
                    "time": 327.29999999999103,
                    "velocity": 0.3937007874015748,
                    "duration": 0.14999999999997726
                },
                {
                    "name": "G#3",
                    "midi": 56,
                    "time": 327.599999999991,
                    "velocity": 0.30708661417322836,
                    "duration": 0.14999999999997726
                },
                {
                    "name": "C4",
                    "midi": 60,
                    "time": 327.599999999991,
                    "velocity": 0.36220472440944884,
                    "duration": 0.14999999999997726
                },
                {
                    "name": "C#3",
                    "midi": 49,
                    "time": 327.89999999999094,
                    "velocity": 0.4409448818897638,
                    "duration": 0.14999999999997726
                },
                {
                    "name": "F4",
                    "midi": 65,
                    "time": 328.1999999999909,
                    "velocity": 0.36220472440944884,
                    "duration": 0.14999999999997726
                },
                {
                    "name": "C#4",
                    "midi": 61,
                    "time": 328.1999999999909,
                    "velocity": 0.30708661417322836,
                    "duration": 0.14999999999997726
                },
                {
                    "name": "G#3",
                    "midi": 56,
                    "time": 328.1999999999909,
                    "velocity": 0.30708661417322836,
                    "duration": 0.14999999999997726
                },
                {
                    "name": "G#2",
                    "midi": 44,
                    "time": 328.49999999999085,
                    "velocity": 0.4015748031496063,
                    "duration": 0.14999999999997726
                },
                {
                    "name": "C#4",
                    "midi": 61,
                    "time": 328.7999999999908,
                    "velocity": 0.3700787401574803,
                    "duration": 0.14999999999997726
                },
                {
                    "name": "G#3",
                    "midi": 56,
                    "time": 328.7999999999908,
                    "velocity": 0.30708661417322836,
                    "duration": 0.14999999999997726
                },
                {
                    "name": "C#3",
                    "midi": 49,
                    "time": 329.09999999999076,
                    "velocity": 0.4330708661417323,
                    "duration": 0.14999999999997726
                },
                {
                    "name": "G#3",
                    "midi": 56,
                    "time": 329.3999999999907,
                    "velocity": 0.2992125984251969,
                    "duration": 0.14999999999997726
                },
                {
                    "name": "C#4",
                    "midi": 61,
                    "time": 329.3999999999907,
                    "velocity": 0.36220472440944884,
                    "duration": 0.14999999999997726
                },
                {
                    "name": "G#2",
                    "midi": 44,
                    "time": 329.69999999999067,
                    "velocity": 0.4015748031496063,
                    "duration": 0.14999999999997726
                },
                {
                    "name": "C#4",
                    "midi": 61,
                    "time": 329.9999999999906,
                    "velocity": 0.3700787401574803,
                    "duration": 0.14999999999997726
                },
                {
                    "name": "G#3",
                    "midi": 56,
                    "time": 329.9999999999906,
                    "velocity": 0.30708661417322836,
                    "duration": 0.14999999999997726
                },
                {
                    "name": "D#3",
                    "midi": 51,
                    "time": 330.2999999999906,
                    "velocity": 0.4409448818897638,
                    "duration": 0.14999999999997726
                },
                {
                    "name": "F#3",
                    "midi": 54,
                    "time": 330.59999999999053,
                    "velocity": 0.3228346456692913,
                    "duration": 0.14999999999997726
                },
                {
                    "name": "C4",
                    "midi": 60,
                    "time": 330.59999999999053,
                    "velocity": 0.3779527559055118,
                    "duration": 0.14999999999997726
                },
                {
                    "name": "G#3",
                    "midi": 56,
                    "time": 330.59999999999053,
                    "velocity": 0.3228346456692913,
                    "duration": 0.14999999999997726
                },
                {
                    "name": "G#2",
                    "midi": 44,
                    "time": 330.8999999999905,
                    "velocity": 0.3779527559055118,
                    "duration": 0.14999999999997726
                },
                {
                    "name": "C4",
                    "midi": 60,
                    "time": 331.19999999999044,
                    "velocity": 0.3779527559055118,
                    "duration": 0.14999999999997726
                },
                {
                    "name": "G#3",
                    "midi": 56,
                    "time": 331.19999999999044,
                    "velocity": 0.3228346456692913,
                    "duration": 0.14999999999997726
                },
                {
                    "name": "F#3",
                    "midi": 54,
                    "time": 331.19999999999044,
                    "velocity": 0.3228346456692913,
                    "duration": 0.14999999999997726
                },
                {
                    "name": "D#3",
                    "midi": 51,
                    "time": 331.4999999999904,
                    "velocity": 0.4566929133858268,
                    "duration": 0.14999999999997726
                },
                {
                    "name": "G#3",
                    "midi": 56,
                    "time": 331.79999999999035,
                    "velocity": 0.33070866141732286,
                    "duration": 0.14999999999997726
                },
                {
                    "name": "C4",
                    "midi": 60,
                    "time": 331.79999999999035,
                    "velocity": 0.4015748031496063,
                    "duration": 0.14999999999997726
                },
                {
                    "name": "F#4",
                    "midi": 66,
                    "time": 331.79999999999035,
                    "velocity": 0.4015748031496063,
                    "duration": 0.14999999999997726
                },
                {
                    "name": "G#2",
                    "midi": 44,
                    "time": 332.0999999999903,
                    "velocity": 0.4015748031496063,
                    "duration": 0.14999999999997726
                },
                {
                    "name": "C4",
                    "midi": 60,
                    "time": 332.39999999999026,
                    "velocity": 0.3937007874015748,
                    "duration": 0.14999999999997726
                },
                {
                    "name": "G#3",
                    "midi": 56,
                    "time": 332.39999999999026,
                    "velocity": 0.33070866141732286,
                    "duration": 0.14999999999997726
                },
                {
                    "name": "G#3",
                    "midi": 56,
                    "time": 332.6999999999902,
                    "velocity": 0.4015748031496063,
                    "duration": 0.30000000000001137
                },
                {
                    "name": "C#3",
                    "midi": 49,
                    "time": 332.6999999999902,
                    "velocity": 0.4015748031496063,
                    "duration": 0.30000000000001137
                },
                {
                    "name": "C#4",
                    "midi": 61,
                    "time": 332.6999999999902,
                    "velocity": 0.47244094488188976,
                    "duration": 0.30000000000001137
                },
                {
                    "name": "D3",
                    "midi": 50,
                    "time": 332.9999999999902,
                    "velocity": 0.31496062992125984,
                    "duration": 0.14999999999997726
                },
                {
                    "name": "D4",
                    "midi": 62,
                    "time": 332.9999999999902,
                    "velocity": 0.3779527559055118,
                    "duration": 0.14999999999997726
                },
                {
                    "name": "C3",
                    "midi": 48,
                    "time": 333.2999999999902,
                    "velocity": 0.4015748031496063,
                    "duration": 0.30000000000001137
                },
                {
                    "name": "C4",
                    "midi": 60,
                    "time": 333.2999999999902,
                    "velocity": 0.47244094488188976,
                    "duration": 0.30000000000001137
                },
                {
                    "name": "C#4",
                    "midi": 61,
                    "time": 333.5999999999902,
                    "velocity": 0.3858267716535433,
                    "duration": 0.14999999999997726
                },
                {
                    "name": "C#3",
                    "midi": 49,
                    "time": 333.5999999999902,
                    "velocity": 0.3228346456692913,
                    "duration": 0.14999999999997726
                },
                {
                    "name": "B2",
                    "midi": 47,
                    "time": 333.89999999999014,
                    "velocity": 0.4094488188976378,
                    "duration": 0.30000000000001137
                },
                {
                    "name": "B3",
                    "midi": 59,
                    "time": 333.89999999999014,
                    "velocity": 0.48031496062992124,
                    "duration": 0.30000000000001137
                },
                {
                    "name": "C4",
                    "midi": 60,
                    "time": 334.19999999999015,
                    "velocity": 0.4094488188976378,
                    "duration": 0.14999999999997726
                },
                {
                    "name": "C3",
                    "midi": 48,
                    "time": 334.19999999999015,
                    "velocity": 0.3464566929133858,
                    "duration": 0.14999999999997726
                },
                {
                    "name": "A#3",
                    "midi": 58,
                    "time": 334.4999999999901,
                    "velocity": 0.48031496062992124,
                    "duration": 0.30000000000001137
                },
                {
                    "name": "A#2",
                    "midi": 46,
                    "time": 334.4999999999901,
                    "velocity": 0.4094488188976378,
                    "duration": 0.30000000000001137
                },
                {
                    "name": "B2",
                    "midi": 47,
                    "time": 334.7999999999901,
                    "velocity": 0.3464566929133858,
                    "duration": 0.14999999999997726
                },
                {
                    "name": "B3",
                    "midi": 59,
                    "time": 334.7999999999901,
                    "velocity": 0.41732283464566927,
                    "duration": 0.14999999999997726
                },
                {
                    "name": "A3",
                    "midi": 57,
                    "time": 335.0999999999901,
                    "velocity": 0.49606299212598426,
                    "duration": 0.30000000000001137
                },
                {
                    "name": "A2",
                    "midi": 45,
                    "time": 335.0999999999901,
                    "velocity": 0.41732283464566927,
                    "duration": 0.30000000000001137
                },
                {
                    "name": "A#2",
                    "midi": 46,
                    "time": 335.3999999999901,
                    "velocity": 0.36220472440944884,
                    "duration": 0.14999999999997726
                },
                {
                    "name": "A#3",
                    "midi": 58,
                    "time": 335.3999999999901,
                    "velocity": 0.4251968503937008,
                    "duration": 0.14999999999997726
                },
                {
                    "name": "G#2",
                    "midi": 44,
                    "time": 335.69999999999004,
                    "velocity": 0.4251968503937008,
                    "duration": 0.30000000000001137
                },
                {
                    "name": "G#3",
                    "midi": 56,
                    "time": 335.69999999999004,
                    "velocity": 0.49606299212598426,
                    "duration": 0.30000000000001137
                },
                {
                    "name": "A3",
                    "midi": 57,
                    "time": 335.99999999999005,
                    "velocity": 0.4330708661417323,
                    "duration": 0.14999999999997726
                },
                {
                    "name": "A2",
                    "midi": 45,
                    "time": 335.99999999999005,
                    "velocity": 0.36220472440944884,
                    "duration": 0.14999999999997726
                },
                {
                    "name": "G3",
                    "midi": 55,
                    "time": 336.29999999999,
                    "velocity": 0.5039370078740157,
                    "duration": 0.30000000000001137
                },
                {
                    "name": "G2",
                    "midi": 43,
                    "time": 336.29999999999,
                    "velocity": 0.4251968503937008,
                    "duration": 0.30000000000001137
                },
                {
                    "name": "G#2",
                    "midi": 44,
                    "time": 336.59999999999,
                    "velocity": 0.36220472440944884,
                    "duration": 0.14999999999997726
                },
                {
                    "name": "G#3",
                    "midi": 56,
                    "time": 336.59999999999,
                    "velocity": 0.4330708661417323,
                    "duration": 0.14999999999997726
                },
                {
                    "name": "F#3",
                    "midi": 54,
                    "time": 336.89999999999,
                    "velocity": 0.5039370078740157,
                    "duration": 0.30000000000001137
                },
                {
                    "name": "F#2",
                    "midi": 42,
                    "time": 336.89999999999,
                    "velocity": 0.4330708661417323,
                    "duration": 0.30000000000001137
                },
                {
                    "name": "G2",
                    "midi": 43,
                    "time": 337.19999999999,
                    "velocity": 0.36220472440944884,
                    "duration": 0.14999999999997726
                },
                {
                    "name": "G3",
                    "midi": 55,
                    "time": 337.19999999999,
                    "velocity": 0.4330708661417323,
                    "duration": 0.14999999999997726
                },
                {
                    "name": "F3",
                    "midi": 53,
                    "time": 337.49999999998994,
                    "velocity": 0.5196850393700787,
                    "duration": 0.30000000000001137
                },
                {
                    "name": "F2",
                    "midi": 41,
                    "time": 337.49999999998994,
                    "velocity": 0.4409448818897638,
                    "duration": 0.30000000000001137
                },
                {
                    "name": "F#2",
                    "midi": 42,
                    "time": 337.79999999998995,
                    "velocity": 0.3779527559055118,
                    "duration": 0.14999999999997726
                },
                {
                    "name": "F#3",
                    "midi": 54,
                    "time": 337.79999999998995,
                    "velocity": 0.44881889763779526,
                    "duration": 0.14999999999997726
                },
                {
                    "name": "E2",
                    "midi": 40,
                    "time": 338.0999999999899,
                    "velocity": 0.4409448818897638,
                    "duration": 0.30000000000001137
                },
                {
                    "name": "E3",
                    "midi": 52,
                    "time": 338.0999999999899,
                    "velocity": 0.5196850393700787,
                    "duration": 0.30000000000001137
                },
                {
                    "name": "F2",
                    "midi": 41,
                    "time": 338.3999999999899,
                    "velocity": 0.3779527559055118,
                    "duration": 0.14999999999997726
                },
                {
                    "name": "F3",
                    "midi": 53,
                    "time": 338.3999999999899,
                    "velocity": 0.44881889763779526,
                    "duration": 0.14999999999997726
                },
                {
                    "name": "D#2",
                    "midi": 39,
                    "time": 338.69999999998987,
                    "velocity": 0.44881889763779526,
                    "duration": 0.30000000000001137
                },
                {
                    "name": "D#3",
                    "midi": 51,
                    "time": 338.69999999998987,
                    "velocity": 0.5275590551181102,
                    "duration": 0.30000000000001137
                },
                {
                    "name": "E3",
                    "midi": 52,
                    "time": 338.9999999999899,
                    "velocity": 0.4566929133858268,
                    "duration": 0.14999999999997726
                },
                {
                    "name": "E2",
                    "midi": 40,
                    "time": 338.9999999999899,
                    "velocity": 0.3858267716535433,
                    "duration": 0.14999999999997726
                },
                {
                    "name": "D3",
                    "midi": 50,
                    "time": 339.29999999998984,
                    "velocity": 0.5275590551181102,
                    "duration": 0.30000000000001137
                },
                {
                    "name": "D2",
                    "midi": 38,
                    "time": 339.29999999998984,
                    "velocity": 0.44881889763779526,
                    "duration": 0.30000000000001137
                },
                {
                    "name": "D#3",
                    "midi": 51,
                    "time": 339.59999999998985,
                    "velocity": 0.4645669291338583,
                    "duration": 0.14999999999997726
                },
                {
                    "name": "D#2",
                    "midi": 39,
                    "time": 339.59999999998985,
                    "velocity": 0.3937007874015748,
                    "duration": 0.14999999999997726
                },
                {
                    "name": "C#2",
                    "midi": 37,
                    "time": 339.8999999999898,
                    "velocity": 0.47244094488188976,
                    "duration": 0.30000000000001137
                },
                {
                    "name": "C#3",
                    "midi": 49,
                    "time": 339.8999999999898,
                    "velocity": 0.5590551181102362,
                    "duration": 0.30000000000001137
                },
                {
                    "name": "D2",
                    "midi": 38,
                    "time": 340.1999999999898,
                    "velocity": 0.4251968503937008,
                    "duration": 0.30000000000001137
                },
                {
                    "name": "D3",
                    "midi": 50,
                    "time": 340.1999999999898,
                    "velocity": 0.5039370078740157,
                    "duration": 0.30000000000001137
                },
                {
                    "name": "G#2",
                    "midi": 44,
                    "time": 340.4999999999898,
                    "velocity": 0.48031496062992124,
                    "duration": 0.30000000000001137
                },
                {
                    "name": "C#3",
                    "midi": 49,
                    "time": 340.4999999999898,
                    "velocity": 0.5669291338582677,
                    "duration": 0.30000000000001137
                },
                {
                    "name": "C#2",
                    "midi": 37,
                    "time": 340.4999999999898,
                    "velocity": 0.48031496062992124,
                    "duration": 0.30000000000001137
                },
                {
                    "name": "D3",
                    "midi": 50,
                    "time": 340.79999999998984,
                    "velocity": 0.5196850393700787,
                    "duration": 0.30000000000001137
                },
                {
                    "name": "D2",
                    "midi": 38,
                    "time": 340.79999999998984,
                    "velocity": 0.4409448818897638,
                    "duration": 0.30000000000001137
                },
                {
                    "name": "C#3",
                    "midi": 49,
                    "time": 341.09999999998985,
                    "velocity": 0.5590551181102362,
                    "duration": 0.30000000000001137
                },
                {
                    "name": "G#2",
                    "midi": 44,
                    "time": 341.09999999998985,
                    "velocity": 0.47244094488188976,
                    "duration": 0.30000000000001137
                },
                {
                    "name": "C#2",
                    "midi": 37,
                    "time": 341.09999999998985,
                    "velocity": 0.47244094488188976,
                    "duration": 0.30000000000001137
                },
                {
                    "name": "D3",
                    "midi": 50,
                    "time": 341.39999999998986,
                    "velocity": 0.5039370078740157,
                    "duration": 0.30000000000001137
                },
                {
                    "name": "D2",
                    "midi": 38,
                    "time": 341.39999999998986,
                    "velocity": 0.4251968503937008,
                    "duration": 0.30000000000001137
                },
                {
                    "name": "C#3",
                    "midi": 49,
                    "time": 341.69999999998987,
                    "velocity": 0.5669291338582677,
                    "duration": 0.30000000000001137
                },
                {
                    "name": "C#2",
                    "midi": 37,
                    "time": 341.69999999998987,
                    "velocity": 0.48031496062992124,
                    "duration": 0.30000000000001137
                },
                {
                    "name": "G#2",
                    "midi": 44,
                    "time": 341.69999999998987,
                    "velocity": 0.48031496062992124,
                    "duration": 0.30000000000001137
                },
                {
                    "name": "D2",
                    "midi": 38,
                    "time": 341.9999999999899,
                    "velocity": 0.4409448818897638,
                    "duration": 0.30000000000001137
                },
                {
                    "name": "D3",
                    "midi": 50,
                    "time": 341.9999999999899,
                    "velocity": 0.5196850393700787,
                    "duration": 0.30000000000001137
                },
                {
                    "name": "C#2",
                    "midi": 37,
                    "time": 342.2999999999899,
                    "velocity": 0.47244094488188976,
                    "duration": 0.30000000000001137
                },
                {
                    "name": "G#2",
                    "midi": 44,
                    "time": 342.2999999999899,
                    "velocity": 0.47244094488188976,
                    "duration": 0.30000000000001137
                },
                {
                    "name": "C#3",
                    "midi": 49,
                    "time": 342.2999999999899,
                    "velocity": 0.5590551181102362,
                    "duration": 0.30000000000001137
                },
                {
                    "name": "C3",
                    "midi": 48,
                    "time": 342.5999999999899,
                    "velocity": 0.4409448818897638,
                    "duration": 0.32499999999998863
                },
                {
                    "name": "C4",
                    "midi": 60,
                    "time": 342.5999999999899,
                    "velocity": 0.5275590551181102,
                    "duration": 0.32499999999998863
                },
                {
                    "name": "C#3",
                    "midi": 49,
                    "time": 342.8999999999899,
                    "velocity": 0.48031496062992124,
                    "duration": 0.3249999999999318
                },
                {
                    "name": "C#4",
                    "midi": 61,
                    "time": 342.8999999999899,
                    "velocity": 0.5669291338582677,
                    "duration": 0.3249999999999318
                },
                {
                    "name": "C3",
                    "midi": 48,
                    "time": 343.19999999998987,
                    "velocity": 0.4409448818897638,
                    "duration": 0.3249999999999318
                },
                {
                    "name": "C4",
                    "midi": 60,
                    "time": 343.19999999998987,
                    "velocity": 0.5275590551181102,
                    "duration": 0.3249999999999318
                },
                {
                    "name": "C#3",
                    "midi": 49,
                    "time": 343.4999999999898,
                    "velocity": 0.48031496062992124,
                    "duration": 0.14999999999997726
                },
                {
                    "name": "C#4",
                    "midi": 61,
                    "time": 343.4999999999898,
                    "velocity": 0.5748031496062992,
                    "duration": 0.14999999999997726
                },
                {
                    "name": "C3",
                    "midi": 48,
                    "time": 343.7999999999898,
                    "velocity": 0.5275590551181102,
                    "duration": 0.32499999999998863
                },
                {
                    "name": "C2",
                    "midi": 36,
                    "time": 343.7999999999898,
                    "velocity": 0.4409448818897638,
                    "duration": 0.32499999999998863
                },
                {
                    "name": "C#2",
                    "midi": 37,
                    "time": 344.0999999999898,
                    "velocity": 0.48031496062992124,
                    "duration": 0.3249999999999318
                },
                {
                    "name": "C#3",
                    "midi": 49,
                    "time": 344.0999999999898,
                    "velocity": 0.5669291338582677,
                    "duration": 0.3249999999999318
                },
                {
                    "name": "C3",
                    "midi": 48,
                    "time": 344.39999999998975,
                    "velocity": 0.5275590551181102,
                    "duration": 0.2999999999999545
                },
                {
                    "name": "C2",
                    "midi": 36,
                    "time": 344.39999999998975,
                    "velocity": 0.4409448818897638,
                    "duration": 0.2999999999999545
                },
                {
                    "name": "C#2",
                    "midi": 37,
                    "time": 344.6999999999897,
                    "velocity": 0.5511811023622047,
                    "duration": 0.5999999999999659
                },
                {
                    "name": "C#3",
                    "midi": 49,
                    "time": 344.6999999999897,
                    "velocity": 0.6456692913385826,
                    "duration": 0.5999999999999659
                },
                {
                    "name": "F3",
                    "midi": 53,
                    "time": 344.9999999999897,
                    "velocity": 0.4330708661417323,
                    "duration": 0.14999999999997726
                },
                {
                    "name": "G#3",
                    "midi": 56,
                    "time": 344.9999999999897,
                    "velocity": 0.5196850393700787,
                    "duration": 0.14999999999997726
                },
                {
                    "name": "F2",
                    "midi": 41,
                    "time": 345.29999999998967,
                    "velocity": 0.5039370078740157,
                    "duration": 0.5999999999999659
                },
                {
                    "name": "F3",
                    "midi": 53,
                    "time": 345.29999999998967,
                    "velocity": 0.5905511811023622,
                    "duration": 0.5999999999999659
                },
                {
                    "name": "C#4",
                    "midi": 61,
                    "time": 345.5999999999897,
                    "velocity": 0.5196850393700787,
                    "duration": 0.14999999999997726
                },
                {
                    "name": "G#3",
                    "midi": 56,
                    "time": 345.5999999999897,
                    "velocity": 0.4330708661417323,
                    "duration": 0.14999999999997726
                },
                {
                    "name": "A#3",
                    "midi": 58,
                    "time": 345.89999999998963,
                    "velocity": 0.7086614173228346,
                    "duration": 0.8999999999999204
                },
                {
                    "name": "A#2",
                    "midi": 46,
                    "time": 345.89999999998963,
                    "velocity": 0.5984251968503937,
                    "duration": 0.8999999999999204
                },
                {
                    "name": "F4",
                    "midi": 65,
                    "time": 346.19999999998964,
                    "velocity": 0.5196850393700787,
                    "duration": 0.14999999999997726
                },
                {
                    "name": "C#4",
                    "midi": 61,
                    "time": 346.19999999998964,
                    "velocity": 0.4330708661417323,
                    "duration": 0.14999999999997726
                },
                {
                    "name": "C#4",
                    "midi": 61,
                    "time": 346.4999999999896,
                    "velocity": 0.4330708661417323,
                    "duration": 0.14999999999997726
                },
                {
                    "name": "F4",
                    "midi": 65,
                    "time": 346.4999999999896,
                    "velocity": 0.5196850393700787,
                    "duration": 0.14999999999997726
                },
                {
                    "name": "G#3",
                    "midi": 56,
                    "time": 346.79999999998955,
                    "velocity": 0.6299212598425197,
                    "duration": 0.14999999999997726
                },
                {
                    "name": "G#2",
                    "midi": 44,
                    "time": 346.79999999998955,
                    "velocity": 0.5275590551181102,
                    "duration": 0.14999999999997726
                },
                {
                    "name": "C#3",
                    "midi": 49,
                    "time": 347.0999999999895,
                    "velocity": 0.5669291338582677,
                    "duration": 0.14999999999997726
                },
                {
                    "name": "A#2",
                    "midi": 46,
                    "time": 347.0999999999895,
                    "velocity": 0.44881889763779526,
                    "duration": 0.14999999999997726
                },
                {
                    "name": "F#2",
                    "midi": 42,
                    "time": 347.0999999999895,
                    "velocity": 0.44881889763779526,
                    "duration": 0.14999999999997726
                },
                {
                    "name": "F#3",
                    "midi": 54,
                    "time": 347.0999999999895,
                    "velocity": 0.6692913385826772,
                    "duration": 0.14999999999997726
                },
                {
                    "name": "F3",
                    "midi": 53,
                    "time": 347.39999999998946,
                    "velocity": 0.5905511811023622,
                    "duration": 0.14999999999997726
                },
                {
                    "name": "F2",
                    "midi": 41,
                    "time": 347.39999999998946,
                    "velocity": 0.49606299212598426,
                    "duration": 0.14999999999997726
                },
                {
                    "name": "E3",
                    "midi": 52,
                    "time": 347.6999999999894,
                    "velocity": 0.5905511811023622,
                    "duration": 0.14999999999997726
                },
                {
                    "name": "E2",
                    "midi": 40,
                    "time": 347.6999999999894,
                    "velocity": 0.49606299212598426,
                    "duration": 0.14999999999997726
                },
                {
                    "name": "D#2",
                    "midi": 39,
                    "time": 347.9249999999894,
                    "velocity": 0.47244094488188976,
                    "duration": 0.22499999999990905
                },
                {
                    "name": "F#2",
                    "midi": 42,
                    "time": 347.94999999998936,
                    "velocity": 0.4881889763779528,
                    "duration": 0.1999999999999318
                },
                {
                    "name": "A#2",
                    "midi": 46,
                    "time": 347.97499999998934,
                    "velocity": 0.5039370078740157,
                    "duration": 0.17499999999995453
                },
                {
                    "name": "D#3",
                    "midi": 51,
                    "time": 347.9999999999893,
                    "velocity": 0.6141732283464567,
                    "duration": 0.14999999999997726
                },
                {
                    "name": "D2",
                    "midi": 38,
                    "time": 348.29999999998927,
                    "velocity": 0.4881889763779528,
                    "duration": 0.14999999999997726
                },
                {
                    "name": "D3",
                    "midi": 50,
                    "time": 348.29999999998927,
                    "velocity": 0.5826771653543307,
                    "duration": 0.14999999999997726
                },
                {
                    "name": "C#2",
                    "midi": 37,
                    "time": 348.52499999998923,
                    "velocity": 0.4330708661417323,
                    "duration": 0.22499999999990905
                },
                {
                    "name": "F#2",
                    "midi": 42,
                    "time": 348.5499999999892,
                    "velocity": 0.44881889763779526,
                    "duration": 0.1999999999999318
                },
                {
                    "name": "A#2",
                    "midi": 46,
                    "time": 348.5749999999892,
                    "velocity": 0.4566929133858268,
                    "duration": 0.17499999999995453
                },
                {
                    "name": "C#3",
                    "midi": 49,
                    "time": 348.59999999998917,
                    "velocity": 0.5826771653543307,
                    "duration": 0.14999999999997726
                },
                {
                    "name": "C3",
                    "midi": 48,
                    "time": 348.8999999999891,
                    "velocity": 0.5905511811023622,
                    "duration": 0.14999999999997726
                },
                {
                    "name": "C2",
                    "midi": 36,
                    "time": 348.8999999999891,
                    "velocity": 0.4645669291338583,
                    "duration": 0.14999999999997726
                },
                {
                    "name": "C#3",
                    "midi": 49,
                    "time": 349.1999999999891,
                    "velocity": 0.5669291338582677,
                    "duration": 0.14999999999997726
                },
                {
                    "name": "C#2",
                    "midi": 37,
                    "time": 349.1999999999891,
                    "velocity": 0.48031496062992124,
                    "duration": 0.14999999999997726
                },
                {
                    "name": "C#3",
                    "midi": 49,
                    "time": 349.49999999998903,
                    "velocity": 0.6456692913385826,
                    "duration": 0.5999999999999659
                },
                {
                    "name": "C#2",
                    "midi": 37,
                    "time": 349.49999999998903,
                    "velocity": 0.5511811023622047,
                    "duration": 0.5999999999999659
                },
                {
                    "name": "G#3",
                    "midi": 56,
                    "time": 349.79999999998904,
                    "velocity": 0.4330708661417323,
                    "duration": 0.14999999999997726
                },
                {
                    "name": "F3",
                    "midi": 53,
                    "time": 349.79999999998904,
                    "velocity": 0.4330708661417323,
                    "duration": 0.14999999999997726
                },
                {
                    "name": "F3",
                    "midi": 53,
                    "time": 350.099999999989,
                    "velocity": 0.5905511811023622,
                    "duration": 0.5999999999999659
                },
                {
                    "name": "F2",
                    "midi": 41,
                    "time": 350.099999999989,
                    "velocity": 0.5039370078740157,
                    "duration": 0.5999999999999659
                },
                {
                    "name": "G#3",
                    "midi": 56,
                    "time": 350.399999999989,
                    "velocity": 0.4330708661417323,
                    "duration": 0.14999999999997726
                },
                {
                    "name": "C#4",
                    "midi": 61,
                    "time": 350.399999999989,
                    "velocity": 0.4330708661417323,
                    "duration": 0.14999999999997726
                },
                {
                    "name": "A#2",
                    "midi": 46,
                    "time": 350.69999999998896,
                    "velocity": 0.5984251968503937,
                    "duration": 0.8999999999999204
                },
                {
                    "name": "A#3",
                    "midi": 58,
                    "time": 350.69999999998896,
                    "velocity": 0.7086614173228346,
                    "duration": 0.8999999999999204
                },
                {
                    "name": "C#4",
                    "midi": 61,
                    "time": 350.999999999989,
                    "velocity": 0.4330708661417323,
                    "duration": 0.14999999999997726
                },
                {
                    "name": "F4",
                    "midi": 65,
                    "time": 350.999999999989,
                    "velocity": 0.5196850393700787,
                    "duration": 0.14999999999997726
                },
                {
                    "name": "C#4",
                    "midi": 61,
                    "time": 351.2999999999889,
                    "velocity": 0.4330708661417323,
                    "duration": 0.14999999999997726
                },
                {
                    "name": "F4",
                    "midi": 65,
                    "time": 351.2999999999889,
                    "velocity": 0.5196850393700787,
                    "duration": 0.14999999999997726
                },
                {
                    "name": "G#3",
                    "midi": 56,
                    "time": 351.5999999999889,
                    "velocity": 0.6299212598425197,
                    "duration": 0.14999999999997726
                },
                {
                    "name": "G#2",
                    "midi": 44,
                    "time": 351.5999999999889,
                    "velocity": 0.5275590551181102,
                    "duration": 0.14999999999997726
                },
                {
                    "name": "F#3",
                    "midi": 54,
                    "time": 351.89999999998884,
                    "velocity": 0.6692913385826772,
                    "duration": 0.14999999999997726
                },
                {
                    "name": "A#2",
                    "midi": 46,
                    "time": 351.89999999998884,
                    "velocity": 0.44881889763779526,
                    "duration": 0.14999999999997726
                },
                {
                    "name": "F#2",
                    "midi": 42,
                    "time": 351.89999999998884,
                    "velocity": 0.44881889763779526,
                    "duration": 0.14999999999997726
                },
                {
                    "name": "C#3",
                    "midi": 49,
                    "time": 351.89999999998884,
                    "velocity": 0.5669291338582677,
                    "duration": 0.14999999999997726
                },
                {
                    "name": "F2",
                    "midi": 41,
                    "time": 352.1999999999888,
                    "velocity": 0.49606299212598426,
                    "duration": 0.14999999999997726
                },
                {
                    "name": "F3",
                    "midi": 53,
                    "time": 352.1999999999888,
                    "velocity": 0.5905511811023622,
                    "duration": 0.14999999999997726
                },
                {
                    "name": "D#3",
                    "midi": 51,
                    "time": 352.49999999998875,
                    "velocity": 0.5905511811023622,
                    "duration": 0.14999999999997726
                },
                {
                    "name": "D#2",
                    "midi": 39,
                    "time": 352.49999999998875,
                    "velocity": 0.49606299212598426,
                    "duration": 0.14999999999997726
                },
                {
                    "name": "C#3",
                    "midi": 49,
                    "time": 352.7999999999887,
                    "velocity": 0.5196850393700787,
                    "duration": 0.14999999999997726
                },
                {
                    "name": "F#2",
                    "midi": 42,
                    "time": 352.7999999999887,
                    "velocity": 0.4094488188976378,
                    "duration": 0.14999999999997726
                },
                {
                    "name": "C#2",
                    "midi": 37,
                    "time": 352.7999999999887,
                    "velocity": 0.3937007874015748,
                    "duration": 0.14999999999997726
                },
                {
                    "name": "A#2",
                    "midi": 46,
                    "time": 352.7999999999887,
                    "velocity": 0.4330708661417323,
                    "duration": 0.14999999999997726
                },
                {
                    "name": "F#3",
                    "midi": 54,
                    "time": 353.09999999998865,
                    "velocity": 0.6220472440944882,
                    "duration": 0.6000000000000227
                },
                {
                    "name": "A#2",
                    "midi": 46,
                    "time": 353.09999999998865,
                    "velocity": 0.5275590551181102,
                    "duration": 0.6000000000000227
                },
                {
                    "name": "F#2",
                    "midi": 42,
                    "time": 353.09999999998865,
                    "velocity": 0.5275590551181102,
                    "duration": 0.6000000000000227
                },
                {
                    "name": "C#3",
                    "midi": 49,
                    "time": 353.09999999998865,
                    "velocity": 0.5275590551181102,
                    "duration": 0.6000000000000227
                },
                {
                    "name": "F#3",
                    "midi": 54,
                    "time": 353.6999999999887,
                    "velocity": 0.48031496062992124,
                    "duration": 0.6000000000000227
                },
                {
                    "name": "C#3",
                    "midi": 49,
                    "time": 353.6999999999887,
                    "velocity": 0.48031496062992124,
                    "duration": 0.6000000000000227
                },
                {
                    "name": "A#3",
                    "midi": 58,
                    "time": 353.6999999999887,
                    "velocity": 0.5669291338582677,
                    "duration": 0.6000000000000227
                },
                {
                    "name": "A#2",
                    "midi": 46,
                    "time": 353.6999999999887,
                    "velocity": 0.48031496062992124,
                    "duration": 0.6000000000000227
                },
                {
                    "name": "C#3",
                    "midi": 49,
                    "time": 354.2999999999887,
                    "velocity": 0.48031496062992124,
                    "duration": 0.14999999999997726
                },
                {
                    "name": "C#2",
                    "midi": 37,
                    "time": 354.2999999999887,
                    "velocity": 0.4015748031496063,
                    "duration": 0.14999999999997726
                },
                {
                    "name": "C#4",
                    "midi": 61,
                    "time": 354.59999999998865,
                    "velocity": 0.6062992125984252,
                    "duration": 0.30000000000001137
                },
                {
                    "name": "C#3",
                    "midi": 49,
                    "time": 354.59999999998865,
                    "velocity": 0.5118110236220472,
                    "duration": 0.30000000000001137
                },
                {
                    "name": "G#2",
                    "midi": 44,
                    "time": 354.89999999998867,
                    "velocity": 0.4015748031496063,
                    "duration": 0.1500000000000341
                },
                {
                    "name": "G#3",
                    "midi": 56,
                    "time": 354.9087499999887,
                    "velocity": 0.48031496062992124,
                    "duration": 0.1500000000000341
                },
                {
                    "name": "F3",
                    "midi": 53,
                    "time": 355.19999999998873,
                    "velocity": 0.5275590551181102,
                    "duration": 0.30000000000001137
                },
                {
                    "name": "F4",
                    "midi": 65,
                    "time": 355.19999999998873,
                    "velocity": 0.6299212598425197,
                    "duration": 0.30000000000001137
                },
                {
                    "name": "C#3",
                    "midi": 49,
                    "time": 355.49999999998875,
                    "velocity": 0.4251968503937008,
                    "duration": 0.14999999999997726
                },
                {
                    "name": "C#4",
                    "midi": 61,
                    "time": 355.49999999998875,
                    "velocity": 0.5118110236220472,
                    "duration": 0.14999999999997726
                },
                {
                    "name": "A#4",
                    "midi": 70,
                    "time": 355.7999999999887,
                    "velocity": 0.6850393700787402,
                    "duration": 0.6000000000000227
                },
                {
                    "name": "A#3",
                    "midi": 58,
                    "time": 355.7999999999887,
                    "velocity": 0.5748031496062992,
                    "duration": 0.6000000000000227
                },
                {
                    "name": "G#4",
                    "midi": 68,
                    "time": 356.3999999999887,
                    "velocity": 0.5905511811023622,
                    "duration": 0.14999999999997726
                },
                {
                    "name": "G#3",
                    "midi": 56,
                    "time": 356.3999999999887,
                    "velocity": 0.5039370078740157,
                    "duration": 0.14999999999997726
                },
                {
                    "name": "F#4",
                    "midi": 66,
                    "time": 356.6999999999887,
                    "velocity": 0.6614173228346457,
                    "duration": 0.14999999999997726
                },
                {
                    "name": "F#3",
                    "midi": 54,
                    "time": 356.6999999999887,
                    "velocity": 0.5590551181102362,
                    "duration": 0.14999999999997726
                },
                {
                    "name": "F3",
                    "midi": 53,
                    "time": 356.99999999998863,
                    "velocity": 0.4566929133858268,
                    "duration": 0.14999999999997726
                },
                {
                    "name": "F4",
                    "midi": 65,
                    "time": 356.99999999998863,
                    "velocity": 0.5511811023622047,
                    "duration": 0.14999999999997726
                },
                {
                    "name": "E4",
                    "midi": 64,
                    "time": 357.2999999999886,
                    "velocity": 0.5511811023622047,
                    "duration": 0.14999999999997726
                },
                {
                    "name": "E3",
                    "midi": 52,
                    "time": 357.2999999999886,
                    "velocity": 0.4566929133858268,
                    "duration": 0.14999999999997726
                },
                {
                    "name": "D#3",
                    "midi": 51,
                    "time": 357.59999999998854,
                    "velocity": 0.4566929133858268,
                    "duration": 0.14999999999997726
                },
                {
                    "name": "D#4",
                    "midi": 63,
                    "time": 357.59999999998854,
                    "velocity": 0.5511811023622047,
                    "duration": 0.14999999999997726
                },
                {
                    "name": "D3",
                    "midi": 50,
                    "time": 357.8999999999885,
                    "velocity": 0.5590551181102362,
                    "duration": 0.14999999999997726
                },
                {
                    "name": "D4",
                    "midi": 62,
                    "time": 357.8999999999885,
                    "velocity": 0.6692913385826772,
                    "duration": 0.14999999999997726
                },
                {
                    "name": "C#4",
                    "midi": 61,
                    "time": 358.19999999998845,
                    "velocity": 0.5433070866141733,
                    "duration": 0.14999999999997726
                },
                {
                    "name": "C#3",
                    "midi": 49,
                    "time": 358.19999999998845,
                    "velocity": 0.4566929133858268,
                    "duration": 0.14999999999997726
                },
                {
                    "name": "A#2",
                    "midi": 46,
                    "time": 358.4999999999884,
                    "velocity": 0.4566929133858268,
                    "duration": 0.14999999999997726
                },
                {
                    "name": "A#3",
                    "midi": 58,
                    "time": 358.4999999999884,
                    "velocity": 0.5433070866141733,
                    "duration": 0.14999999999997726
                },
                {
                    "name": "F#3",
                    "midi": 54,
                    "time": 358.79999999998836,
                    "velocity": 0.5433070866141733,
                    "duration": 0.14999999999997726
                },
                {
                    "name": "F#2",
                    "midi": 42,
                    "time": 358.79999999998836,
                    "velocity": 0.4566929133858268,
                    "duration": 0.14999999999997726
                },
                {
                    "name": "C#3",
                    "midi": 49,
                    "time": 359.0999999999883,
                    "velocity": 0.5275590551181102,
                    "duration": 0.14999999999997726
                },
                {
                    "name": "C#2",
                    "midi": 37,
                    "time": 359.0999999999883,
                    "velocity": 0.44881889763779526,
                    "duration": 0.14999999999997726
                },
                {
                    "name": "C#3",
                    "midi": 49,
                    "time": 359.39999999998827,
                    "velocity": 0.5590551181102362,
                    "duration": 0.30000000000001137
                },
                {
                    "name": "C#4",
                    "midi": 61,
                    "time": 359.39999999998827,
                    "velocity": 0.6614173228346457,
                    "duration": 0.30000000000001137
                },
                {
                    "name": "G#2",
                    "midi": 44,
                    "time": 359.6999999999883,
                    "velocity": 0.41732283464566927,
                    "duration": 0.1500000000000341
                },
                {
                    "name": "G#3",
                    "midi": 56,
                    "time": 359.7087499999883,
                    "velocity": 0.5039370078740157,
                    "duration": 0.1500000000000341
                },
                {
                    "name": "F4",
                    "midi": 65,
                    "time": 359.99999999998835,
                    "velocity": 0.6456692913385826,
                    "duration": 0.30000000000001137
                },
                {
                    "name": "F3",
                    "midi": 53,
                    "time": 359.99999999998835,
                    "velocity": 0.5511811023622047,
                    "duration": 0.30000000000001137
                },
                {
                    "name": "C#4",
                    "midi": 61,
                    "time": 360.29999999998836,
                    "velocity": 0.5118110236220472,
                    "duration": 0.14999999999997726
                },
                {
                    "name": "C#3",
                    "midi": 49,
                    "time": 360.29999999998836,
                    "velocity": 0.4251968503937008,
                    "duration": 0.14999999999997726
                },
                {
                    "name": "A#3",
                    "midi": 58,
                    "time": 360.5999999999883,
                    "velocity": 0.5748031496062992,
                    "duration": 0.6000000000000227
                },
                {
                    "name": "A#4",
                    "midi": 70,
                    "time": 360.5999999999883,
                    "velocity": 0.6850393700787402,
                    "duration": 0.6000000000000227
                },
                {
                    "name": "G#4",
                    "midi": 68,
                    "time": 361.19999999998834,
                    "velocity": 0.5905511811023622,
                    "duration": 0.14999999999997726
                },
                {
                    "name": "G#3",
                    "midi": 56,
                    "time": 361.19999999998834,
                    "velocity": 0.5039370078740157,
                    "duration": 0.14999999999997726
                },
                {
                    "name": "F#3",
                    "midi": 54,
                    "time": 361.4999999999883,
                    "velocity": 0.5590551181102362,
                    "duration": 0.14999999999997726
                },
                {
                    "name": "F#4",
                    "midi": 66,
                    "time": 361.4999999999883,
                    "velocity": 0.6614173228346457,
                    "duration": 0.14999999999997726
                },
                {
                    "name": "F4",
                    "midi": 65,
                    "time": 361.79999999998824,
                    "velocity": 0.5511811023622047,
                    "duration": 0.14999999999997726
                },
                {
                    "name": "F3",
                    "midi": 53,
                    "time": 361.79999999998824,
                    "velocity": 0.4566929133858268,
                    "duration": 0.14999999999997726
                },
                {
                    "name": "E4",
                    "midi": 64,
                    "time": 362.0999999999882,
                    "velocity": 0.5511811023622047,
                    "duration": 0.14999999999997726
                },
                {
                    "name": "E3",
                    "midi": 52,
                    "time": 362.0999999999882,
                    "velocity": 0.4566929133858268,
                    "duration": 0.14999999999997726
                },
                {
                    "name": "D#3",
                    "midi": 51,
                    "time": 362.39999999998815,
                    "velocity": 0.4566929133858268,
                    "duration": 0.14999999999997726
                },
                {
                    "name": "D#4",
                    "midi": 63,
                    "time": 362.39999999998815,
                    "velocity": 0.5511811023622047,
                    "duration": 0.14999999999997726
                },
                {
                    "name": "D3",
                    "midi": 50,
                    "time": 362.6999999999881,
                    "velocity": 0.5039370078740157,
                    "duration": 0.14999999999997726
                },
                {
                    "name": "D4",
                    "midi": 62,
                    "time": 362.6999999999881,
                    "velocity": 0.5984251968503937,
                    "duration": 0.14999999999997726
                },
                {
                    "name": "C#4",
                    "midi": 61,
                    "time": 362.99999999998806,
                    "velocity": 0.5196850393700787,
                    "duration": 0.14999999999997726
                },
                {
                    "name": "C#3",
                    "midi": 49,
                    "time": 362.99999999998806,
                    "velocity": 0.4330708661417323,
                    "duration": 0.14999999999997726
                },
                {
                    "name": "C4",
                    "midi": 60,
                    "time": 363.299999999988,
                    "velocity": 0.5118110236220472,
                    "duration": 0.14999999999997726
                },
                {
                    "name": "C3",
                    "midi": 48,
                    "time": 363.299999999988,
                    "velocity": 0.4251968503937008,
                    "duration": 0.14999999999997726
                },
                {
                    "name": "C#3",
                    "midi": 49,
                    "time": 363.599999999988,
                    "velocity": 0.4094488188976378,
                    "duration": 0.14999999999997726
                },
                {
                    "name": "C#4",
                    "midi": 61,
                    "time": 363.599999999988,
                    "velocity": 0.49606299212598426,
                    "duration": 0.14999999999997726
                },
                {
                    "name": "G#3",
                    "midi": 56,
                    "time": 363.8999999999879,
                    "velocity": 0.33070866141732286,
                    "duration": 0.14999999999997726
                },
                {
                    "name": "F4",
                    "midi": 65,
                    "time": 364.1999999999879,
                    "velocity": 0.29133858267716534,
                    "duration": 0.14999999999997726
                },
                {
                    "name": "C#4",
                    "midi": 61,
                    "time": 364.1999999999879,
                    "velocity": 0.29133858267716534,
                    "duration": 0.14999999999997726
                },
                {
                    "name": "B4",
                    "midi": 71,
                    "time": 364.1999999999879,
                    "velocity": 0.29133858267716534,
                    "duration": 0.14999999999997726
                },
                {
                    "name": "C#3",
                    "midi": 49,
                    "time": 364.49999999998784,
                    "velocity": 0.33070866141732286,
                    "duration": 0.14999999999997726
                },
                {
                    "name": "F4",
                    "midi": 65,
                    "time": 364.7999999999878,
                    "velocity": 0.29133858267716534,
                    "duration": 0.14999999999997726
                },
                {
                    "name": "C#4",
                    "midi": 61,
                    "time": 364.7999999999878,
                    "velocity": 0.29133858267716534,
                    "duration": 0.14999999999997726
                },
                {
                    "name": "B4",
                    "midi": 71,
                    "time": 364.7999999999878,
                    "velocity": 0.29133858267716534,
                    "duration": 0.14999999999997726
                },
                {
                    "name": "G#4",
                    "midi": 68,
                    "time": 365.09999999998774,
                    "velocity": 0.29133858267716534,
                    "duration": 0.14999999999997726
                },
                {
                    "name": "C5",
                    "midi": 72,
                    "time": 365.09999999998774,
                    "velocity": 0.33070866141732286,
                    "duration": 0.14999999999997726
                },
                {
                    "name": "F4",
                    "midi": 65,
                    "time": 365.3999999999877,
                    "velocity": 0.29133858267716534,
                    "duration": 0.14999999999997726
                },
                {
                    "name": "C#5",
                    "midi": 73,
                    "time": 365.3999999999877,
                    "velocity": 0.29133858267716534,
                    "duration": 0.14999999999997726
                },
                {
                    "name": "G#4",
                    "midi": 68,
                    "time": 365.69999999998765,
                    "velocity": 0.33070866141732286,
                    "duration": 0.44999999999998863
                },
                {
                    "name": "B4",
                    "midi": 71,
                    "time": 365.69999999998765,
                    "velocity": 0.3779527559055118,
                    "duration": 0.44999999999998863
                },
                {
                    "name": "F4",
                    "midi": 65,
                    "time": 366.14999999998764,
                    "velocity": 0.29133858267716534,
                    "duration": 0.14999999999997726
                },
                {
                    "name": "C#5",
                    "midi": 73,
                    "time": 366.14999999998764,
                    "velocity": 0.29133858267716534,
                    "duration": 0.14999999999997726
                },
                {
                    "name": "F#3",
                    "midi": 54,
                    "time": 366.2999999999876,
                    "velocity": 0.33070866141732286,
                    "duration": 0.14999999999997726
                },
                {
                    "name": "F#4",
                    "midi": 66,
                    "time": 366.5999999999876,
                    "velocity": 0.29133858267716534,
                    "duration": 0.14999999999997726
                },
                {
                    "name": "A#4",
                    "midi": 70,
                    "time": 366.5999999999876,
                    "velocity": 0.29133858267716534,
                    "duration": 0.14999999999997726
                },
                {
                    "name": "C#4",
                    "midi": 61,
                    "time": 366.5999999999876,
                    "velocity": 0.29133858267716534,
                    "duration": 0.14999999999997726
                },
                {
                    "name": "C#3",
                    "midi": 49,
                    "time": 366.89999999998753,
                    "velocity": 0.33070866141732286,
                    "duration": 0.14999999999997726
                },
                {
                    "name": "F#4",
                    "midi": 66,
                    "time": 367.1999999999875,
                    "velocity": 0.29133858267716534,
                    "duration": 0.14999999999997726
                },
                {
                    "name": "A#4",
                    "midi": 70,
                    "time": 367.1999999999875,
                    "velocity": 0.29133858267716534,
                    "duration": 0.14999999999997726
                },
                {
                    "name": "C#4",
                    "midi": 61,
                    "time": 367.1999999999875,
                    "velocity": 0.29133858267716534,
                    "duration": 0.14999999999997726
                },
                {
                    "name": "A4",
                    "midi": 69,
                    "time": 367.49999999998744,
                    "velocity": 0.29133858267716534,
                    "duration": 0.14999999999997726
                },
                {
                    "name": "C5",
                    "midi": 72,
                    "time": 367.49999999998744,
                    "velocity": 0.33070866141732286,
                    "duration": 0.14999999999997726
                },
                {
                    "name": "A#4",
                    "midi": 70,
                    "time": 367.7999999999874,
                    "velocity": 0.29133858267716534,
                    "duration": 0.14999999999997726
                },
                {
                    "name": "C#5",
                    "midi": 73,
                    "time": 367.7999999999874,
                    "velocity": 0.29133858267716534,
                    "duration": 0.14999999999997726
                },
                {
                    "name": "F#4",
                    "midi": 66,
                    "time": 368.09999999998735,
                    "velocity": 0.33070866141732286,
                    "duration": 0.5999999999999659
                },
                {
                    "name": "A#4",
                    "midi": 70,
                    "time": 368.09999999998735,
                    "velocity": 0.3779527559055118,
                    "duration": 0.44999999999998863
                },
                {
                    "name": "C#5",
                    "midi": 73,
                    "time": 368.54999999998734,
                    "velocity": 0.29133858267716534,
                    "duration": 0.14999999999997726
                },
                {
                    "name": "G#3",
                    "midi": 56,
                    "time": 368.6999999999873,
                    "velocity": 0.33070866141732286,
                    "duration": 0.14999999999997726
                },
                {
                    "name": "F4",
                    "midi": 65,
                    "time": 368.99999999998727,
                    "velocity": 0.29133858267716534,
                    "duration": 0.14999999999997726
                },
                {
                    "name": "C#4",
                    "midi": 61,
                    "time": 368.99999999998727,
                    "velocity": 0.29133858267716534,
                    "duration": 0.14999999999997726
                },
                {
                    "name": "B4",
                    "midi": 71,
                    "time": 368.99999999998727,
                    "velocity": 0.29133858267716534,
                    "duration": 0.14999999999997726
                },
                {
                    "name": "C#3",
                    "midi": 49,
                    "time": 369.2999999999872,
                    "velocity": 0.33070866141732286,
                    "duration": 0.14999999999997726
                },
                {
                    "name": "F4",
                    "midi": 65,
                    "time": 369.5999999999872,
                    "velocity": 0.29133858267716534,
                    "duration": 0.14999999999997726
                },
                {
                    "name": "B4",
                    "midi": 71,
                    "time": 369.5999999999872,
                    "velocity": 0.29133858267716534,
                    "duration": 0.14999999999997726
                },
                {
                    "name": "C#4",
                    "midi": 61,
                    "time": 369.5999999999872,
                    "velocity": 0.29133858267716534,
                    "duration": 0.14999999999997726
                },
                {
                    "name": "G#4",
                    "midi": 68,
                    "time": 369.89999999998713,
                    "velocity": 0.29133858267716534,
                    "duration": 0.14999999999997726
                },
                {
                    "name": "C5",
                    "midi": 72,
                    "time": 369.89999999998713,
                    "velocity": 0.33070866141732286,
                    "duration": 0.14999999999997726
                },
                {
                    "name": "F4",
                    "midi": 65,
                    "time": 370.1999999999871,
                    "velocity": 0.29133858267716534,
                    "duration": 0.14999999999997726
                },
                {
                    "name": "C#5",
                    "midi": 73,
                    "time": 370.1999999999871,
                    "velocity": 0.29133858267716534,
                    "duration": 0.14999999999997726
                },
                {
                    "name": "B4",
                    "midi": 71,
                    "time": 370.49999999998704,
                    "velocity": 0.3779527559055118,
                    "duration": 0.44999999999998863
                },
                {
                    "name": "G#4",
                    "midi": 68,
                    "time": 370.49999999998704,
                    "velocity": 0.33070866141732286,
                    "duration": 0.44999999999998863
                },
                {
                    "name": "C#5",
                    "midi": 73,
                    "time": 370.949999999987,
                    "velocity": 0.29133858267716534,
                    "duration": 0.14999999999997726
                },
                {
                    "name": "F4",
                    "midi": 65,
                    "time": 370.949999999987,
                    "velocity": 0.29133858267716534,
                    "duration": 0.14999999999997726
                },
                {
                    "name": "F#3",
                    "midi": 54,
                    "time": 371.099999999987,
                    "velocity": 0.33070866141732286,
                    "duration": 0.14999999999997726
                },
                {
                    "name": "F#4",
                    "midi": 66,
                    "time": 371.39999999998696,
                    "velocity": 0.29133858267716534,
                    "duration": 0.14999999999997726
                },
                {
                    "name": "A#4",
                    "midi": 70,
                    "time": 371.39999999998696,
                    "velocity": 0.29133858267716534,
                    "duration": 0.14999999999997726
                },
                {
                    "name": "C#4",
                    "midi": 61,
                    "time": 371.39999999998696,
                    "velocity": 0.29133858267716534,
                    "duration": 0.14999999999997726
                },
                {
                    "name": "C#3",
                    "midi": 49,
                    "time": 371.6999999999869,
                    "velocity": 0.33070866141732286,
                    "duration": 0.14999999999997726
                },
                {
                    "name": "F#4",
                    "midi": 66,
                    "time": 371.99999999998687,
                    "velocity": 0.29133858267716534,
                    "duration": 0.14999999999997726
                },
                {
                    "name": "A#4",
                    "midi": 70,
                    "time": 371.99999999998687,
                    "velocity": 0.29133858267716534,
                    "duration": 0.14999999999997726
                },
                {
                    "name": "C#4",
                    "midi": 61,
                    "time": 371.99999999998687,
                    "velocity": 0.29133858267716534,
                    "duration": 0.14999999999997726
                },
                {
                    "name": "A4",
                    "midi": 69,
                    "time": 372.2999999999868,
                    "velocity": 0.29133858267716534,
                    "duration": 0.14999999999997726
                },
                {
                    "name": "C5",
                    "midi": 72,
                    "time": 372.2999999999868,
                    "velocity": 0.33070866141732286,
                    "duration": 0.14999999999997726
                },
                {
                    "name": "A#4",
                    "midi": 70,
                    "time": 372.5999999999868,
                    "velocity": 0.29133858267716534,
                    "duration": 0.14999999999997726
                },
                {
                    "name": "C#5",
                    "midi": 73,
                    "time": 372.5999999999868,
                    "velocity": 0.29133858267716534,
                    "duration": 0.14999999999997726
                },
                {
                    "name": "F#4",
                    "midi": 66,
                    "time": 372.89999999998673,
                    "velocity": 0.33070866141732286,
                    "duration": 0.5249999999999773
                },
                {
                    "name": "A#4",
                    "midi": 70,
                    "time": 372.89999999998673,
                    "velocity": 0.3779527559055118,
                    "duration": 0.44999999999998863
                },
                {
                    "name": "C#5",
                    "midi": 73,
                    "time": 373.3499999999867,
                    "velocity": 0.29133858267716534,
                    "duration": 0.07499999999998863
                },
                {
                    "name": "F#4",
                    "midi": 66,
                    "time": 373.4999999999867,
                    "velocity": 0.33070866141732286,
                    "duration": 0.14999999999997726
                },
                {
                    "name": "B4",
                    "midi": 71,
                    "time": 373.79999999998665,
                    "velocity": 0.2440944881889764,
                    "duration": 0.14999999999997726
                },
                {
                    "name": "D#5",
                    "midi": 75,
                    "time": 373.79999999998665,
                    "velocity": 0.29133858267716534,
                    "duration": 0.14999999999997726
                },
                {
                    "name": "C#4",
                    "midi": 61,
                    "time": 374.0999999999866,
                    "velocity": 0.33070866141732286,
                    "duration": 0.14999999999997726
                },
                {
                    "name": "F#5",
                    "midi": 78,
                    "time": 374.39999999998656,
                    "velocity": 0.29133858267716534,
                    "duration": 0.14999999999997726
                },
                {
                    "name": "D#5",
                    "midi": 75,
                    "time": 374.39999999998656,
                    "velocity": 0.2440944881889764,
                    "duration": 0.14999999999997726
                },
                {
                    "name": "F#4",
                    "midi": 66,
                    "time": 374.6999999999865,
                    "velocity": 0.33070866141732286,
                    "duration": 0.14999999999997726
                },
                {
                    "name": "D#5",
                    "midi": 75,
                    "time": 374.99999999998647,
                    "velocity": 0.2440944881889764,
                    "duration": 0.14999999999997726
                },
                {
                    "name": "F#5",
                    "midi": 78,
                    "time": 374.99999999998647,
                    "velocity": 0.29133858267716534,
                    "duration": 0.14999999999997726
                },
                {
                    "name": "B4",
                    "midi": 71,
                    "time": 375.2999999999864,
                    "velocity": 0.33070866141732286,
                    "duration": 0.14999999999997726
                },
                {
                    "name": "F#5",
                    "midi": 78,
                    "time": 375.5999999999864,
                    "velocity": 0.29133858267716534,
                    "duration": 0.14999999999997726
                },
                {
                    "name": "D#5",
                    "midi": 75,
                    "time": 375.5999999999864,
                    "velocity": 0.2440944881889764,
                    "duration": 0.14999999999997726
                },
                {
                    "name": "F#4",
                    "midi": 66,
                    "time": 375.89999999998633,
                    "velocity": 0.33070866141732286,
                    "duration": 0.14999999999997726
                },
                {
                    "name": "A#4",
                    "midi": 70,
                    "time": 376.1999999999863,
                    "velocity": 0.2440944881889764,
                    "duration": 0.14999999999997726
                },
                {
                    "name": "C#5",
                    "midi": 73,
                    "time": 376.1999999999863,
                    "velocity": 0.29133858267716534,
                    "duration": 0.14999999999997726
                },
                {
                    "name": "C#4",
                    "midi": 61,
                    "time": 376.49999999998624,
                    "velocity": 0.33070866141732286,
                    "duration": 0.14999999999997726
                },
                {
                    "name": "C#5",
                    "midi": 73,
                    "time": 376.7999999999862,
                    "velocity": 0.2440944881889764,
                    "duration": 0.14999999999997726
                },
                {
                    "name": "F#5",
                    "midi": 78,
                    "time": 376.7999999999862,
                    "velocity": 0.29133858267716534,
                    "duration": 0.14999999999997726
                },
                {
                    "name": "F#4",
                    "midi": 66,
                    "time": 377.09999999998615,
                    "velocity": 0.33070866141732286,
                    "duration": 0.14999999999997726
                },
                {
                    "name": "C#5",
                    "midi": 73,
                    "time": 377.3999999999861,
                    "velocity": 0.2440944881889764,
                    "duration": 0.14999999999997726
                },
                {
                    "name": "F#5",
                    "midi": 78,
                    "time": 377.3999999999861,
                    "velocity": 0.29133858267716534,
                    "duration": 0.14999999999997726
                },
                {
                    "name": "A#4",
                    "midi": 70,
                    "time": 377.69999999998606,
                    "velocity": 0.33070866141732286,
                    "duration": 0.14999999999997726
                },
                {
                    "name": "C#5",
                    "midi": 73,
                    "time": 377.999999999986,
                    "velocity": 0.2440944881889764,
                    "duration": 0.14999999999997726
                },
                {
                    "name": "F#5",
                    "midi": 78,
                    "time": 377.999999999986,
                    "velocity": 0.29133858267716534,
                    "duration": 0.14999999999997726
                },
                {
                    "name": "F#4",
                    "midi": 66,
                    "time": 378.29999999998597,
                    "velocity": 0.33070866141732286,
                    "duration": 0.14999999999997726
                },
                {
                    "name": "D#5",
                    "midi": 75,
                    "time": 378.5999999999859,
                    "velocity": 0.29133858267716534,
                    "duration": 0.14999999999997726
                },
                {
                    "name": "B4",
                    "midi": 71,
                    "time": 378.5999999999859,
                    "velocity": 0.2440944881889764,
                    "duration": 0.14999999999997726
                },
                {
                    "name": "C#4",
                    "midi": 61,
                    "time": 378.8999999999859,
                    "velocity": 0.33070866141732286,
                    "duration": 0.14999999999997726
                },
                {
                    "name": "D#5",
                    "midi": 75,
                    "time": 379.19999999998583,
                    "velocity": 0.2440944881889764,
                    "duration": 0.14999999999997726
                },
                {
                    "name": "F#5",
                    "midi": 78,
                    "time": 379.19999999998583,
                    "velocity": 0.29133858267716534,
                    "duration": 0.14999999999997726
                },
                {
                    "name": "F#4",
                    "midi": 66,
                    "time": 379.4999999999858,
                    "velocity": 0.33070866141732286,
                    "duration": 0.14999999999997726
                },
                {
                    "name": "F#5",
                    "midi": 78,
                    "time": 379.79999999998574,
                    "velocity": 0.29133858267716534,
                    "duration": 0.14999999999997726
                },
                {
                    "name": "D#5",
                    "midi": 75,
                    "time": 379.79999999998574,
                    "velocity": 0.2440944881889764,
                    "duration": 0.14999999999997726
                },
                {
                    "name": "B4",
                    "midi": 71,
                    "time": 380.0999999999857,
                    "velocity": 0.33070866141732286,
                    "duration": 0.14999999999997726
                },
                {
                    "name": "F#5",
                    "midi": 78,
                    "time": 380.39999999998565,
                    "velocity": 0.29133858267716534,
                    "duration": 0.14999999999997726
                },
                {
                    "name": "D#5",
                    "midi": 75,
                    "time": 380.39999999998565,
                    "velocity": 0.2440944881889764,
                    "duration": 0.14999999999997726
                },
                {
                    "name": "F#4",
                    "midi": 66,
                    "time": 380.6999999999856,
                    "velocity": 0.33070866141732286,
                    "duration": 0.14999999999997726
                },
                {
                    "name": "A#4",
                    "midi": 70,
                    "time": 380.99999999998556,
                    "velocity": 0.2440944881889764,
                    "duration": 0.14999999999997726
                },
                {
                    "name": "C#5",
                    "midi": 73,
                    "time": 380.99999999998556,
                    "velocity": 0.29133858267716534,
                    "duration": 0.14999999999997726
                },
                {
                    "name": "C#4",
                    "midi": 61,
                    "time": 381.2999999999855,
                    "velocity": 0.33070866141732286,
                    "duration": 0.14999999999997726
                },
                {
                    "name": "C#5",
                    "midi": 73,
                    "time": 381.59999999998547,
                    "velocity": 0.2440944881889764,
                    "duration": 0.14999999999997726
                },
                {
                    "name": "F#5",
                    "midi": 78,
                    "time": 381.59999999998547,
                    "velocity": 0.29133858267716534,
                    "duration": 0.14999999999997726
                },
                {
                    "name": "F#4",
                    "midi": 66,
                    "time": 381.8999999999854,
                    "velocity": 0.33070866141732286,
                    "duration": 0.14999999999997726
                },
                {
                    "name": "C#5",
                    "midi": 73,
                    "time": 382.1999999999854,
                    "velocity": 0.2440944881889764,
                    "duration": 0.14999999999997726
                },
                {
                    "name": "F#5",
                    "midi": 78,
                    "time": 382.1999999999854,
                    "velocity": 0.29133858267716534,
                    "duration": 0.14999999999997726
                },
                {
                    "name": "A#4",
                    "midi": 70,
                    "time": 382.49999999998533,
                    "velocity": 0.33070866141732286,
                    "duration": 0.14999999999997726
                },
                {
                    "name": "F#5",
                    "midi": 78,
                    "time": 382.7999999999853,
                    "velocity": 0.29133858267716534,
                    "duration": 0.14999999999997726
                },
                {
                    "name": "C#5",
                    "midi": 73,
                    "time": 382.7999999999853,
                    "velocity": 0.2440944881889764,
                    "duration": 0.14999999999997726
                },
                {
                    "name": "G#3",
                    "midi": 56,
                    "time": 383.09999999998524,
                    "velocity": 0.33070866141732286,
                    "duration": 0.14999999999997726
                },
                {
                    "name": "B4",
                    "midi": 71,
                    "time": 383.3999999999852,
                    "velocity": 0.25984251968503935,
                    "duration": 0.14999999999997726
                },
                {
                    "name": "F4",
                    "midi": 65,
                    "time": 383.3999999999852,
                    "velocity": 0.2204724409448819,
                    "duration": 0.14999999999997726
                },
                {
                    "name": "C#4",
                    "midi": 61,
                    "time": 383.69999999998515,
                    "velocity": 0.28346456692913385,
                    "duration": 0.14999999999997726
                },
                {
                    "name": "B4",
                    "midi": 71,
                    "time": 383.9999999999851,
                    "velocity": 0.25984251968503935,
                    "duration": 0.14999999999997726
                },
                {
                    "name": "F4",
                    "midi": 65,
                    "time": 383.9999999999851,
                    "velocity": 0.2204724409448819,
                    "duration": 0.14999999999997726
                },
                {
                    "name": "F4",
                    "midi": 65,
                    "time": 384.5999999999851,
                    "velocity": 0.2204724409448819,
                    "duration": 0.14999999999997726
                },
                {
                    "name": "B4",
                    "midi": 71,
                    "time": 384.5999999999851,
                    "velocity": 0.25984251968503935,
                    "duration": 0.14999999999997726
                },
                {
                    "name": "C#4",
                    "midi": 61,
                    "time": 384.899999999985,
                    "velocity": 0.2992125984251969,
                    "duration": 0.14999999999997726
                },
                {
                    "name": "F4",
                    "midi": 65,
                    "time": 385.199999999985,
                    "velocity": 0.2204724409448819,
                    "duration": 0.14999999999997726
                },
                {
                    "name": "B4",
                    "midi": 71,
                    "time": 385.199999999985,
                    "velocity": 0.25984251968503935,
                    "duration": 0.14999999999997726
                },
                {
                    "name": "A#3",
                    "midi": 58,
                    "time": 385.49999999998494,
                    "velocity": 0.33070866141732286,
                    "duration": 0.14999999999997726
                },
                {
                    "name": "F#4",
                    "midi": 66,
                    "time": 385.7999999999849,
                    "velocity": 0.2204724409448819,
                    "duration": 0.14999999999997726
                },
                {
                    "name": "A#4",
                    "midi": 70,
                    "time": 385.7999999999849,
                    "velocity": 0.25984251968503935,
                    "duration": 0.14999999999997726
                },
                {
                    "name": "C#4",
                    "midi": 61,
                    "time": 386.09999999998485,
                    "velocity": 0.28346456692913385,
                    "duration": 0.14999999999997726
                },
                {
                    "name": "A#4",
                    "midi": 70,
                    "time": 386.3999999999848,
                    "velocity": 0.25984251968503935,
                    "duration": 0.14999999999997726
                },
                {
                    "name": "F#4",
                    "midi": 66,
                    "time": 386.3999999999848,
                    "velocity": 0.2204724409448819,
                    "duration": 0.14999999999997726
                },
                {
                    "name": "A#3",
                    "midi": 58,
                    "time": 386.69999999998475,
                    "velocity": 0.3464566929133858,
                    "duration": 0.14999999999997726
                },
                {
                    "name": "F#4",
                    "midi": 66,
                    "time": 386.9999999999847,
                    "velocity": 0.2204724409448819,
                    "duration": 0.14999999999997726
                },
                {
                    "name": "A#4",
                    "midi": 70,
                    "time": 386.9999999999847,
                    "velocity": 0.25984251968503935,
                    "duration": 0.14999999999997726
                },
                {
                    "name": "A#4",
                    "midi": 70,
                    "time": 387.5999999999847,
                    "velocity": 0.25984251968503935,
                    "duration": 0.14999999999997726
                },
                {
                    "name": "F#4",
                    "midi": 66,
                    "time": 387.5999999999847,
                    "velocity": 0.2204724409448819,
                    "duration": 0.14999999999997726
                },
                {
                    "name": "G#3",
                    "midi": 56,
                    "time": 387.89999999998463,
                    "velocity": 0.3464566929133858,
                    "duration": 0.14999999999997726
                },
                {
                    "name": "F4",
                    "midi": 65,
                    "time": 388.1999999999846,
                    "velocity": 0.2204724409448819,
                    "duration": 0.07499999999998863
                },
                {
                    "name": "B4",
                    "midi": 71,
                    "time": 388.1999999999846,
                    "velocity": 0.25984251968503935,
                    "duration": 0.07499999999998863
                },
                {
                    "name": "C#4",
                    "midi": 61,
                    "time": 388.4999999999846,
                    "velocity": 0.2992125984251969,
                    "duration": 0.14999999999997726
                },
                {
                    "name": "F4",
                    "midi": 65,
                    "time": 388.79999999998455,
                    "velocity": 0.2204724409448819,
                    "duration": 0.07499999999998863
                },
                {
                    "name": "B4",
                    "midi": 71,
                    "time": 388.79999999998455,
                    "velocity": 0.25984251968503935,
                    "duration": 0.07499999999998863
                },
                {
                    "name": "G#3",
                    "midi": 56,
                    "time": 389.09999999998456,
                    "velocity": 0.3464566929133858,
                    "duration": 0.14999999999997726
                },
                {
                    "name": "F4",
                    "midi": 65,
                    "time": 389.3999999999845,
                    "velocity": 0.2204724409448819,
                    "duration": 0.07499999999998863
                },
                {
                    "name": "B4",
                    "midi": 71,
                    "time": 389.3999999999845,
                    "velocity": 0.25984251968503935,
                    "duration": 0.07499999999998863
                },
                {
                    "name": "C#4",
                    "midi": 61,
                    "time": 389.6999999999845,
                    "velocity": 0.2992125984251969,
                    "duration": 0.14999999999997726
                },
                {
                    "name": "B4",
                    "midi": 71,
                    "time": 389.9999999999845,
                    "velocity": 0.25984251968503935,
                    "duration": 0.07499999999998863
                },
                {
                    "name": "F4",
                    "midi": 65,
                    "time": 389.9999999999845,
                    "velocity": 0.2204724409448819,
                    "duration": 0.07499999999998863
                },
                {
                    "name": "A#3",
                    "midi": 58,
                    "time": 390.2999999999845,
                    "velocity": 0.3464566929133858,
                    "duration": 0.14999999999997726
                },
                {
                    "name": "A#4",
                    "midi": 70,
                    "time": 390.59999999998445,
                    "velocity": 0.25984251968503935,
                    "duration": 0.07499999999998863
                },
                {
                    "name": "F#4",
                    "midi": 66,
                    "time": 390.59999999998445,
                    "velocity": 0.2204724409448819,
                    "duration": 0.07499999999998863
                },
                {
                    "name": "C#4",
                    "midi": 61,
                    "time": 390.89999999998446,
                    "velocity": 0.2992125984251969,
                    "duration": 0.14999999999997726
                },
                {
                    "name": "A#4",
                    "midi": 70,
                    "time": 391.1999999999844,
                    "velocity": 0.25984251968503935,
                    "duration": 0.07499999999998863
                },
                {
                    "name": "F#4",
                    "midi": 66,
                    "time": 391.1999999999844,
                    "velocity": 0.2204724409448819,
                    "duration": 0.07499999999998863
                },
                {
                    "name": "A#3",
                    "midi": 58,
                    "time": 391.4999999999844,
                    "velocity": 0.3464566929133858,
                    "duration": 0.14999999999997726
                },
                {
                    "name": "F#4",
                    "midi": 66,
                    "time": 391.7999999999844,
                    "velocity": 0.2204724409448819,
                    "duration": 0.07499999999998863
                },
                {
                    "name": "A#4",
                    "midi": 70,
                    "time": 391.7999999999844,
                    "velocity": 0.25984251968503935,
                    "duration": 0.07499999999998863
                },
                {
                    "name": "C#4",
                    "midi": 61,
                    "time": 392.0999999999844,
                    "velocity": 0.2992125984251969,
                    "duration": 0.14999999999997726
                },
                {
                    "name": "F#4",
                    "midi": 66,
                    "time": 392.39999999998435,
                    "velocity": 0.2204724409448819,
                    "duration": 0.07499999999998863
                },
                {
                    "name": "A#4",
                    "midi": 70,
                    "time": 392.39999999998435,
                    "velocity": 0.25984251968503935,
                    "duration": 0.07499999999998863
                },
                {
                    "name": "G#3",
                    "midi": 56,
                    "time": 392.69999999998436,
                    "velocity": 0.33070866141732286,
                    "duration": 0.14999999999997726
                },
                {
                    "name": "B3",
                    "midi": 59,
                    "time": 392.9999999999843,
                    "velocity": 0.2204724409448819,
                    "duration": 0.14999999999997726
                },
                {
                    "name": "F4",
                    "midi": 65,
                    "time": 392.9999999999843,
                    "velocity": 0.25984251968503935,
                    "duration": 0.14999999999997726
                },
                {
                    "name": "C#3",
                    "midi": 49,
                    "time": 393.29999999998427,
                    "velocity": 0.28346456692913385,
                    "duration": 0.14999999999997726
                },
                {
                    "name": "B3",
                    "midi": 59,
                    "time": 393.5999999999842,
                    "velocity": 0.2204724409448819,
                    "duration": 0.14999999999997726
                },
                {
                    "name": "C#4",
                    "midi": 61,
                    "time": 393.5999999999842,
                    "velocity": 0.25984251968503935,
                    "duration": 0.14999999999997726
                },
                {
                    "name": "G#3",
                    "midi": 56,
                    "time": 393.8999999999842,
                    "velocity": 0.3464566929133858,
                    "duration": 0.14999999999997726
                },
                {
                    "name": "B3",
                    "midi": 59,
                    "time": 394.19999999998413,
                    "velocity": 0.2204724409448819,
                    "duration": 0.14999999999997726
                },
                {
                    "name": "F4",
                    "midi": 65,
                    "time": 394.19999999998413,
                    "velocity": 0.25984251968503935,
                    "duration": 0.14999999999997726
                },
                {
                    "name": "C#3",
                    "midi": 49,
                    "time": 394.4999999999841,
                    "velocity": 0.2992125984251969,
                    "duration": 0.14999999999997726
                },
                {
                    "name": "B3",
                    "midi": 59,
                    "time": 394.79999999998404,
                    "velocity": 0.2204724409448819,
                    "duration": 0.14999999999997726
                },
                {
                    "name": "C#4",
                    "midi": 61,
                    "time": 394.79999999998404,
                    "velocity": 0.25984251968503935,
                    "duration": 0.14999999999997726
                },
                {
                    "name": "F#3",
                    "midi": 54,
                    "time": 395.099999999984,
                    "velocity": 0.33070866141732286,
                    "duration": 0.14999999999997726
                },
                {
                    "name": "F#4",
                    "midi": 66,
                    "time": 395.39999999998395,
                    "velocity": 0.25984251968503935,
                    "duration": 0.14999999999997726
                },
                {
                    "name": "A#3",
                    "midi": 58,
                    "time": 395.39999999998395,
                    "velocity": 0.2204724409448819,
                    "duration": 0.14999999999997726
                },
                {
                    "name": "C#3",
                    "midi": 49,
                    "time": 395.6999999999839,
                    "velocity": 0.28346456692913385,
                    "duration": 0.14999999999997726
                },
                {
                    "name": "A#3",
                    "midi": 58,
                    "time": 395.99999999998386,
                    "velocity": 0.2204724409448819,
                    "duration": 0.14999999999997726
                },
                {
                    "name": "C#4",
                    "midi": 61,
                    "time": 395.99999999998386,
                    "velocity": 0.25984251968503935,
                    "duration": 0.14999999999997726
                },
                {
                    "name": "F#3",
                    "midi": 54,
                    "time": 396.2999999999838,
                    "velocity": 0.3464566929133858,
                    "duration": 0.14999999999997726
                },
                {
                    "name": "F#4",
                    "midi": 66,
                    "time": 396.59999999998377,
                    "velocity": 0.25984251968503935,
                    "duration": 0.14999999999997726
                },
                {
                    "name": "A#3",
                    "midi": 58,
                    "time": 396.59999999998377,
                    "velocity": 0.2204724409448819,
                    "duration": 0.14999999999997726
                },
                {
                    "name": "C#3",
                    "midi": 49,
                    "time": 396.8999999999837,
                    "velocity": 0.2992125984251969,
                    "duration": 0.14999999999997726
                },
                {
                    "name": "A#3",
                    "midi": 58,
                    "time": 397.1999999999837,
                    "velocity": 0.2204724409448819,
                    "duration": 0.14999999999997726
                },
                {
                    "name": "C#4",
                    "midi": 61,
                    "time": 397.1999999999837,
                    "velocity": 0.25984251968503935,
                    "duration": 0.14999999999997726
                },
                {
                    "name": "G#3",
                    "midi": 56,
                    "time": 397.50374999998365,
                    "velocity": 0.3464566929133858,
                    "duration": 0.14999999999997726
                },
                {
                    "name": "F4",
                    "midi": 65,
                    "time": 397.79999999998364,
                    "velocity": 0.25984251968503935,
                    "duration": 0.07499999999998863
                },
                {
                    "name": "B3",
                    "midi": 59,
                    "time": 397.79999999998364,
                    "velocity": 0.2204724409448819,
                    "duration": 0.07499999999998863
                },
                {
                    "name": "C#3",
                    "midi": 49,
                    "time": 398.09999999998365,
                    "velocity": 0.2992125984251969,
                    "duration": 0.14999999999997726
                },
                {
                    "name": "C#4",
                    "midi": 61,
                    "time": 398.3999999999836,
                    "velocity": 0.25984251968503935,
                    "duration": 0.07499999999998863
                },
                {
                    "name": "B3",
                    "midi": 59,
                    "time": 398.3999999999836,
                    "velocity": 0.2204724409448819,
                    "duration": 0.07499999999998863
                },
                {
                    "name": "G#3",
                    "midi": 56,
                    "time": 398.6999999999836,
                    "velocity": 0.3464566929133858,
                    "duration": 0.14999999999997726
                },
                {
                    "name": "B3",
                    "midi": 59,
                    "time": 398.9999999999836,
                    "velocity": 0.2204724409448819,
                    "duration": 0.07499999999998863
                },
                {
                    "name": "F4",
                    "midi": 65,
                    "time": 398.9999999999836,
                    "velocity": 0.25984251968503935,
                    "duration": 0.07499999999998863
                },
                {
                    "name": "C#3",
                    "midi": 49,
                    "time": 399.2999999999836,
                    "velocity": 0.2992125984251969,
                    "duration": 0.14999999999997726
                },
                {
                    "name": "B3",
                    "midi": 59,
                    "time": 399.59999999998354,
                    "velocity": 0.2204724409448819,
                    "duration": 0.07499999999998863
                },
                {
                    "name": "C#4",
                    "midi": 61,
                    "time": 399.59999999998354,
                    "velocity": 0.25984251968503935,
                    "duration": 0.07499999999998863
                },
                {
                    "name": "F#3",
                    "midi": 54,
                    "time": 399.89999999998355,
                    "velocity": 0.3464566929133858,
                    "duration": 0.14999999999997726
                },
                {
                    "name": "A#3",
                    "midi": 58,
                    "time": 400.1999999999835,
                    "velocity": 0.2204724409448819,
                    "duration": 0.07499999999998863
                },
                {
                    "name": "F#4",
                    "midi": 66,
                    "time": 400.1999999999835,
                    "velocity": 0.25984251968503935,
                    "duration": 0.07499999999998863
                },
                {
                    "name": "C#3",
                    "midi": 49,
                    "time": 400.4999999999835,
                    "velocity": 0.2992125984251969,
                    "duration": 0.14999999999997726
                },
                {
                    "name": "C#4",
                    "midi": 61,
                    "time": 400.79999999998347,
                    "velocity": 0.25984251968503935,
                    "duration": 0.07499999999998863
                },
                {
                    "name": "A#3",
                    "midi": 58,
                    "time": 400.79999999998347,
                    "velocity": 0.2204724409448819,
                    "duration": 0.07499999999998863
                },
                {
                    "name": "F#3",
                    "midi": 54,
                    "time": 401.0999999999835,
                    "velocity": 0.3464566929133858,
                    "duration": 0.14999999999997726
                },
                {
                    "name": "F#4",
                    "midi": 66,
                    "time": 401.39999999998344,
                    "velocity": 0.25984251968503935,
                    "duration": 0.07499999999998863
                },
                {
                    "name": "A#3",
                    "midi": 58,
                    "time": 401.39999999998344,
                    "velocity": 0.2204724409448819,
                    "duration": 0.07499999999998863
                },
                {
                    "name": "C#3",
                    "midi": 49,
                    "time": 401.69999999998345,
                    "velocity": 0.2992125984251969,
                    "duration": 0.14999999999997726
                },
                {
                    "name": "A#3",
                    "midi": 58,
                    "time": 401.9999999999834,
                    "velocity": 0.2204724409448819,
                    "duration": 0.07499999999998863
                },
                {
                    "name": "C#4",
                    "midi": 61,
                    "time": 401.9999999999834,
                    "velocity": 0.25984251968503935,
                    "duration": 0.07499999999998863
                },
                {
                    "name": "D#3",
                    "midi": 51,
                    "time": 402.2999999999834,
                    "velocity": 0.33070866141732286,
                    "duration": 0.14999999999997726
                },
                {
                    "name": "F#4",
                    "midi": 66,
                    "time": 402.59999999998337,
                    "velocity": 0.25984251968503935,
                    "duration": 0.14999999999997726
                },
                {
                    "name": "C4",
                    "midi": 60,
                    "time": 402.59999999998337,
                    "velocity": 0.2204724409448819,
                    "duration": 0.14999999999997726
                },
                {
                    "name": "G#3",
                    "midi": 56,
                    "time": 402.8999999999833,
                    "velocity": 0.28346456692913385,
                    "duration": 0.14999999999997726
                },
                {
                    "name": "F#4",
                    "midi": 66,
                    "time": 403.1999999999833,
                    "velocity": 0.25984251968503935,
                    "duration": 0.14999999999997726
                },
                {
                    "name": "C4",
                    "midi": 60,
                    "time": 403.1999999999833,
                    "velocity": 0.2204724409448819,
                    "duration": 0.14999999999997726
                },
                {
                    "name": "C4",
                    "midi": 60,
                    "time": 403.79999999998324,
                    "velocity": 0.2204724409448819,
                    "duration": 0.14999999999997726
                },
                {
                    "name": "F#4",
                    "midi": 66,
                    "time": 403.79999999998324,
                    "velocity": 0.25984251968503935,
                    "duration": 0.14999999999997726
                },
                {
                    "name": "G#3",
                    "midi": 56,
                    "time": 404.0999999999832,
                    "velocity": 0.2992125984251969,
                    "duration": 0.14999999999997726
                },
                {
                    "name": "C4",
                    "midi": 60,
                    "time": 404.39999999998315,
                    "velocity": 0.2204724409448819,
                    "duration": 0.14999999999997726
                },
                {
                    "name": "F#4",
                    "midi": 66,
                    "time": 404.39999999998315,
                    "velocity": 0.25984251968503935,
                    "duration": 0.14999999999997726
                },
                {
                    "name": "F3",
                    "midi": 53,
                    "time": 404.6999999999831,
                    "velocity": 0.33070866141732286,
                    "duration": 0.14999999999997726
                },
                {
                    "name": "C#4",
                    "midi": 61,
                    "time": 404.99999999998306,
                    "velocity": 0.2204724409448819,
                    "duration": 0.14999999999997726
                },
                {
                    "name": "F4",
                    "midi": 65,
                    "time": 404.99999999998306,
                    "velocity": 0.25984251968503935,
                    "duration": 0.14999999999997726
                },
                {
                    "name": "G#3",
                    "midi": 56,
                    "time": 405.299999999983,
                    "velocity": 0.28346456692913385,
                    "duration": 0.14999999999997726
                },
                {
                    "name": "C#4",
                    "midi": 61,
                    "time": 405.59999999998297,
                    "velocity": 0.2204724409448819,
                    "duration": 0.14999999999997726
                },
                {
                    "name": "F4",
                    "midi": 65,
                    "time": 405.59999999998297,
                    "velocity": 0.25984251968503935,
                    "duration": 0.14999999999997726
                },
                {
                    "name": "F3",
                    "midi": 53,
                    "time": 405.8999999999829,
                    "velocity": 0.3464566929133858,
                    "duration": 0.14999999999997726
                },
                {
                    "name": "F4",
                    "midi": 65,
                    "time": 406.1999999999829,
                    "velocity": 0.25984251968503935,
                    "duration": 0.14999999999997726
                },
                {
                    "name": "C#4",
                    "midi": 61,
                    "time": 406.1999999999829,
                    "velocity": 0.2204724409448819,
                    "duration": 0.14999999999997726
                },
                {
                    "name": "F4",
                    "midi": 65,
                    "time": 406.79999999998284,
                    "velocity": 0.25984251968503935,
                    "duration": 0.14999999999997726
                },
                {
                    "name": "C#4",
                    "midi": 61,
                    "time": 406.79999999998284,
                    "velocity": 0.2204724409448819,
                    "duration": 0.14999999999997726
                },
                {
                    "name": "D#3",
                    "midi": 51,
                    "time": 407.0999999999828,
                    "velocity": 0.3464566929133858,
                    "duration": 0.14999999999997726
                },
                {
                    "name": "F#4",
                    "midi": 66,
                    "time": 407.39999999998275,
                    "velocity": 0.25984251968503935,
                    "duration": 0.07499999999998863
                },
                {
                    "name": "C4",
                    "midi": 60,
                    "time": 407.39999999998275,
                    "velocity": 0.2204724409448819,
                    "duration": 0.07499999999998863
                },
                {
                    "name": "G#3",
                    "midi": 56,
                    "time": 407.69999999998277,
                    "velocity": 0.2992125984251969,
                    "duration": 0.14999999999997726
                },
                {
                    "name": "C4",
                    "midi": 60,
                    "time": 407.9999999999827,
                    "velocity": 0.2204724409448819,
                    "duration": 0.07499999999998863
                },
                {
                    "name": "F#4",
                    "midi": 66,
                    "time": 407.9999999999827,
                    "velocity": 0.25984251968503935,
                    "duration": 0.07499999999998863
                },
                {
                    "name": "D#3",
                    "midi": 51,
                    "time": 408.29999999998273,
                    "velocity": 0.3464566929133858,
                    "duration": 0.14999999999997726
                },
                {
                    "name": "F#4",
                    "midi": 66,
                    "time": 408.5999999999827,
                    "velocity": 0.25984251968503935,
                    "duration": 0.07499999999998863
                },
                {
                    "name": "C4",
                    "midi": 60,
                    "time": 408.5999999999827,
                    "velocity": 0.2204724409448819,
                    "duration": 0.07499999999998863
                },
                {
                    "name": "G#3",
                    "midi": 56,
                    "time": 408.8999999999827,
                    "velocity": 0.2992125984251969,
                    "duration": 0.14999999999997726
                },
                {
                    "name": "C4",
                    "midi": 60,
                    "time": 409.19999999998265,
                    "velocity": 0.2204724409448819,
                    "duration": 0.07499999999998863
                },
                {
                    "name": "F#4",
                    "midi": 66,
                    "time": 409.19999999998265,
                    "velocity": 0.25984251968503935,
                    "duration": 0.07499999999998863
                },
                {
                    "name": "F3",
                    "midi": 53,
                    "time": 409.49999999998266,
                    "velocity": 0.3464566929133858,
                    "duration": 0.14999999999997726
                },
                {
                    "name": "C#4",
                    "midi": 61,
                    "time": 409.7999999999826,
                    "velocity": 0.2204724409448819,
                    "duration": 0.07499999999998863
                },
                {
                    "name": "F4",
                    "midi": 65,
                    "time": 409.7999999999826,
                    "velocity": 0.25984251968503935,
                    "duration": 0.07499999999998863
                },
                {
                    "name": "G#3",
                    "midi": 56,
                    "time": 410.09999999998263,
                    "velocity": 0.2992125984251969,
                    "duration": 0.14999999999997726
                },
                {
                    "name": "C#4",
                    "midi": 61,
                    "time": 410.3999999999826,
                    "velocity": 0.2204724409448819,
                    "duration": 0.07499999999998863
                },
                {
                    "name": "F4",
                    "midi": 65,
                    "time": 410.3999999999826,
                    "velocity": 0.25984251968503935,
                    "duration": 0.07499999999998863
                },
                {
                    "name": "F3",
                    "midi": 53,
                    "time": 410.6999999999826,
                    "velocity": 0.3464566929133858,
                    "duration": 0.14999999999997726
                },
                {
                    "name": "C#4",
                    "midi": 61,
                    "time": 410.99999999998255,
                    "velocity": 0.2204724409448819,
                    "duration": 0.07499999999998863
                },
                {
                    "name": "F4",
                    "midi": 65,
                    "time": 410.99999999998255,
                    "velocity": 0.25984251968503935,
                    "duration": 0.07499999999998863
                },
                {
                    "name": "G#3",
                    "midi": 56,
                    "time": 411.29999999998256,
                    "velocity": 0.2992125984251969,
                    "duration": 0.14999999999997726
                },
                {
                    "name": "F4",
                    "midi": 65,
                    "time": 411.5999999999825,
                    "velocity": 0.25984251968503935,
                    "duration": 0.07499999999998863
                },
                {
                    "name": "C#4",
                    "midi": 61,
                    "time": 411.5999999999825,
                    "velocity": 0.2204724409448819,
                    "duration": 0.07499999999998863
                },
                {
                    "name": "D#3",
                    "midi": 51,
                    "time": 411.8999999999825,
                    "velocity": 0.36220472440944884,
                    "duration": 0.14999999999997726
                },
                {
                    "name": "C4",
                    "midi": 60,
                    "time": 412.1999999999825,
                    "velocity": 0.23622047244094488,
                    "duration": 0.14999999999997726
                },
                {
                    "name": "G#3",
                    "midi": 56,
                    "time": 412.1999999999825,
                    "velocity": 0.23622047244094488,
                    "duration": 0.14999999999997726
                },
                {
                    "name": "F#4",
                    "midi": 66,
                    "time": 412.1999999999825,
                    "velocity": 0.28346456692913385,
                    "duration": 0.14999999999997726
                },
                {
                    "name": "G#2",
                    "midi": 44,
                    "time": 412.49999999998244,
                    "velocity": 0.30708661417322836,
                    "duration": 0.14999999999997726
                },
                {
                    "name": "C4",
                    "midi": 60,
                    "time": 412.7999999999824,
                    "velocity": 0.23622047244094488,
                    "duration": 0.14999999999997726
                },
                {
                    "name": "G#3",
                    "midi": 56,
                    "time": 412.7999999999824,
                    "velocity": 0.23622047244094488,
                    "duration": 0.14999999999997726
                },
                {
                    "name": "F#4",
                    "midi": 66,
                    "time": 412.7999999999824,
                    "velocity": 0.28346456692913385,
                    "duration": 0.14999999999997726
                },
                {
                    "name": "D#3",
                    "midi": 51,
                    "time": 413.09999999998234,
                    "velocity": 0.3779527559055118,
                    "duration": 0.14999999999997726
                },
                {
                    "name": "F#4",
                    "midi": 66,
                    "time": 413.3999999999823,
                    "velocity": 0.28346456692913385,
                    "duration": 0.14999999999997726
                },
                {
                    "name": "G#3",
                    "midi": 56,
                    "time": 413.3999999999823,
                    "velocity": 0.23622047244094488,
                    "duration": 0.14999999999997726
                },
                {
                    "name": "C4",
                    "midi": 60,
                    "time": 413.3999999999823,
                    "velocity": 0.23622047244094488,
                    "duration": 0.14999999999997726
                },
                {
                    "name": "G#2",
                    "midi": 44,
                    "time": 413.69999999998225,
                    "velocity": 0.3228346456692913,
                    "duration": 0.14999999999997726
                },
                {
                    "name": "C4",
                    "midi": 60,
                    "time": 413.9999999999822,
                    "velocity": 0.23622047244094488,
                    "duration": 0.14999999999997726
                },
                {
                    "name": "F#4",
                    "midi": 66,
                    "time": 413.9999999999822,
                    "velocity": 0.28346456692913385,
                    "duration": 0.14999999999997726
                },
                {
                    "name": "G#3",
                    "midi": 56,
                    "time": 413.9999999999822,
                    "velocity": 0.23622047244094488,
                    "duration": 0.14999999999997726
                },
                {
                    "name": "C#3",
                    "midi": 49,
                    "time": 414.29999999998216,
                    "velocity": 0.36220472440944884,
                    "duration": 0.14999999999997726
                },
                {
                    "name": "G#3",
                    "midi": 56,
                    "time": 414.5999999999821,
                    "velocity": 0.23622047244094488,
                    "duration": 0.14999999999997726
                },
                {
                    "name": "F4",
                    "midi": 65,
                    "time": 414.5999999999821,
                    "velocity": 0.28346456692913385,
                    "duration": 0.14999999999997726
                },
                {
                    "name": "C#4",
                    "midi": 61,
                    "time": 414.5999999999821,
                    "velocity": 0.23622047244094488,
                    "duration": 0.14999999999997726
                },
                {
                    "name": "G#2",
                    "midi": 44,
                    "time": 414.8999999999821,
                    "velocity": 0.30708661417322836,
                    "duration": 0.14999999999997726
                },
                {
                    "name": "C#4",
                    "midi": 61,
                    "time": 415.199999999982,
                    "velocity": 0.23622047244094488,
                    "duration": 0.14999999999997726
                },
                {
                    "name": "G#3",
                    "midi": 56,
                    "time": 415.199999999982,
                    "velocity": 0.23622047244094488,
                    "duration": 0.14999999999997726
                },
                {
                    "name": "F4",
                    "midi": 65,
                    "time": 415.199999999982,
                    "velocity": 0.28346456692913385,
                    "duration": 0.14999999999997726
                },
                {
                    "name": "C#3",
                    "midi": 49,
                    "time": 415.499999999982,
                    "velocity": 0.3779527559055118,
                    "duration": 0.14999999999997726
                },
                {
                    "name": "G#3",
                    "midi": 56,
                    "time": 415.79999999998194,
                    "velocity": 0.23622047244094488,
                    "duration": 0.14999999999997726
                },
                {
                    "name": "F4",
                    "midi": 65,
                    "time": 415.79999999998194,
                    "velocity": 0.28346456692913385,
                    "duration": 0.14999999999997726
                },
                {
                    "name": "C#4",
                    "midi": 61,
                    "time": 415.79999999998194,
                    "velocity": 0.23622047244094488,
                    "duration": 0.14999999999997726
                },
                {
                    "name": "G#2",
                    "midi": 44,
                    "time": 416.0999999999819,
                    "velocity": 0.3228346456692913,
                    "duration": 0.14999999999997726
                },
                {
                    "name": "C#4",
                    "midi": 61,
                    "time": 416.39999999998184,
                    "velocity": 0.23622047244094488,
                    "duration": 0.14999999999997726
                },
                {
                    "name": "G#3",
                    "midi": 56,
                    "time": 416.39999999998184,
                    "velocity": 0.23622047244094488,
                    "duration": 0.14999999999997726
                },
                {
                    "name": "F4",
                    "midi": 65,
                    "time": 416.39999999998184,
                    "velocity": 0.28346456692913385,
                    "duration": 0.14999999999997726
                },
                {
                    "name": "D#3",
                    "midi": 51,
                    "time": 416.7037499999818,
                    "velocity": 0.3779527559055118,
                    "duration": 0.14999999999997726
                },
                {
                    "name": "F#4",
                    "midi": 66,
                    "time": 416.9999999999818,
                    "velocity": 0.28346456692913385,
                    "duration": 0.07499999999998863
                },
                {
                    "name": "C4",
                    "midi": 60,
                    "time": 416.9999999999818,
                    "velocity": 0.23622047244094488,
                    "duration": 0.07499999999998863
                },
                {
                    "name": "G#3",
                    "midi": 56,
                    "time": 416.9999999999818,
                    "velocity": 0.23622047244094488,
                    "duration": 0.07499999999998863
                },
                {
                    "name": "G#2",
                    "midi": 44,
                    "time": 417.2999999999818,
                    "velocity": 0.3228346456692913,
                    "duration": 0.14999999999997726
                },
                {
                    "name": "C4",
                    "midi": 60,
                    "time": 417.5999999999818,
                    "velocity": 0.23622047244094488,
                    "duration": 0.07499999999998863
                },
                {
                    "name": "G#3",
                    "midi": 56,
                    "time": 417.5999999999818,
                    "velocity": 0.23622047244094488,
                    "duration": 0.07499999999998863
                },
                {
                    "name": "F#4",
                    "midi": 66,
                    "time": 417.5999999999818,
                    "velocity": 0.28346456692913385,
                    "duration": 0.07499999999998863
                },
                {
                    "name": "D#3",
                    "midi": 51,
                    "time": 417.8999999999818,
                    "velocity": 0.3779527559055118,
                    "duration": 0.14999999999997726
                },
                {
                    "name": "G#3",
                    "midi": 56,
                    "time": 418.19999999998174,
                    "velocity": 0.23622047244094488,
                    "duration": 0.07499999999998863
                },
                {
                    "name": "C4",
                    "midi": 60,
                    "time": 418.19999999998174,
                    "velocity": 0.23622047244094488,
                    "duration": 0.07499999999998863
                },
                {
                    "name": "F#4",
                    "midi": 66,
                    "time": 418.19999999998174,
                    "velocity": 0.28346456692913385,
                    "duration": 0.07499999999998863
                },
                {
                    "name": "G#2",
                    "midi": 44,
                    "time": 418.49999999998175,
                    "velocity": 0.3228346456692913,
                    "duration": 0.14999999999997726
                },
                {
                    "name": "F#4",
                    "midi": 66,
                    "time": 418.7999999999817,
                    "velocity": 0.28346456692913385,
                    "duration": 0.07499999999998863
                },
                {
                    "name": "C4",
                    "midi": 60,
                    "time": 418.7999999999817,
                    "velocity": 0.23622047244094488,
                    "duration": 0.07499999999998863
                },
                {
                    "name": "G#3",
                    "midi": 56,
                    "time": 418.7999999999817,
                    "velocity": 0.23622047244094488,
                    "duration": 0.07499999999998863
                },
                {
                    "name": "C#3",
                    "midi": 49,
                    "time": 419.0999999999817,
                    "velocity": 0.3779527559055118,
                    "duration": 0.14999999999997726
                },
                {
                    "name": "F4",
                    "midi": 65,
                    "time": 419.3999999999817,
                    "velocity": 0.28346456692913385,
                    "duration": 0.07499999999998863
                },
                {
                    "name": "G#3",
                    "midi": 56,
                    "time": 419.3999999999817,
                    "velocity": 0.23622047244094488,
                    "duration": 0.07499999999998863
                },
                {
                    "name": "C#4",
                    "midi": 61,
                    "time": 419.3999999999817,
                    "velocity": 0.23622047244094488,
                    "duration": 0.07499999999998863
                },
                {
                    "name": "G#2",
                    "midi": 44,
                    "time": 419.6999999999817,
                    "velocity": 0.3228346456692913,
                    "duration": 0.14999999999997726
                },
                {
                    "name": "F4",
                    "midi": 65,
                    "time": 419.99999999998164,
                    "velocity": 0.28346456692913385,
                    "duration": 0.07499999999998863
                },
                {
                    "name": "C#4",
                    "midi": 61,
                    "time": 419.99999999998164,
                    "velocity": 0.23622047244094488,
                    "duration": 0.07499999999998863
                },
                {
                    "name": "G#3",
                    "midi": 56,
                    "time": 419.99999999998164,
                    "velocity": 0.23622047244094488,
                    "duration": 0.07499999999998863
                },
                {
                    "name": "C#3",
                    "midi": 49,
                    "time": 420.29999999998165,
                    "velocity": 0.3779527559055118,
                    "duration": 0.14999999999997726
                },
                {
                    "name": "F4",
                    "midi": 65,
                    "time": 420.5999999999816,
                    "velocity": 0.28346456692913385,
                    "duration": 0.07499999999998863
                },
                {
                    "name": "C#4",
                    "midi": 61,
                    "time": 420.5999999999816,
                    "velocity": 0.23622047244094488,
                    "duration": 0.07499999999998863
                },
                {
                    "name": "G#3",
                    "midi": 56,
                    "time": 420.5999999999816,
                    "velocity": 0.23622047244094488,
                    "duration": 0.07499999999998863
                },
                {
                    "name": "G#2",
                    "midi": 44,
                    "time": 420.8999999999816,
                    "velocity": 0.3228346456692913,
                    "duration": 0.14999999999997726
                },
                {
                    "name": "F4",
                    "midi": 65,
                    "time": 421.19999999998157,
                    "velocity": 0.28346456692913385,
                    "duration": 0.30000000000001137
                },
                {
                    "name": "G#3",
                    "midi": 56,
                    "time": 421.19999999998157,
                    "velocity": 0.23622047244094488,
                    "duration": 0.07499999999998863
                },
                {
                    "name": "C#4",
                    "midi": 61,
                    "time": 421.19999999998157,
                    "velocity": 0.23622047244094488,
                    "duration": 0.07499999999998863
                },
                {
                    "name": "D#3",
                    "midi": 51,
                    "time": 421.4999999999816,
                    "velocity": 0.4094488188976378,
                    "duration": 0.14999999999997726
                },
                {
                    "name": "F#4",
                    "midi": 66,
                    "time": 421.79999999998154,
                    "velocity": 0.3228346456692913,
                    "duration": 0.14999999999997726
                },
                {
                    "name": "C4",
                    "midi": 60,
                    "time": 421.79999999998154,
                    "velocity": 0.2677165354330709,
                    "duration": 0.14999999999997726
                },
                {
                    "name": "G#3",
                    "midi": 56,
                    "time": 421.79999999998154,
                    "velocity": 0.2677165354330709,
                    "duration": 0.14999999999997726
                },
                {
                    "name": "G#2",
                    "midi": 44,
                    "time": 422.0999999999815,
                    "velocity": 0.3464566929133858,
                    "duration": 0.14999999999997726
                },
                {
                    "name": "C4",
                    "midi": 60,
                    "time": 422.39999999998145,
                    "velocity": 0.2677165354330709,
                    "duration": 0.14999999999997726
                },
                {
                    "name": "G#3",
                    "midi": 56,
                    "time": 422.39999999998145,
                    "velocity": 0.2677165354330709,
                    "duration": 0.14999999999997726
                },
                {
                    "name": "F#4",
                    "midi": 66,
                    "time": 422.39999999998145,
                    "velocity": 0.3228346456692913,
                    "duration": 0.14999999999997726
                },
                {
                    "name": "D#3",
                    "midi": 51,
                    "time": 422.6999999999814,
                    "velocity": 0.4330708661417323,
                    "duration": 0.14999999999997726
                },
                {
                    "name": "F#4",
                    "midi": 66,
                    "time": 422.99999999998136,
                    "velocity": 0.3228346456692913,
                    "duration": 0.14999999999997726
                },
                {
                    "name": "C4",
                    "midi": 60,
                    "time": 422.99999999998136,
                    "velocity": 0.2677165354330709,
                    "duration": 0.14999999999997726
                },
                {
                    "name": "G#3",
                    "midi": 56,
                    "time": 422.99999999998136,
                    "velocity": 0.2677165354330709,
                    "duration": 0.14999999999997726
                },
                {
                    "name": "G#2",
                    "midi": 44,
                    "time": 423.2999999999813,
                    "velocity": 0.3700787401574803,
                    "duration": 0.14999999999997726
                },
                {
                    "name": "C4",
                    "midi": 60,
                    "time": 423.59999999998126,
                    "velocity": 0.2677165354330709,
                    "duration": 0.14999999999997726
                },
                {
                    "name": "F#4",
                    "midi": 66,
                    "time": 423.59999999998126,
                    "velocity": 0.3228346456692913,
                    "duration": 0.14999999999997726
                },
                {
                    "name": "G#3",
                    "midi": 56,
                    "time": 423.59999999998126,
                    "velocity": 0.2677165354330709,
                    "duration": 0.14999999999997726
                },
                {
                    "name": "C#3",
                    "midi": 49,
                    "time": 423.8999999999812,
                    "velocity": 0.44881889763779526,
                    "duration": 0.14999999999997726
                },
                {
                    "name": "F4",
                    "midi": 65,
                    "time": 424.1999999999812,
                    "velocity": 0.3543307086614173,
                    "duration": 0.14999999999997726
                },
                {
                    "name": "C#4",
                    "midi": 61,
                    "time": 424.1999999999812,
                    "velocity": 0.29133858267716534,
                    "duration": 0.14999999999997726
                },
                {
                    "name": "G#3",
                    "midi": 56,
                    "time": 424.1999999999812,
                    "velocity": 0.29133858267716534,
                    "duration": 0.14999999999997726
                },
                {
                    "name": "G#2",
                    "midi": 44,
                    "time": 424.4999999999811,
                    "velocity": 0.3779527559055118,
                    "duration": 0.14999999999997726
                },
                {
                    "name": "G#3",
                    "midi": 56,
                    "time": 424.7999999999811,
                    "velocity": 0.29133858267716534,
                    "duration": 0.14999999999997726
                },
                {
                    "name": "F4",
                    "midi": 65,
                    "time": 424.7999999999811,
                    "velocity": 0.3543307086614173,
                    "duration": 0.14999999999997726
                },
                {
                    "name": "C#4",
                    "midi": 61,
                    "time": 424.7999999999811,
                    "velocity": 0.29133858267716534,
                    "duration": 0.14999999999997726
                },
                {
                    "name": "C#3",
                    "midi": 49,
                    "time": 425.09999999998104,
                    "velocity": 0.47244094488188976,
                    "duration": 0.14999999999997726
                },
                {
                    "name": "C#4",
                    "midi": 61,
                    "time": 425.399999999981,
                    "velocity": 0.29133858267716534,
                    "duration": 0.14999999999997726
                },
                {
                    "name": "G#3",
                    "midi": 56,
                    "time": 425.399999999981,
                    "velocity": 0.29133858267716534,
                    "duration": 0.14999999999997726
                },
                {
                    "name": "F4",
                    "midi": 65,
                    "time": 425.399999999981,
                    "velocity": 0.3543307086614173,
                    "duration": 0.14999999999997726
                },
                {
                    "name": "G#2",
                    "midi": 44,
                    "time": 425.69999999998095,
                    "velocity": 0.4015748031496063,
                    "duration": 0.14999999999997726
                },
                {
                    "name": "G#3",
                    "midi": 56,
                    "time": 425.9999999999809,
                    "velocity": 0.29133858267716534,
                    "duration": 0.14999999999997726
                },
                {
                    "name": "F4",
                    "midi": 65,
                    "time": 425.9999999999809,
                    "velocity": 0.3543307086614173,
                    "duration": 0.14999999999997726
                },
                {
                    "name": "C#4",
                    "midi": 61,
                    "time": 425.9999999999809,
                    "velocity": 0.29133858267716534,
                    "duration": 0.14999999999997726
                },
                {
                    "name": "D#3",
                    "midi": 51,
                    "time": 426.3037499999809,
                    "velocity": 0.47244094488188976,
                    "duration": 0.14999999999997726
                },
                {
                    "name": "C4",
                    "midi": 60,
                    "time": 426.59999999998087,
                    "velocity": 0.29133858267716534,
                    "duration": 0.07499999999998863
                },
                {
                    "name": "G#3",
                    "midi": 56,
                    "time": 426.59999999998087,
                    "velocity": 0.29133858267716534,
                    "duration": 0.07499999999998863
                },
                {
                    "name": "F#4",
                    "midi": 66,
                    "time": 426.59999999998087,
                    "velocity": 0.3543307086614173,
                    "duration": 0.07499999999998863
                },
                {
                    "name": "G#2",
                    "midi": 44,
                    "time": 426.8999999999809,
                    "velocity": 0.4015748031496063,
                    "duration": 0.14999999999997726
                },
                {
                    "name": "C4",
                    "midi": 60,
                    "time": 427.19999999998083,
                    "velocity": 0.29133858267716534,
                    "duration": 0.07499999999998863
                },
                {
                    "name": "F#4",
                    "midi": 66,
                    "time": 427.19999999998083,
                    "velocity": 0.3543307086614173,
                    "duration": 0.07499999999998863
                },
                {
                    "name": "G#3",
                    "midi": 56,
                    "time": 427.19999999998083,
                    "velocity": 0.29133858267716534,
                    "duration": 0.07499999999998863
                },
                {
                    "name": "D#3",
                    "midi": 51,
                    "time": 427.49999999998084,
                    "velocity": 0.47244094488188976,
                    "duration": 0.14999999999997726
                },
                {
                    "name": "F#4",
                    "midi": 66,
                    "time": 427.7999999999808,
                    "velocity": 0.3543307086614173,
                    "duration": 0.07499999999998863
                },
                {
                    "name": "C4",
                    "midi": 60,
                    "time": 427.7999999999808,
                    "velocity": 0.29133858267716534,
                    "duration": 0.07499999999998863
                },
                {
                    "name": "G#3",
                    "midi": 56,
                    "time": 427.7999999999808,
                    "velocity": 0.29133858267716534,
                    "duration": 0.07499999999998863
                },
                {
                    "name": "G#2",
                    "midi": 44,
                    "time": 428.0999999999808,
                    "velocity": 0.4015748031496063,
                    "duration": 0.14999999999997726
                },
                {
                    "name": "F#4",
                    "midi": 66,
                    "time": 428.39999999998076,
                    "velocity": 0.3543307086614173,
                    "duration": 0.07499999999998863
                },
                {
                    "name": "G#3",
                    "midi": 56,
                    "time": 428.39999999998076,
                    "velocity": 0.29133858267716534,
                    "duration": 0.07499999999998863
                },
                {
                    "name": "C4",
                    "midi": 60,
                    "time": 428.39999999998076,
                    "velocity": 0.29133858267716534,
                    "duration": 0.07499999999998863
                },
                {
                    "name": "C#4",
                    "midi": 61,
                    "time": 428.6999999999808,
                    "velocity": 0.3937007874015748,
                    "duration": 0.30000000000001137
                },
                {
                    "name": "C#3",
                    "midi": 49,
                    "time": 428.6999999999808,
                    "velocity": 0.33070866141732286,
                    "duration": 0.30000000000001137
                },
                {
                    "name": "C4",
                    "midi": 60,
                    "time": 428.9999999999808,
                    "velocity": 0.41732283464566927,
                    "duration": 0.30000000000001137
                },
                {
                    "name": "C3",
                    "midi": 48,
                    "time": 428.9999999999808,
                    "velocity": 0.3543307086614173,
                    "duration": 0.30000000000001137
                },
                {
                    "name": "B2",
                    "midi": 47,
                    "time": 429.2999999999808,
                    "velocity": 0.3700787401574803,
                    "duration": 0.30000000000001137
                },
                {
                    "name": "B3",
                    "midi": 59,
                    "time": 429.2999999999808,
                    "velocity": 0.4409448818897638,
                    "duration": 0.30000000000001137
                },
                {
                    "name": "A#3",
                    "midi": 58,
                    "time": 429.5999999999808,
                    "velocity": 0.4645669291338583,
                    "duration": 0.30000000000001137
                },
                {
                    "name": "A#2",
                    "midi": 46,
                    "time": 429.5999999999808,
                    "velocity": 0.3858267716535433,
                    "duration": 0.30000000000001137
                },
                {
                    "name": "A2",
                    "midi": 45,
                    "time": 429.8999999999808,
                    "velocity": 0.4094488188976378,
                    "duration": 0.30000000000001137
                },
                {
                    "name": "A3",
                    "midi": 57,
                    "time": 429.8999999999808,
                    "velocity": 0.4881889763779528,
                    "duration": 0.30000000000001137
                },
                {
                    "name": "A#3",
                    "midi": 58,
                    "time": 430.19999999998083,
                    "velocity": 0.4566929133858268,
                    "duration": 0.30000000000001137
                },
                {
                    "name": "A#2",
                    "midi": 46,
                    "time": 430.19999999998083,
                    "velocity": 0.3858267716535433,
                    "duration": 0.30000000000001137
                },
                {
                    "name": "B3",
                    "midi": 59,
                    "time": 430.49999999998084,
                    "velocity": 0.41732283464566927,
                    "duration": 0.30000000000001137
                },
                {
                    "name": "B2",
                    "midi": 47,
                    "time": 430.49999999998084,
                    "velocity": 0.3543307086614173,
                    "duration": 0.30000000000001137
                },
                {
                    "name": "C3",
                    "midi": 48,
                    "time": 430.79999999998086,
                    "velocity": 0.3228346456692913,
                    "duration": 0.30000000000001137
                },
                {
                    "name": "C4",
                    "midi": 60,
                    "time": 430.79999999998086,
                    "velocity": 0.3858267716535433,
                    "duration": 0.30000000000001137
                },
                {
                    "name": "B3",
                    "midi": 59,
                    "time": 431.09999999998087,
                    "velocity": 0.3937007874015748,
                    "duration": 0.30000000000001137
                },
                {
                    "name": "B2",
                    "midi": 47,
                    "time": 431.09999999998087,
                    "velocity": 0.33070866141732286,
                    "duration": 0.30000000000001137
                },
                {
                    "name": "A#2",
                    "midi": 46,
                    "time": 431.3999999999809,
                    "velocity": 0.3543307086614173,
                    "duration": 0.30000000000001137
                },
                {
                    "name": "A#3",
                    "midi": 58,
                    "time": 431.3999999999809,
                    "velocity": 0.41732283464566927,
                    "duration": 0.30000000000001137
                },
                {
                    "name": "A3",
                    "midi": 57,
                    "time": 431.6999999999809,
                    "velocity": 0.4409448818897638,
                    "duration": 0.30000000000001137
                },
                {
                    "name": "A2",
                    "midi": 45,
                    "time": 431.6999999999809,
                    "velocity": 0.3700787401574803,
                    "duration": 0.30000000000001137
                },
                {
                    "name": "G#3",
                    "midi": 56,
                    "time": 431.9999999999809,
                    "velocity": 0.4645669291338583,
                    "duration": 0.30000000000001137
                },
                {
                    "name": "G#2",
                    "midi": 44,
                    "time": 431.9999999999809,
                    "velocity": 0.3858267716535433,
                    "duration": 0.30000000000001137
                },
                {
                    "name": "G2",
                    "midi": 43,
                    "time": 432.2999999999809,
                    "velocity": 0.4094488188976378,
                    "duration": 0.30000000000001137
                },
                {
                    "name": "G3",
                    "midi": 55,
                    "time": 432.2999999999809,
                    "velocity": 0.4881889763779528,
                    "duration": 0.30000000000001137
                },
                {
                    "name": "G#3",
                    "midi": 56,
                    "time": 432.5999999999809,
                    "velocity": 0.4566929133858268,
                    "duration": 0.30000000000001137
                },
                {
                    "name": "G#2",
                    "midi": 44,
                    "time": 432.5999999999809,
                    "velocity": 0.3858267716535433,
                    "duration": 0.30000000000001137
                },
                {
                    "name": "A3",
                    "midi": 57,
                    "time": 432.89999999998093,
                    "velocity": 0.4251968503937008,
                    "duration": 0.30000000000001137
                },
                {
                    "name": "A2",
                    "midi": 45,
                    "time": 432.89999999998093,
                    "velocity": 0.3543307086614173,
                    "duration": 0.30000000000001137
                },
                {
                    "name": "A#2",
                    "midi": 46,
                    "time": 433.19999999998095,
                    "velocity": 0.3228346456692913,
                    "duration": 0.30000000000001137
                },
                {
                    "name": "A#3",
                    "midi": 58,
                    "time": 433.19999999998095,
                    "velocity": 0.3858267716535433,
                    "duration": 0.30000000000001137
                },
                {
                    "name": "A3",
                    "midi": 57,
                    "time": 433.49999999998096,
                    "velocity": 0.4015748031496063,
                    "duration": 0.30000000000001137
                },
                {
                    "name": "A2",
                    "midi": 45,
                    "time": 433.49999999998096,
                    "velocity": 0.33070866141732286,
                    "duration": 0.30000000000001137
                },
                {
                    "name": "G#3",
                    "midi": 56,
                    "time": 433.79999999998097,
                    "velocity": 0.4251968503937008,
                    "duration": 0.30000000000001137
                },
                {
                    "name": "G#2",
                    "midi": 44,
                    "time": 433.79999999998097,
                    "velocity": 0.3543307086614173,
                    "duration": 0.30000000000001137
                },
                {
                    "name": "G2",
                    "midi": 43,
                    "time": 434.099999999981,
                    "velocity": 0.3700787401574803,
                    "duration": 0.30000000000001137
                },
                {
                    "name": "G3",
                    "midi": 55,
                    "time": 434.099999999981,
                    "velocity": 0.44881889763779526,
                    "duration": 0.30000000000001137
                },
                {
                    "name": "F#3",
                    "midi": 54,
                    "time": 434.399999999981,
                    "velocity": 0.47244094488188976,
                    "duration": 0.30000000000001137
                },
                {
                    "name": "F#2",
                    "midi": 42,
                    "time": 434.399999999981,
                    "velocity": 0.3858267716535433,
                    "duration": 0.30000000000001137
                },
                {
                    "name": "F2",
                    "midi": 41,
                    "time": 434.699999999981,
                    "velocity": 0.41732283464566927,
                    "duration": 0.30000000000001137
                },
                {
                    "name": "F3",
                    "midi": 53,
                    "time": 434.699999999981,
                    "velocity": 0.49606299212598426,
                    "duration": 0.30000000000001137
                },
                {
                    "name": "F#2",
                    "midi": 42,
                    "time": 434.999999999981,
                    "velocity": 0.3937007874015748,
                    "duration": 0.30000000000001137
                },
                {
                    "name": "F#3",
                    "midi": 54,
                    "time": 434.999999999981,
                    "velocity": 0.4645669291338583,
                    "duration": 0.30000000000001137
                },
                {
                    "name": "G2",
                    "midi": 43,
                    "time": 435.299999999981,
                    "velocity": 0.36220472440944884,
                    "duration": 0.30000000000001137
                },
                {
                    "name": "G3",
                    "midi": 55,
                    "time": 435.299999999981,
                    "velocity": 0.4251968503937008,
                    "duration": 0.30000000000001137
                },
                {
                    "name": "G#2",
                    "midi": 44,
                    "time": 435.59999999998104,
                    "velocity": 0.33070866141732286,
                    "duration": 0.30000000000001137
                },
                {
                    "name": "G#3",
                    "midi": 56,
                    "time": 435.59999999998104,
                    "velocity": 0.3937007874015748,
                    "duration": 0.30000000000001137
                },
                {
                    "name": "G3",
                    "midi": 55,
                    "time": 435.89999999998105,
                    "velocity": 0.4015748031496063,
                    "duration": 0.30000000000001137
                },
                {
                    "name": "G2",
                    "midi": 43,
                    "time": 435.89999999998105,
                    "velocity": 0.33858267716535434,
                    "duration": 0.30000000000001137
                },
                {
                    "name": "F#3",
                    "midi": 54,
                    "time": 436.19999999998106,
                    "velocity": 0.41732283464566927,
                    "duration": 0.30000000000001137
                },
                {
                    "name": "F#2",
                    "midi": 42,
                    "time": 436.19999999998106,
                    "velocity": 0.3543307086614173,
                    "duration": 0.30000000000001137
                },
                {
                    "name": "F2",
                    "midi": 41,
                    "time": 436.49999999998107,
                    "velocity": 0.3700787401574803,
                    "duration": 0.30000000000001137
                },
                {
                    "name": "F3",
                    "midi": 53,
                    "time": 436.49999999998107,
                    "velocity": 0.4330708661417323,
                    "duration": 0.30000000000001137
                },
                {
                    "name": "E2",
                    "midi": 40,
                    "time": 436.7999999999811,
                    "velocity": 0.3779527559055118,
                    "duration": 0.30000000000001137
                },
                {
                    "name": "E3",
                    "midi": 52,
                    "time": 436.7999999999811,
                    "velocity": 0.4566929133858268,
                    "duration": 0.30000000000001137
                },
                {
                    "name": "D#3",
                    "midi": 51,
                    "time": 437.0999999999811,
                    "velocity": 0.48031496062992124,
                    "duration": 0.30000000000001137
                },
                {
                    "name": "D#2",
                    "midi": 39,
                    "time": 437.0999999999811,
                    "velocity": 0.3937007874015748,
                    "duration": 0.30000000000001137
                },
                {
                    "name": "D3",
                    "midi": 50,
                    "time": 437.3999999999811,
                    "velocity": 0.5039370078740157,
                    "duration": 0.30000000000001137
                },
                {
                    "name": "D2",
                    "midi": 38,
                    "time": 437.3999999999811,
                    "velocity": 0.4251968503937008,
                    "duration": 0.30000000000001137
                },
                {
                    "name": "C#3",
                    "midi": 49,
                    "time": 437.6999999999811,
                    "velocity": 0.5196850393700787,
                    "duration": 0.30000000000001137
                },
                {
                    "name": "C#2",
                    "midi": 37,
                    "time": 437.6999999999811,
                    "velocity": 0.4330708661417323,
                    "duration": 0.30000000000001137
                },
                {
                    "name": "C2",
                    "midi": 36,
                    "time": 437.9999999999811,
                    "velocity": 0.4566929133858268,
                    "duration": 0.30000000000001137
                },
                {
                    "name": "C3",
                    "midi": 48,
                    "time": 437.9999999999811,
                    "velocity": 0.5354330708661418,
                    "duration": 0.30000000000001137
                },
                {
                    "name": "B1",
                    "midi": 35,
                    "time": 438.29999999998114,
                    "velocity": 0.48031496062992124,
                    "duration": 0.30000000000001137
                },
                {
                    "name": "B2",
                    "midi": 47,
                    "time": 438.29999999998114,
                    "velocity": 0.5590551181102362,
                    "duration": 0.30000000000001137
                },
                {
                    "name": "A#2",
                    "midi": 46,
                    "time": 438.59999999998115,
                    "velocity": 0.5905511811023622,
                    "duration": 0.30000000000001137
                },
                {
                    "name": "A#1",
                    "midi": 34,
                    "time": 438.59999999998115,
                    "velocity": 0.49606299212598426,
                    "duration": 0.30000000000001137
                },
                {
                    "name": "A1",
                    "midi": 33,
                    "time": 438.89999999998116,
                    "velocity": 0.5196850393700787,
                    "duration": 0.30000000000001137
                },
                {
                    "name": "A2",
                    "midi": 45,
                    "time": 438.89999999998116,
                    "velocity": 0.6141732283464567,
                    "duration": 0.30000000000001137
                },
                {
                    "name": "A#2",
                    "midi": 46,
                    "time": 439.1999999999812,
                    "velocity": 0.5984251968503937,
                    "duration": 0.30000000000001137
                },
                {
                    "name": "A#1",
                    "midi": 34,
                    "time": 439.1999999999812,
                    "velocity": 0.5039370078740157,
                    "duration": 0.30000000000001137
                },
                {
                    "name": "B1",
                    "midi": 35,
                    "time": 439.4999999999812,
                    "velocity": 0.5039370078740157,
                    "duration": 0.30000000000001137
                },
                {
                    "name": "B2",
                    "midi": 47,
                    "time": 439.4999999999812,
                    "velocity": 0.5905511811023622,
                    "duration": 0.30000000000001137
                },
                {
                    "name": "C2",
                    "midi": 36,
                    "time": 439.7999999999812,
                    "velocity": 0.49606299212598426,
                    "duration": 0.30000000000001137
                },
                {
                    "name": "C3",
                    "midi": 48,
                    "time": 439.7999999999812,
                    "velocity": 0.5748031496062992,
                    "duration": 0.30000000000001137
                },
                {
                    "name": "C#2",
                    "midi": 37,
                    "time": 440.0999999999812,
                    "velocity": 0.4645669291338583,
                    "duration": 0.30000000000001137
                },
                {
                    "name": "C#3",
                    "midi": 49,
                    "time": 440.0999999999812,
                    "velocity": 0.5590551181102362,
                    "duration": 0.30000000000001137
                },
                {
                    "name": "D2",
                    "midi": 38,
                    "time": 440.3999999999812,
                    "velocity": 0.4566929133858268,
                    "duration": 0.30000000000001137
                },
                {
                    "name": "D3",
                    "midi": 50,
                    "time": 440.3999999999812,
                    "velocity": 0.5511811023622047,
                    "duration": 0.30000000000001137
                },
                {
                    "name": "D#2",
                    "midi": 39,
                    "time": 440.69999999998123,
                    "velocity": 0.4330708661417323,
                    "duration": 0.30000000000001137
                },
                {
                    "name": "D#3",
                    "midi": 51,
                    "time": 440.69999999998123,
                    "velocity": 0.5275590551181102,
                    "duration": 0.30000000000001137
                },
                {
                    "name": "E3",
                    "midi": 52,
                    "time": 440.99999999998124,
                    "velocity": 0.5196850393700787,
                    "duration": 0.30000000000001137
                },
                {
                    "name": "E2",
                    "midi": 40,
                    "time": 440.99999999998124,
                    "velocity": 0.4330708661417323,
                    "duration": 0.30000000000001137
                },
                {
                    "name": "F2",
                    "midi": 41,
                    "time": 441.29999999998125,
                    "velocity": 0.41732283464566927,
                    "duration": 0.30000000000001137
                },
                {
                    "name": "F3",
                    "midi": 53,
                    "time": 441.29999999998125,
                    "velocity": 0.5039370078740157,
                    "duration": 0.30000000000001137
                },
                {
                    "name": "E2",
                    "midi": 40,
                    "time": 441.59999999998126,
                    "velocity": 0.4015748031496063,
                    "duration": 0.30000000000001137
                },
                {
                    "name": "E3",
                    "midi": 52,
                    "time": 441.59999999998126,
                    "velocity": 0.47244094488188976,
                    "duration": 0.30000000000001137
                },
                {
                    "name": "D#3",
                    "midi": 51,
                    "time": 441.8999999999813,
                    "velocity": 0.5039370078740157,
                    "duration": 0.30000000000001137
                },
                {
                    "name": "D#2",
                    "midi": 39,
                    "time": 441.8999999999813,
                    "velocity": 0.41732283464566927,
                    "duration": 0.30000000000001137
                },
                {
                    "name": "D3",
                    "midi": 50,
                    "time": 442.1999999999813,
                    "velocity": 0.5196850393700787,
                    "duration": 0.30000000000001137
                },
                {
                    "name": "D2",
                    "midi": 38,
                    "time": 442.1999999999813,
                    "velocity": 0.4330708661417323,
                    "duration": 0.30000000000001137
                },
                {
                    "name": "C#2",
                    "midi": 37,
                    "time": 442.4999999999813,
                    "velocity": 0.44881889763779526,
                    "duration": 0.30000000000001137
                },
                {
                    "name": "C#3",
                    "midi": 49,
                    "time": 442.4999999999813,
                    "velocity": 0.5433070866141733,
                    "duration": 0.30000000000001137
                },
                {
                    "name": "C2",
                    "midi": 36,
                    "time": 442.7999999999813,
                    "velocity": 0.4645669291338583,
                    "duration": 0.30000000000001137
                },
                {
                    "name": "C3",
                    "midi": 48,
                    "time": 442.7999999999813,
                    "velocity": 0.5590551181102362,
                    "duration": 0.30000000000001137
                },
                {
                    "name": "B2",
                    "midi": 47,
                    "time": 443.0999999999813,
                    "velocity": 0.5748031496062992,
                    "duration": 0.30000000000001137
                },
                {
                    "name": "B1",
                    "midi": 35,
                    "time": 443.0999999999813,
                    "velocity": 0.49606299212598426,
                    "duration": 0.30000000000001137
                },
                {
                    "name": "A#1",
                    "midi": 34,
                    "time": 443.39999999998133,
                    "velocity": 0.5039370078740157,
                    "duration": 0.30000000000001137
                },
                {
                    "name": "A#2",
                    "midi": 46,
                    "time": 443.39999999998133,
                    "velocity": 0.5984251968503937,
                    "duration": 0.30000000000001137
                },
                {
                    "name": "A1",
                    "midi": 33,
                    "time": 443.69999999998134,
                    "velocity": 0.5196850393700787,
                    "duration": 0.30000000000001137
                },
                {
                    "name": "A2",
                    "midi": 45,
                    "time": 443.69999999998134,
                    "velocity": 0.6141732283464567,
                    "duration": 0.30000000000001137
                },
                {
                    "name": "A#2",
                    "midi": 46,
                    "time": 443.99999999998136,
                    "velocity": 0.5984251968503937,
                    "duration": 0.30000000000001137
                },
                {
                    "name": "A#1",
                    "midi": 34,
                    "time": 443.99999999998136,
                    "velocity": 0.5039370078740157,
                    "duration": 0.30000000000001137
                },
                {
                    "name": "B1",
                    "midi": 35,
                    "time": 444.29999999998137,
                    "velocity": 0.5039370078740157,
                    "duration": 0.30000000000001137
                },
                {
                    "name": "B2",
                    "midi": 47,
                    "time": 444.29999999998137,
                    "velocity": 0.5905511811023622,
                    "duration": 0.30000000000001137
                },
                {
                    "name": "C2",
                    "midi": 36,
                    "time": 444.5999999999814,
                    "velocity": 0.49606299212598426,
                    "duration": 0.30000000000001137
                },
                {
                    "name": "C3",
                    "midi": 48,
                    "time": 444.5999999999814,
                    "velocity": 0.5748031496062992,
                    "duration": 0.30000000000001137
                },
                {
                    "name": "C#2",
                    "midi": 37,
                    "time": 444.8999999999814,
                    "velocity": 0.4645669291338583,
                    "duration": 0.30000000000001137
                },
                {
                    "name": "C#3",
                    "midi": 49,
                    "time": 444.8999999999814,
                    "velocity": 0.5590551181102362,
                    "duration": 0.30000000000001137
                },
                {
                    "name": "G#2",
                    "midi": 44,
                    "time": 444.8999999999814,
                    "velocity": 0.4645669291338583,
                    "duration": 0.30000000000001137
                },
                {
                    "name": "D2",
                    "midi": 38,
                    "time": 445.1999999999814,
                    "velocity": 0.4566929133858268,
                    "duration": 0.30000000000001137
                },
                {
                    "name": "D3",
                    "midi": 50,
                    "time": 445.1999999999814,
                    "velocity": 0.5511811023622047,
                    "duration": 0.30000000000001137
                },
                {
                    "name": "G#2",
                    "midi": 44,
                    "time": 445.4999999999814,
                    "velocity": 0.49606299212598426,
                    "duration": 0.30000000000001137
                },
                {
                    "name": "C#2",
                    "midi": 37,
                    "time": 445.4999999999814,
                    "velocity": 0.49606299212598426,
                    "duration": 0.30000000000001137
                },
                {
                    "name": "C#3",
                    "midi": 49,
                    "time": 445.4999999999814,
                    "velocity": 0.5826771653543307,
                    "duration": 0.30000000000001137
                },
                {
                    "name": "D3",
                    "midi": 50,
                    "time": 445.7999999999814,
                    "velocity": 0.5275590551181102,
                    "duration": 0.30000000000001137
                },
                {
                    "name": "D2",
                    "midi": 38,
                    "time": 445.7999999999814,
                    "velocity": 0.4409448818897638,
                    "duration": 0.30000000000001137
                },
                {
                    "name": "G#2",
                    "midi": 44,
                    "time": 446.09999999998143,
                    "velocity": 0.5039370078740157,
                    "duration": 0.30000000000001137
                },
                {
                    "name": "C#2",
                    "midi": 37,
                    "time": 446.09999999998143,
                    "velocity": 0.5039370078740157,
                    "duration": 0.30000000000001137
                },
                {
                    "name": "C#3",
                    "midi": 49,
                    "time": 446.09999999998143,
                    "velocity": 0.5905511811023622,
                    "duration": 0.30000000000001137
                },
                {
                    "name": "D2",
                    "midi": 38,
                    "time": 446.39999999998145,
                    "velocity": 0.4566929133858268,
                    "duration": 0.30000000000001137
                },
                {
                    "name": "D3",
                    "midi": 50,
                    "time": 446.39999999998145,
                    "velocity": 0.5433070866141733,
                    "duration": 0.30000000000001137
                },
                {
                    "name": "C#3",
                    "midi": 49,
                    "time": 446.69999999998146,
                    "velocity": 0.5826771653543307,
                    "duration": 0.30000000000001137
                },
                {
                    "name": "G#2",
                    "midi": 44,
                    "time": 446.69999999998146,
                    "velocity": 0.49606299212598426,
                    "duration": 0.30000000000001137
                },
                {
                    "name": "C#2",
                    "midi": 37,
                    "time": 446.69999999998146,
                    "velocity": 0.49606299212598426,
                    "duration": 0.30000000000001137
                },
                {
                    "name": "C3",
                    "midi": 48,
                    "time": 446.99999999998147,
                    "velocity": 0.4409448818897638,
                    "duration": 0.32499999999998863
                },
                {
                    "name": "C4",
                    "midi": 60,
                    "time": 446.99999999998147,
                    "velocity": 0.5275590551181102,
                    "duration": 0.32499999999998863
                },
                {
                    "name": "C#4",
                    "midi": 61,
                    "time": 447.2999999999815,
                    "velocity": 0.5669291338582677,
                    "duration": 0.3249999999999318
                },
                {
                    "name": "C#3",
                    "midi": 49,
                    "time": 447.2999999999815,
                    "velocity": 0.48031496062992124,
                    "duration": 0.3249999999999318
                },
                {
                    "name": "C4",
                    "midi": 60,
                    "time": 447.59999999998143,
                    "velocity": 0.5275590551181102,
                    "duration": 0.3249999999999318
                },
                {
                    "name": "C3",
                    "midi": 48,
                    "time": 447.59999999998143,
                    "velocity": 0.4409448818897638,
                    "duration": 0.3249999999999318
                },
                {
                    "name": "C#4",
                    "midi": 61,
                    "time": 447.8999999999814,
                    "velocity": 0.5748031496062992,
                    "duration": 0.14999999999997726
                },
                {
                    "name": "C#3",
                    "midi": 49,
                    "time": 447.8999999999814,
                    "velocity": 0.48031496062992124,
                    "duration": 0.14999999999997726
                },
                {
                    "name": "C#3",
                    "midi": 49,
                    "time": 448.19999999998134,
                    "velocity": 0.5275590551181102,
                    "duration": 0.32499999999998863
                },
                {
                    "name": "C#2",
                    "midi": 37,
                    "time": 448.19999999998134,
                    "velocity": 0.4409448818897638,
                    "duration": 0.32499999999998863
                },
                {
                    "name": "D3",
                    "midi": 50,
                    "time": 448.49999999998136,
                    "velocity": 0.5669291338582677,
                    "duration": 0.3249999999999318
                },
                {
                    "name": "D2",
                    "midi": 38,
                    "time": 448.49999999998136,
                    "velocity": 0.48031496062992124,
                    "duration": 0.3249999999999318
                },
                {
                    "name": "D#2",
                    "midi": 39,
                    "time": 448.7999999999813,
                    "velocity": 0.4409448818897638,
                    "duration": 0.2999999999999545
                },
                {
                    "name": "D#3",
                    "midi": 51,
                    "time": 448.7999999999813,
                    "velocity": 0.5275590551181102,
                    "duration": 0.2999999999999545
                },
                {
                    "name": "E2",
                    "midi": 40,
                    "time": 449.09999999998126,
                    "velocity": 0.5748031496062992,
                    "duration": 0.5999999999999659
                },
                {
                    "name": "E3",
                    "midi": 52,
                    "time": 449.09999999998126,
                    "velocity": 0.6771653543307087,
                    "duration": 0.5999999999999659
                },
                {
                    "name": "B3",
                    "midi": 59,
                    "time": 449.3999999999813,
                    "velocity": 0.5433070866141733,
                    "duration": 0.14999999999997726
                },
                {
                    "name": "G#3",
                    "midi": 56,
                    "time": 449.3999999999813,
                    "velocity": 0.44881889763779526,
                    "duration": 0.14999999999997726
                },
                {
                    "name": "G#2",
                    "midi": 44,
                    "time": 449.69999999998123,
                    "velocity": 0.5275590551181102,
                    "duration": 0.5999999999999659
                },
                {
                    "name": "G#3",
                    "midi": 56,
                    "time": 449.69999999998123,
                    "velocity": 0.6141732283464567,
                    "duration": 0.5999999999999659
                },
                {
                    "name": "E4",
                    "midi": 64,
                    "time": 449.99999999998124,
                    "velocity": 0.5433070866141733,
                    "duration": 0.14999999999997726
                },
                {
                    "name": "B3",
                    "midi": 59,
                    "time": 449.99999999998124,
                    "velocity": 0.44881889763779526,
                    "duration": 0.14999999999997726
                },
                {
                    "name": "C#4",
                    "midi": 61,
                    "time": 450.2999999999812,
                    "velocity": 0.7401574803149606,
                    "duration": 0.8999999999999204
                },
                {
                    "name": "C#3",
                    "midi": 49,
                    "time": 450.2999999999812,
                    "velocity": 0.6220472440944882,
                    "duration": 0.8999999999999204
                },
                {
                    "name": "G#4",
                    "midi": 68,
                    "time": 450.5999999999812,
                    "velocity": 0.5433070866141733,
                    "duration": 0.14999999999997726
                },
                {
                    "name": "E4",
                    "midi": 64,
                    "time": 450.5999999999812,
                    "velocity": 0.44881889763779526,
                    "duration": 0.14999999999997726
                },
                {
                    "name": "G#4",
                    "midi": 68,
                    "time": 450.89999999998116,
                    "velocity": 0.5433070866141733,
                    "duration": 0.14999999999997726
                },
                {
                    "name": "E4",
                    "midi": 64,
                    "time": 450.89999999998116,
                    "velocity": 0.44881889763779526,
                    "duration": 0.14999999999997726
                },
                {
                    "name": "B3",
                    "midi": 59,
                    "time": 451.1999999999811,
                    "velocity": 0.6614173228346457,
                    "duration": 0.14999999999997726
                },
                {
                    "name": "B2",
                    "midi": 47,
                    "time": 451.1999999999811,
                    "velocity": 0.5511811023622047,
                    "duration": 0.14999999999997726
                },
                {
                    "name": "E3",
                    "midi": 52,
                    "time": 451.49999999998107,
                    "velocity": 0.5905511811023622,
                    "duration": 0.14999999999997726
                },
                {
                    "name": "A3",
                    "midi": 57,
                    "time": 451.49999999998107,
                    "velocity": 0.7007874015748031,
                    "duration": 0.14999999999997726
                },
                {
                    "name": "C#3",
                    "midi": 49,
                    "time": 451.49999999998107,
                    "velocity": 0.5905511811023622,
                    "duration": 0.14999999999997726
                },
                {
                    "name": "A2",
                    "midi": 45,
                    "time": 451.49999999998107,
                    "velocity": 0.5905511811023622,
                    "duration": 0.14999999999997726
                },
                {
                    "name": "G#3",
                    "midi": 56,
                    "time": 451.799999999981,
                    "velocity": 0.6141732283464567,
                    "duration": 0.14999999999997726
                },
                {
                    "name": "G#2",
                    "midi": 44,
                    "time": 451.799999999981,
                    "velocity": 0.5196850393700787,
                    "duration": 0.14999999999997726
                },
                {
                    "name": "G3",
                    "midi": 55,
                    "time": 452.099999999981,
                    "velocity": 0.6141732283464567,
                    "duration": 0.14999999999997726
                },
                {
                    "name": "G2",
                    "midi": 43,
                    "time": 452.099999999981,
                    "velocity": 0.5196850393700787,
                    "duration": 0.14999999999997726
                },
                {
                    "name": "F#2",
                    "midi": 42,
                    "time": 452.32499999998095,
                    "velocity": 0.49606299212598426,
                    "duration": 0.22499999999990905
                },
                {
                    "name": "A2",
                    "midi": 45,
                    "time": 452.3499999999809,
                    "velocity": 0.5118110236220472,
                    "duration": 0.1999999999999318
                },
                {
                    "name": "C#3",
                    "midi": 49,
                    "time": 452.3749999999809,
                    "velocity": 0.5275590551181102,
                    "duration": 0.17499999999995453
                },
                {
                    "name": "F#3",
                    "midi": 54,
                    "time": 452.3999999999809,
                    "velocity": 0.6377952755905512,
                    "duration": 0.14999999999997726
                },
                {
                    "name": "F2",
                    "midi": 41,
                    "time": 452.69999999998083,
                    "velocity": 0.5118110236220472,
                    "duration": 0.14999999999997726
                },
                {
                    "name": "F3",
                    "midi": 53,
                    "time": 452.69999999998083,
                    "velocity": 0.6062992125984252,
                    "duration": 0.14999999999997726
                },
                {
                    "name": "E2",
                    "midi": 40,
                    "time": 452.9249999999808,
                    "velocity": 0.4094488188976378,
                    "duration": 0.22499999999990905
                },
                {
                    "name": "A2",
                    "midi": 45,
                    "time": 452.9499999999808,
                    "velocity": 0.4251968503937008,
                    "duration": 0.1999999999999318
                },
                {
                    "name": "C#3",
                    "midi": 49,
                    "time": 452.97499999998075,
                    "velocity": 0.4330708661417323,
                    "duration": 0.17499999999995453
                },
                {
                    "name": "E3",
                    "midi": 52,
                    "time": 452.99999999998073,
                    "velocity": 0.5590551181102362,
                    "duration": 0.14999999999997726
                },
                {
                    "name": "D#2",
                    "midi": 39,
                    "time": 453.2999999999807,
                    "velocity": 0.49606299212598426,
                    "duration": 0.14999999999997726
                },
                {
                    "name": "D#3",
                    "midi": 51,
                    "time": 453.2999999999807,
                    "velocity": 0.5826771653543307,
                    "duration": 0.14999999999997726
                },
                {
                    "name": "E2",
                    "midi": 40,
                    "time": 453.52499999998065,
                    "velocity": 0.41732283464566927,
                    "duration": 0.22499999999990905
                },
                {
                    "name": "A2",
                    "midi": 45,
                    "time": 453.5499999999806,
                    "velocity": 0.41732283464566927,
                    "duration": 0.1999999999999318
                },
                {
                    "name": "C#3",
                    "midi": 49,
                    "time": 453.5749999999806,
                    "velocity": 0.41732283464566927,
                    "duration": 0.17499999999995453
                },
                {
                    "name": "E3",
                    "midi": 52,
                    "time": 453.5999999999806,
                    "velocity": 0.5039370078740157,
                    "duration": 0.14999999999997726
                },
                {
                    "name": "E2",
                    "midi": 40,
                    "time": 453.89999999998054,
                    "velocity": 0.5748031496062992,
                    "duration": 0.5999999999999659
                },
                {
                    "name": "E3",
                    "midi": 52,
                    "time": 453.89999999998054,
                    "velocity": 0.6771653543307087,
                    "duration": 0.5999999999999659
                },
                {
                    "name": "G#3",
                    "midi": 56,
                    "time": 454.19999999998055,
                    "velocity": 0.44881889763779526,
                    "duration": 0.14999999999997726
                },
                {
                    "name": "B3",
                    "midi": 59,
                    "time": 454.19999999998055,
                    "velocity": 0.44881889763779526,
                    "duration": 0.14999999999997726
                },
                {
                    "name": "G#2",
                    "midi": 44,
                    "time": 454.4999999999805,
                    "velocity": 0.5275590551181102,
                    "duration": 0.5999999999999659
                },
                {
                    "name": "G#3",
                    "midi": 56,
                    "time": 454.4999999999805,
                    "velocity": 0.6141732283464567,
                    "duration": 0.5999999999999659
                },
                {
                    "name": "B3",
                    "midi": 59,
                    "time": 454.7999999999805,
                    "velocity": 0.44881889763779526,
                    "duration": 0.14999999999997726
                },
                {
                    "name": "E4",
                    "midi": 64,
                    "time": 454.7999999999805,
                    "velocity": 0.44881889763779526,
                    "duration": 0.14999999999997726
                },
                {
                    "name": "C#3",
                    "midi": 49,
                    "time": 455.09999999998047,
                    "velocity": 0.6220472440944882,
                    "duration": 0.8999999999999204
                },
                {
                    "name": "C#4",
                    "midi": 61,
                    "time": 455.09999999998047,
                    "velocity": 0.7401574803149606,
                    "duration": 0.8999999999999204
                },
                {
                    "name": "E4",
                    "midi": 64,
                    "time": 455.3999999999805,
                    "velocity": 0.44881889763779526,
                    "duration": 0.14999999999997726
                },
                {
                    "name": "G#4",
                    "midi": 68,
                    "time": 455.3999999999805,
                    "velocity": 0.5433070866141733,
                    "duration": 0.14999999999997726
                },
                {
                    "name": "G#4",
                    "midi": 68,
                    "time": 455.69999999998043,
                    "velocity": 0.5433070866141733,
                    "duration": 0.14999999999997726
                },
                {
                    "name": "E4",
                    "midi": 64,
                    "time": 455.69999999998043,
                    "velocity": 0.44881889763779526,
                    "duration": 0.14999999999997726
                },
                {
                    "name": "B2",
                    "midi": 47,
                    "time": 455.9999999999804,
                    "velocity": 0.5511811023622047,
                    "duration": 0.14999999999997726
                },
                {
                    "name": "B3",
                    "midi": 59,
                    "time": 455.9999999999804,
                    "velocity": 0.6614173228346457,
                    "duration": 0.14999999999997726
                },
                {
                    "name": "A3",
                    "midi": 57,
                    "time": 456.29999999998034,
                    "velocity": 0.6614173228346457,
                    "duration": 0.14999999999997726
                },
                {
                    "name": "E3",
                    "midi": 52,
                    "time": 456.29999999998034,
                    "velocity": 0.5590551181102362,
                    "duration": 0.14999999999997726
                },
                {
                    "name": "A2",
                    "midi": 45,
                    "time": 456.29999999998034,
                    "velocity": 0.5590551181102362,
                    "duration": 0.14999999999997726
                },
                {
                    "name": "C#3",
                    "midi": 49,
                    "time": 456.29999999998034,
                    "velocity": 0.5590551181102362,
                    "duration": 0.14999999999997726
                },
                {
                    "name": "G#3",
                    "midi": 56,
                    "time": 456.5999999999803,
                    "velocity": 0.6141732283464567,
                    "duration": 0.14999999999997726
                },
                {
                    "name": "G#2",
                    "midi": 44,
                    "time": 456.5999999999803,
                    "velocity": 0.5196850393700787,
                    "duration": 0.14999999999997726
                },
                {
                    "name": "F#2",
                    "midi": 42,
                    "time": 456.89999999998025,
                    "velocity": 0.5196850393700787,
                    "duration": 0.14999999999997726
                },
                {
                    "name": "F#3",
                    "midi": 54,
                    "time": 456.89999999998025,
                    "velocity": 0.6141732283464567,
                    "duration": 0.14999999999997726
                },
                {
                    "name": "E2",
                    "midi": 40,
                    "time": 457.1999999999802,
                    "velocity": 0.4094488188976378,
                    "duration": 0.14999999999997726
                },
                {
                    "name": "C#3",
                    "midi": 49,
                    "time": 457.1999999999802,
                    "velocity": 0.44881889763779526,
                    "duration": 0.14999999999997726
                },
                {
                    "name": "A2",
                    "midi": 45,
                    "time": 457.1999999999802,
                    "velocity": 0.4251968503937008,
                    "duration": 0.14999999999997726
                },
                {
                    "name": "E3",
                    "midi": 52,
                    "time": 457.1999999999802,
                    "velocity": 0.5433070866141733,
                    "duration": 0.14999999999997726
                },
                {
                    "name": "A2",
                    "midi": 45,
                    "time": 457.49999999998016,
                    "velocity": 0.5511811023622047,
                    "duration": 0.6000000000000227
                },
                {
                    "name": "C#3",
                    "midi": 49,
                    "time": 457.49999999998016,
                    "velocity": 0.5511811023622047,
                    "duration": 0.6000000000000227
                },
                {
                    "name": "A3",
                    "midi": 57,
                    "time": 457.49999999998016,
                    "velocity": 0.6456692913385826,
                    "duration": 0.6000000000000227
                },
                {
                    "name": "E3",
                    "midi": 52,
                    "time": 457.49999999998016,
                    "velocity": 0.5511811023622047,
                    "duration": 0.6000000000000227
                },
                {
                    "name": "C#3",
                    "midi": 49,
                    "time": 458.0999999999802,
                    "velocity": 0.5039370078740157,
                    "duration": 0.6000000000000227
                },
                {
                    "name": "C#4",
                    "midi": 61,
                    "time": 458.0999999999802,
                    "velocity": 0.5905511811023622,
                    "duration": 0.6000000000000227
                },
                {
                    "name": "A3",
                    "midi": 57,
                    "time": 458.0999999999802,
                    "velocity": 0.5039370078740157,
                    "duration": 0.6000000000000227
                },
                {
                    "name": "E3",
                    "midi": 52,
                    "time": 458.0999999999802,
                    "velocity": 0.5039370078740157,
                    "duration": 0.6000000000000227
                },
                {
                    "name": "E2",
                    "midi": 40,
                    "time": 458.6999999999802,
                    "velocity": 0.41732283464566927,
                    "duration": 0.14999999999997726
                },
                {
                    "name": "E3",
                    "midi": 52,
                    "time": 458.6999999999802,
                    "velocity": 0.5039370078740157,
                    "duration": 0.14999999999997726
                },
                {
                    "name": "E3",
                    "midi": 52,
                    "time": 458.99999999998016,
                    "velocity": 0.5354330708661418,
                    "duration": 0.30000000000001137
                },
                {
                    "name": "E4",
                    "midi": 64,
                    "time": 458.99999999998016,
                    "velocity": 0.6299212598425197,
                    "duration": 0.30000000000001137
                },
                {
                    "name": "B3",
                    "midi": 59,
                    "time": 459.2999999999802,
                    "velocity": 0.5039370078740157,
                    "duration": 0.14999999999997726
                },
                {
                    "name": "B2",
                    "midi": 47,
                    "time": 459.2999999999802,
                    "velocity": 0.41732283464566927,
                    "duration": 0.14999999999997726
                },
                {
                    "name": "G#4",
                    "midi": 68,
                    "time": 459.5999999999801,
                    "velocity": 0.6614173228346457,
                    "duration": 0.30000000000001137
                },
                {
                    "name": "G#3",
                    "midi": 56,
                    "time": 459.5999999999801,
                    "velocity": 0.5511811023622047,
                    "duration": 0.30000000000001137
                },
                {
                    "name": "E4",
                    "midi": 64,
                    "time": 459.89999999998014,
                    "velocity": 0.5354330708661418,
                    "duration": 0.14999999999997726
                },
                {
                    "name": "E3",
                    "midi": 52,
                    "time": 459.89999999998014,
                    "velocity": 0.4409448818897638,
                    "duration": 0.14999999999997726
                },
                {
                    "name": "C#4",
                    "midi": 61,
                    "time": 460.1999999999801,
                    "velocity": 0.5984251968503937,
                    "duration": 0.6000000000000227
                },
                {
                    "name": "C#5",
                    "midi": 73,
                    "time": 460.1999999999801,
                    "velocity": 0.7165354330708661,
                    "duration": 0.6000000000000227
                },
                {
                    "name": "B4",
                    "midi": 71,
                    "time": 460.7999999999801,
                    "velocity": 0.6141732283464567,
                    "duration": 0.30000000000001137
                },
                {
                    "name": "B3",
                    "midi": 59,
                    "time": 460.7999999999801,
                    "velocity": 0.5275590551181102,
                    "duration": 0.30000000000001137
                },
                {
                    "name": "A3",
                    "midi": 57,
                    "time": 461.0999999999801,
                    "velocity": 0.5826771653543307,
                    "duration": 0.14999999999997726
                },
                {
                    "name": "A4",
                    "midi": 69,
                    "time": 461.0999999999801,
                    "velocity": 0.6929133858267716,
                    "duration": 0.14999999999997726
                },
                {
                    "name": "G#4",
                    "midi": 68,
                    "time": 461.3999999999801,
                    "velocity": 0.5748031496062992,
                    "duration": 0.14999999999997726
                },
                {
                    "name": "G#3",
                    "midi": 56,
                    "time": 461.3999999999801,
                    "velocity": 0.47244094488188976,
                    "duration": 0.14999999999997726
                },
                {
                    "name": "G3",
                    "midi": 55,
                    "time": 461.69999999998004,
                    "velocity": 0.47244094488188976,
                    "duration": 0.14999999999997726
                },
                {
                    "name": "G4",
                    "midi": 67,
                    "time": 461.69999999998004,
                    "velocity": 0.5748031496062992,
                    "duration": 0.14999999999997726
                },
                {
                    "name": "F#3",
                    "midi": 54,
                    "time": 461.99999999998,
                    "velocity": 0.47244094488188976,
                    "duration": 0.14999999999997726
                },
                {
                    "name": "F#4",
                    "midi": 66,
                    "time": 461.99999999998,
                    "velocity": 0.5748031496062992,
                    "duration": 0.14999999999997726
                },
                {
                    "name": "F3",
                    "midi": 53,
                    "time": 462.29999999997995,
                    "velocity": 0.5196850393700787,
                    "duration": 0.30000000000001137
                },
                {
                    "name": "F4",
                    "midi": 65,
                    "time": 462.29999999997995,
                    "velocity": 0.6299212598425197,
                    "duration": 0.30000000000001137
                },
                {
                    "name": "E3",
                    "midi": 52,
                    "time": 462.59999999997996,
                    "velocity": 0.47244094488188976,
                    "duration": 0.30000000000001137
                },
                {
                    "name": "E4",
                    "midi": 64,
                    "time": 462.59999999997996,
                    "velocity": 0.5669291338582677,
                    "duration": 0.30000000000001137
                },
                {
                    "name": "C#4",
                    "midi": 61,
                    "time": 462.89999999997997,
                    "velocity": 0.5669291338582677,
                    "duration": 0.14999999999997726
                },
                {
                    "name": "C#3",
                    "midi": 49,
                    "time": 462.89999999997997,
                    "velocity": 0.47244094488188976,
                    "duration": 0.14999999999997726
                },
                {
                    "name": "A2",
                    "midi": 45,
                    "time": 463.1999999999799,
                    "velocity": 0.47244094488188976,
                    "duration": 0.14999999999997726
                },
                {
                    "name": "A3",
                    "midi": 57,
                    "time": 463.1999999999799,
                    "velocity": 0.5669291338582677,
                    "duration": 0.14999999999997726
                },
                {
                    "name": "E2",
                    "midi": 40,
                    "time": 463.4999999999799,
                    "velocity": 0.4645669291338583,
                    "duration": 0.14999999999997726
                },
                {
                    "name": "E3",
                    "midi": 52,
                    "time": 463.4999999999799,
                    "velocity": 0.5511811023622047,
                    "duration": 0.14999999999997726
                },
                {
                    "name": "E4",
                    "midi": 64,
                    "time": 463.79999999997983,
                    "velocity": 0.6929133858267716,
                    "duration": 0.30000000000001137
                },
                {
                    "name": "E3",
                    "midi": 52,
                    "time": 463.79999999997983,
                    "velocity": 0.5826771653543307,
                    "duration": 0.30000000000001137
                },
                {
                    "name": "B3",
                    "midi": 59,
                    "time": 464.09999999997984,
                    "velocity": 0.5275590551181102,
                    "duration": 0.14999999999997726
                },
                {
                    "name": "B2",
                    "midi": 47,
                    "time": 464.09999999997984,
                    "velocity": 0.4330708661417323,
                    "duration": 0.14999999999997726
                },
                {
                    "name": "G#3",
                    "midi": 56,
                    "time": 464.3999999999798,
                    "velocity": 0.5748031496062992,
                    "duration": 0.30000000000001137
                },
                {
                    "name": "G#4",
                    "midi": 68,
                    "time": 464.3999999999798,
                    "velocity": 0.6771653543307087,
                    "duration": 0.30000000000001137
                },
                {
                    "name": "E4",
                    "midi": 64,
                    "time": 464.6999999999798,
                    "velocity": 0.5354330708661418,
                    "duration": 0.14999999999997726
                },
                {
                    "name": "E3",
                    "midi": 52,
                    "time": 464.6999999999798,
                    "velocity": 0.4409448818897638,
                    "duration": 0.14999999999997726
                },
                {
                    "name": "C#4",
                    "midi": 61,
                    "time": 464.99999999997976,
                    "velocity": 0.5984251968503937,
                    "duration": 0.6000000000000227
                },
                {
                    "name": "C#5",
                    "midi": 73,
                    "time": 464.99999999997976,
                    "velocity": 0.7165354330708661,
                    "duration": 0.6000000000000227
                },
                {
                    "name": "B3",
                    "midi": 59,
                    "time": 465.5999999999798,
                    "velocity": 0.5275590551181102,
                    "duration": 0.30000000000001137
                },
                {
                    "name": "B4",
                    "midi": 71,
                    "time": 465.5999999999798,
                    "velocity": 0.6141732283464567,
                    "duration": 0.30000000000001137
                },
                {
                    "name": "A3",
                    "midi": 57,
                    "time": 465.8999999999798,
                    "velocity": 0.5826771653543307,
                    "duration": 0.14999999999997726
                },
                {
                    "name": "A4",
                    "midi": 69,
                    "time": 465.8999999999798,
                    "velocity": 0.6929133858267716,
                    "duration": 0.14999999999997726
                },
                {
                    "name": "G#3",
                    "midi": 56,
                    "time": 466.19999999997975,
                    "velocity": 0.47244094488188976,
                    "duration": 0.14999999999997726
                },
                {
                    "name": "G#4",
                    "midi": 68,
                    "time": 466.19999999997975,
                    "velocity": 0.5748031496062992,
                    "duration": 0.14999999999997726
                },
                {
                    "name": "G4",
                    "midi": 67,
                    "time": 466.4999999999797,
                    "velocity": 0.5748031496062992,
                    "duration": 0.14999999999997726
                },
                {
                    "name": "G3",
                    "midi": 55,
                    "time": 466.4999999999797,
                    "velocity": 0.47244094488188976,
                    "duration": 0.14999999999997726
                },
                {
                    "name": "F#3",
                    "midi": 54,
                    "time": 466.79999999997966,
                    "velocity": 0.47244094488188976,
                    "duration": 0.14999999999997726
                },
                {
                    "name": "F#4",
                    "midi": 66,
                    "time": 466.79999999997966,
                    "velocity": 0.5748031496062992,
                    "duration": 0.14999999999997726
                },
                {
                    "name": "F3",
                    "midi": 53,
                    "time": 467.0999999999796,
                    "velocity": 0.47244094488188976,
                    "duration": 0.30000000000001137
                },
                {
                    "name": "F4",
                    "midi": 65,
                    "time": 467.0999999999796,
                    "velocity": 0.5590551181102362,
                    "duration": 0.30000000000001137
                },
                {
                    "name": "E3",
                    "midi": 52,
                    "time": 467.3999999999796,
                    "velocity": 0.44881889763779526,
                    "duration": 0.30000000000001137
                },
                {
                    "name": "E4",
                    "midi": 64,
                    "time": 467.3999999999796,
                    "velocity": 0.5433070866141733,
                    "duration": 0.30000000000001137
                },
                {
                    "name": "D#4",
                    "midi": 63,
                    "time": 467.69999999997964,
                    "velocity": 0.5354330708661418,
                    "duration": 0.14999999999997726
                },
                {
                    "name": "D#3",
                    "midi": 51,
                    "time": 467.69999999997964,
                    "velocity": 0.4409448818897638,
                    "duration": 0.14999999999997726
                },
                {
                    "name": "E4",
                    "midi": 64,
                    "time": 467.9999999999796,
                    "velocity": 0.5196850393700787,
                    "duration": 0.14999999999997726
                },
                {
                    "name": "E3",
                    "midi": 52,
                    "time": 467.9999999999796,
                    "velocity": 0.4251968503937008,
                    "duration": 0.14999999999997726
                },
                {
                    "name": "G#3",
                    "midi": 56,
                    "time": 468.29999999997955,
                    "velocity": 0.44881889763779526,
                    "duration": 0.14999999999997726
                },
                {
                    "name": "D4",
                    "midi": 62,
                    "time": 468.29999999997955,
                    "velocity": 0.44881889763779526,
                    "duration": 0.14999999999997726
                },
                {
                    "name": "E4",
                    "midi": 64,
                    "time": 468.29999999997955,
                    "velocity": 0.5354330708661418,
                    "duration": 0.14999999999997726
                },
                {
                    "name": "E3",
                    "midi": 52,
                    "time": 468.5999999999795,
                    "velocity": 0.5275590551181102,
                    "duration": 0.14999999999997726
                },
                {
                    "name": "G#3",
                    "midi": 56,
                    "time": 468.89999999997946,
                    "velocity": 0.44881889763779526,
                    "duration": 0.14999999999997726
                },
                {
                    "name": "E4",
                    "midi": 64,
                    "time": 468.89999999997946,
                    "velocity": 0.5354330708661418,
                    "duration": 0.14999999999997726
                },
                {
                    "name": "D4",
                    "midi": 62,
                    "time": 468.89999999997946,
                    "velocity": 0.44881889763779526,
                    "duration": 0.14999999999997726
                },
                {
                    "name": "B2",
                    "midi": 47,
                    "time": 469.1999999999794,
                    "velocity": 0.5196850393700787,
                    "duration": 0.14999999999997726
                },
                {
                    "name": "E4",
                    "midi": 64,
                    "time": 469.49999999997937,
                    "velocity": 0.5354330708661418,
                    "duration": 0.14999999999997726
                },
                {
                    "name": "D4",
                    "midi": 62,
                    "time": 469.49999999997937,
                    "velocity": 0.44881889763779526,
                    "duration": 0.14999999999997726
                },
                {
                    "name": "G#3",
                    "midi": 56,
                    "time": 469.49999999997937,
                    "velocity": 0.44881889763779526,
                    "duration": 0.14999999999997726
                },
                {
                    "name": "E2",
                    "midi": 40,
                    "time": 469.7999999999793,
                    "velocity": 0.5275590551181102,
                    "duration": 0.14999999999997726
                },
                {
                    "name": "E4",
                    "midi": 64,
                    "time": 470.0999999999793,
                    "velocity": 0.5354330708661418,
                    "duration": 0.14999999999997726
                },
                {
                    "name": "D4",
                    "midi": 62,
                    "time": 470.0999999999793,
                    "velocity": 0.44881889763779526,
                    "duration": 0.14999999999997726
                },
                {
                    "name": "G#3",
                    "midi": 56,
                    "time": 470.0999999999793,
                    "velocity": 0.44881889763779526,
                    "duration": 0.14999999999997726
                },
                {
                    "name": "B2",
                    "midi": 47,
                    "time": 470.39999999997923,
                    "velocity": 0.5196850393700787,
                    "duration": 0.14999999999997726
                },
                {
                    "name": "C#4",
                    "midi": 61,
                    "time": 470.6999999999792,
                    "velocity": 0.44881889763779526,
                    "duration": 0.14999999999997726
                },
                {
                    "name": "E4",
                    "midi": 64,
                    "time": 470.6999999999792,
                    "velocity": 0.5354330708661418,
                    "duration": 0.14999999999997726
                },
                {
                    "name": "A3",
                    "midi": 57,
                    "time": 470.6999999999792,
                    "velocity": 0.44881889763779526,
                    "duration": 0.14999999999997726
                },
                {
                    "name": "E3",
                    "midi": 52,
                    "time": 470.99999999997914,
                    "velocity": 0.5275590551181102,
                    "duration": 0.14999999999997726
                },
                {
                    "name": "A3",
                    "midi": 57,
                    "time": 471.2999999999791,
                    "velocity": 0.44881889763779526,
                    "duration": 0.14999999999997726
                },
                {
                    "name": "C#4",
                    "midi": 61,
                    "time": 471.2999999999791,
                    "velocity": 0.44881889763779526,
                    "duration": 0.14999999999997726
                },
                {
                    "name": "E4",
                    "midi": 64,
                    "time": 471.2999999999791,
                    "velocity": 0.5354330708661418,
                    "duration": 0.14999999999997726
                },
                {
                    "name": "C#3",
                    "midi": 49,
                    "time": 471.59999999997905,
                    "velocity": 0.5196850393700787,
                    "duration": 0.14999999999997726
                },
                {
                    "name": "E4",
                    "midi": 64,
                    "time": 471.899999999979,
                    "velocity": 0.5354330708661418,
                    "duration": 0.14999999999997726
                },
                {
                    "name": "C#4",
                    "midi": 61,
                    "time": 471.899999999979,
                    "velocity": 0.44881889763779526,
                    "duration": 0.14999999999997726
                },
                {
                    "name": "A3",
                    "midi": 57,
                    "time": 471.899999999979,
                    "velocity": 0.44881889763779526,
                    "duration": 0.14999999999997726
                },
                {
                    "name": "E2",
                    "midi": 40,
                    "time": 472.19999999997896,
                    "velocity": 0.5275590551181102,
                    "duration": 0.14999999999997726
                },
                {
                    "name": "E4",
                    "midi": 64,
                    "time": 472.4999999999789,
                    "velocity": 0.5354330708661418,
                    "duration": 0.14999999999997726
                },
                {
                    "name": "A3",
                    "midi": 57,
                    "time": 472.4999999999789,
                    "velocity": 0.44881889763779526,
                    "duration": 0.14999999999997726
                },
                {
                    "name": "C#4",
                    "midi": 61,
                    "time": 472.4999999999789,
                    "velocity": 0.44881889763779526,
                    "duration": 0.14999999999997726
                },
                {
                    "name": "C#3",
                    "midi": 49,
                    "time": 472.79999999997887,
                    "velocity": 0.5196850393700787,
                    "duration": 0.14999999999997726
                },
                {
                    "name": "G#3",
                    "midi": 56,
                    "time": 473.0999999999788,
                    "velocity": 0.44881889763779526,
                    "duration": 0.14999999999997726
                },
                {
                    "name": "E4",
                    "midi": 64,
                    "time": 473.0999999999788,
                    "velocity": 0.5354330708661418,
                    "duration": 0.14999999999997726
                },
                {
                    "name": "D4",
                    "midi": 62,
                    "time": 473.0999999999788,
                    "velocity": 0.44881889763779526,
                    "duration": 0.14999999999997726
                },
                {
                    "name": "E3",
                    "midi": 52,
                    "time": 473.3999999999788,
                    "velocity": 0.5275590551181102,
                    "duration": 0.14999999999997726
                },
                {
                    "name": "G#3",
                    "midi": 56,
                    "time": 473.69999999997873,
                    "velocity": 0.44881889763779526,
                    "duration": 0.14999999999997726
                },
                {
                    "name": "D4",
                    "midi": 62,
                    "time": 473.69999999997873,
                    "velocity": 0.44881889763779526,
                    "duration": 0.14999999999997726
                },
                {
                    "name": "E4",
                    "midi": 64,
                    "time": 473.69999999997873,
                    "velocity": 0.5354330708661418,
                    "duration": 0.14999999999997726
                },
                {
                    "name": "B2",
                    "midi": 47,
                    "time": 473.9999999999787,
                    "velocity": 0.5196850393700787,
                    "duration": 0.14999999999997726
                },
                {
                    "name": "D4",
                    "midi": 62,
                    "time": 474.29999999997864,
                    "velocity": 0.44881889763779526,
                    "duration": 0.14999999999997726
                },
                {
                    "name": "E4",
                    "midi": 64,
                    "time": 474.29999999997864,
                    "velocity": 0.5354330708661418,
                    "duration": 0.14999999999997726
                },
                {
                    "name": "G#3",
                    "midi": 56,
                    "time": 474.29999999997864,
                    "velocity": 0.44881889763779526,
                    "duration": 0.14999999999997726
                },
                {
                    "name": "E2",
                    "midi": 40,
                    "time": 474.5999999999786,
                    "velocity": 0.5275590551181102,
                    "duration": 0.14999999999997726
                },
                {
                    "name": "G#3",
                    "midi": 56,
                    "time": 474.89999999997855,
                    "velocity": 0.44881889763779526,
                    "duration": 0.14999999999997726
                },
                {
                    "name": "D4",
                    "midi": 62,
                    "time": 474.89999999997855,
                    "velocity": 0.44881889763779526,
                    "duration": 0.14999999999997726
                },
                {
                    "name": "E4",
                    "midi": 64,
                    "time": 474.89999999997855,
                    "velocity": 0.5354330708661418,
                    "duration": 0.14999999999997726
                },
                {
                    "name": "B2",
                    "midi": 47,
                    "time": 475.1999999999785,
                    "velocity": 0.5196850393700787,
                    "duration": 0.14999999999997726
                },
                {
                    "name": "A3",
                    "midi": 57,
                    "time": 475.49999999997846,
                    "velocity": 0.44881889763779526,
                    "duration": 0.14999999999997726
                },
                {
                    "name": "E4",
                    "midi": 64,
                    "time": 475.49999999997846,
                    "velocity": 0.5354330708661418,
                    "duration": 0.14999999999997726
                },
                {
                    "name": "C#4",
                    "midi": 61,
                    "time": 475.49999999997846,
                    "velocity": 0.44881889763779526,
                    "duration": 0.14999999999997726
                },
                {
                    "name": "E3",
                    "midi": 52,
                    "time": 475.7999999999784,
                    "velocity": 0.5275590551181102,
                    "duration": 0.14999999999997726
                },
                {
                    "name": "C#4",
                    "midi": 61,
                    "time": 476.09999999997837,
                    "velocity": 0.44881889763779526,
                    "duration": 0.14999999999997726
                },
                {
                    "name": "A3",
                    "midi": 57,
                    "time": 476.09999999997837,
                    "velocity": 0.44881889763779526,
                    "duration": 0.14999999999997726
                },
                {
                    "name": "E4",
                    "midi": 64,
                    "time": 476.09999999997837,
                    "velocity": 0.5354330708661418,
                    "duration": 0.14999999999997726
                },
                {
                    "name": "C#3",
                    "midi": 49,
                    "time": 476.3999999999783,
                    "velocity": 0.5196850393700787,
                    "duration": 0.14999999999997726
                },
                {
                    "name": "A3",
                    "midi": 57,
                    "time": 476.6999999999783,
                    "velocity": 0.44881889763779526,
                    "duration": 0.14999999999997726
                },
                {
                    "name": "C#4",
                    "midi": 61,
                    "time": 476.6999999999783,
                    "velocity": 0.44881889763779526,
                    "duration": 0.14999999999997726
                },
                {
                    "name": "E4",
                    "midi": 64,
                    "time": 476.6999999999783,
                    "velocity": 0.5354330708661418,
                    "duration": 0.14999999999997726
                },
                {
                    "name": "E2",
                    "midi": 40,
                    "time": 476.99999999997823,
                    "velocity": 0.5275590551181102,
                    "duration": 0.14999999999997726
                },
                {
                    "name": "A3",
                    "midi": 57,
                    "time": 477.2999999999782,
                    "velocity": 0.44881889763779526,
                    "duration": 0.14999999999997726
                },
                {
                    "name": "E4",
                    "midi": 64,
                    "time": 477.2999999999782,
                    "velocity": 0.5354330708661418,
                    "duration": 0.14999999999997726
                },
                {
                    "name": "C#4",
                    "midi": 61,
                    "time": 477.2999999999782,
                    "velocity": 0.44881889763779526,
                    "duration": 0.14999999999997726
                },
                {
                    "name": "C#3",
                    "midi": 49,
                    "time": 477.59999999997814,
                    "velocity": 0.5196850393700787,
                    "duration": 0.14999999999997726
                },
                {
                    "name": "G#3",
                    "midi": 56,
                    "time": 477.8999999999781,
                    "velocity": 0.44881889763779526,
                    "duration": 0.14999999999997726
                },
                {
                    "name": "C#4",
                    "midi": 61,
                    "time": 477.8999999999781,
                    "velocity": 0.44881889763779526,
                    "duration": 0.14999999999997726
                },
                {
                    "name": "F4",
                    "midi": 65,
                    "time": 477.8999999999781,
                    "velocity": 0.5354330708661418,
                    "duration": 0.14999999999997726
                },
                {
                    "name": "C#3",
                    "midi": 49,
                    "time": 478.19999999997805,
                    "velocity": 0.5275590551181102,
                    "duration": 0.14999999999997726
                },
                {
                    "name": "G#3",
                    "midi": 56,
                    "time": 478.499999999978,
                    "velocity": 0.44881889763779526,
                    "duration": 0.14999999999997726
                },
                {
                    "name": "F4",
                    "midi": 65,
                    "time": 478.499999999978,
                    "velocity": 0.5354330708661418,
                    "duration": 0.14999999999997726
                },
                {
                    "name": "C#4",
                    "midi": 61,
                    "time": 478.499999999978,
                    "velocity": 0.44881889763779526,
                    "duration": 0.14999999999997726
                },
                {
                    "name": "G#2",
                    "midi": 44,
                    "time": 478.79999999997796,
                    "velocity": 0.5196850393700787,
                    "duration": 0.14999999999997726
                },
                {
                    "name": "G#3",
                    "midi": 56,
                    "time": 479.0999999999779,
                    "velocity": 0.44881889763779526,
                    "duration": 0.14999999999997726
                },
                {
                    "name": "F4",
                    "midi": 65,
                    "time": 479.0999999999779,
                    "velocity": 0.5354330708661418,
                    "duration": 0.14999999999997726
                },
                {
                    "name": "C#4",
                    "midi": 61,
                    "time": 479.0999999999779,
                    "velocity": 0.44881889763779526,
                    "duration": 0.14999999999997726
                },
                {
                    "name": "C#2",
                    "midi": 37,
                    "time": 479.39999999997787,
                    "velocity": 0.5275590551181102,
                    "duration": 0.14999999999997726
                },
                {
                    "name": "F4",
                    "midi": 65,
                    "time": 479.6999999999778,
                    "velocity": 0.5354330708661418,
                    "duration": 0.14999999999997726
                },
                {
                    "name": "G#3",
                    "midi": 56,
                    "time": 479.6999999999778,
                    "velocity": 0.44881889763779526,
                    "duration": 0.14999999999997726
                },
                {
                    "name": "C#4",
                    "midi": 61,
                    "time": 479.6999999999778,
                    "velocity": 0.44881889763779526,
                    "duration": 0.14999999999997726
                },
                {
                    "name": "C#3",
                    "midi": 49,
                    "time": 479.9999999999778,
                    "velocity": 0.5196850393700787,
                    "duration": 0.14999999999997726
                },
                {
                    "name": "C#4",
                    "midi": 61,
                    "time": 480.29999999997773,
                    "velocity": 0.5354330708661418,
                    "duration": 0.14999999999997726
                },
                {
                    "name": "A#3",
                    "midi": 58,
                    "time": 480.29999999997773,
                    "velocity": 0.44881889763779526,
                    "duration": 0.14999999999997726
                },
                {
                    "name": "C#3",
                    "midi": 49,
                    "time": 480.5999999999777,
                    "velocity": 0.5275590551181102,
                    "duration": 0.14999999999997726
                },
                {
                    "name": "A#3",
                    "midi": 58,
                    "time": 480.89999999997764,
                    "velocity": 0.44881889763779526,
                    "duration": 0.14999999999997726
                },
                {
                    "name": "F#4",
                    "midi": 66,
                    "time": 480.89999999997764,
                    "velocity": 0.5354330708661418,
                    "duration": 0.14999999999997726
                },
                {
                    "name": "C#4",
                    "midi": 61,
                    "time": 480.89999999997764,
                    "velocity": 0.44881889763779526,
                    "duration": 0.14999999999997726
                },
                {
                    "name": "A#2",
                    "midi": 46,
                    "time": 481.1999999999776,
                    "velocity": 0.5196850393700787,
                    "duration": 0.14999999999997726
                },
                {
                    "name": "C#4",
                    "midi": 61,
                    "time": 481.49999999997755,
                    "velocity": 0.44881889763779526,
                    "duration": 0.14999999999997726
                },
                {
                    "name": "A#3",
                    "midi": 58,
                    "time": 481.49999999997755,
                    "velocity": 0.44881889763779526,
                    "duration": 0.14999999999997726
                },
                {
                    "name": "F#4",
                    "midi": 66,
                    "time": 481.49999999997755,
                    "velocity": 0.5354330708661418,
                    "duration": 0.14999999999997726
                },
                {
                    "name": "C#2",
                    "midi": 37,
                    "time": 481.7999999999775,
                    "velocity": 0.5275590551181102,
                    "duration": 0.14999999999997726
                },
                {
                    "name": "C#4",
                    "midi": 61,
                    "time": 482.09999999997746,
                    "velocity": 0.44881889763779526,
                    "duration": 0.14999999999997726
                },
                {
                    "name": "A#3",
                    "midi": 58,
                    "time": 482.09999999997746,
                    "velocity": 0.44881889763779526,
                    "duration": 0.14999999999997726
                },
                {
                    "name": "F#4",
                    "midi": 66,
                    "time": 482.09999999997746,
                    "velocity": 0.5354330708661418,
                    "duration": 0.14999999999997726
                },
                {
                    "name": "C#3",
                    "midi": 49,
                    "time": 482.3999999999774,
                    "velocity": 0.5196850393700787,
                    "duration": 0.14999999999997726
                },
                {
                    "name": "F4",
                    "midi": 65,
                    "time": 482.69999999997736,
                    "velocity": 0.5354330708661418,
                    "duration": 0.14999999999997726
                },
                {
                    "name": "G#3",
                    "midi": 56,
                    "time": 482.69999999997736,
                    "velocity": 0.44881889763779526,
                    "duration": 0.14999999999997726
                },
                {
                    "name": "C#4",
                    "midi": 61,
                    "time": 482.69999999997736,
                    "velocity": 0.44881889763779526,
                    "duration": 0.14999999999997726
                },
                {
                    "name": "C#3",
                    "midi": 49,
                    "time": 482.9999999999773,
                    "velocity": 0.5275590551181102,
                    "duration": 0.14999999999997726
                },
                {
                    "name": "C#4",
                    "midi": 61,
                    "time": 483.2999999999773,
                    "velocity": 0.44881889763779526,
                    "duration": 0.14999999999997726
                },
                {
                    "name": "F4",
                    "midi": 65,
                    "time": 483.2999999999773,
                    "velocity": 0.5354330708661418,
                    "duration": 0.14999999999997726
                },
                {
                    "name": "G#3",
                    "midi": 56,
                    "time": 483.2999999999773,
                    "velocity": 0.44881889763779526,
                    "duration": 0.14999999999997726
                },
                {
                    "name": "G#2",
                    "midi": 44,
                    "time": 483.59999999997723,
                    "velocity": 0.5196850393700787,
                    "duration": 0.14999999999997726
                },
                {
                    "name": "C#4",
                    "midi": 61,
                    "time": 483.8999999999772,
                    "velocity": 0.44881889763779526,
                    "duration": 0.14999999999997726
                },
                {
                    "name": "G#3",
                    "midi": 56,
                    "time": 483.8999999999772,
                    "velocity": 0.44881889763779526,
                    "duration": 0.14999999999997726
                },
                {
                    "name": "F4",
                    "midi": 65,
                    "time": 483.8999999999772,
                    "velocity": 0.5354330708661418,
                    "duration": 0.14999999999997726
                },
                {
                    "name": "C#2",
                    "midi": 37,
                    "time": 484.19999999997714,
                    "velocity": 0.5275590551181102,
                    "duration": 0.14999999999997726
                },
                {
                    "name": "C#4",
                    "midi": 61,
                    "time": 484.4999999999771,
                    "velocity": 0.44881889763779526,
                    "duration": 0.14999999999997726
                },
                {
                    "name": "F4",
                    "midi": 65,
                    "time": 484.4999999999771,
                    "velocity": 0.5354330708661418,
                    "duration": 0.14999999999997726
                },
                {
                    "name": "G#3",
                    "midi": 56,
                    "time": 484.4999999999771,
                    "velocity": 0.44881889763779526,
                    "duration": 0.14999999999997726
                },
                {
                    "name": "C#3",
                    "midi": 49,
                    "time": 484.79999999997705,
                    "velocity": 0.5196850393700787,
                    "duration": 0.14999999999997726
                },
                {
                    "name": "C#4",
                    "midi": 61,
                    "time": 485.099999999977,
                    "velocity": 0.5354330708661418,
                    "duration": 0.14999999999997726
                },
                {
                    "name": "A#3",
                    "midi": 58,
                    "time": 485.099999999977,
                    "velocity": 0.44881889763779526,
                    "duration": 0.14999999999997726
                },
                {
                    "name": "C#3",
                    "midi": 49,
                    "time": 485.39999999997696,
                    "velocity": 0.5275590551181102,
                    "duration": 0.14999999999997726
                },
                {
                    "name": "A#3",
                    "midi": 58,
                    "time": 485.6999999999769,
                    "velocity": 0.44881889763779526,
                    "duration": 0.14999999999997726
                },
                {
                    "name": "C#4",
                    "midi": 61,
                    "time": 485.6999999999769,
                    "velocity": 0.44881889763779526,
                    "duration": 0.14999999999997726
                },
                {
                    "name": "F#4",
                    "midi": 66,
                    "time": 485.6999999999769,
                    "velocity": 0.5354330708661418,
                    "duration": 0.14999999999997726
                },
                {
                    "name": "A#2",
                    "midi": 46,
                    "time": 485.99999999997686,
                    "velocity": 0.5196850393700787,
                    "duration": 0.14999999999997726
                },
                {
                    "name": "F#4",
                    "midi": 66,
                    "time": 486.2999999999768,
                    "velocity": 0.5354330708661418,
                    "duration": 0.14999999999997726
                },
                {
                    "name": "C#4",
                    "midi": 61,
                    "time": 486.2999999999768,
                    "velocity": 0.44881889763779526,
                    "duration": 0.14999999999997726
                },
                {
                    "name": "A#3",
                    "midi": 58,
                    "time": 486.2999999999768,
                    "velocity": 0.44881889763779526,
                    "duration": 0.14999999999997726
                },
                {
                    "name": "C#2",
                    "midi": 37,
                    "time": 486.5999999999768,
                    "velocity": 0.5275590551181102,
                    "duration": 0.14999999999997726
                },
                {
                    "name": "C#4",
                    "midi": 61,
                    "time": 486.8999999999767,
                    "velocity": 0.44881889763779526,
                    "duration": 0.14999999999997726
                },
                {
                    "name": "A#3",
                    "midi": 58,
                    "time": 486.8999999999767,
                    "velocity": 0.44881889763779526,
                    "duration": 0.14999999999997726
                },
                {
                    "name": "F#4",
                    "midi": 66,
                    "time": 486.8999999999767,
                    "velocity": 0.5354330708661418,
                    "duration": 0.14999999999997726
                },
                {
                    "name": "C#3",
                    "midi": 49,
                    "time": 487.1999999999767,
                    "velocity": 0.5196850393700787,
                    "duration": 0.14999999999997726
                },
                {
                    "name": "G#3",
                    "midi": 56,
                    "time": 487.49999999997664,
                    "velocity": 0.33070866141732286,
                    "duration": 0.14999999999997726
                },
                {
                    "name": "C#4",
                    "midi": 61,
                    "time": 487.7999999999766,
                    "velocity": 0.29133858267716534,
                    "duration": 0.14999999999997726
                },
                {
                    "name": "F4",
                    "midi": 65,
                    "time": 487.7999999999766,
                    "velocity": 0.29133858267716534,
                    "duration": 0.14999999999997726
                },
                {
                    "name": "B4",
                    "midi": 71,
                    "time": 487.7999999999766,
                    "velocity": 0.29133858267716534,
                    "duration": 0.14999999999997726
                },
                {
                    "name": "C#3",
                    "midi": 49,
                    "time": 488.09999999997655,
                    "velocity": 0.33070866141732286,
                    "duration": 0.14999999999997726
                },
                {
                    "name": "F4",
                    "midi": 65,
                    "time": 488.3999999999765,
                    "velocity": 0.29133858267716534,
                    "duration": 0.14999999999997726
                },
                {
                    "name": "C#4",
                    "midi": 61,
                    "time": 488.3999999999765,
                    "velocity": 0.29133858267716534,
                    "duration": 0.14999999999997726
                },
                {
                    "name": "B4",
                    "midi": 71,
                    "time": 488.3999999999765,
                    "velocity": 0.29133858267716534,
                    "duration": 0.14999999999997726
                },
                {
                    "name": "G#4",
                    "midi": 68,
                    "time": 488.69999999997646,
                    "velocity": 0.29133858267716534,
                    "duration": 0.14999999999997726
                },
                {
                    "name": "C5",
                    "midi": 72,
                    "time": 488.69999999997646,
                    "velocity": 0.33070866141732286,
                    "duration": 0.14999999999997726
                },
                {
                    "name": "C#5",
                    "midi": 73,
                    "time": 488.9999999999764,
                    "velocity": 0.29133858267716534,
                    "duration": 0.14999999999997726
                },
                {
                    "name": "F4",
                    "midi": 65,
                    "time": 488.9999999999764,
                    "velocity": 0.29133858267716534,
                    "duration": 0.14999999999997726
                },
                {
                    "name": "B4",
                    "midi": 71,
                    "time": 489.29999999997636,
                    "velocity": 0.3779527559055118,
                    "duration": 0.44999999999998863
                },
                {
                    "name": "G#4",
                    "midi": 68,
                    "time": 489.29999999997636,
                    "velocity": 0.33070866141732286,
                    "duration": 0.5999999999999659
                },
                {
                    "name": "C#5",
                    "midi": 73,
                    "time": 489.74999999997635,
                    "velocity": 0.29133858267716534,
                    "duration": 0.14999999999997726
                },
                {
                    "name": "F#3",
                    "midi": 54,
                    "time": 489.89999999997633,
                    "velocity": 0.33070866141732286,
                    "duration": 0.14999999999997726
                },
                {
                    "name": "F#4",
                    "midi": 66,
                    "time": 490.1999999999763,
                    "velocity": 0.29133858267716534,
                    "duration": 0.14999999999997726
                },
                {
                    "name": "C#4",
                    "midi": 61,
                    "time": 490.1999999999763,
                    "velocity": 0.29133858267716534,
                    "duration": 0.14999999999997726
                },
                {
                    "name": "A#4",
                    "midi": 70,
                    "time": 490.1999999999763,
                    "velocity": 0.29133858267716534,
                    "duration": 0.14999999999997726
                },
                {
                    "name": "C#3",
                    "midi": 49,
                    "time": 490.49999999997624,
                    "velocity": 0.33070866141732286,
                    "duration": 0.14999999999997726
                },
                {
                    "name": "F#4",
                    "midi": 66,
                    "time": 490.7999999999762,
                    "velocity": 0.29133858267716534,
                    "duration": 0.14999999999997726
                },
                {
                    "name": "A#4",
                    "midi": 70,
                    "time": 490.7999999999762,
                    "velocity": 0.29133858267716534,
                    "duration": 0.14999999999997726
                },
                {
                    "name": "C#4",
                    "midi": 61,
                    "time": 490.7999999999762,
                    "velocity": 0.29133858267716534,
                    "duration": 0.14999999999997726
                },
                {
                    "name": "C5",
                    "midi": 72,
                    "time": 491.09999999997615,
                    "velocity": 0.33070866141732286,
                    "duration": 0.14999999999997726
                },
                {
                    "name": "A4",
                    "midi": 69,
                    "time": 491.09999999997615,
                    "velocity": 0.29133858267716534,
                    "duration": 0.14999999999997726
                },
                {
                    "name": "C#5",
                    "midi": 73,
                    "time": 491.3999999999761,
                    "velocity": 0.29133858267716534,
                    "duration": 0.14999999999997726
                },
                {
                    "name": "A#4",
                    "midi": 70,
                    "time": 491.3999999999761,
                    "velocity": 0.29133858267716534,
                    "duration": 0.14999999999997726
                },
                {
                    "name": "A#4",
                    "midi": 70,
                    "time": 491.69999999997606,
                    "velocity": 0.3779527559055118,
                    "duration": 0.44999999999998863
                },
                {
                    "name": "F#4",
                    "midi": 66,
                    "time": 491.69999999997606,
                    "velocity": 0.33070866141732286,
                    "duration": 0.5999999999999659
                },
                {
                    "name": "C#5",
                    "midi": 73,
                    "time": 492.14999999997605,
                    "velocity": 0.29133858267716534,
                    "duration": 0.14999999999997726
                },
                {
                    "name": "G#3",
                    "midi": 56,
                    "time": 492.299999999976,
                    "velocity": 0.33070866141732286,
                    "duration": 0.14999999999997726
                },
                {
                    "name": "B4",
                    "midi": 71,
                    "time": 492.599999999976,
                    "velocity": 0.29133858267716534,
                    "duration": 0.14999999999997726
                },
                {
                    "name": "F4",
                    "midi": 65,
                    "time": 492.599999999976,
                    "velocity": 0.29133858267716534,
                    "duration": 0.14999999999997726
                },
                {
                    "name": "C#4",
                    "midi": 61,
                    "time": 492.599999999976,
                    "velocity": 0.29133858267716534,
                    "duration": 0.14999999999997726
                },
                {
                    "name": "C#3",
                    "midi": 49,
                    "time": 492.89999999997593,
                    "velocity": 0.33070866141732286,
                    "duration": 0.14999999999997726
                },
                {
                    "name": "F4",
                    "midi": 65,
                    "time": 493.1999999999759,
                    "velocity": 0.29133858267716534,
                    "duration": 0.14999999999997726
                },
                {
                    "name": "B4",
                    "midi": 71,
                    "time": 493.1999999999759,
                    "velocity": 0.29133858267716534,
                    "duration": 0.14999999999997726
                },
                {
                    "name": "C#4",
                    "midi": 61,
                    "time": 493.1999999999759,
                    "velocity": 0.29133858267716534,
                    "duration": 0.14999999999997726
                },
                {
                    "name": "C5",
                    "midi": 72,
                    "time": 493.49999999997584,
                    "velocity": 0.33070866141732286,
                    "duration": 0.14999999999997726
                },
                {
                    "name": "G#4",
                    "midi": 68,
                    "time": 493.49999999997584,
                    "velocity": 0.29133858267716534,
                    "duration": 0.14999999999997726
                },
                {
                    "name": "F4",
                    "midi": 65,
                    "time": 493.7999999999758,
                    "velocity": 0.29133858267716534,
                    "duration": 0.14999999999997726
                },
                {
                    "name": "C#5",
                    "midi": 73,
                    "time": 493.7999999999758,
                    "velocity": 0.29133858267716534,
                    "duration": 0.14999999999997726
                },
                {
                    "name": "B4",
                    "midi": 71,
                    "time": 494.09999999997575,
                    "velocity": 0.3779527559055118,
                    "duration": 0.44999999999998863
                },
                {
                    "name": "G#4",
                    "midi": 68,
                    "time": 494.09999999997575,
                    "velocity": 0.33070866141732286,
                    "duration": 0.5999999999999659
                },
                {
                    "name": "C#5",
                    "midi": 73,
                    "time": 494.54999999997574,
                    "velocity": 0.29133858267716534,
                    "duration": 0.14999999999997726
                },
                {
                    "name": "F#3",
                    "midi": 54,
                    "time": 494.6999999999757,
                    "velocity": 0.33070866141732286,
                    "duration": 0.14999999999997726
                },
                {
                    "name": "F#4",
                    "midi": 66,
                    "time": 494.99999999997567,
                    "velocity": 0.29133858267716534,
                    "duration": 0.14999999999997726
                },
                {
                    "name": "C#4",
                    "midi": 61,
                    "time": 494.99999999997567,
                    "velocity": 0.29133858267716534,
                    "duration": 0.14999999999997726
                },
                {
                    "name": "A#4",
                    "midi": 70,
                    "time": 494.99999999997567,
                    "velocity": 0.29133858267716534,
                    "duration": 0.14999999999997726
                },
                {
                    "name": "C#3",
                    "midi": 49,
                    "time": 495.2999999999756,
                    "velocity": 0.33070866141732286,
                    "duration": 0.14999999999997726
                },
                {
                    "name": "A#4",
                    "midi": 70,
                    "time": 495.5999999999756,
                    "velocity": 0.29133858267716534,
                    "duration": 0.14999999999997726
                },
                {
                    "name": "F#4",
                    "midi": 66,
                    "time": 495.5999999999756,
                    "velocity": 0.29133858267716534,
                    "duration": 0.14999999999997726
                },
                {
                    "name": "C#4",
                    "midi": 61,
                    "time": 495.5999999999756,
                    "velocity": 0.29133858267716534,
                    "duration": 0.14999999999997726
                },
                {
                    "name": "C5",
                    "midi": 72,
                    "time": 495.89999999997553,
                    "velocity": 0.33070866141732286,
                    "duration": 0.14999999999997726
                },
                {
                    "name": "A4",
                    "midi": 69,
                    "time": 495.89999999997553,
                    "velocity": 0.29133858267716534,
                    "duration": 0.14999999999997726
                },
                {
                    "name": "A#4",
                    "midi": 70,
                    "time": 496.1999999999755,
                    "velocity": 0.29133858267716534,
                    "duration": 0.14999999999997726
                },
                {
                    "name": "C#5",
                    "midi": 73,
                    "time": 496.1999999999755,
                    "velocity": 0.29133858267716534,
                    "duration": 0.14999999999997726
                },
                {
                    "name": "A#4",
                    "midi": 70,
                    "time": 496.49999999997544,
                    "velocity": 0.3779527559055118,
                    "duration": 0.44999999999998863
                },
                {
                    "name": "F#4",
                    "midi": 66,
                    "time": 496.49999999997544,
                    "velocity": 0.33070866141732286,
                    "duration": 0.5999999999999659
                },
                {
                    "name": "C#5",
                    "midi": 73,
                    "time": 496.94999999997543,
                    "velocity": 0.29133858267716534,
                    "duration": 0.14999999999997726
                },
                {
                    "name": "G#3",
                    "midi": 56,
                    "time": 497.0999999999754,
                    "velocity": 0.33070866141732286,
                    "duration": 0.14999999999997726
                },
                {
                    "name": "C#4",
                    "midi": 61,
                    "time": 497.39999999997536,
                    "velocity": 0.29133858267716534,
                    "duration": 0.14999999999997726
                },
                {
                    "name": "F4",
                    "midi": 65,
                    "time": 497.39999999997536,
                    "velocity": 0.29133858267716534,
                    "duration": 0.14999999999997726
                },
                {
                    "name": "B4",
                    "midi": 71,
                    "time": 497.39999999997536,
                    "velocity": 0.29133858267716534,
                    "duration": 0.14999999999997726
                },
                {
                    "name": "C#3",
                    "midi": 49,
                    "time": 497.6999999999753,
                    "velocity": 0.33070866141732286,
                    "duration": 0.14999999999997726
                },
                {
                    "name": "B4",
                    "midi": 71,
                    "time": 497.9999999999753,
                    "velocity": 0.29133858267716534,
                    "duration": 0.14999999999997726
                },
                {
                    "name": "C#4",
                    "midi": 61,
                    "time": 497.9999999999753,
                    "velocity": 0.29133858267716534,
                    "duration": 0.14999999999997726
                },
                {
                    "name": "F4",
                    "midi": 65,
                    "time": 497.9999999999753,
                    "velocity": 0.29133858267716534,
                    "duration": 0.14999999999997726
                },
                {
                    "name": "G#4",
                    "midi": 68,
                    "time": 498.2999999999752,
                    "velocity": 0.29133858267716534,
                    "duration": 0.14999999999997726
                },
                {
                    "name": "C5",
                    "midi": 72,
                    "time": 498.2999999999752,
                    "velocity": 0.33070866141732286,
                    "duration": 0.14999999999997726
                },
                {
                    "name": "C#5",
                    "midi": 73,
                    "time": 498.5999999999752,
                    "velocity": 0.29133858267716534,
                    "duration": 0.14999999999997726
                },
                {
                    "name": "F4",
                    "midi": 65,
                    "time": 498.5999999999752,
                    "velocity": 0.29133858267716534,
                    "duration": 0.14999999999997726
                },
                {
                    "name": "B4",
                    "midi": 71,
                    "time": 498.89999999997514,
                    "velocity": 0.3779527559055118,
                    "duration": 0.44999999999998863
                },
                {
                    "name": "G#4",
                    "midi": 68,
                    "time": 498.89999999997514,
                    "velocity": 0.33070866141732286,
                    "duration": 0.5999999999999659
                },
                {
                    "name": "C#5",
                    "midi": 73,
                    "time": 499.3499999999751,
                    "velocity": 0.29133858267716534,
                    "duration": 0.14999999999997726
                },
                {
                    "name": "C6",
                    "midi": 84,
                    "time": 499.4999999999751,
                    "velocity": 0.3779527559055118,
                    "duration": 0.14999999999997726
                },
                {
                    "name": "G#5",
                    "midi": 80,
                    "time": 499.4999999999751,
                    "velocity": 0.29133858267716534,
                    "duration": 0.14999999999997726
                },
                {
                    "name": "C#6",
                    "midi": 85,
                    "time": 499.79999999997506,
                    "velocity": 0.3779527559055118,
                    "duration": 0.14999999999997726
                },
                {
                    "name": "F5",
                    "midi": 77,
                    "time": 499.79999999997506,
                    "velocity": 0.29133858267716534,
                    "duration": 0.14999999999997726
                },
                {
                    "name": "B5",
                    "midi": 83,
                    "time": 500.099999999975,
                    "velocity": 0.4409448818897638,
                    "duration": 0.44999999999998863
                },
                {
                    "name": "G#5",
                    "midi": 80,
                    "time": 500.099999999975,
                    "velocity": 0.33070866141732286,
                    "duration": 0.5999999999999659
                },
                {
                    "name": "C#6",
                    "midi": 85,
                    "time": 500.549999999975,
                    "velocity": 0.29133858267716534,
                    "duration": 0.14999999999997726
                },
                {
                    "name": "C6",
                    "midi": 84,
                    "time": 500.699999999975,
                    "velocity": 0.3779527559055118,
                    "duration": 0.14999999999997726
                },
                {
                    "name": "G#5",
                    "midi": 80,
                    "time": 500.699999999975,
                    "velocity": 0.29133858267716534,
                    "duration": 0.14999999999997726
                },
                {
                    "name": "F5",
                    "midi": 77,
                    "time": 500.99999999997493,
                    "velocity": 0.29133858267716534,
                    "duration": 0.14999999999997726
                },
                {
                    "name": "C#6",
                    "midi": 85,
                    "time": 500.99999999997493,
                    "velocity": 0.3858267716535433,
                    "duration": 0.14999999999997726
                },
                {
                    "name": "D#6",
                    "midi": 87,
                    "time": 501.2999999999749,
                    "velocity": 0.4409448818897638,
                    "duration": 0.44999999999998863
                },
                {
                    "name": "B5",
                    "midi": 83,
                    "time": 501.2999999999749,
                    "velocity": 0.33070866141732286,
                    "duration": 0.44999999999998863
                },
                {
                    "name": "G#5",
                    "midi": 80,
                    "time": 501.7499999999749,
                    "velocity": 0.2992125984251969,
                    "duration": 0.14999999999997726
                },
                {
                    "name": "C#6",
                    "midi": 85,
                    "time": 501.7499999999749,
                    "velocity": 0.29133858267716534,
                    "duration": 0.14999999999997726
                },
                {
                    "name": "F#3",
                    "midi": 54,
                    "time": 506.69999999997486,
                    "velocity": 0.33070866141732286,
                    "duration": 0.14999999999997726
                },
                {
                    "name": "F#4",
                    "midi": 66,
                    "time": 506.9999999999748,
                    "velocity": 0.23622047244094488,
                    "duration": 0.14999999999997726
                },
                {
                    "name": "A#4",
                    "midi": 70,
                    "time": 506.9999999999748,
                    "velocity": 0.28346456692913385,
                    "duration": 0.14999999999997726
                },
                {
                    "name": "C#4",
                    "midi": 61,
                    "time": 506.9999999999748,
                    "velocity": 0.23622047244094488,
                    "duration": 0.14999999999997726
                },
                {
                    "name": "C#3",
                    "midi": 49,
                    "time": 507.2999999999748,
                    "velocity": 0.28346456692913385,
                    "duration": 0.14999999999997726
                },
                {
                    "name": "C#4",
                    "midi": 61,
                    "time": 507.5999999999747,
                    "velocity": 0.23622047244094488,
                    "duration": 0.14999999999997726
                },
                {
                    "name": "A#4",
                    "midi": 70,
                    "time": 507.5999999999747,
                    "velocity": 0.28346456692913385,
                    "duration": 0.14999999999997726
                },
                {
                    "name": "F#4",
                    "midi": 66,
                    "time": 507.5999999999747,
                    "velocity": 0.23622047244094488,
                    "duration": 0.14999999999997726
                },
                {
                    "name": "F#3",
                    "midi": 54,
                    "time": 507.8999999999747,
                    "velocity": 0.33070866141732286,
                    "duration": 0.14999999999997726
                },
                {
                    "name": "F#4",
                    "midi": 66,
                    "time": 508.19999999997464,
                    "velocity": 0.28346456692913385,
                    "duration": 0.14999999999997726
                },
                {
                    "name": "C#4",
                    "midi": 61,
                    "time": 508.19999999997464,
                    "velocity": 0.28346456692913385,
                    "duration": 0.14999999999997726
                },
                {
                    "name": "A4",
                    "midi": 69,
                    "time": 508.19999999997464,
                    "velocity": 0.28346456692913385,
                    "duration": 0.14999999999997726
                },
                {
                    "name": "C#3",
                    "midi": 49,
                    "time": 508.4999999999746,
                    "velocity": 0.28346456692913385,
                    "duration": 0.14999999999997726
                },
                {
                    "name": "C#4",
                    "midi": 61,
                    "time": 508.79999999997455,
                    "velocity": 0.23622047244094488,
                    "duration": 0.14999999999997726
                },
                {
                    "name": "A4",
                    "midi": 69,
                    "time": 508.79999999997455,
                    "velocity": 0.28346456692913385,
                    "duration": 0.14999999999997726
                },
                {
                    "name": "F#4",
                    "midi": 66,
                    "time": 508.79999999997455,
                    "velocity": 0.23622047244094488,
                    "duration": 0.14999999999997726
                },
                {
                    "name": "G#3",
                    "midi": 56,
                    "time": 509.0999999999745,
                    "velocity": 0.33070866141732286,
                    "duration": 0.14999999999997726
                },
                {
                    "name": "C#4",
                    "midi": 61,
                    "time": 509.39999999997445,
                    "velocity": 0.28346456692913385,
                    "duration": 0.14999999999997726
                },
                {
                    "name": "B4",
                    "midi": 71,
                    "time": 509.39999999997445,
                    "velocity": 0.28346456692913385,
                    "duration": 0.14999999999997726
                },
                {
                    "name": "F4",
                    "midi": 65,
                    "time": 509.39999999997445,
                    "velocity": 0.28346456692913385,
                    "duration": 0.14999999999997726
                },
                {
                    "name": "C#3",
                    "midi": 49,
                    "time": 509.6999999999744,
                    "velocity": 0.28346456692913385,
                    "duration": 0.14999999999997726
                },
                {
                    "name": "B4",
                    "midi": 71,
                    "time": 509.99999999997436,
                    "velocity": 0.28346456692913385,
                    "duration": 0.14999999999997726
                },
                {
                    "name": "F4",
                    "midi": 65,
                    "time": 509.99999999997436,
                    "velocity": 0.23622047244094488,
                    "duration": 0.14999999999997726
                },
                {
                    "name": "C#4",
                    "midi": 61,
                    "time": 509.99999999997436,
                    "velocity": 0.23622047244094488,
                    "duration": 0.14999999999997726
                },
                {
                    "name": "G#3",
                    "midi": 56,
                    "time": 510.2999999999743,
                    "velocity": 0.33070866141732286,
                    "duration": 0.14999999999997726
                },
                {
                    "name": "B4",
                    "midi": 71,
                    "time": 510.5999999999743,
                    "velocity": 0.28346456692913385,
                    "duration": 0.14999999999997726
                },
                {
                    "name": "F4",
                    "midi": 65,
                    "time": 510.5999999999743,
                    "velocity": 0.28346456692913385,
                    "duration": 0.14999999999997726
                },
                {
                    "name": "C#4",
                    "midi": 61,
                    "time": 510.5999999999743,
                    "velocity": 0.28346456692913385,
                    "duration": 0.14999999999997726
                },
                {
                    "name": "C#3",
                    "midi": 49,
                    "time": 510.8999999999742,
                    "velocity": 0.28346456692913385,
                    "duration": 0.14999999999997726
                },
                {
                    "name": "B4",
                    "midi": 71,
                    "time": 511.1999999999742,
                    "velocity": 0.28346456692913385,
                    "duration": 0.14999999999997726
                },
                {
                    "name": "C#4",
                    "midi": 61,
                    "time": 511.1999999999742,
                    "velocity": 0.23622047244094488,
                    "duration": 0.14999999999997726
                },
                {
                    "name": "F4",
                    "midi": 65,
                    "time": 511.1999999999742,
                    "velocity": 0.23622047244094488,
                    "duration": 0.14999999999997726
                },
                {
                    "name": "F#3",
                    "midi": 54,
                    "time": 511.49999999997414,
                    "velocity": 0.33070866141732286,
                    "duration": 0.14999999999997726
                },
                {
                    "name": "C#4",
                    "midi": 61,
                    "time": 511.7999999999741,
                    "velocity": 0.28346456692913385,
                    "duration": 0.14999999999997726
                },
                {
                    "name": "A#4",
                    "midi": 70,
                    "time": 511.7999999999741,
                    "velocity": 0.28346456692913385,
                    "duration": 0.14999999999997726
                },
                {
                    "name": "F#4",
                    "midi": 66,
                    "time": 511.7999999999741,
                    "velocity": 0.28346456692913385,
                    "duration": 0.14999999999997726
                },
                {
                    "name": "C#3",
                    "midi": 49,
                    "time": 512.0999999999741,
                    "velocity": 0.28346456692913385,
                    "duration": 0.14999999999997726
                },
                {
                    "name": "A#4",
                    "midi": 70,
                    "time": 512.399999999974,
                    "velocity": 0.28346456692913385,
                    "duration": 0.14999999999997726
                },
                {
                    "name": "F#4",
                    "midi": 66,
                    "time": 512.399999999974,
                    "velocity": 0.23622047244094488,
                    "duration": 0.14999999999997726
                },
                {
                    "name": "C#4",
                    "midi": 61,
                    "time": 512.399999999974,
                    "velocity": 0.23622047244094488,
                    "duration": 0.14999999999997726
                },
                {
                    "name": "F#3",
                    "midi": 54,
                    "time": 512.699999999974,
                    "velocity": 0.33070866141732286,
                    "duration": 0.14999999999997726
                },
                {
                    "name": "C#4",
                    "midi": 61,
                    "time": 512.999999999974,
                    "velocity": 0.28346456692913385,
                    "duration": 0.14999999999997726
                },
                {
                    "name": "A4",
                    "midi": 69,
                    "time": 512.999999999974,
                    "velocity": 0.28346456692913385,
                    "duration": 0.14999999999997726
                },
                {
                    "name": "F#4",
                    "midi": 66,
                    "time": 512.999999999974,
                    "velocity": 0.28346456692913385,
                    "duration": 0.14999999999997726
                },
                {
                    "name": "C#3",
                    "midi": 49,
                    "time": 513.2999999999739,
                    "velocity": 0.28346456692913385,
                    "duration": 0.14999999999997726
                },
                {
                    "name": "A4",
                    "midi": 69,
                    "time": 513.5999999999739,
                    "velocity": 0.28346456692913385,
                    "duration": 0.14999999999997726
                },
                {
                    "name": "F#4",
                    "midi": 66,
                    "time": 513.5999999999739,
                    "velocity": 0.23622047244094488,
                    "duration": 0.14999999999997726
                },
                {
                    "name": "C#4",
                    "midi": 61,
                    "time": 513.5999999999739,
                    "velocity": 0.23622047244094488,
                    "duration": 0.14999999999997726
                },
                {
                    "name": "G#3",
                    "midi": 56,
                    "time": 513.8999999999738,
                    "velocity": 0.33070866141732286,
                    "duration": 0.14999999999997726
                },
                {
                    "name": "B4",
                    "midi": 71,
                    "time": 514.1999999999738,
                    "velocity": 0.28346456692913385,
                    "duration": 0.14999999999997726
                },
                {
                    "name": "F4",
                    "midi": 65,
                    "time": 514.1999999999738,
                    "velocity": 0.28346456692913385,
                    "duration": 0.14999999999997726
                },
                {
                    "name": "C#4",
                    "midi": 61,
                    "time": 514.1999999999738,
                    "velocity": 0.28346456692913385,
                    "duration": 0.14999999999997726
                },
                {
                    "name": "C#3",
                    "midi": 49,
                    "time": 514.4999999999737,
                    "velocity": 0.28346456692913385,
                    "duration": 0.14999999999997726
                },
                {
                    "name": "B4",
                    "midi": 71,
                    "time": 514.7999999999737,
                    "velocity": 0.28346456692913385,
                    "duration": 0.14999999999997726
                },
                {
                    "name": "C#4",
                    "midi": 61,
                    "time": 514.7999999999737,
                    "velocity": 0.23622047244094488,
                    "duration": 0.14999999999997726
                },
                {
                    "name": "F4",
                    "midi": 65,
                    "time": 514.7999999999737,
                    "velocity": 0.23622047244094488,
                    "duration": 0.14999999999997726
                },
                {
                    "name": "G#3",
                    "midi": 56,
                    "time": 515.0999999999736,
                    "velocity": 0.33070866141732286,
                    "duration": 0.14999999999997726
                },
                {
                    "name": "C#4",
                    "midi": 61,
                    "time": 515.3999999999736,
                    "velocity": 0.28346456692913385,
                    "duration": 0.14999999999997726
                },
                {
                    "name": "B4",
                    "midi": 71,
                    "time": 515.3999999999736,
                    "velocity": 0.28346456692913385,
                    "duration": 0.14999999999997726
                },
                {
                    "name": "F4",
                    "midi": 65,
                    "time": 515.3999999999736,
                    "velocity": 0.28346456692913385,
                    "duration": 0.14999999999997726
                },
                {
                    "name": "C#3",
                    "midi": 49,
                    "time": 515.6999999999736,
                    "velocity": 0.28346456692913385,
                    "duration": 0.14999999999997726
                },
                {
                    "name": "B4",
                    "midi": 71,
                    "time": 515.9999999999735,
                    "velocity": 0.28346456692913385,
                    "duration": 0.14999999999997726
                },
                {
                    "name": "F4",
                    "midi": 65,
                    "time": 515.9999999999735,
                    "velocity": 0.23622047244094488,
                    "duration": 0.14999999999997726
                },
                {
                    "name": "C#4",
                    "midi": 61,
                    "time": 515.9999999999735,
                    "velocity": 0.23622047244094488,
                    "duration": 0.14999999999997726
                },
                {
                    "name": "F#3",
                    "midi": 54,
                    "time": 516.2999999999735,
                    "velocity": 0.33070866141732286,
                    "duration": 0.14999999999997726
                },
                {
                    "name": "F#4",
                    "midi": 66,
                    "time": 516.5999999999734,
                    "velocity": 0.28346456692913385,
                    "duration": 0.14999999999997726
                },
                {
                    "name": "C#4",
                    "midi": 61,
                    "time": 516.5999999999734,
                    "velocity": 0.28346456692913385,
                    "duration": 0.14999999999997726
                },
                {
                    "name": "A#4",
                    "midi": 70,
                    "time": 516.5999999999734,
                    "velocity": 0.28346456692913385,
                    "duration": 0.14999999999997726
                },
                {
                    "name": "C#3",
                    "midi": 49,
                    "time": 516.8999999999734,
                    "velocity": 0.28346456692913385,
                    "duration": 0.14999999999997726
                },
                {
                    "name": "A#4",
                    "midi": 70,
                    "time": 517.1999999999733,
                    "velocity": 0.28346456692913385,
                    "duration": 0.14999999999997726
                },
                {
                    "name": "C#4",
                    "midi": 61,
                    "time": 517.1999999999733,
                    "velocity": 0.23622047244094488,
                    "duration": 0.14999999999997726
                },
                {
                    "name": "F#4",
                    "midi": 66,
                    "time": 517.1999999999733,
                    "velocity": 0.23622047244094488,
                    "duration": 0.14999999999997726
                },
                {
                    "name": "F#3",
                    "midi": 54,
                    "time": 517.4999999999733,
                    "velocity": 0.33070866141732286,
                    "duration": 0.14999999999997726
                },
                {
                    "name": "A4",
                    "midi": 69,
                    "time": 517.7999999999732,
                    "velocity": 0.28346456692913385,
                    "duration": 0.14999999999997726
                },
                {
                    "name": "C#4",
                    "midi": 61,
                    "time": 517.7999999999732,
                    "velocity": 0.28346456692913385,
                    "duration": 0.14999999999997726
                },
                {
                    "name": "F#4",
                    "midi": 66,
                    "time": 517.7999999999732,
                    "velocity": 0.28346456692913385,
                    "duration": 0.14999999999997726
                },
                {
                    "name": "C#3",
                    "midi": 49,
                    "time": 518.0999999999732,
                    "velocity": 0.28346456692913385,
                    "duration": 0.14999999999997726
                },
                {
                    "name": "F#4",
                    "midi": 66,
                    "time": 518.3999999999731,
                    "velocity": 0.23622047244094488,
                    "duration": 0.14999999999997726
                },
                {
                    "name": "C#4",
                    "midi": 61,
                    "time": 518.3999999999731,
                    "velocity": 0.23622047244094488,
                    "duration": 0.14999999999997726
                },
                {
                    "name": "A4",
                    "midi": 69,
                    "time": 518.3999999999731,
                    "velocity": 0.28346456692913385,
                    "duration": 0.14999999999997726
                },
                {
                    "name": "G#3",
                    "midi": 56,
                    "time": 518.6999999999731,
                    "velocity": 0.33070866141732286,
                    "duration": 0.14999999999997726
                },
                {
                    "name": "F4",
                    "midi": 65,
                    "time": 518.999999999973,
                    "velocity": 0.28346456692913385,
                    "duration": 0.14999999999997726
                },
                {
                    "name": "C#4",
                    "midi": 61,
                    "time": 518.999999999973,
                    "velocity": 0.28346456692913385,
                    "duration": 0.14999999999997726
                },
                {
                    "name": "B4",
                    "midi": 71,
                    "time": 518.999999999973,
                    "velocity": 0.28346456692913385,
                    "duration": 0.14999999999997726
                },
                {
                    "name": "C#3",
                    "midi": 49,
                    "time": 519.299999999973,
                    "velocity": 0.28346456692913385,
                    "duration": 0.14999999999997726
                },
                {
                    "name": "C#4",
                    "midi": 61,
                    "time": 519.599999999973,
                    "velocity": 0.23622047244094488,
                    "duration": 0.14999999999997726
                },
                {
                    "name": "B4",
                    "midi": 71,
                    "time": 519.599999999973,
                    "velocity": 0.28346456692913385,
                    "duration": 0.14999999999997726
                },
                {
                    "name": "F4",
                    "midi": 65,
                    "time": 519.599999999973,
                    "velocity": 0.23622047244094488,
                    "duration": 0.14999999999997726
                },
                {
                    "name": "C#2",
                    "midi": 37,
                    "time": 521.099999999973,
                    "velocity": 0.30708661417322836,
                    "duration": 0.11249999999995453
                },
                {
                    "name": "D#2",
                    "midi": 39,
                    "time": 521.3999999999729,
                    "velocity": 0.3228346456692913,
                    "duration": 0.11249999999995453
                },
                {
                    "name": "F2",
                    "midi": 41,
                    "time": 521.6999999999729,
                    "velocity": 0.33070866141732286,
                    "duration": 0.11249999999995453
                },
                {
                    "name": "F#2",
                    "midi": 42,
                    "time": 521.9999999999728,
                    "velocity": 0.3464566929133858,
                    "duration": 0.11249999999995453
                },
                {
                    "name": "C#3",
                    "midi": 49,
                    "time": 522.2999999999728,
                    "velocity": 0.36220472440944884,
                    "duration": 0.11249999999995453
                },
                {
                    "name": "G#2",
                    "midi": 44,
                    "time": 522.2999999999728,
                    "velocity": 0.36220472440944884,
                    "duration": 0.11249999999995453
                },
                {
                    "name": "G2",
                    "midi": 43,
                    "time": 522.5999999999727,
                    "velocity": 0.3464566929133858,
                    "duration": 0.11249999999995453
                },
                {
                    "name": "G#2",
                    "midi": 44,
                    "time": 522.8999999999727,
                    "velocity": 0.33858267716535434,
                    "duration": 0.11249999999995453
                },
                {
                    "name": "F2",
                    "midi": 41,
                    "time": 523.1999999999726,
                    "velocity": 0.3228346456692913,
                    "duration": 0.11249999999995453
                },
                {
                    "name": "F#2",
                    "midi": 42,
                    "time": 523.4999999999726,
                    "velocity": 0.30708661417322836,
                    "duration": 0.11249999999995453
                },
                {
                    "name": "G#2",
                    "midi": 44,
                    "time": 523.7999999999726,
                    "velocity": 0.3228346456692913,
                    "duration": 0.11249999999995453
                },
                {
                    "name": "A#2",
                    "midi": 46,
                    "time": 524.0999999999725,
                    "velocity": 0.33070866141732286,
                    "duration": 0.11249999999995453
                },
                {
                    "name": "B2",
                    "midi": 47,
                    "time": 524.3999999999725,
                    "velocity": 0.3464566929133858,
                    "duration": 0.11249999999995453
                },
                {
                    "name": "C#3",
                    "midi": 49,
                    "time": 524.6999999999724,
                    "velocity": 0.36220472440944884,
                    "duration": 0.11249999999995453
                },
                {
                    "name": "F#3",
                    "midi": 54,
                    "time": 524.6999999999724,
                    "velocity": 0.36220472440944884,
                    "duration": 0.11249999999995453
                },
                {
                    "name": "C3",
                    "midi": 48,
                    "time": 524.9999999999724,
                    "velocity": 0.3464566929133858,
                    "duration": 0.11249999999995453
                },
                {
                    "name": "C#3",
                    "midi": 49,
                    "time": 525.2999999999723,
                    "velocity": 0.33858267716535434,
                    "duration": 0.11249999999995453
                },
                {
                    "name": "A#2",
                    "midi": 46,
                    "time": 525.5999999999723,
                    "velocity": 0.3228346456692913,
                    "duration": 0.11249999999995453
                },
                {
                    "name": "B2",
                    "midi": 47,
                    "time": 525.8999999999722,
                    "velocity": 0.3858267716535433,
                    "duration": 0.11249999999995453
                },
                {
                    "name": "D#3",
                    "midi": 51,
                    "time": 526.1999999999722,
                    "velocity": 0.33858267716535434,
                    "duration": 0.11249999999995453
                },
                {
                    "name": "G#2",
                    "midi": 44,
                    "time": 526.4999999999721,
                    "velocity": 0.3937007874015748,
                    "duration": 0.11249999999995453
                },
                {
                    "name": "B2",
                    "midi": 47,
                    "time": 526.7999999999721,
                    "velocity": 0.36220472440944884,
                    "duration": 0.11249999999995453
                },
                {
                    "name": "F2",
                    "midi": 41,
                    "time": 527.099999999972,
                    "velocity": 0.3937007874015748,
                    "duration": 0.11249999999995453
                },
                {
                    "name": "G#2",
                    "midi": 44,
                    "time": 527.399999999972,
                    "velocity": 0.3464566929133858,
                    "duration": 0.11249999999995453
                },
                {
                    "name": "C#2",
                    "midi": 37,
                    "time": 527.699999999972,
                    "velocity": 0.4015748031496063,
                    "duration": 0.11249999999995453
                },
                {
                    "name": "F2",
                    "midi": 41,
                    "time": 527.9999999999719,
                    "velocity": 0.3700787401574803,
                    "duration": 0.11249999999995453
                },
                {
                    "name": "F#2",
                    "midi": 42,
                    "time": 528.2999999999719,
                    "velocity": 0.4015748031496063,
                    "duration": 0.11249999999995453
                },
                {
                    "name": "A#2",
                    "midi": 46,
                    "time": 528.5999999999718,
                    "velocity": 0.3543307086614173,
                    "duration": 0.11249999999995453
                },
                {
                    "name": "C#2",
                    "midi": 37,
                    "time": 528.8999999999718,
                    "velocity": 0.41732283464566927,
                    "duration": 0.11249999999995453
                },
                {
                    "name": "F#2",
                    "midi": 42,
                    "time": 529.1999999999717,
                    "velocity": 0.3779527559055118,
                    "duration": 0.11249999999995453
                },
                {
                    "name": "A#1",
                    "midi": 34,
                    "time": 529.4999999999717,
                    "velocity": 0.4094488188976378,
                    "duration": 0.11249999999995453
                },
                {
                    "name": "C#2",
                    "midi": 37,
                    "time": 529.7999999999716,
                    "velocity": 0.36220472440944884,
                    "duration": 0.11249999999995453
                },
                {
                    "name": "F#1",
                    "midi": 30,
                    "time": 530.0999999999716,
                    "velocity": 0.4251968503937008,
                    "duration": 0.11249999999995453
                },
                {
                    "name": "F#2",
                    "midi": 42,
                    "time": 530.0999999999716,
                    "velocity": 0.4251968503937008,
                    "duration": 0.11249999999995453
                },
                {
                    "name": "A#2",
                    "midi": 46,
                    "time": 530.3999999999716,
                    "velocity": 0.3937007874015748,
                    "duration": 0.11249999999995453
                },
                {
                    "name": "A#1",
                    "midi": 34,
                    "time": 530.3999999999716,
                    "velocity": 0.3937007874015748,
                    "duration": 0.11249999999995453
                },
                {
                    "name": "C#3",
                    "midi": 49,
                    "time": 530.6999999999715,
                    "velocity": 0.3464566929133858,
                    "duration": 0.14999999999997726
                },
                {
                    "name": "C#2",
                    "midi": 37,
                    "time": 530.6999999999715,
                    "velocity": 0.3464566929133858,
                    "duration": 0.15125000000000455
                },
                {
                    "name": "G#2",
                    "midi": 44,
                    "time": 530.6999999999715,
                    "velocity": 0.3464566929133858,
                    "duration": 0.14999999999997726
                },
                {
                    "name": "F2",
                    "midi": 41,
                    "time": 530.6999999999715,
                    "velocity": 0.3464566929133858,
                    "duration": 0.14999999999997726
                },
                {
                    "name": "D#2",
                    "midi": 39,
                    "time": 530.9999999999715,
                    "velocity": 0.3700787401574803,
                    "duration": 0.15125000000000455
                },
                {
                    "name": "D#3",
                    "midi": 51,
                    "time": 530.9999999999715,
                    "velocity": 0.3700787401574803,
                    "duration": 0.14999999999997726
                },
                {
                    "name": "F3",
                    "midi": 53,
                    "time": 531.2999999999714,
                    "velocity": 0.3779527559055118,
                    "duration": 0.14999999999997726
                },
                {
                    "name": "F2",
                    "midi": 41,
                    "time": 531.2999999999714,
                    "velocity": 0.3779527559055118,
                    "duration": 0.15125000000000455
                },
                {
                    "name": "F#2",
                    "midi": 42,
                    "time": 531.5999999999714,
                    "velocity": 0.4015748031496063,
                    "duration": 0.15125000000000455
                },
                {
                    "name": "F#3",
                    "midi": 54,
                    "time": 531.5999999999714,
                    "velocity": 0.4015748031496063,
                    "duration": 0.14999999999997726
                },
                {
                    "name": "G#2",
                    "midi": 44,
                    "time": 531.8999999999713,
                    "velocity": 0.4251968503937008,
                    "duration": 0.15125000000000455
                },
                {
                    "name": "G#3",
                    "midi": 56,
                    "time": 531.8999999999713,
                    "velocity": 0.4251968503937008,
                    "duration": 0.14999999999997726
                },
                {
                    "name": "C#3",
                    "midi": 49,
                    "time": 531.8999999999713,
                    "velocity": 0.4251968503937008,
                    "duration": 0.15125000000000455
                },
                {
                    "name": "G2",
                    "midi": 43,
                    "time": 532.1999999999713,
                    "velocity": 0.4094488188976378,
                    "duration": 0.15125000000000455
                },
                {
                    "name": "G3",
                    "midi": 55,
                    "time": 532.1999999999713,
                    "velocity": 0.4094488188976378,
                    "duration": 0.14999999999997726
                },
                {
                    "name": "G#3",
                    "midi": 56,
                    "time": 532.4999999999712,
                    "velocity": 0.4015748031496063,
                    "duration": 0.14999999999997726
                },
                {
                    "name": "G#2",
                    "midi": 44,
                    "time": 532.4999999999712,
                    "velocity": 0.4015748031496063,
                    "duration": 0.15125000000000455
                },
                {
                    "name": "F2",
                    "midi": 41,
                    "time": 532.7999999999712,
                    "velocity": 0.3858267716535433,
                    "duration": 0.15125000000000455
                },
                {
                    "name": "F3",
                    "midi": 53,
                    "time": 532.7999999999712,
                    "velocity": 0.3858267716535433,
                    "duration": 0.14999999999997726
                },
                {
                    "name": "F#2",
                    "midi": 42,
                    "time": 533.0999999999711,
                    "velocity": 0.3700787401574803,
                    "duration": 0.15125000000000455
                },
                {
                    "name": "A#2",
                    "midi": 46,
                    "time": 533.0999999999711,
                    "velocity": 0.3700787401574803,
                    "duration": 0.14999999999997726
                },
                {
                    "name": "F#3",
                    "midi": 54,
                    "time": 533.0999999999711,
                    "velocity": 0.3700787401574803,
                    "duration": 0.14999999999997726
                },
                {
                    "name": "C#3",
                    "midi": 49,
                    "time": 533.0999999999711,
                    "velocity": 0.3700787401574803,
                    "duration": 0.14999999999997726
                },
                {
                    "name": "G#2",
                    "midi": 44,
                    "time": 533.3999999999711,
                    "velocity": 0.3937007874015748,
                    "duration": 0.15125000000000455
                },
                {
                    "name": "G#3",
                    "midi": 56,
                    "time": 533.3999999999711,
                    "velocity": 0.3937007874015748,
                    "duration": 0.14999999999997726
                },
                {
                    "name": "A#3",
                    "midi": 58,
                    "time": 533.699999999971,
                    "velocity": 0.4094488188976378,
                    "duration": 0.14999999999997726
                },
                {
                    "name": "A#2",
                    "midi": 46,
                    "time": 533.699999999971,
                    "velocity": 0.4094488188976378,
                    "duration": 0.15125000000000455
                },
                {
                    "name": "B2",
                    "midi": 47,
                    "time": 533.999999999971,
                    "velocity": 0.4330708661417323,
                    "duration": 0.15125000000000455
                },
                {
                    "name": "B3",
                    "midi": 59,
                    "time": 533.999999999971,
                    "velocity": 0.4330708661417323,
                    "duration": 0.14999999999997726
                },
                {
                    "name": "C#4",
                    "midi": 61,
                    "time": 534.299999999971,
                    "velocity": 0.44881889763779526,
                    "duration": 0.14999999999997726
                },
                {
                    "name": "C#3",
                    "midi": 49,
                    "time": 534.299999999971,
                    "velocity": 0.44881889763779526,
                    "duration": 0.15125000000000455
                },
                {
                    "name": "F#3",
                    "midi": 54,
                    "time": 534.299999999971,
                    "velocity": 0.44881889763779526,
                    "duration": 0.15125000000000455
                },
                {
                    "name": "C3",
                    "midi": 48,
                    "time": 534.5999999999709,
                    "velocity": 0.4330708661417323,
                    "duration": 0.15125000000000455
                },
                {
                    "name": "C4",
                    "midi": 60,
                    "time": 534.5999999999709,
                    "velocity": 0.4330708661417323,
                    "duration": 0.14999999999997726
                },
                {
                    "name": "C#4",
                    "midi": 61,
                    "time": 534.8999999999709,
                    "velocity": 0.4330708661417323,
                    "duration": 0.14999999999997726
                },
                {
                    "name": "C#3",
                    "midi": 49,
                    "time": 534.8999999999709,
                    "velocity": 0.4330708661417323,
                    "duration": 0.15125000000000455
                },
                {
                    "name": "F#3",
                    "midi": 54,
                    "time": 534.8999999999709,
                    "velocity": 0.4330708661417323,
                    "duration": 0.14999999999997726
                },
                {
                    "name": "A#2",
                    "midi": 46,
                    "time": 535.1999999999708,
                    "velocity": 0.4094488188976378,
                    "duration": 0.15125000000000455
                },
                {
                    "name": "A#3",
                    "midi": 58,
                    "time": 535.1999999999708,
                    "velocity": 0.4094488188976378,
                    "duration": 0.14999999999997726
                },
                {
                    "name": "C#3",
                    "midi": 49,
                    "time": 535.4999999999708,
                    "velocity": 0.3937007874015748,
                    "duration": 0.15125000000000455
                },
                {
                    "name": "F3",
                    "midi": 53,
                    "time": 535.4999999999708,
                    "velocity": 0.3937007874015748,
                    "duration": 0.14999999999997726
                },
                {
                    "name": "G#3",
                    "midi": 56,
                    "time": 535.4999999999708,
                    "velocity": 0.3937007874015748,
                    "duration": 0.14999999999997726
                },
                {
                    "name": "C#4",
                    "midi": 61,
                    "time": 535.4999999999708,
                    "velocity": 0.3937007874015748,
                    "duration": 0.14999999999997726
                },
                {
                    "name": "D#3",
                    "midi": 51,
                    "time": 535.7999999999707,
                    "velocity": 0.41732283464566927,
                    "duration": 0.15125000000000455
                },
                {
                    "name": "D#4",
                    "midi": 63,
                    "time": 535.7999999999707,
                    "velocity": 0.41732283464566927,
                    "duration": 0.14999999999997726
                },
                {
                    "name": "F3",
                    "midi": 53,
                    "time": 536.0999999999707,
                    "velocity": 0.4330708661417323,
                    "duration": 0.15125000000000455
                },
                {
                    "name": "F4",
                    "midi": 65,
                    "time": 536.0999999999707,
                    "velocity": 0.4330708661417323,
                    "duration": 0.14999999999997726
                },
                {
                    "name": "F#3",
                    "midi": 54,
                    "time": 536.3999999999706,
                    "velocity": 0.4566929133858268,
                    "duration": 0.15125000000000455
                },
                {
                    "name": "F#4",
                    "midi": 66,
                    "time": 536.3999999999706,
                    "velocity": 0.4566929133858268,
                    "duration": 0.14999999999997726
                },
                {
                    "name": "C#4",
                    "midi": 61,
                    "time": 536.6999999999706,
                    "velocity": 0.48031496062992124,
                    "duration": 0.15125000000000455
                },
                {
                    "name": "G#3",
                    "midi": 56,
                    "time": 536.6999999999706,
                    "velocity": 0.48031496062992124,
                    "duration": 0.15125000000000455
                },
                {
                    "name": "G#4",
                    "midi": 68,
                    "time": 536.6999999999706,
                    "velocity": 0.48031496062992124,
                    "duration": 0.14999999999997726
                },
                {
                    "name": "G4",
                    "midi": 67,
                    "time": 536.9999999999706,
                    "velocity": 0.4566929133858268,
                    "duration": 0.14999999999997726
                },
                {
                    "name": "G3",
                    "midi": 55,
                    "time": 536.9999999999706,
                    "velocity": 0.4566929133858268,
                    "duration": 0.14999999999997726
                },
                {
                    "name": "C#4",
                    "midi": 61,
                    "time": 537.2999999999705,
                    "velocity": 0.4566929133858268,
                    "duration": 0.14999999999997726
                },
                {
                    "name": "G#4",
                    "midi": 68,
                    "time": 537.2999999999705,
                    "velocity": 0.4566929133858268,
                    "duration": 0.14999999999997726
                },
                {
                    "name": "G#3",
                    "midi": 56,
                    "time": 537.2999999999705,
                    "velocity": 0.4566929133858268,
                    "duration": 0.15125000000000455
                },
                {
                    "name": "F4",
                    "midi": 65,
                    "time": 537.5999999999705,
                    "velocity": 0.4330708661417323,
                    "duration": 0.14999999999997726
                },
                {
                    "name": "F3",
                    "midi": 53,
                    "time": 537.5999999999705,
                    "velocity": 0.4330708661417323,
                    "duration": 0.15125000000000455
                },
                {
                    "name": "F#4",
                    "midi": 66,
                    "time": 537.8999999999704,
                    "velocity": 0.41732283464566927,
                    "duration": 0.14999999999997726
                },
                {
                    "name": "A#3",
                    "midi": 58,
                    "time": 537.8999999999704,
                    "velocity": 0.41732283464566927,
                    "duration": 0.14999999999997726
                },
                {
                    "name": "F#3",
                    "midi": 54,
                    "time": 537.8999999999704,
                    "velocity": 0.41732283464566927,
                    "duration": 0.15125000000000455
                },
                {
                    "name": "C#4",
                    "midi": 61,
                    "time": 537.8999999999704,
                    "velocity": 0.41732283464566927,
                    "duration": 0.14999999999997726
                },
                {
                    "name": "G#4",
                    "midi": 68,
                    "time": 538.1999999999704,
                    "velocity": 0.4409448818897638,
                    "duration": 0.14999999999997726
                },
                {
                    "name": "G#3",
                    "midi": 56,
                    "time": 538.1999999999704,
                    "velocity": 0.4409448818897638,
                    "duration": 0.15125000000000455
                },
                {
                    "name": "A#4",
                    "midi": 70,
                    "time": 538.4999999999703,
                    "velocity": 0.4566929133858268,
                    "duration": 0.14999999999997726
                },
                {
                    "name": "A#3",
                    "midi": 58,
                    "time": 538.4999999999703,
                    "velocity": 0.4566929133858268,
                    "duration": 0.15125000000000455
                },
                {
                    "name": "B3",
                    "midi": 59,
                    "time": 538.7999999999703,
                    "velocity": 0.48031496062992124,
                    "duration": 0.15125000000000455
                },
                {
                    "name": "B4",
                    "midi": 71,
                    "time": 538.7999999999703,
                    "velocity": 0.48031496062992124,
                    "duration": 0.14999999999997726
                },
                {
                    "name": "C#5",
                    "midi": 73,
                    "time": 539.0999999999702,
                    "velocity": 0.5039370078740157,
                    "duration": 0.14999999999997726
                },
                {
                    "name": "C#4",
                    "midi": 61,
                    "time": 539.0999999999702,
                    "velocity": 0.5039370078740157,
                    "duration": 0.15125000000000455
                },
                {
                    "name": "F#4",
                    "midi": 66,
                    "time": 539.0999999999702,
                    "velocity": 0.5039370078740157,
                    "duration": 0.15125000000000455
                },
                {
                    "name": "C5",
                    "midi": 72,
                    "time": 539.3999999999702,
                    "velocity": 0.4881889763779528,
                    "duration": 0.14999999999997726
                },
                {
                    "name": "C4",
                    "midi": 60,
                    "time": 539.3999999999702,
                    "velocity": 0.4881889763779528,
                    "duration": 0.15125000000000455
                },
                {
                    "name": "C#5",
                    "midi": 73,
                    "time": 539.6999999999701,
                    "velocity": 0.48031496062992124,
                    "duration": 0.14999999999997726
                },
                {
                    "name": "C#4",
                    "midi": 61,
                    "time": 539.6999999999701,
                    "velocity": 0.48031496062992124,
                    "duration": 0.15125000000000455
                },
                {
                    "name": "F#4",
                    "midi": 66,
                    "time": 539.6999999999701,
                    "velocity": 0.48031496062992124,
                    "duration": 0.14999999999997726
                },
                {
                    "name": "A#3",
                    "midi": 58,
                    "time": 539.9999999999701,
                    "velocity": 0.4645669291338583,
                    "duration": 0.15125000000000455
                },
                {
                    "name": "A#4",
                    "midi": 70,
                    "time": 539.9999999999701,
                    "velocity": 0.4645669291338583,
                    "duration": 0.14999999999997726
                },
                {
                    "name": "B4",
                    "midi": 71,
                    "time": 540.29999999997,
                    "velocity": 0.5354330708661418,
                    "duration": 0.14999999999997726
                },
                {
                    "name": "B3",
                    "midi": 59,
                    "time": 540.29999999997,
                    "velocity": 0.5354330708661418,
                    "duration": 0.14999999999997726
                },
                {
                    "name": "D#4",
                    "midi": 63,
                    "time": 540.59999999997,
                    "velocity": 0.4645669291338583,
                    "duration": 0.15125000000000455
                },
                {
                    "name": "D#5",
                    "midi": 75,
                    "time": 540.59999999997,
                    "velocity": 0.4645669291338583,
                    "duration": 0.14999999999997726
                },
                {
                    "name": "G#4",
                    "midi": 68,
                    "time": 540.89999999997,
                    "velocity": 0.5433070866141733,
                    "duration": 0.14999999999997726
                },
                {
                    "name": "G#3",
                    "midi": 56,
                    "time": 540.89999999997,
                    "velocity": 0.5433070866141733,
                    "duration": 0.15125000000000455
                },
                {
                    "name": "B4",
                    "midi": 71,
                    "time": 541.1999999999699,
                    "velocity": 0.49606299212598426,
                    "duration": 0.14999999999997726
                },
                {
                    "name": "B3",
                    "midi": 59,
                    "time": 541.1999999999699,
                    "velocity": 0.49606299212598426,
                    "duration": 0.15125000000000455
                },
                {
                    "name": "F4",
                    "midi": 65,
                    "time": 541.4999999999699,
                    "velocity": 0.5433070866141733,
                    "duration": 0.14999999999997726
                },
                {
                    "name": "F3",
                    "midi": 53,
                    "time": 541.4999999999699,
                    "velocity": 0.5433070866141733,
                    "duration": 0.14999999999997726
                },
                {
                    "name": "G#4",
                    "midi": 68,
                    "time": 541.7999999999698,
                    "velocity": 0.47244094488188976,
                    "duration": 0.14999999999997726
                },
                {
                    "name": "G#3",
                    "midi": 56,
                    "time": 541.7999999999698,
                    "velocity": 0.47244094488188976,
                    "duration": 0.15125000000000455
                },
                {
                    "name": "C#3",
                    "midi": 49,
                    "time": 542.0999999999698,
                    "velocity": 0.5590551181102362,
                    "duration": 0.15125000000000455
                },
                {
                    "name": "C#4",
                    "midi": 61,
                    "time": 542.0999999999698,
                    "velocity": 0.5590551181102362,
                    "duration": 0.14999999999997726
                },
                {
                    "name": "F3",
                    "midi": 53,
                    "time": 542.3999999999697,
                    "velocity": 0.5039370078740157,
                    "duration": 0.14999999999997726
                },
                {
                    "name": "F4",
                    "midi": 65,
                    "time": 542.3999999999697,
                    "velocity": 0.5039370078740157,
                    "duration": 0.14999999999997726
                },
                {
                    "name": "A#3",
                    "midi": 58,
                    "time": 542.6999999999697,
                    "velocity": 0.5511811023622047,
                    "duration": 0.14999999999997726
                },
                {
                    "name": "A#2",
                    "midi": 46,
                    "time": 542.6999999999697,
                    "velocity": 0.5511811023622047,
                    "duration": 0.14999999999997726
                },
                {
                    "name": "C#4",
                    "midi": 61,
                    "time": 542.9999999999696,
                    "velocity": 0.48031496062992124,
                    "duration": 0.14999999999997726
                },
                {
                    "name": "C#3",
                    "midi": 49,
                    "time": 542.9999999999696,
                    "velocity": 0.48031496062992124,
                    "duration": 0.15125000000000455
                },
                {
                    "name": "F#2",
                    "midi": 42,
                    "time": 543.2999999999696,
                    "velocity": 0.5669291338582677,
                    "duration": 0.15125000000000455
                },
                {
                    "name": "F#3",
                    "midi": 54,
                    "time": 543.2999999999696,
                    "velocity": 0.5669291338582677,
                    "duration": 0.14999999999997726
                },
                {
                    "name": "A#2",
                    "midi": 46,
                    "time": 543.5999999999696,
                    "velocity": 0.5196850393700787,
                    "duration": 0.14999999999997726
                },
                {
                    "name": "A#3",
                    "midi": 58,
                    "time": 543.5999999999696,
                    "velocity": 0.5196850393700787,
                    "duration": 0.14999999999997726
                },
                {
                    "name": "D#2",
                    "midi": 39,
                    "time": 543.8999999999695,
                    "velocity": 0.5669291338582677,
                    "duration": 0.14999999999997726
                },
                {
                    "name": "D#3",
                    "midi": 51,
                    "time": 543.8999999999695,
                    "velocity": 0.5669291338582677,
                    "duration": 0.14999999999997726
                },
                {
                    "name": "F#2",
                    "midi": 42,
                    "time": 544.1999999999695,
                    "velocity": 0.4881889763779528,
                    "duration": 0.15125000000000455
                },
                {
                    "name": "F#3",
                    "midi": 54,
                    "time": 544.1999999999695,
                    "velocity": 0.4881889763779528,
                    "duration": 0.14999999999997726
                },
                {
                    "name": "B1",
                    "midi": 35,
                    "time": 544.4999999999694,
                    "velocity": 0.5748031496062992,
                    "duration": 0.15125000000000455
                },
                {
                    "name": "B2",
                    "midi": 47,
                    "time": 544.4999999999694,
                    "velocity": 0.5748031496062992,
                    "duration": 0.14999999999997726
                },
                {
                    "name": "D#3",
                    "midi": 51,
                    "time": 544.7999999999694,
                    "velocity": 0.5354330708661418,
                    "duration": 0.14999999999997726
                },
                {
                    "name": "D#2",
                    "midi": 39,
                    "time": 544.7999999999694,
                    "velocity": 0.5354330708661418,
                    "duration": 0.14999999999997726
                },
                {
                    "name": "G#1",
                    "midi": 32,
                    "time": 545.0999999999693,
                    "velocity": 0.5748031496062992,
                    "duration": 0.14999999999997726
                },
                {
                    "name": "G#2",
                    "midi": 44,
                    "time": 545.0999999999693,
                    "velocity": 0.5748031496062992,
                    "duration": 0.14999999999997726
                },
                {
                    "name": "B2",
                    "midi": 47,
                    "time": 545.3999999999693,
                    "velocity": 0.5039370078740157,
                    "duration": 0.14999999999997726
                },
                {
                    "name": "B1",
                    "midi": 35,
                    "time": 545.3999999999693,
                    "velocity": 0.5039370078740157,
                    "duration": 0.15125000000000455
                },
                {
                    "name": "F1",
                    "midi": 29,
                    "time": 545.6999999999692,
                    "velocity": 0.5905511811023622,
                    "duration": 0.15125000000000455
                },
                {
                    "name": "F2",
                    "midi": 41,
                    "time": 545.6999999999692,
                    "velocity": 0.5905511811023622,
                    "duration": 0.14999999999997726
                },
                {
                    "name": "G#1",
                    "midi": 32,
                    "time": 545.9999999999692,
                    "velocity": 0.5433070866141733,
                    "duration": 0.14999999999997726
                },
                {
                    "name": "G#2",
                    "midi": 44,
                    "time": 545.9999999999692,
                    "velocity": 0.5433070866141733,
                    "duration": 0.14999999999997726
                },
                {
                    "name": "C#2",
                    "midi": 37,
                    "time": 546.2999999999691,
                    "velocity": 0.5826771653543307,
                    "duration": 0.14999999999997726
                },
                {
                    "name": "F2",
                    "midi": 41,
                    "time": 546.5999999999691,
                    "velocity": 0.5118110236220472,
                    "duration": 0.14999999999997726
                },
                {
                    "name": "A#1",
                    "midi": 34,
                    "time": 546.899999999969,
                    "velocity": 0.5984251968503937,
                    "duration": 0.14999999999997726
                },
                {
                    "name": "C#2",
                    "midi": 37,
                    "time": 547.199999999969,
                    "velocity": 0.5511811023622047,
                    "duration": 0.14999999999997726
                },
                {
                    "name": "F#2",
                    "midi": 42,
                    "time": 547.499999999969,
                    "velocity": 0.5984251968503937,
                    "duration": 0.14999999999997726
                },
                {
                    "name": "F#1",
                    "midi": 30,
                    "time": 547.499999999969,
                    "velocity": 0.5984251968503937,
                    "duration": 0.14999999999997726
                },
                {
                    "name": "A#2",
                    "midi": 46,
                    "time": 547.7999999999689,
                    "velocity": 0.5196850393700787,
                    "duration": 0.14999999999997726
                },
                {
                    "name": "A#1",
                    "midi": 34,
                    "time": 547.7999999999689,
                    "velocity": 0.5196850393700787,
                    "duration": 0.14999999999997726
                },
                {
                    "name": "D#2",
                    "midi": 39,
                    "time": 548.0999999999689,
                    "velocity": 0.6062992125984252,
                    "duration": 0.14999999999997726
                },
                {
                    "name": "D#1",
                    "midi": 27,
                    "time": 548.0999999999689,
                    "velocity": 0.6062992125984252,
                    "duration": 0.14999999999997726
                },
                {
                    "name": "F#2",
                    "midi": 42,
                    "time": 548.3999999999688,
                    "velocity": 0.5590551181102362,
                    "duration": 0.14999999999997726
                },
                {
                    "name": "F#1",
                    "midi": 30,
                    "time": 548.3999999999688,
                    "velocity": 0.5590551181102362,
                    "duration": 0.14999999999997726
                },
                {
                    "name": "B1",
                    "midi": 35,
                    "time": 548.6999999999688,
                    "velocity": 0.7086614173228346,
                    "duration": 0.14999999999997726
                },
                {
                    "name": "B0",
                    "midi": 23,
                    "time": 548.6999999999688,
                    "velocity": 0.7086614173228346,
                    "duration": 0.14999999999997726
                },
                {
                    "name": "B2",
                    "midi": 47,
                    "time": 549.7499999999687,
                    "velocity": 0.5511811023622047,
                    "duration": 0.11249999999995453
                },
                {
                    "name": "B1",
                    "midi": 35,
                    "time": 549.7499999999687,
                    "velocity": 0.4645669291338583,
                    "duration": 0.11249999999995453
                },
                {
                    "name": "F#3",
                    "midi": 54,
                    "time": 549.8999999999687,
                    "velocity": 0.5039370078740157,
                    "duration": 0.4500000000000455
                },
                {
                    "name": "B3",
                    "midi": 59,
                    "time": 549.8999999999687,
                    "velocity": 0.6062992125984252,
                    "duration": 0.4500000000000455
                },
                {
                    "name": "D#3",
                    "midi": 51,
                    "time": 549.8999999999687,
                    "velocity": 0.5039370078740157,
                    "duration": 0.4500000000000455
                },
                {
                    "name": "C#2",
                    "midi": 37,
                    "time": 550.3499999999688,
                    "velocity": 0.5669291338582677,
                    "duration": 0.11249999999995453
                },
                {
                    "name": "C#3",
                    "midi": 49,
                    "time": 550.3499999999688,
                    "velocity": 0.6692913385826772,
                    "duration": 0.11249999999995453
                },
                {
                    "name": "G#3",
                    "midi": 56,
                    "time": 550.4999999999687,
                    "velocity": 0.5039370078740157,
                    "duration": 0.4500000000000455
                },
                {
                    "name": "C#4",
                    "midi": 61,
                    "time": 550.4999999999687,
                    "velocity": 0.6062992125984252,
                    "duration": 0.4500000000000455
                },
                {
                    "name": "C#3",
                    "midi": 49,
                    "time": 550.4999999999687,
                    "velocity": 0.5039370078740157,
                    "duration": 0.4500000000000455
                },
                {
                    "name": "F3",
                    "midi": 53,
                    "time": 550.4999999999687,
                    "velocity": 0.5039370078740157,
                    "duration": 0.4500000000000455
                },
                {
                    "name": "F#2",
                    "midi": 42,
                    "time": 550.9499999999688,
                    "velocity": 0.7795275590551181,
                    "duration": 0.11249999999995453
                },
                {
                    "name": "F#1",
                    "midi": 30,
                    "time": 550.9499999999688,
                    "velocity": 0.6535433070866141,
                    "duration": 0.11249999999995453
                },
                {
                    "name": "F#3",
                    "midi": 54,
                    "time": 551.0999999999688,
                    "velocity": 0.5039370078740157,
                    "duration": 1.2000000000000455
                },
                {
                    "name": "A#3",
                    "midi": 58,
                    "time": 551.0999999999688,
                    "velocity": 0.5039370078740157,
                    "duration": 1.2000000000000455
                },
                {
                    "name": "C#3",
                    "midi": 49,
                    "time": 551.0999999999688,
                    "velocity": 0.5039370078740157,
                    "duration": 1.2000000000000455
                },
                {
                    "name": "C#4",
                    "midi": 61,
                    "time": 551.0999999999688,
                    "velocity": 0.6062992125984252,
                    "duration": 1.2000000000000455
                },
                {
                    "name": "F#4",
                    "midi": 66,
                    "time": 552.2999999999688,
                    "velocity": 0.5039370078740157,
                    "duration": 0.14999999999997726
                },
                {
                    "name": "C#4",
                    "midi": 61,
                    "time": 552.2999999999688,
                    "velocity": 0.5039370078740157,
                    "duration": 0.14999999999997726
                },
                {
                    "name": "A#4",
                    "midi": 70,
                    "time": 552.2999999999688,
                    "velocity": 0.5039370078740157,
                    "duration": 0.14999999999997726
                },
                {
                    "name": "C#5",
                    "midi": 73,
                    "time": 552.2999999999688,
                    "velocity": 0.6062992125984252,
                    "duration": 0.14999999999997726
                },
                {
                    "name": "A#5",
                    "midi": 82,
                    "time": 552.8999999999688,
                    "velocity": 0.5039370078740157,
                    "duration": 0.14999999999997726
                },
                {
                    "name": "C#5",
                    "midi": 73,
                    "time": 552.8999999999688,
                    "velocity": 0.5039370078740157,
                    "duration": 0.14999999999997726
                },
                {
                    "name": "C#6",
                    "midi": 85,
                    "time": 552.8999999999688,
                    "velocity": 0.6062992125984252,
                    "duration": 0.14999999999997726
                },
                {
                    "name": "F#5",
                    "midi": 78,
                    "time": 552.8999999999688,
                    "velocity": 0.5039370078740157,
                    "duration": 0.14999999999997726
                },
                {
                    "name": "F#2",
                    "midi": 42,
                    "time": 553.4999999999688,
                    "velocity": 0.6929133858267716,
                    "duration": 0.14999999999997726
                },
                {
                    "name": "F#1",
                    "midi": 30,
                    "time": 553.4999999999688,
                    "velocity": 0.5826771653543307,
                    "duration": 0.14999999999997726
                }
            ],
            "controlChanges": {
                "91": [
                    {
                        "number": 91,
                        "time": 1.2,
                        "value": 1
                    },
                    {
                        "number": 91,
                        "time": 80.70000000000027,
                        "value": 1
                    }
                ]
            },
            "id": 2,
            "name": "Piano left",
            "instrumentNumber": 0,
            "instrument": "acoustic grand piano",
            "instrumentFamily": "piano",
            "channelNumber": 0,
            "isPercussion": false
        },
        {
            "startTime": 0,
            "duration": 0,
            "length": 0,
            "notes": [],
            "controlChanges": {
                "64": [
                    {
                        "number": 64,
                        "time": 0.945,
                        "value": 1
                    },
                    {
                        "number": 64,
                        "time": 2.03375,
                        "value": 0
                    },
                    {
                        "number": 64,
                        "time": 2.18375,
                        "value": 1
                    },
                    {
                        "number": 64,
                        "time": 2.4,
                        "value": 0
                    },
                    {
                        "number": 64,
                        "time": 2.47125,
                        "value": 1
                    },
                    {
                        "number": 64,
                        "time": 3.34375,
                        "value": 0
                    },
                    {
                        "number": 64,
                        "time": 3.39375,
                        "value": 1
                    },
                    {
                        "number": 64,
                        "time": 3.5999999999999996,
                        "value": 0
                    },
                    {
                        "number": 64,
                        "time": 3.7199999999999998,
                        "value": 1
                    },
                    {
                        "number": 64,
                        "time": 4.48625,
                        "value": 0
                    },
                    {
                        "number": 64,
                        "time": 4.575,
                        "value": 1
                    },
                    {
                        "number": 64,
                        "time": 4.8,
                        "value": 0
                    },
                    {
                        "number": 64,
                        "time": 4.875,
                        "value": 1
                    },
                    {
                        "number": 64,
                        "time": 5.71625,
                        "value": 0
                    },
                    {
                        "number": 64,
                        "time": 5.76,
                        "value": 1
                    },
                    {
                        "number": 64,
                        "time": 6,
                        "value": 0
                    },
                    {
                        "number": 64,
                        "time": 6.12875,
                        "value": 1
                    },
                    {
                        "number": 64,
                        "time": 7.05,
                        "value": 0
                    },
                    {
                        "number": 64,
                        "time": 7.12125,
                        "value": 1
                    },
                    {
                        "number": 64,
                        "time": 8.14375,
                        "value": 0
                    },
                    {
                        "number": 64,
                        "time": 8.1875,
                        "value": 1
                    },
                    {
                        "number": 64,
                        "time": 8.4,
                        "value": 0
                    },
                    {
                        "number": 64,
                        "time": 8.5825,
                        "value": 1
                    },
                    {
                        "number": 64,
                        "time": 9.6,
                        "value": 0
                    },
                    {
                        "number": 64,
                        "time": 10.94125,
                        "value": 1
                    },
                    {
                        "number": 64,
                        "time": 14.41375,
                        "value": 0
                    },
                    {
                        "number": 64,
                        "time": 14.4975,
                        "value": 1
                    },
                    {
                        "number": 64,
                        "time": 15.01375,
                        "value": 0
                    },
                    {
                        "number": 64,
                        "time": 15.0975,
                        "value": 1
                    },
                    {
                        "number": 64,
                        "time": 15.6175,
                        "value": 0
                    },
                    {
                        "number": 64,
                        "time": 15.6625,
                        "value": 1
                    },
                    {
                        "number": 64,
                        "time": 16.8175,
                        "value": 0
                    },
                    {
                        "number": 64,
                        "time": 16.94125,
                        "value": 1
                    },
                    {
                        "number": 64,
                        "time": 18.0175,
                        "value": 0
                    },
                    {
                        "number": 64,
                        "time": 18.14125,
                        "value": 1
                    },
                    {
                        "number": 64,
                        "time": 19.20625,
                        "value": 0
                    },
                    {
                        "number": 64,
                        "time": 19.2975,
                        "value": 1
                    },
                    {
                        "number": 64,
                        "time": 19.81125,
                        "value": 0
                    },
                    {
                        "number": 64,
                        "time": 19.90625,
                        "value": 1
                    },
                    {
                        "number": 64,
                        "time": 20.4175,
                        "value": 0
                    },
                    {
                        "number": 64,
                        "time": 20.462500000000002,
                        "value": 1
                    },
                    {
                        "number": 64,
                        "time": 21.617500000000003,
                        "value": 0
                    },
                    {
                        "number": 64,
                        "time": 21.662500000000005,
                        "value": 1
                    },
                    {
                        "number": 64,
                        "time": 22.695000000000004,
                        "value": 0
                    },
                    {
                        "number": 64,
                        "time": 22.906250000000004,
                        "value": 1
                    },
                    {
                        "number": 64,
                        "time": 24.001250000000002,
                        "value": 0
                    },
                    {
                        "number": 64,
                        "time": 24.097500000000004,
                        "value": 1
                    },
                    {
                        "number": 64,
                        "time": 24.621250000000003,
                        "value": 0
                    },
                    {
                        "number": 64,
                        "time": 24.721250000000005,
                        "value": 1
                    },
                    {
                        "number": 64,
                        "time": 25.217500000000005,
                        "value": 0
                    },
                    {
                        "number": 64,
                        "time": 25.262500000000006,
                        "value": 1
                    },
                    {
                        "number": 64,
                        "time": 26.417500000000008,
                        "value": 0
                    },
                    {
                        "number": 64,
                        "time": 26.46250000000001,
                        "value": 1
                    },
                    {
                        "number": 64,
                        "time": 27.45000000000001,
                        "value": 0
                    },
                    {
                        "number": 64,
                        "time": 27.74125000000001,
                        "value": 1
                    },
                    {
                        "number": 64,
                        "time": 28.802500000000013,
                        "value": 0
                    },
                    {
                        "number": 64,
                        "time": 29.05375000000001,
                        "value": 1
                    },
                    {
                        "number": 64,
                        "time": 30.686250000000012,
                        "value": 0
                    },
                    {
                        "number": 64,
                        "time": 30.728750000000012,
                        "value": 1
                    },
                    {
                        "number": 64,
                        "time": 31.200000000000014,
                        "value": 0
                    },
                    {
                        "number": 64,
                        "time": 31.246250000000014,
                        "value": 1
                    },
                    {
                        "number": 64,
                        "time": 31.682500000000015,
                        "value": 0
                    },
                    {
                        "number": 64,
                        "time": 32.06500000000001,
                        "value": 1
                    },
                    {
                        "number": 64,
                        "time": 33.01750000000001,
                        "value": 0
                    },
                    {
                        "number": 64,
                        "time": 33.15000000000001,
                        "value": 1
                    },
                    {
                        "number": 64,
                        "time": 34.217500000000015,
                        "value": 0
                    },
                    {
                        "number": 64,
                        "time": 34.34625000000001,
                        "value": 1
                    },
                    {
                        "number": 64,
                        "time": 35.16250000000001,
                        "value": 0
                    },
                    {
                        "number": 64,
                        "time": 35.52375000000001,
                        "value": 1
                    },
                    {
                        "number": 64,
                        "time": 36.63250000000001,
                        "value": 0
                    },
                    {
                        "number": 64,
                        "time": 36.74125000000001,
                        "value": 1
                    },
                    {
                        "number": 64,
                        "time": 37.807500000000005,
                        "value": 0
                    },
                    {
                        "number": 64,
                        "time": 37.8575,
                        "value": 1
                    },
                    {
                        "number": 64,
                        "time": 39.0175,
                        "value": 0
                    },
                    {
                        "number": 64,
                        "time": 39.1325,
                        "value": 1
                    },
                    {
                        "number": 64,
                        "time": 39.615,
                        "value": 0
                    },
                    {
                        "number": 64,
                        "time": 39.82125,
                        "value": 1
                    },
                    {
                        "number": 64,
                        "time": 40.207499999999996,
                        "value": 0
                    },
                    {
                        "number": 64,
                        "time": 40.25749999999999,
                        "value": 1
                    },
                    {
                        "number": 64,
                        "time": 41.434999999999995,
                        "value": 0
                    },
                    {
                        "number": 64,
                        "time": 41.54125,
                        "value": 1
                    },
                    {
                        "number": 64,
                        "time": 42.605,
                        "value": 0
                    },
                    {
                        "number": 64,
                        "time": 42.6575,
                        "value": 1
                    },
                    {
                        "number": 64,
                        "time": 43.817499999999995,
                        "value": 0
                    },
                    {
                        "number": 64,
                        "time": 43.9325,
                        "value": 1
                    },
                    {
                        "number": 64,
                        "time": 44.415,
                        "value": 0
                    },
                    {
                        "number": 64,
                        "time": 44.762499999999996,
                        "value": 1
                    },
                    {
                        "number": 64,
                        "time": 45.00375,
                        "value": 0
                    },
                    {
                        "number": 64,
                        "time": 45.04624999999999,
                        "value": 1
                    },
                    {
                        "number": 64,
                        "time": 45.46374999999999,
                        "value": 0
                    },
                    {
                        "number": 64,
                        "time": 45.51874999999999,
                        "value": 1
                    },
                    {
                        "number": 64,
                        "time": 46.12499999999999,
                        "value": 0
                    },
                    {
                        "number": 64,
                        "time": 46.18124999999999,
                        "value": 1
                    },
                    {
                        "number": 64,
                        "time": 46.65374999999999,
                        "value": 0
                    },
                    {
                        "number": 64,
                        "time": 46.711249999999986,
                        "value": 1
                    },
                    {
                        "number": 64,
                        "time": 47.32499999999999,
                        "value": 0
                    },
                    {
                        "number": 64,
                        "time": 47.38124999999999,
                        "value": 1
                    },
                    {
                        "number": 64,
                        "time": 47.86249999999999,
                        "value": 0
                    },
                    {
                        "number": 64,
                        "time": 47.92499999999999,
                        "value": 1
                    },
                    {
                        "number": 64,
                        "time": 48.51499999999999,
                        "value": 0
                    },
                    {
                        "number": 64,
                        "time": 48.559999999999995,
                        "value": 1
                    },
                    {
                        "number": 64,
                        "time": 49.065,
                        "value": 0
                    },
                    {
                        "number": 64,
                        "time": 49.13375,
                        "value": 1
                    },
                    {
                        "number": 64,
                        "time": 49.705,
                        "value": 0
                    },
                    {
                        "number": 64,
                        "time": 49.8,
                        "value": 1
                    },
                    {
                        "number": 64,
                        "time": 50.277499999999996,
                        "value": 0
                    },
                    {
                        "number": 64,
                        "time": 50.324999999999996,
                        "value": 1
                    },
                    {
                        "number": 64,
                        "time": 50.92249999999999,
                        "value": 0
                    },
                    {
                        "number": 64,
                        "time": 50.97874999999999,
                        "value": 1
                    },
                    {
                        "number": 64,
                        "time": 51.47249999999999,
                        "value": 0
                    },
                    {
                        "number": 64,
                        "time": 51.51999999999999,
                        "value": 1
                    },
                    {
                        "number": 64,
                        "time": 52.20499999999999,
                        "value": 0
                    },
                    {
                        "number": 64,
                        "time": 52.28874999999999,
                        "value": 1
                    },
                    {
                        "number": 64,
                        "time": 53.426249999999996,
                        "value": 0
                    },
                    {
                        "number": 64,
                        "time": 53.4625,
                        "value": 1
                    },
                    {
                        "number": 64,
                        "time": 54.62,
                        "value": 0
                    },
                    {
                        "number": 64,
                        "time": 54.69625,
                        "value": 1
                    },
                    {
                        "number": 64,
                        "time": 55.81125,
                        "value": 0
                    },
                    {
                        "number": 64,
                        "time": 55.85375,
                        "value": 1
                    },
                    {
                        "number": 64,
                        "time": 57.02375,
                        "value": 0
                    },
                    {
                        "number": 64,
                        "time": 57.09625,
                        "value": 1
                    },
                    {
                        "number": 64,
                        "time": 58.199999999999996,
                        "value": 0
                    },
                    {
                        "number": 64,
                        "time": 58.25375,
                        "value": 1
                    },
                    {
                        "number": 64,
                        "time": 59.42375,
                        "value": 0
                    },
                    {
                        "number": 64,
                        "time": 59.496249999999996,
                        "value": 1
                    },
                    {
                        "number": 64,
                        "time": 60.60375,
                        "value": 0
                    },
                    {
                        "number": 64,
                        "time": 60.653749999999995,
                        "value": 1
                    },
                    {
                        "number": 64,
                        "time": 61.80499999999999,
                        "value": 0
                    },
                    {
                        "number": 64,
                        "time": 61.888749999999995,
                        "value": 1
                    },
                    {
                        "number": 64,
                        "time": 63.02625,
                        "value": 0
                    },
                    {
                        "number": 64,
                        "time": 63.0625,
                        "value": 1
                    },
                    {
                        "number": 64,
                        "time": 64.2,
                        "value": 0
                    },
                    {
                        "number": 64,
                        "time": 65.4075,
                        "value": 1
                    },
                    {
                        "number": 64,
                        "time": 65.60375,
                        "value": 0
                    },
                    {
                        "number": 64,
                        "time": 65.7175,
                        "value": 1
                    },
                    {
                        "number": 64,
                        "time": 65.875,
                        "value": 0
                    },
                    {
                        "number": 64,
                        "time": 66.015,
                        "value": 1
                    },
                    {
                        "number": 64,
                        "time": 66.15375,
                        "value": 0
                    },
                    {
                        "number": 64,
                        "time": 66.31875000000001,
                        "value": 1
                    },
                    {
                        "number": 64,
                        "time": 66.48625000000001,
                        "value": 0
                    },
                    {
                        "number": 64,
                        "time": 66.55750000000002,
                        "value": 1
                    },
                    {
                        "number": 64,
                        "time": 66.61500000000002,
                        "value": 0
                    },
                    {
                        "number": 64,
                        "time": 66.65000000000002,
                        "value": 1
                    },
                    {
                        "number": 64,
                        "time": 66.76125000000002,
                        "value": 0
                    },
                    {
                        "number": 64,
                        "time": 66.95375000000001,
                        "value": 1
                    },
                    {
                        "number": 64,
                        "time": 67.02875000000002,
                        "value": 0
                    },
                    {
                        "number": 64,
                        "time": 67.15000000000002,
                        "value": 1
                    },
                    {
                        "number": 64,
                        "time": 67.23250000000002,
                        "value": 0
                    },
                    {
                        "number": 64,
                        "time": 67.80750000000002,
                        "value": 1
                    },
                    {
                        "number": 64,
                        "time": 67.89000000000001,
                        "value": 0
                    },
                    {
                        "number": 64,
                        "time": 68.13250000000002,
                        "value": 1
                    },
                    {
                        "number": 64,
                        "time": 68.24375000000002,
                        "value": 0
                    },
                    {
                        "number": 64,
                        "time": 68.45000000000002,
                        "value": 1
                    },
                    {
                        "number": 64,
                        "time": 68.56125000000002,
                        "value": 0
                    },
                    {
                        "number": 64,
                        "time": 68.73250000000002,
                        "value": 1
                    },
                    {
                        "number": 64,
                        "time": 68.81500000000001,
                        "value": 0
                    },
                    {
                        "number": 64,
                        "time": 68.87125000000002,
                        "value": 1
                    },
                    {
                        "number": 64,
                        "time": 68.92875000000002,
                        "value": 0
                    },
                    {
                        "number": 64,
                        "time": 69.04375000000002,
                        "value": 1
                    },
                    {
                        "number": 64,
                        "time": 69.62625000000001,
                        "value": 0
                    },
                    {
                        "number": 64,
                        "time": 69.67500000000001,
                        "value": 1
                    },
                    {
                        "number": 64,
                        "time": 70.20500000000001,
                        "value": 0
                    },
                    {
                        "number": 64,
                        "time": 70.25375000000001,
                        "value": 1
                    },
                    {
                        "number": 64,
                        "time": 70.81875000000001,
                        "value": 0
                    },
                    {
                        "number": 64,
                        "time": 70.88625,
                        "value": 1
                    },
                    {
                        "number": 64,
                        "time": 71.28625000000001,
                        "value": 0
                    },
                    {
                        "number": 64,
                        "time": 71.35750000000002,
                        "value": 1
                    },
                    {
                        "number": 64,
                        "time": 73.81000000000002,
                        "value": 0
                    },
                    {
                        "number": 64,
                        "time": 73.86500000000002,
                        "value": 1
                    },
                    {
                        "number": 64,
                        "time": 76.20000000000002,
                        "value": 0
                    },
                    {
                        "number": 64,
                        "time": 76.27500000000002,
                        "value": 1
                    },
                    {
                        "number": 64,
                        "time": 79.20500000000003,
                        "value": 0
                    },
                    {
                        "number": 64,
                        "time": 79.27500000000002,
                        "value": 1
                    },
                    {
                        "number": 64,
                        "time": 80.70000000000002,
                        "value": 0
                    },
                    {
                        "number": 64,
                        "time": 81.53375000000001,
                        "value": 0
                    },
                    {
                        "number": 64,
                        "time": 81.68375000000002,
                        "value": 1
                    },
                    {
                        "number": 64,
                        "time": 81.90000000000002,
                        "value": 0
                    },
                    {
                        "number": 64,
                        "time": 81.97125000000003,
                        "value": 1
                    },
                    {
                        "number": 64,
                        "time": 82.84375000000003,
                        "value": 0
                    },
                    {
                        "number": 64,
                        "time": 82.89375000000003,
                        "value": 1
                    },
                    {
                        "number": 64,
                        "time": 83.10000000000002,
                        "value": 0
                    },
                    {
                        "number": 64,
                        "time": 83.22000000000003,
                        "value": 1
                    },
                    {
                        "number": 64,
                        "time": 83.98625000000003,
                        "value": 0
                    },
                    {
                        "number": 64,
                        "time": 84.07500000000003,
                        "value": 1
                    },
                    {
                        "number": 64,
                        "time": 84.30000000000003,
                        "value": 0
                    },
                    {
                        "number": 64,
                        "time": 84.37500000000003,
                        "value": 1
                    },
                    {
                        "number": 64,
                        "time": 85.21625000000003,
                        "value": 0
                    },
                    {
                        "number": 64,
                        "time": 85.26000000000003,
                        "value": 1
                    },
                    {
                        "number": 64,
                        "time": 85.50000000000003,
                        "value": 0
                    },
                    {
                        "number": 64,
                        "time": 85.62875000000003,
                        "value": 1
                    },
                    {
                        "number": 64,
                        "time": 86.50000000000003,
                        "value": 0
                    },
                    {
                        "number": 64,
                        "time": 86.56000000000003,
                        "value": 1
                    },
                    {
                        "number": 64,
                        "time": 87.64375000000003,
                        "value": 0
                    },
                    {
                        "number": 64,
                        "time": 87.68750000000003,
                        "value": 1
                    },
                    {
                        "number": 64,
                        "time": 87.90000000000003,
                        "value": 0
                    },
                    {
                        "number": 64,
                        "time": 88.08250000000004,
                        "value": 1
                    },
                    {
                        "number": 64,
                        "time": 88.74500000000003,
                        "value": 0
                    },
                    {
                        "number": 64,
                        "time": 89.60000000000004,
                        "value": 1
                    },
                    {
                        "number": 64,
                        "time": 89.91500000000003,
                        "value": 0
                    },
                    {
                        "number": 64,
                        "time": 92.14000000000003,
                        "value": 1
                    },
                    {
                        "number": 64,
                        "time": 92.70000000000003,
                        "value": 0
                    },
                    {
                        "number": 64,
                        "time": 92.81500000000003,
                        "value": 1
                    },
                    {
                        "number": 64,
                        "time": 93.01625000000003,
                        "value": 0
                    },
                    {
                        "number": 64,
                        "time": 93.11500000000002,
                        "value": 1
                    },
                    {
                        "number": 64,
                        "time": 93.31500000000003,
                        "value": 0
                    },
                    {
                        "number": 64,
                        "time": 93.44375000000002,
                        "value": 1
                    },
                    {
                        "number": 64,
                        "time": 93.61250000000003,
                        "value": 0
                    },
                    {
                        "number": 64,
                        "time": 93.67125000000003,
                        "value": 1
                    },
                    {
                        "number": 64,
                        "time": 93.91000000000003,
                        "value": 0
                    },
                    {
                        "number": 64,
                        "time": 94.56750000000002,
                        "value": 1
                    },
                    {
                        "number": 64,
                        "time": 95.10875000000003,
                        "value": 0
                    },
                    {
                        "number": 64,
                        "time": 95.19250000000002,
                        "value": 1
                    },
                    {
                        "number": 64,
                        "time": 95.73125000000002,
                        "value": 0
                    },
                    {
                        "number": 64,
                        "time": 95.79750000000001,
                        "value": 1
                    },
                    {
                        "number": 64,
                        "time": 96.22500000000001,
                        "value": 0
                    },
                    {
                        "number": 64,
                        "time": 96.26500000000001,
                        "value": 1
                    },
                    {
                        "number": 64,
                        "time": 96.40625000000001,
                        "value": 0
                    },
                    {
                        "number": 64,
                        "time": 97.04125000000002,
                        "value": 1
                    },
                    {
                        "number": 64,
                        "time": 98.11375000000002,
                        "value": 0
                    },
                    {
                        "number": 64,
                        "time": 98.22375000000002,
                        "value": 1
                    },
                    {
                        "number": 64,
                        "time": 98.70375000000003,
                        "value": 0
                    },
                    {
                        "number": 64,
                        "time": 99.17000000000003,
                        "value": 1
                    },
                    {
                        "number": 64,
                        "time": 99.33500000000004,
                        "value": 0
                    },
                    {
                        "number": 64,
                        "time": 99.41125000000004,
                        "value": 1
                    },
                    {
                        "number": 64,
                        "time": 99.92500000000004,
                        "value": 0
                    },
                    {
                        "number": 64,
                        "time": 100.54500000000004,
                        "value": 1
                    },
                    {
                        "number": 64,
                        "time": 101.02125000000004,
                        "value": 0
                    },
                    {
                        "number": 64,
                        "time": 101.07000000000004,
                        "value": 1
                    },
                    {
                        "number": 64,
                        "time": 101.34250000000003,
                        "value": 0
                    },
                    {
                        "number": 64,
                        "time": 101.75375000000003,
                        "value": 1
                    },
                    {
                        "number": 64,
                        "time": 102.30000000000003,
                        "value": 0
                    },
                    {
                        "number": 64,
                        "time": 102.43625000000003,
                        "value": 1
                    },
                    {
                        "number": 64,
                        "time": 102.91625000000003,
                        "value": 0
                    },
                    {
                        "number": 64,
                        "time": 103.02875000000003,
                        "value": 1
                    },
                    {
                        "number": 64,
                        "time": 103.52250000000004,
                        "value": 0
                    },
                    {
                        "number": 64,
                        "time": 104.02125000000004,
                        "value": 1
                    },
                    {
                        "number": 64,
                        "time": 104.11625000000004,
                        "value": 0
                    },
                    {
                        "number": 64,
                        "time": 104.20625000000004,
                        "value": 1
                    },
                    {
                        "number": 64,
                        "time": 104.70000000000005,
                        "value": 0
                    },
                    {
                        "number": 64,
                        "time": 105.32250000000005,
                        "value": 1
                    },
                    {
                        "number": 64,
                        "time": 105.78500000000005,
                        "value": 0
                    },
                    {
                        "number": 64,
                        "time": 105.86500000000005,
                        "value": 1
                    },
                    {
                        "number": 64,
                        "time": 106.12125000000005,
                        "value": 0
                    },
                    {
                        "number": 64,
                        "time": 106.50750000000005,
                        "value": 1
                    },
                    {
                        "number": 64,
                        "time": 107.11125000000006,
                        "value": 0
                    },
                    {
                        "number": 64,
                        "time": 107.14625000000005,
                        "value": 1
                    },
                    {
                        "number": 64,
                        "time": 108.98625000000006,
                        "value": 0
                    },
                    {
                        "number": 64,
                        "time": 109.05000000000005,
                        "value": 1
                    },
                    {
                        "number": 64,
                        "time": 110.70375000000006,
                        "value": 0
                    },
                    {
                        "number": 64,
                        "time": 110.76250000000006,
                        "value": 1
                    },
                    {
                        "number": 64,
                        "time": 116.70000000000006,
                        "value": 0
                    },
                    {
                        "number": 64,
                        "time": 117.95750000000005,
                        "value": 1
                    },
                    {
                        "number": 64,
                        "time": 119.12625000000006,
                        "value": 0
                    },
                    {
                        "number": 64,
                        "time": 119.24125000000005,
                        "value": 1
                    },
                    {
                        "number": 64,
                        "time": 120.30250000000005,
                        "value": 0
                    },
                    {
                        "number": 64,
                        "time": 120.35750000000006,
                        "value": 1
                    },
                    {
                        "number": 64,
                        "time": 121.51750000000006,
                        "value": 0
                    },
                    {
                        "number": 64,
                        "time": 121.63250000000005,
                        "value": 1
                    },
                    {
                        "number": 64,
                        "time": 122.11500000000005,
                        "value": 0
                    },
                    {
                        "number": 64,
                        "time": 122.32125000000005,
                        "value": 1
                    },
                    {
                        "number": 64,
                        "time": 122.70750000000005,
                        "value": 0
                    },
                    {
                        "number": 64,
                        "time": 122.83250000000005,
                        "value": 1
                    },
                    {
                        "number": 64,
                        "time": 123.93000000000005,
                        "value": 0
                    },
                    {
                        "number": 64,
                        "time": 124.04125000000005,
                        "value": 1
                    },
                    {
                        "number": 64,
                        "time": 125.10625000000005,
                        "value": 0
                    },
                    {
                        "number": 64,
                        "time": 125.15750000000004,
                        "value": 1
                    },
                    {
                        "number": 64,
                        "time": 126.31750000000004,
                        "value": 0
                    },
                    {
                        "number": 64,
                        "time": 126.43250000000003,
                        "value": 1
                    },
                    {
                        "number": 64,
                        "time": 126.91500000000003,
                        "value": 0
                    },
                    {
                        "number": 64,
                        "time": 127.93625000000003,
                        "value": 1
                    },
                    {
                        "number": 64,
                        "time": 128.71750000000003,
                        "value": 0
                    },
                    {
                        "number": 64,
                        "time": 130.36375000000004,
                        "value": 1
                    },
                    {
                        "number": 64,
                        "time": 131.11750000000004,
                        "value": 0
                    },
                    {
                        "number": 64,
                        "time": 131.29500000000004,
                        "value": 1
                    },
                    {
                        "number": 64,
                        "time": 132.16250000000005,
                        "value": 0
                    },
                    {
                        "number": 64,
                        "time": 132.25625000000005,
                        "value": 1
                    },
                    {
                        "number": 64,
                        "time": 132.51250000000005,
                        "value": 0
                    },
                    {
                        "number": 64,
                        "time": 133.14750000000004,
                        "value": 1
                    },
                    {
                        "number": 64,
                        "time": 134.70375000000004,
                        "value": 0
                    },
                    {
                        "number": 64,
                        "time": 134.75750000000005,
                        "value": 1
                    },
                    {
                        "number": 64,
                        "time": 135.30750000000006,
                        "value": 0
                    },
                    {
                        "number": 64,
                        "time": 135.42000000000007,
                        "value": 1
                    },
                    {
                        "number": 64,
                        "time": 135.91750000000008,
                        "value": 0
                    },
                    {
                        "number": 64,
                        "time": 136.03250000000008,
                        "value": 1
                    },
                    {
                        "number": 64,
                        "time": 136.51500000000007,
                        "value": 0
                    },
                    {
                        "number": 64,
                        "time": 136.72125000000008,
                        "value": 1
                    },
                    {
                        "number": 64,
                        "time": 137.10750000000007,
                        "value": 0
                    },
                    {
                        "number": 64,
                        "time": 137.21500000000006,
                        "value": 1
                    },
                    {
                        "number": 64,
                        "time": 137.47125000000005,
                        "value": 0
                    },
                    {
                        "number": 64,
                        "time": 137.81500000000005,
                        "value": 1
                    },
                    {
                        "number": 64,
                        "time": 139.50375000000005,
                        "value": 0
                    },
                    {
                        "number": 64,
                        "time": 139.55750000000006,
                        "value": 1
                    },
                    {
                        "number": 64,
                        "time": 140.12250000000006,
                        "value": 0
                    },
                    {
                        "number": 64,
                        "time": 140.18000000000006,
                        "value": 1
                    },
                    {
                        "number": 64,
                        "time": 140.71750000000006,
                        "value": 0
                    },
                    {
                        "number": 64,
                        "time": 140.83250000000007,
                        "value": 1
                    },
                    {
                        "number": 64,
                        "time": 141.31500000000005,
                        "value": 0
                    },
                    {
                        "number": 64,
                        "time": 142.34625000000005,
                        "value": 1
                    },
                    {
                        "number": 64,
                        "time": 143.11750000000006,
                        "value": 0
                    },
                    {
                        "number": 64,
                        "time": 144.94375000000005,
                        "value": 1
                    },
                    {
                        "number": 64,
                        "time": 145.51750000000004,
                        "value": 0
                    },
                    {
                        "number": 64,
                        "time": 147.71125000000004,
                        "value": 1
                    },
                    {
                        "number": 64,
                        "time": 147.92375000000004,
                        "value": 0
                    },
                    {
                        "number": 64,
                        "time": 148.02375000000004,
                        "value": 1
                    },
                    {
                        "number": 64,
                        "time": 148.82250000000005,
                        "value": 0
                    },
                    {
                        "number": 64,
                        "time": 148.87500000000006,
                        "value": 1
                    },
                    {
                        "number": 64,
                        "time": 149.11000000000007,
                        "value": 0
                    },
                    {
                        "number": 64,
                        "time": 149.17500000000007,
                        "value": 1
                    },
                    {
                        "number": 64,
                        "time": 149.86125000000007,
                        "value": 0
                    },
                    {
                        "number": 64,
                        "time": 149.90375000000006,
                        "value": 1
                    },
                    {
                        "number": 64,
                        "time": 150.30750000000006,
                        "value": 0
                    },
                    {
                        "number": 64,
                        "time": 150.36625000000006,
                        "value": 1
                    },
                    {
                        "number": 64,
                        "time": 151.28000000000006,
                        "value": 0
                    },
                    {
                        "number": 64,
                        "time": 151.33250000000007,
                        "value": 1
                    },
                    {
                        "number": 64,
                        "time": 151.50500000000008,
                        "value": 0
                    },
                    {
                        "number": 64,
                        "time": 151.59750000000008,
                        "value": 1
                    },
                    {
                        "number": 64,
                        "time": 152.10875000000007,
                        "value": 0
                    },
                    {
                        "number": 64,
                        "time": 152.16625000000008,
                        "value": 1
                    },
                    {
                        "number": 64,
                        "time": 152.70625000000007,
                        "value": 0
                    },
                    {
                        "number": 64,
                        "time": 153.07125000000008,
                        "value": 1
                    },
                    {
                        "number": 64,
                        "time": 153.9012500000001,
                        "value": 0
                    },
                    {
                        "number": 64,
                        "time": 154.2112500000001,
                        "value": 1
                    },
                    {
                        "number": 64,
                        "time": 155.1087500000001,
                        "value": 0
                    },
                    {
                        "number": 64,
                        "time": 155.5337500000001,
                        "value": 1
                    },
                    {
                        "number": 64,
                        "time": 157.1000000000001,
                        "value": 0
                    },
                    {
                        "number": 64,
                        "time": 157.4387500000001,
                        "value": 1
                    },
                    {
                        "number": 64,
                        "time": 158.6300000000001,
                        "value": 0
                    },
                    {
                        "number": 64,
                        "time": 158.6425000000001,
                        "value": 1
                    },
                    {
                        "number": 64,
                        "time": 159.8250000000001,
                        "value": 0
                    },
                    {
                        "number": 64,
                        "time": 159.8575000000001,
                        "value": 1
                    },
                    {
                        "number": 64,
                        "time": 161.03000000000011,
                        "value": 0
                    },
                    {
                        "number": 64,
                        "time": 161.0625000000001,
                        "value": 1
                    },
                    {
                        "number": 64,
                        "time": 162.2312500000001,
                        "value": 0
                    },
                    {
                        "number": 64,
                        "time": 162.2625000000001,
                        "value": 1
                    },
                    {
                        "number": 64,
                        "time": 163.43500000000012,
                        "value": 0
                    },
                    {
                        "number": 64,
                        "time": 163.46250000000012,
                        "value": 1
                    },
                    {
                        "number": 64,
                        "time": 164.6250000000001,
                        "value": 0
                    },
                    {
                        "number": 64,
                        "time": 164.6625000000001,
                        "value": 1
                    },
                    {
                        "number": 64,
                        "time": 165.8250000000001,
                        "value": 0
                    },
                    {
                        "number": 64,
                        "time": 165.8625000000001,
                        "value": 1
                    },
                    {
                        "number": 64,
                        "time": 167.0250000000001,
                        "value": 0
                    },
                    {
                        "number": 64,
                        "time": 167.06250000000009,
                        "value": 1
                    },
                    {
                        "number": 64,
                        "time": 168.22500000000008,
                        "value": 0
                    },
                    {
                        "number": 64,
                        "time": 168.26250000000007,
                        "value": 1
                    },
                    {
                        "number": 64,
                        "time": 169.42500000000007,
                        "value": 0
                    },
                    {
                        "number": 64,
                        "time": 169.46250000000006,
                        "value": 1
                    },
                    {
                        "number": 64,
                        "time": 170.62500000000006,
                        "value": 0
                    },
                    {
                        "number": 64,
                        "time": 170.66250000000005,
                        "value": 1
                    },
                    {
                        "number": 64,
                        "time": 171.82500000000005,
                        "value": 0
                    },
                    {
                        "number": 64,
                        "time": 171.86250000000004,
                        "value": 1
                    },
                    {
                        "number": 64,
                        "time": 173.02500000000003,
                        "value": 0
                    },
                    {
                        "number": 64,
                        "time": 173.06250000000003,
                        "value": 1
                    },
                    {
                        "number": 64,
                        "time": 174.22500000000002,
                        "value": 0
                    },
                    {
                        "number": 64,
                        "time": 174.26250000000002,
                        "value": 1
                    },
                    {
                        "number": 64,
                        "time": 175.425,
                        "value": 0
                    },
                    {
                        "number": 64,
                        "time": 175.4625,
                        "value": 1
                    },
                    {
                        "number": 64,
                        "time": 176.625,
                        "value": 0
                    },
                    {
                        "number": 64,
                        "time": 176.6625,
                        "value": 1
                    },
                    {
                        "number": 64,
                        "time": 177.825,
                        "value": 0
                    },
                    {
                        "number": 64,
                        "time": 177.86249999999998,
                        "value": 1
                    },
                    {
                        "number": 64,
                        "time": 178.95,
                        "value": 0
                    },
                    {
                        "number": 64,
                        "time": 179.00375,
                        "value": 1
                    },
                    {
                        "number": 64,
                        "time": 180.1525,
                        "value": 0
                    },
                    {
                        "number": 64,
                        "time": 180.21625,
                        "value": 1
                    },
                    {
                        "number": 64,
                        "time": 181.35,
                        "value": 0
                    },
                    {
                        "number": 64,
                        "time": 181.42499999999998,
                        "value": 1
                    },
                    {
                        "number": 64,
                        "time": 182.54999999999998,
                        "value": 0
                    },
                    {
                        "number": 64,
                        "time": 182.61499999999998,
                        "value": 1
                    },
                    {
                        "number": 64,
                        "time": 183.74999999999997,
                        "value": 0
                    },
                    {
                        "number": 64,
                        "time": 183.81624999999997,
                        "value": 1
                    },
                    {
                        "number": 64,
                        "time": 184.94999999999996,
                        "value": 0
                    },
                    {
                        "number": 64,
                        "time": 185.02999999999997,
                        "value": 1
                    },
                    {
                        "number": 64,
                        "time": 186.29999999999998,
                        "value": 0
                    },
                    {
                        "number": 64,
                        "time": 187.49999999999997,
                        "value": 0
                    },
                    {
                        "number": 64,
                        "time": 188.69999999999996,
                        "value": 0
                    },
                    {
                        "number": 64,
                        "time": 189.89999999999995,
                        "value": 0
                    },
                    {
                        "number": 64,
                        "time": 191.09999999999994,
                        "value": 0
                    },
                    {
                        "number": 64,
                        "time": 192.29999999999993,
                        "value": 0
                    },
                    {
                        "number": 64,
                        "time": 193.49999999999991,
                        "value": 0
                    },
                    {
                        "number": 64,
                        "time": 194.6999999999999,
                        "value": 0
                    },
                    {
                        "number": 64,
                        "time": 197.0999999999999,
                        "value": 0
                    },
                    {
                        "number": 64,
                        "time": 198.2999999999999,
                        "value": 0
                    },
                    {
                        "number": 64,
                        "time": 199.4999999999999,
                        "value": 0
                    },
                    {
                        "number": 64,
                        "time": 201.8999999999999,
                        "value": 0
                    },
                    {
                        "number": 64,
                        "time": 203.09999999999988,
                        "value": 0
                    },
                    {
                        "number": 64,
                        "time": 204.29999999999987,
                        "value": 0
                    },
                    {
                        "number": 64,
                        "time": 205.49999999999986,
                        "value": 0
                    },
                    {
                        "number": 64,
                        "time": 206.69999999999985,
                        "value": 0
                    },
                    {
                        "number": 64,
                        "time": 207.89999999999984,
                        "value": 0
                    },
                    {
                        "number": 64,
                        "time": 209.09999999999982,
                        "value": 0
                    },
                    {
                        "number": 64,
                        "time": 210.2999999999998,
                        "value": 0
                    },
                    {
                        "number": 64,
                        "time": 211.4999999999998,
                        "value": 0
                    },
                    {
                        "number": 64,
                        "time": 212.6999999999998,
                        "value": 0
                    },
                    {
                        "number": 64,
                        "time": 213.89999999999978,
                        "value": 0
                    },
                    {
                        "number": 64,
                        "time": 215.1712499999998,
                        "value": 1
                    },
                    {
                        "number": 64,
                        "time": 215.3162499999998,
                        "value": 0
                    },
                    {
                        "number": 64,
                        "time": 215.7349999999998,
                        "value": 1
                    },
                    {
                        "number": 64,
                        "time": 215.93374999999978,
                        "value": 0
                    },
                    {
                        "number": 64,
                        "time": 216.29999999999978,
                        "value": 1
                    },
                    {
                        "number": 64,
                        "time": 216.5162499999998,
                        "value": 0
                    },
                    {
                        "number": 64,
                        "time": 216.9487499999998,
                        "value": 1
                    },
                    {
                        "number": 64,
                        "time": 217.17374999999979,
                        "value": 0
                    },
                    {
                        "number": 64,
                        "time": 217.51749999999979,
                        "value": 1
                    },
                    {
                        "number": 64,
                        "time": 217.68124999999978,
                        "value": 0
                    },
                    {
                        "number": 64,
                        "time": 218.14499999999978,
                        "value": 1
                    },
                    {
                        "number": 64,
                        "time": 218.30749999999978,
                        "value": 0
                    },
                    {
                        "number": 64,
                        "time": 218.72249999999977,
                        "value": 1
                    },
                    {
                        "number": 64,
                        "time": 218.83249999999978,
                        "value": 0
                    },
                    {
                        "number": 64,
                        "time": 219.31374999999977,
                        "value": 1
                    },
                    {
                        "number": 64,
                        "time": 219.50374999999977,
                        "value": 0
                    },
                    {
                        "number": 64,
                        "time": 219.89999999999978,
                        "value": 1
                    },
                    {
                        "number": 64,
                        "time": 220.0462499999998,
                        "value": 0
                    },
                    {
                        "number": 64,
                        "time": 220.52499999999978,
                        "value": 1
                    },
                    {
                        "number": 64,
                        "time": 220.7037499999998,
                        "value": 0
                    },
                    {
                        "number": 64,
                        "time": 221.11124999999979,
                        "value": 1
                    },
                    {
                        "number": 64,
                        "time": 221.2899999999998,
                        "value": 0
                    },
                    {
                        "number": 64,
                        "time": 221.7462499999998,
                        "value": 1
                    },
                    {
                        "number": 64,
                        "time": 221.8937499999998,
                        "value": 0
                    },
                    {
                        "number": 64,
                        "time": 222.2999999999998,
                        "value": 1
                    },
                    {
                        "number": 64,
                        "time": 222.9324999999998,
                        "value": 0
                    },
                    {
                        "number": 64,
                        "time": 222.9962499999998,
                        "value": 1
                    },
                    {
                        "number": 64,
                        "time": 223.5112499999998,
                        "value": 0
                    },
                    {
                        "number": 64,
                        "time": 223.55374999999978,
                        "value": 1
                    },
                    {
                        "number": 64,
                        "time": 224.12124999999978,
                        "value": 0
                    },
                    {
                        "number": 64,
                        "time": 224.1687499999998,
                        "value": 1
                    },
                    {
                        "number": 64,
                        "time": 224.6999999999998,
                        "value": 0
                    },
                    {
                        "number": 64,
                        "time": 224.7612499999998,
                        "value": 1
                    },
                    {
                        "number": 64,
                        "time": 225.3249999999998,
                        "value": 0
                    },
                    {
                        "number": 64,
                        "time": 225.3862499999998,
                        "value": 1
                    },
                    {
                        "number": 64,
                        "time": 225.9112499999998,
                        "value": 0
                    },
                    {
                        "number": 64,
                        "time": 225.98624999999979,
                        "value": 1
                    },
                    {
                        "number": 64,
                        "time": 226.52124999999978,
                        "value": 0
                    },
                    {
                        "number": 64,
                        "time": 226.58249999999978,
                        "value": 1
                    },
                    {
                        "number": 64,
                        "time": 227.1074999999998,
                        "value": 0
                    },
                    {
                        "number": 64,
                        "time": 227.1687499999998,
                        "value": 1
                    },
                    {
                        "number": 64,
                        "time": 227.7249999999998,
                        "value": 0
                    },
                    {
                        "number": 64,
                        "time": 227.76874999999978,
                        "value": 1
                    },
                    {
                        "number": 64,
                        "time": 228.30874999999978,
                        "value": 0
                    },
                    {
                        "number": 64,
                        "time": 228.34999999999977,
                        "value": 1
                    },
                    {
                        "number": 64,
                        "time": 228.90749999999977,
                        "value": 0
                    },
                    {
                        "number": 64,
                        "time": 228.96124999999978,
                        "value": 1
                    },
                    {
                        "number": 64,
                        "time": 229.49999999999977,
                        "value": 0
                    },
                    {
                        "number": 64,
                        "time": 230.15749999999977,
                        "value": 1
                    },
                    {
                        "number": 64,
                        "time": 230.44999999999976,
                        "value": 0
                    },
                    {
                        "number": 64,
                        "time": 230.75749999999977,
                        "value": 1
                    },
                    {
                        "number": 64,
                        "time": 230.81874999999977,
                        "value": 0
                    },
                    {
                        "number": 64,
                        "time": 231.40749999999977,
                        "value": 1
                    },
                    {
                        "number": 64,
                        "time": 231.67124999999976,
                        "value": 0
                    },
                    {
                        "number": 64,
                        "time": 231.94999999999976,
                        "value": 1
                    },
                    {
                        "number": 64,
                        "time": 232.04374999999976,
                        "value": 0
                    },
                    {
                        "number": 64,
                        "time": 232.54374999999976,
                        "value": 1
                    },
                    {
                        "number": 64,
                        "time": 232.77874999999977,
                        "value": 0
                    },
                    {
                        "number": 64,
                        "time": 233.14999999999978,
                        "value": 1
                    },
                    {
                        "number": 64,
                        "time": 233.24374999999978,
                        "value": 0
                    },
                    {
                        "number": 64,
                        "time": 233.79999999999978,
                        "value": 1
                    },
                    {
                        "number": 64,
                        "time": 234.0437499999998,
                        "value": 0
                    },
                    {
                        "number": 64,
                        "time": 234.3212499999998,
                        "value": 1
                    },
                    {
                        "number": 64,
                        "time": 234.3574999999998,
                        "value": 0
                    },
                    {
                        "number": 64,
                        "time": 234.98624999999979,
                        "value": 1
                    },
                    {
                        "number": 64,
                        "time": 235.27874999999977,
                        "value": 0
                    },
                    {
                        "number": 64,
                        "time": 235.52124999999978,
                        "value": 1
                    },
                    {
                        "number": 64,
                        "time": 235.6074999999998,
                        "value": 0
                    },
                    {
                        "number": 64,
                        "time": 236.1862499999998,
                        "value": 1
                    },
                    {
                        "number": 64,
                        "time": 236.4787499999998,
                        "value": 0
                    },
                    {
                        "number": 64,
                        "time": 236.7787499999998,
                        "value": 1
                    },
                    {
                        "number": 64,
                        "time": 236.8787499999998,
                        "value": 0
                    },
                    {
                        "number": 64,
                        "time": 237.39374999999978,
                        "value": 1
                    },
                    {
                        "number": 64,
                        "time": 237.6649999999998,
                        "value": 0
                    },
                    {
                        "number": 64,
                        "time": 237.95749999999978,
                        "value": 1
                    },
                    {
                        "number": 64,
                        "time": 238.0712499999998,
                        "value": 0
                    },
                    {
                        "number": 64,
                        "time": 238.6212499999998,
                        "value": 1
                    },
                    {
                        "number": 64,
                        "time": 238.8437499999998,
                        "value": 0
                    },
                    {
                        "number": 64,
                        "time": 239.0999999999998,
                        "value": 0
                    },
                    {
                        "number": 64,
                        "time": 239.2249999999998,
                        "value": 0
                    },
                    {
                        "number": 64,
                        "time": 239.7574999999998,
                        "value": 1
                    },
                    {
                        "number": 64,
                        "time": 240.04999999999978,
                        "value": 0
                    },
                    {
                        "number": 64,
                        "time": 240.3574999999998,
                        "value": 1
                    },
                    {
                        "number": 64,
                        "time": 240.4437499999998,
                        "value": 0
                    },
                    {
                        "number": 64,
                        "time": 241.0074999999998,
                        "value": 1
                    },
                    {
                        "number": 64,
                        "time": 241.27124999999978,
                        "value": 0
                    },
                    {
                        "number": 64,
                        "time": 241.54999999999978,
                        "value": 1
                    },
                    {
                        "number": 64,
                        "time": 241.6287499999998,
                        "value": 0
                    },
                    {
                        "number": 64,
                        "time": 242.14374999999978,
                        "value": 1
                    },
                    {
                        "number": 64,
                        "time": 242.4462499999998,
                        "value": 0
                    },
                    {
                        "number": 64,
                        "time": 242.7499999999998,
                        "value": 1
                    },
                    {
                        "number": 64,
                        "time": 242.8437499999998,
                        "value": 0
                    },
                    {
                        "number": 64,
                        "time": 243.3999999999998,
                        "value": 1
                    },
                    {
                        "number": 64,
                        "time": 243.6437499999998,
                        "value": 0
                    },
                    {
                        "number": 64,
                        "time": 243.92124999999982,
                        "value": 1
                    },
                    {
                        "number": 64,
                        "time": 243.9937499999998,
                        "value": 0
                    },
                    {
                        "number": 64,
                        "time": 244.5862499999998,
                        "value": 1
                    },
                    {
                        "number": 64,
                        "time": 244.8787499999998,
                        "value": 0
                    },
                    {
                        "number": 64,
                        "time": 245.1787499999998,
                        "value": 1
                    },
                    {
                        "number": 64,
                        "time": 245.25749999999982,
                        "value": 0
                    },
                    {
                        "number": 64,
                        "time": 245.79374999999982,
                        "value": 1
                    },
                    {
                        "number": 64,
                        "time": 246.06499999999983,
                        "value": 0
                    },
                    {
                        "number": 64,
                        "time": 246.35749999999982,
                        "value": 1
                    },
                    {
                        "number": 64,
                        "time": 246.4649999999998,
                        "value": 0
                    },
                    {
                        "number": 64,
                        "time": 247.0212499999998,
                        "value": 1
                    },
                    {
                        "number": 64,
                        "time": 247.2437499999998,
                        "value": 0
                    },
                    {
                        "number": 64,
                        "time": 247.5574999999998,
                        "value": 1
                    },
                    {
                        "number": 64,
                        "time": 247.6437499999998,
                        "value": 0
                    },
                    {
                        "number": 64,
                        "time": 248.2212499999998,
                        "value": 1
                    },
                    {
                        "number": 64,
                        "time": 248.4437499999998,
                        "value": 0
                    },
                    {
                        "number": 64,
                        "time": 258.2999999999998,
                        "value": 1
                    },
                    {
                        "number": 64,
                        "time": 258.9199999999998,
                        "value": 0
                    },
                    {
                        "number": 64,
                        "time": 259.0212499999998,
                        "value": 1
                    },
                    {
                        "number": 64,
                        "time": 259.51249999999976,
                        "value": 0
                    },
                    {
                        "number": 64,
                        "time": 259.5862499999998,
                        "value": 1
                    },
                    {
                        "number": 64,
                        "time": 260.1124999999998,
                        "value": 0
                    },
                    {
                        "number": 64,
                        "time": 260.2149999999998,
                        "value": 1
                    },
                    {
                        "number": 64,
                        "time": 260.7149999999998,
                        "value": 0
                    },
                    {
                        "number": 64,
                        "time": 260.8149999999998,
                        "value": 1
                    },
                    {
                        "number": 64,
                        "time": 261.3149999999998,
                        "value": 0
                    },
                    {
                        "number": 64,
                        "time": 261.4074999999998,
                        "value": 1
                    },
                    {
                        "number": 64,
                        "time": 261.9112499999998,
                        "value": 0
                    },
                    {
                        "number": 64,
                        "time": 262.02874999999983,
                        "value": 1
                    },
                    {
                        "number": 64,
                        "time": 262.5124999999998,
                        "value": 0
                    },
                    {
                        "number": 64,
                        "time": 262.5999999999998,
                        "value": 1
                    },
                    {
                        "number": 64,
                        "time": 263.1124999999998,
                        "value": 0
                    },
                    {
                        "number": 64,
                        "time": 263.17124999999976,
                        "value": 1
                    },
                    {
                        "number": 64,
                        "time": 263.71999999999974,
                        "value": 0
                    },
                    {
                        "number": 64,
                        "time": 263.82124999999974,
                        "value": 1
                    },
                    {
                        "number": 64,
                        "time": 264.3124999999997,
                        "value": 0
                    },
                    {
                        "number": 64,
                        "time": 264.38624999999973,
                        "value": 1
                    },
                    {
                        "number": 64,
                        "time": 264.91249999999974,
                        "value": 0
                    },
                    {
                        "number": 64,
                        "time": 265.01499999999976,
                        "value": 1
                    },
                    {
                        "number": 64,
                        "time": 265.51499999999976,
                        "value": 0
                    },
                    {
                        "number": 64,
                        "time": 265.6149999999998,
                        "value": 1
                    },
                    {
                        "number": 64,
                        "time": 266.1149999999998,
                        "value": 0
                    },
                    {
                        "number": 64,
                        "time": 266.20749999999975,
                        "value": 1
                    },
                    {
                        "number": 64,
                        "time": 266.7137499999998,
                        "value": 0
                    },
                    {
                        "number": 64,
                        "time": 266.8287499999998,
                        "value": 1
                    },
                    {
                        "number": 64,
                        "time": 267.3124999999998,
                        "value": 0
                    },
                    {
                        "number": 64,
                        "time": 267.39999999999975,
                        "value": 1
                    },
                    {
                        "number": 64,
                        "time": 267.9062499999998,
                        "value": 0
                    },
                    {
                        "number": 64,
                        "time": 268.0237499999998,
                        "value": 1
                    },
                    {
                        "number": 64,
                        "time": 269.1174999999998,
                        "value": 0
                    },
                    {
                        "number": 64,
                        "time": 269.2324999999998,
                        "value": 1
                    },
                    {
                        "number": 64,
                        "time": 270.3099999999998,
                        "value": 0
                    },
                    {
                        "number": 64,
                        "time": 270.42374999999976,
                        "value": 1
                    },
                    {
                        "number": 64,
                        "time": 271.51749999999976,
                        "value": 0
                    },
                    {
                        "number": 64,
                        "time": 271.63249999999977,
                        "value": 1
                    },
                    {
                        "number": 64,
                        "time": 272.70999999999975,
                        "value": 0
                    },
                    {
                        "number": 64,
                        "time": 272.82374999999973,
                        "value": 1
                    },
                    {
                        "number": 64,
                        "time": 273.91749999999973,
                        "value": 0
                    },
                    {
                        "number": 64,
                        "time": 274.03249999999974,
                        "value": 1
                    },
                    {
                        "number": 64,
                        "time": 275.10999999999973,
                        "value": 0
                    },
                    {
                        "number": 64,
                        "time": 275.2237499999997,
                        "value": 1
                    },
                    {
                        "number": 64,
                        "time": 276.3174999999997,
                        "value": 0
                    },
                    {
                        "number": 64,
                        "time": 276.4324999999997,
                        "value": 1
                    },
                    {
                        "number": 64,
                        "time": 277.5174999999997,
                        "value": 0
                    },
                    {
                        "number": 64,
                        "time": 277.6324999999997,
                        "value": 1
                    },
                    {
                        "number": 64,
                        "time": 277.8824999999997,
                        "value": 0
                    },
                    {
                        "number": 64,
                        "time": 278.2287499999997,
                        "value": 1
                    },
                    {
                        "number": 64,
                        "time": 278.5074999999997,
                        "value": 0
                    },
                    {
                        "number": 64,
                        "time": 278.7174999999997,
                        "value": 0
                    },
                    {
                        "number": 64,
                        "time": 278.8324999999997,
                        "value": 1
                    },
                    {
                        "number": 64,
                        "time": 279.0824999999997,
                        "value": 0
                    },
                    {
                        "number": 64,
                        "time": 279.4287499999997,
                        "value": 1
                    },
                    {
                        "number": 64,
                        "time": 279.7074999999997,
                        "value": 0
                    },
                    {
                        "number": 64,
                        "time": 279.9174999999997,
                        "value": 0
                    },
                    {
                        "number": 64,
                        "time": 280.0324999999997,
                        "value": 1
                    },
                    {
                        "number": 64,
                        "time": 280.2824999999997,
                        "value": 0
                    },
                    {
                        "number": 64,
                        "time": 280.6287499999997,
                        "value": 1
                    },
                    {
                        "number": 64,
                        "time": 280.9074999999997,
                        "value": 0
                    },
                    {
                        "number": 64,
                        "time": 281.11749999999967,
                        "value": 0
                    },
                    {
                        "number": 64,
                        "time": 281.2324999999997,
                        "value": 1
                    },
                    {
                        "number": 64,
                        "time": 281.4824999999997,
                        "value": 0
                    },
                    {
                        "number": 64,
                        "time": 281.8287499999997,
                        "value": 1
                    },
                    {
                        "number": 64,
                        "time": 282.1074999999997,
                        "value": 0
                    },
                    {
                        "number": 64,
                        "time": 282.31749999999965,
                        "value": 0
                    },
                    {
                        "number": 64,
                        "time": 282.43249999999966,
                        "value": 1
                    },
                    {
                        "number": 64,
                        "time": 282.68249999999966,
                        "value": 0
                    },
                    {
                        "number": 64,
                        "time": 283.02874999999966,
                        "value": 1
                    },
                    {
                        "number": 64,
                        "time": 283.30749999999966,
                        "value": 0
                    },
                    {
                        "number": 64,
                        "time": 283.51749999999964,
                        "value": 0
                    },
                    {
                        "number": 64,
                        "time": 283.63249999999965,
                        "value": 1
                    },
                    {
                        "number": 64,
                        "time": 283.88249999999965,
                        "value": 0
                    },
                    {
                        "number": 64,
                        "time": 284.22874999999965,
                        "value": 1
                    },
                    {
                        "number": 64,
                        "time": 284.50749999999965,
                        "value": 0
                    },
                    {
                        "number": 64,
                        "time": 284.71749999999963,
                        "value": 0
                    },
                    {
                        "number": 64,
                        "time": 284.83249999999964,
                        "value": 1
                    },
                    {
                        "number": 64,
                        "time": 285.08249999999964,
                        "value": 0
                    },
                    {
                        "number": 64,
                        "time": 285.42874999999964,
                        "value": 1
                    },
                    {
                        "number": 64,
                        "time": 285.70749999999964,
                        "value": 0
                    },
                    {
                        "number": 64,
                        "time": 285.9174999999996,
                        "value": 0
                    },
                    {
                        "number": 64,
                        "time": 286.03249999999963,
                        "value": 1
                    },
                    {
                        "number": 64,
                        "time": 286.28249999999963,
                        "value": 0
                    },
                    {
                        "number": 64,
                        "time": 286.6287499999996,
                        "value": 1
                    },
                    {
                        "number": 64,
                        "time": 286.90749999999963,
                        "value": 0
                    },
                    {
                        "number": 64,
                        "time": 287.1174999999996,
                        "value": 0
                    },
                    {
                        "number": 64,
                        "time": 287.2324999999996,
                        "value": 1
                    },
                    {
                        "number": 64,
                        "time": 288.3174999999996,
                        "value": 0
                    },
                    {
                        "number": 64,
                        "time": 288.4324999999996,
                        "value": 1
                    },
                    {
                        "number": 64,
                        "time": 288.9112499999996,
                        "value": 0
                    },
                    {
                        "number": 64,
                        "time": 289.0212499999996,
                        "value": 1
                    },
                    {
                        "number": 64,
                        "time": 289.5174999999996,
                        "value": 0
                    },
                    {
                        "number": 64,
                        "time": 289.6324999999996,
                        "value": 1
                    },
                    {
                        "number": 64,
                        "time": 290.7174999999996,
                        "value": 0
                    },
                    {
                        "number": 64,
                        "time": 290.8324999999996,
                        "value": 1
                    },
                    {
                        "number": 64,
                        "time": 291.3112499999996,
                        "value": 0
                    },
                    {
                        "number": 64,
                        "time": 291.4212499999996,
                        "value": 1
                    },
                    {
                        "number": 64,
                        "time": 291.91749999999956,
                        "value": 0
                    },
                    {
                        "number": 64,
                        "time": 292.0324999999996,
                        "value": 1
                    },
                    {
                        "number": 64,
                        "time": 293.11749999999955,
                        "value": 0
                    },
                    {
                        "number": 64,
                        "time": 293.23249999999956,
                        "value": 1
                    },
                    {
                        "number": 64,
                        "time": 293.71124999999955,
                        "value": 0
                    },
                    {
                        "number": 64,
                        "time": 293.82124999999957,
                        "value": 1
                    },
                    {
                        "number": 64,
                        "time": 294.31749999999954,
                        "value": 0
                    },
                    {
                        "number": 64,
                        "time": 294.43249999999955,
                        "value": 1
                    },
                    {
                        "number": 64,
                        "time": 295.51749999999953,
                        "value": 0
                    },
                    {
                        "number": 64,
                        "time": 295.63249999999954,
                        "value": 1
                    },
                    {
                        "number": 64,
                        "time": 296.11124999999953,
                        "value": 0
                    },
                    {
                        "number": 64,
                        "time": 296.22124999999954,
                        "value": 1
                    },
                    {
                        "number": 64,
                        "time": 296.58124999999956,
                        "value": 0
                    },
                    {
                        "number": 64,
                        "time": 296.64249999999953,
                        "value": 1
                    },
                    {
                        "number": 64,
                        "time": 296.81499999999954,
                        "value": 0
                    },
                    {
                        "number": 64,
                        "time": 299.02124999999955,
                        "value": 1
                    },
                    {
                        "number": 64,
                        "time": 299.29499999999956,
                        "value": 0
                    },
                    {
                        "number": 64,
                        "time": 303.80749999999955,
                        "value": 1
                    },
                    {
                        "number": 64,
                        "time": 303.98374999999953,
                        "value": 0
                    },
                    {
                        "number": 64,
                        "time": 306.19499999999954,
                        "value": 1
                    },
                    {
                        "number": 64,
                        "time": 306.43749999999955,
                        "value": 0
                    },
                    {
                        "number": 64,
                        "time": 308.60374999999954,
                        "value": 1
                    },
                    {
                        "number": 64,
                        "time": 308.82874999999956,
                        "value": 0
                    },
                    {
                        "number": 64,
                        "time": 315.82124999999957,
                        "value": 1
                    },
                    {
                        "number": 64,
                        "time": 316.0724999999996,
                        "value": 0
                    },
                    {
                        "number": 64,
                        "time": 316.5749999999996,
                        "value": 1
                    },
                    {
                        "number": 64,
                        "time": 317.1062499999996,
                        "value": 0
                    },
                    {
                        "number": 64,
                        "time": 317.1799999999996,
                        "value": 1
                    },
                    {
                        "number": 64,
                        "time": 317.5074999999996,
                        "value": 0
                    },
                    {
                        "number": 64,
                        "time": 318.2162499999996,
                        "value": 1
                    },
                    {
                        "number": 64,
                        "time": 318.4724999999996,
                        "value": 0
                    },
                    {
                        "number": 64,
                        "time": 318.9487499999996,
                        "value": 1
                    },
                    {
                        "number": 64,
                        "time": 319.5024999999996,
                        "value": 0
                    },
                    {
                        "number": 64,
                        "time": 319.6587499999996,
                        "value": 1
                    },
                    {
                        "number": 64,
                        "time": 319.9074999999996,
                        "value": 0
                    },
                    {
                        "number": 64,
                        "time": 320.71624999999955,
                        "value": 1
                    },
                    {
                        "number": 64,
                        "time": 320.86124999999953,
                        "value": 0
                    },
                    {
                        "number": 64,
                        "time": 321.37749999999954,
                        "value": 1
                    },
                    {
                        "number": 64,
                        "time": 321.4912499999995,
                        "value": 0
                    },
                    {
                        "number": 64,
                        "time": 323.1149999999995,
                        "value": 1
                    },
                    {
                        "number": 64,
                        "time": 323.7137499999995,
                        "value": 0
                    },
                    {
                        "number": 64,
                        "time": 323.7862499999995,
                        "value": 1
                    },
                    {
                        "number": 64,
                        "time": 324.3149999999995,
                        "value": 0
                    },
                    {
                        "number": 64,
                        "time": 324.4412499999995,
                        "value": 1
                    },
                    {
                        "number": 64,
                        "time": 324.9149999999995,
                        "value": 0
                    },
                    {
                        "number": 64,
                        "time": 325.04124999999954,
                        "value": 1
                    },
                    {
                        "number": 64,
                        "time": 325.32374999999956,
                        "value": 0
                    },
                    {
                        "number": 64,
                        "time": 325.4337499999996,
                        "value": 1
                    },
                    {
                        "number": 64,
                        "time": 325.88374999999957,
                        "value": 0
                    },
                    {
                        "number": 64,
                        "time": 326.17499999999956,
                        "value": 1
                    },
                    {
                        "number": 64,
                        "time": 326.70249999999953,
                        "value": 0
                    },
                    {
                        "number": 64,
                        "time": 326.7799999999995,
                        "value": 1
                    },
                    {
                        "number": 64,
                        "time": 327.1074999999995,
                        "value": 0
                    },
                    {
                        "number": 64,
                        "time": 327.82999999999953,
                        "value": 1
                    },
                    {
                        "number": 64,
                        "time": 328.07249999999954,
                        "value": 0
                    },
                    {
                        "number": 64,
                        "time": 328.54874999999953,
                        "value": 1
                    },
                    {
                        "number": 64,
                        "time": 329.10374999999954,
                        "value": 0
                    },
                    {
                        "number": 64,
                        "time": 329.2587499999995,
                        "value": 1
                    },
                    {
                        "number": 64,
                        "time": 329.5074999999995,
                        "value": 0
                    },
                    {
                        "number": 64,
                        "time": 330.31624999999946,
                        "value": 1
                    },
                    {
                        "number": 64,
                        "time": 330.46124999999944,
                        "value": 0
                    },
                    {
                        "number": 64,
                        "time": 330.97749999999945,
                        "value": 1
                    },
                    {
                        "number": 64,
                        "time": 331.09124999999943,
                        "value": 0
                    },
                    {
                        "number": 64,
                        "time": 332.6999999999994,
                        "value": 1
                    },
                    {
                        "number": 64,
                        "time": 333.2649999999994,
                        "value": 0
                    },
                    {
                        "number": 64,
                        "time": 333.3499999999994,
                        "value": 1
                    },
                    {
                        "number": 64,
                        "time": 333.8574999999994,
                        "value": 0
                    },
                    {
                        "number": 64,
                        "time": 333.9437499999994,
                        "value": 1
                    },
                    {
                        "number": 64,
                        "time": 334.4499999999994,
                        "value": 0
                    },
                    {
                        "number": 64,
                        "time": 334.56499999999943,
                        "value": 1
                    },
                    {
                        "number": 64,
                        "time": 335.02124999999944,
                        "value": 0
                    },
                    {
                        "number": 64,
                        "time": 335.14374999999944,
                        "value": 1
                    },
                    {
                        "number": 64,
                        "time": 335.65749999999946,
                        "value": 0
                    },
                    {
                        "number": 64,
                        "time": 335.7937499999995,
                        "value": 1
                    },
                    {
                        "number": 64,
                        "time": 336.1712499999995,
                        "value": 0
                    },
                    {
                        "number": 64,
                        "time": 336.3649999999995,
                        "value": 1
                    },
                    {
                        "number": 64,
                        "time": 336.8287499999995,
                        "value": 0
                    },
                    {
                        "number": 64,
                        "time": 337.0149999999995,
                        "value": 1
                    },
                    {
                        "number": 64,
                        "time": 337.4499999999995,
                        "value": 0
                    },
                    {
                        "number": 64,
                        "time": 337.5362499999995,
                        "value": 1
                    },
                    {
                        "number": 64,
                        "time": 338.0574999999995,
                        "value": 0
                    },
                    {
                        "number": 64,
                        "time": 338.2362499999995,
                        "value": 1
                    },
                    {
                        "number": 64,
                        "time": 338.63624999999945,
                        "value": 0
                    },
                    {
                        "number": 64,
                        "time": 338.79999999999944,
                        "value": 1
                    },
                    {
                        "number": 64,
                        "time": 339.22124999999943,
                        "value": 0
                    },
                    {
                        "number": 64,
                        "time": 339.4287499999994,
                        "value": 1
                    },
                    {
                        "number": 64,
                        "time": 339.7862499999994,
                        "value": 0
                    },
                    {
                        "number": 64,
                        "time": 340.0437499999994,
                        "value": 1
                    },
                    {
                        "number": 64,
                        "time": 340.5199999999994,
                        "value": 0
                    },
                    {
                        "number": 64,
                        "time": 340.6862499999994,
                        "value": 1
                    },
                    {
                        "number": 64,
                        "time": 341.1074999999994,
                        "value": 0
                    },
                    {
                        "number": 64,
                        "time": 341.2437499999994,
                        "value": 1
                    },
                    {
                        "number": 64,
                        "time": 341.7199999999994,
                        "value": 0
                    },
                    {
                        "number": 64,
                        "time": 341.8862499999994,
                        "value": 1
                    },
                    {
                        "number": 64,
                        "time": 342.3074999999994,
                        "value": 0
                    },
                    {
                        "number": 64,
                        "time": 342.4437499999994,
                        "value": 1
                    },
                    {
                        "number": 64,
                        "time": 342.6437499999994,
                        "value": 0
                    },
                    {
                        "number": 64,
                        "time": 344.8674999999994,
                        "value": 1
                    },
                    {
                        "number": 64,
                        "time": 345.9024999999994,
                        "value": 0
                    },
                    {
                        "number": 64,
                        "time": 346.0949999999994,
                        "value": 1
                    },
                    {
                        "number": 64,
                        "time": 347.1062499999994,
                        "value": 0
                    },
                    {
                        "number": 64,
                        "time": 347.2149999999994,
                        "value": 1
                    },
                    {
                        "number": 64,
                        "time": 348.3037499999994,
                        "value": 0
                    },
                    {
                        "number": 64,
                        "time": 348.3887499999994,
                        "value": 1
                    },
                    {
                        "number": 64,
                        "time": 349.5037499999994,
                        "value": 0
                    },
                    {
                        "number": 64,
                        "time": 349.5049999999994,
                        "value": 0
                    },
                    {
                        "number": 64,
                        "time": 349.83374999999944,
                        "value": 1
                    },
                    {
                        "number": 64,
                        "time": 350.70624999999944,
                        "value": 0
                    },
                    {
                        "number": 64,
                        "time": 350.89499999999947,
                        "value": 1
                    },
                    {
                        "number": 64,
                        "time": 351.90499999999946,
                        "value": 0
                    },
                    {
                        "number": 64,
                        "time": 352.0149999999995,
                        "value": 1
                    },
                    {
                        "number": 64,
                        "time": 353.1112499999995,
                        "value": 0
                    },
                    {
                        "number": 64,
                        "time": 353.46749999999946,
                        "value": 1
                    },
                    {
                        "number": 64,
                        "time": 354.30499999999944,
                        "value": 0
                    },
                    {
                        "number": 64,
                        "time": 354.40749999999946,
                        "value": 1
                    },
                    {
                        "number": 64,
                        "time": 355.50624999999945,
                        "value": 0
                    },
                    {
                        "number": 64,
                        "time": 355.59999999999945,
                        "value": 1
                    },
                    {
                        "number": 64,
                        "time": 356.42249999999945,
                        "value": 0
                    },
                    {
                        "number": 64,
                        "time": 356.52874999999943,
                        "value": 1
                    },
                    {
                        "number": 64,
                        "time": 356.70874999999944,
                        "value": 0
                    },
                    {
                        "number": 64,
                        "time": 356.79999999999944,
                        "value": 1
                    },
                    {
                        "number": 64,
                        "time": 357.32124999999945,
                        "value": 0
                    },
                    {
                        "number": 64,
                        "time": 357.39999999999947,
                        "value": 1
                    },
                    {
                        "number": 64,
                        "time": 357.90749999999946,
                        "value": 0
                    },
                    {
                        "number": 64,
                        "time": 357.9862499999995,
                        "value": 1
                    },
                    {
                        "number": 64,
                        "time": 358.51999999999947,
                        "value": 0
                    },
                    {
                        "number": 64,
                        "time": 358.59999999999945,
                        "value": 1
                    },
                    {
                        "number": 64,
                        "time": 359.09999999999945,
                        "value": 0
                    },
                    {
                        "number": 64,
                        "time": 359.20749999999947,
                        "value": 1
                    },
                    {
                        "number": 64,
                        "time": 360.3099999999995,
                        "value": 0
                    },
                    {
                        "number": 64,
                        "time": 360.39999999999947,
                        "value": 1
                    },
                    {
                        "number": 64,
                        "time": 361.20749999999947,
                        "value": 0
                    },
                    {
                        "number": 64,
                        "time": 361.29999999999944,
                        "value": 1
                    },
                    {
                        "number": 64,
                        "time": 361.50874999999945,
                        "value": 0
                    },
                    {
                        "number": 64,
                        "time": 361.57124999999945,
                        "value": 1
                    },
                    {
                        "number": 64,
                        "time": 362.12124999999946,
                        "value": 0
                    },
                    {
                        "number": 64,
                        "time": 362.1999999999995,
                        "value": 1
                    },
                    {
                        "number": 64,
                        "time": 362.70749999999947,
                        "value": 0
                    },
                    {
                        "number": 64,
                        "time": 362.7862499999995,
                        "value": 1
                    },
                    {
                        "number": 64,
                        "time": 363.3199999999995,
                        "value": 0
                    },
                    {
                        "number": 64,
                        "time": 363.39999999999947,
                        "value": 1
                    },
                    {
                        "number": 64,
                        "time": 363.91749999999945,
                        "value": 0
                    },
                    {
                        "number": 64,
                        "time": 364.03249999999946,
                        "value": 1
                    },
                    {
                        "number": 64,
                        "time": 365.11749999999944,
                        "value": 0
                    },
                    {
                        "number": 64,
                        "time": 365.23249999999945,
                        "value": 1
                    },
                    {
                        "number": 64,
                        "time": 365.71124999999944,
                        "value": 0
                    },
                    {
                        "number": 64,
                        "time": 365.82124999999945,
                        "value": 1
                    },
                    {
                        "number": 64,
                        "time": 366.3174999999994,
                        "value": 0
                    },
                    {
                        "number": 64,
                        "time": 366.43249999999944,
                        "value": 1
                    },
                    {
                        "number": 64,
                        "time": 367.5174999999994,
                        "value": 0
                    },
                    {
                        "number": 64,
                        "time": 367.6324999999994,
                        "value": 1
                    },
                    {
                        "number": 64,
                        "time": 368.1112499999994,
                        "value": 0
                    },
                    {
                        "number": 64,
                        "time": 368.22124999999943,
                        "value": 1
                    },
                    {
                        "number": 64,
                        "time": 368.7174999999994,
                        "value": 0
                    },
                    {
                        "number": 64,
                        "time": 368.8324999999994,
                        "value": 1
                    },
                    {
                        "number": 64,
                        "time": 369.9174999999994,
                        "value": 0
                    },
                    {
                        "number": 64,
                        "time": 370.0324999999994,
                        "value": 1
                    },
                    {
                        "number": 64,
                        "time": 370.5112499999994,
                        "value": 0
                    },
                    {
                        "number": 64,
                        "time": 370.6212499999994,
                        "value": 1
                    },
                    {
                        "number": 64,
                        "time": 371.1174999999994,
                        "value": 0
                    },
                    {
                        "number": 64,
                        "time": 371.2324999999994,
                        "value": 1
                    },
                    {
                        "number": 64,
                        "time": 372.31749999999937,
                        "value": 0
                    },
                    {
                        "number": 64,
                        "time": 372.4324999999994,
                        "value": 1
                    },
                    {
                        "number": 64,
                        "time": 372.91124999999937,
                        "value": 0
                    },
                    {
                        "number": 64,
                        "time": 373.0212499999994,
                        "value": 1
                    },
                    {
                        "number": 64,
                        "time": 373.4299999999994,
                        "value": 0
                    },
                    {
                        "number": 64,
                        "time": 373.6237499999994,
                        "value": 1
                    },
                    {
                        "number": 64,
                        "time": 374.7174999999994,
                        "value": 0
                    },
                    {
                        "number": 64,
                        "time": 374.8324999999994,
                        "value": 1
                    },
                    {
                        "number": 64,
                        "time": 375.9074999999994,
                        "value": 0
                    },
                    {
                        "number": 64,
                        "time": 376.0237499999994,
                        "value": 1
                    },
                    {
                        "number": 64,
                        "time": 377.1174999999994,
                        "value": 0
                    },
                    {
                        "number": 64,
                        "time": 377.2324999999994,
                        "value": 1
                    },
                    {
                        "number": 64,
                        "time": 378.3087499999994,
                        "value": 0
                    },
                    {
                        "number": 64,
                        "time": 378.4237499999994,
                        "value": 1
                    },
                    {
                        "number": 64,
                        "time": 379.5174999999994,
                        "value": 0
                    },
                    {
                        "number": 64,
                        "time": 379.6324999999994,
                        "value": 1
                    },
                    {
                        "number": 64,
                        "time": 380.71374999999944,
                        "value": 0
                    },
                    {
                        "number": 64,
                        "time": 380.82374999999945,
                        "value": 1
                    },
                    {
                        "number": 64,
                        "time": 381.91749999999945,
                        "value": 0
                    },
                    {
                        "number": 64,
                        "time": 382.03249999999946,
                        "value": 1
                    },
                    {
                        "number": 64,
                        "time": 383.1349999999995,
                        "value": 0
                    },
                    {
                        "number": 64,
                        "time": 385.53499999999946,
                        "value": 0
                    },
                    {
                        "number": 64,
                        "time": 392.73499999999945,
                        "value": 0
                    },
                    {
                        "number": 64,
                        "time": 395.1349999999994,
                        "value": 0
                    },
                    {
                        "number": 64,
                        "time": 396.29999999999944,
                        "value": 0
                    },
                    {
                        "number": 64,
                        "time": 397.49999999999943,
                        "value": 0
                    },
                    {
                        "number": 64,
                        "time": 398.6999999999994,
                        "value": 0
                    },
                    {
                        "number": 64,
                        "time": 399.90374999999943,
                        "value": 0
                    },
                    {
                        "number": 64,
                        "time": 401.09999999999945,
                        "value": 0
                    },
                    {
                        "number": 64,
                        "time": 402.33499999999947,
                        "value": 0
                    },
                    {
                        "number": 64,
                        "time": 404.73499999999945,
                        "value": 0
                    },
                    {
                        "number": 64,
                        "time": 411.93499999999943,
                        "value": 0
                    },
                    {
                        "number": 64,
                        "time": 414.3349999999994,
                        "value": 0
                    },
                    {
                        "number": 64,
                        "time": 415.49999999999943,
                        "value": 0
                    },
                    {
                        "number": 64,
                        "time": 416.6999999999994,
                        "value": 0
                    },
                    {
                        "number": 64,
                        "time": 417.8999999999994,
                        "value": 0
                    },
                    {
                        "number": 64,
                        "time": 419.1037499999994,
                        "value": 0
                    },
                    {
                        "number": 64,
                        "time": 420.29999999999944,
                        "value": 0
                    },
                    {
                        "number": 64,
                        "time": 421.54999999999944,
                        "value": 1
                    },
                    {
                        "number": 64,
                        "time": 422.70749999999947,
                        "value": 0
                    },
                    {
                        "number": 64,
                        "time": 422.8074999999995,
                        "value": 1
                    },
                    {
                        "number": 64,
                        "time": 423.9099999999995,
                        "value": 0
                    },
                    {
                        "number": 64,
                        "time": 424.0237499999995,
                        "value": 1
                    },
                    {
                        "number": 64,
                        "time": 425.1112499999995,
                        "value": 0
                    },
                    {
                        "number": 64,
                        "time": 425.16499999999945,
                        "value": 1
                    },
                    {
                        "number": 64,
                        "time": 426.31124999999946,
                        "value": 0
                    },
                    {
                        "number": 64,
                        "time": 426.3462499999995,
                        "value": 1
                    },
                    {
                        "number": 64,
                        "time": 427.5124999999995,
                        "value": 0
                    },
                    {
                        "number": 64,
                        "time": 427.5499999999995,
                        "value": 1
                    },
                    {
                        "number": 64,
                        "time": 428.6249999999995,
                        "value": 0
                    },
                    {
                        "number": 64,
                        "time": 428.6999999999995,
                        "value": 1
                    },
                    {
                        "number": 64,
                        "time": 429.9087499999995,
                        "value": 0
                    },
                    {
                        "number": 64,
                        "time": 429.9112499999995,
                        "value": 0
                    },
                    {
                        "number": 64,
                        "time": 430.0437499999995,
                        "value": 1
                    },
                    {
                        "number": 64,
                        "time": 431.1099999999995,
                        "value": 0
                    },
                    {
                        "number": 64,
                        "time": 431.2862499999995,
                        "value": 1
                    },
                    {
                        "number": 64,
                        "time": 432.31374999999946,
                        "value": 0
                    },
                    {
                        "number": 64,
                        "time": 432.5437499999995,
                        "value": 1
                    },
                    {
                        "number": 64,
                        "time": 433.5049999999995,
                        "value": 0
                    },
                    {
                        "number": 64,
                        "time": 433.65749999999946,
                        "value": 1
                    },
                    {
                        "number": 64,
                        "time": 434.70749999999947,
                        "value": 0
                    },
                    {
                        "number": 64,
                        "time": 434.92874999999947,
                        "value": 1
                    },
                    {
                        "number": 64,
                        "time": 435.9162499999995,
                        "value": 0
                    },
                    {
                        "number": 64,
                        "time": 436.1149999999995,
                        "value": 1
                    },
                    {
                        "number": 64,
                        "time": 437.1087499999995,
                        "value": 0
                    },
                    {
                        "number": 64,
                        "time": 437.2999999999995,
                        "value": 1
                    },
                    {
                        "number": 64,
                        "time": 438.3099999999995,
                        "value": 0
                    },
                    {
                        "number": 64,
                        "time": 438.4712499999995,
                        "value": 1
                    },
                    {
                        "number": 64,
                        "time": 439.5087499999995,
                        "value": 0
                    },
                    {
                        "number": 64,
                        "time": 439.6574999999995,
                        "value": 1
                    },
                    {
                        "number": 64,
                        "time": 440.7124999999995,
                        "value": 0
                    },
                    {
                        "number": 64,
                        "time": 440.8999999999995,
                        "value": 1
                    },
                    {
                        "number": 64,
                        "time": 441.91374999999954,
                        "value": 0
                    },
                    {
                        "number": 64,
                        "time": 442.0999999999995,
                        "value": 1
                    },
                    {
                        "number": 64,
                        "time": 443.11124999999953,
                        "value": 0
                    },
                    {
                        "number": 64,
                        "time": 443.3287499999995,
                        "value": 1
                    },
                    {
                        "number": 64,
                        "time": 444.3112499999995,
                        "value": 0
                    },
                    {
                        "number": 64,
                        "time": 444.5287499999995,
                        "value": 1
                    },
                    {
                        "number": 64,
                        "time": 445.5074999999995,
                        "value": 0
                    },
                    {
                        "number": 64,
                        "time": 445.6437499999995,
                        "value": 1
                    },
                    {
                        "number": 64,
                        "time": 446.1187499999995,
                        "value": 0
                    },
                    {
                        "number": 64,
                        "time": 446.28624999999954,
                        "value": 1
                    },
                    {
                        "number": 64,
                        "time": 446.7074999999995,
                        "value": 0
                    },
                    {
                        "number": 64,
                        "time": 446.84374999999955,
                        "value": 1
                    },
                    {
                        "number": 64,
                        "time": 447.04374999999953,
                        "value": 0
                    },
                    {
                        "number": 64,
                        "time": 449.26499999999953,
                        "value": 1
                    },
                    {
                        "number": 64,
                        "time": 450.3087499999995,
                        "value": 0
                    },
                    {
                        "number": 64,
                        "time": 450.4949999999995,
                        "value": 1
                    },
                    {
                        "number": 64,
                        "time": 451.5074999999995,
                        "value": 0
                    },
                    {
                        "number": 64,
                        "time": 451.6149999999995,
                        "value": 1
                    },
                    {
                        "number": 64,
                        "time": 452.70749999999947,
                        "value": 0
                    },
                    {
                        "number": 64,
                        "time": 452.80124999999947,
                        "value": 1
                    },
                    {
                        "number": 64,
                        "time": 453.90499999999946,
                        "value": 0
                    },
                    {
                        "number": 64,
                        "time": 453.90999999999946,
                        "value": 0
                    },
                    {
                        "number": 64,
                        "time": 454.0437499999995,
                        "value": 1
                    },
                    {
                        "number": 64,
                        "time": 455.1124999999995,
                        "value": 0
                    },
                    {
                        "number": 64,
                        "time": 455.2949999999995,
                        "value": 1
                    },
                    {
                        "number": 64,
                        "time": 456.2999999999995,
                        "value": 0
                    },
                    {
                        "number": 64,
                        "time": 456.3087499999995,
                        "value": 0
                    },
                    {
                        "number": 64,
                        "time": 456.4149999999995,
                        "value": 1
                    },
                    {
                        "number": 64,
                        "time": 456.4149999999995,
                        "value": 1
                    },
                    {
                        "number": 64,
                        "time": 457.5112499999995,
                        "value": 0
                    },
                    {
                        "number": 64,
                        "time": 457.5112499999995,
                        "value": 0
                    },
                    {
                        "number": 64,
                        "time": 457.8674999999995,
                        "value": 1
                    },
                    {
                        "number": 64,
                        "time": 457.8674999999995,
                        "value": 1
                    },
                    {
                        "number": 64,
                        "time": 458.6999999999995,
                        "value": 0
                    },
                    {
                        "number": 64,
                        "time": 458.6999999999995,
                        "value": 0
                    },
                    {
                        "number": 64,
                        "time": 458.8074999999995,
                        "value": 1
                    },
                    {
                        "number": 64,
                        "time": 458.8074999999995,
                        "value": 1
                    },
                    {
                        "number": 64,
                        "time": 459.89999999999947,
                        "value": 0
                    },
                    {
                        "number": 64,
                        "time": 459.9087499999995,
                        "value": 0
                    },
                    {
                        "number": 64,
                        "time": 459.9999999999995,
                        "value": 1
                    },
                    {
                        "number": 64,
                        "time": 459.9999999999995,
                        "value": 1
                    },
                    {
                        "number": 64,
                        "time": 460.8224999999995,
                        "value": 0
                    },
                    {
                        "number": 64,
                        "time": 460.8362499999995,
                        "value": 0
                    },
                    {
                        "number": 64,
                        "time": 460.92874999999947,
                        "value": 1
                    },
                    {
                        "number": 64,
                        "time": 461.10749999999945,
                        "value": 0
                    },
                    {
                        "number": 64,
                        "time": 461.19374999999945,
                        "value": 1
                    },
                    {
                        "number": 64,
                        "time": 461.72124999999943,
                        "value": 0
                    },
                    {
                        "number": 64,
                        "time": 461.79999999999944,
                        "value": 1
                    },
                    {
                        "number": 64,
                        "time": 461.79999999999944,
                        "value": 1
                    },
                    {
                        "number": 64,
                        "time": 462.30749999999944,
                        "value": 0
                    },
                    {
                        "number": 64,
                        "time": 462.30749999999944,
                        "value": 0
                    },
                    {
                        "number": 64,
                        "time": 462.38624999999945,
                        "value": 1
                    },
                    {
                        "number": 64,
                        "time": 462.38624999999945,
                        "value": 1
                    },
                    {
                        "number": 64,
                        "time": 462.91999999999945,
                        "value": 0
                    },
                    {
                        "number": 64,
                        "time": 462.91999999999945,
                        "value": 0
                    },
                    {
                        "number": 64,
                        "time": 462.99999999999943,
                        "value": 1
                    },
                    {
                        "number": 64,
                        "time": 462.99999999999943,
                        "value": 1
                    },
                    {
                        "number": 64,
                        "time": 463.49999999999943,
                        "value": 0
                    },
                    {
                        "number": 64,
                        "time": 463.49999999999943,
                        "value": 0
                    },
                    {
                        "number": 64,
                        "time": 463.5074999999994,
                        "value": 0
                    },
                    {
                        "number": 64,
                        "time": 463.60749999999945,
                        "value": 1
                    },
                    {
                        "number": 64,
                        "time": 463.60749999999945,
                        "value": 1
                    },
                    {
                        "number": 64,
                        "time": 464.6999999999994,
                        "value": 0
                    },
                    {
                        "number": 64,
                        "time": 464.70374999999945,
                        "value": 0
                    },
                    {
                        "number": 64,
                        "time": 464.79999999999944,
                        "value": 1
                    },
                    {
                        "number": 64,
                        "time": 464.79999999999944,
                        "value": 1
                    },
                    {
                        "number": 64,
                        "time": 465.63624999999945,
                        "value": 0
                    },
                    {
                        "number": 64,
                        "time": 465.7362499999995,
                        "value": 1
                    },
                    {
                        "number": 64,
                        "time": 465.90749999999946,
                        "value": 0
                    },
                    {
                        "number": 64,
                        "time": 465.9862499999995,
                        "value": 1
                    },
                    {
                        "number": 64,
                        "time": 466.5212499999995,
                        "value": 0
                    },
                    {
                        "number": 64,
                        "time": 466.5999999999995,
                        "value": 1
                    },
                    {
                        "number": 64,
                        "time": 466.5999999999995,
                        "value": 1
                    },
                    {
                        "number": 64,
                        "time": 467.1074999999995,
                        "value": 0
                    },
                    {
                        "number": 64,
                        "time": 467.1074999999995,
                        "value": 0
                    },
                    {
                        "number": 64,
                        "time": 467.1862499999995,
                        "value": 1
                    },
                    {
                        "number": 64,
                        "time": 467.1862499999995,
                        "value": 1
                    },
                    {
                        "number": 64,
                        "time": 467.7199999999995,
                        "value": 0
                    },
                    {
                        "number": 64,
                        "time": 467.7999999999995,
                        "value": 1
                    },
                    {
                        "number": 64,
                        "time": 467.7999999999995,
                        "value": 1
                    },
                    {
                        "number": 64,
                        "time": 468.2999999999995,
                        "value": 0
                    },
                    {
                        "number": 64,
                        "time": 468.3899999999995,
                        "value": 1
                    },
                    {
                        "number": 64,
                        "time": 468.90999999999946,
                        "value": 0
                    },
                    {
                        "number": 64,
                        "time": 468.95749999999947,
                        "value": 1
                    },
                    {
                        "number": 64,
                        "time": 469.50874999999945,
                        "value": 0
                    },
                    {
                        "number": 64,
                        "time": 469.54999999999944,
                        "value": 1
                    },
                    {
                        "number": 64,
                        "time": 470.10999999999945,
                        "value": 0
                    },
                    {
                        "number": 64,
                        "time": 470.18249999999944,
                        "value": 1
                    },
                    {
                        "number": 64,
                        "time": 470.7099999999994,
                        "value": 0
                    },
                    {
                        "number": 64,
                        "time": 470.7937499999994,
                        "value": 1
                    },
                    {
                        "number": 64,
                        "time": 471.90374999999943,
                        "value": 0
                    },
                    {
                        "number": 64,
                        "time": 471.94624999999945,
                        "value": 1
                    },
                    {
                        "number": 64,
                        "time": 473.1062499999995,
                        "value": 0
                    },
                    {
                        "number": 64,
                        "time": 473.1899999999995,
                        "value": 1
                    },
                    {
                        "number": 64,
                        "time": 473.70999999999947,
                        "value": 0
                    },
                    {
                        "number": 64,
                        "time": 473.7574999999995,
                        "value": 1
                    },
                    {
                        "number": 64,
                        "time": 474.3074999999995,
                        "value": 0
                    },
                    {
                        "number": 64,
                        "time": 474.3499999999995,
                        "value": 1
                    },
                    {
                        "number": 64,
                        "time": 474.9099999999995,
                        "value": 0
                    },
                    {
                        "number": 64,
                        "time": 474.9824999999995,
                        "value": 1
                    },
                    {
                        "number": 64,
                        "time": 475.5099999999995,
                        "value": 0
                    },
                    {
                        "number": 64,
                        "time": 475.5937499999995,
                        "value": 1
                    },
                    {
                        "number": 64,
                        "time": 476.7037499999995,
                        "value": 0
                    },
                    {
                        "number": 64,
                        "time": 476.7462499999995,
                        "value": 1
                    },
                    {
                        "number": 64,
                        "time": 477.90874999999954,
                        "value": 0
                    },
                    {
                        "number": 64,
                        "time": 477.98999999999955,
                        "value": 1
                    },
                    {
                        "number": 64,
                        "time": 478.50999999999954,
                        "value": 0
                    },
                    {
                        "number": 64,
                        "time": 478.55749999999955,
                        "value": 1
                    },
                    {
                        "number": 64,
                        "time": 479.1137499999995,
                        "value": 0
                    },
                    {
                        "number": 64,
                        "time": 479.1499999999995,
                        "value": 1
                    },
                    {
                        "number": 64,
                        "time": 479.7099999999995,
                        "value": 0
                    },
                    {
                        "number": 64,
                        "time": 479.7824999999995,
                        "value": 1
                    },
                    {
                        "number": 64,
                        "time": 480.3099999999995,
                        "value": 0
                    },
                    {
                        "number": 64,
                        "time": 480.3937499999995,
                        "value": 1
                    },
                    {
                        "number": 64,
                        "time": 481.5037499999995,
                        "value": 0
                    },
                    {
                        "number": 64,
                        "time": 481.54624999999953,
                        "value": 1
                    },
                    {
                        "number": 64,
                        "time": 482.70874999999955,
                        "value": 0
                    },
                    {
                        "number": 64,
                        "time": 482.78999999999957,
                        "value": 1
                    },
                    {
                        "number": 64,
                        "time": 483.30999999999955,
                        "value": 0
                    },
                    {
                        "number": 64,
                        "time": 483.35749999999956,
                        "value": 1
                    },
                    {
                        "number": 64,
                        "time": 483.91124999999954,
                        "value": 0
                    },
                    {
                        "number": 64,
                        "time": 483.94999999999953,
                        "value": 1
                    },
                    {
                        "number": 64,
                        "time": 484.50999999999954,
                        "value": 0
                    },
                    {
                        "number": 64,
                        "time": 484.5824999999995,
                        "value": 1
                    },
                    {
                        "number": 64,
                        "time": 485.1099999999995,
                        "value": 0
                    },
                    {
                        "number": 64,
                        "time": 485.1937499999995,
                        "value": 1
                    },
                    {
                        "number": 64,
                        "time": 486.3062499999995,
                        "value": 0
                    },
                    {
                        "number": 64,
                        "time": 486.34624999999954,
                        "value": 1
                    },
                    {
                        "number": 64,
                        "time": 487.51749999999953,
                        "value": 0
                    },
                    {
                        "number": 64,
                        "time": 487.63249999999954,
                        "value": 1
                    },
                    {
                        "number": 64,
                        "time": 488.7174999999995,
                        "value": 0
                    },
                    {
                        "number": 64,
                        "time": 488.8324999999995,
                        "value": 1
                    },
                    {
                        "number": 64,
                        "time": 489.3112499999995,
                        "value": 0
                    },
                    {
                        "number": 64,
                        "time": 489.42124999999953,
                        "value": 1
                    },
                    {
                        "number": 64,
                        "time": 489.9174999999995,
                        "value": 0
                    },
                    {
                        "number": 64,
                        "time": 489.9174999999995,
                        "value": 0
                    },
                    {
                        "number": 64,
                        "time": 490.0324999999995,
                        "value": 1
                    },
                    {
                        "number": 64,
                        "time": 490.0324999999995,
                        "value": 1
                    },
                    {
                        "number": 64,
                        "time": 491.1174999999995,
                        "value": 0
                    },
                    {
                        "number": 64,
                        "time": 491.1174999999995,
                        "value": 0
                    },
                    {
                        "number": 64,
                        "time": 491.2324999999995,
                        "value": 1
                    },
                    {
                        "number": 64,
                        "time": 491.2324999999995,
                        "value": 1
                    },
                    {
                        "number": 64,
                        "time": 491.7112499999995,
                        "value": 0
                    },
                    {
                        "number": 64,
                        "time": 491.8212499999995,
                        "value": 1
                    },
                    {
                        "number": 64,
                        "time": 491.8212499999995,
                        "value": 1
                    },
                    {
                        "number": 64,
                        "time": 492.3174999999995,
                        "value": 0
                    },
                    {
                        "number": 64,
                        "time": 492.3174999999995,
                        "value": 0
                    },
                    {
                        "number": 64,
                        "time": 492.4324999999995,
                        "value": 1
                    },
                    {
                        "number": 64,
                        "time": 492.4324999999995,
                        "value": 1
                    },
                    {
                        "number": 64,
                        "time": 493.5174999999995,
                        "value": 0
                    },
                    {
                        "number": 64,
                        "time": 493.5174999999995,
                        "value": 0
                    },
                    {
                        "number": 64,
                        "time": 493.6324999999995,
                        "value": 1
                    },
                    {
                        "number": 64,
                        "time": 493.6324999999995,
                        "value": 1
                    },
                    {
                        "number": 64,
                        "time": 494.1112499999995,
                        "value": 0
                    },
                    {
                        "number": 64,
                        "time": 494.2212499999995,
                        "value": 1
                    },
                    {
                        "number": 64,
                        "time": 494.2212499999995,
                        "value": 1
                    },
                    {
                        "number": 64,
                        "time": 494.71749999999946,
                        "value": 0
                    },
                    {
                        "number": 64,
                        "time": 494.71749999999946,
                        "value": 0
                    },
                    {
                        "number": 64,
                        "time": 494.71749999999946,
                        "value": 0
                    },
                    {
                        "number": 64,
                        "time": 494.83249999999947,
                        "value": 1
                    },
                    {
                        "number": 64,
                        "time": 494.83249999999947,
                        "value": 1
                    },
                    {
                        "number": 64,
                        "time": 494.83249999999947,
                        "value": 1
                    },
                    {
                        "number": 64,
                        "time": 495.91749999999945,
                        "value": 0
                    },
                    {
                        "number": 64,
                        "time": 495.91749999999945,
                        "value": 0
                    },
                    {
                        "number": 64,
                        "time": 495.91749999999945,
                        "value": 0
                    },
                    {
                        "number": 64,
                        "time": 496.03249999999946,
                        "value": 1
                    },
                    {
                        "number": 64,
                        "time": 496.03249999999946,
                        "value": 1
                    },
                    {
                        "number": 64,
                        "time": 496.03249999999946,
                        "value": 1
                    },
                    {
                        "number": 64,
                        "time": 496.51124999999945,
                        "value": 0
                    },
                    {
                        "number": 64,
                        "time": 496.62124999999946,
                        "value": 1
                    },
                    {
                        "number": 64,
                        "time": 496.62124999999946,
                        "value": 1
                    },
                    {
                        "number": 64,
                        "time": 496.62124999999946,
                        "value": 1
                    },
                    {
                        "number": 64,
                        "time": 497.11749999999944,
                        "value": 0
                    },
                    {
                        "number": 64,
                        "time": 497.23249999999945,
                        "value": 1
                    },
                    {
                        "number": 64,
                        "time": 498.3174999999994,
                        "value": 0
                    },
                    {
                        "number": 64,
                        "time": 498.43249999999944,
                        "value": 1
                    },
                    {
                        "number": 64,
                        "time": 498.9112499999994,
                        "value": 0
                    },
                    {
                        "number": 64,
                        "time": 499.02124999999944,
                        "value": 1
                    },
                    {
                        "number": 64,
                        "time": 499.5174999999994,
                        "value": 0
                    },
                    {
                        "number": 64,
                        "time": 499.5174999999994,
                        "value": 0
                    },
                    {
                        "number": 64,
                        "time": 499.6324999999994,
                        "value": 1
                    },
                    {
                        "number": 64,
                        "time": 499.6324999999994,
                        "value": 1
                    },
                    {
                        "number": 64,
                        "time": 500.13624999999945,
                        "value": 0
                    },
                    {
                        "number": 64,
                        "time": 500.22124999999943,
                        "value": 1
                    },
                    {
                        "number": 64,
                        "time": 500.7174999999994,
                        "value": 0
                    },
                    {
                        "number": 64,
                        "time": 500.7174999999994,
                        "value": 0
                    },
                    {
                        "number": 64,
                        "time": 500.8324999999994,
                        "value": 1
                    },
                    {
                        "number": 64,
                        "time": 500.8324999999994,
                        "value": 1
                    },
                    {
                        "number": 64,
                        "time": 501.3112499999994,
                        "value": 0
                    },
                    {
                        "number": 64,
                        "time": 501.3112499999994,
                        "value": 0
                    },
                    {
                        "number": 64,
                        "time": 501.4212499999994,
                        "value": 1
                    },
                    {
                        "number": 64,
                        "time": 501.4212499999994,
                        "value": 1
                    },
                    {
                        "number": 64,
                        "time": 501.9174999999994,
                        "value": 0
                    },
                    {
                        "number": 64,
                        "time": 501.9174999999994,
                        "value": 0
                    },
                    {
                        "number": 64,
                        "time": 502.0324999999994,
                        "value": 1
                    },
                    {
                        "number": 64,
                        "time": 502.0324999999994,
                        "value": 1
                    },
                    {
                        "number": 64,
                        "time": 506.6999999999994,
                        "value": 0
                    },
                    {
                        "number": 64,
                        "time": 520.1999999999994,
                        "value": 1
                    },
                    {
                        "number": 64,
                        "time": 521.0999999999993,
                        "value": 0
                    },
                    {
                        "number": 64,
                        "time": 530.7624999999994,
                        "value": 1
                    },
                    {
                        "number": 64,
                        "time": 531.9099999999994,
                        "value": 0
                    },
                    {
                        "number": 64,
                        "time": 532.0149999999994,
                        "value": 1
                    },
                    {
                        "number": 64,
                        "time": 533.1074999999994,
                        "value": 0
                    },
                    {
                        "number": 64,
                        "time": 533.2324999999994,
                        "value": 1
                    },
                    {
                        "number": 64,
                        "time": 534.3074999999994,
                        "value": 0
                    },
                    {
                        "number": 64,
                        "time": 534.3862499999994,
                        "value": 1
                    },
                    {
                        "number": 64,
                        "time": 535.5137499999995,
                        "value": 0
                    },
                    {
                        "number": 64,
                        "time": 535.6149999999996,
                        "value": 1
                    },
                    {
                        "number": 64,
                        "time": 536.7137499999995,
                        "value": 0
                    },
                    {
                        "number": 64,
                        "time": 536.7937499999996,
                        "value": 1
                    },
                    {
                        "number": 64,
                        "time": 537.9174999999996,
                        "value": 0
                    },
                    {
                        "number": 64,
                        "time": 538.0149999999995,
                        "value": 1
                    },
                    {
                        "number": 64,
                        "time": 539.1099999999996,
                        "value": 0
                    },
                    {
                        "number": 64,
                        "time": 539.2149999999996,
                        "value": 1
                    },
                    {
                        "number": 64,
                        "time": 540.3149999999996,
                        "value": 0
                    },
                    {
                        "number": 64,
                        "time": 540.4412499999996,
                        "value": 1
                    },
                    {
                        "number": 64,
                        "time": 541.5287499999996,
                        "value": 0
                    },
                    {
                        "number": 64,
                        "time": 541.6324999999996,
                        "value": 1
                    },
                    {
                        "number": 64,
                        "time": 542.7224999999996,
                        "value": 0
                    },
                    {
                        "number": 64,
                        "time": 542.8412499999996,
                        "value": 1
                    },
                    {
                        "number": 64,
                        "time": 543.9149999999996,
                        "value": 0
                    },
                    {
                        "number": 64,
                        "time": 544.0237499999996,
                        "value": 1
                    },
                    {
                        "number": 64,
                        "time": 545.1162499999996,
                        "value": 0
                    },
                    {
                        "number": 64,
                        "time": 545.3124999999995,
                        "value": 1
                    },
                    {
                        "number": 64,
                        "time": 546.3174999999995,
                        "value": 0
                    },
                    {
                        "number": 64,
                        "time": 546.4237499999996,
                        "value": 1
                    },
                    {
                        "number": 64,
                        "time": 547.5124999999996,
                        "value": 0
                    },
                    {
                        "number": 64,
                        "time": 547.6149999999996,
                        "value": 1
                    },
                    {
                        "number": 64,
                        "time": 548.6999999999996,
                        "value": 0
                    },
                    {
                        "number": 64,
                        "time": 548.7799999999996,
                        "value": 1
                    },
                    {
                        "number": 64,
                        "time": 549.0449999999996,
                        "value": 0
                    },
                    {
                        "number": 64,
                        "time": 549.7587499999996,
                        "value": 1
                    },
                    {
                        "number": 64,
                        "time": 550.3624999999996,
                        "value": 0
                    },
                    {
                        "number": 64,
                        "time": 550.4649999999996,
                        "value": 1
                    },
                    {
                        "number": 64,
                        "time": 550.9624999999995,
                        "value": 0
                    },
                    {
                        "number": 64,
                        "time": 551.0387499999995,
                        "value": 1
                    },
                    {
                        "number": 64,
                        "time": 553.9149999999995,
                        "value": 0
                    }
                ]
            },
            "id": 3,
            "name": "Pedale",
            "instrumentNumber": 0,
            "instrument": "acoustic grand piano",
            "instrumentFamily": "piano",
            "channelNumber": 0,
            "isPercussion": false
        },
        {
            "startTime": 0,
            "duration": 0,
            "length": 0,
            "notes": [],
            "controlChanges": {},
            "id": 4,
            "name": "Liszt: Rhapsodie No. 2"
        },
        {
            "startTime": 0,
            "duration": 0,
            "length": 0,
            "notes": [],
            "controlChanges": {},
            "id": 5,
            "name": "Copyright  2007 by Bernd Krueger"
        },
        {
            "startTime": 0,
            "duration": 0,
            "length": 0,
            "notes": [],
            "controlChanges": {},
            "id": 6,
            "name": "http://www.piano-midi.de/"
        },
        {
            "startTime": 0,
            "duration": 0,
            "length": 0,
            "notes": [],
            "controlChanges": {},
            "id": 7,
            "name": "Edition: 2014-03-07"
        },
        {
            "startTime": 0,
            "duration": 0,
            "length": 0,
            "notes": [],
            "controlChanges": {},
            "id": 8,
            "name": "Spur 8"
        },
        {
            "startTime": 0,
            "duration": 0,
            "length": 0,
            "notes": [],
            "controlChanges": {},
            "id": 9,
            "name": "Spur 9"
        },
        {
            "startTime": 0,
            "duration": 0,
            "length": 0,
            "notes": [],
            "controlChanges": {},
            "id": 10,
            "name": "Spur 10"
        },
        {
            "startTime": 0,
            "duration": 0,
            "length": 0,
            "notes": [],
            "controlChanges": {},
            "id": 11,
            "name": "Spur 11"
        },
        {
            "startTime": 0,
            "duration": 0,
            "length": 0,
            "notes": [],
            "controlChanges": {},
            "id": 12,
            "name": "Spur 12"
        },
        {
            "startTime": 0,
            "duration": 0,
            "length": 0,
            "notes": [],
            "controlChanges": {},
            "id": 13,
            "name": "Spur 13"
        },
        {
            "startTime": 0,
            "duration": 0,
            "length": 0,
            "notes": [],
            "controlChanges": {},
            "id": 14,
            "name": "Spur 14"
        },
        {
            "startTime": 0,
            "duration": 0,
            "length": 0,
            "notes": [],
            "controlChanges": {},
            "id": 15,
            "name": "Spur 15"
        },
        {
            "startTime": 0,
            "duration": 0,
            "length": 0,
            "notes": [],
            "controlChanges": {},
            "id": 16,
            "name": "Spur 16"
        }
    ]
}