{
    "header": {
        "PPQ": 480,
        "timeSignature": [
            4,
            4
        ],
        "bpm": 93.27995646935365,
        "name": "Promenade - Die Tuilerien (3)"
    },
    "startTime": 0,
    "duration": 101.79035624999982,
    "tracks": [
        {
            "startTime": 0,
            "duration": 0,
            "length": 0,
            "notes": [],
            "controlChanges": {},
            "id": 0,
            "name": "Promenade - Die Tuilerien (3)"
        },
        {
            "startTime": 0.0013400520833333333,
            "duration": 101.79035624999955,
            "length": 513,
            "notes": [
                {
                    "name": "G#3",
                    "midi": 56,
                    "time": 0.0013400520833333333,
                    "velocity": 0.5118110236220472,
                    "duration": 0.6432249999999999
                },
                {
                    "name": "G#4",
                    "midi": 68,
                    "time": 0.0013400520833333333,
                    "velocity": 0.6062992125984252,
                    "duration": 0.6432249999999999
                },
                {
                    "name": "F#3",
                    "midi": 54,
                    "time": 0.6432249999999999,
                    "velocity": 0.5039370078740157,
                    "duration": 0.6432249999999999
                },
                {
                    "name": "F#4",
                    "midi": 66,
                    "time": 0.6432249999999999,
                    "velocity": 0.5984251968503937,
                    "duration": 0.6432249999999999
                },
                {
                    "name": "B3",
                    "midi": 59,
                    "time": 1.2864499999999999,
                    "velocity": 0.5118110236220472,
                    "duration": 0.6432249999999999
                },
                {
                    "name": "B4",
                    "midi": 71,
                    "time": 1.2864499999999999,
                    "velocity": 0.6062992125984252,
                    "duration": 0.6432249999999999
                },
                {
                    "name": "C#4",
                    "midi": 61,
                    "time": 1.9296749999999998,
                    "velocity": 0.5196850393700787,
                    "duration": 0.32161249999999986
                },
                {
                    "name": "C#5",
                    "midi": 73,
                    "time": 1.9296749999999998,
                    "velocity": 0.6141732283464567,
                    "duration": 0.32161249999999986
                },
                {
                    "name": "F#4",
                    "midi": 66,
                    "time": 2.2512874999999997,
                    "velocity": 0.4409448818897638,
                    "duration": 0.3216125000000001
                },
                {
                    "name": "F#5",
                    "midi": 78,
                    "time": 2.2512874999999997,
                    "velocity": 0.5275590551181102,
                    "duration": 0.3216125000000001
                },
                {
                    "name": "D#4",
                    "midi": 63,
                    "time": 2.5728999999999997,
                    "velocity": 0.49606299212598426,
                    "duration": 0.6432250000000002
                },
                {
                    "name": "D#5",
                    "midi": 75,
                    "time": 2.5728999999999997,
                    "velocity": 0.5905511811023622,
                    "duration": 0.6432250000000002
                },
                {
                    "name": "C#4",
                    "midi": 61,
                    "time": 3.216125,
                    "velocity": 0.5196850393700787,
                    "duration": 0.3216125000000001
                },
                {
                    "name": "C#5",
                    "midi": 73,
                    "time": 3.216125,
                    "velocity": 0.6141732283464567,
                    "duration": 0.3216125000000001
                },
                {
                    "name": "F#4",
                    "midi": 66,
                    "time": 3.5377375,
                    "velocity": 0.5354330708661418,
                    "duration": 0.3216125000000001
                },
                {
                    "name": "F#5",
                    "midi": 78,
                    "time": 3.5377375,
                    "velocity": 0.5354330708661418,
                    "duration": 0.3216125000000001
                },
                {
                    "name": "D#4",
                    "midi": 63,
                    "time": 3.85935,
                    "velocity": 0.5039370078740157,
                    "duration": 0.6432250000000002
                },
                {
                    "name": "D#5",
                    "midi": 75,
                    "time": 3.85935,
                    "velocity": 0.5984251968503937,
                    "duration": 0.6432250000000002
                },
                {
                    "name": "B3",
                    "midi": 59,
                    "time": 4.502575,
                    "velocity": 0.5039370078740157,
                    "duration": 0.6432250000000002
                },
                {
                    "name": "B4",
                    "midi": 71,
                    "time": 4.502575,
                    "velocity": 0.5984251968503937,
                    "duration": 0.6432250000000002
                },
                {
                    "name": "C#4",
                    "midi": 61,
                    "time": 5.1458,
                    "velocity": 0.6062992125984252,
                    "duration": 0.6432250000000002
                },
                {
                    "name": "C#5",
                    "midi": 73,
                    "time": 5.1458,
                    "velocity": 0.6062992125984252,
                    "duration": 0.6432250000000002
                },
                {
                    "name": "G#3",
                    "midi": 56,
                    "time": 5.7890250000000005,
                    "velocity": 0.4645669291338583,
                    "duration": 0.6432250000000002
                },
                {
                    "name": "G#4",
                    "midi": 68,
                    "time": 5.7890250000000005,
                    "velocity": 0.5511811023622047,
                    "duration": 0.6432250000000002
                },
                {
                    "name": "F#3",
                    "midi": 54,
                    "time": 6.432250000000001,
                    "velocity": 0.4645669291338583,
                    "duration": 0.6030234375000001
                },
                {
                    "name": "F#4",
                    "midi": 66,
                    "time": 6.432250000000001,
                    "velocity": 0.5511811023622047,
                    "duration": 0.6030234375000001
                },
                {
                    "name": "D#5",
                    "midi": 75,
                    "time": 8.361925000000001,
                    "velocity": 0.4645669291338583,
                    "duration": 0.6432249999999993
                },
                {
                    "name": "F#5",
                    "midi": 78,
                    "time": 8.361925000000001,
                    "velocity": 0.5511811023622047,
                    "duration": 0.6432249999999993
                },
                {
                    "name": "F#4",
                    "midi": 66,
                    "time": 8.361925000000001,
                    "velocity": 0.4645669291338583,
                    "duration": 0.6432249999999993
                },
                {
                    "name": "B4",
                    "midi": 71,
                    "time": 8.361925000000001,
                    "velocity": 0.4645669291338583,
                    "duration": 0.6432249999999993
                },
                {
                    "name": "A#4",
                    "midi": 70,
                    "time": 9.00515,
                    "velocity": 0.4251968503937008,
                    "duration": 0.6432249999999993
                },
                {
                    "name": "C#5",
                    "midi": 73,
                    "time": 9.00515,
                    "velocity": 0.5039370078740157,
                    "duration": 0.6432249999999993
                },
                {
                    "name": "C#4",
                    "midi": 61,
                    "time": 9.00515,
                    "velocity": 0.4251968503937008,
                    "duration": 0.6432249999999993
                },
                {
                    "name": "F#4",
                    "midi": 66,
                    "time": 9.00515,
                    "velocity": 0.4251968503937008,
                    "duration": 0.6432249999999993
                },
                {
                    "name": "D#5",
                    "midi": 75,
                    "time": 9.648375,
                    "velocity": 0.4409448818897638,
                    "duration": 0.6432249999999993
                },
                {
                    "name": "F#5",
                    "midi": 78,
                    "time": 9.648375,
                    "velocity": 0.5275590551181102,
                    "duration": 0.6432249999999993
                },
                {
                    "name": "F#4",
                    "midi": 66,
                    "time": 9.648375,
                    "velocity": 0.4409448818897638,
                    "duration": 0.6432249999999993
                },
                {
                    "name": "B4",
                    "midi": 71,
                    "time": 9.648375,
                    "velocity": 0.4409448818897638,
                    "duration": 0.6432249999999993
                },
                {
                    "name": "F#5",
                    "midi": 78,
                    "time": 10.291599999999999,
                    "velocity": 0.4645669291338583,
                    "duration": 0.6432249999999993
                },
                {
                    "name": "A#5",
                    "midi": 82,
                    "time": 10.291599999999999,
                    "velocity": 0.5511811023622047,
                    "duration": 0.6432249999999993
                },
                {
                    "name": "A#4",
                    "midi": 70,
                    "time": 10.291599999999999,
                    "velocity": 0.4645669291338583,
                    "duration": 0.6432249999999993
                },
                {
                    "name": "C#5",
                    "midi": 73,
                    "time": 10.291599999999999,
                    "velocity": 0.4645669291338583,
                    "duration": 0.6432249999999993
                },
                {
                    "name": "F#5",
                    "midi": 78,
                    "time": 10.934824999999998,
                    "velocity": 0.4566929133858268,
                    "duration": 0.6432249999999993
                },
                {
                    "name": "B5",
                    "midi": 83,
                    "time": 10.934824999999998,
                    "velocity": 0.5433070866141733,
                    "duration": 0.6432249999999993
                },
                {
                    "name": "B4",
                    "midi": 71,
                    "time": 10.934824999999998,
                    "velocity": 0.4566929133858268,
                    "duration": 0.6432249999999993
                },
                {
                    "name": "D#5",
                    "midi": 75,
                    "time": 10.934824999999998,
                    "velocity": 0.4566929133858268,
                    "duration": 0.6432249999999993
                },
                {
                    "name": "B5",
                    "midi": 83,
                    "time": 11.578049999999998,
                    "velocity": 0.4645669291338583,
                    "duration": 0.6432249999999993
                },
                {
                    "name": "D#6",
                    "midi": 87,
                    "time": 11.578049999999998,
                    "velocity": 0.5511811023622047,
                    "duration": 0.6432249999999993
                },
                {
                    "name": "D#5",
                    "midi": 75,
                    "time": 11.578049999999998,
                    "velocity": 0.4645669291338583,
                    "duration": 0.6432249999999993
                },
                {
                    "name": "F#5",
                    "midi": 78,
                    "time": 11.578049999999998,
                    "velocity": 0.4645669291338583,
                    "duration": 0.6432249999999993
                },
                {
                    "name": "F5",
                    "midi": 77,
                    "time": 12.221274999999997,
                    "velocity": 0.4645669291338583,
                    "duration": 0.6432249999999993
                },
                {
                    "name": "C#5",
                    "midi": 73,
                    "time": 12.221274999999997,
                    "velocity": 0.4645669291338583,
                    "duration": 0.6432249999999993
                },
                {
                    "name": "C#6",
                    "midi": 85,
                    "time": 12.221274999999997,
                    "velocity": 0.5511811023622047,
                    "duration": 0.6432249999999993
                },
                {
                    "name": "G#5",
                    "midi": 80,
                    "time": 12.221274999999997,
                    "velocity": 0.4645669291338583,
                    "duration": 0.6432249999999993
                },
                {
                    "name": "G#5",
                    "midi": 80,
                    "time": 12.864499999999996,
                    "velocity": 0.4645669291338583,
                    "duration": 0.6432249999999993
                },
                {
                    "name": "F5",
                    "midi": 77,
                    "time": 12.864499999999996,
                    "velocity": 0.4645669291338583,
                    "duration": 0.6432249999999993
                },
                {
                    "name": "F6",
                    "midi": 89,
                    "time": 12.864499999999996,
                    "velocity": 0.5511811023622047,
                    "duration": 0.6432249999999993
                },
                {
                    "name": "C#6",
                    "midi": 85,
                    "time": 12.864499999999996,
                    "velocity": 0.5511811023622047,
                    "duration": 0.6432249999999993
                },
                {
                    "name": "A#5",
                    "midi": 82,
                    "time": 13.507724999999995,
                    "velocity": 0.4409448818897638,
                    "duration": 0.6030234374999992
                },
                {
                    "name": "F#5",
                    "midi": 78,
                    "time": 13.507724999999995,
                    "velocity": 0.4409448818897638,
                    "duration": 0.6030234374999992
                },
                {
                    "name": "F#6",
                    "midi": 90,
                    "time": 13.507724999999995,
                    "velocity": 0.5275590551181102,
                    "duration": 0.6030234374999992
                },
                {
                    "name": "C#6",
                    "midi": 85,
                    "time": 13.507724999999995,
                    "velocity": 0.4409448818897638,
                    "duration": 0.6030234374999992
                },
                {
                    "name": "F#4",
                    "midi": 66,
                    "time": 14.150949999999995,
                    "velocity": 0.4645669291338583,
                    "duration": 0.6432249999999993
                },
                {
                    "name": "F#5",
                    "midi": 78,
                    "time": 14.150949999999995,
                    "velocity": 0.5511811023622047,
                    "duration": 0.6432249999999993
                },
                {
                    "name": "G#4",
                    "midi": 68,
                    "time": 14.794174999999994,
                    "velocity": 0.44881889763779526,
                    "duration": 0.6432249999999993
                },
                {
                    "name": "G#5",
                    "midi": 80,
                    "time": 14.794174999999994,
                    "velocity": 0.5354330708661418,
                    "duration": 0.6432249999999993
                },
                {
                    "name": "C#4",
                    "midi": 61,
                    "time": 15.437399999999993,
                    "velocity": 0.4645669291338583,
                    "duration": 0.643225000000001
                },
                {
                    "name": "C#5",
                    "midi": 73,
                    "time": 15.437399999999993,
                    "velocity": 0.5511811023622047,
                    "duration": 0.643225000000001
                },
                {
                    "name": "F#4",
                    "midi": 66,
                    "time": 16.080624999999994,
                    "velocity": 0.4566929133858268,
                    "duration": 0.3216125000000005
                },
                {
                    "name": "F#5",
                    "midi": 78,
                    "time": 16.080624999999994,
                    "velocity": 0.5433070866141733,
                    "duration": 0.3216125000000005
                },
                {
                    "name": "G#4",
                    "midi": 68,
                    "time": 16.402237499999995,
                    "velocity": 0.4330708661417323,
                    "duration": 0.3216125000000005
                },
                {
                    "name": "G#5",
                    "midi": 80,
                    "time": 16.402237499999995,
                    "velocity": 0.5118110236220472,
                    "duration": 0.3216125000000005
                },
                {
                    "name": "C#4",
                    "midi": 61,
                    "time": 16.723849999999995,
                    "velocity": 0.4566929133858268,
                    "duration": 0.643225000000001
                },
                {
                    "name": "C#5",
                    "midi": 73,
                    "time": 16.723849999999995,
                    "velocity": 0.5433070866141733,
                    "duration": 0.643225000000001
                },
                {
                    "name": "G#4",
                    "midi": 68,
                    "time": 17.367074999999996,
                    "velocity": 0.4645669291338583,
                    "duration": 0.3216125000000005
                },
                {
                    "name": "G#5",
                    "midi": 80,
                    "time": 17.367074999999996,
                    "velocity": 0.5511811023622047,
                    "duration": 0.3216125000000005
                },
                {
                    "name": "A#4",
                    "midi": 70,
                    "time": 17.688687499999997,
                    "velocity": 0.4330708661417323,
                    "duration": 0.3216125000000005
                },
                {
                    "name": "A#5",
                    "midi": 82,
                    "time": 17.688687499999997,
                    "velocity": 0.5118110236220472,
                    "duration": 0.3216125000000005
                },
                {
                    "name": "F#4",
                    "midi": 66,
                    "time": 18.010299999999997,
                    "velocity": 0.4645669291338583,
                    "duration": 0.6030234374999992
                },
                {
                    "name": "F#5",
                    "midi": 78,
                    "time": 18.010299999999997,
                    "velocity": 0.5511811023622047,
                    "duration": 0.6030234374999992
                },
                {
                    "name": "F#6",
                    "midi": 90,
                    "time": 18.653524999999995,
                    "velocity": 0.5748031496062992,
                    "duration": 0.643225000000001
                },
                {
                    "name": "F#5",
                    "midi": 78,
                    "time": 18.653524999999995,
                    "velocity": 0.4881889763779528,
                    "duration": 0.643225000000001
                },
                {
                    "name": "D#6",
                    "midi": 87,
                    "time": 19.296749999999996,
                    "velocity": 0.5590551181102362,
                    "duration": 0.643225000000001
                },
                {
                    "name": "D#5",
                    "midi": 75,
                    "time": 19.296749999999996,
                    "velocity": 0.47244094488188976,
                    "duration": 0.643225000000001
                },
                {
                    "name": "C#5",
                    "midi": 73,
                    "time": 19.939974999999997,
                    "velocity": 0.44881889763779526,
                    "duration": 0.3216125000000005
                },
                {
                    "name": "C#6",
                    "midi": 85,
                    "time": 19.939974999999997,
                    "velocity": 0.5354330708661418,
                    "duration": 0.3216125000000005
                },
                {
                    "name": "B5",
                    "midi": 83,
                    "time": 20.261587499999997,
                    "velocity": 0.5118110236220472,
                    "duration": 0.3216125000000005
                },
                {
                    "name": "B4",
                    "midi": 71,
                    "time": 20.261587499999997,
                    "velocity": 0.4330708661417323,
                    "duration": 0.3216125000000005
                },
                {
                    "name": "F#4",
                    "midi": 66,
                    "time": 20.583199999999998,
                    "velocity": 0.4330708661417323,
                    "duration": 0.6030234374999992
                },
                {
                    "name": "F#5",
                    "midi": 78,
                    "time": 20.583199999999998,
                    "velocity": 0.5118110236220472,
                    "duration": 0.6030234374999992
                },
                {
                    "name": "F#4",
                    "midi": 66,
                    "time": 21.226424999999995,
                    "velocity": 0.4645669291338583,
                    "duration": 0.643225000000001
                },
                {
                    "name": "G#4",
                    "midi": 68,
                    "time": 21.869649999999996,
                    "velocity": 0.44881889763779526,
                    "duration": 0.643225000000001
                },
                {
                    "name": "C#4",
                    "midi": 61,
                    "time": 22.512874999999998,
                    "velocity": 0.4251968503937008,
                    "duration": 0.643225000000001
                },
                {
                    "name": "F#4",
                    "midi": 66,
                    "time": 23.1561,
                    "velocity": 0.3700787401574803,
                    "duration": 0.3216125000000005
                },
                {
                    "name": "G#4",
                    "midi": 68,
                    "time": 23.4777125,
                    "velocity": 0.33858267716535434,
                    "duration": 0.3216125000000005
                },
                {
                    "name": "C#4",
                    "midi": 61,
                    "time": 23.799325,
                    "velocity": 0.3700787401574803,
                    "duration": 0.643225000000001
                },
                {
                    "name": "F#4",
                    "midi": 66,
                    "time": 25.729,
                    "velocity": 0.30708661417322836,
                    "duration": 0.3216125000000005
                },
                {
                    "name": "G#4",
                    "midi": 68,
                    "time": 26.0506125,
                    "velocity": 0.28346456692913385,
                    "duration": 0.3216125000000005
                },
                {
                    "name": "C#4",
                    "midi": 61,
                    "time": 26.372225,
                    "velocity": 0.30708661417322836,
                    "duration": 0.3216125000000005
                },
                {
                    "name": "F#5",
                    "midi": 78,
                    "time": 27.01545,
                    "velocity": 0.3937007874015748,
                    "duration": 0.643225000000001
                },
                {
                    "name": "B4",
                    "midi": 71,
                    "time": 27.01545,
                    "velocity": 0.3543307086614173,
                    "duration": 0.643225000000001
                },
                {
                    "name": "F#4",
                    "midi": 66,
                    "time": 27.01545,
                    "velocity": 0.3543307086614173,
                    "duration": 0.643225000000001
                },
                {
                    "name": "D#5",
                    "midi": 75,
                    "time": 27.658675000000002,
                    "velocity": 0.30708661417322836,
                    "duration": 0.16080625000000026
                },
                {
                    "name": "B4",
                    "midi": 71,
                    "time": 27.658675000000002,
                    "velocity": 0.2755905511811024,
                    "duration": 0.16080625000000026
                },
                {
                    "name": "F4",
                    "midi": 65,
                    "time": 27.658675000000002,
                    "velocity": 0.2755905511811024,
                    "duration": 0.16080625000000026
                },
                {
                    "name": "F#4",
                    "midi": 66,
                    "time": 28.301900000000003,
                    "velocity": 0.3543307086614173,
                    "duration": 0.643225000000001
                },
                {
                    "name": "B4",
                    "midi": 71,
                    "time": 28.301900000000003,
                    "velocity": 0.3543307086614173,
                    "duration": 0.643225000000001
                },
                {
                    "name": "F#5",
                    "midi": 78,
                    "time": 28.301900000000003,
                    "velocity": 0.3937007874015748,
                    "duration": 0.643225000000001
                },
                {
                    "name": "F4",
                    "midi": 65,
                    "time": 28.945125000000004,
                    "velocity": 0.2677165354330709,
                    "duration": 0.16080625000000026
                },
                {
                    "name": "B4",
                    "midi": 71,
                    "time": 28.945125000000004,
                    "velocity": 0.2677165354330709,
                    "duration": 0.16080625000000026
                },
                {
                    "name": "D#5",
                    "midi": 75,
                    "time": 28.945125000000004,
                    "velocity": 0.2992125984251969,
                    "duration": 0.16080625000000026
                },
                {
                    "name": "F#5",
                    "midi": 78,
                    "time": 29.588350000000005,
                    "velocity": 0.3937007874015748,
                    "duration": 0.3216125000000005
                },
                {
                    "name": "F#4",
                    "midi": 66,
                    "time": 29.588350000000005,
                    "velocity": 0.29133858267716534,
                    "duration": 0.643225000000001
                },
                {
                    "name": "B4",
                    "midi": 71,
                    "time": 29.588350000000005,
                    "velocity": 0.29133858267716534,
                    "duration": 0.643225000000001
                },
                {
                    "name": "G#5",
                    "midi": 80,
                    "time": 29.909962500000006,
                    "velocity": 0.4409448818897638,
                    "duration": 0.16080625000000026
                },
                {
                    "name": "F#5",
                    "midi": 78,
                    "time": 30.070768750000006,
                    "velocity": 0.4251968503937008,
                    "duration": 0.16080625000000026
                },
                {
                    "name": "F4",
                    "midi": 65,
                    "time": 30.231575000000007,
                    "velocity": 0.2125984251968504,
                    "duration": 0.3216125000000005
                },
                {
                    "name": "B4",
                    "midi": 71,
                    "time": 30.231575000000007,
                    "velocity": 0.2125984251968504,
                    "duration": 0.3216125000000005
                },
                {
                    "name": "F5",
                    "midi": 77,
                    "time": 30.231575000000007,
                    "velocity": 0.4251968503937008,
                    "duration": 0.08040312500000013
                },
                {
                    "name": "D#5",
                    "midi": 75,
                    "time": 30.392381250000007,
                    "velocity": 0.41732283464566927,
                    "duration": 0.08040312500000013
                },
                {
                    "name": "D5",
                    "midi": 74,
                    "time": 30.553187500000007,
                    "velocity": 0.4094488188976378,
                    "duration": 0.08040312500000013
                },
                {
                    "name": "D#5",
                    "midi": 75,
                    "time": 30.713993750000007,
                    "velocity": 0.4094488188976378,
                    "duration": 0.08040312500000013
                },
                {
                    "name": "F5",
                    "midi": 77,
                    "time": 30.874800000000008,
                    "velocity": 0.4015748031496063,
                    "duration": 0.08040312500000013
                },
                {
                    "name": "B4",
                    "midi": 71,
                    "time": 30.874800000000008,
                    "velocity": 0.29133858267716534,
                    "duration": 0.643225000000001
                },
                {
                    "name": "F#4",
                    "midi": 66,
                    "time": 30.874800000000008,
                    "velocity": 0.29133858267716534,
                    "duration": 0.643225000000001
                },
                {
                    "name": "D#5",
                    "midi": 75,
                    "time": 31.035606250000008,
                    "velocity": 0.3937007874015748,
                    "duration": 0.08040312500000013
                },
                {
                    "name": "F#5",
                    "midi": 78,
                    "time": 31.196412500000008,
                    "velocity": 0.4094488188976378,
                    "duration": 0.08040312500000013
                },
                {
                    "name": "F5",
                    "midi": 77,
                    "time": 31.35721875000001,
                    "velocity": 0.3937007874015748,
                    "duration": 0.08040312500000013
                },
                {
                    "name": "G#5",
                    "midi": 80,
                    "time": 31.51802500000001,
                    "velocity": 0.4251968503937008,
                    "duration": 0.08040312500000013
                },
                {
                    "name": "B4",
                    "midi": 71,
                    "time": 31.51802500000001,
                    "velocity": 0.2125984251968504,
                    "duration": 0.3216125000000005
                },
                {
                    "name": "F4",
                    "midi": 65,
                    "time": 31.51802500000001,
                    "velocity": 0.2125984251968504,
                    "duration": 0.3216125000000005
                },
                {
                    "name": "F#5",
                    "midi": 78,
                    "time": 31.67883125000001,
                    "velocity": 0.3937007874015748,
                    "duration": 0.08040312500000013
                },
                {
                    "name": "F5",
                    "midi": 77,
                    "time": 31.83963750000001,
                    "velocity": 0.4094488188976378,
                    "duration": 0.08040312500000013
                },
                {
                    "name": "D#5",
                    "midi": 75,
                    "time": 32.00044375000001,
                    "velocity": 0.3937007874015748,
                    "duration": 0.08040312499999658
                },
                {
                    "name": "F#4",
                    "midi": 66,
                    "time": 32.16125,
                    "velocity": 0.3543307086614173,
                    "duration": 0.643225000000001
                },
                {
                    "name": "B4",
                    "midi": 71,
                    "time": 32.16125,
                    "velocity": 0.3543307086614173,
                    "duration": 0.643225000000001
                },
                {
                    "name": "F#5",
                    "midi": 78,
                    "time": 32.16125,
                    "velocity": 0.3937007874015748,
                    "duration": 0.643225000000001
                },
                {
                    "name": "F4",
                    "midi": 65,
                    "time": 32.804475000000004,
                    "velocity": 0.2755905511811024,
                    "duration": 0.16080625000000026
                },
                {
                    "name": "B4",
                    "midi": 71,
                    "time": 32.804475000000004,
                    "velocity": 0.2755905511811024,
                    "duration": 0.16080625000000026
                },
                {
                    "name": "D#5",
                    "midi": 75,
                    "time": 32.804475000000004,
                    "velocity": 0.30708661417322836,
                    "duration": 0.16080625000000026
                },
                {
                    "name": "F#5",
                    "midi": 78,
                    "time": 33.447700000000005,
                    "velocity": 0.3937007874015748,
                    "duration": 0.643225000000001
                },
                {
                    "name": "B4",
                    "midi": 71,
                    "time": 33.447700000000005,
                    "velocity": 0.3543307086614173,
                    "duration": 0.643225000000001
                },
                {
                    "name": "F#4",
                    "midi": 66,
                    "time": 33.447700000000005,
                    "velocity": 0.3543307086614173,
                    "duration": 0.643225000000001
                },
                {
                    "name": "D#5",
                    "midi": 75,
                    "time": 34.090925000000006,
                    "velocity": 0.2992125984251969,
                    "duration": 0.16080625000000026
                },
                {
                    "name": "B4",
                    "midi": 71,
                    "time": 34.090925000000006,
                    "velocity": 0.2677165354330709,
                    "duration": 0.16080625000000026
                },
                {
                    "name": "F4",
                    "midi": 65,
                    "time": 34.090925000000006,
                    "velocity": 0.2677165354330709,
                    "duration": 0.16080625000000026
                },
                {
                    "name": "F#4",
                    "midi": 66,
                    "time": 34.73415000000001,
                    "velocity": 0.29133858267716534,
                    "duration": 0.643225000000001
                },
                {
                    "name": "B4",
                    "midi": 71,
                    "time": 34.73415000000001,
                    "velocity": 0.29133858267716534,
                    "duration": 0.643225000000001
                },
                {
                    "name": "F#5",
                    "midi": 78,
                    "time": 34.73415000000001,
                    "velocity": 0.3937007874015748,
                    "duration": 0.3216125000000005
                },
                {
                    "name": "G#5",
                    "midi": 80,
                    "time": 35.05576250000001,
                    "velocity": 0.4409448818897638,
                    "duration": 0.16080625000000026
                },
                {
                    "name": "F#5",
                    "midi": 78,
                    "time": 35.21656875000001,
                    "velocity": 0.4251968503937008,
                    "duration": 0.16080625000000026
                },
                {
                    "name": "F5",
                    "midi": 77,
                    "time": 35.37737500000001,
                    "velocity": 0.4251968503937008,
                    "duration": 0.08040312499999658
                },
                {
                    "name": "B4",
                    "midi": 71,
                    "time": 35.37737500000001,
                    "velocity": 0.2125984251968504,
                    "duration": 0.3216124999999863
                },
                {
                    "name": "F4",
                    "midi": 65,
                    "time": 35.37737500000001,
                    "velocity": 0.2125984251968504,
                    "duration": 0.3216124999999863
                },
                {
                    "name": "D#5",
                    "midi": 75,
                    "time": 35.53818125,
                    "velocity": 0.41732283464566927,
                    "duration": 0.08040312499999658
                },
                {
                    "name": "D5",
                    "midi": 74,
                    "time": 35.698987499999994,
                    "velocity": 0.4094488188976378,
                    "duration": 0.08040312499999658
                },
                {
                    "name": "D#5",
                    "midi": 75,
                    "time": 35.85979374999999,
                    "velocity": 0.4094488188976378,
                    "duration": 0.08040312499999658
                },
                {
                    "name": "F#4",
                    "midi": 66,
                    "time": 36.02059999999998,
                    "velocity": 0.29133858267716534,
                    "duration": 0.6432249999999726
                },
                {
                    "name": "B4",
                    "midi": 71,
                    "time": 36.02059999999998,
                    "velocity": 0.29133858267716534,
                    "duration": 0.6432249999999726
                },
                {
                    "name": "F5",
                    "midi": 77,
                    "time": 36.02059999999998,
                    "velocity": 0.4015748031496063,
                    "duration": 0.08040312499999658
                },
                {
                    "name": "D#5",
                    "midi": 75,
                    "time": 36.181406249999974,
                    "velocity": 0.3937007874015748,
                    "duration": 0.08040312499999658
                },
                {
                    "name": "F#5",
                    "midi": 78,
                    "time": 36.34221249999997,
                    "velocity": 0.4094488188976378,
                    "duration": 0.08040312499999658
                },
                {
                    "name": "F5",
                    "midi": 77,
                    "time": 36.50301874999996,
                    "velocity": 0.3937007874015748,
                    "duration": 0.08040312499999658
                },
                {
                    "name": "G#5",
                    "midi": 80,
                    "time": 36.66382499999995,
                    "velocity": 0.4251968503937008,
                    "duration": 0.08040312499999658
                },
                {
                    "name": "B4",
                    "midi": 71,
                    "time": 36.66382499999995,
                    "velocity": 0.2125984251968504,
                    "duration": 0.3216124999999863
                },
                {
                    "name": "F4",
                    "midi": 65,
                    "time": 36.66382499999995,
                    "velocity": 0.2125984251968504,
                    "duration": 0.3216124999999863
                },
                {
                    "name": "F#5",
                    "midi": 78,
                    "time": 36.824631249999946,
                    "velocity": 0.3937007874015748,
                    "duration": 0.08040312499999658
                },
                {
                    "name": "F5",
                    "midi": 77,
                    "time": 36.98543749999994,
                    "velocity": 0.4094488188976378,
                    "duration": 0.08040312499999658
                },
                {
                    "name": "D#5",
                    "midi": 75,
                    "time": 37.14624374999993,
                    "velocity": 0.3937007874015748,
                    "duration": 0.08040312499999658
                },
                {
                    "name": "G#4",
                    "midi": 68,
                    "time": 37.307049999999926,
                    "velocity": 0.3543307086614173,
                    "duration": 0.643225000000001
                },
                {
                    "name": "B4",
                    "midi": 71,
                    "time": 37.307049999999926,
                    "velocity": 0.3543307086614173,
                    "duration": 0.643225000000001
                },
                {
                    "name": "G#5",
                    "midi": 80,
                    "time": 37.307049999999926,
                    "velocity": 0.3937007874015748,
                    "duration": 0.643225000000001
                },
                {
                    "name": "D#5",
                    "midi": 75,
                    "time": 37.95027499999993,
                    "velocity": 0.30708661417322836,
                    "duration": 0.16080625000000026
                },
                {
                    "name": "B4",
                    "midi": 71,
                    "time": 37.95027499999993,
                    "velocity": 0.2755905511811024,
                    "duration": 0.16080625000000026
                },
                {
                    "name": "F#4",
                    "midi": 66,
                    "time": 37.95027499999993,
                    "velocity": 0.2755905511811024,
                    "duration": 0.16080625000000026
                },
                {
                    "name": "G#5",
                    "midi": 80,
                    "time": 38.59349999999993,
                    "velocity": 0.3937007874015748,
                    "duration": 0.643225000000001
                },
                {
                    "name": "B4",
                    "midi": 71,
                    "time": 38.59349999999993,
                    "velocity": 0.3543307086614173,
                    "duration": 0.643225000000001
                },
                {
                    "name": "G#4",
                    "midi": 68,
                    "time": 38.59349999999993,
                    "velocity": 0.3543307086614173,
                    "duration": 0.643225000000001
                },
                {
                    "name": "F#4",
                    "midi": 66,
                    "time": 39.23672499999993,
                    "velocity": 0.2677165354330709,
                    "duration": 0.16080625000000026
                },
                {
                    "name": "B4",
                    "midi": 71,
                    "time": 39.23672499999993,
                    "velocity": 0.2677165354330709,
                    "duration": 0.16080625000000026
                },
                {
                    "name": "D#5",
                    "midi": 75,
                    "time": 39.23672499999993,
                    "velocity": 0.2992125984251969,
                    "duration": 0.16080625000000026
                },
                {
                    "name": "G#4",
                    "midi": 68,
                    "time": 39.87994999999993,
                    "velocity": 0.33070866141732286,
                    "duration": 0.9648374999999874
                },
                {
                    "name": "B4",
                    "midi": 71,
                    "time": 39.87994999999993,
                    "velocity": 0.33070866141732286,
                    "duration": 0.9648374999999874
                },
                {
                    "name": "G#5",
                    "midi": 80,
                    "time": 39.87994999999993,
                    "velocity": 0.3937007874015748,
                    "duration": 0.3216125000000005
                },
                {
                    "name": "B5",
                    "midi": 83,
                    "time": 40.20156249999993,
                    "velocity": 0.4409448818897638,
                    "duration": 0.16080625000000026
                },
                {
                    "name": "A#5",
                    "midi": 82,
                    "time": 40.36236874999993,
                    "velocity": 0.4251968503937008,
                    "duration": 0.16080625000000026
                },
                {
                    "name": "G#5",
                    "midi": 80,
                    "time": 40.52317499999993,
                    "velocity": 0.4251968503937008,
                    "duration": 0.08040312499999658
                },
                {
                    "name": "F#5",
                    "midi": 78,
                    "time": 40.683981249999924,
                    "velocity": 0.41732283464566927,
                    "duration": 0.08040312499999658
                },
                {
                    "name": "F5",
                    "midi": 77,
                    "time": 40.84478749999992,
                    "velocity": 0.4094488188976378,
                    "duration": 0.08040312499999658
                },
                {
                    "name": "D#5",
                    "midi": 75,
                    "time": 41.00559374999991,
                    "velocity": 0.4094488188976378,
                    "duration": 0.08040312499999658
                },
                {
                    "name": "B4",
                    "midi": 71,
                    "time": 41.1663999999999,
                    "velocity": 0.33070866141732286,
                    "duration": 0.9648374999999589
                },
                {
                    "name": "G#4",
                    "midi": 68,
                    "time": 41.1663999999999,
                    "velocity": 0.33070866141732286,
                    "duration": 0.9648374999999589
                },
                {
                    "name": "D5",
                    "midi": 74,
                    "time": 41.1663999999999,
                    "velocity": 0.4015748031496063,
                    "duration": 0.08040312499999658
                },
                {
                    "name": "D#5",
                    "midi": 75,
                    "time": 41.3272062499999,
                    "velocity": 0.3937007874015748,
                    "duration": 0.08040312499999658
                },
                {
                    "name": "F5",
                    "midi": 77,
                    "time": 41.48801249999989,
                    "velocity": 0.4094488188976378,
                    "duration": 0.08040312499999658
                },
                {
                    "name": "D#5",
                    "midi": 75,
                    "time": 41.64881874999988,
                    "velocity": 0.3937007874015748,
                    "duration": 0.08040312499999658
                },
                {
                    "name": "G#5",
                    "midi": 80,
                    "time": 41.809624999999876,
                    "velocity": 0.4251968503937008,
                    "duration": 0.08040312499999658
                },
                {
                    "name": "F#5",
                    "midi": 78,
                    "time": 41.97043124999987,
                    "velocity": 0.3937007874015748,
                    "duration": 0.08040312499999658
                },
                {
                    "name": "F5",
                    "midi": 77,
                    "time": 42.13123749999986,
                    "velocity": 0.4094488188976378,
                    "duration": 0.08040312499999658
                },
                {
                    "name": "D#5",
                    "midi": 75,
                    "time": 42.292043749999856,
                    "velocity": 0.3937007874015748,
                    "duration": 0.08040312499999658
                },
                {
                    "name": "G#5",
                    "midi": 80,
                    "time": 42.45284999999985,
                    "velocity": 0.3937007874015748,
                    "duration": 0.643225000000001
                },
                {
                    "name": "B4",
                    "midi": 71,
                    "time": 42.45284999999985,
                    "velocity": 0.3543307086614173,
                    "duration": 0.643225000000001
                },
                {
                    "name": "G#4",
                    "midi": 68,
                    "time": 42.45284999999985,
                    "velocity": 0.3543307086614173,
                    "duration": 0.643225000000001
                },
                {
                    "name": "D#5",
                    "midi": 75,
                    "time": 43.09607499999985,
                    "velocity": 0.30708661417322836,
                    "duration": 0.16080625000000026
                },
                {
                    "name": "B4",
                    "midi": 71,
                    "time": 43.09607499999985,
                    "velocity": 0.2755905511811024,
                    "duration": 0.16080625000000026
                },
                {
                    "name": "F#4",
                    "midi": 66,
                    "time": 43.09607499999985,
                    "velocity": 0.2755905511811024,
                    "duration": 0.16080625000000026
                },
                {
                    "name": "G#4",
                    "midi": 68,
                    "time": 43.73929999999985,
                    "velocity": 0.3543307086614173,
                    "duration": 0.643225000000001
                },
                {
                    "name": "B4",
                    "midi": 71,
                    "time": 43.73929999999985,
                    "velocity": 0.3543307086614173,
                    "duration": 0.643225000000001
                },
                {
                    "name": "G#5",
                    "midi": 80,
                    "time": 43.73929999999985,
                    "velocity": 0.3937007874015748,
                    "duration": 0.643225000000001
                },
                {
                    "name": "F#4",
                    "midi": 66,
                    "time": 44.38252499999985,
                    "velocity": 0.2677165354330709,
                    "duration": 0.16080625000000026
                },
                {
                    "name": "B4",
                    "midi": 71,
                    "time": 44.38252499999985,
                    "velocity": 0.2677165354330709,
                    "duration": 0.16080625000000026
                },
                {
                    "name": "D#5",
                    "midi": 75,
                    "time": 44.38252499999985,
                    "velocity": 0.2992125984251969,
                    "duration": 0.16080625000000026
                },
                {
                    "name": "A5",
                    "midi": 81,
                    "time": 45.02574999999985,
                    "velocity": 0.4566929133858268,
                    "duration": 0.643225000000001
                },
                {
                    "name": "C#5",
                    "midi": 73,
                    "time": 45.02574999999985,
                    "velocity": 0.4094488188976378,
                    "duration": 0.643225000000001
                },
                {
                    "name": "G4",
                    "midi": 67,
                    "time": 45.02574999999985,
                    "velocity": 0.4094488188976378,
                    "duration": 0.643225000000001
                },
                {
                    "name": "D#5",
                    "midi": 75,
                    "time": 45.668974999999854,
                    "velocity": 0.4251968503937008,
                    "duration": 0.16080625000000026
                },
                {
                    "name": "C#5",
                    "midi": 73,
                    "time": 45.668974999999854,
                    "velocity": 0.3779527559055118,
                    "duration": 0.16080625000000026
                },
                {
                    "name": "F#4",
                    "midi": 66,
                    "time": 45.668974999999854,
                    "velocity": 0.3779527559055118,
                    "duration": 0.16080625000000026
                },
                {
                    "name": "G4",
                    "midi": 67,
                    "time": 46.312199999999855,
                    "velocity": 0.3228346456692913,
                    "duration": 0.643225000000001
                },
                {
                    "name": "C#5",
                    "midi": 73,
                    "time": 46.312199999999855,
                    "velocity": 0.3228346456692913,
                    "duration": 0.643225000000001
                },
                {
                    "name": "A5",
                    "midi": 81,
                    "time": 46.312199999999855,
                    "velocity": 0.4330708661417323,
                    "duration": 0.3216125000000005
                },
                {
                    "name": "C#6",
                    "midi": 85,
                    "time": 46.633812499999856,
                    "velocity": 0.48031496062992124,
                    "duration": 0.16080625000000026
                },
                {
                    "name": "B5",
                    "midi": 83,
                    "time": 46.794618749999856,
                    "velocity": 0.4330708661417323,
                    "duration": 0.16080625000000026
                },
                {
                    "name": "F#4",
                    "midi": 66,
                    "time": 46.955424999999856,
                    "velocity": 0.2677165354330709,
                    "duration": 0.3216124999999863
                },
                {
                    "name": "A5",
                    "midi": 81,
                    "time": 46.955424999999856,
                    "velocity": 0.4645669291338583,
                    "duration": 0.08040312499999658
                },
                {
                    "name": "D#5",
                    "midi": 75,
                    "time": 46.955424999999856,
                    "velocity": 0.2677165354330709,
                    "duration": 0.3216124999999863
                },
                {
                    "name": "C#5",
                    "midi": 73,
                    "time": 46.955424999999856,
                    "velocity": 0.2677165354330709,
                    "duration": 0.3216124999999863
                },
                {
                    "name": "G5",
                    "midi": 79,
                    "time": 47.11623124999985,
                    "velocity": 0.4330708661417323,
                    "duration": 0.08040312499999658
                },
                {
                    "name": "F#5",
                    "midi": 78,
                    "time": 47.27703749999984,
                    "velocity": 0.44881889763779526,
                    "duration": 0.08040312499999658
                },
                {
                    "name": "E5",
                    "midi": 76,
                    "time": 47.437843749999836,
                    "velocity": 0.41732283464566927,
                    "duration": 0.08040312499999658
                },
                {
                    "name": "G4",
                    "midi": 67,
                    "time": 47.59864999999983,
                    "velocity": 0.4094488188976378,
                    "duration": 0.643225000000001
                },
                {
                    "name": "C#5",
                    "midi": 73,
                    "time": 47.59864999999983,
                    "velocity": 0.4094488188976378,
                    "duration": 0.643225000000001
                },
                {
                    "name": "A5",
                    "midi": 81,
                    "time": 47.59864999999983,
                    "velocity": 0.4566929133858268,
                    "duration": 0.643225000000001
                },
                {
                    "name": "F#4",
                    "midi": 66,
                    "time": 48.24187499999983,
                    "velocity": 0.3779527559055118,
                    "duration": 0.16080625000000026
                },
                {
                    "name": "C#5",
                    "midi": 73,
                    "time": 48.24187499999983,
                    "velocity": 0.3779527559055118,
                    "duration": 0.16080625000000026
                },
                {
                    "name": "D#5",
                    "midi": 75,
                    "time": 48.24187499999983,
                    "velocity": 0.4251968503937008,
                    "duration": 0.16080625000000026
                },
                {
                    "name": "A5",
                    "midi": 81,
                    "time": 48.88509999999983,
                    "velocity": 0.4330708661417323,
                    "duration": 0.3216125000000005
                },
                {
                    "name": "C#5",
                    "midi": 73,
                    "time": 48.88509999999983,
                    "velocity": 0.3228346456692913,
                    "duration": 0.643225000000001
                },
                {
                    "name": "G4",
                    "midi": 67,
                    "time": 48.88509999999983,
                    "velocity": 0.3228346456692913,
                    "duration": 0.643225000000001
                },
                {
                    "name": "C#6",
                    "midi": 85,
                    "time": 49.20671249999983,
                    "velocity": 0.48031496062992124,
                    "duration": 0.16080625000000026
                },
                {
                    "name": "B5",
                    "midi": 83,
                    "time": 49.36751874999983,
                    "velocity": 0.4330708661417323,
                    "duration": 0.16080625000000026
                },
                {
                    "name": "D#5",
                    "midi": 75,
                    "time": 49.52832499999983,
                    "velocity": 0.2677165354330709,
                    "duration": 0.3216124999999863
                },
                {
                    "name": "C#5",
                    "midi": 73,
                    "time": 49.52832499999983,
                    "velocity": 0.2677165354330709,
                    "duration": 0.3216124999999863
                },
                {
                    "name": "F#4",
                    "midi": 66,
                    "time": 49.52832499999983,
                    "velocity": 0.2677165354330709,
                    "duration": 0.3216124999999863
                },
                {
                    "name": "A5",
                    "midi": 81,
                    "time": 49.52832499999983,
                    "velocity": 0.4645669291338583,
                    "duration": 0.08040312499999658
                },
                {
                    "name": "G5",
                    "midi": 79,
                    "time": 49.689131249999825,
                    "velocity": 0.4330708661417323,
                    "duration": 0.08040312499999658
                },
                {
                    "name": "F#5",
                    "midi": 78,
                    "time": 49.84993749999982,
                    "velocity": 0.44881889763779526,
                    "duration": 0.08040312499999658
                },
                {
                    "name": "E5",
                    "midi": 76,
                    "time": 50.01074374999981,
                    "velocity": 0.41732283464566927,
                    "duration": 0.08040312499999658
                },
                {
                    "name": "E6",
                    "midi": 88,
                    "time": 50.171549999999804,
                    "velocity": 0.4566929133858268,
                    "duration": 0.08040312499999658
                },
                {
                    "name": "D#6",
                    "midi": 87,
                    "time": 50.3323562499998,
                    "velocity": 0.4566929133858268,
                    "duration": 0.08040312499999658
                },
                {
                    "name": "C#6",
                    "midi": 85,
                    "time": 50.49316249999979,
                    "velocity": 0.44881889763779526,
                    "duration": 0.08040312499999658
                },
                {
                    "name": "B5",
                    "midi": 83,
                    "time": 50.653968749999784,
                    "velocity": 0.44881889763779526,
                    "duration": 0.08040312499999658
                },
                {
                    "name": "A5",
                    "midi": 81,
                    "time": 50.81477499999978,
                    "velocity": 0.4409448818897638,
                    "duration": 0.08040312499999658
                },
                {
                    "name": "G#5",
                    "midi": 80,
                    "time": 50.97558124999977,
                    "velocity": 0.4409448818897638,
                    "duration": 0.08040312499999658
                },
                {
                    "name": "F#5",
                    "midi": 78,
                    "time": 51.13638749999976,
                    "velocity": 0.4330708661417323,
                    "duration": 0.08040312499999658
                },
                {
                    "name": "E5",
                    "midi": 76,
                    "time": 51.29719374999976,
                    "velocity": 0.4251968503937008,
                    "duration": 0.08040312499999658
                },
                {
                    "name": "F5",
                    "midi": 77,
                    "time": 51.45799999999975,
                    "velocity": 0.48031496062992124,
                    "duration": 0.3216125000000005
                },
                {
                    "name": "F#5",
                    "midi": 78,
                    "time": 51.77961249999975,
                    "velocity": 0.4645669291338583,
                    "duration": 0.3216125000000005
                },
                {
                    "name": "G#5",
                    "midi": 80,
                    "time": 52.10122499999975,
                    "velocity": 0.5039370078740157,
                    "duration": 0.3216125000000005
                },
                {
                    "name": "C#5",
                    "midi": 73,
                    "time": 52.42283749999975,
                    "velocity": 0.4645669291338583,
                    "duration": 0.3216125000000005
                },
                {
                    "name": "F#5",
                    "midi": 78,
                    "time": 52.74444999999975,
                    "velocity": 0.3937007874015748,
                    "duration": 0.643225000000001
                },
                {
                    "name": "B4",
                    "midi": 71,
                    "time": 52.74444999999975,
                    "velocity": 0.3543307086614173,
                    "duration": 0.643225000000001
                },
                {
                    "name": "F#4",
                    "midi": 66,
                    "time": 52.74444999999975,
                    "velocity": 0.3543307086614173,
                    "duration": 0.643225000000001
                },
                {
                    "name": "F4",
                    "midi": 65,
                    "time": 53.38767499999975,
                    "velocity": 0.2755905511811024,
                    "duration": 0.16080625000000026
                },
                {
                    "name": "B4",
                    "midi": 71,
                    "time": 53.38767499999975,
                    "velocity": 0.2755905511811024,
                    "duration": 0.16080625000000026
                },
                {
                    "name": "D#5",
                    "midi": 75,
                    "time": 53.38767499999975,
                    "velocity": 0.30708661417322836,
                    "duration": 0.16080625000000026
                },
                {
                    "name": "F#4",
                    "midi": 66,
                    "time": 54.030899999999754,
                    "velocity": 0.3543307086614173,
                    "duration": 0.643225000000001
                },
                {
                    "name": "B4",
                    "midi": 71,
                    "time": 54.030899999999754,
                    "velocity": 0.3543307086614173,
                    "duration": 0.643225000000001
                },
                {
                    "name": "F#5",
                    "midi": 78,
                    "time": 54.030899999999754,
                    "velocity": 0.3937007874015748,
                    "duration": 0.643225000000001
                },
                {
                    "name": "D#5",
                    "midi": 75,
                    "time": 54.674124999999755,
                    "velocity": 0.2992125984251969,
                    "duration": 0.16080625000000026
                },
                {
                    "name": "B4",
                    "midi": 71,
                    "time": 54.674124999999755,
                    "velocity": 0.2677165354330709,
                    "duration": 0.16080625000000026
                },
                {
                    "name": "F4",
                    "midi": 65,
                    "time": 54.674124999999755,
                    "velocity": 0.2677165354330709,
                    "duration": 0.16080625000000026
                },
                {
                    "name": "F#5",
                    "midi": 78,
                    "time": 55.317349999999756,
                    "velocity": 0.3937007874015748,
                    "duration": 0.3216125000000005
                },
                {
                    "name": "B4",
                    "midi": 71,
                    "time": 55.317349999999756,
                    "velocity": 0.29133858267716534,
                    "duration": 0.643225000000001
                },
                {
                    "name": "F#4",
                    "midi": 66,
                    "time": 55.317349999999756,
                    "velocity": 0.29133858267716534,
                    "duration": 0.643225000000001
                },
                {
                    "name": "G#5",
                    "midi": 80,
                    "time": 55.63896249999976,
                    "velocity": 0.4409448818897638,
                    "duration": 0.16080625000000026
                },
                {
                    "name": "F#5",
                    "midi": 78,
                    "time": 55.79976874999976,
                    "velocity": 0.4251968503937008,
                    "duration": 0.16080625000000026
                },
                {
                    "name": "F5",
                    "midi": 77,
                    "time": 55.96057499999976,
                    "velocity": 0.4251968503937008,
                    "duration": 0.08040312499999658
                },
                {
                    "name": "B4",
                    "midi": 71,
                    "time": 55.96057499999976,
                    "velocity": 0.2125984251968504,
                    "duration": 0.3216124999999863
                },
                {
                    "name": "F4",
                    "midi": 65,
                    "time": 55.96057499999976,
                    "velocity": 0.2125984251968504,
                    "duration": 0.3216124999999863
                },
                {
                    "name": "D#5",
                    "midi": 75,
                    "time": 56.12138124999975,
                    "velocity": 0.41732283464566927,
                    "duration": 0.08040312499999658
                },
                {
                    "name": "D5",
                    "midi": 74,
                    "time": 56.28218749999974,
                    "velocity": 0.4094488188976378,
                    "duration": 0.08040312499999658
                },
                {
                    "name": "D#5",
                    "midi": 75,
                    "time": 56.44299374999974,
                    "velocity": 0.4094488188976378,
                    "duration": 0.08040312499999658
                },
                {
                    "name": "F#4",
                    "midi": 66,
                    "time": 56.60379999999973,
                    "velocity": 0.29133858267716534,
                    "duration": 0.6432249999999726
                },
                {
                    "name": "B4",
                    "midi": 71,
                    "time": 56.60379999999973,
                    "velocity": 0.29133858267716534,
                    "duration": 0.6432249999999726
                },
                {
                    "name": "F5",
                    "midi": 77,
                    "time": 56.60379999999973,
                    "velocity": 0.4015748031496063,
                    "duration": 0.08040312499999658
                },
                {
                    "name": "D#5",
                    "midi": 75,
                    "time": 56.76460624999972,
                    "velocity": 0.3937007874015748,
                    "duration": 0.08040312499999658
                },
                {
                    "name": "F#5",
                    "midi": 78,
                    "time": 56.925412499999716,
                    "velocity": 0.4094488188976378,
                    "duration": 0.08040312499999658
                },
                {
                    "name": "F5",
                    "midi": 77,
                    "time": 57.08621874999971,
                    "velocity": 0.3937007874015748,
                    "duration": 0.08040312499999658
                },
                {
                    "name": "G#5",
                    "midi": 80,
                    "time": 57.2470249999997,
                    "velocity": 0.4251968503937008,
                    "duration": 0.08040312499999658
                },
                {
                    "name": "B4",
                    "midi": 71,
                    "time": 57.2470249999997,
                    "velocity": 0.2125984251968504,
                    "duration": 0.3216124999999863
                },
                {
                    "name": "F4",
                    "midi": 65,
                    "time": 57.2470249999997,
                    "velocity": 0.2125984251968504,
                    "duration": 0.3216124999999863
                },
                {
                    "name": "F#5",
                    "midi": 78,
                    "time": 57.407831249999695,
                    "velocity": 0.3937007874015748,
                    "duration": 0.08040312499999658
                },
                {
                    "name": "F5",
                    "midi": 77,
                    "time": 57.56863749999969,
                    "velocity": 0.4094488188976378,
                    "duration": 0.08040312499999658
                },
                {
                    "name": "D#5",
                    "midi": 75,
                    "time": 57.72944374999968,
                    "velocity": 0.3937007874015748,
                    "duration": 0.08040312499999658
                },
                {
                    "name": "A#5",
                    "midi": 82,
                    "time": 57.890249999999675,
                    "velocity": 0.3937007874015748,
                    "duration": 0.643225000000001
                },
                {
                    "name": "F#6",
                    "midi": 90,
                    "time": 57.890249999999675,
                    "velocity": 0.3937007874015748,
                    "duration": 0.643225000000001
                },
                {
                    "name": "D#5",
                    "midi": 75,
                    "time": 57.890249999999675,
                    "velocity": 0.3937007874015748,
                    "duration": 0.643225000000001
                },
                {
                    "name": "D#6",
                    "midi": 87,
                    "time": 58.533474999999676,
                    "velocity": 0.3937007874015748,
                    "duration": 0.3216125000000005
                },
                {
                    "name": "B5",
                    "midi": 83,
                    "time": 58.533474999999676,
                    "velocity": 0.3937007874015748,
                    "duration": 0.3216125000000005
                },
                {
                    "name": "F#5",
                    "midi": 78,
                    "time": 58.533474999999676,
                    "velocity": 0.3937007874015748,
                    "duration": 0.3216125000000005
                },
                {
                    "name": "A#4",
                    "midi": 70,
                    "time": 60.46314999999968,
                    "velocity": 0.4094488188976378,
                    "duration": 0.9648375000000016
                },
                {
                    "name": "B4",
                    "midi": 71,
                    "time": 61.42798749999968,
                    "velocity": 0.4251968503937008,
                    "duration": 0.3216125000000005
                },
                {
                    "name": "C5",
                    "midi": 72,
                    "time": 61.74959999999968,
                    "velocity": 0.4094488188976378,
                    "duration": 0.3216125000000005
                },
                {
                    "name": "F#5",
                    "midi": 78,
                    "time": 62.07121249999968,
                    "velocity": 0.4409448818897638,
                    "duration": 0.3216125000000005
                },
                {
                    "name": "C5",
                    "midi": 72,
                    "time": 62.39282499999968,
                    "velocity": 0.4094488188976378,
                    "duration": 0.3216125000000005
                },
                {
                    "name": "B4",
                    "midi": 71,
                    "time": 62.71443749999968,
                    "velocity": 0.4094488188976378,
                    "duration": 0.3216125000000005
                },
                {
                    "name": "A#4",
                    "midi": 70,
                    "time": 63.03604999999968,
                    "velocity": 0.4251968503937008,
                    "duration": 0.9648374999999945
                },
                {
                    "name": "B4",
                    "midi": 71,
                    "time": 64.00088749999968,
                    "velocity": 0.4094488188976378,
                    "duration": 0.16080624999999316
                },
                {
                    "name": "C#5",
                    "midi": 73,
                    "time": 64.16169374999967,
                    "velocity": 0.4094488188976378,
                    "duration": 0.16080624999999316
                },
                {
                    "name": "B4",
                    "midi": 71,
                    "time": 64.32249999999966,
                    "velocity": 0.4015748031496063,
                    "duration": 0.3216125000000005
                },
                {
                    "name": "B5",
                    "midi": 83,
                    "time": 64.64411249999966,
                    "velocity": 0.4015748031496063,
                    "duration": 0.08040312500000368
                },
                {
                    "name": "G#5",
                    "midi": 80,
                    "time": 64.80491874999967,
                    "velocity": 0.3700787401574803,
                    "duration": 0.08040312500000368
                },
                {
                    "name": "F#5",
                    "midi": 78,
                    "time": 64.96572499999968,
                    "velocity": 0.3858267716535433,
                    "duration": 0.08040312500000368
                },
                {
                    "name": "D5",
                    "midi": 74,
                    "time": 65.12653124999969,
                    "velocity": 0.3464566929133858,
                    "duration": 0.08040312500000368
                },
                {
                    "name": "B4",
                    "midi": 71,
                    "time": 65.2873374999997,
                    "velocity": 0.3700787401574803,
                    "duration": 0.08040312500000368
                },
                {
                    "name": "F#4",
                    "midi": 66,
                    "time": 65.4481437499997,
                    "velocity": 0.33070866141732286,
                    "duration": 0.08040312500000368
                },
                {
                    "name": "A#4",
                    "midi": 70,
                    "time": 65.60894999999971,
                    "velocity": 0.4094488188976378,
                    "duration": 0.9648375000000016
                },
                {
                    "name": "B4",
                    "midi": 71,
                    "time": 66.57378749999971,
                    "velocity": 0.4251968503937008,
                    "duration": 0.3216125000000005
                },
                {
                    "name": "C5",
                    "midi": 72,
                    "time": 66.89539999999971,
                    "velocity": 0.4094488188976378,
                    "duration": 0.3216125000000005
                },
                {
                    "name": "F5",
                    "midi": 77,
                    "time": 67.21701249999971,
                    "velocity": 0.4409448818897638,
                    "duration": 0.3216125000000005
                },
                {
                    "name": "D#5",
                    "midi": 75,
                    "time": 67.53862499999971,
                    "velocity": 0.4094488188976378,
                    "duration": 0.3216125000000005
                },
                {
                    "name": "F5",
                    "midi": 77,
                    "time": 67.86023749999971,
                    "velocity": 0.4094488188976378,
                    "duration": 0.3216125000000005
                },
                {
                    "name": "A#4",
                    "midi": 70,
                    "time": 68.18184999999971,
                    "velocity": 0.3937007874015748,
                    "duration": 0.643225000000001
                },
                {
                    "name": "G#4",
                    "midi": 68,
                    "time": 68.18184999999971,
                    "velocity": 0.29133858267716534,
                    "duration": 0.643225000000001
                },
                {
                    "name": "C5",
                    "midi": 72,
                    "time": 68.82507499999971,
                    "velocity": 0.36220472440944884,
                    "duration": 0.3216125000000005
                },
                {
                    "name": "G#4",
                    "midi": 68,
                    "time": 68.82507499999971,
                    "velocity": 0.2992125984251969,
                    "duration": 0.643225000000001
                },
                {
                    "name": "F5",
                    "midi": 77,
                    "time": 69.14668749999971,
                    "velocity": 0.36220472440944884,
                    "duration": 0.3216125000000005
                },
                {
                    "name": "A#4",
                    "midi": 70,
                    "time": 69.46829999999972,
                    "velocity": 0.4015748031496063,
                    "duration": 0.643225000000001
                },
                {
                    "name": "G#4",
                    "midi": 68,
                    "time": 69.46829999999972,
                    "velocity": 0.2992125984251969,
                    "duration": 0.643225000000001
                },
                {
                    "name": "C5",
                    "midi": 72,
                    "time": 70.11152499999972,
                    "velocity": 0.3700787401574803,
                    "duration": 0.3216125000000005
                },
                {
                    "name": "G#4",
                    "midi": 68,
                    "time": 70.11152499999972,
                    "velocity": 0.29133858267716534,
                    "duration": 0.643225000000001
                },
                {
                    "name": "F5",
                    "midi": 77,
                    "time": 70.43313749999972,
                    "velocity": 0.36220472440944884,
                    "duration": 0.3216125000000005
                },
                {
                    "name": "A#4",
                    "midi": 70,
                    "time": 70.75474999999972,
                    "velocity": 0.4094488188976378,
                    "duration": 0.9648375000000016
                },
                {
                    "name": "B4",
                    "midi": 71,
                    "time": 71.71958749999972,
                    "velocity": 0.4251968503937008,
                    "duration": 0.3216125000000005
                },
                {
                    "name": "C5",
                    "midi": 72,
                    "time": 72.04119999999972,
                    "velocity": 0.4094488188976378,
                    "duration": 0.3216125000000005
                },
                {
                    "name": "F#5",
                    "midi": 78,
                    "time": 72.36281249999972,
                    "velocity": 0.4409448818897638,
                    "duration": 0.3216125000000005
                },
                {
                    "name": "C5",
                    "midi": 72,
                    "time": 72.68442499999972,
                    "velocity": 0.4094488188976378,
                    "duration": 0.3216125000000005
                },
                {
                    "name": "B4",
                    "midi": 71,
                    "time": 73.00603749999972,
                    "velocity": 0.4094488188976378,
                    "duration": 0.3216125000000005
                },
                {
                    "name": "A#4",
                    "midi": 70,
                    "time": 73.32764999999972,
                    "velocity": 0.4251968503937008,
                    "duration": 0.9648375000000016
                },
                {
                    "name": "B4",
                    "midi": 71,
                    "time": 74.29248749999972,
                    "velocity": 0.4094488188976378,
                    "duration": 0.16080624999999316
                },
                {
                    "name": "C#5",
                    "midi": 73,
                    "time": 74.45329374999972,
                    "velocity": 0.3779527559055118,
                    "duration": 0.16080624999999316
                },
                {
                    "name": "B4",
                    "midi": 71,
                    "time": 74.61409999999971,
                    "velocity": 0.4015748031496063,
                    "duration": 0.643225000000001
                },
                {
                    "name": "A#4",
                    "midi": 70,
                    "time": 75.25732499999971,
                    "velocity": 0.4251968503937008,
                    "duration": 0.16080624999999316
                },
                {
                    "name": "B4",
                    "midi": 71,
                    "time": 75.4181312499997,
                    "velocity": 0.44881889763779526,
                    "duration": 0.16080624999999316
                },
                {
                    "name": "C#5",
                    "midi": 73,
                    "time": 75.5789374999997,
                    "velocity": 0.47244094488188976,
                    "duration": 0.16080624999999316
                },
                {
                    "name": "D5",
                    "midi": 74,
                    "time": 75.73974374999969,
                    "velocity": 0.49606299212598426,
                    "duration": 0.16080624999999316
                },
                {
                    "name": "G5",
                    "midi": 79,
                    "time": 75.90054999999968,
                    "velocity": 0.5196850393700787,
                    "duration": 0.8040312499999942
                },
                {
                    "name": "G4",
                    "midi": 67,
                    "time": 75.90054999999968,
                    "velocity": 0.4409448818897638,
                    "duration": 1.2864499999999737
                },
                {
                    "name": "B4",
                    "midi": 71,
                    "time": 75.90054999999968,
                    "velocity": 0.4409448818897638,
                    "duration": 1.2864499999999737
                },
                {
                    "name": "F#5",
                    "midi": 78,
                    "time": 76.70458124999968,
                    "velocity": 0.5511811023622047,
                    "duration": 0.16080624999999316
                },
                {
                    "name": "A5",
                    "midi": 81,
                    "time": 76.86538749999967,
                    "velocity": 0.5196850393700787,
                    "duration": 0.16080624999999316
                },
                {
                    "name": "G5",
                    "midi": 79,
                    "time": 77.02619374999966,
                    "velocity": 0.5196850393700787,
                    "duration": 0.16080624999999316
                },
                {
                    "name": "C#5",
                    "midi": 73,
                    "time": 77.18699999999966,
                    "velocity": 0.5511811023622047,
                    "duration": 0.16080624999999316
                },
                {
                    "name": "B4",
                    "midi": 71,
                    "time": 77.18699999999966,
                    "velocity": 0.3937007874015748,
                    "duration": 0.6432249999999726
                },
                {
                    "name": "G4",
                    "midi": 67,
                    "time": 77.18699999999966,
                    "velocity": 0.3937007874015748,
                    "duration": 0.6432249999999726
                },
                {
                    "name": "D5",
                    "midi": 74,
                    "time": 77.34780624999965,
                    "velocity": 0.5275590551181102,
                    "duration": 0.16080624999999316
                },
                {
                    "name": "D#5",
                    "midi": 75,
                    "time": 77.50861249999964,
                    "velocity": 0.5275590551181102,
                    "duration": 0.16080624999999316
                },
                {
                    "name": "E5",
                    "midi": 76,
                    "time": 77.66941874999964,
                    "velocity": 0.5275590551181102,
                    "duration": 0.16080624999999316
                },
                {
                    "name": "A#4",
                    "midi": 70,
                    "time": 77.83022499999963,
                    "velocity": 0.3937007874015748,
                    "duration": 0.6432249999999726
                },
                {
                    "name": "G4",
                    "midi": 67,
                    "time": 77.83022499999963,
                    "velocity": 0.3937007874015748,
                    "duration": 0.6432249999999726
                },
                {
                    "name": "F#5",
                    "midi": 78,
                    "time": 77.83022499999963,
                    "velocity": 0.5433070866141733,
                    "duration": 0.16080624999999316
                },
                {
                    "name": "E5",
                    "midi": 76,
                    "time": 77.99103124999962,
                    "velocity": 0.5196850393700787,
                    "duration": 0.16080624999999316
                },
                {
                    "name": "A5",
                    "midi": 81,
                    "time": 78.15183749999962,
                    "velocity": 0.5354330708661418,
                    "duration": 0.16080624999999316
                },
                {
                    "name": "G5",
                    "midi": 79,
                    "time": 78.31264374999961,
                    "velocity": 0.5118110236220472,
                    "duration": 0.16080624999999316
                },
                {
                    "name": "B4",
                    "midi": 71,
                    "time": 78.4734499999996,
                    "velocity": 0.4409448818897638,
                    "duration": 1.2864499999999737
                },
                {
                    "name": "G4",
                    "midi": 67,
                    "time": 78.4734499999996,
                    "velocity": 0.4409448818897638,
                    "duration": 1.2864499999999737
                },
                {
                    "name": "G5",
                    "midi": 79,
                    "time": 78.4734499999996,
                    "velocity": 0.5196850393700787,
                    "duration": 0.8040312499999942
                },
                {
                    "name": "F#5",
                    "midi": 78,
                    "time": 79.2774812499996,
                    "velocity": 0.5511811023622047,
                    "duration": 0.16080624999999316
                },
                {
                    "name": "A5",
                    "midi": 81,
                    "time": 79.43828749999959,
                    "velocity": 0.5196850393700787,
                    "duration": 0.16080624999999316
                },
                {
                    "name": "G5",
                    "midi": 79,
                    "time": 79.59909374999958,
                    "velocity": 0.5196850393700787,
                    "duration": 0.16080624999999316
                },
                {
                    "name": "G4",
                    "midi": 67,
                    "time": 79.75989999999958,
                    "velocity": 0.3543307086614173,
                    "duration": 0.6432249999999726
                },
                {
                    "name": "B4",
                    "midi": 71,
                    "time": 79.75989999999958,
                    "velocity": 0.3543307086614173,
                    "duration": 0.6432249999999726
                },
                {
                    "name": "C#5",
                    "midi": 73,
                    "time": 79.75989999999958,
                    "velocity": 0.5118110236220472,
                    "duration": 0.16080624999999316
                },
                {
                    "name": "D5",
                    "midi": 74,
                    "time": 79.92070624999957,
                    "velocity": 0.47244094488188976,
                    "duration": 0.16080624999999316
                },
                {
                    "name": "D#5",
                    "midi": 75,
                    "time": 80.08151249999956,
                    "velocity": 0.48031496062992124,
                    "duration": 0.16080624999999316
                },
                {
                    "name": "E5",
                    "midi": 76,
                    "time": 80.24231874999955,
                    "velocity": 0.44881889763779526,
                    "duration": 0.16080624999999316
                },
                {
                    "name": "F#5",
                    "midi": 78,
                    "time": 80.40312499999955,
                    "velocity": 0.4645669291338583,
                    "duration": 0.16080624999999316
                },
                {
                    "name": "A#4",
                    "midi": 70,
                    "time": 80.40312499999955,
                    "velocity": 0.31496062992125984,
                    "duration": 0.6432249999999726
                },
                {
                    "name": "G4",
                    "midi": 67,
                    "time": 80.40312499999955,
                    "velocity": 0.31496062992125984,
                    "duration": 0.6432249999999726
                },
                {
                    "name": "E5",
                    "midi": 76,
                    "time": 80.56393124999954,
                    "velocity": 0.4409448818897638,
                    "duration": 0.16080624999999316
                },
                {
                    "name": "F#5",
                    "midi": 78,
                    "time": 80.72473749999953,
                    "velocity": 0.4251968503937008,
                    "duration": 0.16080624999999316
                },
                {
                    "name": "G5",
                    "midi": 79,
                    "time": 80.88554374999953,
                    "velocity": 0.4094488188976378,
                    "duration": 0.16080624999999316
                },
                {
                    "name": "F#4",
                    "midi": 66,
                    "time": 81.04634999999952,
                    "velocity": 0.4094488188976378,
                    "duration": 0.643225000000001
                },
                {
                    "name": "F#5",
                    "midi": 78,
                    "time": 81.04634999999952,
                    "velocity": 0.4094488188976378,
                    "duration": 0.643225000000001
                },
                {
                    "name": "C5",
                    "midi": 72,
                    "time": 81.04634999999952,
                    "velocity": 0.4094488188976378,
                    "duration": 0.643225000000001
                },
                {
                    "name": "B4",
                    "midi": 71,
                    "time": 81.68957499999952,
                    "velocity": 0.4094488188976378,
                    "duration": 0.16080624999999316
                },
                {
                    "name": "E4",
                    "midi": 64,
                    "time": 81.68957499999952,
                    "velocity": 0.23622047244094488,
                    "duration": 0.3216124999999863
                },
                {
                    "name": "G#4",
                    "midi": 68,
                    "time": 81.68957499999952,
                    "velocity": 0.23622047244094488,
                    "duration": 0.3216124999999863
                },
                {
                    "name": "C5",
                    "midi": 72,
                    "time": 81.85038124999951,
                    "velocity": 0.4094488188976378,
                    "duration": 0.16080624999999316
                },
                {
                    "name": "C#5",
                    "midi": 73,
                    "time": 82.01118749999951,
                    "velocity": 0.4094488188976378,
                    "duration": 0.16080624999999316
                },
                {
                    "name": "D5",
                    "midi": 74,
                    "time": 82.1719937499995,
                    "velocity": 0.4094488188976378,
                    "duration": 0.16080624999999316
                },
                {
                    "name": "F#4",
                    "midi": 66,
                    "time": 82.3327999999995,
                    "velocity": 0.4094488188976378,
                    "duration": 0.643225000000001
                },
                {
                    "name": "C5",
                    "midi": 72,
                    "time": 82.3327999999995,
                    "velocity": 0.4094488188976378,
                    "duration": 0.643225000000001
                },
                {
                    "name": "F#5",
                    "midi": 78,
                    "time": 82.3327999999995,
                    "velocity": 0.4094488188976378,
                    "duration": 0.643225000000001
                },
                {
                    "name": "E4",
                    "midi": 64,
                    "time": 82.9760249999995,
                    "velocity": 0.23622047244094488,
                    "duration": 0.3216124999999863
                },
                {
                    "name": "G#4",
                    "midi": 68,
                    "time": 82.9760249999995,
                    "velocity": 0.23622047244094488,
                    "duration": 0.3216124999999863
                },
                {
                    "name": "B4",
                    "midi": 71,
                    "time": 82.9760249999995,
                    "velocity": 0.4094488188976378,
                    "duration": 0.16080624999999316
                },
                {
                    "name": "C5",
                    "midi": 72,
                    "time": 83.13683124999949,
                    "velocity": 0.4094488188976378,
                    "duration": 0.16080624999999316
                },
                {
                    "name": "C#5",
                    "midi": 73,
                    "time": 83.29763749999948,
                    "velocity": 0.4094488188976378,
                    "duration": 0.16080624999999316
                },
                {
                    "name": "D5",
                    "midi": 74,
                    "time": 83.45844374999947,
                    "velocity": 0.4094488188976378,
                    "duration": 0.16080624999999316
                },
                {
                    "name": "A5",
                    "midi": 81,
                    "time": 83.61924999999947,
                    "velocity": 0.49606299212598426,
                    "duration": 0.643225000000001
                },
                {
                    "name": "C#5",
                    "midi": 73,
                    "time": 83.61924999999947,
                    "velocity": 0.49606299212598426,
                    "duration": 0.643225000000001
                },
                {
                    "name": "G4",
                    "midi": 67,
                    "time": 83.61924999999947,
                    "velocity": 0.49606299212598426,
                    "duration": 0.643225000000001
                },
                {
                    "name": "F#4",
                    "midi": 66,
                    "time": 84.26247499999947,
                    "velocity": 0.4409448818897638,
                    "duration": 0.24120937499999684
                },
                {
                    "name": "C#5",
                    "midi": 73,
                    "time": 84.26247499999947,
                    "velocity": 0.4409448818897638,
                    "duration": 0.24120937499999684
                },
                {
                    "name": "D#5",
                    "midi": 75,
                    "time": 84.26247499999947,
                    "velocity": 0.4409448818897638,
                    "duration": 0.24120937499999684
                },
                {
                    "name": "C#6",
                    "midi": 85,
                    "time": 84.58408749999947,
                    "velocity": 0.5039370078740157,
                    "duration": 0.16080624999999316
                },
                {
                    "name": "B5",
                    "midi": 83,
                    "time": 84.74489374999946,
                    "velocity": 0.49606299212598426,
                    "duration": 0.16080624999999316
                },
                {
                    "name": "A5",
                    "midi": 81,
                    "time": 84.90569999999946,
                    "velocity": 0.4881889763779528,
                    "duration": 0.08040312500000368
                },
                {
                    "name": "C#5",
                    "midi": 73,
                    "time": 84.90569999999946,
                    "velocity": 0.4094488188976378,
                    "duration": 0.6432250000000295
                },
                {
                    "name": "G4",
                    "midi": 67,
                    "time": 84.90569999999946,
                    "velocity": 0.4094488188976378,
                    "duration": 0.6432250000000295
                },
                {
                    "name": "G5",
                    "midi": 79,
                    "time": 85.06650624999946,
                    "velocity": 0.47244094488188976,
                    "duration": 0.08040312500000368
                },
                {
                    "name": "F#5",
                    "midi": 78,
                    "time": 85.22731249999947,
                    "velocity": 0.4645669291338583,
                    "duration": 0.08040312500000368
                },
                {
                    "name": "E5",
                    "midi": 76,
                    "time": 85.38811874999948,
                    "velocity": 0.4566929133858268,
                    "duration": 0.08040312500000368
                },
                {
                    "name": "F#4",
                    "midi": 66,
                    "time": 85.54892499999949,
                    "velocity": 0.3779527559055118,
                    "duration": 0.32161250000001473
                },
                {
                    "name": "D#5",
                    "midi": 75,
                    "time": 85.54892499999949,
                    "velocity": 0.44881889763779526,
                    "duration": 0.08040312500000368
                },
                {
                    "name": "C#5",
                    "midi": 73,
                    "time": 85.70973124999949,
                    "velocity": 0.4330708661417323,
                    "duration": 0.08040312500000368
                },
                {
                    "name": "B4",
                    "midi": 71,
                    "time": 85.8705374999995,
                    "velocity": 0.4251968503937008,
                    "duration": 0.08040312500000368
                },
                {
                    "name": "A4",
                    "midi": 69,
                    "time": 86.03134374999951,
                    "velocity": 0.41732283464566927,
                    "duration": 0.08040312500000368
                },
                {
                    "name": "G4",
                    "midi": 67,
                    "time": 86.19214999999951,
                    "velocity": 0.49606299212598426,
                    "duration": 0.643225000000001
                },
                {
                    "name": "C#5",
                    "midi": 73,
                    "time": 86.19214999999951,
                    "velocity": 0.49606299212598426,
                    "duration": 0.643225000000001
                },
                {
                    "name": "A5",
                    "midi": 81,
                    "time": 86.19214999999951,
                    "velocity": 0.49606299212598426,
                    "duration": 0.643225000000001
                },
                {
                    "name": "F#4",
                    "midi": 66,
                    "time": 86.83537499999952,
                    "velocity": 0.4409448818897638,
                    "duration": 0.24120937499999684
                },
                {
                    "name": "C#5",
                    "midi": 73,
                    "time": 86.83537499999952,
                    "velocity": 0.4409448818897638,
                    "duration": 0.24120937499999684
                },
                {
                    "name": "D#5",
                    "midi": 75,
                    "time": 86.83537499999952,
                    "velocity": 0.4409448818897638,
                    "duration": 0.24120937499999684
                },
                {
                    "name": "E6",
                    "midi": 88,
                    "time": 87.15698749999952,
                    "velocity": 0.4881889763779528,
                    "duration": 0.16080624999999316
                },
                {
                    "name": "D#6",
                    "midi": 87,
                    "time": 87.31779374999951,
                    "velocity": 0.4566929133858268,
                    "duration": 0.16080624999999316
                },
                {
                    "name": "G4",
                    "midi": 67,
                    "time": 87.4785999999995,
                    "velocity": 0.3779527559055118,
                    "duration": 0.6432250000000295
                },
                {
                    "name": "C#5",
                    "midi": 73,
                    "time": 87.4785999999995,
                    "velocity": 0.3779527559055118,
                    "duration": 0.6432250000000295
                },
                {
                    "name": "C#6",
                    "midi": 85,
                    "time": 87.4785999999995,
                    "velocity": 0.44881889763779526,
                    "duration": 0.08040312500000368
                },
                {
                    "name": "B5",
                    "midi": 83,
                    "time": 87.63940624999951,
                    "velocity": 0.4330708661417323,
                    "duration": 0.08040312500000368
                },
                {
                    "name": "A5",
                    "midi": 81,
                    "time": 87.80021249999952,
                    "velocity": 0.4566929133858268,
                    "duration": 0.08040312500000368
                },
                {
                    "name": "G5",
                    "midi": 79,
                    "time": 87.96101874999952,
                    "velocity": 0.4251968503937008,
                    "duration": 0.08040312500000368
                },
                {
                    "name": "F#5",
                    "midi": 78,
                    "time": 88.12182499999953,
                    "velocity": 0.44881889763779526,
                    "duration": 0.08040312500000368
                },
                {
                    "name": "E5",
                    "midi": 76,
                    "time": 88.28263124999954,
                    "velocity": 0.4094488188976378,
                    "duration": 0.08040312500000368
                },
                {
                    "name": "D#5",
                    "midi": 75,
                    "time": 88.44343749999955,
                    "velocity": 0.4330708661417323,
                    "duration": 0.08040312500000368
                },
                {
                    "name": "C#5",
                    "midi": 73,
                    "time": 88.60424374999955,
                    "velocity": 0.3937007874015748,
                    "duration": 0.08040312500000368
                },
                {
                    "name": "G#5",
                    "midi": 80,
                    "time": 88.76504999999956,
                    "velocity": 0.3937007874015748,
                    "duration": 0.643225000000001
                },
                {
                    "name": "B4",
                    "midi": 71,
                    "time": 88.76504999999956,
                    "velocity": 0.3543307086614173,
                    "duration": 0.643225000000001
                },
                {
                    "name": "G#4",
                    "midi": 68,
                    "time": 88.76504999999956,
                    "velocity": 0.3543307086614173,
                    "duration": 0.643225000000001
                },
                {
                    "name": "D#5",
                    "midi": 75,
                    "time": 89.40827499999956,
                    "velocity": 0.30708661417322836,
                    "duration": 0.16080624999999316
                },
                {
                    "name": "B4",
                    "midi": 71,
                    "time": 89.40827499999956,
                    "velocity": 0.2755905511811024,
                    "duration": 0.16080624999999316
                },
                {
                    "name": "F#4",
                    "midi": 66,
                    "time": 89.40827499999956,
                    "velocity": 0.2755905511811024,
                    "duration": 0.16080624999999316
                },
                {
                    "name": "G#4",
                    "midi": 68,
                    "time": 90.05149999999955,
                    "velocity": 0.3543307086614173,
                    "duration": 0.643225000000001
                },
                {
                    "name": "B4",
                    "midi": 71,
                    "time": 90.05149999999955,
                    "velocity": 0.3543307086614173,
                    "duration": 0.643225000000001
                },
                {
                    "name": "G#5",
                    "midi": 80,
                    "time": 90.05149999999955,
                    "velocity": 0.3937007874015748,
                    "duration": 0.643225000000001
                },
                {
                    "name": "F#4",
                    "midi": 66,
                    "time": 90.69472499999955,
                    "velocity": 0.2677165354330709,
                    "duration": 0.16080624999999316
                },
                {
                    "name": "B4",
                    "midi": 71,
                    "time": 90.69472499999955,
                    "velocity": 0.2677165354330709,
                    "duration": 0.16080624999999316
                },
                {
                    "name": "D#5",
                    "midi": 75,
                    "time": 90.69472499999955,
                    "velocity": 0.2992125984251969,
                    "duration": 0.16080624999999316
                },
                {
                    "name": "E6",
                    "midi": 88,
                    "time": 91.33794999999954,
                    "velocity": 0.49606299212598426,
                    "duration": 0.643225000000001
                },
                {
                    "name": "E5",
                    "midi": 76,
                    "time": 91.33794999999954,
                    "velocity": 0.49606299212598426,
                    "duration": 0.643225000000001
                },
                {
                    "name": "D#5",
                    "midi": 75,
                    "time": 91.98117499999954,
                    "velocity": 0.4881889763779528,
                    "duration": 0.3216125000000005
                },
                {
                    "name": "D#6",
                    "midi": 87,
                    "time": 91.98117499999954,
                    "velocity": 0.4881889763779528,
                    "duration": 0.3216125000000005
                },
                {
                    "name": "C#5",
                    "midi": 73,
                    "time": 92.30278749999954,
                    "velocity": 0.4330708661417323,
                    "duration": 0.3216125000000005
                },
                {
                    "name": "C#6",
                    "midi": 85,
                    "time": 92.30278749999954,
                    "velocity": 0.4330708661417323,
                    "duration": 0.3216125000000005
                },
                {
                    "name": "G4",
                    "midi": 67,
                    "time": 92.62439999999954,
                    "velocity": 0.47244094488188976,
                    "duration": 0.3216125000000005
                },
                {
                    "name": "G5",
                    "midi": 79,
                    "time": 92.62439999999954,
                    "velocity": 0.47244094488188976,
                    "duration": 0.3216125000000005
                },
                {
                    "name": "G#4",
                    "midi": 68,
                    "time": 92.94601249999954,
                    "velocity": 0.4094488188976378,
                    "duration": 0.3216125000000005
                },
                {
                    "name": "G#5",
                    "midi": 80,
                    "time": 92.94601249999954,
                    "velocity": 0.4094488188976378,
                    "duration": 0.3216125000000005
                },
                {
                    "name": "C#5",
                    "midi": 73,
                    "time": 93.26762499999954,
                    "velocity": 0.4566929133858268,
                    "duration": 0.3216125000000005
                },
                {
                    "name": "C#6",
                    "midi": 85,
                    "time": 93.26762499999954,
                    "velocity": 0.4566929133858268,
                    "duration": 0.3216125000000005
                },
                {
                    "name": "D#5",
                    "midi": 75,
                    "time": 93.58923749999954,
                    "velocity": 0.3937007874015748,
                    "duration": 0.3216125000000005
                },
                {
                    "name": "D#6",
                    "midi": 87,
                    "time": 93.58923749999954,
                    "velocity": 0.3937007874015748,
                    "duration": 0.3216125000000005
                },
                {
                    "name": "F#4",
                    "midi": 66,
                    "time": 93.91084999999954,
                    "velocity": 0.31496062992125984,
                    "duration": 0.643225000000001
                },
                {
                    "name": "B4",
                    "midi": 71,
                    "time": 93.91084999999954,
                    "velocity": 0.31496062992125984,
                    "duration": 0.643225000000001
                },
                {
                    "name": "F#5",
                    "midi": 78,
                    "time": 93.91084999999954,
                    "velocity": 0.3543307086614173,
                    "duration": 0.643225000000001
                },
                {
                    "name": "F4",
                    "midi": 65,
                    "time": 94.55407499999954,
                    "velocity": 0.2440944881889764,
                    "duration": 0.16080624999999316
                },
                {
                    "name": "B4",
                    "midi": 71,
                    "time": 94.55407499999954,
                    "velocity": 0.2440944881889764,
                    "duration": 0.16080624999999316
                },
                {
                    "name": "D#5",
                    "midi": 75,
                    "time": 94.55407499999954,
                    "velocity": 0.2755905511811024,
                    "duration": 0.16080624999999316
                },
                {
                    "name": "F#5",
                    "midi": 78,
                    "time": 95.19729999999953,
                    "velocity": 0.3543307086614173,
                    "duration": 0.643225000000001
                },
                {
                    "name": "B4",
                    "midi": 71,
                    "time": 95.19729999999953,
                    "velocity": 0.3543307086614173,
                    "duration": 0.643225000000001
                },
                {
                    "name": "F#4",
                    "midi": 66,
                    "time": 95.19729999999953,
                    "velocity": 0.31496062992125984,
                    "duration": 0.643225000000001
                },
                {
                    "name": "D#5",
                    "midi": 75,
                    "time": 95.84052499999953,
                    "velocity": 0.2677165354330709,
                    "duration": 0.16080624999999316
                },
                {
                    "name": "B4",
                    "midi": 71,
                    "time": 95.84052499999953,
                    "velocity": 0.23622047244094488,
                    "duration": 0.16080624999999316
                },
                {
                    "name": "F4",
                    "midi": 65,
                    "time": 95.84052499999953,
                    "velocity": 0.23622047244094488,
                    "duration": 0.16080624999999316
                },
                {
                    "name": "F#4",
                    "midi": 66,
                    "time": 96.48374999999952,
                    "velocity": 0.25984251968503935,
                    "duration": 0.6432249999999868
                },
                {
                    "name": "B4",
                    "midi": 71,
                    "time": 96.48374999999952,
                    "velocity": 0.25984251968503935,
                    "duration": 0.6432249999999868
                },
                {
                    "name": "F#5",
                    "midi": 78,
                    "time": 96.48374999999952,
                    "velocity": 0.3543307086614173,
                    "duration": 0.3216125000000005
                },
                {
                    "name": "G#5",
                    "midi": 80,
                    "time": 96.80536249999952,
                    "velocity": 0.3937007874015748,
                    "duration": 0.16080624999999316
                },
                {
                    "name": "F#5",
                    "midi": 78,
                    "time": 96.96616874999951,
                    "velocity": 0.3779527559055118,
                    "duration": 0.16080624999999316
                },
                {
                    "name": "F5",
                    "midi": 77,
                    "time": 97.1269749999995,
                    "velocity": 0.3779527559055118,
                    "duration": 0.08040312500000368
                },
                {
                    "name": "B4",
                    "midi": 71,
                    "time": 97.1269749999995,
                    "velocity": 0.2125984251968504,
                    "duration": 0.32161250000001473
                },
                {
                    "name": "F4",
                    "midi": 65,
                    "time": 97.1269749999995,
                    "velocity": 0.2125984251968504,
                    "duration": 0.32161250000001473
                },
                {
                    "name": "D#5",
                    "midi": 75,
                    "time": 97.28778124999951,
                    "velocity": 0.3700787401574803,
                    "duration": 0.08040312500000368
                },
                {
                    "name": "D5",
                    "midi": 74,
                    "time": 97.44858749999952,
                    "velocity": 0.36220472440944884,
                    "duration": 0.08040312500000368
                },
                {
                    "name": "D#5",
                    "midi": 75,
                    "time": 97.60939374999953,
                    "velocity": 0.36220472440944884,
                    "duration": 0.08040312500000368
                },
                {
                    "name": "F#4",
                    "midi": 66,
                    "time": 97.77019999999953,
                    "velocity": 0.29133858267716534,
                    "duration": 0.6432250000000295
                },
                {
                    "name": "B4",
                    "midi": 71,
                    "time": 97.77019999999953,
                    "velocity": 0.29133858267716534,
                    "duration": 0.6432250000000295
                },
                {
                    "name": "F5",
                    "midi": 77,
                    "time": 97.77019999999953,
                    "velocity": 0.3543307086614173,
                    "duration": 0.08040312500000368
                },
                {
                    "name": "D#5",
                    "midi": 75,
                    "time": 97.93100624999954,
                    "velocity": 0.3543307086614173,
                    "duration": 0.08040312500000368
                },
                {
                    "name": "F#5",
                    "midi": 78,
                    "time": 98.09181249999955,
                    "velocity": 0.36220472440944884,
                    "duration": 0.08040312500000368
                },
                {
                    "name": "F5",
                    "midi": 77,
                    "time": 98.25261874999956,
                    "velocity": 0.3543307086614173,
                    "duration": 0.08040312500000368
                },
                {
                    "name": "G#5",
                    "midi": 80,
                    "time": 98.41342499999956,
                    "velocity": 0.3779527559055118,
                    "duration": 0.08040312500000368
                },
                {
                    "name": "B4",
                    "midi": 71,
                    "time": 98.41342499999956,
                    "velocity": 0.2125984251968504,
                    "duration": 0.32161250000001473
                },
                {
                    "name": "F4",
                    "midi": 65,
                    "time": 98.41342499999956,
                    "velocity": 0.2125984251968504,
                    "duration": 0.32161250000001473
                },
                {
                    "name": "F#5",
                    "midi": 78,
                    "time": 98.57423124999957,
                    "velocity": 0.3543307086614173,
                    "duration": 0.08040312500000368
                },
                {
                    "name": "F5",
                    "midi": 77,
                    "time": 98.73503749999958,
                    "velocity": 0.36220472440944884,
                    "duration": 0.08040312500000368
                },
                {
                    "name": "D#5",
                    "midi": 75,
                    "time": 98.89584374999959,
                    "velocity": 0.3543307086614173,
                    "duration": 0.08040312500000368
                },
                {
                    "name": "A#4",
                    "midi": 70,
                    "time": 99.05664999999959,
                    "velocity": 0.3543307086614173,
                    "duration": 0.643225000000001
                },
                {
                    "name": "F#5",
                    "midi": 78,
                    "time": 99.05664999999959,
                    "velocity": 0.3543307086614173,
                    "duration": 0.643225000000001
                },
                {
                    "name": "F#4",
                    "midi": 66,
                    "time": 99.05664999999959,
                    "velocity": 0.3543307086614173,
                    "duration": 0.9648375000000016
                },
                {
                    "name": "D#5",
                    "midi": 75,
                    "time": 99.6998749999996,
                    "velocity": 0.3543307086614173,
                    "duration": 0.3216125000000005
                },
                {
                    "name": "B4",
                    "midi": 71,
                    "time": 99.6998749999996,
                    "velocity": 0.3543307086614173,
                    "duration": 0.3216125000000005
                },
                {
                    "name": "D5",
                    "midi": 74,
                    "time": 100.6647124999996,
                    "velocity": 0.28346456692913385,
                    "duration": 0.16080624999999316
                },
                {
                    "name": "D#5",
                    "midi": 75,
                    "time": 100.82551874999959,
                    "velocity": 0.28346456692913385,
                    "duration": 0.16080624999999316
                },
                {
                    "name": "F5",
                    "midi": 77,
                    "time": 100.98632499999958,
                    "velocity": 0.2755905511811024,
                    "duration": 0.16080624999999316
                },
                {
                    "name": "F#5",
                    "midi": 78,
                    "time": 101.14713124999957,
                    "velocity": 0.2755905511811024,
                    "duration": 0.16080624999999316
                },
                {
                    "name": "A#5",
                    "midi": 82,
                    "time": 101.30793749999957,
                    "velocity": 0.2677165354330709,
                    "duration": 0.16080624999999316
                },
                {
                    "name": "B5",
                    "midi": 83,
                    "time": 101.46874374999956,
                    "velocity": 0.25984251968503935,
                    "duration": 0.16080624999999316
                },
                {
                    "name": "F#5",
                    "midi": 78,
                    "time": 101.62954999999955,
                    "velocity": 0.23622047244094488,
                    "duration": 0.16080624999999316
                },
                {
                    "name": "B5",
                    "midi": 83,
                    "time": 101.62954999999955,
                    "velocity": 0.23622047244094488,
                    "duration": 0.16080624999999316
                },
                {
                    "name": "F#6",
                    "midi": 90,
                    "time": 101.62954999999955,
                    "velocity": 0.23622047244094488,
                    "duration": 0.16080624999999316
                }
            ],
            "controlChanges": {
                "7": [
                    {
                        "number": 7,
                        "time": 0,
                        "value": 0.7874015748031497
                    }
                ],
                "10": [
                    {
                        "number": 10,
                        "time": 0,
                        "value": 0.5039370078740157
                    }
                ],
                "91": [
                    {
                        "number": 91,
                        "time": 0,
                        "value": 1
                    }
                ]
            },
            "id": 1,
            "name": "Piano right",
            "instrumentNumber": 0,
            "instrument": "acoustic grand piano",
            "instrumentFamily": "piano",
            "channelNumber": 0,
            "isPercussion": false
        },
        {
            "startTime": 1.2864499999999999,
            "duration": 101.79035624999982,
            "length": 300,
            "notes": [
                {
                    "name": "D#2",
                    "midi": 39,
                    "time": 1.2864499999999999,
                    "velocity": 0.5275590551181102,
                    "duration": 0.6432249999999999
                },
                {
                    "name": "D#1",
                    "midi": 27,
                    "time": 1.2864499999999999,
                    "velocity": 0.4409448818897638,
                    "duration": 0.6432249999999999
                },
                {
                    "name": "A#2",
                    "midi": 46,
                    "time": 1.9296749999999998,
                    "velocity": 0.5118110236220472,
                    "duration": 0.6432249999999999
                },
                {
                    "name": "A#1",
                    "midi": 34,
                    "time": 1.9296749999999998,
                    "velocity": 0.4330708661417323,
                    "duration": 0.6432249999999999
                },
                {
                    "name": "B2",
                    "midi": 47,
                    "time": 2.5728999999999997,
                    "velocity": 0.4881889763779528,
                    "duration": 0.6432250000000002
                },
                {
                    "name": "B1",
                    "midi": 35,
                    "time": 2.5728999999999997,
                    "velocity": 0.4094488188976378,
                    "duration": 0.6432250000000002
                },
                {
                    "name": "A#1",
                    "midi": 34,
                    "time": 3.216125,
                    "velocity": 0.4409448818897638,
                    "duration": 0.6432250000000002
                },
                {
                    "name": "A#2",
                    "midi": 46,
                    "time": 3.216125,
                    "velocity": 0.5275590551181102,
                    "duration": 0.6432250000000002
                },
                {
                    "name": "B2",
                    "midi": 47,
                    "time": 3.85935,
                    "velocity": 0.5039370078740157,
                    "duration": 0.6432250000000002
                },
                {
                    "name": "B1",
                    "midi": 35,
                    "time": 3.85935,
                    "velocity": 0.4251968503937008,
                    "duration": 0.6432250000000002
                },
                {
                    "name": "D#2",
                    "midi": 39,
                    "time": 4.502575,
                    "velocity": 0.48031496062992124,
                    "duration": 0.6432250000000002
                },
                {
                    "name": "D#1",
                    "midi": 27,
                    "time": 4.502575,
                    "velocity": 0.4015748031496063,
                    "duration": 0.6432250000000002
                },
                {
                    "name": "E2",
                    "midi": 40,
                    "time": 5.1458,
                    "velocity": 0.4881889763779528,
                    "duration": 0.6432250000000002
                },
                {
                    "name": "E1",
                    "midi": 28,
                    "time": 5.1458,
                    "velocity": 0.4094488188976378,
                    "duration": 0.6432250000000002
                },
                {
                    "name": "F1",
                    "midi": 29,
                    "time": 5.7890250000000005,
                    "velocity": 0.36220472440944884,
                    "duration": 0.6432250000000002
                },
                {
                    "name": "F2",
                    "midi": 41,
                    "time": 5.7890250000000005,
                    "velocity": 0.4330708661417323,
                    "duration": 0.6432250000000002
                },
                {
                    "name": "F#1",
                    "midi": 30,
                    "time": 6.432250000000001,
                    "velocity": 0.3543307086614173,
                    "duration": 0.6030234375000001
                },
                {
                    "name": "F#2",
                    "midi": 42,
                    "time": 6.432250000000001,
                    "velocity": 0.4251968503937008,
                    "duration": 0.6030234375000001
                },
                {
                    "name": "G#2",
                    "midi": 44,
                    "time": 7.076815052083334,
                    "velocity": 0.5984251968503937,
                    "duration": 0.6432249999999993
                },
                {
                    "name": "G#1",
                    "midi": 32,
                    "time": 7.076815052083334,
                    "velocity": 0.5039370078740157,
                    "duration": 0.6432249999999993
                },
                {
                    "name": "F#2",
                    "midi": 42,
                    "time": 7.7187,
                    "velocity": 0.5905511811023622,
                    "duration": 0.6432249999999993
                },
                {
                    "name": "F#1",
                    "midi": 30,
                    "time": 7.7187,
                    "velocity": 0.49606299212598426,
                    "duration": 0.6432249999999993
                },
                {
                    "name": "B2",
                    "midi": 47,
                    "time": 8.361925,
                    "velocity": 0.5984251968503937,
                    "duration": 0.6432249999999993
                },
                {
                    "name": "B1",
                    "midi": 35,
                    "time": 8.361925,
                    "velocity": 0.5039370078740157,
                    "duration": 0.6432249999999993
                },
                {
                    "name": "C#2",
                    "midi": 37,
                    "time": 9.005149999999999,
                    "velocity": 0.5118110236220472,
                    "duration": 0.3216125000000005
                },
                {
                    "name": "C#3",
                    "midi": 49,
                    "time": 9.005149999999999,
                    "velocity": 0.6062992125984252,
                    "duration": 0.3216125000000005
                },
                {
                    "name": "F#3",
                    "midi": 54,
                    "time": 9.3267625,
                    "velocity": 0.5196850393700787,
                    "duration": 0.3216125000000005
                },
                {
                    "name": "F#2",
                    "midi": 42,
                    "time": 9.3267625,
                    "velocity": 0.5196850393700787,
                    "duration": 0.3216125000000005
                },
                {
                    "name": "D#3",
                    "midi": 51,
                    "time": 9.648375,
                    "velocity": 0.5826771653543307,
                    "duration": 0.6432249999999993
                },
                {
                    "name": "D#2",
                    "midi": 39,
                    "time": 9.648375,
                    "velocity": 0.4881889763779528,
                    "duration": 0.6432249999999993
                },
                {
                    "name": "C#3",
                    "midi": 49,
                    "time": 10.291599999999999,
                    "velocity": 0.6062992125984252,
                    "duration": 0.3216125000000005
                },
                {
                    "name": "C#2",
                    "midi": 37,
                    "time": 10.291599999999999,
                    "velocity": 0.5118110236220472,
                    "duration": 0.3216125000000005
                },
                {
                    "name": "F#2",
                    "midi": 42,
                    "time": 10.6132125,
                    "velocity": 0.4409448818897638,
                    "duration": 0.3216125000000005
                },
                {
                    "name": "F#3",
                    "midi": 54,
                    "time": 10.6132125,
                    "velocity": 0.5275590551181102,
                    "duration": 0.3216125000000005
                },
                {
                    "name": "D#2",
                    "midi": 39,
                    "time": 10.934825,
                    "velocity": 0.49606299212598426,
                    "duration": 0.6432249999999993
                },
                {
                    "name": "D#3",
                    "midi": 51,
                    "time": 10.934825,
                    "velocity": 0.5905511811023622,
                    "duration": 0.6432249999999993
                },
                {
                    "name": "B2",
                    "midi": 47,
                    "time": 11.57805,
                    "velocity": 0.5905511811023622,
                    "duration": 0.6432249999999993
                },
                {
                    "name": "B1",
                    "midi": 35,
                    "time": 11.57805,
                    "velocity": 0.49606299212598426,
                    "duration": 0.6432249999999993
                },
                {
                    "name": "C#3",
                    "midi": 49,
                    "time": 12.221274999999999,
                    "velocity": 0.5984251968503937,
                    "duration": 0.6432249999999993
                },
                {
                    "name": "C#2",
                    "midi": 37,
                    "time": 12.221274999999999,
                    "velocity": 0.5039370078740157,
                    "duration": 0.6432249999999993
                },
                {
                    "name": "G#2",
                    "midi": 44,
                    "time": 12.864499999999998,
                    "velocity": 0.5433070866141733,
                    "duration": 0.6432249999999993
                },
                {
                    "name": "G#1",
                    "midi": 32,
                    "time": 12.864499999999998,
                    "velocity": 0.4566929133858268,
                    "duration": 0.6432249999999993
                },
                {
                    "name": "F#2",
                    "midi": 42,
                    "time": 13.507724999999997,
                    "velocity": 0.5433070866141733,
                    "duration": 0.6030234374999992
                },
                {
                    "name": "F#1",
                    "midi": 30,
                    "time": 13.507724999999997,
                    "velocity": 0.4566929133858268,
                    "duration": 0.6030234374999992
                },
                {
                    "name": "F2",
                    "midi": 41,
                    "time": 15.437399999999997,
                    "velocity": 0.47244094488188976,
                    "duration": 1.2864499999999985
                },
                {
                    "name": "F3",
                    "midi": 53,
                    "time": 15.437399999999997,
                    "velocity": 0.5590551181102362,
                    "duration": 1.2864499999999985
                },
                {
                    "name": "E3",
                    "midi": 52,
                    "time": 16.723849999999995,
                    "velocity": 0.5511811023622047,
                    "duration": 1.2864499999999985
                },
                {
                    "name": "E2",
                    "midi": 40,
                    "time": 16.723849999999995,
                    "velocity": 0.4645669291338583,
                    "duration": 1.2864499999999985
                },
                {
                    "name": "D#3",
                    "midi": 51,
                    "time": 18.010299999999994,
                    "velocity": 0.5354330708661418,
                    "duration": 1.9296749999999996
                },
                {
                    "name": "D#2",
                    "midi": 39,
                    "time": 18.010299999999994,
                    "velocity": 0.44881889763779526,
                    "duration": 1.9296749999999996
                },
                {
                    "name": "F2",
                    "midi": 41,
                    "time": 19.939974999999993,
                    "velocity": 0.3700787401574803,
                    "duration": 0.643225000000001
                },
                {
                    "name": "F3",
                    "midi": 53,
                    "time": 19.939974999999993,
                    "velocity": 0.4409448818897638,
                    "duration": 0.643225000000001
                },
                {
                    "name": "F#2",
                    "midi": 42,
                    "time": 20.583199999999994,
                    "velocity": 0.3543307086614173,
                    "duration": 0.6030234374999992
                },
                {
                    "name": "F#3",
                    "midi": 54,
                    "time": 20.583199999999994,
                    "velocity": 0.41732283464566927,
                    "duration": 0.6030234374999992
                },
                {
                    "name": "F#3",
                    "midi": 54,
                    "time": 21.226424999999992,
                    "velocity": 0.41732283464566927,
                    "duration": 0.643225000000001
                },
                {
                    "name": "G#3",
                    "midi": 56,
                    "time": 21.869649999999993,
                    "velocity": 0.4094488188976378,
                    "duration": 0.643225000000001
                },
                {
                    "name": "C#3",
                    "midi": 49,
                    "time": 22.512874999999994,
                    "velocity": 0.4015748031496063,
                    "duration": 0.643225000000001
                },
                {
                    "name": "F#3",
                    "midi": 54,
                    "time": 23.156099999999995,
                    "velocity": 0.3228346456692913,
                    "duration": 0.3216125000000005
                },
                {
                    "name": "G#3",
                    "midi": 56,
                    "time": 23.477712499999996,
                    "velocity": 0.28346456692913385,
                    "duration": 0.3216125000000005
                },
                {
                    "name": "C#3",
                    "midi": 49,
                    "time": 23.799324999999996,
                    "velocity": 0.3228346456692913,
                    "duration": 0.643225000000001
                },
                {
                    "name": "D#4",
                    "midi": 63,
                    "time": 27.015449999999998,
                    "velocity": 0.29133858267716534,
                    "duration": 0.643225000000001
                },
                {
                    "name": "B3",
                    "midi": 59,
                    "time": 27.015449999999998,
                    "velocity": 0.29133858267716534,
                    "duration": 0.643225000000001
                },
                {
                    "name": "G#3",
                    "midi": 56,
                    "time": 27.658675,
                    "velocity": 0.2204724409448819,
                    "duration": 0.16080625000000026
                },
                {
                    "name": "D#4",
                    "midi": 63,
                    "time": 27.658675,
                    "velocity": 0.2204724409448819,
                    "duration": 0.16080625000000026
                },
                {
                    "name": "D#4",
                    "midi": 63,
                    "time": 28.3019,
                    "velocity": 0.29133858267716534,
                    "duration": 0.643225000000001
                },
                {
                    "name": "B3",
                    "midi": 59,
                    "time": 28.3019,
                    "velocity": 0.29133858267716534,
                    "duration": 0.643225000000001
                },
                {
                    "name": "D#4",
                    "midi": 63,
                    "time": 28.945125,
                    "velocity": 0.2125984251968504,
                    "duration": 0.16080625000000026
                },
                {
                    "name": "G#3",
                    "midi": 56,
                    "time": 28.945125,
                    "velocity": 0.2125984251968504,
                    "duration": 0.16080625000000026
                },
                {
                    "name": "B3",
                    "midi": 59,
                    "time": 29.588350000000002,
                    "velocity": 0.29133858267716534,
                    "duration": 0.643225000000001
                },
                {
                    "name": "D#4",
                    "midi": 63,
                    "time": 29.588350000000002,
                    "velocity": 0.29133858267716534,
                    "duration": 0.643225000000001
                },
                {
                    "name": "G#3",
                    "midi": 56,
                    "time": 30.231575000000003,
                    "velocity": 0.2125984251968504,
                    "duration": 0.3216125000000005
                },
                {
                    "name": "D#4",
                    "midi": 63,
                    "time": 30.231575000000003,
                    "velocity": 0.2125984251968504,
                    "duration": 0.3216125000000005
                },
                {
                    "name": "D#4",
                    "midi": 63,
                    "time": 30.874800000000004,
                    "velocity": 0.29133858267716534,
                    "duration": 0.643225000000001
                },
                {
                    "name": "B3",
                    "midi": 59,
                    "time": 30.874800000000004,
                    "velocity": 0.29133858267716534,
                    "duration": 0.643225000000001
                },
                {
                    "name": "D#4",
                    "midi": 63,
                    "time": 31.518025000000005,
                    "velocity": 0.2125984251968504,
                    "duration": 0.3216125000000005
                },
                {
                    "name": "G#3",
                    "midi": 56,
                    "time": 31.518025000000005,
                    "velocity": 0.2125984251968504,
                    "duration": 0.3216125000000005
                },
                {
                    "name": "D#4",
                    "midi": 63,
                    "time": 32.16125,
                    "velocity": 0.29133858267716534,
                    "duration": 0.643225000000001
                },
                {
                    "name": "B3",
                    "midi": 59,
                    "time": 32.16125,
                    "velocity": 0.29133858267716534,
                    "duration": 0.643225000000001
                },
                {
                    "name": "G#3",
                    "midi": 56,
                    "time": 32.804475000000004,
                    "velocity": 0.2204724409448819,
                    "duration": 0.16080625000000026
                },
                {
                    "name": "D#4",
                    "midi": 63,
                    "time": 32.804475000000004,
                    "velocity": 0.2204724409448819,
                    "duration": 0.16080625000000026
                },
                {
                    "name": "B3",
                    "midi": 59,
                    "time": 33.447700000000005,
                    "velocity": 0.29133858267716534,
                    "duration": 0.643225000000001
                },
                {
                    "name": "D#4",
                    "midi": 63,
                    "time": 33.447700000000005,
                    "velocity": 0.29133858267716534,
                    "duration": 0.643225000000001
                },
                {
                    "name": "D#4",
                    "midi": 63,
                    "time": 34.090925000000006,
                    "velocity": 0.2125984251968504,
                    "duration": 0.16080625000000026
                },
                {
                    "name": "G#3",
                    "midi": 56,
                    "time": 34.090925000000006,
                    "velocity": 0.2125984251968504,
                    "duration": 0.16080625000000026
                },
                {
                    "name": "B3",
                    "midi": 59,
                    "time": 34.73415000000001,
                    "velocity": 0.29133858267716534,
                    "duration": 0.643225000000001
                },
                {
                    "name": "D#4",
                    "midi": 63,
                    "time": 34.73415000000001,
                    "velocity": 0.29133858267716534,
                    "duration": 0.643225000000001
                },
                {
                    "name": "D#4",
                    "midi": 63,
                    "time": 35.37737500000001,
                    "velocity": 0.2125984251968504,
                    "duration": 0.3216125000000005
                },
                {
                    "name": "G#3",
                    "midi": 56,
                    "time": 35.37737500000001,
                    "velocity": 0.2125984251968504,
                    "duration": 0.3216125000000005
                },
                {
                    "name": "D#4",
                    "midi": 63,
                    "time": 36.02060000000001,
                    "velocity": 0.29133858267716534,
                    "duration": 0.643225000000001
                },
                {
                    "name": "B3",
                    "midi": 59,
                    "time": 36.02060000000001,
                    "velocity": 0.29133858267716534,
                    "duration": 0.643225000000001
                },
                {
                    "name": "G#3",
                    "midi": 56,
                    "time": 36.66382500000001,
                    "velocity": 0.2125984251968504,
                    "duration": 0.3216125000000005
                },
                {
                    "name": "D#4",
                    "midi": 63,
                    "time": 36.66382500000001,
                    "velocity": 0.2125984251968504,
                    "duration": 0.3216125000000005
                },
                {
                    "name": "C#3",
                    "midi": 49,
                    "time": 37.30705000000001,
                    "velocity": 0.29133858267716534,
                    "duration": 0.643225000000001
                },
                {
                    "name": "F4",
                    "midi": 65,
                    "time": 37.30705000000001,
                    "velocity": 0.29133858267716534,
                    "duration": 0.643225000000001
                },
                {
                    "name": "D#4",
                    "midi": 63,
                    "time": 37.95027500000001,
                    "velocity": 0.2204724409448819,
                    "duration": 0.16080625000000026
                },
                {
                    "name": "G#3",
                    "midi": 56,
                    "time": 37.95027500000001,
                    "velocity": 0.2204724409448819,
                    "duration": 0.16080625000000026
                },
                {
                    "name": "C#3",
                    "midi": 49,
                    "time": 38.59350000000001,
                    "velocity": 0.29133858267716534,
                    "duration": 0.643225000000001
                },
                {
                    "name": "F4",
                    "midi": 65,
                    "time": 38.59350000000001,
                    "velocity": 0.29133858267716534,
                    "duration": 0.643225000000001
                },
                {
                    "name": "G#3",
                    "midi": 56,
                    "time": 39.236725000000014,
                    "velocity": 0.2125984251968504,
                    "duration": 0.16080625000000026
                },
                {
                    "name": "D#4",
                    "midi": 63,
                    "time": 39.236725000000014,
                    "velocity": 0.2125984251968504,
                    "duration": 0.16080625000000026
                },
                {
                    "name": "F4",
                    "midi": 65,
                    "time": 39.879950000000015,
                    "velocity": 0.29133858267716534,
                    "duration": 0.643225000000001
                },
                {
                    "name": "C#3",
                    "midi": 49,
                    "time": 39.879950000000015,
                    "velocity": 0.29133858267716534,
                    "duration": 0.643225000000001
                },
                {
                    "name": "D#4",
                    "midi": 63,
                    "time": 40.523175000000016,
                    "velocity": 0.2125984251968504,
                    "duration": 0.3216125000000005
                },
                {
                    "name": "G#3",
                    "midi": 56,
                    "time": 40.523175000000016,
                    "velocity": 0.2125984251968504,
                    "duration": 0.3216125000000005
                },
                {
                    "name": "C#3",
                    "midi": 49,
                    "time": 41.16640000000002,
                    "velocity": 0.29133858267716534,
                    "duration": 0.643225000000001
                },
                {
                    "name": "F4",
                    "midi": 65,
                    "time": 41.16640000000002,
                    "velocity": 0.29133858267716534,
                    "duration": 0.643225000000001
                },
                {
                    "name": "D#4",
                    "midi": 63,
                    "time": 41.80962500000002,
                    "velocity": 0.2125984251968504,
                    "duration": 0.3216125000000005
                },
                {
                    "name": "G#3",
                    "midi": 56,
                    "time": 41.80962500000002,
                    "velocity": 0.2125984251968504,
                    "duration": 0.3216125000000005
                },
                {
                    "name": "F4",
                    "midi": 65,
                    "time": 42.45285000000002,
                    "velocity": 0.29133858267716534,
                    "duration": 0.643225000000001
                },
                {
                    "name": "C#3",
                    "midi": 49,
                    "time": 42.45285000000002,
                    "velocity": 0.29133858267716534,
                    "duration": 0.643225000000001
                },
                {
                    "name": "D#4",
                    "midi": 63,
                    "time": 43.09607500000002,
                    "velocity": 0.2204724409448819,
                    "duration": 0.16080625000000026
                },
                {
                    "name": "G#3",
                    "midi": 56,
                    "time": 43.09607500000002,
                    "velocity": 0.2204724409448819,
                    "duration": 0.16080625000000026
                },
                {
                    "name": "C#3",
                    "midi": 49,
                    "time": 43.73930000000002,
                    "velocity": 0.29133858267716534,
                    "duration": 0.643225000000001
                },
                {
                    "name": "F4",
                    "midi": 65,
                    "time": 43.73930000000002,
                    "velocity": 0.29133858267716534,
                    "duration": 0.643225000000001
                },
                {
                    "name": "D#4",
                    "midi": 63,
                    "time": 44.38252500000002,
                    "velocity": 0.2125984251968504,
                    "duration": 0.16080625000000026
                },
                {
                    "name": "G#3",
                    "midi": 56,
                    "time": 44.38252500000002,
                    "velocity": 0.2125984251968504,
                    "duration": 0.16080625000000026
                },
                {
                    "name": "C#3",
                    "midi": 49,
                    "time": 45.02575000000002,
                    "velocity": 0.3228346456692913,
                    "duration": 0.8040312500000013
                },
                {
                    "name": "E4",
                    "midi": 64,
                    "time": 45.02575000000002,
                    "velocity": 0.3228346456692913,
                    "duration": 0.643225000000001
                },
                {
                    "name": "A3",
                    "midi": 57,
                    "time": 45.02575000000002,
                    "velocity": 0.3228346456692913,
                    "duration": 0.8040312500000013
                },
                {
                    "name": "D#4",
                    "midi": 63,
                    "time": 45.668975000000025,
                    "velocity": 0.25984251968503935,
                    "duration": 0.16080625000000026
                },
                {
                    "name": "C#3",
                    "midi": 49,
                    "time": 46.312200000000026,
                    "velocity": 0.36220472440944884,
                    "duration": 0.9648375000000016
                },
                {
                    "name": "A3",
                    "midi": 57,
                    "time": 46.312200000000026,
                    "velocity": 0.36220472440944884,
                    "duration": 0.9648375000000016
                },
                {
                    "name": "E4",
                    "midi": 64,
                    "time": 46.312200000000026,
                    "velocity": 0.36220472440944884,
                    "duration": 0.643225000000001
                },
                {
                    "name": "D#4",
                    "midi": 63,
                    "time": 46.95542500000003,
                    "velocity": 0.2440944881889764,
                    "duration": 0.3216125000000005
                },
                {
                    "name": "A3",
                    "midi": 57,
                    "time": 47.59865000000003,
                    "velocity": 0.36220472440944884,
                    "duration": 0.8040312500000013
                },
                {
                    "name": "E4",
                    "midi": 64,
                    "time": 47.59865000000003,
                    "velocity": 0.36220472440944884,
                    "duration": 0.643225000000001
                },
                {
                    "name": "C#3",
                    "midi": 49,
                    "time": 47.59865000000003,
                    "velocity": 0.36220472440944884,
                    "duration": 0.8040312500000013
                },
                {
                    "name": "D#4",
                    "midi": 63,
                    "time": 48.24187500000003,
                    "velocity": 0.29133858267716534,
                    "duration": 0.16080625000000026
                },
                {
                    "name": "C#3",
                    "midi": 49,
                    "time": 48.88510000000003,
                    "velocity": 0.36220472440944884,
                    "duration": 0.9648375000000016
                },
                {
                    "name": "E4",
                    "midi": 64,
                    "time": 48.88510000000003,
                    "velocity": 0.36220472440944884,
                    "duration": 0.643225000000001
                },
                {
                    "name": "A3",
                    "midi": 57,
                    "time": 48.88510000000003,
                    "velocity": 0.36220472440944884,
                    "duration": 0.9648375000000016
                },
                {
                    "name": "D#4",
                    "midi": 63,
                    "time": 49.52832500000003,
                    "velocity": 0.2440944881889764,
                    "duration": 0.3216125000000005
                },
                {
                    "name": "G#3",
                    "midi": 56,
                    "time": 51.458000000000034,
                    "velocity": 0.4015748031496063,
                    "duration": 0.16080625000000026
                },
                {
                    "name": "A3",
                    "midi": 57,
                    "time": 51.618806250000034,
                    "velocity": 0.4015748031496063,
                    "duration": 0.16080625000000026
                },
                {
                    "name": "A#3",
                    "midi": 58,
                    "time": 51.779612500000034,
                    "velocity": 0.3937007874015748,
                    "duration": 0.16080625000000026
                },
                {
                    "name": "B3",
                    "midi": 59,
                    "time": 51.940418750000035,
                    "velocity": 0.3858267716535433,
                    "duration": 0.16080625000000026
                },
                {
                    "name": "C4",
                    "midi": 60,
                    "time": 52.101225000000035,
                    "velocity": 0.3779527559055118,
                    "duration": 0.16080625000000026
                },
                {
                    "name": "C#4",
                    "midi": 61,
                    "time": 52.262031250000035,
                    "velocity": 0.3700787401574803,
                    "duration": 0.16080625000000026
                },
                {
                    "name": "E4",
                    "midi": 64,
                    "time": 52.422837500000036,
                    "velocity": 0.3700787401574803,
                    "duration": 0.16080625000000026
                },
                {
                    "name": "F4",
                    "midi": 65,
                    "time": 52.583643750000036,
                    "velocity": 0.36220472440944884,
                    "duration": 0.16080625000000026
                },
                {
                    "name": "B3",
                    "midi": 59,
                    "time": 52.744450000000036,
                    "velocity": 0.29133858267716534,
                    "duration": 0.643225000000001
                },
                {
                    "name": "D#4",
                    "midi": 63,
                    "time": 52.744450000000036,
                    "velocity": 0.29133858267716534,
                    "duration": 0.643225000000001
                },
                {
                    "name": "D#4",
                    "midi": 63,
                    "time": 53.38767500000004,
                    "velocity": 0.2204724409448819,
                    "duration": 0.16080625000000026
                },
                {
                    "name": "G#3",
                    "midi": 56,
                    "time": 53.38767500000004,
                    "velocity": 0.2204724409448819,
                    "duration": 0.16080625000000026
                },
                {
                    "name": "B3",
                    "midi": 59,
                    "time": 54.03090000000004,
                    "velocity": 0.29133858267716534,
                    "duration": 0.643225000000001
                },
                {
                    "name": "D#4",
                    "midi": 63,
                    "time": 54.03090000000004,
                    "velocity": 0.29133858267716534,
                    "duration": 0.643225000000001
                },
                {
                    "name": "D#4",
                    "midi": 63,
                    "time": 54.67412500000004,
                    "velocity": 0.2125984251968504,
                    "duration": 0.16080625000000026
                },
                {
                    "name": "G#3",
                    "midi": 56,
                    "time": 54.67412500000004,
                    "velocity": 0.2125984251968504,
                    "duration": 0.16080625000000026
                },
                {
                    "name": "D#4",
                    "midi": 63,
                    "time": 55.31735000000004,
                    "velocity": 0.29133858267716534,
                    "duration": 0.643225000000001
                },
                {
                    "name": "B3",
                    "midi": 59,
                    "time": 55.31735000000004,
                    "velocity": 0.29133858267716534,
                    "duration": 0.643225000000001
                },
                {
                    "name": "D#4",
                    "midi": 63,
                    "time": 55.96057500000004,
                    "velocity": 0.2125984251968504,
                    "duration": 0.3216125000000005
                },
                {
                    "name": "G#3",
                    "midi": 56,
                    "time": 55.96057500000004,
                    "velocity": 0.2125984251968504,
                    "duration": 0.3216125000000005
                },
                {
                    "name": "B3",
                    "midi": 59,
                    "time": 56.60380000000004,
                    "velocity": 0.29133858267716534,
                    "duration": 0.643225000000001
                },
                {
                    "name": "D#4",
                    "midi": 63,
                    "time": 56.60380000000004,
                    "velocity": 0.29133858267716534,
                    "duration": 0.643225000000001
                },
                {
                    "name": "G#3",
                    "midi": 56,
                    "time": 57.24702500000004,
                    "velocity": 0.2125984251968504,
                    "duration": 0.3216125000000005
                },
                {
                    "name": "D#4",
                    "midi": 63,
                    "time": 57.24702500000004,
                    "velocity": 0.2125984251968504,
                    "duration": 0.3216125000000005
                },
                {
                    "name": "A#3",
                    "midi": 58,
                    "time": 57.890250000000044,
                    "velocity": 0.3937007874015748,
                    "duration": 0.16080625000000026
                },
                {
                    "name": "B3",
                    "midi": 59,
                    "time": 58.051056250000045,
                    "velocity": 0.3937007874015748,
                    "duration": 0.16080625000000026
                },
                {
                    "name": "D4",
                    "midi": 62,
                    "time": 58.211862500000045,
                    "velocity": 0.3937007874015748,
                    "duration": 0.16080625000000026
                },
                {
                    "name": "D#4",
                    "midi": 63,
                    "time": 58.372668750000045,
                    "velocity": 0.3937007874015748,
                    "duration": 0.16080625000000026
                },
                {
                    "name": "F4",
                    "midi": 65,
                    "time": 58.533475000000045,
                    "velocity": 0.33858267716535434,
                    "duration": 0.16080625000000026
                },
                {
                    "name": "F#4",
                    "midi": 66,
                    "time": 58.694281250000046,
                    "velocity": 0.33070866141732286,
                    "duration": 0.16080625000000026
                },
                {
                    "name": "A#4",
                    "midi": 70,
                    "time": 58.855087500000046,
                    "velocity": 0.31496062992125984,
                    "duration": 0.16080625000000026
                },
                {
                    "name": "B4",
                    "midi": 71,
                    "time": 59.015893750000046,
                    "velocity": 0.30708661417322836,
                    "duration": 0.16080625000000026
                },
                {
                    "name": "D5",
                    "midi": 74,
                    "time": 59.17670000000005,
                    "velocity": 0.29133858267716534,
                    "duration": 0.16080625000000026
                },
                {
                    "name": "D#5",
                    "midi": 75,
                    "time": 59.33750625000005,
                    "velocity": 0.2755905511811024,
                    "duration": 0.16080625000000026
                },
                {
                    "name": "F5",
                    "midi": 77,
                    "time": 59.49831250000005,
                    "velocity": 0.2677165354330709,
                    "duration": 0.16080625000000026
                },
                {
                    "name": "F#5",
                    "midi": 78,
                    "time": 59.65911875000005,
                    "velocity": 0.25196850393700787,
                    "duration": 0.16080625000000026
                },
                {
                    "name": "F#4",
                    "midi": 66,
                    "time": 60.46315000000005,
                    "velocity": 0.3700787401574803,
                    "duration": 0.9648375000000016
                },
                {
                    "name": "D#4",
                    "midi": 63,
                    "time": 60.46315000000005,
                    "velocity": 0.3700787401574803,
                    "duration": 0.9648375000000016
                },
                {
                    "name": "D#4",
                    "midi": 63,
                    "time": 61.42798750000005,
                    "velocity": 0.3464566929133858,
                    "duration": 0.3216125000000005
                },
                {
                    "name": "F#4",
                    "midi": 66,
                    "time": 61.42798750000005,
                    "velocity": 0.3464566929133858,
                    "duration": 0.3216125000000005
                },
                {
                    "name": "F#4",
                    "midi": 66,
                    "time": 61.74960000000005,
                    "velocity": 0.3779527559055118,
                    "duration": 0.643225000000001
                },
                {
                    "name": "D4",
                    "midi": 62,
                    "time": 61.74960000000005,
                    "velocity": 0.3779527559055118,
                    "duration": 0.643225000000001
                },
                {
                    "name": "D4",
                    "midi": 62,
                    "time": 62.39282500000005,
                    "velocity": 0.3464566929133858,
                    "duration": 0.3216125000000005
                },
                {
                    "name": "F#4",
                    "midi": 66,
                    "time": 62.39282500000005,
                    "velocity": 0.3464566929133858,
                    "duration": 0.3216125000000005
                },
                {
                    "name": "F#4",
                    "midi": 66,
                    "time": 62.71443750000005,
                    "velocity": 0.3464566929133858,
                    "duration": 0.3216125000000005
                },
                {
                    "name": "D4",
                    "midi": 62,
                    "time": 62.71443750000005,
                    "velocity": 0.3464566929133858,
                    "duration": 0.3216125000000005
                },
                {
                    "name": "D#4",
                    "midi": 63,
                    "time": 63.03605000000005,
                    "velocity": 0.3779527559055118,
                    "duration": 1.286449999999995
                },
                {
                    "name": "F#4",
                    "midi": 66,
                    "time": 63.03605000000005,
                    "velocity": 0.3779527559055118,
                    "duration": 1.286449999999995
                },
                {
                    "name": "F#4",
                    "midi": 66,
                    "time": 64.32250000000005,
                    "velocity": 0.3464566929133858,
                    "duration": 0.9648375000000016
                },
                {
                    "name": "D4",
                    "midi": 62,
                    "time": 64.32250000000005,
                    "velocity": 0.3464566929133858,
                    "duration": 0.9648375000000016
                },
                {
                    "name": "F#4",
                    "midi": 66,
                    "time": 65.60895000000005,
                    "velocity": 0.3700787401574803,
                    "duration": 1.286450000000002
                },
                {
                    "name": "D#4",
                    "midi": 63,
                    "time": 65.60895000000005,
                    "velocity": 0.3700787401574803,
                    "duration": 1.286450000000002
                },
                {
                    "name": "F#4",
                    "midi": 66,
                    "time": 66.89540000000005,
                    "velocity": 0.3700787401574803,
                    "duration": 1.286450000000002
                },
                {
                    "name": "G#3",
                    "midi": 56,
                    "time": 66.89540000000005,
                    "velocity": 0.3700787401574803,
                    "duration": 1.286450000000002
                },
                {
                    "name": "F4",
                    "midi": 65,
                    "time": 68.18185000000005,
                    "velocity": 0.28346456692913385,
                    "duration": 0.643225000000001
                },
                {
                    "name": "C#4",
                    "midi": 61,
                    "time": 68.18185000000005,
                    "velocity": 0.28346456692913385,
                    "duration": 0.643225000000001
                },
                {
                    "name": "F#4",
                    "midi": 66,
                    "time": 68.82507500000006,
                    "velocity": 0.25984251968503935,
                    "duration": 0.3216125000000005
                },
                {
                    "name": "G#3",
                    "midi": 56,
                    "time": 68.82507500000006,
                    "velocity": 0.25984251968503935,
                    "duration": 0.3216125000000005
                },
                {
                    "name": "F4",
                    "midi": 65,
                    "time": 69.46830000000006,
                    "velocity": 0.29133858267716534,
                    "duration": 0.643225000000001
                },
                {
                    "name": "C#4",
                    "midi": 61,
                    "time": 69.46830000000006,
                    "velocity": 0.29133858267716534,
                    "duration": 0.643225000000001
                },
                {
                    "name": "F#4",
                    "midi": 66,
                    "time": 70.11152500000006,
                    "velocity": 0.2677165354330709,
                    "duration": 0.3216125000000005
                },
                {
                    "name": "G#3",
                    "midi": 56,
                    "time": 70.11152500000006,
                    "velocity": 0.2677165354330709,
                    "duration": 0.3216125000000005
                },
                {
                    "name": "D#4",
                    "midi": 63,
                    "time": 70.75475000000006,
                    "velocity": 0.3700787401574803,
                    "duration": 0.9648375000000016
                },
                {
                    "name": "F#4",
                    "midi": 66,
                    "time": 70.75475000000006,
                    "velocity": 0.3700787401574803,
                    "duration": 0.9648375000000016
                },
                {
                    "name": "F#4",
                    "midi": 66,
                    "time": 71.71958750000006,
                    "velocity": 0.3464566929133858,
                    "duration": 0.3216125000000005
                },
                {
                    "name": "D#4",
                    "midi": 63,
                    "time": 71.71958750000006,
                    "velocity": 0.3464566929133858,
                    "duration": 0.3216125000000005
                },
                {
                    "name": "F#4",
                    "midi": 66,
                    "time": 72.04120000000006,
                    "velocity": 0.3779527559055118,
                    "duration": 0.643225000000001
                },
                {
                    "name": "D4",
                    "midi": 62,
                    "time": 72.04120000000006,
                    "velocity": 0.3779527559055118,
                    "duration": 0.643225000000001
                },
                {
                    "name": "F#4",
                    "midi": 66,
                    "time": 72.68442500000006,
                    "velocity": 0.3464566929133858,
                    "duration": 0.3216125000000005
                },
                {
                    "name": "D4",
                    "midi": 62,
                    "time": 72.68442500000006,
                    "velocity": 0.3464566929133858,
                    "duration": 0.3216125000000005
                },
                {
                    "name": "D4",
                    "midi": 62,
                    "time": 73.00603750000006,
                    "velocity": 0.3464566929133858,
                    "duration": 0.3216125000000005
                },
                {
                    "name": "F#4",
                    "midi": 66,
                    "time": 73.00603750000006,
                    "velocity": 0.3464566929133858,
                    "duration": 0.3216125000000005
                },
                {
                    "name": "F#4",
                    "midi": 66,
                    "time": 73.32765000000006,
                    "velocity": 0.3779527559055118,
                    "duration": 1.286450000000002
                },
                {
                    "name": "D#4",
                    "midi": 63,
                    "time": 73.32765000000006,
                    "velocity": 0.3779527559055118,
                    "duration": 1.286450000000002
                },
                {
                    "name": "F#4",
                    "midi": 66,
                    "time": 74.61410000000006,
                    "velocity": 0.3464566929133858,
                    "duration": 0.9648375000000016
                },
                {
                    "name": "D4",
                    "midi": 62,
                    "time": 74.61410000000006,
                    "velocity": 0.3464566929133858,
                    "duration": 0.9648375000000016
                },
                {
                    "name": "D3",
                    "midi": 50,
                    "time": 75.90055000000007,
                    "velocity": 0.3937007874015748,
                    "duration": 1.286450000000002
                },
                {
                    "name": "D4",
                    "midi": 62,
                    "time": 75.90055000000007,
                    "velocity": 0.3937007874015748,
                    "duration": 0.643225000000001
                },
                {
                    "name": "B3",
                    "midi": 59,
                    "time": 76.54377500000007,
                    "velocity": 0.3543307086614173,
                    "duration": 0.643225000000001
                },
                {
                    "name": "D3",
                    "midi": 50,
                    "time": 77.18700000000007,
                    "velocity": 0.3543307086614173,
                    "duration": 1.286450000000002
                },
                {
                    "name": "E4",
                    "midi": 64,
                    "time": 77.18700000000007,
                    "velocity": 0.3543307086614173,
                    "duration": 0.643225000000001
                },
                {
                    "name": "C#4",
                    "midi": 61,
                    "time": 77.83022500000007,
                    "velocity": 0.33070866141732286,
                    "duration": 0.643225000000001
                },
                {
                    "name": "D3",
                    "midi": 50,
                    "time": 78.47345000000007,
                    "velocity": 0.3937007874015748,
                    "duration": 1.286450000000002
                },
                {
                    "name": "D4",
                    "midi": 62,
                    "time": 78.47345000000007,
                    "velocity": 0.3937007874015748,
                    "duration": 0.643225000000001
                },
                {
                    "name": "B3",
                    "midi": 59,
                    "time": 79.11667500000007,
                    "velocity": 0.3543307086614173,
                    "duration": 0.643225000000001
                },
                {
                    "name": "E4",
                    "midi": 64,
                    "time": 79.75990000000007,
                    "velocity": 0.3779527559055118,
                    "duration": 0.643225000000001
                },
                {
                    "name": "D3",
                    "midi": 50,
                    "time": 79.75990000000007,
                    "velocity": 0.3779527559055118,
                    "duration": 0.9648375000000016
                },
                {
                    "name": "C#4",
                    "midi": 61,
                    "time": 80.40312500000007,
                    "velocity": 0.33070866141732286,
                    "duration": 0.3216125000000005
                },
                {
                    "name": "D#3",
                    "midi": 51,
                    "time": 81.04635000000007,
                    "velocity": 0.30708661417322836,
                    "duration": 0.643225000000001
                },
                {
                    "name": "C4",
                    "midi": 60,
                    "time": 81.04635000000007,
                    "velocity": 0.30708661417322836,
                    "duration": 0.643225000000001
                },
                {
                    "name": "D4",
                    "midi": 62,
                    "time": 81.68957500000008,
                    "velocity": 0.2125984251968504,
                    "duration": 0.3216125000000005
                },
                {
                    "name": "G#3",
                    "midi": 56,
                    "time": 81.68957500000008,
                    "velocity": 0.2125984251968504,
                    "duration": 0.3216125000000005
                },
                {
                    "name": "D#3",
                    "midi": 51,
                    "time": 82.33280000000008,
                    "velocity": 0.2992125984251969,
                    "duration": 0.643225000000001
                },
                {
                    "name": "C4",
                    "midi": 60,
                    "time": 82.33280000000008,
                    "velocity": 0.2992125984251969,
                    "duration": 0.643225000000001
                },
                {
                    "name": "G#3",
                    "midi": 56,
                    "time": 82.97602500000008,
                    "velocity": 0.2125984251968504,
                    "duration": 0.3216125000000005
                },
                {
                    "name": "D4",
                    "midi": 62,
                    "time": 82.97602500000008,
                    "velocity": 0.2125984251968504,
                    "duration": 0.3216125000000005
                },
                {
                    "name": "C#3",
                    "midi": 49,
                    "time": 83.61925000000008,
                    "velocity": 0.3543307086614173,
                    "duration": 0.8040312499999942
                },
                {
                    "name": "E4",
                    "midi": 64,
                    "time": 83.61925000000008,
                    "velocity": 0.3543307086614173,
                    "duration": 0.643225000000001
                },
                {
                    "name": "A3",
                    "midi": 57,
                    "time": 83.61925000000008,
                    "velocity": 0.3543307086614173,
                    "duration": 0.8040312499999942
                },
                {
                    "name": "D#4",
                    "midi": 63,
                    "time": 84.26247500000008,
                    "velocity": 0.2677165354330709,
                    "duration": 0.24120937499999684
                },
                {
                    "name": "C#3",
                    "midi": 49,
                    "time": 84.90570000000008,
                    "velocity": 0.33858267716535434,
                    "duration": 0.9648375000000016
                },
                {
                    "name": "E4",
                    "midi": 64,
                    "time": 84.90570000000008,
                    "velocity": 0.33858267716535434,
                    "duration": 0.643225000000001
                },
                {
                    "name": "A3",
                    "midi": 57,
                    "time": 84.90570000000008,
                    "velocity": 0.33858267716535434,
                    "duration": 0.9648375000000016
                },
                {
                    "name": "D#4",
                    "midi": 63,
                    "time": 85.54892500000008,
                    "velocity": 0.2204724409448819,
                    "duration": 0.3216125000000005
                },
                {
                    "name": "A3",
                    "midi": 57,
                    "time": 86.19215000000008,
                    "velocity": 0.3543307086614173,
                    "duration": 0.8040312499999942
                },
                {
                    "name": "E4",
                    "midi": 64,
                    "time": 86.19215000000008,
                    "velocity": 0.3543307086614173,
                    "duration": 0.643225000000001
                },
                {
                    "name": "C#3",
                    "midi": 49,
                    "time": 86.19215000000008,
                    "velocity": 0.3543307086614173,
                    "duration": 0.8040312499999942
                },
                {
                    "name": "D#4",
                    "midi": 63,
                    "time": 86.83537500000008,
                    "velocity": 0.2677165354330709,
                    "duration": 0.24120937499999684
                },
                {
                    "name": "C#3",
                    "midi": 49,
                    "time": 87.47860000000009,
                    "velocity": 0.33858267716535434,
                    "duration": 0.9648375000000016
                },
                {
                    "name": "A3",
                    "midi": 57,
                    "time": 87.47860000000009,
                    "velocity": 0.33858267716535434,
                    "duration": 0.9648375000000016
                },
                {
                    "name": "E4",
                    "midi": 64,
                    "time": 87.47860000000009,
                    "velocity": 0.33858267716535434,
                    "duration": 0.643225000000001
                },
                {
                    "name": "D#4",
                    "midi": 63,
                    "time": 88.12182500000009,
                    "velocity": 0.2204724409448819,
                    "duration": 0.3216125000000005
                },
                {
                    "name": "F4",
                    "midi": 65,
                    "time": 88.76505000000009,
                    "velocity": 0.29133858267716534,
                    "duration": 0.643225000000001
                },
                {
                    "name": "C#3",
                    "midi": 49,
                    "time": 88.76505000000009,
                    "velocity": 0.29133858267716534,
                    "duration": 0.643225000000001
                },
                {
                    "name": "G#3",
                    "midi": 56,
                    "time": 89.40827500000009,
                    "velocity": 0.2204724409448819,
                    "duration": 0.16080624999999316
                },
                {
                    "name": "D#4",
                    "midi": 63,
                    "time": 89.40827500000009,
                    "velocity": 0.2204724409448819,
                    "duration": 0.16080624999999316
                },
                {
                    "name": "C#3",
                    "midi": 49,
                    "time": 90.05150000000008,
                    "velocity": 0.29133858267716534,
                    "duration": 0.643225000000001
                },
                {
                    "name": "F4",
                    "midi": 65,
                    "time": 90.05150000000008,
                    "velocity": 0.29133858267716534,
                    "duration": 0.643225000000001
                },
                {
                    "name": "D#4",
                    "midi": 63,
                    "time": 90.69472500000008,
                    "velocity": 0.2125984251968504,
                    "duration": 0.16080624999999316
                },
                {
                    "name": "G#3",
                    "midi": 56,
                    "time": 90.69472500000008,
                    "velocity": 0.2125984251968504,
                    "duration": 0.16080624999999316
                },
                {
                    "name": "F#3",
                    "midi": 54,
                    "time": 91.33795000000006,
                    "velocity": 0.44881889763779526,
                    "duration": 0.16080624999999316
                },
                {
                    "name": "G3",
                    "midi": 55,
                    "time": 91.49875625000006,
                    "velocity": 0.4409448818897638,
                    "duration": 0.16080624999999316
                },
                {
                    "name": "G#3",
                    "midi": 56,
                    "time": 91.65956250000005,
                    "velocity": 0.4330708661417323,
                    "duration": 0.16080624999999316
                },
                {
                    "name": "A3",
                    "midi": 57,
                    "time": 91.82036875000004,
                    "velocity": 0.41732283464566927,
                    "duration": 0.16080624999999316
                },
                {
                    "name": "A#3",
                    "midi": 58,
                    "time": 91.98117500000004,
                    "velocity": 0.4094488188976378,
                    "duration": 0.16080624999999316
                },
                {
                    "name": "B3",
                    "midi": 59,
                    "time": 92.14198125000003,
                    "velocity": 0.3937007874015748,
                    "duration": 0.16080624999999316
                },
                {
                    "name": "C#4",
                    "midi": 61,
                    "time": 92.30278750000002,
                    "velocity": 0.3779527559055118,
                    "duration": 0.16080624999999316
                },
                {
                    "name": "D#4",
                    "midi": 63,
                    "time": 92.46359375000002,
                    "velocity": 0.36220472440944884,
                    "duration": 0.16080624999999316
                },
                {
                    "name": "E4",
                    "midi": 64,
                    "time": 92.62440000000001,
                    "velocity": 0.36220472440944884,
                    "duration": 0.16080624999999316
                },
                {
                    "name": "B3",
                    "midi": 59,
                    "time": 92.78520625,
                    "velocity": 0.3543307086614173,
                    "duration": 0.16080624999999316
                },
                {
                    "name": "C4",
                    "midi": 60,
                    "time": 92.9460125,
                    "velocity": 0.3464566929133858,
                    "duration": 0.16080624999999316
                },
                {
                    "name": "C#4",
                    "midi": 61,
                    "time": 93.10681874999999,
                    "velocity": 0.33070866141732286,
                    "duration": 0.16080624999999316
                },
                {
                    "name": "E4",
                    "midi": 64,
                    "time": 93.26762499999998,
                    "velocity": 0.3228346456692913,
                    "duration": 0.16080624999999316
                },
                {
                    "name": "F4",
                    "midi": 65,
                    "time": 93.42843124999997,
                    "velocity": 0.31496062992125984,
                    "duration": 0.16080624999999316
                },
                {
                    "name": "F#4",
                    "midi": 66,
                    "time": 93.58923749999997,
                    "velocity": 0.2992125984251969,
                    "duration": 0.16080624999999316
                },
                {
                    "name": "G4",
                    "midi": 67,
                    "time": 93.75004374999996,
                    "velocity": 0.29133858267716534,
                    "duration": 0.16080624999999316
                },
                {
                    "name": "B3",
                    "midi": 59,
                    "time": 93.91084999999995,
                    "velocity": 0.25984251968503935,
                    "duration": 0.643225000000001
                },
                {
                    "name": "D#4",
                    "midi": 63,
                    "time": 93.91084999999995,
                    "velocity": 0.25984251968503935,
                    "duration": 0.643225000000001
                },
                {
                    "name": "D#4",
                    "midi": 63,
                    "time": 94.55407499999995,
                    "velocity": 0.1968503937007874,
                    "duration": 0.16080624999999316
                },
                {
                    "name": "G#3",
                    "midi": 56,
                    "time": 94.55407499999995,
                    "velocity": 0.1968503937007874,
                    "duration": 0.16080624999999316
                },
                {
                    "name": "B3",
                    "midi": 59,
                    "time": 95.19729999999994,
                    "velocity": 0.25984251968503935,
                    "duration": 0.643225000000001
                },
                {
                    "name": "D#4",
                    "midi": 63,
                    "time": 95.19729999999994,
                    "velocity": 0.25984251968503935,
                    "duration": 0.643225000000001
                },
                {
                    "name": "G#3",
                    "midi": 56,
                    "time": 95.84052499999994,
                    "velocity": 0.1889763779527559,
                    "duration": 0.16080624999999316
                },
                {
                    "name": "D#4",
                    "midi": 63,
                    "time": 95.84052499999994,
                    "velocity": 0.1889763779527559,
                    "duration": 0.16080624999999316
                },
                {
                    "name": "D#4",
                    "midi": 63,
                    "time": 96.48374999999993,
                    "velocity": 0.25984251968503935,
                    "duration": 0.643225000000001
                },
                {
                    "name": "B3",
                    "midi": 59,
                    "time": 96.48374999999993,
                    "velocity": 0.25984251968503935,
                    "duration": 0.643225000000001
                },
                {
                    "name": "D#4",
                    "midi": 63,
                    "time": 97.12697499999993,
                    "velocity": 0.1889763779527559,
                    "duration": 0.3216125000000005
                },
                {
                    "name": "G#3",
                    "midi": 56,
                    "time": 97.12697499999993,
                    "velocity": 0.1889763779527559,
                    "duration": 0.3216125000000005
                },
                {
                    "name": "B3",
                    "midi": 59,
                    "time": 97.77019999999993,
                    "velocity": 0.25984251968503935,
                    "duration": 0.643225000000001
                },
                {
                    "name": "D#4",
                    "midi": 63,
                    "time": 97.77019999999993,
                    "velocity": 0.25984251968503935,
                    "duration": 0.643225000000001
                },
                {
                    "name": "G#3",
                    "midi": 56,
                    "time": 98.41342499999993,
                    "velocity": 0.1889763779527559,
                    "duration": 0.3216125000000005
                },
                {
                    "name": "D#4",
                    "midi": 63,
                    "time": 98.41342499999993,
                    "velocity": 0.1889763779527559,
                    "duration": 0.3216125000000005
                },
                {
                    "name": "A#3",
                    "midi": 58,
                    "time": 99.05664999999993,
                    "velocity": 0.3543307086614173,
                    "duration": 0.16080624999999316
                },
                {
                    "name": "B3",
                    "midi": 59,
                    "time": 99.21745624999993,
                    "velocity": 0.3543307086614173,
                    "duration": 0.16080624999999316
                },
                {
                    "name": "D4",
                    "midi": 62,
                    "time": 99.37826249999992,
                    "velocity": 0.3543307086614173,
                    "duration": 0.16080624999999316
                },
                {
                    "name": "D#4",
                    "midi": 63,
                    "time": 99.53906874999991,
                    "velocity": 0.3543307086614173,
                    "duration": 0.16080624999999316
                },
                {
                    "name": "F4",
                    "midi": 65,
                    "time": 99.6998749999999,
                    "velocity": 0.3228346456692913,
                    "duration": 0.16080624999999316
                },
                {
                    "name": "F#4",
                    "midi": 66,
                    "time": 99.8606812499999,
                    "velocity": 0.31496062992125984,
                    "duration": 0.16080624999999316
                },
                {
                    "name": "A#4",
                    "midi": 70,
                    "time": 100.02148749999989,
                    "velocity": 0.30708661417322836,
                    "duration": 0.16080624999999316
                },
                {
                    "name": "B4",
                    "midi": 71,
                    "time": 100.18229374999989,
                    "velocity": 0.2992125984251969,
                    "duration": 0.16080624999999316
                },
                {
                    "name": "D5",
                    "midi": 74,
                    "time": 100.34309999999988,
                    "velocity": 0.29133858267716534,
                    "duration": 0.16080624999999316
                },
                {
                    "name": "D#5",
                    "midi": 75,
                    "time": 100.50390624999987,
                    "velocity": 0.28346456692913385,
                    "duration": 0.16080624999999316
                },
                {
                    "name": "B4",
                    "midi": 71,
                    "time": 100.66471249999987,
                    "velocity": 0.25196850393700787,
                    "duration": 0.16080624999999316
                },
                {
                    "name": "F#4",
                    "midi": 66,
                    "time": 100.98632499999985,
                    "velocity": 0.25196850393700787,
                    "duration": 0.16080624999999316
                },
                {
                    "name": "D#4",
                    "midi": 63,
                    "time": 101.30793749999984,
                    "velocity": 0.2440944881889764,
                    "duration": 0.16080624999999316
                },
                {
                    "name": "F#4",
                    "midi": 66,
                    "time": 101.62954999999982,
                    "velocity": 0.1968503937007874,
                    "duration": 0.16080624999999316
                },
                {
                    "name": "D#5",
                    "midi": 75,
                    "time": 101.62954999999982,
                    "velocity": 0.1968503937007874,
                    "duration": 0.16080624999999316
                },
                {
                    "name": "B4",
                    "midi": 71,
                    "time": 101.62954999999982,
                    "velocity": 0.1968503937007874,
                    "duration": 0.16080624999999316
                }
            ],
            "controlChanges": {
                "7": [
                    {
                        "number": 7,
                        "time": 0,
                        "value": 0.7874015748031497
                    }
                ],
                "10": [
                    {
                        "number": 10,
                        "time": 0,
                        "value": 0.5039370078740157
                    }
                ],
                "64": [
                    {
                        "number": 64,
                        "time": 55.38971281250004,
                        "value": 1
                    },
                    {
                        "number": 64,
                        "time": 55.971295416666706,
                        "value": 0
                    }
                ],
                "91": [
                    {
                        "number": 91,
                        "time": 0,
                        "value": 1
                    },
                    {
                        "number": 91,
                        "time": 7.075475000000001,
                        "value": 1
                    }
                ]
            },
            "id": 2,
            "name": "Piano left",
            "instrumentNumber": 0,
            "instrument": "acoustic grand piano",
            "instrumentFamily": "piano",
            "channelNumber": 0,
            "isPercussion": false
        },
        {
            "startTime": 0,
            "duration": 0,
            "length": 0,
            "notes": [],
            "controlChanges": {
                "64": [
                    {
                        "number": 64,
                        "time": 0.10720416666666666,
                        "value": 1
                    },
                    {
                        "number": 64,
                        "time": 0.6606456770833333,
                        "value": 0
                    },
                    {
                        "number": 64,
                        "time": 0.8268121354166666,
                        "value": 1
                    },
                    {
                        "number": 64,
                        "time": 1.2944903124999998,
                        "value": 0
                    },
                    {
                        "number": 64,
                        "time": 1.516938958333333,
                        "value": 1
                    },
                    {
                        "number": 64,
                        "time": 1.947095677083333,
                        "value": 0
                    },
                    {
                        "number": 64,
                        "time": 2.1909851562499996,
                        "value": 1
                    },
                    {
                        "number": 64,
                        "time": 2.5916607291666662,
                        "value": 0
                    },
                    {
                        "number": 64,
                        "time": 2.787308333333333,
                        "value": 1
                    },
                    {
                        "number": 64,
                        "time": 3.2161249999999995,
                        "value": 0
                    },
                    {
                        "number": 64,
                        "time": 3.399712135416666,
                        "value": 1
                    },
                    {
                        "number": 64,
                        "time": 3.8767706770833326,
                        "value": 0
                    },
                    {
                        "number": 64,
                        "time": 4.073758333333332,
                        "value": 1
                    },
                    {
                        "number": 64,
                        "time": 4.517315572916665,
                        "value": 0
                    },
                    {
                        "number": 64,
                        "time": 4.763885156249999,
                        "value": 1
                    },
                    {
                        "number": 64,
                        "time": 5.163220677083332,
                        "value": 0
                    },
                    {
                        "number": 64,
                        "time": 5.345467760416666,
                        "value": 1
                    },
                    {
                        "number": 64,
                        "time": 5.8037655729166655,
                        "value": 0
                    },
                    {
                        "number": 64,
                        "time": 6.034254531249998,
                        "value": 1
                    },
                    {
                        "number": 64,
                        "time": 6.449670677083332,
                        "value": 0
                    },
                    {
                        "number": 64,
                        "time": 6.662738958333332,
                        "value": 1
                    },
                    {
                        "number": 64,
                        "time": 6.953530260416665,
                        "value": 0
                    },
                    {
                        "number": 64,
                        "time": 7.259062135416665,
                        "value": 1
                    },
                    {
                        "number": 64,
                        "time": 7.736120677083331,
                        "value": 0
                    },
                    {
                        "number": 64,
                        "time": 7.872805989583331,
                        "value": 1
                    },
                    {
                        "number": 64,
                        "time": 8.380685729166665,
                        "value": 0
                    },
                    {
                        "number": 64,
                        "time": 8.623235156249997,
                        "value": 1
                    },
                    {
                        "number": 64,
                        "time": 9.023910729166664,
                        "value": 0
                    },
                    {
                        "number": 64,
                        "time": 9.204817760416663,
                        "value": 1
                    },
                    {
                        "number": 64,
                        "time": 9.665795677083329,
                        "value": 0
                    },
                    {
                        "number": 64,
                        "time": 9.878863958333328,
                        "value": 1
                    },
                    {
                        "number": 64,
                        "time": 10.296960208333328,
                        "value": 0
                    },
                    {
                        "number": 64,
                        "time": 10.429625364583329,
                        "value": 1
                    },
                    {
                        "number": 64,
                        "time": 10.953585729166662,
                        "value": 0
                    },
                    {
                        "number": 64,
                        "time": 11.149233333333328,
                        "value": 1
                    },
                    {
                        "number": 64,
                        "time": 11.598150781249995,
                        "value": 0
                    },
                    {
                        "number": 64,
                        "time": 11.808538958333328,
                        "value": 1
                    },
                    {
                        "number": 64,
                        "time": 12.24003572916666,
                        "value": 0
                    },
                    {
                        "number": 64,
                        "time": 12.451763958333327,
                        "value": 1
                    },
                    {
                        "number": 64,
                        "time": 12.876560468749993,
                        "value": 0
                    },
                    {
                        "number": 64,
                        "time": 13.04808713541666,
                        "value": 1
                    },
                    {
                        "number": 64,
                        "time": 13.525145677083326,
                        "value": 0
                    },
                    {
                        "number": 64,
                        "time": 13.738213958333326,
                        "value": 1
                    },
                    {
                        "number": 64,
                        "time": 13.983443489583326,
                        "value": 0
                    },
                    {
                        "number": 64,
                        "time": 14.321136614583326,
                        "value": 1
                    },
                    {
                        "number": 64,
                        "time": 14.806235468749993,
                        "value": 0
                    },
                    {
                        "number": 64,
                        "time": 14.983122343749992,
                        "value": 1
                    },
                    {
                        "number": 64,
                        "time": 15.450800520833326,
                        "value": 0
                    },
                    {
                        "number": 64,
                        "time": 15.626347343749993,
                        "value": 1
                    },
                    {
                        "number": 64,
                        "time": 16.09670562499999,
                        "value": 0
                    },
                    {
                        "number": 64,
                        "time": 16.345955312499992,
                        "value": 1
                    },
                    {
                        "number": 64,
                        "time": 16.74261072916666,
                        "value": 0
                    },
                    {
                        "number": 64,
                        "time": 17.082983958333326,
                        "value": 1
                    },
                    {
                        "number": 64,
                        "time": 17.37779541666666,
                        "value": 0
                    },
                    {
                        "number": 64,
                        "time": 17.535921562499993,
                        "value": 1
                    },
                    {
                        "number": 64,
                        "time": 18.02906072916666,
                        "value": 0
                    },
                    {
                        "number": 64,
                        "time": 18.20996776041666,
                        "value": 1
                    },
                    {
                        "number": 64,
                        "time": 18.562401458333326,
                        "value": 0
                    },
                    {
                        "number": 64,
                        "time": 18.77680979166666,
                        "value": 1
                    },
                    {
                        "number": 64,
                        "time": 19.956055624999994,
                        "value": 0
                    },
                    {
                        "number": 64,
                        "time": 20.13964276041666,
                        "value": 1
                    },
                    {
                        "number": 64,
                        "time": 20.60196072916666,
                        "value": 0
                    },
                    {
                        "number": 64,
                        "time": 20.844510156249992,
                        "value": 1
                    },
                    {
                        "number": 64,
                        "time": 21.058918489583327,
                        "value": 0
                    },
                    {
                        "number": 64,
                        "time": 27.153475364583326,
                        "value": 1
                    },
                    {
                        "number": 64,
                        "time": 27.705576822916658,
                        "value": 0
                    },
                    {
                        "number": 64,
                        "time": 28.40910416666666,
                        "value": 1
                    },
                    {
                        "number": 64,
                        "time": 29.068409791666657,
                        "value": 0
                    },
                    {
                        "number": 64,
                        "time": 29.68885390624999,
                        "value": 1
                    },
                    {
                        "number": 64,
                        "time": 30.24765562499999,
                        "value": 0
                    },
                    {
                        "number": 64,
                        "time": 31.571627083333322,
                        "value": 1
                    },
                    {
                        "number": 64,
                        "time": 31.870458697916654,
                        "value": 0
                    },
                    {
                        "number": 64,
                        "time": 31.920040624999988,
                        "value": 1
                    },
                    {
                        "number": 64,
                        "time": 32.184030885416654,
                        "value": 0
                    },
                    {
                        "number": 64,
                        "time": 32.33009656249999,
                        "value": 1
                    },
                    {
                        "number": 64,
                        "time": 33.012183072916656,
                        "value": 0
                    },
                    {
                        "number": 64,
                        "time": 33.54016359374999,
                        "value": 1
                    },
                    {
                        "number": 64,
                        "time": 34.24503098958332,
                        "value": 0
                    },
                    {
                        "number": 64,
                        "time": 34.78105182291665,
                        "value": 1
                    },
                    {
                        "number": 64,
                        "time": 35.38943546874999,
                        "value": 0
                    },
                    {
                        "number": 64,
                        "time": 36.04740104166665,
                        "value": 1
                    },
                    {
                        "number": 64,
                        "time": 36.34623265624999,
                        "value": 0
                    },
                    {
                        "number": 64,
                        "time": 36.40385489583332,
                        "value": 1
                    },
                    {
                        "number": 64,
                        "time": 36.67186531249999,
                        "value": 0
                    },
                    {
                        "number": 64,
                        "time": 36.72948755208332,
                        "value": 1
                    },
                    {
                        "number": 64,
                        "time": 36.99883802083332,
                        "value": 0
                    },
                    {
                        "number": 64,
                        "time": 37.065840624999986,
                        "value": 1
                    },
                    {
                        "number": 64,
                        "time": 37.34457145833332,
                        "value": 0
                    },
                    {
                        "number": 64,
                        "time": 37.39281333333332,
                        "value": 1
                    },
                    {
                        "number": 64,
                        "time": 38.13922234374999,
                        "value": 0
                    },
                    {
                        "number": 64,
                        "time": 38.68864369791666,
                        "value": 1
                    },
                    {
                        "number": 64,
                        "time": 39.39753124999999,
                        "value": 0
                    },
                    {
                        "number": 64,
                        "time": 39.92283166666666,
                        "value": 1
                    },
                    {
                        "number": 64,
                        "time": 40.527195156249995,
                        "value": 0
                    },
                    {
                        "number": 64,
                        "time": 41.87930770833333,
                        "value": 1
                    },
                    {
                        "number": 64,
                        "time": 42.15401838541666,
                        "value": 0
                    },
                    {
                        "number": 64,
                        "time": 42.19287989583333,
                        "value": 1
                    },
                    {
                        "number": 64,
                        "time": 42.45285,
                        "value": 0
                    },
                    {
                        "number": 64,
                        "time": 42.680658854166666,
                        "value": 1
                    },
                    {
                        "number": 64,
                        "time": 43.333264218749996,
                        "value": 0
                    },
                    {
                        "number": 64,
                        "time": 43.8438240625,
                        "value": 1
                    },
                    {
                        "number": 64,
                        "time": 44.571472343749996,
                        "value": 0
                    },
                    {
                        "number": 64,
                        "time": 45.083372239583326,
                        "value": 1
                    },
                    {
                        "number": 64,
                        "time": 45.823080989583325,
                        "value": 0
                    },
                    {
                        "number": 64,
                        "time": 46.37384239583332,
                        "value": 1
                    },
                    {
                        "number": 64,
                        "time": 46.971505624999985,
                        "value": 0
                    },
                    {
                        "number": 64,
                        "time": 47.66833270833332,
                        "value": 1
                    },
                    {
                        "number": 64,
                        "time": 48.402681249999986,
                        "value": 0
                    },
                    {
                        "number": 64,
                        "time": 48.95076255208332,
                        "value": 1
                    },
                    {
                        "number": 64,
                        "time": 49.53904541666665,
                        "value": 0
                    },
                    {
                        "number": 64,
                        "time": 50.210411510416655,
                        "value": 1
                    },
                    {
                        "number": 64,
                        "time": 51.48346098958332,
                        "value": 0
                    },
                    {
                        "number": 64,
                        "time": 51.53170286458332,
                        "value": 1
                    },
                    {
                        "number": 64,
                        "time": 51.79703317708332,
                        "value": 0
                    },
                    {
                        "number": 64,
                        "time": 51.853315364583324,
                        "value": 1
                    },
                    {
                        "number": 64,
                        "time": 52.11730562499999,
                        "value": 0
                    },
                    {
                        "number": 64,
                        "time": 52.177607968749996,
                        "value": 1
                    },
                    {
                        "number": 64,
                        "time": 52.438918124999994,
                        "value": 0
                    },
                    {
                        "number": 64,
                        "time": 52.484479895833324,
                        "value": 1
                    },
                    {
                        "number": 64,
                        "time": 52.75517041666666,
                        "value": 0
                    },
                    {
                        "number": 64,
                        "time": 52.94411776041666,
                        "value": 1
                    },
                    {
                        "number": 64,
                        "time": 53.556521562499995,
                        "value": 0
                    },
                    {
                        "number": 64,
                        "time": 54.10058270833333,
                        "value": 1
                    },
                    {
                        "number": 64,
                        "time": 54.85101187499999,
                        "value": 0
                    },
                    {
                        "number": 64,
                        "time": 55.39105286458332,
                        "value": 1
                    },
                    {
                        "number": 64,
                        "time": 55.967275260416656,
                        "value": 0
                    },
                    {
                        "number": 64,
                        "time": 57.296606927083324,
                        "value": 1
                    },
                    {
                        "number": 64,
                        "time": 57.57935791666666,
                        "value": 0
                    },
                    {
                        "number": 64,
                        "time": 57.630279895833326,
                        "value": 1
                    },
                    {
                        "number": 64,
                        "time": 57.890249999999995,
                        "value": 0
                    },
                    {
                        "number": 64,
                        "time": 57.98271359374999,
                        "value": 1
                    },
                    {
                        "number": 64,
                        "time": 58.55625588541666,
                        "value": 0
                    },
                    {
                        "number": 64,
                        "time": 58.62593859374999,
                        "value": 1
                    },
                    {
                        "number": 64,
                        "time": 59.19144057291666,
                        "value": 0
                    },
                    {
                        "number": 64,
                        "time": 59.269163593749994,
                        "value": 1
                    },
                    {
                        "number": 64,
                        "time": 59.76632291666666,
                        "value": 0
                    },
                    {
                        "number": 64,
                        "time": 60.57035416666666,
                        "value": 1
                    },
                    {
                        "number": 64,
                        "time": 61.76032041666666,
                        "value": 0
                    },
                    {
                        "number": 64,
                        "time": 61.94926776041666,
                        "value": 1
                    },
                    {
                        "number": 64,
                        "time": 62.416945937499996,
                        "value": 0
                    },
                    {
                        "number": 64,
                        "time": 62.57641213541666,
                        "value": 1
                    },
                    {
                        "number": 64,
                        "time": 63.052130625,
                        "value": 0
                    },
                    {
                        "number": 64,
                        "time": 63.17407536458333,
                        "value": 1
                    },
                    {
                        "number": 64,
                        "time": 64.33456046875,
                        "value": 0
                    },
                    {
                        "number": 64,
                        "time": 64.43372432291666,
                        "value": 1
                    },
                    {
                        "number": 64,
                        "time": 65.62905078124999,
                        "value": 0
                    },
                    {
                        "number": 64,
                        "time": 65.89974130208331,
                        "value": 1
                    },
                    {
                        "number": 64,
                        "time": 66.90746046874997,
                        "value": 0
                    },
                    {
                        "number": 64,
                        "time": 67.15671015624997,
                        "value": 1
                    },
                    {
                        "number": 64,
                        "time": 67.55738572916664,
                        "value": 0
                    },
                    {
                        "number": 64,
                        "time": 67.8294163020833,
                        "value": 1
                    },
                    {
                        "number": 64,
                        "time": 68.18587015624998,
                        "value": 0
                    },
                    {
                        "number": 64,
                        "time": 68.41233895833331,
                        "value": 1
                    },
                    {
                        "number": 64,
                        "time": 68.8424956770833,
                        "value": 0
                    },
                    {
                        "number": 64,
                        "time": 68.99392156249998,
                        "value": 1
                    },
                    {
                        "number": 64,
                        "time": 69.47366020833331,
                        "value": 0
                    },
                    {
                        "number": 64,
                        "time": 69.69878895833331,
                        "value": 1
                    },
                    {
                        "number": 64,
                        "time": 70.11822526041664,
                        "value": 0
                    },
                    {
                        "number": 64,
                        "time": 70.29511213541663,
                        "value": 1
                    },
                    {
                        "number": 64,
                        "time": 70.75743010416663,
                        "value": 0
                    },
                    {
                        "number": 64,
                        "time": 71.03080072916663,
                        "value": 1
                    },
                    {
                        "number": 64,
                        "time": 72.04790026041663,
                        "value": 0
                    },
                    {
                        "number": 64,
                        "time": 72.27168895833329,
                        "value": 1
                    },
                    {
                        "number": 64,
                        "time": 72.70318572916662,
                        "value": 0
                    },
                    {
                        "number": 64,
                        "time": 72.94573515624995,
                        "value": 1
                    },
                    {
                        "number": 64,
                        "time": 73.32764999999995,
                        "value": 0
                    },
                    {
                        "number": 64,
                        "time": 73.53535807291661,
                        "value": 1
                    },
                    {
                        "number": 64,
                        "time": 74.6288405729166,
                        "value": 0
                    },
                    {
                        "number": 64,
                        "time": 74.8137677604166,
                        "value": 1
                    },
                    {
                        "number": 64,
                        "time": 75.90591020833327,
                        "value": 0
                    },
                    {
                        "number": 64,
                        "time": 76.05465598958327,
                        "value": 1
                    },
                    {
                        "number": 64,
                        "time": 77.19906046874993,
                        "value": 0
                    },
                    {
                        "number": 64,
                        "time": 77.3183251041666,
                        "value": 1
                    },
                    {
                        "number": 64,
                        "time": 77.84362552083327,
                        "value": 0
                    },
                    {
                        "number": 64,
                        "time": 77.98433098958327,
                        "value": 1
                    },
                    {
                        "number": 64,
                        "time": 78.47479005208326,
                        "value": 0
                    },
                    {
                        "number": 64,
                        "time": 78.61281541666659,
                        "value": 1
                    },
                    {
                        "number": 64,
                        "time": 79.76794031249993,
                        "value": 0
                    },
                    {
                        "number": 64,
                        "time": 79.91400598958326,
                        "value": 1
                    },
                    {
                        "number": 64,
                        "time": 80.41920562499993,
                        "value": 0
                    },
                    {
                        "number": 64,
                        "time": 80.54919067708326,
                        "value": 1
                    },
                    {
                        "number": 64,
                        "time": 81.04769005208325,
                        "value": 0
                    },
                    {
                        "number": 64,
                        "time": 81.20045598958326,
                        "value": 1
                    },
                    {
                        "number": 64,
                        "time": 81.70565562499993,
                        "value": 0
                    },
                    {
                        "number": 64,
                        "time": 81.85172130208326,
                        "value": 1
                    },
                    {
                        "number": 64,
                        "time": 82.34218036458326,
                        "value": 0
                    },
                    {
                        "number": 64,
                        "time": 82.47216541666658,
                        "value": 1
                    },
                    {
                        "number": 64,
                        "time": 82.98406531249992,
                        "value": 0
                    },
                    {
                        "number": 64,
                        "time": 83.13013098958325,
                        "value": 1
                    },
                    {
                        "number": 64,
                        "time": 83.62863036458324,
                        "value": 0
                    },
                    {
                        "number": 64,
                        "time": 83.73851463541658,
                        "value": 1
                    },
                    {
                        "number": 64,
                        "time": 84.42462130208324,
                        "value": 0
                    },
                    {
                        "number": 64,
                        "time": 84.62294901041658,
                        "value": 1
                    },
                    {
                        "number": 64,
                        "time": 84.91642041666658,
                        "value": 0
                    },
                    {
                        "number": 64,
                        "time": 84.95528192708325,
                        "value": 1
                    },
                    {
                        "number": 64,
                        "time": 86.21493088541658,
                        "value": 0
                    },
                    {
                        "number": 64,
                        "time": 86.33419552083325,
                        "value": 1
                    },
                    {
                        "number": 64,
                        "time": 86.97742052083325,
                        "value": 0
                    },
                    {
                        "number": 64,
                        "time": 87.18780869791658,
                        "value": 1
                    },
                    {
                        "number": 64,
                        "time": 87.49334057291658,
                        "value": 0
                    },
                    {
                        "number": 64,
                        "time": 87.55230286458324,
                        "value": 1
                    },
                    {
                        "number": 64,
                        "time": 88.78515078124991,
                        "value": 0
                    },
                    {
                        "number": 64,
                        "time": 88.96337770833324,
                        "value": 1
                    },
                    {
                        "number": 64,
                        "time": 89.5972223437499,
                        "value": 0
                    },
                    {
                        "number": 64,
                        "time": 90.17478479166657,
                        "value": 1
                    },
                    {
                        "number": 64,
                        "time": 90.86491161458324,
                        "value": 0
                    },
                    {
                        "number": 64,
                        "time": 91.35403062499991,
                        "value": 1
                    },
                    {
                        "number": 64,
                        "time": 91.99993572916658,
                        "value": 0
                    },
                    {
                        "number": 64,
                        "time": 92.06559828124992,
                        "value": 1
                    },
                    {
                        "number": 64,
                        "time": 92.64718088541659,
                        "value": 0
                    },
                    {
                        "number": 64,
                        "time": 92.70078296874992,
                        "value": 1
                    },
                    {
                        "number": 64,
                        "time": 93.29040588541659,
                        "value": 0
                    },
                    {
                        "number": 64,
                        "time": 93.37482916666659,
                        "value": 1
                    },
                    {
                        "number": 64,
                        "time": 93.92291046874992,
                        "value": 0
                    },
                    {
                        "number": 64,
                        "time": 94.02609447916659,
                        "value": 1
                    },
                    {
                        "number": 64,
                        "time": 94.73096187499992,
                        "value": 0
                    },
                    {
                        "number": 64,
                        "time": 95.27368296874992,
                        "value": 1
                    },
                    {
                        "number": 64,
                        "time": 95.97855036458326,
                        "value": 0
                    },
                    {
                        "number": 64,
                        "time": 96.5226115104166,
                        "value": 1
                    },
                    {
                        "number": 64,
                        "time": 97.14037552083326,
                        "value": 0
                    },
                    {
                        "number": 64,
                        "time": 97.21139828124993,
                        "value": 1
                    },
                    {
                        "number": 64,
                        "time": 97.45260765624992,
                        "value": 0
                    },
                    {
                        "number": 64,
                        "time": 97.49146916666659,
                        "value": 1
                    },
                    {
                        "number": 64,
                        "time": 97.78226046874993,
                        "value": 0
                    },
                    {
                        "number": 64,
                        "time": 97.82782223958326,
                        "value": 1
                    },
                    {
                        "number": 64,
                        "time": 98.11727348958325,
                        "value": 0
                    },
                    {
                        "number": 64,
                        "time": 98.16551536458326,
                        "value": 1
                    },
                    {
                        "number": 64,
                        "time": 98.42950562499992,
                        "value": 0
                    },
                    {
                        "number": 64,
                        "time": 98.47908755208326,
                        "value": 1
                    },
                    {
                        "number": 64,
                        "time": 98.75379822916659,
                        "value": 0
                    },
                    {
                        "number": 64,
                        "time": 98.78193932291659,
                        "value": 1
                    },
                    {
                        "number": 64,
                        "time": 99.05664999999992,
                        "value": 0
                    },
                    {
                        "number": 64,
                        "time": 99.14911359374992,
                        "value": 1
                    },
                    {
                        "number": 64,
                        "time": 99.70791531249992,
                        "value": 0
                    },
                    {
                        "number": 64,
                        "time": 99.80037890624992,
                        "value": 1
                    },
                    {
                        "number": 64,
                        "time": 100.35784057291659,
                        "value": 0
                    },
                    {
                        "number": 64,
                        "time": 100.45030416666658,
                        "value": 1
                    },
                    {
                        "number": 64,
                        "time": 100.90190171874991,
                        "value": 0
                    }
                ]
            },
            "id": 3,
            "name": "Pedal"
        },
        {
            "startTime": 0,
            "duration": 0,
            "length": 0,
            "notes": [],
            "controlChanges": {},
            "id": 4,
            "name": "Modest Mussorgski: Bilder einer Ausstellung (3)"
        },
        {
            "startTime": 0,
            "duration": 0,
            "length": 0,
            "notes": [],
            "controlChanges": {},
            "id": 5,
            "name": "Copyright  2000 by Bernd Krger"
        },
        {
            "startTime": 0,
            "duration": 0,
            "length": 0,
            "notes": [],
            "controlChanges": {},
            "id": 6,
            "name": "http://www.piano-midi.de"
        },
        {
            "startTime": 0,
            "duration": 0,
            "length": 0,
            "notes": [],
            "controlChanges": {},
            "id": 7,
            "name": "Edition: 2013-11-15"
        },
        {
            "startTime": 0,
            "duration": 0,
            "length": 0,
            "notes": [],
            "controlChanges": {},
            "id": 8,
            "name": "Spur 8"
        }
    ]
}